<?xml version="1.0" encoding="utf-8"?>

<svg version="1.2" baseProfile="tiny" xmlns="http://www.w3.org/2000/svg" xmlns:xlink="http://www.w3.org/1999/xlink" x="0px"
	 y="0px" viewBox="280.2 140.9 279.5 312.3" xml:space="preserve">

<g id="Angola">
	<g>
		<path fill="#CE1126" d="M390.9,287c0.1,2.9,2.3,6.7,5.8,11h85.8c0-32.8-25-59.4-56.9-62.8l1.4-13l-0.8,0.4l-0.3,0.1l-0.4,0.2
			l-0.2,0.5l0,0.6l0.1,0.6l-2,0l-0.6-0.1l-1.2-1l-0.7-0.3l-0.8-0.1l-0.4,0.1l-1.4,0.8l-0.3,0l-0.8-0.3l-0.7-0.1l-1.9,0.7l-0.6,0
			l-1.3-0.3l-0.2-0.2l-0.2-0.3l0.3-0.6l-0.1-0.4l-0.2-0.2l-0.5-0.3l-0.2-0.2l-0.1-0.2l-0.2-0.7l-0.1,0.1l-0.1,0.1l-0.1,0.1l-0.1-0.2
			L411,221l0-0.1l0.1-0.2l-0.5-0.2l-0.2-0.1l-0.1-0.1l0.1-0.3l0.2-0.2l0.1-0.2l-0.3-0.3l-0.3,0.1l-0.1-0.2l0-0.3l-0.1-0.3l-0.2-0.1
			l-0.3,0l-0.2,0l0.2-0.2v-0.2l-0.4,0L409,218l0-0.3l0-0.2l-0.2-0.1l-0.5-0.1l-0.1-0.1l-0.1-0.2l-0.4-0.4l-0.1-0.3l0.1-0.2l0.1-0.2
			l0-0.2l-0.4-0.2l0.1-0.1v0l-0.1,0l0-0.2l-0.3,0.2L407,215l0-0.5l-0.1-0.4l0.1-0.4l-0.4-0.3l-1.1-0.6l-0.3-0.5l-0.4-1.1l-0.3-0.5
			l-0.2-0.2l-0.2-0.1l-0.1-0.1l-0.1-0.2l0.1-0.3l0.3-0.1l0.3-0.1l0.1-0.1l-0.1-0.2l-0.2-0.1l-0.5-0.1l-0.2-0.1l-0.1-0.1l-0.1,0
			l-0.2,0.3l-0.3-0.2l-0.1-0.3l0-0.8l-0.1-0.3l-0.2-0.2l-0.6-0.3l-0.8-0.5l-0.6-0.2l-0.1-0.3v-0.3l-0.1-0.4l-0.4-0.5l-0.3-0.3
			l-0.2-0.1l-0.1-0.2l0-1.2l-0.5-1.5l0-0.6l0.7,0.2l0-0.5l0.2-0.4l0.1-0.4l-0.2-0.4l-0.1-0.2l-0.1-0.2l-0.1-0.1l-0.3-0.1l-0.2-0.1
			v-0.2l0.1-0.2l0-0.1l-0.2-1.3l-0.3-0.6l-0.5-0.4l-0.3-0.1l-0.5-0.1l-0.2-0.1l-0.3-0.2l-0.1-0.3l0-0.3l-0.1-0.3l-1.2-1.7l-0.2-0.4
			l-0.1-0.4l-0.1-0.8l-0.1-0.4l-0.3-0.8l-0.1-0.4l0.1-0.4l0.3-0.5l0-0.2l-0.2-0.3l-0.2-0.2l-0.1-0.2l0-0.3l0.2-0.3l-0.5,0v-0.2
			l0.2-0.3l0.1-0.3l0-0.3l-0.1,0l-0.2,0l-0.2-0.1l-0.1-0.2l0-0.1l0-0.9l0.1-0.2l0.2-0.1l0.2,0l0.1-0.1l0-0.2l0-0.2l-0.1-0.2l0-0.2
			l0-1.7l0.1-0.4l0.2-0.3l0.1-0.3l-0.2-0.3l-0.4-0.4l-0.1-0.3l-0.2-0.1l-0.3-0.1l-0.3-0.1l-0.4-0.5l-0.3-0.2l-0.5,0l0.5-0.6
			l-0.1-0.2l-0.2,0l-0.2,0.1l-0.1,0l-0.1-0.3l-0.1-1.4l0-0.2l-0.1-0.2l-0.2-0.3v-0.1l0.3-0.4l0.1-0.2l-0.8-0.4l-0.2-0.1l-0.9-0.3
			l-0.4-0.1l-0.4,0l-0.4,0.1l-0.7,0.2l-0.3,0l-0.4-0.1l-0.5-0.3l-0.4-0.3l-0.4-0.2l-0.6-0.1l-1.3,0l-2.1,0l-2.1,0l-2.1,0l-2.1,0
			l-2.1,0l-2.1,0l-2.1,0l-2.1,0l-2.1,0l-2.1,0l-2.1,0l-2.1,0l-2.1,0l-2.1,0l-2.1,0l-2.1,0l-2.1,0l-2.9,0.5l-0.7-0.1l-1.4-0.4l-1,0.2
			l-2,0l-2.4,0l-0.4-0.1l-1.3-0.5l-0.5-0.1l-2.7,0.2l-0.3-0.1l-0.5-0.3l-0.9-0.3l-3.1,0.2l-3.7,0.3l-1.8-0.2l-0.2,0l-0.4,0.2l-0.3,0
			l-0.7-0.2l-1.8,0l-0.7,0l-0.1,0.1l-0.5,0.5l-0.2,0.2l-0.7-0.4l-0.9-0.2l-1.9-0.2l-0.3,0.1l-0.9,0.5l-0.4,0.2l-0.3,0l-1-0.3l-0.2,0
			l-0.6,0.1l-0.4,0l-0.4,0l-0.3,0l-0.4,0.2l-0.2,0.3l-0.3,0.7l-0.2,0.3l-0.3,0.3l-1.9,1l-0.4,0.1l-1.5,0.1l-0.3,0.2l-0.4-0.1
			l-0.4-0.2l-0.3-0.1l-0.3,0.1l-0.5,0.5l-0.3,0.1h-1.3l-0.2,0l-0.1,0.1l-0.2,0.3l-0.1,0l-0.4-0.1l-0.2,0l-2.1,0.6l-1.2,0.1l-0.6,0.2
			l-0.4,0l-0.3,0.1l-0.6,0.4l-0.4,0.1v-0.1l0.4-0.1l0-0.2l-0.5-0.5l0.3-0.1l0.3-0.1l0.3-0.1l0.3-0.2l-0.8,0.1l-0.5,0.4l-0.1,0.6
			l0.4,0.7l1.8,2.1l0.2,0.3l0.3,1.1l0.6,1.1l0.2,1l1.2,1.9l1.9,3.8l1.8,1.6l1.9,2.5l1.6,2.3l0.5,0.2l0.7-0.4l0.1,0.2l0,0.1l-0.1,0.1
			l-0.1,0.2l-0.1,0.1l-0.2,0.2l-0.1,0.1l0,0.1l0.1,0.1l0,0.1l0,0.4l0.2,0.7l0.3,4.5l0.2,0.7l0.3,0.6l0.2,0.3l0.5,0.6l0.2,0.3l2,5.3
			l2.9,6.9l1.5,2.7l0.2,1l0.4,0.9l0.2,0.2l0.3,0.6l0.2,0.3l0.2,0.4l0.3,1l0.3,0.2l2.1,3.3l0.2,0.5l0.1,0.5l0,1.7l-0.1,0.2l-0.2,0.2
			l-0.2,0l-0.2,0l-0.3,0.1l0.2,0.7l0.3,1.5l0.3,0.7l0.7,0.9l0.1,0.3l-0.1,0.3l-0.3,0.8l-0.3,1.2l-0.5,0.2l-1.4-0.2l-0.2,0l-0.1,0.1
			l0,0.1l0,0.2l-0.1,0.2l-0.1,0.1l-0.2,0l-0.4,0.3l-0.7,0.3l-0.3,0.2l0.3-0.4l1.1-1.1l-0.4,0.1l-0.4,0.3l-0.7,0.7l-0.1,0.2l0,0.5
			l0,0.2l-0.1,0.3l-0.6,0.6l-0.3,0.5l-0.2,0.7l-0.3,0.3l-0.2,0l-0.3,0l-0.3,0.1l-0.1,0.2l0,0.2l-1.3,2.1l-0.2,0.2l-0.3-0.3l0.2-0.6
			l0.8-1.9l1.6-1.4l0.5-0.7l-1.1,0.5l-1.3,1.5l-0.9,1.8l0.1,1.3l0.5,0.7l0.6,1.5l1.7,2.8l0.5,0.4l0.1,0.5l0.4,0.8l0.1,0.4l-0.1,1
			l0,0.4l0.7,2.1l0,0.3l0.2,0.2l0.2,0.4l0.1,0.5l0,0.4l-0.2,0.4l-0.5,0.5l-0.1,0.4l0.2,0.4l1.8,2.1l0.6,0.9l0.5,1l0.2,0.9l-0.1,0.5
			l-0.2,0.3l-0.1,0.3l1.3,2.1l0.9,0.9l0.4,0.5l0.3,1.1l0.3,0.5l1.2,1.7l0.2,0.5l0.1,0.5l0,1.5l0.1,0.4l0.3,0.5l1.4,1.2l2.1,2.6
			l0.1,0.3l0.1,0.2l0.9,0.8l0.3,0.4l0.2,0.4l0,0.4l-0.7,0.8l-0.2,0.4l0,0.4l0.2,0.4l2,3l0.3,0.7l0.1,0.8l0,1.7l0,1.3l-0.6,3.3v0.6
			l-0.1,0.3l-0.4,0.6l-0.1,0.2l0,0.1h58.6C387.6,294.6,388.9,290.9,390.9,287z M412.4,259.7l6.6-20.2l6.6,20.2h21.3l-17.2,12.5
			l6.6,20.2L419,279.9l-17.2,12.5l6.6-20.2l-17.2-12.5H412.4z"/>
		<path fill="#CE1126" d="M558.6,296.5l0.1-3.3l-0.4-0.1l-0.1-0.3l0.1-0.9l0-1.3l0.1-0.4l0.1-0.4l-0.1-0.3l-0.4-0.7l-0.1-0.4
			l-0.2-1.1l-0.4,0.2l-0.2,0.5l-0.1,0.5l-0.2,0.5l-0.2,0.2l-0.5,0.3l-0.2,0.2l-0.1,0.2l-0.2,0.5l-0.2,0.2l-0.8,0.3l-0.9-0.2
			l-0.9-0.3l-0.9-0.1l-0.9,0.1l-0.7-0.1l-1.9-0.5l-1.4-0.4l-0.9-0.1l-0.9,0.1l-1,0.3l-1.5,0.8l-2.5,1.4l-1.8,0.3l-2.3,0.4h-1
			l-0.9-0.1l-0.5-0.2l-0.8-0.6l-0.5-0.2l-0.5,0l-0.5,0.2l-0.5,0.4l-0.5,0.3l-0.8,0.1l-0.9-0.1l-0.9-0.2l-0.8-0.3l-1.7-0.7l-0.8,0.1
			l-0.7,1.8l-0.7,0.6l-2.3,0.8l-0.3,0.2l-1,1.1l-0.4,0.3l-0.6,0l0.3-0.9l0.1-1l-0.3-2l-0.1-0.4l-0.4-0.7l-0.1-0.4l-0.1-0.1l-0.3-0.2
			l-0.1-0.1v-0.9l-0.5-1.6l-0.2-0.4l0-0.4l0.4-0.5l0.5-0.5l0.4-0.3l0.9-0.4l0.6-0.2l0.4-0.1l0.2-0.2l0.1-0.4l-0.1-0.9l0-0.1l0.1-0.1
			l-0.4-0.6l-0.1-0.8l0-0.9l-0.1-1l-0.2-0.5l-0.3-0.3l-0.2-0.3l-0.1-0.5l0.2-0.5l0.5-0.8l0.1-0.3l0-0.2l0.1-0.4l0-0.3l-0.1-0.3
			l-0.3-0.4l-0.2-0.7l-0.5-0.9l-0.4-1.1l-0.5-1l-0.4-1l0.2-0.7l-0.1-0.3l-0.2-1l-0.5-1.2l-0.2-0.8l-0.2-0.5l-0.3-0.4l-0.9-0.6
			l-0.4-0.3l-0.2-0.1l-0.2,0.2l-0.2,0l-0.2-0.1l-1.3-1.5l-0.3-0.6l0-0.7l-0.1,0.1l-0.4,0.1l-0.1,0.1l-0.3-0.9l-1.4-1.5l-0.6-0.9
			l-0.2-0.9l-0.3-2l-0.3-0.9l-0.2-0.2l-0.4-0.5l-0.1-0.2l0-0.3l0.2-0.5l0.1-0.8l0.7-1.4l0.2-1l0-0.9l-0.3-2.3l0.3-2.6l-0.1-1.2
			l0.2-1.8l0.2-0.5l0.2-0.8l0.2-0.2l0.2-1.4l0.3-1.7l0.2-0.7l0.4-0.7l-0.2,0l-0.1,0l-0.1,0l-0.1,0l0.5-1.7l0.1-1l-0.2-1l-0.5-0.9
			l-0.3-0.6l0.1-0.3l0.3-0.2l-0.2-0.4l-0.7-0.6l-0.2-0.4l-0.2-1.1l-0.1-1l-0.1-0.4l-0.1-0.3l-0.6-0.7l-0.2-0.4l-0.2-0.5l0-0.5
			l-0.2-0.3l-0.7-0.4l-0.2-0.2l-0.1-0.4l-0.1-1.5l0.1-0.2l0.3-0.4l0.1-0.3l0-0.3l-0.1-0.6l0.1-1l0.1-0.4l0.3-0.7l0.2-0.5l0.3-0.8
			l0.3-0.8l0.3-0.7l0-0.4l0.1-0.1l0.3-0.3l0.1-0.2V212l-0.1-0.2l-0.1-0.1l0-0.1l0-0.3l0.1-0.3l0.2-0.5l0-0.3l0-0.1l-0.2-0.2l0-0.1
			l0-0.1l0.1-0.2l0-0.1l-0.1-0.3l-0.1-0.2l-0.2-0.2l-0.1-0.3l0-0.1l0.1-0.2l0.1-0.2l-0.1-0.2l-0.1-0.1l-0.5-1.1l-0.1-0.2l-0.2-0.1
			l-0.1-0.1l-0.1-0.1l0-0.1l-0.5,0l-0.8,0l-1.6,0l-1.6,0l-1.6,0l-1.6,0l-1.6,0l-1.6,0l-1.6,0l-1.6,0l-1.6,0l-1.6,0l-1.6,0l-1.6,0
			l-1.6,0l-1.6,0l-1.6,0l-1.6,0l-1.1,0l0-1.1l0-1.1l0.1-1.1l0.5-1.2l0.4-0.9l0.6-1.6l0.5-1.4l-1.3,0l-1.9,0l-1.9,0l-1.2,0l-0.3,0
			l-0.2,0.1l-0.2,0.3l-0.1,0.3l-0.1,0.7v0.3h-17.4l0.4,0.9l0.1,0.2l-0.1,0.4l-0.6,0.8l-0.3,0.4l-0.2,0.7l-0.2,3.7l0.1,0.7l0.2,0.8
			l0.6,1.5l0,0.7l-0.6,0.5l0,0l0,0l0,0l-0.3,0.4l-0.2,0.9l-0.3,0.3l-0.4,0.1l-1.6-0.1l0,0.6l0.2,0.6l0.3,0.6l0.2,0.6l0,0.5l-0.1,0.6
			l-0.4,1.4l-0.2,0.7l-0.3,1l-0.1,0.7l0.1,0.6l0.1,0.2c1.9,0.8,3.8,1.7,5.7,2.7l-3.2,6.1c4.5,2.4,8.8,5.2,12.7,8.4l4.3-5.3
			c4.3,3.5,8.2,7.4,11.7,11.7l-5.2,4.2c3.3,3.9,6.1,8.2,8.6,12.7l5.8-3.1c2.6,4.9,4.7,10,6.3,15.3l-6.3,1.9c1.5,4.8,2.5,9.8,3,15
			l6.5-0.6c0.3,2.8,0.4,5.5,0.4,8.3h55.5l-0.4-0.9L558.6,296.5z"/>
		<polygon fill="#CE1126" points="295.3,149.3 295.1,149.6 294.8,149.7 294,149.8 293.7,149.8 293.3,150 293.1,150.1 292.8,149.6
			292.6,149.4 292.4,149.2 292.2,149.2 292.1,149.3 291.4,151.6 290.8,152.6 288.1,154.8 288.5,154.8 288.9,154.8 289.2,154.8
			289.4,155 289.5,154.8 289.9,154.3 290,154.2 290.3,154.3 290.4,154.4 290.5,154.6 290.4,154.8 290.3,155 290,155.4 289.8,155.5
			289.5,155.5 289.4,155.5 289.3,155.4 289,155.3 288.6,155.3 288.4,155.3 288.4,155.6 289.3,157.3 290.4,158.8 291.7,161.3
			292.1,162.7 292.4,163.7 292.7,164.2 293,165 293.1,165.3 293.1,166 293,166.3 292.8,166.6 292.5,166.7 292.2,166.7 292,166.8
			291.7,167 291.2,168.4 291.5,169.9 292.6,171.7 293.7,171.1 295.6,170.8 297.6,170.9 299.3,170.9 299.4,168.8 299.4,167.3
			299.5,164.5 299.7,161.8 299.7,159.9 299.8,158.2 299.6,157.4 299.4,157.3 298,156.8 297.9,156.6 297.8,156.4 297.7,156.2
			297.7,156 297.8,155.8 298,155.7 298.2,155.8 298.3,155.7 300.2,155.1 301.1,154.6 301.4,153.7 301.5,153.2 301.7,153.1
			302.6,153 303.1,152.8 303.3,152.6 303.3,152.2 303.5,151.7 303.9,151.5 304.9,150.9 305.1,150.6 305.2,150.1 305.3,149.6
			305.6,149.1 305.9,148.7 306.6,148.3 311,147.3 311.8,147 312,146.3 311,145.8 309.5,144.1 308.6,143.4 308.2,142.9 307.8,141.8
			307.4,141.3 307.1,141.1 306.8,141.2 306.5,141.3 306.2,141.4 305.9,141.3 305.3,141 305,140.9 304.5,141.2 304.2,141.7
			304,142.2 303.7,142.6 303.3,142.8 303,143.1 302.6,143.5 302.1,144.4 301.9,144.6 301.5,144.8 299,145.2 297.5,145.7
			297.2,145.8 296.6,145.7 296.3,146 296.4,147 296.3,147.4 		"/>
		<path fill="#CE1126" d="M442,222.2h-1.4l-0.4-0.5l-0.1-0.3l-0.1-0.6l-0.2-0.1h-3.4l-1.6,0l-0.3,0.2l0,0.4l0.1,0.6
			c2.4,0.5,4.7,1.1,7.1,1.8L442,222.2z"/>
		<path d="M503.2,306.3l-6.5-0.6c-0.5,5.2-1.5,10.2-3,15l6.2,1.9c-1.6,5.3-3.7,10.4-6.3,15.3l-5.7-3.1c-2.4,4.5-5.3,8.8-8.5,12.7
			l5,4.1c-2.1,2.5-4.3,4.9-6.6,7.1l11.1,7.7l-5.2,6.1c0,0.2,0,0.4-0.2,0.5c-0.1,0.2-0.3,0.3-0.6,0.3l-5.1,6l-25.2,1.9l-1.3-5.2
			c-2.5,1-5.1,2-7.7,2.8l-1.9-6.2c-4.8,1.5-9.9,2.5-15,3l0.6,6.4c-5.5,0.5-11.1,0.5-16.6,0l0.6-6.5c-5.2-0.5-10.2-1.6-15-3.1
			l-1.9,6.3c-5.3-1.6-10.4-3.7-15.3-6.3l3.2-6c-4.5-2.4-8.7-5.3-12.6-8.5l9.3-11.3c11,9,24.8,14.6,40,14.6c7.2,0,14.2-1.2,20.6-3.5
			l-13.7-8.1l3.9-2.1c-7.7-4.5-15.7-9-24.8-14.2c-9-5.1-22.2-16.8-18.2-35.6h-58.6l0,0.1l0,1.2l-0.1,0.3l-0.1,0.3l0,0.3l0.2,0.2
			l-0.2,0.4l-0.1,0.5l-0.1,2.5l0.4,4.1l-0.1,0.5l-0.2,0.7l-0.4,2.3l-0.2,0.5l-0.2,0.4l-0.3,0.4l-0.3,0.3l-0.2,0.4l-0.2,1.6l-0.3,0.7
			l-0.7,1.4l-0.5,1.8l-0.2,0.3l-0.7,0.8l-0.5,0.7l-0.4,0.4l-0.1-0.2l0-0.2l0.1-0.1l0.2-0.1v-0.2h-0.2l-1.4,1.4l-0.4,0.7l-0.2,0.4
			l-0.1,0.4l0,0.9l-0.1,0.4l-0.2,0.3l-0.5,0.4l-1,1.1l-0.7,0.5l-0.8,0.2l-0.4-0.1l-0.4-0.3l-0.4-0.1l-0.3,0.1l-0.7,0.7l-0.3-0.1
			l-0.5-0.1l0-0.1l-0.4,0.1l-0.4,0.2l-0.7,0.6l-0.1,0.2l-0.4,0.7l-0.2,0.2l-0.6,0.3l-1.5,1.4l-0.5,0.3l-1,1.1l-0.3,0.6l0.2,0.7
			l0.3,0.7l0.2,0.6l0,0.6l-0.3,0.6l-1.4,1.6l-0.4,0.6l-0.2,0.3l-0.6,0.5l-1.5,1.9l-0.3,0.2l-0.4,0.2l0,0l-0.4,0.3l-0.1,0l-0.2-0.1
			l-0.1,0l-0.1,0.3l-0.2,0.3l-0.6,0.3l-0.2,0.4l0,0.2l-0.2,0.2l0,0.2l0,0.2l0.1,0.2l0.1,0.2l0,0.2l-0.2,0.4l-0.2,0.1l-0.3,0.1
			l-0.4,0.2l-0.3,0.3l-0.1,0.2l-0.2,0.1l-0.5,0.1l-0.3,0.1l-0.2,0.3l-0.2,0.4l-0.1,0.4l0,0.4l0.2,0.7l0.1,0.4l0,0.7l-0.1,0.1l0,0.1
			l0,0.2l0.2,0.3l-0.1,0.3l-0.3,0.6l-0.1,0.3l0.1,2.3l-0.2,2.4l-0.1,0.8l-0.4,0.5l-0.2,0l-0.1-0.1l-0.3-0.2l-0.2,0l-0.1,0.1
			l-0.1,0.1l-0.5,0.2l-0.2,0.3L297,357l0,0.8l-0.1,0.2l-0.4,0.6l-0.1,0.4l-0.1,0.4l-0.1,0.3l-0.5,0.5l-0.1,0.5l-0.4,0.6l0.1,0.3
			l0.3,0.3l0.2,0.3l0,0.2l0,0.2l-0.1,0.2l-0.1,0.2l-0.1,0.1l-0.3,0l-0.2,0.1l-0.1,0l-0.1,0l0,0.2l0,0.1l0.1,0.2l0,0.1l0,0.2l0,0.2
			l0.2,0.4l0.2,0.8l0.1,0.8l-0.1,1.5l-0.2,1.5l-0.3,0.8l-0.4,0.6l-0.1,0.3l-0.1,1.8l-0.4,1.7l-0.2,0.5l-0.1,0.3l0,0.4l0.1,0.4l0,0.4
			l-0.4,0.7l-0.2,0.6l-0.2,0.3l-0.2,0.1l-0.2,0h-0.2l-0.2,0.2l0,0.2l0,0.3l-0.2,1.3l-0.1,0.3l-0.2,0.2l-0.3,0.2l-0.2,0.3l-0.1,0.3
			l-0.1,0.8l-0.6,1.4l-0.2,0.7l-0.1,0.5l0.1,0l0.2-0.1l0.3,0.2l0.1,0.3l0,0.4l-0.1,0.4l-0.2,0.2h-0.2l-0.3-0.2l-0.2,0l-0.8,0.7
			l-0.2,0.3l-0.1,0.4l-0.2,2.7l-0.3,1.3l-0.1,0.7l0.2,0.6l-0.3,0.6l-0.5,1.8l-0.1,0.7l-0.3,0.5l-1.4,0.8l-0.5,0.5l-0.1,0.3l0,0.7
			l-0.1,0.3l-0.2,0.4l-1.1,1.1l-0.3,0.1l-0.3-0.1l-0.1-0.4l-0.2-0.1l-0.5,0.2l-0.5,0.3l-0.3,0.2l-0.4,1.4l0.6,1.2l0.8,1.2l0.2,1.3
			L283,407l-0.1,0.4l0,0.5l1,8.9l-0.2,2.5l0.2,2.2l-0.1,0.6l0,1.8l-0.2,0.9l-0.7-0.1l0.2,2l0,0.7l-0.5,2.4l0,3.1l-0.2,0.9l0,0.3
			l0,0.3l0.1,0.2l0.2,0.1v0.2l0.3,0l0.4,0.2l0.2,0l0.3,0l0.1-0.1l0-0.2l0.1-0.2l0.4-0.3l0.9-0.4l1.1-0.8l0.9-0.4l1-0.3l1-0.1l0.2,0
			l0.1,0l0.2,0l0.2,0.1l0.8,0.2l0.3-0.1l0.1-0.1l0.1-0.1l0.2,0.1l0.1,0.1l0.1,0.2l0,0.2l0.1,0.2l0.1,0.1l0.2,0.2l0.3,0.1l0.2,0.1
			l0.2,0.1l0.1,0.2l0.1,0.2l0.1,0.1l1.6-0.2l1.5,0l0.3-0.1l0.3-0.3l0.2,0l0.5,0.3l0.4,0.1l1.3,0.1l0.8,0.2l0.3,0l0.5-0.3l1-0.9
			l0.6-0.2l0.6-0.1l0.4-0.2l0.8-0.7l1-0.5l0.8-0.2l0.2-0.2l0.2-0.3l0.2-0.2l0.2-0.1l0.4-0.1l0.2-0.1l0.1-0.2l0-0.3l0.1-0.2l0.5-0.2
			l0.4-0.2l0.7-0.2l1.2-0.7l2.4-0.4l0.5-0.2l0.5,0l0.4,0.3l0.3-0.2l0.2,0.1l0.2,0.2l0.2,0.1l0.5,0.1l0.3,0l0.2-0.1v0.2l0.6-0.3
			l0.3-0.1l0.2,0.1l0.1,0l0.9-0.2l0.4,0.1l0.8,0.5l0.4,0.1l0.5,0.1l0.5,0.2l0.3,0.3l0.3,0.9l0.3,0.3l0.2,0.4l-0.2,0.7l1.9,1.1l2,1.6
			l2.2,1.2l2.1,1.2l0.3,0.2l1,1.4l0.3,0.3l0.5,0.1l0.3-0.1l0.4-0.2l0.2-0.1l0.3,0l0.4,0.1l0.5,0.1l0.4,0.1h0.3l0.2-0.1l0.4-0.2
			l0.2-0.1l1,0.2l0.5-0.1l0.2-0.5l0-0.1h7.6l5.8,0h17.4l5.8,0h40.5l5.8,0h12.8l0.2,0l0,0.1l0.1,0.2l0.2,0.1l0.1,0.1l0.4,0.9l0,0.2
			l0.1,0l0.5,0.2l0.8,1.5l0.1,0.3l0.3,0.2l1.2,1l0.1,0.2l0.1,0.4l0.1,0.2l0.2,0.2l0.4,0.2l0.2,0.2l1.3,1.4l0.5,0.6l0.3,0.3l0.9,0.2
			l2,1l2.9,0.5l1.9-0.1l0.8-0.3l0.5-0.1l0.3,0l0.7,0.1l1-0.1l0.4,0.2l3.6,1.1l3.9,0l1.3-0.3l0.5,0l0.5,0.1l0.2,0.4l0.2,0.2l0.5,0.2
			l0.5,0.2l0.4,0l0.1-0.1l0.3-0.4l0.1-0.1h3.6l0.8,0.5l0.8,0.3l0.2,0l1.3-0.1l0.6,0l0.3,0l0.3-0.1l0.2,0.2l0.3-0.3l0.5-0.1l0.6,0
			l0.5,0.2l0.8-0.7l0.2,0.2l0.3,0l0.8-0.1l0.3,0.1l0.9,0.7l0.6-0.2l0.6,0.2l0.5,0.5l0.4,0.5l0.2,0.2l0.8,0.4l0.7,0.5l0.3,0.1
			l0.6-0.2l0.9,0l0.8,0.1l0.4,0.2l0.2,0.2l0.4,0.2l0.4,0.1l0.2-0.1l0.2-0.2l0.4,0.1l0.7,0.3l0.5,0.4l0.6,0l0.7-0.2l0.7-0.2l0.3-0.6
			l2.1-0.6l2.1-0.6l0.4,0.2l0.4-0.1l0.4-0.2l0.4-0.1l0.3,0.1l0.9-0.1l0.4,0.1l1,0.6l1.3,0.5l0.7,0.3l0.4,0.5l0.1,0l0.4-0.1l1.6-0.3
			l5.7-1.1l5.7-1.1l5.7-1.1l5.7-1.1l4.6-0.9l4.6-0.9l4.6-0.9l4.6-0.9l1.9-0.4l-0.1-0.3l0-0.3l0.2-0.3l-0.5-0.4l-0.4-0.5l-0.5-0.3
			l-0.3-0.2l-0.3-0.1l-0.7-0.1l-0.4,0.1l-0.4,0.1l-0.4,0l-0.4-0.1l-0.3-0.3l0-0.3l0-0.4l-0.1-0.4l-0.2-0.3l-1-0.4L538,439l-0.5-0.6
			l-0.4-0.7l-0.2-0.6l-0.1-0.3l-0.9-1l-0.3-0.2l-1.1-0.3l-1.4-0.6l-0.6-0.4l-0.9-0.8l-0.7-0.4l-0.3-0.3l-0.2-0.4l-0.2-1.1l-0.3-0.6
			l-0.5-0.6l-1-1.1l-0.3-0.2l-1.3-0.5h-0.3l-0.1-0.1l-0.1-0.2v-0.4l0-0.2l-0.3-0.3l-0.7-0.2l-0.3-0.2l-0.2-0.3l-0.2-0.7l-1.6-2.6
			l-0.2-0.2l-0.2-0.1l-0.4-0.1l-0.1-0.1l-0.1-0.1l-0.2-0.3l-0.4-0.5l-0.2-0.3l-0.2-0.2l-0.6-0.1l-0.1,0l-0.2-0.2l-0.1-0.1l-0.1,0
			l-0.1,0.1l-0.2,0.1l-0.3,0.1l-0.2,0l-0.3-0.1l-1.9-1.6l-0.2-0.3l-0.1-0.4l-0.1-0.3l-0.2-0.1l-0.4-0.1l-0.1-0.2l0.1-0.2l0-0.3
			l-0.1-0.3l-0.4-0.6l-0.1-0.3l0-0.4l0.1-0.4l0.2-0.4l0.2-0.3l0-0.3l-0.4-0.2l-0.7-0.2l0-0.1l0-0.5l0-0.2l-0.1-0.1l-0.3-0.2
			l-0.1-0.1l-0.1-0.3l0-0.3l-0.1-0.3l-0.2-0.3l0.2,0l0.6,0l-0.8-1.3l-0.6-0.8l-0.1-0.5v-3.3l0-0.1l0-1v-2.4l0-2.4l0-2.4v-9l0-3.5
			v-10.5l0-3.5v-7l0-3.5V350l0-3.5v-6.9l0-3.5h45.6l-0.3-0.8l-0.4-0.7l-0.5-0.7l-1.2-1.3l-0.5-0.6l-0.2-0.7l0.2-0.9l0.4-1l0.4-1.7
			l0.4-1.6l0.3-0.7l1-1.5l0.8-1.1l0.2-0.4l0.1-0.4l-0.2-1l-0.1-1.4l-0.2-0.6l-0.6-0.6l-0.5-0.7l-0.1-1l0.2-3.2l0.1-2.9l0.5-1.1
			l0-0.2l-0.1-0.6l-0.1-1.7l-0.2-0.6l-0.2-0.4l-0.2-0.4v-0.6l0.1-0.5l0.4-0.9l0.6-1l0.1-0.3v-0.4l-0.1-0.6l0-0.3l0.1-0.3l0.2-0.3
			l0.7-0.5l0.2-0.3l0-0.3l-0.6-1.3h-55.5C503.6,300.8,503.5,303.5,503.2,306.3z M510.7,392.3c3.7,6-0.5,12.8-6.2,8.8
			c-3.1-2.2-5.1-8-9.8-12.8c-3.5-3-6.3-6.2-15.2-7.7c-0.4-0.1-0.6-1-0.2-1.4l7.9-9.3c4.2,4,9.8,8,13.8,11.6
			C505.1,385.2,508.2,388.2,510.7,392.3z"/>
		<polygon points="281.7,423.2 282.4,424.1 282.5,424.2 282.7,424.2 282.9,424.2 282,422.4 281.8,421.7 281.7,420 281.7,419
			281.6,418.5 281.3,418.1 280.9,418 280.6,418.2 280.3,418.5 280.2,418.8 280.3,419.3 		"/>
		<path d="M444.7,339.8l3.2-1.7l12.1,8.4c13.7-11.6,22.5-29,22.5-48.4c0,0,0,0,0,0h-85.8C406.1,309.6,425.4,325.3,444.7,339.8z"/>
		<path d="M429.8,347.8l-3.9,2.1l13.7,8.1c1.5-0.5,3.1-1.1,4.5-1.7C439.4,353.4,434.7,350.6,429.8,347.8z"/>
		<path d="M482.4,373.3c0,0-0.1-0.1-0.1-0.1l-4,4.7c-7.1-4.7-13.5-8.8-19.6-12.7c-1,0.6-1.9,1.1-2.9,1.7l3.1,5.7
			c-2.5,1.3-5,2.5-7.6,3.6l1.3,5.2l25.2-1.9l5.1-6c0,0-0.1,0-0.1,0C482.7,373.5,482.5,373.5,482.4,373.3z"/>
		<path d="M485.6,369.4l-2.2,2.6c0,0,0,0,0,0c0.2,0.2,0.3,0.4,0.3,0.6l5.2-6.1l-11.1-7.7c-1,1-2,1.9-3.1,2.8
			C478.7,364.5,482.4,367.1,485.6,369.4z"/>
		<path d="M444.7,339.8c4.1,3.1,8.3,6.2,12.3,9.1c1-0.8,2-1.6,3-2.4l-12.1-8.4L444.7,339.8z"/>
		<polygon fill="#F9D616" points="401.8,292.4 419,279.9 436.2,292.4 429.6,272.2 446.9,259.7 425.6,259.7 419,239.4 412.4,259.7
			391.1,259.7 408.4,272.2 		"/>
		<path fill="#F9D616" d="M482.5,298C482.5,298,482.5,298,482.5,298c0,19.4-8.7,36.8-22.5,48.5c-1,0.8-2,1.6-3,2.4
			c-4-2.9-8.2-6-12.3-9.1c-19.3-14.5-38.6-30.2-48-41.8c-3.5-4.4-5.7-8.1-5.8-11c-2,3.9-3.3,7.6-4,11c-4,18.9,9.2,30.5,18.2,35.6
			c9,5.1,17.1,9.7,24.8,14.2c4.8,2.8,9.6,5.6,14.4,8.5c-1.5,0.6-3,1.2-4.5,1.7c-6.5,2.2-13.4,3.5-20.6,3.5c-15.3,0-29.1-5.6-40-14.6
			l-9.3,11.3c3.9,3.2,8.1,6.1,12.6,8.5l-3.2,6c4.9,2.6,10,4.7,15.3,6.3l1.9-6.3c4.8,1.5,9.8,2.6,15,3.1l-0.6,6.5
			c5.5,0.5,11.1,0.5,16.6,0l-0.6-6.4c5.2-0.5,10.2-1.5,15-3l1.9,6.2c2.6-0.8,5.2-1.7,7.7-2.8c2.6-1.1,5.1-2.3,7.6-3.6l-3.1-5.7
			c1-0.5,2-1.1,2.9-1.7c6.1,3.8,12.5,8,19.6,12.7l4-4.7c-8.1-6.1-16.6-12.1-24.8-17.9c-16.8-11.8-34.1-24-48.7-37.8
			c-0.3-0.3-0.3-0.8,0-1.2c0.3-0.3,0.8-0.3,1.1,0c14.5,13.7,31.8,25.8,48.5,37.6c8.3,5.8,16.8,11.9,24.9,18l2.2-2.6
			c-3.2-2.3-6.8-4.9-10.9-7.7c1.1-0.9,2.1-1.9,3.1-2.8c2.3-2.2,4.6-4.6,6.6-7.1l-5-4.1c3.2-3.9,6.1-8.2,8.5-12.7l5.7,3.1
			c2.6-4.9,4.7-10,6.3-15.3l-6.2-1.9c1.5-4.8,2.5-9.8,3-15l6.5,0.6c0.3-2.8,0.4-5.5,0.4-8.3c0-2.8-0.1-5.5-0.4-8.3l-6.5,0.6
			c-0.5-5.2-1.5-10.2-3-15l6.3-1.9c-1.6-5.3-3.7-10.4-6.3-15.3l-5.8,3.1c-2.4-4.5-5.3-8.7-8.6-12.7l5.2-4.2
			c-3.5-4.3-7.4-8.2-11.7-11.7l-4.3,5.3c-3.9-3.2-8.2-6-12.7-8.4l3.2-6.1c-1.9-1-3.7-1.9-5.7-2.7l0.4,1.6H442l-0.4,1.4
			c-2.3-0.7-4.7-1.3-7.1-1.8l0,0.2l-0.4,0l-0.1,0l-1.4,0l-0.4,0.1l-0.5,0.3l-0.3,0.1l-0.3,0l-0.8-0.3l-1.1,0l-1.7-0.1l-0.4,0.1
			l-0.1,0l-1.4,13C457.5,238.6,482.4,265.2,482.5,298z"/>
		<path fill="#F9D616" d="M487.2,369.9l-7.9,9.3c-0.3,0.4-0.2,1.3,0.2,1.4c8.9,1.5,11.7,4.7,15.2,7.7c4.8,4.8,6.7,10.7,9.8,12.8
			c5.8,4,9.9-2.8,6.2-8.8c-2.5-4.1-5.6-7.1-9.7-10.7C497,377.9,491.4,374,487.2,369.9z M498.5,384.4c-0.3,0.2-0.8,0.2-1.1,0
			c-0.3-0.2-0.5-0.6-0.5-0.9c0-0.4,0.2-0.8,0.5-0.9c0.3-0.2,0.8-0.2,1.1,0c0.3,0.2,0.5,0.6,0.5,0.9
			C499.1,383.8,498.9,384.2,498.5,384.4z M504.5,389.7c0.3-0.2,0.8-0.2,1.1,0c0.3,0.2,0.5,0.6,0.5,0.9c0,0.4-0.2,0.8-0.5,0.9
			c-0.3,0.2-0.8,0.2-1.1,0c-0.3-0.2-0.5-0.6-0.5-0.9C504,390.2,504.2,389.9,504.5,389.7z"/>
		<path d="M483.4,372C483.4,372,483.4,372,483.4,372c-8.1-6.2-16.7-12.2-25-18c-16.7-11.8-34-24-48.5-37.6c-0.3-0.3-0.8-0.3-1.1,0
			c-0.3,0.3-0.3,0.8,0,1.2c14.6,13.7,31.9,26,48.7,37.8c8.2,5.8,16.8,11.8,24.8,17.9c0,0,0.1,0.1,0.1,0.1c0.1,0.1,0.3,0.2,0.5,0.2
			c0,0,0.1,0,0.1,0c0.2,0,0.4-0.1,0.6-0.3c0.1-0.2,0.2-0.3,0.2-0.5C483.7,372.4,483.6,372.2,483.4,372z"/>
		<path d="M498.5,382.5c-0.3-0.2-0.8-0.2-1.1,0c-0.3,0.2-0.5,0.6-0.5,0.9c0,0.4,0.2,0.8,0.5,0.9c0.3,0.2,0.8,0.2,1.1,0
			c0.3-0.2,0.5-0.6,0.5-0.9C499.1,383.1,498.9,382.7,498.5,382.5z"/>
		<path d="M504.5,391.6c0.3,0.2,0.8,0.2,1.1,0c0.3-0.2,0.5-0.6,0.5-0.9c0-0.4-0.2-0.8-0.5-0.9c-0.3-0.2-0.8-0.2-1.1,0
			c-0.3,0.2-0.5,0.6-0.5,0.9C504,391,504.2,391.4,504.5,391.6z"/>
	</g>
	<path fill="none" stroke="#999999" stroke-width="0.25" stroke-linecap="round" stroke-linejoin="round" d="M282.5,424.2l0.2,0.1
		h0.2l-0.9-1.9l-0.2-0.7l-0.1-1.7l0-1l-0.1-0.5l-0.2-0.4l-0.4-0.1l-0.3,0.2l-0.2,0.3l-0.1,0.3l0,0.5l1.4,3.9l0.6,0.8L282.5,424.2z
		 M558.6,300.8l0.2-0.3l0.7-0.5l0.2-0.3l0-0.3l-1-2.2l-0.1-0.6l0.1-3.3l-0.4-0.1l-0.1-0.3l0.1-0.9l0-1.3l0.1-0.4l0.1-0.4l-0.1-0.3
		l-0.4-0.7l-0.1-0.4l-0.2-1.1l-0.4,0.2l-0.2,0.5l-0.1,0.5l-0.2,0.5l-0.2,0.2l-0.5,0.3l-0.2,0.2l-0.1,0.2l-0.2,0.5l-0.2,0.2l-0.8,0.3
		l-0.9-0.2l-0.9-0.3l-0.9-0.1l-0.9,0.1l-0.7-0.1l-1.9-0.5l-1.4-0.4l-0.9-0.1l-0.9,0.1l-1,0.3l-1.5,0.8l-2.5,1.4l-1.8,0.3l-2.3,0.4
		h-1l-0.9-0.1l-0.5-0.2l-0.8-0.6l-0.5-0.2l-0.5,0l-0.5,0.2l-0.5,0.4l-0.5,0.3l-0.8,0.1l-0.9-0.1l-0.9-0.2l-0.8-0.3l-1.7-0.7
		l-0.8,0.1l-0.7,1.8l-0.7,0.6l-2.3,0.8l-0.3,0.2l-1,1.1l-0.4,0.3l-0.6,0l0.3-0.9l0.1-1l-0.3-2l-0.1-0.4l-0.4-0.7l-0.1-0.4l-0.1-0.1
		l-0.3-0.2l-0.1-0.1v-0.9l-0.5-1.6l-0.2-0.4l0-0.4l0.4-0.5l0.5-0.5l0.4-0.3l0.9-0.4l0.6-0.2l0.4-0.1l0.2-0.2l0.1-0.4l-0.1-0.9l0-0.1
		l0.1-0.1l-0.4-0.6l-0.1-0.8l0-0.9l-0.1-1l-0.2-0.5l-0.3-0.3l-0.2-0.3l-0.1-0.5l0.2-0.5l0.5-0.8l0.1-0.3l0-0.2l0.1-0.4l0-0.3
		l-0.1-0.3l-0.3-0.4l-0.2-0.7l-0.5-0.9l-0.4-1.1l-0.5-1l-0.4-1l0.2-0.7l-0.1-0.3l-0.2-1l-0.5-1.2l-0.2-0.8l-0.2-0.5l-0.3-0.4
		l-0.9-0.6l-0.4-0.3l-0.2-0.1l-0.2,0.2l-0.2,0l-0.2-0.1l-1.3-1.5l-0.3-0.6l0-0.7l-0.1,0.1l-0.4,0.1l-0.1,0.1l-0.3-0.9l-1.4-1.5
		l-0.6-0.9l-0.2-0.9l-0.3-2l-0.3-0.9l-0.2-0.2l-0.4-0.5l-0.1-0.2l0-0.3l0.2-0.5l0.1-0.8l0.7-1.4l0.2-1l0-0.9l-0.3-2.3l0.3-2.6
		l-0.1-1.2l0.2-1.8l0.2-0.5l0.2-0.8l0.2-0.2l0.2-1.4l0.3-1.7l0.2-0.7l0.4-0.7l-0.2,0l-0.1,0l-0.1,0l-0.1,0l0.5-1.7l0.1-1l-0.2-1
		l-0.5-0.9l-0.3-0.6l0.1-0.3l0.3-0.2l-0.2-0.4l-0.7-0.6l-0.2-0.4l-0.2-1.1l-0.1-1l-0.1-0.4l-0.1-0.3l-0.6-0.7l-0.2-0.4l-0.2-0.5
		l0-0.5l-0.2-0.3l-0.7-0.4l-0.2-0.2l-0.1-0.4l-0.1-1.5l0.1-0.2l0.3-0.4l0.1-0.3l0-0.3l-0.1-0.6l0.1-1l0.1-0.4l0.3-0.7l0.2-0.5
		l0.3-0.8l0.3-0.8l0.3-0.7l0-0.4l0.1-0.1l0.3-0.3l0.1-0.2V212l-0.1-0.2l-0.1-0.1l0-0.1l0-0.3l0.1-0.3l0.2-0.5l0-0.3l0-0.1l-0.2-0.2
		l0-0.1l0-0.1l0.1-0.2l0-0.1l-0.1-0.3l-0.1-0.2l-0.2-0.2l-0.1-0.3l0-0.1l0.1-0.2l0.1-0.2l-0.1-0.2l-0.1-0.1l-0.5-1.1l-0.1-0.2
		l-0.2-0.1l-0.1-0.1l-0.1-0.1l0-0.1l-0.5,0l-0.8,0l-1.6,0l-1.6,0l-1.6,0l-1.6,0l-1.6,0l-1.6,0l-1.6,0l-1.6,0l-1.6,0l-1.6,0l-1.6,0
		l-1.6,0l-1.6,0l-1.6,0l-1.6,0l-1.6,0l-1.1,0l0-1.1l0-1.1l0.1-1.1l0.5-1.2l0.4-0.9l0.6-1.6l0.5-1.4l-1.3,0l-1.9,0l-1.9,0l-1.2,0
		l-0.3,0l-0.2,0.1l-0.2,0.3l-0.1,0.3l-0.1,0.7v0.3h-17.4l0.4,0.9l0.1,0.2l-0.1,0.4l-0.6,0.8l-0.3,0.4l-0.2,0.7l-0.2,3.7l0.1,0.7
		l0.2,0.8l0.6,1.5l0,0.7l-0.6,0.5l0,0l0,0l0,0l-0.3,0.4l-0.2,0.9l-0.3,0.3l-0.4,0.1l-1.6-0.1l0,0.6l0.2,0.6l0.3,0.6l0.2,0.6l0,0.5
		l-0.1,0.6l-0.4,1.4l-0.2,0.7l-0.3,1l-0.1,0.7l0.1,0.6l0.5,1.8h-13.1l-0.4-0.5l-0.1-0.3l-0.1-0.6l-0.2-0.1h-3.4l-1.6,0l-0.3,0.2
		l0,0.4l0.1,0.8l-0.4,0l-0.1,0l-1.4,0l-0.4,0.1l-0.5,0.3l-0.3,0.1l-0.3,0l-0.8-0.3l-1.1,0l-1.7-0.1l-0.4,0.1l-0.9,0.4l-0.3,0.1
		l-0.4,0.2l-0.2,0.5l0,0.6l0.1,0.6l-2,0l-0.6-0.1l-1.2-1l-0.7-0.3l-0.8-0.1l-0.4,0.1l-1.4,0.8l-0.3,0l-0.8-0.3l-0.7-0.1l-1.9,0.7
		l-0.6,0l-1.3-0.3l-0.2-0.2l-0.2-0.3l0.3-0.6l-0.1-0.4l-0.2-0.2l-0.5-0.3l-0.2-0.2l-0.1-0.2l-0.2-0.7l-0.1,0.1l-0.1,0.1l-0.1,0.1
		l-0.1-0.2L411,221l0-0.1l0.1-0.2l-0.5-0.2l-0.2-0.1l-0.1-0.1l0.1-0.3l0.2-0.2l0.1-0.2l-0.3-0.3l-0.3,0.1l-0.1-0.2l0-0.3l-0.1-0.3
		l-0.2-0.1l-0.3,0l-0.2,0l0.2-0.2v-0.2l-0.4,0L409,218l0-0.3l0-0.2l-0.2-0.1l-0.5-0.1l-0.1-0.1l-0.1-0.2l-0.4-0.4l-0.1-0.3l0.1-0.2
		l0.1-0.2l0-0.2l-0.4-0.2l0.1-0.1v0l-0.1,0l0-0.2l-0.3,0.2L407,215l0-0.5l-0.1-0.4l0.1-0.4l-0.4-0.3l-1.1-0.6l-0.3-0.5l-0.4-1.1
		l-0.3-0.5l-0.2-0.2l-0.2-0.1l-0.1-0.1l-0.1-0.2l0.1-0.3l0.3-0.1l0.3-0.1l0.1-0.1l-0.1-0.2l-0.2-0.1l-0.5-0.1l-0.2-0.1l-0.1-0.1
		l-0.1,0l-0.2,0.3l-0.3-0.2l-0.1-0.3l0-0.8l-0.1-0.3l-0.2-0.2l-0.6-0.3l-0.8-0.5l-0.6-0.2l-0.1-0.3v-0.3l-0.1-0.4l-0.4-0.5l-0.3-0.3
		l-0.2-0.1l-0.1-0.2l0-1.2l-0.5-1.5l0-0.6l0.7,0.2l0-0.5l0.2-0.4l0.1-0.4l-0.2-0.4l-0.1-0.2l-0.1-0.2l-0.1-0.1l-0.3-0.1l-0.2-0.1
		v-0.2l0.1-0.2l0-0.1l-0.2-1.3l-0.3-0.6l-0.5-0.4l-0.3-0.1l-0.5-0.1l-0.2-0.1l-0.3-0.2l-0.1-0.3l0-0.3l-0.1-0.3l-1.2-1.7l-0.2-0.4
		l-0.1-0.4l-0.1-0.8l-0.1-0.4l-0.3-0.8l-0.1-0.4l0.1-0.4l0.3-0.5l0-0.2l-0.2-0.3l-0.2-0.2l-0.1-0.2l0-0.3l0.2-0.3l-0.5,0v-0.2
		l0.2-0.3l0.1-0.3l0-0.3l-0.1,0l-0.2,0l-0.2-0.1l-0.1-0.2l0-0.1l0-0.9l0.1-0.2l0.2-0.1l0.2,0l0.1-0.1l0-0.2l0-0.2l-0.1-0.2l0-0.2
		l0-1.7l0.1-0.4l0.2-0.3l0.1-0.3l-0.2-0.3l-0.4-0.4l-0.1-0.3l-0.2-0.1l-0.3-0.1l-0.3-0.1l-0.4-0.5l-0.3-0.2l-0.5,0l0.5-0.6l-0.1-0.2
		l-0.2,0l-0.2,0.1l-0.1,0l-0.1-0.3l-0.1-1.4l0-0.2l-0.1-0.2l-0.2-0.3v-0.1l0.3-0.4l0.1-0.2l-0.8-0.4l-0.2-0.1l-0.9-0.3l-0.4-0.1
		l-0.4,0l-0.4,0.1l-0.7,0.2l-0.3,0l-0.4-0.1l-0.5-0.3l-0.4-0.3l-0.4-0.2l-0.6-0.1l-1.3,0l-2.1,0l-2.1,0l-2.1,0l-2.1,0l-2.1,0l-2.1,0
		l-2.1,0l-2.1,0l-2.1,0l-2.1,0l-2.1,0l-2.1,0l-2.1,0l-2.1,0l-2.1,0l-2.1,0l-2.1,0l-2.9,0.5l-0.7-0.1l-1.4-0.4l-1,0.2l-2,0l-2.4,0
		l-0.4-0.1l-1.3-0.5l-0.5-0.1l-2.7,0.2l-0.3-0.1l-0.5-0.3l-0.9-0.3l-3.1,0.2l-3.7,0.3l-1.8-0.2l-0.2,0l-0.4,0.2l-0.3,0l-0.7-0.2
		l-1.8,0l-0.7,0l-0.1,0.1l-0.5,0.5l-0.2,0.2l-0.7-0.4l-0.9-0.2l-1.9-0.2l-0.3,0.1l-0.9,0.5l-0.4,0.2l-0.3,0l-1-0.3l-0.2,0l-0.6,0.1
		l-0.4,0l-0.4,0l-0.3,0l-0.4,0.2l-0.2,0.3l-0.3,0.7l-0.2,0.3l-0.3,0.3l-1.9,1l-0.4,0.1l-1.5,0.1l-0.3,0.2l-0.4-0.1l-0.4-0.2
		l-0.3-0.1l-0.3,0.1l-0.5,0.5l-0.3,0.1h-1.3l-0.2,0l-0.1,0.1l-0.2,0.3l-0.1,0l-0.4-0.1l-0.2,0l-2.1,0.6l-1.2,0.1l-0.6,0.2l-0.4,0
		l-0.3,0.1l-0.6,0.4l-0.4,0.1v-0.1l0.4-0.1l0-0.2l-0.5-0.5l0.3-0.1l0.3-0.1l0.3-0.1l0.3-0.2l-0.8,0.1l-0.5,0.4l-0.1,0.6l0.4,0.7
		l1.8,2.1l0.2,0.3l0.3,1.1l0.6,1.1l0.2,1l1.2,1.9l1.9,3.8l1.8,1.6l1.9,2.5l1.6,2.3l0.5,0.2l0.7-0.4l0.1,0.2l0,0.1l-0.1,0.1l-0.1,0.2
		l-0.1,0.1l-0.2,0.2l-0.1,0.1l0,0.1l0.1,0.1l0,0.1l0,0.4l0.2,0.7l0.3,4.5l0.2,0.7l0.3,0.6l0.2,0.3l0.5,0.6l0.2,0.3l2,5.3l2.9,6.9
		l1.5,2.7l0.2,1l0.4,0.9l0.2,0.2l0.3,0.6l0.2,0.3l0.2,0.4l0.3,1l0.3,0.2l2.1,3.3l0.2,0.5l0.1,0.5l0,1.7l-0.1,0.2l-0.2,0.2l-0.2,0
		l-0.2,0l-0.3,0.1l0.2,0.7l0.3,1.5l0.3,0.7l0.7,0.9l0.1,0.3l-0.1,0.3l-0.3,0.8l-0.3,1.2l-0.5,0.2l-1.4-0.2l-0.2,0l-0.1,0.1l0,0.1
		l0,0.2l-0.1,0.2l-0.1,0.1l-0.2,0l-0.4,0.3l-0.7,0.3l-0.3,0.2l0.3-0.4l1.1-1.1l-0.4,0.1l-0.4,0.3l-0.7,0.7l-0.1,0.2l0,0.5l0,0.2
		l-0.1,0.3l-0.6,0.6l-0.3,0.5l-0.2,0.7l-0.3,0.3l-0.2,0l-0.3,0l-0.3,0.1l-0.1,0.2l0,0.2l-1.3,2.1l-0.2,0.2l-0.3-0.3l0.2-0.6l0.8-1.9
		l1.6-1.4l0.5-0.7l-1.1,0.5l-1.3,1.5l-0.9,1.8l0.1,1.3l0.5,0.7l0.6,1.5l1.7,2.8l0.5,0.4l0.1,0.5l0.4,0.8l0.1,0.4l-0.1,1l0,0.4
		l0.7,2.1l0,0.3l0.2,0.2l0.2,0.4l0.1,0.5l0,0.4l-0.2,0.4l-0.5,0.5l-0.1,0.4l0.2,0.4l1.8,2.1l0.6,0.9l0.5,1l0.2,0.9l-0.1,0.5
		l-0.2,0.3l-0.1,0.3l1.3,2.1l0.9,0.9l0.4,0.5l0.3,1.1l0.3,0.5l1.2,1.7l0.2,0.5l0.1,0.5l0,1.5l0.1,0.4l0.3,0.5l1.4,1.2l2.1,2.6
		l0.1,0.3l0.1,0.2l0.9,0.8l0.3,0.4l0.2,0.4l0,0.4l-0.7,0.8l-0.2,0.4l0,0.4l0.2,0.4l2,3l0.3,0.7l0.1,0.8l0,1.7l0,1.3l-0.6,3.3v0.6
		l-0.1,0.3l-0.4,0.6l-0.1,0.2l0,0.2l0,1.2l-0.1,0.3l-0.1,0.3l0,0.3l0.2,0.2l-0.2,0.4l-0.1,0.5l-0.1,2.5l0.4,4.1l-0.1,0.5l-0.2,0.7
		l-0.4,2.3l-0.2,0.5l-0.2,0.4l-0.3,0.4l-0.3,0.3l-0.2,0.4l-0.2,1.6l-0.3,0.7l-0.7,1.4l-0.5,1.8l-0.2,0.3l-0.7,0.8l-0.5,0.7l-0.4,0.4
		l-0.1-0.2l0-0.2l0.1-0.1l0.2-0.1v-0.2h-0.2l-1.4,1.4l-0.4,0.7l-0.2,0.4l-0.1,0.4l0,0.9l-0.1,0.4l-0.2,0.3l-0.5,0.4l-1,1.1l-0.7,0.5
		l-0.8,0.2l-0.4-0.1l-0.4-0.3l-0.4-0.1l-0.3,0.1l-0.7,0.7l-0.3-0.1l-0.5-0.1l0-0.1l-0.4,0.1l-0.4,0.2l-0.7,0.6l-0.1,0.2l-0.4,0.7
		l-0.2,0.2l-0.6,0.3l-1.5,1.4l-0.5,0.3l-1,1.1l-0.3,0.6l0.2,0.7l0.3,0.7l0.2,0.6l0,0.6l-0.3,0.6l-1.4,1.6l-0.4,0.6l-0.2,0.3
		l-0.6,0.5l-1.5,1.9l-0.3,0.2l-0.4,0.2l0,0l-0.4,0.3l-0.1,0l-0.2-0.1l-0.1,0l-0.1,0.3l-0.2,0.3l-0.6,0.3l-0.2,0.4l0,0.2l-0.2,0.2
		l0,0.2l0,0.2l0.1,0.2l0.1,0.2l0,0.2l-0.2,0.4l-0.2,0.1l-0.3,0.1l-0.4,0.2l-0.3,0.3l-0.1,0.2l-0.2,0.1l-0.5,0.1l-0.3,0.1l-0.2,0.3
		l-0.2,0.4l-0.1,0.4l0,0.4l0.2,0.7l0.1,0.4l0,0.7l-0.1,0.1l0,0.1l0,0.2l0.2,0.3l-0.1,0.3l-0.3,0.6l-0.1,0.3l0.1,2.3l-0.2,2.4
		l-0.1,0.8l-0.4,0.5l-0.2,0l-0.1-0.1l-0.3-0.2l-0.2,0l-0.1,0.1l-0.1,0.1l-0.5,0.2l-0.2,0.3L297,357l0,0.8l-0.1,0.2l-0.4,0.6
		l-0.1,0.4l-0.1,0.4l-0.1,0.3l-0.5,0.5l-0.1,0.5l-0.4,0.6l0.1,0.3l0.3,0.3l0.2,0.3l0,0.2l0,0.2l-0.1,0.2l-0.1,0.2l-0.1,0.1l-0.3,0
		l-0.2,0.1l-0.1,0l-0.1,0l0,0.2l0,0.1l0.1,0.2l0,0.1l0,0.2l0,0.2l0.2,0.4l0.2,0.8l0.1,0.8l-0.1,1.5l-0.2,1.5l-0.3,0.8l-0.4,0.6
		l-0.1,0.3l-0.1,1.8l-0.4,1.7l-0.2,0.5l-0.1,0.3l0,0.4l0.1,0.4l0,0.4l-0.4,0.7l-0.2,0.6l-0.2,0.3l-0.2,0.1l-0.2,0h-0.2l-0.2,0.2
		l0,0.2l0,0.3l-0.2,1.3l-0.1,0.3l-0.2,0.2l-0.3,0.2l-0.2,0.3l-0.1,0.3l-0.1,0.8l-0.6,1.4l-0.2,0.7l-0.1,0.5l0.1,0l0.2-0.1l0.3,0.2
		l0.1,0.3l0,0.4l-0.1,0.4l-0.2,0.2h-0.2l-0.3-0.2l-0.2,0l-0.8,0.7l-0.2,0.3l-0.1,0.4l-0.2,2.7l-0.3,1.3l-0.1,0.7l0.2,0.6l-0.3,0.6
		l-0.5,1.8l-0.1,0.7l-0.3,0.5l-1.4,0.8l-0.5,0.5l-0.1,0.3l0,0.7l-0.1,0.3l-0.2,0.4l-1.1,1.1l-0.3,0.1l-0.3-0.1l-0.1-0.4l-0.2-0.1
		l-0.5,0.2l-0.5,0.3l-0.3,0.2l-0.4,1.4l0.6,1.2l0.8,1.2l0.2,1.3L283,407l-0.1,0.4l0,0.5l1,8.9l-0.2,2.5l0.2,2.2l-0.1,0.6l0,1.8
		l-0.2,0.9l-0.7-0.1l0.2,2l0,0.7l-0.5,2.4l0,3.1l-0.2,0.9l0,0.3l0,0.3l0.1,0.2l0.2,0.1v0.2l0.3,0l0.4,0.2l0.2,0l0.3,0l0.1-0.1l0-0.2
		l0.1-0.2l0.4-0.3l0.9-0.4l1.1-0.8l0.9-0.4l1-0.3l1-0.1l0.2,0l0.1,0l0.2,0l0.2,0.1l0.8,0.2l0.3-0.1l0.1-0.1l0.1-0.1l0.2,0.1l0.1,0.1
		l0.1,0.2l0,0.2l0.1,0.2l0.1,0.1l0.2,0.2l0.3,0.1l0.2,0.1l0.2,0.1l0.1,0.2l0.1,0.2l0.1,0.1l1.6-0.2l1.5,0l0.3-0.1l0.3-0.3l0.2,0
		l0.5,0.3l0.4,0.1l1.3,0.1l0.8,0.2l0.3,0l0.5-0.3l1-0.9l0.6-0.2l0.6-0.1l0.4-0.2l0.8-0.7l1-0.5l0.8-0.2l0.2-0.2l0.2-0.3l0.2-0.2
		l0.2-0.1l0.4-0.1l0.2-0.1l0.1-0.2l0-0.3l0.1-0.2l0.5-0.2l0.4-0.2l0.7-0.2l1.2-0.7l2.4-0.4l0.5-0.2l0.5,0l0.4,0.3l0.3-0.2l0.2,0.1
		l0.2,0.2l0.2,0.1l0.5,0.1l0.3,0l0.2-0.1v0.2l0.6-0.3l0.3-0.1l0.2,0.1l0.1,0l0.9-0.2l0.4,0.1l0.8,0.5l0.4,0.1l0.5,0.1l0.5,0.2
		l0.3,0.3l0.3,0.9l0.3,0.3l0.2,0.4l-0.2,0.7l1.9,1.1l2,1.6l2.2,1.2l2.1,1.2l0.3,0.2l1,1.4l0.3,0.3l0.5,0.1l0.3-0.1l0.4-0.2l0.2-0.1
		l0.3,0l0.4,0.1l0.5,0.1l0.4,0.1h0.3l0.2-0.1l0.4-0.2l0.2-0.1l1,0.2l0.5-0.1l0.2-0.5l0-0.1h7.6l5.8,0h17.4l5.8,0h40.5l5.8,0h12.8
		l0.2,0l0,0.1l0.1,0.2l0.2,0.1l0.1,0.1l0.4,0.9l0,0.2l0.1,0l0.5,0.2l0.8,1.5l0.1,0.3l0.3,0.2l1.2,1l0.1,0.2l0.1,0.4l0.1,0.2l0.2,0.2
		l0.4,0.2l0.2,0.2l1.3,1.4l0.5,0.6l0.3,0.3l0.9,0.2l2,1l2.9,0.5l1.9-0.1l0.8-0.3l0.5-0.1l0.3,0l0.7,0.1l1-0.1l0.4,0.2l3.6,1.1l3.9,0
		l1.3-0.3l0.5,0l0.5,0.1l0.2,0.4l0.2,0.2l0.5,0.2l0.5,0.2l0.4,0l0.1-0.1l0.3-0.4l0.1-0.1h3.6l0.8,0.5l0.8,0.3l0.2,0l1.3-0.1l0.6,0
		l0.3,0l0.3-0.1l0.2,0.2l0.3-0.3l0.5-0.1l0.6,0l0.5,0.2l0.8-0.7l0.2,0.2l0.3,0l0.8-0.1l0.3,0.1l0.9,0.7l0.6-0.2l0.6,0.2l0.5,0.5
		l0.4,0.5l0.2,0.2l0.8,0.4l0.7,0.5l0.3,0.1l0.6-0.2l0.9,0l0.8,0.1l0.4,0.2l0.2,0.2l0.4,0.2l0.4,0.1l0.2-0.1l0.2-0.2l0.4,0.1l0.7,0.3
		l0.5,0.4l0.6,0l0.7-0.2l0.7-0.2l0.3-0.6l2.1-0.6l2.1-0.6l0.4,0.2l0.4-0.1l0.4-0.2l0.4-0.1l0.3,0.1l0.9-0.1l0.4,0.1l1,0.6l1.3,0.5
		l0.7,0.3l0.4,0.5l0.1,0l0.4-0.1l1.6-0.3l5.7-1.1l5.7-1.1l5.7-1.1l5.7-1.1l4.6-0.9l4.6-0.9l4.6-0.9l4.6-0.9l1.9-0.4l-0.1-0.3l0-0.3
		l0.2-0.3l-0.5-0.4l-0.4-0.5l-0.5-0.3l-0.3-0.2l-0.3-0.1l-0.7-0.1l-0.4,0.1l-0.4,0.1l-0.4,0l-0.4-0.1l-0.3-0.3l0-0.3l0-0.4l-0.1-0.4
		l-0.2-0.3l-1-0.4L538,439l-0.5-0.6l-0.4-0.7l-0.2-0.6l-0.1-0.3l-0.9-1l-0.3-0.2l-1.1-0.3l-1.4-0.6l-0.6-0.4l-0.9-0.8l-0.7-0.4
		l-0.3-0.3l-0.2-0.4l-0.2-1.1l-0.3-0.6l-0.5-0.6l-1-1.1l-0.3-0.2l-1.3-0.5h-0.3l-0.1-0.1l-0.1-0.2v-0.4l0-0.2l-0.3-0.3l-0.7-0.2
		l-0.3-0.2l-0.2-0.3l-0.2-0.7l-1.6-2.6l-0.2-0.2l-0.2-0.1l-0.4-0.1l-0.1-0.1l-0.1-0.1l-0.2-0.3l-0.4-0.5l-0.2-0.3l-0.2-0.2l-0.6-0.1
		l-0.1,0l-0.2-0.2l-0.1-0.1l-0.1,0l-0.1,0.1l-0.2,0.1l-0.3,0.1l-0.2,0l-0.3-0.1l-1.9-1.6l-0.2-0.3l-0.1-0.4l-0.1-0.3l-0.2-0.1
		l-0.4-0.1l-0.1-0.2l0.1-0.2l0-0.3l-0.1-0.3l-0.4-0.6l-0.1-0.3l0-0.4l0.1-0.4l0.2-0.4l0.2-0.3l0-0.3l-0.4-0.2l-0.7-0.2l0-0.1l0-0.5
		l0-0.2l-0.1-0.1l-0.3-0.2l-0.1-0.1l-0.1-0.3l0-0.3l-0.1-0.3l-0.2-0.3l0.2,0l0.6,0l-0.8-1.3l-0.6-0.8l-0.1-0.5v-3.3l0-0.1l0-1v-2.4
		l0-2.4l0-2.4v-9l0-3.5v-10.5l0-3.5v-7l0-3.5V350l0-3.5v-6.9l0-3.5h45.6l-0.3-0.8l-0.4-0.7l-0.5-0.7l-1.2-1.3l-0.5-0.6l-0.2-0.7
		l0.2-0.9l0.4-1l0.4-1.7l0.4-1.6l0.3-0.7l1-1.5l0.8-1.1l0.2-0.4l0.1-0.4l-0.2-1l-0.1-1.4l-0.2-0.6l-0.6-0.6l-0.5-0.7l-0.1-1l0.2-3.2
		l0.1-2.9l0.5-1.1l0-0.2l-0.1-0.6l-0.1-1.7l-0.2-0.6l-0.2-0.4l-0.2-0.4v-0.6l0.1-0.5l0.4-0.9l0.6-1l0.1-0.3v-0.4l-0.1-0.6l0-0.3
		L558.6,300.8z M288.9,154.8l0.3,0l0.2,0.2l0.2-0.2l0.3-0.5l0.1-0.1l0.3,0l0.1,0.2l0,0.2l0,0.2l-0.1,0.1l-0.4,0.4l-0.1,0.1l-0.3,0.1
		l-0.2-0.1l-0.1-0.1l-0.2-0.1l-0.5,0l-0.2,0.1l0,0.2l0.9,1.7l1.1,1.5l1.3,2.5l0.5,1.4l0.2,1l0.3,0.5l0.3,0.8l0.1,0.3l0,0.7l-0.1,0.3
		l-0.2,0.2l-0.3,0.1l-0.3,0l-0.2,0.1l-0.3,0.3l-0.5,1.4l0.3,1.4l1.1,1.8l1.1-0.6l1.9-0.3l2.1,0l1.7,0l0.1-2.1l0.1-1.5l0.1-2.8
		l0.1-2.7l0.1-1.9l0.1-1.7l-0.1-0.8l-0.3-0.2l-1.4-0.5l-0.1-0.1l-0.1-0.2l0-0.2l0-0.2l0.1-0.2l0.1,0l0.2,0l0.2,0l1.9-0.6l0.8-0.5
		l0.4-0.8l0.1-0.5l0.2-0.2l0.9-0.1l0.6-0.2l0.2-0.3l0-0.4l0.2-0.5l0.3-0.3l1-0.6l0.2-0.3l0-0.5l0.1-0.5l0.3-0.5l0.4-0.4l0.7-0.4
		l4.4-1l0.8-0.3l0.2-0.6l-1.1-0.5l-1.5-1.8l-0.9-0.7l-0.4-0.5l-0.4-1.1l-0.3-0.5l-0.4-0.2l-0.3,0l-0.3,0.1l-0.3,0.1l-0.3-0.1
		l-0.6-0.3l-0.3-0.1l-0.5,0.3l-0.3,0.5l-0.2,0.5l-0.3,0.4l-0.4,0.2l-0.4,0.3l-0.3,0.4l-0.5,0.9l-0.3,0.3l-0.4,0.1l-2.5,0.5l-1.5,0.5
		l-0.3,0l-0.6-0.1l-0.2,0.3l0,1l-0.1,0.5l-0.9,1.9l-0.2,0.3l-0.3,0.1l-0.8,0.1l-0.3,0.1l-0.3,0.1l-0.2,0.2l-0.3-0.5l-0.2-0.3
		l-0.2-0.1h-0.3l-0.1,0.1l-0.7,2.3l-0.6,1l-2.7,2.3l0.4,0L288.9,154.8z"/>
</g>

</svg>
