<?xml version="1.0" encoding="utf-8"?>

<svg version="1.2" baseProfile="tiny" xmlns="http://www.w3.org/2000/svg" xmlns:xlink="http://www.w3.org/1999/xlink" x="0px"
	 y="0px" viewBox="220 190.8 400 212.4" xml:space="preserve">

<g id="American_Samoa">
	<g>
		<polygon fill="#000066" points="223.6,333.6 225.4,331.7 225.6,329.2 224.2,327.4 222,327.4 220.2,329.2 220,331.7 221.4,333.6
			"/>
		<polygon fill="#000066" points="462.6,201.9 464.6,197.5 464,192.6 462.5,190.8 460.3,190.8 458.4,193.9 460.3,197.5 460.1,200
			"/>
		<polygon fill="#000066" points="245.3,310 243.2,310 241.3,311.9 238.4,320.5 235.4,323.7 232.1,323.7 229.1,326.7 229,328
			231.4,331.1 237.8,333.6 240.3,336.7 240,339.2 238.8,340.5 239.2,342.3 241.4,342.3 244.9,338.6 249.1,341 251.2,341
			252.2,342.3 254.4,342.3 257.4,344.8 261.9,343.5 268,336.1 270.3,334.9 273.5,334.9 273.8,337.9 271.4,340.4 274.9,343.6
			284.6,344.8 289.2,342.3 292,347.2 294.3,346.1 295.8,346.7 294.3,351.6 295.9,352.2 298.2,351 298.4,354.1 297.3,355.4
			296.1,369 297.9,372.8 297.6,376.4 299.9,380.8 302,380.8 309.1,387 312.3,388.2 316.2,392 319.8,389.5 327.3,389.5 328.8,392.6
			325.7,395.7 324.6,395.7 322.7,398.8 327.2,403.2 331.6,402 335.9,397.6 335.6,388.9 337.4,387 339.5,387 340.8,385.8
			347.2,385.8 352.3,390.8 354.4,390.8 360.5,383.3 361.7,383.3 364.8,377.7 366.5,377.1 375,368.4 380.6,365.9 382.4,364
			382.7,360.3 384,357.8 389.5,351 390.6,351 393.6,347.9 394.9,345 246.9,308 		"/>
		<polygon fill="#000066" points="505.8,218 501.5,216.8 500.5,215.6 497.6,217.4 495.7,220.5 495.5,217.4 493.9,216.8 491,219.9
			491.3,224.9 507.9,220.8 		"/>
		<polygon fill="#000066" points="480.5,226.2 483.1,222.4 484.7,216.2 482,215.6 477.4,219.3 473.5,213.1 470.1,215.6 468,214.4
			464.8,214.4 456.5,221.9 454.3,221.9 452.9,219.9 453.1,217.5 456,215.6 461.5,208.8 461.7,206.3 460.2,204.4 456.8,205.7
			449.8,211.8 445.5,211.9 441.7,216.8 439.6,215.6 436.4,215.6 434.6,217.4 435.3,221.2 432.4,224.3 431.2,224.3 430.3,223
			427.1,223 422.3,226.8 419,226.8 415.7,233.5 413.5,234.9 412.7,236.7 410.5,237.9 408.5,235.4 406.4,235.4 403.3,238.6
			402.9,243.6 402.3,244.2 400.3,242.9 398.4,244.8 396.8,248.6 480.4,227.7 		"/>
		<polygon fill="#000066" points="227.2,342.4 229.4,342.4 231.2,340.5 231.4,338 230.9,337.4 228.8,337.4 227,339.2 226.7,341.7
			"/>
		<polygon fill="#000066" points="511.1,219.3 510.2,220.2 516.1,218.7 515.5,218.1 		"/>
		<polygon fill="#BD1021" points="257.1,300.1 256,298.8 251.8,298.8 250,300.7 249.6,304.4 246.9,308 394.9,345 396.3,341.7
			397,341.1 398.9,343.6 400,343.6 400.8,340.5 397.8,336.7 398.4,336.1 400.8,334.9 401.1,334.9 258,299.1 		"/>
		<polygon fill="#BD1021" points="523.2,218.1 521.3,219.9 521.9,220.6 524,220.6 525.8,218.7 525.4,218.1 		"/>
		<polygon fill="#BD1021" points="581.2,213.1 580.7,213.7 580.8,214.2 583.7,213.4 		"/>
		<polygon fill="#BD1021" points="533.5,224.3 532.4,224.3 528.5,227.3 534.6,225.7 		"/>
		<polygon fill="#BD1021" points="266.4,292.6 266.2,292.8 267.1,292.6 		"/>
		<polygon fill="#BD1021" points="312.8,279.5 312.9,278.3 312.3,277.8 310.1,277.8 309.5,278.3 309.4,279.5 309.9,280.2
			312.1,280.1 		"/>
		<polygon fill="#BD1021" points="508.7,221.8 507.9,220.8 491.3,224.9 491.4,226.2 487.5,226.8 482.9,230.5 480.3,228.6
			480.4,227.7 396.8,248.6 395.7,251.1 389.8,255.9 389.3,262.1 420.2,254.3 419.9,254.1 417.2,253.5 419.1,251.6 426.6,251.6
			427.4,252.5 513.7,231 511.9,228.6 513.9,225.5 515.9,225.5 517.8,223.6 518,221.1 516.1,218.7 510.2,220.2 		"/>
		<polygon fill="#BD1021" points="261.2,290.1 259.4,292 260.9,293.9 261.9,293.9 263.8,292 262.2,290.1 		"/>
		<polygon fill="#BD1021" points="331.2,272.7 329.4,274.7 330,275.2 332.1,275.2 332.7,274.7 332.8,273.4 332.3,272.7 		"/>
		<polygon fill="#BD1021" points="305.9,276.5 302.1,282.6 300.5,282 300.2,280.2 299.1,280.2 296.7,282.6 294.6,281.4 291.3,282.6
			289.3,280.2 288.2,280.2 287.4,283.2 285.6,285.2 284.6,283.9 274.8,283.9 270.7,287 271.5,290.7 270.5,291.7 309.2,282.1 		"/>
		<path fill="#FFFFFF" d="M608.2,277.6l0.9,1.3h3.3l1,1.3l4.5-1.3l0.8-3.1l1.2-1.3l0.1-4.4c0,0,0,0,0,0c-7.6,0-11.6,0-11.6,0
			c-0.6,0-1.4,0.4-1.4,0.4c-3.2,1.6-1.5-1.1-5.3,2.1c0,0-0.1,0-0.1,0.1l-0.2,1.9l2.5,3.1L608.2,277.6z"/>
		<polygon fill="#FFFFFF" points="594.9,212.4 595.4,213.2 596.5,213.2 597,212.4 596.6,211.9 595.5,211.9 		"/>
		<polygon fill="#FFFFFF" points="389.3,262.2 390.4,263.3 389.9,268.4 390.8,269.6 390.4,274.6 388.6,276.5 386.4,276.5
			383.8,274.6 382.4,271.5 379.3,270.2 379.1,267.2 377.5,266.5 371.5,272.7 365.9,275.2 362,281.4 355.5,281.4 353,285.1
			348.5,287.6 347.3,287.6 344.5,282.7 341.3,282.7 340,283.9 338.6,282.1 338.7,280.8 341.1,278.3 339.6,276.4 335.3,276.4
			334.1,277.7 329.6,279 323.6,285.2 321.6,283.9 319.3,283.9 318.2,285.2 317.2,283.9 315.1,283.9 314.3,285.8 311.4,287.7
			309,284.5 309.2,282.1 309.2,282.1 270.5,291.7 269.6,292.7 267.1,292.6 266.2,292.8 264.7,294.5 263.7,298.8 260.8,295.1
			259.7,295.1 258.9,298.2 258,299.1 401.1,334.9 408.4,334.9 409.1,333 396.6,332.3 394.6,331.1 392.1,328.1 392.3,326.8
			391.2,325.5 392,323.7 398.5,323.7 404.4,318.7 408.8,317.4 409.2,319.3 406.9,321.8 406.6,324.3 403,328 405.6,329.9
			407.7,329.9 414.3,323.1 420.9,310.6 423.6,304.4 426.6,301.3 432.2,298.8 434.7,296.3 439,296.3 444.6,293.9 448.9,289.5
			448.5,287.6 440.7,283.3 442.6,280.2 444.8,280.2 448.9,277.1 447.9,275.9 448.3,272.1 447.3,269.6 445.9,267.7 443.7,267.7
			440.1,260.3 430.2,260.3 429.1,261.5 426.1,257.8 422.9,256.5 420.2,254.3 389.3,262.1 		"/>
		<path fill="#FFFFFF" d="M427.7,252.9h5.5l1.2-1.2h5.4l1.3-1.3h5.3l1.3-1.2l6.5,0l4.2,2.5h2.2l0.9,1.3h2.2l0.9,1.2l2.5,1.9
			l-0.2,2.5l-2.5,3.7l-0.8,10l0.9,1.2l-0.1,1.2l3.5,4.4h2.2l1,1.3l5.5-1.3l3.4-2.4l0.9,1.2h2.3l1.2-1.2l0.9,1.2l2.2-0.1l2.3-1.2
			l6.4-5.6l2.1-4.3h1.1l1.2-1.3h9.8l4.6-2.4l2.4-2.6l1.1,0.1l3-3.2l-0.8-2.5l3-3.1l2.3-1.3l8.8-1.2l1.8,3.8h2.2
			c8-3.7,7.9-5.3,7.9-5.3c0.5,0.6,1,1.7,1,1.7c0.1-0.1,0.8-1.1,6.2-3.5c5.4-2.4,8.1-4.5,8.1-4.5c0.7,1.3,0.5,2.3,0.5,2.3
			c14.9-5.2,29.5-17.2,29.5-17.2c0.4,1,0.2,2.5,0.2,2.5c1.4-1.3,5.1-3.7,7.8-5.4l-0.3-2.3l6.1-7.4l-3.8-0.6l-3.6,2.4h-7.6l-1-1.2
			l-6.1-0.9l-2.9,0.7l1.5,4.5l-3.5,2.5l-1.9,3.2h-3.2l-0.7,1.8l-2.5,2.5l0.5,7.5l-1.9,1.9H567l-2.4-1.9l1.1-1.2l-0.3-3.1l-2.1-0.1
			l-3.1-2.5H557l-0.9-1.2l-4.5,1.2l-3.1-2.5l-2.2,0l-2,4.3l-1.7,0.6l-0.4-1.9l-2.5-1.9h-3.2l-1.8-2.3l-6.2,1.5l-4.2,3.2l-9.9,1.3
			l-0.6-0.8l-86.3,21.6L427.7,252.9z"/>
		<path fill="#FFFFFF" d="M601.2,227.4l-0.1-0.2C601.1,227.3,601.1,227.4,601.2,227.4C601.1,227.4,601.1,227.4,601.2,227.4z"/>
		<path d="M606.8,264.2l-1.4,0.8C605.9,265,606.5,264.8,606.8,264.2z"/>
		<path d="M611.5,265.3C611.5,265.3,611.6,265.2,611.5,265.3C611.5,265.3,611.5,265.3,611.5,265.3z"/>
		<path d="M592.4,238.8c-1.5,1.3-12.1,8.8-15.3,10.9c-3.2,2.1-1.5,1.2-2.8,2.8c-0.4,0.4-1,1-1.9,1.7h0.9c2.6-2.1,3.9-3.8,5.5-4.8
			c1.6-1,10.7-7.3,13.9-10c1.8-1.5,7-4.9,11.3-7.5l0.1-0.6l0,0c-2,1.3-4.1,2.4-5,3.1C596.7,235.7,593.9,237.5,592.4,238.8z"/>
		<path d="M605.2,266.9c-0.4,0.3-0.8,0.6-1.1,0.8c1.2,0.3,1.9-0.6,2.6-0.9c0.4-0.2,0.3-0.5,0.1-0.7
			C606.3,266.4,607,265.7,605.2,266.9z"/>
		<path d="M611.6,265.2c-0.1,0.1-0.1,0.2-0.2,0.4c0,0.3,0,0.6,0.4,0.7c0,0,0.1,0,0.1,0c0,0,0,0,0.1,0c0.3,0,0.6-0.1,1.1-0.3
			c0.5-0.3,1-0.5,1.4-0.7l-0.8,0C612.1,266.2,611.6,265.2,611.6,265.2z"/>
		<path d="M595.6,239.7c-0.9,0.6-1,1.6-2,2.6c-1,1-8.3,6.2-10.6,7.8c-1.2,0.8-3.8,3.1-6.3,5.3l1,0c1.1-1,2.3-2.2,2.9-2.7
			c1.2-1,11.2-8,13.1-9.6s1.9-2.3,2.4-2.8c0.5-0.6,1.6-0.6,2.3-0.9c0.7-0.3,3.8-2.2,5.6-3.4l0.9-1.1l-0.1-0.3
			c-2.3,1.7-4.6,3.1-5.5,3.6C597.3,239.2,596.5,239.2,595.6,239.7z"/>
		<path d="M583.2,252.6c-0.9,0.6-1.7,0.9-2.3,2.1c-0.1,0.2-0.3,0.4-0.5,0.7l0.3,0l1.2-1c0.2-0.4,0.5-0.8,1.2-1.1
			c0.2-0.1,0.5-0.3,0.8-0.5l1.4-1.2l0.2,0.2c1.7-1,3.7-2.1,4.5-2.7c1.4-1,4.2-2.8,5.4-4.4c0.9-1.1,2.8-2.4,4.1-3l0.2-0.7l0.1-0.2
			c-3.4,1.9-2.1,1.2-5.8,4.5C590.4,248.9,584.1,252,583.2,252.6z"/>
		<path d="M552.7,266c0,0-0.3,1.3-1.8,0.2c-1.5-1.2-4.4-1.6-3.2-2.5s1.8-2.2,1.5-2.9c0,0-1.5,1.5-4,0.4c-0.5-0.2-1-0.3-1.3-0.2l0,0
			l-0.1,0.9c0.7,0,1.4,0.1,1.9,0.3c1.4,0.5,2.2,0.3,2.2,0.3c-0.3,0.9-1.4,1-2.2,1.3c-0.8,0.3-1.7,0.3-0.4,0.6s3.1,1.1,5,2.5
			c1.9,1.4,2.1,0.9,2.1,0.8s0.2-1.2,1.1,1c0.1,0.3,0.2,0.6,0.2,0.8l0.9-0.5c0-0.1-0.1-0.2-0.1-0.3C554.6,268.6,554,266.8,552.7,266z
			"/>
		<path d="M587.9,252.9h0.7c1.2-0.8,2.8-1.9,4.8-3.4c1.8-1.3,3.3-2.1,4.6-2.6l0.7-2.2c-2,1.5-6.6,5.2-7.3,5.8
			C590.9,250.8,589.4,251.9,587.9,252.9z"/>
		<path d="M546.1,270c-0.2-0.1-0.4-0.1-0.6,0l1,1.2C546.7,270.7,546.8,270.1,546.1,270z"/>
		<path d="M543.9,268l0.4,0.6c0.1,0,0.2,0.1,0.3,0.1c1.3,0.4,4.5,1.4,3.2,2.4c-0.3,0.2-0.5,0.4-0.7,0.5h1.1c0.6-0.3,0.8-0.6,0.8-0.6
			c0.3,0.1,0.6,0.4,0.8,0.6h0.1l0.4-0.2c-0.1-0.1-0.1-0.1-0.1-0.2C549.8,270.7,548.2,269,543.9,268z"/>
		<path d="M547.4,251.3c-0.2,1-3.9,4-4.4,4.4c-0.4,0.3-0.6,0.2-0.9,0.5l0.4,1.3C544.9,255.7,547.7,253.3,547.4,251.3z"/>
		<path d="M601.8,269.5L601.8,269.5l-0.1,0.5C601.8,269.8,601.8,269.7,601.8,269.5z"/>
		<path d="M606.9,270.5c0,0,0.8-0.4,1.4-0.4c0,0,3.9,0,11.6,0c0,0,0,0,0,0l0-0.9c-2.9,0.1-6.4,0-7.2,0c-1.3,0-0.2-0.4,0.8-0.9
			c1-0.5-0.1-0.6-0.8-0.2c-0.7,0.4-1.5,0.7-2.5,1.2s-2.2,0.1-1.4-0.8c0.8-1,1-1.5,1.1-2.9c0-0.8-0.5-1.3-1.1-1.7h-1.4
			c0.6,0.2,1.7,0.7,0.8,1.4c0.5,0.4,0.4,0.6,0.8,0.2c0.4-0.4,0.5,0.3,0.2,1.4c-0.3,1.1-3.2,3.1-4.6,3.4s-1.5-0.6-2.6,0.8
			c-0.1,0.1-0.2,0.2-0.3,0.3l-0.1,1.1c0,0,0.1,0,0.1-0.1C605.4,269.4,603.7,272.1,606.9,270.5z"/>
		<path d="M597,249.8l0.1-0.4c-0.6,0.4-1.2,0.8-1.8,1.2L597,249.8z"/>
		<path d="M591.8,226.4c0,0-14.7,12-29.5,17.2c0,0,0.1-1-0.5-2.3c0,0-2.6,2.1-8.1,4.5c-5.4,2.4-6.1,3.4-6.2,3.5c0,0-0.4-1.1-1-1.7
			c0,0,0.1,1.7-7.9,5.3h1.1l0.1,0.1c0.6-0.3,1.1-0.5,1.6-0.8c4.2-2,5-3.2,5-3.2c0.4,0.4,0.5,1.4,1,2.1c0,0,1.1,1.4,3.9,0.4
			c2.8-1,4.9-1.3,5.7-2.8c0.8-1.4,3-2.9,3.6-3.2c0.6-0.3,1.3-0.5,0.5,0.8s-2.3,3.7-6.1,5.3c-3.9,1.6-5.3,2.8-6,3.6
			c-0.7,0.8-4.2,2.7-1.9,2.4c2.3-0.3,6.2,0.1,4.4-0.5c-1.9-0.5-4,0.3-2.2-1.2s2-2.1,4.5-3.1c2.5-1,5.2-3.4,4.9-0.9
			c-0.3,2.5-4.9,5.2-6,6c-1.1,0.8-0.7,0.7-0.7,1s-0.2,1-0.6,1.3s-0.3,0.7-0.2,1.4s-0.1,1,0.2,1.1c0.3,0.1,0.7,0.2,0.8,0.7
			c0.1,0.5,0.4,0.6,1,0.5c0.7-0.1,1.1,0,1.1,0.4c0,0.4,0.7,0.9,0.8-0.3s0.5-1.4-0.7-0.9c-1.2,0.5-1.5,0.4-1.4-0.2
			c0-0.6-0.1-0.4-0.6-0.5c-0.5,0-0.7-0.8,0.2-1.2c0.9-0.5,0.9,0,2-0.9s1.1-1.2,1.3-1.6c0.2-0.4-1.6,1.3-2.5,1.7
			c-0.9,0.4-0.6-0.3-0.5-1.2c0.1-1,2.3-2.2,3.3-2.3s3.2,0.6,2.2,1.9c-1,1.3-3.6,2.9-2.5,3c1.2,0.1,1.3-0.3,2,0.3
			c0.7,0.6,0,1.8-0.3,2.4s-1,1.4-1.2,1.6c0,0-1.2-2.2-1.2-0.5c0,1.7-0.3,2.3,0,2.4c0.1,0,0.4,0.2,0.7,0.4l1.2-0.7
			c-0.3-0.2-0.6-0.3-0.8-0.5c0,0,2.8-0.6,2-3.3c0,0,2.7,0.7,1.6,2c-0.5,0.5-0.9,0.8-1.1,0.9l0.4-0.2l1.6-1.4
			c-0.3-0.9-1.8-1.8-1.8-1.8c0.5-0.2,4.7-3.1,5.1-3.6c0.4-0.5-0.7,0-1.3-0.3c-0.5-0.3,1.2-3,3.4-1.6c0.7,0.4,0.4,1.3-0.2,2.4l2-1.8
			l0.3-1.3c-0.6,0.4-0.9,0.7-0.9,0.7c-0.3-1.3-3-1-3-1c1.1-0.9,6.3-5.2,9-7.5c2.7-2.3,8.2-5.5,10.7-7.2c2.5-1.7,7.5-5.6,8.1-6.3
			c0.6-0.7,3.9-3.1,5.4-4.3c1.5-1.2,2.1-0.6,3.6-1.6c0.3-0.2,0.7-0.5,1.3-0.8l-0.3-0.4c-0.2,0.1-0.3,0.2-0.4,0.3
			c-0.4,0.4-1.2,0.9-2.9,1.4c0,0,0.7-1.2,2.5-2.6l-0.4-0.5c0,0-0.1,0-0.1,0c0,0,0-0.1,0-0.2l-0.8-1l-0.1-0.5c-1.4,0.9-5.5,4.1-7,5.7
			c-1.6,1.5-2.8,0.7-3.2,0.3c-0.3-0.2,0.2-0.7,0.2-0.7c3.5-2.9,7.4-5.4,9.8-6.8l-0.1-0.7c-2.7,1.7-6.4,4.1-7.8,5.4
			C592,228.9,592.3,227.4,591.8,226.4z M559.5,245.4c-1.3,0.9-2.8,2.2-3.4,3.3c-0.6,1.1-2.9,1.8-3.1,1.8c-0.2,0.1-1.3,0.3-1.9,0.6
			c-0.6,0.3-2,0.5-3-0.4c-1-0.9,1.7-2.3,1.7-2.3c0.6-0.4,11.2-5.4,11.2-5.4C561.2,243.5,560.7,244.4,559.5,245.4z M558.7,262.4
			c-0.1-0.7-1.8-1.3-1.8-1.3c0.4-0.3,2.5-1.2,3.7-2.7c0.9-1.2-1.8,0.6-1.6-1s3-1.3,3.6-0.5C563.9,258.8,558.8,263.2,558.7,262.4z
			 M594.1,231.1c2.4-2.6,6-4.7,6-4.7c0.8,2.5-3.7,5.5-5.5,6.6c-1.8,1.2-3.9,3.3-6.3,5.3c-2.5,1.9-4.8,3.1-8.5,5.8s-5.3,2.7-6.2,4.4
			c-1,1.6-10.5,8.1-10.5,8.1c-2.6-2.1-5.1,0-5.1,0c-0.4-0.5-1.7-0.5-1.7-0.5c1.1-1.3,7-4.8,9.4-6.2s4.6-2.7,5.4-3.6
			c0.8-1,2.1-1.6,2.9-1.8c0.8-0.2,0.7,0,2.9-1.4c2.2-1.4,0.4-1.3,3.5-2.8c3.1-1.5,6.8-4.5,9.2-6.7
			C592,231.5,591.8,233.7,594.1,231.1z M590.8,229.8c-1.1,1-5.5,4.1-6.2,4.5c-0.7,0.5-4.7,3.2-6,3.9c-1.2,0.7-4.3,2.2-5.4,3.1
			s-0.9,1.2-5.8,3.6c-4.9,2.4-5.1,2.6-4.9,2.8c0.1,0.2,2.3-0.8,3.4-1.4c1-0.6,5-2.4,6.2-3.4c1.2-0.9,3.2-2.4,4.1-2.9
			c0.9-0.5,8-4.8,10.1-6.3c2.1-1.5,2.6-2,3.1-1.8c0.4,0.3,1.2,0.3,0.2,1.1s-3.8,3.4-4.9,4.2c-1.1,0.7-4.6,2.8-5.6,3.3
			c-1,0.5-1.3,1.4-1.9,1.8c-0.5,0.4-2.1,1.5-4.1,2c-1.9,0.4-2.3,1.9-3.5,2.7c-1.3,0.8-10.2,5.6-10.5,5.9c0,0,0.5-0.6,0.1-1.9
			c0,0-0.5-1.1,0.4-1.8s2.6-2.8,2.8-4c0.3-1.3,0.1-1.1,2.7-2.1c2.6-1.1,8.7-3.9,12-6c3.4-2.1,8.5-5.5,9.6-6.3
			c1.1-0.8,3.6-2.6,4.7-3.5C591.4,227.4,591.9,228.8,590.8,229.8z"/>
		<path d="M591.8,252.9l0.2-0.2c-0.1,0.1-0.2,0.1-0.3,0.2H591.8z"/>
		<path d="M545,252.5c-1.4,1.2-2.7,2-3.7,2.4l0.4,0.5C543.6,254.3,545,252.5,545,252.5z"/>
		<path d="M552,269.8c0.1,0.1,0.2,0.3,0.3,0.4l0.8-0.4c-0.2-0.1-0.4-0.3-0.6-0.3C552.1,269.3,551.4,269,552,269.8z"/>
		<path fill="#5A3719" d="M595.6,244.7c-1.2,1.6-4.1,3.4-5.4,4.4c-0.8,0.6-2.8,1.8-4.5,2.7l0.7,1h1.6c1.5-0.9,3-2.1,3.5-2.4
			c0.8-0.6,5.3-4.3,7.3-5.8l1-2.9C598.3,242.3,596.4,243.6,595.6,244.7z"/>
		<path fill="#5A3719" d="M558.2,263.8c0.8,2.7-2,3.3-2,3.3c0.2,0.2,0.5,0.4,0.8,0.5l1.7-0.9c0.2-0.2,0.6-0.4,1.1-0.9
			C561,264.6,558.2,263.8,558.2,263.8z"/>
		<path fill="#5A3719" d="M582,254.4l2-1.6c-0.3,0.2-0.6,0.4-0.8,0.5C582.5,253.6,582.2,254,582,254.4z"/>
		<path fill="#5A3719" d="M555.1,265.5c0-1.7,1.2,0.5,1.2,0.5c0.3-0.1,0.9-1,1.2-1.6s0.9-1.8,0.3-2.4c-0.7-0.6-0.9-0.1-2-0.3
			c-1.2-0.1,1.5-1.7,2.5-3c1-1.3-1.2-1.9-2.2-1.9s-3.1,1.3-3.3,2.3c-0.1,1-0.4,1.6,0.5,1.2c0.9-0.4,2.6-2.1,2.5-1.7
			c-0.2,0.4-0.2,0.7-1.3,1.6s-1.1,0.5-2,0.9c-0.9,0.5-0.7,1.2-0.2,1.2c0.5,0,0.6-0.1,0.6,0.5c0,0.6,0.2,0.8,1.4,0.2
			c1.2-0.5,0.8-0.3,0.7,0.9s-0.7,0.7-0.8,0.3c0-0.4-0.5-0.5-1.1-0.4c-0.7,0.1-0.9,0-1-0.5c-0.1-0.5-0.4-0.6-0.8-0.7
			c-0.3-0.1-0.1-0.4-0.2-1.1s-0.3-1.1,0.2-1.4s0.7-1,0.6-1.3s-0.4-0.2,0.7-1c1.1-0.8,5.7-3.5,6-6c0.3-2.5-2.5-0.1-4.9,0.9
			c-2.5,1-2.8,1.6-4.5,3.1s0.4,0.7,2.2,1.2c1.9,0.5-2.1,0.2-4.4,0.5c-2.3,0.3,1.2-1.6,1.9-2.4c0.7-0.8,2.2-2,6-3.6
			c3.9-1.6,5.3-3.9,6.1-5.3s0.1-1.1-0.5-0.8c-0.6,0.3-2.8,1.8-3.6,3.2c-0.8,1.4-2.9,1.8-5.7,2.8c-2.8,1-3.9-0.4-3.9-0.4
			c0,0.1,0,0.1,0,0.2c0.3,2.1-2.6,4.4-4.8,6.2l1.2,3.4c0.4,0,0.8,0,1.3,0.2c2.5,1.1,4-0.4,4-0.4c0.4,0.8-0.2,2-1.5,2.9
			s1.7,1.3,3.2,2.5c1.5,1.2,1.8-0.2,1.8-0.2c1.3,0.8,1.9,2.6,1.9,2.6c0,0.1,0.1,0.2,0.1,0.3l1.1-0.6c-0.3-0.2-0.6-0.4-0.7-0.4
			C554.8,267.9,555.1,267.3,555.1,265.5z"/>
		<path fill="#7B3C20" d="M604.5,270.5c1.4-0.3,4.3-2.3,4.6-3.4c0.3-1.1,0.2-1.8-0.2-1.4c-0.4,0.3-0.3,0.1-0.8-0.2
			c-0.1,0.1-0.2,0.1-0.3,0.2c-0.6,0.3-0.9,0.5-1,0.5c0.2,0.2,0.3,0.5-0.1,0.7c-0.7,0.3-1.3,1.2-2.6,0.9c-0.9,0.8-1.6,1.5-2.2,1.6
			l-0.2,0.2c0,0.1,0,0.3-0.1,0.5l-0.1,1.6c0.1-0.1,0.2-0.2,0.3-0.3C603,269.9,603.1,270.8,604.5,270.5z"/>
		<path fill="#5A3719" d="M605.2,266.9c1.8-1.2,1-0.6,1.6-0.8c0.2-0.1,0.5-0.2,1-0.5c0.1-0.1,0.2-0.1,0.3-0.2
			c0.8-0.7-0.2-1.2-0.8-1.4h-0.1l-0.4,0.2c-0.3,0.5-0.9,0.7-1.4,0.8l-0.5,0.2l-0.6,1.9l-2.3,2.3c0.6-0.1,1.3-0.8,2.2-1.6
			C604.5,267.5,604.8,267.2,605.2,266.9z"/>
		<path fill="#5A3719" d="M588.6,252.9h3.1c0.1-0.1,0.2-0.1,0.3-0.2l1-1l2.3-1.1c0.6-0.4,1.2-0.8,1.8-1.2l0.8-2.5
			c-1.2,0.5-2.8,1.3-4.6,2.6C591.4,251,589.9,252.1,588.6,252.9z"/>
		<path fill="#5A3719" d="M566.2,257.9c-2.2-1.4-4,1.3-3.4,1.6c0.5,0.3,1.7-0.2,1.3,0.3c-0.4,0.5-4.6,3.3-5.1,3.6
			c0,0,1.4,0.8,1.8,1.8l5.3-4.8C566.6,259.2,566.9,258.4,566.2,257.9z"/>
		<path fill="#5A3719" d="M558.9,257.4c-0.1,1.6,2.6-0.2,1.6,1c-1.2,1.6-3.3,2.5-3.7,2.7c0,0,1.7,0.5,1.8,1.3
			c0.1,0.7,5.2-3.6,3.9-5.5C561.9,256.1,559.1,255.8,558.9,257.4z"/>
		<path fill="#5A3719" d="M596.1,240.2c-0.5,0.6-0.5,1.3-2.4,2.8s-11.9,8.6-13.1,9.6c-0.6,0.5-1.8,1.6-2.9,2.7l2.8,0
			c0.2-0.2,0.4-0.5,0.5-0.7c0.6-1.1,1.4-1.5,2.3-2.1s7.2-3.7,11-7.2c3.7-3.3,2.4-2.6,5.8-4.5l4-4.9c-1.8,1.1-4.9,3.1-5.6,3.4
			C597.7,239.6,596.6,239.7,596.1,240.2z"/>
		<path fill="#AA5323" d="M578.8,249.3c-1.6,1-2.9,2.7-5.5,4.8h1l1,1.3l1.3,0c2.6-2.1,5.2-4.5,6.3-5.3c2.3-1.6,9.7-6.9,10.6-7.8
			c1-1,1.2-2,2-2.6s1.6-0.5,3.6-1.6c0.9-0.5,3.2-1.9,5.5-3.6l-0.8-2.2l0.1-0.6c-4.3,2.6-9.5,6-11.3,7.5
			C589.5,242,580.4,248.3,578.8,249.3z"/>
		<path fill="#AA5323" d="M597.6,231.6c-1.5,1.2-4.8,3.6-5.4,4.3c-0.6,0.7-5.7,4.6-8.1,6.3c-2.5,1.7-8,4.9-10.7,7.2
			c-2.7,2.3-7.8,6.6-9,7.5c0,0,2.6-0.3,3,1c0,0,0.4-0.3,0.9-0.7l0.4-1.8l2.3-1.3h1.3c0.8-0.7,1.5-1.3,1.9-1.7
			c1.3-1.6-0.4-0.7,2.8-2.8c3.2-2.1,13.8-9.5,15.3-10.9c1.5-1.3,4.4-3.1,6.7-4.6c0.9-0.6,3-1.7,5-3.1l-1.5-2c-0.6,0.4-1,0.7-1.3,0.8
			C599.8,230.9,599.2,230.4,597.6,231.6z"/>
		<path fill="#AA5323" d="M580.3,240.3c-3.1,1.5-1.2,1.4-3.5,2.8c-2.2,1.4-2.1,1.2-2.9,1.4c-0.8,0.2-2.1,0.8-2.9,1.8
			c-0.8,1-3,2.3-5.4,3.6s-8.3,4.9-9.4,6.2c0,0,1.3,0,1.7,0.5c0,0,2.4-2.1,5.1,0c0,0,9.6-6.5,10.5-8.1c1-1.6,2.5-1.7,6.2-4.4
			s6.1-3.8,8.5-5.8c2.5-1.9,4.5-4.1,6.3-5.3c1.8-1.2,6.3-4.1,5.5-6.6c0,0-3.6,2.1-6,4.7s-2.2,0.4-4.6,2.5
			C587.2,235.8,583.4,238.8,580.3,240.3z"/>
		<path fill="#AA5323" d="M586.7,230.8c-1.1,0.8-6.2,4.2-9.6,6.3c-3.4,2.1-9.4,4.9-12,6c-2.6,1.1-2.4,0.9-2.7,2.1
			c-0.3,1.3-1.9,3.3-2.8,4s-0.4,1.8-0.4,1.8c0.4,1.3-0.1,1.9-0.1,1.9c0.3-0.2,9.2-5.1,10.5-5.9c1.3-0.8,1.6-2.3,3.5-2.7
			c1.9-0.4,3.5-1.6,4.1-2c0.5-0.4,0.9-1.3,1.9-1.8c1-0.5,4.5-2.6,5.6-3.3c1.1-0.7,4-3.3,4.9-4.2s0.2-0.9-0.2-1.1
			c-0.4-0.3-1,0.2-3.1,1.8c-2.1,1.5-9.2,5.8-10.1,6.3c-0.9,0.5-2.9,2-4.1,2.9c-1.2,0.9-5.2,2.8-6.2,3.4c-1,0.6-3.2,1.6-3.4,1.4
			c-0.1-0.2,0.1-0.4,4.9-2.8c4.9-2.4,4.7-2.6,5.8-3.6s4.2-2.5,5.4-3.1c1.2-0.7,5.3-3.4,6-3.9c0.7-0.5,5.1-3.6,6.2-4.5
			s0.6-2.4,0.6-2.4C590.4,228.2,587.8,230,586.7,230.8z"/>
		<path fill="#AA5323" d="M590,231.6c0.4,0.3,1.6,1.2,3.2-0.3c1.5-1.5,5.6-4.8,7-5.7l-0.2-1.4c-2.4,1.4-6.2,3.8-9.8,6.8
			C590.2,231,589.7,231.4,590,231.6z"/>
		<path fill="#AA5323" d="M599,230.4c1.7-0.5,2.4-1,2.9-1.4c0.1,0,0.2-0.1,0.4-0.3l-0.7-0.9C599.8,229.1,599,230.4,599,230.4z"/>
		<path fill="#7B3C20" d="M549.8,248.3c0,0-2.7,1.4-1.7,2.3c1,0.9,2.4,0.6,3,0.4c0.6-0.3,1.7-0.5,1.9-0.6c0.2-0.1,2.5-0.7,3.1-1.8
			c0.6-1.1,2.2-2.3,3.4-3.3s1.7-1.8,1.5-2.5C561,242.9,550.4,247.9,549.8,248.3z"/>
		<path fill="#7B3C20" d="M552.4,267.6c0,0.1-0.2,0.7-2.1-0.8c-1.9-1.4-3.7-2.1-5-2.5s-0.4-0.4,0.4-0.6c0.8-0.3,1.8-0.4,2.2-1.3
			c0,0-0.8,0.2-2.2-0.3c-0.5-0.2-1.1-0.3-1.9-0.3l-0.3,2.9l-1.2,1.2l1.6,2.1c4.3,1,5.9,2.8,6.3,3.2c0,0,0.1,0.1,0.1,0.2l2-1.1
			c-0.1-0.2-0.2-0.3-0.3-0.4c-0.6-0.8,0.1-0.4,0.5-0.3c0.1,0,0.3,0.2,0.6,0.3l0.7-0.4c0-0.2-0.1-0.4-0.2-0.8
			C552.6,266.4,552.4,267.5,552.4,267.6z"/>
		<path fill="#7B3C20" d="M543,255.6c0.6-0.4,4.3-3.3,4.4-4.4c0-0.1,0-0.2,0-0.2c-0.5-0.7-0.6-1.7-1-2.1c0,0-0.9,1.2-5,3.2
			c-0.5,0.3-1.1,0.5-1.6,0.8l1.5,2c1-0.5,2.3-1.3,3.7-2.4c0,0-1.4,1.8-3.3,3l0.4,0.5l0.1,0.2C542.4,255.9,542.6,255.9,543,255.6z"/>
		<path fill="#5A3719" d="M544.7,268.6c-0.1,0-0.2-0.1-0.3-0.1l1.1,1.4c0.2,0,0.4,0,0.6,0c0.7,0.2,0.6,0.7,0.3,1.2l0.3,0.4h0.4
			c0.2-0.1,0.5-0.3,0.7-0.5C549.1,270,546,269,544.7,268.6z"/>
		<path fill="#FFFFFF" d="M611.4,265.6c-0.1,0.3,0,0.6,0.4,0.7C611.4,266.2,611.3,265.9,611.4,265.6z"/>
		<path fill="#FFFFFF" d="M611.9,266.4C611.9,266.4,611.9,266.4,611.9,266.4C611.9,266.4,611.9,266.4,611.9,266.4z"/>
		<path fill="#FFFFFF" d="M614.5,265.5c0.3,1.1,1.9,0.6,3.4-0.1l-0.1,0l-3.5,0c-0.4,0.2-0.9,0.4-1.4,0.7
			C613.3,265.9,614.5,265.5,614.5,265.5z"/>
		<path fill="#FFFFFF" d="M610.6,265.3c0,0.9,0.7,0.2,0.9,0c0,0,0-0.1,0.1-0.1c0,0,0.6,1,2,0.1l0,0l-0.9-1.2c-0.1,0-0.1,0-0.2,0.1
			C611.3,264.5,610.6,264.3,610.6,265.3z"/>
		<path fill="#7B3C20" d="M549.1,270.9c0,0-0.2,0.3-0.8,0.6h1.6C549.7,271.2,549.4,271,549.1,270.9z"/>
		<path fill="#999999" d="M609.8,265.7c0,1.4-0.3,2-1.1,2.9c-0.8,1,0.4,1.4,1.4,0.8s1.9-0.9,2.5-1.2c0.7-0.4,1.8-0.3,0.8,0.2
			c-1,0.5-2.1,0.8-0.8,0.9c0.8,0,4.3,0.1,7.2,0l0-1.3c-1.1,0.2-2.7,0.4-3.2,0.4c-0.6,0-0.1-0.1-0.1-0.1s1.9-0.6,3.3-0.8l0-0.9
			l-0.2-0.1c-1.5,0.5-3.2,1.1-3.8,1.4c-1.2,0.5-0.9,0.1-0.1-0.3c0,0,1.5-0.7,3.5-1.4l-1-0.5c-0.5,0.2-0.9,0.4-1.3,0.5
			c-1.7,0.7-4.5,1.5-5.7,1.7c-1.1,0.1-1.4,0.9-1.4,0.9c-0.2-0.5,0.2-0.8,0.5-1.1c0.3-0.3-0.2-1-0.2-1c1.2,0.7,0.2,1,1.4,0.9
			c1-0.1,3.4-0.7,6.4-2l-0.3-0.1c-1.5,0.7-3.1,1.3-3.4,0.1c0,0-1.3,0.5-1.5,0.6c-0.5,0.2-0.8,0.3-1.1,0.3c0,0,0,0-0.1,0
			c0,0-0.1,0-0.1,0c-0.4-0.1-0.4-0.4-0.4-0.7c0-0.2,0.1-0.3,0.2-0.4c0,0,0,0-0.1,0.1c-0.2,0.2-0.9,0.9-0.9,0c0-1,0.7-0.9,1.8-1.2
			c0.1,0,0.1,0,0.2-0.1l0,0h-3.9C609.4,264.4,609.8,264.9,609.8,265.7z"/>
		<path d="M616,267.8c0.6-0.3,2.3-0.9,3.8-1.4l-0.5-0.3c-2,0.7-3.5,1.4-3.5,1.4C615.1,267.9,614.8,268.3,616,267.8z"/>
		<path d="M616.7,268.4c0.5,0,2.2-0.3,3.2-0.4l0-0.6c-1.4,0.2-3.3,0.8-3.3,0.8S616.1,268.4,616.7,268.4z"/>
		<path d="M610.4,266.6c0,0,0.5,0.7,0.2,1c-0.3,0.3-0.8,0.6-0.5,1.1c0,0,0.2-0.8,1.4-0.9c1.1-0.1,3.9-1,5.7-1.7
			c0.3-0.1,0.8-0.3,1.3-0.5l-0.2-0.1c-3,1.2-5.4,1.8-6.4,2C610.6,267.6,611.6,267.2,610.4,266.6z"/>
	</g>

		<path fill="none" stroke="#CCCCCC" stroke-width="0.25" stroke-linecap="round" stroke-linejoin="round" stroke-miterlimit="10" d="
		M329.4,274.7l0.5,0.6h2.1l0.6-0.6l0.1-1.3l-0.5-0.6h-1.1L329.4,274.7z M228.8,337.4l-1.8,1.8l-0.2,2.6l0.5,0.6h2.1l1.8-1.9l0.2-2.5
		l-0.5-0.6H228.8z M261.9,293.9l1.9-1.9l-1.5-1.9h-1l-1.8,1.9l1.5,1.9H261.9z M222,327.4l-1.8,1.9l-0.2,2.5l1.4,1.9h2.2l1.7-1.9
		l0.2-2.5l-1.4-1.9H222z M312.1,280.1l0.7-0.6l0.1-1.2l-0.6-0.6h-2.2l-0.6,0.6l-0.1,1.2l0.5,0.6L312.1,280.1z M524,220.6l1.8-1.9
		l-0.5-0.6h-2.2l-1.9,1.9l0.6,0.6H524z M596.5,213.2l0.6-0.7l-0.5-0.6h-1.1l-0.6,0.6l0.4,0.7H596.5z M460.1,200l2.6,1.9l2-4.3
		l-0.6-5l-1.5-1.8h-2.2l-1.9,3.1l1.9,3.7L460.1,200z M613.6,265.3l-1-1.3h-5.5l-2.3,1.2l-0.6,1.9l-2.5,2.5l-0.4,5l2.5,3.1l4.4,0
		l0.9,1.3h3.3l1,1.3l4.5-1.3l0.8-3.1l1.2-1.3l0.2-8l-2.1-1.2L613.6,265.3z M604,232.4l0.1-1.3l-3.9-4.9l-0.6-5l6.1-7.4l-3.8-0.6
		l-3.6,2.4h-7.6l-1-1.2l-8.6-1.3l-0.6,0.6l1.7,5l-3.5,2.5l-1.9,3.2h-3.2l-0.7,1.8l-2.5,2.5l0.5,7.5l-1.9,1.9H567l-2.4-1.9l1.1-1.2
		l-0.3-3.1l-2.1-0.1l-3.1-2.5H557l-0.9-1.2l-4.5,1.2l-3.1-2.5l-2.2,0l-2,4.3l-1.7,0.6l-0.4-1.9l-2.5-1.9h-3.2l-3-3.7h-1.1l-8.1,6.2
		l-9.9,1.3l-2.4-3.2l1.9-3.1h2l1.9-1.9l0.2-2.5l-2.5-3.1l-4.4,1.2l-2.4,2.5l-2.9-3.8l-4.3-1.2l-1-1.2l-2.9,1.8l-1.9,3.1l-0.2-3.1
		l-1.7-0.6l-2.9,3.1l0.5,6.2l-3.9,0.6l-4.6,3.8l-2.6-2l0.2-2.4l2.6-3.8l1.6-6.2l-2.7-0.6l-4.6,3.8l-3.9-6.2l-3.4,2.5l-2.1-1.2h-3.3
		l-8.3,7.5h-2.1l-1.4-1.9l0.2-2.4l2.9-1.9l5.5-6.8l0.2-2.5l-1.5-1.9l-3.4,1.3l-7.1,6.2l-4.3,0l-3.7,5l-2.1-1.3h-3.2l-1.8,1.9
		l0.7,3.8l-2.9,3.1h-1.1l-1-1.3h-3.2l-4.7,3.8H419l-3.3,6.7l-2.2,1.3l-0.8,1.9l-2.3,1.2l-1.9-2.5h-2.1l-3.1,3.2l-0.4,5l-0.6,0.6
		l-2-1.3l-1.9,1.9l-2.7,6.3l-5.9,4.9l-0.6,6.3l1.1,1.2l-0.5,5.1l0.9,1.2l-0.4,5l-1.8,1.9h-2.2l-2.6-1.9l-1.4-3.1l-3.1-1.3l-0.2-3.1
		l-1.6-0.6l-6,6.2l-5.7,2.5l-3.9,6.2h-6.5l-2.5,3.8l-4.5,2.5h-1.2l-2.8-4.9h-3.2l-1.2,1.2l-1.5-1.8l0.1-1.3l2.4-2.5l-1.4-1.9h-4.3
		l-1.2,1.3l-4.5,1.3l-6,6.2l-2-1.3h-2.3l-1.2,1.3l-1-1.3h-2.1l-0.7,1.9l-2.9,1.9l-2.4-3.1l0.2-2.4l-3.3-5.6l-3.8,6.2l-1.5-0.6
		l-0.4-1.9h-1.1l-2.4,2.5l-2-1.2l-3.3,1.2l-2-2.5h-1.1l-0.8,3.1l-1.8,2l-1-1.3h-9.8l-4.1,3.1l0.8,3.7l-1.9,1.9l-3.2-0.1l-1.8,1.9
		l-1,4.3l-2.9-3.8h-1.1l-0.8,3.1l-1.8,1.9l-1.1-1.3h-4.3l-1.8,1.9l-0.3,3.7l-4.3,5.5h-2.1l-1.9,1.9l-2.9,8.6l-3,3.2h-3.3l-3,3.1
		L229,328l2.4,3.2l6.3,2.5l2.5,3.1l-0.2,2.5l-1.3,1.3l0.4,1.9h2.2l3.6-3.8l4.2,2.5h2.1l1,1.3h2.2l3,2.5l4.5-1.3l6.1-7.4l2.3-1.2h3.2
		l0.3,3.1l-2.4,2.5l3.4,3.2l9.8,1.2l4.6-2.5l2.8,5l2.2-1.2l1.5,0.6l-1.5,5l1.6,0.6l2.3-1.2l0.2,3.1l-1.1,1.3l-1.2,13.6l1.8,3.8
		l-0.3,3.7l2.3,4.3h2.1l7.1,6.3l3.2,1.2l4,3.8l3.5-2.5l7.6-0.1l1.4,3.1l-3,3.1l-1.1-0.1l-1.9,3.2l4.5,4.4l4.4-1.2l4.2-4.4l-0.3-8.7
		l1.8-1.9h2.2l1.2-1.2h6.4l5.1,5h2.1l6.2-7.4h1.2l3.1-5.7l1.7-0.6l8.4-8.7l5.6-2.5l1.8-1.9l0.3-3.7l1.3-2.5l5.5-6.8h1.2l3-3.1
		l2.7-6.3l0.7-0.6l1.9,2.5h1.1l0.8-3.1l-3-3.8l0.6-0.6l2.3-1.2h7.6l0.7-1.9l-12.5-0.7l-2.1-1.2l-2.4-3.1l0.1-1.3l-1-1.3l0.8-1.8h6.5
		l5.8-5l4.4-1.3l0.4,1.9l-2.4,2.5l-0.2,2.5L403,328l2.6,1.8h2.1l6.6-6.8l6.6-12.5l2.7-6.2l3-3.1l5.6-2.5l2.4-2.5h4.3l5.6-2.5
		l4.2-4.4l-0.4-1.9l-7.8-4.3l2-3.1h2.1l4.1-3.1l-1-1.2l0.3-3.8l-1-2.4l-1.4-1.9h-2.2l-3.6-7.4h-9.8l-1.1,1.2l-3-3.7l-3.1-1.3
		l-3.1-2.5l-2.6-0.6l1.8-1.9h7.5l1,1.3h5.5l1.2-1.2h5.4l1.3-1.3h5.3l1.3-1.2l6.5,0l4.2,2.5h2.2l0.9,1.3h2.2l0.9,1.2l2.5,1.9
		l-0.2,2.5l-2.5,3.7l-0.8,10l0.9,1.2l-0.1,1.2l3.5,4.4h2.2l1,1.3l5.5-1.3l3.4-2.4l0.9,1.2h2.3l1.2-1.2l0.9,1.2l2.2-0.1l2.3-1.2
		l6.4-5.6l2.1-4.3h1.1l1.2-1.3h9.8l4.6-2.4l2.4-2.6l1.1,0.1l3-3.2l-0.8-2.5l3-3.1l2.3-1.3l8.8-1.2l1.8,3.8h3.3l2.4,3.1l1.7,5
		l-0.3,3.8l-1.2,1.2l4.4,5.6h3.2l9.2-5l8.9-8.1l0.8-3.1l2.3-1.3h3.3l1,1.3l5.4,0l4.7-3.8l0.9,1.3h5.5l1.2-1.2l4-1.9l2.9-8.7l4.9-6.2
		L604,232.4z"/>
</g>

</svg>
