<?xml version="1.0" encoding="utf-8"?>

<svg version="1.2" baseProfile="tiny" xmlns="http://www.w3.org/2000/svg" xmlns:xlink="http://www.w3.org/1999/xlink" x="0px"
	 y="0px" viewBox="306.5 172.7 227.9 250" xml:space="preserve">

<g id="Aruba">
	<g>
		<polygon fill="#4189DD" points="487.1,406 484.2,405.1 481.4,402.1 479.4,402.1 478.5,401.1 478,403.6 488,410 490.5,409.5 		"/>
		<polygon fill="#4189DD" points="503.4,337.5 501.5,336.6 498.1,333.2 497.1,330.2 493.8,326.8 492.4,326.3 492.4,324.4 490,321.9
			489,322 487.6,320.5 487.6,318.5 480.4,314.1 478.5,311.1 476.6,311.1 473.7,306.3 471.8,306.2 471.4,303.8 469.9,303.3
			469.4,301.9 465.6,298.9 465.6,296.9 462.7,294 462.7,292.1 463.7,291.1 463.2,288.7 461.3,288.7 459.4,286.7 457.5,286.7
			452.7,281.8 451.8,281.8 450.3,278.4 448.9,277.9 445.6,274.4 445.6,273.5 441.2,271 438.4,273 433.6,273 432.7,274 431.2,273.5
			431.3,271.4 429.3,269.5 430.3,266.6 428.9,265.1 426.9,265.2 425,263.1 423.1,263.1 419.3,259.2 418.4,259.2 417.4,258.2
			414.5,258.2 413.6,256.3 408.8,254.4 406.9,252.4 405,252.4 404.5,250.9 403,250.4 402.1,249.5 398.3,250.4 392.1,244
			392.1,243.1 386.8,237.7 385.8,237.7 380.1,232.7 368.8,219.9 367.3,219.6 364.9,217.1 363,211.2 361.2,208.3 361.1,206.4
			358.4,201.3 355.2,198.2 354.1,198.2 348.6,194.3 346.7,194 345.6,195.2 345.7,193.4 342.1,189.3 339.7,189.1 338.1,187.5
			334.9,186.3 330.4,181.5 329.4,181.5 329.4,178.6 327.6,176.7 324.7,176.7 322.9,174.9 316.9,172.7 315.1,173.8 315,175.8
			311.5,181.5 319,188.3 319.1,190.4 319.8,191.5 319.8,195.4 320.8,196.3 321.3,198.1 325.9,183.1 336,215.8 368.6,225.9 336,236
			325.9,268.6 318.2,243.8 318,244 317,246.2 316.9,250.1 315,258.1 308.5,265.7 306.6,269.7 306.5,275.5 308.3,277.4 312.3,278.4
			315.1,280.4 315.1,282.7 319.9,286.3 320,287.5 321.7,288.4 324.8,292.2 326.3,292.7 327.6,294.2 329.9,294 331.4,294.8
			330.4,296.1 334.2,299 336.1,298 337.9,299.1 340.6,303.6 342.1,304 345.6,307.6 347.8,315.4 349.7,317.2 351.5,317.5
			352.3,318.4 353.4,317.6 356,320.3 359,320.5 366.9,328.4 369.5,329.3 368.5,330.3 368.5,332.3 374.3,338.1 378.3,338.1
			379.3,339.7 510.7,339.7 509.1,337.6 		"/>
		<polygon fill="#4189DD" points="497.6,415.8 499.1,415.3 497.6,411.9 493.8,410 492.3,410.4 492.3,411.4 495.7,413.8 496.6,413.8
					"/>
		<polygon fill="#4189DD" points="406.9,362 409.7,362.1 410.7,363 412.1,361.5 410.7,360 409.7,360 407.9,357.1 405.9,356.1
			403,357.1 399.9,353.9 396.1,353.9 401.2,359.1 		"/>
		<polygon fill="#4189DD" points="409.3,355.6 409.3,356.7 414.6,361 416.4,361 416.4,364 423.1,365.9 425.6,368.1 519.9,368.1
			519.1,366.4 519.1,363.5 516.2,360.5 516.2,353.9 407.5,353.9 		"/>
		<polygon fill="#4189DD" points="371.4,337 368.4,336 364.7,332 363.8,332 362.9,330 361.9,330.1 361.8,329 357,324.4 356.1,324.2
			350.6,318.4 349.1,318.7 343.9,309.7 341.8,311.7 341.9,312.8 342.9,313.7 342.9,315.7 346.5,319.4 347.6,319.5 347.6,321.6
			349.5,322.5 350.1,324.2 353.4,325.4 353.4,326.4 355.5,327.5 360,332.1 360.2,333.4 362,334.3 362.8,336.1 365.7,338.1
			368.9,339.7 374.1,339.7 		"/>
		<polygon fill="#4189DD" points="441.2,383.6 443.2,383.6 447,385.5 448.9,387.5 452.7,387.4 453.7,388.4 455.6,388.4 456.5,389.4
			465.2,389.4 466.1,390.4 469,390.4 470.4,391.8 470.4,394.8 468,396.3 458.4,390.4 454.6,390.4 450.8,388.5 447.9,388.4
			446.1,386.5 443.2,385.4 442.2,384.5 440.3,384.5 438.4,382.6 436.5,382.6 436,383.1 438.4,385.5 441.2,386.5 445.1,389.4
			447,389.4 450.8,391.3 457.4,392.4 461.3,394.3 463.2,396.2 466.1,397.2 467.1,398.3 468.9,398.2 472.8,401.1 476.6,401.1
			479.4,399.2 481.4,400.1 486.1,400.2 489,403.1 490,403.1 491.9,406 496.7,406 500.5,409 504.3,409.9 507.1,412.9 511,414.9
			512.5,416.3 511.4,421.2 512.9,422.7 514.8,422.7 515.7,420.7 517.7,420.7 518.6,421.7 525.3,422.7 527.2,419.7 529.1,419.7
			530.1,418.7 532,419.7 534.4,419.2 533.4,417.3 534.3,414.4 530.6,408.5 530.5,406.5 529.6,405.5 529.6,400.7 527.7,398.7
			527.7,392.8 525.7,389.9 525.8,385 524.1,382.3 440.1,382.3 		"/>
		<polygon fill="#F9D616" points="373.5,340.9 374.4,340 374.1,339.7 368.9,339.7 371.5,340.9 		"/>
		<polygon fill="#F9D616" points="399.7,353.7 399.7,352.7 395.4,349.3 393.5,348.4 390.6,348.3 384.9,345.4 383,345.4 380.1,343.2
			378.2,341.1 375.3,341 374.3,341.9 374.6,343.1 377.1,345.8 379.1,346.8 380.1,346.6 381.1,347.3 383,347.3 384,348.3
			385.8,348.3 388.7,350.3 390.6,350.3 394.5,352.2 396.1,353.9 399.9,353.9 		"/>
		<polygon fill="#F9D616" points="380.1,340.8 384,343.4 385.8,343.4 388.8,340.5 393.5,344.4 394.5,344.4 396.4,346.3 398.3,346.4
			400.2,348.3 401.1,348.3 405.9,353.2 406.9,353.2 407.5,353.9 516.2,353.9 516.2,353.7 514.3,349.8 513.4,343 510.7,339.7
			379.3,339.7 		"/>
		<polygon fill="#F9D616" points="429.3,371.3 429.3,374.3 430.7,376.7 431.7,376.7 432.6,378.6 434.6,379.6 437.5,379.6
			438.4,381.6 439.3,381.6 440.1,382.3 524.1,382.3 523.9,382.1 522.9,377.2 522,376.2 522,372.2 519.9,368.1 425.6,368.1 		"/>
		<polygon fill="#D21034" points="333.6,233.6 358.5,225.9 333.6,218.2 325.9,193.3 322.6,204 322.9,205.2 323.7,206.4 323.7,208.9
			327.6,217.1 327.5,219.7 328.5,221 328.4,227.6 327.6,228.6 327.6,231.6 325.7,234.5 325.6,237.5 320.7,241.7 325.9,258.5 		"/>
		<polygon fill="#FFFFFF" points="336,236 368.6,225.9 336,215.8 325.9,183.1 321.3,198.1 322.6,204 325.9,193.3 333.6,218.2
			358.5,225.9 333.6,233.6 325.9,258.5 320.7,241.7 318.2,243.8 325.9,268.6 		"/>
	</g>

		<path fill="none" stroke="#999999" stroke-width="0.25" stroke-linecap="round" stroke-linejoin="round" stroke-miterlimit="10" d="
		M409.7,360l-1.9-2.9l-1.9-1l-2.9,1l-3.3-3.4v-0.9l-4.3-3.4l-1.9-0.9l-2.9-0.1l-5.7-2.9H383l-2.9-2.2l-1.9-2.1l-3-0.1l-0.9,0.9
		l0.3,1.1l2.5,2.7l2,1l1-0.1l1,0.7h1.8l1,1h1.9l2.9,1.9h1.9l3.8,2l6.7,6.8l5.7,2.9l2.9,0.1l1,0.9l1.5-1.5l-1.5-1.5H409.7z
		 M484.2,405.1l-2.8-3h-1.9l-0.9-1l-0.5,2.5l10,6.4l2.4-0.5l-3.4-3.4L484.2,405.1z M371.4,337l-3-0.9l-3.7-4h-0.9l-0.9-2l-1,0.1
		l-0.1-1.1l-4.8-4.6l-1-0.2l-5.4-5.8l-1.5,0.2l-5.2-8.9l-2.1,2l0.1,1l1,0.9v2l3.6,3.7l1.1,0.1v2.1l1.9,0.9l0.6,1.7l3.4,1.3l-0.1,0.9
		l2.1,1.1l4.5,4.6l0.2,1.3l1.8,0.9l0.8,1.9l3,2l5.8,2.8l1.9-0.1l0.9-0.9L371.4,337z M533.4,417.3l0.9-2.9l-3.8-5.9l0-2l-0.9-1l0-4.9
		l-1.9-2l0.1-5.9l-2-3l0.1-4.9l-1.9-2.9l-1-4.9l-0.9-0.9v-4l-2.8-5.8v-2.9l-2.9-3l0-6.9l-1.9-3.9l-1-6.8l-4.3-5.4l-5.7,0l-1.9-0.9
		l-3.4-3.4l-1-3l-3.3-3.4l-1.4-0.5v-2l-2.4-2.4l-0.9,0l-1.4-1.5v-2l-7.2-4.4l-2-3h-1.9l-2.9-4.8l-1.9-0.1l-0.4-2.4l-1.5-0.5
		l-0.5-1.5l-3.8-3v-2l-2.9-3v-1.9l1-1l-0.5-2.4h-1.9l-1.9-1.9l-1.9-0.1l-4.8-4.9l-0.9,0l-1.5-3.5l-1.4-0.5l-3.3-3.4v-0.9l-4.4-2.5
		l-2.8,2l-4.8,0l-0.9,1l-1.5-0.6l0.1-2l-1.9-1.9l1-3l-1.4-1.4l-1.9,0l-1.9-2h-1.9l-3.8-3.9h-0.9l-1-1h-2.9l-1-2l-4.8-1.9l-1.9-2H405
		l-0.5-1.5l-1.5-0.5l-1-0.9l-3.8,0.9l-6.2-6.4v-0.9l-5.3-5.4h-1l-5.8-5.1l-11.3-12.8l-1.5-0.3l-2.4-2.5l-1.9-5.9l-1.8-2.9l-0.1-1.9
		l-2.6-5.1l-3.3-3.2l-1,0l-5.6-3.9l-1.9-0.3l-1,1.2l0-1.9l-3.6-4l-2.4-0.2l-1.6-1.6l-3.2-1.2l-4.5-4.8h-0.9l0-2.9l-1.8-2l-2.9,0
		l-1.8-1.8l-6-2.2l-1.8,1.1l-0.1,2l-3.5,5.7l7.5,6.8l0.1,2l0.7,1.1v3.9l1,0.9l2,8.9l0.8,1.1v2.6l3.9,8.1l-0.1,2.6l1,1.3l-0.1,6.6
		l-0.8,1l-0.1,3l-1.8,2.9l-0.1,3L318,244l-1,2.2l-0.1,3.9l-1.9,8l-6.5,7.6l-1.9,4l-0.1,5.7l1.8,2l4,1l2.8,2l-0.1,2.2l4.8,3.7l0,1.1
		l1.8,0.9l3.1,3.8l1.5,0.6l1.3,1.5l2.3-0.2l1.5,0.8l-1,1.3l3.9,2.9l1.9-0.9l1.8,1.1l2.7,4.5l1.5,0.4l3.5,3.6l2.2,7.8l1.8,1.9
		l1.9,0.3l0.8,0.9l1.1-0.8l2.6,2.8l3,0.2l7.9,7.9l2.6,0.9l-1,1l0.1,2l5.7,5.8h4l1.8,2.7l3.9,2.6h1.8l3-2.9l4.7,3.9h1l1.9,2l1.9,0
		l1.9,2h1l4.8,4.9h1l2.4,2.4v1l5.3,4.4h1.9v3l6.6,1.9l6.3,5.4v3l1.4,2.5h1l0.9,1.9l2,1l2.9,0l1,2h0.9l1.9,2h1.9l3.8,1.9l1.9,2l3.8,0
		l1,1h1.9l1,0.9l8.6,0l0.9,0.9l2.9,0.1l1.4,1.4v3l-2.4,1.5l-9.5-5.9h-3.8l-3.8-1.9l-2.9-0.1l-1.9-2l-2.9-1l-1-0.9h-1.9l-1.9-2h-1.9
		l-0.5,0.5l2.4,2.4l2.8,1l3.8,2.9h1.9l3.8,1.9l6.6,1l3.8,1.9l1.9,2l2.9,1l1,1l1.9,0l3.8,2.9l3.8,0l2.9-1.9l1.9,0.9l4.7,0.1l2.9,2.9
		h0.9l1.9,3l4.8,0l3.8,3l3.8,0.9l2.8,3l3.8,2l1.5,1.4l-1,4.9l1.4,1.5h1.9l0.9-2h1.9l0.9,1l6.7,1l1.9-3h1.9l1-1l1.9,1l2.4-0.5
		L533.4,417.3z M493.8,410l-1.5,0.5v1l3.3,2.4h1l1,2l1.5-0.5l-1.5-3.4L493.8,410z"/>
</g>

</svg>
