<?xml version="1.0" encoding="utf-8"?>
<svg id="b9e24bc8-0545-4bae-acaf-a189f7665c5e" data-name="svg2" xmlns="http://www.w3.org/2000/svg" viewBox="0 0 817.81 800"><defs><style>.c65b76d2-7af8-4f5c-900d-fb767202e1a9{fill:#ffce00;}.\38 bb41752-ebc1-4898-81b1-18dd6d05c95f{fill:#d21034;}.beeb2ab5-63a5-4ec7-9a5d-c3bafb10c32b{fill:#0053a5;}</style></defs><title>ax</title><g id="48c4b8a4-2507-4b87-b242-dc38fbd10b4e" data-name="g4187"><path id="523c67ac-7172-43af-ba38-0bb634829ad4" data-name="rect8" class="c65b76d2-7af8-4f5c-900d-fb767202e1a9" d="M322.11,231.92,319.73,236l3.22,4.94,3.61-3.61,1.63.5-1.2,8.42,3.26,8.4,2.77-2,.93-2.57-2.49-14.9-9.35-3.22Zm20.49.29-3.16,3.46-2.43-.89-.27,11.29,5.55,1.37,3.2,5.18,2.26-10.23-.66-7-4.49-3.2ZM209.09,245.57l-3.32,1.19-2-1-2,12.22.69,7,3.45,1.27,2.1-1.62,1.44-9.13,2.18-4.35-.33-4.48Zm15.79,9.81-7.21,9.43-1.34,6.2-3.87-5-1.86,5.35-3.7.93-1.24,3.49,3.73,6.22,2.48-1.34.33,10.13,2.19,1.09,2.75-9.18,4.53-4.72-.42-11.13,4.64-5.45-1-6ZM221.67,278l-.34,10.53,4,1.86.26.77,2,5.87,1,3-3.57,1.69-4.29-1.19-6,13.87,12.42.17,2.77-4,4.47-.31.36,2.52-4,1.84,5.43,19,4-.36,1,2.37L238.79,339l1.23,4.12-1.4,3,.55,6.23,3.09,2.46,1.31,3.41.07-.13V259.82l-1.92-.12-3.06,13.81-4.52-8.6-1.34-6.84L230.9,260l1,4.82,1,5.07-3.52-.76L221.67,278Zm89-5.8-1,1.16-.53.6v5.48l.53-.72,2.57-3.57-1.54-3ZM361,273.32l-2.31,7-5.4,1.14-4.45,5.44,7.65,8.59,3.7-.88,9.45-12-1.77-8.38Zm-51.95,9.25v16.07l.11.22.42.21,1.9,1.07-.86-6.29L312.6,290l-3-6.32Zm-124.15.86-.49,4.36-2.57,4,0,6.17,2.83,2.87.81,9.72,9.61-10.34-2.39-6.75,3-4.44-1.52-3.45-9.26-2.15Zm149.68.71-4.24.07-4.73,2.67-.79,3.08,2.51,3.86,2,.82,3-2.24,6,6.37,2.46-4.77-1.53-6.63-3.91.86-.8-4.06h0Zm36.29,4.57-8,9.77,1.73,5,4-.12,2.22-3.14V288.71Zm-158.7,7.52-4.9,4.18,2.63,2.84,1.8,8.42,1.27-9.43-.79-6ZM328.11,300,323,303.89l1.94,8.69,5.33,6.78.28,2.52.24,2.22-2.34,5.54-1-2.1-3.41-7-6.35-8.77-.91-1.24-6.61-5-.53.07-.54,0v61.58h16.19l-1.12-.69L325,365l7.77.24,4.23,1.66.13.36h69.59l4-7-2-6.25.32-4.39-6.18,2.22-1-12.5-5.36-4.56-1.89,1.68,3,6.87-5,1.4-1.18-6.1-3,.07-.32-4.48L383,329l-1,3.26,7.83,24.9.24,3.24-1.12,1-.75.69-4.64-12.6-3.83-5-4.15-2.39-.63-1.81,1-1.57,3.16-1.72-.54-2.55-1.44-2.19-4.24,2-1.81-.78-1.23-2.15-.41-7.2-3.17-1.74-.49,7.78-3.87,4.07-2.18,6-2.89-5.87,6.82-14.93,5.42-1.1,2.79-2.24-.62-1.85-6.38-3.22-4.46-5.15-.38-.07-4.6-.7-2.71,1.51-2,6.22-2.88,8.76-2,.66-.45-7,.24-.62,1.27-3.32-.94-2.84L343,306.84l-3.88,7.75-4-3.86-2.13.18-4.11-4.58-.75-6.29Zm-124.27,3-10.54,9.2-2,10.51,2,3,4.45-7.66,7.73-5,2.34-5.79-1.67-4-2.27-.33ZM174,305.45l-.59,3.27.65,5.51,4.34,4.61,3-.07,1.11-4.23-1-8-.37-1.06H174Zm529.12,0-.34.19-.71,3.82,2.6,7.82,1.74,1.3,3.75,16.92,1.59.79-.16-25.17-2.55-4.9-1.3-.77Zm22.29,0v.15l2.66,2.47,5.09-.13,1.59-2.42,0-.07h-9.3Zm30.11,0,.31,3.77,3.93,5.63,2.5-4.74-2.47-4.66h-4.27Zm49.45,0,1.79,5.87,1.24-1.51-.25-4.37Zm-8.19.86-2.34.07-1.6,4.56.45,4.11,3.79,7.58-.94,4.69,6.7,12.4,6.37-2.67.77-1.89-9.33-11.58,3.09-3.14-4.08-5.54,2.66-3.32-5.54-5.25v0Zm-657.17,2.93-8.46,5.87-1.65,3.43-7.33,5.27L121,340.63l5.16,3,2,12.12,1.79-4.65L129.69,338,135,320.84l6-8.68-1.35-2.91ZM669,311.63l-3.27.67-3.08,4.39-4.24,1.74-5.64,6.2-2.8,7.13-3.3,16.2,1.14,13.73.46,5.59h3.83L658,359l4.41-1.45,6.33-8.26L674,331l-.29-7.7L669,311.63Zm-207.35,3.58h0l-2.14,5.56-9.28,6.87-2.5,6.72,1,13,3.12,2.22,2.63-4.26,2.7,3.91,2.56-.33,2.3-6.75,2.22-14.93-.49-4.74,2-4.12-1.82-2.51-2.24-.62Zm-240.89,2-3.95,25.49.95,2.87,5,4.22,3.13.23,1.16-2.79-.76-4.53,3.44-6.1-5.88-5.84.38-3.41,3.75-5.06-1.07-1.9-6.17-3.17Zm216,1.31-.65,5.34-2.71,3.26,2.11,3.51,3.25-.67.75-8ZM206.67,319l-6.62,2.66.28,5,5.59-.86,4.06,1.37,3.41-5.88-4.73.74-2-3Zm525.49.12,2.55,9.83,2.33,1.64,3.93-6-.48-2.82-8.33-2.7Zm-262.34,2.36h0l-1.8,2.64,1.21,5.63-3.61,3.62,4.69,8.38L481.4,346l1.24-1.51,2.59,1.39,1.2-1.27,1.52-16-2.11-.12-2.68,4.74-3.22-8.17-10.12-3.62Zm257,8.06L724,333.72l0,5.18.62,1.81,3.45,1.14-1.87,8,4.12,12.33.38,5.09h9l.13-.43L739.22,348,735,345l-3.87-6.08-.51-7.49ZM172,332.62l-4.18,5.28.82,7.72,3.95,6,.86-5.78,2.72-3.49-.29-5L172,332.62Zm320.76,1.28-2.63,5.94,1.67,5.46-.63,5.31,7.37-3.45,6.56-8.76-5.52-3.15-3.52,1.16Zm17.53,8.56-5.75,10.87,1.74,4.7L509,353.8l1.36,1,.82-1.6-1-3.85,2.3-3.31-2.1-3.55Zm253.05,2-.92.42L760,350.64l-5.53-2.93L753,351.14l1.7,6.46-2.71,3,1.58,5.68v1h9.82v-3.85l-.83-1.24-.2-6.7,1-1.27V344.5Zm-558.8.47-6.13,2,1.07,7.32,3.34,2.22.37,2.29-3.8,8.46h14l-.71-15.64L211,351.4l-1.23,7.16-2-.79-1.7-11.08Zm-18.72,5.26-1.54,4.44-2.92-.21-2.95,1.78-.78,5-3.13,3.46,8.22-1.69,6.41,1-1.34-12.5-2-1.31Zm34.87,4.85-1.48.07L215,367.27h11l1.83-3-1.16-2.67-2.57.36-1.6,2.93-1.32-1.43-.51-8.44Zm18.22,8.52-2.35.39-1.46,3.3h4.61l.34-.79-1.15-2.89h0Zm-96.73,2.13.17,1.56h1.14Zm374.79,0-3.54,1.39-.14.17h4.05l-.37-1.56h0ZM77,432.73l-3.14,8,2,4.49-1.89,3.88,3.73.57,2.83-4.74,1.79-12.19Zm9.77,0-1.12,1.87-1.18,7,1,4.08-2.56,6.25,1.41,2.43,2.18-.65,3.17-4.21-.32-6.66,4.78-7.17,2.14,13.12,3.25,1,2.18,3,.86-2.07L99,439.08l-.1-4.68-1.51-1.68H86.72Zm16.09,0,1.8,8,2.46,10.9-4.84,7.63.49,5.22,2.9,2.17.38,4.23-5.35,4.19-2.17,1.08-2.83,4.74.06,13.66h30.71l-1.39-4.06,1.39-6.92-.82-4.65-1.76-10,1.73-2.46,6.19,13.38.57,5.37,3.7,9.33h1.23l2.6-1.57,1,.88-.05.68h26.16l-.31-9.27.77-3.83-1-7.58-.34-2.54-2,.82-2.23,5.63-1.58-2.87.9-9.49.78-8.2-4.46-5.1-2.64-6.54,1.23-3.49-1.7-5.45,1.87-3.91H102.82Zm59.33,0,5.28,12.82,1.4,8.09,9,11.73.38,4.23-.7,2.19,0,.07-4.61,14.43,1.78,8.27h7.19v35.32l1.39,3.7-.28,4.4,2.6,2.87,1.16,12.23,5.88,1.62,1.36,2.93-2.1,3.86,1.36,6.61L191.8,573l1.56,6.64,6.59,14.07.4,5.72,5.59,4.29,8.12-1.43,4.73-14.28,6.5-2,1-.71,4.93-3.53,2.6,1.16.25,3.22L231.23,591l-3.2,2.46L230,604l6,.94,2.26,4,2.22.86,2.59-4.53v-3.67l.64-.06V441.8l-1.89-1-1.78,1-2.31,5.3-2.39-1.12-.55-13.17H229L230,435l-2.55,4,2.5,5.8-3.54,3.38-.91,9.95,4.51,1,6.47-3.17,2.15,1.3-6.87,12.49,0,9.59,2.24,1.69,3.95,3-1.31,2.24-5.43-.34-1.85,3.41-4.81-1.19h0l-.69-.16-2-9.09-.92-4.41L217,470.12l4.23-4-1.67-11.31,1.44-5.2-2.77-12.73-1.52.5-.63,5.58-1.89-.07-3.38-7.16-.42-3Zm146.95,0v63.74l.54,1.24,2.13,5,3.61,3.28,4.46-7.63-2.35-7-.2-9.14,4.57-8.63.32-6.34,3.8-7.52,3.85-2.34-4.71-5.19-2.7-2.93-4.16-4.56-.62-2.1-2.54-8.75-.54-1.06Zm17.47,0-.76,13.57-.07,1,5.77,4.63,3.79,5.26.93,6.55-5,12,.34,2.52,2.87,2.43,1.45,7.37,4.2,3.65,1.85-2.46,2.23-4.19,2.64-6.78,4.58-11.61-1-6.06.71-4.34,1.67-1.69.88.6,1.07.71-.22.62-.7,1.93,1.12,6.58-2.51,16.1-2.83.78-5.82,9.95,3.9,3,2.09,7.23,6.79,3.05,6.75-3.82,5-8.33,2.85.73.14.78h31l.61-.59-1.52-3.2,5.77-6.2.82,5.55,4.16,3.87,1.1-.5.9-.38,3-7.41,2.52-.08.85-3.57,12.47,4.74,3.91-2.77,4.73-13.28-6-6.16-5.32,5.77-2.8.53-4.78-2.25-2.43,2.79-1.91-1.54.26-7.59-7-15.67.44-7.32,7.44,4.68,1.51,1.48-.36,4.36-.15,1.72,2.67,2.4,2-6.34,5.25-3.32,1-3.53-2.38-8Zm119.26,0-2.37,6.3,2.07,3.79,3.69.85,1.1-10.88v-.05h-4.48Zm8.84,0,.16,1,.19-1h-.34Zm6.11,0-.23.74.83,5.34L459.83,443l5.23,9L461.34,455l1,2.38,2.46,2.39,8.17-6.8.48-.39,11.6-3.76,1.65,3.74-2.33,1.82-4.15-.43-2.77,3.73.1,2.73,2,2.55,3.38,1.53L483,467,480,471.65l2.42,6.08-3.09,4.68,3.17,12.09,7.85-5.83,4.53-11.32-5.31-3.1.6-1.4,5.89-1.72L503.25,458l1.61-4.65-.72-4.31,4-1.56.62-1.63-1.82-5.72,1.85-3.14-6.21-4.29H460.78Zm173.1,0-1.23,2.06,1,12.23,5.95-5.39-1.43-5.42-2.36-3.49Zm21.12,0-.83,3.53L660.9,448l1.86,8.7,5.11,2.88,7,.94,2.35,3.15,3.12-4.65.11-4.17-2.7-3.67-4.93.62-1.5-9.85,2.84-2.47,2.34,6.55,5.15.91,3.05-4.18,4.5-.67,1.26-3.24,4.53.78.91-2.31-1.56-4.6Zm43.64,0-.92.7,1.69,9.92,3,7.67,3,1.51-1.07-4.89,1.53-3.67-.26-11.24Zm63.41,0-.47.78,1.08,4.66.72,1.48v-6.92ZM646,432.86l-3.49,2.6.09,16-1.81,6.1,1.89,8.47,2,1.06,8.2-8.2-4.86-10-2-16.12Zm39.46,14.45-2.19,4.07,1.72,11.4,1.74,1.28,6.47-8-.86-3.12-4.73.69Zm-63.52,6.08-1.73.45-5.93,12,1,5.6L611.48,478l.3,7.7,2.8,1.22,1.31,4.65,3.5-2.84,1.34,1.21-.84,4.63h15.83l2.17-7.35-4.37-5.43-.83-5.1,1.36-4.2-1.82-7.19-5.68-5.16-2.92,1.45-1.72-8.17Zm-165.62,10.4-6.76.38-4.37,8.39-2.3,8.73-4.19,5.22-.44,5.37-1.57,2.67H442l1.57-3.77,6.09-1.72,2.47,2.12,7.7-9.8-3.47-4.5-.44-5,1.24-3.49ZM2.48,469.27.57,473.42,0,482.69.91,484l1.94-.45L4.7,474l5.07,3.7.25-4.39Zm651.89.54L646.66,471l-3.39,5.32,1.89,1.54,9.88-4.94-.66-3.08h0ZM10.08,486.56l.09,3,2.17,5h2.53l1.29-6.08Zm698.17,0-.59,6.31.53,1.67h4ZM474.68,494.4l0,.15H475l-.29-.15Zm-141.88,6-4,.33-2.14,2.13-.25,5.86-2.34.12-1.28-3.41-1.7.21-1.15,4-.61,2.11,2.75,7.08-1.92,7.56-4.58-7.62-5.07-3.27-.86-7.54-.54-1.19v80.11l.53,1,2.13,4,3.71-1.36L319,599l.21.49-2,8.28-6.14,4.18-1.48-.24-.53-.08v17l.53.29,2.72,1.43,1.93,3.26,3.21-.71,4.9-4.39,1.8,7.91,2.07,2,.15,6,4.91,8.17,1.85,5.68,2.29,1.87,2.55-5.75,4.42,5.13,1.73-.45,1.8-4.65.88-.57,2.5-1.6,5.4.4,1.69,6.92,2.66,2.4,3.13,7.13,6.57,4.77-1.93,9.27.55,4.3,3.05,4.19-.88,6.13,1,2.84.38,1.15V602l-6-7.57-5.26-1.6-.57-.43-4.81-3.88-2.89-.21-1.06,1.81,2,6.22-1.48,2,1.11,4.86-1.57,6.4-6.1-8.88-1.74,2.43,1.81,7.93-.64,1.88h-4.4l7,10.57.85,1.28.36,2.28-.91,1.86L345,632l-.63-1.87-2.79-8.28-4-3.59-2.82.78-3-2.95-2.85-9.56-3.65-7.08-1.32-2.57.61-1.2.74-1.52,3.26,2.72,5.25-1.86.6-3.34,3.34-1.07-2.17-5.39,2.7-7.2-2.6-10-5.71,2.29-2.45-.66L325,564.58l-.66-16.12,1.11-2.29,4.11.66,5-12.26-.55-2.55L328,530.85l-1.66-2,6.71-3.62-2.43-8,3.39-5.3,1.08-6-2.31-5.51Zm-23.71,98.74v1.5l.24-.54Zm6.85,76.3-3.46.92-2.85,8.26-.53,1.53v3.22l.53.21,12.21,4.91,5-8.92-1.19-2.4-2.28-1.86-1.07-3.34Zm20.18,4.24-5.88.26-.86,2.1,1.94,6.7-2.24,3.08,4.32,4.15,2-4.84Z" transform="translate(0 0)"/><path id="5a96318f-f2f0-4980-a3af-733c2b9f5b90" data-name="rect14" class="8bb41752-ebc1-4898-81b1-18dd6d05c95f" d="M260,247.28,253.5,249,250.15,258,247,260l-5.25-.32L240,267.44V333.3l.28,0,1,2.37-1.27,1.7V353l2.26,1.8,1.31,3.41,1.89-3.63,2.64-1.07h.15l3.53,1,.9-.51,1.81-1,6.18-11.59L262.95,325l3.33-3.17L266,344.39l1.77,1,4-5.77,1.73,1.51-3,7.41,7.14,7.51.83,3.83-3.19,2L272,356.41l-1.11,4-4.37,1.51-.11,6.41,3.18,1.72.18,3.73-.57,3.53-.54,3.38L266,397.56l1.47,5.65L262.86,416,261,417.7l-7.73-2.46-2.09,1.65-.54,4.84,3.81,10.92-5.09,2.17.51,4.72,1,9.3-2.47,1.6L246,445l-1.08-2.46-3.16-1.72-1.74.93v168l.41.16,2.59-4.53v-3.67l3-.3,5.14,2.79,3.42-.69,1.8-2.93-1-4.32-4.78-4-1.19-2.39.67-2.34,3.78,1.81,3.29-3.17,3.25,2.72,2.09-7.29,2.52-.1,3-2.48,3.79-5.8,1.52,4.35.37,1.12-4.33,5-.51,4.58-8,7.58-.12,2.93,2.31,3.58,6,.45,5.47,5.06,1.8-4.65-.08-14,1.54-7.87,1.79.76.32,4,.33,4.29,1.15,14.43.09.36L285.89,622l5.95,14,.28-.38,4.63-6.22-2.38-10.23-.66-10.69-.71-1.81L290,599l-1.61-11.57.15-.21,1.93-3.14,6.67-1.65,2.6,1.15,3.39,6.94,1.53,12.06,2.71,1.91,2-4.39-3.16-12.55,2.13-2.14,1.32,2.5,2.13,4,1-.36V516.94l-2.24-1.45-.86-7.54-2.14-4.74L301.54,502l-2.5-2.13-2.9-6.72-.74-1.72-.18-.07-1.89-.6-7-2.26-3.46-4.73-.94-4.6,1.9-7.32-3-5.15-.94-21.06,1.59-8.36,4.57,4.15-1.68,3.67.05,8.63,2.84,13.74,4.39-3.49,4.6-10.63.21-.48.07-.18h.36l1.77-.12.82,3.82-2.93,6.84-.58,1.42-.22.5L285.4,478.07l.69,3.05,9.27,5.07.13.09,3.83,2.1L303.6,495l2.21-2.62,2,1,1.85,4.29,2.13,5,1,.88V436.36h3.12l-.75-2.58-4.62-9.09-.85-1-7.89-9-2.07-16.79,4.86-14.76,1.7,1.74.91,8.51-2.81,7.94,5.29,11.26,1,2,10.62,14.47.83,1.12,2.07-3.34,5.09-18.4-.64-1.81-2.75.07-2.51,3.55-3.65-1.34-.33-6.2-2.92-3.91,1.89-1.69,4.06,3.12,3.37.07,2.55-2,1-3.54-.66-7,4.37-5-4-13.19-4.91-3L325,365l7.77.24,4.23,1.66,3.85,10.47.2,1.69.45,3.58-3.34,5.13L334.9,401l1.65,5.07.05.14-.64,1.86h-.28l-1.81-.1-.61,3.36-6.13,11.07-.24,4.15-.55,9.77H430.17l-2.3-7.77,1.12-2.28-.66-5,3.88-13.16,8.08-7.79-4.37-3.9-4.49,2.21-8.77-7.57-9.14-3-.09-4.44L410,380.86l-1.29-5.12-3.36,3.38.17,4-5,2.91-.94,11.4-2.28,1.6-1.16-9.78,1.85-6.83,2.35-4.07,8.47-14.67H312.73V307.52l-2.57-1.94-.53.07-5.87.42-8.16,3.14-2.17-3.29-4.5,9.85-2.67,3.05.38,2-1.32.53-1.78-2.72,3.53-10.54L286,304.49l-4.6-2.19-.08-3,3.3-1.21,4-7.23,7.52-6.46,1.69-3.68-1.73-5.18-3.48,2.63-2.71-3.84-2.35.12-1.33,9.14-.7,4.81-5.6-13.69,2-4.36-.66-10.69-2.84.79-2.23-8L260,247.29h0Zm50.61,24.92-1,1.16-7,7.9.26,5,6.32,12.62.42.21,1.9,1.07-.86-6.29L312.6,290l-3-6.32-1.44-3,1.44-1.94,2.57-3.57-1.54-3Zm-15,22-2.33,3.55,4.81,6,3.29-2.93,2.49.38.75-2.84-1.51-3.45-7.5-.67Zm-38.26,62.92-8.72,2.58h0l.36,6.18-4.25,4,8.56,6.26,1.36,4.61,2.7,2.17-2.3,7.25L252,391.69l2.46,4.33,6-4.48,4.72-8.11-2.23-6.26-5.55-6.78-.31-2-.65-4.32,2.77-6-1.77-1Zm-81.85,6.51-1,1.1,5.36-1.1Zm11.07,0,2.55.39,0-.39h-2.51Zm14.45,0L199,368.21l0,7.15,2,3.85,2.88-2.58,8.31,11.59.61.86-1,.09-5.16.41-.85-3.55-3.9-2.82-1,3.53,1.8,12.09-1.4,4.39-.86,2.63-1.45-.4-.59-.15-1.65-4-3.46-1-1.8-2.75,1.72-5.91-3,.07-3.33-2.26-2.3,11.23-3.6-5.48-1.52,4.22,2.55,7.25L180.48,419l-.62,1.77L178,426.26l-8.89,2.34-2.36-3.32,2.12-2.13,4.69-.51-5.85-4.11,1.25-1.78,5.84.42,3.27-11.8-2.46,2.19L173,406.49l2.46-12.11-.46-3.25L171.6,393,167.54,406l-1.32-5.34,1.53-10.86-1.58-2.71-4.8-.5-5.56-4.77-.36.54-5,7.76-.11,6.63,1.76,1.26,7.86-4.48,1.6.74-.32,4.62-4.64,5.92,3.78,3.8L162,418.65l.12,14,1.52,3.69h47.45l-.31-.66-1.05-7.56.78-3.05-1.72-3.47,3.47-10.31,1.14-11.87,4.22-2,2.67-6.72L222,374l.74-1.21,5.21-8.44-.29-.68h-4.34l-.71,1.3-1.2-1.3H216.3l-1.74,5-1.14-1.15-.18-3.88H201.07Zm37.58,0-2,.34-3.15,7.13-3.37,3.67-2.29,9-2.63,2.79,4.37,7.82.33,2.76-1.78,2.7,4.2,7.52,1.74,6.94,3.41-9.57,3.73-1.4-3.54-4,2.28-7.27-.12-4.48,6.1-9.12-.88-3.34-5.21-.57-1.72-3.47,2-4.58L239,363.64h-.32Zm409.36,0,.38,4.59,2.91.23,3.42-4.83Zm82.33,0,.36,4.8,4.32,4.2,3.31-1.12,1.44-4.68-.09-3.2h-9.34Zm22.5,0,.74,2.63-.08,8.89,2.57,2.91,1.85,5.27,1.34-.5.82-3.08,3.32,3.08v-19.2H752.84Zm-610.62,2.08,1.8,16,2.71-1.57-.22-9.39Zm374.79,0-3.54,1.39-4.23,5.22-3.9.83-2.62,9.39.47,3.05,4.7-.45,1.35-4.2,5.69-1.78,2.47,2.38,1-3.26-.57-4.06-2.37-3.09,2.06-3.1-.55-2.31h0Zm273.38,3.2-2.7,4.32-4.77-3.16-.07,3.49,10.44,10.58-2,2-2.57-.18-1,1.93,3.63,1.45L795,387l2.5-4.26-.12-4.68-3.17-6.49-3.83-2.64Zm-654.08,2.52-2.75.1-2.31,5.77.15,8.15L126.63,398l-.18,13.28-1.11,2.27-2.93-1.93-2,2.9-.45,6.08-4.4-11.08-1.85,6.7.91,7-2.34,4.08-7.5-2.6-2.22,6.78,1.09,4.86h50.82l3.16-6.6-8-13.51-2.39,2.61-3.79-17.07-7.13-4,1.43-7.16-.55-3.53L136,379.76l.28-8.32h0Zm40,.41.37,13.61,3.82,5.26,1.46-7.16Zm305.49,4.31-.72,2.56,5.35,9.75.49,8.23,2.22,2.59L486.52,405l1.48,5.18,6.67,7.51.49-5.84-2-2.79,2.35-5.51-.57-5.77,3.27-4.37-3.66-4.53-.13-7.67-6.57-5h-6.12ZM650.53,378l-2.77.26-2,2.86L644,387.66l.41,8.48-1.69,5.12,2.95,1.74,1.73-2.19,1.46-9.83,5,.12,1.9-1.67,2.09,1.84,1.37-5.89-.66-3.08-5.27-1.66Zm-106.1,4.91-6.61,7.53,7.9,16.36,5.23-10-2-8-2.84-1Zm260.06,7.5-8.89,1.44-.36,3.06,1.29,1.44,5.07-.12L806,392Zm-128.94,1.75-2,.76-3.3,1.27-1.47-.25-2.44-.42-2.67,2.76.33,5.71-2.29,4.81-2.51-.21-2.51-6.84-4.23,1.74-.54,2.64,3.67,6,1.93,13.16-1.81,2.63-1.32.69-3,1.53,3.66,4.33-.89,3.79.06.11h41.38l-1.8-5.33-.09-7.67-5-10.71-6.94-5.15-2.37-6.32-2.6-2.67,1.58-2.7-2.89-3.7ZM69.67,397.6l3.32,12L76,412.55l.21-5.87-2.06-8.17Zm392,2.31-.53,2.63,4.6,5.7,5.3,1.36-1.11,5.71,1.1,3.14-5.44,3.29,2.17,6.51-.88,2.09-5.25-.13-1,3.26.45,2.9h46.8l-7-4.85-1.52.47-2.5-9-8.67,8.92,1.06-8.68L491,422l-.45-5-1.12-.91-6.94-5.58-3.65-4.79-8.24-5.06-9-.74ZM100,401.15l-1.44,5.43,2,8.66,1.35-.81.32-6.83Zm697.19.47-5.42.7.29,3.15,3.74,3.41,2,7,2.64-3.33.46-5.06Zm-549.39.47-9.92,11.5,3.17,5.42ZM456.75,412.4l-3.53,1.39-.64,5.33,2.23,14.64,1.23-6.7-.74-6,3.22-5.89Zm89.91.42-5.13,4,.7,8,3.54-3.12,1.74-7.35ZM652.54,414v0l-5.64,1.24v8.39l4-.07,2.19-5.8-.57-3.79Zm-9.78.57-5.18,7.76,2.11,5,2,.6,1-13.38Zm-208.28,2.85L429,426.36l4.61,3.74,4.66-.25,1-1.57Zm-353.34.31-1.68,2L77,432.6l-1.48,3.77h6.22l1.18-8-.56-8.44-1.23-2.17Zm153.1,3.91-3.6.18-1.92,3.87-.06,6.14L230,435l-.86,1.36h5.75l-.18-4.39-.44-10.34Zm466.87.06-1.28,10.13-2.11,1.6.5,2.94h7.48l-.12-5-2.46-8.82-2-.83Zm-602.6.59-2.71,1.81-3.75-.33L85.61,434.6l-.3,1.76h8.33l.48-.72.12.72h4.69l0-2-3.58-4,4.6-3.49-1.39-4.65Zm349.9,3.53-4,10.54H450l.36-3.58Zm186.36,5.39-2.13,3.58.13,1.57h5.42l0-.15-3.38-5Zm128.13.08-1.33,2.22.66,2.86h1.14v-4.29Zm-117,1.57-3.49,2.6v.9h3.91l-.43-3.5Zm-333.23,178-1.63,1.1-1.48-.24-2.83-.43-1.19,3,1.56,4.68-1.65,1.69h-2.93L302,624l4.21,8.8,2.79-4.23.64.34,2.72,1.43.38.65V610.81Zm-17.11,30.35-7.77.24-.36,4.86,1.18,2.67,2.75-.3,7.76-3.82Zm8,5.22-7,10.18-3.73,3.34,2.64,2.4,10.08-.36,1.36-15.55h-3.34v0Zm9.14,29.88-.25.07-2.85,8.26-1.52,4.36,1.52.6,3.1,1.25Z" transform="translate(0 0)"/><path id="ceae9234-d592-4a43-8395-1495f0b6ac6a" data-name="rect4" class="beeb2ab5-63a5-4ec7-9a5d-c3bafb10c32b" d="M762,0l-2.31,4.53L759,13.06,760,16.43l1.39-.73,2-5.6V.26Zm20.49,103.32-2.58,1.31-.78,4.39,2.68,4.61,4.12,1.57,6.45-1.15,3.28-2.22,2.77-5.31-2.09-2.27L791,106.9Zm18.88,25.12-8.72,1.63-3.58,3,.58,4.84,4.72,7.91,8,.24,6.75,4.7,3.21-3.94-1.19-8.65-5.17-8Zm-26.86.65-2.62,7.52,2.7,3.38,4.12.33,1-1.93L775.9,135l-.12-4.68-1.28-1.22Zm-57.2,2-3.42,3.59-5.44-2.43-1.35,2.24,2.54,5.13,3.86,1.38,3.81-1.56,1.61-5.86Zm71.89,29-3.73,2-1.13,2.25,2.45,7.15,2.59,1.41,3.8-1.6,2.19-6.16Zm22.33.57-4.19.41.08,3.21,6.21,2.6,2.8,2.87,1.1-2.48-2.14-4-3.86-2.63h0Zm-10,8.15-4.25,4.14-2.19,6.17,2.29,2.22,4.83-1.78,2.87,1.84,6.57-1.69.73-2.13-7.62-8.73h-3.21Zm-62.17,10.5-.7,10.25,3.62,1.62,2.45,4.12,1.62-6.13,2.17-1.84L744,179.87Zm69.09,7-5.3,1.67-1.31,7.71-4.24.18-1.18,7.2,6.45,6.75,3.95,7.32,3.76,2.17.67-10.32,6.54-16.29-2.89-2.1-3.34.48Zm-74.83,7.76-1.49,1.73L735,206.43l3.69,2.62-4.46,1.69-1.11,2,3.74,5.6-3.41,1.86,2.34,4.82-1.59,2.46,3.24,4.51,1.72-.17,6.33-3.12,1.85-11L745,214.35,746,212l-2.67-5.65.18-4.65-5.15-1.16ZM420.88,207.6l-3,.27-5.76,5.48.36,2.52,3.05,2.68.32,4.48,5.1-1.86-.38-7.48,1.8-4.37Zm357.37,22.77h0l-2.55,4,4.6,7.17,2.54,1.18L788,237.9l6.06-2.08.15-3-2-1.77-14-.66ZM747.72,236v0l-4.08,3.71-1,4.76.75,2.35h3l.43,3.29,4.81-2.88-.9-11Zm15.67,3.62-7.62,9.66-.83,4.79,1.19,5.63,7.27,7.82v-27.9Zm22.83,5.6L783.75,251l-2.4,2.24,2,5.51-1,9.39,2.07,1,2.48-1.77,1.74,2.84-.86,5.13,3,.33,4-3.08,2.1-14.61-2.21-4.48-8.4-8.31Zm-351.4,1.6-4.41,3.2-1.7,5.39,1.08,5.13,3.24-.48.22-5.39,2.47-4.78Zm226.95.2-1.55.47-2.81,7.18-.2,6.61,2.39,1.15,2.63-10.63Zm-530.4,5.39-4,13.65,1.43,2.43,5.22-7.08-.08-8.85-2.52-.15Zm314.06,4.74L442.26,266l4.19,3.88.59-3.34,2.51-3.26-2.07-5.54Zm144.24.77-.51,9.28-3.2.21-1.22,3,4.25,3.21,3.88-.61,1.41,3.95,3,1.48,3.59-5.06L596,266.14l-2.4-7.81Zm107.71.65h0l-2.54,3.26,2.8,12.83,5.8-2.19L699.66,259l-2.28-.43Zm-33.47,8.31L660.38,268l-.78,2.82,1.82,12.4,10,7.67-2.56-11.35-4.44-5,3.24-2.16-3.75-5.56Zm-296.64,7.24v11.5l2.39-3-1.77-8.38-.62-.08Zm220.65,1.25-1.67,4.89,1.36,2.69,6.8,1.39.83-1.57Zm189.68,3.22-3.32,2-1.48,5.28,1.25,3.7,4.48-1.24.77-4.39Zm25,.21-3.25,1-2.57,6.49-.53,4.6,2.71,3.61,2-3.17,2.26-9.66-.66-2.84Zm-617.63,4.62-.49,4.36-2.57,4,0,6.17,2.83,2.87.69,8.25h.11V283.55l-.51-.12Zm188.12,2.64-5.79,7.1v10.21l1.42,0,4.83-6.84.67-9.25-1.14-1.17Zm432.57,7.66-1.82.65-.7,4.86,3,9.85H808l-.66-11.5-1.69-3.86Zm-76.44.71-.47,5.32-3.09,2.67-.2,3.17,2.66,2.47,5.09-.13,1.59-2.42-1.31-4.69-4.25-6.39ZM175.65,296.5h0l-2.21,12.21,0,.37h8.34l-.32-2.57-3.2-9.13-2.66-.88Zm581.89,4.64-2.34.07.65,7.88h5.9l-4.22-7.95h0Zm-52,3-2.72,1.52-.64,3.44h8.39l-1.49-2.87Zm91.29,2.19-2.34.07-.95,2.71h6.18l-2.9-2.75v0Zm-786,184.59L14,498.48l1.6-7.57Zm85,0,.07,15.81-3.66,6.61.56,2.52,2.87.68L97.89,524l3.64,5,2.56,12.91,1.67,2,5.32-.68,4.22,3.58,12.3-3.29,6.79-4.62,1-3.29-1-6.07-3.74-6,.75-1.57,1.15-2.34-3.2-7.11,5.4-5.32-1.47-7.62-3.08-2.43-2.93-.21-2.07-6.06Zm38.9,0,1.68,4.24,3.59-2.17,1,.88-1.11,13.86,2.33,3.55,9,7.29,1.74-2.46-2.13-7.2,4.84-.27,1.7,13.07-1.08,6,2.22.83,5.65-7.49.09-10.3-1.9-5.48L167,494.91l-.13-4H134.62Zm39.23,0,1,4.72-.65,9.51,5.8,14.4,1.58,4-1.14,2.76,2.75,7.3-.28,4.4,2.52,2.78V490.91Zm193.43,0v3.89l1.05-1.76,2.85.73,1.27,7.09,7.44,4.65,4,7.05,7.37,3.41,6-5.92.12-8.12,2.23-4.8,3.33-3.17-1.45-3.05Zm41.53,0,3.31,3.08,1.1-.5.9-.38.88-2.19Zm29.49,0-.08,1-3.7,6.27-3.41.44-2.24,6.25L427,510l3.83,8.53,7.7-10.08.92-7.73,4.07-9.79H438.3Zm13.54,0,.32.28.22-.28Zm29.68,0,.94,3.58,4.82-3.58Zm134.2,0,.18.63.78-.63h-1Zm4.83,0-1.16,6.41.37,1,1.53,4,5.87-4.88H633l2.29-1.58,1.47-5Zm87.29,0-.18,2,2.26,7.06,3.86,4.35-1.18-8.82-2.22-4.55ZM474.68,494.4l-1.89,10.51.76,4.08,6.58-9.27-1.89-3.49-3.57-1.84ZM501,501.24l-4.41,5.15-5.4,11.67,2.27,2.1,5.11-2.34,3.94-11.67Zm-54.53,8-3.66,6,5,7.46,2.61-.8-1.72-8.41-2.22-4.29ZM522.28,511l-3.55,3.34,4.5,7.89,3.49-6.31Zm-351.9.44-2,1.15-.9,8,.9,8.77,2.13-.18,2.9-9.14-.87-7.27-2.14-1.3h0Zm474.76.17h0l-3,8.86L639,518.91l-1.46,1.46,5.22,8.8,6.86-6.22-2.78-11.31-1.68-.07Zm-136.63.24v0l-4.06.57-3.91,11.4-2.79,2.26-6.07-2-.58,3.12,1.94,11.23h.25l11.77-8.7,4.36.5,1.4-8.15,3.06-2.7-5.39-7.56Zm-37.62,3.65-4.14,4.74-2.55,7.19-4.9,2.4v1.72l3.78,1.84,6.34,3.05-.09-2-.15-3,3.65-5.8-1.49-5.09,2.18-2.38-2.63-2.63v-.07Zm111.47,4.15-7.6,5.36.09,2.72-4.57,2.91-.93,2.31,3.48,2.57,3.83-3.79,1.42.23,1.37-2.5,9.41.4.82-3.33-2-2.06-.22-3.26-5.06-1.57Zm-442.92,4-2.56.34,2.63,10.47,2.56,1.38L144,530l-1-2.37-3.54-4h0Zm281.14,3.46v0l-2.15.4-1.19,4.73.79,7.53-3,3.94.2,5.22,0,1.48,4.36,2.19,2.38,8.26-6.49,3.38-1.67-1.74-1.27-5.39-3.09-2.23.65,8.72,4.06,10-.24,5.59-4.9,9.58.16,4-1.4,1.24.32,7.92,3.36,1.78,1.38,2.16,1.63,2.52h4.4l-.23,5.36L418.22,625l2.09,1.84,2.5-7,2.55-.32,3.14,1.74-2,8.3,1.9,3.5,2.14,1.36,2.24-3.09,2.73-.07,1.51-3.93-1.57-4.45.65-1.53,2.85-6.75-1-3.86-4-3.84-.18-3.74,3.63-14.66,4.84-.17,7.45-6.2-4.27-4.62,2.68-5L446,560.58l2-9.27-1.63-9.15-5-5.51-3.36-.07-2.72-7.08-3.7-1.48-1.6-.27-.67,2.49,4.06,4.86-3.83,16.35,4.32,13L430.31,576l-2.09-.1.21-16-2.54-6.84,1.8-8.06.32-9.82-4.57-5.68-2.85-2.43Zm20.71,2.57-.07,2.07,7.1,2.13,1.35,2.71-1.4,3,3.49,9.42,6.95-7.23-2.95-6.9-5.59-3.7-1.37-1.37Zm104.11,5.1-4.89,11.69-.64,2.67,2.29.12,2.26-2.1,4.72-8.53-3.74-3.85Zm63.31,6v0l-1.53,3.95-3.53,1.36-2.37,5.51,1.4,5.56-1.12,4.09,1.72,3,3.55,1.84,3.7,10.77,3.66,6,9.49,1.39,1.76-2.4,2.47-11.43-3-4.68-1-4.89-1-4.6-4.58-3.73.7-5.58L618,545.87l-5.79,1-.32-6-3.15-.07Zm-73.86,23.73-5.32,2.31-3.61-1.34-2.31,8.71,3.34.09,11.36-8.94-3.46-.83h0Zm7.52,17.54-3.41.41-8.15,5-.86,1.81,1.7,1.55,4.81.07,1.85-1.41,1.15,4.37,11.13,1.64,7.32,5.89,3.18,2.55,7.46-1.22.4-6.58,2.64-2.75-.6-7-4.3,5.93-9.42-.12-4.35,3-3.3-10.66-2.9-.27-2.38,4.06-1.53-1.24-.44-5h0Zm40.78,11.11-2.52.07-5.1,4.06-.54,4.34-2.79,2.24,3.14,3.5,6,.77,3.6,3.08,1.92-3.64-.29-4.47-1.61-2.24,2.18-4.07-4-3.61h0Zm-215.88,4.23v75.36l1.51,1.1-1.51,7.26v5.26l.13,1,3.05,4.19-.88,6.13,1,2.84,2.73,8.23,2.9.21,1.15-8.44.25-1.93,12.76-.12.16-6.63,2.49-5.25,2.17,1.1,1.24,7.32-.63,3.61,1.28,1.9.36.56,3.16,4.72-.7,7.75-1.28,2-3.74-.12-.72,2.58,3.75,6,11.47-12.86-2-4,1.94-2.4,2.79-.53,1-3.7v-1.31l6.64-.47,1.84-6-6-6.13-1.49.24-4.46-11.83-.48-4.77,2.3-6.46,1.07-9.35-2.76-7.86,4.89-5.21-.86-3.34-4.56-.51.24-2,.1-.94,4.48-2.46.2-1.69-3-2.72-.5-2.79,1.36-4.45L415.9,618l-1-2.13-2.34-5.07-3.93-.38-1-.86-1.49-1.27-.86,3.08h0l-1.65,5.84-2.71.07-.92-1.81v-.07l-2.47-4.89-2.81,7.91-1.94-3-.45-8.66-4.69-6.43-5.4,6.75-3,.74L372.53,604Zm178.52,3h0l-4.45.49.38,2,7.75,5.25,4.66,1.29,2.43-1.05L556,605.8l-10.24-5.43Zm-24.75.28.26,6.45-2.07,3.36-3.41,2.13,4.88,3.05,13.7-4.11,10.79.82L533.7,601.56Zm-75.62,5.18-.61,3.36,2.38,4.58,3.82,1.36,1.41,5.65,5.76-7.93-.82-3.59-5.14-2.57-3.14,1.72Zm121.95,1.67L562,612l-9.79,3-1,1.57,1,3.62,3.51-3.12,5,1.6,2.47-1.3,2.8.94,2.75-5.18Zm-102.14,2.6-1.11,2.24.48,4.77-2.44,4.77L463.7,628l-.75,2.85,2.37,1.13,2.09-3.35,2.6,2.66,2.35-3.82,1-15.58-1.72-1.51-1.86,1.65Zm109.62,1.36-1.16,4.24,3,4.47,4.91.83,4.08-.77-4.52-6-4.1-.71Zm107.24,8.85L677,625.59l-4.94,1.13-.92,2.27,9.06,6.29,3.52-6.31-.62-3.32,1.69-1.9-.33-2.27Zm-121.8.5-3.82,3.81-7.69,1.15L545.85,624l-.29,4.15,2.29,1.86,7.27-1.24,5.34.91.88-5.54ZM517,629h0l-2.89,6.66L502,647.46l-7.61,16.24-.85,1.81-9.86,12.41,3.05,4.2,18.42-5.29,6,.5L518.45,667l.06-15.34V651l1.41-6.67,5.58-11.4L517,629Zm39.42,4.68-8.67.74-3.84,4-3.9-2.37-11.25,3L524,645.72l-.12,4.29-.05,2.35-1.91,7.08,3,2.94-2.39,4.28-.46,5.59-4.12,9.91,1.31,4.63L522,688l4.07-.77,5.56-8,2.23-.6,1.67-.47,0-8.38,7.62-4.12,2.81-3.91,3-4.77,0-.07.37-7.49-1.22-2.64,5.31-4-1.47-3.48,5.22-3.27-.76-2.35Zm9.42,3.55-7.21,5.92-5.26,7,3.71,3.86-3.83,4-.45.74-10.54,17.36-2.7,6.7,5.61,3.64.21,6.94,6.17,4.13,6.79-5.89,2.79-.5.05-5.65L566,680l1.06,7.08,3.45,2.28,7.27-1.21,3.25-4.39,3.22-.69-.46-4.73,6-13.28-4.25-7.87-8.19,1.8-1-10.5,3.37-5.36-.24-1.51-5.42-1.9L572,643l-5.31-1.15-.9-4.6h0Zm-80.1,13.15h0L478.26,662l1.85,3.76,5.52-7.7,5.47-.07,2.14-4.1-.61-1.84-6.92-1.62ZM687,654.94l-4.23.24.91,6.07,4.55,5.48,3.38-3.58Zm-83.56,3.52-6.17,5.87-.94,2.55.75,2.35,7.41-4.16.45-3.61Zm126.78,7.26h0L726.81,676l.36,2,1.93-.4,3.47-7.52L732,666l-1.85-.32ZM471.06,680.27l-6.22,6.61-3.75,1.6L460,690.72l2.33,5.1,7.93-6.82-.54,9.75-14.9-.17-6-.07.28,2,.49,3.73L447,707.07l3.65,6.25,2.95,1.48,2.94-2,2.83,2.7,2-.65,3.1-6.91,9.09-7.4.65-.78.79.78,6,8.93,2.91,2-3.19,2.19,1.64,2,5.5,1.15,2.47-1.3.85-3.57h4.37l6.9-9.77,6.94,5.92,4.39,2,1.54.7,2.46-1.31.57-8.19.6-.74L520,698.8l-8.36-8.56-4.2-1.69-3.92,1.31-2.46-2.13-13.92-.6L484,691.28l-3-1.48-3.09-7.41-6.84-2.13Zm-25.58,35.89-3.16,5.39.87,5.07,1.34,2.7,4.09-5.6-1.33-7Zm286.67,21.43v0L730.31,739l-2.07,9.75,1.07,4.86,3.24,2.3.66,3.09,1.64,5.22,12.31,1.68,9,7.79-2,7.28h4.37l1.86,5,7.22-4.15-1.57-5.72,1.64-4.62-5.18-3.63-2.75-4.69-8.65-2.55-.07-2.72,2-1.36,13.3-1.07,2.34-3.53-3.16-4.77-9.15,1.34-4.82-4.79-7.4.65-6.37-5.8-5.72-1ZM721,753.37l-5.22,8.2-7.91,1.59L706,764.3l-1.51,5.42-5.89,1.93,8.48,13.8,5.1,4.35,9.84,4.72,2.49,5.13,7.66.36,2-2.38-1.24-3.39L729,790.58l-2.88-6.94,1.09-3.76-.75-10.48-2.32-8.06-1.2-7.11Zm18,14.56-7.74,1.82-.86,13.39,1.73,4.51,2.55,1.21,2.86-2.73-1-5.59,2.42-4.24,2,5.77,3.71-4.53,6.23-1.36-.9-2.87-5.43-4.89Z" transform="translate(0 0)"/></g></svg>
