<?xml version="1.0" encoding="utf-8"?>

<svg version="1.2" baseProfile="tiny" xmlns="http://www.w3.org/2000/svg" xmlns:xlink="http://www.w3.org/1999/xlink" x="0px"
	 y="0px" viewBox="264.6 175.8 311.4 242.7" xml:space="preserve">

<g id="Azerbaijan">
	<g>
		<polygon fill="none" points="304.3,262.6 303.5,262.6 302.7,262.8 302.1,263.3 301.8,264 301.6,264.7 301.8,265.4 302.1,266.1
			303.9,266.7 305.7,265.3 306.4,263.5 305,262.7 		"/>
		<polygon fill="#0098C3" points="277.4,237.2 278.2,235.5 277.6,233.5 275.5,233 274.6,233.6 274.5,234.6 274.8,235.6 275.5,236.5
					"/>
		<polygon fill="#0098C3" points="516.5,252.4 515.6,251.2 514.6,250.3 513.4,250.6 510.9,249.1 509.8,248.2 509.4,247 508.8,246.2
			502.4,239 499.9,234.8 499,229.7 498.6,228.9 498,228.4 497.7,227.1 497,221 496.7,219.4 496.1,218.1 495.3,217 491.8,209.6
			491,208.4 490.5,208.2 489.2,207.8 488.9,207.5 488.7,207 487.5,205.2 487,204.3 486.4,203.2 485.5,202.3 484.4,201.9
			482.4,197.5 478.7,193.4 478.4,191.7 477.7,190.6 475.8,188.7 471.1,182.2 469.3,180.5 467.6,179.5 467.1,179 464.5,183.1
			460.5,188.3 458.2,194.5 457.2,196.5 455.9,197.9 451.3,200.7 448.5,203.1 447,204 440.8,205.2 439.1,206.3 438.1,208.2
			436.3,213.3 435.1,214 433.8,213.7 433.2,214.3 432.9,215.4 432.5,216.7 431.7,217.6 431,218.2 430.5,218.8 430.3,220.3
			430.6,221.8 430.9,222.7 430.6,223.4 429.4,224.1 427.1,224.8 422.6,225.2 421.6,225 417.2,222.8 416.1,222.7 415.1,223.1
			413.2,224.3 412.1,224.3 411.2,223.6 409.7,221.5 408.5,221.1 403,220.5 401.4,219.9 397.3,217.5 396.4,216.5 395.8,214.9
			395.9,211.2 395.7,209.5 395.3,208.7 393.7,206.6 393.4,205.9 393.2,205.2 393,204.5 392.4,204 391.5,203.3 391.1,202.2
			390.9,201 390.5,199.8 389.7,198.8 388.7,198.6 387.7,198.8 386.7,199.2 384.5,199.5 383.7,198.2 383.2,196.1 381.9,193.9
			379.3,191.7 378.5,190.7 378.3,190.2 378.1,188.9 377.8,188.4 377.2,188.1 375.8,187.9 375.1,187.8 374.2,187.2 370.7,184
			370.2,183.1 369.9,182.2 369.4,179.4 369.2,178.6 368.8,178.6 367.9,179.5 366.9,180.2 364.8,180.7 363.7,181.1 361.9,182.6
			361,183.2 360,183.2 359.1,182.4 358.8,181.2 359,178.3 358.7,177 357.8,176.4 355.3,176 353.9,176.1 352.7,175.8 350.7,180
			349.6,181.8 347.3,184.6 346.5,185.3 345.6,185.7 344.5,185.8 342,185.3 340.9,185.4 339.9,186.5 339.3,188.9 339.4,192.5
			340.1,195.7 341.5,196.9 342,196.5 342.2,195.9 342.6,195.3 343.3,195.3 343.4,195.7 344.6,198 345.1,201.3 345.6,202.8
			346.5,204 349.3,205.9 349.9,206.2 351,206.5 353.5,208.8 358.7,211 361.3,212.5 362.1,214.5 362.9,214.2 363.4,214.5
			363.7,215.1 364.8,216.2 366.4,218.8 366.8,219.8 366.6,219.9 366.2,219.8 365.7,220.4 365.6,220.9 365.5,222.1 365.4,222.6
			365.1,223.1 364.4,223.7 364.1,224.2 363.6,226 363.3,228.5 362.8,230.7 361.8,232.2 360.8,232.3 359.8,232.1 358.7,232
			357.6,232.7 357,233.8 356.7,234.9 356.2,235.6 355.1,235.7 354.1,235.1 352.6,233.1 351.8,232.3 348.6,231.3 347.5,230.6
			344.3,227.8 342.8,225.9 342,225 341,224.7 337,224.7 335.8,225 333.1,226.8 332,227.2 330.7,227.3 328.2,226.9 320.2,224.1
			316.5,221.8 314.3,219.9 313.1,217.9 314.3,216.5 315.5,216 316.2,215.6 316.2,215.2 314.9,214.7 311.5,214 303.8,211
			302.1,209.4 301.3,208.5 300.5,208.3 298.8,208.9 297.7,209 296.9,208.8 293.3,207 291.6,206.9 289.9,207.5 276.7,218.3
			278.7,222.5 278.1,224 278.4,224.9 279.3,225.3 282.8,225.3 283.7,225.6 286.5,227.8 287.2,228.8 287.3,229.9 285.4,231.2
			280.2,231 279.6,233.3 280.3,234.4 281.5,235.2 282.5,235.3 282.8,234.5 283,233.2 283.8,233.7 285.6,235.5 286.7,236.1
			287.5,237 288.4,237.8 290.9,238.1 293.2,239 294.4,239.2 297.4,237.7 298.9,237.6 299.2,239.2 298.7,241.5 299.4,242.2
			300.7,242.6 302.1,243.7 304.4,246.6 305.2,247.5 306.3,247.8 307.5,247.9 308.5,248.4 308.5,250 307.6,252.9 306.3,254.3
			518.1,254.3 518.2,253.7 517.6,253 		"/>
		<polygon fill="#0098C3" points="288.3,240.3 286.8,238.9 286.6,238.9 286.3,238.9 286.2,239 286,239.2 286.5,240.8 287.7,241
			"/>
		<polygon fill="#E00034" points="319,341.7 319,340.5 318.5,339.6 317.3,338.8 315.8,338.2 314.6,338.2 307.8,339.9 306.3,340.5
			304.4,341.7 319,341.7 		"/>
		<path fill="#E00034" d="M306.1,254.5l-6.3,3l-2.1,1.7l-1.3,2.4v3l0.8,1.6l1,1l1.1,0.8l0.9,1.2l0.2,0.7l0.1,1.5l0.2,0.7l0.5,0.5
			l1.1,0.7l0.4,0.8l1.7,3.7l3.2,2.9l12.4,7l2.3,2.5l1.1,0.1l1.1-0.3l1.2-0.1l0.8,0.4l0.8,0.7l1.4,1.8l0.1,0.4l0,0.4l0,0.4l-1,4.5
			l-0.7,1.7l-1,1.4l-1.2,1l-0.2,0.5l-0.6,3.2l-0.4,0.7l-0.7,0.6l-3.7,0.4l-8.8-1.5l-3.4,2.2l0.2,1.6l1.7,0.8l5.6,0.6l1.4,0.7
			l1.1,1.3l2.8,5.7l2.4,2.4l2.9,1.5l3.4,1l1.5,1.4l2.1,4.2l1.7,1.3l2,0.6l0.9,0.5l0.8,0.9l1.3,2.4l0.8,0.8l1.2,0.4l1.8-0.4l3.6-1.9
			l1.8,0.1l0.8,0.6l1.3,1.7l0.8,0.6l1.1,0.2l3.4-0.3l0.9,0.2l0.9,0.6l0.7,0.9l0.2,1.1l-0.5,0.9l-0.7,0.4h55.6l0.3-0.2l2.8-2.9
			l4.1-2.3c-2.8,0.6-5.7,1-8.7,1c-21.7,0-39.3-17.6-39.3-39.3c0-21.7,17.6-39.3,39.3-39.3c13.6,0,25.6,6.9,32.6,17.4
			c-6-6.6-14.7-10.8-24.3-10.8c-18.1,0-32.8,14.7-32.8,32.8c0,18.1,14.7,32.8,32.8,32.8c9.7,0,18.3-4.2,24.3-10.8
			c-2.3,3.5-5.2,6.5-8.5,9.1l0.9,0.6l3.3,3l7.5,9h58.1l0-0.2l0.2-1.4l0.4-1.6l0.5-1.5l0.6-1.1l-0.1-1.2l1-1.7l2.5-3l1.4-0.8l0.7-0.6
			l0.1-0.6l-1.2-1.7l-0.3-0.9l0.2-0.9l-0.3-0.5l0-0.4l0.3-1l0.9-0.6l0.2-0.3l0-0.5l-0.1-0.4l-0.2-0.4l-0.1-0.4l0.1-0.7l0.3-0.4
			l0.4-0.3l0.5-0.5l0.2-0.8l-0.2-0.8l-0.6-1.5l-0.3-1.4l0-0.6l0.2-0.8l0.4-0.7l0.4-0.3l0.4-0.2l0.9-0.9l0.5-0.3l0.3-0.4l-0.2-0.7
			l-0.4-0.5l-0.8-0.6l-0.5-0.5l-0.7-1.4l-0.1-1.4l0.5-1.1l2.9-1.1l0-0.7l-0.3-1.9l0.1-1.5l0.6-0.8l0.9-0.6l2-2.3l1-0.7l4.1-1.5
			l3.1-1.8l3.5-0.8l2.2-1.1l1.5-1.5l-0.3-1.7l1.8-1.6l1.1-0.6l1.4,0.8l1.4,0.2l0.5,0.2l0.4,0.5l0.7,1.1l0.4,0.3h1.1l1.8-1.5l0.9-0.4
			h2l0.5-0.1l0.7-0.3l0.6-0.1l1.1,0.1l2,0.7l2.4,0.3l1.2,0.5l1.1,0.6l2.6,2.1l1.3,1.5l1.1,1.7l1,2l0.2-1l-0.3-1.4l-0.5-1.3l-0.4-0.6
			l-0.5-5.7l-0.5-1.4l-0.8-1.4l-1-1.1l-1.1-0.4l-1.1-0.7l-0.8-1.5l-0.6-1.6l-0.6-1l-0.9-0.5l-4.8-1l-1.1-0.6l-1-0.9l-0.9-1.2
			l-0.2-0.5l-0.2-0.5l-0.2-0.5l-0.4-0.4l-6.1-0.2l-1.3,0.2l-3,1.2l-1,0.2l-1.3-0.1l-2.3-0.7l-2.7-0.4l-1-0.5l-1.9-1.7l-0.8-0.5
			l-1.1-0.3l-2.3-0.1l-0.7-0.3l-1.1-0.8l-0.9-0.9l-0.4-0.7l-0.2-0.4l-0.7-0.9l-0.2-0.4l-0.1-0.8l0.1-0.7l0.3-1.4l0.9-2.6l0.1-0.9
			H306.3L306.1,254.5z M454.4,276.2l4.2,11.8l11.3-5.4l-5.3,11.3l11.8,4.2l-11.8,4.2l5.4,11.3l-11.3-5.3l-4.2,11.8l-4.2-11.8
			l-11.3,5.4l5.3-11.3l-11.8-4.2l11.8-4.2l-5.4-11.3l11.3,5.3L454.4,276.2z M305.7,265.3l-1.8,1.4l-1.8-0.5l-0.3-0.7l-0.1-0.7
			l0.1-0.7l0.3-0.7l0.7-0.5l0.7-0.2l0.8,0l0.8,0.1l1.4,0.8L305.7,265.3z"/>
		<polygon fill="#E00034" points="575,285.1 574.5,285.1 574,285.5 573.5,285.6 572.8,285.1 572.7,286 573.2,287 574,287.7
			574.6,287.5 575.7,287.7 576,287 575.8,285.9 		"/>
		<polygon fill="#E00034" points="562.6,280.8 563.4,280.7 563.8,280.2 563.7,279.3 563.2,278.4 562.5,277.8 562,277 561.9,275.6
			561.5,275.1 560.7,275.4 560.1,275.1 560.1,276.7 561.8,279.1 561.5,280.8 		"/>
		<polygon fill="#E00034" points="297.5,341.7 296.5,341.2 294,341 293.2,340.7 292.7,339.9 292.1,338.5 290.4,336.1 289,336.6
			287.5,338 285.5,338.5 284.5,337.8 284.3,336.8 284.8,334.3 284.9,332.7 284.6,331.5 284.1,330.3 280.2,325.3 278.4,324.4
			276.4,325.1 274.4,326.6 272.7,327.5 270.9,328 268.5,327.9 266.1,328.4 264.6,329 265.1,329.9 265.7,332.5 266.3,333.4
			266.4,333.6 267.4,334.1 268.5,334.3 269.8,334.4 269.6,334.7 269.4,334.9 270.5,335.7 271.2,337.2 272.2,341.7 297.5,341.7 		"/>
		<polygon fill="#00AE65" points="448,343.4 451.6,346.8 453.1,348.8 454.3,351.3 452.3,351.9 449.5,353.8 446.2,354.5 444.4,355.4
			442.9,356.9 441.9,358.8 441.8,361.2 442.5,363 443.8,364.8 446.8,367.8 449.9,369 450.7,369.8 452.3,373.3 452.6,374.1
			452.5,375.1 452.3,376 451.9,376.9 451.4,377.6 451.4,377.6 451.4,377.6 449.2,379 439.4,380.7 439.2,381.2 439.2,381.7
			439,382.1 436.2,383.8 435.7,384.6 435.9,387.4 436.9,389.4 440.4,392.1 447.4,395.6 448.1,396.2 448.5,397.7 448.3,399
			448.4,400.2 451,402.3 451.8,403.5 452.8,404.4 454.4,404.4 457.1,403.2 458.3,403.2 459,404.6 459.3,406.5 460,407.4
			460.9,408.1 461.7,409.5 462.6,410.5 463.4,411.6 465.4,414.1 466.9,416.6 468.6,418.2 471.3,418.5 472.6,418.1 474,417.5
			475.4,416.6 476.4,415.6 477.6,414.9 479.3,414.9 482.8,415.7 482.2,393.8 480.9,390.6 480.7,389.5 480.6,388.4 480.5,386
			482.5,386.5 484.1,384.5 485.3,381.6 486.7,376.7 487,375.1 486.1,373.6 485.9,371.9 486,368.7 486.2,368.7 486.4,368.7
			486.7,368.5 486.8,368 486.8,367.3 486.8,366.9 487.3,365.9 487.5,365.2 487.8,364.7 488.4,364.5 490.7,364.4 491.7,364.6
			492.6,365.4 492.8,366.2 493.1,369 493.1,369.6 495.7,369.7 496.7,370.2 497.3,371.5 497.3,372.9 496.9,374.3 496.2,375.3
			495.3,375.7 492.9,376.2 492.5,376.7 492.4,377.2 492.4,377.7 492.2,378.5 493.7,379.7 495.8,378.9 499.8,376.1 500.3,374.9
			500.6,373.5 500.7,371 501,370 501.7,367.8 502.1,365.7 502.1,358.2 502.7,356 504,354.2 505.8,353.5 508.5,355.4 509.2,356.3
			510,357.2 511.2,357.4 511.2,356.9 510.3,356.3 509.7,355.4 509.2,354.2 509,353.2 509.4,353.2 509.6,353.8 510,354.3
			510.5,354.8 511.2,355.1 510.7,354.3 510.6,353.6 511,351.4 511.2,351.1 511.2,350.8 510.8,349.9 510.2,349.1 505.2,344.6
			504.7,343.3 504.7,341.7 446.5,341.7 		"/>
		<polygon fill="#00AE65" points="356.6,341.7 356,342.3 356,343.4 356.3,344.1 356.3,344.8 355.9,345.3 355.3,345.6 351.4,346.3
			349.7,347.4 349,349.2 349.7,351.3 351.5,352.7 355.3,354.4 356.2,355.1 356.6,356.1 356.8,357.2 357.3,358.2 358.6,359.5
			360.9,361.1 361.3,361.4 361.6,361.8 361.9,362.5 361.4,362.7 360.3,362.8 357.8,364.5 357.2,364.6 353.9,363 352.1,362.7
			350.8,363.9 350.9,366 352.2,367.3 354,368.3 355.3,369.4 356,371.6 356.3,373.6 356.1,375.5 355.4,377.6 355.4,377.9 355.3,378
			355.1,378.9 355,379.7 355.1,380.6 355.3,381.3 357.2,385.2 358.1,385.2 359.3,384.7 360.1,384.2 361,383.5 361.7,382.7
			362.3,381.7 363.8,378.6 364.5,377.7 365.5,376.9 368.6,375.3 369.4,374.5 370.3,372.4 371,371.4 371.4,371.1 372.3,370.6
			372.7,370.2 373,369.8 374.4,367.4 375.1,366.6 375.9,365.9 376.8,365.5 377.6,365.5 379.1,366.2 379.9,366.4 380.6,366.2
			384.1,364.2 384.7,363.6 384.9,363.1 385.8,360.5 387.8,357.4 387.9,356.7 388.5,356.1 391,354.6 396.3,352.5 398.5,351.3
			400.3,349.4 402.9,346 404.7,344.6 406.9,343.4 410.6,342.1 411.8,341.9 412.2,341.7 356.6,341.7 		"/>
		<polygon fill="#00AE65" points="273.4,345.2 274.5,346.2 274.1,347 274.3,347.5 275.6,348.5 275.9,348.5 276.5,348.5 276.9,348.6
			277.1,348.9 277.2,349.2 277.4,349.4 279.3,350.8 279.6,351.1 279.8,351.6 280.2,352.3 280.8,353 281.2,353.2 281.7,353.9
			283,356.8 283.4,357.4 283.8,358.2 284.4,361.6 284.7,362.6 286.1,362.2 291.6,364 291.8,363.9 292.1,363.6 292.6,363.5
			293.1,363.5 293.3,363.9 293.1,364.6 293.1,365.2 293.6,365.4 294.4,365.6 295.1,366 295.4,366.7 294.9,367.8 295.3,368.5
			295.8,368.8 296.3,369.1 296.8,369.6 297,370.2 297.4,371.6 297.7,372.2 298.2,372.6 299.4,373.2 299.7,373.6 299.6,374.3
			299.4,374.9 299.2,375.5 299.3,376.2 299.9,376.9 301,377.7 302.3,378.3 303.7,378.7 304.8,379.3 305.5,379.5 307,379.5
			310,380.2 314.7,380.3 318.7,381.9 329.9,384.2 333.4,385.8 336.5,386.6 337,386.5 333.9,380.6 331.1,372.9 330.1,370.7
			328.7,368.7 327.6,366.9 327.1,365.1 327.4,363.3 328.7,361.6 329,361.2 329.2,360.7 329,360.2 328.7,359.6 327.6,358.6
			323.8,356.7 322.5,355.8 321.5,354.7 320.4,353.8 317.4,353 316.9,351.9 317.3,350.6 319.1,347.6 319.3,346.5 318.8,343.4
			318.8,343.4 319,341.7 304.4,341.7 302.1,343.2 301.5,343.4 300.9,343.7 300.3,343.8 299.7,343.8 299.1,343.4 297.5,341.7
			272.2,341.7 272.8,343.8 		"/>
		<path fill="#FFFFFF" d="M443.3,319.9c-6,6.6-14.7,10.8-24.3,10.8c-18.1,0-32.8-14.7-32.8-32.8c0-18.1,14.7-32.8,32.8-32.8
			c9.7,0,18.3,4.2,24.3,10.8c-7.1-10.5-19-17.4-32.6-17.4c-21.7,0-39.3,17.6-39.3,39.3c0,21.7,17.6,39.3,39.3,39.3
			c3,0,5.9-0.4,8.7-1l3.3-1.9l3.1-3.2l1-0.7l1.3-0.3l4,0.1l0.7-0.2l0.5-0.5l0.6-0.9l0.8,0.2l0.1,0.1
			C438.1,326.5,441,323.4,443.3,319.9z"/>
		<polygon fill="#FFFFFF" points="444.3,293.8 432.5,298 444.3,302.2 439,313.5 450.2,308.1 454.4,319.8 458.6,308.1 469.9,313.4
			464.5,302.2 476.2,298 464.5,293.8 469.8,282.5 458.6,287.9 454.4,276.2 450.2,287.9 438.9,282.6 		"/>
	</g>
	<path fill="none" stroke="#999999" stroke-width="0.25" stroke-linecap="round" stroke-linejoin="round" d="M275.5,236.5l1.9,0.7
		l0.8-1.6l-0.6-2l-2.1-0.5l-0.8,0.6l-0.2,1l0.3,1.1L275.5,236.5z M288.3,240.3l-1.5-1.3l-0.2,0l-0.2,0l-0.2,0.1l-0.2,0.2l0.5,1.6
		l1.2,0.2L288.3,240.3z M563.2,278.4l-0.7-0.6L562,277l-0.1-1.5l-0.4-0.4l-0.8,0.3l-0.7-0.3l0,1.7l1.7,2.4l-0.3,1.7l1.1,0.1l0.8-0.2
		l0.4-0.5l-0.1-0.8L563.2,278.4z M575.8,285.9l-0.8-0.8l-0.5,0l-0.5,0.4l-0.5,0.2l-0.7-0.5l-0.1,0.9l0.5,1l0.8,0.7l0.7-0.2l1,0.3
		l0.4-0.7L575.8,285.9z M331.1,372.9l-1.1-2.2l-1.4-2l-1.1-1.8l-0.5-1.8l0.3-1.7l1.3-1.7l0.4-0.5l0.1-0.5l-0.1-0.5l-0.4-0.5l-1.1-1
		l-3.8-1.9l-1.3-1l-1-1.1l-1.1-0.9l-3-0.8l-0.4-1l0.3-1.4l1.8-2.9l0.2-1.1l-0.5-3.1v0l0.2-1.7l0-1.2l-0.5-0.9l-1.2-0.9l-1.5-0.6
		l-1.2,0l-6.8,1.7l-1.4,0.6l-4.3,2.7l-0.6,0.2l-0.6,0.3l-0.6,0.1l-0.6-0.1l-0.6-0.3l-1.7-1.7l-0.9-0.5L294,341l-0.8-0.3l-0.5-0.8
		l-0.6-1.4l-1.6-2.3l-1.4,0.5l-1.5,1.4l-2,0.5l-1-0.7l-0.2-1l0.5-2.5l0.1-1.6l-0.2-1.3l-0.6-1.1l-3.9-5l-1.8-0.9l-2,0.7l-2,1.5
		l-1.7,0.9l-1.8,0.4l-2.3,0l-2.5,0.4l-1.5,0.7l0.5,0.9l0.6,2.6l0.6,0.9l0.1,0.2l1,0.6l1.1,0.2l1.2,0l-0.2,0.3l-0.2,0.2l1.1,0.8
		l0.6,1.5l1.6,6.6l0.7,1.4l1.1,1l-0.4,0.8l0.2,0.5l1.3,1l0.3,0l0.6,0l0.4,0.1l0.2,0.3l0.1,0.3l0.2,0.2l1.9,1.3l0.3,0.4l0.2,0.5
		l0.4,0.7l0.5,0.6l0.5,0.3l0.4,0.7l1.3,2.9l0.4,0.7l0.4,0.7l0.6,3.4l0.3,1l1.4-0.4l5.5,1.8l0.1-0.1l0.4-0.3l0.5-0.2l0.5,0.1l0.1,0.4
		l-0.1,0.7v0.6l0.5,0.3l0.8,0.1l0.7,0.4l0.3,0.7l-0.5,1l0.4,0.7l0.5,0.4l0.5,0.3l0.5,0.5l0.2,0.5l0.4,1.5l0.3,0.6l0.5,0.4l1.3,0.6
		l0.2,0.5l-0.1,0.7l-0.2,0.6l-0.2,0.6l0.1,0.7l0.6,0.7l1.1,0.8l1.2,0.6l1.5,0.4l1.1,0.6l0.7,0.1l1.5,0.1l3,0.7l4.8,0l4,1.6l11.2,2.4
		l3.5,1.6l3.1,0.8l0.5-0.1l-3.1-5.9L331.1,372.9z M562.8,289.5l-0.4-0.6l-0.5-5.7l-0.5-1.4l-0.8-1.4l-1-1.1l-1.1-0.4l-1.1-0.7
		l-0.8-1.5l-0.6-1.6l-0.6-1l-0.9-0.5l-4.8-1l-1.1-0.6l-1-0.9l-0.9-1.2l-0.2-0.5l-0.2-0.5l-0.2-0.5l-0.4-0.4l-6.1-0.2l-1.3,0.2
		l-3,1.2l-1,0.2l-1.3-0.1l-2.3-0.7l-2.7-0.4l-1-0.5l-1.9-1.7l-0.8-0.5l-1.1-0.3l-2.3-0.1l-0.7-0.3l-1.1-0.8l-0.9-0.9l-0.4-0.7
		l-0.2-0.4l-0.7-0.9l-0.2-0.4l-0.1-0.8l0.1-0.7l0.3-1.4l0.9-2.6l0.2-1.5l-0.6-0.7l-1.1-0.6l-0.9-1.2l-1-0.9l-1.2,0.3l-2.4-1.5
		l-1.1-1l-0.5-1.1l-0.5-0.8l-6.4-7.2l-2.5-4.2l-0.9-5l-0.4-0.8l-0.6-0.5l-0.3-1.3L497,221l-0.3-1.5l-0.7-1.3l-0.8-1.1l-3.5-7.4
		l-0.8-1.2l-0.4-0.3l-1.3-0.4l-0.3-0.3l-0.2-0.4l-1.2-1.8l-0.4-0.9l-0.7-1.1l-0.9-0.9l-1.1-0.4l-2-4.4l-3.6-4.1l-0.3-1.7l-0.7-1.1
		l-1.8-1.8l-4.7-6.5l-1.9-1.7l-1.7-1l-0.6-0.5l-2.6,4.1l-4,5.2l-2.2,6.2l-1.1,2l-1.2,1.3l-4.6,2.9l-2.8,2.4L447,204l-6.1,1.2
		l-1.8,1.1l-1,2l-1.8,5.1l-1.2,0.7l-1.4-0.2l-0.6,0.6l-0.2,1.1l-0.5,1.3l-0.8,0.9l-0.7,0.5l-0.5,0.7l-0.2,1.5l0.2,1.4l0.3,0.9
		l-0.2,0.7l-1.2,0.8l-2.3,0.7l-4.5,0.4l-1-0.2l-4.4-2.2l-1.1-0.1l-1,0.4l-1.9,1.3l-1.1,0l-1-0.8l-1.5-2.1l-1.2-0.4l-5.5-0.5
		l-1.7-0.6l-4-2.4l-0.9-0.9l-0.5-1.6l0.1-3.7l-0.2-1.7l-0.4-0.8l-1.6-2.1l-0.3-0.7l-0.2-0.7l-0.3-0.6l-0.5-0.6l-0.9-0.7l-0.4-1
		l-0.2-1.2l-0.4-1.2l-0.8-1l-1-0.3l-1,0.2l-1,0.4l-2.2,0.3l-0.8-1.3l-0.5-2.1l-1.3-2.1l-2.6-2.3l-0.7-1l-0.2-0.5l-0.3-1.3l-0.2-0.4
		l-0.6-0.3l-1.4-0.2l-0.7-0.2l-0.9-0.6l-3.5-3.2l-0.5-0.8l-0.3-1l-0.5-2.8l-0.2-0.8l-0.4,0l-0.9,0.9l-1,0.7l-2.2,0.4l-1.1,0.4
		l-1.7,1.5l-0.9,0.6l-1,0l-0.9-0.8l-0.3-1.2l0.2-2.9l-0.3-1.3l-0.9-0.6l-2.5-0.3l-1.4,0.1l-1.1-0.3l-2,4.2l-1.1,1.8l-2.3,2.8
		l-0.8,0.7l-0.9,0.4l-1.1,0.1l-2.5-0.6l-1.2,0.1l-1,1.1l-0.5,2.4l0,3.6l0.7,3.2l1.4,1.2l0.5-0.4l0.3-0.7l0.4-0.5l0.7,0l0.1,0.4
		l1.2,2.3l0.5,3.3l0.5,1.5l0.9,1.2l2.8,1.9l0.6,0.3l1.1,0.3l2.5,2.3l5.2,2.2l2.6,1.6l0.8,2l0.8-0.3l0.4,0.3l0.4,0.6l1,1.2l1.7,2.6
		l0.3,1l-0.2,0.1l-0.4-0.1l-0.5,0.6l-0.1,0.5l-0.1,1.2l-0.1,0.5l-0.3,0.5l-0.7,0.7l-0.3,0.4l-0.5,1.9l-0.3,2.4l-0.4,2.3l-1,1.4
		l-1,0.2l-1-0.3l-1-0.1l-1.1,0.7l-0.6,1.1l-0.3,1.1l-0.5,0.7l-1.2,0l-0.9-0.6l-1.5-2l-0.9-0.8l-3.2-1l-1.1-0.7l-3.1-2.8l-1.5-1.9
		L342,225l-1-0.3l-4,0l-1.2,0.3l-2.8,1.8l-1.1,0.4l-1.3,0.1l-2.6-0.3l-7.9-2.9l-3.7-2.3l-2.2-1.9l-1.3-2l1.2-1.5l1.2-0.4l0.8-0.4
		l-0.1-0.4l-1.2-0.5l-3.5-0.7l-7.7-3l-1.7-1.6l-0.8-0.9l-0.8-0.1l-1.8,0.5l-1.1,0.1l-0.8-0.2l-3.6-1.8l-1.7-0.1l-1.7,0.6l-13.2,10.9
		l2,4.2l-0.5,1.5l0.3,0.9l0.9,0.4h3.5l0.9,0.3l2.8,2.2l0.7,1l0.1,1.1l-1.8,1.3l-5.3-0.2l-0.6,2.3l0.7,1.2l1.2,0.8l1,0.1l0.3-0.8
		l0.2-1.3l0.9,0.5l1.7,1.8l1.1,0.7l0.8,0.9l0.9,0.7l2.5,0.3l2.3,1l1.2,0.2l3-1.5l1.5-0.2l0.3,1.7l-0.5,2.3l0.7,0.7l1.3,0.3l1.4,1.2
		l2.3,2.9l0.8,0.9l1.1,0.4l1.3,0.1l0.9,0.5l0.1,1.5l-1,2.9l-1.4,1.6l-6.3,3l-2.1,1.7l-1.3,2.4v3l0.8,1.6l1,1l1.1,0.8l0.9,1.2
		l0.2,0.7l0.1,1.5l0.2,0.7l0.5,0.5l1.1,0.7l0.4,0.8l1.7,3.7l3.2,2.9l12.4,7l2.3,2.5l1.1,0.1l1.1-0.3l1.2-0.1l0.8,0.4l0.8,0.7
		l1.4,1.8l0.1,0.4l0,0.4l0,0.4l-1,4.5l-0.7,1.7l-1,1.4l-1.2,1l-0.2,0.5l-0.6,3.2l-0.4,0.7l-0.7,0.6l-3.7,0.4l-8.8-1.5l-3.4,2.2
		l0.2,1.6l1.7,0.8l5.6,0.6l1.4,0.7l1.1,1.3l2.8,5.7l2.4,2.4l2.9,1.5l3.4,1l1.5,1.4l2.1,4.2l1.7,1.3l2,0.6l0.9,0.5l0.8,0.9l1.3,2.4
		l0.8,0.8l1.2,0.4l1.8-0.4l3.6-1.9l1.8,0.1l0.8,0.6l1.3,1.7l0.8,0.6l1.1,0.2l3.4-0.3l0.9,0.2l0.9,0.6l0.7,0.9l0.2,1.1l-0.5,0.9
		l-0.8,0.5l-0.6,0.6l0,1.1l0.4,0.7l0,0.6l-0.4,0.5l-0.6,0.3l-3.9,0.7l-1.7,1l-0.7,1.8l0.7,2.2l1.8,1.4l3.8,1.7l0.9,0.7l0.4,1
		l0.3,1.1l0.5,1l1.3,1.4l2.3,1.6l0.4,0.3l0.4,0.4l0.3,0.7l-0.5,0.2l-1.1,0l-2.5,1.8l-0.7,0.1l-3.2-1.6l-1.9-0.2l-1.2,1.2l0.1,2.1
		l1.4,1.4l1.8,1l1.3,1l0.7,2.2l0.3,1.9l-0.2,1.9l-0.7,2.2l0,0.2l-0.1,0.2l-0.2,0.8l-0.1,0.9l0.1,0.8l0.2,0.8l1.8,3.9l1,0l1.2-0.5
		l0.9-0.5l0.8-0.7l0.7-0.8l0.6-1l1.5-3.1l0.7-0.9l1-0.8l3.1-1.6l0.9-0.8l0.9-2.1l0.6-1l0.4-0.3l0.9-0.5l0.4-0.3l0.3-0.4l1.4-2.4
		l0.7-0.8l0.8-0.7l0.9-0.4l0.8,0l1.5,0.7l0.8,0.2l0.7-0.1l3.5-2l0.6-0.7l0.3-0.5l0.9-2.6l1.9-3.1l0.2-0.7l0.5-0.6l2.5-1.5l5.3-2.1
		l2.2-1.3l1.8-1.8l2.7-3.4l1.7-1.5l2.2-1.2l3.7-1.3l1.2-0.1l0.7-0.5l2.8-2.9l7.4-4.1l3.1-3.2l1-0.7l1.3-0.3l4,0.1l0.7-0.2l0.5-0.5
		l0.6-0.9l0.8,0.2l1,0.7l3.3,3l8.9,10.7l3.6,3.4l1.5,2l1.2,2.5l-1.9,0.6l-2.8,1.9l-3.3,0.7l-1.8,0.9l-1.5,1.5l-1,1.9l-0.1,2.4
		l0.7,1.8l1.3,1.8l3,2.9l3,1.3l0.8,0.8l1.6,3.4l0.3,0.9l0,1l-0.3,0.9l-0.4,0.9l-0.5,0.7h0v0l-2.2,1.4l-9.8,1.7l-0.2,0.4l0,0.5
		l-0.2,0.4l-2.8,1.7l-0.5,0.8l0.1,2.8l1.1,1.9l3.5,2.7l7,3.5l0.7,0.5l0.4,1.6l-0.2,1.3l0.1,1.2l2.6,2.1l0.8,1.2l1,0.9l1.6,0l2.7-1.3
		h1.3l0.6,1.5l0.4,1.8l0.7,0.9l0.9,0.8l0.9,1.4l0.9,0.9l0.8,1.1l2,2.5l1.5,2.5l1.7,1.6l2.7,0.2l1.3-0.4l1.5-0.6l1.3-0.9l1.1-1.1
		l1.2-0.6h1.7l3.5,0.7l-0.6-21.9l-1.3-3.2l-0.2-1.1l-0.1-1.1l0-2.4l1.9,0.5l1.6-2l1.2-2.9l1.4-4.9l0.2-1.7l-0.9-1.5l-0.2-1.7
		l0.1-3.2l0.1-0.1h0.3l0.2-0.1l0.1-0.5l0-0.7l0-0.4l0.4-1l0.2-0.7l0.3-0.6l0.6-0.2l2.3-0.1l1,0.3l0.9,0.8l0.2,0.8l0.3,2.8v0.6
		l2.5,0.1l1.1,0.5l0.6,1.3l0,1.4l-0.4,1.4l-0.7,1l-0.8,0.4l-2.4,0.5l-0.5,0.5l-0.1,0.5l0,0.5l-0.2,0.8l1.5,1.2l2.1-0.8l4-2.8
		l0.5-1.2l0.2-1.5l0.2-2.4l0.2-1.1l0.8-2.2l0.4-2.1l0-7.5l0.5-2.2l1.4-1.8l1.8-0.7l2.7,1.8l0.7,1l0.8,0.8l1.2,0.3v-0.5l-0.8-0.6
		l-0.7-1l-0.4-1.1l-0.2-1h0.3l0.3,0.6l0.4,0.5l0.5,0.4l0.7,0.3l-0.4-0.8l-0.1-0.7l0.3-2.3l0.2-0.2l0-0.3l-0.4-0.9l-0.6-0.8l-5-4.5
		l-0.5-1.3l0-1.9l0.2-1.4l0.4-1.6l0.5-1.5l0.6-1.1l-0.1-1.2l1-1.7l2.5-3l1.4-0.8l0.7-0.6l0.1-0.6l-1.2-1.7l-0.3-0.9l0.2-0.9
		l-0.3-0.5l0-0.4l0.3-1l0.9-0.6l0.2-0.3l0-0.5l-0.1-0.4l-0.2-0.4l-0.1-0.4l0.1-0.7l0.3-0.4l0.4-0.3l0.5-0.5l0.2-0.8l-0.2-0.8
		l-0.6-1.5l-0.3-1.4l0-0.6l0.2-0.8l0.4-0.7l0.4-0.3l0.4-0.2l0.9-0.9l0.5-0.3l0.3-0.4l-0.2-0.7l-0.4-0.5l-0.8-0.6l-0.5-0.5l-0.7-1.4
		l-0.1-1.4l0.5-1.1l2.9-1.1l0-0.7l-0.3-1.9l0.1-1.5l0.6-0.8l0.9-0.6l2-2.3l1-0.7l4.1-1.5l3.1-1.8l3.5-0.8l2.2-1.1l1.5-1.5l-0.3-1.7
		l1.8-1.6l1.1-0.6l1.4,0.8l1.4,0.2l0.5,0.2l0.4,0.5l0.7,1.1l0.4,0.3h1.1l1.8-1.5l0.9-0.4h2l0.5-0.1l0.7-0.3l0.6-0.1l1.1,0.1l2,0.7
		l2.4,0.3l1.2,0.5l1.1,0.6l2.6,2.1l1.3,1.5l1.1,1.7l1,2l0.2-1l-0.3-1.4L562.8,289.5z M305.7,265.3l-1.8,1.4l-1.8-0.5l-0.3-0.7
		l-0.1-0.7l0.1-0.7l0.3-0.7l0.7-0.5l0.7-0.2l0.8,0l0.8,0.1l1.4,0.8L305.7,265.3z"/>
</g>

</svg>
