<?xml version="1.0" encoding="utf-8"?>

<svg version="1.2" baseProfile="tiny" xmlns="http://www.w3.org/2000/svg" xmlns:xlink="http://www.w3.org/1999/xlink" x="0px"
	 y="0px" viewBox="264.7 146.9 310.3 300" xml:space="preserve">

<g id="Bosnia_and_Herzegovina">
	<g>
		<polygon fill="#002395" points="283.6,216.9 283.7,217.2 283.8,217 		"/>
		<path fill="#002395" d="M312.6,179l-2.9-0.7l-2.2-0.9l-0.8-0.4l-0.8-0.5l-1.5-0.9l-1.5-1.5l-5.8-5.8l-1.4-1.9l-1-2.6L294,162
			l-0.3-0.5l-0.9-1.5l-1-0.8l-1.7-0.4l-0.2-0.1l-0.5-0.4v-0.5l0.3-0.8v-1l-0.7-1l-1-0.5v0.2h-0.8l-1.8,0.4l-5-0.2l-2.6-0.1l-3.4,0.6
			l-0.9,0.1l-0.6,0.5l-2.1,1.9l-0.9,2.4l-0.1,0.9l0.2,3.9h13.8L268,176.6l0.2,0.6l0.7,2.6l-0.3,2l-0.6,1.1l5.1,15.6l-3.9-2.8
			l0.3,0.7v0.1l-0.4,2l-1.4,0.6l-1.6,0.5l-1.2,1.5l0.1,1l0.1,0.8l0.9,1.9l2,3.3l0.4,0.6l0.3,0.2l1.5,1.1l0.5,0.7l0.2,0.3l0.1,0.3
			l0.4,0.9l0.6,0.6l0.2,0.1l1.2-0.2l0.7-0.2l1.4-0.1l0.7-0.2l0.4-0.5l-10.1-7.4h21.6l6.7-20.6l6.7,20.6h21.6L305.4,217l6.7,20.6
			l-17.5-12.7l-6.5,4.7l-0.2,0.6l1.6,1.8h0.2l1.5,0.1l1.9-0.8l1-0.4l0.8,0.1l0.9,0.1l0.9,1.2l0.5,1.9l0.4,2.2l1.9,5.5l0.5,2.1v1.7
			l-0.1,0.3l-0.3,0.6L299,247h-0.1l-0.6,0.5v0.9l0.3-0.3h0.9l1.5,0.4l0.3,0.2l1.3,0.9l0.2,0.1l0.7,0.7l0.2,0.8l0.1,0.3l-0.1,0.5
			l-0.1,1.3l-0.1,0.3l-0.2,0.7L303,255l-0.5,1.1l-0.2,1.1v1.7l0.7,3.5l0.8,2.6l0.7,2.2l1.3,1.9l3.5,3.7l0.7,1.3l0.4,0.8l1.8,4.3
			l0.9,1.5l0.3,0.5l1.5,1.5l0.3,0.2l0.6,0.5l0.8,0.5h0.7l2.1-0.2l0.6,0.2l0.3,0.1l0.8,1.3l0.2,0.4l0.2,0.6l0.2,1.2l0.5,1l0.2,0.3
			l0.4,0.1l3.1,1.1l0.3,0.2l1.1,0.8l1.2,1.5l0.1,0.2l3,4.4l2.1,2.1l1.8,1.8l1.7,2.4l0.8,1.2l3.3,3.1l0.8,1l0.3,0.6l0.1,0.8l0.1,1
			l0.3,1.1l0.4,1.2l1.1,1.8l5.6,4.5l3.3,2.6l7.5,7.6l5.1,5.3l1.1,1.2l2.8,3.3l4.3,3.8l4.6,2.6l7.7,1.2l0.8,0.5l1.7,1.2l0.2,0.5
			l1,2.3l-0.4,2.4l-1.1,6.8l1.2,3.5l0.6,2l3.1,4.7l2.6,2.4l0.7,0.6l1.6,1l0.8,0.7l0.6,1.1l0.3,1.1l0.3,1.1l0.9,2.1l0.5,0.7l0.7,0.8
			l11.6,7.6l3,3.6l0.2,0.3l1.9,4.4l0.6,1.4l0.2,2.4v0.6l-1,0.7l-1.3,0.9l-4.3,0.9l1.8,1l1.2,1.2l-1.3-0.4l-2.2-1h-1.4l7.7,4.7l1-1.5
			l0.6-0.6l0.5-0.5l1.1-0.3l0.7-0.2l1.7,0.3l3.3,1.3l0.7,0.1l1,0.2l0.7-0.3l0.6-0.6h0.7l0.2,0.3l0.7,0.9l0.1,0.8v0.3l-0.1,2.2v0.4
			l0.2,1.2l1,1.5l1.5,2.4l0.9,0.6l2.8,0.8l1.9,1.5l2.8,3.2l0.6,0.7l1.7,1.4l0.2,0.2l0.7,0.5l3.5,2.3l13.9,9.4l0.5,0.2l2.1,1.2
			l4.3,1.5h0.6l1.5-0.1l0.9,0.7l0.3,0.4l0.9,1.3l0.4,0.6l0.1,0.1l1.2,0.7l2.2,0.3l0.6,0.1l0.5,0.2l0.8,0.3l0.8-0.7l0.7-0.3h0.5
			l0.4,0.1l0.9,0.5l0.8-0.1l0.3-0.7l-0.2-1l-0.4-0.8l-0.2-0.3l1.1-0.6l1.3-0.7l1.7-1.7l0.9-2.2v-3.1l-0.8-3l-1.3-1.8l-1.6-1.7
			l-0.7-1.2l-1.3-2.2l-11,8l6.7-20.6l-17.5-12.7h20l0-0.1l2.3-2.2l5.9-18.2l5.7,17.4l0.9,0.1v-0.4l-1.4-7.9v-2.8l0.7-3.5l1.3-2.7
			l1.4-2.1l2-2.8l-0.3-0.1l-1.6-0.8l0.5-0.7l0.7-1.1l3.4-2.5L313,178.9L312.6,179z M451.3,340.4L458,361h21.6l-17.5,12.7l6.7,20.6
			l-17.5-12.7l-17.5,12.7l6.7-20.6L423,361h21.6L451.3,340.4z M412.2,301.2l6.7,20.6h21.6L423,334.5l6.7,20.6l-17.5-12.7l-17.5,12.7
			l6.7-20.6l-17.5-12.7h21.6L412.2,301.2z M373,262.1l6.7,20.6h21.6l-17.5,12.7l6.7,20.6L373,303.2l-17.5,12.7l6.7-20.6l-17.5-12.7
			h21.6L373,262.1z M333.8,222.9l6.7,20.6h21.6l-17.5,12.7l6.7,20.6L333.8,264l-17.5,12.7l6.7-20.6l-17.5-12.7h21.6L333.8,222.9z"/>
		<polygon fill="#FECB00" points="573.4,283.3 572.7,283.6 572.2,284.3 571.9,284.5 571.1,283.9 569.8,282.3 567.2,280.9
			565.3,278.1 564,276.9 563.5,276.2 563.3,274.3 562.6,273.4 562.1,273.4 561.2,274.3 560.7,274.5 560.2,274 559.4,273.3
			555.9,270.7 554.4,269.1 553.9,267.7 553.7,265.5 552.7,263.1 551.3,261.1 550,259.9 549.1,259.7 546.6,260.3 545.5,260.3
			544.8,260.1 543.2,259.3 539.8,258.5 538.2,257.8 536.8,256 535,252.2 534.4,250 534.3,247.9 535,245.6 536.1,244.2 537,242.5
			537.2,239.5 536,234.6 536.2,232.8 539,231.9 539.6,231.4 540.1,230.6 540.5,229.7 540.7,228.9 540.6,227.1 540.8,226.4
			541.2,225.9 542.1,225.4 542.5,225 546.2,218.6 547.4,215.3 548,214.2 548.8,213.3 550.4,212 551.1,210.8 551.4,208.9
			554.2,195.4 554.5,194.9 554.9,194.8 555.2,194.5 555.1,193.3 554.9,192.4 554.6,191.8 554.1,191.3 553.4,190.5 553.2,190.6
			552.4,190.7 551.6,190.4 550,188.9 549.3,188.9 548.6,189.2 547.8,189.3 544.3,188.5 543.5,188.7 542.1,189.3 541.3,189.3
			540.9,188.8 540.6,187.9 540.1,187.2 539.1,187.4 532,192.6 530.7,193.1 529.1,193.3 526.6,194.1 525.8,194.3 516.6,194.5
			514.1,193.7 514.1,193.6 513,193 513.1,192.6 512,191.8 511.3,191.3 509.8,189.6 508.6,188.4 507.8,185.3 507.8,185.2 508,184.9
			508.4,184.1 509.5,183.3 510.2,182.8 510.3,182 510.4,181.7 510.4,181.5 510.3,181.3 510.3,181.1 509.9,180.7 509.8,180.4
			509.7,180.1 509.7,179.2 509.5,178.6 509.3,178.1 509,177.9 509,177.8 508.7,177.7 508.4,177.6 507.7,177.5 506.2,177.4
			505.3,177 505,176.6 504.3,175.8 501.3,169.8 500.9,169.3 500.7,169.2 500.4,169.1 499.8,169.1 499.4,169.5 499.3,169.8
			499.2,170.2 499.1,170.6 499,170.9 498.7,171.4 498,171.8 497.3,171.5 497.1,171.2 496.8,170.8 496.7,170.5 496.4,169.9
			496.2,169.5 495.8,168.5 495.3,167.8 495.2,167.6 495,167.5 494.6,167.4 494.1,167.4 493,168.1 492.4,168.3 491.8,168.3
			491.3,168.2 490.5,168 489.9,168 488.7,168.5 488.7,169.5 489,170.4 489.1,170.9 489.2,172.3 489.2,172.5 487.3,172.5
			485.2,171.7 484.5,171.2 484.4,172.2 484.1,172.1 484.2,171.5 483.6,171.1 483,170.7 482.1,169.9 482.3,169.4 480.6,167.5
			479.7,166.8 479.2,166.4 478.7,166.2 477.6,165.7 472,165.2 470.8,164.6 468.3,162.8 467.3,162 465.4,161.2 463.5,161.6
			463.4,161.6 462.5,162.7 462.3,164.1 462.2,165.2 462.2,165.6 461.7,166.8 461.1,167.2 460.4,167.7 460.1,167.8 458.7,168.1
			457.9,168.1 457.6,168.2 456.6,168.2 455.1,167.9 453.3,167.1 449.7,163.8 448.9,163.1 448.7,163 447.6,162.4 446.3,162.4
			445.1,163 440.3,168.8 439,170 438.3,170.4 436.1,170.8 435.1,171.2 433.7,171.8 433.1,171.9 433,171.9 432.3,171.6 431.4,171.2
			430.3,170.2 430,169.9 425.6,164.1 423.4,162 421.1,160.7 420.2,160.7 418.5,160.6 416.8,161.5 413.9,164.6 413.8,164.6
			412.2,165.6 411.4,165.7 409.6,165.5 405.6,166 405.1,166.2 405.5,165.5 406.2,163.2 404.8,163.9 404.3,164.2 403.4,164.4
			402.4,164 402.5,163.8 402.9,163.3 403.1,162.7 403,162 402.5,161.2 401.9,160.8 401.6,161.3 401.4,162 401.3,162.3 401.3,162.4
			401.2,162.4 398.8,163.1 397.9,163.2 397.3,163.3 396.8,163 396.2,162.6 395.5,162 392.9,160.3 392.4,160.1 391.4,159.7
			388.3,157.7 386.8,161 386.5,161.5 386.1,161.5 382.7,161.8 381.9,162.2 381.8,162.3 377.5,160.3 374.9,159.1 372.5,157.4
			371.4,156.6 369.8,153.2 369.7,153.4 369.5,153.6 368.9,154 368.1,154.4 367.7,154.8 367.9,154.2 368,153.8 368,153.1
			367.9,152.4 367.7,151.5 366.8,152.9 366.5,152.7 365.9,152.4 365,151.2 364.4,151 363.7,150.8 363.9,151 364.1,151.5
			364.3,152.3 362.6,152.5 362.5,152.3 361.6,151.8 361.6,149.8 361.2,148.5 360.9,147.5 360.5,147.1 360.3,146.9 358.1,148.8
			358,148.9 357.8,149.3 357.2,150.2 356.4,151.2 356.2,151.3 355.7,151.6 355.6,151.9 355.3,152.8 355.1,153 354.5,153.4
			354.3,153.5 353.7,153.7 353.5,154 352.9,154.6 352.6,155.5 352.5,155.9 352.5,157.7 351.6,158.4 351.5,158.5 350.7,158.6
			349.5,158.8 341.7,156.4 333.6,154 331.4,154 329,153.9 325.3,156.5 322.7,162.3 321.6,164 320.8,164.6 318.7,165.3 317.9,165.8
			317.6,166.4 317.4,166.8 317.4,167.5 317.6,168.2 317.4,169.5 317.3,169.9 317.1,170.5 316.7,171.3 315.5,173.5 314.8,176.1
			314.7,176.5 314.7,176.7 315,177.1 314.6,178.5 313,178.9 503.8,369.8 508.7,366.2 510.6,364.8 511.1,364.6 512.6,364.1
			512.5,364 512.2,363.6 511.9,362.6 511.6,362.1 512.8,361.5 513.1,361.4 514.3,361.3 517.7,361 518.6,361.3 519.6,361.6
			521.8,363.1 522.4,363.9 522.4,365.4 522.5,365.8 522.6,366.3 523.4,367.5 524.9,369.6 525,369.8 525.2,370.3 525.6,370
			526,369.6 526.7,368.7 527.2,367.7 527.8,366.9 528.7,366.4 530.8,366.3 530.7,365.9 531.1,365.6 530.2,363.9 528.7,361
			527.7,358.3 526.3,354.5 524,351.4 523.6,350.9 523.4,350.8 523,350.5 521.3,351 521.3,350.5 521.5,349.8 521.6,349.6
			521.6,348.9 521,347.9 520.6,347.2 520.4,347.1 520,346.9 518.8,346.6 518.5,346.4 518.1,346 518.1,345.1 518.1,344.9
			518.4,344.2 518.8,343.9 519.3,343.6 519.7,343.4 520.7,342.9 522.6,340.8 523.8,339.9 525.6,339.7 526.1,340.2 526.7,340.8
			527,341.4 527.7,342.4 527.9,342.8 528.6,343.8 529.9,344.3 531.6,344.3 533.2,343.7 533.9,342.9 535.3,341.1 537.3,340.9
			541.1,341.5 542.9,341.5 543.9,339.6 544.7,337.2 545.8,335.4 546.7,335.1 548.7,335.5 549.6,335.5 550.5,334.9 552.4,333.4
			553.2,333.2 554.5,333.9 555.8,335.7 556.9,337.8 557.6,339.6 558.2,340.6 558.9,339.7 559.9,337.3 560.9,337.3 563.9,338.5
			564.5,338.1 564.7,337.6 564.5,337.1 563.9,336.6 563.5,335.4 563.4,333.9 563.6,332.3 563.9,331 565.9,329 565.8,326.1
			563.9,320 562.3,316.4 554.2,307.6 549.9,300.7 547.5,297.5 544.8,295.4 543.9,294.8 544.8,293.9 545,293.1 544.6,291.7
			544.6,290.9 545,289.9 545.7,289.3 547.3,288.8 548.5,288.8 549.5,289.2 551.5,290.6 553.6,292.5 554.6,293.1 555.8,293
			557,292.7 561.2,292.4 565.8,292.8 567.7,292.7 569.6,292 572.9,289.6 574.3,288.1 575,286.3 574.4,284.3 		"/>
		<polygon fill="#FFFFFF" points="362.2,295.4 355.5,315.9 373,303.2 390.5,315.9 383.8,295.4 401.3,282.6 379.7,282.6 373,262.1
			366.3,282.6 344.7,282.6 		"/>
		<polygon fill="#FFFFFF" points="401.3,334.5 394.7,355.1 412.2,342.4 429.7,355.1 423,334.5 440.5,321.8 418.8,321.8 412.2,301.2
			405.5,321.8 383.8,321.8 		"/>
		<polygon fill="#FFFFFF" points="270,165.1 270.1,167.8 269.8,169.5 268.8,172 267.9,174.3 267.9,176.4 268,176.6 283.8,165.1
			"/>
		<polygon fill="#FFFFFF" points="440.5,373.7 433.8,394.3 451.3,381.6 468.8,394.3 462.2,373.7 479.7,361 458,361 451.3,340.4
			444.7,361 423,361 		"/>
		<polygon fill="#FFFFFF" points="323,256.2 316.3,276.7 333.8,264 351.3,276.7 344.6,256.2 362.1,243.5 340.5,243.5 333.8,222.9
			327.1,243.5 305.5,243.5 		"/>
		<polygon fill="#FFFFFF" points="484.6,397.8 484.7,397.8 488.5,396.9 489.2,396.8 493.9,396.7 496.2,397 490.5,379.6 		"/>
		<polygon fill="#FFFFFF" points="267.9,182.8 266.5,185.1 265.9,187.1 266.1,188.8 266.2,190 267.3,192.3 268.6,194.3 269.1,195.6
			272.9,198.4 		"/>
		<polygon fill="#FFFFFF" points="479.7,412.9 473,433.5 484,425.5 483.4,424.4 482.5,422.3 482.3,421.8 482.1,421.1 481.6,419.2
			481.5,417.3 481.6,417.1 482.2,416.1 483.2,415.3 483.7,414.4 483.8,414.3 483.8,414.2 483.4,412.2 481.5,408.4 480.9,406.6
			480.8,406.3 480.8,404.4 482.2,400.2 462.2,400.2 		"/>
		<polygon fill="#FFFFFF" points="312.1,237.6 305.4,217 322.9,204.3 301.3,204.3 294.6,183.7 287.9,204.3 266.3,204.3 276.4,211.6
			276.6,211.4 277,210.4 277.6,209.7 278.6,209.7 279.1,210.3 279.4,211.3 279.6,212.2 279.6,212.5 279.8,213.2 279.9,213.5
			280.5,214.1 281.2,213.9 281.8,213.6 282.4,213.6 282.6,214 283.2,214.8 283.6,216.7 283.6,216.9 283.8,217 283.7,217.2
			283.8,217.6 283.9,217.7 284.9,219.1 285.2,219.3 285.7,219.7 286.4,219.9 286.7,220 287.8,220.2 288.6,220.3 289.6,220.8
			290.3,221.9 290.5,222.5 290.7,223.2 290.8,223.9 290.9,224.8 290.8,224.8 290.2,225.2 290.2,225.3 289.8,226.7 288.5,228.4
			288.1,229.6 294.6,224.8 		"/>
	</g>
	<polygon fill="none" stroke="#999999" stroke-width="0.25" stroke-linecap="round" stroke-linejoin="round" points="573.4,283.3
		572.7,283.6 572.2,284.3 571.9,284.5 571.1,283.9 569.8,282.3 567.2,280.9 565.3,278.1 564,276.9 563.5,276.2 563.3,274.3
		562.6,273.4 562.1,273.4 561.2,274.3 560.7,274.5 560.2,274 559.4,273.3 555.9,270.7 554.4,269.1 553.9,267.7 553.7,265.5
		552.7,263.1 551.3,261.1 550,259.9 549.1,259.7 546.6,260.3 545.5,260.3 544.8,260.1 543.2,259.3 539.8,258.5 538.2,257.8
		536.8,256 535,252.2 534.4,250 534.3,247.9 535,245.6 536.1,244.2 537,242.5 537.2,239.5 536,234.6 536.2,232.8 539,231.9
		539.6,231.4 540.1,230.6 540.5,229.7 540.7,228.9 540.6,227.1 540.8,226.4 541.2,225.9 542.1,225.4 542.5,225 546.2,218.6
		547.4,215.3 548,214.2 548.8,213.3 550.4,212 551.1,210.8 551.4,208.9 554.2,195.4 554.5,194.9 554.9,194.8 555.2,194.5
		555.1,193.3 554.9,192.4 554.6,191.8 554.1,191.3 553.4,190.5 553.2,190.6 552.4,190.7 551.6,190.4 550,188.9 549.3,188.9
		548.6,189.2 547.8,189.3 544.3,188.5 543.5,188.7 542.1,189.3 541.3,189.3 540.9,188.8 540.6,187.9 540.1,187.2 539.1,187.4
		532,192.6 530.7,193.1 529.1,193.3 526.6,194.1 525.8,194.3 516.6,194.5 514.1,193.7 514.1,193.6 513,193 513.1,192.6 512,191.8
		511.3,191.3 509.8,189.6 508.6,188.4 507.8,185.3 507.8,185.2 508,184.9 508.4,184.1 509.5,183.3 510.2,182.8 510.3,182
		510.4,181.7 510.4,181.5 510.3,181.3 510.3,181.1 509.9,180.7 509.8,180.4 509.7,180.1 509.7,179.2 509.5,178.6 509.3,178.1
		509,177.9 509,177.8 508.7,177.7 508.4,177.6 507.7,177.5 506.2,177.4 505.3,177 505,176.6 504.3,175.8 501.3,169.8 500.9,169.3
		500.7,169.2 500.4,169.1 499.8,169.1 499.4,169.5 499.3,169.8 499.2,170.2 499.1,170.6 499,170.9 498.7,171.4 498,171.8
		497.3,171.5 497.1,171.2 496.8,170.8 496.7,170.5 496.4,169.9 496.2,169.5 495.8,168.5 495.3,167.8 495.2,167.6 495,167.5
		494.6,167.4 494.1,167.4 493,168.1 492.4,168.3 491.8,168.3 491.3,168.2 490.5,168 489.9,168 488.7,168.5 488.7,169.5 489,170.4
		489.1,170.9 489.2,172.3 489.2,172.5 487.3,172.5 485.2,171.7 484.5,171.2 484.4,172.2 484.1,172.1 484.2,171.5 483.6,171.1
		483,170.7 482.1,169.9 482.3,169.4 480.6,167.5 479.7,166.8 479.2,166.4 478.7,166.2 477.6,165.7 472,165.2 470.8,164.6
		468.3,162.8 467.3,162 465.4,161.2 463.5,161.6 463.4,161.6 462.5,162.7 462.3,164.1 462.2,165.2 462.2,165.6 461.7,166.8
		461.1,167.2 460.4,167.7 460.1,167.8 458.7,168.1 457.9,168.1 457.6,168.2 456.6,168.2 455.1,167.9 453.3,167.1 449.7,163.8
		448.9,163.1 448.7,163 447.6,162.4 446.3,162.4 445.1,163 440.3,168.8 439,170 438.3,170.4 436.1,170.8 435.1,171.2 433.7,171.8
		433.1,171.9 433,171.9 432.3,171.6 431.4,171.2 430.3,170.2 430,169.9 425.6,164.1 423.4,162 421.1,160.7 420.2,160.7 418.5,160.6
		416.8,161.5 413.9,164.6 413.8,164.6 412.2,165.6 411.4,165.7 409.6,165.5 405.6,166 405.1,166.2 405.5,165.5 406.2,163.2
		404.8,163.9 404.3,164.2 403.4,164.4 402.4,164 402.5,163.8 402.9,163.3 403.1,162.7 403,162 402.5,161.2 401.9,160.8 401.6,161.3
		401.4,162 401.3,162.3 401.3,162.4 401.2,162.4 398.8,163.1 397.9,163.2 397.3,163.3 396.8,163 396.2,162.6 395.5,162 392.9,160.3
		392.4,160.1 391.4,159.7 388.3,157.7 386.8,161 386.5,161.5 386.1,161.5 382.7,161.8 381.9,162.2 381.8,162.3 377.5,160.3
		374.9,159.1 372.5,157.4 371.4,156.6 369.8,153.2 369.6,153.4 369.5,153.6 368.9,154 368.1,154.4 367.7,154.8 367.9,154.2
		368,153.8 368,153.1 367.9,152.4 367.7,151.5 366.8,152.9 366.5,152.7 365.9,152.4 365,151.2 364.4,151 363.7,150.8 363.9,151
		364.1,151.5 364.3,152.3 362.6,152.5 362.5,152.3 361.6,151.8 361.6,149.8 361.2,148.5 360.9,147.5 360.5,147.1 360.3,146.9
		358.1,148.8 358,148.9 357.8,149.3 357.2,150.2 356.4,151.2 356.2,151.3 355.7,151.6 355.6,151.9 355.3,152.8 355.1,153
		354.5,153.4 354.3,153.5 353.7,153.7 353.5,154 352.9,154.6 352.6,155.5 352.5,155.9 352.5,157.7 351.6,158.4 351.5,158.5
		350.7,158.6 349.5,158.8 341.7,156.4 333.6,154 331.4,154 329,153.9 325.3,156.5 322.7,162.3 321.6,164 320.8,164.6 318.7,165.3
		317.9,165.8 317.6,166.4 317.4,166.8 317.4,167.5 317.6,168.2 317.4,169.5 317.3,169.9 317.1,170.5 316.7,171.3 315.5,173.5
		314.8,176.1 314.7,176.5 314.7,176.7 315,177.1 314.6,178.5 312.6,179 309.7,178.3 307.5,177.4 306.7,177 305.9,176.5 304.4,175.6
		302.9,174.1 297.1,168.3 295.7,166.4 294.7,163.8 294,162 293.7,161.5 292.8,160 291.8,159.2 290.1,158.8 289.9,158.7 289.4,158.3
		289.4,157.8 289.7,157 289.7,156 289,155 288,154.5 288,154.7 287.2,154.7 285.4,155.1 280.4,154.9 277.8,154.8 274.4,155.4
		273.5,155.5 272.9,156 270.8,157.9 269.9,160.3 269.8,161.2 270.1,167.8 269.8,169.5 268.8,172 267.9,174.3 267.9,176.4
		268.1,177.1 268.8,179.7 268.5,181.7 266.5,185.1 265.9,187.1 266.1,188.8 266.2,190 267.3,192.3 268.6,194.3 269.3,196.3
		269.3,196.4 268.9,198.4 267.5,199 265.9,199.5 264.7,201 264.8,202 264.9,202.8 265.8,204.7 267.8,208 268.2,208.6 268.5,208.8
		270,209.9 270.5,210.6 270.7,210.9 270.8,211.2 271.2,212.1 271.8,212.7 272,212.8 273.2,212.6 273.9,212.4 275.3,212.3 276,212.1
		276.6,211.4 277,210.4 277.6,209.7 278.6,209.7 279.1,210.3 279.4,211.3 279.6,212.2 279.6,212.5 279.8,213.2 279.9,213.5
		280.5,214.1 281.2,213.9 281.8,213.6 282.4,213.6 282.6,214 283.2,214.8 283.6,216.7 283.8,217.6 283.9,217.7 284.9,219.1
		285.2,219.3 285.7,219.7 286.4,219.9 286.7,220 287.8,220.2 288.6,220.3 289.6,220.8 290.3,221.9 290.5,222.5 290.7,223.2
		290.8,223.9 290.9,224.8 290.8,224.8 290.2,225.2 290.2,225.3 289.8,226.7 288.5,228.4 287.9,230.2 289.5,232 289.7,232
		291.2,232.1 293.1,231.3 294.1,230.9 294.9,231 295.8,231.1 296.7,232.3 297.2,234.2 297.6,236.4 299.5,241.9 300,244 300,245.7
		299.9,246 299.6,246.6 299,247 298.9,247 298.3,247.5 298.3,248.4 298.6,248.1 299.5,248.1 301,248.5 301.3,248.7 302.6,249.6
		302.8,249.7 303.5,250.4 303.7,251.2 303.8,251.5 303.7,252 303.6,253.3 303.5,253.6 303.3,254.3 303,255 302.5,256.1 302.3,257.2
		302.3,258.9 303,262.4 303.8,265 304.5,267.2 305.8,269.1 309.3,272.8 310,274 310.4,274.9 312.2,279.1 313.1,280.6 313.4,281.2
		314.9,282.6 315.2,282.8 315.8,283.3 316.6,283.8 317.3,283.8 319.4,283.6 320,283.8 320.3,283.9 321.1,285.3 321.3,285.6
		321.5,286.2 321.7,287.4 322.2,288.5 322.4,288.7 322.8,288.8 325.9,289.9 326.2,290.1 327.3,290.9 328.5,292.4 328.6,292.6
		331.6,297 333.7,299.1 335.5,300.9 337.2,303.3 338,304.5 341.3,307.6 342.1,308.6 342.4,309.2 342.5,310 342.6,311 342.9,312.1
		343.3,313.3 344.4,315.1 350,319.6 353.3,322.2 360.8,329.8 365.8,335.1 367,336.3 369.8,339.6 374,343.4 378.6,346 386.3,347.2
		387.1,347.7 388.8,348.9 389,349.4 390,351.7 389.6,354.1 388.5,360.9 389.7,364.4 390.3,366.4 393.4,371.1 396,373.5 396.7,374.1
		398.3,375.1 399.1,375.8 399.7,376.9 400,378 400.3,379.1 401.2,381.2 401.7,381.9 402.4,382.7 414,390.3 417,393.9 417.2,394.2
		419.1,398.6 419.7,400 419.9,402.4 419.9,403 418.9,403.7 417.6,404.6 413.3,405.5 415.1,406.5 416.3,407.7 415,407.3 412.8,406.3
		411.4,406.3 419.1,411 420.1,409.5 420.7,408.9 421.2,408.4 422.3,408.1 423,407.9 424.7,408.2 428,409.5 428.7,409.6 429.7,409.8
		430.4,409.5 431,408.9 431.7,408.9 431.9,409.2 432.6,410.1 432.7,410.9 432.7,411.2 432.6,413.4 432.6,413.8 432.8,415
		433.8,416.5 435.3,418.9 436.2,419.5 439,420.3 440.9,421.8 443.7,425 444.3,425.6 446,427 446.2,427.3 446.9,427.7 450.4,430
		464.3,439.4 464.8,439.6 466.9,440.8 471.2,442.3 471.8,442.3 473.3,442.2 474.2,442.9 474.5,443.3 475.4,444.6 475.8,445.2
		475.9,445.3 477.1,446 479.3,446.3 479.9,446.4 480.4,446.6 481.2,446.9 482,446.2 482.7,445.9 483.2,445.9 483.6,446 484.5,446.5
		485.3,446.4 485.6,445.7 485.4,444.7 485,443.9 484.8,443.6 485.9,443 487.2,442.3 488.9,440.6 489.8,438.4 489.8,435.3 489,432.3
		487.7,430.6 486.1,428.8 485.4,427.6 483.4,424.4 482.5,422.3 482.3,421.8 482.1,421.1 481.6,419.2 481.5,417.3 481.6,417.1
		482.2,416.1 483.2,415.3 483.7,414.4 483.8,414.3 483.8,414.2 483.4,412.2 481.5,408.4 480.9,406.6 480.8,406.3 480.8,404.4
		482.3,400.1 484.7,397.8 488.5,396.9 489.2,396.8 493.9,396.7 497.1,397.2 497.1,396.8 495.7,388.9 495.7,386.1 496.4,382.6
		497.7,379.9 499.1,377.8 501.1,375 500.8,374.9 499.2,374.1 499.7,373.4 500.4,372.3 508.7,366.2 510.6,364.8 511.1,364.6
		512.6,364.1 512.5,364 512.2,363.6 511.9,362.6 511.6,362.1 512.8,361.5 513.1,361.4 514.3,361.3 517.7,361 518.6,361.3
		519.6,361.6 521.8,363.1 522.4,363.9 522.4,365.4 522.5,365.8 522.6,366.3 523.4,367.5 524.9,369.6 525,369.8 525.2,370.3
		525.6,370 526,369.6 526.7,368.7 527.2,367.7 527.8,366.9 528.7,366.4 530.8,366.3 530.7,365.9 531.1,365.6 530.2,363.9 528.7,361
		527.7,358.3 526.3,354.5 524,351.4 523.6,350.9 523.4,350.8 523,350.5 521.3,351 521.3,350.5 521.5,349.8 521.6,349.6 521.6,348.9
		521,347.9 520.6,347.2 520.4,347.1 520,346.9 518.8,346.6 518.5,346.4 518.1,346 518.1,345.1 518.1,344.9 518.4,344.2 518.8,343.9
		519.3,343.6 519.7,343.4 520.7,342.9 522.6,340.8 523.8,339.9 525.6,339.7 526.1,340.2 526.7,340.8 527,341.4 527.7,342.4
		527.9,342.8 528.6,343.8 529.9,344.3 531.6,344.3 533.2,343.7 533.9,342.9 535.3,341.1 537.3,340.9 541.1,341.5 542.9,341.5
		543.9,339.6 544.7,337.2 545.8,335.4 546.7,335.1 548.7,335.5 549.6,335.5 550.5,334.9 552.4,333.4 553.2,333.2 554.5,333.9
		555.8,335.7 556.9,337.8 557.6,339.6 558.2,340.6 558.9,339.7 559.9,337.3 560.9,337.3 563.9,338.5 564.5,338.1 564.7,337.6
		564.5,337.1 563.9,336.6 563.5,335.4 563.4,333.9 563.6,332.3 563.9,331 565.9,329 565.8,326.1 563.9,320 562.3,316.4 554.2,307.6
		549.9,300.7 547.5,297.5 544.8,295.4 543.9,294.8 544.8,293.9 545,293.1 544.6,291.7 544.6,290.9 545,289.9 545.7,289.3
		547.3,288.8 548.5,288.8 549.5,289.2 551.5,290.6 553.6,292.5 554.6,293.1 555.8,293 557,292.7 561.2,292.4 565.8,292.8
		567.7,292.7 569.6,292 572.9,289.6 574.3,288.1 575,286.3 574.4,284.3 	"/>
</g>

</svg>
