<?xml version="1.0" encoding="utf-8"?>

<svg version="1.2" baseProfile="tiny" xmlns="http://www.w3.org/2000/svg" xmlns:xlink="http://www.w3.org/1999/xlink" x="0px"
	 y="0px" viewBox="306.2 147 227.7 300" xml:space="preserve">

<g id="Barbados">
	<g>
		<polygon fill="#00267F" points="503.7,312.1 495.4,309.3 495.4,403.7 504.9,397.1 530.8,370.6 533.8,335.3 522.2,320.6 		"/>
		<polygon fill="#00267F" points="329.5,153.8 315.2,168.3 308.2,181.7 306.2,197.6 314.4,335.3 327.2,380.8 338.8,403.1
			342.6,405.9 342.6,148.8 		"/>
		<path fill="#FFC726" d="M442.9,318.7c0.6-0.1,0.8-1,0.8-2.2c1.1-12.3,3.4-23.3,6.4-34l-23.2-17.6v51.4L442.9,318.7z"/>
		<path fill="#FFC726" d="M484.1,305.7l-15.1-8.8l-7.5-5.7c-4.4,13.4-7,27.8-7,43.3c-6.3,0-21.4-3.7-27.7-3.7V371h-15.7v-40.2
			c-6.3,0-21.5,3.7-27.7,3.7c0.1-34.7-13.4-64-29.5-88.8c-1-1.2-0.3-1.8,0.7-1.5c12.1,1.9,24.6,8.3,33.2,17.1c1,1.2-5.3-1.3-5.9-1.4
			c-4.7-1.4,1.4,6.6,1.7,8.7c4.8,15.4,9,30.2,10.5,47.9c0,1.2,0.2,2.1,0.8,2.2l16.1-2.4v-56.9c-3.8-0.1-9.7,0.9-13,2
			c5.2-5.2,9.1-11.1,12.2-17.4l-30.6-66.3L366,156.9l-18.4-9.9l-4.9,1.8v257.1l9.6,6.9l21.4,1.5l22.4,5.3l18.7,10.4l9.7,16.9
			l6.9-4.4l6.2-1l6.5,0.1l7.9-0.9L473,419l22.3-15.3v-94.3L484.1,305.7z"/>
		<path d="M411.2,259.4v56.9l-16.1,2.4c-0.6-0.1-0.8-1-0.8-2.2c-1.5-17.7-5.7-32.5-10.5-47.9c-0.3-2.1-6.4-10.1-1.7-8.7
			c0.6,0.1,6.9,2.6,5.9,1.4c-8.6-8.9-21.1-15.2-33.2-17.1c-1.1-0.3-1.7,0.3-0.7,1.5c16.1,24.8,29.6,54.1,29.5,88.8
			c6.3,0,21.4-3.7,27.7-3.7V371h15.7v-40.2c6.3,0,21.5,3.7,27.7,3.7c-0.1-15.5,2.6-29.9,7-43.3l-11.5-8.7c-3,10.7-5.3,21.7-6.4,34
			c0,1.2-0.2,2.1-0.8,2.2l-16.1-2.4v-51.4l-2.9-2.2l-13.3-18.1l-0.3-0.6c-3.2,6.3-7,12.2-12.2,17.4
			C401.5,260.3,407.4,259.3,411.2,259.4z"/>
	</g>
	<polygon fill="none" stroke="#878787" stroke-width="0.25" stroke-linecap="round" stroke-linejoin="round" points="503.7,312.1
		484.1,305.7 469,296.9 423.9,262.7 410.6,244.6 379.8,177.7 366,156.9 347.6,147 329.5,153.8 315.2,168.3 308.2,181.7 306.2,197.6
		314.4,335.3 327.2,380.8 338.8,403.1 352.3,412.8 373.6,414.3 396,419.7 414.7,430.1 424.4,447 431.3,442.6 437.5,441.6 444,441.7
		451.9,440.8 473,419 504.9,397.1 530.8,370.6 533.8,335.3 522.2,320.6 	"/>
</g>

</svg>
