<?xml version="1.0" encoding="utf-8"?>

<svg version="1.2" baseProfile="tiny" xmlns="http://www.w3.org/2000/svg" xmlns:xlink="http://www.w3.org/1999/xlink" x="0px"
	 y="0px" viewBox="303.7 136.2 232.2 321.3" xml:space="preserve">

<g id="Bangladesh">
	<g>
		<path fill="#006A4E" d="M363.3,406.4l-0.2,1l0.3,1l0.9,0.5l1-0.1l1-0.4l0.9-0.6l0.6-0.7l-0.5-0.2c-1.2-0.3-2.4-0.5-3.5-0.8
			L363.3,406.4z"/>
		<path fill="#006A4E" d="M498.6,268.3l0.3-1.3l0-1.1l-0.5-2.2l0.2-1l1.1-0.4l0.5,0.4l1.1,0.8l1,0.4l0-0.7l-1.1-1.9l0.1-0.6l4.2,0.4
			l1.5-0.1l1.3-0.6l1-1.3l0.2-1.6l-0.3-3.3l0.2-1l0.6-0.6l0.8-0.5l0.7-0.6l0.5-0.8l0.3-0.8l0.2-1.9l0.5-2.1l2.6-7.2l0.1-0.9l0-0.9
			l-0.1-0.9l-0.7-1.8l-0.2-1l0.3-0.9l1.5-0.6l1.9,0.6l3.4,2.1l0.1,0.4l0.2,0.3l0.4,0.2l0.5,0.1l3.1-1l1.8-0.5l0.7-1.1l0.1-0.6
			l-0.2-1l-0.4-0.9l-0.5-0.5l-1.2-0.5l0.4-0.4l-0.2-0.3l-0.5-0.2l-1.6-1.2l0-0.2l-0.9-0.3l-0.4-0.1l-0.3-1.6l-1.2-0.7l-1.4-0.6
			l-0.8-1.1l-0.4-0.3l-2.6-0.4l-0.9-0.2l-0.7-0.3l-0.6-0.4l-0.7-0.6l-0.8-1l-0.3-0.3l-0.4-0.1l-0.7,0.2l-0.3-0.1l-0.3-0.3l-0.7,0
			l-0.4-0.1l-0.3-0.3l-0.5-0.8l-0.4-0.3l-1.4-0.5l-1.6-0.4l-1.6-0.1l-1.3,0.4l-0.9,0.3l-2.8-0.4l-5.4,0.7l-2.4-0.2l-0.8,0.1
			l-0.3,0.3l-0.3,0.7l-0.4,0.3l-0.5-0.1l-0.6-0.3l-0.6,0l-0.3,0.9l-0.5,0.5l-1.2,0.2l-1.3-0.1l-0.8-0.2l-0.8-0.7l-0.3-0.6l-0.4-0.4
			l-0.9-0.1l-0.4,0.2l-0.8,0.7l-0.6,0.1l-0.5,0.1l-1,0.3l-0.5,0.1l-2-0.2l-7.4-2.3l-1.2-0.7C481.6,229.7,492.9,247.8,498.6,268.3z"
			/>
		<polygon fill="#006A4E" points="495.2,404.5 495.6,404 496.7,401.1 497.1,399.2 497.8,397.8 498,397 497.9,396.2 497.3,394.2
			497.2,393.8 497.1,393.6 496.9,393.5 495.7,394.8 495.4,395.5 495.2,396.4 495.6,399.2 494.8,403.6 		"/>
		<path fill="#006A4E" d="M393.3,186.6l-0.1-0.4l-0.9-5l0.2-1.4l2.2-3.8l0.2-1.3l-0.4-0.3l-0.8-0.1l-0.9-0.6l1-0.3l0.7-0.6l0.2-0.8
			l-0.7-0.9l-0.1-0.1l-0.1,0l-0.1,0l-0.1,0l0,0h0l-0.3,0.4l-0.3,0.1l-0.3-0.1l-0.3-0.4l-0.4-0.7l-1-1.3l-0.3-0.5l-0.1-1l0.1-0.7
			l-0.1-0.7l-0.7-0.9l-0.4-0.8l-0.2-0.9l-0.3-0.8l-0.6-0.5l-0.4,0l-1,0.1l-0.4-0.1l-0.6-0.3l-0.1-0.1l0.1-0.2l0.1-2.4l-0.3-0.8
			l-0.9-0.2l-1.1,0.4l-0.3,0.5l0.1,1.7l0.3,0.6l0,0.3l-1-0.3l-0.4,0l-0.3,0.2l-0.3,0.3l-0.5,1l0.3,0.7l0.8,0.4l0.9,0.1l-0.6,0.4
			l-0.7,0.4l-0.5,0.5v0.7l0.5,0.2l0.7-0.1l0.7,0l0.4,0.7l-0.4,0.9l-2.2,1.8l-0.4,1.5l0.1,0.8l-0.1,0.7l-0.4,0.5l-0.7,0.1l-0.5-0.3
			l-0.4-0.6l-0.7-1.2l-0.2-0.1l-0.3-0.1l-0.3,0l-2.7,0.2v0l-0.3,0.1l-0.3,0l-0.2,0l-0.2-0.1l-0.8-1.1l-0.6,0l-0.6,0.5l-0.8,0.5
			l-0.8-0.1l-1-0.5l-0.9-0.6l-1.2-1.4l-1.8-0.8l-0.4-0.5l-0.3-1.1l-0.5-0.7l-0.7-0.5l-3.3-1.4l-0.6-0.7l-0.4-1l-0.4-3.4l-0.4-0.9
			l-1-1.7l-0.3-0.9l0-1.5l0.6-0.1l0.7,0.3l0.4-0.2l0-0.8l-0.4-0.4l-1.2-0.3l-0.8-0.4l-0.1-0.4l0.2-0.5l-0.2-0.7l-0.4-0.4l-1.1-0.3
			l-0.5-0.2l-0.5-0.4l-0.8-0.9l-0.6-0.3l-0.8-0.6l-0.5-0.5l-0.5-0.1l-0.8,0.4l-0.6,0.6l-0.6,0.9l-0.4,1l0,0.9l1,1.1l1.4,0.5l1.2,0.6
			l0.5,1.6l0.3,0.5l0.4,0.1l0.5-0.1l0.5-0.3l-0.2,1.2l0.4,0.4l0.6,0l0.5,0.2l0.3,1l-1,0.7l-2.2,0.6l-1.4-0.5l-2.2-2.2l-1.4-0.2
			l-1,0.7l-0.7,1.8l-0.8,0.3l-0.8-0.4l-0.5-0.8l-0.3-0.9l-0.4-0.9l-1.8-0.7l-4.2,1.6l-0.9-0.6l0.4-0.4l1.9-0.9l0.6-0.5l0.5-1
			l-0.1-0.7l-0.7-0.5l-1.1-0.6l-0.3-0.4l0.1-1l-0.4-0.2l-0.5-0.1l-0.1-0.4l0.1-0.5l0.2-0.5l-1.2-0.3l-0.5-0.2l-0.5-0.4l-0.4-0.5
			l-0.3-0.6l-0.3-0.5l-0.6-0.3l-1.1,0l-0.4-0.1l-1.2-0.5l-1-0.7l-0.4-0.4l-0.5-0.6l-0.6-0.5l-0.7-0.8l-0.8-0.4l-1.8-0.5l-0.7-0.8
			l-0.1-1.1l0-1.2l-0.1-1l-0.5-0.3l-0.6,0.7l-0.6,1l-0.4,0.8l-1,3.6l-0.7,1.1v0l-0.3,0.7l0.1,0.9l0.4,0.7l0.7,0.2l0.2-0.3l0.1-1.3
			l0.2-0.4l0.4,0l1.2,0.5l2.9,0.6l1.3,0.6l0.7,1.2l1,3l0.1,1.4l-1.1-0.2l-0.4,0.1l-0.5,0.1l-0.5,0l-0.3-0.1l-0.5-0.3L324,151
			l-0.2,0.5l-0.4,0.5l-2.4,1.5l-0.8,0.7l-0.8,1.1l-0.2,0.8l0.1,2l-0.4,0.8l-0.9,0.5l-2.9,1l-1,0.2l-0.6,0.2l-0.3,0.4l-0.3,0.4
			l-0.4,0.4l-1.7,1.1l-0.4,0.7l-0.6,1.8l-0.2,0.3l-0.1,0.3l0.1,0.5l0.2,0.3l0.3,0.2l0.3,0.3l0.1,0.6l-0.3,1.1l-1.3,1l-1,1.9
			l-0.9,3.2l-0.3,0.4l-0.3,0.2l-0.1,0.3l0.4,2.5l0.4,0.8l-0.1,0.5v0.5l0.8,0.9l0.2,0.5l0.3,1.1l0.6,0.7l0.9,0l1-0.4l0.8-0.5l2.3-0.7
			l1.6,0.8l3,3.5l3.6,2.5l1.3,1.5l0.2,3.4l0.7,0.7l1.9,1l0.5,1.1l1.4,1l0.4,0.8l0.5,0.5l1,0.2l2.1,0.1l1,0.5l1.6,1.1l1.1,0.2
			l0.6-0.2l0.5-0.4l0.4-0.5l0.5-0.4l0.4-0.1l0.5,0.1l0.5,0l0.5-0.2l0-1l1.2,0.5c15.1-7.6,32.1-11.9,50.1-11.9
			C391.9,186.6,392.6,186.6,393.3,186.6z"/>
		<path fill="#006A4E" d="M479.4,370.9l2.6-2.3l-1.1-4.3l-0.1-0.1c-1.3,1.7-2.6,3.4-4,5.1l1.1,1.1L479.4,370.9z"/>
		<polygon fill="#006A4E" points="498.5,405.1 498.7,404.3 498.5,403.6 497.7,403 497.2,403 496.7,403.5 496.2,404.5 496,406.5
			497,410.1 497.3,412.3 497.3,413.6 497.1,414.1 496.3,415.2 496.3,415.6 496.5,416 496.7,416.9 497,417.4 497.4,417.7 498,417.7
			498.5,417.4 498.5,417 498.3,416.6 498.3,416.3 499.3,416.2 500.5,416.4 501.6,416.3 502.1,415.4 502.2,414.2 502.7,411.9
			502.8,410.8 502.3,408.7 500.5,405.1 500.4,402.7 500.4,402.4 500.4,401.6 499.5,401.8 498.6,401.9 499,403.1 499.1,404.5
			498.7,405.8 498,406.7 498.1,406 		"/>
		<path fill="#006A4E" d="M533.9,421l-0.5-2.7l-0.1-1.4l-0.7-12.8l0.9-8.2l-0.1-1.6l-0.7-3.3l0-0.5l-0.1-0.5l-0.7-3.6l-1.1-3.6
			l0.6-0.5l0.7,0l0.6-0.3l0.1-1.4l-2.9-17.6l-0.1-0.9l-0.6-1.7l-0.2-0.9l0.1-3.1l-0.4-4.2l-0.2-0.8l-0.5-0.8l-1.4-1.2l-0.6-0.8
			l-0.4-1.6l-0.4-4.2l-0.7-0.9l-1.7-0.7l-0.9-1.4l-0.4-1.8l0-3.8l-1.3-7.7l0-2.2l0.2-0.8l0.9-1.9l0.3-1l0-0.6l-0.2-0.5l-0.3-0.9
			l0-0.5l0.1-1.1l-0.1-0.5l-0.2-0.3l-0.7-0.5l-0.3-0.4l-0.1-0.4l0.1-0.8l-0.1-0.4l-0.3-0.5l-0.7-0.6l-0.3-0.4l-0.2-0.8l-0.3-2.7
			l-1.9-6.2l-0.1-1.8l0.6-2.3l-0.1-1.2l-1-0.6l-0.8,0.5l-0.6,2.5l-0.8,0.7l-0.7-0.9l-0.5-2.1l-1-1.5l-2.1,0.7l-0.8,0.9l-1.6,2.3
			l-0.9,0.8l-1.2,0.3l-0.8-0.4l-1.2-1.4c-0.2,21.6-6.6,41.8-17.4,58.8l2.2,3.1l3.4,6.7l0.5,2l0.9,6.2l0.8,1.2l1.1,0.1l0.9-0.7l0-1
			l-0.5-0.3l-0.6-0.2l-0.5-0.4l-0.1-0.9l0.4-0.5l1.2-0.7l0.1-0.3l0.9-0.3l0.8-0.6l0.6-0.6l0.3-0.3l-0.1-0.4l0.5-2.1l0.1-0.8l0.7,0
			l0.3,0l-1.2,3.8l-0.5,1l-1.1,0.6l-1.3,0.4l-0.9,0.6l0.2,1.3l0.4,0.3l0.5,0.2l0.4,0.4l0.1,0.9l-0.3,0.5l-0.5,0.4l-0.4,0.5l-0.3,0.8
			l0,1.3l0.3,1.3l0.5,1.2l0.5,0.9h0.3v-1l0.4-0.7l0.4-0.1l0.3,0.7l-0.2-0.1l-0.5-0.2l0.1,1.9l1.3,5.5v2l0.2,0.5l0.7,0.8l0.2,0.5
			l0.2,2.1l0.2,1.1l0.3,0.7l0.3-0.5l0.4-0.4l0.5-0.2l0.5-0.1v0.4l-0.7,0.3l-0.5,0.4l-0.2,0.5l0.4,0.5l-0.9,0.5l-0.5,1.2l-0.1,1.3
			l0.5,0.5l0.8-0.2l1-0.3l2.3-0.2v0.4l-1.2,0.5l-0.3,0.8l0.3,0.4l0.8-0.6l0.3,0.4l-0.8,0.7l-0.6,0.1l-0.4,0.3l-0.2,1.2l0.2,0.8
			l0.5,0.6l0.5,0.1l0.3-0.9h0.3l0,0.6l-0.3,0.8l-0.1,0.8l0.4,0.6l0.8,0l0.6-0.8l0.7-1.8h-0.4l0.2-0.2l0.1-0.2l0.1-0.4l0.2,0.4v0.5
			l-0.2,0.5l-0.1,0.6l0.3,0.1l0.4,0.4l0.1,0.5l-0.3,0.5l0.2,0.5l-0.1,0.4l-0.8,0.9l0.2,0.9l-0.5,0.8l-0.7,0.7l-0.4,0.6l0,1l0.3,1.1
			l0.5,1l0.6,0.6l-1-0.3l-0.8,0.6l-0.6,1l-0.4,1l-0.2-0.1l-0.1,0l-0.1,0l-0.1-0.2h-0.3l0.2,0.9l0.4,1l0.5,0.8l0.6,0.3l0.5,0.5
			l2.8,5.1l0.3,1l0.1,1.3l-0.4,3.5l0.1,1.1l0.4,0.9l2.2,2.6l0.6,0.9l0.8,1.6l0.5,0.7l2.6,2.2l0.3,0.5l0.9,3.5l3.4,6.2l1.2,2.8
			l0.4,0.5l0.3,0.2l0.3,0.4l0.3,0.2l0.4-0.4l0.1-0.6l-0.1-0.6l-0.4-0.7l-0.9-2.8l-0.1-1l-0.2-0.6l-1.5-2.2l-0.5-2l-0.2-2.2l0.1-2.2
			l0.3-2.1l-2.1-1.7l-0.3-0.8l-0.3-0.8l-1.2-1.1l-0.4-0.7l-0.3-1l0.2-0.8l0.3-1.6l0.1-1l-0.4-2.1l0-1.1l0.3-0.9l1.4-2l0.7-2.3
			l0.6-1.1l0.8-0.1l1.6,0l1.9-2.3l1.6,0.5l0.7,0.9l0.2,0.9l0.1,0.9l0.3,0.9l0.4,0.4l0.5,0.3l1.1,0.4l2.1,0.2l1.7-0.4l1.3,0.3l1,2.2
			l0.4,2.2l0.4,1.1l0.6,0.7l1-0.1l1.2-0.8l1-1l0.5-0.9l-0.2-1.1L533.9,421z"/>
		<polygon fill="#F42A41" points="455.3,383.1 455.1,383.3 454.7,384 454.5,384.7 454.8,385 455.3,384.9 455.6,384.6 455.9,384.4
			457,383.9 457.6,383.2 458.1,382.3 458.7,381.6 460.4,381.1 461.1,380.6 461.4,380 461.6,379 462.3,376.9 462.5,375.7
			462.5,374.5 462,372.5 461.7,371.1 461.2,369.8 460.9,368.5 460.8,368 459.3,365.5 459.1,364.8 458.9,364.5 458.3,363.9
			458.1,363.5 458.1,363.2 458.4,362.2 458.4,361.7 457.5,361.5 457,362.7 457,364.4 457.4,365.4 457,365.8 456.8,367.4
			456.7,369.2 456.7,373 455.9,378.1 456.3,379.4 456,380.3 		"/>
		<polygon fill="#F42A41" points="449.7,379.5 449.3,381.2 449.3,382.7 449.8,383.5 450.8,383.2 451.2,382 451.2,379.1 451,378.6
			450.9,378.3 450.7,378.4 450.4,378.7 450.1,378.3 		"/>
		<path fill="#F42A41" d="M476.6,356.8l-0.4-0.2l-1-0.9l-0.2,0.4l-0.1,0.3l0.1,0.4l0.2,0.5l-0.1,0.2l-0.1,0.1l-0.1,0.2l-1,4.1
			l-0.1,1.9l0.7,2.1l1.9,3.3l0.2,0.3c1.4-1.7,2.7-3.4,4-5.1L476.6,356.8z"/>
		<polygon fill="#F42A41" points="462.5,368 463.2,368.4 463.8,367.9 463.9,367.1 463.7,366.1 463.2,365.4 462.7,365 462.1,364.6
			461.8,364.6 461.8,365.8 462,367.1 		"/>
		<polygon fill="#F42A41" points="430.2,316.7 427.8,315.4 426,314.8 424.7,314.8 424.5,315.3 425.1,316.1 426.7,317.7 427.6,318.4
			428.5,318.6 429.4,318.2 429.7,317.6 430.7,318 432.6,319.3 432.1,318.1 		"/>
		<path fill="#F42A41" d="M501.7,298.1l-0.6-1l-0.6-0.8l-0.7,0l-0.3,0.7l-0.1,1.2l0.1,2.1l1.3,6.3l-0.1,2.1l-1.1,1.9l-0.7,0.7
			L498,312l-2.8,1.2l-0.8,0.7l-1.3,1.8l-1.5,2.5l-1,2.7l0.3,2.2l0.7,1.7l0.8,3.7l0.7,1.7l0.2,0.6l-0.2,0.5l-0.8,0.8l-0.1,0l-0.5,0
			l-0.2,0l-0.3,0.2l0,0.3l0,0.3l-0.1,0.2l-0.8,1.3l-0.3,0.4l-0.8,0.8l-0.4,0.4l-0.6,0.4l-1.4,0.3l-0.7,0.3l-0.4,0.1l-0.4-0.1
			l-0.4-0.1l-0.3-0.1l-0.5,0.2l-0.2,0.4l-0.2,0.5l-0.3,0.4l-0.8,0.5l-0.2-0.2l0-0.5l-0.3-0.6l-0.7-0.3l-0.7-0.1l-0.7-0.3l-0.6-0.7
			l-0.2-0.6l-0.1-1.6l-0.1-0.2l-0.5-0.1l-0.1-0.2l-0.3-1.4l-1.2-4l-0.2-0.6l-0.3-1.7l-0.1,0l-0.7-0.7l-0.1-0.3l0.1-0.3l0-0.4
			l-0.3-0.4l0,0l-0.2,0.4l0,0l-0.4-0.8l-0.7-1l-1-0.8l-1.1,0l-0.6,0.8l-0.3,1.3l0,2.4l0.9,4.6l-0.2,1.8l-1.7-0.5l-1.2-1.6l-0.7-2.2
			l-1.2-8.8l-0.2-0.6l-0.3-0.4l-0.1-0.4l0.4-0.5l0.5-0.5l0.2-0.4l-0.2-0.3l-0.7-0.2l-0.6-0.5l-0.5-1.1l-0.7-2.3l-0.2-1.4l-0.1-0.4
			l-0.3-0.5l-0.9-0.5l-0.4-0.4l-0.5-0.9l-0.4-1.8l-0.4-1l-1.5-2.7l-0.2-0.9l0.2-1.3l0.6-0.1l0.7,0.1l0.4-0.9l-0.3-0.8l-0.8-0.3
			l-0.8-0.4l-0.2-1.2l0.5-1.1l0.8-0.3l1-0.1l0.9-0.5l0.5-0.9l1-3l0.1-1l-0.2-0.7l-0.6-1.3l0-0.7l0.2-0.8l1.7-3l0.5-0.7l0.7-0.6
			l0.9-0.4l0.7,0.1l0.6,0.2l0.5,0.1l0.6-0.4l0.5-2.2l0.1-2.1l0.6-1.4l2.1-0.2l3.8,0.8l1.9,0.2l2.1-0.2l1.2-0.4l0.7-0.5l0.5-0.8
			l0.4-1.2l0.5-3.5l0.2-0.6l0.5,0.2l0.9,2.2l0.5,0.8l0.9,0.6l1,0.1l0.9-0.3l0.6-0.8l0-1l-0.3-1.1l-0.1-1l0.5-0.7l3.2,0.7l0.5,0
			l0.1,0.4l0.1,1.2l0.1,0.5l1.5,1.5l1,0.3l0.6-0.4l0.4-1l0.8-3.4c-5.7-20.4-17-38.5-32.2-52.5l-1.2-0.6l-0.5,0l-1.1,0.6l-0.6,0.1
			l-2.8-0.1l-8,1.3l-1.6,0.6l-6.1,0.8l-1.4-0.2l-0.7-0.4l-0.6-0.5l-0.7-0.4l-0.8-0.1l-0.3,0.1l-0.5,0.6l-0.3,0.2l-0.4,0l-1.9-0.3
			l-1.1-0.5l-0.6-0.2l-0.7,0l-2,0.5l-4.1-0.4l-5.1,1.1l-1.8-0.1l-3.9-1.7l-7.9-1.7l-11.1-4.7l-1.9,0.1l-1.8,0.7l-0.8-0.1l-0.6-1.1
			l-0.4-2l-0.2-1.9l0.3-2.1l1.1-4.2l0.1-4.2l0.5-3.9l-0.5-2.2l-1-2.4c-0.7,0-1.4,0-2.1,0c-18,0-35,4.3-50.1,11.9l0.4,0.1l0.4,0.4
			l0.6,0.7l0.6,0.6l0.5,0.7l0.1,1.2l-0.9,2l0,0.3l0.5,0.4l0.1,0.5l0,0.5l0.2,0.6l1.2,1.5l0.4,0.3l0.5,0.1l1,0.1l0.3,0.2l0.8,0.9
			l1.2,0.2l2.5-0.1l0.4,0.5l0.1,0.5l-0.1,0.6l-0.4,0.5l-1.9,1.4l-0.4,0.6l-0.1,0.7l0.1,0.7l-0.1,0.5l-0.9,0.2l0.7,1.2l-1.3-0.1
			l-3.4-1.2l-0.3-0.2l-0.3-0.1l-0.4,0.1l-0.3,0.4l-0.5,1.2l-0.4,0.3l-3-0.3l-3-1.1l-1.5-0.3l-1.8-0.1l-0.5,0.2l-0.6,0.7l-0.4,0.2
			l-0.6,0.1l-0.2,0l-0.2-0.1l-1.3-0.4l-1.6-0.6l-0.8-0.2l-1.7,0.3l-0.5,0.9l0.1,3.1l-0.4,3.6l-0.6,1.6l-1.2,1.5l-0.2,1.5l-0.6,1.3
			l-1.7,2.3l-0.9,1.6l-0.5,0.4l-0.8-0.1l-2.1-0.6l-0.6,0l0-1l-0.5-1.1l-0.7-0.9l-0.8-0.6l-1-0.1l-0.9,0.3l-2.5,1.4v0.2l0.3,0.3
			l0.2,0.5l0.7,1.9l0.1,1l-0.5,0.7l-0.7,0.7l-0.5,1l-0.6-0.1l-0.3,0.4l-0.1,0.7l-0.1,0.7l-0.4,0.5l-0.6,0.1l-0.6,0.2l-0.2,2.4
			l-0.7,1l-0.4,1l-0.3,1.7l1,0.3l0.8,0.3l0.5,1.1l0.7,0.8l0.2,0.3v2.9l0.1,0.3l0.2,0.2l0.4,0.6l0.5,0.8l0.1,0.4l1.5,0.3l13.2,6.9
			l3.7,3l1.2,0.2l3.3,0.2l2.5,0.8l1.1-0.1l0.7-1.2l0.5-1.3l1.1,0.2l1.6,1l1.2,1.6l0.3,2.2l0.1,0.2l0.1,0.9l0.1,0.2l-0.2,0.5
			l-0.6,0.9l-0.2,0.5l-0.8,0.4l-1.1,0.4l-0.5,0.5l-0.3,0.7l0,0.5l0.2,1.1l-0.1,0.6l-0.3,1.1l-0.1,0.5l0.3,0.6l0.9,0.8l0.2,0.7
			l1.2,0.3l0,0.5l-0.6,0.8l-0.6,1.1l0.3,0.6l0.3,1l0.1,1.2l-0.2,1l-0.5,0.6l-1.9,1.9l-0.7,0.5l-1,0.2l-1-0.1l-1,0l-0.8,0.6l-0.2,0.5
			l0.1,0.5l0.1,0.5l0,0.5l-0.3,0.6l-0.7,1.2l-0.3,0.6l0,0.5l0.4,0.8l0.1,0.5l-1.1,5l0.1,0.6l0.5,0.2l0.5,0.1l0.3,0.2l-0.1,0.7
			l-0.2,0.4l0,0.4l0.5,0.5l0.5,0.2l1-0.1l0.4,0.1l0.8,0.8l1.2,2.1l0.8,0.9l1.5,1l0.5,0.3l0.7,1.5l0.6-0.2l0.6-0.9l0.7-0.5l0.7,0.5
			l-0.1,1.2l-2.4,6.5l-1.2,1.9l-0.5,1.1l0,1.2l0.5,1l0.7,0.6l3.3,1.1l0.5,0l0.4-0.2l0.3-0.3l0.4-0.3l0.7-0.1l0.9,0.2l3.5,1.2
			l0.4,0.2l0.4,0.1l1.4,0l0.3,0.3l0,0.4l-0.3,0.6l-0.4,0.5l-1.3,1.1l-2.7,2.9l-0.7,1.4l-0.1,2.8l-0.5,1.5l0,1.1l0.2,0.6l1,1.2
			l0.5,0.9l1.1,2.6l0.6,0.7l1.4,0.5l0.6,0.5l0.1,0.7l-0.1,1.1l-0.2,1.1l-0.2,0.7l-0.5,0.8l-0.6,0.7l-0.3,0.7l0.1,1l0.6,1.6l0.2,0.7
			l0.2,1.2l0.6,1.1l0.5,1.4l0.2,1.5l-0.3,1.2l-1.1,0.8l1.6,0.6l0.6,0.5l0.5,2l0.9,2.1l0.2,1.3l-0.1,0.4l-0.4,0.7l-0.1,0.6l0,0.5
			l0.6,2.9l0.3,0.7l0.8,1.4l-0.7,0.5l0.5,1.1l2.2,2.9l0.4,0.9l0.3,1.1l0.1,1.3l-0.9,1.1l0.2,1.1l-0.3,2.5l0.2,0.8l1.1,1.5l0.4,1.1
			l0,1.3l-0.5,2.3l-0.1,1.1l0.1,0.9l1.2,4.4l0.2,0.3l0.5,0.5l1.1,0.6l0.7,0.2l0.3-0.2l0.2-0.5l0.5-0.5l0.5-0.3l0.2,0.2l0,0.6
			l0.1,0.4l1.6,4.4l-0.1,0.6l0,0c1.2,0.3,2.3,0.6,3.5,0.8l-0.6-0.3l-0.1-0.6l0.9-1.9l0.2-1.3l-0.5-2.1l0-1.4h0.3l0.3,0.7l0.3,0
			l0.3-0.4l0.8-2l0.3-0.5l0.5-0.7l0.8-0.9l0.2-0.5v-0.9l-0.2-0.7l-0.3-0.7l-0.1-0.7l0.3-0.8h0.4l0.2,0.9l0.9,1.8l0.2,1.1l-0.1,1.3
			l-0.6,1.6l-0.3,1l-0.1,2.4l0.1,1.4l0.3,0.8l1.3,1.4l0.6-0.1l1.8-1.6l0.7-0.8l0.5-1l0.2-1.2l-0.1-1.3l-0.2-0.9l0.1-0.8l0.6-0.9
			l0.7-0.6l0.7-0.5l0.5-0.6l0.5-2.9l-0.1-0.4l-0.4-0.5l-0.6-1.3l-0.2-0.6l-0.2-0.3l-0.1-0.3l-0.1-0.4l0.1-0.2l0.6-0.1l0.2-0.2
			l0.4-1.4l0-0.8l-0.3-0.6l-0.3-0.5l-0.3-0.7l-0.2-0.7l-0.1-0.5l-0.1-0.2l-0.3,0.4l-0.2,0.7l0,0.8h-0.4l-0.4-6.8l0.4-3.6h0.4
			l0.5,1.2l0.1,1.1l-0.2,2.4l0.1,1.1l2.3,5.4l0,0.7l-0.5,1.1l-0.1,0.6l0.1,2.4l0.4,0.8l0.9-0.5l0.3-0.8l0.4-3.4l0.1-0.5l0.5-1
			l0.1-0.6l0-1.2l-0.1-0.5l-0.3-0.7l-1.1-1.8l-0.1-0.7l0.6-1l1-0.7l0.3-0.5l-0.5-1.2l0.2-0.5l0.6-0.6l0.7-1.5l0.5-0.7l0.6-0.4
			l-0.5,1l-0.3,1.1l-0.2,1.1l-0.1,1.2l-0.4,0.9l-1.5,2l0,0.7l0.7,0.8l0.6,1l0.4,1.1l0.2,1.2l-0.3,1.2l-1.2,2.1l-0.3,1.1l-0.4,3.1
			l0.2,3.9l-0.2,0.9l-0.4,0.8l-0.9,1.1l-0.4,0.7l-0.1,1.2l0.6,2.2l-0.1,1l1.4,2.2l1.1,0.7l1-1l-0.1-0.5l-0.6-1.4l0.1-0.3l1.3-0.2
			l0.6,0l0.6,0.4l1.2,0.3l1.1-0.8l0.5-1.1l-0.4-0.5l-1-0.5l-1.1-1.2l-1-1.3l-0.6-1l1.4-3l0.7,1l0.1,0.5l-0.5,0.9l0,0.6l0.2,0.6
			l0.2,0.4l0.6,0.5l0.9,0.3l0.9,0.2l0.8,0.1l0.6-0.3l0.7-0.5l0.6-0.2l0.3,0.8l0.2,0.3l0.5-0.1l0.9-0.4l0.5-0.3l0.2-0.2l0.1-0.2
			l0.3-0.4l1.3-1.1l1.1-0.2l0.4-0.1l0.4-0.9l-0.3-0.7l-0.5-0.6l-0.4-1l-0.7-1.1l-0.2-0.5l0-0.6l0.3-1l0.1-0.5l-0.2-1.3l-0.6-0.8
			l-0.9-0.6l-1.1-0.5v-0.4l0.9,0l0.8,0.2l0.7,0.1l0.8-0.5l0.4-0.7l0.1-0.9l-0.1-1.9l-0.6-3.6l-0.5-1.9l-0.6-1.1l2.1-4l0.2-1.2
			l-0.2-0.9l-0.3-0.9l-0.1-1.1l1.5,1.2l0.9,0.3l0.4-0.9l0.3-0.9l0.7-0.9l1.8-1.8l1.4-0.9l-0.6,0.5l-0.3,0.6l-0.2,0.7l-0.3,0.7
			l-4.1,6l-1,2.5l-0.2,0.7l-0.1,0.6l0.1,0.6l0.2,0.7l0.3,0.5l0.6,1l0.1,0.5l0.1,1.4l0.5,2.2l0.1,4l0.1,0.6l0.4,1.2l0.1,0.5l0.3,1.1
			l0.8,0.9l0.9,0.3l0.8-0.6l0.1-0.7l-0.1-2.4l0.3-0.5l1.3-1.3l0.5-0.6l0.8-2.6l0.6-0.9l1.3-0.5l-0.3,0.6l-0.5,0.3l-0.6,0.2l-0.5,0.5
			l-0.2,0.8l-0.2,0.6l0.2,1.6l-0.1,0.8l-0.3,0.4l-0.4,0.2l-0.5,0.4l-0.4,0.6l-0.1,0.8l-0.3,0.7l1.6,0.7l0.5,0.1l0.7-0.1l0.3-0.3
			l0.1-0.4l0.6-1l0.4-1.2l0.4-0.5l3-3.2l0.8-0.5l1.4-0.2l0.7-0.5l0.6-1.2l0.9-2.3l0.2,1.4l-0.4,1.4l-0.8,1.2l-1.1,0.7l-0.3-0.1
			l-0.4-0.2l-0.5-0.1l-0.4,0.2l-0.3,0.3l-0.4,0.7l-0.3,0.3l-2.1,1.9l-0.5,0.8l-0.2,0.7l-0.1,0.7l-0.2,0.8l-0.5,0.7l-0.6,0.4
			l-0.6,0.3l-0.5,0.4l-0.6,1.2l-0.1,2.9l-0.3,1.4l0.6,0.1l0.7,0.5l0.4,0.1l0.4-0.2l0.6-0.7l0.5-0.2l0.5-0.5l0.9-2.2l0.5-0.7
			l-0.2,0.6l0,0.3l0.1,0.3l0.1,0.5l-0.3,0.6l-0.5,0.5l-0.3,0.5l0.4,0.8l-0.9-0.2l-0.3,0.7l0.2,0.9l0.8,0.4l0.9,0.2l1.9,0.8l1,0.2
			l0.9-0.2l0.7-0.5l2.8-2.4l0.5-0.7l0.4-1.1l0.5-2l0.2-2l0.2-1l1-2l0.2-0.9l0.1-0.2l0.6-0.7l0.9-1.4l0.2-0.5l0.2-0.7l0.2-1.7
			l0.2-0.5l0.2-0.1l0.2,0.1l0.2,0l0.1-0.8l0.1-0.2l0.1-0.1l0.1-0.1l0.4-0.4l0.2-0.4l0.1-0.4l-0.2-0.5l-0.3-0.2l-0.3-0.1l-0.4-0.4
			l-0.1-0.8l0.5-2.4l-0.2-1.1l0.8,0.2l0.2,0.7l-0.3,1.7l0.1,0.7l0.6,1.5l-0.2,1.3l-1.2,2.6l-0.3,1.3l0.3,0.4l0.7,0.5l0.9,0.4
			l0.7,0.2l0.6-0.3l0.5-0.6l1.4-2.5l0.3-0.8l0.1-0.7l0.2-0.5l0.5-0.5l1.3-0.7l1-0.2l1.2-1.9l1.6-4.1l0.3-2.2l0-1.1l-0.3-1.1l-1-1.9
			l-0.4-1l0-1.2l0.3,0.1l0.8,0.3l-0.8-1.9l-0.6-1.8l-0.9-1.5l-1.8-1.1l-1-0.2l-0.9,0.1l-0.7,0.4l-0.5,0.7l-0.1,0.6l0.2,1.1l-0.1,0.6
			l-0.2,0.3l-0.3,0.2l-0.3,0.3l-0.1,0.6v-0.8l0.6-3l0.3-0.8l0.5-0.3l1.1-0.2l0.4-0.2l0.5-0.6l0.1-0.4l-0.2-1.9l-0.6-1.7l-0.2-1.7
			l-0.2-0.6l-0.5-0.8l-0.9-0.8l-0.9-0.2l-0.5,1l-1-0.5l-1.4-0.5l-0.7-0.6l1.1-0.7l0.6,0.6l0.7-0.3l0.2-0.7l-0.8-0.7l1.4-0.3l0.6-1.5
			l0.5-1.8l1-1.2l0.7-0.1l0.7,0.2l0.7,0.1l0.7-0.4l0.3-0.5L430,341l-0.6-0.5l-0.2-0.2l-0.2-0.1l-0.2,0l-0.1-0.1l-0.1-0.4l0.1-0.6
			l-0.1-0.3l-1-1.3l-0.9-1.6l-0.7-1.7l-0.3-1.5l0.2-0.9l0.6-0.2l1.9,0.1l1-0.2l0.7-0.4l0.6-0.5l0.6-0.8h0.3v0.4l-0.5,0.4l-0.2,0.5
			l0.1,0.5l0.6,0.1l0.3-0.3l1.4-1.9l0.2-1.3l-0.2-3.2l-0.2-1.1l0.5,0.5l0.4,0.5l0.2,0.3l-0.2-1.9l-0.2-0.9l-1.5-2.2l-0.4-0.4
			l-3.3-0.4l-0.8-0.3l-1.4-0.7l-1.6-0.4l-0.4-0.5l-0.3-0.7l-0.5-0.7l-0.8-0.7l-6.5-3.9l-0.5-0.6l0-0.6l1.7,1.1l1.9,0.7l9.9,1.9
			l1.7,0.7l0.1-0.9l0.3-1l0.4-0.8l0.4-0.3l0.2-0.6l-0.1-4.9l-0.4-0.4l-1.9-0.1l-0.8-0.1l-0.8-0.3l-0.7-0.6L427,304l1.3,0.8l0.6,0.2
			l0.8,0.1l0.8-0.1l0.6-0.2l0.3-0.5l-0.3-0.8l1.8-0.8l0.8-0.1l0.4,0.5l0.2-0.1l0.1,0l0-0.1l0.1-0.2l0.3,0.4l-1.3,0.6l-0.8,1.3
			l-0.2,1.5l0.8,2.2l0.2,0.2l0.7-0.5l1.3-0.4l1-0.6l0.6,0.1l0.9,0.5l0.3-1.1l-0.9-0.7l-0.5-0.5l0.1-0.2l0.9,0l0.5,0l0.3,0.3l0.2,0.8
			l0,2l-1.2,0.6l-2.9,0l-1.2,0.8l-0.4,1.2l-0.1,3.2l0.1,1l0.5,1.6l0.9,1.1l1.3-0.4l0,0.3l0.1,0.1l0.1,0l0.2,0.1l-0.6,0.5l0,0.7
			l0.8,1.8h-0.3l0.2,1l-0.4,1l-0.6,1.1l-0.3,1.2l-0.1,2.2l-0.6,3.3l0,0.6l0.1,0.6l0.5,1.4l3.9,5.3l0.3,0.7l0.2,1.2l0.4,0.9l0.4,0.8
			l0.4,0.9l0.4,1.8l0.6,1.5l0.1,0.6l0.2,0.4l0.7,1l0.3,1l0.4,0.3l0.5,0.2l0.4,0.3l0.6,1.9l0.2,0.3l1.5-0.1l0.6,0.2l0.4,1.5l0.7,1
			l0.2,0.5l0.3,0.5l1.4,1l0.3,0.7l0.7,0.5l1.5,0.1l1.6-0.3l1-0.5l0.1-1l-0.4-1.6l-0.7-1.5l-0.7-0.8l0.7-0.2l0.4,0.5l0.6,1.6l0.5,1
			l0.5,0.6l0.6,0.5l0.8,0.5l1.3,0.3l3.1-0.2l1,0.2l0.5-0.3l0.6-0.1l0.6,0l0.4,0l0.4-0.3l0.5-0.6l0.4-0.8l0.2-0.7l-0.6-1.1l-1.3-0.6
			l-2.9-0.7v-0.4l1.2,0l0.4-0.4l-0.2-0.6l-0.6-0.6v-0.3l1.7,0l0.8,0.1l0.6,0.2l0,0.2l0,0.8l0.1,0.2l0.2,0l0.2-0.1l1.5,0.3l0,0.1
			l0.8-0.1l0.8-0.2l0.6-0.5l0.2-0.8l-0.4-0.3l-0.8-0.4l-0.9-0.3l2.6-0.1l0.9-0.2l0.5-0.5l-0.1-0.5l-1-0.3v-0.4l1.1,0l0.8,0.2
			l0.7,0.3l0.8,0.6l-0.2-1.3l0.3-1.2l0.7-0.9l1.1-0.3l0.5-0.6l0.9-2.8l0.2-1h0.4l0,1.3l-0.8,2.3l-0.3,1.6l-0.5,0.7l-0.1,0.7l0.1,0.7
			l0.2,0.6l0.3,0.3l0.4-0.2l0.4,0.9l0.7,1l0.9,0.8l1.6,0.6l4.2,5.9c10.9-17,17.2-37.1,17.4-58.8L501.7,298.1z"/>
		<polygon fill="#F42A41" points="428.8,332 428.3,332.2 427.9,332.3 426,332.3 426.3,333.1 426.7,335.3 427.1,335 428.2,333.6
			429,332.9 429.1,332.5 		"/>
		<polygon fill="#F42A41" points="436.1,366.4 436.6,366.1 436.6,365 436.5,364.5 436.3,363.9 436.1,363.8 435.9,363.7 435.6,366.9
			436,366.5 		"/>
		<polygon fill="#F42A41" points="422.3,388.5 422.6,387.2 421.9,387.3 421.1,388.6 420.5,390.1 420.2,391.3 420.5,391.3
			420.8,390.2 		"/>
		<polygon fill="#F42A41" points="434.2,365.8 434,365.5 433.6,365.5 433.3,365.6 433.2,365.9 433.3,366.6 433.6,366.7 433.9,366.7
			434.2,366.9 434.6,367.8 435,370 435.3,370.9 434.9,370.9 435,371.5 435,372.1 435,372.6 435.3,373.1 435.6,372.2 435.3,370
			435.6,369.1 435.8,369.5 436.3,370.6 436.2,369.3 435.7,367.8 434.9,366.5 		"/>
		<polygon fill="#F42A41" points="423.5,391.8 423.2,392.3 422.9,393.1 422.9,394 423.3,394.8 424,395.1 424.8,394.8 426,393.4
			427,392.7 427.5,391 426.9,389.6 425,387.6 424.6,387.2 424,387.7 423.8,388.2 423.9,389.9 423.8,391.1 		"/>
		<polygon fill="#F42A41" points="419.3,394.3 419.1,395.6 419.1,398.1 419.3,398.2 419.8,397.9 420.3,397.3 421.5,393.1 422.7,391
			422.9,389.8 421.8,390.1 420.9,391 419.8,393.1 		"/>
		<polygon fill="#F42A41" points="355.5,400.7 355.5,400.9 358,404 359.5,404.8 360.1,403.8 359.9,402.3 358.7,401.6 357.5,400.9
			357,399.3 356.5,395.7 356.3,394.9 356.1,394.6 356,394.4 355.8,394.2 355.2,394.3 355.1,394.8 355.4,395.7 355.6,396.5
			356.1,398.3 356.1,399.4 355.8,400.4 		"/>
		<polygon fill="#F42A41" points="430,338.4 431.3,338.3 431.9,338.3 432.3,338.1 432.5,337.9 432.7,337.8 433.2,337.9 433.6,338.3
			434.2,339.4 434.6,339.8 435.1,340 436.6,340.1 436.4,339.6 436,339.1 435.5,338.6 434.9,338.3 435.3,338.3 436.6,338.3
			436.6,337.9 435.5,337.1 433.6,334.7 432.6,333.8 431.3,333.9 429.6,335.3 428.6,337 429.4,338.3 		"/>
		<polygon fill="#F42A41" points="432.9,381.2 432.3,381.8 431.9,382.4 431.3,382.4 429.9,383.9 429.3,384.3 428.4,384.6
			427.8,385.5 427.5,386.6 427.4,387.9 427.7,387.9 428,387.4 430.2,386.1 430.5,386.5 428.7,388 428.4,388.5 428.5,389.2
			428.7,389.8 429.2,390.1 430.2,389.8 431.2,388.5 431.7,386.6 432,384.6 432.6,382.7 432.8,383.4 432.9,383.7 432.9,384.3
			433.9,380.9 433.5,380.9 		"/>
		<polygon fill="#F42A41" points="452.8,371.4 452.6,370.6 452.2,370.2 451.7,371 451.3,372.4 451.2,374.8 450.9,375.6 450.4,376.5
			450.2,377.2 451,377.6 452.9,374.6 453.1,373.5 453,372.4 		"/>
		<polygon fill="#F42A41" points="428.8,396.7 428.4,396.8 428.4,397.2 429.3,397.2 430.3,396.5 431.1,395.3 431.5,394.2
			431.9,394.2 432.3,394.5 432.8,393.3 433.6,393.1 433.3,392.2 433.1,391.9 432.9,391.6 432.9,390.5 429.6,392.8 429.3,393.1
			429.1,393.5 429,394 429.1,394.5 429.1,394.9 428.8,395.3 429.1,395.5 429.4,395.8 429.8,396.4 429.4,396.5 		"/>
		<polygon fill="#F42A41" points="433.6,347.2 434.6,347 436.4,346.3 437.2,346.1 437.6,345.6 437.9,344.6 437.8,343.6 437.2,343.1
			436.2,343 434.6,342.4 433.6,342.4 432.9,342.1 430.9,342.1 430.5,342.2 430.1,342.9 429.3,343.1 427.6,342.7 426.9,343
			426.5,343.8 426.4,344.7 426.4,345.7 426.5,347.2 426.4,347.7 426,348.3 427.4,348.7 427.9,349.1 428.1,349.6 428.1,350.1
			428.6,351.7 428.9,352.2 430,352.3 430.5,350.9 430.8,348.3 430.6,347.4 431.3,347.2 		"/>
		<polygon fill="#F42A41" points="433.7,385.9 433.4,387.4 433.8,388.5 434.6,388.3 437.4,384.3 436.8,385.7 435.8,387.4
			435.2,388.9 435.6,390.1 436.2,390.2 436.8,389.9 437.4,389.6 437.9,389.4 439.2,387.2 439.6,386.9 440.8,385.7 441.1,386.2
			441.2,386.5 442,385.7 444.7,381.6 445.1,380.2 447,366.9 447.1,365 446.6,363.2 445.3,361.7 444.2,360.8 443.7,360.4
			443.4,359.8 442.9,358.6 442.5,357.7 442.1,356.6 441.9,356.1 441.5,355.9 440.6,355.6 440.1,355.4 438.9,353.9 438.2,351.7
			437.4,347.6 436.7,347.3 435.8,347.2 434.8,347.3 433.9,347.6 433.1,347.9 432.5,348.3 432.2,348.9 431.1,353.3 430.9,355.2
			431.2,357.2 432,357.5 434.8,359.5 435.6,360.2 436.2,361.5 436.8,364.8 437.4,365.8 437.4,366.1 437.2,366.8 437.3,367.8
			437.7,369.4 437.4,370.3 437.4,373.5 437.2,374.5 437,375.4 434.9,380 434.4,382 434.9,383.1 434.2,384.3 		"/>
		<polygon fill="#F42A41" points="452.2,376.9 452.2,379.8 452.7,379.3 453.1,378.3 453.2,377.1 453.2,376.1 452.5,375.8 		"/>
	</g>
	<path fill="none" stroke="#999999" stroke-width="0.25" stroke-linecap="round" stroke-linejoin="round" d="M358.7,401.6l-1.2-0.7
		l-0.6-1.6l-0.5-3.6l-0.2-0.7l-0.1-0.3l-0.2-0.3l-0.2-0.1l-0.6,0l-0.1,0.5l0.3,0.9l0.1,0.8l0.5,1.8l0,1l-0.3,1l-0.3,0.3v0.2l2.6,3
		l1.5,0.8l0.6-1l-0.3-1.5L358.7,401.6z M422.3,388.5l0.3-1.3l-0.7,0.1l-0.8,1.2l-0.6,1.6l-0.3,1.1h0.3l0.3-1.1L422.3,388.5z
		 M421.8,390.1l-0.9,1l-1.1,2.1l-0.5,1.2l-0.2,1.3v2.5l0.2,0.1l0.5-0.3l0.5-0.6l1.2-4.2l1.3-2.1l0.2-1.2L421.8,390.1z M425,387.6
		l-0.3-0.4l-0.6,0.5l-0.2,0.5l0.1,1.7l-0.1,1.1l-0.3,0.7l-0.3,0.6l-0.3,0.8l0,0.9l0.4,0.8l0.7,0.3l0.8-0.4l1.2-1.4l1.1-0.6l0.5-1.7
		l-0.6-1.4L425,387.6z M430.5,386.5l-1.8,1.5l-0.3,0.5l0.1,0.7l0.2,0.6l0.5,0.3l0.9-0.3l1.1-1.3l0.5-1.9l0.3-2.1l0.6-1.9l0.3,0.6
		l0.1,0.4l0,0.5l1-3.3l-0.4-0.1l-0.6,0.3l-0.6,0.6l-0.4,0.6l-0.6,0l-1.3,1.5l-0.6,0.4l-0.9,0.3l-0.6,0.9l-0.3,1.2l-0.1,1.3h0.3
		l0.3-0.5l2.2-1.3L430.5,386.5z M433.1,391.9l-0.2-0.3v-1.1l-3.4,2.3l-0.2,0.3l-0.2,0.4L429,394l0.1,0.5v0.4l-0.3,0.4l0.4,0.2
		l0.3,0.3l0.4,0.6l-0.4,0.1l-0.6,0.2l-0.4,0.1v0.4l0.9,0.1l1-0.8l0.8-1.2l0.4-1.1h0.3l0.4,0.3l0.5-1.2l0.8-0.2l-0.3-0.9L433.1,391.9
		z M436.1,366.4l0.5-0.3l0-1.1l-0.1-0.6l-0.2-0.6l-0.3,0l-0.1-0.2l-0.3,3.2l0.3-0.3L436.1,366.4z M434.2,365.8l-0.3-0.2l-0.3-0.1
		l-0.3,0.1l-0.1,0.3l0.1,0.7l0.3,0.1l0.3-0.1l0.3,0.2l0.3,1l0.4,2.1l0.3,1h-0.3l0,0.5l0,0.6l0,0.6l0.3,0.5l0.3-0.9l-0.3-2.2l0.4-1
		l0.1,0.4l0.6,1.1l-0.1-1.3l-0.6-1.5l-0.7-1.3L434.2,365.8z M433.6,347.2l1-0.2l1.8-0.7l0.8-0.2l0.4-0.5l0.3-1l-0.1-1l-0.6-0.5
		l-1-0.2l-1.6-0.6l-1,0l-0.7-0.3l-2,0l-0.4,0.1l-0.3,0.8l-0.8,0.1l-1.7-0.3l-0.7,0.3l-0.4,0.7l-0.2,1l0,1l0.2,1.5l-0.1,0.5l-0.4,0.6
		l1.4,0.4l0.5,0.4l0.2,0.5l0.1,0.5l0.5,1.6l0.3,0.5l1.1,0.1l0.5-1.4l0.3-2.6l-0.3-0.9l0.8-0.3L433.6,347.2z M430.2,316.7l-2.4-1.3
		l-1.8-0.6l-1.3,0l-0.2,0.5l0.5,0.8l1.6,1.6l0.9,0.7l1,0.3l0.9-0.4l0.3-0.6l1,0.4l1.8,1.3l-0.4-1.2L430.2,316.7z M428.8,332
		l-0.4,0.2l-0.4,0.1l-1.9,0l0.3,0.8l0.4,2.2l0.4-0.3l1.1-1.4l0.8-0.8l0.1-0.4L428.8,332z M430,338.4l1.4,0l0.5-0.1l0.4-0.2l0.2-0.2
		l0.2-0.1l0.5,0.1l0.4,0.4l0.6,1.1l0.4,0.4l0.5,0.2l1.6,0.2l-0.3-0.5l-0.4-0.5l-0.5-0.5l-0.6-0.4l0.4,0l1.3,0v-0.3l-1.1-0.8
		l-1.9-2.3l-1.1-0.9l-1.2,0.1l-1.7,1.4l-1,1.7l0.8,1.2L430,338.4z M452.5,375.8l-0.3,1.1l0,2.9l0.6-0.5l0.4-1l0.2-1.2l0-1
		L452.5,375.8z M450.9,378.3l-0.2,0l-0.3,0.4l-0.3-0.4l-0.4,1.2l-0.4,1.6l-0.1,1.5l0.5,0.8l1-0.3l0.4-1.2v-2.9l-0.1-0.5L450.9,378.3
		z M452.9,374.6l0.2-1.1l0-1.1l-0.2-1l-0.3-0.8l-0.4-0.4l-0.5,0.9l-0.3,1.3l-0.2,2.4l-0.3,0.8l-0.5,0.9l-0.2,0.8l0.8,0.3
		L452.9,374.6z M463.2,365.4l-0.5-0.4l-0.5-0.3h-0.3l0,1.2l0.2,1.2l0.4,1l0.7,0.3l0.7-0.4l0.1-0.9l-0.3-1L463.2,365.4z M502.1,415.4
		l0.1-1.2l0.5-2.3l0.1-1.1l-0.5-2.1l-1.8-3.6l-0.2-2.4l0-0.3l0-0.9l-0.8,0.2l-0.9,0.1l0.3,1.2l0.1,1.4l-0.3,1.3l-0.8,1l0.1-0.8
		l0.4-0.9l0.2-0.8l-0.3-0.7l-0.7-0.6l-0.6,0l-0.5,0.5l-0.5,1.1l-0.3,2l1.1,3.6l0.3,2.2l0,1.3l-0.1,0.6l-0.8,1.1l0,0.4l0.2,0.4l0.2,1
		l0.3,0.4l0.4,0.3l0.5,0l0.6-0.3l0-0.4l-0.2-0.4v-0.3l1-0.1l1.3,0.2l1.1,0L502.1,415.4z M497.1,399.2l0.7-1.4l0.2-0.9l-0.1-0.8
		l-0.6-2l-0.1-0.4l-0.1-0.2l-0.2-0.2l-1.2,1.3l-0.4,0.7l-0.2,0.9l0.4,2.8l-0.8,4.5l0.4,0.9l0.4-0.5l1.1-2.9L497.1,399.2z
		 M445.3,361.7l-1.1-0.8l-0.4-0.5l-0.3-0.6l-0.5-1.3l-0.5-0.8l-0.3-1.2l-0.3-0.4l-0.4-0.2l-0.9-0.3l-0.5-0.2l-1.3-1.5l-0.7-2.1
		l-0.8-4.2l-0.7-0.3l-0.9-0.1l-1,0.1l-0.9,0.2l-0.9,0.3l-0.5,0.4l-0.3,0.6l-1.1,4.5l-0.1,1.9l0.2,2l0.8,0.2l2.8,2l0.8,0.7l0.6,1.3
		l0.6,3.3l0.6,1v0.3l-0.2,0.7l0.1,1.1l0.4,1.6l-0.3,0.9l0,3.2l-0.2,1l-0.3,0.9l-2.1,4.6l-0.5,2l0.6,1.2l-0.7,1.2l-0.6,1.6l-0.2,1.5
		l0.3,1.1l0.8-0.2l2.8-4.1l-0.6,1.5l-0.9,1.6l-0.6,1.5l0.4,1.2l0.5,0.1l0.6-0.3l0.6-0.3l0.4-0.2l1.3-2.2l0.5-0.3l1.1-1.2l0.3,0.5
		l0.1,0.2l0.9-0.8l2.7-4.1l0.4-1.4l1.9-13.3l0.1-1.9l-0.5-1.7L445.3,361.7z M476.6,356.8l-0.4-0.2l-1-0.9l-0.2,0.4l-0.1,0.3l0.1,0.4
		l0.2,0.5l-0.1,0.2l-0.1,0.1l-0.1,0.2l-1,4.1l-0.1,1.9l0.7,2.1l1.9,3.3l1.3,1.4l1.6,0.5l2.6-2.3l-1.1-4.3L476.6,356.8z M462,372.5
		l-0.2-1.5l-0.6-1.3l-0.2-1.3l-0.1-0.5l-1.5-2.4l-0.2-0.7l-0.1-0.3l-0.7-0.6l-0.2-0.4l0-0.3l0.3-1l0-0.6l-0.9-0.2l-0.5,1.2l0,1.6
		l0.4,1l-0.3,0.4l-0.2,1.6l-0.2,1.8l0,3.8l-0.7,5.1l0.4,1.3l-0.3,0.9l-0.7,2.8l-0.2,0.2l-0.4,0.6l-0.2,0.7l0.3,0.3l0.5-0.1l0.3-0.3
		l0.2-0.3l1.1-0.4l0.6-0.8l0.5-0.9l0.6-0.6l1.6-0.6l0.8-0.4l0.3-0.7l0.2-0.9l0.7-2.2l0.2-1.1l0-1.3L462,372.5z M535.7,426.4
		l-1.8-5.4l-0.5-2.7l-0.1-1.4l-0.7-12.8l0.9-8.2l-0.1-1.6l-0.7-3.3l0-0.5l-0.1-0.5l-0.7-3.6l-1.1-3.6l0.6-0.5l0.7,0l0.6-0.3l0.1-1.4
		l-2.9-17.6l-0.1-0.9l-0.6-1.7l-0.2-0.9l0.1-3.1l-0.4-4.2l-0.2-0.8l-0.5-0.8l-1.4-1.2l-0.6-0.8l-0.4-1.6l-0.4-4.2l-0.7-0.9l-1.7-0.7
		l-0.9-1.4l-0.4-1.8l0-3.8l-1.3-7.7l0-2.2l0.2-0.8l0.9-1.9l0.3-1l0-0.6l-0.2-0.5l-0.3-0.9l0-0.5l0.1-1.1l-0.1-0.5l-0.2-0.3l-0.7-0.5
		l-0.3-0.4l-0.1-0.4l0.1-0.8l-0.1-0.4l-0.3-0.5l-0.7-0.6l-0.3-0.4l-0.2-0.8l-0.3-2.7l-1.9-6.2l-0.1-1.8l0.6-2.3l-0.1-1.2l-1-0.6
		l-0.8,0.5l-0.6,2.5l-0.8,0.7l-0.7-0.9l-0.5-2.1l-1-1.5l-2.1,0.7l-0.8,0.9l-1.6,2.3l-0.9,0.8l-1.2,0.3l-0.8-0.4l-2.1-2.4l-0.6-1
		l-0.6-0.8l-0.7,0l-0.3,0.7l-0.1,1.2l0.1,2.1l1.3,6.3l-0.1,2.1l-1.1,1.9l-0.7,0.7L498,312l-2.8,1.2l-0.8,0.7l-1.3,1.8l-1.5,2.5
		l-1,2.7l0.3,2.2l0.7,1.7l0.8,3.7l0.7,1.7l0.2,0.6l-0.2,0.5l-0.8,0.8l-0.1,0l-0.5,0l-0.2,0l-0.3,0.2l0,0.3l0,0.3l-0.1,0.2l-0.8,1.3
		l-0.3,0.4l-0.8,0.8l-0.4,0.4l-0.6,0.4l-1.4,0.3l-0.7,0.3l-0.4,0.1l-0.4-0.1l-0.4-0.1l-0.3-0.1l-0.5,0.2l-0.2,0.4l-0.2,0.5l-0.3,0.4
		l-0.8,0.5l-0.2-0.2l0-0.5l-0.3-0.6l-0.7-0.3l-0.7-0.1l-0.7-0.3l-0.6-0.7l-0.2-0.6l-0.1-1.6l-0.1-0.2l-0.5-0.1l-0.1-0.2l-0.3-1.4
		l-1.2-4l-0.2-0.6l-0.3-1.7l-0.1,0l-0.7-0.7l-0.1-0.3l0.1-0.3l0-0.4l-0.3-0.4l0,0l-0.2,0.4l0,0l-0.4-0.8l-0.7-1l-1-0.8l-1.1,0
		l-0.6,0.8l-0.3,1.3l0,2.4l0.9,4.6l-0.2,1.8l-1.7-0.5l-1.2-1.6l-0.7-2.2l-1.2-8.8l-0.2-0.6l-0.3-0.4l-0.1-0.4l0.4-0.5l0.5-0.5
		l0.2-0.4l-0.2-0.3l-0.7-0.2l-0.6-0.5l-0.5-1.1l-0.7-2.3l-0.2-1.4l-0.1-0.4l-0.3-0.5l-0.9-0.5l-0.4-0.4l-0.5-0.9l-0.4-1.8l-0.4-1
		l-1.5-2.7l-0.2-0.9l0.2-1.3l0.6-0.1l0.7,0.1l0.4-0.9l-0.3-0.8l-0.8-0.3l-0.8-0.4l-0.2-1.2l0.5-1.1l0.8-0.3l1-0.1l0.9-0.5l0.5-0.9
		l1-3l0.1-1l-0.2-0.7l-0.6-1.3l0-0.7l0.2-0.8l1.7-3l0.5-0.7l0.7-0.6l0.9-0.4l0.7,0.1l0.6,0.2l0.5,0.1l0.6-0.4l0.5-2.2l0.1-2.1
		l0.6-1.4l2.1-0.2l3.8,0.8l1.9,0.2l2.1-0.2l1.2-0.4l0.7-0.5l0.5-0.8l0.4-1.2l0.5-3.5l0.2-0.6l0.5,0.2l0.9,2.2l0.5,0.8l0.9,0.6l1,0.1
		l0.9-0.3l0.6-0.8l0-1l-0.3-1.1l-0.1-1l0.5-0.7l3.2,0.7l0.5,0l0.1,0.4l0.1,1.2l0.1,0.5l1.5,1.5l1,0.3l0.6-0.4l0.4-1l1.1-4.7l0-1.1
		l-0.5-2.2l0.2-1l1.1-0.4l0.5,0.4l1.1,0.8l1,0.4l0-0.7l-1.1-1.9l0.1-0.6l4.2,0.4l1.5-0.1l1.3-0.6l1-1.3l0.2-1.6l-0.3-3.3l0.2-1
		l0.6-0.6l0.8-0.5l0.7-0.6l0.5-0.8l0.3-0.8l0.2-1.9l0.5-2.1l2.6-7.2l0.1-0.9l0-0.9l-0.1-0.9l-0.7-1.8l-0.2-1l0.3-0.9l1.5-0.6
		l1.9,0.6l3.4,2.1l0.1,0.4l0.2,0.3l0.4,0.2l0.5,0.1l3.1-1l1.8-0.5l0.7-1.1l0.1-0.6l-0.2-1l-0.4-0.9l-0.5-0.5l-1.2-0.5l0.4-0.4
		l-0.2-0.3l-0.5-0.2l-1.6-1.2l0-0.2l-0.9-0.3l-0.4-0.1l-0.3-1.6l-1.2-0.7l-1.4-0.6l-0.8-1.1l-0.4-0.3l-2.6-0.4l-0.9-0.2l-0.7-0.3
		l-0.6-0.4l-0.7-0.6l-0.8-1l-0.3-0.3l-0.4-0.1l-0.7,0.2l-0.3-0.1l-0.3-0.3l-0.7,0l-0.4-0.1l-0.3-0.3l-0.5-0.8l-0.4-0.3l-1.4-0.5
		l-1.6-0.4l-1.6-0.1l-1.3,0.4l-0.9,0.3l-2.8-0.4l-5.4,0.7l-2.4-0.2l-0.8,0.1l-0.3,0.3l-0.3,0.7l-0.4,0.3l-0.5-0.1l-0.6-0.3l-0.6,0
		l-0.3,0.9l-0.5,0.5l-1.2,0.2l-1.3-0.1l-0.8-0.2l-0.8-0.7l-0.3-0.6l-0.4-0.4l-0.9-0.1l-0.4,0.2l-0.8,0.7l-0.6,0.1l-0.5,0.1l-1,0.3
		l-0.5,0.1l-2-0.2l-7.4-2.3l-2.4-1.3l-0.5,0l-1.1,0.6l-0.6,0.1l-2.8-0.1l-8,1.3l-1.6,0.6l-6.1,0.8l-1.4-0.2l-0.7-0.4l-0.6-0.5
		l-0.7-0.4l-0.8-0.1l-0.3,0.1l-0.5,0.6l-0.3,0.2l-0.4,0l-1.9-0.3l-1.1-0.5l-0.6-0.2l-0.7,0l-2,0.5l-4.1-0.4l-5.1,1.1l-1.8-0.1
		l-3.9-1.7l-7.9-1.7l-11.1-4.7l-1.9,0.1l-1.8,0.7l-0.8-0.1l-0.6-1.1l-0.4-2l-0.2-1.9l0.3-2.1l1.1-4.2l0.1-4.2l0.5-3.9l-0.5-2.2
		l-1.1-2.8l-0.9-5l0.2-1.4l2.2-3.8l0.2-1.3l-0.4-0.3l-0.8-0.1l-0.9-0.6l1-0.3l0.7-0.6l0.2-0.8l-0.7-0.9l-0.1-0.1l-0.1,0l-0.1,0
		l-0.1,0l0,0h0l-0.3,0.4l-0.3,0.1l-0.3-0.1l-0.3-0.4l-0.4-0.7l-1-1.3l-0.3-0.5l-0.1-1l0.1-0.7l-0.1-0.7l-0.7-0.9l-0.4-0.8l-0.2-0.9
		l-0.3-0.8l-0.6-0.5l-0.4,0l-1,0.1l-0.4-0.1l-0.6-0.3l-0.1-0.1l0.1-0.2l0.1-2.4l-0.3-0.8l-0.9-0.2l-1.1,0.4l-0.3,0.5l0.1,1.7
		l0.3,0.6l0,0.3l-1-0.3l-0.4,0l-0.3,0.2l-0.3,0.3l-0.5,1l0.3,0.7l0.8,0.4l0.9,0.1l-0.6,0.4l-0.7,0.4l-0.5,0.5v0.7l0.5,0.2l0.7-0.1
		l0.7,0l0.4,0.7l-0.4,0.9l-2.2,1.8l-0.4,1.5l0.1,0.8l-0.1,0.7l-0.4,0.5l-0.7,0.1l-0.5-0.3l-0.4-0.6l-0.7-1.2l-0.2-0.1l-0.3-0.1
		l-0.3,0l-2.7,0.2v0l-0.3,0.1l-0.3,0l-0.2,0l-0.2-0.1l-0.8-1.1l-0.6,0l-0.6,0.5l-0.8,0.5l-0.8-0.1l-1-0.5l-0.9-0.6l-1.2-1.4
		l-1.8-0.8l-0.4-0.5l-0.3-1.1l-0.5-0.7l-0.7-0.5l-3.3-1.4l-0.6-0.7l-0.4-1l-0.4-3.4l-0.4-0.9l-1-1.7l-0.3-0.9l0-1.5l0.6-0.1l0.7,0.3
		l0.4-0.2l0-0.8l-0.4-0.4l-1.2-0.3l-0.8-0.4l-0.1-0.4l0.2-0.5l-0.2-0.7l-0.4-0.4l-1.1-0.3l-0.5-0.2l-0.5-0.4l-0.8-0.9l-0.6-0.3
		l-0.8-0.6l-0.5-0.5l-0.5-0.1l-0.8,0.4l-0.6,0.6l-0.6,0.9l-0.4,1l0,0.9l1,1.1l1.4,0.5l1.2,0.6l0.5,1.6l0.3,0.5l0.4,0.1l0.5-0.1
		l0.5-0.3l-0.2,1.2l0.4,0.4l0.6,0l0.5,0.2l0.3,1l-1,0.7l-2.2,0.6l-1.4-0.5l-2.2-2.2l-1.4-0.2l-1,0.7l-0.7,1.8l-0.8,0.3l-0.8-0.4
		l-0.5-0.8l-0.3-0.9l-0.4-0.9l-1.8-0.7l-4.2,1.6l-0.9-0.6l0.4-0.4l1.9-0.9l0.6-0.5l0.5-1l-0.1-0.7l-0.7-0.5l-1.1-0.6l-0.3-0.4l0.1-1
		l-0.4-0.2l-0.5-0.1l-0.1-0.4l0.1-0.5l0.2-0.5l-1.2-0.3l-0.5-0.2l-0.5-0.4l-0.4-0.5l-0.3-0.6l-0.3-0.5l-0.6-0.3l-1.1,0l-0.4-0.1
		l-1.2-0.5l-1-0.7l-0.4-0.4l-0.5-0.6l-0.6-0.5l-0.7-0.8l-0.8-0.4l-1.8-0.5l-0.7-0.8l-0.1-1.1l0-1.2l-0.1-1l-0.5-0.3l-0.6,0.7l-0.6,1
		l-0.4,0.8l-1,3.6l-0.7,1.1v0l-0.3,0.7l0.1,0.9l0.4,0.7l0.7,0.2l0.2-0.3l0.1-1.3l0.2-0.4l0.4,0l1.2,0.5l2.9,0.6l1.3,0.6l0.7,1.2l1,3
		l0.1,1.4l-1.1-0.2l-0.4,0.1l-0.5,0.1l-0.5,0l-0.3-0.1l-0.5-0.3L324,151l-0.2,0.5l-0.4,0.5l-2.4,1.5l-0.8,0.7l-0.8,1.1l-0.2,0.8
		l0.1,2l-0.4,0.8l-0.9,0.5l-2.9,1l-1,0.2l-0.6,0.2l-0.3,0.4l-0.3,0.4l-0.4,0.4l-1.7,1.1l-0.4,0.7l-0.6,1.8l-0.2,0.3l-0.1,0.3
		l0.1,0.5l0.2,0.3l0.3,0.2l0.3,0.3l0.1,0.6l-0.3,1.1l-1.3,1l-1,1.9l-0.9,3.2l-0.3,0.4l-0.3,0.2l-0.1,0.3l0.4,2.5l0.4,0.8l-0.1,0.5
		v0.5l0.8,0.9l0.2,0.5l0.3,1.1l0.6,0.7l0.9,0l1-0.4l0.8-0.5l2.3-0.7l1.6,0.8l3,3.5l3.6,2.5l1.3,1.5l0.2,3.4l0.7,0.7l1.9,1l0.5,1.1
		l1.4,1l0.4,0.8l0.5,0.5l1,0.2l2.1,0.1l1,0.5l1.6,1.1l1.1,0.2l0.6-0.2l0.5-0.4l0.4-0.5l0.5-0.4l0.4-0.1l0.5,0.1l0.5,0l0.5-0.2l0-1
		l1.5,0.6l0.4,0.4l0.6,0.7l0.6,0.6l0.5,0.7l0.1,1.2l-0.9,2l0,0.3l0.5,0.4l0.1,0.5l0,0.5l0.2,0.6l1.2,1.5l0.4,0.3l0.5,0.1l1,0.1
		l0.3,0.2l0.8,0.9l1.2,0.2l2.5-0.1l0.4,0.5l0.1,0.5l-0.1,0.6l-0.4,0.5l-1.9,1.4l-0.4,0.6l-0.1,0.7l0.1,0.7l-0.1,0.5l-0.9,0.2
		l0.7,1.2l-1.3-0.1l-3.4-1.2l-0.3-0.2l-0.3-0.1l-0.4,0.1l-0.3,0.4l-0.5,1.2l-0.4,0.3l-3-0.3l-3-1.1l-1.5-0.3l-1.8-0.1l-0.5,0.2
		l-0.6,0.7l-0.4,0.2l-0.6,0.1l-0.2,0l-0.2-0.1l-1.3-0.4l-1.6-0.6l-0.8-0.2l-1.7,0.3l-0.5,0.9l0.1,3.1l-0.4,3.6l-0.6,1.6l-1.2,1.5
		l-0.2,1.5l-0.6,1.3l-1.7,2.3l-0.9,1.6l-0.5,0.4l-0.8-0.1l-2.1-0.6l-0.6,0l0-1l-0.5-1.1l-0.7-0.9l-0.8-0.6l-1-0.1l-0.9,0.3l-2.5,1.4
		v0.2l0.3,0.3l0.2,0.5l0.7,1.9l0.1,1l-0.5,0.7l-0.7,0.7l-0.5,1l-0.6-0.1l-0.3,0.4l-0.1,0.7l-0.1,0.7l-0.4,0.5l-0.6,0.1l-0.6,0.2
		l-0.2,2.4l-0.7,1l-0.4,1l-0.3,1.7l1,0.3l0.8,0.3l0.5,1.1l0.7,0.8l0.2,0.3v2.9l0.1,0.3l0.2,0.2l0.4,0.6l0.5,0.8l0.1,0.4l1.5,0.3
		l13.2,6.9l3.7,3l1.2,0.2l3.3,0.2l2.5,0.8l1.1-0.1l0.7-1.2l0.5-1.3l1.1,0.2l1.6,1l1.2,1.6l0.3,2.2l0.1,0.2l0.1,0.9l0.1,0.2l-0.2,0.5
		l-0.6,0.9l-0.2,0.5l-0.8,0.4l-1.1,0.4l-0.5,0.5l-0.3,0.7l0,0.5l0.2,1.1l-0.1,0.6l-0.3,1.1l-0.1,0.5l0.3,0.6l0.9,0.8l0.2,0.7
		l1.2,0.3l0,0.5l-0.6,0.8l-0.6,1.1l0.3,0.6l0.3,1l0.1,1.2l-0.2,1l-0.5,0.6l-1.9,1.9l-0.7,0.5l-1,0.2l-1-0.1l-1,0l-0.8,0.6l-0.2,0.5
		l0.1,0.5l0.1,0.5l0,0.5l-0.3,0.6l-0.7,1.2l-0.3,0.6l0,0.5l0.4,0.8l0.1,0.5l-1.1,5l0.1,0.6l0.5,0.2l0.5,0.1l0.3,0.2l-0.1,0.7
		l-0.2,0.4l0,0.4l0.5,0.5l0.5,0.2l1-0.1l0.4,0.1l0.8,0.8l1.2,2.1l0.8,0.9l1.5,1l0.5,0.3l0.7,1.5l0.6-0.2l0.6-0.9l0.7-0.5l0.7,0.5
		l-0.1,1.2l-2.4,6.5l-1.2,1.9l-0.5,1.1l0,1.2l0.5,1l0.7,0.6l3.3,1.1l0.5,0l0.4-0.2l0.3-0.3l0.4-0.3l0.7-0.1l0.9,0.2l3.5,1.2l0.4,0.2
		l0.4,0.1l1.4,0l0.3,0.3l0,0.4l-0.3,0.6l-0.4,0.5l-1.3,1.1l-2.7,2.9l-0.7,1.4l-0.1,2.8l-0.5,1.5l0,1.1l0.2,0.6l1,1.2l0.5,0.9
		l1.1,2.6l0.6,0.7l1.4,0.5l0.6,0.5l0.1,0.7l-0.1,1.1l-0.2,1.1l-0.2,0.7l-0.5,0.8l-0.6,0.7l-0.3,0.7l0.1,1l0.6,1.6l0.2,0.7l0.2,1.2
		l0.6,1.1l0.5,1.4l0.2,1.5l-0.3,1.2l-1.1,0.8l1.6,0.6l0.6,0.5l0.5,2l0.9,2.1l0.2,1.3l-0.1,0.4l-0.4,0.7l-0.1,0.6l0,0.5l0.6,2.9
		l0.3,0.7l0.8,1.4l-0.7,0.5l0.5,1.1l2.2,2.9l0.4,0.9l0.3,1.1l0.1,1.3l-0.9,1.1l0.2,1.1l-0.3,2.5l0.2,0.8l1.1,1.5l0.4,1.1l0,1.3
		l-0.5,2.3l-0.1,1.1l0.1,0.9l1.2,4.4l0.2,0.3l0.5,0.5l1.1,0.6l0.7,0.2l0.3-0.2l0.2-0.5l0.5-0.5l0.5-0.3l0.2,0.2l0,0.6l0.1,0.4
		l1.6,4.4l-0.1,0.6l-0.5,0.4l-0.2,1l0.3,1l0.9,0.5l1-0.1l1-0.4l0.9-0.6l0.6-0.7l-1.1-0.5l-0.1-0.6l0.9-1.9l0.2-1.3l-0.5-2.1l0-1.4
		h0.3l0.3,0.7l0.3,0l0.3-0.4l0.8-2l0.3-0.5l0.5-0.7l0.8-0.9l0.2-0.5v-0.9l-0.2-0.7l-0.3-0.7l-0.1-0.7l0.3-0.8h0.4l0.2,0.9l0.9,1.8
		l0.2,1.1l-0.1,1.3l-0.6,1.6l-0.3,1l-0.1,2.4l0.1,1.4l0.3,0.8l1.3,1.4l0.6-0.1l1.8-1.6l0.7-0.8l0.5-1l0.2-1.2l-0.1-1.3l-0.2-0.9
		l0.1-0.8l0.6-0.9l0.7-0.6l0.7-0.5l0.5-0.6l0.5-2.9l-0.1-0.4l-0.4-0.5l-0.6-1.3l-0.2-0.6l-0.2-0.3l-0.1-0.3l-0.1-0.4l0.1-0.2
		l0.6-0.1l0.2-0.2l0.4-1.4l0-0.8l-0.3-0.6l-0.3-0.5l-0.3-0.7l-0.2-0.7l-0.1-0.5l-0.1-0.2l-0.3,0.4l-0.2,0.7l0,0.8h-0.4l-0.4-6.8
		l0.4-3.6h0.4l0.5,1.2l0.1,1.1l-0.2,2.4l0.1,1.1l2.3,5.4l0,0.7l-0.5,1.1l-0.1,0.6l0.1,2.4l0.4,0.8l0.9-0.5l0.3-0.8l0.4-3.4l0.1-0.5
		l0.5-1l0.1-0.6l0-1.2l-0.1-0.5l-0.3-0.7l-1.1-1.8l-0.1-0.7l0.6-1l1-0.7l0.3-0.5l-0.5-1.2l0.2-0.5l0.6-0.6l0.7-1.5l0.5-0.7l0.6-0.4
		l-0.5,1l-0.3,1.1l-0.2,1.1l-0.1,1.2l-0.4,0.9l-1.5,2l0,0.7l0.7,0.8l0.6,1l0.4,1.1l0.2,1.2l-0.3,1.2l-1.2,2.1l-0.3,1.1l-0.4,3.1
		l0.2,3.9l-0.2,0.9l-0.4,0.8l-0.9,1.1l-0.4,0.7l-0.1,1.2l0.6,2.2l-0.1,1l1.4,2.2l1.1,0.7l1-1l-0.1-0.5l-0.6-1.4l0.1-0.3l1.3-0.2
		l0.6,0l0.6,0.4l1.2,0.3l1.1-0.8l0.5-1.1l-0.4-0.5l-1-0.5l-1.1-1.2l-1-1.3l-0.6-1l1.4-3l0.7,1l0.1,0.5l-0.5,0.9l0,0.6l0.2,0.6
		l0.2,0.4l0.6,0.5l0.9,0.3l0.9,0.2l0.8,0.1l0.6-0.3l0.7-0.5l0.6-0.2l0.3,0.8l0.2,0.3l0.5-0.1l0.9-0.4l0.5-0.3l0.2-0.2l0.1-0.2
		l0.3-0.4l1.3-1.1l1.1-0.2l0.4-0.1l0.4-0.9l-0.3-0.7l-0.5-0.6l-0.4-1l-0.7-1.1l-0.2-0.5l0-0.6l0.3-1l0.1-0.5l-0.2-1.3l-0.6-0.8
		l-0.9-0.6l-1.1-0.5v-0.4l0.9,0l0.8,0.2l0.7,0.1l0.8-0.5l0.4-0.7l0.1-0.9l-0.1-1.9l-0.6-3.6l-0.5-1.9l-0.6-1.1l2.1-4l0.2-1.2
		l-0.2-0.9l-0.3-0.9l-0.1-1.1l1.5,1.2l0.9,0.3l0.4-0.9l0.3-0.9l0.7-0.9l1.8-1.8l1.4-0.9l-0.6,0.5l-0.3,0.6l-0.2,0.7l-0.3,0.7l-4.1,6
		l-1,2.5l-0.2,0.7l-0.1,0.6l0.1,0.6l0.2,0.7l0.3,0.5l0.6,1l0.1,0.5l0.1,1.4l0.5,2.2l0.1,4l0.1,0.6l0.4,1.2l0.1,0.5l0.3,1.1l0.8,0.9
		l0.9,0.3l0.8-0.6l0.1-0.7l-0.1-2.4l0.3-0.5l1.3-1.3l0.5-0.6l0.8-2.6l0.6-0.9l1.3-0.5l-0.3,0.6l-0.5,0.3l-0.6,0.2l-0.5,0.5l-0.2,0.8
		l-0.2,0.6l0.2,1.6l-0.1,0.8l-0.3,0.4l-0.4,0.2l-0.5,0.4l-0.4,0.6l-0.1,0.8l-0.3,0.7l1.6,0.7l0.5,0.1l0.7-0.1l0.3-0.3l0.1-0.4l0.6-1
		l0.4-1.2l0.4-0.5l3-3.2l0.8-0.5l1.4-0.2l0.7-0.5l0.6-1.2l0.9-2.3l0.2,1.4l-0.4,1.4l-0.8,1.2l-1.1,0.7l-0.3-0.1l-0.4-0.2l-0.5-0.1
		l-0.4,0.2l-0.3,0.3l-0.4,0.7l-0.3,0.3l-2.1,1.9l-0.5,0.8l-0.2,0.7l-0.1,0.7l-0.2,0.8l-0.5,0.7l-0.6,0.4l-0.6,0.3l-0.5,0.4l-0.6,1.2
		l-0.1,2.9l-0.3,1.4l0.6,0.1l0.7,0.5l0.4,0.1l0.4-0.2l0.6-0.7l0.5-0.2l0.5-0.5l0.9-2.2l0.5-0.7l-0.2,0.6l0,0.3l0.1,0.3l0.1,0.5
		l-0.3,0.6l-0.5,0.5l-0.3,0.5l0.4,0.8l-0.9-0.2l-0.3,0.7l0.2,0.9l0.8,0.4l0.9,0.2l1.9,0.8l1,0.2l0.9-0.2l0.7-0.5l2.8-2.4l0.5-0.7
		l0.4-1.1l0.5-2l0.2-2l0.2-1l1-2l0.2-0.9l0.1-0.2l0.6-0.7l0.9-1.4l0.2-0.5l0.2-0.7l0.2-1.7l0.2-0.5l0.2-0.1l0.2,0.1l0.2,0l0.1-0.8
		l0.1-0.2l0.1-0.1l0.1-0.1l0.4-0.4l0.2-0.4l0.1-0.4l-0.2-0.5l-0.3-0.2l-0.3-0.1l-0.4-0.4l-0.1-0.8l0.5-2.4l-0.2-1.1l0.8,0.2l0.2,0.7
		l-0.3,1.7l0.1,0.7l0.6,1.5l-0.2,1.3l-1.2,2.6l-0.3,1.3l0.3,0.4l0.7,0.5l0.9,0.4l0.7,0.2l0.6-0.3l0.5-0.6l1.4-2.5l0.3-0.8l0.1-0.7
		l0.2-0.5l0.5-0.5l1.3-0.7l1-0.2l1.2-1.9l1.6-4.1l0.3-2.2l0-1.1l-0.3-1.1l-1-1.9l-0.4-1l0-1.2l0.3,0.1l0.8,0.3l-0.8-1.9l-0.6-1.8
		l-0.9-1.5l-1.8-1.1l-1-0.2l-0.9,0.1l-0.7,0.4l-0.5,0.7l-0.1,0.6l0.2,1.1l-0.1,0.6l-0.2,0.3l-0.3,0.2l-0.3,0.3l-0.1,0.6v-0.8l0.6-3
		l0.3-0.8l0.5-0.3l1.1-0.2l0.4-0.2l0.5-0.6l0.1-0.4l-0.2-1.9l-0.6-1.7l-0.2-1.7l-0.2-0.6l-0.5-0.8l-0.9-0.8l-0.9-0.2l-0.5,1l-1-0.5
		l-1.4-0.5l-0.7-0.6l1.1-0.7l0.6,0.6l0.7-0.3l0.2-0.7l-0.8-0.7l1.4-0.3l0.6-1.5l0.5-1.8l1-1.2l0.7-0.1l0.7,0.2l0.7,0.1l0.7-0.4
		l0.3-0.5L430,341l-0.6-0.5l-0.2-0.2l-0.2-0.1l-0.2,0l-0.1-0.1l-0.1-0.4l0.1-0.6l-0.1-0.3l-1-1.3l-0.9-1.6l-0.7-1.7l-0.3-1.5
		l0.2-0.9l0.6-0.2l1.9,0.1l1-0.2l0.7-0.4l0.6-0.5l0.6-0.8h0.3v0.4l-0.5,0.4l-0.2,0.5l0.1,0.5l0.6,0.1l0.3-0.3l1.4-1.9l0.2-1.3
		l-0.2-3.2l-0.2-1.1l0.5,0.5l0.4,0.5l0.2,0.3l-0.2-1.9l-0.2-0.9l-1.5-2.2l-0.4-0.4l-3.3-0.4l-0.8-0.3l-1.4-0.7l-1.6-0.4l-0.4-0.5
		l-0.3-0.7l-0.5-0.7l-0.8-0.7l-6.5-3.9l-0.5-0.6l0-0.6l1.7,1.1l1.9,0.7l9.9,1.9l1.7,0.7l0.1-0.9l0.3-1l0.4-0.8l0.4-0.3l0.2-0.6
		l-0.1-4.9l-0.4-0.4l-1.9-0.1l-0.8-0.1l-0.8-0.3l-0.7-0.6L427,304l1.3,0.8l0.6,0.2l0.8,0.1l0.8-0.1l0.6-0.2l0.3-0.5l-0.3-0.8
		l1.8-0.8l0.8-0.1l0.4,0.5l0.2-0.1l0.1,0l0-0.1l0.1-0.2l0.3,0.4l-1.3,0.6l-0.8,1.3l-0.2,1.5l0.8,2.2l0.2,0.2l0.7-0.5l1.3-0.4l1-0.6
		l0.6,0.1l0.9,0.5l0.3-1.1l-0.9-0.7l-0.5-0.5l0.1-0.2l0.9,0l0.5,0l0.3,0.3l0.2,0.8l0,2l-1.2,0.6l-2.9,0l-1.2,0.8l-0.4,1.2l-0.1,3.2
		l0.1,1l0.5,1.6l0.9,1.1l1.3-0.4l0,0.3l0.1,0.1l0.1,0l0.2,0.1l-0.6,0.5l0,0.7l0.8,1.8h-0.3l0.2,1l-0.4,1l-0.6,1.1l-0.3,1.2l-0.1,2.2
		l-0.6,3.3l0,0.6l0.1,0.6l0.5,1.4l3.9,5.3l0.3,0.7l0.2,1.2l0.4,0.9l0.4,0.8l0.4,0.9l0.4,1.8l0.6,1.5l0.1,0.6l0.2,0.4l0.7,1l0.3,1
		l0.4,0.3l0.5,0.2l0.4,0.3l0.6,1.9l0.2,0.3l1.5-0.1l0.6,0.2l0.4,1.5l0.7,1l0.2,0.5l0.3,0.5l1.4,1l0.3,0.7l0.7,0.5l1.5,0.1l1.6-0.3
		l1-0.5l0.1-1l-0.4-1.6l-0.7-1.5l-0.7-0.8l0.7-0.2l0.4,0.5l0.6,1.6l0.5,1l0.5,0.6l0.6,0.5l0.8,0.5l1.3,0.3l3.1-0.2l1,0.2l0.5-0.3
		l0.6-0.1l0.6,0l0.4,0l0.4-0.3l0.5-0.6l0.4-0.8l0.2-0.7l-0.6-1.1l-1.3-0.6l-2.9-0.7v-0.4l1.2,0l0.4-0.4l-0.2-0.6l-0.6-0.6v-0.3
		l1.7,0l0.8,0.1l0.6,0.2l0,0.2l0,0.8l0.1,0.2l0.2,0l0.2-0.1l1.5,0.3l0,0.1l0.8-0.1l0.8-0.2l0.6-0.5l0.2-0.8l-0.4-0.3l-0.8-0.4
		l-0.9-0.3l2.6-0.1l0.9-0.2l0.5-0.5l-0.1-0.5l-1-0.3v-0.4l1.1,0l0.8,0.2l0.7,0.3l0.8,0.6l-0.2-1.3l0.3-1.2l0.7-0.9l1.1-0.3l0.5-0.6
		l0.9-2.8l0.2-1h0.4l0,1.3l-0.8,2.3l-0.3,1.6l-0.5,0.7l-0.1,0.7l0.1,0.7l0.2,0.6l0.3,0.3l0.4-0.2l0.4,0.9l0.7,1l0.9,0.8l1.6,0.6
		l6.4,9l3.4,6.7l0.5,2l0.9,6.2l0.8,1.2l1.1,0.1l0.9-0.7l0-1l-0.5-0.3l-0.6-0.2l-0.5-0.4l-0.1-0.9l0.4-0.5l1.2-0.7l0.1-0.3l0.9-0.3
		l0.8-0.6l0.6-0.6l0.3-0.3l-0.1-0.4l0.5-2.1l0.1-0.8l0.7,0l0.3,0l-1.2,3.8l-0.5,1l-1.1,0.6l-1.3,0.4l-0.9,0.6l0.2,1.3l0.4,0.3
		l0.5,0.2l0.4,0.4l0.1,0.9l-0.3,0.5l-0.5,0.4l-0.4,0.5l-0.3,0.8l0,1.3l0.3,1.3l0.5,1.2l0.5,0.9h0.3v-1l0.4-0.7l0.4-0.1l0.3,0.7
		l-0.2-0.1l-0.5-0.2l0.1,1.9l1.3,5.5v2l0.2,0.5l0.7,0.8l0.2,0.5l0.2,2.1l0.2,1.1l0.3,0.7l0.3-0.5l0.4-0.4l0.5-0.2l0.5-0.1v0.4
		l-0.7,0.3l-0.5,0.4l-0.2,0.5l0.4,0.5l-0.9,0.5l-0.5,1.2l-0.1,1.3l0.5,0.5l0.8-0.2l1-0.3l2.3-0.2v0.4l-1.2,0.5l-0.3,0.8l0.3,0.4
		l0.8-0.6l0.3,0.4l-0.8,0.7l-0.6,0.1l-0.4,0.3l-0.2,1.2l0.2,0.8l0.5,0.6l0.5,0.1l0.3-0.9h0.3l0,0.6l-0.3,0.8l-0.1,0.8l0.4,0.6l0.8,0
		l0.6-0.8l0.7-1.8h-0.4l0.2-0.2l0.1-0.2l0.1-0.4l0.2,0.4v0.5l-0.2,0.5l-0.1,0.6l0.3,0.1l0.4,0.4l0.1,0.5l-0.3,0.5l0.2,0.5l-0.1,0.4
		l-0.8,0.9l0.2,0.9l-0.5,0.8l-0.7,0.7l-0.4,0.6l0,1l0.3,1.1l0.5,1l0.6,0.6l-1-0.3l-0.8,0.6l-0.6,1l-0.4,1l-0.2-0.1l-0.1,0l-0.1,0
		l-0.1-0.2h-0.3l0.2,0.9l0.4,1l0.5,0.8l0.6,0.3l0.5,0.5l2.8,5.1l0.3,1l0.1,1.3l-0.4,3.5l0.1,1.1l0.4,0.9l2.2,2.6l0.6,0.9l0.8,1.6
		l0.5,0.7l2.6,2.2l0.3,0.5l0.9,3.5l3.4,6.2l1.2,2.8l0.4,0.5l0.3,0.2l0.3,0.4l0.3,0.2l0.4-0.4l0.1-0.6l-0.1-0.6l-0.4-0.7l-0.9-2.8
		l-0.1-1l-0.2-0.6l-1.5-2.2l-0.5-2l-0.2-2.2l0.1-2.2l0.3-2.1l-2.1-1.7l-0.3-0.8l-0.3-0.8l-1.2-1.1l-0.4-0.7l-0.3-1l0.2-0.8l0.3-1.6
		l0.1-1l-0.4-2.1l0-1.1l0.3-0.9l1.4-2l0.7-2.3l0.6-1.1l0.8-0.1l1.6,0l1.9-2.3l1.6,0.5l0.7,0.9l0.2,0.9l0.1,0.9l0.3,0.9l0.4,0.4
		l0.5,0.3l1.1,0.4l2.1,0.2l1.7-0.4l1.3,0.3l1,2.2l0.4,2.2l0.4,1.1l0.6,0.7l1-0.1l1.2-0.8l1-1l0.5-0.9L535.7,426.4z"/>
</g>

</svg>
