<?xml version="1.0" encoding="utf-8"?>

<svg version="1.2" baseProfile="tiny" xmlns="http://www.w3.org/2000/svg" xmlns:xlink="http://www.w3.org/1999/xlink" x="0px"
	 y="0px" viewBox="266.8 171.9 307 250" xml:space="preserve">

<g id="Belgium">
	<g>
		<polygon points="355.5,198.5 353.5,198.2 351.7,198.3 351.5,198.3 348.3,199 347,199.1 345.9,199.4 345.8,199.4 344.9,200.3
			344.8,201.3 344.8,201.8 345,203.4 344.9,204.1 344.8,204.6 344.2,204.7 341,205.2 340.2,205.1 338.4,204.9 337.3,204.4
			336.3,204 336,203.9 334.1,201.8 333.7,200.7 333,198.6 333,195.7 333.3,192.6 333.1,190.9 332.6,187.7 314.8,193.5 298.7,204
			282.2,213.7 271.4,222 268.4,223 266.8,224.1 267.8,226.6 267.9,226.9 268.6,231.5 268.7,232.5 269.5,235 272.3,238.1 273.6,240
			273.9,242.5 273.7,242.8 273.4,243.3 272.2,244.4 271.5,245.1 271,246.2 271.8,249 272.6,251.7 272.5,252.6 271.9,254
			271.9,254.6 272,254.7 272.2,255 272.8,255.3 273.1,255.4 273.3,255.6 273.4,255.9 273.8,256.8 274.1,257.5 274.5,258.2
			274.6,258.2 275.1,258.4 276.2,258.7 276.9,258.7 278.4,258.5 279.2,258.5 280.3,259 280.7,259.7 281,260.6 281.5,261.5
			284.1,264 284.4,264.3 284.9,265.3 286,267.8 286.3,268.3 286.5,268.6 287.5,269.5 287.9,269.9 288.7,270.3 294.3,272.8
			294.3,272.9 294.4,272.9 294.7,273 294.8,273 295,273.1 295.5,273.2 295.8,273.3 296.9,272.5 298.3,270.1 299.3,268.4 300,267.6
			300.7,266.8 301.6,266.3 302.6,265.7 306,264.6 306.8,264.4 306.8,264.3 307,264 307,264.1 307.1,264.1 307.3,264 309.5,263.4
			313.4,262.1 313.8,262.2 315.4,262.7 316.8,263.9 318,266.1 318.2,266.4 317.8,266.7 318,267 318.9,268.7 319.9,271.1
			320.5,271.8 321.6,271.9 322.7,272.2 322.8,272.3 323.4,273.4 323.9,275.1 324.3,276.3 323.7,277.3 323.1,278.4 323.7,282
			325.8,289 325.9,293 326.3,294.4 326.5,294.6 327.6,296 328.7,296.8 332.2,298.6 333.6,299 334.8,298.9 335.5,298.8 336.3,298.5
			339,297.5 339.8,296.9 340.1,296.7 340.6,296.2 340.9,295.9 341.1,295.8 341.8,295.4 342.1,295.4 342.9,295.3 343.7,295.6
			344.1,295.7 344.6,296.4 344.5,297.4 344.4,297.5 343.7,298.8 344.7,299.5 349.8,299.5 351.6,299.9 353.4,300.8 354.9,302.5
			356.2,304.9 356.9,309.7 356.9,315.6 357.6,320.7 360.5,323.3 360.8,322.5 360.9,322.4 361,322.5 361.4,322.2 361.5,322
			361.6,321.8 361.7,321.6 362,320.9 363.4,318.5 363.4,318.4 363.4,201.1 		"/>
		<polygon fill="#FAE042" points="474.2,195.3 474.1,195.3 474,195.2 473.6,194.5 472.8,191.7 472.4,190.6 469.7,187.6 469.2,186.4
			469.4,184.7 469.5,183.6 470.4,181.6 470.7,179.4 469.7,177.5 469.1,176.4 466.8,174.8 466.7,174.7 466.6,174.5 465.4,174.8
			464.9,175.5 464.8,175.9 464.6,176.7 464.3,177.4 464,178.2 463.3,179.4 462.8,180.2 462.2,181 460.9,182.7 459.8,183.9
			458.8,184.8 457.1,185.3 455.5,184.5 454,183.8 453.2,183.6 452.5,183.4 446.9,183.2 445.2,182.5 445.7,181 446.6,180.9
			450.1,182.5 449.9,181.6 449.6,180.3 449.4,179.6 449.6,178.3 449.8,177.6 450.1,176.4 449.9,174.5 449.1,173.4 448.1,172.7
			447.7,172.5 446.9,172.2 446.3,172 445.2,171.9 442.6,173.2 436.4,180.8 435.6,181.4 434.5,181.8 433.1,181.8 430.7,181.2
			429,181.5 428.4,181.6 427.9,181.6 427.3,181.5 426.3,180.8 425.8,180.4 425.9,179.8 426,179.2 426.7,177.6 426.7,175.5
			426.1,174.4 425.1,174.2 424.8,174.2 422.7,174.6 421.2,175.2 418.5,176.2 414.3,178.6 415.3,179.7 415.1,180.6 414.6,181.6
			414.6,182.9 415,183.7 415.2,184 417,186.2 417.4,187.2 417.5,187.4 417.2,189.1 417.1,189.6 415.6,190.4 415,190.4 411.9,190.2
			411.3,190 410.3,189.7 408.3,188.6 407.4,188.1 405.1,188 406.3,189.5 406.9,190.5 407.2,191.8 407.1,194.5 407.4,195.6
			408,196.2 410.8,197.3 409.6,199.7 409,200.4 408.7,200.5 408.1,200.8 408.8,199.7 409,198.8 408.9,198 408.6,197.2 407.6,196
			406.2,194.7 404.9,193.1 404.3,190.8 403.7,189.6 402.2,188.2 402.1,188.2 402.1,188.7 401.5,191.7 401.4,192 401.1,192.9
			398,197.2 394,200.3 384.2,205.3 381.1,207.8 380.6,208.2 380,208.4 378.8,208.8 369.4,208.9 369.3,208.9 368.4,208.5
			367.2,207.1 367.1,205.8 367.2,204.4 366.8,202.7 365.3,201.7 363.4,201.1 363.4,318.4 364,317.8 364.6,317.5 365.1,317.3
			368.6,317 371.9,317.4 373.5,318.3 374.1,318.7 374.9,319.2 376,319.7 376.3,319.8 378.1,319.8 379.8,319.1 383.1,317.7
			384,317.6 384.7,317.5 386.2,318.2 386.3,318.2 388.9,321.1 389.5,321.5 390.6,322.2 392.2,323.6 392.7,324.7 394.3,328.3
			394.8,328.5 395.8,328.9 396.2,328.6 396.4,328.4 396.4,326.8 397.4,326.4 398.1,326.7 398.5,326.9 399.2,327.3 400.2,328.1
			400.7,329 400.6,329.6 400.5,330.2 399.9,331 399.8,331.1 397.9,332.6 397.1,333.8 397.1,333.9 396.7,334.8 396.3,337.1
			395.7,338.9 394.7,342 394.7,342.4 394.5,344.3 395.2,344.6 395.7,344.8 397.3,344.1 398.1,344 398.9,344.4 400.2,349.8
			400.4,350.3 400.7,351 401.2,352 401.2,352.8 400.4,353.2 399.3,353.7 398.8,354.1 397.5,355 396.9,355.5 396,356.3 395.4,357
			395.4,357.1 395.1,357.9 394.8,359.3 395.2,359.4 395.4,360.4 395.6,361.3 395.6,362.1 395.7,363.1 395.1,363.1 399.5,365.5
			399.7,365.6 400.6,366 404.4,365.3 406.7,365.1 408.8,365.6 418.6,368.4 419.4,368.6 421.7,368.2 430,363.9 432.8,362.5
			436.1,362.1 436.4,361.8 437,361.4 437.6,360.2 437.6,360.1 438.2,358.1 438.6,355.5 438.8,354.2 438.8,353.3 438.6,352.9
			438.5,352.6 438.5,352.4 438.3,351.9 438.5,350.7 439,349.7 447.5,341.1 449.6,340.1 449.6,340.2 449.9,341.9 450.8,342.3
			453.3,341.8 454,342.8 454,345 453.6,347.6 453.5,348.5 453.4,349.7 452.6,348.8 452.1,348.9 451,351.2 450.6,352.1 450.6,352.4
			450.5,353.2 450.6,354.2 450.5,355.3 450.5,355.5 449.6,357.7 447.4,363.2 447.1,365.3 448,367.1 449.6,367.7 451.8,368.6
			453,370.9 453.1,371.7 453.2,372.4 453,373.5 452.8,374 452.6,374.5 452.3,375.6 452.2,376 452,376.5 452,376.6 451.3,377.5
			451.1,378.3 451.3,378.9 452.1,380.2 452.3,380.9 452.3,385.5 453,386.4 453.8,386.5 455,386.7 455.5,386.6 456.8,386.4
			458.8,385.8 460.4,385.3 461.4,385.2 462.2,385.1 462.3,385.2 462.4,385.3 463.5,385.5 466.4,388.4 468,389.3 470.2,389.9
			470.8,390.1 471.8,391 473.2,393.1 474.6,395.1 474.6,195.5 		"/>
		<polygon fill="#ED2939" points="570.9,314.5 570.8,313 571.4,311.3 571.4,311.1 571.9,308.3 572,306.6 572,306.2 571.9,306
			571.8,305.8 571.7,305.8 571.2,305.7 570.7,304.9 570.5,304.5 570.1,303.2 569.9,302.3 569.9,302.1 569.8,301.6 569.9,301.3
			570.8,300.4 569.3,300.3 565.9,299.5 564.7,298.9 564.5,298.7 564.3,298.6 564.1,298.7 564,298.8 563.6,298.9 561.3,299.6
			560.6,299.6 560.4,299.4 560,299.1 559.5,298.1 559.3,297.6 559.1,297.5 558.5,297.1 559.1,296 558.2,295.9 557.6,295.6
			557.5,295.1 558.1,294.2 556.8,292.5 558.3,290.2 559.4,289.4 560.9,288.1 562.9,286.3 562.9,285.9 563.8,284.8 564,284.5
			564.4,283.7 564.2,283 558.6,282.9 557,282 556.1,280.1 557.2,279.4 553.2,273.4 552.3,272.1 550.7,270.6 549.4,270.5
			546.2,271.4 545.1,271.3 545,270.9 544.8,270.2 545.1,268.9 545.1,268.6 545,267.7 544.6,267.5 543.7,266.9 543.6,266.8
			543.6,266.4 543.7,266.3 543.8,266.2 542.8,266.4 542.2,266.5 536.4,266.3 536.3,266.3 535.7,266.1 537.2,268 537,268.3
			535.5,266.5 534.5,266.2 527.6,266.4 526.8,265.8 525.1,264.1 524.8,264 524.3,263.8 523.6,264.3 523.5,264.5 523,265.3
			523,265.3 522.6,265.9 522.1,266 521.7,266.1 521.4,266.1 520.8,266 520.1,265.6 519.7,265.3 519.4,265.2 519.3,265.2
			519.8,263.4 520.1,262.2 520.1,261.7 520.2,260.7 519.1,260.4 519,260.4 517.9,259.8 517.6,259.7 517.3,259.6 517,259.5
			517.2,259.3 515.9,258.4 514.8,256.7 514.6,256.4 514.5,255.5 514.4,253.6 515.5,252.4 520.2,247.2 520.4,247.1 521.1,246.8
			522,246.5 522.4,246.2 523.4,244.7 524.8,241.7 525.5,240.6 525.7,240.2 525,239.7 524.2,239.7 522.4,240.2 525.5,235.2
			526.8,232.1 525.7,230.6 525.8,229.6 525.9,229 526,228.5 526.2,227.7 526.9,227.3 527.8,228.1 528.4,227.3 528.4,227.2
			528.8,226.4 529.4,224.7 529.3,224.6 529.1,224.2 529,223.8 528.9,223.2 528.8,222.9 529.6,223 530.5,222.9 531,222.7
			531.3,222.6 531.5,222.5 532,222.2 530.2,220.3 530.4,218.8 530.9,218.3 531.5,217.7 531.3,217.1 530.6,215.4 529.3,215.4
			528.1,215.7 526.9,216 526.8,215.9 525.8,215 524.1,212.7 522.8,211.9 522.4,211.8 521.8,211.7 520.3,212 518.4,212.4
			517.1,212.4 516.7,212.1 516.2,211.7 515.4,210.8 514.9,210.4 514.3,210 509.8,208.7 507.9,207.2 507.6,204.3 507,201.8
			506.7,201.4 505.5,199.9 504.5,199.3 503.6,198.8 501.9,198.6 500.7,199.1 500.3,199.3 497,201.6 495.3,202.2 485.9,201.8
			483,202.5 482.9,202.5 481.5,202.2 481.5,197.7 480.1,195.9 479,195.7 478.6,195.7 475.5,196 474.6,195.5 474.6,395.1
			475.2,395.9 476,396.7 476.4,397 477.9,398.1 479.7,398.6 482,398 483.3,397.6 485,397.6 486.7,399.3 488.2,401.2 488.7,403
			488.5,403.3 488.4,403.5 487.9,403.8 487.8,403.8 487.6,405.6 487.7,406.2 487.8,406.8 488.2,407.3 489.5,407.5 489.9,407.4
			490,407.4 490.4,406.8 490.7,406.1 491,405.8 491.5,405.8 492,406.1 492.4,406.4 494.8,407.3 496.3,408.6 500.1,415.6
			500.4,416.8 500.4,418 500.1,419.2 500,420.3 500.1,420.5 500.5,421.4 502.2,421.9 502.7,421.6 504.3,420.7 505.4,419.9
			506.4,419.2 506.9,419 507.9,418.5 510.5,419.7 511.2,419.9 511.8,419.8 512.3,419.8 512.5,419.4 512.6,419.3 512.8,418.5
			513.8,417.2 515.8,416.2 517.6,416.6 519.3,417.4 521,417.7 521.1,417.7 522,417.3 523,415.8 523.9,415.4 524.8,415.5
			526.6,416.6 526.7,416.6 527.6,416.8 529.4,415.8 531.2,414 531.6,413 532,412 531.5,411.7 530.7,411.2 531.6,410.4 532.2,409.2
			532.6,408 533.2,406.4 533.8,405.6 534.6,404.9 535,403.8 534.8,403.1 534.6,402.2 534,401.7 532.4,401.5 531.9,401.1
			531.8,400.7 531.6,400.2 531.7,399.7 531.9,399.3 531.9,398.5 532,397.8 532.4,397.4 532.6,397.1 532.7,396.9 532.6,396.4
			532.6,396 532.1,395.3 531.6,395.3 531.5,395.4 531.2,395.5 530.7,395.4 530.5,395.3 529.9,394.6 528.8,394.3 528.4,394
			528.4,393.7 528.2,392 528.1,391.4 526.7,388.6 526.2,387.7 526.1,387.6 525.6,387 524.9,386.6 524.6,386.4 523.8,386.3
			523.7,386.3 522.9,385.9 522.1,384.5 521.9,383.8 521.6,383.1 521.5,381.6 521.9,380.4 522.8,379.8 522.1,379.1 522.2,378.7
			522.4,378.4 522.4,378.3 522.5,378.1 522.5,377.4 524.6,377.6 523.8,376.5 522.4,375.4 522.1,375.2 521.2,374.7 521.4,374
			521.5,373.5 522.5,371.8 524.3,368.8 524.5,368.2 524.6,368 524.7,367.6 524.8,367.4 525,367 525.1,366.7 525.2,366.5
			525.7,365.9 526.2,365.4 527.4,365.1 527.7,364.9 528.1,364.5 529,362.7 528.7,362.1 528.1,361.4 528.2,359.7 528.7,359.1
			530.3,358.4 530.8,357.9 530.9,357.8 530.9,357.7 531.1,356.8 531.1,355.2 531,354.2 531.3,353.7 531.5,353.4 532.7,352.3
			533,351.9 533.2,351.6 533.3,351.2 533.4,350.7 533.5,349.9 533.6,348.8 533.9,348 534.4,347.5 535.3,346.7 538.3,345.3
			539.5,344.1 540.1,342.3 540.1,342.1 540.4,340.7 541.1,339.5 541.9,339.4 542.8,339.3 544,338.3 544.1,338.4 544.5,338.9
			544.7,340.1 545.2,341 545.9,341.3 546.2,341.4 547.1,341.5 548.9,341.2 549,341.1 549.6,340.8 550.1,340.2 550.7,340.2
			551.7,341.1 551.8,341.2 552.1,342.3 552.1,343.5 552.2,344.1 552.3,344.5 553.4,345 554.1,344.2 554.3,343.6 554.4,343.4
			554.1,342.6 553.3,342 553.5,341.4 553.6,340.8 553.8,340 553.8,339.9 553.9,339.8 554.5,339.5 554.6,339.4 556.2,339.3
			556.6,339 556.8,338.9 557.3,337.7 557.3,336.3 557,335.2 556.9,334.9 555.8,333.7 556.6,332.6 557,332.3 558.5,331.3
			558.6,330.9 559.1,330 560.9,329.2 562.1,329 564.1,328.5 565.6,327.2 565.2,326.1 565.4,324.9 566,323.6 566.3,323.3
			566.8,322.7 567.4,322.3 567.8,322 568.7,322.1 569,322.2 569.6,322.4 570.7,322.6 572.8,322.2 573.2,321.8 573.8,321.1
			573.6,319.3 		"/>
	</g>
	<polygon fill="none" stroke="#999999" stroke-width="0.25" stroke-linecap="round" stroke-linejoin="round" points="573.6,319.3
		570.9,314.5 570.8,313 571.4,311.3 571.4,311.1 571.9,308.3 572,306.6 572,306.2 571.9,306 571.8,305.8 571.7,305.8 571.2,305.7
		570.7,304.9 570.5,304.5 570.1,303.2 569.9,302.3 569.9,302.1 569.8,301.6 569.9,301.3 570.8,300.4 569.3,300.3 565.9,299.5
		564.7,298.9 564.5,298.7 564.3,298.6 564.1,298.7 564,298.8 563.6,298.9 561.3,299.6 560.6,299.6 560.4,299.4 560,299.1
		559.5,298.1 559.3,297.6 559.1,297.5 558.5,297.1 559.1,296 558.2,295.9 557.6,295.6 557.5,295.1 558.1,294.2 556.8,292.5
		558.3,290.2 559.4,289.4 560.9,288.1 562.9,286.3 562.9,285.9 563.8,284.8 564,284.5 564.4,283.7 564.2,283 558.6,282.9 557,282
		556.1,280.1 557.2,279.4 553.2,273.4 552.3,272.1 550.7,270.6 549.4,270.5 546.2,271.4 545.1,271.3 545,270.9 544.8,270.2
		545.1,268.9 545.1,268.6 545,267.7 544.6,267.5 543.7,266.9 543.6,266.8 543.6,266.4 543.7,266.3 543.8,266.2 542.8,266.4
		542.2,266.5 536.4,266.3 536.3,266.3 535.7,266.1 537.2,268 537,268.3 535.5,266.5 534.5,266.2 527.6,266.4 526.8,265.8
		525.1,264.1 524.8,264 524.3,263.9 523.6,264.3 523.5,264.5 523,265.3 523,265.3 522.6,265.9 522.1,266 521.7,266.1 521.4,266.1
		520.8,266 520.1,265.6 519.7,265.3 519.4,265.2 519.3,265.2 519.8,263.4 520.1,262.2 520.1,261.7 520.2,260.7 519.1,260.4
		519,260.4 517.9,259.8 517.6,259.7 517.3,259.6 517,259.5 517.2,259.3 515.9,258.4 514.8,256.7 514.6,256.4 514.5,255.5
		514.4,253.6 515.5,252.4 520.2,247.2 520.4,247.1 521.1,246.8 522,246.5 522.4,246.2 523.4,244.7 524.8,241.7 525.5,240.6
		525.7,240.2 525,239.7 524.2,239.7 522.4,240.2 525.5,235.2 526.8,232.1 525.7,230.6 525.8,229.6 525.9,229 526,228.5 526.2,227.7
		526.9,227.3 527.8,228.1 528.4,227.3 528.4,227.2 528.8,226.4 529.4,224.7 529.3,224.6 529.1,224.2 529,223.8 528.9,223.2
		528.8,222.9 529.6,223 530.5,222.9 531,222.7 531.3,222.6 531.5,222.5 532,222.2 530.2,220.3 530.4,218.8 530.9,218.3 531.5,217.7
		531.3,217.1 530.6,215.4 529.3,215.4 528.1,215.7 526.9,216 526.8,215.9 525.8,215 524.1,212.7 522.8,211.9 522.4,211.8
		521.8,211.7 520.3,212 518.4,212.4 517.1,212.4 516.7,212.1 516.2,211.7 515.4,210.8 514.9,210.4 514.3,210 509.8,208.7
		507.9,207.2 507.6,204.3 507,201.8 506.7,201.4 505.5,199.9 504.5,199.3 503.6,198.8 501.9,198.6 500.7,199.1 500.3,199.3
		497,201.6 495.3,202.2 485.9,201.8 483,202.5 482.9,202.5 481.5,202.2 481.5,197.7 480.1,195.9 479,195.7 478.6,195.7 475.5,196
		474.2,195.3 474.1,195.3 474,195.2 473.6,194.5 472.8,191.7 472.4,190.6 469.7,187.6 469.2,186.4 469.4,184.7 469.5,183.6
		470.4,181.6 470.7,179.4 469.7,177.5 469.1,176.4 466.8,174.8 466.7,174.7 466.6,174.5 465.4,174.8 464.9,175.5 464.8,175.9
		464.6,176.7 464.3,177.4 464,178.2 463.3,179.4 462.8,180.2 462.2,181 460.9,182.7 459.8,183.9 458.8,184.8 457.1,185.3
		455.5,184.5 454,183.8 453.2,183.6 452.5,183.4 446.9,183.2 445.2,182.5 445.7,181 446.6,180.9 450.1,182.5 449.9,181.6
		449.6,180.3 449.4,179.6 449.6,178.3 449.8,177.6 450.1,176.4 449.9,174.5 449.1,173.4 448.1,172.7 447.7,172.5 446.9,172.2
		446.3,172 445.2,171.9 442.6,173.2 436.4,180.8 435.6,181.4 434.5,181.8 433.1,181.8 430.7,181.2 429,181.5 428.4,181.6
		427.9,181.6 427.3,181.5 426.3,180.8 425.8,180.4 425.9,179.8 426,179.2 426.7,177.6 426.7,175.5 426.1,174.4 425.1,174.2
		424.8,174.2 422.7,174.6 421.2,175.2 418.5,176.2 414.3,178.6 415.3,179.7 415.1,180.6 414.6,181.6 414.6,182.9 415,183.7
		415.2,184 417,186.2 417.4,187.2 417.5,187.4 417.2,189.1 417.1,189.6 415.6,190.4 415,190.4 411.9,190.2 411.3,190 410.3,189.7
		408.3,188.6 407.4,188.1 405.1,188 406.3,189.5 406.9,190.5 407.2,191.8 407.1,194.5 407.4,195.6 408,196.2 410.8,197.3
		409.6,199.7 409,200.4 408.7,200.5 408.1,200.8 408.8,199.7 409,198.8 408.9,198 408.6,197.2 407.6,196 406.2,194.7 404.9,193.1
		404.3,190.8 403.7,189.6 402.2,188.2 402.1,188.2 402.1,188.7 401.5,191.7 401.4,192 401.1,192.9 398,197.2 394,200.3 384.2,205.3
		381.1,207.8 380.6,208.2 380,208.4 378.8,208.8 369.4,208.9 369.3,208.9 368.4,208.5 367.2,207.1 367.1,205.8 367.2,204.4
		366.8,202.7 365.3,201.7 355.5,198.5 353.5,198.2 351.7,198.3 351.5,198.3 348.3,199 347,199.1 345.9,199.4 345.8,199.4
		344.9,200.3 344.8,201.3 344.8,201.8 345,203.4 344.9,204.1 344.8,204.6 344.2,204.7 341,205.2 340.2,205.1 338.4,204.9
		337.3,204.4 336.3,204 336,203.9 334.1,201.8 333.7,200.7 333,198.6 333,195.7 333.3,192.6 333.1,190.9 332.6,187.7 314.8,193.5
		298.7,204 282.2,213.7 271.4,222 268.4,223 266.8,224.1 267.8,226.6 267.9,226.9 268.6,231.5 268.7,232.5 269.5,235 272.3,238.1
		273.6,240 273.9,242.5 273.7,242.8 273.4,243.3 272.2,244.4 271.5,245.1 271,246.2 271.8,249 272.6,251.7 272.5,252.6 271.9,254
		271.9,254.6 272,254.7 272.2,255 272.8,255.3 273.1,255.4 273.3,255.6 273.4,255.9 273.8,256.8 274.1,257.5 274.5,258.2
		274.6,258.2 275.1,258.4 276.2,258.7 276.9,258.7 278.4,258.5 279.2,258.5 280.3,259 280.7,259.7 281,260.6 281.5,261.5 284.1,264
		284.4,264.3 284.9,265.3 286,267.8 286.3,268.3 286.5,268.6 287.5,269.5 287.9,269.9 288.7,270.3 294.3,272.8 294.3,272.9
		294.4,272.9 294.7,273 294.8,273 295,273.1 295.5,273.2 295.8,273.3 296.9,272.5 298.3,270.1 299.3,268.4 300,267.6 300.7,266.8
		301.6,266.3 302.6,265.7 306,264.6 306.8,264.4 306.8,264.3 307,264 307,264.1 307.1,264.1 307.3,264 309.5,263.4 313.4,262.1
		313.8,262.2 315.4,262.7 316.8,263.9 318,266.1 318.2,266.4 317.8,266.7 318,267 318.9,268.7 319.9,271.1 320.5,271.8 321.6,271.9
		322.7,272.2 322.8,272.3 323.4,273.4 323.9,275.1 324.3,276.3 323.7,277.3 323.1,278.4 323.7,282 325.8,289 325.9,293 326.3,294.4
		326.5,294.6 327.6,296 328.7,296.8 332.2,298.6 333.6,299 334.8,298.9 335.5,298.8 336.3,298.5 339,297.5 339.8,296.9 340.1,296.7
		340.6,296.2 340.9,295.9 341.1,295.8 341.8,295.4 342.1,295.4 342.9,295.3 343.7,295.6 344.1,295.7 344.6,296.4 344.5,297.4
		344.4,297.5 343.7,298.8 344.7,299.5 349.8,299.5 351.6,299.9 353.4,300.8 354.9,302.5 356.2,304.9 356.9,309.7 356.9,315.6
		357.6,320.7 360.5,323.3 360.8,322.5 360.9,322.4 361,322.5 361.4,322.2 361.5,322 361.6,321.8 361.7,321.6 362,320.9 363.4,318.5
		364,317.8 364.6,317.5 365.1,317.3 368.6,317 371.9,317.4 373.5,318.3 374.1,318.7 374.9,319.2 376,319.7 376.3,319.8 378.1,319.8
		379.8,319.1 383.1,317.7 384,317.6 384.7,317.5 386.2,318.2 386.3,318.2 388.9,321.1 389.5,321.5 390.6,322.2 392.2,323.6
		392.7,324.7 394.3,328.3 394.8,328.5 395.8,328.9 396.2,328.6 396.4,328.4 396.4,326.8 397.4,326.4 398.1,326.7 398.5,326.9
		399.2,327.3 400.2,328.1 400.7,329 400.6,329.6 400.5,330.2 399.9,331 399.8,331.1 397.9,332.6 397.1,333.8 397.1,333.9
		396.7,334.8 396.3,337.1 395.7,338.9 394.7,342 394.7,342.4 394.5,344.3 395.2,344.6 395.7,344.8 397.3,344.1 398.1,344
		398.9,344.4 400.2,349.8 400.4,350.3 400.7,351 401.2,352 401.2,352.8 400.4,353.2 399.3,353.7 398.8,354.1 397.5,355 396.9,355.5
		396,356.3 395.4,357 395.4,357.1 395.1,357.9 394.8,359.3 395.2,359.4 395.4,360.4 395.6,361.3 395.6,362.1 395.7,363.1
		395.1,363.1 399.5,365.5 399.7,365.6 400.6,366 404.4,365.3 406.7,365.1 408.8,365.6 418.6,368.4 419.4,368.6 421.7,368.2
		430,363.9 432.8,362.5 436.1,362.1 436.4,361.8 437,361.4 437.6,360.2 437.6,360.1 438.2,358.1 438.6,355.5 438.8,354.2
		438.8,353.3 438.6,352.9 438.5,352.6 438.5,352.4 438.3,351.9 438.5,350.7 439,349.7 447.5,341.1 449.6,340.1 449.6,340.2
		449.9,341.9 450.8,342.3 453.3,341.8 454,342.8 454,345 453.6,347.6 453.5,348.5 453.4,349.7 452.6,348.8 452.1,348.9 451,351.2
		450.6,352.1 450.6,352.4 450.5,353.2 450.6,354.2 450.5,355.3 450.5,355.5 449.6,357.7 447.4,363.2 447.1,365.3 448,367.1
		449.6,367.7 451.8,368.6 453,370.9 453.1,371.7 453.2,372.4 453,373.5 452.8,374 452.6,374.5 452.3,375.6 452.2,376 452,376.5
		452,376.6 451.3,377.5 451.1,378.3 451.3,378.9 452.1,380.2 452.3,380.9 452.3,385.5 453,386.4 453.8,386.5 455,386.7 455.5,386.6
		456.8,386.4 458.8,385.8 460.4,385.3 461.4,385.2 462.2,385.1 462.3,385.2 462.4,385.3 463.5,385.5 466.4,388.4 468,389.3
		470.2,389.9 470.8,390.1 471.8,391 473.2,393.1 475.2,395.9 476,396.7 476.4,397 477.9,398.1 479.7,398.6 482,398 483.3,397.6
		485,397.6 486.7,399.3 488.2,401.2 488.7,403 488.5,403.3 488.4,403.5 487.9,403.8 487.8,403.8 487.6,405.6 487.7,406.2
		487.8,406.8 488.2,407.3 489.5,407.5 489.9,407.4 490,407.4 490.4,406.8 490.7,406.1 491,405.8 491.5,405.8 492,406.1 492.4,406.4
		494.8,407.3 496.3,408.6 500.1,415.6 500.4,416.8 500.4,418 500.1,419.2 500,420.3 500.1,420.5 500.5,421.4 502.2,421.9
		502.7,421.6 504.3,420.7 505.4,419.9 506.4,419.2 506.9,419 507.9,418.5 510.5,419.7 511.2,419.9 511.8,419.8 512.3,419.8
		512.5,419.4 512.6,419.3 512.8,418.5 513.8,417.2 515.8,416.2 517.6,416.6 519.3,417.4 521,417.7 521.1,417.7 522,417.3 523,415.8
		523.9,415.4 524.8,415.5 526.6,416.6 526.7,416.6 527.6,416.8 529.4,415.8 531.2,414 531.6,413 532,412 531.5,411.7 530.7,411.2
		531.6,410.4 532.2,409.2 532.6,408 533.2,406.4 533.8,405.6 534.6,404.9 535,403.8 534.8,403.1 534.6,402.2 534,401.7 532.4,401.5
		531.9,401.1 531.8,400.7 531.6,400.2 531.7,399.7 531.9,399.3 531.9,398.5 532,397.8 532.4,397.4 532.6,397.1 532.7,396.9
		532.6,396.4 532.6,396 532.1,395.3 531.6,395.3 531.5,395.4 531.2,395.5 530.7,395.4 530.5,395.3 529.9,394.6 528.8,394.3
		528.4,394 528.4,393.7 528.2,392 528.1,391.4 526.7,388.6 526.2,387.7 526.1,387.6 525.6,387 524.9,386.6 524.6,386.4 523.8,386.3
		523.7,386.3 522.9,385.9 522.1,384.5 521.9,383.8 521.6,383.1 521.5,381.6 521.9,380.4 522.8,379.8 522.1,379.1 522.2,378.7
		522.4,378.4 522.4,378.3 522.5,378.1 522.5,377.4 524.6,377.6 523.8,376.5 522.4,375.4 522.1,375.2 521.2,374.7 521.4,374
		521.5,373.5 522.5,371.8 524.3,368.8 524.5,368.2 524.6,368 524.7,367.6 524.8,367.4 525,367 525.1,366.7 525.2,366.5 525.7,365.9
		526.2,365.4 527.4,365.1 527.7,364.9 528.1,364.5 529,362.7 528.7,362.1 528.1,361.4 528.2,359.7 528.7,359.1 530.3,358.4
		530.8,357.9 530.9,357.8 530.9,357.7 531.1,356.8 531.1,355.2 531,354.2 531.3,353.7 531.5,353.4 532.7,352.3 533,351.9
		533.2,351.6 533.3,351.2 533.4,350.7 533.5,349.9 533.6,348.8 533.9,348 534.4,347.5 535.3,346.7 538.3,345.3 539.5,344.1
		540.1,342.3 540.1,342.1 540.4,340.7 541.1,339.5 541.9,339.4 542.8,339.3 544,338.3 544.1,338.4 544.5,338.9 544.7,340.1
		545.2,341 545.9,341.3 546.2,341.4 547.1,341.5 548.9,341.2 549,341.1 549.6,340.8 550.1,340.2 550.7,340.2 551.7,341.1
		551.8,341.2 552.1,342.3 552.1,343.5 552.2,344.1 552.3,344.5 553.4,345 554.1,344.2 554.3,343.6 554.4,343.4 554.1,342.6
		553.3,342 553.5,341.4 553.6,340.8 553.8,340 553.8,339.9 553.9,339.8 554.5,339.5 554.6,339.4 556.2,339.3 556.6,339 556.8,338.9
		557.3,337.7 557.3,336.3 557,335.2 556.9,334.9 555.8,333.7 556.6,332.6 557,332.3 558.5,331.3 558.6,330.9 559.1,330 560.9,329.2
		562.1,329 564.1,328.5 565.6,327.2 565.2,326.1 565.4,324.9 566,323.6 566.3,323.3 566.8,322.7 567.4,322.3 567.8,322 568.7,322.1
		569,322.2 569.6,322.4 570.7,322.6 572.8,322.2 573.2,321.8 573.8,321.1 	"/>
</g>

</svg>
