<?xml version="1.0" encoding="utf-8"?>

<svg version="1.2" baseProfile="tiny" xmlns="http://www.w3.org/2000/svg" xmlns:xlink="http://www.w3.org/1999/xlink" x="0px"
	 y="0px" viewBox="231.3 158.5 377.9 276.3" xml:space="preserve">

<g id="Burkina_Faso">
	<g>
		<polygon fill="#009E49" points="437.3,302.6 448,335.6 420,315.2 392,335.6 402.7,302.6 394.9,297 278.8,297 276.1,299.2
			277.3,301.5 276.8,302.1 275.4,302.1 273.7,303.1 273.2,304 273.1,304.8 272.8,305.4 271.9,305.9 271.4,305.9 270.4,305.8
			269.9,305.9 269.4,306.4 268.8,307.6 268.4,308.1 267.7,308.5 266.3,308.7 265.5,309 264.6,308.2 263.6,308.2 261.5,308.9
			260.6,308.9 259.5,308.6 258.5,308.5 257.5,309 257,309.3 256.6,309.6 256.1,309.7 255.5,309.7 254.7,309.8 252.8,309.7
			252,309.8 251.3,310.1 249.7,311.1 248.3,311.5 247.6,312.1 246.3,313.6 244.4,315.1 243.5,316.4 243.2,316.7 242.8,316.7
			242.5,316.6 242.3,316.4 242,316.2 241.7,316.2 241.4,316.4 241.3,316.6 241.1,316.7 239.4,316.9 239.2,317.1 238.9,317.4
			238.6,317.5 238.4,317.4 237.8,317 237.6,316.9 236.9,317 236.6,317.1 236.6,317.3 236.9,317.9 237.2,318 238.4,318.7
			238.6,318.9 239.4,318.7 239.8,318.8 240.3,318.9 241.3,319.3 242,319.8 242.6,320.5 242.9,321.4 243,322.3 242.9,323.4
			242.5,325.3 242.2,325.7 241.9,326.2 241.6,326.8 241.6,327.3 242,327.9 242.4,328 242.9,327.9 243.4,328 245.1,329.3
			245.6,331.1 245.6,335.1 245.8,336.2 245.9,336.8 245.5,337.2 244.4,337.7 243.7,338.3 243.5,339.2 243.8,344.3 243.7,345
			243.1,346.1 241.6,347.6 241.2,348.7 240.9,350.7 240.4,351.3 239.3,352 238.5,352.4 237.7,352.6 232.9,353.2 232.2,353.7
			232.1,354.5 232.6,357.4 232.3,358.7 233.4,358.4 234.1,359.7 234.9,363.1 235.5,364.1 235.7,364.7 235,367.5 235,367.9
			235,368.4 234.7,368.6 234.3,368.8 233.9,369.2 233.7,369.9 233.2,372.5 233.3,372.9 233.5,373.7 233.6,374.1 234.3,374.4
			233.8,374.8 233.5,375.6 233.4,376.3 233.8,376.7 233.9,377.1 233.3,379.7 232.2,381.4 232,381.8 231.6,384.2 231.3,385
			232.2,385.4 233,386.5 233.6,387.7 233.6,388.6 234.3,388.8 234.7,388.9 235.1,388.9 235.4,389.1 235.6,389.5 235.8,389.9
			235.9,390.2 236.4,390.6 237.1,391 237.9,391.2 238.8,391.2 239.1,391.1 239.2,390.8 239.4,390.6 239.7,390.7 239.9,390.8
			240.1,390.9 240.7,390.9 241.2,390.7 241.5,390.4 241.8,390.1 242.1,389.9 242.9,389.9 245.1,390.2 245.9,390 248.2,391.4
			248.7,391.4 249,390.7 249.8,390.8 250.6,391.3 251,392 251,394.7 250.8,394.9 250.6,395.2 250.7,395.4 251.3,395.5 251.6,395.4
			251.9,395.1 252.1,394.8 252.3,394.5 252.4,395.5 252,396.4 252,396.9 253.2,396.8 252.9,397.7 253.2,398.2 254.4,399
			254.5,399.4 253.4,399.7 252.9,400.2 253.3,400.2 253.7,400.3 253.9,400.4 254.2,400.5 253.6,400.8 254,401.4 254.5,401.4
			255.1,401.2 255.5,400.8 255.8,401.7 256.3,402.1 256.9,402.4 257.5,402.8 258,403.5 258.4,404.4 258.2,405 257.2,405.1
			257.4,405.6 257.9,406.3 258.4,407.4 258.5,407.7 257.8,409.7 257.9,410.2 259.3,411.5 259.7,411.7 260,411.4 260.2,410.9
			260.6,410.7 261.2,410.8 261.4,411 261.5,411.3 261.9,411.4 263.1,411.4 264,411.8 264.7,412.3 265,413.3 265.9,413 266.3,413.8
			266.5,414.9 267,415.7 266.2,415.9 265.8,416 265.4,416 265.4,416.3 265.8,416.7 265.9,416.9 266,417.3 266.6,417.1 267.3,418.1
			268,418 267.7,417.7 267.6,417.5 267.8,417.3 268.3,417.3 268.8,417.4 269,417.5 269.2,417.8 269.5,418.1 270,418.6 270.2,418.9
			270.2,419.4 270.4,419.8 270.6,420 271.3,420.3 271.5,420.5 271.5,420.7 271.5,420.8 271.9,420.6 272.3,420.4 272.6,420
			272.8,419.7 272.7,419.6 273.4,419.6 274,419.5 274.6,419.2 275.2,418.6 275.7,419.1 276.4,420.1 277,420.3 277.7,420.1
			277.9,419.6 277.9,418.9 278.1,418.3 278.3,417.9 278.3,417.8 278.4,417.7 279.3,417.7 279.7,417.7 280,417.9 280.1,418.1
			280,419 279.5,420.2 279.4,421.1 280.1,422.1 281.6,422.2 283.3,422.1 284.5,422.4 284.9,423.1 285.3,424.7 285.7,425.2
			286.3,425.5 286.5,425.1 286.5,424.3 286.6,423.6 287.3,423.8 288.6,424.3 289,423.9 289.6,422.7 289.7,422.1 289.6,421
			289.6,420.5 289.8,420.1 291.3,418.6 290.7,418.4 290.5,418.4 291.1,417.8 292,417.5 293.8,417.3 294.6,416.8 296,414.9
			296.9,414.2 297.7,414.1 300.4,414.9 300.9,415.2 301.2,415.3 301.5,415.2 301.6,415 301.6,414.7 301.6,414.6 302.4,414.2
			302.8,414.1 304.3,414.1 304.6,413.4 304.8,412.6 305.5,412.2 306.5,412 308.3,410.8 309.3,410.5 312.5,410.5 313.4,410.2
			313.8,409.9 314.6,409.1 315,408.8 315.7,408.5 318.1,408.3 318.4,408.3 319,408.7 319.3,408.7 319.6,408.6 320,408 320.2,407.9
			320.8,408.1 321.2,408.5 321.5,408.9 322,409.2 322.8,409.4 325.7,409 333.2,409.6 333.8,409.9 334.6,410.6 335.2,410.9
			335.6,410.8 336.2,410.4 336.6,410.2 336.9,410.5 336.8,411.5 336.9,412.5 337.4,413.1 338.5,413 339.2,412.3 340.8,410.1
			341.5,409.5 342.1,409.9 342.1,410.8 342,411.9 342.2,412.9 343.1,413.4 344.1,413.4 345.3,413.7 346.2,414.8 346.8,417.1
			347.3,418.3 348.1,419 349,419 350.6,418.5 351.5,418.7 352.3,419.5 352.9,420.6 353.7,422.9 356.1,427.5 360.8,433.8
			361.9,434.6 363.1,434.7 364,433.9 365.1,431.5 366.6,430.1 364.9,427.9 363.2,426.3 363,425.8 362.9,425.1 362.9,424.3
			363.2,423.5 363.6,422.8 364.2,422.3 363.7,421.9 363.5,421.4 363.5,421 363.2,420.6 362.8,420.4 362.5,420.4 362.3,420.4
			361.9,419.9 361.6,418.9 361.7,417.9 362.5,416.3 364.2,414.5 364.5,414 364.4,413.5 363.2,411.7 363,410.5 363.5,408.3
			363.5,407.1 363.2,406.2 362.1,404.6 361.9,403.6 361.9,399.5 361.4,397.3 361.4,396.3 362,395.3 363,394.6 363.4,394.2
			363.5,393.5 363.5,392.9 363.3,392.6 363,392.5 362.5,392.2 362.1,392 361.7,392 361.4,391.9 361.2,391.4 361.1,391.1 360.7,391
			360.2,390.9 359.8,390.7 359.4,389.9 359.4,388.9 359.6,387.9 359.9,387.2 360.3,386.8 360.6,386.5 361.1,386.3 361.7,386.3
			362.2,386.1 362.7,385.6 362.9,385.1 362.7,385 361.5,384.9 360.8,384.8 360.2,384.5 358.5,383 358.1,382.4 358,381.5
			357.8,381.2 357.2,380.6 357,380.3 356.8,379.8 356.8,378.8 356.6,378.3 355.2,375.8 355,374.9 355.2,374.4 355.8,373.2
			356.1,372.4 356.2,372.3 356.3,372.1 356.3,371.7 356.2,371.5 356,371.4 355.8,371.4 355.7,371.4 355.5,370.7 355.6,370.4
			356.2,369.9 356.4,369.4 356.6,368.3 357.4,367 357.9,364.8 358.3,363.8 358.9,363 359.7,362.4 360.3,361.7 360.6,360.6
			360.3,359.7 359.8,358.8 359.5,357.9 359.6,357.6 359.6,357.3 363.7,357.4 363.7,357.9 369.2,357.8 378.5,357.7 390.1,357.6
			400.8,357.5 411.3,357.4 418.7,357.4 419.3,357 419.6,356.2 420.4,355.9 426.5,356.1 429.1,357.1 430.3,357.4 436.4,357.4
			442.2,357.5 442.6,356.7 443.9,356.5 450.5,357.1 450.9,357.1 451.3,357.4 451.6,358 451.9,358.2 452.4,358.2 452,358.8
			452.9,358.7 453.9,357.6 455,357.4 455.2,357 455.5,356.9 455.8,357 456,357.4 461.8,357.5 461.9,358 462.1,358.1 462.4,358
			462.9,358 463.2,358.3 462.9,358.7 462.6,359.1 462.4,359.4 464.7,361.7 465.6,361.1 466.1,360 466.4,358.9 466.8,358.1
			467.5,357.8 468.5,357.7 470.4,357.8 470.6,357.7 470.7,357.6 470.9,357.5 471,357.4 471.4,356.8 472.7,356.2 473.2,355.8
			473.5,355.3 473.6,354.2 473.8,353.5 474.7,352.3 475.7,352.3 476.6,353 477.4,354 479.8,352.3 480.4,351.7 480.8,351
			480.7,350.6 480.5,350.1 480.6,349.3 487.1,350.7 492,351.7 497.9,352.9 508.8,355.1 518.3,357 518.4,357.1 518.5,357.2
			518.5,357.4 518.4,357.6 518.4,357.8 518.3,358 518.1,358.2 518.9,358.4 518.3,360.4 524.3,358.3 527.3,357.8 531.9,357.7
			538.1,357.6 539.5,358.4 540.2,358.4 541,358.5 541.3,358.2 541.4,357.6 541.3,357.1 541,356.8 540.7,356.6 540.5,356.2
			540.5,355.6 540.5,355.2 540.7,355 541.1,354.4 541.4,353.8 541.7,353.4 541.9,353.3 542.1,353.4 543.2,353.6 543.5,353.8
			543.7,354 544,354.1 544.1,354.2 544.4,354.7 544.5,354.8 544.8,354.8 545.3,354.6 545.5,354.5 546.9,354.7 547.4,354.8
			547.6,355.1 547.9,355.5 548.2,355.9 548.4,355.6 548.5,354.9 547.9,354.3 547.6,353.8 547.5,353.3 547.5,352.7 547.4,352.2
			547.3,352.2 546.9,352 546.7,351.9 546.7,351.6 546.8,351 546.7,350.8 546.3,350.7 546,351 545.8,351.1 545.8,350.3 546,350.2
			547.6,349.9 547.9,349.7 548.2,348.8 548.4,348.6 548.9,348.6 549.9,349 550.4,349.2 550.1,348.3 549.9,346.7 549,345.2
			549.3,344.6 549.8,344.2 550.3,343.4 550.7,343.8 551.1,344.3 551,344.6 551.4,344.6 551.7,344.5 551.9,344.3 552.4,344.2
			553.3,344.3 554,344.5 555.6,345.2 556.2,344.1 556.3,343.7 556.2,343.2 555.7,342.8 555.6,342.4 555.9,341.8 556.4,342.1
			556.9,342.7 557.3,343.2 557.6,342.8 557.9,342.7 558.2,342.8 558.6,343.2 559.4,342.5 559.3,341.9 558.9,341.3 558.6,340.4
			559,339.5 559.9,338.9 561,338.4 561.8,337.9 561.4,336.9 561.4,336.5 561.8,335.9 562.4,335.5 563,335.3 563.5,335 563.8,334.3
			564.6,334.7 565.5,334.9 570,335.3 569.9,335.6 569.8,336.3 569.7,336.6 570.5,336.5 571.5,338.4 572.5,338.1 573.3,337.7
			575.5,337.2 576.4,336.8 577.1,336.5 579.2,336.7 580.2,336.6 582,335.8 582.9,335.7 583.8,335.9 584.2,335.6 584.8,335.7
			586,336.3 588.1,337.1 589.7,337.2 591.1,336.6 597.6,329.9 601.1,327.1 603.6,325.7 604.3,325 604.5,324.6 604.4,324
			604.4,323.2 605,321.8 606.8,319.8 607.5,318.5 608.8,314 609.2,313.8 606.7,311.7 602.9,306.4 599.5,301.7 596.2,297 445.1,297
					"/>
		<polygon fill="#EF2B2D" points="601.5,285.1 601.3,284.8 600.8,284 600.6,283.4 600.3,280.5 600.1,279.9 599.8,279.2 599.3,278.7
			598.5,278.1 598,277.7 597.5,277.2 597.3,276.9 597,276 595.8,274.5 593.8,274 589.2,273.6 588.8,273.9 587.9,274.7 587.4,275.1
			587.1,275 586.7,274.9 586.3,274.9 586.1,275.2 585.8,275.8 585,277 584.5,278 583.9,278.8 583.1,279.4 582.2,279.4 576.2,278.9
			571.3,278.5 569.7,278.1 568.4,277.3 565.1,274.6 562.5,272.4 558.6,269.1 553.8,265.1 551,262.7 548.2,260.4 546.8,259.7
			543.4,259.4 542,258.6 541.6,257.8 541.5,256.9 541.4,252.9 541.4,248.3 541.4,244.2 542,242.2 543,242.4 546.8,243.9
			549.4,244.6 550.5,245 550.8,244.9 551.3,243.3 551.5,242.7 551.8,242.4 552.6,242.7 553.4,243.4 554.3,243.8 555.6,243.3
			554.7,242.3 554,241.8 553.2,241.6 551.2,241.3 550.3,241.1 545.1,238.6 543.5,237.5 542.6,236 542.4,233.8 540.5,231.8
			537.9,230.2 535.7,229.5 533.9,229.7 533,229.7 532.1,229.2 531.5,228.7 531.5,228.3 531.6,228.1 531.7,228 531.6,227.7
			531.6,227.3 531.5,226.9 531,226.8 524.7,227 523.4,226.6 522.8,225.4 523,224.6 523.4,223.6 523.7,222.7 523.4,222.2
			522.5,221.9 521.9,221.3 521.5,220.7 519.8,219.6 519.1,218.9 518.5,218.2 518.1,217.2 517.8,216.8 516.8,216.2 516.5,215.8
			516.5,215.3 516.8,214.4 516.9,214 516.3,213.4 515.5,213 514.7,212.5 514.3,211.6 514.2,210.7 513.7,210.3 513.1,210
			512.7,209.5 512.7,209.1 513.1,208.3 513.1,208 512.9,207.5 512.7,207.3 512.4,207 512.1,206.7 511.5,205.8 511.2,205.2
			511.4,204.7 512.6,202.9 512.8,202.3 513.1,200.8 513.2,200.3 513.7,199.8 513.8,199.4 513.6,199.1 511.6,196.3 504.1,189.5
			502.6,187.1 502.4,184.6 505.5,175.6 505.2,174.1 503.8,171.2 503.9,169.8 504.5,169.1 505.2,168.5 505.6,167.9 505.5,166.8
			493.5,162.6 487.1,159.9 483.7,159.1 480.8,159.7 477.8,161.5 476.1,162.3 474.7,162.3 474.2,161.6 473.1,158.7 472.7,158.5
			460.7,158.5 459.1,158.9 457.7,160 455.1,162.6 455.1,162.6 445.2,171.3 443.5,172.4 441.7,173.2 432.6,175.4 430.6,176.4
			414,187.1 410.7,187.7 407.3,187.9 403.4,187.6 401.1,187.7 399.7,188.3 399.3,189.6 398.4,201.7 398.2,202.2 397.8,202.5
			394.6,204 393.8,204.1 392.3,203.8 381.1,198.4 377.5,197.7 374.9,198.3 371,200.5 369.9,201.4 366.4,205.4 359.4,209.3
			358.1,211.4 358.4,211.3 358.5,211.4 358.6,211.5 358.7,211.6 356.8,217.9 356,219.3 355.2,221.2 355.5,223.8 356.8,228.4
			353.5,229.7 353.1,229.7 352.8,229.6 352.4,229.4 352,229.2 350.9,229.1 350.5,229.2 349.9,229.5 349.1,230.4 348.6,230.6
			348.2,229.9 348.1,229.1 347.9,228.7 347,227.9 345.8,227.2 344.8,227.2 343.8,227.4 342.4,227.3 340.3,225.7 339,225.2
			338.1,226.2 339.1,226.9 339.4,228.1 339.2,230.8 338.9,232 338.2,233.8 339.9,245.9 339.3,246.4 331.4,246.8 330.4,247.2
			330.2,248.6 330.8,250.3 330.8,251.2 330.3,252 329.8,252.1 327.1,251.7 326.1,251.7 325.8,251.7 325.3,251.4 324.6,250.6
			324.3,250.5 323.6,250.6 323.3,250.5 319.4,247.4 317.2,246.1 313.7,243.3 312.8,242.9 310.8,242.4 309.2,241.7 308.4,241.6
			307.4,241.7 306.5,241.6 305.4,241.4 304.8,240.9 305.4,240.3 305.8,240 306.8,239.1 307.1,239 307.6,238.9 307.9,238.7
			308,238.2 307.7,238.1 306.5,237.9 306.1,237.7 306,237.4 305.7,236.4 305.5,236 305.3,235.9 305.1,235.8 304.9,235.9 304.8,236
			304.1,236.8 304.4,237 305,237 305.4,237.3 305.1,237.7 304.5,238.3 303.8,238.8 303.3,239 302.7,239.2 302,240 301.5,240.3
			300.3,240.6 299.9,240.8 299.1,241.5 298.6,242.4 297.8,244.4 297,245.6 296.1,246.6 295.6,246.9 295.1,246.9 294.7,246.8
			294.2,246.9 293.5,247.4 292.6,248.2 291.9,249 291.7,249.8 292,250.2 293.1,250.8 293.2,251.2 292.8,251.6 292.3,251.8
			289.2,251.6 288.4,252 287.8,253.6 287.5,254 287.3,254.4 287.3,255 287.5,255.5 288.9,256.7 290.2,259.5 290.8,260.4
			292.2,261.6 293.1,262.7 293.5,264 293.3,266.8 293.9,269 293.9,269.6 292.9,272.7 292.4,273.3 291.7,273.8 290.8,274.1
			289.8,274.2 289.2,274 287.8,273.2 286.4,272.9 284.8,273 283.3,273.4 281.9,274 281.4,274 281,273.9 280.9,274.1 280.6,276.6
			281,277.4 283.1,279 283.9,279.8 284.9,282.1 285.3,282.7 285.5,282.9 285.6,283 285.3,283.7 284.6,284.6 283.7,285.5
			282.9,286.5 282.5,287.7 284.2,291.8 284.6,293.9 283.2,294.2 282.8,293.8 282.4,293.2 282,292.9 281.3,292.9 280.7,293.2
			280.6,293.6 280.6,293.9 280.5,294.7 280.5,295.3 280.5,295.6 280.3,295.7 278.8,297 394.9,297 374.7,282.3 409.3,282.3
			420,249.3 430.7,282.3 465.3,282.3 445.1,297 596.2,297 596,296.8 593.9,293.9 593,292.2 593.1,290.8 593.9,290.2 596.6,289.6
			596.8,289.4 597.2,289 597.5,288.8 597.6,288.9 598.1,289.1 598.4,289.1 601.2,288.9 601.9,288.7 602.2,288.2 602.2,287.1
			602.2,286.9 602.3,286.4 602.3,286.2 602.1,285.8 		"/>
		<polygon fill="#FCD116" points="392,335.6 420,315.2 448,335.6 437.3,302.6 445.1,297 465.3,282.3 430.7,282.3 420,249.3
			409.3,282.3 374.7,282.3 394.9,297 402.7,302.6 		"/>
	</g>

		<polygon fill="none" stroke="#999999" stroke-width="0.25" stroke-linecap="round" stroke-linejoin="round" stroke-miterlimit="10" points="
		606.7,311.7 602.9,306.4 599.5,301.7 596,296.8 593.9,293.9 593,292.2 593.1,290.8 593.9,290.2 596.6,289.6 596.8,289.4 597.2,289
		597.5,288.8 597.6,288.9 598.1,289.1 598.4,289.1 601.2,288.9 601.9,288.7 602.2,288.2 602.2,287.1 602.2,286.9 602.3,286.4
		602.3,286.2 602.1,285.8 601.5,285.1 601.3,284.8 600.8,284 600.6,283.4 600.3,280.5 600.1,279.9 599.8,279.2 599.3,278.7
		598.5,278.1 598,277.7 597.5,277.2 597.3,276.9 597,276 595.8,274.5 593.8,274 589.2,273.6 588.8,273.9 587.9,274.7 587.4,275.1
		587.1,275 586.7,274.9 586.3,274.9 586.1,275.2 585.8,275.8 585,277 584.5,278 583.9,278.8 583.1,279.4 582.2,279.4 576.2,278.9
		571.3,278.5 569.7,278.1 568.4,277.3 565.1,274.6 562.5,272.4 558.6,269.1 553.8,265.1 551,262.7 548.2,260.4 546.8,259.7
		543.4,259.4 542,258.6 541.6,257.8 541.5,256.9 541.4,252.9 541.4,248.3 541.4,244.2 542,242.2 543,242.4 546.8,243.9 549.4,244.6
		550.5,245 550.8,244.9 551.3,243.3 551.5,242.7 551.8,242.4 552.6,242.7 553.4,243.4 554.3,243.8 555.6,243.3 554.7,242.3
		554,241.8 553.2,241.6 551.2,241.3 550.3,241.1 545.1,238.6 543.5,237.5 542.6,236 542.4,233.8 540.5,231.8 537.9,230.2
		535.7,229.5 533.9,229.7 533,229.7 532.1,229.2 531.5,228.7 531.5,228.3 531.6,228.1 531.7,228 531.6,227.7 531.6,227.3
		531.5,226.9 531,226.8 524.7,227 523.4,226.6 522.8,225.4 523,224.6 523.4,223.6 523.7,222.7 523.4,222.2 522.5,221.9 521.9,221.3
		521.5,220.7 519.8,219.6 519.1,218.9 518.5,218.2 518.1,217.2 517.8,216.8 516.8,216.2 516.5,215.8 516.5,215.3 516.8,214.4
		516.9,214 516.3,213.4 515.5,213 514.7,212.5 514.3,211.6 514.2,210.7 513.7,210.3 513.1,210 512.7,209.5 512.7,209.1 513.1,208.3
		513.1,208 512.9,207.5 512.7,207.3 512.4,207 512.1,206.7 511.5,205.8 511.2,205.2 511.4,204.7 512.6,202.9 512.8,202.3
		513.1,200.8 513.2,200.3 513.7,199.8 513.8,199.4 513.6,199.1 511.6,196.3 504.1,189.5 502.6,187.1 502.4,184.6 505.5,175.6
		505.2,174.1 503.8,171.2 503.9,169.8 504.5,169.1 505.2,168.5 505.6,167.9 505.5,166.8 493.5,162.6 487.1,159.9 483.7,159.1
		480.8,159.7 477.8,161.5 476.1,162.3 474.7,162.3 474.2,161.6 473.1,158.7 472.7,158.5 460.7,158.5 459.1,158.9 457.7,160
		455.1,162.6 455.1,162.6 445.2,171.3 443.5,172.4 441.7,173.2 432.6,175.4 430.6,176.4 414,187.1 410.7,187.7 407.3,187.9
		403.4,187.6 401.1,187.7 399.7,188.3 399.3,189.6 398.4,201.7 398.2,202.2 397.8,202.5 394.6,204 393.8,204.1 392.3,203.8
		381.1,198.4 377.5,197.7 374.9,198.3 371,200.5 369.9,201.4 366.4,205.4 359.4,209.3 358.1,211.4 358.4,211.3 358.5,211.4
		358.6,211.5 358.7,211.6 356.8,217.9 356,219.3 355.2,221.2 355.5,223.8 356.8,228.4 353.5,229.7 353.1,229.7 352.8,229.6
		352.4,229.4 352,229.2 350.9,229.1 350.5,229.2 349.9,229.5 349.1,230.4 348.6,230.6 348.2,229.9 348.1,229.1 347.9,228.7
		347,227.9 345.8,227.2 344.8,227.2 343.8,227.4 342.4,227.3 340.3,225.7 339,225.2 338.1,226.2 339.1,226.9 339.4,228.1
		339.2,230.8 338.9,232 338.2,233.8 339.9,245.9 339.3,246.4 331.4,246.8 330.4,247.2 330.2,248.6 330.8,250.3 330.8,251.2
		330.3,252 329.8,252.1 327.1,251.7 326.1,251.7 325.8,251.7 325.3,251.4 324.6,250.6 324.3,250.5 323.6,250.6 323.3,250.5
		319.4,247.4 317.2,246.1 313.7,243.3 312.8,242.9 310.8,242.4 309.2,241.7 308.4,241.6 307.4,241.7 306.5,241.6 305.4,241.4
		304.8,240.9 305.4,240.3 305.8,240 306.8,239.1 307.1,239 307.6,238.9 307.9,238.7 308,238.2 307.7,238.1 306.5,237.9 306.1,237.7
		306,237.4 305.7,236.4 305.5,236 305.3,235.9 305.1,235.8 304.9,235.9 304.8,236 304.1,236.8 304.4,237 305,237 305.4,237.3
		305.1,237.7 304.5,238.3 303.8,238.8 303.3,239 302.7,239.2 302,240 301.5,240.3 300.3,240.6 299.9,240.8 299.1,241.5 298.6,242.4
		297.8,244.4 297,245.6 296.1,246.6 295.6,246.9 295.1,246.9 294.7,246.8 294.2,246.9 293.5,247.4 292.6,248.2 291.9,249
		291.7,249.8 292,250.2 293.1,250.8 293.2,251.2 292.8,251.6 292.3,251.8 289.2,251.6 288.4,252 287.8,253.6 287.5,254 287.3,254.4
		287.3,255 287.5,255.5 288.9,256.7 290.2,259.5 290.8,260.4 292.2,261.6 293.1,262.7 293.5,264 293.3,266.8 293.9,269 293.9,269.6
		292.9,272.7 292.4,273.3 291.7,273.8 290.8,274.1 289.8,274.2 289.2,274 287.8,273.2 286.4,272.9 284.8,273 283.3,273.4 281.9,274
		281.4,274 281,273.9 280.9,274.1 280.6,276.6 281,277.4 283.1,279 283.9,279.8 284.9,282.1 285.3,282.7 285.5,282.9 285.6,283
		285.3,283.7 284.6,284.6 283.7,285.5 282.9,286.5 282.5,287.7 284.2,291.8 284.6,293.9 283.2,294.2 282.8,293.8 282.4,293.2
		282,292.9 281.3,292.9 280.7,293.2 280.6,293.6 280.6,293.9 280.5,294.7 280.5,295.3 280.5,295.6 280.3,295.7 276.1,299.2
		277.3,301.5 276.8,302.1 275.4,302.1 273.7,303.1 273.2,304 273.1,304.8 272.8,305.4 271.9,305.9 271.4,305.9 270.4,305.8
		269.9,305.9 269.4,306.4 268.8,307.6 268.4,308.1 267.7,308.5 266.3,308.7 265.5,309 264.6,308.2 263.6,308.2 261.5,308.9
		260.6,308.9 259.5,308.6 258.5,308.5 257.5,309 257,309.3 256.6,309.6 256.1,309.7 255.5,309.7 254.7,309.8 252.8,309.7 252,309.8
		251.3,310.1 249.7,311.1 248.3,311.5 247.6,312.1 246.3,313.6 244.4,315.1 243.5,316.4 243.2,316.7 242.8,316.7 242.5,316.6
		242.3,316.4 242,316.2 241.7,316.2 241.4,316.4 241.3,316.6 241.1,316.7 239.4,316.9 239.2,317.1 238.9,317.4 238.6,317.5
		238.4,317.4 237.8,317 237.6,316.9 236.9,317 236.6,317.1 236.6,317.3 236.9,317.9 237.2,318 238.4,318.7 238.6,318.9 239.4,318.7
		239.8,318.8 240.3,318.9 241.3,319.3 242,319.8 242.6,320.5 242.9,321.4 243,322.3 242.9,323.4 242.5,325.3 242.2,325.7
		241.9,326.2 241.6,326.8 241.6,327.3 242,327.9 242.4,328 242.9,327.9 243.4,328 245.1,329.3 245.6,331.1 245.6,335.1 245.8,336.2
		245.9,336.8 245.5,337.2 244.4,337.7 243.7,338.3 243.5,339.2 243.8,344.3 243.7,345 243.1,346.1 241.6,347.6 241.2,348.7
		240.9,350.7 240.4,351.3 239.3,352 238.5,352.4 237.7,352.6 232.9,353.2 232.2,353.7 232.1,354.5 232.6,357.4 232.3,358.7
		233.4,358.4 234.1,359.7 234.9,363.1 235.5,364.1 235.7,364.7 235,367.5 235,367.9 235,368.4 234.7,368.6 234.3,368.8 233.9,369.2
		233.7,369.9 233.2,372.5 233.3,372.9 233.5,373.7 233.6,374.1 234.3,374.4 233.8,374.8 233.5,375.6 233.4,376.3 233.8,376.7
		233.9,377.1 233.3,379.7 232.2,381.4 232,381.8 231.6,384.2 231.3,385 232.2,385.4 233,386.5 233.6,387.7 233.6,388.6 234.3,388.8
		234.7,388.9 235.1,388.9 235.4,389.1 235.6,389.5 235.8,389.9 235.9,390.2 236.4,390.6 237.1,391 237.9,391.2 238.8,391.2
		239.1,391.1 239.2,390.8 239.4,390.6 239.7,390.7 239.9,390.8 240.1,390.9 240.7,390.9 241.2,390.7 241.5,390.4 241.8,390.1
		242.1,389.9 242.9,389.9 245.1,390.2 245.9,390 248.2,391.4 248.7,391.4 249,390.7 249.8,390.8 250.6,391.3 251,392 251,394.7
		250.8,394.9 250.6,395.2 250.7,395.4 251.3,395.5 251.6,395.4 251.9,395.1 252.1,394.8 252.3,394.5 252.4,395.5 252,396.4
		252,396.9 253.2,396.8 252.9,397.7 253.2,398.2 254.4,399 254.5,399.4 253.4,399.7 252.9,400.2 253.3,400.2 253.7,400.3
		253.9,400.4 254.2,400.5 253.6,400.8 254,401.4 254.5,401.4 255.1,401.2 255.5,400.8 255.8,401.7 256.3,402.1 256.9,402.4
		257.5,402.8 258,403.5 258.4,404.4 258.2,405 257.2,405.1 257.4,405.6 257.9,406.3 258.4,407.4 258.5,407.7 257.8,409.7
		257.9,410.2 259.3,411.5 259.7,411.7 260,411.4 260.2,410.9 260.6,410.7 261.2,410.8 261.4,411 261.5,411.3 261.9,411.4
		263.1,411.4 264,411.8 264.7,412.3 265,413.3 265.9,413 266.3,413.8 266.5,414.9 267,415.7 266.2,415.9 265.8,416 265.4,416
		265.4,416.3 265.8,416.7 265.9,416.9 266,417.3 266.6,417.1 267.3,418.1 268,418 267.7,417.7 267.6,417.5 267.8,417.3 268.3,417.3
		268.8,417.4 269,417.5 269.2,417.8 269.5,418.1 270,418.6 270.2,418.9 270.2,419.4 270.4,419.8 270.6,420 271.3,420.3 271.5,420.5
		271.5,420.7 271.5,420.8 271.9,420.6 272.3,420.4 272.6,420 272.8,419.7 272.7,419.6 273.4,419.6 274,419.5 274.6,419.2
		275.2,418.6 275.7,419.1 276.4,420.1 277,420.3 277.7,420.1 277.9,419.6 277.9,418.9 278.1,418.3 278.3,417.9 278.3,417.8
		278.4,417.7 279.3,417.7 279.7,417.7 280,417.9 280.1,418.1 280,419 279.5,420.2 279.4,421.1 280.1,422.1 281.6,422.2 283.3,422.1
		284.5,422.4 284.9,423.1 285.3,424.7 285.7,425.2 286.3,425.5 286.5,425.1 286.5,424.3 286.6,423.6 287.3,423.8 288.6,424.3
		289,423.9 289.6,422.7 289.7,422.1 289.6,421 289.6,420.5 289.8,420.1 291.3,418.6 290.7,418.4 290.5,418.4 291.1,417.8 292,417.5
		293.8,417.3 294.6,416.8 296,414.9 296.9,414.2 297.7,414.1 300.4,414.9 300.9,415.2 301.2,415.3 301.5,415.2 301.6,415
		301.6,414.7 301.6,414.6 302.4,414.2 302.8,414.1 304.3,414.1 304.6,413.4 304.8,412.6 305.5,412.2 306.5,412 308.3,410.8
		309.3,410.5 312.5,410.5 313.4,410.2 313.8,409.9 314.6,409.1 315,408.8 315.7,408.5 318.1,408.3 318.4,408.3 319,408.7
		319.3,408.7 319.6,408.6 320,408 320.2,407.9 320.8,408.1 321.2,408.5 321.5,408.9 322,409.2 322.8,409.4 325.7,409 333.2,409.6
		333.8,409.9 334.6,410.6 335.2,410.9 335.6,410.8 336.2,410.4 336.6,410.2 336.9,410.5 336.8,411.5 336.9,412.5 337.4,413.1
		338.5,413 339.2,412.3 340.8,410.1 341.5,409.5 342.1,409.9 342.1,410.8 342,411.9 342.2,412.9 343.1,413.4 344.1,413.4
		345.3,413.7 346.2,414.8 346.8,417.1 347.3,418.3 348.1,419 349,419 350.6,418.5 351.5,418.7 352.3,419.5 352.9,420.6 353.7,422.9
		356.1,427.5 360.8,433.8 361.9,434.6 363.1,434.7 364,433.9 365.1,431.5 366.6,430.1 364.9,427.9 363.2,426.3 363,425.8
		362.9,425.1 362.9,424.3 363.2,423.5 363.6,422.8 364.2,422.3 363.7,421.9 363.5,421.4 363.5,421 363.2,420.6 362.8,420.4
		362.5,420.4 362.3,420.4 361.9,419.9 361.6,418.9 361.7,417.9 362.5,416.3 364.2,414.5 364.5,414 364.4,413.5 363.2,411.7
		363,410.5 363.5,408.3 363.5,407.1 363.2,406.2 362.1,404.6 361.9,403.6 361.9,399.5 361.4,397.3 361.4,396.3 362,395.3 363,394.6
		363.4,394.2 363.5,393.5 363.5,392.9 363.3,392.6 363,392.5 362.5,392.2 362.1,392 361.7,392 361.4,391.9 361.2,391.4 361.1,391.1
		360.7,391 360.2,390.9 359.8,390.7 359.4,389.9 359.4,388.9 359.6,387.9 359.9,387.2 360.3,386.8 360.6,386.5 361.1,386.3
		361.7,386.3 362.2,386.1 362.7,385.6 362.9,385.1 362.7,385 361.5,384.9 360.8,384.8 360.2,384.5 358.5,383 358.1,382.4 358,381.5
		357.8,381.2 357.2,380.6 357,380.3 356.8,379.8 356.8,378.8 356.6,378.3 355.2,375.8 355,374.9 355.2,374.4 355.8,373.2
		356.1,372.4 356.2,372.3 356.3,372.1 356.3,371.7 356.2,371.5 356,371.4 355.8,371.4 355.7,371.4 355.5,370.7 355.6,370.4
		356.2,369.9 356.4,369.4 356.6,368.3 357.4,367 357.9,364.8 358.3,363.8 358.9,363 359.7,362.4 360.3,361.7 360.6,360.6
		360.3,359.7 359.8,358.8 359.5,357.9 359.6,357.6 359.6,357.3 363.7,357.4 363.7,357.9 369.2,357.8 378.5,357.7 390.1,357.6
		400.8,357.5 411.3,357.4 418.7,357.4 419.3,357 419.6,356.2 420.4,355.9 426.5,356.1 429.1,357.1 430.3,357.4 436.4,357.4
		442.2,357.5 442.6,356.7 443.9,356.5 450.5,357.1 450.9,357.1 451.3,357.4 451.6,358 451.9,358.2 452.4,358.2 452,358.8
		452.9,358.7 453.9,357.6 455,357.4 455.2,357 455.5,356.9 455.8,357 456,357.4 461.8,357.5 461.9,358 462.1,358.1 462.4,358
		462.9,358 463.2,358.3 462.9,358.7 462.6,359.1 462.4,359.4 464.7,361.7 465.6,361.1 466.1,360 466.4,358.9 466.8,358.1
		467.5,357.8 468.5,357.7 470.4,357.8 470.6,357.7 470.7,357.6 470.9,357.5 471,357.4 471.4,356.8 472.7,356.2 473.2,355.8
		473.5,355.3 473.6,354.2 473.8,353.5 474.7,352.3 475.7,352.3 476.6,353 477.4,354 479.8,352.3 480.4,351.7 480.8,351 480.7,350.6
		480.5,350.1 480.6,349.3 487.1,350.7 492,351.7 497.9,352.9 508.8,355.1 518.3,357 518.4,357.1 518.5,357.2 518.5,357.4
		518.4,357.6 518.4,357.8 518.3,358 518.1,358.2 518.9,358.4 518.3,360.4 524.3,358.3 527.3,357.8 531.9,357.7 538.1,357.6
		539.5,358.4 540.2,358.4 541,358.5 541.3,358.2 541.4,357.6 541.3,357.1 541,356.8 540.7,356.6 540.5,356.2 540.5,355.6
		540.5,355.2 540.7,355 541.1,354.4 541.4,353.8 541.7,353.4 541.9,353.3 542.1,353.4 543.2,353.6 543.5,353.8 543.7,354 544,354.1
		544.1,354.2 544.4,354.7 544.5,354.8 544.8,354.8 545.3,354.6 545.5,354.5 546.9,354.7 547.4,354.8 547.6,355.1 547.9,355.5
		548.2,355.9 548.4,355.6 548.5,354.9 547.9,354.3 547.6,353.8 547.5,353.3 547.5,352.7 547.4,352.2 547.3,352.2 546.9,352
		546.7,351.9 546.7,351.6 546.8,351 546.7,350.8 546.3,350.7 546,351 545.8,351.1 545.8,350.3 546,350.2 547.6,349.9 547.9,349.7
		548.2,348.8 548.4,348.6 548.9,348.6 549.9,349 550.4,349.2 550.1,348.3 549.9,346.7 549,345.2 549.3,344.6 549.8,344.2
		550.3,343.4 550.7,343.8 551.1,344.3 551,344.6 551.4,344.6 551.7,344.5 551.9,344.3 552.4,344.2 553.3,344.3 554,344.5
		555.6,345.2 556.2,344.1 556.3,343.7 556.2,343.2 555.7,342.8 555.6,342.4 555.9,341.8 556.4,342.1 556.9,342.7 557.3,343.2
		557.6,342.8 557.9,342.7 558.2,342.8 558.6,343.2 559.4,342.5 559.3,341.9 558.9,341.3 558.6,340.4 559,339.5 559.9,338.9
		561,338.4 561.8,337.9 561.4,336.9 561.4,336.5 561.8,335.9 562.4,335.5 563,335.3 563.5,335 563.8,334.3 564.6,334.7 565.5,334.9
		570,335.3 569.9,335.6 569.8,336.3 569.7,336.6 570.5,336.5 571.5,338.4 572.5,338.1 573.3,337.7 575.5,337.2 576.4,336.8
		577.1,336.5 579.2,336.7 580.2,336.6 582,335.8 582.9,335.7 583.8,335.9 584.2,335.6 584.8,335.7 586,336.3 588.1,337.1
		589.7,337.2 591.1,336.6 597.6,329.9 601.1,327.1 603.6,325.7 604.3,325 604.5,324.6 604.4,324 604.4,323.2 605,321.8 606.8,319.8
		607.5,318.5 608.8,314 609.2,313.8 	"/>
</g>

</svg>
