<?xml version="1.0" encoding="utf-8"?>

<svg version="1.2" baseProfile="tiny" xmlns="http://www.w3.org/2000/svg" xmlns:xlink="http://www.w3.org/1999/xlink" x="0px"
	 y="0px" viewBox="227 172.1 386 250" xml:space="preserve">

<g id="Bulgaria">
	<g>
		<polygon fill="#FFFFFF" points="612.5,228.7 611.9,227.7 611.3,226.2 611.1,225.1 611.3,214.8 611.5,213.6 602.5,214.1
			589.4,211.8 576.6,206 574.5,204.4 571.8,194.5 570.3,192.1 566.9,192.4 562.6,194.9 558.6,195.9 555.8,192.1 554.5,189.4
			553.1,189 549.5,190.1 537.7,190.2 537,189.7 535.9,187.6 535.2,186.9 531.7,185.3 530.3,183.8 530.7,181.9 529.6,181
			528.1,181.2 526.8,180.5 520.3,179.2 515.8,176.4 514.1,177.4 506.9,178.1 501.1,181.6 498.9,182.3 496.1,182.3 495.4,182.4
			494.1,183.2 493.6,183.4 492.4,183.5 490.3,184.2 471.5,186.9 466.6,189.1 461.6,190.4 459.5,191.6 457.2,194.2 456.1,195.8
			455.7,197.1 448.2,202.5 447.6,203.5 447.1,204.8 444.3,208.5 442.4,209.6 440.4,211.7 440.3,212 438.9,214.3 436.4,215.4
			432.2,215.6 431.1,216.3 430.2,217.3 428.8,218.1 427.4,218.7 426.3,219 425.1,219.7 423.7,219.8 420.9,219.7 419.4,220
			416.8,221.1 415.4,221.5 412.7,221.1 410.5,219.8 408.4,218.2 406.1,216.9 403.6,216.3 395.6,215.6 388.3,213 375.3,213.9
			372.4,213.5 359.8,208.7 357.7,208.5 355.5,209.2 352.1,211.8 351,212.1 338.7,212.7 316.6,207.1 313.1,205 311.7,204.7
			306.5,205.9 303.8,205.4 297.1,201.8 287.2,201.2 281.7,202 279.3,203.2 277.2,203.7 275.3,204.5 262.2,205.6 260.3,205.2
			258.8,203.8 258,202.2 258,200.3 259.5,193.8 260.2,191.9 261.4,191.1 262.7,191 265.2,190.2 266.5,190 268.7,188.9 269.8,186.2
			269,183.7 266.4,182.5 263.6,182.1 261.3,181.1 248.1,172.1 246.8,172.7 245.4,173.3 245.1,173.7 244.8,173.9 244.6,174.4
			243.9,175.5 243.1,176.3 242.9,176.5 242.7,176.6 242.7,176.8 242.7,177.2 242.7,177.6 242.8,177.8 242.9,177.9 243,177.9
			242.3,180.4 242.3,181.3 242.3,181.4 242.3,182.2 242.5,182.8 242.8,184 242.8,184.8 242.2,185.9 242,186.1 241.7,186.2
			241,186.3 239.7,186.2 238.5,186.7 237.8,187.8 237.7,188 237.3,189 237,189.4 236.6,190 235.2,190 233.2,190.3 232.3,190.4
			231,191 230.3,192.2 230.2,192.8 230.1,193.2 230.1,195.7 229.9,197 229.9,197.1 229.8,197.4 229.2,198.6 229,198.9 228.9,199
			228.9,201.1 228.9,201.5 228.3,204.2 227.8,205.6 227.5,206.1 227.5,206.8 227.2,208 228,210.3 229.6,212.2 229.7,212.9
			229.5,214.3 229.5,215 229.8,216.1 229.9,216.6 230.2,217.2 230.6,218.2 230.8,218.5 231.2,219.1 231.7,219.7 232.2,220.1
			233.1,220.6 234.1,221.1 234.5,221.5 234.7,221.7 235.1,222.6 235.1,222.8 235.1,224.8 235.6,225.8 235.6,225.9 235.4,226.2
			235.3,226.5 235.4,226.8 235.6,227.1 235.6,227.7 235.5,227.9 235.4,228.3 235.4,228.4 235.3,228.7 235.3,229.2 235.6,229.9
			236,230.8 237.2,234.8 237.7,236.4 238.5,237.2 239.1,237.4 240.6,238.1 241,238.6 241.7,239.5 241.8,240.7 242.4,241.1
			242.5,241.1 243,241.2 244.4,241.1 244.9,241.3 245.4,241.8 245.9,242.9 246.1,243.3 246.2,243.4 246.6,243.9 247,244
			247.2,244.1 248.4,244 249,244.1 250,244.6 250.9,245.2 255.3,249.6 255.7,250.1 255.9,250.4 579.7,250.4 581.5,245.7
			583.2,243.4 585.6,242 586.9,241.8 590.9,242 592,241.8 594.3,240.5 595.7,240.3 598.6,240.8 600.1,241.5 600.8,242.3
			601.5,242.8 604.2,244.3 605.1,245.5 605.1,244 605.5,242.9 605.9,242 608.8,239.3 609.4,239 610.4,238 611.5,235.7 612.5,233
			613,230.8 612.9,229.6 		"/>
		<polygon fill="#00966E" points="256.1,250.7 256.2,250.9 256.3,251.3 256.5,252.9 256.7,253.5 257.1,254 257.4,254.3 258.6,255.5
			259.5,256.7 260.2,257.7 260.8,258.3 261,258.5 262.1,259.2 262.3,259.2 265.2,259.8 265.8,260.1 266.2,260.3 266.4,262.3
			265.8,265.1 264.6,267.9 264.3,268.4 263.4,269.8 263,270.1 262.8,270.2 261.8,270.7 261.3,271.2 261,271.6 261,271.7 261,271.8
			260.6,273.2 260.3,273.8 257.7,276.3 256.9,277.4 256.1,277.7 254.4,278.1 253.7,278.6 253.3,279.3 253,280.2 252.9,280.3
			252.7,280.9 251.8,284.3 251.5,285 251.3,285.4 251.1,285.7 250.6,286.3 249.8,286.6 248.7,287.1 248.2,287.2 246.8,287.5
			243.6,286.7 242.2,286.3 240.5,286.5 239.6,287.1 239.6,287.1 239.3,287.5 238.8,287.7 238.7,287.7 237.7,287.6 236.8,287.6
			236.5,287.8 236.3,288.1 235.4,289.5 234.8,290.1 233.2,290.9 232.7,291.4 232.1,292.2 232,292.6 232.1,292.7 232.2,292.9
			233.7,296.4 234.5,297.7 235.1,298.1 235.5,298.4 235.5,298.6 235.5,299.1 235.5,299.3 234.6,300.1 233.4,302.4 233,303.2
			233.4,304.3 233.1,306.4 232.3,310.2 232.2,310.7 232.2,310.9 232,312.3 232.3,312.4 235.4,315.4 237.3,316.8 238.1,317.8
			238.4,318.5 238.5,318.9 238.5,319.2 238.8,320.2 238.5,321.9 237.7,324.9 237.1,326.2 236.4,326.7 236,326.8 235.5,326.8
			234.8,327.2 234.6,327.3 233.7,328.5 232.7,331.6 232,332.5 231.8,332.7 230.7,333.1 228.2,333.1 227.2,333.7 227,333.7 233,342
			235.2,343.6 565.3,343.6 564.7,343 564.4,342.3 564,341.8 561.8,340.3 561.9,340 561.9,339.9 562.2,339.7 560.7,338.5
			560.4,336.9 561.1,335.4 562.6,334 562.1,333.7 561.8,333.2 561.8,332.7 562.1,332.3 562.1,331.7 561.1,331.8 560.4,332
			559.6,332.1 558.7,331.7 558,330.9 557.6,329.7 557.7,328.5 558.3,327.7 557.8,327.5 557.6,327.3 557.1,326.5 558,326.1
			558.4,326 558.4,325.4 557.7,325.5 557.2,325.4 556.8,325 556.7,324.3 555.2,325.3 554.3,325 553.7,324 553.3,322.6 553.5,322.4
			553.6,322.4 553.7,322.3 553.7,321.9 552.8,321.6 552.2,321.9 551.6,322.3 550.7,322.5 550.3,322.2 549.8,321.7 549.3,321.6
			548.7,322.5 547.6,321.5 547,321.9 546.6,322.8 545.8,323.5 545.2,323.3 543.2,321.3 542.8,323 543,323.4 542.9,323.5
			542.8,324.1 542.4,322.9 542.5,322.5 542.8,321.9 542,321.2 542,319.9 542.6,319.2 543.7,319.7 544.4,317.6 544.8,315.5
			545.6,313.8 547.4,312.8 553.1,312.9 554.2,313.4 553.6,312 552.9,309.7 552.8,307.5 553.9,306.6 555.3,306.4 558,305.2
			559.7,304.9 558.7,304.4 558.3,303.8 558.2,303 558.4,302.1 558.8,300.9 559.3,300.5 559.9,300.3 562.6,300.4 565.9,300.9
			569.1,300.8 569.3,300.2 569.4,298.6 569.4,294.6 569.1,292.3 568.7,290.5 568.7,289.1 569.9,288.2 569.6,287 569.9,281.3
			569.7,279.6 568.7,275.7 568.7,273.9 568.9,272.9 569.3,272.3 569.9,271.8 570.4,271 571.2,266.9 572.4,263.2 572.5,262.2
			572.1,261.5 569.9,259.9 569.9,259.4 570.5,259.4 570.9,259.2 571.6,258.7 575.8,257.6 576.9,256.8 577.7,255.4 579.7,250.4
			255.9,250.4 		"/>
		<polygon fill="#D62612" points="235.4,343.7 236.1,346.1 237.1,347.8 238.4,349.1 243.7,353 247.3,354.8 249.2,355.1 249.5,355.4
			249.6,356.1 249.9,356.4 250.3,356.5 253.1,356.4 253.8,356.5 254.1,356.8 254.2,357.3 254.4,357.8 254.9,358.2 255.5,358.2
			256.4,357.9 256.8,357.9 257.5,358.4 257.8,358.9 257.9,359.5 258,360.6 258.5,361.4 258.6,362.3 258.7,364.2 259.2,366.1
			259.9,368 260,368.6 260,369.8 260.1,370.4 260.4,370.7 261.1,371.1 261.4,371.4 261.8,372.3 262.4,375.1 263.8,378.2
			264.1,378.9 264.8,379.2 266.3,379.3 266.9,379.6 268,381.3 268,383.2 267.3,385.1 265.9,387.3 265.5,388.5 265.3,388.9
			265,389.1 264.4,389.3 264.1,389.6 263.8,390.6 263.6,391.7 263.5,392.9 263.6,394 263.8,394.4 264.4,395.4 264.5,395.9
			264.5,396.4 264.1,397.8 264.3,404.8 264.4,405.1 264.8,406 264.8,406.5 264.7,406.9 264,407.8 263.8,408.3 263.9,410
			264.2,411.7 264,413.3 262.5,414.5 274.8,416.3 277.3,416 278.7,415.6 279.4,415.2 280,414.7 280.3,413.9 280.3,412.4
			280.6,411.7 281.4,410.9 282.8,410 284.3,409.4 285.4,409.3 286.6,410.1 287.1,411 287.7,411.7 289,411.5 290.1,410.9 292,409.5
			293.1,409.1 299.2,409.3 303.2,411.4 305.3,411.4 306.2,410.8 307.8,409.3 309,408.8 311,408.8 313,409.3 314,409 315.4,406.7
			316.3,406.2 317.4,406.3 318.7,406.2 320,405.8 321,405.4 322.6,403.8 323.1,403.9 325.9,406.1 326.9,406 327.9,405 328.3,404.8
			328.6,404.7 328.9,404.5 329.1,403.9 330.5,404.8 331.2,404.9 331.9,404.6 332.3,404 332.3,403.3 332.1,401.5 332,398.9
			333.8,398 336.3,398.3 338.1,398.9 338.6,399.3 338.9,399.7 339.1,400.1 339.6,400.1 339.7,399.8 340.1,398.5 340.3,397.9
			341.2,397.2 342.3,396.5 343.5,395.9 344.6,395.8 345.6,396.9 346.8,397.6 346.9,398.3 346.7,399 346.8,399.5 347.3,399.6
			347.8,399.5 348.2,399.3 348.7,399.2 350.4,399.3 350.9,399.3 353,398.6 353.9,398.6 355.3,398.8 356.2,398.6 357.4,396.8
			358.8,396.5 360.6,395.8 361.9,396.9 362.7,399.1 362.9,401.4 363,402.1 363.2,402.5 363.6,402.8 363.9,403.3 364.1,403.5
			364.6,403.9 364.9,404.2 364.9,404.6 364.8,405.5 364.9,405.8 365.8,406.7 366.7,406.5 368.9,406.5 368.5,407.3 370,407.3
			371.2,407.5 372.4,408 373.6,409.1 375.7,411.8 377,413.1 378.2,413.1 378.8,412 378.6,410.5 378.8,409.4 381.2,409.3
			382.5,408.8 383.2,408.6 384,408.7 385.9,409.9 396,414.1 397,413.9 397.3,413.9 397.4,414.1 397.9,415 398.1,415.3 400.7,416.5
			401.9,417.5 404.5,421.1 405.7,421.8 407.1,422.1 408.6,422 418.9,418.6 420.5,418.4 421.1,418.5 421.6,418.6 422,418.7
			422.6,418.5 423.2,417.8 423.6,416.9 424,416.1 424.9,415.8 430.3,416.2 430.9,416.4 432.3,417.2 432.8,417.3 433.5,417.2
			433.9,416.9 434.3,416.5 435.1,415.9 435.8,415.7 438,415.5 440.3,414 440.9,413.8 442.3,414.3 444.1,416.3 445.3,416.8
			446.1,416.6 447.7,415.9 448.5,415.9 449.4,416 450.1,415.9 451.5,415.2 453.1,414.1 453.9,413.8 459.2,412.5 459.6,412.6
			460,412.4 460.7,411.3 461.6,409.2 462.3,407.2 462.7,406.7 463,406.5 463.3,406.4 463.4,405.7 463.2,405.2 462.3,404.4
			462.1,404 461.5,402.5 461.6,402 462.3,401.2 462.5,400.2 462.6,399.3 462.5,398.3 462.2,397.2 461.8,396.9 460.9,396.7
			460.6,396.4 460.5,395.8 460.6,394.5 460.5,393.9 459.9,391.8 459.5,391.1 459,390.5 458.3,390.2 457.5,390 456.6,389.6
			455.9,388.5 455.6,387.5 455.4,386.4 455.4,385.2 455.7,384.2 456.2,383.7 456.6,383.6 457,383.6 457.5,383.4 459.1,382
			460.7,381.6 464,381.5 465.4,380.2 466.3,380.3 466.8,380.6 468.5,382.4 469.2,383.1 470.6,383.5 473,383.3 472.3,382.4
			472,380.8 472.2,379 473,377.1 475.6,374.8 482,375.1 484.9,374.2 485.8,373 486.3,371.6 486.5,370.1 486.6,369 486.7,368.6
			486.9,367.9 487,367.4 486.8,367.1 486.1,366.6 486,366.3 486.2,365.8 486.6,365.4 487.1,365.1 488.9,363.1 489.9,362.4
			491,362.4 496.8,363.4 497.9,363.3 498.6,362.8 499.9,361.4 500.6,361.2 501.2,361.5 502.4,362.5 503.1,362.7 503.6,362.4
			505,361.3 505.6,360.9 506.3,360.9 506.9,361.1 507.4,361.1 508.1,360.4 508.7,360.1 509.9,360.3 510.4,360.1 511.1,359.2
			511.4,358.2 512,357.4 512.8,357 514,356.1 515.4,353.6 516.9,352.8 518,352.8 519.2,353.2 520.2,353.8 521.1,354.6 521.8,354.5
			523.2,354.6 524.7,355 525,354.9 525.1,354.6 525.2,354.3 526.6,352.4 527.4,351.8 528.7,351.6 530.9,352.2 532.8,353.3
			534.5,355 537.2,359 538.5,360.6 540,362 544.5,364.5 545.5,365.3 546.9,367.4 547.8,367.9 548.8,367.5 548,367.1 548.1,366.9
			548.5,366.7 548.7,366.5 548.6,366.4 548.4,366.3 548.3,366.1 548.2,365.9 549.5,365.4 550.1,365.1 550.6,364.4 551.1,364.8
			551.4,364.8 551.6,364.4 551.8,363.6 556.6,362.3 559,362.5 562.2,364.3 563.1,364.6 563.8,364.6 564.6,364.3 564.8,363.8
			563.8,363.2 564,362.4 564,361.3 564.2,360.4 564.4,360.3 564.9,360.3 565.1,360.4 566.3,360.3 566.8,360.3 568.3,360.6
			570,361.4 570.8,361.7 573.9,361.3 574.8,361.6 577,362.1 576.9,361.3 577.3,360.3 577.2,359.1 576.7,358 576,357.2 576.2,357.1
			576.3,357.1 576.4,357.1 576.4,356.7 575.8,356.2 575.2,355.6 574.9,354.8 575.1,353.9 574.2,353.7 573.8,352.9 573.3,352
			570,349.9 568.9,347.6 568.4,347.1 566.6,346 566.7,345.8 566.9,345.1 567,344.8 566.3,344.4 565.4,343.7 565.3,343.6
			235.2,343.6 		"/>
	</g>
	<polygon fill="none" stroke="#999999" stroke-width="0.25" stroke-linecap="round" stroke-linejoin="round" points="612.5,228.7
		611.9,227.7 611.3,226.2 611.1,225.1 611.3,214.8 611.5,213.6 602.5,214.1 589.4,211.8 576.6,206 574.5,204.4 571.8,194.5
		570.3,192.1 566.9,192.4 562.6,194.9 558.6,195.9 555.8,192.1 554.5,189.4 553.1,189 549.5,190.1 537.7,190.2 537,189.7
		535.9,187.6 535.2,186.9 531.7,185.3 530.3,183.8 530.7,181.9 529.6,181 528.1,181.2 526.8,180.5 520.3,179.2 515.8,176.4
		514.1,177.4 506.9,178.1 501.1,181.6 498.9,182.3 496.1,182.3 495.4,182.4 494.1,183.2 493.6,183.4 492.4,183.5 490.3,184.2
		471.5,186.9 466.6,189.1 461.6,190.4 459.5,191.6 457.2,194.2 456.1,195.8 455.7,197.1 448.2,202.5 447.6,203.5 447.1,204.8
		444.3,208.5 442.4,209.6 440.4,211.7 440.3,212 438.9,214.3 436.4,215.4 432.2,215.6 431.1,216.3 430.2,217.3 428.8,218.1
		427.4,218.7 426.3,219 425.1,219.7 423.7,219.8 420.9,219.7 419.4,220 416.8,221.1 415.4,221.5 412.7,221.1 410.5,219.8
		408.4,218.2 406.1,216.9 403.6,216.3 395.6,215.6 388.3,213 375.3,213.9 372.4,213.5 359.8,208.7 357.7,208.5 355.5,209.2
		352.1,211.8 351,212.1 338.7,212.7 316.6,207.1 313.1,205 311.7,204.7 306.5,205.9 303.8,205.4 297.1,201.8 287.2,201.2 281.7,202
		279.3,203.2 277.2,203.7 275.3,204.5 262.2,205.6 260.3,205.2 258.8,203.8 258,202.2 258,200.3 259.5,193.8 260.2,191.9
		261.4,191.1 262.7,191 265.2,190.2 266.5,190 268.7,188.9 269.8,186.2 269,183.7 266.4,182.5 263.6,182.1 261.3,181.1 248.1,172.1
		246.8,172.7 245.4,173.3 245.1,173.7 244.8,173.9 244.6,174.4 243.9,175.5 243.1,176.3 242.9,176.5 242.7,176.6 242.7,176.8
		242.7,177.2 242.7,177.6 242.8,177.8 242.9,177.9 243,177.9 242.3,180.4 242.3,181.3 242.3,181.4 242.3,182.2 242.5,182.8
		242.8,184 242.8,184.8 242.2,185.9 242,186.1 241.7,186.2 241,186.3 239.7,186.2 238.5,186.7 237.8,187.8 237.7,188 237.3,189
		237,189.4 236.6,190 235.2,190 233.2,190.3 232.3,190.4 231,191 230.3,192.2 230.2,192.8 230.1,193.2 230.1,195.7 229.9,197
		229.9,197.1 229.8,197.4 229.2,198.6 229,198.9 228.9,199 228.9,201.1 228.9,201.5 228.3,204.2 227.8,205.6 227.5,206.1
		227.5,206.8 227.2,208 228,210.3 229.6,212.2 229.7,212.9 229.5,214.3 229.5,215 229.8,216.1 229.9,216.6 230.2,217.2 230.6,218.2
		230.8,218.5 231.2,219.1 231.7,219.7 232.2,220.1 233.1,220.6 234.1,221.1 234.5,221.5 234.7,221.7 235.1,222.6 235.1,222.8
		235.1,224.8 235.6,225.8 235.6,225.9 235.4,226.2 235.3,226.5 235.4,226.8 235.6,227.1 235.6,227.7 235.5,227.9 235.4,228.3
		235.4,228.4 235.3,228.7 235.3,229.2 235.6,229.9 236,230.8 237.2,234.8 237.7,236.4 238.5,237.2 239.1,237.4 240.6,238.1
		241,238.6 241.7,239.5 241.8,240.7 242.4,241.1 242.5,241.1 243,241.2 244.4,241.1 244.9,241.3 245.4,241.8 245.9,242.9
		246.1,243.3 246.2,243.4 246.6,243.9 247,244 247.2,244.1 248.4,244 249,244.1 250,244.6 250.9,245.2 255.3,249.6 255.7,250.1
		256.1,250.7 256.2,250.9 256.3,251.3 256.5,252.9 256.7,253.5 257.1,254 257.4,254.3 258.6,255.5 259.5,256.7 260.2,257.7
		260.8,258.3 261,258.5 262.1,259.2 262.3,259.2 265.2,259.8 265.8,260.1 266.2,260.3 266.4,262.3 265.8,265.1 264.6,267.9
		264.3,268.4 263.4,269.8 263,270.1 262.8,270.2 261.8,270.7 261.3,271.2 261,271.6 261,271.7 261,271.8 260.6,273.2 260.3,273.8
		257.7,276.3 256.9,277.4 256.1,277.7 254.4,278.1 253.7,278.6 253.3,279.3 253,280.2 252.9,280.3 252.7,280.9 251.8,284.3
		251.5,285 251.3,285.4 251.1,285.7 250.6,286.3 249.8,286.6 248.7,287.1 248.2,287.2 246.8,287.5 243.6,286.7 242.2,286.3
		240.5,286.5 239.6,287.1 239.6,287.1 239.3,287.5 238.8,287.7 238.7,287.7 237.7,287.6 236.8,287.6 236.5,287.8 236.3,288.1
		235.4,289.5 234.8,290.1 233.2,290.9 232.7,291.4 232.1,292.2 232,292.6 232.1,292.7 232.2,292.9 233.7,296.4 234.5,297.7
		235.1,298.1 235.5,298.4 235.5,298.6 235.5,299.1 235.5,299.3 234.6,300.1 233.4,302.4 233,303.2 233.4,304.3 233.1,306.4
		232.3,310.2 232.2,310.7 232.2,310.9 232,312.3 232.3,312.4 235.4,315.4 237.3,316.8 238.1,317.8 238.4,318.5 238.5,318.9
		238.5,319.2 238.8,320.2 238.5,321.9 237.7,324.9 237.1,326.2 236.4,326.7 236,326.8 235.5,326.8 234.8,327.2 234.6,327.3
		233.7,328.5 232.7,331.6 232,332.5 231.8,332.7 230.7,333.1 228.2,333.1 227.2,333.7 227,333.7 233,342 235.4,343.7 236.1,346.1
		237.1,347.8 238.4,349.1 243.7,353 247.3,354.8 249.2,355.1 249.5,355.4 249.6,356.1 249.9,356.4 250.3,356.5 253.1,356.4
		253.8,356.5 254.1,356.8 254.2,357.3 254.4,357.8 254.9,358.2 255.5,358.2 256.4,357.9 256.8,357.9 257.5,358.4 257.8,358.9
		257.9,359.5 258,360.6 258.5,361.4 258.6,362.3 258.7,364.2 259.2,366.1 259.9,368 260,368.6 260,369.8 260.1,370.4 260.4,370.7
		261.1,371.1 261.4,371.4 261.8,372.3 262.4,375.1 263.8,378.2 264.1,378.9 264.8,379.2 266.3,379.3 266.9,379.6 268,381.3
		268,383.2 267.3,385.1 265.9,387.3 265.5,388.5 265.3,388.9 265,389.1 264.4,389.3 264.1,389.6 263.8,390.6 263.6,391.7
		263.5,392.9 263.6,394 263.8,394.4 264.4,395.4 264.5,395.9 264.5,396.4 264.1,397.8 264.3,404.8 264.4,405.1 264.8,406
		264.8,406.5 264.7,406.9 264,407.8 263.8,408.3 263.9,410 264.2,411.7 264,413.3 262.5,414.5 274.8,416.3 277.3,416 278.7,415.6
		279.4,415.2 280,414.7 280.3,413.9 280.3,412.4 280.6,411.7 281.4,410.9 282.8,410 284.3,409.4 285.4,409.3 286.6,410.1 287.1,411
		287.7,411.7 289,411.5 290.1,410.9 292,409.5 293.1,409.1 299.2,409.3 303.2,411.4 305.3,411.4 306.2,410.8 307.8,409.3 309,408.8
		311,408.8 313,409.3 314,409 315.4,406.7 316.3,406.2 317.4,406.3 318.7,406.2 320,405.8 321,405.4 322.6,403.8 323.1,403.9
		325.9,406.1 326.9,406 327.9,405 328.3,404.8 328.6,404.7 328.9,404.5 329.1,403.9 330.5,404.8 331.2,404.9 331.9,404.6 332.3,404
		332.3,403.3 332.1,401.5 332,398.9 333.8,398 336.3,398.3 338.1,398.9 338.6,399.3 338.9,399.7 339.1,400.1 339.6,400.1
		339.7,399.8 340.1,398.5 340.3,397.9 341.2,397.2 342.3,396.5 343.5,395.9 344.6,395.8 345.6,396.9 346.8,397.6 346.9,398.3
		346.7,399 346.8,399.5 347.3,399.6 347.8,399.5 348.2,399.3 348.7,399.2 350.4,399.3 350.9,399.3 353,398.6 353.9,398.6
		355.3,398.8 356.2,398.6 357.4,396.8 358.8,396.5 360.6,395.8 361.9,396.9 362.7,399.1 362.9,401.4 363,402.1 363.2,402.5
		363.6,402.8 363.9,403.3 364.1,403.5 364.6,403.9 364.9,404.2 364.9,404.6 364.8,405.5 364.9,405.8 365.8,406.7 366.7,406.5
		368.9,406.5 368.5,407.3 370,407.3 371.2,407.5 372.4,408 373.6,409.1 375.7,411.8 377,413.1 378.2,413.1 378.8,412 378.6,410.5
		378.8,409.4 381.2,409.3 382.5,408.8 383.2,408.6 384,408.7 385.9,409.9 396,414.1 397,413.9 397.3,413.9 397.4,414.1 397.9,415
		398.1,415.3 400.7,416.5 401.9,417.5 404.5,421.1 405.7,421.8 407.1,422.1 408.6,422 418.9,418.6 420.5,418.4 421.1,418.5
		421.6,418.6 422,418.7 422.6,418.5 423.2,417.8 423.6,416.9 424,416.1 424.9,415.8 430.3,416.2 430.9,416.4 432.3,417.2
		432.8,417.3 433.5,417.2 433.9,416.9 434.3,416.5 435.1,415.9 435.8,415.7 438,415.5 440.3,414 440.9,413.8 442.3,414.3
		444.1,416.3 445.3,416.8 446.1,416.6 447.7,415.9 448.5,415.9 449.4,416 450.1,415.9 451.5,415.2 453.1,414.1 453.9,413.8
		459.2,412.5 459.6,412.6 460,412.4 460.7,411.3 461.6,409.2 462.3,407.2 462.7,406.7 463,406.5 463.3,406.4 463.4,405.7
		463.2,405.2 462.3,404.4 462.1,404 461.5,402.5 461.6,402 462.3,401.2 462.5,400.2 462.6,399.3 462.5,398.3 462.2,397.2
		461.8,396.9 460.9,396.7 460.6,396.4 460.5,395.8 460.6,394.5 460.5,393.9 459.9,391.8 459.5,391.1 459,390.5 458.3,390.2
		457.5,390 456.6,389.6 455.9,388.5 455.6,387.5 455.4,386.4 455.4,385.2 455.7,384.2 456.2,383.7 456.6,383.6 457,383.6
		457.5,383.4 459.1,382 460.7,381.6 464,381.5 465.4,380.2 466.3,380.3 466.8,380.6 468.5,382.4 469.2,383.1 470.6,383.5 473,383.3
		472.3,382.4 472,380.8 472.2,379 473,377.1 475.6,374.8 482,375.1 484.9,374.2 485.8,373 486.3,371.6 486.5,370.1 486.6,369
		486.7,368.6 486.9,367.9 487,367.4 486.8,367.1 486.1,366.6 486,366.3 486.2,365.8 486.6,365.4 487.1,365.1 488.9,363.1
		489.9,362.4 491,362.4 496.8,363.4 497.9,363.3 498.6,362.8 499.9,361.4 500.6,361.2 501.2,361.5 502.4,362.5 503.1,362.7
		503.6,362.4 505,361.3 505.6,360.9 506.3,360.9 506.9,361.1 507.4,361.1 508.1,360.4 508.7,360.1 509.9,360.3 510.4,360.1
		511.1,359.2 511.4,358.2 512,357.4 512.8,357 514,356.1 515.4,353.6 516.9,352.8 518,352.8 519.2,353.2 520.2,353.8 521.1,354.6
		521.8,354.5 523.2,354.6 524.7,355 525,354.9 525.1,354.6 525.2,354.3 526.6,352.4 527.4,351.8 528.7,351.6 530.9,352.2
		532.8,353.3 534.5,355 537.2,359 538.5,360.6 540,362 544.5,364.5 545.5,365.3 546.9,367.4 547.8,367.9 548.8,367.5 548,367.1
		548.1,366.9 548.5,366.7 548.7,366.5 548.6,366.4 548.4,366.3 548.3,366.1 548.2,365.9 549.5,365.4 550.1,365.1 550.6,364.4
		551.1,364.8 551.4,364.8 551.6,364.4 551.8,363.6 556.6,362.3 559,362.5 562.2,364.3 563.1,364.6 563.8,364.6 564.6,364.3
		564.8,363.8 563.8,363.2 564,362.4 564,361.3 564.2,360.4 564.4,360.3 564.9,360.3 565.1,360.4 566.3,360.3 566.8,360.3
		568.3,360.6 570,361.4 570.8,361.7 573.9,361.3 574.8,361.6 577,362.1 576.9,361.3 577.3,360.3 577.2,359.1 576.7,358 576,357.2
		576.2,357.1 576.3,357.1 576.4,357.1 576.4,356.7 575.8,356.2 575.2,355.6 574.9,354.8 575.1,353.9 574.2,353.7 573.8,352.9
		573.3,352 570,349.9 568.9,347.6 568.4,347.1 566.6,346 566.7,345.8 566.9,345.1 567,344.8 566.3,344.4 565.4,343.7 564.7,343
		564.4,342.3 564,341.8 561.8,340.3 561.9,340 561.9,339.9 562.2,339.7 560.7,338.5 560.4,336.9 561.1,335.4 562.6,334 562.1,333.7
		561.8,333.2 561.8,332.7 562.1,332.3 562.1,331.7 561.1,331.8 560.4,332 559.6,332.1 558.7,331.7 558,330.9 557.6,329.7
		557.7,328.5 558.3,327.7 557.8,327.5 557.6,327.3 557.1,326.5 558,326.1 558.4,326 558.4,325.4 557.7,325.5 557.2,325.4 556.8,325
		556.7,324.3 555.2,325.3 554.3,325 553.7,324 553.3,322.6 553.5,322.4 553.6,322.4 553.7,322.3 553.7,321.9 552.8,321.6
		552.2,321.9 551.6,322.3 550.7,322.5 550.3,322.2 549.8,321.7 549.3,321.6 548.7,322.5 547.6,321.5 547,321.9 546.6,322.8
		545.8,323.5 545.2,323.3 543.2,321.3 542.8,323 543,323.4 542.9,323.5 542.8,324.1 542.4,322.9 542.5,322.5 542.8,321.9 542,321.2
		542,319.9 542.6,319.2 543.7,319.7 544.4,317.6 544.8,315.5 545.6,313.8 547.4,312.8 553.1,312.9 554.2,313.4 553.6,312
		552.9,309.7 552.8,307.5 553.9,306.6 555.3,306.4 558,305.2 559.7,304.9 558.7,304.4 558.3,303.8 558.2,303 558.4,302.1
		558.8,300.9 559.3,300.5 559.9,300.3 562.6,300.4 565.9,300.9 569.1,300.8 569.3,300.2 569.4,298.6 569.4,294.6 569.1,292.3
		568.7,290.5 568.7,289.1 569.9,288.2 569.6,287 569.9,281.3 569.7,279.6 568.7,275.7 568.7,273.9 568.9,272.9 569.3,272.3
		569.9,271.8 570.4,271 571.2,266.9 572.4,263.2 572.5,262.2 572.1,261.5 569.9,259.9 569.9,259.4 570.5,259.4 570.9,259.2
		571.6,258.7 575.8,257.6 576.9,256.8 577.7,255.4 581.5,245.7 583.2,243.4 585.6,242 586.9,241.8 590.9,242 592,241.8 594.3,240.5
		595.7,240.3 598.6,240.8 600.1,241.5 600.8,242.3 601.5,242.8 604.2,244.3 605.1,245.5 605.1,244 605.5,242.9 605.9,242
		608.8,239.3 609.4,239 610.4,238 611.5,235.7 612.5,233 613,230.8 612.9,229.6 	"/>
</g>

</svg>
