<?xml version="1.0" encoding="utf-8"?>

<svg version="1.2" baseProfile="tiny" xmlns="http://www.w3.org/2000/svg" xmlns:xlink="http://www.w3.org/1999/xlink" x="0px"
	 y="0px" viewBox="322.4 139.7 194.1 314.6" xml:space="preserve">

<g id="Bahrain">
	<g>
		<polygon fill="#FFFFFF" points="356,181.7 356.8,182.6 357.7,182.6 358.1,183 359.6,183 360.7,182.4 360.6,181.9 359.9,181.9
			358.4,180.9 356.2,180.9 		"/>
		<polygon fill="#FFFFFF" points="370.4,181.9 370.7,181.5 371.5,181.4 370.7,177.7 369.9,177.8 369.9,179.6 370.2,180.3 369.9,181
					"/>
		<polygon fill="#FFFFFF" points="325.2,185.6 325.4,185.8 325.5,185.9 325.6,186.1 325.6,186.4 325.7,186.5 326.5,186.9
			327.5,186.5 328.6,186.9 328.9,187.4 329.1,187.6 329.8,187.8 330.1,187.7 331,187.1 332.2,187.1 332.2,186.8 331.1,186.8
			330.9,186.6 330.4,185.7 329.5,185.6 329.3,185.6 329.1,185.7 328.9,185.9 328.7,186 328.6,186.1 327.9,185.8 327.7,185.6
			327.4,184.7 327.3,184.6 326.8,184.4 326.5,184.4 326.2,184.5 326,184.6 325.7,184.6 325.2,184.5 325,184.5 324.7,184.5
			324.4,184.5 324.3,184.4 323.6,184.1 323.6,184.1 323.5,184.2 323.5,184.2 323.5,184.3 323.7,184.4 324.2,184.6 324.3,184.7
			324.4,184.8 324.5,184.9 324.6,185.1 324.8,185.4 325,185.5 		"/>
		<polygon fill="#FFFFFF" points="322.8,189.9 323,189.8 323.2,189.7 323.2,189.7 323.5,189.7 323.9,189.6 323.9,189.5 324,189.4
			324,189.4 323.9,189.5 323.8,189.6 323.7,189.5 323.7,189.4 323.7,189.4 323.9,189.3 324,189.2 324.2,189.2 324.2,189.1
			323.5,188.8 323.2,188.7 323,188.5 322.8,188.3 322.7,188.3 322.8,188.4 322.9,188.5 322.8,188.7 322.6,189.2 322.5,189.6
			322.4,190 322.6,190 		"/>
		<polygon fill="#FFFFFF" points="324.4,190 324.4,190 324.5,190 324.7,189.9 324.8,189.8 324.9,189.6 324.8,189.6 324.5,189.7
			324.4,189.7 324.3,189.7 324.4,189.9 324.4,190 		"/>
		<polygon fill="#FFFFFF" points="373.8,219.2 374.5,219.1 374.6,219 374.6,218.6 374.5,218.4 373.8,218.5 373.7,218.6 373.7,219
			"/>
		<polygon fill="#FFFFFF" points="430.5,168.4 430.9,167.5 431.6,167.5 432,166.9 430.9,166.4 430.8,165.5 430,165.4 427.9,163.1
			427.8,162.6 426.8,162.2 426.5,162.6 424.3,162.6 423.4,163.6 422.7,163.6 422.2,164.2 420.8,166.4 419.6,167.1 419.3,167.8
			418.6,167.8 418,168.5 417,168.5 416.7,168.9 413.6,168.9 413.3,168.5 410.7,168.5 410.4,168.2 409.5,168.2 408.8,167.5
			406.9,167.2 404.4,164.7 404.1,164.7 402.8,164 402.2,164.3 399.1,164.3 398.8,164 397.2,164 396.5,164.3 396.2,164 394.6,164
			394.3,164.3 393.1,164.3 392.8,164 392.1,164 391.8,164.3 389.3,164.3 389,164.7 388,164.7 387.7,165 386.4,164.7 386.1,165
			384.9,165 383.6,165.7 383,165.7 381.7,166.8 380.8,166.8 380,167.3 380,167.7 377.3,170.7 374.9,172.2 374.9,173.6 375.3,174
			375.2,176.4 376.8,177.9 376.8,178.2 377.8,179.3 377.8,180.3 377.1,181.7 377.5,182.1 377.5,183.5 377.8,183.8 377.8,185.9
			375.9,189.1 376.1,190.7 430.4,169.5 		"/>
		<polygon fill="#FFFFFF" points="419.4,359.7 419.4,360 419.6,360.2 419.9,360.2 420.1,360 420.1,359.7 419.9,359.5 419.6,359.5
			"/>
		<polygon fill="#FFFFFF" points="377.8,276.2 378.1,276.6 377.8,277.3 377.8,280.1 378.1,280.4 378.5,281.1 378.4,282.9 380,286
			381,288.1 381.5,288.3 381.9,289.2 382.4,289.4 384.3,291.5 384.6,291.5 386.5,293.2 387.5,293.2 387.7,293.6 389,293.9
			389.3,294.3 390,294.3 392.6,297.3 394.1,299.2 394.4,299.2 397.4,302.5 397.4,302.9 398.9,304.3 398.9,304.6 401.9,308.3
			402.1,307.1 400.2,304.6 400.2,303.9 401.3,303.8 402.4,305 402.4,306 402.7,306.4 402.7,307.4 403.4,308.5 403.4,309.2
			404.3,310.9 404.3,311.1 435.9,298.8 435.9,298 436.2,297.6 436.2,296.2 436.5,295.9 436.5,295.5 377.5,272.4 		"/>
		<polygon fill="#FFFFFF" points="357.4,211.8 359.3,211.4 359.6,211.1 360.3,211.4 360.9,211.4 361.2,211.1 361.5,211.4
			362.8,211.4 365.3,213.2 366.3,213.2 366.4,212.3 365.5,210.9 365.5,209.8 366.4,208.8 366.1,208.1 366.4,207.7 366.4,207
			366,206.5 364.2,206 364.2,205.3 363.9,204.9 363.9,203.9 364.2,203.5 364.2,202.8 363.9,202.5 363.9,201.3 356.4,198.4
			364.8,195.1 364.8,194 364.5,193.7 364.5,192.6 364,192.5 363.7,192.1 362.8,192.1 361.8,191 360.9,191 360.6,191.4 360.3,191
			359,191 358.4,191.4 358,191 356.5,191 355.5,192.1 354.6,192.5 354.3,193.2 354,193.2 352.7,194.6 351.4,194.2 349.7,196.8
			349.5,197.4 348.9,197.4 348.5,197.9 348.7,198.2 348.7,200 348.4,200.4 348.4,202.1 349.2,203.3 349.9,203.3 350.3,203.9
			350.3,207 351.6,208.1 351.6,209.1 351.3,209.5 351.6,209.8 350.6,210.9 351.1,211.4 351.8,211.4 353,212.1 355.2,212.1
			355.5,212.5 356.8,212.5 		"/>
		<polygon fill="#FFFFFF" points="379.1,207.3 379.3,207.7 379.4,208.4 380.3,210.5 381.9,213.3 381.9,214.1 382.8,216.2
			383.5,217.6 383.5,218.3 384.3,219.2 384.6,219.2 385.8,220.9 386.1,220.9 386.6,221.8 386.6,225 386.9,225.3 386.9,227
			387.2,227.4 387.3,229.2 387.6,229.5 387.5,232.7 387.2,233 387.2,236.5 387.5,236.9 387.5,238.3 387.9,238.6 387.9,239.3
			388.2,239.7 388.2,242.9 389.5,244.3 389.1,245.7 387.5,248.8 386.6,250.6 386.3,252.3 386.1,252.5 440.4,231.3 		"/>
		<polygon fill="#CE1126" points="435.7,158.7 436.1,158.9 436.3,159.7 436.9,159.7 437.7,160.3 437.9,161.5 438.6,160.6
			439.3,159.6 439.3,158.9 439,158.5 440.2,156.8 440.2,155.4 439.6,154 439.9,152.5 441,151 441.7,151 442,150.6 443.2,150.6
			443.5,150.3 445.1,151 446.5,152.2 445.8,153.8 444.5,154.1 443.1,155.7 443.1,156.1 442.4,156.4 442.4,157.5 444.2,159.4
			446.1,159 446.5,158.5 446.5,157.8 447,157.7 447.3,156.9 448.6,156.9 448.9,156.6 451.1,156.6 452.5,158.2 452.5,158.5
			452.8,158.9 452.2,160.3 452.5,160.6 452.6,163.8 453.3,164 453.8,163.4 454.1,162.7 454.1,157.8 453.8,157.5 454.1,156.8
			453.8,156.4 454.1,156.1 454.1,155 454.4,154.7 454.4,152.9 454.1,152.6 454.4,150.1 453.8,148.7 453.3,148.1 452.7,148.1
			451.4,147.4 450.2,147.4 448.9,146.7 447.9,146.7 447.2,145.8 447.2,144.4 446.9,143.7 445.7,142.5 445.1,142.5 444.5,141.8
			443.6,142.2 443.2,142.5 442.3,142.5 441,143.2 439.8,143.2 438.8,143.9 438.6,144.4 437.5,146 436.3,146.7 435.5,147.6
			435.5,148.3 434.5,150.1 434.9,150.8 434.9,155.7 435.2,156.1 435.2,156.7 434.5,157.5 		"/>
		<polygon fill="#CE1126" points="503.2,366.5 502.9,366.1 501.6,366.1 500.7,367.5 500.4,367.2 499.4,367.2 498.8,367.5
			498.3,368.4 498.9,370.2 499.7,371.4 500.7,371.4 501.6,370.7 503.8,370.3 505.3,369.1 504.9,368.1 505.3,367.4 		"/>
		<polygon fill="#CE1126" points="504.3,378.2 504.3,378.6 504.5,378.7 505.1,378.7 505.6,378.2 505.6,377.9 505.4,377.7
			504.8,377.7 		"/>
		<polygon fill="#CE1126" points="507.5,420.9 507.5,421.6 507.6,421.8 508.3,421.8 508.4,421.6 508.4,421.3 507.9,420.7
			507.6,420.7 		"/>
		<polygon fill="#CE1126" points="515,413.2 513.9,412 512.3,410.9 509.8,410.9 509.5,410.6 507.6,410.6 507,410.9 506.7,410.6
			506,410.9 505.7,410.6 504.6,410.4 506.2,409 506.2,408.3 506.5,408 505.4,406.8 504.8,406.4 503.8,406.4 502.9,407.4
			501.3,407.4 500.8,408 500.8,408.7 501.5,409.4 501.5,410.1 501.8,410.4 501.8,412.2 502.1,412.9 502.6,413.4 503.7,413.9
			503.7,414.3 502.7,415.3 502.7,416.4 504,418.5 504,419.5 504.5,420.1 504.8,420.1 505.7,419 506.3,419 508.6,417.3 510.5,417.2
			511.3,417.8 511.4,418.6 512.7,418.6 513,418.3 513.6,419 514.4,418.1 514.4,417.4 513.5,416.7 515,415 		"/>
		<polygon fill="#CE1126" points="511.7,398 510.8,398 509.2,398.7 508.1,401.7 509.2,402.9 509.7,403.1 510.3,405.5 510.8,406
			511.3,405.5 510.9,404.8 512,403.9 512.7,404 513,403.6 513.6,403.6 514.3,402.9 514.9,402.9 515.7,402 515.7,401 516,400.6
			516.1,400.1 516.6,399.9 516.3,398.2 515.2,398 514.2,397.3 513.8,396.8 513.8,395.7 513.3,395.2 512.7,395.2 512.2,395.7
			512.5,396.1 512.5,397.1 		"/>
		<polygon fill="#CE1126" points="483.3,450.1 484.3,450.1 484.6,450.5 485.1,449.9 484,448.4 483.6,448.4 483,447.7 482.2,447.8
			482.2,448.9 		"/>
		<polygon fill="#CE1126" points="483.3,432.3 483.8,431.4 483.3,430.5 482.7,430.5 482.2,431.1 482.2,431.4 482.7,432.3 		"/>
		<polygon fill="#CE1126" points="496.6,366.1 495.6,366.1 494,367.5 493.1,367.9 492.9,369.1 493.4,369.6 494,369.6 495,371.1
			495.6,370.7 497.2,370.7 498,369.8 497.4,368.1 497.4,367 		"/>
		<polygon fill="#CE1126" points="485.7,404.1 485.7,405.5 484.4,408 484.4,408.7 484.8,409.4 488.5,413.6 488.9,414.2 488.9,418.1
			488.2,419.5 488.2,421.6 488.5,422 488.5,423.4 488.8,423.7 488.9,425.8 488.5,426.2 488.2,427.9 487.6,428.6 487,430.4
			486,431.1 485.4,432.5 485.4,436 486.2,437.5 488.1,438.9 489.3,439.3 490.3,440 490.9,440 491.9,440.7 493.1,440.7 493.4,441
			494.7,441 495.3,441.7 495.9,441.7 496.6,442.4 497.2,442.4 497.5,442.8 498.5,443.1 499.6,444.3 499.6,445 500,445.6 502.6,447
			503.2,447.7 505.1,448.7 505.7,448.7 506,449.1 507.3,449.1 507.6,449.4 507.9,449.4 508.9,450.8 509.4,451 509.4,451.3
			510.9,453.1 510.9,453.4 511.6,453.8 511.7,454.3 512.4,454.3 512.5,453.4 511.9,452.4 508.3,448.4 507,447.7 506,446.6
			504.5,445.6 503.9,445.6 501,443.5 497.2,441.4 496.6,441.4 495.9,440.7 494.1,439.6 493.4,439.6 491.1,437.7 491.1,436.7
			491.5,436.1 492.5,435.8 492.6,435.3 493.3,434.2 493.3,433.5 494.2,432.8 493.9,431.1 493.6,430.7 494.4,429.8 494.7,429.8
			496.3,428.4 498.1,428.1 498.6,427.6 498.6,425.8 497.4,424.8 497.2,424.3 495.9,424.3 495.3,424.9 494.1,425.3 493.7,426
			492.8,426 492.3,425.5 494.4,422.8 495.2,422.3 495.2,421.6 493.9,420.6 493.9,419.5 495.3,417.9 495.8,417.8 495.8,416.7
			496.6,416.2 497.5,416.2 498.5,417.6 499.3,416.4 499.3,415 498.8,414.5 498,414.3 498,412.2 497.1,411.5 497.1,410.4
			496.3,409.9 494.8,409.7 494.5,407.6 493.6,406.9 493.6,406.2 493.3,405.5 492.7,405.2 492.6,404.5 492.3,404.1 492.3,403.4
			492.6,403.1 492.6,402.4 493.4,401.8 494.4,401.8 495,401.5 495.5,400.6 495.3,399.4 494.1,399.4 493.7,399.7 490.3,400.1
			489.2,399.2 488.8,398.5 489.6,397.3 490.6,397.3 490.9,397 492.8,397 493.1,397.3 494.7,397.3 495.3,397.6 496.6,400.8
			497.5,401.1 498.2,400.4 498.5,400.4 500.7,398 501.9,397.3 503.2,397.3 503.5,397.7 504.3,397.8 503.8,398.7 503.1,398.9
			503.2,399.4 504.5,399.4 505.1,399.1 505.4,398 506.7,397.7 507.2,397.1 507.1,396.1 506.4,395.2 506,395.2 505.7,394.8
			504.5,394.8 504,394.3 503.5,391.7 502.6,391.7 502.4,392.9 501.6,393.1 501.1,392.6 501.1,390.8 501.8,390.5 501.8,389.4
			502.3,388.9 503.5,388.9 503.8,388.6 504.5,388.6 505.6,386.6 505.9,385.6 507.2,384.5 507.2,381 506.8,380.3 508.4,378.6
			508.4,377.2 508.7,376.5 508.3,375.9 507.6,376.3 507,377.7 506,378 505.4,379.1 503.8,379.1 502.4,380.7 502.7,381.4
			502.6,382.2 501.6,382.6 501.2,382.1 501.2,381.7 500.4,381.2 499.7,381.6 497.5,381.2 496.4,382.4 496.4,382.8 492.3,388.4
			492.3,388.7 489.8,391.2 489.5,392.2 487.9,394 487,396.1 487,397.5 486,398.5 485.4,399.9 485.4,401 486,402 486,403.8 		"/>
		<polygon fill="#CE1126" points="516.8,372.8 516.6,373 516.6,373.3 516.3,373.7 516.5,373.8 517.4,373.8 517.6,373.7 517.6,373
			517.4,372.8 		"/>
		<polygon fill="#CE1126" points="506.5,392.9 506.5,393.3 506.7,393.4 507.3,393.4 507.8,392.9 507.8,392.6 507.6,392.4 507,392.4
					"/>
		<polygon fill="#CE1126" points="503.1,400.3 502.6,400.1 502.3,399.8 501.6,399.8 501.5,399.9 501.5,400.6 502.3,401.5 502.4,401
					"/>
		<polygon fill="#CE1126" points="503.2,425.6 503.7,425.1 503.4,424.8 503.4,424.4 503.2,424.2 502.6,424.2 502.4,424.4
			502.4,425.1 502.9,425.6 		"/>
		<polygon fill="#CE1126" points="468.3,253.4 468.3,253.1 468.2,252.9 467.8,252.9 467.7,253.1 467.7,253.4 467.8,253.6
			468.2,253.6 		"/>
		<polygon fill="#CE1126" points="508.2,391 508.4,390.8 508.4,390.1 507.9,389.6 507.3,389.6 507.1,389.8 507.1,390.4 507.6,391
			"/>
		<polygon fill="#CE1126" points="503,421.3 503,420.9 502.6,420.4 502.1,420.9 502.1,421.6 502.3,421.8 502.6,421.8 		"/>
		<polygon fill="#CE1126" points="501.3,424.2 501.8,423.7 501.3,423.2 500.7,423.2 500.2,423.7 500.2,424.1 500.4,424.2 		"/>
		<polygon fill="#CE1126" points="498.2,407.8 499.7,406.7 500.4,406.7 500.5,405.5 499.9,405.2 499.1,403.6 498.2,403.6
			497.7,404.8 497.1,405.5 497.1,406.2 497.7,406.9 497.7,407.6 		"/>
		<polygon fill="#CE1126" points="431,354.6 431.1,354.4 431.1,354.1 431,353.9 430.6,353.9 430.5,354.1 430.5,354.4 430.7,354.6
			"/>
		<polygon fill="#CE1126" points="435.1,301 434.9,301.1 434.9,302.9 435.7,303.1 435.9,302.9 435.9,301.5 		"/>
		<polygon fill="#CE1126" points="404.3,311.6 404.9,312.3 405.6,314.1 407.5,316.6 408.1,318 410.3,320.8 410.9,322.2 412.2,323.9
			412.5,325.3 413.5,327.1 413.4,327.8 413.8,328.1 413.8,333 414.1,333.4 414.1,336.9 415,339 415.4,340.7 416.6,342.1
			417.2,343.5 417.2,344.9 418.5,346.7 419.1,347.7 419.1,348.4 419.5,348.8 419.5,349.5 420.1,350.9 420.9,351.8 421,351.6
			420.7,350.2 419.8,347.7 419.8,345.3 420.1,344.9 421.7,342.2 424,339.5 424.3,339.5 424.7,338.8 425.6,338.4 427,336.9
			427.3,335.8 429.7,333.2 430.2,333 430.3,332.5 431.1,332 431.4,330.9 432.7,328.8 434.4,326.9 434.9,326.7 435.2,326
			434.3,324.3 434,322.5 433.7,322.2 433.6,320 434,319.7 434,316.9 434.3,316.5 434.3,311.3 433.9,310.9 434.3,310.6 434.6,308.8
			434.9,308.5 434.9,307.1 434.3,305.3 434.3,303.2 433.9,302.9 433.9,301.5 434.3,301.1 434.3,300.4 435.1,299.2 435.4,299.6
			435.9,299.4 435.9,298.8 404.3,311.1 		"/>
		<polygon fill="#CE1126" points="440.6,261.5 441.8,258.3 441.8,256.2 442.1,255.9 442.4,252.3 442.8,252 442.8,250.6 445.3,247.8
			445.3,246.7 444.8,246.2 442.6,245.5 440.9,244.3 440.5,239.7 439.9,238.6 440.2,235.1 441.8,234.1 441.8,233 441.5,232.7
			441.5,231.6 441,231.1 440.1,231.1 439,229.9 439,228.1 439.4,227.6 440.1,227.6 440.6,227.1 440.6,226 440.2,225.7 440.2,223.2
			439.9,222.8 439.9,219.7 440.7,219.2 442.6,217.1 443.1,217.2 442.9,217.7 443.5,217.7 443.8,218.1 444.3,217.6 444.3,216.9
			443.7,216.2 443.1,214.4 440.6,211.6 438.7,206.3 438.3,206 438.3,202.5 437.9,202.3 436.9,200.9 435,200.9 434.7,201.2
			433.8,201.2 431.9,200.2 431.1,200.7 431.1,202.5 432,203.9 431.9,204.4 431.5,204.4 430.4,202.8 430.4,202.1 429.2,200.7
			429.5,199 430,198.4 430.6,198.4 430.8,197.9 428.7,195.6 427.8,195.6 426.5,194.2 425.9,194.2 424.6,193.5 423.5,192.3
			422.9,191.2 422.7,190 422.4,190 422.1,189.3 421.5,189.3 420.5,187.9 420,187.7 420.1,186.3 419.7,186 419.7,185.2 419.3,184.4
			418.6,184.4 418.1,183.8 418.1,182.1 417.7,181.2 416.7,181.6 416.1,182.2 415.8,181.9 415.2,181.9 414.8,182.2 413.6,182.2
			413.3,181.5 412.6,181.5 412.3,181.2 411,181.2 410.7,181.6 409.3,181.7 409.8,180.9 411,180.9 412,179.4 412.6,179.8
			413.3,180.1 415.5,179.8 417.1,178.4 417.7,178.4 418.3,177.3 419.9,177.3 420.7,176.5 420.7,176.1 422.1,174.9 422.3,175.4
			421.9,176.1 422.4,176.6 423.3,175.9 423.5,176.5 422.9,177.2 423,177.3 427.5,177.3 427.8,177 428.4,177.7 429.3,178 429.5,180
			430.3,180.1 431.9,179.1 432,179.3 431.1,180.3 431.9,180.9 432.2,180.5 433.8,180.2 434.1,179.8 435,179.8 435.3,179.4
			436,179.4 436.4,178.9 436.4,177.9 435.2,177.2 435.8,175.8 435.8,174.7 435.3,174.2 434.1,174.2 433.8,173.8 431.6,173.8
			430.8,173.3 431.1,172.9 431.1,172.3 430.1,171.9 430.4,169.5 376.1,190.7 376.2,191.6 374.9,193.3 374.9,194.7 375.9,197.6
			375.9,199.3 376.2,199.7 376.2,200.7 377.1,202.8 377.1,204.2 378.1,205.3 379.1,207.3 440.4,231.3 386.1,252.5 384.7,254.4
			384.1,256.2 384.1,256.9 384.4,257.3 384.4,260.1 384.1,260.4 384.1,261.8 382.7,263.8 382.2,263.9 381.6,265 381.6,265.3
			378.9,268.7 378.4,268.8 378.1,269.6 378.1,270.9 377.5,272 377.5,272.4 436.5,295.5 436.5,294.8 437.1,293.4 437.1,292
			437.5,291.7 437.4,290.6 436.5,289.2 436.5,287.8 436.8,287.4 437.1,285 437.4,284.7 437.4,281.8 437.1,281.5 437.1,280.8
			437.4,280.4 437.5,276.9 437.1,276.2 438.4,273.8 438.4,273.1 438.7,272.7 438.7,268.2 439.3,267.1 439.6,263.9 440.1,263.7
			440.6,262.9 		"/>
		<polygon fill="#CE1126" points="432.7,352 432.7,351.6 432.5,351.4 432.2,351.4 432.1,351.6 432.1,352 432.2,352.1 432.5,352.1
			"/>
		<polygon fill="#CE1126" points="430.1,149.7 430.1,149.4 429.7,148.9 429.3,148.9 429.2,149 429.2,149.7 429.4,149.9 430,149.9
			"/>
		<polygon fill="#CE1126" points="428.9,185.9 428.1,185.1 427.4,185.1 427.1,184.4 426.2,184.7 425.4,186.3 425.7,187.4
			424.8,188.4 425.9,189.3 427.8,188.2 428.7,188.2 428.9,187.7 428.6,187.3 428.9,187 		"/>
		<polygon fill="#CE1126" points="441.3,140.8 441.5,140.6 441.5,139.9 441.3,139.7 441,139.7 440.9,139.9 440.9,140.6 441,140.8
			"/>
		<polygon fill="#CE1126" points="455.2,197.4 455.8,197.4 457,196.5 456.2,196 454.7,196.8 		"/>
		<polygon fill="#CE1126" points="454,170.7 453.8,170.8 453.8,171.5 454,171.7 454.3,171.7 454.4,171.5 454.4,170.8 454.3,170.7
			"/>
		<polygon fill="#CE1126" points="453.3,166.1 453.1,166.3 453.2,166.6 453.5,167 453.6,167.5 454.3,167.5 454.4,167.3 454.4,166.6
			453.9,166.1 		"/>
		<polygon fill="#CE1126" points="456.3,183.5 457.6,185.2 457.7,186.1 458.4,186.1 459.5,185.2 459.5,184.6 458.8,183.8
			459.2,183.5 458.8,183.1 458.8,181 458,179.8 456.1,180.2 455.4,181.4 		"/>
		<polygon fill="#CE1126" points="363.9,201.3 363.9,200 364.2,199.6 364.2,199 363.9,198.2 364.2,197.9 364.2,197.2 364.8,196.1
			364.8,195.1 356.4,198.4 		"/>
		<polygon fill="#CE1126" points="455.8,142.9 455.5,142.9 455.4,143 455.4,144.1 455.5,144.3 456.2,144.3 456.3,144.1 456.3,143.7
			456,143.4 456,143 		"/>
		<polygon fill="#CE1126" points="457,193.7 457,194 457.8,194.9 458.1,194.9 458.4,195.2 458.5,195.1 458.5,194.7 457.4,193.5
			"/>
		<polygon fill="#CE1126" points="447.2,161.7 447.8,161 447.7,160.4 446.7,160.8 445.9,161.7 445.9,163.4 446.6,163.4 		"/>
		<polygon fill="#CE1126" points="445.9,215.1 446.2,214.8 446.2,214.1 445.3,213.3 445.3,211.6 444.3,210.2 444.7,209.5
			444.7,207.7 444,207 444,205.3 444.3,204.9 444.3,201.8 443.6,201.6 443.2,201.9 442.4,200 442.4,199.3 443.4,198.2 443.4,197.5
			443.7,197.2 443.7,192.3 442.6,190.7 442.1,190.5 442.1,189.8 441.6,189.3 441,190 439.8,189.3 437.9,189.3 437.6,188.9
			435,188.9 433.9,190.5 433.9,191.9 433.3,192.6 433.3,194 433.6,194.4 433.9,197.2 434.7,198.1 435.7,198.1 436,198.4
			437.2,198.1 438.2,198.8 439.4,198.8 439.9,199.3 439.9,200 439.3,200.7 439.6,202.1 439,203.2 439,204.6 439.6,205.6
			440.2,208.1 442.4,211.2 443.7,214.1 444.7,214.8 445.1,216.3 445.9,215.8 		"/>
		<polygon fill="#CE1126" points="441,229.4 440.8,229.5 440.8,230.6 441,230.7 441.6,230.7 441.8,230.6 441.8,229.9 441.3,229.4
			"/>
		<polygon fill="#CE1126" points="441.8,187 442.1,186.7 442,185.8 441.7,185.8 441.3,185.4 440.9,185.9 440.9,186.3 440.6,186.7
			440.6,187.4 440.7,187.5 441.8,187.4 		"/>
	</g>
	<path fill="none" stroke="#999999" stroke-width="0.25" stroke-linecap="round" stroke-linejoin="round" d="M419.6,359.5l-0.2,0.2
		v0.3l0.1,0.2h0.3l0.1-0.2v-0.4l-0.1-0.2H419.6z M364.2,206v-0.7l-0.3-0.3l0-1.1l0.3-0.3v-0.7l-0.3-0.3l0-2.5l0.3-0.4l0-0.7
		l-0.3-0.7l0.3-0.3v-0.7l0.6-1.1l0-2.1l-0.3-0.3v-1.1l-0.5-0.2l-0.3-0.4l-0.9,0l-0.9-1.1l-0.9,0l-0.3,0.3l-0.3-0.3l-1.3,0l-0.6,0.4
		L358,191h-1.6l-1,1.1l-0.9,0.3l-0.3,0.7H354l-1.3,1.4l-1.3-0.4l-1.7,2.6l-0.2,0.5h-0.6l-0.5,0.5l0.3,0.3v1.8l-0.3,0.4l0,1.7
		l0.8,1.2h0.6l0.5,0.6l0,3.1l1.3,1.1l0,1l-0.3,0.4l0.3,0.4l-1,1l0.5,0.5l0.7,0l1.3,0.7l2.2,0l0.3,0.4l1.3,0l0.6-0.7l1.9-0.4l0.3-0.3
		l0.7,0.4h0.6l0.3-0.3l0.3,0.3l1.3,0l2.5,1.8l1,0l0.1-0.9l-0.9-1.4l0-1.1l1-1l-0.3-0.7l0.3-0.4V207l-0.5-0.5L364.2,206z
		 M330.9,186.6l-0.5-0.9l-0.9-0.2l-0.2,0l-0.2,0.1l-0.2,0.2l-0.2,0.1l-0.1,0.1l-0.7-0.2l-0.2-0.2l-0.3-0.9l-0.1-0.1l-0.6-0.2l-0.3,0
		l-0.3,0.1l-0.2,0.2l-0.3,0l-0.5-0.1l-0.2,0l-0.3,0l-0.2,0l-0.1,0l-0.7-0.4l0,0l-0.1,0.1l0,0.1l0,0l0.2,0.1l0.5,0.3l0.1,0l0.1,0.1
		l0.1,0.1l0.2,0.2l0.2,0.3l0.1,0.1l0.2,0.1l0.2,0.1l0.2,0.2l0.1,0.2l0,0.3l0.1,0.1l0.8,0.3l1-0.3l1.1,0.4l0.3,0.6l0.2,0.2l0.7,0.2
		l0.2-0.1l0.9-0.6l1.2,0l0-0.3l-1-0.1L330.9,186.6z M430.6,353.9l-0.2,0.2l0,0.4l0.2,0.2h0.3l0.2-0.2v-0.4l-0.2-0.2H430.6z
		 M369.9,177.8v1.8l0.3,0.7l-0.3,0.7l0.5,0.9l0.3-0.4l0.8-0.2l-0.8-3.7L369.9,177.8z M373.8,218.5l-0.1,0.2l0,0.3l0.1,0.2l0.7,0
		l0.1-0.2v-0.3l-0.1-0.2L373.8,218.5z M441,229.4l-0.2,0.2v1.1l0.2,0.2h0.6l0.2-0.2l0-0.7l-0.5-0.5H441z M442.6,245.5l-1.7-1.2
		l-0.3-4.6l-0.6-1.1l0.3-3.5l1.6-1V233l-0.3-0.3l0-1.1l-0.5-0.5l-1,0l-1.1-1.2l0-1.7l0.5-0.6h0.6l0.5-0.5v-1l-0.3-0.4l0-2.5
		l-0.3-0.4l0-3.2l0.8-0.5l1.9-2.1l0.5,0.2l-0.2,0.5h0.6l0.3,0.4l0.5-0.5l0-0.7l-0.6-0.7l-0.6-1.8l-2.5-2.8l-1.9-5.3l-0.3-0.4l0-3.5
		l-0.5-0.2l-0.9-1.4l-1.9,0l-0.3,0.3h-0.9l-1.9-1.1l-0.8,0.5l0,1.8l0.9,1.4l-0.1,0.5h-0.3l-1.1-1.6v-0.7l-1.3-1.4l0.3-1.7l0.5-0.5
		h0.6l0.2-0.5l-2.1-2.3h-0.9l-1.3-1.4h-0.6l-1.3-0.7l-1.1-1.2l-0.6-1.1l-0.1-1.2h-0.3l-0.3-0.7h-0.6l-0.9-1.4l-0.5-0.2l0-1.4
		l-0.3-0.3v-0.7l-0.5-0.9l-0.6,0l-0.5-0.5v-1.7l-0.5-0.9l-1,0.4l-0.6,0.7l-0.3-0.3l-0.6,0l-0.3,0.3h-1.3l-0.3-0.7h-0.6l-0.3-0.3H411
		l-0.3,0.3l-1.4,0.2l0.5-0.9h1.2l1-1.4l0.6,0.3l0.6,0.4l2.2-0.3l1.6-1.4h0.6l0.6-1l1.6,0l0.8-0.9l0-0.4l1.4-1.2l0.2,0.5l-0.3,0.7
		l0.5,0.5l0.9-0.7l0.2,0.5l-0.7,0.7l0.2,0.2l4.4,0l0.3-0.4l0.6,0.7l0.9,0.4l0.2,1.9l0.8,0.2l1.6-1l0.2,0.2l-1,1.1l0.8,0.5l0.3-0.4
		l1.6-0.3l0.3-0.4h1l0.3-0.3l0.7,0l0.5-0.5v-1l-1.3-0.7l0.6-1.4v-1.1l-0.5-0.5h-1.3l-0.3-0.4l-2.2,0l-0.8-0.5l0.3-0.3v-0.7l-0.9-0.4
		l0.3-3.5l0.5-0.9l0.6,0l0.5-0.6l-1.1-0.5l-0.1-0.9l-0.8-0.2l-2.1-2.3l-0.1-0.5l-0.9-0.4l-0.3,0.3l-2.2,0l-1,1h-0.6l-0.5,0.5
		l-1.4,2.3l-1.3,0.7l-0.3,0.7h-0.6l-0.6,0.7l-1,0l-0.3,0.3h-3.2l-0.3-0.4h-2.5l-0.3-0.4h-0.9l-0.7-0.7l-1.9-0.3l-2.5-2.5h-0.3
		l-1.3-0.7l-0.6,0.4l-3.2,0l-0.3-0.3l-1.6,0l-0.6,0.4l-0.3-0.3l-1.6,0l-0.3,0.4l-1.3,0l-0.3-0.4h-0.7l-0.3,0.4l-2.5,0l-0.3,0.4H388
		l-0.3,0.3l-1.3-0.3l-0.3,0.3h-1.3l-1.3,0.7l-0.6,0l-1.2,1.1l-1,0l-0.8,0.6v0.3l-2.7,3l-2.4,1.6l0,1.4l0.3,0.3l0,2.5l1.6,1.4v0.4
		l0.9,1l0,1.1l-0.6,1.4l0.3,0.3v1.4l0.3,0.4l0,2.1l-1.9,3.2l0.3,2.5l-1.3,1.7v1.4l0.9,2.8l0,1.7l0.3,0.4v1.1l0.9,2.1l0,1.4l0.9,1.1
		l1.3,2.5l0,0.7l0.9,2.1l1.6,2.8l0,0.7l0.9,2.1l0.6,1.4v0.7l0.8,0.9h0.3l1.3,1.8h0.3l0.5,0.9l0,3.2l0.3,0.3l0,1.8l0.3,0.4l0,1.8
		l0.3,0.3l0,3.2l-0.3,0.3l0,3.5l0.3,0.4v1.4l0.3,0.3v0.7l0.3,0.4l0,3.2l1.3,1.4l-0.3,1.4l-1.6,3.1l-0.9,1.8l-0.3,1.7l-1.6,2.1
		l-0.6,1.8l0,0.7l0.3,0.4l0,2.8l-0.3,0.4l0,1.4l-1.4,1.9l-0.5,0.2l-0.6,1.1l0,0.4l-2.7,3.3l-0.5,0.2l-0.3,0.7l0,1.4l-0.7,1.1
		l0.3,4.2l0.3,0.3l-0.3,0.7l0,2.8l0.3,0.4l0.3,0.7l0,1.8l1.6,3.2l0.9,2.1l0.5,0.2l0.5,0.9l0.5,0.2l1.9,2.1h0.3l1.9,1.8h1l0.3,0.3
		l1.3,0.4l0.3,0.4h0.7l2.7,3l1.4,1.9h0.3l3,3.3v0.3l1.6,1.4v0.3l3,3.7l0.2-1.2l-1.9-2.5v-0.7l1.1-0.2l1.1,1.2v1l0.3,0.4l0,1l0.7,1.1
		v0.7l0.9,1.8v0.7l0.6,0.7l0.6,1.8l1.9,2.5l0.6,1.4l2.2,2.8l0.6,1.4l1.3,1.8l0.3,1.4l1,1.7l0,0.7l0.3,0.3l0,4.9l0.3,0.3l0,3.5
		l0.9,2.1l0.3,1.7l1.3,1.4l0.6,1.4v1.4l1.3,1.8l0.6,1.1v0.7l0.3,0.3l0,0.7l0.6,1.4l0.8,0.9l0.2-0.2l-0.3-1.4l-0.9-2.5l0-2.5l0.3-0.3
		l1.6-2.8l2.4-2.6h0.3l0.3-0.7l1-0.4l1.4-1.6l0.3-1.1l2.4-2.6l0.5-0.2l0.2-0.5l0.8-0.5l0.3-1l1.3-2.1l1.7-1.9l0.5-0.2l0.3-0.7
		l-0.9-1.8l-0.3-1.8l-0.3-0.3l0-2.1l0.3-0.3l0-2.8l0.3-0.4l0-5.3l-0.3-0.3l0.3-0.3l0.3-1.8l0.3-0.3l0-1.4l-0.6-1.8l0-2.1l-0.3-0.3
		v-1.4l0.3-0.4v-0.7l0.8-1.2l0.3,0.4l0.5-0.2l0-1.4l0.3-0.4v-1.4l0.3-0.3v-1.1l0.6-1.4l0-1.4l0.3-0.3l0-1.1l-1-1.4l0-1.4l0.3-0.4
		l0.3-2.4l0.3-0.3l0-2.8l-0.3-0.3v-0.7l0.3-0.3l0-3.5l-0.3-0.7l1.3-2.4v-0.7l0.3-0.4l0-4.5l0.6-1.1l0.3-3.2l0.5-0.2l0.5-0.9v-1.4
		l1.2-3.2l0-2.1l0.3-0.3l0.3-3.5l0.3-0.4v-1.4l2.5-2.8v-1l-0.5-0.6L442.6,245.5z M432.2,351.4l-0.1,0.2l0,0.4l0.2,0.2h0.3l0.2-0.2
		v-0.4l-0.2-0.2H432.2z M435.1,301l-0.2,0.2l0,1.8l0.8,0.2l0.2-0.2l0-1.4L435.1,301z M428.9,185.9l-0.8-0.9l-0.7,0l-0.3-0.7l-1,0.4
		l-0.8,1.6l0.3,1.1l-0.9,1l1.1,0.9l1.9-1.1h0.9l0.1-0.5l-0.3-0.4l0.3-0.4L428.9,185.9z M494,369.6l1,1.4l0.6-0.4h1.6l0.8-0.9
		l-0.6-1.8v-1l-0.8-0.9h-1l-1.6,1.4l-0.9,0.4l-0.2,1.2l0.5,0.5H494z M483.3,432.3l0.5-0.9l-0.5-0.9h-0.6l-0.5,0.5v0.3l0.5,0.9H483.3
		z M499.7,371.4l1,0l0.9-0.7l2.2-0.3l1.4-1.2l-0.3-1l0.3-0.7l-2-0.9l-0.3-0.3h-1.3l-1,1.4l-0.3-0.3h-1l-0.6,0.3l-0.5,0.9l0.6,1.8
		L499.7,371.4z M504.3,378.2v0.4l0.1,0.2h0.7l0.5-0.5v-0.4l-0.1-0.2l-0.6,0L504.3,378.2z M456.2,144.3l0.1-0.2v-0.4l-0.3-0.3V143
		l-0.2-0.2h-0.3l-0.1,0.2v1l0.1,0.2H456.2z M324.5,189.7l-0.1,0l-0.1,0l0.1,0.2l0,0.1l0,0.1l0,0l0.1,0l0.1-0.1l0.1-0.1l0.1-0.2h-0.1
		L324.5,189.7z M357.7,182.6l0.3,0.3h1.6l1.1-0.5l-0.2-0.5h-0.6l-1.6-1.1l-2.2,0l-0.2,0.9l0.8,0.9L357.7,182.6z M323.9,189.3
		l0.1-0.1l0.3,0l0-0.1l-0.7-0.3l-0.3-0.1l-0.2-0.2l-0.2-0.2l-0.1,0.1l0.1,0.1l0,0.1l0,0.2l-0.2,0.5l-0.1,0.4l-0.1,0.4l0.2,0l0.2-0.1
		l0.2,0l0.2-0.1l0,0l0.3-0.1l0.4-0.1l0-0.1l0.1-0.1L323.9,189.3l0,0.2l-0.1,0.1l-0.1,0l0-0.1l0-0.1L323.9,189.3z M430,149.9l0.2-0.2
		v-0.3l-0.5-0.5h-0.3l-0.2,0.2v0.7l0.2,0.2H430z M441.3,140.8l0.2-0.2v-0.7l-0.2-0.2H441l-0.2,0.2v0.7l0.2,0.2H441.3z M445.3,211.6
		l-0.9-1.4l0.3-0.7l0-1.8L444,207l0-1.8l0.3-0.3l0-3.2l-0.8-0.2l-0.3,0.3l-0.8-1.9v-0.7l1-1.1v-0.7l0.3-0.3l0-4.9l-1.1-1.6l-0.5-0.2
		v-0.7l-0.5-0.6L441,190l-1.3-0.7h-1.9l-0.3-0.4l-2.5,0l-1.1,1.6v1.4l-0.6,0.7v1.4l0.3,0.3l0.3,2.8l0.8,0.9h1l0.3,0.4l1.3-0.4l1,0.7
		h1.3l0.5,0.5v0.7l-0.6,0.7l0.3,1.4l-0.6,1.1l0,1.4l0.6,1l0.6,2.5l2.2,3.2l1.3,2.8l1,0.7l0.5,1.6l0.8-0.5v-0.7l0.3-0.4v-0.7
		l-0.9-0.7L445.3,211.6z M498.2,407.8l1.6-1h0.6l0.2-1.2l-0.6-0.3l-0.8-1.6l-1,0l-0.5,1.2l-0.6,0.7v0.7l0.6,0.7v0.7L498.2,407.8z
		 M501.3,424.2l0.5-0.5l-0.5-0.5h-0.7l-0.5,0.5v0.3l0.1,0.2H501.3z M502.3,399.8h-0.6l-0.1,0.2v0.7l0.8,0.9l0.1-0.5l0.7-0.7
		l-0.5-0.2L502.3,399.8z M507,392.4l-0.5,0.5v0.4l0.1,0.2h0.6l0.5-0.5v-0.3l-0.2-0.2L507,392.4z M503.2,424.2h-0.6l-0.2,0.2v0.7
		l0.5,0.5h0.3l0.5-0.5l-0.3-0.3v-0.4L503.2,424.2z M508.4,421.6v-0.3l-0.5-0.5h-0.3l-0.1,0.2v0.7l0.1,0.2h0.7L508.4,421.6z
		 M517.4,372.8h-0.6l-0.2,0.2v0.4l-0.3,0.3l0.2,0.2h0.9l0.2-0.2V373L517.4,372.8z M502.1,420.9v0.7l0.1,0.2h0.3l0.5-0.5v-0.4
		l-0.5-0.5L502.1,420.9z M515.2,398l-1-0.7l-0.5-0.5l0-1.1l-0.5-0.5h-0.6l-0.5,0.5l0.3,0.4v1l-0.8,0.9h-1l-1.6,0.7l-1.1,3l1.1,1.2
		l0.5,0.2l0.6,2.4l0.5,0.5l0.5-0.5l-0.3-0.7l1.1-0.9l0.6,0l0.3-0.4h0.7l0.6-0.7h0.6l0.8-0.9V401l0.3-0.3l0.1-0.5l0.5-0.2l-0.3-1.8
		L515.2,398z M508.4,390.8v-0.7l-0.5-0.5h-0.6l-0.2,0.2v0.7l0.5,0.6h0.6L508.4,390.8z M512.3,410.9l-2.5,0l-0.3-0.4h-1.9l-0.7,0.4
		l-0.3-0.4l-0.6,0.4l-0.3-0.4l-1.1-0.2l1.6-1.4v-0.7l0.3-0.3l-1.1-1.2l-0.6-0.4h-1l-1,1h-1.6l-0.5,0.5v0.7l0.6,0.7v0.7l0.3,0.4v1.8
		l0.3,0.7l0.5,0.5l1.1,0.5v0.4l-1,1v1.1l1.3,2.1v1l0.5,0.5h0.3l0.9-1.1h0.6l2.2-1.7l1.9,0l0.8,0.5l0.2,0.9h1.2l0.3-0.3l0.6,0.7
		l0.8-0.9v-0.7l-0.9-0.7l1.6-1.7v-1.8l-1.1-1.2L512.3,410.9z M457,193.7v0.3l0.8,0.9h0.3l0.3,0.3l0.2-0.2v-0.3l-1.1-1.2L457,193.7z
		 M508.3,448.4l-1.3-0.7l-1-1l-1.6-1.1h-0.6l-2.9-2.1l-3.8-2.1l-0.6,0l-0.6-0.7l-1.9-1l-0.6,0l-2.4-1.9v-1l0.5-0.5l1-0.4l0.1-0.5
		l0.6-1v-0.7l0.9-0.7l-0.3-1.7l-0.3-0.4l0.8-0.9h0.3l1.6-1.4l1.9-0.4l0.5-0.5l0-1.8l-1.3-1.1l-0.2-0.5h-1.3l-0.6,0.7l-1.3,0.4
		l-0.3,0.7h-1l-0.5-0.5l2.1-2.6l0.8-0.5v-0.7l-1.3-1v-1.1l1.4-1.6l0.5-0.2v-1.1l0.8-0.5l1,0l1,1.4l0.8-1.2V415l-0.5-0.5l-0.8-0.2
		v-2.1l-0.9-0.7l0-1.1l-0.8-0.5l-1.4-0.2l-0.3-2.1l-0.9-0.7l0-0.7l-0.3-0.7l-0.6-0.3l0-0.7l-0.3-0.4v-0.7l0.3-0.3v-0.7l0.8-0.5
		l0.9,0l0.6-0.3l0.5-0.9l-0.1-1.2h-1.3l-0.3,0.3l-3.5,0.3l-1.1-0.9l-0.3-0.7l0.8-1.2h0.9l0.3-0.3h1.9l0.3,0.3l1.6,0l0.6,0.4l1.3,3.2
		l0.9,0.3l0.7-0.7h0.3l2.2-2.4l1.3-0.7h1.3l0.3,0.4l0.8,0.2l-0.5,0.9l-0.8,0.2l0.1,0.5h1.3l0.6-0.3l0.3-1.1l1.2-0.3l0.5-0.5l0-1.1
		l-0.8-0.9H506l-0.3-0.4h-1.3l-0.5-0.5l-0.5-2.6h-1l-0.1,1.2l-0.8,0.2l-0.5-0.5v-1.7l0.6-0.4v-1l0.5-0.5h1.3l0.3-0.3h0.7l1.1-1.9
		l0.3-1.1l1.3-1V381l-0.3-0.7l1.6-1.7v-1.4l0.3-0.7l-0.5-0.5l-0.7,0.4l-0.6,1.4l-1,0.4l-0.6,1h-1.6l-1.4,1.6l0.3,0.7l-0.2,0.9
		l-1,0.3l-0.5-0.5v-0.4l-0.8-0.5l-0.6,0.4l-2.2-0.4l-1.1,1.2v0.3l-4.1,5.6v0.3l-2.5,2.5l-0.3,1l-1.6,1.7l-1,2.1v1.4l-0.9,1l-0.7,1.4
		v1l0.6,1v1.7l-0.3,0.4v1.4l-1.3,2.5v0.7l0.3,0.7l3.8,4.2l0.3,0.7l0,3.9l-0.7,1.4l0,2.1l0.3,0.3l0,1.4l0.3,0.4l0,2.1l-0.3,0.4
		l-0.3,1.7l-0.6,0.7l-0.6,1.8l-1,0.7l-0.6,1.4v3.5l0.8,1.6l1.9,1.4l1.3,0.3l0.9,0.7h0.7l0.9,0.7l1.2,0l0.3,0.4h1.2l0.7,0.7h0.6
		l0.7,0.7h0.6l0.3,0.3l1,0.4l1.1,1.2v0.7l0.5,0.5l2.5,1.4l0.6,0.7l1.9,1h0.6l0.3,0.4h1.3l0.3,0.4h0.3l0.9,1.4l0.5,0.2v0.3l1.6,1.7
		v0.4l0.7,0.3l0.1,0.5h0.7l0.1-0.9l-0.6-1.1L508.3,448.4z M454.4,167.3v-0.7l-0.5-0.5h-0.6l-0.2,0.2l0,0.3l0.3,0.4l0.1,0.5l0.6,0
		L454.4,167.3z M446.7,160.8l-0.8,0.9l0,1.8h0.7l0.6-1.8l0.6-0.7l-0.1-0.6L446.7,160.8z M453.8,163.4l0.3-0.7l0-4.9l-0.3-0.3
		l0.3-0.7l-0.3-0.4l0.3-0.3l0-1.1l0.3-0.3v-1.8l-0.3-0.3l0.3-2.5l-0.6-1.4l-0.5-0.5l-0.6,0l-1.3-0.7h-1.3l-1.3-0.7h-1l-0.8-0.9v-1.4
		l-0.3-0.7l-1.1-1.2h-0.6l-0.6-0.7l-0.9,0.3l-0.3,0.4h-1l-1.3,0.7l-1.3,0l-0.9,0.7l-0.2,0.5l-1.1,1.6l-1.3,0.7l-0.8,0.9l0,0.7
		l-0.9,1.7l0.3,0.7l0,4.9l0.3,0.3l0,0.7l-0.7,0.7l1.1,1.2l0.5,0.2l0.1,0.9h0.6l0.8,0.5l0.1,1.2l0.8-0.9l0.6-1.1v-0.7l-0.3-0.4
		l1.3-1.7l0-1.4l-0.7-1.4l0.3-1.4l1.1-1.6h0.6l0.3-0.3l1.2,0l0.3-0.3l1.6,0.7l1.4,1.2l-0.8,1.6l-1.3,0.4l-1.4,1.6v0.4l-0.6,0.3v1
		l1.7,1.9l1.9-0.4l0.5-0.5v-0.7l0.5-0.2l0.3-0.7h1.3l0.3-0.3l2.2,0l1.4,1.6v0.3l0.3,0.4l-0.6,1.4l0.3,0.3l0,3.2l0.8,0.2L453.8,163.4
		z M454.7,196.8l0.5,0.5h0.6l1.1-0.9l-0.8-0.5L454.7,196.8z M454,170.7l-0.2,0.2v0.7l0.2,0.2h0.3l0.1-0.2l0-0.7l-0.2-0.2H454z
		 M467.8,252.9l-0.2,0.2v0.3l0.2,0.2h0.3l0.1-0.2v-0.3l-0.1-0.2H467.8z M483.6,448.4l-0.6-0.7l-0.8,0.2l0,1.1l1.1,1.2h1l0.3,0.4
		l0.5-0.6l-1.1-1.6H483.6z M459.2,183.5l-0.3-0.4l0-2.1l-0.8-1.2l-1.9,0.4l-0.8,1.2l0.9,2.1l1.3,1.7l0.1,0.9h0.7l1.1-0.9v-0.7
		l-0.7-0.7L459.2,183.5z M441.8,187l0.3-0.3l-0.1-0.9h-0.3l-0.3-0.3l-0.5,0.5v0.4l-0.3,0.4v0.7l0.1,0.2l1.1-0.2V187z"/>
</g>

</svg>
