<?xml version="1.0" encoding="utf-8"?>

<svg version="1.2" baseProfile="tiny" xmlns="http://www.w3.org/2000/svg" xmlns:xlink="http://www.w3.org/1999/xlink" x="0px"
	 y="0px" viewBox="298.8 157.4 240.7 280.1" xml:space="preserve">

<g id="Burundi">
	<g>
		<g>
			<g>
				<g transform="rotate(180)">
				</g>
			</g>
		</g>
		<g>
			<g>
				<g transform="rotate(180)">
				</g>
			</g>
		</g>
		<g>
			<g>
				<g transform="rotate(180)">
				</g>
			</g>
		</g>
	</g>
	<g>
		<path fill="#CE1126" d="M384.6,221.1l-2.4-0.8l-0.9,0l-3.9,1.4l-1,0.6l-1,0.4l-1.3,0l-2.9,0.4l-2.4,1.5l-2.5,0.8l-3-1.7l-7.2-1.3
			l-2.3,0.3l-5.6,2.4l-3.2,0.3l-1.2-2.5l-0.1-1.6l-1.2-2.7L342,217l0.5-1.3l1.8-2.2l0.3-1.5l-0.8-1.6l-2.9-2.6l-0.5-1.9l0.1-1.5
			l-0.1-0.6l-1.6-1.2l-2.4-1.3l-2.8-0.7l-5.5-0.7l-2.9-0.9l-7.9-3.4l-2.1-0.3l-7.6,0.5l-3,2.9l-1.1,6.4l56.5,33.9
			C367.1,231.5,375.4,225.5,384.6,221.1z"/>
		<path fill="#CE1126" d="M481.8,238.8l8-4.8l-1.5-1.4l-3.3-4.2l-0.3-2.2l1.5-2.9l2.8-3.8l0-3.3l0.4-2l1-1.7l7.5-7.8l0.9-2.4l-3,1.1
			l-4.7,2.1l-2.8,0.9l-2.5,0l-1.4-1.4l0.5-3.2l1-1.6l3.1-2.9l1.2-1.6l0.6-1.4l1-4.1l5-12l1.7-2.7l4.3-5.4l-4.3-0.1l-4.3-2l-7.1-5.8
			l-0.7-1l-0.7-1.8l-0.6-0.7l-0.4,0.2l-4.1-1l-0.7-0.3l-2.1,0.6l-1.3,1.2l-1.1,1.5l-1.7,1.5l-1.9,1l-2.5,0.8l-2.5,0.5l-2.1,0.1
			l-1.6-0.4l-4.1-2l-1.5-0.2l-0.5,0.9l0,1.2l-0.3,0.9l-5.9,7.3l-2.2,1.5l-3,0.1l-3-1.2l-2.7-1.8l-2.1-1.9l-4.1-4.7l-1.6-1.2
			l-1.5-0.5l-1.3,0l-1.1,0.1l-1-0.1l-3.4-2.9l-1-0.6l-1.3,0l-0.4,0.7v1.2l-0.8,6.6l0.9,10l-2.8,9.8l-0.7,14.7l-0.7,2.9l-1.3,2.8
			l-1.6,2.7L413,213l-0.2,0.2c2.7-0.3,5.4-0.4,8.2-0.4C444.9,212.8,466.5,222.8,481.8,238.8z"/>
		<path fill="#CE1126" d="M360.2,355.2l-11.1,6.6l0.1,0.9l0.6,1.3l1.2,1.2l1.5,0.9l1.2,1l1.1,3.1l2.4,2.5l0.6,1.3l-0.2,1.4l-0.4,1
			l-0.4,1.1l0.2,1.4l0.7,1.2l2.9,4l1.3,2.6l0.7,1.1l1.2,1.2l1.3,2l0.4,2.2l0,2.4l0.5,2.7l1.2,1.7l1.8,1.4l1.6,1.8l0.7,2.7l0.5,2.9
			l1,2.9l4.9,8.2l1.9,2.2l4.6,4.3l1.6,2.6l0.3,2.8l-0.3,4l4.3,1l5.3,0.4l0.6,0.2l1.5-1.2l0.4-1.5l0-1.7l0.5-1.9l0.8-0.8l2.2-1
			l0.7-1.1l0.3-2.1l0.2-0.5l2.1-1.3l1.4,0.2l1.4,0.7l2.2,0.4l1.2-0.4l7-3.2l4.6-4.4l4.5-2.5l1.3-1.1l2.9-1.6l1.7-2.1l3.3-7.9
			l1.3-1.9l8.9-7.4l3.9-4.8l3-5.3l2.4-5.7l1.1-4.6c-10.9,5.1-23.1,8-35.9,8C397.1,381.2,375.5,371.2,360.2,355.2z"/>
		<path fill="#1EB53A" d="M330.3,264.2l-0.5,0.3l-1,2.2l-0.5,2.6l0.4,8.6l0.9,2.5l2.2,1.8l-3.6,3.3l-0.6,1.7l-0.3,3.7l6.1-0.2
			l3.5,0.6c0.5-7.2,1.8-14.2,4-20.8L330.3,264.2z"/>
		<path fill="#1EB53A" d="M505.2,297c0,3.9-0.3,7.7-0.8,11.5l0.2-0.3l6.1-2.8l3.5-3.3l0.1-3.5l-4.8-2.6l2.4-2.9l2.5-2.3l2.9-1.8
			l3.6-1.3l1.6-0.2l1.3-0.7l0.8-1.2l0.4-1.5l3.5,1.7l3.6-0.4l3.1-2.1l2-3.5l-0.1-0.7l-0.6-2.3l0-1l1.8-2.6l1.1-3.1l0.2-1.6l-0.1-1.6
			l-0.6-0.9l-1.7-1.2l-0.5-1l0.1-0.8l0.6-1.7v-0.7l-1.3-1.8l-3.2-3l-0.6-1.9l0.9-2.1l0.8-0.9l-33,19.8
			C503.7,279,505.2,287.8,505.2,297z"/>
		<path fill="#FFFFFF" d="M344.7,332.6l-0.2,14l4.3,12l0.3,3.2l11.1-6.6C353.9,348.6,348.6,341,344.7,332.6z"/>
		<path fill="#FFFFFF" d="M512.3,240.6l-1.7-0.7l-8.5-5l-1-0.2l-1.8,0.7l-1.5,1.3l-2.6,3.5l-0.6,0.3l-0.6-1.7l-1.2-1.1l-0.7-1
			l0.6-1.4l-2.4-0.6l-0.5-0.5l-8,4.8c8.6,9,15.2,19.8,19.1,31.8l33-19.8l3.3-3.8l1.3-2.2l-3,0l-6.1,1.7l-3,0.3l-1.7-0.5l-3-1.9
			l-1.6-0.6l-1.6,0.1l-1.3,0.5l-1.4,0.3l-1.8-0.4l-0.3-0.6l-0.4-2.1l-0.3-0.8L512.3,240.6z"/>
		<path fill="#FFFFFF" d="M360.2,238.8L303.7,205l-1.1,6.6l1.7,3.1l-2.7,0.3l-1.7,1.4l-0.9,2.2l-0.2,2.8l1,2.2l2.3,0.7l2.7,0.3
			l1.9,0.9l0.6,1l1.2,3.5l1.9,2.8l0.5,1.3l0.2,2.1l0.8,2.1l2,1l2.4,0.8l2,1.3l0.8,2.1l0.5,2.7l1.1,2.3l2.5,1l2.4,0.3l2.2,0.8
			l1.8,1.4l1.2,1.9l1,8.3l-0.6,1.5l-1.2,0.7l10.7,6.4C345,258.6,351.6,247.8,360.2,238.8z"/>
		<path fill="#FFFFFF" d="M501,270.7c-4-12-10.6-22.9-19.1-31.8c-15.3-16-36.9-26-60.8-26c-2.8,0-5.5,0.1-8.2,0.4l-2.5,2.5l-2.4,1.4
			l-2.6,0.5l-3.3-0.1l-2.9-0.9l-1.5,0l-1,1.2l-0.4,2.7l-0.5,1.2l-1.3,0.8l-2.9,0.4l-2.5-0.4l-4.4-1.5c-9.2,4.4-17.5,10.5-24.4,17.8
			c-8.6,9-15.2,19.8-19.1,31.8c-2.2,6.6-3.5,13.6-4,20.8l2.2,0.4l4.2,2.8l1.8,5.3l-0.6,32.7c3.9,8.4,9.1,16,15.4,22.5
			c15.3,16,36.9,26,60.8,26c12.8,0,25-2.9,35.9-8l1.2-4.8l1.6-2.7l6.8-7l5-8.6l3.3-2.1l5.8,1.9l0.5-2.3l-0.4-2l-0.7-2l-0.6-2.2
			l0.2-2.5l0.9-2.3l5.4-8.4l1-2.4l0-2.4l-0.3-2.6l0.7-1.6l3.6-2.6l0.3-0.5l0.4-1.5l0.4-0.4l2.2-0.3l0.2,0l0.1,0.3l2.5-0.2l0.1-0.3
			l0.2-1.1l0.2-0.3l3.5-0.8l0.9-0.3l1-0.9l1.5-1.7c0.5-3.8,0.8-7.6,0.8-11.5C505.2,287.8,503.7,279,501,270.7z M403.8,243.5h11.4
			l5.7-9.9l5.7,9.9h11.4l-5.7,9.9l5.7,9.9h-11.4l-5.7,9.9l-5.7-9.9h-11.4l5.7-9.9L403.8,243.5z M366.1,328.3l5.7-9.9l-5.7-9.9h11.4
			l5.7-9.9l5.7,9.9h11.4l-5.7,9.9l5.7,9.9H389l-5.7,9.9l-5.7-9.9H366.1z M459.1,338.7l-5.7-9.9h-11.4l5.7-9.9l-5.7-9.9h11.4l5.7-9.9
			l5.7,9.9h11.4l-5.7,9.9l5.7,9.9h-11.4L459.1,338.7z"/>
		<polygon fill="#1EB53A" points="381.5,305.3 383.2,298.6 377.5,308.5 379.6,308.5 		"/>
		<polygon fill="#1EB53A" points="383.2,302.2 386.9,308.5 389,308.5 383.2,298.6 381.5,305.3 		"/>
		<polygon fill="#1EB53A" points="395.5,323.5 400.4,328.3 394.7,318.4 393.6,320.2 		"/>
		<polygon fill="#1EB53A" points="397.3,326.5 390,326.5 389,328.3 400.4,328.3 395.5,323.5 		"/>
		<polygon fill="#1EB53A" points="376.5,326.5 372.7,326.5 366.1,328.3 377.5,328.3 		"/>
		<polygon fill="#1EB53A" points="372.7,326.5 369.2,326.5 372.8,320.2 371.8,318.4 366.1,328.3 		"/>
		<polygon fill="#1EB53A" points="387.9,326.5 385,331.6 383.2,338.2 389,328.3 390,326.5 		"/>
		<polygon fill="#1EB53A" points="383.2,334.7 378.5,326.5 376.5,326.5 377.5,328.3 383.2,338.2 385,331.6 		"/>
		<polygon fill="#1EB53A" points="373.9,318.4 370.9,313.4 366.1,308.5 371.8,318.4 372.8,320.2 		"/>
		<polygon fill="#1EB53A" points="369.2,310.3 378.5,310.3 379.6,308.5 377.5,308.5 366.1,308.5 370.9,313.4 		"/>
		<polygon fill="#1EB53A" points="387.9,310.3 393.7,310.3 400.4,308.5 389,308.5 386.9,308.5 		"/>
		<polygon fill="#1EB53A" points="397.3,310.3 392.6,318.4 393.6,320.2 394.7,318.4 400.4,308.5 393.7,310.3 		"/>
		<polygon fill="#CE1126" points="381.1,310.3 383.2,302.2 381.5,305.3 379.6,308.5 378.5,310.3 		"/>
		<polygon fill="#CE1126" points="381.1,310.3 381.1,310.3 385.4,310.3 387.9,310.3 386.9,308.5 383.2,302.2 		"/>
		<polygon fill="#CE1126" points="391.4,320.6 391.4,320.6 391.4,320.6 397.3,326.5 395.5,323.5 393.6,320.2 392.6,318.4 		"/>
		<polygon fill="#CE1126" points="391.4,320.6 389.8,323.3 389.2,324.4 389.2,324.4 387.9,326.5 390,326.5 397.3,326.5 		"/>
		<polygon fill="#CE1126" points="377.3,324.4 369.2,326.5 372.7,326.5 376.5,326.5 378.5,326.5 		"/>
		<polygon fill="#CE1126" points="377.3,324.4 375.1,320.6 375.1,320.6 373.9,318.4 372.8,320.2 369.2,326.5 		"/>
		<polygon fill="#CE1126" points="389.2,324.4 386.4,322.8 385.4,326.5 385.4,326.5 385.4,326.5 383.2,334.7 385,331.6 387.9,326.5
					"/>
		<polygon fill="#CE1126" points="391.4,320.6 391.4,320.6 391.4,320.6 389.8,323.3 		"/>
		<polygon fill="#CE1126" points="385.4,326.5 383.2,324.4 381.1,326.5 381.1,322.2 381.1,322.2 377.3,324.4 375.1,320.6
			375.1,320.6 377.3,324.4 378.5,326.5 383.2,334.7 		"/>
		<polygon fill="#CE1126" points="385.4,326.5 386.4,322.8 385.4,322.2 		"/>
		<polygon fill="#CE1126" points="375.1,320.6 377.3,324.4 381.1,322.2 375.1,316.2 375.1,316.2 375.1,316.2 369.2,310.3
			370.9,313.4 373.9,318.4 		"/>
		<polygon fill="#CE1126" points="383.2,324.4 385.4,326.5 385.4,326.5 385.4,326.5 385.4,322.2 385.4,322.2 		"/>
		<polygon fill="#CE1126" points="381.1,319.7 375.1,316.2 381.1,322.2 381.1,322.2 		"/>
		<polygon fill="#CE1126" points="375.1,316.2 381.1,314.7 381.1,310.3 381.1,310.3 378.5,310.3 369.2,310.3 		"/>
		<polygon fill="#CE1126" points="385.4,310.3 381.1,310.3 381.1,314.7 397.3,310.3 393.7,310.3 387.9,310.3 		"/>
		<polygon fill="#CE1126" points="381.1,322.2 381.1,326.5 383.2,324.4 385.4,322.2 381.1,319.7 		"/>
		<polygon fill="#CE1126" points="381.1,314.7 375.1,316.2 375.1,316.2 375.1,316.2 381.1,319.7 385.4,322.2 385.4,322.2
			386.4,322.8 389.2,324.4 389.2,324.4 389.8,323.3 391.4,320.6 392.6,318.4 397.3,310.3 		"/>
		<polygon fill="#1EB53A" points="419.2,240.3 421,233.6 415.3,243.5 417.3,243.5 		"/>
		<polygon fill="#1EB53A" points="421,237.2 424.7,243.5 426.7,243.5 421,233.6 419.2,240.3 		"/>
		<polygon fill="#1EB53A" points="433.3,258.5 438.2,263.3 432.4,253.4 431.4,255.2 		"/>
		<polygon fill="#1EB53A" points="435.1,261.5 427.7,261.5 426.7,263.3 438.2,263.3 433.3,258.5 		"/>
		<polygon fill="#1EB53A" points="410.5,261.5 403.8,263.3 415.3,263.3 414.3,261.5 		"/>
		<polygon fill="#1EB53A" points="410.5,261.5 406.9,261.5 410.6,255.2 409.6,253.4 403.8,263.3 		"/>
		<polygon fill="#1EB53A" points="425.7,261.5 422.8,266.6 421,273.2 426.7,263.3 427.7,261.5 		"/>
		<polygon fill="#1EB53A" points="421,269.7 416.3,261.5 414.3,261.5 415.3,263.3 421,273.2 422.8,266.6 		"/>
		<polygon fill="#1EB53A" points="411.6,253.4 408.7,248.4 403.8,243.5 409.6,253.4 410.6,255.2 		"/>
		<polygon fill="#1EB53A" points="406.9,245.3 416.3,245.3 417.3,243.5 415.3,243.5 403.8,243.5 408.7,248.4 		"/>
		<polygon fill="#1EB53A" points="425.7,245.3 431.5,245.3 438.2,243.5 426.7,243.5 424.7,243.5 		"/>
		<polygon fill="#1EB53A" points="435.1,245.3 430.4,253.4 431.4,255.2 432.4,253.4 438.2,243.5 431.5,245.3 		"/>
		<polygon fill="#CE1126" points="418.8,245.3 418.8,245.3 421,237.2 419.2,240.3 417.3,243.5 416.3,245.3 		"/>
		<polygon fill="#CE1126" points="418.8,245.3 423.2,245.3 425.7,245.3 424.7,243.5 421,237.2 		"/>
		<polygon fill="#CE1126" points="429.1,255.6 429.1,255.6 429.1,255.6 435.1,261.5 433.3,258.5 431.4,255.2 430.4,253.4 		"/>
		<polygon fill="#CE1126" points="429.1,255.6 425.7,261.5 427.7,261.5 435.1,261.5 		"/>
		<polygon fill="#CE1126" points="416.3,261.5 415.1,259.4 406.9,261.5 410.5,261.5 414.3,261.5 		"/>
		<polygon fill="#CE1126" points="415.1,259.4 412.9,255.6 412.9,255.6 411.6,253.4 410.6,255.2 406.9,261.5 		"/>
		<polygon fill="#CE1126" points="429.1,255.6 429.1,255.6 429.1,255.6 426.9,259.4 424.2,257.8 423.2,261.5 423.2,261.5
			423.2,261.5 421,269.7 422.8,266.6 425.7,261.5 		"/>
		<polygon fill="#CE1126" points="423.2,261.5 421,259.4 418.8,261.5 418.8,257.2 415.1,259.4 412.9,255.6 412.9,255.6 415.1,259.4
			416.3,261.5 421,269.7 		"/>
		<polygon fill="#CE1126" points="423.2,261.5 424.2,257.8 423.2,257.2 		"/>
		<polygon fill="#CE1126" points="412.9,255.6 415.1,259.4 418.8,257.2 418.8,257.2 412.9,251.2 406.9,245.3 408.7,248.4
			411.6,253.4 		"/>
		<polygon fill="#CE1126" points="421,259.4 423.2,261.5 423.2,261.5 423.2,261.5 423.2,257.2 423.2,257.2 		"/>
		<polygon fill="#CE1126" points="412.9,251.2 418.8,249.6 418.8,245.3 416.3,245.3 406.9,245.3 		"/>
		<polygon fill="#CE1126" points="418.8,254.7 412.9,251.2 418.8,257.2 		"/>
		<polygon fill="#CE1126" points="423.2,245.3 418.8,245.3 418.8,245.3 418.8,249.6 435.1,245.3 431.5,245.3 425.7,245.3 		"/>
		<polygon fill="#CE1126" points="418.8,261.5 421,259.4 423.2,257.2 418.8,254.7 418.8,257.2 418.8,257.2 		"/>
		<polygon fill="#CE1126" points="418.8,249.6 412.9,251.2 418.8,254.7 423.2,257.2 423.2,257.2 424.2,257.8 426.9,259.4
			429.1,255.6 430.4,253.4 435.1,245.3 		"/>
		<polygon fill="#1EB53A" points="457.3,305.7 459.1,299 453.4,308.9 455.4,308.9 		"/>
		<polygon fill="#1EB53A" points="459.1,302.6 462.8,308.9 464.8,308.9 459.1,299 457.3,305.7 		"/>
		<polygon fill="#1EB53A" points="471.4,323.9 476.3,328.7 470.5,318.8 469.5,320.6 		"/>
		<polygon fill="#1EB53A" points="476.3,328.7 471.4,323.9 473.2,327 465.8,327 464.8,328.7 		"/>
		<polygon fill="#1EB53A" points="448.6,327 441.9,328.7 453.4,328.7 452.3,327 		"/>
		<polygon fill="#1EB53A" points="445,327 448.7,320.6 447.7,318.8 441.9,328.7 448.6,327 		"/>
		<polygon fill="#1EB53A" points="463.8,327 460.9,332 459.1,338.7 464.8,328.7 465.8,327 		"/>
		<polygon fill="#1EB53A" points="459.1,335.1 454.4,327 452.3,327 453.4,328.7 459.1,338.7 460.9,332 		"/>
		<polygon fill="#1EB53A" points="449.7,318.8 446.8,313.8 441.9,308.9 447.7,318.8 448.7,320.6 		"/>
		<polygon fill="#1EB53A" points="446.8,313.8 445,310.7 454.4,310.7 455.4,308.9 453.4,308.9 441.9,308.9 		"/>
		<polygon fill="#1EB53A" points="463.8,310.7 469.6,310.7 476.3,308.9 464.8,308.9 462.8,308.9 		"/>
		<polygon fill="#1EB53A" points="473.2,310.7 468.5,318.8 469.5,320.6 470.5,318.8 476.3,308.9 469.6,310.7 		"/>
		<polygon fill="#CE1126" points="456.9,310.7 456.9,310.7 459.1,302.6 457.3,305.7 455.4,308.9 454.4,310.7 		"/>
		<polygon fill="#CE1126" points="456.9,310.7 461.3,310.7 463.8,310.7 462.8,308.9 459.1,302.6 		"/>
		<polygon fill="#CE1126" points="468.5,318.8 467.2,321 467.2,321 467.2,321 473.2,327 471.4,323.9 469.5,320.6 		"/>
		<polygon fill="#CE1126" points="467.2,321 465.1,324.6 465,324.8 465,324.8 463.8,327 465.8,327 473.2,327 		"/>
		<polygon fill="#CE1126" points="453.2,324.8 445,327 448.6,327 452.3,327 454.4,327 		"/>
		<polygon fill="#CE1126" points="453.2,324.8 451,321 451,321 449.7,318.8 448.7,320.6 445,327 		"/>
		<polygon fill="#CE1126" points="465.1,324.6 467.2,321 467.2,321 467.2,321 		"/>
		<polygon fill="#CE1126" points="465,324.8 462.3,323.2 461.3,327 461.3,327 461.3,327 459.1,335.1 460.9,332 463.8,327 		"/>
		<polygon fill="#CE1126" points="461.3,327 459.1,324.8 456.9,327 456.9,322.6 453.2,324.8 451,321 451,321 453.2,324.8 454.4,327
			459.1,335.1 		"/>
		<polygon fill="#CE1126" points="461.3,322.6 461.3,327 462.3,323.2 		"/>
		<polygon fill="#CE1126" points="451,321 453.2,324.8 456.9,322.6 456.9,322.6 451,316.7 445,310.7 446.8,313.8 449.7,318.8 		"/>
		<polygon fill="#CE1126" points="461.3,322.6 461.3,322.6 459.1,324.8 461.3,327 461.3,327 461.3,327 		"/>
		<polygon fill="#CE1126" points="451,316.7 456.9,315.1 456.9,310.7 454.4,310.7 445,310.7 		"/>
		<polygon fill="#CE1126" points="456.9,320.1 451,316.7 456.9,322.6 		"/>
		<polygon fill="#CE1126" points="461.3,310.7 456.9,310.7 456.9,310.7 456.9,315.1 473.2,310.7 469.6,310.7 463.8,310.7 		"/>
		<polygon fill="#CE1126" points="461.3,322.6 456.9,320.1 456.9,322.6 456.9,322.6 456.9,327 459.1,324.8 		"/>
		<polygon fill="#CE1126" points="456.9,315.1 451,316.7 456.9,320.1 461.3,322.6 461.3,322.6 462.3,323.2 465,324.8 465,324.8
			465.1,324.6 467.2,321 468.5,318.8 473.2,310.7 		"/>
	</g>
	<polygon fill="none" stroke="#999999" stroke-width="0.25" stroke-linecap="round" stroke-linejoin="round" points="538.8,265.9
		537.2,264.7 536.7,263.7 536.9,263 537.4,261.2 537.4,260.5 536.2,258.8 533,255.7 532.3,253.8 533.2,251.8 537.2,247.1
		538.5,244.9 535.4,244.9 529.3,246.6 526.3,246.8 524.6,246.3 521.6,244.4 520,243.8 518.3,243.9 517,244.4 515.7,244.8
		513.9,244.4 513.6,243.8 513.2,241.7 512.9,240.9 512.3,240.6 510.6,239.8 502.1,234.8 501.1,234.6 499.3,235.3 497.8,236.6
		495.2,240.1 494.5,240.4 494,238.8 492.8,237.6 492.1,236.6 492.7,235.2 490.3,234.5 488.3,232.7 485.1,228.5 484.8,226.3
		486.3,223.4 489.1,219.6 489.2,216.3 489.6,214.3 490.6,212.6 498.1,204.7 499,202.3 496,203.4 491.3,205.5 488.6,206.4 486,206.3
		484.6,205 485.1,201.8 486.2,200.2 489.3,197.2 490.5,195.6 491.1,194.2 492.1,190.1 497.1,178.2 498.9,175.4 503.1,170
		498.9,169.9 494.5,167.9 487.4,162.1 486.7,161.1 486,159.3 485.4,158.6 485,158.7 480.9,157.7 480.2,157.4 478.1,158 476.9,159.2
		475.7,160.7 474,162.2 472.2,163.2 469.7,164 467.2,164.5 465.1,164.6 463.5,164.2 459.5,162.3 457.9,162.1 457.5,163 457.4,164.2
		457.1,165.1 451.3,172.5 449.1,174 446.1,174.1 443.1,172.9 440.4,171.1 438.3,169.3 434.2,164.5 432.6,163.3 431.1,162.8
		429.9,162.8 428.8,162.9 427.8,162.7 424.4,159.8 423.3,159.2 422,159.2 421.6,160 421.6,161.2 420.8,167.8 421.7,177.7
		418.9,187.5 418.3,202.3 417.6,205.1 416.3,208 414.8,210.6 413,213 410.3,215.7 407.9,217.1 405.3,217.6 402,217.5 399.1,216.6
		397.6,216.7 396.6,217.9 396.2,220.6 395.7,221.8 394.4,222.5 391.5,222.9 389,222.5 382.2,220.3 381.3,220.2 377.4,221.6
		376.4,222.2 375.4,222.6 374.1,222.6 371.2,222.9 368.8,224.5 366.3,225.3 363.3,223.6 356,222.3 353.7,222.5 348.1,224.9
		344.9,225.3 343.7,222.8 343.6,221.2 342.3,218.5 342,217 342.5,215.6 344.3,213.4 344.6,212 343.8,210.3 340.9,207.7 340.5,205.8
		340.6,204.3 340.5,203.7 338.9,202.5 336.6,201.2 333.8,200.5 328.3,199.8 325.4,198.9 317.5,195.5 315.4,195.2 307.8,195.7
		304.8,198.6 302.5,211.5 304.3,214.7 301.6,215 299.9,216.4 299.1,218.6 298.8,221.4 299.9,223.6 302.2,224.3 305,224.5
		306.9,225.4 307.5,226.4 308.7,229.9 310.7,232.7 311.2,234 311.4,236.1 312.2,238.1 314.2,239.2 316.6,240 318.6,241.3
		319.4,243.4 319.9,246 321,248.4 323.4,249.4 325.9,249.6 328.1,250.5 329.9,251.9 331.1,253.8 332.1,262.1 331.5,263.6
		329.8,264.5 328.9,266.7 328.4,269.3 328.8,278 329.7,280.5 331.9,282.3 328.3,285.6 327.7,287.3 327.4,291 333.6,290.9
		339.2,291.8 343.4,294.6 345.3,300 344.5,346.6 348.8,358.6 349.2,362.7 349.7,364.1 350.9,365.3 352.5,366.1 353.7,367.2
		354.8,370.3 357.2,372.8 357.7,374.1 357.5,375.5 357,376.6 356.7,377.6 356.9,379 357.6,380.2 360.4,384.2 361.7,386.8
		362.4,387.9 363.6,389.2 364.9,391.2 365.3,393.3 365.3,395.7 365.8,398.5 367.1,400.2 368.9,401.6 370.5,403.4 371.2,406.1
		371.6,408.9 372.7,411.9 377.6,420.1 379.5,422.3 384.1,426.6 385.8,429.1 386.1,431.9 385.8,435.9 390.1,436.9 395.4,437.3
		396,437.5 397.5,436.4 397.9,434.9 397.9,433.2 398.4,431.4 399.3,430.6 401.5,429.6 402.2,428.5 402.5,426.4 402.7,425.9
		404.8,424.6 406.2,424.8 407.6,425.5 409.8,425.9 410.9,425.5 417.9,422.3 422.5,417.9 427,415.4 428.3,414.3 431.2,412.7
		432.9,410.6 436.2,402.7 437.5,400.8 446.4,393.4 450.4,388.7 453.4,383.4 455.8,377.7 458,368.4 459.6,365.7 466.5,358.7
		471.5,350.1 474.8,348 480.5,349.9 481,347.7 480.6,345.6 479.9,343.6 479.3,341.4 479.5,338.9 480.4,336.6 485.8,328.2
		486.7,325.8 486.8,323.4 486.5,320.8 487.2,319.3 490.8,316.7 491.2,316.2 491.6,314.6 492,314.2 494.1,313.9 494.4,313.9
		494.5,314.2 496.9,314 497.1,313.7 497.3,312.6 497.5,312.2 501,311.4 501.9,311.1 502.9,310.2 504.6,308.2 510.7,305.4
		514.2,302.1 514.3,298.6 509.5,296 511.9,293.1 514.3,290.9 517.2,289.1 520.8,287.7 522.4,287.5 523.6,286.8 524.5,285.7
		524.9,284.1 528.3,285.8 532,285.4 535.1,283.3 537.1,279.8 537,279.1 536.4,276.8 536.3,275.8 538.2,273.2 539.3,270.1
		539.5,268.5 539.4,266.8 	"/>
</g>

</svg>
