<?xml version="1.0" encoding="utf-8"?>

<svg version="1.2" baseProfile="tiny" xmlns="http://www.w3.org/2000/svg" xmlns:xlink="http://www.w3.org/1999/xlink" x="0px"
	 y="0px" viewBox="358.7 172.2 123.5 250" xml:space="preserve">

<g id="Benin">
	<g>
		<polygon fill="#FCD116" points="482,242 481.6,241.2 481.1,240.9 480.5,240.8 480,240.6 479.6,240.2 479.2,238.8 479,238.4
			478.7,238.1 478.4,237.8 478.1,237.4 477.9,236.9 477.9,236.2 478.8,234.1 478.8,232.9 478,229.3 477.6,228.6 477.3,227.8
			477.1,227 477.1,226.2 477.5,224.6 477.2,224.2 476.8,224.2 476.4,224.3 476.1,224.2 475.2,223.3 468,213.2 467.4,212.1
			467.3,211.1 468.1,209 468.3,208.3 468.8,206.5 471.6,201.8 472.5,200.8 472.2,200.6 471.8,200 471.5,199.8 471.4,199.5
			471.3,199.1 471.1,198.8 470.9,198.1 470.8,197.8 470.6,197.7 470.4,197.5 470.1,197.3 468.8,195.4 468.4,195.1 468,194.8
			466.5,194.2 464.7,193.1 464.3,193 463.8,192.7 463.4,192.6 462.8,193 462.3,193.2 461.7,193.1 461.2,192.8 460.9,192.4
			460.3,191.8 459.4,190.2 459.1,189.5 458.9,188.6 458.8,187.7 458.7,187.5 458.1,187.1 458,186.8 451.1,180.6 449.5,178.2
			449.1,177.4 448.9,177.2 448.6,177.1 447.3,176.9 446.8,176.8 446.4,176.5 446,176.2 445.8,175.3 445.5,174.8 445,174.3
			444.2,173.9 442.3,172.2 441.8,172.8 440.9,172.8 440.5,172.9 439.7,172.9 439.3,172.9 438.8,173.2 438.2,174 437.8,174.3
			437.4,174.4 437,174.1 436.5,174.3 436.3,174.5 436.2,174.8 436.1,175.1 436,175.5 435.4,176.3 435.1,176.6 433.7,176.2
			433.4,176.2 432.9,176.6 432.7,176.7 432.5,176.7 432.1,176.5 432,176.5 430.5,176.8 430.3,177 430,177.3 429.8,177.5
			429.5,177.5 429.3,177.3 429.3,177.1 429.2,177 428.7,177 428.3,176.9 428,177 427.8,177.5 427.6,177.9 427.4,177.9 427.2,177.6
			426.9,177.6 426.7,177.7 426.3,178.2 426.2,178.3 425.7,178.3 424.8,178.3 424.3,178.4 423.3,178.8 422.9,179.5 423,180.5
			423.4,182.7 424.7,186.5 424.9,187 425.2,187.3 425.6,187.6 426.1,187.8 426.5,187.9 426.7,188.1 426.8,188.6 426.8,189.3
			426.5,189.4 426.1,189.2 425.6,189.3 425.4,189.5 425.1,190.1 424.8,190.4 424.4,190.5 424.1,190.5 423.7,190.6 423.5,191.1
			423.5,191.5 424,192.3 424.1,192.7 423.7,192.8 422.6,196.6 422.1,197.7 420.5,199.4 420.1,200.5 420.1,201.3 420.1,201.7
			420,202.1 419.4,202.6 419.4,297 454.6,297 454.6,295.8 454.5,295.1 454,293.9 453.7,292.7 453.9,291.6 454.7,290.4 454.9,290.2
			455.6,289.9 455.9,289.7 458.3,286.5 458.4,286.3 458.2,285.8 458.1,285.5 458.4,284.5 459.1,284.3 459.9,284.4 460.6,284.5
			461.9,283.8 462.2,282.7 461.8,281.5 461.3,280.2 461.2,279.4 461.3,278.5 461.6,277.7 462.3,277.2 465.2,276 466.7,275.6
			469.1,275.9 469.9,275.2 470.9,273.3 472.2,271.8 472.6,270.9 472.9,267.5 473.1,266.8 473.8,266.2 474.3,266 474.8,265.6
			475.2,264.7 475.4,263.7 475.2,263.1 474.9,262.6 472.1,259.8 471.6,258.9 471.5,258.1 472.4,256.3 473.4,254.7 473.5,254.2
			473.6,253.4 473.7,253.2 473.9,252.8 474.7,252 475.5,251.8 476.4,251.9 478.9,253.3 479.6,253.2 480.2,252.4 480.4,251.7
			480.5,249.6 480.8,248.5 481.9,246.5 482.2,245.4 482.2,243.1 		"/>
		<polygon fill="#E8112D" points="419.4,417.7 420.8,417.5 436.7,416 436.7,413.5 437.1,410.9 438,408.4 438.1,407.5 437.8,405.8
			437.8,405 438.2,404.1 439,403.5 439.5,403.2 439.7,402.7 439.5,400.8 439.5,400.4 439.2,400.3 438.7,400.2 438.3,400.1
			438,399.9 437.7,399.4 437.5,398.7 437.6,397.8 438,396.1 437.8,394.4 437.3,392.9 437.1,391.4 438.2,390 438.6,389.8
			439.2,389.6 439.6,389.4 439.7,388.9 439.5,388.6 438.4,387.7 438.1,387.3 437.9,386.8 438,386.5 438.2,386.2 438.5,385.4
			438.8,385 439,384.7 439,384.1 438.2,374.2 438.3,373.8 438.6,373.6 439,373.6 439.9,373.8 440,373.7 440,373.4 440.1,373.1
			440.2,371.4 439.3,369.9 438.2,368.5 437.3,367 437.1,365.5 437.6,358.7 437.5,358.1 437.1,357.6 436.2,356.5 435.7,355.3
			435.4,354.9 435.4,354.5 435.5,354.2 435.9,353.4 436,353.1 436.2,350.5 436.7,348 436.8,345.6 436.9,344.8 437.2,344.2
			437.6,343.5 437.9,342.7 437.9,341.9 437.7,341 436.9,339.3 436.6,338.4 436.4,337.5 436.5,336.7 436.8,335 436.8,334.7
			436.7,333.9 436.7,333.6 436.9,333.1 437.7,332.2 438,331.7 438.3,330.3 437.4,319.3 437.5,318.9 437.7,318.6 438.4,318.2
			438.6,318 438.6,317.7 438.4,317.1 438.4,316.7 438.5,316.1 439,314.9 439,314.3 438.9,314 438.7,314 438.5,313.9 438.4,313.5
			438.5,313.5 439,312.8 439.1,312.5 439.3,311.4 439.4,308.9 439.3,307.8 442.4,308 442.9,308 443.3,307.7 443.7,307.3
			444.1,307.1 444.5,307 445.7,306.9 446.2,307 446.6,307.2 447,307.5 447.4,307.6 447.9,307.6 450.6,306.9 451.6,306.3 452.2,305
			453.6,300.9 454.4,299.3 454.6,298.4 454.6,297 419.4,297 		"/>
		<polygon fill="#008751" points="419.4,202.6 419.4,202.6 417.3,203.8 414.3,206.2 408.9,211.8 407.8,212.3 406.4,212.2
			404.7,211.5 403.6,211.1 403.1,211 402.7,211.2 402,211 401.3,211.2 399.7,211.8 398.9,211.9 397.2,211.7 396.5,211.9
			395.8,212.3 393.9,212.7 393.2,213.1 392.5,213.3 391.6,211.8 390.9,211.8 391,211.5 391.1,211 391.2,210.7 387.4,210.4
			386.6,210.2 386,209.9 385.7,210.5 385.3,210.7 384.8,210.9 384.3,211.2 384,211.7 383.9,212.1 384.3,212.9 383.6,213.3
			382.7,213.7 381.9,214.3 381.6,215 381.8,215.7 382.2,216.3 382.3,216.8 381.6,217.4 381.3,217.1 381,216.9 380.7,217.1
			380.5,217.4 380.2,217 379.7,216.4 379.3,216.2 379.1,216.7 379.2,217 379.6,217.4 379.6,217.8 379.6,218.1 379.1,219.1
			377.8,218.4 377.1,218.2 376.3,218.2 376,218.3 375.8,218.4 375.6,218.5 375.2,218.5 375.3,218.3 375,217.8 374.6,217.5
			374.2,218.2 373.8,218.6 373.6,219.1 374.3,220.3 374.5,221.7 374.7,222.4 374.3,222.2 373.5,221.9 373,221.9 372.8,222.1
			372.6,222.8 372.3,223 371,223.3 370.8,223.4 370.9,224 371,223.9 371.3,223.7 371.6,223.8 371.7,223.9 371.6,224.5 371.6,224.6
			371.7,224.7 372.1,224.9 372.2,224.9 372.3,225.4 372.3,225.8 372.4,226.3 372.6,226.7 373.1,227.2 373,227.8 372.9,228
			372.6,227.7 372.3,227.3 372.2,227.1 371.8,227 370.6,226.9 370.4,226.9 370,227.1 369.7,227.1 369.6,227 369.4,226.6
			369.3,226.6 369.1,226.5 368.9,226.3 368.6,226.1 367.8,225.9 367.6,225.9 367.4,226 367.1,226.3 366.9,226.8 366.5,227.3
			366.4,227.4 366.4,227.8 366.4,228.3 366.5,228.6 366.8,228.8 367.1,229 367.1,229.5 367,230 366.8,230.2 366.1,230.2
			365.6,230.1 364.4,229.4 363.3,231.9 363.2,232.7 363.3,233.2 363.6,234 363.7,234.4 363.1,235.6 363,236.1 362.9,237
			362.8,237.4 362.3,238.2 360.1,240.2 359.5,241.6 359.9,245.2 359.8,246.8 359.2,249.1 358.7,253.3 358.7,254.2 359,254.8
			362.1,256.8 365.9,259.4 371.6,263.2 377.4,267 381.6,269.8 382.1,271.2 382.2,274.5 382.2,278.9 382.3,282.1 382.6,283.9
			382.5,284.4 382.4,284.8 382.5,285.7 382.4,286.1 382.2,286.6 381.4,287.7 381.3,288.2 381.4,289 381.8,290 382.4,290.6
			383.1,290.3 383.6,291.4 383.8,295.5 384.4,297.1 385.4,298.6 388.6,302 391.1,304.6 391.9,306 392.2,307 392.4,308.1
			392.5,313.1 392.6,317.6 392.6,321.3 392.7,327.9 392.8,328.4 393,328.8 394,330.1 394.2,330.5 394,331.2 392.7,333.4
			392.6,333.8 392.6,334.5 392.4,335.4 392.6,335.6 392.8,335.7 393,336.1 393.4,339.5 393.3,344.1 393.2,350.5 393.3,356.9
			393.3,364.9 393.3,373 393.4,379 393.4,384.8 393.4,390.7 392.7,391 389.7,390.9 390.4,393.8 390.9,394.5 391.5,394.9
			391.9,395.4 392,395.9 391.7,397.6 391.7,398.3 391.9,399 392.2,399.8 392.4,400.8 392.3,401.4 391.4,402.6 391,403.5 391.3,404
			391.8,404.4 392.2,405.2 392.3,405.5 392.2,405.8 392.2,406.2 392.3,406.6 392.5,407 392.8,407.3 393.2,407.5 393.5,407.7
			393.9,407.8 394.3,407.7 394.6,407.8 394.6,408.3 394.7,408.6 395.4,409.1 395.6,409.5 395.7,409.9 395.6,410.7 395.7,411.1
			395.9,411.3 396.8,411.7 397.1,412 398.2,413.7 399,416.7 399.7,419.6 398.9,419.7 393.7,420.9 392.9,421.3 393.2,422.2
			403.8,419.7 417.6,418.2 419.4,417.7 419.4,297 		"/>
	</g>

		<polygon fill="none" stroke="#999999" stroke-width="0.25" stroke-linecap="round" stroke-linejoin="round" stroke-miterlimit="10" points="
		482.2,243.1 482,242 481.6,241.2 481.1,240.9 480.5,240.8 480,240.6 479.6,240.2 479.2,238.8 479,238.4 478.7,238.1 478.4,237.8
		478.1,237.4 477.9,236.9 477.9,236.2 478.8,234.1 478.8,232.9 478,229.3 477.6,228.6 477.3,227.8 477.1,227 477.1,226.2
		477.5,224.6 477.2,224.2 476.8,224.2 476.4,224.3 476.1,224.2 475.2,223.3 468,213.2 467.4,212.1 467.3,211.1 468.1,209
		468.3,208.3 468.8,206.5 471.6,201.8 472.5,200.8 472.2,200.6 471.8,200 471.5,199.8 471.4,199.5 471.3,199.1 471.1,198.8
		470.9,198.1 470.8,197.8 470.6,197.7 470.4,197.5 470.1,197.3 468.8,195.4 468.4,195.1 468,194.8 466.5,194.2 464.7,193.1
		464.3,193 463.8,192.7 463.4,192.6 462.8,193 462.3,193.2 461.7,193.1 461.2,192.8 460.9,192.4 460.3,191.8 459.4,190.2
		459.1,189.5 458.9,188.6 458.8,187.7 458.7,187.5 458.1,187.1 458,186.8 451.1,180.6 449.5,178.2 449.1,177.4 448.9,177.2
		448.6,177.1 447.3,176.9 446.8,176.8 446.4,176.5 446,176.2 445.8,175.3 445.5,174.8 445,174.3 444.2,173.9 442.3,172.2
		441.8,172.8 440.9,172.8 440.5,172.9 439.7,172.9 439.3,172.9 438.8,173.2 438.2,174 437.8,174.3 437.4,174.4 437,174.1
		436.5,174.3 436.3,174.5 436.2,174.8 436.1,175.1 436,175.5 435.4,176.3 435.1,176.6 433.7,176.2 433.4,176.2 432.9,176.6
		432.7,176.7 432.5,176.7 432.1,176.5 432,176.5 430.5,176.8 430.3,177 430,177.3 429.8,177.5 429.5,177.5 429.3,177.3 429.3,177.1
		429.2,177 428.7,177 428.3,176.9 428,177 427.8,177.5 427.6,177.9 427.4,177.9 427.2,177.6 426.9,177.6 426.7,177.7 426.3,178.2
		426.2,178.3 425.7,178.3 424.8,178.3 424.3,178.4 423.3,178.8 422.9,179.5 423,180.5 423.4,182.7 424.7,186.5 424.9,187
		425.2,187.3 425.6,187.6 426.1,187.8 426.5,187.9 426.7,188.1 426.8,188.6 426.8,189.3 426.5,189.4 426.1,189.2 425.6,189.3
		425.4,189.5 425.1,190.1 424.8,190.4 424.4,190.5 424.1,190.5 423.7,190.6 423.5,191.1 423.5,191.5 424,192.3 424.1,192.7
		423.7,192.8 422.6,196.6 422.1,197.7 420.5,199.4 420.1,200.5 420.1,201.3 420.1,201.7 420,202.1 419.4,202.6 417.3,203.8
		414.3,206.2 408.9,211.8 407.8,212.3 406.4,212.2 404.7,211.5 403.6,211.1 403.1,211 402.7,211.2 402,211 401.3,211.2 399.7,211.8
		398.9,211.9 397.2,211.7 396.5,211.9 395.8,212.3 393.9,212.7 393.2,213.1 392.5,213.3 391.6,211.8 390.9,211.8 391,211.5
		391.1,211 391.2,210.7 387.4,210.4 386.6,210.2 386,209.9 385.7,210.5 385.3,210.7 384.8,210.9 384.3,211.2 384,211.7 383.9,212.1
		384.3,212.9 383.6,213.3 382.7,213.7 381.9,214.3 381.6,215 381.8,215.7 382.2,216.3 382.3,216.8 381.6,217.4 381.3,217.1
		381,216.9 380.7,217.1 380.5,217.4 380.2,217 379.7,216.4 379.3,216.2 379.1,216.7 379.2,217 379.6,217.4 379.6,217.8 379.6,218.1
		379.1,219.1 377.8,218.4 377.1,218.2 376.3,218.2 376,218.3 375.8,218.4 375.6,218.5 375.2,218.5 375.3,218.3 375,217.8
		374.6,217.5 374.2,218.2 373.8,218.6 373.6,219.1 374.3,220.3 374.5,221.7 374.7,222.4 374.3,222.2 373.5,221.9 373,221.9
		372.8,222.1 372.6,222.8 372.3,223 371,223.3 370.8,223.4 370.9,224 371,223.9 371.3,223.7 371.6,223.8 371.7,223.9 371.6,224.5
		371.6,224.6 371.7,224.7 372.1,224.9 372.2,224.9 372.3,225.4 372.3,225.8 372.4,226.3 372.6,226.7 373.1,227.2 373,227.8
		372.9,228 372.6,227.7 372.3,227.3 372.2,227.1 371.8,227 370.6,226.9 370.4,226.9 370,227.1 369.7,227.1 369.6,227 369.4,226.6
		369.3,226.6 369.1,226.5 368.9,226.3 368.6,226.1 367.8,225.9 367.6,225.9 367.4,226 367.1,226.3 366.9,226.8 366.5,227.3
		366.4,227.4 366.4,227.8 366.4,228.3 366.5,228.6 366.8,228.8 367.1,229 367.1,229.5 367,230 366.8,230.2 366.1,230.2 365.6,230.1
		364.4,229.4 363.3,231.9 363.2,232.7 363.3,233.2 363.6,234 363.7,234.4 363.1,235.6 363,236.1 362.9,237 362.8,237.4 362.3,238.2
		360.1,240.2 359.5,241.6 359.9,245.2 359.8,246.8 359.2,249.1 358.7,253.3 358.7,254.2 359,254.8 362.1,256.8 365.9,259.4
		371.6,263.2 377.4,267 381.6,269.8 382.1,271.2 382.2,274.5 382.2,278.9 382.3,282.1 382.6,283.9 382.5,284.4 382.4,284.8
		382.5,285.7 382.4,286.1 382.2,286.6 381.4,287.7 381.3,288.2 381.4,289 381.8,290 382.4,290.6 383.1,290.3 383.6,291.4
		383.8,295.5 384.4,297.1 385.4,298.6 388.6,302 391.1,304.6 391.9,306 392.2,307 392.4,308.1 392.5,313.1 392.6,317.6 392.6,321.3
		392.7,327.9 392.8,328.4 393,328.8 394,330.1 394.2,330.5 394,331.2 392.7,333.4 392.6,333.8 392.6,334.5 392.4,335.4 392.6,335.6
		392.8,335.7 393,336.1 393.4,339.5 393.3,344.1 393.2,350.5 393.3,356.9 393.3,364.9 393.3,373 393.4,379 393.4,384.8 393.4,390.7
		392.7,391 389.7,390.9 390.4,393.8 390.9,394.5 391.5,394.9 391.9,395.4 392,395.9 391.7,397.6 391.7,398.3 391.9,399 392.2,399.8
		392.4,400.8 392.3,401.4 391.4,402.6 391,403.5 391.3,404 391.8,404.4 392.2,405.2 392.3,405.5 392.2,405.8 392.2,406.2
		392.3,406.6 392.5,407 392.8,407.3 393.2,407.5 393.5,407.7 393.9,407.8 394.3,407.7 394.6,407.8 394.6,408.3 394.7,408.6
		395.4,409.1 395.6,409.5 395.7,409.9 395.6,410.7 395.7,411.1 395.9,411.3 396.8,411.7 397.1,412 398.2,413.7 399,416.7
		399.7,419.6 398.9,419.7 393.7,420.9 392.9,421.3 393.2,422.2 403.8,419.7 417.6,418.2 420.8,417.5 436.7,416 436.7,413.5
		437.1,410.9 438,408.4 438.1,407.5 437.8,405.8 437.8,405 438.2,404.1 439,403.5 439.5,403.2 439.7,402.7 439.5,400.8 439.5,400.4
		439.2,400.3 438.7,400.2 438.3,400.1 438,399.9 437.7,399.4 437.5,398.7 437.6,397.8 438,396.1 437.8,394.4 437.3,392.9
		437.1,391.4 438.2,390 438.6,389.8 439.2,389.6 439.6,389.4 439.7,388.9 439.5,388.6 438.4,387.7 438.1,387.3 437.9,386.8
		438,386.5 438.2,386.2 438.5,385.4 438.8,385 439,384.7 439,384.1 438.2,374.2 438.3,373.8 438.6,373.6 439,373.6 439.9,373.8
		440,373.7 440,373.4 440.1,373.1 440.2,371.4 439.3,369.9 438.2,368.5 437.3,367 437.1,365.5 437.6,358.7 437.5,358.1 437.1,357.6
		436.2,356.5 435.7,355.3 435.4,354.9 435.4,354.5 435.5,354.2 435.9,353.4 436,353.1 436.2,350.5 436.7,348 436.8,345.6
		436.9,344.8 437.2,344.2 437.6,343.5 437.9,342.7 437.9,341.9 437.7,341 436.9,339.3 436.6,338.4 436.4,337.5 436.5,336.7
		436.8,335 436.8,334.7 436.7,333.9 436.7,333.6 436.9,333.1 437.7,332.2 438,331.7 438.3,330.3 437.4,319.3 437.5,318.9
		437.7,318.6 438.4,318.2 438.6,318 438.6,317.7 438.4,317.1 438.4,316.7 438.5,316.1 439,314.9 439,314.3 438.9,314 438.7,314
		438.5,313.9 438.4,313.5 438.5,313.5 439,312.8 439.1,312.5 439.3,311.4 439.4,308.9 439.3,307.8 442.4,308 442.9,308 443.3,307.7
		443.7,307.3 444.1,307.1 444.5,307 445.7,306.9 446.2,307 446.6,307.2 447,307.5 447.4,307.6 447.9,307.6 450.6,306.9 451.6,306.3
		452.2,305 453.6,300.9 454.4,299.3 454.6,298.4 454.6,295.8 454.5,295.1 454,293.9 453.7,292.7 453.9,291.6 454.7,290.4
		454.9,290.2 455.6,289.9 455.9,289.7 458.3,286.5 458.4,286.3 458.2,285.8 458.1,285.5 458.4,284.5 459.1,284.3 459.9,284.4
		460.6,284.5 461.9,283.8 462.2,282.7 461.8,281.5 461.3,280.2 461.2,279.4 461.3,278.5 461.6,277.7 462.3,277.2 465.2,276
		466.7,275.6 469.1,275.9 469.9,275.2 470.9,273.3 472.2,271.8 472.6,270.9 472.9,267.5 473.1,266.8 473.8,266.2 474.3,266
		474.8,265.6 475.2,264.7 475.4,263.7 475.2,263.1 474.9,262.6 472.1,259.8 471.6,258.9 471.5,258.1 472.4,256.3 473.4,254.7
		473.5,254.2 473.6,253.4 473.7,253.2 473.9,252.8 474.7,252 475.5,251.8 476.4,251.9 478.9,253.3 479.6,253.2 480.2,252.4
		480.4,251.7 480.5,249.6 480.8,248.5 481.9,246.5 482.2,245.4 	"/>
</g>

</svg>
