<?xml version="1.0" encoding="utf-8"?>

<svg version="1.2" baseProfile="tiny" xmlns="http://www.w3.org/2000/svg" xmlns:xlink="http://www.w3.org/1999/xlink" x="0px"
	 y="0px" viewBox="0 0 325 248.3" xml:space="preserve">

<g id="Brunei">
	<g>
		<polygon fill="#F7E017" points="282.4,46.8 279.3,44.7 276.2,43.2 273.9,41 273.8,35.5 273.7,35.5 271,35.4 268.8,35.7
			267.3,36.6 266.7,38.5 268.1,42.5 270.2,46.2 270,49 264.8,50 259.5,52.9 254.8,58.2 250.4,60.9 246,56.5 246,56.5 244.4,75.4
			244.8,84.4 302.6,96.5 288.4,55.3 		"/>
		<path fill="#F7E017" d="M169.6,184.8c1.8-0.3,3.5-0.6,5.3-1.1l-5.6-1.2c-0.8,0.1-1.7,0.2-2.6,0.3c-2.3,0.2-8.3,0.3-9.1,0.1
			c-0.2,0-1.3-0.2-2.4-0.3c-5.9-0.8-12.9-3.2-18-6.3c-0.4-0.2-0.8-0.5-1.2-0.8l-4.1-0.9c7.7,6,16.1,9.4,25.6,10.5
			C160.3,185.4,166.2,185.3,169.6,184.8z"/>
		<path fill="#F7E017" d="M161.4,66.4c0,0.2,0,0.4,0,0.6l0.6,0.1V51.8L146.6,64l12.1,2.5C159.7,66.4,160.5,66.4,161.4,66.4z"/>
		<path fill="#F7E017" d="M165.6,50.2c0,0.4-0.5,0.8-1.3,1l0,0.1l9.4,4.8l-6,1.9L172,64l-7.8-3.8l0,7.4l0.6,0.1c0-0.5,0-0.9,0-1.3
			c1.5,0,3.1,0.1,4.6,0.3c1.1,0.2,2.1,0.6,2.9,1.2c-0.4,0.4-0.9,0.8-1.5,1.1l0.8,0.2c0.3-0.2,0.6-0.4,0.9-0.6c0,0.3,0,0.5,0,0.8
			l15.4,3.2l0.4-0.2l4.1-2.5l7.7-7.3l4.3-2.7l5.4-1.5l4.4,0.2l4.4,0.7l4.2-0.1l3.8-2.3l1.5-3.6l0.2-4l0.7-3.7l5.5-5.4l-0.1-0.1
			l2.4-3.8l7.4-6.8l1.6-3.3l0.7-2.8l4-9.5l2-3.2l7.5-3.4l3.5-2.4l-0.3-3.1L258.7,0l-6,0.8l-30.9,12.8l-49.1,29.7l-7.9,6.3
			C165.3,49.7,165.6,49.9,165.6,50.2z"/>
		<path fill="#F7E017" d="M67,181.9l-0.8,1.4l0.4,3.6l1.1,2.2l8.2,0.6l10.4,2.1l9.7-1.8l4.4,0.3l3,3.1l5,15.1l2.3,4.7l3.4,4.6
			l15,13.9l5.1,3.6l1.9,1.8l1.2,2.4l1.8,5.9l1.2,1.9l9.8,1.1l11.2-6.5l22-20.9l1.8-3.5l1.3-9.8l1.7-4.6l4.7-7.1
			c-0.4-0.3-0.8-0.6-1-1c-0.4-0.6-0.5-1-0.4-2.4c0.1-0.9,0.1-1.7,0-1.7c-0.1,0-0.9,0.5-1.8,1.1c-2.4,1.6-3.9,2.4-6.6,3.5
			c-8.2,3.3-20.1,4.7-29.2,3.5c-6.9-0.9-13.2-3.1-17.6-6.1c-0.8-0.6-1.6-1.1-1.8-1.1c-0.1,0-0.2,0.6-0.2,1.4c0,2.3-0.9,3.4-3.2,4
			c-2.2,0.6-5.5-0.6-8.2-2.8c-2.8-2.3-6-4.1-8.8-4.8c-2.3-0.6-5.3-0.5-7.4,0.2c-1,0.3-2.2,0.8-2.5,1.1c-0.4,0.2-0.8,0.4-1,0.4
			c-0.4,0-0.3-2.4,0.1-3.2c0.5-1,1.8-2,3.4-2.6c0.8-0.3,1.4-0.6,1.4-0.8c0-0.2-0.3-0.7-0.6-1.3c-1-1.8-0.6-3.6,1.2-4.9
			c1.8-1.4,5-1.7,7.7-0.6c0.7,0.3,1.3,0.5,1.4,0.5c0.4,0,0.1-0.5-0.9-2c-1.2-1.7-1.4-2.5-1.2-4.5c0-0.1,0-0.3,0.1-0.4l-16-3.3
			C98.9,168,98,168,97,168c0.1,0,0.3,0,0.4,0c-2.9,0.1-5.5-0.5-7.3-1.2c-0.9-0.3-1.7-0.7-2.2-1.1c-0.2-0.1-0.3-0.3-0.5-0.4L66.2,161
			v0.2l3.3,4.9l1.6,10.7l-0.8,2.3L67,181.9z"/>
		<path fill="#FFFFFF" d="M83.5,111.3l0.7,0.1c0-2.4-0.2-4.1-0.6-5.4c0.1-0.3,0.2-0.5,0.3-0.7c0.1-0.1,0.2-0.2,0.3-0.2
			c0.2,0,0.7,0.2,1.1,0.7c0.9,1,1.7,2.9,1.5,4.9c0,0.4,0,0.8,0,1.2l0.8,0.2c-0.1-0.4-0.2-0.8-0.1-1.2v0v0c0.1-1.6-0.3-3.2-0.9-4.4
			c0.2-0.4,0.4-0.6,0.6-0.7c0.1-0.1,0.2-0.1,0.3-0.1c0,0,0.1,0,0.1,0c0.2,0,0.6,0.4,0.9,1c0.6,1.2,1.2,3.5,1.3,5.9l25.1,5.2
			c1.3-4.2,3.2-8,5.7-11.4c1.3-1.7,2.7-3.2,2.4-2.5c-0.1,0.2-0.6,1.5-1.2,2.9c-1.6,3.8-2.5,7.7-2.7,11.8l38.5,8c0.2-0.8,0.6-1.8,1-3
			c0.8-2.1,0.9-2.4,0.8-4c-0.1-2.1-0.7-3.4-2.3-5.2c-0.6-0.7-1.1-1.3-1.1-1.4c0-0.1,0.5-0.1,1.1-0.1c1.2,0,2.2,0.5,3.2,1.6
			c0.3,0.4,0.7,0.7,0.8,0.7c0.1,0,0.3-0.5,0.4-1.2c0.2-1.3,0.7-2.3,1.2-2.3c0.5,0,1,1.2,1,2.3c0,1.3,0.5,1.4,1.5,0.3
			c0.5-0.5,1.2-1,1.6-1.2c0.8-0.3,2.1-0.1,2.3,0.3c0.1,0.1-0.3,0.7-0.8,1.3c-2.3,2.5-2.8,5.4-1.4,8.7c0.9,2.1,1.3,3.8,1.4,5.5
			l18.6,3.9l-1.1-27.2l0-0.3c-0.8-0.3-1.5-0.7-2.3-1.4c-3.5-3-6.9-5.1-7.9-5.1c-0.9,0-0.5,0.5,1.1,1.3c2,1.1,4.1,2.5,5.6,3.9
			c0.7,0.7,1.5,1.3,1.8,1.5c0.6,0.3,0.6,0.8-0.1,1.8c-0.7,0.9-1.9,1.3-3.4,1.2c-3.1-0.3-5.5-1.8-9.2-5.7c-1.5-1.5-2.8-2.8-2.9-2.8
			c-0.5,0-0.2,0.7,0.8,1.8c1.2,1.3,1.4,2.1,1,3.2c-0.4,1-1.1,1.2-2.4,0.8c-1.4-0.4-1.6,0-0.7,1.1c1.4,1.7,1.2,3.8-0.5,5.2
			c-0.5,0.4-1.1,0.8-1.2,0.8c-0.1,0-0.5-0.4-0.8-0.8c-1.1-1.6-2-1.6-3.1,0c-0.4,0.6-0.7,1-0.7,1c0,0-0.5-0.4-1.1-0.8
			c-1.2-0.9-1.6-1.7-1.6-3.4c0-0.8,0.2-1.3,0.7-2.1c0.8-1.1,0.7-1.5-0.5-1.2c-1.9,0.5-2.8,0-2.8-1.5c0-0.8,0.1-1.1,1.2-2.4
			c0.8-1,1.1-1.5,1-1.7c-0.2-0.2-1.2,0.7-3.2,2.8c-1.6,1.7-3.5,3.3-4.1,3.8c-3.5,2.4-6.8,2.7-8.4,0.9c-0.8-0.9-0.7-1.5,0.2-2
			c0.4-0.3,1.1-0.8,1.6-1.3c1-1.1,4.2-3.3,5.7-4.1c1.3-0.6,1.6-1.1,0.7-1.1c-1.1,0-4.5,2.2-7,4.6c-0.8,0.7-1.9,1.5-2.4,1.7
			c-1.3,0.6-3.8,0.8-4.9,0.4c-0.8-0.3-2.2-1.6-2.2-2.1c0-0.1,0.3-0.4,0.7-0.6c0.4-0.2,1.1-0.7,1.6-1.2c2.1-1.8,6-3.7,9.1-4.3
			c1-0.2,0.6-0.7-0.5-0.7c-2.1,0.1-6.4,2.1-8.9,4.2c-3,2.4-7.4,2.2-8.9-0.5c-0.2-0.5-0.4-0.9-0.3-1c0.1-0.1,0.9-0.3,2-0.6
			c1.1-0.3,3.2-1.2,5.3-2.2c3.2-1.6,4.2-2,6.4-2.3c1-0.2,1.1-0.7,0.1-0.8c-1.3-0.1-3.2,0.5-6.6,2.2c-4.4,2.1-5.6,2.5-7.9,2.4
			c-2.1-0.1-3.3-0.7-5-2.3c-1.1-1.1-2.7-3.7-2.4-4c0.1-0.1,0.6,0,1.1,0.2c0.6,0.2,2.4,0.3,4.5,0.3c3,0,3.7-0.1,5.3-0.5
			c2.6-0.8,6.1-2.5,8.5-4.3c4.6-3.4,8.3-4.8,13.1-4.8c4.4,0,7.2,1,9.7,3.5c0.4,0.4,0.7,0.7,1,0.9v-8l1.6,1.2l1.8-1.4v8.2
			c0.1-0.1,0.2-0.2,0.2-0.4c0.4-0.9,1.8-2.1,3.3-2.9c2.3-1.2,5.7-1.5,9.1-1.1l-0.3-0.7l0.1-3.9l2.4-2.2l8.3-3.5l-15.4-3.2
			c0,4.6,2,7.5,3.6,10.9l-4.5-3.2L169,80l-3-3.5l-2.9,2.9l-3-2.8l-3,3.3l-2.7-3.3l-3.9,3.7c1.6-3.6,2.8-6.8,3.2-11.5
			c4.1,3.4,13.4,3.1,18.1,0.4l-0.8-0.2c-5.2,2.9-16.9,1.6-17-1.2c0.8-0.6,1.7-0.9,2.8-1.1c0.7-0.1,1.4-0.2,2.1-0.3L146.6,64
			l-2.7,2.2l-8.6,8.7l-3.7,6.9l-5,4.9L94.7,98.2l-12.4,7C83,106.1,83.5,108,83.5,111.3z"/>
		<path fill="#FFFFFF" d="M80.5,110.6l0.7,0.1c0.2-1.7-0.1-3.3-0.6-4.6l-0.6,0.4C80.4,107.7,80.6,109.1,80.5,110.6z"/>
		<path fill="#FFFFFF" d="M245.3,94.8l2,9c0,0,0,0,0,0c0.1,0,0.2,0.1,0.3,0.3v0c0,0.1,0.1,0.4,0.2,0.8c0,0,0,0.1,0,0.2l7.3,17.6
			l2.8,9.4l1.9,16l57.1,11.9l-4.4-4.2l-5.5-7.3L304,139l-1.3-10.1l0.1-9.4l1.9-9.4l0.3-4.1l-1-5.7l-1.3-3.9l-57.8-12L245.3,94.8z"/>
		<path fill="#FFFFFF" d="M164.9,68.9c0-0.4,0-0.8,0-1.2l-0.6-0.1l0,0.8l-2.3,0v-1.3l-0.6-0.1c0,0.6,0,1.2,0,1.9L164.9,68.9z"/>
		<path fill="#FFFFFF" d="M77.3,107.7l-5.8,1.1l6.1,1.3C77.4,109.2,77.3,108.4,77.3,107.7z"/>
		<path fill="#FFFFFF" d="M180.4,96.9c0.1,0.3,0.4,0.5,1.1,0.6c0.9,0.1,1.9,0.4,2.9,0.8l-0.3-1C182,96.6,180.3,96.2,180.4,96.9z"/>
		<path d="M194.1,172c-7.3,5.9-15.1,9.2-24.8,10.5l5.6,1.2c8.4-2.3,16.7-6.8,23.4-13l1.5-3.5l0.3-1.1
			C198.3,168.2,196.3,170.3,194.1,172z"/>
		<path d="M87,164.9c-0.3-1,0.6-1.8,1.6-1.7c0.9,0.1,1.2,0.6,3.1,1.2c1.6,0.5,3.2,1,5.3,1c4,0,6.4-1,7.6-1.4
			c0.5-0.2,1.1-0.5,1.7-0.4c0.3,0.1,0.5,0.2,0.6,0.3c0.1,0.1,0.2,0.3,0.2,0.6c-0.1,1.6-1.6,2-3.4,2.6c-1.4,0.5-2.5,0.7-4,0.8l16,3.3
			c0.4-2.4,2.3-4.2,4.7-4.4c2.1-0.2,3.4,0.5,6.4,3.5c1.7,1.6,3.3,3,5,4.3l4.1,0.9c-11-7-19-18.6-21.6-31.4c-2-9.8-1.7-18.7,0.6-26.3
			l-25.1-5.2c0,0,0,0,0,0c-0.4,0-0.7,0-1,0.2c-0.3,0.2-0.5,0.5-0.6,0.8c-0.3-0.4-0.5-1-0.6-1.5l-0.8-0.2c0.2,1.1,0.8,2.2,1.4,2.8
			c0.1,0.4,0.2,0.8,0.4,1.2c0.5,1.2,1.3,2.6,1.9,3.4c0.2,0.2,0.4,0.7,0.6,1.2c-0.2-0.2-0.4-0.3-0.6-0.5c-0.8-0.6-1.6-1.1-2.3-1.3
			c-0.1-1-0.7-2.3-1.4-3.7c-0.8-1.4-1.7-2.8-2.7-3.5c0,0,0-0.1,0-0.1l-0.7-0.1c0,0.2,0,0.3,0,0.5l0,0.2l0.2,0.1
			c0.8,0.5,1.8,1.9,2.6,3.4c0.8,1.5,1.3,3,1.4,3.7l0,0.3l0.3,0.1c0.6,0.1,1.5,0.6,2.3,1.2c0.8,0.6,1.5,1.4,1.7,2
			c0.2,0.6,0.3,1.1,0.4,1.6c0,0.2,0.1,0.3,0.1,0.5c-0.6-0.8-1.6-1.5-2.8-2.2c-1.5-0.8-3.1-1.7-4.4-2.7c-0.1-0.1-0.2-0.3-0.3-0.7
			c-0.1-0.4-0.2-1.1-0.4-1.8c-0.4-1.5-1.3-3.5-3.4-6.1c0-0.2,0-0.4,0.1-0.5l-0.7-0.1c0,0.2-0.1,0.5-0.1,0.7l0,0.2l0.1,0.1
			c2.1,2.5,3,4.5,3.4,5.9c0.2,0.7,0.3,1.3,0.4,1.8c0.1,0.5,0.2,0.9,0.5,1.1c1.4,1.1,3.1,1.9,4.5,2.8c1.4,0.8,2.6,1.7,2.8,2.4l0,0v0
			c0.2,0.4,0.3,0.7,0.5,0.8c0,0,0.1,0.1,0.2,0.1c0.1,0,0.3,0,0.4-0.1c0.2-0.2,0.2-0.3,0.2-0.4c0-0.4-0.1-1.1-0.3-2
			c-0.2-0.9-0.5-2-0.8-2.9c-0.3-0.9-0.6-1.7-1-2.2c-0.6-0.8-1.4-2.1-1.8-3.2c-0.2-0.6-0.4-1.1-0.4-1.5c0-0.4,0.1-0.6,0.3-0.8
			c0.3-0.2,0.6-0.2,0.9-0.1c0.4,0.1,0.8,0.3,1.2,0.6c0.4,0.3,0.8,0.6,1,0.8c0.3,0.3,0.5,0.5,0.5,0.6c0.1,0.3,0.4,0.6,0.8,1
			c0.4,0.5,0.9,1,1.4,1.6c1,1.1,2.1,2.2,2.6,2.7l0,0l0,0c0.9,0.7,2.4,1.7,3.7,2.9c1.3,1.2,2.3,2.5,2.2,3.5v0
			c0,3.8,0.3,25.5,0.3,28.7c-0.2,0-0.5,0.1-0.7,0.2h0c-1.1,0.4-2.6,1.4-5.9,1.4h0c-1.6,0.1-3.2-0.5-4.5-1.1
			c-0.7-0.3-1.2-0.6-1.7-0.8c-0.1,0-0.2-0.1-0.3-0.1c0.1-3.4,0.1-7.7,0.1-11.7c0-2.5-0.1-4.8-0.2-6.6c0-0.9-0.1-1.7-0.2-2.3
			c-0.1-0.6-0.1-1-0.3-1.3c-0.7-1.7-2.7-3.3-4.8-5.2c-2.1-1.9-4.2-4-5.2-6.3c-1-2.5-1.9-6.7-2.5-10.4c-0.1-0.5-0.2-1.1-0.2-1.6
			l-6.1-1.3l-11.1,2.1l-60.4-2l0.1,0.1l15.5,7.4l13.1,2l5,2.6l7.8,6.1l5.9,2.2l2.8,1.8l1.8,4.9l1.5,0.7l3.7,0.1l1.7,0.7l0.5,1.6
			l0.2,1.9l0.8,1.6l2.5,2.8l1.4,2.6l1.8,6.7v6.5l21.2,4.4C87.2,165.2,87.1,165,87,164.9z M92.6,126.1
			C92.6,126.1,92.6,126.1,92.6,126.1C92.6,126.1,92.6,126.1,92.6,126.1z M90.8,156c0.7,0.1,0.9,0.6,2.3,1.2c1.2,0.5,2.4,1,3.9,1
			c1.5,0,2.8-0.3,3.7-0.6l0,0c0.1,0,0.2-0.1,0.3-0.1c0.8-0.3,1.3-0.6,1.7-0.7c0.4-0.2,0.8-0.5,1.2-0.4c0,0,0,0,0,0c0,0,0,0,0,0
			c0,0,0,0,0,0c0.2,0.1,0.3,0.2,0.4,0.3c0.1,0.1,0.2,0.3,0.2,0.6c-0.1,1.6-1.2,2-2.5,2.6c-1.5,0.7-2.7,1-4.9,0.9c0.1,0,0.2,0,0.3,0
			c-2.2,0.1-4.1-0.5-5.4-1.2c-0.7-0.3-1.2-0.7-1.6-1.1c-0.4-0.4-0.6-0.7-0.7-0.9C89.4,156.7,90.1,155.9,90.8,156z M89.5,159.6
			c0.8,0.1,1,0.6,2.7,1.2c1.4,0.5,2.8,1,4.6,1c3.5,0,5.6-1,6.6-1.4c0.5-0.2,1-0.5,1.5-0.4c0.2,0.1,0.4,0.2,0.5,0.3
			c0.1,0.1,0.2,0.3,0.2,0.6c-0.1,1.6-1.4,2-2.9,2.6c-1.8,0.7-3.2,1-5.8,0.9c0.1,0,0.3,0,0.4,0c-2.6,0.1-4.7-0.5-6.3-1.2
			c-0.8-0.3-1.4-0.7-1.9-1.1c-0.5-0.4-0.7-0.7-0.8-0.9C87.9,160.2,88.7,159.5,89.5,159.6z"/>
		<path d="M168.3,130.4c-0.1,2.6-0.6,3.8-1.8,4.6c-0.5,0.3-1,0.6-1,0.6c-0.1,0-0.3-0.4-0.6-0.9c-0.6-1.1-1.8-2.5-2.2-2.5
			c-0.4,0-2.2,2-2.2,2.4c0,0.2-0.1,0.4-0.3,0.6c-0.2,0.2-0.5,0.1-1.3-0.4c-1.2-0.8-1.7-2.2-1.7-4.6c0-1.2,0.1-2.2,0.5-3.4l-38.5-8
			c-0.3,4.5,0.2,9.2,1.5,14.1c1,3.7,1.9,6.1,3.6,9.5c6,11.7,17.3,20.3,29.8,22.7c1,0.2,2.9,0.6,4.3,0.8c3.5,0.7,5.4,0.6,10.2-0.4
			c4.4-0.9,8-2,11.2-3.4c6.2-2.7,11.7-6.9,16-12.1l-3.1-1.1l-4.3-6.7l-1.4-8.7l0-0.7l-18.6-3.9C168.3,129.4,168.3,129.9,168.3,130.4
			z M173.6,157.3c0.7-0.4,1.3-0.6,1.3-0.6c0.3,0.3-1.6,3.4-2.8,4.7c-2.3,2.5-4.6,3.6-7.9,3.9c-1,0.1-2.5,0.1-3.3,0
			c-4.4-0.5-8.3-3.3-10.2-7.4c-0.6-1.4-0.6-1.7,0.1-1.3c1.1,0.8,2.7,1.5,3.4,1.5c0.6,0,1,0.3,2.2,1.3c2.2,2,4.6,2.5,3.5,0.8
			c-0.7-1.3-0.5-2.1,1-4.3c0.8-1.1,1.5-2,1.7-2c0.1,0,0.8,0.7,1.4,1.7c1.4,2,1.9,3.5,1.3,4.5c-0.5,0.9-0.4,1.5,0.1,1.5
			c0.6,0,2.5-1.2,3.6-2.3c0.6-0.6,1.3-1,2.1-1.1C171.9,158.1,173,157.7,173.6,157.3z M168.7,136.3c-1.2,1.2-1.8,2.6-1.8,4.4
			c0,1.7,0.2,2.5,1.5,5.3c1.2,2.6,1.8,5.2,1.8,7.4c0,2.4-0.5,3.9-1.6,5.2c-1.2,1.3-1.8,1.7-2,1.2c-0.1-0.2-0.1-0.4,0-0.6
			c0.3-0.5-0.6-2.6-1.7-4.1c-0.6-0.9-1.3-1.8-1.5-2.1c-0.2-0.3-0.5-0.5-0.7-0.5c-0.3,0-2.5,3-3.4,4.7c-0.3,0.6-0.6,1.5-0.6,1.9
			c0,0.4-0.1,0.8-0.2,0.8c-0.6,0-1.9-1.3-2.6-2.7c-0.7-1.4-0.8-1.7-0.7-3.8c0-2.7,0.4-4.5,1.9-8.2c1-2.4,1.1-2.8,1.1-4.6
			c0-2.1-0.4-3.3-1.6-4.4c-0.7-0.7-0.6-0.9,0.3-0.9c0.9,0,2.2,0.7,2.9,1.5c0.7,0.8,1.1,0.5,1.3-0.8c0.1-0.5,0.4-1.2,0.8-1.7
			c0.6-0.7,0.8-0.8,1.1-0.6c0.6,0.4,1.5,2.2,1.5,3.2c0,1.1,0.4,1.1,1.5-0.1c1-1.1,1.7-1.5,2.8-1.7
			C169.8,134.9,169.7,135.3,168.7,136.3z"/>
		<polygon points="260.8,155.6 262.7,158.9 265.9,161.1 279.5,166.1 284.5,167.2 291.6,166.5 293.6,167.2 297.3,170.3 299.8,171.3
			304.4,171.2 306.5,171.9 310.8,174.8 316.3,177.2 321.6,177.4 325,173.7 324.4,168.7 321,163.6 317,159.9 259.9,148 		"/>
		<path fill="#CF1126" d="M169.6,184.8c-3.4,0.5-9.3,0.7-12.2,0.4c-9.5-1.1-17.8-4.5-25.6-10.5c-1.7-1.3-3.4-2.8-5-4.3
			c-3.1-2.9-4.3-3.6-6.4-3.5c-2.4,0.2-4.4,2.1-4.7,4.4c0,0.1-0.1,0.2-0.1,0.4c-0.1,2,0.1,2.8,1.2,4.5c1,1.5,1.2,2,0.9,2
			c-0.1,0-0.7-0.2-1.4-0.5c-2.8-1-5.9-0.8-7.7,0.6c-1.8,1.4-2.2,3.1-1.2,4.9c0.3,0.6,0.6,1.1,0.6,1.3c0,0.2-0.6,0.5-1.4,0.8
			c-1.5,0.6-2.8,1.6-3.4,2.6c-0.4,0.8-0.5,3.2-0.1,3.2c0.1,0,0.6-0.2,1-0.4c0.4-0.2,1.5-0.7,2.5-1.1c2.2-0.7,5.2-0.8,7.4-0.2
			c2.7,0.7,6,2.5,8.8,4.8c2.7,2.2,6.1,3.4,8.2,2.8c2.3-0.6,3.2-1.7,3.2-4c0-0.8,0.1-1.4,0.2-1.4c0.1,0,0.9,0.5,1.8,1.1
			c4.4,3,10.7,5.2,17.6,6.1c9.1,1.2,21-0.2,29.2-3.5c2.7-1.1,4.2-1.9,6.6-3.5c0.9-0.6,1.7-1.1,1.8-1.1c0.1,0,0.1,0.8,0,1.7
			c-0.1,1.4,0,1.8,0.4,2.4c0.3,0.4,0.6,0.8,1,1l0.7-1l1.7-4.4l-0.8-4.2l-0.3,0.1c-0.7,0.8-1.6,1.4-2.3,1.8c-1.1,0.5-1.9,0.6-1.8,0.2
			c0-0.1,0.3-0.3,0.6-0.5l-2.6,1c-0.8,1.6-2,2.8-4,3.8c-1,0.5-1.9,0.7-2.8,0.8c-1.5,0.1-3.5-0.4-3.8-0.9c-0.4-0.6-0.2-1.7,0.5-2.8
			c0.8-1.3,1.3-1.4,1.1-0.3c-0.1,0.4-0.2,1-0.3,1.4c-0.1,0.4,0,0.8,0.4,1.1c0.5,0.5,0.7,0.5,2,0.4c2.1-0.2,5.1-1.8,5.9-3l0-1.1
			c-0.1-0.2-0.2-0.3-0.4-0.4l-0.6-0.5l-1,0.6c-0.6,0.3-1.1,0.6-1.1,0.6s-0.1-0.3-0.1-0.6c0-0.4,0.3-0.7,0.7-1.1
			c1-0.7,1.2-1.5,0.9-2.6c-0.2-0.7-0.2-0.9,0.1-1.4c0.2-0.3,0.5-0.6,0.7-0.6c0.5,0,0.8,1.4,0.6,2.6c-0.2,1-0.2,1.4,0.2,1.5l-0.1-1.9
			l1.4-2.2l5-4.8c0.1-0.2,0.2-0.4,0.3-0.6c0.4-0.6,0.6-0.7,1.1-0.8l0.9-0.9l2.6-4.1l0.2-0.5c-6.7,6.2-15,10.8-23.4,13
			C173.2,184.1,171.4,184.5,169.6,184.8z M183.9,193.4c0-0.3,0.3-0.6,0.6-0.6c0.3,0,0.6,0.3,0.6,0.6v0c0,0.3-0.3,0.6-0.6,0.6
			C184.2,194,183.9,193.7,183.9,193.4L183.9,193.4z M181.7,194.2c0-0.3,0.3-0.6,0.6-0.6c0.3,0,0.6,0.3,0.6,0.6v0
			c0,0.3-0.3,0.6-0.6,0.6C182,194.8,181.7,194.5,181.7,194.2C181.7,194.2,181.7,194.2,181.7,194.2z M157.3,194.9
			c0.4-1.2,0.6-4.1,0.5-5.7l-0.2-1.8l0.7-0.5c1-0.7,1.3-0.4,1,0.9c-0.1,0.5-0.3,1.6-0.4,2.5c-0.1,0.9-0.2,2.1-0.4,2.7
			c-0.1,0.6-0.5,1.4-0.8,1.8C157.3,195.2,157.2,195.2,157.3,194.9z M133.6,178c1-0.2,1.4,0.2,0.7,0.9c-0.3,0.3-0.8,1.1-1.1,1.9
			c-0.3,0.7-0.9,1.8-1.3,2.3c-0.4,0.5-0.9,0.9-1.1,0.9c-0.4,0-0.3-0.1,0.5-1.4c0.5-0.7,1-2.3,1.3-3.8
			C132.9,178.4,133.1,178.2,133.6,178z M125.5,180.4l-0.1-1l-1.6-0.1c-2.5-0.2-3.1-0.6-4-2.4c-0.3-0.6-0.7-1-1.2-1.2
			c-1-0.3-0.9-1,0.1-1c0.8,0,1.7,0.8,2.6,2.1c1,1.7,3,2,4.8,0.7c0.6-0.4,1.3-0.7,1.7-0.7c0.9,0,1.8,0.6,1.8,1.2
			c0,0.9-1.1,2.3-2.3,2.9c-0.6,0.3-1.2,0.6-1.4,0.6C125.6,181.4,125.5,181,125.5,180.4z M150.5,194.4c-0.6-0.1-0.9-0.3-1.2-0.9
			c-0.3-0.6-0.5-0.7-0.8-0.6c-0.3,0.1-1.1,0.2-1.9,0.2c-1.2,0.1-1.5,0.1-1.6-0.2c-0.1-0.2,0-0.5,0.1-0.6c0.5-0.5,0.3-0.6-1.4-0.7
			c-1.7-0.1-1.7-0.1-1.8-0.8c-0.1-0.7-0.2-0.7-1.3-0.7c-3.4-0.2-7-1.2-7.5-2.3c-0.4-0.8-0.7-1-1.4-1c-0.7,0-3.4-1.3-4.1-1.9
			c-0.6-0.6-0.9-1.9-0.5-2.3c0.2-0.2,0.5,0,1.4,0.9c2.2,2.5,3.9,3,5,1.7c1-1.2,1.6-2.5,1.4-3.4c-0.1-0.6,0-0.8,0.4-1.1
			c0.7-0.4,2.2-0.7,2.2-0.4c0,0.1-0.3,0.5-0.7,0.9c-0.4,0.4-0.8,1-1,1.5c-0.1,0.5-0.6,1.4-1,2.2c-0.8,1.6-0.7,2.3,0.5,3.1
			c1.2,0.8,3,1.2,5.4,1.3c1.3,0,2.3,0.1,2.4,0.3c0.1,0.1,0.2,0.5,0.2,0.8c0,0.4,0.1,0.6,0.5,0.5c2.1-0.3,2.4-0.3,2.8-0.1
			c0.2,0.2,0.3,0.5,0.2,0.8c-0.2,0.8,0.4,0.8,1.8,0.2c1.6-0.7,2.1-0.6,1.9,0.4c-0.1,0.5,0,0.7,0.3,0.9c0.8,0.4,1.6,0.3,2-0.3
			c0.5-0.8,0.8-3.4,0.5-4.4c-0.2-0.8-0.2-0.9,0.4-1.4c1-0.8,1.3-0.7,1.2,0.2c-0.1,0.4-0.3,1.8-0.4,3.1c-0.3,2.5-0.5,3-1.3,3.7
			C152.6,194.4,151.6,194.6,150.5,194.4z M162.1,193.7c-0.6,1.7-1.4,2.5-2.8,3c-1.1,0.4-4.8,0.5-5.8,0.3c-0.4-0.1-0.9-0.3-1.1-0.5
			c-0.6-0.5,0-0.7,1.8-0.5c1,0.1,2,0.2,2.4,0.1c3.8-0.4,4.5-0.9,4.1-2.9c-0.1-0.8-0.1-1,0.4-1.4c0.7-0.6,1.3-0.6,1.4-0.1
			C162.6,192,162.4,192.8,162.1,193.7z M164.6,194.4c-0.7,1.8-0.9,1.3-0.7-1.9c0.1-2.5,0.1-3.1-0.3-3.7c-0.2-0.4-0.3-0.9-0.3-1.2
			c0.1-0.4,1.2-1.1,1.4-0.9c0.1,0.1,0.1,1.6,0.2,3.4C164.9,192.6,164.8,193.8,164.6,194.4z M170.5,194.4c-0.4,0.6-0.9,0.9-1.8,1.2
			c-0.7,0.2-1.4,0.6-1.6,0.8c-0.4,0.4-0.9,0.5-0.9,0.1c0-0.1,0.1-0.6,0.3-1c0.3-0.8,0.7-1,2-1c1.4,0,1.7-1,0.7-2.7
			c-0.2-0.4-0.7-0.8-1.1-0.9c-0.9-0.2-0.9-0.3-0.3-1.3c0.7-1.2,1.1-1.2,2-0.1C171.4,191.3,171.6,192.7,170.5,194.4z M182.8,183
			c0.3-0.3,1,0,0.9,0.3c-0.1,0.4-0.8,0.5-1,0.2C182.6,183.3,182.7,183.1,182.8,183z"/>
		<path fill="#FFCC00" d="M190.1,188.3c-0.2,0.4,0.7,0.3,1.8-0.2c0.7-0.4,1.5-1,2.3-1.8l-3.5,1.4C190.4,188,190.2,188.2,190.1,188.3
			z"/>
		<path fill="#FFCC00" d="M193.5,176.7c-0.1,0.2-0.2,0.4-0.3,0.6l1.4-1.3C194.1,176,193.9,176.2,193.5,176.7z"/>
		<path fill="#FFD42A" d="M161.1,191.8c-0.5,0.4-0.5,0.6-0.4,1.4c0.3,2-0.4,2.5-4.1,2.9c-0.4,0-1.5,0-2.4-0.1
			c-1.8-0.2-2.4,0-1.8,0.5c0.2,0.2,0.7,0.4,1.1,0.5c1,0.3,4.7,0.1,5.8-0.3c1.4-0.5,2.2-1.3,2.8-3c0.3-0.8,0.5-1.7,0.4-1.9
			C162.4,191.2,161.8,191.2,161.1,191.8z"/>
		<path fill="#FFD42A" d="M167.8,189.5c-0.6,1-0.6,1.1,0.3,1.3c0.5,0.1,0.9,0.5,1.1,0.9c1,1.6,0.7,2.7-0.7,2.7c-1.3,0-1.6,0.2-2,1
			c-0.2,0.4-0.3,0.9-0.3,1c0,0.3,0.5,0.3,0.9-0.1c0.2-0.2,0.9-0.5,1.6-0.8c0.9-0.3,1.4-0.6,1.8-1.2c1.1-1.6,0.9-3.1-0.7-5
			C168.9,188.4,168.5,188.4,167.8,189.5z"/>
		<path fill="#FFD42A" d="M164.7,186.8c-0.2-0.2-1.3,0.5-1.4,0.9c-0.1,0.2,0,0.8,0.3,1.2c0.3,0.6,0.4,1.2,0.3,3.7
			c-0.1,3.2,0.1,3.7,0.7,1.9c0.2-0.7,0.3-1.8,0.3-4.2C164.8,188.4,164.8,186.8,164.7,186.8z"/>
		<path fill="#FFD42A" d="M157.7,194.7c0.3-0.4,0.7-1.2,0.8-1.8c0.1-0.6,0.3-1.8,0.4-2.7c0.1-0.9,0.3-2,0.4-2.5c0.4-1.2,0-1.6-1-0.9
			l-0.7,0.5l0.2,1.8c0.1,1.6-0.1,4.6-0.5,5.7C157.2,195.2,157.3,195.2,157.7,194.7z"/>
		<path fill="#FFD42A" d="M154.6,190.1c0.2-1.3,0.4-2.7,0.4-3.1c0.2-0.9-0.2-1-1.2-0.2c-0.6,0.5-0.7,0.6-0.4,1.4
			c0.3,1,0,3.6-0.5,4.4c-0.4,0.6-1.2,0.7-2,0.3c-0.3-0.2-0.4-0.4-0.3-0.9c0.2-1-0.4-1.1-1.9-0.4c-1.5,0.7-2,0.6-1.8-0.2
			c0.1-0.3,0-0.6-0.2-0.8c-0.3-0.3-0.6-0.3-2.8,0.1c-0.4,0.1-0.5-0.1-0.5-0.5c0-0.3-0.1-0.7-0.2-0.8c-0.1-0.1-1.1-0.3-2.4-0.3
			c-2.5,0-4.2-0.4-5.4-1.3c-1.2-0.8-1.3-1.5-0.5-3.1c0.4-0.7,0.8-1.7,1-2.2c0.1-0.5,0.6-1.1,1-1.5c0.4-0.4,0.7-0.8,0.7-0.9
			c0-0.3-1.6,0-2.2,0.4c-0.4,0.3-0.5,0.5-0.4,1.1c0.1,0.9-0.4,2.1-1.4,3.4c-1.1,1.3-2.8,0.8-5-1.7c-0.8-0.9-1.1-1.1-1.4-0.9
			c-0.4,0.4-0.1,1.8,0.5,2.3c0.7,0.7,3.4,1.9,4.1,1.9c0.7,0,1,0.2,1.4,1c0.6,1.1,4.1,2.1,7.5,2.3c1.1,0,1.2,0.1,1.3,0.7
			c0.1,0.7,0.1,0.7,1.8,0.8c1.7,0.1,1.9,0.2,1.4,0.7c-0.1,0.1-0.2,0.4-0.1,0.6c0.1,0.3,0.4,0.3,1.6,0.2c0.8-0.1,1.7-0.2,1.9-0.2
			c0.4-0.1,0.5,0.1,0.8,0.6c0.3,0.6,0.5,0.8,1.2,0.9c1.1,0.2,2.1,0,2.7-0.6C154.1,193,154.2,192.5,154.6,190.1z"/>
		<path fill="#FFCC00" d="M181.2,192.2c-1.3,0.1-1.5,0.1-2-0.4c-0.4-0.4-0.5-0.7-0.4-1.1c0.1-0.3,0.2-0.9,0.3-1.4
			c0.2-1.1-0.2-1-1.1,0.3c-0.7,1.1-0.9,2.2-0.5,2.8c0.3,0.5,2.4,1,3.8,0.9c0.9-0.1,1.8-0.3,2.8-0.8c2-1,3.3-2.1,4-3.8l-1.1,0.4
			l0-0.1C186.3,190.4,183.3,192,181.2,192.2z"/>
		<path fill="#FFCC00" d="M186.7,184.7c0.3-1.1-0.1-2.6-0.6-2.6c-0.2,0-0.5,0.3-0.7,0.6c-0.3,0.5-0.3,0.7-0.1,1.4
			c0.4,1.1,0.1,1.9-0.9,2.6c-0.5,0.3-0.7,0.7-0.7,1.1c0,0.3,0,0.6,0.1,0.6s0.6-0.3,1.1-0.6l1-0.6l0.6,0.5c0.1,0.1,0.3,0.3,0.4,0.4
			l-0.1-1.9C186.6,186.1,186.5,185.6,186.7,184.7z"/>
		<path fill="#FFD42A" d="M130.9,183.9c0.2,0,0.7-0.4,1.1-0.9c0.4-0.5,1-1.5,1.3-2.3c0.3-0.7,0.8-1.6,1.1-1.9
			c0.6-0.7,0.3-1.1-0.7-0.9c-0.5,0.1-0.7,0.3-0.8,0.8c-0.3,1.5-0.8,3.1-1.3,3.8C130.6,183.9,130.5,183.9,130.9,183.9z"/>
		<path fill="#FFCC00" d="M183.7,183.3c0.1-0.4-0.6-0.7-0.9-0.3c-0.1,0.1-0.2,0.4-0.1,0.5C182.9,183.8,183.6,183.7,183.7,183.3z"/>
		<path fill="#FFD42A" d="M129.4,178c0-0.6-0.9-1.2-1.8-1.2c-0.4,0-1.1,0.3-1.7,0.7c-1.8,1.3-3.7,1-4.8-0.7
			c-0.9-1.4-1.8-2.1-2.6-2.1c-1,0-1,0.6-0.1,1c0.5,0.2,0.9,0.6,1.2,1.2c0.9,1.9,1.5,2.2,4,2.4l1.6,0.1l0.1,1c0,0.5,0.2,1,0.3,1
			c0.1,0,0.7-0.3,1.4-0.6C128.3,180.2,129.4,178.8,129.4,178z M126.7,179.2c-0.2-0.5,0.1-1,0.6-1c0.5,0,0.6,0.4,0.3,1
			C127.5,179.6,126.9,179.7,126.7,179.2z"/>
		<path fill="#CF1126" d="M127.7,179.2c0.3-0.7,0.1-1-0.3-1c-0.5,0-0.8,0.5-0.6,1C126.9,179.7,127.5,179.6,127.7,179.2z"/>
		<path fill="#CF1126" d="M179.7,162.2c-3.2,1.4-6.8,2.5-11.2,3.4c-4.7,1-6.7,1-10.2,0.4c-1.3-0.3-3.3-0.6-4.3-0.8
			c-12.5-2.4-23.8-11.1-29.8-22.7c-1.7-3.3-2.6-5.7-3.6-9.5c-1.3-5-1.8-9.6-1.5-14.1c0.3-4.1,1.2-8,2.7-11.8
			c0.6-1.4,1.1-2.8,1.2-2.9c0.3-0.6-1.1,0.8-2.4,2.5c-2.5,3.4-4.4,7.2-5.7,11.4c-2.3,7.6-2.5,16.5-0.6,26.3
			c2.6,12.8,10.6,24.4,21.6,31.4c0.4,0.3,0.8,0.5,1.2,0.8c5.1,3.1,12.2,5.5,18,6.3c1.1,0.2,2.2,0.3,2.4,0.3c0.9,0.2,6.8,0.1,9.1-0.1
			c0.9-0.1,1.7-0.2,2.6-0.3c9.7-1.3,17.4-4.6,24.8-10.5c2.1-1.7,4.2-3.8,6-6l1.9-7.9l0.4-5.2c-1-1.1-1.9-2.1-2.5-2.6l-1.2,0.2
			c0,0.2-0.2,0.4-0.7,0.7c-0.3,0.2-0.6,0.4-0.6,0.5c0,0.4,0.4,0.4,1,0c0.6-0.4,1.3-0.5,1.3,0c0,0.1-0.3,0.5-0.6,1
			c-0.3,0.4-0.6,1-0.6,1.3c0,0.3-0.1,0.6-0.3,0.8c-0.5,0.5-0.9,0.2-0.7-0.6c0.1-0.5,0-0.7-0.6-1c-0.6-0.4-0.7-0.5-0.7-1.4
			c0-0.5,0.2-0.8,0.4-1.1l-1-0.4C191.5,155.2,185.9,159.5,179.7,162.2z M185.1,161.7c0.4-0.4,1,0,0.9,0.4c0,0.2-0.3,0.4-0.5,0.5
			C185.1,162.7,184.8,162,185.1,161.7z M153.5,168.5c0.3-0.1,0.4,0.1,0.4,0.4c0,0.3-0.1,0.5-0.5,0.5
			C152.9,169.4,152.9,168.6,153.5,168.5z M145.2,165.8c0.1-0.5,1-0.6,1-0.1c0,0.2-0.2,0.4-0.5,0.4
			C145.2,166.2,145.1,166.1,145.2,165.8z M121.2,157.1c-2.7-1.6-4.3-4.6-3.6-7.1c0.6-2.2,2.2-3.5,4.1-3.2c1.3,0.2,1.3,0.5,0.1,0.7
			c-1.9,0.3-2.7,1.3-2.7,3.5c0,2,0.5,3.3,1.9,4.6c1.8,1.7,2.5,1.4,2-0.8c-0.4-1.9-0.2-2.3,1.4-2.3c0.9,0,1.7,0.2,2.5,0.5
			c1.3,0.6,2.9,2.2,2.9,2.9c0,0.5-1.5,1.9-2,1.9c-0.6,0-0.6-0.7,0-1.3c0.6-0.5,0.6-0.6,0.3-1.3c-0.4-0.9-2.5-2-3.3-1.8
			c-0.6,0.2-0.7,0.3-0.3,2c0.3,1.2,0.3,1.2-0.4,1.8C123.2,158,122.6,158,121.2,157.1z M131.9,166.2l-2.4-0.2l-0.6,0.8
			c-0.4,0.5-0.7,0.8-0.8,0.8c-0.3,0-0.2-1.4,0.2-2.1c0.5-1,0.2-1.8-0.8-1.7c-0.6,0-0.7,0-0.7-0.7c-0.1-0.7-0.2-0.8-1.4-1.4
			c-1.3-0.7-1.6-1-1.6-1.9c0-0.5,0.8-1,1.3-0.8c0.2,0.1,0.3,0.4,0.3,0.8c0,0.8,0.7,1.4,1.9,1.6c0.6,0.1,0.9,0,1.6-0.6
			c0.4-0.4,1.1-1.2,1.4-1.8c0.5-1,0.6-1,1.4-1c0.6,0,0.9,0.1,0.9,0.3c0,0.2-0.1,0.3-0.2,0.3c-0.1,0-0.5,0.3-0.9,0.7
			c-0.4,0.4-1.2,1.3-1.9,2c-0.7,0.7-1.2,1.5-1.2,1.7c0,0.7,0.9,0.6,2.2,0c0.7-0.4,1.5-0.7,1.8-0.8c0.7-0.2,1.8,0.2,1.8,0.6
			c0,0.3-1.3,1.7-2,2c-0.4,0.2-0.3,0.3,0.6,0.4c0.6,0.1,1.3,0.1,1.6-0.1c0.6-0.2,2.7-2.5,3.5-3.8c0.5-0.9,1.5-0.9,1.5-0.1
			c0,0.3-0.1,0.6-0.3,0.6c-0.2,0-0.9,0.8-1.7,1.7C135.2,166.3,134.8,166.4,131.9,166.2z M137.1,165.4c1.3-1.4,2.3-2.8,2.3-3
			c0-0.3,0.2-0.4,0.9-0.4c0.5,0,0.9,0.1,0.9,0.2s-0.6,0.9-1.4,1.7c-2.1,2.1-3.7,4.1-3.7,4.5c0,0.5,1.1,1.1,1.7,0.9
			c0.4-0.1,0.6-0.4,0.7-0.8c0.1-0.5,0.3-0.7,0.7-0.8c0.8-0.2,1.1,0.1,1,0.7c-0.2,0.7,0,0.7,0.9-0.1c1.4-1.2,1.6-0.8,0.5,0.8
			c-0.5,0.8-0.7,1.2-0.6,1.6c0.3,1.3,2.9,1.8,4,0.7c0.4-0.4,0.6-0.8,0.6-1.6c0-1.3,0.3-2,0.9-2c0.4,0,0.4,0.1,0.3,1.7
			c-0.2,2.2-0.2,2.2-1.4,2.9c-1.3,0.8-3,0.9-4.3,0.2c-1.1-0.6-1.3-1.1-1.3-2.4v-1.1l-0.9,0.6c-1.1,0.7-2.4,0.8-3.5,0.1
			C134.2,169,134.4,168.4,137.1,165.4z M135.9,170.9c-0.1,0.5-0.6,0.7-0.8,0.3c-0.2-0.3,0.1-0.7,0.5-0.7
			C135.8,170.5,135.9,170.7,135.9,170.9z M172.3,173.7c-0.4,1.1-2.8,2.6-4.6,2.8c-0.6,0.1-1.4,0-2.2-0.3c-1.1-0.4-1.5-0.4-3.9-0.2
			c-2.5,0.2-2.7,0.2-3-0.2c-0.2-0.3-0.6-0.4-1.3-0.4c-0.5,0-1.7-0.1-2.5-0.1c-1.5-0.1-1.6-0.2-1.6-0.8c0-0.8,0-0.8-1.7-1l-1.3-0.2
			l-1.2,1.3c-0.7,0.8-1.6,1.5-2.3,1.8c-1.5,0.6-3.8,0.8-5.7,0.3c-1.8-0.4-2.5-0.8-2.7-1.6c-0.2-0.8,0-0.9,0.9-0.6
			c3.6,1.5,5.4,1.6,7.5,0.5c1.5-0.7,1.7-1.3,0.8-1.7c-1.3-0.6-0.8-2.2,1.1-3.5c1.2-0.8,2.3-0.2,2.3,1.2c0,1.6,0.6,1.9,2.7,1.4
			c0.8-0.2,1.1-0.2,1.3,0c0.2,0.2,0.2,0.4,0,0.8c-0.3,0.4-0.2,0.5,0.1,0.9c0.4,0.4,0.6,0.5,2.7,0.3c1.9-0.1,2.3-0.1,2.3,0.2
			c0,0.6,0.5,0.6,1.7,0.1l1.3-0.5l0.6,0.5c0.4,0.3,0.6,0.4,0.7,0.3c0.2-0.4,1.4-0.3,2.3,0.1c0.5,0.3,1,0.3,1.6,0.2
			c0.9-0.1,3-1.1,3.3-1.5c0.1-0.1-0.2-0.4-0.5-0.7c-0.5-0.4-0.8-0.5-1.9-0.4c-1.1,0.1-1.2,0.1-1.2-0.3c0-0.6,0.9-1.2,1.8-1.2
			c0.4,0,1.3,0.2,1.9,0.4c0.6,0.2,1.7,0.5,2.4,0.6c1.7,0.2,1.6,0.6-0.2,1C173,173.4,172.3,173.6,172.3,173.7z M181.6,175
			c-0.4,0.5-0.9,0.9-1.6,1.1c-0.5,0.1-1.1,0.3-1.2,0.3c-0.1,0-0.3,0.4-0.4,0.9c-0.1,0.4-0.3,1-0.5,1.1c-0.5,0.4-1.9,0.7-2.4,0.4
			c-0.2-0.1-0.4-0.6-0.4-1.1l-0.1-0.9h-1.3h-1.3v-1.1c0-1.3,0.4-1.6,0.8-0.7c0.3,0.7,0.9,0.7,2.1,0.1c0.7-0.4,1.2-0.5,1.9-0.4
			c3.3,0.5,3.1,0.5,3.6-0.2c0.3-0.4,0.4-1,0.4-1.8c0-1.5-1.3-5.3-2-6.2l-0.6-0.7l0.6-0.7c0.7-0.9,0.9-0.9,1.1-0.1
			c0.1,0.3,0.6,1.9,1.1,3.6C182.4,172.3,182.5,173.8,181.6,175z M195.3,160.6c0.7-1.5,1.7-2.2,3.2-2.4c1.1-0.2,2.4-0.8,2.6-1.4
			c0.1-0.2,0-0.6-0.1-0.8c-0.4-0.6-0.3-1.8,0.1-2c0.6-0.2,1,0.6,1,1.9c0,1.5-0.6,2.4-2.3,3.2c-1.2,0.6-1.5,1-1.3,2.1
			c0.1,0.6,0,0.9-0.4,1.4c-0.5,0.6-0.7,0.7-1.8,0.6c-1,0-1.4,0.1-1.8,0.4c-0.5,0.4-0.5,0.6-0.5,2.4c0,1.6-0.1,2.1-0.6,3.2
			c-0.7,1.4-2.1,2.8-3.3,3.4c-1.4,0.7-1.4,0.1,0-1.1c2-1.7,2.8-3.1,3.3-5.7c0.2-1,0.1-1-2.2-1.2l-1.3-0.2l0.1,1.5
			c0.1,1.3,0,1.6-0.6,2.4c-1.1,1.6-2.4,1.9-5,1.5c-0.4-0.1-0.5,0-0.5,1.5c0,2.1-0.5,2.3-0.6,0.3c-0.1-1.5-1.1-4.4-1.7-5.1
			c-0.3-0.3-0.3-0.5,0.1-1.3c0.6-1.2,1.1-1.1,1.3,0.2c0.3,2,0.9,2.6,1.2,1.1c0.2-0.9,0.8-0.9,0.8-0.1c0,0.9,0.6,1.9,1.3,2.1
			c1.3,0.3,2.6-0.8,2.6-2.3c0-0.3-0.3-1-0.7-1.6c-0.7-1.1-0.9-1.8-0.4-2.2c0.5-0.5,1-0.3,1.5,0.6l0.4,0.9l0.3-0.9c0.6-2,2-2.4,3.6-1
			C194.3,162.8,194.1,162.9,195.3,160.6z"/>
		<path fill="#CF1126" d="M202.6,151.2l-0.2-0.1c0.1,0.1,0.1,0.2,0.2,0.3L202.6,151.2z"/>
		<path fill="#FFCC00" d="M180.1,165c-0.2-0.8-0.4-0.7-1.1,0.1l-0.6,0.7l0.6,0.7c0.8,0.9,2,4.7,2,6.2c0,0.8-0.1,1.4-0.4,1.8
			c-0.4,0.7-0.2,0.7-3.6,0.2c-0.7-0.1-1.2,0-1.9,0.4c-1.2,0.6-1.8,0.6-2.1-0.1c-0.4-0.9-0.8-0.6-0.8,0.7v1.1h1.3h1.3l0.1,0.9
			c0.1,0.5,0.3,1,0.4,1.1c0.4,0.3,1.9,0,2.4-0.4c0.2-0.2,0.5-0.7,0.5-1.1c0.1-0.4,0.3-0.8,0.4-0.9c0.1,0,0.7-0.2,1.2-0.3
			c0.7-0.2,1.2-0.5,1.6-1.1c0.9-1.2,0.8-2.8-0.4-6.5C180.7,166.9,180.2,165.3,180.1,165z M176,177.4c-0.5-0.7-0.3-1.3,0.5-1.3
			c0.4,0,0.7,0.2,0.8,0.6C177.8,177.9,176.7,178.4,176,177.4z"/>
		<path fill="#D40000" d="M176.5,176.1c-0.8,0-1,0.5-0.5,1.3c0.7,1.1,1.8,0.5,1.3-0.7C177.1,176.2,176.9,176.1,176.5,176.1z"/>
		<path fill="#FFCC00" d="M173.9,172.3c-0.7-0.1-1.8-0.4-2.4-0.6c-0.6-0.2-1.5-0.4-1.9-0.4c-0.9,0-1.8,0.6-1.8,1.2
			c0,0.4,0.1,0.4,1.2,0.3c1-0.1,1.3,0,1.9,0.4c0.4,0.3,0.6,0.6,0.5,0.7c-0.2,0.4-2.3,1.3-3.3,1.5c-0.6,0.1-1.1,0-1.6-0.2
			c-0.8-0.4-2-0.5-2.3-0.1c-0.1,0.2-0.4,0.1-0.7-0.3l-0.6-0.5l-1.3,0.5c-1.3,0.5-1.7,0.5-1.7-0.1c0-0.3-0.4-0.3-2.3-0.2
			c-2.1,0.1-2.3,0.1-2.7-0.3c-0.4-0.4-0.4-0.5-0.1-0.9c0.2-0.4,0.2-0.5,0-0.8c-0.2-0.2-0.5-0.2-1.3,0c-2.1,0.6-2.7,0.2-2.7-1.4
			c0-1.4-1.2-2-2.3-1.2c-1.9,1.3-2.4,2.9-1.1,3.5c0.9,0.5,0.7,1-0.8,1.7c-2.1,1.1-4,0.9-7.5-0.5c-0.9-0.4-1.1-0.2-0.9,0.6
			c0.2,0.8,0.9,1.2,2.7,1.6c1.9,0.4,4.2,0.3,5.7-0.3c0.7-0.3,1.6-1,2.3-1.8l1.2-1.3l1.3,0.2c1.7,0.2,1.7,0.2,1.7,1
			c0,0.6,0,0.7,1.6,0.8c0.9,0.1,2,0.1,2.5,0.1c0.7,0,1,0.1,1.3,0.4c0.3,0.4,0.5,0.4,3,0.2c2.3-0.2,2.8-0.2,3.9,0.2
			c0.7,0.3,1.6,0.4,2.2,0.3c1.8-0.2,4.3-1.7,4.6-2.8c0-0.1,0.7-0.4,1.4-0.5C175.5,172.9,175.6,172.5,173.9,172.3z M149.7,171.8
			c-0.2,0.5-1.1,0.5-1.2,0c-0.1-0.2,0-0.5,0.3-0.7c0.4-0.3,0.5-0.3,0.8,0C149.7,171.3,149.8,171.6,149.7,171.8z"/>
		<path fill="#CF1126" d="M148.8,171.1c-0.3,0.2-0.4,0.5-0.3,0.7c0.2,0.5,1.1,0.5,1.2,0c0.1-0.2,0-0.5-0.2-0.7
			C149.2,170.8,149.1,170.8,148.8,171.1z"/>
		<path fill="#FFCC00" d="M139,169.7l0.9-0.6v1.1c0,1.4,0.3,1.8,1.3,2.4c1.3,0.7,3,0.6,4.3-0.2c1.3-0.8,1.2-0.7,1.4-2.9
			c0.1-1.6,0.1-1.7-0.3-1.7c-0.6,0-0.9,0.7-0.9,2c0,0.8-0.1,1.2-0.6,1.6c-1,1-3.6,0.6-4-0.7c-0.1-0.4,0-0.8,0.6-1.6
			c1.1-1.6,0.9-2-0.5-0.8c-1,0.8-1.1,0.9-0.9,0.1c0.2-0.7-0.2-0.9-1-0.7c-0.4,0.1-0.6,0.4-0.7,0.8c-0.1,0.5-0.3,0.7-0.7,0.8
			c-0.6,0.2-1.7-0.4-1.7-0.9c0-0.4,1.6-2.3,3.7-4.5c0.8-0.8,1.4-1.6,1.4-1.7s-0.4-0.2-0.9-0.2c-0.7,0-0.9,0.1-0.9,0.4
			c0,0.2-1,1.6-2.3,3c-2.7,3-2.9,3.6-1.6,4.4C136.6,170.5,137.9,170.4,139,169.7z"/>
		<path fill="#FFCC00" d="M189.6,162.8l-0.3,0.9l-0.4-0.9c-0.4-0.9-1-1.1-1.5-0.6c-0.4,0.4-0.3,1.2,0.4,2.2c0.4,0.6,0.7,1.3,0.7,1.6
			c0,1.4-1.3,2.6-2.6,2.3c-0.7-0.2-1.3-1.1-1.3-2.1c0-0.8-0.6-0.8-0.8,0.1c-0.3,1.4-1,0.9-1.2-1.1c-0.2-1.3-0.7-1.4-1.3-0.2
			c-0.4,0.8-0.4,0.9-0.1,1.3c0.6,0.7,1.6,3.6,1.7,5.1c0.2,2,0.6,1.8,0.6-0.3c0-1.5,0-1.6,0.5-1.5c2.6,0.5,3.9,0.1,5-1.5
			c0.6-0.9,0.7-1.1,0.6-2.4l-0.1-1.5l1.3,0.2c2.3,0.3,2.4,0.3,2.2,1.2c-0.4,2.6-1.3,4-3.3,5.7c-1.4,1.2-1.4,1.8,0,1.1
			c1.2-0.6,2.6-2,3.3-3.4c0.5-1,0.6-1.5,0.6-3.2c0-1.7,0.1-2,0.5-2.4c0.4-0.3,0.9-0.4,1.8-0.4c1.1,0,1.3,0,1.8-0.6
			c0.5-0.5,0.5-0.8,0.4-1.4c-0.2-1.1,0-1.5,1.3-2.1c1.7-0.8,2.3-1.7,2.3-3.2c0-1.4-0.4-2.1-1-1.9c-0.4,0.2-0.5,1.3-0.1,2
			c0.1,0.2,0.2,0.6,0.1,0.8c-0.2,0.6-1.5,1.2-2.6,1.4c-1.4,0.2-2.4,1-3.2,2.4c-1.2,2.3-1,2.2-2,1.3
			C191.6,160.4,190.2,160.8,189.6,162.8z M197.2,160.6c0.4,0,0.6,0.5,0.3,1.3c-0.2,0.5-1,0.5-1.1-0.1
			C196.2,161.2,196.6,160.6,197.2,160.6z M192.7,163.2c-0.2,0.4-0.8,0.5-1.4,0c-0.6-0.4-0.3-1.1,0.4-1.1
			C192.4,162.2,192.9,162.8,192.7,163.2z"/>
		<path fill="#CF1126" d="M191.3,163.3c0.6,0.4,1.2,0.4,1.4,0c0.2-0.5-0.3-1-1-1C191,162.2,190.7,162.9,191.3,163.3z"/>
		<path fill="#CF1126" d="M197.5,161.8c0.3-0.7,0.1-1.3-0.3-1.3c-0.6,0-1,0.6-0.8,1.1C196.5,162.3,197.3,162.4,197.5,161.8z"/>
		<path fill="#FFCC00" d="M135.6,170.5c-0.4,0-0.7,0.4-0.5,0.7c0.2,0.3,0.7,0.1,0.8-0.3C135.9,170.7,135.8,170.5,135.6,170.5z"/>
		<path fill="#FFCC00" d="M153.5,169.4c0.3,0,0.5-0.1,0.5-0.5c0-0.3-0.1-0.5-0.4-0.4C152.9,168.6,152.9,169.4,153.5,169.4z"/>
		<path fill="#FFCC00" d="M137.3,163.7c0.8-0.9,1.6-1.7,1.7-1.7c0.2,0,0.3-0.3,0.3-0.6c0-0.8-1-0.8-1.5,0.1
			c-0.8,1.2-2.9,3.6-3.5,3.8c-0.3,0.1-1,0.2-1.6,0.1c-0.9-0.1-1-0.2-0.6-0.4c0.6-0.3,2-1.7,2-2c0-0.4-1.1-0.7-1.8-0.6
			c-0.3,0.1-1.2,0.4-1.8,0.8c-1.2,0.7-2.2,0.7-2.2,0c0-0.2,0.5-0.9,1.2-1.7c0.7-0.7,1.5-1.6,1.9-2c0.4-0.4,0.8-0.7,0.9-0.7
			c0.1,0,0.2-0.2,0.2-0.3c0-0.2-0.3-0.3-0.9-0.3c-0.8,0-0.9,0.1-1.4,1c-0.3,0.6-0.9,1.4-1.4,1.8c-0.7,0.6-1,0.7-1.6,0.6
			c-1.2-0.2-1.9-0.8-1.9-1.6c0-0.4-0.1-0.7-0.3-0.8c-0.5-0.2-1.3,0.3-1.3,0.8c0,0.8,0.3,1.2,1.6,1.9c1.2,0.6,1.4,0.8,1.4,1.4
			c0.1,0.7,0.1,0.8,0.7,0.7c0.9-0.1,1.3,0.8,0.8,1.7c-0.4,0.8-0.5,2.1-0.2,2.1c0.1,0,0.5-0.4,0.8-0.8l0.6-0.8l2.4,0.2
			C134.8,166.4,135.2,166.3,137.3,163.7z M130.8,165.2c-0.5,0.3-0.9,0.2-0.9-0.1c0-0.4,0.2-0.4,0.8-0.2
			C131,165,131,165.1,130.8,165.2z M130.8,164.1c0-0.2,1-0.7,1.4-0.7c0.5,0,0.2,0.6-0.3,0.8C131.2,164.3,130.8,164.3,130.8,164.1z"
			/>
		<path fill="#CF1126" d="M130.7,164.9c-0.6-0.2-0.8-0.2-0.8,0.2c0,0.4,0.4,0.4,0.9,0.1C131,165.1,131,165,130.7,164.9z"/>
		<path fill="#CF1126" d="M132.2,163.4c-0.4,0-1.4,0.5-1.4,0.7c0,0.2,0.4,0.2,1.1,0C132.4,164,132.7,163.4,132.2,163.4z"/>
		<path fill="#FFCC00" d="M145.7,166.1c0.3,0,0.5-0.2,0.5-0.4c0-0.5-0.9-0.4-1,0.1C145.1,166.1,145.2,166.2,145.7,166.1z"/>
		<path fill="#FFCC00" d="M185.6,162.6c0.2,0,0.4-0.3,0.5-0.5c0.1-0.5-0.6-0.8-0.9-0.4C184.8,162,185.1,162.7,185.6,162.6z"/>
		<path fill="#FFCC00" d="M124.4,155.5c-0.4-1.7-0.4-1.8,0.3-2c0.8-0.2,2.8,0.9,3.3,1.8c0.3,0.7,0.3,0.7-0.3,1.3
			c-0.6,0.6-0.6,1.3,0,1.3c0.5,0,2-1.4,2-1.9c0-0.7-1.6-2.3-2.9-2.9c-0.8-0.4-1.6-0.5-2.5-0.5c-1.6,0-1.9,0.3-1.4,2.3
			c0.5,2.2-0.2,2.5-2,0.8c-1.3-1.2-1.9-2.5-1.9-4.6c0-2.2,0.8-3.3,2.7-3.5c1.3-0.2,1.2-0.5-0.1-0.7c-1.9-0.3-3.5,1-4.1,3.2
			c-0.7,2.5,0.9,5.5,3.6,7.1c1.4,0.8,2,0.8,2.8,0.1C124.7,156.7,124.7,156.7,124.4,155.5z"/>
		<path fill="#FFCC00" d="M197,152.9c0.6,0.3,0.7,0.5,0.6,1c-0.2,0.9,0.2,1.2,0.7,0.6c0.2-0.2,0.3-0.5,0.3-0.8
			c0-0.3,0.3-0.8,0.6-1.3c0.3-0.4,0.6-0.9,0.6-1c0-0.4-0.7-0.4-1.3,0c-0.6,0.5-1,0.5-1,0c0-0.1,0.3-0.3,0.6-0.5
			c0.5-0.2,0.7-0.5,0.7-0.7l-1.4,0.2l-0.6-0.2c-0.2,0.3-0.4,0.7-0.4,1.1C196.2,152.4,196.3,152.5,197,152.9z"/>
		<path fill="#FFCC00" d="M202.5,152.8l0.1-1.5c-0.1-0.1-0.1-0.2-0.2-0.3l-1.5-1l-0.9,0.1C200.6,150.7,201.5,151.6,202.5,152.8z"/>
		<path fill="#CF1126" d="M247.7,104.1L247.7,104.1c-0.1-0.2-0.2-0.3-0.3-0.3c0,0,0,0,0,0l0.1,0.3l0.4,1c0,0,0-0.1,0-0.2
			C247.8,104.5,247.7,104.2,247.7,104.1z"/>
		<path fill="#CF1126" d="M107.1,164.5c0-0.3-0.1-0.4-0.2-0.6c-0.1-0.1-0.3-0.2-0.6-0.3c-0.5-0.1-1.1,0.2-1.7,0.4
			c-1.1,0.4-3.5,1.4-7.6,1.4c-2.1,0.1-3.7-0.5-5.3-1c-1.9-0.6-2.2-1.1-3.1-1.2c-0.9-0.1-1.9,0.7-1.6,1.7c0,0.1,0.2,0.3,0.4,0.5
			c0.1,0.1,0.3,0.2,0.5,0.4c0.5,0.4,1.3,0.7,2.2,1.1c1.8,0.7,4.4,1.2,7.3,1.2c-0.1,0-0.3,0-0.4,0c1,0,1.9,0,2.6-0.1
			c1.5-0.1,2.7-0.4,4-0.8C105.4,166.5,107,166.1,107.1,164.5z"/>
		<path fill="#CF1126" d="M77.8,111.6c0.6,3.7,1.5,7.9,2.5,10.4c1,2.3,3.1,4.4,5.2,6.3c2.1,1.9,4.1,3.5,4.8,5.2
			c0.1,0.3,0.2,0.7,0.3,1.3c0.1,0.6,0.1,1.4,0.2,2.3c0.1,1.8,0.1,4.1,0.2,6.6c0,3.9,0,8.2-0.1,11.7c0.1,0,0.2,0.1,0.3,0.1
			c0.5,0.2,1.1,0.5,1.7,0.8c1.3,0.6,2.9,1.2,4.5,1.1h0c3.3,0,4.8-1,5.9-1.4h0c0.2-0.1,0.4-0.1,0.7-0.2c0-3.1-0.3-24.9-0.3-28.7v0
			c0-1-0.9-2.4-2.2-3.5c-1.3-1.2-2.8-2.2-3.7-2.9l0,0l0,0c-0.5-0.5-1.6-1.6-2.6-2.7c-0.5-0.6-1-1.1-1.4-1.6c-0.4-0.5-0.6-0.8-0.8-1
			c0-0.1-0.2-0.3-0.5-0.6c-0.3-0.3-0.7-0.6-1-0.8c-0.4-0.3-0.8-0.5-1.2-0.6c-0.4-0.1-0.7-0.1-0.9,0.1c-0.2,0.1-0.3,0.4-0.3,0.8
			c0,0.4,0.2,1,0.4,1.5c0.5,1.2,1.3,2.5,1.8,3.2c0.4,0.5,0.7,1.3,1,2.2c0.3,0.9,0.6,2,0.8,2.9c0.2,0.9,0.3,1.6,0.3,2
			c0,0.1,0,0.2-0.2,0.4c-0.1,0.1-0.3,0.1-0.4,0.1c-0.1,0-0.2-0.1-0.2-0.1c-0.2-0.2-0.3-0.4-0.5-0.8v0l0,0c-0.3-0.7-1.4-1.6-2.8-2.4
			c-1.4-0.8-3.1-1.7-4.5-2.8c-0.3-0.3-0.4-0.7-0.5-1.1c-0.1-0.5-0.2-1.1-0.4-1.8c-0.4-1.4-1.2-3.4-3.4-5.9l-0.1-0.1l0-0.2
			c0-0.2,0.1-0.5,0.1-0.7c0.2-1.5-0.1-2.9-0.5-4.1l-1.7,0.9l-1,0.2c0.1,0.7,0.2,1.5,0.3,2.4C77.6,110.5,77.7,111.1,77.8,111.6z"/>
		<path fill="#CF1126" d="M81.2,110.8c0,0.2,0,0.4-0.1,0.5c2.1,2.5,3,4.6,3.4,6.1c0.2,0.8,0.3,1.4,0.4,1.8c0.1,0.4,0.2,0.7,0.3,0.7
			c1.3,1,3,1.9,4.4,2.7c1.2,0.7,2.3,1.3,2.8,2.2c0-0.2-0.1-0.3-0.1-0.5c-0.1-0.5-0.3-1.1-0.4-1.6c-0.2-0.6-0.9-1.4-1.7-2
			c-0.8-0.6-1.7-1.1-2.3-1.2l-0.3-0.1l0-0.3c0-0.7-0.6-2.2-1.4-3.7c-0.8-1.5-1.8-2.9-2.6-3.4l-0.2-0.1l0-0.2c0-0.2,0-0.3,0-0.5
			c0-3.3-0.5-5.2-1.1-6.1l-1.8,1C81.1,107.5,81.4,109.1,81.2,110.8z"/>
		<path fill="#CF1126" d="M86.9,110.8c0.2-2-0.6-3.9-1.5-4.9c-0.4-0.5-0.9-0.7-1.1-0.7c-0.1,0-0.2,0-0.3,0.2
			c-0.1,0.1-0.2,0.3-0.3,0.7c0.4,1.2,0.7,3,0.6,5.4c0,0,0,0.1,0,0.1c1,0.7,1.9,2.1,2.7,3.5c0.7,1.4,1.3,2.8,1.4,3.7
			c0.7,0.2,1.6,0.7,2.3,1.3c0.2,0.2,0.4,0.3,0.6,0.5c-0.2-0.5-0.4-1-0.6-1.2c-0.6-0.8-1.4-2.2-1.9-3.4c-0.2-0.4-0.3-0.8-0.4-1.2
			c-0.6-0.6-1.2-1.7-1.4-2.8C86.8,111.6,86.8,111.2,86.9,110.8z"/>
		<path fill="#CF1126" d="M87.6,105.7C87.6,105.7,87.6,105.7,87.6,105.7c-0.2,0-0.3,0-0.4,0.1c-0.2,0.1-0.4,0.4-0.6,0.7
			c0.7,1.2,1.1,2.7,0.9,4.4v0v0c-0.1,0.4,0,0.8,0.1,1.2c0.1,0.5,0.4,1.1,0.6,1.5c0.1-0.3,0.3-0.6,0.6-0.8c0.3-0.2,0.7-0.3,1-0.2
			c0,0,0,0,0,0c-0.2-2.4-0.7-4.7-1.3-5.9C88.2,106,87.9,105.7,87.6,105.7z"/>
		<path fill="#CF1126" d="M92.6,126.1C92.6,126.1,92.6,126.1,92.6,126.1C92.6,126.1,92.6,126.1,92.6,126.1z"/>
		<polygon fill="#CF1126" points="103.9,156.5 103.9,156.5 103.9,156.5 		"/>
		<path fill="#CF1126" d="M100.7,157.6L100.7,157.6c0.1,0,0.2-0.1,0.3-0.1C100.9,157.6,100.8,157.6,100.7,157.6z"/>
		<path fill="#CF1126" d="M90.3,158.6c0.4,0.4,0.9,0.7,1.6,1.1c1.4,0.7,3.2,1.2,5.4,1.2c-0.1,0-0.2,0-0.3,0c2.2,0,3.4-0.2,4.9-0.9
			c1.3-0.6,2.4-1,2.5-2.6c0-0.3-0.1-0.4-0.2-0.6c-0.1-0.1-0.2-0.2-0.4-0.3c0,0,0,0,0,0c0,0,0,0,0,0c-0.4-0.1-0.8,0.2-1.2,0.4
			c-0.4,0.2-0.9,0.5-1.7,0.7c-0.1,0-0.1,0.1-0.2,0.1c-0.9,0.3-2.1,0.6-3.7,0.6c-1.6,0.1-2.7-0.5-3.9-1c-1.4-0.6-1.6-1.1-2.3-1.2
			c-0.7-0.1-1.4,0.7-1.2,1.7C89.7,157.9,89.9,158.2,90.3,158.6z"/>
		<path fill="#CF1126" d="M89,162.1c0.5,0.4,1.1,0.7,1.9,1.1c1.6,0.7,3.8,1.2,6.3,1.2c-0.1,0-0.3,0-0.4,0c2.6,0,4-0.2,5.8-0.9
			c1.5-0.6,2.9-1,2.9-2.6c0-0.3-0.1-0.4-0.2-0.6c-0.1-0.1-0.3-0.2-0.5-0.3c-0.5-0.1-1,0.2-1.5,0.4c-1,0.4-3.1,1.4-6.6,1.4
			c-1.8,0.1-3.2-0.5-4.6-1c-1.7-0.6-1.9-1.1-2.7-1.2c-0.8-0.1-1.6,0.7-1.3,1.7C88.3,161.4,88.5,161.7,89,162.1z"/>
		<path fill="#CF1126" d="M165.5,161.7c-0.5,0-0.5-0.6-0.1-1.5c0.5-1.1,0.1-2.5-1.3-4.5c-0.7-0.9-1.3-1.7-1.4-1.7
			c-0.1,0-0.9,0.9-1.7,2c-1.6,2.2-1.8,3-1,4.3c1.1,1.8-1.4,1.3-3.5-0.8c-1.1-1-1.6-1.3-2.2-1.3c-0.7,0-2.3-0.7-3.4-1.5
			c-0.7-0.5-0.7-0.1-0.1,1.3c1.9,4.1,5.7,6.9,10.2,7.4c0.8,0.1,2.3,0.1,3.3,0c3.4-0.3,5.6-1.5,7.9-3.9c1.2-1.3,3-4.4,2.8-4.7
			c-0.1-0.1-0.7,0.2-1.3,0.6c-0.7,0.4-1.8,0.8-2.4,1c-0.8,0.2-1.5,0.6-2.1,1.1C168,160.5,166.1,161.7,165.5,161.7z"/>
		<path fill="#CF1126" d="M164.4,136.8c0-1-0.8-2.8-1.5-3.2c-0.4-0.2-0.5-0.1-1.1,0.6c-0.4,0.4-0.7,1.2-0.8,1.7
			c-0.2,1.3-0.6,1.5-1.3,0.8c-0.7-0.8-2.1-1.5-2.9-1.5c-0.9,0-1,0.3-0.3,0.9c1.2,1.1,1.6,2.2,1.6,4.4c0,1.8-0.1,2.2-1.1,4.6
			c-1.5,3.7-1.9,5.5-1.9,8.2c0,2.2,0,2.4,0.7,3.8c0.7,1.4,1.9,2.7,2.6,2.7c0.1,0,0.2-0.3,0.2-0.8c0-0.4,0.3-1.3,0.6-1.9
			c0.9-1.7,3.1-4.7,3.4-4.7c0.2,0,0.5,0.2,0.7,0.5c0.2,0.3,0.9,1.2,1.5,2.1c1.1,1.5,2,3.7,1.7,4.1c-0.1,0.1-0.1,0.4,0,0.6
			c0.2,0.5,0.8,0.1,2-1.2c1.2-1.3,1.6-2.8,1.6-5.2c0-2.2-0.6-4.7-1.8-7.4c-1.3-2.8-1.5-3.6-1.5-5.3c0-1.8,0.6-3.2,1.8-4.4
			c1-1,1.1-1.4,0-1.2c-1.1,0.2-1.8,0.6-2.8,1.7C164.8,137.9,164.4,138,164.4,136.8z"/>
		<path fill="#CF1126" d="M158.9,134.8c0.7,0.5,1,0.6,1.3,0.4c0.2-0.1,0.3-0.4,0.3-0.6c0-0.4,1.8-2.4,2.2-2.4c0.4,0,1.6,1.4,2.2,2.5
			c0.3,0.5,0.5,0.9,0.6,0.9c0.1,0,0.5-0.3,1-0.6c1.2-0.8,1.7-2,1.8-4.6c0-0.5,0-1,0-1.5c-0.1-1.8-0.5-3.4-1.4-5.5
			c-1.4-3.3-0.9-6.1,1.4-8.7c0.5-0.6,0.9-1.1,0.8-1.3c-0.2-0.4-1.5-0.5-2.3-0.3c-0.4,0.1-1.2,0.7-1.6,1.2c-1,1.1-1.5,1.1-1.5-0.3
			c0-1.1-0.6-2.3-1-2.3c-0.5,0-1,0.9-1.2,2.3c-0.1,0.7-0.2,1.2-0.4,1.2c-0.1,0-0.5-0.3-0.8-0.7c-1-1.1-2-1.6-3.2-1.6
			c-0.6,0-1.1,0.1-1.1,0.1c0,0.1,0.5,0.7,1.1,1.4c1.6,1.8,2.2,3.1,2.3,5.2c0.1,1.6,0,1.9-0.8,4c-0.5,1.2-0.8,2.1-1,3
			c-0.3,1.2-0.5,2.2-0.5,3.4C157.2,132.5,157.7,134,158.9,134.8z"/>
		<path fill="#CF1126" d="M168.4,83.9c-1.5,0.8-2.9,2-3.3,2.9c-0.1,0.1-0.1,0.3-0.2,0.4v1.9l-3.5,0v-1.9c-0.3-0.2-0.6-0.5-1-0.9
			c-2.5-2.5-5.3-3.5-9.7-3.5c-4.8,0-8.5,1.4-13.1,4.8c-2.4,1.8-5.9,3.6-8.5,4.3c-1.6,0.5-2.4,0.5-5.3,0.5c-2.1,0-3.9-0.1-4.5-0.3
			c-0.6-0.2-1.1-0.2-1.1-0.2c-0.3,0.3,1.3,3,2.4,4c1.7,1.6,2.9,2.2,5,2.3c2.3,0.1,3.5-0.2,7.9-2.4c3.4-1.7,5.3-2.3,6.6-2.2
			c1,0.1,0.9,0.6-0.1,0.8c-2.2,0.4-3.2,0.7-6.4,2.3c-2.1,1-4.2,1.9-5.3,2.2c-1,0.3-1.9,0.5-2,0.6c-0.1,0.1,0.1,0.5,0.3,1
			c1.4,2.7,5.9,2.9,8.9,0.5c2.5-2.1,6.8-4.1,8.9-4.2c1.1,0,1.5,0.5,0.5,0.7c-3.1,0.7-7,2.5-9.1,4.3c-0.5,0.4-1.2,0.9-1.6,1.2
			c-0.4,0.2-0.7,0.5-0.7,0.6c0,0.5,1.4,1.9,2.2,2.1c1.1,0.4,3.6,0.2,4.9-0.4c0.6-0.3,1.7-1,2.4-1.7c2.6-2.4,6-4.6,7-4.6
			c0.8,0,0.5,0.4-0.7,1.1c-1.6,0.8-4.7,3-5.7,4.1c-0.4,0.5-1.1,1.1-1.6,1.3c-0.9,0.6-0.9,1.1-0.2,2c1.5,1.8,4.9,1.5,8.4-0.9
			c0.6-0.4,2.4-2.1,4.1-3.8c2-2.1,3-2.9,3.2-2.8c0.2,0.2-0.1,0.7-1,1.7c-1,1.3-1.2,1.6-1.2,2.4c0.1,1.6,1,2.1,2.8,1.5
			c1.2-0.3,1.3,0,0.5,1.2c-0.6,0.8-0.7,1.2-0.7,2.1c0,1.7,0.4,2.5,1.6,3.4c0.6,0.4,1.1,0.8,1.1,0.8c0,0,0.3-0.5,0.7-1
			c1.1-1.7,2-1.7,3.1,0c0.3,0.5,0.7,0.8,0.8,0.8c0.1,0,0.7-0.4,1.2-0.8c1.7-1.4,1.9-3.5,0.5-5.2c-0.9-1.1-0.7-1.5,0.7-1.1
			c1.4,0.4,2,0.1,2.4-0.8c0.5-1.1,0.2-1.8-1-3.2c-1-1.1-1.3-1.8-0.8-1.8c0.1,0,1.4,1.2,2.9,2.8c3.8,3.9,6.2,5.4,9.2,5.7
			c1.5,0.2,2.7-0.2,3.4-1.2c0.7-0.9,0.7-1.4,0.1-1.8c-0.3-0.1-1.1-0.8-1.8-1.5c-1.5-1.4-3.6-2.9-5.6-3.9c-1.5-0.8-1.9-1.3-1.1-1.3
			c1.1,0,4.4,2.1,7.9,5.1c0.8,0.6,1.5,1.1,2.3,1.4l-0.8-5l-0.6-2c-1-0.4-2-0.7-2.9-0.8c-0.7-0.1-1.1-0.3-1.1-0.6
			c-0.1-0.7,1.6-0.4,3.8,0.4l-0.6-2l-4.6-8.8l-1.5-3.7C174.1,82.4,170.6,82.8,168.4,83.9z"/>
		<polygon fill="#CF1126" points="164.9,89.1 164.9,87.2 164.9,79 163,80.5 161.4,79.2 161.4,87.2 161.4,89.1 		"/>
		<path fill="#CF1126" d="M169.4,66.8c-1.4-0.3-3-0.3-4.6-0.3c0,0.5,0,0.9,0,1.3c0,0.4,0,0.8,0,1.2l-3.5,0c0-0.6,0-1.3,0-1.9
			c0-0.2,0-0.4,0-0.6c-0.9,0-1.8,0-2.6,0.1c-0.7,0-1.4,0.1-2.1,0.3c-1,0.2-2,0.5-2.8,1.1c0.1,2.7,11.8,4,17,1.2
			c0.6-0.3,1.1-0.7,1.5-1.1C171.5,67.3,170.5,67,169.4,66.8z"/>
		<polygon fill="#CF1126" points="167.7,58.1 173.6,56.2 164.2,51.4 164.3,60.2 172,64 		"/>
		<path fill="#CF1126" d="M164.2,51.2c0.8-0.2,1.3-0.5,1.3-1c0-0.3-0.2-0.6-0.7-0.8l-1.8,1.4l1.2,0L164.2,51.2z"/>
		<polygon fill="#CF1126" points="162,68.5 164.3,68.5 164.3,67.6 164.3,60.2 164.2,51.4 164.2,51.2 164.2,50.9 163.1,50.9
			162,51.8 162,67.2 		"/>
		<path fill="#CF1126" d="M171.7,69.2c-4.7,2.7-14,3-18.1-0.4c-0.4,4.7-1.5,7.9-3.2,11.5l3.9-3.7l2.7,3.3l3-3.3l3,2.8l2.9-2.9l3,3.5
			l2.6-2.9l4.5,3.2c-1.5-3.4-3.6-6.3-3.6-10.9c0-0.2,0-0.5,0-0.8C172.3,68.8,172,69,171.7,69.2z"/>
		<path fill="#FFCC00" d="M182.3,194.8c0.3,0,0.6-0.3,0.6-0.6v0c0-0.3-0.3-0.6-0.6-0.6c-0.3,0-0.6,0.3-0.6,0.6c0,0,0,0,0,0
			C181.7,194.5,182,194.8,182.3,194.8z"/>
		<path fill="#FFCC00" d="M184.5,194c0.3,0,0.6-0.3,0.6-0.6v0c0-0.3-0.3-0.6-0.6-0.6c-0.3,0-0.6,0.3-0.6,0.6v0
			C183.9,193.7,184.2,194,184.5,194z"/>
	</g>
	<path fill="none" stroke="#999999" stroke-width="0.25" stroke-linecap="round" stroke-linejoin="round" d="M324.4,168.7l-3.5-5.1
		l-8.4-7.9l-5.5-7.3L304,139l-1.3-10.1l0.1-9.4l1.9-9.4l0.3-4.1l-1-5.7l-15.6-45.1l-6-8.5l-3.1-2.1l-3.2-1.5l-2.2-2.2l-0.1-5.4
		l-0.1,0l-2.7-0.1l-2.2,0.3l-1.5,0.9l-0.5,1.8l1.4,4l2.1,3.7L270,49l-5.2,1.1l-5.3,2.9l-4.7,5.3l-4.4,2.8l-4.3-4.5v0l-1.7,18.9
		l1,19.4l2.1,9.3l7.8,18.6l2.8,9.4l2.9,23.5l1.9,3.4l3.2,2.1l13.6,5l5,1.1l7.1-0.7l2,0.7l3.7,3.1l2.5,1l4.6-0.2l2.1,0.8l4.3,2.9
		l5.5,2.4l5.2,0.2l3.4-3.8L324.4,168.7z M244.4,29.5l1.6-3.3l0.7-2.8l4-9.5l2-3.2l7.5-3.4l3.5-2.4l-0.4-3.1L258.7,0l-6,0.8
		l-30.9,12.8l-49.1,29.7l-28.9,22.9l-8.6,8.7l-3.7,6.9l-5,4.9L94.7,98.2l-16.5,9.3l-17.9,3.4l-60.4-2l0.1,0.1l15.5,7.4l13.1,2l5,2.6
		l7.8,6.1l5.9,2.2l2.8,1.8l1.8,4.9l1.5,0.7l3.7,0.1l1.7,0.7l0.5,1.6l0.2,1.9l0.8,1.6l2.5,2.8l1.4,2.6l1.8,6.7v6.7l3.3,4.9l1.6,10.7
		l-0.8,2.3l-3.3,2.9l-0.8,1.4l0.4,3.6l1.1,2.2l8.2,0.6l10.4,2.1l9.7-1.8l4.4,0.3l3,3.1l5,15.1l2.3,4.7l3.4,4.6l15,13.9l5.1,3.6
		l1.9,1.8l1.2,2.4l1.8,5.9l1.2,1.9l9.8,1.1l11.2-6.5l22-20.9l1.8-3.5l1.3-9.8l1.7-4.6l5.4-8.1l1.7-4.4l-0.8-4.2l-7.4,3l-0.2-4.9
		l1.4-2.2l7.3-7l2.6-4.1l1.7-4l2.2-9l0.6-6.8l-1.8-1.2l-3.5,0.6l-4.7-1.7l-4.3-6.7l-1.4-8.7l-1.1-27.9l-0.8-5.3l-1.4-4.9l-4.6-8.8
		l-1.8-4.4l0.1-3.9l2.4-2.2l8.7-3.7l4.1-2.5l7.7-7.3l4.3-2.7l5.4-1.5l4.4,0.2l4.4,0.7l4.2-0.1l3.8-2.3l1.5-3.6l0.2-4l0.7-3.7
		l5.5-5.4l-0.1-0.1l2.4-3.8L244.4,29.5z"/>
</g>

</svg>
