<?xml version="1.0" encoding="utf-8"?>

<svg version="1.2" baseProfile="tiny" xmlns="http://www.w3.org/2000/svg" xmlns:xlink="http://www.w3.org/1999/xlink" x="0px"
	 y="0px" viewBox="323.8 171.5 192.1 250" xml:space="preserve">

<g id="Bonaire">
	<g>
		<path fill="#FFFFFF" d="M416.7,313.9h1.4l3.5,2.9l0.7-0.7l4.3,0l2.8-1.4l3.2-3.3v-1.4l0.7-0.7v-4.3l-0.7-0.7v-1.4l-2.1-2.2v-0.7
			l-1-0.3l-2.2-2.2h-2.1l-0.3-0.1c-2,6-5,11.5-8.8,16.4L416.7,313.9z"/>
		<path fill="#FFFFFF" d="M514.5,260l0.7-0.7l0.7-6.5l-3.9-3.9l-1.4,0l-3.5-2.1h-2.8l-0.7-0.7l-4.2,0.7l-0.7-0.7h-2.8l-0.7,0.7
			l-1.4,0l-0.7,0.7h-3.5l-2.8-1.4l-3.6,0l-0.7-0.7l-7.8-0.7l-0.7-0.7h-2.1l-0.8-0.7h-2.8l-3.5-2.2h-1.4l-2.8-1.4l-3.5-0.7l-0.8-0.7
			l-3.5,0l-0.7,0.7h-2.1l-0.7,0.7l-2.8,0l-3.9-2.5l0-2.1l-1.4-2.2l-0.4-1.8h-1.4l-6.4-3.6h-1.4l-0.7-0.7l-2.1,0l-0.7-0.7l-2.1,0.1
			l-0.7-1.5l-1.4,0l-1.4-1.5H421l-4.2-2.1l-1.4-1.4h-1.4l-1.4-1.4l-2.1-0.8l-1.8-1.8v-0.7l-3.9-3.3l-2.8-0.7l-1.4-2.2h-1.4l-2.1-1.5
			h-1.4l-1.4-2.1h-0.8l-0.7-1.4H392l-1.4-2.1l-2.1-1.4l-2.5-1.1l-1.5-3l-53.9,35.9l0.3,0.3l0,10.6c8.7-9.8,20.8-16.4,34.5-18.1
			l6.9-11.9l6.9,11.9c25.1,3.1,45.1,23.1,48.2,48.2l11.9,6.9l-8.2,4.7l1.5,2.6l0,2.2l4.9,6.5l0,5.1l5.7,5l1,2l70.1-46.8L514.5,260z"
			/>
		<path fill="#FFFFFF" d="M408.2,299.4l-1,1.2l-1.4,3.6l-3.6,4.3l0,2.9l1,1.8l3.5-0.7l0.7-0.7l0.9,0c4.1-4.6,7.3-9.9,9.5-15.7
			l-6,2.7L408.2,299.4z"/>
		<path fill="#FFFFFF" d="M372.3,231c-14.7,0-27.9,6.6-36.7,16.9l0.7,0.2l0.6,0.7h1.4l0.7,0.8h2.1l2.9,2.1l14.8,0l0.7,0.7h1.4
			l0.7-0.7h7.5l3.1-5.4l3.1,5.4h6.7l2.1,1.5h2.8l0.7,0.7h2.8l3.5,2.9l2.1-0.7l3.6,2.2h2.1l2.8,1.4l2.1-0.7l0.6,0.7h0.7l4.3,4.3
			l2.1,0.7l4.2,4.4l0.8,0.4C415.1,247.6,395.6,231,372.3,231z"/>
		<polygon fill="#012A87" points="504.7,278.9 506.8,275.9 506.8,270.9 508.9,266.5 513.9,262.9 514.3,260.8 444.2,307.6
			444.6,308.5 444.6,309.9 446,312.8 446,315.7 446.7,316.4 446.8,321.5 442.8,326.2 442.1,326.2 437.5,330.9 436.8,333.8
			432.6,338.8 431.1,341 431.1,345.3 433.3,348.9 434.7,349.7 434.7,350.4 438.2,354.7 438.9,358.3 439.6,359 439.6,361.9
			440.4,362.7 441,367 441.8,367.7 441.7,370.6 442.4,371.3 442.4,373.5 443.2,374.2 442.5,382.9 441.7,383.6 441.7,391.5
			442.4,392.3 442.4,393 444.2,394.8 445.6,394.8 448.4,396.2 453,400.9 453.8,403.1 455.2,405.2 455.2,406.7 457.3,411
			460.5,414.3 465.4,416.5 465.7,417.5 469.7,421.5 473.2,421.5 473.9,420.8 478.1,420.1 479.5,418.6 482.4,417.9 484.8,415.4
			486.9,410.3 488.4,408.9 490.5,403.8 491.2,398 490.5,397.3 490.4,387.9 488.4,384.3 488.4,382.9 487,381.4 487,379.9
			486.2,379.2 486.2,376.4 485.5,375.6 485.5,371.3 484.8,370.6 484.8,365.6 483.4,364.8 482.7,362.6 481.3,361.2 481.3,359.8
			480.9,359.4 479.2,359.8 479.2,361.2 479.9,361.9 479.1,363.4 479.9,364.1 478.1,364.5 475.6,363.4 476.3,362 476.3,359.8
			475.7,359 476.3,355.4 477.8,353.9 477.8,348.2 477.1,347.5 477.1,344.6 477.8,343.9 477.1,342.4 478.5,339.6 478.5,338.1
			480.3,336.3 481.7,336.3 482.4,335.5 483.8,335.5 484.5,336.3 488,335.6 491.2,338.8 492,341 491.2,341.7 492.3,342.8
			493.7,342.8 494.8,343.8 495.5,346.8 497.6,348.2 497.6,349.6 496.5,351.5 495.1,350.7 493.7,352.2 492.9,351.5 491.9,351.8
			492.6,354 495.8,354.3 499.4,352.2 502.2,350.7 510.3,342.4 511.7,339.5 513.8,337.4 514.5,334.5 515.9,332.3 516,320.8
			514.5,318.6 513.9,315 510.3,307.8 509.6,304.1 508.1,301.3 507.5,297.6 506.8,296.9 506.8,294 506,292.6 505.4,291.9
			505.4,289.7 504,287.5 504,285.3 503.2,284.6 504,283.9 503.9,281 504.7,280.3 		"/>
		<polygon fill="#012A87" points="476.7,363 477.1,362.7 476.7,362.3 476.3,362.7 		"/>
		<polygon fill="#F9D90F" points="382.4,191.4 380.4,189.2 380.4,188.5 378.2,186.4 378.2,183.5 372.9,178 371.5,178 370.8,176.6
			367.3,176.6 365.2,175.2 361.7,175.2 360.2,173.7 356.7,173 355.3,171.5 350.4,171.5 346.8,175.1 343.6,177 343.6,178.4
			342.6,179.4 340.4,180.2 339,182.4 337.6,182.4 331.6,188.5 331.6,190 330.2,191.4 328.8,194.3 328.8,196.4 329.5,197.2
			329.5,202.2 328.1,204.4 328.8,205.9 328.8,208.8 329.5,209.5 329.5,212.4 328.5,213.4 325.6,214.2 323.8,216 323.8,218.2
			324.6,218.9 324.6,222.5 325.3,223.9 328.1,226.8 330.2,231.2 330.6,231.6 384.5,195.7 		"/>
		<path d="M410.3,311.7l0.8,0.7l3.5,0l1.6,1.1c3.8-4.9,6.8-10.4,8.8-16.4l-2.6-1.3l-4.3,0l-0.3,0.1c-2.1,5.9-5.4,11.2-9.5,15.7
			L410.3,311.7z"/>
		<path d="M427.4,272.6c-3.1-25.1-23.1-45.1-48.2-48.2l-6.9-11.9l-6.9,11.9c-13.6,1.7-25.8,8.4-34.5,18.1l0,0.3l0.8,0.8v2.1l1.8,1.8
			l2.1,0.6c8.9-10.4,22.1-16.9,36.7-16.9c23.3,0,42.8,16.6,47.4,38.5l4.8,2.4l4.6,4.7v2.1l0.7,0.7l0,2.2l1.4,2.4l8.2-4.7
			L427.4,272.6z"/>
		<polygon fill="#DC171D" points="369.1,251.7 375.4,251.7 372.3,246.3 		"/>
	</g>

		<path fill="none" stroke="#999999" stroke-width="0.25" stroke-linecap="round" stroke-linejoin="round" stroke-miterlimit="10" d="
		M432.6,309.9l0.7-0.7v-4.3l-0.7-0.7v-1.4l-2.1-2.2v-0.7l-1-0.3l-2.2-2.2h-2.1l-2.9-1.4l-4.3,0l-6.3,2.9l-3.6,0.7l-1,1.2l-1.4,3.6
		l-3.6,4.3l0,2.9l1,1.8l3.5-0.7l0.7-0.7l2.8,0l0.8,0.7l3.5,0l2.1,1.5h1.4l3.5,2.9l0.7-0.7l4.3,0l2.8-1.4l3.2-3.3V309.9z M513.9,315
		l-3.6-7.2l-0.7-3.6l-1.4-2.8l-0.7-3.6l-0.7-0.7l0-2.9l-0.8-1.4l-0.7-0.7v-2.2l-1.4-2.1v-2.2l-0.7-0.7l0.7-0.7l0-2.9l0.8-0.7v-1.4
		l2.1-2.9v-5l2.1-4.4l5-3.6l0.6-2.9l0.7-0.7l0.7-6.5l-3.9-3.9l-1.4,0l-3.5-2.1h-2.8l-0.7-0.7l-4.2,0.7l-0.7-0.7h-2.8l-0.7,0.7
		l-1.4,0l-0.7,0.7h-3.5l-2.8-1.4l-3.6,0l-0.7-0.7l-7.8-0.7l-0.7-0.7h-2.1l-0.8-0.7h-2.8l-3.5-2.2h-1.4l-2.8-1.4l-3.5-0.7l-0.8-0.7
		l-3.5,0l-0.7,0.7h-2.1l-0.7,0.7l-2.8,0l-3.9-2.5l0-2.1l-1.4-2.2l-0.4-1.8h-1.4l-6.4-3.6h-1.4l-0.7-0.7l-2.1,0l-0.7-0.7l-2.1,0.1
		l-0.7-1.5l-1.4,0l-1.4-1.5H421l-4.2-2.1l-1.4-1.4h-1.4l-1.4-1.4l-2.1-0.8l-1.8-1.8v-0.7l-3.9-3.3l-2.8-0.7l-1.4-2.2h-1.4l-2.1-1.5
		h-1.4l-1.4-2.1h-0.8l-0.7-1.4H392l-1.4-2.1l-2.1-1.4l-2.5-1.1l-3.6-7.2l-2.1-2.1v-0.7l-2.1-2.1v-2.9l-5.3-5.4h-1.4l-0.7-1.4h-3.6
		l-2.1-1.4l-3.5,0l-1.4-1.4l-3.5-0.7l-1.4-1.5l-4.9,0l-3.6,3.6l-3.2,1.8v1.4l-1,1l-2.1,0.7l-1.4,2.2h-1.4l-6,6.1v1.4l-1.4,1.4
		l-1.4,2.9v2.1l0.7,0.7v5l-1.4,2.2l0.7,1.4v2.9l0.7,0.7v2.9l-1,1.1l-2.8,0.7l-1.8,1.8v2.2l0.7,0.7v3.6l0.7,1.4l2.9,2.9l2.1,4.3
		l0.7,0.7l0,10.8l0.8,0.8v2.1l1.8,1.8l2.8,0.7l0.6,0.7h1.4l0.7,0.8h2.1l2.9,2.1l14.8,0l0.7,0.7h1.4l0.7-0.7h20.5l2.1,1.5h2.8
		l0.7,0.7h2.8l3.5,2.9l2.1-0.7l3.6,2.2h2.1l2.8,1.4l2.1-0.7l0.6,0.7h0.7l4.3,4.3l2.1,0.7l4.2,4.4l5.6,2.8l4.6,4.7v2.1l0.7,0.7l0,2.2
		l2.8,5l0,2.2l4.9,6.5l0,5.1l5.7,5l1.4,2.9v1.4l1.4,2.9v2.9l0.7,0.7l0.1,5.1l-4,4.7h-0.7l-4.6,4.7l-0.7,2.9l-4.2,5.1l-1.4,2.1l0,4.3
		l2.2,3.6l1.4,0.7v0.7l3.6,4.3l0.7,3.6l0.7,0.7v2.9l0.7,0.7l0.7,4.3l0.7,0.7l0,2.9l0.7,0.7v2.2l0.7,0.7l-0.7,8.6l-0.8,0.7l0,8
		l0.7,0.7v0.7l1.8,1.8h1.4l2.8,1.4l4.6,4.7l0.7,2.2l1.4,2.1v1.4l2.1,4.3l3.2,3.3l4.9,2.1l0.4,1.1l3.9,4h3.5l0.7-0.7l4.2-0.7l1.4-1.5
		l2.8-0.7l2.5-2.5l2.1-5.1l1.4-1.4l2.1-5.1l0.7-5.8l-0.7-0.7l0-9.3l-2.1-3.7l0-1.4l-1.4-1.5v-1.5l-0.7-0.7v-2.9l-0.7-0.8l0-4.3
		l-0.7-0.7v-5l-1.4-0.7l-0.7-2.2l-1.4-1.4v-1.4l-0.3-0.4l-1.8,0.4v1.4l0.7,0.7l-0.7,1.4l0.7,0.7l-1.8,0.4l-2.5-1.1l0.7-1.4v-2.2
		l-0.7-0.7l0.7-3.6l1.5-1.5l0-5.7l-0.7-0.7v-2.9l0.7-0.7l-0.6-1.5l1.4-2.8v-1.5l1.7-1.8h1.4l0.7-0.7h1.4l0.7,0.7l3.5-0.7l3.2,3.2
		l0.7,2.2l-0.7,0.7l1.1,1.1h1.4l1.1,1.1l0.7,2.9l2.1,1.4l0,1.4l-1,1.8l-1.4-0.7l-1.4,1.4l-0.7-0.7l-1.1,0.3l0.7,2.2l3.2,0.4l3.6-2.2
		l2.8-1.4l8.1-8.4l1.4-2.9l2.1-2.1l0.7-2.9l1.4-2.2l0-11.6l-1.4-2.1L513.9,315z M476.7,363l0.4-0.3l-0.3-0.4l-0.4,0.4L476.7,363z"/>
</g>

</svg>
