<?xml version="1.0" encoding="utf-8"?>

<svg version="1.2" baseProfile="tiny" xmlns="http://www.w3.org/2000/svg" xmlns:xlink="http://www.w3.org/1999/xlink" x="0px"
	 y="0px" viewBox="250.1 149.2 340.1 295.8" overflow="visible" xml:space="preserve">

<g id="Belarus">
	<g>
		<polygon fill="#C8313E" points="589.6,315.5 589.1,315.5 588,315.9 587.6,315.8 587.4,315.1 587.7,314.7 587.8,314.2 587.3,313.9
			586.6,313.8 586,313.9 585.8,314.2 585.4,314.4 585.2,314.3 584.9,313.9 584.4,312.8 583.6,312.2 581.8,311.3 580.8,310.7
			579.9,309.8 579.3,308.6 579,306.9 578.9,305.8 578.9,305.3 579.2,305.1 581.8,303.7 582.1,303.2 582.2,302.8 582.1,302.3
			581.8,301.9 581.1,301 580.5,300.6 579.8,300.5 578,300.6 577.5,300.2 576.4,298.7 575.1,297.7 570.6,296.5 568.5,295
			567.7,294.8 560.2,296.8 557.2,295.7 555.7,295.7 556,294.2 557.4,292 558,290.4 558.6,287 559,285.6 559,285.2 559,284.7
			559.1,284.3 559.3,283.8 558.5,280.6 558.5,280.3 558.4,280.1 558.1,279.8 557.9,279.9 557,280.5 556.6,280.3 556.3,279.6
			556,278.7 555.7,278.1 555.3,277.6 554.9,277.4 553.9,277.3 552.9,277.1 549.9,275.5 548,275 547.1,274.6 546.2,273.8
			540.7,269.4 540.1,268.5 539.7,266.8 539.4,263.2 539.2,262.2 538.8,261.6 538.3,261.1 537.9,260.4 537.1,257.3 536.5,256
			535.4,255.7 535,254.9 532.4,254.1 531.3,253.3 532.2,250.6 534,247.8 535.1,245.4 533.7,244.2 532.8,242.5 529.8,242.2
			529,242.4 528.9,241.2 528.3,240.3 522.9,236.2 521.4,235.7 520.9,235.3 520.6,234.3 520.8,232.6 521.5,231.5 522.3,230.7
			522.8,229.7 522.9,228.1 522.5,227.2 522.4,226.6 523.3,225.8 525.4,225.4 526.1,224.9 526.7,223.7 526.6,222.9 526.1,222.3
			525.7,221.2 525.9,220.5 526.7,220.4 528.3,220.9 529.2,220.6 529.2,219.4 528.8,217.9 528.3,216.7 528,216.2 527.9,215.8
			528,215.3 528.3,214.9 528.4,214.3 528.4,213.9 528.2,213.7 528.1,213.4 528,213.3 527.6,213.2 527.5,213.1 527.4,212.8
			527.6,212.2 527.5,212 527.1,211.4 525.4,210.1 524.9,209.4 524.4,207.1 523.9,206.3 522.7,205.6 522,205.1 521.7,204.3
			521.8,203.1 522.3,202 523.5,200.2 525.6,198.6 526.1,197.9 526.1,196.6 525.6,195.8 525,195 524.7,193.9 524.9,192.9
			525.9,192.2 526.1,191.4 525.9,191.3 525.4,190.9 526.1,188.7 525.9,186.4 524.9,184.6 523.6,183.9 522,184.4 520.8,185.1
			519.8,184.9 518.7,182.9 518.4,181.9 518,181.3 517.5,181 516.1,181.2 515.3,181 514.6,180.5 514.1,179.6 514.1,179 514.3,178.6
			514.4,178 514.3,177.2 514,176.8 513.6,176.5 510.5,174.9 510.1,174.4 510.1,173.8 510.4,173.3 510.4,172.8 510.1,172.4
			503,170.1 502.4,169.6 501.2,168.5 500.5,168.3 499.7,168.7 498.1,170.3 497.2,170.6 493,169 491.5,168.9 490.1,169.3
			488.8,170.1 487.9,171.2 486.5,173.8 485.5,174.3 483.1,173.6 482.1,173.9 478.6,175.9 475.9,179.2 474.9,179.5 474.2,179.1
			472.5,176.5 470.7,175.1 470.2,174.1 470,172.8 470.2,171.8 471,169.7 471.2,169 471.4,167.5 471.5,166.9 471.8,166.4 472,166.2
			472.3,166 472.7,165.8 473,165.6 473.2,165.7 473.5,165.7 473.7,165.3 473.5,164.8 473.2,164.2 472.5,163.3 471.9,162.7
			471.3,162.3 465.8,160.8 464.7,159.9 463,158.6 461,157.9 458.9,157.9 457.1,158.6 455.1,159.9 452.8,160.9 451.9,161.9
			451.8,163.3 451,163.5 448.3,162.8 447.4,162 447,160.7 446.8,159.1 446.4,157.7 446.1,157 444.9,155.3 444.3,154.1 444,153.8
			443.4,153.5 441.4,153.1 436.1,153.7 435.3,154.3 434.1,156.1 433.3,156.6 432.5,156.4 431.8,155.6 430.7,154 428.2,151.3
			427.5,150.2 426.3,149.2 424.7,149.7 423.2,150.9 421.7,151.7 420.2,152 419.7,152.2 419.2,152.8 418.8,153.5 418.5,154.3
			418.1,155.1 415.7,157 414.5,158.2 414.4,159.7 413.2,161.7 409.7,164.1 408.7,166.9 408.5,169.9 408.1,171.2 407.8,172.2
			406.8,172.3 402.4,171.9 401.2,171.6 400.1,170.9 399.2,169.9 398.5,170.7 396.8,172.3 396.1,172.7 395.1,172.1 392.9,170.2
			392.1,169.8 390.7,169.6 386.1,170.1 385.2,170.7 383.2,173.2 381.1,176.9 380.4,177.8 377.5,179.3 376.7,179.3 374.9,178.6
			373.9,178.5 373.1,179 372.3,180.3 372.6,181.8 372.8,183.5 372.7,185.1 372.3,186.5 371.6,187.6 370.8,188.6 370.1,189.8
			369.9,191.3 370.6,192.7 370.5,193.4 369.2,194.7 368.9,195.3 368.4,197.7 368.1,198.2 367.3,199.8 366.9,201 367.1,201.6
			367.7,202 369.8,202.9 370.4,202.9 372.5,202.3 378.4,203.3 379.2,204 379.6,205 379.2,206.1 378.3,206.7 376,207.3 375.5,207.6
			374.5,208.7 373.9,209.5 373.6,210.1 373.4,211.8 373,213.7 372.4,214.6 371.6,214.7 367.9,213 367.4,213.1 367.1,213.4
			366.9,213.7 366.6,214 366.3,214.1 366,214.1 362,213.1 360.4,213.3 359.3,215.1 359.2,215.8 359.2,217.3 359.2,218.1 359,218.6
			357.7,221.5 356.5,223.4 356,224 354.7,224.7 350.3,225.6 349.7,225.6 348.4,225.3 347.7,225.3 346.4,225.9 346,226.2
			345.8,226.7 345.8,227.2 345.6,227.9 344.8,228.8 344,229.4 343.3,230.1 342.9,231.3 343,231.8 343.3,233 343.3,233.5 343.1,234
			342.9,234.1 342.7,234.1 342.3,234.3 341.6,235 341.2,235.6 341.1,236.4 341.2,239.5 341.2,240.1 341,240.8 340.9,241.3
			340.7,242 340.6,242.7 340.9,243.9 341.8,246.1 342,247.3 341.8,248.5 341.3,249.5 340.6,250.2 338.4,251.5 337.9,252.2
			337.5,253.4 337.4,255.1 337.4,256.3 337.2,257.5 336.6,258.8 335,260.8 334.3,262.1 334.3,263.7 334.8,264.5 335.5,264.8
			337.1,264.7 339.2,263.6 339.8,263.4 340.3,263.7 340.5,264.2 340.6,264.8 340.9,265.8 341.1,266.1 341.2,266.1 341.6,266
			341.8,266 342.2,266.4 342.5,266.9 342.7,267.4 343,268.1 343.1,268.3 343.3,268.3 343.5,268.5 343.5,268.8 343.5,269.1
			343,269.7 342.9,270 342.9,272.7 342.6,273.7 341.8,274.3 341.4,274.3 340,274.2 339.6,274.3 339,275.1 338.7,275.4 337.9,275.4
			334.7,274.9 333.7,274.4 332.9,273.6 332.7,272.6 332.9,272.1 334,271.7 334.2,271.3 334,270.8 333.2,270.4 333.1,269.8
			333.8,269.4 334.6,269.5 335,269.2 332.4,265.8 332.3,265.4 332,265.2 331.6,265.1 330.7,265.6 329.3,267.7 328.4,268.3
			325.5,268.4 323.3,267.6 322.6,267.7 322.2,268.5 321.5,271.4 320.9,272.6 319.4,274.3 317.9,275.3 316.3,275.5 313.4,274.5
			311.8,274.3 311.6,274.3 311.6,278 311.6,314 311.6,329.4 311.6,334.5 311.6,339.6 311.6,348.2 542,348.2 541.1,345.4
			540.5,344.3 537.8,342.1 538.6,341.3 540.4,338.4 540.8,338.3 541.7,338.1 542,337.7 542.1,337.1 542,336.5 541.9,335.8
			541.9,335.1 542.5,332.2 543.9,331.1 545.6,331.1 547.3,331.5 548.1,331.4 549.5,330.7 550.2,330.5 550.9,330.5 553,331.4
			553.8,331.5 555.3,331.5 556,331.9 556.4,332.9 556.8,335.4 557.4,336.3 557.7,336.4 559,336.3 559.4,336.4 561.3,337.5
			562.1,337.7 563,337.6 563.9,337.2 564.9,337 567.5,338 568.7,338 569.1,337.8 570,337.1 571.3,336.9 571.6,337 571.7,337
			571.9,336.8 571.9,336.6 571.9,336.2 572,335.9 572.1,335.6 572.2,335.4 574.1,335.5 575.1,334.5 576,333.2 577.2,332.2
			578.5,331.8 579,331.5 579.7,330.8 580.8,328.8 581.3,327.7 581.6,326.5 580.8,326.4 580.5,325.7 580.8,325 581.7,324.8
			582.6,325.3 583.7,325.4 584.9,325.2 585.8,324.6 585.7,324.4 585.3,323.9 585.2,323.7 587.7,323.1 588.3,323.3 588.8,323.6
			589.4,323.6 590.1,323.1 589.7,321.2 590.2,316.8 		"/>
		<polygon fill="#4AA657" points="311.6,349.9 311.6,360.1 311.6,370.4 311.6,375.5 311.6,390.9 311.6,396.1 311.6,407.1
			315.5,406.5 318.7,404.8 320.3,404.3 321.9,404.2 327.9,405.8 339.7,406 342.7,405.4 350.3,406.9 352.8,406.8 353.9,407
			356.2,409 357.3,409.4 365.6,409.8 366,410 366,410.4 365.9,410.9 366,411.5 366.4,412.1 366.9,412.4 374.7,412.6 381.5,415.6
			383.9,416 387.4,414.8 390.6,414.9 392,415.2 393,415.8 393.2,416.6 393.1,417.9 393.1,419.4 393.4,420.5 393.9,421 394.6,421.1
			395.4,421 396.5,421.3 396.4,422.2 395.8,423.5 395.6,424.5 396.1,424.9 396.9,424.8 398.3,424.4 400.4,424.7 401.1,424.7
			401.9,424.3 402.9,423.2 403.5,422.9 404.8,422.9 408.6,424.5 410.6,424.5 411.2,424.8 411.7,426 411.4,427.5 410.2,430.3
			410.5,430.8 411,431.3 411.5,431.8 412,432 412.6,431.9 413,431.5 414.6,429.3 414.8,429 415,428.2 414.9,427.6 414.9,426.9
			414.9,426.2 415.1,425.1 415.5,424.1 416.2,423.5 417,423.4 417.8,423.8 419.9,426.1 420.6,426.4 421.3,426.6 424.7,426.6
			425.4,426.4 426.3,425.6 427.3,423.5 428,422.4 428.8,421.8 429.6,421.3 430.3,421.4 430.8,422 431,422.6 431,423.1 431,423.6
			431.3,424.2 431.8,424.7 432.8,425.3 433.2,425.8 433.5,426.4 433.9,427.9 434.1,428.4 434.5,428.5 435,428.3 435.9,427.4
			437.7,426.2 438.7,425.9 439.6,425.9 442.8,426.5 443.8,426.9 444.1,427.7 444.2,428.8 444.7,432 444.9,432.8 445.3,433.4
			445.9,433.6 446.3,433.4 446.8,433.1 447.3,433.2 447.6,433.9 447.8,434.9 448.2,435.5 448.8,434.8 449,434 448.9,431.8
			449,430.9 449.7,429.3 450.7,428.1 451.8,427.2 452.9,426.6 454,426.4 456.1,426.4 457.1,426 457.8,425.2 458.6,423.4
			459.3,422.7 460,422.5 460.8,422.5 462.2,422.8 463,423.4 463.5,424.1 464.2,426.1 465.5,427.9 465.9,428.9 466,430.3
			465.7,431.8 465.9,432.4 466.5,432.9 467.2,433.7 467.6,434.9 467.9,436.1 468.4,437.1 469.2,437.6 469.9,437.3 471.3,436.1
			472.1,435.8 473.6,436.5 474.4,436.5 474.9,435.5 475.4,434.1 475.7,433.5 476.2,433.2 477.2,433.1 478,432.8 478.6,432.2
			479,431.4 479.9,430.6 480.6,430.3 481.4,430.2 482.2,430.3 482.8,430.7 483.4,431.8 483.7,432.6 484.2,433.2 487.4,433.8
			488,433.6 488.4,433.2 488.9,432.1 489.4,431.8 489.7,431.9 490.3,432.3 490.8,432.3 492.9,431.1 493.7,430.9 498.7,430.7
			499.7,431 500.7,431.8 502,433.6 502.5,434.1 504.3,435 504.8,435.5 505,435.9 505,436.3 505,436.7 505,437.3 505,437.8
			504.6,438.9 504.6,439 504.8,439.6 505.9,440.9 506.4,441.4 506.9,441.6 508,441.6 508.5,441.7 509,442.2 509.8,443.4
			510.4,443.6 510.9,443.5 511.4,443.7 511.8,444 512.2,444.4 512.5,445 512.9,444.9 513.1,444.5 513.1,443.2 513.2,443
			513.8,441.9 513.9,441.1 515,440.3 516,439.2 515.7,437.6 516.2,437.5 516.1,437.2 515.9,436.8 515.7,436.5 515.3,434.9
			515.2,434.5 514.7,434.2 514.3,434.2 514.1,434.1 513.9,433.4 514,432.7 514.3,432.3 514.7,432.2 515.2,432.3 515.2,431.9
			514.8,431.7 514.5,431.4 514.2,431 514,430.3 514.3,429.9 514.1,429.4 513.8,429 513.3,428.7 513.6,428.5 513.8,428.2
			514.1,427.6 513.5,427.3 512.3,426.9 511.9,426.4 511.9,426 512.1,425.9 512.2,425.7 512.4,425.6 512.6,425.6 512.6,425.2
			512.3,425 511.7,424.4 511.7,424 512.7,423.1 513.1,422.9 513,422.4 512.9,422.2 513.1,422 513.4,421.6 513.6,421.3 513.4,420.5
			513.8,419.3 513.6,418.6 514,418.4 515.2,418.4 515.6,418.2 515.8,417.7 515.8,417 516,416.3 516.4,415.8 516.4,415.4
			516.1,415.4 515.4,415 515.8,414.5 516.6,414 517.4,413.3 517.3,412.4 517.1,411.8 517.1,411.6 517.2,411.4 517.4,411 518.2,410
			518.3,409.8 518.5,409.6 518.6,409.2 518.9,408.9 519.6,408.5 519.7,408 519.7,407.4 519.8,407.1 520.1,407 521.1,407.1
			521.5,406.9 521.8,406.6 522.3,405.9 522.3,405.5 522.1,405.3 522,404.9 522,404.7 523,404.3 523.5,404 523.9,403.7 524.3,403.2
			524.7,402.7 524.7,402.3 524.8,402 525,401.6 525.4,401.4 525.6,401.3 525.8,401.4 526,401.7 527,401.7 527.3,400.9 526.9,400.1
			525.9,400 526,399.7 526.1,399.4 526.2,399.2 526.4,398.9 526.2,397.9 526.7,397.3 527.6,397 532.5,396.7 533.9,396.9
			534.7,397.4 536.4,398.8 537.2,399.1 538,398.7 538.6,397.7 539.1,396.6 539.8,395.6 542.6,394.5 545.9,394.5 552.1,395.7
			556.2,395.4 556.3,393.7 556.1,392.6 555.6,391.8 553.9,390.5 553.5,390.2 553.3,389.6 553.2,388.8 553.3,387.9 553.5,387.2
			553.9,386.7 553.3,386.4 552.1,386.1 551.4,385.9 550.8,385.4 550.2,384.8 549.2,383.2 549.6,382.8 550.1,382.2 550.3,381.5
			550.5,380.7 550.5,379.6 550.3,379 549.9,378.5 549.6,377.9 549.6,376.4 549.9,374.7 549.8,373.3 549,372.7 548.6,372.1
			548.5,371.6 548.8,371.1 549.4,370.8 548.9,370.1 548.8,369.9 549.3,369.8 550.6,370.1 551.1,370 551.3,369.4 550.8,368.8
			549.5,367.7 549.1,366.9 548,364.6 546.4,362.4 546,361.5 548.4,360.2 549.2,359 549.2,356.6 548.9,355.4 548.6,355 548.1,354.6
			547.6,354 547.3,353 547.2,352.2 547,351.8 546.1,351.6 545.1,351.3 543.9,350.5 542.8,349.5 542.1,348.3 542,348.2 311.6,348.2
					"/>
		<polygon fill="#FFFFFF" points="276.5,288.3 277.1,288.3 278.3,288.3 278.3,287 277.6,286.6 277,286.3 276.5,286.4 275.3,287.1
			275.3,288.3 		"/>
		<polygon fill="#FFFFFF" points="302.5,288.3 302.5,293.4 299.5,293.4 299.5,295.5 299.5,296.5 299.5,298.6 302.5,298.6
			302.5,303.7 305.5,303.7 305.5,308.8 308.5,308.8 308.5,314 311.6,314 311.6,278 308.5,278 308.5,280.4 308.7,280.9 309.1,282
			309,283.7 308.5,284.7 307.9,285 305.6,285.4 305.5,285.4 305.5,288.3 		"/>
		<path fill="#FFFFFF" d="M277.1,334.5h1.2v-5.1h3v-5.1h3v-5.1h3V314h3v-5.1h3v-12.3v-1V290l-0.2,0.1H292l-1.1-0.4l-1.2,0l-0.7-0.1
			l-0.4-0.6l-0.6-1.7l-1-1.2l-1.1-0.4l-1.2,0.2l-0.3,0.2v2.2h-3v5.1h-3v2.1v1v2.1h3v5.1h3V314h-3v-5.1h-3v-5.1h-1.2h-0.6h-1.2v5.1
			h-3v5.1h-3v-10.3h3v-5.1h3v-2.1v-1v-2.1h-3v-5.1h-1.8l-1.6,0.2l-1.7,0.8l-0.5,0l-0.6-0.2l-3.2-1.9l-1.2-0.3l0,1.8l0.4,1.5l0.5,1.4
			l0.4,1.5l0.3,3.2l0,0.1v-0.8v-2.1h3v2.1v1v2.1h-1.9l0.1,0.2l0.1,3.7l0.9,4.2l3,9.3l1.7,3.5l0.7,1.9l0.8,3h0.8v2.9l0.5,1.4l0.6,0.8
			h1.9v3.5l0.5,0.4l0.4,0.7l0,0.6h0.4H277.1z M287.4,296.5v-1v-2.1h3v2.1v1v2.1h-3V296.5z M275.3,324.2v-5.1h1.2h0.6h1.2v5.1h-1.2
			h-0.6H275.3z"/>
		<polygon fill="#FFFFFF" points="308.5,324.2 305.5,324.2 305.5,319.1 302.5,319.1 302.5,314 299.5,314 299.5,319.1 296.4,319.1
			296.4,324.2 293.4,324.2 293.4,329.4 290.4,329.4 290.4,334.5 287.4,334.5 287.4,339.6 284.3,339.6 284.3,344.7 287.4,344.7
			287.4,349.9 290.4,349.9 290.4,355 299.5,355 299.5,349.9 293.4,349.9 293.4,344.7 296.4,344.7 296.4,339.6 299.5,339.6
			299.5,334.5 302.5,334.5 302.5,339.6 305.5,339.6 305.5,344.7 308.5,344.7 308.5,349.9 311.6,349.9 311.6,348.2 311.6,339.6
			308.5,339.6 308.5,334.5 311.6,334.5 311.6,329.4 308.5,329.4 		"/>
		<path fill="#FFFFFF" d="M308.5,396.1v5.1h-3v5.1h-3v-5.1h-3v-5.1h-3v-5.1h3v-5.1h3v-5.1h3v5.1h3v5.1h3v-15.4h-3v-5.1h3v-10.3h-3
			v5.1h-3v5.1h-3v5.1h-3v5.1h-3v5.1h-3v-5.1h-3v-5.1h-3v-5.1h-3v-5.1h-3v-5.1h-3V355h-1.2h-0.1l0.1,3l-0.5,2.5l-1.4,1.7l-2.9,2v1
			h-1.5l-0.4,0.2l-1.2,0.3v4.5h-3v5.1h-3v5.1h-3v5.1h-3v-5.1h-3V378l-0.3,0.4l-1.4,1.7l-0.7,1l-0.7,1.4v3l0,0.1l0,0.2h2.9v2.7
			l0.2,0.1l0.5-0.2l0.5,0.5l2.2,0.8l0.8,0.1v0.4l-0.3,0.5l0.1,0.1l0.5-0.2l0.4,0.2l0.3,0.3l0.4,0l0.5-0.6l0.1,0.3l0.2,0.2h0.7
			l0.2-0.2l0.1,0.2h1.6v-5.1h3v-5.1h3v5.1h3v5.1h3v5.1h-3v5.1h-3v5.1h-2.9v1l-0.2,0.6l0.1,0h0l0,0v0.3l-0.4,0.2l-0.1,1.3l-0.4,0.5
			l0.5,1l0.1,0.2h0.2v0.3l0.4,0.5l-0.4,1.2v3.2h3v5.1h3v0.4l1.2,0.4l0.9,0.1l1.4,0.6l1,1.2l1,0.9l1.4-0.2l2.1-1.9v-1.5h1.7l1.4-1.2
			v-3.9h3v-5.1h3v-5.1h3v-5.1h3v5.1h3v1.5l3.2-0.3l2.2,0.5l0.8,0l6-1v-11.1H308.5z M275.3,370.4h1.2h0.6h1.2v10.3h-1.2h-0.6h-1.2
			V370.4z M278.3,416.6h-1.2h-0.6h-1.2v-10.3h1.2h0.6h1.2V416.6z M293.4,396.1h-3v5.1h-3v5.1h-3v-5.1h-3v-5.1h-3v-5.1h3v-5.1h3v-5.1
			h3v5.1h3v5.1h3V396.1z"/>
		<polygon fill="#C8313E" points="272.2,293.4 275.3,293.4 275.3,295.5 276.5,295.5 276.5,288.3 275.3,288.3 275.3,287.1 273.8,288
			273.5,288 273.2,287.9 272.5,287.6 272.3,287.5 271.7,287.8 271.1,288.2 270.4,288.3 272.2,288.3 		"/>
		<rect x="263.2" y="293.4" fill="#C8313E" width="3" height="2.1"/>
		<polygon fill="#C8313E" points="311.6,278 311.6,274.3 310.2,274.4 309,275.2 308.8,275.5 308.8,276 308.9,276.4 308.9,276.6
			308.2,277 307.9,277.4 307.7,277.4 307.6,277.6 307.8,278.5 308.2,279.8 308.5,280.4 308.5,278 		"/>
		<polygon fill="#C8313E" points="277.1,288.3 276.5,288.3 276.5,295.5 277.1,295.5 278.3,295.5 278.3,293.4 281.3,293.4
			281.3,288.3 284.3,288.3 284.3,286.1 282.5,287 281.4,287.4 279.2,287.4 278.6,287.2 278.3,287 278.3,288.3 		"/>
		<rect x="287.4" y="293.4" fill="#C8313E" width="3" height="2.1"/>
		<polygon fill="#C8313E" points="299.5,295.5 299.5,293.4 302.5,293.4 302.5,288.3 305.5,288.3 305.5,285.4 304.9,285.4
			304.4,284.9 303.9,283.7 303.8,283.6 303.7,283.6 303.5,283.6 302.7,284.2 300.4,284.7 298.6,285.7 294.6,289.4 293.4,290
			293.4,295.5 		"/>
		<polygon fill="#C8313E" points="260.7,391.1 260.9,391.3 261.3,390.9 260.6,390.9 		"/>
		<polygon fill="#C8313E" points="269.2,421.7 269.2,416.6 266.2,416.6 266.2,413.4 266.1,413.5 265.5,414.2 264.7,414.6
			264.1,415.4 264,415.8 263.9,416.4 263.6,417.7 263.8,418 264,418.4 264,418.7 263.7,418.9 263.6,419.1 263.7,419.4 264,419.8
			264.1,420.1 263.7,420.6 263.5,420.8 263.2,420.8 263.2,421.3 263.6,421.7 263.6,422.2 263.4,423.8 263.6,424.6 263.9,425.4
			264.7,426.7 264.2,426.7 264.3,427 266.1,427 266.1,429.1 266.1,429.2 266.5,429.1 266.6,428.2 266.5,427.7 265.6,424.9
			265.3,424.5 265.4,424 265.8,423.3 266.2,422.9 266.6,422.6 270.1,421.8 270.9,421.8 272.2,422.1 272.2,421.7 		"/>
		<rect x="275.3" y="370.4" fill="#C8313E" width="1.2" height="10.3"/>
		<rect x="275.3" y="406.3" fill="#C8313E" width="1.2" height="10.3"/>
		<polygon fill="#C8313E" points="266,411.5 266.2,411.7 266.2,411.5 		"/>
		<polygon fill="#C8313E" points="251.2,385.8 251.2,386.3 251,387.3 251.8,387.9 254.1,388.5 254.1,385.8 		"/>
		<polygon fill="#C8313E" points="269.2,401.2 272.2,401.2 272.2,396.1 275.3,396.1 275.3,390.9 272.2,390.9 272.2,385.8
			269.2,385.8 269.2,380.7 266.2,380.7 266.2,385.8 263.2,385.8 263.2,390.9 261.6,390.9 261.6,391.1 261.5,391.9 261.4,392.1
			262.4,394.1 263.1,394.3 264.8,394.2 265.4,394.6 265.7,395.1 265.8,395.6 266.1,395.9 266.3,396 266.3,391 269.3,391
			269.3,396.2 266.5,396.2 266.8,396.4 267,397.1 267,397.7 267.3,398.4 267.8,400.6 268.2,401.6 267.6,402 267.2,402.7
			266.5,404.3 266.3,405.4 266.3,406.3 269.2,406.3 		"/>
		<polygon fill="#C8313E" points="250.1,384.5 250.2,384.5 250.7,385 251.1,385.5 251.1,382.5 		"/>
		<polygon fill="#C8313E" points="276,334.5 276,335.4 275.7,336.2 275.2,336.9 274.9,337.7 274.8,338.9 275.1,339.9 276.2,341.3
			276.5,341.8 276.5,334.5 		"/>
		<rect x="275.3" y="319.1" fill="#C8313E" width="1.2" height="5.1"/>
		<polygon fill="#C8313E" points="276.5,346.8 276.4,346.9 276.3,347.4 276.3,348 276.5,348.4 		"/>
		<polygon fill="#C8313E" points="266.2,296.5 266.2,295.5 263.2,295.5 263.2,296.3 263.5,297.5 264.3,298.6 266.2,298.6 		"/>
		<polygon fill="#C8313E" points="273.4,329.4 273.4,329.4 273.8,330.2 274,331.1 274.5,332 275.1,332.7 275.3,332.9 275.3,329.4
			"/>
		<polygon fill="#C8313E" points="271.5,324.2 272.1,326.8 272.2,327.1 272.2,324.2 		"/>
		<polygon fill="#C8313E" points="257.1,380.7 257.1,385.8 260.1,385.8 260.1,380.7 263.2,380.7 263.2,375.5 266.2,375.5
			266.2,370.4 269.2,370.4 269.2,365.9 264.4,367.2 261.3,369 258.2,371.7 254.1,378 254.1,380.7 		"/>
		<polygon fill="#C8313E" points="272.2,364.3 270.8,365.3 272.2,365.3 		"/>
		<polygon fill="#C8313E" points="276.5,295.5 275.3,295.5 275.3,296.5 275.3,298.6 272.2,298.6 272.2,303.7 269.2,303.7 269.2,314
			272.2,314 272.2,308.8 275.3,308.8 275.3,303.7 276.5,303.7 276.5,296.5 		"/>
		<path fill="#C8313E" d="M308.5,385.8h-3v-5.1h-3v5.1h-3v5.1h-3v5.1h3v5.1h3v5.1h3v-5.1h3v-5.1h3v-5.1h-3V385.8z M302.4,396.2V391
			h3v5.1H302.4z"/>
		<rect x="308.5" y="370.4" fill="#C8313E" width="3" height="5.1"/>
		<polygon fill="#C8313E" points="296.4,406.3 296.4,401.2 293.4,401.2 293.4,406.3 290.4,406.3 290.4,411.5 287.4,411.5
			287.4,416.6 284.3,416.6 284.3,420.5 284.5,420.3 288.6,417.5 289.5,416.1 290.4,412.4 290.9,411.2 292.2,409.3 293,408.5
			293.7,408.2 299.5,407.8 299.5,406.3 		"/>
		<path fill="#C8313E" d="M290.4,385.8h-3v-5.1h-3v5.1h-3v5.1h-3v5.1h3v5.1h3v5.1h3v-5.1h3v-5.1h3v-5.1h-3V385.8z M284.2,396.2V391
			h3v5.1H284.2z"/>
		<polygon fill="#C8313E" points="281.3,423.2 283,421.7 281.3,421.7 		"/>
		<polygon fill="#C8313E" points="277.1,380.7 278.3,380.7 278.3,370.4 277.1,370.4 276.5,370.4 276.5,380.7 		"/>
		<polygon fill="#C8313E" points="276.5,406.3 276.5,416.6 277.1,416.6 278.3,416.6 278.3,406.3 277.1,406.3 		"/>
		<rect x="308.5" y="334.5" fill="#C8313E" width="3" height="5.1"/>
		<polygon fill="#C8313E" points="290.4,296.5 290.4,295.5 287.4,295.5 287.4,296.5 287.4,298.6 290.4,298.6 		"/>
		<polygon fill="#C8313E" points="278.3,355 278.3,360.1 281.3,360.1 281.3,365.3 284.3,365.3 284.3,370.4 287.4,370.4 287.4,375.5
			290.4,375.5 290.4,380.7 293.4,380.7 293.4,385.8 296.4,385.8 296.4,380.7 299.5,380.7 299.5,375.5 302.5,375.5 302.5,370.4
			305.5,370.4 305.5,365.3 308.5,365.3 308.5,360.1 311.6,360.1 311.6,349.9 308.5,349.9 308.5,344.7 305.5,344.7 305.5,339.6
			302.5,339.6 302.5,334.5 299.5,334.5 299.5,339.6 296.4,339.6 296.4,344.7 293.4,344.7 293.4,349.9 299.5,349.9 299.5,355
			290.4,355 290.4,349.9 287.4,349.9 287.4,344.7 284.3,344.7 284.3,339.6 287.4,339.6 287.4,334.5 290.4,334.5 290.4,329.4
			293.4,329.4 293.4,324.2 296.4,324.2 296.4,319.1 299.5,319.1 299.5,314 302.5,314 302.5,319.1 305.5,319.1 305.5,324.2
			308.5,324.2 308.5,329.4 311.6,329.4 311.6,314 308.5,314 308.5,308.8 305.5,308.8 305.5,303.7 302.5,303.7 302.5,298.6
			299.5,298.6 299.5,296.5 299.5,295.5 293.4,295.5 293.4,296.5 293.4,308.8 290.4,308.8 290.4,314 287.4,314 287.4,319.1
			284.3,319.1 284.3,324.2 281.3,324.2 281.3,329.4 278.3,329.4 278.3,334.5 277.1,334.5 276.5,334.5 276.5,341.8 276.6,342.1
			276.7,342.6 276.6,343.3 276.6,343.6 276.9,345.3 276.9,345.8 276.8,346.1 276.5,346.8 276.5,348.4 276.5,348.4 276.6,348.7
			276.7,349.1 276.9,355 277.1,355 		"/>
		<polygon fill="#C8313E" points="277.1,324.2 278.3,324.2 278.3,319.1 277.1,319.1 276.5,319.1 276.5,324.2 		"/>
		<polygon fill="#C8313E" points="276.5,295.5 276.5,296.5 276.5,303.7 277.1,303.7 278.3,303.7 278.3,308.8 281.3,308.8 281.3,314
			284.3,314 284.3,303.7 281.3,303.7 281.3,298.6 278.3,298.6 278.3,296.5 278.3,295.5 277.1,295.5 		"/>
		<polygon fill="#FCFCFC" points="264.3,427 264.6,427.6 265.2,427.8 265.7,428.1 265.8,428.9 266.1,429.1 266.1,427 		"/>
		<polygon fill="#FFFFFF" points="269.3,391 266.3,391 266.3,396 266.4,396.1 266.5,396.2 269.3,396.2 		"/>
		<rect x="284.2" y="391" fill="#FFFDFD" width="3" height="5.1"/>
		<rect x="302.4" y="391" fill="#FFFFFF" width="3" height="5.1"/>
	</g>
	<polygon fill="none" stroke="#999999" stroke-width="0.25" stroke-linecap="round" stroke-linejoin="round" points="590.2,316.8
		589.6,315.5 589.1,315.5 588,315.9 587.6,315.8 587.4,315.1 587.7,314.7 587.8,314.2 587.3,313.9 586.6,313.8 586,313.9
		585.8,314.2 585.4,314.4 585.2,314.3 584.9,313.9 584.4,312.8 583.6,312.2 581.8,311.3 580.8,310.7 579.9,309.8 579.3,308.6
		579,306.9 578.9,305.8 578.9,305.3 579.2,305.1 581.8,303.7 582.1,303.2 582.2,302.8 582.1,302.3 581.8,301.9 581.1,301
		580.5,300.6 579.8,300.5 578,300.6 577.5,300.2 576.4,298.7 575.1,297.7 570.6,296.5 568.5,295 567.7,294.8 560.2,296.8
		557.2,295.7 555.7,295.7 556,294.2 557.4,292 558,290.4 558.6,287 559,285.6 559,285.2 559,284.7 559.1,284.3 559.3,283.8
		558.5,280.6 558.5,280.3 558.4,280.1 558.1,279.8 557.9,279.9 557,280.5 556.6,280.3 556.3,279.6 556,278.7 555.7,278.1
		555.3,277.6 554.9,277.4 553.9,277.3 552.9,277.1 549.9,275.5 548,275 547.1,274.6 546.2,273.8 540.7,269.4 540.1,268.5
		539.7,266.8 539.4,263.2 539.2,262.2 538.8,261.6 538.3,261.1 537.9,260.4 537.1,257.3 536.5,256 535.4,255.7 535,254.9
		532.4,254.1 531.3,253.3 532.2,250.6 534,247.8 535.1,245.4 533.7,244.2 532.8,242.5 529.8,242.2 529,242.4 528.9,241.2
		528.3,240.3 522.9,236.2 521.4,235.7 520.9,235.3 520.6,234.3 520.8,232.6 521.5,231.5 522.3,230.7 522.8,229.7 522.9,228.1
		522.5,227.2 522.4,226.6 523.3,225.8 525.4,225.4 526.1,224.9 526.7,223.7 526.6,222.9 526.1,222.3 525.7,221.2 525.9,220.5
		526.7,220.4 528.3,220.9 529.2,220.6 529.2,219.4 528.8,217.9 528.3,216.7 528,216.2 527.9,215.8 528,215.3 528.3,214.9
		528.4,214.3 528.4,213.9 528.2,213.7 528.1,213.4 528,213.3 527.6,213.2 527.5,213.1 527.4,212.8 527.6,212.2 527.5,212
		527.1,211.4 525.4,210.1 524.9,209.4 524.4,207.1 523.9,206.3 522.7,205.6 522,205.1 521.7,204.3 521.8,203.1 522.3,202
		523.5,200.2 525.6,198.6 526.1,197.9 526.1,196.6 525.6,195.8 525,195 524.7,193.9 524.9,192.9 525.9,192.2 526.1,191.4
		525.9,191.3 525.4,190.9 526.1,188.7 525.9,186.4 524.9,184.6 523.6,183.9 522,184.4 520.8,185.1 519.8,184.9 518.7,182.9
		518.4,181.9 518,181.3 517.5,181 516.1,181.2 515.3,181 514.6,180.5 514.1,179.6 514.1,179 514.3,178.6 514.4,178 514.3,177.2
		514,176.8 513.6,176.5 510.5,174.9 510.1,174.4 510.1,173.8 510.4,173.3 510.4,172.8 510.1,172.4 503,170.1 502.4,169.6
		501.2,168.5 500.5,168.3 499.7,168.7 498.1,170.3 497.2,170.6 493,169 491.5,168.9 490.1,169.3 488.8,170.1 487.9,171.2
		486.5,173.8 485.5,174.3 483.1,173.6 482.1,173.9 478.6,175.9 475.9,179.2 474.9,179.5 474.2,179.1 472.5,176.5 470.7,175.1
		470.2,174.1 470,172.8 470.2,171.8 471,169.7 471.2,169 471.4,167.5 471.5,166.9 471.8,166.4 472,166.2 472.3,166 472.7,165.8
		473,165.6 473.2,165.7 473.5,165.7 473.7,165.3 473.5,164.8 473.2,164.2 472.5,163.3 471.9,162.7 471.3,162.3 465.8,160.8
		464.7,159.9 463,158.6 461,157.9 458.9,157.9 457.1,158.6 455.1,159.9 452.8,160.9 451.9,161.9 451.8,163.3 451,163.5 448.3,162.8
		447.4,162 447,160.7 446.8,159.1 446.4,157.7 446.1,157 444.9,155.3 444.3,154.1 444,153.8 443.4,153.5 441.4,153.1 436.1,153.7
		435.3,154.3 434.1,156.1 433.3,156.6 432.5,156.4 431.8,155.6 430.7,154 428.2,151.3 427.5,150.2 426.3,149.2 424.7,149.7
		423.2,150.9 421.7,151.7 420.2,152 419.7,152.2 419.2,152.8 418.8,153.5 418.5,154.3 418.1,155.1 415.7,157 414.5,158.2
		414.4,159.7 413.2,161.7 409.7,164.1 408.7,166.9 408.5,169.9 408.1,171.2 407.8,172.2 406.8,172.3 402.4,171.9 401.2,171.6
		400.1,170.9 399.2,169.9 398.5,170.7 396.8,172.3 396.1,172.7 395.1,172.1 392.9,170.2 392.1,169.8 390.7,169.6 386.1,170.1
		385.2,170.7 383.2,173.2 381.1,176.9 380.4,177.8 377.5,179.3 376.7,179.3 374.9,178.6 373.9,178.5 373.1,179 372.3,180.3
		372.6,181.8 372.8,183.5 372.7,185.1 372.3,186.5 371.6,187.6 370.8,188.6 370.1,189.8 369.9,191.3 370.6,192.7 370.5,193.4
		369.2,194.7 368.9,195.3 368.4,197.7 368.1,198.2 367.3,199.8 366.9,201 367.1,201.6 367.7,202 369.8,202.9 370.4,202.9
		372.5,202.3 378.4,203.3 379.2,204 379.6,205 379.2,206.1 378.3,206.7 376,207.3 375.5,207.6 374.5,208.7 373.9,209.5 373.6,210.1
		373.4,211.8 373,213.7 372.4,214.6 371.6,214.7 367.9,213 367.4,213.1 367.1,213.4 366.9,213.7 366.6,214 366.3,214.1 366,214.1
		362,213.1 360.4,213.3 359.3,215.1 359.2,215.8 359.2,217.3 359.2,218.1 359,218.6 357.7,221.5 356.5,223.4 356,224 354.7,224.7
		350.3,225.6 349.7,225.6 348.4,225.3 347.7,225.3 346.4,225.9 346,226.2 345.8,226.7 345.8,227.2 345.6,227.9 344.8,228.8
		344,229.4 343.3,230.1 342.9,231.3 343,231.8 343.3,233 343.3,233.5 343.1,234 342.9,234.1 342.7,234.1 342.3,234.3 341.6,235
		341.2,235.6 341.1,236.4 341.2,239.5 341.2,240.1 341,240.8 340.9,241.3 340.7,242 340.6,242.7 340.9,243.9 341.8,246.1 342,247.3
		341.8,248.5 341.3,249.5 340.6,250.2 338.4,251.5 337.9,252.2 337.5,253.4 337.4,255.1 337.4,256.3 337.2,257.5 336.6,258.8
		335,260.8 334.3,262.1 334.3,263.7 334.8,264.5 335.5,264.8 337.1,264.7 339.2,263.6 339.8,263.4 340.3,263.7 340.5,264.2
		340.6,264.8 340.9,265.8 341.1,266.1 341.2,266.1 341.6,266 341.8,266 342.2,266.4 342.5,266.9 342.7,267.4 343,268.1 343.1,268.3
		343.3,268.3 343.5,268.5 343.5,268.8 343.5,269.1 343,269.7 342.9,270 342.9,272.7 342.6,273.7 341.8,274.3 341.4,274.3 340,274.2
		339.6,274.3 339,275.1 338.7,275.4 337.9,275.4 334.7,274.9 333.7,274.4 332.9,273.6 332.7,272.6 332.9,272.1 334,271.7
		334.2,271.3 334,270.8 333.2,270.4 333.1,269.8 333.8,269.4 334.6,269.5 335,269.2 332.4,265.8 332.3,265.4 332,265.2 331.6,265.1
		330.7,265.6 329.3,267.7 328.4,268.3 325.5,268.4 323.3,267.6 322.6,267.7 322.2,268.5 321.5,271.4 320.9,272.6 319.4,274.3
		317.9,275.3 316.3,275.5 313.4,274.5 311.8,274.3 310.2,274.4 309,275.2 308.8,275.5 308.8,276 308.9,276.4 308.9,276.6 308.2,277
		307.9,277.4 307.7,277.4 307.6,277.6 307.8,278.5 308.2,279.8 308.7,280.9 309.1,282 309,283.7 308.5,284.7 307.9,285 305.6,285.4
		304.9,285.4 304.4,284.9 303.9,283.7 303.8,283.6 303.7,283.6 303.5,283.6 302.7,284.2 300.4,284.7 298.6,285.7 294.6,289.4
		293.3,290 292,290 290.8,289.7 289.6,289.7 289,289.6 288.6,289 287.9,287.3 287,286.1 285.8,285.7 284.7,285.9 282.5,287
		281.4,287.4 279.2,287.4 278.6,287.2 277.6,286.6 277,286.3 276.5,286.4 273.8,288 273.5,288 273.2,287.9 272.5,287.6 272.3,287.5
		271.7,287.8 271.1,288.2 268.9,288.5 267.1,289.3 266.6,289.3 266,289.1 262.8,287.2 261.6,286.9 261.6,288.7 262,290.1
		262.5,291.5 262.8,293 263.2,296.2 263.5,297.5 264.4,298.7 264.4,302.4 265.3,306.6 268.3,315.9 270,319.3 270.7,321.2
		272.1,326.8 272.8,328.5 273.4,329.4 273.8,330.2 274,331.1 274.5,332 275.1,332.7 275.7,333.2 276.1,333.9 276,335.4 275.7,336.2
		275.2,336.9 274.9,337.7 274.8,338.9 275.1,339.9 276.2,341.3 276.6,342.1 276.7,342.6 276.6,343.3 276.6,343.6 276.9,345.3
		276.9,345.8 276.8,346.1 276.4,346.9 276.3,347.4 276.3,348 276.5,348.4 276.6,348.7 276.7,349.1 277.1,358 276.6,360.6
		275.1,362.3 270.4,365.5 264.4,367.2 261.3,369 258.2,371.7 253.8,378.4 252.4,380.1 251.7,381.1 250.1,384.5 250.2,384.5
		250.7,385 251.1,385.6 251.2,386.3 251,387.3 251.8,387.9 254.3,388.6 254.9,388.3 255.4,388.8 257.6,389.6 258.3,389.7
		258.3,390.1 258,390.6 258.1,390.7 258.6,390.5 259.1,390.7 259.4,391 259.8,391.1 260.2,390.5 260.4,390.7 260.7,391.1
		260.9,391.3 261.5,390.7 261.6,391.1 261.5,391.9 261.4,392.1 262.4,394.1 263.1,394.3 264.8,394.2 265.4,394.6 265.7,395.1
		265.8,395.6 266.1,395.9 266.4,396.1 266.8,396.4 267,397.1 267,397.7 267.3,398.4 267.8,400.6 268.2,401.6 267.6,402 267.2,402.7
		266.5,404.3 266.3,405.4 266.3,407.3 266.1,407.9 266.2,408 266.2,408 266.3,408 266.3,408.3 265.9,408.5 265.7,409.8 265.3,410.3
		265.9,411.3 266.5,412.2 266.1,413.5 265.5,414.2 264.7,414.6 264.1,415.4 264,415.8 263.9,416.4 263.6,417.7 263.8,418 264,418.4
		264,418.7 263.7,418.9 263.6,419.1 263.7,419.4 264,419.8 264.1,420.1 263.7,420.6 263.5,420.8 263.2,420.8 263.2,421.3
		263.6,421.7 263.6,422.2 263.4,423.8 263.6,424.6 263.9,425.4 264.7,426.7 264.2,426.7 264.6,427.6 265.2,427.8 265.7,428.1
		265.8,428.9 266.1,429.2 266.5,429.1 266.6,428.2 266.5,427.7 265.6,424.9 265.3,424.5 265.4,424 265.8,423.3 266.2,422.9
		266.6,422.6 270.1,421.8 270.9,421.8 273.4,422.5 274.3,422.6 275.8,423.2 276.8,424.4 277.8,425.3 279.2,425.1 284.5,420.3
		288.6,417.5 289.5,416.1 290.4,412.4 290.9,411.2 292.2,409.3 293,408.5 293.7,408.2 302.6,407.5 304.8,408.1 305.6,408.1
		315.5,406.5 318.7,404.8 320.3,404.3 321.9,404.2 327.9,405.8 339.7,406 342.7,405.4 350.3,406.9 352.8,406.8 353.9,407 356.2,409
		357.3,409.4 365.6,409.8 366,410 366,410.4 365.9,410.9 366,411.5 366.4,412.1 366.9,412.4 374.7,412.6 381.5,415.6 383.9,416
		387.4,414.8 390.6,414.9 392,415.2 393,415.8 393.2,416.6 393.1,417.9 393.1,419.4 393.4,420.5 393.9,421 394.6,421.1 395.4,421
		396.5,421.3 396.4,422.2 395.8,423.5 395.6,424.5 396.1,424.9 396.9,424.8 398.3,424.4 400.4,424.7 401.1,424.7 401.9,424.3
		402.9,423.2 403.5,422.9 404.8,422.9 408.6,424.5 410.6,424.5 411.2,424.8 411.7,426 411.4,427.5 410.2,430.3 410.5,430.8
		411,431.3 411.5,431.8 412,432 412.6,431.9 413,431.5 414.6,429.3 414.8,429 415,428.2 414.9,427.6 414.9,426.9 414.9,426.2
		415.1,425.1 415.5,424.1 416.2,423.5 417,423.4 417.8,423.8 419.9,426.1 420.6,426.4 421.3,426.6 424.7,426.6 425.4,426.4
		426.3,425.6 427.3,423.5 428,422.4 428.8,421.8 429.6,421.3 430.3,421.4 430.8,422 431,422.6 431,423.1 431,423.6 431.3,424.2
		431.8,424.7 432.8,425.3 433.2,425.8 433.5,426.4 433.9,427.9 434.1,428.4 434.5,428.5 435,428.3 435.9,427.4 437.7,426.2
		438.7,425.9 439.6,425.9 442.8,426.5 443.8,426.9 444.1,427.7 444.2,428.8 444.7,432 444.9,432.8 445.3,433.4 445.9,433.6
		446.3,433.4 446.8,433.1 447.3,433.2 447.6,433.9 447.8,434.9 448.2,435.5 448.8,434.8 449,434 448.9,431.8 449,430.9 449.7,429.3
		450.7,428.1 451.8,427.2 452.9,426.6 454,426.4 456.1,426.4 457.1,426 457.8,425.2 458.6,423.4 459.3,422.7 460,422.5 460.8,422.5
		462.2,422.8 463,423.4 463.5,424.1 464.2,426.1 465.5,427.9 465.9,428.9 466,430.3 465.7,431.8 465.9,432.4 466.5,432.9
		467.2,433.7 467.6,434.9 467.9,436.1 468.4,437.1 469.2,437.6 469.9,437.3 471.3,436.1 472.1,435.8 473.6,436.5 474.4,436.5
		474.9,435.5 475.4,434.1 475.7,433.5 476.2,433.2 477.2,433.1 478,432.8 478.6,432.2 479,431.4 479.9,430.6 480.6,430.3
		481.4,430.2 482.2,430.3 482.8,430.7 483.4,431.8 483.7,432.6 484.2,433.2 487.4,433.8 488,433.6 488.4,433.2 488.9,432.1
		489.4,431.8 489.7,431.9 490.3,432.3 490.8,432.3 492.9,431.1 493.7,430.9 498.7,430.7 499.7,431 500.7,431.8 502,433.6
		502.5,434.1 504.3,435 504.8,435.5 505,435.9 505,436.3 505,436.7 505,437.3 505,437.8 504.6,438.9 504.6,439 504.8,439.6
		505.9,440.9 506.4,441.4 506.9,441.6 508,441.6 508.5,441.7 509,442.2 509.8,443.4 510.4,443.6 510.9,443.5 511.4,443.7 511.8,444
		512.2,444.4 512.5,445 512.9,444.9 513.1,444.5 513.1,443.2 513.2,443 513.8,441.9 513.9,441.1 515,440.3 516,439.2 515.7,437.6
		516.2,437.5 516.1,437.2 515.9,436.8 515.7,436.5 515.3,434.9 515.2,434.5 514.7,434.2 514.3,434.2 514.1,434.1 513.9,433.4
		514,432.7 514.3,432.3 514.7,432.2 515.2,432.3 515.2,431.9 514.8,431.7 514.5,431.4 514.2,431 514,430.3 514.3,429.9 514.1,429.4
		513.8,429 513.3,428.7 513.6,428.5 513.8,428.2 514.1,427.6 513.5,427.3 512.3,426.9 511.9,426.4 511.9,426 512.1,425.9
		512.2,425.7 512.4,425.6 512.6,425.6 512.6,425.2 512.3,425 511.7,424.4 511.7,424 512.7,423.1 513.1,422.9 513,422.4 512.9,422.2
		513.1,422 513.4,421.6 513.6,421.3 513.4,420.5 513.8,419.3 513.6,418.6 514,418.4 515.2,418.4 515.6,418.2 515.8,417.7 515.8,417
		516,416.3 516.4,415.8 516.4,415.4 516.1,415.4 515.4,415 515.8,414.5 516.6,414 517.4,413.3 517.3,412.4 517.1,411.8 517.1,411.6
		517.2,411.4 517.4,411 518.2,410 518.3,409.8 518.5,409.6 518.6,409.2 518.9,408.9 519.6,408.5 519.7,408 519.7,407.4 519.8,407.1
		520.1,407 521.1,407.1 521.5,406.9 521.8,406.6 522.3,405.9 522.3,405.5 522.1,405.3 522,404.9 522,404.7 523,404.3 523.5,404
		523.9,403.7 524.3,403.2 524.7,402.7 524.7,402.3 524.8,402 525,401.6 525.4,401.4 525.6,401.3 525.8,401.4 526,401.7 527,401.7
		527.3,400.9 526.9,400.1 525.9,400 526,399.7 526.1,399.4 526.2,399.2 526.4,398.9 526.2,397.9 526.7,397.3 527.6,397 532.5,396.7
		533.9,396.9 534.7,397.4 536.4,398.8 537.2,399.1 538,398.7 538.6,397.7 539.1,396.6 539.8,395.6 542.6,394.5 545.9,394.5
		552.1,395.7 556.2,395.4 556.3,393.7 556.1,392.6 555.6,391.8 553.9,390.5 553.5,390.2 553.3,389.6 553.2,388.8 553.3,387.9
		553.5,387.2 553.9,386.7 553.3,386.4 552.1,386.1 551.4,385.9 550.8,385.4 550.2,384.8 549.2,383.2 549.6,382.8 550.1,382.2
		550.3,381.5 550.5,380.7 550.5,379.6 550.3,379 549.9,378.5 549.6,377.9 549.6,376.4 549.9,374.7 549.8,373.3 549,372.7
		548.6,372.1 548.5,371.6 548.8,371.1 549.4,370.8 548.9,370.1 548.8,369.9 549.3,369.8 550.6,370.1 551.1,370 551.3,369.4
		550.8,368.8 549.5,367.7 549.1,366.9 548,364.6 546.4,362.4 546,361.5 548.4,360.2 549.2,359 549.2,356.6 548.9,355.4 548.6,355
		548.1,354.6 547.6,354 547.3,353 547.2,352.2 547,351.8 546.1,351.6 545.1,351.3 543.9,350.5 542.8,349.5 542.1,348.3 541.1,345.4
		540.5,344.3 537.8,342.1 538.6,341.3 540.4,338.4 540.8,338.3 541.7,338.1 542,337.7 542.1,337.1 542,336.5 541.9,335.8
		541.9,335.1 542.5,332.2 543.9,331.1 545.6,331.1 547.3,331.5 548.1,331.4 549.5,330.7 550.2,330.5 550.9,330.5 553,331.4
		553.8,331.5 555.3,331.5 556,331.9 556.4,332.9 556.8,335.4 557.4,336.3 557.7,336.4 559,336.3 559.4,336.4 561.3,337.5
		562.1,337.7 563,337.6 563.9,337.2 564.9,337 567.5,338 568.7,338 569.1,337.8 570,337.1 571.3,336.9 571.6,337 571.7,337
		571.9,336.8 571.9,336.6 571.9,336.2 572,335.9 572.1,335.6 572.2,335.4 574.1,335.5 575.1,334.5 576,333.2 577.2,332.2
		578.5,331.8 579,331.5 579.7,330.8 580.8,328.8 581.3,327.7 581.6,326.5 580.8,326.4 580.5,325.7 580.8,325 581.7,324.8
		582.6,325.3 583.7,325.4 584.9,325.2 585.8,324.6 585.7,324.4 585.3,323.9 585.2,323.7 587.7,323.1 588.3,323.3 588.8,323.6
		589.4,323.6 590.1,323.1 589.7,321.2 	"/>
</g>

</svg>
