<?xml version="1.0" encoding="utf-8"?>

<svg version="1.2" baseProfile="tiny" xmlns="http://www.w3.org/2000/svg" xmlns:xlink="http://www.w3.org/1999/xlink" x="0px"
	 y="0px" viewBox="238.8 118 362.4 358" xml:space="preserve">

<g id="DRC">
	<g>
		<polygon fill="#007FFF" points="249.6,332.1 249.8,332 250.5,331.2 250.8,331 251.4,330.8 252.6,330.7 253.2,330.5 253.3,330.5
			253.2,330.3 252.9,330.2 252.2,330.3 251,330.2 250.4,330.3 249.7,330.7 249.1,331.2 248.9,331.7 249,331.9 249.2,332.1 		"/>
		<polygon fill="#007FFF" points="421.2,396.7 421.1,397.3 420.9,397.7 420.9,398 421,398.2 421.3,398.6 421.4,398.8 421.7,399.6
			421.9,401.2 422.1,402 422.5,402.8 423.7,404 424,404.8 424.1,404.7 424.4,404.6 424.5,404.5 424.6,405.2 424.8,405.7 425.9,407
			426.1,407.1 426.2,407 426.4,406.9 426.6,407 426.9,407.3 427.6,407.7 427.9,408 428,408.5 428.2,409.1 428.6,410.2 428.7,411
			428.8,411.2 428.7,411.9 429,412.7 429.5,413.6 429.9,414.5 430.3,415.3 430.5,415.9 430.7,416.2 430.8,416.4 430.8,416.6
			430.7,417 430.7,417.2 430.6,417.5 430.1,418.2 430,418.6 430.1,419 430.2,419.3 430.5,419.5 430.7,419.9 430.7,420.7
			430.7,421.5 430.7,422.2 431,422.7 430.9,422.8 430.9,422.9 431,423.6 430.9,424 430.7,424.1 430.4,424.2 429.9,424.3
			429.1,424.7 428.8,424.9 428.3,425.3 428,425.7 428,426 428.2,426.3 428.6,427.7 428.6,428.4 428.6,428.5 428.9,428.7 429,428.8
			429,429.1 429.4,429.7 429.5,430.1 429.7,431.8 429.6,432.6 429.4,433.4 429.8,433.3 430.2,433.1 431,432.2 431.3,432
			433.2,431.4 433.8,430.9 434.4,429.4 435.1,429.3 436.5,429.8 437.2,430.1 437.9,430.3 438.7,430.4 439.4,430.3 439.8,430.1
			440.2,429.8 440.6,429.6 441.1,429.6 441.4,429.8 442.2,430.2 442.5,430.4 443.3,430.5 444.1,430.5 446,430.2 447.6,429.9
			449.7,428.8 450.9,428.1 451.7,427.8 452.5,427.8 453.2,427.9 454.4,428.2 456,428.6 456.7,428.7 457.4,428.6 458.1,428.7
			458.9,428.9 459.7,429.1 460.3,428.9 460.5,428.7 460.6,428.2 460.7,428.1 460.9,427.9 461.3,427.7 461.5,427.5 461.6,427.1
			461.7,426.6 461.9,426.3 462.2,426.1 462.9,426.1 463.8,426.3 464.6,426.6 465,427 465,427.2 464.9,427.5 464.9,427.7
			464.9,427.9 465.1,428.3 465.1,428.5 465.1,429.1 465.2,429.4 465.6,429.3 466,429.2 466.3,429.2 467,429.4 467.4,429.5
			468.1,429.5 468.4,429.5 468.9,429.7 469.4,430 469.9,430.5 470.1,430.9 470,431.1 469.9,431.3 469.7,431.4 469.7,431.7
			469.8,431.9 470.2,432.2 470.3,432.4 470.4,432.7 470.4,433.1 470.4,433.5 470.3,433.9 470.2,434.2 469.5,435.2 469.3,435.4
			468.5,435.7 468.3,435.9 468.4,436.2 468.7,436.4 469.5,436.4 469.9,436.4 470.3,436.7 470.9,437.3 471.3,437.5 471.8,437.5
			472.2,437.4 473,437.1 473.2,437.1 473.4,437.1 473.6,437.1 473.7,436.9 473.8,436.7 473.8,436.5 474,436.4 474.1,436.2
			474.3,436.2 474.7,436.1 474.9,436 475.1,435.8 475.4,435.3 475.7,435.1 476.4,434.8 477.8,434.8 478.6,434.7 480,434
			480.8,433.7 481.5,433.8 484.2,433.5 485.3,433.3 487.2,432.4 487.8,432.3 488,432.5 488,432.9 488,433.4 488,433.8 488,434
			487.9,434.1 487.5,434.3 487.3,434.4 487.4,434.6 487.6,434.8 487.7,434.9 487.5,435.3 487.3,435.5 487.1,435.7 487.2,436.2
			487.3,436.6 487.7,437.3 487.9,437.6 487.8,437.8 487.6,438.1 487.5,438.3 487.5,438.5 487.6,438.8 488.1,440.4 488.3,440.7
			488.4,440.9 488.5,441 488.7,441 488.9,441 489.2,441 489.3,441.2 489.4,441.3 489.6,441.5 490.7,442 491,442.3 491,442.4
			491,442.5 491,442.6 490.9,443.1 491,443.4 491.3,443.5 491.6,443.5 491.8,443.4 491.9,443.3 492.1,443.1 492.3,443.1 492.5,443
			492.6,442.9 492.6,442.7 492.8,442.5 493.7,442.6 494.3,443 494.9,443.5 495.6,444 496,444 497.1,444 497.3,444 497.7,443.8
			497.8,443.8 498,443.8 498.1,443.9 498.2,444 499.2,444.8 499.6,445 499.9,445.2 500.2,445.8 500.5,445.9 500.7,446 504,445.9
			504.5,446.1 504.8,446.3 505.2,446.5 505.9,446.5 506.3,446.7 506.5,446.7 506.7,446.6 507.1,446.3 507.3,446.2 508,446.1
			508.7,446.1 509.2,446.2 509.5,446.5 509.8,446.8 510.2,447 510.8,447.3 512.4,447.4 513.1,447.5 513.5,447.7 513.8,448
			514.1,448.1 514.5,448 514.8,447.8 515,447.4 515.3,447.2 515.8,447.2 516.7,447.3 517.5,447.1 518.2,446.7 518.9,446
			519.2,445.3 519.3,443.7 519.5,443 519.8,442.5 520.1,442.3 520.3,442 520.3,441.4 520.1,440.6 520.1,440.3 520.3,440 520.5,440
			520.9,440 521.1,440 521.8,439.8 522.6,439.7 523.2,439.5 523.3,439.5 523.6,440 523.8,440.8 523.9,441.8 523.9,442.4
			524.3,444.1 527.9,446.3 528.7,447.8 528.8,448.6 529.8,451.3 530,451.7 531.2,452.6 532,453.5 532.5,453.6 533.4,453.7
			534.2,453.7 534.8,453.5 535.2,453.2 535.4,453 535.7,452.8 536.1,452.9 536.5,453 537.6,453.6 537.9,454 538,454.5 538.1,454.9
			538.5,455 538.8,455 539.1,454.9 540.5,455.1 540.7,455.2 540.8,455.4 540.8,455.5 540.9,455.7 541.4,456.1 541.6,456
			541.9,455.7 542.4,455.6 542.8,455.7 543,456 543.4,456.2 543.9,456.2 544.3,456.2 544.6,456.2 545,456.3 545.3,456.5
			546.9,457.9 547.2,458.3 547.5,459.2 547.8,459.7 548.4,460.3 548.6,460.7 548.6,461.2 548.4,461.5 548.1,461.7 547.9,462
			548,462.5 548.4,463 548.8,463.4 549.1,463.9 549.2,464.9 549.4,465.1 549.7,465.1 550,465 550.1,464.7 550.4,464.2 550.7,464
			551.5,464.2 552.3,465 553.6,466.7 553.9,467 554.1,467.2 554.2,467.9 554.3,468 554.6,468 554.6,468.1 554.6,468.2 554.5,468.4
			554.5,468.5 554.6,468.6 554.5,468.8 554.6,468.9 554.6,469 554.7,469 554.8,469.1 554.9,469.1 555.1,469.8 555.3,469.9
			555.6,469.9 555.8,470 556,470.3 556.6,473.1 556.9,473.9 557.5,474.5 557.7,474.8 558.1,474.9 558.4,474.8 558.7,474.7
			559.2,474.7 559.7,474.6 560.2,474.6 560.6,474.8 560.8,475 560.9,475.3 561.1,475.5 561.4,475.6 561.6,475.5 561.9,475.1
			562.2,474.9 562.6,474.7 563.7,474 566.4,473 566.8,472.7 567.9,471.7 568.3,471.5 568.8,471.5 569.1,471.7 569.4,472
			569.8,472.2 570,472.2 570.2,472.2 570.4,472.2 570.5,472.4 570.6,472.6 570.5,472.8 570.5,473 570.4,473.1 570.2,473.2
			569.9,473.3 569.8,473.5 569.7,473.6 569.8,474 569.7,474.2 569.6,474.3 569.4,474.3 569.3,474.4 569.3,474.7 569.4,474.9
			569.5,475.1 569.6,475.3 569.7,475.5 570,475.6 570.5,475.8 571.2,476 572.4,476 572.7,476 573,475.4 573,473.2 573,470.3
			573,467.6 573,464.7 573,461.3 573,458.4 573,455.2 573,452.9 573,450.9 573,450.8 572.2,450.8 571.8,451 571.2,451.4
			570.2,451.9 569.9,452 569.7,451.8 569.3,451.5 569.1,451.4 568.8,451.4 568.6,451.5 568.4,451.7 568,452 567.2,452.3
			566.9,452.5 566.7,452.7 566.5,453.5 566.4,453.9 566.4,454.1 566.3,454.3 566.4,454.4 567,455.1 567.3,455.2 567.6,455.3
			567.8,455.4 567.9,455.7 567.8,456.1 567.6,456.4 567.3,456.5 567,456.6 566.8,456.5 566.8,456.4 566.7,456.4 566.6,456.3
			566.5,456.3 566.2,456.3 566.1,456.3 565.6,456.1 564.8,455.7 564.6,455.7 563.9,455.6 563.6,455.6 563.5,455.5 563.2,455.3
			562.9,454.9 562.7,454.9 561.1,454.9 560.7,455 560.3,455.2 560,455.4 559.8,455 559.5,455.1 559.1,455.2 558.9,455.2
			558.7,455.1 558.5,455.1 558.4,455 558.4,454.8 558.3,454.6 556.8,451.8 556.3,451.1 555.2,450.5 555,450.3 554.9,449.9
			554.7,449.6 554.5,449.2 554.2,449 553.5,448.7 553.3,448.5 553.2,448.2 553.1,447.6 552.9,447.5 552.3,447.6 551.9,447.5
			551,447 550.7,446.8 550.4,446 550.1,445.9 549.7,446.1 549.6,445.9 549.4,445.6 549.3,445.5 549.1,445.3 549,445.2 548.8,445.2
			548.5,445.3 548.3,445 548.1,444.1 547.9,443.9 547.6,443.8 547.4,443.6 547.3,442.2 547.2,442 546.9,441.8 546.8,441.6
			546.9,441.5 546.9,441.3 546.6,440.2 546.4,440 546.2,439.7 546,439.5 545.8,438.9 545.7,438.8 545.6,438.5 545.6,437.5
			545.6,437.1 546.6,435.7 546.7,435.6 547.1,435.3 547.2,435.2 547.1,434.5 547.1,434.1 547.3,433.8 547.5,433.6 547.8,432.9
			547.8,432.2 547.8,432 547.9,431.9 548.1,431.6 548.1,431.5 548.1,431.2 547.9,430.2 547.9,430 548.2,429.6 548.4,429.2
			548.5,429 548.5,428.8 548.5,428.4 548.5,428.2 548.6,428 548.9,427.6 549,427.4 549.1,427.2 549.2,426.9 549.3,426.6
			549.3,425.8 549.4,425.3 549.6,424.9 549.8,424.5 550.1,424.1 550.3,424 550.4,423.5 550.7,423.1 550.8,423 550.9,422.9
			551.1,422.9 551.2,422.9 551.5,422.7 551.8,422.4 552,422 552.1,421.6 552,421.5 551.6,421.2 551.5,421 551.5,420.8 551.6,420.4
			551.6,420.1 551.2,419.6 550.9,419.3 550.9,419 551,418.8 550.8,418.5 550.9,418.4 551,418.2 551.1,418 551.1,417.7 551.1,417.5
			551,417.1 550.8,416.8 550.6,416.5 550.6,416 550.6,415.6 550.8,415.3 550.8,415 550.7,414.6 550.7,414.6 550.5,414.5
			550.5,414.5 550.4,414.4 550.4,414.2 550.3,414.1 549.7,413.5 549.9,413.2 550.3,412.6 550.6,412 550.8,411.3 550.8,409.8
			550.7,408.4 550.8,408 551.4,406.7 551.5,405.9 551.7,405.5 552.1,405.4 552.1,405.3 551.6,404.8 551.6,404.5 551.5,404.4
			551.3,404.4 551.1,404.2 550.8,403.9 550.7,403.5 550.7,402.6 550.7,402.4 550.5,402 550.5,401.8 550.4,401.5 550,401.1
			549.9,401 550,400.9 550.5,400.7 550.6,400.6 550,400.6 549.8,400.5 549.7,400.2 549.7,399.9 549.6,399.7 549.5,399.4
			549.4,399.2 548.9,398.9 548.7,398.7 548.6,398.4 548.7,398.1 548.7,397.8 548.7,397.4 548.3,396.9 547.6,396.6 546.7,396.4
			545.8,396.1 545.5,395.4 545.9,394.7 546.7,394.1 548.5,393.3 550.2,392 553.4,388.9 555.8,385.7 556.5,384.1 556.6,382.4
			555.8,380.7 555.7,380.3 556.2,380.1 558.5,379.8 561.8,379.3 564.8,378.8 569.1,378.1 574.2,377.4 579.2,376.6 583,376
			587.9,375.3 591.1,374.8 590.7,373.1 589.3,369.7 585.2,363.4 584.7,361.6 584.5,360.3 583.9,357.9 582.4,354.9 581.3,353.1
			578.6,350 577.1,348.7 574.4,347.4 571.9,345.4 571.3,344.8 570.8,344.1 569.9,341.5 568.6,339.9 568.1,339 567.8,338.2
			567.5,336 566.9,333.8 566.9,333.1 567.3,331.9 568.7,330 569.3,328.9 569.5,327.4 569.1,325.8 567.3,321.5 566.5,318.4
			565,315.7 564.4,314.2 564,312.6 563.9,311 564,310.9 421.3,396.5 		"/>
		<polygon fill="#007FFF" points="595.6,174.4 595.3,174.2 594.6,174.2 594.2,174.7 594,175.3 593.4,175.6 593.1,175.4 592.8,175.1
			592.4,174.7 592.2,174.4 592.2,174.1 592.2,173.9 592.2,173.6 592,173.5 590.6,173.5 590.4,173.4 590.3,173.1 590.5,172.7
			590.7,172.3 590.9,172 590.9,171.7 590.8,171 590.8,170.6 590.9,170.4 591.3,169.9 591.3,169.7 591.4,169.4 592,167.7 592,167.6
			592.1,167.4 592.1,167.3 592.2,167.2 592.4,167.2 592.5,167.2 592.6,167 593.1,165.7 593.1,165 592.9,164.2 592.5,163.4
			592.1,163.1 591.3,162.5 591,162.2 591,161.9 591.1,161.5 592.1,158.3 592.5,157.6 592.6,157.6 592.8,157.5 592.9,157.5
			592.9,157.4 593,157.2 593,157.1 593.4,156.4 593.9,155.8 594.2,155.5 594.3,155.1 594.2,154.9 594.1,154.5 594,154.3
			594.2,153.7 594.1,153.6 593.9,153.1 593.6,153.2 593.2,153.5 592.8,153.7 592.6,153.3 592.8,152.3 592.5,152 591.9,151.7
			591.7,151.5 591.5,151.3 591.5,150.6 591.4,150.5 591.4,150.4 591.1,150.2 590.8,150.4 590.4,150.8 590,151 589.5,151 589.3,151
			589,151.1 588.4,151.5 588.1,151.5 587.7,151.6 587.5,151.6 587.4,151.5 587.2,151.3 587.2,151.2 587.3,151.1 587.4,150.9
			587.5,150.2 587.6,149.8 587.1,147 587,146.8 586.8,146.5 586.7,146.5 586.5,146.5 586.3,146.5 586.1,146.6 585.7,146.6
			585.5,146.5 584.8,146.3 584.1,145.8 583.3,145.4 582,145 580.8,145 580.5,144.9 580.3,144.7 580.3,144.5 580.3,144.3
			580.3,144.1 580.1,143.9 579.7,143.3 579.5,142.9 579.4,142.5 579.2,142.1 578.8,141.8 578,141.7 577.7,141.5 577.4,141.1
			577,140.3 576.7,139.9 576.2,139.6 576,139.6 575.8,139.6 575.6,139.6 575.4,139.4 575.4,139.1 575.5,138.9 575.7,138.8
			575.7,138.6 575.5,138.2 575.1,137.8 574.6,137.5 574.2,137.4 573.3,137.5 572.8,137 572.6,136.3 572.6,135.5 572.8,134.9
			572.8,134.8 572.8,134.6 572.6,134.3 572.6,134.1 572.8,133.9 572.9,133.7 573,133.5 572.8,133.4 572.6,133.3 572.1,133 572,133
			571.6,133.1 571.4,133 571.2,132.9 570.6,132.4 570.4,132.2 569.6,131.9 569.4,131.8 568.8,131.8 568.2,131.6 568.2,131.6
			568,131.5 567.9,131.5 567.6,131.7 567.5,131.6 567.3,131.4 567.2,131.4 566.8,131.3 566.5,131.3 566.4,131.6 566.3,132.2
			566.3,132.6 566.3,132.8 566.3,133 565.9,133.3 565.8,133.5 565.7,133.9 565.5,134.3 565.3,134.7 564.3,135.5 564.1,135.8
			563.9,136.2 563.6,136.7 563.3,136.8 562.9,136.7 562.5,136.7 562.3,136.9 562.2,137.3 562.1,137.6 561.6,137.6 561.1,137.4
			559.9,136.2 559.7,136.1 559,135.7 558.9,135.8 558.9,135.5 558.7,135.4 557.7,134.8 557.7,134.7 557.6,134.6 556.4,134.9
			556,135 555.1,134.9 554.5,135 554.3,135 553.9,134.8 553.8,134.4 553.7,134 553.5,133.6 553.3,133.6 553.2,133.5 553,133.6
			552.9,133.8 552.6,133.9 552.2,133.9 552.1,133.9 551.3,135.5 551,135.8 550.7,136 549.9,136.2 549.7,136.4 549.6,136.6
			549.6,136.8 549.4,137 549.3,137 549.1,137 548.9,136.9 548.7,136.9 548.3,137 548,137.2 547.3,138.2 546.9,138.5 546.5,138.8
			546.1,138.8 545.6,138.7 545.5,138.5 545.4,138.2 545.3,137.8 544.6,137.4 543.8,137.4 543,137.5 542.2,137.5 541.9,137.2
			541.5,136.8 541,136.2 540.9,135.8 540.8,135.7 540.6,135.6 540.5,135.6 540.3,135.7 540,136.1 539.8,136.1 539.2,135.3
			539.1,135.1 539.1,134.9 539,134.8 539,134.6 539.1,134.1 539.2,133.8 539.1,133.6 538.1,133.5 537.9,133.5 537.8,133.5
			537.6,133.3 537.5,133.2 537.3,133.3 537.3,133.4 537.3,133.4 537.3,133.5 537.3,133.6 537.2,133.6 537.1,133.6 536.8,133.5
			536.7,133.5 536.1,133.6 536,133.6 535.8,133.4 535.4,133.1 535.2,132.9 535.1,132.9 534.9,132.8 534.6,132.8 534.5,132.8
			534.4,132.4 534.3,132 534.3,131.2 534.4,130.1 534.4,129.7 534.3,129.5 534.2,129.3 534,129.1 533.8,129 533.7,129 533.3,129.1
			533.1,129.1 532.9,128.9 532.8,128.6 532.6,127.8 532.4,127.4 532,127.2 530.4,127 530.2,126.9 530,126.9 529.6,126.6
			529.5,126.4 529.4,126 529.4,125.8 529.2,125.6 528.6,125.2 528.5,125.1 528.4,125 528.2,125 528.1,124.9 528.3,124 528.2,123.8
			527.7,123.6 527.6,123.5 527.3,123.4 527.1,123.3 526.7,123.3 526.5,123.3 526.4,123.2 526.1,123 525.9,122.8 525.6,122.6
			525.3,122.5 524.8,122.5 524.4,122.4 522.8,121.6 522.1,121.3 521.3,121.2 520.4,121.5 519.7,121.9 519.1,122.2 518.6,122.7
			518,123.3 517.9,123.5 517.8,123.9 517.7,124.1 517.4,124.3 517.3,124.4 517,124.4 517,124.3 516.9,124.2 516.8,124.1
			516.7,124.1 516.5,124.1 516.4,124.3 516.2,124.4 516.1,124.3 515.3,123.4 515.2,123.3 514.9,123.3 514,123.3 513.8,123.4
			513.5,123.6 513.3,123.7 513.1,123.6 512.9,123.6 512.8,123.8 512.7,123.8 512.5,123.6 512.2,123.6 511.9,123.7 511.6,124
			511.5,123.8 511.4,124 511.1,124.1 510.9,124.2 510.7,124.2 510.4,124.2 509.9,124 509.6,124 509.6,123.8 509.2,123.1 509,122.9
			508.7,122.8 508.5,122.6 508.3,122.3 507.9,122.4 507.7,122.5 507.6,122.3 507.2,122.3 506.9,122.3 506.4,122.2 506,122.1
			505.7,121.8 505.5,121.5 505.4,121.5 505.2,121.6 505.1,121.6 505.1,121.3 505.1,121.2 504.9,121.3 504.8,121.2 504.6,120.6
			504.6,120.6 504.4,120.8 504.3,120.7 504.2,120.7 504.1,120.6 503.8,120.7 503.7,120.5 503.6,120.3 503.3,120.2 503.2,120.4
			503.1,120.5 503,120.6 502.8,120.6 502.7,120.6 502.6,120.5 502.5,120.5 502.6,120.9 502.7,121.1 502.5,121 502.3,121
			502.2,121.1 502.1,121.3 502,121.3 501.8,121.3 501.6,121.3 501.4,121.5 501.1,121.3 500.8,120.9 500.6,120.8 500.3,120.8
			500.1,120.8 500.1,121 500.1,121.4 499.8,121.2 499.4,121.3 499.2,121.5 499.2,121.9 498.8,121.6 498.6,121.2 498.4,121 498,121
			497.9,121.1 497.7,121.3 497.5,121.4 497.4,121 497.3,120.9 497.3,120.7 497.3,120.5 497.2,120.5 497,120.5 496.9,120.6
			496.9,120.1 496.6,120 496.5,120.1 496.7,120.2 496.5,120.4 496.2,120.5 496,120.3 495.8,120.2 495.2,119.6 495,119.4
			494.6,119.3 494.5,119.3 494.4,119.2 494.3,119.1 494.2,119 494,119.1 493.8,119.2 493.7,119.2 493.4,119 493.4,118.9
			493.5,118.8 493.6,118.8 493.6,118.7 493.7,118.6 493.2,118.6 493.1,118.5 493,118.2 492.9,118 492.8,118 492.5,118 492.2,118
			492,118 492.1,118.4 491.9,118.4 491.4,118.6 491.3,118.6 491.1,118.4 491,118.3 491,118.4 490.1,118.9 489.7,119 489.4,118.8
			489.2,119 488.9,119.1 488.7,119.2 489,119.6 488.6,119.7 488.4,120 488.2,120.3 488.2,120.8 488.1,121 487.8,121.3 487.7,121.6
			487.8,122 488,122.1 488.3,122.2 488.5,122.3 488.5,122.4 488.4,122.8 488.3,123 488.3,123.1 488,123.4 488,123.6 487.9,124.1
			487.9,124.3 487.7,124.5 487.4,124.6 486.6,124.7 486.4,124.8 486.2,124.9 484.9,125 484.8,124.9 484.6,124.8 484.5,124.8
			484.3,124.8 484.2,124.9 484,125.1 483.8,125.1 483.8,125.2 483.6,125.6 483.4,126 483.3,126 482.6,125.8 482,125.5 481.3,125.3
			481,125.3 480.9,125.3 480.6,125.6 480.4,125.6 480,125.7 479.3,126.2 479,126.3 478.7,126.3 478.6,126.2 478.4,126.2
			478.3,126.2 478,126.5 477.8,126.6 477.6,126.6 477.4,126.4 477.1,126.6 476.7,126.7 475.5,126.5 475.3,126.4 475.3,126.2
			475.6,125.9 475.3,125.7 474.8,125.5 474.5,125.4 474.4,125.2 474.4,124.8 474.3,124.6 474,124.5 473.5,124.4 473.4,124.4
			473.2,124.2 473.1,123.9 473,123.7 472.6,123.4 472.1,123.2 471.6,123.1 471.1,123.2 471.1,123.4 471.1,123.7 471,123.8
			470.8,123.7 470.7,123.6 470.5,123 470.4,122.8 470.1,123.1 469.8,123.5 469.7,123.9 469.9,124.1 470.4,124.2 470.4,124.4
			470.2,124.7 469.8,124.9 468.5,125 468.3,125.2 468.2,125.2 468,125.8 468,126 468,126.2 467.9,126.3 467.8,126.4 467.6,126.4
			467.5,126 467.2,125.8 466.8,125.9 466.5,126.2 465.9,126.9 465.7,126.9 465.5,126.9 465.1,126.6 464.9,126.6 464.5,126.6
			464.2,126.8 463.7,127.2 462.8,127.7 462.4,127.9 462.1,127.6 462,127.6 461.9,127.6 461.8,127.7 461.8,127.9 461.7,128.1
			461.8,128.3 461.9,128.6 461.4,128.6 460.6,128.4 460.5,128.4 460.3,128.6 460.1,128.6 459.9,128.6 459.6,128.5 459.3,128.5
			459,128.6 458.3,129.1 457.9,129.3 457,129.4 456.6,129.5 455.9,129.9 455,130.1 454.6,130.3 453.4,131.2 453.1,131.4
			452.7,131.4 452.3,131.6 452.1,131.8 452,132.1 452,132.4 452,132.5 452,132.7 451.9,132.8 451.7,132.9 451.4,132.8 451.2,132.9
			450.9,132.7 450.5,132.6 450.2,132.6 449.8,132.5 449.8,132.5 449.6,132.3 449.5,132.2 449.4,132.2 449,132.1 448.9,132
			448.6,131.5 448.1,131.2 448,131.1 447.8,131 447.3,130.3 447,130.1 446.2,130.5 445.7,130.6 445.3,130.4 445.1,130.2
			444.9,130.1 444.6,130 444.4,129.9 444.2,129.8 444,129.6 444,129.3 443.7,128.9 443.5,128.4 443.4,128.2 443.2,128.2
			442.9,128.3 442.7,128.4 442.5,128.5 442.2,128.5 442,128.4 441.9,128.4 441.7,128.6 441.6,128.9 441.6,129.1 441.7,129.3
			441.8,129.6 441.7,129.7 441.3,130.1 441,130.6 440.7,130.5 440.4,130.3 440.1,130.2 439.8,130.3 439.6,130.6 439.4,131.2
			439.2,131.5 439,131.8 438.8,132 438.6,132.1 438.6,132.4 438.7,132.7 438.7,132.9 438.7,133.1 438.5,133.4 438.4,133.5
			438.4,133.6 438.1,133.8 438.1,133.9 438.1,134.3 438,134.5 437.9,134.7 437.7,134.9 437.3,134.9 436.4,134.9 436.1,135.1
			436,135.5 436,136.1 436.1,136.4 436.4,136.8 436.5,137 436.4,137.2 436.2,137.4 436,137.5 435.8,137.6 435.6,137.8 435.1,138.8
			435.1,139 435.2,139.4 435.2,139.5 435.1,139.7 434.7,140 434.7,140.1 434.5,140.4 434.2,140.7 433.5,141.2 433,141.4
			432.9,141.5 430.6,141.6 428.8,141.2 428.3,140.9 427.9,140.8 427.7,140.6 427.3,140.3 427.3,140.2 426.9,140.1 425.9,139.9
			425,139.4 424.8,139.4 424.6,139.4 424.5,139.4 424.4,139.5 424.3,139.5 423.9,139.6 422.8,139.5 422.3,139.5 422,139.3
			421.7,139.1 421.4,138.9 421.2,138.9 420.7,138.9 420.5,138.9 420.4,138.8 420.3,138.7 420.2,138.6 419.8,138.5 419.6,138.4
			418.9,138.5 418.2,138.4 417.9,138.5 416,139.4 415.8,139.3 415.5,139.3 415.3,139.3 415.1,139.2 415,139.1 414.8,138.9
			414.6,138.9 413.7,138.9 413.4,138.9 412.9,138.8 412.6,138.6 411.7,138 411.6,137.9 411.5,137.8 411.3,137.7 411.1,137.7
			410.9,137.8 410.7,137.9 410.6,138 410.5,138.1 410.4,138.2 410.2,138.4 410.1,138.5 409.8,138.5 409.7,138.4 409.5,138.3
			409.3,138.2 409,138.2 408.8,138.2 408.7,137.8 408.4,137.7 408,137.6 407.8,137.3 407.4,136.7 407.3,136.5 406.9,136.5
			405.1,135.8 403.4,135.5 402.6,135.5 402.4,135.6 402.1,135.8 401.9,136 401.4,136 399.9,136 398.3,136.3 397.8,136.2
			397.4,135.9 395.4,134 395.2,133.6 395.3,133.2 395.5,132.9 395.6,132.7 395.5,132.3 395.2,131.8 394.8,131.5 394.5,131.4
			394.3,131.2 393.9,130.3 393.5,129.7 393.2,129.4 392.9,129.3 392.5,129.2 391.7,128.9 391.3,128.8 390.9,128.5 390.1,127.4
			389.7,127.2 388.5,126.7 387.9,126.3 387.4,125.9 386.9,125.6 385.2,125.2 384.7,125.1 384.5,124.8 384.5,124.5 384,123.7
			383.7,123.4 383.5,123.3 382.6,122.9 382,122.7 381.7,122.6 381.5,122.5 379.3,122.5 378.6,122.2 378.2,122.2 377.6,122.5
			377.2,122.6 376,122.5 375.6,122.6 375.3,122.9 374.9,123.4 373.2,124.5 372.3,124.9 372.2,125.1 371.9,125.5 371.5,126
			371.2,126.1 370.3,126.1 370,126.2 369.4,126.8 369.1,127.2 368.9,127.6 368.7,128.2 368.7,128.4 368.5,128.5 368.3,128.7
			368.2,128.8 368,129.5 367.8,129.8 367.4,130 367.1,130.3 366.5,131.4 366.4,131.5 366,131.6 365.9,131.7 365.9,131.7
			365.7,132.3 365,132.8 364.6,133.4 363.6,135.8 363.1,136.5 362.5,136.9 361.6,137.2 361.2,137.3 360.9,137.3 360.5,137.2
			360.1,137 359.8,137 359.4,137.3 359.1,137.8 359,138.2 359.2,138.6 359.7,139 359.8,139.2 359.9,139.6 360.6,140.8 360.8,141.6
			361.1,143.2 361.1,144.4 361,144.8 360.9,145.3 360.5,145.9 360.4,146.3 360.5,147.2 360.1,149.5 360.7,153.9 360.9,154.5
			361,156.8 360.8,159.6 360.6,160 360.6,160.2 360.5,160.5 360.2,160.8 359.5,161.1 359.1,161.4 358.9,161.7 358.2,163.6
			357.9,164.1 357.9,164.3 357.8,164.7 357.7,164.9 357.4,165.4 356.9,166.3 356.8,166.6 356.8,167.1 356.3,168.4 354.9,170.8
			354.8,171 354.6,171 353.5,172 353.3,172.3 353.1,172.7 352.9,173.8 352.8,174.1 352.6,174.5 352.4,174.8 352.1,175.5
			351.9,175.8 351.6,175.9 351.5,176.1 351.1,176.6 350.9,176.8 350.2,178.8 350.2,179.1 350.3,179.7 350.4,180.3 350.4,180.5
			396.8,180.5 352.8,214.1 369.6,268.5 332.1,239.8 331.9,239.9 331,240.2 330.4,240.3 330.3,240.3 330.1,240.5 329.9,240.5
			329.9,240.6 329.4,241.1 328.7,241.8 328.1,242.5 327.2,243.2 326.8,243.4 326.7,243.6 326.6,243.7 326.4,244.2 325.9,245
			325.6,245.7 325.3,246.2 324.6,247.6 324,248.4 323.5,249.2 322.9,250.2 322.8,250.5 322.7,250.8 322.7,251.1 322.7,251.7
			322.6,252.3 322.3,252.7 320.7,254.8 320.6,255 320.6,255.3 320.5,255.3 320.1,255.6 319.8,255.7 319.8,255.7 319.6,255.9
			319.3,256.3 318.1,257.4 317.3,258 316.2,259 315.7,259.4 315.2,259.8 314.8,260.4 314.5,260.8 314.4,261.2 314.4,261.7
			314.4,261.8 314.4,261.9 314.2,262.8 314.1,263.1 314.2,263.4 314.4,263.7 314.4,263.8 314.5,263.9 314.5,264.8 315.1,269.4
			314.7,272.2 314.3,273.5 314.2,273.8 314.2,274.1 314.4,275.8 314.3,276.8 314.4,277.8 314.4,278.9 314.4,279.2 314.6,279.5
			314.6,280 314.5,280.8 314.6,281.2 314.8,281.4 315,281.5 315.2,281.7 315.1,282.2 315,282.5 314.8,283.1 313.8,284.7
			313.4,285.7 313,286.6 311.8,288 311.1,289.5 310.9,290 310.7,290.2 310.3,291.1 309.7,292.2 309.6,292.3 309.5,292.5
			309.2,293.6 308.6,294.1 307.9,294.5 307,294.8 306.2,294.9 305.3,295 302.6,295.9 302.3,296.1 302,296.3 301.7,296.6
			301.1,298.5 301,298.7 300.6,299.1 300.5,299.2 300.4,299.3 299.9,299.5 299.2,299.8 297.1,300.9 296.7,301.1 296.2,301.3
			295.7,301.6 295.5,302 295.4,302.2 293.7,304.6 293.3,305 292.3,305.5 292.1,305.7 292,306 290.5,307.4 288.9,310 288.8,310.3
			288.6,310.6 288.3,310.9 287.4,311.2 286.2,312 285.6,312.2 284.9,312.3 284.7,312.2 284.1,311.9 283.8,311.8 283.7,311.7
			283.6,311.5 283.5,311.4 283.3,311.4 282.9,311.4 282.9,311.3 282.7,311.1 282.3,311.1 282,311.2 281.8,311.3 281.4,311.7
			281.1,311.9 280.8,311.9 280.4,312 280.4,311.4 280.7,309.9 280.6,309.7 280.5,309.5 280.4,309.4 280.4,309.1 280.5,309
			280.6,308.6 280.6,308.5 280.6,308 280.3,307.7 280.1,307.4 279.8,307.1 279.6,306.3 279.5,305.9 279.5,305.8 279.6,305.5
			279.9,305.2 280.7,304.9 280.9,304.7 281.1,304.4 281.4,304 281.7,303.7 281.7,303.3 281.6,303.2 281,302.8 280.6,302.3
			280.3,301.9 280.2,301.6 280.2,301.5 280.2,301.4 280.3,301.1 280.3,300.9 280.3,300.7 280.3,300.5 280.2,300.4 279.8,300.4
			279,300.9 278.1,301.1 277.8,301.4 277,302 276.3,302.3 275.6,302.6 273.9,302.8 273.2,303 272.7,303.8 272.6,303.8 272.6,303.9
			272.3,304.1 272,304.5 271.8,304.6 271.6,304.6 271,304.4 270.5,304.5 270.3,304.4 270.1,304.3 269.8,303.8 269.6,303.5
			269.2,303.2 268.8,303.2 267.6,303.6 267.4,303.7 267.3,304 267.5,305.8 267.5,306.2 267.2,306.9 267.1,307.3 267.3,308.2
			267.2,308.3 267.1,308.3 266.9,308.3 266.8,308.3 266.7,308.5 266.7,308.9 266.6,309 266.5,309 266,308.9 265.9,308.9
			265.5,309.2 265,309.9 264.7,310.1 264.4,309.9 264,309.6 263.8,309.5 263.6,309.5 263,309.8 263.2,310 263.2,310.2 263.2,310.3
			263,310.4 262,311.1 261.5,311.8 261.3,311.9 260.9,311.1 260.7,310.4 260.6,310.2 260.4,310 260.2,309.9 259,309.5 258.7,309.3
			257.8,308.5 257.3,308.2 257.1,308 256.9,307.3 256.5,306.9 256.4,306.6 255.9,306.1 255.5,306.1 255.2,306.6 255.2,307.2
			255.1,307.7 254.4,308 250.6,308.9 250.1,309.2 249.7,309.5 249.5,309.9 249.4,310.4 249.4,310.8 249.2,311 248.3,311.5
			248.1,311.7 247.9,312.2 247.8,312.5 247.7,312.7 247.2,312.8 246.5,312.9 246.3,313 246.3,313.4 246,314.1 245.3,314.6
			243.7,315.1 243.5,315.1 243.4,315.1 243.2,315.1 243.2,315.3 243.1,315.5 243.2,315.7 243.2,315.9 243.4,316 244.5,316.4
			244.8,316.5 244.9,317.2 244.8,318.6 244.8,320.3 244.7,322.5 244.6,324.9 244.5,326.1 244.5,327.9 243.1,327.9 241.3,327.8
			239.7,328.1 238.8,328.6 239.5,329.8 239.9,330.2 241.2,331.5 241.6,332 241.6,332.1 241.9,332.2 242,332.3 242,332.4
			242.1,332.8 242.2,332.9 242.2,332.7 242.3,332.6 242.2,332.4 242.3,332.2 242.4,332.2 242.6,332.2 242.9,332.3 243.1,332.3
			243.4,332.4 243.5,332.6 243.5,332.9 243.3,333.1 242.9,333.4 242.8,333.5 243,333.7 243.3,333.8 243.5,333.7 245.6,332.6
			246.2,332.5 247.5,332.5 248,332.3 248.5,331.8 248.8,330.9 248.9,330.7 249.3,330.3 249.4,330.2 249.8,330.2 250,330.1
			250.4,329.8 251.1,329.6 251.8,329.5 252.4,329.6 252.7,329.6 253.4,329.9 253.6,330 254.7,330.1 254.9,330.1 255.2,330.3
			255.5,330.4 255.9,330.5 256.2,330.5 256.8,330.3 257.1,330.2 257.3,330.3 258.9,330.5 259.7,330.7 260.3,331 260.5,330.8
			260.9,330.4 261,330.3 261.7,330.4 263.2,330.4 263.7,330.6 264,330.5 264.3,330.4 264.5,330.4 266,330.5 269.1,330.3
			271.7,330.1 272.5,330.3 272.9,330.5 273.2,330.6 275.5,330.5 275.9,330.5 277,330.9 277.4,331 279.4,331 281.1,331 282,330.9
			283.2,331.2 283.8,331.3 286.2,330.8 288,330.8 289.7,330.8 291.4,330.7 293.2,330.7 294.9,330.7 296.6,330.6 298.4,330.6
			300.1,330.6 301.8,330.6 303.6,330.5 305.3,330.5 307,330.5 308.8,330.4 310.5,330.4 312.2,330.4 314,330.3 315.7,330.3
			316.8,330.3 317.3,330.4 317.6,330.6 317.9,330.8 318.3,331.1 318.6,331.1 318.9,331.1 319.5,330.9 319.9,330.8 320.3,330.8
			320.6,330.9 321.3,331.2 321.5,331.3 322.2,331.6 322.1,331.8 321.8,332.1 321.8,332.2 322,332.5 322.1,332.7 322.2,332.8
			322.2,334 322.3,334.2 322.4,334.2 322.6,334.1 322.7,334.1 322.8,334.3 322.4,334.8 322.8,334.8 323,335 323.4,335.4
			323.6,335.5 323.8,335.6 324,335.7 324.1,336 324.5,336.4 324.6,336.6 324.6,336.9 324.4,337.1 324.4,337.5 324.4,338.1
			596.2,175.1 		"/>
		<polygon fill="#F7D618" points="352.8,214.1 396.8,180.5 350.4,180.5 350.3,182.1 350.4,182.9 350.4,183.2 350.3,183.6
			350.1,184.2 350.1,184.5 350.2,189.9 350.2,190.3 349.1,192.8 349,193.1 348.9,193.8 348.2,195.9 348.1,197.1 348,197.5
			347.2,198.8 346.8,199.3 346.4,200 346.3,200.4 346.5,201.7 346.5,203.2 347.1,205.6 347.1,206.1 346.8,207.6 346.8,208.1
			346.9,208.6 347.3,209.5 347.6,209.7 347.8,210 347.9,210.3 347.9,210.7 347.8,212.5 347.7,212.8 346.1,215.1 344.6,219.1
			344.2,219.8 343.4,223.3 343.4,223.8 343.4,224.3 343.9,226.1 344.1,229.5 343.9,229.7 343.7,230 342.4,231.2 342.3,231.3
			342.3,231.5 342.2,231.7 342.2,231.8 342.1,231.9 341.9,232 341.7,232.3 341.3,232.6 337.6,236.9 337.2,237.4 336.8,237.9
			336.6,238 336.1,238.2 336.1,238.3 335.7,238.8 335.5,238.9 334.5,239.2 333.5,239.3 333.2,239.4 332.1,239.8 369.6,268.5 		"/>
		<polygon fill="#F7D618" points="422.6,376.5 423.1,377 423.3,377.4 423,377.5 422.9,377.8 423.2,378.3 423.6,379 423.8,379.8
			423.7,380.6 423.2,382.1 423.3,382.2 423.4,382.2 423.5,382.2 423.6,382.2 423.3,382.9 423.1,383.4 422.8,384.8 422.7,386
			422.5,386.2 422.4,386.8 422.2,387.3 422,388.8 422.1,389.8 421.8,392 422,393.9 422,394.7 421.8,395.5 421.3,396.5 564,310.9
			564.3,309.4 565.5,306.3 565.7,304.7 565.6,303.9 565.5,303.7 564.9,299.1 564.3,296.9 563.1,294.9 562.4,294.2 562.1,293.8
			561.9,293.3 561.9,292.7 422.5,376.4 		"/>
		<polygon fill="#F7D618" points="575.6,205.9 575.5,205 575.5,204.8 575.9,204 576.1,203.9 576.8,203.4 577.6,203 579.6,202.5
			579.8,202.4 580,202.2 580.4,201.6 580.4,201.5 580.5,201.2 580.9,200.7 581.1,200.4 581,199.6 581,199.3 581.2,199 581.3,198.9
			581.3,198.7 581.3,198.3 581.4,198.1 582,197.5 582.1,197.5 582.3,197.4 582.5,197.4 582.7,197.6 583,197.8 583.2,197.5
			583.5,197.1 583.8,196.9 584,196.9 584.5,196.9 584.7,196.9 585.1,196.8 585.3,196.7 585.6,196.5 586,196.2 588.2,193.3
			589.8,191.3 592.4,189.2 595,187.1 596.4,186 598.1,183.8 599.3,182.3 600.5,180.9 601,179.9 601.2,178.9 601,178.6 599.9,177.9
			599.5,177.6 599.3,177.3 599.3,176.9 599.2,176.1 598.3,176.4 598,176.5 597.7,176.5 596.9,176.3 596.6,176.2 596.5,176
			596.6,176 596.7,175.9 596.7,175.8 596.7,175.7 596.6,175.6 596.2,175.1 324.4,338.1 324.4,338.8 324.4,339 324.5,339.2
			324.5,339.4 324.5,339.6 324.4,339.6 324.2,339.6 324.1,339.7 324,339.9 324,340.6 324,340.7 324.1,340.9 324.2,341 324.4,340.9
			324.5,341 324.5,341.2 324.4,341.4 324.2,341.7 324.2,341.9 324.7,341.9 324.5,342.2 324.5,342.4 324.7,342.6 324.9,342.8
			325,343 325,343.2 324.8,343.5 324.7,343.9 324.8,344.2 325,344.8 325.1,345.2 325.2,345.9 325.3,346.2 325.4,346.5 326.5,348
			326.5,348.3 326.6,348.5 326.6,348.8 326.9,349 327.1,349.1 327.5,349.1 327.7,349.2 328.2,349.5 328.4,349.9 328.6,351
			328.5,351.1 328.5,351.3 328.5,351.5 328.6,351.6 328.9,351.6 329,351.7 329.1,351.9 329.2,352 329.3,352.3 329.2,352.6
			329.1,353 329.1,353.4 328.5,353.2 328.4,353.7 328.8,354.9 575.4,206.9 		"/>
		<polygon fill="#CE1021" points="575.4,206.9 328.8,354.9 328.8,354.9 328.8,356 328.9,356.1 329.1,356.2 329.3,356.5 329.6,356.9
			329.7,357.2 329.7,357.5 329.7,357.7 330.3,357.9 330.9,358.3 331.4,358.6 331.6,358.8 331.7,359.1 331.7,359.7 331.8,360
			332.1,360.2 332.2,359.9 332.3,359.9 332.4,359.9 332.6,360 333,360.1 333.2,360.2 333.2,360.4 333.1,360.5 332.9,360.6
			332.7,360.7 332.6,360.9 332.6,361.1 332.8,361.2 332.9,361.3 333.1,361.5 333.4,361.9 333.7,362.8 334,363.2 334.9,363.7
			335.3,364 335.2,364.3 335.3,364.6 335.3,365.1 335.3,365.4 335.6,365.2 335.6,365.4 335.7,365.4 335.7,365.4 335.6,365.5
			335.9,365.7 335.9,365.8 335.8,366 335.7,366.2 335.8,366.4 336.2,366.7 336.2,366.9 336.3,367 336.8,367.1 337,367.1 337,367.3
			337,367.6 337.1,367.7 337.4,367.7 337.4,367.9 337.3,368 337.4,368.1 337.6,368.1 337.8,368.1 337.9,368.4 337.9,368.6
			337.9,368.7 338.2,368.7 338.4,368.9 338.4,369.1 338.2,369.2 338.1,369.5 338.1,369.6 338.3,369.8 338.7,370 338.6,370.1
			338.6,370.2 338.7,370.2 338.7,370.3 338.8,370.3 338.9,370.2 339,370.1 339.1,370.7 339.2,370.9 339.4,371 339.9,371.3
			340,371.4 340.1,371.7 339.9,372.3 340,372.6 340.2,372.7 341.2,373 341.8,373 343.4,372.4 343.9,372.5 344.6,372.7 344.8,372.7
			346,372 346.3,372 346.9,372 347.5,372.3 348.5,373.1 349,373.2 350.7,373.2 350.6,372.7 350.6,372.2 350.8,371.7 351.1,371.5
			351.4,371.5 352.2,371.1 352.5,371 353.9,371.1 354.8,371.1 355.5,371.4 355.8,371.4 356.1,371.3 356.5,371.1 356.8,371.1
			358,371.1 358.1,371.1 358.5,371.1 358.4,370.3 358.4,370 358.6,369.8 362.9,369.8 363,369.9 363.1,370.5 363.2,370.7
			363.5,371.1 374.6,371.1 374.2,369.7 374.1,369.2 374.2,368.6 374.4,367.7 374.6,367.1 375,366 375.1,365.5 375.1,365
			374.9,364.5 374.7,364 374.5,363.5 374.6,363 375.9,363.1 376.3,363 376.5,362.7 376.7,362 377,361.6 377,361.6 377,361.6
			377,361.6 377.6,361.2 377.6,360.6 377.1,359.3 376.9,358.7 376.9,358.1 377.1,355 377.3,354.4 377.5,354 378,353.4 378.1,353.1
			378.1,352.9 377.7,352.1 392.4,352.1 392.4,351.8 392.5,351.2 392.6,350.9 392.7,350.6 392.9,350.5 393.1,350.5 394.1,350.5
			395.7,350.5 397.4,350.5 398.4,350.5 398,351.6 397.5,353 397.2,353.7 396.8,354.8 396.7,355.7 396.7,356.6 396.7,357.5
			397.6,357.5 399,357.5 400.4,357.5 401.8,357.5 403.1,357.5 404.5,357.5 405.9,357.5 407.3,357.5 408.7,357.5 410,357.5
			411.4,357.5 412.8,357.5 414.2,357.5 415.6,357.5 417,357.5 418.3,357.5 419.7,357.5 420.4,357.5 420.7,357.5 420.7,357.5
			420.8,357.6 420.9,357.7 421.1,357.8 421.2,357.9 421.6,358.8 421.7,358.9 421.8,359.1 421.8,359.3 421.7,359.4 421.7,359.5
			421.8,359.7 421.9,359.9 422,360 422.1,360.2 422,360.4 421.9,360.5 421.9,360.6 422,360.7 422.2,360.9 422.2,361 422.2,361.3
			422,361.6 421.9,361.9 421.9,362.1 422,362.2 422,362.3 422.1,362.5 422.1,363.2 422,363.4 421.7,363.7 421.7,363.8 421.6,364.1
			421.4,364.7 421.2,365.4 420.9,366.1 420.8,366.5 420.6,367.1 420.5,367.4 420.4,368.3 420.5,368.8 420.5,369 420.5,369.2
			420.2,369.6 420.1,369.8 420.2,371.1 420.2,371.4 420.4,371.6 421,371.9 421.2,372.1 421.2,372.6 421.3,373 421.5,373.3
			422,373.8 422.1,374.1 422.2,374.4 422.2,375.2 422.4,376.1 422.5,376.4 561.9,292.7 561.8,291 562.1,288.9 562.1,287.4
			561.8,282.6 561.8,282 561.9,281.8 562.4,281.3 562.1,281 562,280.7 561.9,279.4 562,279 562.1,278.7 562.4,278.6 562.5,278.3
			562.3,277.1 562.1,276.8 561.9,276.6 561.5,276.5 561.2,276.5 560.8,276.3 560.7,276 560.6,275.6 560.5,275.3 560.2,275.1
			559.9,275 559.6,274.8 559.4,274.5 559.4,274.2 559.3,274.1 559,273.6 558.9,273.1 558.8,273 558.5,272.9 558.1,272.8
			557.8,272.7 557.6,272.4 557.6,272 557.8,271.7 558,271.5 558.4,271.4 558.1,271 557.9,270.6 557.5,270.5 556.9,270.4
			556.7,270.3 555.9,269.8 555.8,269.7 555.9,268.2 555.8,267.8 555.6,267.6 555.4,267.5 555.2,267.4 555.1,267.1 555.2,266.9
			555.5,266.6 555.5,266.4 555.3,266 555.2,265.7 555.2,265.3 555.3,264.8 555.6,264.5 556.1,264.4 556.5,264.2 556.8,264
			557.1,263.8 557.3,263.4 557.5,263.1 557.5,262.9 557.5,262.8 557.7,262.6 557.9,262.5 558.4,262.6 559.3,262.3 559.9,261.8
			560.4,261.1 560.7,260.2 560.8,259.4 560.8,258.7 560.3,255.8 560.2,255.1 560.3,254.4 560.7,253.6 561.9,251.7 562.3,250.9
			562.5,250.6 563.4,249.8 563.6,249.6 564.1,248.5 564.4,248.2 564.7,248.1 566.1,248 566.2,248 566.2,248 566.3,247.9
			566.7,247.3 567.3,246.6 568.1,246.1 568.8,245.8 569,244.7 569,244.3 568.9,244.1 568.7,243.7 568.7,243.5 568.9,243.1
			568.9,242.9 568.8,242.5 568.6,242.2 568.4,241.9 568.4,241.4 568.7,240.3 568.7,239.9 568.6,239.6 568.3,238.8 568.3,238.5
			568.3,238.3 568.4,238.1 568.5,237.9 568.5,237.7 568.4,237.3 568.4,237.1 568.4,236.9 568.6,236.6 569.2,236.4 569.4,236.2
			569.5,235.9 569.5,234.8 569.5,234.4 569.3,233.6 569.3,233.2 569.6,231.7 569.6,231.7 569.7,231.6 569.8,231.5 569.8,231.3
			569.8,231.2 569.7,231 569.6,230.9 569.7,230.7 569.9,230.6 570.1,230.6 570.2,230.5 570.3,230.3 570.2,229.1 570.1,228.8
			569.9,228.3 569.8,227.9 570.3,225.2 570.7,222.7 571,220.8 571.3,220.1 571.4,219.7 571.4,219.4 571.2,218.5 571.2,218.2
			571.4,217.7 572.2,216.6 572.3,216.3 572.6,216.4 572.7,216.5 572.8,216.6 573,216.5 573.1,216.3 573.7,213.2 573.8,212.8
			574,212.5 575.4,210.9 575.7,210.2 575.7,209.4 575.3,207.9 575.3,207.5 		"/>
	</g>
	<path fill="none" stroke="#999999" stroke-width="0.25" stroke-linecap="round" stroke-linejoin="round" d="M252.9,330.2l-0.6,0.1
		l-1.2-0.1l-0.6,0.2l-0.7,0.4l-0.6,0.5l-0.3,0.5l0.1,0.2l0.3,0.1l0.3,0l0.3-0.1l0.7-0.8l0.3-0.2l0.6-0.1l1.2-0.1l0.5-0.3h0.1
		l-0.1-0.2L252.9,330.2z M601,178.6l-1.1-0.6l-0.4-0.3l-0.1-0.3l-0.1-0.4l0-0.8l-0.9,0.3l-0.3,0l-0.3,0l-0.8-0.1l-0.3-0.1l-0.1-0.2
		l0.1-0.1l0.1-0.1l0-0.1l0-0.1l0-0.1l-1.1-1.2l-0.3-0.2l-0.7,0l-0.3,0.5l-0.3,0.6l-0.5,0.3l-0.3-0.1l-0.4-0.3l-0.3-0.4l-0.2-0.3
		l0-0.3l0-0.3l0-0.2l-0.2-0.1l-1.3,0l-0.3-0.1l-0.1-0.3l0.2-0.4l0.2-0.4l0.1-0.3l0-0.3l-0.1-0.7l0-0.4l0.1-0.2l0.4-0.6l0-0.1
		l0.1-0.3l0.6-1.7l0-0.1l0-0.2l0-0.1l0.1-0.1l0.2,0l0.1,0l0.1-0.2l0.5-1.3l0-0.8l-0.2-0.7l-0.4-0.8l-0.3-0.3l-0.9-0.6l-0.2-0.3
		l0-0.4l0.1-0.4l1.1-3.2l0.3-0.7l0.1,0l0.2-0.1l0.1,0l0.1-0.1l0-0.2l0-0.1l0.4-0.6l0.5-0.6l0.2-0.3l0.1-0.4l0-0.2l-0.2-0.4l0-0.2
		l0.1-0.5l0-0.2l-0.2-0.5l-0.3,0.1l-0.4,0.3l-0.4,0.2l-0.2-0.4l0.2-1l-0.3-0.3l-0.6-0.2l-0.2-0.2l-0.1-0.3l-0.1-0.6l0-0.1l0-0.1
		l-0.3-0.2l-0.3,0.2l-0.3,0.4L590,151l-0.5,0l-0.2,0l-0.3,0.1l-0.6,0.3l-0.2,0.1l-0.4,0l-0.2,0l-0.2-0.1l-0.2-0.2l0-0.1l0.1-0.1
		l0.1-0.2l0.1-0.7l0-0.4l-0.5-2.8l-0.1-0.2l-0.1-0.2l-0.2-0.1l-0.2,0l-0.2,0.1l-0.2,0l-0.4,0l-0.2,0l-0.7-0.2l-0.8-0.5l-0.8-0.5
		L582,145l-1.2,0l-0.3-0.1l-0.1-0.2l0-0.2l0-0.2l0-0.2l-0.1-0.2l-0.5-0.5l-0.2-0.4l-0.1-0.4l-0.2-0.4l-0.4-0.2l-0.8-0.2l-0.3-0.2
		l-0.3-0.4l-0.4-0.8l-0.3-0.4l-0.4-0.3l-0.2,0h-0.2l-0.2,0l-0.1-0.2l0-0.2l0.1-0.2l0.1-0.2l0.1-0.2l-0.2-0.4l-0.4-0.4l-0.5-0.3
		l-0.4-0.1l-0.9,0l-0.5-0.4l-0.2-0.7l0-0.8l0.2-0.6l0-0.2l0-0.2l-0.1-0.3l0-0.2l0.1-0.2l0.2-0.2l0.1-0.2l-0.2-0.1l-0.2-0.1l-0.4-0.3
		l-0.1,0l-0.4,0.1l-0.1,0l-0.3-0.2l-0.5-0.5l-0.2-0.2l-0.8-0.4l-0.2,0l-0.6,0l-0.6-0.2l-0.1,0l-0.1,0l-0.1,0l-0.3,0.1l-0.1-0.1
		l-0.2-0.2l-0.1,0l-0.4-0.1l-0.3,0.1l-0.2,0.2l0,0.7l-0.1,0.3l0,0.2l0,0.2l-0.4,0.3l-0.1,0.2l-0.1,0.4l-0.2,0.4l-0.2,0.3l-1,0.8
		l-0.2,0.3l-0.2,0.5l-0.3,0.5l-0.3,0.1l-0.4-0.1l-0.5,0l-0.2,0.2l0,0.4l-0.1,0.3l-0.5,0.1l-0.4-0.2l-1.2-1.2l-0.2-0.2l-0.8-0.3
		l-0.1,0l-0.1-0.3l-0.2-0.1l-0.9-0.6l-0.1-0.1l-0.1-0.1l-1.2,0.3l-0.4,0l-0.9-0.1l-0.6,0.1h-0.2l-0.5-0.2l-0.1-0.4l0-0.4l-0.3-0.4
		l-0.1,0l-0.1,0l-0.2,0.1l-0.2,0.2l-0.3,0.1h-0.4l-0.2,0l-0.8,1.5l-0.3,0.4l-0.3,0.2l-0.8,0.2l-0.2,0.1l-0.1,0.2l0,0.2l-0.1,0.2
		l-0.2,0l-0.2,0l-0.2,0l-0.2,0l-0.4,0.1l-0.3,0.2l-0.7,1l-0.4,0.3l-0.4,0.2l-0.4,0l-0.5-0.1l-0.2-0.2l-0.1-0.3l-0.2-0.4l-0.6-0.5
		l-0.8,0l-0.8,0.2l-0.8-0.1l-0.4-0.3l-0.3-0.4l-0.5-0.7l-0.1-0.4l-0.1-0.2l-0.2,0l-0.2,0l-0.2,0.1l-0.3,0.3l-0.2,0l-0.6-0.8
		l-0.1-0.2l-0.1-0.1l0-0.2l0-0.2l0.1-0.4l0.1-0.3l-0.1-0.2l-1-0.1l-0.2,0l-0.1,0l-0.2-0.2l-0.1,0l-0.2,0.1l-0.1,0.1l0,0l0,0l0,0.1
		l0,0.1l-0.1,0l-0.3-0.1l-0.1,0l-0.5,0.1l-0.1,0l-0.2-0.1l-0.3-0.4l-0.2-0.2l-0.2-0.1l-0.2,0l-0.3-0.1h-0.1l-0.1-0.3l-0.1-0.5l0-0.8
		l0.2-1.1l-0.1-0.4l-0.1-0.2l-0.1-0.2l-0.2-0.2l-0.2-0.1l-0.2,0l-0.4,0.1h-0.1l-0.2-0.2l-0.1-0.3l-0.2-0.8l-0.2-0.4l-0.3-0.2
		l-1.7-0.2l-0.2-0.1l-0.2-0.1l-0.3-0.3l-0.1-0.2l-0.1-0.4l-0.1-0.2l-0.2-0.2l-0.6-0.5l-0.1-0.1l-0.1-0.1l-0.1-0.1l-0.1-0.1l0.1-0.8
		l0-0.2l-0.5-0.2l-0.2,0l-0.3-0.2l-0.2,0l-0.4,0l-0.2,0l-0.2-0.1l-0.3-0.2l-0.2-0.2l-0.3-0.2l-0.3-0.1l-0.4,0l-0.4-0.1l-1.6-0.8
		l-0.8-0.3l-0.8-0.1l-0.9,0.3l-0.7,0.4l-0.6,0.4l-0.5,0.5l-0.6,0.6l-0.1,0.2l-0.2,0.5l-0.1,0.2l-0.2,0.2l-0.1,0.1l-0.3,0l0,0
		l-0.1-0.1l-0.1-0.1l-0.1,0l-0.1,0l-0.2,0.2l-0.1,0l-0.1-0.1l-0.8-0.8l-0.1-0.1l-0.3,0H514l-0.2,0.1l-0.3,0.2l-0.2,0.1l-0.3-0.1
		l-0.2,0l-0.1,0.2h-0.1l-0.1-0.2l-0.3,0l-0.3,0.1l-0.2,0.3l-0.1-0.1l-0.1,0.1l-0.2,0.1l-0.2,0.1l-0.2,0l-0.3,0l-0.5-0.2l-0.2,0
		l0-0.1l-0.4-0.7l-0.2-0.2l-0.3-0.2l-0.3-0.2l-0.2-0.3l-0.4,0.2l-0.1,0.1l-0.2-0.2l-0.3,0l-0.4,0l-0.5-0.1l-0.4-0.2l-0.3-0.3
		l-0.1-0.3l-0.1,0l-0.2,0.1l-0.1,0l0-0.3l0-0.1l-0.2,0.1l-0.1-0.2l-0.2-0.6l-0.1,0.1l-0.2,0.2l-0.1-0.1l-0.1-0.1l-0.1-0.1l-0.3,0.1
		l-0.1-0.1l-0.1-0.2l-0.3-0.1l-0.1,0.2l-0.1,0.1l-0.1,0.1l-0.2,0l-0.1,0l-0.1,0l-0.1-0.1l0.1,0.5l0.1,0.2l-0.2-0.1l-0.2,0l-0.1,0.1
		l-0.1,0.2l-0.1,0l-0.2,0l-0.3,0l-0.2,0.1l-0.2-0.2l-0.3-0.4l-0.2-0.1l-0.3,0l-0.2,0.1l-0.1,0.2v0.3l-0.3-0.1l-0.3,0l-0.2,0.2l0,0.4
		l-0.3-0.3l-0.2-0.3l-0.2-0.3l-0.4,0l-0.1,0.1l-0.2,0.2l-0.2,0.1l-0.1-0.4l-0.1-0.1l0-0.2l0.1-0.3l-0.1,0l-0.2,0l-0.1,0l0-0.5
		l-0.3-0.1l-0.2,0.1l0.2,0.1l-0.2,0.3l-0.3,0l-0.3-0.1l-0.2-0.2l-0.5-0.6l-0.3-0.2l-0.4-0.1l0,0l-0.1,0l-0.1-0.2l-0.1,0l-0.2,0
		l-0.1,0.1l-0.1,0l-0.3-0.2v-0.1l0.1-0.1l0.1-0.1l0.1-0.1l0-0.1l-0.4,0l-0.2-0.2l-0.1-0.2l-0.1-0.2h-0.1l-0.3,0l-0.3,0L492,118
		l0.2,0.3l-0.2,0.1l-0.5,0.2l-0.2,0l-0.2-0.2l-0.1,0l0,0.1l-0.9,0.5l-0.4,0.1l-0.3-0.2l-0.2,0.2l-0.3,0.1l-0.1,0.1l0.2,0.3l-0.4,0.1
		l-0.2,0.3l-0.1,0.4l0,0.4l-0.1,0.2l-0.2,0.3l-0.2,0.3l0.1,0.4l0.1,0.1l0.4,0.1l0.1,0.1l0,0.1l-0.1,0.4l0,0.2l-0.1,0.1l-0.3,0.3
		l-0.1,0.2l0,0.5l-0.1,0.2l-0.2,0.2l-0.3,0.1l-0.8,0.1l-0.2,0.2l-0.2,0.1l-1.2,0.1l-0.2-0.1l-0.1-0.1l-0.1-0.1l-0.2,0l-0.1,0.2
		l-0.1,0.1l-0.2,0.1l-0.1,0.1l-0.2,0.4l-0.1,0.4l-0.2,0l-0.7-0.2l-0.7-0.4l-0.7-0.2H481l-0.1,0.1l-0.4,0.3l-0.1,0.1l-0.4,0.1
		l-0.7,0.4l-0.4,0.1l-0.2,0l-0.2-0.1l-0.2,0l-0.2,0.1l-0.2,0.2l-0.2,0.2l-0.2,0l-0.2-0.2l-0.3,0.2l-0.4,0l-1.3-0.1l-0.2-0.1l0.1-0.2
		l0.2-0.3l-0.3-0.2l-0.6-0.2l-0.2-0.2l-0.1-0.2l0-0.4l-0.2-0.2l-0.2-0.1l-0.5-0.1l-0.2-0.1l-0.1-0.1l-0.2-0.4l-0.1-0.1l-0.4-0.3
		l-0.5-0.3l-0.5-0.1l-0.4,0.1l-0.1,0.2l0,0.3l-0.1,0.2l-0.3-0.1l-0.1-0.2l-0.2-0.6l-0.1-0.2l-0.3,0.3l-0.3,0.4l-0.1,0.4l0.2,0.2
		l0.5,0.1l0,0.2l-0.2,0.3l-0.3,0.2l-1.4,0.2l-0.2,0.2l0,0l-0.2,0.5L468,126v0.2l0,0.1l-0.2,0.1h-0.1l-0.1-0.5l-0.3-0.1l-0.4,0.1
		l-0.4,0.2l-0.5,0.7l-0.2,0.1l-0.3-0.1l-0.4-0.3l-0.2-0.1l-0.4,0.1l-0.3,0.2l-0.5,0.4l-1,0.5l-0.3,0.2l-0.3-0.3l-0.1,0l-0.1,0.1
		l-0.1,0.1l-0.1,0.2l0,0.2l0.1,0.2l0,0.2l-0.5,0l-0.8-0.2l-0.1,0l-0.2,0.2l-0.2,0.1l-0.1,0l-0.4-0.1l-0.2,0l-0.3,0.1l-0.7,0.5
		l-0.4,0.2l-0.9,0.1l-0.4,0.1l-0.7,0.4l-0.9,0.2l-0.4,0.2l-1.2,0.9l-0.3,0.1l-0.4,0.1l-0.3,0.1l-0.2,0.2l-0.1,0.3l0,0.2v0.2l0,0.1
		l-0.1,0.1l-0.2,0.1l-0.3,0l-0.1,0.1l-0.3-0.2l-0.3-0.1l-0.3-0.1l-0.4,0l-0.1,0l-0.2-0.2l0-0.1l-0.1,0l-0.4-0.1l-0.2-0.1l-0.2-0.5
		l-0.5-0.3l-0.1-0.1l-0.2-0.1l-0.5-0.7l-0.3-0.2l-0.9,0.4l-0.5,0.1l-0.4-0.2l-0.2-0.2l-0.2-0.1l-0.2-0.1l-0.3,0l-0.2-0.1l-0.1-0.2
		l-0.1-0.3l-0.2-0.4l-0.2-0.5l-0.2-0.1l-0.2,0l-0.2,0.1l-0.2,0.1l-0.2,0.1l-0.3,0l-0.2-0.1l-0.1,0l-0.2,0.2l-0.1,0.2l0,0.2l0.1,0.2
		l0.2,0.2l-0.2,0.2l-0.4,0.3l-0.2,0.5l-0.3-0.1l-0.4-0.2l-0.3-0.1l-0.3,0.1l-0.2,0.3l-0.2,0.6l-0.2,0.3l-0.2,0.2l-0.2,0.2l-0.3,0.2
		l0,0.2l0.1,0.4l0,0.2l0,0.1l-0.2,0.3l0,0.1l-0.1,0.1l-0.3,0.2l-0.1,0.1v0.4l0,0.2l-0.1,0.2l-0.3,0.1l-0.4,0l-0.8,0l-0.3,0.2
		l-0.1,0.5l0,0.5l0.1,0.4l0.3,0.4l0,0.1l-0.1,0.2l-0.2,0.2l-0.2,0.2l-0.2,0.1l-0.1,0.2l-0.6,1l0,0.2l0.1,0.4l0,0.2l-0.1,0.2
		l-0.3,0.3l-0.1,0.1l-0.1,0.3l-0.3,0.3l-0.7,0.5l-0.5,0.2l-0.2,0.1l-2.3,0.1l-1.8-0.4l-0.4-0.3l-0.4-0.2l-0.2-0.1l-0.4-0.4l-0.1-0.1
		l-0.4-0.1l-1-0.2l-0.9-0.4l-0.1,0l-0.2,0l-0.1,0l-0.1,0l-0.2,0.1l-0.4,0.1l-1.1-0.1l-0.4-0.1l-0.3-0.2l-0.3-0.2l-0.3-0.2l-0.2,0
		l-0.5,0l-0.2,0l-0.1-0.1l-0.1-0.1l-0.1-0.1l-0.4-0.1l-0.3,0l-0.6,0.1l-0.7-0.1l-0.3,0l-1.8,0.9l-0.2-0.1l-0.4,0l-0.2,0l-0.1-0.1
		l-0.1-0.1l-0.2-0.1l-0.2-0.1l-0.8,0l-0.4,0l-0.4-0.1l-0.3-0.1l-0.9-0.6l-0.1-0.1l-0.1-0.1l-0.2-0.1l-0.2,0l-0.2,0l-0.1,0.1
		l-0.2,0.1l-0.1,0.1l-0.1,0.2l-0.1,0.1l-0.2,0.1l-0.2,0l-0.1-0.1l-0.1-0.1l-0.2-0.1l-0.4,0l-0.1-0.1l-0.2-0.3l-0.2-0.1l-0.5-0.2
		l-0.2-0.2l-0.4-0.7l-0.2-0.1l-0.3-0.1l-1.8-0.7l-1.7-0.4l-0.7,0.1l-0.3,0.1l-0.2,0.2l-0.3,0.2l-0.5,0.1h-1.5l-1.6,0.2l-0.4-0.1
		l-0.4-0.3l-2-1.9l-0.2-0.4l0.1-0.4l0.2-0.3l0.1-0.3l-0.1-0.4l-0.3-0.4l-0.4-0.3l-0.3-0.1l-0.2-0.1l-0.4-0.9l-0.4-0.6l-0.3-0.3
		l-0.3-0.1l-0.4-0.1l-0.9-0.3l-0.3-0.2l-0.4-0.3l-0.9-1.1l-0.4-0.2l-1.3-0.5l-0.6-0.4l-0.4-0.4l-0.5-0.3l-1.7-0.4l-0.5-0.2l-0.2-0.3
		l-0.1-0.3l-0.5-0.8l-0.2-0.3l-0.3-0.2l-0.9-0.4l-0.6-0.1l-0.4-0.2l-0.2,0l-2.2,0l-0.7-0.3l-0.4,0.1l-0.6,0.3l-0.4,0l-1.2,0
		l-0.4,0.1l-0.3,0.3l-0.4,0.6l-1.7,1l-0.9,0.4l-0.1,0.2l-0.3,0.5l-0.4,0.5l-0.3,0.1l-0.9,0l-0.3,0.1l-0.6,0.6l-0.3,0.3l-0.2,0.4
		l-0.2,0.6l-0.1,0.2l-0.2,0.2l-0.2,0.1l-0.1,0.2l-0.2,0.7l-0.3,0.3l-0.3,0.2l-0.3,0.3l-0.6,1.1l-0.1,0.1l-0.4,0.1l-0.1,0.1l0,0
		l-0.2,0.6l-0.6,0.5l-0.5,0.6l-1,2.4l-0.4,0.6l-0.6,0.4l-0.9,0.3l-0.4,0.1l-0.4,0l-0.4-0.1l-0.3-0.2l-0.4,0l-0.4,0.4l-0.3,0.5
		l-0.1,0.4l0.1,0.3l0.5,0.4l0.1,0.2l0.1,0.4l0.7,1.3l0.2,0.7l0.3,1.6l0,1.2l-0.1,0.5l-0.1,0.4l-0.4,0.6l0,0.4l0,0.9l-0.4,2.3
		l0.6,4.4l0.2,0.5l0.2,2.4l-0.2,2.7l-0.2,0.4l0,0.2l-0.1,0.3l-0.3,0.3l-0.7,0.3l-0.4,0.3l-0.2,0.3l-0.6,1.9l-0.3,0.5l-0.1,0.2
		l-0.1,0.4l-0.1,0.2l-0.3,0.5l-0.5,1l-0.1,0.3l-0.1,0.5l-0.5,1.3l-1.4,2.4l-0.1,0.2l-0.2,0.1l-1.1,1l-0.3,0.3l-0.1,0.3l-0.2,1.1
		l-0.1,0.4l-0.2,0.4l-0.2,0.3l-0.3,0.7l-0.2,0.3l-0.3,0.1l-0.1,0.2l-0.5,0.5l-0.1,0.2l-0.7,2v0.3l0.1,0.6l0.1,0.6l-0.1,1.8l0.1,0.9
		l0,0.3l-0.1,0.3l-0.2,0.6l0,0.3l0.1,5.4l0,0.4l-1.1,2.4l-0.1,0.4l-0.1,0.7l-0.7,2.1l-0.1,1.2l-0.1,0.4l-0.8,1.3l-0.4,0.5l-0.4,0.7
		l-0.1,0.4l0.2,1.3v1.5l0.6,2.4v0.5l-0.3,1.5l0,0.5l0.1,0.5l0.4,0.9l0.3,0.2l0.2,0.3l0.1,0.4l0,0.3l-0.1,1.8l-0.1,0.3l-1.6,2.3
		l-1.5,4.1l-0.3,0.7l-0.8,3.5l0,0.5l0,0.5l0.5,1.9l0.2,3.3l-0.1,0.2l-0.3,0.4l-1.2,1.1l-0.1,0.1l-0.1,0.1l0,0.3l0,0.1l-0.1,0.1
		l-0.2,0.2l-0.2,0.3l-0.4,0.3l-3.6,4.3l-0.5,0.5l-0.4,0.5l-0.2,0.1l-0.5,0.2l-0.1,0.1l-0.4,0.4l-0.2,0.1l-1,0.3l-1,0.1l-0.4,0.1
		l-1.3,0.5l-0.9,0.3l-0.6,0.1l-0.1,0.1l-0.2,0.1l-0.1,0l-0.1,0.1l-0.5,0.5l-0.7,0.7l-0.6,0.7l-0.9,0.7l-0.4,0.3l-0.1,0.1l-0.1,0.1
		l-0.2,0.5l-0.4,0.8l-0.3,0.7l-0.3,0.4l-0.7,1.4l-0.6,0.8l-0.4,0.9l-0.6,1l-0.1,0.3l-0.1,0.3l0,0.2l0,0.6l-0.1,0.6l-0.2,0.5l-1.6,2
		l-0.1,0.2l-0.1,0.3l-0.1,0.1l-0.3,0.3l-0.3,0.1l-0.1,0.1l-0.2,0.2l-0.3,0.4l-1.2,1.2l-0.8,0.6l-1.1,1l-0.5,0.4l-0.5,0.4l-0.5,0.6
		l-0.2,0.4l-0.1,0.4l0,0.4l0,0.1l0,0.1l-0.2,0.8l0,0.3l0.1,0.3l0.2,0.3l0,0.1l0,0.2l0,0.9l0.6,4.5l-0.4,2.8l-0.4,1.4l-0.1,0.3l0,0.3
		l0.2,1.8l-0.1,0.9l0.1,1.1l-0.1,1l0.1,0.3l0.2,0.4v0.4l-0.1,0.8l0.1,0.4l0.2,0.2l0.2,0.2l0.1,0.2l0,0.4l-0.1,0.4l-0.2,0.6l-0.9,1.6
		l-0.4,1l-0.4,0.8l-1.2,1.4l-0.8,1.6l-0.1,0.4l-0.3,0.3l-0.3,0.9l-0.6,1l-0.1,0.1l-0.1,0.2l-0.3,1.1l-0.6,0.5l-0.7,0.4l-0.8,0.3
		l-0.9,0.1l-0.8,0.1l-2.7,0.9l-0.3,0.2l-0.3,0.2l-0.2,0.4l-0.6,1.9l-0.1,0.2l-0.4,0.4l-0.1,0.1l-0.2,0.1l-0.5,0.2l-0.7,0.3l-2.1,1.1
		l-0.4,0.2l-0.5,0.2l-0.5,0.3l-0.2,0.4l-0.1,0.3l-1.7,2.4l-0.4,0.4l-1,0.5l-0.2,0.2L292,306l-1.5,1.4l-1.6,2.6l-0.1,0.3l-0.2,0.3
		l-0.3,0.2l-0.9,0.4l-1.3,0.8l-0.6,0.2l-0.7,0.1l-0.2-0.1l-0.6-0.4l-0.2-0.1l-0.1,0l-0.2-0.2l-0.1-0.1l-0.2,0l-0.4,0l-0.1-0.1
		l-0.2-0.2l-0.3,0l-0.4,0.1l-0.2,0.1l-0.4,0.4l-0.2,0.1l-0.4,0.1l-0.3,0.1l-0.1-0.6l0.3-1.5l-0.1-0.2l-0.1-0.2l-0.1-0.2l0-0.2l0-0.2
		l0.1-0.3l0-0.2l-0.1-0.5l-0.2-0.3l-0.3-0.3l-0.3-0.4l-0.2-0.7l-0.1-0.4l0-0.1l0.2-0.3l0.3-0.3l0.7-0.3l0.2-0.2l0.2-0.3l0.3-0.4
		l0.3-0.4l0.1-0.4l-0.1-0.1l-0.7-0.4l-0.4-0.4l-0.3-0.5l-0.1-0.3l0-0.1l0.1-0.1l0.1-0.3l0-0.2v-0.2l0-0.2l-0.1-0.1l-0.4,0l-0.8,0.4
		l-0.9,0.2l-0.4,0.3L277,302l-0.7,0.3l-0.7,0.2l-1.7,0.2l-0.7,0.3l-0.6,0.8l0,0.1l0,0l-0.3,0.2l-0.3,0.4l-0.2,0.1l-0.2,0l-0.6-0.2
		l-0.5,0l-0.2,0l-0.2-0.2l-0.3-0.5l-0.2-0.2l-0.4-0.3l-0.4,0l-1.2,0.4l-0.2,0.1l-0.1,0.2l0.2,1.8l-0.1,0.4l-0.3,0.8l-0.1,0.4
		l0.3,0.8l-0.1,0.2l-0.1,0l-0.2,0l-0.2,0.1l-0.1,0.2l0.1,0.3l-0.1,0.1l-0.2,0l-0.4-0.1l-0.2,0l-0.4,0.3l-0.4,0.8l-0.4,0.1l-0.2-0.1
		l-0.4-0.4l-0.2-0.1l-0.2,0l-0.6,0.4l0.2,0.2l0.1,0.2l-0.1,0.1l-0.2,0.1l-1,0.7l-0.5,0.6l-0.2,0.2l-0.4-0.8l-0.1-0.7l-0.1-0.2
		l-0.2-0.2l-0.3-0.2l-1.1-0.4l-0.3-0.2l-0.9-0.8l-0.5-0.3l-0.2-0.2l-0.2-0.6l-0.3-0.5l-0.1-0.3l-0.4-0.5l-0.5,0.1l-0.3,0.4l0,0.6
		l-0.2,0.5l-0.7,0.2l-3.7,0.9l-0.6,0.3l-0.3,0.4l-0.2,0.4l-0.1,0.4l0,0.4l-0.2,0.2l-0.9,0.5l-0.3,0.2l-0.2,0.4l0,0.3l-0.1,0.2
		l-0.5,0.2l-0.7,0.1l-0.2,0.1l-0.1,0.4l-0.3,0.7l-0.7,0.5l-1.6,0.5l-0.2,0l-0.1,0l-0.1,0l-0.1,0.2l0,0.2l0,0.2l0.1,0.2l0.1,0.1
		l1.2,0.4l0.2,0.2l0.1,0.6l-0.1,1.5l-0.1,1.6l-0.1,2.3l-0.1,2.4l0,1.2l-0.1,1.8l-1.4,0l-1.7,0l-1.6,0.2l-0.9,0.5l0.7,1.2l0.3,0.4
		l1.3,1.3l0.4,0.5l0.1,0l0.2,0.1l0.1,0.1l0.1,0.1l0.1,0.3l0.1,0.2v-0.2l0-0.1l0-0.2l0-0.2l0.2-0.1l0.2,0l0.4,0.1l0.2,0l0.3,0.1
		l0.1,0.2l0,0.3l-0.2,0.3l-0.5,0.3l-0.1,0.2l0.2,0.2l0.3,0l0.3-0.1l2.1-1.1l0.6-0.1h1.3l0.5-0.2l0.4-0.6l0.3-0.9l0.2-0.2l0.4-0.4
		l0.1-0.1l0.4,0l0.2-0.1l0.5-0.3l0.7-0.2l0.7-0.1l0.5,0l0.3,0.1l0.7,0.3l0.3,0.1l1.1,0.1l0.2,0.1l0.3,0.2l0.3,0.1l0.3,0l0.3,0
		l0.6-0.2l0.3,0l0.3,0.1l1.6,0.1l0.8,0.2l0.6,0.3l0.2-0.2l0.4-0.4l0.1-0.1l0.6,0l1.5,0l0.6,0.2l0.2,0l0.3-0.1l0.2,0l1.5,0.2l3.1-0.3
		l2.6-0.2l0.7,0.2l0.5,0.3l0.3,0.1l2.3-0.2l0.4,0.1l1.1,0.4l0.4,0l2,0l1.7,0l0.9-0.1l1.2,0.3l0.6,0.1l2.4-0.4l1.8,0l1.7,0l1.7,0
		l1.7,0l1.7,0l1.7,0l1.7,0l1.7,0l1.7,0l1.7,0l1.7,0l1.7,0l1.7,0l1.7,0l1.7,0l1.7,0l1.7,0l1.1,0l0.5,0.1l0.3,0.2l0.3,0.2l0.4,0.2
		l0.3,0.1l0.3,0l0.6-0.2l0.4-0.1l0.3,0l0.3,0.1l0.7,0.3l0.1,0.1l0.7,0.3l-0.1,0.2l-0.3,0.3v0.1l0.2,0.2l0.1,0.2l0,0.2l0.1,1.2
		l0.1,0.2l0.1,0l0.2-0.1l0.2,0l0.1,0.2l-0.4,0.5l0.4,0l0.2,0.2l0.3,0.4l0.2,0.1l0.3,0.1l0.2,0.1l0.1,0.3l0.3,0.4l0.2,0.3l0,0.3
		l-0.1,0.2l0,0.3l0,1.4l0,0.2l0.1,0.2l0,0.2l0,0.2l-0.1,0.1l-0.2,0l-0.2,0.1l-0.1,0.2l0,0.7l0,0.1l0.1,0.2l0.1,0.1l0.1,0l0.1,0
		l0,0.2l-0.1,0.2l-0.2,0.3v0.2l0.4,0l-0.1,0.3l0,0.2l0.1,0.2l0.2,0.2l0.2,0.2l0,0.2l-0.2,0.4l-0.1,0.3l0.1,0.3l0.3,0.6l0.1,0.3
		l0.1,0.7l0.1,0.3l0.1,0.3l1,1.5l0.1,0.3l0,0.3l0.1,0.3l0.2,0.2l0.2,0.1l0.5,0l0.2,0.1l0.5,0.3l0.2,0.5l0.1,1.1l0,0.1l-0.1,0.2v0.2
		l0.2,0.1l0.2,0l0.1,0.1l0.1,0.2l0.1,0.1l0.2,0.3l-0.1,0.3l-0.1,0.3l0,0.4l-0.6-0.2l0,0.5l0.4,1.2l0,1l0.1,0.2l0.2,0.1l0.2,0.2
		l0.3,0.4l0,0.3v0.3l0.1,0.2l0.5,0.2l0.6,0.5l0.5,0.2l0.2,0.2l0.1,0.3l0,0.7l0.1,0.3l0.3,0.2l0.2-0.3l0.1,0l0.1,0.1l0.2,0.1l0.4,0.1
		l0.2,0.1l0.1,0.1l-0.1,0.1l-0.2,0.1l-0.2,0.1l-0.1,0.2l0,0.2l0.1,0.1l0.2,0.1l0.2,0.2l0.3,0.4l0.3,0.9l0.3,0.4l0.9,0.5l0.4,0.3
		l-0.1,0.4l0.1,0.3l0,0.4l0,0.3l0.3-0.1l0,0.1l0,0v0l-0.1,0.1l0.3,0.1l0,0.2l-0.1,0.2l-0.1,0.2l0.1,0.2l0.3,0.3l0.1,0.2l0.1,0.1
		l0.4,0.1l0.2,0.1l0,0.2l0,0.2l0.1,0.2l0.4,0v0.1l-0.2,0.2l0.1,0l0.3,0l0.2,0l0.1,0.2l0,0.2l0.1,0.1l0.3-0.1l0.2,0.2l-0.1,0.2
		l-0.2,0.2l-0.1,0.3l0.1,0.1l0.2,0.1l0.4,0.2l-0.1,0.1l0,0.1l0,0.1l0.1,0.1l0.1-0.1l0.1-0.1l0.1-0.1l0.2,0.6l0.1,0.2l0.2,0.2
		l0.4,0.2l0.2,0.1l0.1,0.3l-0.2,0.5l0.2,0.3l0.1,0.2l1.1,0.3l0.5,0l1.6-0.6l0.6,0l0.6,0.2l0.2,0l1.2-0.6l0.3-0.1l0.6,0.1l0.6,0.3
		l1,0.8l0.5,0.1l1.7,0l-0.1-0.5l0-0.5l0.2-0.4l0.3-0.2l0.3-0.1l0.8-0.4l0.3,0l1.4,0.1l0.9,0l0.7,0.3l0.2,0l0.3-0.1l0.4-0.2l0.3,0
		l1.2,0l0.1,0l0.4,0l-0.1-0.7l0-0.4l0.2-0.2h4.2l0.2,0.1l0.1,0.5l0.1,0.2l0.3,0.5h11.1l-0.4-1.5l-0.1-0.5l0.1-0.6l0.3-0.9l0.2-0.6
		l0.4-1.2l0.1-0.5l0-0.5l-0.1-0.5l-0.2-0.5l-0.2-0.5l0-0.5l1.3,0.1l0.4-0.1l0.3-0.3l0.2-0.7l0.3-0.3l0,0l0,0l0,0l0.5-0.4l0-0.6
		l-0.5-1.3l-0.2-0.7l-0.1-0.6l0.2-3.1l0.2-0.6l0.2-0.4l0.5-0.7l0.1-0.3l0-0.2l-0.3-0.8h14.7v-0.3l0.1-0.6l0.1-0.3l0.2-0.3l0.2-0.1
		l0.2,0h1l1.6,0l1.6,0l1.1,0l-0.4,1.2l-0.5,1.3l-0.3,0.8l-0.4,1l-0.1,0.9l0,0.9l0,0.9l0.9,0h1.4l1.4,0l1.4,0h1.4l1.4,0l1.4,0l1.4,0
		h1.4l1.4,0h1.4l1.4,0l1.4,0l1.4,0l1.4,0l1.4,0l1.4,0l0.6,0l0.4,0l0,0.1l0.1,0.1l0.1,0l0.1,0.1l0.1,0.1l0.4,0.9l0.1,0.1l0.1,0.2
		l0,0.2l-0.1,0.1l0,0.1l0.1,0.2l0.1,0.1l0.1,0.1l0,0.2l0,0.1l-0.1,0.2l0,0.1l0,0.1l0.2,0.2l0,0.1l0,0.2l-0.2,0.4l-0.1,0.2l0,0.2
		l0,0.1l0.1,0.1l0,0.2v0.7l-0.1,0.1l-0.3,0.3l-0.1,0.1l0,0.4l-0.2,0.6l-0.2,0.6l-0.2,0.7l-0.2,0.4l-0.2,0.6l-0.1,0.3l-0.1,0.8
		l0.1,0.5l0,0.2l-0.1,0.2l-0.3,0.4l-0.1,0.2l0.1,1.3l0.1,0.3l0.2,0.2l0.6,0.3l0.1,0.2l0,0.5l0.1,0.4l0.2,0.3l0.5,0.6l0.1,0.3
		l0.1,0.3l0,0.8l0.2,0.9l0.2,0.3l0.6,0.5l0.2,0.4l-0.3,0.2l-0.1,0.2l0.2,0.5l0.5,0.7l0.2,0.8l-0.1,0.8l-0.5,1.5l0.1,0l0.1,0l0.1,0
		l0.1,0l-0.3,0.6l-0.2,0.6l-0.2,1.4l-0.2,1.2l-0.1,0.1l-0.2,0.6l-0.2,0.5l-0.2,1.5l0,1l-0.3,2.2l0.2,1.9l0,0.8l-0.2,0.8l-0.6,1.2
		l-0.1,0.7l-0.2,0.4l0,0.2l0.1,0.2l0.3,0.4l0.1,0.2l0.2,0.8l0.2,1.7l0.2,0.8l0.5,0.8l1.2,1.3l0.3,0.7l0.1-0.1l0.3-0.1l0.1-0.1l0,0.6
		l0.2,0.5l1.1,1.3l0.2,0.1l0.1,0l0.1-0.1l0.2,0.1l0.3,0.3l0.7,0.5l0.3,0.3l0.2,0.4l0.2,0.7l0.4,1l0.2,0.8l0.1,0.2l-0.1,0.6l0.3,0.9
		l0.5,0.9l0.3,0.9l0.4,0.8l0.2,0.6l0.3,0.3l0.1,0.2l0,0.2l-0.1,0.4l0,0.2l-0.1,0.3l-0.4,0.7l-0.1,0.4l0,0.4l0.2,0.3l0.2,0.3l0.2,0.4
		l0.1,0.8l0,0.8l0,0.7l0.3,0.5l-0.1,0.1l0,0.1l0.1,0.7l-0.1,0.4l-0.2,0.2l-0.4,0.1l-0.5,0.1l-0.8,0.3l-0.3,0.2l-0.4,0.4l-0.3,0.4
		l0,0.3l0.2,0.3l0.4,1.3v0.7l0.1,0.1l0.3,0.2l0.1,0.1l0.1,0.3l0.3,0.6l0.1,0.4l0.2,1.7l-0.1,0.8l-0.3,0.8l0.5,0l0.4-0.2l0.8-0.9
		l0.3-0.2l1.9-0.6l0.6-0.5l0.6-1.5l0.7-0.1l1.4,0.6l0.7,0.3l0.7,0.2l0.7,0.1l0.7-0.1l0.4-0.2l0.4-0.3l0.4-0.2l0.5,0l0.4,0.2l0.7,0.5
		l0.4,0.2l0.7,0.1h0.9l1.9-0.3l1.6-0.3l2.1-1.2l1.3-0.7l0.8-0.2l0.8,0l0.7,0.1l1.2,0.3l1.6,0.4l0.6,0l0.8-0.1l0.7,0.1l0.8,0.3
		l0.8,0.1l0.6-0.2l0.1-0.2l0.1-0.4l0.1-0.2l0.2-0.2l0.4-0.2l0.2-0.2l0.2-0.4l0.1-0.5l0.2-0.4l0.4-0.2l0.7,0l0.9,0.2l0.8,0.3l0.4,0.4
		v0.2l-0.1,0.3l0,0.2l0,0.2l0.1,0.4l0,0.2l0,0.6l0.1,0.2l0.4-0.1l0.4-0.1l0.3,0l0.7,0.2l0.4,0.1l0.7,0l0.4,0l0.4,0.2l0.5,0.3
		l0.5,0.4l0.2,0.4l-0.1,0.2l-0.2,0.2l-0.1,0.2l0,0.3l0.1,0.2l0.3,0.3l0.1,0.2l0.1,0.3l0,0.4l0,0.4l-0.1,0.4l-0.1,0.3l-0.6,1
		l-0.2,0.3l-0.8,0.2l-0.2,0.2l0.2,0.3l0.3,0.1l0.8,0l0.3,0.1l0.4,0.3l0.6,0.6l0.4,0.2l0.4,0l0.4-0.1l0.8-0.3l0.2,0l0.2,0l0.2,0
		l0.1-0.2l0.1-0.2l0.1-0.2l0.1-0.2l0.2-0.1l0.2-0.1l0.4-0.1l0.2-0.1l0.2-0.2l0.3-0.5l0.2-0.2l0.7-0.3l1.4,0l0.7-0.2l1.4-0.7l0.8-0.2
		l0.7,0.1l2.7-0.2l1.1-0.2l1.8-0.9l0.6-0.1l0.2,0.2l0,0.4l0,0.5l0,0.4l0,0.2l-0.1,0.1l-0.4,0.2l-0.2,0.2l0.1,0.2l0.2,0.2l0.1,0.2
		l-0.2,0.4l-0.2,0.2l-0.2,0.2l0,0.5l0.1,0.4l0.4,0.7l0.1,0.3l0,0.2l-0.3,0.3l-0.1,0.2v0.2l0.1,0.3l0.5,1.6l0.2,0.3l0.2,0.2l0.1,0.1
		l0.2,0l0.2,0l0.2,0l0.1,0.1l0.1,0.2l0.2,0.2l1.1,0.5l0.3,0.3l0,0.1l0,0.1l0,0.1l-0.2,0.5l0.1,0.3l0.3,0.1l0.4,0l0.2-0.1l0.1-0.1
		l0.1-0.1l0.2,0l0.2-0.1l0.1-0.2l0.1-0.2l0.2-0.1l0.9,0l0.7,0.4l0.6,0.5l0.7,0.4l0.3,0.1l1.1,0l0.2,0l0.4-0.2l0.1,0l0.2,0l0.1,0.1
		l0.1,0.1l1,0.8l0.4,0.2l0.3,0.2l0.3,0.6l0.3,0.2l0.2,0l3.3,0l0.4,0.2l0.4,0.2l0.4,0.2l0.7,0l0.4,0.2l0.2,0l0.2-0.1l0.4-0.3l0.2-0.1
		l0.7-0.1l0.7,0l0.5,0.1l0.3,0.2l0.3,0.3l0.3,0.3l0.7,0.2l1.5,0.1l0.7,0.1l0.4,0.2l0.3,0.3l0.3,0.2l0.4-0.1l0.3-0.3l0.2-0.3l0.3-0.2
		l0.5,0l0.9,0.1l0.8-0.2l0.7-0.4l0.7-0.6l0.4-0.7l0.1-1.6l0.2-0.8l0.3-0.4l0.3-0.3l0.2-0.3l0-0.5l-0.2-0.8l0-0.4l0.3-0.3l0.2,0
		l0.4,0.1l0.2,0l0.7-0.2l0.8-0.1l0.5-0.2l0.1,0l0.3,0.5l0.2,0.9l0.1,0.9l0,0.6l0.5,1.7l3.5,2.2l0.9,1.5l0.1,0.8l0.9,2.7l0.3,0.4
		l1.1,0.9l0.8,0.9l0.5,0.2l0.8,0.1l0.9,0l0.6-0.1l0.4-0.3l0.2-0.3l0.3-0.1l0.5,0l0.4,0.1l1.1,0.6l0.3,0.3l0.1,0.5l0.1,0.4l0.4,0.1
		l0.3-0.1l0.3,0l1.4,0.1l0.2,0.1l0.1,0.2l0,0.2l0.1,0.2l0.5,0.4l0.3-0.1l0.3-0.3l0.5-0.1l0.4,0.2l0.3,0.3l0.3,0.2h0.5l0.4-0.1l0.4,0
		l0.4,0.1l0.3,0.2l1.6,1.4l0.3,0.4l0.4,1l0.2,0.4l0.6,0.7l0.2,0.4l0,0.5l-0.2,0.3l-0.3,0.2l-0.2,0.3l0.1,0.5l0.4,0.5l0.4,0.4
		l0.3,0.5l0.1,1l0.2,0.2l0.3,0l0.3-0.1l0.2-0.2l0.3-0.6l0.3-0.2l0.9,0.2l0.8,0.8l1.3,1.7l0.3,0.3l0.1,0.2l0.2,0.7l0.1,0.1l0.3,0.1
		l0.1,0.1l0,0.1l-0.1,0.2l0,0.1l0,0.1l0,0.2l0,0.1l0.1,0.1l0.1,0l0.1,0l0.1,0l0.2,0.7l0.2,0.1l0.4,0l0.2,0.1l0.2,0.3l0.6,2.9
		l0.3,0.8l0.6,0.6l0.3,0.3l0.3,0.1l0.3-0.1l0.3-0.1l0.5,0l0.5-0.1l0.5,0l0.4,0.2l0.2,0.2l0.1,0.3l0.2,0.2l0.3,0.1l0.2-0.1l0.4-0.4
		l0.3-0.1l0.4-0.2l1.1-0.7l2.7-1l0.4-0.2l1.1-1l0.4-0.2l0.4,0l0.3,0.2l0.3,0.3l0.4,0.2l0.2,0l0.2-0.1l0.2,0l0.2,0.2l0,0.2l0,0.2
		l-0.1,0.2l-0.1,0.2l-0.1,0.1l-0.3,0.1l-0.1,0.1l0,0.2l0,0.4l0,0.2l-0.1,0.1l-0.2,0l-0.1,0.1v0.3l0.1,0.2l0.1,0.2l0.1,0.2l0.2,0.2
		l0.3,0.2l0.4,0.2l0.8,0.2l1.2,0l0.3-0.1l0.3-0.6l0-2.1v-2.9l0-2.7l0-2.9v-3.4l0-2.9l0-3.2v-2.3l0-2.1l0-0.1l-0.8,0.1l-0.4,0.1
		l-0.6,0.5l-1,0.5l-0.3,0.1l-0.2-0.1l-0.3-0.3l-0.2-0.1h-0.3l-0.2,0.1l-0.3,0.3L568,452l-0.8,0.3l-0.3,0.2l-0.1,0.2l-0.2,0.8
		l-0.1,0.5l-0.1,0.2l0,0.2l0.1,0.1l0.6,0.7l0.3,0.1l0.3,0l0.2,0.1l0.1,0.3l-0.1,0.4l-0.2,0.3l-0.3,0.2l-0.4,0l-0.1,0l-0.1-0.1
		l-0.1-0.1l-0.1-0.1l-0.1,0l-0.3,0l-0.1,0l-0.5-0.2l-0.8-0.4l-0.1,0l-0.8,0l-0.2,0l-0.2-0.1l-0.2-0.2l-0.3-0.4l-0.2-0.1l-1.5,0
		l-0.5,0.1l-0.4,0.2l-0.3,0.2l-0.2-0.4l-0.3,0l-0.3,0.2l-0.3,0l-0.2-0.1l-0.2,0l-0.1-0.1l0-0.3l0-0.2l-1.5-2.8l-0.5-0.6l-1.1-0.6
		l-0.2-0.2l-0.1-0.4l-0.2-0.4l-0.3-0.3l-0.2-0.2l-0.7-0.4l-0.3-0.2l-0.1-0.3l-0.1-0.5l-0.2-0.2l-0.7,0.1l-0.4-0.1L551,447l-0.2-0.2
		l-0.3-0.7l-0.3-0.2l-0.4,0.3l-0.1-0.2l-0.2-0.4l-0.1-0.1l-0.2-0.1l-0.2-0.1l-0.2,0l-0.3,0.1l-0.2-0.3l-0.2-0.9l-0.2-0.2l-0.3-0.1
		l-0.2-0.2l-0.2-1.3l0-0.2l-0.3-0.3l-0.1-0.2l0.1-0.1l0-0.2l-0.3-1.1l-0.1-0.2l-0.3-0.3l-0.1-0.2l-0.2-0.6l-0.1-0.2l-0.1-0.3l0-1
		l0.1-0.3l1-1.4l0.1-0.1l0.4-0.3l0.1-0.1l-0.2-0.7l0.1-0.4l0.2-0.3l0.2-0.2l0.4-0.7l0-0.6l0-0.2l0.1-0.1l0.2-0.2l0-0.2l0-0.2l-0.2-1
		l0-0.2l0.3-0.4l0.2-0.5l0.1-0.2l0-0.2l0-0.4l0-0.2l0.1-0.2l0.3-0.3l0.1-0.2l0.1-0.2l0.2-0.4l0-0.2v-0.9l0.1-0.5l0.2-0.4l0.2-0.4
		l0.3-0.3l0.2-0.2l0.1-0.4l0.3-0.5l0.1-0.1l0.1-0.1l0.2,0l0.1,0l0.3-0.2l0.3-0.3l0.2-0.4l0.1-0.4l-0.1-0.1l-0.4-0.3l-0.1-0.2l0-0.2
		l0.1-0.4l0-0.2l-0.5-0.5l-0.3-0.4l0-0.3l0.1-0.2l-0.2-0.3l0.1-0.2l0.1-0.2l0.1-0.2l0-0.2l0-0.2l-0.1-0.4l-0.2-0.3l-0.1-0.3
		l-0.1-0.5l0.1-0.4l0.1-0.3l0.1-0.3l-0.1-0.4l0,0l-0.2-0.1l0,0l-0.1-0.1l0-0.2l0-0.1l-0.6-0.6l0.2-0.4l0.5-0.5l0.3-0.6l0.2-0.7
		l0.1-1.5l-0.1-1.4l0.1-0.4l0.6-1.2l0.2-0.8l0.2-0.3l0.3-0.1l0-0.1l-0.5-0.5l0-0.3l-0.1-0.1l-0.2-0.1l-0.2-0.1l-0.3-0.4l-0.1-0.4
		l0-0.9l0-0.2l-0.2-0.4l0-0.2l-0.1-0.3l-0.4-0.4l-0.1-0.2l0.1-0.1l0.4-0.1l0.1-0.2l-0.6,0l-0.2-0.1l-0.1-0.3l0-0.3l0-0.2l-0.1-0.2
		l-0.1-0.2l-0.5-0.3l-0.2-0.2l-0.1-0.3l0-0.3l0-0.3l0-0.4l-0.4-0.5l-0.7-0.3l-0.9-0.2l-0.8-0.3l-0.3-0.7l0.4-0.7l0.8-0.5l1.7-0.8
		l1.8-1.3l3.2-3.1l2.4-3.2l0.7-1.6l0.1-1.7l-0.8-1.7l-0.1-0.4l0.5-0.2l2.3-0.3l3.3-0.5l3-0.5l4.3-0.7l5-0.8l5-0.8l3.8-0.6l4.9-0.7
		l3.2-0.5l-0.5-1.7l-1.4-3.4l-4.1-6.3l-0.5-1.8l-0.2-1.3l-0.7-2.4l-1.4-3.1l-1.1-1.8l-2.7-3.2l-1.5-1.2l-2.6-1.3l-2.6-1.9l-0.6-0.6
		l-0.4-0.7l-1-2.6l-1.3-1.7l-0.5-0.9l-0.2-0.7l-0.3-2.3l-0.6-2.1l0-0.8l0.4-1.2l1.4-1.9l0.6-1.1l0.2-1.5l-0.4-1.6l-1.8-4.3l-0.8-3.1
		l-1.5-2.7l-0.6-1.5l-0.4-1.6l-0.1-1.6l0.4-1.6l1.2-3.1l0.2-1.6l-0.1-0.8l-0.1-0.2l-0.6-4.6l-0.6-2.2l-1.2-2l-0.7-0.8l-0.3-0.4
		l-0.2-0.5l-0.2-2.2l0.3-2.2l0-1.5l-0.4-4.8l0-0.6l0.1-0.3l0.5-0.5l-0.3-0.3l-0.1-0.4l0-1.3l0.1-0.4l0.1-0.3l0.2-0.1l0.1-0.2
		l-0.1-1.2l-0.2-0.3l-0.3-0.2l-0.3-0.1l-0.4,0l-0.4-0.1l-0.2-0.3l-0.1-0.4l-0.1-0.3l-0.3-0.2l-0.3-0.1l-0.3-0.2l-0.1-0.3l0-0.3
		l-0.1-0.2l-0.3-0.4l-0.2-0.5l-0.1-0.1l-0.3-0.1l-0.4,0l-0.3-0.1l-0.2-0.3l0-0.4l0.1-0.3l0.2-0.2l0.4,0l-0.3-0.5l-0.3-0.3l-0.4-0.2
		l-0.6-0.1l-0.3-0.1l-0.7-0.5l-0.1-0.1l0.1-1.4l-0.1-0.4l-0.2-0.2l-0.2-0.1l-0.2-0.1l-0.1-0.2l0.1-0.2l0.3-0.3l-0.1-0.2l-0.2-0.3
		l-0.1-0.4l0-0.4l0.1-0.5l0.3-0.2l0.5-0.2l0.4-0.1l0.3-0.2l0.3-0.3l0.2-0.3l0.2-0.3l0.1-0.2l0-0.2l0.2-0.2l0.2-0.1l0.5,0l0.8-0.2
		l0.7-0.5l0.5-0.7l0.3-0.9l0.1-0.8l0-0.7l-0.5-3l0-0.7l0.1-0.7l0.4-0.8l1.2-1.9l0.4-0.8l0.2-0.3l0.9-0.8l0.2-0.2l0.5-1.1l0.2-0.3
		l0.3-0.1l1.5-0.1l0,0l0,0l0,0l0.4-0.7l0.7-0.7l0.8-0.5l0.7-0.3l0.2-1.1l0-0.4l-0.1-0.2l-0.2-0.4l0-0.2l0.2-0.5l0-0.2l-0.1-0.4
		l-0.2-0.3l-0.2-0.3l0-0.5l0.2-1.2l0-0.3l-0.1-0.4l-0.3-0.7l-0.1-0.3l0.1-0.2l0.1-0.2l0.1-0.2l0-0.3l-0.1-0.4l0-0.2l0-0.2l0.2-0.3
		l0.6-0.2l0.2-0.3l0.1-0.3l0-1.1l0-0.4l-0.2-0.7l0-0.4l0.2-1.5l0.1-0.1l0.1-0.1l0.1-0.1l0-0.1l0-0.1l-0.1-0.2l0-0.1l0.1-0.2l0.2-0.1
		l0.2,0l0.2-0.1l0-0.3l-0.1-1.2l-0.1-0.3l-0.2-0.5l0-0.4l0.5-2.7l0.4-2.5l0.3-1.9l0.3-0.7l0.1-0.4l0-0.4l-0.2-0.8l0-0.3l0.2-0.5
		l0.8-1.2l0.1-0.2l0.2,0.1l0.1,0.1l0.1,0l0.2-0.1l0.1-0.1l0.6-3.1l0.1-0.4l0.2-0.4l1.4-1.6l0.3-0.7l0-0.7l-0.4-1.5l0-0.4l0.2-1.6
		l-0.1-1l0-0.2l0.4-0.7l0.2-0.1l0.7-0.5l0.8-0.4l2-0.5l0.2-0.1l0.2-0.2l0.3-0.6l0.1-0.1l0.1-0.3l0.4-0.4l0.1-0.3l-0.1-0.8l0-0.4
		l0.2-0.2l0.1-0.2l0.1-0.2l0-0.4l0.1-0.1l0.6-0.6l0.2-0.1l0.2,0l0.2,0l0.2,0.2l0.3,0.2l0.2-0.2l0.2-0.4l0.3-0.2l0.2,0l0.4,0l0.3,0
		l0.4-0.1l0.3-0.1l0.2-0.2l0.4-0.3l2.3-2.9l1.6-2.1l2.6-2.1l2.6-2.1l1.4-1.1l1.8-2.2l1.2-1.5l1.1-1.4l0.5-1l0.2-1L601,178.6z"/>
</g>

</svg>
