<?xml version="1.0" encoding="utf-8"?>

<svg version="1.2" baseProfile="tiny" xmlns="http://www.w3.org/2000/svg" xmlns:xlink="http://www.w3.org/1999/xlink" x="0px"
	 y="0px" viewBox="214.1 159 411.9 276.7" xml:space="preserve">

<g id="Central_African_Republic">
	<g>
		<polygon fill="#003082" points="383.8,221.2 383.7,221.3 383.4,221.3 383.1,221.3 382.3,221.6 382.2,221.8 381.9,221.9
			380.5,221.9 380,222.1 379.2,221.6 378.2,221.8 377.2,222.1 376.5,222.1 376.2,222.3 376,222.3 375.9,222.2 375.7,222.2
			373.3,222.2 373,222.1 371.8,222.6 371.4,222.7 370.9,222.6 370.3,222.5 369.8,222.2 369.4,222 369.1,222.4 368.8,222.3
			368.5,222 368.1,221.8 367.8,221.8 367.1,222 365.8,222.1 365.5,222.2 365.3,222.6 365.1,222.6 364.3,222.4 364,222.5
			363.8,222.5 363,222.2 361.7,222.6 360.5,223.2 359.8,223.7 359.3,224.1 359.2,224.3 359.1,224.6 358.9,224.7 358.3,224.9
			357.8,225.2 357.6,225.2 357.4,225.3 357.3,225.6 357.3,225.9 357,226 356.7,226 356.5,225.9 355.7,227 355.7,227.4 356,227.7
			356.6,227.7 356.7,227.6 356.8,227.7 383.8,227.7 		"/>
		<polygon fill="#003082" points="505.6,193.8 495.1,176.8 489.3,171.3 486,168.9 481.5,162.4 481.5,161.5 479.7,161.3 477.8,160.7
			477,160.1 475.9,159.8 475.6,159.8 474.5,159.8 474.1,159.8 473.5,159.5 473.3,159.4 472.5,159.5 471.9,159.7 471.2,159.6
			470.5,159 470.3,159.4 469.9,159.3 469.4,159.2 468.9,159.1 468.5,159.2 468.2,159.4 467.7,160.1 467.3,160.3 466.8,160.4
			465.8,160.6 465.2,160.8 464.5,161.1 464.1,161.3 463.5,161.8 463.2,162 462.9,162 462.4,161.8 462,162.1 461.6,162.6
			460.7,163.3 460.4,164.3 460,165 459.1,164.5 458.6,164.6 456,164.3 455.4,164.6 455,165.2 454.8,165.9 454.5,166.3 454.9,167
			454.5,167.4 454.2,167.5 454.2,227.7 502.5,227.7 502.9,227.2 503.4,226.3 503.8,224.5 503.8,223.4 503.6,222.7 503,222.7
			501.9,223.9 501,223.9 500.2,223.4 499.8,222.7 499.7,222 500.4,217.9 500.9,217.1 501.3,216.9 502.4,217 502.9,216.9
			503.2,216.7 503.9,216 505.1,214.4 505.6,214.1 505.8,213.7 505.8,213.3 505.5,212.3 505.5,211.8 506.3,209.3 506.3,209.1
			506.1,208.8 505.9,208.8 505.7,208.8 505.5,208.4 505.4,208 505.4,207.1 505.4,206.7 505,205.9 505,205.5 505.4,204.6
			506.6,202.8 507,201.9 507.1,200.7 506.2,195.2 		"/>
		<polygon fill="#FFFFFF" points="454.2,298 592.4,298 592.4,297.9 592.4,296.9 590.9,296 589,295.3 587.9,294.7 587.4,294.2
			586.1,293.3 585.2,292.1 584.6,291.9 584.1,291.7 583.4,291.3 583.1,290.9 583,290.6 582.9,290.2 582.8,289.8 582.8,289.6
			582.8,289.5 582.8,289.3 582.7,289.1 582.5,289.1 582.3,289.2 582.1,289.2 582,289.1 581.7,288.4 581.6,286.8 581.4,286.1
			580,285.9 579.6,285.8 579.5,285.6 579.5,285.4 579.3,285.2 579,285 578.3,285 578,284.9 577,284.3 576.9,284 576.8,283.4
			576.7,283.2 576.1,283 574.7,282.8 574.3,282.7 574,282.2 574,281.8 573.8,281.5 573,281.4 572.7,281.3 572.2,280.8 571.8,280.7
			571.2,280.7 571,280.6 570.2,280 569.6,279.8 567.7,279.3 567.2,279 565.8,277.7 565.3,277.4 564.8,277.3 564.2,277.5
			563.4,277.2 562.1,276.2 560.4,275.4 560,275 559.6,274.6 559.5,274.1 559.3,273.2 559,272.8 558.8,272.6 558.3,272.5
			558.1,272.3 557.9,272.1 557.6,271.6 557.4,271.4 557,271.1 555.1,270.1 554.4,268.5 554.3,268 554.3,267.6 555,267 557,266.3
			557.7,265.7 557.9,265.1 557.8,264.6 557.6,264.2 557.5,263.8 557.6,262.4 557.6,261.9 557.4,261.4 557,260.6 556.6,259.6
			556.3,259.1 555.9,258.7 555.1,258.4 555,258.2 554.8,258 554.6,257.9 553.8,257.7 553.3,257.7 552.4,258 551.9,258 551,257.6
			550,256.9 548.5,255.2 548.2,255.1 548,254.9 547.7,254.7 547.5,254.5 547.5,253.9 546.8,253.3 546.8,252.2 546.5,251.6
			543.8,249.1 542.8,248.7 540.9,248.4 539.9,247.9 539.3,247.8 538.7,247.8 536.9,247.5 534.7,247.8 533.7,247.8 532.7,247.2
			532.4,247.1 532.1,247 531.9,246.8 531.8,246.5 531.1,245.8 530,245.9 528,246.6 527.8,246.5 527.3,246.1 527,245.9 526.8,245.9
			526.3,245.9 525.6,245.9 524.5,245.6 524,245.4 523.2,244.9 522.4,244.3 521.7,243.5 521.3,242.6 521.4,241.5 521.8,240.5
			523.6,237.5 523.9,237.2 525.2,236.3 525.4,236 525.3,235.6 524.4,235 524.2,234.5 524.3,234.1 524.9,233.2 524.9,232.8
			524.4,232.4 523.2,232.5 521.1,232.8 517.9,232.2 517,232.4 516.4,232.3 515.1,231.7 513.4,231.9 511.4,231.5 510.2,231.5
			509.3,232 508.8,232.1 507.7,231.8 506.7,231.8 506.3,231.7 505.8,231.3 505.3,231.1 504.8,231.1 504.2,231.1 503.8,231.4
			503,232 502.6,232.1 501.9,231.8 501.5,231.1 501.2,230.3 501.2,229.5 501.6,228.7 502.5,227.7 454.2,227.7 		"/>
		<polygon fill="#FFFFFF" points="383.8,227.7 356.8,227.7 357,227.9 357.1,228.4 357.2,228.8 357.6,229.1 361.3,230.7 361.6,231.2
			362.1,231.5 362.9,232.3 363.5,233 362.5,233.7 362.2,234.3 361.5,234.6 360.2,237.2 357.1,240.7 356.7,241.4 356.5,242.1
			356,242.7 355,243.7 353.7,245.7 353,246.3 352.4,246.5 350.6,247.2 349.2,247.8 348.2,248.8 347.6,250 347.6,251.6 346.7,252.9
			344.1,253.5 330.3,253.8 327.4,254.5 324.9,255.4 323.7,255.7 322.4,255.6 318,254.9 317.5,254.8 316.8,254.9 316.2,255.1
			315.5,256 314.9,256.3 314.3,256.5 313.1,256.6 312.5,256.7 312,257.1 311.7,257.8 311.3,258 309.8,257.5 309.4,258 308.8,258.4
			304.5,259.9 304,260.3 303.5,260.7 303.4,261.1 303.3,261.6 303,261.8 302.8,261.7 302.6,261.8 302,262.3 300.9,263.6
			300.3,264.2 299.8,264.4 299.6,264.4 299.5,264.3 299.1,264.1 298.5,263.8 298.1,264.2 297.9,264.5 298,264.8 297.9,264.9
			296.9,264.7 296.6,264.8 296.3,265 296.1,265.3 295.5,265.3 294.1,265.5 292.9,265.9 292.5,266.2 292.1,266.6 291.9,267.2
			291.9,267.4 292.1,267.6 292.2,267.7 292.1,267.9 292,268 291.7,267.9 291.6,267.9 290.9,268.6 290.6,268.7 289.9,268.8
			289.5,268.5 288.8,267.4 287.6,266.1 286.9,265.5 286.1,265.1 284.9,264.8 284.6,264.4 284.5,263.8 284.5,263.4 284.7,263.1
			284.6,262.7 284.5,262.3 284.2,262 284,261.9 283.7,261.8 283.4,261.6 282.8,261.3 282.5,260.8 282.4,260.2 282.6,259.3
			282.6,258.7 282.5,258.4 281.3,258.8 280.7,259.1 280.2,259.5 280,259.8 279.3,260.6 279.1,260.8 278.7,260.9 278.3,260.8
			278.1,260.6 277.7,260.6 277.3,261.1 277.1,261.7 277.1,263.8 277,264.3 276.6,264.5 273.8,264.9 273.2,265.2 272.1,266
			271.5,266.4 270.8,266.5 270,266.5 269,266.9 267,267.1 266.3,267.4 265.8,267.6 265.3,268.1 264.6,269.1 264.2,269.6
			263.1,270.2 262.6,270.4 258.4,271.3 257.3,271.4 256.1,271 254.5,269.5 253.1,269.4 250.8,269.7 249.6,269.6 248.6,269.3
			248.3,269.8 246.6,272.1 246.5,272.6 247.1,273.1 247,273.5 246.9,273.6 246.3,273.6 246.1,273.7 245.9,273.9 245.6,274.4
			245.5,274.6 244,275.7 241.6,277.1 240.4,278.1 239.8,279.6 239.4,280.3 239.3,280.7 239.2,281 239.4,282.8 239.3,283.1
			239,283.5 238.3,283.8 238,284 237.7,284.5 237.4,285.1 236.9,287 235.9,289.8 235.2,291.1 234.7,292.5 234.5,293 234.1,293.3
			232.2,294.2 231.7,294.6 231.3,295.1 230,298 383.8,298 		"/>
		<polygon fill="#FFFFFF" points="356.2,227.9 356.6,227.7 356,227.7 		"/>
		<polygon fill="#289728" points="454.2,368.3 473.7,368.3 473.1,367.7 473,367.1 472.9,366.3 473.1,365.5 473.7,365.2 475.1,365.2
			475.7,365.2 476.2,364.9 476.4,364.6 476.4,364.3 476.4,363.5 476.5,363.3 476.9,363 477,362.8 477.1,362.7 477.4,362.1
			477.5,361.9 477.5,361.6 477.3,361 477.3,360.6 477.8,360.3 478.1,360 478.4,359.6 478.6,359.2 479,358.1 479.3,357.6
			479.8,357.5 480.3,357.6 480.9,358 481.4,358.1 481.8,357.2 482.5,356.7 482.7,356.3 482.5,356 482.3,355.6 482.3,355.2
			482.5,354.9 482.8,354.5 483,354.5 483.3,354.6 483.8,354.6 484.1,354.5 484.5,354.3 484.9,354.2 485.2,354.2 485.5,354.4
			485.8,355.3 486.2,355.9 486.3,356.4 486.5,356.8 486.9,357 487.3,357 487.7,357.2 488,357.4 488.3,357.7 489,358 489.8,357.8
			491.3,357.1 491.7,357.6 492.5,358.7 492.9,358.9 493,359 493.9,359.5 494.3,360.4 494.6,360.5 495.3,360.6 495.4,360.7
			495.5,360.8 495.9,361.2 496,361.3 496.6,361.3 497.1,361.4 497.7,361.5 498.2,361.9 498.5,361.8 499,361.8 499.3,361.7
			499.4,361.4 499.4,360.9 499.5,360.6 499.7,360 500.1,359.6 500.6,359.4 501.3,359.3 501.9,359.1 503.8,357.6 504.5,357.3
			505.9,356.9 507.1,356.3 507.8,356.1 509.1,356.1 509.8,355.8 511,354.9 511.6,354.7 512,354.8 512.6,355 512.8,355 513.1,354.9
			513.4,354.6 513.7,354.6 515,354.9 515.8,354.9 515.8,354.4 515.6,354.1 515.6,353.8 515.7,353.5 515.9,353.3 516,353.2
			516.2,353.2 516.7,353.7 517.2,353.4 518.9,352.6 519.7,351.9 520.2,351.6 520.8,351.5 521.1,351.7 521.7,352.1 522.2,352.2
			522.5,352 523.4,350.9 524,350.5 524.6,350.4 525.1,350.6 525.4,351.3 525.5,351.3 525.8,351.1 525.9,350.9 525.9,350.6
			526,350.2 526.3,349.3 526.4,349.2 526.7,349 529,348.7 529.5,348.4 530,347.9 529.9,347.6 529.1,347.4 528.8,347.1 529,346.4
			529.5,345.7 529.9,345.2 530.1,345.5 530.4,346.5 530.6,346.7 531,346.9 531.1,346.6 531.1,346.2 531.2,345.9 531.9,345.6
			532.8,345.8 533.7,346.2 534.3,346.6 534.5,346.9 534.7,347.5 534.9,347.7 535.2,347.9 536,347.9 536.4,348.2 536.7,348.5
			536.7,349.1 536.9,349.4 537.2,349.7 538.2,350 538.6,350.3 538.2,350.9 538.1,351.2 538.4,351.4 540.5,351.6 541.1,351.6
			541.6,351.2 542,351.6 542.4,351.5 542.7,351.2 543,350.9 543.3,350.7 543.5,350.8 543.8,351 544.2,351 544.8,350.8 546,350.1
			546.7,349.9 546.8,349.9 547.4,349.4 547.7,349.3 548.1,349.3 549.3,349.6 550.3,350.2 551.4,350.5 551.7,350.5 551.9,349.8
			552.2,349.2 552.4,349 552.6,348.9 552.9,348.7 553.1,348.4 553.4,348.4 553.7,348.5 553.9,348.6 554.2,348.7 556.3,348.7
			556.6,348.6 556.9,348.3 558.3,348.1 558.8,348 559,347.7 559.2,347.3 559.2,346.6 559.3,346.2 559.8,345.7 559.9,345.5
			559.9,345.2 560.1,344.6 560.1,344.3 559.9,344.1 559.3,344 559,343.9 558.8,343.2 559.1,342.6 559.5,342.2 559.7,341.8
			559.8,341.1 560,340.4 560.3,340 561,339.7 560.6,339.2 560.8,339 561.3,338.9 561.6,338.5 562.1,338.8 562.8,338.6 564.2,337.8
			564.3,337.7 564.4,337.8 564.7,338.1 565,338.2 565.8,337.9 566.1,337.8 565.9,337.2 566.2,337.1 566.7,337.2 567.2,337.1
			567.3,337.1 567.6,337.6 567.7,338 567.9,338.3 568.6,338.3 568.6,338.3 568.5,338.5 568.4,338.6 568.2,338.7 568.2,338.9
			568.7,339.2 568.9,339.1 569.2,338.9 569.5,338.9 569.7,338.9 569.9,339.2 570.1,339.3 570.1,339.3 570.8,339.5 571.2,339.8
			572.1,340.8 572.4,341.1 572.9,341.3 573.3,341.2 573.6,340.8 573.2,340.6 573.5,340.5 573.9,340.7 574,341.5 574.2,341.4
			574.5,341.3 574.6,341.3 574.5,341.7 574.6,342 574.8,342.2 575,342.8 575.3,342.6 575.6,342.2 575.7,342.1 576.5,342.1
			576.9,342.5 577.1,343 577.7,343.5 577.7,342.8 578.1,342.5 578.7,342.4 579.2,342.6 579.2,342.1 579.3,341.8 579.6,341.7
			580.1,341.7 580.4,341.9 580.9,342.5 581.4,342.8 581.7,342.6 582.1,342.5 582.6,342.5 582.7,342.1 583,342 583.3,342
			583.5,342.1 583.4,341.9 583.3,341.1 583.5,341.2 583.6,341.2 583.8,341.3 584,341.3 584.3,341.2 584.5,340.9 584.6,340.6
			585.1,340.9 585.3,341.2 585.5,341.5 585.9,341.3 586,341.4 586.2,341.5 586.3,341.7 586.6,341.4 586.7,341.3 587,342.3
			587.2,342.6 587.6,342.4 587.6,343.1 587.8,343.1 588.1,343 588.3,342.9 588.5,343.5 589.1,343.9 589.7,344.2 590.4,344.3
			591,344.3 591.6,344.3 591.9,344.7 592.1,344.6 592.8,344.3 593.1,344.8 593.6,345.1 594,345.4 594.4,345.7 595,346.9 595,347.1
			595.4,347.1 596.3,347.4 596.8,347.5 597.1,347.4 597.5,347.3 598,347.1 598.2,346.8 598.4,347.1 598.8,346.6 599.3,346.4
			599.9,346.5 600.2,346.9 600.4,346.9 600.6,346.6 600.8,346.6 601.3,346.7 601.6,346.6 602,346.2 602.3,346 603.8,346
			604.3,346.1 604.5,346.2 605.8,347.6 606,347.8 606.2,347.8 606.5,347.4 606.7,347.3 607,347.4 607.1,347.6 607.2,347.7
			607.2,347.8 607.8,347.9 608,347.7 608.3,347.3 608.5,347.1 608.9,346.3 609,346 609.9,345 610.8,344.2 611.8,343.6 612.9,343
			614.4,342.6 615.7,342.7 617,343.1 619.6,344.4 620.4,344.6 621.1,344.7 621.6,344.8 622,345.1 622.5,345.5 622.9,345.8
			623.2,345.9 623.5,346 624.1,346 624.5,346.1 624.9,346.4 625.2,346.4 626.1,346.7 625.7,346.3 625.3,346 624.8,345.7
			624.3,344.4 623.4,343.7 621.6,342.5 621,341.7 620.5,340.8 619.6,338.8 619.5,338.3 619.3,336.8 619,336 619,335.6 619,335.1
			620.3,331.7 620.3,331.4 620.4,330.8 620.2,330.6 619.9,330.3 619.7,330.3 619.5,330.4 619.4,330.5 619.2,330.5 619.1,330.6
			618.7,330.6 618.6,330.3 618.6,330.1 618.7,329.6 618.7,329.1 618.8,328.9 618.8,328.7 618.3,328.3 618.1,328.2 618.1,328
			618.1,327.7 618,327.2 617.7,326.7 617.3,326.3 616.9,326.1 616.2,325.9 616.1,325.6 616.1,325.3 615.9,324.8 615.6,324.6
			614.2,324.1 614,324.1 613.4,324.3 613.1,324.3 612.9,324.2 612.7,323.7 612.2,323.2 611.8,322.3 611.5,322 610.1,322.3
			609.4,322.2 609,321.7 608.7,321 608.3,320.9 607.8,321.1 607,321.1 606.3,320.8 606.1,320.3 605.9,318.9 605.6,318.4 605,318.1
			602.8,317.2 600.6,317.3 599.5,317.1 597.7,316.5 597.2,316.1 596.8,315.6 596.6,314.9 596.2,314.3 595.7,314.1 594.4,315
			593.9,315.2 593.9,314.8 593.8,314.5 594.1,313.9 594.6,313.4 595.2,312.9 595.5,312.8 595.8,312.6 596.3,312.2 596.4,311.9
			596.6,311.6 596.6,311 596.1,310.5 595.6,310.4 595.2,310.4 594.8,310.2 594.8,309.4 594.8,308.6 594.2,308.2 593,308
			592.8,307.8 592.3,307.6 591.6,306.6 591.1,306.1 590.5,305.7 590,305.5 589.7,305.3 589.5,304.6 589.5,304.1 589.7,303.5
			589.7,303 589.1,302.8 589.3,302.4 589.6,302.2 589.9,302 590.2,301.7 590.8,300.5 591.3,299.8 591.7,299.2 592.2,298.3
			592.4,298 454.2,298 		"/>
		<polygon fill="#289728" points="230,298 227.3,304 226.5,305 226.5,305.4 226.6,306.2 226.6,306.5 226.6,306.8 226.3,307.4
			225.1,308.9 224.6,309.3 220.1,311.4 218.8,311.4 218.5,312 218,312.6 217.1,313.4 216.7,313.6 215.9,314.3 215.5,314.6
			215.5,314.7 215.6,315.1 215.4,315.4 215.4,315.5 215.3,315.8 215.1,315.9 214.9,315.9 214.6,315.7 214.5,315.8 214.2,316
			214.1,316.2 214.2,316.5 214.5,316.8 214.8,317.1 215.2,317.5 215.6,317.9 216.1,318.4 216.3,318.9 216.5,319.5 216.7,320
			217.2,320.3 217.8,320.3 218.7,320.4 219.2,320.3 220,319.8 220.4,319.8 220.8,320.4 221,321.1 221.4,321.6 221.7,325
			221.9,325.7 221.7,326.1 221.2,327.9 220.7,329.3 220.6,329.8 220.6,330.4 220.8,330.8 221.2,331.5 221.5,332 221.5,332.4
			221.5,333.4 221.4,333.7 220.9,334.6 220.8,335.1 220.9,336 220.7,336.4 220.3,336.5 220.3,336.7 220,337.2 219.7,337.7
			219.6,337.9 219.5,338.3 219.3,338.9 219.1,339.4 218.7,339.7 218.4,339.8 218.6,340.1 219.1,340.7 219.7,341.1 221.1,341.5
			221.7,341.9 222.2,342.4 222.5,343 222.8,343.8 222.9,344.5 222.9,346 223.1,347.3 222.8,348.4 222.8,349 223,349.4 223.1,349.7
			223.3,349.9 223.2,350.8 223.3,351.1 223.5,351.4 223.7,351.8 224.2,354.8 224.2,355.1 224,355.9 223.9,356.2 223.8,356.4
			224.1,356.9 224.3,359.3 224.7,360.8 225.6,362.1 226.7,363.3 231.7,366.7 233.1,367.2 233.4,367.4 233.7,367.7 233.9,368.3
			351.4,368.3 352.2,367.8 352.9,366.8 354.5,362.8 355.3,361.7 356.3,360.9 356.7,360 356.7,359.9 356.9,359.8 357.5,359.6
			357.6,359.5 358.7,357.7 359.3,357.2 359.8,356.9 360.2,356.4 360.5,355.2 360.7,354.9 361,354.7 361.2,354.4 361.4,354.2
			361.7,353.2 362,352.4 362.5,351.9 363.5,350.9 364.1,350.7 365.5,350.7 366,350.6 366.6,349.8 367.1,348.9 367.3,348.6
			368.8,347.9 371.6,346.2 372.3,345.3 372.7,344.9 373.4,344.7 375.5,344.7 376.1,344.7 377.1,344.2 377.8,344.1 378.9,344.6
			382.5,344.7 382.8,344.7 383.4,345 383.8,345.1 383.8,298 		"/>
		<polygon fill="#FFCE00" points="454.2,372.5 454.2,372.5 454.6,372.5 454.8,372.6 456.3,373.3 457.9,373.6 458.5,373.9 458.7,374
			459.3,374.6 459.6,374.8 460.3,375.1 461,375.5 464,376.2 467.8,376.1 468.1,376 468.9,375.6 470,374.9 470.5,374.3 470.8,373.8
			470.9,373.6 471.5,373.1 471.6,372.8 471.6,372.5 471.5,371.9 471.5,371.6 472.4,369.9 472.6,369.6 473,369.5 473.4,369.2
			473.6,368.9 473.8,368.6 473.7,368.4 473.7,368.3 454.2,368.3 		"/>
		<polygon fill="#FFCE00" points="233.9,368.5 234.1,368.9 235.2,370.3 235.7,371.1 236.2,371.9 236.5,373.8 236.6,375.5
			236.8,376.4 237.2,376.7 237.6,376.6 238.1,376.8 238.3,377.3 238.4,377.7 238.6,377.9 239,377.9 239.4,378 239.8,378.2
			239.9,378.6 239.2,378.8 238.6,379 237.3,379.6 236.7,379.7 236.2,379.7 235.2,379.4 234.6,379.4 236.5,383.8 239.2,387.8
			241.8,390.5 244.2,393 246.8,395.8 250.1,399.3 253.2,402.6 256.2,405.7 258.5,408.2 258.8,408.3 259,408.4 259.4,408.5
			259.5,408.4 259.9,408.3 260,408.2 260.2,408.3 260.5,408.5 260.7,408.5 262,408.4 262.5,408.6 263.1,409.1 263.6,409.7
			263.9,410.3 264.3,411.9 264.4,412.1 264.5,412.2 264.7,412.4 265.1,412.2 265.4,412.1 265.7,412.1 266.1,412.3 266.3,412.5
			266.9,413.5 267.4,414.6 267.8,415.2 268.1,415.9 268.2,416.7 268,417.5 267.1,418.3 267,419.2 267.1,420.2 267.1,420.6
			267.2,420.9 267.5,420.9 268,420.9 268.4,420.9 268.7,421 268.5,421.4 268.2,421.8 268.1,422.2 268.2,422.9 268.7,424
			268.8,424.6 268.7,425.2 268.2,426.3 268.1,427 268.3,427.4 268.7,428.2 268.8,428.7 268.8,429.9 268.9,430.1 269.1,430.8
			269.5,431.6 270.1,432.3 270.3,432.6 270.4,432.9 270.5,433.2 270.5,433.8 270.6,433.9 271.1,434.2 271.2,434.3 271.2,434.6
			271,435 270.9,435.3 271.4,435.6 273.1,432.2 274.5,429.2 275.5,427 277,424 278.3,421.2 279.5,418.7 280.3,416.8 280.5,416.1
			280.2,415.5 279.7,415 279.4,414.4 279.3,413 280.5,410.7 280.7,409.6 280.4,408.9 280.1,408.3 280,407.6 280,406.8 280.3,406.1
			281.4,404.6 281.6,403.9 281.6,403.1 282.4,401.2 282.7,398.5 283.2,397.1 284.1,396 285.4,395.1 286.9,394.7 287.7,394.7
			288.3,394.7 290.9,395.4 291.6,395.3 292.2,395 292.2,394.7 292.1,394.4 292.2,394.1 292.6,394.1 292.9,394.1 293.5,394.4
			293.7,394.4 294.6,394.3 295,394.2 295.3,394.4 295.5,394.7 295.8,394.8 296.2,394.7 296.4,394.7 296.9,394.7 297,394.7
			297.3,394.6 297.7,394.3 297.9,394.1 298.5,393.9 298.8,393.9 299.6,393.9 300,393.9 300.8,393.5 301.3,393.4 302.5,393.5
			303,393.4 303.5,393.2 303.8,392.9 304,392.6 304.5,392.2 304.9,392 305.3,392.1 306.1,392.3 307.3,392.2 308,391.6 308.6,390.9
			310.2,390 310.7,389.7 311.1,389.6 311.8,389.7 312,389.8 312.1,390.3 312.3,390.4 312.7,390.4 312.9,390.5 314,391.5 315.2,392
			316.5,392.2 319.1,392.2 319.3,392.2 319.6,392 319.9,392 320.1,392.1 320.4,392.4 320.6,392.5 320.8,392.5 321.4,392.4
			321.7,392.4 322.2,392.7 322.6,393.1 322.9,393.7 323.1,394.3 323.3,394.8 323.8,394.9 324.4,394.7 325.6,394.1 325.8,394
			325.9,394 327.1,394.7 327.3,394.8 327.7,394.8 328.7,394.3 329.8,394.1 331,394.1 332,394.4 332.6,394.9 333,396.2 333.4,396.7
			334.1,396.7 334.8,396.4 335.3,395.9 335.7,395.4 335.8,395 336.1,394.1 336.2,393.7 336.5,393.6 336.8,393.7 337.1,393.7
			339.6,393.5 339.8,393.5 340.1,393.7 340.4,393.7 340.5,393.6 340.6,393.2 340.7,393 341.1,393 341.7,393 341.9,392.9
			342.5,392.3 342.9,391.9 343.3,391.9 344.1,392.6 344.6,393.2 345.9,395.3 346.4,396.4 346.8,396.8 348.2,396.8 347.1,389.5
			347.7,385.6 347.7,384.2 347.7,383.5 348.3,382.4 348.6,381.7 348.7,381 348.7,379 348.3,376.3 347.9,375.1 346.8,373
			346.6,372.4 346.4,372.1 345.6,371.3 345.3,370.8 345.5,370.1 345.9,369.2 346.5,368.7 347.1,368.7 347.7,369.1 348.3,369.2
			349,369.2 349.6,369.1 351.1,368.5 351.4,368.3 233.9,368.3 		"/>
		<polygon fill="#D21034" points="454.2,298 454.2,227.7 454.2,167.5 452.6,167.8 452.1,168.1 451.1,168.7 450.4,169.4 450.3,169.5
			450.1,169.7 449.8,169.7 449.2,169.4 448.9,169.4 448.3,169.5 448,169.6 447.7,169.7 447.5,169.9 447.3,170.1 447.2,170.2
			446.7,170.3 446.2,170.4 445.8,170.7 445.6,171.2 445.5,171.8 445.2,172.7 445.2,173.3 445.2,174 445.5,175.2 445.6,175.7
			445.7,176 446.2,176.6 446.4,176.9 446.4,177.1 446.4,177.4 446.4,177.6 446.6,177.8 445.6,179.5 445.5,180.1 445.5,180.4
			445.7,180.9 445.7,181.2 445.6,181.5 445.3,181.6 444.9,181.6 444.6,181.7 444.2,182.3 444,182.9 443.6,183.5 442.7,183.6
			442.6,183.7 441.5,184.1 441.4,184 441.1,184.2 440.7,184.1 440.3,183.9 440,183.9 439,184.5 438.1,185.6 436.5,189.4
			435.6,190.7 434.6,191.7 433.6,192.1 433.4,192.3 432.1,191.8 431.6,191.5 431.1,191.9 429.5,193.7 429.3,194.2 429.2,194.7
			428.9,194.7 427.2,195.8 426.9,196.4 426.4,197.6 426.4,198.1 426.4,198.3 426.3,198.3 426.1,198.2 426,198.3 425.6,198.6
			425.4,198.8 425.1,198.9 425,198.8 424.7,198.5 424.6,198.4 424.4,198.5 424.3,198.6 424.2,198.7 424.2,198.7 424,198.8
			423.8,199 423.6,199.1 423.5,199.3 423.4,199.9 422.9,200.8 422.8,201.2 422.8,202.3 422.7,202.7 422.2,202.8 422.2,203.1
			422.3,203.2 422.4,203.3 422.4,203.7 421.9,203.5 421.7,203.6 421.7,203.9 421.5,204.1 420.9,204.5 420.6,204.7 420.4,205.1
			420.2,205.5 418.9,206.9 418.6,207.2 417.9,207.4 417.7,208.1 417.7,208.9 417.5,209.5 417.3,209.6 417,209.5 416.9,209.3
			416.7,209.3 416.6,209.3 416.4,209.6 416.3,209.7 415.9,209.8 415.7,210.1 415.6,210.5 415.3,210.8 415.1,210.5 414.8,210.8
			413.3,211.2 412,211.8 412.5,213.1 410.6,213.1 410,213 409.4,212.9 409.4,212.9 408.7,212.5 408.4,212.5 408.3,212.8
			408.3,213.2 408.2,213.5 408,213.7 407.6,213.7 407,214.1 407.2,214.8 407.5,215.6 407.4,215.9 406.6,216.2 406.1,216.8
			405.7,217.6 405.1,218.2 404.8,218.1 404.4,218.1 404.1,218.2 403.5,218.7 403.3,218.8 402.7,218.9 400.1,218.7 399.5,218.9
			398.8,218.3 398.4,218.1 398.1,218 397.6,218.1 396.7,218.7 396.3,218.9 395.8,218.7 395.4,218.3 395.1,217.9 394.9,217.7
			394.6,217.8 394.5,218.1 394.5,218.3 394.5,218.4 394.2,218.4 393.8,218.2 393.5,218.2 393.3,218.3 392.3,219.1 392.2,219.3
			392.3,219.5 392.3,219.6 392.1,219.7 391.9,219.7 391.8,219.2 391.6,219.1 391.4,219.1 391.3,219.3 391.3,219.5 391.3,219.6
			391.2,219.9 390.9,220 390.7,219.9 390.4,220 389.6,220.5 389.1,220.6 388.7,220.3 388.3,220.9 387.9,221.1 385.2,220.9
			384.6,221 383.8,221.2 383.8,227.7 383.8,298 383.8,345.1 384.4,345.2 385.8,345.9 386.2,346.2 386.6,346.6 387.4,347.9
			387.6,348.5 388,348.9 388.8,349.2 391.5,349.7 392.4,350.2 393.1,350.9 394.1,351.6 396.2,352.4 396.8,352.7 398.3,354.5
			398.9,355 399.4,355.3 400.9,355.8 401.6,355.9 402.1,356.1 402.5,356.6 403.1,357.6 403.8,359.1 404.1,359.3 404.6,359.5
			405.2,360.1 405.7,360.8 405.9,361.5 405.7,362 405.4,362.5 405.3,363.1 405.6,363.8 409,366.9 409.6,367.3 410.4,367.5
			413,367.1 415.5,367.1 416.3,367 416.7,366.7 417.1,366.5 417.5,366.2 418.8,366.1 421.7,366.7 424.7,367.8 425.2,367.9
			425.5,368.2 426.1,369.3 426.4,369.7 427.2,369.9 427.6,370.1 427.8,370.6 428,370.7 428.7,370.8 429,370.9 429.2,371
			429.5,371.2 429.9,371.1 430.3,371 430.5,370.7 430.7,370.5 430.9,370.3 431.1,370.1 431.3,370 431.6,369.9 432,369.9 432.4,370
			432.5,370.2 432.7,370.4 434.2,371.4 434.7,371.7 435.5,371.8 436.1,371.9 437.4,371.8 437.8,371.9 438.1,372.1 438.3,372.3
			438.6,372.5 438.9,372.5 439.5,372.5 439.8,372.7 442.8,371.1 443.4,371 444.6,371.1 445.7,371.1 446.1,371.1 446.8,371.3
			446.9,371.5 447,371.6 447.4,371.6 447.7,371.7 448.6,371.6 448.9,371.7 449.5,371.9 449.9,372.3 450.4,372.6 451.1,372.8
			453,372.9 453.6,372.8 453.9,372.7 454.1,372.6 454.2,372.5 454.2,368.3 		"/>
	</g>
	<polygon fill="none" stroke="#999999" stroke-width="0.25" stroke-linecap="round" stroke-linejoin="round" points="625.7,346.3
		625.3,346 624.8,345.7 624.3,344.4 623.4,343.7 621.6,342.5 621,341.7 620.5,340.8 619.6,338.8 619.5,338.3 619.3,336.8 619,336
		619,335.6 619,335.1 620.3,331.7 620.3,331.4 620.4,330.8 620.2,330.6 619.9,330.3 619.7,330.3 619.5,330.4 619.4,330.5
		619.2,330.5 619.1,330.6 618.7,330.6 618.6,330.3 618.6,330.1 618.7,329.6 618.7,329.1 618.8,328.9 618.8,328.7 618.3,328.3
		618.1,328.2 618.1,328 618.1,327.7 618,327.2 617.7,326.7 617.3,326.3 616.9,326.1 616.2,325.9 616.1,325.6 616.1,325.3
		615.9,324.8 615.6,324.6 614.2,324.1 614,324.1 613.4,324.3 613.1,324.3 612.9,324.2 612.7,323.7 612.2,323.2 611.8,322.3
		611.5,322 610.1,322.3 609.4,322.2 609,321.7 608.7,321 608.3,320.9 607.8,321.1 607,321.1 606.3,320.8 606.1,320.3 605.9,318.9
		605.6,318.4 605,318.1 602.8,317.2 600.6,317.3 599.5,317.1 597.7,316.5 597.2,316.1 596.8,315.6 596.6,314.9 596.2,314.3
		595.7,314.1 594.4,315 593.9,315.2 593.9,314.8 593.8,314.5 594.1,313.9 594.6,313.4 595.2,312.9 595.5,312.8 595.8,312.6
		596.3,312.2 596.4,311.9 596.6,311.6 596.6,311 596.1,310.5 595.6,310.4 595.2,310.4 594.8,310.2 594.8,309.4 594.8,308.6
		594.2,308.2 593,308 592.8,307.8 592.3,307.6 591.6,306.6 591.1,306.1 590.5,305.7 590,305.5 589.7,305.3 589.5,304.6 589.5,304.1
		589.7,303.5 589.7,303 589.1,302.8 589.3,302.4 589.6,302.2 589.9,302 590.2,301.7 590.8,300.5 591.3,299.8 591.7,299.2
		592.2,298.3 592.4,297.9 592.4,296.9 590.9,296 589,295.3 587.9,294.7 587.4,294.2 586.1,293.3 585.2,292.1 584.6,291.9
		584.1,291.7 583.4,291.3 583.1,290.9 583,290.6 582.9,290.2 582.8,289.8 582.8,289.6 582.8,289.5 582.8,289.3 582.7,289.1
		582.5,289.1 582.3,289.2 582.1,289.2 582,289.1 581.7,288.4 581.6,286.8 581.4,286.1 580,285.9 579.6,285.8 579.5,285.6
		579.5,285.4 579.3,285.2 579,285 578.3,285 578,284.9 577,284.3 576.9,284 576.8,283.4 576.7,283.2 576.1,283 574.7,282.8
		574.3,282.7 574,282.2 574,281.8 573.8,281.5 573,281.4 572.7,281.3 572.2,280.8 571.8,280.7 571.2,280.7 571,280.6 570.2,280
		569.6,279.8 567.7,279.3 567.2,279 565.8,277.7 565.3,277.4 564.8,277.3 564.2,277.5 563.4,277.2 562.1,276.2 560.4,275.4 560,275
		559.6,274.6 559.5,274.1 559.3,273.2 559,272.8 558.8,272.6 558.3,272.5 558.1,272.3 557.9,272.1 557.6,271.6 557.4,271.4
		557,271.1 555.1,270.1 554.4,268.5 554.3,268 554.3,267.6 555,267 557,266.3 557.7,265.7 557.9,265.1 557.8,264.6 557.6,264.2
		557.5,263.8 557.6,262.4 557.6,261.9 557.4,261.4 557,260.6 556.6,259.6 556.3,259.1 555.9,258.7 555.1,258.4 555,258.2 554.8,258
		554.6,257.9 553.8,257.7 553.3,257.7 552.4,258 551.9,258 551,257.6 550,256.9 548.5,255.2 548.2,255.1 548,254.9 547.7,254.7
		547.5,254.5 547.5,253.9 546.8,253.3 546.8,252.2 546.5,251.6 543.8,249.1 542.8,248.7 540.9,248.4 539.9,247.9 539.3,247.8
		538.7,247.8 536.9,247.5 534.7,247.8 533.7,247.8 532.7,247.2 532.4,247.1 532.1,247 531.9,246.8 531.8,246.5 531.1,245.8
		530,245.9 528,246.6 527.8,246.5 527.3,246.1 527,245.9 526.8,245.9 526.3,245.9 525.6,245.9 524.5,245.6 524,245.4 523.2,244.9
		522.4,244.3 521.7,243.5 521.3,242.6 521.4,241.5 521.8,240.5 523.6,237.5 523.9,237.2 525.2,236.3 525.4,236 525.3,235.6
		524.4,235 524.2,234.5 524.3,234.1 524.9,233.2 524.9,232.8 524.4,232.4 523.2,232.5 521.1,232.8 517.9,232.2 517,232.4
		516.4,232.3 515.1,231.7 513.4,231.9 511.4,231.5 510.2,231.5 509.3,232 508.8,232.1 507.7,231.8 506.7,231.8 506.3,231.7
		505.8,231.3 505.3,231.1 504.8,231.1 504.2,231.1 503.8,231.4 503,232 502.6,232.1 501.9,231.8 501.5,231.1 501.2,230.3
		501.2,229.5 501.6,228.7 502.9,227.2 503.4,226.3 503.8,224.5 503.8,223.4 503.6,222.7 503,222.7 501.9,223.9 501,223.9
		500.2,223.4 499.8,222.7 499.7,222 500.4,217.9 500.9,217.1 501.3,216.9 502.4,217 502.9,216.9 503.2,216.7 503.9,216 505.1,214.4
		505.6,214.1 505.8,213.7 505.8,213.3 505.5,212.3 505.5,211.8 506.3,209.3 506.3,209.1 506.1,208.8 505.9,208.8 505.7,208.8
		505.5,208.4 505.4,208 505.4,207.1 505.4,206.7 505,205.9 505,205.5 505.4,204.6 506.6,202.8 507,201.9 507.1,200.7 506.2,195.2
		505.6,193.8 495.1,176.8 489.3,171.3 486,168.9 481.5,162.4 481.5,161.5 479.7,161.3 477.8,160.7 477,160.1 475.9,159.8
		475.6,159.8 474.5,159.8 474.1,159.8 473.5,159.5 473.3,159.4 472.5,159.5 471.9,159.7 471.2,159.6 470.5,159 470.3,159.4
		469.9,159.3 469.4,159.2 468.9,159.1 468.5,159.2 468.2,159.4 467.7,160.1 467.3,160.3 466.8,160.4 465.8,160.6 465.2,160.8
		464.5,161.1 464.1,161.3 463.5,161.8 463.2,162 462.9,162 462.4,161.8 462,162.1 461.6,162.6 460.7,163.3 460.4,164.3 460,165
		459.1,164.5 458.6,164.6 456,164.3 455.4,164.6 455,165.2 454.8,165.9 454.5,166.3 454.9,167 454.5,167.4 452.6,167.8 452.1,168.1
		451.1,168.7 450.4,169.4 450.3,169.5 450.1,169.7 449.8,169.7 449.2,169.4 448.9,169.4 448.3,169.5 448,169.6 447.7,169.7
		447.5,169.9 447.3,170.1 447.2,170.2 446.7,170.3 446.2,170.4 445.8,170.7 445.6,171.2 445.5,171.8 445.2,172.7 445.2,173.3
		445.2,174 445.5,175.2 445.6,175.7 445.7,176 446.2,176.6 446.4,176.9 446.4,177.1 446.4,177.4 446.4,177.6 446.6,177.8
		445.6,179.5 445.5,180.1 445.5,180.4 445.7,180.9 445.7,181.2 445.6,181.5 445.3,181.6 444.9,181.6 444.6,181.7 444.2,182.3
		444,182.9 443.6,183.5 442.7,183.6 442.6,183.7 441.5,184.1 441.4,184 441.1,184.2 440.7,184.1 440.3,183.9 440,183.9 439,184.5
		438.1,185.6 436.5,189.4 435.6,190.7 434.6,191.7 433.6,192.1 433.4,192.3 432.1,191.8 431.6,191.5 431.1,191.9 429.5,193.7
		429.3,194.2 429.2,194.7 428.9,194.7 427.2,195.8 426.9,196.4 426.4,197.6 426.4,198.1 426.4,198.3 426.3,198.3 426.1,198.2
		426,198.3 425.6,198.6 425.4,198.8 425.1,198.9 425,198.8 424.7,198.5 424.6,198.4 424.4,198.5 424.3,198.6 424.2,198.7
		424.2,198.7 424,198.8 423.8,199 423.6,199.1 423.5,199.3 423.4,199.9 422.9,200.8 422.8,201.2 422.8,202.3 422.7,202.7
		422.2,202.8 422.2,203.1 422.3,203.2 422.4,203.3 422.4,203.7 421.9,203.5 421.7,203.6 421.7,203.9 421.5,204.1 420.9,204.5
		420.6,204.7 420.4,205.1 420.2,205.5 418.9,206.9 418.6,207.2 417.9,207.4 417.7,208.1 417.7,208.9 417.5,209.5 417.3,209.6
		417,209.5 416.9,209.3 416.7,209.3 416.6,209.3 416.4,209.6 416.3,209.7 415.9,209.8 415.7,210.1 415.6,210.5 415.3,210.8
		415.1,210.5 414.8,210.8 413.3,211.2 412,211.8 412.5,213.1 410.6,213.1 410,213 409.4,212.9 409.4,212.9 408.7,212.5 408.4,212.5
		408.3,212.8 408.3,213.2 408.2,213.5 408,213.7 407.6,213.7 407,214.1 407.2,214.8 407.5,215.6 407.4,215.9 406.6,216.2
		406.1,216.8 405.7,217.6 405.1,218.2 404.8,218.1 404.4,218.1 404.1,218.2 403.5,218.7 403.3,218.8 402.7,218.9 400.1,218.7
		399.5,218.9 398.8,218.3 398.4,218.1 398.1,218 397.6,218.1 396.7,218.7 396.3,218.9 395.8,218.7 395.4,218.3 395.1,217.9
		394.9,217.7 394.6,217.8 394.5,218.1 394.5,218.3 394.5,218.4 394.2,218.4 393.8,218.2 393.5,218.2 393.3,218.3 392.3,219.1
		392.2,219.3 392.3,219.5 392.3,219.6 392.1,219.7 391.9,219.7 391.8,219.2 391.6,219.1 391.4,219.1 391.3,219.3 391.3,219.5
		391.3,219.6 391.2,219.9 390.9,220 390.7,219.9 390.4,220 389.6,220.5 389.1,220.6 388.7,220.3 388.3,220.9 387.9,221.1
		385.2,220.9 384.6,221 383.7,221.3 383.4,221.3 383.1,221.3 382.3,221.6 382.2,221.8 381.9,221.9 380.5,221.9 380,222.1
		379.2,221.6 378.2,221.8 377.2,222.1 376.5,222.1 376.2,222.3 376,222.3 375.9,222.2 375.7,222.2 373.3,222.2 373,222.1
		371.8,222.6 371.4,222.7 370.9,222.6 370.3,222.5 369.8,222.2 369.4,222 369.1,222.4 368.8,222.3 368.5,222 368.1,221.8
		367.8,221.8 367.1,222 365.8,222.1 365.5,222.2 365.3,222.6 365.1,222.6 364.3,222.4 364,222.5 363.8,222.5 363,222.2 361.7,222.6
		360.5,223.2 359.8,223.7 359.3,224.1 359.2,224.3 359.1,224.6 358.9,224.7 358.3,224.9 357.8,225.2 357.6,225.2 357.4,225.3
		357.3,225.6 357.3,225.9 357,226 356.7,226 356.5,225.9 355.7,227 355.7,227.4 356.2,227.9 356.7,227.6 357,227.9 357.1,228.4
		357.2,228.8 357.6,229.1 361.3,230.7 361.6,231.2 362.1,231.5 362.9,232.3 363.5,233 362.5,233.7 362.2,234.3 361.5,234.6
		360.2,237.2 357.1,240.7 356.7,241.4 356.5,242.1 356,242.7 355,243.7 353.7,245.7 353,246.3 352.4,246.5 350.6,247.2 349.2,247.8
		348.2,248.8 347.6,250 347.6,251.6 346.7,252.9 344.1,253.5 330.3,253.8 327.4,254.5 324.9,255.4 323.7,255.7 322.4,255.6
		318,254.9 317.5,254.8 316.8,254.9 316.2,255.1 315.5,256 314.9,256.3 314.3,256.5 313.1,256.6 312.5,256.7 312,257.1 311.7,257.8
		311.3,258 309.8,257.5 309.4,258 308.8,258.4 304.5,259.9 304,260.3 303.5,260.7 303.4,261.1 303.3,261.6 303,261.8 302.8,261.7
		302.6,261.8 302,262.3 300.9,263.6 300.3,264.2 299.8,264.4 299.6,264.4 299.5,264.3 299.1,264.1 298.5,263.8 298.1,264.2
		297.9,264.5 298,264.8 297.9,264.9 296.9,264.7 296.6,264.8 296.3,265 296.1,265.3 295.5,265.3 294.1,265.5 292.9,265.9
		292.5,266.2 292.1,266.6 291.9,267.2 291.9,267.4 292.1,267.6 292.2,267.7 292.1,267.9 292,268 291.7,267.9 291.6,267.9
		290.9,268.6 290.6,268.7 289.9,268.8 289.5,268.5 288.8,267.4 287.6,266.1 286.9,265.5 286.1,265.1 284.9,264.8 284.6,264.4
		284.5,263.8 284.5,263.4 284.7,263.1 284.6,262.7 284.5,262.3 284.2,262 284,261.9 283.7,261.8 283.4,261.6 282.8,261.3
		282.5,260.8 282.4,260.2 282.6,259.3 282.6,258.7 282.5,258.4 281.3,258.8 280.7,259.1 280.2,259.5 280,259.8 279.3,260.6
		279.1,260.8 278.7,260.9 278.3,260.8 278.1,260.6 277.7,260.6 277.3,261.1 277.1,261.7 277.1,263.8 277,264.3 276.6,264.5
		273.8,264.9 273.2,265.2 272.1,266 271.5,266.4 270.8,266.5 270,266.5 269,266.9 267,267.1 266.3,267.4 265.8,267.6 265.3,268.1
		264.6,269.1 264.2,269.6 263.1,270.2 262.6,270.4 258.4,271.3 257.3,271.4 256.1,271 254.5,269.5 253.1,269.4 250.8,269.7
		249.6,269.6 248.6,269.3 248.3,269.8 246.6,272.1 246.5,272.6 247.1,273.1 247,273.5 246.9,273.6 246.3,273.6 246.1,273.7
		245.9,273.9 245.6,274.4 245.5,274.6 244,275.7 241.6,277.1 240.4,278.1 239.8,279.6 239.4,280.3 239.3,280.7 239.2,281
		239.4,282.8 239.3,283.1 239,283.5 238.3,283.8 238,284 237.7,284.5 237.4,285.1 236.9,287 235.9,289.8 235.2,291.1 234.7,292.5
		234.5,293 234.1,293.3 232.2,294.2 231.7,294.6 231.3,295.1 227.3,304 226.5,305 226.5,305.4 226.6,306.2 226.6,306.5 226.6,306.8
		226.3,307.4 225.1,308.9 224.6,309.3 220.1,311.4 218.8,311.4 218.5,312 218,312.6 217.1,313.4 216.7,313.6 215.9,314.3
		215.5,314.6 215.5,314.7 215.6,315.1 215.4,315.4 215.4,315.5 215.3,315.8 215.1,315.9 214.9,315.9 214.6,315.7 214.5,315.8
		214.2,316 214.1,316.2 214.2,316.5 214.5,316.8 214.8,317.1 215.2,317.5 215.6,317.9 216.1,318.4 216.3,318.9 216.5,319.5
		216.7,320 217.2,320.3 217.8,320.3 218.7,320.4 219.2,320.3 220,319.8 220.4,319.8 220.8,320.4 221,321.1 221.4,321.6 221.7,325
		221.9,325.7 221.7,326.1 221.2,327.9 220.7,329.3 220.6,329.8 220.6,330.4 220.8,330.8 221.2,331.5 221.5,332 221.5,332.4
		221.5,333.4 221.4,333.7 220.9,334.6 220.8,335.1 220.9,336 220.7,336.4 220.3,336.5 220.3,336.7 220,337.2 219.7,337.7
		219.6,337.9 219.5,338.3 219.3,338.9 219.1,339.4 218.7,339.7 218.4,339.8 218.6,340.1 219.1,340.7 219.7,341.1 221.1,341.5
		221.7,341.9 222.2,342.4 222.5,343 222.8,343.8 222.9,344.5 222.9,346 223.1,347.3 222.8,348.4 222.8,349 223,349.4 223.1,349.7
		223.3,349.9 223.2,350.8 223.3,351.1 223.5,351.4 223.7,351.8 224.2,354.8 224.2,355.1 224,355.9 223.9,356.2 223.8,356.4
		224.1,356.9 224.3,359.3 224.7,360.8 225.6,362.1 226.7,363.3 231.7,366.7 233.1,367.2 233.4,367.4 233.7,367.7 233.9,368.5
		234.1,368.9 235.2,370.3 235.7,371.1 236.2,371.9 236.5,373.8 236.6,375.5 236.8,376.4 237.2,376.7 237.6,376.6 238.1,376.8
		238.3,377.3 238.4,377.7 238.6,377.9 239,377.9 239.4,378 239.8,378.2 239.9,378.6 239.2,378.8 238.6,379 237.3,379.6 236.7,379.7
		236.2,379.7 235.2,379.4 234.6,379.4 236.5,383.8 239.2,387.8 241.8,390.5 244.2,393 246.8,395.8 250.1,399.3 253.2,402.6
		256.2,405.7 258.5,408.2 258.8,408.3 259,408.4 259.4,408.5 259.5,408.4 259.9,408.3 260,408.2 260.2,408.3 260.5,408.5
		260.7,408.5 262,408.4 262.5,408.6 263.1,409.1 263.6,409.7 263.9,410.3 264.3,411.9 264.4,412.1 264.5,412.2 264.7,412.4
		265.1,412.2 265.4,412.1 265.7,412.1 266.1,412.3 266.3,412.5 266.9,413.5 267.4,414.6 267.8,415.2 268.1,415.9 268.2,416.7
		268,417.5 267.1,418.3 267,419.2 267.1,420.2 267.1,420.6 267.2,420.9 267.5,420.9 268,420.9 268.4,420.9 268.7,421 268.5,421.4
		268.2,421.8 268.1,422.2 268.2,422.9 268.7,424 268.8,424.6 268.7,425.2 268.2,426.3 268.1,427 268.3,427.4 268.7,428.2
		268.8,428.7 268.8,429.9 268.9,430.1 269.1,430.8 269.5,431.6 270.1,432.3 270.3,432.6 270.4,432.9 270.5,433.2 270.5,433.8
		270.6,433.9 271.1,434.2 271.2,434.3 271.2,434.6 271,435 270.9,435.3 271.4,435.6 273.1,432.2 274.5,429.2 275.5,427 277,424
		278.3,421.2 279.5,418.7 280.3,416.8 280.5,416.1 280.2,415.5 279.7,415 279.4,414.4 279.3,413 280.5,410.7 280.7,409.6
		280.4,408.9 280.1,408.3 280,407.6 280,406.8 280.3,406.1 281.4,404.6 281.6,403.9 281.6,403.1 282.4,401.2 282.7,398.5
		283.2,397.1 284.1,396 285.4,395.1 286.9,394.7 287.7,394.7 288.3,394.7 290.9,395.4 291.6,395.3 292.2,395 292.2,394.7
		292.1,394.4 292.2,394.1 292.6,394.1 292.9,394.1 293.5,394.4 293.7,394.4 294.6,394.3 295,394.2 295.3,394.4 295.5,394.7
		295.8,394.8 296.2,394.7 296.4,394.7 296.9,394.7 297,394.7 297.3,394.6 297.7,394.3 297.9,394.1 298.5,393.9 298.8,393.9
		299.6,393.9 300,393.9 300.8,393.5 301.3,393.4 302.5,393.5 303,393.4 303.5,393.2 303.8,392.9 304,392.6 304.5,392.2 304.9,392
		305.3,392.1 306.1,392.3 307.3,392.2 308,391.6 308.6,390.9 310.2,390 310.7,389.7 311.1,389.6 311.8,389.7 312,389.8 312.1,390.3
		312.3,390.4 312.7,390.4 312.9,390.5 314,391.5 315.2,392 316.5,392.2 319.1,392.2 319.3,392.2 319.6,392 319.9,392 320.1,392.1
		320.4,392.4 320.6,392.5 320.8,392.5 321.4,392.4 321.7,392.4 322.2,392.7 322.6,393.1 322.9,393.7 323.1,394.3 323.3,394.8
		323.8,394.9 324.4,394.7 325.6,394.1 325.8,394 325.9,394 327.1,394.7 327.3,394.8 327.7,394.8 328.7,394.3 329.8,394.1 331,394.1
		332,394.4 332.6,394.9 333,396.2 333.4,396.7 334.1,396.7 334.8,396.4 335.3,395.9 335.7,395.4 335.8,395 336.1,394.1 336.2,393.7
		336.5,393.6 336.8,393.7 337.1,393.7 339.6,393.5 339.8,393.5 340.1,393.7 340.4,393.7 340.5,393.6 340.6,393.2 340.7,393
		341.1,393 341.7,393 341.9,392.9 342.5,392.3 342.9,391.9 343.3,391.9 344.1,392.6 344.6,393.2 345.9,395.3 346.4,396.4
		346.8,396.8 348.2,396.8 347.1,389.5 347.7,385.6 347.7,384.2 347.7,383.5 348.3,382.4 348.6,381.7 348.7,381 348.7,379
		348.3,376.3 347.9,375.1 346.8,373 346.6,372.4 346.4,372.1 345.6,371.3 345.3,370.8 345.5,370.1 345.9,369.2 346.5,368.7
		347.1,368.7 347.7,369.1 348.3,369.2 349,369.2 349.6,369.1 351.1,368.5 352.2,367.8 352.9,366.8 354.5,362.8 355.3,361.7
		356.3,360.9 356.7,360 356.7,359.9 356.9,359.8 357.5,359.6 357.6,359.5 358.7,357.7 359.3,357.2 359.8,356.9 360.2,356.4
		360.5,355.2 360.7,354.9 361,354.7 361.2,354.4 361.4,354.2 361.7,353.2 362,352.4 362.5,351.9 363.5,350.9 364.1,350.7
		365.5,350.7 366,350.6 366.6,349.8 367.1,348.9 367.3,348.6 368.8,347.9 371.6,346.2 372.3,345.3 372.7,344.9 373.4,344.7
		375.5,344.7 376.1,344.7 377.1,344.2 377.8,344.1 378.9,344.6 382.5,344.7 382.8,344.7 383.4,345 384.4,345.2 385.8,345.9
		386.2,346.2 386.6,346.6 387.4,347.9 387.6,348.5 388,348.9 388.8,349.2 391.5,349.7 392.4,350.2 393.1,350.9 394.1,351.6
		396.2,352.4 396.8,352.7 398.3,354.5 398.9,355 399.4,355.3 400.9,355.8 401.6,355.9 402.1,356.1 402.5,356.6 403.1,357.6
		403.8,359.1 404.1,359.3 404.6,359.5 405.2,360.1 405.7,360.8 405.9,361.5 405.7,362 405.4,362.5 405.3,363.1 405.6,363.8
		409,366.9 409.6,367.3 410.4,367.5 413,367.1 415.5,367.1 416.3,367 416.7,366.7 417.1,366.5 417.5,366.2 418.8,366.1 421.7,366.7
		424.7,367.8 425.2,367.9 425.5,368.2 426.1,369.3 426.4,369.7 427.2,369.9 427.6,370.1 427.8,370.6 428,370.7 428.7,370.8
		429,370.9 429.2,371 429.5,371.2 429.9,371.1 430.3,371 430.5,370.7 430.7,370.5 430.9,370.3 431.1,370.1 431.3,370 431.6,369.9
		432,369.9 432.4,370 432.5,370.2 432.7,370.4 434.2,371.4 434.7,371.7 435.5,371.8 436.1,371.9 437.4,371.8 437.8,371.9
		438.1,372.1 438.3,372.3 438.6,372.5 438.9,372.5 439.5,372.5 439.8,372.7 442.8,371.1 443.4,371 444.6,371.1 445.7,371.1
		446.1,371.1 446.8,371.3 446.9,371.5 447,371.6 447.4,371.6 447.7,371.7 448.6,371.6 448.9,371.7 449.5,371.9 449.9,372.3
		450.4,372.6 451.1,372.8 453,372.9 453.6,372.8 453.9,372.7 454.1,372.6 454.2,372.5 454.6,372.5 454.8,372.6 456.3,373.3
		457.9,373.6 458.5,373.9 458.7,374 459.3,374.6 459.6,374.8 460.3,375.1 461,375.5 464,376.2 467.8,376.1 468.1,376 468.9,375.6
		470,374.9 470.5,374.3 470.8,373.8 470.9,373.6 471.5,373.1 471.6,372.8 471.6,372.5 471.5,371.9 471.5,371.6 472.4,369.9
		472.6,369.6 473,369.5 473.4,369.2 473.6,368.9 473.8,368.6 473.7,368.4 473.1,367.7 473,367.1 472.9,366.3 473.1,365.5
		473.7,365.2 475.1,365.2 475.7,365.2 476.2,364.9 476.4,364.6 476.4,364.3 476.4,363.5 476.5,363.3 476.9,363 477,362.8
		477.1,362.7 477.4,362.1 477.5,361.9 477.5,361.6 477.3,361 477.3,360.6 477.8,360.3 478.1,360 478.4,359.6 478.6,359.2 479,358.1
		479.3,357.6 479.8,357.5 480.3,357.6 480.9,358 481.4,358.1 481.8,357.2 482.5,356.7 482.7,356.3 482.5,356 482.3,355.6
		482.3,355.2 482.5,354.9 482.8,354.5 483,354.5 483.3,354.6 483.8,354.6 484.1,354.5 484.5,354.3 484.9,354.2 485.2,354.2
		485.5,354.4 485.8,355.3 486.2,355.9 486.3,356.4 486.5,356.8 486.9,357 487.3,357 487.7,357.2 488,357.4 488.3,357.7 489,358
		489.8,357.8 491.3,357.1 491.7,357.6 492.5,358.7 492.9,358.9 493,359 493.9,359.5 494.3,360.4 494.6,360.5 495.3,360.6
		495.4,360.7 495.5,360.8 495.9,361.2 496,361.3 496.6,361.3 497.1,361.4 497.7,361.5 498.2,361.9 498.5,361.8 499,361.8
		499.3,361.7 499.4,361.4 499.4,360.9 499.5,360.6 499.7,360 500.1,359.6 500.6,359.4 501.3,359.3 501.9,359.1 503.8,357.6
		504.5,357.3 505.9,356.9 507.1,356.3 507.8,356.1 509.1,356.1 509.8,355.8 511,354.9 511.6,354.7 512,354.8 512.6,355 512.8,355
		513.1,354.9 513.4,354.6 513.7,354.6 515,354.9 515.8,354.9 515.8,354.4 515.6,354.1 515.6,353.8 515.7,353.5 515.9,353.3
		516,353.2 516.2,353.2 516.7,353.7 517.2,353.4 518.9,352.6 519.7,351.9 520.2,351.6 520.8,351.5 521.1,351.7 521.7,352.1
		522.2,352.2 522.5,352 523.4,350.9 524,350.5 524.6,350.4 525.1,350.6 525.4,351.3 525.5,351.3 525.8,351.1 525.9,350.9
		525.9,350.6 526,350.2 526.3,349.3 526.4,349.2 526.7,349 529,348.7 529.5,348.4 530,347.9 529.9,347.6 529.1,347.4 528.8,347.1
		529,346.4 529.5,345.7 529.9,345.2 530.1,345.5 530.4,346.5 530.6,346.7 531,346.9 531.1,346.6 531.1,346.2 531.2,345.9
		531.9,345.6 532.8,345.8 533.7,346.2 534.3,346.6 534.5,346.9 534.7,347.5 534.9,347.7 535.2,347.9 536,347.9 536.4,348.2
		536.7,348.5 536.7,349.1 536.9,349.4 537.2,349.7 538.2,350 538.6,350.3 538.2,350.9 538.1,351.2 538.4,351.4 540.5,351.6
		541.1,351.6 541.6,351.2 542,351.6 542.4,351.5 542.7,351.2 543,350.9 543.3,350.7 543.5,350.8 543.8,351 544.2,351 544.8,350.8
		546,350.1 546.7,349.9 546.8,349.9 547.4,349.4 547.7,349.3 548.1,349.3 549.3,349.6 550.3,350.2 551.4,350.5 551.7,350.5
		551.9,349.8 552.2,349.2 552.4,349 552.6,348.9 552.9,348.7 553.1,348.4 553.4,348.4 553.7,348.5 553.9,348.6 554.2,348.7
		556.3,348.7 556.6,348.6 556.9,348.3 558.3,348.1 558.8,348 559,347.7 559.2,347.3 559.2,346.6 559.3,346.2 559.8,345.7
		559.9,345.5 559.9,345.2 560.1,344.6 560.1,344.3 559.9,344.1 559.3,344 559,343.9 558.8,343.2 559.1,342.6 559.5,342.2
		559.7,341.8 559.8,341.1 560,340.4 560.3,340 561,339.7 560.6,339.2 560.8,339 561.3,338.9 561.6,338.5 562.1,338.8 562.8,338.6
		564.2,337.8 564.3,337.7 564.4,337.8 564.7,338.1 565,338.2 565.8,337.9 566.1,337.8 565.9,337.2 566.2,337.1 566.7,337.2
		567.2,337.1 567.3,337.1 567.6,337.6 567.7,338 567.9,338.3 568.6,338.3 568.6,338.3 568.5,338.5 568.4,338.6 568.2,338.7
		568.2,338.9 568.7,339.2 568.9,339.1 569.2,338.9 569.5,338.9 569.7,338.9 569.9,339.2 570.1,339.3 570.1,339.3 570.8,339.5
		571.2,339.8 572.1,340.8 572.4,341.1 572.9,341.3 573.3,341.2 573.6,340.8 573.2,340.6 573.5,340.5 573.9,340.7 574,341.5
		574.2,341.4 574.5,341.3 574.6,341.3 574.5,341.7 574.6,342 574.8,342.2 575,342.8 575.3,342.6 575.6,342.2 575.7,342.1
		576.5,342.1 576.9,342.5 577.1,343 577.7,343.5 577.7,342.8 578.1,342.5 578.7,342.4 579.2,342.6 579.2,342.1 579.3,341.8
		579.6,341.7 580.1,341.7 580.4,341.9 580.9,342.5 581.4,342.8 581.7,342.6 582.1,342.5 582.6,342.5 582.7,342.1 583,342 583.3,342
		583.5,342.1 583.4,341.9 583.3,341.1 583.5,341.2 583.6,341.2 583.8,341.3 584,341.3 584.3,341.2 584.5,340.9 584.6,340.6
		585.1,340.9 585.3,341.2 585.5,341.5 585.9,341.3 586,341.4 586.2,341.5 586.3,341.7 586.6,341.4 586.7,341.3 587,342.3
		587.2,342.6 587.6,342.4 587.6,343.1 587.8,343.1 588.1,343 588.3,342.9 588.5,343.5 589.1,343.9 589.7,344.2 590.4,344.3
		591,344.3 591.6,344.3 591.9,344.7 592.1,344.6 592.8,344.3 593.1,344.8 593.6,345.1 594,345.4 594.4,345.7 595,346.9 595,347.1
		595.4,347.1 596.3,347.4 596.8,347.5 597.1,347.4 597.5,347.3 598,347.1 598.2,346.8 598.4,347.1 598.8,346.6 599.3,346.4
		599.9,346.5 600.2,346.9 600.4,346.9 600.6,346.6 600.8,346.6 601.3,346.7 601.6,346.6 602,346.2 602.3,346 603.8,346 604.3,346.1
		604.5,346.2 605.8,347.6 606,347.8 606.2,347.8 606.5,347.4 606.7,347.3 607,347.4 607.1,347.6 607.2,347.7 607.2,347.8
		607.8,347.9 608,347.7 608.3,347.3 608.5,347.1 608.9,346.3 609,346 609.9,345 610.8,344.2 611.8,343.6 612.9,343 614.4,342.6
		615.7,342.7 617,343.1 619.6,344.4 620.4,344.6 621.1,344.7 621.6,344.8 622,345.1 622.5,345.5 622.9,345.8 623.2,345.9 623.5,346
		624.1,346 624.5,346.1 624.9,346.4 625.2,346.4 626.1,346.7 	"/>
</g>

</svg>
