<?xml version="1.0" encoding="utf-8"?>

<svg version="1.2" baseProfile="tiny" xmlns="http://www.w3.org/2000/svg" xmlns:xlink="http://www.w3.org/1999/xlink" x="0px"
	 y="0px" viewBox="287.3 143.4 266.1 307.1" xml:space="preserve">

<g id="Congo">
	<g>
		<polygon fill="#009543" points="488.6,150 485.7,149.2 484.9,149.2 484.1,149.2 482.5,149.7 481,150.7 479.9,152 479.4,153.6
			479.1,156.5 478.2,158.7 478.1,159.6 477.9,160.3 477.2,161.3 488.6,150 		"/>
		<polygon fill="#009543" points="433.4,203.5 433.2,203.4 433.1,203.2 432.9,202.7 432.7,202.5 431.9,202.2 431.4,202.3
			430.9,202.5 429.8,202.1 429.3,203.1 428.8,203 428.6,203 428.2,203.5 427.6,204.1 427.1,204.3 426.6,203.7 425.9,203.9
			425.4,203.7 423.7,202.4 423.4,202.3 423.1,203.2 422.8,203.4 422,203.4 420.6,203.3 420.7,202.5 421.1,201.5 420.4,201
			420.3,200.7 419.9,200 419.3,199.5 419.1,199.7 419.1,200.1 419,200.6 418.8,200.9 418.3,201 416.1,201.3 416,201.1 416,200.3
			416,200 415.8,200 415.5,200.1 415.1,200.2 414.7,200 415,200 415.5,199.6 414.5,199.1 414.3,199.2 414.5,200 414,199.8
			413.3,199.1 412.8,198.8 411.9,198.9 411.5,198.7 411.8,198.1 411,197.8 409.8,196.5 408.9,196.2 408.7,196.4 408.4,196.7
			408.4,197.1 408.5,197.4 408.4,197.7 408,197.8 405.2,198.4 404.5,198.8 404.3,198.9 403.8,198.8 403.1,198.2 402.6,197.8
			400.3,197.5 398.8,198.1 398.4,198.2 394.7,198.1 389.1,198.1 382.8,198 375.5,198 370.1,197.9 364,197.9 364,200 363.9,201.1
			363.5,202 362.3,202.7 362.1,202.8 361.4,203.5 361.2,203.6 360.9,203.8 360.9,204.1 361.1,204.7 361,205.1 360.8,205.3
			360.6,205.5 360.4,205.8 360.1,206.2 359.9,206.8 359.5,206.9 359.3,207.1 359.8,207.7 360.1,208.3 360.2,208.6 360.4,209
			360.3,209.6 360,210.9 359.7,211.4 359.3,211.9 358.9,212.1 359.2,212.7 359.1,213.4 358.8,214 358.7,214.8 358.9,216.4
			358.8,217.2 358.2,217.9 358.7,218.9 359.4,219.8 359.6,219.6 360,219.9 360.3,220.3 360.3,220.8 360.1,221.3 360.9,221.6
			361.5,223.3 362.1,223.7 362,224 362.1,225.6 362,225.9 362.1,226.2 362.2,226.4 362.5,226.9 362.4,227 362.2,227.2 361.8,227.9
			361.3,228.2 360.7,228.4 360.2,228.5 360,228.7 359.8,229.2 359.6,229.6 358.9,229.7 359.3,230 359.7,230.2 360,230.4
			360.1,230.9 360.5,231 361.2,230.9 362.4,230.9 363.2,230.8 363.8,230.5 364.5,229.7 365.1,229.6 365.7,229.5 365.9,228.8
			366.2,228.6 366.9,228.4 367.7,228.3 368.2,228.3 369.5,228.8 370.6,229 371.6,229 372.8,228.8 373.3,228.4 374.1,227.4
			375.4,226.9 375.8,226.5 376.3,226.2 377,226.1 377.4,226.1 377.7,226.1 378.3,226 378.6,225.9 379,225.5 379.2,225.4
			379.4,225.5 379.8,225.7 379.9,225.7 380.3,225.6 380.4,225.5 380.9,224.7 381.2,223.7 381.2,223.6 381.7,223.5 388.4,224.1
			389,224.2 389.7,224.6 390.2,225.1 390.8,225.5 391.5,225.5 392.8,225.1 393.4,224.9 394.1,225 395.5,225.3 395.8,225.6
			396.1,225.8 396.3,226 396.7,226.1 396.9,226.4 397.2,226.6 397.6,226.8 397.9,227.1 398.2,227.5 398.7,229.7 398.8,230.6
			398.7,233.3 399,234.2 399.6,234.9 401.3,235.7 401.8,236.4 401.9,236.7 434.6,204 		"/>
		<polygon fill="#FBDE4A" points="525.5,265.4 528.6,261.2 528.8,260.7 529,257.2 528.9,256.6 528.7,256 528.3,255.4 527.8,255.1
			527.1,253.4 526.9,252.6 526.9,251.6 527.4,248.9 527.4,247.9 526.4,243.4 526.4,240.6 526,238.2 526.2,237.4 526.9,236
			527.7,235.2 529.1,232.7 529.4,232 529.5,229.8 530.8,225.9 530.9,224.6 531.1,223.9 533.2,219.4 533.3,218.6 533,208.5
			533.1,207.9 533.5,206.8 533.6,206.1 533.6,205.6 533.4,204 533.5,200.6 533.5,199.5 533.2,198.4 533.2,197.9 534.6,194.2
			534.9,193.8 535.7,192.8 535.9,192.4 536.5,192.3 536.8,191.7 537.3,190.5 537.7,189.9 538,189.2 538.3,188.5 538.7,186.4
			538.9,185.9 539.4,185.3 541.4,183.4 541.8,183.3 541.9,183 544.6,178.4 545.5,176 545.6,175.1 545.7,174.6 546.6,172.8
			547.2,171.9 547.4,171.6 547.5,170.8 547.7,170.4 548.2,169.6 549.4,166.1 549.9,165.4 550.6,164.9 551.8,164.3 552.4,163.8
			552.6,163.3 552.7,162.8 553,162 553.4,156.9 553.2,152.5 552.9,151.6 551.3,151.5 550.8,151.1 550.3,149.8 548.8,147.5
			548.2,146.8 547.4,146.1 546.9,146.1 546.5,146.6 545.9,147.2 545.5,147.3 544.9,147.3 544.5,147.3 544.4,147.5 544.2,148
			544.1,148.1 543.8,148.1 543.5,147.9 543.2,147.8 540.4,148.1 540,148.1 539.7,148 539.4,148.1 539.2,148.6 539,149.6 538.8,150
			538.4,150.6 537.8,151.2 537.1,151.5 536.3,151.4 535.8,150.9 535.4,149.5 534.8,148.9 533.5,148.5 532.3,148.5 531.1,148.8
			530,149.4 529.6,149.4 529.2,149.3 528,148.5 527.8,148.4 527.6,148.6 526.2,149.2 525.6,149.4 525,149.3 524.8,148.8
			524.6,148.1 524.3,147.4 523.9,146.9 523.3,146.6 523,146.6 522.3,146.7 522,146.7 521.8,146.6 521.4,146.2 521.2,146.1
			520.9,146.1 520.5,146.2 520.3,146.3 517.4,146.3 516,146.1 514.7,145.5 513.4,144.4 513.2,144.3 512.8,144.3 512.6,144.1
			512.4,143.7 512.3,143.5 511.5,143.4 510.9,143.6 510.4,144 508.5,145 507.8,145.9 507.1,146.6 505.8,146.7 504.9,146.3
			504.4,146.3 503.9,146.5 503.4,146.9 503.1,147.3 502.8,147.6 502.2,147.9 501.7,147.9 500.3,147.9 499.8,148 498.8,148.4
			498.4,148.5 497.4,148.4 497.1,148.5 496.5,148.8 496.3,148.9 495.9,149.3 495.6,149.4 495.3,149.4 494.9,149.4 494.6,149.4
			494.1,149.6 493.8,149.4 493.6,149.1 493.2,148.9 492.8,148.8 491.9,149 491.5,148.9 490.9,148.7 490.5,148.6 490,148.6
			490,148.9 490.1,149.3 490,149.6 489.3,149.9 488.6,150 477.2,161.3 476.7,162 476.3,162.8 476.3,163.7 476.6,164.4 476.9,165.2
			477.2,166 477,167.2 475.6,169.8 475.7,171.4 476.1,172.1 476.6,172.6 477,173.3 476.8,174.1 475.8,176.2 474.5,179 473,182.2
			471.4,185.6 470.2,188 468.6,191.4 466.8,195.2 467,195.4 467.2,195.7 466.9,196.1 465.5,197.1 464.8,196.5 464.1,196.4
			463.5,196.7 463.3,197.5 462.9,198.3 462.8,198.7 462.9,199.2 463,199.5 463.1,199.8 463,200.3 462.9,200.3 462.8,200.3
			462.6,200.4 462.5,200.5 462.5,200.7 462.5,200.9 462.5,201 462.5,201 462.6,201.3 462.7,201.6 462.7,201.9 462.2,202.7
			462.1,203 462.1,204.3 462.3,204.5 462.5,204.6 462.8,204.9 463.4,205.9 464.6,209 465.5,212.9 465.3,213.4 465,213.6
			464.2,213.4 463.9,213.4 462.3,215.7 460.9,213.9 460.6,213.3 460.6,213 460.7,212.6 460.8,212.3 460.6,211.9 460.3,211.6
			459.9,211.4 459.5,211.4 459.1,211.6 458.5,211.4 457.8,211.2 457.3,211 457.2,210.4 456.8,210.6 456.4,210.8 455.9,210.8
			455.8,210.5 455.7,210 455.4,209.8 455.1,209.6 454.2,209 453.3,208.7 452.8,208.5 451.5,206.8 451.2,206.6 450.4,206.5
			450,206.3 449.6,206.1 449.4,205.9 446.1,205.6 443.1,204.7 441.5,204.4 440,204.6 438.1,205.7 437.4,205.9 436.8,206.3
			436.3,206.3 436.4,206.2 435.5,205.9 435.4,205.8 435.1,205.5 435,205.4 435.1,205.2 435.2,204.7 435.1,204.5 434.9,204.2
			434.6,204 434.6,204 401.9,236.7 402.3,238.2 402.7,239 403.2,239.8 403.8,240.5 404.5,241.1 405.3,241.5 405.6,241.8
			405.5,242.3 405.2,242.6 404.8,242.9 404.5,243.1 404.6,243.6 404.9,245.2 403.6,246.7 402,248 401,249.5 400.9,251.3
			400.7,252.1 398,254.3 397.9,254.5 397.7,254.7 397.2,254.8 395.5,254.9 393.5,254.7 391.7,254.9 390.6,256.4 391,257.2
			391.3,257.9 391.1,258.6 390.5,259.4 387.8,260.8 387.1,261.6 385.8,264.4 384.6,266.2 384.5,267 384.6,267.9 385,269
			385.2,269.9 385.3,272.4 385.5,272.6 386,272.6 386.4,272.7 386.7,273.1 386.6,273.5 386.1,274.2 386,274.5 386,275 386.2,275.4
			386.2,275.8 385.9,276.2 385.5,276.6 383.5,279.3 383.1,280.2 383.1,281.2 384.7,283.1 384.9,283.2 385.1,283.2 385.6,283
			385.8,282.9 385.8,282.6 386,282.4 386.3,282.3 387.5,282.4 387.9,282.6 388.2,282.8 388.4,283.2 389.7,282.8 391.1,283
			392.4,283.7 393.3,284.6 393.9,285.8 394.4,287.2 394.6,288.6 394.7,289.9 395.3,289.6 395.9,289.4 396.5,289.4 397.1,289.7
			397.7,289.8 398.2,289.6 398.8,289.4 399.4,289.3 400.4,289.6 401.7,290.2 402.9,290.9 403.7,291.9 405.1,292.9 405.6,293.4
			406.4,295.1 406.7,296.1 406.5,297.3 405,300.4 404.8,301.2 404.8,302.1 405.1,303 405.2,304 404.8,304.8 404.2,305.5
			403.7,306.3 403.5,307.2 403.3,308.7 402.9,309.4 402.9,309.9 403.9,312.7 404.3,313.4 404.4,313.9 404.4,314.2 404.2,314.8
			404.2,315.1 404.4,315.5 405.2,316.2 405.5,316.7 405.5,317 405.5,318.1 405.4,318.9 405.2,319.2 405,319.6 404.8,319.9
			404.5,320.1 404.2,320.4 404.1,320.8 404.4,321.4 404.9,322 406.1,322.8 406.3,323.5 406.1,323.9 405.6,324.2 405.2,324.6
			405.1,324.9 405,325.8 404.6,326.8 405,327.2 405.4,327.9 405.4,328.4 404.3,328.6 404.1,328.9 403.9,329.3 403.7,329.7
			403.3,329.9 403,330.1 402.3,330.4 402,330.6 402.2,330.9 402.9,331.3 403.3,332.7 403.9,332.9 404.7,333 404.9,333.2
			404.1,333.7 403.7,334.2 403.4,335 403.3,337.8 403.1,338.7 403.1,339 403.4,340.5 403.1,341 402.2,341.5 398,343.1 397.7,343.4
			397.5,343.7 397.4,344 397.5,344.4 397.3,344.7 397.3,344.9 397.5,345.1 397.8,345.3 398,345.6 397.9,346 397.7,346.7
			397.5,348.5 397.3,349 397.1,349.3 396.5,349.5 396.3,349.6 396.2,350 396.5,350.6 396.5,350.9 396,351.4 394.8,351.8
			394.3,352.2 394.4,353.4 397.1,355.7 397.3,356.8 397.2,356.7 395.5,357.1 395.2,357.2 394.8,357.5 394.2,358 393.9,358.3
			393.7,358.7 393.7,359.6 393.5,359.9 393.1,360.2 392.8,360.5 392.4,361.6 392.2,361.8 391.9,361.9 391.5,361.7 391,361.4
			390.6,361.4 390.4,361.4 388.8,362 388.5,362 388.3,361.7 388.2,361.1 387.9,360.9 387.5,360.9 387.2,361 386.6,361.4
			385.8,361.5 385,361.5 384.2,361.2 383.6,360.7 383.6,360.5 383.6,359.2 383.9,358.9 384.6,358.5 385.1,357.5 385.6,357.2
			385.7,357 385.2,356.3 384.9,356.1 384.5,355.9 384.2,355.6 384.1,354.6 383.8,354.3 383.2,353.6 382.8,353 382,351.4
			381.6,349.9 381.3,349.2 380.9,348.5 380.4,348 380.1,347.8 379.9,347.7 379.8,347.9 379.1,349 378.7,349.7 378.6,350.1
			378.6,350.8 378.5,351.2 378.2,351.5 375.5,354.1 375.3,354.5 375.1,355.3 375,355.6 374.6,355.8 373.8,356.1 373.4,356.3
			373,356.6 372.5,357.2 372.2,357.5 371.1,358.3 370.7,358.7 370.5,359 370.4,359.3 370.3,359.6 369.9,359.8 369.7,359.8
			369.4,359.3 369.2,359.3 368.7,359.4 368.5,359.4 367.7,359.3 367,359.5 366.4,359.4 360.2,357.1 359.9,357.1 359.5,357.1
			358.8,357.5 358.4,357.6 357.7,357.4 355.4,356.4 354.5,356.2 354,356.3 353,357.4 352.5,357.4 352.4,357.2 352.6,356.9
			353,356.5 353.2,356.3 353.3,356 353.4,355.7 353.4,355.4 353.5,355 353.7,354.7 354,354.4 353.9,354 353.8,354 353.5,354
			353.3,353.7 353.2,353.5 353,352.5 352.7,352.1 352,351 351.7,350.7 350.8,351.2 350.3,351.2 350.2,350.6 350.2,350.2 350,349.9
			349.5,349.5 349.5,349.3 349.5,349 349.7,348.8 349.7,348.6 349.9,348.4 349.9,348.2 349.2,348 349.2,347.8 349.2,347.6
			349.2,347.4 349.3,347.4 349.1,346.6 349,346.4 348.4,345.9 348.2,345.6 347.9,344.9 347.1,342.3 346.7,341.4 346.1,341
			344.6,340.6 342.1,338.8 340.6,338.1 338.9,338.2 338.5,338.3 336.8,339.5 336.5,339.7 336.4,339.9 336.1,340.4 336.1,340.7
			336.1,341 335.9,341.4 335.4,341.6 334.8,341.4 333.7,340.3 333.3,340.2 333.2,340.7 333.5,344.5 333.8,345.9 334.5,347
			335.9,347.6 335.8,348.3 335.1,349.3 334.9,349.8 334.8,350.3 335.1,351.8 334.8,352.8 334.3,354 334.1,355.1 334.5,355.9
			320.4,358.9 319.3,358.8 318.2,358 317,356.6 316.4,356.1 316,355.9 314.9,356.4 313.4,356.9 312.2,357.2 311.4,357.5
			310.2,358.6 309.6,358.9 309,358.9 308.3,358.5 307.1,357.6 306.9,357.3 306.7,357 306.5,356.7 306,356.5 304.2,355.9
			302.9,355.9 302.9,355.9 302.6,356.6 303.3,358.6 303.5,359.4 303.2,361.4 303.2,362 303.5,362.7 304.4,364.2 304.7,364.9
			304.9,365.8 304.9,366.6 304.7,367.3 304.4,368.2 301.8,372.4 301.4,374 301.6,374.8 302.2,374.7 303.6,373.7 304.6,373.4
			305.3,373.6 305.9,374.3 307.1,376.1 309.8,378.9 310.4,379.7 310.4,380.5 309.5,381 308.7,381.1 308.2,381.1 307.8,381.3
			307.4,382.1 307.2,382.8 307.1,385.2 307.1,385.4 307.1,385.5 307.5,385.8 307.7,386 309.7,386.9 310.5,387.3 311.9,388.5
			313.2,389.1 314.9,389.6 316.2,390.2 316.6,391.3 316.1,392.1 314.6,393.2 314.1,394.1 312.1,398.8 312,399.6 312.4,400.4
			313.1,400.8 313.9,401.1 314.6,401.4 314.9,402.2 314.6,403 314,403.7 313.2,404.3 312.5,404.6 311.8,404.5 309.8,404
			309.1,403.9 307.2,404.1 306.4,403.9 305.8,403.2 303,398.7 301.7,397.7 299.9,397.5 298.9,398.1 298.3,399.2 297.5,400.2
			296.1,400.7 294.7,401 293.5,401.7 292.5,402.5 291.3,403.3 290.3,404.1 289.8,405.2 287.3,411.7 287.9,412.2 288.4,412.8
			288.6,412.8 292.3,415.7 295.5,418.7 295.7,419 295.7,419.4 295.7,420.2 295.8,420.5 296.2,421.3 296.4,421.5 298,423
			298.9,423.4 300.5,425.1 303.7,428 307.4,430.8 310.9,434.8 311.2,435.8 310.6,436.8 310,437.3 309.8,437.7 310,438.2 312,440.1
			312.4,440.6 311.9,441.6 311.6,441.7 311.4,441.1 311.2,441.1 311.4,442 311.9,442.8 314.2,444.9 314.7,445.5 315.4,446.7
			316.7,448.3 317.5,449.7 318,450.2 318.7,450.5 322.9,447 323.8,445.5 324.9,441.8 325,441.7 325.4,441.7 325.8,441.9
			326.1,442.3 326.5,443.1 326.9,442.8 327.4,442.6 327.9,442.5 329.1,442.4 329.6,442.2 330,441.8 331.5,438.8 331.6,438.1
			331.6,436.6 331.9,436.1 332.9,436.2 333.4,436.2 335.8,435.4 339.7,434.7 340.3,434.5 340.7,434.1 341.5,432.6 342,432.1
			342.5,431.6 343.2,431.2 343.6,430.7 343.9,429.8 344.3,429 345.2,428.5 345.7,428.7 346.6,429.2 347.1,429.3 347.6,429.2
			348,429 348.5,429 349,429.3 349.5,430 350.2,431.7 350.9,432.5 352.3,433.6 354.6,436.3 356.2,437.1 356.1,436 356.7,435.2
			357.6,435.1 358.4,436 358.7,436.5 358.8,436.7 522.9,272.5 		"/>
		<polygon fill="#DC241F" points="358.8,436.7 359.3,437.4 359.7,438.6 360.1,438.9 361,439.5 362.7,441 363.3,441.4 365.5,442.2
			366,442.4 366.3,442.8 366.5,443.2 366.8,444.4 367.5,446 367.9,445.7 368.9,444.5 370.7,443.2 371.1,443 371.2,442.7
			371.1,442.4 370.7,442.1 371.8,441.4 372.3,441.4 372.7,441.6 373.4,442.3 373.8,442.5 374.6,442.2 375.3,440.8 376.1,440.4
			376.4,440.4 377.2,440.6 377.5,440.6 377.7,440.3 377.6,439.7 377.8,439.3 378.1,439.1 378.4,439.2 378.6,439.2 378.9,438.9
			378.4,437.4 378.5,436.7 379.1,435.2 379.2,434.5 378.8,431.1 378.9,430.7 379.4,430.5 381.6,429.7 382.3,429.8 383.1,430.3
			383.4,430.7 383.9,431.7 384.3,432 384.7,432.1 385.7,432 386.7,432.3 387.1,432.3 387.5,432.1 388,431.4 388.6,431 388.7,430.9
			388.8,430.8 389.8,429.4 391.1,428.9 394.2,428.5 395.6,428.1 396.9,427.4 398.2,426.3 399,425.8 400.6,425.4 402.1,424.6
			402.8,424.5 403,424.7 403,425 403,425.3 403,425.8 402.8,426.3 402.7,426.5 402.7,426.7 403,427.2 403.5,428.1 404.2,428.9
			405.4,429.7 405.7,429.9 405.6,430.6 405.1,431.3 404.5,431.9 404.1,432.5 403.7,432.9 402.3,433.5 401.8,434 401.5,434.5
			401.4,434.8 401.7,435.5 402,436.9 402.5,437.6 403.1,438.1 403.5,438.6 403.6,439.5 403.5,439.8 403.3,440.5 403.2,440.8
			403.2,441.2 403.3,441.5 403.5,441.9 403.7,442.2 403.1,445 403.2,446 403.9,445.9 404.5,445.8 405,445.6 405.7,444.8
			406.1,444.6 406.8,444.4 407.5,444.4 407.7,444.8 407.9,445 408.7,444.9 409,445 409.1,445.1 409.4,445.6 409.6,445.7 410,445.8
			411.1,446.5 411.5,446.6 412.9,446.5 413.9,446.1 416.2,444.7 417.9,444 418.5,443.5 418.8,443 419.1,442.4 422,437.6
			424.7,434.9 425,434.4 425.3,434.1 427.1,433.1 427.9,432.4 431.1,427.9 431.3,427.4 431.7,426.7 432.5,426.2 433.5,425.8
			434.2,425.4 438.1,423.4 439.5,422.9 440.4,422.4 440.7,422.3 440.8,422.1 441.6,421.2 441.8,420.9 442.9,417.5 443.4,416.8
			443.9,416.4 444.5,416.1 449.6,414.5 451.2,414.3 452.8,414 454.4,413.6 455.7,412.8 456.8,411.9 457.4,409.8 457.6,409.4
			457.9,409.1 459,407.2 459.6,405.6 460.1,405.1 460.3,404.3 461.8,401.4 464,398.7 464.8,397.2 465.5,395.3 467.2,392.3
			467.7,391.2 467.8,390.6 467.9,389.7 467.7,389.4 467.3,389.1 466.9,388.7 466.7,387.9 466.9,386.4 466.9,385.6 466.6,384.9
			466.4,384.3 466.6,382.4 466.4,380.4 466.5,378.7 466.1,375.4 466.2,374.9 466.3,374.4 467.1,371.9 467.8,366.7 466.7,358.2
			466.6,356.5 466.6,356.2 466.5,356 466.2,355.5 466.1,355 466.1,354.4 466.6,352.8 466.6,352.6 466.5,352.3 466.5,351.5
			466.8,350.7 467.2,350 468,348.9 468.9,348.1 469.9,347.4 471.9,345.5 473.4,344.4 475.6,342.2 476.2,341.5 476.5,341.2
			476.7,341.2 477.2,340.9 477.8,340.5 478.1,340.4 478.2,339.9 478.4,339.5 481.3,335.7 481.7,334.8 481.9,333.7 481.9,332.5
			481.9,332.1 482.1,331.6 482.4,331 483.6,329.2 484.4,327.5 485.5,326 486.9,323.4 487.5,322.6 488,321.3 488.8,319.8
			489.2,318.8 489.4,318.6 489.6,318.4 490.4,317.9 492.1,316.6 493.2,315.3 494.6,314.1 495.4,313.1 495.5,312.9 495.7,312.8
			496.1,312.5 496.3,312.4 497.4,312.3 499.1,311.8 501.5,310.8 502.2,310.6 504,310.4 505.8,309.9 506.2,309.6 506.9,308.8
			507,308.6 507.9,308.2 508.2,308 508.9,307.1 509.8,306.2 516.6,298.2 517.3,297.6 517.8,297.1 518.2,296.8 518.3,296.7
			518.4,296.5 518.5,296 518.6,295.7 518.8,295.5 521.1,293.4 521.6,292.7 521.8,292.3 521.5,286.1 520.6,282.6 520.6,281.7
			520.6,280.8 522.1,274.3 522.7,273 522.9,272.5 		"/>
	</g>
	<path vector-effect="none" fill="none" stroke="#999999" stroke-width="0.25" stroke-linecap="round" stroke-linejoin="round" d="
		M552.9,151.6l0.3,1l0.3,4.4L553,162l-0.3,0.8l-0.1,0.4l-0.2,0.6l-0.6,0.5l-1.2,0.6l-0.7,0.5l-0.5,0.6l-1.2,3.5l-0.5,0.9l-0.1,0.4
		l-0.1,0.8l-0.2,0.4l-0.6,0.9l-0.8,1.8l-0.1,0.5l-0.1,1l-0.9,2.4l-2.7,4.6l-0.1,0.3l-0.4,0.1l-2,1.9l-0.5,0.6l-0.3,0.6l-0.4,2.1
		l-0.2,0.7l-0.3,0.7l-0.4,0.6l-0.5,1.2l-0.4,0.5l-0.6,0.2l-0.1,0.4l-0.9,1l-0.3,0.4l-1.4,3.7v0.5l0.2,1.1l0.1,1.1l-0.2,3.4l0.2,1.6
		l0,0.6l-0.1,0.6l-0.4,1.2l-0.1,0.6l0.3,10.1l-0.1,0.7l-2.1,4.6l-0.2,0.7l-0.2,1.3l-1.2,3.9l-0.1,2.2l-0.3,0.7l-1.5,2.5l-0.8,0.9
		l-0.7,1.3l-0.2,0.8l0.4,2.4v2.8l1,4.5v1l-0.5,2.7l0,1l0.2,0.9l0.7,1.7l0.5,0.3l0.4,0.6l0.2,0.7l0.1,0.6l-0.2,3.4l-0.2,0.6l-3,4.2
		l-2.8,7.6l-0.6,1.3l-1.4,6.6l-0.1,0.9l0.1,0.9l0.9,3.5l0.3,6.2l-0.3,0.3l-0.5,0.7l-2.3,2.1l-0.2,0.2l-0.2,0.3l-0.1,0.5l0,0.1
		l-0.1,0.1l-0.4,0.3l-0.5,0.5l-0.8,0.5l-6.8,8.1l-0.9,0.8l-0.7,0.9l-0.3,0.2l-0.9,0.5l-0.1,0.2l-0.7,0.8l-0.4,0.2l-1.9,0.5l-1.8,0.3
		l-0.7,0.2l-2.4,1l-1.7,0.5l-1.1,0.2l-0.2,0.1l-0.4,0.3l-0.2,0.1l-0.1,0.2l-0.8,1l-1.4,1.2l-1.1,1.3l-1.6,1.3l-0.8,0.5l-0.2,0.2
		l-0.2,0.3l-0.4,1l-0.8,1.5l-0.5,1.3l-0.6,0.8l-1.3,2.6l-1.2,1.5l-0.8,1.6l-1.2,1.8l-0.3,0.6l-0.2,0.6l0,0.4l0,1.2l-0.2,1l-0.5,0.9
		l-2.9,3.8l-0.2,0.4l-0.1,0.5l-0.2,0.1l-0.6,0.5l-0.5,0.2l-0.2,0.1l-0.3,0.3l-0.5,0.7l-2.2,2.2l-1.5,1.1l-2,1.9l-1,0.7l-0.9,0.8
		l-0.9,1.1l-0.4,0.7l-0.3,0.8l0.1,0.8l0.1,0.3l0,0.2l-0.5,1.6l-0.1,0.6l0.1,0.5l0.3,0.5l0.1,0.2l0.1,0.3l0,1.7l1.2,8.5l-0.7,5.2
		l-0.8,2.5l-0.1,0.5l0,0.5l0.4,3.3l-0.1,1.8l0.2,2l-0.2,1.9l0.2,0.6l0.3,0.7v0.8l-0.2,1.5l0.2,0.7l0.4,0.4l0.4,0.3l0.2,0.4l-0.1,0.8
		l-0.2,0.7l-0.5,1.1l-1.8,3l-0.7,1.9l-0.8,1.5l-2.2,2.7l-1.4,2.9l-0.3,0.8l-0.5,0.5l-0.6,1.7l-1.1,1.9l-0.3,0.3l-0.2,0.4l-0.6,2.1
		l-1,1l-1.4,0.7l-1.6,0.5l-1.6,0.2l-1.6,0.2l-5.1,1.6l-0.6,0.3l-0.5,0.4l-0.5,0.7l-1.1,3.5l-0.2,0.3l-0.8,0.8l-0.1,0.2l-0.3,0.1
		l-0.9,0.5l-1.4,0.5l-3.9,2l-0.7,0.5l-1,0.4l-0.9,0.5l-0.4,0.7l-0.2,0.5l-3.2,4.5l-0.8,0.7l-1.9,1l-0.3,0.4l-0.2,0.5l-2.7,2.7
		l-2.9,4.8l-0.3,0.6l-0.4,0.5l-0.6,0.5l-1.7,0.7l-2.4,1.5l-1,0.4l-1.4,0.1l-0.4-0.1l-1.1-0.7l-0.4-0.2l-0.2-0.1l-0.3-0.5L409,445
		l-0.3,0l-0.8,0l-0.2-0.1l-0.3-0.4l-0.6,0l-0.7,0.2l-0.4,0.2l-0.7,0.8l-0.4,0.2l-0.7,0.1l-0.6,0.1l-0.2-1.1l0.6-2.7l-0.1-0.4
		l-0.2-0.3l-0.2-0.3l0-0.4l0.1-0.3l0.3-0.6l0.1-0.3l-0.1-0.9l-0.4-0.6l-0.5-0.5l-0.5-0.7l-0.3-1.3l-0.3-0.8l0-0.3l0.3-0.5l0.6-0.5
		l1.3-0.6l0.4-0.4l0.4-0.6l0.6-0.7l0.5-0.7l0.1-0.7l-0.2-0.2l-1.2-0.8l-0.7-0.8l-0.6-0.9l-0.2-0.5l0-0.2l0.1-0.2l0.2-0.5l0.1-0.5
		V425l-0.1-0.3l-0.2-0.2l-0.7,0l-1.5,0.8l-1.6,0.4l-0.7,0.5l-1.3,1.2l-1.3,0.6l-1.4,0.4l-3.1,0.4l-1.3,0.5l-1,1.4l-0.1,0.1l-0.1,0.1
		l-0.6,0.4l-0.6,0.7l-0.4,0.2l-0.4,0l-1.1-0.3l-1,0.1l-0.3-0.1l-0.4-0.3l-0.5-0.9l-0.3-0.4l-0.8-0.5l-0.7-0.1l-2.2,0.8l-0.4,0.2
		l-0.1,0.4l0.4,3.4l-0.1,0.7l-0.6,1.4l-0.1,0.8l0.5,1.5l-0.2,0.3l-0.3,0l-0.3-0.1l-0.3,0.2l-0.1,0.4l0.1,0.6l-0.2,0.3l-0.3,0
		l-0.8-0.2l-0.3,0l-0.7,0.5l-0.8,1.4l-0.7,0.2l-0.4-0.2l-0.7-0.7l-0.5-0.2l-0.4,0.1l-1.1,0.7l0.4,0.3l0.1,0.3l-0.1,0.3l-0.4,0.2
		l-1.8,1.3l-1,1.2l-0.4,0.3l-0.8-1.5l-0.3-1.2l-0.2-0.4l-0.3-0.3l-0.5-0.3l-2.1-0.8l-0.6-0.4l-1.7-1.4l-0.9-0.6l-0.4-0.3l-0.4-1.2
		l-0.6-0.9l-0.3-0.5l-0.8-0.9l-0.9,0.1l-0.6,0.8l0.1,1.2l-1.6-0.8l-2.3-2.8l-1.4-1.1l-0.7-0.8l-0.6-1.7l-0.5-0.7l-0.6-0.3l-0.4,0
		l-0.4,0.2l-0.6,0.1l-0.5-0.1l-0.9-0.5l-0.5-0.2l-0.9,0.5l-0.4,0.8l-0.3,0.8l-0.5,0.6l-0.6,0.4l-0.6,0.5l-0.5,0.6l-0.8,1.4l-0.4,0.4
		l-0.6,0.2l-3.9,0.7l-2.4,0.8l-0.5,0.1l-1-0.1l-0.3,0.5l0,1.5l-0.2,0.7l-1.5,2.9l-0.4,0.4l-0.5,0.2l-1.2,0.1l-0.5,0.1l-0.5,0.2
		l-0.3,0.3l-0.4-0.8l-0.3-0.4l-0.3-0.2H325l-0.2,0.2l-1.1,3.6l-0.9,1.5l-4.2,3.5l-0.6-0.3l-0.5-0.6l-0.8-1.3l-1.3-1.6l-0.7-1.2
		l-0.5-0.6l-2.3-2.1l-0.5-0.8l-0.2-1h0.2l0.2,0.6l0.3-0.1l0.5-1l-0.4-0.5l-2-1.9l-0.2-0.4l0.2-0.4l0.5-0.5l0.6-1l-0.2-1l-3.5-4
		l-3.7-2.8l-3.2-2.9l-1.5-1.7l-1-0.5l-1.6-1.5l-0.2-0.2l-0.5-0.8l-0.1-0.3l0-0.8l0-0.4l-0.1-0.3l-3.3-3l-3.7-2.9h-0.2l-0.4-0.6
		l-0.6-0.5l2.4-6.5l0.6-1.1l0.9-0.8l1.2-0.8l1.1-0.9l1.1-0.7l1.5-0.3l1.4-0.5l0.8-1l0.7-1.1l1-0.7l1.8,0.3l1.3,1l2.8,4.5l0.6,0.6
		l0.8,0.3l1.9-0.3l0.7,0.1l2,0.6l0.7,0l0.7-0.3l0.8-0.6l0.6-0.7l0.3-0.8l-0.3-0.7l-0.7-0.4l-0.8-0.3l-0.7-0.4l-0.4-0.7l0.1-0.8
		l2-4.8l0.5-0.8l1.5-1.1l0.5-0.8l-0.4-1.1l-1.4-0.6l-1.7-0.5l-1.3-0.6l-1.4-1.2l-0.7-0.4l-2-0.8l-0.3-0.2l-0.3-0.3l-0.1-0.1l0.1-0.2
		l0-2.4l0.2-0.6l0.5-0.9l0.4-0.2l0.5,0l0.8-0.1l0.9-0.5v-0.8l-0.5-0.8l-2.7-2.8l-1.2-1.8l-0.6-0.6l-0.7-0.2l-1,0.3l-1.4,1l-0.6,0.1
		l-0.2-0.8l0.4-1.6l2.6-4.2l0.3-0.9l0.2-0.7v-0.7l-0.2-0.9l-0.3-0.8l-0.9-1.4l-0.3-0.7l0-0.6l0.3-1.9l-0.1-0.8l-0.8-2.1l0.3-0.7
		l0.1,0l1.3,0l1.8,0.5l0.5,0.2l0.2,0.3l0.1,0.3l0.3,0.3l1.2,0.9l0.6,0.3l0.6,0l0.6-0.3l1.2-1.1l0.8-0.3l1.3-0.3l1.5-0.5l1.1-0.5
		l0.4,0.2l0.6,0.5l1.2,1.5l1.1,0.7l1.1,0.1l14.1-3l-0.4-0.8l0.3-1.1l0.5-1.2l0.2-1l-0.3-1.5l0.1-0.5l0.3-0.5l0.6-1l0.2-0.6l-1.4-0.6
		l-0.7-1.1l-0.3-1.4l-0.3-3.8l0.1-0.5l0.4,0.1l1.1,1.2l0.6,0.2l0.5-0.2l0.2-0.4l0-0.4l0.1-0.3l0.2-0.4l0.2-0.2l0.2-0.2l1.7-1.2
		l0.4-0.1l1.7,0l1.5,0.6l2.5,1.8l1.5,0.5l0.6,0.4l0.4,0.9l0.8,2.6l0.3,0.7l0.2,0.3l0.6,0.5l0.2,0.2l0.1,0.8l-0.1,0v0.2l0,0.2
		l0.1,0.2l0.7,0.2l0,0.2l-0.1,0.2l-0.1,0.2l-0.1,0.3l-0.1,0.2l0.1,0.2l0.5,0.5l0.1,0.2l0,0.4l0.2,0.6l0.5,0l0.9-0.4l0.3,0.3l0.7,1.1
		l0.3,0.4l0.2,0.9l0.1,0.3l0.3,0.3l0.2,0l0.2,0l0.1,0.4l-0.3,0.3l-0.2,0.3l-0.1,0.4l0,0.3l-0.1,0.3l-0.2,0.3l-0.2,0.2l-0.4,0.3
		l-0.2,0.3l0.1,0.2l0.5,0l1.1-1l0.5-0.1l0.9,0.2l2.3,1l0.7,0.2l0.4-0.1l0.7-0.4l0.4-0.1l0.3,0.1l6.2,2.3l0.6,0.1l0.7-0.2l0.8,0.1
		h0.2l0.5-0.2l0.2,0.1l0.3,0.4l0.2,0.1l0.4-0.2l0.2-0.3l0.1-0.3l0.2-0.3l0.4-0.3l1.2-0.8l0.3-0.3l0.5-0.6l0.4-0.3l0.4-0.2l0.9-0.3
		l0.3-0.2l0.1-0.3l0.1-0.7l0.2-0.4l2.7-2.6l0.3-0.4l0.1-0.4l0.1-0.7l0.1-0.4l0.4-0.7l0.7-1.1l0.1-0.2l0.1,0l0.4,0.3l0.5,0.5l0.4,0.7
		l0.3,0.7l0.3,1.5l0.8,1.6l0.4,0.6l0.6,0.7l0.2,0.3l0.1,1l0.3,0.3l0.4,0.2l0.4,0.3l0.5,0.7l-0.1,0.2l-0.4,0.3l-0.5,1.1l-0.7,0.4
		l-0.3,0.3l0,1.4l0,0.2l0.6,0.5l0.8,0.3l0.9,0l0.7-0.2l0.6-0.4l0.3-0.2h0.3l0.3,0.2l0.1,0.6l0.2,0.2l0.3,0l1.6-0.5l0.2,0l0.4,0
		l0.5,0.3l0.4,0.1l0.3,0l0.2-0.3l0.4-1.1l0.3-0.3l0.3-0.3l0.3-0.3l0-0.9l0.2-0.4l0.3-0.3l0.7-0.6l0.3-0.2l0.3-0.2l1.7-0.4l0.2,0.1
		l-0.3-1.1l-2.7-2.3l-0.1-1.2l0.5-0.4l1.2-0.4l0.5-0.5v-0.3l-0.2-0.6l0-0.3l0.2-0.2l0.6-0.2l0.3-0.2l0.2-0.5l0.2-1.9l0.2-0.7l0-0.3
		l-0.2-0.3l-0.3-0.2l-0.2-0.2l0-0.2l0.2-0.3l0-0.4l0.1-0.3l0.2-0.3l0.3-0.3l4.2-1.6l1-0.5l0.3-0.5l-0.3-1.5l0-0.3l0.2-0.9l0.1-2.8
		l0.2-0.8l0.4-0.5l0.8-0.5l-0.3-0.2l-0.8-0.1l-0.6-0.2l-0.4-1.4l-0.7-0.4l-0.2-0.3l0.3-0.3l0.7-0.3l0.3-0.2l0.3-0.2l0.2-0.4l0.1-0.4
		l0.2-0.3l1.2-0.2l0-0.5l-0.4-0.6l-0.5-0.5l0.4-1l0.1-0.8l0.1-0.3l0.4-0.4l0.5-0.3l0.3-0.4l-0.2-0.7l-1.2-0.8l-0.5-0.5l-0.2-0.7
		l0.1-0.4l0.2-0.3l0.3-0.2l0.3-0.3l0.2-0.4l0.1-0.3l0.2-0.8l0-1.1l-0.1-0.3l-0.3-0.5l-0.7-0.7l-0.2-0.4v-0.3l0.2-0.6l0-0.3l-0.1-0.4
		l-0.4-0.8l-1-2.8l0-0.5l0.4-0.7l0.2-1.5l0.2-0.8l0.5-0.9l0.6-0.7l0.4-0.8l-0.2-1.1l-0.2-0.9v-0.9l0.2-0.9l1.4-3.1l0.3-1.1l-0.3-1.1
		l-0.8-1.7l-0.4-0.5l-1.4-1l-0.8-1l-1.2-0.7l-1.4-0.6l-1-0.3l-0.6,0.1l-0.6,0.3l-0.5,0.2l-0.6-0.1l-0.6-0.3l-0.6,0l-0.6,0.2
		l-0.6,0.3l-0.1-1.3l-0.3-1.5l-0.4-1.4l-0.6-1.2l-0.9-0.9l-1.3-0.6l-1.4-0.2l-1.3,0.3l-0.3-0.3l-0.3-0.2l-0.3-0.1l-1.3-0.1l-0.3,0.1
		l-0.1,0.2l-0.1,0.3l-0.2,0.2l-0.5,0.2l-0.2,0l-0.2-0.2l-1.6-1.9l0-1l0.4-0.9l2-2.7l0.4-0.3l0.4-0.5l0-0.4L386,275l-0.1-0.5l0.1-0.3
		l0.5-0.6l0-0.4l-0.3-0.4l-0.4-0.1l-0.4,0l-0.2-0.2l-0.2-2.5L385,269l-0.3-1.1l-0.2-0.9l0.1-0.8l1.2-1.8l1.2-2.8l0.7-0.8l2.6-1.4
		l0.7-0.8l0.1-0.7l-0.2-0.7l-0.4-0.7l1.1-1.5l1.8-0.2l2,0.2l1.8-0.1l0.5-0.2l0.2-0.1l0.1-0.2l2.6-2.3l0.2-0.8l0.1-1.8l1-1.5l1.6-1.4
		l1.2-1.4l-0.2-1.6l-0.1-0.4l0.3-0.3l0.4-0.2l0.3-0.3l0.1-0.5l-0.3-0.3l-0.9-0.4l-0.7-0.6l-0.6-0.7l-0.5-0.8l-0.4-0.8l-0.6-1.8
		l-0.5-0.7l-1.7-0.8l-0.6-0.7l-0.3-0.9l0-2.7l-0.1-0.9l-0.5-2.2l-0.2-0.4l-0.4-0.3l-0.4-0.2l-0.3-0.2l-0.1-0.4l-0.4-0.1l-0.3-0.2
		l-0.2-0.2l-0.3-0.2l-1.4-0.4l-0.7-0.1l-0.6,0.2l-1.3,0.5l-0.7,0l-0.6-0.4l-0.5-0.5l-0.6-0.4l-0.6-0.1l-6.7-0.6l-0.5,0.1l0,0.2
		l-0.3,0.9l-0.4,0.8l-0.1,0.1l-0.4,0.1l-0.1,0l-0.4-0.2l-0.2,0l-0.3,0.1l-0.4,0.3l-0.2,0.1l-0.6,0.1l-0.3,0l-0.3,0l-0.7,0.1
		l-0.5,0.3l-0.5,0.4l-1.3,0.5l-0.8,1.1l-0.5,0.3l-1.2,0.2l-1.1,0l-1.1-0.2l-1.2-0.4l-0.5,0l-0.8,0.1l-0.7,0.2l-0.3,0.3l-0.2,0.6
		l-0.6,0.2l-0.6,0.1l-0.7,0.8l-0.6,0.3l-0.7,0.1l-1.2-0.1l-0.7,0.1l-0.4,0l-0.1-0.5l-0.3-0.2l-0.4-0.2l-0.4-0.3l0.7-0.1l0.3-0.4
		l0.1-0.5l0.3-0.2l0.5-0.1l0.6-0.2l0.5-0.3l0.3-0.7l0.2-0.1l0.1-0.2l-0.3-0.4l-0.1-0.2l0-0.3l0-0.3l0-1.7l0-0.3l-0.6-0.4l-0.6-1.7
		l-0.7-0.4l0.2-0.5l0-0.5l-0.3-0.4l-0.4-0.3l-0.2,0.3l-0.7-0.9l-0.6-1l0.6-0.7l0.1-0.8l-0.2-1.6l0.1-0.7l0.3-0.7l0.1-0.6l-0.3-0.6
		l0.5-0.3l0.4-0.5l0.3-0.5l0.4-1.3l0-0.6l-0.2-0.4l-0.2-0.3l-0.3-0.6l-0.5-0.6l0.1-0.2l0.4-0.1l0.2-0.6l0.2-0.4l0.2-0.3l0.2-0.2
		l0.2-0.2l0.1-0.4l-0.2-0.7l0-0.3l0.3-0.1l0.2-0.1l0.6-0.7l0.2-0.2l1.3-0.7l0.4-0.8l0.1-1.1l0-2.1l6.1,0.1l5.5,0l7.2,0.1l6.3,0.1
		l5.6,0l3.7,0l0.3,0l1.6-0.6l2.2,0.3l0.6,0.3l0.7,0.6l0.5,0.1l0.2-0.1l0.7-0.4l2.8-0.6l0.3-0.1l0.1-0.3l-0.1-0.3v-0.3l0.3-0.3
		l0.2-0.2l0.9,0.3l1.2,1.3l0.9,0.4l-0.3,0.6l0.3,0.2l0.9,0l0.5,0.3l0.7,0.7l0.5,0.2l-0.2-0.9l0.3-0.1l1,0.5L415,200l-0.2,0.1
		l0.3,0.1l0.4,0l0.3-0.1h0.2l0,0.2l0,0.8l0.1,0.2l2.2-0.2l0.5-0.1l0.3-0.3l0.1-0.4v-0.4l0.3-0.2l0.5,0.5l0.5,0.7l0.1,0.3l0.7,0.5
		l-0.4,1l-0.1,0.9l1.4,0.1l0.8-0.1l0.3-0.2l0.3-0.8l0.3,0l1.7,1.3l0.5,0.2l0.7-0.2l0.4,0.6l0.6-0.2l0.6-0.6l0.4-0.6h0.2l0.5,0.2
		l0.5-1l1.1,0.4l0.5-0.2l0.6-0.2l0.8,0.3l0.2,0.2l0.2,0.5l0.1,0.2l0.2,0.1l1.2,0.4l0.3,0.2l0.2,0.3l0.1,0.3l-0.1,0.5l-0.1,0.2
		l0.1,0.1l0.3,0.3l0.2,0l0.8,0.4l0,0.1l0.4-0.1l0.7-0.3l0.7-0.2l1.8-1.1l1.6-0.2l1.6,0.3l3,0.9l3.4,0.4l0.1,0.2l0.4,0.2l0.4,0.2
		l0.8,0.1l0.3,0.1l1.3,1.7l0.4,0.2l0.9,0.3l0.8,0.6l0.3,0.2l0.2,0.2l0.1,0.5l0.2,0.3l0.4,0l0.5-0.2l0.4-0.2l0.1,0.6l0.5,0.3l0.7,0.2
		l0.6,0.2l0.4-0.2l0.4,0l0.4,0.2l0.3,0.3l0.2,0.4l-0.1,0.3l-0.1,0.3v0.4l0.3,0.6l1.4,1.8l1.6-2.3l0.3-0.1l0.8,0.3l0.4-0.2l0.1-0.6
		l-0.8-3.9l-1.2-3.1l-0.6-1.1l-0.3-0.3l-0.2-0.1l-0.1-0.2l0-1.3l0.1-0.3l0.5-0.8l0-0.3l-0.1-0.3l-0.1-0.3l0,0l0-0.1v-0.2l0.1-0.2
		l0.1-0.2l0.2,0l0.1,0l0.1,0l0.1-0.5l-0.1-0.3l-0.1-0.3l-0.1-0.5l0.1-0.4l0.4-0.8l0.2-0.8l0.6-0.3l0.7,0.1l0.7,0.6l1.4-1.1l0.3-0.4
		l-0.2-0.3l-0.2-0.2l1.8-3.8l1.6-3.4l1.1-2.4l1.6-3.4l1.5-3.2l1.3-2.8l1-2.1l0.2-0.8l-0.3-0.6l-0.5-0.6l-0.4-0.7l-0.1-1.6l1.4-2.6
		l0.2-1.3l-0.3-0.8l-0.4-0.7l-0.3-0.7l0-0.9l0.4-0.8l1.2-1.7l0.2-0.8l0-0.9l0.9-2.2l0.3-2.9l0.6-1.6l1.1-1.3l1.5-0.9l1.6-0.5
		l0.8-0.1l0.7,0.1l2.9,0.7l0.8,0l0.7-0.3l0.1-0.3l-0.1-0.4l0-0.3l0.5,0l0.3,0.1l0.7,0.2l0.3,0.1l1-0.1l0.3,0l0.4,0.2l0.3,0.3
		l0.3,0.2l0.5-0.2l0.3-0.1l0.5,0.1l0.2,0l0.3-0.1l0.4-0.3l0.2-0.2l0.6-0.3l0.3-0.1l0.9,0.1l0.5-0.1l1-0.4l0.5-0.1l1.4,0l0.5-0.1
		l0.6-0.3l0.3-0.3l0.3-0.4l0.5-0.4l0.5-0.2l0.4,0l0.9,0.3l1.3-0.1l0.8-0.7l0.7-0.9l1.8-0.9l0.5-0.4l0.6-0.2l0.8,0.1l0.2,0.2l0.1,0.5
		l0.2,0.1l0.5,0.1l0.2,0.1l1.3,1.1l1.3,0.6l1.4,0.2l2.9,0l0.2,0l0.4-0.2l0.3,0l0.2,0.1l0.3,0.4l0.2,0.1l0.3,0l0.7-0.1l0.3,0l0.5,0.3
		l0.5,0.5l0.3,0.6l0.2,0.7l0.2,0.6l0.5,0.1l0.7-0.2l1.4-0.7l0.2-0.2l0.2,0.1l1.2,0.8l0.3,0.1l0.4,0l1.1-0.5l1.2-0.3l1.2,0l1.2,0.4
		l0.6,0.6l0.4,1.4l0.5,0.5l0.8,0.1l0.7-0.3l0.6-0.6l0.4-0.6l0.1-0.3l0.3-1.1l0.2-0.5l0.3-0.1l0.3,0.1l0.4,0l2.8-0.3l0.2,0l0.4,0.2
		l0.3,0l0.1-0.1l0.2-0.5l0.2-0.1l0.4-0.1l0.6,0l0.3-0.1l0.6-0.6l0.4-0.5l0.5,0l0.9,0.7l0.6,0.7l1.5,2.3l0.6,1.3l0.4,0.4L552.9,151.6
		"/>
</g>

</svg>
