<?xml version="1.0" encoding="utf-8"?>

<svg version="1.2" baseProfile="tiny" xmlns="http://www.w3.org/2000/svg" xmlns:xlink="http://www.w3.org/1999/xlink" x="0px"
	 y="0px" viewBox="321 134.7 253.8 348.3" xml:space="preserve">

<g id="Colombia">
	<g>
		<polygon fill="#FCD116" points="357.6,296.8 357.2,296.5 356.7,296.5 356.8,296.7 356.8,297 357.7,297 		"/>
		<polygon fill="#FCD116" points="265.1,133.8 265.3,133.8 265.7,132.2 265.6,131.9 265.3,132.2 265.1,132.5 265,133 265.2,133.4
			265,133.6 		"/>
		<polygon fill="#FCD116" points="554.9,297 555,296.6 555.1,295.7 555.2,295.3 555.1,295.1 555.1,295 555.2,294.9 555.2,294.6
			555.2,294.5 555,294.1 554.9,294 555,293.5 555.1,292.7 555.4,291.9 555.4,291.5 555.4,290.6 555.4,290.5 555.5,290.4
			555.6,290.2 555.7,290 555.6,289.8 555.2,289.4 555.1,289.2 555,289 555,288.8 554.9,288.6 554.9,288.4 555,288.1 555.2,287.6
			555.2,287.4 555.2,286.9 555.1,286.6 555,286.3 554.8,285.9 554.6,285.1 554.8,284.2 555.3,283.4 556.1,282.8 556.2,282.8
			556.4,282.8 556.5,282.8 556.6,282.7 556.8,282.4 556.9,282.4 557.5,282.1 557.7,282 558.1,281.6 558.3,281.4 558.6,281.4
			558.7,281.2 558.9,280.5 559,280.3 559.2,280.2 559.3,280 559.4,279.8 559.3,279.7 559,279.4 558.9,279.3 558.9,278.9
			558.7,277.7 558.7,276.7 558.8,275.8 559.1,275 559.7,274.2 560.9,273.1 561.1,272.7 562.1,271.6 562.4,271.5 563.1,271.1
			563.4,270.9 563.5,270.6 563.4,270.1 563.3,269.7 562.7,269.3 561.9,268.1 561.9,267.3 562,267 562.3,266.8 562.8,266.4
			562,266.3 561.4,265.8 560.8,265.3 560.2,264.9 556.9,264.2 555.5,264 555.1,263.9 554.9,264 554.7,264.1 554.3,264.5
			554.1,264.7 553.9,264.7 553.6,264.7 553.3,264.7 553.2,265 553.2,265.2 553.1,265.4 552.9,265.6 552.7,265.7 552.5,265.7
			551.8,265.9 550.9,266.1 548.3,265.8 547.4,265.9 545,266.8 544.2,266.8 542.8,266.4 542.4,266.4 542,266.4 540.4,266.9
			539.1,266.9 538.9,267.1 538.3,267.5 538.1,267.7 537.6,267.6 536.7,267.2 536.3,267.1 535.8,267.1 534.5,266.6 534,266.6
			532.7,266.6 532.2,266.6 531.7,266.4 531.3,266.3 530.9,266.4 530.1,266 529.7,265.9 529.2,265.9 528.8,266.1 528.2,266.7
			527.8,266.9 526.5,268.1 525.3,268.8 524.9,268.5 524,267.4 523.5,267.2 523,267.3 522,267.8 521.5,267.9 521.2,267.9
			520.6,267.2 519,265.2 517.4,263.2 515.9,261.2 514.3,259.2 512.7,257.2 511.1,255.2 509.5,253.2 507.9,251.2 507.6,250.8
			506.9,250.2 506.3,250.1 505.5,250.1 504.8,250.3 503.6,250.9 502.9,250.9 500.8,249.9 500.5,249.8 500.4,249.7 500.3,249.5
			500.2,249.5 500,249.4 499.5,249.5 499.3,249.5 498.9,249.4 498.7,249.3 497.7,248 497.5,247.8 497.2,247.9 496.6,248.1
			496.3,248.1 495.5,247.9 495.3,247.8 495.1,247.6 494.9,247.5 494.3,247.5 493,247.8 492.1,247.9 491.3,248.2 490.9,248.2
			490.7,248.3 490.6,248.5 490.4,248.8 489.5,249.4 488.5,249.8 487.4,249.9 485.9,249.8 485.7,249.9 485.5,250.1 485.3,250.3
			484.9,250.4 484.7,250.3 484.5,250.2 484.3,250.1 483.3,250.1 483,250 482.9,249.7 482.8,249.5 482.8,249.2 482.6,249.1
			482.3,249.1 481.4,249.2 481.1,249.2 480.4,249 480.1,249 479.8,249 479.2,249.3 479,249.4 478.5,249 478.1,248.9 477.7,249
			477.7,249 477.7,249.1 477.3,249 477.3,249 477.2,249 477.2,248.8 477.1,248.8 476.9,248.8 476.6,249 476.5,249 476.3,249
			476.1,248.8 475.9,248.7 475.8,248.5 475.1,248.5 474.8,248.5 474.7,248.7 474.7,249 474.2,248.9 473.7,248.9 473.2,249
			472.6,249 472.6,249.4 472.5,249.5 472.3,249.4 472,249.4 471.8,249.6 471.6,249.8 471.3,249.9 471,250 470.3,249.9 468,249.4
			467.7,249.2 467.3,248.8 467,248.6 466.4,248.4 466.2,248.2 465.8,247.8 464.7,245.6 464.4,245 464.3,244.4 464.2,243.8
			464.2,243.6 464.4,242.7 464.4,242.6 464.3,242.6 463.6,241.6 462.8,241.4 461.1,241.5 460.1,241.3 459.2,241 458.4,240.4
			457.9,239.5 457.8,239 457.9,238.6 458.1,238.1 458.2,237.7 458.1,237.3 457.8,236.5 457.8,236 458,233.9 458.4,232.6
			458.4,232.2 458.4,231.3 458.3,230.9 458.1,230.7 457.7,230.2 457.6,230 457.7,229.8 457.9,229.6 458.1,229.6 458.3,229.4
			458.6,229.2 458.9,228.9 459.1,228.6 459.1,228.2 459.4,227.8 459.8,227.7 460.2,227.8 460.5,227.8 460.9,227.3 460.8,226.5
			460.4,225.1 459.7,223.8 459.6,223.3 459.6,223 459.8,222.3 459.8,222 459.8,221.6 459.6,221.3 459.4,220.9 459.2,220.7
			459,220.6 458.8,220.5 458.6,220.5 458.3,220.3 457.8,219.7 457.4,219.3 457,218.8 456.6,218.4 456.2,217.9 455.8,217.5
			455.4,217.1 455,216.6 454.6,216.2 454.2,215.8 453.8,215.1 453.5,214.2 453.3,213.3 453.1,212.4 452.8,211.5 452.6,210.5
			452.3,209.6 452.1,208.7 451.9,207.8 451.6,206.9 451.5,206.5 451.2,206.1 451.5,205.6 451.4,205.3 451,205.1 450.6,204.8
			450.5,204.9 450.3,204.9 450.1,204.9 449.9,204.9 449.6,204.9 449.4,205 448.7,205.5 448.3,205.7 447.9,205.6 447.5,205
			447.4,204.6 447.5,203.7 447.4,203.2 447.3,203.1 447.1,202.9 447.1,202.8 447.1,202.7 447.2,202.5 447.2,202.5 446.9,201.7
			446.8,201.5 446.3,201.6 445.4,202.4 444.9,202.7 444.4,202.8 444,203.1 443.3,203.7 442.6,204.1 441.7,204.2 439.1,204.3
			438.8,204.1 438.8,203.7 439.1,203.3 439.8,202.7 440.2,202.4 440.5,201.9 441.2,200.1 442.9,197.7 443.3,196.8 443.6,196.5
			444.4,196 444.7,195.6 445,195.2 445.5,193.8 446.6,192 447.3,190.7 447.4,190.1 447.4,189.7 447.2,189.4 447.1,188.8
			447.1,188.4 447.2,187.5 447.2,186.7 448.3,183 448.7,178.4 448.7,178 448.8,177.6 448.9,177.2 449.2,176.8 449.6,176.4
			449.9,176 450.3,174.9 451.6,173.4 452.1,172.5 453.1,169.6 453.6,168.7 454.1,168.1 455.1,167.4 455.4,167.1 455.8,166.5
			456.5,164.8 456.7,164.5 457.1,164.1 457.3,163.9 457.3,163.7 457.3,163.3 457.4,163.1 457.8,162.8 458.3,162.8 459.2,162.7
			460.3,162.3 460.7,162.2 461.1,162.3 461.9,162.5 462.3,162.4 462.5,162.1 463.1,160.9 463.7,159.8 464.4,158.6 465,157.5
			465.6,156.3 466.2,155.1 466.8,154 467.5,152.8 467.7,152.4 468.1,151.9 468.5,151.6 469,151.5 470.2,151.2 471.4,150.9
			472.7,150.5 473.9,150.2 475.1,149.9 476.3,149.6 477.6,149.3 478.8,149 479.3,148.8 480.2,148.5 480.9,147.8 481.3,147.6
			481.9,147.7 482,147.5 482.4,146.3 482.5,146.2 482.8,146.1 483.1,146 483.4,145.8 483.9,145.4 485.3,144.6 485.8,144.1
			486.1,143.8 486.4,143.4 486.5,142.9 486.4,142.5 485.6,141.3 485.4,140.7 484.2,138.6 484.1,138.2 484,138 483.9,137.9
			483.7,137.5 483.3,137.2 482.6,136.9 481.6,136.7 481.2,136.5 480.8,136.2 480.6,136.1 479.8,136.2 479.6,136.1 479.4,136
			479.1,135.7 478.5,135.3 478.1,135.1 477.6,135 476.1,135 475.7,134.9 475,134.6 474.6,134.5 474.2,134.6 473.8,134.9
			473.5,135.2 473.3,135.6 473.4,135.7 473.6,135.5 474.2,135 474.4,134.8 474.3,134.9 474.3,135.1 474.3,135.4 474.4,135.3
			474.5,135.2 474.7,135.1 475,135.1 474.8,135.3 474.6,135.5 474.6,135.6 474.8,135.7 474.9,135.6 475.1,135.5 475.3,135.4
			475.6,135.4 475.4,135.7 475.1,135.8 474.8,135.9 474.6,136 474.5,136 474.3,136.1 474.2,136.2 474.3,136.3 474.4,136.4
			474.4,136.5 474.3,136.6 474.3,136.7 474.1,136.7 474,136.4 473.8,136.3 473.7,136.1 473.8,135.7 473.7,135.7 473.5,135.8
			473.3,135.9 473.1,136 473,136.2 473.1,136.3 473.2,136.3 473.3,136.3 473.2,136.7 473.1,136.9 472.8,137.1 472.4,137.3
			472.4,137.3 472.1,137.3 472,137.4 472,137.4 472,137.6 472,137.6 471.7,137.7 471.6,137.7 471.4,137.6 471.1,137.3 471.2,137
			471.5,136.8 471.9,136.6 471.6,136.5 471.4,136.5 471.1,136.7 471,136.7 470.6,136.7 470.6,136.8 470.5,137.1 470.4,137.2
			469.7,137.8 468.7,138.5 468.9,138.8 469,138.8 469.1,138.6 469.3,138.5 469.6,138.5 469.8,138.5 470.1,138.6 470.2,138.7
			470.3,138.9 470.6,139 470.4,139.3 470.5,139.5 470.6,139.6 470.7,139.9 470.6,140.1 470.4,140.1 470.1,140.1 469.8,140.1
			469.7,140.2 469.5,140.4 469.3,140.6 469.3,140.9 469.2,140.9 468.5,141.2 468.2,141.1 467.9,140.5 467.6,140.4 468.4,139.5
			468.5,139.1 467.8,138.9 465.6,139.3 465,139 464.5,139.3 464.3,139.5 464.3,139.8 464.3,139.8 464.5,139.9 464.7,140.1
			464.8,140.2 464.9,140.7 465,141.8 465,142.3 464.8,142.5 464.4,143.1 464.1,143.8 463.4,145 463.1,145.8 463.1,146 463,146.2
			462.6,146.6 462.4,146.9 461.3,147.3 460.4,148 459.7,148.2 459.2,148.6 458.8,148.8 458.4,148.9 457.2,148.9 456.7,149.1
			456.3,149.4 455.8,149.7 455.4,149.5 454.8,150 454.4,150.1 453.2,150.4 452.4,150.7 452,150.9 448.4,153.9 445.9,155.2
			444.7,156.3 444,156.7 443.7,156.8 443.5,157.2 443.3,157.4 443,157.5 442.9,157.6 442.7,158.1 442.5,158.3 442.4,158.3
			441.9,158.7 441.2,159.1 441.1,159.3 440.9,159.4 438.6,159.8 434.6,159.8 432.3,160 429.8,159.8 428.9,159.5 428.3,159.1
			427.3,158.9 427.2,158.9 426.8,158.5 426.4,158.3 426,158.1 425.5,158.1 425.3,158.1 425.2,158.1 425.1,158.2 425.1,158.4
			424.9,158.4 424.8,158.2 424.7,158.3 424.6,158.6 424.4,158.7 424.1,158.6 424,158.2 423.8,158.1 423.8,158.5 423.7,158.5
			423.6,158.4 423.6,158.4 423.6,158.4 423.5,158.4 423.4,158.5 423.2,158.8 423.1,158.6 423.1,158.5 423.1,158.4 422.9,158.4
			423,158.9 422.8,159 422.5,158.9 422.2,158.9 421.9,159.5 421.9,159.7 421.9,159.8 421.8,159.8 421.7,160 421.4,160.3
			421.3,160.5 421.2,160.8 421.2,160.8 421.3,160.9 421.3,160.9 421.4,161 421.3,161.1 421.1,161.3 421.1,161.4 421.1,161.6
			421.3,162 421.4,162.2 421.3,162.4 421.2,162.8 421.2,163 421.3,163.2 421.6,163.6 421.7,163.8 421.6,164 420.3,165.9
			420.1,166.3 419.9,167.1 419.9,167.3 419.6,167.6 419.5,167.7 419.5,167.9 419.2,168.3 419.2,168.9 419.2,169.1 418.6,170.2
			418.6,170.4 418.5,170.4 418.1,170.8 417.9,170.9 417.7,171 416.9,171 416.6,171 416.4,170.7 416.3,169.7 416.2,169.3 415.9,169
			415.5,168.9 415.6,169.2 415.5,169.3 415.3,169.5 415.2,169.8 415.2,170.1 415.4,170.3 415.6,170.4 415.8,170.2 415.7,170.6
			415.4,170.8 415.1,170.8 414.8,170.7 414.7,169.9 414.8,169.7 414.6,169.7 414.4,169.6 414.3,169.4 414.3,169.2 414.1,169.4
			414.1,169.8 413.9,170.1 413.6,170.2 413.5,170.1 413.5,169.8 413.5,169.1 413.6,168.9 413.7,168.4 413.8,168.1 414,168
			414.3,168.1 414.8,168.1 414.9,168.3 415.2,168.1 415.5,168.3 415.8,168.6 416.1,168.8 415.6,167.8 415.3,167.2 415.4,166.9
			415.6,166.8 415.6,166.6 415.6,166.4 415.6,166.2 415.9,166.1 416.1,166.1 416.3,166.1 416.6,166.2 418.6,166.2 419.6,166
			420.1,165.5 419.1,165.9 417.7,166 416.3,165.9 415.2,165.6 414.2,165.1 413.4,165 410.6,163.9 410,163.5 408.6,163.3
			408.5,163.1 408.4,163 408.3,162.9 408,163.1 407.6,163.6 407.5,163.6 407.4,163.8 406.6,164.6 405.8,165.4 405.6,165.5
			405.5,165.8 405.3,165.9 405,166.1 404.8,166.2 404.7,166.4 404.6,166.9 404.5,167.1 404.5,167.4 404.2,167.7 403.8,168
			403,168.2 401.7,169 401.5,169.1 401.2,169.2 401,169.2 400.8,169.3 400.4,169.7 399.7,170 399.5,170.3 399.6,170.7 400.1,171
			400.1,170.8 400.5,170.5 400.5,170.7 400.5,170.9 400.5,171.1 400.6,171.2 400.2,171.7 400.1,171.8 399.9,171.8 399.9,171.7
			399.8,171.5 399.8,171.5 399.9,171.4 399.9,171.3 399.9,171.2 399.8,171.1 399.6,171.1 399.5,171 399.4,171.1 399.3,171.3
			399.1,171.6 398.9,171.8 397.5,172.1 397,172.4 396.8,172.4 396.8,172.5 396.7,172.7 396.5,172.9 396.5,172.9 396.4,173.2
			396.3,173.2 396.1,173.2 395.9,173.3 395.8,173.3 395.7,173.4 395.6,173.4 395.6,173.5 395.8,173.7 395.8,173.8 395.6,174
			395.3,174.2 395.1,174.3 394.8,174.3 394.6,174.4 394.4,174.6 394.3,174.8 394.4,174.9 394.7,174.9 394.7,175.1 394.7,175.3
			394.8,175.6 394.7,175.6 394.6,175.9 394.6,176 394.8,176 395,176.1 395.1,176.2 395.1,176.6 395.1,177.1 395,177.6 394.7,177.8
			394.4,177.6 394.4,177.2 394.7,176.8 394.8,176.4 394.6,176.6 394,177.2 393.8,177.4 393.6,177.5 393.5,177.6 393.4,177.8
			393.3,178.2 393.2,178.3 393.4,178.3 393.5,178.2 393.5,178.1 393.6,177.9 393.8,177.9 393.9,178.5 394,178.6 394.2,178.5
			394.3,178.5 394.4,179 394.5,179.5 394.5,180 394.3,180.2 393.5,180.7 393.1,180.8 392.9,180.4 392.8,180.5 392.8,180.7
			392.8,180.9 392.9,181.1 392.4,181.1 392.4,181.2 392.5,181.5 392.4,181.7 392.2,182 392.1,182.2 392,182.4 391.7,182.5
			391.3,182.7 390.7,183.1 390.4,183.5 390.9,183.7 391.6,183.2 392.4,182.3 393.3,181.6 394.2,181.7 394.1,181.9 394.1,182.1
			394.1,182.3 394,182.5 394,182.8 393.9,182.9 393.8,183.1 393.5,183.6 393.5,183.7 393.3,183.8 393.2,183.8 393,183.9 392.9,184
			392.9,184.3 393.2,185.3 393.2,185.7 393,187 392.8,187.3 392.6,187.7 392.4,188.7 392.1,189.1 392,189.5 392,190.4 391.8,190.8
			391,192.1 390.2,192.9 390.3,193.1 390.7,192.9 391.1,192.8 391.5,192.8 391.7,193.1 392.1,193 392.4,193.3 392.6,193.7
			392.8,194.1 392.9,194.5 392.9,194.9 392.8,196.7 392.5,197.5 392,198.2 391.5,198.8 391.3,198.7 391.1,199 390.7,199
			390.3,198.9 389.8,198.8 389.4,198.9 389,199.1 388.3,199.5 388.3,199.4 388.3,199.3 388.2,199.2 388.1,199.1 387.9,199.2
			387.8,199.3 387.6,199.2 387.5,199.1 387.7,198.9 388,198.8 388.3,198.8 388.6,199 388.6,198.7 388.5,198.5 388.3,198.4
			388.2,198.4 387.7,198.6 386.9,198.7 386.3,198.8 385.9,198.7 385.8,198.7 385.5,198.8 384.9,199.4 384.3,199.9 383.6,200.3
			382.8,200.5 382.6,200.6 382.4,200.7 382.2,201 382.1,201.2 382,201.6 382,201.9 382,202.2 381.7,202.3 381.6,202.3 381,202.5
			380.9,202.6 380.8,202.9 380.5,204.6 380.4,204.9 380.2,205.2 379.5,205.8 379.1,206.3 378.9,206.9 379,207.6 378.9,207.8
			378.1,208.4 377.9,208.6 377.8,208.8 377.6,209 377.2,209 376.8,209.3 375.5,209.6 375.3,209.8 375.4,210 375.4,210.2 375,210.6
			373.9,211.3 373,212.3 372.7,212.5 371.3,213 370.9,213.1 370.9,213.2 371,213.2 371,213.3 370.9,213.5 370.8,213.7 370.7,213.9
			370.7,214.1 370.6,214.3 370.3,214.5 368.3,215 367.8,215.1 365.7,215.7 365.5,216.2 365,216.8 364.6,217.3 364.9,217.5
			364.9,217.4 365.5,217.4 366.2,217.8 366.9,218.2 367.3,218.7 367.4,219 367.5,219.4 367.7,219.7 367.9,219.8 368.2,220
			368.3,220.4 368.3,223.3 368.4,224 368.7,224.7 368.8,225.1 368.5,225.8 368.5,226.3 368.6,226.8 368.7,227.1 368.9,227.1
			368.8,226.9 368.8,226.8 368.8,226.7 368.9,226.6 369.1,227 369.1,227.6 369,228.9 369,229.1 368.8,229.3 368.7,229.5
			368.8,229.7 368.8,229.8 368.8,230 368.7,230.1 368.6,230.3 368.4,230.4 368.1,230.5 367.9,230.6 366.6,230.5 365.5,230.2
			364.9,229.5 365.3,228.3 365.2,228.3 365.2,228.3 365.1,228.2 365.2,228.1 365.5,227.8 365.9,227.7 366.5,227.9 367,228.1
			366.9,227.9 366.7,227.7 366.5,227.6 366.3,227.4 366.5,227.4 366.7,227.4 366.8,227.5 366.9,227.6 366.9,227.5 366.9,227.4
			366.9,227.4 366.8,227.2 366.6,227.2 366.4,227.1 366.4,227 367.2,226.7 367.2,226.6 367,226.7 366.9,226.7 366.7,226.7
			366.7,226.5 366.8,226.2 366.9,226 367,225.9 365.7,225.9 365.7,226.3 365.2,226.3 364.7,226 364.6,225.3 364.7,225.3
			364.9,225.4 365,225.4 365,225.1 365.2,224.8 365.2,224.5 364.9,224.8 364.9,224.4 364.6,224.6 364.3,224.4 364.1,224.1
			364.1,223.5 364.2,223.6 364.3,223.7 364.4,223.7 364.4,223.3 364.3,223.1 364.1,223.1 364,223.4 363.7,223.3 363.2,223.3
			362.9,223.3 362.4,222.9 360.7,220.2 360.5,219.9 360.2,219.7 359.1,219.3 357.8,218.3 357.6,217.9 357.4,217.1 357.3,216.7
			357.1,216.4 356.9,216.1 356.7,215.9 356.4,215.5 356.2,214.7 355.9,214.5 355.8,214.6 355.8,214.6 355.7,214.7 355.7,214.8
			355.7,215.1 355.5,215.2 355.1,215.3 354.8,215.3 354.5,215.6 354.4,215.7 354.5,215.9 354.5,216.3 354.3,216.8 353.5,217.7
			353.3,218.3 353.3,218.8 353.5,218.9 354.1,218.8 354.5,219 354.7,219.1 355,219.7 355.3,220.5 355.5,221.9 355.7,222.6
			355.9,223 356.2,223.1 356.5,223.1 356.7,223.2 356.9,223.5 357.3,224.4 358.1,225.5 358.7,226.6 359.1,228.3 359.2,228.8
			359.3,229.1 359.5,229.3 359.7,229.4 359.9,229.7 360.1,230 360,230.1 359.2,230.1 358.6,230.2 357.9,230.4 357.2,230.8
			356.8,231.2 356.3,232.4 355.7,233.2 355.6,233.4 355.9,234 356.3,234.5 356.4,234.8 355.8,235.4 352.9,237.2 351.9,238.1
			351.4,238.6 350.9,238.6 350.7,238.4 350.5,237.3 350.3,237.1 349.7,236.3 349.7,236.2 349.5,236.2 349.4,236.1 349.4,236.1
			349.5,235.9 349.5,235.8 349.3,235.6 348.3,234.7 348.1,234.6 347.6,234.9 347.4,235.6 347.5,236.5 347.7,237.2 348.2,238.1
			348.3,238.5 348.1,239.1 347.7,239.5 347.4,239.7 346.9,239.8 346.4,239.7 345.7,242 344.8,244.7 345,244.8 345.3,245.2
			345.6,245.4 345.8,245.5 345.7,245.6 346,245.7 346.2,246 346.3,246.2 346.5,246.3 346.9,246.4 347.1,246.5 348.6,248.2
			349,248.6 349.2,248.6 349.2,248.5 349.1,248.4 349,248.3 348.8,248.1 349,248.1 349.6,249.3 349.9,250.1 349.7,250.5
			349.1,250.7 348.9,251.3 349,252.8 349.2,252.7 349.2,252.5 349.2,252.3 349.3,252.2 349.5,252.1 349.6,252.2 349.7,252.3
			350.2,252.4 350.5,252.6 351.1,253.2 351.6,253.8 352.4,255.6 352.3,255.9 352.3,256.1 352.3,256.6 352.4,256.6 352.6,256.6
			352.7,256.5 352.9,256.5 352.8,256.3 352.7,256.2 353,255.9 353.4,255.6 353.9,255.4 354.6,255.9 354.8,255.9 354.9,256
			355,256.3 355,256.6 354.9,257 354.9,257.2 355.1,257.3 355.2,257.5 355.3,257.6 355.4,257.8 356.2,258.4 356.3,258.7
			356.4,259.2 356.3,259.6 356,259.9 356,260.3 355.9,260.7 355.6,261.2 355.6,261.4 355.8,261.5 356,261.7 356.1,262 356,262.4
			355.9,262.3 355.9,262.2 355.8,262.2 355.7,262.1 355.2,262.2 355.2,262.4 355.6,262.9 355.6,263.2 355.7,263.5 355.6,263.8
			355.6,264.2 355.3,265 355.1,265.4 354.9,265.5 354.4,264.9 353.6,264.2 353.4,264.3 353.6,264.6 353.6,265 353.4,265.7
			353.4,266.6 353.5,266.9 353.7,267.2 355,268.8 355.5,269.6 355.9,270.5 356,270.5 356,269.9 356.2,269.9 357,272.2 357,272.6
			357.1,272.8 357.2,272.8 358.1,274.2 358.4,274.9 358.4,275.8 358.4,276 358.3,276.3 358.2,276.5 358.1,276.7 357.9,276.9
			357.6,277 357.4,277.2 357.3,277.4 357.2,277.5 357.1,277.5 357,277.5 356.9,277.5 356.9,277.6 356.9,277.8 356.9,277.9
			356.8,278.1 356.8,278.3 356.7,278.4 356.6,278.5 356.1,278.7 355.8,278.5 355.4,278.3 355.1,278.2 354.8,278.3 354.6,278.4
			354.4,278.6 354.1,278.8 353.9,278.8 353.5,278.9 353.3,278.9 353,279.3 352.5,280.3 352.4,280.5 352.1,280.5 351.9,280.7
			351.9,280.8 352,281.1 352.2,281.1 352.4,281 352.6,281 352.9,281.2 352.9,281 353.1,280.9 353.3,280.8 353.6,280.8 353.9,280.9
			354.1,281.1 354.2,281.3 354.4,281.5 354.6,281.5 354.9,281.6 355,281.7 355.1,281.8 355.1,281.9 355.1,282 355.3,282.6
			355.4,282.8 355.6,282.9 355.4,283.1 355.3,283.1 355.2,283 355.1,282.9 355,282.9 355,283.3 355.1,283.5 355.3,283.6
			355.6,283.5 355.6,284.3 355.7,284.7 355.9,284.9 356,285.1 356,285.6 356,286 356.3,286.2 356,286.8 355.8,287.5 355.7,288.2
			355.9,291.3 356,291.7 356.2,294.3 356.4,295.2 356.5,295.2 356.8,295.1 356.9,295 357,295.7 357.9,296.8 358,297 554.8,297 		"/>
		<polygon fill="#FCD116" points="272.4,115.3 272.2,115.5 272,116 272.1,116.4 272.4,116.3 272.7,116.1 272.8,115.8 272.7,115.4
			"/>
		<polygon fill="#003893" points="508.3,388.2 508.4,386.3 508.4,384.9 508.4,384.3 508.5,382.9 508.8,383.2 509.2,383.1
			509.6,382.9 510.1,382.9 510.6,382.9 511,382.9 511.4,382.8 512.8,382.7 513.7,382.5 514.4,382.2 515.2,381.8 516,381.2
			516.3,381.2 516.9,381.5 517.5,381.6 517.8,381.3 518.1,380.8 518.5,380.6 518.9,380.6 519.5,380.1 519.9,380 520.5,379.9
			520.9,380 521.3,380.2 522.8,381.7 522.9,381.8 523.3,381.6 523.8,381.5 524.2,381.5 524.3,381.7 524.3,382.3 524.6,382.2
			525.4,382.4 525.7,382.4 525.9,382.2 526.1,381.9 526.3,381.8 526.5,381.8 526.9,382 527.1,382 527.5,381.9 527.6,381.6
			527.5,381.2 527.3,380.8 527.1,380.6 526.7,380.4 526.5,380.3 526.4,380 526.6,379.8 526.8,379.6 527,379.4 527,378.9 526.8,378
			526.8,377.6 526.9,377.5 527.1,377.5 527.3,377.4 527.3,377.1 527.1,376.9 526.9,376.8 526.4,376.6 526.1,376.3 526.2,375.5
			525.7,375.3 525.7,375 525.7,374.8 525.6,374.6 525.4,374.5 525.1,374.2 524.7,373.8 524.4,373.6 523.4,373 523.1,373
			522.7,373.1 521.7,373.8 521.5,373.7 521.1,373.5 521,373.4 521,373.3 520.9,373.2 520.7,373.1 520.5,373.1 519.8,373.2
			519.1,373.2 518.9,373.2 518,372.9 517.5,372.9 515.5,373.1 515.3,373.1 515.3,372.6 515.1,372.5 514.8,372.5 514.5,372.5
			514,372.6 513.2,373.2 512.7,373.1 512.7,371.9 512.7,370.5 512.7,369 512.7,367.6 512.7,366.2 512.7,364.8 512.7,363.3
			512.7,361.9 512.7,360.5 512.6,359.7 513.6,359.7 514,359.6 514.9,359.1 515.2,359 515.6,359 516.1,359.1 516.9,359 518.3,358.4
			519.1,358.3 520.7,358.7 522.3,359.3 523.1,359.4 534.7,359.4 539,359.4 547.9,359.4 547.6,359.2 547.4,359.1 547.3,359
			547.3,358.7 547.3,358.5 547.1,358.4 546.3,358.4 546.3,358 546.3,357.6 546.1,357.3 545.6,357.2 545.5,357.2 545.9,356.6
			547.1,353.5 547.3,353.3 547.4,353.5 547.4,353.9 547.5,354 547.6,354.2 547.8,354.3 548.2,354.3 548.7,354.5 549,354.8
			549.2,355.2 549.7,356.5 550.1,357.4 550.7,358.2 551.4,358.8 552.1,359 552.8,359 553.6,358.8 554.2,358.6 555.1,358.1
			555.7,357.5 558.2,354.2 559.8,352.5 560.6,352.1 561.2,351.6 561.5,351.4 562.3,351.3 562.5,351.2 562.8,350.8 563,350.7
			563.3,350.8 564.2,351.1 564.6,351.2 565.1,351.8 565.5,352.5 566.2,354.2 566.7,355 568.9,358 569.8,359.6 570.5,361.8
			570.7,363.1 570.2,369.1 570.2,370.2 570.4,370.7 570.8,370.8 572.6,370.3 574,369.9 574.8,369.8 574.4,368.9 574.3,368.4
			574.7,367.6 574.6,367.1 574.5,366.6 574.2,366.2 574,366 573.8,365.8 573.6,365.6 573.5,365.3 573.7,364.4 573.6,364
			573.4,363.5 572.9,362.8 572.7,362.3 572.7,361.9 572.7,361 572.6,360.5 570.8,355.8 570.4,355.1 570.4,354.9 570.3,354.7
			569.9,354.5 569.7,354.2 569.6,354 569.4,353.8 569.4,353.6 569.7,353.1 569.8,353 569.9,352.6 569.8,351.5 569.7,351.2
			569.4,351 569,350.9 568.7,350.7 568.5,350.4 568.1,349.5 568,348.9 567.7,348.1 567.7,347.7 567.9,347.4 568.3,347.1
			568.6,346.6 568.4,346.2 568.3,346 568.3,345.6 568.2,345.4 568.1,345.3 567.4,344.9 566.6,344.6 566.4,344.5 566,344.1
			565.8,343.9 565.6,343.9 565.4,343.8 565.3,343.5 565.2,343.2 565.1,343 564.9,342.9 564.4,342.6 564.2,342.5 564.1,342.2
			564,342 563.8,341.8 563.6,341.8 563.5,341.7 563.2,341.3 563.1,341.1 563,341 562.6,340.8 562.4,340.6 562.3,340.5 562.2,340.1
			562.1,339.9 561.8,339.6 561.4,339.5 560.4,339.5 560.2,339.3 560.1,338.8 559.9,337.9 559.8,337.5 559.5,337.1 559.1,336.7
			558.7,336.9 558.3,337 557.8,336.9 556.9,336.5 556.7,336.2 556.5,336.2 556.1,336.4 555.9,336.4 555.4,336.4 555,336.5
			554.8,336.7 554.6,337 554.3,337.2 554.3,335.8 554.7,335.2 555.2,334.8 556.1,333.9 557,333.1 557.9,332.3 558.8,331.5
			559.7,330.6 560.6,329.8 561.5,329 562.4,328.2 562.8,327.8 563,327.7 563.5,327.6 563.7,327.5 563.9,327.3 565.2,325.8
			565.7,324.9 565.8,324 565.1,323.3 564.4,323 564.1,322.8 563.8,322.4 562.4,318.8 561.8,318 561,317.6 560.6,317.6 560.2,317.7
			559.8,317.7 559.4,317.5 559,317.1 558.9,316.6 558.8,315.5 558.6,315 557.7,313.6 557.6,313.1 557.6,311.9 557.4,311.4
			557.2,311.3 557.3,310.9 557.2,310.5 556.9,310.3 556.8,309.6 556.4,309.2 556,308.9 555.8,308.5 555.7,307.9 555.5,307.2
			555.4,306.5 555.5,305.7 555.9,305.1 555.9,304.8 555.9,304.5 555.6,304.1 555.5,303.8 555.5,303.7 555.7,303.4 555.7,303.2
			555.6,303.1 555.3,303 555.2,302.9 555,302.2 554.9,301.9 554.5,301.6 554.5,301.8 554.3,301.6 554.1,301.5 554,301.3 553.9,301
			554,300.8 554.1,300.6 554.2,300.5 554.4,300.3 554.4,300.1 554.4,299.5 554.5,298.9 554.5,297.8 554.6,297.3 554.8,297 358,297
			358.1,297.5 358,297.5 357.8,297.1 357.7,297 356.8,297 356.8,297.1 356.9,297.4 357.4,297.6 357.4,297.9 357.4,298.3
			357.3,298.5 357.1,298.4 357,298.2 356.9,298.1 356.9,297.9 356.9,300.8 356.6,301.7 356.6,302.3 357,302.2 357,302.3
			356.5,302.5 356.3,302.8 356.2,303.7 356,304.1 355.4,304.9 356.2,306.2 356.5,306.5 356.8,306.6 358.6,306.6 358,307.4
			357.7,307.7 357.3,307.9 357,308 356.8,307.9 356.5,307.5 356.3,307.4 356,307.5 355.8,307.7 355.7,307.8 355.6,308.1
			355.4,308.1 355.1,308.1 354.9,308.2 354.6,308.4 354.5,308.6 354.4,308.9 354.5,309.5 354.5,310.1 354.7,310.7 354.8,310.9
			355,311.2 354.5,311.2 354.4,311.5 354.5,311.9 354.6,312 355.7,312.9 355.6,313.1 355.7,313.4 356,313.6 356.3,313.6
			356.4,313.4 356.4,312.9 356.5,312.7 356.7,312.5 356.9,312 356.9,311.4 356.9,311 357,311 357.1,311.1 357.2,311.1 357.3,311.2
			357.3,311 357.4,311 357.4,311 357.3,310.9 357.3,310.7 357.5,310.6 357.6,310.6 357.8,310.6 358,310.7 358.1,310.5 358.1,310.3
			358.1,310.1 358,309.9 358.3,310.1 358.6,310.3 358.8,310.5 359.1,310.4 359.2,310.6 359.3,310.7 359.4,310.7 359.6,310.7
			359.2,311.4 358.7,312.1 358.5,312.3 358.4,312.6 359.1,312.4 359.1,312.6 358.8,312.7 357.9,312.9 358.1,312.6 358.1,312.5
			357.9,312.4 357.6,312.4 357.4,312.6 357.3,312.8 357.1,313.3 357.1,313.5 357,313.6 357,313.8 357,314 357.1,314.1 357.2,314.1
			357.4,314.2 357.8,314.4 357.9,314.5 357.8,314.7 357.5,314.8 357.4,315 358.2,315.4 359.7,315.2 360.9,314.5 360.9,313.6
			361.1,313.7 361.3,313.7 361.9,313.7 361.7,313.8 361.6,313.9 361.6,314 362.9,313.7 362.9,313.9 362.6,314.1 362.3,314.5
			362.1,314.9 361.1,315.2 361.2,315.6 361.3,316 361,316.3 361,316.1 361,315.9 360.9,315.8 360.7,315.7 360.4,316 360.4,316.3
			360.6,316.5 360.9,316.7 360.7,317 360.5,317.1 360.2,317.2 359.9,317.1 360,317.3 360.1,317.4 360.3,317.4 360.5,317.4
			360.7,317.5 360.9,317.6 360.9,317.6 360.8,317.7 360.3,317.7 360,317.6 359.4,317.1 359.3,317.4 359.3,317.8 359.4,318.1
			359.7,318.3 360.5,318 360.9,318 360.7,318.3 360.3,318.4 360,318.4 359.9,318.5 360,318.8 360.2,318.8 360.5,318.7 360.7,318.7
			361.1,318.8 360.9,318.9 360.6,319 360.4,319.1 360.2,319.3 360,319.3 359.8,319.3 359.6,319.1 359.4,319.7 359.3,320
			358.9,320.4 358.8,320.6 358.8,320.8 359.1,320.8 358.5,321 358.3,321 358.4,320.8 358.4,320.7 358,320.7 357.6,320.8 357.7,321
			357.7,321.1 357.6,321.1 357.5,321.2 357.4,321.2 357.3,321.3 357.4,321.3 357.6,321.5 357.7,321.5 357.4,321.5 357,321.4
			356.8,321.5 356.7,321.8 357.1,321.7 357.5,321.7 357.8,321.8 357.7,322.1 357.6,322 357.5,322 357.4,322.1 357.3,322.2
			357.5,322.3 357.9,322.4 357.8,322.4 357.7,322.5 357.6,322.6 357.8,322.6 357.9,322.8 358,322.9 358,323.1 357.9,323
			357.7,322.9 357.6,322.8 357.3,322.8 357.1,322.9 356.9,322.9 356.9,322.8 356.9,322.6 356.9,322.5 356.9,322.4 357,322.2
			356.8,322.2 356.6,322.2 356.7,322.7 356.6,323 356.4,323.4 356.3,323.8 356.3,323.9 356.5,324.2 356.6,324.3 356.5,324.4
			356.4,324.3 356.2,324.1 356.2,324 356,324.2 355.9,324.5 355.9,324.9 356.1,325.2 356.8,326 356.9,326.2 356.3,326 356,325.7
			355.6,324.8 355.2,325.2 355.1,325.2 354.8,325.3 354.4,325.4 354.2,325.3 354,325.5 353.7,325.7 353.6,325.9 353.8,326.1
			354.6,326.2 354.9,326.4 355,326.7 354.9,327 354.8,327.3 354.6,327.5 354.5,327.6 353.9,327.6 353.9,327.7 353.6,328.2
			353.4,328.3 353.2,328.2 353.1,328.2 353,328.4 353,328.6 352.9,328.8 352.8,329 352.3,329.2 352.4,329.5 352.6,329.8
			352.7,330.2 351.9,331.6 350.4,331.9 349.7,331.9 349,331.6 349,331.9 349,332.2 348.9,332.4 348.8,332.6 348.5,333.2
			348.4,333.5 348.6,333.4 349.2,332.9 349.2,333.2 349.4,333.2 349.6,333.2 349.9,333.1 349.8,333 349.8,333 349.8,332.9
			349.9,332.8 350,333 350.1,333 350.3,333 350.4,333.1 350.5,333.2 350.5,333.3 350.4,333.3 350.3,333.6 350.1,333.7 350.1,333.8
			350.2,333.9 350.5,334 350.6,334.1 350.6,334.3 350.6,334.4 350.5,334.4 350.3,334.6 350.2,334.8 350.2,334.9 350.1,335
			349.9,334.9 349.6,334.8 349.5,334.6 349.3,334.4 349,334.4 348.7,334.6 348.6,335 348.6,335.5 348.7,335.8 349.2,335.5
			349.8,335.4 350.3,335.6 350.1,336.1 350.1,335.9 350,335.8 349.8,335.7 349.6,335.6 349.3,335.9 349.1,336 348.7,336
			348.4,336.2 348.2,336.6 348.9,336.8 349.2,337.2 349,337.2 348.9,337.1 348.8,336.9 348.7,336.8 348.4,336.9 348,336.8
			347.7,336.7 347.6,336.7 347.4,336.9 347.2,337 347.1,337.1 347.4,337.3 347.6,337.3 348,337.2 348.1,337.2 348.2,337.3
			348.1,337.4 347.9,337.5 347.8,337.5 347.5,337.6 347.2,337.8 346.9,337.9 346.6,337.8 346.6,338 346.6,338.1 346.7,338.2
			346.9,338.2 346.7,338.4 346.7,338.6 346.8,338.7 347,338.8 346.9,338.9 346.9,339.1 347,339.3 347.3,339.3 347.3,339.5
			346.9,339.5 346.9,339.6 347.2,339.7 347.5,340 347.7,340.3 347.8,340.6 347.8,341 347.7,341.4 347.3,341.6 346.8,341.8
			346.5,341.8 346,341.9 345.7,341.9 345.3,341.8 345.1,341.8 344.6,341.6 344.6,341.2 344.8,340.8 345,340.5 344.6,340.6
			344.4,340.5 344.2,340.3 344,339.9 343.9,340.1 343.9,340.3 343.9,340.5 344,340.8 343.8,340.9 343.4,341.1 343.2,341.2
			343.1,341.5 343.3,341.6 343.6,341.8 343.7,342 342.7,342.7 342.4,342.7 342.1,342.5 341.9,342.3 341.7,342 341.6,342.1
			341.3,342.1 341.1,342.2 341,342.3 341,342.4 340.9,342.5 340.8,342.6 340.9,342.6 340.9,342.8 340.9,342.9 340.8,343
			340.4,343.2 340.1,343.4 339.9,343.4 339.6,343.3 338.8,342.9 338.6,342.8 338.3,342.5 338.2,342.5 338.1,342.8 338.1,342.9
			337.9,342.7 337.8,342.3 337.8,342.2 337.3,342.4 336.8,342.8 336.4,343.4 336.1,343.6 335.9,343.9 335.5,344.3 335.2,344.5
			335,344.1 334.8,343.9 334,343.2 333.7,343 333.1,343.2 333.1,344.3 332.6,344.6 331.7,344.5 331.4,344.6 331.3,344.8 331,345.7
			330.9,345.4 330.8,345 330.9,344.7 331,344.3 330.7,344.6 330.4,345.3 330.1,346.4 330,346.4 330,346.2 329.4,347.3 329.2,347.8
			329.4,348.3 329,348.4 328.7,348.7 328.6,349.1 328.3,349.4 328.2,349.7 328.7,350.2 328.4,350.4 328.6,350.6 328.7,350.7
			328.9,350.6 329.1,350.4 329.1,350.8 328.9,351 328.8,351.3 328.8,351.7 329,352.1 329,352.4 328.8,352.7 328.9,353 328.7,353.6
			328.8,353.7 329.2,353.6 329.4,353.4 329.5,353.1 329.8,353 330,353 330.2,353.2 330.4,353.4 330.4,353.6 330.4,353.9
			330.3,354.4 330.3,354.7 330.4,354.9 330.6,354.9 330.8,355 331.1,355.2 331.2,355.2 331.2,355.2 331.3,355.4 331.3,355.6
			331.2,355.7 331.2,355.8 331.1,355.9 331.1,356.2 331,356.5 330.8,357.1 330.5,357.7 330.4,357.9 330.4,358.2 330.3,358.3
			330.1,358.4 329.8,358.4 329.7,358.3 329.6,358 329.5,357.6 329.4,357.6 329.3,357.6 329.3,357.7 328.8,357.6 328.1,357.5
			327.4,357.5 327,357.7 326.8,357.4 326.4,357.2 326,357.1 324.7,357.1 324.5,357.2 324.1,357.4 323.7,357.8 323.1,358.2
			322.9,358.3 322.5,358.5 322.3,358.7 322.3,358.9 322.2,359.1 322.1,359.3 322,359.6 320.9,360.7 320.7,361.1 320.8,361.5
			321,361.8 321.2,362 321.5,362.1 323,362.2 323.3,362.3 323.4,362.4 323.8,362.6 323.9,362.6 324.2,362.9 324.3,362.9
			324.6,362.7 324.7,362.8 324.8,363.1 324.8,363.5 324.8,363.9 324.8,364.2 325,364.4 325.3,364.6 325.6,364.8 325.7,365.2
			325.4,365.4 326.6,366.2 327,366.8 327.6,367.3 327.8,367.6 328,368.1 328.4,368.5 328.8,368.8 329.3,369 329.6,368.9
			329.9,368.8 330.1,368.9 330.1,369.3 330.2,369.5 330.6,370 330.7,370.3 331,370.1 331.4,370.1 332.5,370.4 332.9,370.7
			334.9,372.8 335.3,373.2 335.8,373.4 337,373.7 337.4,373.9 340.1,376 341,376.4 342.5,376.5 343.9,377 344.1,377 344.2,376.9
			344.3,377 344.6,377.2 344.6,377.4 344.6,377.6 344.7,377.8 344.9,378 345.4,378.2 345.8,378.3 346.2,378.3 346.7,378.2
			348.3,377.6 348.8,377.6 349.5,378.1 349.6,379.6 350,380.2 351.4,381.2 352.2,381.5 352.9,381.4 353.7,381.6 354,382.6
			354.2,384.8 354.3,385.5 354.4,386.1 354.6,386.6 355.2,387.1 355.9,387.3 358.2,387.8 358.6,387.9 358.9,388.1 359.2,388.2
			359.6,388.1 360.7,387.8 361.1,387.7 361.8,387.9 362.6,388.8 363.2,389 364,389 364.3,389 364.6,389.1 364.9,389.3 365.3,389.7
			365.7,390 367.1,390 367.7,389.9 368,389.9 368.1,390 369,390 369,389.4 369.3,389.3 370,389.5 371,389.6 371.3,389.7 371.6,390
			371.7,390 375.6,390 375.9,389.8 375.6,388.4 375.7,386.9 375.7,386.8 375.9,386.8 376.3,386.8 376.6,386.7 376.8,386.7
			377.3,386 377.4,385.9 377.5,385.9 377.9,385.6 378.1,385.5 378.3,385.6 378.9,386.2 379.3,386.5 379.7,386.7 380.2,386.8
			380.7,386.8 381.1,386.8 381.4,386.8 381.5,386.9 381.7,387.1 381.8,387.6 381.9,387.8 382.3,387.8 382.8,387.6 383.3,387.6
			383.5,387.9 383.6,388.1 384.9,389.9 385,390 508.3,390 		"/>
		<polygon fill="#003893" points="347.7,341.1 347.8,340.8 347.5,340.5 346.7,339.9 346.6,339.7 346.5,339.3 346.4,339.2
			345.8,338.6 345.8,338.7 345.7,338.7 345.6,338.8 345.6,338.9 345.3,338.8 345.3,338.8 345.1,338.6 345.1,338.7 345.1,338.9
			345.1,339.2 345.3,339.4 345.8,340.2 346.8,340.9 347.3,341.2 		"/>
		<polygon fill="#003893" points="353.6,306.6 353.4,306.6 353.1,306.7 352.6,307.1 352.4,307.2 352.2,307.3 352.1,307.6
			352.1,307.8 352.1,308 352.2,308 353,307.7 353.2,307.6 353.3,307.4 353.5,307.2 353.8,307.2 354.1,307.2 354.5,307.3
			355.6,307.3 356.1,307.2 356.6,307 356.9,307.5 357.2,307.6 357.5,307.3 357.9,306.7 357.5,306.7 357,306.8 356.6,306.8
			356.2,306.6 355.9,306.2 355.7,305.9 355.5,305.6 355.1,305.3 354.6,305 354.5,305.2 354.5,305.2 354.4,305.3 354.6,305.3
			354.7,305.4 354.7,305.4 354.9,305.5 354.5,305.6 354.1,305.8 354.1,306 354.6,306.2 353.9,306.2 354,306.4 354.3,306.6
			354.4,306.7 354.1,306.7 		"/>
		<polygon fill="#003893" points="345.4,341.5 346,341.6 346.7,341.6 347.1,341.3 346.8,341 346.1,340.6 345.8,340.4 345,339.4
			344.7,339.2 344.4,339.2 344.3,339.5 344.4,340 344.8,340.2 345.1,340.2 345.4,340.3 345.4,340.6 345,341 345.1,341.2 345,341.3
					"/>
		<polygon fill="#003893" points="267.6,312.5 267.6,312.6 267.7,312.6 267.8,312.6 267.7,312.5 		"/>
		<polygon fill="#003893" points="339.9,340.2 339.7,340 339.2,340.2 338.9,340.2 338.7,340.3 338.6,340.5 338.5,340.7 338.3,340.8
			338.2,341 338.1,341.2 338.3,341.7 338.8,342.3 339.4,342.9 339.8,343.2 340.4,343 340.6,342.4 340.6,341.8 340.4,341.3
			339.9,340.7 339.9,340.6 340,340.5 		"/>
		<polygon fill="#CE1126" points="511.3,478.9 511.9,475.6 512.5,472.2 513.1,468.9 513.8,465.5 514.4,462.2 515,458.8 515.6,455.5
			516.2,452.1 516.8,448.8 517.4,445.4 518,442.1 518.7,438.8 519.3,435.4 519.9,432.1 520.5,428.7 520.7,427.5 521,426.4 521,426
			521.4,424.6 521.4,423.6 521.7,421.7 521.7,420.8 522.1,419.6 521.9,419 521.1,417.7 521.1,417.5 521.2,417.1 521.3,416.8
			521.2,416 521.2,416 521.1,415.8 521.1,415.7 521,415.7 520.8,415.7 520.6,415.6 520.2,414.9 520,414.8 519.5,414.6 519.3,414.5
			519.2,414.2 519.2,414 519.3,413.8 519.2,413.5 519.1,413.3 519,413.2 518.8,413.1 518.7,413 518.5,412.7 518.4,412.5 518.5,412
			518.3,411.7 517.5,410.8 517.3,410.3 517.5,409.9 518.1,408.9 518.3,408.4 518.2,408.2 518.1,408 518,407.9 517.8,407.7
			517.8,407.5 517.8,406.8 517.7,406.4 517.5,406 517.3,405.6 516.9,405.3 516.5,405.1 514.9,404.5 514.6,404.2 513.9,403.6
			513.7,403.4 513.3,403.2 513,403 512.9,402.8 512.7,402.4 512.6,402.2 512.2,401.9 511.4,401.8 511,401.6 510.8,401.4
			510.3,400.7 509.2,399.8 508.4,398.8 508.2,398.4 508.1,397.7 508.1,396.6 508.1,396.1 508.1,394.7 508.2,392.7 508.2,390.5
			508.3,390 385,390 385.1,390.1 385.1,390.5 385.4,390.9 385.9,391.3 387.2,392.1 387.3,392.4 388.2,393 388.8,393.3 389.1,393.5
			389.5,393.6 390,393.6 390.5,393.6 391.4,393.4 391.7,393.3 392.2,393.5 392.5,393.7 392.8,394 393,394.2 393.3,394.3
			394.3,395.2 395.5,395.9 396,396.1 396.5,396.4 397.6,396.6 398.9,397.1 399.3,397.3 399.6,397.2 400,397 400.2,396.6
			400.3,396.4 400.4,396 400.6,395.8 400.9,395.7 401.3,395.7 402.3,396 402.7,396.2 403.1,396.5 403.9,397.6 404.2,397.9
			404.4,397.9 404.7,397.9 404.9,398 405.1,398.1 405.9,399 406.2,399.2 406.6,399.4 407.3,399.6 407.7,399.7 407.9,399.7
			408.1,399.5 408.7,398.7 408.9,398.6 409.3,399 409.6,399.4 410.4,400.9 409.8,401.3 409.6,401.6 410,401.7 410.2,401.7
			410.6,401.8 411.1,401.9 411.3,401.9 411.3,402 411.5,402.1 411.6,402.2 411.7,402.3 411.8,402.4 412.1,402.4 412.2,402.4
			412.3,402.3 412.5,402.2 412.7,402.1 412.9,402.3 413.5,403.3 414.4,404.2 414.9,404.6 416.2,405.4 416.4,405.6 416.7,405.9
			416.9,406.2 417,406.2 417.3,406.3 417.4,406.3 417.4,406.5 417.5,406.8 417.5,407 418.5,409.1 418.4,409.3 418.2,409.5
			418.1,409.7 418.1,410.1 418.2,410.4 418.9,411.1 419.1,411.2 419.3,411.3 419.6,411.3 419.8,411.4 419.6,411.7 419.8,411.9
			420,412.2 420.1,412.4 420,412.7 419.7,412.7 419.3,412.6 419.1,412.6 418.9,412.9 419.1,413.1 419.6,413.4 419.8,413.7
			420.1,414.6 420.5,415.2 421.1,415.5 422.3,415.8 423.6,416.3 424.2,416.2 424.5,415.6 424.7,415.8 425.2,417.3 425.3,417.5
			425.5,417.6 425.8,417.7 425.9,417.7 426,417.6 426.2,417.5 426.3,417.4 426.4,417.2 426.5,417.2 426.6,417.3 426.7,417.5
			426.5,417.9 426.5,418 426.8,418.2 427.4,418.1 427.8,418.2 427.9,418.4 428.2,419.2 428.6,419.8 428.8,420 429.1,420.2
			429.6,420.4 430,420.5 430.2,420.5 430.6,420.3 430.9,419.7 431.2,419.6 431.4,420 431.7,420.3 432.1,420.5 432.6,420.6
			432.8,420.7 433.2,421 433.7,421.1 433.8,421.3 433.9,421.5 434,421.8 434,422.1 434.1,422.2 434.2,422.2 434.4,422.2
			434.5,422.2 434.6,422.3 434.6,422.5 434.7,422.9 434.7,423.1 434.8,423.3 434.9,423.4 435.2,423.5 435.1,423.8 434.8,424.2
			435,424.5 435.8,424.8 436,425.2 436.4,425.5 436.6,425.7 436.6,425.9 436.6,426.2 436.7,426.4 436.9,427.3 436.9,427.7
			436.4,428 436.2,428.3 436,429 435.9,429.8 436.3,430.3 437.7,431.1 437.7,431.2 437.8,431.5 437.8,431.6 437.9,431.6
			438.1,431.5 438.4,431.6 438.6,431.6 438.9,431.6 439.2,431.8 439.7,432.2 439.9,432.3 440,432 440.4,431.7 440.7,431.7
			441.4,431.8 441.5,431.8 441.6,431.2 441.8,431.2 442.4,431.8 442.6,432 442.8,432.1 443,432.2 443.1,432.4 442.9,433.2
			443.1,433.5 443.5,434 443.7,434.4 443.6,434.6 443.4,435.1 443.4,435.4 443.5,435.7 443.6,436 444,436.5 444.1,436.9
			444.2,437.4 444.4,437.8 444.7,438.1 444,439.1 443.9,439.5 443.1,440.2 442.9,440.4 442.8,440.6 442.8,440.8 442.9,441
			443.1,441.3 443.1,441.4 443.2,441.5 443.5,441.7 443.5,441.9 443.6,442.5 443.7,442.6 444,442.9 444.9,443.1 445.1,443.3
			445.2,443.7 445.5,443.5 445.8,443 445.8,442.8 447.2,443.6 447.3,443.7 447.6,443.9 448,444.9 448.2,445.3 448.3,445.4
			448.5,445.4 449.4,445.2 449.7,445.1 449.9,444.9 450.5,444.6 451.1,444.4 451.4,444.5 452,444.9 452,444.6 452.1,444.5
			452.3,444.3 452.5,444.2 452.6,444.3 452.7,444.5 452.8,444.7 452.9,445.3 453,445.3 453.3,445.2 453.6,444.9 454.1,443.8
			454.4,443.5 454.8,443.5 455.2,443.7 456.1,444.5 456.5,444.6 458.6,445 458.8,445.1 458.9,445.4 459.2,445.6 459.6,445.8
			460,445.9 460.4,445.9 461.3,445.6 461.8,445.6 461.9,445.5 462,445.4 462,445 462.1,444.9 462.6,444.8 462.8,444.8 464.2,445.1
			464.5,445 465.4,443.9 466,443.4 466.6,443.2 467.2,443.2 468.6,443.4 468.9,443.3 469.2,443 469.3,442.6 469.4,442.4
			470.4,441.6 471.2,440.5 471.3,440.3 471.5,440.3 472.7,439.5 473.1,439.3 473.3,439.4 473.3,440.1 473.5,440.5 473.9,440.4
			474.6,440.1 475,440.2 475.5,440.4 475.8,440.7 476.3,440.9 477.5,441.2 477.7,441.4 477.8,441.7 477.9,442.6 478,442.9
			478.3,443.1 478.5,442.9 478.7,442.1 479,441.8 479.2,441.8 479.6,442.5 480.1,443.1 480.1,443.3 480.1,443.5 479.8,443.8
			479.7,443.9 479.9,444.4 480.6,444.2 482.1,443.5 482.3,443.8 482.7,443.7 483.1,443.5 483.4,443.3 483.7,443.4 483.9,443.6
			484.1,443.6 484.4,443.6 484.7,443.3 485.3,443 485.7,442 486.2,441.8 486.8,441.7 487.1,441.7 487.6,442 487.9,442.1 488.1,442
			488.3,441.9 488.1,441.4 488.1,440.9 488.3,440.6 488.9,440.7 489.8,441 490.3,441.1 490.7,440.9 491.3,441.3 492.4,442.5
			493.1,442.9 493.9,443.2 494.3,443.3 494.8,443.4 494.9,443.5 495,443.6 495,444.2 495.1,444.3 495.7,444.8 495.9,445
			495.9,445.3 495.9,445.5 495.9,445.8 496.1,445.9 496.9,445.9 497.1,445.8 497.1,445.6 497.1,445.4 497.2,445.2 497.5,445
			497.8,445.1 498,445.4 498.4,445.6 498.7,445.6 499.1,445.8 499.5,445.9 499.7,446.2 499.9,446.4 499.9,446.6 500.1,446.8
			500.3,446.9 500.5,446.9 501,446.7 501.2,446.6 501.7,446.6 502.1,446.7 502.4,446.9 502.3,447.3 502.2,447.4 501.8,447.5
			501.7,447.6 501.7,447.8 501.8,448 502,448.1 502.1,448.2 502.6,448 503,447.8 503.4,447.7 503.9,447.9 504.1,448.3 504.4,449.2
			504.7,449.5 505.1,449.7 505.4,449.5 505.7,449.4 506.2,449.7 506.2,449.9 506.2,450.1 506.3,450.3 506.4,450.4 506.6,450.4
			506.7,450.2 506.8,450 507,449.8 507.4,449.5 507.6,449.7 507.9,450.6 508,450.9 508.2,451.1 508.4,451.3 508.5,451.4
			508.5,451.4 508.1,452.1 506.4,454.7 504.8,457.2 503.2,459.8 501.5,462.3 499.9,464.8 498.2,467.4 496.6,469.9 495,472.5
			494.3,473.5 495.2,473.6 498,475.1 498.2,475.3 499.3,475.5 499.9,475.6 500.4,475.3 501.3,474.6 501.7,474.3 502.3,474.2
			503.1,474.5 503.9,475.1 504.6,475.8 505.1,476.5 505.3,477.2 505.4,478 505.7,478.7 506.2,479.2 508.3,480.3 509,480.8
			509.4,481.3 509.7,481.8 510.3,483 510.7,482.3 		"/>
		<polygon fill="#CE1126" points="372.2,390.5 372.6,390.6 372.9,390.6 373.4,390.3 375.5,390.1 375.6,390 371.7,390 		"/>
		<polygon fill="#CE1126" points="368.7,390.3 369.1,390.3 369,390 368.1,390 		"/>
		<polygon fill="#CE1126" points="365.7,390 366,390.1 366.3,390.1 367.1,390 365.7,390 		"/>
	</g>
	<path fill="none" stroke="#999999" stroke-width="0.25" stroke-linecap="round" stroke-linejoin="round" d="M299,110.9L299,110.9
		L299,110.9L299,110.9L299,110.9L299,110.9L299,110.9z M267.6,312.5L267.6,312.5L267.6,312.5l0.1,0l0-0.1L267.6,312.5z M338.8,342.3
		l0.6,0.6l0.5,0.3l0.6-0.2l0.2-0.6l0-0.7l-0.2-0.4l-0.5-0.6l0-0.1l0-0.1l0-0.3l-0.2-0.2l-0.5,0.2l-0.3,0l-0.3,0.1l-0.1,0.2l-0.1,0.2
		l-0.1,0.1l-0.1,0.1l-0.1,0.3l0.2,0.4L338.8,342.3z M345.3,339.4l0.6,0.7l0.9,0.7l0.5,0.3l0.4,0l0.1-0.3l-0.3-0.3l-0.8-0.6l-0.1-0.2
		l-0.1-0.4l-0.1-0.2l-0.6-0.6l-0.1,0.1l-0.1,0l-0.1,0.1l-0.1,0.1l-0.2-0.1l-0.1,0l-0.2-0.2l0,0.1l0,0.2l0.1,0.2L345.3,339.4z
		 M353.6,306.6l-0.3,0l-0.3,0.1l-0.5,0.4l-0.3,0.1l-0.2,0.1l-0.1,0.3l0,0.3l0.1,0.2l0.1-0.1l0.8-0.2l0.2-0.2l0.1-0.2l0.2-0.1
		l0.3-0.1l0.3,0l0.4,0.1l1.1,0l0.5-0.1l0.5-0.2l0.4,0.5l0.3,0.1l0.3-0.2l0.4-0.6l-0.4-0.1l-0.4,0.1l-0.4,0.1l-0.4-0.2l-0.3-0.4
		l-0.2-0.3l-0.2-0.3l-0.3-0.3l-0.6-0.3l-0.1,0.1l0,0l0,0.1l0.2,0l0.1,0l0.1,0.1l0.1,0l-0.4,0.2l-0.3,0.2l-0.1,0.2l0.5,0.1h-0.7
		l0.2,0.2l0.3,0.2l0.1,0.2l-0.3,0L353.6,306.6z M344.8,340.2l0.4,0.1l0.3,0.1v0.3L345,341l0.2,0.2l-0.2,0.1l0.4,0.2l0.6,0.1l0.7,0
		l0.5-0.3l-0.3-0.3l-0.7-0.4l-0.3-0.3l-0.8-1l-0.3-0.2l-0.3,0l-0.1,0.4l0.1,0.4L344.8,340.2z M265.3,132.2l-0.2,0.4L265,133l0.2,0.4
		l-0.3,0.3l0.1,0.2l0.3-0.1l0.4-1.6l-0.1-0.2L265.3,132.2z M272.4,115.3l-0.3,0.2L272,116l0.1,0.5l0.4-0.1l0.3-0.2l0.1-0.3l-0.1-0.4
		L272.4,115.3z M574.4,368.9l-0.1-0.5l0.4-0.8l0-0.5l-0.2-0.5l-0.2-0.4L574,366l-0.2-0.2l-0.2-0.2l-0.1-0.3l0.1-0.9l-0.1-0.5
		l-0.2-0.4l-0.4-0.7l-0.2-0.4l-0.1-0.4V361l-0.1-0.5l-1.8-4.7l-0.4-0.7l0-0.2l-0.1-0.2l-0.4-0.3l-0.2-0.3l-0.2-0.2l-0.2-0.2
		l-0.1-0.3l0.3-0.4l0.1-0.2l0.1-0.4l-0.1-1.1l-0.1-0.3l-0.3-0.2l-0.4-0.1l-0.3-0.2l-0.2-0.3l-0.3-0.9l-0.2-0.6l-0.3-0.8l0-0.4
		l0.2-0.3l0.4-0.4l0.3-0.4l-0.1-0.4l-0.1-0.2l0-0.4l-0.1-0.2l-0.2-0.2l-0.7-0.4l-0.7-0.2l-0.2-0.1l-0.4-0.4l-0.2-0.2l-0.2-0.1
		l-0.2-0.1l-0.1-0.3l-0.1-0.3l-0.1-0.2l-0.2-0.2l-0.5-0.3l-0.2-0.2l-0.1-0.2L564,342l-0.2-0.2l-0.3-0.1l-0.1-0.1l-0.3-0.4l-0.1-0.2
		L563,341l-0.5-0.2l-0.2-0.1l-0.1-0.2l-0.1-0.4l-0.1-0.2l-0.3-0.3l-0.4-0.1l-0.9,0l-0.2-0.2l-0.1-0.5l-0.1-0.9l-0.2-0.4l-0.3-0.5
		l-0.4-0.3l-0.4,0.1l-0.4,0.1l-0.5-0.1l-0.9-0.4l-0.2-0.3l-0.2-0.1l-0.4,0.2l-0.2,0l-0.5,0l-0.4,0.1l-0.2,0.3l-0.2,0.3l-0.3,0.2
		l0-1.4l0.4-0.6l0.5-0.5l0.9-0.8l0.9-0.8l0.9-0.8l0.9-0.8l0.9-0.8l0.9-0.8l0.9-0.8l0.9-0.8l0.4-0.4l0.3-0.1l0.5-0.1l0.2-0.1l0.3-0.2
		l1.3-1.6l0.5-0.9l0.1-0.9l-0.7-0.7l-0.8-0.3l-0.3-0.2l-0.3-0.4l-1.4-3.6l-0.6-0.8l-0.8-0.4l-0.4,0l-0.4,0.1h-0.4l-0.4-0.2l-0.4-0.4
		l-0.1-0.5l-0.1-1l-0.2-0.5l-0.8-1.4l-0.1-0.4l-0.1-1.3l-0.2-0.5l-0.1-0.1l0.1-0.4l-0.1-0.4l-0.2-0.2l-0.2-0.7l-0.4-0.4l-0.4-0.3
		l-0.2-0.4l-0.1-0.6l-0.2-0.6l-0.1-0.7l0.1-0.8l0.4-0.7l0.1-0.2l-0.1-0.3l-0.3-0.5l-0.1-0.3l0-0.2l0.1-0.3v-0.2l-0.1-0.1l-0.3-0.1
		l-0.1-0.1l-0.2-0.7l-0.1-0.3l-0.4-0.3v0.1l-0.2-0.1l-0.2-0.2l-0.1-0.2l-0.1-0.2l0-0.3l0.1-0.1l0.2-0.1l0.1-0.2l0-0.2l0-0.7l0.1-0.5
		l0.1-1.2l0.1-0.5l0.2-0.3l0.2-0.3l0-0.9l0.1-0.4l-0.1-0.2l0-0.1l0.1-0.1v-0.3l0-0.1l-0.2-0.4l0-0.1l0-0.5l0.1-0.8l0.3-0.8l0-0.4
		l0-0.9l0-0.1l0.1-0.1l0.1-0.1l0.1-0.2l-0.1-0.1l-0.4-0.4l-0.1-0.2L555,289l0-0.2l0-0.2l0-0.2l0-0.3l0.2-0.5l0-0.2l0-0.5l-0.1-0.4
		l-0.1-0.3l-0.2-0.3l-0.2-0.8l0.2-0.9l0.5-0.8l0.8-0.6l0.1,0l0.2,0l0.1,0l0.1-0.1l0.2-0.2l0.1-0.1l0.6-0.2l0.2-0.1l0.4-0.4l0.2-0.2
		l0.2-0.1l0.1-0.1l0.2-0.8l0.1-0.1l0.1-0.1l0.1-0.2l0-0.3l-0.1-0.1l-0.3-0.3l-0.1-0.1l0-0.4l-0.2-1.2v-1l0.2-0.9l0.3-0.8l0.5-0.7
		l1.2-1.2l0.2-0.3l1-1.1l0.3-0.2l0.8-0.3l0.3-0.2l0.1-0.4l0-0.5l-0.2-0.4l-0.5-0.4l-0.8-1.2l0-0.8l0.1-0.3l0.2-0.2l0.5-0.4l-0.9-0.1
		l-0.6-0.4l-0.6-0.5l-0.6-0.4l-3.3-0.8l-1.5-0.1l-0.4-0.1l-0.2,0l-0.3,0.1l-0.4,0.4l-0.2,0.2l-0.2,0l-0.3,0l-0.2,0.1l-0.1,0.3
		l-0.1,0.2l-0.1,0.2l-0.2,0.2l-0.2,0.1l-0.2,0l-0.7,0.3l-0.8,0.1l-2.7-0.3l-0.9,0.1l-2.4,0.8h-0.8l-1.4-0.4l-0.4,0l-0.4,0l-1.5,0.5
		l-1.3,0.1l-0.2,0.1l-0.5,0.5l-0.3,0.1l-0.5-0.1l-0.9-0.4l-0.4-0.1l-0.5,0l-1.3-0.4l-0.4-0.1l-1.3,0.1l-0.5-0.1l-0.5-0.2l-0.5-0.1
		l-0.4,0.1l-0.8-0.4l-0.4-0.1l-0.5,0l-0.4,0.2l-0.6,0.6l-0.4,0.3l-1.2,1.2l-1.2,0.7l-0.5-0.3l-0.9-1l-0.4-0.2l-0.6,0.1l-1,0.5
		l-0.5,0.2h-0.3l-0.6-0.8l-1.6-2l-1.6-2l-1.6-2l-1.6-2l-1.6-2l-1.6-2l-1.6-2l-1.6-2l-0.4-0.5l-0.7-0.6l-0.6-0.1l-0.8,0l-0.8,0.2
		l-1.2,0.7l-0.7,0l-2.2-1l-0.3-0.1l-0.1,0l-0.1-0.2l-0.1-0.1l-0.2,0l-0.5,0.1h-0.2l-0.3-0.1l-0.2-0.1l-1.1-1.3l-0.2-0.1l-0.3,0.1
		l-0.6,0.2l-0.3,0l-0.7-0.2l-0.2-0.1l-0.3-0.2l-0.1-0.1l-0.6,0l-1.3,0.3l-0.9,0.1l-0.8,0.3l-0.4,0l-0.2,0.1l-0.1,0.2l-0.2,0.3
		l-0.9,0.6l-1,0.4l-1.1,0.1l-1.5-0.2l-0.2,0.1l-0.2,0.2l-0.3,0.2l-0.4,0.1l-0.2-0.1l-0.2-0.1l-0.2-0.1l-1,0L483,250l-0.1-0.2l0-0.3
		l0-0.2l-0.2-0.1l-0.3,0l-0.9,0.2l-0.3,0l-0.7-0.2l-0.3,0l-0.3,0.1l-0.6,0.3l-0.2,0.1l-0.4-0.3l-0.5-0.1l-0.4,0.1l0,0l0,0l-0.4,0
		l0,0l0-0.1l-0.1-0.1l-0.1-0.1l-0.2,0l-0.3,0.2l-0.2,0.1l-0.1,0l-0.2-0.2l-0.1-0.2l-0.2-0.1l-0.7,0l-0.3,0l-0.1,0.1l0.1,0.3
		l-0.6-0.2l-0.5,0l-0.5,0.1h-0.6l0.1,0.4l-0.1,0.1l-0.2,0l-0.2,0l-0.3,0.2l-0.2,0.2l-0.2,0.1L471,250l-0.7-0.1l-2.4-0.5l-0.2-0.1
		l-0.5-0.4l-0.3-0.2l-0.6-0.3l-0.2-0.2l-0.4-0.4l-1.1-2.2l-0.2-0.6l-0.1-0.6l-0.1-0.6l0-0.2l0.2-0.9l-0.1-0.1l-0.1-0.1l-0.7-0.9
		l-0.7-0.2l-1.7,0l-1-0.2l-0.9-0.3l-0.8-0.6l-0.6-0.9l-0.1-0.5l0.1-0.4l0.2-0.4l0.1-0.5l-0.1-0.4l-0.3-0.8l-0.1-0.4l0.2-2.2l0.4-1.3
		l0-0.4l0-0.9l-0.1-0.4l-0.2-0.2l-0.4-0.5l-0.1-0.2l0.1-0.2l0.2-0.1l0.2-0.1l0.2-0.1l0.3-0.3l0.2-0.3l0.2-0.3l0.1-0.4l0.2-0.4l0.4,0
		l0.4,0.1h0.4l0.3-0.5l0-0.8l-0.4-1.4l-0.7-1.3l-0.1-0.5l0-0.3l0.2-0.7l0-0.3l-0.1-0.3l-0.1-0.4l-0.2-0.3l-0.2-0.3l-0.2-0.1
		l-0.2-0.1l-0.2-0.1l-0.2-0.2l-0.5-0.5l-0.4-0.4l-0.4-0.4l-0.4-0.4l-0.4-0.4l-0.4-0.4l-0.4-0.4l-0.4-0.4l-0.4-0.4l-0.4-0.4l-0.4-0.7
		l-0.2-0.8l-0.2-0.9l-0.2-0.9l-0.2-0.9l-0.2-0.9l-0.2-0.9l-0.2-0.9l-0.2-0.9l-0.2-0.9l-0.1-0.4l-0.4-0.4l0.3-0.5l-0.1-0.3l-0.4-0.2
		l-0.4-0.4l-0.1,0.2h-0.2l-0.2-0.1l-0.2,0l-0.3,0.1l-0.2,0.1l-0.7,0.5l-0.4,0.2l-0.4-0.1l-0.4-0.5l-0.1-0.4l0.1-0.9l-0.1-0.5
		l-0.1-0.1l-0.2-0.2l-0.1-0.1v-0.1l0.1-0.2v-0.1l-0.3-0.8l-0.1-0.2l-0.5,0l-0.9,0.9l-0.5,0.3l-0.5,0.2l-0.4,0.2l-0.7,0.7l-0.8,0.4
		l-0.9,0.1l-2.6,0.1l-0.3-0.2v-0.5l0.2-0.4l0.8-0.5l0.4-0.4l0.3-0.4l0.7-1.8l1.7-2.5l0.4-0.9l0.3-0.3l0.8-0.5l0.3-0.4l0.2-0.4
		l0.5-1.4l1.2-1.8l0.6-1.3l0.2-0.5l-0.1-0.4l-0.2-0.4l-0.1-0.5l0-0.4l0.2-0.8v-0.8l1.1-3.7l0.4-4.6l0-0.4l0-0.4l0.1-0.4l0.3-0.4
		l0.4-0.4l0.3-0.4l0.4-1.1l1.3-1.5l0.6-0.9l1-2.9l0.5-0.9l0.5-0.6l0.9-0.6l0.4-0.4l0.4-0.5l0.7-1.8l0.2-0.2l0.4-0.4l0.2-0.2l0.1-0.2
		l0-0.4l0.1-0.2l0.4-0.3l0.5-0.1l0.9,0l1.2-0.4l0.4-0.1l0.4,0l0.8,0.2l0.4-0.1l0.2-0.3l0.6-1.2l0.6-1.2l0.6-1.2l0.6-1.2l0.6-1.2
		l0.6-1.2l0.6-1.2l0.6-1.2l0.2-0.4l0.4-0.5l0.4-0.3l0.5-0.1l1.2-0.3l1.2-0.3l1.2-0.3l1.2-0.3l1.2-0.3l1.2-0.3l1.2-0.3l1.2-0.3
		l0.6-0.1l0.8-0.4l0.7-0.6l0.4-0.2l0.6,0l0.1-0.2l0.4-1.1l0.1-0.2l0.3-0.1l0.3-0.1l0.3-0.2l0.4-0.5l1.4-0.8l0.6-0.4l0.3-0.3l0.3-0.5
		l0.1-0.5l-0.1-0.4l-0.8-1.2l-0.1-0.6l-1.3-2.2l-0.1-0.4L484,138l-0.1-0.1l-0.2-0.4l-0.4-0.3l-0.7-0.4l-1-0.2l-0.4-0.2l-0.4-0.3
		l-0.2-0.1l-0.7,0l-0.3-0.1l-0.1-0.1l-0.3-0.3l-0.6-0.4l-0.4-0.2l-0.4-0.1h-1.5l-0.5-0.1l-0.6-0.3l-0.4-0.1l-0.5,0.1l-0.4,0.2
		l-0.3,0.3l-0.2,0.4l0.1,0.1l0.2-0.2l0.6-0.5l0.3-0.2l-0.1,0.1l0,0.1l0,0.3l0.1-0.1l0.2-0.1l0.2,0h0.2l-0.2,0.1l-0.2,0.2l0,0.2
		l0.2,0.1l0.1-0.1l0.2-0.1l0.2-0.1l0.3,0l-0.2,0.3l-0.3,0.1l-0.3,0.1l-0.3,0.1l-0.1,0l-0.2,0.1l-0.1,0.1l0.1,0.1l0.1,0.1l0,0.2
		l-0.1,0.1l-0.1,0.1h-0.1l-0.1-0.3l-0.2-0.2l-0.1-0.2l0.1-0.4l-0.2,0l-0.2,0.1l-0.2,0.1l-0.1,0.1l-0.1,0.2l0.1,0.1l0.1,0l0.1,0
		l-0.1,0.4l-0.2,0.2l-0.3,0.2l-0.4,0.2l-0.1,0l-0.3,0l-0.1,0.1l0,0.1l0,0.1l0,0.1l-0.3,0.1l-0.1,0l-0.2-0.1l-0.3-0.3l0.1-0.3
		l0.3-0.2l0.4-0.2l-0.3-0.1l-0.2,0l-0.3,0.2l-0.1,0l-0.4,0l-0.1,0l-0.1,0.3l-0.1,0.1l-0.8,0.7l-1,0.7l0.2,0.3h0.1l0.1-0.2l0.2-0.1
		l0.3,0l0.3,0l0.3,0.1l0.1,0.1l0.1,0.2l0.2,0.2l-0.1,0.2l0.1,0.2l0.2,0.2l0.1,0.2l-0.1,0.2l-0.2,0l-0.3,0l-0.3,0l-0.2,0.1l-0.2,0.2
		l-0.1,0.2l-0.1,0.3l-0.1,0.1l-0.6,0.3l-0.4-0.2l-0.3-0.5l-0.3-0.2l0.9-0.9l0.1-0.4l-0.7-0.2l-2.1,0.4L465,139l-0.5,0.3l-0.2,0.2
		l-0.1,0.3l0.1,0l0.2,0.1l0.2,0.2l0.1,0.2l0.1,0.4l0.1,1.2l0,0.4l-0.1,0.3l-0.5,0.6l-0.2,0.7l-0.7,1.2l-0.3,0.8l0,0.2l-0.1,0.2
		l-0.4,0.4l-0.3,0.3l-1.1,0.4l-0.9,0.6l-0.7,0.2l-0.5,0.5l-0.3,0.2l-0.4,0.1l-1.2,0l-0.5,0.2l-0.5,0.3l-0.4,0.2l-0.4-0.1l-0.6,0.5
		l-0.3,0.2l-1.3,0.3l-0.8,0.3l-0.4,0.2l-3.6,3l-2.5,1.3l-1.2,1.1l-0.7,0.3l-0.2,0.2l-0.3,0.4l-0.2,0.2l-0.2,0.1l-0.1,0.1l-0.3,0.5
		l-0.2,0.2l-0.1,0.1l-0.6,0.3l-0.6,0.5l-0.1,0.2l-0.2,0.1l-2.3,0.4h-4l-2.3,0.2l-2.5-0.2l-0.8-0.3l-0.7-0.4l-1-0.2l-0.1-0.1
		l-0.4-0.3l-0.3-0.3l-0.4-0.2l-0.5-0.1l-0.2,0l-0.1,0l-0.1,0.1l-0.1,0.2h-0.1l-0.2-0.2l-0.1,0.1l-0.1,0.2l-0.2,0.1l-0.2-0.1
		l-0.2-0.3l-0.2-0.2v0.4h-0.1l0-0.1l0,0h0l-0.1-0.1l-0.1,0.1l-0.2,0.3l-0.1-0.2l0-0.1l0-0.1h-0.2l0,0.5l-0.1,0.1l-0.3-0.1l-0.3,0
		l-0.3,0.5l0,0.2l-0.1,0.1l-0.1,0.1l-0.1,0.1l-0.3,0.4l-0.1,0.2l-0.1,0.2l0,0l0.1,0l0.1,0.1l0,0.1l0,0.1l-0.2,0.2l0,0.1l0,0.2
		l0.2,0.4l0,0.2l0,0.2l-0.1,0.4v0.2l0.1,0.2l0.3,0.4l0.1,0.2l-0.1,0.2l-1.3,1.9l-0.2,0.5l-0.1,0.8l-0.1,0.1l-0.3,0.3l-0.1,0.1l0,0.2
		l-0.2,0.5l0,0.6l0,0.2l-0.6,1.1l0,0.2l-0.1,0.1l-0.4,0.4l-0.2,0.1l-0.1,0l-0.8,0l-0.3,0l-0.2-0.2l-0.1-1l-0.1-0.4l-0.3-0.3
		l-0.4-0.1l0.1,0.2l-0.1,0.2l-0.2,0.2l-0.1,0.3l0,0.3l0.1,0.2l0.2,0l0.2-0.1l-0.1,0.4l-0.3,0.2l-0.3,0l-0.3-0.1l0-0.8l0-0.2h-0.2
		l-0.1-0.1l-0.1-0.1v-0.2l-0.2,0.2l-0.1,0.4l-0.1,0.3l-0.3,0.1l-0.1-0.2l0-0.3l0-0.6l0.1-0.3l0.1-0.4l0.2-0.4l0.2-0.1l0.3,0.1h0.5
		l0.1,0.2l0.2-0.3l0.3,0.2l0.3,0.3l0.3,0.2l-0.5-1l-0.2-0.6l0.1-0.3l0.2-0.1l0-0.2l0-0.3l0.1-0.2l0.2-0.1l0.2,0l0.2,0.1l0.2,0l2,0
		l1-0.2l0.5-0.6l-1,0.5l-1.4,0.1l-1.4-0.2l-1.1-0.2l-1-0.5l-0.8-0.1l-2.8-1.1l-0.6-0.4l-1.3-0.2l-0.2-0.2l-0.1-0.2l-0.1-0.1
		l-0.3,0.2l-0.4,0.6h-0.1l-0.1,0.1l-0.7,0.8l-0.9,0.8l-0.1,0.2l-0.1,0.2l-0.3,0.2l-0.3,0.1l-0.2,0.1l-0.1,0.2l-0.1,0.5l-0.1,0.2
		l0,0.3l-0.3,0.3l-0.4,0.2l-0.8,0.2l-1.3,0.9l-0.2,0.1l-0.2,0.1l-0.2,0l-0.2,0.1l-0.3,0.4l-0.7,0.3l-0.2,0.4l0.1,0.4l0.4,0.2
		l0.1-0.1l0.3-0.3v0.2l0,0.2l0.1,0.2l0.1,0.2l-0.4,0.4l-0.1,0.2h-0.1v-0.2l-0.1-0.1l0-0.1l0.1-0.1l0-0.1l0-0.1l-0.1-0.1l-0.1,0
		l-0.1-0.1l-0.1,0l-0.2,0.2l-0.2,0.3l-0.2,0.2l-1.4,0.3l-0.5,0.2l-0.1,0v0.1l-0.1,0.2l-0.2,0.2h-0.1l-0.1,0.3l-0.1,0l-0.2,0
		l-0.2,0.1l-0.1,0l-0.2,0.1l-0.1,0.1l0,0.1l0.2,0.2v0.1l-0.2,0.2l-0.2,0.1l-0.3,0.1l-0.2,0l-0.2,0.1l-0.2,0.2l-0.1,0.2l0.1,0.1
		l0.3,0.1l0.1,0.2l0,0.2l0,0.2l0,0.1l-0.1,0.3l0,0.1l0.2,0l0.2,0l0.1,0.1l0.1,0.4l0,0.5l-0.1,0.5l-0.3,0.2l-0.3-0.2l0.1-0.4l0.2-0.4
		l0.1-0.4l-0.2,0.1l-0.6,0.7l-0.1,0.1l-0.3,0.1l-0.1,0.1l-0.1,0.2l-0.1,0.4l-0.1,0.2l0.2,0l0.1-0.1l0.1-0.1l0.1-0.2h0.1l0.2,0.6
		l0.1,0.1l0.2-0.1h0.1l0,0.5l0.1,0.6l0,0.5l-0.2,0.2l-0.8,0.5l-0.4,0.1l-0.2-0.4l-0.1,0.2l0,0.2l0,0.2l0.1,0.2l-0.5,0l-0.1,0.2
		l0.1,0.3l-0.1,0.2l-0.2,0.3l-0.1,0.3l-0.1,0.2l-0.3,0.1l-0.4,0.2l-0.6,0.4l-0.3,0.4l0.5,0.1l0.7-0.5l0.9-0.9l0.9-0.7l0.8,0
		l-0.1,0.2l0,0.2v0.2l0,0.2l-0.1,0.2l-0.1,0.1l-0.2,0.2l-0.2,0.5l-0.1,0.1l-0.1,0.1l-0.2,0l-0.1,0.1l-0.1,0.1l0,0.4l0.3,0.9l0,0.4
		L393,187l-0.1,0.3l-0.2,0.4l-0.3,0.9l-0.2,0.4l-0.1,0.4v1l-0.1,0.4l-0.8,1.3l-0.8,0.8l0.1,0.1l0.4-0.2l0.4-0.1l0.4,0l0.3,0.2
		l0.3-0.1l0.3,0.3l0.2,0.4l0.2,0.4l0.1,0.4l0,0.4l-0.1,1.8l-0.3,0.8l-0.5,0.7l-0.5,0.6l-0.1-0.1l-0.3,0.3l-0.3,0l-0.4-0.1l-0.5-0.1
		l-0.5,0.1l-0.4,0.2l-0.6,0.4l0-0.2l0-0.1l-0.1-0.1l-0.1-0.1l-0.2,0.1l-0.1,0l-0.1-0.1l-0.2-0.1l0.3-0.2l0.3-0.1l0.3,0l0.3,0.1v-0.3
		l-0.1-0.2l-0.1-0.1l-0.2,0l-0.5,0.2l-0.7,0.1l-0.7,0l-0.4-0.1h-0.1l-0.2,0.2l-0.6,0.6l-0.7,0.5l-0.6,0.4l-0.9,0.3l-0.2,0.1
		l-0.2,0.1l-0.2,0.3l-0.1,0.2l0,0.4v0.4l-0.1,0.2l-0.3,0.1l-0.1,0l-0.6,0.2l-0.1,0l-0.1,0.3l-0.3,1.7l-0.1,0.3l-0.2,0.3l-0.7,0.6
		l-0.4,0.5l-0.2,0.6l0.2,0.7l-0.2,0.2l-0.8,0.5l-0.2,0.3l-0.1,0.2l-0.2,0.1l-0.4,0l-0.5,0.3l-1.3,0.3l-0.2,0.2l0.1,0.3v0.1l-0.5,0.4
		l-1.1,0.7l-0.9,0.9l-0.3,0.2l-1.4,0.5l-0.4,0.1v0.2h0.1v0.1l-0.2,0.1l-0.1,0.2l0,0.2l0,0.2l-0.1,0.2l-0.3,0.2l-2,0.6l-0.5,0
		l-2.1,0.6l-0.3,0.4l-0.5,0.6l-0.3,0.5l0.2,0.2v-0.2l0.6,0.1l0.8,0.4l0.7,0.4l0.4,0.5l0.1,0.4l0.1,0.4l0.1,0.3l0.3,0.1l0.3,0.2
		l0.1,0.4v2.9l0.1,0.7l0.3,0.7l0.1,0.4l-0.2,0.7v0.5l0.1,0.5l0.1,0.3h0.1l-0.1-0.2l0-0.1l0-0.1l0.1-0.2l0.3,0.5l0,0.6l-0.1,1.3
		l0,0.2l-0.2,0.2l-0.1,0.2l0,0.2l0,0.1v0.1l-0.1,0.2l-0.1,0.2l-0.2,0.1l-0.3,0.1l-0.2,0l-1.3,0l-1.1-0.3l-0.6-0.7l0.4-1.2l-0.1,0h0
		l0,0l0-0.1l0.3-0.3l0.5,0l0.6,0.1l0.5,0.2l-0.1-0.3l-0.2-0.1l-0.2-0.1l-0.2-0.2l0.2,0l0.2,0l0.1,0.1l0.1,0.1l0-0.1l0-0.1l0,0
		l-0.2-0.2l-0.1-0.1l-0.2,0V227l0.7-0.3v-0.2l-0.2,0.1l-0.1,0.1h-0.1l0-0.3l0.1-0.2l0.1-0.2l0.1-0.2h-1.3l0,0.4l-0.5,0.1l-0.5-0.3
		l-0.1-0.7l0.1,0l0.2,0.1l0.1,0l0-0.3l0.2-0.3l-0.1-0.2l-0.3,0.3v-0.4l-0.3,0.2l-0.3-0.1l-0.1-0.4v-0.5l0.1,0.1l0.1,0.1h0.1v-0.3
		l-0.1-0.2h-0.2l-0.1,0.3l-0.3-0.1h-0.6l-0.3-0.1l-0.4-0.3l-1.7-2.8l-0.2-0.3l-0.3-0.2l-1.1-0.4l-1.4-0.9l-0.2-0.4l-0.2-0.8
		l-0.2-0.4l-0.2-0.3l-0.2-0.3l-0.3-0.3l-0.3-0.4l-0.2-0.8l-0.3-0.2l0,0.1l-0.1,0.1l0,0.1l0,0.1l0,0.3l-0.2,0.1l-0.3,0l-0.3,0.1
		l-0.3,0.2l0,0.2l0.1,0.2l0,0.4l-0.3,0.5l-0.8,0.9l-0.2,0.6v0.5l0.2,0.1l0.6-0.1l0.4,0.1l0.2,0.2l0.4,0.6l0.3,0.7l0.2,1.4l0.2,0.7
		l0.2,0.4l0.3,0.1l0.3,0l0.3,0.1l0.2,0.2l0.5,0.9l0.7,1.1l0.6,1.2l0.5,1.6l0,0.5l0.1,0.3l0.2,0.2l0.2,0.2l0.2,0.2l0.2,0.3l-0.1,0.1
		h-0.8l-0.6,0.1l-0.7,0.2l-0.6,0.3l-0.4,0.4l-0.5,1.2l-0.6,0.8l-0.1,0.3l0.3,0.6l0.4,0.4l0.1,0.4l-0.6,0.5l-2.9,1.8l-1,1l-0.5,0.4
		l-0.5,0l-0.2-0.2l-0.3-1.1l-0.2-0.3l-0.6-0.8l-0.1,0l-0.2-0.1l-0.1,0v-0.1l0.1-0.2v-0.1l-0.2-0.2l-1-0.9l-0.2-0.1l-0.5,0.3
		l-0.1,0.8l0.1,0.9l0.2,0.6l0.5,0.9l0.1,0.4l-0.2,0.5l-0.3,0.4l-0.4,0.2l-0.5,0.1l-0.5-0.1l-0.7,2.3l-0.9,2.7l0.2,0.1l0.3,0.5
		l0.2,0.2l0.3,0.1l-0.1,0.1l0.3,0.1l0.2,0.2l0.1,0.3l0.2,0.1l0.4,0l0.2,0.1l1.5,1.6l0.4,0.5h0.2v-0.2l-0.1-0.1l-0.1-0.1l-0.1-0.3
		h0.2l0.6,1.2l0.3,0.8l-0.2,0.4l-0.6,0.2l-0.2,0.6l0.1,1.4l0.2-0.1l0-0.2v-0.2l0.1-0.1l0.2-0.1l0.1,0.1l0.1,0.1l0.5,0.1l0.3,0.2
		l0.6,0.6l0.4,0.6l0.9,1.9l-0.1,0.2l0,0.3v0.5h0.1l0.2-0.1l0.1,0l0.2,0l0-0.1l-0.1-0.2l0.2-0.3l0.4-0.3l0.5-0.1l0.7,0.4l0.2,0.1
		l0.2,0.1l0.1,0.3l0,0.3l-0.1,0.4v0.2l0.2,0.1l0.1,0.1l0.1,0.1l0.1,0.2l0.7,0.6l0.1,0.3l0.1,0.5l-0.1,0.5l-0.3,0.3v0.4l-0.1,0.3
		l-0.3,0.5v0.1l0.3,0.1l0.2,0.2l0.1,0.3l-0.1,0.3l-0.1-0.1l-0.1,0l-0.1-0.1l0-0.1l-0.5,0.2l-0.1,0.2l0.4,0.5l0.1,0.2l0,0.3l0,0.4
		l-0.1,0.4l-0.3,0.8l-0.2,0.4l-0.2,0.1l-0.5-0.6l-0.8-0.6l-0.1,0.1l0.2,0.3l0,0.4l-0.1,0.7l0,0.8l0.1,0.3l0.2,0.4l1.3,1.6l0.5,0.8
		l0.3,0.9h0.1v-0.6h0.2l0.8,2.3l0,0.5l0.1,0.1l0.1,0.1l0.9,1.4l0.3,0.7l0.1,0.9l-0.1,0.2l-0.1,0.2l-0.1,0.2l-0.1,0.2l-0.2,0.2
		l-0.3,0.2l-0.2,0.2l-0.1,0.2l-0.1,0.1l-0.1,0l-0.1,0l-0.1,0l0,0.1l0,0.2l0,0.1l-0.1,0.2l0,0.2l-0.1,0.1l-0.1,0.1l-0.5,0.2l-0.3-0.1
		l-0.3-0.2l-0.4-0.1l-0.3,0.1l-0.2,0.1l-0.2,0.2l-0.3,0.2l-0.2,0.1l-0.5,0l-0.2,0.1l-0.3,0.3l-0.5,1l-0.2,0.2l-0.3,0l-0.2,0.1l0,0.2
		l0.2,0.2l0.1,0l0.2-0.1l0.2,0l0.3,0.2l0.1-0.2l0.1-0.1l0.2-0.1h0.3l0.3,0.1l0.2,0.2l0.1,0.2l0.2,0.2l0.1,0l0.3,0.1l0.1,0l0.1,0.1
		l0,0.1l0,0.1l0.1,0.6l0.1,0.2l0.2,0.1l-0.2,0.1l-0.1,0l-0.1-0.1l-0.1-0.1H355l0,0.3l0.1,0.2l0.2,0.1l0.3-0.1l0.1,0.8l0.1,0.4
		l0.2,0.2l0.1,0.2l0,0.5l0,0.4l0.3,0.2l-0.3,0.6l-0.2,0.7l-0.1,0.7l0.1,3.1l0.1,0.3l0.3,2.7l0.2,0.9l0.1,0l0.2-0.1l0.1,0l0.1,0.7
		l0.9,1.1l0.2,0.7H358l-0.2-0.3l-0.3-0.3l-0.4-0.3l-0.5-0.1l0.1,0.3l0,0.3l0.1,0.3l0.5,0.3l0.1,0.3l-0.1,0.3l-0.1,0.2l-0.2-0.1
		l-0.1-0.1l-0.1-0.2l-0.1-0.2l0,2.9l-0.2,1l-0.1,0.6l0.4-0.1v0.1l-0.5,0.2l-0.2,0.3l-0.2,0.9l-0.1,0.3l-0.6,0.8l0.8,1.3l0.3,0.4
		l0.3,0l1.8,0l-0.6,0.8l-0.3,0.3l-0.4,0.2L357,308l-0.1,0l-0.3-0.4l-0.2-0.1l-0.3,0.1l-0.2,0.1l-0.1,0.2l-0.1,0.3l-0.2,0l-0.3,0
		l-0.3,0.1l-0.3,0.2l-0.1,0.2l0,0.3l0,0.6l0.1,0.6l0.1,0.6l0.1,0.1l0.2,0.3l-0.5,0l-0.1,0.3l0.1,0.4l0.1,0.2l1.1,0.8l-0.1,0.3
		l0.1,0.3l0.3,0.2l0.3,0l0.1-0.2l0.1-0.6l0.1-0.1l0.2-0.2l0.1-0.5l0.1-0.6l-0.1-0.4l0.2,0l0.1,0l0.1,0l0.1,0.1l0.1-0.2l0,0v0
		l-0.1-0.1v-0.2l0.2-0.1l0.2,0l0.2,0l0.2,0.1l0.1-0.2l0-0.2l0-0.2l-0.1-0.2l0.3,0.2l0.2,0.3l0.3,0.2l0.3-0.1l0.1,0.2l0.1,0.1l0.1,0
		h0.2l-0.3,0.7l-0.6,0.6l-0.1,0.2l-0.1,0.3l0.7-0.1v0.1l-0.3,0.1l-1,0.2l0.2-0.2l0-0.2l-0.2-0.1l-0.3,0l-0.2,0.1l-0.1,0.2l-0.1,0.5
		l-0.1,0.2l0,0.2l0,0.2l0,0.2l0,0.1l0.1,0l0.3,0.2l0.4,0.2l0.1,0.1l-0.1,0.2l-0.3,0.2l0,0.2l0.8,0.4l1.5-0.3l1.2-0.7l-0.1-0.9
		l0.2,0.1l0.2,0h0.5l-0.1,0.1l-0.1,0v0.1l1.3-0.3v0.1l-0.3,0.3l-0.2,0.4l-0.3,0.3l-1,0.3l0.1,0.4l0.1,0.4l-0.3,0.3l0-0.2l0-0.1
		l-0.1-0.1l-0.2-0.1l-0.3,0.3l0,0.3l0.2,0.3l0.3,0.2l-0.1,0.3l-0.2,0.1l-0.3,0.1l-0.3,0l0.1,0.2l0.1,0.1l0.2,0h0.2l0.2,0l0.2,0.1
		l0,0.1l-0.1,0l-0.5,0l-0.3-0.1l-0.6-0.4l-0.1,0.3l0,0.4l0.1,0.3l0.3,0.1l0.9-0.2l0.4,0l-0.2,0.3l-0.3,0.1l-0.3,0.1l-0.1,0.1
		l0.1,0.3l0.2,0l0.3-0.1l0.3,0l0.3,0.1l-0.1,0.1l-0.3,0.1l-0.2,0.1l-0.2,0.2l-0.2,0.1l-0.2,0l-0.2-0.2l-0.2,0.6l-0.1,0.3l-0.4,0.4
		l-0.1,0.2l0.1,0.1l0.3,0.1l-0.6,0.2l-0.2,0l0.1-0.2v-0.1l-0.4,0l-0.4,0.1l0.1,0.2l0.1,0.1l-0.2,0l-0.1,0l-0.1,0l-0.1,0.1l0.1,0.1
		l0.2,0.1l0.1,0.1l-0.4,0l-0.3-0.1l-0.2,0l-0.1,0.3l0.3-0.1l0.4,0l0.3,0.1l-0.1,0.3l-0.2-0.1l-0.1,0l-0.1,0.1l-0.1,0.2l0.2,0
		l0.4,0.1l-0.1,0l-0.1,0.1l-0.1,0l0.2,0.1l0.1,0.1l0.1,0.1l0,0.2l-0.1-0.1l-0.2-0.2l-0.1-0.1l-0.4,0l-0.2,0.1h-0.1l-0.1-0.1v-0.2
		l0-0.1l0-0.1l0.1-0.1l-0.2,0l-0.2,0l0.2,0.4l-0.1,0.4l-0.2,0.4l-0.1,0.4l0,0.1l0.2,0.3l0,0.1l0,0.1l-0.1-0.1l-0.1-0.2l-0.1-0.2
		l-0.2,0.2l-0.1,0.3l0,0.3l0.2,0.3l0.7,0.8l0.1,0.2l-0.5-0.2l-0.3-0.3l-0.5-0.9l-0.4,0.4l-0.1,0l-0.3,0l-0.3,0.1l-0.2,0l-0.3,0.1
		l-0.2,0.2l-0.2,0.2l0.3,0.2l0.7,0.1l0.3,0.2l0.1,0.3l-0.1,0.3l-0.1,0.3l-0.2,0.2l-0.1,0l-0.5,0.1v0.1l-0.4,0.5l-0.2,0.1l-0.2-0.1
		l-0.1,0l-0.1,0.2l0,0.2l-0.1,0.2l-0.1,0.2l-0.5,0.2l0.1,0.3l0.2,0.3l0.1,0.3l-0.8,1.5l-1.5,0.3l-0.7,0l-0.7-0.3l0,0.3l0,0.3
		l-0.1,0.3l-0.1,0.2l-0.4,0.6l0,0.3l0.2-0.1l0.5-0.5l0.1,0.2l0.2,0.1l0.2,0l0.2-0.1l-0.1-0.1v0l0,0l0-0.2l0.1,0.2l0.2,0l0.2,0
		l0.1,0.1l0.1,0.2l-0.1,0.1l-0.1,0l-0.1,0.3l-0.1,0.1v0.1l0.1,0.1l0.3,0.1l0.1,0.1l0,0.2l0,0.1l-0.1,0.1l-0.2,0.2l-0.1,0.2l0,0.1
		l-0.1,0l-0.2-0.1l-0.2-0.2l-0.2-0.2l-0.2-0.2l-0.3,0l-0.3,0.2l-0.1,0.4l0,0.5l0.1,0.3l0.4-0.3l0.6-0.1l0.5,0.1l-0.1,0.5l-0.1-0.2
		l-0.1-0.1l-0.2-0.1l-0.2-0.1l-0.3,0.3l-0.3,0.1l-0.3,0l-0.3,0.2l-0.3,0.4l0.8,0.2l0.2,0.4H349l-0.1-0.1l-0.1-0.2l-0.1-0.1l-0.3,0.1
		l-0.4,0l-0.3-0.1l-0.2,0l-0.1,0.1l-0.2,0.1l-0.1,0.2l0.3,0.2h0.2l0.3-0.2l0.2,0l0.1,0.1l-0.1,0.1l-0.2,0.1l-0.1,0l-0.3,0.1
		l-0.3,0.2l-0.3,0.1l-0.4-0.1v0.2l0,0.1l0.1,0l0.2,0l-0.1,0.2l-0.1,0.2l0.1,0.1l0.2,0.1l-0.1,0.2l0,0.2l0.1,0.1l0.3,0v0.2h-0.4v0.1
		l0.3,0.1l0.3,0.3l0.2,0.4l0.1,0.3v0.4l-0.2,0.4l-0.4,0.3l-0.5,0.1l-0.2,0l-0.5,0.1l-0.3,0l-0.4-0.1l-0.2,0l-0.4-0.2l0-0.4l0.2-0.4
		l0.2-0.3l-0.4,0.1l-0.2-0.1l-0.2-0.2l-0.2-0.4l-0.1,0.2l0,0.2l0,0.2l0.1,0.2l-0.2,0.2l-0.4,0.2l-0.2,0.2l-0.1,0.2l0.2,0.2l0.3,0.1
		l0.1,0.2l-1,0.8l-0.3-0.1l-0.3-0.2l-0.3-0.2l-0.2-0.3l-0.1,0.1l-0.3,0l-0.1,0.1l-0.1,0.1l0,0.1l0,0.1l-0.1,0.1l0,0.1l0,0.1v0.2
		l0,0.1l-0.4,0.1l-0.3,0.2l-0.2,0l-0.3-0.1l-0.7-0.4l-0.2-0.1l-0.3-0.3l-0.1,0l0,0.3l-0.1,0.1l-0.2-0.2l-0.1-0.3l0-0.2l-0.4,0.2
		l-0.5,0.5l-0.5,0.5l-0.2,0.2l-0.2,0.3l-0.4,0.4l-0.4,0.2l-0.2-0.4l-0.2-0.2l-0.9-0.7l-0.3-0.2l-0.6,0.2l0,1.1l-0.4,0.3l-1-0.1
		l-0.2,0.1l-0.1,0.2l-0.3,0.9l-0.1-0.3l-0.1-0.4l0-0.4l0.1-0.3l-0.3,0.3l-0.2,0.6l-0.3,1.2H330v-0.3l-0.6,1.1l-0.2,0.6l0.2,0.4
		l-0.4,0.2l-0.3,0.3l-0.2,0.3l-0.2,0.3l-0.1,0.4l0.5,0.4l-0.3,0.3l0.2,0.2l0.2,0.1l0.2-0.1l0.2-0.2l0,0.4l-0.2,0.2l-0.1,0.3l0,0.4
		l0.2,0.4l0,0.2l-0.2,0.3l0.1,0.3l-0.2,0.6l0.1,0.1l0.3-0.1l0.2-0.3l0.2-0.3l0.2-0.1l0.2,0.1l0.2,0.2l0.2,0.2l0.1,0.2l0,0.3
		l-0.1,0.5l0,0.3l0.1,0.2l0.2,0.1l0.2,0l0.3,0.2h0.1l0,0l0.1,0.2v0.2l-0.1,0.1l-0.1,0.1l0,0.1l0,0.3l-0.1,0.3l-0.2,0.6l-0.4,0.6
		l-0.1,0.2l0,0.3l-0.1,0.2l-0.2,0h-0.3l0-0.1l-0.1-0.3l-0.1-0.3l-0.1-0.1l-0.1,0l0,0l-0.5-0.1l-0.7,0l-0.7,0l-0.4,0.1l-0.2-0.3
		l-0.4-0.2l-0.5-0.1l-1.2,0l-0.3,0.1l-0.3,0.2l-0.4,0.4l-0.6,0.4l-0.2,0.2l-0.4,0.2l-0.2,0.2l-0.1,0.2l0,0.2l-0.1,0.2l-0.2,0.3
		l-1.1,1.1l-0.2,0.4l0.1,0.4l0.2,0.3l0.3,0.2l0.3,0.1l1.5,0.1l0.3,0.1l0.1,0.1l0.4,0.2l0.1,0l0.3,0.2l0.1,0l0.3-0.1l0.1,0l0.2,0.3
		v0.4l0,0.4l0,0.3l0.2,0.2l0.3,0.2l0.3,0.2l0.1,0.4l-0.3,0.2l1.2,0.8l0.4,0.6l0.6,0.5l0.2,0.3l0.2,0.5l0.3,0.4l0.4,0.3l0.5,0.2
		l0.3-0.1l0.3-0.1l0.2,0.1l0,0.4l0.1,0.2l0.4,0.5l0.1,0.3l0.3-0.2l0.3,0l1.2,0.3l0.4,0.3l2,2.2l0.5,0.4l0.4,0.2l1.2,0.3l0.4,0.2
		l2.7,2l0.9,0.4l1.5,0.1l1.4,0.5h0.2l0.1-0.1l0.1,0l0.2,0.2l0.1,0.2l0,0.2l0.1,0.2l0.2,0.2l0.5,0.2l0.5,0.1h0.4l0.4-0.1l1.7-0.6h0.5
		l0.6,0.5l0.1,1.5l0.4,0.7l1.4,0.9l0.8,0.3l0.7-0.1l0.9,0.2l0.3,1l0.1,2.2l0.2,0.7l0.1,0.6l0.2,0.5l0.6,0.4l0.7,0.3l2.2,0.4l0.4,0.2
		l0.3,0.2l0.3,0.1l0.5,0l1-0.4l0.4-0.1l0.7,0.2l0.8,0.9l0.6,0.2l0.8,0l0.3,0l0.3,0.1l0.2,0.1l0.4,0.5l0.4,0.3l0.3,0.1l0.3,0l1.5-0.2
		l0.3,0l0.7,0.3l0.3,0l0-0.8l0.3-0.1l0.7,0.2l1,0.1l0.3,0.1l0.3,0.2l0.6,0.5l0.4,0.1l0.3,0l0.5-0.3l2.1-0.2l0.4-0.2l-0.2-1.4
		l0.1-1.6v-0.1l0.2,0l0.5,0l0.2,0l0.2-0.1l0.5-0.6l0.1-0.1l0.1-0.1l0.4-0.3l0.2-0.1l0.2,0.1l0.6,0.6l0.4,0.3l0.4,0.2l0.4,0.1l0.5,0
		l0.5,0l0.2,0l0.2,0.1l0.1,0.2l0.1,0.5l0.1,0.2l0.4,0l0.5-0.2l0.5-0.1l0.2,0.3l0.1,0.2l1.4,1.8l0.1,0.3l0.1,0.4l0.2,0.3l0.5,0.5
		l1.3,0.8l0.2,0.3l0.8,0.6l0.6,0.3l0.4,0.1l0.4,0.1l0.5,0l0.5,0l0.9-0.2l0.4,0l0.4,0.1l0.3,0.3l0.3,0.3l0.2,0.1l0.4,0.1l1,0.9
		l1.2,0.7l0.5,0.2l0.4,0.3l1.2,0.2l1.3,0.5l0.4,0.2l0.3-0.1l0.3-0.3l0.3-0.3l0.1-0.3l0.1-0.4l0.2-0.2l0.3-0.1l0.4,0l0.9,0.3l0.4,0.2
		l0.4,0.3l0.8,1.1l0.2,0.2l0.2,0.1h0.4l0.2,0.1l0.1,0.1l0.8,0.9l0.3,0.2l0.4,0.2l0.7,0.2l0.4,0.1l0.2,0l0.2-0.2l0.5-0.8l0.2,0
		l0.4,0.4l0.3,0.4l0.7,1.4l-0.6,0.4l-0.2,0.3l0.4,0.1l0.2,0l0.4,0.1l0.5,0.1l0.1,0.1l0.1,0.1l0.1,0.1l0.1,0.1l0.1,0.1l0.1,0.1l0.3,0
		l0.1,0l0.1-0.1l0.2-0.1l0.2,0l0.2,0.2l0.6,1l0.9,0.9l0.5,0.4l1.3,0.8l0.3,0.2l0.3,0.3l0.2,0.3l0.1,0.1l0.3,0l0.1,0.1l0,0.2l0,0.2
		l0,0.2l1,2.1l-0.1,0.2l-0.3,0.2l-0.1,0.2l0,0.4l0.1,0.3l0.7,0.8l0.1,0.1l0.2,0.1l0.4,0l0.2,0.1l-0.2,0.3l0.1,0.2l0.2,0.2l0.1,0.3
		l-0.1,0.2h-0.3l-0.3-0.1l-0.3,0l-0.1,0.2l0.1,0.2l0.5,0.4l0.2,0.3l0.3,0.9l0.5,0.6l0.6,0.3l1.2,0.2l1.3,0.5l0.6,0l0.3-0.6l0.2,0.2
		l0.5,1.4l0.1,0.2l0.2,0.1l0.3,0.1l0.1,0l0.1-0.1l0.2-0.1l0.1-0.1l0.1-0.1l0.1-0.1l0.2,0.2l0,0.2l-0.2,0.4l0,0.2l0.3,0.1l0.7-0.1
		l0.3,0.1l0.1,0.2l0.3,0.8l0.4,0.6l0.2,0.2l0.3,0.2l0.6,0.2l0.3,0.1h0.2l0.4-0.2l0.3-0.5l0.3-0.1l0.2,0.4l0.3,0.3l0.4,0.2l0.5,0.1
		l0.2,0.1l0.4,0.3l0.5,0.1l0.1,0.2l0,0.2l0.2,0.3l0,0.2l0,0.1l0.1,0l0.3,0l0.1,0l0.1,0.1l0,0.2l0,0.4l0,0.1l0.1,0.2l0.1,0.1l0.3,0.1
		l-0.1,0.2l-0.3,0.4l0.2,0.3l0.8,0.4l0.2,0.4l0.4,0.3l0.2,0.2l0,0.2v0.2l0,0.3l0.2,0.9l0,0.4l-0.5,0.3l-0.2,0.3L436,429l-0.1,0.8
		l0.4,0.5l1.4,0.8l0,0.1l0.1,0.3l0,0.1l0.1,0l0.2,0l0.3,0l0.2,0l0.3,0l0.3,0.2l0.5,0.5l0.2,0l0.2-0.2l0.3-0.3l0.3,0l0.7,0.2l0.1-0.1
		l0.1-0.5h0.2l0.6,0.6l0.2,0.2l0.2,0.1l0.2,0.1l0.1,0.2l-0.1,0.8l0.1,0.3l0.5,0.6l0.1,0.3l-0.1,0.2l-0.2,0.5l0,0.3l0.1,0.3l0.1,0.3
		l0.4,0.5l0.1,0.4l0.1,0.5l0.2,0.4l0.3,0.3l-0.6,1l-0.2,0.5l-0.8,0.7l-0.2,0.2l-0.1,0.1l0,0.2l0,0.2l0.2,0.3l0,0.1l0.1,0.1l0.3,0.2
		l0.1,0.1l0.1,0.6l0.1,0.2l0.3,0.2l0.9,0.2l0.2,0.2l0.1,0.4l0.3-0.3l0.3-0.5l0-0.2l1.4,0.8l0.1,0.1l0.3,0.3l0.4,1l0.2,0.4l0.2,0.1
		h0.2l0.9-0.2l0.3-0.1l0.2-0.2l0.6-0.2l0.5-0.3l0.4,0.1l0.5,0.4l0.1-0.3l0.1-0.2l0.2-0.2l0.3-0.1l0.1,0.2l0.1,0.2l0.1,0.2l0.1,0.5
		l0.1,0.1l0.3-0.1l0.3-0.2l0.6-1.1l0.3-0.3l0.4,0.1l0.4,0.2l1,0.8l0.4,0.1l2.1,0.3l0.2,0.2l0.1,0.2l0.3,0.3l0.4,0.2l0.4,0.1l0.5,0
		l0.8-0.2l0.5-0.1l0.2,0l0.1-0.2l0-0.4l0.1-0.1l0.5-0.1l0.2,0l1.4,0.3l0.3-0.1l0.9-1.1l0.6-0.5l0.6-0.2h0.7l1.3,0.2l0.4-0.1l0.3-0.3
		l0.1-0.5l0.2-0.2l1-0.8l0.8-1.1l0.1-0.2l0.2,0l1.2-0.8l0.5-0.2l0.2,0.1l0,0.7l0.2,0.3l0.4-0.1l0.7-0.4l0.5,0.1l0.4,0.2l0.4,0.3
		l0.4,0.2l1.2,0.3l0.2,0.2l0.1,0.4l0,0.9l0.1,0.3l0.3,0.2l0.2-0.2l0.2-0.8l0.3-0.3l0.2,0.1l0.4,0.6l0.5,0.6l0.1,0.2l-0.1,0.2
		l-0.3,0.3l-0.1,0.2l0.2,0.4l0.7-0.2l1.5-0.7l0.2,0.3l0.4-0.1l0.4-0.2l0.3-0.1l0.2,0.1l0.3,0.2l0.2,0.1l0.2,0l0.4-0.3l0.6-0.3l0.4-1
		l0.5-0.2l0.6-0.1l0.3,0l0.5,0.3l0.3,0.1l0.3,0l0.2-0.1l-0.2-0.5l0-0.5l0.2-0.3l0.6,0l0.9,0.4l0.5,0.1l0.4-0.2l0.6,0.4l1.1,1.2
		l0.7,0.5l0.8,0.3l0.4,0.1l0.5,0.1l0.1,0.1l0.1,0.2v0.6l0.1,0l0.7,0.5l0.1,0.2l0,0.2v0.3l0,0.3l0.1,0.1h0.9l0.1-0.1l0-0.2l0-0.2
		l0-0.2l0.4-0.2l0.3,0.2l0.3,0.3l0.3,0.2l0.3,0.1l0.4,0.1l0.4,0.2l0.3,0.2l0.1,0.2l0.1,0.2l0.1,0.2l0.2,0.1l0.2,0l0.5-0.2l0.2-0.1
		h0.4l0.4,0l0.3,0.2l-0.1,0.4l-0.1,0.1l-0.4,0.1l-0.1,0.1l0,0.2l0.1,0.2l0.1,0.2l0.1,0.1l0.5-0.1l0.4-0.2l0.4-0.1l0.5,0.2l0.3,0.4
		l0.3,0.9l0.2,0.4l0.4,0.1l0.3-0.2l0.3-0.1l0.4,0.3l0.1,0.2l0,0.2l0,0.2l0.2,0.1l0.2-0.1l0.1-0.2l0.1-0.2l0.1-0.2l0.4-0.3l0.2,0.2
		l0.3,0.9l0.1,0.3l0.2,0.3l0.2,0.2l0.1,0v0l-0.5,0.7l-1.6,2.5l-1.6,2.5l-1.6,2.5l-1.6,2.5l-1.6,2.5l-1.6,2.5l-1.6,2.5l-1.6,2.5
		l-0.7,1.1l0.9,0.1l2.8,1.5l0.2,0.2l1.1,0.3l0.6,0l0.5-0.2l0.8-0.7l0.4-0.3l0.6-0.1l0.8,0.3l0.8,0.6l0.7,0.7l0.5,0.7l0.3,0.7
		l0.1,0.7l0.2,0.7l0.6,0.6l2.1,1.1l0.6,0.5l0.4,0.5l0.4,0.5l0.6,1.2l0.4-0.7l0.6-3.3l0.6-3.3l0.6-3.3l0.6-3.4l0.6-3.3l0.6-3.3
		l0.6-3.3l0.6-3.3l0.6-3.3l0.6-3.3l0.6-3.3l0.6-3.3l0.6-3.3l0.6-3.3l0.6-3.3l0.6-3.3l0.2-1.3l0.3-1.1V426l0.4-1.4l0-1l0.3-1.9
		l-0.1-0.9l0.5-1.2l-0.2-0.6l-0.8-1.3l0-0.2l0.1-0.4l0.1-0.2l-0.1-0.8l0-0.1l-0.1-0.1l-0.1-0.1l-0.1,0l-0.2,0l-0.1-0.1l-0.5-0.7
		l-0.2-0.1l-0.5-0.2l-0.2-0.1l-0.1-0.3l0-0.2l0-0.2l0-0.2l-0.1-0.2l-0.1-0.1l-0.1-0.1l-0.1-0.1l-0.2-0.3l-0.1-0.2l0.1-0.5l-0.2-0.3
		l-0.8-0.9l-0.2-0.5l0.1-0.4l0.6-1l0.1-0.5l-0.1-0.2l-0.1-0.2l-0.1-0.2l-0.1-0.2l0-0.2l0-0.6l-0.1-0.5l-0.2-0.4l-0.3-0.4l-0.4-0.3
		l-0.4-0.2l-1.7-0.6l-0.3-0.3l-0.6-0.7l-0.2-0.2l-0.5-0.2L513,403l-0.2-0.2l-0.2-0.5l-0.1-0.2l-0.4-0.2l-0.8-0.2l-0.4-0.1l-0.2-0.2
		l-0.5-0.7l-1.1-1l-0.8-0.9l-0.2-0.4l-0.1-0.7l0-1l0-0.5l0-1.4l0.1-2l0.1-2.3l0.1-2.3l0.1-2l0.1-1.4l0-0.5l0-1.4l0.3,0.3l0.4-0.1
		l0.4-0.2l0.5,0l0.5,0.1l0.4-0.1l0.4-0.1l1.4-0.1l0.9-0.2l0.8-0.3l0.7-0.4l0.8-0.6l0.3,0l0.6,0.3l0.7,0.1l0.3-0.3l0.2-0.5l0.4-0.2
		l0.4-0.1l0.7-0.4l0.4-0.2l0.5-0.1l0.4,0.1l0.4,0.3l1.5,1.5l0.1,0.1l0.4-0.2l0.5-0.1l0.4,0l0.2,0.2l-0.1,0.6l0.4,0l0.8,0.1l0.3,0
		l0.2-0.1l0.2-0.3l0.2-0.1h0.2l0.4,0.1l0.2,0l0.4-0.1l0.1-0.3l-0.1-0.4l-0.2-0.5l-0.2-0.1l-0.5-0.2l-0.2-0.2l-0.1-0.3l0.1-0.2
		l0.2-0.2l0.1-0.2v-0.5l-0.2-0.9l0-0.4l0.1-0.1l0.2,0l0.2-0.1v-0.3l-0.1-0.2l-0.3-0.1l-0.5-0.2l-0.3-0.3l0.1-0.8l-0.5-0.3l-0.1-0.2
		l0-0.2l-0.1-0.2l-0.2-0.2l-0.4-0.2l-0.4-0.4l-0.3-0.2l-1-0.5l-0.3-0.1l-0.3,0.1l-1,0.7l-0.2,0l-0.4-0.2l-0.1-0.1l-0.1-0.1l-0.1-0.1
		l-0.2-0.1l-0.2,0l-0.7,0.1l-0.7,0l-0.2,0l-0.9-0.3l-0.5,0l-2,0.3l-0.2-0.1l0-0.5l-0.2-0.1l-0.3-0.1h-0.3l-0.5,0.1l-0.9,0.6
		l-0.5-0.1l0-1.2l0-1.4V369l0-1.4v-1.4l0-1.4l0-1.4v-1.4l0-1.4l-0.1-0.8h1l0.4-0.1l0.9-0.5l0.4-0.1h0.4l0.4,0.1l0.9-0.1l1.4-0.7
		l0.8-0.1l1.5,0.3l1.6,0.7l0.9,0.1h11.6l4.3,0h8.9l-0.4-0.2l-0.2-0.1l-0.1-0.1l0-0.3l-0.1-0.2l-0.2-0.1l-0.8,0l-0.1-0.4l0.1-0.5
		l-0.2-0.2l-0.5-0.1l-0.1-0.1l0.4-0.6l1.2-3.1l0.2-0.2l0.1,0.1l0,0.4l0,0.2l0.2,0.2l0.2,0.1l0.4,0.1l0.5,0.2l0.3,0.3l0.2,0.4
		l0.5,1.3l0.4,0.9l0.6,0.8l0.7,0.6l0.7,0.2l0.8,0l0.7-0.2l0.7-0.2l0.8-0.5l0.6-0.6l2.5-3.3l1.6-1.7l0.8-0.4l0.6-0.5l0.4-0.2l0.7-0.1
		l0.2-0.1l0.4-0.4l0.2-0.1l0.3,0l0.9,0.3l0.3,0.2l0.5,0.5l0.4,0.8l0.7,1.6l0.5,0.9l2.3,3l0.8,1.6l0.7,2.2l0.2,1.3l-0.5,6l0.1,1.1
		l0.2,0.5l0.4,0.1l1.8-0.5l1.4-0.4l0.8-0.2L574.4,368.9z"/>
</g>

</svg>
