<?xml version="1.0" encoding="utf-8"?>

<svg version="1.2" baseProfile="tiny" xmlns="http://www.w3.org/2000/svg" xmlns:xlink="http://www.w3.org/1999/xlink" x="0px"
	 y="0px" viewBox="227.6 116.4 384.8 361.2" xml:space="preserve">

<g id="Costa_Rica">
	<g>
		<polygon fill="#002B7F" points="495.3,171.1 495.1,170.3 495.2,169.6 495.8,169 494.3,169.9 493.2,170.9 492.8,171.2 495.3,171.2
					"/>
		<polygon fill="#002B7F" points="493.5,169.3 493.7,165.6 491.8,156.5 494.8,163.8 496.5,165.8 496.7,162.2 494.7,156.6
			491.8,151.3 489.5,148.7 489,148.7 488.6,148.6 488.2,148.6 487.8,148.7 487.2,148.5 486.3,149.1 486.5,149.7 486.4,150.2
			486.5,155.1 487.6,159.2 487.3,162.2 483.3,164.3 475.8,166 475.2,166.2 467.7,169 465.8,171.2 491.3,171.2 		"/>
		<polygon fill="#002B7F" points="449.6,167 449.1,165.1 447.9,164.2 446.3,164.5 445.7,165.2 445,165.8 443,165.4 440.2,167.2
			438.8,165.8 438.1,165.8 436.8,166.8 435.5,166.3 433.3,164.3 432,164.5 431.1,164.4 430.2,164.2 428.4,164.2 427.1,165.1
			426.5,164.3 424,162.4 423.8,162 423.3,161.5 423.1,160.8 423.6,160 424.1,159.6 425.6,158.8 425.2,156.1 424.2,155.3
			423.3,154.5 421.1,153.4 420.1,152.3 418.9,151.5 413.6,149.5 412.4,148.4 412.1,147.5 410.5,145.7 410,144.9 409.8,143.4
			409.8,142.3 409.6,141.4 408.5,140.9 408,141.2 407.5,141.5 401.4,145.4 400.3,145.9 399.1,145.7 397.9,145.3 397.4,145
			396.8,144.7 395.9,143.9 393.3,140.7 392.8,140.4 392.3,140.1 391.7,139.8 391.1,139.7 385.4,137.2 382.8,136.4 380.3,136.5
			378.3,136.2 374,133.2 372,132.3 368.4,133.1 348.3,146.2 345.6,147.2 343,146.9 322.7,139.5 308.4,134.3 295.5,129.6 277.3,123
			275.5,121.9 273.6,120.9 272,119.5 270.4,118.1 267.2,116.4 263.4,118 260.2,122.2 258.1,126.7 255.4,131.1 256.4,131.5
			257.8,132.5 259,134.1 259.3,135.8 258,137 255.7,137 254.5,136 253.5,135.4 251.8,137 251,137.6 250.4,137.7 250.4,138
			251.4,139 252.2,139.5 254.1,140.3 254.9,140.9 255.9,142.2 256.2,143.7 255.8,144.9 254.1,145.6 254.1,146.4 254.6,147
			254.8,147.8 254.4,148.5 253.7,148.7 252.8,148.5 251.8,147.5 251,147.2 248.7,147.1 246.3,147.4 245,148.2 246.3,149.5
			246.3,150.2 245.5,151.1 244.8,151.1 243.3,149.7 242.8,149.5 242.6,149.2 242.9,148.3 243,147.3 242.4,146.4 241,146.1
			235.4,146.4 235.4,147.2 236.4,147.4 236.9,147.6 237.3,148 237.7,148.7 235,149 230.2,151.2 227.6,151.8 227.6,152.7
			231.9,153.2 234.8,154.5 237.5,156 240.8,157.3 241.7,157.3 243.9,157.1 244.8,157.3 245.4,158.1 245.1,158.7 244.5,159
			243.9,158.8 244.8,159.8 248,162.4 248.6,162.4 250.4,161.2 254.1,161.8 257.9,163.5 259.6,165.5 260.1,171.2 455,171.2 		"/>
		<polygon fill="#002B7F" points="493,425.8 495.8,429.4 497.3,430.9 498.9,431.7 500.9,431.7 507.8,430.9 510.2,431.2 516.7,434
			516.7,432.4 517.7,433.3 518.6,433.8 520.7,434.8 519.2,434.6 518.8,434.4 518.3,434 517.6,434 519.4,435.6 523.4,437.5
			527.5,438.8 530.1,438.7 531.3,435.9 531.6,431.7 530.9,427.8 529.2,425.4 529.2,424.6 529.9,423.9 530.1,422.8 489.8,422.8 		"/>
		<polygon fill="#002B7F" points="547.1,423 547.8,424.3 551.5,428.9 552.2,430.7 551.4,432.5 550.2,434 549.5,435.2 548.9,435.5
			545.6,439.5 549.5,443.3 563.6,453.5 566.3,456.4 574.1,469.6 574.4,471 573.9,472.7 573,474.6 572.9,476.4 574.4,477.6
			574.4,477.6 575,475 575.6,469.9 569.6,456.9 569.1,453.3 568.3,452.1 566.3,451 565.3,450.9 563.9,451.4 563.2,451.4
			562.5,450.9 561.4,449.3 560.8,448.7 557.7,446.8 556.6,445.7 556.7,444.3 557.7,443.4 562.9,440.6 562.9,440.6 564.8,438.8
			568,435.8 571.2,434.1 574.4,433.1 577.4,431.7 577.4,431.7 579.9,428.6 581,425.3 581.2,422.8 547.1,422.8 		"/>
		<polygon fill="#002B7F" points="496.7,168.1 496.2,170.7 496,171.2 499,171.2 497.3,166.7 		"/>
		<polygon fill="#FFFFFF" points="487.9,361.5 488.7,360.8 490.6,362.8 491.1,363.8 494.1,371.6 493,372.6 492.2,373.4 491.6,374.3
			491.1,375.6 491.5,376 492.3,376.4 492.5,377 491.1,377.8 492.4,377.9 493,378.3 493.4,378.8 494.1,379.4 495.8,380.3
			496.6,380.9 497.3,381.7 495.9,381.7 494.9,381.4 492.6,380.2 492.9,382.2 494.3,383.3 495.8,384.1 496.5,385.2 495.9,386.5
			494.6,387.4 491.8,388.8 490.2,390.7 489.7,392.6 490.1,393.7 491.4,393.1 492.8,391.7 493.6,391 494.8,390.9 497.3,391.2
			497.3,391.9 494.5,392.6 491.4,394.3 489.7,396.3 491.1,398.1 490.3,398.9 487.6,403.1 486.8,403.9 486.4,403.2 485.9,402.9
			484.6,403.3 482.9,404.4 482.1,405.3 478.6,410.6 478.9,414.1 479.7,414.6 482,415.5 482.5,415.6 483.1,416.7 489.8,422.8
			530.1,422.8 530.1,422.7 530.1,419.9 528.7,420.8 527.2,419.5 525.7,417.7 524.2,416.8 522.5,416.6 518.2,415.3 516.7,414.6
			515.8,413.5 513.5,409.8 512.9,408 509,402.1 508.2,402.1 508.3,402.1 507.4,402.8 508,400.5 509.5,399.9 513.3,400.5
			514.8,400.2 515.3,399.5 515.4,398.7 515.9,398.1 517.1,398.1 517.9,398.6 518.4,398.7 519.1,397.4 521,398 523.4,398.5
			525,399.4 524.6,401.3 525.3,401.2 526.1,401.3 525.4,403.7 526.5,405.4 530.1,407.5 531.7,406.7 533.3,407.5 534.6,409.1
			535.4,410.6 537.2,410.2 539.6,410.5 541.6,410.4 542.5,409 543.3,409 544.1,410.4 545.5,411.8 547.1,413 548.7,413.7
			548.7,414.6 545.3,415.9 544.8,415.6 544.7,414.1 544.4,413.2 543.3,411.4 542.5,411.4 542.3,412 542.1,412.4 541.7,413
			544,417.4 544.8,418.4 546.4,419 549.8,418.8 551.1,419.2 549.3,420.3 547.9,420.7 547.1,421.3 547.1,422.8 581.2,422.8
			581.3,421.3 580.7,413.3 579.8,409.9 578.3,406.9 576.4,404.3 572.9,400.3 571.9,398.8 571.3,397.2 571.4,395.5 571.4,395.5
			572.3,394.5 575.7,392.4 576.8,391.2 576.8,391.2 576.8,389.7 575.9,389.1 575.4,388.6 576.5,387.1 576.5,387.1 577.8,386.2
			589.5,381.4 592.9,379.4 592.9,379.4 594.5,376.8 594.6,376.7 594.1,375.6 591.2,370.7 589.7,369.7 584.5,368 579.3,364.1
			576.7,363 576,362.6 575.5,361.9 575.2,361 574.8,360.2 574.6,360 574.5,359.9 572.2,359.9 570.6,360.6 569.6,361 569.5,359.9
			486.7,359.9 		"/>
		<polygon fill="#FFFFFF" points="495.8,172 495.3,171.2 492.8,171.2 492,171.7 490.2,172 491.3,171.2 465.8,171.2 465.3,171.7
			464.9,171.9 461.8,171.3 461,171.6 459.4,172.7 458.9,172.8 458.3,172.9 457.3,172.7 456.5,172.4 455,171.2 260.1,171.2
			260.2,173 259.9,176.8 258,178.3 258,179.2 258.7,179.2 258.7,179.9 257.5,180.2 257.4,180.6 257.1,181.5 257.5,181.3 257.7,181
			257.9,180.8 258,180.7 258.7,181.5 257.8,181.8 257,182.4 255.6,183.8 255.6,184.5 256.2,184.5 256.3,184.7 256.3,185
			256.4,185.4 261.1,180.7 262.5,181.7 263.2,182.5 263.4,183.4 260,186.9 258.6,186.8 258.2,186.7 257.1,188.5 256.5,189
			255.9,189.4 255.5,190.1 255.6,191.6 254.9,191.6 253.2,191.4 250.9,192.6 248.7,193.6 247.1,192.3 246.3,192.3 245.4,194.4
			244.5,195.2 243.2,195.5 243.2,196.3 244.8,196.3 244.8,197 244.2,197.2 243.9,197.3 243.2,197.8 244.4,199 246.1,201.1
			247.1,203.2 244.6,205 243.8,206.7 242.8,208 240.8,207.2 239.9,209.1 238.6,211 236.6,212.5 235.7,213.7 237.3,214.6
			239.7,217.6 239.9,218.6 239.3,219.7 237.7,221.2 238.4,222.6 238.9,224.6 239.3,227.8 241.9,234.1 307.4,234.1 307.1,229.4
			306.4,226.6 303.1,224.2 302.4,221.9 307.3,225.3 309.2,227.7 308.6,229.8 308.6,230.5 311.4,233.5 312.4,234.1 535.5,234.1
			517.9,211.3 509.7,197.8 502.8,181.7 499,171.2 496,171.2 		"/>
		<polygon fill="#CE1126" points="243.7,238.5 245.1,240.7 246,243.7 246.7,245 258.4,259.1 259.6,262 258.7,264.1 259.8,265.4
			260.5,265.4 261.4,264.9 262.6,264.8 263.5,265.3 264.1,265.8 264.8,266.2 267.9,266.7 274.3,268.8 274.4,268.5 274.9,268.2
			275.5,268 276.3,268.4 276.7,268.9 276.9,269.2 277.1,269.4 277.9,269.5 279.1,269.7 280.7,270.8 281.8,271.1 282.5,270.8
			284.1,269.7 285.2,269.5 297.5,273.8 301.2,275.9 303.9,278.9 304,279.6 304,280.7 304.2,281.6 307.1,282.7 308.1,283.4
			308.6,283.9 309.2,285.3 309.2,285.4 318.7,298.1 321.9,304.6 322.7,304.6 324.1,302.8 325.1,300.8 327.6,293 328.1,292.1
			330.8,290.8 331.3,290.2 331.9,290 335.6,288.2 335.8,287.8 334.1,285.6 333.6,284.7 334.4,283.2 336.3,283.3 339.9,285.1
			340.3,284.2 340.9,282.1 341.4,281.3 344.1,279.7 344.5,279.3 345.3,277.3 347,276.1 349.1,275.3 350.7,274.2 350.7,273.5
			346.6,273.6 344.6,273.4 342.9,272.6 344.3,271.2 345.2,270.6 346.1,270.3 344.6,268.9 343.2,267 343.1,265.4 345.4,264.8
			345.4,264.1 344.1,263 341.2,261.2 339.9,260.1 337.8,261 335.6,261 333.6,260.3 329.2,257.8 327.4,257.1 326.6,257.4
			325.7,256.9 318.8,254.1 316.2,251.8 314.1,250 314.1,249.3 314.9,249.6 315.9,249.9 316.9,250.1 317.9,250 317.7,249.2
			317.3,248.9 316.4,249.3 315.7,249.3 314.2,246.4 313,245.1 309.5,243.9 308.2,242.4 308,240.8 309.4,239.9 308.1,237.8
			307.4,234.7 307.4,234.1 241.9,234.1 		"/>
		<polygon fill="#CE1126" points="322.7,241.5 319.3,240.5 315.7,239.9 314.8,239.9 312.6,240.7 314.2,243.5 315.2,244.6
			317.2,245.4 319.1,245.6 321.1,245.5 322.8,245 324.2,244.5 324.2,243.8 323,243.9 322.1,243.6 321.4,243.1 320.3,242.8
			319.8,242.9 318.8,242.3 322.7,242.3 		"/>
		<polygon fill="#CE1126" points="313.3,234.7 315.3,235.2 323,235.1 325,234.4 326.5,235.8 327,236 327.5,236.3 327.5,236.3
			327.3,237.1 326.6,238.3 327.6,239.1 328.2,239 328.7,238.6 329.3,238.3 330,238.6 331.2,239.6 333.7,240.9 338.4,245.2
			340.3,246.2 339.7,246.7 340.7,247.7 342.2,248.7 342.9,248.9 343.4,249.5 346.9,252.3 349.6,253.8 352.5,254.7 355.7,255.3
			359.4,255.5 359.4,256.3 355.4,256.2 353.6,256.4 352.2,257 352.2,257.8 362.3,256.8 365.6,257.8 365,259.5 365.5,260.6
			368.3,262.9 366.7,265.5 366.4,267.2 368.3,268 369.6,269 374.2,275.7 375.9,277.5 376.8,278.7 377.2,280.1 376.8,281.7
			376,282.9 375.2,283.9 374.5,285.8 372.5,287.8 371.8,289 371.9,290.1 372.2,291.2 372.3,292.5 371.8,293.8 373.6,293.7
			373.9,294.4 373.8,295.6 374.2,296.8 375.4,297.5 376.7,298 377.7,298.8 378.1,300.4 378.9,302 383.1,304.7 385,306.2
			384.7,305.4 384.6,305.1 384.3,304.6 385.8,305 386.4,306.1 386.8,307.4 388.2,308.5 389.7,308.7 391.2,308.4 392.7,308
			394,307.7 396.9,308 412.1,312.2 415,312.4 418,313 422.7,315.8 425.6,316.3 424.1,315.2 423.5,314.9 422.5,314.7 422.5,313.9
			425.3,314.9 428.3,317.5 429.9,320.5 428.7,322.6 430.6,322.9 431.7,324 432.6,324.7 434.2,324 434.6,324.9 435.1,325.4
			435.8,325.4 436.5,324.9 437.2,324.9 448.2,329.2 449.6,330.2 458.3,334.3 467.3,342.7 469.8,343.4 473.3,345.1 475.8,347.6
			475.5,350.6 480,351.4 483,354.4 485.4,358.2 486.7,359.9 569.5,359.9 569.5,359.7 569,318.1 569.3,315.9 570.3,314.3
			570.3,314.3 572.4,313.5 578.4,312.7 580.1,311.8 580.1,311.8 580.3,310.8 579.8,310.5 579.1,310.3 578.6,309.6 577.8,306.5
			576.4,304.1 576.6,303 577.9,301.2 577.9,301.2 579.8,299.6 580,299.5 580,299.5 582.1,299.2 588.7,301.8 593.5,305.8
			594.5,306.2 595.5,305.8 596.6,307.1 598.1,309.8 599.3,311.2 600.4,311.7 602.4,312.3 604.5,312.7 606,312.4 606,312.4
			606.8,311 607.2,306.6 608,305.4 608,305.4 609.8,305.7 611.5,306.6 612.4,306.5 612.4,306.5 611.2,302.2 611.2,302.2 609.2,301
			606.4,296.8 604.2,295.6 601.7,295.4 599,295.5 596.3,295.2 588.7,292.6 586.9,291.3 585.9,289.2 585.2,284.6 584.6,282.8
			581.7,283.7 576.7,279.1 570.2,270.3 568.5,269.1 563.2,261.3 561.7,259.8 560.9,258.2 560.5,256.5 560.4,254.4 559.8,253.5
			556.8,253 555.8,252.3 553.1,253.8 548.6,249.4 541.3,240.7 539.6,239.3 535.5,234.1 312.4,234.1 		"/>
		<polygon fill="#CE1126" points="574,359.6 573,359.6 572.2,359.9 574.5,359.9 		"/>
	</g>

		<path fill="none" stroke="#878787" stroke-width="0.25" stroke-linecap="round" stroke-linejoin="round" stroke-miterlimit="10" d="
		M611.2,302.2L611.2,302.2l-1.9-1.2l-2.9-4.2l-2.2-1.2l-2.5-0.2l-2.7,0.1l-2.7-0.3l-7.6-2.6l-1.8-1.3l-1-2.1l-0.6-4.6l-0.6-1.8
		l-2.9,0.9l-4.9-4.6l-6.6-8.8l-1.7-1.2l-5.3-7.8l-1.5-1.5l-0.8-1.6l-0.4-1.8l-0.1-2.1l-0.6-0.9l-3-0.5l-1-0.6l-2.7,1.5l-4.5-4.4
		l-7.2-8.8l-1.7-1.3l-21.7-28.1l-8.2-13.5l-6.9-16.1l-5.5-15l-0.6,1.4l-0.5,2.6l-0.4,1.3l-0.4-0.9l-0.2-0.8l0.1-0.7l0.5-0.6
		l-1.5,0.9l-1.1,1l-1.2,0.8l-1.7,0.3l3.3-2.8l0.2-3.7l-1.9-9.1l3,7.3l1.7,2l0.3-3.6l-2.1-5.6l-2.9-5.3l-2.3-2.6l-0.5-0.1l-0.5-0.1
		l-0.4,0l-0.4,0l-0.7-0.1l-0.8,0.6l0.1,0.6l0,0.6l0.1,4.9l1,4l-0.3,3.1l-4,2l-7.4,1.8l-0.6,0.1l-7.5,2.8l-2.3,2.7l-0.4,0.3l-3.1-0.6
		l-0.8,0.3l-1.6,1.1l-0.6,0.1l-0.6,0.1l-1.1-0.2l-0.8-0.4l-6.9-5.3l-0.5-1.9l-1.3-0.8l-1.5,0.3l-0.7,0.7l-0.7,0.7l-1.9-0.5l-2.8,1.8
		l-1.4-1.3h-0.8l-1.3,1l-1.3-0.5l-2.1-2l-1.4,0.2l-0.9-0.1l-0.9-0.1l-1.8,0l-1.3,0.9l-0.6-0.8l-2.5-2l-0.3-0.4l-0.5-0.5l-0.2-0.6
		l0.5-0.9l0.5-0.3l1.6-0.8l-0.4-2.7l-1-0.8l-1-0.8l-2.2-1.1l-1-1.1l-1.2-0.8l-5.3-2l-1.2-1.1l-0.3-0.8l-1.5-1.9l-0.5-0.8l-0.2-1.4
		l0-1.1l-0.3-0.9l-1.1-0.5l-0.5,0.3l-0.5,0.3l-6.1,3.9l-1.1,0.4l-1.2-0.1l-1.2-0.5l-0.5-0.3l-0.5-0.3l-1-0.8l-2.6-3.2l-0.5-0.3
		l-0.5-0.3l-0.6-0.2l-0.6-0.2l-5.7-2.5l-2.6-0.8l-2.4,0.1l-2-0.3l-4.3-3.1l-2-0.9l-3.6,0.8l-20.2,13.1l-2.7,0.9l-2.6-0.3l-20.3-7.4
		l-14.4-5.2l-12.9-4.7l-18.2-6.6l-1.8-1l-1.8-1l-1.6-1.4l-1.6-1.4l-3.3-1.7l-3.8,1.6l-3.2,4.2l-2.1,4.5l-2.7,4.4l1,0.4l1.4,1
		l1.2,1.6l0.3,1.7L258,137l-2.3,0l-1.2-1.1l-1-0.5l-1.7,1.6l-0.8,0.6l-0.6,0.1v0.3l1,1l0.8,0.6l1.9,0.8l0.8,0.6l0.9,1.3l0.4,1.5
		l-0.5,1.3l-1.7,0.6v0.9l0.5,0.6l0.1,0.8l-0.3,0.6l-0.7,0.3l-0.9-0.2l-1-1l-0.8-0.4l-2.3-0.1l-2.4,0.4l-1.2,0.8l1.3,1.3v0.7
		l-0.8,0.8h-0.7l-1.5-1.3l-0.5-0.2l-0.2-0.4l0.3-0.8l0.1-1l-0.6-0.9l-1.4-0.3l-5.6,0.3v0.8l1,0.2l0.5,0.3l0.3,0.4l0.4,0.7L235,149
		l-4.8,2.2l-2.6,0.6v0.8l4.3,0.5l2.9,1.3l2.6,1.5l3.3,1.3l0.9,0l2.2-0.2l0.8,0.2l0.6,0.8l-0.3,0.6l-0.7,0.3l-0.5-0.2l0.9,1l3.1,2.6
		h0.7l1.7-1.1l3.8,0.6l3.8,1.7l1.7,2l0.6,7.5l-0.4,3.9l-1.9,1.5v0.8h0.8v0.7l-1.3,0.4l-0.1,0.3l-0.3,0.9l0.4-0.2l0.2-0.2l0.2-0.2
		l0.1-0.1l0.8,0.8l-1,0.3l-0.8,0.6l-1.3,1.4v0.7l0.6-0.1l0.1,0.2l0,0.3l0.1,0.4l4.7-4.7l1.5,1l0.6,0.7l0.3,0.9l-3.4,3.5l-1.4-0.1
		l-0.4-0.1l-1,1.8l-0.6,0.5l-0.6,0.4l-0.4,0.7l0.2,1.5h-0.7l-1.7-0.2l-2.3,1.3l-2.2,0.9l-1.6-1.3h-0.8l-1,2.2l-0.8,0.8l-1.3,0.2v0.8
		h1.6v0.8l-0.5,0.1l-0.3,0.2l-0.7,0.5l1.2,1.2l1.7,2.1l0.9,2l-2.4,1.8l-0.8,1.8l-1.1,1.2l-1.9-0.8l-0.9,1.9l-1.3,1.9l-2,1.5
		l-0.8,1.1l1.5,0.9l2.4,3.1l0.2,0.9l-0.6,1.1l-1.6,1.5l0.7,1.4l0.5,2l0.4,3.2l4.4,10.7l1.4,2.2l0.9,3.1l0.7,1.3l11.7,14.1l1.2,2.9
		l-0.8,2.1l1,1.3l0.8-0.1l0.8-0.5l1.3-0.1l0.9,0.4l0.6,0.5l0.7,0.4l3.1,0.5l6.4,2l0.1-0.2l0.4-0.4l0.7-0.2l0.8,0.4l0.4,0.5l0.2,0.3
		l0.3,0.2l0.7,0.1l1.2,0.3l1.5,1.1l1.1,0.3l0.7-0.3l1.6-1.1l1.1-0.2l12.2,4.3l3.8,2.1l2.7,3l0.1,0.8l0,1l0.2,0.9l2.9,1.2l1.1,0.7
		l0.5,0.5l0.6,1.4l0,0.1l9.5,12.7l3.2,6.5h0.8l1.4-1.8l1-2l2.5-7.8l0.5-0.9l2.7-1.4l0.4-0.6l0.6-0.2l3.7-1.8l0.3-0.4l-1.7-2.2
		l-0.5-0.9l0.8-1.5l1.9,0.2l3.6,1.7l0.5-0.9l0.6-2.1l0.5-0.8l2.7-1.5l0.4-0.5l0.7-2l1.8-1.2l2-0.9l1.6-1.1v-0.7l-4.1,0.1l-2-0.2
		l-1.7-0.7l1.4-1.4l0.9-0.6l0.9-0.3l-1.5-1.4l-1.4-1.9l-0.1-1.6l2.3-0.5v-0.7l-1.3-1.1l-2.9-1.8l-1.3-1.1l-2,0.9l-2.2-0.1l-2-0.6
		l-4.4-2.5l-1.8-0.7l-0.8,0.3l-0.9-0.5l-6.9-2.8l-2.6-2.3l-2.1-1.9v-0.7l0.8,0.4l1,0.3l1,0.1l1-0.1l-0.2-0.8l-0.4-0.3l-0.9,0.4h-0.7
		l-1.5-2.9l-1.2-1.3l-3.5-1.2l-1.3-1.5l-0.2-1.6l1.5-1l-1.3-2.1l-0.7-3.1l-0.3-5.3l-0.8-2.8l-3.3-2.4l-0.7-2.3l4.9,3.4l2,2.4
		l-0.7,2.1v0.7l2.8,3l1.8,1.3l2,0.5l7.7-0.1l2-0.7l1.5,1.3l0.4,0.2l0.5,0.3l0,0l-0.2,0.8l-0.7,1.2l1,0.8l0.6-0.1l0.5-0.4l0.6-0.3
		l0.7,0.2l1.2,1.1l2.5,1.2l4.7,4.3l1.9,1l-0.5,0.5l1,1.1l1.4,1l0.7,0.2l0.5,0.6l3.4,2.8l2.7,1.4l2.9,1l3.2,0.6l3.6,0.2v0.8l-3.9,0
		l-1.8,0.2l-1.4,0.5v0.9l10.1-1l3.3,1l-0.6,1.7l0.5,1.1l2.8,2.3l-1.6,2.6l-0.2,1.7l1.8,0.8l1.3,1l4.6,6.8l1.8,1.8l0.9,1.2l0.4,1.4
		l-0.4,1.6l-0.8,1.2l-0.8,1l-0.8,1.9l-2,1.9l-0.7,1.3l0,1l0.3,1.2l0.1,1.2l-0.5,1.3l1.8-0.1l0.3,0.8l-0.2,1.2l0.4,1.2l1.2,0.8
		l1.3,0.5l1,0.8l0.4,1.6l0.8,1.7l4.2,2.7l1.9,1.5l-0.3-0.8l-0.2-0.3l-0.3-0.5l1.6,0.4l0.5,1.1l0.4,1.3l1.3,1.1l1.5,0.2l1.5-0.3
		l1.5-0.5l1.4-0.2l2.9,0.2l15.2,4.2l2.9,0.2l3,0.6l4.7,2.7l3,0.5l-1.5-1.1l-0.7-0.3l-1-0.2v-0.8l2.8,1l3,2.6l1.6,3l-1.2,2.1l2,0.3
		l1.1,1.1l0.9,0.7l1.6-0.7l0.4,0.9l0.5,0.5l0.6,0l0.7-0.5h0.7l10.9,4.3l1.4,1.1l8.8,4l8.9,8.5l2.5,0.6l3.4,1.7l2.5,2.5l-0.3,2.9
		l4.5,0.8l3,3l2.3,3.8l2.6,3.3l0.8-0.8l1.9,2l0.6,1l3,7.8l-1.1,0.9l-0.8,0.8l-0.6,0.9l-0.5,1.3l0.4,0.4l0.8,0.5l0.2,0.6l-1.4,0.8
		l1.3,0.1l0.6,0.4l0.4,0.5l0.7,0.6l1.6,0.9l0.9,0.6l0.7,0.8l-1.4,0l-1.1-0.3l-2.2-1.1l0.3,2l1.3,1.1l1.5,0.8l0.7,1.2l-0.5,1.3
		l-1.3,0.9l-2.8,1.4l-1.6,1.9l-0.5,1.9l0.4,1.1l1.3-0.6l1.3-1.4l0.8-0.7l1.2-0.1l2.5,0.3v0.7l-2.8,0.7l-3.1,1.7l-1.7,2l1.4,1.8
		l-0.7,0.8l-2.8,4.2l-0.8,0.8l-0.4-0.7l-0.6-0.3l-1.2,0.5l-1.8,1.1l-0.8,0.9l-3.5,5.3l0.4,3.5l0.7,0.5l2.3,0.9l0.5,0.1l0.6,1
		l9.9,9.1l2.8,3.6l1.5,1.6l1.6,0.8h1.9l7-0.8l2.3,0.3l6.6,2.8v-1.6l0.9,0.8l0.9,0.6l2.2,1l-1.5-0.2l-0.4-0.2l-0.5-0.4h-0.7l1.9,1.5
		l3.9,1.9l4.2,1.3l2.6-0.1l1.3-2.8l0.3-4.1l-0.7-4l-1.7-2.3v-0.8l0.7-0.8l0.2-1.2l-0.1-2.8l-1.4,0.9l-1.4-1.2l-1.5-1.8l-1.6-0.9
		l-1.7-0.2l-4.3-1.3l-1.5-0.8l-0.9-1.1l-2.3-3.6l-0.5-1.8l-4-6h-0.7l0,0l-0.9,0.7l0.6-2.3l1.5-0.6l3.8,0.6l1.5-0.3l0.5-0.7l0.1-0.8
		l0.5-0.6l1.2,0l0.8,0.5l0.6,0.1l0.7-1.3l1.9,0.6l2.4,0.5l1.6,0.9l-0.5,1.9l0.8-0.1l0.8,0.1l-0.7,2.4l1.1,1.7l3.6,2.1l1.6-0.8
		l1.6,0.8l1.3,1.6l0.8,1.5l1.8-0.3l2.4,0.3l2.1-0.1l0.9-1.4h0.8l0.8,1.3l1.4,1.4l1.6,1.2l1.6,0.6v0.9l-3.4,1.3l-0.5-0.2l-0.1-1.5
		l-0.3-0.9l-1.1-1.8h-0.8l-0.2,0.6l-0.2,0.4l-0.4,0.6l2.3,4.4l0.8,0.9l1.6,0.6l3.3-0.2l1.3,0.4l-1.8,1.1l-1.4,0.4l-0.8,0.6l0.1,1.7
		l0.6,1.3l3.7,4.6l0.7,1.8l-0.8,1.7l-1.2,1.5l-0.6,1.2l-0.6,0.3l-3.3,4.1l3.9,3.8l14.1,10.2l2.7,2.9l7.8,13.2l0.3,1.4l-0.5,1.7
		l-0.9,1.9l-0.2,1.7l1.5,1.2l0,0l0.6-2.6l0.6-5.1l-6-13l-0.5-3.6l-0.8-1.2l-2-1l-1-0.1l-1.4,0.5l-0.7,0l-0.6-0.5l-1.1-1.6l-0.6-0.6
		l-3.2-1.9l-1-1.1l0.1-1.4l1-0.8l5.2-2.9l0,0l1.9-1.8l3.2-3l3.3-1.7l3.2-1l3-1.4l0,0l2.5-3.1l1.1-3.4l0.3-4l-0.7-7.9l-0.9-3.5
		l-1.4-2.9l-1.9-2.7l-3.6-4l-1-1.5l-0.6-1.6l0.1-1.7v0l0.9-1l3.4-2.1l1-1.2l0,0l0-1.5l-0.9-0.5l-0.5-0.5l1.1-1.5l0,0l1.3-0.9
		l11.7-4.8l3.4-2.1l0,0l1.6-2.5l0.1-0.1l-0.5-1.1l-2.9-4.9l-1.5-1l-5.2-1.7l-5.2-3.8l-2.6-1.1l-0.7-0.4l-0.5-0.7l-0.3-0.9l-0.4-0.9
		l-0.3-0.2l-0.5-0.4l-1,0l-2.4,1l-1,0.4l0-1.3l-0.5-41.6l0.3-2.2l1-1.6v0l2.1-0.7l6.1-0.8l1.7-1l0,0l0.2-0.9l-0.5-0.3l-0.7-0.2
		l-0.5-0.7l-0.8-3.1l-1.4-2.4l0.2-1.1l1.3-1.8l0,0l1.9-1.6l0.2-0.2l0,0l2.1-0.2l6.6,2.6l4.8,4l1.1,0.4l0.9-0.4l1.2,1.3l1.5,2.7
		l1.2,1.3l1.1,0.5l2,0.6l2.1,0.4l1.5-0.2l0,0l0.7-1.4l0.5-4.4l0.8-1.2l0,0l1.7,0.3l1.7,0.9l0.9-0.1h0L611.2,302.2z M322.7,241.5
		l-3.4-1l-3.6-0.6l-1,0.1l-2.2,0.7l1.6,2.9l1,1l2,0.8l1.9,0.2l1.9-0.2l1.7-0.4l1.4-0.5v-0.7l-1.2,0l-0.9-0.2l-0.6-0.5l-1.1-0.3
		l-0.5,0l-1.1-0.6h4V241.5z"/>
</g>

</svg>
