<?xml version="1.0" encoding="utf-8"?>

<svg version="1.2" baseProfile="tiny" xmlns="http://www.w3.org/2000/svg" xmlns:xlink="http://www.w3.org/1999/xlink" x="0px"
	 y="0px" viewBox="220 229 400 135.9" xml:space="preserve">

<g id="Cuba">
	<g>
		<polygon fill="none" points="416.9,253.5 417,253.5 417,253.5 417,253.5 		"/>
		<polygon fill="none" points="416.7,253.3 416.8,253.3 416.8,253.3 		"/>
		<polygon fill="#002A8F" points="426.9,315.7 427.4,316.1 428,316.3 428.6,316.2 429.1,316 427.7,314.5 426.8,313.9 425.6,314.1
			425.9,314.5 426.9,315.2 427.1,315 427.5,315 427.7,315.3 427.9,315.7 427.1,315.7 		"/>
		<polygon fill="#002A8F" points="449.7,315 449.8,315 450,315 450.1,315.2 450.4,315.4 450.6,315.3 450.7,315.6 450.8,315.8
			450.9,315.8 450.7,315.4 450.5,315.1 450.2,314.7 450,314.7 450,314.5 449.4,314.7 449.5,314.8 449.6,314.9 		"/>
		<polygon fill="#002A8F" points="381,236.8 380,236.1 381,234.1 381.3,233.9 381.3,233.6 380.9,233.4 380.4,233.3 379.9,233.4
			379.5,233.6 380.1,234.4 379.9,235.1 379.2,235.7 378.5,236.1 377.5,236.1 375.8,235.7 374.9,235.8 369.1,236.9 368.4,237.1
			381.2,237.1 		"/>
		<polygon fill="#002A8F" points="564.4,315.9 562.9,316.3 562.6,314.9 561.9,314.3 560.8,314.1 559.5,314.1 558.9,314.3
			558.5,314.3 558.4,314 558.3,313.9 557.7,313.6 557.5,313.6 555.6,314.9 555.8,315.3 555.6,315.5 555.3,315.4 555,314.7
			554.6,314.5 554.1,314.4 553.7,314.4 553.4,314.5 552.8,315 552.6,315.2 552.1,315.3 551.1,315.2 550.8,315.2 550.8,315.9
			550.6,316.2 550.3,316.1 550,315.4 550,315.6 549.8,315.8 549.8,316 549.5,316 549.5,315.5 549.4,315.1 549.1,314.9 548.8,314.6
			548.2,314.5 547.8,314.6 547.2,314.9 546.8,315.3 546.6,315.4 546.2,314.9 546.1,314.5 546.1,313.6 546,313.3 545.8,312.4
			544.6,311.6 540.7,310.1 540.2,309.7 539.2,308.9 538,308.5 537.5,308 536.6,307.8 532.1,307.6 531.5,307.8 531.2,308.4
			531.3,309 531.8,309.5 532.3,309.7 533.5,309.9 534,310.1 533.6,310.2 532.5,310.9 532.3,310.9 532.1,310.9 531.9,310.9
			531.8,311 531.7,311.2 531.5,311.4 531.2,311.6 531,311.7 530.7,311.6 530.3,310.9 530,310.6 529.6,310.6 529.2,310.8
			528.8,310.8 528.5,310.3 528.6,310.3 529,310.1 528.2,310.1 528.2,309.8 530.2,309.7 530.6,309.2 530.8,307.6 530.5,307.6
			530.5,308.4 530.3,308.4 529.8,307.8 529,307.3 528.1,307.1 527.5,307.1 526.7,307.4 526.7,307.6 527,308.2 527.2,308.5
			527.4,308.7 528.2,309 528.2,309.2 527.5,309.2 526.7,309 526.1,308.7 525.6,308.3 525,308.1 524.2,308 523.7,307.7 523.9,307.1
			523.9,306.7 524.2,306.7 524.6,307 524.4,307.6 526.5,306.7 527.1,306.5 527.4,306.3 527.2,305.7 526.6,305.2 526.1,304.9
			525.7,304.9 524.7,304.7 524.1,304.2 523.9,304.2 523.6,304.3 523.4,304.4 521.1,303.6 521.1,304 520.9,304.4 520.4,305.2
			520.6,305.2 520.5,305.7 520.4,306.2 520.2,306.6 519.9,306.8 520,305.8 518.1,306.8 517.6,305.9 517.7,305.3 518.1,304.9
			518.6,304.7 519.9,304.6 520.4,304.5 520.7,304.1 520.9,303.3 520.1,303.3 520.4,302.7 519.9,302.4 517.9,301.9 516.5,301.3
			515.9,300.8 515.3,300.3 511.3,295.4 510.7,295 510,295.2 509.7,295.5 508.7,297.3 508.3,299.4 507.9,300 507.6,300.1
			507.2,300.3 507.2,300.3 506.3,300.8 505.9,300.9 506.2,300.2 505.6,300.1 504.8,300.2 504.4,300.2 504.2,299.9 503.9,299.2
			503.7,298.5 503.8,298.2 504.4,297.9 504.7,297.2 504.5,296.6 503.8,296.3 502.7,296.3 502.4,296.3 502,296.1 501.7,295.8
			501.4,295.6 501,295.5 500.6,295.2 500.5,294.8 500.8,294.4 501.6,294.4 501.9,294.5 502.3,294.8 502.7,295 502.9,295.1
			503.1,295.2 503.1,295 503.2,295 503.3,294.9 503.4,294.7 503.4,294.6 504.1,294.7 504.7,294.9 507.1,296 507.3,296.1
			507.9,296.9 508.2,297.1 508.5,296.4 509.3,295.4 509.5,294.6 509.3,294.3 508.9,294 508.7,293.5 509,292.7 508.3,292.9
			507.8,292.9 507.2,292.7 506.7,292.5 504.5,290.8 504,290.6 502.8,289.6 502.3,289.1 501.7,288.7 499.8,288.1 499.1,287.7
			495.2,284.9 495,284.7 494.8,283.7 494.7,283.4 493.4,282.3 492.8,282.2 492.1,282.6 491.5,283.4 491.2,284 491.7,283.8
			492,283.8 492.4,284.5 493.8,285.7 494.8,286.9 495.3,287.2 495.8,286.8 496.3,287.3 496.9,287 497.3,287.3 497.5,287.8
			497.6,288.2 497.7,288.4 498.5,288.7 498.7,288.8 498.9,289.1 499.1,290 499.5,291.2 499.9,291.7 500.9,292.1 501.2,292.6
			501.5,293.1 501.5,293.3 501.4,293.4 501.3,293.6 501.1,293.7 500.7,293.8 500.5,293.8 499.6,293.3 498.5,293.2 498,293
			497.8,292.6 497.7,292 497.1,290.7 497.1,290 497.2,289.3 497.4,289.3 497.8,289.6 498.3,289.5 497.6,288.7 497.1,288.3
			496.6,288.1 496.6,288.2 496.7,288.5 496.8,288.7 496.4,288.8 496.1,288.7 495.8,288.5 495.8,288.1 494.8,288.4 494.5,288.6
			494.5,289.2 492.9,288.1 492.2,287.8 491.6,287.8 489.4,288.1 489,288 488.7,287.7 488.4,287.5 487.9,287.8 487.7,287.8
			486.6,287.4 486.1,287.2 485.8,286.8 485.7,286.4 485.6,285.9 485.4,285.2 485.2,284.6 484.8,284.3 483.9,284.3 483.5,284.2
			483.1,283.8 482.8,283.4 482.6,283 482.4,282.5 482.4,281.7 482.6,281.4 483.8,281.2 484.1,280.8 483.5,280.8 482.5,280.6
			482.1,280.8 481.9,281.2 481.7,284.1 481.5,284.5 481.1,284.6 480.8,284.3 480.2,283.2 480.1,282.8 478.4,281.1 477.9,280.8
			477.5,280.6 477.2,280.2 476.5,279.1 476.3,278.3 476.1,278.1 475.7,277.7 386.7,277.7 386.8,277.8 387,277.8 387.4,277.8
			387.6,277.8 387.7,278 387.8,278.2 387.8,278.4 387.8,278.6 391.9,282.9 393,283.9 394.9,284.5 396,285.4 397.6,285.8
			399.1,286.4 399.9,286.5 400.5,286.7 400.9,287.2 401.2,288 401.3,288.8 401.6,289.5 402.2,290.2 402.9,290.5 403.3,290
			403,289.9 402.7,289.7 402.4,289.5 402.5,289.2 402.9,289.1 403.3,289.2 404,289.5 404.9,289.6 405.6,289.6 406.2,289.4
			406.9,288.9 407,289.4 406.9,290 407,290.4 407.6,290.6 407.6,290.8 406.9,291.1 406.9,291.4 407.7,291.7 408.5,292.1
			409.1,292.2 409.4,291.5 409.8,290.9 410.8,290.9 413.2,291.6 415.9,291.6 416.3,291.8 416.6,292.2 416.8,292.6 417,293
			417.3,293.3 417.5,293.3 419.1,293.8 419.3,293.9 419.6,294.2 420,294.4 420.4,294.4 420.7,294.1 420.8,293.7 420.9,293.4
			421.2,293.7 421.8,294.6 422.2,295 422.5,295.2 423.3,295.5 424,295.5 426,295.2 426.5,295.3 427.2,295.9 427.8,296.3
			430.7,297.2 432.2,297.3 433.7,297.2 435.2,296.8 437.2,295.8 437.9,295.7 439.5,295.7 440.2,295.5 440.8,295.2 441.1,295.5
			441.4,295.3 441.9,295.3 442.3,295.4 443.4,295.5 443.7,295.5 443.8,295.3 443.9,295.1 444.1,294.9 444.3,294.7 444.5,294.6
			446.2,294.5 447.9,294.1 448.4,293.9 448.6,293.7 448.9,293.7 449.4,293.8 450.2,294.3 450.6,294.5 450.8,294.8 451.3,295.4
			451.5,295.8 451.3,296 450.3,296 449.8,295.9 449.4,295.7 449.2,296.2 449.3,296.5 449.8,296.7 451.8,297 452.3,297.2
			452.9,297.6 453.7,298.4 454.5,299.5 455,300.7 455.3,302.1 455.4,302.6 456.1,303.8 456.3,304.5 456.4,305.3 456.7,306.5
			456.8,307.2 457.1,307.5 458.3,307.9 458.5,308.3 458.4,308.9 458,309.1 457.6,309.1 457.3,308.7 457,309.8 457.4,310.9
			458,312.1 458.3,313.2 458.4,315.7 458.7,317.1 458.9,317.4 459.2,317.5 460.3,318.3 566.4,318.3 565.2,316.5 		"/>
		<polygon fill="#002A8F" points="385.9,234.2 386,234.5 386,234.6 386.5,234.4 387.1,234.2 387.4,233.9 388.4,233.8 388.7,233.8
			389,233.7 389,233.6 388.5,233.5 388.1,233.5 387.3,233.5 387,233.5 386.5,233.6 386.3,233.8 386.3,234.2 386,234.2 		"/>
		<polygon fill="#002A8F" points="366.8,237.1 366.6,236.2 366.5,235.6 366.5,235.4 366.3,235.5 366.1,235.5 364.5,235.2
			364.3,235.3 363.5,235.4 363.1,235.5 362.9,235.7 362.5,236.7 362.4,237 362.3,237.1 366.9,237.1 		"/>
		<polygon fill="#002A8F" points="357.1,235.1 355.4,234.7 355.4,234.4 355.9,234 358,232.7 359.6,232.3 360.7,231.9 361.2,231.4
			360.5,231.2 359.9,231.3 358.3,232.3 357.3,233 356,233.7 355.4,233.9 353.7,234.1 352.8,234.4 352.4,234.8 352,235 348.8,235.5
			348.5,235.5 348.2,235.6 347.9,235.9 347.8,236.3 347.6,237.1 358.8,237.1 		"/>
		<polygon fill="#002A8F" points="392.6,233.9 392.3,234 392,234 391.7,234.3 391.8,234.6 392,234.7 392.1,234.8 392.1,235
			392.3,235.1 392.8,235.4 393.1,235.5 393.3,235.8 393.5,236.1 393.7,236.2 393.9,236.2 394.1,236 394.2,235.7 394,235.5
			393.9,235.3 393.7,235 393.1,234.5 392.9,234.3 392.9,234 		"/>
		<polygon fill="#002A8F" points="382.3,232.5 382.9,232.4 383.7,232.6 384.3,232.9 384.7,232.9 385,232.7 385.3,232.5 385.5,232.4
			385.6,232.1 385.5,231.8 385.3,231.8 385,231.9 384.8,231.9 383.9,232 383.5,231.9 383.3,231.8 383,231.5 382.9,231.4
			382.3,231.4 381.9,231.6 381.7,231.9 381.5,232.5 382,232.2 382.1,232.3 		"/>
		<polygon fill="#002A8F" points="372,231.4 373,231.8 373.4,231.8 374.1,231.7 374.3,231.8 374.8,231.9 375.6,232.3 375.7,232.2
			375.9,231.9 376.1,231.9 376.4,232.1 376.6,232 376.7,231.8 376.6,231.6 374.3,231.4 373,231.1 372,230.7 371.3,230.6
			371.1,230.8 371.3,230.9 371.6,231.3 		"/>
		<polygon fill="#002A8F" points="377.1,232.3 377.4,232.1 377.8,232.2 378,232.2 378,231.9 378.2,231.8 378.3,231.9 378.4,231.6
			378.3,231.3 378.2,231.1 377.9,231.2 377.3,231.5 376.9,231.9 376.9,232.4 377,232.6 		"/>
		<polygon fill="#002A8F" points="397.7,236.6 398,236.3 398.1,236.2 397.9,236.1 397.3,236.1 396.8,235.9 396.3,235.6 395.9,235.2
			395.7,234.7 395.4,234.7 395.2,235.1 394.9,235.4 394.8,235.7 394.7,236.1 396.2,236.8 397,236.9 		"/>
		<polygon fill="#002A8F" points="346,236.9 346.2,236.2 346.3,235.3 346.2,234.5 345.4,234 344.8,233.5 344.5,233.3 344,233.3
			343.6,233.3 343.2,233.3 342.8,233 342.3,233.3 341.7,233.4 334.9,233.3 334.1,233.6 333,233.3 330.7,233.1 329.6,232.8
			328.2,231.8 327.8,231.6 327.4,231.7 327,231.9 326.6,231.9 325.8,232 324.3,232.4 323.5,232.5 320.9,231.9 319.7,232.4
			317.2,232.8 315.5,233.5 314,233.7 313.4,234.1 312.3,234.9 311.7,235.3 311.4,235.4 310.9,235.5 310.7,235.6 310.4,236.2
			310.2,236.3 309.4,236.6 308.4,237.1 345.9,237.1 		"/>
		<polygon fill="#002A8F" points="367.1,235.2 368.9,234.3 369.8,234 371,233.9 371.4,234 371.8,234.2 372.3,234.2 372.9,233.9
			373.2,233.5 373.2,233.3 373,233.1 372.6,232.5 372.4,232.5 372.4,233 371.8,232.5 371.6,232.2 371.4,232.5 371.5,232.7
			371.7,233.1 371.9,233.3 371.1,233.2 370.4,233.1 369.7,233.3 367.5,234.8 		"/>
		<polygon fill="#002A8F" points="385.6,277.8 385.6,277.7 385.3,277.7 		"/>
		<polygon fill="#002A8F" points="490,359 489.3,359.7 489.1,360 489.2,360.4 489,360.6 488.7,361 488.5,361.2 488.2,361.3
			487.7,361.4 487.4,361.5 487.4,361.8 486.7,363.1 486.7,363.8 486.9,364.3 487.3,364.6 487.8,364.9 488.3,364.9 489,364.9
			491.3,364.3 492.9,364.4 494.2,364.3 496.6,363.7 500,363.6 500.7,363.5 501.7,363.1 502.4,363.1 502.4,362.8 501.4,362.8
			501.9,362.1 502.9,361.9 504,361.9 504.9,362.2 505.2,361.8 505.5,361.7 505.9,361.7 506.2,362 506.4,362 506.9,361.6
			507.9,361.8 509.7,362.5 510.7,362.7 515.5,362.5 516.3,362.2 517.1,361.9 518.3,360.9 518.9,360.6 519.6,360.7 520.4,360.9
			521.3,360.9 522,360.5 526.8,360.1 531.5,360.4 532.3,360.2 533.9,359.7 534.7,359.6 537.4,359.6 538.8,359.4 540.5,358.9
			490.1,358.9 		"/>
		<polygon fill="#002A8F" points="583.1,358.9 582.8,359.1 582.7,359.6 583,359.8 584.3,359.7 584.3,362.3 585.3,361.9 585.8,361.5
			586,361.5 586.6,362 587.5,361.7 588.9,360.6 589.2,360.4 589.2,359.4 589.3,359 589.6,359 591.2,359 591.8,358.9 583.5,358.9
			"/>
		<polygon fill="#002A8F" points="551.6,360.1 552.2,360 552.7,359.7 553.4,359.5 554.8,359.3 555.6,359.4 557,359.8 557.7,359.9
			560.4,359.8 561.2,359.9 562.5,360.5 564,361.6 565.5,362.4 566.8,362.2 567.5,362.7 568.6,362.9 569.8,362.9 570.8,362.8
			571,362.7 571.3,362.3 571.5,362.2 571.7,362.3 572.1,362.5 573.3,362.8 573.7,362.8 577.4,362.6 579.2,362.1 579.4,360.6
			580.9,359.9 581.9,359.9 581.9,359.6 582,359.2 582.5,359 582.4,358.9 546.8,358.9 		"/>
		<polygon fill="#002A8F" points="480,277.7 480.3,278.2 480.6,278.8 481.1,279.1 481.7,278.9 482.1,278.3 482.4,278.3 482.6,279.2
			482.8,278.8 482.9,278.5 482.8,278.1 482.6,277.8 483.3,278 483.7,278.2 483.9,278.5 483.8,278.9 483.6,279.3 483.4,279.8
			483.5,280.1 484,280.5 484.8,280.9 485.6,281 486.1,280.8 486.6,281.1 486.8,281.5 487,281.9 487.5,282.5 487.6,282.7
			487.7,282.9 487.9,283 488.2,282.8 488.2,282.5 488,282.3 487.9,282.1 488.2,281.5 488.6,281.4 488.9,281.7 488.7,282.4
			489.5,281.8 489.9,281.6 490.5,281.6 490.1,281 489.9,280.6 490.7,278.8 490.8,278.3 490.8,277.8 490.7,277.7 480,277.7 		"/>
		<polygon fill="#002A8F" points="486.9,284.2 487,284.1 487.2,284 487.1,283.9 487.1,283.6 487,283.7 486.9,283.7 486.7,283.6
			486.6,283.4 486.5,283.3 486.1,283.4 486.2,283.7 		"/>
		<polygon fill="#002A8F" points="368.8,229.9 369.2,230.1 369.6,230.2 370,230.3 370.5,230.4 370.8,230 370.6,229.7 370.5,229.6
			370.2,229.6 369.2,229 368.4,229.1 368.1,229.3 368.4,229.5 368.6,229.6 		"/>
		<polygon fill="#002A8F" points="448.4,303.1 448.7,302.5 448.4,302.5 448.5,302.8 448.3,302.9 		"/>
		<polygon fill="#002A8F" points="399.7,236.9 399.7,237.1 400.4,237.1 400.1,236.8 		"/>
		<polygon fill="#002A8F" points="366.2,229.7 366.1,229.5 365.9,229.6 365.6,230.2 365.6,230.5 365.7,230.5 366.2,229.9 		"/>
		<polygon fill="#FFFFFF" points="408.8,243.4 408.6,243.9 408.6,244 409.1,243.9 409.2,243.8 409.2,243.5 409.1,243.3 		"/>
		<polygon fill="#FFFFFF" points="409.5,241.9 409.7,241.7 409.7,241.5 409.4,241 408.9,240.9 408.1,241.1 407.7,241.7 408.1,241.9
			408.4,242 408.3,242.2 408.1,242.4 408,242.6 408.2,243 408.6,243.2 409.1,243.2 409.3,242.9 409.3,242.6 409,242.6 408.8,242.4
			409.1,242.1 		"/>
		<polygon fill="#FFFFFF" points="412.6,244.6 412.9,245 413.6,245.5 413.9,245.6 414.1,245.5 414.2,245.6 414.3,245.7 414.3,246
			414.6,246.3 415.2,246.2 415.5,245.8 415.3,245.5 414.8,245.2 414.6,245 414.4,244.7 413.6,244.5 413.4,244.4 413.5,243.8
			413.2,243.3 413,243.5 413,243.8 413.1,244.1 412.6,244.2 		"/>
		<polygon fill="#FFFFFF" points="402.3,238.5 402,238.3 401.9,238.3 401.7,238.6 401.7,239.1 401.9,239.5 402.1,239.5 402.5,239.2
			403.1,238.4 403.1,238.2 402.6,237.8 402.4,237.7 402.2,237.9 402.1,238.1 402.2,238.2 402.4,238.1 402.5,238.1 402.4,238.4 		"/>
		<polygon fill="#FFFFFF" points="394.2,239.7 394.4,239.6 393.8,239.2 392.9,239.3 391.1,240.2 390.8,240 390.6,239.9 390.4,240
			390.1,240.2 390.7,240.6 394.4,241.3 394.4,240.9 394.3,240.6 394,240.3 393.7,240.2 393.9,240.1 		"/>
		<polygon fill="#FFFFFF" points="421.5,253.1 421.5,252.9 421.4,252.8 421.3,252.9 421.2,252.8 421.2,252.5 421.2,252.2 421.2,252
			421,252.1 420.9,252.1 420.9,252.3 420.9,252.4 420.8,252.4 420.6,252.7 420.5,252.8 420.5,253 420.5,253 420.6,253.2
			420.7,253.5 420.9,253.8 421.3,253.9 421.3,253.7 421.2,253.5 421.4,253.2 		"/>
		<polygon fill="#FFFFFF" points="404.4,240.3 404,240.3 403.9,240.4 404.1,240.5 404.2,240.9 404.3,241.4 404.5,241.4 404.6,241.3
			404.7,241.2 405,241.1 405.1,240.9 404.9,240.6 		"/>
		<polygon fill="#FFFFFF" points="404.9,242.5 405.2,242.3 405.6,241.8 406,241.7 406.7,242.2 407.1,241.8 407.2,241.2 406.9,241.3
			406.3,241 405.7,241 405.1,241.2 404.6,241.5 		"/>
		<polygon fill="#FFFFFF" points="479,268.9 479.4,269.3 479.4,269.5 479.6,269.4 480.2,268.8 480.3,268.6 480.2,268.6 479.9,268.7
			479.6,268.8 479.3,268.6 479.2,268.6 479,268.8 		"/>
		<polygon fill="#FFFFFF" points="479.6,266.1 479.7,266.3 480.2,266.7 480.3,266.8 480.3,267.2 480.5,267.3 480.7,267.3 480.8,267
			480.5,266.6 480.2,266.2 480,266.1 479.5,265.5 479.3,265.4 479.1,265.6 479.2,265.7 		"/>
		<polygon fill="#FFFFFF" points="474.2,272.3 473.9,272.1 473.6,271.9 473.5,271.7 473.4,271.7 473.4,271.8 473.6,272.1
			473.6,272.4 474,272.7 474.3,272.9 474.7,272.8 474.8,272.4 474.7,272.4 474.6,272.5 474.6,272.6 474.5,272.7 474.3,272.6
			474.4,272.5 		"/>
		<polygon fill="#FFFFFF" points="477.8,268.5 478.1,268.1 477.9,267.6 477.4,267.2 476.8,267 476.3,266.9 476.7,267.6 476.8,268.1
			476.8,269.5 476.7,270.2 476.3,270.8 475.9,271.3 475.3,271.6 475.6,272.2 476.8,273 477.1,273.6 477.3,273.8 478.6,274.6
			479.1,274.8 478.8,273.8 479.4,273.5 480.2,273.8 480.3,274.6 480.6,274.9 480.7,275.1 480.8,275.4 481,275.3 481.4,275.2
			481.6,275.1 482,275.5 482.6,274.8 483.4,273.2 483,272.9 482.2,272.8 481.8,272.6 481.6,272.4 481.3,272.2 481,271.9
			480.6,271.8 481.1,271.6 481.7,271.4 482.1,271.1 481.8,270.4 481.6,270.9 481.2,270.9 480.8,270.7 480.6,270.2 480.3,270.4
			480.2,270.5 480,270.8 479.8,271 480.3,271.3 479.8,271.3 479.5,271 479.3,270.6 479.1,270.2 478.7,270.1 477.7,270.2 477.4,270
			477.2,269.4 477.4,268.9 		"/>
		<polygon fill="#FFFFFF" points="452.4,255.6 451.7,255.1 451.1,255.1 450.9,255.1 451,255.3 451.2,255.4 451.3,255.5 451.2,255.7
			451.2,255.8 451.4,255.8 451.5,255.9 451.6,255.9 451.6,255.7 451.7,255.6 451.8,255.7 451.6,256.1 451.7,256.3 451.9,256.2
			451.9,256 451.8,255.9 452,255.9 452.3,256.3 452.6,256.3 452.7,256.4 452.6,256.6 452.9,256.8 453.1,256.7 453.1,256.4 		"/>
		<polygon fill="#FFFFFF" points="464.5,270.7 464.7,270.7 465.1,270.1 465.3,269.7 465.7,269.1 465.7,268.9 464.9,269 464.3,269.6
			464.2,269.9 464.3,270.2 464.7,270.2 464.8,270.4 464.7,270.6 		"/>
		<polygon fill="#FFFFFF" points="489.8,276.7 489.5,276.7 489.2,277 488.7,277.3 488.3,277.1 487.1,276.4 486.7,276.2 486.4,276.3
			485.9,276.6 485.5,276.7 485.4,276.6 485,276.1 484.9,275.9 484.5,275.7 484,275.5 483.5,275.5 482.9,275.6 482.5,275.9
			482.1,276.2 481.7,276.4 481.1,276.4 480.5,276.1 480,275.7 479.5,275.4 478.8,275.4 479.1,275.6 478.9,276.6 479.4,277.2
			480,277.7 490.7,277.7 490.5,277.3 		"/>
		<polygon fill="#FFFFFF" points="422.5,251.8 423.1,251.9 423.8,251.7 425,253.1 425.6,253.5 426.1,253.9 426.4,254 426.7,254.1
			427,254.2 427.9,254.9 427.6,254.2 427,253.3 426.2,252.5 424.7,252 423.3,250.8 421.6,250.3 420.8,249.6 418.9,247.5
			418.3,247.2 417.5,247.2 416.5,247.5 416.5,248.3 417,248.3 418.1,247.8 418.8,248.1 419.1,248.7 419.3,249.2 419.6,249.5
			419.8,249.6 420.4,250 420.5,250.2 420.6,250.6 420.7,250.8 421,250.9 421.8,251.5 		"/>
		<polygon fill="#FFFFFF" points="469.1,262.1 467.9,262.6 466.6,262.5 465.9,262.7 465.4,263.4 465.6,263.4 465.8,263.4 466,263.5
			466.1,263.7 467,263.1 467.8,263.5 468.4,264.3 468.4,265 468.1,264.9 467.9,265.2 467.9,265.7 468.2,266.1 468.5,266.2
			468.8,265.9 468.9,265.5 468.9,265.2 469.4,264.8 470.1,265.2 470.5,265.9 469.7,266.4 470.6,267.1 471.5,267.3 472.4,267.3
			473.2,267.5 475,268.6 475.9,268.9 476.5,268.3 476.1,268.2 475.6,268 475.3,268 474.5,267.1 474.3,266.7 474.2,265.4
			473.9,264.8 473.6,264.2 473.2,263.7 472.5,263 471.6,262.4 470.7,262.2 469.9,262.6 469.6,262.1 		"/>
		<polygon fill="#FFFFFF" points="399.7,237.4 399.6,237.6 399.5,237.6 399.5,237.7 399.6,237.9 399.8,238.1 400.1,238.1
			400.3,238.1 400.5,238.1 400.7,238.3 400.9,238.6 401,238.5 400.8,237.9 400.7,237.6 400.6,237.3 400.4,237.1 399.7,237.1 		"/>
		<polygon fill="#FFFFFF" points="440.6,259.3 441,259.1 441.2,259 441,258.5 440.7,258.5 440.4,258.7 440.4,259.1 440.6,259.1
			440.5,259.2 		"/>
		<polygon fill="#FFFFFF" points="431.6,254 431.9,254.1 432.1,254.4 432.1,254.6 432.3,254.6 432.9,254.2 433.4,253.8 432,253.9
			"/>
		<polygon fill="#FFFFFF" points="435,254.2 434.7,254.1 434.3,254.1 433.7,254.5 433.7,254.8 434,255 434.3,254.9 434.5,255
			434.5,255.3 434.6,255.3 434.8,255.1 434.8,255 435.1,255 435.1,254.9 435,254.7 435,254.6 434.9,254.5 434.9,254.4 		"/>
		<polygon fill="#FFFFFF" points="470.3,261.3 470,261.4 469.9,261.5 470.1,261.6 470.4,261.6 470.6,261.6 470.8,261.7 470.9,261.7
			471,261.2 471.1,261.1 471.2,260.8 471.4,260.8 471.6,261.3 471.7,261.9 472,262 472,261.7 471.8,261.2 471.4,260.7 470.9,260.4
			470.8,260.4 470.8,260.6 470.6,260.9 		"/>
		<polygon fill="#FFFFFF" points="433.6,257.9 433.5,257.6 433.3,258 434.2,258.3 434.7,258.1 434.6,258 434.4,257.8 434.4,257.6
			434.1,257.5 433.9,257.7 433.7,257.7 433.8,257.8 433.9,257.9 433.7,258 		"/>
		<polygon fill="#FFFFFF" points="448.9,258.8 449.6,258.6 449.7,258.4 450,257.9 450,257.7 449.7,257.5 449.6,257.6 449.6,257.9
			449.3,258 448.7,257.8 448.5,257.9 448.5,258.6 448.6,258.8 		"/>
		<polygon fill="#FFFFFF" points="441.4,253.2 440.8,252.9 437.4,252.6 436.7,252.7 437.2,253 437.6,253.2 439.8,253.3 440.3,253.5
			440.6,254.1 441.4,253.6 		"/>
		<polygon fill="#FFFFFF" points="464.4,258.4 463.9,257.9 463.2,257.4 462.3,257.2 461.5,257.1 460.8,257.4 460.3,257.9
			459.7,258.4 458.8,258.4 457.9,258.4 456.8,258.4 455.8,258.4 454.9,257.8 453.2,257.5 452.8,257.5 452.5,257.5 452.2,257.3
			451.8,257.4 451.7,258.2 451.3,258 451.2,257.9 451.3,259.3 451.9,259 452.7,258.4 453.2,259 452.7,259.5 453.3,259.9
			454.4,260.2 455.9,260.5 457,261.2 457.8,261.5 459.5,261.5 460.5,261.4 461.2,261.1 461.7,260.8 462,261 462.1,261.4
			462.1,261.8 461.9,261.8 461.7,261.8 461.4,261.7 461.3,261.9 461.3,262.2 461.2,262.4 461.1,262.4 461.1,262.6 461.1,262.8
			465.6,261.8 465.9,261.8 466.3,262 466.5,262 466.7,261.6 466.5,261.3 464,258.7 463.9,258.2 464.2,258.4 		"/>
		<polygon fill="#FFFFFF" points="445.4,260.1 445.5,260 445.6,260.1 445.8,260.4 446.1,260.5 446.3,260.3 446,259.8 445.8,259.4
			445.6,259.3 445.5,259.3 445,259.3 444.9,259.4 444.7,259.5 444.6,259.8 444.8,259.9 445.2,260 		"/>
		<polygon fill="#FFFFFF" points="484.1,271.4 485,272.4 485.9,272.4 485.4,271.7 484.7,271 484.1,270.4 483.7,268.7 483.1,267.7
			482.3,267 481.4,267.2 481.8,267.5 482.5,268 482.9,268.6 482.6,269.1 		"/>
		<path fill="#FFFFFF" d="M475.4,277.4l-0.5-1l-0.4-0.4l-0.5,0.2l-0.5-0.2l-0.5-0.1l-0.5-0.2l-0.4-0.4l0.1-0.1l0.1-0.1l-0.9,0
			l-0.3-0.1l-0.2-0.3l0-0.4l-0.1-0.4l-0.3-0.2l-1.8-0.1l-0.6-0.2l-1.3-0.5l-0.3,0l-0.4,0l-0.4,0l-0.3-0.2l-0.3-0.2l-0.7-0.3
			l-0.3-0.3l-0.3-0.3l-0.3-0.8l-0.2-0.4l-0.1,0.1l-0.4,0.2l0-0.3l0-0.6l0-0.3l-0.7,0.1l-2.2-0.4l-0.9-0.3l-0.6-0.3l-0.8-0.6
			l-0.7-0.6l-0.3-0.5l-0.5-0.4l-4-1.4l-1.2-1.2l-1.1-0.1v0.3l0.3,0.2l0.3,0.3l0.5,0.7l-0.6,1.3l-0.3,0.3l-0.4-0.5l-0.3,0.2l-0.1,0.1
			l-0.7-2.3l-0.2-0.4l-1.7,0.1l-5.7-0.6l-0.8,0l-0.7,0.2l-1.4,0.5l-0.8,0.1l-0.4-0.1l-0.6-0.4l-0.4-0.1l-0.5,0l-0.1,0.2l-0.1,0.3
			l-0.4,0.3l-0.7,0l-1.9-0.4l-0.4,0l-0.3,0.4l-0.7-0.2l-0.7-0.5l-0.4-0.4l-1,0.2l-1.1-0.5l-3.1-2.6l-0.2-0.5l-1-1.5l-0.4-0.1l-1.1,0
			l-0.5-0.1l-0.2-0.2l-0.9-1.1l-0.3-0.6l-0.5-1.2l-0.4-0.6l-0.4-0.4l-0.4-0.3l-0.5-0.2l-0.6-0.2l-0.9-4.1l-0.3-0.2l-0.8,0.1l0,0.1
			l-0.2,0.2l-0.2,0.2l-0.2,0.1l-0.2-0.1l-0.1-0.2l-0.1-0.2l-2.2-1.5l-0.7-0.2l-1.5-0.1l-0.4-0.1l-0.4-0.2l-0.2-0.3l-0.4-0.6l0.5-1.4
			l0.4-0.3l0.8,0.4l0.7-0.5l0.3-0.3v-0.3l-0.3-0.1l-2.3,0.6l-1.2,1.1l-0.8,0.2l0-0.1l0-0.2l-0.1-0.2l-0.3-0.1l-0.7,0l-0.2,0
			l-1.4-0.8l-0.1-0.3l-0.8-1.5l-0.1-0.4l-0.3-0.3l-0.4-0.3l-0.4-0.2l-0.1,1l-0.7,0.1l-0.9-0.3l-2-1l-0.6,0l0.3,0.9L395,243l-1.1,0.2
			l-1.2,0L392,243l-0.6-0.2l-0.6-0.3l-0.6-0.5l-0.5-0.1l-2.1,0l-0.7-0.2l-0.5-0.4l-0.4-0.5l-0.4-0.3l-0.6-0.2l-1.5-0.3l-0.6,0
			l-0.8-0.5l-1.2-2.2h-12.7l-0.1,0l-0.8,0.2l-0.6-0.2h-4.7l-0.5,0.6l-0.3,0.4l-0.3,0.2l-0.7,0l-1.3-0.7l-0.4-0.5h-11.2l0,0.1
			l-0.1,0.2l-0.6,0.2l-0.4,0.1l-0.4-0.1l-0.5-0.2l0-0.1l0.2-0.2l0.1-0.1h-37.5l-0.7,0.4l-0.8-0.1l-0.9,0.4l-3.4,0.4l-3.4-0.2
			l-0.8,0.3l-0.9,0.2l-1.3-0.2l-1.2,0l-0.5,0.9l-0.4,1l-0.8,0.5l-0.6-0.1l0.1-0.8l-0.3,0.4l-0.3,0.1l-0.2-0.1l-0.2-0.4l0.2-0.2
			l0.4-0.1l0.2-0.1l-0.2-0.4l-0.3-0.2l-0.3,0.1l-0.2,0.2l-0.2,0.1l-0.4-0.1l-0.5-0.3l-0.4-0.1l-0.2,0.1l-0.2,0.1l22.5,13l2.1,0
			l1.6,0.4l0.8,0.1l0.8-0.1l1.5-0.4l0.8-0.1l4.5,1l1.6,0.1l3.5-0.3l3-0.3l3.1,0.2l1.6,0.5l1.2,0.7l1.5,1.1l0.4,0.6l1.7,0.8l0.2,0
			l0.1,0.1l0.1,0.6l0,0.7l-0.2,1l-0.3,0.9l-0.4,0.4l-0.4,0.1l-0.3,0.3l-0.2,0.4l-0.2,0.2l-0.4,0.1h-0.7l-0.4,0.2l-0.4-0.1l-2.9,0.7
			l-0.7,0l-0.7-0.1l-0.6-0.3l-0.9,0.4l-2.6,0.1l16.3,9.4l0.2-0.2l0.3-0.1l0.4,0.1l0.7,0.5l0.4,0.1h1.8l1.4,0.6l0.7,2.4l1.4,0.8
			l0.4-0.1l0.1-0.2l0-0.3l0.3-0.2l0.3,0.1l0.3,0.2l0.3,0.1l0.4-0.2l0.2-0.3l0-0.7l0.1-0.3l0.2-0.2l1-0.4l0.3,0.3l0.5,1.1l0.2,1.3
			l-0.5,0.9l0.8,0.1l0.3-1.2l0-4.8l-0.5-1.7l0-0.5l0.2-0.4l0.4-0.1l0.5,0.1l0.5,0.3l1,1.5l0.2,0.1l-0.3,1.7l0,0.6l0.1,0.4l1,2
			l0.4,0.6l0.6,0.4l1.5,0.3l1.4,0.7l0.7,0.2l3.2,0.3l5.3-0.6l4.6,0.3l4.6-0.1l1.3,0.5h0.3l0.2-0.8l-0.2-1l-0.5-0.9l-0.5-0.7
			l-1.1-0.8l-0.4-0.5l0.2-0.9l0.5,0.2l0.6,0.1l0.5-0.1l0.3-0.4l0.3,0.5l0.3,0.3l0.9,0.5l-0.5,0.6l0,0.5l0.5,0.3l0.7,0l0,0.5l0.3,0
			l0.4-0.1l0.3,0.1l0,0.3l-0.2,0.3l-0.2,0.3l-0.2,0.3l0.2-0.1l0.6-0.1l-0.5,0.4l-0.6,0.2l-0.6,0l-0.5-0.1l0,0.5l0.1,0.3l0.3,0.3h89
			L475.4,277.4z M416.7,253.3L416.7,253.3L416.7,253.3L416.7,253.3z M417,253.5l-0.1,0L417,253.5L417,253.5L417,253.5z"/>
		<polygon fill="#FFFFFF" points="439.3,324.7 440.2,324.9 440.3,325 440.4,325.3 440.6,325.1 440.9,324.5 441,323.9 440.3,323.7
			439.5,323.6 439,323.4 438.8,323.1 438.2,323 437.5,322.9 437,323 437.4,323.4 		"/>
		<polygon fill="#FFFFFF" points="453.2,327.9 453,328 452.8,328.1 452.7,328.2 452.5,328.2 452.4,328.4 452.5,328.5 453,329.5
			453.2,329.5 453.3,329.4 453.3,329.3 453.2,329.2 453.2,329 453.4,328.5 453.4,328.2 453.3,328.1 453.1,328.3 453.1,328.3
			453.2,328 		"/>
		<polygon fill="#FFFFFF" points="453.6,332.6 453.6,332.4 453.1,332.2 452.8,332.1 452.7,332.2 452.7,332.4 453,332.6 		"/>
		<polygon fill="#FFFFFF" points="442.7,326.5 442.7,326 442.6,325.6 442.5,325.3 442.1,325.3 441.7,325.6 441.3,326.3 442.1,327.1
			444.7,327.4 445.4,327.9 445.6,327.9 445.2,326.8 444.5,326.5 		"/>
		<polygon fill="#FFFFFF" points="437.2,322.2 436.3,321 434.9,319.6 433.2,318.6 431.7,318.7 431.9,319.1 432.2,319.4 432.5,319.6
			433,319.8 432.9,319.6 432.8,319.5 432.8,319.4 432.7,319.3 432.7,319 433.5,319.1 434.4,319.9 435.2,320.9 435.7,321.7
			435.3,321.3 434.8,320.7 434.4,320.3 433.7,320 433.7,320.3 435,321.8 435.7,322.5 436.7,323 436.6,322.4 436.5,322.2
			437.1,322.2 		"/>
		<polygon fill="#FFFFFF" points="446.4,328.7 446.8,329.3 447.6,330 448.5,330.3 449.2,329.7 447.9,328.8 447.1,328.5 		"/>
		<polygon fill="#FFFFFF" points="462.4,332.9 462.6,333.1 463,333 463.2,332.7 462.9,332.7 462.8,332.5 462.7,332.1 462.6,332.1
			462.4,332.4 462.4,332.6 462.6,332.7 462.4,332.8 		"/>
		<polygon fill="#FFFFFF" points="461.5,334.7 460.9,334.3 460.3,334.2 459.8,334.6 461.1,335.2 461.8,335.7 462.3,336.8 462.8,337
			463.3,337.2 463.7,337.4 464.4,337.9 464.8,337.8 464.9,337.2 464.6,336.5 464.2,336 463.8,335.7 463.5,335.9 463.4,336.5
			462.7,336.2 462.4,335.9 461.9,335.1 		"/>
		<polygon fill="#FFFFFF" points="458.7,329.1 458.8,328.6 458.8,328.5 458.6,328.4 458.4,328 458.2,327.7 458.2,328 458.3,328.4
			"/>
		<polygon fill="#FFFFFF" points="454.4,332.3 454.2,332.4 454.3,332.6 454.5,332.7 454.7,332.9 455,333 455.3,333 455.5,332.8
			455.5,332.4 455.4,332.3 455.4,332.4 455.4,332.4 455.5,332.6 454.6,332.4 		"/>
		<polygon fill="#FFFFFF" points="459.7,329.5 459.3,329.7 459.3,329.6 459.2,329.6 459.1,329.5 458.5,330 457.2,330.3 456.8,330.6
			457.4,330.8 458,331.1 458.6,330.7 460.3,330.3 460.8,329.7 460.1,329.5 		"/>
		<polygon fill="#FFFFFF" points="454,326 454,325.7 454,325.5 453.7,325.2 453.6,325.2 453.5,325.2 453.4,325.3 453.6,325.8
			453.8,326 		"/>
		<polygon fill="#FFFFFF" points="481,336.4 481.1,336.4 481.4,336.1 481.4,335.8 480.9,335.6 480.5,335.7 480.6,335.8 480.9,335.9
					"/>
		<polygon fill="#FFFFFF" points="591.4,331.8 591.6,331.8 591.5,331.2 590.8,331 591,331.3 591.5,331.6 591.4,331.7 		"/>
		<polygon fill="#FFFFFF" points="473.6,331.5 473.5,331.4 473,331.5 473,331.6 473.1,331.9 473.3,331.9 		"/>
		<polygon fill="#FFFFFF" points="569.1,327.4 568.8,327.1 568.3,327 566.5,327.3 566.5,328 566.9,328.5 567.5,328.8 568.1,328.9
			569.4,329.3 570.1,329.3 569.9,328.8 569.6,328.4 		"/>
		<polygon fill="#FFFFFF" points="460.6,318.5 461.1,319 461.6,320 462,320.6 462.5,320.9 463.8,320.8 464.3,320.9 466.9,322.8
			467.2,323.4 467.3,323.7 467.5,324.1 467.9,324.7 468,324.9 468,325.3 468.2,325.5 468.6,325.3 469.1,325.3 469.9,325.7
			470.6,326.4 471,326.8 471.6,328.1 472.1,328.5 472.9,328.7 473.3,328.9 474.5,330.3 474.8,329.7 475,329.7 475.4,330.6
			476.7,330.9 479.1,330.8 479.7,330.6 480.1,330.1 480.7,329.7 481.5,329.5 482.8,329.6 483.5,329.8 484.5,330.5 485.1,330.7
			487,330.8 487.4,330.8 487.6,330.7 487.8,330.9 488.5,331.1 488.8,331.1 489.9,331 490.2,331.1 490.5,331.2 491,331.6
			491.3,331.6 492.7,330.8 494.6,331.5 495.3,331.6 495.7,331.6 495.9,331.6 496.2,331.5 496.6,331.4 496.8,331.3 497,331.2
			497.2,331.1 497.6,331.4 498,330.8 499,330.4 500.2,330.1 501.2,330 502.3,330.4 503,331.3 503.6,332.2 504.4,333 504.6,332.2
			505.4,332.4 506.7,333.3 506.7,333.5 505.9,334.6 505.7,334.7 505.3,334.8 505,335 504.9,335.3 505.1,336.1 505.4,336.5
			506,336.8 506.7,337.3 506.9,337 506.7,336.6 507.1,336.6 508.4,337.1 509.4,337.8 509.7,338.1 510.9,340 510.4,341.4
			510.1,341.6 509.9,341.9 509.7,343.8 508.2,344.7 507.9,345 507.9,345.6 507.6,346.2 507.2,346.7 506.7,347 506.2,347.1
			505.7,347.1 505.5,346.9 505.7,346.4 505.4,346.4 505.3,346.4 505.2,346.4 504.7,346.9 504.1,348.3 503.5,348.6 502.8,348.7
			499.1,350.4 498.4,351 497.8,351.8 496.2,352.7 495.6,353.1 494.9,354.1 494.8,354.4 494.6,354.5 493.9,354.7 493.6,355.1
			492.6,354.8 492.2,354.7 492.2,355 492.7,355.5 492.7,355.8 491,357.4 490.9,357.7 490.8,357.9 490.1,358.9 540.5,358.9
			541.7,358.6 543.4,358.5 546.8,358.9 546.8,358.9 582.4,358.9 582.3,358.4 582.2,358.2 582.1,358.4 582,358.5 581.9,358.7
			581.7,358.8 581.5,358.5 581.3,358.1 581.4,357.7 581.7,357.4 582.2,357.4 582.6,357.6 583.2,358.2 583.3,357.5 583.5,356.8
			583.9,356.2 584.5,355.8 584.5,356.8 584.7,357.6 584.7,358.2 584,358.8 583.6,358.9 583.5,358.9 591.8,358.9 592,358.8
			592.7,358.3 593.2,357.7 593.9,357.2 594.8,356.7 595.8,356.5 600.3,356.2 604.2,356.1 606.4,355.6 608,355.5 610.3,355
			612.1,355.1 613.6,355.5 615,355.5 616.1,354.5 616.4,353.1 616.5,352.9 616.8,352.8 617.5,352.4 618.1,351.8 618.8,351.5
			619.6,351.1 620,350.2 619.9,349.4 619.7,348.7 619.4,348.1 619,347.5 617.7,346.7 617,346 616.6,345.8 616.1,345.6 615.4,345.7
			614.7,346 614,346.4 613.4,346.7 612.7,346.6 611.9,346.4 611.1,346.4 610.6,347 610.3,347 610,346.2 609.2,345.4 608.2,344.8
			607.4,344.5 606.9,344.5 606.6,344.3 604.8,342.4 604.6,342.1 604.4,342 603.2,340.3 602.8,339.5 602.5,339.2 600.8,338.1
			600.1,337.5 600,337 598.6,336.6 598.2,336.2 597.9,336.1 597.8,336.1 597.7,336 597.7,335.5 597.1,334.6 597.3,334.5
			597.7,334.3 597.1,333.9 596.3,333.7 593.4,333.3 592.7,332.9 592.2,332.3 591.6,331.9 590.7,332 590.1,332 589.8,331.8
			589.7,331.4 589.4,331.3 589,331.2 588.7,331 587.9,330.7 585,331.1 585.5,331.6 585.2,331.8 584.9,331.8 584.6,331.6
			584.2,331.4 584.2,331.6 584,332 584,332.2 583.6,331.3 583,331.3 582.4,331.4 581.9,331.1 581.8,331.2 581.8,331.2 581.8,331.3
			581.7,331.4 580.7,331.1 580.7,330.8 581.3,330.7 581.2,330.4 580.7,330.1 579,329.8 578.4,329.7 578.7,330 578,329.8 577,329.8
			576.1,330.1 575.6,330.6 576.4,330.8 577.8,331.5 578.4,331.9 576.3,332.1 575.4,331.9 575.1,331.1 574.9,331.5 574.9,331.6
			574.6,331.6 574.4,331.1 574.1,330.6 575,330.4 574.7,330 574,329.5 573.3,329.2 572.6,329.1 571.6,329.2 570.7,329.4 570.3,330
			570.7,330 571,330 571.6,330.3 571.3,331.1 571,330.9 570.7,330.7 570.5,330.5 570.3,330.3 570.1,330.3 569.5,331 567.3,330.5
			567.5,331.4 566.7,331.1 566.3,330.8 566.4,330.4 566.5,330 566.2,329.9 565.2,330 565.5,329.3 565.4,328.7 565.1,328.1
			564.5,327.6 564.1,328.4 562.3,329.9 561.9,330.7 561.7,331.1 561.1,330.9 559.7,330.1 559.2,329.3 558.9,328.9 559.1,328.5
			559.2,328.1 559.2,327.6 559.2,327.3 559.5,326.4 559.6,325.9 559.4,325.4 561.8,325.7 562.5,325.4 564.6,325.1 564.7,325.2
			565,325.4 565.1,325.7 565.2,325.9 565.3,326.2 565.6,326.3 566.1,326.5 566.7,326.9 567.2,326.9 567.5,326 567,326 566.7,325.7
			566.5,325.3 566.5,324.8 566.3,324.6 564.7,323.8 563.9,323.7 562.8,323.7 561.8,324 561.4,324.7 561.2,324.7 560.9,324
			560.4,323.3 560.4,322.8 561.4,322.8 561.4,322.5 561.2,322.3 561,322.2 560.7,322.2 560.9,322 561.1,322 561.4,322 561.7,322.2
			562.1,321.9 562.4,322.3 562.5,322.9 562.7,323.3 563.3,323.3 563.9,322.9 564.4,322.4 564.7,322 564.8,321.7 564.9,321.1
			565,320.9 565.1,320.7 565.5,320.3 565.7,320 566.5,318.4 566.4,318.3 460.3,318.3 		"/>
		<polygon fill="#CF142B" points="285.2,288.4 285.2,288.1 285,287.5 284.8,287 284.8,286.9 284.6,286.6 284.4,286.4 284.4,286.5
			284.4,287 285,288.2 		"/>
		<polygon fill="#CF142B" points="352,278.5 352.5,278.4 352.8,278.3 353,278.4 353.1,278.6 353.2,278.7 354.6,278.2 354.5,278.1
			354.3,278 354.1,278.1 353.9,278.2 353.8,278.2 353.6,278.1 353.4,278 353.2,277.7 353.2,277.5 353.2,277.3 353,276.8
			352.8,276.9 352.9,277.2 352.8,277.3 352.6,277.2 352.6,277.1 352.4,277.1 352.5,277.4 352.6,277.8 352.5,278.1 352.1,278.2
			351.7,278.3 351.5,278.1 351.3,277.7 351.3,277.8 351,277.8 350.3,277.2 350.1,277 350.1,276.7 349.9,276.6 349.7,276.6
			349.6,276.7 349.3,276.4 349.2,276.6 349.3,276.8 349.7,277 351.6,278.5 		"/>
		<polygon fill="#CF142B" points="335.5,284.4 335.8,284.4 335.8,284.3 335.2,284.2 335.1,284.4 335,284.5 334.9,284.6 335,284.6
			"/>
		<polygon fill="#CF142B" points="279.1,281.5 279.1,281.5 279.1,281.5 		"/>
		<polygon fill="#CF142B" points="313.2,297.1 313.5,296.9 313.6,296.7 313.5,296.6 313.3,296.4 313.2,296.3 313,296.3 312.3,296.2
			312,296.2 311.9,296.4 312.1,296.6 312.4,296.7 		"/>
		<polygon fill="#CF142B" points="347.6,294.5 350.6,292.6 352.1,291.2 352.2,291.1 352.4,291 352.3,290.7 352,290.6 351.7,290.7
			350.6,291.4 350,291.9 349.8,292.6 349.6,292.9 349.2,293.2 348.7,293.4 348.2,293.1 347.8,293 347.4,293.5 347.1,294.1
			346.7,294.4 345.6,294.2 345.3,294.4 345.3,295.2 346.5,295 		"/>
		<polygon fill="#CF142B" points="305.4,283.3 305.5,283.4 305.8,283.6 305.9,283.6 305.6,283.3 		"/>
		<polygon fill="#CF142B" points="308.5,289.4 308.4,289.4 308.3,289.3 308,289 307.7,288.9 307.7,288.9 307.9,289.1 308.1,289.5
			308.1,289.8 308,290 308.1,290.1 308.2,290.1 308.3,290.3 308.3,290.5 307.9,290.7 308.5,290.8 308.8,290.7 309,290.5
			309.2,290.6 309.3,290.8 309.4,290.8 309.7,290.9 309.6,290.5 309.4,289.9 309.2,290 309,289.9 308.8,289.6 308.7,289.6
			308.5,289.7 308.4,289.9 308.4,289.9 308.4,289.7 308.4,289.5 		"/>
		<polygon fill="#CF142B" points="305.1,281.2 304.3,281.4 304.7,282.1 305.7,282.6 306.7,282.5 307.1,282.3 306.5,281.9 		"/>
		<polygon fill="#CF142B" points="294.2,295.4 294.2,295.6 293.6,296.8 293.3,296.5 293.7,296 293.6,295.8 288.5,299.6 289.1,300.4
			289.5,300.6 290.8,300.6 291.2,300.7 292,301 292.3,301.1 294.7,301.2 295.1,301.5 295.5,301.7 298.1,301.4 301,300.4 305.7,298
			306.4,297.9 307,297.6 307.9,296.9 308.7,296.1 309,295.5 308.6,295.2 308.1,294.8 307.8,294.3 308,293.8 308,293.5 307.5,293.5
			307.1,293.3 306.2,292.7 306.4,292.4 306.5,292.1 306.4,291.7 306.2,291.4 306.5,291.4 306.9,290.6 307.1,290.2 307.1,289.9
			306.9,289.5 306.7,289 306.5,288.6 306.1,288.4 305.6,288.4 304,287.1 303.4,286.4 303.4,286 303.6,285.5 303.7,284.7
			303.5,284.1 303,283.7 302.4,283.4 300.3,282.8 297.3,282.1 292.4,281.5 292.1,281.7 291.9,281.8 291.9,281.9 292.3,282.1
			292.8,282.1 293.2,282.2 293.6,282.4 293,282.5 292.1,283 291.4,283.5 291,283.9 290.8,284.4 289.3,285.7 288.9,287.4
			289.2,288.6 303.6,288.6 		"/>
		<polygon fill="#CF142B" points="332.5,294 331.9,294.1 331.5,293.7 331.4,293.6 331.5,294.1 332,294.7 332.6,294.7 333.8,293.7
			334.4,293.3 335,292.9 335,292.7 334.5,292.8 334.2,292.8 333.1,293.3 333,293.4 333.1,293.4 333,293.6 		"/>
		<polygon fill="#CF142B" points="326.3,296.4 326.4,296.2 326.6,296.1 326.8,296 327.9,295.5 329.4,294.9 330,294.4 330,293.7
			329.7,293.4 329.6,293.4 329.6,293.6 329.5,293.9 329.1,294.2 328.7,294.4 328.3,294.4 327.2,294.8 327,295 326.7,295.3
			326.4,295.5 326,295.7 325.2,296.3 324.8,296.4 324.9,296.6 325.7,296.5 		"/>
		<polygon fill="#CF142B" points="306.7,284.4 306.9,284.5 307.2,284.2 307.2,283.9 306.9,283.6 306.5,283.5 306.3,283.5
			306.3,283.6 306.4,283.7 306.6,283.9 306.8,283.9 307,283.9 306.9,284.1 		"/>
		<polygon fill="#CF142B" points="317.2,296 317,296 316.8,296.1 316.6,296.5 316.6,296.6 317,296.4 317.8,296.4 318.4,296.2
			318.7,296 318.6,295.9 318.5,295.8 318.4,295.7 318.4,295.7 318.6,295.6 318.6,295.5 318.4,295.6 318,295.7 317.9,295.9
			317.9,296 317.6,295.9 		"/>
		<polygon fill="#CF142B" points="269.9,280.6 269.5,280.8 270.1,281 270.2,281 270.3,280.6 		"/>
		<polygon fill="#CF142B" points="303.9,256.1 303.6,255.7 303.5,255.9 303.2,256.2 303.5,256.7 303.9,256.4 		"/>
		<polygon fill="#CF142B" points="325.4,262.4 324.5,262 324.2,262.4 323.6,262.7 323.1,263 323,263.7 323.3,264.4 323.9,264.7
			324.6,264.7 325.1,264.7 325.2,264.9 325.6,265.6 325.8,265.9 326.1,266 326.8,266 327.1,266.2 327.7,266.7 328.2,267
			333.5,269.1 334.1,269.8 334.3,270.4 334.6,270.9 335.5,271.9 336,272.1 337.8,272.4 338.2,272.4 338.1,272.1 338,272
			337.9,271.8 338.6,271.9 338.8,271.8 338.9,271.3 339.2,271.3 339.7,271.5 340.5,271.6 341.4,271.6 341.7,271.4 341.9,271
			342.4,271 342.8,271.2 343,271.3 344.5,271.8 344.7,271.9 344.8,272.3 344.9,272.4 345.1,272.3 345.2,272.2 345.3,272.1
			345.4,272.1 345.8,271.9 346.1,271.6 329.8,262.2 		"/>
		<polygon fill="#CF142B" points="289.3,239.2 289,239.3 287.5,239.6 286.7,240 286.1,240.4 286.1,241 286.7,241.5 286.5,241.8
			286.2,242.2 285.8,242.4 285.3,242.2 285.1,241.7 285,241.2 285.1,240.7 285.5,240.4 285.5,240.2 285,239.7 284.4,239.5
			283.7,239.6 282.9,239.9 281,241.1 280.5,241.3 279.9,241.6 279.2,242.4 278.6,243.2 278.4,243.9 278.1,244.2 277.5,244.6
			277.1,244.7 277.4,244.3 276.7,244 276.3,243.7 275.9,243.5 275.3,243.7 275,244.2 274.7,244.8 274.3,245.2 273.5,245.1
			273.7,244.9 273.7,244.8 273.8,244.5 272.3,244.6 272,244.7 271.6,245.9 271.4,246.2 269.6,246.3 268.8,246.5 268,247 268.2,247
			268.2,247.1 268.2,247.1 268.2,247.3 268.5,247.1 268.8,247 268.8,247.3 268.5,247.4 268,247.8 267.7,247.8 267.3,247.8
			266.8,247.6 266.4,247.5 265.8,247.6 264.5,248.1 262,249.4 261.4,249.5 259.8,249.6 259.2,250 258.9,250.8 258.4,250.3
			256.1,251.9 255.7,252.1 255.2,252.2 254.8,252 254.6,251.5 254.2,251 253.6,250.8 253.3,250.9 253,251.1 252.7,251.4
			252.5,251.7 253.1,251.6 253.6,251.7 254,252 254.3,252.5 253.9,252.8 253.5,253.3 253.1,253.5 252.7,253.2 252.2,253
			251.9,253.4 251.8,254.1 251.8,254.5 251.6,254.7 250.6,254.8 250.3,254.9 250.1,255.3 249.7,256.8 249.4,256.3 249,256.1
			248.5,256.2 248,256.6 247.6,256.4 247.2,256.3 247.2,256.6 247.6,257.1 247.5,257.9 247,258.8 246.6,259.4 245.9,259.8
			244.3,260.1 243.6,260.6 244.4,260.6 244.4,260.9 243.7,261.3 243.2,262 242.4,263.1 242.3,263.3 242.2,263.8 242,264.1
			241.8,264.2 241.4,264.2 241.2,264.3 240.7,265.3 240.6,265.4 240.1,267.2 239.9,268 239.9,269 239.7,269.6 239.4,270.3 239,271
			238.6,271.3 239.2,271.4 239.5,272 239.8,272.6 240.1,273.2 240.5,273.5 241.2,273.9 242,274.2 242.7,274.3 242.5,274.5
			242.1,275.4 242.9,275.7 243,276.2 242.9,276.8 243.2,277.5 243.7,278 244.1,277.6 244.5,276.9 244.9,276.4 244.4,278.6
			243.8,278.5 242.8,279.3 242.7,279 242.4,278.6 241.9,278.1 241.3,277.7 240.8,277.5 239.7,277.8 238.8,278.3 238,278.6
			236.8,278.1 237,277.7 236.7,277.6 236.3,277.5 235.8,277.5 235.5,277.7 233.5,279.1 230.4,280.6 227.7,281.3 224.6,283
			224.6,282.2 224.3,281.8 223.7,281.8 223.1,282.1 223.7,282.6 223.7,283.1 223.3,283.5 222.6,283.8 222.3,283.8 222,283.8
			221.7,283.7 221.4,283.4 221.3,283.3 221.2,283 221.1,282.8 220.9,282.7 220.6,282.8 220.4,283.1 220.2,283.4 220.1,283.7
			220,284.3 220,285 220.3,285.5 220.9,285.9 222.4,286.4 224,286.5 225.5,286.1 229.2,283.6 230.7,282.9 233.6,282.1 235.2,281.8
			236.7,282.1 237.6,283.2 237.3,284.8 235.8,287.9 236.3,288.7 237.8,288.5 239.4,287.7 243.8,284 244.9,283.7 245.8,283.1
			246.2,283 246.6,282.9 247.3,283 247.7,283 248.4,282.7 249.8,281.8 250.6,281.6 251.4,281.8 252.8,282.5 253.5,282.7 254,282.6
			254.4,282.4 254.8,282.1 255.2,281.7 255.3,281.4 255.2,281.1 254.9,280.9 254.8,280.7 255.1,279.9 256.4,278.9 256.6,278.1
			256.1,278.4 255.7,278.5 255.3,278.3 255.1,277.8 255,277.2 255.3,276.7 255.7,276.6 256.1,277 256.1,276.4 256,276.2
			255.8,275.9 256,275.5 256.3,274.4 256.3,274.1 257.8,272.6 258.7,272.5 261.5,272.6 262.1,272.5 262.5,271.9 262.9,271.8
			262.9,271.9 262.9,272.2 263,272.5 263.2,272.6 263.4,272.7 267.5,272.1 267.4,272.2 267.3,272.5 267.2,272.6 268.3,272.4
			269.3,271.7 270.2,270.7 270.8,269.7 271,269.7 271.2,270.1 271.5,270.6 271.6,271 271.3,271.3 272.9,272 273.2,272 274.6,267.6
			276,271.9 276.5,271.8 277.4,270.4 277.8,271 278.2,271.2 278.4,271 278.4,270.5 278.5,270.6 278.6,270.7 279,270.5 279.1,270.2
			279.4,269.7 279.4,269.5 279.4,269.3 279.4,269.1 279.6,268.8 280.1,268.3 281.4,267.5 281.4,267.3 281.4,266.8 281.5,266.6
			281.6,266.6 281.8,266.7 282.1,266.6 282.2,266.6 282.4,266.7 282.4,266.5 282.4,266 282.4,265.9 283,265.7 283.5,265.7
			284.7,266.1 285.9,266 286.8,265.1 288.9,261.1 289.9,260 291.1,259.2 293.6,257.9 294.1,257.7 295,257.7 295.4,257.4
			297.6,255.5 298.9,255.1 299.4,254.7 299.6,254 299.7,253.2 299.8,252.4 300.2,251.8 300.9,251.4 301.7,251.4 303.3,251.8
			308.7,252.5 309,252.4 309.7,252 310.2,251.9 312.1,252 289.6,239 		"/>
		<polygon fill="#CF142B" points="352.2,275.3 353.5,275.9 353.5,275.9 352.1,275.1 		"/>
		<polygon fill="#CF142B" points="309.7,257.2 309.8,257 310,256.7 310.2,256 310.1,255.1 310,254.6 309.9,254.4 309.8,254.1
			309.6,254 309.5,254 309.5,254.2 309.6,254.5 309.5,257 		"/>
		<polygon fill="#CF142B" points="344.7,277.5 345.1,277.5 345.5,277.7 345.8,277.7 345.7,277.1 345.4,276.8 345.2,276.7
			344.8,276.5 344.4,276.4 344.2,276.5 344.2,276.9 344.3,277.2 344.5,277.4 		"/>
		<polygon fill="#CF142B" points="238.7,263.6 239.1,263.7 239.5,263.9 240,264 240.6,263.7 240.7,263.7 240.9,263.8 241.1,263.6
			241,263.3 240.8,263.2 240.6,263.3 240.4,263.4 239.1,263 239.1,262.8 239.1,262.7 238.9,262.9 238.8,263.1 238.7,263.2
			238.7,263.4 238.5,263.5 		"/>
		<polygon fill="#CF142B" points="315.3,260.7 315.2,260.4 315.3,260.1 315.4,259.7 315.4,259.4 315.1,259.5 315.1,259.8 315,260.1
			314.9,260.3 314.9,260.5 315.2,260.7 		"/>
		<polygon fill="#CF142B" points="263.5,247.5 263.7,247.5 263.8,247.4 263.8,247.2 263.3,247 262.9,246.9 262.3,247.3 261.9,248
			261.8,248.4 261.9,248.3 262.1,248.1 262,247.9 262.1,247.6 262.4,247.4 262.9,247.4 263.1,247.2 263.3,247.2 263.5,247.2
			263.6,247.3 263.5,247.4 		"/>
		<polygon fill="#FFFFFF" points="292.5,294.5 292.9,294.9 294,295.1 294.2,295.4 303.6,288.6 289.2,288.6 289.3,288.9 		"/>
		<polygon fill="#FFFFFF" points="271.7,281 271.9,281 271.7,281 271.6,281 271,280.8 270.3,280.6 270.2,281 270.9,281.1 		"/>
		<polygon fill="#FFFFFF" points="293.6,295.6 293.4,295.3 293.3,295.3 293.2,295.6 292.9,295.9 292.3,296.3 291.3,297.2
			291.2,297.3 289.6,297.3 289,297.2 288.3,296.9 287.7,296.4 287.5,295.8 285.6,294.5 285.2,294.1 285,294.1 285,294.5
			285.5,295.5 285.7,296.5 286.1,297.3 286.4,297.7 287.5,298.4 287.9,298.8 288.5,299.6 293.6,295.8 		"/>
		<polygon fill="#FFFFFF" points="275.9,281.7 276,281.8 279,281.6 279.1,281.5 279.1,281.5 278.9,281.3 278.5,281.3 277.9,281.2
			277.6,281.2 		"/>
		<polygon fill="#FFFFFF" points="273.2,272 274.8,272.2 276,271.9 274.6,267.6 		"/>
	</g>
	<path fill="none" stroke="#878787" stroke-width="0.25" stroke-linecap="round" stroke-linejoin="round" d="M352,290.6l-0.3,0.1
		l-1.2,0.7l-0.5,0.5l-0.2,0.7l-0.2,0.3l-0.4,0.3l-0.5,0.1l-0.5-0.2l-0.4-0.1l-0.4,0.4l-0.3,0.6l-0.4,0.3l-1-0.2l-0.3,0.2l0,0.8
		l1.2-0.1l1.1-0.5l2.9-2l1.5-1.4l0.2-0.1l0.1-0.1l-0.1-0.2L352,290.6z M566.5,328l0.4,0.5l0.6,0.3l0.7,0.1l1.2,0.3l0.7,0l-0.1-0.5
		l-0.3-0.4l-0.5-1l-0.3-0.3l-0.5-0.1l-1.8,0.3L566.5,328z M464.2,336l-0.4-0.2l-0.3,0.1l-0.1,0.6l-0.6-0.3l-0.3-0.3l-0.5-0.7
		l-0.4-0.4l-0.5-0.4l-0.6-0.1l-0.5,0.4l1.3,0.7l0.7,0.5l0.5,1.1l0.5,0.2l0.5,0.2l0.4,0.2l0.7,0.5l0.4-0.1l0.1-0.5l-0.3-0.8
		L464.2,336z M482.5,268l0.4,0.6l-0.3,0.5l1.5,2.3l0.9,1l0.9,0l-0.5-0.7l-0.7-0.6l-0.6-0.7l-0.5-1.7l-0.6-1l-0.8-0.7l-0.9,0.1
		l0.5,0.3L482.5,268z M460.8,329.7l-0.7-0.2l-0.4,0l-0.4,0.2l-0.1-0.1l0,0l-0.2-0.1l-0.5,0.5l-1.3,0.3l-0.4,0.3l0.6,0.2l0.6,0.3
		l0.6-0.4l1.7-0.4L460.8,329.7z M368.6,229.6l0.2,0.3l0.4,0.2l0.4,0.1l0.4,0.1l0.4,0.1l0.3-0.3l-0.1-0.3l-0.2-0.1l-0.3,0l-1-0.6
		l-0.8,0.1l-0.3,0.2l0.3,0.1L368.6,229.6z M371.6,231.3l0.4,0.1l1.1,0.4l0.4,0l0.7-0.1l0.3,0l0.4,0.1l0.8,0.4l0.2-0.1l0.2-0.2l0.3,0
		l0.3,0.1l0.2-0.1l0-0.2l-0.1-0.1l-2.3-0.3l-1.3-0.3l-1-0.4l-0.7-0.1l-0.2,0.2l0.2,0.1L371.6,231.3z M377,232.6l0.1-0.3l0.3-0.2
		l0.4,0.1l0.2-0.1l0-0.3l0.1,0l0.2,0l0.1-0.3l-0.1-0.3l-0.1-0.1l-0.3,0.1l-0.6,0.3l-0.4,0.4l0,0.5L377,232.6z M386,234.6l0.5-0.1
		l0.6-0.2l0.4-0.3l0.9-0.1l0.3,0l0.3-0.1l0.1-0.2l-0.5-0.1l-0.4,0l-0.9,0.1l-0.3,0l-0.5,0.1l-0.2,0.2l0.1,0.4l-0.3,0l-0.1,0.1
		L386,234.6L386,234.6z M392,234.7L392,234.7l0.1,0.3l0.2,0.1l0.5,0.3l0.3,0.1l0.2,0.3l0.2,0.3l0.3,0.2l0.2,0l0.2-0.2l0-0.3
		l-0.1-0.3l-0.1-0.1l-0.2-0.3l-0.5-0.5l-0.3-0.3l0-0.2l-0.3-0.1l-0.3,0L392,234l-0.4,0.2l0.1,0.3L392,234.7z M399.8,238.1l0.3,0
		l0.2-0.1l0.2,0l0.2,0.2l0.2,0.3l0.1-0.1l-0.1-0.5l-0.1-0.3l-0.1-0.3l-0.5-0.5l-0.4,0.1l-0.1,0.5l-0.1,0.2l-0.1,0l0,0.1l0.1,0.2
		L399.8,238.1z M408.4,242l-0.1,0.2l-0.2,0.2l-0.1,0.2l0.2,0.4l0.4,0.3l0.4-0.1l0.3-0.3l-0.1-0.2l-0.3-0.1l-0.2-0.2l0.3-0.3l0.4-0.1
		l0.2-0.2l-0.1-0.3l-0.3-0.4l-0.5-0.1l-0.8,0.2l-0.4,0.6l0.3,0.2L408.4,242z M413.6,245.5l0.3,0.1l0.2,0l0.1,0.1l0.1,0.1l0,0.3
		l0.3,0.3l0.6-0.1l0.3-0.4l-0.2-0.3l-0.5-0.3l-0.2-0.2l-0.2-0.3l-0.7-0.2l-0.3-0.1l0.1-0.6l-0.2-0.4l-0.2,0.1l0,0.3l0.1,0.3
		l-0.5,0.1l0,0.4l0.3,0.4L413.6,245.5z M432.1,254.4v0.3l0.3,0l0.6-0.4l0.5-0.4l-1.4,0.1l-0.3,0.1l0.3,0.1L432.1,254.4z
		 M448.6,258.8l0.3,0l0.7-0.2l0.1-0.3l0.3-0.4l0-0.3l-0.3-0.1l-0.1,0.1l0,0.3l-0.3,0l-0.5-0.1l-0.2,0.1l0,0.6L448.6,258.8z
		 M334.5,292.8l-0.2,0.1l-1.1,0.5l-0.1,0.1l0.1,0l-0.1,0.2l-0.5,0.4l-0.6,0.1l-0.4-0.4l-0.1-0.1l0.1,0.5l0.5,0.5l0.6,0l1.2-0.9
		l0.6-0.4l0.5-0.4l0-0.2L334.5,292.8z M329.7,293.4L329.7,293.4l-0.1,0.2l-0.1,0.3l-0.3,0.3l-0.4,0.2l-0.4,0l-1.1,0.4L327,295
		l-0.3,0.3l-0.3,0.2l-0.4,0.1l-0.7,0.6l-0.4,0.2l0.2,0.1l0.8,0l0.5-0.2l0.1-0.2l0.2-0.1l0.2-0.1l1.1-0.5l1.5-0.5l0.6-0.5l0-0.7
		L329.7,293.4z M452.8,332.1l-0.1,0l-0.1,0.2l0.4,0.2l0.6,0l0.1-0.2l-0.5-0.2L452.8,332.1z M455.4,332.3l0,0.1l0,0.1l0,0.1l-0.9-0.2
		l-0.2-0.1l-0.2,0.1l0.1,0.2l0.2,0.1l0.2,0.2l0.3,0.1l0.3,0l0.3-0.2l0-0.4L455.4,332.3z M305.1,281.2l-0.8,0.2l0.4,0.7l1,0.4l1,0
		l0.4-0.2l-0.6-0.5L305.1,281.2z M310,254.6l-0.1-0.2l-0.1-0.3l-0.2-0.2l-0.1,0l0,0.2l0.1,0.3l-0.1,2.5l0.2,0.2l0.2-0.3l0.2-0.3
		l0.2-0.7l-0.1-0.9L310,254.6z M345.8,277.7l-0.1-0.5l-0.3-0.3l-0.2-0.1l-0.4-0.2l-0.4-0.1l-0.2,0.2v0.3l0.1,0.3l0.2,0.2l0.2,0.1
		l0.4,0l0.4,0.2L345.8,277.7z M271.6,281l-0.6-0.2l-1.1-0.2l-0.4,0.2l0.6,0.3l0.8,0.1L271.6,281l0.3,0L271.6,281L271.6,281z
		 M308.1,294.8l-0.3-0.5l0.3-0.5v-0.3l-0.5-0.1l-0.4-0.2l-0.8-0.5l0.2-0.3l0.1-0.3l-0.1-0.3l-0.2-0.3h0.3l0.4-0.7l0.2-0.5l0-0.3
		l-0.2-0.4l-0.2-0.5l-0.2-0.4l-0.4-0.2l-0.5,0l-1.7-1.4l-0.5-0.6l0-0.5l0.2-0.5l0.1-0.7l-0.2-0.6l-0.5-0.4l-0.7-0.3l-2.1-0.6l-3-0.7
		l-4.8-0.6l-0.3,0.3l-0.2,0.1l0,0.1l0.4,0.2h0.4l0.4,0.1l0.4,0.2l-0.6,0.1l-0.8,0.4l-0.7,0.5l-0.3,0.4l-0.2,0.5l-1.6,1.2l-0.4,1.7
		l0.4,1.6l3.2,5.6l0.4,0.4l1.1,0.2l0.2,0.5l-0.7,1.2l-0.2-0.2l0.3-0.6l0-0.4l-0.2-0.2l-0.1,0l-0.1,0.3l-0.3,0.3l-0.6,0.4l-1,0.9
		l-0.1,0.2h-1.5l-0.6-0.1l-0.7-0.3l-0.6-0.5l-0.2-0.5l-1.9-1.4l-0.4-0.4H285l0.1,0.4l0.4,1l0.3,1.1l0.3,0.7l0.4,0.5l1,0.7l0.5,0.4
		l1.2,1.6l0.3,0.2l1.3,0l0.4,0.1l0.7,0.3l0.4,0.1l2.4,0l0.3,0.4l0.4,0.2l2.6-0.3l2.8-1l4.7-2.4l0.7-0.1l0.7-0.3l0.9-0.7l0.8-0.8
		l0.4-0.6l-0.4-0.2L308.1,294.8z M476.8,268.1l-0.1,1.4l-0.1,0.6l-0.3,0.7l-0.5,0.5l-0.6,0.2l0.4,0.6l1.2,0.8l0.3,0.6l0.3,0.2
		l1.3,0.8l0.5,0.2l-0.3-1l0.6-0.3l0.8,0.3l0.2,0.8l0.3,0.3l0.1,0.2l0.1,0.3l0.2-0.1l0.4-0.1l0.2-0.1l0.4,0.4l0.6-0.7l0.8-1.7
		l-0.4-0.2l-0.8-0.2l-0.4-0.1l-0.3-0.2l-0.3-0.3l-0.3-0.2l-0.4-0.1l0.5-0.3l0.7-0.2l0.4-0.3l-0.3-0.7l-0.3,0.4l-0.4,0.1l-0.4-0.2
		l-0.3-0.5l-0.2,0.2l-0.2,0.2l-0.2,0.2l-0.2,0.2l0.5,0.3l-0.5-0.1l-0.3-0.3l-0.2-0.4l-0.3-0.4l-0.4-0.1l-0.9,0.1l-0.3-0.1l-0.2-0.7
		l0.2-0.5l0.4-0.4l0.2-0.4l-0.2-0.6l-0.5-0.4l-0.6-0.2l-0.6-0.1l0.4,0.7L476.8,268.1z M452.5,257.5l-0.4-0.2l-0.3,0.1l-0.1,0.8
		l-0.3-0.2l-0.1-0.1l0.1,1.4l0.6-0.3l0.8-0.6l0.6,0.6l-0.5,0.4l0.7,0.4l1.1,0.3l1.5,0.3l1,0.7l0.8,0.3l1.7,0l1-0.1l0.7-0.3l0.5-0.2
		l0.3,0.2l0.1,0.4l0,0.4l-0.2,0l-0.3-0.1l-0.2,0l-0.1,0.1l0,0.3l-0.1,0.2l-0.1,0.1l-0.1,0.1v0.2l4.6-1.1l0.3,0.1l0.3,0.2l0.3,0
		l0.1-0.4l-0.1-0.3l-2.5-2.5l-0.2-0.5l0.3,0.2l0.1,0.1l-0.4-0.6l-0.7-0.4l-0.9-0.3l-0.8-0.1l-0.7,0.3l-0.5,0.5l-0.6,0.5l-0.9,0.1
		l-0.9-0.1l-1.1,0.1l-1-0.1l-0.9-0.6l-1.6-0.3l-0.4,0.1L452.5,257.5z M465.9,262.7l-0.5,0.6l0.2,0l0.2,0l0.2,0l0.2,0.2l0.8-0.5
		l0.9,0.4l0.6,0.8l0,0.7l-0.3-0.1l-0.2,0.3l0,0.5l0.2,0.4l0.4,0.1l0.2-0.3l0.1-0.4l0-0.4l0.4-0.3l0.7,0.4l0.4,0.7l-0.8,0.5l0.9,0.7
		l0.9,0.2h0.9l0.8,0.2l1.8,1.2l0.9,0.2l0.6-0.6l-0.5-0.1l-0.5-0.2l-0.3,0l-0.8-0.9l-0.2-0.4l-0.1-1.3l-0.2-0.6l-0.3-0.6l-0.4-0.5
		l-0.7-0.7l-0.9-0.6l-0.9-0.2l-0.7,0.4l-0.3-0.5l-0.5,0l-1.2,0.5l-1.3,0L465.9,262.7z M485.5,276.7l-0.2-0.1l-0.3-0.5l-0.1-0.2
		l-0.4-0.2l-0.5-0.2l-0.5,0l-0.6,0.2l-0.4,0.3l-0.4,0.3l-0.4,0.2l-0.6,0l-0.6-0.3l-0.5-0.4l-0.5-0.3l-0.7,0l0.3,0.3l-0.2,0.9
		l0.5,0.7l0.6,0.5l0.3,0.5l0.3,0.6l0.6,0.2l0.6-0.2l0.4-0.6h0.2l0.3,0.8l0.2-0.3l0.1-0.3l-0.1-0.3l-0.2-0.3l0.7,0.2l0.4,0.2l0.2,0.3
		l-0.1,0.4l-0.2,0.4l-0.1,0.4l0.1,0.3l0.5,0.4l0.8,0.4l0.8,0.2l0.5-0.3l0.5,0.4l0.2,0.4l0.2,0.4l0.5,0.6l0.1,0.2l0.1,0.2l0.2,0.1
		l0.3-0.2l0-0.3l-0.2-0.3l-0.1-0.1l0.3-0.6l0.4-0.1l0.2,0.3l-0.2,0.7l0.8-0.6l0.4-0.2l0.6,0l-0.4-0.6l-0.1-0.4l0.8-1.8l0.1-0.5
		l-0.1-0.5l-0.3-0.5l-0.6-0.6l-0.4,0l-0.3,0.3l-0.5,0.3l-0.4-0.2l-1.2-0.8l-0.4-0.2l-0.3,0.1l-0.5,0.4L485.5,276.7z M303.9,256.4
		v-0.2l-0.3-0.4l-0.2,0.2l-0.3,0.2l0.3,0.5L303.9,256.4z M434.2,258.3l0.5-0.2l-0.1-0.1l-0.1-0.2l-0.1-0.2l-0.2-0.1l-0.2,0.2l-0.2,0
		l0.1,0.1l0.1,0.1l-0.2,0l-0.1-0.1l-0.2-0.3l-0.2,0.4L434.2,258.3z M440.6,259.3l0.4-0.2l0.2-0.1l-0.2-0.5l-0.3,0l-0.2,0.1l0,0.4
		l0.2,0.1l0,0.1L440.6,259.3z M315.4,259.7l0-0.3l-0.2,0.1v0.3l-0.1,0.3l-0.1,0.2l0,0.2l0.3,0.2l0.1,0l-0.1-0.3l0.1-0.3L315.4,259.7
		z M474.2,272.3l-0.3-0.2l-0.3-0.2l-0.1-0.2l-0.1,0l0,0.1l0.2,0.2l0.1,0.4l0.3,0.2l0.4,0.2l0.4-0.1l0.1-0.4l-0.1,0l-0.1,0v0.1
		l-0.1,0.1l-0.2,0l0.1-0.1L474.2,272.3z M487,283.7l-0.1,0l-0.2-0.2l-0.1-0.2l-0.1,0l-0.4,0.1l0,0.3l0.8,0.4l0.1-0.1l0.2-0.1l0-0.1
		l0-0.3L487,283.7z M335.2,284.2l-0.1,0.2l-0.1,0.1l0,0.1h0.1l0.5-0.2h0.3l0-0.2L335.2,284.2z M448.4,303.1l0.3-0.6l-0.3,0l0.1,0.3
		l-0.2,0.1L448.4,303.1z M450.5,315.1l-0.3-0.3l-0.2-0.1l-0.1-0.1l-0.5,0.2l0,0.1l0.1,0.1l0.1,0.1l0.1,0l0.1,0l0.2,0.2l0.3,0.1
		l0.1-0.1l0.1,0.3l0.1,0.1l0.1,0l-0.2-0.3L450.5,315.1z M458.7,329.1l0.1-0.5l-0.1-0.1l-0.2-0.1l-0.2-0.4l-0.2-0.3l0,0.2l0.1,0.5
		L458.7,329.1z M462.4,332.9l0.3,0.2l0.4,0l0.2-0.3l-0.2,0l-0.1-0.2l-0.1-0.3l-0.1,0l-0.1,0.3l-0.1,0.2l0.2,0.2l-0.2,0.1
		L462.4,332.9z M591.5,331.6L591.5,331.6l0,0.2h0.1l0-0.5l-0.7-0.3l0.1,0.3L591.5,331.6z M366.2,229.9l0-0.2l-0.1-0.2l-0.2,0.1
		l-0.3,0.6l0,0.4h0.2L366.2,229.9z M402.1,239.5l0.4-0.3l0.6-0.9l-0.1-0.2l-0.5-0.4l-0.2-0.1l-0.2,0.1l-0.1,0.2l0.1,0.1l0.2-0.1
		l0.1,0l-0.1,0.3l-0.1,0.1l-0.4-0.1l-0.1-0.1l-0.2,0.3l0,0.6l0.2,0.4H402.1z M404.2,240.9l0.1,0.5l0.2,0l0.2-0.1l0.1-0.1l0.3-0.1
		l0.1-0.2l-0.2-0.3l-0.5-0.3l-0.4,0l-0.1,0.1l0.1,0.1L404.2,240.9z M408.8,243.4l-0.2,0.5l0,0.1l0.5-0.1l0.1-0.1v-0.3l-0.1-0.2
		L408.8,243.4z M262.1,248.1l0-0.2l0.1-0.3l0.3-0.2l0.5,0l0.2-0.2l0.2,0l0.2,0l0.1,0.1l0,0.1l0,0.1l0.2,0l0.2-0.2l0-0.2l-0.5-0.2
		l-0.4-0.1l-0.6,0.4l-0.4,0.6l-0.1,0.4l0.2-0.1L262.1,248.1z M421.5,253.1l0-0.2l-0.1-0.1l-0.1,0.1l-0.1-0.1l0-0.3l0.1-0.3l-0.1-0.2
		l-0.2,0l-0.1,0.1l0,0.2l0,0.1l-0.1,0l-0.2,0.3l-0.1,0.1l0,0.1l0,0.1l0.1,0.2l0.1,0.3l0.2,0.3l0.4,0l0-0.2l-0.1-0.2l0.1-0.3
		L421.5,253.1z M434.3,254.9l0.2,0.1l0.1,0.3l0.1,0.1l0.1-0.2l0.1-0.2l0.2,0l0-0.1l-0.1-0.1l0-0.1l-0.1-0.1l0-0.2l0-0.2l-0.2-0.1
		l-0.4,0l-0.6,0.4l0,0.3l0.2,0.2L434.3,254.9z M451.2,255.4l0,0.2l-0.1,0.2l0,0.1l0.2,0l0.1,0.1l0.1,0l0.1-0.2l0.1-0.1l0.1,0.1
		l-0.2,0.5l0.1,0.2l0.2-0.2l-0.1-0.1l-0.1-0.1l0.2,0l0.3,0.4l0.2,0l0.1,0.1l0,0.1l0.3,0.2l0.3-0.1l-0.1-0.3l-0.7-0.8l-0.8-0.5
		l-0.6,0l-0.2,0.1l0.1,0.1L451.2,255.4z M445.2,260l0.2,0.1l0.1,0l0.1,0.1l0.2,0.3l0.3,0.1l0.2-0.1l-0.3-0.6l-0.2-0.4l-0.2-0.1
		l-0.1,0l-0.4,0l-0.2,0.1l-0.1,0.1l-0.1,0.2l0.1,0.2L445.2,260z M470.4,261.6l0.2,0l0.1,0.1l0.1-0.1l0.1-0.5l0.1-0.2l0.1-0.2l0.1,0
		l0.3,0.5l0.1,0.6l0.2,0.1l0-0.3l-0.3-0.5l-0.4-0.5l-0.4-0.3l-0.1,0.1l0,0.2l-0.2,0.3l-0.3,0.3l-0.3,0.1l-0.1,0.2l0.2,0.1
		L470.4,261.6z M238.7,263.6l0.4,0.1l0.5,0.2l0.4,0.1l0.6-0.3l0.1,0l0.2,0l0.2-0.2l-0.1-0.3l-0.2,0l-0.2,0.1l-0.2,0l-1.3-0.4l0-0.1
		l-0.1-0.1l-0.2,0.1l-0.1,0.2l-0.1,0.2l0,0.2l-0.2,0.1L238.7,263.6z M479.6,266.1l0.1,0.2l0.5,0.4l0.1,0.2l0,0.3l0.2,0.2l0.3,0
		l0.1-0.3l-0.2-0.4l-0.3-0.3l-0.2-0.1l-0.5-0.6l-0.2-0.1l-0.1,0.2l0.1,0.2L479.6,266.1z M479.4,269.5l0.3-0.1l0.6-0.6l0.1-0.2
		l-0.2,0l-0.3,0.2l-0.3,0l-0.3-0.2h-0.2l-0.1,0.2l0,0.2l0.4,0.4V269.5z M464.5,270.7l0.2-0.1l0.4-0.5l0.2-0.4l0.4-0.6l0-0.2
		l-0.7,0.1l-0.6,0.6l-0.1,0.3l0.1,0.3l0.4,0.1l0.1,0.2l-0.1,0.2L464.5,270.7z M354.3,278l-0.2,0.1l-0.2,0.1l-0.2,0l-0.2-0.1
		l-0.2-0.2l-0.2-0.3l0-0.2l0-0.2l-0.3-0.5l-0.1,0.1l0,0.3l-0.1,0.1l-0.1,0l-0.1-0.1l-0.1,0l0,0.3l0.1,0.4l-0.1,0.3l-0.4,0.1l-0.4,0
		l-0.2-0.1l-0.2-0.4l-0.1,0.1l-0.2,0l-0.7-0.6l-0.2-0.2l-0.1-0.3l-0.2-0.1l-0.2,0l-0.1,0.1l-0.3-0.3l-0.1,0.2l0.1,0.2l0.4,0.2
		l1.9,1.5l0.4,0l0.4-0.2l0.3,0l0.2,0.1l0.1,0.1l0.1,0.1l1.4-0.5l-0.1-0.1L354.3,278z M278.5,281.3l-0.6-0.1l-0.3,0l-1.7,0.5l0.1,0.1
		l3-0.3l0.1-0.1l-0.3-0.1L278.5,281.3z M305.4,283.3l0.1,0.2l0.3,0.2l0,0l-0.2-0.2L305.4,283.3z M306.7,284.4l0.2,0.1l0.2-0.2
		l0.1-0.3l-0.3-0.3l-0.4-0.1l-0.2,0l-0.1,0.1l0.2,0.1l0.2,0.2l0.2,0.1l0.2,0l-0.1,0.2L306.7,284.4z M285.2,288.4l0-0.3l-0.3-0.6
		l-0.2-0.5l0-0.1l-0.2-0.4l-0.2-0.2l-0.1,0.2l0.1,0.5l0.6,1.2L285.2,288.4z M309.4,289.9l-0.2,0.1l-0.2-0.1l-0.1-0.3l-0.1-0.1
		l-0.2,0.2l-0.1,0.2l0,0l0-0.2l0.1-0.2l0.1-0.1l-0.1-0.1l-0.2-0.1L308,289l-0.2-0.1l0,0.1l0.2,0.2l0.2,0.3l0,0.3L308,290l0.1,0.1
		l0.1,0l0.1,0.1l0,0.2l-0.4,0.2l0.6,0.1l0.3-0.1l0.2-0.2l0.2,0.1l0.1,0.2l0.1,0.1l0.3,0l-0.1-0.4L309.4,289.9z M318.5,295.8
		l-0.1-0.1l0-0.1l0.1,0l0-0.1l-0.2,0l-0.4,0.1l-0.1,0.2l0,0.2l-0.3-0.1l-0.3,0.1l-0.2,0l-0.2,0.2l-0.3,0.4l0,0.1l0.4-0.1l0.8-0.1
		l0.6-0.2l0.3-0.2l-0.1,0L318.5,295.8z M313.3,296.4l-0.1-0.1l-0.2-0.1l-0.7-0.1l-0.3,0l0,0.2l0.1,0.2l0.4,0.1l0.7,0.4l0.3-0.2
		l0.2-0.2l-0.1-0.1L313.3,296.4z M453.7,325.2h-0.1l-0.2,0l-0.1,0.1l0.2,0.5l0.2,0.2l0.2-0.1l0-0.2l-0.1-0.2L453.7,325.2z
		 M453.2,329.5l0.1-0.1l0-0.1l-0.1-0.1l0-0.2l0.2-0.5l0-0.3l-0.1,0l-0.1,0.2l0,0l0.1-0.3l0-0.1L453,328l-0.1,0.2l-0.1,0.1l-0.1,0
		l-0.1,0.1l0,0.2l0.5,0.9L453.2,329.5z M473,331.5l-0.1,0.1l0.2,0.2l0.2,0l0.3-0.5l-0.1-0.1L473,331.5z M480.9,335.6l-0.4,0.1l0.1,0
		l0.3,0.2l0,0.4l0.1,0l0.4-0.3l0-0.3L480.9,335.6z M397,236.9l0.7-0.3l0.3-0.3l0.1-0.2l-0.2-0.1l-0.6,0l-0.5-0.1l-0.5-0.3l-0.4-0.4
		l-0.2-0.5h-0.3l-0.2,0.4l-0.2,0.3l-0.2,0.3l-0.1,0.4l1.6,0.7L397,236.9z M369.8,234l1.2-0.1l0.5,0.1l0.4,0.2l0.4,0l0.6-0.4l0.3-0.3
		l0-0.2l-0.2-0.3l-0.4-0.6h-0.3v0.5l-0.6-0.5l-0.2-0.3l-0.3,0.2l0.2,0.2l0.2,0.4l0.1,0.2l-0.8-0.2l-0.7,0l-0.7,0.1l-2.2,1.5
		l-0.4,0.5l1.8-0.9L369.8,234z M404.9,242.5l0.4-0.2l0.4-0.5l0.3-0.1l0.8,0.5l0.4-0.4l0-0.5l-0.3,0l-0.6-0.3l-0.6,0l-0.6,0.2
		l-0.5,0.3L404.9,242.5z M394.4,241.3l0-0.4l-0.1-0.3l-0.2-0.2l-0.3-0.2l0.2-0.1l0.4-0.3l0.2-0.1l-0.7-0.4l-0.8,0.1l-1.8,0.9
		l-0.3-0.2l-0.2,0l-0.2,0.1l-0.2,0.2l0.6,0.4L394.4,241.3z M382.1,232.3l0.1,0.2l0.6-0.1l0.7,0.2l0.7,0.3l0.4,0.1l0.3-0.2l0.3-0.1
		l0.2-0.2l0.1-0.3l-0.1-0.3l-0.2,0l-0.3,0.1l-0.2,0.1l-0.9,0l-0.3,0l-0.2-0.1l-0.3-0.4l-0.1-0.1l-0.6,0l-0.4,0.2l-0.2,0.3l-0.1,0.5
		l0.5-0.2L382.1,232.3z M447.1,328.5l-0.7,0.2l0.4,0.6l0.8,0.7l0.9,0.3l0.6-0.5l-1.3-0.9L447.1,328.5z M417,248.3l1.1-0.5l0.7,0.3
		l0.3,0.6l0.2,0.6l0.3,0.3l0.2,0.1l0.6,0.4l0.1,0.2l0.1,0.5l0.1,0.2l0.2,0.1l0.8,0.7l0.6,0.3l0.7,0.1l0.7-0.2l1.2,1.4l0.6,0.5
		l0.5,0.3l0.3,0.2l0.3,0.1l0.3,0.1l0.8,0.7l-0.3-0.7l-0.6-0.9l-0.7-0.8l-1.5-0.6l-1.4-1.1l-1.7-0.5l-0.8-0.7l-1.9-2.2l-0.6-0.3
		l-0.8,0l-1,0.3l0.1,0.7L417,248.3z M444.5,326.5l-1.8,0.1l0-0.5l-0.1-0.4l-0.2-0.3l-0.4,0l-0.4,0.3l-0.4,0.7l0.8,0.8l2.6,0.3
		l0.6,0.5h0.3l-0.4-1L444.5,326.5z M426.8,313.9l-1.2,0.2l0.3,0.4l1,0.7l0.3-0.2l0.3,0.1l0.3,0.3l0.2,0.4l-0.8,0l-0.2,0l0.5,0.4
		l0.6,0.2l0.6,0l0.6-0.2l-1.5-1.5L426.8,313.9z M439.5,323.6l-0.4-0.2l-0.3-0.3l-0.6-0.2l-0.7,0L437,323l0.4,0.4l1.9,1.2l0.9,0.2
		l0.1,0.1l0.1,0.3l0.2-0.2l0.3-0.6l0.1-0.6l-0.7-0.2L439.5,323.6z M436.5,322.2l0.6,0l0.2,0l-0.9-1.2l-1.4-1.4l-1.6-1l-1.6,0.1
		l0.2,0.4l0.3,0.3l0.4,0.2l0.4,0.1l-0.1-0.2l0-0.1l0-0.1l-0.1-0.1V319l0.8,0.1l0.9,0.8l0.8,1l0.5,0.8l-0.5-0.4l-0.4-0.5l-0.5-0.4
		l-0.6-0.2v0.3l1.3,1.5l0.7,0.6l1,0.5l-0.2-0.6L436.5,322.2z M437.6,253.2l2.2,0.1l0.5,0.2l0.2,0.5l0.9-0.5l0-0.4l-0.6-0.3l-3.5-0.2
		l-0.6,0.1l0.5,0.3L437.6,253.2z M619.9,349.4l-0.2-0.7l-0.3-0.7l-0.4-0.6l-1.3-0.8L617,346l-0.4-0.3l-0.5-0.2l-0.8,0.1l-0.7,0.3
		l-0.6,0.4l-0.6,0.3l-0.7-0.1l-0.8-0.2h-0.7l-0.5,0.5h-0.3l-0.3-0.8l-0.8-0.8l-1-0.6l-0.8-0.2l-0.5-0.1l-0.3-0.2l-1.8-1.9l-0.1-0.3
		l-0.3-0.2l-1.2-1.6l-0.4-0.8l-0.3-0.4l-1.7-1.1l-0.7-0.6L600,337l-1.3-0.4l-0.4-0.3l-0.2-0.1l-0.2,0l-0.1-0.1l0-0.4l-0.5-0.9
		l0.2-0.1l0.4-0.2l-0.6-0.4l-0.8-0.2l-2.9-0.3l-0.7-0.4l-0.5-0.5l-0.6-0.4l-0.9,0.1l-0.6,0l-0.3-0.2l-0.1-0.4l-0.3-0.2l-0.4-0.1
		l-0.4-0.2l-0.7-0.2l-3,0.4l0.5,0.5l-0.3,0.2l-0.3,0l-0.3-0.2l-0.3-0.3l0,0.3L584,332l-0.1,0.2l-0.3-0.9l-0.6,0l-0.6,0.2l-0.4-0.3
		l-0.1,0.1l0,0.1l0,0.1l-0.1,0.1l-1-0.3v-0.3l0.6-0.2l-0.1-0.3l-0.5-0.3l-1.7-0.4l-0.6,0l0.3,0.3l-0.7-0.2l-1,0l-0.9,0.2l-0.5,0.5
		l0.7,0.2l1.4,0.7l0.6,0.4l-2.1,0.2l-0.9-0.2l-0.3-0.8l-0.2,0.4l0,0.2h-0.3l-0.2-0.5l-0.3-0.5l0.9-0.2l-0.3-0.4l-0.8-0.5l-0.6-0.3
		l-0.7-0.1l-1,0l-0.9,0.3l-0.5,0.6l0.4,0l0.3,0.1l0.6,0.2l-0.3,0.8l-0.3-0.2l-0.3-0.2l-0.2-0.2l-0.2-0.2h-0.2l-0.6,0.7l-2.2-0.5
		l0.2,0.9l-0.8-0.3l-0.4-0.3l0.1-0.4l0.2-0.4l-0.3-0.1l-1,0.1l0.3-0.7l-0.1-0.7l-0.4-0.6l-0.6-0.5l-0.4,0.8l-1.8,1.5l-0.4,0.9
		l-0.3,0.4l-0.6-0.2l-1.4-0.8l-0.4-0.8l-0.3-0.4l0.2-0.4l0.1-0.5l0-0.5l0-0.2l0.4-1l0-0.5l-0.2-0.4l2.4,0.3l0.7-0.3l2-0.3l0.1,0.1
		l0.3,0.2l0.2,0.2l0.1,0.3l0.1,0.2l0.3,0.1l0.5,0.2l0.6,0.4h0.5l0.3-0.9H567l-0.3-0.2l-0.1-0.4l0-0.5l-0.2-0.2l-1.5-0.8l-0.8-0.1
		l-1.1,0l-1,0.3l-0.4,0.6h-0.2l-0.3-0.7l-0.5-0.7l0-0.5l1.1-0.1l-0.1-0.3l-0.1-0.2l-0.2-0.1l-0.3,0l0.2-0.1l0.2-0.1l0.2,0l0.3,0.2
		l0.5-0.3l0.2,0.4l0.1,0.6l0.2,0.4l0.6,0l0.6-0.4l0.5-0.5l0.3-0.4l0.1-0.2l0.1-0.6l0.1-0.3l0.1-0.2l0.4-0.3l0.2-0.3l0.8-1.6
		l-1.3-1.9l-0.8-0.5l-1.5,0.3l-0.3-1.4l-0.7-0.6l-1-0.2l-1.3,0l-0.6,0.2l-0.4,0l-0.2-0.3l-0.1-0.1l-0.6-0.3l-0.2-0.1l-1.9,1.4
		l0.2,0.4l-0.2,0.2l-0.3-0.1l-0.3-0.7l-0.4-0.2l-0.5-0.1l-0.5,0l-0.3,0.1l-0.6,0.5l-0.2,0.2l-0.5,0.1l-1,0l-0.3-0.1l0,0.7l-0.2,0.3
		l-0.3-0.1l-0.3-0.6l-0.1,0.2l-0.1,0.2l-0.1,0.2h-0.2l0-0.5l-0.1-0.4l-0.3-0.3l-0.4-0.2l-0.5-0.1l-0.4,0.1l-0.6,0.3l-0.4,0.4l-0.3,0
		l-0.4-0.4l-0.2-0.5l0-0.8l-0.1-0.3l-0.2-0.9l-1.2-0.8l-3.9-1.5l-0.5-0.3l-1-0.8l-1.2-0.5l-0.5-0.4l-0.9-0.3l-4.4-0.1l-0.7,0.2
		l-0.2,0.5l0.1,0.6l0.4,0.5l0.5,0.2l1.2,0.2l0.6,0.2l-0.4,0.2l-1.1,0.6l-0.2,0l-0.2,0l-0.2,0l-0.1,0.1l-0.1,0.2l-0.2,0.2l-0.2,0.2
		l-0.2,0.1l-0.3-0.1l-0.4-0.7l-0.3-0.3l-0.4,0l-0.4,0.2l-0.4,0l-0.3-0.5l0.1-0.1l0.4-0.2h-0.8v-0.3l2-0.1l0.4-0.5l0.1-1.6h-0.3v0.8
		h-0.2l-0.5-0.6l-0.8-0.5l-0.9-0.3l-0.7,0l-0.7,0.3l0,0.3l0.3,0.6l0.2,0.3l0.2,0.2l0.8,0.3v0.2l-0.8,0l-0.7-0.2l-0.6-0.3l-0.6-0.4
		l-0.6-0.2l-0.7-0.1l-0.5-0.3l0.2-0.6l-0.1-0.4l0.4,0l0.3,0.4l-0.1,0.6l2.1-0.9l0.6-0.1l0.3-0.3l-0.2-0.6l-0.5-0.6l-0.6-0.3l-0.4,0
		l-1-0.2l-0.6-0.4l-0.2-0.1l-0.3,0.2l-0.2,0l-2.3-0.8l-0.1,0.5l-0.1,0.4l-0.5,0.8h0.3l-0.1,0.5l-0.1,0.5l-0.2,0.4l-0.4,0.3l0.1-1
		l-1.9,1l-0.5-1l0.1-0.6l0.4-0.4l0.5-0.2l1.3-0.1l0.5-0.1l0.3-0.4l0.2-0.8h-0.8l0.3-0.5l-0.5-0.4l-2-0.4l-1.3-0.6l-0.6-0.4l-0.6-0.5
		l-4-4.9l-0.7-0.4l-0.7,0.1l-0.3,0.4l-0.9,1.8l-0.5,2.1l-0.3,0.6l-0.4,0l-0.3,0.2l0,0l-0.9,0.5l-0.4,0.1l0.3-0.7l-0.6-0.1l-0.8,0.1
		l-0.4-0.1l-0.2-0.3l-0.3-0.7l-0.2-0.7l0.1-0.3l0.7-0.3l0.3-0.7l-0.2-0.7l-0.7-0.3l-1,0.1l-0.4-0.1l-0.3-0.2l-0.3-0.3l-0.3-0.2
		l-0.4-0.1l-0.4-0.2l-0.1-0.4l0.3-0.4l0.8-0.1l0.3,0.1l0.4,0.4l0.3,0.2l0.2,0.1l0.2,0.1l0.1-0.1l0.1,0l0.1-0.1l0.1-0.1l0-0.1
		l0.7,0.1l0.6,0.2l2.4,1.1l0.2,0.2l0.6,0.7l0.3,0.2l0.2-0.7l0.9-1l0.1-0.8l-0.2-0.3l-0.4-0.3l-0.2-0.5l0.3-0.7l-0.7,0.2l-0.5,0
		l-0.5-0.2l-0.5-0.3l-2.2-1.6l-0.5-0.2l-1.3-1l-0.5-0.5l-0.5-0.4l-1.9-0.6l-0.8-0.4l-3.9-2.9l-0.1-0.2l-0.2-1l-0.1-0.3l-1.3-1.1
		l-0.6-0.1l-0.7,0.5l-0.6,0.7l-0.3,0.7l0.5-0.3l0.2,0.1l0.4,0.6l1.4,1.2l1,1.2l0.5,0.3l0.5-0.5l0.5,0.6l0.6-0.3l0.4,0.3l0.2,0.5
		l0,0.4l0.2,0.1l0.7,0.3l0.3,0.2l0.2,0.3l0.2,0.9l0.5,1.2l0.4,0.5l1,0.4l0.4,0.5l0.2,0.5l0,0.2l-0.1,0.1l-0.1,0.2l-0.2,0.2l-0.4,0.1
		l-0.2-0.1l-0.9-0.5l-1.1-0.1L498,293l-0.2-0.4l-0.1-0.6l-0.5-1.2l-0.1-0.7l0.1-0.7l0.2,0l0.4,0.2l0.5-0.1l-0.7-0.8l-0.5-0.4
		l-0.5-0.2l0.1,0.1l0.1,0.3l0.1,0.1l-0.4,0.1l-0.3,0l-0.2-0.2l-0.1-0.4l-1,0.3l-0.3,0.3l0,0.6l-1.7-1.1l-0.6-0.3l-0.6-0.1l-2.2,0.3
		L489,288l-0.3-0.3l-0.3-0.2l-0.5,0.3l-0.2,0l-1-0.3l-0.5-0.2l-0.3-0.3l-0.1-0.5l-0.1-0.5l-0.2-0.7l-0.3-0.6l-0.4-0.3l-0.9,0
		l-0.3-0.1l-0.4-0.4l-0.3-0.4l-0.2-0.4l-0.2-0.5l-0.1-0.7l0.3-0.3l1.2-0.2l0.3-0.4l-0.6,0l-1-0.2l-0.4,0.2l-0.2,0.4l-0.2,3l-0.2,0.4
		l-0.4,0.1l-0.3-0.3l-0.6-1.2l-0.1-0.3l-1.7-1.7l-0.4-0.3l-0.4-0.2l-0.3-0.4l-0.7-1.2l-0.2-0.7l-0.2-0.3l-0.7-0.7l-0.5-1l-0.4-0.4
		l-0.5,0.2l-0.5-0.2l-0.5-0.1l-0.5-0.2l-0.4-0.4l0.1-0.1l0.1-0.1l-0.9,0l-0.3-0.1l-0.2-0.3l0-0.4l-0.1-0.4l-0.3-0.2l-1.8-0.1
		l-0.6-0.2l-1.3-0.5l-0.3,0l-0.4,0l-0.4,0l-0.3-0.2l-0.3-0.2l-0.7-0.3l-0.3-0.3l-0.3-0.3l-0.3-0.8l-0.2-0.4l-0.1,0.1l-0.4,0.2l0-0.3
		l0-0.6l0-0.3l-0.7,0.1l-2.2-0.4l-0.9-0.3l-0.6-0.3l-0.8-0.6l-0.7-0.6l-0.3-0.5l-0.5-0.4l-4-1.4l-1.2-1.2l-1.1-0.1v0.3l0.3,0.2
		l0.3,0.3l0.5,0.7l-0.6,1.3l-0.3,0.3l-0.4-0.5l-0.3,0.2l-0.1,0.1l-0.7-2.3l-0.2-0.4l-1.7,0.1l-5.7-0.6l-0.8,0l-0.7,0.2l-1.4,0.5
		l-0.8,0.1l-0.4-0.1l-0.6-0.4l-0.4-0.1l-0.5,0l-0.1,0.2l-0.1,0.3l-0.4,0.3l-0.7,0l-1.9-0.4l-0.4,0l-0.3,0.4l-0.7-0.2l-0.7-0.5
		l-0.4-0.4l-1,0.2l-1.1-0.5l-3.1-2.6l-0.2-0.5l-1-1.5l-0.4-0.1l-1.1,0l-0.5-0.1l-0.2-0.2l-0.9-1.1l-0.3-0.6l-0.5-1.2l-0.4-0.6
		l-0.4-0.4l-0.4-0.3l-0.5-0.2l-0.6-0.2l-0.9-4.1l-0.3-0.2l-0.8,0.1l0,0.1l-0.2,0.2l-0.2,0.2l-0.2,0.1l-0.2-0.1l-0.1-0.2l-0.1-0.2
		l-2.2-1.5l-0.7-0.2l-1.5-0.1l-0.4-0.1l-0.4-0.2l-0.2-0.3l-0.4-0.6l0.5-1.4l0.4-0.3l0.8,0.4l0.7-0.5l0.3-0.3v-0.3l-0.3-0.1l-2.3,0.6
		l-1.2,1.1l-0.8,0.2l0-0.1l0-0.2l-0.1-0.2l-0.3-0.1l-0.7,0l-0.2,0l-1.4-0.8l-0.1-0.3l-0.8-1.5l-0.1-0.4l-0.3-0.3l-0.4-0.3l-0.4-0.2
		l-0.1,1l-0.7,0.1l-0.9-0.3l-2-1l-0.6,0l0.3,0.9L395,243l-1.1,0.2l-1.2,0L392,243l-0.6-0.2l-0.6-0.3l-0.6-0.5l-0.5-0.1l-2.1,0
		l-0.7-0.2l-0.5-0.4l-0.4-0.5l-0.4-0.3l-0.6-0.2l-1.5-0.3l-0.6,0l-0.8-0.5l-1.4-2.5l-1-0.8l1-1.9l0.3-0.3v-0.2l-0.4-0.2l-0.5-0.1
		l-0.5,0.1l-0.5,0.2l0.7,0.8l-0.2,0.7l-0.7,0.6l-0.8,0.3l-0.9,0l-1.7-0.4l-0.9,0l-5.8,1.1l-0.8,0.2l-0.8,0.2l-0.7-0.2l-0.3-0.9
		l0-0.6l-0.1-0.1l-0.1,0.1l-0.3,0l-1.5-0.3l-0.2,0l-0.8,0.2l-0.4,0l-0.2,0.2l-0.4,1l-0.2,0.3l-0.6,0.7l-0.3,0.4l-0.3,0.2l-0.7,0
		l-1.3-0.7l-2.1-2.5l-1.6-0.4v-0.2l0.5-0.5l2-1.2l1.7-0.4l1-0.4l0.5-0.5l-0.7-0.3l-0.6,0.2l-1.6,1l-0.9,0.7l-1.4,0.7l-0.6,0.2
		l-1.7,0.3l-0.9,0.3l-0.4,0.4L352,235l-3.1,0.5l-0.3,0l-0.3,0.1l-0.3,0.3l-0.1,0.3l-0.2,1l-0.1,0.2l-0.6,0.2l-0.4,0.1l-0.4-0.1
		l-0.5-0.2l0-0.1l0.2-0.2l0.2-0.3l0.2-0.7l0.1-0.9l-0.1-0.8l-0.8-0.5l-0.6-0.5l-0.3-0.2l-0.5-0.1l-0.4,0l-0.4,0l-0.4-0.2l-0.5,0.3
		l-0.6,0.1l-6.7,0l-0.8,0.3l-1.1-0.3l-2.4-0.2l-1.1-0.3l-1.4-1l-0.4-0.2l-0.4,0.1l-0.4,0.2l-0.4,0.1l-0.9,0.1l-1.5,0.4l-0.8,0.1
		l-2.6-0.6l-1.2,0.5l-2.6,0.4l-1.7,0.7l-1.5,0.2l-0.6,0.3l-1.1,0.9l-0.6,0.4l-0.4,0.1l-0.5,0.1l-0.2,0.1l-0.4,0.6l-0.2,0.1l-0.8,0.2
		l-1.6,0.9l-0.8-0.1l-0.9,0.4l-3.4,0.4l-3.4-0.2l-0.8,0.3l-0.9,0.2l-1.3-0.2l-1.2,0l-0.5,0.9l-0.4,1l-0.8,0.5l-0.6-0.1l0.1-0.8
		l-0.3,0.4l-0.3,0.1l-0.2-0.1l-0.2-0.4l0.2-0.2l0.4-0.1l0.2-0.1l-0.2-0.4l-0.3-0.2l-0.3,0.1l-0.2,0.2l-0.2,0.1l-0.4-0.1l-0.5-0.3
		l-0.4-0.1l-0.2,0.1l-0.5,0.3l-0.3,0.1l-1.5,0.3l-0.8,0.4l-0.5,0.5l0,0.5l0.7,0.6l-0.3,0.3l-0.3,0.4l-0.4,0.2l-0.4-0.2l-0.3-0.5
		l-0.1-0.6l0.1-0.5l0.3-0.3v-0.2l-0.5-0.4l-0.6-0.2l-0.7,0l-0.8,0.3l-1.9,1.2l-0.5,0.2l-0.7,0.3l-0.7,0.8l-0.6,0.9l-0.2,0.7
		l-0.3,0.3l-0.6,0.4l-0.4,0.1l0.3-0.4l-0.6-0.3l-0.4-0.3l-0.4-0.2l-0.6,0.2l-0.3,0.5l-0.3,0.6l-0.4,0.4l-0.7-0.1l0.1-0.2l0.1-0.1
		l0.1-0.3l-1.5,0l-0.2,0.1l-0.5,1.3l-0.2,0.2l-1.8,0.1l-0.8,0.2L268,247l0.2,0l0,0l0,0.1l0.1,0.1l0.3-0.2l0.3-0.1v0.3l-0.3,0.1
		l-0.5,0.3l-0.3,0.1l-0.4,0l-0.5-0.2l-0.4-0.1l-0.6,0.1l-1.3,0.5l-2.5,1.3l-0.6,0.1l-1.6,0.1l-0.6,0.4l-0.3,0.8l-0.5-0.5l-2.2,1.6
		l-0.4,0.2l-0.5,0.1l-0.4-0.2l-0.2-0.5l-0.3-0.5l-0.6-0.2l-0.4,0.1l-0.3,0.2l-0.3,0.3l-0.2,0.3l0.6-0.1l0.5,0.1l0.4,0.3l0.3,0.5
		l-0.4,0.4l-0.4,0.4l-0.4,0.2l-0.5-0.3l-0.5-0.2l-0.3,0.5l-0.1,0.7l0,0.4l-0.2,0.2l-1,0.1l-0.4,0.1l-0.2,0.4l-0.3,1.5l-0.3-0.5
		l-0.4-0.2l-0.5,0.1l-0.5,0.4l-0.4-0.2l-0.4-0.1v0.3l0.4,0.5l-0.2,0.9l-0.5,0.9l-0.4,0.6l-0.7,0.4l-1.6,0.3l-0.6,0.5h0.8v0.3
		l-0.7,0.4l-0.5,0.6l-0.8,1.2l-0.1,0.2l-0.1,0.5l-0.1,0.3l-0.2,0.1l-0.4,0l-0.2,0.1l-0.5,1l-0.1,0.1l-0.5,1.8l-0.2,0.9l-0.1,0.9
		l-0.1,0.7l-0.3,0.7L239,271l-0.4,0.3l0.6,0.1l0.3,0.5l0.2,0.7l0.3,0.6l0.5,0.4l0.7,0.4l0.7,0.3l0.7,0.1l-0.2,0.3l-0.3,0.8l0.7,0.4
		l0.1,0.5l0,0.6l0.2,0.8l0.5,0.5l0.4-0.4l0.4-0.7l0.4-0.5l-0.5,2.2l-0.6-0.1l-1,0.7l-0.2-0.2l-0.2-0.4l-0.5-0.5l-0.6-0.4l-0.5-0.2
		l-1.1,0.3l-0.8,0.5l-0.9,0.2l-1.2-0.5l0.2-0.3l-0.2-0.2l-0.4-0.1l-0.5,0l-0.3,0.1l-2,1.5l-3.1,1.4l-2.7,0.8l-3,1.6l0-0.8l-0.4-0.4
		l-0.6,0l-0.6,0.3l0.6,0.4l0,0.5l-0.4,0.4l-0.6,0.3l-0.3,0l-0.3,0l-0.3-0.1l-0.3-0.2l-0.1-0.2l-0.1-0.2l-0.1-0.2l-0.2-0.1l-0.2,0.1
		l-0.2,0.3l-0.2,0.3l-0.1,0.3l-0.1,0.7l0.1,0.6l0.3,0.6l0.5,0.4l1.6,0.5l1.6,0l1.5-0.4l3.7-2.5l1.4-0.7l2.9-0.9l1.6-0.3l1.5,0.3
		l0.8,1.2l-0.3,1.6l-1.5,3.1l0.5,0.8l1.6-0.1l1.6-0.9l4.4-3.7l1.2-0.3l0.8-0.5l0.4-0.2l0.4,0l0.8,0.1l0.4,0l0.7-0.3l1.4-0.9l0.8-0.2
		l0.8,0.2l1.4,0.7l0.7,0.2l0.5-0.1l0.4-0.2l0.4-0.3l0.3-0.3l0.2-0.4l-0.2-0.3l-0.2-0.2l-0.1-0.2l0.3-0.8l1.3-0.9l0.2-0.9l-0.5,0.4
		l-0.4,0.1l-0.4-0.2l-0.3-0.5l0-0.6l0.3-0.4l0.4-0.1l0.4,0.4l0-0.6l-0.1-0.2l-0.2-0.3l0.2-0.4l0.3-1.1l0-0.3l1.5-1.5l0.8-0.2
		l2.9,0.2l0.5-0.1l0.4-0.6l0.4-0.1l0,0.1l0,0.3l0.1,0.3l0.1,0.2l0.2,0l4.1-0.6l-0.1,0.2l-0.1,0.3l-0.1,0.1l1-0.3l1.1-0.7l0.9-1
		l0.5-1.1h0.3l0.2,0.5l0.3,0.4l0.1,0.4l-0.3,0.3l1.6,0.7l1.9,0.2l1.7-0.4l0.9-1.3l0.4,0.6l0.4,0.2l0.3-0.3l0-0.5l0.1,0.1l0.1,0.1
		l0.3-0.3l0.2-0.3l0.2-0.6l0-0.2l0-0.1l0-0.2l0.2-0.3l0.5-0.5l1.3-0.9l0-0.1l0-0.6l0.1-0.2l0.1,0l0.2,0.1l0.3-0.1l0.2,0l0.1,0
		l0.1-0.2l0-0.6l0-0.1l0.5-0.1l0.5,0l1.2,0.3l1.2-0.1l0.9-0.9l2.1-4l1-1.1l1.2-0.8l2.5-1.3l0.6-0.2l0.8-0.1l0.4-0.3l2.2-1.9l1.3-0.4
		l0.5-0.4l0.2-0.7l0-0.8l0.1-0.8l0.4-0.6l0.8-0.4l0.8,0l1.6,0.4l5.4,0.7l0.4-0.1l0.7-0.4l0.4-0.1l3.9,0.1l1.6,0.4l0.8,0.1l0.8-0.1
		l1.5-0.4l0.8-0.1l4.5,1l1.6,0.1l3.5-0.3l3-0.3l3.1,0.2l1.6,0.5l1.2,0.7l1.5,1.1l0.4,0.6l1.7,0.8l0.2,0l0.1,0.1l0.1,0.6l0,0.7
		l-0.2,1l-0.3,0.9l-0.4,0.4l-0.4,0.1l-0.3,0.3l-0.2,0.4l-0.2,0.2l-0.4,0.1h-0.7l-0.4,0.2l-0.4-0.1l-2.9,0.7l-0.7,0l-0.7-0.1
		l-0.6-0.3l-0.9,0.4l-7,0.2l-0.9-0.4l-0.3,0.4l-0.6,0.2l-0.5,0.3l-0.1,0.7l0.3,0.7l0.6,0.3l0.7,0.1l0.5,0l0,0.2l0.4,0.7l0.2,0.2
		l0.3,0.1l0.7,0.1l0.3,0.2l0.6,0.5l0.5,0.3l5.2,2.1l0.6,0.7l0.1,0.6l0.3,0.6l0.9,1l0.5,0.2l1.7,0.2l0.4,0l-0.1-0.3L338,272l-0.1-0.2
		l0.7,0.1l0.2-0.1l0.1-0.5h0.2l0.5,0.2l0.9,0.1l0.8,0l0.4-0.2l0.2-0.4l0.4,0l0.4,0.2l0.2,0.1l1.5,0.5l0.2,0.1l0.1,0.3l0.1,0.1l0.2,0
		l0.1-0.1l0.1-0.1l0.1,0l0.4-0.1l0.5-0.5l0.3-0.1l0.4,0.1l0.7,0.5l0.4,0.1h1.8l1.4,0.6l0.8,2.6l1.3,0.6l0.5-0.1l0.1-0.2l0-0.3
		l0.3-0.2l0.3,0.1l0.3,0.2l0.3,0.1l0.4-0.2l0.2-0.3l0-0.7l0.1-0.3l0.2-0.2l1-0.4l0.3,0.3l0.5,1.1l0.2,1.3l-0.5,0.9l0.8,0.1l0.3-1.2
		l0-4.8l-0.5-1.7l0-0.5l0.2-0.4l0.4-0.1l0.5,0.1l0.5,0.3l1,1.5l0.2,0.1l-0.3,1.7l0,0.6l0.1,0.4l1,2l0.4,0.6l0.6,0.4l1.5,0.3l1.4,0.7
		l0.7,0.2l3.2,0.3l5.3-0.6l4.6,0.3l4.6-0.1l1.6,0.6l0.2-0.9l-0.2-1l-0.5-0.9l-0.5-0.7l-1.1-0.8l-0.4-0.5l0.2-0.9l0.5,0.2l0.6,0.1
		l0.5-0.1l0.3-0.4l0.3,0.5l0.3,0.3l0.9,0.5l-0.5,0.6l0,0.5l0.5,0.3l0.7,0l0,0.5l0.3,0l0.4-0.1l0.3,0.1l0,0.3l-0.2,0.3l-0.2,0.3
		l-0.2,0.3l0.2-0.1l0.6-0.1l-0.5,0.4l-0.6,0.2l-0.6,0l-0.5-0.1l0,0.5l0.1,0.3l0.4,0.4l0.1,0l0.4-0.1l0.2,0l0.1,0.2l0,0.2v0.2
		l0.1,0.2l4,4.3l1.1,1l1.9,0.6l1.1,0.9l1.6,0.3l1.5,0.6l0.8,0.1l0.6,0.2l0.4,0.5l0.3,0.7l0.1,0.9l0.3,0.6l0.6,0.7l0.7,0.3l0.5-0.5
		l-0.3-0.1l-0.4-0.2l-0.2-0.3l0.1-0.3l0.3-0.1l0.4,0.1l0.8,0.3l0.8,0.1l0.7,0l0.7-0.2l0.6-0.5l0.1,0.5l0,0.6l0.1,0.4l0.6,0.1v0.2
		l-0.8,0.3v0.3l0.8,0.3l0.8,0.4l0.6,0.1l0.2-0.7l0.4-0.6l0.9,0l2.5,0.7l2.6,0.1l0.5,0.2l0.3,0.4l0.2,0.4l0.2,0.4l0.3,0.3l0.2,0.1
		l1.6,0.4l0.2,0.1l0.4,0.3l0.4,0.2l0.4-0.1l0.3-0.3l0.1-0.4l0.1-0.3l0.3,0.3l0.6,0.9l0.4,0.3l0.3,0.2l0.8,0.3l0.7,0l1.9-0.2l0.5,0.1
		l0.7,0.6l0.6,0.4l3,0.9l1.5,0.1l1.5-0.1l1.5-0.4l1.9-1l0.7-0.1l1.6,0l0.7-0.2l0.6-0.4l0.2,0.3l0.4-0.2l0.4,0l0.4,0.1l1.1,0.1l0.3,0
		l0.1-0.1l0.1-0.2l0.2-0.2l0.2-0.2l0.2-0.1l1.7-0.2l1.7-0.4l0.5-0.2l0.2-0.2l0.3,0l0.5,0.2l0.8,0.4l0.4,0.3l0.3,0.2l0.5,0.6l0.2,0.4
		l-0.1,0.2l-1,0l-0.5-0.1l-0.4-0.2l-0.2,0.5l0.2,0.3l0.5,0.2l2,0.3l0.6,0.2l0.6,0.4l0.8,0.8l0.8,1.1l0.6,1.3l0.2,1.3l0.2,0.6
		l0.7,1.2l0.2,0.7l0.1,0.7l0.3,1.3l0.1,0.7l0.3,0.3l1.2,0.4l0.3,0.4l-0.1,0.6l-0.3,0.3l-0.4-0.1l-0.3-0.4l-0.2,1.1l0.4,1.1l0.6,1.1
		l0.3,1.1l0.1,2.6l0.2,1.3l0.3,0.4l0.3,0l1.4,1l0.5,0.5l0.6,1l0.4,0.6l0.5,0.3l1.3-0.1l0.5,0.1l2.6,1.9l0.3,0.6l0.1,0.3l0.2,0.4
		l0.4,0.5l0.1,0.3l0,0.4l0.1,0.2l0.4-0.2l0.6,0l0.7,0.5l0.7,0.6l0.4,0.4l0.7,1.3l0.4,0.4l0.8,0.2l0.4,0.2l1.2,1.4l0.2-0.6h0.3
		l0.4,0.8l1.3,0.3l2.4-0.1l0.6-0.3l0.5-0.5l0.6-0.4l0.8-0.2l1.4,0.2l0.7,0.2l1,0.7l0.6,0.2l1.8,0.1l0.5,0l0.1-0.1l0.2,0.1l0.7,0.2
		l0.3,0l1.1-0.1l0.3,0.1l0.2,0.1l0.5,0.4l0.3,0l1.4-0.8l1.9,0.7l0.6,0.1h0.4l0.2-0.1l0.2-0.1l0.4-0.1l0.3-0.1l0.2-0.1l0.2,0l0.4,0.2
		l0.5-0.6l1-0.4l1.2-0.3l1.1-0.1l1,0.4l0.7,0.9l0.6,1l0.7,0.7l0.3-0.7l0.7,0.1l1.3,0.9v0.3l-0.8,1.1l-0.3,0.1l-0.3,0.1L505,335
		l-0.1,0.3l0.1,0.9l0.4,0.4l0.6,0.3l0.7,0.5l0.2-0.3l-0.2-0.4l0.4,0.1l1.3,0.5l1,0.7l0.4,0.3l1.1,1.8l-0.5,1.4l-0.3,0.3l-0.3,0.3
		l-0.1,1.9l-1.5,1l-0.3,0.2l-0.1,0.6l-0.3,0.6l-0.4,0.5l-0.5,0.3l-0.5,0.1l-0.5,0l-0.2-0.2l0.2-0.5l-0.2,0l-0.1,0l-0.1,0l-0.5,0.5
		l-0.6,1.4l-0.6,0.3l-0.7,0.1l-3.7,1.7l-0.7,0.5l-0.6,0.9l-1.6,0.8l-0.6,0.4l-0.7,1l-0.1,0.2l-0.2,0.1l-0.7,0.2l-0.4,0.3l-1-0.3
		l-0.3,0l-0.1,0.2l0.5,0.5l0.1,0.3l-1.8,1.6l-0.1,0.3l-0.1,0.2L490,359l-0.7,0.6l-0.2,0.3l0.1,0.4l-0.3,0.2l-0.2,0.4l-0.2,0.2
		l-0.3,0.1l-0.5,0l-0.3,0.1l0,0.4l-0.7,1.3l0,0.7l0.2,0.4l0.4,0.3l0.5,0.2l0.5,0.1l0.7,0l2.3-0.6l1.6,0.1l1.3-0.1l2.3-0.6l3.4-0.1
		l0.7-0.1l1-0.4l0.7,0v-0.3h-1l0.6-0.7l1-0.3l1.1,0.1l0.9,0.3l0.2-0.4l0.4-0.2l0.4,0.1l0.3,0.3h0.3l0.5-0.4l0.9,0.2l1.8,0.7l0.9,0.1
		l4.8-0.2l0.9-0.2l0.8-0.4l1.2-1l0.6-0.2l0.8,0.1l0.8,0.2l0.8,0l0.8-0.4l4.8-0.4l4.7,0.3l0.8-0.2l1.6-0.5l0.8-0.1h2.7l1.4-0.2l3-0.8
		l1.7-0.1l3.3,0.4l4.9,1.2l0.5-0.1l0.5-0.3l0.7-0.2l1.4-0.2l0.8,0.1l1.4,0.4l0.7,0.1l2.6-0.1l0.8,0.1l1.3,0.7l1.5,1.1l1.5,0.8
		l1.2-0.2l0.8,0.5l1.1,0.2l1.2,0l1-0.1l0.2-0.1l0.3-0.4l0.1-0.1l0.3,0l0.4,0.2l1.2,0.3l0.4,0l3.7-0.2l1.9-0.5l0.1-1.5l1.5-0.7l1-0.1
		l0-0.3l0.2-0.4l0.4-0.2l-0.2-0.6l-0.1-0.2l-0.1,0.2l-0.1,0.1l-0.1,0.1l-0.2,0.1l-0.3-0.3l-0.1-0.4l0.1-0.4l0.3-0.3l0.5,0l0.4,0.2
		l0.7,0.6l0.1-0.8l0.2-0.7l0.4-0.6l0.6-0.4l0.1,1l0.2,0.8l-0.1,0.6l-0.7,0.6l-0.4,0.1l-0.5,0l-0.3,0.2l0,0.5l0.3,0.2l1.3-0.1
		l0.1,2.6l0.9-0.4l0.5-0.5h0.2l0.6,0.6l0.9-0.4l1.4-1l0.2-0.2l0-1l0.1-0.3l0.3,0l1.6,0l0.8-0.2l0.6-0.5l0.6-0.6l0.6-0.5l0.9-0.4
		l0.9-0.2l4.5-0.3l3.9-0.1l2.2-0.5l1.6-0.1l2.3-0.5l1.7,0.1l1.6,0.4l1.4,0l1.2-1l0.2-1.4l0.2-0.2l0.2-0.1l0.8-0.4l0.5-0.5l0.8-0.3
		l0.8-0.5l0.3-0.9L619.9,349.4z M416.7,253.3L416.7,253.3L416.7,253.3L416.7,253.3z M417,253.5l-0.1,0L417,253.5L417,253.5
		L417,253.5z"/>
</g>

</svg>
