<?xml version="1.0" encoding="utf-8"?>

<svg version="1.2" baseProfile="tiny" xmlns="http://www.w3.org/2000/svg" xmlns:xlink="http://www.w3.org/1999/xlink" x="0px"
	 y="0px" viewBox="284 172.1 271.9 249.7" xml:space="preserve">

<g id="Cape_Verde">
	<g>
		<polygon fill="#003893" points="388.1,398.6 386.7,397.3 384.5,396.8 382.4,397 380.6,397.6 374.5,400.7 372,402.5 370.6,404.2
			371.3,406.5 369.8,405.4 368.8,407.2 368.2,409.3 368.8,411.5 370.2,413.4 376,418.3 379.5,420.1 383.3,420.6 387.6,419
			391.1,415.7 391.8,414.7 391.8,413.5 391.3,412.4 390.9,411.2 391.4,410.1 391.5,408.7 390.3,403.6 389,400.2 		"/>
		<polygon fill="#003893" points="510.1,372.1 510,370.4 509.4,369.1 508.2,368.5 506,369 504.5,368.3 505.3,367.7 504.5,366.9
			504.2,367.4 504,367.6 503.1,368.3 503.2,367.3 503.1,366.9 501.8,367.8 500.4,368.3 500.6,368.7 500.6,368.8 500.7,368.9
			501.1,369.1 499.7,371.7 497.5,373.4 496.9,374.8 498.6,375 499,376.2 498.4,377.5 496.9,378.4 497.7,379.6 497.3,380.8
			496.5,382.1 496.2,383.4 496.9,384.7 498,385.9 500.4,387.6 502.5,388.8 503.9,389.2 505.3,389.1 505.8,388.7 506.3,387.4
			506.6,386.9 507.3,386.7 508.9,386.5 509.4,386.3 511,383.7 511.2,380.8 510,374.8 		"/>
		<polygon fill="#003893" points="418,238.6 418,235 417.6,235.4 416.5,234.8 414.5,233.2 412.3,232.3 404,231.7 403.1,231.5
			399.4,229.7 398.5,229.5 392.8,230.4 391.8,230.3 390.6,229.7 388.2,227.6 387,226.8 385.6,226.2 384.9,226.2 378.7,228.2
			377.9,230.5 378.5,232.9 380.1,234.7 382.5,235.4 383.4,235.5 383.9,236 384.2,236.8 384.2,237.9 384.4,239.4 385,240.2
			385.7,240.9 386.3,241.8 387.7,245.7 388.6,247 389.5,243 392.5,237.7 393.9,236 397.8,234.5 402,235.5 409.8,239 416.9,238.9
			"/>
		<polygon fill="#003893" points="329,203.4 328.6,202.4 327.7,201.4 326.7,200.9 324.9,202.1 323.9,202.3 323.3,200.9 322.6,200.9
			322,201.6 319.2,203.1 319.8,204.5 318.5,205.1 315.4,205.2 314,205.7 312.5,206.9 311.4,208.8 310.9,211 312.2,210.3
			312.7,211.4 313.5,212.2 314.5,212.7 320.9,215.2 321.6,215.3 322,215.1 323,214.1 323.6,213.9 326.2,213.7 328.9,213.2
			331.4,212.3 333,211 333.2,210 332.9,208.5 332.4,207.2 331.9,206.6 330.5,206.2 329,205.2 328.2,204.2 328.5,203.8 		"/>
		<polygon fill="#003893" points="532.8,211.1 532.9,210.7 532.5,209.9 530.7,208.2 530.1,207.4 525.3,210.5 523.2,212.1
			523.2,215.4 523.4,216.8 524.1,217.8 525.2,218.1 525.2,218.9 524.3,219.9 524,221.8 524.2,223.9 524.6,225.4 526.7,224.3
			528.2,227.4 529.5,235.4 530.6,234.8 531.5,234.5 532.2,234.1 532.9,233.2 532.7,233.1 532.5,232.4 532.3,231.7 532.2,231.1
			532.5,230.5 533.5,229.9 533.6,229.3 533.7,228.2 534.2,226.2 534.3,225 534,224.4 532.7,223.1 532.2,222.5 531.9,220.5
			532.2,214.3 532,213.9 531.6,213.7 531.4,213.4 532.1,212.4 		"/>
		<polygon fill="#003893" points="321.6,179.6 321.2,179 320.7,178.7 318.3,178.1 317.8,177.6 317.8,175.2 317.4,174.3 316.4,173.6
			315,173.2 312.4,173.3 311.2,172.5 310.1,172.1 308.4,172.5 302.3,175.5 299.9,176.1 297.6,177.6 295.6,178.4 293.2,180.8
			292.2,181.5 291.2,181.5 289.9,181.4 288.4,181.7 287,182.6 284.5,185.5 284,187 284.6,188.7 285.2,189.2 287,189.5 287.3,189.8
			288.7,192.2 288.8,199.2 289,200.5 290.3,201.4 291.2,201.5 292.1,201.1 293.2,200.9 297.1,200.9 301.5,200.3 304,198.5
			305.9,195.9 308.7,193.1 314.8,190.2 315.7,189.1 316.1,188.7 318,188 318.4,187.6 318.9,187.6 322.5,183.6 323.1,182.6
			323.3,181.5 322.9,180.8 		"/>
		<polygon fill="#003893" points="344.7,419 345.5,418.3 346.2,419.5 348.1,420.8 348.9,421.9 349.6,421.9 350.2,420.8 351.2,420.3
			352,419.5 352.4,417.9 352.3,416.1 352,414.4 351.4,412.9 350.3,411.8 348.7,412.5 346.9,412.7 345.7,413.4 346.1,415.4
			344.7,415.4 345.2,416.3 345.3,417.2 345.2,418 		"/>
		<polygon fill="#003893" points="554.8,285.7 554.4,285.5 554.7,281.6 554.3,279.8 552.6,279.1 552.2,278.7 551.6,276.7
			551.2,275.9 550.2,275.2 549.1,274.8 543.1,273.2 541.3,273.6 540.5,275.2 539.5,276.1 537.2,275.9 534.6,275 532.9,274.1
			531.7,273.2 531.2,272.7 530.8,271.9 529.9,275.2 531,284.3 529.1,286.2 527.6,286.8 526.6,288.1 526,290 525.9,291.9
			526.6,294.2 527.8,295.3 529.2,296 547.8,296 552.9,291.9 554.6,290.8 554.9,289.8 555.1,288.9 555.4,288.4 556,287.9
			555.5,286.8 		"/>
		<polygon fill="#003893" points="442.6,391.8 442.3,392.6 442.6,393.5 442.9,394 443.3,394.4 443.6,394.8 444.3,397.2 444.4,397.6
			445.8,398.3 447.4,398.8 448.5,399.6 448.6,403 450.1,404.8 454,408.2 456.7,409.1 459.3,410 462.1,410.4 465.4,410.5
			466.2,410.6 467.1,411 467.9,411.1 468.6,411 470.2,410.6 471,410.5 472.4,410 473.2,408.7 473.8,407.1 474.8,405.4 474.1,404.7
			476.4,403 477.1,402 477.6,400.4 477,400.2 476.7,399.9 476.4,399.5 476.2,399.1 475.8,398.3 475.5,398.1 475.2,398 474.8,397.6
			470.7,389.8 470.6,389.5 470.7,388.6 470.7,388.3 470.4,388.2 469.5,388.4 469.2,388.3 469.1,388.3 468.3,387.7 467.7,387.1
			467.9,386.9 467.3,386.6 467,386.4 466.9,386 466.5,385.5 465,385.7 463.3,384.6 460.2,381.3 458.7,378.7 457.8,378 456.1,377.6
			456.8,376.9 453.5,375 451.9,373.9 450.6,372 451.9,370.7 451.3,368.9 449.7,368 447.8,369.1 447.6,368.5 447.4,368.2
			447.2,367.7 447.2,366.9 446.4,366.9 443.6,369.1 444.3,369.2 445.7,369.8 443.7,370.9 443,371.2 444.1,371.8 445.2,373.5
			446.1,375.5 446.4,377.2 446.2,377.8 445.7,378.4 445.2,379 445,380.2 444.9,381.4 444.6,382.4 444,383.1 443,383.4 444.3,386.9
			444.4,388.3 444,389.3 		"/>
		<polygon fill="#FFFFFF" points="531.5,297 532.6,297.4 534.1,298.6 535,299.1 536.1,299.3 541.9,298.9 543.7,298.3 547.4,296.3
			547.8,296 529.2,296 		"/>
		<polygon fill="#FFCC00" points="370.6,404.2 370.2,404.7 369.8,405.4 371.3,406.5 		"/>
	</g>
	<path fill="none" stroke="#999999" stroke-width="0.25" stroke-linecap="round" stroke-linejoin="round" d="M510.1,372.1l-0.1-1.6
		l-0.6-1.3l-1.2-0.6L506,369l-1.4-0.7l0.8-0.6l-0.8-0.8l-0.3,0.5l-0.2,0.2l-0.9,0.7l0-1.1l0-0.3l-1.4,0.8l-1.4,0.6l0.2,0.4l0,0.1
		l0.1,0.1l0.5,0.2l-1.4,2.6l-2.2,1.6l-0.6,1.5l1.7,0.2l0.4,1.1l-0.6,1.4l-1.4,0.8l0.8,1.2l-0.4,1.3l-0.8,1.3l-0.3,1.3l0.6,1.4
		l1.1,1.2l2.4,1.7l2.1,1.2l1.3,0.4l1.4-0.1l0.5-0.4l0.5-1.2l0.4-0.5l0.7-0.2l1.6-0.2l0.5-0.2l1.6-2.6l0.1-2.8l-1.1-6L510.1,372.1z
		 M528.2,227.4l1.2,7.9l1.2-0.6l0.9-0.3l0.7-0.4l0.7-0.9l-0.2-0.1l-0.3-0.6l-0.2-0.8l0-0.6l0.3-0.5l0.9-0.6l0.2-0.6l0.1-1.1l0.4-2.1
		l0.1-1.2l-0.3-0.6l-1.3-1.2l-0.4-0.7l-0.3-2l0.3-6.2l-0.2-0.4l-0.4-0.2l-0.2-0.3l0.7-1l0.7-1.2l0.1-0.5l-0.4-0.8l-1.8-1.7l-0.5-0.8
		l-4.8,3l-2.1,1.6l-0.1,3.3l0.2,1.4l0.7,1l1.2,0.4v0.7l-0.9,1.1l-0.3,1.9l0.1,2l0.4,1.5l2.1-1.1L528.2,227.4z M416.5,234.8l-2-1.6
		l-2.3-0.9l-8.3-0.7l-0.8-0.2l-3.7-1.8l-1-0.2l-5.6,0.9l-1.1-0.1l-1.2-0.6l-2.4-2.1l-1.2-0.8l-1.4-0.6l-0.7-0.1l-6.2,2l-0.8,2.4
		l0.6,2.4l1.7,1.8l2.3,0.7l0.9,0.1l0.5,0.5l0.2,0.8l0.1,1.1l0.2,1.4l0.6,0.9l0.7,0.7l0.6,0.9l1.4,3.9l0.9,1.3l0.9-4l2.9-5.3l1.4-1.7
		l3.9-1.6l4.2,1l7.8,3.5l7.1-0.1l1.1-0.2V235l-0.5,0.4L416.5,234.8z M391.3,412.4l-0.3-1.1l0.5-1.2l0.1-1.3l-1.2-5.1l-1.3-3.5
		l-0.9-1.6l-1.4-1.2l-2.2-0.5l-2.1,0.2l-1.8,0.6l-6.2,3.2l-2.5,1.8l-1.8,2.2l-1.4,2.5l-0.6,2.1l0.6,2.1l1.4,2l5.8,4.9l3.4,1.8
		l3.9,0.5l4.3-1.6l3.5-3.2l0.7-1l0-1.2L391.3,412.4z M555.5,286.8l-0.8-1l-0.4-0.2l0.4-4l-0.4-1.7l-1.7-0.7l-0.4-0.4l-0.6-2
		l-0.4-0.8l-1-0.7l-1.1-0.4l-6-1.5l-1.8,0.3l-0.8,1.6l-1,0.9l-2.3-0.2l-2.6-0.9l-1.7-0.8l-1.2-0.9l-0.4-0.5l-0.4-0.8l-0.9,3.3
		l1.1,9.1l-1.9,1.9l-1.5,0.5l-1,1.4L526,290l-0.1,2l0.6,2.2l1.2,1.1l3.7,1.7l1.2,0.4l1.4,1.2l1,0.5l1,0.2l5.8-0.4l1.9-0.6l3.7-2
		l5.5-4.4l1.7-1.1l0.3-1l0.2-1l0.3-0.5l0.6-0.5L555.5,286.8z M352,414.4l-0.6-1.5l-1.1-1.1l-1.5,0.7l-1.8,0.2l-1.2,0.7l0.4,2h-1.4
		l0.4,0.9l0.1,0.9l-0.1,0.9l-0.4,0.9l0.8-0.7l0.7,1.2l1.9,1.3l0.8,1h0.8l0.6-1l0.9-0.6l0.8-0.8l0.4-1.6l-0.1-1.7L352,414.4z
		 M332.4,207.2l-0.5-0.6l-1.4-0.4l-1.4-1l-0.9-1l0.3-0.4l0.5-0.4l-0.4-1l-0.9-1l-1-0.5l-1.8,1.3l-1,0.2l-0.6-1.5h-0.7l-0.6,0.7
		l-2.9,1.6l0.6,1.4l-1.3,0.6l-3.2,0.1l-1.4,0.5l-1.5,1.2l-1.2,1.9l-0.4,2.2l1.3-0.6l0.5,1.1l0.8,0.8l1,0.6l6.4,2.5l0.7,0.1l0.4-0.2
		l1-1l0.6-0.2l2.5-0.2l2.8-0.5l2.5-0.9l1.6-1.3l0.2-1l-0.3-1.5L332.4,207.2z M476.7,399.9l-0.3-0.4l-0.2-0.5l-0.4-0.8l-0.3-0.2
		l-0.3-0.1l-0.4-0.4l-4.1-7.8l-0.1-0.3l0.1-0.9l-0.1-0.3l-0.3-0.1l-0.9,0.1l-0.3-0.1h-0.2l-0.7-0.6l-0.6-0.6l0.1-0.1l-0.6-0.3
		l-0.3-0.3l-0.2-0.4l-0.3-0.5l-1.5,0.2l-1.7-1.1l-3.1-3.4l-1.5-2.5l-0.9-0.7l-1.7-0.4l0.7-0.8l-3.3-1.9l-1.6-1.1l-1.3-1.9l1.3-1.2
		l-0.6-1.8l-1.6-1l-1.9,1.1l-0.2-0.6l-0.2-0.4l-0.2-0.4l-0.1-0.8h-0.8l-2.8,2.2l0.7,0.1l1.5,0.6l-2.1,1.1l-0.7,0.2l1.1,0.6l1.1,1.7
		l0.8,2l0.3,1.7l-0.2,0.6l-0.5,0.5l-0.5,0.7l-0.2,1.1l-0.1,1.2l-0.3,1l-0.6,0.7l-1,0.3l1.3,3.6l0.1,1.4l-0.4,1l-1.4,2.5l-0.3,0.8
		l0.3,0.9l0.4,0.5l0.4,0.4l0.3,0.4l0.7,2.4l0.1,0.4l1.4,0.7l1.6,0.5l1.2,0.8l0,3.4l1.6,1.8l3.9,3.4l2.7,0.9l2.6,0.9l2.8,0.4l3.4,0.1
		l0.8,0.1l0.9,0.5l0.8,0.1l0.8-0.1l1.6-0.4l0.8-0.1l1.4-0.5l0.8-1.3l0.6-1.6l1-1.6l-0.7-0.7l2.3-1.7l0.7-1l0.5-1.6l-0.5-0.2
		L476.7,399.9z M315.7,189.1l0.4-0.4l1.9-0.7l0.4-0.4l0.5,0l3.6-4l0.6-1l0.2-1.1l-0.4-0.8l-1.4-1.2l-0.3-0.6l-0.5-0.3l-2.4-0.6
		l-0.5-0.5l0-2.4l-0.4-0.8l-0.9-0.7l-1.5-0.4l-2.6,0.1l-1.2-0.8l-1.2-0.4l-1.6,0.4l-6.1,3l-2.3,0.6l-2.4,1.5l-1.9,0.8l-2.5,2.3
		l-1,0.8l-1,0l-1.3-0.1l-1.5,0.2l-1.4,1l-2.5,2.8L284,187l0.6,1.8l0.7,0.5l1.7,0.3l0.3,0.3l1.4,2.4l0.1,7l0.2,1.3l1.2,0.9l0.9,0
		l0.9-0.4l1.2-0.2h3.8l4.4-0.5l2.5-1.8l2-2.6l2.8-2.9l6.1-2.9L315.7,189.1z"/>
</g>

</svg>
