<?xml version="1.0" encoding="utf-8"?>

<svg version="1.2" baseProfile="tiny" xmlns="http://www.w3.org/2000/svg" xmlns:xlink="http://www.w3.org/1999/xlink" x="0px"
	 y="0px" viewBox="269.4 172.1 303.2 250" xml:space="preserve">

<g id="Curaçao">
	<g>
		<polygon fill="#002B7F" points="572.1,412.9 571.6,412.4 571.6,410.9 570.4,409.7 567.7,409.8 567.2,410 567.2,412.4 568.2,413.9
			568.2,416.9 568.7,417.4 569.2,418.4 569.2,420.9 569.9,422.1 571.1,421.4 571.1,420.4 572.1,419.4 572.1,418.4 572.6,417.9
			572.6,416.9 572.1,416.4 		"/>
		<polygon fill="#002B7F" points="311.1,224.4 317.7,244.5 337.4,244.5 335.5,242.5 336,242 336,240.5 335.5,240 334.5,236
			334,235.5 334,234.5 334.5,234 334,231 333.6,230.6 334,229.1 333.6,228.6 333.6,224.6 333.1,224.1 333.6,220.6 332.8,219.9
			330.9,219.9 330.4,220.3 329.7,220.1 330.9,218.9 333.6,218.6 333.1,215.1 332.6,214.7 332.1,212.6 330.6,210.2 329.2,208.7
			329.2,207.2 327.7,204.7 327.7,203.7 326.7,202.7 325.8,200.7 324.3,199.2 324.3,198.7 323.4,198.2 323.4,197.7 322.4,197.2
			322.4,196.7 320.7,194.5 318.3,193 314.9,193 314.4,192.5 311,192.5 309,191.5 308,192 307.1,190.5 306.1,190.5 304.7,189.5
			303.2,189.5 302.2,188.5 301.2,188.6 300.8,187.6 299.8,187.6 299.3,187 292,183.1 290.1,181.1 289.6,181.6 289.1,180.6
			288.6,180.6 286.7,178.6 284.7,177.6 283.3,176.1 281.3,175.6 278.9,173.1 277,172.1 274.1,172.1 272.8,173.4 272.8,174.4
			271.9,175.3 270.9,177.8 269.4,178.8 269.4,179.8 271.1,182.1 271.6,182.1 272.8,183.3 272.8,183.8 274.8,186.3 274.3,186.8
			274.3,187.8 273.8,188.8 272.8,189.3 272.8,191.3 273.3,191.8 273.3,192.8 274.8,194.2 274.8,195.2 275.3,195.8 275.8,196.7
			274.3,198.7 274.3,200.2 274.8,200.7 275.3,202.7 274.8,203.2 288.3,203.2 275.7,212.3 275.7,213.2 279.2,223.8 279.6,224.1
			279.3,224.2 280.4,227.5 277.6,225.5 277.4,225.8 276,225.8 274.8,227.1 274.8,227.6 272.8,230.1 273.3,230.6 273.8,232.6
			276.2,235 276.7,237.5 277.9,238.8 279.9,239.3 282.5,243 283,245 284.3,246.2 285.9,246.2 283.5,244.5 290.3,244.5 290.6,244.2
			291.3,244 290.8,243.5 290.8,241.5 290.3,241 291,240.3 292,241.7 292.7,241 292.7,240 291.8,239 292,238.8 292.5,238.8
			294,240.3 295.4,240.7 295.7,241.5 292.5,242.3 291.8,243 291.8,244 292.3,244.5 304.6,244.5 		"/>
		<polygon fill="#002B7F" points="474.4,321 474.4,320 471.5,317 471.3,316.3 470.3,316.3 468.8,314.8 468.4,314.8 465,312.8
			464,312.8 463.7,312.1 460.6,309.4 456.2,306.4 455.2,306.4 454.2,305.3 453.8,305.3 451.8,303.4 450.4,302.9 449.4,301.9
			447,301.9 446.5,301.4 437.3,301.3 436.8,300.9 434.3,300.9 433.9,300.4 430,300.4 429.5,299.9 427.5,299.9 427.1,300.4
			420.7,300.4 420.3,299.9 418.8,299.9 418.3,299.4 414.4,298.4 411,295.9 410.5,295.9 407.1,293.9 402.8,293.9 400.8,294.9
			396.4,294.9 394.5,293.9 393.1,293.9 391.6,292.9 389.2,292.4 387.2,291.4 383.8,291.4 379,288.9 373.9,284.2 373.9,283.7
			372.9,283.2 372.9,282.7 371.7,281.5 371.2,281.5 368.2,279 366.8,278.5 365.4,277 363.4,276 363.2,275.3 360.5,272.6
			360.1,272.6 357.6,270.1 357.1,270.1 352.7,266.1 349.8,264.6 348.1,262.9 348.1,261.9 345.7,256.9 343.7,255.4 343.7,254.9
			342.3,253.4 340.8,249.4 339.9,248.5 338.4,245.5 338,245 321.7,256.9 328.2,276.9 311.1,264.5 307.9,266.9 308.8,267.8
			309.3,269.9 311.2,271.3 310.7,271.8 310.7,274.8 314.1,275.8 314.1,279.8 314.6,280.3 314.1,281.3 314.6,284.8 315.3,286
			317.3,286.5 318,287.2 318,287.7 319,288.7 319,290.2 319.7,291.5 321.7,292 324.6,293.5 325.5,294.5 327,294.5 328.9,295.4
			330.4,295.4 330.9,294.9 331.9,294.9 332.6,293.7 335.5,289.7 335.7,288 337.2,288 339.6,286.5 340.1,287 341.1,287 345,289
			346.4,289 346.9,290 347.4,290 348.4,291 349.8,291.5 350.1,292.7 353.5,295.7 353.5,296.7 353,297.2 353,299.7 354.4,300.7
			355.4,303.7 356.4,304.6 356.4,306.1 359.6,309.4 360.1,309.4 360.5,310.3 361.8,311.1 362.2,312.1 362.7,316.1 363.4,316.8
			364.1,317 364.1,317.5 365.1,318.5 364.1,320.5 364.1,321.5 368.2,326.2 368.8,325.7 369.7,325.7 370.2,326.2 372.6,326.2
			373.3,327 373.3,328 374.6,329.2 375.9,329.7 477.5,329.7 477.8,329.5 477.8,328 475.4,322.5 		"/>
		<polygon fill="#002B7F" points="293.5,251.7 293.5,251.7 293.4,251.6 		"/>
		<polygon fill="#002B7F" points="296.9,254.2 299.8,257.2 300.4,257.4 300.6,256.9 		"/>
		<polygon fill="#002B7F" points="444.8,366.7 446.3,367.7 446.3,368.2 447.5,369.4 449.4,369.4 450.8,368.5 452.4,370 453.3,370
			455.2,371 460.6,376.9 461.6,376.9 462,377.4 462.8,377.1 461.6,375.9 461,375.9 457.4,371.7 458.2,371.4 458.6,371.9
			460.1,371.9 461.3,373.2 461.3,374.7 463.5,376.9 465.9,377.4 467.9,378.4 469.1,379.6 468.4,379.9 465.4,377.9 463.7,378.1
			465,378.4 465.4,378.9 465.9,378.9 467.9,380.9 471.3,380.9 473.2,382.4 475.6,382.4 475.9,383.1 477.6,384.4 478.6,384.4
			479,384.9 481,384.9 482.9,385.9 484.4,385.8 484.9,386.3 487.8,386.9 492.6,381.4 495.1,380.4 496.5,380.4 497,380.9
			502.8,380.9 504.3,381.9 506.7,382.4 507.2,382.9 515.5,382.9 516.7,382.1 516,381.4 514.5,381.4 514,381.9 510.9,381.6
			511.6,380.4 512.6,380.4 513.1,379.9 514,380.4 516,380.4 516.5,380.9 518.2,380.6 517.7,378.6 516.5,377.4 516,377.4 515,375.9
			512.4,374.2 512.1,373.4 507.3,370.4 504.5,367.7 504.5,367.2 501.6,364.2 501.6,363.3 500.7,362.3 444.4,362.3 		"/>
		<polygon fill="#002B7F" points="435.3,362.5 435.5,363.2 437.3,364.5 438.7,365 440.9,362.3 434.8,362.3 		"/>
		<polygon fill="#F9E814" points="376,329.7 377,330.7 379,331.2 379.9,332.2 380.4,332.2 381.6,333.9 381.6,335.4 382.4,336.2
			383.8,336.7 387.2,339.6 391.6,341.6 392.1,342.1 394.5,342.6 395,343.1 397.5,343.6 397.9,344.1 399.4,344.1 399.9,344.6
			401.3,344.6 402.3,346.1 403.3,346.1 403.7,345.6 404.2,346.1 406.2,346.1 406.7,346.6 407.7,347.1 409.1,347.1 411.5,348.6
			412.5,348.6 413.5,349.6 414.4,349.6 415.4,350.6 416.9,351.1 418.3,352.6 420.3,353.5 421.2,353.5 422.2,354.6 423.9,355.3
			424.6,357 427.1,357 430,359.5 431,359.5 433.4,361.5 434.4,361 434.6,362.2 434.8,362.3 440.9,362.3 441.4,361.8 441.4,361.3
			442.6,360.5 444.3,361.8 444.4,362.3 500.7,362.3 499.7,361.3 499.2,359.8 497.3,357.8 497,357 496.6,357 495.3,355.8 495.1,355
			494.6,355.1 493.4,353.8 493.4,353.3 489,348.8 488.1,346.9 486.6,345.4 486.6,344.9 484.1,341.4 484.1,340.4 482.7,338.9
			482.7,338.4 480.3,335.9 479.8,332.4 478.1,330.7 476.6,331.2 475.9,332 475.9,332.4 474.9,332.9 474.9,334.9 476.9,338.9
			476.1,339.6 474.7,339.6 473,338.4 472.7,336.2 472,336.4 471.8,337.2 470.8,337.2 468.8,338.6 468.1,338.4 468.6,337.9
			467.9,336.7 466.9,337.2 465.2,336.9 465.9,335.7 467.4,335.7 469.1,334.9 468.4,333.7 467.6,333.4 467.6,332.9 466.2,332
			466.2,331.4 467.4,331.2 467.6,330.5 468.4,330.2 470.3,332.2 471.5,332 471,330.9 471.8,330.7 473.2,332.2 474.2,332.2
			476.6,330.2 477.5,329.7 375.9,329.7 		"/>
		<polygon fill="#FFFFFF" points="285.9,246.2 288.6,246.2 290.3,244.5 283.5,244.5 		"/>
		<polygon fill="#FFFFFF" points="328.2,276.9 321.7,256.9 338,245 337.4,244.5 317.7,244.5 311.1,224.4 304.6,244.5 292.3,244.5
			292.3,244.5 291,244.7 289.8,245.9 289.8,247 291.8,249.4 291.8,250 293.4,251.6 293.5,251.7 294.4,251.7 296.9,254.2
			300.6,256.9 300.4,257.4 301.3,257.7 301.5,258.9 303.4,260.9 303.4,262.4 303,262.9 303,264.9 303.4,265.4 303.4,266.4
			307.6,266.6 307.9,266.9 311.1,264.5 		"/>
		<polygon fill="#FFFFFF" points="275.7,216.6 276.2,217.1 276.2,219.6 277.7,221.1 278.2,223.1 279.2,223.8 275.7,213.2 		"/>
		<polygon fill="#FFFFFF" points="274.8,203.2 274.3,203.7 274.3,206.7 274.8,207.2 274.8,208.2 276.7,210.7 275.7,211.7
			275.7,212.3 288.3,203.2 		"/>
		<polygon fill="#FFFFFF" points="279.3,224.2 278.4,224.3 277.6,225.5 280.4,227.5 		"/>
	</g>

		<path fill="none" stroke="#999999" stroke-width="0.25" stroke-linecap="round" stroke-linejoin="round" stroke-miterlimit="10" d="
		M512.6,380.4l0.5-0.5l1,0.5h2l0.5,0.5l1.7-0.3l-0.5-2l-1.2-1.2H516l-1-1.5l-2.6-1.7l-0.3-0.8l-4.8-3l-2.7-2.7v-0.5l-2.9-3v-1
		l-1.9-2l-0.5-1.5l-2-2L497,357h-0.5l-1.2-1.2l-0.2-0.8l-0.5,0l-1.2-1.3l0-0.5l-4.4-4.5l-1-2l-1.5-1.5v-0.5l-2.4-3.5v-1l-1.5-1.5
		v-0.5l-2.4-2.5l-0.5-3.5l-1.7-1.7l-1.5,0.5l-0.7,0.8v0.5l-1,0.5v2l1.9,3.9l-0.7,0.7h-1.5l-1.7-1.2l-0.3-2.2l-0.7,0.2l-0.2,0.7h-1
		l-1.9,1.5l-0.7-0.2l0.5-0.5l-0.7-1.2l-1,0.5l-1.7-0.2l0.7-1.3h1.5l1.7-0.7l-0.7-1.3l-0.7-0.2v-0.5l-1.4-0.9v-0.5l1.2-0.2l0.2-0.7
		l0.7-0.2l1.9,2l1.2-0.2l-0.5-1l0.7-0.2l1.5,1.5h1l2.4-2l1.2-0.8l0-1.5l-2.4-5.5l-1-1.5v-1l-2.9-3l-0.2-0.7h-1l-1.5-1.5h-0.5l-3.4-2
		h-1l-0.2-0.8l-3.2-2.7l-4.4-3h-1l-1-1h-0.5l-1.9-2l-1.5-0.5l-1-1H447l-0.5-0.5l-9.2,0l-0.5-0.5l-2.4,0l-0.5-0.5l-3.9,0l-0.5-0.5
		h-1.9l-0.5,0.5h-6.3l-0.5-0.5h-1.5l-0.5-0.5l-3.9-1l-3.4-2.5h-0.5l-3.4-2h-4.4l-1.9,1h-4.4l-1.9-1h-1.4l-1.5-1l-2.4-0.5l-1.9-1
		h-3.4l-4.8-2.5l-5.1-4.7v-0.5l-1-0.5v-0.5l-1.2-1.2h-0.5l-2.9-2.5l-1.4-0.5l-1.5-1.5l-1.9-1l-0.2-0.7l-2.7-2.7h-0.5l-2.5-2.5h-0.5
		l-4.4-4l-2.9-1.5l-1.7-1.7v-1l-2.4-5l-1.9-1.5v-0.5l-1.4-1.5l-1.5-4l-1-0.9l-1.4-3l-2.9-3l0.5-0.5v-1.5l-0.5-0.5l-1-4l-0.5-0.5v-1
		l0.5-0.5l-0.5-3l-0.5-0.5l0.5-1.5l-0.5-0.5v-4l-0.5-0.5l0.5-3.5l-0.7-0.8h-1.9l-0.4,0.5l-0.8-0.2l1.2-1.2l2.7-0.2l-0.5-3.5
		l-0.5-0.5l-0.5-2l-1.5-2.5l-1.4-1.5v-1.5l-1.5-2.5v-1l-1-1l-1-2l-1.5-1.5v-0.5l-1-0.5v-0.5l-1-0.5v-0.5l-1.7-2.2l-2.4-1.5h-3.4
		l-0.5-0.5H311l-1.9-1l-1,0.5l-1-1.5h-1l-1.4-1h-1.5l-1-1l-1,0l-0.5-1h-1l-0.5-0.5l-7.3-4l-1.9-2l-0.5,0.5l-0.5-1h-0.5l-1.9-2
		l-1.9-1l-1.5-1.5l-1.9-0.5l-2.4-2.5l-1.9-1h-2.9l-1.2,1.3v1l-1,0.9l-1,2.5l-1.5,1v1l1.7,2.3h0.5l1.2,1.2v0.5l1.9,2.5l-0.5,0.5v1
		l-0.5,1l-1,0.5l0,2l0.5,0.5v1l1.5,1.5v1l0.5,0.5l0.5,1l-1.5,2v1.5l0.5,0.5l0.5,2l-1,1v3l0.5,0.5v1l1.9,2.5l-1,1v5l0.5,0.5v2.5
		l1.5,1.5l0.5,2l1.5,1l-1.2,0.2l-1,1.5H276l-1.2,1.3v0.5l-1.9,2.5l0.5,0.5l0.5,2l2.4,2.5l0.5,2.5l1.2,1.2l1.9,0.5l2.7,3.7l0.5,2
		l1.2,1.2h4.4l1.9-2l0.8-0.2l-0.5-0.5v-2l-0.5-0.5l0.7-0.7l1,1.5l0.7-0.7v-1l-1-1l0.3-0.3h0.5l1.5,1.5l1.5,0.5l0.2,0.8l-3.2,0.7
		l-0.7,0.7v1l0.5,0.5l-1.2,0.2l-1.2,1.2v1l1.9,2.5v0.5l1.7,1.8h1l5.4,5.4l1.5,0.5l0.2,1.2l2,2v1.5l-0.5,0.5v2l0.5,0.5v1l4.1,0.2
		l1.2,1.2l0.5,2l1.9,1.5l-0.5,0.5l0,3l3.4,1v3.9l0.5,0.5l-0.5,1l0.5,3.5l0.7,1.2l1.9,0.5l0.8,0.7v0.5l1,1v1.5l0.7,1.3l1.9,0.5
		l2.9,1.5l1,1h1.5l1.9,1h1.5l0.5-0.5h1l0.7-1.2l2.9-4l0.3-1.8h1.5l2.4-1.5l0.5,0.5h1l3.9,2h1.5l0.5,1h0.5l1,1l1.5,0.5l0.2,1.2l3.4,3
		v1l-0.5,0.5v2.5l1.4,1l1,3l1,1v1.5l3.1,3.2h0.5l0.5,1l1.2,0.7l0.5,1l0.5,4l0.7,0.7l0.7,0.2v0.5l1,1l-1,2v1l4.1,4.7l0.5-0.5h1
		l0.5,0.5h2.4l0.7,0.8v1l1.2,1.2l1.5,0.5l1,1l1.9,0.5l1,1h0.5l1.2,1.7v1.5l0.7,0.8l1.4,0.5l3.5,3l4.3,2l0.5,0.5l2.4,0.5l0.5,0.5
		l2.4,0.5l0.4,0.5h1.5l0.5,0.5h1.5l1,1.5h1l0.5-0.5l0.5,0.5h1.9l0.5,0.5l1,0.5h1.4l2.4,1.5h1l1,1h1l1,1l1.5,0.5l1.4,1.5l2,1h1l1,1
		l1.7,0.7l0.7,1.8h2.4l2.9,2.5h1l2.4,2l1-0.5l0.2,1.2l0.8,0.2l0.2,0.7l1.7,1.3l1.4,0.5l2.7-3.2v-0.5l1.2-0.7l1.7,1.3l0.5,4.9l1.5,1
		v0.5l1.2,1.2h1.9l1.4-1l1.5,1.5h0.9l1.9,1l5.3,6h1l0.5,0.5l0.7-0.3l-1.2-1.2H461l-3.6-4.2l0.7-0.3l0.5,0.5h1.5l1.2,1.2v1.5l2.2,2.2
		l2.4,0.5l2,1l1.2,1.3l-0.7,0.3l-2.9-2l-1.7,0.2l1.2,0.2l0.5,0.5h0.5l1.9,2h3.4l2,1.5l2.4,0l0.3,0.8l1.7,1.2h1l0.5,0.5h2l1.9,1
		l1.4,0l0.5,0.5l2.9,0.5l4.9-5.5l2.4-1h1.4l0.5,0.5h5.8l1.5,1l2.4,0.5l0.5,0.5l8.3,0l1.2-0.7l-0.7-0.8l-1.5,0l-0.5,0.5l-3.1-0.2
		l0.7-1.3H512.6z M572.1,416.4v-3.5l-0.5-0.5l0-1.5l-1.2-1.2l-2.8,0.1l-0.4,0.2v2.5l1,1.5l0,3l0.5,0.5l0.5,1v2.5l0.7,1.2l1.2-0.7v-1
		l1-1v-1l0.5-0.5v-1L572.1,416.4z"/>
</g>

</svg>
