<?xml version="1.0" encoding="utf-8"?>

<svg version="1.2" baseProfile="tiny" xmlns="http://www.w3.org/2000/svg" xmlns:xlink="http://www.w3.org/1999/xlink" x="0px"
	 y="0px" viewBox="295.3 172 249.4 250" xml:space="preserve">

<g id="Christmas_Island">
	<g>
		<path fill="#0021AD" d="M432,343.8l0.3,0.3l1.1,4l2.3,2.6l0,6.6l1.2,1.3L437,369l3.5,9.2l1.1,1.3l0,6.5l-1.2,1.3l0,7.8l2.3,4
			l1.2,2.5l0,4l3.5,7.9l5.1,5.8l4.7,1.3l1.1,1.3l9.2,0l1.1-1.3h4.6l1.1-1.3l6.9-1.3l1.7-2l0-10.5l-1.1-1.3l-0.1-6.5l1.1-1.4v-13.1
			l2.3-5.2l0-11.7l3.4-5.2l1.1-7.9l4.6-4l0-5.2l4.5-5.2v-1.3l-1.7-2l-34-17C457,330.9,445.7,340.3,432,343.8z"/>
		<path fill="#0021AD" d="M376.8,275.4l-60.2-30.1l0.3,0.7l11.5,13.1l1.2,2.6l0,9.2L325,276l-2.2,5.2l0,11.8l-1.1,1.4l0,1.3
			l-2.9,3.3h-0.7l1.8,1.3l-5.7,0.8l-2.3,4.5H311l0.4,5.3l0,0l-3.5-3.3l-4.5,5.1v1.4l-8,9.1l0,6.6l1.7,3.2l5.8,2.6h4.6l1.1-1.3h2.3
			l1.1-1.4l4.6-1.3l4-4.6l1.1-3.9l6.4-7.2l4.6-1.3l3.5,2.6l5.8,1.2l1.1,1.4h2.3l3.5-2.6l9.2,0.1l3.5,2.5h6.9l11.5,11.8l2.3-1.3h3
			c-8.3-8.7-13.4-20.4-13.4-33.4C371.7,289.2,373.6,281.9,376.8,275.4z"/>
		<path fill="#1C8A42" d="M493.2,328.4l0-14.9c-1-0.3-2-0.6-2.8-0.9c-5.6-2-0.8-2.8,0-2.4c1.4,0.2,2.8,0.4,4.2,0.5l3.6-5.2l4.1-1.9
			l1.1-2.7l0-3.9l2.9-3.2l4.6-1.4l1.7-1.9l1.2-6.6l3.4-6.5l5.2-5.9h6.9l15.5-9.8l-1.1-2.6l1.1-1.3l-2.9-3.2l-3.5-1.3l-1.7-2l0-2.6
			l-1.2-1.4l1.2-5.2l-3.5-3.8l0-1.3l2.9-3.4l2.9-2l1.2-5.2l2.2-3.9l-2.3-4l-1.2-5.2l-5.7-11.8l1.1-5.2l-2.2-3.9l-1.2-1.4l0-5.2
			l2.2-5.2l0-3.9L529,172l-7,0l-5.7,3.9l-10.3,1.3l-2.3,1.4l-6.9-4h-3.5l-1.7,2v2.5l-1.1,1.3l0.1,4l-1.2,2.6l-3.4,2.6l1.2,2.6l0,3.9
			l-1.7,2l-4.7,0l-2.2-2.6h-3.5l-1.7,1.9l0,4l2.4,2.6l0,4l-3.5,7.9l-2.9,3.3H467l-1.8,1.9l0,2.7l-5.2,5.8h-2.3l-4.6,4l-3.4,1.4
			l-4.6,3.9l-4.6,1.3l-5.8,6.6l-5.7-0.1l-1.1,1.3l-4.3,1c24.9,1.9,44.6,22.7,44.6,48.1c0,7.8-1.8,15.1-5.1,21.6l34,17l-1.6-1.9
			L493.2,328.4z"/>
		<path fill="#1C8A42" d="M393.9,256.4l-0.6-0.6h-2.2l-2.3-2.6H383l-4.6-2.6l-12.7-0.1l-11.6-7.8h-3.5l-1.1-1.4h-2.2l-4.8-2.6
			l-7.5-9.9l0.1-5.2l-1.7-2l-6.9-3.9h-5.7l-2.9,3.2l0,2.6l-1.2,1.3l0,6.6l-1.2,1.3l0.1,10.6l0.9,1.9l60.2,30.1
			C380.7,267.6,386.7,261.1,393.9,256.4z"/>
		<path fill="#FFC639" d="M463.2,318.6c3.3-6.5,5.1-13.8,5.1-21.6c0-25.4-19.7-46.2-44.6-48.1l-1.5,0.3l-3.5,2.6l-5.7,2.6h-3.5
			l-1.1,1.3l-8,1.3l-3.5,2.6l-2.9-3.3c-7.3,4.7-13.2,11.2-17.1,19c-3.3,6.5-5.1,13.8-5.1,21.6c0,13,5.1,24.7,13.4,33.4h0.4l1.2-1.3
			l11.4,0l1.2,1.3h12.7l2.2,1.3l1.1,1.4l3.5,0l5.8,2.6l7.2,8.1C445.7,340.3,457,330.9,463.2,318.6z M438.3,314.2
			c-0.5,4.7-2.3,5.4-2.6,7.1c-0.9,1.8,0.2,10-0.6,10c-5.5,0.1-9.6-1-11.8-1.5c2.1-9.1,1.3-17,1.3-17.9c-0.5-6.5-9.7-4.9-11.1-5.8
			c-1.2-0.2-1.9-1.2-2.3-1.6c-1.3-0.1-1.8-0.4-3.1-0.6c-0.6,0.3-0.3,0.7-1.7,1.1c-3.7,0.4-5.3-3.2-5.3-3.2c0.2-1.2-8.2,0.2-12.8-0.8
			c-1.9,1-2.7,4.1-4.2,4.5c0,1-2.5-0.8-3-1.7c-0.1-2.7,2.4-4,2.4-4c2-1.4,3.2-1.6,4.1-2.6c0.5-2.4,0.2-4.2,1.3-5.9
			c0.9-1.4,2.1-0.7,3-1.3c0.9-0.6,1.3-4.6,0.5-5.7c0,0-3.7-3.3-3.9-3.5c-1.2-3.5,1.4-5.7,2.2-5.4l0,0c3.3,4.5,8.3,12.1,12.3,10.1
			c3.1,0,4.8,0.2,5.2,2.3c7.4,1.3,19.9-1.9,27.6-12c0,0,0.7,0.1,0.4-3.7c0-1.7,2.3-1.3,2.3-0.8c0.3,0.8,0.3,1.4,0.7,1.5
			c1-0.3,2.3-2.5,3.3-3.8c0.3-0.6,0.1-1.2,0.2-2c0.6-1.4,2-1.1,2.3-0.4c0.3,0.5,0.3,0.8,0.5,1.3c1.5,1,4.1,0.1,4.3,0.1
			c0.3-1.2,1-1.1,1-1.1c1-0.2,0.6-0.1,1.2,0.2c-0.6,6.4,1.3,6.7,1.1,10c0.1,3.7-1.1,4.7-1.1,6.1c0.4,1.7,5.8,1.8,3.9,3.2
			c-1.7,0.9,0,2.6-2.5,3.2c-7.3,3.7-8.7,6.9-8.7,6.9s-1.8,3.5-2,3.5c-1.2,2.3-2.8,1.1-3.7,2.2c-0.4,1.4-0.9,4.6-0.1,6.2
			C439.4,310.7,438.9,311.9,438.3,314.2z"/>
		<path fill="#1C8A42" d="M439,302.3c0.9-1.1,2.4,0.1,3.7-2.2c0.2,0,2-3.5,2-3.5s1.4-3.2,8.7-6.9c2.5-0.7,0.8-2.3,2.5-3.2
			c1.9-1.4-3.5-1.5-3.9-3.2c0-1.4,1.2-2.4,1.1-6.1c0.2-3.3-1.7-3.6-1.1-10c-0.6-0.3-0.3-0.4-1.2-0.2c0,0-0.8-0.1-1,1.1
			c-0.2,0-2.8,0.9-4.3-0.1c-0.3-0.5-0.3-0.8-0.5-1.3c-0.3-0.7-1.7-1.1-2.3,0.4c-0.1,0.8,0.1,1.4-0.2,2c-1.1,1.4-2.4,3.5-3.3,3.8
			c-0.4,0-0.4-0.6-0.7-1.5c-0.1-0.5-2.3-0.9-2.3,0.8c0.2,3.8-0.4,3.7-0.4,3.7c-7.7,10.1-20.2,13.2-27.6,12c-0.4-2.1-2-2.3-5.2-2.3
			c-4,2-9-5.6-12.3-10.1l0,0c-0.7-0.3-3.4,2-2.2,5.4c0.2,0.2,3.9,3.5,3.9,3.5c0.9,1.1,0.5,5.1-0.5,5.7c-0.9,0.6-2.1,0-3,1.3
			c-1,1.8-0.8,3.6-1.3,5.9c-1,1-2.1,1.2-4.1,2.6c0,0-2.5,1.2-2.4,4c0.5,0.9,3,2.7,3,1.7c1.5-0.4,2.4-3.5,4.2-4.5
			c4.6,1.1,13-0.4,12.8,0.8c0,0,1.6,3.6,5.3,3.2c1.4-0.4,1.1-0.8,1.7-1.1c1.3,0.1,1.8,0.4,3.1,0.6c0.4,0.4,1.1,1.4,2.3,1.6
			c1.4,0.9,10.6-0.7,11.1,5.8c0,0.8,0.8,8.8-1.3,17.9c2.2,0.4,6.3,1.6,11.8,1.5c0.8,0-0.2-8.3,0.6-10c0.2-1.6,2.1-2.4,2.6-7.1
			c0.5-2.3,1-3.5,0.6-5.7C438.1,306.8,438.6,303.7,439,302.3z"/>
		<path fill="#FFC639" d="M490.3,312.6c0.9,0.3,1.8,0.6,2.8,0.9l0-0.8l1.4-2c-1.4-0.2-2.8-0.3-4.2-0.5
			C489.6,309.7,484.7,310.6,490.3,312.6z"/>
		<polygon fill="#FFFFFF" points="311.3,310.9 311,305.6 309.6,305.6 307.8,307.6 311.3,310.9 		"/>
		<polygon fill="#FFFFFF" points="318.1,299 315.3,299 314.2,301 319.9,300.2 		"/>
	</g>
	<polygon fill="none" stroke="#999999" stroke-width="0.25" stroke-linecap="round" stroke-linejoin="round" points="543.6,259.1
		544.7,257.7 541.8,254.5 538.4,253.2 536.6,251.2 536.6,248.6 535.4,247.2 536.6,242 533.1,238.1 533.1,236.9 536,233.5
		538.9,231.5 540,226.3 542.3,222.4 540,218.4 538.8,213.2 533,201.4 534.1,196.3 531.9,192.3 530.7,190.9 530.7,185.7 532.9,180.6
		532.9,176.6 529,172 522,172 516.2,175.9 505.9,177.2 503.6,178.6 496.7,174.6 493.2,174.6 491.5,176.6 491.5,179.2 490.4,180.5
		490.4,184.5 489.2,187.1 485.8,189.7 487,192.3 487,196.2 485.3,198.2 480.6,198.2 478.4,195.6 474.9,195.6 473.2,197.5
		473.2,201.4 475.5,204.1 475.6,208 472.1,215.9 469.2,219.2 467,219.2 465.2,221 465.2,223.8 460,229.5 457.7,229.5 453.2,233.5
		449.7,234.9 445.1,238.8 440.5,240.1 434.7,246.7 429,246.6 427.9,247.9 422.2,249.2 418.7,251.8 412.9,254.5 409.5,254.5
		408.4,255.8 400.4,257.1 396.8,259.7 393.4,255.8 391.1,255.8 388.8,253.2 383,253.2 378.4,250.6 365.8,250.5 354.2,242.7
		350.8,242.7 349.6,241.3 347.4,241.3 342.6,238.8 335.1,228.9 335.2,223.7 333.5,221.7 326.6,217.9 320.8,217.9 318,221.1
		318,223.7 316.8,225 316.8,231.6 315.6,232.8 315.7,243.4 316.9,246 328.4,259.1 329.6,261.7 329.6,270.9 325,276 322.8,281.3
		322.7,293.1 321.6,294.4 321.7,295.7 318.8,299 315.3,299 311.9,305.6 309.6,305.6 303.3,312.7 303.3,314.1 295.3,323.2
		295.3,329.8 297,333 302.8,335.6 307.4,335.6 308.5,334.3 310.9,334.3 312,333 316.6,331.7 320.6,327.1 321.7,323.2 328.1,316
		332.6,314.7 336.1,317.3 341.9,318.6 343,319.9 345.3,319.9 348.8,317.3 358,317.4 361.4,319.9 368.3,319.9 379.8,331.6
		382.1,330.4 385.6,330.4 386.8,329 398.2,329.1 399.4,330.3 412.1,330.3 414.3,331.7 415.5,333 419,333 424.8,335.6 432.3,344.1
		433.4,348 435.7,350.7 435.7,357.3 436.9,358.5 437,369 440.5,378.2 441.6,379.5 441.6,386 440.4,387.4 440.5,395.2 442.7,399.2
		444,401.7 444,405.6 447.5,413.5 452.6,419.3 457.3,420.7 458.4,422 467.6,422 468.7,420.7 473.4,420.7 474.5,419.4 481.4,418.1
		483.1,416.1 483.1,405.6 481.9,404.3 481.9,397.8 483,396.5 483,383.4 485.3,378.2 485.3,366.4 488.7,361.2 489.8,353.3
		494.4,349.4 494.4,344.1 498.9,338.9 498.9,337.6 495.5,333.7 493.2,328.4 493.1,312.7 498.2,305.5 502.3,303.6 503.4,300.9
		503.4,297 506.3,293.8 510.8,292.4 512.6,290.5 513.8,283.9 517.1,277.4 522.3,271.5 529.2,271.5 544.7,261.7 	"/>
</g>

</svg>
