<?xml version="1.0" encoding="utf-8"?>

<svg version="1.2" baseProfile="tiny" xmlns="http://www.w3.org/2000/svg" xmlns:xlink="http://www.w3.org/1999/xlink" x="0px"
	 y="0px" viewBox="220 178.4 400 241.6" xml:space="preserve">
<g id="Cyprus">
	<g>
		<path fill="#FFFFFF" d="M611.7,181.3L580,195.4l-7.4,5.5l-13.3,6.8l-5.7,1.5l-4.8-1.3l-7.9,9.8l-12.7,7.4l-32.8,13.1l-7,0.5
			l-3.9,1.7l-12,0.9l-14.4,8.1l-40.4,6.6l-25.5-2.8l-3.1-1.5l-32.7-1.5l-7.9-2.2l-3.9-0.6l-3.7-1.1l-7.2-4.2l-4.2-0.6l2.2,6.8
			l0.6,6.3l-0.2,14l-0.9,7.9l-2.6,6.8l-3.7,5.5l-4.8,3.9l-6.3,1.8l-4.8-1.8l-4.4-2.8l-5.5-1.5l-5.9-0.9l-0.1,0.6H293l-0.1-0.5
			l-5.5-0.6l-3.3,0l0,0l-3.7,0.4l-3.1,1.3l-0.2,0l-2.8,1.3l-1.7,0.4l-1.1-0.2l-1.5-1.1l-0.9-0.2L268,289l-0.4,1.1l-0.2,1.1l-2.8,2
			l-2,3.5l-2.4,6.6l-3.9,5.5l-5.2,5l-6.3,3.3l-7.2,0.2l-3.3-1.3l-2.9-2.4l-5.2-5.7l-3.5-2.4l-2,1.3l-0.6,3.9l0.6,5.2l1.3,3.3
			l3.7,6.6l0.9,3.9v4.6l0.2,2.2l3.3,5.5l-1.5,2.6v2.6l1.1,2.6l1.3,2.2l1.5,1.5l3.7,2.4l2,1.5l3.9,11.1v2l0.7,0.9l1.1,6.1l1.1,1.1
			l7,5.5l2.8,1.7l3.1,1.3l7.4,0.9l3.5,0.9l3.3,1.3l9,5.5l6.8,3.1l7.2,1.3l7.2-0.9l2-0.7l0,0l9.2-3.3l3.7-0.4l3.9,0.4l6,1.5l0.1,0.1
			l2.8,0.6l0.4,0l0,0l0,0l0,0l0,0l0.4-0.2l0.4,3.7l5,9.6l-0.6,3.9v1.3H351v-1.3l-3.7-4.8v-5.7l1.1-2h0l1.8-3.5l8.1-7.4l2.4-1.8
			l2.6-0.7l12.4-1.5l12.4,1.5l2.4-0.4l3.7-2.6l2.6-1.3l12.9-2.6l5-3.1l0.2-5.9l2.6,3.1l4.1-0.9l5-2.4l5.5-1.3l2.4-1.1l2.2-2.2
			l1.7-2.4l1.5-1.5l2.2-0.6h5.7l2.6-0.9l0.7-1.1l1.1-3.7l1.1-0.9l1.8-0.7l0.4-1.8l-0.4-4.1l0.2-3.7l0.9-3.7l1.1-3.5l1.3-2.6l4.6-4.6
			l3.7-1.3l0,0l2.9-1.1l7.4-0.4l0.8,0.2l0,0h0l2.2,0.4v0.5h0.4v0h0.7l0.6-0.2l3,0.6l2.6,1.8l4.8,4.8l2.6,0.9l2.2-0.6l1.5-1.8
			l0.9-1.1l-0.3-0.1l0.2-0.2l0.3,0.1l0.7-0.7l1.3-1.5l1.7-1.1l8.1-2.4l9.4-1.3l2,1.1l2,2.2l4.4,1.3l4.4,0.4l2.4-0.2l-2-1.5l-2.4-3.5
			l-2-3.7l-2-5.7l-2.6-3.1l-2.6-2l-3.1-1l-5.6-4.5l-2-2.6l-0.9-2.6l-1.5-2.2l-7-7.2l-2.4-1.8l1.3-16.6l0.9-3.9l2-3.9l4.8-7l3.5-2
			l4.2,0.5l4.4,1.1l3.9-0.2l2.6-2l1.5-2.8l3.1-6.8l4.2-5l5-4.4l37.3-22.5l15.5-13.5l16.6-10.7l0.9-0.7l4.1-0.9l1.3-0.4v-1.5l0.6-6.1
			l0.4-0.7l0.4-0.9l0.7-0.9l0.9-0.7l-2.4,0.5L611.7,181.3z M358.8,322.3c0.1,0,0.2-0.1,0.3-0.1c0.5,0,1,0.2,1.6,0.7
			c0.5,0.4,1.1,0.8,1.7,1.4c1.1,1,1.9,2.1,1.9,2.1l0,0c0.1,0.1,0.7,1.2,1.1,2.2c0.3,0.7,0.5,1.1,0.5,1.5c0,0.2,0,0.3,0,0.5
			c0,0.1-0.1,0.1-0.1,0.1c0,0-0.1,0-0.1,0c0,0,0,0,0,0h0c0,0,0,0,0,0c0,0,0,0-0.1,0c-0.6-0.1-1.7-0.6-2.9-1.3
			c-1.3-0.8-2.4-1.6-3-2.3c-0.6-0.7-0.9-1.7-1-3.1C358.7,323.2,358.8,322.4,358.8,322.3z M362,334.4c-1.1-0.2-1.8-1.2-2.1-1.9
			c-0.4-0.8-0.5-1.6-0.5-1.6h0c3.5,0.1,5.1,1.1,5.9,2c0.8,0.9,0.8,1.8,0.8,1.8h0c0,0-0.5,0-1.2,0l0,0
			C364.2,334.6,363.1,334.6,362,334.4z M368.5,331L368.5,331L368.5,331L368.5,331c0,0-0.4-0.5-0.8-1.1c-0.4-0.6-0.8-1.3-0.8-1.9
			c0-0.5-0.1-1.6-0.2-2.3c-0.1-0.8-0.2-1.5-0.2-1.5l0,0c0.1,0,2.2,0.8,2.2,2.8C368.7,329,368.5,331,368.5,331z M369.9,333.2
			c1.4,1,2.6,2.9,3.8,5.4l0,0l0,0c0,0,0,0,0,0c0,0-1.6-0.4-3.1-1.4c-1.5-0.9-3.2-2.5-3.4-4.9v0l0,0c0,0,0.1,0,0.3,0c0,0,0.1,0,0.1,0
			C368,332.2,368.9,332.4,369.9,333.2z M368.5,337.1c0.1,0.1,0.3,0.4,0.1,0.7c-0.1,0.2-0.4,0.3-0.9,0.3c0,0,0,0,0,0h0c0,0,0,0,0,0
			c-1.3,0-1.7-0.7-1.8-1c-0.2-0.5-0.1-1-0.1-1l0,0c0.2-0.1,0.4-0.1,0.6-0.1h0C367.4,336.1,368.2,336.6,368.5,337.1z M375,341.8
			c0,0-1.3,0.4-3.2,0.4l0,0c-1.1,0-2.1-0.1-3.1-0.4c-1.7-0.4-2.5-1.1-2.8-1.6c-0.2-0.3-0.2-0.5-0.3-0.7c0-0.1,0-0.3,0-0.3l0,0
			c0,0,1.2-0.3,2.7-0.3c0.1,0,0.1,0,0.2,0c0.8,0,1.5,0.1,2.2,0.2C373.5,339.7,375,341.8,375,341.8L375,341.8L375,341.8z
			 M370.6,330.7c0,0,0.3-0.2,0.8-0.2c0,0,0.1,0,0.1,0c0,0,0.1,0,0.1,0c0.6,0,1.6,0.3,2.7,1.4c1.2,1.3,2.3,3.5,3.3,6.5l0,0l0,0l0,0
			c0,0-1.1-0.4-2.5-1.6C373.7,335.8,371.9,333.8,370.6,330.7z M384.4,344.2L384.4,344.2C384.4,344.2,384.4,344.2,384.4,344.2
			L384.4,344.2L384.4,344.2c-4.1-0.1-6.3-1.3-7.3-2.3c-0.6-0.5-0.9-1.1-1.1-1.4c-0.2-0.3-0.2-0.6-0.2-0.6l0,0c0,0,0.4-0.1,1-0.2
			l0.1,0C378.2,339.7,381,340.3,384.4,344.2z M378.2,337.2c0.1-0.1,0.3-0.1,0.4-0.1l0,0c0.7,0,1.2,0.6,1.4,1.1
			c0.1,0.3,0.1,0.6,0.1,0.8c-0.1,0.2-0.3,0.4-0.6,0.4h0c-0.3,0-0.6-0.1-0.8-0.3c-0.2-0.2-0.3-0.4-0.4-0.8
			C378.2,337.7,378.2,337.2,378.2,337.2z M381.3,338.4c0,0,0.4-0.1,1-0.1c0,0,0.1,0,0.1,0c0,0,0.1,0,0.1,0c1.7,0,4.7,0.8,6.3,5.5h0
			l0,0c-3.3-0.5-5.2-1.9-6.2-3C381.6,339.6,381.3,338.5,381.3,338.4z M376.5,344.8c-0.3,0-0.5-0.1-0.6-0.3c-0.1-0.2-0.2-0.4-0.3-0.7
			c-0.1-0.5-0.1-1-0.1-1l0,0c0.1,0,0.2-0.1,0.3-0.1h0c0.3,0,0.5,0.2,0.7,0.3c0.2,0.2,0.3,0.4,0.4,0.7c0.1,0.3,0.1,0.5,0,0.7
			C376.9,344.7,376.7,344.8,376.5,344.8L376.5,344.8z M385.6,347.7c-0.4,0.3-1.2,0.5-2.3,0.5l-0.2,0l0,0c-2.1,0-4.9-0.6-6.6-2.4l0,0
			l0,0c0,0,1.9-0.5,4.1-0.5c0.1,0,0.3,0,0.4,0c1.9,0,3.4,0.4,4.4,1.1c0.3,0.3,0.5,0.5,0.6,0.7C385.9,347.4,385.8,347.6,385.6,347.7z
			 M388.9,350.7c-0.1,0.2-0.3,0.4-0.6,0.4l0,0c-0.3,0-0.6-0.1-0.8-0.3c-0.2-0.2-0.3-0.4-0.4-0.8c-0.1-0.5-0.1-1.1-0.1-1.1
			c0.1-0.1,0.3-0.1,0.4-0.1l0,0c0.7,0,1.2,0.6,1.4,1.1C389,350.2,389,350.5,388.9,350.7z M388.1,347.6c-0.6-0.4-0.8-0.8-1-1.1
			c-0.1-0.3-0.2-0.5-0.2-0.5c0.1,0,0.8-0.4,2-0.4c0.1,0,0.2,0,0.3,0c1.5,0,3.8,0.5,6.2,2.8l0,0h0c-1.1,0.1-2.1,0.2-3,0.2l0,0
			C390.6,348.6,389.1,348.3,388.1,347.6z M390.5,342.3c0.1-0.1,0.3-0.1,0.4-0.1l0,0c0.7,0,1.2,0.6,1.4,1.1c0.1,0.3,0.2,0.6,0.1,0.8
			c-0.1,0.2-0.3,0.4-0.6,0.4l0,0c-0.3,0-0.6-0.1-0.8-0.3c-0.2-0.2-0.3-0.4-0.4-0.8C390.5,342.9,390.5,342.3,390.5,342.3z
			 M401.9,349.5c-4.6-0.6-6.5-2.3-7.3-3.6c-0.9-1.4-0.7-2.6-0.7-2.6l0,0l0,0c0,0,0.3-0.1,0.7-0.1
			C395.8,343.3,398.9,343.9,401.9,349.5L401.9,349.5L401.9,349.5L401.9,349.5z M396,352.8L396,352.8c-1.8,0-3.5-0.5-5.2-1.5l0,0l0,0
			c0,0,0.2-0.4,0.8-0.8c0.5-0.4,1.4-0.8,2.9-0.8h0c1.8,0,3.9,0.6,6.4,1.8C400.8,351.5,398.9,352.8,396,352.8L396,352.8z
			 M412.2,354.8c0,0-0.5,0.5-1.1,0.9c-0.2,0.2-0.5,0.5-0.8,0.7c-0.1,0.1-0.2,0.2-0.2,0.3c0,0.1-0.1,0.1-0.1,0.1l0.2-0.1l0.3,0.2
			l-0.5,0l0,0l0,0c0,0-0.1,0-0.1-0.1l0,0c-0.1-0.1-0.2-0.2-0.4-0.4c-0.3-0.4-0.8-1-1.2-1.5c-0.8-1-1.5-1.9-1.6-2.1l-0.2-0.3
			l-0.2,0.3c-0.1,0.2-0.8,1-1.6,2.1c-0.4,0.5-0.9,1.1-1.2,1.5c-0.2,0.2-0.3,0.4-0.4,0.4l0,0c0,0,0,0-0.1,0.1l0,0l-0.5-0.1l0.3-0.2
			l0.2,0.1c0,0,0-0.1-0.1-0.1c-0.1-0.1-0.1-0.2-0.2-0.3c-0.2-0.2-0.5-0.5-0.8-0.7c-0.5-0.5-1.1-0.9-1.1-0.9l0,0l3.8-2.8l-1.5-0.7
			l0.8-0.9l2.7,1.2l2.7-1.2l0.8,0.9l-1.5,0.7L412.2,354.8L412.2,354.8z M411,349.5L411,349.5c3-5.6,6.1-6.3,7.3-6.3
			c0.4,0,0.7,0.1,0.7,0.1l0,0c0,0,0.2,1.3-0.7,2.6C417.4,347.2,415.5,348.9,411,349.5L411,349.5z M422,351.3c-1.7,1-3.4,1.5-5.2,1.5
			l0,0c-2.9,0-4.8-1.3-4.9-1.3c2.5-1.2,4.6-1.8,6.4-1.8h0c1.5,0,2.4,0.5,2.9,0.8C421.8,350.9,422,351.3,422,351.3L422,351.3z
			 M425.7,350c-0.1,0.3-0.2,0.6-0.4,0.8c-0.2,0.2-0.5,0.4-0.8,0.4l0,0c-0.3,0-0.5-0.1-0.6-0.4c-0.1-0.2-0.1-0.5,0.1-0.8
			c0.2-0.5,0.7-1.1,1.3-1.1c0,0,0,0,0,0l0.1,0c0.1,0,0.3,0,0.4,0.1v0C425.8,348.9,425.9,349.4,425.7,350z M425.7,346.5
			c-0.1,0.3-0.4,0.7-1,1.1c-1,0.7-2.5,1-4.4,1l0,0l0,0c-0.9,0-1.9-0.1-3-0.2l0,0l0,0c2.4-2.3,4.7-2.8,6.2-2.8c0.1,0,0.2,0,0.3,0
			c1.2,0.1,2,0.4,2,0.4C425.8,346,425.8,346.3,425.7,346.5z M422.2,343.4c-0.1,0.3-0.2,0.6-0.4,0.8c-0.2,0.2-0.5,0.3-0.8,0.3l0,0
			c-0.3,0-0.5-0.1-0.6-0.4c-0.1-0.2-0.1-0.5,0.1-0.8c0.2-0.5,0.7-1.1,1.3-1.1c0,0,0,0,0,0l0.1,0c0.1,0,0.3,0,0.4,0.1v0
			C422.3,342.3,422.3,342.8,422.2,343.4z M424,343.8C424,343.8,424,343.8,424,343.8L424,343.8C424,343.8,424,343.8,424,343.8
			c1.6-4.7,4.6-5.4,6.3-5.5c0,0,0.1,0,0.1,0c0,0,0.1,0,0.1,0c0.6,0,1,0.1,1,0.1l0,0c0,0-0.3,1.1-1.4,2.3
			C429.2,341.8,427.3,343.3,424,343.8z M434.5,338.3c-0.1,0.3-0.2,0.6-0.4,0.8c-0.2,0.2-0.5,0.3-0.8,0.3l0,0c-0.3,0-0.5-0.1-0.6-0.4
			c-0.1-0.2-0.1-0.5,0.1-0.8c0.2-0.5,0.7-1.1,1.3-1.1c0,0,0,0,0,0l0.1,0c0.1,0,0.3,0,0.4,0.1v0C434.6,337.2,434.7,337.7,434.5,338.3
			z M435.9,339.7c0,0,0.1,0,0.1,0c0.1,0,0.1,0,0.2,0c0.6,0,1,0.1,1,0.2v0c0,0-0.1,0.3-0.2,0.6c-0.2,0.4-0.5,0.9-1.1,1.4
			c-1.1,1-3.2,2.1-7.3,2.3l0,0l0,0C431.7,340.4,434.5,339.7,435.9,339.7z M436.3,345.9c-1.8,1.8-4.6,2.4-6.6,2.4h-0.2l0,0
			c-1.1,0-1.9-0.2-2.3-0.5c-0.2-0.2-0.3-0.4-0.3-0.6c0-0.2,0.2-0.5,0.6-0.7c0.9-0.7,2.3-1.1,4.1-1.1c0.1,0,0.2,0,0.3,0
			c0.1,0,0.2,0,0.3,0C434.4,345.4,436.3,345.9,436.3,345.9L436.3,345.9L436.3,345.9z M437.3,343.9c-0.1,0.3-0.2,0.5-0.3,0.7
			c-0.2,0.2-0.4,0.3-0.7,0.3l0,0c-0.2,0-0.4-0.2-0.5-0.3c-0.1-0.2,0-0.4,0-0.7c0.1-0.3,0.3-0.5,0.4-0.7c0.1-0.1,0.4-0.3,0.7-0.3
			c0.1,0,0.2,0,0.3,0.1C437.4,342.9,437.4,343.4,437.3,343.9z M435.3,338.4L435.3,338.4L435.3,338.4L435.3,338.4
			c0.9-3,2-5.1,3.2-6.5c1.1-1.2,2-1.4,2.7-1.4c0.1,0,0.1,0,0.1,0c0,0,0.1,0,0.1,0c0.4,0,0.7,0.2,0.8,0.2c-1.3,3.1-3.1,5-4.4,6.1
			C436.5,338,435.4,338.4,435.3,338.4z M445.2,338.2L445.2,338.2C445.2,338.2,445.2,338.2,445.2,338.2c-0.5,0-0.8-0.1-0.9-0.3
			c-0.2-0.3,0-0.6,0.1-0.7c0.3-0.5,1.1-1,2.1-1l0,0c0.2,0,0.4,0,0.6,0.1l0,0c0,0,0.1,0.5-0.1,1C446.9,337.5,446.4,338.2,445.2,338.2
			C445.2,338.2,445.2,338.2,445.2,338.2z M446.1,325.8c-0.1,0.6-0.2,1.7-0.2,2.3c0,0.5-0.4,1.2-0.8,1.9c-0.4,0.6-0.8,1.1-0.8,1.1
			l0,0l0,0l0,0l0,0l0,0c0,0-0.2-2-0.2-4c0-2,2.1-2.7,2.2-2.8l0,0C446.3,324.3,446.2,325,446.1,325.8z M445.2,332.2
			C445.2,332.2,445.3,332.2,445.2,332.2c0.1,0,0.2,0,0.2,0c0.2,0,0.3,0,0.3,0l0,0c-0.2,2.5-2,4-3.4,4.9c-1.6,1-3.1,1.4-3.1,1.4
			c0,0,0,0,0,0l0,0c0,0,0,0,0,0c1.1-2.5,2.4-4.4,3.8-5.4C443.9,332.4,444.7,332.3,445.2,332.2z M447.3,339.6c0,0.2-0.1,0.4-0.3,0.7
			c-0.3,0.5-1.1,1.1-2.8,1.6c-1,0.2-2,0.4-3.1,0.4l0,0c-1.8,0-3.2-0.4-3.2-0.4l0,0l0,0c0,0,1.4-2.1,4.2-2.7c0.7-0.1,1.5-0.2,2.2-0.2
			c0.1,0,0.1,0,0.2,0c1.6,0,2.7,0.3,2.8,0.4l0,0C447.3,339.3,447.3,339.4,447.3,339.6z M453.4,330.8c0,0-0.1,0.8-0.5,1.6
			c-0.3,0.8-1,1.7-2.1,1.9c-1.1,0.2-2.2,0.2-2.9,0.2l0,0c-0.7,0-1.2,0-1.2,0l0,0c0,0,0-0.9,0.8-1.8
			C448.3,331.9,450,330.9,453.4,330.8L453.4,330.8L453.4,330.8z M454.1,324.2c-0.1,1.4-0.4,2.4-1,3.1c-0.6,0.7-1.7,1.5-3,2.3
			c-1.2,0.7-2.3,1.2-2.9,1.3c0,0,0,0-0.1,0l0,0c0,0-0.1,0-0.1,0c0,0-0.1-0.1-0.1-0.1c-0.1-0.1,0-0.3,0-0.5c0.1-0.4,0.2-0.8,0.5-1.5
			c0.5-1.1,1.1-2.1,1.1-2.2l0,0c0,0,0.8-1.1,1.9-2.1c0.6-0.6,1.2-1.1,1.7-1.4c0.7-0.5,1.2-0.7,1.6-0.7h0c0.1,0,0.3,0,0.4,0.1l0,0
			l0,0C454,322.3,454.1,323.1,454.1,324.2z M479,251.7l-0.1,0.2l-0.1,0.2l-0.1,0.7l-0.3,0.3l0,1.1v0.1l-0.2,0.4l-0.3,0.1l-0.2,0
			l-1.2,0.2l-0.3,0.5l-0.6-0.1l-4,2l-0.1,0.1l-1,0.7l-0.1,0.2l-0.3,0.6l-0.3,0.1l-0.4,1.1l-0.3,0.3l-1.3,1l-1.5,0.6l-1.3,0.8
			l-0.7,0.7l-1.4,1.4l-5.3,2.3l-0.6,0.4l-1.2,0.7l-2.4,1.7l-1.1,1l-1.4,1.6l-0.2,0.5l-0.1,0.4l-0.4,1.3l-0.2,0.3l-0.4,0.2l-0.8,0.2
			l-0.5,0.1l-0.2,0l-1,0l-1.1-0.3l-0.6,0.1l-0.6,0.1l-0.8,0.5l-0.1,0l-0.4,0.4l-0.4,0.7l-0.5,1l-0.5,0.4l-0.8,1.6l-0.1,0.3l-0.5,2.3
			l0,0.5l0,0.1l0.6,1.6l-0.1,0.3l-0.3,0.1l-0.3,0.3l0,0l0,0l0.1,0.1l0.5,0l0.3,0.1l0.2,0.2l1.1,1.5l0,0l0.5,0.6l0.6,0.5l0.4,0.8
			l0.1,0.3l0.1,0.2l0.6,0.8l0.9,0.9l0.2,0.2l0,0l0.6,0.5l0,0l1.6,1.3l1.2,1.9l0.2,0.4l0,0.1l0.1,0.1l0.7,0.9l-0.5,0.5l0.5,0.8
			l0.5,0.1l0,0.1l0.1,0.2l-0.3,0.4l-0.2,0l-0.2-0.2l0,0l0,0l-0.3,0.1l-0.2,0.1l-0.1,0l0,0l-0.1,0l-1.5-0.9l-0.4-0.1l-0.7-0.5
			l-0.7,0.1l-0.4,0l-0.5-0.2l-0.6,0.1l-0.8-0.3l-0.3,0l-0.4,0.4l-0.1,0l-0.2,0.1l-1.4,0.1l-1.2,0.5l-0.1,0.2l0,0l0,0l0,0l0,0
			l-0.3,0.5l0,0l-0.6,0.3l-0.4,0.4l-0.6,0.3l-0.4,0.1l-0.2-0.1l-0.5-0.2l-0.1-0.1l-0.8-0.8l-0.7-0.6l-0.6-0.2l-0.1,0l-1.9-0.3
			l-0.7,0c0,0-0.8,0-0.8,0l-2.2,0l-0.2,0l-0.1,0v0l-0.6,0.1l-0.5,0.2l-0.9,0.6l-0.6,0.6l-0.6,1.5l-0.1,1.2l0.1,1.2l-0.2,0.6l0,0.4
			l0,0.5l-1,1.5l-0.4,0.2l-0.4,1.3l-0.2,0.1l-1.6-0.2l-1.3,0.1l-0.4,0.2l-0.3,0.4l-0.4,0.5l-0.5,0.2l-0.4,0.5l-0.7,0.1l-0.3,0.6
			l-1.7,0.1l-0.6,0.2l-0.6,0.3l-0.7,0.5L414,312l-0.1,0.1l-0.3,0.1l-1,0.3l-1.1,0.8l-0.2,0.1l-0.6,0l-0.9,0.5l-0.4,0l-0.6,0.3
			l-0.4-0.1l-0.9-0.2l-0.3,0l-0.7,0.3l-0.1,0.1l-0.1,0.1L406,315l0,0l-0.2,0.1l-6.5-0.5l-1,0.2l0,0l-2.2,0.7l-0.1,0l0,0.1l-0.9,0.4
			l-0.8,0.5l-1,0.9l-1,0.6l-0.4,0.5l0,0.1h0l-0.1,0.5l-0.2,0.2l-0.1,0.6l0,0.5l0.1,0.7l0.2,0.6l0.3,0.4l0.7,0.8l0.3,0.3l0,0.3
			l-0.1,0.2l-0.1,0.1l-0.4,0l-0.8-0.4l-0.3-0.1l-0.7,0l-0.6-0.3l-0.4,0.2l-0.6,0.3l-0.4,0l-0.5-0.1l-0.3,0l-0.3,0.1l-0.1,0.1
			l-0.1-0.2l0-0.1l0.1-0.2l0.4-0.3l0-0.4l-0.2-0.6l-0.3-0.5l-0.4-1.3l0-0.1l-0.6-0.9l-0.7-0.7l0.2-0.3l-0.5,0l-0.1,0l-0.4-0.5
			l-0.4-0.3l-1.5-0.3l-0.7,0.2l-0.8-0.2l-1.2,0.5l-0.5-0.1l-1.6,0.2l-0.5,0.2l-0.1,0.2l-0.7,0.4l-0.4,0.1l-0.4-0.1l-0.5,0l-0.5,0.4
			l-0.4,0l-0.5-0.2l-0.7-0.3l-0.8-0.2l-1.4-0.5l0,0l0,0l0,0l-0.3-0.1l-0.3-0.1l-0.6-0.2l-0.7-0.3l-0.4-0.3l-0.3-0.2l-0.5-0.3
			l-1.1-0.7l-0.6-0.1l-1.3-0.4l-0.6,0l-0.4-0.3l-0.2-0.2l-0.5,0l-0.1,0l-0.5,0.3l-0.3-0.3l-0.3-0.1l0,0l-0.4-0.2l-1.5-1.4l-0.3-0.2
			l-0.5,0.1l-0.5-0.8l-0.4-0.4l-0.3,0l-0.4,0.1l-0.4-0.3l0.2-1.1l-0.1-0.4l-0.3-0.5l0-0.1l0-0.7l-0.5-1.3l-0.1-1l-0.3-0.3l-0.3-0.2
			l-0.2-0.1l-0.3-0.3l-0.3,0l-0.2-0.2l-0.4,0.1l-0.3-0.3l-0.4-1.1l-0.8-0.7l-0.5-0.4l-0.1-0.3l0.1-0.1l0.4-0.4l0.3-0.8l-0.2-0.6
			l-1-1.3l0.1-0.4l0.4-0.3l-0.1-0.4l0.3-0.7l-0.4-1.2l0,0l-0.2-0.3l-0.2-0.4l-0.1-0.1l-0.4-0.9l-1.2-1.6l-0.1-0.7l0-0.1l0.2-1.7
			l0.1-0.3l0.1-0.3l0.1-0.2l0.4,0l0.5,0.3l0,0l0.2,0.1l1.5,1.5l1,0.8l1,0.6l0.9,0.3l1,0.1l0.5,0l1.1-0.2l1.2-0.5l1.3-1l0.6-0.4
			l0.6-0.7l0.2-0.2l0.6-0.9l1-2.2l0.4-0.5l0.5-0.5l0.5-0.5l0.2-0.4l0-0.6l0.2-0.1l0.3,0.1l0.2,0.1l0.4,0.2l0.2,0l0.2,0l0.1,0l0,0
			l0.2-0.1l0.3-0.1v0l0.4-0.2l0.3-0.1l0.2,0l0.3,0l0.3-0.1l0.1-0.1l0.4-0.6l0.3,0l0.4,0.2l0.4-0.2l0,0l0.7-0.3l0.7,0l0.5,0.1
			l0.9,0.4l1,0v0l0.2,0.1l0.3,0.1l0,0l0.8,0.2l0.6,0.1l0.3,0.3l1,0.6l0.9,0.2l0.8,0.6l0.6,0.2l0.7,0.4l0.5,0l0.8-0.1l0.3-0.1l1-0.6
			l1.4-1l0.6-0.4l0.3-0.4l0.9-2.8l0.2-1.1l0.3-1.2l0.1-0.3l0.2-2.2l0-1.4l-0.1-1.4l-0.2-0.5l-0.5-0.5l-0.1-0.4l0-0.4l0-0.7l-0.1-0.7
			l-0.2-0.7l0.1-0.2l0.5,0.1l1.3,0.6l1.8,1.2l1.4,0.8l0.2,0l0.8-0.1l0.3,0.1l0.9,0.5l0.9,0.2l0.8,0l0.6-0.2l0.7-0.2l0.4-0.3l0.4,0
			l2.2,0.7l0.7,0.2l2.5-0.3l0.4,0.4l0.7,0.1l0.3,0.2l0.3,0.1l0.6-0.2l0.3,0l0.7,0.3l0.3,0l0.4-0.2l0.9,0.3l0.4,0.1l1.6,0.2l1.1,0.4
			l0.7-0.2l1.4,0.2l3.1-0.1l0.1,0l0.4,0.1l1-0.1l0.5-0.2l0.9,0l1.1-0.4l2.3-0.2l2.1-0.7l0.1,0l0.3,0.1h0.6l1-0.2l0.3-0.1l0.4-0.1
			l0,0l0,0.5l1.2-0.4l1.1-0.6l0.7-0.6l2.1-1l1.2-0.6l0.6-0.1l1,0l1.5,0.2l0.6-0.2l1,0.1l2-0.6l0.3-0.1l0.1,0l1.5-0.4l1.6-0.6
			l0.9-0.1l0.6-0.2l3.1-1.6l2-1l0.8-0.6l1.1-0.3l1-0.5l1.2-1.3l0.7-0.8l0.1-0.1l0.6-0.3l0.3-0.4l0-0.1l0.1-0.5l0.3,0l0.4,0.2
			l0.5,0.2l0.4,0l0.3-0.2l0.2,0.3l0.5-0.2l0.4,0.1l0.1,0l0.3-0.2l0.2-0.1l0.1-0.1l0.4-0.4l1-0.1l0.5-0.3h0.1l0.5,0l0.4-0.2l0.5-0.4
			l0.6-0.2l0.2-0.2l0.1-0.5l0.2,0l0.3,0.1l0.3-0.1l0.5-0.5l0.4-0.9l0.3-0.2l0.9-0.1l0.5-0.4l0.3-0.1l0.7,0l0.2,0l0.5-0.3l1.1-1
			l0.5-0.2l1.1,0.3l0.8-0.4l1-0.1l0.3-0.2l0.2-0.4l0.1-0.5l0.2-0.1l0.4,0.2l0.5-0.1l0.1,0l1.2-0.8l0.7-0.3l0.7,0l0.2-0.1l0.6-0.2
			l0,0l0,0l0,0l0.1,0.1L479,251.7z"/>
		<path fill="#2F4712" d="M430.2,340.7c1.1-1.2,1.4-2.3,1.4-2.3l0,0c0,0-0.4-0.1-1-0.1c0,0-0.1,0-0.1,0c0,0-0.1,0-0.1,0
			c-1.7,0-4.7,0.8-6.3,5.5C427.3,343.3,429.2,341.8,430.2,340.7z"/>
		<path fill="#2F4712" d="M434.2,337.1L434.2,337.1c-0.1,0-0.1,0-0.1,0c-0.6,0-1.1,0.6-1.3,1.1c-0.1,0.3-0.1,0.6-0.1,0.8
			c0.1,0.2,0.3,0.4,0.6,0.4l0,0c0.3,0,0.6-0.1,0.8-0.3c0.2-0.2,0.3-0.4,0.4-0.8c0.1-0.6,0.1-1.1,0.1-1.1v0
			C434.5,337.1,434.4,337.1,434.2,337.1z"/>
		<polygon fill="#2F4712" points="424,343.8 424,343.8 424,343.8 		"/>
		<path fill="#2F4712" d="M432.3,345.3c-0.1,0-0.2,0-0.3,0c-0.1,0-0.2,0-0.3,0c-1.8,0-3.2,0.4-4.1,1.1c-0.3,0.3-0.5,0.5-0.6,0.7
			c0,0.2,0.1,0.4,0.3,0.6c0.4,0.3,1.2,0.5,2.3,0.5l0,0h0.2c2.1,0,4.9-0.6,6.6-2.4l0,0l0,0C436.3,345.9,434.4,345.4,432.3,345.3z"/>
		<path fill="#2F4712" d="M428.5,344.2L428.5,344.2L428.5,344.2c4.1-0.1,6.3-1.3,7.3-2.3c0.6-0.5,0.9-1.1,1.1-1.4
			c0.2-0.4,0.2-0.6,0.2-0.6v0c0,0-0.4-0.1-1-0.2c-0.1,0-0.1,0-0.2,0c0,0-0.1,0-0.1,0C434.5,339.7,431.7,340.4,428.5,344.2z"/>
		<path fill="#2F4712" d="M437,342.8c-0.3,0-0.5,0.2-0.7,0.3c-0.2,0.2-0.3,0.4-0.4,0.7c-0.1,0.3-0.1,0.5,0,0.7
			c0.1,0.2,0.2,0.3,0.5,0.3l0,0c0.3,0,0.5-0.1,0.7-0.3c0.1-0.2,0.2-0.4,0.3-0.7c0.1-0.5,0.1-0.9,0.1-1
			C437.3,342.9,437.2,342.8,437,342.8z"/>
		<path fill="#2F4712" d="M418.3,346c0.9-1.4,0.7-2.6,0.7-2.6l0,0c0,0-0.3-0.1-0.7-0.1c-1.2,0-4.3,0.6-7.3,6.3l0,0l0,0
			C415.5,348.9,417.4,347.2,418.3,346z"/>
		<path fill="#2F4712" d="M421.3,350.5c-0.5-0.4-1.4-0.8-2.9-0.8h0c-1.8,0-3.9,0.6-6.4,1.8c0.1,0,2,1.3,4.9,1.3l0,0
			c1.8,0,3.5-0.5,5.2-1.5l0,0C422,351.3,421.8,350.9,421.3,350.5z"/>
		<path fill="#2F4712" d="M421.9,342.2L421.9,342.2c-0.1,0-0.1,0-0.1,0c-0.6,0-1.1,0.6-1.3,1.1c-0.1,0.3-0.2,0.6-0.1,0.8
			c0.1,0.2,0.3,0.4,0.6,0.4l0,0c0.3,0,0.6-0.1,0.8-0.3c0.2-0.2,0.3-0.4,0.4-0.8c0.1-0.6,0.1-1.1,0.1-1.1v0
			C422.2,342.2,422,342.2,421.9,342.2z"/>
		<path fill="#2F4712" d="M425.8,348.9c-0.1-0.1-0.3-0.1-0.4-0.1l-0.1,0c0,0,0,0,0,0c-0.6,0-1.1,0.6-1.3,1.1
			c-0.1,0.3-0.2,0.6-0.1,0.8c0.1,0.2,0.3,0.4,0.6,0.4l0,0c0.3,0,0.6-0.1,0.8-0.4c0.2-0.2,0.3-0.4,0.4-0.8
			C425.9,349.4,425.8,348.9,425.8,348.9L425.8,348.9z"/>
		<path fill="#2F4712" d="M423.5,345.6c-1.5,0-3.8,0.5-6.2,2.8l0,0l0,0c1.1,0.1,2.1,0.2,3,0.2l0,0l0,0c1.9,0,3.4-0.3,4.4-1
			c0.6-0.4,0.8-0.8,1-1.1c0.1-0.3,0.2-0.5,0.2-0.5c-0.1,0-0.8-0.4-2-0.4C423.7,345.6,423.6,345.6,423.5,345.6z"/>
		<path fill="#2F4712" d="M442.2,330.7c0,0-0.3-0.2-0.8-0.2c0,0-0.1,0-0.1,0c0,0-0.1,0-0.1,0c-0.6,0-1.6,0.3-2.7,1.4
			c-1.2,1.3-2.3,3.5-3.3,6.5l0,0l0,0l0,0c0,0,1.1-0.4,2.5-1.6C439.1,335.8,440.9,333.8,442.2,330.7z"/>
		<path fill="#2F4712" d="M447.3,339.3c0,0-1.2-0.3-2.8-0.4c-0.1,0-0.1,0-0.2,0c-0.8,0-1.5,0.1-2.2,0.2c-2.8,0.6-4.2,2.6-4.2,2.7
			l0,0l0,0c0,0,1.3,0.4,3.2,0.4l0,0c1.1,0,2.1-0.1,3.1-0.4c1.7-0.4,2.5-1.1,2.8-1.6c0.2-0.3,0.2-0.5,0.3-0.7
			C447.3,339.4,447.3,339.3,447.3,339.3L447.3,339.3z"/>
		<path fill="#2F4712" d="M439.1,338.6c0.1,0,1.6-0.4,3.1-1.4c1.5-0.9,3.2-2.5,3.4-4.9l0,0c0,0-0.1,0-0.3,0c0,0-0.1,0-0.1,0
			c0,0-0.1,0-0.1,0c-0.5,0-1.3,0.2-2.3,0.9C441.5,334.2,440.3,336,439.1,338.6z"/>
		<polygon fill="#2F4712" points="439.1,338.6 439.1,338.6 439.1,338.6 		"/>
		<path fill="#2F4712" d="M454,322.3L454,322.3c-0.1,0-0.2-0.1-0.4-0.1h0c-0.4,0-0.9,0.2-1.6,0.7c-0.5,0.4-1.1,0.8-1.7,1.4
			c-1.1,1-1.9,2.1-1.9,2.1l0,0c-0.1,0.1-0.7,1.2-1.1,2.2c-0.3,0.7-0.5,1.1-0.5,1.5c0,0.2,0,0.3,0,0.5c0,0.1,0.1,0.1,0.1,0.1
			c0,0,0.1,0,0.1,0l0,0c0,0,0,0,0.1,0c0.6-0.1,1.7-0.6,2.9-1.3c1.3-0.8,2.4-1.6,3-2.3c0.6-0.7,0.9-1.7,1-3.1
			C454.1,323.1,454,322.3,454,322.3L454,322.3z"/>
		<path fill="#2F4712" d="M447.6,332.8c-0.8,0.9-0.8,1.8-0.8,1.8l0,0c0,0,0.5,0,1.2,0l0,0c0.7,0,1.8,0,2.9-0.2
			c1.1-0.2,1.8-1.2,2.1-1.9c0.4-0.8,0.5-1.6,0.5-1.6l0,0h0C450,330.9,448.3,331.9,447.6,332.8z"/>
		<polygon fill="#2F4712" points="445.2,338.2 445.2,338.2 445.2,338.2 		"/>
		<path fill="#2F4712" d="M409.9,351.3l-0.8-0.9l-2.7,1.2l-2.7-1.2l-0.8,0.9l1.5,0.7l-3.8,2.8l0,0c0,0,0.5,0.5,1.1,0.9
			c0.2,0.2,0.5,0.5,0.8,0.7c0.1,0.1,0.2,0.2,0.2,0.3c0,0.1,0.1,0.1,0.1,0.1l-0.2-0.1l-0.3,0.2l0.5,0.1l0,0c0,0,0,0,0.1-0.1l0,0
			c0.1-0.1,0.2-0.2,0.4-0.4c0.3-0.4,0.8-1,1.2-1.5c0.8-1,1.5-1.9,1.6-2.1l0.2-0.3l0.2,0.3c0.1,0.2,0.8,1,1.6,2.1
			c0.4,0.5,0.9,1.1,1.2,1.5c0.2,0.2,0.3,0.4,0.4,0.4l0,0c0,0,0,0,0.1,0.1l0,0l0,0l0.5,0l-0.3-0.2l-0.2,0.1c0,0,0-0.1,0.1-0.1
			c0.1-0.1,0.1-0.2,0.2-0.3c0.2-0.2,0.5-0.5,0.8-0.7c0.5-0.5,1.1-0.9,1.1-0.9l0,0l-3.8-2.8L409.9,351.3z"/>
		<path fill="#2F4712" d="M447,337.2c0.2-0.5,0.1-1,0.1-1l0,0c-0.2-0.1-0.4-0.1-0.6-0.1l0,0c-1,0-1.8,0.5-2.1,1
			c-0.1,0.1-0.3,0.4-0.1,0.7c0.1,0.2,0.4,0.3,0.9,0.3C446.4,338.2,446.9,337.5,447,337.2z"/>
		<polygon fill="#2F4712" points="444.3,331 444.3,331 444.3,331 		"/>
		<path fill="#2F4712" d="M444.1,327c0,2,0.2,3.9,0.2,4l0,0l0,0c0,0,0.4-0.5,0.8-1.1c0.4-0.6,0.8-1.3,0.8-1.9c0-0.5,0.1-1.6,0.2-2.3
			c0.1-0.8,0.2-1.5,0.2-1.5l0,0C446.2,324.3,444.1,325.1,444.1,327z"/>
		<path fill="#2F4712" d="M377,344.5c0.1-0.2,0-0.4,0-0.7c-0.1-0.3-0.3-0.5-0.4-0.7c-0.1-0.1-0.4-0.3-0.7-0.3h0
			c-0.1,0-0.2,0-0.3,0.1l0,0c0,0,0,0.5,0.1,1c0.1,0.3,0.2,0.5,0.3,0.7c0.2,0.2,0.4,0.3,0.6,0.3v0C376.7,344.8,376.9,344.7,377,344.5
			z"/>
		<path fill="#2F4712" d="M366.3,336.1c-0.2,0-0.4,0-0.6,0.1l0,0c0,0-0.1,0.5,0.1,1c0.1,0.3,0.6,1,1.8,1c0.5,0,0.8-0.1,0.9-0.3
			c0.2-0.3,0-0.6-0.1-0.7C368.2,336.6,367.4,336.1,366.3,336.1L366.3,336.1z"/>
		<path fill="#2F4712" d="M376.7,339.7c-0.6,0-1,0.2-1,0.2l0,0c0,0,0.1,0.3,0.2,0.6c0.2,0.4,0.5,0.9,1.1,1.4c1.1,1,3.2,2.1,7.3,2.3
			v0C381,340.3,378.2,339.7,376.7,339.7L376.7,339.7z"/>
		<path fill="#2F4712" d="M377.5,338.4L377.5,338.4L377.5,338.4c-0.9-3-2-5.1-3.2-6.5c-1.1-1.2-2-1.4-2.7-1.4c0,0-0.1,0-0.1,0
			c0,0-0.1,0-0.1,0c-0.5,0-0.8,0.2-0.8,0.2c1.3,3.1,3.1,5,4.4,6.1C376.4,338,377.5,338.4,377.5,338.4L377.5,338.4z"/>
		<polygon fill="#2F4712" points="384.4,344.2 384.4,344.2 384.4,344.2 		"/>
		<polygon fill="#2F4712" points="367.7,338.2 367.7,338.2 367.7,338.2 		"/>
		<path fill="#2F4712" d="M370.8,339.1c-0.7-0.1-1.5-0.2-2.2-0.2c-0.1,0-0.1,0-0.2,0c-1.6,0-2.7,0.3-2.7,0.3l0,0c0,0,0,0.1,0,0.3
			c0,0.2,0.1,0.4,0.3,0.7c0.3,0.5,1.1,1.1,2.8,1.6c1,0.2,2,0.4,3.1,0.4l0,0c1.8,0,3.2-0.4,3.2-0.4l0,0l0,0
			C375,341.8,373.5,339.7,370.8,339.1z"/>
		<path fill="#2F4712" d="M366.1,334.6L366.1,334.6c0-0.1,0-1-0.8-1.8c-0.8-0.8-2.4-1.9-5.9-2h0c0,0,0.1,0.8,0.5,1.6
			c0.3,0.8,1,1.7,2.1,1.9c1.1,0.2,2.2,0.2,2.9,0.2l0,0C365.6,334.6,366.1,334.6,366.1,334.6z"/>
		<path fill="#2F4712" d="M362.8,329.5c1.2,0.7,2.3,1.2,2.9,1.3c0,0,0,0,0.1,0c0,0,0.1,0,0.1,0c0,0,0.1-0.1,0.1-0.1
			c0.1-0.1,0-0.3,0-0.5c-0.1-0.4-0.2-0.8-0.5-1.5c-0.5-1-1.1-2.1-1.1-2.2l0,0c0,0-0.8-1.1-1.9-2.1c-0.6-0.6-1.2-1.1-1.7-1.4
			c-0.7-0.5-1.2-0.7-1.6-0.7c-0.1,0-0.2,0-0.3,0.1c0,0.1-0.1,0.9,0,1.9c0.1,1.4,0.4,2.4,1,3.1C360.4,328,361.5,328.8,362.8,329.5z"
			/>
		<polygon fill="#2F4712" points="373.7,338.6 373.7,338.6 373.7,338.6 		"/>
		<path fill="#2F4712" d="M367.5,332.2c-0.2,0-0.3,0-0.3,0l0,0v0c0.2,2.5,2,4,3.4,4.9c1.6,1,3.1,1.4,3.1,1.4
			c-1.1-2.5-2.4-4.4-3.8-5.4C368.9,332.4,368,332.2,367.5,332.2C367.5,332.2,367.5,332.2,367.5,332.2z"/>
		<path fill="#2F4712" d="M366.5,324.3L366.5,324.3c0,0.1,0.1,0.7,0.2,1.5c0.1,0.6,0.2,1.7,0.2,2.3c0,0.5,0.4,1.2,0.8,1.9
			c0.4,0.6,0.8,1.1,0.8,1.1l0,0h0l0,0c0,0,0.2-2,0.2-4C368.7,325.1,366.6,324.3,366.5,324.3z"/>
		<path fill="#2F4712" d="M401.9,349.5c-3-5.6-6.1-6.3-7.3-6.3c-0.4,0-0.7,0.1-0.7,0.1l0,0l0,0c0,0-0.2,1.3,0.7,2.6
			C395.4,347.2,397.3,348.9,401.9,349.5L401.9,349.5L401.9,349.5L401.9,349.5z"/>
		<path fill="#2F4712" d="M391.8,344.5L391.8,344.5c0.3,0,0.5-0.1,0.6-0.4c0.1-0.2,0.1-0.5-0.1-0.8c-0.2-0.6-0.7-1.1-1.4-1.1l0,0
			c-0.1,0-0.3,0-0.4,0.1c0,0.1,0,0.6,0.1,1.1c0.1,0.3,0.2,0.6,0.4,0.8C391.2,344.4,391.5,344.5,391.8,344.5z"/>
		<path fill="#2F4712" d="M392.5,348.6c0.9,0,1.9-0.1,3-0.2h0l0,0c-2.4-2.3-4.7-2.8-6.2-2.8c-0.1,0-0.2,0-0.3,0
			c-1.2,0.1-2,0.4-2,0.4c0,0,0,0.3,0.2,0.5c0.1,0.3,0.4,0.7,1,1.1C389.1,348.3,390.6,348.6,392.5,348.6L392.5,348.6z"/>
		<path fill="#2F4712" d="M394.5,349.7L394.5,349.7c-1.5,0-2.4,0.5-2.9,0.8c-0.5,0.4-0.8,0.8-0.8,0.8l0,0l0,0c1.7,1,3.4,1.5,5.2,1.5
			l0,0l0,0c2.8,0,4.8-1.3,4.9-1.3C398.4,350.3,396.3,349.7,394.5,349.7z"/>
		<path fill="#2F4712" d="M387.5,348.8L387.5,348.8c-0.2,0-0.3,0-0.4,0.1c0,0.1,0,0.6,0.1,1.1c0.1,0.3,0.2,0.6,0.4,0.8
			c0.2,0.2,0.5,0.3,0.8,0.3l0,0c0.3,0,0.5-0.1,0.6-0.4c0.1-0.2,0.1-0.5-0.1-0.8C388.6,349.4,388.1,348.8,387.5,348.8z"/>
		<path fill="#2F4712" d="M379.5,339.4L379.5,339.4c0.3,0,0.5-0.1,0.6-0.4c0.1-0.2,0.1-0.5-0.1-0.8c-0.2-0.6-0.7-1.1-1.4-1.1l0,0
			c-0.1,0-0.3,0-0.4,0.1c0,0,0,0.6,0.1,1.1c0.1,0.3,0.2,0.6,0.4,0.8C378.9,339.3,379.2,339.4,379.5,339.4z"/>
		<path fill="#2F4712" d="M388.8,343.8L388.8,343.8L388.8,343.8c-1.6-4.7-4.6-5.4-6.3-5.5c0,0-0.1,0-0.1,0c0,0-0.1,0-0.1,0
			c-0.6,0-1,0.1-1,0.1c0,0.1,0.3,1.1,1.4,2.3C383.6,341.8,385.5,343.3,388.8,343.8z"/>
		<polygon fill="#2F4712" points="365.8,330.8 365.8,330.8 365.8,330.8 		"/>
		<path fill="#2F4712" d="M385.3,346.4c-1-0.7-2.5-1.1-4.4-1.1c-0.1,0-0.3,0-0.4,0c-2.1,0.1-4.1,0.5-4.1,0.5l0,0l0,0
			c1.8,1.8,4.6,2.4,6.6,2.4l0,0l0.2,0c1.1,0,1.9-0.2,2.3-0.5c0.2-0.2,0.3-0.4,0.3-0.6C385.9,346.9,385.7,346.7,385.3,346.4z"/>
		<path fill="#FFAD2D" d="M478.6,251.6l-0.2,0.1l-0.7,0l-0.7,0.3l-1.2,0.8l-0.1,0l-0.5,0.1l-0.4-0.2l-0.2,0.1l-0.1,0.5l-0.2,0.4
			l-0.3,0.2l-1,0.1l-0.8,0.4l-1.1-0.3l-0.5,0.2l-1.1,1l-0.5,0.3l-0.2,0l-0.7,0l-0.3,0.1l-0.5,0.4l-0.9,0.1l-0.3,0.2l-0.4,0.9
			l-0.5,0.5l-0.3,0.1l-0.3-0.1l-0.2,0l-0.1,0.5l-0.2,0.2l-0.6,0.2l-0.5,0.4l-0.4,0.2l-0.5,0h-0.1l-0.5,0.3l-1,0.1l-0.4,0.4l-0.1,0.1
			l-0.2,0.1l-0.3,0.2l-0.1,0l-0.4-0.1l-0.5,0.2l-0.2-0.3l-0.3,0.2l-0.4,0l-0.5-0.2l-0.4-0.2l-0.3,0l-0.1,0.5l0,0.1l-0.3,0.4
			l-0.6,0.3l-0.1,0.1l-0.7,0.8l-1.2,1.3l-1,0.5l-1.1,0.3l-0.8,0.6l-2,1l-3.1,1.6l-0.6,0.2l-0.9,0.1l-1.6,0.6l-1.5,0.4l-0.1,0
			l-0.3,0.1l-2,0.6l-1-0.1l-0.6,0.2l-1.5-0.2l-1,0l-0.6,0.1l-1.2,0.6l-2.1,1l-0.7,0.6l-1.1,0.6l-1.2,0.4l0-0.5l0,0l-0.4,0.1
			l-0.3,0.1l-1,0.2H425l-0.3-0.1l-0.1,0l-2.1,0.7l-2.3,0.2l-1.1,0.4l-0.9,0l-0.5,0.2l-1,0.1l-0.4-0.1l-0.1,0l-3.1,0.1l-1.4-0.2
			l-0.7,0.2l-1.1-0.4l-1.6-0.2l-0.4-0.1l-0.9-0.3l-0.4,0.2l-0.3,0l-0.7-0.3l-0.3,0l-0.6,0.2l-0.3-0.1l-0.3-0.2l-0.7-0.1l-0.4-0.4
			l-2.5,0.3l-0.7-0.2l-2.2-0.7l-0.4,0l-0.4,0.3l-0.7,0.2l-0.6,0.2l-0.8,0l-0.9-0.2l-0.9-0.5l-0.3-0.1l-0.8,0.1l-0.2,0l-1.4-0.8
			l-1.8-1.2L387,270l-0.5-0.1l-0.1,0.2l0.2,0.7l0.1,0.7l0,0.7l0,0.4l0.1,0.4l0.5,0.5l0.2,0.5l0.1,1.4l0,1.4l-0.2,2.2l-0.1,0.3
			l-0.3,1.2l-0.2,1.1l-0.9,2.8l-0.3,0.4l-0.6,0.4l-1.4,1l-1,0.6l-0.3,0.1l-0.8,0.1l-0.5,0l-0.7-0.4l-0.6-0.2l-0.8-0.6l-0.9-0.2
			l-1-0.6l-0.3-0.3l-0.6-0.1l-0.8-0.2l0,0l-0.3-0.1l-0.2-0.1v0l-1,0l-0.9-0.4l-0.5-0.1l-0.7,0l-0.7,0.3l0,0l-0.4,0.2l-0.4-0.2
			l-0.3,0l-0.4,0.6l-0.1,0.1l-0.3,0.1l-0.3,0l-0.2,0l-0.3,0.1l-0.4,0.2v0l-0.3,0.1l-0.2,0.1l0,0l-0.1,0l-0.2,0l-0.2,0l-0.4-0.2
			l-0.2-0.1l-0.3-0.1l-0.2,0.1l0,0.6l-0.2,0.4l-0.5,0.5l-0.5,0.5l-0.4,0.5l-1,2.2l-0.6,0.9l-0.2,0.2l-0.6,0.7l-0.6,0.4l-1.3,1
			l-1.2,0.5l-1.1,0.2l-0.5,0l-1-0.1l-0.9-0.3l-1-0.6l-1-0.8l-1.5-1.5l-0.2-0.1l0,0l-0.5-0.3l-0.4,0l-0.1,0.2l-0.1,0.3l-0.1,0.3
			l-0.2,1.7l0,0.1l0.1,0.7l1.2,1.6l0.4,0.9l0.1,0.1l0.2,0.4l0.2,0.3l0,0l0.4,1.2l-0.3,0.7l0.1,0.4l-0.4,0.3l-0.1,0.4l1,1.3l0.2,0.6
			l-0.3,0.8l-0.4,0.4l-0.1,0.1l0.1,0.3l0.5,0.4l0.8,0.7l0.4,1.1l0.3,0.3l0.4-0.1l0.2,0.2l0.3,0l0.3,0.3l0.2,0.1l0.3,0.2l0.3,0.3
			l0.1,1l0.5,1.3l0,0.7l0,0.1l0.3,0.5l0.1,0.4l-0.2,1.1l0.4,0.3l0.4-0.1l0.3,0l0.4,0.4l0.5,0.8l0.5-0.1l0.3,0.2l1.5,1.4l0.4,0.2l0,0
			l0.3,0.1l0.3,0.3l0.5-0.3l0.1,0l0.5,0l0.2,0.2l0.4,0.3l0.6,0l1.3,0.4l0.6,0.1l1.1,0.7l0.5,0.3l0.3,0.2l0.4,0.3l0.7,0.3l0.6,0.2
			l0.3,0.1l0.3,0.1l0,0l0,0l0,0l1.4,0.5l0.8,0.2l0.7,0.3l0.5,0.2l0.4,0l0.5-0.4l0.5,0l0.4,0.1l0.4-0.1l0.7-0.4l0.1-0.2l0.5-0.2
			l1.6-0.2l0.5,0.1l1.2-0.5l0.8,0.2l0.7-0.2l1.5,0.3l0.4,0.3l0.4,0.5l0.1,0l0.5,0l-0.2,0.3l0.7,0.7l0.6,0.9l0,0.1l0.4,1.3l0.3,0.5
			l0.2,0.6l0,0.4l-0.4,0.3l-0.1,0.2l0,0.1l0.1,0.2l0.1-0.1l0.3-0.1l0.3,0l0.5,0.1l0.4,0l0.6-0.3l0.4-0.2l0.6,0.3l0.7,0l0.3,0.1
			l0.8,0.4l0.4,0l0.1-0.1l0.1-0.2l0-0.3l-0.3-0.3l-0.7-0.8l-0.3-0.4l-0.2-0.6l-0.1-0.7l0-0.5l0.1-0.6l0.2-0.2l0.1-0.5h0l0-0.1
			l0.4-0.5l1-0.6l1-0.9l0.8-0.5l0.9-0.4l0-0.1l0.1,0l2.2-0.7l0,0l1-0.2l6.5,0.5l0.2-0.1l0,0l0.2-0.6l0.1-0.1l0.1-0.1l0.7-0.3l0.3,0
			l0.9,0.2l0.4,0.1l0.6-0.3l0.4,0l0.9-0.5l0.6,0l0.2-0.1l1.1-0.8l1-0.3l0.3-0.1l0.1-0.1l1.1-0.6l0.7-0.5l0.6-0.3l0.6-0.2l1.7-0.1
			l0.3-0.6l0.7-0.1l0.4-0.5l0.5-0.2l0.4-0.5l0.3-0.4l0.4-0.2l1.3-0.1l1.6,0.2l0.2-0.1l0.4-1.3l0.4-0.2l1-1.5l0-0.5l0-0.4l0.2-0.6
			l-0.1-1.2l0.1-1.2l0.6-1.5l0.6-0.6l0.9-0.6l0.5-0.2l0.6-0.1v0l0.1,0l0.2,0l2.2,0c0,0,0.8,0,0.8,0l0.7,0l1.9,0.3l0.1,0l0.6,0.2
			l0.7,0.6l0.8,0.8l0.1,0.1l0.5,0.2l0.2,0.1l0.4-0.1l0.6-0.3l0.4-0.4l0.6-0.3l0,0l0.3-0.5l0,0l0,0l0,0l0,0l0.1-0.2l1.2-0.5l1.4-0.1
			l0.2-0.1l0.1,0l0.4-0.4l0.3,0l0.8,0.3l0.6-0.1l0.5,0.2l0.4,0l0.7-0.1l0.7,0.5l0.4,0.1l1.5,0.9l0.1,0l0,0l0.1,0l0.2-0.1l0.3-0.1
			l0,0l0,0l0.2,0.2l0.2,0l0.3-0.4l-0.1-0.2l0-0.1l-0.5-0.1l-0.5-0.8l0.5-0.5l-0.7-0.9l-0.1-0.1l0-0.1l-0.2-0.4l-1.2-1.9l-1.6-1.3
			l0,0l-0.6-0.5l0,0l-0.2-0.2l-0.9-0.9l-0.6-0.8l-0.1-0.2l-0.1-0.3l-0.4-0.8l-0.6-0.5l-0.5-0.6l0,0l-1.1-1.5l-0.2-0.2l-0.3-0.1
			l-0.5,0l-0.1-0.1l0,0l0,0l0.3-0.3l0.3-0.1l0.1-0.3l-0.6-1.6l0-0.1l0-0.5l0.5-2.3l0.1-0.3l0.8-1.6l0.5-0.4l0.5-1l0.4-0.7l0.4-0.4
			l0.1,0l0.8-0.5l0.6-0.1l0.6-0.1l1.1,0.3l1,0l0.2,0l0.5-0.1l0.8-0.2l0.4-0.2l0.2-0.3l0.4-1.3l0.1-0.4l0.2-0.5l1.4-1.6l1.1-1
			l2.4-1.7l1.2-0.7l0.6-0.4l5.3-2.3l1.4-1.4l0.7-0.7l1.3-0.8l1.5-0.6l1.3-1l0.3-0.3l0.4-1.1l0.3-0.1l0.3-0.6l0.1-0.2l1-0.7l0.1-0.1
			l4-2l0.6,0.1l0.3-0.5l1.2-0.2l0.2,0l0.3-0.1l0.2-0.4v-0.1l0-1.1l0.3-0.3l0.1-0.7l0.1-0.2l0.1-0.2l0.3-0.2l-0.1-0.1L478.6,251.6z"
			/>
		<polygon fill="#FFAD2D" points="479.2,251.4 479.2,251.4 479.2,251.4 		"/>
	</g>
	<polygon fill="none" stroke="#999999" stroke-width="0.25" stroke-linecap="round" stroke-linejoin="round" points="617.6,178.9
		611.7,181.3 580,195.4 572.6,200.9 559.3,207.7 553.6,209.2 548.8,207.9 541,217.7 528.3,225.1 495.6,238.2 488.6,238.7
		484.6,240.4 472.6,241.3 458.2,249.4 417.8,255.9 392.3,253.1 389.2,251.6 356.5,250 348.6,247.8 344.7,247.2 341,246.1 333.8,242
		329.6,241.3 331.8,248.1 332.5,254.4 332.2,268.4 331.4,276.2 328.8,283 325,288.5 320.2,292.4 313.9,294.1 309.1,292.4
		304.7,289.6 299.3,288 293.4,287.2 293.3,287.7 293,287.7 292.9,287.2 287.5,286.6 284.2,286.6 284.2,286.5 280.5,287 277.4,288.3
		277.2,288.3 274.3,289.6 272.6,290 271.5,289.8 270,288.7 269.1,288.5 268,289 267.6,290 267.4,291.1 264.5,293.1 262.6,296.6
		260.2,303.2 256.2,308.6 251,313.6 244.7,316.9 237.5,317.1 234.2,315.8 231.3,313.4 226.1,307.7 222.6,305.3 220.6,306.6
		220,310.6 220.6,315.8 222,319.1 225.7,325.6 226.5,329.6 226.5,334.2 226.8,336.3 230,341.8 228.5,344.4 228.5,347 229.6,349.6
		230.9,351.8 232.4,353.4 236.1,355.8 238.1,357.3 242,368.4 242,370.4 242.7,371.3 243.8,377.4 244.9,378.5 251.9,383.9
		254.7,385.7 257.8,387 265.2,387.9 268.7,388.7 271.9,390 280.9,395.5 287.7,398.6 294.9,399.9 302.1,399 304.1,398.3 304.1,398.3
		313.2,395 317,394.6 320.9,395 326.9,396.5 327,396.6 329.8,397.2 330.2,397.2 330.2,397.2 330.2,397.2 330.3,397.2 330.3,397.2
		330.7,397 331.1,400.7 336.1,410.3 335.5,414.3 335.5,415.6 351,415.6 351,414.3 347.3,409.5 347.3,403.8 348.3,401.8 348.4,401.8
		350.1,398.3 358.2,390.9 360.6,389.2 363.2,388.5 375.7,387 388.1,388.5 390.5,388.1 394.2,385.5 396.8,384.1 409.7,381.5
		414.7,378.5 415,372.6 417.6,375.6 421.7,374.8 426.7,372.4 432.2,371 434.6,370 436.8,367.8 438.5,365.4 440.1,363.8 442.3,363.2
		447.9,363.2 450.5,362.3 451.2,361.2 452.3,357.5 453.4,356.6 455.1,356 455.6,354.2 455.1,350.1 455.3,346.4 456.2,342.7
		457.3,339.2 458.6,336.6 463.2,332 466.9,330.6 467,330.6 469.8,329.5 477.2,329.1 478.1,329.3 478.1,329.3 478.1,329.3
		480.3,329.7 480.3,330.2 480.7,330.2 480.7,330.2 481.3,330.2 481.9,330 484.9,330.6 487.5,332.4 492.3,337.2 494.9,338
		497.1,337.4 498.6,335.6 499.5,334.6 499.2,334.4 499.4,334.2 499.7,334.4 500.3,333.7 501.6,332.2 503.4,331.1 511.5,328.7
		520.9,327.4 522.8,328.5 524.8,330.6 529.1,332 533.5,332.4 535.9,332.2 533.9,330.6 531.5,327.2 529.6,323.4 527.6,317.8
		525,314.7 522.4,312.8 519.2,311.8 513.7,307.2 511.7,304.6 510.8,302 509.3,299.8 502.3,292.6 499.9,290.9 501.2,274.3
		502.1,270.3 504.1,266.4 508.9,259.4 512.4,257.4 516.5,257.9 520.9,259 524.8,258.8 527.4,256.8 529,254 532,247.2 536.2,242.2
		541.2,237.8 578.5,215.3 594,201.8 610.6,191.1 611.5,190.4 615.6,189.6 617,189.1 617,187.6 617.6,181.5 618,180.8 618.5,180
		619.1,179.1 620,178.4 	"/>
</g>

</svg>
