<?xml version="1.0" encoding="utf-8"?>

<svg version="1.2" baseProfile="tiny" xmlns="http://www.w3.org/2000/svg" xmlns:xlink="http://www.w3.org/1999/xlink" x="0px"
	 y="0px" viewBox="220.1 183.3 400 227.3" xml:space="preserve">

<g id="Czech_Republic">
	<g>
		<polygon fill="#D7141A" points="304.8,373.8 305.3,373.6 306.6,373.9 307.7,374.5 308.6,375.3 309.6,375.8 310.7,375.7
			310.9,377.5 311.4,379.1 312.3,380.5 313.4,381.5 314.5,382 316.7,382.4 317.6,382.8 318.6,385.1 321.4,390.8 322.6,392
			325,392.7 326.1,393.3 327.2,394.1 328.5,395.2 332.5,397.4 333,398 334,399.5 334.4,400.2 334.7,400.5 335.1,400.7 335.5,400.9
			335.6,401.4 335.6,401.9 335.3,402 335,401.9 334.8,402.1 334.4,402.9 334.1,403 334,403.3 334.3,404.5 334.6,405 335.6,406.2
			336.2,406.7 338.2,407.6 346.6,408.5 352.5,410.6 353,410.5 353.5,410.3 354.7,409.3 357.7,408 358.7,407 360,403.5 360.9,402.9
			362.4,404.7 364.8,405.9 365.5,406.1 366.4,405.9 368.1,405.1 369,405 369.4,405.3 369.5,405.9 369.5,406.5 369.7,406.8
			370.2,406.8 371.1,406.5 371.4,406.6 372,407.4 372.4,408.3 372.8,408.9 373.8,408.9 375,407.7 375.3,405.4 375.3,402.7
			375.5,400.2 376.6,398.4 379.8,395.7 380.1,394 380.6,392.9 380.8,391.8 381.2,390.9 382.1,390.6 385.2,391.1 388.2,392.3
			389.4,392.3 390.1,390.7 389.9,390.6 389.7,390 389.4,389.2 389.4,388.6 389.4,388 389.9,386.8 391.1,381.2 391.1,378.7
			390.9,376 390.9,373.4 391.7,371.6 391.7,371.1 391.7,370.6 391.7,370.3 391.9,370.2 393.2,370 396.5,371.1 401.1,371.5
			401.6,372.8 401.8,374 401.8,375.2 401.4,376.5 402.6,376.5 407.1,375.3 407.4,375.1 408.2,374.1 408.5,373.7 408.6,372.5
			408.8,372.1 409.3,372.1 409.6,372.5 409.8,372.9 410.1,373.1 412.9,373.1 414.4,373.4 417.2,374.9 419.8,375.8 421,376.6
			424,379.1 428.9,381 433.5,383.6 434.8,383.9 436.2,383.9 437.1,383.6 439.2,382.5 439.7,382.4 441.5,382.4 441.9,382.7
			442.1,383.8 442.4,384.2 442.8,384.4 443.9,384.4 444.6,384.9 445,385.1 445.5,385.1 444.9,385.9 445.6,385.8 446.3,385.8
			446.8,386.2 446.9,387.1 447.8,386.9 448.1,387.3 448.1,387.9 448.2,388.3 454.2,392.6 457.3,394 462.8,393.7 471,394.9
			471.1,394.8 472.4,394.6 473.2,395.2 473.5,395.3 474.5,395 475.1,394.4 478.1,389.3 479.2,388.6 480.9,388.8 481.5,388.8
			482.5,388.4 483,388.3 483.5,388.5 484.5,389.2 488.1,390.2 489.2,390.4 490.3,390.8 490.8,392 491,393.2 491.4,394.3
			492.3,394.8 493.2,394.9 495.4,394.9 496.3,395.2 498.5,396.6 499.6,397 500.7,396.9 503,396.1 504,396.1 505.4,398.1
			506.2,403.9 508.3,406.3 508.5,404.6 509.4,403.5 510,402.2 513,393.6 514.5,391.1 516.5,389.4 517.3,388.2 517.7,386.5
			518.2,385.7 521.4,383.4 524.1,382.9 526.9,383.6 533.7,387.1 534.7,386.8 537,385.3 538.4,384.9 539.2,385.3 541,387.3
			543.1,387.6 554.5,383.2 555.6,382.4 557.6,378.9 558.5,378 560,377.8 561.2,378 562.3,378 563.5,376.9 563.9,375.7 564.4,372.9
			564.7,371.6 565.5,370 566.8,369.2 568.2,369 571.4,369.2 573.4,368.3 575.1,366.7 576.4,364.6 576.8,362.6 576.7,358
			576.9,355.6 577.7,352.6 578.8,349.9 580.2,347.5 581.9,345.9 589.9,342.8 593.4,340 593.6,335.6 595.3,336 596.6,335.1
			599.2,332 601.1,330.9 601.6,330.4 601.8,329.6 602,327.9 602.3,327.2 603.5,326.4 606.1,326.8 607.8,325.9 608.2,325.8
			608.6,325.9 610.6,326.9 612.3,327.4 613.9,327.3 616.4,325.1 617.5,324.7 619.9,324.6 620.1,323.1 619.9,321.3 619.1,317.4
			618.8,316.6 618.1,315 617.8,314.1 617.5,311 617.3,310.3 616.4,309.6 615.5,309.7 614.6,310.2 613.7,310.3 612.9,309.8
			611.8,308.4 611,307.7 610.2,307.5 608.4,307.4 607.6,306.8 607.2,306.2 606.6,303.5 605.2,300.6 604.2,297.8 604.2,297 420,297
					"/>
		<polygon fill="#D7141A" points="301.9,375.8 303.3,376.5 303.9,374.9 304.4,374.1 301.9,375.8 		"/>
		<polygon fill="#FFFFFF" points="604,291.6 603.6,290.1 603.2,288.4 602.3,287.9 600,289.4 598.6,289.4 594.3,286.9 592,286.1
			589.6,286.4 589.7,286.4 589.8,286.5 589.9,286.5 589.9,286.7 588.3,288.1 587.5,288.2 586.3,287.3 585.9,286.7 585.6,285.3
			585.3,284.7 584.7,284.2 583.2,283.9 582.6,283.6 580.7,282 579.8,281.5 576,280.7 575.3,279.8 575.7,278.1 572.2,275.8
			570.5,275.4 570.7,277.4 571.1,277.6 571.5,277.4 572,277.4 572.5,278.1 572.5,279 572.2,279.4 570.3,280 567.9,280.1
			566.9,280.4 565.2,281.9 563,282.6 560.9,282.1 557,278.3 556.3,277.4 555.9,276.3 555.5,275.2 555.1,274.2 554.5,273.4
			553.9,272.8 553.8,272.3 553.9,271.8 554.5,271.4 554.5,271.1 553.6,270.9 552,270.1 551.3,269.9 550.6,270 550.1,270.3
			549.5,270.4 548.6,270 545.7,266.4 545.5,265.7 546,264.8 546.6,264.5 549.5,264.4 551,263.8 553.6,262.3 554.8,261.3
			555.3,259.9 554.4,258.2 553.8,257.6 553.6,256.7 553.8,255.8 554.5,254.1 554.6,253.8 554.6,253.3 554.5,253 553.3,251.6
			553,251.3 552,250.9 551.6,251.1 551.5,251.8 551.2,252.5 549.4,255 548.4,255.8 547,256.2 541.7,255.2 538.9,255.5 537.2,257.6
			536.9,257.8 536.6,257.9 536.3,257.8 536,257.6 535.5,255.9 534.2,254.8 532.9,254.9 532.2,256.6 531.4,256 530.9,255.1
			530.9,253.9 530.9,252.7 530.6,252.5 530.4,252.2 530.2,251.9 530.1,251.5 531.2,251 529.9,250.5 527.2,250.6 525.7,250.2
			523.7,248.9 523.1,248.3 522.7,247.5 522.3,246.3 522.1,245.2 522.2,245 521.6,244.8 519.8,245.2 519,245.2 518.2,244.8
			516.8,243.6 516.1,243.2 510,241.5 508.7,241.7 506.2,240.1 504.8,240 503.2,240.9 503.2,242.2 505.1,245 505.8,246.7
			506.2,248.7 506.8,250.4 508,251.6 509.4,252.4 510.5,253.6 511.1,255.2 511.2,257.4 512,258.5 512,259.7 511.7,260.5
			510.9,260.2 510.3,259.2 510,258.7 509.7,258.5 508.8,258.5 508.7,258.7 508.7,259.8 508.6,260.2 508,260.2 506.9,259.8
			506.4,259.8 505.7,260.3 504.8,261.7 504.2,262.2 502.8,262.6 501.6,262.5 500.4,262.6 499.1,263.8 498.1,265.4 497.4,266.7
			496.6,267.7 495.3,268.7 493.4,271.2 491.1,271.4 488.6,270 486.6,268.2 485.6,266.8 485,265.6 484.4,262.5 483.7,260.8
			481.9,258.9 481.2,257.6 480.3,256.4 478.9,253.6 478,252.5 476.7,251.6 474.1,250.6 473.1,249.2 472.9,248.4 473,247.5
			472.9,246.6 472.5,245.8 472,245.6 469.3,245.6 468.7,245.8 468.2,246.2 467.8,246.3 467,245.7 466.7,245.2 466,242.8
			464.1,242.4 463.5,240.8 464,239.3 465.2,239.6 465.1,239.3 464.8,238.2 465.2,238.2 465.7,237.9 466,237.7 466.9,237
			467.9,236.4 468.8,235.6 469.3,234.4 470.2,234.1 472.1,234.7 473.1,234.4 473.7,233.7 474.8,232.5 475.4,231.8 474.8,232.2
			474.8,231.7 474.9,231 475,230.5 475.3,230 475.4,229.8 475.4,229.5 475.2,228.7 477.1,228 476.6,226.2 471.5,220.8 469.7,219.8
			467.8,219.3 465.6,219.3 464.9,219.4 464.4,220.4 464,221.6 463.2,222.5 462.3,222.7 461.4,222.2 459.5,220.8 457,220.6
			453.3,224.2 450.8,224.6 450.7,224.3 450.7,223.7 450.8,223.4 451.6,222.8 451.8,221.7 451.5,220.4 451,219.1 450.2,217.6
			449.4,216.9 448.4,216.7 444.9,218.1 443.3,218.1 442.9,217.9 439.9,212.9 439.8,212.3 439.7,211.6 438.2,211.5 433.3,212.6
			432.7,212.4 432.2,212 431.4,210.8 430.7,210.3 418.9,206.2 416.4,206.4 415.9,207.1 415.3,208 414.6,208.7 413.8,208.4
			413.5,207.7 413.5,206.8 413.7,205.8 413.7,204.9 412.9,203.1 412,202.4 411,201.9 409.8,200.9 409.2,199.8 408.6,198.3
			408,196.6 407.9,195.3 408.3,193.6 408.8,192.6 408.9,191.7 408,190.2 406.4,189.4 403,189.4 402.5,187.9 402.2,186.5
			401.6,186.2 400.8,186.7 400.3,187.9 400.1,188.9 399.4,189.1 398.6,188.6 397.9,187.9 397.4,187.1 394.4,186.4 393.3,185.3
			393.2,186.1 392.8,186.5 392,187.1 391.7,187.2 391.3,187.4 391,187.6 390.7,187.9 391,188.9 392,189.7 392.8,191 392.9,193.7
			392.8,194.2 392.2,194.9 392,195.2 392,195.7 392,196.1 392.1,196.4 392.2,199.6 392,200.4 385.3,199.9 383.1,200.5 381.8,200.4
			381,203 380.4,204.1 379.8,204.8 378.9,205 377.6,204.9 375.4,204.4 373.1,202.7 372.2,202.2 370.2,201.6 369.9,201 370.1,199.3
			371.1,196.9 371.4,195.6 371.1,194.6 370.4,194.6 367,195.8 366.4,195.2 366.7,194.1 367.4,192.8 367.9,191.7 367.9,190.3
			367.8,189.4 367.3,188.6 366.6,187.7 365.8,187.1 364.3,186.8 363.5,186.2 363,185.5 362.8,185 362.6,184.4 362.3,183.6
			361.7,184.9 361.1,185.3 358.9,185.1 357.3,185.9 356.6,185.9 355.9,185.5 355.6,185 355.3,184.4 354.8,184 352.6,183.3
			350.7,183.6 349.3,185 348.5,187.6 347.8,188.6 348.5,189.1 350.5,189.4 351.7,189.8 351.6,190 351.1,190.4 351,191.4
			352.5,192.9 354.7,193.5 356.2,194.4 355.9,196.7 354.2,198.2 349.5,197.8 347.4,198.3 346.7,198.9 345.6,200.5 344.9,201.2
			335.6,205.4 334.5,205.5 332.4,205.2 331.2,205.4 330.6,205.9 329.7,207.1 329.1,207.5 328.3,207.7 327.7,207.5 327.2,207.5
			326.7,208.2 326.5,209.1 326.6,209.9 326.7,210.6 326.7,211.1 326.3,211.7 325.9,211.8 325.5,211.8 323.8,212.9 322.8,213.1
			320.1,212.8 318.8,212.9 316.6,213.8 315.5,214 310.1,214 307.4,214.5 305,216 305.6,217.4 305.4,218.7 304.6,219.7 304.4,219.9
			420,297 604.2,297 604.2,295.4 605.8,293.5 604.2,292.7 		"/>
		<polygon fill="#11457E" points="304.4,219.9 303.6,220.5 304,221.2 303.9,221.8 303.6,222.2 303,222.6 301.9,223.9 301,224.8
			299.8,225.1 298.5,224.4 298.1,223.9 297.3,222.5 297,222.1 296.3,221.8 296.1,221.9 296.1,222.2 295.8,222.6 293.5,224.2
			293.1,224.8 292.6,226.6 291.3,227.2 290.3,226.8 289.4,226.1 288.2,226 286.3,231.3 285.5,232.9 284,234 280.9,233.9
			279.2,234.4 278.6,234.6 278.1,234.7 277.6,234.6 277.1,234.4 276.6,234.1 276.2,234.1 275.7,234.2 275.1,234.6 274.8,238.4
			274.4,240.1 273.6,241.1 271.8,242.8 269.8,242.6 264.3,239.3 263.8,239.1 263.2,239.2 262.9,239.8 262.5,240 261.5,239.8
			260.5,239.9 259.5,240.3 258.8,241 257.4,243 256.8,243.7 256,243.7 252.8,243.2 248.4,243.4 246.1,244.2 244.4,245.6 244,246
			243.7,246.4 243.6,246.9 243.4,247.2 243.4,247.5 243.5,247.8 243.5,248.1 243.4,248.5 243.1,248.7 242.6,248.7 242.4,248.8
			241.7,249.4 239.9,250.4 239.3,251 237.4,254.3 236.7,255 236.1,255.4 235.6,256.2 235.4,257.7 234.2,259.2 233.9,260
			233.7,261.7 233.8,262.8 234.2,263.8 234.2,264.4 233.4,265 232.4,264.8 231.8,263.8 231.1,261.3 231,260.9 230.9,260.3
			230.7,259.7 230.5,259.4 229.5,258.3 229.3,258.1 229.2,257.9 229.3,257.7 229.5,257.6 229.5,257.5 229.6,257.4 229.8,257.4
			230.1,256.9 230.1,256.5 229.8,256.2 229.4,256 227.7,256 226.8,255.7 226.1,255.1 225.9,254.3 225.9,252.8 225.5,251.9
			224.4,251.1 220.1,250.8 221.4,252.2 221.9,253 222.2,254.4 222.1,255.6 221.7,256 221.1,256.4 220.4,257.5 221,258.6
			223.9,260.4 225.3,262.1 226,263.1 226.4,264.2 226.6,265.6 226.2,267.7 226.2,269.1 226.7,270.5 227.5,271.3 228.5,271.8
			229.3,272.5 229.8,273.4 230,274.4 230,275.2 230.2,275.8 239.1,280.6 239.2,280.6 240.1,281.5 242.3,281.8 243.2,282.7
			243.4,284.1 242.9,285.3 242.9,286.3 245.3,287.7 246.1,288 246.5,288.7 246.3,290.5 245.8,291.9 244.4,294.4 244,295.8
			242.8,295.5 242.4,296.7 242.4,298.7 242.3,300.1 241.3,301.1 238.8,302.2 238.2,303.6 238.5,304.5 239.1,305.7 240.2,307.5
			241.1,308.3 242,308.9 244,309.8 244.8,310.3 245.3,311.2 245.4,312.4 244.9,313.5 245,313.6 245.5,313.8 245.2,314.6
			245.2,314.8 245.8,315.6 247.2,316.4 247.8,317 248.2,318 248.5,320 248.7,321.1 249.5,322.3 249.8,323.1 250.3,323.8 251,324.5
			251.6,324.7 252.2,324.6 252.7,325 252.7,326.6 252.9,329.5 253.2,331 253.9,332.4 255.1,333.3 257.7,334.6 258.9,335.9
			260.9,340.2 261.7,341.1 262.9,341.6 266.4,342.1 267.6,342 267.3,340.8 268.1,340.5 270.5,341.1 271.4,341.6 272.2,342.3
			273.9,344 274.9,344.5 275.2,345.2 275.3,346.1 275.6,346.9 277.4,349.2 278.2,349.6 283.7,357.1 284.5,358.9 285.4,360.4
			287,361.4 290.6,361.5 291.8,362 292.6,362.6 294.3,365 296.9,367.5 297.5,369 297.5,371.6 298.4,372.9 300.1,374.5 301.9,375.8
			304.4,374.1 304.5,374 304.8,373.8 420,297 		"/>
	</g>
	<polygon fill="none" stroke="#999999" stroke-width="0.25" stroke-linecap="round" stroke-linejoin="round" points="619.1,317.4
		618.8,316.6 618.1,315 617.8,314.1 617.5,311 617.3,310.3 616.4,309.6 615.5,309.7 614.6,310.2 613.7,310.3 612.9,309.8
		611.8,308.4 611,307.7 610.2,307.5 608.4,307.4 607.6,306.8 607.2,306.2 606.6,303.5 605.2,300.6 604.2,297.8 604.2,295.4
		605.8,293.5 604.2,292.7 604,291.6 603.6,290.1 603.2,288.4 602.3,287.9 600,289.4 598.6,289.4 594.3,286.9 592,286.1 589.6,286.4
		589.7,286.4 589.8,286.5 589.9,286.5 589.9,286.7 588.3,288.1 587.5,288.2 586.3,287.3 585.9,286.7 585.6,285.3 585.3,284.7
		584.7,284.2 583.2,283.9 582.6,283.6 580.7,282 579.8,281.5 576,280.7 575.3,279.8 575.7,278.1 572.2,275.8 570.5,275.4
		570.7,277.4 571.1,277.6 571.5,277.4 572,277.4 572.5,278.1 572.5,279 572.2,279.4 570.3,280 567.9,280.1 566.9,280.4 565.2,281.9
		563,282.6 560.9,282.1 557,278.3 556.3,277.4 555.9,276.3 555.5,275.2 555.1,274.2 554.5,273.4 553.9,272.8 553.8,272.3
		553.9,271.8 554.5,271.4 554.5,271.1 553.6,270.9 552,270.1 551.3,269.9 550.6,270 550.1,270.3 549.5,270.4 548.6,270 545.7,266.4
		545.5,265.7 546,264.8 546.6,264.5 549.5,264.4 551,263.8 553.6,262.3 554.8,261.3 555.3,259.9 554.4,258.2 553.8,257.6
		553.6,256.7 553.8,255.8 554.5,254.1 554.6,253.8 554.6,253.3 554.5,253 553.3,251.6 553,251.3 552,250.9 551.6,251.1 551.5,251.8
		551.2,252.5 549.4,255 548.4,255.8 547,256.2 541.7,255.2 538.9,255.5 537.2,257.6 536.9,257.8 536.6,257.9 536.3,257.8 536,257.6
		535.5,255.9 534.2,254.8 532.9,254.9 532.2,256.6 531.4,256 530.9,255.1 530.9,253.9 530.9,252.7 530.6,252.5 530.4,252.2
		530.2,251.9 530.1,251.5 531.2,251 529.9,250.5 527.2,250.6 525.7,250.2 523.7,248.9 523.1,248.3 522.7,247.5 522.3,246.3
		522.1,245.2 522.2,245 521.6,244.8 519.8,245.2 519,245.2 518.2,244.8 516.8,243.6 516.1,243.2 510,241.5 508.7,241.7 506.2,240.1
		504.8,240 503.2,240.9 503.2,242.2 505.1,245 505.8,246.7 506.2,248.7 506.8,250.4 508,251.6 509.4,252.4 510.5,253.6 511.1,255.2
		511.2,257.4 512,258.5 512,259.7 511.7,260.5 510.9,260.2 510.3,259.2 510,258.7 509.7,258.5 508.8,258.5 508.7,258.7 508.7,259.8
		508.6,260.2 508,260.2 506.9,259.8 506.4,259.8 505.7,260.3 504.8,261.7 504.2,262.2 502.8,262.6 501.6,262.5 500.4,262.6
		499.1,263.8 498.1,265.4 497.4,266.7 496.6,267.7 495.3,268.7 493.4,271.2 491.1,271.4 488.6,270 486.6,268.2 485.6,266.8
		485,265.6 484.4,262.5 483.7,260.8 481.9,258.9 481.2,257.6 480.4,256.4 478.9,253.6 478,252.5 476.7,251.6 474.1,250.6
		473.1,249.2 472.9,248.4 473,247.5 472.9,246.6 472.5,245.8 472,245.6 469.3,245.6 468.7,245.8 468.2,246.2 467.8,246.3 467,245.7
		466.7,245.2 466,242.8 464.1,242.4 463.5,240.8 464,239.3 465.2,239.6 465.1,239.3 464.8,238.2 465.2,238.2 465.7,237.9 466,237.7
		466.9,237 467.9,236.4 468.8,235.6 469.3,234.4 470.2,234.1 472.1,234.7 473.1,234.4 473.7,233.7 474.8,232.5 475.4,231.8
		474.8,232.2 474.8,231.7 474.9,231 475,230.5 475.3,230 475.4,229.8 475.4,229.5 475.2,228.7 477.1,228 476.6,226.2 471.5,220.8
		469.7,219.8 467.8,219.3 465.6,219.3 464.9,219.4 464.4,220.4 464,221.6 463.2,222.5 462.3,222.7 461.4,222.2 459.5,220.8
		457,220.6 453.3,224.2 450.8,224.6 450.7,224.3 450.7,223.7 450.8,223.4 451.6,222.8 451.8,221.7 451.5,220.4 451,219.1
		450.2,217.6 449.4,216.9 448.4,216.7 444.9,218.1 443.3,218.1 442.9,217.9 439.9,212.9 439.8,212.3 439.7,211.6 438.2,211.5
		433.3,212.6 432.7,212.4 432.2,212 431.4,210.8 430.7,210.3 418.9,206.2 416.4,206.4 415.9,207.1 415.3,208 414.6,208.7
		413.8,208.4 413.5,207.7 413.5,206.8 413.7,205.8 413.7,204.9 412.9,203.1 412,202.4 411,201.9 409.8,200.9 409.2,199.8
		408.6,198.3 408,196.6 407.9,195.3 408.3,193.6 408.8,192.6 408.9,191.7 408,190.2 406.4,189.4 403,189.4 402.5,187.9 402.2,186.5
		401.6,186.2 400.8,186.7 400.3,187.9 400.1,188.9 399.4,189.1 398.6,188.6 397.9,187.9 397.4,187.1 394.4,186.4 393.3,185.3
		393.2,186.1 392.8,186.5 392,187.1 391.7,187.2 391.3,187.4 391,187.6 390.7,187.9 391,188.9 392,189.7 392.8,191 392.9,193.7
		392.8,194.2 392.2,194.9 392,195.2 392,195.7 392,196.1 392.1,196.4 392.2,199.6 392,200.4 385.3,199.9 383.1,200.5 381.8,200.4
		381,203 380.4,204.1 379.8,204.8 378.9,205 377.6,204.9 375.4,204.4 373.1,202.7 372.2,202.2 370.2,201.6 369.9,201 370.1,199.3
		371.1,196.9 371.4,195.6 371.1,194.6 370.4,194.6 367,195.8 366.4,195.2 366.7,194.1 367.4,192.8 367.9,191.7 367.9,190.3
		367.8,189.4 367.3,188.6 366.6,187.7 365.8,187.1 364.3,186.8 363.5,186.2 363,185.5 362.8,185 362.6,184.4 362.3,183.6
		361.7,184.9 361.1,185.3 358.9,185.1 357.3,185.9 356.6,185.9 355.9,185.5 355.6,185 355.3,184.4 354.8,184 352.6,183.3
		350.7,183.6 349.3,185 348.5,187.6 347.8,188.6 348.5,189.1 350.5,189.4 351.7,189.8 351.6,190 351.1,190.4 351,191.4 352.5,192.9
		354.7,193.5 356.2,194.4 355.9,196.7 354.2,198.2 349.5,197.8 347.4,198.3 346.7,198.9 345.6,200.5 344.9,201.2 335.6,205.4
		334.5,205.5 332.4,205.2 331.2,205.4 330.6,205.9 329.7,207.1 329.1,207.5 328.3,207.7 327.7,207.5 327.2,207.5 326.7,208.2
		326.5,209.1 326.6,209.9 326.7,210.6 326.7,211.1 326.3,211.7 325.9,211.8 325.5,211.8 323.8,212.9 322.8,213.1 320.1,212.8
		318.8,212.9 316.6,213.8 315.5,214 310.1,214 307.4,214.5 305,216 305.6,217.4 305.4,218.7 304.6,219.7 303.6,220.5 304,221.2
		303.9,221.8 303.6,222.2 303,222.6 301.9,223.9 301,224.8 299.8,225.1 298.5,224.4 298.1,223.9 297.3,222.5 297,222.1 296.3,221.8
		296.1,221.9 296.1,222.2 295.8,222.6 293.5,224.2 293.1,224.8 292.6,226.6 291.3,227.2 290.3,226.8 289.4,226.1 288.2,226
		286.3,231.3 285.5,232.9 284,234 280.9,233.9 279.2,234.4 278.6,234.6 278.1,234.7 277.6,234.6 277.1,234.4 276.6,234.1
		276.2,234.1 275.7,234.2 275.1,234.6 274.8,238.4 274.4,240.1 273.6,241.1 271.8,242.8 269.8,242.6 264.3,239.3 263.8,239.1
		263.2,239.2 262.9,239.8 262.5,240 261.5,239.8 260.5,239.9 259.5,240.3 258.8,241 257.4,243 256.8,243.7 256,243.7 252.8,243.2
		248.4,243.4 246.1,244.2 244.4,245.6 244,246 243.7,246.4 243.6,246.9 243.4,247.2 243.4,247.5 243.5,247.8 243.5,248.1
		243.4,248.5 243.1,248.7 242.6,248.7 242.4,248.8 241.7,249.4 239.9,250.4 239.3,251 237.4,254.3 236.7,255 236.1,255.4
		235.6,256.2 235.4,257.7 234.2,259.1 233.9,260 233.7,261.7 233.8,262.8 234.2,263.8 234.2,264.4 233.4,265 232.4,264.8
		231.8,263.8 231.1,261.3 231,260.9 230.9,260.3 230.7,259.7 230.5,259.4 229.5,258.3 229.3,258.1 229.2,257.9 229.3,257.7
		229.5,257.6 229.5,257.5 229.6,257.4 229.8,257.4 230.1,256.9 230.1,256.5 229.8,256.2 229.4,256 227.7,256 226.8,255.7
		226.1,255.1 225.9,254.3 225.9,252.8 225.5,251.9 224.4,251.1 220.1,250.8 221.4,252.2 221.9,253 222.2,254.4 222.1,255.6
		221.7,256 221.1,256.4 220.4,257.5 221,258.6 223.9,260.4 225.3,262.1 226,263.1 226.4,264.2 226.6,265.6 226.2,267.7 226.2,269.1
		226.7,270.5 227.5,271.3 228.5,271.8 229.3,272.5 229.8,273.4 230,274.4 230,275.2 230.2,275.8 239.1,280.6 239.2,280.6
		240.1,281.5 242.3,281.8 243.2,282.7 243.4,284.1 242.9,285.3 242.9,286.3 245.3,287.7 246.1,288 246.5,288.7 246.3,290.5
		245.8,291.9 244.4,294.4 244,295.8 242.8,295.5 242.4,296.7 242.4,298.7 242.3,300.1 241.3,301.1 238.8,302.2 238.2,303.6
		238.5,304.5 239.1,305.7 240.2,307.5 241.1,308.3 242,308.9 244,309.8 244.8,310.3 245.3,311.2 245.4,312.4 244.9,313.5 245,313.6
		245.5,313.8 245.2,314.6 245.2,314.8 245.8,315.6 247.2,316.4 247.8,317 248.2,318 248.5,320 248.7,321.1 249.5,322.3 249.8,323.1
		250.3,323.8 251,324.5 251.6,324.7 252.2,324.6 252.7,325 252.7,326.6 252.9,329.5 253.2,331 253.9,332.4 255.1,333.3 257.7,334.6
		258.9,335.9 260.9,340.2 261.7,341.1 262.9,341.6 266.4,342.1 267.6,342 267.3,340.8 268.1,340.5 270.5,341.1 271.4,341.6
		272.2,342.3 273.9,344 274.9,344.5 275.2,345.2 275.3,346.1 275.6,346.9 277.4,349.2 278.2,349.6 283.7,357.1 284.5,358.9
		285.4,360.4 287,361.4 290.6,361.5 291.8,362 292.6,362.6 294.3,365 296.9,367.5 297.5,369 297.5,371.6 298.4,372.9 300.1,374.5
		301.9,375.8 303.3,376.5 303.9,374.9 304.5,374 305.3,373.6 306.6,373.9 307.7,374.5 308.6,375.3 309.6,375.8 310.7,375.7
		310.9,377.5 311.4,379.1 312.3,380.5 313.4,381.5 314.5,382 316.7,382.4 317.6,382.8 318.6,385.1 321.4,390.8 322.6,392 325,392.7
		326.1,393.3 327.2,394.1 328.5,395.2 332.5,397.4 333,398 334,399.5 334.4,400.2 334.7,400.5 335.1,400.7 335.5,400.9 335.6,401.4
		335.6,401.9 335.3,402 335,401.9 334.8,402.1 334.4,402.9 334.1,403 334,403.3 334.3,404.5 334.6,405 335.6,406.2 336.2,406.7
		338.2,407.6 346.6,408.5 352.5,410.6 353,410.5 353.5,410.3 354.7,409.3 357.7,408 358.7,407 360,403.5 360.9,402.9 362.4,404.7
		364.8,405.9 365.5,406.1 366.4,405.9 368.1,405.1 369,405 369.4,405.3 369.5,405.9 369.5,406.5 369.7,406.8 370.2,406.8
		371.1,406.5 371.4,406.6 372,407.4 372.4,408.3 372.8,408.9 373.8,408.9 375,407.7 375.3,405.4 375.3,402.7 375.5,400.2
		376.6,398.4 379.8,395.7 380.1,394 380.6,392.9 380.8,391.8 381.2,390.9 382.1,390.6 385.2,391.1 388.2,392.3 389.4,392.3
		390.1,390.7 389.9,390.6 389.7,390 389.4,389.2 389.4,388.6 389.4,388 389.9,386.8 391.1,381.2 391.1,378.7 390.9,376 390.9,373.4
		391.7,371.6 391.7,371.1 391.7,370.6 391.7,370.3 391.9,370.2 393.2,370 396.5,371.1 401.1,371.5 401.6,372.8 401.8,374
		401.8,375.2 401.4,376.5 402.6,376.5 407.1,375.3 407.4,375.1 408.2,374.1 408.5,373.7 408.6,372.5 408.8,372.1 409.3,372.1
		409.6,372.5 409.8,372.9 410.1,373.1 412.9,373.1 414.4,373.4 417.2,374.9 419.8,375.8 421,376.6 424,379.1 428.9,381 433.5,383.6
		434.8,383.9 436.2,383.9 437.1,383.6 439.2,382.5 439.7,382.4 441.5,382.4 441.9,382.7 442.1,383.8 442.4,384.2 442.8,384.4
		443.9,384.4 444.6,384.9 445,385.1 445.5,385.1 444.9,385.9 445.6,385.8 446.3,385.8 446.8,386.2 446.9,387.1 447.8,386.9
		448.1,387.3 448.1,387.9 448.2,388.3 454.2,392.6 457.3,394 462.8,393.7 471,394.9 471.1,394.8 472.4,394.6 473.2,395.2
		473.5,395.3 474.5,395 475.1,394.4 478.1,389.3 479.2,388.6 480.9,388.8 481.5,388.8 482.5,388.4 483,388.3 483.5,388.5
		484.5,389.2 488.1,390.2 489.2,390.4 490.3,390.8 490.8,392 491,393.2 491.4,394.3 492.3,394.8 493.2,394.9 495.4,394.9
		496.3,395.2 498.5,396.6 499.6,397 500.7,396.9 503,396.1 504,396.1 505.4,398.1 506.2,403.9 508.3,406.3 508.5,404.6 509.4,403.5
		510,402.2 513,393.6 514.5,391.1 516.5,389.4 517.3,388.2 517.7,386.5 518.2,385.7 521.4,383.4 524.1,382.9 526.9,383.6
		533.7,387.1 534.7,386.8 537,385.3 538.4,384.9 539.2,385.3 541,387.3 543.1,387.6 554.5,383.2 555.6,382.4 557.6,378.9 558.5,378
		560,377.8 561.2,378 562.3,378 563.5,376.9 563.9,375.7 564.4,372.9 564.7,371.6 565.5,370 566.8,369.2 568.2,369 571.4,369.2
		573.4,368.3 575.1,366.7 576.4,364.6 576.8,362.6 576.7,358 576.9,355.6 577.7,352.6 578.8,349.9 580.2,347.5 581.9,345.9
		589.9,342.8 593.4,340 593.6,335.6 595.3,336 596.6,335.1 599.2,332 601.1,330.9 601.6,330.4 601.8,329.6 602,327.9 602.3,327.2
		603.5,326.4 606.1,326.8 607.8,325.9 608.2,325.8 608.6,325.9 610.6,326.9 612.3,327.4 613.9,327.3 616.4,325.1 617.5,324.7
		619.9,324.6 620.1,323.1 619.9,321.3 	"/>
</g>

</svg>
