<?xml version="1.0" encoding="utf-8"?>

<svg version="1.2" baseProfile="tiny" xmlns="http://www.w3.org/2000/svg" xmlns:xlink="http://www.w3.org/1999/xlink" x="0px"
	 y="0px" viewBox="290.3 121.9 258.1 350" xml:space="preserve">

<g id="Germany">
	<g>
		<polygon points="370,169.6 369.8,169.6 369.5,169.8 369.4,170 369.3,170.4 369.3,170.6 369.4,170.9 369.7,171.3 370.1,171.5
			370.2,171.2 370.2,171 370.3,170.8 370.3,170.6 370.1,170.5 370,170.3 370,170.1 370,169.9 		"/>
		<polygon points="373.7,150.3 374,150.9 374.6,151.1 375.8,151 376.4,150.6 376.9,150.1 377.2,149.5 377.7,149 377.7,148.7
			377.7,148.5 377.8,148.4 377.9,148.3 376.7,148 375.6,148 374.6,148.5 373.7,149.4 373.9,149.6 374,149.9 374,150.1 		"/>
		<polygon points="447.8,175.3 448.1,175.3 448.4,174.9 449.2,172.4 448.4,172 447.2,172.4 446.2,173.3 445.8,174.3 446.2,174.7
			446.7,175 447.1,175 447.5,174.7 447.4,174 447.6,173.6 447.8,173.6 447.9,174.2 447.7,175 		"/>
		<polygon points="363.8,122.6 362.5,121.9 361.3,123.4 359.2,129.4 358.9,130.4 358.6,135.7 358.6,137 358.8,137.7 359,137.5
			359.1,136.9 359.2,136 359.1,133.4 359.2,133.2 359.2,132.2 359.3,131.8 359.4,131.7 360.3,131.1 360.5,131 360.7,131 361,131.1
			361.2,131.6 361.4,131.7 363.3,131.7 363.8,131.5 364.6,130.9 365,130.7 368.5,130.9 369.2,130.3 363.1,130.6 361.7,130.3
			360.8,129.4 360.9,127.7 360.7,126.7 361,125.8 361.5,125 362.7,124.3 362.9,123.6 362.7,123.1 361.9,123 362.1,122.7 		"/>
		<polygon points="368.2,147.6 367.7,148 367.5,148.8 367.8,149.5 368.2,149.8 368.8,149.8 369.6,149.3 370.3,148.3 370.5,147.1
			370.5,146.6 368.6,147.4 368.4,147.5 		"/>
		<polygon points="360.7,139.4 360.8,139.3 360.9,139.3 361,139.3 360.9,139 360.3,139.3 359.8,139.8 359,141.4 359.6,142.1
			360.1,143.1 360.7,143.7 361.7,143.3 362.1,143 361.6,142.7 360.2,140.1 360.4,139.7 		"/>
		<polygon points="364.4,140.3 365.2,140.1 365.4,140.3 365.9,140.4 366.3,140.5 366.7,140.4 367,140 367.3,139.1 367.5,138.7
			367.5,138.4 367,137.5 366.4,137.1 364.8,137 363.9,137.1 363.1,137.4 362.5,138 361.9,139 363.5,140.1 		"/>
		<polygon points="525.1,177.7 525.6,176.4 525.1,176 520.1,170.6 519.3,170.1 518.2,169.7 516.3,168.6 515.6,167.8 515.3,167.2
			514.7,165.6 514.4,165.2 513.9,164.9 513.4,165.1 513,165.6 512.7,166.1 513,166.7 514.2,167.9 514.4,168.6 514.3,169.9
			513.5,171.5 513.3,172.4 513.9,172.6 514.3,172.2 514.7,171.7 515.6,171.3 515.8,171.1 516,171.2 516.2,171.7 516.1,172
			515.9,172.3 515.7,172.7 515.6,173.4 516.6,173 516.8,172.9 516.8,172.5 517,172.2 517.3,171.9 517.5,171.7 517.5,171.4
			517.3,170.8 517.6,170.4 518.1,170.3 518.7,170.4 519.1,170.8 519.5,171.3 519.8,171.9 520.1,172.7 520.7,172.4 521.1,173.2
			521.1,174.5 520.8,175.7 521,176.3 520.1,176 520.1,175.7 520.2,175.6 520.3,175.4 520.4,175.3 519.3,175.3 518.9,175.5
			518.5,176.3 518.5,175.5 518.8,174.6 518.7,174.3 518.9,174 518.4,173.8 517,173.7 516.9,174.9 517.9,176.9 517.7,178.3
			517.5,178.6 516.5,179.1 515.6,179.3 515,179.8 514.6,179.9 515.2,180.6 516.1,180.9 517.9,180.9 519.5,180.4 520.4,180
			521,179.2 521.5,179.6 522.1,179.7 525.3,179.3 525.1,178.5 524.6,177.9 524.8,177.8 		"/>
		<polygon points="499.9,148.5 499.8,148.2 499.6,147.5 499.3,147.3 499,147.1 498.8,146.8 498.3,146.7 496.2,147.1 495.5,147.4
			495.8,147.4 496,147.5 496.1,147.7 496.1,148.2 496.2,148.5 496.3,148.6 496.4,148.7 496.5,148.8 496.7,149 497.2,149
			498.1,148.7 498.1,149 498,149.2 498,149.2 497.9,149.4 498.1,149.8 498.4,150 499.2,150.3 499,150.5 498.9,150.6 498.8,150.6
			498.8,151 498.2,151.1 497.4,151.5 496.6,151.7 496.4,152 495.9,153 497.2,152.7 497.5,152.8 497.6,153 497.9,153.3 498.2,153.3
			498.2,153.6 498.1,154.1 498.2,154.6 498.6,154.9 499,155 498.2,155.5 497.8,155.6 497.5,155.3 497.3,155.6 496.4,155
			495.7,155.4 495.1,156.2 494.8,157.3 496.5,158.6 496.5,158.9 496.1,158.7 495.7,158.9 495.5,159.2 495.7,159.6 496,159.5
			496.9,159.1 497.3,159.2 497.1,159.8 497.4,160.3 497.9,160.5 498.3,160.6 498.5,160.7 498.8,161 499.1,161.2 499.3,161.1
			499.5,160.9 499.8,160.8 500.4,160.9 500.3,160.7 500.2,160.6 500.3,160.3 500.5,160.1 500.9,159.9 500.6,160.6 500.5,161.2
			500.3,161.4 501.3,162.1 502.2,162.4 503,162.5 503.4,162.3 503.5,161.8 503.3,160.7 503.1,160.6 501.7,160.9 501.8,160.9
			501.9,160.9 501.9,161 501.9,161.2 501.5,161.6 501.6,160.3 502.3,160 502.9,159.8 503.3,159.1 503.6,158.6 505.1,157.3
			505.6,156.9 508.4,156.6 508.7,156.8 508.9,157.1 509.2,157.2 509.5,156.8 509.8,156.6 510.2,156.5 511,156.6 511,156.9
			510.4,157.2 508.9,158.2 509.4,157.9 510.1,157.7 511.6,157.6 511.3,158.1 510.9,158.5 509.8,158.9 509.8,159.2 510.2,159.4
			510.6,159.4 511.1,159.2 511.4,158.9 511.6,158.9 511.7,159.4 511.6,159.7 511.3,159.9 511,159.9 511.6,160.1 511.9,160.1
			511.9,159.8 511.9,159.1 512.1,158.3 512.3,157.7 512.7,157.2 513.1,156.9 512.4,156.7 511.9,156 511.2,154.7 510.6,154.2
			509.2,153.9 508.7,153.6 508.4,153.2 508.1,152.5 507.8,151.6 507.7,150.8 508,150.1 508.6,149.5 509.8,148.7 510.6,147.5
			510.4,146.2 509.5,145.3 508.3,145 504.6,145.7 503.5,145.3 503,144.9 502.6,144.4 502.4,143.7 502.3,142.8 502.5,142.2
			503,141.7 503.6,141.4 504,141 504,140.7 503.3,140.3 502.5,140.3 498.6,141.4 498.3,141.7 498,142 497.9,142.3 497.8,142.9
			498,143 498.4,142.7 499.7,142.3 499.8,142.6 499.7,143 499.6,143.5 499.5,143.7 499.1,144 498.7,144.9 498.5,145.7 498.6,146.3
			499.2,146.5 499.7,146.1 500.2,145.6 500.9,145.2 501.3,144.6 501.5,144.3 501.9,144 502,144.2 502.3,144.7 502.5,145
			502.6,145.4 502.7,145.6 503.2,145.7 503.4,145.8 503.6,146.2 503.8,146.5 503.9,146.7 504.9,146.7 505.2,146.7 505.4,146.5
			505.6,146.2 505.8,146 506.2,146 506.2,146.3 505.9,146.4 505.8,146.5 505.7,146.6 505.6,146.7 505.6,147 505.8,147.3
			505.9,147.6 506.2,148.3 506.2,148.7 506,148.8 505.8,149 505.6,149.7 505.8,150 504.3,150 503.6,149.8 503.1,149 503.3,148.3
			502.9,147.6 502.4,147 502.1,146.3 501.7,146.7 501.7,147 502,147.1 502.2,147.3 502.5,147.4 502.3,147.9 502.1,148.2
			501.7,148.3 501.3,148.3 501.6,147.6 501.7,147.4 501.6,147.1 501.5,147 501.3,147 501.1,147 501.4,146.7 501.6,146.3
			501.9,145.3 501.4,145.5 500.9,145.9 500.4,146.4 500,147 500.2,147.8 500.1,148.3 		"/>
		<polygon points="495.9,145.3 495.9,145.2 495.9,145.3 		"/>
		<polygon points="495.8,144.4 495.4,144.3 495.1,144.3 494.6,144.5 494.4,144.8 494.2,146 493.3,149.2 493.2,150.3 493.2,151
			493.4,151 493.5,149.9 493.5,149.5 493.6,149 493.8,148.6 494.2,148.3 494.4,148 494.7,147 494.7,146.1 494.9,145.3 495.5,144.7
			495.5,145.7 495.7,145.7 495.7,145 495.8,145 495.9,145.1 495.9,145.2 495.9,144.6 		"/>
		<polygon points="450.8,170 452.1,168.8 452.6,168.1 452.2,168.5 450.3,169.4 450.1,169.8 450.1,169.9 450.3,170.8 450.4,170.8
			"/>
		<polygon points="444.1,153.6 442.4,150.5 442,149.7 441.8,149.4 441,148.7 438.6,147.7 437.3,147.9 436.2,149 435.4,151
			435.5,151.6 435.8,151.4 436,151.4 436.1,151.6 436.1,152 436.4,152 436.6,151.7 436.9,151.6 437.6,151.6 438,151.8 438.1,152.2
			438.1,153.1 438.4,153.5 439.1,153.7 440.3,153.6 440.1,153.5 440,153.3 440.5,153 		"/>
		<polygon points="318.9,190.2 318.8,190.4 318.9,190.9 319.2,191.2 319.6,191.4 320.4,190.5 320.3,190.3 319.7,190.1 319.2,190.1
			319,190.2 		"/>
		<polygon points="331,187.2 332.3,186.7 332.4,186.7 332.4,186.7 332.4,186.4 329.2,186.4 327.7,186.6 326.4,187.4 327.5,187.7
			"/>
		<polygon points="354.6,186.9 354.8,187 355,187.1 355.2,187 355.6,186.5 355.9,186.4 356.3,186.4 355.7,186 355.1,185.9
			354.5,186.1 354.2,186.8 354.2,187.1 354.5,186.9 		"/>
		<polygon points="530.6,211.2 530.8,210.8 531.1,210.6 531.3,210.3 532.1,208.9 531.7,208.5 531.6,208.3 531.2,207.9 531,207.6
			530.9,207.2 530.9,206.3 530.8,205.9 530.1,202.3 529.8,199.8 529.2,198.8 528.9,197.9 528.2,196.8 528,195.8 528,194.8
			528,193.1 528,192.6 527.4,190.7 527,189.8 527.1,189.1 527.1,187.8 526.9,187.8 526.4,187.7 526,187.6 525.6,187.4 526.9,186.5
			527,186.4 527.2,186.1 527.1,185.3 527,185.2 526.7,184.9 526.2,184.8 526,185 525.7,185.6 524.9,185.9 522.6,185.7 522.3,185.6
			521.6,185.1 521.4,185.1 520.7,185.1 520.6,185 520.1,184.5 519.2,184.2 517.1,182.5 516.8,182.6 516.4,182.2 516,181.6
			515.8,181 515.6,180.9 515,180.7 514.5,180.5 514.3,179.9 514.5,179.3 516.6,177.6 516.9,177.2 517.1,176.6 517,176.2 516.7,176
			516.5,176 516.3,175.9 516.1,175.8 516,175.7 515.9,175.6 515.5,175.7 515.4,175.6 515.4,175.4 515.4,175.2 515.4,175
			515.3,174.8 515.2,174.4 515.1,174.1 514.9,174 514.1,173.7 514,173.5 513.7,173 512.8,172 512.5,171.7 513.3,171.3 513.6,170.4
			513.8,169.5 514.3,168.8 514.3,168.5 512,166.6 511.2,166.1 511.2,165.9 511.4,165.8 511.6,165.6 511.7,165.4 511.6,165.2
			510.8,165.4 509.3,166.4 508.5,166.8 505,167.5 505,167.8 505.2,168 505.5,168.6 505.8,168.8 505.8,169.1 505.1,169.1
			504.6,168.8 504.2,168.2 503.8,167.5 503.4,166.4 503.3,166.1 503,166.1 502.8,166.2 502.6,166.4 502.3,166.1 502.5,166
			502.6,165.7 502.9,165.2 502.3,165 501.3,165.5 500.6,165.5 500.9,165.1 501.3,164.8 500.6,164.2 499.6,162.3 498.9,161.9
			497.9,161.6 496.5,160.8 495.5,160.9 495.9,160.7 496,160.6 496.3,160.6 496.3,160.2 495.1,160.2 494.7,160.1 494.7,159.7
			494.7,159.1 494.6,158.6 493.8,157.3 493.7,156.6 494.2,155.6 493.9,155.3 492.6,154.7 492.3,154.2 492.1,153.6 492.1,153
			492.5,152.7 491.8,152.4 490.6,152.9 489.5,153.6 488.8,154.3 488.6,154.8 488.3,155.6 488,155.9 487.7,156.2 487.4,156.3
			486.9,156.3 486.6,156.3 486.5,156.4 486.4,156.3 485.9,155.7 485.7,155.4 485.6,155 485.5,154.7 485.3,155 485,155.2
			484.7,155.3 484.4,155 484.1,155.3 483.7,155.2 483.4,154.8 483.2,154.3 483.1,154.7 483,155 482.6,155.6 482.7,155 482.9,154.5
			483.1,154.1 483.6,154 483.6,153.6 483.2,153.6 482.9,153.6 482.5,153.7 482.2,154 482.3,154.1 482.4,154.5 482.4,154.7
			480.9,155.5 480.1,155.8 479.5,155.3 479.5,155.6 479.3,155.4 479.1,155.4 478.6,155.6 478.6,155.9 478.8,156 479.1,156.3
			477.3,157.2 476.8,157.6 476.8,157.8 476.8,158.4 476.7,158.6 476.5,158.7 476.2,158.8 476.1,158.9 475.4,159.6 475.1,160
			474.9,160.6 475.5,161.1 475.8,161.2 476.3,161.2 475.7,161.6 475,161.4 473.8,160.6 474.1,160.2 474,159.8 473.8,159.3
			473.6,158.6 474,158.5 474.4,158.1 474.5,157.5 474.3,156.9 474.5,156.6 474.7,156.8 474.9,156.9 475.3,156.9 475.1,156.2
			475.3,155.4 475.7,154.9 476.2,154.7 477.2,154.8 477.7,155 478.2,155.6 478.4,155.1 479,154.7 479.6,154.7 480.1,155
			480.1,154.8 480.1,154.7 480.2,154.7 480.3,154.7 480.1,154.6 479.9,154.6 479.8,154.4 479.7,154 479.9,153.9 480.2,153.7
			480.3,153.6 480.5,154 480.7,153.3 480.9,153.2 481.7,153.3 482.2,153.3 482.4,153.2 482.7,152.7 482.9,152.7 483.7,152.8
			484.9,153.2 487.9,153.5 488.6,153.3 489.3,152.7 488.9,152.1 488.1,151.9 487.5,152.3 486.4,151.8 480,151.8 478.8,151.3
			478.2,150.3 478.4,150.3 478.4,150 477.8,150.3 477.5,150.7 477.1,152 475.9,154 475.7,154.5 474,156.9 473,158.9 472.6,159.4
			471.5,160.3 469.4,161.5 469,161.6 468.6,161.8 468,162.9 467.4,163.5 466.4,164.7 466.2,165.2 466.5,165 466.8,164.9
			467.1,164.8 467.4,164.8 467.1,165.5 466.3,165.9 466,166.5 466.2,167 466.3,168.2 466.6,168.8 466,168 465.9,166.9 466,165.6
			465.8,164.2 464.8,164.9 458.1,166.3 455.7,165.9 454.6,166 453.7,166.7 453,167.9 452.9,168.1 452.8,168.2 452.7,168.5
			452.7,168.7 452.9,168.9 452.9,169.1 452.8,169.5 452.7,169.8 452.5,170 452.2,170.1 451.9,170.3 451.4,171.6 450.8,172
			450.6,172 449.8,171.7 449.8,172 450,172 450,172.4 449.1,173.4 449.1,173.6 449.2,174.1 449.2,174.3 449,174.4 448.7,174.6
			448.5,175 448.6,175.7 448.4,176.7 448.1,177.5 448.1,178 447.8,178 447.6,177.8 446.5,176.4 446.5,176.3 445.3,176.3
			445.1,176.1 444.8,175.5 444.6,175.3 443.5,176.3 443.3,176.4 442.4,176.3 442.1,176.1 442,175.6 442.1,174.5 442,174.3 441,174
			440.8,173.7 440.6,173 440.4,172.7 440.2,172.6 436.7,173.1 435.2,173.9 434.7,174 434.2,174.2 433.4,175 433.1,175.3
			432.9,175.3 432.5,175.3 432,175.2 431.9,174.8 431.9,174.2 431.7,173.7 431.4,173.6 430.4,173.7 429.6,173.5 429,173
			428.6,172.3 428.3,171.4 428.3,171.1 428.6,170.8 429.6,169.1 429.7,168.9 430,168.8 430.2,168.8 430.4,169 430.6,169.2
			430.9,169 431.1,169 432.2,168.6 432.7,168.3 433.8,166.8 437.1,164.7 437.2,164.3 437.5,163.9 437.8,163.5 437.9,162.7
			437.7,161.3 437.7,160.5 437.9,159.9 437.7,159 437.4,157.1 437.1,156.3 437.5,156.5 437.7,156.6 438,156.1 439,155 438.1,154.6
			436.2,155.8 435.5,155.4 435,155.5 434.5,155.3 435.2,155.3 435.8,155.3 435.8,155 433.4,155.3 432.4,155.7 431.5,156.3
			429.9,157.8 428.9,158.4 427.7,158.6 426.5,158.3 424,155.9 419.6,154 417.9,152.6 417.2,152.3 416,152.2 415.7,152.3
			415.5,152.6 415.3,152.8 415.1,153.1 414.7,153.3 413.7,153.4 413.4,153.6 413.2,154 412.8,155.6 412.2,157.1 411.7,157.7
			411.1,157.9 411.4,157.5 411.5,157 411.4,156.6 411.1,156.3 411.3,156 411.2,155.8 411.2,155.7 411.1,155.6 411.6,155.5
			412.1,155 412.5,154.4 412.6,153.8 412.5,153 412.3,152.4 412.3,151.9 412.8,151.3 411.1,149.8 410.6,149.7 403.8,151.3
			402.6,150.6 402.6,150.3 403.8,150.2 405,149.8 406.1,149.1 407,148.3 407.4,147.8 407.6,147.2 407.8,146.5 408,145.7
			408.1,143.7 408.1,142.7 408,142.1 408.2,141.4 408,141.1 407.7,141.1 407.4,141.4 407,140.8 406.2,140.8 405.5,141.1 405.1,141
			405.1,140.6 405.2,140.5 405.3,140.5 405.5,140.4 405.6,140.4 406.3,139.8 406.3,139.7 406.5,139.8 406.9,139.9 407.2,140
			407.6,139.7 407.1,139.1 406.8,138.8 406.6,138.4 406.3,136.7 405.6,135.9 404.7,135.3 404,135.4 404.1,136.4 402.9,136.9
			402.1,137 401.8,136.5 401.5,135.7 400.8,135.2 400.1,134.9 399.6,134.5 398.4,134 396.7,133.9 395.3,133.4 395.3,131.7
			394.9,131.9 394.5,132.6 393.9,132.9 393.3,133.5 391.6,134.4 391.2,134.4 390.8,134.5 390.3,134.5 389.8,133.9 389.3,134
			388.9,134.3 388.5,134.4 388.3,134.7 387.8,134.8 385.8,134.8 385.3,134.6 385.1,134 385,133.3 384.9,132.8 384.4,132.4
			378.4,131 376.2,130.1 374,129.7 373.3,129.8 371.4,130.5 370.4,130.5 369.4,130.2 369,131.6 368.9,132.7 369,134 369.4,134.9
			370,135.8 370.3,136.8 370.2,137.7 370.2,138 371.1,138.5 372.7,139.8 373.5,140.4 373.8,141 374.8,143.7 373.8,144.3 374,144.7
			374.4,144.5 374.9,144.3 375.5,144.3 375.8,144.5 375.9,145 376.2,145.5 378.6,148 379.3,149.1 379.3,150.3 379.1,151.1
			378.6,151.5 377.5,152 376.3,153 375.7,153.4 375,153.6 371.9,153.6 369.6,154.2 369,154 368.8,154.4 368.5,154.9 368.4,155.4
			368.7,155.9 369.1,155.3 369.5,155.5 369.9,155.8 370.4,155.9 370.4,156.3 369.7,156.2 368.8,156.4 368.1,156.8 367.7,157.3
			367.8,158.5 368.3,159.6 369.1,160.3 369.9,160.6 370.2,160.5 371.2,159.6 371.6,159.4 372.6,159.6 373.5,159.5 374.9,159
			375.8,158.9 375.7,159.1 375.7,159.4 375.6,159.6 376.2,159.3 377.3,158.4 377.9,158.2 377.6,159 377.2,159.7 376.7,160.3
			376.4,160.6 376,160.6 374.8,161 374.4,161.2 374.4,161.6 374.6,162.3 374.3,163.1 373.9,163.9 373.7,164.8 373.8,165.1
			374.3,166.1 375,167.5 375.2,167.5 375.7,166.9 376.6,166.5 377.6,166.3 378.3,166.5 378.3,166.8 378.2,167.3 378.6,167.8
			379.1,168.3 379.5,168.8 379.5,169.5 379.3,170.6 379.1,171.5 378.9,172 378.2,172.3 377.6,172.1 376.5,171.4 375.9,171.2
			375.3,171.2 374.3,171.7 376.6,176.5 377.5,177.6 378.5,178.4 379.2,178.6 379.5,178.1 379.8,177.9 380.5,178.1 381.6,178.6
			385.1,178.7 386.2,178.9 387.3,179.6 389,181.1 390.1,181.5 390.1,182.5 390.6,184 391.2,185.5 391.9,186.1 392.3,186.2
			393.6,187 393.9,187.2 394,188.1 394.1,189.3 394.4,190.9 395.4,191.9 397.4,193.2 398.4,193.6 400.9,193.9 402,194.5
			402.4,195.2 402,195.3 398.5,194.5 396.9,193.4 396.5,193.2 395.9,193.1 395.3,192.9 394.9,192.5 393,189.7 392.6,188.2
			392.2,187.7 391.4,187.1 390.3,185.7 387.5,180.9 386.9,180.1 386.7,179.9 385.7,180 385.3,179.9 384.9,179.6 384.4,179.9
			382.2,179.9 379.9,180.5 379.4,181.1 378.3,181 376.2,181.5 375,181.5 372.8,181 371.7,180.4 370.8,179.6 370.1,178.8
			369.7,178.7 369.1,178.6 368.5,178.8 367.9,179.1 367.3,179.7 366.9,180.3 366.5,181.5 365.7,184.4 364.7,187 364.5,187.7
			364.4,188.5 364.5,189.3 364.9,190.4 365.1,191.3 365.3,192 365.6,192.6 365.8,192.9 366.6,194.8 366.7,195 366.5,196.4
			365.9,196.9 365.2,197.4 364.8,198.4 364.8,199.8 365.1,202.7 365,203.9 364.6,203 364.4,201.9 364.4,199.2 364.6,197.9
			365,196.8 365.7,196.1 366.3,195.5 366.3,195.2 365.2,194.6 362.8,194.2 361.7,193.6 361.4,193.1 361,192.5 360.6,191.9
			360.1,191.6 358.9,191.7 358.4,191.9 358,192.3 357.8,193 357.6,194.6 357.4,195.3 357.3,196 357.9,196.1 359,195.8 359.8,196.8
			359.7,198.4 359,200 358.4,201 358.1,201.4 357.8,201.5 357.4,201.6 357,201.6 356.6,201.4 356.3,201 356,200.5 355.8,200.3
			355.6,200.2 355.1,199.6 354.8,199.4 354.3,199.4 354,199.5 353.6,199.7 353.2,199.3 353,198.7 352.4,197.1 352.9,196.8
			354.1,196.7 354.6,196.5 355.2,196 355.4,195.6 355.5,194.7 355.2,194.2 354.6,194 354.1,193.8 354.4,193.2 354.4,192.9
			353.4,192.3 352.3,190.8 351.5,189.1 351.7,187.7 351.7,187.4 349.4,186.7 341,187.9 336.8,188.8 336.2,188.6 335.9,188.2
			335.6,188 331.2,188.5 329,189.3 328,190.4 327.4,190.8 326.4,192 325.5,192.6 325.1,193.1 325.2,193.7 325.5,194.1 326.3,194.5
			326.6,194.9 326.6,195.5 326.4,195.9 326.2,196.1 326,196.5 324.9,196.2 324.3,196.2 324.1,196.6 324,197.3 323.4,198.8
			323.3,199.6 323.3,203 323.7,204.4 324.8,204.9 331.2,205.1 332.3,205.5 333,206.5 332.4,206.3 331.5,205.7 330.9,205.5
			330.2,205.5 329.8,205.7 329.1,206.8 329.3,207.3 329.2,207.9 329,208.4 328.7,208.7 328.4,209.1 328.1,209.2 328.2,210.5
			328.2,211.3 328.1,212 327.9,212.8 327.5,213.9 327.5,214.2 327.5,214.8 327.6,215.1 327.7,215.3 327.8,215.7 328.1,219.1
			328.1,220.8 327.8,222.2 327.2,223.8 324.9,227.5 324.4,228.9 324.1,230.4 323.9,235.4 531.9,235.4 531.8,235.3 530.8,233.4
			530.4,232.8 527.4,230.6 526.6,230.2 525.7,229.1 525.2,228.9 524.5,228.8 523.9,228.7 523.4,228.3 523.1,227.6 523.9,227
			524.2,226.4 524.3,225.5 524.2,224.9 523.9,223.3 523.7,222.8 523.7,222.5 525.1,221.5 526.8,220.6 528.4,219.3 529.3,218.4
			529.7,217.6 529.8,217.2 530.6,214.5 530.5,213.8 530.4,213.2 530.3,212.4 530.3,211.8 		"/>
		<polygon points="315.4,192.8 316.3,192.4 317,192.3 316.6,191.5 315.5,191.6 313.4,192.3 313.1,192.5 313.2,193.1 313.6,193.6
			314.1,193.9 314.2,193.8 314.7,193.6 314.9,193.6 315.2,193.7 315.5,194.1 315.8,194.3 315.6,193.8 315.4,193.5 315.2,193.3
			314.8,193.2 314.8,192.9 		"/>
		<polygon points="324,188 320.1,188.5 319.1,189 325.1,188.4 		"/>
		<polygon points="347.8,183.5 349,183.8 349.3,183.8 349.5,183.8 348.8,183.4 348.4,183.2 347.9,183.2 347.3,183.3 346.8,183.4
			346.7,183.7 347.2,184.1 347.3,183.6 		"/>
		<polygon points="342,184.8 342.2,184.5 342.9,184.9 343.7,184.9 344.5,184.5 345.1,184.1 345.5,184.1 345.5,183.8 343.1,183.6
			342,183.9 341.2,184.8 341.5,185 341.7,185 		"/>
		<polygon points="337,186.4 337.1,185.6 338.1,185.4 340.1,185.4 340.2,185.4 340.3,185.4 340.3,185.3 340.3,185.1 339.7,184.8
			337.2,184.8 336.4,184.8 336,185.1 335.9,185.6 336,186.2 336.2,186.5 		"/>
		<polygon points="334.7,186.7 334.8,186.6 334.9,186.4 334.5,186.1 334,186 333.4,186.1 333,186.4 333.4,186.4 334.5,186.8 		"/>
		<polygon fill="#DD0000" points="323.9,235.4 323.7,237.1 323.2,238 322.2,237.7 321.7,237.6 320.3,237.8 318.9,237.3 316.2,237.3
			315.2,237.6 314.2,238.4 314.5,238.8 314.4,239.3 314.3,239.6 314.3,240 314.5,240.3 315.4,241.1 313.9,241.9 313.4,241.9
			313.7,242.7 313.8,243.5 313.9,244.3 314.1,245 314.6,245.6 315.4,246 317.6,246.3 319,246.9 319.8,247 320.6,246.9 321.3,246.7
			321.5,246.5 321.7,246.2 321.9,246.1 323.6,248.9 324,250.1 323.8,251.7 323.2,253.1 323,253.8 323,254.6 323.2,255.6 323.5,256
			323.4,256.2 322.1,257 321.8,257.4 321.2,258.4 320.6,258.9 319.4,259.5 318.9,260 318.2,261.3 317.9,261.6 316,261.8
			315.6,262.1 315.1,262.6 315,262.8 314.7,263.4 314.5,263.7 314.2,263.9 313.9,263.9 313.6,264 313.4,264.5 313.5,265.2
			313.9,265.5 314.6,265.7 316.4,266.7 317.1,267.5 317.3,267.7 317.3,268 317.3,268.6 317.2,268.7 317,268.8 316.7,269
			316.1,270.2 315.4,271 314.7,271.4 312.2,271.5 309.4,272.4 308,273.5 307.5,273.7 306.9,273.7 305.1,273.2 305.4,274.2
			305.3,274.6 304.2,274.9 304.1,274.2 303.7,274 302.6,273.8 302.5,273.6 302.1,273.1 301.9,272.9 301.7,272.9 300.8,273
			299.9,272.6 299,271.9 298.1,271.5 297.1,272 297.5,272.3 298.5,273.4 298.9,274 298.4,273.9 297.8,273.7 296.9,273.4
			295.7,273.8 295.3,274 294.7,274.4 294.2,274.6 293,274.8 292.6,275.2 292.5,275.6 293.1,276.1 293.5,277 293.4,277.9
			292.8,278.5 292.8,279 293.1,279.1 293.9,279.1 294.2,279.2 294.8,279.7 295.1,280 294.7,281.3 295.4,282.1 297.3,282.9
			297,283.9 296.8,284.6 296.9,285.1 298.8,287.7 299.9,289 300.1,290.5 300.3,291.3 300.2,292.2 300,293.2 299.9,294 300.3,294.5
			300.2,294.9 300.1,295.9 299.9,296.5 299.7,296.8 298.9,297.3 298.6,297.6 297.2,300.3 296.6,301 296.3,301.5 296.1,302.4
			296,303.4 296.2,304.2 296.9,304.6 298.3,303.6 298.9,303.9 298.7,304 298,304.5 298.6,305.1 298.2,305.6 296.6,306.5 294,308.5
			293.6,309 293.1,310.1 292.8,310.5 292.2,310.6 291.9,310.2 291.5,309.8 291.1,309.6 290.3,310 290.5,311 290.9,312.3 291,313.4
			291.3,313.3 292.1,313 292.5,312.9 292.9,312.9 293.6,313.2 294.6,313.1 294.7,313.3 294.5,313.7 294.4,314 294.4,314.7
			294.5,315 294.7,315.3 295.4,315.7 296.3,316 296.2,316.2 296.1,316.4 296,316.7 296.3,317.6 296.3,318 296.1,318.4 295.8,318.8
			295.1,318.8 294.8,319 294.5,319.4 294.5,319.8 294.6,320.2 294.4,320.8 294,321.1 293.6,321 293.7,321.6 293.9,322 294.2,322.2
			294.4,322.4 294.4,323 294.3,323 294.3,323 294.3,323.1 294.3,323.2 294.3,323.2 294.3,323.3 294.3,323.3 294.6,323.5
			294.8,323.6 294.8,323.9 294.8,324 294.7,324.5 294.8,324.7 294.8,324.8 295.2,324.9 296.3,324.6 296.8,324.6 297.3,325.2
			297.6,325.6 299,327.8 299,327.8 298.6,328 299,328.7 299.6,329 301.5,329 301.6,329.3 301.4,329.6 301.4,329.7 301.1,330.1
			301.1,330.2 300.4,330.6 299.9,331 299.5,331.3 299,332.1 299,332.1 299.5,332.7 299.3,333.1 299.3,333.3 299.3,333.3
			299.5,333.4 299.8,333.4 299.9,333.4 299.6,333.8 299.8,333.9 299.9,334 299.9,334 299.9,334.1 300.1,334.5 300.3,334.6
			300.3,334.7 300.4,334.7 300.6,334.7 301.4,334.4 301.6,334.4 301.6,334.3 301.6,334.3 301.7,334.3 301.7,334.3 301.8,334.4
			302.2,334.6 303.5,334.9 304,334.9 303.7,335.2 303.6,335.3 303.6,335.6 303.6,335.6 303.7,336 303.8,336.4 303.9,336.5
			304.1,336.8 304.2,336.8 304.3,336.8 304.3,336.9 304.4,337 304.4,337 304.4,337.1 304.4,337.7 304.2,338.7 304.2,338.8
			304,339.4 304,339.9 305,341.6 305,342.2 305,342.2 304.8,342.4 304.7,342.6 304.7,342.6 303.9,342.7 303.6,342.6 303.3,342.6
			303.2,342.5 302.9,342.5 302.8,342.6 302.5,342.7 302.4,342.9 302.3,343 302.1,343.5 302,343.9 302.1,344.3 302.1,344.3
			301.6,344.8 300.9,345 300.4,345.1 299.8,345.4 299.6,345.7 299.6,345.8 299.1,346.2 298.9,346.3 298.6,346.6 298.6,346.6
			299,347.1 299,347.2 299.2,347.6 299.1,348.1 299,348.5 298.9,348.5 298.8,348.6 298.2,348.6 298.2,348.7 298,348.8 297.9,348.9
			297.9,348.9 297.9,349.2 297.8,349.4 297.7,349.6 298,349.9 298.1,350.1 298.1,350.2 298.1,350.2 298.1,350.4 297.8,350.7
			297.6,351.4 297.5,352 297.3,353.2 297.3,353.2 297.5,353.2 297.6,353.2 297.5,353.4 297.2,353.9 297.5,354.1 297.7,354.4
			297.9,355.3 297.8,355.8 297.9,356.2 298.4,356.9 298.8,358.1 299,358.5 299.4,357.9 299.8,358.7 476.4,358.7 476.4,358.5
			476.6,357.9 476.5,357.3 476,356.9 475,356.7 474.6,356.3 474.6,356.3 470.3,354 470.2,353.8 470.2,353.4 470.1,352.9
			469.9,352.5 469.5,352.1 469,351.9 468.6,351.5 468.4,350.9 468.4,350.2 468.6,349.2 468.5,348.5 468.3,348 468,347.5
			467.3,346.8 465.9,345.9 465.6,345.4 465.9,344.9 466.2,344.7 466.4,344.5 466.5,343.9 466.4,343.3 466.1,342.9 465.5,342.2
			467.6,342.4 468.1,342.7 468.3,343.1 468.2,343.9 468.4,344.2 468.7,344.5 469.1,344.6 469.9,344.7 470.1,344.8 470.2,344.9
			470.2,345.1 470,345.4 470,345.4 470,345.4 469.9,345.4 469.9,345.5 469.8,345.5 469.8,345.6 469.8,345.7 469.9,345.8
			470.4,346.3 470.5,346.5 470.6,346.8 470.7,347 470.7,347.3 471,348.5 471.3,348.9 471.8,349 472.2,348.7 472.2,348.3 472,347.8
			471.9,347.3 472,346.5 472.2,346.1 472.7,345.4 472.8,344.7 473.1,344.3 473.4,344.1 473.7,343.8 474.6,342.2 474.9,341.9
			475.7,341.4 476,341.1 476.1,341.1 476.4,341.1 476.5,341 476.6,340.9 476.5,340.7 476.5,340.5 476.5,340.5 476.6,340.3
			476.6,340 476.7,339.8 476.9,339.6 477.7,339 478.8,338.6 480.9,338.5 482.5,338.7 482.8,338.7 483.1,338.4 483.8,337.4
			484.1,337.1 484.6,336.9 485,336.9 485.5,337 485.7,336.9 486.1,336.6 486.4,336.6 486.6,336.6 489.2,338.2 490.2,338.3
			491,337.5 491.4,337 491.6,336.2 491.8,334.4 492,334.2 492.2,334.2 492.5,334.2 492.7,334.4 492.9,334.5 493.2,334.5
			493.5,334.5 493.7,334.4 493.7,334.4 494.5,334.1 496,334.2 496.7,333.7 497.1,332.9 498,330.4 498.6,330.5 499,330.8 499.5,331
			500.1,330.7 500.4,329.8 500.6,329.5 501.6,328.8 501.8,328.6 501.8,328.4 501.9,328.4 502.2,328.5 502.4,328.7 502.8,329.4
			502.9,329.6 503.6,329.9 504.1,329.8 504.6,329.3 505.1,328.7 505.4,328.6 505.5,328.4 505.5,328.1 505.4,327.7 505.8,327.4
			506.2,326.9 506.3,326.3 506,325.6 507.2,324.9 508.4,324.7 511,324.7 511.5,324.6 512.6,324.2 513.2,324.1 514.5,324.3
			515,324.2 515.8,323.7 516,323.7 516.1,323.6 516.3,323.3 516.3,323.1 516.3,322.8 516.2,322.4 516.4,322 516.6,321.7
			516.9,321.6 517.1,321.7 517.5,321.7 517.8,321.5 518.2,320.9 518.5,320.7 519.1,320.6 520.1,320.7 520.6,320.7 525,318.7
			525.4,318.3 525.9,317.6 526.2,317.3 527.2,317 529.4,317.2 530.2,316.5 530.4,315.4 529.6,315 528.6,314.7 527.9,314
			527.9,313.5 528.1,313.3 528.2,313.2 527.6,313 526.7,312.9 526.3,312.7 526.7,312.2 527.1,310.9 527.7,310.2 528.6,310.1
			529.7,310.4 529.9,310.6 530,310.9 530.2,311.1 530.5,311.3 530.8,311.3 531.6,310.9 532.6,311 533,310.8 533.2,310.2
			533.4,310.6 533.4,310.9 533.5,311.1 533.8,311.5 534.1,311.7 534.9,311.9 535.2,312.2 535.6,312.6 535.8,313 535.9,313.4
			535.8,314.1 535.6,314.6 535.3,315.2 535.1,315.8 535.5,316.1 537,315.4 537.3,315.4 537.5,315.9 537.3,316.5 536.9,317.6
			536.8,318.4 536.9,318.8 537.9,319 538.3,319.3 539.4,320.1 540.4,320.3 541,320.3 541.5,320.2 541.7,319.9 542,319.4
			542.4,318.2 542.5,317.4 542.8,316.7 543.8,315.6 545.3,312.2 546.5,309 546.6,308.5 546.6,307.6 546.7,307.2 546.8,306.9
			547,306.7 547.2,306.4 547.3,305.8 547.3,304.7 547.5,303.4 547.9,302.2 548.4,301.3 548.3,301.2 548.2,301 548.3,299.7
			547.9,298.8 547.3,298.1 546.8,297.2 546.7,296.9 546.6,296.1 546.6,296 546.3,292.9 546.5,292.4 546.2,291.7 545.7,291.2
			545.3,290.9 544.6,290.6 543.3,290.2 542.7,289.8 542.7,289.8 542.1,289.4 540.2,288.7 539.6,288.1 539.5,287.3 539.7,286.4
			540.2,285.5 540.6,284.6 540.5,283.5 540.3,282.3 539.9,281.5 538.5,280.4 537.9,279.6 537.6,278.5 537.5,277.3 537.1,276.8
			536.6,276.4 536.1,275.7 536,274.7 536.4,274 538,272.3 538.5,271.6 539,270.8 539.2,269.9 539.3,267.1 539.5,266.7 540.1,265.6
			540.2,265.1 540.2,264.7 540.3,264.3 540.6,263.9 541.1,263.3 539.2,261.9 539,261.3 539.1,260.1 539.4,259.2 539.5,258.6
			539.1,257.9 539.1,257.7 539.7,256.9 539.7,256 539.3,255.2 538.5,254.8 537.7,254.7 536.7,254.2 536.1,253.5 536.2,252.6
			535.7,251.3 535,249.3 534.8,247.5 536.3,246.2 537,245.1 537.4,244 537.3,243.5 536.8,243 537,242 537.8,240.3 536.9,239.6
			535.1,237.6 533.4,236.9 532.6,235.8 532.1,235.5 531.9,235.4 323.9,235.4 		"/>
		<polygon fill="#FFCE00" points="299.8,358.7 300.8,360.9 301.2,361.4 302.2,361.8 302.6,362.1 302.7,362.3 303,363.1 303,363.2
			303.2,363.2 303.7,363 303.9,363 304.4,363.3 305.2,364 305.7,364.3 306.2,364.5 307.5,364.5 308.4,364.7 308.5,364.7
			308.6,364.9 308.6,365 308.6,365.3 308.5,365.4 308.4,366.3 308.4,366.6 308.5,366.8 308.5,367 308.2,367.2 308.2,367.6
			308.2,368 308.4,368.3 308.6,368.5 308.3,368.4 308.2,368.5 308.1,368.7 308.3,368.9 308.3,369 306.3,370.4 305.8,371
			305.9,371.1 306.1,371.2 306.2,371.4 306.3,371.7 306.2,371.9 306,372.2 305.7,372.8 304.9,373.7 304.5,374.4 304.4,374.8
			304.4,376.2 304.1,378 304.2,379.3 304.2,379.7 304.5,379.7 304.8,379.6 305.3,379.3 305.5,379.2 305.8,379.2 308.4,380.5
			308.9,381 309.1,381.3 309.1,381.7 309.1,381.9 309.1,382 309.3,382.2 310.7,383.7 310.8,383.9 310.6,384.3 310.1,384.3
			310,384.7 310.2,385.2 310.6,385.8 312.5,387.6 312.5,387.8 312.5,388.2 312.5,388.4 312.7,388.5 313.1,388.6 313.2,388.8
			313.4,389.6 313.5,389.7 313.5,389.8 313.6,390.2 313.6,390.3 313.8,390.3 314.1,390.1 314.3,390.1 314.4,390.7 314.3,391.3
			314.2,391.8 314.6,392.4 314.9,392.6 316.2,392.6 317.3,393 317.6,392.9 318.1,392.2 318,391.5 317.8,390.8 318,390.2
			318.2,390.2 319.4,390.4 320.2,390.4 320.5,390.4 322.3,391.4 322.9,391.4 322.9,393 323.2,394.1 323.8,394.6 324.7,394.1
			324.7,393.9 324.6,393.6 324.6,393.4 324.9,393.1 325,393.2 326.1,393.9 326.6,394.2 327,394.3 329.4,394.3 330.2,394.7
			330.4,394.7 330.5,394.6 330.8,393.9 331,393.7 331.3,393.6 331.8,393.6 332,393.5 332.2,393.2 332.4,392.6 332.5,392.4
			333,392.1 333.6,391.9 334.2,392 334.3,392.5 335.5,392.5 336,392.7 336.2,393.4 336,393.5 335.9,393.6 335.9,393.7 336.3,394.1
			336.9,395.2 337.3,395.6 337.9,396 339.1,396.2 339.8,396.6 340,396.8 340.2,397.4 340.5,397.6 340.9,397.7 341.2,397.6
			341.6,397.5 341.9,397.4 342.2,397.4 342.8,397.7 343.1,397.7 343.4,397.6 344.1,397.2 344.4,397.2 346.8,397.8 348.4,397.7
			348.9,397.7 353.3,400.1 356.1,400.7 356.4,401 355.8,401.7 355,403.3 353.7,406.8 353.3,407.4 353.2,407.6 352.1,408.1
			351.9,408.2 351.8,408.3 351.7,408.4 351.5,408.6 351.5,409 351.4,409.2 351.3,409.4 351.1,409.5 350.3,409.5 349.9,409.6
			349.8,410 349.8,410.8 349.6,411.1 349.3,411.5 349,411.9 348.6,412.1 347.9,413 347.4,413.4 347,413.5 346.6,413.8 345.4,415.6
			345.2,417 345.2,418.5 345.5,419.4 345.5,419.7 344.8,420.2 344.5,420.6 344.3,421 344.3,421.8 344.1,422.2 344,422.4
			343.8,422.9 343.6,423.3 343.4,424.4 343.4,425 343.5,425.5 343.7,426.1 343.8,426.6 343.8,427.2 343.4,427.8 342.9,428.1
			342.4,428.5 342.2,429.4 342.2,430.2 342,430.9 341.7,431.5 339.9,434 339.7,434.6 339.7,435.2 339.5,435.5 339.3,435.8
			339.1,436.1 338.9,436.8 338.8,437.6 338.8,439.3 340.1,441.5 340.1,442.8 339.8,443.3 339.1,444.1 339,444.6 339,445.3
			338.9,445.5 338.8,445.9 338.6,446.1 338.4,446.3 338.4,446.5 338.3,446.7 338.3,446.8 338.4,446.9 338.4,447.1 338.5,447.8
			338.4,448.3 338.1,448.5 337.9,448.7 337.5,450.1 337.4,450.6 337.8,452.1 337.8,452.8 337.6,453.1 337.1,453.6 337,453.8
			337.1,454.7 337.2,455.2 337.3,455.3 337.7,455.6 338.1,456.1 338.8,457.4 338.9,457.6 339.1,457.7 339.2,457.9 339.3,458.3
			339.2,458.5 339.1,458.9 340.6,458.5 341.2,458.4 340.8,459.5 340.5,459.8 339.8,459.7 341.2,460.5 341.9,460.6 344.2,460.1
			344.7,459.8 345.2,459.3 345.7,458.5 346.1,458.7 347.9,458.8 348.1,459 348.2,459.4 348.2,459.7 348.3,459.9 352,459.9
			353.2,459.6 353.5,459.4 353.6,459.3 353.7,459.1 354,458.8 354.2,458.6 354.8,458.3 355.3,458.1 355.5,457.9 355.7,457.7
			355.8,457.6 357.3,457.4 357.8,457.4 358.6,457.6 358.9,457.6 359,457.8 359.2,458.2 359.4,458.6 359.7,458.8 360.7,459.1
			362.5,459.1 363.4,458.9 363.4,458.7 363.8,458 364.6,457.5 365.5,457.4 365.9,457.8 366.2,458.3 366.6,458.7 366.9,458.6
			367.1,458.3 367.2,458 367.1,457.7 367.2,457.4 367.2,457.2 367.1,457.1 367,456.9 367.1,456.7 367.2,456.6 367.4,456.5
			367.5,456.5 367.5,456.6 367.5,456.8 367.7,456.9 367.9,455.9 367.6,455.9 367.2,455.7 366.8,455.7 365.4,455.9 365,456.1
			364.6,456.4 364.2,456.6 363.7,456.6 363.1,456.3 362.4,455.7 362.2,455.7 361.8,455.6 362,455.1 361.9,454.7 361.8,454.4
			361.8,454.1 362.1,453.8 362.8,453.4 363.1,453.1 363.3,452.3 363.4,452 363.8,451.4 364.1,451.3 364.4,451.3 365.9,451
			366.3,450.8 366,450.1 366.5,449.9 367.2,449.9 367.7,450.2 367.8,450.5 367.8,451 367.9,451.5 368.2,451.7 368.5,451.5
			368.7,450.6 368.9,450.3 369.3,450.4 369.5,450.8 369.8,451.3 370,451.7 370.3,451.7 370.6,451.7 370.8,451.7 371,452.1
			371,452.3 370.6,452.9 370.5,453.1 370.6,453.5 370.8,453.8 370.9,454.1 371,454.3 372.4,454.3 372.2,454.1 372.5,453.2
			373.2,453.3 374.1,453.8 374.9,454.5 374.4,454.6 374.4,454.9 374.8,455.3 375.6,455.9 376.3,456.1 377.4,456 378.4,455.7
			378.9,455.2 379.4,455 382.5,455.3 384.1,455.3 384.5,455.9 385.5,455.9 386.6,456.2 394.4,461 396.2,461.5 398,461.5
			398.7,461.1 399.1,460.5 399.5,459.7 400.1,459 400.5,458.8 400.9,458.8 401.3,458.9 401.7,459.3 401.8,459.8 401.7,460.3
			401.8,460.7 402.4,461 402.6,461 402.9,460.8 403.1,460.7 403.9,461 404.8,461.1 405.2,461 405.5,460.7 405.6,461.4 405.9,461.8
			406.3,462.2 406.5,462.7 406.5,462.9 406.5,463 406.6,463.2 406.9,463.4 407.1,463.3 407.4,463.1 407.7,462.9 409.1,465
			409.3,465.5 409.2,465.9 408.6,466.4 408.9,466.7 408.9,467.2 409,467.6 409.1,468 409.4,468.3 409.6,468.3 409.8,468.1
			410.2,467.9 410.3,468 410.6,468.1 410.8,468.1 410.9,468 411.2,467.7 412.4,467.4 413,467.7 412.9,468.5 412.4,470 412.5,470.3
			412.5,470.5 412.4,470.8 412.3,470.9 411.9,471 411.8,471.1 411.6,471.6 411.4,471.8 411.6,471.9 413.8,471.6 414.4,471.4
			415.7,470.6 416.2,470.1 416.7,469.5 417.4,468.2 417.5,467.9 417.8,467.7 418.4,467.5 418.7,467.4 419.1,466.7 419.5,465.9
			419.8,465 419.8,464.1 419.7,463.6 419.5,463.2 419.3,462.9 418.9,462.7 419.2,461.1 419.2,460.7 419,460.2 418.8,459.8
			418.7,459.4 419.1,459.2 419.6,459.2 419.8,459.1 419.9,459.1 420.1,459.5 420,459.7 419.9,459.9 419.8,460.2 419.8,460.5
			420,460.7 420.2,460.9 420.6,461.1 421.8,461.3 422.2,461.2 422.5,460.9 423.1,460.1 423.5,459.8 424.2,459.8 427.9,461.3
			428,461.4 428.1,461.6 428.2,461.8 428.5,461.9 429.3,461.8 430.4,461.2 430.8,461.1 431.2,461.2 431.5,461.3 432.2,461.8
			431.9,462.1 431,462.7 431.2,463 432.7,463.7 434.1,465.2 434.2,465.4 434.2,465.7 434.1,466 434,466.2 433.9,466.2 434.2,466.7
			434.6,467 437.6,467 438.1,466.9 439.9,465.6 440.7,465.4 441.3,465.6 441.2,466.8 441.9,466.8 442.5,466.6 442.9,466.1
			443.3,465.6 443.8,465.1 444.3,464.9 445.6,464.9 446,464.7 446.3,464.3 446.1,464 445.8,463.8 445.5,463.7 446.8,462.2
			447.5,462 448.1,462.1 448.8,462.3 450.1,462.1 450.7,461.9 451.2,461.3 451.4,460.9 451.6,459.9 451.8,459.5 452.6,458.8
			452.7,458.7 453.2,458.7 454.4,459 456.7,459 458.3,459.3 458.6,459.2 458.9,458.5 459.2,458.3 461.5,457.8 468,458.1
			468.2,458.1 469,457 469.1,456.8 469.2,456.4 469.1,455.3 469,455 468.9,454.9 468.7,454.7 468.5,454.4 468.4,454.2 468.3,453.9
			468.8,453.7 469.4,453.1 469.7,453 470.1,452.8 470.2,452.8 470.1,453 470,453.4 469.9,453.7 469.7,454 469.6,454.3 469.8,454.7
			470.1,455 470.4,454.9 471,454.6 471.6,454.5 473.2,454.9 473.7,454.8 474.8,454.4 475.3,454.5 475.4,454.7 475.7,455.6
			475.9,455.9 476.1,456.2 476.9,456.9 477.3,457.1 477.9,457.1 478.5,457 478.9,456.8 480.2,455.7 480.7,455.4 481.7,455.2
			482.7,455.2 484.3,455.6 484.8,455.5 484.5,456.2 484.9,456.8 485.7,457.2 486.2,457.8 485.5,458.2 485.1,459.1 485.3,460.2
			486,460.7 486.4,460.8 486.7,460.9 486.9,461.1 488.2,462.5 489.6,463.5 489.9,463.7 490.1,463.6 490.4,463.5 490.6,463.4
			490.9,463.6 491.1,463.7 491.2,463.9 491.5,463.8 491.7,463.7 492.5,462.7 492.5,462.4 492.5,462.1 492.4,461.9 492.3,461.7
			492.3,461.4 492.3,460.7 492.4,460.6 492.6,459.9 492.7,459.9 492.6,459.9 492.6,458.9 492.6,459 493.1,458.4 493.1,458.3
			493.5,457.4 493.5,457.3 493.6,456.8 493.6,456.3 493.5,455.8 493.3,455.2 492.7,454.3 492.4,453.8 492,453.6 491.6,453.5
			490.9,453.8 490.5,453.9 488.9,453.6 488.5,453.1 489,452.3 489,452.3 489.2,452 489.2,451.7 489.2,451.5 489.3,451.2
			489.4,450.9 491.3,448 491.1,447.8 490.5,446.9 489.6,444.7 489.1,444.3 488.9,444.1 488.3,443.5 487.6,443.1 487.4,442.8
			487.2,442.4 487.2,441.9 486.7,440.9 484.7,438.8 484.5,438.4 484.2,437.9 484.1,437.4 484.1,436.8 484.3,436.5 484.5,436.4
			484.7,436.5 484.9,436.4 485.3,435.8 485.4,435.6 486.5,434.8 486.9,434.4 487.4,433.6 487.6,433.3 488,433.1 489.6,432.8
			489.6,432.7 490,432.3 490.9,431.8 492,430.8 492.4,430.5 495.3,429.3 499.2,428.7 500.2,428.1 502.9,425.7 503.3,425.1
			503.5,424.2 503.5,424 503.6,423.7 503.8,423.4 503.8,423 503.8,421.8 503.8,421.4 504,421 504.3,420.2 504.4,419.8 504.4,419.4
			504.1,419 504,418.3 503.9,418.1 503.9,417.9 504,417.6 504.3,417.4 505.2,417 506.1,416.9 509.1,417.7 509.6,418 510,418.3
			510.4,419 511.6,419.5 511.7,419.6 511.9,418.4 512.2,418 512.2,418 512.8,417.9 513.1,417.8 513.3,417.6 513.4,417.4
			513.9,416.3 514.1,415.8 514.2,415.1 514.2,414.4 514,413.1 514.1,412.6 514.5,412.2 514.1,412 514,411.9 513.7,411.3
			513.6,411.4 513.6,411 514.5,409.2 513.9,408.6 512.5,405.9 511.9,404.9 511.5,404.7 510.4,404.5 509.9,404.2 509.4,403.8
			509,403.1 508.7,402.3 508.6,401.5 508.1,401.6 507.6,401.3 507.2,400.9 506.7,400.6 506,400.5 505.6,400.7 505.4,401.1
			505.1,401.9 504.4,401.6 503.5,400.9 502.7,400.2 502.3,399.5 502.3,398.3 502,397.6 500.8,396.4 499.9,395.2 499.6,394.9
			499,394.7 497.3,394.6 496.5,394.1 496.1,393.4 495.7,392.6 493.1,389 492.7,388.8 492.7,388.8 492.7,388.8 491.8,387.7
			491.7,387.3 491.6,386.9 491.5,386.6 491,386.4 490.2,385.5 489.8,385.2 489.3,384.9 488.2,384.6 487.9,384.8 488,385.3
			487.5,385.4 485.8,385.2 485.2,384.9 484.8,384.5 483.9,382.4 483.3,381.8 482,381.2 481.5,380.8 481.1,380.1 481,379.4
			480.9,378 480.9,377.3 480.7,377.1 480.4,377.2 480.1,377.1 479.8,376.8 479.5,376.4 479.4,376 479.2,375.5 479.1,375
			478.9,374.1 478.7,373.6 478.4,373.3 477.8,372.9 477.5,372.5 477.5,372.4 477.6,372.1 477.4,372 477.3,371.9 477.6,371.4
			477.6,370.8 477.3,370.4 476.9,370.2 476,369.7 475.6,369.4 475.2,369.1 474.6,368.2 474.3,367.7 474.1,367.2 474.5,366.6
			475.6,366.1 476.1,365.6 476.2,364.9 476.2,364 476.4,363.4 476.9,363.5 477.1,362.9 477.8,361.7 478,361 478.1,360.2
			477.9,359.8 477.5,359.7 476.4,359 476.4,358.7 299.8,358.7 		"/>
	</g>
	<path fill="none" stroke="#999999" stroke-width="0.25" stroke-linecap="round" stroke-linejoin="round" d="M370,169.6h-0.2
		l-0.2,0.2l-0.1,0.1l-0.1,0.4l0,0.2l0.1,0.3l0.3,0.4l0.4,0.1l0.1-0.3l0-0.2l0.1-0.2l0-0.1l-0.2-0.1l-0.1-0.2l0-0.2l0-0.2L370,169.6z
		 M319.2,191.2l0.4,0.2l0.8-0.9l-0.1-0.2l-0.6-0.2l-0.5,0l-0.2,0.1l-0.1,0.1l0,0.1l0,0.5L319.2,191.2z M446.7,175l0.5,0l0.4-0.4
		l-0.1-0.7l0.2-0.4h0.2l0.1,0.6l-0.2,0.8l0,0.3l0.3,0l0.3-0.4l0.8-2.5l-0.8-0.4l-1.2,0.4l-1,0.9l-0.4,1.1l0.4,0.4L446.7,175z
		 M450.4,170.8l0.4-0.8l1.3-1.2l0.5-0.7l-0.4,0.4l-1.9,0.9l-0.2,0.4l0,0.1l0.2,0.9H450.4z M368.2,147.6l-0.5,0.4l-0.2,0.8l0.3,0.7
		l0.4,0.3l0.6,0l0.8-0.5l0.7-1l0.2-1.2l-0.1-0.5l-1.8,0.8l-0.2,0.1L368.2,147.6z M331,187.2l1.3-0.5h0.1l0-0.1l0-0.2l-3.2-0.1
		l-1.5,0.3l-1.3,0.8l1.1,0.3L331,187.2z M354.6,186.9l0.2,0.1l0.2,0.1l0.1-0.1l0.5-0.4l0.3-0.1h0.4l-0.6-0.4l-0.6-0.1l-0.6,0.2
		l-0.3,0.6v0.3l0.3-0.2L354.6,186.9z M347.3,183.6l0.5,0l1.2,0.3l0.3,0l0.3,0l-0.7-0.5l-0.4-0.1l-0.5,0l-0.6,0.1l-0.5,0.2l-0.1,0.3
		l0.5,0.4L347.3,183.6z M324,188l-3.8,0.5l-1,0.5l5.9-0.7L324,188z M334.5,186.8l0.2-0.1l0.1-0.1l0.1-0.2l-0.4-0.3L334,186l-0.6,0.1
		l-0.5,0.3l0.4,0L334.5,186.8z M336.2,186.5l0.8,0l0.1-0.8l1-0.2l2,0.1l0.1,0l0.1,0l0-0.1l0-0.2l-0.6-0.3l-2.5,0l-0.9,0l-0.3,0.2
		l-0.1,0.5l0.1,0.6L336.2,186.5z M341.7,185l0.2-0.2l0.3-0.4l0.7,0.5l0.8,0l0.8-0.3l0.6-0.4h0.4v-0.3l-2.4-0.2l-1.2,0.3l-0.7,0.9
		l0.2,0.2H341.7z M360.7,139.4L360.7,139.4l0.2,0l0.1-0.1l0-0.2l-0.6,0.2l-0.5,0.6l-0.8,1.5l0.6,0.8l0.5,1l0.7,0.6l1-0.3l0.4-0.3
		l-0.5-0.3l-1.4-2.7l0.3-0.4L360.7,139.4z M373.7,150.3l0.3,0.5l0.6,0.2l1.2-0.1l0.7-0.3l0.4-0.5l0.4-0.6l0.5-0.5l0-0.3l0-0.2
		l0.1-0.1l0.1-0.1l-1.2-0.3l-1.1,0.1l-1,0.5l-0.9,0.9l0.2,0.2l0.1,0.3l-0.1,0.3L373.7,150.3z M495.9,145.3L495.9,145.3L495.9,145.3
		L495.9,145.3z M493.5,149.9l0.1-0.5l0.1-0.5l0.2-0.4l0.4-0.4l0.2-0.3l0.3-1l0-0.9l0.2-0.8l0.7-0.6v1h0.2V145l0.1,0l0.1,0.1l0,0.1
		v-0.6l-0.2-0.3l-0.3-0.1l-0.4,0l-0.5,0.1l-0.2,0.3l-0.2,1.2l-0.9,3.2l-0.1,1.1v0.7h0.2L493.5,149.9z M512.7,166.1l0.3,0.5l1.2,1.2
		l0.2,0.7l-0.2,1.3l-0.8,1.6l-0.2,0.9l0.6,0.2l0.4-0.4l0.4-0.6l0.9-0.4l0.2-0.2l0.2,0.1l0.1,0.6l-0.1,0.3l-0.2,0.3l-0.2,0.4
		l-0.1,0.6l1-0.4l0.2-0.1l0.1-0.4l0.2-0.4l0.3-0.3l0.2-0.1v-0.3l-0.3-0.6l0.3-0.4l0.6-0.1l0.6,0.1l0.4,0.4l0.4,0.5l0.3,0.6l0.2,0.8
		l0.7-0.3l0.4,0.8l0,1.3l-0.4,1.2l0.2,0.6l-1-0.3l0.1-0.3l0.1-0.2l0.1-0.1l0.1-0.1l-1.1,0l-0.4,0.2l-0.4,0.8l0-0.8l0.2-0.9l-0.1-0.3
		l0.2-0.4l-0.5-0.2l-1.4-0.1l-0.1,1.2l1,2l-0.2,1.4l-0.3,0.3l-1,0.6l-0.9,0.2l-0.6,0.5l-0.4,0.1l0.5,0.7l1,0.3l1.8,0l1.6-0.4
		l0.8-0.5l0.7-0.7l0.5,0.3l0.6,0.1l3.2-0.4l-0.2-0.8l-0.5-0.6l0.3-0.1l0.2-0.2l0.5-1.3l-0.5-0.4l-5-5.4l-0.9-0.5l-1.1-0.4l-1.9-1.1
		l-0.7-0.8l-0.3-0.6l-0.6-1.6l-0.3-0.5l-0.5-0.2l-0.5,0.2l-0.4,0.5L512.7,166.1z M313.6,193.6l0.5,0.3l0.2-0.1l0.4-0.2l0.3,0
		l0.2,0.1l0.4,0.4l0.2,0.2l-0.2-0.5l-0.2-0.3l-0.2-0.2l-0.3-0.1v-0.3l0.5-0.1l1-0.4l0.6-0.1l-0.4-0.7l-1.1,0.1l-2.1,0.7l-0.3,0.3
		l0.1,0.6L313.6,193.6z M364.4,140.3l0.7-0.3l0.2,0.2l0.4,0.2l0.5,0.1l0.4-0.1l0.2-0.3l0.3-0.9l0.2-0.4v-0.3l-0.5-0.9l-0.6-0.4
		l-1.6-0.1l-0.9,0.1l-0.8,0.3l-0.6,0.6l-0.6,1l1.6,1L364.4,140.3z M358.8,137.7l0.2-0.2l0.1-0.7l0.1-0.9l-0.1-2.7l0.1-0.2l0-1
		l0.1-0.4l0.1-0.1l0.8-0.6l0.2-0.1l0.3,0l0.2,0.1l0.2,0.4l0.2,0.1h1.9l0.4-0.1l0.8-0.6l0.4-0.2l3.5,0.2l0.7-0.6l-6.1,0.3l-1.3-0.3
		l-1-0.9l0.2-1.7l-0.2-0.9l0.3-1l0.5-0.8l1.1-0.6l0.3-0.7l-0.2-0.6l-0.8-0.1l0.2-0.2l1.7-0.1l-1.3-0.7l-1.2,1.5l-2.1,6l-0.3,1
		l-0.3,5.3l0,1.3L358.8,137.7z M435.8,151.4l0.2,0l0.1,0.2l0.1,0.4h0.2l0.2-0.3l0.3-0.1l0.7,0l0.4,0.2l0.1,0.4l-0.1,1l0.3,0.4
		l0.7,0.1l1.1-0.1l-0.1-0.1l-0.1-0.2l0.5-0.3l3.5,0.6l-1.6-3.1l-0.4-0.8l-0.2-0.3l-0.7-0.6l-2.4-1l-1.4,0.2l-1.1,1.1l-0.8,2l0.1,0.7
		L435.8,151.4z M499.9,148.5l-0.1-0.4l-0.2-0.6l-0.3-0.2l-0.3-0.1l-0.2-0.3l-0.5-0.1l-2.2,0.3l-0.6,0.3h0.3l0.2,0.1l0.1,0.2l0,0.4
		l0.1,0.4l0.1,0.1l0.1,0l0.1,0.2l0.2,0.2l0.5-0.1l0.8-0.3l0,0.3l0,0.2l-0.1,0.1l-0.1,0.1l0.2,0.4l0.3,0.2l0.8,0.3l-0.2,0.2l-0.2,0.1
		l0,0v0.3l-0.6,0.1l-0.8,0.5l-0.8,0.2l-0.2,0.3l-0.5,1l1.3-0.3l0.3,0.1l0.2,0.3l0.2,0.2l0.4,0v0.3l-0.1,0.5l0.1,0.5l0.3,0.3l0.5,0.1
		l-0.9,0.6l-0.4,0.1l-0.3-0.3l-0.2,0.3l-0.9-0.6l-0.7,0.3l-0.6,0.9l-0.4,1l1.7,1.3v0.3l-0.4-0.2l-0.4,0.1l-0.2,0.3l0.2,0.4l0.3,0
		l0.9-0.4l0.4,0.1l-0.2,0.6l0.3,0.4l0.5,0.2l0.4,0.1l0.2,0.1l0.3,0.3l0.3,0.2l0.2-0.1l0.2-0.2l0.3-0.1l0.6,0.1l-0.1-0.2l-0.1-0.1
		l0.2-0.2l0.2-0.2l0.4-0.2l-0.3,0.7l-0.1,0.6l-0.2,0.3l1,0.7l0.9,0.3l0.8,0.1l0.4-0.2l0.1-0.5l-0.2-1.1l-0.2-0.1l-1.3,0.2l0,0h0.1
		l0.1,0.1l0,0.2l-0.4,0.3l0.1-1.3l0.6-0.3l0.7-0.1l0.3-0.7l0.3-0.5l1.5-1.3l0.5-0.3l2.8-0.3l0.3,0.2l0.2,0.3l0.2,0.1l0.4-0.4
		l0.3-0.2l0.4,0l0.8,0.1v0.3l-0.5,0.2l-1.6,1.1l0.6-0.4l0.6-0.2l1.5-0.1l-0.2,0.5l-0.4,0.4l-1,0.4v0.3l0.3,0.2h0.5l0.4-0.2l0.3-0.3
		h0.2l0.1,0.5l-0.1,0.3l-0.3,0.2H511l0.6,0.2l0.3,0l0.1-0.3v-0.8l0.1-0.8l0.3-0.6l0.4-0.5l0.4-0.3l-0.7-0.3l-0.5-0.6l-0.7-1.4
		l-0.6-0.4l-1.3-0.3l-0.6-0.3l-0.3-0.4l-0.3-0.7l-0.3-0.8l-0.1-0.8l0.3-0.7l0.6-0.6l1.3-0.8l0.7-1.2l-0.2-1.2l-0.8-0.9l-1.3-0.3
		l-3.6,0.7l-1.2-0.4l-0.5-0.4l-0.4-0.5l-0.2-0.7l-0.1-0.9l0.2-0.7l0.5-0.4l0.6-0.3l0.4-0.3v-0.3l-0.7-0.4l-0.8,0l-3.9,1.1l-0.3,0.2
		L498,142l-0.2,0.3l0,0.6l0.2,0.1l0.4-0.3l1.3-0.3l0.1,0.2l-0.1,0.5l-0.1,0.5l-0.1,0.2l-0.4,0.4l-0.4,0.8l-0.2,0.9l0.1,0.6l0.6,0.2
		l0.5-0.4l0.5-0.5l0.7-0.4l0.4-0.6l0.2-0.2l0.4-0.3l0.1,0.2l0.3,0.5l0.2,0.3l0.1,0.3l0.2,0.2l0.4,0.1l0.3,0.2l0.2,0.3l0.2,0.3
		l0.1,0.2l1,0.1l0.3-0.1l0.2-0.2l0.2-0.3l0.2-0.2l0.4,0v0.3l-0.2,0.1l-0.1,0.1l-0.1,0.1l-0.2,0.1v0.3l0.2,0.3l0.2,0.3l0.2,0.7v0.4
		l-0.2,0.1l-0.1,0.2l-0.3,0.6l0.2,0.4l-1.5,0l-0.7-0.2l-0.6-0.8l0.2-0.7l-0.3-0.7l-0.5-0.6l-0.3-0.6l-0.4,0.4v0.3l0.2,0.1l0.3,0.2
		l0.2,0.1l-0.2,0.5l-0.2,0.3l-0.3,0.1l-0.4,0l0.3-0.7l0.1-0.2l-0.1-0.2l-0.1-0.1l-0.2,0h-0.2l0.2-0.3l0.2-0.4l0.3-1l-0.5,0.2
		l-0.5,0.4l-0.5,0.5L500,147l0.2,0.8l-0.1,0.6L499.9,148.5z M548.3,301.2l-0.1-0.1l0.1-1.3l-0.4-0.9l-0.6-0.7l-0.5-0.9l-0.1-0.3
		l-0.1-0.8v0l-0.3-3.1l0.2-0.6l-0.3-0.6l-0.5-0.5l-0.4-0.4l-0.6-0.3l-1.3-0.4l-0.6-0.4v0l-0.6-0.4l-1.8-0.6l-0.6-0.7l-0.2-0.8
		l0.2-0.9l0.6-0.9l0.3-0.9l-0.1-1.2l-0.3-1.1l-0.4-0.8l-1.4-1.1l-0.6-0.7l-0.3-1.2l-0.1-1.2l-0.4-0.5l-0.5-0.3l-0.5-0.7l-0.1-1
		l0.4-0.8l1.6-1.6l0.5-0.7l0.4-0.8l0.2-0.9l0.1-2.8l0.2-0.4l0.6-1.1l0.1-0.4l0.1-0.4l0.1-0.4l0.2-0.4l0.5-0.6l-1.8-1.4l-0.3-0.6
		l0.2-1.2l0.3-0.8l0.1-0.7l-0.4-0.6v-0.3l0.5-0.7l0-0.9l-0.4-0.8l-0.8-0.4l-0.8-0.2l-1-0.5l-0.6-0.7l0.2-0.8l-0.6-1.3l-0.7-2
		l-0.2-1.8l1.5-1.3l0.7-1.1l0.5-1.1l-0.1-0.5l-0.5-0.5l0.2-1.1l0.8-1.7l-0.9-0.7l-1.8-2l-1.7-0.7l-0.8-1.1l-0.5-0.3l-0.3-0.3l-1-1.9
		l-0.4-0.5l-3-2.2l-0.8-0.4l-0.9-1.1l-0.6-0.2l-0.6-0.1l-0.6-0.2l-0.5-0.4l-0.3-0.7l0.7-0.6l0.3-0.6l0.1-0.9l-0.1-0.6l-0.3-1.6
		l-0.2-0.5v-0.3l1.4-1l1.7-0.9l1.7-1.3l0.9-0.9l0.4-0.9l0.1-0.4l0.9-2.6l-0.1-0.7l-0.2-0.7l-0.1-0.8l0.1-0.6l0.2-0.6l0.3-0.4
		l0.3-0.2l0.2-0.3l0.7-1.4l-0.4-0.3l-0.1-0.3l-0.4-0.4l-0.2-0.3l-0.1-0.5l0-0.9l0-0.4l-0.8-3.6l-0.3-2.4l-0.6-1l-0.3-1l-0.7-1.1
		l-0.2-1l0-1.1l0.1-1.7l0-0.5l-0.6-1.8l-0.4-0.9l0.1-0.7l0-1.3l-0.2,0l-0.5-0.1l-0.4-0.1l-0.3-0.2l1.3-0.9l0,0l0.2-0.4l-0.1-0.8
		l-0.1-0.1l-0.3-0.3l-0.5-0.1L526,185l-0.3,0.7l-0.8,0.2l-2.3-0.2l-0.3-0.1l-0.7-0.4l-0.2-0.1l-0.7,0.1l-0.1-0.1l-0.4-0.6l-0.9-0.2
		l-2.1-1.7l-0.3,0.1l-0.5-0.4l-0.4-0.6l-0.2-0.5l-0.2-0.2l-0.5-0.1l-0.5-0.3l-0.2-0.6l0.3-0.6l2-1.7l0.3-0.4l0.2-0.5l0-0.4l-0.3-0.2
		l-0.2,0l-0.2-0.1l-0.2-0.1l-0.1-0.1l-0.1,0l-0.4,0l-0.1-0.1l0-0.2l0-0.2l0-0.2l-0.1-0.2l-0.1-0.4l-0.1-0.3l-0.2-0.1l-0.8-0.3
		l-0.2-0.1l-0.3-0.5l-0.8-1l-0.3-0.3l0.8-0.5l0.4-0.8l0.2-0.9l0.4-0.7v-0.3l-2.2-1.9l-0.9-0.4v-0.3l0.3-0.1l0.2-0.2l0-0.2l-0.1-0.2
		l-0.8,0.3l-1.4,1l-0.8,0.4l-3.5,0.7v0.3l0.2,0.2l0.3,0.5l0.2,0.2v0.3l-0.7,0l-0.5-0.3l-0.4-0.6l-0.4-0.7l-0.4-1.1l-0.2-0.2
		l-0.3-0.1l-0.2,0.2l-0.2,0.1l-0.3-0.2l0.2-0.2l0.1-0.2l0.2-0.6l-0.6-0.2l-1,0.5l-0.7,0l0.3-0.4l0.4-0.3l-0.8-0.7l-0.9-1.9l-0.7-0.4
		l-1-0.2l-1.5-0.8l-0.9,0.1l0.3-0.2l0.2-0.1l0.3,0v-0.3h-1.3l-0.3-0.2l-0.1-0.4v-0.5l-0.1-0.5l-0.8-1.3l-0.1-0.7l0.5-0.9l-0.3-0.3
		l-1.2-0.6l-0.3-0.5l-0.2-0.6l0-0.6l0.4-0.3l-0.7-0.2l-1.1,0.4l-1.1,0.7l-0.7,0.7l-0.3,0.5l-0.3,0.8l-0.2,0.4l-0.3,0.3l-0.3,0.1
		l-0.5,0l-0.3,0.1l-0.1,0.1l-0.1-0.1l-0.5-0.6l-0.2-0.3l-0.1-0.3l-0.1-0.4l-0.3,0.4l-0.3,0.2l-0.3,0l-0.3-0.3l-0.3,0.4l-0.3-0.1
		l-0.3-0.4l-0.2-0.5l-0.1,0.4L483,155l-0.4,0.6l0.1-0.6l0.2-0.6l0.3-0.4l0.4-0.1v-0.4l-0.4,0l-0.3,0l-0.3,0.1l-0.3,0.2l0,0.2
		l0.1,0.4l0.1,0.2l-1.5,0.9l-0.8,0.2l-0.5-0.5v0.3l-0.2-0.2l-0.2,0l-0.5,0.2v0.3l0.2,0l0.4,0.3l-1.8,0.9l-0.5,0.4l-0.1,0.2l0,0.6
		l-0.1,0.2l-0.1,0.1l-0.3,0.1l-0.2,0.1l-0.7,0.7l-0.3,0.4l-0.2,0.6l0.6,0.5l0.3,0.2l0.4,0l-0.6,0.4l-0.7-0.2l-1.2-0.9l0.3-0.4
		l-0.1-0.4l-0.2-0.5l-0.2-0.7l0.5-0.1l0.3-0.4l0.1-0.6l-0.2-0.6l0.2-0.3l0.2,0.2l0.2,0.1l0.4,0.1l-0.2-0.8l0.2-0.7l0.4-0.6l0.5-0.2
		l1,0.1l0.5,0.3l0.5,0.6l0.3-0.6l0.5-0.3l0.6-0.1l0.5,0.3l0-0.2l0-0.1h0.1l0.1,0l-0.2,0l-0.2-0.1l-0.1-0.2l-0.1-0.4l0.2-0.1l0.2-0.2
		l0.1-0.1l0.2,0.4l0.2-0.6l0.3-0.2l0.7,0.1h0.6l0.2-0.1l0.3-0.4l0.2-0.1l0.7,0.1l1.2,0.4l3,0.3l0.7-0.2l0.7-0.7l-0.4-0.5l-0.8-0.2
		l-0.6,0.4l-1.1-0.5H480l-1.2-0.5l-0.6-1h0.2V150l-0.6,0.3l-0.3,0.4l-0.4,1.3l-1.2,2l-0.2,0.5l-1.7,2.5l-1,2l-0.4,0.5l-1.1,0.9
		l-2.1,1.2l-0.4,0.1l-0.4,0.3l-0.7,1.1l-0.6,0.5l-1,1.3l-0.2,0.5l0.3-0.2l0.3-0.1l0.3-0.1l0.3,0l-0.2,0.6l-0.8,0.5l-0.3,0.6l0.2,0.5
		l0.1,1.2l0.3,0.6L466,168l-0.1-1.1l0.1-1.3l-0.1-1.4l-1.1,0.7l-6.7,1.4l-2.4-0.4l-1.1,0.2l-0.9,0.6l-0.7,1.3l-0.1,0.1l-0.1,0.2
		l-0.1,0.2v0.3l0.2,0.2l0,0.2l-0.1,0.3l-0.1,0.3l-0.2,0.2l-0.2,0.1l-0.4,0.3l-0.5,1.3l-0.6,0.4l-0.2,0l-0.7-0.3v0.3h0.2v0.4l-1,1
		l0.1,0.2l0.1,0.5l0.1,0.2l-0.2,0.1l-0.3,0.2l-0.2,0.3l0.1,0.8l-0.2,1l-0.3,0.8l0,0.5h-0.3l-0.2-0.1l-1.1-1.4l0-0.1h-1.2l-0.2-0.2
		l-0.3-0.7l-0.2-0.1l-1.1,1l-0.2,0.1l-0.8-0.1l-0.4-0.2l-0.1-0.5l0.1-1.1l-0.1-0.2l-1-0.3l-0.2-0.3l-0.2-0.7l-0.2-0.3l-0.2-0.1
		l-3.4,0.5l-1.5,0.8l-0.5,0.1l-0.5,0.2l-0.8,0.9l-0.4,0.3l-0.1,0l-0.4,0l-0.4-0.1l-0.1-0.4l0-0.6l-0.2-0.5l-0.3-0.1l-1.1,0.1
		l-0.8-0.2L429,173l-0.4-0.7l-0.4-0.9v-0.3l0.3-0.3l1.1-1.7l0.1-0.1l0.2-0.1l0.3,0l0.2,0.2l0.2,0.1l0.2-0.2l0.2,0l1.1-0.4l0.5-0.3
		l1.1-1.5l3.3-2.1l0.1-0.4l0.3-0.3l0.3-0.4l0.1-0.8l-0.2-1.4l0-0.8l0.2-0.6l-0.2-0.9l-0.3-1.9l-0.3-0.8l0.4,0.2l0.2,0.1l0.3-0.5
		l1-1.2l-0.9-0.3l-2,1.2l-0.7-0.5l-0.5,0.2l-0.5-0.2l0.7,0l0.5,0V155l-2.4,0.3l-1,0.4l-0.9,0.6l-1.6,1.5l-0.9,0.6l-1.3,0.2l-1.2-0.3
		l-2.5-2.4l-4.4-2l-1.7-1.4l-0.6-0.3l-1.2-0.1l-0.3,0.1l-0.3,0.3l-0.1,0.3l-0.2,0.3l-0.4,0.2l-1.1,0.1l-0.3,0.2l-0.2,0.4l-0.4,1.6
		l-0.7,1.5l-0.5,0.6l-0.6,0.2l0.3-0.5l0.1-0.5l-0.1-0.4l-0.3-0.3l0.2-0.3l0-0.2l-0.1-0.1l-0.1-0.1l0.5-0.1l0.5-0.4l0.4-0.6l0.2-0.6
		l-0.1-0.8l-0.2-0.6l0-0.5l0.6-0.6l-1.7-1.5l-0.5-0.2l-6.8,1.6l-1.2-0.6v-0.3l1.2-0.1l1.2-0.4l1.1-0.6l0.9-0.8l0.4-0.5l0.3-0.6
		l0.2-0.7l0.1-0.9l0.2-2l0-1l-0.2-0.7l0.2-0.7l-0.2-0.3l-0.3,0l-0.3,0.3l-0.4-0.6l-0.7,0l-0.7,0.2l-0.4,0l0-0.4l0.1-0.1l0.1,0
		l0.2-0.1l0.1,0l0.7-0.6l0-0.1l0.3,0.1l0.3,0.2l0.4,0l0.4-0.3l-0.5-0.6l-0.3-0.4l-0.2-0.4l-0.4-1.7l-0.6-0.8l-0.9-0.6l-0.7,0l0.1,1
		l-1.3,0.5l-0.7,0.1l-0.3-0.4l-0.3-0.8l-0.7-0.5l-0.7-0.3l-0.5-0.4l-1.2-0.5l-1.7-0.1l-1.4-0.5l-0.1-1.8l-0.4,0.3l-0.4,0.6l-0.7,0.3
		l-0.5,0.7l-1.7,0.8l-0.4,0l-0.4,0.1l-0.5-0.1l-0.6-0.5l-0.5,0.1l-0.3,0.3l-0.4,0.1l-0.3,0.3l-0.4,0.1l-2.1,0l-0.5-0.2l-0.2-0.6
		l-0.1-0.7l-0.1-0.5l-0.5-0.4l-6-1.4l-2.2-0.9l-2.2-0.4l-0.7,0.1l-1.9,0.7l-1,0l-1-0.3l-0.4,1.4l-0.1,1.1l0.2,1.3l0.4,0.8l0.5,1
		l0.4,1l-0.2,0.9v0.3l1,0.5l1.5,1.3l0.8,0.5l0.4,0.7l1,2.6l-1,0.7l0.2,0.4l0.3-0.2l0.6-0.2l0.6,0l0.3,0.2l0.1,0.5l0.3,0.5l2.3,2.5
		l0.7,1.1v1.2l-0.2,0.8l-0.5,0.4l-1.1,0.5l-1.2,1.1l-0.6,0.4l-0.7,0.2h-3.1l-2.3,0.6L369,154l-0.3,0.4l-0.3,0.5l-0.1,0.5l0.2,0.5
		l0.5-0.6l0.4,0.1l0.4,0.4l0.5,0.1v0.3l-0.7,0l-0.9,0.2l-0.8,0.4l-0.4,0.5l0.1,1.3l0.6,1.1l0.8,0.7l0.7,0.3l0.3-0.1l0.9-0.9l0.4-0.2
		l1,0.2l0.9-0.1l1.5-0.5l0.9-0.1l-0.1,0.2l-0.1,0.3l-0.1,0.2l0.6-0.3l1.1-0.9l0.6-0.1l-0.3,0.7l-0.4,0.8l-0.4,0.6l-0.3,0.2l-0.5,0.1
		l-1.2,0.3l-0.3,0.3v0.3l0.2,0.7l-0.3,0.8l-0.4,0.8l-0.2,1l0.1,0.2l0.5,1.1l0.8,1.3h0.2l0.5-0.6l0.9-0.5l1-0.2l0.7,0.2v0.3l-0.1,0.5
		l0.4,0.5l0.5,0.5l0.3,0.5v0.7l-0.2,1l-0.2,1l-0.2,0.5l-0.6,0.3l-0.6-0.2l-1.1-0.7l-0.7-0.2l-0.5,0l-1.1,0.5l2.3,4.7l0.9,1.2l1,0.8
		l0.7,0.2l0.3-0.5l0.3-0.2l0.7,0.2l1.1,0.5l3.6,0.1l1.1,0.2l1.1,0.6l1.8,1.5l1,0.4l0,0.9l0.5,1.5l0.7,1.4l0.7,0.6l0.4,0.1l1.3,0.7
		l0.3,0.3l0.1,0.8l0.1,1.3l0.3,1.5l0.9,1l2,1.3l1,0.4l2.5,0.3l1.1,0.6l0.3,0.6l-0.4,0.2l-3.4-0.8l-1.7-1.1l-0.3-0.2l-0.7-0.1
		l-0.5-0.2l-0.4-0.4l-1.9-2.8l-0.4-1.4l-0.4-0.5l-0.8-0.6l-1.1-1.3l-2.7-4.9l-0.6-0.8l-0.2-0.2l-1,0l-0.5-0.1l-0.4-0.3l-0.5,0.4
		l-2.2,0l-2.2,0.6l-0.5,0.6l-1.1-0.1l-2,0.5l-1.2,0l-2.2-0.6l-1.1-0.6l-1-0.9l-0.7-0.8l-0.3-0.1l-0.6,0l-0.6,0.1l-0.6,0.4l-0.6,0.5
		l-0.4,0.6l-0.5,1.3l-0.8,2.9l-1,2.6l-0.2,0.7l-0.1,0.8l0.1,0.8l0.4,1.1l0.2,0.9l0.2,0.7l0.3,0.6l0.2,0.3l0.7,1.9l0.1,0.2l-0.3,1.3
		l-0.6,0.6l-0.6,0.5l-0.4,1l0,1.4l0.3,2.9l-0.1,1.2l-0.4-0.9l-0.2-1.2l0-2.6l0.2-1.4l0.5-1l0.6-0.7l0.7-0.6v-0.3l-1.1-0.5l-2.4-0.5
		l-1.1-0.6l-0.3-0.5l-0.3-0.7l-0.4-0.6l-0.5-0.2l-1.2,0.1l-0.5,0.2l-0.4,0.4l-0.2,0.7l-0.2,1.6l-0.2,0.8l0,0.7l0.6,0.1l1.1-0.3
		l0.8,1l-0.2,1.6L359,200l-0.6,1l-0.3,0.3l-0.3,0.2l-0.3,0.1l-0.5,0l-0.4-0.2l-0.3-0.4l-0.2-0.5l-0.2-0.2l-0.2-0.1l-0.5-0.6
		l-0.3-0.2l-0.5,0l-0.3,0.1l-0.4,0.2l-0.4-0.4l-0.3-0.6l-0.5-1.6l0.5-0.3l1.1-0.1l0.5-0.3l0.6-0.5l0.3-0.4l0.1-0.9l-0.3-0.5
		l-0.6-0.2l-0.4-0.2l0.2-0.6v-0.3l-0.9-0.7l-1.2-1.5l-0.8-1.7l0.2-1.3v-0.4l-2.3-0.7l-8.4,1.2l-4.2,0.9l-0.7-0.2l-0.3-0.4l-0.3-0.2
		l-4.3,0.5l-2.2,0.9l-1,1.1l-0.5,0.4l-1,1.1l-0.9,0.6l-0.4,0.5l0.1,0.6l0.4,0.4l0.8,0.4l0.2,0.3l0.1,0.6l-0.2,0.5l-0.3,0.1l-0.2,0.4
		l-1.1-0.2l-0.6,0l-0.2,0.4l-0.1,0.7l-0.5,1.4l-0.1,0.8l0,3.5l0.4,1.3l1,0.5l6.4,0.2l1.1,0.4l0.7,1l-0.5-0.2l-1-0.6l-0.6-0.2l-0.7,0
		l-0.4,0.2l-0.7,1.1l0.2,0.5l-0.1,0.6l-0.3,0.5l-0.2,0.3l-0.3,0.3l-0.3,0.2l0.1,1.3l0,0.8l-0.1,0.7l-0.2,0.8l-0.4,1l-0.1,0.4l0,0.6
		l0.1,0.3l0.1,0.2l0.1,0.4l0.3,3.3l0,1.7l-0.3,1.5l-0.6,1.6l-2.3,3.6l-0.5,1.4l-0.2,1.6l-0.3,5l-0.2,1.6l-0.5,1l-1-0.3l-0.4-0.2
		l-1.4,0.2l-1.5-0.5l-2.7,0l-0.9,0.3l-1,0.7l0.2,0.5l0,0.4l-0.1,0.4l0,0.4l0.2,0.3l0.9,0.8l-1.6,0.8l-0.5,0l0.3,0.7l0.1,0.8l0,0.8
		l0.2,0.7l0.6,0.6l0.7,0.4l2.2,0.3l1.5,0.6l0.8,0.1l0.7-0.1l0.7-0.2l0.3-0.3l0.2-0.3l0.2-0.1l1.7,2.8l0.4,1.2l-0.2,1.7l-0.6,1.3
		l-0.2,0.7l0,0.8l0.3,1l0.2,0.4l-0.1,0.2l-1.2,0.8l-0.3,0.4l-0.7,1.1l-0.6,0.5l-1.2,0.5l-0.5,0.6l-0.6,1.3l-0.3,0.3l-1.8,0.2
		l-0.5,0.3l-0.5,0.5l-0.1,0.3l-0.2,0.6l-0.2,0.3l-0.3,0.2l-0.3,0l-0.2,0.1l-0.2,0.5l0.1,0.7l0.4,0.3l0.6,0.2l1.8,1l0.7,0.8l0.1,0.2
		l0.1,0.3l0,0.6l-0.1,0.1l-0.2,0l-0.2,0.3l-0.6,1.2l-0.7,0.8l-0.8,0.4l-2.5,0.1l-2.8,1l-1.4,1.1l-0.5,0.2h-0.6l-1.8-0.5l0.2,1
		l-0.1,0.5l-1.1,0.3l-0.1-0.7l-0.5-0.3l-1.1-0.2l-0.1-0.2l-0.3-0.6l-0.2-0.2l-0.2,0l-0.9,0.2l-0.9-0.4l-0.9-0.7l-0.9-0.4l-0.9,0.5
		l0.3,0.3l1.1,1.1l0.4,0.6l-0.5-0.1l-0.7-0.2l-0.9-0.2l-1.1,0.3l-0.4,0.2l-0.6,0.4l-0.5,0.2l-1.2,0.2l-0.5,0.3l-0.1,0.4l0.6,0.5
		l0.4,0.9l0,0.9l-0.6,0.6l0,0.5l0.3,0.1l0.8,0l0.3,0.2l0.6,0.5l0.3,0.3l-0.4,1.3l0.6,0.8l1.9,0.8l-0.3,1l-0.2,0.6l0.1,0.6l1.9,2.6
		l1.1,1.3l0.2,1.5l0.1,0.8l-0.1,0.9l-0.2,1l0,0.8l0.4,0.5l-0.2,0.4l-0.1,1l-0.2,0.6l-0.3,0.4l-0.7,0.5l-0.3,0.3l-1.4,2.7l-0.6,0.7
		l-0.3,0.5l-0.2,0.9l-0.1,1l0.2,0.8l0.7,0.4l1.4-1l0.6,0.2l-0.2,0.1l-0.6,0.5l0.6,0.6l-0.4,0.6l-1.6,0.9l-2.6,2l-0.4,0.4l-0.5,1.1
		l-0.3,0.4l-0.5,0.1l-0.4-0.3l-0.3-0.4l-0.4-0.2l-0.8,0.4l0.2,1l0.4,1.3l0,1.1l0.4-0.1l0.7-0.4l0.4-0.1l0.4,0.1l0.7,0.2l1-0.1
		l0.1,0.2l-0.2,0.4l-0.1,0.4l0,0.6l0.1,0.4l0.2,0.2l0.7,0.4l0.9,0.3l-0.1,0.2l-0.1,0.2l-0.1,0.3l0.2,0.9l0,0.4l-0.2,0.5l-0.3,0.4
		l-0.6-0.1l-0.4,0.2l-0.2,0.4l0,0.4l0.1,0.4l-0.1,0.5l-0.4,0.4l-0.4-0.1l0.1,0.6l0.2,0.4l0.3,0.2l0.2,0.3l-0.1,0.6l0,0l0,0l0,0
		l0,0.1v0.1l0,0.1l0,0l0.3,0.2l0.2,0.1l0,0.3v0.1l-0.1,0.5l0.1,0.2l0,0.1l0.4,0l1.1-0.3l0.5,0.1l0.5,0.5l0.3,0.5l1.4,2.1l0,0
		l-0.4,0.2l0.3,0.6l0.6,0.3l1.9,0l0.1,0.3l-0.1,0.3l-0.1,0.1l-0.3,0.4v0.2l-0.6,0.4l-0.5,0.5l-0.3,0.3l-0.5,0.8l0,0l0.5,0.6
		l-0.2,0.3l0,0.2v0l0.2,0.1l0.3,0h0l-0.2,0.4l0.2,0.1l0.1,0.1h0l0.1,0.2l0.2,0.3l0.2,0.1l0.1,0.1l0.1,0l0.2,0l0.8-0.3l0.1,0l0.1,0
		l0,0l0.1,0l0.1,0l0.1,0.1l0.4,0.2l1.2,0.3l0.5,0l-0.3,0.3l0,0.1l-0.1,0.3l0,0.1l0.1,0.3l0.2,0.5l0.1,0.1l0.2,0.3l0.2,0h0l0.1,0.1
		l0.1,0.1v0l0,0.1l0,0.6l-0.2,1l0,0.1l-0.2,0.6l0,0.5l1,1.7l0.1,0.6v0l-0.2,0.2l-0.1,0.1l0,0l-0.7,0.1l-0.4-0.1l-0.2-0.1l-0.1,0
		l-0.3,0l-0.2,0.1l-0.2,0.1l-0.2,0.2l-0.1,0.1l-0.2,0.4l-0.1,0.4l0.1,0.4h0l-0.5,0.5l-0.7,0.2l-0.5,0.1l-0.6,0.3l-0.2,0.3l-0.1,0.1
		l-0.5,0.3l-0.1,0.1l-0.3,0.4l0,0l0.4,0.4l0,0.1l0.1,0.4l0,0.5l-0.2,0.4l-0.1,0l-0.2,0.1l-0.6,0l0,0l-0.2,0.1l0,0.1l0,0.1l-0.1,0.3
		l0,0.2l-0.1,0.2l0.3,0.2l0.1,0.3v0l0,0.1l-0.1,0.2l-0.3,0.3l-0.2,0.6l-0.1,0.6l-0.2,1.2l0.1,0l0.2,0l0.1,0l-0.1,0.1l-0.3,0.5
		l0.3,0.2l0.2,0.4l0.2,0.9l-0.1,0.5l0.1,0.4l0.5,0.7l0.4,1.2l0.2,0.4l0.3-0.6l0.5,0.8l0.9,2.2l0.4,0.4l1,0.4l0.4,0.3l0.1,0.2
		l0.3,0.8l0,0.1l0.2,0l0.4-0.3l0.2,0l0.5,0.3l0.8,0.8l0.5,0.3l0.5,0.1h1.4l0.9,0.3l0.1,0l0.1,0.2l-0.1,0.1l0,0.4l0,0l-0.1,0.9l0,0.3
		l0.1,0.2l0,0.2l-0.3,0.2l0,0.4l0.1,0.4l0.1,0.3l0.2,0.3l-0.2-0.1l-0.1,0.1l-0.1,0.2l0.2,0.2l0.1,0.1l-2.1,1.3l-0.4,0.6l0.1,0.1
		l0.2,0.1l0.2,0.2l0,0.3l-0.1,0.2l-0.2,0.3l-0.3,0.6l-0.7,0.9l-0.4,0.7l-0.2,0.5v1.4l-0.2,1.8l0.1,1.3v0.3l0.2,0l0.3-0.1l0.5-0.4
		l0.2-0.1l0.3,0.1l2.6,1.3l0.5,0.5l0.2,0.4l0.1,0.4l0,0.2l-0.1,0l0.2,0.3l1.4,1.5l0.1,0.3l-0.1,0.3l-0.5,0l-0.2,0.4l0.2,0.5l0.5,0.6
		l1.9,1.8l0,0.2l-0.1,0.4l0,0.2l0.2,0.1l0.4,0.1l0.1,0.1l0.2,0.8l0.1,0.2l0,0.1l0.1,0.3l0.1,0.2l0.1,0l0.4-0.2h0.1l0.2,0.7l-0.1,0.5
		l-0.1,0.5l0.4,0.6l0.3,0.1l1.3,0l1.1,0.4l0.4-0.1l0.5-0.6l-0.1-0.7l-0.2-0.7l0.2-0.6l0.3-0.1l1.2,0.3l0.8-0.1l0.3,0l1.8,1l0.6,0
		l0,1.5l0.3,1.2l0.6,0.5l0.9-0.5l0-0.2l-0.1-0.2l0-0.2l0.3-0.3l0.2,0l1.1,0.8l0.4,0.2l0.4,0.1l2.4,0l0.8,0.4l0.2,0l0.2-0.2l0.3-0.6
		l0.2-0.2l0.3-0.1l0.6-0.1l0.2-0.1l0.1-0.2l0.2-0.6l0.1-0.2l0.5-0.3l0.7-0.2l0.5,0.1l0.1,0.5l1.2,0.1l0.5,0.2l0.2,0.6l-0.2,0.1
		l-0.1,0.1l0,0.1l0.4,0.4l0.6,1l0.4,0.5l0.6,0.4l1.2,0.2l0.6,0.3l0.2,0.3l0.3,0.6l0.3,0.2l0.4,0.1l0.3-0.1l0.3-0.1l0.3-0.1l0.3,0.1
		l0.6,0.2l0.3,0l0.3-0.1l0.7-0.4l0.3-0.1l2.3,0.7l1.6-0.2l0.5,0.1l4.5,2.4l2.8,0.6l0.3,0.3l-0.6,0.7l-0.9,1.7l-1.3,3.5l-0.3,0.6
		l-0.2,0.1l-1,0.6l-0.2,0l-0.1,0.1l-0.1,0.1l-0.1,0.2l-0.1,0.4l-0.1,0.2l-0.2,0.1l-0.2,0.1l-0.8,0l-0.3,0.1l-0.2,0.4l0,0.8l-0.1,0.3
		l-0.3,0.4l-0.4,0.4l-0.3,0.2l-0.8,0.9l-0.4,0.4l-0.5,0.2l-0.3,0.2l-1.2,1.8l-0.2,1.4v1.5l0.3,0.9v0.3l-0.7,0.6l-0.3,0.3l-0.1,0.4
		l-0.1,0.8l-0.1,0.4l-0.2,0.3l-0.2,0.4l-0.1,0.5l-0.2,1.1l0,0.6l0.1,0.5l0.2,0.5l0.1,0.6l0,0.6l-0.4,0.6l-0.5,0.3l-0.5,0.4l-0.2,0.9
		l-0.1,0.9l-0.2,0.7l-0.3,0.6l-1.8,2.5l-0.2,0.5l-0.1,0.6l-0.1,0.3l-0.2,0.3l-0.2,0.4l-0.2,0.6l-0.2,0.8l0.1,1.7l1.2,2.1l0.1,1.3
		l-0.3,0.5l-0.8,0.8l-0.1,0.6l0,0.7l-0.1,0.2l-0.2,0.4l-0.1,0.2l-0.2,0.2l-0.1,0.2l0,0.2l0,0.1l0,0.1l0,0.2l0.2,0.8l-0.1,0.5
		l-0.4,0.2l-0.2,0.2l-0.4,1.3l-0.1,0.6l0.3,1.5l0,0.7l-0.2,0.3l-0.5,0.5l-0.1,0.3l0.1,0.9l0.1,0.5l0.1,0.2l0.4,0.2l0.4,0.5l0.6,1.3
		l0.2,0.2l0.2,0.2l0.1,0.2l0.1,0.4l-0.1,0.2l-0.1,0.4l1.4-0.4l0.6-0.1l-0.4,1l-0.3,0.3l-0.7,0l1.5,0.8l0.6,0.1l2.3-0.5l0.5-0.3
		l0.4-0.5l0.5-0.8l0.4,0.2l1.8,0.1l0.2,0.2l0.1,0.4l0,0.4l0.1,0.2h3.7l1.3-0.3l0.3-0.2l0.1-0.2l0.1-0.2l0.2-0.3l0.2-0.2l0.6-0.3
		l0.5-0.2l0.2-0.2l0.1-0.2l0.1-0.1l1.5-0.3l0.5,0l0.7,0.2l0.3,0l0.2,0.2l0.2,0.4l0.2,0.4l0.3,0.2l1.1,0.3l1.8,0l0.9-0.1l0-0.2
		l0.3-0.7l0.9-0.6l0.8-0.1l0.4,0.4l0.3,0.6l0.3,0.4l0.4-0.1l0.2-0.3l0-0.3l0-0.3l0-0.3l0-0.1l-0.1-0.2l-0.1-0.2l0.1-0.2l0.1-0.1
		l0.1-0.1l0.1,0l0,0.1l0,0.3l0.2,0.1l0.2-1l-0.3,0l-0.5-0.2l-0.4-0.1l-1.4,0.2l-0.4,0.2l-0.4,0.3l-0.4,0.2l-0.5,0l-0.6-0.3l-0.7-0.5
		l-0.1,0l-0.4-0.2l0.2-0.5l-0.1-0.4l-0.1-0.3l0-0.3l0.3-0.3l0.7-0.4l0.3-0.3l0.2-0.8l0.1-0.3l0.4-0.6l0.2-0.1l0.3,0l1.5-0.3l0.4-0.2
		l-0.3-0.7l0.4-0.3l0.7,0l0.5,0.2l0.1,0.3l0,0.5l0.1,0.5l0.3,0.2l0.3-0.2l0.1-0.9l0.3-0.3l0.4,0.1l0.3,0.4l0.2,0.5l0.2,0.3l0.3,0.1
		l0.3-0.1l0.3,0.1l0.2,0.4l-0.1,0.2l-0.4,0.6l-0.1,0.3l0.1,0.3l0.2,0.3l0.1,0.3l0,0.3l1.5,0l-0.2-0.3l0.3-0.8l0.8,0l0.9,0.5l0.7,0.7
		l-0.5,0.1v0.3l0.4,0.4l0.8,0.6l0.7,0.2l1.1-0.1l1-0.3l0.4-0.5l0.5-0.2l3.1,0.4h1.6l0.4,0.6h1.1l1.1,0.3l7.8,4.8l1.8,0.5l1.8,0
		l0.8-0.4l0.4-0.6l0.3-0.8l0.6-0.7l0.4-0.2l0.4,0l0.4,0.1l0.3,0.4l0.1,0.5l0,0.5l0.1,0.4l0.6,0.3l0.2,0l0.3-0.2l0.1,0l0.8,0.3
		l0.8,0.1l0.4-0.1l0.3-0.3l0.1,0.7l0.3,0.4l0.4,0.4l0.3,0.6v0.1l0,0.1l0,0.2l0.3,0.2l0.2-0.1l0.2-0.2l0.3-0.1l1.4,2l0.2,0.5
		l-0.1,0.4l-0.6,0.5l0.3,0.4l0.1,0.4l0,0.5l0.1,0.4l0.3,0.3l0.2,0l0.2-0.2l0.4-0.2l0.1,0l0.3,0.2h0.2l0.1-0.1l0.3-0.4l1.2-0.2
		l0.5,0.3l0,0.7l-0.5,1.5l0.1,0.3l0,0.3l-0.1,0.3l-0.1,0.1l-0.4,0.1l-0.1,0.1l-0.3,0.5l-0.1,0.3l0.1,0.1l2.2-0.3l0.6-0.2l1.3-0.8
		l0.6-0.5l0.5-0.7l0.6-1.3l0.2-0.3l0.3-0.2l0.6-0.2l0.2-0.2l0.5-0.6l0.4-0.8l0.3-0.9v-0.9l-0.1-0.5l-0.2-0.4l-0.2-0.3l-0.4-0.2
		l0.3-1.7l0-0.4l-0.2-0.5l-0.2-0.5l0-0.4l0.4-0.2l0.5-0.1l0.2-0.1l0.1,0.1l0.1,0.4l0,0.2l-0.1,0.2l-0.1,0.3l0,0.4l0.2,0.2l0.2,0.2
		l0.4,0.2l1.2,0.2l0.3-0.1l0.4-0.3l0.6-0.8l0.4-0.3l0.7,0l3.7,1.4l0.1,0.1l0.1,0.2l0.1,0.2l0.2,0.1l0.8-0.1l1.1-0.5l0.4-0.1l0.4,0
		l0.3,0.2l0.6,0.5l-0.2,0.3l-0.9,0.6l0.2,0.3l1.5,0.7l1.4,1.5l0.1,0.2l0,0.3l-0.1,0.3l-0.1,0.2l-0.1,0l0.3,0.6l0.4,0.2l2.9,0
		l0.6-0.2l1.8-1.3l0.7-0.2l0.6,0.2l-0.1,1.1l0.7,0.1l0.6-0.3l0.4-0.4l0.4-0.5l0.5-0.5l0.5-0.2l1.2,0l0.5-0.2l0.2-0.4l-0.1-0.3
		l-0.3-0.2l-0.3-0.1l1.3-1.5l0.6-0.2l0.7,0.1l0.6,0.2l1.3-0.2l0.6-0.2l0.5-0.6l0.1-0.4l0.2-1l0.2-0.4l0.8-0.7l0.1-0.1l0.5,0l1.2,0.2
		l2.3,0l1.6,0.3l0.3-0.1l0.3-0.7l0.3-0.2l2.4-0.5l6.5,0.3l0.2,0l0.8-1l0.1-0.3l0-0.4l0-1.1L469,455l-0.1-0.1l-0.2-0.2l-0.2-0.3
		l-0.1-0.2l-0.1-0.3l0.4-0.2l0.7-0.6l0.2-0.2l0.4-0.2l0.1,0l-0.1,0.2l-0.1,0.4l-0.1,0.3l-0.2,0.2l-0.1,0.3l0.2,0.5l0.3,0.2l0.3,0
		l0.6-0.3l0.6-0.1l1.6,0.3l0.5-0.1l1.1-0.4l0.5,0.1l0.1,0.2l0.3,0.9l0.2,0.3l0.2,0.3l0.8,0.7l0.4,0.2l0.6,0l0.6-0.1l0.4-0.2l1.3-1.1
		l0.5-0.3l1-0.2h1l1.6,0.4l0.5-0.1l-0.3,0.7l0.4,0.5l0.7,0.5l0.6,0.5l-0.8,0.4l-0.3,1l0.2,1l0.7,0.6l0.4,0.1l0.3,0.1l0.2,0.2
		l1.3,1.4l1.4,1l0.3,0.1l0.2-0.1l0.2-0.1l0.3,0l0.3,0.1l0.2,0.2l0.2,0.1l0.3,0l0.2-0.2l0.8-0.9l0-0.3l-0.1-0.2l-0.1-0.2l-0.1-0.2
		l0-0.3v-0.7l0.1-0.1l0.3-0.7l0-0.1l-0.1,0l0-0.9l0.1,0l0.5-0.6l0-0.1l0.3-0.8l0.1-0.1l0.1-0.5l0-0.5l-0.1-0.5l-0.2-0.6l-0.6-0.9
		l-0.3-0.4l-0.4-0.3l-0.4-0.1l-0.7,0.3l-0.4,0.1l-1.6-0.3l-0.5-0.5l0.5-0.8l0,0l0.2-0.3l0.1-0.3l0-0.3l0.1-0.3l0.2-0.3l1.8-2.9
		l-0.1-0.1l-0.6-0.9l-1-2.2l-0.5-0.5l-0.2-0.1l-0.6-0.6l-0.7-0.4l-0.2-0.3l-0.1-0.4l-0.1-0.5l-0.4-0.9l-2-2.1l-0.3-0.4l-0.3-0.5
		l-0.1-0.6l0-0.6l0.2-0.3l0.2-0.1l0.2,0l0.2-0.1l0.4-0.6l0.1-0.1l1.1-0.8l0.4-0.4l0.5-0.8l0.3-0.3l0.4-0.2l1.6-0.3l0-0.1l0.4-0.3
		l0.9-0.5l1.1-1l0.5-0.3l2.9-1.2l3.9-0.7l0.9-0.5l2.7-2.4l0.4-0.7l0.2-0.9l0.1-0.2l0.1-0.2l0.1-0.3l0.1-0.4l-0.1-1.2l0.1-0.4
		l0.1-0.4l0.4-0.8l0.1-0.4l-0.1-0.4l-0.3-0.4l-0.1-0.8l-0.1-0.2l0-0.2l0.2-0.3l0.3-0.2l0.9-0.3l0.9-0.1l2.9,0.8l0.5,0.3l0.5,0.3
		l0.4,0.7l1.2,0.5l0.1,0.1l0.3-1.1l0.2-0.5l0.1,0l0.6-0.1l0.2-0.1l0.2-0.2l0.1-0.2l0.5-1l0.2-0.6l0.1-0.6l0-0.7l-0.2-1.4l0.1-0.5
		l0.4-0.4l-0.3-0.2l-0.1-0.1l-0.3-0.6l-0.1,0.1l0.1-0.4l0.8-1.8l-0.6-0.6l-1.4-2.7l-0.7-1l-0.4-0.2l-1.1-0.2l-0.5-0.3l-0.5-0.5
		l-0.4-0.7l-0.3-0.8l-0.1-0.8l-0.5,0.1l-0.5-0.3l-0.5-0.4l-0.5-0.3l-0.6-0.1l-0.4,0.2l-0.3,0.5l-0.3,0.7l-0.7-0.3l-0.9-0.6l-0.8-0.8
		l-0.4-0.7l0-1.2l-0.3-0.7l-1.2-1.2l-0.9-1.1l-0.3-0.3l-0.6-0.2l-1.7-0.1l-0.8-0.5l-0.4-0.7l-0.4-0.8l-2.6-3.6l-0.3-0.2h0v0
		l-0.9-1.1l-0.1-0.4l0-0.4l-0.2-0.3l-0.5-0.2l-0.8-0.8l-0.4-0.3l-0.5-0.3l-1.1-0.3l-0.4,0.1l0.1,0.6l-0.5,0.1l-1.7-0.2l-0.6-0.2
		l-0.4-0.5l-0.9-2.1l-0.6-0.6l-1.3-0.6l-0.6-0.5l-0.3-0.6l-0.1-0.7l-0.1-1.4l0-0.7l-0.2-0.2l-0.3,0l-0.3-0.1l-0.3-0.3l-0.2-0.3
		l-0.2-0.4l-0.2-0.5l-0.1-0.5l-0.1-1l-0.2-0.5l-0.3-0.3l-0.7-0.4l-0.3-0.3l0-0.1l0.1-0.3l-0.2-0.1l-0.1-0.1l0.2-0.5l0-0.6l-0.2-0.5
		l-0.4-0.2l-0.9-0.5l-0.4-0.3l-0.4-0.4l-0.6-0.8l-0.3-0.6l-0.1-0.5l0.3-0.7l1.2-0.5l0.4-0.5l0.1-0.7l0-0.9l0.2-0.6l0.6,0.2l0.2-0.7
		l0.7-1.2l0.2-0.7l0.1-0.8l-0.2-0.3l-0.4-0.2l-1.2-0.7l0-0.5l0.2-0.6l-0.1-0.6l-0.5-0.5l-1-0.1l-0.4-0.4h0l-4.3-2.3l-0.1-0.3l0-0.4
		l-0.1-0.4l-0.2-0.4l-0.4-0.4l-0.5-0.3l-0.4-0.4l-0.2-0.7l0-0.7l0.2-1l-0.1-0.7l-0.2-0.5l-0.3-0.5l-0.7-0.8l-1.4-0.9l-0.3-0.5
		l0.3-0.5l0.3-0.2l0.2-0.2l0.1-0.6l-0.1-0.6l-0.2-0.4l-0.7-0.7l2.1,0.2l0.5,0.4l0.2,0.4l0,0.8l0.1,0.3l0.3,0.3l0.4,0.1l0.8,0
		l0.2,0.1l0.1,0.2l0,0.2l-0.1,0.2l0,0l0,0l0,0l0,0l-0.1,0.1l0,0.1l0,0.1l0.1,0.1l0.5,0.5l0.1,0.2l0.1,0.3l0,0.3l0,0.2l0.3,1.2
		l0.3,0.5l0.5,0.1l0.4-0.3v-0.4l-0.2-0.5l-0.1-0.5l0.1-0.8l0.1-0.4l0.6-0.7l0.1-0.7l0.2-0.3l0.3-0.2l0.3-0.3l0.9-1.6l0.3-0.3
		l0.8-0.5l0.3-0.3l0.1-0.1l0.2,0l0.1-0.1l0.1-0.2l0-0.2l0-0.1v-0.1l0.1-0.2l0.1-0.2l0.1-0.2l0.2-0.2l0.8-0.7l1.1-0.3l2.1-0.2
		l1.5,0.3l0.4,0l0.3-0.3l0.6-1l0.4-0.4l0.5-0.2l0.5,0l0.5,0.1l0.2-0.1l0.4-0.3l0.3-0.1l0.2,0.1l2.6,1.6l1,0.1l0.8-0.8l0.4-0.5
		l0.2-0.8l0.2-1.8l0.2-0.2l0.2-0.1l0.2,0.1l0.2,0.2l0.2,0.1l0.3,0l0.3,0l0.3-0.1l0,0l0.8-0.3l1.5,0.1l0.7-0.5l0.4-0.7l0.9-2.5
		l0.5,0.1l0.5,0.3l0.5,0.2l0.6-0.3l0.3-0.9l0.2-0.3l1.1-0.7l0.2-0.2l0-0.2l0.1-0.1l0.3,0.1l0.2,0.2l0.4,0.7l0.2,0.2l0.6,0.3l0.5-0.1
		l0.5-0.4l0.5-0.6l0.3-0.2l0.2-0.2l0-0.3l-0.2-0.4l0.5-0.3l0.4-0.5l0.1-0.6l-0.3-0.7l1.2-0.7l1.3-0.2l2.5,0l0.5-0.1l1.1-0.4l0.6-0.1
		l1.3,0.1l0.5-0.1l0.8-0.5l0.2,0l0.2-0.1l0.2-0.3l0-0.2l-0.1-0.3l0-0.4l0.1-0.4l0.3-0.3l0.2,0l0.3,0.1l0.4-0.1l0.3-0.2l0.4-0.6
		l0.3-0.2l0.5-0.1l1,0.1l0.5,0l4.4-2l0.3-0.3l0.5-0.8l0.3-0.3l1-0.2l2.2,0.2l0.8-0.7l0.2-1.1l-0.7-0.4l-1-0.3l-0.7-0.7l0-0.5
		l0.2-0.2l0-0.1l-0.6-0.2l-1-0.1l-0.3-0.2l0.3-0.5l0.4-1.3l0.7-0.7l0.9-0.2l1,0.4l0.2,0.2l0.2,0.2l0.2,0.2l0.3,0.2l0.3,0l0.8-0.3
		l1,0.1l0.3-0.2l0.2-0.6l0.2,0.4l0.1,0.3l0.1,0.3l0.3,0.4l0.3,0.2l0.8,0.2l0.3,0.3l0.3,0.4l0.2,0.4l0.1,0.4l-0.1,0.7l-0.2,0.5
		l-0.3,0.6l-0.2,0.5l0.3,0.3l1.6-0.6l0.3,0l0.2,0.5l-0.2,0.6l-0.5,1.1l-0.1,0.8l0.1,0.3l1,0.3l0.4,0.2l1.1,0.8l1,0.2l0.6,0l0.4-0.1
		l0.3-0.3l0.3-0.5l0.4-1.2l0-0.8l0.4-0.7l1-1.1l1.4-3.4l1.3-3.2l0.1-0.5v-0.9l0.1-0.4l0.2-0.3l0.2-0.2l0.2-0.3l0-0.6l0-1.1l0.2-1.3
		l0.4-1.2l0.5-0.9L548.3,301.2z"/>
</g>

</svg>
