<?xml version="1.0" encoding="utf-8"?>

<svg version="1.2" baseProfile="tiny" xmlns="http://www.w3.org/2000/svg" xmlns:xlink="http://www.w3.org/1999/xlink" x="0px"
	 y="0px" viewBox="324 146.9 369.7 300" xml:space="preserve">

<g id="Denmark">
	<g>
		<polygon fill="#C60C30" points="696,378.3 696.1,378.6 696.1,378.3 696,378 		"/>
		<polygon fill="#C60C30" points="569.2,346.8 568.9,346 568.3,345.8 567.9,346 567.4,346.6 566.9,348.7 566.9,349.1 567.4,350.1
			567.7,350.6 568.1,350.8 568.3,351 568.3,351.4 568.6,351.7 568.9,351.5 569.5,350.8 569.6,350.5 569.6,350.4 569.4,349.9
			569.4,348 		"/>
		<polygon fill="#C60C30" points="520.3,320 521.2,320.8 522.7,320.5 526.7,319.1 527.8,319 528.7,319.5 529.5,320.8 530.8,325.8
			530.9,327.2 530.9,330.5 533.1,340.6 533,342.7 531.8,345.6 531.3,347.6 529.6,346.8 528.8,346.2 528.4,345.3 528.6,345.1
			530.3,345.6 529.8,344.5 529.1,343.7 528.2,343.4 527.4,343.7 527.3,345.2 526.1,346.5 524.6,347.2 523.6,347 524.2,345.6
			526.1,343.9 526.5,342.8 526.9,341.2 527.8,341.1 529.7,341.7 531,339.8 530.9,336.2 530,332.4 529,329.7 528.6,328.9
			528.3,328.7 528.1,328.3 527.9,327.1 527.9,326.4 528.1,325.3 528.1,324.4 527.6,324 526.6,323.5 524.7,321.5 523.8,321.4
			523.4,323.2 524.7,326 525.7,329 524.9,331.6 524,332.2 522.1,332.7 521.3,333.5 520.5,335.6 520.1,336.9 519.9,338 520,338.3
			520.5,339.5 520.6,340.2 520.4,340.4 518.2,345.2 517.5,346 516.6,346.9 517.1,345.3 517.4,344.8 517.4,344.3 517,343.1
			515.8,341.2 514.9,340.4 514.5,340.8 514,341 511.6,341.2 510.9,341.1 510.2,340.4 510.6,339.8 511.5,339.4 515.8,338.6
			515.8,337.9 515.4,336.4 514.9,334.9 514.6,334.1 513.6,334 512.7,334.5 511.9,335.1 511.1,335.5 508.6,335.7 507.7,335.5
			507.7,334.8 508.7,334.8 509.3,334.2 510.2,332.8 511,332.5 512.7,333 513.5,332.8 514.2,331 513.2,328.4 510.6,323.8 511.1,323
			511.8,322.6 513.5,322.5 513.3,323.4 513.1,323.7 514,324.2 514.8,324.1 515.2,323.5 514.6,322.5 515,321.5 516.5,319.7
			516.7,318.8 516.7,318.7 514.2,318.7 513.1,319.4 509.4,320.5 507.3,320.6 506.3,319.7 500,318.7 497,318.7 496.8,318.8
			496.7,318.7 493,318.7 495.9,319.8 499.3,320.1 500.8,320.7 502.5,323.8 502.2,327.6 500.8,330.1 499,329.7 497.9,330.9
			496.7,331.4 495.4,331.2 494.1,330.3 494.4,331 495.3,332.4 495.5,333.1 495.4,333.7 495.2,334.9 495.1,335.7 494.9,337
			494.3,337.9 493.5,338.4 491.7,338.8 489.9,340 489,340.4 487.1,340.4 486.3,340.2 485.8,339.6 485.1,340.3 487.3,342.2
			485.9,343 484.4,342.5 483.1,341.3 482.3,339.7 482.7,339.3 483.2,339.1 483.8,339.1 484.4,339.2 484.4,338.5 482.6,338.8
			479.3,340.2 477.6,340.4 469.2,339.2 469.2,339.8 470.1,340.2 472.9,340.4 473.7,340.9 474.1,341.4 474.5,342.1 475,343.1
			476.2,343.9 479.6,345.2 480.4,346.8 472.1,346.1 472.1,346.8 477.9,348.4 480.5,349.9 482.8,352.8 483.5,354.6 483.6,356.4
			483.1,357.7 481.7,358.3 481,358.3 480.5,358.5 480.1,359.2 480.1,360.4 480.3,361 480.9,360.8 481.8,360.1 483.5,360.2
			484.3,360.7 484.9,361.5 485.6,362.7 486.7,366 487.1,368.1 486.9,369 487.5,369.5 487.6,370.7 487.1,371.8 485.9,372.3
			485.3,372.4 484.7,372.8 484.1,373.2 483.6,373.8 483.1,374.2 482.3,374.3 480.9,374.2 480.9,374.8 481.6,376.9 482,377.3
			482.8,377.3 483.2,376.7 483.4,375.9 483.8,375.4 484.3,375.3 485.1,375.3 485.8,375.6 486.2,376 486.1,376.9 485.5,377.3
			484.8,377.3 484.3,377.6 484.8,378.5 487.7,381.2 488.6,381.7 488.9,382.2 488.8,384.5 488.9,385 490.2,384.9 490.8,384.7
			491.3,384.3 491,385.6 490.3,386.2 489.5,386.2 488.8,385.6 489.1,388.1 490,389.4 491.3,389.9 493.1,389.9 492.1,389.4
			492.1,388.7 495.7,388.7 496.4,388.4 497.9,387.6 498.6,387.5 502.2,389.2 502.9,388.8 503.8,389.4 507.8,390.3 509.7,391.2
			510.4,391.3 511.2,390.6 511.9,389.6 512.8,388.8 513.9,388.8 514.7,389.5 514.8,390.6 514.3,391.7 513.5,392.5 514.4,393.7
			517.4,393.5 518.5,394.4 518.6,395.2 518.3,395.6 513.7,396.4 515.1,398.7 518.3,401.2 519.5,403.3 516.7,402.7 511.2,400.1
			508.3,399.5 509.1,400.5 510,401.3 511,401.8 514.3,402 514.7,402.2 515.4,403.1 515.7,403.3 516.6,403.5 520.1,405.1
			520.7,406.1 521.7,408.8 522.3,409.6 522.3,410.1 521.2,411.1 520.5,411.5 520.1,411 520,410.9 518.8,412.1 518.2,412.5
			517.6,412.3 516.5,411 515.8,410.7 515.3,410.9 513.2,412.5 513.2,413.2 514.3,413.7 514.8,414.6 515,415.8 515,417.6
			515.2,419.3 515.8,420.3 516.6,420.9 517.5,422 517.8,422.7 517.8,423.2 517.8,423.6 517.9,424.4 518.2,425.1 518.4,425.5
			520.8,428 521.3,429.1 521.7,429.6 522.3,429.9 521.7,431.4 521.9,432.3 522.7,432.9 523.7,433.1 522.3,435.4 521.6,436.8
			521.5,438.7 521.9,439.8 523.6,443.2 524.4,444.3 524.6,445.5 525.8,446.9 526.8,446.8 526.9,443.6 526.4,438.4 526.4,435.5
			527.1,434.2 527.6,433.8 529,432.1 529.5,431.7 529.8,431 531.7,427 532.5,426.1 537.1,422.3 537.1,421.7 535.5,419.9
			534.1,417.6 533.3,416.9 532.3,416.9 531.3,417.2 530.3,417.3 529.5,416.9 527.7,415.2 527.3,414.8 527.2,414.4 526.5,412.8
			526,412.3 524.7,412.9 524.2,412.9 524.5,413.8 524.6,414.1 524,414.6 523.2,414.6 522.4,414 522.1,413 522.2,411.7 522.6,410.8
			523,409.8 522.8,408 523.2,407.9 523.4,407.7 523.6,407.5 523.8,407.3 523.7,407.2 523.6,407.2 523.5,407.1 523.5,406.7
			525.3,407 528.1,409.8 530,410.6 531.2,410.3 532.9,408.9 533.7,408.6 535,408.5 536,408.1 536.8,407.2 536.8,405.5 534.9,401.1
			534.5,400.9 535,400.4 536.1,399.8 536.5,399.5 536.9,399.3 537.2,398.9 537.6,398 537.1,395.9 535.1,395.2 530.7,394.8
			529.2,393.6 528.9,393.2 529.1,392.3 529.4,392 529.8,391.9 530,391.4 531.1,390.7 532.2,391 532.7,392.2 532.4,394.2
			532.8,394.6 533.3,394.7 533.7,394.4 534.1,393.6 533.8,392 534.5,390.1 535.5,388.5 536.8,387.7 537.7,386.8 548.7,384.3
			551.5,382.3 551.8,382 552.6,381 551.9,378.6 551.6,377.3 551.6,375.7 551,374.4 549.8,372.9 547.6,371 546.7,370.6 543.5,370.3
			542.6,370 540,367.8 538.6,362.9 541.3,357.4 545.6,352.8 549.4,350.7 550.5,350.7 551.2,351.1 551.8,351.6 552.6,351.9
			553.8,351.5 554.3,350.4 554.7,349.3 556.6,347.9 558.7,343.8 559.9,342.3 559.4,341.3 559.2,340.9 559.1,340.4 559.2,339.8
			559.5,338.2 559.6,336.3 559.7,335 559.9,334.1 559.3,333 558.6,331.1 558,329.1 557.7,327.3 557.4,326.1 556.6,324.6
			555.2,322.5 555.2,321.8 555.8,320.7 556.6,318.7 520.8,318.7 		"/>
		<polygon fill="#C60C30" points="366,207.7 363.9,208.9 359.1,209.9 356.7,209.8 352.3,208.2 350.5,208.1 348.8,209.7 344.5,216.6
			341.7,219.6 332.2,235.1 331,238 330.4,242 330.6,246.4 331,248.4 331.8,248.3 331.9,246.9 331.6,244.9 330.9,241.4 331.7,241.5
			333.2,242.5 333.9,242.7 334.3,243.2 334.8,246.7 335.6,248 336.6,249.4 337.8,250.6 338.7,251.1 340,251.4 341.5,252.2
			342.6,253.3 343.1,254.7 343.6,255.9 344.9,257.6 346.4,258.9 347.5,258.9 346.8,258.5 346.8,258.1 347.3,257.8 348,257.6
			348.7,257.3 349.2,256.6 350,255.3 349.6,254.3 348.8,253.1 348.8,252.3 349,250.4 348.8,249.7 348.1,249.4 344.4,251
			343.9,250.8 342.8,249.9 342,249.6 339.5,250.4 339.5,249.6 340.2,249.4 341.3,248.5 341.9,248.3 342.6,248.5 343.8,249.5
			344.4,249.6 345.1,249.5 345.8,249.1 346.1,248.3 345.7,247.1 345.3,246.9 343.2,247.1 343.2,246.5 344,245.6 344,244.1
			343.6,240.9 344,239.6 344.8,239 345.7,238.6 346.1,238.2 346.3,237.7 346.9,237.4 348.1,237.4 349.7,234.8 350,234.4
			350.3,233.9 350.4,233.1 350.4,232.9 350.8,230.2 351.4,229.1 352.2,228.3 352.9,227.1 353.2,225.3 353.8,224.6 355,224
			356.3,223.7 358.1,224.2 360.7,222.9 362.7,221.1 361.9,220.2 362.8,219.6 364,219.5 365,220 365.5,221.3 365.9,221.1
			366.8,219.9 367.9,218.8 368.3,218.9 368.3,205.2 		"/>
		<polygon fill="#C60C30" points="412.2,353.1 414.9,350.9 415.7,349.9 411.7,349.9 411.7,353.7 		"/>
		<polygon fill="#C60C30" points="693.4,396.1 693.6,395.8 693.8,395.3 692.8,394.2 689.7,391.9 686.6,390.6 685.9,390.2
			685.4,389.5 684.5,387.6 684.1,387.1 682.8,386.6 680.1,386.1 678.3,384.3 676.9,383.5 676.2,382.7 674.1,379.6 673.4,379.2
			672.9,380.2 672.5,381.7 672.1,383.1 671.1,385 670.6,386 670.4,386.9 670.2,392.5 669.8,395.6 669.1,398 670.1,399.4
			679.1,404.5 682.2,405.2 685.3,407 686.8,407.4 689.7,407.4 690.3,407 690.8,406.3 691.3,405.5 691.7,404.9 691.7,404.3
			691.5,403.5 691.8,402.6 692.9,400.7 693.4,399.6 693.6,398.8 693.4,397.9 693.1,396.6 693.3,396.3 		"/>
		<polygon fill="#C60C30" points="505,410.9 505.3,410.5 505.3,410.1 505.1,409.5 504.5,408.9 503,408.9 501.8,409.5 503.8,412.2
			504,412.4 		"/>
		<polygon fill="#C60C30" points="558.7,356.7 559.2,356 560,355.3 561,354.7 561.8,354.4 563.6,352.3 563.6,351.9 560.6,344.2
			560.5,343.8 560.5,343.6 560.3,343 559.5,344 558.7,346.3 558.1,347.4 557.6,348.1 556.9,348.7 556.2,349.4 555.7,350.6
			555.7,352.8 556.4,355.3 557.6,357 		"/>
		<polygon fill="#C60C30" points="479,425 477.4,424.7 476,425.5 475.7,427 476.2,428.4 477.4,429.4 480.2,430.1 483.1,431.4
			485.7,432 491.4,435.7 494.7,438.5 499.6,441.4 500.7,441.6 502.7,439.8 505.2,438.6 507.9,438 516.1,439.8 518.4,439
			520.1,437.1 520.3,435.1 518.2,434.2 518.6,433.2 519.1,432.8 519.6,432.6 520.2,432 520.7,430.9 520.7,430.4 520.5,429.7
			520.4,428.3 519.8,427.4 517.2,425.3 516.4,423.6 516.6,423.5 517.2,423 516.4,422.7 515.6,422.1 514.3,420.6 514,419.2
			510,415.6 509.8,416.7 509.7,417.8 509.8,418.9 510.3,419.9 509.8,420 508.5,420.6 507.1,420.6 505.9,421.6 505.9,422.3
			506.5,423.3 507.1,424.9 497.7,419.6 496.4,419.3 495.2,418.5 493.6,415 492.7,414.2 491.7,413.8 489.2,411.8 487.9,411.1
			480.4,412.7 479.7,412.3 477.5,415 476.8,416.4 476.8,418 477.1,418.6 479.9,422.1 480.6,422.6 481.5,422.9 480.5,424.9 		"/>
		<polygon fill="#C60C30" points="534.3,416.1 537.7,417.8 539.2,418.1 540.2,417.5 543,413.6 544.9,412.1 546.7,411.3 548.6,411
			554.8,412.3 556.1,412.2 556.9,412 557.4,411.5 557.4,410.5 556.6,407.4 554.8,405.7 550.2,404.8 545.9,404.5 544.1,403.7
			543,401.7 542.2,401.7 541.6,402 541.4,402.7 541.7,403.6 542.1,404.3 543.8,405.5 543.8,406.1 543.4,406.4 543.1,407
			543.1,407.7 543.4,408.6 542.7,409 541,409.7 540.5,409.8 539.7,409.5 538.4,408.7 537.6,408.6 538,409.9 537.6,410.5
			536.9,410.1 536.2,410.5 535,411.8 535.3,412 535.8,412.8 536.1,413 535.5,413.4 535.1,413.9 534.9,414.6 535.1,415.5
			534.3,415.5 		"/>
		<polygon fill="#C60C30" points="472.1,275.3 472.2,274.9 473.5,273.7 473.5,273.1 470.2,269.8 468.5,266.8 467.7,265.9 466,264.9
			464.3,264.7 451.8,266.7 447.5,266.2 443.6,263.9 442,262.6 441.8,262.3 441.7,261.7 441.4,259.6 441.2,259 440.2,258.3
			439.3,258.9 437.5,261.3 435.4,262.9 434.8,264.2 434.6,266.8 434.7,270.3 434.1,270.8 432.5,270.9 433.2,270.1 433.8,268.9
			434,267.5 433.6,266.4 433.8,265.5 434.2,262.4 434.7,262.2 437.3,259.2 440.9,256.5 441.8,253.8 441.6,250.6 440.6,248.5
			439.3,249 437.9,249.9 435.8,250 432.3,249.3 432.5,248.4 432.6,248.1 430.9,247.5 430.1,247.7 429.7,249 429.5,249.6 429,250.1
			428.4,250.5 427.8,250.6 427.4,250.5 426.7,250.1 426.2,249.9 425.8,250.1 425.7,250.6 425.7,251.1 425.5,251.3 424.7,251.4
			422.9,252.6 415,255 412.6,254.6 412.6,254 420,252.9 422.4,251.1 424.3,250.4 425.9,249.1 426.6,248.7 427.5,248.5 428,248.3
			429.2,247.3 430.5,246.8 431.6,247 432.6,247.7 433.4,248.6 434.4,247.7 435.2,247.4 437.5,247.4 438.2,247.5 439.5,248.1
			439.9,248.1 440.6,247.2 440.4,246.6 439.9,246 439.5,245.4 438.2,241.3 437.8,239.3 437.6,235.5 437,230.6 436.6,229
			436.8,228.3 437.1,225.6 437.4,224.4 437.8,223.6 439.2,221.7 438.2,221.2 434,221.1 432.9,220.7 430.8,218.8 429.1,218
			423.9,212.5 422.8,212 421.9,212.5 421,213.1 419.9,214.6 418.9,214.5 419.9,214.2 421.4,211.8 422.4,211.2 423.7,211.6
			425.5,213.4 427.7,214.2 430.9,217.8 435.4,220.7 436.3,220.4 437.1,220.2 439.6,220.3 440.2,220.1 440.6,219.7 441.1,219
			441.8,217.5 443.1,212.9 443.7,208.7 444.5,206.1 446.4,202.2 447.6,200.6 450.3,198.6 451.3,197.2 450.1,187.2 450.1,182.1
			451.7,177.8 449.7,173.1 447,169 445.6,164.6 447.2,158.7 451.5,152 454.2,149.4 457.1,148.3 455.8,147.3 454.3,146.9
			452.7,147.1 451.3,147.7 447.8,150.3 441.4,157 437.7,159.7 433.4,161.7 428.6,162.4 423.8,162.1 421.2,162.6 420,164.5
			419.2,165 417.5,168.5 413.8,172.6 411.9,175.6 411.7,175.8 411.7,210.1 412,209.8 412.3,209.5 412.9,209.7 414,210.6
			415.6,211.2 418.7,214.1 413.1,214.8 411.7,214.5 411.7,275.3 		"/>
		<polygon fill="#C60C30" points="484.4,190.2 484.8,189.7 485.6,189.9 486.1,189.7 485.9,188.6 485.5,188.1 484.9,187.9
			483.4,187.9 477.5,188.6 477,188.8 475.9,189.6 475.1,190 472.9,190.1 471.2,191.3 469.5,193.4 468.3,193.9 468.3,194.5
			469.2,195.5 470,195.6 472.1,195.2 472.9,195.8 474.3,198 474.9,198.5 477,197.9 478.2,197.3 479.1,196.6 479.9,195.4
			480.3,193.9 480.2,192.7 479.3,191.9 483.7,190.1 		"/>
		<polygon fill="#C60C30" points="443.1,417.4 442.3,417.4 441.6,417.1 441,416.2 439.7,414.2 438.4,413.1 433.9,410.5 433.2,409.7
			433.5,411.1 434.4,413.2 443.4,423.1 444.6,423.6 445.3,423.4 446.4,422.1 450.5,421.1 450,420.8 449.4,420.5 449.4,419
			448.7,418.2 447.7,417.6 446.8,416.7 447.6,418.3 447.4,419.1 446.7,419.2 445.6,419.2 445,418.7 444.4,416 443.6,415 444,416.5
			443.8,417.2 		"/>
		<polygon fill="#C60C30" points="503.1,247.3 502.5,247.9 502.7,249.2 503.4,250.2 504.4,250.8 505.4,251 506.3,250.6 506.9,249.9
			507.5,248.8 508.2,247.8 509.1,247.3 509.4,246.9 509.6,246.7 509.8,246.7 509.8,246 507.6,246.9 		"/>
		<polygon fill="#C60C30" points="342.5,368.4 341.7,367.6 340.7,367.8 339.8,367.3 339.5,364.6 337.7,365.1 337.2,366.4
			337.6,368.4 339.2,372.7 340.4,374.9 341.8,376.4 343.1,375.9 342.7,375.1 342.3,373.4 341.9,372.4 341.8,371.5 342.5,369.4 		"/>
		<polygon fill="#C60C30" points="346.4,242.9 345.9,243.2 345.6,243.6 345.3,244.1 345.1,245.2 345.6,245.3 347.3,244.6
			347.6,244.7 348.9,245.4 350.2,246.7 350.8,247.5 352.2,250.7 352.7,251 354.1,250.2 358.4,249 358.6,247.4 360.8,245.6
			361.5,244.7 362.2,243.4 363,241.3 363.7,240.2 363.3,239.8 362.9,239.5 363.4,239.5 363.8,239.5 364.1,239.3 364.4,238.8
			363.5,238.4 363.1,237.4 362.7,234.2 362.5,233.8 362.2,233.3 362.1,232.7 362.3,231.7 362.5,231.3 363.8,230.3 364.2,230.5
			364.6,231 364.9,231.7 364.9,232.9 365.2,232.5 365.5,232.1 365.9,230.9 366.6,227.7 366.7,227.5 366.6,226.7 366,225.4
			365.9,225 366,224.3 366.5,223.1 366.9,222.3 366.2,222 365.6,223.3 364.8,224.4 363.6,223.6 361.9,227.3 360.8,228.7
			359.7,228.3 358.2,229.1 355.1,229.6 353.5,230.2 353.2,230.2 352.7,230.2 352.3,230.2 352.2,230.6 352.2,232.1 352.3,232.9
			352.6,232.9 352.1,233.9 351,235.2 350.8,236.2 351.3,236.6 352,236.8 352.6,236.8 353.3,236.8 352,238.5 348.3,239 346.8,240.1
			346.9,240.5 347.1,241.4 347.2,242.4 346.9,242.8 		"/>
		<polygon fill="#C60C30" points="368.3,239.1 365.8,241.5 364.1,242.7 363.5,243.5 362.8,245.1 362.3,246.8 362.8,247.3
			365.1,247.4 366.4,247.8 366.3,248 363.4,248.2 361.2,248.8 360.4,249.3 357.1,255 354.7,255.2 354,255.8 354,256.8 354.8,257.3
			355.1,258.1 355.2,259 355.4,259.4 355.8,259.7 356.3,259.7 358,261 358.1,261.8 358,262.2 357.7,262.4 357.5,262.9 357.2,264.9
			357.1,265.8 357.1,267.2 357.1,268.1 356.9,268.8 356.6,269.3 356.3,269.5 353,270.2 352.1,270.2 351.5,269.8 350.5,268.4
			349.7,267.7 349.3,266.8 349.3,265.9 349.5,265.5 349.5,264.8 347.9,260.3 347.6,260.3 347.2,261.4 346.6,262.4 345.9,263.3
			345.2,263.6 342.6,261.5 342.1,261.4 341.1,260.2 338.8,259.8 336.2,259.9 334.5,260.4 334.5,261 335,262 334.9,262.6
			334.5,262.9 334,262.5 333.7,261.6 333.8,260.1 333.6,259.3 334.3,258.8 333.8,258.4 331.6,258 331.2,257.6 330.9,256.7
			330.7,255.8 330.5,255.4 329.6,255.3 329.3,255.1 328.9,254.8 328.9,254.1 329.3,253.3 330.5,250.2 330.5,249.5 330.1,249
			329.9,248.2 329.5,248 328.7,249.2 327.7,251.8 325.3,260 324.9,261.7 324.7,263.3 324.9,275.3 368.3,275.3 		"/>
		<polygon fill="#C60C30" points="411.7,345.2 412.3,345.4 413.9,345.3 416.6,343.9 422.3,342.2 423.6,343 424,342.4 424.2,342.3
			423.6,340.8 424.3,339.7 426.5,338.5 426.5,337.8 425.1,337.8 424.3,337.7 424.2,337 424.7,335.3 425.5,333.4 425.7,332.4
			425.2,332 417.7,330.4 416.4,328.9 417.6,328.6 420.3,328.7 421.7,328.2 422.1,327.7 422.4,327 422.8,326.3 423.4,326.1
			428.5,325.8 429.2,326.1 429.6,326.6 429.8,327.4 430,328 430.2,328.6 431,329.9 431.5,330.4 432.2,330.6 432.7,330.4 433,329.9
			433.2,329.5 433.7,328.8 433.5,327.8 433.1,326.9 432.8,326.6 433.2,326.1 433.8,325.5 434.4,325.1 434.6,325.1 434.8,324.4
			436.1,322.8 436.3,322 436.4,321.2 436.4,319.6 436.4,318.7 411.7,318.7 		"/>
		<polygon fill="#C60C30" points="336.6,318.7 337,319.2 337.8,320.7 338.6,322.3 338.9,323.9 338.6,325.4 336.4,327.6 334.4,329.2
			333.2,329.6 330.7,331.6 328.3,332.9 327.9,332.7 327.7,331.4 327.8,330.4 328.3,329.1 328.5,328.2 328.3,327.1 327.4,324.6
			326.3,318.7 325.4,318.7 327.9,336.8 327.7,340.5 327.1,344.4 326.1,348 323.1,355.9 323.2,357.3 324,358.1 327.1,358.7
			328.4,359.4 334.7,364.7 335.3,364.5 334.9,362.9 333.7,361.5 332.2,360.6 331,360.4 331.7,359.4 332,359.2 332.5,359.1
			330.9,357.5 330.8,356.6 331.4,355.3 332.3,354.5 333.5,354.1 334.7,354.2 335.7,354.6 335.7,355.2 334.5,355.4 334.5,356.1
			339.3,363.2 341.4,365.2 343.9,366 347.4,366 349.3,366.5 350.7,367.6 351.4,369.3 351.8,371.3 352.2,375.5 352.8,377.8
			352.9,379 352.8,379.8 352.4,381.1 352.2,382.1 352.6,386.1 353.3,390.1 354.3,393.2 354.4,394.9 353.4,395.3 350.5,394.6
			347.4,394.2 347.2,393.1 348.2,391.9 348.7,391.5 349.5,391.2 348.3,390.1 346.1,389.4 343.9,389.7 342.9,391.5 342.7,393.9
			342.4,396.1 342.3,398.3 342.9,400.6 343.7,401.6 344.4,401.8 345.2,401.4 346,400.3 346.6,399.6 347.2,399.4 347.5,399
			347.6,395.4 347.8,394.6 348.5,394.5 354,395.5 353.4,397.9 352.6,400.2 352,402.6 351.8,405.6 352.4,407.9 353.2,410.1
			353.7,412.4 353,414.9 353.4,415.5 353,417.1 354.8,417.6 356.7,417.7 360.2,416.4 361.4,416.2 365.6,416.9 368.3,418
			368.3,318.7 		"/>
		<polygon fill="#C60C30" points="435.6,338.2 436,338.6 439.6,339.2 440,338.9 440.3,337.2 440,335.8 439.6,334.9 439.2,335
			438.6,336.8 438.6,337.2 435.8,337.7 		"/>
		<polygon fill="#C60C30" points="411.7,367.2 411.7,367.8 412.2,367.9 413.2,368.5 413.7,369.6 412.3,369.6 411.9,369.6
			414.8,370.8 414.2,371.9 413.4,372.2 412.4,372.3 411.7,372.6 411.7,372.9 412.8,374.3 413.5,375 414.2,375.2 415.8,375.1
			416.6,375.2 417.1,375.6 417,378.7 417.1,379.3 417.6,380.8 417.7,381.8 417.6,382.4 417.1,383.2 417,383.8 417.1,384.3
			417.6,385.1 417.7,385.7 417.9,386.1 418.5,386.7 419.2,387.1 421.3,387.6 422.1,388 422.2,388.8 421.8,389.6 421.7,390.6
			421.8,391.6 422.6,393.7 422.6,394.5 422.5,394.8 422.4,394.8 422.4,395.3 422.3,395.7 422.4,396 424.3,396.3 424.5,396.2
			424.7,394.7 423,391.9 422.8,390.4 423.4,389.6 424.1,389.9 425.3,391.1 426.1,391.2 426.8,391 427.4,390.7 428.2,390.4
			429.2,390.8 429.9,392 430.6,393.5 431.5,394.8 430.8,396.2 426.7,399.3 427.7,399.7 429.6,399.2 430.7,399.2 431.5,399.7
			433.1,401 433.9,401.6 433.9,399.6 434.3,398.9 435.8,399 439.9,401.6 440.6,401.7 441.9,401.6 442.5,401.7 443,402 443.4,402.4
			443.9,402.8 445,403.1 448.5,403.4 450.5,404.5 451.7,404.7 452.6,403.7 453.2,402.8 454.2,402.2 455.2,401.7 456,401.5
			458.4,401.5 460.4,401.6 461.1,401.5 461.9,400.8 462.4,399.9 462.7,398.8 463.2,397.7 464.5,396 464.7,395.5 464.7,393.7
			464.9,393 465.7,391.1 466,389.5 466.1,387.7 466,385.7 465.6,384.3 464.2,382.1 463.9,380.9 464.3,379.3 465.1,379 466.1,379.6
			466.7,380.6 467.1,380.6 466.8,379.1 465.5,375.1 465.1,374.3 460,366.8 459.2,366.1 455.6,365.3 454.6,365 454.2,366
			454.2,366.3 454.5,366.8 453.7,367.2 452.9,367.2 452.4,366.6 452.7,365.4 453.2,364.9 454.2,364.7 457.8,365 460.2,364
			461.8,363 462.2,362.5 462.4,361.7 462,360.5 460.9,359.4 460.8,359.2 460.5,358.8 460.4,358.1 460.3,357.3 460.2,356.7
			457.7,352.6 456.2,350.9 455.2,351 455.2,351.6 455.6,353.9 455.6,355.5 454.8,354.7 454.5,354.3 454.8,355.9 455.4,357.5
			455.6,359 454.9,360 454.6,359.6 453.8,358.9 453.2,358.6 453,359.4 453.2,359.8 453.6,360.2 454.2,360.5 454.6,360.7 454.9,361
			455.2,361.7 455.3,362.3 455,362.6 453.1,363.2 449.7,365 449.1,364.8 448,366.9 446.2,367 445.3,365.4 447.3,362.6 447.8,362.3
			448.4,362.3 448.8,362.1 449.1,361.3 449,360.8 448.2,360.2 448,359.8 448.2,358.6 448.8,358.2 449.6,358.2 450.5,358.5
			448.9,357.4 448,357.1 447,356.9 446.6,356.7 446.1,356.1 445.5,354.9 444.7,353.9 441,351.4 439.4,350.7 438.7,350.9
			438.9,352.8 438.7,353.5 437.7,353.6 437.7,353.2 437.4,351.9 437.4,351.7 437,351.5 435.6,351.7 434.3,352.1 432,353.8
			425.2,356.1 420,359.7 417.3,360.7 414.8,359.3 414.3,358.3 414.3,357.5 414.1,357.1 413.2,356.9 411.7,357.2 411.7,365.5
			413.4,367 412,367.4 		"/>
		<polygon fill="#C60C30" points="459.7,418.3 459.2,417.9 458.9,418.3 458.4,419.8 457.5,421.2 456.9,422 456.1,422.3 454.8,422.4
			456.4,423.7 457.2,424.5 457.7,425.6 459,430.9 459.7,431.8 460.9,431.7 461.6,431.3 462.2,430.2 467.3,413.4 469.9,407.8
			470.9,404.8 473.4,393.5 472.2,393 470.2,396.5 468.4,401 468.1,403.6 465.1,407.9 463.8,408.8 460.9,412.2 459.8,413.9
			459.1,416.1 459.5,416.5 460,416.6 460.5,416.5 460.9,416.1 461.1,417.1 461.2,418 459.9,418.5 		"/>
		<polygon fill="#C60C30" points="411.8,415.2 413.6,416.7 415.6,416.8 416.1,416.5 416.9,415.7 417.4,415.5 417.9,415.6
			420.3,416.5 422.8,418.7 422.8,419.2 421.4,418.6 419.7,417.4 418.1,416.7 416.7,417.4 416.7,418 417.5,418.6 419.8,419.4
			420.7,420.2 421.4,420.4 422.4,419.8 423.5,419 424.3,418.7 425.8,418.7 426.5,418.5 426.5,417.7 424.5,411.4 423.7,409.9
			422.4,407.9 421.1,406.3 419.4,405.3 417.1,404.9 415.5,403.9 412.4,400.2 411.7,400.1 411.7,406.2 412.9,406.1 412.9,406.8
			412.2,407.6 412.6,408.3 414.8,409.9 415.2,410.3 414.8,410.5 414.6,410.8 414.8,411.4 415.2,412 415.4,412.4 414.3,412.6
			413,411.6 411.8,410.1 411.7,410.1 411.7,415.1 		"/>
		<polygon fill="#C60C30" points="450.1,319.6 450.9,320.5 451.9,321 452.9,321.7 453.6,323.3 453.7,324.9 453.3,326.4 452.6,327.5
			451.7,328.3 450.9,328.7 450.3,329.5 450.1,331.4 450.5,334.8 452.1,336.9 453.9,337.4 455.6,335.9 456.2,334.3 456.1,331.2
			456.4,329.5 457.7,327.7 458.5,326.3 458.3,325.6 457.9,326.2 457.5,327.2 456.8,327.6 455.9,326.4 455.4,325.3 455.4,324.3
			455.6,323.3 456,322.4 454.7,322 453.5,320.9 452.7,319.3 452.7,318.7 450.2,318.7 		"/>
		<polygon fill="#FFFFFF" points="411.7,415.1 411.7,410.1 410.6,409.3 410.6,409.9 410.9,409.9 410.7,412.8 		"/>
		<polygon fill="#FFFFFF" points="410.5,366.5 409,365.1 407.6,364.5 407.6,365.1 409.4,367.3 410.1,367.6 411.7,367.8 411.7,367.2
					"/>
		<polygon fill="#FFFFFF" points="472.1,275.3 411.7,275.3 411.7,214.5 410.6,214.1 408.8,215.3 406.8,216.1 405.9,217.4 405,219.2
			403.1,222.2 402.6,222.7 401.8,222.8 401.1,222.4 400.7,221.8 400.8,221.2 401.4,220.7 401.4,220 395.3,217.4 393.6,217.4
			385.8,220 385.7,220.3 385.3,221.7 385.1,222.1 384.6,222.1 384.2,222.3 383.8,222.5 382.2,224.1 381.1,225.7 380.1,227.6
			379.1,230 380,230.9 380.4,231.2 381,231.4 381.4,231.9 381.6,233 381.7,234.2 381.4,234.7 381.3,235.1 380.1,237.1 379.9,237.4
			379.8,238.6 380,239.7 380.3,240.7 380.6,241.3 381,242 381.4,242.7 382,243.1 383.3,243.6 383.4,244.3 383,245.6 382.5,247.2
			380.1,248.6 379.5,249.8 379.9,251.1 381,251 382.2,250.3 382.7,249.5 384.8,248.5 385.9,248.4 386.1,248.6 386.7,249.2
			387.7,251.7 387.2,254.4 386.4,257.5 386.3,261 386.2,261 386.1,261.5 386.1,262 386.5,262.3 387.1,262.3 387.3,262.3 387.4,262
			389.1,261 390.2,261.8 390.2,263 389.6,263.7 388.9,263 388.6,263.5 387.8,265.1 387.3,265 387.1,264.6 387,264.1 386.8,263.7
			385.5,262.9 384.9,262.3 384.6,261.6 384.5,261 384.5,260.6 383.9,260.4 384.5,259.1 385.7,257.3 385.8,256.4 385.3,255.2
			384.6,255.1 383.8,255.3 383.1,254.8 381.9,254.7 380,255 378.7,254.7 379,252.6 378.7,252.6 378.4,253.9 378,254.7 377.6,255.5
			377.2,256.5 377.7,256.1 378.3,256 378.7,256.3 379,257.3 378.2,257.5 377.3,257.3 376.5,257.5 375.8,260.6 374.9,261.6
			374,261.7 373.7,260.8 373.5,257.7 373.5,256.5 374,255.1 375.4,253.7 376,252.8 375.8,252 375.8,251.2 377.2,250.9 378.7,248.5
			380.1,248.1 379.5,246 378.8,245 377.9,244.1 377.2,242.7 376.9,240.5 376.4,239.3 375.4,238.5 374.1,238.1 373.2,238.2
			372.7,238.5 372.5,239 372.1,239.4 371.5,239.6 370.9,239.4 369.9,239 369.3,238.8 368.3,239 368.3,239.1 368.3,275.3
			324.9,275.3 325.3,296 325.1,298.3 323.8,304.2 323.7,306.3 324,313.1 324.2,314.2 324.4,315.2 324.6,315.6 325.4,315.9
			325.5,315.3 325.3,313.7 325.6,311.6 325.7,309.7 325.6,305.7 326.1,304.9 327.2,305 331.2,306.9 333.1,308.2 334.4,310.4
			335,313.7 335,316.6 336.6,318.7 368.3,318.7 368.3,418 369.8,418.6 381,421.2 381.8,422 382.1,422.9 382.2,424.2 382.6,425.3
			383.5,425.7 387.4,425.7 388.2,425.5 388.7,425 389.4,424.8 390,424.3 390.9,424.1 392,425.1 392.8,425.2 393.6,424.9 393.9,423
			394.6,421.9 396.8,420 397.7,419 398.2,418.5 399.1,418.6 399.5,418.5 399.8,418.1 400.1,417.4 400.7,416.4 401.4,414.6
			401.7,414 403.3,413.6 404.5,414.3 404.8,415.4 403.4,415.9 403,416.2 403.3,417 404.2,418.3 404.2,418.9 403.8,419.2
			403.7,419.6 404.7,420.2 405.4,420.4 407.5,420.2 408,420.6 408.7,422.4 409.3,422.8 410.1,422.4 410.3,421.4 410.2,420.4
			410,419.6 409.7,418.9 409.1,418.4 408.5,418 407.9,417.8 408.3,416.7 408.9,416.7 409.6,417.2 410.4,417.2 410.9,416.8
			411,416.5 410.9,416.2 409.7,409.2 409.3,407.9 408.5,407.4 405.6,406.6 404.5,405.6 402.4,403.3 401.3,402.8 400.7,403
			400.2,403.4 399.8,403.9 399.4,404.1 399,404.2 397.7,404.1 394.7,405.3 394,405.3 393.6,404 394.5,403.3 396.9,402.8
			397.9,402.3 398.8,401.4 400.1,399.6 398.9,397.7 398.1,396.9 397.3,396.5 395.8,396.5 395.2,396.4 394.6,396 395.3,395.5
			396,395.3 397.5,395.4 397.5,394.7 396.6,394.7 396.1,394 396.1,393.2 396.5,392.8 397.2,392.7 397.9,392.4 399.2,391.6
			399.6,391 400,390.4 400.4,389.9 401.2,389.7 404.3,390.3 405,390.3 405.8,390 406.5,389.5 406.8,388.9 406.9,387.4 407.2,386.6
			407.6,385.9 407.8,384.8 407.6,383.3 407,382.7 406.4,382.5 404.4,379.1 403.9,378.5 403.9,377.9 404.6,377.1 404.4,376.2
			403.8,375.3 403.1,374.8 402.1,374.1 402,373.4 402.4,372.6 402.5,371.6 402.3,370.9 401.6,369.5 401.4,368.4 402.1,368
			403.9,367.7 404.6,367.2 405.2,366 405.5,364.8 405.3,363.7 402.2,362.1 401.7,362.2 401.2,362.5 398.7,363.1 397.7,363.2
			396.7,362.6 397.6,361.8 399.6,361.1 400.4,360.1 400.2,359.8 400,359.4 400.8,359.4 402,359.9 402.7,360.1 403.6,359.9
			404.8,359 408.1,358.2 408.3,357.8 408.3,357 408.4,356.1 408.8,355.7 410,355.5 410.7,355 411.7,353.7 411.7,349.9 410.7,349.9
			409.7,349.6 409.1,348.9 408.7,347.9 408.2,346.8 405.5,344 404.7,343.6 401,343.5 399.8,343 399.8,342.6 399.9,342.3 400,342
			400.1,341.6 401.4,342.2 406.8,342.2 407.2,342.5 409.1,344.1 411.7,345.2 411.7,318.7 436.4,318.7 436.4,317.2 436.5,316
			437.8,313 437.5,312.4 436.6,312.5 435.4,313.1 436.3,311.3 437,309.6 437.1,307.8 436.8,305.5 436,303.5 435.2,302.3
			434.8,300.9 435.6,298.7 436.8,296.9 439.7,294.6 441,293 442.4,289.9 442.8,289.3 443.5,289.2 443.9,288.8 444.3,288
			444.5,286.8 445.2,287.4 446.5,286.7 447.1,287.1 447.6,287.8 448.4,288.4 449.1,288.7 449.8,288.7 448.3,291.8 448.2,293
			449.1,294.5 448.4,295.8 447.4,295.5 446.5,294.5 445.8,294 444.8,294.4 443,295.8 441.8,295.9 442.9,297.4 443.7,298.7
			444.6,299.4 446.1,299.2 447.2,298.4 447.7,298.3 449.9,299 450.3,299.5 450.7,300.6 450.3,300.8 449.4,301.4 449,301.9
			449.4,302.8 450,304.6 450.5,305.4 451.1,305.6 452.1,305.6 452.9,305.2 453.4,304.5 453.2,302.9 452.5,300.6 452.1,298.4
			453.9,296.4 455,294.4 456.4,292.8 457.6,293.2 458.2,293.7 458.9,293.8 459.4,294.2 459.5,295.5 459.3,296.7 458.7,297.2
			457.4,297.4 458.6,299.6 460.4,300.9 462.1,300.6 462.8,297.7 462.7,294.8 463,293.6 463.9,292.2 466.3,290.5 471.2,283.6
			471.7,281.5 471.3,279.6 471.5,277.1 		"/>
		<polygon fill="#FFFFFF" points="556.7,308 554.9,306.3 553.9,305.8 550.1,305.8 545.6,303.2 541.2,303 537,305.4 529,312.2
			523.9,315.3 521.2,317.7 520.8,318.7 556.6,318.7 557.3,317 558,315.4 560.2,312.4 560.9,311 558.2,308.7 		"/>
		<polygon fill="#FFFFFF" points="326.1,317.4 325.8,317 325.6,316.8 325.6,316.6 325.4,316.3 325.1,316.2 325,316.4 324.9,316.8
			325,317.3 325.1,317.5 325.4,318.4 325.4,318.7 326.3,318.7 		"/>
		<polygon fill="#FFFFFF" points="410.3,357.5 408.4,360 407.7,360.4 407.1,360.6 406.6,361 406.3,361.9 408.2,362.4 411.7,365.5
			411.7,357.2 		"/>
		<polygon fill="#FFFFFF" points="498.1,318.4 497,318.7 500,318.7 		"/>
		<polygon fill="#FFFFFF" points="400.6,196.6 396.6,201 392.1,204 387.3,205.8 382.6,206.4 369.5,204.5 368.5,204.9 368.3,205.2
			368.3,218.9 368.7,218.9 369.6,217.9 370.4,217.2 371.4,217 372.3,217.6 372,218.2 372.8,218.2 373.5,217.8 374.8,216.8
			376.5,216.1 376.9,215.5 376.6,214.2 382.4,219.2 383.4,219.6 384.5,219.5 396.5,215.1 401.1,215.1 403.2,214.1 405,212.4
			406,212.2 407,213.1 408,213.9 409.1,213.3 410.1,212.3 411.7,210.1 411.7,175.8 		"/>
		<polygon fill="#FFFFFF" points="451.7,315.2 450.9,316 450.3,317.2 450.2,318.7 452.7,318.7 452.3,315.4 		"/>
		<polygon fill="#FFFFFF" points="490,315.5 490.5,317.2 491.7,318.2 493,318.7 496.7,318.7 		"/>
		<polygon fill="#FFFFFF" points="516.1,318 515,318.2 514.2,318.7 516.7,318.7 		"/>
		<polygon fill="#FFFFFF" points="411.5,372.7 411.7,372.9 411.7,372.6 		"/>
		<polygon fill="#FFFFFF" points="410.4,399.8 408.6,400.1 403.9,402.3 403.9,402.9 404.8,403.5 405.7,403.3 406.5,403 407.5,402.9
			407.2,403.7 406.2,404.5 406.1,404.9 406.3,405.7 406.8,405.9 407.5,406 408,406.4 408.8,406.5 411.7,406.2 411.7,400.1 		"/>
	</g>
	<path fill="none" stroke="#999999" stroke-width="0.25" stroke-linecap="round" stroke-linejoin="round" d="M689.7,391.9l-3.2-1.3
		l-0.7-0.4l-0.5-0.7l-0.9-1.9l-0.4-0.5l-1.4-0.5l-2.6-0.5l-1.8-1.8l-1.4-0.8l-0.7-0.8l-2.1-3.1l-0.7-0.5l-0.5,1l-0.4,1.6l-0.4,1.4
		l-1.1,1.8l-0.5,1l-0.2,0.9l-0.2,5.6l-0.4,3.1l-0.7,2.4l1.1,1.5l9,5.1l3.1,0.7l3,1.7l1.6,0.4h2.8l0.6-0.3l0.5-0.7l0.5-0.9l0.4-0.6
		v-0.6l-0.2-0.8l0.3-0.9l1.1-1.9l0.5-1.1l0.1-0.8l-0.1-0.9l-0.4-1.3l0.3-0.3l0.1-0.3l0.1-0.3l0.3-0.5l-1.1-1.1L689.7,391.9z
		 M696,378v0.3l0.1,0.3v-0.3L696,378z M439.2,335l-0.6,1.8v0.3l-2.8,0.5l-0.2,0.5l0.4,0.4l3.6,0.6l0.4-0.3l0.3-1.6l-0.3-1.5
		l-0.5-0.9L439.2,335z M505,410.9l0.3-0.3l0.1-0.5l-0.2-0.6l-0.7-0.5H503l-1.1,0.5l1.9,2.8l0.3,0.1L505,410.9z M569.4,348l-0.1-1.3
		l-0.4-0.7l-0.5-0.3l-0.5,0.2l-0.5,0.6l-0.5,2.2v0.3l0.5,1.1l0.3,0.5l0.3,0.2l0.2,0.2l0.1,0.4l0.3,0.3l0.3-0.2l0.6-0.7l0.1-0.3v-0.1
		l-0.3-0.5V348z M342.7,375.1l-0.3-1.7l-0.4-1l-0.1-0.9l0.7-2v-1.1l-0.7-0.8l-1.1,0.2l-0.9-0.5l-0.3-2.7l-1.8,0.5l-0.5,1.3l0.4,2
		l1.6,4.4l1.2,2.2l1.4,1.5l1.3-0.5L342.7,375.1z M503.4,250.2l1,0.6l1,0.1l0.9-0.3l0.6-0.7l0.6-1.1l0.7-1l0.9-0.5l0.3-0.5l0.1-0.1
		h0.3V246l-2.2,0.9l-4.5,0.5l-0.6,0.5l0.2,1.3L503.4,250.2z M470,195.6l2-0.4l0.8,0.5l1.5,2.2l0.6,0.5l2.1-0.7l1.2-0.6l0.9-0.7
		l0.9-1.3l0.4-1.5l-0.1-1.3l-0.9-0.7l4.4-1.9l0.7,0.1l0.4-0.5l0.8,0.1l0.5-0.1l-0.2-1.2l-0.5-0.5l-0.6-0.2h-1.5l-5.9,0.7l-0.5,0.2
		l-1,0.9l-0.8,0.3l-2.2,0.1l-1.7,1.2l-1.7,2.1l-1.2,0.5v0.6l0.9,1L470,195.6z M457.7,327.7l0.7-1.4l-0.1-0.7l-0.4,0.6l-0.5,1
		l-0.7,0.4l-0.9-1.3l-0.5-1.1l-0.1-1l0.2-1l0.5-0.9l-1.3-0.4l-1.2-1.1l-0.8-1.7l-0.4-3.9l-0.7-0.2l-0.8,0.8l-0.5,1.3l-0.2,2.3l0.7,1
		l1.1,0.5l1,0.7l0.7,1.6l0.1,1.6l-0.4,1.5l-0.7,1.2l-0.9,0.7l-0.7,0.4l-0.6,0.8l-0.3,1.9l0.5,3.4l1.5,2.1l1.8,0.5l1.7-1.6l0.5-1.6
		l-0.1-3.1l0.3-1.6L457.7,327.7z M423.7,409.9l-1.3-2l-1.3-1.6l-1.7-1.1l-2.3-0.4l-1.6-0.9l-3.1-3.7l-2-0.5l-1.9,0.3l-4.6,2.2v0.7
		l0.9,0.5l0.9-0.1l0.9-0.3l1-0.1l-0.3,0.7l-1,0.8l-0.2,0.4l0.3,0.9l0.5,0.2l0.7,0.1l0.5,0.4l0.7,0.1l4.1-0.4v0.7l-0.7,0.9l0.4,0.7
		l2.2,1.5l0.4,0.5l-0.3,0.2l-0.2,0.3l0.2,0.6l0.3,0.7l0.2,0.3l-1.1,0.3l-1.3-1l-1.3-1.5l-1.2-0.8v0.5h0.3l-0.2,3l1.1,2.4l1.8,1.5
		l2,0.1l0.5-0.3l0.7-0.7l0.5-0.2l0.5,0.1l2.4,0.9l2.5,2.2v0.6l-1.5-0.7l-1.7-1.2l-1.7-0.7l-1.4,0.7v0.6l0.9,0.7l2.3,0.8l0.9,0.7
		l0.7,0.3l1-0.6l1.1-0.8l0.8-0.4l1.5,0.1l0.7-0.2v-0.9l-2-6.3L423.7,409.9z M449.4,420.5V419l-0.7-0.9l-1-0.6l-0.9-0.9l0.7,1.6
		l-0.1,0.7l-0.7,0.2h-1.1l-0.6-0.5l-0.6-2.7l-0.8-1.1l0.4,1.5l-0.3,0.7l-0.7,0.2h-0.8l-0.7-0.3l-0.6-0.8l-1.3-2l-1.3-1.2l-4.5-2.5
		l-0.7-0.9l0.3,1.5l0.9,2l9,9.9l1.2,0.5l0.7-0.3l1.1-1.3l4.1-1l-0.5-0.3L449.4,420.5z M560.5,343.8l-0.1-0.3l-0.2-0.5l-0.7,0.9
		l-0.9,2.3l-0.6,1.1l-0.5,0.7l-0.7,0.6l-0.7,0.8l-0.6,1.2v2.1l0.8,2.5l1.1,1.7l1.1-0.3l0.5-0.7l0.9-0.7l1-0.6l0.8-0.3l1.8-2.1v-0.4
		l-3-7.7L560.5,343.8z M554.8,405.7l-4.6-0.9l-4.3-0.3l-1.8-0.8l-1.1-2h-0.8l-0.6,0.3l-0.2,0.7l0.3,0.9l0.5,0.7l1.7,1.2v0.6
		l-0.5,0.3l-0.3,0.5v0.7l0.3,0.9l-0.7,0.4l-1.7,0.7l-0.5,0.1l-0.8-0.3l-1.3-0.9l-0.9-0.1l0.4,1.3l-0.4,0.7l-0.7-0.4l-0.7,0.3
		l-1.2,1.3l0.3,0.3l0.5,0.7l0.3,0.3l-0.6,0.3l-0.5,0.5l-0.2,0.7l0.2,0.9h-0.7v0.6l3.4,1.6l1.5,0.3l1-0.6l2.8-3.8l1.9-1.6l1.8-0.8
		l1.9-0.3l6.2,1.3l1.3-0.1l0.9-0.2l0.5-0.5l0.1-1l-0.9-3.1L554.8,405.7z M346.4,242.9l-0.5,0.3l-0.4,0.4l-0.3,0.5l-0.2,1.1l0.5,0.1
		l1.6-0.7l0.3,0.1l1.3,0.7l1.3,1.4l0.6,0.8l1.4,3.2l0.5,0.3l1.5-0.8l4.2-1.1l0.3-1.7l2.2-1.8l0.7-0.9l0.7-1.3l0.8-2.2l0.7-1.1
		l-0.4-0.4l-0.4-0.3h0.5l0.4-0.1l0.3-0.2l0.3-0.5l-0.9-0.4l-0.5-1l-0.4-3.2l-0.2-0.5l-0.3-0.5l-0.1-0.7l0.3-1l0.2-0.3l1.3-1.1
		l0.4,0.3l0.4,0.5l0.3,0.7v1.1l0.4-0.3l0.3-0.5l0.4-1.2l0.7-3.2l0.1-0.2l-0.1-0.8l-0.5-1.3l-0.1-0.4l0.1-0.7l0.5-1.2l0.3-0.8
		l-0.7-0.3l-0.6,1.3l-0.8,1.1l-1.2-0.8l-1.8,3.7l-1.1,1.4l-1.1-0.4l-1.5,0.9l-3.1,0.5l-1.5,0.6h-0.3l-0.5-0.1l-0.4,0.1l-0.2,0.3
		l0.1,1.6l0.1,0.8l0.2-0.1l-0.5,1l-1,1.4l-0.3,0.9l0.5,0.4l0.7,0.2l0.7,0.1l0.7-0.1l-1.3,1.7l-3.7,0.5l-1.5,1.1l0.1,0.4l0.2,0.9
		l0.1,0.9l-0.3,0.4L346.4,242.9z M470.2,396.5l-1.8,4.6l-0.3,2.6l-3,4.3l-1.3,0.9l-2.9,3.4l-1.1,1.6l-0.7,2.2l0.5,0.4l0.5,0.1
		l0.5-0.1l0.5-0.4l0.2,1l0.1,0.9l-1.3,0.5l-0.3-0.1l-0.5-0.5l-0.3,0.5l-0.5,1.5l-0.9,1.3l-0.7,0.8l-0.8,0.3l-1.3,0.1l1.6,1.4
		l0.7,0.8l0.5,1.1l1.3,5.3l0.7,0.9l1.3-0.1l0.7-0.4l0.5-1.1l5.1-16.8l2.6-5.5l1-3l2.5-11.3l-1.2-0.5L470.2,396.5z M520.4,428.3
		l-0.6-0.9l-2.6-2.2l-0.8-1.7l0.2-0.1l0.7-0.5l-0.9-0.3l-0.8-0.6l-1.3-1.6l-0.3-1.3l-4-3.6l-0.2,1.1l-0.1,1.1l0.1,1.1l0.5,1
		l-0.5,0.1l-1.3,0.6h-1.5l-1.2,1l0.1,0.8l0.6,1l0.5,1.6l-9.4-5.3l-1.3-0.3l-1.3-0.8l-1.6-3.5l-0.9-0.8l-0.9-0.5l-2.5-2l-1.3-0.7
		l-7.5,1.6l-0.7-0.4l-2.2,2.6l-0.7,1.5v1.6l0.3,0.6l2.8,3.5l0.7,0.5l0.9,0.3l-1,1.9L479,425l-1.6-0.3l-1.3,0.8l-0.3,1.5l0.5,1.4
		l1.1,1l2.8,0.7l2.8,1.3l2.6,0.6l5.7,3.7l3.2,2.8l4.9,2.9l1.2,0.2l2-1.9l2.5-1.2l2.6-0.6l8.2,1.8l2.4-0.8l1.7-1.9l0.2-2l-2-0.9
		l0.4-1l0.5-0.3l0.5-0.2l0.6-0.7l0.5-1.1v-0.5l-0.2-0.7L520.4,428.3z M456,401.5h2.4l2,0.1l0.7-0.1l0.8-0.7l0.5-0.9l0.3-1.1l0.5-1.1
		l1.3-1.7l0.2-0.5l0.1-1.9l0.1-0.7l0.8-1.9l0.3-1.6l0.1-1.8l-0.1-2l-0.4-1.4l-1.4-2.2l-0.3-1.1l0.4-1.6l0.9-0.3l0.9,0.6l0.7,1h0.4
		l-0.3-1.5l-1.3-4l-0.3-0.8l-5.1-7.5l-0.8-0.7l-3.6-0.8l-1.1-0.3l-0.4,0.9l0.1,0.3l0.3,0.5l-0.8,0.5h-0.9l-0.5-0.6l0.3-1.2l0.6-0.5
		l0.9-0.2l3.6,0.3l2.4-1.1l1.5-1l0.5-0.5l0.1-0.7l-0.3-1.3l-1.1-1.1l-0.1-0.2l-0.3-0.3l-0.1-0.7l-0.1-0.8l-0.1-0.6l-2.4-4.1
		l-1.5-1.7l-1,0.1v0.7l0.3,2.3v1.6l-0.8-0.9l-0.3-0.4l0.3,1.6l0.5,1.6l0.2,1.5l-0.7,1.1l-0.3-0.4l-0.7-0.7l-0.7-0.3l-0.1,0.8
		l0.2,0.5l0.4,0.4l0.5,0.3l0.5,0.1l0.3,0.3l0.3,0.7l0.1,0.7l-0.3,0.3l-2,0.6l-3.4,1.8l-0.6-0.1l-1.1,2l-1.9,0.1l-0.9-1.5l2-2.8
		l0.5-0.3h0.5l0.5-0.2l0.3-0.8l-0.1-0.5l-0.8-0.7l-0.2-0.4l0.3-1.1l0.6-0.5h0.8l0.9,0.3l-1.6-1.1l-0.9-0.3l-1-0.1l-0.5-0.3l-0.5-0.6
		l-0.7-1.1l-0.8-1l-3.6-2.5l-1.7-0.8l-0.7,0.2l0.2,1.9l-0.2,0.7l-0.9,0.1v-0.3l-0.3-1.3v-0.3l-0.4-0.1l-1.4,0.1l-1.3,0.5l-2.3,1.7
		l-6.8,2.3l-5.2,3.6l-2.7,1l-2.5-1.4l-0.5-1v-0.8l-0.2-0.5l-0.9-0.2l-2.8,0.6l-2,2.5l-0.7,0.4l-0.6,0.2l-0.5,0.4l-0.4,0.9l2,0.5
		l5.1,4.6l-1.4,0.4l-1.5-0.9l-1.5-1.3l-1.4-0.7v0.6l1.8,2.2l0.7,0.3l2,0.3l1,0.6l0.5,1.1l-1.4,0.1l-0.5-0.1l2.9,1.3l-0.5,1.1
		l-0.9,0.3l-1,0.1l-0.9,0.3l1.3,1.6l0.7,0.7l0.7,0.3l1.5-0.1l0.8,0.1l0.5,0.4l-0.1,3.2l0.1,0.5l0.5,1.6l0.1,1l-0.1,0.5l-0.5,0.9
		l-0.1,0.6l0.1,0.5l0.5,0.8l0.1,0.5l0.3,0.5l0.6,0.5l0.7,0.4l2.1,0.5l0.8,0.5l0.1,0.7l-0.3,0.9l-0.1,1l0.1,1l0.7,2l0.1,0.8l-0.1,0.4
		l-0.1-0.1v0.5l-0.1,0.4l0.1,0.3l1.8,0.3l0.3-0.1l0.2-1.5l-1.8-2.8l-0.2-1.5l0.7-0.8l0.7,0.3l1.2,1.2l0.9,0.1l0.7-0.2l0.6-0.3
		l0.8-0.3l1,0.4l0.7,1.2l0.7,1.5l0.9,1.3l-0.7,1.3l-4,3.1l0.9,0.5l2-0.5h1.1l0.9,0.5l1.5,1.3l0.8,0.6v-2l0.4-0.7l1.5,0.1l4.1,2.6
		l0.7,0.1l1.3-0.1l0.6,0.1l0.5,0.3l0.4,0.4l0.5,0.3l1.1,0.3l3.5,0.3l2,1.1l1.1,0.1l0.9-0.9l0.7-0.9l0.9-0.7l1-0.5L456,401.5z
		 M409.7,409.2l-0.4-1.3l-0.7-0.5l-2.9-0.8l-1.1-0.9l-2.1-2.4l-1.1-0.5l-0.6,0.2l-0.5,0.4l-0.4,0.5l-0.4,0.3l-0.5,0.1l-1.3-0.1
		l-3,1.2H394l-0.5-1.3l0.9-0.7l2.4-0.5l1-0.5l0.9-0.9l1.3-1.8l-1.3-2l-0.8-0.8l-0.7-0.3h-1.5l-0.7-0.1l-0.5-0.4l0.7-0.5l0.7-0.2
		l1.5,0.1v-0.7h-0.9l-0.5-0.7v-0.8l0.4-0.4l0.7-0.1l0.7-0.3l1.3-0.8l0.5-0.6l0.3-0.6l0.5-0.5l0.7-0.2l3.1,0.6l0.7-0.1l0.9-0.3
		l0.7-0.5l0.3-0.7l0.1-1.5l0.3-0.8l0.4-0.7l0.2-1.1l-0.2-1.5l-0.6-0.6l-0.7-0.3l-2-3.4l-0.5-0.6v-0.7l0.7-0.7l-0.2-0.9l-0.6-0.9
		l-0.7-0.6l-1.1-0.7l-0.1-0.7l0.3-0.8l0.1-1.1l-0.2-0.7l-0.7-1.4l-0.3-1.1l0.7-0.4l1.8-0.3l0.7-0.5l0.6-1.1l0.3-1.2l-0.2-1.1l-3-1.6
		l-0.5,0.1l-0.5,0.3l-2.6,0.7l-1,0.1l-0.9-0.6l0.9-0.8l2-0.7l0.8-1.1l-0.2-0.3l-0.1-0.4h0.7l1.2,0.5l0.7,0.1l0.9-0.2l1.2-0.9
		l3.3-0.8l0.2-0.4V357l0.1-0.9l0.5-0.4l1.2-0.2l0.7-0.5l1.5-1.9l2.7-2.2l0.9-1.1h-5l-1.1-0.3l-0.5-0.7l-0.4-1l-0.6-1.1l-2.7-2.8
		l-0.7-0.4l-3.8-0.1l-1.1-0.5v-0.5l0.1-0.3l0.1-0.3l0.1-0.4l1.3,0.6h5.4l0.5,0.3l1.8,1.7l3.2,1.2l1.6-0.1l2.6-1.4l5.7-1.7l1.3,0.8
		l0.5-0.5l0.2-0.1l-0.6-1.5l0.7-1.1l2.2-1.2v-0.7h-1.4l-0.7-0.1l-0.1-0.7l0.5-1.6l0.9-1.9l0.2-1l-0.5-0.4l-7.5-1.6l-1.3-1.5l1.3-0.3
		l2.7,0.1l1.4-0.5l0.4-0.5l0.3-0.7l0.3-0.7l0.7-0.3l5.1-0.3l0.7,0.3l0.5,0.6l0.2,0.7l0.1,0.7l0.3,0.6l0.8,1.3l0.5,0.5l0.7,0.2
		l0.5-0.2l0.3-0.5l0.2-0.5l0.5-0.7l-0.2-1l-0.4-0.9l-0.3-0.3l0.4-0.6l0.6-0.6l0.6-0.4h0.3l0.2-0.7l1.3-1.6l0.2-0.8l0.1-0.7l0.1-1.6
		l-0.1-2.4l0.1-1.2l1.3-3l-0.3-0.7l-0.9,0.1l-1.3,0.6l0.9-1.8l0.7-1.7l0.2-1.8l-0.3-2.4l-0.8-1.9l-0.9-1.3l-0.3-1.4l0.7-2.2l1.2-1.8
		l2.8-2.3l1.3-1.6l1.4-3.1l0.4-0.5l0.7-0.1l0.5-0.4l0.3-0.8l0.2-1.3l0.7,0.6l1.3-0.7l0.6,0.4l0.5,0.7l0.7,0.5l0.7,0.3h0.7l-1.5,3.1
		l-0.1,1.2l0.9,1.5l-0.7,1.3l-0.9-0.3l-0.9-1l-0.7-0.5l-1,0.4l-1.8,1.5l-1.2,0.1l1.1,1.5l0.8,1.3l0.9,0.7l1.5-0.3l1.2-0.8l0.5-0.1
		l2.2,0.7l0.5,0.5l0.4,1.1l-0.5,0.2l-0.9,0.7l-0.4,0.5l0.4,0.9l0.5,1.8l0.5,0.8l0.7,0.3l0.9-0.1l0.9-0.4l0.5-0.7l-0.3-1.6l-0.7-2.4
		l-0.4-2.2l1.7-2l1.2-2l1.3-1.6l1.3,0.5l0.6,0.5l0.7,0.1l0.5,0.4l0.1,1.3l-0.3,1.2l-0.5,0.5l-1.3,0.2l1.2,2.2l1.8,1.3l1.6-0.3
		l0.7-2.8l-0.1-2.9l0.3-1.3l0.9-1.3l2.4-1.7l4.8-6.9l0.6-2.1l-0.5-1.9l0.3-2.5l0.7-2.2l1.3-1.2v-0.6l-3.2-3.3l-1.7-3l-0.8-0.9
		l-1.7-1l-1.7-0.2l-12.5,2l-4.3-0.5l-3.9-2.2l-1.6-1.3l-0.3-0.3l-0.1-0.6l-0.3-2l-0.2-0.6l-1.1-0.7l-0.9,0.6l-1.7,2.4l-2.2,1.6
		l-0.5,1.3l-0.2,2.6l0.1,3.6l-0.6,0.5l-1.6,0.1l0.7-0.8l0.6-1.3l0.3-1.4l-0.4-1.1l0.2-0.9l0.4-3.1l0.5-0.2l2.6-3l3.6-2.7l0.9-2.7
		l-0.3-3.2l-1-2.1l-1.3,0.5l-1.4,0.9l-2.2,0.1l-3.5-0.7l0.3-0.9l0.1-0.3l-1.7-0.6l-0.8,0.2l-0.4,1.3l-0.2,0.6l-0.5,0.5l-0.7,0.4
		l-0.6,0.1l-0.3-0.1l-0.7-0.5l-0.5-0.1l-0.4,0.2l-0.1,0.5v0.5l-0.2,0.2l-0.8,0.2l-1.8,1.1L415,255l-2.4-0.4V254l7.3-1.1l2.4-1.8
		l1.9-0.7l1.6-1.3l0.8-0.4l0.9-0.2l0.5-0.2l1.2-0.9l1.3-0.6l1.1,0.2l1,0.7l0.9,0.9l0.9-0.9l0.8-0.3h2.4l0.7,0.1l1.3,0.6h0.4l0.7-0.9
		l-0.1-0.7l-0.5-0.5l-0.5-0.7l-1.3-4l-0.4-2l-0.2-3.8l-0.6-4.9l-0.4-1.6l0.2-0.7l0.3-2.6l0.3-1.3l0.3-0.8l1.5-1.8l-1-0.5l-4.2-0.1
		l-1.1-0.4l-2-1.8l-1.7-0.9l-5.2-5.5l-1.1-0.5l-0.9,0.5l-0.9,0.7l-1.1,1.5l-1-0.1l1-0.3l1.5-2.4l1.1-0.6l1.3,0.4l1.8,1.8l2.2,0.9
		l3.2,3.6l4.4,3l0.9-0.3l0.8-0.2l2.5,0.1l0.6-0.2l0.5-0.4l0.5-0.7l0.7-1.5l1.3-4.6l0.6-4.2l0.9-2.6l1.9-3.9l1.2-1.6l2.7-2l0.9-1.5
		l-1.1-10v-5.1l1.5-4.3l-2-4.8l-2.6-4l-1.5-4.4l1.6-5.9l4.3-6.7l2.7-2.6l2.9-1.1l-1.3-1.1l-1.5-0.3l-1.6,0.2l-1.4,0.5l-3.5,2.6
		l-6.4,6.7l-3.8,2.8l-4.3,1.9l-4.8,0.8l-4.8-0.3l-2.6,0.5l-1.3,1.9l-0.7,0.5l-1.8,3.5l-3.6,4.1l-2,3l-11.3,21l-4,4.4l-4.5,3
		l-4.8,1.8l-4.8,0.6l-13.1-1.9l-0.9,0.4l-2.5,2.8l-2.1,1.1l-4.8,1.1l-2.4-0.1l-4.4-1.6l-1.8-0.1l-1.7,1.6l-4.4,6.9l-2.8,3l-9.4,15.4
		l-1.2,3l-0.6,4l0.1,4.4l0.4,2l0.8-0.1l0.1-1.3l-0.3-2.1l-0.7-3.5l0.9,0.1l1.5,1l0.7,0.3l0.3,0.5l0.6,3.4l0.7,1.3l1.1,1.5l1.1,1.2
		l0.9,0.5l1.3,0.3l1.5,0.8l1.2,1.1l0.5,1.5l0.5,1.1l1.3,1.7l1.5,1.3h1.1l-0.7-0.4v-0.4l0.5-0.3l0.7-0.1l0.7-0.3l0.5-0.7l0.8-1.4
		l-0.4-0.9l-0.8-1.3v-0.8l0.1-1.9l-0.1-0.7l-0.7-0.3l-3.7,1.6l-0.5-0.2l-1.1-0.9l-0.7-0.3l-2.5,0.7v-0.7l0.7-0.3l1.1-0.9l0.7-0.2
		l0.7,0.2l1.3,0.9l0.6,0.2l0.7-0.1l0.7-0.5l0.3-0.8l-0.4-1.2l-0.5-0.2l-2.1,0.2v-0.6l0.8-0.9l0.1-1.5l-0.5-3.2l0.4-1.3l0.9-0.7
		l0.9-0.3l0.4-0.4l0.3-0.5l0.5-0.3l1.2-0.1l1.7-2.6l0.3-0.4l0.3-0.5l0.1-0.9l0.1-0.2l0.3-2.7l0.7-1.1l0.8-0.9l0.7-1.1l0.3-1.9
		l0.6-0.7l1.2-0.6l1.3-0.3l1.8,0.5l2.6-1.4l1.9-1.8l-0.7-0.9l0.9-0.6l1.2-0.1l1.1,0.5l0.5,1.3l0.4-0.2l0.9-1.2l1.1-1.1l0.9,0.1
		l0.9-1l0.9-0.7l0.9-0.2l0.9,0.6l-0.3,0.6h0.9l0.7-0.3l1.3-1l1.7-0.7l0.4-0.7l-0.3-1.3l5.9,4.9l1,0.5l1.1-0.1l12-4.4l4.6-0.1
		l2.1-0.9l1.8-1.7l1-0.3l1,1l1,0.7l1.1-0.5l1-1l1.9-2.5l0.4-0.3l0.6,0.2l1.1,0.9l1.6,0.6l3.1,2.9l-5.6,0.7l-2.5-0.7l-1.7,1.1l-2,0.8
		l-0.9,1.4l-0.9,1.7l-1.9,3l-0.5,0.5l-0.7,0.1l-0.7-0.4l-0.4-0.6l0.1-0.6l0.7-0.5V220l-6.1-2.6l-1.7-0.1l-7.8,2.6l-0.1,0.3l-0.3,1.4
		l-0.3,0.3l-0.5,0.1l-0.4,0.1l-0.4,0.2l-1.6,1.6l-1.1,1.6l-1,1.9l-1,2.4l0.9,0.9l0.5,0.3l0.6,0.1l0.3,0.5l0.3,1.1l0.1,1.1l-0.3,0.5
		l-0.1,0.5l-1.2,1.9l-0.3,0.3l-0.1,1.2l0.2,1.1l0.3,1l0.3,0.7l0.4,0.7l0.5,0.7l0.5,0.5l1.3,0.5l0.1,0.7l-0.3,1.3l-0.5,1.6l-2.4,1.5
		l-0.6,1.2l0.5,1.3l1.1-0.1l1.1-0.7l0.5-0.7l2.1-1l1.1-0.1l0.3,0.2l0.5,0.6l1,2.5l-0.5,2.7l-0.9,3l-0.1,3.6h-0.1l-0.1,0.5v0.5
		l0.5,0.3l0.5,0.1l0.3-0.1l0.1-0.3l1.6-1l1.1,0.8v1.2l-0.6,0.7l-0.7-0.7l-0.3,0.5l-0.7,1.6l-0.5-0.1l-0.2-0.4l-0.1-0.5l-0.2-0.4
		l-1.3-0.8l-0.5-0.5l-0.3-0.7l-0.1-0.6l-0.1-0.5l-0.6-0.2l0.6-1.3l1.2-1.8l0.1-0.9l-0.5-1.2l-0.7-0.1l-0.8,0.1l-0.7-0.5l-1.2-0.1
		L380,255l-1.4-0.3l0.3-2.1h-0.3l-0.3,1.3l-0.4,0.9l-0.4,0.7l-0.4,1.1l0.5-0.4l0.5-0.1l0.4,0.3l0.3,0.9l-0.8,0.2l-0.9-0.2l-0.8,0.2
		l-0.7,3.1l-0.9,1l-0.9,0.1l-0.4-0.9l-0.2-3l0.1-1.2l0.5-1.4l1.5-1.5l0.6-0.9l-0.2-0.9v-0.7l1.3-0.3l1.5-2.4l1.5-0.4l-0.7-2
		l-0.7-1.1l-0.9-0.9l-0.7-1.3l-0.3-2.2l-0.5-1.2l-1.1-0.8l-1.3-0.4l-0.9,0.1l-0.5,0.3l-0.3,0.5l-0.3,0.4l-0.7,0.2l-0.6-0.1l-1-0.5
		l-0.6-0.1l-1,0.2l-2.5,2.4l-1.6,1.3l-0.6,0.8l-0.8,1.5l-0.5,1.7l0.5,0.5l2.3,0.1l1.3,0.5l-0.1,0.2l-2.9,0.1l-2.2,0.7l-0.8,0.5
		l-3.4,5.7l-2.4,0.1l-0.7,0.7v1l0.9,0.5l0.3,0.9l0.1,0.9l0.3,0.5l0.4,0.2l0.5,0.1l1.7,1.3l0.1,0.8l-0.1,0.3l-0.3,0.2l-0.2,0.5
		l-0.3,2l-0.1,0.9v1.4l-0.1,0.9l-0.2,0.7l-0.3,0.5l-0.3,0.2l-3.2,0.7h-0.9l-0.6-0.4l-1-1.3l-0.9-0.7l-0.3-0.9l-0.1-0.9l0.2-0.4v-0.7
		l-1.6-4.5h-0.3l-0.4,1.1l-0.5,1.1l-0.7,0.9l-0.7,0.3l-2.6-2.1l-0.5-0.1l-1-1.1l-2.3-0.5l-2.6,0.1l-1.6,0.5v0.7l0.5,0.9l-0.1,0.7
		l-0.4,0.3l-0.5-0.4l-0.3-0.9l0.1-1.5l-0.2-0.9l0.7-0.5l-0.6-0.4l-2.2-0.4l-0.4-0.4l-0.3-0.9l-0.2-0.9l-0.2-0.4l-0.9-0.1l-0.3-0.2
		l-0.3-0.3v-0.7l0.4-0.9l1.2-3.1v-0.7l-0.5-0.5l-0.2-0.8l-0.3-0.3l-0.8,1.3l-1.1,2.6l-2.4,8.2l-0.4,1.6l-0.2,1.6l0.6,32.8l-0.2,2.2
		l-1.3,5.9l-0.1,2.1l0.3,6.8l0.2,1.1l0.3,1l0.2,0.5l0.7,0.3l0.1-0.6l-0.2-1.6l0.3-2.1l0.1-1.9l-0.1-4l0.5-0.8l1.1,0.1l4,1.9l1.9,1.3
		l1.3,2.2l0.6,3.4v2.9l2,2.6l0.9,1.5l0.7,1.6l0.3,1.6l-0.3,1.5l-2.1,2.2l-2,1.6l-1.2,0.4l-2.5,2l-2.4,1.3l-0.5-0.3l-0.2-1.2l0.1-1.1
		l0.5-1.3l0.1-0.9l-0.1-1.1l-0.9-2.5l-1.3-7.2l-0.3-0.5l-0.1-0.1l-0.1-0.3l-0.1-0.3l-0.3-0.1l-0.1,0.2l-0.1,0.5l0.1,0.5l0.1,0.2
		l0.3,0.9l2.5,18.4l-0.1,3.8l-0.7,3.8l-1,3.6l-3,7.9l0.1,1.4l0.8,0.8l3.1,0.6l1.3,0.7l6.3,5.3l0.7-0.3l-0.5-1.6l-1.2-1.4l-1.5-0.9
		l-1.2-0.2l0.7-0.9l0.3-0.2l0.5-0.1l-1.6-1.6l-0.1-0.9l0.6-1.3l0.9-0.8l1.2-0.3l1.2,0.1l1,0.4v0.6l-1.1,0.2v0.7l4.8,7.1l2.1,2
		l2.5,0.8l3.5,0.1l1.9,0.5l1.3,1.1l0.7,1.8l0.4,2l0.5,4.2l0.6,2.3l0.1,1.2l-0.1,0.8l-0.5,1.3l-0.1,1.1l0.4,4l0.7,4l1,3.1l0.1,1.7
		l-1,0.4l-2.8-0.7l-3.2-0.5l-0.1-1.1l0.9-1.2l0.6-0.5l0.7-0.2l-1.1-1.2l-2.2-0.7l-2.2,0.3l-1,1.8l-0.2,2.4l-0.3,2.2l-0.1,2.2
		l0.6,2.3l0.7,1l0.8,0.2l0.8-0.5l0.7-1.1l0.7-0.7l0.5-0.1l0.3-0.5l0.1-3.6l0.2-0.8l0.7-0.1l5.5,1l-0.6,2.4l-0.8,2.2l-0.6,2.4l-0.2,3
		l0.5,2.3l0.9,2.2l0.5,2.3l-0.7,2.5l0.4,0.6l-0.4,1.6l1.8,0.5l1.9,0.1l3.6-1.3l1.2-0.2l4.2,0.7l4.2,1.7l11.2,2.6l0.9,0.8l0.3,0.9
		l0.1,1.3l0.4,1.1l0.9,0.3h3.8l0.8-0.1l0.5-0.5l0.7-0.2l0.6-0.5l0.9-0.2l1,1l0.9,0.1l0.8-0.3l0.2-1.9l0.7-1.1l2.2-1.8l0.9-1.1
		l0.5-0.5l0.9,0.1l0.4-0.1l0.3-0.3l0.3-0.7l0.6-1l0.7-1.8l0.3-0.5l1.5-0.5l1.3,0.7l0.3,1.1l-1.4,0.5l-0.4,0.3l0.3,0.8l0.9,1.3
		l-0.1,0.6l-0.4,0.3l-0.1,0.4l1,0.6l0.7,0.2l2.2-0.2l0.5,0.4l0.7,1.7l0.6,0.4l0.8-0.4l0.2-0.9l-0.1-1.1l-0.2-0.8l-0.3-0.7l-0.5-0.5
		l-0.6-0.4l-0.7-0.2l0.4-1.1l0.6,0.1l0.7,0.5h0.8l0.5-0.4l0.1-0.3l-0.1-0.4L409.7,409.2z M534.1,417.6l-0.8-0.7h-1l-1,0.3l-1,0.1
		l-0.9-0.5l-1.7-1.6l-0.5-0.4l-0.1-0.4l-0.7-1.6l-0.5-0.5l-1.3,0.6l-0.5,0.1l0.3,0.9l0.1,0.3l-0.7,0.5l-0.8-0.1l-0.7-0.6l-0.4-1
		l0.1-1.3l0.5-0.9l0.4-1.1l-0.2-1.7l0.4-0.1l0.2-0.2l0.1-0.2l0.3-0.2l-0.1-0.1h-0.1l-0.1-0.1v-0.4l1.8,0.3l2.8,2.7l1.9,0.8l1.2-0.3
		l1.8-1.4l0.8-0.3l1.3-0.1l1.1-0.4l0.7-0.9l0.1-1.7l-2-4.4l-0.4-0.2l0.5-0.5l1.1-0.6l0.5-0.3l0.4-0.2l0.3-0.4l0.3-0.9l-0.5-2.1
		l-2-0.7l-4.4-0.4l-1.5-1.2l-0.3-0.4l0.1-0.9l0.3-0.3l0.4-0.1l0.3-0.5l1.1-0.7l1.1,0.3l0.6,1.3l-0.4,2l0.5,0.4l0.5,0.1l0.5-0.3
		l0.4-0.8l-0.3-1.6l0.7-1.8l1-1.6l1.3-0.9l0.9-0.9l11-2.6l2.8-2l0.3-0.3l0.8-1l-0.7-2.4l-0.3-1.3l-0.1-1.6l-0.5-1.3l-1.2-1.5
		l-2.2-1.9l-0.9-0.4l-3.2-0.3l-0.9-0.3l-2.6-2.2l-1.4-4.9l2.6-5.5l4.4-4.6l3.8-2.2h1.1l0.7,0.4l0.6,0.5l0.9,0.3l1.2-0.4l0.5-1.1
		l0.3-1.1l2-1.4l2.1-4.1l1.1-1.5l-0.5-1l-0.2-0.5l-0.1-0.5l0.1-0.6l0.3-1.6l0.1-2l0.1-1.3l0.2-0.9l-0.7-1.1l-0.7-1.9l-0.6-2
		l-0.3-1.8l-0.3-1.2l-0.7-1.5l-1.5-2.1v-0.7l0.7-1.1l1.4-3.8l0.7-1.6l2.2-3l0.7-1.5l-2.7-2.3l-1.5-0.7l-1.8-1.6l-1-0.5h-3.8
		l-4.5-2.6l-4.3-0.2l-4.2,2.4l-8.1,6.9l-5,3.1l-2.7,2.3l-0.9,2.3l0.9,0.8l1.5-0.3l4-1.5l1.1-0.1l0.9,0.5l0.8,1.3l1.3,5l0.2,1.3v3.3
		l2.2,10.2l-0.1,2l-1.2,3l-0.5,1.9l-1.8-0.7l-0.8-0.7l-0.3-0.9l0.2-0.2l1.6,0.5l-0.5-1.2l-0.7-0.8l-0.9-0.3l-0.8,0.3l-0.1,1.5
		l-1.2,1.3l-1.5,0.7l-1.1-0.3l0.7-1.3l1.8-1.8l0.4-1.1l0.4-1.6l0.9-0.1l1.9,0.7l1.3-2l-0.1-3.6l-0.9-3.8l-1-2.7l-0.4-0.7l-0.3-0.3
		l-0.2-0.4l-0.3-1.2l0.1-0.7l0.2-1.1v-0.9l-0.5-0.4l-1-0.5l-1.9-2l-0.9-0.1l-0.4,1.8l1.3,2.8l1.1,3l-0.9,2.6l-0.9,0.5l-1.8,0.5
		l-0.8,0.8l-0.9,2.1l-0.4,1.3l-0.2,1.1l0.1,0.3l0.5,1.2l0.1,0.7l-0.2,0.2l-2.2,4.8l-0.7,0.9l-0.9,0.9l0.5-1.6l0.3-0.5v-0.5l-0.4-1.2
		l-1.3-1.9l-0.9-0.9l-0.4,0.5L514,341l-2.4,0.2l-0.7-0.1l-0.7-0.7l0.4-0.6l0.9-0.4l4.2-0.8l0.1-0.7l-0.4-1.5l-0.5-1.5l-0.3-0.7
		l-1-0.1l-0.9,0.5l-0.8,0.7l-0.7,0.3l-2.6,0.3l-0.9-0.3v-0.7h1l0.6-0.5l0.9-1.4l0.8-0.3l1.7,0.5l0.8-0.1l0.7-1.9l-1-2.6l-2.6-4.6
		l0.5-0.8l0.7-0.4l1.7-0.1l-0.2,0.9l-0.1,0.3l0.9,0.5l0.9-0.1l0.3-0.6l-0.6-1l0.5-1l1.5-1.8l0.2-0.9l-0.6-0.8l-1.1,0.2l-1.9,1.2
		l-3.7,1.1l-2.2,0.1l-1-0.9l-8.1-1.2l-1.4,0.3l-6.7-3.2l0.5,1.6l1.2,1.1l4.2,1.6l3.4,0.3l1.5,0.7l1.7,3.1l-0.3,3.7l-1.5,2.5
		l-1.8-0.4l-1.1,1.3l-1.2,0.5l-1.3-0.2l-1.3-0.9l0.3,0.7l0.9,1.3l0.2,0.7l-0.1,0.6l-0.3,1.3l-0.1,0.7l-0.3,1.4l-0.6,0.9l-0.8,0.5
		l-1.8,0.4l-1.8,1.3l-0.9,0.3h-1.9l-0.9-0.2l-0.5-0.5l-0.7,0.7l2.2,1.9l-1.3,0.8l-1.5-0.5l-1.3-1.3l-0.9-1.6l0.5-0.4l0.5-0.2h0.5
		l0.6,0.1v-0.7l-1.8,0.3l-3.3,1.3l-1.7,0.3l-8.3-1.3v0.6l0.9,0.5l2.8,0.2l0.9,0.5l0.4,0.5l0.3,0.7l0.5,0.9l1.3,0.8l3.3,1.4l0.9,1.6
		l-8.3-0.7v0.7l5.7,1.6l2.6,1.5l2.3,2.9l0.7,1.8l0.1,1.8l-0.5,1.3l-1.4,0.5H481l-0.5,0.3l-0.3,0.7l-0.1,1.3l0.3,0.5l0.6-0.2l0.9-0.7
		l1.7,0.1l0.8,0.5l0.7,0.8l0.7,1.2l1.1,3.3l0.4,2.1l-0.2,0.9l0.7,0.5l0.1,1.1l-0.5,1.1l-1.1,0.5l-0.6,0.1l-0.7,0.3l-0.6,0.5
		l-0.5,0.6l-0.5,0.4l-0.8,0.1l-1.4-0.1v0.7l0.7,2l0.3,0.4h0.8l0.4-0.6l0.3-0.8l0.3-0.5l0.5-0.1h0.8l0.7,0.3l0.4,0.5l-0.1,0.9
		l-0.7,0.3l-0.7,0.1l-0.5,0.3l0.5,0.9l2.9,2.7l0.9,0.5l0.3,0.5l-0.1,2.2l0.1,0.5l1.3-0.1l0.6-0.2l0.5-0.4l-0.3,1.3l-0.7,0.6h-0.8
		l-0.7-0.6l0.3,2.5l0.9,1.3l1.3,0.5l1.9,0.1l-1.1-0.6v-0.7h3.6l0.7-0.3l1.5-0.8l0.7-0.1l3.6,1.6l0.7-0.4l0.9,0.6l4,1l1.9,0.9
		l0.7,0.1l0.7-0.7l0.7-1l0.9-0.8h1.2l0.8,0.7l0.1,1.1l-0.5,1.1l-0.8,0.9l0.9,1.2l3-0.2l1.1,0.9l0.1,0.7l-0.3,0.4l-4.6,0.9l1.3,2.3
		l3.2,2.4l1.2,2.1l-2.8-0.6l-5.5-2.6l-2.8-0.6l0.8,1l0.9,0.8l1,0.5l3.3,0.2l0.4,0.2l0.7,0.9l0.3,0.2l1,0.2l3.5,1.7l0.6,0.9l1,2.8
		l0.5,0.7v0.5l-1.1,1.1l-0.7,0.4l-0.3-0.5l-0.2-0.1l-1.2,1.2l-0.6,0.4l-0.6-0.3l-1.1-1.3l-0.7-0.3l-0.5,0.2l-2,1.6v0.7l1.1,0.5
		l0.5,0.9l0.2,1.2v1.7l0.2,1.8l0.6,0.9l0.8,0.7l0.9,1.1l0.3,0.7v0.5l-0.1,0.5l0.1,0.7l0.3,0.8l0.2,0.4l2.4,2.5l0.5,1.1l0.3,0.5
		l0.6,0.3l-0.5,1.5l0.2,0.9l0.7,0.5l1.1,0.2l-1.5,2.3l-0.7,1.5l-0.1,1.9l0.4,1.1l1.7,3.4l0.7,1.1l0.3,1.3l1.1,1.4l1-0.1l0.1-3.2
		l-0.6-5.1v-2.9l0.7-1.3l0.5-0.4l1.4-1.7l0.5-0.4l0.3-0.7l1.9-4l0.8-0.9l4.6-3.8v-0.6l-1.6-1.8L534.1,417.6z"/>
</g>

</svg>
