<?xml version="1.0" encoding="utf-8"?>

<svg version="1.2" baseProfile="tiny" xmlns="http://www.w3.org/2000/svg" xmlns:xlink="http://www.w3.org/1999/xlink" x="0px"
	 y="0px" viewBox="350.4 171.8 138 250" overflow="visible" xml:space="preserve">

<g id="Dominica">
	<title>Flag of Dominica</title>
	<g>
		<path fill="#006B3F" d="M485,263.4l0-1.4l-1.5-1.5l0-0.9l0.5-0.5l0-1.9l-1.9-1.4l-0.5-2.4l-3.3-2.9l0.5-1.9l0.5-0.5l0-4.3l0.5-0.5
			v-1l-1.2-0.2l-0.5-1l-1.4,0.9l-1.4-0.9l-1.4,0l-1.4,0.9l-1.9,0l-0.7-0.7l-0.5-2.4l1.5-2.4l0-1.4l0.5-0.5l-0.5-0.5l0.5-0.9l0-2.4
			l-1-0.9l-0.2-1.2l-1.4,0l-0.5-0.5h-5.8l-1.5-1.9h-0.5l-1.2-1.2v-0.5l-2.4-2.9v-1l-0.5-0.5l0-2.4l-0.5-0.5v-2.9l-1.2-0.2l-1.2-1.2
			l0-1l-0.7-0.2l-0.2-0.7l-0.8-0.4v30.6c10,5.8,18.4,14.2,24.1,24.3h8.9l0-1.7L485,263.4z"/>
		<polygon fill="#006B3F" points="451.8,207.6 451.8,206.2 452.8,205.2 452.5,203.5 451.5,203 451.5,207.9 		"/>
		<path fill="#006B3F" d="M451.5,354.8v45.8l5.9,0l2.4,1.9l1.4,0l1.9-1.4l5.8,0.5l0.5-0.5h1.4l7-5l0-1.9l1-1l0-5.3l0.5-0.5l0-2.9
			l0.4-0.5l0-1l1-1.5l0-0.9l1-1l-1-1.4l2.6-2.2l1.9,0l1.2-0.7l-0.5-1l0.4-0.9L485,373l0.5-1l0-1.9l-1.4-1l0.5-0.5l0.5-1.5l-0.5-1
			l1-1.9l0-2.9l0.5-0.5l0-1.9l0.5-0.5l0.5-3.4l1-1.9l0.5-2.9l-0.5-0.5l0-1.4l-1.9-1.9l-0.5-1l-0.5-2.9l-1.4-1.9l0-2l0.5-0.4
			l-0.5-0.5l-0.5-3.8l-0.5-0.5l0-3h-7C469.9,340.6,461.5,349,451.5,354.8z"/>
		<path fill="#006B3F" d="M386.5,241.2v-65.7l0,0l0-1l-0.7-0.7l-1.4,0l-0.7-0.7l-0.2-1.2l-1.5,0l-0.5,0.5l-6.3,0l-0.5-0.5h-5.3
			l-0.5,0.5l-1.5,0l-0.5,0.5l-1-0.5l-2.9,0l-1,0.5l-1.7,1.7v0.9l-1,1.5v1.4l-1.4,2.9v4.3l-0.5,0.4l0,1l1.5,2.4l-1.4,1l2.9,4.8l0,1
			L359,198v1l-1.2,1.2l-4.3,0l-0.5,0.5l-1,0l-0.7,0.7l0.2,3.6l2.4,0.5l1.4-1l1,0l0.5-0.5l1.9,0l0.5,0.5h1l1.2,1.2l1.9,4.3l0.5,2.4
			l-1,1.9l-1,1l0,1l-1,1.4l-0.5,3.4l-3.6,3.6h-1.4l-0.5,0.5l-1.4,0.5l-3.1,3.6l0,3.3l0.7,1.2l1.7,0.7l0.5,3.3l1,1.5v1l0.5,0.5
			l0.5,2.4l0.9,0.9l1,3.8l0.5,0.5l0,1l-1.4,2.9v3.4l1.4,1.9l0.5,2.4l1.4,2.9l2.2,2.6h0.7C368.1,255.4,376.5,247,386.5,241.2z"/>
		<path fill="#FFFFFF" d="M475.6,330.5h7l0-0.3l-0.5-0.5v-3.8l1.2-1.7l1.9-0.5l0.7-0.7l-0.3-2.2h-1.4l-0.5-0.5l-1.7-0.2l0.5-2.9
			l-0.5-0.5l0-1l0.7-0.7h1l0.4-0.5l2.9-0.5l0.2-0.7l1-0.4v-1l-1-1l0.5-1.9l-0.2-0.2h-4.5C481.9,316.6,479.3,323.9,475.6,330.5z"/>
		<path d="M487.7,308.8l-0.5-0.5l-3.9,0c0,0.2-0.1,0.3-0.1,0.5H487.7z"/>
		<polygon points="484,290.8 484,291.3 484.3,291.5 485.2,291.5 485.5,291.3 485.5,290.8 485.2,290.5 484.2,290.5 		"/>
		<path d="M484.5,299.9l-0.5-0.5c0,0.4,0,0.7,0,1.1L484.5,299.9z"/>
		<path d="M483.8,305l0.7-0.7l0.5-2.4l-1-0.7c-0.1,1.3-0.1,2.6-0.3,3.8L483.8,305z"/>
		<path d="M484,294.6l0-1l-0.1-0.1C483.9,293.9,483.9,294.3,484,294.6L484,294.6z"/>
		<path fill="#FCD116" d="M361.7,265.5l0.2,0.3v0.6c0.2-0.3,0.3-0.6,0.5-0.8H361.7z"/>
		<path fill="#FCD116" d="M482.2,282.5l0.1-0.1l1.4,0l0.8-0.8l-0.5-1.9l1.4-1.4l0.5-2.9l-0.7-0.2l-0.2-0.7l1.2-1.2l1.7-0.7V272
			l-1.9-1.4l0-0.9l0.9-1.9l-0.7-0.7l-1.7-0.2l0-1.2h-8.9C478.6,270.7,480.8,276.4,482.2,282.5z"/>
		<path fill="#FCD116" d="M402.3,361.3l0,0.6l-0.5,0.5v3.8l-0.5,0.5v1l1,1.5v0.5l1.2,1.2l3.8,1.9l0.8,0.8v-10.9
			C406.2,362.3,404.2,361.9,402.3,361.3z"/>
		<path fill="#FCD116" d="M408.2,233.4v-36.2l-0.1-0.1l-0.7-0.2l-0.7,1.2l-0.3,0.7l-1-1.4h-0.9l-0.5,0.5l-1.4,0l-0.5,0.5l-0.2-2.2
			l-2.4-1.9l-0.5-1.5l-0.5-1.4l-1.2-0.2l-1.2-1.2l-0.9-3.3l-1.2-1.2l-1.2-0.7l-1-1.9l0-1.9l-0.5-1l-2.2-2.2l-0.5,0l-2.1-2.1v65.7
			C393.1,237.4,400.4,234.7,408.2,233.4z"/>
		<path d="M418.5,232.5c3.9,0,7.7,0.3,11.4,0.9v-36.7l-0.4-0.4l-1.4,1.9h-1.4l-0.5,0.5h-4.3l-1.4-1.9l-1.9,0l-0.5-1l-0.7-0.2
			l-0.2-1.2h-0.5l-2.4,1.9h-1l-0.4-0.5l-2.4,1.9l-1,0l-0.5,0.5l-0.6-1.1v36.2C411.5,232.8,415,232.5,418.5,232.5z M427.5,206.2h-0.3
			H427.5z"/>
		<path d="M419.5,363.5c-3.9,0-7.7-0.3-11.4-0.9v10.9l1.4,1.4l0.5,1v0.9l0.5,0.5l0,6.2L410,384l0,2.9l-1,1.9l0,3.4l1,1.9l0,1
			l0.5,0.5v1l0.9,1.4l0,2.4l0.5,0.5l0,1.5l1.5,1.9l1.5,1v0.5l1.2,1.2l1.9,0.5l0.7,0.7l-0.5,3.9l-2.4,5.3l-0.7,0.7l-2.4,0l-1-0.5
			l-0.2,0.7l0.7,0.7l3.4,0.9l2.9,1.4l1.4,0l0.5,0.5h4.3l0.5-0.5l1.4,0l0.5-0.5l1.5,0l1,0.5l0.4-0.4v-58.3
			C426.5,363.2,423,363.5,419.5,363.5z M414.9,385.8h0.3H414.9z"/>
		<polygon fill="#FFFFFF" points="435.9,199 436,199.4 436.2,199.7 436.7,199.7 436.9,199.4 436.9,199 436.7,198.7 436.2,198.7
			"/>
		<path fill="#FFFFFF" d="M451.5,241.2v-30.6l-0.2-0.1l0-2.4l0.2-0.2V203l-0.9-0.4l-2.9,0l-2.9-1.4l-1.2,0.7l-0.3,0.7l-3.4,0l-1.9-1
			l-1,0l-0.5-1l-1.7-0.2l-0.3-3.1l-0.9,0l-0.5-0.5l-1,0.5l-1.9,0l-0.6-0.6v36.7C437.6,234.7,444.9,237.4,451.5,241.2z"/>
		<path fill="#FFFFFF" d="M429.8,362.6V421l1.1-1.1l3.4,0l1.4-1l1.7-0.3l0-0.9l-1-0.5v-1.4l0.5-1l1.7-1.7h0.5l1.9-1.5h1.4l0.5-0.5
			h1.5l1-0.5l0.7-0.7l0-1.5l0.5-0.5l1-5.8l1.7-1.7l0.5,0l0.5-0.5l0.9,0.5l0.4,0v-45.8C444.9,358.6,437.6,361.3,429.8,362.6z"/>
		<path fill="#D41C30" d="M451.5,241.2c-6.6-3.8-13.9-6.5-21.7-7.8c-3.7-0.6-7.5-0.9-11.4-0.9c-3.5,0-6.9,0.3-10.3,0.9
			c-7.8,1.3-15.1,4-21.7,7.8c-10,5.8-18.4,14.2-24.1,24.3c-0.2,0.3-0.3,0.6-0.5,0.8v0.4l0.5,0.5l0,3.4l2.4,4.3l3.4,3.4l0.5,1l0,1.8
			l1.2,0c0.2-0.6,0.7-2,2-5.7l0.4-1.2l2.2,6.8c2.2,0.1,5.6,0.1,5.9,0.1l0,0c0.1,0,0.2,0,0.3,0l0.2,0.1l0,0.5l-0.1,0.1
			c0,0-0.1,0.1-0.1,0.1c-0.3,0.2-2.9,2.2-4.7,3.6c1.3,3.7,1.9,5.3,2.1,6.1c0.1,0.1,0.1,0.1,0.1,0.1l-0.1,0c0.1,0.5,0,0.5-0.2,0.6
			l-0.4,0.2l-0.2-0.3c-0.4-0.4-3.2-2.4-5.1-3.7c-0.2,0.2-0.5,0.3-0.7,0.5l1.2,1.2l0.5,0l1.7,1.7l0,1l1.4,2.9v1l3.3,3.8l0.5,1v1.5
			l0.5,0.5v4.3l-0.5,0.5l0,3.4l0.9,1v0.5l0.9,0.5l0,1.9l1.7,1.2l1.9,0.5l2.4,1.4l0.7,0.7v1l0.5,0.5l0,1l2.4,1.9l1.4,3.8l0.5,1.9
			l3.9,3.9l0.6,1.2c0.2,0,0.3,0,0.4,0l0,0c0.1,0,0.2,0,0.3,0l0.2,0.1l0,0.5l-0.1,0.1c0,0-0.1,0.1-0.1,0.1c0,0-0.2,0.1-0.3,0.2l0,0.7
			l0.9,1.4l0.5,5.3l0.5,0.5l0,3.4l-1.5,1.9l0,2.9l-0.5,0.5l0,1.4l0.5,0.5l0,2.4l0.7,1.2l1.4,0.5l0.7,0.7l0.5,1l0,1.8
			c1.9,0.5,3.9,0.9,5.9,1.3c3.7,0.6,7.5,0.9,11.4,0.9c3.5,0,6.9-0.3,10.3-0.9c7.8-1.3,15.1-4,21.7-7.8c10-5.8,18.4-14.2,24.1-24.3
			c3.7-6.6,6.3-13.9,7.6-21.7c0-0.2,0.1-0.3,0.1-0.5l-1.8,0l-0.8-0.7l0-1l1.4-0.9l0.2-0.7l1.3,0c0.1-1.3,0.2-2.5,0.3-3.8l-0.4-0.3
			l0.4-0.4c0-0.4,0-0.7,0-1.1l-0.9-0.9l0.5-1l-1-1.4l0.7-1.2l0.6-0.2c0-0.4,0-0.8,0-1.2l-0.3-0.3l-0.2-1.6l-4.1-0.3l0-1.9l1.9-3.4
			l0-1.9l0.5-1l0.6-0.6c-1.4-6-3.7-11.7-6.6-17C469.9,255.4,461.5,247,451.5,241.2z M460.5,311.1h-0.3H460.5z M438.6,261.1
			c0,0,0.1-0.1,0.1-0.1c0.3-0.2,2.9-2.2,4.7-3.6c-1.3-3.7-1.9-5.3-2.1-6.1c-0.1-0.1-0.1-0.1-0.1-0.1l0.1,0c-0.1-0.5,0-0.5,0.2-0.6
			l0.4-0.2l0.2,0.3c0.4,0.4,3.2,2.4,5.1,3.7c2-1.4,4.9-3.4,5.1-3.6l0,0c0.1-0.1,0.2-0.1,0.3-0.1h0.3l0.1,0.3c0,0.1,0.1,0.2-0.1,0.3
			l0,0c-0.2,0.3-1.2,3.7-1.9,5.9l5.7,4.3l-7.1,0.1c-0.2,0.6-0.7,2-2,5.7l-0.4,1.2l-2.2-6.8c-2.2-0.1-5.6-0.1-5.9-0.1l0,0
			c-0.1,0.1-0.2,0-0.3,0l-0.2-0.1l0-0.5L438.6,261.1z M416.6,246.3c0.2-0.6,0.7-2,2-5.7l0.4-1.2l2.2,6.8c2.2,0.1,5.6,0.1,5.9,0.1
			l0,0c0.1-0.1,0.2,0,0.3,0l0.2,0.1l0,0.5l-0.1,0.1c0,0-0.1,0.1-0.1,0.1c-0.3,0.2-2.9,2.2-4.7,3.6c1.3,3.7,1.9,5.3,2.1,6.1
			c0.1,0.1,0.1,0.1,0.1,0.1l-0.1,0c0.1,0.5,0,0.5-0.2,0.6l-0.4,0.2l-0.2-0.3c-0.4-0.4-3.2-2.4-5.1-3.7c-2,1.4-4.9,3.4-5.1,3.6l0,0
			c-0.1,0.1-0.2,0.1-0.3,0.1h-0.3l-0.1-0.3c0-0.1-0.1-0.2,0.1-0.3l0,0c0.2-0.3,1.2-3.7,1.9-5.9l-5.7-4.3L416.6,246.3z M408.2,266.4
			h-0.3H408.2z M380.9,261.7c0,0,0.1-0.1,0.1-0.1c0.3-0.2,2.9-2.2,4.7-3.6c-1.3-3.7-1.9-5.3-2.1-6.1c-0.1-0.1-0.1-0.1-0.1-0.1l0.1,0
			c-0.1-0.5,0-0.5,0.2-0.6l0.4-0.2l0.2,0.3c0.4,0.4,3.2,2.4,5.1,3.7c2-1.4,4.9-3.4,5.1-3.6l0,0c0.1-0.1,0.2-0.1,0.3-0.1h0.3l0.1,0.3
			c0,0.1,0.1,0.2-0.1,0.3l0,0c-0.2,0.3-1.2,3.7-1.9,5.9l5.7,4.3l-7.1,0.1c-0.2,0.6-0.7,2-2,5.7l-0.4,1.2l-2.2-6.8
			c-2.2-0.1-5.6-0.1-5.9-0.1l0,0c-0.1,0.1-0.2,0-0.3,0l-0.2-0.1l0-0.5L380.9,261.7z M421.4,349.9c-0.2,0.6-0.7,2-2,5.7l-0.4,1.2
			l-2.2-6.8c-2.2-0.1-5.6-0.1-5.9-0.1l0,0c-0.1,0.1-0.2,0-0.3,0l-0.2-0.1l0-0.5l0.1-0.1c0,0,0.1-0.1,0.1-0.1
			c0.3-0.2,2.9-2.2,4.7-3.6c-1.3-3.7-1.9-5.3-2.1-6.1c-0.1-0.1-0.1-0.1-0.1-0.1l0.1,0c-0.1-0.5,0-0.5,0.2-0.6l0.4-0.2l0.2,0.3
			c0.4,0.4,3.2,2.4,5.1,3.8c2-1.4,4.9-3.4,5.1-3.6l0,0c0.1-0.1,0.2-0.1,0.3-0.1h0.3l0.1,0.3c0,0.1,0.1,0.2-0.1,0.3l0,0
			c-0.2,0.3-1.2,3.7-1.9,5.9l5.7,4.3L421.4,349.9z M433.1,334.6C433.1,334.6,433.1,334.6,433.1,334.6c-0.4,1.8-0.9,3-1.7,3
			c0,0-0.1,0-0.1,0c-0.2,0-0.5-0.1-0.7-0.3c-0.5-0.4-1-1.4-1.4-2.7c0,0,0,0,0,0c-0.3,0-0.6-0.1-0.9-0.4c-0.4-0.3-0.8-0.9-1.2-1.7
			c-0.1,0-0.2,0.1-0.4,0.1c0,0,0,0-0.1,0c-0.4,0-0.8-0.1-1.3-0.2c-0.2,0.1-0.5,0.2-0.9,0.2c0,0,0,0-0.1,0c-0.4,0-0.8-0.1-1.2-0.2
			c-0.3,0.2-0.6,0.3-1.1,0.3c0,0,0,0-0.1,0c-0.4,0-0.8-0.1-1.3-0.2c-0.2,0.1-0.5,0.2-0.9,0.2c0,0,0,0-0.1,0c-1.4,0-3.3-1-4.4-2.5
			c-0.2,0-0.4,0-0.5,0c-6.6,0-12.2-0.2-12.7-0.5c-1.1-0.8-2.8-4.2-2.8-4.6l0-0.3l0.3,0c1.8-0.1,2-0.6,2.3-1.3
			c0.2-0.5,0.4-1.1,1.2-1.5c1.9-1,4.4-0.3,5.2,1c0.4,0.6,0.4,1.2,0.5,1.6c0.1,0.6,0.1,0.6,0.3,0.6c0.2,0,1.1,0,2.5-0.1
			c1.4,0,2.7-0.1,3.9-0.1c0.5-0.7,1.2-1.3,2-1.7c-0.5-0.8-0.9-1.9-1-3.1c-0.2,0-0.5-0.1-0.7-0.3c-0.8-0.6-1.4-2.1-1.6-3.8
			c-0.1-0.8-0.1-1.6,0.1-2.3c-0.2-0.4-0.4-0.9-0.5-1.4c-3.4-3.7-6.8-9.2-7.2-16.6c-0.4-8.7,1.5-14.1,3.2-17.3c0,0,0-0.1,0-0.1
			c0-0.7,0.3-1.3,0.7-1.7c0.1-0.7,0.4-1.2,0.9-1.6c0-0.4,0.1-0.7,0.3-1c0,0-0.1,0-0.1,0c-0.3,0.2-0.7,0.4-1.1,0.6
			c-0.5,0.2-1,0.3-1.5,0.3c-0.2,0-0.4,0-0.6-0.1c-0.3-0.1-0.6-0.2-0.8-0.3c-0.3,0.5-0.5,1.1-0.7,1.8l-0.2,0.9l-0.4-0.8
			c-1.2-2.7-1.4-4.7-0.7-6.1c0.4-0.9,1.3-1.5,2.4-1.7c0.3-0.1,0.6-0.2,0.8-0.2c0.2-1.4,0.9-2.6,1.9-3.4l0,0c2.1-1.6,6.3-2.3,9.7-0.5
			c1.2,0.6,2.7,1.9,4.3,3.4c1.9,1.7,4.2,3.7,5.9,4.4l1.1,0.4l-1.2,0.2c-0.9,0.2-1.6,0.2-2.3,0.2c1,0.7,2,1.1,2.7,1.1l0.7,0l-0.4,0.5
			c-0.5,0.6-1,1.1-1.5,1.4c1.3,0.9,2.5,1.5,3.4,1.6l0.7,0l-0.4,0.5c-0.5,0.7-1.1,1.2-1.8,1.6c0.9,0.6,1.8,1,2.5,1l0.7,0l-0.4,0.5
			c-0.6,0.8-1.3,1.3-2,1.7c0.9,0.6,1.8,1,2.5,1l0.7,0l-0.4,0.5c-1.1,1.4-2.4,2.2-4,2.3c-0.1,0-0.2,0-0.4,0c-0.8,0-1.5-0.2-2.2-0.4
			c2,2.7,3.9,6.1,5.6,9.9c3.1,7.3,4.4,14.5,3.2,18.2c0.5,1.8,0.6,3.5,0.5,4.9c0.7,2.7,0.4,4.9,0.1,6.9L438,327l-0.7-1.6
			c-0.3-0.8-0.6-1.5-1-2.2c0,0.7-0.1,1.3-0.1,2c0,0,0.1,0.1,0.1,0.1c0.6,0.6,0.9,1.6,0.8,2.6c-0.1,0.7-0.3,1.3-0.7,1.6
			c-0.1,0.1-0.3,0.1-0.7,0.2C435.2,332.5,434.4,334.5,433.1,334.6z M456.7,334.5c0,0-0.1,0.1-0.1,0.1c-0.3,0.2-2.9,2.2-4.7,3.6
			c1.3,3.7,1.9,5.3,2.1,6.1c0.1,0.1,0.1,0.1,0.1,0.1l-0.1,0c0.1,0.5,0,0.5-0.2,0.6l-0.4,0.2l-0.2-0.3c-0.4-0.4-3.2-2.4-5.1-3.8
			c-2,1.4-4.9,3.4-5.1,3.6l0,0c-0.1,0.1-0.2,0.1-0.3,0.1h-0.3l-0.1-0.3c0-0.1-0.1-0.2,0.1-0.3l0,0c0.2-0.3,1.2-3.7,1.9-5.9l-5.7-4.3
			l7.1-0.1c0.2-0.6,0.7-2,2-5.7l0.4-1.2l2.2,6.8c2.2,0.1,5.6,0.1,5.9,0.1l0,0c0.1,0,0.2,0,0.3,0l0.2,0.1l0,0.5L456.7,334.5z
			 M474.9,315l-7.1,0.1c-0.2,0.6-0.7,2-2,5.7l-0.4,1.2l-2.2-6.8c-2.2-0.1-5.6-0.1-5.9-0.1l0,0c-0.1,0.1-0.2,0-0.3,0l-0.2-0.1l0-0.5
			l0.1-0.1c0,0,0.1-0.1,0.1-0.1c0.3-0.2,2.9-2.2,4.7-3.6c-1.3-3.7-1.9-5.3-2.1-6.1c-0.1-0.1-0.1-0.1-0.1-0.1l0.1,0
			c-0.1-0.5,0-0.5,0.2-0.6l0.4-0.2l0.2,0.3c0.4,0.4,3.2,2.4,5.1,3.7c2-1.4,4.9-3.4,5.1-3.6l0,0c0.1-0.1,0.2-0.1,0.3-0.1h0.3l0.1,0.3
			c0,0.1,0.1,0.2-0.1,0.3l0,0c-0.1,0.3-1.2,3.7-1.9,6L474.9,315z M470.8,290.1c0.1,0.1,0.1,0.1,0.1,0.1l-0.1,0
			c0.1,0.5,0,0.5-0.2,0.6l-0.4,0.2l-0.2-0.3c-0.4-0.4-3.2-2.4-5.1-3.7c-2,1.4-4.9,3.4-5.1,3.6l0,0c-0.1,0.1-0.2,0.1-0.3,0.1h-0.3
			l-0.1-0.3c0-0.1-0.1-0.2,0.1-0.3l0,0c0.2-0.3,1.2-3.7,1.9-5.9l-5.7-4.3l7.1-0.1c0.2-0.6,0.7-2,2-5.7l0.4-1.2l2.2,6.8
			c2.2,0.1,5.6,0.1,5.9,0.1v0c0.1,0,0.2,0,0.3,0l0.2,0.1l0,0.5l-0.1,0.1c0,0-0.1,0.1-0.1,0.1c-0.3,0.2-2.9,2.2-4.7,3.6
			C470.1,287.7,470.6,289.3,470.8,290.1z"/>
		<path fill="#D41C30" d="M367.2,284.6l0,0.4l0.9,1.3c0.1-0.3,0.2-0.6,0.3-0.8L367.2,284.6z"/>
		<path fill="#006B3F" d="M416.2,250.4l-0.1,0.3c-0.8,2.5-1.3,4-1.6,5c0.8-0.6,2.2-1.5,4.2-3l0.3-0.2l0.2,0.2
			c2.2,1.6,3.6,2.5,4.4,3.1c-0.5-1.4-1.2-3.5-1.8-5.1l-0.1-0.3l0.2-0.2c1.9-1.5,3.1-2.5,3.9-3c-1,0-2.5,0-5-0.1l-0.3,0l-1.6-4.9
			c-0.7,2-1.5,4.3-1.6,4.7v0.4l-5.3,0.1L416.2,250.4z"/>
		<path d="M413.2,256.6L413.2,256.6c-0.1,0.2-0.1,0.2,0,0.4l0.1,0.3h0.3c0.1,0,0.2,0,0.3-0.1l0,0c0.2-0.2,3.1-2.2,5.1-3.6
			c1.9,1.4,4.7,3.4,5.1,3.7l0.2,0.3l0.4-0.2c0.2-0.1,0.3-0.1,0.2-0.6l0.1,0c0,0,0-0.1-0.1-0.1c-0.2-0.8-0.8-2.4-2.1-6.1
			c1.8-1.4,4.4-3.4,4.7-3.6c0.1,0,0.1,0,0.1-0.1l0.1-0.1l0-0.5l-0.2-0.1c-0.1,0-0.1-0.1-0.3,0l0,0c-0.3,0-3.7,0-5.9-0.1l-2.2-6.8
			l-0.4,1.2c-1.3,3.7-1.8,5.1-2,5.7l-7.1,0.1l5.7,4.3C414.5,252.9,413.4,256.3,413.2,256.6z M417.3,246.7c0.1-0.4,0.9-2.7,1.6-4.7
			l1.6,4.9l0.3,0c2.5,0.1,4,0.1,5,0.1c-0.8,0.6-2,1.5-3.9,3l-0.2,0.2l0.1,0.3c0.6,1.6,1.3,3.8,1.8,5.1c-0.8-0.6-2.1-1.6-4.4-3.1
			l-0.2-0.2l-0.3,0.2c-2.1,1.5-3.4,2.4-4.2,3c0.3-1,0.8-2.5,1.6-5l0.1-0.3l-4.2-3.2l5.3-0.1V246.7z"/>
		<path fill="#006B3F" d="M421.8,345.8l0.1-0.3c0.8-2.5,1.3-4,1.6-5c-0.8,0.6-2.1,1.5-4.2,3l-0.3,0.2l-0.2-0.2
			c-2.2-1.6-3.6-2.5-4.4-3.1c0.5,1.4,1.2,3.5,1.8,5.1l0.1,0.3L416,346c-1.9,1.5-3.1,2.5-3.9,3c1,0,2.5,0,5,0.1l0.3,0l1.6,4.9
			c0.7-2,1.5-4.3,1.6-4.7V349l5.3-0.1L421.8,345.8z"/>
		<path d="M424.8,339.5L424.8,339.5c0.1-0.2,0.1-0.2,0-0.4l-0.1-0.3h-0.3c-0.1,0-0.2,0-0.3,0.1l0,0c-0.2,0.2-3.1,2.2-5.1,3.6
			c-1.9-1.4-4.7-3.4-5.1-3.8l-0.2-0.3l-0.4,0.2c-0.2,0.1-0.3,0.1-0.2,0.6l-0.1,0c0,0,0,0.1,0.1,0.1c0.2,0.8,0.8,2.4,2.1,6.1
			c-1.8,1.4-4.4,3.4-4.7,3.6c-0.1,0-0.1,0-0.1,0.1l-0.1,0.1l0,0.5l0.2,0.1c0.1,0,0.1,0.1,0.3,0l0,0c0.3,0,3.7,0,5.9,0.1l2.2,6.8
			l0.4-1.2c1.3-3.7,1.8-5.1,2-5.7l7.1-0.1l-5.7-4.3C423.5,343.2,424.6,339.8,424.8,339.5z M420.7,349.4c-0.1,0.4-0.9,2.7-1.6,4.7
			l-1.6-4.9l-0.3,0c-2.5-0.1-4-0.1-5-0.1c0.8-0.6,2-1.5,3.9-3l0.2-0.2l-0.1-0.3c-0.6-1.6-1.3-3.8-1.8-5.1c0.8,0.6,2.1,1.6,4.4,3.1
			l0.2,0.2l0.3-0.2c2.1-1.5,3.4-2.4,4.2-3c-0.3,1-0.8,2.5-1.6,5l-0.1,0.3l4.2,3.2l-5.3,0.1V349.4z"/>
		<path fill="#006B3F" d="M444.4,257.7l-0.2,0.2c-1.9,1.5-3.1,2.5-3.9,3c1,0,2.5,0,5,0.1l0.3,0l1.6,4.9c0.7-2,1.5-4.3,1.6-4.7v-0.4
			l5.3-0.1l-4.2-3.2l0.1-0.3c0.8-2.5,1.3-4,1.6-5c-0.8,0.6-2.2,1.5-4.2,3l-0.2,0.2l-0.2-0.2c-2.2-1.6-3.6-2.5-4.4-3.1
			c0.5,1.4,1.2,3.5,1.8,5.1L444.4,257.7z"/>
		<path d="M438.7,261.8c0.1,0,0.1,0.1,0.3,0l0,0c0.3,0,3.7,0,5.9,0.1l2.2,6.8l0.4-1.2c1.3-3.7,1.8-5.1,2-5.7l7.1-0.1l-5.7-4.3
			c0.7-2.3,1.8-5.6,1.9-5.9l0,0c0.1-0.2,0.1-0.2,0.1-0.3l-0.1-0.3h-0.3c-0.1,0-0.2,0-0.3,0.1l0,0c-0.2,0.2-3.1,2.2-5.1,3.6
			c-1.9-1.4-4.7-3.4-5.1-3.7l-0.2-0.3l-0.4,0.2c-0.2,0.1-0.3,0.1-0.2,0.6l-0.1,0c0,0,0,0.1,0.1,0.1c0.2,0.8,0.8,2.4,2.1,6.1
			c-1.8,1.4-4.4,3.4-4.7,3.6c-0.1,0-0.1,0-0.1,0.1l-0.1,0.1l0,0.5L438.7,261.8z M446.9,255.4l0.2,0.2l0.2-0.2c2.1-1.5,3.4-2.4,4.2-3
			c-0.3,1-0.8,2.5-1.6,5l-0.1,0.3l4.2,3.2l-5.3,0.1v0.4c-0.1,0.4-0.9,2.7-1.6,4.7l-1.6-4.9l-0.3,0c-2.5-0.1-4-0.1-5-0.1
			c0.8-0.6,2-1.5,3.9-3l0.2-0.2l-0.1-0.3c-0.6-1.6-1.3-3.8-1.8-5.1C443.3,252.8,444.7,253.8,446.9,255.4z"/>
		<path fill="#006B3F" d="M468.2,311l0.1-0.3c0.8-2.5,1.3-4,1.6-5c-0.8,0.6-2.2,1.5-4.2,3l-0.3,0.2l-0.2-0.2
			c-2.2-1.6-3.6-2.5-4.4-3.1c0.5,1.4,1.2,3.5,1.8,5.1l0.1,0.3l-0.2,0.2c-1.9,1.5-3.1,2.5-3.9,3c1,0,2.5,0,5,0.1l0.3,0l1.6,4.9
			c0.7-2,1.5-4.3,1.6-4.7v-0.4l5.3-0.1L468.2,311z"/>
		<path d="M471.1,304.7L471.1,304.7c0.1-0.2,0.1-0.2,0-0.3l-0.1-0.3h-0.3c-0.1,0-0.2,0-0.3,0.1l0,0c-0.2,0.2-3.1,2.2-5.1,3.6
			c-1.9-1.4-4.7-3.4-5.1-3.7l-0.2-0.3l-0.4,0.2c-0.2,0.1-0.3,0.1-0.2,0.6l-0.1,0c0,0,0,0.1,0.1,0.1c0.2,0.8,0.8,2.4,2.1,6.1
			c-1.8,1.4-4.4,3.4-4.7,3.6c-0.1,0-0.1,0-0.1,0.1l-0.1,0.1l0,0.5l0.2,0.1c0.1,0,0.1,0.1,0.3,0l0,0c0.3,0,3.7,0,5.9,0.1l2.2,6.8
			l0.4-1.2c1.3-3.7,1.8-5.1,2-5.7l7.1-0.1l-5.7-4.3C469.9,308.4,471,305,471.1,304.7z M467,314.6c-0.1,0.4-0.9,2.7-1.6,4.7l-1.6-4.9
			l-0.3,0c-2.5-0.1-4-0.1-5-0.1c0.8-0.6,2-1.5,3.9-3l0.2-0.2l-0.1-0.3c-0.6-1.6-1.3-3.8-1.8-5.1c0.8,0.6,2.1,1.6,4.4,3.1l0.2,0.2
			l0.3-0.2c2.1-1.5,3.4-2.4,4.2-3c-0.3,1-0.8,2.5-1.6,5l-0.1,0.3l4.2,3.2l-5.3,0.1V314.6z"/>
		<path fill="#006B3F" d="M384.8,252.9c0.5,1.4,1.2,3.5,1.8,5.1l0.1,0.3l-0.2,0.2c-1.9,1.5-3.1,2.5-3.9,3c1,0,2.5,0,5,0.1l0.3,0
			l1.6,4.9c0.7-2,1.5-4.3,1.6-4.7v-0.4l5.3-0.1l-4.2-3.2l0.1-0.3c0.8-2.5,1.3-4,1.6-5c-0.8,0.6-2.2,1.5-4.2,3l-0.3,0.2l-0.2-0.2
			C387,254.4,385.7,253.5,384.8,252.9z"/>
		<path d="M381,262.4c0.1,0,0.1,0.1,0.3,0l0,0c0.3,0,3.7,0,5.9,0.1l2.2,6.8l0.4-1.2c1.3-3.7,1.8-5.1,2-5.7l7.1-0.1l-5.7-4.3
			c0.7-2.3,1.8-5.6,1.9-5.9l0,0c0.1-0.2,0.1-0.2,0.1-0.3l-0.1-0.3h-0.3c-0.1,0-0.2,0-0.3,0.1l0,0c-0.2,0.2-3.1,2.2-5.1,3.6
			c-1.9-1.4-4.7-3.4-5.1-3.7l-0.2-0.3l-0.4,0.2c-0.2,0.1-0.3,0.1-0.2,0.6l-0.1,0c0,0,0,0.1,0.1,0.1c0.2,0.8,0.8,2.4,2.1,6.1
			c-1.8,1.4-4.4,3.4-4.7,3.6c-0.1,0-0.1,0-0.1,0.1l-0.1,0.1l0,0.5L381,262.4z M389.5,256.2l0.3-0.2c2.1-1.5,3.4-2.4,4.2-3
			c-0.3,1-0.8,2.5-1.6,5l-0.1,0.3l4.2,3.2l-5.3,0.1v0.4c-0.1,0.4-0.9,2.7-1.6,4.7l-1.6-4.9l-0.3,0c-2.5-0.1-4-0.1-5-0.1
			c0.8-0.6,2-1.5,3.9-3l0.2-0.2l-0.1-0.3c-0.6-1.6-1.3-3.8-1.8-5.1c0.8,0.6,2.1,1.6,4.4,3.1L389.5,256.2z"/>
		<path fill="#006B3F" d="M372.3,287.3l0.2,0.2c2.2,1.6,3.6,2.5,4.4,3.1c-0.5-1.4-1.2-3.5-1.8-5.1l-0.1-0.3l0.2-0.2
			c1.9-1.5,3.1-2.5,3.9-3c-1,0-2.5,0-5-0.1l-0.3,0l-1.6-4.9c-0.7,2-1.5,4.3-1.6,4.7v0.4l-2.4,0l-0.9,1.6l2.2,1.7l-0.1,0.3
			c-0.2,0.5-0.3,1-0.5,1.5l1.5,0.7l0.6,0.6c0.3-0.2,0.7-0.5,1.1-0.8L372.3,287.3z M375.6,283.8h-0.3H375.6z"/>
		<path d="M377.4,292.1l0.2,0.3l0.4-0.2c0.2-0.1,0.3-0.1,0.2-0.6l0.1,0c0,0,0-0.1-0.1-0.1c-0.2-0.8-0.8-2.4-2.1-6.1
			c1.8-1.4,4.4-3.4,4.7-3.6c0.1,0,0.1,0,0.1-0.1l0.1-0.1l0-0.5l-0.2-0.1c-0.1,0-0.1-0.1-0.3,0l0,0c-0.3,0-3.7,0-5.9-0.1l-2.2-6.8
			l-0.4,1.2c-1.3,3.7-1.8,5.1-2,5.7l-1.2,0l0,0.1l-0.5,0.8l2.4,0v-0.4c0.1-0.4,0.9-2.7,1.6-4.7l1.6,4.9l0.3,0c2.5,0.1,4,0.1,5,0.1
			c-0.8,0.6-2,1.5-3.9,3l-0.2,0.2l0.1,0.3c0.6,1.6,1.3,3.8,1.8,5.1c-0.8-0.6-2.1-1.6-4.4-3.1l-0.2-0.2l-0.3,0.2
			c-0.4,0.3-0.7,0.5-1.1,0.8l0.6,0.6c0.2-0.2,0.5-0.3,0.7-0.5C374.2,289.7,377,291.7,377.4,292.1z"/>
		<path d="M369.4,285.1l-2.2-1.7l0,0l0,1l1.2,0.9c-0.1,0.3-0.2,0.6-0.3,0.8l0.3,0.4l0.4,0.2c0.1-0.5,0.3-0.9,0.5-1.5L369.4,285.1z"
			/>
		<path d="M398.9,335l0.1-0.1l0-0.5l-0.2-0.1c-0.1,0-0.1-0.1-0.3,0l0,0c-0.1,0-0.2,0-0.4,0l0.4,0.7l0,0.3c0.1-0.1,0.3-0.2,0.3-0.2
			C398.9,335.1,398.9,335,398.9,335z"/>
		<path fill="#006B3F" d="M469.7,289.2c-0.5-1.4-1.2-3.5-1.8-5.1l-0.1-0.3l0.2-0.2c1.9-1.5,3.1-2.5,3.9-3c-1,0-2.5,0-5-0.1l-0.3,0
			l-1.6-4.9c-0.7,2-1.5,4.3-1.6,4.7v0.4l-5.3,0.1l4.2,3.2l-0.1,0.3c-0.8,2.5-1.3,4-1.6,5c0.8-0.6,2.1-1.5,4.2-3l0.3-0.2l0.2,0.2
			C467.5,287.6,468.8,288.6,469.7,289.2z"/>
		<path d="M473.5,280.4c0.1,0,0.1,0,0.1-0.1l0.1-0.1l0-0.5l-0.2-0.1c-0.1,0-0.1-0.1-0.3,0v0c-0.3,0-3.7,0-5.9-0.1l-2.2-6.8l-0.4,1.2
			c-1.3,3.7-1.8,5.1-2,5.7l-7.1,0.1l5.7,4.3c-0.7,2.3-1.8,5.6-1.9,5.9l0,0c-0.1,0.2-0.1,0.2-0.1,0.3l0.1,0.3h0.3
			c0.1,0,0.2,0,0.3-0.1l0,0c0.2-0.2,3.1-2.2,5.1-3.6c1.9,1.4,4.7,3.4,5.1,3.7l0.2,0.3l0.4-0.2c0.2-0.1,0.3-0.1,0.2-0.6l0.1,0
			c0,0,0-0.1-0.1-0.1c-0.2-0.8-0.8-2.4-2.1-6.1C470.5,282.7,473.1,280.6,473.5,280.4z M465,285.9l-0.3,0.2c-2.1,1.5-3.4,2.4-4.2,3
			c0.3-1,0.8-2.5,1.6-5l0.1-0.3l-4.2-3.2l5.3-0.1v-0.4c0.1-0.4,0.9-2.7,1.6-4.7l1.6,4.9l0.3,0c2.5,0.1,4,0.1,5,0.1
			c-0.8,0.6-2,1.5-3.9,3l-0.2,0.2l0.1,0.3c0.6,1.6,1.3,3.8,1.8,5.1c-0.8-0.6-2.1-1.6-4.4-3.1L465,285.9z"/>
		<path fill="#006B3F" d="M452.8,343.3c-0.5-1.4-1.2-3.5-1.8-5.1l-0.1-0.3l0.2-0.2c1.9-1.5,3.1-2.5,3.9-3c-1,0-2.5,0-5-0.1l-0.3,0
			l-1.6-4.9c-0.7,2-1.5,4.3-1.6,4.7v0.4l-5.3,0.1l4.2,3.2l-0.1,0.3c-0.8,2.5-1.3,4-1.6,5c0.8-0.6,2.2-1.5,4.2-3l0.3-0.2l0.2,0.2
			C450.6,341.7,452,342.7,452.8,343.3z"/>
		<path d="M456.6,333.8c-0.1,0-0.1-0.1-0.3,0l0,0c-0.3,0-3.7,0-5.9-0.1l-2.2-6.8l-0.4,1.2c-1.3,3.7-1.8,5.1-2,5.7l-7.1,0.1l5.7,4.3
			c-0.7,2.3-1.8,5.6-1.9,5.9l0,0c-0.1,0.2-0.1,0.2-0.1,0.3l0.1,0.3h0.3c0.1,0,0.2,0,0.3-0.1l0,0c0.2-0.2,3.1-2.2,5.1-3.6
			c1.9,1.4,4.7,3.4,5.1,3.8l0.2,0.3l0.4-0.2c0.2-0.1,0.3-0.1,0.2-0.6l0.1,0c0,0,0-0.1-0.1-0.1c-0.2-0.8-0.8-2.4-2.1-6.1
			c1.8-1.4,4.4-3.4,4.7-3.6c0.1,0,0.1,0,0.1-0.1l0.1-0.1l0-0.5L456.6,333.8z M448.1,340l-0.3,0.2c-2.1,1.5-3.4,2.4-4.2,3
			c0.3-1,0.8-2.5,1.6-5l0.1-0.3l-4.2-3.2l5.3-0.1v-0.4c0.1-0.4,0.9-2.7,1.6-4.7l1.6,4.9l0.3,0c2.5,0.1,4,0.1,5,0.1
			c-0.8,0.6-2,1.5-3.9,3l-0.2,0.2l0.1,0.3c0.6,1.6,1.3,3.8,1.8,5.1c-0.8-0.6-2.1-1.6-4.4-3.1L448.1,340z"/>

			<line fill="none" stroke="#009543" stroke-width="0" stroke-linecap="round" stroke-linejoin="round" x1="375.6" y1="283.8" x2="375.3" y2="283.8"/>

			<line fill="none" stroke="#009543" stroke-width="0" stroke-linecap="round" stroke-linejoin="round" x1="415.2" y1="385.8" x2="414.9" y2="385.8"/>

			<line fill="none" stroke="#009543" stroke-width="0" stroke-linecap="round" stroke-linejoin="round" x1="460.2" y1="311.1" x2="460.5" y2="311.1"/>

			<line fill="none" stroke="#009543" stroke-width="0" stroke-linecap="round" stroke-linejoin="round" x1="407.9" y1="266.4" x2="408.2" y2="266.4"/>

			<line fill="none" stroke="#009543" stroke-width="0" stroke-linecap="round" stroke-linejoin="round" x1="427.2" y1="206.2" x2="427.5" y2="206.2"/>
		<path fill="#006B3F" d="M428.3,331.4c0,0.4-0.2,0.8-0.6,1c0.3,0.6,0.6,1.1,1,1.4c0.1,0.1,0.2,0.2,0.3,0.2c-0.3-1.1-0.7-2.4-1-3.9
			c-0.2,0-0.3,0-0.5,0C428,330.3,428.2,330.8,428.3,331.4z"/>
		<path d="M429,333.9c-0.1,0-0.2-0.1-0.3-0.2c-0.3-0.3-0.7-0.8-1-1.4c-0.2,0.1-0.4,0.2-0.6,0.2c0.4,0.8,0.8,1.3,1.2,1.7
			c0.3,0.3,0.6,0.4,0.9,0.4c0,0,0,0,0,0C429.2,334.4,429.1,334.2,429,333.9z"/>
		<path fill="#006B3F" d="M433.2,333.9c0.7-0.3,1.3-1.8,1.8-4.2c-0.4,0-0.8,0.1-1.4,0.1C433.6,331.3,433.4,332.7,433.2,333.9z"/>
		<path fill="#006B3F" d="M433.8,324.8c0.1,0,0.3,0,0.4,0c0.2,0,0.3-0.1,0.5-0.1c0.3,0,0.6,0.1,0.9,0.2c0.1-0.9,0.1-1.9,0.1-3
			c-0.5-1.1-1.2-2.1-2-3.4C433.8,320.5,433.8,322.7,433.8,324.8z"/>
		<path d="M435.7,329.5c-0.2,0-0.4,0.1-0.7,0.1c-0.5,2.4-1.1,3.9-1.8,4.2c0,0.2-0.1,0.5-0.1,0.7c0,0,0,0,0,0
			C434.4,334.5,435.2,332.5,435.7,329.5z"/>
		<path d="M435.7,321.9c0,1.1-0.1,2.1-0.1,3c0,0,0.1,0,0.1,0c0.3,0.1,0.4,0.1,0.6,0.2c0-0.6,0.1-1.3,0.1-2
			C436.1,322.8,435.9,322.3,435.7,321.9z"/>
		<path fill="#006B3F" d="M428.7,330c0.8,3.8,1.7,6.2,2.4,6.9c0.1,0.1,0.2,0.1,0.3,0.1c0.7-0.1,1.4-2.7,1.7-7.2
			C431.8,329.9,430.3,329.9,428.7,330z"/>
		<path fill="#006B3F" d="M433.2,324.7c0-2.2-0.1-4.6-0.2-7.2c-0.3-0.4-0.5-0.7-0.9-1.1c0,0,0,0-0.1,0c0,0.1,0,0.1,0,0.2
			c-0.2,2.6-1.2,4.5-2.4,4.5c0,0,0,0,0,0c-0.2,0-0.3,0-0.5-0.1c-0.1,1.1-0.4,2-0.8,2.7c0,0,0,0,0,0c0,0.4-0.1,0.7-0.3,0.9
			C430.3,324.7,431.9,324.7,433.2,324.7z"/>
		<path d="M433.2,333.9c0.2-1.2,0.3-2.6,0.4-4.1c-0.2,0-0.4,0-0.7,0c-0.3,4.5-1,7.1-1.7,7.2c-0.1,0-0.2,0-0.3-0.1
			c-0.7-0.6-1.6-3-2.4-6.9c-0.2,0-0.4,0-0.6,0c0.3,1.5,0.6,2.8,1,3.9c0.1,0.2,0.2,0.5,0.2,0.7c0.5,1.4,1,2.3,1.4,2.7
			c0.2,0.2,0.4,0.3,0.7,0.3c0,0,0.1,0,0.1,0c0.8-0.1,1.3-1.2,1.7-3C433.2,334.4,433.2,334.1,433.2,333.9z"/>
		<path d="M433.2,324.7c0.2,0,0.4,0,0.6,0c0-2.1-0.1-4.2-0.2-6.3c-0.2-0.3-0.5-0.7-0.7-1C433.1,320.1,433.2,322.6,433.2,324.7z"/>
		<path fill="#9C4A00" d="M409.2,325.8c-0.8,0-0.9-0.7-0.9-1.2c-0.1-0.4-0.1-0.9-0.4-1.3c-0.6-1-2.8-1.6-4.3-0.7
			c-0.5,0.3-0.7,0.7-0.9,1.2c-0.3,0.7-0.6,1.5-2.4,1.7c0.4,0.9,1.6,3.2,2.4,3.8c0.6,0.3,6.1,0.4,12.5,0.4c-0.3-0.6-0.5-1.3-0.5-2
			c0-0.7,0.3-1.3,0.6-1.9c-1.1,0-2.3,0.1-3.5,0.1C410.3,325.8,409.4,325.8,409.2,325.8z"/>
		<path fill="#9C4A00" d="M433.2,329.2c-0.1-0.1-0.2-0.1-0.3-0.2c-0.5-0.5-0.7-1.1-0.7-1.8c0-0.7,0.3-1.4,0.8-1.8
			c-1.4,0-3.4,0-5.9,0c-0.2,0.1-0.5,0.2-0.7,0.3c-0.9,0.4-1.8,0.8-1.9,1.9c0,1.1,0.8,1.4,1.7,1.8c0,0,0.1,0,0.1,0
			C429.1,329.3,431.5,329.3,433.2,329.2z"/>
		<path d="M435.7,324.9c0.3,0.1,0.5,0.3,0.7,0.5c0.5,0.5,0.7,1.1,0.7,1.8c0,1.3-1.1,2.4-2.5,2.4c0,0,0,0,0,0c-0.5,0-1-0.2-1.4-0.5
			c-1.7,0.1-4.1,0.2-6.8,0.2c0.4,0.2,0.8,0.4,1.2,0.6c0.2,0,0.3,0,0.5,0c0.2,0,0.4,0,0.6,0c1.6-0.1,3.1-0.1,4.3-0.2
			c0.2,0,0.5,0,0.7,0c0.5,0,1-0.1,1.4-0.1c0.3,0,0.5-0.1,0.7-0.1c0.4-0.1,0.6-0.1,0.7-0.2c0.4-0.3,0.7-0.9,0.7-1.6
			c0.1-0.9-0.3-1.9-0.8-2.6c0,0-0.1-0.1-0.1-0.1C436.1,325.1,435.9,325,435.7,324.9z"/>
		<path d="M415.2,329.5c-6.4,0-11.9-0.1-12.5-0.4c-0.8-0.6-2-2.9-2.4-3.8c1.8-0.2,2.1-1,2.4-1.7c0.2-0.5,0.3-0.9,0.9-1.2
			c1.5-0.8,3.7-0.3,4.3,0.7c0.3,0.5,0.3,0.9,0.4,1.3c0.1,0.5,0.1,1.2,0.9,1.2c0.2,0,1.1,0,2.5-0.1c1.2,0,2.3-0.1,3.5-0.1
			c0.1-0.2,0.3-0.5,0.4-0.7c-1.2,0-2.5,0.1-3.9,0.1c-1.4,0-2.3,0.1-2.5,0.1c-0.2,0-0.2,0-0.3-0.6c-0.1-0.4-0.1-1-0.5-1.6
			c-0.8-1.3-3.4-2-5.2-1c-0.8,0.4-1,1-1.2,1.5c-0.3,0.7-0.4,1.2-2.3,1.3l-0.3,0l0,0.3c0,0.4,1.7,3.8,2.8,4.6
			c0.5,0.4,6.1,0.5,12.7,0.5c0.2,0,0.4,0,0.5,0C415.4,330,415.3,329.8,415.2,329.5z"/>
		<path d="M433.1,325.4c0.3-0.3,0.7-0.5,1.1-0.6c-0.1,0-0.2,0-0.4,0c-0.2,0-0.4,0-0.6,0c-1.2,0-2.9-0.1-5.2-0.1
			c-0.2,0.3-0.5,0.5-0.9,0.7C429.6,325.3,431.6,325.3,433.1,325.4z"/>
		<path fill="#FCD116" d="M418,323.7c-1.3,0.7-2.6,2-2.7,3.8c0,2.6,2.9,4.3,4.5,4.5c-1.6-0.9-3-2.4-3-4.4c0.1-1.4,0.8-2.6,1.8-3.4
			c-0.1-0.1-0.2-0.1-0.4-0.2C418.1,323.9,418.1,323.8,418,323.7z"/>
		<path d="M419.8,332c-1.6-0.1-4.5-1.8-4.5-4.5c0.1-1.8,1.4-3.1,2.7-3.8c-0.1-0.1-0.3-0.3-0.4-0.5c-0.7,0.4-1.4,1-2,1.7
			c-0.2,0.2-0.3,0.4-0.4,0.7c-0.3,0.6-0.5,1.2-0.6,1.9c0,0.7,0.2,1.4,0.5,2c0.1,0.2,0.3,0.4,0.4,0.7c1.1,1.5,3,2.4,4.4,2.5
			c0,0,0,0,0.1,0c0.3,0,0.6-0.1,0.9-0.2C420.5,332.3,420.2,332.2,419.8,332z"/>
		<path fill="#FCD116" d="M420.8,323.5c-0.3,0.1-0.6,0.3-0.9,0.4c-0.1,0.1-0.2,0.2-0.3,0.2c-1.1,0.8-2,1.9-2.1,3.5
			c0,2.7,3,4.4,4.7,4.5c0.1,0,0.1,0,0.2,0c-1.6-0.8-3.2-2.5-3.2-4.6c0.1-1.5,0.9-2.7,1.9-3.6C421,323.8,420.9,323.6,420.8,323.5z"/>
		<path d="M422.4,332c-0.1,0-0.1,0-0.2,0c-1.6,0-4.6-1.8-4.7-4.5c0.1-1.5,1-2.7,2.1-3.5c-0.1,0-0.2,0.1-0.3,0.1c-0.1,0-0.1,0-0.2,0
			c-0.2,0-0.3,0-0.5-0.1c-1,0.9-1.7,2.1-1.8,3.4c0,2,1.4,3.6,3,4.4c0.3,0.2,0.7,0.3,1,0.5c0.4,0.1,0.9,0.2,1.3,0.2c0,0,0,0,0.1,0
			c0.4,0,0.8-0.1,1.1-0.3C423,332.3,422.7,332.2,422.4,332z"/>
		<path d="M420.5,323c-0.2,0.4-0.4,0.7-0.6,0.9c0.3-0.2,0.6-0.3,0.9-0.4C420.7,323.3,420.6,323.2,420.5,323z"/>
		<path fill="#FCD116" d="M422.3,324.5c-0.2,0-0.5-0.1-0.7-0.2c-0.9,0.8-1.7,1.8-1.8,3.2c0,2.6,2.9,4.3,4.5,4.5
			c-1.6-0.9-3-2.4-3-4.4c0.1-1.2,0.7-2.3,1.5-3.1c-0.1,0.1-0.2,0.1-0.3,0.1C422.4,324.5,422.3,324.5,422.3,324.5z"/>
		<path d="M424.3,331.9c-1.6-0.1-4.5-1.8-4.5-4.5c0.1-1.4,0.8-2.5,1.8-3.2c-0.1,0-0.1-0.1-0.2-0.1c-0.1-0.1-0.2-0.2-0.3-0.3
			c-1,0.9-1.8,2.1-1.9,3.6c0,2.1,1.6,3.7,3.2,4.6c0.3,0.1,0.6,0.3,0.9,0.4c0.4,0.1,0.8,0.2,1.2,0.2c0,0,0,0,0.1,0
			c0.3,0,0.6-0.1,0.9-0.2C425,332.3,424.7,332.1,424.3,331.9z"/>
		<path fill="#FCD116" d="M425.6,324.5c-0.2-0.2-0.4-0.6-0.6-1c-1.4,0.7-2.9,2-3.1,4c0,2.7,3,4.4,4.7,4.5c0.6,0,0.9-0.2,0.9-0.6
			c0-0.7-0.6-1-1.6-1.4c-1-0.4-2.2-0.9-2.1-2.5c0-1.5,1.3-2.1,2.3-2.5c0.1,0,0.1-0.1,0.2-0.1C426.1,324.9,425.9,324.7,425.6,324.5z"
			/>
		<path d="M427.7,332.4c0.3-0.2,0.5-0.5,0.6-1c0-0.6-0.3-1.1-0.7-1.4c-0.3-0.3-0.8-0.4-1.2-0.6c0,0-0.1,0-0.1,0
			c-1-0.4-1.8-0.8-1.7-1.8c0-1.1,0.9-1.5,1.9-1.9c0.2-0.1,0.5-0.2,0.7-0.3c0.3-0.2,0.6-0.4,0.9-0.7c0.2-0.2,0.3-0.5,0.3-0.9
			c0,0,0,0,0,0c-0.4,0.8-1,1.3-1.6,1.3c0,0,0,0,0,0c-0.1,0-0.1,0-0.2,0c-0.1,0-0.1,0.1-0.2,0.1c-1,0.4-2.2,0.9-2.3,2.5
			c0,1.5,1.2,2,2.1,2.5c1,0.4,1.5,0.7,1.6,1.4c0,0.4-0.3,0.6-0.9,0.6c-1.6,0-4.6-1.8-4.7-4.5c0.1-2,1.6-3.3,3.1-4
			c0-0.1-0.1-0.2-0.1-0.3c-0.4,0.6-0.9,0.9-1.4,0.9c0,0,0,0,0,0c-0.1,0-0.2,0-0.3-0.1c-0.1,0.1-0.2,0.2-0.4,0.3
			c-0.8,0.8-1.4,1.9-1.5,3.1c0,2,1.4,3.6,3,4.4c0.3,0.2,0.7,0.3,1,0.5c0.4,0.1,0.9,0.2,1.3,0.2c0,0,0,0,0.1,0c0.1,0,0.3,0,0.4-0.1
			C427.3,332.5,427.5,332.5,427.7,332.4z"/>
		<path fill="#9C4A00" d="M433.4,328.5c0.3,0.3,0.8,0.5,1.2,0.5c1,0,1.8-0.8,1.8-1.8c0-0.5-0.2-1-0.5-1.3c-0.3-0.3-0.8-0.5-1.2-0.5
			c0,0,0,0,0,0c-1,0-1.8,0.8-1.8,1.8C432.9,327.7,433,328.1,433.4,328.5z"/>
		<path d="M434.2,324.8c-0.4,0.1-0.8,0.3-1.1,0.6c-0.5,0.4-0.8,1.1-0.8,1.8c0,0.7,0.2,1.3,0.7,1.8c0.1,0.1,0.2,0.2,0.3,0.2
			c0.4,0.3,0.9,0.5,1.4,0.5c0,0,0,0,0,0c1.3,0,2.4-1.1,2.5-2.4c0-0.7-0.2-1.3-0.7-1.8c-0.2-0.2-0.5-0.4-0.7-0.5c0,0-0.1,0-0.1,0
			c-0.3-0.1-0.6-0.2-0.9-0.2C434.5,324.7,434.4,324.7,434.2,324.8z M434.7,325.4C434.7,325.4,434.7,325.4,434.7,325.4
			c0.5,0,0.9,0.2,1.3,0.5c0.3,0.3,0.5,0.8,0.5,1.3c0,1-0.8,1.8-1.8,1.8c-0.5,0-0.9-0.2-1.2-0.5c-0.3-0.3-0.5-0.8-0.5-1.3
			C432.9,326.2,433.7,325.4,434.7,325.4z"/>
		<path fill="#006B3F" d="M421.8,323.6c0.2,0.2,0.4,0.2,0.6,0.2c0.1,0,0.2-0.1,0.2-0.1c0,0-0.1,0-0.1-0.1c-0.7-0.8-1-2.3-0.9-4
			c-0.1,0-0.2-0.1-0.3-0.2c-0.1,0.2-0.2,0.3-0.3,0.4c0,0.8,0,1.5-0.2,2.2C421.1,322.8,421.4,323.4,421.8,323.6z"/>
		<path d="M422.6,323.7c-0.1,0-0.2,0.1-0.2,0.1c-0.2,0-0.4,0-0.6-0.2c-0.4-0.3-0.7-0.8-1-1.5c-0.1,0.3-0.2,0.6-0.3,0.9
			c0.1,0.2,0.2,0.3,0.2,0.4c0.1,0.2,0.2,0.3,0.3,0.4c0.1,0.1,0.2,0.2,0.3,0.3c0.1,0,0.1,0.1,0.2,0.1c0.2,0.1,0.5,0.2,0.7,0.2
			c0.1,0,0.1,0,0.2,0c0.1,0,0.2-0.1,0.3-0.1c0.1-0.1,0.3-0.2,0.4-0.3C423,324,422.8,323.9,422.6,323.7z"/>
		<path fill="#006B3F" d="M420.1,320.4c-0.3,0-0.5-0.1-0.8-0.3c-0.4-0.3-0.7-0.8-1-1.4c-0.3,0.7-0.6,1.1-1.1,1.3
			c0.2,1.5,0.7,2.8,1.4,3.3c0.2,0.2,0.4,0.2,0.6,0.2c0.6-0.1,1.2-1.4,1.2-3.2c0,0-0.1,0-0.1,0C420.2,320.4,420.2,320.4,420.1,320.4z
			"/>
		<path d="M418,323.7c0.1,0.1,0.1,0.1,0.2,0.2c0.1,0.1,0.2,0.2,0.4,0.2c0.2,0.1,0.3,0.1,0.5,0.1c0.1,0,0.1,0,0.2,0
			c0.1,0,0.2-0.1,0.3-0.1c0.1-0.1,0.2-0.1,0.3-0.2c0.2-0.2,0.4-0.5,0.6-0.9c0.1-0.3,0.2-0.6,0.3-0.9c0.1-0.6,0.2-1.4,0.2-2.2
			c-0.2,0.2-0.4,0.3-0.6,0.4c0,1.8-0.6,3.1-1.2,3.2c-0.2,0-0.4,0-0.6-0.2c-0.7-0.5-1.2-1.8-1.4-3.3c-0.1,0-0.2,0.1-0.3,0.1
			c-0.1,0-0.1,0-0.2,0c-0.1,0-0.1,0-0.2,0c0.1,1.2,0.5,2.3,1,3.1C417.7,323.4,417.9,323.6,418,323.7z"/>
		<path fill="#006B3F" d="M417.6,315.8c0,0,0-0.1,0-0.1c-0.3-0.2-0.5-0.4-0.8-0.7c-0.2,0.1-0.3,0.2-0.5,0.2c-0.1,0-0.1,0-0.2,0
			c-0.3,0-0.6-0.1-0.8-0.3c-0.1-0.1-0.3-0.2-0.4-0.4c0,0.4,0,0.9,0,1.4c0.2,1.5,0.7,2.9,1.4,3.4c0.2,0.2,0.4,0.2,0.6,0.2
			c0.5-0.1,0.9-0.7,1.1-1.8C417.8,317.1,417.7,316.5,417.6,315.8z"/>
		<path d="M417,320.1c0.1,0,0.2-0.1,0.3-0.1c0.5-0.2,0.8-0.6,1.1-1.3c-0.1-0.3-0.3-0.7-0.4-1c-0.2,1-0.6,1.7-1.1,1.8
			c-0.2,0-0.4,0-0.6-0.2c-0.7-0.5-1.2-1.8-1.4-3.4c-0.1-0.5-0.1-0.9,0-1.4c-0.2-0.2-0.4-0.5-0.5-0.9c-0.1,0.7-0.2,1.5-0.1,2.3
			c0.2,1.7,0.8,3.2,1.6,3.8c0.2,0.2,0.4,0.2,0.7,0.3c0.1,0,0.1,0,0.2,0C416.9,320.2,416.9,320.2,417,320.1z"/>
		<path fill="#006B3F" d="M418.3,316.3c0.3,1.7,0.9,2.9,1.4,3.3c0.2,0.1,0.3,0.2,0.4,0.2c0.2,0,0.5-0.3,0.7-0.7
			c-0.3-0.4-0.5-0.9-0.6-1.4c-0.4-0.2-0.9-0.6-1.6-1.1C418.5,316.5,418.4,316.4,418.3,316.3z"/>
		<path d="M421.3,319.5c-0.1-0.1-0.2-0.2-0.3-0.3c-0.1-0.1-0.1-0.2-0.2-0.2c-0.2,0.4-0.4,0.7-0.7,0.7c-0.1,0-0.3,0-0.4-0.2
			c-0.5-0.4-1.1-1.5-1.4-3.3c-0.1,0-0.1-0.1-0.2-0.1c-0.1-0.1-0.3-0.3-0.4-0.4c0,0-0.1-0.1-0.1-0.1c0,0,0,0.1,0,0.1
			c0.1,0.7,0.2,1.3,0.4,1.9c0.1,0.4,0.2,0.7,0.4,1c0.3,0.6,0.6,1.1,1,1.4c0.3,0.2,0.5,0.3,0.8,0.3c0.1,0,0.1,0,0.2,0
			c0,0,0.1,0,0.1,0c0.2-0.1,0.4-0.2,0.6-0.4C421.1,319.8,421.2,319.7,421.3,319.5z"/>
		<path d="M418.2,316.3c0.1,0,0.1,0.1,0.2,0.1c0.1,0.1,0.2,0.1,0.3,0.1c-0.3-0.2-0.6-0.4-0.9-0.7C417.9,316,418,316.1,418.2,316.3z"
			/>
		<path fill="#006B3F" d="M414.9,313.3c0.2,0.5,0.5,0.9,0.8,1.1c0.2,0.1,0.3,0.2,0.5,0.2c0,0,0,0,0.1,0
			C415.8,314.2,415.4,313.8,414.9,313.3z"/>
		<path d="M414.9,314.6c0.1,0.2,0.3,0.3,0.4,0.4c0.3,0.2,0.5,0.3,0.8,0.3c0.1,0,0.1,0,0.2,0c0.2,0,0.3-0.1,0.5-0.2
			c-0.2-0.1-0.3-0.3-0.5-0.5c0,0,0,0-0.1,0c-0.2,0-0.3,0-0.5-0.2c-0.3-0.2-0.5-0.6-0.8-1.1c-0.3-0.3-0.7-0.7-1.1-1.1
			c0.1,0.5,0.3,1,0.5,1.4C414.5,314,414.7,314.3,414.9,314.6z"/>
		<path fill="#9461C9" d="M420.1,315.2c0.1-0.8,0.2-1.6,0.5-2.3c-0.2-0.8-0.3-1.7-0.2-2.8c0.2-2.1,0.9-3.8,1.8-4.3
			c-0.5-0.9-0.9-1.9-1.4-2.9c-2.2-5.1-3.3-10-3.2-13.4c-0.4-2.6-0.4-4.8,0-6.4c-1-0.3-1.8-1.2-1.8-2.3c0-0.1,0-0.1,0-0.2
			c-0.1,0-0.3,0-0.4,0c0,0,0,0-0.1,0c-0.6,0-1.1-0.2-1.5-0.4c-0.4,0.3-1,0.6-1.5,0.6c0,0,0,0,0,0c-0.9,0-1.7-0.6-2.1-1.3
			c-1.6,3.2-3.2,8.4-2.8,16.3c0.6,12.2,9.7,19.1,12.8,21.1C420.1,316.2,420.1,315.7,420.1,315.2z"/>
		<path d="M414.9,313.3c0.5,0.4,0.9,0.9,1.3,1.2c0.2,0.2,0.4,0.3,0.5,0.5c0.3,0.2,0.6,0.5,0.8,0.7c0.1,0,0.1,0.1,0.1,0.1
			c0.3,0.2,0.6,0.5,0.9,0.7c0.7,0.5,1.2,0.8,1.6,1.1c-0.1-0.3-0.1-0.6-0.1-0.9c-3.1-2-12.2-9-12.8-21.1c-0.4-7.9,1.3-13.1,2.8-16.3
			c-0.2-0.3-0.2-0.6-0.3-1c-1.7,3.1-3.7,8.6-3.2,17.3c0.4,7.4,3.8,12.9,7.2,16.6C414.2,312.6,414.6,313,414.9,313.3z"/>
		<path fill="#006B3F" d="M427.9,319.1c-0.2,0.1-0.3,0.1-0.5,0.1c0,0,0,0,0,0c-0.2,0-0.4-0.1-0.6-0.2c-0.2,0.5-0.5,1-0.9,1.2
			c-0.1,0.8-0.3,1.5-0.5,2.1c0.1,0.7,0.4,1.3,0.7,1.7c0.2,0.2,0.3,0.3,0.5,0.3c0,0,0,0,0,0c0.7,0,1.7-1.5,1.8-3.8c0,0,0-0.1,0-0.1
			C428.3,320.1,428.1,319.6,427.9,319.1z"/>
		<path d="M429.1,321c-0.2-0.1-0.3-0.2-0.4-0.3c-0.1-0.1-0.1-0.1-0.2-0.2c0,0,0,0.1,0,0.1c-0.2,2.2-1.1,3.8-1.8,3.8c0,0,0,0,0,0
			c-0.2,0-0.4-0.1-0.5-0.3c-0.3-0.3-0.5-0.9-0.7-1.7c-0.1,0.3-0.3,0.6-0.5,0.9c0,0.1,0.1,0.2,0.1,0.3c0.1,0.4,0.3,0.7,0.6,1
			c0.2,0.3,0.5,0.4,0.8,0.5c0.1,0,0.1,0,0.2,0c0,0,0,0,0,0c0.6,0,1.2-0.5,1.6-1.3C428.7,323,429,322,429.1,321z"/>
		<path fill="#006B3F" d="M425.2,320.6c-0.3,0-0.6-0.2-0.9-0.4c-0.3-0.3-0.5-0.9-0.7-1.5c-0.4,0.6-0.8,1-1.3,1.1
			c-0.1,1.5,0.2,2.9,0.8,3.5c0.2,0.2,0.3,0.3,0.5,0.3c0,0,0,0,0,0c0.6,0,1.4-1.2,1.7-3C425.3,320.6,425.2,320.6,425.2,320.6
			C425.2,320.6,425.2,320.6,425.2,320.6z"/>
		<path d="M425.4,322.4c0.3-0.6,0.4-1.3,0.5-2.1c-0.2,0.2-0.4,0.3-0.7,0.3c-0.3,1.8-1.1,3-1.7,3c0,0,0,0,0,0c-0.2,0-0.4-0.1-0.5-0.3
			c-0.6-0.6-0.9-2-0.8-3.5c-0.1,0-0.2,0-0.2,0c0,0,0,0,0,0c-0.1,0-0.3,0-0.4-0.1c-0.1,1.7,0.2,3.2,0.9,4c0,0,0.1,0,0.1,0.1
			c0.2,0.2,0.4,0.3,0.6,0.4c0.1,0,0.2,0.1,0.3,0.1c0,0,0,0,0,0c0.5,0,1-0.4,1.4-0.9C425.1,323,425.3,322.7,425.4,322.4z"/>
		<path fill="#006B3F" d="M423.4,315.6c0-0.1,0-0.1,0-0.2c-0.1-0.3-0.2-0.6-0.3-1c-0.3,0.2-0.6,0.4-0.9,0.4c0,0,0,0,0,0
			c-0.3,0-0.7-0.2-0.9-0.5c-0.1-0.1-0.2-0.3-0.3-0.5c-0.1,0.4-0.2,0.9-0.2,1.4c-0.1,1.5,0.2,2.9,0.8,3.6c0.2,0.2,0.3,0.3,0.5,0.3
			c0,0,0,0,0,0c0.5,0,1-0.6,1.4-1.6C423.3,316.9,423.3,316.3,423.4,315.6z"/>
		<path d="M420.8,319c0.1,0.1,0.1,0.2,0.2,0.2c0.1,0.1,0.2,0.2,0.3,0.3c0.1,0.1,0.2,0.1,0.3,0.2c0.1,0,0.3,0.1,0.4,0.1c0,0,0,0,0,0
			c0.1,0,0.2,0,0.2,0c0.5-0.1,0.9-0.5,1.3-1.1c-0.1-0.3-0.1-0.7-0.2-1.1c-0.4,1-0.9,1.6-1.4,1.6c0,0,0,0,0,0c-0.2,0-0.4-0.1-0.5-0.3
			c-0.6-0.6-0.9-2.1-0.8-3.6c0-0.5,0.1-0.9,0.2-1.4c-0.2-0.3-0.3-0.6-0.4-1c-0.2,0.7-0.4,1.4-0.5,2.3c0,0.5,0,1.1,0,1.5
			c0,0.3,0.1,0.6,0.1,0.9C420.4,318.1,420.6,318.6,420.8,319z"/>
		<path fill="#006B3F" d="M425.6,316.3c-0.3,0.2-0.5,0.3-0.8,0.3c0,0,0,0,0,0c-0.3,0-0.5-0.1-0.8-0.3c0,1.7,0.3,3,0.8,3.4
			c0.1,0.1,0.3,0.2,0.4,0.2c0.4,0,0.8-0.5,1.2-1.4C426,318,425.7,317.2,425.6,316.3z"/>
		<path d="M426.9,319.1c-0.1-0.1-0.2-0.2-0.4-0.3c-0.1-0.1-0.1-0.1-0.2-0.2c-0.4,0.8-0.8,1.4-1.2,1.4c-0.1,0-0.3-0.1-0.4-0.2
			c-0.4-0.5-0.8-1.7-0.8-3.4c0,0-0.1-0.1-0.1-0.1c-0.2-0.2-0.3-0.4-0.5-0.7c0,0.1,0,0.1,0,0.2c0,0.7,0,1.3,0,1.9
			c0,0.4,0.1,0.7,0.2,1.1c0.2,0.7,0.4,1.2,0.7,1.5c0.3,0.3,0.6,0.4,0.9,0.4c0,0,0,0,0,0c0,0,0.1,0,0.1,0c0.2,0,0.5-0.1,0.7-0.3
			C426.3,320,426.6,319.6,426.9,319.1z"/>
		<path fill="#006B3F" d="M428.5,318.7c0.1,0.7,0.3,1.2,0.6,1.5c0.1,0.2,0.3,0.2,0.5,0.2c0,0,0,0,0,0c0.7,0,1.6-1.6,1.8-3.9
			c0-0.1,0-0.1,0-0.2c-0.5-0.1-1.1-0.3-1.6-0.7C429.6,317,429.1,318.1,428.5,318.7z"/>
		<path d="M431.4,316.3c0,0.1,0,0.1,0,0.2c-0.2,2.3-1.1,3.9-1.8,3.9c0,0,0,0,0,0c-0.2,0-0.3-0.1-0.5-0.2c-0.3-0.3-0.5-0.9-0.6-1.5
			c-0.2,0.2-0.4,0.3-0.6,0.4c0.1,0.5,0.3,1,0.5,1.3c0.1,0.1,0.1,0.2,0.2,0.2c0.1,0.1,0.3,0.3,0.4,0.3c0.2,0.1,0.3,0.1,0.5,0.1
			c0,0,0,0,0,0c1.2,0,2.2-1.9,2.4-4.5c0-0.1,0-0.1,0-0.2c-0.1,0-0.1,0-0.2,0C431.7,316.4,431.6,316.3,431.4,316.3z"/>
		<path fill="#006B3F" d="M426.2,315.5c0,1.2,0.3,2.3,0.8,2.8c0.1,0.2,0.3,0.2,0.5,0.2c0.7,0,1.5-1.3,1.7-3.3
			c-0.7-0.5-1.4-1.2-2.1-2C426.9,314.2,426.6,315,426.2,315.5z"/>
		<path d="M427.4,318.6c-0.2,0-0.3-0.1-0.5-0.2c-0.4-0.5-0.7-1.6-0.8-2.8c-0.2,0.3-0.4,0.5-0.6,0.7c0.1,1,0.4,1.8,0.7,2.3
			c0,0.1,0.1,0.1,0.2,0.2c0.1,0.1,0.2,0.2,0.4,0.3c0.2,0.1,0.4,0.2,0.6,0.2c0,0,0,0,0,0c0.2,0,0.3,0,0.5-0.1
			c0.2-0.1,0.4-0.2,0.6-0.4c0.6-0.6,1-1.7,1.3-3c-0.2-0.1-0.4-0.3-0.6-0.4C428.9,317.2,428.1,318.6,427.4,318.6z"/>
		<path fill="#006B3F" d="M423.6,313.8c0.1,0.8,0.4,1.5,0.7,1.9c0.1,0.2,0.3,0.2,0.5,0.2c0,0,0,0,0,0c0.6,0,1.4-1.3,1.7-3.3
			c-0.6-0.7-1.2-1.6-1.9-2.5c0,0.1,0,0.1,0,0.2C424.5,311.7,424.2,312.9,423.6,313.8z"/>
		<path d="M424.8,315.9C424.8,315.9,424.8,315.9,424.8,315.9c-0.2,0-0.3-0.1-0.5-0.2c-0.3-0.4-0.6-1.1-0.7-1.9
			c-0.2,0.3-0.4,0.5-0.5,0.7c0.1,0.4,0.2,0.7,0.3,1c0.1,0.3,0.3,0.5,0.5,0.7c0,0.1,0.1,0.1,0.1,0.1c0.2,0.2,0.5,0.3,0.8,0.3
			c0,0,0,0,0,0c0.3,0,0.6-0.1,0.8-0.3c0.2-0.2,0.4-0.4,0.6-0.7c0.4-0.6,0.6-1.4,0.8-2.3c-0.2-0.2-0.4-0.4-0.6-0.6
			C426.2,314.6,425.4,315.9,424.8,315.9z"/>
		<path fill="#006B3F" d="M421,310.2c-0.1,1.6,0.2,3.1,0.7,3.7c0.1,0.2,0.3,0.2,0.5,0.2c0,0,0,0,0,0c0.7,0,1.6-1.6,1.8-3.9
			c0-0.4,0-0.7,0-1.1c-0.5-0.9-1.1-1.8-1.6-2.8C421.8,306.8,421.1,308.2,421,310.2z"/>
		<path d="M421.3,314.3c0.3,0.3,0.6,0.5,0.9,0.5c0,0,0,0,0,0c0.3,0,0.6-0.1,0.9-0.4c0.2-0.2,0.4-0.4,0.5-0.7c0.5-0.8,0.9-2.1,1-3.5
			c0-0.1,0-0.1,0-0.2c-0.2-0.3-0.4-0.7-0.6-1c0,0.4,0,0.7,0,1.1c-0.2,2.3-1.1,3.9-1.8,3.9c0,0,0,0,0,0c-0.2,0-0.3-0.1-0.5-0.2
			c-0.6-0.6-0.9-2.1-0.7-3.7c0.1-2,0.8-3.4,1.4-3.8c-0.1-0.2-0.2-0.4-0.3-0.6c-0.9,0.6-1.6,2.2-1.8,4.3c-0.1,1,0,2,0.2,2.8
			c0.1,0.4,0.2,0.7,0.4,1C421,314.1,421.1,314.2,421.3,314.3z"/>
		<path fill="#D41C30" d="M420.9,300.6c-0.8-1.9-1.5-3.8-2-5.6c0.5,2.3,1.4,4.9,2.5,7.5c3.4,7.9,7.7,12.7,10.2,13.1c0,0,0,0,0,0
			C428.1,313.4,424,307.9,420.9,300.6z"/>
		<path d="M421.4,302.6c-1.1-2.6-2-5.2-2.5-7.5c-0.6-2-1-3.9-1.3-5.6c-0.1,3.3,1,8.3,3.2,13.4c0.4,1,0.9,2,1.4,2.9
			c0.1,0.2,0.2,0.4,0.3,0.6c0.5,1,1,1.9,1.6,2.8c0.2,0.3,0.4,0.7,0.6,1c0.6,0.9,1.2,1.8,1.9,2.5c0.2,0.2,0.4,0.4,0.6,0.6
			c0.7,0.8,1.4,1.5,2.1,2c0.2,0.2,0.4,0.3,0.6,0.4c0.6,0.3,1.1,0.6,1.6,0.7c0.2,0,0.3,0.1,0.5,0.1c0.1,0,0.1,0,0.2,0c0,0,0,0,0.1,0
			c-0.2-0.2-0.3-0.4-0.5-0.7C429.1,315.3,424.8,310.5,421.4,302.6z"/>
		<path fill="#006B3F" d="M421.2,278.1c0,0.5-0.2,0.9-0.4,1.2c0.1,0,0.3,0,0.4,0c0.2,0,0.3,0,0.5-0.1c0-0.4,0-0.7,0.2-1
			c-0.4-0.5-0.7-1.1-0.9-1.7c-0.1,0.1-0.2,0.1-0.3,0.1C421.1,277.1,421.3,277.6,421.2,278.1z"/>
		<path d="M420.9,279.4c-0.1,0.2-0.2,0.3-0.4,0.4c0.4,0,0.9,0,1.4,0.2c-0.1-0.2-0.1-0.4-0.1-0.6c0,0,0,0,0,0c-0.2,0-0.3,0.1-0.5,0.1
			C421.1,279.4,421,279.4,420.9,279.4z"/>
		<path fill="#006B3F" d="M417.7,282.4c0.1-0.2,0.1-0.4,0.2-0.6c0.3-0.6,0.6-1.1,1-1.4c0,0-0.1,0-0.1,0c0,0,0,0,0,0
			c-0.6,0-1.1-0.2-1.5-0.6c-0.2,0.2-0.5,0.4-0.8,0.5c0,0.1-0.1,0.2-0.1,0.4C416.4,281.5,417,282.2,417.7,282.4z"/>
		<path d="M417.7,282.4c-0.8-0.2-1.3-0.9-1.3-1.7c0-0.1,0-0.3,0.1-0.4c-0.2,0.1-0.4,0.1-0.7,0.2c0,0.1,0,0.1,0,0.2
			c0,1.1,0.7,2.1,1.8,2.3C417.6,282.8,417.7,282.6,417.7,282.4z"/>
		<path fill="#006B3F" d="M418.8,279.8c1,0,1.8-0.7,1.8-1.7c0-0.4-0.2-0.9-0.5-1.2c-0.2,0-0.3,0-0.5,0c0,0,0,0-0.1,0
			c-0.4,0-0.8-0.1-1.1-0.3c-0.2,0.2-0.4,0.4-0.7,0.5c0.2,0.3,0.2,0.6,0.2,1c0,0.4-0.1,0.8-0.4,1.2
			C418,279.6,418.4,279.8,418.8,279.8z"/>
		<path d="M418.8,280.4c0,0,0.1,0,0.1,0c0.3-0.2,0.5-0.4,0.8-0.5c0.2-0.1,0.5-0.1,0.7-0.1c0.1-0.1,0.3-0.3,0.4-0.4
			c0.2-0.4,0.4-0.8,0.4-1.2c0-0.5-0.2-1-0.4-1.4c-0.2,0.1-0.4,0.2-0.7,0.2c0.3,0.3,0.5,0.7,0.5,1.2c0,0.9-0.8,1.7-1.8,1.7
			c-0.4,0-0.8-0.2-1.1-0.4c-0.1,0.2-0.3,0.4-0.4,0.5C417.7,280.2,418.2,280.4,418.8,280.4C418.8,280.4,418.8,280.4,418.8,280.4z"/>
		<path fill="#006B3F" d="M417.4,278.2c0-0.3-0.1-0.5-0.2-0.8c-0.1,0-0.3,0-0.4,0c0,0,0,0,0,0c-0.5,0-0.9-0.1-1.3-0.4
			c-0.1,0.5-0.3,1-0.7,1.4c0,0.4-0.2,0.8-0.4,1.2c0.3,0.2,0.7,0.3,1,0.3C416.5,279.9,417.4,279.1,417.4,278.2z"/>
		<path d="M415.4,280.5c0.1,0,0.3,0,0.4,0c0.2,0,0.5-0.1,0.7-0.2c0.3-0.1,0.5-0.3,0.8-0.5c0.2-0.1,0.3-0.3,0.4-0.5
			c0.2-0.3,0.4-0.7,0.4-1.2c0-0.4-0.1-0.7-0.2-1c-0.2,0.1-0.4,0.2-0.6,0.2c0.1,0.2,0.2,0.5,0.2,0.8c0,1-0.9,1.7-2,1.7
			c-0.4,0-0.7-0.1-1-0.3c-0.1,0.2-0.3,0.3-0.5,0.5C414.3,280.4,414.8,280.5,415.4,280.5C415.3,280.5,415.4,280.5,415.4,280.5z"/>
		<path fill="#006B3F" d="M418.9,276.2c0.2,0.1,0.5,0.2,0.8,0.2c0.5,0,1-0.2,1.3-0.5c0,0,0,0,0,0c0-0.2,0-0.3,0.1-0.5
			c-0.3-0.3-0.5-0.6-0.7-1c-0.4,0.1-0.8,0.2-1.3,0.2c0,0.2,0.1,0.4,0.1,0.6C419.1,275.5,419,275.9,418.9,276.2z"/>
		<path d="M421,275.9c-0.4,0.3-0.9,0.5-1.3,0.5c-0.3,0-0.5-0.1-0.8-0.2c-0.1,0.2-0.2,0.4-0.4,0.5c0.3,0.2,0.7,0.3,1.1,0.3
			c0,0,0,0,0.1,0c0.2,0,0.3,0,0.5,0c0.2,0,0.5-0.1,0.7-0.2c0.1,0,0.2-0.1,0.3-0.1c0-0.1-0.1-0.3-0.1-0.4
			C421,276.1,421,276,421,275.9C421,275.9,421,275.9,421,275.9z"/>
		<path fill="#006B3F" d="M416.7,276.8C416.7,276.8,416.7,276.8,416.7,276.8c1,0,1.8-0.7,1.8-1.7c0-0.2,0-0.3-0.1-0.5
			c-0.7,0.1-1.4,0.1-2,0.1c0,0-0.1,0-0.1,0c0,0.1,0,0.2,0,0.3c0,0.5-0.2,1-0.6,1.4C416,276.7,416.4,276.8,416.7,276.8z"/>
		<path d="M416.7,277.4C416.7,277.4,416.7,277.4,416.7,277.4c0.2,0,0.3,0,0.5,0c0.2,0,0.4-0.1,0.6-0.2c0.3-0.1,0.5-0.3,0.7-0.5
			c0.2-0.2,0.3-0.3,0.4-0.5c0.2-0.3,0.3-0.7,0.3-1c0-0.2,0-0.4-0.1-0.6c-0.1,0-0.3,0-0.4,0.1c-0.1,0-0.1,0-0.2,0
			c0,0.1,0.1,0.3,0.1,0.5c0,0.9-0.8,1.7-1.8,1.7c0,0,0,0,0,0c-0.3,0-0.7-0.1-0.9-0.3c-0.1,0.1-0.1,0.1-0.2,0.2c0,0-0.1,0.1-0.2,0.1
			c0,0.1,0,0.1,0,0.2C415.8,277.3,416.2,277.4,416.7,277.4z"/>
		<path fill="#006B3F" d="M413,279.1C413,279.1,413,279.1,413,279.1c-1.1,0-2-0.7-2.3-1.6c-0.1,0.2-0.2,0.5-0.2,0.8
			c0,1,0.8,1.8,1.7,1.8c0,0,0,0,0,0c0.7,0,1.4-0.5,1.6-1.1C413.7,279,413.3,279.1,413,279.1z"/>
		<path d="M410.1,279.3c0.4,0.8,1.2,1.3,2.1,1.3c0,0,0,0,0,0c0.6,0,1.1-0.2,1.5-0.6c0.2-0.1,0.3-0.3,0.5-0.5
			c0.2-0.3,0.4-0.8,0.4-1.2c0,0,0,0,0,0c-0.2,0.2-0.5,0.4-0.8,0.5c-0.3,0.6-0.9,1.1-1.6,1.1c0,0,0,0,0,0c-1,0-1.8-0.8-1.7-1.8
			c0-0.3,0.1-0.5,0.2-0.8c-0.1-0.2-0.1-0.5-0.1-0.8c0,0,0-0.1,0-0.1c-0.4,0.4-0.7,1-0.7,1.7c0,0,0,0.1,0,0.1
			C409.9,278.7,410,279,410.1,279.3z"/>
		<path fill="#006B3F" d="M413.9,277.4C413.9,277.4,413.9,277.4,413.9,277.4c-1.1,0-2-0.7-2.3-1.7c-0.2,0.3-0.3,0.6-0.4,1
			c0,0.9,0.8,1.7,1.7,1.7c0.5,0,0.9-0.2,1.3-0.5c0.2-0.2,0.4-0.4,0.4-0.7C414.5,277.3,414.2,277.4,413.9,277.4z"/>
		<path d="M410.7,277.5c0.3,0.9,1.2,1.6,2.2,1.6c0,0,0,0,0,0c0.3,0,0.6-0.1,0.9-0.2c0.3-0.1,0.5-0.3,0.8-0.5c0,0,0,0,0,0
			c0.4-0.4,0.6-0.8,0.7-1.4c0-0.1,0-0.1,0-0.2c-0.2,0.2-0.5,0.3-0.7,0.4c-0.1,0.3-0.2,0.5-0.4,0.7c-0.3,0.3-0.8,0.5-1.3,0.5
			c-1,0-1.8-0.8-1.7-1.7c0-0.4,0.1-0.7,0.4-1c-0.1-0.2-0.1-0.5-0.1-0.7c0,0,0,0,0-0.1c-0.5,0.4-0.8,1-0.9,1.6c0,0,0,0.1,0,0.1
			C410.6,277,410.7,277.2,410.7,277.5z"/>
		<path fill="#006B3F" d="M412.4,274.1c-0.2,0.3-0.3,0.6-0.3,0.9c0,0.9,0.8,1.7,1.7,1.7c0.5,0,0.9-0.2,1.3-0.5
			c0.3-0.3,0.5-0.7,0.5-1.2c0-0.1,0-0.2,0-0.3C414.5,274.7,413.4,274.5,412.4,274.1z"/>
		<path d="M411.6,275.7c0.3,0.9,1.2,1.6,2.3,1.7c0,0,0,0,0,0c0.3,0,0.5-0.1,0.8-0.1c0.3-0.1,0.5-0.2,0.7-0.4c0.1,0,0.1-0.1,0.2-0.1
			c0.1-0.1,0.1-0.1,0.2-0.2c0.3-0.4,0.6-0.9,0.6-1.4c0-0.1,0-0.2,0-0.3c-0.2,0-0.4,0-0.7,0c0,0.1,0,0.2,0,0.3c0,0.5-0.2,0.9-0.5,1.2
			c-0.3,0.3-0.8,0.5-1.3,0.5c-1,0-1.8-0.8-1.7-1.7c0-0.3,0.1-0.6,0.3-0.9c-0.2-0.1-0.4-0.2-0.6-0.3c-0.2,0.3-0.3,0.7-0.3,1
			c0,0,0,0,0,0.1C411.5,275.2,411.5,275.5,411.6,275.7z"/>
		<path fill="#006B3F" d="M428.6,289.1c1.2,1.2,2.5,3.2,3.4,5.2c0.6,1.5,1.1,2.9,1.3,4c0.5,0.6,1,1.4,1.4,2.4
			c0.7,1.6,1.1,3.3,0.8,4.2c1,1.8,1.6,3.3,1.9,4.8c-0.2-3.7-1.4-8.6-3.6-13.6c-1.8-4.2-4.1-8-6.3-10.8c-0.3-0.2-0.6-0.3-0.8-0.5
			C427.3,286.1,428.1,287.7,428.6,289.1z"/>
		<path fill="#006B3F" d="M423.8,305c1.6,3,3.5,5.6,5.2,7.5c-1.7-2-2.6-3.8-3.1-5.4C425.2,306.7,424.5,306,423.8,305z"/>
		<path fill="#006B3F" d="M421.3,296.6c-0.6-1.1-1.3-2.5-1.8-3.7l0.3-0.1c0,0,0,0,0,0l0.5-0.3c-0.3-0.6-0.6-1.2-0.8-1.8
			c-0.2-0.4-0.3-0.9-0.4-1.3c-0.3-0.5-0.7-0.9-1-1.4c0.4,3.5,1.6,7.9,3.5,12.4c0.1,0.2,0.2,0.5,0.3,0.7
			C421.2,299.3,421,297.6,421.3,296.6z"/>
		<path fill="#006B3F" d="M420,280.5c-0.6,0.2-1.1,0.7-1.5,1.6c-0.5,1.2-0.7,3-0.6,5.1l1.1-0.8c0,0,0,0,0,0c0,0,0.1-0.1,0.1-0.1
			c-0.1-0.2-0.3-0.4-0.4-0.6l0.3-0.2l0,0l1.5-1.1c0,0-0.1-0.1-0.1-0.1l0.3-0.2l1.7-1.4c0,0,0,0,0-0.1l0.6-0.3c0.5,0.8,1,2.1,1.5,3.2
			l1.3-0.9c0,0,0,0,0,0l0.2-0.1c-1-0.8-1.9-1.5-2.4-2c-0.1-0.1-0.2-0.2-0.3-0.3c-0.4-0.3-0.8-0.8-1.1-1.4
			C421.4,280.4,420.6,280.3,420,280.5z"/>
		<path d="M420.5,279.8c-0.2,0-0.5,0.1-0.7,0.1c-0.3,0.1-0.6,0.3-0.8,0.5c-0.4,0.3-0.8,0.8-1,1.4c-0.1,0.2-0.1,0.4-0.2,0.6
			c-0.1,0.2-0.1,0.4-0.2,0.6c-0.4,1.7-0.4,3.9,0,6.4c0.3,1.7,0.7,3.6,1.3,5.6c0.5,1.8,1.2,3.7,2,5.6c3.1,7.2,7.2,12.8,10.7,15
			c-0.7-0.9-1.5-1.9-2.5-3c0,0-0.1-0.1-0.1-0.1c-1.7-1.9-3.5-4.5-5.2-7.5c-0.7-1-1.3-2.1-1.7-3.2c-0.1-0.2-0.2-0.4-0.2-0.7
			c-0.1-0.2-0.2-0.5-0.3-0.7c-1.9-4.5-3.1-8.8-3.5-12.4c-0.1-0.2-0.3-0.4-0.4-0.6l0.3-0.2l0,0c-0.1-2.1,0-3.9,0.6-5.1
			c0.4-0.8,0.9-1.3,1.5-1.6c0.6-0.2,1.4-0.1,2.2,0.2c-0.1-0.2-0.2-0.5-0.3-0.8C421.4,279.8,420.9,279.7,420.5,279.8z"/>
		<path d="M427.5,285.3c2.2,2.8,4.5,6.5,6.3,10.8c2.1,5,3.4,9.8,3.6,13.6c0.3,1.6,0.3,3,0.2,4.2c0,0,0,0.1,0,0.1
			c1.2-3.7-0.1-10.9-3.2-18.2c-1.7-3.9-3.6-7.2-5.6-9.9C428.3,285.8,427.9,285.6,427.5,285.3z"/>
		<path fill="#006B3F" d="M433.4,299.7c0,0.7-0.1,1.2-0.3,1.6c0,0.1-0.1,0.1-0.1,0.2c0.7,0.9,1.3,1.8,1.9,2.6c0-0.7-0.2-1.7-0.8-3.1
			C433.9,300.5,433.7,300,433.4,299.7z"/>
		<path d="M433.4,299.7c0.2,0.4,0.5,0.8,0.7,1.3c0.6,1.3,0.8,2.4,0.8,3.1c0.2,0.3,0.4,0.6,0.5,0.9c0.3-0.9-0.1-2.6-0.8-4.2
			c-0.4-0.9-0.9-1.8-1.4-2.4C433.4,298.8,433.4,299.3,433.4,299.7z"/>
		<path fill="#006B3F" d="M432.6,301.9c-0.1,0-0.2,0.1-0.2,0.1c-0.1,0-0.2,0-0.3,0c-0.5,0-1-0.3-1.6-0.7c0.1,0.5,0.1,1,0.1,1.5
			c0.7,1.2,1.6,2.5,2.8,3.9c1.7,2.1,2.9,4,3.6,5.7C437,309.5,436.1,306.3,432.6,301.9z"/>
		<path d="M435.5,304.9c-0.2-0.3-0.3-0.6-0.5-0.9c-0.5-0.8-1.1-1.7-1.9-2.6c-0.1,0.2-0.3,0.4-0.5,0.5c3.5,4.4,4.3,7.6,4.3,10.4
			c0.2,0.5,0.4,1.1,0.6,1.6c0.1-1.3,0.1-2.7-0.2-4.2C437,308.2,436.5,306.6,435.5,304.9z"/>
		<path fill="#006B3F" d="M429.5,304.6c-0.1,0-0.1,0-0.2,0c0,0-0.1,0-0.1,0c0.9,1.8,2.2,3.9,4.4,6.4c2,2.3,3.2,4.3,3.9,6.1
			c-0.1-2.7-1.1-5.9-4.6-10.1c-1-1.2-1.8-2.3-2.5-3.3c0,0.1-0.1,0.2-0.1,0.3C430.1,304.3,429.8,304.6,429.5,304.6z"/>
		<path d="M437,312.3c-0.7-1.7-1.8-3.6-3.6-5.7c-1.2-1.4-2.1-2.7-2.8-3.9c0,0.4-0.1,0.7-0.2,1c0.7,1,1.5,2.1,2.5,3.3
			c3.4,4.2,4.4,7.4,4.6,10.1c0.3,0.6,0.5,1.2,0.6,1.8c0.1-1.5,0-3.1-0.5-4.9c0,0,0-0.1,0-0.1C437.4,313.4,437.2,312.9,437,312.3z"/>
		<path fill="#006B3F" d="M427.8,303.9c0.2,1.2,0.1,2.1-0.2,2.7c-0.2,0.3-0.5,0.5-0.8,0.6c0,0-0.1,0-0.1,0c0.5,1.5,1.4,3.2,3,5
			c5.2,6.1,6.5,8.9,8.1,12.4c0.4-3.4,0.4-7.3-4.6-13.2c-2.4-2.8-3.8-5.2-4.7-7.1C428.1,304.2,428,304.1,427.8,303.9z"/>
		<path d="M437.4,317.1c-0.7-1.8-1.9-3.8-3.9-6.1c-2.1-2.5-3.5-4.6-4.4-6.4c-0.3,0-0.6-0.1-0.9-0.3c0.9,1.9,2.3,4.3,4.7,7.1
			c5,5.8,5.1,9.8,4.6,13.2c-1.6-3.6-2.9-6.3-8.1-12.4c-1.6-1.8-2.5-3.5-3-5c0,0,0,0-0.1,0c-0.2,0-0.4-0.1-0.7-0.2
			c0.5,1.6,1.4,3.5,3.1,5.4c0,0,0.1,0.1,0.1,0.1c1,1.1,1.8,2.1,2.5,3c0,0,0,0,0,0c0.2,0.2,0.3,0.4,0.5,0.7c0.3,0.4,0.6,0.8,0.9,1.1
			c0.3,0.3,0.5,0.7,0.7,1c0.8,1.3,1.5,2.4,2,3.4c0.2,0.4,0.4,0.8,0.6,1.3c0.3,0.7,0.6,1.4,1,2.2l0.7,1.6l0.2-1.1
			c0.3-2,0.6-4.2-0.1-6.9C437.9,318.4,437.7,317.8,437.4,317.1z"/>
		<path fill="#006B3F" d="M429.4,296c-0.2,0.3-0.4,0.5-0.7,0.6c0,0,0,0,0,0c0.3,0.6,0.6,1.2,0.9,1.8c0.3,0.6,0.5,1.3,0.6,1.9
			c0.8,0.9,1.6,1.3,2,1.2c0.2,0,0.3-0.2,0.4-0.4c0.4-0.9,0.2-3.3-1.2-6.5c-0.7-1.6-1.6-3-2.4-4c0.1,0.7,0.1,1.3-0.1,1.6
			C429.6,293.8,429.8,295.2,429.4,296z"/>
		<path d="M431.4,294.5c1.4,3.2,1.6,5.6,1.2,6.5c-0.1,0.2-0.2,0.3-0.4,0.4c-0.5,0.1-1.2-0.3-2-1.2c0.1,0.4,0.2,0.8,0.3,1.1
			c0.6,0.5,1.1,0.7,1.6,0.7c0.1,0,0.2,0,0.3,0c0.1,0,0.2-0.1,0.2-0.1c0.2-0.1,0.3-0.3,0.5-0.5c0,0,0.1-0.1,0.1-0.2
			c0.2-0.4,0.3-1,0.3-1.6c0-0.4-0.1-0.8-0.1-1.3c-0.2-1.2-0.7-2.6-1.3-4c-0.9-2-2.1-4-3.4-5.2c0.2,0.5,0.3,1,0.4,1.4
			C429.9,291.5,430.7,292.9,431.4,294.5z"/>
		<path fill="#006B3F" d="M427.2,295.9c0.1,0.8,0,1.5-0.2,1.9c-0.2,0.3-0.4,0.5-0.7,0.5c0,0-0.1,0-0.1,0c-0.1,0-0.3,0-0.4-0.1
			c0.5,0.8,0.9,1.7,1.3,2.6c0.3,0.6,0.5,1.3,0.6,1.9c0.7,0.8,1.4,1.3,1.8,1.2c0.1,0,0.2-0.1,0.4-0.3c0.4-0.7,0.3-2.6-0.8-5.2
			c-0.3-0.8-0.7-1.5-1.1-2.2C427.7,296.3,427.4,296.1,427.2,295.9z"/>
		<path d="M430.5,301.3c-0.1-0.4-0.1-0.7-0.3-1.1c-0.2-0.6-0.4-1.2-0.6-1.9c-0.2-0.6-0.5-1.2-0.9-1.8c-0.1,0-0.1,0-0.2,0
			c-0.2,0-0.4-0.1-0.6-0.2c0.4,0.6,0.8,1.4,1.1,2.2c1.1,2.6,1.1,4.5,0.8,5.2c-0.1,0.2-0.3,0.3-0.4,0.3c-0.4,0.1-1.1-0.4-1.8-1.2
			c0.1,0.4,0.2,0.8,0.2,1.2c0.2,0.2,0.4,0.3,0.5,0.4c0.3,0.2,0.6,0.3,0.9,0.3c0,0,0.1,0,0.1,0c0.1,0,0.1,0,0.2,0
			c0.3-0.1,0.6-0.3,0.8-0.6c0-0.1,0.1-0.2,0.1-0.3c0.1-0.3,0.1-0.6,0.2-1C430.6,302.3,430.6,301.8,430.5,301.3z"/>
		<path fill="#006B3F" d="M424.4,299.5c-0.1,0-0.2,0.1-0.3,0.1c-0.1,0-0.2,0-0.3-0.1c-0.6-0.2-1.2-1-1.9-2c0,1,0.2,2.3,0.9,4
			c1.2,3.1,3.1,5.2,4,5.1c0.1,0,0.2-0.1,0.4-0.3c0.4-0.7,0.3-2.6-0.7-5.2c-0.4-1.1-0.9-2.1-1.5-2.8
			C424.9,298.9,424.7,299.3,424.4,299.5z"/>
		<path d="M426.7,307.2c0.3-0.1,0.6-0.3,0.8-0.6c0.3-0.6,0.4-1.5,0.2-2.7c-0.1-0.4-0.1-0.8-0.2-1.2c-0.2-0.6-0.4-1.2-0.6-1.9
			c-0.4-0.9-0.8-1.8-1.3-2.6c-0.3-0.1-0.5-0.2-0.8-0.5c0,0.2,0,0.3,0,0.5c0.5,0.8,1,1.7,1.5,2.8c1,2.6,1.1,4.5,0.7,5.2
			c-0.1,0.2-0.3,0.3-0.4,0.3c-0.9,0.1-2.7-1.9-4-5.1c-0.7-1.7-0.9-3.1-0.9-4c-0.2-0.3-0.4-0.6-0.5-0.9c-0.2,1,0,2.7,0.6,4.5
			c0.1,0.2,0.2,0.4,0.2,0.7c0.4,1.1,1,2.3,1.7,3.2c0.7,1,1.4,1.8,2.1,2.1c0.2,0.1,0.4,0.2,0.7,0.2c0,0,0,0,0.1,0
			C426.7,307.2,426.7,307.2,426.7,307.2z"/>
		<path fill="#006B3F" d="M426.7,293.1c-0.1,0.1-0.1,0.2-0.2,0.3c0,0,0,0.1,0,0.1c0.2,0.5,0.3,0.9,0.5,1.4c0.7,0.7,1.3,1.1,1.6,1.1
			c0.1,0,0.2,0,0.2-0.2c0.2-0.5,0.2-1.7-0.5-3.2c-0.1,0-0.1,0-0.2,0c-0.3-0.1-0.8-0.3-1.2-0.7C427,292.3,426.9,292.8,426.7,293.1z"
			/>
		<path d="M428.9,295.7c-0.1,0.2-0.2,0.2-0.2,0.2c-0.4,0.1-1-0.3-1.6-1.1c0.1,0.4,0.2,0.8,0.2,1.1c0.2,0.2,0.5,0.3,0.7,0.4
			c0.2,0.1,0.4,0.2,0.6,0.2c0.1,0,0.1,0,0.2,0c0,0,0,0,0,0c0.3-0.1,0.6-0.2,0.7-0.6c0.4-0.8,0.2-2.2-0.5-3.8c0,0.1-0.1,0.1-0.1,0.1
			c-0.1,0.1-0.2,0.1-0.4,0.1c0,0,0,0,0,0C429,294,429.1,295.2,428.9,295.7z"/>
		<path fill="#006B3F" d="M424.1,293.9c0.3,1,0.6,2,0.7,2.9c0.5,0.6,1,0.9,1.4,0.9c0.1,0,0.2,0,0.3-0.2c0.3-0.5,0.3-1.9-0.5-3.8
			c0,0,0,0,0-0.1c0,0,0,0-0.1,0c-0.5,0-1.1-0.4-1.7-1C424.2,293.1,424.1,293.6,424.1,293.9z"/>
		<path d="M426.1,298.3c0,0,0.1,0,0.1,0c0.3,0,0.6-0.2,0.7-0.5c0.3-0.4,0.3-1.1,0.2-1.9c0-0.3-0.1-0.7-0.2-1.1
			c-0.1-0.4-0.3-0.9-0.5-1.4c0,0,0-0.1,0-0.1c-0.1,0.1-0.3,0.2-0.5,0.3c0,0-0.1,0-0.1,0c0,0,0,0,0,0.1c0.8,1.9,0.8,3.3,0.5,3.8
			c-0.1,0.2-0.2,0.2-0.3,0.2c-0.3,0-0.8-0.3-1.4-0.9c0.1,0.4,0.1,0.7,0.1,1c0.3,0.2,0.5,0.4,0.8,0.5
			C425.8,298.3,425.9,298.3,426.1,298.3z"/>
		<path fill="#006B3F" d="M423.9,298.9c0.1,0,0.1,0,0.1,0c0.3-0.2,0.3-1.7-0.4-4.2c-0.2,0.1-0.3,0.2-0.5,0.3c0,0-0.1,0-0.1,0
			c-0.9,0-1.9-1.1-2.7-2.5l-0.5,0.3c0,0,0,0,0,0l0.3-0.1C421.6,296.3,423.2,298.6,423.9,298.9z"/>
		<path d="M424.8,296.8c-0.1-0.9-0.4-1.9-0.7-2.9c0,0.2-0.1,0.4-0.2,0.6c-0.1,0.1-0.1,0.2-0.2,0.2c0.7,2.5,0.7,4.1,0.4,4.2
			c0,0-0.1,0-0.1,0c-0.7-0.3-2.4-2.6-3.9-6.3l-0.3,0.1l-0.3,0.1c0.5,1.3,1.2,2.6,1.8,3.7c0.2,0.3,0.4,0.6,0.5,0.9
			c0.7,1,1.4,1.8,1.9,2c0.1,0,0.2,0.1,0.3,0.1c0.1,0,0.3,0,0.3-0.1c0.3-0.2,0.5-0.6,0.5-1.2c0-0.1,0-0.3,0-0.5
			C424.9,297.5,424.8,297.2,424.8,296.8z"/>
		<path fill="#006B3F" d="M424.4,289c0,0-0.1,0-0.1,0c-0.3-0.1-0.6-0.3-1-0.7c0.1,0.5,0.1,1,0,1.3c0.1,0.2,0.2,0.3,0.2,0.5
			c0.1,0.4,0.3,0.8,0.4,1.1c0.8,1.1,1.5,1.8,2,1.7c0.1,0,0.2,0,0.3-0.2c0.2-0.3,0.2-0.9,0.1-1.8c-0.5-0.6-1.1-1.3-1.6-2
			C424.5,289,424.5,289,424.4,289z"/>
		<path d="M426.1,292.8c-0.1,0.2-0.2,0.2-0.3,0.2c-0.5,0.1-1.3-0.6-2-1.7c0.1,0.5,0.2,1,0.3,1.4c0.6,0.6,1.2,1,1.7,1c0,0,0,0,0.1,0
			c0,0,0.1,0,0.1,0c0.2,0,0.4-0.1,0.5-0.3c0.1-0.1,0.2-0.1,0.2-0.3c0.2-0.3,0.3-0.8,0.3-1.4c-0.2-0.2-0.5-0.4-0.7-0.7
			C426.4,291.8,426.3,292.5,426.1,292.8z"/>
		<path fill="#006B3F" d="M423,294.3c0.1,0,0.2,0,0.3-0.2c0.3-0.5,0.3-1.9-0.4-3.8c0-0.1-0.1-0.3-0.2-0.4c0,0,0,0,0,0
			c0,0-0.1,0-0.2,0c-0.1,0-0.3-0.1-0.5-0.2c0.3,0.9,0.3,1.6-0.1,1.9c-0.1,0.1-0.2,0.1-0.4,0.1c0,0-0.1,0-0.2,0
			c-0.4-0.1-0.8-0.4-1.3-0.9C421.1,293,422.4,294.4,423,294.3z"/>
		<path d="M419.1,286.2c0,0-0.1,0.1-0.1,0.1c0,0,0,0,0,0L419.1,286.2C419.2,286.2,419.2,286.2,419.1,286.2z"/>
		<path d="M423,295c0,0,0.1,0,0.1,0c0.2,0,0.4-0.1,0.5-0.3c0.1-0.1,0.2-0.1,0.2-0.2c0.1-0.2,0.2-0.3,0.2-0.6
			c0.1-0.4,0.1-0.8,0.1-1.3c0-0.4-0.1-0.9-0.3-1.4c-0.1-0.4-0.2-0.7-0.4-1.1c-0.1-0.2-0.1-0.3-0.2-0.5c0,0.1-0.1,0.2-0.2,0.2
			c-0.1,0.1-0.2,0.1-0.4,0.1c0.1,0.1,0.1,0.2,0.2,0.4c0.7,1.9,0.7,3.3,0.4,3.8c-0.1,0.2-0.2,0.2-0.3,0.2c-0.7,0.1-2-1.3-2.9-3.5
			c-0.4-0.4-0.8-0.9-1.2-1.4c0.1,0.4,0.2,0.8,0.4,1.3c0.2,0.6,0.5,1.2,0.8,1.8C421.1,293.9,422.1,295,423,295z"/>
		<path fill="#006B3F" d="M418.2,287c1.6,2.8,3,4.1,3.4,4.1c0.1-0.2,0-1-0.6-2.3c-0.6-0.7-1.3-1.6-1.9-2.5l-0.2,0.1l-1.1,0.8l0,0
			L418.2,287z"/>
		<path d="M419,289.4c0.4,0.5,0.8,1,1.2,1.4c0.5,0.5,0.9,0.8,1.3,0.9c0.1,0,0.1,0,0.2,0c0.2,0,0.3-0.1,0.4-0.1
			c0.4-0.3,0.3-1,0.1-1.9c-0.3-0.2-0.7-0.5-1-0.9c0.5,1.3,0.7,2.1,0.6,2.3c-0.4,0.1-1.8-1.3-3.4-4.1l-0.3,0.2l-0.3,0.2
			c0.1,0.2,0.3,0.4,0.4,0.6C418.4,288.5,418.7,289,419,289.4z"/>
		<path fill="#006B3F" d="M419.3,285.2c1.6,2.7,3,4.1,3.4,4.1c0,0,0,0,0,0c0.1-0.2,0-1.1-0.6-2.4c-0.6-0.8-1.1-1.7-1.6-2.6l-1.5,1.1
			l0,0L419.3,285.2z"/>
		<path d="M421.1,288.8c0.4,0.4,0.7,0.7,1,0.9c0.2,0.1,0.3,0.2,0.5,0.2c0.1,0,0.1,0,0.2,0c0,0,0,0,0,0c0.2,0,0.3-0.1,0.4-0.1
			c0.1-0.1,0.1-0.1,0.2-0.2c0.1-0.3,0.1-0.8,0-1.3c-0.4-0.4-0.8-0.9-1.2-1.4c0.6,1.4,0.7,2.3,0.6,2.4c0,0,0,0,0,0
			c-0.4,0-1.8-1.3-3.4-4.1l-0.3,0.2l-0.3,0.2c0.1,0.2,0.3,0.4,0.4,0.6c0,0,0,0,0,0C419.8,287.2,420.4,288.1,421.1,288.8z"/>
		<path fill="#006B3F" d="M425,288.5c1.5,2,2.7,3.2,3.3,3.3c0,0,0.1,0,0.1,0c0.4-0.3-0.2-3.1-2.7-7.3l-1.3,0.9
			C424.9,286.7,425.2,287.8,425,288.5z"/>
		<path d="M425.7,284.5c2.5,4.2,3.1,7,2.7,7.3c0,0-0.1,0-0.1,0c-0.6-0.1-1.8-1.3-3.3-3.3c0,0.2-0.1,0.3-0.2,0.4
			c-0.1,0-0.1,0.1-0.2,0.1c0.6,0.8,1.1,1.5,1.6,2c0.3,0.3,0.5,0.5,0.7,0.7c0.5,0.4,0.9,0.6,1.2,0.7c0.1,0,0.1,0,0.2,0c0,0,0,0,0,0
			c0.2,0,0.4-0.1,0.4-0.1c0.1,0,0.1-0.1,0.1-0.1c0.3-0.3,0.3-0.9,0.1-1.6c-0.1-0.4-0.2-0.9-0.4-1.4c-0.5-1.4-1.3-3-2-4.2
			c-0.3-0.2-0.5-0.3-0.8-0.5L425.7,284.5C425.7,284.5,425.7,284.5,425.7,284.5z"/>
		<path fill="#006B3F" d="M421,283.8c1.7,3.2,3.1,4.5,3.4,4.5c0,0,0,0,0,0c0.2-0.3-0.3-2.5-2-5.8l-1.7,1.4L421,283.8z"/>
		<path d="M422.1,286.9c0.4,0.6,0.8,1.1,1.2,1.4c0.4,0.4,0.7,0.6,1,0.7c0.1,0,0.1,0,0.1,0c0.1,0,0.1,0,0.2,0c0.1,0,0.2-0.1,0.2-0.1
			c0.1-0.1,0.2-0.2,0.2-0.4c0.2-0.6-0.1-1.8-0.6-3c-0.4-1.2-1-2.4-1.5-3.2l-0.6,0.3c0,0,0,0,0,0.1c1.7,3.2,2.2,5.5,2,5.8
			c0,0,0,0,0,0c-0.3,0-1.7-1.3-3.4-4.5l-0.3,0.2l-0.3,0.2c0,0,0.1,0.1,0.1,0.1C421,285.2,421.6,286.1,422.1,286.9z"/>
		<path fill="#9461C9" d="M422.4,279.3c0.1,0.9,0.7,1.8,1.3,2.3c0.1,0.1,0.2,0.2,0.3,0.3c1.2,1.1,4.3,4.1,7.4,3.8
			c1.2-0.1,2.2-0.6,3.1-1.6c-0.8-0.2-1.7-0.6-2.6-1.2c-0.4,0.1-0.8,0.2-1.2,0.3c-0.1,0-0.2,0-0.4,0c-3.2,0-6.3-2.9-7.5-4l-0.3-0.2
			c0,0,0,0,0,0C422.4,279,422.4,279.1,422.4,279.3z"/>
		<path d="M431.9,282.9c0.9,0.6,1.8,1.1,2.6,1.2c-0.9,1-2,1.5-3.1,1.6c-3.1,0.2-6.2-2.7-7.4-3.8c-0.1-0.1-0.2-0.2-0.3-0.3
			c-0.6-0.4-1.2-1.4-1.3-2.3c0-0.2,0-0.3,0.1-0.5c-0.2-0.1-0.3-0.3-0.5-0.5c-0.1,0.3-0.2,0.6-0.2,1c0,0,0,0,0,0
			c0,0.2,0.1,0.4,0.1,0.6c0.1,0.3,0.2,0.5,0.3,0.8c0.3,0.6,0.7,1.1,1.1,1.4c0.1,0.1,0.2,0.1,0.3,0.3c0.5,0.5,1.3,1.3,2.4,2
			c0.2,0.2,0.5,0.3,0.8,0.5c0.3,0.2,0.5,0.3,0.8,0.5c0.4,0.2,0.9,0.4,1.3,0.6c0.7,0.3,1.5,0.4,2.2,0.4c0.1,0,0.2,0,0.4,0
			c1.5-0.1,2.8-0.9,4-2.3l0.4-0.5l-0.7,0c-0.7,0-1.6-0.4-2.5-1C432.3,282.7,432.1,282.8,431.9,282.9z"/>
		<path fill="#9461C9" d="M422.9,278.4c0.1,0.1,0.2,0.2,0.3,0.3c1.2,1.1,4.3,4.1,7.4,3.8c1.2-0.1,2.2-0.6,3.1-1.6
			c-0.8-0.2-1.6-0.6-2.5-1.2c-0.5,0.2-1,0.3-1.5,0.4c-0.1,0-0.2,0-0.4,0c-3.2,0-6.3-2.9-7.5-4l-0.1-0.1c0,0.1,0,0.1,0,0.2
			C421.7,277,422.3,278,422.9,278.4z"/>
		<path d="M431.2,279.7c0.9,0.6,1.8,1,2.5,1.2c-0.9,1-2,1.5-3.1,1.6c-3.1,0.2-6.2-2.7-7.4-3.8c-0.1-0.1-0.2-0.2-0.3-0.3
			c-0.6-0.4-1.2-1.4-1.3-2.3c0-0.1,0-0.1,0-0.2l-0.1-0.1c-0.1-0.1-0.3-0.3-0.5-0.4c0,0.2-0.1,0.3-0.1,0.5c0,0.1,0,0.2,0,0.3
			c0,0.1,0,0.3,0.1,0.4c0.1,0.6,0.5,1.3,0.9,1.7c0.2,0.2,0.3,0.4,0.5,0.5c0,0,0,0,0,0l0.3,0.2c1.2,1.1,4.2,4,7.5,4
			c0.1,0,0.2,0,0.4,0c0.4,0,0.8-0.1,1.2-0.3c0.2-0.1,0.5-0.2,0.7-0.3c0.7-0.4,1.4-0.9,2-1.7l0.4-0.5l-0.7,0c-0.7,0-1.6-0.4-2.5-1
			C431.6,279.5,431.4,279.6,431.2,279.7z"/>
		<path fill="#9461C9" d="M421.9,275.3c0.1,0.1,0.2,0.2,0.3,0.3c1.2,1.1,4.3,4,7.4,3.8c1.2-0.1,2.2-0.6,3.1-1.6
			c-1-0.2-2.2-0.9-3.4-1.8c-0.6,0.3-1.2,0.4-1.8,0.5c-0.1,0-0.2,0-0.4,0c-2.1,0-4.2-1.3-5.7-2.5c-0.1,0-0.3,0.1-0.4,0.1
			C421.3,274.7,421.6,275.1,421.9,275.3z"/>
		<path d="M429.3,276.1c1.2,0.9,2.4,1.5,3.4,1.8c-0.9,1-2,1.5-3.1,1.6c-3.1,0.2-6.2-2.7-7.4-3.8c-0.1-0.1-0.2-0.2-0.3-0.3
			c-0.3-0.2-0.6-0.6-0.9-1.1c-0.2,0.1-0.4,0.1-0.7,0.2c0.2,0.4,0.4,0.7,0.7,1c0.1,0.2,0.3,0.3,0.5,0.4l0.1,0.1l0.1,0.1
			c1.2,1.1,4.2,4,7.5,4c0.1,0,0.2,0,0.4,0c0.5,0,1-0.2,1.5-0.4c0.2-0.1,0.5-0.2,0.7-0.3c0.6-0.4,1.2-0.9,1.8-1.6l0.4-0.5l-0.7,0
			c-0.9,0-2.1-0.7-3.4-1.6C429.7,275.8,429.5,276,429.3,276.1z"/>
		<path fill="#9461C9" d="M427.5,275.9c1.2-0.1,2.2-0.6,3.1-1.6c-1.1-0.2-2.3-1-3.6-2c-0.5-0.1-0.9-0.3-1.3-0.5
			c-1.4,1-2.4,1.6-3.4,2C423.7,275,425.6,276,427.5,275.9z"/>
		<path d="M426.9,272.4c1.3,0.9,2.6,1.7,3.6,2c-0.9,1-2,1.5-3.1,1.6c-1.9,0.1-3.8-0.9-5.3-2c-0.2,0.1-0.5,0.2-0.7,0.3
			c1.5,1.2,3.6,2.5,5.7,2.5c0.1,0,0.2,0,0.4,0c0.6,0,1.2-0.2,1.8-0.5c0.2-0.1,0.4-0.2,0.6-0.4c0.5-0.4,1.1-0.8,1.5-1.4l0.4-0.5
			l-0.7,0c-0.8,0-1.7-0.5-2.7-1.1C427.9,272.6,427.4,272.5,426.9,272.4z"/>
		<path fill="#9461C9" d="M411,268.2c0.4,0.3,0.7,0.7,0.9,1.4c0.1,0.4,0,0.7-0.1,1.1c0.5,0.2,0.8,0.5,1,0.9c0.2,0.6,0,1.2-0.5,1.8
			c1.6,0.8,3.9,1,6.3,0.7c3-0.4,3.9-0.7,6.8-2.8l0.2-0.1l0.2,0.1c1.2,0.6,2.3,0.9,3.9,0.8c-1.6-0.9-3.4-2.5-5.1-4
			c-1.6-1.4-3.1-2.7-4.2-3.3c-3.1-1.6-7.1-1-9.1,0.5c-0.8,0.7-1.4,1.7-1.6,2.8C410.2,267.9,410.7,268,411,268.2z M415.8,269.6
			C415.8,269.6,415.7,269.6,415.8,269.6c-0.6,0-1.2-0.1-1.6-0.4c-0.5-0.3-0.7-0.7-0.7-1.1c0-0.8,1-1.4,2.2-1.4
			c0.6,0,1.1,0.1,1.5,0.4c0.5,0.3,0.7,0.7,0.7,1.1C418,269,417,269.6,415.8,269.6z"/>
		<path d="M412.4,274.1c0.9,0.4,2,0.6,3.2,0.7c0.2,0,0.4,0,0.7,0c0,0,0.1,0,0.1,0c0.7,0,1.3-0.1,2-0.1c0.1,0,0.1,0,0.2,0
			c0.2,0,0.3,0,0.4-0.1c0.5-0.1,0.9-0.1,1.3-0.2c0.2,0,0.4-0.1,0.7-0.2c0.1,0,0.3-0.1,0.4-0.1c0.3-0.1,0.5-0.2,0.7-0.3
			c1-0.4,2-1,3.4-2c0.4,0.2,0.9,0.4,1.3,0.5c0.5,0.1,1,0.2,1.5,0.3c0.7,0,1.4,0,2.3-0.2l1.2-0.2l-1.1-0.4c-1.8-0.7-4-2.6-5.9-4.4
			c-1.6-1.4-3.1-2.8-4.3-3.4c-3.5-1.8-7.6-1-9.7,0.5l0,0c-1,0.8-1.7,2.1-1.9,3.4c0.2-0.1,0.5-0.1,0.7-0.1c0.2-1.1,0.8-2.2,1.6-2.8
			c2-1.5,5.9-2.1,9.1-0.5c1.1,0.5,2.6,1.9,4.2,3.3c1.7,1.5,3.5,3.1,5.1,4c-1.6,0.1-2.8-0.2-3.9-0.8l-0.2-0.1l-0.2,0.1
			c-2.9,2.1-3.8,2.4-6.8,2.8c-2.5,0.4-4.7,0.1-6.3-0.7c-0.1,0.2-0.3,0.3-0.5,0.5c0,0,0.1,0,0.1,0C412,274,412.2,274.1,412.4,274.1z"
			/>
		<path fill="#D41C30" d="M416.9,267.7c-0.3-0.2-0.7-0.3-1.2-0.3c0,0,0,0-0.1,0c-0.9,0-1.5,0.4-1.5,0.7c0,0.2,0.1,0.4,0.4,0.5
			c0.3,0.2,0.7,0.3,1.2,0.3c0.9,0,1.6-0.4,1.6-0.7C417.3,268,417.2,267.8,416.9,267.7z M415.6,268.7c-0.4,0-0.7-0.3-0.7-0.6
			c0-0.3,0.3-0.6,0.7-0.6c0.4,0,0.7,0.3,0.7,0.6C416.3,268.4,416,268.7,415.6,268.7z"/>
		<path d="M417.3,267.1c-0.4-0.2-0.9-0.4-1.5-0.4c-1.2,0-2.2,0.6-2.2,1.4c0,0.4,0.2,0.8,0.7,1.1c0.4,0.2,0.9,0.4,1.5,0.4
			c0,0,0,0,0.1,0c1.2,0,2.2-0.6,2.2-1.4C418,267.8,417.7,267.4,417.3,267.1z M415.7,268.9c-0.4,0-0.9-0.1-1.2-0.3
			c-0.2-0.1-0.4-0.3-0.4-0.5c0-0.4,0.7-0.7,1.5-0.7c0,0,0,0,0.1,0c0.4,0,0.9,0.1,1.2,0.3c0.2,0.1,0.4,0.3,0.4,0.5
			C417.3,268.5,416.6,268.9,415.7,268.9z"/>
		<path fill="#FCD116" d="M409.9,272.3c-0.7,0.3-1.3,0.8-1.8,1.4c0.2,0.1,0.4,0.2,0.6,0.2c0.5,0.1,1.1,0,1.7-0.2
			c1.2-0.4,2-1.4,1.7-2c-0.1-0.3-0.4-0.5-0.7-0.5C411.1,271.7,410.6,272.1,409.9,272.3z"/>
		<path d="M412.2,273.3c0.5-0.6,0.7-1.2,0.5-1.8c-0.2-0.4-0.5-0.7-1-0.9c-0.1,0.2-0.2,0.4-0.3,0.6c0.3,0.1,0.6,0.2,0.7,0.5
			c0.2,0.7-0.5,1.6-1.7,2c-0.6,0.2-1.2,0.3-1.7,0.2c-0.2,0-0.4-0.1-0.6-0.2c-0.1,0.2-0.2,0.4-0.3,0.6c0.2,0.1,0.5,0.3,0.8,0.3
			c0.2,0,0.4,0.1,0.6,0.1c0.5,0,1-0.1,1.5-0.3c0.4-0.2,0.8-0.4,1.1-0.6C411.9,273.7,412.1,273.5,412.2,273.3z"/>

			<ellipse transform="matrix(1.791066e-02 -0.9998 0.9998 1.791066e-02 140.1869 678.8531)" cx="415.7" cy="268.1" rx="0.6" ry="0.7"/>
		<path fill="#FCD116" d="M409.6,271.7c1.2-0.4,1.8-1.3,1.6-2l0,0c-0.1-0.5-0.3-0.8-0.5-0.9c-0.2-0.1-0.4-0.2-0.7-0.2
			c-0.4,0-1,0.1-1.7,0.3c-1,0.2-1.6,0.7-2,1.4c-0.5,1.1-0.4,2.7,0.4,4.8C407.3,273.4,408.3,272.2,409.6,271.7z M409.5,269.5
			c0.3,0,0.5,0.2,0.5,0.5c0,0.3-0.2,0.5-0.5,0.5c-0.3,0-0.5-0.2-0.5-0.5C409.1,269.7,409.3,269.5,409.5,269.5z"/>
		<path d="M408.1,273.8c0.5-0.7,1.1-1.2,1.8-1.4c0.7-0.2,1.2-0.6,1.6-1.1c0.1-0.2,0.2-0.4,0.3-0.6c0.1-0.4,0.2-0.8,0.1-1.1
			c-0.1-0.7-0.4-1.1-0.9-1.4c-0.4-0.2-0.8-0.3-1.4-0.2c-0.2,0-0.4,0.1-0.7,0.1c-0.3,0.1-0.5,0.1-0.8,0.2c-1.1,0.2-1.9,0.8-2.4,1.7
			c-0.7,1.4-0.5,3.5,0.7,6.1l0.4,0.8l0.2-0.9c0.2-0.7,0.4-1.3,0.7-1.8C407.9,274.1,408,273.9,408.1,273.8z M406.7,275.1
			c-0.8-2.1-0.9-3.7-0.4-4.8c0.4-0.7,1-1.2,2-1.4c0.7-0.2,1.3-0.3,1.7-0.3c0.3,0,0.5,0.1,0.7,0.2c0.3,0.2,0.5,0.5,0.5,0.9l0,0
			c0.1,0.7-0.4,1.7-1.6,2C408.3,272.2,407.3,273.4,406.7,275.1z"/>
		<ellipse transform="matrix(0.9985 -5.473438e-02 5.473438e-02 0.9985 -14.1632 22.821)" cx="409.5" cy="270" rx="0.5" ry="0.5"/>
	</g>

		<path fill="none" stroke="#999999" stroke-width="0.25" stroke-linecap="round" stroke-linejoin="round" stroke-miterlimit="10" d="
		M436.2,199.7h0.5l0.2-0.3V199l-0.2-0.2h-0.5l-0.3,0.2l0,0.4L436.2,199.7z M484,290.8v0.5l0.2,0.2l0.9,0l0.2-0.2l0-0.5l-0.2-0.2
		l-1,0L484,290.8z M482.8,315.1h1l0.4-0.5l2.9-0.5l0.2-0.7l1-0.4v-1l-1-1l0.5-1.9l-0.8-0.7l-5.7,0l-0.8-0.7l0-1l1.4-0.9l0.2-0.7
		l1.4,0l0.7-0.7l0.5-2.4l-1.4-1l1-1l-1.5-1.4l0.5-1l-1-1.4l0.7-1.2l0.7-0.2l0-1l-0.5-0.5l-0.2-1.6l-4.1-0.3l0-1.9l1.9-3.4l0-1.9
		l0.5-1l0.7-0.7l1.4,0l0.8-0.8l-0.5-1.9l1.4-1.4l0.5-2.9l-0.7-0.2l-0.2-0.7l1.2-1.2l1.7-0.7V272l-1.9-1.4l0-0.9l0.9-1.9l-0.7-0.7
		l-1.7-0.2l0-2.9l0.5-0.5l0-1.4l-1.5-1.5l0-0.9l0.5-0.5l0-1.9l-1.9-1.4l-0.5-2.4l-3.3-2.9l0.5-1.9l0.5-0.5l0-4.3l0.5-0.5v-1
		l-1.2-0.2l-0.5-1l-1.4,0.9l-1.4-0.9l-1.4,0l-1.4,0.9l-1.9,0l-0.7-0.7l-0.5-2.4l1.5-2.4l0-1.4l0.5-0.5l-0.5-0.5l0.5-0.9l0-2.4
		l-1-0.9l-0.2-1.2l-1.4,0l-0.5-0.5h-5.8l-1.5-1.9h-0.5l-1.2-1.2v-0.5l-2.4-2.9v-1l-0.5-0.5l0-2.4l-0.5-0.5v-2.9l-1.2-0.2l-1.2-1.2
		l0-1l-0.7-0.2l-0.2-0.7l-0.9-0.5l0-2.4l0.5-0.5l0-1.5l1-0.9l-0.3-1.7l-1.9-0.9l-2.9,0l-2.9-1.4l-1.2,0.7l-0.3,0.7l-3.4,0l-1.9-1
		l-1,0l-0.5-1l-1.7-0.2l-0.3-3.1l-0.9,0l-0.5-0.5l-1,0.5l-1.9,0l-1-1l-1.4,1.9h-1.4l-0.5,0.5h-4.3l-1.4-1.9l-1.9,0l-0.5-1l-0.7-0.2
		l-0.2-1.2h-0.5l-2.4,1.9h-1l-0.4-0.5l-2.4,1.9l-1,0l-0.5,0.5l-0.7-1.2l-0.7-0.2l-0.7,1.2l-0.3,0.7l-1-1.4h-0.9l-0.5,0.5l-1.4,0
		l-0.5,0.5l-0.2-2.2l-2.4-1.9l-0.5-1.5l-0.5-1.4l-1.2-0.2l-1.2-1.2l-0.9-3.3l-1.2-1.2l-1.2-0.7l-1-1.9l0-1.9l-0.5-1l-2.2-2.2l-0.5,0
		l-2.2-2.2l0-1l-0.7-0.7l-1.4,0l-0.7-0.7l-0.2-1.2l-1.5,0l-0.5,0.5l-6.3,0l-0.5-0.5h-5.3l-0.5,0.5l-1.5,0l-0.5,0.5l-1-0.5l-2.9,0
		l-1,0.5l-1.7,1.7v0.9l-1,1.5v1.4l-1.4,2.9v4.3l-0.5,0.4l0,1l1.5,2.4l-1.4,1l2.9,4.8l0,1L359,198v1l-1.2,1.2l-4.3,0l-0.5,0.5l-1,0
		l-0.7,0.7l0.2,3.6l2.4,0.5l1.4-1l1,0l0.5-0.5l1.9,0l0.5,0.5h1l1.2,1.2l1.9,4.3l0.5,2.4l-1,1.9l-1,1l0,1l-1,1.4l-0.5,3.4l-3.6,3.6
		h-1.4l-0.5,0.5l-1.4,0.5l-3.1,3.6l0,3.3l0.7,1.2l1.7,0.7l0.5,3.3l1,1.5v1l0.5,0.5l0.5,2.4l0.9,0.9l1,3.8l0.5,0.5l0,1l-1.4,2.9v3.4
		l1.4,1.9l0.5,2.4l1.4,2.9l2.4,2.9v0.9l0.5,0.5l0,3.4l2.4,4.3l3.4,3.4l0.5,1l0,1.9l-1.4,2.4l0,1.5l1.2,1.7l1.9,0.9l2.4,2.4l0.5,0
		l1.7,1.7l0,1l1.4,2.9v1l3.3,3.8l0.5,1v1.5l0.5,0.5v4.3l-0.5,0.5l0,3.4l0.9,1v0.5l0.9,0.5l0,1.9l1.7,1.2l1.9,0.5l2.4,1.4l0.7,0.7v1
		l0.5,0.5l0,1l2.4,1.9l1.4,3.8l0.5,1.9l3.9,3.9l1,1.9l0,1l0.9,1.4l0.5,5.3l0.5,0.5l0,3.4l-1.5,1.9l0,2.9l-0.5,0.5l0,1.4l0.5,0.5
		l0,2.4l0.7,1.2l1.4,0.5l0.7,0.7l0.5,1l0,2.4l-0.5,0.5v3.8l-0.5,0.5v1l1,1.5v0.5l1.2,1.2l3.8,1.9l2.2,2.2l0.5,1v0.9l0.5,0.5l0,6.2
		L410,384l0,2.9l-1,1.9l0,3.4l1,1.9l0,1l0.5,0.5v1l0.9,1.4l0,2.4l0.5,0.5l0,1.5l1.5,1.9l1.5,1v0.5l1.2,1.2l1.9,0.5l0.7,0.7l-0.5,3.9
		l-2.4,5.3l-0.7,0.7l-2.4,0l-1-0.5l-0.2,0.7l0.7,0.7l3.4,0.9l2.9,1.4l1.4,0l0.5,0.5h4.3l0.5-0.5l1.4,0l0.5-0.5l1.5,0l1,0.5l1.4-1.5
		l3.4,0l1.4-1l1.7-0.3l0-0.9l-1-0.5v-1.4l0.5-1l1.7-1.7h0.5l1.9-1.5h1.4l0.5-0.5h1.5l1-0.5l0.7-0.7l0-1.5l0.5-0.5l1-5.8l1.7-1.7
		l0.5,0l0.5-0.5l0.9,0.5l6.3,0l2.4,1.9l1.4,0l1.9-1.4l5.8,0.5l0.5-0.5h1.4l7-5l0-1.9l1-1l0-5.3l0.5-0.5l0-2.9l0.4-0.5l0-1l1-1.5
		l0-0.9l1-1l-1-1.4l2.6-2.2l1.9,0l1.2-0.7l-0.5-1l0.4-0.9L485,373l0.5-1l0-1.9l-1.4-1l0.5-0.5l0.5-1.5l-0.5-1l1-1.9l0-2.9l0.5-0.5
		l0-1.9l0.5-0.5l0.5-3.4l1-1.9l0.5-2.9l-0.5-0.5l0-1.4l-1.9-1.9l-0.5-1l-0.5-2.9l-1.4-1.9l0-2l0.5-0.4l-0.5-0.5l-0.5-3.8l-0.5-0.5
		l0-3.4l-0.5-0.5v-3.8l1.2-1.7l1.9-0.5l0.7-0.7l-0.3-2.2h-1.4l-0.5-0.5l-1.7-0.2l0.5-2.9l-0.5-0.5l0-1L482.8,315.1z"/>
</g>

</svg>
