<?xml version="1.0" encoding="utf-8"?>

<svg version="1.2" baseProfile="tiny" id="Layer_1" xmlns="http://www.w3.org/2000/svg" xmlns:xlink="http://www.w3.org/1999/xlink"
	 x="0px" y="0px" viewBox="0 0 311.6 310.2" xml:space="preserve">
<g id="Algeria">
	<g>
		<polygon fill="#FFFFFF" points="173.7,155.5 156.7,132 156.7,179 		"/>
		<path fill="#FFFFFF" d="M309.4,232.5l-1.7-3.5l-1.1-2.2l-1.1-2.1l-0.4-0.5l-0.5-0.3l-5.4-1.8l-3.6-1.2l-2.9-1l-0.3-0.1h-0.3
			l-1.7,0.6l-1.8,0.7l-0.6,0.1l-0.3-0.1l-2-1.6l-0.3-0.3l-0.2-0.6l-0.3-1.5l-0.3-0.4l-2.2-1.3l-0.2-0.4v-2.3l-0.1-2.3l-0.1-2.2
			l-0.2-1l-0.6-1.1l-2.3-3.2l-1.8-2.6l-2.3-3.2l-2.1-3l-0.4-0.9l0.4-0.8l0.2-0.3l0.3-0.7l0.5-0.5l0.1-0.2l0.1-0.3v-0.3l5.3-2.5
			l0.3-0.3l0.6-2.2v-0.4l-0.2-0.5v-0.6l0.4-1.8l-0.1-0.2l-0.2-0.2l-0.7-0.4l-0.2-0.2l-0.1-0.3l-0.3-1.8l-1.3-4.5v-0.3l0.1-0.3
			l0.3-0.7l0.2-1l0.2-0.4l0.6-0.7l0.1-0.3l-0.2-0.4l-0.2-0.4v-0.4l0.4-0.3l0.4-0.2l0.3-0.3l1.1-3.5v-0.7l-2.2-5.8l-0.2-1l1.1-8.9
			v-3.3l-0.3-2.6l-2.4-8.3l-1.8-3.3l-1.9-2.9l-1.7-2l-0.4-0.6l3.5-1.9l-0.4-1.9l-0.4-1.9l-0.4-1.9l-0.4-1.9l-0.4-1.9l-0.4-1.9
			l-0.4-1.9l-0.4-1.9l-0.4-1.9l-0.4-1.9l-0.4-1.9l-0.4-1.9l-0.4-1.9l-0.4-1.9l-0.4-1.9l-0.4-1.9l-0.3-1.5l-0.2-0.3l-0.2-0.3
			l-2.5-1.8l-3.2-2.3l-2.4-1.7l-1.9-1.2l-0.6-0.7l-0.2-0.6l-0.1-1.8l-0.2-2.5L256,78l-1.5-2.4l-1.4-2.2l-0.3-0.2l-0.3,0.1h-0.3
			l-0.3-0.1l-0.3-0.2l-1.7-1.2l-0.6-0.2l-0.7-0.1l-0.6-0.2l-0.4-0.4l-0.2-0.8v-2.5l-0.2-0.7l-1.2-2l-1-1.7l-0.1-0.5l-0.2-0.9
			l-0.4-0.8l-0.1-0.3l-0.2-1l-0.1-0.7l0.3-1.8v-1.3l0.2-0.5l0.9-1l0.4-0.5l0.4-0.4l0.6-0.3l1-0.2l0.3-0.2l0.2-0.2l0.1-0.3l0.6-2.2
			l0.3-0.6l0.6-0.4l1.3-0.6l0.6-0.5l1.4-0.7l0.7-0.7l0.4-0.2l0.1-0.1l0.1-0.1l0.1-0.3l0.1-0.1l0.5-0.3l0.1-0.2l-0.4-0.6v-0.3
			l0.2-0.3l0.5-0.5l0.1-0.2v-0.2l-0.3-1.8v-0.7l0.2-0.7l0.4-1l0.3-1.3l0.2-0.6l0.7-0.8l0.9-1.4l0.1-0.4l-0.5-0.4l-0.6-0.2l-0.6-0.3
			l-0.3-0.7l-0.1-0.8v-0.7l0.2-0.6l0.5-1.3V29l-0.2-2.1l-0.3-0.6l-0.7-1.2l-0.2-0.6l-0.1-0.8l0.1-1.5l0.4-1.4v-1l0.3-1.4l0.2-0.3
			l0.1-0.4v-0.3l-0.1-0.3l-0.1-0.4l0.1-0.8l0.7-2l0.1-0.4v-0.8v-0.4l-0.1-0.3l-0.2-0.1l-0.3-0.1l-0.3-0.2l-1.3-0.2l-0.6-0.3v-0.6
			l0.4-0.4l0.4-0.3l1-0.4l1.8-1.1l0.3-0.4l0.3-0.7l0.1-0.7l-0.3-0.4l-0.5-0.3l0.1-0.3l0.5-0.2l0.6-0.1h0.6l0.5-0.1l1-0.4l0.3-0.2
			V4.3l-0.5-0.8V3.3V3.1V2.6l-1.6,0.7h-0.5h-0.5L258,3.2L257.8,3l-0.2-0.1L257.4,3l-0.3-0.1h-0.3h-0.7l-0.3-0.1l-0.3-0.3l-0.3-0.2
			l-2.1,1.1l-0.3,0.3l-0.3,0.2l-2.1,0.5l-0.7,0.1l-0.8-0.3l-0.6-0.4l0.3-0.5l-0.3-0.2l0.1-0.4l0.2-0.4l0.1-0.4L248.6,2l-0.3,0.3
			l-0.1,0.1l-0.7,0.1l-0.1-0.1l-0.1-0.1l-0.2-0.1l-0.2-0.1h-0.2h-0.1l-0.1,0.1h-0.1l-0.7-0.1l-0.5-0.4l-0.4-0.5l-0.5-0.4L244,0.9
			L243.7,1l-0.1-0.1h-0.1h-0.3L243,0.8l-0.1-0.1l-0.1-0.2l-0.1-0.2V0.2l0,0h-0.2l-0.4,0.2H242h-0.2l-0.3-0.2l-0.1-0.1h-0.1h-0.1
			l-0.1,0.1L241,0.3h-0.1l-0.1-0.1h-0.1h-0.1L240.3,0h-0.2h-0.2l-0.3,0.1h-0.2v0.1l0.4,0.4l0.6,0.6l0.1,0.1v0.2v0.2l-0.1,0.2
			l-0.1,0.2l-0.1,0.1L240,2.3l-0.6,0.5L239.3,3l-0.2,0.1h-0.4L238.3,3l-0.2-0.1l-0.4,0.2l-1.3,0.4H236l-0.6-0.1L235,3.2V2.9
			l-0.2-0.2l-0.3-0.2l-0.3-0.2L234,2.2l-2.3-0.1L231.4,2l-0.3-0.2l-0.3-0.1l-0.2,0.1l-0.2-0.3l-0.2-0.7L230,0.7h-0.1l-0.1-0.1V0.5
			V0.3h-0.1l-0.5-0.4l-0.6-0.2h-0.7l-0.7,0.2l-0.5,0.3l-0.1,0.1l-0.2,0.3l-0.6,0.5l-0.1,0.1l-0.2,0.4v0.3l0.1,0.3v0.4l-0.3,0.5
			l-0.6,0.4l-2.4,0.9L219.8,5h-0.6l-1-0.2h-0.4l-0.4,0.1l-0.5,0.5l-0.3,0.1l-0.7,0.2l-0.3,0.1L215.3,6l-0.2,0.3L214.9,7l-0.3,0.2
			L214,7.4l-0.1,0.1l-0.2,0.2h-0.1h-0.5L212.2,8l-1,0.1h-0.5L210.2,8l-1.8-0.9L208,6.8l-0.1-0.3l0.3-0.9h-0.3l-0.3-0.1l-0.3-0.1
			L207,5.3l-0.1-0.1L206.8,5l-0.1-0.1h-0.1h-0.2h-0.2l-0.1-0.1l-0.3-0.3l-2.4-1h-0.3L202,3.6l-1.1-0.1h-0.6l-0.5,0.2l-0.2-0.1h-0.5
			l-0.2-0.1l-0.1-0.1l-0.2-0.1l-0.2-0.1h-0.2l-1.8,0.3h-0.2l-0.4-0.2h-0.2l-0.2,0.1L195,3.7l-0.2,0.1h-0.2l-0.4-0.2H194h-0.2
			l-0.6,0.3l-0.3-0.2l-0.8-0.1h-0.5l-0.3,0.1h-0.2h-0.2l-0.5-0.3l-0.6-0.1l-0.7,0.1l-1.3,0.4l-0.5,0.3L186.4,5l-0.6,0.3h-0.2h-0.3
			h-0.2L185,5.4l-0.3,0.1l-0.1,0.1l-0.2,0.1h-0.3l-0.6,0.2h-0.3l-1.8-0.1l-0.6-0.2l-1-0.5h-0.2v0.5l-0.1,0.3l-0.2,0.3l-0.5,0.3h-0.6
			l-0.6-0.2l-0.4-0.4l-0.4-0.4l-0.5-0.3l-0.6-0.1L175,5.2l-0.9,0.6l-0.4,0.4l-0.1,0.3l-0.4,0.6l-0.4,0.3l-1,0.5L170.4,9l-0.5,0.2
			l-2.2,0.1h-0.1l-0.3-0.1h-0.2l-0.2-0.1L166.8,9V8.8l-0.1-0.2l-0.3-0.2l-0.3-0.1h-0.3l-0.3,0.1l-3.8,1.1l-1.3,0.2h-0.2l-0.7-0.1
			h-0.8l-0.8,0.2h-0.2l-0.3-0.1h-0.1h-0.2l-0.4,0.2h-0.2h-0.2v65.4c29.6,0,55.3,16.1,69.1,39.9c-11.7-14.6-29.7-24-49.9-24
			c-6.7,0-13.2,1-19.3,3v37.4l27.6,9l17-23.5v29l27.6,9l-27.6,9v29l-17-23.5l-27.6,9V216c6.1,1.9,12.6,3,19.3,3
			c20.2,0,38.2-9.4,49.9-24c-13.8,23.9-39.6,39.9-69.1,39.9v52.7l1.1,0.9l0.3,0.2h0.3h0.3h0.2l0.2,0.2l0.1,0.3l0.1,0.3l0.1,0.2h0.3
			l0.2-0.1l0.3-0.2l0.2-0.1h0.2l0.1,0.1l0.1,0.1l0.2,0.1l1,0.3h0.2l0.4-0.2l0.6-0.6l0.3-0.2l0.3-0.1l0.3,0.1l0.3,0.2l0.9,0.7
			l0.6,0.6l0.5,0.7l0.6,1.1l0.2,0.2l0.2,0.1l0.4,0.1l0.3,0.1l0.5,0.3l0.3,0.1h0.2l1.4,0.3h0.8l4.1,0.9l1.9,0.8l0.9,0.7l0.2,0.1
			l0.5,0.2l0.2,0.1l0.2,0.2l0.1,0.2l-0.3,3.2v0.6l0.2,0.6l0.1,0.1h0.1l0.1,0.1l0.1,0.1v0.1l-0.1,0.3v0.2l0.1,0.3l0.2,0.2l0.2,0.3
			v0.3l-0.1,0.4l-0.3,0.2l-0.3,0.2l-0.3,0.2l-0.1,0.3l-0.1,0.6l-0.1,0.3l-0.3,0.3l-0.2,0.1l-0.1,0.1l-0.1,0.3l-0.2,0.3l-0.1,0.3v0.3
			l0.3,0.4l0.3,0.3l0.3,0.2l0.3,0.2l0.7,0.3l0.9,0.9l0.4,0.2l0.2,0.1h0.2h0.4l1.2-0.3l0,0l1.6-0.3l2.6-0.5l2.6-0.5l2.6-0.5l2.6-0.5
			l2.8-0.6l2.8-0.6l2.9-0.6l2.8-0.6l1.5-0.3l3.3-0.7l3.3-0.7l1.5-0.3l1.9-0.4l0.7-0.3l0.6-0.5l1.2-1.1l1-0.9l1-0.9l1-0.9l0.9-0.9
			l1-0.9l0.9-0.9l1-0.9l1-0.9l0.9-0.9l1-0.9l0.9-0.9l1-0.9l1-0.9l1-0.9l0.9-0.9l1-0.9l0.9-0.8l0.6-0.5l1.2-1l1.1-0.9l1.1-0.9
			l1.1-0.9l1.1-0.9l1.5-1.3l2-1.2l1-0.6l1-0.6l1-0.6l1-0.6l1-0.7l1-0.6l1-0.6l1-0.6l1-0.6l1-0.6l1-0.7l1-0.6l1-0.7l1-0.6l1-0.6
			l1-0.6l1-0.7l1-0.6l1-0.7l1-0.6l1-0.7l1-0.7l1-0.6l1-0.6l1-0.7l1-0.7l1-0.6l1-0.6l1-0.7l1-0.6l1-0.7l1-0.7l1-0.6l1-0.7l1-0.7
			l1-0.7l1-0.6l1-0.6l1-0.7l1-0.6l1-0.7l1-0.7l1-0.6l1-0.7l1-0.7l1-0.7l1-0.7l1-0.7l1-0.7l1-0.7l1-0.7l1-0.7l1-0.7l1-0.7l1-0.7
			l1-0.7l1-0.7l1-0.7l1-0.7l1-0.7l1-0.7l1-0.7l1-0.7l1-0.7l-1.1-2.3L309.4,232.5z"/>
		<path fill="#006233" d="M156.7,10.2l-2.8,0.2l-0.6,0.2h-0.4l-0.4-0.1l-0.7-0.2l-0.3-0.1l-0.3,0.1l-0.9,0.4l-0.3,0.1h-0.3H149
			l-0.4,0.1l-0.6,0.3l-0.3,0.1h-1.1l-0.6,0.4l-0.7,0.2L145,12l-0.1,0.2l-0.1,0.2v0.2l-0.1,0.1l-0.2,0.2l-0.4,0.2l-0.2,0.2l-0.2,0.2
			l-1,0.3l-0.5,0.4l-0.2,0.1l-1.4,0.1l-0.3,0.1l-0.2,0.2l-0.2,0.3l-0.3,0.2l-0.6,0.2l-1.1,0.8l-0.2,0.2l-0.3,0.2l-0.3,0.1h-0.7
			l-0.4,0.1l-0.3,0.1l-0.1,0.2l-0.1,0.4v0.2l-0.1,0.1l-0.3,0.2l-0.1,0.1l-0.2,0.1l-1,0.3l-0.3,0.2l-0.7,0.8l-0.1,0.1l-0.1,0.1
			l-0.1,0.1l-0.1,0.1v0.2l-0.1,0.4l-0.5,1.2l-0.2,0.5l-0.5,1.1l-0.5,0.5l-0.6,0.5l-0.7,0.3l-0.6,0.1l-0.3-0.1l-0.7-0.3l-1.1-0.2
			l-0.4-0.2l-0.2-0.3v-0.2l0.1-0.3v-0.2l-0.1-0.1l-0.2-0.1l-0.2-0.1l-0.1-0.2l-0.2-0.1l-0.4,0.1l-0.6,0.3h-0.2h-0.3h-0.2h-0.1
			l-0.1-0.1h-0.1h-0.1v0.1v0.1v0.1l0,0v0.2l-0.7,1.5l-0.1,0.1l-0.2,0.1H122l-0.2-0.1h-0.2l-0.2,0.5l-0.3,0.2l-0.3,0.1l-0.3,0.1h-0.6
			h-0.1l-0.1-0.1l-0.1-0.2l-0.1-0.1l-0.2-0.1h-0.2l-0.3-0.1h-0.2l-0.2-0.1l-0.1-0.1l-0.1-0.1l-0.1-0.1l-0.4,0.1l-0.4,0.6l-0.6,0.3
			l-0.2,0.1l-0.1-0.1l-0.1-0.2h-0.2l-0.4,0.1l-0.2,0.2l-0.2,0.2l-0.3,0.2l-0.5,0.1l-0.1,0.1l-0.2,0.3l-0.5,0.4l-0.5,0.4l-0.4,0.6
			l-0.1,0.1h-0.4l-0.2,0.1l-0.1,0.2l-0.5,1.4l-0.2,0.3l-0.2,0.3l-0.2,0.9l-0.1,0.4l-0.2,0.2l-0.2,0.2l-0.3,0.2l-0.3,0.1l-0.4,0.5
			l-0.1,0.1h-0.1l-0.4,0.1l-1.4,0.2l-0.3,0.1l-1.8,1.5l-0.1,0.3l-0.2,0.1l-1,0.3l-0.5,0.6l-0.2,0.2h-0.2h-0.5h-0.1l-0.4,0.3
			l-1.4,0.4l-0.3,0.2h-0.1h-0.1l-0.3-0.1l-1,0.1l-0.5-0.1L97.9,37l-0.5-0.1L97,37.1V37l0,0h-0.1h-0.1l-0.3,0.1v0.7l0.1,0.5l0.3,0.4
			l0.5,0.2l0.6,0.4l0.5,0.4L99,40l0.7,0.1l0.2,0.1l0.1,0.2v0.3l0.1,0.3l0.2,0.2l0.8,0.5l0.5,0.5l1.6,1l0.3,0.3l-0.1,0.1l-0.2,0.2
			l-0.4,0.8l-0.8,1.2l-0.1,0.3l1.8,1.9l0.6,0.2l0.2,0.1l-1.6,2l0.6,0.7l0.4,0.8l1.1,3.3l0.1,0.5V56l-0.7,2.9l-0.1,0.8l0.1,0.9
			l0.2,0.5v0.2l-0.1,0.3l-0.2,0.2l-0.2,0.2l-0.1,0.2l-0.1,0.3l0.1,0.3l0.2,0.2l0.5,0.2l0.3,0.2l0.2,0.2l0.7,1.6l0.1,0.6l-0.2,0.5
			l-0.2,0.3l-0.3,1l-0.2,0.5l-0.2,0.5v1.8L105,71l0.8,0.7l0.3,0.5l0.2,0.6l0.3,0.4l0.4,0.4l0.4,0.3l0.3,0.2l0.1,0.4v0.4v0.4v0.2
			l-0.1,0.2l-0.1,0.1l-0.1,0.1l-0.6,0.5l2,3.4l0.5,0.4l1,0.4l4.2,3.2l0.2,0.4l-0.9,1l-0.5,0.4l-0.6,0.2l-0.6,0.1L112,86l-0.2,0.3
			l-0.2,0.3l-0.2,0.6l-0.3,1.8v0.1v0.1l-0.1,0.2l-0.1,0.1l-0.2,0.2l0,0c12.9-9,28.6-14.2,45.4-14.2V10.2H156.7z"/>
		<path fill="#006233" d="M112.1,155.5c0,28.6,18.7,52.7,44.6,60.9V179v-46.9V94.7C130.9,102.8,112.1,126.9,112.1,155.5z"/>
		<path fill="#006233" d="M76.9,155.5c0-26.3,12.7-49.6,32.3-64.2l0,0h-0.9h-1l-1.2-0.1l-1.2-0.1l-1.3-0.1l-1.3-0.1l-1.3-0.1
			l-1.3-0.1l-1.3-0.1l-1.2-0.1l-1.1-0.1h-1L93,90.3l-2.7,0.8l-2.8,0.2l-0.9,0.5l-0.3,1l-0.1,1.7L86,95.3l-0.5,0.5L84,96.3l-2.5,0.8
			l-2,0.7L78,98.6h-0.6l-0.6-0.1L75.6,98L75,97.9h-0.6L73.8,98l-0.5,0.3L73,98.9l-0.1,2.1l-0.1,0.7v0.5l0.2,0.4l0.4,0.2l0.7,0.3
			l0.2,0.1l0.1,0.1l0.1,0.2v0.1l-0.8,0.6l-0.2,0.2l-0.1,0.3l0.1,1.3v0.4l-0.3,0.5l-0.1,0.3l0.1,0.3l0.2,0.2h0.2l0.3-0.1l0.4-0.4
			l0.2-0.1l0.3,0.1l0.2,0.2l0.4,0.7l0.3,0.3l0.5,0.3l0.2,0.2l0.1,0.3l0.1,0.3v0.3v0.3l-0.1,0.3l-0.4,0.6l-0.8,0.3l-0.9,0.1h-1.5
			l-2.4,0.5l-0.5,0.2l-2.1,2.4l-0.5,0.4l-1.5,0.7l-1.8,1.1l-1.1,0.2l-0.9,0.1l-5.3,2l-0.3,0.2l-0.3,0.4l-0.9,1.5l-1.1,2.3l-0.8,1.1
			l-2.7,3l-0.9,0.8l-1.6,0.8l-0.4,0.4l-0.9,0.4l-2.9,0.3l-3.8,0.9l-0.6-0.1l-0.6-0.2l-0.6-0.1l-0.6,0.2l-0.3,0.2l-0.2,0.2l-0.2,0.2
			l-0.4,0h-0.3l-0.9-0.3h-0.3l-0.9,0.2l-0.3-0.1l-0.5-0.3l-0.3-0.1l-0.3,0.1l-0.2,0.2l-0.1,0.3l0.1,0.7v0.3l-0.2,0.6v0.4l-0.1,0.4
			l-0.2,0.4l-0.2,0.3l-1.1,0.8h-1.2l-2.5-0.7h-1.9l-1.8-0.4l-0.5,0.1l-2.4,1.4l-0.2,0.2l-1.1,1.4l-1.1,1l-0.3,0.1h-0.3h-0.3h-0.6H16
			l-0.5,0.2l-0.9,0.9l-0.2,0.2l-0.7,0.4l-0.9,0.9l-1.6,1.1l-1.5,1.3l-0.5,0.4l-1.7,0.8l-1,0.7l-1,1l-0.2,0.1l-0.5,0.2l-0.2,0.2
			l-0.5,0.9L3.9,148l-0.7,0.4l-0.7,0.5l-1.9,1l-0.3,0.2l-0.2,0.3L0,150.9v0.8v1v1v1v1v1v1v1v1v1v1v1v1v1v1v1v1v1.6v1.6v1.6v1.6l3,2
			l3,2l3,2l3,2l3,2l3,2l3,2l3,1.9l3,2l3,1.9l3,1.9l3,1.9l2.5,1.6l2.5,1.6l2.5,1.6l2.5,1.6l1.8,1.2l2.6,1.8l2.6,1.8l2.6,1.8l2.6,1.8
			l0,0l0,0l1.2,0.8l1.2,0.8l1.2,0.8l1.2,0.8l1.7,1.2l1.2,0.9l1.2,0.9l1.2,0.9l1.2,0.9l1.2,0.9l1.2,0.9l1.2,0.9l1.2,0.9l1.2,0.9
			l1.2,0.9l1.2,0.9l1.2,0.9l1.2,0.9l1.2,0.9l1.2,0.9l1.2,0.9l1.3,0.9l1.3,0.9l1.3,0.9l1.3,0.9l1.3,0.9l1.3,0.9l1.3,0.9l1.3,0.9
			l1.3,0.9l1.3,0.9l1.3,0.9l1.3,0.9l1.3,0.9l1.3,0.9l1.3,0.9l1.3,0.9l1.3,0.9l1.3,0.9l1.3,0.9l1.3,0.9l1.3,0.9l1.3,0.9l1.3,0.9
			l1.3,0.9l1.3,0.9l1.3,0.9l1.3,0.9l1.3,0.9l1.3,0.9l1.3,0.9l1.3,0.9l1.3,0.9l1.3,0.9l1.3,0.9l1.3,0.9l1.3,0.9l1.3,0.9l1.3,0.9
			l1.3,0.9l1.3,0.9l1.3,0.9l1.3,0.9l1.3,0.9l1.3,0.9l1.3,0.9l1.3,0.9l1.3,0.9l1.3,0.9l1.8,1.2l0.2,0.3l0.3,1v0.4l-0.2,1.8l-0.3,1.4
			v0.3v0.4l0.1,0.2l0.2,0.1h0.3h0.3l0.6-0.1h0.3l0.4,0.1l0.2,0.2l0.3,0.6l0.2,0.3l0.3,0.2l0.6,0.2l0.6,0.1l0.3,0.1l0.3,0.2l0.6,0.1
			l0.6,0.3l1,0.7l0.3,0.5l0.1,0.6v1.2l0.1,0.2l0.7,0.6V235C112.6,235.3,76.9,199.6,76.9,155.5z"/>
		<path fill="#D21034" d="M76.9,155.5c0,44.1,35.7,79.8,79.8,79.8c29.6,0,55.3-16.1,69.1-39.9c-11.7,14.6-29.7,24-49.9,24
			c-6.7,0-13.2-1-19.3-3c-25.8-8.2-44.6-32.3-44.6-60.9s18.7-52.7,44.6-60.9c6.1-1.9,12.6-3,19.3-3c20.2,0,38.2,9.4,49.9,24
			c-13.8-23.9-39.6-39.9-69.1-39.9c-16.9,0-32.5,5.3-45.4,14.2V90l0.1,0.3h0.2l0.6-0.2h0.3l0.3,0.1l0.2,0.2l0.1,0.4l-0.3,0.6
			l-0.6,0.1l-1.1-0.1H111h-0.4H110h-0.7C89.6,105.9,76.9,129.2,76.9,155.5z"/>
		<polygon fill="#D21034" points="156.7,179 184.3,170 201.3,193.5 201.3,164.5 228.9,155.5 201.3,146.5 201.3,117.5 184.3,141
			156.7,132 173.7,155.5 		"/>
	</g>
	<path vector-effect="none" fill="none" stroke="#999999" stroke-width="0.25" stroke-linecap="round" stroke-linejoin="round" d="
		M260.8,2.9v0.5v0.2v0.2l0.5,0.8v0.2L261,5l-1,0.4l-0.5,0.1h-0.6l-0.6,0.1l-0.5,0.2l-0.1,0.3l0.5,0.3l0.3,0.4l-0.1,0.7l-0.3,0.7
		l-0.3,0.4L256,9.7l-1,0.4l-0.4,0.3l-0.4,0.4v0.6l0.6,0.3l1.3,0.2l0.3,0.2l0.3,0.1l0.2,0.1l0.1,0.3V13v0.8l-0.1,0.4l-0.7,2l-0.1,0.8
		l0.1,0.4l0.1,0.3V18l-0.1,0.4l-0.2,0.3l-0.3,1.4v1l-0.4,1.4l-0.1,1.5l0.1,0.8l0.2,0.6l0.7,1.2l0.3,0.6l0.2,2.1v0.5l-0.5,1.3
		l-0.2,0.6v0.7l0.1,0.8l0.3,0.7l0.6,0.3l0.6,0.2l0.5,0.4l-0.1,0.4l-0.9,1.4l-0.7,0.8l-0.2,0.6l-0.3,1.3l-0.4,1l-0.2,0.7v0.7l0.3,1.8
		v0.2l-0.1,0.2l-0.5,0.5l-0.2,0.3V45l0.4,0.6l-0.1,0.2l-0.5,0.3l-0.1,0.1l-0.1,0.3l-0.1,0.1l-0.1,0.1l-0.4,0.2l-0.7,0.7l-1.4,0.7
		l-0.6,0.5l-1.3,0.6l-0.6,0.4l-0.3,0.6l-0.6,2.2l-0.1,0.3l-0.2,0.2l-0.3,0.2l-1,0.2l-0.6,0.3l-0.4,0.4l-0.4,0.5l-0.9,1l-0.2,0.5v1.3
		l-0.3,1.8L244,60l0.2,1l0.1,0.3l0.4,0.8l0.2,0.9l0.1,0.5l1,1.7l1.2,2l0.2,0.7v2.5l0.2,0.8l0.4,0.4l0.6,0.2l0.7,0.1l0.6,0.2l1.7,1.2
		l0.3,0.2l0.3,0.1h0.3l0.3-0.1l0.3,0.2l1.4,2.2l1.5,2.4l0.2,0.6l0.2,2.5l0.1,1.8l0.2,0.6l0.4,0.5l1.9,1.2l2.4,1.7l3.2,2.3l2.5,1.8
		l0.2,0.3l0.2,0.3l0.3,1.5l0.4,1.9l0.4,1.9l0.4,1.9l0.4,1.9l0.4,1.9l0.4,1.9l0.4,1.9l0.4,1.9l0.4,1.9l0.4,1.9l0.4,1.9l0.4,1.9
		l0.4,1.9l0.4,1.9l0.4,1.9l0.4,1.9l-3.5,1.9l0.4,0.6l1.7,2l1.9,2.9l1.8,3.3l2.4,8.3l0.3,2.6v3.3l-1.1,8.9l0.2,1l2.2,5.8v0.7
		l-1.1,3.5l-0.3,0.3l-0.4,0.2l-0.4,0.3v0.4l0.2,0.4l0.2,0.4l-0.1,0.3l-0.6,0.7l-0.2,0.4l-0.2,1l-0.3,0.7l-0.1,0.3v0.3l1.3,4.5
		l0.3,1.8l0.1,0.3l0.2,0.2l0.7,0.4l0.2,0.2l0.1,0.2l-0.4,1.8v0.6l0.2,0.5v0.4l-0.6,2.2l-0.3,0.3l-5.3,2.5v0.3l-0.1,0.3l-0.1,0.2
		l-0.5,0.5l-0.3,0.7l-0.2,0.3l-0.4,0.8l0.4,0.9l2.1,3l2.3,3.2l1.8,2.6l2.3,3.2l0.6,1.1l0.2,1l0.1,2.2l0.1,2.3v2.3l0.2,0.4l2.2,1.3
		l0.3,0.4l0.3,1.5l0.2,0.6l0.3,0.3l2,1.6l0.3,0.1l0.6-0.1l1.8-0.7l1.7-0.6h0.3l0.3,0.1l2.9,1l3.6,1.2l5.4,1.8l0.5,0.3l0.4,0.5
		l1.1,2.1l1.1,2.2l1.7,3.5l1.1,2.1l1.1,2.3l-1,0.7l-1,0.7l-1,0.7l-1,0.7l-1,0.7l-1,0.7l-1,0.7l-1,0.7l-1,0.7l-1,0.7l-1,0.7l-1,0.7
		l-1,0.7l-1,0.7l-1,0.7l-1,0.7l-1,0.7l-1,0.7l-1,0.7l-1,0.7l-1,0.7l-1,0.6l-1,0.7l-1,0.7l-1,0.6l-1,0.7l-1,0.6l-1,0.6l-1,0.7l-1,0.7
		l-1,0.7l-1,0.6l-1,0.7l-1,0.7l-1,0.6l-1,0.7l-1,0.6l-1,0.6l-1,0.7l-1,0.7l-1,0.6l-1,0.6l-1,0.7l-1,0.7l-1,0.6l-1,0.7l-1,0.6l-1,0.7
		l-1,0.6l-1,0.6l-1,0.6l-1,0.7l-1,0.6l-1,0.7l-1,0.6l-1,0.6l-1,0.6l-1,0.6l-1,0.6l-1,0.7l-1,0.6l-1,0.6l-1,0.6l-1,0.6l-2,1.2
		l-1.5,1.3l-1.1,0.9l-1.1,0.9l-1.1,0.9l-1.1,0.9l-1.2,1l-0.6,0.5l-0.9,0.8l-1,0.9l-0.9,0.9l-1,0.9l-1,0.9l-1,0.9l-0.9,0.9l-1,0.9
		l-0.9,0.9l-1,0.9l-1,0.9l-0.9,0.9l-1,0.9l-0.9,0.9l-1,0.9l-1,0.9l-1,0.9l-1.2,1.1l-0.6,0.5l-0.7,0.3l-1.9,0.4l-1.5,0.3l-3.3,0.7
		l-3.3,0.7l-1.5,0.3l-2.8,0.6l-2.9,0.6l-2.8,0.6l-2.8,0.6l-2.6,0.5l-2.6,0.5l-2.6,0.5l-2.6,0.5l-1.6,0.3l0,0l-1.2,0.3h-0.4h-0.2
		l-0.2-0.1l-0.4-0.2l-0.9-0.9l-0.7-0.3l-0.3-0.2l-0.3-0.2l-0.3-0.3l-0.3-0.4v-0.3l0.1-0.3l0.2-0.3l0.1-0.3l0.1-0.1l0.2-0.1l0.3-0.3
		l0.1-0.3l0.1-0.6l0.1-0.3l0.3-0.2l0.3-0.2l0.3-0.2l0.1-0.4v-0.3l-0.2-0.3l-0.2-0.2l-0.1-0.3v-0.2l0.1-0.3v-0.1l-0.1-0.1l-0.1-0.1
		h-0.1l-0.1-0.1l-0.2-0.6v-0.6l0.3-3.2l-0.1-0.2l-0.2-0.2l-0.2-0.1l-0.5-0.2l-0.2-0.1l-0.9-0.7l-1.9-0.8l-4.1-0.9h-0.8l-1.4-0.3
		h-0.2l-0.3-0.1l-0.5-0.3l-0.3-0.1l-0.4-0.1l-0.2-0.1l-0.2-0.2l-0.6-1.1l-0.5-0.7l-0.6-0.6l-0.9-0.7l-0.3-0.2l-0.3-0.1l-0.3,0.1
		l-0.3,0.2l-0.6,0.6l-0.4,0.2H163l-1-0.3l-0.2-0.1l-0.1-0.1l-0.1-0.1h-0.2l-0.2,0.1l-0.3,0.2l-0.2,0.1h-0.3l-0.1-0.2l-0.1-0.3
		l-0.1-0.3l-0.2-0.2h-0.2h-0.3h-0.3l-0.3-0.2l-1.8-1.5l-0.1-0.2v-1.2l-0.1-0.6l-0.3-0.5l-1-0.7l-0.6-0.3l-0.6-0.1l-0.3-0.2l-0.3-0.1
		l-0.6-0.1l-0.6-0.2l-0.3-0.2l-0.2-0.3l-0.3-0.6l-0.2-0.2l-0.4-0.1h-0.3l-0.6,0.1h-0.3h-0.3l-0.2-0.1l-0.1-0.2v-0.4v-0.3l0.3-1.4
		l0.2-1.8v-0.4l-0.3-1l-0.2-0.3l-1.8-1.2l-1.3-0.9l-1.3-0.9l-1.3-0.9l-1.3-0.9l-1.3-0.9l-2.3-2.3l-1.3-0.9l-1.3-0.9l-1.3-0.9
		l-1.3-0.9l-1.3-0.9l-1.3-0.9l-1.3-0.9l-1.3-0.9l-1.3-0.9l-1.3-0.9l-1.3-0.9l-1.3-0.9l-1.3-0.9l-1.3-0.9l-1.3-0.9l-1.3-0.9l-1.3-0.9
		l-1.3-0.9l-1.3-0.9l-1.3-0.9l-1.3-0.9l-1.3-0.9l-1.3-0.9l-1.3-0.9l-1.3-0.9l-1.3-0.9l-1.3-0.9l-1.3-0.9l-1.3-0.9l-1.3-0.9l-1.3-0.9
		l-1.3-0.9l-1.3-0.9l-1.3-0.9l-1.3-0.9l-1.3-0.9l-1.3-0.9l-1.3-0.9l-1.3-0.9l-1.3-0.9l-1.3-0.9l-1.3-0.9l-1.2-0.9l-1.2-0.9l-1.2-0.9
		l-1.2-0.9l-1.6-1.6l-1.2-0.9l-1.2-0.9l-1.2-0.9l-1.2-0.9l-1.2-0.9l-1.2-0.9l-1.2-0.9l-1.2-0.9l-1.2-0.9l-1.2-0.9l-1.2-0.9l-1.7-1.2
		l-1.2-0.8l-1.2-0.8l-1.2-0.8l-1.2-0.8l0,0l0,0l0,0l-2.6-1.8l-2.6-1.8l-2.6-1.8l-2.6-1.8l-1.8-1.2l-2.5-1.6l-2.5-1.6l-2.5-1.6
		l-2.5-1.6l-3-1.9l-3-1.9l-3-1.9l-3-2l-3-1.9l-3-2l-3-2l-3-2l-3-2l-3-2l-3-2l-3-2v-1.6v-1.6V169v-1.6v-1v-1v-1v-1v-1v-1v-1v-1v-1v-1
		v-1v-1v-1v-1v-1v-1v-0.8l0.1-0.5l0.2-0.3l0.3-0.2l1.9-1l0.7-0.5l0.7-0.4l0.2-0.2l0.5-0.9l0.2-0.2l0.5-0.2l0.2-0.1l1-1l1-0.7
		l1.7-0.8l0.5-0.4l1.4-1.3l1.6-1.1l0.9-0.9l0.7-0.4l0.2-0.2l0.9-0.9l0.5-0.2h0.7l0.7,0.1h0.3h0.3l0.3-0.1l1.1-1l1.1-1.4l0.2-0.2
		l2.4-1.4l0.5-0.1l1.8,0.4H27l2.5,0.7h1.2l1.1-0.8l0.2-0.3l0.2-0.4l0.1-0.4v-0.4l0.2-0.6V132l-0.1-0.7l0.1-0.3l0.2-0.2l0.3-0.1
		l0.3,0.1l0.5,0.3l0.3,0.1L35,131h0.3l0.9,0.3h0.3l0.3-0.1L37,131l0.2-0.2l0.3-0.2l0.6-0.2l0.6,0.1l0.6,0.2l0.6,0.1l3.8-0.9l2.9-0.3
		l0.9-0.4l0.4-0.4l1.6-0.8l0.9-0.8l2.6-2.8l0.8-1.1l1.1-2.3l0.9-1.5l0.3-0.4l0.3-0.2l5.3-2l0.9-0.1l1.1-0.2l1.8-1.1l1.5-0.7l0.5-0.4
		l2.1-2.4l0.5-0.2l2.4-0.5H74l0.9-0.1l0.8-0.3l0.4-0.6l0.1-0.3v-0.3v-0.3l-0.1-0.3l-0.1-0.3l-0.2-0.2l-0.5-0.3L75,108l-0.4-0.7
		l-0.2-0.2l-0.3-0.1l-0.2,0.1l-0.4,0.4l-0.3,0.1H73l-0.2-0.2l-0.1-0.3l0.1-0.3l0.3-0.5v-0.4l-0.1-1.3l0.1-0.3l0.2-0.2l0.8-0.6v-0.1
		l-0.1-0.2l-0.1-0.1l-0.2-0.1l-0.7-0.3l-0.4-0.2l-0.2-0.4v-0.5l0.1-0.7l0.1-2.1l0.3-0.6l0.5-0.3l0.6-0.1h0.6l0.6,0.1l1.2,0.5
		l0.6,0.1h0.6l1.5-0.8l2-0.7l2.5-0.8l1.5-0.5l0.5-0.5l0.2-0.8l0.1-1.7l0.3-1l0.9-0.5l2.8-0.2l2.7-0.8l2.1,0.1h1l1.1,0.1l1.2,0.1
		l1.3,0.1l1.3,0.1l1.3,0.1l1.3,0.1l1.3,0.1l1.2,0.1l1.2,0.1h1h0.9h0.8h0.6h0.4h0.1l1.1,0.1l0.6-0.1l0.3-0.6l-0.1-0.4l-0.2-0.2
		l-0.3-0.1h-0.3l-0.6,0.2H111l-0.1-0.3l0.1-0.1l0.2-0.2l0.1-0.1l0.1-0.2v-0.1V89l0.3-1.8l0.2-0.6l0.2-0.3l0.2-0.3l0.2-0.1l0.6-0.1
		l0.6-0.2l0.5-0.4l0.9-1l-0.2-0.4l-4.2-3.2l-1-0.4l-0.5-0.4l-2-3.4l0.6-0.5l0.1-0.1l0.1-0.1l0.1-0.2v-0.2v-0.4v-0.4l-0.1-0.4
		l-0.3-0.2l0-0.4l-0.4-0.4l-0.3-0.4l-0.2-0.6l-0.3-0.5l-0.8-0.7l-0.1-0.6v-1.8l0.2-0.5l0.2-0.5l0.3-1l0.2-0.3l0.2-0.5l-0.1-0.6
		l-0.7-1.6l-0.2-0.2l-0.3-0.2l-0.5-0.2l-0.2-0.2l-0.1-0.3l0.1-0.3l0.1-0.2l0.2-0.2l0.2-0.2l0.1-0.3V61l-0.2-0.5l-0.1-0.9l0.1-0.8
		l0.7-2.9v-0.4l-0.1-0.5l-1.1-3.3l-0.4-0.8l-0.6-0.7l1.6-2l-0.2-0.1l-0.6-0.2l-1.8-1.9l0.1-0.3l0.8-1.2l0.4-0.8l0.2-0.2l0.1-0.1
		l-0.3-0.3l-1.6-1l-0.5-0.5l-0.8-0.5l-0.2-0.2l-0.1-0.3v-0.3l-0.1-0.2l-0.2-0.1l-0.7-0.1l-0.5-0.3l-0.5-0.4l-0.6-0.4l-0.5-0.2
		l-0.3-0.4l-0.1-0.5V37l0.3-0.1h0.1h0.1l0,0V37l0.4-0.2l0.5,0.1l0.5,0.2l0.5,0.1l1-0.1l0.3,0.1h0.1h0.1l0.3-0.2l1.4-0.4l0.4-0.3h0.1
		h0.5h0.2l0.2-0.2l0.5-0.6l1-0.3l0.2-0.1l0.1-0.3l1.8-1.5l0.3-0.1l1.4-0.2l0.4-0.1h0.1l0.1-0.1l0.4-0.5l0.3-0.1l0.3-0.2l0.2-0.2
		l0.2-0.2l0.1-0.4l0.2-0.9L112,30l0.2-0.3l0.5-1.4l0.1-0.2L113,28h0.4l0.1-0.1l0.4-0.6l0.5-0.4l0.5-0.4l0.2-0.3l0.1-0.1l0.5-0.1
		l0.3-0.2l0.2-0.2l0.2-0.2l0.4-0.1h0.2l0.1,0.2l0.1,0.1l0.2-0.1l0.6-0.3l0.4-0.6l0.4-0.1l0.1,0.1l0.1,0.1l0.1,0.1l0.2,0.1h0.2
		l0.3,0.1h0.2l0.2,0.1l0.1,0.1l0.1,0.2l0.1,0.1h0.1h0.6l0.3-0.1l0.3-0.1l0.3-0.2l0.2-0.5h0.2l0.2,0.1h0.2l0.2-0.1l0.1-0.1l0.7-1.5
		v-0.2l0,0v-0.1v-0.1v-0.1h0.1h0.1l0.1,0.1h0.1h0.2h0.3h0.2l0.6-0.3l0.4-0.1l0.2,0.1l0.1,0.2l0.2,0.1l0.2,0.1l0.1,0.1V23l-0.1,0.3
		v0.2l0.2,0.3l0.4,0.2l1.1,0.2l0.7,0.3l0.3,0.1l0.6-0.1l0.7-0.3l0.6-0.5l0.5-0.5l0.5-1.1l0.2-0.5l0.5-1.2l0.1-0.4v-0.2l0.1-0.1
		l0.1-0.1l0.1-0.1l0.1-0.1l0.7-0.8l0.3-0.2l1-0.3l0.2-0.1l0.1-0.1l0.3-0.2l0.1-0.1v-0.2l0.1-0.4l0.1-0.2l0.3-0.1l0.4-0.1h0.7
		l0.3-0.1l0.3-0.2l0.2-0.2l1.1-0.8l0.6-0.2l0.3-0.2l0.2-0.3l0.2-0.2l0.3-0.1l1.4-0.1l0.2-0.1l0.5-0.4l1-0.3l0.2-0.2l0.2-0.2l0.4-0.2
		l0.2-0.2l0.1-0.1v-0.2l0.1-0.2l0.1-0.2l0.3-0.1l0.7-0.2l0.6-0.4h1.1l0.3-0.1l0.6-0.3l0.4-0.1h0.7h0.3l0.3-0.1l0.9-0.4l0.3-0.1
		l0.3,0.1l0.7,0.2l0.4,0.1h0.4l0.6-0.2l3-0.2h0.2l0.4-0.2h0.2h0.1l0.3,0.1h0.2l0.8-0.2h0.8l0.7,0.1h0.2l1.3-0.2l3.8-1.1l0.3-0.1h0.3
		l0.3,0.1l0.3,0.2l0.1,0.2v0.2l0.1,0.1l0.2,0.1h0.2l0.3,0.1h0.1l2.2-0.1l0.5-0.2l1.4-1.1l1-0.5l0.4-0.3l0.4-0.6l0.1-0.3l0.4-0.4
		l0.9-0.6l0.7-0.1l0.6,0.1l0.5,0.3l0.4,0.4l0.4,0.4l0.6,0.2h0.6l0.5-0.3l0.2-0.3l0.1-0.3V5.3h0.2l1,0.5l0.6,0.2l1.8,0.1h0.3l0.6-0.2
		h0.3l0.2-0.1l0.1-0.1l0.1-0.1l0.1-0.1h0.2h0.3h0.2l0.6-0.3l0.9-0.9l0.5-0.3l1.3-0.4l0.7-0.1l0.6,0.1l0.5,0.3h0.2h0.2l0.3-0.1h0.5
		l0.8,0.1l0.3,0.2l0.6-0.3h0.2h0.2l0.4,0.2h0.2l0.2-0.1l0.4-0.3l0.2-0.1h0.2l0.4,0.2h0.2l1.8-0.3h0.2l0.2,0.1l0.2,0.1l0.1,0.1
		l0.2,0.1h0.5l0.2,0.1l0.5-0.2h0.6l1.1,0.1l1.1-0.1h0.3l2.4,1L207,5l0.1,0.1h0.2h0.2h0.1l0.1,0.1l0.1,0.2l0.1,0.1l0.3,0.1l0.3,0.1
		l0.3,0.1h0.3l-0.3,0.9l0.1,0.3l0.4,0.3l1.8,0.9l0.5,0.1h0.5l1-0.1l0.9-0.3h0.5h0.1l0.2-0.2l0.1-0.1l0.6-0.2l0.3-0.2l0.2-0.7
		l0.2-0.3l0.3-0.2l0.3-0.1l0.7-0.2l0.3-0.1l0.5-0.5l0.4-0.1h0.4l1,0.2h0.6l2.5-0.6l2.4-0.9l0.6-0.4l0.3-0.5V2.4l-0.1-0.3V1.8
		l0.2-0.4l0.1-0.1l0.6-0.5l0.2-0.3l0.1-0.1l0.5-0.3l0.7-0.2h0.7l0.6,0.2l0.5,0.4h0.1v0.2v0.1l0.1,0.1h0.1l0.2,0.1l0.2,0.7l0.2,0.3
		l0.2-0.1L232,2l0.3,0.2l0.3,0.1l2.3,0.1l0.2,0.1l0.3,0.2l0.3,0.2l0.2,0.2v0.3l0.4,0.2l0.6,0.1h0.4l1.3-0.4l0.4-0.2l0.2,0.1l0.4,0.1
		h0.4l0.2-0.1l0.1-0.2l0.6-0.5l0.2-0.1l0.1-0.1l0.1-0.2l0.1-0.2V1.7V1.5l-0.1-0.1l-0.6-0.6l-0.4-0.4V0.3h0.2l0.3-0.1h0.2h0.2
		l0.3,0.2h0.1h0.1l0.1,0.1h0.1l0.1-0.1l0.1-0.1h0.1h0.1l0.1,0.1l0.3,0.2h0.2h0.1l0.4-0.2h0.2l0,0v0.1l0.1,0.2l0.1,0.2l0.1,0.1
		l0.2,0.1h0.3h0.1l0.1,0.1l0.3-0.1l0.3-0.1l0.5,0.4l0.4,0.5l0.5,0.4l0.7,0.1h0.1l0.1-0.1h0.1h0.2l0.2,0.1l0.2,0.1l0.1,0.1l0.1,0.1
		l0.7-0.1l0.1-0.1l0.3-0.3l0.1-0.1l-0.1,0.4l-0.2,0.4l-0.1,0.4l0.3,0.2L249.2,4l0.6,0.4l0.8,0.3l0.6,0.1l2.1-0.5l0.3-0.2l0.3-0.3
		l2.1-1.1l0.3,0.2l0.3,0.3l0.3,0.1h0.7h0.3l0.3,0.1l0.2-0.1l0.2,0.1l0.2,0.2l0.2,0.1h0.5h0.5L260.8,2.9"/>
</g>
</svg>
