<?xml version="1.0" encoding="utf-8"?>

<svg version="1.2" baseProfile="tiny" xmlns="http://www.w3.org/2000/svg" xmlns:xlink="http://www.w3.org/1999/xlink" x="0px"
	 y="0px" viewBox="227.9 172.5 384.4 250" xml:space="preserve">

<g id="Estonia">
	<g>
		<polygon fill="none" points="479.8,343.6 480.8,344.5 482,346 482.5,347.4 482.7,350.6 483.6,353.5 483.9,355.2 484.3,356
			485.1,355.1 485.6,353.2 485.2,351.9 484.6,350.4 484.4,348.3 484.9,346.5 485.8,345.1 486.9,343.9 487.8,342.7 488.2,341.3
			488.3,341.1 488.5,339.6 488.5,336 489.2,328.7 489,325.7 487.3,323 486,321.4 484.3,320.4 482.3,320.1 480.6,320.1 478.8,320.8
			478,322.3 477.5,324.3 476.6,326.7 475,328.9 474.7,329.9 474.9,331.3 475.3,332.2 475.7,332.8 475.8,333.8 476.3,335.1
			479.6,339.6 479.5,341.3 479.4,342.4 		"/>
		<polygon fill="#4891D9" points="322.1,252.4 321.9,251.1 320.4,248.6 319.2,247.3 317.8,247.3 315.1,248.1 310.9,246.7
			308.7,246.5 307.3,246.7 306.3,247.1 305.5,247.9 305.2,249.3 305.5,250 306.5,252.7 322,252.7 		"/>
		<polygon fill="#4891D9" points="610,205.5 609.3,204.7 608.7,203.6 607.3,200 606,198.6 603.3,197.2 602.2,195 599.8,199.3
			598,201.5 595.6,203.1 593.1,203.9 583.6,201.6 574.3,201 565,198.6 556.8,199.3 547.2,199.9 536.4,198.9 535.2,198.4
			532.7,196.8 529.7,195.7 524.4,189.9 522.2,188.1 519.9,186.8 517.6,186.1 515.1,185.9 514.2,186.2 512.2,187.9 511.2,188.3
			509.8,188.2 507.4,187.5 504,185.5 500.2,184.6 497.7,182.9 496.6,182.5 485.2,182.7 484.6,182.5 484.6,181.6 484.5,180.9
			484.2,180.5 482,178.2 479.9,177 479.1,176.8 478.4,177.2 477.6,178.4 477.6,179.5 477.8,180.5 477.6,181.3 476.4,181.6
			475.3,180.3 474,178.1 472.7,177.2 471.8,180 472.3,180.8 471.4,182.6 470.4,183.7 469.3,183.9 468.2,183.3 467.4,182
			466.9,179.1 466.1,177.6 466.6,176.7 463.2,173.1 461.4,172.5 460,174.3 460.3,174.5 460.8,174.9 461.2,175 460.9,177.5
			461.5,179 462.4,180.4 462.9,182.4 462.1,184.6 460.4,185 458.4,184.3 457,183.3 455.2,180.2 454.2,178.9 452.9,178.4
			451.8,177.5 449.8,173.5 448.7,172.6 448.3,174.8 448.6,179.6 449.5,184.4 451.2,186.6 451.8,187 452.3,187.8 452.3,188.7
			451.7,189.1 446.1,189.1 444.6,189.7 443.8,191.2 444.2,193.9 444.1,193.9 431.1,190.2 428.2,188.2 426.7,188.1 425.9,189.4
			426.4,192.5 425.3,193.1 424,192.7 421.5,191 420,190.7 415.3,191.9 413.8,191.5 409.7,186.4 407.3,184.5 405.5,185.8
			405.7,186.7 405.9,187.5 406,188.3 406,189.4 406.2,190.5 406.6,191.1 407.2,191.6 407.6,192.3 408.1,194.2 407.9,194.8
			406.6,197.7 406.2,198.3 405.5,198.8 403.8,199.2 402.8,197.8 402.1,195.7 401,193.9 400.3,193.5 399.7,193.3 399.1,193.8
			398.9,195.1 398.7,196.1 398.1,196.4 396.5,196.3 396.5,197.3 397.6,197.7 398.6,198.8 398.8,199.9 397.8,200.4 396.7,200.1
			393.2,197.6 392,197.2 391.1,198 390.1,198.9 389,199.5 387.8,198.9 385.6,196.4 384.4,195.4 383,195.3 379,196.3 378.8,197.1
			378.1,201 377.4,202.4 375.3,203.3 370,203.7 368.8,204.4 370.2,205.8 371.8,208 372.3,210.1 370.7,211 368.9,210.2 365.5,206.6
			363.7,205.3 362.7,205 361.8,205.3 360.9,206.1 360.2,207.3 360,208.6 360.5,209.8 364.4,215.1 365,217.3 363.7,220 361.2,217.4
			358.2,217.7 355,219 352.2,219.2 349.5,218.5 344.2,218.7 342.8,219.3 342.1,220.9 342.9,221.5 343.3,222.7 343.3,224 342.6,225
			341.7,224.9 338.4,221.8 337.2,221.8 336.4,222.7 335.6,223.7 334.2,224.4 333.4,225.5 332.8,225.7 332.2,225.6 330.9,225
			330.2,225 326.8,227.1 327.8,231.6 329.7,237.4 329.7,243.5 328.6,242 328,241.7 327.4,242.2 324.6,245.5 324.3,247 324.7,249.1
			324.3,249 323.4,249.1 323,249 324.6,251.5 326,252.7 332.1,252.7 333.3,251.1 333.8,250.8 334.8,250.7 335.4,250.4 334.6,248.9
			332.9,247.1 332.1,245.6 333.5,246.6 334.9,248 335.9,250.1 336.2,252.7 555.5,252.7 557.8,251.7 573,250 583.7,252.4
			584.3,250.2 586.9,245.3 587.9,242.8 591.4,232.9 592.3,229.1 593.3,224.1 594.3,221.6 593.8,219.6 593.9,219.4 593.9,219.4
			595.2,217.7 598.5,215.8 605.6,215.9 606.7,214.4 605.4,214.5 601,212.7 601.1,212.6 601,212.6 602.9,211.6 607.8,211.2
			610.5,209 611.9,209.9 612.2,207.7 611.5,206.9 		"/>
		<polygon fill="#4891D9" points="280,242.5 278.2,241.9 276.6,241.6 274,241.2 273.4,241.5 272.8,242.5 272.7,243.5 272.7,244.4
			272.5,245.5 271.7,247.2 270.8,248.2 269.7,248.6 268.3,248.7 267.3,249.8 267.3,252.7 292.1,252.7 288.5,250.9 282.4,251.3
			281.4,250.5 280.3,248.9 279.7,247 281,243.7 		"/>
		<polygon fill="#4891D9" points="391.7,187.1 392.1,185.9 391,182.8 390.1,181.1 389.1,181.4 388.3,183.5 388.4,185.7 390.1,187.5
					"/>
		<polygon points="264.5,340.7 265.5,339.9 266.6,339.5 267.4,339.5 267.4,339.9 267.7,341.3 268.9,341.3 269,341.2 269.6,339.2
			270.1,338.5 270.9,339.2 271.6,340.4 271.9,340.6 272.3,340.1 273.2,339.2 274.2,338.7 275.3,338.6 276.5,338.9 277.4,339.5
			278,341.3 281.9,341.3 283.5,339.8 280.7,338 281.4,336.6 282.7,336.2 285.5,336.5 286.8,336.3 287.7,335.7 289.5,333.4
			290.5,332.7 291.5,332.4 292.4,331.9 296.4,326.3 295.1,324.9 295.6,323.9 296.9,323.8 299.6,325.9 300.8,324.9 302.1,323.3
			303.5,322.3 303.3,321.7 303.2,321 303.1,320.2 303.1,319.5 303.3,318.2 303.9,318 304.5,318.2 304.9,318.3 305.8,317.6
			306.1,317.1 306.6,316.3 306.8,315.7 307.1,314 307.2,313.5 307.6,312.9 307.7,312.7 308.6,312.7 309.2,313 309.6,313.7
			309.8,314.6 310,315.1 311.2,316.3 312.4,317 315,317.4 314.6,316.3 314.1,315.7 313.4,315.3 312.6,315.1 314.1,314.1
			317.9,316.8 318.4,315.1 317.5,313.3 315.7,311.5 313.7,310.1 312.2,309.6 309.6,309 307.2,307.7 306.3,306.8 305.8,306.1
			304.9,303.8 303.7,302 300.4,300.5 297.6,298.5 294.9,297.5 293.5,296.6 292.2,296.3 289,297.2 286.8,296 285.5,296.9
			283.5,299.5 282.3,300 281.3,299.6 280.3,298.9 279.1,298.5 278.7,298.8 277.6,299.8 277,300.1 276.6,299.8 275.9,298.8
			275.6,298.5 274.9,297.9 273.7,295.2 273.1,294.6 271.1,295.2 265.8,299.5 257.3,300.4 255.2,302.2 255,304.5 254.9,307.7
			254.3,309.9 252.5,309.6 251.6,309 251.4,308.3 251.3,306.9 251.2,306.4 251,305.7 250.8,305.1 250.6,304.9 249.5,304.9
			249.1,305.3 248.8,306.1 248.1,307.7 247.3,308.7 245.4,309.7 244.6,310.5 244,311.7 243.7,313 243.4,316 243.7,317.7
			243.7,318.7 243.2,319.2 242.8,319.2 242.5,319 242.2,318.6 242.2,317.9 242,316.3 241.6,315.1 239,310.2 237.4,308.7 235.7,308
			233.4,308 233.1,308.7 233.1,309.3 233,309.6 232,310 231.1,310 227.9,308.6 229.5,310.8 231.2,312.5 232,313.5 233.4,316
			234.7,317.7 237.4,323 238.1,325.5 238.7,326.8 237.4,326.3 236,326.7 235.2,327.9 235.8,329.9 234.6,330.8 233.6,329.9
			232.7,328.4 231.6,327.6 230.3,328.1 230.7,329.5 231.7,331.3 232.4,333.1 229.2,332.2 228.5,332.7 228.5,333.7 228.9,335.1
			229.9,337 231.7,338.6 233.6,339.3 237.6,339.3 239,340.5 239.3,341.3 264,341.3 		"/>
		<polygon points="308.2,255.5 308.9,255.6 311.1,255.1 311.4,254.6 311.5,254 311.9,253.8 313.2,254.1 315.3,255.3 316.5,255.3
			318.3,254 318.9,253.8 319.5,254 320.3,254.6 321,254.8 321.6,254.2 322,252.7 306.5,252.7 307.3,254.9 		"/>
		<polygon points="321.4,300.9 320.9,300.1 319.8,298.8 319.3,297.8 319.2,296.8 319.4,295.6 319.4,294.6 319.1,293.4 318.2,292.5
			315.7,290.9 310.3,289.3 309,289.2 307.7,289.8 306.5,291.4 306.2,292.2 305.8,294.7 305.6,295.3 304.7,295.7 302.8,295
			302,295.6 301.8,298.1 303.3,299.6 306.4,300.8 311.8,306 312.5,306.1 314.3,305 315.1,304.7 317.3,304.9 318.3,305.2
			319.3,305.9 320.2,306.3 320.8,305.6 321.2,304.6 322.4,303.7 322.3,302.8 		"/>
		<polygon points="267.3,253.9 266.7,254 265.3,253.2 264.5,253.5 264.6,254.3 265.8,255.2 248,257.6 243.5,256.9 241.2,257.3
			240.5,259.3 241.6,260.5 249.5,264.9 251.4,265.1 255.4,264.1 257.5,263.9 259.2,264.5 260.9,265.6 263.8,269.1 264.4,270.4
			264.5,272.1 264.5,274.9 265,276.8 265.9,279.1 267,281.3 267.9,282.5 266.9,284 266.4,284.5 265.8,284.9 268.2,287.4
			271.5,288.3 274.8,288 277.5,286.5 279.1,284 281.1,277.2 282.4,274.4 283.4,273.4 284.8,272.4 286.4,271.7 287.4,271.8
			287.8,273 286.9,274 285.6,275 284.9,276.2 285.6,277.5 287.2,278.1 289,278 290,277.3 290.7,276.6 291.2,276.6 291.5,276.3
			291.5,274.9 291.5,273.8 291.2,273.2 290.9,272.9 290.3,272.9 291.1,271.5 292.1,271.2 293.1,271.2 294.1,270.6 294.9,271.3
			295.2,270.9 295.3,270.2 295.8,269.8 296.4,269.9 297,270.2 299.5,271.9 300.4,271.8 300.8,270.5 300.7,268.2 300.5,268.1
			300.1,268.1 299.7,267.9 299.5,267.1 299.5,265.8 299.5,265.2 299.3,264.7 298.8,264 298,263 297.6,262.3 297.1,261.6
			295.8,260.6 295.3,259.4 295.1,258.4 295.4,256.5 295.3,255.3 294.4,253.8 292.1,252.7 267.3,252.7 		"/>
		<polygon points="336.3,252.9 336.3,254.3 336.1,255.1 335.7,255.7 333.7,257.4 332.6,257.8 331.6,257.7 330.5,257 329.2,258.7
			325.2,258.4 323.9,260.3 323.9,262.6 325.9,265.6 326.4,267.8 330.1,272.8 329.7,273.7 327.7,274 326.5,275.1 324.3,279.3
			327.7,277.8 328.8,277.6 330.7,278.1 331.1,278.1 331.6,277.5 332.2,276.9 333.4,276.2 334.8,275.9 339.2,276.2 342.1,275.2
			343.3,275.3 344.4,276.8 346,275 347.9,275.1 349.8,276.5 351.5,278.4 350.4,278.2 348,276.9 347,276.8 346.2,277.6 345.8,279
			346,280.2 346.9,280.7 347.3,281.1 347.4,281.9 347.3,282.8 347.2,283.2 345.2,283.2 344.3,282.9 341.9,281.3 340.7,280.9
			338.3,281.1 336.1,281.9 333.8,282.3 331.5,281.2 330.7,281.2 330.3,282.5 330.5,284 331.5,285 331.5,285.5 331.3,286.1
			330.8,286.3 329.5,285.8 329,286 328.4,287 328.1,289.7 328.6,292.8 329.3,295.6 329.7,297.8 329.3,298.9 328.8,300.1
			328.4,301.4 328.7,302.5 329.6,303.4 330.1,302.9 330.6,301.7 331.4,300.5 332.3,300.1 332.5,300.8 332.6,302.1 333.1,303.7
			333.8,304.5 334.9,305.6 336.1,306.4 336.9,306.5 338.6,305.5 339.5,306.9 339.9,309.7 339.8,313.1 339.4,316 339.4,317.2
			339.8,318.7 340.5,319.8 341.3,320.4 342,321.4 342.3,323.1 342.4,324.3 342.6,325.6 342.9,326.9 343.3,327.9 343.7,328.4
			344.2,328.2 344.6,327.8 344.9,327.1 345.5,326.5 346.1,326.8 346.7,327.2 347.2,327.5 347.7,327.3 348.1,326.9 348.4,326.6
			349,326.7 349.3,327 350,328 350.3,328.4 351.4,328.9 353.9,329.1 357.9,330.9 359.5,332.9 362.3,335.5 364.1,338.6 364.8,339.3
			365.9,339.8 366.4,339.3 367.5,336.7 368.5,335.7 369.5,335.7 371.7,336.3 372.8,336 373.6,335.4 374.4,334.3 376.2,330.9
			376.4,330 376.5,328.1 376.7,326.8 377.3,325.2 378,323.9 378.6,323 380.8,321.9 383.3,322.1 385.8,323.2 390.9,327.3
			392.2,329.3 392.7,331.7 392,334.4 390.4,335.9 388.5,337.1 387.3,338.8 387.1,340.1 387.1,341.3 479.5,341.3 479.6,339.6
			476.3,335.1 475.8,333.8 475.7,332.8 475.3,332.2 474.9,331.3 474.7,329.9 475,328.9 476.6,326.7 477.5,324.3 478,322.3
			478.8,320.8 480.6,320.1 482.3,320.1 484.3,320.4 486,321.4 487.3,323 489,325.7 489.2,328.7 488.5,336 488.5,339.6 488.3,341.1
			488.2,341.3 568.7,341.3 568.6,338.7 568.5,338 567.8,337.5 565.4,334.1 565.8,332.8 565.7,331.7 565.3,330.7 565,329.4 565,327
			565.3,326.2 565.7,325.6 566,325 565.5,324.3 564.6,323.5 560.4,321.2 557.7,321.1 556.4,320.7 554.9,318.9 554.5,316.4
			554.6,310.8 554.5,307.7 552.5,297.5 550.3,291.2 546.5,283.8 545,281.8 539.3,277.8 537.8,275.8 537.3,273 537.6,269.6
			538.3,266.4 539.2,264.2 541.1,261 543.1,258.4 545.3,256.6 555.5,252.7 336.2,252.7 		"/>
		<polygon points="326.2,252.9 330.1,253.9 330.5,254.3 330.8,254.9 331.2,255.5 331.8,255.3 332.1,254 332.1,252.7 332.1,252.7
			326,252.7 		"/>
		<polygon points="570.3,341.1 570.3,341 569.8,341.3 569.9,341.3 		"/>
		<polygon points="571.4,323.1 570.1,322.4 570.1,322.3 570,322.3 569.6,322.3 569.2,322.6 568.8,323 568.6,323.8 570.4,324.9
			571.4,325 572.4,324.6 571.9,323.7 		"/>
		<polygon fill="#FFFFFF" points="235.8,370.8 236.6,371.2 237.2,372.1 237.4,373.4 237.2,374.7 238.8,377.1 240.7,377 249.3,369.2
			250.2,368.1 249.8,365.5 249.9,364.4 250.5,363.4 251.2,362.5 251.7,361.5 253.3,356.7 253.9,354.2 254.2,351.7 254.3,347.5
			254.4,346.9 254.9,346.5 255.6,345.3 257.4,343.7 259.2,342.6 259.7,342.5 260.8,341.8 261.3,341.4 261.9,341.4 262.6,341.8
			263.2,342.1 263.9,341.5 264,341.3 239.3,341.3 241.2,345.9 242.3,347.1 246.5,347.9 248.9,348.9 250.2,350.4 248,354
			247.6,355.1 247.2,357.5 246.9,358.3 246.1,358.6 245.4,358.3 244.6,357.7 243.7,357.4 243.1,357.9 242.5,358.9 241.5,361.4
			239.2,365 238.8,366 238.1,368.4 237.7,369.2 237.2,369.4 235.6,369.2 235.5,369.7 235.5,370.2 235.6,370.7 		"/>
		<polygon fill="#FFFFFF" points="267.7,341.7 267.7,342 268.2,342 268.3,341.8 268.6,341.6 268.9,341.3 267.7,341.3 		"/>
		<polygon fill="#FFFFFF" points="278.2,342.2 281.5,341.7 281.9,341.3 278,341.3 		"/>
		<polygon fill="#FFFFFF" points="312.7,387.7 311.8,387.5 311.5,388.2 311.5,389.1 311.4,390.1 312.1,391.2 313.4,392 314.6,391.9
			314.8,390.5 314.6,389.5 314,388.8 		"/>
		<polygon fill="#FFFFFF" points="356.1,350.2 355.1,351.9 355.4,354.6 357.1,356.1 359,355.1 360.2,352.7 359.6,350 357.9,349.6
			"/>
		<polygon fill="#FFFFFF" points="487.8,342.7 486.9,343.9 485.8,345.1 484.9,346.5 484.4,348.3 484.6,350.4 485.2,351.9
			485.6,353.2 485.1,355.1 484.3,356 483.9,355.2 483.6,353.5 482.7,350.6 482.5,347.4 482,346 480.8,344.5 479.8,343.6
			479.4,342.4 479.5,341.3 387.1,341.3 387.1,342.7 386.3,345.1 386.3,346.4 386.6,347.6 387.1,348.7 387.4,349.9 387.3,351.3
			386.9,353.8 386.9,359.2 385.8,361.2 382.9,364.8 381.9,369.3 379,376.4 378.8,377.7 378.7,379 378.4,380.3 378,381.4
			377.4,382.5 379.9,383.5 381.7,383.4 383.1,382.7 383.8,381.7 384.8,379 385.6,378.1 387.9,376.8 391.1,373.9 392.3,373.5
			396.6,373.9 400.3,373.5 401.2,372.8 402.3,369.7 403.1,368.5 405,368.9 406.6,369.9 408.2,370.1 410.2,368.4 411.6,367.5
			416.3,366.9 417.8,365.8 422.3,361.2 423.6,360.3 425.1,359.9 428,359.8 429.5,360.8 430.4,363.2 430.9,366 431.7,368.5
			432.6,369.2 433.5,369.2 435.4,368.2 436.6,366.6 436.2,364.8 434.5,361.7 434.6,359.7 435.3,358.9 436.4,359.2 437.5,360.1
			437.9,360.8 438.6,362.9 439,363.6 439.5,363.9 439.9,363.8 440.3,363.6 440.9,363.6 443.3,364.9 447,369.4 449.3,370.9
			451.5,371.3 452.1,371.7 452.6,372.6 452.7,373.3 452.8,374.1 453.1,375 454.4,376.7 455.7,377.5 457.3,377.7 458.8,377.6
			462.8,376.2 463.7,376.2 464.6,377.8 465.2,380.1 465.9,382.4 467.4,383.8 480.1,385 480.8,385.3 481.3,385.9 481.5,386.9
			481.3,387.6 480.9,388.3 480.7,389.4 480.9,391.7 481.4,393.1 488.1,398.7 490.1,401.1 495.8,410.5 497.9,413 500.4,414.8
			505.9,417.2 506.9,418.2 509,421.1 510,422.5 510.9,422.3 511.7,421.6 512.6,421.1 513.2,421.3 514.3,422.1 514.9,422.3
			515.5,422 515.8,421.3 516.1,420.5 516.4,419.7 518.2,418.1 520.2,417 522.2,416.3 526.9,416.5 528,416.2 529.2,415.1 530,413.5
			530.6,411.8 531.5,410.4 532.6,409.8 533.4,410.5 534.1,411.3 535,411.4 536.1,411.2 537.1,411.2 539.2,411.9 540.6,413
			542.8,416.5 544.1,417.9 545.5,418.6 550.4,418.9 559.7,422.3 561.7,421 561.2,419.9 560.7,418.1 560.3,416.2 560.3,414.8
			560.8,413.8 561.5,413.6 562.4,413.5 563.1,413.1 563.4,412.5 563.6,412 563.8,409.7 563.7,409.3 563.5,408.9 563.4,407.4
			563.2,406.9 563.1,406.4 563.3,405.3 563.6,404.4 564.1,403.7 565,402.8 570.1,401 571.1,399.9 571.2,398.4 570.5,395.2
			570.8,393.3 571.4,392.3 572.3,391.7 573.9,390.8 572.7,389.7 572.2,389.5 573,389 582.9,387.5 586.7,385.9 588.2,384.9
			588.9,383.4 588.4,381.1 587.4,379.9 581.2,377.4 580.7,376.8 580.3,375.2 580.6,373.9 581,372.7 581.3,371.3 580.9,368.5
			579.8,367.6 579.3,367.4 578.9,368.2 577.8,371.6 577,369.2 576.5,366.5 576.3,363.7 576.2,361.2 576.5,358.4 576.2,357.3
			574.3,356.4 573.7,355.2 572.9,352.1 569.8,345.7 569,343.5 568.8,342.2 569.9,341.3 569.8,341.3 568.7,342.2 568.7,341.3
			488.2,341.3 		"/>
		<polygon fill="#FFFFFF" points="267.9,353.6 268,353.7 269.8,351.1 269.9,350.6 269.5,350.3 269.4,349.8 269.3,349.1 269.2,348.7
			268.9,348.6 268.8,348.4 268.7,347.8 268.6,347.6 268,347.4 267.7,347.5 267.6,348.7 266.6,351.2 267.8,352.6 		"/>
	</g>
	<path fill="none" stroke="#999999" stroke-width="0.25" stroke-linecap="round" stroke-linejoin="round" d="M269.4,349.8l-0.1-0.7
		l-0.2-0.5l-0.2-0.1l-0.2-0.2l-0.1-0.5l-0.2-0.2l-0.6-0.2l-0.2,0.1l-0.1,1.3l-1.1,2.4l1.2,1.4l0.1,1.1l0.2,0.1l1.8-2.6l0.1-0.5
		l-0.4-0.2L269.4,349.8z M314,388.8l-1.3-1.1l-0.9-0.2l-0.2,0.7l-0.1,0.9l-0.1,1l0.7,1.1l1.3,0.8l1.2-0.1l0.2-1.4l-0.2-1.1
		L314,388.8z M249.5,264.9l1.9,0.2l4-1l2.1-0.2l1.7,0.5l1.7,1.1l2.9,3.5l0.6,1.3l0.2,1.7v2.8l0.5,1.9l0.9,2.4l1.1,2.1l0.8,1.2
		l-1,1.5l-0.5,0.5l-0.5,0.4l2.4,2.5l3.3,0.9l3.3-0.4l2.7-1.4l1.6-2.5l2.1-6.8l1.3-2.8l1-1l1.4-1.1l1.5-0.7l1,0.1l0.5,1.2l-0.9,1
		l-1.3,1l-0.7,1.2l0.7,1.3l1.6,0.6l1.7-0.1l1.1-0.7l0.7-0.7h0.5l0.3-0.3l0.1-1.4l-0.1-1.1l-0.2-0.6l-0.4-0.3h-0.5l0.8-1.4l1-0.3h1.1
		l1-0.5l0.8,0.7l0.3-0.4l0.2-0.8l0.5-0.4l0.6,0.1l0.6,0.3l2.5,1.8l0.9-0.2l0.4-1.2l-0.1-2.4l-0.2-0.1h-0.5l-0.4-0.2l-0.2-0.8v-1.3
		l-0.1-0.6l-0.2-0.5l-0.5-0.7l-0.8-1l-0.4-0.7l-0.5-0.7l-1.3-1.1l-0.5-1.1l-0.2-1.1l0.3-1.8l-0.2-1.2l-0.9-1.5l-5.9-2.9l-6.1,0.4
		l-1-0.8l-1.1-1.6l-0.6-1.9l1.4-3.3l-1.1-1.1l-1.8-0.7l-1.6-0.2l-2.6-0.5l-0.6,0.3l-0.5,1l-0.1,1v1l-0.2,1.1l-0.8,1.7l-0.9,1
		l-1.1,0.5l-1.4,0.1l-1,1.1v4.1l-0.7,0.1l-1.4-0.8l-0.8,0.3l0.1,0.8l1.2,0.8l-17.8,2.4l-4.5-0.7l-2.4,0.4l-0.7,2l1.1,1.2
		L249.5,264.9z M307.3,254.9l0.9,0.6l0.7,0.1l2.2-0.5l0.3-0.5l0.2-0.5l0.4-0.2l1.3,0.3l2.1,1.2h1.2l1.8-1.3l0.6-0.2l0.6,0.2l0.8,0.5
		l0.7,0.2l0.6-0.6l0.5-1.8l-0.2-1.3l-1.5-2.5l-1.2-1.2h-1.4l-2.7,0.8l-4.3-1.4l-2.2-0.2l-1.4,0.2l-1,0.5l-0.8,0.8l-0.3,1.4l0.3,0.7
		L307.3,254.9z M390.1,187.5l1.6-0.5l0.5-1.1l-1.1-3.1l-0.9-1.7l-0.9,0.2l-0.8,2.1l0.1,2.2L390.1,187.5z M570.1,322.4L570.1,322.4
		l-0.1-0.1h-0.4l-0.4,0.3l-0.4,0.5l-0.2,0.8l1.8,1.1l0.9,0.1l1-0.4l-0.5-0.9l-0.5-0.6L570.1,322.4z M315.7,311.5l-2-1.4l-1.5-0.5
		l-2.5-0.6l-2.4-1.3l-0.9-0.8l-0.5-0.7l-0.9-2.4l-1.2-1.8l-3.3-1.5l-2.8-2l-2.7-1l-1.4-0.8l-1.4-0.3l-3.2,0.8l-2.1-1.1l-1.3,0.9
		l-2,2.5l-1.3,0.5l-1-0.4l-1-0.7l-1.2-0.4l-0.4,0.2l-1.1,1.1l-0.6,0.2l-0.5-0.2l-0.6-1.1l-0.4-0.2l-0.7-0.6l-1.1-2.7l-0.7-0.6
		l-2,0.6l-5.2,4.3l-8.5,0.9l-2.1,1.8l-0.2,2.3l-0.1,3.2l-0.6,2.3l-1.8-0.3l-0.9-0.7l-0.2-0.7l-0.1-1.4l-0.1-0.5l-0.2-0.7l-0.2-0.6
		l-0.2-0.2l-1.1,0.1l-0.4,0.4l-0.3,0.8l-0.7,1.6l-0.8,0.9l-1.9,1.1l-0.8,0.8l-0.6,1.2l-0.3,1.3l-0.3,3l0.3,1.7v1l-0.5,0.5h-0.4
		l-0.3-0.2l-0.2-0.4l-0.1-0.7l-0.2-1.6l-0.4-1.2l-2.7-4.9l-1.5-1.5l-1.7-0.6l-2.3-0.1l-0.3,0.7v0.6l-0.2,0.4L232,310h-1l-3.2-1.4
		l1.7,2.2l1.7,1.7l0.8,1.1l1.4,2.5l1.3,1.7l2.7,5.3l0.8,2.5l0.5,1.3l-1.3-0.5l-1.4,0.4l-0.8,1.2l0.5,2l-1.1,0.9l-1-0.9l-1-1.5
		l-1.1-0.8l-1.3,0.5l0.4,1.4l1.1,1.8l0.7,1.8l-3.2-0.9l-0.8,0.5v1l0.5,1.4l1,2l1.7,1.6l2,0.7h4l1.4,1.2l2.2,5.4l1.1,1.2l4.2,0.8
		l2.4,1l1.4,1.5l-2.3,3.6l-0.4,1.1l-0.4,2.4l-0.3,0.8l-0.8,0.3l-0.8-0.3l-0.8-0.5l-0.9-0.3l-0.6,0.5l-0.5,1.1l-1.1,2.4l-2.3,3.6
		l-0.4,1.1l-0.7,2.4l-0.5,0.8l-0.5,0.2l-1.6-0.2l-0.1,0.5v0.5l0.1,0.5l0.2,0.1l0.8,0.4l0.6,0.9l0.2,1.3l-0.2,1.3l1.6,2.4l1.9-0.1
		l8.6-7.8l0.8-1.1l-0.3-2.6l0.1-1.1l0.6-1l0.7-0.9l0.5-1.1l1.7-4.7l0.5-2.5l0.3-2.5l0.1-4.3l0.2-0.5l0.5-0.4l0.8-1.2l1.7-1.6
		l1.8-1.1l0.5-0.1l1.1-0.7l0.5-0.4l0.6-0.1l0.7,0.5l0.7,0.3l0.6-0.6l0.7-0.8l1-0.8l1.1-0.5l0.8,0.1v0.4l0.3,1.7v0.4l0.5-0.1l0.2-0.2
		l0.2-0.2l0.5-0.4l0.5-2l0.5-0.8l0.8,0.7l0.7,1.2l0.3,0.2l0.4-0.5l0.9-1l1-0.5l1.1-0.1l1.1,0.3l0.9,0.6l0.8,2.7l3.3-0.5l2.1-2
		l-2.8-1.7l0.7-1.4l1.3-0.4l2.7,0.3l1.4-0.2l0.9-0.6l1.7-2.3l1-0.7l1-0.3l0.9-0.5l4-5.6l-1.3-1.4l0.5-1l1.4-0.1l2.7,2.1l1.2-1
		l1.3-1.6l1.4-1.1l-0.2-0.6l-0.2-0.7l-0.1-0.8v-0.7l0.2-1.3l0.5-0.2l0.6,0.2l0.4,0.1l0.9-0.8l0.4-0.5l0.5-0.8l0.2-0.7l0.3-1.7
		l0.1-0.5l0.4-0.6l0.1-0.2h0.9l0.6,0.3l0.4,0.8l0.2,0.8l0.2,0.5l1.2,1.2l1.1,0.7l2.6,0.4l-0.4-1.1l-0.5-0.6l-0.7-0.4l-0.8-0.2
		l1.4-1.1l3.9,2.7l0.5-1.7l-0.9-1.8L315.7,311.5z M611.5,206.9l-1.5-1.4l-0.7-0.8l-0.6-1.1l-1.4-3.6l-1.3-1.4l-2.7-1.4l-1.1-2.2
		l-2.4,4.3l-1.8,2.2l-2.4,1.6l-2.5,0.8l-9.5-2.3l-9.3-0.6l-9.4-2.4l-8.1,0.6l-9.6,0.6l-10.8-1l-1.2-0.5l-2.5-1.6l-3-1.1l-5.3-5.9
		l-2.2-1.8l-2.3-1.3l-2.4-0.7l-2.5-0.2l-0.8,0.4l-2.1,1.7l-1,0.4l-1.4-0.1l-2.4-0.7l-3.4-2.1l-3.7-0.9l-2.5-1.7l-1.1-0.4l-11.4,0.2
		l-0.5-0.2l-0.1-0.9l-0.1-0.7l-0.2-0.5l-2.3-2.3l-2.1-1.1l-0.8-0.2l-0.7,0.4l-0.8,1.2l-0.1,1.1l0.2,1.1l-0.2,0.8l-1.2,0.3l-1.1-1.3
		l-1.4-2.2l-1.3-0.9l-0.8,2.8l0.5,0.8l-0.9,1.8l-1,1.1l-1.1,0.2l-1.1-0.6l-0.8-1.3l-0.5-2.9l-0.8-1.5l0.5-0.9l-3.3-3.6l-1.8-0.6
		l-1.4,1.8l0.3,0.2l0.5,0.5l0.4,0.1l-0.3,2.5l0.6,1.5l0.9,1.4l0.5,2.1l-0.8,2.2l-1.7,0.4l-2-0.7l-1.4-1.1l-1.8-3l-1-1.3l-1.3-0.5
		l-1.1-0.9l-2-4l-1.1-0.9l-0.4,2.2l0.2,4.8l0.9,4.8l1.7,2.2l0.6,0.4l0.5,0.8v0.8l-0.6,0.4h-5.6l-1.4,0.6l-0.8,1.5l0.4,2.7h-0.1
		l-12.9-3.7l-3-2l-1.4-0.1l-0.8,1.2l0.5,3.1l-1.1,0.6l-1.3-0.4l-2.5-1.7l-1.4-0.4l-4.7,1.2l-1.5-0.4l-4.1-5.1l-2.4-1.9l-1.8,1.3
		l0.2,0.9l0.2,0.8l0.1,0.8v1.1l0.2,1.1l0.5,0.6l0.5,0.5l0.4,0.7l0.5,1.8l-0.2,0.6l-1.4,3l-0.4,0.5l-0.7,0.5l-1.7,0.4l-1-1.4
		l-0.8-2.1l-1.1-1.8l-0.7-0.5l-0.7-0.2l-0.5,0.5l-0.2,1.3l-0.2,1.1l-0.6,0.3l-1.6-0.2v1l1.1,0.5l1,1.1l0.2,1.1l-1.1,0.5l-1.1-0.3
		l-3.5-2.5l-1.1-0.4l-0.9,0.8l-1,1l-1.1,0.5l-1.2-0.5l-2.2-2.6l-1.2-0.9l-1.4-0.2l-4,1l-0.2,0.8l-0.7,3.9l-0.7,1.4l-2.1,0.8
		l-5.3,0.4l-1.2,0.8l1.4,1.4l1.6,2.2l0.5,2l-1.7,0.9l-1.7-0.8l-3.4-3.6l-1.8-1.3l-1.1-0.2l-0.9,0.3l-0.8,0.8l-0.8,1.2l-0.2,1.3
		l0.5,1.1l3.9,5.3l0.5,2.2l-1.2,2.7l-2.5-2.6l-3,0.3L355,219l-2.8,0.2l-2.7-0.7l-5.3,0.2l-1.4,0.7l-0.7,1.5l0.8,0.7l0.5,1.1
		l-0.1,1.3l-0.7,1.1l-0.9-0.2l-3.3-3.1l-1.2,0.1l-0.8,0.8l-0.8,1l-1.4,0.7l-0.8,1.1l-0.5,0.2l-0.7-0.2l-1.3-0.5l-0.7-0.1l-3.3,2.1
		l0.9,4.5l2,5.8l-0.1,6.1l-1.1-1.4l-0.6-0.3l-0.6,0.5l-2.7,3.3l-0.4,1.4l0.5,2.1l-0.5-0.1l-0.8,0.1L323,249l1.6,2.5l1.6,1.4l3.9,1
		l0.4,0.4l0.3,0.7l0.4,0.5l0.6-0.2l0.3-1.3v-1.3l1.2-1.6l0.5-0.3l1.1-0.2l0.5-0.3l-0.8-1.5l-1.7-1.7l-0.8-1.5l1.4,1l1.4,1.4l1,2.1
		l0.4,2.8v1.4l-0.2,0.8l-0.5,0.6l-2,1.7l-1.1,0.4l-1.1-0.1l-1.1-0.7l-1.3,1.7l-4-0.3l-1.3,1.8v2.4l2,3l0.5,2.2l3.7,5l-0.5,0.8
		l-2,0.4l-1.1,1.1l-2.3,4.2l3.4-1.4l1.1-0.2l1.9,0.5l0.4-0.1l0.5-0.6l0.6-0.5l1.2-0.8l1.4-0.3l4.4,0.3l2.8-1l1.2,0.2l1.1,1.4
		l1.6-1.8l1.9,0.2l1.9,1.4l1.7,1.9l-1.1-0.2l-2.4-1.4l-1-0.1l-0.8,0.8l-0.4,1.4l0.2,1.2l0.9,0.5l0.4,0.4l0.1,0.8l-0.1,0.8l-0.2,0.4
		h-1.9l-1-0.3l-2.4-1.5l-1.2-0.5l-2.4,0.2l-2.2,0.8l-2.3,0.4l-2.4-1.1h-0.8l-0.4,1.3l0.2,1.5l1,1v0.5l-0.2,0.5l-0.5,0.2l-1.3-0.5
		L329,286l-0.5,1.1l-0.3,2.7l0.5,3l0.7,2.9l0.4,2.1l-0.3,1.1l-0.5,1.2l-0.4,1.2l0.2,1.1l0.9,0.9l0.5-0.5l0.5-1.2l0.8-1.1l0.9-0.4
		l0.2,0.7l0.1,1.3l0.5,1.6l0.7,0.8l1.1,1.1l1.2,0.8l0.8,0.1l1.8-0.9l0.9,1.4l0.3,2.8l-0.1,3.4l-0.4,2.8v1.2l0.4,1.5l0.7,1.1l0.8,0.7
		l0.7,0.9l0.3,1.7l0.1,1.1l0.2,1.4l0.3,1.3l0.4,1l0.5,0.5l0.5-0.2l0.4-0.5l0.4-0.7l0.5-0.5l0.6,0.2l0.6,0.5l0.5,0.3l0.5-0.2l0.4-0.4
		l0.4-0.3l0.5,0.1l0.3,0.3l0.7,1l0.3,0.4l1.1,0.5l2.4,0.2l4,1.8l1.6,2.1l2.8,2.6l1.8,3.1l0.7,0.7l1.1,0.5l0.5-0.5l1.1-2.6l1-1h1.1
		l2.2,0.6l1.1-0.3l0.8-0.7l0.8-1.1l1.8-3.3l0.2-1l0.1-1.8l0.2-1.4l0.5-1.5l0.7-1.4l0.7-0.9l2.1-1.1l2.5,0.2l2.5,1.1l5.1,4.1l1.3,2
		l0.5,2.4l-0.7,2.7l-1.7,1.5l-1.8,1.2l-1.2,1.7l-0.2,1.3v2.6l-0.8,2.4v1.3l0.3,1.2l0.5,1.1l0.3,1.2l-0.1,1.4l-0.5,2.5v5.5l-1.1,2
		l-2.9,3.6l-1.1,4.5l-2.8,7.1l-0.2,1.3l-0.2,1.4l-0.2,1.3l-0.5,1.1l-0.6,1.1l2.6,1.1l1.7-0.1l1.4-0.8l0.7-1l1-2.7l0.8-0.9l2.4-1.3
		l3.2-3l1.2-0.3l4.3,0.4l3.7-0.4l0.9-0.8l1.1-3.1l0.8-1.2l1.9,0.5l1.6,1l1.6,0.2l1.9-1.7l1.4-0.9l4.7-0.6l1.5-1.1l4.5-4.6l1.3-0.8
		l1.4-0.5l2.9-0.1l1.6,1.1l0.8,2.4l0.5,2.8l0.8,2.4l0.9,0.8h0.9l1.9-1l1.2-1.6l-0.5-1.8l-1.7-3.1l0.1-2l0.8-0.8l1.1,0.2l1.1,0.9
		l0.5,0.8l0.7,2.1l0.4,0.7l0.5,0.3l0.4-0.1l0.4-0.2h0.6l2.4,1.3l3.6,4.5l2.4,1.5l2.1,0.5l0.6,0.4l0.5,0.8l0.1,0.8l0.1,0.8l0.3,0.9
		l1.3,1.7l1.4,0.8l1.6,0.2l1.5-0.2l4-1.4h0.9l0.9,1.6l0.5,2.3l0.8,2.3l1.5,1.4l12.7,1.1l0.7,0.4l0.5,0.5l0.2,1.1l-0.2,0.7l-0.4,0.7
		l-0.2,1.1l0.2,2.4l0.5,1.4l6.7,5.6l2,2.4l5.7,9.4l2.1,2.4l2.5,1.8l5.6,2.4l1,1l2.1,2.9l1,1.4l0.9-0.2l0.8-0.8l0.8-0.5l0.6,0.2
		l1.1,0.8l0.6,0.2l0.6-0.3l0.3-0.7l0.2-0.8l0.4-0.8l1.7-1.6l2-1.1l2.1-0.7l4.7,0.2l1.1-0.3l1.2-1.1l0.8-1.6l0.6-1.7l0.9-1.4l1.1-0.5
		l0.8,0.6l0.7,0.8l0.9,0.2l1.1-0.2h1.1l2.1,0.7l1.4,1.1l2.2,3.4l1.2,1.4l1.4,0.7l4.9,0.3l9.4,3.4l2-1.3l-0.5-1.1l-0.5-1.8l-0.5-1.9
		v-1.4l0.5-1l0.8-0.2l0.8-0.1l0.8-0.4l0.3-0.6l0.2-0.5l0.2-2.4l-0.1-0.4l-0.2-0.4l-0.2-1.5l-0.2-0.5l-0.1-0.5l0.2-1.1l0.3-0.9
		l0.5-0.7l1-1l5-1.8l1.1-1.1l0.1-1.4l-0.7-3.2l0.3-1.9l0.6-1l0.8-0.7l1.7-0.8l-1.3-1.1l-0.5-0.2l0.8-0.5l9.9-1.5l3.8-1.6l1.4-1
		l0.8-1.5l-0.5-2.3l-1-1.1l-6.2-2.5l-0.5-0.6l-0.4-1.6l0.2-1.3l0.5-1.2l0.3-1.4l-0.4-2.7l-1.1-0.9l-0.5-0.2l-0.4,0.8l-1.1,3.4
		l-0.8-2.4l-0.5-2.7l-0.2-2.8l-0.1-2.5l0.2-2.7l-0.2-1.1l-1.9-0.9l-0.6-1.1l-0.8-3.1l-3.1-6.4l-0.8-2.2l-0.2-1.3l1.4-1.1l0,0
		l-1.6,1.2l-0.1-3.5l-0.2-0.7l-0.7-0.5l-2.4-3.4l0.5-1.3l-0.2-1.1l-0.4-1l-0.2-1.3V327l0.2-0.8l0.5-0.6l0.2-0.6l-0.5-0.8l-0.9-0.8
		l-4.2-2.3l-2.7-0.1l-1.4-0.5l-1.4-1.8l-0.5-2.5l0.2-5.6l-0.2-3l-2-10.3l-2.2-6.2l-3.8-7.5l-1.4-2l-5.7-4l-1.5-2.1l-0.5-2.8l0.3-3.3
		l0.8-3.2l0.8-2.2l1.9-3.3l2-2.5l2.2-1.8l12.5-4.9L573,250l10.8,2.4l0.6-2.2l2.6-4.9l1.1-2.5l3.5-9.9l0.8-3.8l1-5l1.1-2.5l-0.5-2.1
		l0.1-0.1l0,0l1.3-1.7l3.3-1.9l7.1,0.2l1.1-1.5l-1.3,0.1l-4.4-1.7l0.2-0.1l-0.2-0.1l1.9-1l4.9-0.4l2.7-2.2l1.4,0.9l0.3-2.2
		L611.5,206.9z M488.5,336v3.6l-0.2,1.5l-0.5,1.5l-0.8,1.2l-1.1,1.2l-1,1.4l-0.5,1.8l0.2,2.1l0.6,1.4l0.4,1.4l-0.5,1.8l-0.8,0.9
		l-0.4-0.8l-0.3-1.7l-0.9-3l-0.2-3.2L482,346l-1.2-1.5l-1-0.8l-0.5-1.3l0.2-2.7l-3.3-4.5l-0.5-1.4l-0.1-0.9l-0.4-0.7l-0.4-0.8
		l-0.2-1.4l0.2-1l1.7-2.2l0.8-2.4l0.5-2.1l0.8-1.5l1.7-0.7h1.7l1.9,0.4l1.7,1l1.3,1.6l1.7,2.7l0.2,3L488.5,336z M357.9,349.6
		l-1.8,0.6l-1.1,1.7l0.4,2.7l1.7,1.5l1.9-1l1.1-2.4l-0.5-2.7L357.9,349.6z M321.4,300.9l-0.5-0.8l-1.1-1.4l-0.5-1l-0.1-1l0.2-1.1
		v-1.1l-0.3-1.1l-0.8-1l-2.5-1.5l-5.5-1.7l-1.3-0.1l-1.3,0.6l-1.2,1.6l-0.2,0.8l-0.5,2.4l-0.2,0.6l-0.9,0.5l-1.9-0.7l-0.8,0.6
		l-0.2,2.4l1.4,1.5l3.1,1.2l5.4,5.2l0.7,0.1l1.8-1.1l0.8-0.3l2.1,0.2l1.1,0.4l1,0.7l0.9,0.4l0.5-0.7l0.5-1l1.2-0.9l-0.2-0.9
		L321.4,300.9z"/>
</g>

</svg>
