<?xml version="1.0" encoding="utf-8"?>

<svg version="1.2" baseProfile="tiny" xmlns="http://www.w3.org/2000/svg" xmlns:xlink="http://www.w3.org/1999/xlink" x="0px"
	 y="0px" viewBox="257.4 151.3 325.2 291.5" xml:space="preserve">

<g id="Western_Sahara">
	<g>
		<polygon points="569.7,151.3 525.4,151.2 512,151.2 461.4,151.3 461.4,151.3 454.2,151.3 409.1,151.3 409,151.3 408.9,151.3
			408.9,151.4 408.5,151.9 408.4,152 408.3,152.1 408.1,152.5 408.1,152.5 408,152.6 407.8,153.1 407.7,153.3 407.7,153.7
			407.7,153.8 407.7,154 407.7,154 407.7,154.1 407.6,154.2 407.6,154.3 407.6,154.3 407.6,154.6 407.5,154.9 407.4,155.5
			407.2,155.9 407.1,156.1 407.1,156.2 407.1,156.6 407,156.6 407,156.8 406.9,157 406.9,157.2 406.8,157.6 406.7,157.8
			406.7,157.8 406.7,158 406.6,158.1 406.6,158.2 406.6,158.2 406.6,158.4 406.4,158.8 406.4,158.9 406.2,159.5 406.1,159.6
			406.1,159.7 405.9,159.9 405.9,160.1 405.7,160.4 405.6,160.7 405.6,160.7 405.6,160.9 405.5,161 405.4,161.3 405.4,161.3
			405.4,161.4 405.4,161.6 405.3,161.6 405.3,161.8 405.2,162 405.2,162.1 405.1,162.4 404.9,163 404.8,163.2 404.8,163.3
			404.8,163.3 404.7,163.5 404.7,163.7 404.7,163.8 404.6,163.9 404.5,164.1 404.5,164.2 404.4,164.3 404.3,164.6 404.3,164.7
			404.1,164.9 404.1,164.9 403.9,165.2 403.9,165.3 403.7,165.7 403.7,166 403.6,166.3 403.6,166.4 403.4,166.6 403.3,166.9
			403.2,167.2 403,167.4 403,167.6 402.8,167.8 402.7,168 402.6,168.2 402.4,168.3 402.3,168.6 402.1,169 401.5,169.8 401.4,169.9
			401.3,170.1 401.2,170.3 401.1,170.6 401.1,170.7 401,170.7 401,170.9 400.8,171.2 400.7,171.3 400.6,171.4 400.6,171.5
			400.6,171.6 400.5,171.7 400.5,171.8 400.4,171.9 400.4,172 400.3,172.1 400.3,172.2 400.2,172.4 400.2,172.5 400.1,172.6
			400,172.8 399.8,173.1 399.7,173.3 399.7,173.5 399.7,173.6 399.8,173.7 399.8,174 399.7,174.1 399.5,174.4 399.4,174.6
			399.4,174.7 399.4,174.7 399.4,174.9 399.3,174.9 399.3,175.2 399.3,175.3 399.3,175.5 399.3,175.6 399.3,175.7 399.3,175.7
			399.3,175.9 399.5,176.2 399.4,176.3 399.4,176.5 399.1,176.8 399.1,176.9 399,177 398.9,177.2 398.9,177.5 398.7,177.8
			398.7,177.9 398.7,178 398.7,178.2 398.6,178.2 398.6,178.3 398.6,178.3 398.6,178.4 398.5,178.5 398.5,178.6 398.4,178.9
			398.4,179.1 398.3,179.1 398.3,179.5 398.2,179.7 398,180 398,180.2 397.9,180.4 397.8,180.5 397.8,180.5 397.6,180.8
			397.5,180.9 397.4,181.1 397.3,181.2 397.3,181.3 397,181.9 397,181.9 396.9,182.1 396.9,182.4 396.9,182.5 396.9,182.8
			396.8,183 396.8,183.2 396.8,183.2 396.8,183.5 396.7,183.5 396.7,183.7 396.6,183.8 396.6,184 396.5,184.1 396.4,184.4
			396.3,184.5 396.3,184.7 396.1,184.9 396.1,185.1 396,185.3 395.7,185.8 395.5,186.2 395.4,186.4 395.3,186.5 395.3,186.8
			395.2,186.9 395.2,187.3 395.2,187.3 395.2,187.5 395.1,187.8 395.1,188 395,188 395,188.3 394.8,188.4 394.8,188.5 394.6,189
			394.6,189.1 394.5,189.2 394.4,189.5 394.3,189.7 394.3,189.7 394.1,190.2 394,190.4 393.7,190.8 393.6,190.9 393.5,191
			393.3,191.1 393.1,191.2 392.8,191.7 392.8,191.7 392.6,192 392.4,192.3 392.3,192.4 392.2,192.4 392.2,192.5 392,192.7
			391.7,192.9 391.5,193.1 391.5,193.2 391.1,193.6 391,193.8 390.9,194 390.8,194.4 390.7,194.6 390.6,194.9 390.4,195.1
			390.4,195.1 390.3,195.2 390.1,195.3 389.9,195.5 389.8,195.5 389.6,195.7 389.4,195.9 389,196.1 388.9,196.2 388.7,196.3
			388.6,196.3 388.5,196.4 388.5,196.6 388.4,196.6 388.4,196.7 388,196.9 387.9,196.9 387.9,197 387.8,197 387.8,197 387.5,197.1
			387.5,197.1 387.3,197.1 387.1,197.2 386.7,197.5 386.6,197.5 386.4,197.6 386.4,197.6 386.3,197.6 386.2,197.7 386.1,197.8
			386,197.8 385.9,197.9 385.7,198 385.6,198.1 385.1,198.3 385,198.4 384.8,198.5 384.8,198.5 384.6,198.6 384.5,198.6
			384.4,198.7 384.4,198.7 384.3,198.7 384.2,198.7 384.2,198.8 384.1,198.8 383.9,198.9 383.7,198.9 383.6,199 383.5,199.1
			383.4,199.2 383.3,199.2 383.2,199.2 383.1,199.2 383.1,199.3 382.9,199.3 382.8,199.4 382.6,199.4 382.1,199.7 382.1,199.7
			381.8,200 381.7,200 381.6,200 381.4,200.1 381.3,200.1 381.2,200.3 381.1,200.3 381,200.4 381,200.4 380.7,200.6 380.6,200.6
			380.3,200.8 380,200.9 379.1,202 379,202 378.9,202.2 378.7,202.2 378.7,202.3 378.6,202.3 378.5,202.4 378.4,202.4 378.3,202.4
			378.2,202.6 378,202.7 377.9,202.7 377.8,202.8 377.7,202.9 377.5,203 377.4,203.1 377.3,203.1 377.2,203.2 377.1,203.2
			377.1,203.3 376.6,203.6 376.4,203.7 376.1,203.9 376.1,203.9 375.9,203.9 375.7,204 375.7,204 375.6,204 375.5,204.1
			375.4,204.1 375.4,204.1 375.3,204.1 375.3,204.1 375.1,204.1 375.1,204.2 375,204.2 374.9,204.2 374.8,204.2 374.7,204.2
			374.6,204.2 374.6,204.3 374.5,204.3 374.3,204.3 374.2,204.3 374.2,204.4 374.1,204.4 374,204.4 373.6,204.5 373.6,204.5
			373.5,204.5 373.4,204.6 373.3,204.6 373.2,204.7 373.1,204.7 373,204.7 372.9,204.7 372.9,204.7 372.7,204.7 372.7,204.8
			372.5,204.8 372.5,204.8 372.4,204.8 372.4,204.8 372.2,204.8 372.2,204.9 372,204.9 372,204.9 371.7,204.9 371.7,205
			371.1,204.9 371.1,204.9 370.7,204.9 370.6,204.9 370.4,204.9 370.4,205 370.2,205 370.1,205.1 369.9,205.2 369.8,205.5
			369.7,205.6 369.7,205.7 369.6,205.8 369.6,205.9 369.5,206 369.4,206.2 369.1,206.6 369.1,206.7 368.7,207.1 368.5,207.4
			368.4,207.5 368.3,207.6 368.1,207.9 368.1,207.9 368,208.2 368,208.3 367.8,208.4 367.8,208.5 367.8,208.5 367.7,208.6
			367.6,208.8 367.6,208.8 367.2,209 367.1,209.1 367.1,209.1 367,209.2 367,209.2 366.6,209.6 366.5,209.6 366.5,209.6
			366.4,209.6 366.2,209.7 366.2,209.7 366,209.9 365.9,209.9 365.8,210.1 365.7,210.1 365.2,210.6 365.2,210.6 365.1,210.8
			364.9,210.9 364.7,211 364.6,211 364.5,211.1 364.4,211.1 364.4,211.1 364.3,211.1 364.2,211.2 364.1,211.2 364,211.3
			363.9,211.3 363.8,211.3 363.7,211.3 363.7,211.4 363.5,211.4 363.5,211.4 363.4,211.4 363.3,211.4 362.3,211.4 362,211.6
			361.5,212.1 361.5,212.1 361.3,212.3 361.3,212.4 361.1,212.6 361.1,212.6 360.9,212.8 360.9,212.8 360.7,213.1 360.7,213.1
			360.4,213.5 360.4,213.5 360.1,213.8 360,214 359.8,214.1 359.8,214.2 359.4,214.6 359.4,214.6 359.2,214.8 359.1,215.1
			359,215.2 359,215.3 358.8,215.7 358.7,215.9 358.7,216.1 358.5,216.3 358.5,216.4 358.5,216.4 358.4,216.6 358.4,216.7
			358.3,216.9 358.2,217 357.9,217.4 357.7,217.7 357.7,217.9 357.8,218.1 357.8,218.1 358,218.2 358,218.3 358.2,218.5
			358.2,218.6 358.3,218.7 358.3,218.9 358.4,219 358.4,219.1 358.4,219.7 358.4,219.8 358.4,220.1 358.4,220.1 358.4,220.2
			358.3,220.2 358.3,220.7 358.4,220.7 358.4,220.9 358.4,220.9 358.4,221 358.4,221.2 358.4,221.3 358.4,221.5 358.3,221.5
			358.3,221.7 358.3,221.8 358.3,221.9 358.2,222.1 358.2,222.2 358.1,222.4 358.1,222.5 358,222.6 358,222.8 358,222.9 358,223.1
			357.9,223.2 357.9,223.3 357.8,223.4 357.8,223.6 357.7,223.8 357.7,223.9 357.6,224.1 357.5,224.2 357.4,224.5 357.2,224.9
			357.1,225 357.1,225 356.9,225.2 356.8,225.5 356.7,225.6 356.7,225.7 356.6,226 356.6,226.1 356.5,226.2 356.4,226.5
			356.4,226.5 356.3,226.7 356.3,226.7 356.3,226.9 356.3,226.9 356.1,227.3 356,227.4 355.9,227.8 355.9,227.9 355.8,228
			355.6,228.5 355.5,228.7 355.5,228.7 355.4,228.9 355.4,229 355.4,229 355.3,229.1 355.3,229.2 355.1,229.4 355.1,229.4
			355,229.6 355,229.6 354.6,230 354.6,230.1 354.2,230.6 354.1,230.8 353.9,231 353.9,231.1 353.4,231.6 353.4,231.6 353.1,231.9
			353.1,231.9 352.9,232.1 352.9,232.2 352.9,232.2 352.8,232.5 352.8,232.6 352.8,232.7 352.7,232.8 352.6,233 352.6,233
			352.5,233.2 352.5,233.3 352.4,233.5 352.4,233.6 352.3,233.8 352.2,234 352.2,234.1 352.1,234.5 352,234.7 351.9,235.2
			351.8,235.3 351.8,235.4 351.7,235.8 351.6,235.9 351.5,236.1 351.5,236.3 351.4,236.7 351.4,236.8 351.3,236.9 351.3,237
			351.2,237.2 351.2,237.3 351.1,237.4 351.1,237.5 351,237.9 350.9,238 350.9,238.2 350.8,238.3 350.8,238.3 350.7,238.4
			350.6,238.6 350.6,238.8 350.6,238.9 350.5,238.9 350.5,239.2 350.5,239.2 350.5,239.8 350.4,239.8 350.4,240.3 350.4,240.3
			350.4,240.7 350.4,240.7 350.4,240.9 350.5,240.9 350.4,241.2 350.3,241.8 350,242.4 349.7,242.9 349.7,243 349.6,243.2
			349.6,243.2 349.6,243.3 349.6,243.3 349.5,243.5 349.5,243.6 349.4,243.9 349.3,244.1 349.3,244.1 349,244.6 348.9,244.8
			348.6,245.2 348.6,245.2 348.4,245.4 348.4,245.6 348.2,245.8 348.2,245.8 347.8,246.2 347.8,246.2 347.5,246.6 347.3,246.9
			347.1,247 347.1,247.1 347.1,247.2 454.2,247.2 454.2,223.2 476.4,223.2 478.4,223.2 498,223.2 500.7,223.2 516.2,223.2
			519,223.2 556.7,223.2 559.1,223.2 576.4,223.2 578.6,223.2 582.6,223.2 582.6,153.2 582.6,151.2 		"/>
		<polygon fill="#007A3D" points="267.9,384.2 268,384.1 268,384 268,383.9 267.9,383.8 267.8,383.8 267.8,383.9 267.8,384
			267.8,384.2 		"/>
		<polygon fill="#007A3D" points="291.2,346.9 291.3,347.1 291.4,347.1 291.6,347.1 291.7,347 291.8,346.9 291.9,346.9 291.9,346.8
			291.2,346.8 		"/>
		<polygon fill="#007A3D" points="293.4,346.9 293.5,347.1 293.6,347.2 293.7,347.4 293.8,347.5 293.8,347.7 293.9,347.9
			293.9,348.2 294,348.2 294,348.4 294,348.4 294,348.9 294,348.9 294,349.2 294.1,349.2 294.1,350 294,350.2 294,350.2 294,350.6
			294,350.6 293.8,351.2 293.7,351.4 293.7,351.5 293.5,351.7 293.5,351.8 293.4,351.8 293.2,352.2 293.2,352.3 292.8,352.7
			292.7,352.8 292.5,352.9 292.4,353.1 292.4,353.2 292.3,353.2 292.2,353.4 292.1,353.4 291.9,353.6 291.8,353.6 291.8,353.7
			291.8,353.7 291.7,353.7 291.5,353.8 291.4,353.8 291.3,354 291.2,354.1 291.1,354.1 291.1,354.1 291.1,354.1 291,354.1
			290.9,354.2 290.9,354.2 290.7,354.3 290.5,354.3 290.4,354.3 290.1,354.5 289.9,354.5 289.6,354.7 289.5,354.7 289.4,354.6
			289.4,354.4 289.3,354.3 289.2,354.3 289.1,354 289,354 288.9,353.9 288.9,353.9 288.7,354.1 288.6,354.1 288.6,354.2
			288.6,354.4 288.5,354.5 288.5,354.7 288.4,355 288.4,355.3 288.2,355.6 288.1,355.7 288,355.9 287.9,356 287.9,356.2 288,356.2
			288,356.6 288.1,356.7 288.4,356.7 288.4,356.8 288.4,356.8 288.5,356.9 288.5,357.2 288.5,357.3 288.5,357.4 288.4,357.7
			288.4,357.7 288.3,357.8 288.2,358.1 288,358.2 288,358.2 288,358.3 288,358.3 287.6,358.8 287.5,358.8 287.4,359 287.4,359.1
			287.3,359.3 287.2,359.5 287.1,359.6 286.9,359.7 286.8,359.8 286.8,360 286.9,360.1 286.9,360.2 286.8,360.3 286.7,360.5
			286.6,360.6 286.6,360.8 286.5,360.8 286.5,361.1 286.4,361.3 286.4,361.4 286.4,361.4 286.4,361.6 286.3,361.8 286.3,362.1
			286.2,362.1 286.2,362.2 286.3,362.3 286.3,362.6 286.3,362.7 286.3,362.9 286.4,363 286.4,363.2 286.4,363.3 286.3,363.5
			286.2,363.9 286.2,364 286.2,364 286.2,364.5 286.2,364.6 286.3,364.6 286.3,364.7 286.2,364.8 286.2,365 286.1,365.1
			286.1,365.2 286,365.3 286,365.4 286,365.4 286,365.5 285.9,365.6 285.9,365.7 285.8,365.9 285.7,365.9 285.8,366.1 285.7,366.2
			285.7,366.2 285.6,366.3 285.6,366.4 285.6,366.6 285.6,367 285.6,367 285.6,367.1 285.6,367.2 285.5,367.4 285.5,367.4
			285.5,367.9 285.5,368 285.3,368.3 285.3,368.3 285.2,368.4 285.1,368.5 285.1,368.6 285.1,368.6 285,368.7 285,368.7 285,368.7
			284.8,369 284.7,369 284.6,369.1 284.1,369.5 284,369.5 283.7,369.7 283.6,369.8 283.6,369.8 283.5,369.8 283.3,370 283.1,370
			283,370.1 283,370.1 282.9,370.2 282.8,370.2 282.8,370.2 282.7,370.4 282.7,370.5 282.6,370.7 282.5,370.8 282.4,371
			282.3,371.1 282.2,371.3 282.2,371.5 282.2,371.6 282.2,371.7 282.2,371.7 282.2,372 282.1,372.1 282.1,372.1 282.1,372.3
			282.1,372.3 282,372.4 282,372.6 281.9,372.7 281.9,372.8 281.8,372.9 281.8,373 281.9,373.1 281.9,373.1 281.8,373.2
			281.8,373.4 281.9,373.4 281.9,373.5 281.9,373.5 281.9,373.6 281.8,373.7 281.8,373.8 281.7,374.3 281.5,374.7 281.4,374.9
			281.4,375.3 281.5,375.4 281.5,375.6 281.4,375.7 281.3,375.9 281.2,376 281.1,376.2 281.1,376.3 280.8,376.9 280.8,376.9
			280.7,377 280.5,377.2 280.4,377.2 280.3,377.3 280.4,377.4 280.4,377.6 280.3,377.7 280.3,377.8 280.4,377.9 280.4,378.1
			280.2,378.3 279.7,379 279.2,379.2 279.1,379.3 279,379.4 278.9,379.4 278.9,379.5 278.8,379.5 278.7,379.5 278.6,379.5
			278.2,379.8 278.2,379.8 278,380 277.7,380.1 277.4,380.2 277.4,380.2 277.2,380.2 277.2,380.2 277,380.2 276.9,380.3
			276.8,380.3 276.8,380.3 276.7,380.4 276.6,380.4 276.5,380.4 276.3,380.6 276.2,380.6 276,380.7 275.8,380.7 275.8,380.7
			275.7,380.7 275.6,380.8 275.1,380.8 275,380.8 274.9,380.6 274.7,380.5 274.6,380.5 274.5,380.4 274.5,380.1 274.5,380
			274.5,380 274.4,379.9 274.3,379.9 274.3,379.9 274.3,379.7 274.2,379.6 274.1,379.6 274.1,379.5 273.9,379.5 273.9,379.4
			273.7,379.4 273.5,379.6 273.4,379.6 272.9,379.9 272.9,379.9 272.9,380 272.8,380 272.7,380.1 272.7,380.1 272.7,380.1
			272.4,380.4 272.4,380.4 272.4,380.4 272.2,380.7 272.2,381 272.1,381.1 272,381.2 272,381.3 271.8,381.5 271.8,381.5 271.4,382
			271.2,382 271.1,382.2 271,382.3 271,382.4 270.7,382.6 270.6,382.6 270.6,382.6 270.5,382.7 270.3,382.8 270.1,382.9 270.1,383
			269.8,383.3 269.7,383.4 269.7,383.6 269.6,383.6 269.4,383.8 269.4,383.8 269.5,383.9 269.6,384 269.8,384.1 269.8,384.5
			269.7,384.7 269.6,384.9 269.4,384.9 269.3,385 269.3,385 269.2,385 269.1,385.2 268.9,385.2 268.8,385.3 268.6,385.3
			268.5,385.4 268.5,385.6 268.3,385.8 268.3,385.8 268.2,385.9 268.2,386 268.2,386.1 268.2,386.3 268.1,386.3 268.1,386.4
			268.1,386.5 268.1,386.7 268.1,386.8 268,386.9 267.9,387.2 267.8,387.3 267.8,387.5 267.7,387.7 267.7,387.7 267.7,387.9
			267.6,388 267.6,388.2 267.5,388.3 267.5,388.3 267.4,388.5 267.3,388.7 267.3,388.8 267.2,389 267.3,389 267.2,389.1
			267.2,389.3 267.2,389.3 267.2,389.4 267.1,389.6 267.1,389.7 267,389.8 267,389.9 267,389.9 267,390 266.9,390.1 266.8,390.3
			266.8,390.4 266.8,390.5 266.7,390.6 266.7,390.8 266.6,391 266.6,391.2 266.6,391.2 266.6,391.3 266.5,391.4 266.5,391.6
			266.4,391.9 266.4,391.9 266.4,392 266.3,392.2 266.3,392.3 266.3,392.3 266.3,392.5 266.2,392.6 266.2,392.8 266.1,392.8
			266.1,393.4 266,393.6 265.8,393.8 265.8,393.8 265.8,393.9 265.7,394 265.7,394.1 265.7,394.2 265.5,394.4 265.5,394.4
			265.3,394.7 265.2,395 265.1,395.1 265.1,395.2 265.2,395.3 265.2,396.7 265.1,396.8 265.1,397 265,397.3 265,397.3 264.9,397.4
			264.7,397.7 264.7,397.7 264.7,397.8 264.6,397.8 264.6,397.8 264.5,398 264.4,398.1 263.9,398.6 263.8,398.6 263.7,398.7
			263.7,398.7 263.5,398.8 263.4,398.9 263.3,398.9 263.3,398.9 263.2,398.9 263.1,399 263,399 262.6,399.4 262.6,399.6
			262.5,399.7 262.5,399.9 262.4,400.1 262.3,400.2 262.3,400.3 262.3,400.4 262.4,400.5 262.4,400.7 262.3,400.9 262.3,401.1
			262.4,401.2 262.4,401.2 262.7,401.3 262.7,401.3 262.8,401.4 262.9,401.4 263,401.3 263.2,401.3 263.2,401.4 263.2,401.6
			263.1,401.9 263,402.1 263,402.1 262.8,402.4 262.8,402.6 262.1,403.3 262.1,403.3 262,403.5 262,403.7 262,403.7 261.9,404.2
			261.9,404.3 261.9,404.7 262,404.8 262,405.1 262,405.1 262,405.3 262,405.4 262,405.4 262,405.5 262.1,405.6 262.1,405.8
			262.2,405.9 262.2,406.2 262.3,406.4 262.4,406.5 262.4,406.7 262.3,406.8 262.3,406.9 262.2,407.1 262.2,407.6 262.2,407.6
			262.2,407.8 262.1,408.2 262,408.3 262,408.5 262,408.5 262,408.6 262,408.7 262,409.5 262.1,409.8 262.1,410.1 262,410.1
			262,410.2 262,410.3 262,410.3 262,410.4 262,410.6 262,410.6 262,410.7 261.9,411.1 261.7,411.3 261.7,411.4 261.7,411.6
			261.7,411.7 261.6,411.8 261.6,411.8 261.6,412.3 261.6,412.3 261.5,412.6 261.5,412.6 261.5,412.8 261.4,412.8 261.4,413.1
			261.5,413.2 261.5,413.7 261.4,413.7 261.4,414 261.5,414 261.5,414.2 261.4,414.2 261.4,414.4 261.4,414.5 261.3,414.7
			261.2,415 261.1,415.2 261,415.2 260.9,415.3 260.8,415.6 260.8,415.8 260.8,416.2 260.8,416.2 260.8,416.7 260.8,416.7
			260.8,416.9 260.7,417 260.7,417.2 260.7,417.2 260.7,417.5 260.6,417.6 260.6,417.7 260.5,417.9 260.4,418.2 260.4,418.2
			260.4,418.3 260.3,418.4 260.3,418.7 260.3,418.8 260.3,418.9 260.2,419 260.3,419.1 260.3,419.3 260.2,419.3 260.2,419.4
			260.2,419.6 260.2,419.7 260.2,419.8 260.2,420.3 260.2,420.4 260.2,420.5 260.2,420.5 260.3,420.6 260.3,420.8 260.2,420.8
			260.2,420.9 260.3,420.9 260.3,421.1 260.2,421.2 260.3,421.2 260.3,421.3 260.3,421.3 260.3,421.4 260.3,421.5 260.2,421.6
			260.2,421.7 260.2,421.8 260.2,422 260.1,422.2 260.1,422.5 260.1,422.6 260.1,422.8 260.1,422.8 260.1,422.9 260,423 260,423.1
			260,423.1 260,423.3 259.9,423.4 259.9,423.6 259.8,423.8 259.8,424.1 259.8,424.3 259.7,424.5 259.7,424.6 259.7,425.2
			259.6,425.4 259.7,425.5 259.7,425.6 259.6,425.6 259.6,425.8 259.6,425.8 259.6,426.1 259.6,426.1 259.6,426.3 259.8,426.4
			259.9,426.7 259.9,426.7 259.8,426.8 259.8,427 259.7,427 259.7,427.1 259.6,427.4 259.6,427.5 259.6,427.7 259.6,428 259.5,428
			259.5,428.5 259.4,428.6 259.4,428.7 259.3,428.9 259.3,429 259.3,429 259.3,429.3 259.2,429.6 259.2,429.8 259.1,429.9
			259.1,430.1 259.1,430.1 259.1,430.4 259.2,430.4 259.2,430.6 259.1,430.6 259.1,431 259.2,431.1 259.1,431.2 259,431.2
			259.1,431.3 259.1,431.4 259.1,431.5 259.1,431.8 259.2,431.8 259.2,432.1 259.1,432.2 259.1,432.4 259.1,432.5 259.1,432.6
			259.1,432.7 259.1,432.8 259.1,432.9 259.1,433.1 259.1,433.2 259.1,433.3 259.2,433.3 259.1,433.3 259.1,433.4 259.1,433.4
			259,433.5 259,433.6 258.9,433.7 258.8,433.8 258.8,433.9 258.8,434 258.7,434.2 258.5,434.4 258.5,434.5 258.4,434.7
			258.3,434.8 258.2,434.9 258.2,435 258.2,435.1 258.2,435.4 258.1,435.5 258.1,435.6 258.1,435.7 258.1,435.8 258,435.9 258,436
			258,436 258,436.1 258,436.1 257.8,436.5 257.8,436.6 257.9,436.7 257.9,436.9 258,437 258.1,437 258.1,437.1 258.2,437.1
			258.2,437.2 258.2,437.2 258.2,437.3 258.2,437.4 258.3,437.4 258.3,437.5 258.3,437.7 258.4,437.7 258.4,437.7 258.4,437.9
			258.5,438.3 258.3,438.6 258.2,438.9 257.9,439.2 257.9,439.2 257.8,439.3 257.8,439.3 257.4,439.6 257.4,439.8 257.5,439.9
			257.5,440 257.5,440 257.7,440.1 257.7,440.2 257.8,440.3 257.8,440.4 257.8,440.5 257.9,440.4 258.1,440.4 258.1,440.4
			258.1,440.4 258.3,440.6 258.3,440.8 258.4,440.9 258.6,441 258.7,441.3 258.8,441.4 258.8,441.5 258.9,441.8 259,442 259.1,442
			259.2,442.2 259.2,442.2 259.2,442.3 259.2,442.3 259.2,442.4 259.2,442.4 259.3,442.4 259.3,442.4 259.4,442.5 259.4,442.5
			259.6,442.6 259.6,442.7 259.6,442.7 259.6,442.8 259.7,442.8 259.7,442.8 259.8,442.6 259.4,441.7 259.1,440.4 259.1,439.5
			258.9,437.9 259.3,436.4 259.9,434.5 260.1,433.7 260.2,431.7 260.6,430.3 261.8,426.8 261.8,426.1 262.5,423.1 263.2,420.3
			263.3,419.7 265.5,419.6 415.7,419.6 415.6,418.3 415.6,416.8 415.4,413.5 415.3,410.4 415.2,407.7 415.1,405.2 415,402.8
			414.9,399.8 414.8,396.5 414.7,394 414.6,391.3 414.4,389.2 414.2,387 414,385.1 413.8,382.8 413.6,380.5 413.4,378.3
			413.2,376.4 413,374.4 412.8,372.4 412.6,370.3 411.9,367.5 411.1,364.9 410.5,362.4 409.9,360.3 410.7,357.7 411.4,355.8
			411.5,353 413.3,351.4 415.1,349.8 417.2,348.4 419,347.1 419.4,346.8 293.4,346.8 		"/>
		<polygon fill="#007A3D" points="267.6,385.6 267.5,385.7 267.5,385.9 267.5,385.9 267.7,386 267.7,386 267.8,385.9 267.8,385.8
			267.6,385.6 		"/>
		<path fill="#FFFFFF" d="M347,247.3l0,0.1l-0.1,0.2l0,0.1l-0.2,0.2l-0.2,0.4l-0.1,0.3l0,0.3l0,0l0,0.5l0,0v0.3l0,0v0.2l-0.1,0.1
			l-0.1,0.1v0.1l-0.1,0.2v0.1l-0.1,0.1v0.1l-0.1,0.1l0,0.2l-0.1,0.2l0,0.3l0,0v0.1l-0.1,0.1v0.1l-0.4,0.8l-0.3,0.6l-0.1,0.1l0,0.2
			l0,0v0.1l0,0l0,0.4l0,0v0.1l0,0l0,0.2l0,0v0.2l0,0l0,1l-0.1,0.1l-0.1,0.2l-0.2,0.2l-0.1,0.2l-0.1,0.1l-0.2,0.3v0.1l0,0l0,0.9l0,0
			l0,0.3l0,0v0.1l0,0v0.1l0,0l0,0.3l0,0l0,0.6l0,0v0.1l-0.1,0.1l-0.1,0.1l-0.2,0.2l-0.1,0.2l-0.1,0.2v0.3l0,0.1l0.1,0.1v0.1l0.1,0.2
			l0,0.2l0,0v0.1l0,0l0,0.3l0,0l0,0.4l0.1,0.1l0.3,0.4h0l0.4,0.4l0,0.1l0,0l0,0l0,0.2l0,0l0,0.1l0,0l0,0.2l0,0l0,0.2l-0.1,0.1v0.1
			l-0.1,0.1L345,265l-0.1,0.1v0.2l0,0v0.3l0,0v0.2l0,0.1l0,0.1l0.1,0.2v0.2l0,0l-0.1,0.4l-0.1,0.2v0.1l-0.1,0.1v0.1l0,0l0,0.2l0,0
			l0,0.2l0,0v0.1l0,0l0,0.6l0.1,0.2l0.1,0.1l0,0.2l0,0l0,0.3l0.1,0.2l0,0.4l-0.1,0.2l-0.2,0.2l-0.1,0.3v0.1l-0.2,0.2v0.1l-0.1,0.2
			v0.1l-0.1,0.1v0.2l0,0l0,0.4l-0.1,0.1v0.1l-0.1,0.4v0.1l0,0v0.1l-0.2,0.3l0,0.1l-0.1,0.1l-0.1,0.2l-0.1,0.2l-0.2,0.6l-0.1,0.1
			l-0.1,0.3l-0.1,0.1v0.6l0,0v0.3l0,0v0.3l0,0v0.1l0,0v0.1l-0.1,0.2v0.1l0,0v0.4l0,0v0.1l0,0v0.1l-0.1,0.2l0,0.2l-0.1,0.3l0,0.1
			l-0.1,0.1l0,0.2l0,0l0,0.2l0,0v0.1l-0.1,0.1l-0.2,0.4l-0.1,0.3v0.1l-0.1,0.2h0l-0.3,0.3h0l-0.2,0.2h0l-0.2,0.2v0l-0.3,0.3
			l-0.2,0.1l-0.1,0.1h-0.2l0,0h-0.1l-0.1,0.1h0l-0.1,0.1l-0.2,0.1h-0.2l0,0h-0.1l0,0h-0.1l-0.1,0.1l-0.1,0l-0.1,0.1l0,0.1v0.2
			l-0.1,0.1l-0.1,0.1l-0.1,0.5l0,0v0.1l0,0.1l-0.1,0.2l-0.1,0.1v0.1l-0.1,0.1v0.1l-0.1,0.1l-0.1,0.2l-0.2,0.2h0l0,0.1l0,0v0l0,0
			l-0.3,0.4l-0.2,0.1l-0.1,0.1l-0.2,0.1h0l-0.1,0.1l-0.1,0l-0.1,0.1l-0.1,0.1h-0.1l-0.3,0.1l-0.2,0.2l-0.2,0.1h-0.1l0,0h-0.1l0,0
			l-0.1,0l0,0l-0.2,0l0,0l-0.2,0l0,0h-0.1l0,0l-0.1,0l0,0l-0.2,0l0,0l-0.2,0l0,0l-0.2,0l0,0l-0.2,0l0,0l-0.2,0l-0.3,0.2h-0.1
			l-0.5,0.3l-0.3,0.1l-0.2,0.2l-0.1,0l-0.2,0.1h0l-0.2,0.2l-0.1,0.1l-0.3,0.3v0l-0.1,0.2h0l-0.2,0.2l-0.1,0.1l-0.3,0.3l-0.1,0
			l-0.1,0.1h0l-0.3,0.3h0l-0.1,0.1l-0.1,0l-0.2,0.2h0l-0.4,0.5l0,0l-0.1,0.2v0l-0.2,0.2l-0.1,0.1l0,0.2l-0.1,0.2l-0.1,0.2l-0.1,0.1
			l-0.1,0.2l-0.3,0.3l-0.3,0.5l-0.1,0.2l-0.1,0.2l-0.1,0l-0.2,0.2l-0.1,0.2l-0.3,0.3l-0.1,0.2l-0.1,0.1l0,0l-0.2,0.3l-0.1,0.1v0
			l-0.2,0.2h0l-0.6,0.7v0l-0.3,0.4h0l-0.1,0.1l-0.2,0.1l-0.1,0l-0.4,0.4v0l-0.1,0.1l-0.1,0.1l-0.2,0.2l-0.2,0.1l-0.1,0.1l-0.1,0l0,0
			h-0.1l0,0l-0.2,0l0,0l-0.1,0l0,0h-0.1l0,0l-0.2,0l-0.2,0.1l-0.1,0.1l-0.1,0.2l-0.1,0.3l-0.2,0.2l-0.1,0.2l-0.2,0.3l0,0v0l-0.3,0.3
			h0l-0.1,0.1h0l-0.5,0.5h0l-0.4,0.5v0l-0.3,0.3l0,0l-0.1,0.1h0l-0.6,0.6h0l-0.2,0.2h0l-0.3,0.2l-0.1,0l-0.2,0.2l-0.1,0l-0.2,0.2v0
			l-0.2,0.2l0,0l-0.1,0.2l0,0.1l-0.1,0.2l-0.1,0.1l0,0.1l-0.2,0.3v0l-0.3,0.2l-0.2,0.1l-0.1,0l-0.2,0.1l-0.1,0l0,0l-0.3,0.1
			l-0.2,0.2v0l-0.1,0.1l-0.1,0l-0.1,0.1l-0.1,0.2l0,0l0,0.3l0,0l0,0.2l0,0l0,0.1l0,0.2l-0.1,0.1l0,0.1l0,0v0.1l-0.1,0.2l-0.1,0.2
			l0,0l-0.2,0.2l-0.2,0.1l-0.1,0.1l-0.4,0.2l-0.1,0.1h0l-0.3,0.2l-0.2,0.1l-0.1,0.1l-0.1,0.1l-0.1,0.1l-0.3,0.1l-0.4,0.2l-0.1,0.1
			l-0.4,0.2l-0.1,0.1l0,0l-0.1,0.2l0,0.1l0,0.1l-0.3,0.2l-0.1,0.1l-0.1,0.1l-0.1,0l-0.1,0.1l-0.2,0.1l-0.1,0.1l-0.2,0l0,0h-0.1l0,0
			l-0.1,0l-0.2,0.1l-0.2,0.2h-0.1l-0.1,0.1l-0.2,0l-0.2,0.1l-0.1,0.1l-0.3,0.2h-0.1l0,0l-0.5,0.3l-0.1,0l-0.1,0.1l-0.2,0.1l-0.1,0.1
			l0,0.1l-0.2,0.2l-0.3,0.2l-0.5,0.2l-0.2,0.2l-0.1,0.3l-0.1,0.1l-0.4,0.2l-0.1,0.1l-0.2,0.1l-0.5,0.5l0,0l-0.7,0.8l-0.3,0.5
			l-0.1,0.1v0l-0.4,0.4h0l-0.1,0.1l0,0l-0.4,0.4l-0.1,0.1l0,0.1l-0.3,0.2l0,0.1l-0.3,0.3v0.1l-0.1,0.2l0,0.1l-0.2,0.4v0.1l0,0l0,0.2
			l-0.1,0.2l0,0.6l-0.1,0.1l-0.2,0.4v0l-0.1,0l-0.1,0.1l-0.1,0.1l0,0l-0.1,0.1l-0.1,0.1l-0.1,0l-0.1,0.1l-0.2,0.1l-0.1,0.1l-0.1,0.3
			l0,0.6l0,0l0,0.1l-0.1,0.2l-0.1,0.2l-0.3,0.3l-0.2,0.1l-0.1,0.1v0l-0.1,0l-0.1,0.2l0,0.1l-0.1,0.1l-0.1,0.2h0l-0.2,0.2l-0.1,0
			l-0.1,0.2l-0.1,0.3l-0.1,0.1l-0.1,0.1l0,0.2l0.1,0.1l0,0.1l0.1,0.1l0.2,0l0.1,0.1l0.1,0.1l0.1,0l0.1,0.1l0.1,0.1h0.1l0.1-0.1v-0.4
			l0-0.1l0,0.1v0.3l0,0l-0.1-0.2l-0.1,0l0-0.1l-0.1,0l0-0.1l0.1-0.1l0,0l-0.2-0.1l0-0.1l0.1,0l0-0.1l0-0.1h0.1l0-0.1l0,0v0.1
			l0.1,0.1l0,0.2l0,0l0-0.1l0-0.1l0.1-0.1l0-0.1l0.2-0.3l0.2-0.1l0,0h0.1l0-0.1l0.2-0.3h0l0.2-0.2l0.1,0l0.2-0.3l0.1,0l0.1-0.1
			l0.2-0.2l0.1-0.3l0.2-0.2l0.1-0.3l0.2-0.2l0-0.1l0.1-0.1l0-0.1l0,0l0.1-0.6l0.1-0.1l0-0.1l0.1-0.1l0-0.2l0,0l0-0.1l0.1-0.1l0-0.2
			l0,0l0-0.4l0.1-0.2l0.1-0.1l0-0.2l0.1-0.1l0-0.1l0-0.1l0-0.1l0.1-0.1l0-0.1l0.1-0.2l0.1-0.3l0.2-0.2l0-0.1l0.1-0.1l0-0.1l0.1-0.2
			l0-0.1l0.1-0.1l0-0.1l0.2-0.3l0,0l0.1-0.1h0.1l0-0.1l0-0.1l0.1-0.1l0-0.2l0.1-0.1h0l0.1-0.2v0l0.2-0.2l0,0l0.1-0.1l0.1-0.1l0.1,0
			l0.2-0.3h0.1l0.2-0.3l0-0.1l0.1,0v0l0.1-0.1l0.1,0l0,0l0,0.1l0,0l0,0l0.1,0l0-0.2l0,0l0-0.1l0.1,0.1l0.1-0.1l0.1,0.1h0l0.1-0.1
			h0.1l0.1,0.1l0.1-0.1l0.1,0l0.1-0.3l0.1-0.3l0-0.2l0,0l-0.1,0.1h0l0-0.1l0.1-0.1l0-0.2l0-0.1l0-0.1l-0.1-0.1v0l0.1-0.1l0-0.1l0,0
			l0,0.2l0.1,0.1l0-0.2l0-0.1l0,0l0,0.1l0,0.1l0,0l0,0l0,0l0,0.4l0,0l0,0.2l0,0.1l0.1,0l0.1-0.2l0-0.2l0.1-0.1l0-0.1h0l0.2-0.2
			l0.2,0l0.1,0.1l0,0l0,0.2l-0.1,0.1l0,0.1l-0.1,0.1l0,0.1l-0.1,0.1l0,0.1l0,0l0,0.1l0,0l0,0.1l0.1,0l0.1-0.2l0.1-0.1l0-0.2l0.1-0.2
			l0,0l0,0.3l0.1,0.1l0.1-0.1v0l0.1-0.2l0.2-0.3l0.1-0.2l0.1-0.2v-0.4l0,0l0-0.5l0-0.1l0.2,0l0,0l0.2,0l0.1-0.1h0.1l0.1-0.1h0
			l0.2-0.2l0.2-0.3v-0.1l0.1-0.1l0.2,0l0.1,0l0.1-0.1l0.1,0l0,0.1l0,0l0,0.1l0,0l0,0.2l0,0l-0.1,0.3l0,0.2l0,0v0.1l-0.1,0.2l0,0.2
			l-0.1,0.3l0,0.2l0,0l0,0.2l0,0l0,0.4l0,0l0,0.3l0,0l0,0.4l0,0l0,0.2l-0.1,0.3l0,0.1l-0.1,0.1l0,0.1l-0.1,0.2l0,0.2l-0.2,0.2l0,0.2
			l0,0l0,0.2l-0.2,0.3l-0.1,0.2l-0.1,0.1l0,0.1l0.1,0l0.3-0.2l0.1,0h0l0.2,0.2h0l0.1,0.2l0,0.2l-0.1,0.2l-0.3,0.3l-0.1,0.2l0,0.1
			l0,0v0.1l-0.2,0.2l0,0.2l-0.2,0.1l0,0.1v0.1l-0.7,0.8l-0.2,0.1l-0.1,0.1l-0.2,0.1l0,0.1l-0.1,0.1l0,0l-0.1,0.1l0,0.1l-0.2,0.1
			l0,0.1v0l-0.1,0.1l0,0l-0.1,0.1l0,0l-0.2,0.2l0,0l0,0l0,0.1h0.1l0.1-0.1l0,0l-0.2,0.3l0,0.1l0,0v0.1l-0.1,0.1l-0.1,0.1l-0.1,0.2
			l0,0.1l-0.1,0.1l-0.3,0.3l0,0l-0.1,0.1v0.1l-0.1,0.1l-0.1,0.2l-0.1,0.2l-0.1,0l-0.1,0.1l-0.1,0.1l-0.2,0.2l-0.1,0.4l-0.2,0.2l0,0
			l0,0l0,0.2l-0.1,0.1l-0.2,0.2l-0.1,0.1l-0.2,0.2l0,0l-0.3,0.2h-0.1l-0.1,0.1l0,0.2l-0.1,0v0l-0.1,0.3l0,0.2l-0.1,0.1l0,0.1
			l-0.1,0.1l-0.2,0.4v0.1l-0.1,0.1l-0.2,0.2l-0.1,0.2l0,0.1l0,0l0,0l0,0.1l-0.3,0.3h0l-0.2,0.1l-0.1,0l-0.1,0.1l-0.1,0.1v0l-0.4,0.6
			l-0.2,0.5l-0.2,0.3l-0.2,0.1H302l-0.1,0.1h-0.1l-0.1,0.1l-0.1,0l-0.1,0.1l-0.1,0.1l-0.1,0.1l-0.1,0l0,0.1L301,329h0l-0.1,0.1v0
			l0,0.1l0.1,0.1l0.1,0l0.1,0.1h0l0,0.2l0,0v0.1l0.1,0.1h0l0.1,0.3l0.1,0l0.1,0.2l0.1,0.1l0,0.2l0,0l0,0.1l0,0l0,0.2l-0.1,0.2v0
			l-0.1,0.1l-0.1,0l-0.1,0.1l-0.1,0v0.3l-0.1,0.1l-0.1,0.1l0,0.1l-0.2,0.2l-0.1,0.2l0,0.1l0,0l0,0.3l-0.3,0.3l-0.1,0.2l-0.2,0.3
			l-0.2,0.3l0,0.1l-0.1,0l0,0.1l-1.1,1.2l-0.3,0.2l-0.1,0.1l-0.1,0l-0.5,0.5h0l-0.1,0.1l-0.1,0.1v0.3l0.1,0.2l0,0v0.3l0,0l0,0.1
			l-0.4,0.4l-0.1,0.2l-0.1,0.2l-0.1,0.2l-0.1,0.2l-0.3,0.5l-0.1,0.1v0l-0.1,0.1l0,0.1l-0.1,0.1v0l-0.2,0.2l0,0.1l0,0l0,0.1l-0.2,0.1
			l0,0.1h0l-0.2,0.3l-0.1,0.3l-0.1,0.1l0,0.1l-0.1,0.2l0,0.1l-0.1,0.1l-0.3,0.6l0,0.1l-0.2,0.2v0l-0.3,0.3l0,0l-0.5,0.6h0l-0.1,0.1
			h0l-0.2,0.2v0l-0.2,0.2v0l-0.3,0.3l0,0l-0.3,0.3v0l-0.3,0.3l-0.1,0.2l-0.2,0.2l-0.2,0.3l-0.1,0.1l-0.1,0.2l-0.1,0.1l0,0.1
			l-0.3,0.3l-0.1,0.2l0,0l0,0.1h0.7l0.1-0.3l0.3-0.3l0.1-0.2l0.1-0.1h0l0.2-0.3l0,0l0.2-0.2l0.1,0.1l0.1,0.2l0,0.5l0,0l0,0.2
			l0.1,0.3h126.1l1.4-1l1.8-1.2l1.7-1.2l1.8-1.2l1.8-1.3l1.8-1.2l1.7-1.2l2.1-0.4l2.2-0.4l2.3-0.4l2.3-0.4l2.1-1.1l2-1l2.1-1.1
			l2.1-1.1l3-0.6l2.5-1v-38l0-2.1v-40.4v-2v-1.4L347,247.3L347,247.3z M453.8,289.2l-16.9,12.2l6.3,19.9L426.3,309l-17,12.2v0h0l0,0
			l6.5-19.9L399,288.9l20.9,0.1l6.6-19.8l6.4,19.9L453.8,289.2z M420,257.1c2.6,0,5.1,0.3,7.5,0.7c-18.4,3.5-32.4,19.7-32.4,39.2
			s13.9,35.7,32.4,39.2c-2.4,0.5-4.9,0.7-7.5,0.7c-22,0-39.9-17.8-39.9-39.9S398,257.1,420,257.1z"/>
		<polygon fill="#FFFFFF" points="307.5,313.7 307.5,313.7 307.4,313.6 307.4,313.6 307.3,313.7 307.4,313.7 307.5,313.7 		"/>
		<polygon fill="#FFFFFF" points="307.7,313.6 307.7,313.5 307.7,313.4 307.6,313.4 307.6,313.5 307.6,313.5 307.6,313.5
			307.6,313.6 307.6,313.6 307.7,313.6 		"/>
		<polygon fill="#FFFFFF" points="308.3,313.6 308.3,313.6 308.2,313.7 308.2,313.8 308.2,313.9 308.1,314 308.1,314.1 308.2,314.2
			308.2,314.1 308.2,314.1 308.3,314 308.3,313.9 308.4,313.7 		"/>
		<path fill="#C4111B" d="M420,336.9c2.6,0,5.1-0.3,7.5-0.7c-18.4-3.5-32.4-19.7-32.4-39.2s13.9-35.7,32.4-39.2
			c-2.4-0.5-4.9-0.7-7.5-0.7c-22,0-39.9,17.8-39.9,39.9S398,336.9,420,336.9z"/>
		<polygon fill="#C4111B" points="419.9,288.9 399,288.9 415.8,301.3 409.3,321.1 426.3,309 443.2,321.3 436.9,301.4 453.8,289.2
			432.9,289 426.5,269.1 		"/>
		<polygon fill="#C4111B" points="409.3,321.1 409.3,321.1 409.3,321.1 		"/>
	</g>
	<path fill="none" stroke="#999999" stroke-width="0.25" stroke-linecap="round" stroke-linejoin="round" d="M582.6,151.2l-12.8,0.1
		l-44.3-0.1l-13.4,0l-50.6,0.1h0l-7.2,0l-45.1,0l-0.1,0l0,0l0,0l-0.4,0.5l0,0.1l-0.1,0.2l-0.3,0.3l0,0l-0.1,0.1l-0.2,0.5l-0.1,0.3
		v0.4l0,0v0.2l0,0v0.1l0,0l0,0.1l0,0l0,0.3l-0.1,0.3l-0.1,0.6l-0.2,0.4l0,0.1l-0.1,0.1v0.4l0,0l0,0.1l-0.1,0.2l0,0.2l-0.1,0.4l0,0.2
		l0,0l0,0.2l0,0l0,0.1l0,0l0,0.1l-0.2,0.4l0,0.1l-0.2,0.6l-0.1,0.1l0,0.1l-0.2,0.3l-0.1,0.2l-0.2,0.3l-0.1,0.3l0,0l0,0.2l-0.1,0.1
		l-0.1,0.3l0,0.1l-0.1,0.1l0,0.1l0,0l0,0.2l-0.1,0.1l0,0.1l-0.1,0.3l-0.2,0.6l-0.1,0.2l0,0.1l-0.1,0.1l0,0.2l-0.1,0.1l0,0.1
		l-0.1,0.1l-0.1,0.2l-0.1,0.1l0,0.2l-0.2,0.3v0.1l-0.1,0.2l0,0l-0.1,0.3l-0.1,0.1l-0.2,0.5l0,0.3l-0.1,0.3l0,0.1l-0.1,0.2l-0.1,0.3
		l-0.2,0.4l-0.2,0.2l0,0.1l-0.2,0.3l-0.1,0.2l-0.1,0.2l-0.1,0.1l-0.1,0.3l-0.2,0.4l-0.6,0.7l-0.1,0.2l-0.1,0.2l-0.1,0.2l-0.1,0.3
		l0,0.1l0,0l0,0.1l-0.2,0.3l-0.1,0.2l-0.1,0.1l0,0.1l-0.1,0.1l-0.1,0.1l0,0.1l-0.1,0.1l0,0.1l-0.1,0.1l0,0.1l-0.1,0.2l0,0.1
		l-0.1,0.1l-0.1,0.2l-0.3,0.3l-0.1,0.2v0.2l0.1,0.1l0,0.1v0.3l-0.1,0.1l-0.3,0.3l-0.1,0.2l0,0.1l0,0v0.2l0,0l0,0.3l0,0l0,0.3l0,0
		l0,0.1l0,0v0.2l0.1,0.3l0,0.1l-0.1,0.2l-0.2,0.3l0,0L399,177l-0.1,0.2l0,0.3l-0.1,0.3l0,0.1l-0.1,0.1l0,0.2l0,0l0,0.1l0,0l0,0.1
		l-0.1,0.1l0,0.1l-0.1,0.3l0,0.2l0,0l0,0.4l-0.1,0.3L398,180l0,0.2l-0.2,0.1l-0.1,0.1l0,0l-0.2,0.3l0,0.1l-0.2,0.2l-0.1,0.1l0,0.1
		l-0.3,0.6l0,0.1l-0.1,0.1l0,0.4l0,0l0,0.4l-0.1,0.1l0,0.2l0,0v0.3l0,0l0,0.1l-0.1,0.2l0,0.1l-0.1,0.1l-0.1,0.3l-0.1,0.1l0,0.2
		l-0.1,0.2l-0.1,0.3l-0.1,0.1l-0.3,0.5l-0.2,0.4l-0.1,0.2l-0.1,0.1l0,0.3l-0.1,0.1l0,0.3l0,0v0.2l-0.1,0.3l0,0.2l0,0l-0.1,0.3
		l-0.1,0.1l0,0.1l-0.2,0.5l0,0.1l-0.1,0.1l-0.1,0.3l-0.1,0.2l0,0.1l-0.2,0.5l-0.1,0.1l-0.4,0.4l0,0.1l-0.2,0.1l-0.2,0.1l-0.2,0.1
		l-0.3,0.4v0l-0.2,0.3l-0.2,0.3l-0.1,0.2l0,0l0,0.1l-0.3,0.2l-0.3,0.2l-0.2,0.2l0,0.1l-0.3,0.4l-0.1,0.2l-0.1,0.3l-0.2,0.4l0,0.2
		l-0.1,0.3l-0.2,0.2l0,0l-0.1,0.1l-0.1,0.1l-0.2,0.2l-0.1,0l-0.2,0.1l-0.2,0.2l-0.4,0.2l-0.2,0.1l-0.1,0.1l-0.1,0l-0.1,0.1l0,0.1
		l-0.1,0l0,0.1l-0.4,0.3l-0.1,0l0,0l-0.1,0l0,0l-0.3,0l0,0l-0.2,0l-0.2,0.1l-0.4,0.2l-0.1,0l-0.2,0.1h-0.1l0,0l-0.1,0l-0.1,0.1
		l-0.1,0l-0.1,0.1l-0.3,0.1l-0.1,0.1l-0.4,0.3l-0.1,0l-0.2,0.1l-0.1,0l-0.2,0.1l-0.1,0l-0.1,0.1l-0.1,0l-0.1,0.1l-0.1,0l0,0h-0.1
		l-0.2,0.1l-0.2,0l-0.1,0.1l-0.1,0l-0.1,0.1l-0.1,0l-0.1,0.1l-0.1,0l0,0l-0.2,0l-0.1,0.1l-0.2,0l-0.5,0.3h0l-0.3,0.3l-0.1,0.1
		l-0.1,0l-0.2,0.1l-0.1,0l-0.2,0.1l-0.1,0l-0.1,0.1h-0.1l-0.3,0.2l-0.1,0l-0.3,0.2l-0.3,0.1l-1,1.1l0,0l-0.1,0.1l-0.2,0l-0.1,0.1h0
		l-0.1,0.1l-0.1,0.1h-0.1l-0.2,0.1l-0.2,0.1l-0.1,0.1l-0.1,0l-0.2,0.1l-0.2,0.1l-0.1,0.1h-0.1l-0.2,0.1h0l0,0l-0.5,0.3l-0.2,0.2
		l-0.3,0.1l-0.1,0l-0.1,0.1l-0.2,0l0,0l-0.1,0l0,0l-0.1,0l0,0l-0.1,0l0,0l-0.1,0l0,0l-0.1,0l0,0l-0.2,0l0,0h-0.1l0,0l-0.1,0
		l-0.1,0.1l-0.1,0l0,0l-0.1,0l-0.1,0.1l-0.3,0l0,0h-0.1l-0.1,0.1l-0.1,0l-0.1,0.1l-0.2,0l0,0l-0.1,0l0,0l-0.1,0l0,0l-0.2,0l0,0
		l-0.1,0l0,0l-0.2,0l0,0l-0.2,0l0,0l-0.3,0l0,0l-0.5,0l0,0l-0.4,0l0,0l-0.2,0l0,0l-0.2,0l-0.1,0.1l-0.1,0.2l-0.1,0.3l-0.1,0.1l0,0.1
		l-0.1,0.1v0.1l-0.1,0.1l-0.1,0.2l-0.3,0.4v0l-0.4,0.4l-0.2,0.3l-0.1,0.1l-0.1,0.1l-0.2,0.2v0.1l-0.1,0.3v0.1l-0.1,0.1l0,0.1l0,0
		l-0.1,0.1l-0.1,0.1l0,0.1l-0.4,0.2l-0.1,0.1l0,0l-0.1,0.1h0l-0.3,0.4l-0.1,0l0,0l-0.1,0l-0.1,0.1l-0.1,0l-0.1,0.1l-0.1,0l-0.1,0.1
		h0l-0.5,0.5l0,0l-0.2,0.2l-0.2,0.1l-0.1,0.1l-0.2,0l-0.1,0.1h-0.1l0,0h-0.1l0,0l-0.1,0l-0.2,0.1h-0.1l0,0l-0.2,0l0,0l-0.1,0l0,0
		h-0.1l0,0l-1,0l-0.3,0.1l-0.5,0.5h0l-0.2,0.3v0l-0.2,0.2v0l-0.2,0.1v0l-0.2,0.3v0l-0.3,0.4v0l-0.3,0.3L360,214l-0.1,0.1v0l-0.4,0.4
		h0l-0.2,0.2l-0.2,0.3l-0.1,0.1v0.1l-0.2,0.4l-0.1,0.2l0,0.1l-0.2,0.2l0,0.1l0,0l0,0.2l-0.1,0.1l-0.1,0.2l-0.1,0.2l-0.4,0.4
		l-0.2,0.3l0,0.2l0.1,0.2h0l0.1,0.1v0l0.2,0.2v0.1l0.1,0.1l0,0.2l0.1,0.1l0.1,0.1l0,0.7l0,0l0,0.3l0,0l0,0.1l0,0l0,0.5l0,0l0,0.1
		l0.1,0.1l0,0.1l0,0.3l0,0l0,0.2l0,0l0,0.2l0,0v0.1l-0.1,0.2l0,0.2l-0.1,0.2l0,0.1l-0.1,0.1l0,0.2l0,0l0,0.2l-0.1,0.2l0,0.1l0,0
		l0,0.3l-0.1,0.2l0,0.1l-0.1,0.1l-0.1,0.2l-0.2,0.2l-0.2,0.4l-0.1,0.1l0,0l-0.1,0.2l-0.1,0.2l-0.1,0.1l0,0.1l-0.1,0.3l0,0.1l0,0
		l-0.1,0.3v0.1l-0.1,0.1v0.1l-0.1,0.1l0,0.1l-0.2,0.4l-0.1,0.1l-0.1,0.4l-0.1,0.1l0,0.1l-0.2,0.4l-0.1,0.2l-0.1,0.1l0,0.1l-0.1,0.1
		v0.1l-0.1,0.1l-0.1,0.1l-0.1,0.1v0l-0.2,0.2v0l-0.3,0.4v0l-0.4,0.5l-0.1,0.2l-0.2,0.2v0l-0.4,0.5h0l-0.3,0.4h0l-0.1,0.1l0,0.1
		l-0.1,0.1l0,0.3l-0.1,0.1v0.1l-0.1,0.1l0,0.1v0.1l-0.1,0.2v0.1l-0.1,0.2l-0.1,0.1l0,0.2l-0.1,0.2v0.1l-0.2,0.4l0,0.2l-0.2,0.5
		l-0.1,0.1v0.1l-0.1,0.3l0,0.2l-0.1,0.2l0,0.2l-0.1,0.4v0.1l-0.1,0.1v0.1l-0.1,0.2v0.1l-0.1,0.1v0.1l-0.2,0.4l0,0.1l-0.1,0.1
		l-0.1,0.1v0.1l-0.1,0.1l-0.1,0.2l-0.1,0.2v0.1l0,0l0,0.2l0,0l0,0.5l0,0l0,0.5l0,0l0,0.4l0,0l0,0.2l0,0l0,0.3l-0.2,0.6l-0.3,0.6
		l-0.3,0.6l0,0.1l-0.1,0.2v0.1l0,0v0.1l-0.1,0.1l-0.1,0.1l-0.1,0.3l-0.1,0.1l0,0.1l-0.3,0.5l-0.1,0.2l-0.3,0.4v0l-0.2,0.2l-0.1,0.1
		l-0.2,0.2v0l-0.4,0.4h0l-0.3,0.3l-0.2,0.3l-0.2,0.2v0.1l-0.1,0.1l0,0.1l-0.1,0.2l0,0.1l-0.2,0.2l-0.2,0.4l-0.1,0.3l0,0.3l0,0l0,0.5
		l0,0v0.3l0,0v0.2l-0.1,0.1l-0.1,0.1v0.1l-0.1,0.2v0.1l-0.1,0.1v0.1l-0.1,0.1l0,0.2l-0.1,0.2l0,0.3l0,0v0.1l-0.1,0.1v0.1l-0.4,0.8
		l-0.3,0.6l-0.1,0.1l0,0.2l0,0v0.1l0,0l0,0.4l0,0v0.1l0,0l0,0.2l0,0v0.2l0,0l0,1l-0.1,0.1l-0.1,0.2l-0.2,0.2l-0.1,0.2l-0.1,0.1
		l-0.2,0.3v0.1l0,0l0,0.9l0,0l0,0.3l0,0v0.1l0,0v0.1l0,0l0,0.3l0,0l0,0.6l0,0v0.1l-0.1,0.1l-0.1,0.1l-0.2,0.2l-0.1,0.2l-0.1,0.2v0.3
		l0,0.1l0.1,0.1v0.1l0.1,0.2l0,0.2l0,0v0.1l0,0l0,0.3l0,0l0,0.4l0.1,0.1l0.3,0.4h0l0.4,0.4l0,0.1l0,0l0,0l0,0.2l0,0l0,0.1l0,0l0,0.2
		l0,0l0,0.2l-0.1,0.1v0.1l-0.1,0.1L345,265l-0.1,0.1v0.2l0,0v0.3l0,0v0.2l0,0.1l0,0.1l0.1,0.2v0.2l0,0l-0.1,0.4l-0.1,0.2v0.1
		l-0.1,0.1v0.1l0,0l0,0.2l0,0l0,0.2l0,0v0.1l0,0l0,0.6l0.1,0.2l0.1,0.1l0,0.2l0,0l0,0.3l0.1,0.2l0,0.4l-0.1,0.2l-0.2,0.2l-0.1,0.3
		v0.1l-0.2,0.2v0.1l-0.1,0.2v0.1l-0.1,0.1v0.2l0,0l0,0.4l-0.1,0.1v0.1l-0.1,0.4v0.1l0,0v0.1l-0.2,0.3l0,0.1l-0.1,0.1l-0.1,0.2
		l-0.1,0.2l-0.2,0.6l-0.1,0.1l-0.1,0.3l-0.1,0.1v0.6l0,0v0.3l0,0v0.3l0,0v0.1l0,0v0.1l-0.1,0.2v0.1l0,0v0.4l0,0v0.1l0,0v0.1
		l-0.1,0.2l0,0.2l-0.1,0.3l0,0.1l-0.1,0.1l0,0.2l0,0l0,0.2l0,0v0.1l-0.1,0.1l-0.2,0.4l-0.1,0.3v0.1l-0.1,0.2h0l-0.3,0.3h0l-0.2,0.2
		h0l-0.2,0.2v0l-0.3,0.3l-0.2,0.1l-0.1,0.1h-0.2l0,0h-0.1l-0.1,0.1h0l-0.1,0.1l-0.2,0.1h-0.2l0,0h-0.1l0,0h-0.1l-0.1,0.1l-0.1,0
		l-0.1,0.1l0,0.1v0.2l-0.1,0.1l-0.1,0.1l-0.1,0.5l0,0v0.1l0,0.1l-0.1,0.2l-0.1,0.1v0.1l-0.1,0.1v0.1l-0.1,0.1l-0.1,0.2l-0.2,0.2h0
		l0,0.1l0,0v0l0,0l-0.3,0.4l-0.2,0.1l-0.1,0.1l-0.2,0.1h0l-0.1,0.1l-0.1,0l-0.1,0.1l-0.1,0.1h-0.1l-0.3,0.1l-0.2,0.2l-0.2,0.1h-0.1
		l0,0h-0.1l0,0l-0.1,0l0,0l-0.2,0l0,0l-0.2,0l0,0h-0.1l0,0l-0.1,0l0,0l-0.2,0l0,0l-0.2,0l0,0l-0.2,0l0,0l-0.2,0l0,0l-0.2,0l-0.3,0.2
		h-0.1l-0.5,0.3l-0.3,0.1l-0.2,0.2l-0.1,0l-0.2,0.1h0l-0.2,0.2l-0.1,0.1l-0.3,0.3v0l-0.1,0.2h0l-0.2,0.2l-0.1,0.1l-0.3,0.3l-0.1,0
		l-0.1,0.1h0l-0.3,0.3h0l-0.1,0.1l-0.1,0l-0.2,0.2h0l-0.4,0.5l0,0l-0.1,0.2v0l-0.2,0.2l-0.1,0.1l0,0.2l-0.1,0.2l-0.1,0.2l-0.1,0.1
		l-0.1,0.2l-0.3,0.3l-0.3,0.5l-0.1,0.2l-0.1,0.2l-0.1,0l-0.2,0.2l-0.1,0.2l-0.3,0.3l-0.1,0.2l-0.1,0.1l0,0l-0.2,0.3l-0.1,0.1v0
		l-0.2,0.2h0l-0.6,0.7v0l-0.3,0.4h0l-0.1,0.1l-0.2,0.1l-0.1,0l-0.4,0.4v0l-0.1,0.1l-0.1,0.1l-0.2,0.2l-0.2,0.1l-0.1,0.1l-0.1,0l0,0
		h-0.1l0,0l-0.2,0l0,0l-0.1,0l0,0h-0.1l0,0l-0.2,0l-0.2,0.1l-0.1,0.1l-0.1,0.2l-0.1,0.3l-0.2,0.2l-0.1,0.2l-0.2,0.3l0,0v0l-0.3,0.3
		h0l-0.1,0.1h0l-0.5,0.5h0l-0.4,0.5v0l-0.3,0.3l0,0l-0.1,0.1h0l-0.6,0.6h0l-0.2,0.2h0l-0.3,0.2l-0.1,0l-0.2,0.2l-0.1,0l-0.2,0.2v0
		l-0.2,0.2l0,0l-0.1,0.2l0,0.1l-0.1,0.2l-0.1,0.1l0,0.1l-0.2,0.3v0l-0.3,0.2l-0.2,0.1l-0.1,0l-0.2,0.1l-0.1,0l0,0l-0.3,0.1l-0.2,0.2
		v0l-0.1,0.1l-0.1,0l-0.1,0.1l-0.1,0.2l0,0l0,0.3l0,0l0,0.2l0,0l0,0.1l0,0.2l-0.1,0.1l0,0.1l0,0v0.1l-0.1,0.2l-0.1,0.2l0,0l-0.2,0.2
		l-0.2,0.1l-0.1,0.1l-0.4,0.2l-0.1,0.1h0l-0.3,0.2l-0.2,0.1l-0.1,0.1l-0.1,0.1l-0.1,0.1l-0.3,0.1l-0.4,0.2l-0.1,0.1l-0.4,0.2
		l-0.1,0.1l0,0l-0.1,0.2l0,0.1l0,0.1l-0.3,0.2l-0.1,0.1l-0.1,0.1l-0.1,0l-0.1,0.1l-0.2,0.1l-0.1,0.1l-0.2,0l0,0h-0.1l0,0l-0.1,0
		l-0.2,0.1l-0.2,0.2h-0.1l-0.1,0.1l-0.2,0l-0.2,0.1l-0.1,0.1l-0.3,0.2h-0.1l0,0l-0.5,0.3l-0.1,0l-0.1,0.1l-0.2,0.1l-0.1,0.1l0,0.1
		l-0.2,0.2l-0.3,0.2l-0.5,0.2l-0.2,0.2l-0.1,0.3l-0.1,0.1l-0.4,0.2l-0.1,0.1l-0.2,0.1l-0.5,0.5l0,0l-0.7,0.8l-0.3,0.5l-0.1,0.1v0
		l-0.4,0.4h0l-0.1,0.1l0,0l-0.4,0.4l-0.1,0.1l0,0.1l-0.3,0.2l0,0.1l-0.3,0.3v0.1l-0.1,0.2l0,0.1l-0.2,0.4v0.1l0,0l0,0.2l-0.1,0.2
		l0,0.6l-0.1,0.1l-0.2,0.4v0l-0.1,0l-0.1,0.1l-0.1,0.1l0,0l-0.1,0.1l-0.1,0.1l-0.1,0l-0.1,0.1l-0.2,0.1l-0.1,0.1l-0.1,0.3l0,0.6l0,0
		l0,0.1l-0.1,0.2l-0.1,0.2l-0.3,0.3l-0.2,0.1l-0.1,0.1v0l-0.1,0l-0.1,0.2l0,0.1l-0.1,0.1l-0.1,0.2h0l-0.2,0.2l-0.1,0l-0.1,0.2
		l-0.1,0.3l-0.1,0.1l-0.1,0.1l0,0.2l0.1,0.1l0,0.1l0.1,0.1l0.2,0l0.1,0.1l0.1,0.1l0.1,0l0.1,0.1l0.1,0.1h0.1l0.1-0.1v-0.4l0-0.1
		l0,0.1v0.3l0,0l-0.1-0.2l-0.1,0l0-0.1l-0.1,0l0-0.1l0.1-0.1l0,0l-0.2-0.1l0-0.1l0.1,0l0-0.1l0-0.1h0.1l0-0.1l0,0v0.1l0.1,0.1l0,0.2
		l0,0l0-0.1l0-0.1l0.1-0.1l0-0.1l0.2-0.3l0.2-0.1l0,0h0.1l0-0.1l0.2-0.3h0l0.2-0.2l0.1,0l0.2-0.3l0.1,0l0.1-0.1l0.2-0.2l0.1-0.3
		l0.2-0.2l0.1-0.3l0.2-0.2l0-0.1l0.1-0.1l0-0.1l0,0l0.1-0.6l0.1-0.1l0-0.1l0.1-0.1l0-0.2l0,0l0-0.1l0.1-0.1l0-0.2l0,0l0-0.4l0.1-0.2
		l0.1-0.1l0-0.2l0.1-0.1l0-0.1l0-0.1l0-0.1l0.1-0.1l0-0.1l0.1-0.2l0.1-0.3l0.2-0.2l0-0.1l0.1-0.1l0-0.1l0.1-0.2l0-0.1l0.1-0.1l0-0.1
		l0.2-0.3l0,0l0.1-0.1h0.1l0-0.1l0-0.1l0.1-0.1l0-0.2l0.1-0.1h0l0.1-0.2v0l0.2-0.2l0,0l0.1-0.1l0.1-0.1l0.1,0l0.2-0.3h0.1l0.2-0.3
		l0-0.1l0.1,0v0l0.1-0.1l0.1,0l0,0l0,0.1l0,0l0,0l0.1,0l0-0.2l0,0l0-0.1l0.1,0.1l0.1-0.1l0.1,0.1h0l0.1-0.1h0.1l0.1,0.1l0.1-0.1
		l0.1,0l0.1-0.3l0.1-0.3l0-0.2l0,0l-0.1,0.1h0l0-0.1l0.1-0.1l0-0.2l0-0.1l0-0.1l-0.1-0.1v0l0.1-0.1l0-0.1l0,0l0,0.2l0.1,0.1l0-0.2
		l0-0.1l0,0l0,0.1l0,0.1l0,0l0,0l0,0l0,0.4l0,0l0,0.2l0,0.1l0.1,0l0.1-0.2l0-0.2l0.1-0.1l0-0.1h0l0.2-0.2l0.2,0l0.1,0.1l0,0l0,0.2
		l-0.1,0.1l0,0.1l-0.1,0.1l0,0.1l-0.1,0.1l0,0.1l0,0l0,0.1l0,0l0,0.1l0.1,0l0.1-0.2l0.1-0.1l0-0.2l0.1-0.2l0,0l0,0.3l0.1,0.1
		l0.1-0.1v0l0.1-0.2l0.2-0.3l0.1-0.2l0.1-0.2v-0.4l0,0l0-0.5l0-0.1l0.2,0l0,0l0.2,0l0.1-0.1h0.1l0.1-0.1h0l0.2-0.2l0.2-0.3v-0.1
		l0.1-0.1l0.2,0l0.1,0l0.1-0.1l0.1,0l0,0.1l0,0l0,0.1l0,0l0,0.2l0,0l-0.1,0.3l0,0.2l0,0v0.1l-0.1,0.2l0,0.2l-0.1,0.3l0,0.2l0,0
		l0,0.2l0,0l0,0.4l0,0l0,0.3l0,0l0,0.4l0,0l0,0.2l-0.1,0.3l0,0.1l-0.1,0.1l0,0.1l-0.1,0.2l0,0.2l-0.2,0.2l0,0.2l0,0l0,0.2l-0.2,0.3
		l-0.1,0.2l-0.1,0.1l0,0.1l0.1,0l0.3-0.2l0.1,0h0l0.2,0.2h0l0.1,0.2l0,0.2l-0.1,0.2l-0.3,0.3l-0.1,0.2l0,0.1l0,0v0.1l-0.2,0.2l0,0.2
		l-0.2,0.1l0,0.1v0.1l-0.7,0.8l-0.2,0.1l-0.1,0.1l-0.2,0.1l0,0.1l-0.1,0.1l0,0l-0.1,0.1l0,0.1l-0.2,0.1l0,0.1v0l-0.1,0.1l0,0
		l-0.1,0.1l0,0l-0.2,0.2l0,0l0,0l0,0.1h0.1l0.1-0.1l0,0l-0.2,0.3l0,0.1l0,0v0.1l-0.1,0.1l-0.1,0.1l-0.1,0.2l0,0.1l-0.1,0.1l-0.3,0.3
		l0,0l-0.1,0.1v0.1l-0.1,0.1l-0.1,0.2l-0.1,0.2l-0.1,0l-0.1,0.1l-0.1,0.1l-0.2,0.2l-0.1,0.4l-0.2,0.2l0,0l0,0l0,0.2l-0.1,0.1
		l-0.2,0.2l-0.1,0.1l-0.2,0.2l0,0l-0.3,0.2h-0.1l-0.1,0.1l0,0.2l-0.1,0v0l-0.1,0.3l0,0.2l-0.1,0.1l0,0.1l-0.1,0.1l-0.2,0.4v0.1
		l-0.1,0.1l-0.2,0.2l-0.1,0.2l0,0.1l0,0l0,0l0,0.1l-0.3,0.3h0l-0.2,0.1l-0.1,0l-0.1,0.1l-0.1,0.1v0l-0.4,0.6l-0.2,0.5l-0.2,0.3
		l-0.2,0.1H302l-0.1,0.1h-0.1l-0.1,0.1l-0.1,0l-0.1,0.1l-0.1,0.1l-0.1,0.1l-0.1,0l0,0.1L301,329h0l-0.1,0.1v0l0,0.1l0.1,0.1l0.1,0
		l0.1,0.1h0l0,0.2l0,0v0.1l0.1,0.1h0l0.1,0.3l0.1,0l0.1,0.2l0.1,0.1l0,0.2l0,0l0,0.1l0,0l0,0.2l-0.1,0.2v0l-0.1,0.1l-0.1,0l-0.1,0.1
		l-0.1,0v0.3l-0.1,0.1l-0.1,0.1l0,0.1l-0.2,0.2l-0.1,0.2l0,0.1l0,0l0,0.3l-0.3,0.3l-0.1,0.2l-0.2,0.3l-0.2,0.3l0,0.1l-0.1,0l0,0.1
		l-1.1,1.2l-0.3,0.2l-0.1,0.1l-0.1,0l-0.5,0.5h0l-0.1,0.1l-0.1,0.1v0.3l0.1,0.2l0,0v0.3l0,0l0,0.1l-0.4,0.4l-0.1,0.2l-0.1,0.2
		l-0.1,0.2l-0.1,0.2l-0.3,0.5l-0.1,0.1v0l-0.1,0.1l0,0.1l-0.1,0.1v0l-0.2,0.2l0,0.1l0,0l0,0.1l-0.2,0.1l0,0.1h0l-0.2,0.3l-0.1,0.3
		l-0.1,0.1l0,0.1l-0.1,0.2l0,0.1l-0.1,0.1l-0.3,0.6l0,0.1l-0.2,0.2v0l-0.3,0.3l0,0l-0.5,0.6h0l-0.1,0.1h0l-0.2,0.2v0l-0.2,0.2v0
		l-0.3,0.3l0,0l-0.3,0.3v0l-0.3,0.3l-0.1,0.2l-0.2,0.2l-0.2,0.3l-0.1,0.1l-0.1,0.2l-0.1,0.1l0,0.1l-0.3,0.3l-0.1,0.2l0,0l0,0.2
		l0.1,0.2l0.1,0l0.2,0l0.2-0.1l0.1,0l0.1-0.1l0.2-0.3l0.3-0.3l0.1-0.2l0.1-0.1h0l0.2-0.3l0,0l0.2-0.2l0.1,0.1l0.1,0.2l0,0.5l0,0
		l0,0.2l0.2,0.3l0.1,0.2l0.1,0.1l0.1,0.2l0.1,0.1l0,0.2l0.1,0.2l0,0.3l0,0l0,0.1l0,0l0,0.5l0,0v0.3l0,0l0,0.7l-0.1,0.2l0,0.1v0.4
		l0,0l-0.2,0.6l-0.1,0.2v0.1l-0.2,0.3l0,0l-0.1,0.1l-0.2,0.3l-0.1,0.2l-0.4,0.4l-0.1,0.1l-0.1,0.1l-0.1,0.2l-0.1,0.1h0l-0.2,0.2
		l-0.1,0l-0.2,0.2h0l0,0.1h0l-0.1,0.1l-0.2,0l-0.1,0.1l-0.1,0.2l-0.1,0l0,0h-0.1l0,0l-0.1,0l0,0l0,0l-0.2,0.1l-0.3,0l-0.1,0
		l-0.4,0.2l-0.2,0l-0.3,0.2l-0.1,0l-0.1-0.1l0-0.2l0-0.1l-0.1,0l-0.2-0.2h0l-0.1-0.1l-0.1,0l-0.1,0.1l-0.1,0l-0.1,0.1v0.2l0,0l0,0.3
		l-0.1,0.2l0,0.3l-0.1,0.3l-0.1,0.1l-0.1,0.2l-0.1,0.1l0,0.2l0.1,0.1l0,0.4l0.1,0.1l0.3,0l0.1,0.1v0l0.1,0.1l0,0.3l-0.1,0.1l0,0.1
		l-0.1,0.2l0,0l-0.1,0.1l-0.1,0.2l-0.1,0.1v0l-0.1,0.1l0,0l-0.4,0.4l-0.1,0.1l-0.1,0.1l0,0.1l-0.1,0.2l-0.1,0.2l-0.1,0.1l-0.3,0.1
		l-0.1,0.1l0,0.1l0.1,0.1l0,0.2l0,0.1l-0.2,0.1l-0.1,0.1l0,0.2l-0.1,0.1l0,0.3l-0.1,0.1l0,0.1l0,0l0,0.1l-0.1,0.3l0,0.2l0,0l0,0.1
		l0,0v0.3l0.1,0.1l0,0.2l0,0l0,0.3l0,0l0,0.2l-0.2,0.3l0,0.1l0,0v0.5l0.1,0.1l0,0l0,0.1l-0.1,0.1l0,0.1l-0.1,0.1l0,0.1l-0.1,0.2
		l0,0.1l0,0l0,0.1l-0.1,0.1l0,0.1l-0.1,0.2l0,0l0,0.2l-0.1,0.1l0,0.1l-0.1,0.1v0.1l-0.1,0.2l0,0.4l0,0l0,0.1l0,0l0,0.2l0,0l0,0.5
		l0,0.1l-0.2,0.3l-0.1,0l0,0.1l-0.1,0.1l0,0l0,0l-0.1,0.1l-0.1,0l0,0l-0.2,0.2h0l-0.1,0.1l-0.5,0.4l-0.2,0.1l-0.2,0.2l-0.1,0l0,0
		l-0.1,0l-0.2,0.2l-0.2,0l-0.1,0.1l-0.1,0l-0.1,0.1l0,0.1l0,0l-0.1,0.1l0,0.1l-0.1,0.2l-0.1,0.1l-0.1,0.2l-0.1,0.1l-0.1,0.2v0.2l0,0
		l0,0.1l0,0l0,0.3l-0.1,0.1l0,0.1l-0.1,0.1l0,0.1l-0.1,0.1l0,0.1l-0.1,0.1l0,0.1l-0.1,0.1l0,0.1l0.1,0.1v0.1l0,0l0,0.2l0,0l0,0.1
		l0,0l0,0.1l-0.1,0.1l-0.1,0.1l0,0.5l-0.2,0.4l-0.1,0.2l0,0.3l0.1,0.1v0.2l-0.1,0.2l-0.1,0.2l-0.1,0.1l-0.1,0.2l0,0.1l-0.3,0.6
		l0,0.1l-0.1,0.1l-0.2,0.2l-0.2,0l0,0.1l0.1,0.2l0,0.1l-0.1,0.1l0,0.1l0.1,0.1l0,0.1l-0.1,0.3l-0.6,0.6l-0.4,0.2l-0.1,0.1l-0.1,0.1
		h-0.1l-0.1,0.1l-0.1,0l0,0l-0.2,0l-0.4,0.2h0L278,380l-0.3,0.1l-0.3,0l0,0l-0.2,0l0,0H277l-0.1,0.1l-0.1,0l0,0l-0.1,0l0,0l-0.1,0
		l-0.2,0.1l-0.2,0l-0.1,0.1l-0.2,0l0,0l-0.1,0l0,0l-0.5,0l-0.1,0.1l-0.1-0.2l-0.1-0.2l-0.1,0l-0.1-0.1l0-0.3l0-0.1h0l0,0l-0.1,0
		l0-0.1v-0.2l-0.1-0.1l-0.1,0l-0.1-0.1l-0.1,0l0,0l-0.2,0l-0.2,0.1l-0.1,0l-0.5,0.3h0l0,0.1l0,0l-0.1,0.1v0l0,0l-0.2,0.3l0,0l-0.1,0
		l-0.2,0.3v0.2l-0.1,0.1l-0.1,0.1l0,0.1l-0.2,0.2l0,0l-0.4,0.4l-0.1,0.1l-0.2,0.2l0,0.1l-0.1,0.1l-0.3,0.1h-0.1l-0.1,0.1l0,0.1
		l-0.3,0.1l-0.1,0.1l0,0.1l-0.3,0.3l-0.1,0.1l0,0.1l-0.1,0.1l-0.2,0.1l0,0l0.2,0.1l0.1,0.1l0.2,0.1l0,0.4l-0.1,0.2l-0.1,0.1l-0.1,0
		l-0.1,0.1l-0.1,0.1l0,0l-0.2,0.1l-0.1,0l-0.1,0.1l-0.2,0l-0.1,0.1l0,0.1l-0.2,0.2l0,0.1l-0.1,0.1l0,0.1l-0.1,0.1l0,0.1l0,0l0,0.1
		l0,0v0.2l-0.1,0.2l-0.1,0.1l-0.1,0.3l-0.1,0.1l0,0.1l-0.1,0.2v0.1l-0.1,0.1l-0.1,0.1l0,0.2l0,0l0,0.1l-0.2,0.2l-0.1,0.1l0,0.1
		l-0.1,0.1l0,0.1l-0.1,0.1l0,0.2l0,0l0,0.1l-0.1,0.1l0,0.1l0,0l0,0.1l0,0l0,0.1l-0.1,0.1l-0.1,0.2l-0.1,0.1l0,0.1l0,0l0,0.3
		l-0.1,0.2v0.2l0,0l0,0.1l0,0l0,0.2l-0.2,0.3l0,0l0,0.1l-0.1,0.1l0,0.1l0,0l0,0.2l-0.1,0.1l0,0.2l0,0l0,0.6l-0.1,0.2l-0.2,0.2l0,0.1
		l-0.1,0.1l0,0.1l-0.1,0.1l0,0.1l-0.1,0.2l0,0.1l-0.2,0.2l-0.2,0.3l0,0.1l0,0.2l0,0l0,1.5l0,0l0,0.3l-0.1,0.2l0,0l0,0.1l-0.2,0.3h0
		l0,0.1l0,0v0l-0.1,0.1l-0.1,0.1l-0.5,0.5l-0.1,0l-0.1,0.1h-0.1l-0.2,0.1l-0.1,0.1l-0.1,0l0,0l-0.1,0l-0.1,0.1l-0.1,0l-0.4,0.4
		l0,0.2l-0.1,0.1l0,0.2l-0.1,0.2l-0.1,0.1l0,0.1l0,0.1l0.1,0.1v0.1l-0.1,0.2l0,0.2l0,0.1l0.1,0l0.2,0.1l0.1,0l0.1,0.1l0.1,0l0,0
		l0.2,0l0.1,0.1l0,0.2l-0.1,0.2l-0.1,0.2l0,0.1l-0.2,0.3l-0.1,0.1l-0.7,0.7l0,0l-0.1,0.2v0.2l0,0l0,0.5l0,0l0,0.4l0.1,0.1l0,0.3l0,0
		v0.1l0,0.1l0,0l0,0.1l0.1,0.1l0,0.2l0.1,0.1l0,0.2l0.1,0.2l0.1,0.1l0,0.2l-0.1,0.1l0,0.1l-0.1,0.2l0,0.4l0,0v0.2l-0.1,0.3l-0.1,0.1
		l0,0.2l0,0l0,0.1l0,0l0,0.9l0.1,0.3l0,0.2l-0.1,0.1l0,0.1l0,0l0,0.1l0,0v0.2l0,0l0,0.1l-0.1,0.3l-0.2,0.2l0,0.2l-0.1,0.2l0,0.1l0,0
		l0,0l0,0.5l0,0l-0.1,0.3l0,0l0,0.1l0,0l0,0.3l0,0v0.5l0,0l0,0.3l0,0l0,0.1l0,0v0.2l-0.1,0.1l0,0.3l-0.1,0.3l-0.2,0.2l-0.1,0
		l-0.1,0.1l-0.1,0.3l-0.1,0.2l0,0.4l0,0l0,0.5l0,0l0,0.2l-0.1,0.1v0.1l0,0l0,0.3l-0.1,0.1l0,0.1l-0.1,0.2l0,0.3l0,0l0,0.1l-0.1,0.1
		l0,0.3l0,0l0,0.1l-0.1,0.1l0,0l0,0.2l0,0l0,0.1l-0.1,0.1l0,0.2l0,0v0.5l0.1,0.1l0,0.1l0,0l0,0.1v0.2l0,0v0.1l0,0v0.2l0,0.1l0,0
		l0,0.1l0.1,0.1l0,0l0,0.1l-0.1,0.1v0.1l0,0l0,0.2l-0.1,0.2l0,0.3l0,0v0.2l0,0l0,0.1L260,423l0,0.1l0,0l0,0.2l-0.1,0.1l0,0.1
		l-0.1,0.3l0,0.2l-0.1,0.2l0,0.3l-0.1,0.1v0.6l-0.1,0.1l0.1,0.1l0,0.1l0,0l0,0.1l0,0l0,0.3l0,0v0.2l0.1,0.1l0.1,0.2l0,0.1l-0.1,0.1
		l0,0.1l0,0l0,0.1l-0.1,0.2v0.2l-0.1,0.1l0,0.3l0,0l0,0.5l-0.1,0.1l0,0.2l-0.1,0.1l0,0.1l0,0l0,0.3l-0.1,0.3l0,0.2l-0.1,0.1l0,0.2
		l0,0l0,0.2l0.1,0.1l0,0.1l0,0l0,0.4l0,0.1l-0.1,0.1l0,0l0,0l0,0.1l0.1,0.1v0.3l0,0l0,0.3l0,0v0.2l-0.1,0.1l0,0.1l0.1,0.1l0,0.1l0,0
		l0,0.3l0,0l0,0.1l0,0l0,0l0,0l0,0.1l-0.1,0l0,0.1l-0.1,0.1l-0.1,0.1l-0.1,0.1l0,0.1l-0.1,0.2l-0.2,0.2l0,0.1l-0.1,0.1l-0.1,0.1
		l-0.1,0.1l0,0.1l0,0l0,0.3l-0.1,0.1l0,0.1l0,0l0,0.1l-0.1,0.1l0,0.1l0,0l0,0.1l0,0l-0.2,0.3l0,0.1l0.1,0.1l0,0.2l0.1,0.1l0,0.1
		l0,0.1l0.1,0v0.1l0,0l0,0.1l0,0.1l0.1,0.1l0,0.1v0.2l0,0l0,0.1l0.1,0.2l0,0.4l-0.2,0.3l-0.1,0.3l-0.2,0.3l0,0l-0.1,0.1h0l-0.3,0.4
		v0.1l0.1,0.2l0,0.1l0,0l0.2,0.1l0,0.1l0.1,0.1l0,0.1l0,0l0.1-0.1l0.1,0l0,0h0.1l0.2,0.2v0.2l0.1,0.2l0.2,0.1l0.1,0.3l0.1,0.1
		l0.1,0.1l0,0.3l0.1,0.2l0.1,0l0.1,0.2l0,0.1l0,0l0,0.1l0,0l0,0l0,0l0.1,0l0.1,0.1l0,0l0.1,0.1l0,0l0,0.1l0,0l0,0v0l0.1-0.2
		l-0.3-0.9l-0.3-1.3l0-0.9l-0.2-1.6l0.4-1.5l0.5-1.9l0.2-0.8l0.1-2l0.4-1.4l1.2-3.5v-0.7l0.7-3.1l0.6-2.7l0.1-0.6l2.2-0.1h150.2
		l-0.1-1.3l-0.1-1.4l-0.1-3.3l-0.1-3.1l-0.1-2.7l-0.1-2.6l-0.1-2.4l-0.1-3l-0.1-3.2l-0.1-2.5l-0.1-2.7l-0.2-2.1l-0.2-2.2l-0.2-1.9
		l-0.2-2.4l-0.2-2.2l-0.2-2.3l-0.2-1.9l-0.2-2l-0.2-2l-0.2-2.2l-0.7-2.7l-0.7-2.7l-0.7-2.4l-0.6-2.2l0.9-2.5l0.7-2l0.1-2.8l1.8-1.6
		l1.8-1.6l2-1.4l1.9-1.3l1.9-1.3l1.8-1.2l1.7-1.2l1.8-1.2l1.8-1.3l1.8-1.2l1.7-1.2l2.1-0.4l2.2-0.4l2.3-0.4l2.3-0.4l2.1-1.1l2-1
		l2.1-1.1l2.1-1.1l3-0.6l2.5-1v-38l0-2.1v-40.4v-2v-25.3h22.2l2,0H498h2.7h15.6h2.8h37.7l2.3,0h17.3h2.2h4v-70L582.6,151.2z
		 M267.7,386L267.7,386l0.2-0.1l0-0.1l-0.2-0.2l-0.1,0l-0.1,0.1v0.2l0,0.1L267.7,386z M267.9,384.2L267.9,384.2l0.1-0.1l0-0.1
		l-0.1-0.1l-0.1,0l-0.1,0.1v0.1L267.9,384.2L267.9,384.2z M308.3,313.6L308.3,313.6l-0.1,0.1l0,0.1v0.1l-0.1,0.1l0,0.1l0,0.1l0,0
		l0-0.1l0.1-0.1l0-0.1L308.3,313.6L308.3,313.6z M307.5,313.7L307.5,313.7L307.5,313.7l-0.1-0.1l0,0.1l0,0.1L307.5,313.7
		L307.5,313.7z M307.7,313.6L307.7,313.6l0-0.1h0L307.7,313.6L307.7,313.6L307.7,313.6L307.7,313.6L307.7,313.6L307.7,313.6
		L307.7,313.6z"/>
</g>

</svg>
