<?xml version="1.0" encoding="utf-8"?>

<svg version="1.2" baseProfile="tiny" xmlns="http://www.w3.org/2000/svg" xmlns:xlink="http://www.w3.org/1999/xlink" x="0px"
	 y="0px" viewBox="289.2 183.6 261.5 226.9" xml:space="preserve">

<g id="Eritrea">
	<g>
		<path fill="#EA0437" d="M309.9,333.3l0.6,0.9l0.3,0.2l0.3,0.2l0.3,0.1l0.4,0l0.2-0.1l0.6-0.5l0.3,0l0.7,0.1l0.3-0.1l0.5-0.3
			l0.4-0.5l0.3-0.7l0.1-0.8l0-1l0.1-0.8l0.3-0.8l0.1-0.2C314.4,331.1,312.1,332.5,309.9,333.3z"/>
		<polygon fill="#EA0437" points="429.4,262.7 428.7,263 428.4,263.6 428.4,264.3 428.8,264.7 430.5,264.8 431.4,265.3 432.6,265.7
			433.2,265.5 433.1,265.2 432.7,264.9 432.4,264.6 432,264.4 431.8,264.2 431.9,263.6 432.5,263.1 433.2,262.8 433.4,262.5
			433.1,262 432.4,261.7 432,261.6 431.7,261.4 430.7,260.6 430.5,260.8 430.4,261.2 430.4,261.7 430.5,262.1 430.6,262.4
			430.3,262.6 		"/>
		<polygon fill="#EA0437" points="443.4,281.8 444.2,282.2 444.7,281.9 445,281.2 444.7,279.6 444.4,279.4 443.9,279.4 443.4,279.3
			442.6,278.8 442,278.6 441.7,278.5 441.6,278.2 441.5,277.8 441.3,277.5 441.1,277.3 440.8,277.2 440.5,277.1 440,277
			439.2,276.9 438.3,277 437.6,277.2 437.4,277.7 437.7,278.1 438.5,278.3 439,278.5 438.7,278.6 438.5,278.9 437.9,280
			435.6,279.3 435.2,279.3 435.1,279 434.4,277.8 434.1,277.2 434,276.6 434.2,273.3 434.1,272.8 433.7,272.5 433.3,272.7
			433.3,272.9 433.5,273.2 433.6,273.4 433.3,273.5 432.9,273.7 432.5,273.7 432.2,273.4 432.3,272.9 432.7,272.5 432.9,271.9
			432.4,271 431.2,270.3 429.8,269.7 428.3,269.4 426.9,269.3 427.4,269.9 427.8,270.1 429.2,270.1 429.6,270.3 430,270.9
			430.3,271.5 430.1,272 429.6,271.9 428.6,272 427.8,272.4 428.1,273.2 428.6,273.9 428.4,274.3 427.9,274.2 426.7,273.4
			426.2,273.5 425.9,274 425.8,274.8 426.1,275.5 426.5,275.6 427.8,275.3 429.1,275.6 430.3,276.3 431.3,277.4 432,278.6
			430.3,279.2 429.8,279.2 429.4,279 428.9,278.7 428.3,278.5 428,278.6 427.7,278.6 427.6,278.3 427.4,278 427.2,277.7
			426.9,277.5 427.1,277.2 427.1,277.1 426.8,277 426.3,277 427.4,280 428,280.8 428.9,280.6 429.6,280.8 431.2,281.4 432.1,281.6
			432.8,281.5 433.2,281.2 433.6,280.5 433.9,280.8 434.2,281.3 434.4,281.4 435,281.5 436.9,281.1 437.8,281.2 439.2,281.9
			440,282.2 440.8,282.1 442.7,281.7 		"/>
		<path fill="#EA0437" d="M291.3,297.5l-1.7,1.7l-0.3,0.7l-0.1,0.9l0.4,3.8l0.7,5.7c0.5,0.6,0.9,1.3,1.4,1.9
			C291.5,306.7,291.4,302,291.3,297.5z"/>
		<path fill="#EA0437" d="M337.6,319.8c0.6,2.1,0,5.5-0.6,7.5c2.6-2.3,4.1-5.6,4.1-8.5c0-4.7,0.1-4.5,1.8-6.6
			c1.7-2.3,0.7-7.6-0.7-10.3c-1.9-3.6-0.3-10.8,3.7-11.9c-1.2,6.3,2,14.3,5.3,16.7c0.8-7-1.3-10.2-3-13.3c-2.5-4.4-3.3-9.2-3.4-15
			c-5.4-3.8-13.4-12.9-9.7-20.6c6.6,3.8,4.8,11.1,10.8,10.5c-2.7-4.5-4.9-8.3-8.1-12.1c-1.3-1.7-4,1-9.1,1.1
			c-5.7,0-7.9-2.2-11.2-5.5c3.6,0.5,9.3,0.5,10.7-0.3c-5.7-3.2-11.7-3.8-17.2-2.7c-0.6,0.1-1.2,0.2-1.9,0.2l-0.1,0.6l-0.1,0.9
			l0.2,0.9l0.7,1.6l0.1,0.9l-0.4,1l-1.6,1.7l-0.6,1.1l-1.3,3.7l-0.4,1.1c2.1-2,4.8-3,8.4-2.2c-3.7,1.6-3.9,5.7-5.2,8.6
			c4.8-0.8,5.4-3,7-5.6c4,6.9-3.3,11.3-7.4,13.8c3.4,0.3,6.8-0.7,8.5-3.3c1.3,6.5-5.4,9.2-10.2,8.9c-5-0.4-8.3-3.5-9.6,1.3
			c-0.1,0.5-0.3,1-0.4,1.6l0,0.1l0.5,1.8l-1.1,0.8c-0.5,2.7-1,5.8-0.9,9.7c1.5-6.2,3.3-11.7,5.8-14.4c-0.9,4.3-0.9,8.2,0.1,11.8
			c4.5-2.2,7.9-7.1,8.1-11.5c6.4,4.1,1.9,11.9-3.9,16.1c5.1,1.3,9.8,0.2,12.5-3.3c0.8,10.3-9.6,10.3-15.8,8.6
			c-2.5-0.5-7.9,1.1-5.6,6.9c2.2,5.4,2.1,12.1,4,17.1c1.1-6.2,2.2-11.1,4-13.6c4.8-6.3,8.3-4,4.3,3.7c3.7-2,6.2-5.6,7.8-8.6
			c2.8,7.1-3,11.4-6.2,15.7c3-0.1,5.8-3.2,6.6-6.3c1.5,3.4,1,6.2-0.3,8.4l1.1-0.8l1.4-0.3l2.9,0.1l0.8-0.3l0.5-0.1l1,0.8l0.7,0.4
			l1.5,2.1l0.6,0.6l0.1,0.3l0.1,0.6l0,0.9l0.1,0.4l0.6,0.3l0,0c0.4-1.1,0.7-2.2,1.1-3.1C330.5,326.7,335.6,323.2,337.6,319.8z"/>
		<path fill="#EA0437" d="M331.2,216.6l-0.3,0.8l-0.9,1.5l-0.2,0.9l-0.3,0.8l-2.2,2.6l-3.7-1l-1.1,0.1l-1.9,1.1l-1.2,0.1l-0.6-0.1
			l-2.1,0.3l-0.4-0.1l-1.5-0.9l-0.4-0.2l-1-0.2l-0.7-0.3l-0.6-0.4l-0.6-0.3l-0.8,0.1l-0.3,0.3l-0.1,0.3l0.1,0.4l0.8,1.1l0.1,0.8
			l-0.2,0.8l-1,1.4l0.1,0.4l0.4,0.4l0.3,0.5l0.1,0.5l-0.1,1.6l0.1,0.2l0.2,0.4l0,0.2l-0.1,0.2l-0.3,0.3l-0.1,0.2l-0.1,2.4l-1,2.4
			l-0.4,0.6l-1.3,0.9l-0.6,0.5l-0.2,0.5c1.9-0.6,3.5-1.4,5.2-1.3c4.7,0.2,9.1,8.6,13.5,8.9c-8.4-6.3-9.2-11-10-17.1
			c7.7,4.9,15.4,11.8,19.7,20.1c5.4,3.8,7.9,7.7,10.1,12.9c-0.1-7.5-1.4-15-4.5-17.7c9.7-0.3,11.2,19,11.8,28.2
			c1.9-0.5,2.5-11.9,1.1-15.9c10.6,11.2,5.9,28.1,1,41.6c1.9-0.5,6.2-7.1,5.7-13c8.8,9.1,0.8,20.7-7,32.1l0.9,0.4l0.7,0.1l0.8-0.1
			c3.7-3.3,7.9-8.3,9.8-13.9c1.4,6.1-1.1,12-5.2,17.1l0.3,0.2l0.4,0.3l0.2,0.5l0.4,1.5l0.3,0.7l0.5,0.6l0.6,0.5l2.1,1.1l0.3,0.3
			l0.3,0.9l0.2,0.4l0.5,0.4l0.3,0l0.3-0.1l1.9,0l3-0.3l1.5-0.4l2.4-1.3l0.8,0l0.7,0.2l0.7,0.1l0.7-0.1l0.7-0.2l2.3-1l1.7-0.2
			l0.7-0.5l1.3-1.2l1.6-0.8l0.8-0.5l0.6-0.7l0.1-0.7l-0.1-0.8l0.1-0.7l0.5-0.5l0.1,0.1l1.4,0.2l1.1,0.3l0.4,0.2l0.9,0.5l0.8,0.7
			l0.7,0.8l0.5,0.9l1.1,3.3l0.8,1.5l1,0l0.9-1.4l0.5-0.5l1-0.1l2.1,0.3l0.7,0l3.2-0.9l1.6-0.8l0.7-0.9l0.3-0.8h0.7l0.8,0.4l0.6,0.5
			l0.8,1l0.2,0.2l0.2,0.1l2,0.6l1,0.1l2.2-0.4l1.2,0l1.2,0.4l1.1,0.7l2.1,1.8l0.6,0.3l0.7,0.1l0.8-0.2l1.2-1l0.7-0.2l1.7,0.3l0.6,0
			l1.9-0.6l0.7,0l3.5,0.9l1.7,0.7l1.5,0.9l5.7,5.2l2.3,1.2l4.1,2l1.1,0.4l3.5,0.5l2.6,1l2.4,1.7l3.3,3.8l23.7-5.9l-0.2-0.9l-0.3-0.7
			l-0.3-0.6l-1-1.2l-1.8-1.6l-0.8-1l-0.5-1.6l-0.7-0.9l-0.2-0.3l-0.3-0.3l-0.6-0.3l-0.6-0.4l-0.3-0.6l-0.2-1.5l-0.6-1.4l-0.9-1.2
			l-1.2-0.8l-1.7-1.2l-0.5-0.7l-0.6-1.5l-0.5-0.6l-0.4-0.2l-4.5-1l-2.7-0.1l-1.1-0.3l-1.2-0.9l-1.2-0.6l-2.1,0.1l-0.9-0.4v0.8
			l-0.4-0.2l-0.4,0l-0.4,0.2l-0.4,0.2v-0.8l-0.3-0.5l-1-0.7L457,315l0-0.5l0.3-0.9l0.1-1.1l-0.1-0.3l-0.2-0.3l-0.2-0.1l-0.1,0.1
			l0,0.1L455,310l0.2-0.3l0.6,0.2l0.2-0.2l-0.1-0.3l-0.3-0.2l-1.1-0.1l-0.3,0.2l0.2,0.7l-1.1-0.5l-0.1-0.3l-0.2-1.6l-0.2-0.4
			l-0.4-0.2l-0.7-0.1l-0.4,0l-0.2,0.1l-0.2,0l-0.3-0.2l-0.2-0.3v-0.4l0-0.4l-0.1-0.3l-1.1-0.3l-0.2-0.2l-0.2-0.4l-0.2-0.2l0,0.8
			l0.1,0.3l0.2,0.3l-0.1,0.2l-0.2,0.2l-0.2,0.2l-0.2,0.1l-0.4,0l-0.2-0.2l-0.1-0.3l-0.3-0.1l-0.5-0.1l-0.1-0.3l0.1-0.3l0.1-0.1
			l-0.4-0.3l-0.1,0l-0.4,0l-0.7,0.2l-0.1,0.4l0.1,0.5l-0.2,0.3l-0.6,0.1l-0.4-0.3l-0.1-0.6l0-0.6l-0.5,0.7l-0.5,0.9l-0.6,0.8
			l-0.9,0.3l-0.9,0.7l-0.6,0.1l-0.3-0.7l-0.3-0.2l-0.6-0.3l-2.9-1l-0.9-0.5l-0.4-0.7l0.1-0.3l0.2-0.6l0-0.4l-0.1-0.2l-0.2-0.1
			l-0.2-0.1l-0.1-0.3l-0.2-0.4l-0.4-0.3l-0.5-0.1l-0.5,0.2l-0.2-0.5l0-0.5l0.1-0.5l0-0.4l-0.2-0.5l-0.5-1l-0.1-0.5l-0.2-0.3
			l-0.9-0.7l-0.2-0.3l0-0.1l-0.2-0.2l-0.1-0.2l0.1-0.1l0.4-0.2l0.1-0.1l-0.1-0.4l-0.2-0.3l-0.3-0.1l-0.4,0l0.6-1.5l0.2-0.4l0.3-0.4
			l0.7-0.6l0.3-0.5l0.1-0.4l-0.1-0.4l-0.3-0.4l-0.4-0.4l-0.4-0.2l-0.3-0.1l-0.9-0.2l-0.6-0.3l-3.7-3.1l-0.8-0.8l-0.6-1l-0.3,0.4
			l-0.5,0.9l-0.4,0.3v-0.5h-0.2l-0.2,0.8l0,0.3h-0.3l-0.6-0.4l-0.3,0.4l-0.3,1.4l-0.2,0.2l-0.3,0.1L420,289l-0.1,0.5l0.1,0.5
			l0.2,0.8l0,0.5l-0.1,2.1l0.1,0.8l0.3,0.8l0.3-0.3l0.3-0.6l0.5,0l0.3,0.6l0.4,1.6l0.8,1.4l-0.1,0.8l-0.7,1.3l-0.5,0.3l-0.2,0.2
			l0.2,0.4l0.1,0.3l-0.1,0.5l-0.2,0.5l-0.3,0.2l-0.9,0.1l-0.6,0.2l-0.5-0.1l-0.4-0.8l-0.6,0.3l-0.5,0l-0.4-0.3l-0.1-0.6l-0.1-0.2
			l-0.4-0.3l-0.1-0.2l0.2-3.4l0.6-2.2l-0.4-0.4l-0.3-0.6l-0.2-0.7l-0.1-0.7l-0.2-0.1l-0.7-0.3l-0.2-0.1l-2-6.6l-0.9-1.3l-0.6-0.3
			l-0.8-0.2l-0.7,0.1l-0.3,0.5l-0.4,0.3l-0.9,0.1l-0.9-0.1l-0.6-0.2l-0.1-0.3l-0.2-1.3l-0.7-1.1l-0.1-0.4h0.4l0.9-0.1l0.8-0.4
			l0.1-0.8l-0.4-0.3l-0.4,0.2l-0.4,0.4l-0.2,0.3l-0.2-0.6l0.2-0.6l0.5-0.4l0.7-0.1l-1-1.2l-0.2-0.7l-0.1-1.1l-0.1-0.3l-0.6-0.6
			l-0.1-0.5l0.1-0.4l0.2-0.4l0.2-0.4l0-0.5l-0.4-0.3l-1.4-0.7l-0.3-0.3l-0.4-0.6l-2.3-1.4l-0.8-1.4l-1.4-5.3l-0.9-2l-0.1-0.6
			l-0.2-1.8l-1.2-5.3v-0.6l0.2-1l0.1-0.5l-0.1-0.5l-0.4-0.6l-0.1-0.4l-0.1-0.5l0.1-1.6l-0.1-0.5l-0.2-0.3l-0.2-0.3l-0.1-0.4
			l-0.1-0.4l0.1-1.4l-0.2-0.1l-0.4,0l-0.4-0.2l-0.1-0.6l0.3,0.3l0.2-1l-0.6-1.8l0.7-0.8l-0.1-1.2l-0.2-0.9l-0.8-1.8l0.5,0.3
			l-0.8-3.2l-0.6-1.3l-62.9-15.7L331.2,216.6z"/>
		<path fill="#EA0437" d="M292,324.4l0.3,2.9l0.9,7.4l0.7,0l0.3-0.8l0.5-0.4l0,0c-0.2-3.5-0.4-6.9-0.6-10.1
			C293.7,323.8,292.9,324.1,292,324.4z"/>
		<polygon fill="#EA0437" points="437.6,299.7 437.8,300.3 437.9,300.4 438.4,300.6 438.5,300.8 438.9,300.8 439.7,300.4 439.7,300
			439.5,299.4 439.1,298.9 439.2,298.7 439.5,298.7 439.7,298.6 439.9,298.1 440.2,297.7 440.4,297.5 440.4,297.2 440.2,297.2
			439.7,297.3 438.1,298.2 437.9,298.3 437.8,298.6 437.8,299 437.7,299.3 		"/>
		<polygon fill="#EA0437" points="439.3,306.2 440.2,306.1 440.4,306.1 440.9,305.8 441.6,305.2 442,305 442.3,304.7 442.1,303.8
			441.8,303.3 441.7,303.2 440.8,302.9 440.4,303 440.2,303.2 440,304 439.1,305.6 439.2,305.9 		"/>
		<polygon fill="#4189DD" points="544.4,387.6 544.1,387.4 542.4,386.6 542.4,386.7 542.5,387 542.4,387.1 542.1,386.9 541.9,386.8
			541.6,387 541.7,387.6 542,388.2 542.2,388.4 542.3,388.4 542.4,388.2 542.5,388.2 542.8,388.1 543.1,388.1 543.3,388.2
			543.3,388.4 543.4,388.6 543.7,388.8 544,388.6 544.1,388 544.4,387.9 		"/>
		<polygon fill="#4189DD" points="543.2,391.2 543.2,391.3 543.3,391.8 543.6,392.1 544,392.2 543.9,391.9 543.5,391.3 		"/>
		<polygon fill="#4189DD" points="465.4,345.7 469.5,350.4 472.5,355.7 475.3,360.6 476.5,361.8 481.7,365.1 488.5,369.5
			492.6,372.8 495.6,375.3 497.1,376.9 498.4,378.6 499.7,380.7 502.7,387.2 504.8,390.1 507.8,392 510,393 512.2,394.2
			514.1,395.8 516.6,400.1 519.8,404.4 521.7,406.4 523.7,404.2 524.3,404.1 525.4,404.4 527.2,405.2 533.3,410.6 533.8,409.9
			535.2,409.5 535.8,408.7 536.1,408.3 537.3,408.1 537.8,407.9 538,406.8 537.6,405.5 537.5,404.4 539.2,402.7 540.1,400.6
			540.7,400 541.1,400.1 541.6,400.5 542,400.4 550.5,396.8 550.7,396.5 549.7,394.6 549.6,394 549.5,392.8 549.2,392.3 548.8,392
			548.4,391.7 548,391.3 547.8,390.9 547.6,390.5 547,390 545.9,389.1 545.7,389.4 545.6,389.8 545.7,390.2 545.9,390.5
			545.5,390.8 545.5,391 545.5,391.2 545.4,391.6 545,392.2 544.6,392.7 544.4,392.7 543.7,393.2 543.8,393.2 543.4,393.4
			543.1,393.5 542.7,393.5 543.1,392.9 543.2,392.7 541.8,392.6 540.8,392.3 540,391.6 539.5,390.5 538.9,390.8 538.4,391
			537.9,391.2 537.3,391.1 537.1,390.6 536.9,390 536.8,388.9 536.7,388.1 536,386.7 535.6,384.5 535.3,383.8 534.9,383.4
			534.4,383 533.7,382.7 532.9,382.6 532.4,382.3 531.1,380 529.1,378.4 528.8,377.8 528.7,377.4 528.5,377.2 528.2,377.1
			528,376.9 527.9,376.5 527.8,376.1 527.7,375.9 527.2,375.8 526.9,376.4 526.7,376.9 526.2,377.3 525.5,377.4 523.7,377.3
			522.9,377 521.7,376.3 521.6,376.2 521.6,376 521.4,374.1 520.8,373.1 520.2,368.5 519.9,367.5 519.6,367.1 519.1,366.8
			518.8,366.2 518.4,364.9 518.4,363.3 518.1,362.3 517.4,361.8 516.8,361.6 515.4,359.7 514.1,358.6 513.5,358.6 513.2,358.8
			513.1,359 513.4,359.1 514.2,359.1 514.9,359.5 515.4,360 515.4,361 515.3,361 514.7,361 514.6,361 514.6,361.3 514.7,361.4
			514.8,361.5 514.9,361.6 515.1,361.8 515.6,362.5 515.8,362.7 515.8,362.9 515.6,363.1 515.3,363.1 515.1,362.5 515,362.5
			514.1,361.8 513.9,361.5 513.7,360.6 513.5,360.2 513.3,360 512.6,359.5 512.5,359.2 512.3,359.2 511.9,359.4 511.4,359.6
			511,359.5 510.7,359.1 510.5,358.2 510.3,357.7 510.2,357.7 509.9,357.5 509.8,357.5 509.5,356.9 508.6,355.7 508.5,355.7
			508.2,355.2 506.6,353.9 506.4,353.3 506.3,352.5 506.1,351.8 505.7,351.4 505.2,351.2 503.8,350.3 503.1,350.1 502.8,350.1
			501.9,350.3 501.5,350.4 501,350.2 500.7,350.1 500,349.4 499.3,348.1 499,347.9 498.5,348 497.2,348.4 496.7,348.4 494.2,347.7
			493.9,347.1 493.5,345.4 492.1,342.7 491.5,342 490.8,341.4 489.5,340.6 489,340.2 488.7,339.8 488.5,339.3 488.4,338.9
			464.6,344.8 		"/>
		<polygon fill="#4189DD" points="540.6,383.6 540.7,383.6 541.1,383.7 540.9,383.4 540.4,383.4 540.2,383.4 539.6,383.8
			539.5,384.3 539.7,384.4 539.8,384.6 540.2,384.7 541,385 541.1,384.7 540.8,384.6 540.7,384.4 540.5,384.2 540.3,383.9
			540.1,383.8 540.1,383.6 540.3,383.5 		"/>
		<polygon fill="#4189DD" points="544.3,390.3 543.9,389.7 543.9,389.2 543.7,388.9 543.3,389 543.4,389.5 543.6,389.8 544.2,390.3
					"/>
		<polygon fill="#12AD2B" points="393.3,229.2 393.1,227.6 392.5,226.4 392.3,225.6 392.1,223.9 392,223.1 390.8,220.7 390.5,219.4
			390.3,217.8 389.7,216.6 388.6,215.4 387.9,214.2 388.4,212.7 387.9,211.8 387,208.4 384.3,203.7 381.6,197.3 377.9,191.7
			377.7,191 377.6,190.8 376.9,189.8 376.8,189.4 376.7,188.5 376.6,188.1 375,185.8 374.7,184.5 374.3,184.1 374.2,183.6
			368.7,188.3 367.6,189.9 365.2,196.1 364.1,197.9 363.3,198.5 361.4,199.4 360.7,200 360.5,200.8 360.6,201.7 360.5,202.5
			359.8,203.2 358.9,203.3 358.2,202.9 357.6,202.3 357,201.9 355.6,202.3 355.4,202.3 355.2,202.7 355.3,203 355.4,203.2
			355.3,203.7 354.9,204.5 354.3,205 353.7,205 353.5,204.1 353.5,203.3 353.5,202.6 353.1,202.3 352.2,202.2 351.3,202.6
			348.6,204.4 347.4,205.9 346.7,206.5 345.7,206.8 344.8,206.5 343.7,205.4 342.9,205.1 341.5,205.9 339.8,208.9 338.2,209.8
			336.6,210 331.5,211.6 331,211.8 331,212.3 331.4,214.2 331.4,214.9 331.3,215.8 394.2,231.6 393.5,229.9 		"/>
		<path fill="#FFC726" d="M366.5,304.1c-1.8,5.6-6,10.5-9.8,13.9l1.4-0.2l0.9,0.1l0.6,0.3l0.4,0.5l0.3,0.8l0.2,1.1l0.2,0.4l0.4,0.3
			l0.2,0.1C365.4,316.1,367.9,310.2,366.5,304.1z"/>
		<path fill="#FFC726" d="M306.6,282.5c4.8,0.3,11.4-2.4,10.2-8.9c-1.6,2.6-5,3.6-8.5,3.3c4.1-2.5,11.4-7,7.4-13.8
			c-1.7,2.6-2.2,4.8-7,5.6c1.3-2.9,1.5-7,5.2-8.6c-3.5-0.7-6.3,0.2-8.4,2.2l-1.4,3.9l-1.9,5.3l-1,1.7l-1.9,2l-0.5,0.9l-2.1,7.7
			l-0.1,1.6c0.1-0.6,0.3-1.1,0.4-1.6C298.4,279,301.6,282.1,306.6,282.5z"/>
		<path fill="#FFC726" d="M316.8,320c-0.8,3.1-3.6,6.2-6.6,6.3c3.3-4.2,9.1-8.6,6.2-15.7c-1.6,3-4,6.6-7.8,8.6c4-7.7,0.5-10-4.3-3.7
			c-1.8,2.4-2.9,7.3-4,13.6c-1.9-5.1-1.7-11.7-4-17.1c-2.3-5.9,3.1-7.4,5.6-6.9c6.2,1.7,16.6,1.7,15.8-8.6
			c-2.7,3.5-7.4,4.5-12.5,3.3c5.7-4.2,10.2-12,3.9-16.1c-0.2,4.3-3.6,9.2-8.1,11.5c-1.1-3.7-1.1-7.6-0.1-11.8
			c-2.5,2.6-4.3,8.1-5.8,14.4c-0.1-3.9,0.4-7,0.9-9.7l-0.1,0.1l-0.8,1.2l-2,5.9l-0.7,1.1l-1.2,1.1c0.1,4.5,0.2,9.2,0.5,14.7
			c-0.5-0.7-0.9-1.3-1.4-1.9l0.1,1l0.7,6.1l0.6,5l0.2,2c0.9-0.3,1.7-0.7,2.2-1c0.2,3.2,0.4,6.7,0.6,10.1l0.7-0.2l0.8,0l0.5-0.1
			l1.2-0.6l0.8-0.1h1.8l0.3-0.1l0.6-0.4l0.4-0.1h2.7l1.3,0.2l2.5,0.7l1.3,0.2l0.2,0.2l0.1,0.1c2.2-0.8,4.5-2.2,6-4.2l0.5-0.7l0,0
			C317.8,326.2,318.2,323.4,316.8,320z"/>
		<path fill="#FFC726" d="M361.3,285.6c0.5,6-3.8,12.5-5.7,13c4.9-13.5,9.5-30.4-1-41.6c1.4,4,0.8,15.4-1.1,15.9
			c-0.6-9.2-2.2-28.5-11.8-28.2c3.1,2.7,4.4,10.2,4.5,17.7c-2.2-5.2-4.7-9-10.1-12.9c-4.3-8.3-12-15.2-19.7-20.1
			c0.9,6,1.6,10.8,10,17.1c-4.4-0.3-8.8-8.6-13.5-8.9c-1.8-0.1-3.4,0.7-5.2,1.3l-0.1,0.2l-0.1,0.7l0.1,1.3l-0.1,0.8l-0.5,1.6l0,0.6
			l0.3,0.9l0.5,0.7l0.6,0.7l0.6,0.7l0.3,0.8l0,0.7l0,0.1c0.6,0,1.2-0.1,1.9-0.2c5.6-1.1,11.5-0.5,17.2,2.7
			c-1.5,0.7-7.1,0.7-10.7,0.3c3.3,3.3,5.5,5.6,11.2,5.5c5.1,0,7.8-2.7,9.1-1.1c3.2,3.8,5.4,7.6,8.1,12.1c-5.9,0.7-4.1-6.7-10.8-10.5
			c-3.7,7.7,4.3,16.8,9.7,20.6c0.1,5.8,0.9,10.6,3.4,15c1.7,3.1,3.8,6.3,3,13.3c-3.3-2.4-6.4-10.4-5.3-16.7
			c-4.1,1.1-5.7,8.3-3.7,11.9c1.4,2.7,2.4,8,0.7,10.3c-1.6,2.2-1.8,1.9-1.8,6.6c0.1,2.8-1.5,6.1-4.1,8.5c0.5-2,1.1-5.4,0.6-7.5
			c-2,3.4-7.1,7-8.7,10.7c-0.4,0.9-0.7,2-1.1,3.1l1.5,1.3l0.2,0.2l0.3,0.8l0.2,1l0.2,0.5l0.5,0.2l0.4,0.1l0.4,0.2l0.3,0.3l0.1,0.4
			l0,1l0.2,0.7l0.4,0.5l0.7,0.5l0.4-0.5l1.4-3.4l2.2-5.4l2.5-5.9l2.5-6l2.5-6.1l1.6-3.8l0.7,0.6l0.5,0.7l0.7,1.5l0.2,0.1l0.4,0
			l0.1,0.1l0,0.2l0,0.4l0,0.1l0.2,0.3l0.1,0.3l0.2,0.2l0.4,0.1l0.4,0.3l0.1,0.3l0,0.4l0.2,0.4l0.3,0.3l3.3,1.4
			C362.1,306.2,370.1,294.7,361.3,285.6z"/>
	</g>
	<path fill="none" stroke="#999999" stroke-width="0.25" stroke-linecap="round" stroke-linejoin="round" d="M543.2,391.2
		L543.2,391.2l0,0.6l0.3,0.3l0.4,0.1l-0.1-0.3l-0.4-0.6L543.2,391.2z M539.8,384.6l0.4,0.1l0.7,0.3l0.2-0.3l-0.3-0.1l-0.2-0.2
		l-0.2-0.2l-0.2-0.3l-0.2-0.1l-0.1-0.2l0.2-0.1l0.3,0.1l0.1-0.1l0.3,0.1l-0.1-0.2l-0.5,0l-0.3,0l-0.5,0.4l-0.1,0.5l0.2,0.1
		L539.8,384.6z M437.6,299.7l0.2,0.7l0.1,0.1l0.5,0.1l0.2,0.2l0.4,0l0.8-0.4l0-0.4l-0.2-0.6l-0.5-0.5l0.1-0.2h0.3l0.2-0.2l0.2-0.5
		l0.4-0.3l0.2-0.2l0-0.2l-0.2,0l-0.5,0.1l-1.7,0.9l-0.2,0.1l-0.1,0.2l0,0.4l-0.2,0.3L437.6,299.7z M439.3,306.2l0.9-0.1l0.3,0
		l0.4-0.3l0.7-0.7l0.4-0.2l0.2-0.3l-0.2-0.9l-0.3-0.4l-0.2-0.2l-0.8-0.2l-0.5,0l-0.2,0.2L440,304l-0.9,1.6l0,0.3L439.3,306.2z
		 M542,388.2l0.2,0.2l0.1,0l0.1-0.1l0.1-0.1l0.3-0.1l0.3,0l0.2,0l0.1,0.2l0.1,0.3l0.3,0.2l0.3-0.2l0.1-0.6l0.3-0.1l-0.1-0.3
		l-0.2-0.2l-1.7-0.8v0.1l0.1,0.3l-0.1,0.1l-0.3-0.2l-0.3-0.1l-0.2,0.2l0.1,0.6L542,388.2z M544.3,390.3l-0.4-0.6l-0.1-0.5l-0.2-0.3
		l-0.4,0.1l0,0.4l0.3,0.4l0.5,0.4L544.3,390.3z M426.5,275.6l1.3-0.3l1.3,0.3l1.2,0.7l1,1.1l0.7,1.3l-1.6,0.5l-0.5,0l-0.4-0.2
		l-0.6-0.3l-0.5-0.2l-0.4,0.2h-0.3l-0.1-0.4l-0.2-0.3l-0.2-0.2l-0.3-0.2l0.2-0.3l0-0.2l-0.3-0.1l-0.5,0l1,3l0.6,0.8l0.9-0.2l0.7,0.2
		l1.6,0.6l0.9,0.2l0.6-0.1l0.5-0.3l0.4-0.7l0.3,0.2l0.4,0.5l0.2,0.2l0.6,0.1l1.9-0.4l0.9,0.1l1.4,0.7l0.8,0.3l0.8-0.1l1.9-0.5
		l0.6,0.1l0.8,0.4l0.6-0.3l0.2-0.7l-0.3-1.6l-0.2-0.1l-0.6,0l-0.5-0.1l-0.8-0.6l-0.5-0.1l-0.3-0.1l-0.1-0.3l-0.1-0.4l-0.2-0.3
		l-0.3-0.2l-0.3-0.2l-0.4-0.1L440,277l-0.8-0.1l-0.9,0.1l-0.7,0.2l-0.3,0.5l0.3,0.5l0.8,0.2l0.5,0.2l-0.3,0.1l-0.2,0.2l-0.6,1.1
		l-2.3-0.7l-0.4,0l-0.1-0.3l-0.7-1.2l-0.3-0.6l-0.1-0.6l0.2-3.3l-0.1-0.6l-0.4-0.2l-0.4,0.1l0,0.3l0.2,0.3l0.1,0.2l-0.3,0.2
		l-0.4,0.1l-0.4,0l-0.3-0.3l0.1-0.5l0.4-0.4l0.2-0.6l-0.5-0.9l-1.1-0.8l-1.4-0.6l-1.5-0.3l-1.4-0.1l0.5,0.7l0.4,0.2l1.3-0.1l0.4,0.2
		l0.4,0.6l0.3,0.6l-0.2,0.5l-0.5,0l-1,0.1l-0.8,0.4l0.3,0.8l0.5,0.7l-0.2,0.3l-0.5-0.1l-1.2-0.8l-0.5,0.1l-0.3,0.4l-0.1,0.8l0.3,0.7
		L426.5,275.6z M430.5,264.8l1,0.5l1.1,0.4l0.7-0.2l-0.2-0.4l-0.4-0.3l-0.3-0.3l-0.3-0.2l-0.2-0.2l0.1-0.6l0.6-0.5l0.7-0.2l0.3-0.4
		l-0.3-0.5l-0.7-0.3l-0.4-0.1l-0.3-0.2l-1-0.8l-0.3,0.2l-0.1,0.5l0,0.4l0.1,0.4l0.1,0.3l-0.4,0.2l-0.9,0.1l-0.7,0.3l-0.3,0.6v0.7
		l0.4,0.4L430.5,264.8z M549.7,394.6l-0.1-0.6l-0.1-1.2l-0.3-0.5l-0.4-0.3l-0.5-0.3l-0.4-0.3l-0.2-0.4l-0.2-0.4L547,390l-1.1-0.9
		l-0.2,0.3l-0.1,0.4l0,0.4l0.2,0.4l-0.4,0.2l-0.1,0.2l0,0.3l-0.1,0.4l-0.4,0.6l-0.5,0.5l-0.1,0l-0.7,0.5l0,0l-0.4,0.2l-0.3,0.1
		l-0.4,0l0.3-0.6l0.2-0.2l-1.4-0.1l-1.1-0.3l-0.8-0.7l-0.5-1.1l-0.6,0.2l-0.5,0.3l-0.5,0.2l-0.6-0.1l-0.3-0.4l-0.1-0.6l-0.1-1.1
		l-0.2-0.7l-0.6-1.4l-0.4-2.2l-0.3-0.6l-0.4-0.4l-0.5-0.4l-0.6-0.3l-0.8-0.1l-0.5-0.3l-1.3-2.3l-2-1.7l-0.3-0.5l-0.1-0.4l-0.2-0.2
		l-0.3-0.1l-0.2-0.2l-0.1-0.4l0-0.3l-0.1-0.2l-0.5-0.1l-0.2,0.6l-0.3,0.5l-0.4,0.4l-0.7,0.1l-1.8-0.2l-0.8-0.2l-1.2-0.7l-0.1-0.1
		l0-0.2l-0.2-1.9l-0.6-0.9l-0.6-4.6l-0.3-1l-0.4-0.4l-0.4-0.3l-0.3-0.6l-0.4-1.3v-1.6l-0.2-1l-0.7-0.4l-0.6-0.3l-1.4-1.9l-1.3-1.1
		h-0.5l-0.4,0.2l-0.1,0.2l0.3,0.1l0.8,0l0.7,0.4l0.5,0.5l0,1l-0.1,0l-0.5,0l-0.1,0l0,0.3l0.1,0.1l0.1,0.1l0.1,0.1l0.1,0.2l0.6,0.7
		l0.2,0.2l0,0.2l-0.2,0.2l-0.3,0l-0.2-0.6l-0.2,0l-0.9-0.7l-0.2-0.3l-0.2-0.9l-0.2-0.4l-0.3-0.2l-0.7-0.5l-0.1-0.2l-0.2,0l-0.4,0.2
		l-0.5,0.2l-0.4-0.1l-0.3-0.4l-0.2-0.9l-0.2-0.5l-0.1-0.1l-0.4-0.2l-0.1-0.1l-0.3-0.5l-0.9-1.2h-0.2l-0.3-0.5l-1.6-1.3l-0.2-0.6
		l-0.1-0.8l-0.2-0.7l-0.4-0.3l-0.5-0.2l-1.4-0.9l-0.7-0.3l-0.3,0l-0.9,0.2l-0.4,0l-0.6-0.1l-0.3-0.2l-0.6-0.7l-0.8-1.3l-0.3-0.2
		l-0.5,0.1l-1.3,0.5l-0.5,0l-2.5-0.7l-0.3-0.6l-0.4-1.7l-1.4-2.7l-0.6-0.7l-0.7-0.6l-1.3-0.8l-0.5-0.4l-0.3-0.4l-0.2-0.5l-0.3-1.3
		l-0.3-0.7l-0.3-0.6l-1-1.2l-1.8-1.6l-0.8-1l-0.5-1.6l-0.7-0.9l-0.2-0.3l-0.3-0.3l-0.6-0.3l-0.6-0.4l-0.3-0.6l-0.2-1.5l-0.6-1.4
		l-0.9-1.2l-1.2-0.8l-1.7-1.2l-0.5-0.7l-0.6-1.5l-0.5-0.6l-0.4-0.2l-4.5-1l-2.7-0.1l-1.1-0.3l-1.2-0.9l-1.2-0.6l-2.1,0.1l-0.9-0.4
		v0.8l-0.4-0.2l-0.4,0l-0.4,0.2l-0.4,0.2v-0.8l-0.3-0.5l-1-0.7L457,315l0-0.5l0.3-0.9l0.1-1.1l-0.1-0.3l-0.2-0.3l-0.2-0.1l-0.1,0.1
		l0,0.1L455,310l0.2-0.3l0.6,0.2l0.2-0.2l-0.1-0.3l-0.3-0.2l-1.1-0.1l-0.3,0.2l0.2,0.7l-1.1-0.5l-0.1-0.3l-0.2-1.6l-0.2-0.4
		l-0.4-0.2l-0.7-0.1l-0.4,0l-0.2,0.1l-0.2,0l-0.3-0.2l-0.2-0.3v-0.4l0-0.4l-0.1-0.3l-1.1-0.3l-0.2-0.2l-0.2-0.4l-0.2-0.2l0,0.8
		l0.1,0.3l0.2,0.3l-0.1,0.2l-0.2,0.2l-0.2,0.2l-0.2,0.1l-0.4,0l-0.2-0.2l-0.1-0.3l-0.3-0.1l-0.5-0.1l-0.1-0.3l0.1-0.3l0.1-0.1
		l-0.4-0.3l-0.1,0l-0.4,0l-0.7,0.2l-0.1,0.4l0.1,0.5l-0.2,0.3l-0.6,0.1l-0.4-0.3l-0.1-0.6l0-0.6l-0.5,0.7l-0.5,0.9l-0.6,0.8
		l-0.9,0.3l-0.9,0.7l-0.6,0.1l-0.3-0.7l-0.3-0.2l-0.6-0.3l-2.9-1l-0.9-0.5l-0.4-0.7l0.1-0.3l0.2-0.6l0-0.4l-0.1-0.2l-0.2-0.1
		l-0.2-0.1l-0.1-0.3l-0.2-0.4l-0.4-0.3l-0.5-0.1l-0.5,0.2l-0.2-0.5l0-0.5l0.1-0.5l0-0.4l-0.2-0.5l-0.5-1l-0.1-0.5l-0.2-0.3l-0.9-0.7
		l-0.2-0.3l0-0.1l-0.2-0.2l-0.1-0.2l0.1-0.1l0.4-0.2l0.1-0.1l-0.1-0.4l-0.2-0.3l-0.3-0.1l-0.4,0l0.6-1.5l0.2-0.4l0.3-0.4l0.7-0.6
		l0.3-0.5l0.1-0.4l-0.1-0.4l-0.3-0.4l-0.4-0.4l-0.4-0.2l-0.3-0.1l-0.9-0.2l-0.6-0.3l-3.7-3.1l-0.8-0.8l-0.6-1l-0.3,0.4l-0.5,0.9
		l-0.4,0.3v-0.5h-0.2l-0.2,0.8l0,0.3h-0.3l-0.6-0.4l-0.3,0.4l-0.3,1.4l-0.2,0.2l-0.3,0.1L420,289l-0.1,0.5l0.1,0.5l0.2,0.8l0,0.5
		l-0.1,2.1l0.1,0.8l0.3,0.8l0.3-0.3l0.3-0.6l0.5,0l0.3,0.6l0.4,1.6l0.8,1.4l-0.1,0.8l-0.7,1.3l-0.5,0.3l-0.2,0.2l0.2,0.4l0.1,0.3
		l-0.1,0.5l-0.2,0.5l-0.3,0.2l-0.9,0.1l-0.6,0.2l-0.5-0.1l-0.4-0.8l-0.6,0.3l-0.5,0l-0.4-0.3l-0.1-0.6l-0.1-0.2l-0.4-0.3l-0.1-0.2
		l0.2-3.4l0.6-2.2l-0.4-0.4l-0.3-0.6l-0.2-0.7l-0.1-0.7l-0.2-0.1l-0.7-0.3l-0.2-0.1l-2-6.6l-0.9-1.3l-0.6-0.3l-0.8-0.2l-0.7,0.1
		l-0.3,0.5l-0.4,0.3l-0.9,0.1l-0.9-0.1l-0.6-0.2l-0.1-0.3l-0.2-1.3l-0.7-1.1l-0.1-0.4h0.4l0.9-0.1l0.8-0.4l0.1-0.8l-0.4-0.3
		l-0.4,0.2l-0.4,0.4l-0.2,0.3l-0.2-0.6l0.2-0.6l0.5-0.4l0.7-0.1l-1-1.2l-0.2-0.7l-0.1-1.1l-0.1-0.3l-0.6-0.6l-0.1-0.5l0.1-0.4
		l0.2-0.4l0.2-0.4l0-0.5l-0.4-0.3l-1.4-0.7l-0.3-0.3l-0.4-0.6l-2.3-1.4l-0.8-1.4l-1.4-5.3l-0.9-2l-0.1-0.6l-0.2-1.8l-1.2-5.3v-0.6
		l0.2-1l0.1-0.5l-0.1-0.5l-0.4-0.6l-0.1-0.4l-0.1-0.5l0.1-1.6l-0.1-0.5l-0.2-0.3l-0.2-0.3l-0.1-0.4l-0.1-0.4l0.1-1.4l-0.2-0.1
		l-0.4,0l-0.4-0.2l-0.1-0.6l0.3,0.3l0.2-1l-0.6-1.8l0.7-0.8l-0.1-1.2l-0.2-0.9l-0.8-1.8l0.5,0.3l-0.8-3.2l-1.3-3l-0.2-0.7l-0.2-1.7
		l-0.6-1.2l-0.2-0.8l-0.1-1.7l-0.2-0.8l-1.2-2.4l-0.3-1.4l-0.2-1.6l-0.6-1.2l-1.1-1.1l-0.7-1.2l0.5-1.6l-0.5-0.8l-0.9-3.4l-2.7-4.7
		l-2.7-6.3l-3.7-5.6l-0.2-0.7l-0.1-0.2l-0.7-1l-0.1-0.4l-0.1-0.8l-0.1-0.4l-1.7-2.4l-0.3-1.3l-0.4-0.4l-0.1-0.4l-5.6,4.6l-1.1,1.6
		l-2.3,6.2l-1.1,1.8l-0.8,0.6l-1.9,0.9l-0.7,0.6l-0.2,0.8l0.1,0.9l-0.1,0.8l-0.7,0.7l-0.9,0.1l-0.7-0.4l-0.6-0.6l-0.6-0.4l-1.4,0.4
		l-0.2,0l-0.2,0.4l0.1,0.3l0.1,0.3l0,0.4l-0.4,0.8l-0.6,0.6h-0.6l-0.2-0.9l0.1-0.8l0-0.7l-0.4-0.4l-0.9,0l-0.9,0.3l-2.7,1.8
		l-1.2,1.6l-0.8,0.6l-0.9,0.2l-0.9-0.3l-1.2-1.1l-0.8-0.2l-1.4,0.7l-1.7,3.1l-1.6,0.8l-1.6,0.2l-5.2,1.6l-0.4,0.3l-0.1,0.5l0.4,1.9
		l0,0.7l-0.2,1.7l-0.3,0.8l-0.9,1.5l-0.2,0.9l-0.3,0.8l-2.2,2.6l-3.7-1l-1.1,0.1l-1.9,1.1l-1.2,0.1l-0.6-0.1l-2.1,0.3l-0.4-0.1
		l-1.5-0.9l-0.4-0.2l-1-0.2l-0.7-0.3l-0.6-0.4l-0.6-0.3l-0.8,0.1l-0.3,0.3l-0.1,0.3l0.1,0.4l0.8,1.1l0.1,0.8l-0.2,0.8l-1,1.4
		l0.1,0.4l0.4,0.4l0.3,0.5l0.1,0.5l-0.1,1.6l0.1,0.2l0.2,0.4l0,0.2l-0.1,0.2l-0.3,0.3l-0.1,0.2l-0.1,2.4l-1,2.4l-0.4,0.6l-1.3,0.9
		l-0.6,0.5l-0.4,0.8l-0.1,0.7l0.1,1.3l-0.1,0.8l-0.5,1.6l0,0.6l0.3,0.9l0.5,0.7l0.6,0.7l0.6,0.7l0.3,0.8l0,0.7l-0.1,0.7l-0.1,0.9
		l0.2,0.9l0.7,1.6l0.1,0.9l-0.4,1l-1.6,1.7l-0.6,1.1l-1.3,3.7l-1.8,5l-1.9,5.3l-1,1.7l-1.9,2l-0.5,0.9l-2.1,7.7l-0.1,1.7l0.5,1.8
		l-1.3,0.9l-0.8,1.2l-2,5.9l-0.7,1.1l-2.9,2.8l-0.3,0.7l-0.1,0.9l0.4,3.8l0.8,6.7l0.7,6.1l0.6,5l0.6,5l0.9,7.4l0.7,0l0.3-0.8
		l0.5-0.4l0.7-0.2l0.8,0l0.5-0.1l1.2-0.6l0.8-0.1h1.8l0.3-0.1l0.6-0.4l0.4-0.1h2.7l1.3,0.2l2.5,0.7l1.3,0.2l0.2,0.2l0.7,1l0.3,0.2
		l0.3,0.2l0.3,0.1l0.4,0l0.2-0.1l0.6-0.5l0.3,0l0.7,0.1l0.3-0.1l0.5-0.3l0.4-0.5l0.3-0.7l0.1-0.8l0-1l0.1-0.8l0.3-0.8l0.6-0.9
		l1.1-0.8l1.4-0.3l2.9,0.1l0.8-0.3l0.5-0.1l1,0.8l0.7,0.4l1.5,2.1l0.6,0.6l0.1,0.3l0.1,0.6l0,0.9l0.1,0.4l0.6,0.3l1.6,1.3l0.2,0.2
		l0.3,0.8l0.2,1l0.2,0.5l0.5,0.2l0.4,0.1l0.4,0.2l0.3,0.3l0.1,0.4l0,1l0.2,0.7l0.4,0.5l0.7,0.5l0.4-0.5l1.4-3.4l2.2-5.4l2.5-5.9
		l2.5-6l2.5-6.1l1.6-3.8l0.7,0.6l0.5,0.7l0.7,1.5l0.2,0.1l0.4,0l0.1,0.1l0,0.2l0,0.4l0,0.1l0.2,0.3l0.1,0.3l0.2,0.2l0.4,0.1l0.4,0.3
		l0.1,0.3l0,0.4l0.2,0.4l0.3,0.3l4.2,1.8l0.7,0.1l2.2-0.4l0.9,0.1l0.6,0.3l0.4,0.5l0.3,0.8l0.2,1.1l0.2,0.4l0.4,0.3l0.5,0.3l0.4,0.3
		l0.2,0.5l0.4,1.5l0.3,0.7l0.5,0.6l0.6,0.5l2.1,1.1l0.3,0.3l0.3,0.9l0.2,0.4l0.5,0.4l0.3,0l0.3-0.1l1.9,0l3-0.3l1.5-0.4l2.4-1.3
		l0.8,0l0.7,0.2l0.7,0.1l0.7-0.1l0.7-0.2l2.3-1l1.7-0.2l0.7-0.5l1.3-1.2l1.6-0.8l0.8-0.5l0.6-0.7l0.1-0.7l-0.1-0.8l0.1-0.7l0.5-0.5
		l0.1,0.1l1.4,0.2l1.1,0.3l0.4,0.2l0.9,0.5l0.8,0.7l0.7,0.8l0.5,0.9l1.1,3.3l0.8,1.5l1,0l0.9-1.4l0.5-0.5l1-0.1l2.1,0.3l0.7,0
		l3.2-0.9l1.6-0.8l0.7-0.9l0.3-0.8h0.7l0.8,0.4l0.6,0.5l0.8,1l0.2,0.2l0.2,0.1l2,0.6l1,0.1l2.2-0.4l1.2,0l1.2,0.4l1.1,0.7l2.1,1.8
		l0.6,0.3l0.7,0.1l0.8-0.2l1.2-1l0.7-0.2l1.7,0.3l0.6,0l1.9-0.6l0.7,0l3.5,0.9l1.7,0.7l1.5,0.9l5.7,5.2l2.3,1.2l4.1,2l1.1,0.4
		l3.5,0.5l2.6,1l2.4,1.7l4.1,4.6l4.1,4.7l3,5.4l2.8,4.9l1.2,1.2l5.3,3.4l6.8,4.3l4.1,3.4l3,2.4l1.5,1.6l1.3,1.7l1.2,2.1l3,6.6
		l2.1,2.9l3,2l2.2,0.9l2.2,1.2l1.9,1.6l2.5,4.3l3.2,4.3l1.9,2l2-2.2l0.7-0.1l1.1,0.3l1.8,0.8l6.1,5.4l0.5-0.7l1.4-0.4l0.5-0.8
		l0.3-0.4l1.2-0.2l0.5-0.3l0.2-1.1l-0.4-1.2l-0.1-1.2l1.7-1.6l0.9-2.2l0.7-0.6l0.3,0l0.5,0.4l0.4,0l8.5-3.6l0.2-0.3L549.7,394.6z"/>
</g>

</svg>
