<?xml version="1.0" encoding="utf-8"?>

<svg version="1.2" baseProfile="tiny" xmlns="http://www.w3.org/2000/svg" xmlns:xlink="http://www.w3.org/1999/xlink" x="0px"
	 y="0px" viewBox="244.9 162.8 350 270.1" xml:space="preserve">

<g id="Ethiopia">
	<g>
		<path fill="#DA121A" d="M420,391c-34.1,0-63.8-18.5-79.7-46h-67.9l0.3,0.2l0.2,0.4l0.1,0.5v1l0.1,0.5l0.2,0.2l0.2,0.1l0.1,0.1
			l0.2,0.3l1,0.7l0.1,0.1l0.1,0.4l0.2,0.1l0.2,0.1l0.1,0.1l3.3,0.8l1.5,1l0.2,0.3l0.2,0.4l0.1,0.4l0,0.5l0,0.1l-0.2,0.2l-0.1,0
			l0,0.1l0.1,0.2l0,0.1l0.2,1l0.3,0.2l0.4,0.1h1l0.5,0.1l0.4,0.2l1.6,1l0.1,0.3l0.1,0.4l0.3,0.3l0.2,0.1l0.2,1l0.2,0.9l0.5,1.3
			l0.2,1.3l0.2,0.5l0.9,1.6l0.1,0.6l0,1.4l0.1,0.5l0.8,1.4l0.4,1.1l0.4,0.4l0.4,0.4l0.4,0.5l0.2,0.5l0.2,1.5l-0.2,0.5l-0.1,0.3
			l0,0.3l0.1,0.3l0.4,0.4l0.1,0.3l-0.1,0.3l-0.1,0.3l0,0.3l0,0.3l0.2,0.5l1.9,2.7l0.3,0.6l0.2,1.4l0.2,0.4l1,0.8l1.9,1.1l0.9,0.7
			l0.2,0.5l0.1,0.3l-0.1,0.3l-0.2,0.2l-0.2,0.2l0,0.3l0.1,0.2l0.8,1.2l0.4,0.4l0.4,0.2l0.6-0.1l0.5-0.4l0.9-1l0.5-0.3l0.4-0.1h0.5
			l0.5,0.1l0.4,0.1l0.5,0.3l1,0.8l0.6,0.2l0.6-0.1l0.4-0.2l0.4-0.1l0.6,0.2l1.5,0.9l1.3,0.5l0.1,0.2l-0.6,0.9l-0.2,0.5v0l0.1,0.4
			l0.5,0.9l0.2,0.6l0,0.5l-0.2,0.5l-0.9,1.1l-0.1,0.3l-0.1,4.9l0.2,1.1l0.6,1l1.1,1.1l2.1,2.3l0,0.4l0.3,0.5l0,0.4l-0.1,0.5l0,0.4
			l0.2,0.3l0.4,0.3l0.9,0.8l0.5,0.3l0.5,0.1l3.5,0l0.8-0.1h0.2l0.2,0.1l0.4,0.2l0.3,0l4.3-0.1l3.7-0.1l0.2,0l0.3,0.2l0.2,0.1l4.5,0
			l1.4,0.4l1.7,0.8l1,0.2l0.2,0.2l0.4,0.6l0.2,0.1l0.5,0l0.2,0l0.2,0.2l0.1,0.2l0.1,0.5l0.1,0.1l0.1,0h0.1l0.1,0l1.3,0.8l2.3,1.5
			l2.3,1.5l2.7,1.7l1.9,1.2l2.1,1.4l2.4,1.5l2.2,1.4l2.3,1.5l0.7,0.5l0.4,0.4l0.6,0.9l0.4,0.4l0.3,0.2l0.7,0.2l0.5,0.5l0.3,0
			l0.7-0.2l0.7-0.1l2.5,0.3l2.5,0.3l1.3-0.1l1.2-0.5l0-0.1l0-0.2l0-0.2l0.2-0.1l0.1,0.1l0.4,0.4l0.2,0.2l0,0.2l0.1,0.1l0.3,0.1
			l0.3,0l0.1,0l0.3-0.1l0,0.1l0,0.1l0.1,0.1l1.4,0.1l0-0.2l0-0.3l0-0.2l0.6,0.8l0.4,0.4l0.4,0.2l2.3,0.6l1.7,0.5l0.6,0l1-0.2l0.4,0
			l0.4,0.1h0.4l1.3-0.3l0.2,0.1l2.4,1.1l0.9,0.2l0.9,0l1.1-0.6l0.3,0l0.1,0.2l-0.2,0.4l2.9,0.1l0.7,0.2l0.2,0.3l0.1,0.3l0.2,0.3
			l0.4,0.2l0.7,0l0.4-0.6l0.5-1.6l0.6-0.7l1.5-1.4l1.8-1.7l0.4-0.6l0.4-0.7l0.6-1.7l0.5-1.2l0.5-0.6l2-1l2-1l2.3-1.1l1.1-0.5
			l0.1-0.1l0-0.1l0-0.1l0.2,0l0.1,0l0.1,0h0.1l2.4-0.8l1.8-0.6l0.1-0.1l0.1-0.4l0.1-0.1l3-1.2l2.5-0.9l1.9-0.7l1.5-1l0.5,0.7
			l1.4,0.9l0.6,0.7l0.4,0.7l0.2,0.2l0.4,0.2l1.1,0.4l0.4,0.2l0.6,0.6l1.5,2.1l1,0.8l1.1,0.5l1.2,0.1l2.4-0.1l2.6-0.1l1.2-0.3l0.6,0
			l1.9-0.5l0.4,0l0.6,0.3l0.3,0.1l0.3-0.1l1-0.6l1.1,0.4l1,0.5l1,0.2l1.1-0.6l0.3-0.5l0.3-0.3l0.1-0.3l0-0.7l0.2-0.5l0.4-0.4l1.6-1
			l1.3-1l0.8-0.4l0.8-0.2l2,0l1.8,0l2.7-0.5l3.6-0.6l3.5-0.6l1.7-0.3l1-0.4l0.9-0.6l0.7-0.8l0.4-0.8l0.4-1.6l0.3-0.8l0.2-0.3
			l0.2-0.2l1.8-1.4l2-1.6l2.7-1.3l2.7-1.3l2.6-1.2l1.6-0.8l2.6-0.6l1.8-0.4l2.3-0.5l0.7-0.2l2-0.7l0.9-0.2l1.4,0.1l1.2,0.1l1.2,0.1
			l1.2,0.1l1.2,0.1l1.2,0.1l1.2,0.1l1.2,0.1l1.2,0.1l1.2,0.1l1.2,0.1l1.2,0.1l1.2,0.1l1.2,0.1l1.2,0.1l1.2,0.1l1.2,0.1l1.3,0.1
			l0.7-0.3l1.8-2l1.3-1.5l2.5-2.7l2.5-2.7l2.5-2.7l2.5-2.7l2.5-2.7l2.5-2.7l2.5-2.7l2.5-2.7l1.4-1.5l1.4-1.5l1.4-1.5l1.4-1.5
			l1.4-1.5l1.4-1.5l1.4-1.5l1.4-1.5l1.5-1.4l0.5-0.5l1-1l1-1l0.5-0.5l1.1-1.1l1.1-1.1l1.1-1.1l1.1-1.1l1.1-1.1l1.1-1.1l1.1-1.1
			l1.1-1.1l1.1-1.1l1.1-1.1l0.5-0.5h-75.3C483.8,372.5,454.1,391,420,391z"/>
		<polygon fill="#DA121A" points="271.6,345.3 272,345.2 272.4,345 271.2,345 		"/>
		<path fill="#FCDD09" d="M570.2,325.1l-1.5-0.5l-2-0.7l-2-0.7l-2-0.7l-2-0.7l-2-0.7l-2-0.7l-2-0.7l-2-0.7l-2-0.7l-2-0.7l-2-0.7
			l-2-0.7l-2-0.7l-2-0.7l-2-0.7l-2-0.7l-2.1-0.7l-2.1-0.7l-2.1-0.7l-2.1-0.7l-2.1-0.7L525,310l-2.1-0.7l-2.1-0.7l-2.1-0.7l-2.1-0.7
			l-2.1-0.7l-2.1-0.7l-0.9-0.3c-1,14.3-5.3,27.6-12.1,39.4H575l0.6-0.6l1.1-1.1l1.1-1.1l1.1-1.1l1.1-1.1l1.1-1.1l1.1-1.1l1.1-1.1
			l1.1-1.1l1.1-1.1l1.1-1.1l1.1-1.1l1.1-1.1l1.1-1.1l1.1-1.1l1.1-1.1l1.1-1.1l1.1-1.1h-23.4L570.2,325.1z"/>
		<path fill="#FCDD09" d="M328,299c0-16.8,4.5-32.5,12.3-46h-49.5l-1,3l0,0.3l0.2,0.3l0.7,0.5l0.1,0.4l-0.2,0.8l-0.4,0.6l-1.3,1
			l-0.4,0.4l-0.1,0.3v0.3l-0.1,0.4l-0.3,0.4l-0.3,0l-0.3-0.1l-0.4,0l-0.3,0.3l-0.3,0.7l-0.2,0.2l-0.2-0.1l0-0.3l0.1-0.7l-0.2-0.4
			l-0.3-0.3l-0.7-0.4l-2.8-2.5l-0.3-0.1l-0.4,0.1l-2.8,1.9l-0.4,0.4l-0.4,0.5l-0.9,1.7l-2,2.8l-0.2,0.8l0.1,1l1.1,5.2l0,1.1l-0.2,1
			l-0.1,0.1l-0.2,0.2l-0.1,0.1l0,0.3l0.1,0.6l0,0.3l-0.5,0.8l-1.4,1.3l-2.9,8.2l-0.7,3.5l0.1,1.8l1,19.4l-0.2,1.1l-0.3,0.5l-0.5,0.5
			l-2.3,2.1l-0.5,0.3l-0.4,0.1h-1.3l-0.8,0.1l-0.4,0.1L264,316l-0.2,0.2l-1,0.8l-0.1,0l-0.3,0l-1.1-0.1l-0.6-0.6l-0.5-0.8l-0.7-0.6
			l-0.5-0.1l-0.3,0.1l-0.3,0.2l-0.4,0.1l-0.4-0.1l-0.3-0.3l-0.4-0.2l-0.5,0l0.1,0.2l0,0.1l-0.2,0.1l-1.6,0.2l-0.3-0.1l-0.2,0
			l-0.2,0.1l-0.3,0.2l-0.2,0.1l-2.5-0.6l-0.4,0.1l-0.7,0.6l0,0.1l0.1,0.1l-0.2,0.2l-0.4,0.1l-0.3,0.2l-0.1,0.2l0,0.2v0.4l0,0.1
			l-0.1,0.2l0,0.1l0,0.1l0.2,0.1l0,0.1l0,0.3l-0.2,0.4l0,0.2l0.1,0.3l0.2,0.2l0.2,0.2l0.2,0.3l0.2,0.1l0.3,0.1l0,0.3l-0.2,0.1
			l-0.2,0.1l-0.2,0.2l-0.2,0.3l-0.1,0.2l0,0.2l0,0.3l0.1,0.1l0.3,0.2l0.1,0.1l-0.1,0.5l-0.2,0.3l-0.3,0.2l-0.4,0.2l-0.7,0.1
			l-0.1,0.1l0,0.2l-0.1,0.2l-0.1,0.2l-1.3,1.4l-0.3,0.4l-0.1,0.2l-0.1,0.5l-0.1,0.2l-0.1,0.1l-0.1,0.3l-0.3,0.3l-0.1,0.3l0.6,1.6
			l0.2,0.4l0.4,0.2l0.1,0.2l0.1,0.2l0.1,0.1l0.2,0.1l0.6,0.1l0.5,0.2l0.3,0l0.1-0.2l0.1-0.1l0.8-0.2l0.2,0l0.7,0.3l0.8,0.1l0.2,0.1
			l0.4,0.3l0.4,0.4l0.4,0.4l1.3,0.3l0.3,0l0.6-0.4l0.2-0.1l1-0.2l0.6,0l0.4,0.1l0.2,0.2l0.4,0.1l0.2,0.1l0.2,0.2l0.3,0.4l0.2,0.2
			l0.5,0.1l1.5-0.1l0.2,0.1l0.6,0.4l0.7,0.2l0.2,0.1l0.3,0.4l0.7,1l1.2,0.9l0.2,0.1l0.5,0.1l0.2,0.1l0.7,0.4l2.9,3l0.4,0.6l0.2,0.8
			l0,2.2l0.1,0.1l0.1,0.1l1.1,0.8l0.6,0.8l0.1,0.1h1.2l0,0l0,0h67.9C332.5,331.5,328,315.8,328,299z"/>
		<path fill="#078930" d="M420,207c14.8,0,28.8,3.5,41.2,9.7l-0.1-0.1l-1.5-2.6l-1.1-1l-1.3-0.7l-1.3-0.6l-1.8-1.2l-1.2-1.7L451,205
			l-0.7-1.2l-0.8-1l-0.9-0.9l-1.8-1.5l-2.4-2l-4.1-2.6l-3.2-2l-0.7-0.7l-1.6-2.9l-1.8-3.2l-2.5-2.8l-2.4-2.8l-1.4-1l-1.6-0.6
			l-2.1-0.3l-0.7-0.2l-2.5-1.2l-1.4-0.7l-3.4-3.1l-0.9-0.5l-1-0.4l-2.1-0.5l-0.4,0l-1.2,0.3l-0.3,0l-1-0.2l-0.4,0.1l-0.7,0.6
			l-0.5,0.1l-0.4-0.1l-0.4-0.2l-1.2-1.1l-0.6-0.4l-0.7-0.2l-0.7,0L401,172l-0.6-0.1l-1.2-0.4l-0.1-0.1l-0.1-0.1l-0.5-0.6l-0.4-0.3
			l-0.5-0.3h-0.4l-0.2,0.5l-0.4,0.6l-0.9,0.5l-1.9,0.5l-0.4,0l-1.3-0.2l-0.6,0.1l-0.3,0.3l-0.5,0.8l-0.6,0l-0.5-0.9l-0.7-2l-0.3-0.5
			l-0.4-0.5l-0.5-0.4l-0.5-0.3l-0.2-0.1l-0.7-0.2l-0.8-0.1l0-0.1l-0.3,0.3l0,0.4l0,0.5l-0.1,0.4l-0.3,0.4l-0.5,0.3l-1,0.5l-0.8,0.7
			l-0.4,0.3l-1,0.1l-1.4,0.6l-0.4,0.1l-0.4,0l-0.4,0l-0.4-0.1l-0.5,0l-1.4,0.7l-0.9,0.2l-1.8,0.2l-1.2,0l-0.2,0.1l-0.2,0l-0.3-0.2
			l-0.1-0.2l-0.2-0.5l-0.2-0.2l-1.2-0.7l-0.4-0.3l-0.3-0.4L369,171l-0.2-0.9l-0.1-0.3l-0.2-0.2l-0.3-0.2l-0.2-0.2l-0.1-0.2l-0.1-0.7
			l-0.2-0.5l-0.2-0.3l-0.4-0.2l-0.6,0l-1.3,0.2l-0.4-0.1l-2.5-1l-0.2-0.2l-0.1-0.2l0-0.2l0-0.2l-0.2-0.2l-0.3,0l-0.1-0.1l0-0.2
			l-0.1-0.2l0-0.1l0-0.3l0-0.1l-0.1-0.1l-0.2,0l-0.1-0.1l-0.4-0.9l-0.3-0.4l-0.4-0.4l-0.9,2.3l-1.5,3.6l-1.5,3.6l-1.5,3.5l-1.3,3.2
			l-0.8,2l-0.3,0.3L351,181l-0.2-0.3l-0.1-0.4l0-0.6l-0.1-0.2l-0.2-0.2l-0.2-0.1l-0.2-0.1l-0.3-0.1l-0.1-0.3l-0.1-0.6l-0.2-0.5
			l-0.1-0.1l-0.9-0.8l-0.3-0.2l-0.1-0.3l0-0.5l0-0.4l-0.1-0.2l-0.4-0.4l-0.9-1.3l-0.4-0.3l-0.6-0.5l-0.3,0.1l-0.5,0.2l-1.7,0
			l-0.8,0.2l-0.7,0.5l-0.4,0.5l-0.2,0.5l-0.1,0.5l0,0.6l-0.1,0.5l-0.2,0.4l-0.3,0.3l-0.3,0.2l-0.2,0l-0.4,0l-0.2,0l-0.3,0.3l-0.1,0
			l-0.2,0l-0.2-0.1l-0.2-0.1l-0.2-0.1l-0.4-0.6l-0.1-0.1l-0.8-0.1L335,176l-0.7-0.1h-1.6l-0.2,0.1l-0.4,0.2l-0.2,0.1h-1.1l-0.5,0.1
			l-0.7,0.3l-0.3,0.1l-0.5,0l-0.4,0.1l-0.3,0.2l-0.2,0.5l-0.4,0l-2.1,6.5l-0.1,0.5l0,0.6l0.1,0.6l0.4,1.2l0.1,1.2l-1.4,3.4l-0.1,0.5
			l-0.1,1.4l-0.2,0.7l-3.5,5l-2.3,7.8l0,0.5l0.2,0.4l0.1,0.2l0,0.2l-0.2,0.3l-0.3,0.3l-0.3,0.4l0,0.5l0.6,0.9l0.1,0.4v0.6l-0.5,2.6
			l-0.2,0.5l-0.4,0.1l-0.6-0.2l-0.2-0.1l-0.1-0.1l-0.2-0.1l-0.3-0.1l-0.2,0l-7,1l-0.6,0.2l-0.4,0.2l-0.1,0.1v0.1l-0.2,0.6l0,0.3
			l-0.1,0.2l-0.2,0.2l-0.2,0.1l-0.5,0l-0.2,0.1l-0.2,0.2l-4.4,7.3l-0.2,0.7l-0.1,0.7l-0.1,0.3l-0.2,0.3l-0.2,0.2l-0.5,0.3l-0.2,0.2
			l-0.2,0.3l-0.4,1l-0.2,1.3l-0.2,0.6l-0.5,0.5l-0.9,0.5l-0.2,0.2l-0.1,0.2l0,0.5l0,0.2l-0.7,0.8l-2.1,0.8l-0.9,0.6l-0.4,0.5
			l-0.3,0.6l-0.3,0.6l-0.2,0.6l0,0.5l0.2,0.9l0,1l0.2,0.5l0.5,1l0.1,0.4l-0.1,0.5l-2.9,6.5l-0.1,0.5l0.2,0.6l0.4,0.5l0.3,0.5
			l-0.1,0.7l-0.5,1.5h49.5C356.2,225.5,385.9,207,420,207z"/>
		<path fill="#0F47AF" d="M340.3,253c-7.8,13.5-12.3,29.2-12.3,46s4.5,32.5,12.3,46c15.9,27.5,45.6,46,79.7,46
			c34.1,0,63.8-18.5,79.7-46c6.8-11.7,11.1-25.1,12.1-39.4l-1.2-0.4l-2.1-0.7l-2.1-0.7l-2.1-0.7l-1.9-0.6l-0.9-0.5l-1.6-1.5l-3-2.7
			l-2.1-1.9l-1.8-1.6l-0.3-0.2l-0.4,0l-0.6,0.2l-0.4,0l-1.8-1.1l-1.2-0.7l-0.3-0.4l-0.1-0.4l-0.1-0.8l-0.2-0.4l-0.5-1.1l-0.2-0.2
			l-0.5-0.3l-0.2-0.2l-0.2-0.3L486,288l-0.2-0.2l-0.2-0.1l-0.6-0.2l-0.5-0.6l-0.3-0.9l-0.7-3.8l-0.4-0.8l-0.3-0.2l-35.9,26.1
			l12.1,37.2l-8.4-6.1l-17.6-54.1h6.4l5.5,16.9l33.6-24.4l-0.2-0.3l-0.6-0.6l-2.2-1.5l-0.6-0.7l-0.7-1.4l-0.4-1.5l-0.3-2.2l-0.3-0.6
			l-0.4-0.5l-1.3-1.3l-0.6-1l-0.5-1.1l0-0.5l0.3-0.2l0.5-0.1l0.5-0.3l0.3-0.4l0.2-0.5l0.2-1l0.2-0.6l0.3-0.4l0.8-0.7l0.4-0.4
			l0.1-0.4l0.1-0.4l0.2-0.5l0.4-0.4l1-0.4l0.4-0.3l0.2-0.4l0.2-1l0.3-0.5l-0.4-0.1l-0.2,0.2l-0.2,0.3l-0.3,0.1l-0.3-0.1l-0.6-0.2
			l-1-0.1l-0.5-0.1l-0.4-0.3l-0.6-1.3l-0.4-0.2l-0.6,0l-1.7-0.4l-1.1,0.1l-2.1,0.6l-1.6,1l-0.5,0.2l-0.3,0l-0.4-0.1l-0.5-0.1
			l-0.8,0.3l-0.2,0l-0.4,0l-0.2,0l-0.8,0.4l-0.3,0.1H460l-1.2-0.3l-1.3,0.1l-0.6,0.2l-0.7,0.7l-0.6,0.2l-1.3,0.1l-0.2,0.1l-0.1,0.1
			l-0.1,0.1l-0.2,0l-0.1-0.1l-0.1-0.1l-0.1-0.1l-0.4-0.1l-11.9,16.3l-1.2-0.9v0v0l-1.2-0.9l11.2-15.4l-0.1-0.2l0.4-0.7l0.1-1
			l0.1-4.6l-0.3-2.6l-0.6-2.7l0-1.3l0.7-2.2l0.3-1.8l0.4-0.7l0.3-0.2l0.9-0.4l0.2-0.3l0.1-0.3l0.2-0.1l0.3-0.1l0.3-0.1l0.3-0.3
			l0.3-0.3l2.8-4l0.9-1.7l0.3-0.3l0.6-0.3l0.2-0.3l0.4-0.9l3.1-4.2l0.7-1.5l1.4-1.9l-1.1-1.2l-1.8-2.5c-12.4-6.2-26.4-9.7-41.2-9.7
			C385.9,207,356.2,225.5,340.3,253z M401.2,302.8L396,299l5.5-16.9h-43L350,276h0h0h53.5l12.1-37.2l3.2,9.9L401.2,302.8z
			 M387.4,308l0.9,2.9l-37.9,12.3l-0.9-2.9L387.4,308z M375.5,240.4l1.2-0.9l0,0l0,0l1.2-0.9l23.4,32.3l-1.2,0.9l0,0l0,0l-1.2,0.9
			L375.5,240.4z M376.7,358.3l16.5-50.9l-31.7-23H372l46,33.4l-5.2,3.8l-14.3-10.4l-13.3,40.9L376.7,358.3z M418.5,372.6v-39.9h3.1
			v39.9H418.5z M451.6,310.9l0.5-1.5h0h0l0.5-1.5l37.9,12.3l-0.9,2.9L451.6,310.9z M437.6,306.5l2,6.1L425.2,323l34.8,25.3l3.2,9.9
			L420,326.8l-31.7,23l3.2-9.9L437.6,306.5z M436.5,276h39.1l-8.4,6.1h-56.9l2-6.1h17.7L416.8,235l3.2-9.9L436.5,276z"/>

			<line fill="none" stroke="#FCDD09" stroke-width="0" stroke-linecap="round" stroke-linejoin="round" x1="350" y1="276" x2="350" y2="276"/>
		<polygon fill="#FCDD09" points="398.5,311.2 412.8,321.6 418,317.8 372,284.4 361.6,284.4 393.3,307.4 376.7,358.3 385.2,352.1
			"/>
		<polygon fill="#FCDD09" points="439.3,284.4 432.8,284.4 450.4,338.5 458.8,344.6 446.7,307.4 482.7,281.3 482.1,281.1
			481.1,280.9 480.2,280.5 479.5,279.9 479.1,278.8 478.9,278 478.6,277.3 478.4,276.8 444.7,301.3 		"/>
		<polygon fill="#FCDD09" points="388.3,349.8 420,326.8 463.3,358.3 460,348.3 425.2,323 439.6,312.6 437.6,306.5 391.6,339.9
			"/>
		<polygon fill="#FCDD09" points="416.8,235 430.1,276 412.3,276 410.4,282.1 467.2,282.1 475.7,276 436.5,276 420,225.1 		"/>
		<polygon fill="#FCDD09" points="403.5,276 350,276 358.4,282.1 401.5,282.1 396,299 401.2,302.8 418.8,248.7 415.6,238.8 		"/>

			<line fill="none" stroke="#000000" stroke-width="0" stroke-linecap="round" stroke-linejoin="round" x1="400.2" y1="271.7" x2="400.2" y2="271.7"/>

			<line fill="none" stroke="#000000" stroke-width="0" stroke-linecap="round" stroke-linejoin="round" x1="376.7" y1="239.5" x2="376.7" y2="239.5"/>

			<line fill="none" stroke="#000000" stroke-width="0" stroke-linecap="round" stroke-linejoin="round" x1="452.1" y1="309.4" x2="452.1" y2="309.4"/>

			<line fill="none" stroke="#000000" stroke-width="0" stroke-linecap="round" stroke-linejoin="round" x1="439.8" y1="271.7" x2="439.8" y2="271.7"/>
		<polygon fill="#FCDD09" points="439.8,271.7 441.1,272.6 452.9,256.3 450.6,255.8 450,255.6 449.8,255.4 438.6,270.8 		"/>
		<rect x="418.5" y="332.7" fill="#FCDD09" width="3.1" height="39.9"/>
		<polygon fill="#FCDD09" points="400.2,271.7 401.4,270.8 378,238.6 376.7,239.5 375.5,240.4 398.9,272.6 		"/>

			<rect x="349" y="314.1" transform="matrix(0.9511 -0.309 0.309 0.9511 -79.4624 129.46)" fill="#FCDD09" width="39.9" height="3.1"/>
		<polygon fill="#FCDD09" points="490.5,320.3 452.6,308 452.1,309.4 451.6,310.9 489.5,323.2 		"/>
	</g>
	<g transform="matrix(11.8081,0,0,11.8081,11.8081,23.6162)">
		<path vector-effect="none" fill="none" stroke="#999999" stroke-width="0.25" stroke-linecap="round" stroke-linejoin="round" d="
			M29.9,12.2L29.9,12.2l0.1,0l0,0l0,0l0,0l0,0l0,0.1l0,0l0,0l0,0l0,0l0,0l0,0.1l0,0l0,0l0,0l0.1,0.1l0,0l0,0l0,0l0,0l0,0l0,0l0.1,0
			l0.2,0l0.1,0l0.1-0.1l0,0l0,0l0,0l0,0l0,0l0.1,0l0.1,0l0,0l0.1-0.1l0.1,0l0,0l0,0l0,0l0,0l0,0l0,0l0,0l0.1,0l0.1,0l0,0l0,0l0,0
			l0,0l0,0l0.1,0.2l0,0.1l0,0l0-0.1l0,0l0,0l0.1,0l0,0l0.2,0l0.1,0l0,0l0,0h0l0,0l0,0l0,0l0,0l0,0l0.1,0l0.1,0l0.1,0l0.1,0l0.1,0
			l0.1,0l0.1,0.1l0,0l0,0l0,0l0.1-0.1l0,0l0.1,0l0,0l0.1,0l0,0l0.2,0l0.1,0l0.1,0l0.3,0.3l0.1,0.1l0.2,0.1l0.1,0l0.2,0l0.1,0.1
			l0.1,0.1l0.2,0.2l0.2,0.2l0.2,0.3l0.1,0.2l0.1,0.1l0.3,0.2l0.3,0.2l0.2,0.2l0.2,0.1l0.1,0.1l0.1,0.1l0.1,0.1l0.2,0.3l0.1,0.1
			l0.2,0.1l0.1,0l0.1,0.1l0.1,0.1l0.1,0.2l0.2,0.2l0.1,0.1l-0.1,0.2L38.1,17l-0.3,0.4l0,0.1l0,0l0,0l0,0l-0.1,0.1l-0.2,0.3l0,0l0,0
			l0,0l0,0l0,0l0,0l0,0l-0.1,0l0,0l0,0.1l0,0.2l-0.1,0.2l0,0.1l0.1,0.2l0,0.2l0,0.4l0,0.1l0,0.1l0,0l0,0l0.2,0l0,0l0,0l0,0l0,0l0,0
			l0,0l0,0l0.1,0l0.1,0l0.1-0.1l0.1,0l0.1,0l0.1,0h0l0,0l0.1,0l0,0l0,0l0,0l0.1,0l0,0l0,0l0,0l0,0l0.1-0.1l0.2-0.1l0.1,0l0.1,0l0,0
			l0,0l0.1,0.1l0,0l0,0l0.1,0l0,0l0,0l0,0l0,0l0,0l0,0l0,0l0,0.1l0,0l0,0l-0.1,0l0,0l0,0l0,0l0,0l0,0L39,20.1l0,0l0,0l0,0.1l0,0l0,0
			l0,0l0,0l0,0l0,0l0,0.1l0.1,0.1l0.1,0.1l0,0l0,0.1l0,0.2l0,0.1l0.1,0.1l0.1,0.1l0.2,0.1l0,0l0,0.1l0,0.1l0,0.1l0,0.1l0.1,0.1
			l0.1,0l0.1,0l0.1,0l0,0.1l0.1,0.3l0,0.1l0,0l0.1,0l0,0l0,0l0,0l0,0l0,0l0,0l0,0l0,0.1l0,0l0,0.1l0,0l0,0l0.1,0.1l0.2,0.1l0,0l0,0
			l0,0l0,0l0.2,0.1l0.2,0.2l0.3,0.2l0.1,0.1l0.1,0l0.2,0.1l0.2,0.1l0.2,0.1l0.2,0.1l0.2,0.1l0.2,0.1l0.2,0.1l0.2,0.1l0.2,0.1
			l0.2,0.1l0.2,0.1l0.2,0.1l0.2,0.1l0.2,0.1l0.2,0.1l0.2,0.1l0.2,0.1l0,0l0.2,0.1l0.2,0.1l0.2,0.1l0.2,0.1l0.2,0.1l0.2,0.1l0.2,0.1
			l0.2,0.1l0.2,0.1l0.2,0.1l0.2,0.1l0.2,0.1l0.2,0.1l0.2,0.1l0.2,0.1l0.2,0.1l0.1,0l0.1,0.1h0.2h0.3h0.3h0.3h0.3h0.4h0.3l-0.1,0.1
			l-0.1,0.1l-0.1,0.1L49,26l-0.1,0.1l-0.1,0.1l-0.1,0.1l-0.1,0.1l-0.1,0.1l-0.1,0.1l-0.1,0.1l-0.1,0.1l-0.1,0.1L48,26.9L47.9,27
			l-0.1,0.1l-0.1,0.1l-0.1,0.1l-0.1,0.1l-0.1,0.1l-0.1,0.1l-0.1,0.1l-0.1,0.1l-0.1,0.1L47,27.9L46.9,28l-0.1,0.1l-0.1,0.1l0,0
			l-0.1,0.1l-0.1,0.1l0,0l-0.1,0.1l-0.1,0.1l-0.1,0.1l-0.1,0.1l-0.1,0.1l-0.1,0.1l-0.1,0.1l-0.1,0.1l-0.1,0.1l-0.2,0.2L44.9,30
			l-0.2,0.2l-0.2,0.2l-0.2,0.2l-0.2,0.2l-0.2,0.2l-0.2,0.2l-0.1,0.1l0,0l-0.2,0.2l-0.1,0l-0.1,0l-0.1,0l-0.1,0l-0.1,0l-0.1,0l-0.1,0
			l-0.1,0l-0.1,0l-0.1,0l-0.1,0l-0.1,0l-0.1,0l-0.1,0l-0.1,0l-0.1,0l-0.1,0l-0.1,0l-0.1,0l-0.1,0l-0.2,0.1l-0.1,0l-0.2,0l-0.2,0
			l-0.2,0.1l-0.1,0.1L40.2,32L40,32.1l-0.2,0.1l-0.2,0.1l-0.1,0.1l0,0l0,0l0,0.1l0,0.1l0,0.1l-0.1,0.1l-0.1,0l-0.1,0l-0.1,0L38.7,33
			L38.4,33l-0.2,0l-0.1,0l-0.2,0l-0.1,0l-0.1,0l-0.1,0.1l-0.1,0.1l0,0l0,0l0,0.1l0,0l0,0l0,0l0,0l-0.1,0.1l-0.1,0l-0.1,0l-0.1,0
			l-0.1,0l0,0l0,0l-0.1,0l0,0l-0.2,0l-0.1,0l-0.1,0l-0.2,0l-0.2,0l-0.1,0l-0.1,0l-0.1-0.1l-0.1-0.2l-0.1,0l0,0l-0.1,0l0,0l0,0l0-0.1
			l0-0.1L35.2,33l0-0.1L35,33l-0.2,0.1l-0.2,0.1l-0.3,0.1l0,0l0,0l0,0l-0.2,0.1L34,33.4h0l0,0l0,0l0,0l0,0l0,0l0,0l-0.1,0l-0.2,0.1
			l-0.2,0.1l-0.2,0.1l0,0l0,0.1L33.2,34l0,0.1l0,0l-0.2,0.1l-0.1,0.1l-0.1,0.1l0,0.1l0,0.1l-0.1,0l0,0l0,0l0,0l0,0l-0.1,0l-0.2,0
			l0,0l0,0l0,0l-0.1,0.1l-0.1,0l-0.1,0l-0.2-0.1l0,0l-0.1,0h0l0,0l0,0l-0.1,0l-0.1,0l-0.1,0l-0.2-0.1l0,0l0,0L31,34.2l0,0l0,0l0,0
			l-0.1,0l0,0l0,0l0,0l0,0l0,0l0,0l0,0l0,0l0,0l0,0l0,0l0,0l0,0l0,0l0,0l0,0l-0.1,0l-0.1,0l-0.2,0l-0.2,0l-0.1,0l-0.1,0l0,0l0,0
			l-0.1,0l0,0l0,0l-0.1-0.1l0,0l-0.1,0l-0.2-0.1l-0.2-0.1l-0.2-0.1l-0.2-0.1l-0.2-0.1l-0.2-0.1l-0.2-0.1L28,33l-0.1-0.1l0,0h0l0,0
			l0,0l0,0l0,0l0,0l0,0l0,0l0,0l0-0.1l0,0l-0.1,0l-0.1-0.1l-0.1,0l-0.4,0l0,0l0,0l0,0l-0.3,0l-0.4,0l0,0l0,0l0,0h0l-0.1,0l-0.3,0
			l0,0l0,0l-0.1-0.1l0,0l0,0l0,0l0,0l0,0l0,0l0,0l-0.2-0.2L25.3,32l0-0.1l0-0.1l0,0l0-0.4l0,0l0.1-0.1l0,0l0,0l0,0l0,0l0-0.1l0,0v0
			l0,0l0.1-0.1l0,0l-0.1,0l-0.1-0.1l-0.1,0l0,0l0,0l0,0l0,0l-0.1-0.1l0,0l0,0l0,0h0l0,0l0,0l-0.1,0.1l0,0l0,0l0,0l0,0l-0.1-0.1l0,0
			l0,0l0,0l0,0l0,0l0,0l0,0l0,0l0,0l-0.1-0.1L24,30.4l-0.1-0.1l0,0l0-0.1l0-0.1l-0.2-0.2l0,0l0,0l0,0l0,0l0,0l0,0l0,0l0,0l0,0l0,0
			l0,0l0-0.1l0,0l0,0l0,0l0,0l0-0.1L23.4,29l0,0l0-0.1l0-0.1l-0.1-0.1l0,0l0-0.1l0-0.1l0-0.1l0-0.1l0,0l0,0l0,0l0,0L23,28.1l0,0l0,0
			h-0.1l0,0l0,0l0-0.1l0,0l0,0l0,0l0,0l0,0l0,0l0,0l0,0l0,0l0,0l-0.1-0.1l-0.3-0.1l0,0l0,0l0,0l0,0l0,0l-0.1-0.1l0,0l0,0l0,0l0,0
			l0,0v-0.1l0,0l0,0l0,0l0,0l0,0l0,0l-0.1-0.1l-0.1-0.1l0,0l0,0l0-0.2l0-0.1l0-0.1l-0.2-0.2l-0.1,0l0,0l0,0l0,0l-0.1-0.1l-0.1-0.1
			l0,0l0,0l-0.1,0l-0.1,0l0,0l-0.1,0l0,0l0,0l0,0l0,0l0,0l0,0l0,0l0,0l-0.1,0l-0.1,0l0,0l0,0l0,0l-0.1,0l0,0l0,0l0,0l0,0l-0.1,0
			l-0.1,0l0,0L20,26l0,0l0,0l0,0l0,0l-0.1,0l0,0l0,0l0,0l0,0l0,0l0,0l-0.1-0.1l0,0l0,0l0,0l0,0l0,0l0,0l0,0l0,0l0.1-0.1l0,0l0,0l0,0
			l0,0l0.1,0l0,0l0,0l0,0l0,0l0,0l0,0l0,0l0,0l0,0l0,0l0,0l0,0l0,0l0,0l0,0l0,0l0,0l0,0l0,0l0,0l0,0l0,0l0,0l0,0l0,0l0,0l0,0l0,0
			l0,0l0,0v0l0,0l0,0l0,0l0,0l0,0l0,0l0,0l0.1,0l0,0l0.2,0l0,0l0,0l0,0l0,0l0,0l0.1,0l0,0l0,0l0,0l0,0l0,0l0,0l0,0l0,0l0,0l0,0l0,0
			l0.1,0.1l0,0.1l0,0.1l0.1,0l0,0l0,0l0.1-0.1l0,0l0,0l0,0l0.1,0h0.1l0,0l0,0l0.2-0.2l0,0l0,0l0-0.1l-0.1-1.6l0-0.2l0.1-0.3l0.2-0.7
			l0.1-0.1l0-0.1l0,0l0,0l0,0l0,0l0,0l0,0l0-0.1l0-0.1l-0.1-0.4l0-0.1l0-0.1l0.2-0.2l0.1-0.1l0,0l0,0l0.2-0.2l0,0l0,0l0.2,0.2l0.1,0
			l0,0l0,0l0,0.1l0,0l0,0l0,0l0-0.1l0,0l0,0l0,0l0,0l0,0l0,0v0l0,0l0,0l0.1-0.1l0,0l0-0.1l0,0l-0.1,0l0,0l0,0l0.1-0.4l0-0.1l0,0l0,0
			l0-0.1l0,0l0.2-0.5l0,0l0,0l0-0.1l0,0l0-0.1l0-0.1l0,0l0,0l0,0l0,0l0,0l0.1,0l0.2-0.1l0.1-0.1l0,0l0,0l0,0l0,0l0.1,0l0,0l0,0
			l0-0.1l0-0.1l0,0l0,0l0,0l0,0l0,0l0,0l0-0.1l0-0.1l0.4-0.6l0,0l0,0l0,0l0,0l0,0l0,0l0,0l0-0.1v0l0,0l0,0l0.1,0l0.6-0.1l0,0l0,0
			l0,0l0,0l0,0l0.1,0l0,0l0,0l0-0.2v0l0,0l0-0.1l0,0l0,0l0,0l0,0l0,0l0,0l0,0l0,0l0.2-0.7l0.3-0.4l0-0.1l0-0.1l0,0l0.1-0.3l0-0.1
			l0-0.1l0,0l0-0.1l0,0l0.2-0.6l0,0l0,0l0,0l0,0l0,0l0,0l0.1,0l0,0h0.1l0,0l0,0l0,0h0.1l0.1,0l0.1,0l0.1,0l0,0l0,0l0,0l0,0l0,0l0,0
			l0,0l0,0l0,0l0,0l0,0l0,0l0,0l0,0l0,0l0,0l0,0l0,0l0,0l0.1,0l0.1,0l0.1,0l0,0l0,0l0,0l0,0l0.1,0.1l0,0l0,0l0,0l0,0l0,0l0,0
			l0.1,0.1l0,0l0,0l0,0.1l0,0l0,0l0,0l0,0l0,0l0,0l0,0.1l0,0l0,0l0,0l0,0l0.1-0.2l0.1-0.3l0.1-0.3l0.1-0.3l0.1-0.3l0.1-0.2l0,0l0,0
			l0,0.1l0,0l0,0l0,0l0,0l0,0l0,0l0,0l0,0l0,0l0,0l0,0l0,0l0,0l0,0l0,0L29.9,12.2"/>
	</g>
</g>

</svg>
