<?xml version="1.0" encoding="utf-8"?>

<svg version="1.2" baseProfile="tiny" xmlns="http://www.w3.org/2000/svg" xmlns:xlink="http://www.w3.org/1999/xlink" x="0px"
	 y="0px" viewBox="299.8 172.2 240.9 249.8" xml:space="preserve">

<g id="Fiji">
	<g id="shield" transform="translate(2.4995,5.4525)">
		<g id="g3">
		</g>
	</g>
	<g>
		<polygon fill="#68BFE5" points="450,291.9 449,291.3 448.4,291.6 448.3,292.5 448.9,293.6 449.7,294.2 450.3,294.7 450.7,295.4
			451.1,296.4 451.7,296.4 451.4,295.3 450.5,292.7 		"/>
		<polygon fill="#68BFE5" points="436.3,301.9 437,300.6 437.2,298.7 437.2,297.4 436.9,295.9 436.3,294.5 435.6,293.6 434.4,293.1
			433.3,293.4 432.2,293.9 431,294.2 429.3,295.4 428.6,298.2 429.2,301 430.7,302.5 430.4,303.8 431.2,303.9 435.1,302.8 		"/>
		<polygon fill="#68BFE5" points="469.7,325.7 470.2,326.7 471.6,328.5 472.1,329.5 472.7,331.7 473.5,332.7 475.8,334.1
			476.8,330.9 476.6,326.5 475.4,324.3 474.7,323.5 472.8,320.1 471.6,319.4 470.6,319.2 470.1,319 469.7,319.1 468,320.5
			467.4,320.4 466.6,319.9 466.8,320.7 467.5,322 467.7,322.3 467.6,324.7 467.9,327 468.3,327.6 469,327.4 469.2,326.8 469,325.2
			469.3,324.3 		"/>
		<polygon fill="#68BFE5" points="482.1,308 482.1,307.6 480.8,307.2 479.4,306.5 479,307.6 479.3,308.7 479.8,309.6 480.5,310.4
			481,311.8 481.4,312.3 482.1,311.4 482.2,310.8 482,310 481.8,309.2 481.6,308.7 481.9,308.2 		"/>
		<polygon fill="#68BFE5" points="483,270.6 483.5,268.8 483.7,266.7 483.4,263.9 483.4,263.3 482.6,262.8 481.9,262.7 481.2,262.9
			478,263.4 477.4,264.2 477.5,265.3 477.2,266.4 477.8,267.5 478.2,268.7 478.4,270 478.4,274.8 478.9,275.3 481,273.6
			482.2,272.2 		"/>
		<polygon fill="#68BFE5" points="429.2,304 428.1,301.5 427.6,301.5 427.6,302.4 428.6,304.8 428.8,305.7 429.2,306.2 429.7,306.3
			430.2,305.9 430.7,306.5 431,306.2 431.1,306 431.3,305.4 430,305 		"/>
		<polygon fill="#68BFE5" points="530.1,198.3 529.5,198.6 529.1,199.4 527.1,200.9 526.4,202 526.4,202 526.4,202 526.4,202
			525.5,204.2 525.2,205.1 525.3,205.8 525.5,206.1 525.9,206.2 526.4,206 526.4,206.1 526.4,206.1 530.1,204.6 531.4,203.6
			532.4,202.6 531.9,202.1 531.2,201.7 531.2,201 531.5,200.2 531.9,199.9 532.5,199.8 532.9,199.7 533.3,199.6 533.7,199.4
			533.7,198.8 533.3,198.4 533.2,198.1 533.5,197.9 534.2,197.7 534.2,197.2 533.1,197.3 		"/>
		<polygon fill="#68BFE5" points="539.6,223.4 538.6,222.8 538.6,222 538.3,220.6 537.6,218.3 536.9,217.4 535.9,217.1 534.3,217.5
			532.9,218.4 527.2,224.6 526.4,225.9 526.4,225.9 526.4,225.9 524.7,229.2 524.3,230.6 524.1,231.3 536.4,231.3 536.5,230.2
			536.7,229.5 537.5,228.1 540.3,225.3 540.7,224.7 540.3,224 		"/>
		<polygon fill="#68BFE5" points="343.5,365.5 343.1,364.6 342.8,364.5 342.6,364.5 342.3,364.3 342,364.1 340.9,365.5 340.8,366.2
			341,367.4 341.4,368.8 342.1,370.4 343.1,371.7 344.2,372.4 343.7,368.5 343.6,366.6 		"/>
		<polygon fill="#68BFE5" points="419,208.7 419,208.6 419,208.6 		"/>
		<polygon fill="#68BFE5" points="410.1,400.1 410.6,399.2 411.1,398.4 412.1,398.8 412.4,398 412.5,397.3 412.2,396.7 411.6,396
			411.9,394.7 410.7,394.5 409.1,394.9 408.3,395.7 408.2,396.3 407.4,397.5 407.3,398.5 409.4,400 		"/>
		<polygon fill="#68BFE5" points="425.5,323.8 425.3,324.2 425,324.7 424.6,325.2 424.1,325.4 423.3,325.3 423.1,325.1 423.1,324.8
			422.8,324.3 421.9,323.3 421.5,322.7 420.8,322.2 419.3,322.1 418.3,320.9 416.9,318.4 416.6,316.4 416.6,316.1 418.9,315.5
			419,315.5 418.7,314.2 418.7,314.1 418.5,313.8 419.3,314.1 419.6,314.3 420,313.4 420.1,313.3 420,312.5 419.5,311.8
			418.7,311.5 419.3,311.1 419.3,310.9 419.3,310.9 419.4,310.3 418.9,310 418,310.4 417.2,309.7 417.2,308.9 417.5,308 417.5,307
			417.1,306.7 415.6,305.6 415,305.1 414.8,304.4 414.9,303.8 415.2,303.1 415.3,302.3 415.8,300.8 416.8,299.5 417,299 390.3,299
			325.6,299 325.6,299.8 326,301.4 326,302.3 326.2,303 326.4,303.5 326.4,304.1 325.6,304.8 325,304.9 322.2,304.1 321.7,303.9
			321.4,304 321.3,305.1 321.3,307.9 321.4,308.8 321.6,309.4 321.5,310 320.7,311 320.1,311.3 318.1,312.1 314.5,312.3 313.2,313
			312.7,314.6 312.9,315.4 313.3,316 313.7,316.6 313.7,317.6 313.4,318.5 312.4,319.9 312.2,320.5 312.4,321.4 313,322.1
			313.3,322.7 313,323.5 313,323.9 314.4,324.7 314.8,325.1 314.9,326.2 315.3,326.8 315.6,327.2 315.9,327.6 316,328.6
			316.1,330.2 316.5,331.1 317,330.4 318.7,333 321.1,334.1 326.6,335.5 327,335.8 327.4,336.3 328,336.8 328.8,337.2 329.5,337.3
			333.5,337.1 334.4,337.2 336.8,338.3 338.7,338 342.8,340 345,340.6 347,340.8 353.4,342.6 357,343.6 357.3,344 357.6,344.6
			359.1,345.9 359.5,346.1 360,345.8 360.4,345.5 361,345.1 361.6,344.9 361.8,345.3 362.2,346.7 363.2,346.4 364.3,345.7
			365.3,345.8 366.3,346.3 367.4,346.1 368.3,345.5 368.8,345 369.4,345.4 369.8,345.5 371,345.6 373.5,346 379.3,343.9
			381.1,345.6 381.5,345 382.2,345 383.6,344.7 384.9,343.5 387.2,340.8 387.9,340.4 389.5,339.8 390.1,339.4 390.4,339.1
			390.5,338.9 390.8,338 390.9,337.7 391.2,337.2 391.7,336.7 392.1,336.4 392.7,336.2 393.7,336.1 394.6,335.8 395.2,335.2
			395.7,334.6 396.3,334.4 396.7,334.3 397.6,333.9 398.2,333.8 398.6,334 399.1,334.4 399.3,334.7 399.2,334.9 400,334.8
			400.6,334.5 401,334 401.1,333.8 401.4,333.3 401.3,333.2 401.2,333.1 401.1,333.1 400.9,332.7 401.9,332.7 402.7,332.9
			403.4,333.2 404.6,334.4 404.8,334.7 404.7,335.1 404.6,336.4 405.5,336.4 407.2,336 408.3,335.1 408.5,334.9 408.4,333.8
			409.2,333.5 411.5,332.3 412.2,332.4 412.9,332.9 413.3,332.9 413.7,333.1 414,333.7 413.2,334.9 413.5,334.9 414.2,334.7
			416.4,333.8 416.4,335.5 418.3,333.6 422.3,331.6 423,331.1 423.9,330.2 424.6,329.1 424.9,328.1 425,327.9 424.9,327.2
			424.9,326.4 425.1,325.9 425.8,324.8 426,324.2 425.8,324.2 426,323.8 		"/>
		<polygon fill="#68BFE5" points="405.9,408.3 406.4,408.8 407.6,408 409.2,407.2 409.4,405.9 408.9,404.4 408.3,403.3 407.5,402.9
			404.6,402.4 404.1,402.5 403.5,401.2 400.9,401.1 400.3,400 399.5,400.4 398.8,400.4 398.2,400.1 397.4,400 396.8,400.1
			396.4,400.5 396.1,400.9 395.8,401.1 394.6,401.2 394,401.6 393.4,403.9 391.2,403 388.1,403.2 385.4,404.3 384.3,406.1
			384.3,407.6 383.9,409 383.2,409.8 382.2,408.9 381.3,409.6 381.1,410.4 381,411.2 380.5,411.8 379.8,411.9 375.4,410.8
			374.5,410.8 373.7,411.2 373.1,412 372.8,413.8 372,414.5 370.4,413.9 369,414.4 366.7,416.8 367.6,417.5 368.5,418 369.3,418.2
			369.9,417.9 370.4,417.9 370.8,419 371.7,418.9 373.4,417.9 374.4,418 376.4,418.8 377.6,419 378.8,418.8 379.3,418.3
			379.8,417.6 380.5,416.8 381.6,416.8 382.1,416.6 383.2,415.7 383,417.8 383.1,418.5 383.7,419 384.5,419 385.1,418.7
			385.6,418.1 385.9,417.6 386,415.5 385.7,414.8 384.6,414.5 384,414.2 383.8,413.2 384.1,412.4 384.8,411.8 385.2,413
			385.3,412.6 385.3,410.8 385.7,410 386.6,409.8 387.9,409.8 389.1,409.5 392.4,406.7 394.5,405.9 396.5,406.7 396.2,406.9
			395.8,407.4 395.5,407.8 396,408.1 396.4,408.2 397,408.1 397.6,407.8 397.5,408.4 397.3,409.5 397.1,410 398.4,409.7
			400.3,409.7 402.1,409.8 403,410 403.6,409.7 403.9,409.1 403.9,408.5 403.5,407.8 405.1,408.1 		"/>
		<polygon fill="#68BFE5" points="379,357.3 380.4,358.3 381.6,358 382.4,356.8 382.7,355.1 382.2,353.6 381.3,352.8 380.4,353.1
			380.1,354.5 380,355.1 380,355.4 379.9,355.8 379.5,356.2 379.9,356.7 380,357 379.7,357.2 		"/>
		<polygon fill="#68BFE5" points="433,213.7 432.7,211.3 432,210.5 430.8,211.1 426.5,214.7 426,215.4 425.8,215.9 425.4,216.2
			424.4,216.5 423.6,216.3 421.2,214.7 419,214.5 419,221.9 419,227.1 420.1,227.5 419.4,230 420.5,231.8 422,233.4 422.8,235
			423,237.1 423.6,239.8 424.4,242 425.5,243.1 426.7,243.6 427.7,243.7 430,243.6 430.2,243.3 433,241.4 431.9,240.6 432.1,240.1
			432.8,239.7 433.4,239.1 434.2,236 434.5,235.3 437.7,232.5 438.6,231.9 439.4,231.6 440.2,231.7 441.4,232.5 441.4,230.8
			442,230.8 442,231.7 442.2,232.4 442.7,232.9 444.2,233.2 444.5,233.7 444.6,234.3 444.9,235 445.9,235.6 449,236.5 450,236.9
			450.6,236.9 451.4,236.1 453.6,234.5 454.3,233.5 452.9,233.3 452,233.5 450,234.7 451.9,228.9 453.6,226.9 455.9,227.5
			457.1,227 458.1,226.1 458.5,225 458.1,223.6 460.4,221.7 461.9,220.7 467.8,218.4 468.7,218.4 469.2,218.1 470.5,218.8
			472.5,220.3 475,220.9 475.9,221.4 475.7,222.6 476.1,223.6 475.1,224.1 473.7,224.6 473,225.6 472.5,226.7 471.7,227.3
			471.6,227.5 477.8,227.1 479.9,227.2 482.6,228.1 483.9,227.4 485.2,227.1 487.7,227 491,226.2 492.5,226.3 493.9,227.5
			495,226.1 497.8,224.2 498.7,222.6 499.2,222.6 499.3,222.9 499.7,223.6 499.9,222.7 500.4,222.1 501.2,222 502.2,222
			503.1,221.7 504.3,220.7 505.1,220.3 506.2,220.4 507.7,220.8 509.3,220.9 511,220.3 511.8,221.4 512.9,221.9 515.7,222
			515.4,223.1 515.8,224.1 516.7,224.5 517.9,223.6 518.3,223.9 519.5,224.2 519.2,223.8 518.6,222.4 518.4,222 520.7,222.9
			521.9,223.1 522.7,222.6 522.5,221.3 521.4,220.5 520,220.2 519,220.3 518.7,218.4 518,216.9 516.7,216 514.7,215.8 516.3,213.7
			516.6,213.6 517.6,213.7 517.9,213.7 518,213.3 517.8,212.3 517.9,212 520.5,207 521.5,204.7 521.9,204.1 522.5,203.4
			522.8,202.7 521.9,200.7 521.9,200.1 521.7,199.7 520.5,199.8 520,200 519.6,200.4 519.4,201 519,201.4 514.9,203.4 514.1,203.9
			513.4,205.1 512,206.4 509.3,208.1 508.2,208.5 507.5,208.9 507.2,209.5 506.9,210.2 506.3,210.5 505.6,210.7 504.8,211.2
			504.3,211.9 503.5,213.8 502.9,214.7 502.6,214.9 501.7,215.1 501.4,215.3 501.2,215.6 500.9,216.7 500.8,217 500.1,217.3
			499.2,217.4 498.5,217.8 498.1,218.9 497.8,219.7 497,220.3 496,220.7 495.2,220.9 494.1,221.2 492.4,223.3 491.2,224.2
			490.4,223.1 489,222.9 487.6,223.3 486.4,224.2 485.8,223.6 486.6,222.4 486.9,220.9 486.6,219.5 485.8,218.6 486.2,218.3
			487.5,217.8 488,217.6 488.9,216 489.3,215.6 490.2,214.8 492.2,213.6 493,212.9 493.6,211.7 493.8,210.4 493.8,209.1
			493.9,208.1 494.3,207 494.6,206.4 495.1,205.9 502.6,200.9 504.3,200.3 506,199.4 508,197.3 509.3,194.9 509.3,193.1
			510.7,192.2 513.9,187.7 514.9,185.8 515.5,185.4 515.4,185.2 515.9,184.5 517.1,183.5 517.6,182.9 518.3,181.6 519,181
			519.6,180.7 521,180.7 521.6,180.4 526.4,176 526.4,176 526.4,176 528,175.5 529.3,174.8 530.3,173.8 531.1,172.2 528.5,172.9
			527.4,173.5 526.4,174.4 526.4,174.4 526.4,174.4 526.4,174.4 525.1,174.4 519.5,176.8 518.9,177.5 516.2,179.8 515.2,181
			514.9,180.8 513.9,180.8 513.1,180.4 513.7,180 514.1,179.6 513.9,179.1 513.1,178.8 512,179.1 510.3,180.6 509.3,181 508.7,180
			508.5,178.2 508.1,177 505.8,178.3 503.9,179.1 503.4,179.6 503.2,180.3 502.5,180.6 501.1,180.4 500.8,180.3 500.5,180.1
			500.2,179.9 499.7,179.9 499.7,180.1 499.6,180.8 499.4,181.3 498.9,181.6 498.4,181.5 497.9,181.5 497.6,182 497.6,183.2
			497.2,182.4 496.7,181.9 496.1,182 495.5,182.7 494.7,182.2 493.9,181.8 493.2,181.4 492.8,180.4 492.4,181.5 491.7,184.3
			491.3,183.4 490.7,182.5 490.1,182.1 489,182.1 490.2,183.5 489.1,184 486.4,183.7 485.2,184.4 484.9,185.5 484.7,186.8
			484.2,188.1 483,187.4 482.1,188.1 481.4,189.5 481,190.9 480.3,190.5 479.5,190.4 478.6,190.7 477.8,191.5 478.6,192
			479.3,192.9 479.8,194.1 479.9,195.2 479.4,195.1 479.1,195.1 478.7,195.2 478.1,195.2 477.5,195 477,193.9 476.4,193.6
			475.5,194.1 474.8,195 474.2,195.2 473,194.2 471.7,195.3 469.5,195 467.2,194.4 465.8,194.5 465.3,194.8 464,195 463.4,195.2
			463.1,195.6 462.5,196.8 462.3,197 461.5,197.1 459.1,197 456.8,197.5 452.7,199 449.1,199.4 446.9,200.1 445.8,200.3 445.4,200
			444.8,199.4 444,199.5 443.6,200.9 443.2,200.8 442.3,200.5 442,200.3 442.2,201.4 442.9,202.7 443.1,203.7 442.2,204.1
			441.4,204.9 440.5,206.2 439.6,206.9 438.8,205.9 438.3,205.9 438.3,206.7 438.2,207.3 437.8,207.7 437.2,208.1 437.1,207.5
			436.8,206.8 436.7,206.4 434.3,209.7 434,210.6 434.2,212.6 434,213.2 		"/>
		<polygon fill="#68BFE5" points="522.8,370.8 523.8,370.1 524.1,369.7 524.1,369.2 523.9,368.8 523.9,368.6 522.5,368.2 517.4,369
			515.1,370.1 514.3,370.7 513.6,371.8 515.6,372.9 516.3,373.5 516.7,373.7 517.1,373.6 517.3,373.7 517.4,374.9 517.5,375.2
			517.7,375.5 517.9,375.8 519.2,376.4 520.2,375.7 520.7,374.3 520.5,373 520.1,373.4 519.7,373.4 519.4,373.1 519,372.4
			519.9,372.2 		"/>
		<polygon fill="#68BFE5" points="507.6,419.7 507.2,419.5 506.9,420.2 506.9,420.4 506.8,420.4 506.2,420.7 506.3,421.4
			506.7,421.7 507.7,421.9 508.7,421.8 511,421.3 510.7,419.9 510.4,418.3 510,416.8 509.1,416.2 507.5,416.6 507.6,417.6
			508.4,418.9 508.8,420.1 508.5,419.9 		"/>
		<polygon fill="#68BFE5" points="518.7,214.8 517.4,215.3 520,215.3 521.4,215.1 522.3,214.4 522.8,213.1 522.7,211.4 522.1,212.3
			521.3,212.8 520.5,213 519.7,213.1 519.4,213.4 519.5,214.5 519.2,214.7 		"/>
		<polygon fill="#68BFE5" points="476.6,189.8 477.9,189.7 478.9,189.2 477.8,188.9 476.7,188.7 474.1,188.7 474.1,189.2
			475.3,189.7 		"/>
		<polygon fill="#002868" points="391,270.4 389.2,269.1 387,268.1 385.3,267.5 385.3,267.8 391.2,270.7 		"/>
		<polygon fill="#002868" points="347.1,277.4 344.8,278.7 344.2,279.2 343.9,280.2 343.9,281.1 344.2,282.1 344.7,283.1
			344.2,283.6 343.8,282.8 343.2,281.2 343,279.8 343.4,279.2 343.7,279.1 343.4,278.9 342.8,278.7 342.4,278.6 341.7,278.8
			341.6,279.2 341.5,279.5 341.2,279.7 341,280 337.8,281.9 334.6,284.7 334.1,284.7 333.4,283.8 332.7,284.1 332,285.2
			331.5,286.4 331.8,287.3 331.5,288.2 330.7,288.5 329.8,287.5 329,288.2 329,289.1 329.1,289.9 328.8,290.9 328.1,291.3
			326.4,291.7 326,292.2 325.3,293.7 323.9,294.4 322.8,295.2 323.4,297 324,297.6 324.7,297.9 325.3,298.2 325.6,299 325.6,299
			390.3,299 		"/>
		<polygon fill="#002868" points="416.4,212.3 415.9,212 415.1,212.1 412.1,213.1 412.2,213.3 417.1,213.3 		"/>
		<polygon fill="#002868" points="418.4,209 417.7,209.2 417,209 416.3,208.6 414.2,209.8 414.4,210.1 414.7,210.2 415.2,210.3
			416.7,210.4 417.8,210.1 418.5,209.5 419,208.7 419,208.6 		"/>
		<polygon fill="#FFFFFF" points="417,299 417.4,298.2 370.3,274.6 368.8,275.3 367.1,275.8 364.8,276.1 362.5,275.8 360.8,274.7
			359.7,275.6 358.8,276.6 357.7,277.4 356.5,277 357,276.3 357.3,275.6 357.5,274.8 357.6,273.9 357.5,272.9 357.2,272.7
			356.9,272.9 356,273.3 355.8,273.7 355.5,274 353.9,274.4 353.3,274.6 352.8,275 352.2,275.3 351.8,275.7 351.5,276.7
			351.3,277.6 350.9,278.1 347.9,277.1 347.4,277.3 347.1,277.4 390.3,299 		"/>
		<polygon fill="#FFFFFF" points="392.8,275.3 392.9,274.3 392,272.7 391.8,271.7 391.2,270.7 385.3,267.8 384.6,269.9 382.5,271.2
			392.4,276.1 		"/>
		<polygon fill="#FFFFFF" points="304.3,265.5 304.4,265.1 304.7,264.8 305.2,264.7 304.1,263 303.3,263.5 303.3,266.9 		"/>
		<polygon fill="#FFFFFF" points="306.2,256.4 308.4,256.9 308.4,256.2 306.2,256.2 		"/>
		<polygon fill="#FFFFFF" points="419,214.5 418.8,214.4 418,214.2 417.3,213.7 417.1,213.3 412.2,213.3 412.8,214.7 413.6,215.6
			414.7,215.7 416.4,214.7 416.1,216 415.2,218 414.8,219.2 413.9,218.7 413.6,219.2 413.3,220.2 412.6,220.9 412.6,219.2
			410,221.3 409.7,221.9 419,221.9 		"/>
		<polygon fill="#FFFFFF" points="314,249.2 313.7,249.7 313.2,249.7 312.9,249.3 312,247.8 311.9,247.6 311.6,247.6 311.3,247.8
			309.5,249.1 309,249.7 308.7,250.5 308.6,251.4 308.3,252.2 307.6,252.5 307,252.9 306.9,253.9 307,255 307.4,255.8 306.2,255.8
			306.2,256.2 308.4,256.2 308.4,255.9 308.7,255.2 309.3,254.6 310,254.2 310.2,254.6 310.5,254.8 310.7,255 311.1,255.2
			311.3,253.9 313.7,252.3 314.3,250.8 314.9,250.1 315.3,249 315.3,247.9 315.2,247.6 314.6,247.6 		"/>
		<polygon fill="#FFFFFF" points="334.5,221.9 336.7,221.9 337.8,221.1 338.3,220.3 338.8,218.9 338.6,217.7 337.7,217.1 336.2,217
			337.2,218.8 336.1,220.6 		"/>
		<polygon fill="#CE1126" points="409.7,221.9 409.2,222.7 409.4,224.2 408.9,224.2 408.2,223.7 407.9,224.2 408,225.1 408.9,225.9
			408.7,226.2 408.7,226.3 408.3,226.4 410.4,228.1 412.7,227.7 417.5,225.3 417.8,226.4 418.4,226.9 419,227.1 419,221.9 		"/>
		<polygon fill="#CE1126" points="396.5,226.4 394.4,226.4 393.5,226.3 392.8,225.9 392.3,225.9 392.6,228.8 393.1,229.8
			394.5,229.2 396.5,229.3 396.7,229 396.2,228.1 		"/>
		<polygon fill="#CE1126" points="322,234.5 321.6,235.3 322.6,236.9 323.1,237.6 323.3,238 323.9,237.6 324.4,237.1 324.7,236.4
			325,235.8 324,235.3 324.7,234.4 327.1,232.5 325.9,232 324.3,231.9 323.4,232.3 323.9,233.5 		"/>
		<polygon fill="#CE1126" points="311.9,247.6 311.9,247.5 311.6,247.6 		"/>
		<polygon fill="#CE1126" points="314.6,247.6 315.2,247.6 314.8,247 		"/>
		<polygon fill="#CE1126" points="332.5,223.6 329.6,226.7 328.1,227.4 327.2,226.4 326.6,226.4 326.5,227.3 326.1,229.2 326,229.8
			326.6,230.2 327.2,230.1 327.8,229.6 328.2,229.2 328.5,229.4 329.3,229.8 329.9,228.3 331,227.2 335.9,223.2 336.2,222.8
			336.5,222.1 336.7,221.9 334.5,221.9 		"/>
		<polygon fill="#CE1126" points="300.3,266.2 300.4,267.5 301.3,268.3 302.2,268 303.2,267.1 303.3,266.9 303.3,263.5 302.9,263.8
			301.9,263.9 299.8,263 299.8,263.7 300.7,264.2 300.6,265.1 		"/>
		<polygon fill="#D21034" points="417.5,297.9 417.5,295.9 416.6,294.4 415.2,293.3 413.5,292.7 413.5,292.7 413.4,292.7
			411.8,292.5 411.3,291.9 409.2,289 407.8,288.1 407.8,288.1 407.7,288 406.7,287.8 405.8,287.8 405.3,287.7 405.3,287.8
			405.3,287.8 401.9,285.5 401.7,285.3 401.5,285 400.1,283.8 399.8,283.6 399.7,283 399.9,282.1 399.8,281.4 398.9,279.9
			397.6,278.9 396,278.3 394.2,278.1 392.8,278.7 390.7,281.2 389.6,281.4 390.3,280.9 390.6,280.3 390.4,279.6 389.6,279.2
			390.3,278.2 392.3,276.2 392.4,276.1 382.5,271.2 382.3,271.3 379.3,271.8 376.8,271.4 375.7,272 373.8,272.1 372.8,272.8
			372,273.6 371.1,274.3 370.3,274.6 417.4,298.2 		"/>
		<path fill="#D21034" d="M521.1,235.8l-1.8,1.4l-0.9,1l-0.4,1.2l0.3,1.1l1.4,1.3l0.3,1l0.2-0.2c0,0,0,0.1,0,0.1
			c0.1-0.3,0.2-0.5,0.2-0.5c1.3-2.9,2.4-3.4,2.5-3.5c0-0.2,0-0.5,0-0.5l0-0.2c0,0,0.2,0,0.2,0c0.1-0.3,0.2-1.1,0.2-2
			c0-0.8-0.1-1.7-0.6-2.3l0.3-0.4c0.1,0.1,2.7,1.2,3.2,3.4c0.7-0.8,2.3-2.4,4.8-2.7l0.2,0l0.1,0.2c0,0,0.1,0.2,0.2,0.6l2.6-1.7h-11
			L521.1,235.8z"/>
		<path fill="#FFD100" d="M523.5,238.2C523.5,238.2,523.5,238.2,523.5,238.2C523.5,238.2,523.5,238.2,523.5,238.2
			C523.5,238.1,523.5,238.2,523.5,238.2z"/>
		<path fill="#FFD100" d="M522.5,241.1c0.4-0.5,1.1-1,1.5-1.3c-0.5-0.1-1-0.2-1.5-0.2l-0.1,0c-0.1,0.1-0.2,0.2-0.4,0.4
			c-0.4,0.5-0.8,1.2-1.3,2.3c0,0-0.1,0.4-0.3,0.9l0.5,0.1h0.8c0,0,0-0.1,0-0.2C521.6,242.7,522,241.7,522.5,241.1z"/>
		<path fill="#FFD100" d="M526.8,236.7c-0.4,0.4-0.6,0.7-0.6,0.7l-0.4,0.6l0-0.7c0-0.7-0.4-1.4-0.8-1.9c-0.1-0.1-0.1-0.1-0.2-0.2
			c0,0,0,0-0.1-0.1c-0.4-0.4-0.9-0.7-1.3-1c0.2,0.6,0.3,1.2,0.3,1.8h0c0,1.1-0.2,2.1-0.2,2.2c0.6,0,2,0.1,3.6,0.6l0.6-1.2l2.5-2.1
			l0.8-0.5c-0.1-0.2-0.1-0.3-0.1-0.4C529,234.9,527.6,235.9,526.8,236.7z"/>
		<path fill="#FFD100" d="M522.6,241.2c-0.6,0.8-0.9,1.6-0.9,1.9c0,0,0,0,0,0.1c0,0,0.1,0,0.2,0c0,0,0,0,0,0
			c0.3-0.1,0.6-0.2,0.9-0.1l0.7-0.4c-0.1-0.1-0.1-0.3-0.1-0.4c0-0.4,0.3-0.7,0.3-0.7l0.1,0.2c0,0-0.3,0.2-0.3,0.5
			c0,0.1,0,0.2,0.1,0.3l0.1,0c-0.1-0.4,0.2-0.9,0.2-0.9l0.2,0.1c0,0-0.2,0.3-0.2,0.7l0,0c0-0.1,0.1-0.2,0.2-0.2c0,0,0.1,0,0.1,0
			l0.1-0.1c-0.2-0.7-1-0.7-1-0.7c-0.1-0.1,0-0.2,0-0.2s0.6-0.2,1,0.5c0,0.1,0.1,0.2,0.1,0.3l0.2-0.1c-0.1-0.6-0.6-0.9-0.6-0.9
			c0.3-0.3,0.7,0.1,0.8,0.8l0.8-0.7l0.4-0.6c-0.6-0.2-1.3-0.4-2-0.6C524,240.1,523.1,240.6,522.6,241.2z"/>
		<path d="M531.2,234l-0.2,0c-2.5,0.3-4.2,1.9-4.8,2.7c-0.5-2.1-3-3.3-3.2-3.4l-0.3,0.4c0.4,0.5,0.6,1.4,0.6,2.3
			c0,0.9-0.1,1.7-0.2,2c0,0-0.2,0-0.2,0l0,0.2c0,0,0,0.3,0,0.5c-0.1,0-1.2,0.6-2.5,3.5c0,0-0.1,0.3-0.2,0.5c0,0,0-0.1,0-0.1
			l-0.2,0.2l0.1,0.2l0.2,0c0.2-0.4,0.3-0.7,0.3-0.7c0.7-1.7,1.4-2.6,1.9-3l0.9-1.2l0,0c0.1-0.6,0.5-3.2-0.4-4.4l0.1-0.2
			c0.1,0.1,2.8,1.3,3.1,3.6c0.5-0.6,2.2-2.6,4.9-2.9l0.1,0l0,0.1c0,0,0.1,0.2,0.1,0.4l0.2-0.1c-0.1-0.3-0.2-0.5-0.2-0.6L531.2,234z"
			/>
		<path d="M524.7,235.2C524.7,235.2,524.7,235.2,524.7,235.2C524.7,235.2,524.7,235.2,524.7,235.2z"/>
		<path d="M523.5,238.1C523.5,238.2,523.5,238.2,523.5,238.1C523.5,238.2,523.5,238.2,523.5,238.1c0.1,0,0.3-1,0.3-2.1h0
			c0-0.6-0.1-1.3-0.3-1.8c-0.1-0.1-0.2-0.1-0.3-0.2c0.4,0.6,0.5,1.4,0.5,2.2C523.6,237.1,523.5,237.9,523.5,238.1
			C523.4,238.2,523.4,238.2,523.5,238.1C523.5,238.2,523.5,238.1,523.5,238.1z"/>
		<path d="M525.8,238l0.4-0.6c0,0,0.2-0.3,0.6-0.7c-0.5,0.5-0.7,0.8-0.7,0.8l-0.2,0.2l0-0.3c0-0.8-0.5-1.5-1-2.1
			c0.4,0.5,0.8,1.1,0.8,1.9L525.8,238z"/>
		<path d="M522,240c-0.4,0.5-0.9,1.2-1.4,2.4c0,0-0.1,0.3-0.2,0.7l0,0c0.3-0.5,0.3-0.9,0.3-0.9C521.2,241.2,521.7,240.5,522,240z"/>
		<path d="M530.8,234.6c0,0.1,0.1,0.2,0.1,0.4l0.1,0C531,234.8,530.9,234.7,530.8,234.6C530.9,234.6,530.9,234.6,530.8,234.6z"/>
		<path d="M522,240c0.1-0.2,0.2-0.3,0.4-0.4l-0.2,0l0.1-0.2c-0.5,0.4-1.1,1.3-1.9,3c0,0-0.1,0.3-0.3,0.7l0.2,0.1
			c0.2-0.4,0.2-0.7,0.2-0.7C521.1,241.3,521.6,240.5,522,240z"/>
		<path fill="#FFD100" d="M522.8,239.3c1.4,0.2,2.6,0.5,3.6,0.9l0.5-1.1c-1.7-0.6-3.2-0.6-3.6-0.6
			C523.3,238.6,523,239.1,522.8,239.3z"/>
		<path d="M523.5,238.2C523.5,238.2,523.5,238.2,523.5,238.2c-0.1,0-0.1,0-0.1,0c0,0.1,0,0.2,0,0.2l-0.2,0c0,0,0-0.1,0-0.1l0,0
			l-0.9,1.2l-0.1,0.2l0.2,0l0.1,0c0.5,0.1,1,0.1,1.5,0.2c0.1-0.1,0.2-0.1,0.3-0.2l0.1,0.2c0,0,0,0-0.1,0c0.7,0.2,1.4,0.4,2,0.6
			l0.2-0.3v0l0,0l0,0c-1-0.4-2.2-0.7-3.6-0.9c0.2-0.3,0.5-0.7,0.6-0.8c0.4,0,1.9,0,3.6,0.6l0.2-0.3
			C525.5,238.3,524.1,238.2,523.5,238.2C523.5,238.2,523.5,238.2,523.5,238.2z"/>
		<path d="M521.8,243.2C521.8,243.2,521.8,243.2,521.8,243.2c0-0.3,0.3-1.2,0.9-2c0.4-0.6,1.3-1.2,1.6-1.3c0,0,0.1,0,0.1,0l-0.1-0.2
			c0,0-0.1,0.1-0.3,0.2c-0.4,0.2-1.1,0.7-1.5,1.3c-0.5,0.6-0.9,1.6-0.9,2c0,0.1,0,0.1,0,0.2h0.1c0.1,0,0.1-0.1,0.2-0.1
			C521.9,243.2,521.8,243.2,521.8,243.2z"/>
		<path d="M522,243.1C522,243.2,522,243.2,522,243.1c-0.1,0.1-0.2,0.1-0.3,0.2h0.1l1-0.2l0,0C522.6,243,522.3,243,522,243.1z"/>
		<path d="M524.2,241.1c0,0,0.5,0.3,0.6,0.9l0.2-0.1l0,0C524.9,241.2,524.5,240.7,524.2,241.1z"/>
		<path d="M524.1,242.5l0.3-0.2c0,0-0.1,0-0.1,0C524.1,242.2,524.1,242.3,524.1,242.5z"/>
		<path d="M523.6,241.3c0,0-0.1,0.1,0,0.2c0,0,0.8,0,1,0.7l0.2-0.1c0-0.1-0.1-0.2-0.1-0.3C524.2,241.1,523.6,241.3,523.6,241.3z"/>
		<path d="M523.9,241.7l-0.1-0.2c0,0-0.3,0.3-0.3,0.7c0,0.1,0,0.3,0.1,0.4l0.2-0.1c-0.1-0.1-0.1-0.2-0.1-0.3
			C523.7,241.9,523.9,241.7,523.9,241.7z"/>
		<path d="M524.2,241.8l-0.2-0.1c0,0-0.3,0.5-0.2,0.9l0,0l0.2-0.1C524,242.2,524.2,241.8,524.2,241.8z"/>
		<path d="M531.1,234.4L531.1,234.4c-2.8,0.3-4.5,2.3-5,2.9c-0.3-2.2-3-3.5-3.1-3.6l-0.1,0.2c0.9,1.1,0.5,3.7,0.4,4.4
			c0,0.1,0,0.1,0,0.1l0.2,0c0,0,0-0.1,0-0.2c0.1-0.3,0.2-1.1,0.2-2c0-0.8-0.2-1.6-0.5-2.2c0.1,0,0.2,0.1,0.3,0.2
			c0.4,0.2,0.8,0.5,1.3,1c0,0,0,0,0.1,0.1c0.1,0.1,0.1,0.1,0.2,0.2c0.5,0.6,0.9,1.3,1,2.1l0,0.3l0.2-0.2c0,0,0.3-0.4,0.7-0.8
			c0.8-0.8,2.2-1.8,4-2.1c0,0,0.1,0,0.1,0c0,0,0.1,0.2,0.1,0.4l0.2-0.1C531.1,234.6,531.1,234.5,531.1,234.4L531.1,234.4z"/>
		<polygon points="523.9,231.7 523,233.1 534,233.1 534.9,232.5 535.6,232.2 536.1,232.3 536.4,232.1 536.4,231.3 524.1,231.3 		"/>
	</g>

		<path fill="none" stroke="#878787" stroke-width="0.25" stroke-linecap="round" stroke-linejoin="round" stroke-miterlimit="10" d="
		M343.6,366.6l-0.1-1.1l-0.4-0.9l-0.3-0.1l-0.3-0.1l-0.2-0.1l-0.3-0.3l-1.1,1.5l-0.1,0.7l0.2,1.2l0.4,1.4l0.7,1.6l1,1.3l1.1,0.7
		l-0.5-3.9L343.6,366.6z M529.5,198.6l-0.4,0.8l-2,1.5l-0.7,1.1l0,0l0,0v0l-0.9,2.2l-0.2,0.9l0,0.7l0.2,0.3l0.4,0l0.5-0.1v0l0,0
		l3.7-1.4l1.3-1l1-1.1l-0.5-0.5l-0.7-0.3l0-0.8l0.3-0.8l0.4-0.3l0.7-0.1l0.4-0.1l0.3-0.2l0.5-0.1v-0.6l-0.5-0.4l-0.1-0.3l0.3-0.2
		l0.7-0.1v-0.5l-1.1,0.1l-3,0.9L529.5,198.6z M302.9,263.8l-1,0l-2-0.8v0.6l0.9,0.5l-0.1,0.9l-0.4,1.1l0.1,1.4l0.8,0.8l1-0.3l1-0.9
		l1.1-1.6l0.1-0.4l0.2-0.3l0.6-0.1l-1.1-1.7L302.9,263.8z M379,357.3l1.4,0.9l1.2-0.3l0.8-1.2l0.3-1.7l-0.5-1.5l-0.9-0.8l-0.9,0.2
		l-0.4,1.5l-0.1,0.5v0.4l-0.1,0.4l-0.3,0.4l0.4,0.5l0.1,0.3l-0.3,0.2L379,357.3z M408.3,403.3l-0.8-0.4l-2.8-0.5l-0.6,0.1l-0.6-1.3
		l-2.6-0.1l-0.6-1.1l-0.8,0.4l-0.7,0l-0.7-0.2l-0.8-0.1l-0.6,0.1l-0.4,0.4l-0.3,0.4l-0.3,0.2l-1.2,0.1l-0.5,0.4l-0.6,2.3l-2.2-0.8
		l-3.1,0.1l-2.7,1.1l-1.1,1.8v1.5l-0.4,1.5l-0.7,0.7l-1.1-0.8l-0.8,0.6l-0.2,0.8l-0.1,0.8l-0.5,0.6l-0.7,0.1l-4.4-1.1l-0.9,0
		l-0.8,0.4l-0.6,0.8l-0.3,1.8l-0.8,0.7l-1.6-0.6l-1.4,0.5l-2.4,2.3l0.9,0.7l0.9,0.5l0.8,0.2l0.6-0.3h0.5l0.4,1.2l0.9-0.1l1.7-1.1
		l1,0.2l2,0.8l1.2,0.2l1.1-0.2l0.6-0.5l0.4-0.7l0.7-0.8h1.1l0.4-0.2l1.1-0.9l-0.2,2.1l0.1,0.7l0.7,0.5l0.7,0l0.7-0.3l0.5-0.6
		l0.2-0.6l0.1-2.1l-0.3-0.7l-1.1-0.2l-0.6-0.4l-0.2-0.9l0.3-0.9l0.8-0.6l0.4,1.2l0.1-0.4v-1.8l0.4-0.8l0.9-0.2l1.2,0l1.2-0.3
		l3.3-2.7l2-0.8l2.1,0.8l-0.3,0.2l-0.4,0.5l-0.3,0.4l0.5,0.3l0.4,0.1l0.5-0.1l0.7-0.3l-0.1,0.6l-0.2,1.1l-0.2,0.5l1.3-0.3l1.9,0
		l1.8,0.1l0.9,0.3l0.7-0.4l0.3-0.5v-0.6l-0.4-0.7l1.6,0.3l0.8,0.2l0.6,0.5l1.1-0.8l1.7-0.8l0.1-1.3l-0.4-1.5L408.3,403.3z
		 M314.3,250.8l0.6-0.7l0.4-1v-1.1l-0.5-0.9l-0.7,2.2l-0.3,0.5h-0.5l-0.3-0.4l-0.9-1.5l0-0.3l-0.6,0.3l-1.7,1.4l-0.6,0.6l-0.2,0.8
		l-0.1,0.9l-0.3,0.8l-0.7,0.3l-0.6,0.4l-0.1,1l0.1,1.1l0.3,0.8h-1.1v0.6l2.2,0.5v-1l0.3-0.7l0.6-0.6l0.8-0.5l0.2,0.5l0.2,0.2
		l0.2,0.1l0.3,0.3l0.3-1.3l2.4-1.6L314.3,250.8z M414.7,210.2l0.6,0.1l1.4,0.1l1.1-0.3l0.7-0.6l0.5-0.9l-0.7,0.4l-0.7,0.1L417,209
		l-0.7-0.4l-2.2,1.2l0.3,0.3L414.7,210.2z M411.6,396l0.4-1.3l-1.2-0.2l-1.6,0.4l-0.8,0.9l-0.1,0.6l-0.8,1.2l-0.1,1l2.1,1.5l0.7,0.1
		l0.4-0.9l0.5-0.8l1,0.4l0.3-0.8l0.1-0.7l-0.2-0.6L411.6,396z M393.1,229.8l1.3-0.6l2,0.1l0.2-0.3l-0.5-0.9l0.3-1.7h-2.2l-0.9-0.1
		l-0.7-0.4h-0.5l0.2,2.9L393.1,229.8z M327.2,230.1l0.6-0.5l0.4-0.4l0.3,0.2l0.8,0.4l0.6-1.4l1.1-1.2l4.9-3.9l0.3-0.4l0.3-0.7
		l1.3-0.9l0.6-0.8l0.5-1.4l-0.2-1.1l-0.9-0.7l-1.5-0.1l0.9,1.8l-1.1,1.8l-3.6,3l-2.9,3.1l-1.5,0.7l-0.9-0.9h-0.6l0,0.8l-0.5,2l0,0.5
		l0.6,0.4L327.2,230.1z M323.1,237.6l0.2,0.5l0.6-0.5l0.5-0.5l0.4-0.6l0.2-0.6l-1-0.6l0.7-0.9l2.4-1.9l-1.2-0.4l-1.6-0.1l-0.9,0.4
		l0.6,1.2l-1.9,1l-0.4,0.8l0.9,1.6L323.1,237.6z M476.6,189.8l1.3-0.1l1-0.5l-1-0.3l-1.1-0.2h-2.7v0.5l1.2,0.5L476.6,189.8z
		 M518.7,214.8l-1.3,0.4h2.6l1.4-0.1l0.9-0.8l0.4-1.3l-0.1-1.7l-0.5,0.9l-0.8,0.5l-0.9,0.2l-0.8,0.1l-0.3,0.3l0.1,1.1l-0.3,0.2
		L518.7,214.8z M515.4,223.1l0.4,1l0.9,0.4l1.1-0.9l0.4,0.2l1.2,0.4l-0.3-0.5l-0.6-1.3l-0.3-0.5l2.4,0.9l1.2,0.2l0.8-0.6l-0.1-1.3
		l-1.1-0.8l-1.4-0.3l-1,0.1l-0.2-1.8l-0.7-1.5l-1.3-0.9l-2-0.1l1.6-2.2l0.3,0l1,0.1l0.3-0.1l0.1-0.3l-0.1-1l0-0.4l2.6-5l0.9-2.3
		l0.4-0.6l0.6-0.6l0.3-0.8l-0.8-1.9v-0.7l-0.2-0.3l-1.2,0.1L520,200l-0.3,0.4l-0.3,0.5l-0.4,0.5l-4.1,1.9l-0.8,0.5l-0.7,1.2
		l-1.5,1.3l-2.6,1.7l-1.2,0.4l-0.7,0.4l-0.3,0.6l-0.2,0.7l-0.6,0.3l-0.8,0.2l-0.7,0.4l-0.5,0.7l-0.8,2l-0.6,0.9l-0.3,0.2l-0.9,0.2
		l-0.3,0.1l-0.1,0.3l-0.3,1l-0.1,0.3l-0.7,0.3l-0.9,0.1l-0.8,0.4l-0.3,1.1l-0.3,0.8l-0.8,0.6l-1,0.4l-0.8,0.1l-1.1,0.4l-1.7,2.1
		l-1.1,0.9l-0.8-1.1l-1.3-0.2l-1.4,0.4l-1.2,0.9l-0.6-0.6l0.8-1.2l0.3-1.5l-0.3-1.4l-0.8-0.9l0.4-0.3l1.2-0.5l0.5-0.3l0.9-1.5
		l0.4-0.5l0.8-0.7l2-1.3l0.8-0.7l0.6-1.2l0.1-1.3v-1.3l0.1-1l0.4-1.1l0.3-0.6l0.5-0.4l7.5-5.1l1.7-0.6l1.7-0.9l1.9-2.1l1.4-2.4v-1.8
		l1.4-0.9l3.1-4.5l1-1.9l0.6-0.4l0-0.3l0.5-0.7l1.1-1l0.5-0.6l0.7-1.3l0.7-0.6l0.6-0.3l1.4,0l0.7-0.2l4.8-4.4v0l0,0l1.6-0.5l1.3-0.6
		l1-1l0.8-1.7l-2.6,0.8l-1.1,0.6l-1,0.9l0,0l0,0v0h-1.3l-5.6,2.5l-0.6,0.7l-2.8,2.2l-0.9,1.2l-0.4-0.2h-0.9l-0.8-0.3l0.6-0.4
		l0.4-0.5l-0.1-0.5l-0.8-0.3l-1.1,0.3l-1.7,1.5l-0.9,0.4l-0.6-0.9l-0.2-1.8l-0.5-1.2l-2.3,1.3l-1.9,0.8l-0.4,0.5l-0.2,0.7l-0.7,0.2
		l-1.5-0.1l-0.3-0.1l-0.3-0.2l-0.3-0.2l-0.5,0v0.2l0,0.6l-0.2,0.6l-0.5,0.2l-0.5-0.1h-0.5l-0.3,0.5v1.2l-0.4-0.8l-0.5-0.4l-0.6,0
		l-0.7,0.7l-0.7-0.5l-0.9-0.3l-0.7-0.4l-0.4-1l-0.4,1.1l-0.7,2.8l-0.4-1l-0.5-0.8l-0.7-0.5h-1l1.2,1.4l-1.1,0.5l-2.7-0.2l-1.2,0.7
		l-0.3,1l-0.1,1.3l-0.5,1.4l-1.2-0.8l-0.9,0.7l-0.7,1.4l-0.4,1.4l-0.7-0.4l-0.8-0.1l-0.8,0.3l-0.8,0.8l0.8,0.5l0.7,0.9l0.5,1.1
		l0.1,1.2l-0.6-0.1h-0.3l-0.4,0.1l-0.6,0l-0.6-0.2l-0.5-1.1l-0.5-0.3l-1,0.5l-0.6,0.8l-0.7,0.3l-1.2-1l-1.2,1.1l-2.2-0.3l-2.3-0.6
		l-1.4,0.1l-0.5,0.3L464,195l-0.6,0.2l-0.2,0.4l-0.6,1.1l-0.2,0.3l-0.8,0.1l-2.4-0.1l-2.3,0.5l-4.1,1.5l-3.7,0.4l-2.1,0.7l-1.2,0.2
		l-0.3-0.3l-0.7-0.6l-0.8,0.1l-0.4,1.4l-0.3-0.1l-0.9-0.3l-0.3-0.2l0.2,1.1l0.6,1.2l0.2,1l-0.9,0.4l-0.8,0.7l-0.9,1.3l-0.9,0.8
		l-0.8-1h-0.5l0,0.8l-0.1,0.6l-0.4,0.4l-0.6,0.4l-0.1-0.6l-0.3-0.7l-0.1-0.4l-2.4,3.3l-0.3,0.8l0.3,2l-0.3,0.6l-1,0.5l-0.3-2.3
		l-0.7-0.8l-1.2,0.5l-4.3,3.7l-0.5,0.7l-0.2,0.5l-0.3,0.3l-1,0.2l-0.8-0.2l-2.4-1.5l-2.4-0.3l-0.8-0.2l-0.6-0.5l-0.9-1.3l-0.6-0.4
		l-0.8,0.1l-2.9,1l0.7,1.6l0.8,0.9l1.1,0.1l1.7-0.9l-0.2,1.3l-1,1.9l-0.4,1.2l-0.8-0.5l-0.3,0.5l-0.3,0.9l-0.7,0.7v-1.7l-2.6,2.1
		l-0.8,1.3l0.2,1.6h-0.5l-0.7-0.5l-0.3,0.5l0.1,0.9l0.9,0.7l-0.2,0.3v0.1l-0.4,0.2l2,1.7l2.3-0.4l4.8-2.4l0.3,1.1l0.7,0.5l1.7,0.6
		l-0.7,2.5l1,1.8l1.5,1.6l0.8,1.6l0.2,2.2l0.6,2.6l0.8,2.3l1,1l1.2,0.5l1,0.1l2.3-0.1l0.2-0.3l2.8-1.9l-1-0.8l0.2-0.5l0.7-0.4
		l0.6-0.6l0.7-3.1l0.3-0.7l3.2-2.8l0.9-0.6l0.8-0.3l0.8,0.1l1.2,0.7v-1.6h0.6v0.8l0.2,0.7l0.4,0.5l1.5,0.3l0.3,0.5l0.1,0.6l0.3,0.7
		l1,0.6l3.1,0.9l1,0.4h0.6l0.8-0.9l2.2-1.5l0.7-1l-1.4-0.3l-0.9,0.2l-2,1.2l1.9-5.8l1.7-2l2.4,0.7l1.1-0.6l1-0.8l0.4-1.1l-0.5-1.4
		l2.3-1.9l1.5-0.9l5.9-2.3l0.9,0l0.6-0.3l1.3,0.7l2,1.5l2.5,0.6l0.9,0.6l-0.2,1.1l0.4,1l-1,0.5l-1.4,0.5l-0.7,0.9l-0.5,1.1l-0.8,0.6
		l-0.1,0.2l6.2-0.4l2.2,0.1l2.7,0.9l1.2-0.7l1.3-0.3l2.5-0.1l3.3-0.7l1.6,0.1l1.3,1.2l1.1-1.5l2.8-1.8l0.8-1.7h0.6l0.1,0.3l0.4,0.8
		l0.2-0.9l0.5-0.5l0.7-0.1l1,0l0.9-0.2l1.3-1l0.7-0.4l1.1,0.1l1.5,0.3l1.7,0.1l1.7-0.6l0.8,1.1l1.1,0.5l2.8,0.1L515.4,223.1z
		 M510.4,418.3l-0.4-1.5l-0.8-0.6l-1.7,0.4l0.1,1l0.8,1.3l0.5,1.2l-0.4-0.2l-0.9-0.2l-0.4-0.1l-0.2,0.7l-0.1,0.1l-0.1,0.1l-0.6,0.3
		l0.1,0.7l0.3,0.3l1.1,0.2l0.9-0.1l2.3-0.6l-0.3-1.3L510.4,418.3z M540.3,224l-0.7-0.6l-1-0.6l0-0.8l-0.3-1.4l-0.7-2.3l-0.6-0.9
		l-1-0.3l-1.6,0.5l-1.4,0.9l-5.7,6.2l-0.8,1.3l0,0v0l-1.7,3.4l-0.4,1.3l-0.4,1.1l-2.8,4.1l-1.8,1.4l-0.9,1l-0.4,1.2l0.3,1.1l1.4,1.3
		l0.4,1.3l0.9,0.2h1l1-0.2l1-0.5l1.1-0.7l0.8-0.8l0.6-0.9v0l0,0l1.3-2.6l2.5-2.1l4.7-3.1l0.7-0.3l0.5,0.1l0.3-0.1l0.2-1.9l0.2-0.7
		l0.8-1.4l2.8-2.7l0.4-0.6L540.3,224z M523.9,368.6l-1.4-0.4l-5.2,0.8l-2.2,1.1l-0.8,0.6l-0.7,1.1l1.9,1.1l0.7,0.6l0.5,0.1l0.3,0
		l0.2,0.1l0.1,1.1l0.1,0.4l0.2,0.3l0.2,0.3l1.3,0.6l1-0.8l0.5-1.4l-0.2-1.3l-0.5,0.4l-0.4,0l-0.3-0.3l-0.4-0.7l0.9-0.2l2.8-1.4
		l1.1-0.8l0.2-0.4v-0.5l-0.1-0.4L523.9,368.6z M425.5,323.8l-0.1,0.4l-0.3,0.5l-0.4,0.5l-0.5,0.2l-0.8-0.1l-0.2-0.2v-0.4l-0.3-0.4
		l-0.9-1l-0.4-0.7l-0.7-0.4l-1.5-0.1l-1-1.2l-1.5-2.5l-0.2-2.1l0-0.3l2.3-0.6l0.1,0l-0.4-1.3l0,0l-0.1-0.4l0.8,0.3l0.3,0.2l0.5-0.9
		l0.1-0.1l-0.1-0.8l-0.5-0.7l-0.7-0.3l0.5-0.4l0-0.2l0,0l0.1-0.6l-0.5-0.3l-0.9,0.4l-0.8-0.7l0.1-0.8l0.3-0.9l0-0.9l-0.4-0.4l-1.5-1
		l-0.6-0.5l-0.2-0.7l0.1-0.7l0.3-0.7l0.1-0.8l0.5-1.5l1-1.3l0.8-1.6l0-2l-0.9-1.6l-1.4-1l-1.6-0.6l-0.1,0l0,0l-1.6-0.2l-0.6-0.6
		l-2.1-2.9l-1.4-0.9l0,0l-0.1-0.1l-1-0.2l-0.8,0l-0.6-0.1l0,0l0,0l-3.3-2.2l-0.3-0.3l-0.2-0.3l-1.4-1.2l-0.3-0.1l-0.1-0.6l0.2-0.9
		l-0.1-0.7l-0.8-1.5l-1.3-1l-1.6-0.6l-1.8-0.2l-1.4,0.6l-2.1,2.5l-1,0.2l0.7-0.5l0.3-0.6l-0.2-0.7l-0.8-0.5l0.7-0.9l1.9-2l0.5-0.9
		l0.1-1l-0.9-1.6l-0.2-1l-0.8-1.3l-1.8-1.3l-2.2-1l-1.7-0.6l-0.7,2.3l-2.3,1.4l-2.9,0.5l-2.5-0.4l-1.2,0.6l-1.9,0.1l-0.9,0.7
		l-0.8,0.8l-0.9,0.7l-2.3,1l-1.7,0.5l-2.3,0.3l-2.3-0.2l-1.6-1.1l-1.1,0.8l-0.9,1l-1.1,0.7l-1.2-0.3l0.5-0.7l0.3-0.7l0.2-0.8l0-0.8
		l-0.1-1l-0.2-0.2l-0.4,0.2l-0.8,0.4l-0.2,0.4l-0.3,0.4l-1.6,0.3l-0.6,0.3l-0.5,0.4l-0.6,0.3l-0.4,0.4l-0.3,0.9l-0.2,0.9l-0.4,0.4
		l-3-1l-0.5,0.2l-2.7,1.5l-0.6,0.4l-0.3,1v0.9l0.3,0.9l0.5,1l-0.5,0.5l-0.4-0.8l-0.6-1.5l-0.2-1.4l0.4-0.7l0.3-0.1l-0.3-0.1
		l-0.6-0.2l-0.5,0l-0.6,0.1l-0.2,0.4l-0.1,0.4l-0.2,0.2L341,280l-3.2,1.9l-3.2,2.8h-0.5l-0.7-0.9l-0.7,0.3l-0.7,1l-0.5,1.2l0.3,0.9
		l-0.3,0.9l-0.8,0.3l-0.9-1l-0.8,0.8v0.8l0.1,0.8l-0.3,0.9l-0.7,0.4l-1.8,0.4l-0.3,0.5l-0.7,1.5l-1.4,0.7l-1,0.8l0.5,1.8l0.7,0.6
		l0.7,0.3l0.6,0.3l0.2,0.7l0,0.8l0.4,1.6l0,0.9l0.2,0.7l0.2,0.5l-0.1,0.6l-0.8,0.7l-0.6,0.1l-2.7-0.8l-0.5-0.2l-0.3,0.1l-0.1,1.1
		v2.8l0.1,0.8l0.2,0.6l-0.1,0.7l-0.8,0.9l-0.6,0.3l-2,0.8l-3.5,0.3l-1.3,0.6l-0.5,1.6l0.2,0.8l0.4,0.6l0.3,0.6l0,1l-0.3,0.8l-1,1.4
		l-0.2,0.7l0.3,0.9l0.5,0.7l0.3,0.7l-0.3,0.8v0.4l1.4,0.8l0.4,0.4l0.1,1.1l0.3,0.6l0.4,0.4l0.2,0.4l0.1,0.9l0,1.6l0.4,0.9l0.5-0.6
		l1.7,2.6l2.4,1.1l5.5,1.4l0.4,0.3l0.4,0.5l0.5,0.5l0.8,0.4l0.8,0.1l3.9-0.2l0.9,0.1l2.4,1.1l1.9-0.3l4.2,2l2.2,0.6l2,0.2l6.4,1.8
		l3.6,1l0.3,0.4l0.3,0.6l1.5,1.3l0.4,0.2l0.5-0.3l0.4-0.3l0.6-0.4l0.6-0.2l0.2,0.4l0.4,1.4l0.9-0.3l1.2-0.7l1,0.1l0.9,0.5l1.1-0.2
		l0.9-0.6l0.5-0.5l0.6,0.4l0.5,0.1l1.1,0l2.6,0.4l5.8-2.1l1.7,1.7l0.5-0.6h0.6l1.5-0.3l1.3-1.2l2.3-2.7l0.7-0.4l1.6-0.6l0.7-0.4
		l0.2-0.3l0.1-0.2l0.3-0.9l0.1-0.3l0.3-0.5l0.5-0.5l0.4-0.3l0.6-0.2l1,0l0.9-0.3l0.6-0.6l0.5-0.6l0.6-0.3l0.4,0l0.9-0.4l0.6-0.1
		l0.4,0.2l0.4,0.4l0.2,0.4l-0.1,0.2l0.8-0.1l0.6-0.3l0.4-0.5l0.1-0.2l0.3-0.5l0,0l-0.2-0.2h-0.1l-0.2-0.4l1-0.1l0.7,0.2l0.7,0.4
		l1.3,1.2l0.1,0.3l-0.1,0.4l-0.1,1.2l0.8,0.1l1.7-0.5l1.2-0.9l0.2-0.1l-0.1-1.2l0.8-0.3l2.3-1.2l0.8,0.1l0.7,0.5l0.4,0l0.3,0.1
		l0.4,0.7l-0.8,1.2l0.3-0.1l0.6-0.1l2.2-0.9v1.7l1.9-1.9l4-2l0.7-0.5l0.9-0.9l0.8-1.1l0.3-1l0-0.2l-0.1-0.8l0-0.8l0.2-0.5l0.7-1.1
		l0.2-0.6h-0.1l0.1-0.4H425.5z M483.4,263.3l-0.8-0.6l-0.7,0l-0.7,0.2l-3.2,0.5l-0.6,0.8l0,1.1l-0.2,1.1l0.6,1.1l0.4,1.2l0.2,1.3
		v4.8l0.6,0.5l2.1-1.7l1.2-1.4l0.8-1.6l0.5-1.8l0.1-2.1l-0.3-2.8V263.3z M429.2,304l-1.1-2.6h-0.5l0.1,0.9l1,2.5l0.2,0.8l0.4,0.5
		l0.5,0.1l0.5-0.4l0.5,0.6l0.2-0.3l0.1-0.2l0.2-0.6L430,305L429.2,304z M436.3,294.5l-0.7-0.9l-1.2-0.5l-1.1,0.3l-1.1,0.6l-1.2,0.3
		l-1.8,1.2l-0.6,2.8l0.5,2.8l1.6,1.5l-0.3,1.3l0.8,0l3.9-1l1.1-0.9l0.7-1.4l0.2-1.8v-1.3l-0.3-1.5L436.3,294.5z M475.4,324.3
		l-0.7-0.8l-1.9-3.4l-1.2-0.8l-1-0.1l-0.5-0.2l-0.4,0l-1.7,1.4l-0.6,0l-0.8-0.5l0.1,0.8l0.8,1.2l0.1,0.4l-0.1,2.4l0.3,2.3l0.4,0.6
		l0.7-0.2l0.2-0.6l-0.2-1.6l0.3-0.8l0.4,1.4l0.5,0.9l1.5,1.8l0.5,1l0.6,2.2l0.8,1l2.3,1.4l1-3.2l-0.1-4.4L475.4,324.3z M481.8,309.2
		l-0.2-0.5l0.4-0.5l0.1-0.2v-0.4l-1.3-0.4l-1.3-0.7l-0.4,1l0.2,1.1l0.6,1l0.6,0.8l0.5,1.4l0.4,0.4l0.7-0.8l0.1-0.7L482,310
		L481.8,309.2z M450.5,292.7l-0.5-0.8l-1-0.6l-0.7,0.3l-0.1,0.9l0.6,1.1l0.8,0.6l0.6,0.6l0.4,0.7l0.3,1h0.6l-0.2-1.2L450.5,292.7z"
		/>
</g>

</svg>
