<?xml version="1.0" encoding="utf-8"?>

<svg version="1.2" baseProfile="tiny" xmlns="http://www.w3.org/2000/svg" xmlns:xlink="http://www.w3.org/1999/xlink" x="0px"
	 y="0px" viewBox="339.7 172 160.6 250" xml:space="preserve">

<g id="Faroe_Islands">
	<g>
		<polygon fill="#FFFFFF" points="394.8,195 394.1,194.7 393.6,194.7 393,194.5 392.4,193.3 390.9,203.2 390.9,208.5 393.2,212.2
			391.3,213.2 390.8,214.9 390.7,217.5 390,221 389.4,221.8 388.6,221.9 387.9,222.6 387.6,225.3 387.8,227.1 388.1,228.1
			389.2,229.5 390.3,231 393.6,234.1 394.8,234.7 396.8,233.7 398.7,232 400.2,231.7 401.3,234.7 399.4,235.7 399.3,238
			400.5,240.4 402.3,241.4 402.3,196.8 		"/>
		<polygon fill="#FFFFFF" points="400.5,262.2 399.4,262.1 398.4,261.8 397.4,261.2 396.4,260.3 398.5,258.7 400.4,259 402.3,259.8
			402.3,245.9 399.7,244.9 398.4,243.2 396.6,239.1 395.3,238.3 393.8,237.8 389.2,234.7 389.2,232.8 390,232.8 390,231.3
			381.8,233.4 379.7,235.8 378.4,236.4 378.1,236.9 377.9,238.1 377.7,239.3 376.7,239.8 374,240 373.1,239.8 371.7,239
			367.5,234.7 364.7,235.1 364.9,240.1 367.2,245.8 370.3,248.5 376.3,249.9 379.3,251.4 382,253.5 370.7,253.5 370.7,255.2
			372.4,255.4 377.1,258.8 384.4,260.3 389.7,264 390.9,263.7 391.1,261.6 390.1,259.4 388.6,257.7 387.6,256.9 389.4,255.7
			391,257.2 392.4,260.3 393.2,263.7 392.6,264.6 392.3,265.5 393.9,265.5 		"/>
		<polygon fill="#FFFFFF" points="468,207.9 468,209.3 467.8,210.3 466.9,210.7 466.5,210.2 466.1,209.3 465.7,209.1 465.3,209.9
			465.3,217.5 465.7,218.8 469.7,224.4 470.1,225.3 470.3,226.2 470.6,227 471.8,228.1 472.9,228.7 473.7,228.6 473.2,226.9
			472.2,224.2 469.7,215.7 471.5,214.7 473.3,216.7 476.5,223.5 478.3,225.8 480.6,226.4 483,225.8 485,224.4 485,222.7
			484.1,221.5 483.7,220.1 483.4,215.7 481.1,217.1 478.8,215.1 474.5,208.9 475.3,207.1 477.7,209.8 481.5,211.5 485.2,210.9
			487.4,207.1 481.1,203.2 476.1,198.2 472.1,191.2 468.8,181.2 469.7,179.4 466.3,181.5 465.6,185.2 466.6,189.8 468.1,195
			468.3,197.1 468.7,204 468.4,206.2 		"/>
		<polygon fill="#FFFFFF" points="349.7,248.2 351.2,248 352.3,247.6 351.2,246.8 349.6,245.3 346.3,243.5 342.9,243.6 339.7,245.5
			340.1,247.3 		"/>
		<polygon fill="#FFFFFF" points="466.5,238.3 465.3,236.9 465.3,238.1 		"/>
		<polygon fill="#FFFFFF" points="494.9,194.9 490.9,199 489,200 487.6,202 488,204.8 489.2,208.1 490.6,210.6 492.6,211
			494.4,210.3 495.9,209.4 497,208.1 497.5,206.5 497.5,204.1 496.7,201.6 500.2,197.9 500.3,196.3 498.5,195.1 		"/>
		<polygon fill="#FFFFFF" points="478.6,186.9 477,184.5 475.5,181.8 474.6,178.1 473.4,174.9 471.8,172.9 469,172 467.4,174
			468.6,177.3 470.1,178.8 471.2,185.2 472.9,189.5 475.7,194.5 479.2,198 483,199.4 485,198.4 485.8,196.7 486.4,194.5
			485.5,191.9 484.7,190.9 483.9,190.4 482.5,190.5 481.2,192.2 480,192.5 479.3,190.9 479.3,189.1 		"/>
		<polygon fill="#0065BD" points="450,281.3 450.5,278.8 450.7,276.7 449.5,276 449.5,281.3 		"/>
		<polygon fill="#0065BD" points="464.9,210.7 464.3,215 465.3,217.5 465.3,209.9 		"/>
		<polygon fill="#0065BD" points="450.4,242.4 450.4,248.7 451.6,253.9 455.9,256.9 455.4,255.2 455.3,254 455.8,253 456.8,252
			456.8,250.1 456.2,249.7 455.7,249 455.2,248.5 456.6,246.2 458.7,245 461.1,244.6 463.3,244.9 463.3,243.1 459.3,238.9
			456.9,236.9 454.4,236.4 454.4,234.7 460.4,237.4 465.3,238.1 465.3,236.9 462.3,233.8 449.5,227 449.5,236.5 		"/>
		<polygon fill="#0065BD" points="456.8,199.6 458,202 460.4,205.5 462.9,206.8 464.6,205.3 464.5,201.6 464,199.5 462.7,195.8
			457.7,183.9 456.6,180.2 454.7,178.2 452.8,180.3 452.4,185.9 453.6,191.7 		"/>
		<polygon fill="#0065BD" points="449.5,201.3 450.6,204.9 451.6,209 453.3,211.7 455.4,213 457.2,212.5 457.7,209.8 456.6,207.1
			455.8,206 449.5,193.4 		"/>
		<polygon fill="#0065BD" points="450.1,223.4 457.2,224.4 460.1,224.1 461.7,223.1 461.3,221.5 456.3,218.1 449.9,215.7
			449.5,215.8 449.5,223.7 		"/>
		<polygon fill="#0065BD" points="449.5,324.5 454.3,334.7 455.2,335.4 456.3,334.6 457.4,332.8 458.3,331.1 458.8,330.3
			459.1,323.2 458.8,321.8 458.4,321.1 459.2,319.4 460.8,316.8 460.1,314.3 458.5,312.8 449.5,312.8 		"/>
		<polygon fill="#0065BD" points="393.9,265.5 392.3,265.5 391.6,267.3 393.7,265.6 		"/>
		<polygon fill="#0065BD" points="417,188.9 412.7,192.2 410.2,193.3 408.9,192.8 407.6,191.8 406.3,191.5 405.3,193.3 405.5,195
			406.6,196.5 407.9,197.9 408.9,199.4 413,212.2 418,220.7 418,188.6 		"/>
		<polygon fill="#0065BD" points="402.4,259.9 404.5,260.3 406.9,259.1 408.3,256.5 409.4,253.3 410.9,250.1 408.6,246.4
			405.7,245.8 402.6,246 402.3,245.9 402.3,259.8 		"/>
		<polygon fill="#0065BD" points="450.8,401.1 452.2,401.4 453.2,401 453.6,398.9 449.5,396.7 449.5,401.2 		"/>
		<polygon fill="#0065BD" points="450.6,419.5 453.2,422 455.9,421.6 456.9,418.6 456.3,414.4 454.6,410.8 452,409.7 452.5,407.3
			452.8,406.4 449.5,406.1 449.5,417.9 		"/>
		<polygon fill="#0065BD" points="415.7,226.1 415.7,220.3 410,209 408.5,202.8 406.8,199.4 402.9,197 402.3,196.8 402.3,241.4
			402.5,241.5 411.7,243.1 413.5,244.2 415.6,246.3 417.5,248.7 418,250.3 418,226.9 		"/>
		<polygon fill="#0065BD" points="450,393.8 450.4,392.4 449.9,390.9 449.5,390.4 449.5,394.1 		"/>
		<polygon fill="#ED2939" points="447.7,189.7 444.4,181.3 442.9,178.4 441.2,176.9 440.1,178 440.3,181.5 442.4,187.9 443.2,190
			446.3,195.9 448.6,199.6 449.5,201.2 449.5,201.3 449.5,193.4 		"/>
		<polygon fill="#ED2939" points="449.5,281.3 449.5,276 446.8,274.4 446.6,270.9 447.5,266.8 448.8,263.7 445.6,260.5 437.6,260.7
			433.5,258.8 433.5,256.9 440.3,256.9 441.3,255.7 440.7,253 439.1,249.3 437.3,246.2 427,246.7 428.4,246.2 430,245 431.5,243.4
			432.7,241.5 433.4,238.9 433.3,236.7 432.3,235.2 426.3,233.3 419.6,227.5 418,226.9 418,250.3 418.2,251 418.4,255.1 419,258
			420.1,259.8 421.8,260.3 425.9,262.8 432.2,273.5 439.6,278.6 443,283.8 446.5,287.6 450.4,286.2 449.9,282 450,281.3 		"/>
		<polygon fill="#ED2939" points="455.9,307.4 454.5,305.6 445.6,303 444.2,302.2 442.6,299.2 441.5,297.9 440.1,297.3 436.3,297.9
			433.9,297.4 429,295.2 426.3,294.7 427.2,298.7 429.7,304.7 430.2,309.1 430.9,312.2 432.5,314 434.3,314.8 445.1,316.8
			446.7,318.5 449.5,324.5 449.5,312.8 458.5,312.8 456.7,310.9 		"/>
		<polygon fill="#ED2939" points="418,220.7 420.4,224.8 421.8,226.1 422.7,226.6 425.1,229.3 425.8,230.4 427.1,231.5 431.9,231.3
			441.1,243 445.9,246.9 447.9,241.5 446.7,235 443.7,230.8 440.2,227.7 437.5,224.4 440.7,223.5 444.3,226.8 447.4,231.9
			449.5,236.4 449.5,236.5 449.5,227 447.9,226.1 447.9,224.4 449.5,223.7 449.5,215.8 448.7,216 446.5,217.3 445.6,217.5
			444.3,216.8 442.1,214.5 440.7,214.1 440.7,212.2 443.1,211.5 445.3,209.1 446.2,206.5 445.1,205.3 435.9,203.8 438.2,202.1
			439.1,201.9 437.2,198.6 434.3,198.4 425.6,201.5 425.1,204.6 426.3,212.2 424.4,209.8 423.4,207 423.1,203.6 423,199.4
			424.4,197.5 427,195.9 429.1,194.1 428.6,191.6 427.1,191.3 426,190.3 425,189.1 423.8,188.1 422.3,187.6 418,188.6 		"/>
		<polygon fill="#ED2939" points="449.5,406.1 448.1,406 446,406.9 444.7,409.7 444.1,407.4 443.2,405.9 442.1,405 440.7,404.7
			440.7,402.8 443.4,403.7 445.5,403.4 449.5,401.2 449.5,401.2 449.5,396.7 448.8,396.3 448.8,394.6 449.5,394.1 449.5,390.4
			448.8,389.4 447.6,389 445.1,389.7 443.9,389.4 442.8,387.8 441.8,385.4 440.5,383.3 438.2,382.7 439.1,381.1 440.9,380.9
			442.8,381.8 444.3,383.6 445.8,385 447.7,384.6 449,382.6 448.8,379.4 446.2,376.6 439,375.5 435.8,371.4 425.4,372.6
			425.4,371.1 431.1,365.9 429.8,366.1 428.5,366 427.4,365.4 426.3,364.4 427.1,363.7 429.5,361 427.7,359.3 425.7,359.6
			421.4,362.5 421.9,363.2 421.9,363.5 422.2,364.4 419.8,364.4 420.8,368.1 421.4,369.2 421.7,373.7 424.4,379.8 428,385.6
			431.1,389.4 430.6,395.7 435.6,403 446.3,413 449.5,417.9 		"/>
	</g>
	<path fill="none" stroke="#999999" stroke-width="0.25" stroke-linecap="round" stroke-linejoin="round" d="M405.7,245.8l-3.1,0.2
		l-2.9-1.1l-1.2-1.8l-1.9-4.1l-1.3-0.8l-1.5-0.4l-4.6-3.2v-1.9h0.8v-1.6l-8.2,2.1l-2.1,2.5l-1.4,0.6l-0.3,0.5l-0.1,1.2l-0.3,1.2
		l-0.9,0.5L374,240l-0.9-0.2l-1.4-0.8l-4.2-4.3l-2.8,0.5l0.2,5l2.2,5.7l3.2,2.7l6,1.3l3,1.6l2.6,2h-11.2v1.7l1.7,0.2l4.7,3.4
		l7.3,1.6l5.2,3.7l1.2-0.3l0.2-2.1l-1.1-2.2l-1.5-1.7l-1-0.8l1.7-1.2l1.6,1.5l1.3,3l0.8,3.5l-0.5,0.9l-1,2.7l2-1.7l6.9-3.4l-1.1-0.1
		l-1-0.3l-1-0.6l-0.9-0.9l2.1-1.6l1.9,0.3l1.9,0.9l2.1,0.4l2.5-1.2l1.4-2.6l1.1-3.3l1.4-3.2l-2.3-3.6L405.7,245.8z M456.8,199.6
		l1.2,2.4l2.4,3.5l2.6,1.3l1.7-1.4l-0.1-3.7l-0.5-2.1l-1.3-3.8l-5-11.9l-1-3.7l-1.9-1.9l-1.9,2l-0.4,5.6l1.3,5.8L456.8,199.6z
		 M442.4,187.9l0.9,2.1l3.1,5.9l2.3,3.7l0.8,1.6l1.2,3.7l0.9,4.1l1.7,2.7l2.1,1.2l1.8-0.5l0.5-2.6l-1.1-2.7l-0.8-1.1l-8.2-16.3
		l-3.2-8.4l-1.6-2.9l-1.6-1.5l-1.2,1.1l0.2,3.5L442.4,187.9z M349.6,245.3l-3.3-1.8l-3.4,0.2l-3.2,1.9l0.4,1.8l9.6,0.9l1.5-0.2
		l1.1-0.4l-1.1-0.8L349.6,245.3z M460.4,237.4l6.1,0.8l-4.2-4.4l-14.4-7.7v-1.7l2.2-1l7,1l3-0.3l1.6-1l-0.4-1.6l-5-3.4l-6.4-2.4
		l-1.2,0.3l-2.2,1.3l-1,0.2l-1.2-0.7l-2.2-2.3l-1.4-0.5v-1.9l2.4-0.8l2.1-2.4l1-2.5l-1.1-1.2l-9.2-1.6l2.2-1.6l0.9-0.2l-1.8-3.3
		l-2.9-0.2l-8.7,3.1l-0.5,3l1.2,7.7l-1.9-2.4l-1-2.8l-0.3-3.4l0-4.2l1.3-1.9l2.7-1.6l2-1.8l-0.5-2.6l-1.5-0.2l-1.1-1l-1-1.2l-1.2-1
		l-1.4-0.5l-5.4,1.2l-4.3,3.3l-2.5,1.1l-1.3-0.5l-1.3-1l-1.2-0.3l-1,1.8l0.2,1.7l1.1,1.5l1.3,1.4l1,1.5l4.1,12.8l7.4,12.6l1.4,1.4
		l0.9,0.5l2.4,2.7l0.7,1.1l1.2,1.2l4.8-0.3l9.2,11.8l4.8,3.9l2.1-5.4l-1.2-6.5l-3-4.2l-3.5-3.1l-2.7-3.3l3.3-0.9l3.6,3.3l3.1,5.1
		l2,4.5l0.9,6l0,6.3l1.1,5.2l4.3,3l-0.5-1.7l-0.1-1.2l0.4-1l1-1v-1.9l-0.6-0.4l-0.5-0.7l-0.5-0.4l1.4-2.3l2.2-1.2l2.4-0.3l2.1,0.3
		v-1.9l-3.9-4.2l-2.4-1.9l-2.6-0.6v-1.7L460.4,237.4z M454.6,410.8l-2.6-1.1l0.5-2.4l0.3-0.9l-4.7-0.4l-2.1,0.9l-1.4,2.8l-0.6-2.3
		l-0.9-1.6l-1.1-0.9l-1.3-0.3v-1.8l2.7,0.8l2.1-0.3l4-2.2l1.3-0.1l1.4,0.3l1-0.4l0.4-2.1l-4.9-2.6v-1.7l1.3-0.9l0.3-1.4l-0.5-1.5
		l-1.2-1.5l-1.1-0.4l-2.6,0.6l-1.2-0.2l-1.1-1.6l-0.9-2.4l-1.4-2.1l-2.3-0.6l0.9-1.6l1.8-0.2l1.9,0.9l1.5,1.8l1.5,1.4l1.9-0.4l1.3-2
		l-0.3-3.3l-2.6-2.7l-7.2-1.1l-3.1-4.1l-10.4,1.2v-1.5l5.7-5.2l-1.3,0.2l-1.3-0.1l-1.2-0.6l-1.1-1.1l0.8-0.7l2.4-2.7l-1.7-1.6
		l-2.1,0.3l-4.3,2.9l0.5,0.7l0.1,0.3l0.2,0.9h-2.4l1.1,3.7l0.5,1.2l0.3,4.5l2.7,6.1l3.6,5.8l3.1,3.8l-0.6,6.2l5.1,7.3l10.7,10.1
		l4.3,6.5l2.6,2.5l2.7-0.4l1-3l-0.6-4.2L454.6,410.8z M470.1,178.8l1.1,6.4l1.8,4.2l2.8,5l3.5,3.5l3.8,1.4l2.1-1l0.8-1.7l0.6-2.2
		l-0.8-2.6l-0.9-1l-0.7-0.5l-1.4,0.1l-1.3,1.7l-1.3,0.3l-0.7-1.6l0-1.7l-0.7-2.2l-1.7-2.4l-1.4-2.8l-0.9-3.7l-1.2-3.2l-1.7-2
		L469,172l-1.6,2l1.1,3.2L470.1,178.8z M476.1,198.2l-4-7l-3.3-9.9l0.9-1.8l-3.4,2.1l-0.6,3.7l1,4.7l1.4,5.2l0.3,2.1l0.3,6.9
		l-0.2,2.2l-0.4,1.7l0,1.4l-0.2,1l-0.9,0.4l-0.4-0.5l-0.3-0.9l-0.4-0.2l-0.8,1.5l-0.5,4.3l1.4,3.8l4,5.6l0.4,0.9l0.2,0.9l0.3,0.8
		l1.2,1l1.1,0.7l0.8-0.1l-0.4-1.8l-1-2.7l-2.5-8.6l1.8-0.9l1.9,1.9l3.2,6.9l1.8,2.3l2.3,0.6l2.4-0.6l2-1.4v-1.7l-0.8-1.2l-0.4-1.4
		l-0.4-4.4l-2.2,1.4l-2.3-2l-4.4-6.1l0.8-1.9l2.5,2.8l3.8,1.6l3.7-0.6l2.2-3.9l-6.3-3.8L476.1,198.2z M500.3,196.3l-1.8-1.2
		l-3.5-0.1l-4,4.1l-2,1l-1.4,1.9l0.4,2.8l1.2,3.3l1.4,2.5l2,0.4l1.8-0.7l1.5-0.9l1.1-1.3l0.6-1.6l0-2.3l-0.8-2.6l3.4-3.6
		L500.3,196.3z M456.7,310.9l-0.8-3.5l-1.4-1.8l-8.9-2.6l-1.3-0.9l-1.7-3l-1.1-1.3l-1.4-0.6l-3.8,0.6l-2.4-0.5l-5-2.2l-2.7-0.5l1,4
		l2.5,6.1l0.5,4.3l0.7,3.2l1.6,1.8l1.9,0.8l10.8,2l1.6,1.8l7.6,16.1l0.8,0.7l1.2-0.8l1.1-1.7l0.9-1.7l0.6-0.8l0.3-7.1l-0.3-1.3
		l-0.4-0.8l0.8-1.7l1.6-2.7l-0.8-2.4L456.7,310.9z M421.8,260.3l4.2,2.4l6.2,10.8l7.4,5.1l3.4,5.2l3.6,3.8l3.8-1.4l-0.5-4.2l0.6-3.2
		l0.2-2.1l-3.9-2.3l-0.3-3.5l0.9-4.1l1.2-3.1l-3.2-3.3l-7.9,0.2l-4.2-1.9v-1.8h6.8l1-1.2l-0.6-2.7l-1.6-3.7l-1.7-3.1l-10.3,0.5
		l1.3-0.5l1.6-1.2l1.6-1.6l1.1-1.8l0.8-2.7l-0.1-2.2l-1-1.5l-5.9-1.9l-6.7-5.9l-4-1.3l0-5.8L410,209l-1.5-6.1l-1.7-3.4l-4-2.5
		l-8-1.9l-0.7-0.3l-0.6,0.1l-0.5-0.2l-0.6-1.2l-1.5,9.9l0,5.3l2.2,3.7l-1.9,1l-0.5,1.7l-0.1,2.6L390,221l-0.7,0.8l-0.8,0.1l-0.7,0.7
		l-0.3,2.7l0.1,1.9l0.4,1l1.1,1.5l1.1,1.5l3.3,3.1l1.3,0.6l1.9-1l1.9-1.7l1.6-0.3l1,3l-1.9,1l-0.1,2.3l1.2,2.4l2.1,1.1l9.2,1.6
		l1.8,1.2l2.1,2l1.8,2.4l0.8,2.3l0.2,4.1l0.6,2.9l1.1,1.8L421.8,260.3z"/>
</g>

</svg>
