<?xml version="1.0" encoding="utf-8"?>

<svg version="1.2" baseProfile="tiny" xmlns="http://www.w3.org/2000/svg" xmlns:xlink="http://www.w3.org/1999/xlink" x="0px"
	 y="0px" viewBox="234.8 134.2 370.3 325.6" xml:space="preserve">

<g id="France">
	<g>
		<polygon fill="none" points="414.1,424.5 413.8,424.2 413.5,424.3 413.2,424.8 413.3,425.2 413.6,425.5 414.2,425.5 414.3,425.5
			414.5,425.5 414.6,425.5 414.3,425 		"/>
		<polygon fill="#ED2939" points="527.8,406.4 527.3,406.5 527.1,406.7 526.9,407 526.4,407.2 526.3,407.4 526.3,407.8 526.5,407.8
			526.7,407.6 527.2,407.5 527.6,406.9 527.8,406.7 528.2,406.6 528.2,406.4 528.1,406.3 		"/>
		<polygon fill="#ED2939" points="521.1,407.5 521,407.6 520.9,407.6 520.8,407.6 520.8,407.7 520.5,407.8 519.8,407.8 519.6,407.9
			519.6,408.1 520.2,408.4 520.5,408.5 520.9,408.4 521.2,408.2 521.5,407.8 521.5,407.4 521.4,407.2 521.3,407.4 		"/>
		<polygon fill="#ED2939" points="605.1,429.5 604.6,428.3 604.5,427.7 604.5,427.1 604.5,426.6 604.7,426.2 604.8,425.7
			604.5,425.1 604.4,424.1 604.5,422.3 604.4,421.7 604.1,421.2 603.4,420.2 603.8,421 603.9,421.2 604,421.7 603.3,421.4
			603.1,421.3 602.9,421 602.9,420.8 602.8,420.5 602.6,420.4 602.7,420.1 602.7,420 602.6,419.8 602.6,419.5 602.5,419.5
			602.4,419.5 602.3,419.4 602.2,419.3 602.2,419.2 602.3,419.1 602.4,419 602.4,418.9 602.4,418 602.4,417.6 602.4,417.2
			603.2,414.3 603.3,413.3 602.8,410.5 602.9,409.9 602.6,409.6 602.5,409.2 602.5,408.9 602.7,408.6 602.7,408.4 602.3,408.1
			602,407.9 601.7,407.5 601.2,407.7 600.2,407.7 599.8,407.9 599.7,408.4 599.7,408.9 599.9,409.4 600.1,409.7 600,409.9
			600,410.1 600,410.1 600.1,410.3 599.5,410.9 599.4,411.1 599.3,411.4 599.3,411.7 599.4,412 599.4,412.2 598.8,413.1
			599.2,413.6 599.5,414.1 599.6,414.7 599.4,415.3 599.7,415.9 599.3,416.8 598.4,418.3 598.2,418.3 598,417.7 597.9,417.4
			597.7,417.2 597.6,417 597,416.8 595.7,416.4 595.5,416.4 595.2,416.4 594.6,416.4 594,416.5 593.7,416.7 592.4,418 592.3,418.7
			591.5,419 588.7,419.6 587.1,420.3 586.1,420.4 586.3,420.6 586.2,421.1 586,421.5 585.7,421.8 585.3,421.9 585,421.8
			584.8,421.6 584.5,421.5 584.1,421.7 584,421.4 584,421.3 583.9,421.3 583.7,421.3 583.7,421.5 583.9,421.8 583.8,422.5
			583.9,422.8 583.4,422.9 583,423.1 582.7,423.4 582.5,424.2 582.4,424.3 582.5,424.4 582.8,424.5 582.9,424.6 582.8,424.8
			582.5,425.2 582.5,425.6 582.5,425.9 582.3,426.1 581.4,426.2 581.3,426.3 581.3,426.5 581.2,426.6 581.1,426.8 581,427.1
			580.9,427.2 580.6,427.1 580.5,427.3 580.2,427.4 580,427.4 579.8,427.3 579.7,427.6 579.7,427.9 579.8,428.2 580,428.5
			579.8,428.7 580.8,428.4 581.3,428.3 581.8,428.7 581.1,429.2 581,429.3 581,429.5 581.1,429.6 581.3,429.6 581.6,429.4
			581.7,429.5 581.8,429.7 581.8,429.8 582.8,430.2 582.8,430.3 583.2,430.5 583.2,430.8 583.1,430.8 583,430.8 582.9,430.9
			582.6,431 582.3,431.2 581.2,431.4 581,431.5 580.8,431.6 580.6,431.7 580,431.7 579.7,431.7 579.6,432 579.8,432.2 580.1,432.3
			580.3,432.4 580.1,432.8 580.4,432.9 580.5,433.2 580.4,433.5 580.1,433.6 580.1,433.8 580.8,433.8 580.8,434.1 580.4,434.3
			580.2,434.4 580,434.5 580.2,434.5 580.4,434.5 580.6,434.6 580.8,434.7 580.7,434.8 580.6,435.1 581.1,435.1 581.7,435.2
			582.2,435.5 582.4,435.9 582.5,436 583.2,435.8 583.5,435.9 583.6,436.1 584.1,437 584.5,437.3 584.6,437.5 584.6,437.9
			584.4,437.9 583.8,438.2 583.6,438.3 583.1,438.5 582.6,438.8 582.4,439.2 582.7,439.4 582.4,439.9 581.9,440.1 580.6,440.2
			581.3,441 581.4,441.4 581.2,441.9 581.3,442.3 581.7,442.1 582.2,442 583.2,441.9 583.8,441.8 584.6,441.3 585.1,441.3
			585.4,441.4 585.5,441.5 585.7,441.6 585.8,441.9 586.1,442.1 586.1,442.1 586.1,442.3 585.9,442.6 585.8,442.7 585.8,442.8
			585.5,443.2 585.5,443.2 585.6,443.3 585.7,443.5 585.8,443.6 585.6,443.8 584.8,444 585.1,444.1 585.3,444.2 585.5,444.4
			585.6,444.7 584.8,445.1 584.3,445.3 583.7,445.3 583.7,445.5 584,445.7 584,446 583.9,446.3 583.7,446.6 583.4,446.7
			582.7,446.8 582.4,447 582.7,447.1 582.9,447.2 583.2,447.2 583.6,447.2 583.4,447.5 583.4,447.6 584,447.6 585,447.2
			585.6,447.2 585.4,447.8 585.7,448.1 586.3,448.2 586.9,448.2 588.5,448.7 589.1,448.7 588.8,449 588.5,449.2 588.2,449.4
			588.1,449.8 587.8,450 586.5,450.6 586.1,450.4 585.8,450.8 585.6,451.5 585.5,451.9 585.8,452 585.9,452.2 585.8,452.8
			585.9,452.9 586.3,453 586.6,453.1 586.9,453.1 587,453.2 587.3,453.3 587.3,453.5 587,453.7 587.2,453.9 587.4,453.9
			587.6,453.9 587.9,453.9 588,454.1 588.1,454.2 588.1,454.3 588.7,454.4 589,454.6 589.2,454.8 589.4,455 589.8,454.9 590.4,455
			591.1,455.2 591.3,455.4 591.5,455.6 591.7,455.5 591.8,455.5 592,455.4 592,455.5 591.9,455.5 591.9,455.6 591.9,455.6
			592,455.8 592.8,455.3 593.1,455.2 593.1,455.4 592.7,455.8 593.1,456.1 593.7,456.3 594.1,456.7 593.9,456.7 593.8,456.8
			593.5,457.6 594.1,457.9 594.9,458 595.3,458.2 595.9,458.7 596.3,458.8 596.7,458.6 596.9,458.3 597.1,457.9 597.3,457.3
			597.4,456.9 597,457.1 596.7,457.4 596.4,457.5 596.4,457.3 596.6,457.1 596.7,456.9 596.6,456.7 596.4,456.5 596.4,456.3
			596.8,456.2 597.5,455.8 597.9,455.6 597.7,455.4 598,455.2 598.1,454.9 598,454.7 597.7,454.6 597.8,454.4 597.9,454.1
			597.8,453.9 597.7,453.7 598.2,453.6 598.4,453.3 598.6,453 598.8,452.9 599.3,452.8 599.6,452.5 599.9,452.2 600,451.7
			599.7,451.5 599.2,451.5 598.4,451.9 598.1,451.6 598.2,451.4 598.5,451 598.4,450.8 598.7,450.7 599.1,450.8 599.5,450.8
			599.8,451 599.7,450.5 599.8,450.4 600,450.3 600.2,450.4 600.4,450.2 600.6,449.9 600.7,449.3 600.3,449.3 600.4,449
			600.7,448.7 600.9,448.5 601.1,448.5 601.2,448.3 601.2,446.1 601,444 601.2,441.8 601.2,440.7 601.4,440.4 601.7,440.1
			603.5,437.8 603.9,437 604.1,436.6 604.8,436 605,435.8 605,435.5 605.1,435 605.2,434.7 605,434 605.2,430.1 		"/>
		<polygon fill="#ED2939" points="597.6,458.6 597.4,458.6 597.3,458.8 597.4,458.8 597.5,458.9 597.7,458.9 597.7,458.9
			597.7,458.9 597.8,458.8 597.8,458.7 597.7,458.8 597.7,458.6 		"/>
		<polygon fill="#ED2939" points="597.3,459.6 597.5,459.8 597.5,459.7 597.5,459.6 597.5,459.5 597.3,459.5 		"/>
		<polygon fill="#ED2939" points="487,396.3 486.8,395.8 486.7,395.7 486.7,396.2 		"/>
		<polygon fill="#ED2939" points="486.8,170.6 486.8,170.6 486.8,170.2 486.8,169.9 487,169.2 487,169 487,168.6 486.8,168.3
			486.7,168.3 486.7,170.5 		"/>
		<polygon fill="#ED2939" points="486.9,394.8 487.5,394.6 487.8,394.4 488.4,394.2 489.8,394.9 490.3,394.7 490.9,394.9
			491.5,394.5 491.8,393.8 491.5,393 491.1,392.7 490.8,392.6 490.6,392.3 490.5,391.7 490.5,391.5 490.6,391 490.8,390.6
			491,390.4 491.1,390.5 491.5,391 491.6,391.1 492.2,391 492.4,391.1 492.9,391.2 493,391.4 493,391.7 493.2,392.1 493.8,392.7
			494.4,392.8 495.1,392.6 495.8,392.1 495.9,392.9 495.6,393.6 495.1,394.2 494.6,394.5 493.9,394.7 491.7,394.7 490.9,395.1
			490.5,395.8 490.7,396.5 491.3,397.1 492,397.3 493.6,397.3 493.9,397.1 495,397.3 498.4,396.6 499.1,397 499.1,398.7
			499.2,398.9 499.4,399 499.5,399.1 499.6,399.1 499.6,399.3 499.5,399.5 499.3,400.1 499.1,400.4 499.1,400.7 499.3,401
			499.6,401.1 500.3,401.1 500.6,401.3 501,401.1 501.7,401.1 502.3,401.2 502.6,401.4 502.7,401.5 503,401.4 503.3,401.3
			503.8,401 504,401.1 504.6,401.8 504.8,402 505.1,402.1 505.3,402.2 505.4,402.3 505.6,402.3 505.7,402.3 505.8,402.1 505.8,402
			505.9,401.9 507.2,402 507.7,402.2 507.6,402.7 508.5,403.2 509,403.4 509.6,403.4 509.8,403.5 509.8,404 510.1,404.1
			510.5,404.1 510.7,404.2 510.9,404.3 510,404.6 509.8,404.9 510,405.4 510.2,405.5 511.5,406 512,406 512.3,405.9 512.4,405.5
			512.6,405.2 513,405.2 513.8,405.4 513.8,405.1 513.4,405 512.8,404.4 512.4,404.3 513.1,403.9 513.5,403.8 514,403.8 513.9,404
			513.8,404.3 513.8,404.5 514.4,404.3 515.2,404.2 515.9,404.4 516.4,404.7 516.5,404.8 518.4,404.9 518.6,405.1 518.6,405.4
			518.4,405.9 518.3,406 517.4,406 517.4,406.2 517.9,406.3 519.6,406.3 520,406.2 520,406 519.8,406 519.6,406 519.3,405.8
			519.5,405.1 519.6,404.6 519.8,404.2 520.3,403.8 520.6,403.8 522.3,403.8 522.5,403.9 522.9,404 523.2,404.1 523.5,404.2
			523.6,404.5 523.6,404.8 523.7,404.9 524.6,404.9 524.9,404.8 524.5,404.3 524.6,404 524.6,403.8 524.6,403.6 524.8,403.2
			525.1,403 525.9,403 526.4,402.7 526.9,402.5 527.2,402.5 527.8,402.6 528.1,402.5 528.5,402.3 528.9,401.9 529.4,401.6
			530,401.7 530.3,401.9 530.4,402.1 530.4,402.4 530.5,402.5 530.8,402.6 531.3,402.4 531.6,402.3 531.4,401.9 532.5,401.1
			532.6,400.9 532.6,400.8 532.4,400.7 532.3,400.6 532.3,400.4 532.3,400.1 532.4,400 532.5,399.9 532.6,399.7 532.8,399.2
			532.8,399 530.4,399.1 530.2,399.1 530.3,398.8 530.6,398.5 531.3,398.2 531.9,398.1 532.1,397.9 532.2,397.6 532.4,397.1
			532.8,396.8 533.2,396.7 533.5,396.5 533.7,395.5 533.9,395 534.2,394.4 534.5,394.1 535,394.4 535.6,394.6 536.9,394.5
			536.9,394.4 537.1,394.2 537.2,394 537.3,394.2 537.3,394.3 537.5,394.4 537.7,394.4 537.8,394.3 537.9,394.2 538,393.8
			538.1,393.7 538.2,393.7 538.3,393.6 538.4,393.6 539.3,392.1 539.4,392 539.4,392 539.4,391.5 539.4,391.5 539.7,391
			540.1,390.7 540.5,390.5 540.9,390.2 541.5,390.4 542.1,390.2 542.7,389.9 543.4,389.8 543.5,389.9 543.5,390.1 543.6,390.3
			543.8,390.2 544,390.1 544,389.9 544,389.8 544,389.5 544,388 544.1,387.8 544.3,387.7 544.5,387.4 544.7,387.1 545.1,386.9
			545.5,386.9 545.8,386.8 546,386.7 546.3,386.5 546.7,385.8 547,385.6 547.4,385.7 547.6,385.8 548.8,385.6 548.7,385.9
			548.7,386 549.2,386 549.3,385.7 549.3,385.3 549.5,385 550,384.9 550,384.5 550.4,384.1 550.9,383.9 551.5,384.2 551.6,384
			551.9,383.9 552.1,383.9 552.3,383.9 552.4,383.9 552.7,383.9 552.7,383.7 552.6,383.3 552.7,383.2 552.8,383.2 552.9,383.2
			553,383.2 553.3,383 552.8,381.4 552.7,380.6 553.1,380 554.2,378.9 554.7,378.1 556,377.1 556.5,376.5 556.7,376.2 556.9,375.5
			557.1,375.1 557.4,374.8 557.7,374.5 558,374.2 558.1,373.6 557.7,372.9 557.1,372.3 556.8,371.7 557.2,370.7 556.4,370.6
			555.3,371.2 554.6,371.2 550.2,372.4 549.2,372.4 549,372.3 548.7,372.1 548.6,371.9 548.4,371.6 548.1,371.5 547.4,371.4
			547,371.2 544.3,369.7 543.3,369.4 541.8,368.6 541.5,368.6 541.1,368.6 540.8,368.7 540.5,368.7 540.2,368.6 540,368.3
			539.8,368.1 539.8,367.8 539.6,367.4 539.4,367.2 538.9,366.9 538.6,366.7 538.5,366.4 538.2,365.8 538,365.4 537.4,364.8
			537.3,364.7 537.3,364.4 537.3,364.2 537.3,364 537.5,363 537.7,362.8 538.6,362.3 537.9,361.8 537.1,361.1 536.6,360.2
			536.5,359.2 536.8,358.8 538,357.8 538.9,356.5 539.3,356.2 539,355.5 539.2,354.9 539.6,354.4 540.2,354.1 540.7,354.1
			541.6,354.3 542,354.3 541.9,353.9 541.1,352.6 541,352.3 540.9,351.5 540.6,350.8 540.6,350.7 540.7,350.2 540.8,350.2
			540.8,350.1 540.8,350 540.8,349.9 540.8,349.7 540.6,349.5 540.2,349.1 538.9,348.6 538.5,348.5 537.3,348.8 536.8,348.7
			535,347.7 534.2,347.1 533.8,346.4 533.8,344.6 533.7,343.7 533,343.2 532.1,343.1 531.8,342.9 531.5,342.4 531.5,342.1
			531.5,341.9 531.5,341.7 531.1,341.3 530.6,340.7 530.9,340.3 531.4,340 532.2,339.5 532.5,339.5 532.9,339.5 533.1,339.5
			533.3,339.4 533.8,339.1 534,339 534.9,339.1 535.8,339.6 536.7,339.8 537.5,339.5 537.6,339.3 537.4,339.1 537.3,339
			537.4,338.7 537.6,338.6 538.2,338.6 538.5,338.5 538.8,338.2 539.3,337.5 539.6,337.2 540.5,336.9 541.4,336.6 541.6,336.7
			541.9,337.1 542,337.1 542.2,337 542.7,336.2 543.4,335.6 543.4,335.1 543.1,334.5 543,333.5 543.1,333.3 543.9,332.4
			544.4,331.6 544.6,331.1 544.7,330.7 544.5,330.5 543.4,330.1 543.1,329.9 542.9,329.5 542.7,329.1 542.4,328.7 541.3,328
			540.2,327.4 540,326.9 539.9,325.5 539.8,325.3 539.5,324.9 539.4,324.6 539.5,324.4 539.8,323.8 539.9,323.6 539.7,323.1
			539.4,322.9 538.6,322.7 538.2,322.5 537.7,322 537.3,321.9 536.7,321.7 536,321.3 535.5,320.6 535.2,319.2 535.1,318.6
			535.2,318 535.3,317.5 535.6,317 536,316.8 536.7,316.7 536.7,316.6 536.8,316.5 536.9,316.3 537,316.2 537.1,316.3 537.3,316.4
			537.4,316.4 537.6,316.4 538.2,316.4 538.8,316.2 539.3,316 539.9,315.6 540.2,315 540.4,314.6 540.6,314.2 540.8,313.9
			541.2,313.7 541,313.5 540.9,313.1 540.7,312.5 540.4,311.8 540.3,311.5 540.2,311.4 538.5,309.6 537.9,309.4 537.7,309.5
			537.5,309.7 537.3,309.8 537.1,309.8 536.9,309.6 536.9,309.5 536.9,309.4 536.9,309.1 536.9,309.1 536.9,308.7 536.9,308.4
			536.8,308.4 536.9,308.3 537.1,308 537.3,307.8 537.3,307.5 536.9,307.2 534.9,306.8 534.7,306.2 535,305.1 535.4,303.9
			536.3,302.3 535.7,301.4 534.8,300.5 534.3,299.8 534.5,299.4 535.1,298.7 535.3,298.1 535.3,297.5 535,297.2 534.6,297
			530.9,296.1 529.2,296 527.6,296.3 525.4,297.7 524.6,297.9 523.8,297.9 523,298.1 522.2,298.8 521.5,299.7 521,300.3
			520.8,300.8 520.9,301.1 521.2,301.7 521.2,301.8 521.4,302.4 521.5,302.5 521.8,302.6 522.2,302.5 522.4,302.5 522.5,303.3
			521.9,303.9 520.2,304.9 519,306.3 518.1,306.7 517.3,306.3 516.1,306.4 515,306.6 514.4,306.9 514.7,306.2 514.9,305.9
			515,305.6 514.5,305.1 514.3,304.6 514.4,304.2 515,303.9 516.5,303.2 516.5,303.2 516.6,303.2 516.8,303.2 517,303.3
			517.1,303.2 517.7,303.1 517.8,302.9 517.8,302.5 517.8,302.2 518,301.2 518,301 518.9,299.3 518.8,298.9 518.5,298.4
			518.1,298.1 516.8,297.3 517.1,297.1 517.1,296.8 517.1,296.6 517.1,296.4 517.1,296.3 517,296.1 516.9,296 516.9,295.8
			517,295.6 517.3,295.3 518.2,293.9 519.1,292.9 518.5,292.3 518.4,291.8 518.7,291.4 522.1,288.6 523.9,287.7 524.2,287.5
			524.9,286.8 525.7,286.4 526,286.2 526.2,285.9 526.3,285.6 526.3,285 526.1,284.9 526,284.7 525.9,284.5 526,284.3 526.4,283.2
			526.5,283 526.7,282.6 526.7,282.2 526.6,281.8 526.3,281.2 526.2,280.9 526.6,279.7 527.8,279.1 530.5,278.3 532.2,277.1
			532.8,276.4 532.5,275.7 532.8,275.2 533,275 533.7,274.8 533.8,274.5 533.9,274.5 534.2,274.3 534.2,273.7 534.9,273.5
			536.6,272.1 537.1,271.4 537.8,270.7 539.5,269.5 539.4,268.7 539.6,268 540.1,267.6 540.3,267.5 540.4,267.5 540.8,267
			541.1,266.9 541.3,266.8 541.5,266.7 541.7,266.3 541.5,266 541.1,265.6 540.7,265.4 540.3,265.6 537.3,265.8 537.4,265.4
			537.7,264.9 538.1,264.4 538.7,264.1 538.8,263.4 539.4,263.3 539.8,263.1 540.2,262.8 540.4,262.5 540.3,262.1 540,261.6
			540,261.2 540.4,261.1 540.6,261 540.9,260.9 541.1,261 541.3,261.1 542,261.2 543.2,261 543.8,261.1 544.2,261.3 544.5,261.3
			545.2,261.3 544.7,262.2 544.9,262.8 545.4,263.1 546.2,263.3 546.3,263.4 546.3,263.5 546.4,263.6 546.6,263.7 546.8,263.7
			547.8,263.3 548.4,263.2 550.2,263.2 550.9,263 551.4,262.4 551.4,262.1 551.4,261.9 551.3,261.7 551.2,261.6 551.1,261.4
			551.1,261.2 551.4,261.1 551.8,261.3 552.1,261.5 552.4,261.5 552.8,261.2 552.8,261.1 552.9,261 552.9,260.9 552.9,260.9
			552.7,260.6 552.6,260.5 552.6,260.4 552.8,260.3 553.1,260.4 553.3,260.3 553.4,260.1 553.4,259.8 553.3,259.8 552.9,259.5
			552.8,259.4 553.9,258.6 554.5,258.3 555.4,258 555.3,258 555.4,258 555.5,257.7 555.6,257.5 555.5,257.2 555.4,257 555.2,256.9
			555.1,256.7 554.5,255.7 554.2,255.2 553.8,255.1 553.7,254.9 553.6,254.5 553.5,253.8 553.6,253.6 554,253.2 554.2,253
			554.2,252.4 553.9,251.2 554,250.7 554.3,249.6 554.4,249.5 554.8,249.3 554.9,248.9 554.7,248.3 554.7,248.1 554.7,248
			554.7,247.9 554.7,247.8 554.8,247.6 555,247.5 555.1,247.3 555.2,247 555.3,246.8 555.2,246.3 555.4,245.8 556,245.2
			556.3,244.8 556.2,243.7 555.1,241.9 555.1,240.5 555.2,239.8 555.4,239.3 555.6,239 555.7,238.8 555.9,238.5 555.9,238
			556.1,237.6 557.7,235.5 557.9,235 558.1,234.5 558.2,233.8 558.3,233 558.7,232.7 559.2,232.5 559.5,232 559.6,231.5 559.4,231
			559.3,230.6 559.2,230.2 559.2,229.7 559.4,228.8 559.5,228.4 559.7,228.1 559.9,227.9 560,227.5 560.1,226.9 560.2,226.6
			560.5,226.3 561.1,225.8 561.1,225.6 560.8,224.8 560.8,223.6 561,222.5 562.1,221 562.4,220.8 562.8,220.6 563.2,220.3
			563.9,219.6 564.2,219.4 564.5,219.1 564.8,218.8 564.9,218.5 564.9,217.8 565.1,217.5 565.4,217.4 566.1,217.4 566.3,217.4
			566.4,217.2 566.5,217.1 566.5,216.7 566.6,216.5 566.8,216.4 566.8,216.4 567,216.3 568,215.9 568.1,215.8 568.4,215.3
			569.6,212.4 570.4,211 570.9,210.5 570.6,210.2 568.1,209.8 564.1,207.8 563.7,207.8 562.2,207.9 560.1,207.3 559.9,207.4
			559.3,207.7 558.9,207.8 558.7,207.7 558.2,207.6 557.9,207.5 557.6,207.6 557.3,207.7 557,207.8 556.6,207.7 556.4,207.5
			556.2,207.1 556,206.9 555.4,206.6 554.3,206.4 553.8,206.1 553.4,205.7 552.9,204.9 552.5,204.5 552.5,204.4 552.6,204.3
			552.8,204.2 552.6,203.7 552.2,203.6 551.1,203.5 551,203.1 550.5,203.1 549.9,203.2 549.5,203.4 549.4,203.6 549.2,204.1
			549,204.3 548.9,204.4 548.3,204.5 548.1,204.5 548,204.7 547.7,205.2 547.5,205.3 547.4,205.3 546.7,205 544.5,205 544.1,204.9
			543.7,204.7 542.8,204.1 542.6,204 542.4,204.3 542.4,204.4 542.5,204.6 542.5,204.8 541.7,205.3 541.1,204.9 540.9,203.9
			540.9,202.6 540.3,202.6 538.7,201.8 538.5,201.8 537.7,201.8 536.7,201.6 536.4,201.7 536.3,202.2 536.5,202.7 536.6,203.3
			536.1,203.8 535.8,203.9 534.8,203.6 533.7,203.6 533.4,203.4 533.1,203 533.2,202.5 533.3,202.1 533.1,201.5 533,201.5
			532.7,201.7 532.6,201.7 532.5,201.6 532.5,201.3 532.4,201.3 532.3,201.1 532.1,200.5 532,200.4 531.7,200.2 531.6,200.1
			531.5,200 531.6,199.6 531.5,199.5 529.9,198 529.4,197.5 529.3,197.1 529.4,196.8 529.9,196.8 530,196.5 529.9,196.3
			528.7,195.1 528.5,194.9 528.6,194.9 528.5,194.6 528.5,194.4 528.3,194.1 527.9,193.7 525.6,192.6 525.3,192.6 525.1,192.7
			524.6,193 524.3,193 524.1,193 523.6,192.9 523,192.6 521.7,191.7 521,191.5 520.3,191.4 518.9,191.6 519,191.9 518.3,192
			518.1,192 518,192.2 518,192.5 517.9,192.7 517.6,192.8 517.4,193.1 517,193.2 514.9,193.3 514.4,193.5 514.1,192.5 513.6,192
			512,191.7 511.4,191.4 510.9,191 510.1,190.1 509.9,190 509.9,190 509.3,189.7 509,189.6 508.8,189.8 508.4,190.2 508.2,190.3
			508.1,190.3 507.6,190.2 507,190 506.5,189.8 506.5,189.8 505.8,190.1 505.5,190.5 505.5,190.5 505.5,190.8 505.5,190.8
			505.4,190.9 505.2,190.9 505,191 504.8,190.9 504,190.6 503.7,190.7 503.5,190.8 503.2,191 502.9,191.2 502.4,191.5 502.3,191.6
			501.7,191.4 501.6,191.2 501.6,191.1 501.6,190.8 501.7,190.5 501.7,190.1 501.6,189.8 500.4,187.8 499.9,187.4 499.1,187.1
			499,187 498.8,187 498.7,186.9 498.7,186.9 498.6,187 498.5,187.2 498.3,187.4 498.3,187.4 498.1,187.5 497.7,187.4 497.6,187.2
			497.6,187.2 497.6,187.1 497.5,186.9 497.6,186.4 497.6,186.4 497.7,186.4 497.8,186.3 497.9,186.2 497.9,186.2 497.8,185.6
			497.3,185.1 496.7,184.6 496.4,184.6 496.2,184.6 495.8,184.7 495.1,184.9 494.5,184.8 494,184.4 493.9,184.3 493.7,184.1
			493,183.3 492.6,182.7 492.3,182.4 492.1,182.4 491.4,182.2 490.9,181.9 489.9,181.1 489.5,180.9 489.5,180.8 489.2,180.9
			489,180.9 488.5,181 487.9,181.2 487.4,181.3 487.3,181.3 486.9,181.2 486.7,181.2 486.7,394.9 		"/>
		<polygon fill="#ED2939" points="486.7,177.2 486.7,176.9 486.7,176.8 486.7,177.3 		"/>
		<path fill="#FFFFFF" d="M484.1,394.7l0.8,0.7l1,0.5l0.7,0.2v-0.5l-0.1-0.1l-0.1-0.2l0.2-0.4l0,0V181.2l-0.1,0v0l-0.2-0.3l0-0.6
			v-0.7l-0.1-0.2v0l-0.3-0.4l-0.1-0.2l0-0.2l0.2-0.2l0,0l0.1-0.1l0-0.1l0.1-0.3l0.1-0.1l0.1-0.2l0-0.1v-0.5l0-0.2l-0.4-0.6l0,0v0
			l-0.7-0.3l-0.5-0.2h0l-0.3-0.5l0.1-0.6l0.7-1.6l0.3-0.6l0-0.1l0-0.3l0-0.3l0-0.2l0-0.1l0.1-0.3l0.3-0.7v0l0.2,0l0.2,0.2v-2.2
			l-0.7,0.1l-0.3-0.1l-0.1-0.5l0,0l-0.7,0.3l-2.7,2.5l-0.1,0.3l-0.1,0.4l0,0.2l0,0.1l0,0.1l0.1,0.1l0,0.1l0,0.1l-0.1,0.4L482,173
			l-0.2,0.6l0,0.1l-0.2,0.3l-0.2,0.1l-0.1,0.1l-1.1,0.2l-0.9,0.4l-2.6,1.2L476,176l-3.3-0.8L472,175l-0.7,0.1l-1.2,0.2l-0.3-0.1
			l-0.1,0l-1.4-0.7h0l0.2,0l0-0.3l0-0.2l-0.1-0.3l-0.1-0.3l-0.1,0h0l0.1-0.4l0.1-0.2l0,0l0,0l0.2-0.2l0.3-0.2l0.2-0.2l0.4-0.3
			l0.2-0.1l0.3-0.2l0.3-0.1l0-0.2v-0.1l-0.2-0.3l-0.1-0.2l-0.1-0.1l-0.4-1.6l-0.3-0.1l-0.3,0l-0.5,0.2l-0.2-0.1l-0.2-0.1l0.1-0.5
			l0-0.1l0.3-0.9l0.2-0.5l0.1-0.7l0.1-0.3l0,0l0.3-0.4l0.6-0.4l0,0l0.2-0.2l0-0.2l0-0.2l-0.2-0.2l-0.3-0.2l-0.2-0.1l-0.1-0.1
			l-0.2-0.1l-0.3,0.1h0l0,0.2l0,0.1l0,0.1h0l-0.1,0.1l-0.1,0.1l-0.3-0.1l-0.2-0.1l-0.5-1l-0.2-0.3l0,0l-0.5-0.4l-0.3-0.2l-0.2-0.1
			l-0.8-0.8l0,0l-0.5-0.2l-0.2,0l-0.3,0l-1.1,0.4l-0.5,0.2h-0.6l-0.1,0l-0.3-0.2l-0.2-0.2l-0.2-0.1l-0.5-0.2l-1-0.1l-1.1,0.1
			l-0.1,0.1l-0.2,0.1l-0.2,0.2l-0.5,0.7l-0.1,0.2l0,0.1l0,0l0,0.1l-0.1,0.1l0,0l0,0l-0.1,0.2l-0.9-0.8l-0.2-1.5l0-1.7l-0.2-1.4
			l-0.4-0.7l-0.5-0.4l-0.6-0.3l-0.6-0.1l-1.5,0h-0.1l-0.3-0.2h0l0.2-0.4l0,0l0-0.3l-0.2-0.2l-0.1,0l-0.3-0.1l-0.2,0l-0.1,0l-0.2,0.1
			l0,0l-0.1,0.1l-0.2,0.1l-0.1,0.1l-0.3,0.2l-0.9,0.3l-0.2,0.1l-0.2,0l-0.4,0l-0.4-0.1l-1.1-0.5l-0.3-0.2l-0.3-0.4l-0.1-0.1
			l-0.1-0.4l0-1.2l-0.7-2l-0.2-1.1l0.2-0.3l0.2-0.3l-0.1-0.3l-0.2-0.5l-0.2-0.3l0,0l-0.3-0.1v0l-0.4,0l-0.2-0.2l-0.3-0.7l-0.3-0.5
			l-0.1-0.2l-0.4-0.6l-0.4-0.4l-0.5-0.1l-0.1,0l-1.2,0.3l-0.8,0.2l-0.3,0.1l-1.1,0.3l-0.3,0.2l-0.3,0.2l-0.2,0.2L438,147l-0.3,0.5
			l-0.4,0.7l-0.3,0.2l-0.1,0l-0.2,0l-0.1,0l-0.1,0l0,0l-1.8-0.7l-0.3-0.1l-0.1-0.1l-0.3-0.2l-0.1-0.1l-0.1-0.1l-0.3-0.7l-0.1-0.2
			l-0.1-0.1l-0.8-0.7l-0.2-0.3l-0.1-0.2h0l-0.1-0.2l-0.3-0.2l-0.1,0l-0.2,0l-0.5,0.1l-0.2,0l-0.4-0.1l-0.2-0.1l0,0l-0.1-0.2
			l-0.1-0.2l-0.1-0.2l-0.1-0.1l-0.1-0.1l-0.1,0l-0.2-0.1l-0.1-0.1l0,0v0l0-0.1l0-0.1l0.2-0.4l0-0.2l-0.2-0.8l-0.3-0.8l0.1-0.3
			l0.2-0.2l0.4-0.3l0.1-0.1l0.1-0.1l-0.1-0.7l-0.4-0.5h0l-0.9-0.9l-0.3-0.7l0-0.3l-0.2-1.3l0-0.1l-0.3-0.7l-0.4,0.2l-1,0.4l-2.1,0.5
			l-1.5-0.2l-0.2,0l-0.3,0.1l-4.3,1.3l-4,0.5l-0.9,0.5l-0.4-0.1l-4.8,1.9l-0.8,0.7l-0.7,0.9l-0.4,0.4l-0.5,0.2l-0.5,0l-0.2,0.1
			l-0.6,0.5l0,0.2l0.1,0.5l0.4,1.3l0.2,0.8l-0.1,0.7l-0.3,0.5l-0.5,1.4l-0.1,0.6l0,0.8l0.3,1.6l0.1,1.7l0.1,0.5l0.7,1l-0.8,0.5
			l-0.1,1.5l0,1.7l-0.5,1.2v0.2l1.4,1v0.2l-1-0.2l-0.5,1l-0.2,1.4l0,1.2l0.2,0.3l1.1,0.5l0.2,0.5l0.2,0.4l0.4,0.3l0.5,0.2l0.5,0v0.3
			h-0.5l0.1,0.3l0.1,0.2l0.2,0.1l0.3,0v0.3l-0.2,0.2l-0.2,0l-2.5-1.1l-0.9,0.1l-0.9,1.1l-0.6,1.9l-0.2,0.3l-0.3,0.2l-1.3,1.5
			l-3.3,2.4l-1,1l-0.6,0.2l-0.6,0.4l-10.4,3.1l-2.2,0l-2,0.7l-1,0.6l-0.9,0.2l-3.2,1.7l-0.3,0.3l-3.3,1.4l-0.3,0.2l-0.3,0l-1.3,0.9
			l-0.4,0.4l-1,3.1l-1.3,2.2l-0.1,0.3l0,0.4l0.1,0.3l0.4,0.2l0.1,0.2l0.2,0.3l0.5,0.3l0.6,0.2l0.4,0h0.5l1.8,0.6l2.1,0.3l2.1-0.3
			l1.8-1l-0.4,0.5l-0.5,0.4l-1.2,0.5l-6.3,1.3l-1.7,1.1l-0.6,0.9l-0.2,0.2l-0.6,0.1l-0.7,0.6l-1.2,0.5l-4,0.9l-0.6,0.5l-2.4-1.3
			l-1.3-0.3l-0.8-0.5l-0.4-0.2h-0.5v217.7l0.2,0l0.6-0.3l1.2-0.9l0.2,0.2l0.2-0.1l0.2-0.2l0.1-0.3l0.4,0.3l1.5,0.8l0.3,0.6l0.7,0.1
			l0.7-0.2l0.5-0.2l-0.1,0.5l0.1,0.5l0.3,0.5l0.4,0.3l0.2,0.2l0,0.2l0.1,0.2l0.3,0.1l0.3,0.1l0.2,0.1l0.1,0.2l0.1,0.1l1,0.4l0.9-0.1
			l1.9-0.7l1.5-0.2l0.5-0.3l0.4-0.1l1.3,0.3l0.4,0.2l0.5,0.9l0.4,0.4l0.4-0.1l0.7-0.9l0.4-0.4l0.5-0.2l0.7,0.5l0.1,0.1l0,0.1l0,0.1
			l0.1,0.1l0.5,0.1l0.5,0l1-0.2l0.4,0.2l3.1-0.1l0.9,0.1l0.3-0.1l0.2-0.3l0-0.5l-0.2-0.5l-0.3-0.4l-0.4-0.1l0.2-0.3l0.1-0.1l0.2-0.1
			l-0.3-0.4l0.4-0.9l-0.1-0.7l0.1-0.5l0.6-0.2l0.7,0l0.4,0l0.9,0.3l0.4,0.1l0.5,0l0.4,0.1l1.1,0.6l0.7,0.3l0.2,0.2l0.4,0.4l0.3,0.1
			l0.2-0.1l0.2-0.2l0.3-0.1l0.2,0.1l0.4,0.3l0.2,0.1l2.1,0.1l0.5,0.2l0.4,0.4l0.2,0.4l0.2,0.5l0.3,0.4l0.4,0.3l0.3,0l0.8-0.3l3.1,0
			l0.6,0.1l-0.1,0.4l0.1,0.1l0.2,0l0.2,0.1l0.4,0.7l0.5,0.6l0.4,1.1l0.4,0.4l0.6-0.2l0.4-1.2l0.8,0l0.7-0.3l0.4,0l1.4,0.9l0.3,0.1
			l2.9,0.3l-0.2,0.6l0.4,0.2l0.6,0.2l0.3,0.4l-0.6,0.1l-0.5,0.4l-0.3,0.6l-0.1,0.8l0.1,0l0.1,0.1l0,0.1l0,0.1l0.5,0.2l1.6,0.2
			l0.5,0.2l1.4,0.9l0.6,0.1l0.5,0l0.4,0.2l0.3,0.5l0.3,1.2l0.2,0.5l0.5,0.4l0.3,0.2l0.3,0l0.7-0.1l0.4-0.1l0.3-0.2l0.4-0.4l0.6-0.4
			l0.1-0.2l0.2-0.5l0.1-0.2l0.4-0.2l1.2,0.1l1.6-0.4l0.8-0.1l0.7,0.4l0.3,0.2l1.5,0.6l0.8,0.2l0.4,0l0.2,0.5l0.4,0.5l0.5,0.4
			l0.5,0.1l0.5,0.3l0.3,0.1l0.3,0l0.2-0.1l0.2-0.5l0.2-0.2l0.5,0l1.2,0.4l0.6,0.1l0.7,0l0-0.1l-0.3-0.3l-0.2-0.6l0.2-0.3l1.1-0.8
			l0.4-0.2l0.5,0l1,0.1l0.5-0.1l0.4-0.2l0.8-0.7l0.4-0.2l0.4,0l0.4,0l0.4-0.1l0.8-0.6l0.8,0.3l0.4-0.3l0.3,0l0.7,0l0.2,0l0.2,0.3
			l0.2,0.3l0.2,0.2l0.3,0.2l0.5,0.2l0.6,0.1l0.7,0l1.7-0.3l0-0.2l0-0.8l-0.8-1l-1.8-1.6l-0.3-0.6l-0.3-2.4l0-0.4l-0.1-0.2l-0.1-0.1
			l-0.3,0l-0.1,0l-0.2-0.2L441,418l0-0.3l0.3-0.3l0.3,0.4l0.1,0.1l0.1-0.2l0.3-1.6l0-0.6l0-0.6l-0.1-0.5l-0.2-0.3l-0.3-0.1l-0.7-0.2
			l-0.4,0l-0.2-0.1l-0.2-0.2l-0.2-0.4l-0.2-0.2l1-1l0.3-0.1l0.1-0.2l0-0.7l0.1-0.2l0.2,0l0.4,0.2l0.2,0l0.4-0.4l-0.1-0.3l-0.7-0.5
			l-0.3-0.5l-0.1-0.5l0.2-0.4l0.5-0.1l-0.3,0.6l-0.1,0.3l0.1,0.2l0.3,0.1l0.1-0.3l0.1-0.3l0.2-0.2l0.1-0.2l0.1-0.4l0.1-0.8l0.1-0.3
			l0.5-0.5l0.1-0.4l-0.2-0.3l-0.4-0.2l-0.4-0.4l-0.2-0.9l0.1-0.2l0.3-0.1h0.7l0.1,0.1l-0.2,0.2l-0.5,0.3v0.2l0.3,0.2l0.2,0.2
			l0.1,0.1l0.2-0.1l0.7-1l0.1-0.4l0.3-0.3l0.6-0.5l0.2-0.3l0.2-0.6l0.2-0.3l0.4-0.5l3.5-2.4l0.9-0.4l0.6-0.1l1,0.5l0.5-0.2l2.1-2.3
			l0.8-0.6l2.8-1.4l5-3.8v-0.2l-0.9,0.3l-0.8,0.6l-1.3,1.3l-1.3,1l-0.8,0.4l-0.9,0.1v-0.2l2.1-0.8l0.3-0.4l0.1-0.5l0.2-0.3l1.6-1.3
			l0.7-0.4l1.6-0.4l1.1-0.7l0.7-0.2l1.4-0.2l-0.2,0.5l-0.3,0.3l-0.4,0.2l-0.6,0.1l-1.2,0.1l-0.6,0.2l-0.3,0.4l0.9-0.4l1.5-0.1
			l1.5,0.1l0.6,0.5l0,0.1l0.5,1.7l0.1,0.3l0.2,0.2l0.5,0.2l0.6,0.1l7.8,0.2l1.1,0.2l0.7,0.5l0,0.6l-0.2,0.7l-0.2,0.5l-0.1,0.2
			l0.7,0.3l1,0.3l3.7,0.2l0.9-0.3l-0.6-0.6l-0.8-0.5l-0.7-0.7l-0.4-1.1v-2.3l-0.1-0.3l-0.7-1.1v-0.2l0.4,0.2l0.4,0.5l0.3,0.5
			l0.2,0.5l0.1,0.5l-0.1,1.9L484.1,394.7z M414.5,425.5l-0.3,0h-0.1l-0.6-0.1l-0.3-0.2l0-0.4l0.3-0.6l0.3-0.1l0.3,0.3l0.3,0.5
			L414.5,425.5L414.5,425.5z"/>
		<polygon fill="#002395" points="318.1,213.6 318.1,213.6 318.2,213.7 318.1,213.5 318.1,213.4 318,213.3 317.9,213.3 317.9,213.5
			318,213.6 		"/>
		<polygon fill="#002395" points="352.1,197 351,196.5 350.4,196.4 349.5,196.9 348.9,196.8 347.8,196.5 343.5,196.3 340.5,195.2
			337.2,195.1 336.7,195.2 336.3,195.7 336.1,196.2 336.4,196.5 336.4,196.8 335.9,196.9 335.6,196.7 335.4,196.5 335.2,196.3
			334.9,196.3 334.6,196.5 334.4,196.5 334.3,196.1 334.4,196 334.5,195.8 334.6,195.6 334.7,195.2 334.6,194.4 334.3,193.9
			332.4,191.7 332,190.7 331.6,190 331.3,189.3 331.4,188.5 331.6,188.3 331.8,188.3 332.3,188.2 332.4,188.1 332.5,187.8
			332.6,187.4 333.3,187 333.1,186.4 332.6,185.3 332.5,184.7 332.4,184.5 332.2,184.4 329.1,183.9 328.7,183.9 327.5,184.2
			327.2,184.5 326.5,185.3 326.1,185.6 325.7,185.8 325.4,185.8 324.9,185.6 324.6,185.6 324.3,185.7 323.9,186 323.7,186.1
			323.5,186 323.5,185.8 323.5,185.7 323.4,185.6 323,185.6 321.2,185 319.5,184.8 318.9,184.6 318.8,184.6 318.5,184.6
			318.4,184.6 318.3,184.4 318.2,184 318.1,183.9 317.8,183.8 317.1,183.9 316.8,183.8 316.3,183.4 316.1,183.4 315.4,183.4
			315.3,183.7 315.4,184.2 315.2,185.1 316.3,185.5 317.1,185.7 317.3,185.9 317.5,186.3 317.7,186.7 317.8,187.2 317.8,187.8
			317.7,188.9 317.6,189.2 316.9,189.8 316.7,190.3 316.8,190.5 317.5,191.3 317.7,191.6 317.8,191.9 317.8,192.1 317.9,192.3
			318.2,192.9 318.3,193.1 318.4,193.3 318.4,193.9 318.3,195.1 318.4,195.5 318.7,195.8 319,195.7 319.3,195.6 319.6,195.5
			319.6,195.7 319.5,195.8 319.5,196 320,196.3 320.5,196.8 321,197.1 321.2,196.5 321.4,196.5 321.7,197.2 321.7,197.5
			321.2,197.5 321.4,198 321.7,198.4 322.4,198.9 322.3,199 322.2,199 322.1,199.2 322.4,199.6 322.9,200.9 323.3,201.3
			323.5,200.7 324,200.7 324.6,201 325.2,201.1 325.2,201.3 324.3,201.1 323.8,201.1 323.6,201.5 323.7,202.1 323.8,202.8
			323.9,203.4 324.1,204 324.3,203.8 324.3,203.8 324.6,204 324.2,204.3 324,204.5 323.8,205 323.7,205.4 323.7,205.8 323.8,206.1
			324.1,206.2 324,206.5 324,206.9 324,207.7 324,208 324.2,208.4 324.4,208.6 324.5,208.4 324.7,207.9 325.1,207.6 325.7,207.6
			326.2,207.9 326.2,208.1 325.6,207.8 325.2,208 325.1,208.5 324.8,210.5 324.9,210.7 325.2,210.8 325.3,211 325.3,211.3
			325.2,211.7 325,211.4 324.8,211.8 324.6,213.4 324.4,213.9 324.2,214.2 323.8,214.3 323.8,214.6 324.4,214.7 324.7,215.3
			324.8,216.1 324.8,217.1 325.1,217.9 326,218.7 326.2,219.5 326.3,219.7 326.6,219.9 327.5,220.1 327.6,220.2 327.7,220.4
			327.8,220.7 327.8,220.8 328,220.8 328.1,220.6 328.1,220.6 329.1,220.6 329.6,220.9 330,221.5 329.1,221.2 326.4,221.7
			324.4,221.5 324,221.6 322.8,222.2 320.8,222.5 318.9,222.5 317.9,222.2 317.3,221.6 317.3,220.8 317.9,219.8 317.7,219.6
			317.7,219.4 317.7,219.3 317.7,219.1 315.2,219.6 315.3,219.8 314.4,219.8 314.2,220 314.1,220.2 314.1,220.4 314,220.6
			313.6,220.7 313.3,220.9 313.2,221.2 313.1,221.5 313.3,221.9 313.8,223 314,223.2 314.3,223.2 314.6,223.3 314.8,223.5
			315,223.9 314.7,223.7 314.6,223.6 314.5,223.4 314.3,223.4 314.4,224 314.8,224.6 314.6,224.9 315.3,225.3 314.5,225.8
			314.3,226 314.4,225.3 314.2,224.8 313.6,223.9 313.7,223.8 313.8,223.4 313.5,223.3 313.2,223.1 313.1,222.7 313.1,222.3
			312.5,221.4 312.5,221.3 311.3,221.4 310.1,221.7 310.4,222.2 310.5,222.5 310.7,222.7 310.3,222.4 310,222.4 309.7,222.6
			309.5,223 309.7,223.1 309.8,223.2 309.8,223.4 309.4,223.6 309.2,223.4 309.1,223 308.9,222.5 309,222.9 308.9,223.2
			308.7,223.5 308.4,223.6 308.4,223.3 308.3,222.9 308.1,222.6 307.8,222.5 307.7,222.3 307.6,221.5 307.5,221.3 306.9,221.5
			306.4,222 305.9,222.3 305.5,222 306.2,221.3 306.3,221.1 306.4,220.9 306.5,220.7 306.7,220.6 306.7,220.3 306.4,220.3
			306.1,220.2 305.9,220 305.8,219.6 305.5,220.2 304.8,220.8 304.1,221.3 303.4,221.5 303.2,221 302.6,221 301.5,221.3 302,221.5
			302.2,221.5 302.2,221.7 301.9,222.1 300.2,223.1 299.7,223.2 299.4,223.4 299.3,223.6 298.7,224.5 298.2,225 297.8,225.1
			296.8,225.1 296.7,225.4 296.7,225.9 296.6,226.2 296.2,225.9 296,225.7 295.8,225.4 295.6,225.3 295.3,225.3 295.5,225.1
			295.6,224.9 295.7,224.7 295.8,224.4 294.4,223.7 293.8,223.3 293.4,223.2 293.3,223.1 293.2,222.8 293.3,222.7 293.3,222.5
			293.3,222.3 293.2,222.1 293,221 291.3,219.7 291.1,219.4 290.8,219 290.3,218.6 289.9,218.4 289.9,218.2 290,218.1 290.3,217.9
			290.2,217.7 290.2,217.5 290.3,217.2 289.8,217 288.5,216.9 287.9,216.7 287.9,216.5 287.5,216.5 287.5,216.2 288,215.9
			288.1,215.8 288.4,215.8 288.4,215.6 288.4,215.6 288.3,215.6 288.2,215.5 288.4,215.3 288.1,215.1 287.9,215 287.6,215.1
			287.4,215.3 286.9,215.2 286.4,215.9 285.6,217.4 285.4,217.4 285.4,217.2 286,216.5 286.1,216.2 286.5,215.3 286.6,215.1
			286.3,214.8 286.3,214.6 286.5,214.2 286.5,213.9 286.3,213.6 286,213.4 285.7,213.4 285.2,214 284.9,213.9 284.7,214.1
			284.1,214.6 283.3,215.5 283.1,215.8 283,216.2 282.9,216 282.9,215.9 282.8,215.8 283.2,215.4 283.4,214.8 283.4,214.1
			283.2,213.6 282.8,213.5 282.1,214.4 281.8,214.3 281.6,214.3 281.3,214.5 279.2,215.3 279.1,215.4 278.8,215.6 278.6,215.8
			278.3,215.8 277.7,215.8 277.8,215.6 277.8,215.5 277.9,215.4 278,215.3 277.7,215.3 276.8,214.8 276,214.7 275.8,214.6
			275.6,214.6 275.5,214.9 274.9,215.8 274.2,216.1 273.9,216.4 274,216.9 274.9,217.9 275.3,218.2 274,218.4 273.9,218.6
			274,219.1 274.2,220 273.9,220.1 273.1,220.1 272.5,220 272.5,219.4 271.6,219.6 271.3,219.6 271,219.4 270.4,219 270.1,218.9
			269,218.9 268.5,218.8 268.2,218.4 268.2,218.6 268.2,218.8 268.1,218.9 268,219.1 267.7,218.9 267.5,219.3 267.4,220
			267.5,220.6 267.3,220.4 267.2,220.3 267.1,220.1 267,220.1 267.1,220.8 267.2,221.1 267.3,221.3 267.1,221.5 267.3,221.7
			267.1,222 266.8,221.6 266.1,221.1 265.7,220.8 265.7,220.6 265.9,220.5 266.1,220.3 265.6,220.2 265.2,220.4 264.5,221
			264.7,220.6 264.6,220.2 264.5,220 264.2,219.8 264.2,219.6 264.4,219.6 264.4,219.4 264.1,219.3 264,219.1 264.1,218.8
			264.2,218.5 264,218.4 263.1,218.6 262.6,218.9 262.3,219 262,219.1 262.1,219.4 262,219.7 261.9,219.9 261.8,220.1 261.6,220.1
			261.5,219.8 261.4,219.6 261.2,219.6 261.1,219.8 260.6,219.6 260.1,219.6 259.5,219.7 259,219.8 258.6,220.1 258.1,220.5
			258,220.9 258.5,221 258.5,221.3 258.2,221.3 257.6,221.1 257.3,221 257,221.1 256.3,221.5 255.7,221.6 255.8,220.8 255.4,220.3
			254.7,220.3 254.1,220.5 253.4,220.9 252.6,221 252.6,221.3 252.8,221.3 253.1,221.5 252.6,221.5 251.7,221.9 251.2,222
			249.2,222 249.2,222.2 249.4,222.3 249.5,222.4 249.4,222.6 249.3,222.7 250,223 249.6,223 248.4,222.7 248.1,222.9 248.3,223.4
			248.8,224.1 248.5,224.2 247.7,223.8 247.2,223.6 246.4,223.7 245.9,223.9 245.5,224.1 245.7,224.4 245.5,224.3 245.2,224.1
			244.7,224.7 244.1,225.8 243.9,226.8 244.5,227.2 244.5,227.4 244,227.6 243.7,228.1 243.6,228.7 243.6,229.4 244.1,230.3
			244.1,230.7 243.6,230.8 243.8,231.5 244,231.9 244.4,232 245.6,232 245.9,231.9 245.9,231.6 245.9,231.4 246,231.3 246.5,231.3
			247.3,231.7 247.8,231.8 248.3,231.7 249,231.3 250.3,231.1 251.9,230.1 252.6,229.8 254.3,229.6 254.8,229.4 255.6,229
			256.1,228.9 253.7,230.2 253.4,230.4 252,232 252,232.2 252.3,232.2 252.6,232.1 252.9,231.9 253.1,231.8 253.3,232 253.2,232.1
			253.2,232.1 253.1,232.2 253.7,232.1 254.5,231.6 254.9,231.8 255,231.6 255.1,231.4 255.2,231.3 255.4,231.3 255.4,231.5
			255.2,231.5 255.2,231.8 255.6,231.6 256.2,231.3 256.6,231.3 256.1,231.7 255.9,231.9 255.7,232.1 255.7,232.2 255.5,232.3
			255.4,232.4 255.2,232.7 256.3,232.6 256.4,232.6 256.6,232.9 256.9,233 257.2,232.9 257.5,232.7 257.6,233.1 257.9,233.2
			258.7,233.2 258.7,233.4 256.6,233.8 256.1,233.6 256.4,233.6 256.6,233.6 256.8,233.4 255.1,233.5 253.9,233.8 253.6,233.9
			253.3,233.8 253.1,233.7 252.9,233.5 252.6,233.4 250.4,233.6 249.7,233.3 250,232 249.6,231.8 249.3,232.1 248.8,233.2
			248.9,233.3 248.9,233.5 248.9,233.8 248.6,233.9 248.3,233.8 248.1,233.8 247.9,233.7 247.6,233.9 247.7,234.2 247.6,234.6
			249.1,234.6 249.4,234.7 249.6,235.1 249.5,235.2 249.3,235.4 249.2,235.8 249.2,236 249.4,236.3 249.7,236.7 249.6,236.9
			249.3,237.7 250,237.5 250.4,236.8 250.8,236 251.2,235.4 251.9,235.2 253.2,236 253.8,235.8 253.9,236 254,236.2 254.2,236.4
			254.4,236.5 255.4,236.7 255.8,237 255.9,237.8 256,238 256.3,238.4 256.4,238.8 256.2,239.8 256.1,240 255.7,240.2 254.3,239.8
			246.2,241.5 246,241.4 245.8,241.2 245.7,241.2 245.6,241.3 245.6,241.5 245.6,241.6 245.4,241.8 245.3,242 245.2,242.3
			245,242.4 246.9,242.9 247.8,242.8 248.2,242.9 249,243.6 249.3,243.4 249.6,243.1 249.9,242.9 250.2,243 252.4,244.6 253.6,246
			254,246.7 254.3,247.6 254.6,248.5 254.7,249.1 254.6,249.3 254.4,249.4 254.2,249.4 254,249.5 254,249.7 254,250.1 254,250.4
			257.7,250.6 258.3,250.4 258.7,250.2 259.5,249.5 259.5,249.2 258.8,249.2 258.8,249 258.9,248.9 259,248.8 258.6,248.5
			258.7,248.1 259.1,248 259.5,248.8 259.8,248.5 260,248.4 260.3,248.3 260.6,248.3 260.6,248 260.3,247.8 259.9,247.3
			259.8,246.8 260.1,246.4 260.1,247 260.4,247.5 260.7,247.9 261,248 261.4,248.1 261.7,248.2 262.5,248.8 262.6,248.5
			262.8,248.4 263,248.4 263.3,248.3 263.3,248.6 263.1,248.7 262.9,248.8 262.6,248.8 263.2,248.9 263.7,248.3 263.9,247.8
			263.7,247.1 264.3,247.2 265,247.6 265.5,248.1 265.6,248.5 265.9,248.7 266,248.7 266.3,248.8 266.2,249.1 266.3,249.4
			266.4,249.5 266.6,249.7 267.1,250.5 267.1,250.6 267.6,250.6 268.1,250.5 268.7,250.5 269,250.9 270.4,250.2 270.6,250.3
			270.8,250.7 271.3,250.9 272.2,250.9 272.3,250.9 272.6,251.2 272.8,251.3 273,251.4 273.7,251.3 274.6,251.5 275,251.5
			275.3,251.3 275.4,251.6 275.5,251.7 275.8,252 276.1,252.7 276.9,253.6 277,253.8 277.3,253.9 279.4,253.4 279.4,253.2
			279.3,253 279.1,252.9 278.9,252.8 279.5,252.7 280.2,252.3 280.9,251.7 281.5,251.1 281.5,251.3 281.1,251.6 280.9,252
			280.6,252.7 280.4,252.8 280,252.7 279.9,252.8 279.9,253.2 279.9,253.3 279.8,253.4 279.6,253.4 279.6,253.7 280.6,253.8
			281.1,253.9 281.5,254.2 281.5,254.4 280.5,254 280,254 279.6,254.2 280.2,254.2 281.3,254.4 282,254.6 282.8,255.4 282.9,255.6
			283.2,255.4 283.3,255.1 283.4,254.8 283.7,254.6 283.5,254.3 283.4,254.2 283.7,254.1 283.9,253.8 284.1,253.7 284.4,253.9
			284.4,253.8 284.4,253.7 284.5,253.7 284.6,253.7 284.5,253.2 284.3,252.9 284.1,252.6 283.7,252.5 284.1,252.4 284.5,252.6
			284.7,252.6 284.9,252.3 285.1,252.3 285.1,252.5 285.1,253.2 285.2,253.1 285.5,253 285.6,253 285.6,253.3 285.6,253.6
			285.7,253.7 285.8,253.9 283.9,254.7 283.6,255.7 283.5,256.1 283.6,256.3 283.9,256.5 284.2,256.6 284.4,256.7 284.8,257.1
			285,257.5 285.2,258.1 285.3,258.9 285.2,259.4 285,260 284.9,260.3 285,260.7 285.3,261.6 285.4,261.6 285.6,261.5 286.1,261.6
			286.5,261.6 285.9,261 285.5,260.2 285.3,259.3 285.6,258.1 285.5,258.1 285.4,257.9 285.3,257.9 285.5,257.5 285.8,257.5
			286.1,257.7 286.3,257.9 286.1,258 286,258.1 286.3,258.3 286.7,258.3 287.5,257.9 287.7,258 287.8,258.1 288.2,258.1 288,257.7
			288.1,257.3 288.3,257.2 288.4,257.8 288.5,258.2 288.7,258.3 288.9,258.1 288.7,257.6 289.1,257.9 289.3,258.3 289.6,258.5
			289.8,258.4 290,258.7 290.1,258.8 290.2,258.7 290.2,258.6 290.3,258.4 290,258.1 289.7,257.8 289.5,257.4 289.4,257
			289.4,256.2 289.4,256 289.3,255.6 289.2,255.3 289.4,255.3 289.5,255.7 289.7,256 289.9,256.2 290.3,256.2 290.1,256.4
			290,256.7 290,257 290.1,257.4 290.3,257.4 290.4,257.3 290.5,257.2 290.8,257.2 290.8,257.4 290.6,257.4 290.6,257.6
			291.5,257.4 292,257.2 292.2,256.8 292.4,256.6 293.7,256.5 294.3,256.2 293.9,256 294.7,256.1 295,256.3 295.3,256.7
			294.8,256.6 294.3,256.5 295.5,257.2 295.6,257.4 295.9,257.4 296.1,257.3 296.2,257.2 295.8,256.9 296.1,256.8 296.3,256.7
			296.2,256.5 296,256.2 296,256 296.6,256.7 296.4,257.3 295.5,258.6 295.6,258.8 295.1,259.1 294.4,259.2 293.8,259 293.4,258.6
			293.2,259.1 293.2,259.3 293,259.1 292.8,259 292.7,259.1 292.5,259.3 292.4,259.3 292,258.6 291.3,258.6 290.9,258.9 291.3,259
			291.3,259.2 291.3,259.3 291.4,259.3 291.7,259.3 291.9,259.5 292,259.6 292.1,259.7 292.5,260.3 292.5,260.5 292.9,260.8
			293.2,260.9 293.6,261 294.1,260.9 295.4,260.5 295.8,260.5 296.6,260.7 297,260.6 297,259.7 297.3,259.9 297.6,260 298.2,260
			298.2,259.8 298.1,259.6 297.9,259.6 297.7,259.5 298.1,259.4 298.5,259.5 298.9,259.4 299.3,259 299.1,259.5 298.7,259.9
			298.2,260.1 297.9,260.2 298.1,260.4 298.3,260.4 298.4,260.3 298.7,260.2 299.6,260.2 300.4,260 300.8,259.9 301.2,260
			303.1,260.7 303.5,260.7 304.2,260.6 304.6,260.7 304.1,260.6 303.2,260.9 301.6,261 301.3,261.2 301.7,261.6 301.5,262.3
			301.8,262.5 302.3,262.5 302.7,262.8 302.5,263.3 302.9,263.4 303.5,263.4 303.9,263.5 303.8,263.7 303,264.2 302.7,264.4
			302.5,264.2 302.7,264.1 302.7,264.1 302.7,264 302.3,263.9 302,263.8 301.8,263.8 299.8,264.9 300.8,265.5 301.1,266 301.2,267
			301.3,267 301.5,266.7 301.5,266.5 301.3,266.3 301.4,266.2 301.5,266.2 301.7,266.1 302.1,266.5 302.6,267 302.8,267.5
			302.4,267.9 301.8,268 300.7,267.5 300.1,267.5 300.1,267.7 302.5,268.8 303.2,268.8 303.3,268.7 303.3,268.5 303.4,268.3
			303.6,268.1 303.8,268.1 304,268.1 304.4,268.1 304.8,268.4 305.5,269 305.8,269.3 306.3,269.5 306.8,269.5 307.3,269.3
			307.8,268.8 308.6,268.6 308.9,268.4 309,268.2 309.1,267.9 309.3,267.7 310.1,267.2 313.5,267 314.5,267.3 314.8,267.6
			315.1,267.7 315.7,267.7 316.2,267.9 317,268.4 317.9,269.1 318.7,269.9 319.1,270.2 320.2,270.4 320.7,270.7 319.3,270.7
			318.7,270.4 318.2,269.9 317.9,269.7 316.9,269.5 315.8,268.8 315.8,268.6 316.4,268.6 316.1,268.4 315.9,268.2 315.6,268.1
			315.3,268.1 315.5,268.4 315.1,268.4 313.8,268.1 313.6,267.9 313.4,267.7 313.2,267.7 313.1,267.8 312.9,267.9 310.6,268.1
			310,268.4 309.8,268.7 309.6,269.1 309.5,269.5 309.5,269.9 309.5,270.4 309.8,270.9 309.8,271.4 309.7,271.9 309.6,272.2
			309.4,272.3 308.6,272.4 308.3,272.6 308.1,272.8 307.7,273 308.6,273.5 311.5,273.9 313,274.7 313.4,275.1 313.7,275.5
			314,276.1 314,276.6 313.6,276.9 313.3,277.5 312.9,278.8 312.6,279.3 311.6,279.8 311.2,280.2 311.4,280.7 310.7,281.1
			310.6,281.4 310.5,282.2 310.5,282.7 310.6,283.4 310.8,283.9 311.1,284.1 311.7,284.3 312.5,284.8 313.9,286.2 314.7,287.6
			314.9,287.8 315.3,287.8 315.7,288 316.1,288.2 316.3,289.1 316.6,289.4 317,289.7 317.4,290.1 317.5,290.5 317.7,290.9
			317.9,291.3 318.3,291.5 318.2,292.1 318.7,294.5 319,294.8 319.2,294.9 319.3,294.8 319.3,294.5 319.1,293.9 319.1,293.5
			319.4,293.9 319.6,294.6 319.8,294.9 320.1,295.1 320.8,295.3 321.7,295.9 323,296.2 323.4,296.5 323.2,296.9 323.9,297.1
			325.6,297.2 326.3,297.3 326.9,297.7 327.3,298.3 327.4,299.1 327.7,299.9 328.3,299.9 329.7,299.5 330,299.6 330.6,300.1
			331.4,300.5 331.6,300.6 332,300.7 332.5,301.3 333,301.8 333.6,302 333.6,300.9 334.5,300.4 335.7,300.5 336.2,301.2
			336.3,301.7 336.4,302 336.4,302.2 336.2,302.7 334.5,303.6 334.2,304.1 334.3,304.7 334.1,304.9 333.8,305.2 333.7,305.5
			333.7,305.8 334,306 334.2,306 334.4,306 334.7,306.1 335,306.1 335.2,306.1 335.2,306.2 335.2,306.3 335.2,306.5 335.3,306.6
			335.5,306.6 336.1,307 335.8,307.3 335.8,307.4 335.9,307.5 336.1,307.7 336.1,307.7 336.5,307.8 336.6,307.9 336.6,308
			336.6,308.3 336.8,308.8 336.8,309.1 336.9,309.4 337.4,309.6 337.5,309.7 337.7,309.8 337.8,310 337.8,310.2 337.5,310.7
			337.2,311 336.7,311 336.2,310.7 336.6,311.8 336.8,312.2 337.3,312.4 337.1,312.5 336.9,312.8 336.7,312.9 336.9,313.1
			337.1,313.4 337.2,313.7 337.3,314.1 337.2,314.4 337,314.5 336.8,314.5 336.6,314.5 336.2,314.7 335.9,315 335.8,315.1
			335.6,315.3 335.5,315.5 335.2,315.6 335.4,316 335.6,316.5 335.7,316.9 335.7,317.3 335.8,317.6 336.5,318.3 338.8,320
			339.3,320.6 337.6,319.8 337.3,319.6 337,319.4 335.4,317.7 334.9,317.7 333.2,318.1 333.2,318.6 332.8,320.9 333.2,321
			334.1,320.8 334.6,321.2 334.9,321.5 335.2,321.9 335.7,322.1 336.1,322.2 336.9,322.5 338.2,323.7 339.1,324 339.2,324.1
			339.3,324.8 339.4,324.9 343,327.3 344.2,328.5 344.7,329.3 345.2,330.2 346.1,332.3 346.4,333.6 347.4,339.8 347.7,340.9
			348.1,341.7 349,342.4 350.1,342.7 351.1,343.1 351.8,344.2 351.2,343.7 350.6,343.5 350,343.3 349.2,343.3 349.8,343.6
			350.3,344.2 350.6,344.9 350.4,345.7 350.5,346.1 350.6,347.1 350.7,347.5 350.4,347.3 350.2,346.7 350.1,346.1 350,345.4
			350.1,344.9 350.1,344.6 349.9,344.2 349.6,343.9 348.8,343.5 347.9,342.6 347,341.6 346.2,339.7 346.1,339.3 345.6,336.3
			345.3,335.1 345.2,334.4 344.9,333.5 344.2,332.5 341.1,329.4 340.7,329.3 339.7,328.7 338,327.5 337.8,327.3 337.5,326.9
			337.4,326.7 337.4,326.5 337.5,326.3 337.6,326.2 337.6,325.9 337.6,325.6 337.5,325.5 337.3,325.3 336.9,325.5 336.5,326
			335.6,327.6 335.5,328.1 335,335 334,340.2 332.4,356.2 332.6,355.8 332.8,355 333.1,353.6 334.2,352 334.4,351.7 334.5,351.7
			334.5,351.5 334.6,351.4 334.7,351.3 334.8,351.3 335,351.4 335.1,351.5 335.2,351.5 335.5,351.6 337.4,353.3 337.6,353.7
			337.3,353.7 337.9,354.3 337.9,354.8 337.4,355.2 336.5,355.3 334.9,354.9 334.3,354.9 333.8,355.5 333.3,357 333.3,357.4
			333.2,357.6 332.5,358.5 332.5,358.8 332.7,359.7 332.8,360.1 332.6,362.1 331.9,366.7 330.3,375.7 329.4,379.9 328.8,381.7
			327.8,386.9 327.2,388.7 327,389.7 326.6,390.9 326.4,391.3 325.1,392.2 324.8,392.5 324.7,392.8 324.2,393.8 324,394.1
			323.5,394.4 322.9,394.7 322.3,394.9 320.1,395.2 319.6,395.4 319.5,395.6 319.1,395.4 318.9,396.2 318.9,396.9 318.9,397.3
			319.6,397.6 319.9,398 320,398.6 320.2,398.9 320.4,398.8 320.7,398.7 321.3,398.6 321.8,398.4 322,398.5 322.5,398.7
			322.7,398.8 322.7,399 322.7,399.2 322.7,399.5 322.9,400 323,400.1 323.3,400.3 323.6,400.3 323.9,400.3 324.2,400.1
			324.3,399.8 324.5,399.3 324.9,399.1 325.4,399.1 326.2,399.3 327.2,399.8 327.5,399.8 327.8,399.7 328.1,399.7 328.8,400.4
			328.9,401.5 328.6,402.8 328.3,403.8 327.9,404.2 326.9,405.2 326.7,405.5 327,406.2 327.5,406.6 328,406.9 328.6,407.1
			329.3,407.1 329.8,407 330,406.6 330,405.8 330.2,405.1 330.6,404.7 331.2,404.5 331.8,404.6 331.2,405 331,405.4 331.2,405.9
			331.6,406.3 332.1,406.6 333.5,406.8 334.4,407.3 335.2,407.9 336.2,407.8 336.4,407.9 336.8,408.1 337,408.3 337.8,408.4
			338.3,408.5 338.6,408.8 339.5,409.4 340.4,409.7 342.4,409.8 344.4,409.5 345,409.7 345.5,410.8 345.5,411.1 345.4,411.2
			345.4,411.4 345.5,411.7 345.8,411.9 346,411.9 346.3,411.9 346.5,411.9 347.4,412.4 347.9,412.8 348.8,414 348.9,414.1
			348.8,414.2 348.8,414.4 349,414.4 349.4,414.4 349.5,414.5 349.6,414.7 349.6,414.9 349.6,415 349.9,415.2 350,415.2
			350.5,414.9 350.7,414.8 350.7,414.1 351.4,414.1 352.7,414.7 353.3,414.6 353.3,197 		"/>
		<polygon fill="#002395" points="283,267.3 284.3,267.6 286.2,267.8 286.9,267.6 287,267 286.8,266.7 286,266.8 285.7,266.6
			284.8,265.8 284.8,265.7 284.1,265.3 283,264.7 282.7,264.6 282.5,264.5 282.3,264.5 282.2,264.7 282,264.9 282.1,265.4
			282.4,265.9 282.6,266.5 282.5,267 		"/>
		<polygon fill="#002395" points="235.7,227.8 235.9,228.2 235.8,228.2 235.6,228.2 235.5,228.2 235.5,228.4 236,228.3 237.3,227.7
			237.3,227.4 237.1,227.5 237,227.4 237,227.3 236.9,227.2 236.4,227 235.9,227.2 234.8,227.7 234.8,227.9 235.5,227.8 		"/>
		<polygon fill="#002395" points="308.8,277 308.2,276.7 307.8,276.6 306.3,276.7 306.8,277.2 307.2,278.5 307.6,279 308.2,278.7
			308.9,279.1 309.4,279.9 309.8,280.7 310.2,280.9 310.3,280.4 310.3,279.7 310.1,279.3 309.9,279 309,278.6 308.8,278.3
			308.7,277.8 308.8,277.4 		"/>
		<polygon fill="#002395" points="327.1,303.4 327.2,303.2 327.2,303 327.1,302.8 326.9,302.7 326.4,302.6 325,302.9 325,303.1
			325.3,303.3 326.3,304.4 326.7,304.5 328.1,304.3 330.5,305.7 331.7,305.9 331.8,306 331.9,306.1 332.2,306 332.4,305.9
			332.6,305.9 332.3,305.3 331.8,304.7 331.2,304.4 328.7,304 328.3,303.8 328.3,303.6 328.6,303.6 328.6,303.4 328,303.5
			327.3,303.8 326.6,303.8 326.2,303.1 326.5,303.1 		"/>
		<polygon fill="#002395" points="305.3,286.9 304.8,286.8 304.3,286.9 304.1,287.2 304.4,287.8 306.5,287.8 307,288 306.7,287.6
			306.3,287.3 		"/>
		<polygon fill="#002395" points="333.1,311.5 332.8,311.2 332.4,311.2 332.1,311.3 331.8,311.2 331.2,310.6 330.4,310 329.6,309.6
			328.8,309.5 329.3,310.7 329.6,311.4 329.6,311.8 329.5,312.1 329.9,312.7 330.4,313.3 331,313.6 332.4,315.2 332.7,315.6
			332.9,316.1 333.3,317.2 333.7,317.4 334.1,316.9 334.4,316 334.6,314.6 334.5,314.3 334.3,314.1 333.6,313.7 333.3,313.4
			333.5,313.1 333.5,312.9 333.2,312.6 333.2,312.3 333.2,312 		"/>
	</g>
	<path fill="none" stroke="#999999" stroke-width="0.25" stroke-linecap="round" stroke-linejoin="round" d="M597.7,458.6
		L597.7,458.6l-0.3,0l0,0.2l0.1,0l0.1,0l0.1,0.1l0-0.1l0,0l0.1,0l0-0.1l-0.1,0L597.7,458.6z M597.5,459.5l-0.1,0l-0.1,0.2l0.2,0.2
		l0-0.1l-0.1-0.1V459.5z M605.2,430.1l-0.1-0.6l-0.5-1.2l-0.1-0.6l0-0.6l0.1-0.5l0.1-0.4l0.2-0.4l-0.3-0.7l-0.1-0.9l0.1-1.8
		l-0.1-0.6l-0.2-0.5l-0.7-1l0.4,0.8l0.1,0.2l0.1,0.5l-0.7-0.3l-0.2-0.1l-0.2-0.3l-0.1-0.2l-0.1-0.2l-0.2-0.2l0.1-0.2l0-0.2l-0.1-0.2
		l-0.1-0.3l-0.1,0l-0.1,0l-0.1-0.1l-0.1-0.1l0-0.1l0.1-0.1l0.1-0.1l0-0.1l0-0.9l0.1-0.4l0-0.4l0.8-2.9l0-0.9l-0.5-2.9l0.1-0.6
		l-0.3-0.3l-0.1-0.4l0-0.3l0.2-0.3v-0.2l-0.5-0.3l-0.2-0.2l-0.3-0.4l-0.4,0.2l-1,0l-0.4,0.2l-0.1,0.4l0,0.5l0.2,0.5l0.3,0.2
		l-0.1,0.3l0,0.1l0,0.1l0.1,0.2l-0.6,0.6l-0.2,0.2l-0.1,0.3v0.3l0.2,0.3v0.3l-0.7,0.9l0.4,0.5l0.3,0.5l0.1,0.5l-0.2,0.6l0.2,0.7
		l-0.4,0.9l-0.9,1.4h-0.2l-0.2-0.6l-0.1-0.3l-0.2-0.2l-0.2-0.2l-0.5-0.3l-1.3-0.3l-0.2,0l-0.3-0.1l-0.6,0l-0.6,0.1l-0.3,0.2
		l-1.4,1.4l-0.1,0.6l-0.8,0.4l-2.8,0.6l-1.6,0.8l-0.9,0l0.2,0.2l-0.1,0.5l-0.2,0.4l-0.3,0.3l-0.4,0.1l-0.3-0.1l-0.2-0.2l-0.3-0.1
		l-0.4,0.2l-0.1-0.3l0-0.1l-0.1,0l-0.2-0.1v0.2l0.2,0.3l-0.1,0.7l0.1,0.3l-0.5,0.1l-0.4,0.2l-0.3,0.4l-0.2,0.8l-0.1,0.1l0.1,0.1
		l0.3,0l0.1,0.1l-0.1,0.2l-0.3,0.4l0,0.4l-0.1,0.3l-0.2,0.2l-0.8,0.1l-0.1,0.1l-0.1,0.1l-0.1,0.1l-0.1,0.2l0,0.3l-0.1,0.1l-0.3-0.2
		l-0.2,0.2l-0.2,0.1H580l-0.2-0.2l-0.1,0.3l0,0.4l0.1,0.3l0.2,0.3l-0.2,0.2l1-0.4l0.5,0l0.6,0.4l-0.8,0.4l-0.1,0.1l0,0.2l0.1,0.1
		l0.1,0l0.4-0.3l0.1,0.1l0.1,0.2l0.1,0.1l0.9,0.4l0.1,0l0.4,0.3l0,0.2l-0.1,0l-0.1,0l-0.1,0.1l-0.3,0.2l-0.3,0.1l-1,0.2l-0.2,0.1
		l-0.2,0.1l-0.2,0.1l-0.7,0l-0.3,0.1l-0.1,0.3l0.2,0.1l0.3,0.1l0.2,0.2l-0.2,0.3l0.3,0.1l0.1,0.3l-0.1,0.3l-0.3,0.1v0.2h0.7v0.2
		l-0.4,0.3l-0.2,0.1l-0.3,0.1l0.2,0l0.2,0l0.2,0.1l0.2,0.2l-0.1,0.1l-0.1,0.3l0.5,0l0.6,0.1l0.5,0.3l0.2,0.4l0.1,0.1l0.7-0.2
		l0.3,0.1l0.2,0.3l0.4,0.9l0.4,0.3l0.2,0.2l0,0.4l-0.1,0l-0.7,0.3l-0.1,0.1l-0.5,0.1l-0.5,0.3l-0.2,0.4l0.3,0.2l-0.3,0.6l-0.5,0.2
		l-1.2,0.1l0.7,0.8l0.1,0.4l-0.3,0.5l0.2,0.4l0.4-0.2l0.4-0.1l1-0.1l0.5-0.2l0.9-0.4l0.5,0l0.3,0.1l0.2,0.1l0.1,0.2l0.1,0.3l0.3,0.2
		l0.1,0l-0.1,0.2l-0.2,0.3l-0.1,0.1l0,0l-0.3,0.4l0.1,0l0.1,0.2l0.1,0.2l0.1,0.1l-0.2,0.2l-0.8,0.2l0.3,0l0.3,0.1l0.2,0.2l0.1,0.3
		l-0.8,0.4l-0.5,0.2h-0.6v0.2l0.3,0.2l0.1,0.3l-0.1,0.3l-0.2,0.3l-0.3,0.2l-0.7,0.1l-0.3,0.2l0.3,0.1l0.3,0.1l0.3,0.1l0.4,0
		l-0.1,0.3l-0.1,0.1l0.6,0l1-0.4l0.6,0l-0.2,0.6l0.3,0.3l0.6,0.1l0.6,0l1.6,0.4l0.6,0l-0.3,0.3l-0.3,0.2l-0.3,0.2l-0.1,0.4l-0.2,0.2
		l-1.3,0.6l-0.4-0.2l-0.3,0.4l-0.2,0.6l-0.2,0.4l0.4,0.1l0.1,0.2l-0.1,0.6l0.1,0.1l0.3,0.1l0.3,0.1l0.2,0l0.2,0.1l0.3,0.1v0.2
		l-0.3,0.2l0.2,0.1l0.2,0h0.2l0.2,0.1l0.1,0.1l0,0.1l0.1,0.1l0.6,0.1l0.3,0.2l0.2,0.2l0.3,0.2l0.4-0.1l0.6,0.1l0.6,0.2l0.3,0.2
		l0.2,0.2l0.1-0.1l0.1-0.1l0.3-0.1l-0.1,0.1l0,0l0,0l-0.1,0.1l0.2,0.2l0.7-0.5l0.3-0.1v0.2l-0.3,0.4l0.4,0.3l0.6,0.2l0.4,0.3
		l-0.2,0.1l-0.1,0.1l-0.3,0.8l0.6,0.3l0.8,0.1l0.4,0.2l0.6,0.5l0.3,0.1l0.4-0.2l0.2-0.3l0.2-0.5l0.2-0.5l0.1-0.5l-0.3,0.2l-0.4,0.3
		l-0.3,0.1v-0.2l0.2-0.2l0.1-0.2l-0.1-0.2l-0.2-0.2v-0.2l0.4-0.1l0.7-0.4l0.4-0.2l-0.2-0.2l0.3-0.2l0.1-0.3l-0.1-0.2l-0.3-0.1
		l0.1-0.2l0-0.2l0-0.2l-0.1-0.2l0.4-0.1l0.3-0.3l0.2-0.3l0.2-0.2l0.4-0.1l0.4-0.3l0.2-0.4l0.1-0.4l-0.2-0.3l-0.5,0.1l-0.8,0.3
		l-0.3-0.2l0.1-0.3l0.2-0.3l-0.1-0.3l0.3,0l0.4,0l0.4,0.1l0.3,0.2l-0.1-0.5l0.1-0.2l0.2,0l0.3,0l0.2-0.2l0.1-0.3l0.1-0.5h-0.4
		l0.1-0.3l0.2-0.3l0.3-0.2l0.2-0.1l0.1-0.2l0-2.3L601,444l0.2-2.1l0-1.1l0.1-0.3l0.4-0.3l1.7-2.3l0.4-0.8l0.3-0.4l0.7-0.6l0.2-0.3
		l0.1-0.2l0.1-0.5l0.1-0.3L605,434L605.2,430.1z M318.1,213.6L318.1,213.6l0.1,0.1l-0.1-0.2l-0.1-0.1l-0.1-0.1l0-0.1l0,0.2l0.1,0.1
		L318.1,213.6z M527.8,406.4l-0.4,0.1l-0.2,0.2l-0.2,0.3l-0.5,0.2l-0.1,0.2l0,0.3l0.2,0l0.2-0.2l0.5-0.1l0.4-0.6l0.2-0.2l0.4-0.1
		l0-0.2l-0.1-0.1L527.8,406.4z M306.3,287.3l-1-0.4l-0.5-0.1l-0.5,0.1l-0.2,0.3l0.3,0.6l2,0l0.6,0.2l-0.3-0.4L306.3,287.3z
		 M310.1,279.3l-0.3-0.2l-0.9-0.4l-0.3-0.3l0-0.5l0.1-0.4l-0.1-0.4l-0.5-0.3l-0.5-0.1l-1.4,0.1l0.4,0.5l0.4,1.3l0.4,0.5l0.7-0.3
		l0.6,0.4l0.5,0.8l0.4,0.8l0.4,0.2l0.1-0.4l-0.1-0.7L310.1,279.3z M237,227.4L237,227.4l-0.1-0.2l-0.5-0.2l-0.6,0.1l-1,0.5v0.2
		l0.6-0.2l0.2,0.1l0.1,0.3l-0.1,0l-0.2,0l-0.1,0v0.2l0.4-0.1l1.3-0.6v-0.3L237,227.4L237,227.4z M327.1,303.4l0.2-0.2l0-0.2
		l-0.1-0.2l-0.2-0.1l-0.5-0.1l-1.5,0.3v0.2l0.3,0.2l1,1.1l0.4,0.1l1.4-0.2l2.4,1.4l1.1,0.2l0.1,0l0.1,0.1l0.3-0.1l0.2-0.1l0.2,0
		l-0.3-0.6l-0.5-0.5l-0.6-0.3l-2.5-0.4l-0.4-0.2v-0.2h0.4v-0.2l-0.6,0.1l-0.7,0.3l-0.7,0l-0.4-0.7l0.3,0L327.1,303.4z M521.3,407.4
		l-0.2,0.2l-0.2,0.1l-0.1,0l-0.1,0l-0.1,0.1l-0.2,0.1l-0.7,0l-0.3,0.1l0,0.2l0.6,0.3l0.3,0.1l0.3-0.1l0.3-0.2l0.3-0.3l0-0.4
		l-0.1-0.2L521.3,407.4z M286,266.8l-0.3-0.1l-0.9-0.8l-0.1-0.1l-0.6-0.5l-1.1-0.5l-0.3-0.1l-0.2-0.2h-0.2l-0.1,0.2l-0.2,0.2
		l0.1,0.5l0.3,0.5l0.2,0.6l-0.1,0.5l0.4,0.3l1.3,0.4l2,0.2l0.7-0.2l0.1-0.6l-0.3-0.3L286,266.8z M333.1,311.5l-0.4-0.3l-0.3,0
		l-0.3,0.1l-0.3-0.1l-0.6-0.6l-0.8-0.6l-0.9-0.4l-0.8-0.1l0.6,1.2l0.3,0.8l-0.1,0.3l-0.1,0.3l0.4,0.6l0.5,0.6l0.5,0.3l1.5,1.5
		l0.3,0.5l0.2,0.4l0.4,1.2l0.4,0.2l0.4-0.5l0.3-0.9l0.2-1.4l0-0.3l-0.2-0.3l-0.7-0.4l-0.3-0.2l0.1-0.3v-0.2l-0.3-0.3l0-0.3l0-0.4
		L333.1,311.5z M568.1,209.8l-4-2l-0.5-0.1l-1.4,0.1l-2.1-0.6l-0.3,0.1l-0.6,0.3l-0.3,0.1l-0.2,0l-0.5-0.2l-0.3,0l-0.3,0.1l-0.3,0.1
		l-0.3,0.1l-0.3-0.1l-0.2-0.2l-0.2-0.5l-0.2-0.2l-0.6-0.3l-1.1-0.2l-0.5-0.3l-0.3-0.4l-0.6-0.8l-0.4-0.3l0-0.1l0.1-0.1l0.2-0.1
		l-0.2-0.5l-0.5-0.2l-1.1-0.1l-0.1-0.4l-0.5,0l-0.6,0.2l-0.4,0.2l-0.1,0.2l-0.2,0.5l-0.1,0.2l-0.2,0.1l-0.5,0.1l-0.2,0.1l-0.2,0.2
		l-0.3,0.5l-0.1,0.1l-0.2,0l-0.7-0.3l-2.2,0l-0.4-0.1l-0.4-0.2l-1-0.6l-0.1,0l-0.2,0.2l0,0.2l0.1,0.2l0,0.2l-0.8,0.4l-0.6-0.4
		l-0.3-1l0-1.2l-0.5,0l-1.6-0.8l-0.3,0l-0.7,0.1l-1.1-0.2l-0.3,0.1l-0.1,0.5l0.2,0.6l0.1,0.6l-0.4,0.5l-0.3,0.1l-1-0.3l-1.1,0
		l-0.3-0.1l-0.3-0.5l0.1-0.4l0.1-0.4l-0.2-0.6H533l-0.3,0.2l-0.1,0l-0.1-0.1l0-0.3l0-0.1l-0.1-0.2l-0.2-0.6l-0.1-0.1l-0.4-0.1
		l-0.1-0.1l0-0.1l0-0.4l0-0.2l-1.7-1.5l-0.4-0.5l-0.2-0.4l0.1-0.3l0.4,0l0.1-0.3l-0.1-0.2l-1.2-1.2l-0.2-0.2l0,0l0-0.2l-0.1-0.3
		l-0.1-0.3l-0.4-0.4l-2.3-1.1l-0.3,0l-0.2,0.1l-0.5,0.3l-0.3,0l-0.2,0l-0.5,0l-0.7-0.3l-1.2-0.9l-0.7-0.3l-0.7-0.1l-1.4,0.1l0.2,0.3
		l-0.7,0.1l-0.2,0.1l-0.1,0.2v0.2l-0.1,0.2l-0.3,0.1l-0.2,0.3l-0.4,0.1l-2.1,0.1l-0.4,0.1l-0.3-1l-0.5-0.4l-1.6-0.3l-0.6-0.3
		l-0.4-0.4l-0.8-1l-0.3-0.1l0,0l-0.6-0.3l-0.3,0l-0.3,0.1l-0.3,0.4l-0.3,0.1l0,0l-0.6-0.1L507,190l-0.6-0.1h0l-0.6,0.3l-0.3,0.4v0
		l-0.1,0.2l0,0l-0.1,0.1l-0.2,0l-0.2,0l-0.2-0.1l-0.8-0.3l-0.3,0.1l-0.1,0.1l-0.3,0.2l-0.3,0.2l-0.5,0.3l-0.2,0.1l-0.5-0.1l-0.1-0.2
		l0-0.1l0-0.3l0.1-0.3v-0.4l-0.1-0.3l-1.2-2l-0.5-0.4l-0.8-0.3L499,187l-0.2-0.1l-0.2,0h0l-0.1,0.1l-0.1,0.2l-0.1,0.2l0,0l-0.1,0
		l-0.4-0.1l-0.1-0.1v0l0-0.2l0-0.2l0.1-0.5v0l0,0l0.2-0.1l0-0.1l0.1-0.1l-0.2-0.5l-0.5-0.5l-0.5-0.5l-0.3,0l-0.2,0l-0.4,0.1
		l-0.7,0.2l-0.6-0.2l-0.5-0.3l-0.1-0.1l-0.3-0.2l-0.6-0.8l-0.4-0.6l-0.3-0.3l-0.2-0.1l-0.7-0.2l-0.5-0.3l-0.9-0.9l-0.4-0.2l0,0
		l-0.3,0l-0.3,0l-0.5,0.2l-0.6,0.2l-0.4,0.1l-0.1,0l-0.4,0l-0.3,0v0l-0.2-0.3l0-0.6v-0.7l-0.1-0.2v0l-0.3-0.4l-0.1-0.2l0-0.2
		l0.2-0.2l0,0l0.1-0.1l0-0.1l0.1-0.3l0.1-0.1l0.1-0.2l0.1-0.3l0-0.2l0-0.3l-0.4-0.6l0,0v0l-0.7-0.3l-0.5-0.2h0l-0.3-0.5l0.1-0.6
		l0.7-1.6l0.3-0.6l0-0.1l0-0.3l0-0.3l0-0.2l0-0.1l0.1-0.3l0.3-0.7v0l0.2,0l0.3,0.3l0,0l0-0.4l0-0.3l0.1-0.7l0-0.2l0-0.5l-0.2-0.3
		l-0.8,0.2l-0.3-0.1l-0.1-0.5l0,0l-0.7,0.3l-2.7,2.5l-0.1,0.3l-0.1,0.4l0,0.2l0,0.1l0,0.1l0.1,0.1l0,0.1l0,0.1l-0.1,0.4L482,173
		l-0.2,0.6l0,0.1l-0.2,0.3l-0.2,0.1l-0.1,0.1l-1.1,0.2l-0.9,0.4l-2.6,1.2L476,176l-3.3-0.8L472,175l-0.7,0.1l-1.2,0.2l-0.3-0.1
		l-0.1,0l-1.4-0.7h0l0.2,0l0-0.3l0-0.2l-0.1-0.3l-0.1-0.3l-0.1,0h0l0.1-0.4l0.1-0.2l0,0l0,0l0.2-0.2l0.3-0.2l0.2-0.2l0.4-0.3
		l0.2-0.1l0.3-0.2l0.3-0.1l0-0.2v-0.1l-0.2-0.3l-0.1-0.2l-0.1-0.1l-0.4-1.6l-0.3-0.1l-0.3,0l-0.5,0.2l-0.2-0.1l-0.2-0.1l0.1-0.5
		l0-0.1l0.3-0.9l0.2-0.5l0.1-0.7l0.1-0.3l0,0l0.3-0.4l0.6-0.4l0,0l0.2-0.2l0-0.2l0-0.2l-0.2-0.2l-0.3-0.2l-0.2-0.1l-0.1-0.1
		l-0.2-0.1l-0.3,0.1h0l0,0.2l0,0.1l0,0.1h0l-0.1,0.1l-0.1,0.1l-0.3-0.1l-0.2-0.1l-0.5-1l-0.2-0.3l0,0l-0.5-0.4l-0.3-0.2l-0.2-0.1
		l-0.8-0.8l0,0l-0.5-0.2l-0.2,0l-0.3,0l-1.1,0.4l-0.5,0.2h-0.6l-0.1,0l-0.3-0.2l-0.2-0.2l-0.2-0.1l-0.5-0.2l-1-0.1l-1.1,0.1
		l-0.1,0.1l-0.2,0.1l-0.2,0.2l-0.5,0.7l-0.1,0.2l0,0.1l0,0l0,0.1l-0.1,0.1l0,0l0,0l-0.1,0.2l-0.9-0.8l-0.2-1.5l0-1.7l-0.2-1.4
		l-0.4-0.7l-0.5-0.4l-0.6-0.3l-0.6-0.1l-1.5,0h-0.1l-0.3-0.2h0l0.2-0.4l0,0l0-0.3l-0.2-0.2l-0.1,0l-0.3-0.1l-0.2,0l-0.1,0l-0.2,0.1
		l0,0l-0.1,0.1l-0.2,0.1l-0.1,0.1l-0.3,0.2l-0.9,0.3l-0.2,0.1l-0.2,0l-0.4,0l-0.4-0.1l-1.1-0.5l-0.3-0.2l-0.3-0.4l-0.1-0.1l-0.1-0.4
		l0-1.2l-0.7-2l-0.2-1.1l0.2-0.3l0.2-0.3l-0.1-0.3l-0.2-0.5l-0.2-0.3l0,0l-0.3-0.1v0l-0.4,0l-0.2-0.2l-0.3-0.7l-0.3-0.5l-0.1-0.2
		l-0.4-0.6l-0.4-0.4l-0.5-0.1l-0.1,0l-1.2,0.3l-0.8,0.2l-0.3,0.1l-1.1,0.3l-0.3,0.2l-0.3,0.2l-0.2,0.2L438,147l-0.3,0.5l-0.4,0.7
		l-0.3,0.2l-0.1,0l-0.2,0l-0.1,0l-0.1,0l0,0l-1.8-0.7l-0.3-0.1l-0.1-0.1l-0.3-0.2l-0.1-0.1l-0.1-0.1l-0.3-0.7l-0.1-0.2l-0.1-0.1
		l-0.8-0.7l-0.2-0.3l-0.1-0.2h0l-0.1-0.2l-0.3-0.2l-0.1,0l-0.2,0l-0.5,0.1l-0.2,0l-0.4-0.1l-0.2-0.1l0,0l-0.1-0.2l-0.1-0.2l-0.1-0.2
		l-0.1-0.1l-0.1-0.1l-0.1,0l-0.2-0.1l-0.1-0.1l0,0v0l0-0.1l0-0.1l0.2-0.4l0-0.2l-0.2-0.8l-0.3-0.8l0.1-0.3l0.2-0.2l0.4-0.3l0.1-0.1
		l0.1-0.1l-0.1-0.7l-0.4-0.5h0l-0.9-0.9l-0.3-0.7l0-0.3l-0.2-1.3l0-0.1l-0.3-0.7l-0.4,0.2l-1,0.4l-2.1,0.5l-1.5-0.2l-0.2,0l-0.3,0.1
		l-4.3,1.3l-4,0.5l-0.9,0.5l-0.4-0.1l-4.8,1.9l-0.8,0.7l-0.7,0.9l-0.4,0.4l-0.5,0.2l-0.5,0l-0.2,0.1l-0.6,0.5l0,0.2l0.1,0.5l0.4,1.3
		l0.2,0.8l-0.1,0.7l-0.3,0.5l-0.5,1.4l-0.1,0.6l0,0.8l0.3,1.6l0.1,1.7l0.1,0.5l0.7,1l-0.8,0.5l-0.1,1.5l0,1.7l-0.5,1.2v0.2l1.4,1
		v0.2l-1-0.2l-0.5,1l-0.2,1.4l0,1.2l0.2,0.3l1.1,0.5l0.2,0.5l0.2,0.4l0.4,0.3l0.5,0.2l0.5,0v0.3h-0.5l0.1,0.3l0.1,0.2l0.2,0.1l0.3,0
		v0.3l-0.2,0.2l-0.2,0l-2.5-1.1l-0.9,0.1l-0.9,1.1l-0.6,1.9l-0.2,0.3l-0.3,0.2l-1.3,1.5l-3.3,2.4l-1,1l-0.6,0.2l-0.6,0.4l-10.4,3.1
		l-2.2,0l-2,0.7l-1,0.6l-0.9,0.2l-3.2,1.7l-0.3,0.3l-3.3,1.4l-0.3,0.2l-0.3,0l-1.3,0.9l-0.4,0.4l-1,3.1l-1.3,2.2l-0.1,0.3l0,0.4
		l0.1,0.3l0.4,0.2l0.1,0.2l0.2,0.3l0.5,0.3l0.6,0.2l0.4,0h0.5l1.8,0.6l2.1,0.3l2.1-0.3l1.8-1l-0.4,0.5l-0.5,0.4l-1.2,0.5l-6.3,1.3
		l-1.7,1.1l-0.6,0.9l-0.2,0.2l-0.6,0.1l-0.7,0.6l-1.2,0.5l-4,0.9l-0.6,0.5l-2.4-1.3l-1.3-0.3l-0.8-0.5l-0.4-0.2h-1.7l-1.1-0.4
		l-0.6-0.1l-0.9,0.5l-0.6-0.1l-1.1-0.3l-4.3-0.2l-3-1l-3.3-0.2l-0.4,0.2l-0.4,0.4l-0.2,0.5l0.3,0.3v0.2l-0.5,0.1l-0.3-0.1l-0.2-0.2
		l-0.3-0.2l-0.3,0l-0.3,0.2l-0.2,0l-0.1-0.4l0.1-0.1l0.1-0.2l0.1-0.3l0-0.4l-0.1-0.8l-0.2-0.5l-1.9-2.2l-0.4-1l-0.4-0.6l-0.3-0.7
		l0.1-0.8l0.2-0.2l0.2-0.1l0.6,0l0.1-0.2l0.1-0.3l0.1-0.3l0.6-0.4l-0.1-0.6l-0.6-1.1l-0.1-0.6l-0.1-0.3l-0.2-0.1l-3-0.5l-0.5,0
		l-1.2,0.3l-0.4,0.3l-0.6,0.8l-0.4,0.3l-0.4,0.2l-0.3,0l-0.5-0.2l-0.3,0l-0.3,0.1l-0.3,0.3l-0.2,0.1l-0.2-0.1l-0.1-0.2l0-0.2l0-0.1
		l-0.4,0l-1.9-0.6l-1.7-0.2l-0.6-0.2l-0.1,0l-0.3,0l-0.1,0l-0.1-0.2l-0.1-0.4l-0.1-0.2l-0.2-0.1l-0.7,0.1l-0.3-0.1l-0.5-0.3
		l-0.2-0.1l-0.7,0.1l-0.1,0.3l0,0.5l-0.2,0.8l1.1,0.4l0.8,0.1l0.2,0.2l0.1,0.3l0.2,0.4l0.2,0.5l0,0.6l-0.1,1.1l-0.2,0.4l-0.7,0.6
		l-0.2,0.5l0.1,0.2l0.7,0.7l0.2,0.4l0.1,0.3l0,0.2l0,0.2l0.4,0.6l0.1,0.2l0.1,0.2l0,0.5l-0.1,1.2l0.1,0.5l0.2,0.3l0.3,0l0.3-0.1
		l0.3-0.1l-0.1,0.1l0,0.1l-0.1,0.2l0.5,0.3l0.6,0.6l0.5,0.3l0.2-0.6h0.2l0.3,0.7v0.2h-0.5l0.2,0.5l0.3,0.4l0.7,0.5l-0.1,0.1l-0.1,0
		l-0.2,0.2l0.4,0.4l0.4,1.3l0.4,0.4l0.2-0.7l0.5,0l0.7,0.3l0.5,0.1v0.2l-0.9-0.2l-0.5,0l-0.2,0.3l0,0.6l0.1,0.7l0.2,0.7l0.2,0.6
		l0.1-0.2l0.1-0.1l0.3,0.2l-0.5,0.3l-0.2,0.2l-0.2,0.5l-0.1,0.5l0,0.4l0.1,0.3l0.4,0.1l-0.1,0.4l-0.1,0.4l0,0.8l0.1,0.3l0.2,0.3
		l0.2,0.2l0.1-0.1l0.2-0.5l0.5-0.3h0.6l0.5,0.2v0.2l-0.6-0.3l-0.3,0.2l-0.2,0.5l-0.3,2l0.1,0.2l0.3,0.1l0.1,0.2l0,0.3l-0.1,0.4
		l-0.2-0.3l-0.2,0.4l-0.2,1.7l-0.2,0.4l-0.3,0.3l-0.4,0.2v0.3l0.6,0.1l0.3,0.5l0.1,0.8l0,1l0.2,0.8l0.9,0.8l0.2,0.8l0.1,0.2l0.3,0.2
		l0.9,0.2l0.1,0.1l0.1,0.2l0,0.2l0.1,0.2l0.1-0.1l0.1-0.1v-0.1l1,0.1l0.6,0.3l0.4,0.6l-0.9-0.3l-2.7,0.6l-2-0.2l-0.4,0.1l-1.2,0.6
		l-2,0.3l-1.8,0l-1.1-0.3l-0.6-0.6l0-0.8l0.6-0.9l-0.2-0.2l-0.1-0.2l0-0.2l0.1-0.2l-2.6,0.5l0.2,0.3h-0.9l-0.2,0.1l0,0.2v0.2
		l-0.1,0.1l-0.4,0.1l-0.3,0.3l-0.2,0.3l-0.1,0.3l0.2,0.4l0.5,1l0.2,0.2l0.3,0l0.3,0.1l0.2,0.2l0.2,0.4l-0.3-0.2l-0.1-0.1l-0.1-0.2
		h-0.2l0.1,0.6l0.4,0.6l-0.1,0.3l0.7,0.4l-0.8,0.5l-0.2,0.2l0.1-0.8l-0.2-0.5l-0.6-0.9l0.1-0.1l0.1-0.3l-0.3-0.1l-0.2-0.2l-0.1-0.3
		l0-0.4l-0.5-0.9l-0.1-0.2l-1.2,0.1l-1.1,0.4l0.2,0.5l0.1,0.2l0.2,0.2l-0.3-0.3l-0.3,0l-0.3,0.2l-0.3,0.4l0.2,0.2l0.1,0v0.2
		l-0.4,0.2l-0.2-0.2l-0.1-0.4l-0.1-0.5l0,0.4l-0.1,0.4l-0.2,0.3l-0.3,0.1l0-0.4l-0.1-0.4l-0.2-0.3l-0.3-0.1l-0.1-0.2l-0.1-0.8
		l-0.1-0.2l-0.6,0.3l-0.5,0.5l-0.5,0.3l-0.4-0.3l0.7-0.7l0.1-0.2l0.1-0.2l0.1-0.2l0.2-0.1v-0.3l-0.3,0.1l-0.3-0.1l-0.2-0.3l-0.1-0.4
		l-0.3,0.6l-0.7,0.6l-0.8,0.5l-0.7,0.2l-0.2-0.5l-0.5-0.1l-1.1,0.3l0.5,0.2l0.2,0v0.2l-0.4,0.4l-1.7,1l-0.5,0.1l-0.3,0.2l-0.2,0.2
		l-0.6,0.9l-0.5,0.5l-0.4,0.2l-1-0.1l-0.1,0.3l0,0.5l-0.1,0.3l-0.4-0.3l-0.2-0.3l-0.2-0.2l-0.2-0.1l-0.3,0l0.2-0.2l0.1-0.2l0.1-0.2
		l0.1-0.3l-1.4-0.6l-0.6-0.4l-0.3-0.1l-0.1-0.1l-0.1-0.2l0.1-0.2l0.1-0.2l0-0.2l-0.1-0.3l-0.3-1l-1.6-1.3l-0.2-0.3l-0.4-0.4
		l-0.5-0.4l-0.4-0.2v-0.2l0.1,0l0.2-0.2l0-0.2v-0.2l0-0.3l-0.5-0.2l-1.3-0.1l-0.6-0.2v-0.3h-0.3v-0.2l0.4-0.3l0.2-0.1l0.2-0.1v-0.2
		l0,0h-0.1l-0.1,0l0.2-0.2l-0.3-0.2l-0.3-0.1l-0.3,0.1l-0.3,0.2l-0.4-0.1l-0.5,0.7l-0.8,1.6h-0.2v-0.3l0.5-0.7l0.2-0.3l0.3-0.9
		l0.2-0.3l-0.3-0.3v-0.2l0.2-0.3l0-0.4l-0.2-0.3l-0.3-0.2l-0.3,0.1l-0.5,0.5l-0.3-0.1l-0.2,0.3l-0.6,0.5l-0.8,0.9l-0.2,0.3l-0.1,0.4
		l-0.1-0.2l0-0.1l0-0.2l0.3-0.4l0.2-0.6l0-0.7l-0.2-0.5l-0.4-0.1l-0.7,0.9l-0.2-0.1h-0.2l-0.3,0.2l-2.1,0.7l-0.2,0.1l-0.3,0.3
		l-0.2,0.1l-0.3,0l-0.6,0l0.1-0.2l0-0.1l0.1-0.1l0.1-0.1l-0.4,0l-0.9-0.5l-0.8,0l-0.2-0.2h-0.2l-0.1,0.3l-0.6,0.9l-0.7,0.3l-0.3,0.3
		l0.1,0.6l0.9,1l0.4,0.2l-1.3,0.2l-0.1,0.2l0.1,0.5l0.3,0.8l-0.4,0.2l-0.7,0l-0.6-0.2l0-0.6l-0.9,0.2l-0.3,0l-0.3-0.1l-0.6-0.5
		l-0.3-0.1l-1.2,0.1l-0.5-0.1l-0.3-0.4l0,0.2l0,0.2l-0.1,0.2l-0.1,0.2l-0.3-0.2l-0.2,0.4l-0.1,0.7l0.1,0.6l-0.2-0.2l-0.1-0.1
		l-0.1-0.2H267l0.1,0.7l0.1,0.3l0.1,0.2l-0.2,0.2l0.2,0.2l-0.2,0.2l-0.3-0.4l-0.7-0.4l-0.3-0.4v-0.2l0.1,0l0.2-0.2l-0.5-0.1
		l-0.4,0.2l-0.7,0.7l0.1-0.4l0-0.3l-0.2-0.3l-0.3-0.1v-0.3h0.2v-0.2l-0.3-0.1l0-0.2l0.1-0.2l0.1-0.3l-0.2-0.1l-0.9,0.2l-0.5,0.3
		l-0.3,0.1l-0.3,0.1l0.1,0.3l0,0.3l-0.1,0.2l-0.2,0.2h-0.2l-0.1-0.3l-0.1-0.2h-0.1l-0.1,0.2l-0.5-0.2l-0.6,0l-0.6,0.1l-0.5,0.2
		l-0.4,0.3l-0.4,0.4l-0.1,0.4l0.5,0.1v0.3h-0.3l-0.6-0.2l-0.3,0l-0.3,0.1l-0.8,0.4l-0.6,0.1l0.2-0.8l-0.5-0.5l-0.7,0l-0.7,0.2
		l-0.7,0.4l-0.7,0.1v0.3l0.2,0l0.3,0.2l-0.6,0l-0.8,0.4l-0.6,0.1h-2v0.2l0.2,0.1l0.1,0.1l0,0.1l-0.1,0.1l0.7,0.3l-0.5,0l-1.2-0.3
		l-0.3,0.2l0.2,0.5l0.6,0.7l-0.3,0.1l-0.8-0.4l-0.5-0.1l-0.8,0.1l-0.5,0.1l-0.4,0.3l0.2,0.3l-0.3-0.1l-0.3-0.2l-0.5,0.6l-0.6,1.1
		l-0.3,1l0.6,0.4v0.2l-0.5,0.1l-0.3,0.5l-0.1,0.6l0,0.7l0.4,0.9l0,0.4l-0.5,0.1l0.2,0.7l0.2,0.4l0.3,0.1l1.3,0l0.2-0.1l0-0.3l0-0.3
		l0.1-0.1l0.5,0.1l0.9,0.3l0.4,0.1l0.5-0.1l0.8-0.3l1.2-0.3l1.6-0.9l0.8-0.3l1.7-0.3l0.5-0.2l0.8-0.4l0.4-0.1l-2.4,1.3l-0.3,0.2
		L252,232v0.2l0.3,0l0.3-0.1l0.3-0.1l0.2-0.2l0.2,0.2l-0.1,0.1l0,0l-0.1,0.1l0.6-0.1l0.8-0.5l0.4,0.2l0.1-0.2l0.2-0.2l0.1-0.2h0.2
		v0.3h-0.2v0.2l0.4-0.1l0.6-0.4h0.4l-0.5,0.5l-0.2,0.2l-0.1,0.1l0,0.1l-0.2,0.1l-0.1,0.1l-0.2,0.3l1.1-0.1l0.2,0l0.1,0.3l0.3,0.1
		l0.4-0.1l0.2-0.3l0.1,0.4l0.3,0.1l0.8,0v0.3l-2.1,0.4l-0.5-0.2l0.4,0l0.2-0.1l0.2-0.1l-1.7,0.1l-1.2,0.3l-0.3,0l-0.3-0.1l-0.2-0.1
		l-0.2-0.2l-0.3-0.1l-2.2,0.1l-0.7-0.3l0.3-1.3l-0.4-0.2l-0.3,0.3l-0.5,1.1l0,0.1l0.1,0.2l-0.1,0.2l-0.3,0.1l-0.3-0.1l-0.2-0.1
		l-0.2,0l-0.3,0.1l0.1,0.3l-0.1,0.4l1.5,0.1l0.3,0.1l0.2,0.4l-0.1,0.1l-0.2,0.2l-0.1,0.4l0.1,0.3l0.2,0.3l0.3,0.4l-0.1,0.2l-0.2,0.7
		l0.7-0.2l0.4-0.7l0.4-0.8l0.4-0.6l0.7-0.2l1.3,0.8l0.6-0.2l0.1,0.2l0.1,0.2l0.2,0.2l0.2,0.1l1.1,0.2l0.3,0.3l0.1,0.8l0.1,0.2
		l0.4,0.4l0.1,0.4l-0.2,1l-0.1,0.3l-0.4,0.1l-1.4-0.4l-8.1,1.7l-0.1,0l-0.2-0.2l-0.1,0l-0.1,0.1l0,0.1l0,0.1l-0.2,0.3l-0.1,0.2
		l-0.1,0.2l-0.2,0.1l1.9,0.5l0.9,0l0.4,0.1l0.8,0.7l0.3-0.2l0.3-0.3l0.3-0.2l0.3,0.1l2.2,1.6l1.2,1.4l0.4,0.6l0.2,0.9l0.4,0.9
		l0.1,0.6l-0.1,0.2l-0.2,0.1h-0.2l-0.2,0.1l0,0.2l0.1,0.5l0,0.3l3.7,0.2l0.6-0.2l0.4-0.2l0.8-0.7v-0.2h-0.7V249l0.1-0.1l0.1-0.1
		l-0.4-0.2l0.1-0.4l0.3-0.1l0.5,0.8l0.3-0.2l0.2-0.2l0.2-0.1l0.3,0V248l-0.3-0.3l-0.3-0.5l-0.1-0.5l0.3-0.4l0.1,0.6l0.2,0.5l0.3,0.4
		l0.3,0.2l0.4,0l0.3,0.1l0.7,0.5l0.1-0.3l0.2-0.1l0.3,0l0.3-0.1l-0.1,0.3l-0.1,0.2l-0.2,0l-0.3,0l0.5,0.1l0.6-0.6l0.2-0.5l-0.2-0.7
		l0.7,0.1l0.7,0.4l0.5,0.5l0.1,0.4l0.3,0.2l0.2,0.1l0.2,0l-0.1,0.4l0.1,0.2l0.2,0.1l0.2,0.2l0.5,0.8l0,0.1l0.5,0l0.6-0.1l0.5,0
		l0.4,0.3l1.3-0.7l0.2,0.1l0.2,0.5l0.5,0.2l1,0l0.1,0.1l0.3,0.3l0.2,0.1l0.2,0l0.6,0l0.9,0.2l0.4,0l0.3-0.2l0.1,0.3l0.1,0.1l0.3,0.3
		l0.4,0.7l0.8,0.9l0.1,0.2l0.4,0.1l2.1-0.5v-0.2l-0.1-0.2l-0.2-0.1l-0.2-0.1l0.5-0.1l0.8-0.4l0.7-0.6l0.5-0.6v0.3l-0.3,0.2l-0.2,0.4
		l-0.3,0.8l-0.2,0l-0.4-0.1l-0.1,0.1v0.3l0,0.2l-0.1,0.1l-0.2,0v0.3l1.1,0.1l0.4,0.1l0.4,0.2v0.2l-1-0.3l-0.4,0l-0.5,0.2l0.7,0
		l1.1,0.3l0.6,0.2l0.8,0.8l0.2,0.1l0.2-0.1l0.1-0.3l0.1-0.3l0.4-0.2l-0.3-0.4l-0.1-0.1l0.4-0.1l0.2-0.2l0.2-0.1l0.3,0.2l0-0.1l0-0.1
		l0,0l0.1,0l-0.1-0.5l-0.2-0.4l-0.2-0.3l-0.4-0.1l0.4-0.1l0.3,0.2l0.3,0.1l0.2-0.4h0.2l0,0.2l0,0.7l0.1-0.1l0.3-0.1l0.1-0.1v0.3
		l0,0.2l0.1,0.2l0.1,0.2l-1.9,0.8l-0.3,1l-0.1,0.4l0.1,0.2l0.2,0.1l0.3,0.1l0.2,0.1l0.4,0.4l0.3,0.4l0.2,0.6l0.1,0.8l-0.1,0.5
		L285,260l-0.1,0.4l0,0.3l0.3,1h0.2l0.2-0.2l0.5,0.1l0.3,0l-0.6-0.6l-0.4-0.8l-0.1-1l0.3-1.1l-0.1-0.1l-0.1-0.1l-0.1,0l0.2-0.4
		l0.3,0l0.3,0.2l0.2,0.2l-0.2,0.1l-0.2,0.1l0.4,0.2l0.4,0l0.8-0.4l0.2,0.2l0.1,0.1l0.4,0l-0.2-0.5l0.1-0.4l0.2-0.1l0.1,0.5l0.1,0.4
		l0.2,0.1l0.1-0.2l-0.1-0.5l0.3,0.3l0.3,0.3l0.2,0.2l0.2-0.1l0.3,0.3l0.1,0.1l0.1-0.1l0-0.1l0.1-0.2l-0.3-0.2l-0.3-0.3l-0.2-0.4
		l-0.1-0.3v-0.8l0-0.2l-0.1-0.4l0-0.3h0.2l0.1,0.4l0.2,0.3l0.3,0.2l0.4,0l-0.2,0.2l-0.1,0.3l0,0.3l0.1,0.4h0.2l0.1-0.1l0.1-0.1
		l0.3-0.1v0.3h-0.2v0.2l0.8-0.2l0.5-0.2l0.2-0.4l0.3-0.2l1.3-0.1l0.5-0.2l-0.3-0.2l0.8,0.1l0.3,0.2l0.3,0.4l-0.5-0.2l-0.5-0.1
		l1.3,0.7l0.1,0.2l0.3,0l0.1-0.1l0.1-0.2l-0.4-0.2l0.3-0.1l0.2-0.2l0-0.2l-0.2-0.2V256l0.6,0.7l-0.1,0.6l-1,1.3l0.2,0.2l-0.5,0.3
		l-0.7,0.1l-0.6-0.2l-0.4-0.4l-0.1,0.5l0,0.2l-0.2-0.2l-0.2-0.1l-0.1,0.1l-0.1,0.2h-0.2l-0.4-0.7h-0.7l-0.4,0.3l0.4,0.2l0,0.2l0,0
		l0.1,0l0.3,0l0.2,0.1l0.1,0.2l0.1,0l0.4,0.7l0,0.1l0.3,0.3l0.3,0.2l0.4,0l0.5,0l1.3-0.4l0.4,0l0.8,0.3l0.3-0.2l0-0.8l0.3,0.2
		l0.3,0.1l0.6,0l-0.1-0.2l-0.1-0.1l-0.2-0.1l-0.2,0l0.4-0.1l0.4,0l0.4-0.1l0.4-0.4l-0.2,0.5l-0.4,0.4l-0.4,0.3l-0.4,0.1l0.3,0.2
		l0.2,0l0.1-0.1l0.2-0.1h0.9l0.8-0.3l0.3,0l0.4,0.1l1.9,0.7l0.5,0l0.7-0.1l0.4,0.1l-0.5,0l-0.9,0.2l-1.6,0.1l-0.3,0.2l0.4,0.4
		l-0.2,0.6l0.3,0.2l0.5,0.1l0.4,0.3l-0.2,0.5l0.4,0.1l0.6,0l0.4,0.1l-0.1,0.2l-0.9,0.4l-0.2,0.3l-0.2-0.2l0.1-0.1l0,0l0-0.2
		l-0.4-0.1l-0.3-0.1l-0.3,0l-2,1.1l1,0.6l0.3,0.5l0,1h0.2l0.1-0.3l0-0.1l-0.1-0.2l0.1-0.1l0.1-0.1l0.2-0.1l0.4,0.5l0.5,0.5l0.2,0.5
		l-0.4,0.5l-0.6,0.1l-1.1-0.5l-0.6-0.1v0.2l2.4,1.1l0.7,0l0-0.1l0-0.2l0.1-0.2l0.2-0.2l0.2,0l0.2,0l0.4,0l0.4,0.2l0.6,0.7l0.4,0.3
		l0.5,0.2l0.5,0l0.5-0.2l0.6-0.5l0.8-0.2l0.3-0.2l0.1-0.2l0.1-0.2l0.2-0.2l0.8-0.4l3.5-0.2l1,0.3l0.4,0.3l0.2,0.1l0.6,0.1l0.5,0.2
		l0.9,0.5l0.9,0.7l0.8,0.8l0.4,0.3l1,0.2l0.5,0.3l-1.4,0l-0.6-0.2l-0.6-0.5l-0.3-0.2l-1.1-0.2l-1-0.7v-0.3h0.5l-0.2-0.2l-0.2-0.1
		l-0.3-0.1h-0.3l0.2,0.2l-0.4,0l-1.3-0.3l-0.2-0.2l-0.2-0.2l-0.2,0l-0.2,0.1l-0.2,0.1l-2.3,0.2l-0.6,0.2l-0.2,0.3l-0.2,0.4l-0.1,0.4
		l0,0.4l0.1,0.5l0.3,0.5l0,0.5l-0.1,0.5l-0.1,0.3l-0.2,0.1l-0.8,0.1l-0.3,0.2l-0.3,0.2l-0.3,0.2l0.9,0.5l2.9,0.5l1.5,0.8l0.4,0.4
		l0.3,0.4l0.3,0.6l0,0.6l-0.4,0.3l-0.3,0.6l-0.4,1.2l-0.3,0.5l-1,0.6l-0.4,0.4l0.1,0.5l-0.6,0.4l-0.2,0.3l-0.1,0.7l0,0.6l0.1,0.6
		l0.2,0.5l0.3,0.2l0.7,0.2l0.8,0.5l1.4,1.3l0.7,1.4l0.2,0.2l0.4,0l0.4,0.1l0.3,0.2l0.3,0.9l0.3,0.3l0.4,0.3l0.4,0.4l0.2,0.4l0.1,0.5
		l0.2,0.4l0.4,0.2l-0.1,0.6l0.6,2.5l0.2,0.3l0.2,0.1l0.1-0.1l0-0.3l-0.1-0.5l0-0.4l0.2,0.4l0.3,0.7l0.2,0.3l0.3,0.2l0.7,0.2l0.8,0.7
		l1.3,0.2l0.4,0.4l-0.2,0.4l0.7,0.2l1.7,0.1l0.7,0.1l0.6,0.4l0.4,0.6l0.1,0.8l0.3,0.7l0.6,0l1.3-0.4l0.3,0.1l0.6,0.5l0.8,0.4l0.3,0
		l0.4,0.1l0.5,0.6l0.5,0.5l0.7,0.2l0-1.1l0.9-0.5l1.1,0.1l0.5,0.7l0.1,0.5l0.1,0.3l0,0.3l-0.2,0.4l-1.7,1l-0.3,0.4l0.1,0.6l-0.2,0.1
		l-0.2,0.3l-0.2,0.3l0,0.3l0.2,0.2l0.2,0l0.2,0l0.3,0.1l0.4,0l0.1,0l0,0.1l0,0.2l0,0.2l0.1,0.1l0.2,0l0.6,0.4l-0.3,0.3v0.1l0.2,0.1
		l0.1,0.2l0.1,0.1l0.3,0.1l0.1,0.1l0,0.1l0,0.3l0.2,0.4l0,0.3l0.1,0.3l0.5,0.2l0.2,0.1l0.1,0.2l0.1,0.1v0.2l-0.3,0.6l-0.3,0.3
		l-0.4,0l-0.5-0.3l0.4,1.1l0.3,0.4l0.4,0.3l-0.1,0.1l-0.3,0.2l-0.1,0.1l0.2,0.2l0.2,0.3l0.1,0.3l0,0.3l-0.1,0.4l-0.2,0.1l-0.2,0
		l-0.2,0l-0.4,0.2l-0.3,0.2l-0.1,0.1l-0.1,0.2l-0.2,0.2l-0.3,0.1l0.2,0.3l0.2,0.5l0.1,0.5l0,0.4l0.1,0.3l0.6,0.7l2.3,1.7l0.6,0.6
		l-1.8-0.8l-0.3-0.3l-0.3-0.2l-1.6-1.7l-0.5,0l-1.7,0.5l0,0.4l-0.4,2.3l0.5,0.2l0.9-0.2l0.5,0.3l0.3,0.4l0.4,0.3l0.4,0.2l0.5,0.1
		l0.8,0.3l1.4,1.2l0.8,0.3l0.2,0.1l0.1,0.6l0.1,0.1l3.6,2.4l1.2,1.2l0.6,0.8l0.5,0.9l0.8,2.1l0.3,1.3l1,6.3l0.3,1l0.5,0.8l0.9,0.6
		l1.1,0.3l1,0.5l0.6,1l-0.6-0.4l-0.6-0.3l-0.6-0.1l-0.8,0l0.6,0.3l0.6,0.5l0.3,0.7l-0.2,0.9l0.2,0.4l0.1,0.9l0.1,0.5l-0.3-0.2
		l-0.2-0.5l-0.1-0.7l0-0.7l0.1-0.5l0-0.3l-0.2-0.4l-0.2-0.2l-0.8-0.4l-1-0.9l-0.9-1l-0.9-1.9l-0.1-0.4l-0.5-3l-0.3-1.2l-0.1-0.7
		l-0.3-1l-0.7-1l-3-3.1l-0.4-0.1l-1.1-0.6l-1.7-1.2l-0.2-0.3l-0.3-0.4l-0.1-0.2l0-0.2l0.1-0.2l0.1-0.1l0-0.4l0-0.2l-0.1-0.1
		l-0.3-0.1l-0.4,0.1l-0.4,0.5l-0.9,1.6l-0.2,0.5L335,335l-1,5.2l-1.5,16l0.2-0.4l0.2-0.8l0.3-1.4l1.1-1.6l0.2-0.3l0.1-0.1l0-0.1
		l0-0.1l0.1-0.1l0.2,0l0.1,0.1l0.1,0.1l0.1,0.1l0.3,0.1l1.9,1.6l0.2,0.5h-0.3l0.6,0.6l0,0.5l-0.5,0.3l-0.9,0.1l-1.5-0.3l-0.6,0
		l-0.5,0.6l-0.5,1.5l-0.1,0.4l-0.1,0.2l-0.7,0.9l0,0.3l0.2,0.9l0.1,0.5l-0.2,2l-0.7,4.5l-1.6,9.1l-0.9,4.1l-0.6,1.8l-1,5.2l-0.6,1.8
		l-0.2,1l-0.4,1.2l-0.2,0.4l-1.3,0.9l-0.2,0.2l-0.1,0.4l-0.5,1l-0.2,0.3l-0.5,0.3l-0.6,0.3l-0.6,0.2l-2.2,0.3l-0.5,0.2l-0.2,0.2
		l-0.4-0.3l-0.1,0.9l0,0.7l0,0.4l0.7,0.3l0.3,0.4l0.1,0.6l0.1,0.2l0.3,0l0.3-0.1l0.5-0.1l0.5-0.2l0.2,0l0.5,0.2l0.2,0.2l0,0.2
		l-0.1,0.2l0,0.3l0.2,0.5l0.1,0.1l0.3,0.1l0.3,0l0.3,0l0.3-0.1l0.1-0.3l0.2-0.5l0.4-0.2l0.5,0l0.8,0.2l1.1,0.5l0.3,0l0.3-0.1h0.3
		l0.7,0.7l0.1,1.1l-0.3,1.3l-0.4,1l-0.3,0.4l-1,1l-0.2,0.3l0.3,0.7l0.5,0.5l0.6,0.3l0.6,0.1l0.7,0.1l0.4-0.1l0.2-0.4l0.1-0.8
		l0.2-0.6l0.4-0.4l0.6-0.2l0.6,0.1l-0.5,0.4l-0.2,0.4l0.1,0.4l0.4,0.5l0.5,0.3l1.5,0.2l0.9,0.4l0.8,0.6l0.9-0.1l0.2,0.1l0.4,0.2
		l0.2,0.1l0.9,0.1l0.4,0.1l0.3,0.3l0.9,0.6l1,0.3l2,0.2l1.9-0.3l0.7,0.2l0.5,1.1l0,0.2l-0.1,0.1l0,0.2l0.1,0.3l0.3,0.2l0.2,0l0.2,0
		l0.3,0l0.9,0.5l0.4,0.3l1,1.2l0,0.1l0,0.1l0,0.1l0.2,0.1h0.4l0.1,0l0.1,0.2l0,0.2l0,0.2l0.2,0.1l0.2,0l0.4-0.3l0.2-0.1l0-0.7l0.6,0
		l1.4,0.6l0.8-0.1l0.6-0.3l1.2-0.9l0.2,0.2l0.2-0.1l0.2-0.2l0.1-0.3l0.4,0.3l1.5,0.8l0.3,0.6l0.7,0.1l0.7-0.2l0.5-0.2l-0.1,0.5
		l0.1,0.5l0.3,0.5l0.4,0.3l0.2,0.2l0,0.2l0.1,0.2l0.3,0.1l0.3,0.1l0.2,0.1l0.1,0.2l0.1,0.1l1,0.4l0.9-0.1l1.9-0.7l1.5-0.2l0.5-0.3
		l0.4-0.1l1.3,0.3l0.4,0.2l0.5,0.9l0.4,0.4l0.4-0.1l0.7-0.9l0.4-0.4l0.5-0.2l0.7,0.5l0.1,0.1l0,0.1l0,0.1l0.1,0.1l0.5,0.1l0.5,0
		l1-0.2l0.4,0.2l3.1-0.1l0.9,0.1l0.3-0.1l0.2-0.3l0-0.5l-0.2-0.5l-0.3-0.4l-0.4-0.1l0.2-0.3l0.1-0.1l0.2-0.1l-0.3-0.4l0.4-0.9
		l-0.1-0.7l0.1-0.5l0.6-0.2l0.7,0l0.4,0l0.9,0.3l0.4,0.1l0.5,0l0.4,0.1l1.1,0.6l0.7,0.3l0.2,0.2l0.4,0.4l0.3,0.1l0.2-0.1l0.2-0.2
		l0.3-0.1l0.2,0.1l0.4,0.3l0.2,0.1l2.1,0.1l0.5,0.2l0.4,0.4l0.2,0.4l0.2,0.5l0.3,0.4l0.4,0.3l0.3,0l0.8-0.3l3.1,0l0.6,0.1l-0.1,0.4
		l0.1,0.1l0.2,0l0.2,0.1l0.4,0.7l0.5,0.6l0.4,1.1l0.4,0.4l0.6-0.2l0.4-1.2l0.8,0l0.7-0.3l0.4,0l1.4,0.9l0.3,0.1l2.9,0.3l-0.2,0.6
		l0.4,0.2l0.6,0.2l0.3,0.4l-0.6,0.1l-0.5,0.4l-0.3,0.6l-0.1,0.8l0.1,0l0.1,0.1l0,0.1l0,0.1l0.5,0.2l1.6,0.2l0.5,0.2l1.4,0.9l0.6,0.1
		l0.5,0l0.4,0.2l0.3,0.5l0.3,1.2l0.2,0.5l0.5,0.4l0.3,0.2l0.3,0l0.7-0.1l0.4-0.1l0.3-0.2l0.4-0.4l0.6-0.4l0.1-0.2l0.2-0.5l0.1-0.2
		l0.4-0.2l1.2,0.1l1.6-0.4l0.8-0.1l0.7,0.4l0.3,0.2l1.5,0.6l0.8,0.2l0.4,0l0.2,0.5l0.4,0.5l0.5,0.4l0.5,0.1l0.5,0.3l0.3,0.1l0.3,0
		l0.2-0.1l0.2-0.5l0.2-0.2l0.5,0l1.2,0.4l0.6,0.1l0.7,0l0-0.1l-0.3-0.3l-0.2-0.6l0.2-0.3l1.1-0.8l0.4-0.2l0.5,0l1,0.1l0.5-0.1
		l0.4-0.2l0.8-0.7l0.4-0.2l0.4,0l0.4,0l0.4-0.1l0.8-0.6l0.8,0.3l0.4-0.3l0.3,0l0.7,0l0.2,0l0.2,0.3l0.2,0.3l0.2,0.2l0.3,0.2l0.5,0.2
		l0.6,0.1l0.7,0l1.7-0.3l0-0.2l0-0.8l-0.8-1l-1.8-1.6l-0.3-0.6l-0.3-2.4l0-0.4l-0.1-0.2l-0.1-0.1l-0.3,0l-0.1,0l-0.2-0.2L441,418
		l0-0.3l0.3-0.3l0.3,0.4l0.1,0.1l0.1-0.2l0.3-1.6l0-0.6l0-0.6l-0.1-0.5l-0.2-0.3l-0.3-0.1l-0.7-0.2l-0.4,0l-0.2-0.1l-0.2-0.2
		l-0.2-0.4l-0.2-0.2l1-1l0.3-0.1l0.1-0.2l0-0.7l0.1-0.2l0.2,0l0.4,0.2l0.2,0l0.4-0.4l-0.1-0.3l-0.7-0.5l-0.3-0.5l-0.1-0.5l0.2-0.4
		l0.5-0.1l-0.3,0.6l-0.1,0.3l0.1,0.2l0.3,0.1l0.1-0.3l0.1-0.3l0.2-0.2l0.1-0.2l0.1-0.4l0.1-0.8l0.1-0.3l0.5-0.5l0.1-0.4l-0.2-0.3
		l-0.4-0.2l-0.4-0.4l-0.2-0.9l0.1-0.2l0.3-0.1h0.7l0.1,0.1l-0.2,0.2l-0.5,0.3v0.2l0.3,0.2l0.2,0.2l0.1,0.1l0.2-0.1l0.7-1l0.1-0.4
		l0.3-0.3l0.6-0.5l0.2-0.3l0.2-0.6l0.2-0.3l0.4-0.5l3.5-2.4l0.9-0.4l0.6-0.1l1,0.5l0.5-0.2l2.1-2.3l0.8-0.6l2.8-1.4l5-3.8v-0.2
		l-0.9,0.3l-0.8,0.6l-1.3,1.3l-1.3,1l-0.8,0.4l-0.9,0.1v-0.2l2.1-0.8l0.3-0.4l0.1-0.5l0.2-0.3l1.6-1.3l0.7-0.4l1.6-0.4l1.1-0.7
		l0.7-0.2l1.4-0.2l-0.2,0.5l-0.3,0.3l-0.4,0.2l-0.6,0.1l-1.2,0.1l-0.6,0.2l-0.3,0.4l0.9-0.4l1.5-0.1l1.5,0.1l0.6,0.5l0,0.1l0.5,1.7
		l0.1,0.3l0.2,0.2l0.5,0.2l0.6,0.1l7.8,0.2l1.1,0.2l0.7,0.5l0,0.6l-0.2,0.7l-0.2,0.5l-0.1,0.2l0.7,0.3l1,0.3l3.7,0.2l0.9-0.3
		l-0.6-0.6l-0.8-0.5l-0.7-0.7l-0.4-1.1v-2.3l-0.1-0.3l-0.7-1.1v-0.2l0.4,0.2l0.4,0.5l0.3,0.5l0.2,0.5l0.1,0.5l-0.1,1.9l0.4,0.8
		l0.8,0.7l1,0.5l1,0.3l-0.2-0.5l-0.2-0.2l-0.1-0.2l0.2-0.4l0.2-0.2l0.6-0.1l0.3-0.2l0.6-0.3l1.4,0.7l0.5-0.2l0.6,0.2l0.6-0.4
		l0.3-0.7l-0.3-0.8l-0.4-0.3l-0.3-0.2l-0.2-0.3l-0.1-0.6l0-0.2l0.1-0.4l0.2-0.4l0.2-0.2l0.2,0.1l0.4,0.5l0.1,0.1l0.6,0l0.2,0
		l0.5,0.2l0.1,0.2l0,0.3l0.2,0.5l0.5,0.6l0.6,0.1l0.7-0.2l0.7-0.4l0.1,0.8l-0.3,0.7l-0.5,0.6l-0.5,0.4l-0.7,0.2h-2.2l-0.8,0.4
		l-0.3,0.6l0.1,0.7l0.7,0.6l0.6,0.2l1.6,0l0.4-0.1l1.1,0.1l3.4-0.7l0.7,0.4v1.6l0.1,0.2l0.2,0.2l0.2,0.1l0.1,0l0,0.2l-0.1,0.2
		l-0.2,0.5l-0.2,0.3l-0.1,0.3l0.2,0.3l0.3,0.1l0.7,0l0.3,0.2l0.4-0.1l0.6,0l0.6,0.1l0.3,0.2l0.1,0.1l0.3-0.1l0.3-0.2l0.4-0.3
		l0.2,0.1l0.6,0.8l0.2,0.2l0.3,0.1l0.1,0.1l0.1,0.1l0.2,0l0.2-0.1l0.1-0.1l0.1-0.2l0.1-0.1l1.3,0.1l0.5,0.2l-0.2,0.6l0.9,0.5
		l0.5,0.1l0.6,0.1l0.2,0.1l0.1,0.4l0.2,0.1l0.5,0l0.2,0.1l0.2,0.1l-0.8,0.4l-0.2,0.3l0.1,0.4l0.2,0.2l1.2,0.5l0.6,0l0.2-0.2l0.1-0.4
		l0.2-0.2l0.4,0l0.8,0.1v-0.2l-0.4-0.2l-0.5-0.6l-0.4-0.2l0.7-0.3l0.4-0.1l0.4,0l-0.1,0.2l0,0.3l-0.1,0.2l0.6-0.2l0.8,0l0.7,0.2
		l0.5,0.3l0.2,0.1l1.8,0.1l0.2,0.1v0.3l-0.2,0.5l-0.1,0.1l-0.9,0v0.2l0.5,0.1l1.7,0l0.4-0.1V406h-0.2l-0.2-0.1l-0.3-0.2l0.2-0.7
		l0.1-0.5l0.2-0.4l0.6-0.3l0.3,0l1.7,0l0.2,0l0.4,0.1l0.3,0l0.3,0.1l0.1,0.3l0.1,0.3l0.1,0.1l0.9,0l0.2-0.2l-0.4-0.5l0.1-0.2l0-0.2
		l0-0.2l0.2-0.4l0.2-0.2l0.8-0.1l0.5-0.2l0.5-0.2l0.3,0l0.6,0.1l0.3-0.1l0.4-0.3l0.4-0.4l0.5-0.3l0.7,0.1l0.3,0.2l0.1,0.3l0.1,0.2
		l0.1,0.1l0.3,0.1l0.5-0.2l0.3-0.1l-0.2-0.4l1-0.8l0.2-0.2l-0.1-0.1l-0.1-0.1l-0.1-0.1l0-0.2l0.1-0.3l0.1-0.1l0.1-0.1l0.1-0.2
		l0.2-0.5l-0.1-0.2l-2.4,0.1l-0.2,0l0.1-0.3l0.4-0.3l0.7-0.3l0.6-0.1l0.2-0.2l0.1-0.3l0.2-0.4l0.4-0.3l0.4-0.1l0.3-0.2l0.2-0.9
		l0.2-0.6l0.3-0.5l0.3-0.3l0.5,0.4l0.6,0.2l1.3-0.1l0-0.1l0.1-0.2l0.2-0.1l0.1,0.2l0.1,0.1l0.2,0l0.2,0l0.1,0l0.1-0.1l0.1-0.4
		l0.1-0.1h0.2l0.1,0l0.1-0.1l0.9-1.5l0-0.1l0,0l0-0.5l0,0l0.3-0.5l0.4-0.3l0.4-0.2l0.4-0.3l0.6,0.2l0.6-0.2l0.6-0.3l0.7-0.2l0.1,0.1
		l0,0.2l0.1,0.2l0.2-0.1l0.1-0.1l0-0.1l0-0.2l0-0.2l0-1.5l0.1-0.2l0.2-0.1l0.2-0.3l0.3-0.3l0.4-0.1l0.4,0l0.3-0.1l0.2-0.1l0.2-0.2
		l0.5-0.7l0.3-0.2l0.3,0.1l0.2,0l1.2-0.1l-0.1,0.3l-0.1,0.1l0.5-0.1l0.1-0.3l0-0.4l0.2-0.3l0.4-0.1l0.1-0.4l0.4-0.4l0.5-0.2l0.6,0.3
		l0.2-0.2l0.2-0.1l0.3,0l0.2,0l0.1,0l0.2-0.1l0-0.1l0-0.4l0-0.1l0.1,0l0.1,0h0.1l0.3-0.2l-0.5-1.5l-0.1-0.8l0.4-0.7l1.1-1.1l0.5-0.7
		l1.3-1l0.6-0.6l0.2-0.4l0.2-0.7l0.2-0.4l0.3-0.3l0.4-0.3l0.3-0.3l0-0.6l-0.4-0.8l-0.6-0.5l-0.3-0.6l0.4-1l-0.8-0.1l-1,0.6l-0.7,0
		l-4.4,1.2l-1,0l-0.2,0l-0.2-0.2l-0.1-0.3l-0.2-0.2l-0.3-0.1l-0.7-0.1l-0.5-0.2l-2.7-1.5l-1-0.3l-1.5-0.7l-0.3-0.1l-0.3,0l-0.3,0.1
		l-0.3,0.1l-0.3-0.1l-0.2-0.2l-0.1-0.3l-0.1-0.3l-0.2-0.3l-0.2-0.3l-0.5-0.3l-0.2-0.2l-0.1-0.2l-0.3-0.7l-0.2-0.3l-0.6-0.6l-0.1-0.1
		l-0.1-0.3l0-0.2l0.1-0.2l0.2-1l0.2-0.3l0.8-0.4l-0.7-0.5l-0.8-0.7l-0.6-0.9l-0.1-1l0.3-0.4l1.3-0.9l0.9-1.4l0.4-0.2l-0.3-0.7
		l0.2-0.7l0.5-0.5l0.6-0.3l0.5,0l0.9,0.3l0.4,0l-0.1-0.4l-0.8-1.3l-0.1-0.3l-0.1-0.8l-0.3-0.7l0,0l0.1-0.5l0,0l0-0.2l0-0.1l0-0.1
		l-0.1-0.2l-0.1-0.2l-0.5-0.5l-1.3-0.5l-0.4,0l-1.2,0.2l-0.5-0.1l-1.7-0.9l-0.8-0.7l-0.4-0.7l0-1.8l-0.2-0.9l-0.7-0.4l-0.9-0.1
		l-0.3-0.2l-0.3-0.5l-0.1-0.3l0-0.3l0-0.2l-0.4-0.3l-0.4-0.6l0.3-0.4l0.5-0.3l0.9-0.5l0.2,0l0.5,0l0.2,0l0.2-0.1l0.5-0.3l0.2-0.1
		l0.9,0.1l0.9,0.5l0.9,0.3l0.8-0.4l0.1-0.2l-0.2-0.1l-0.1-0.2l0.1-0.3l0.2-0.1l0.6,0l0.2,0l0.4-0.3l0.4-0.7l0.3-0.3l0.9-0.4l0.9-0.2
		l0.2,0.1l0.3,0.3l0.1,0.1l0.2-0.2l0.5-0.8l0.7-0.5v-0.5l-0.3-0.7l-0.1-0.9l0.1-0.2l0.8-0.9l0.5-0.9l0.2-0.5l0-0.4l-0.2-0.1
		l-1.1-0.4l-0.3-0.2l-0.2-0.4l-0.2-0.4l-0.2-0.4l-1.1-0.8l-1.1-0.6l-0.2-0.5l-0.1-1.4l-0.1-0.2l-0.3-0.4l0-0.3l0.1-0.3l0.3-0.6
		l0.1-0.2l-0.2-0.5l-0.3-0.2l-0.8-0.2l-0.3-0.2l-0.6-0.5l-0.3-0.1l-0.7-0.1l-0.7-0.5l-0.5-0.7l-0.3-1.4l-0.1-0.6l0-0.6l0.1-0.5
		l0.3-0.5l0.4-0.2l0.7-0.1v-0.1l0.1-0.1l0.1-0.2l0.1-0.1l0.1,0l0.2,0.1l0.1,0l0.2,0l0.6,0l0.5-0.1l0.6-0.3l0.5-0.4l0.3-0.5l0.2-0.4
		l0.2-0.4l0.3-0.3l0.4-0.2l-0.2-0.3l-0.1-0.3l-0.2-0.6l-0.3-0.7l-0.1-0.4l-0.1-0.1l-1.7-1.8l-0.6-0.2l-0.2,0.1l-0.2,0.2l-0.2,0.1
		l-0.2,0l-0.2-0.2l0-0.1l0.1-0.1l0-0.3l0,0l0-0.3l0-0.3l-0.1,0l0.1-0.2l0.2-0.2l0.2-0.2l0-0.3l-0.4-0.3l-2-0.4l-0.2-0.6l0.2-1.1
		l0.4-1.2l0.9-1.6l-0.6-0.9l-0.9-0.9l-0.5-0.8l0.1-0.4l0.7-0.7l0.2-0.6l-0.1-0.6l-0.2-0.3l-0.4-0.2l-3.8-0.9l-1.7-0.1l-1.6,0.3
		l-2.2,1.3l-0.8,0.2l-0.8,0l-0.8,0.2l-0.8,0.6l-0.7,0.9l-0.5,0.7l-0.1,0.5l0.1,0.3l0.2,0.6l0,0.1l0.2,0.5l0.1,0.1l0.3,0.1l0.4-0.2
		l0.2,0.1l0.1,0.8l-0.7,0.6l-1.6,1l-1.3,1.4l-0.8,0.4l-0.9-0.4l-1.1,0l-1.1,0.2l-0.6,0.3l0.3-0.7l0.2-0.3l0.1-0.3l-0.4-0.5l-0.3-0.5
		l0.1-0.4l0.6-0.4l1.5-0.7l0,0h0.1l0.2,0.1l0.2,0l0.1,0l0.6-0.2l0.1-0.2l0-0.3l0-0.4l0.2-0.9l0.1-0.3l0.8-1.7l0-0.4l-0.3-0.5
		l-0.4-0.4l-1.4-0.8l0.3-0.2l0-0.2l0-0.2v-0.3l0-0.1l-0.1-0.1l-0.1-0.2v-0.2l0.1-0.2l0.3-0.3l0.9-1.4l0.9-1l-0.6-0.6l-0.1-0.4
		l0.3-0.4l3.4-2.8l1.8-0.9l0.3-0.2l0.7-0.7l0.8-0.4l0.3-0.2l0.3-0.3l0.1-0.3l0-0.6l-0.2-0.2l-0.1-0.2l-0.1-0.2l0-0.2l0.4-1.1
		l0.2-0.3l0.1-0.3l0-0.5l-0.1-0.4l-0.3-0.6l-0.1-0.3l0.4-1.2l1.2-0.6l2.7-0.8l1.7-1.2l0.6-0.8l-0.3-0.6l0.3-0.5l0.2-0.2l0.6-0.2
		l0.1-0.2l0.1-0.1l0.4-0.2l0-0.6l0.8-0.2l1.6-1.4l0.5-0.7l0.7-0.7l1.7-1.2l-0.1-0.8l0.2-0.7l0.5-0.5l0.2,0l0.1,0l0.4-0.5l0.3-0.1
		l0.3-0.1l0.2-0.1l0.2-0.4l-0.3-0.3l-0.4-0.3l-0.4-0.3l-0.5,0.2l-3,0.3l0.1-0.4l0.3-0.5l0.4-0.4l0.7-0.4l0-0.6l0.7-0.1l0.4-0.2
		l0.4-0.3l0.2-0.3l-0.1-0.4l-0.3-0.5l-0.1-0.4l0.5-0.1l0.2-0.2l0.2,0l0.2,0l0.2,0.2l0.7,0.1l1.3-0.2l0.6,0.1l0.3,0.2l0.3,0l0.7-0.1
		l-0.5,1l0.1,0.6l0.5,0.3l0.7,0.2l0.1,0.1l0.1,0.1l0.1,0.1l0.2,0.1l0.2,0l1-0.4l0.7-0.1l1.7,0.1l0.7-0.3l0.5-0.6l0.1-0.3l0-0.2
		l-0.1-0.2l-0.1-0.1l-0.1-0.2v-0.2l0.3-0.1l0.4,0.1l0.3,0.2l0.3,0l0.4-0.3l0-0.1l0-0.1v-0.1l0-0.1l-0.2-0.2l-0.1-0.1l0-0.1l0.2-0.1
		l0.3,0l0.2-0.1l0.1-0.2l0-0.3l-0.1,0l-0.4-0.3l-0.1,0l1.1-0.8l0.6-0.3l0.9-0.3l-0.1,0l0.1,0l0.1-0.3l0.1-0.1l-0.1-0.3l-0.1-0.2
		l-0.2-0.1l-0.2-0.2l-0.6-1l-0.3-0.4l-0.4-0.2l-0.1-0.2l-0.1-0.4l-0.1-0.7l0.1-0.2l0.4-0.4l0.1-0.2l0-0.6l-0.3-1.2l0.1-0.5l0.4-1.1
		l0.1-0.2l0.3-0.2l0.1-0.4l-0.1-0.6l0-0.2l0-0.1l0-0.1l0-0.1l0.1-0.2l0.2-0.1l0.1-0.2l0.2-0.3l0-0.2l0-0.6l0.1-0.5l0.7-0.7l0.2-0.4
		l-0.1-1.1l-1.1-1.8l-0.1-1.4l0.2-0.7l0.2-0.5l0.2-0.3l0.2-0.2l0.1-0.3l0.1-0.5l0.2-0.4l1.6-2l0.3-0.5l0.2-0.6l0.1-0.7l0.2-0.7
		l0.4-0.3l0.5-0.2l0.3-0.5l0-0.5l-0.1-0.5l-0.2-0.4l-0.1-0.4l0-0.5l0.2-0.9l0.1-0.4l0.2-0.3l0.2-0.2l0.1-0.3l0.1-0.7l0.1-0.3
		l0.3-0.3l0.6-0.5v-0.2l-0.3-0.7v-1.2l0.2-1.1l1.1-1.5l0.3-0.2l0.4-0.1l0.4-0.3l0.7-0.8l0.3-0.2l0.3-0.3l0.3-0.3l0.1-0.3l0-0.7
		l0.1-0.3l0.3-0.1l0.7,0l0.2-0.1l0.1-0.1l0.1-0.2l0.1-0.3l0.1-0.2l0.1-0.1l0.1-0.1l0.2,0l0.9-0.5l0.2-0.1l0.3-0.5l1.1-2.9l0.8-1.4
		l0.5-0.6l-0.3-0.2L568.1,209.8z M414.5,425.5l-0.3,0h-0.1l-0.6-0.1l-0.3-0.2l0-0.4l0.3-0.6l0.3-0.1l0.3,0.3l0.3,0.5L414.5,425.5
		L414.5,425.5z"/>
</g>

</svg>
