<?xml version="1.0" encoding="utf-8"?>

<svg version="1.2" baseProfile="tiny" xmlns="http://www.w3.org/2000/svg" xmlns:xlink="http://www.w3.org/1999/xlink" x="0px"
	 y="0px" viewBox="293 161.8 253.2 270.4" xml:space="preserve">

<g id="Gabon">
	<g>
		<polygon fill="#3A75C4" points="324.6,343.6 325.4,344.3 325.2,343.3 325.2,343 324.2,343 		"/>
		<polygon fill="#3A75C4" points="326.3,343.1 326.4,343 326.1,343 		"/>
		<polygon fill="#3A75C4" points="319.7,343.7 320.2,343.7 320.5,343.8 320.9,344 321.2,344.3 321.2,343.8 321.3,343.3 321.5,343
			320.1,343 		"/>
		<polygon fill="#3A75C4" points="327.5,343.5 328.9,346 329,346.2 328.6,346.5 328.1,347.3 328.3,347.8 329.4,348.5 329.9,349.1
			330.3,349.1 330.7,349.6 330.9,350.5 331.1,351.3 330.9,351.4 330.3,351.7 330.2,351.9 330,352.2 329.8,351.9 329.6,351.3
			329.6,351.1 328.7,350.5 328.6,350.2 328.6,349.5 328.5,349.2 328.3,349.1 327.3,349.1 327.1,349 326.8,348.7 326.3,348.2
			327.2,347.4 327.3,346.5 326.7,345.8 325.5,345.5 323.3,345.5 323.4,345.7 323.1,346 322.8,346.2 322.7,345.9 322.7,345.6
			322.8,345.4 323,345.3 323.3,345.2 323,344.3 322.7,344.3 322.3,345.2 322,345.4 321.5,345.2 321.6,345.1 321.6,345.1
			321.7,345.1 321.8,344.9 320.9,345 319.9,344.7 319.1,344.1 318.8,343.3 318.6,343.1 318.3,343.4 318.2,343.8 318.6,344
			318.7,344.2 319.1,344.6 319.5,345 319.7,345.1 320,345.5 321.8,347.3 322.4,348.9 322.9,349.7 323.9,350 323.7,350.4
			323.6,350.6 324.2,351 325.5,352.6 326.7,353.3 331,357.5 331.3,358.1 331.6,362.1 331.9,363.1 331.9,363.3 332.4,364.4
			333.4,365.7 334.5,366.8 335.5,367.5 335.1,366.9 334.2,365.7 333.7,365.1 334.5,365.6 336.3,367.7 337,368 337.4,367.5
			337.3,366.9 336.7,365.8 336.8,365.5 337,365.4 337.3,365.4 337.7,365.4 337.9,365.6 337.9,365.9 337.9,366.2 337.9,366.6
			338.1,366.6 338.6,366.8 338.9,367.1 338.7,367.2 338.5,367.3 338,367.8 337.9,367.9 338,368.4 338.3,368.9 338.7,369.3
			339.1,369.5 340.2,369.3 341.2,368.3 342.2,367.5 343.3,367.8 343.4,367.7 344,367.4 344.2,367.3 344.3,366.9 344.5,366.9
			344.9,367.2 345,367.5 346,369.5 346.8,369.5 348,369.7 349.1,370 349.6,370.5 349.5,370.8 349,370.9 348.5,370.8 348.1,371.1
			348,371.5 348.3,372.4 348.1,372.8 348.7,373.2 349.3,373.4 349.4,373.1 349.6,372.7 349.9,372.2 350.2,371.9 350.2,371.7
			350.2,371.4 350.2,371.2 350.3,371 350.7,371.1 351.2,371.3 351.5,371.3 351.9,371.5 352.4,372.3 352.7,372.5 352.9,372.7
			353.1,373 353.5,373.3 354.1,373.4 353.5,371.2 353.2,370.5 353.5,370.5 354.1,371.2 355.1,371.6 356,372 355.9,372.8
			356.2,372.9 357.1,373.4 356.8,374 356.4,374.2 355.3,374.3 354.8,374.2 353.9,374.2 352.9,374.4 352.3,374.6 352,374.9
			351.7,375.7 351.4,376.1 350.9,376.4 350.5,376.6 350.3,376.4 350.5,375.8 350,375.8 349.6,375.9 349.3,376.1 349,376.4
			348.8,375.9 348.7,374.3 348.5,374.3 348.4,374.4 348.5,374.4 348.4,374.6 348,374.3 347.7,374.3 347.6,374.5 347.5,374.9
			347.2,374.9 347,374 346.4,373 346.3,373 346.1,372.8 344.5,372.2 343.8,372.5 343.5,372 343.3,371.2 343.3,370.4 343.2,370.7
			343.1,370.8 342.9,371 342.7,371 342.6,370.5 342.7,370 342.9,369.5 343,368.9 342.2,369.8 341.6,370.5 341,370.9 340,370.7
			339.1,370.3 337.8,368.9 337,368.3 338,370 347.8,379.7 350.1,381.1 350.9,382.2 357.6,387.5 359.8,388.6 365.1,393.1 370,398.2
			370.4,398.4 371,398.7 371.5,399.5 372.3,401.1 374.1,402.9 374.4,403.3 374.7,403.7 376.2,404.5 376.8,404.9 377.7,406.1
			378.1,406.9 378.3,407.8 378.1,408.8 377.9,409.5 377.8,410.2 378.3,410.9 385.7,415.8 390.8,420.4 392.1,421.8 392.7,422.7
			392.9,423.5 393,424.5 393.2,425.4 393.4,426.2 393.9,426.9 395.4,428.9 399.1,432.2 402.1,424.1 402.8,422.8 404,421.8
			405.5,420.9 406.8,419.8 408.2,418.9 410,418.6 411.6,418 412.6,416.8 413.4,415.4 414.6,414.6 416.8,414.9 418.4,416.2
			421.9,421.7 422.6,422.5 423.6,422.8 425.9,422.5 426.8,422.6 429.3,423.4 430.1,423.4 431,423 432,422.3 432.7,421.4
			433.1,420.4 432.8,419.5 431.9,419.1 430.9,418.7 430,418.2 429.6,417.3 429.7,416.3 432.2,410.4 432.8,409.4 434.6,408
			435.2,407.1 434.8,405.7 433.1,404.9 431,404.3 429.4,403.6 427.7,402.1 426.7,401.6 424.3,400.5 423.9,400.3 423.6,399.9
			423.5,399.8 423.5,399.5 423.6,396.5 423.8,395.8 424.4,394.7 424.8,394.4 425.4,394.5 426.5,394.4 427.6,393.7 427.6,392.8
			426.9,391.8 423.6,388.3 422.1,386.1 421.4,385.3 420.5,385 419.3,385.4 417.5,386.6 416.8,386.8 416.5,385.8 417.1,383.8
			420.2,378.6 420.6,377.5 420.9,376.6 420.9,375.7 420.6,374.6 420.2,373.6 419.1,371.9 418.8,371 418.8,370.2 419.1,367.8
			418.9,366.8 418,364.3 418.3,363.5 418.4,363.4 420,363.5 422.2,364.2 422.8,364.5 423.1,364.8 423.3,365.2 423.6,365.5
			425.1,366.7 425.9,367.1 426.6,367.2 427.3,366.7 428.8,365.4 429.8,365 431.4,364.7 433.2,364.1 434.6,363.4 435,363.7
			435.8,364.3 437.3,366.1 438.6,367 440,367.2 457.3,363.5 456.8,362.5 457.1,361.1 457.7,359.6 458,358.4 457.7,356.6
			457.8,355.9 458.1,355.3 458.9,354 459.1,353.3 457.3,352.5 456.4,351.1 456.1,349.4 455.7,344.7 455.9,344.1 456.4,344.2
			457.7,345.7 458.5,345.9 459,345.6 459.2,345.1 459.3,344.7 459.3,344.3 459.6,343.8 459.8,343.5 460.1,343.2 460.4,343 327,343
					"/>
		<polygon fill="#3A75C4" points="469.8,344.6 471.6,345.1 472.3,345.7 472.8,346.7 473.8,349.9 474.2,350.8 474.4,351.1
			475.1,351.8 475.3,352 475.5,353 475.4,353 475.4,353.2 475.4,353.5 475.5,353.7 476.3,353.9 476.3,354.2 476.1,354.5 476,354.7
			475.8,355 475.8,355.3 475.8,355.6 476.4,356.1 476.6,356.4 476.6,356.9 476.8,357.6 477.4,357.6 478.5,357.1 478.9,357.5
			479.7,358.8 480.1,359.3 480.3,360.4 480.4,360.8 480.7,361.1 481,361.1 481.2,361.2 481.3,361.7 481,362 480.7,362.4
			480.6,362.8 480.6,363.2 480.5,363.6 480.3,364 480.1,364.3 479.6,364.7 479.4,365.1 479.5,365.3 480.1,365.3 481.4,364
			482,363.8 483,364 485.9,365.3 486.8,365.5 487.2,365.4 488.1,364.9 488.6,364.9 489,365 496.6,367.8 497.4,367.9 498.2,367.7
			499.2,367.8 499.4,367.8 500,367.6 500.3,367.7 500.7,368.2 500.9,368.3 501.4,368 501.5,367.7 501.7,367.3 501.9,366.9
			502.3,366.5 503.8,365.5 504.1,365.1 504.8,364.3 505.2,363.9 505.7,363.7 506.8,363.3 507.2,363 507.4,362.7 507.5,361.7
			507.8,361.3 511.1,358.1 511.5,357.6 511.6,357.2 511.7,356.3 511.8,355.8 512.3,355 513.2,353.6 513.3,353.4 513.4,353.4
			513.9,353.8 514.5,354.3 515,355.2 515.4,356.1 515.8,357.9 516.8,359.9 517.3,360.7 518.1,361.5 518.4,361.9 518.5,363.1
			518.9,363.4 519.4,363.6 519.8,364 520.4,364.8 520.2,365.1 519.7,365.4 519.1,366.7 518.2,367.1 517.8,367.5 517.8,369.2
			517.8,369.4 518.5,370 519.5,370.4 520.5,370.4 521.4,370.2 522.2,369.8 522.6,369.6 523.1,369.6 523.5,369.9 523.6,370.7
			523.9,370.9 524.2,370.9 526.2,370.3 526.5,370.2 526.9,370.3 527.6,370.7 528,370.8 528.4,370.8 528.7,370.5 529.2,369.1
			529.5,368.7 529.9,368.4 530.3,368 530.2,366.9 530.4,366.5 530.8,366.1 531.6,365.4 532,365.1 532.5,364.9 534.5,364.4
			534.7,364.6 534.4,363.2 531.1,360.4 531,358.9 531.6,358.5 533,357.9 533.6,357.3 533.6,357 533.4,356.2 533.4,355.8
			533.6,355.6 534.4,355.3 534.7,355 534.9,354.4 535.2,352.1 535.4,351.2 535.5,350.8 535.3,350.4 534.9,350.2 534.7,350
			534.7,349.7 534.9,349.3 534.9,348.8 535,348.4 535.2,348.1 535.5,347.8 540.7,345.7 541.8,345.1 542.1,344.5 541.9,343
			467.6,343 		"/>
		<polygon fill="#FCD116" points="333.4,251.1 335.5,252.6 336,252.8 337.4,252.8 337.7,253 338.4,253.6 338.9,253.9 340.9,254.6
			341.5,254.4 344.8,254.2 345.7,253.9 346.5,253.5 347.2,253.1 348,253.8 348.9,254 351.1,254 351.1,254.3 349.3,254.9
			348.7,254.9 347.9,254.8 346.7,254.3 346,254.3 345.4,254.5 343.9,255.5 343.4,255.9 342.6,257 342.1,257.3 341.4,256.7
			340.3,256.6 339.4,257 339.5,257.7 340.2,258.5 341.7,261.4 340.3,260.3 339,258.2 337.4,256.6 335.2,257 334.8,256.1
			334.4,255.8 333.7,255.8 333.3,256.1 332.1,257.3 331.9,257.6 331.6,257.2 331.2,255.7 331,255.2 330.5,254.9 328.3,254.3
			327.8,255.1 327.8,255.9 328,257.7 327.9,258.2 327.6,258.2 327.2,258 327,257.7 326.8,256.1 326.4,255.2 325.3,254.1 325,253.6
			324.8,253.4 323.4,253.4 322.9,253.6 322.6,253.9 322.4,254.3 322,254.6 321.9,254.2 321.9,253.7 322,253.3 322.2,253.1
			322.6,253 322.6,252.6 322.4,252.1 322.3,251.6 322.5,251 319.7,251 319.8,251.6 321.4,259.8 321.4,260.7 321.5,261 321.7,261.4
			321.8,261.8 321.6,262.2 321.3,262.6 321,263 320.9,263.6 320.8,264.1 321.3,265.2 321.4,265.6 321.4,266.1 321.2,267.1
			321.2,267.5 321,268.4 320,270.3 319.6,271.3 319.7,276.9 319.1,278.7 318,280.3 314.1,284.6 313.3,286.2 310.7,288.4
			310.4,289.6 310.7,290.3 311.2,291 311.3,292 310.7,290.9 310.2,291.1 310.1,291.5 310.2,291.9 310.1,292.4 309.9,292.5
			309.2,292.8 308.9,292.9 308.6,293.3 308.5,293.4 308.6,293.7 308.6,294.3 308.4,295 307.3,296.1 307.1,296.9 307,299.5
			306.8,300.4 306.5,300.4 306.2,299.7 306.5,298.2 306.5,297.4 306,296.6 304.4,295.1 304.1,294.3 304,293.6 303.6,292.9
			303.2,292.2 302.2,291.8 301.7,291.7 301.4,292 301.4,292.5 301.7,293 302.2,293.3 302.6,293.5 302.6,293.8 301.8,293.8
			301.1,293.6 300.5,293.6 300.2,294.3 300.1,295.1 299.9,295.9 299.9,296.6 300.2,297.3 299.5,297.1 299.3,296.5 299.2,295.9
			298.9,295.6 298.3,295.4 297.9,294.9 297.6,294.3 297.4,292.4 297,291 296.4,289.9 295.4,289.9 295.3,289.6 295.2,289.4
			295.2,289.2 295.4,288.8 294,288.5 293.5,288.1 293.9,287.3 293.6,287 293,287.9 294,291.1 295.4,292.8 296,295.1 296.9,296.7
			298.1,299.2 298.7,300.4 298.9,300.9 299.3,302.4 299.6,302.4 300.1,302.2 300.4,302.9 300.7,304 301,304.7 301.7,304.8 303,304
			303.5,304.2 303.3,304.3 302.9,304.6 302.6,305.1 302.3,305.7 303,306 302.3,306.2 301.7,305.9 300.5,304.8 304.9,310.3
			305.6,312.2 305.9,314.9 306.1,315.4 306.3,315.4 306.5,315 306.8,313.8 306.2,312.5 307,313.2 307.8,314.2 308,315.2
			307.1,315.8 307.2,316.1 307.3,316.2 307.4,316.4 307.1,317.2 307.3,318.1 307.6,318.8 308.2,319.1 308.8,319.3 310.4,320.5
			311,320.8 311.6,320.9 311.8,320.8 311.8,320.6 312.3,320.5 312.5,320.3 312.7,320.2 312.9,320.5 313.2,320.8 313.3,320.8
			313.2,321.2 313.1,322 313.2,322.9 313.7,323.5 314.4,323.6 316.5,323.2 317,322.9 317.3,322.3 317.8,321.7 318.5,321.4
			318.8,321.6 319.1,322.2 319.5,322.3 320,322.2 320.4,321.9 320.7,321.5 320.9,321 320.5,318.7 320.6,317.9 321,318.1
			321.1,318.3 321.1,318.5 320.9,318.7 321.7,320.3 321.8,321 321.1,322.3 320.9,323.1 320.6,323.5 320.2,323.6 319.2,323.7
			318.8,323.8 318.8,324.1 319.2,324.4 319.4,325.1 319.3,325.6 318.9,325.9 318.2,326 317.5,326.2 317.2,326.7 317.3,327.4
			317.5,327.5 317.9,327.5 318.3,327.6 318.5,327.8 318.4,328.6 318.5,329 318.8,329.6 318.8,330.3 319.1,330.7 319.4,330.8
			319.7,330.8 320,330.7 320.3,330.7 321.7,330.6 322.9,330.2 323.9,329.5 324.9,328 325.1,327.9 325.3,327.7 325.4,327.2
			325.2,326.6 325.2,326.3 325.5,326.2 326.1,326.2 326.2,326.2 327.1,326.7 327.5,326.8 327.3,327.5 327.3,328.4 327.7,330.1
			328.3,330.9 328.9,331.4 330.7,332.1 329.4,332.4 325.8,331.9 324.5,332.1 324.7,332.6 324.8,333.4 324.5,334.8 323.8,334.5
			323.6,333.8 323.6,333.1 323.9,332.4 322.8,332.5 321.6,332.9 320.6,333.5 320,334.2 319.9,333.8 319.6,333.5 319.3,333.3
			318.9,333.5 318.8,333.8 319.2,334.4 319.1,334.8 318.6,335.1 318.3,334.4 317.9,329 316.6,328.6 316.2,328.4 314.1,326.7
			313.9,326.5 313.3,326.1 311.9,324.4 311.6,324 311.4,323.1 310.4,322 309.9,320.7 309.4,320.2 308.7,319.9 308,319.9 307.2,319
			306.6,318.2 306.2,317 305.6,315.8 305.8,316.7 306.2,317.7 306.6,318.7 307.1,319.5 312.5,327.1 314.9,329.6 315.9,330.9
			316.7,332.7 316.7,333.2 316.7,334.5 316.8,335 317.2,336 317.3,336.4 317.3,338.2 317.2,338.6 317,339.3 317,339.9 317.1,341.1
			317.5,342 318.1,342.2 319.1,341.6 320.1,342.3 320.2,342.8 320.1,343 321.5,343 321.5,342.9 321.9,342.8 322,342.6 322.2,342.1
			322.4,341.6 322.7,341.3 323.5,341.6 324.2,343 325.2,343 325.2,342.9 325.4,342.5 325.6,342.7 326.1,343 326.4,343 326.7,342.7
			327,343 460.4,343 462.2,341.8 462.7,341.6 464.8,341.6 466.7,342.3 467.6,343 541.9,343 541.8,342.6 541.8,342.3 542.1,341.1
			542.2,337.7 542.5,336.8 543.1,336.2 544.1,335.6 543.7,335.3 542.8,335.1 542.1,334.9 541.5,333.1 540.7,332.7 540.4,332.3
			540.8,332 541.7,331.7 542.1,331.5 542.5,331.2 542.8,330.7 543,330.2 543.3,329.9 544.7,329.6 544.7,328.9 544.2,328.2
			543.6,327.6 544.2,326.3 544.3,325.3 544.4,324.9 544.9,324.4 545.5,324.1 545.8,323.6 545.5,322.7 544,321.7 543.4,321
			543.1,320.2 543.2,319.7 543.5,319.4 543.9,319.1 544.2,318.7 544.4,318.3 544.6,317.9 544.8,316.9 544.8,315.5 544.7,315.1
			544.4,314.6 543.5,313.7 543.2,313.2 543.2,312.8 543.4,312 543.4,311.7 543.3,311.2 542.8,310.2 541.6,306.8 541.6,306.2
			542.1,305.3 542.3,303.4 542.5,302.4 543.2,301.3 543.9,300.5 544.4,299.6 544.3,298.3 544,297.2 544,296.1 544.2,295 546,291.2
			546.3,289.8 545.9,288.5 544.9,286.4 544.3,285.9 542.6,284.7 541.6,283.4 540.1,282.5 538.5,281.7 537.3,281.4 536.5,281.5
			535.8,281.8 535.2,282 534.5,281.9 533.7,281.6 532.9,281.6 532.2,281.8 531.5,282.2 531.4,280.6 531.1,278.8 530.5,277.1
			529.8,275.6 528.7,274.5 527.1,273.7 525.3,273.4 523.7,273.8 523.4,273.4 523.1,273.1 522.6,273 521.1,272.8 520.7,272.9
			520.6,273.2 520.5,273.5 520.3,273.7 519.7,273.9 519.4,274 519.1,273.8 517.1,271.4 517.2,270.1 517.6,269.1 520.1,265.7
			520.6,265.3 521.1,264.8 521,264.3 520.8,263.8 520.7,263.2 520.9,262.8 521.5,262 521.6,261.5 521.2,261 520.7,260.9
			520.2,260.9 519.9,260.6 519.7,257.5 519.5,256.4 519.1,255 518.9,254 519.1,252.9 520.4,251 333.3,251 		"/>
		<polygon fill="#FCD116" points="307.8,290 306.2,289.7 306.2,289.3 306.6,289.2 306.8,288.9 306.8,288.6 306.5,288.2 306.2,288.6
			305.2,289.2 304.7,289.7 304.2,290.3 304.1,290.7 304.1,291.1 304.3,291.6 304.9,292.3 305.1,292.6 305.1,293.3 305,293.9
			305,294.4 305.4,295 306,295.4 306.6,295.5 307.3,295.2 308,294.7 308,293.3 308.1,291.5 		"/>
		<polygon fill="#009E60" points="543.5,222 542.7,221.3 542,220.4 541.3,219.5 540.8,218.5 540.2,216.2 539.6,215.4 537.5,214.4
			536.8,213.5 536.4,212.4 536.5,209.1 536.4,208 535.7,205.3 535.5,204.8 535,204.4 534.5,204.2 534.1,204 534,203.5 533.5,203.4
			533.1,203.2 532.9,202.9 532.5,202.6 530.8,202.2 529.9,202.1 529.1,202.3 527.5,202.9 526.6,202.8 525.9,202.3 525.3,201.7
			524.5,201.2 523.7,201.1 515.5,200.3 514.9,200.4 514.8,200.7 514.4,201.8 513.9,202.8 513.8,202.9 513.3,203.1 513.2,203
			512.7,202.8 512.4,202.8 512.1,202.9 511.6,203.3 511.3,203.4 510.5,203.6 510.1,203.6 509.7,203.6 508.8,203.6 508.2,204
			507.7,204.5 506.1,205.1 505.1,206.4 504.5,206.8 503.1,207.1 501.8,207.1 500.4,206.9 498.9,206.3 498.2,206.3 497.2,206.4
			496.4,206.6 496,206.9 495.8,207.7 495,207.9 494.2,208 493.4,209 492.6,209.3 491.7,209.5 490.2,209.4 489.3,209.6 488.9,209.5
			488.7,208.9 488.3,208.6 487.8,208.4 487.4,208 488.2,207.9 488.5,207.4 488.7,206.8 489,206.5 489.6,206.4 490.4,206.2
			491,205.7 491.4,204.9 491.7,204.7 491.8,204.5 491.4,204 491.3,203.7 491.2,203.3 491.3,203 491.2,200.9 491.3,200.6
			490.6,200.1 489.8,198 488.9,197.6 489.1,197 489.1,196.4 488.8,195.9 488.3,195.5 488,195.8 487.2,194.7 486.5,193.5
			487.2,192.6 487.4,191.6 487.1,189.6 487.3,188.7 487.6,187.9 487.7,187.1 487.4,186.3 487.9,186 488.4,185.4 488.7,184.8
			489.1,183.2 489.2,182.5 489,182 488.8,181.7 488.5,180.9 487.9,180.1 488.1,179.9 488.6,179.8 488.9,179.1 489.2,178.6
			489.5,178.2 489.8,178 490,177.7 490.1,177.2 489.8,176.4 489.8,176 490.2,175.9 490.5,175.7 491.3,174.9 491.5,174.7
			493.1,173.8 493.5,172.8 493.7,171.4 493.7,168.8 493.6,167.7 493.8,166.4 493.6,165.8 493.2,165.2 492.6,164.7 491.9,164.2
			491.4,164 491.1,164.1 490.5,164.3 490.1,164.3 489.8,164.2 489.2,163.7 488,163.5 486.6,163.4 486.2,163.6 485.7,163.9
			484.9,164.8 484.4,164.9 482.6,165.2 481.4,164.6 480.7,164.5 480.1,164.8 479.6,164.9 478.8,164.8 477.5,164.3 477.1,164.7
			476.6,164.9 476,164.9 475.4,164.6 475,165.1 474.2,164.9 473.2,164.5 472.4,164.3 471.9,164.5 471.4,164.9 470.8,165.3
			469.9,165.5 464,164.6 463,164.2 462.3,163.7 461.2,163.9 460.5,163.7 458,162.9 456.4,162.8 454,163.4 453.2,163.2 451.7,162.3
			451.2,162.1 450.8,162.2 449.9,162.7 449.4,162.8 448.6,162.9 446.9,163.5 446,163.6 444.1,163.5 442.4,163.3 441.6,163.2
			439,163.4 435.7,163.2 432.4,163.5 428.5,163.4 427.1,163.6 426.4,163.5 424.1,162.8 423.3,162.1 422.8,161.8 422.2,161.8
			421.7,161.9 420.5,162.3 408.9,162.7 408.8,163.1 409,163.7 409.1,164.3 408.8,164.9 408.5,165.3 408.2,165.8 408.1,166.5
			408.1,167.1 408,167.6 407.9,168.1 407.6,168.6 407.9,170.2 407.9,173.7 408,185.1 408.1,196.4 408.2,207.8 408.2,219.1
			395.2,219.1 382.1,219.1 369,219 356,219 351.2,219 349.1,219.2 348.9,219.9 348.9,221.1 348.7,221.7 348.2,222.2 347.5,222.4
			346.7,222.3 345.9,221.9 345.2,221.4 344.1,220.1 343.4,219.6 342.7,219.3 341.4,219.2 341.2,219.7 340.9,220.5 340.5,219.6
			340.1,217.7 339.5,216.8 338.8,216.5 336.3,216.5 335.5,216.6 335.1,217 334.8,217.6 334.4,218.2 333.6,218.4 332.8,218.4
			332.2,218.5 331.6,218.9 331,219.9 330.8,220.7 331.1,221.3 331.4,221.7 331.6,222.4 331.8,223.4 333.3,227.5 333.7,232.6
			333.6,234.8 333.7,235.7 334.3,236.5 334,237.2 333.5,239.1 333.3,239.5 332.9,239.8 332.7,240.6 332.7,241.5 332.9,242.1
			332.1,242 331.8,241.6 331.3,240.4 331.7,239.7 331.9,238.5 331.9,237.2 331.3,236.5 331.3,237.1 331,237.5 330.7,237.8
			330.1,238 329.9,236.8 328.9,236.3 327.6,236.2 326.6,236.5 327.2,235.6 328.1,235.5 330,235.9 330.7,235.5 330.9,234.6
			330.5,233.6 329.8,232.9 329,232.8 328.2,233.2 327.5,233.6 326.7,233.9 326.2,234.3 325.8,234.4 325.2,234.3 324.8,234.2
			324.4,234.1 323.9,234.1 323.4,234.3 322.5,234.8 322,235 321,235.2 320.1,235.3 319.8,235.8 319.6,238.2 319.7,238.9
			320.2,239.5 320.9,239.6 321.7,239.5 322.5,239.9 323.7,241.3 324.3,242.1 326.4,246.9 327,247.5 327.4,247.8 327.7,249.3
			328,249.8 328.4,249.8 329.3,249.3 329.7,249.2 330.2,249.3 330.5,249.2 330.7,248.7 331,248.7 331.3,249.5 331.9,250.2
			333.3,251 520.4,251 520.5,250.7 522.1,247.3 523,246.3 526.2,244.5 527.1,243.6 527.2,242.7 526.9,241.8 526.5,240.9
			527.8,239.1 529.9,238.8 532.4,239.1 534.6,239 535.2,238.7 535.4,238.6 535.6,238.3 538.8,235.6 539.1,234.6 539.2,232.4
			540.5,230.6 542.5,228.9 544,227.1 543.7,225.1 543.6,224.5 543.9,224.2 544.4,223.9 544.8,223.5 544.9,222.9 544.6,222.5 		"/>
		<polygon fill="#009E60" points="322.7,250 322.8,249.1 322.7,248.1 322.3,247.2 321.9,246.9 321.4,247 320,248.3 319.8,248.4
			319.7,248.6 319.5,249.8 319.4,250.2 319.7,251 322.5,251 		"/>
	</g>
	<path fill="none" stroke="#999999" stroke-width="0.25" stroke-linecap="round" stroke-linejoin="round" d="M304.9,292.3l0.2,0.4
		v0.7l-0.1,0.6l0,0.5l0.4,0.6l0.7,0.5l0.6,0l0.6-0.3l0.8-0.5l0-1.4l0.2-1.8l-0.4-1.5l-1.6-0.3v-0.3l0.4-0.1l0.2-0.3l0-0.3l-0.2-0.4
		l-0.4,0.5l-0.9,0.6l-0.5,0.5l-0.5,0.7l-0.1,0.3l0,0.5l0.2,0.5L304.9,292.3z M544.2,295l1.8-3.8l0.3-1.4l-0.4-1.3l-1-2.1l-0.5-0.6
		l-1.7-1.2l-1-1.3l-1.5-0.9l-1.7-0.7l-1.2-0.3l-0.7,0.1l-0.7,0.3l-0.7,0.2l-0.7-0.2l-0.8-0.3l-0.8,0l-0.7,0.2l-0.7,0.4l-0.1-1.6
		l-0.3-1.8l-0.5-1.7l-0.7-1.5l-1.1-1.1l-1.6-0.8l-1.8-0.3l-1.6,0.4l-0.3-0.4l-0.4-0.3l-0.4-0.2l-1.6-0.2l-0.3,0.1l-0.2,0.3l-0.1,0.3
		l-0.2,0.2l-0.6,0.2l-0.3,0.1l-0.3-0.2l-2-2.4l0-1.2l0.5-1.1l2.5-3.3l0.4-0.4l0.5-0.6l0-0.5l-0.2-0.5l-0.1-0.6l0.2-0.4l0.6-0.8
		l0.1-0.5l-0.3-0.5l-0.5-0.1l-0.5,0l-0.3-0.3l-0.2-3.1l-0.2-1.1l-0.4-1.3l-0.2-1.1l0.2-1l1.5-2.2l1.5-3.4l0.9-1l3.2-1.8l0.8-0.9
		l0.2-0.9l-0.3-0.9l-0.5-0.9l1.3-1.8l2.2-0.3l2.5,0.3l2.2-0.1l0.6-0.2l0.2-0.2l0.2-0.2l3.2-2.8l0.3-0.9l0.1-2.2l1.3-1.8l2-1.7
		l1.5-1.8l-0.3-2l-0.1-0.5l0.3-0.4l0.5-0.3l0.4-0.4l0.1-0.6l-0.3-0.3l-1-0.5l-0.8-0.8l-0.7-0.9l-0.6-0.9l-0.5-1l-0.7-2.2l-0.6-0.9
		l-2.1-1l-0.7-0.9l-0.4-1.1l0-3.3l-0.1-1.1l-0.6-2.7l-0.3-0.5l-0.5-0.4l-0.5-0.2l-0.4-0.2l-0.1-0.5l-0.5-0.1l-0.3-0.2l-0.3-0.3
		l-0.4-0.3l-1.7-0.5l-0.9-0.1l-0.8,0.2l-1.6,0.6l-0.9-0.1l-0.7-0.5l-0.6-0.6l-0.8-0.5l-0.8-0.2l-8.2-0.8l-0.6,0.1l0,0.2l-0.4,1.1
		l-0.5,1l-0.1,0.1l-0.5,0.2l-0.1,0l-0.5-0.2l-0.2,0l-0.3,0.1l-0.5,0.4l-0.3,0.1l-0.8,0.1l-0.4,0l-0.4,0l-0.9,0.1l-0.6,0.4l-0.6,0.5
		l-1.6,0.6l-1,1.3l-0.6,0.4l-1.5,0.3l-1.3,0l-1.4-0.3l-1.5-0.5l-0.7-0.1l-1,0.1l-0.8,0.2l-0.4,0.3l-0.3,0.8l-0.7,0.2l-0.8,0.1
		l-0.8,1l-0.8,0.3l-0.9,0.2l-1.5-0.1l-0.9,0.1l-0.4-0.1l-0.1-0.6l-0.4-0.3l-0.5-0.2l-0.4-0.4l0.8-0.1l0.3-0.5l0.2-0.6l0.3-0.3
		l0.6-0.1l0.7-0.2l0.6-0.4l0.4-0.9l0.3-0.2l0.1-0.2l-0.4-0.5l-0.2-0.3l0-0.3l0-0.4l-0.1-2l0-0.4l-0.7-0.4l-0.8-2.1l-0.9-0.5l0.3-0.6
		l-0.1-0.6l-0.3-0.5l-0.5-0.4l-0.3,0.3l-0.8-1.1l-0.7-1.3l0.8-0.9l0.1-1l-0.3-2l0.2-0.9l0.3-0.8l0.1-0.8l-0.3-0.7l0.6-0.3l0.4-0.6
		l0.3-0.7l0.4-1.6l0.1-0.7L489,182l-0.2-0.3l-0.4-0.8l-0.6-0.8l0.2-0.2l0.5-0.1l0.3-0.7l0.3-0.5l0.3-0.3l0.3-0.3l0.2-0.3l0.1-0.4
		l-0.2-0.8l0-0.4l0.4-0.2l0.2-0.2l0.8-0.9l0.3-0.2l1.6-0.8l0.4-1l0.2-1.4l0-2.6l0-1.1l0.2-1.3l-0.2-0.6l-0.4-0.5l-0.6-0.6l-0.7-0.5
		l-0.5-0.2l-0.3,0.1l-0.6,0.3l-0.4,0l-0.3-0.1l-0.6-0.5l-1.2-0.2l-1.3-0.1l-0.4,0.2l-0.5,0.4l-0.9,0.8l-0.4,0.2l-1.9,0.2l-1.2-0.5
		l-0.7-0.2l-0.6,0.3l-0.5,0.1l-0.8-0.1l-1.3-0.5l-0.4,0.4l-0.5,0.2l-0.6,0l-0.6-0.3l-0.4,0.5l-0.8-0.2l-1-0.4l-0.7-0.2l-0.6,0.2
		l-0.5,0.4l-0.6,0.4l-0.9,0.2l-5.9-0.9l-1-0.4l-0.7-0.5l-1,0.2l-0.8-0.2l-2.4-0.8l-1.7-0.1l-2.4,0.5l-0.8-0.2l-1.4-0.9l-0.5-0.2
		l-0.4,0l-0.9,0.5l-0.5,0.1l-0.9,0.1l-1.7,0.6l-0.9,0.2l-1.9-0.1l-1.8-0.3l-0.8,0l-2.6,0.2l-3.3-0.2l-3.3,0.3l-3.8-0.1l-1.5,0.2
		l-0.7-0.1l-2.2-0.7l-0.9-0.7l-0.4-0.2l-0.6-0.1l-0.6,0.1l-1.1,0.4l-11.6,0.4l-0.1,0.4l0.2,0.6l0.1,0.6l-0.3,0.6l-0.3,0.5l-0.3,0.5
		l-0.1,0.7v0.5l-0.1,0.5l-0.2,0.5l-0.3,0.5l0.3,1.7l0,3.5l0.1,11.4l0.1,11.4l0.1,11.4l0.1,11.4l-13.1,0l-13.1,0l-13.1,0l-13.1,0
		l-4.8,0l-2.1,0.3l-0.2,0.6v1.3l-0.2,0.6l-0.5,0.5l-0.7,0.2l-0.8-0.1l-0.8-0.3l-0.7-0.6l-1.1-1.3l-0.7-0.5l-0.7-0.2l-1.3-0.1
		l-0.2,0.5l-0.4,0.7l-0.4-0.9l-0.4-1.9l-0.6-1l-0.7-0.2l-2.5-0.1l-0.8,0.1l-0.4,0.4l-0.3,0.6l-0.4,0.5l-0.8,0.2h-0.8l-0.6,0.1
		l-0.6,0.4l-0.5,0.9l-0.2,0.9l0.2,0.5l0.4,0.4l0.2,0.7l0.1,1l1.5,4.1l0.4,5.1l-0.1,2.1l0.1,0.9l0.6,0.9l-0.3,0.7l-0.5,1.9l-0.3,0.4
		l-0.4,0.3l-0.2,0.8l0,0.9l0.2,0.7l-0.8-0.2l-0.3-0.4l-0.4-1.2l0.4-0.6l0.2-1.2l-0.1-1.3l-0.5-0.7l-0.1,0.6l-0.2,0.4l-0.4,0.3
		l-0.5,0.2l-0.3-1.2l-1-0.6l-1.3-0.1l-1,0.3l0.6-0.9l0.9-0.1l1.9,0.4l0.7-0.4l0.2-0.9l-0.3-1l-0.7-0.7l-0.8-0.1l-0.8,0.3l-0.7,0.4
		l-0.8,0.3l-0.6,0.4l-0.4,0.1l-0.6-0.1l-0.4-0.2l-0.4-0.1l-0.6,0.1l-0.5,0.2l-0.9,0.5L322,235l-1,0.2l-0.9,0.1l-0.3,0.5l-0.2,2.4
		l0,0.6l0.6,0.7l0.7,0l0.8-0.1l0.8,0.4l1.2,1.4l0.6,0.8l2.1,4.8l0.6,0.6l0.5,0.3l0.3,1.5l0.3,0.5l0.3-0.1l1-0.4l0.4-0.1l0.5,0.1
		l0.2-0.2l0.2-0.5h0.3l0.3,0.9l0.6,0.6l1.5,0.9l2.1,1.6l0.5,0.2l1.4-0.1l0.4,0.2l0.6,0.6l0.6,0.4l2,0.7l0.6-0.2l3.4-0.2l0.8-0.3
		l0.8-0.4l0.7-0.4l0.8,0.7l0.9,0.2l2.2,0v0.3l-1.8,0.6l-0.6,0.1l-0.7-0.1l-1.3-0.5l-0.7,0l-0.5,0.2l-1.5,1l-0.5,0.5l-0.8,1l-0.5,0.3
		l-0.7-0.6l-1.1-0.1l-0.9,0.4l0.1,0.7l0.6,0.8l1.6,2.9l-1.4-1.1l-1.3-2.1l-1.6-1.6l-2.2,0.4l-0.5-0.9l-0.4-0.3l-0.7,0l-0.4,0.3
		l-1.2,1.2l-0.2,0.3l-0.3-0.4l-0.4-1.5l-0.2-0.5l-0.6-0.3l-2.2-0.6l-0.5,0.8l0,0.8l0.2,1.9l-0.1,0.5l-0.3,0l-0.4-0.2l-0.3-0.2
		l-0.1-1.6l-0.4-0.8l-1.1-1.1l-0.2-0.6l-0.2-0.1l-1.4,0l-0.5,0.1l-0.3,0.3l-0.2,0.4l-0.4,0.3l-0.1-0.4l0-0.5l0.1-0.4l0.2-0.2
		l0.4-0.1l0-0.4l-0.2-0.5l-0.1-0.5l0.4-1.6l0.1-0.9l-0.2-1.1l-0.4-0.8l-0.4-0.3l-0.5,0.1l-1.4,1.2l-0.2,0.1l-0.1,0.2l-0.2,1.1
		l-0.1,0.4l0.5,1.4l1.5,8.2l0.1,0.9l0.1,0.3l0.2,0.3l0.1,0.4l-0.2,0.4l-0.3,0.4L321,263l-0.1,0.5l-0.1,0.5l0.5,1.1l0.1,0.4l0,0.5
		l-0.2,0.9l0,0.5l-0.2,0.9l-1,1.9l-0.3,0.9l0,5.6l-0.6,1.8l-1.1,1.7l-3.9,4.3l-0.8,1.6l-2.6,2.3l-0.3,1.1l0.3,0.7l0.5,0.7l0.1,1
		l-0.6-1.2l-0.5,0.2l0,0.4l0.1,0.5l-0.1,0.5l-0.2,0.1l-0.7,0.3l-0.3,0.2l-0.3,0.3l-0.1,0.2l0.1,0.2l0.1,0.6l-0.2,0.7l-1,1.1
		l-0.2,0.8l-0.1,2.6l-0.2,0.8h-0.3l-0.3-0.6l0.3-1.5l0-0.9l-0.5-0.8l-1.6-1.5l-0.3-0.9l-0.1-0.7l-0.3-0.7l-0.4-0.6l-1.1-0.5l-0.4,0
		l-0.3,0.3l0,0.5l0.3,0.5l0.5,0.3l0.4,0.2v0.3l-0.8,0l-0.8-0.2l-0.6,0l-0.2,0.6l-0.1,0.9l-0.2,0.8l0,0.7l0.4,0.7l-0.7-0.2l-0.2-0.6
		l-0.1-0.6l-0.3-0.3l-0.6-0.2l-0.4-0.5l-0.3-0.6l-0.2-1.8L297,291l-0.6-1.1l-0.9,0l-0.2-0.3l-0.1-0.2l0-0.3l0.2-0.4l-1.4-0.3
		l-0.5-0.4l0.4-0.8l-0.3-0.3l-0.6,0.9l1,3.2l1.3,1.7l0.6,2.3l0.9,1.6l1.1,2.6l0.7,1.1l0.2,0.5l0.4,1.5h0.3l0.4-0.3l0.3,0.7l0.3,1.1
		l0.3,0.7l0.8,0.2l1.3-0.9l0.5,0.2l-0.2,0.1l-0.3,0.3l-0.4,0.5l-0.3,0.6l0.6,0.3l-0.7,0.2l-0.6-0.3l-1.1-1.1l4.3,5.5l0.7,1.9
		l0.3,2.7l0.1,0.5l0.3,0l0.1-0.4l0.3-1.2l-0.6-1.3l0.8,0.6l0.8,1l0.2,1l-0.8,0.6l0.1,0.3l0.1,0.1l0.1,0.2l-0.3,0.8l0.1,0.9l0.4,0.7
		l0.5,0.3l0.7,0.2l1.5,1.1l0.6,0.4l0.6,0.1l0.2-0.1l0.1-0.2l0.4-0.2l0.2-0.2l0.2-0.1l0.2,0.3l0.3,0.3l0.1,0.1l-0.1,0.4l-0.1,0.8
		l0.1,0.9l0.5,0.6l0.7,0.1l2.1-0.4l0.5-0.3l0.3-0.6l0.4-0.6l0.7-0.2l0.3,0.2l0.4,0.6l0.4,0.1l0.5-0.1l0.4-0.3l0.3-0.4l0.1-0.5
		l-0.3-2.3l0-0.9l0.4,0.2l0.2,0.2l0,0.2l-0.2,0.3l0.8,1.5l0.1,0.8l-0.7,1.3l-0.2,0.8l-0.3,0.4l-0.3,0.1l-1,0.1l-0.4,0.1v0.3l0.4,0.3
		l0.2,0.6l-0.1,0.6l-0.4,0.3l-0.8,0.1l-0.6,0.3l-0.4,0.5l0.1,0.7l0.2,0.1l0.4,0.1l0.4,0.1l0.2,0.2l0,0.8l0,0.4l0.3,0.6l0.1,0.7
		l0.2,0.3l0.3,0.2l0.3,0l0.3-0.1l0.3-0.1l1.4-0.1l1.2-0.3l1-0.7l1.1-1.4l0.2-0.1l0.2-0.2l0.1-0.4l-0.2-0.7l0-0.3l0.3-0.1l0.6,0
		l0.2,0l0.9,0.5l0.4,0.1l-0.2,0.7l0.1,0.9l0.4,1.6l0.5,0.9l0.7,0.5l1.8,0.7l-1.3,0.3l-3.6-0.5l-1.4,0.2l0.3,0.5l0,0.7l-0.3,1.5
		l-0.6-0.4l-0.2-0.6l0.1-0.7l0.2-0.7l-1.1,0.1l-1.2,0.4l-1,0.6l-0.7,0.7l-0.1-0.4l-0.2-0.4l-0.3-0.2l-0.4,0.2l-0.1,0.3l0.4,0.6
		l-0.1,0.5l-0.5,0.2l-0.3-0.7l-0.4-5.4l-1.3-0.4l-0.4-0.2l-2.1-1.7l-0.3-0.3l-0.6-0.4l-1.4-1.7l-0.3-0.4l-0.2-0.8l-1-1.1l-0.5-1.4
		l-0.5-0.5l-0.7-0.3l-0.7,0.1l-0.9-0.9l-0.5-0.8l-0.4-1.3l-0.6-1.2l0.2,0.9l0.4,0.9l0.4,1.1l0.4,0.7l5.5,7.6l2.4,2.5l1,1.4l0.7,1.8
		l0,0.4l0,1.3l0.1,0.5l0.4,1l0.1,0.5v1.8l0,0.4l-0.2,0.8l0,0.5l0.1,1.3l0.4,0.9l0.6,0.2l1-0.6l1,0.7l0.1,0.5l-0.5,0.9h0.5l0.4,0.1
		l0.3,0.2l0.3,0.3l0-0.5l0.1-0.5l0.2-0.3l0.4-0.1l0.1-0.2l0.1-0.5l0.2-0.5l0.3-0.3l0.8,0.3l1.1,2l0.8,0.7l-0.2-1l0-0.4l0.2-0.4
		l0.2,0.2l0.7,0.4l0.4-0.4l0.8,0.8l1.4,2.4l0.1,0.3l-0.4,0.3l-0.5,0.8l0.2,0.5l1.1,0.7l0.5,0.5l0.4,0l0.4,0.6l0.3,0.9l0.1,0.8
		l-0.1,0.1l-0.6,0.2l-0.1,0.2l-0.1,0.3l-0.2-0.4l-0.2-0.5l0-0.2l-0.9-0.6l-0.1-0.3l0-0.8l-0.1-0.3l-0.2-0.1l-0.9-0.1l-0.3-0.1
		l-0.3-0.2l-0.5-0.6l1-0.8l0.1-0.9l-0.6-0.7l-1.2-0.3h-2.2l0.1,0.2l-0.2,0.3l-0.3,0.2l-0.2-0.3l0-0.3l0.1-0.2l0.2-0.1l0.3-0.1
		l-0.3-0.9h-0.3l-0.3,0.9l-0.3,0.2l-0.6-0.2l0.1-0.1l0.1,0l0.1,0l0.1-0.2l-0.9,0.1l-1-0.3l-0.8-0.6l-0.3-0.8l-0.2-0.2l-0.3,0.3
		l-0.1,0.4l0.5,0.2l0.1,0.2l0.4,0.4l0.4,0.4l0.2,0.1l0.3,0.4l1.8,1.8l0.6,1.7l0.5,0.8l0.9,0.3l-0.2,0.4l-0.1,0.2l0.6,0.5l1.3,1.6
		l1.2,0.7l4.3,4.2l0.3,0.6l0.3,3.9l0.3,1v0.2l0.5,1.1l1,1.3l1.2,1.1l1,0.6l-0.4-0.6l-1-1.2l-0.4-0.6l0.8,0.5l1.8,2.2l0.7,0.3
		l0.4-0.6l-0.2-0.6l-0.5-1l0.1-0.3l0.2-0.1l0.3,0l0.4,0.1l0.3,0.2l0,0.3l-0.1,0.3l0.1,0.4l0.2,0l0.5,0.2l0.3,0.3l-0.2,0.1l-0.2,0.1
		l-0.5,0.5l-0.1,0.1l0.1,0.5l0.3,0.5l0.4,0.4l0.4,0.2l1-0.3l1-1l1-0.8l1.1,0.2l0.1-0.1l0.6-0.3l0.2,0l0.1-0.4h0.2l0.4,0.3l0.1,0.3
		l1,2l0.8-0.1l1.2,0.2l1.1,0.4l0.5,0.4l-0.1,0.4l-0.4,0l-0.5,0l-0.4,0.2l-0.1,0.4l0.3,0.9l-0.2,0.4l0.6,0.3l0.6,0.3l0.1-0.4l0.2-0.4
		l0.3-0.4l0.3-0.3l0-0.2l-0.1-0.3l0-0.3l0.2-0.1l0.3,0l0.5,0.2l0.3,0l0.3,0.2l0.5,0.8l0.3,0.2l0.2,0.2l0.2,0.3l0.3,0.3l0.6,0.1
		l-0.6-2.2l-0.3-0.8h0.3l0.6,0.7l1.1,0.4l0.8,0.4l-0.1,0.8l0.3,0.1l0.8,0.5l-0.2,0.5l-0.4,0.2l-1.1,0.1l-0.5-0.1l-0.9,0l-1,0.1
		l-0.6,0.2l-0.3,0.3l-0.3,0.8l-0.3,0.3l-0.5,0.3l-0.4,0.2l-0.2-0.1l0.1-0.6l-0.4,0l-0.4,0.1l-0.3,0.2l-0.3,0.3l-0.2-0.5l-0.1-1.6
		l-0.2,0l0,0l0,0.1l-0.1,0.2l-0.4-0.3l-0.3,0l-0.2,0.2l-0.1,0.4h-0.3L347,374l-0.6-1l-0.1,0l-0.2-0.2l-1.6-0.5l-0.7,0.3l-0.4-0.5
		l-0.1-0.8l0-0.8l-0.1,0.2l-0.1,0.2l-0.2,0.1l-0.2,0.1l-0.1-0.5l0.1-0.5l0.2-0.5l0.1-0.6l-0.8,0.8l-0.5,0.7l-0.6,0.4l-1-0.1
		l-0.9-0.5l-1.2-1.3l-0.8-0.6l0.9,1.7l9.8,9.7l2.3,1.5l0.8,1.1l6.7,5.3l2.2,1.1l5.4,4.5l4.8,5l0.4,0.2l0.7,0.3l0.5,0.8l0.8,1.6
		l1.8,1.8l0.3,0.5l0.3,0.4l1.5,0.9l0.6,0.4l0.9,1.2l0.4,0.8l0.2,0.8l-0.2,1l-0.3,0.7l-0.1,0.7l0.5,0.7l7.4,4.9l5.1,4.7l1.3,1.4
		l0.6,0.9l0.2,0.8l0.1,1l0.2,0.9l0.3,0.8l0.4,0.8l1.5,2l3.8,3.2l3-8l0.7-1.4l1.1-1l1.5-1l1.3-1.1l1.4-0.9l1.8-0.4l1.7-0.6l1-1.2
		l0.8-1.3l1.2-0.8l2.2,0.3l1.6,1.2l3.5,5.6l0.7,0.8l0.9,0.3l2.4-0.3l0.9,0.1l2.5,0.7l0.8,0l0.9-0.3l0.9-0.7l0.8-0.9l0.3-1l-0.3-0.9
		l-0.8-0.5l-1-0.3l-0.9-0.5l-0.4-0.9l0.1-1l2.5-5.8l0.6-1l1.9-1.4l0.6-0.9l-0.5-1.4l-1.7-0.8l-2.1-0.6l-1.6-0.8l-1.8-1.4l-0.9-0.5
		l-2.5-1l-0.3-0.2l-0.4-0.4l-0.1-0.2l0.1-0.2l0-3l0.2-0.8l0.6-1.1l0.5-0.3l0.6,0l1.1-0.1l1.1-0.7v-0.9l-0.6-1l-3.3-3.5l-1.5-2.2
		l-0.7-0.8l-0.9-0.3l-1.2,0.4l-1.8,1.2l-0.7,0.1l-0.2-1l0.5-2l3.2-5.2l0.4-1.1l0.2-0.9v-0.9l-0.2-1.1l-0.4-1l-1.1-1.8l-0.3-0.9
		l0-0.8l0.3-2.4l-0.2-1l-0.9-2.5l0.4-0.9l0.1,0l1.6,0.1l2.2,0.7l0.6,0.3l0.3,0.3l0.2,0.4l0.3,0.4l1.5,1.1l0.8,0.4l0.7,0.1l0.7-0.4
		l1.5-1.4l1-0.4l1.6-0.3l1.8-0.6l1.4-0.7l0.5,0.3l0.8,0.6l1.5,1.8l1.3,0.9l1.4,0.1l17.3-3.7l-0.5-1l0.3-1.4l0.6-1.5l0.3-1.2
		l-0.3-1.8l0.1-0.6l0.3-0.7l0.8-1.2l0.2-0.8l-1.7-0.8l-0.9-1.4l-0.4-1.8l-0.4-4.7l0.2-0.6l0.5,0.1l1.3,1.4l0.8,0.2l0.6-0.3l0.2-0.4
		l0-0.5l0.1-0.4l0.3-0.5l0.2-0.3l0.3-0.2l2.1-1.4l0.5-0.2l2.2-0.1l1.8,0.8l3.1,2.2l1.8,0.6l0.7,0.5l0.5,1.1l1,3.1l0.4,0.9l0.2,0.3
		l0.7,0.7l0.2,0.3l0.2,1l-0.1,0v0.2l0,0.3l0.1,0.2l0.8,0.2l0,0.3l-0.2,0.3l-0.1,0.2l-0.2,0.3l-0.1,0.3l0.1,0.3l0.6,0.6l0.2,0.3
		l0,0.5l0.2,0.8l0.6,0l1.1-0.5l0.4,0.4l0.8,1.3l0.4,0.5l0.2,1.2l0.1,0.3l0.3,0.3l0.3,0l0.2,0l0.1,0.5L481,362l-0.2,0.4l-0.1,0.4
		l0,0.4l-0.1,0.4l-0.2,0.4l-0.2,0.3l-0.5,0.4l-0.2,0.4l0.1,0.3l0.6,0l1.3-1.3l0.6-0.2l1.1,0.2l2.8,1.3l0.9,0.2l0.5-0.1l0.8-0.5
		l0.5-0.1l0.4,0.1l7.6,2.8l0.8,0.1l0.8-0.2l1,0.2h0.2l0.6-0.2l0.3,0.1l0.4,0.5l0.2,0.1l0.5-0.3l0.2-0.3l0.1-0.4l0.2-0.4l0.4-0.4
		l1.4-1l0.4-0.4l0.6-0.8l0.4-0.4l0.5-0.3l1-0.3l0.4-0.3l0.2-0.4l0.1-0.9l0.3-0.5l3.3-3.2l0.4-0.5l0.2-0.5l0.1-0.9l0.1-0.5l0.5-0.9
		l0.9-1.3l0.1-0.2l0.1,0.1l0.5,0.3l0.6,0.6l0.5,0.8l0.4,0.9l0.4,1.8l1,2l0.5,0.8l0.8,0.8l0.3,0.4l0.2,1.2l0.3,0.3l0.5,0.2l0.4,0.3
		l0.6,0.8l-0.2,0.3l-0.5,0.3l-0.6,1.3l-0.9,0.5l-0.3,0.4l0,1.7l0,0.2l0.7,0.6l1,0.3l1.1,0.1l0.9-0.2l0.8-0.5l0.4-0.2h0.4l0.4,0.3
		l0.1,0.8l0.3,0.3l0.3,0l2-0.6l0.3,0l0.5,0l0.7,0.4l0.5,0.2l0.4-0.1l0.3-0.3l0.5-1.3l0.4-0.4l0.4-0.3l0.3-0.4l0-1.1l0.2-0.4l0.4-0.4
		l0.8-0.7l0.4-0.3l0.4-0.2l2.1-0.5l0.2,0.1l-0.3-1.4l-3.3-2.8l-0.1-1.5l0.6-0.5l1.5-0.5l0.6-0.6V357l-0.3-0.8l0-0.4l0.2-0.2l0.8-0.3
		l0.3-0.3l0.2-0.6l0.2-2.3l0.3-0.9l0-0.4l-0.2-0.4l-0.4-0.3l-0.2-0.2l0-0.3l0.2-0.4l0-0.5l0.1-0.4l0.2-0.3l0.3-0.3l5.2-2l1.2-0.6
		l0.3-0.6l-0.3-1.9l0-0.4l0.3-1.1l0.1-3.5l0.3-0.9l0.5-0.6l1-0.6l-0.3-0.3l-0.9-0.2l-0.7-0.2l-0.5-1.8l-0.8-0.5l-0.3-0.3l0.4-0.3
		l0.9-0.3l0.4-0.2l0.4-0.3l0.3-0.4l0.2-0.5l0.3-0.4l1.4-0.3l0-0.7l-0.5-0.8l-0.6-0.6l0.6-1.3l0.1-1l0.2-0.4l0.5-0.5l0.6-0.4l0.3-0.5
		l-0.2-0.9l-1.5-1l-0.6-0.7l-0.3-0.8l0.1-0.5l0.3-0.3l0.4-0.3l0.3-0.4l0.2-0.5l0.2-0.4l0.2-1l0-1.4l-0.1-0.4l-0.3-0.6l-0.9-0.9
		l-0.3-0.5v-0.4l0.2-0.7l0-0.4l-0.2-0.5l-0.5-0.9l-1.2-3.4l0-0.6l0.5-0.9l0.2-1.9l0.2-1l0.7-1.1l0.8-0.8l0.5-0.9l-0.2-1.3l-0.3-1.1
		v-1.1L544.2,295z"/>
</g>

</svg>
