<?xml version="1.0" encoding="utf-8"?>

<svg version="1.2" baseProfile="tiny" xmlns="http://www.w3.org/2000/svg" xmlns:xlink="http://www.w3.org/1999/xlink" x="0px"
	 y="0px" viewBox="320.3 168.8 192.4 250" xml:space="preserve">
<g id="Background">

		<path fill="none" stroke="#999999" stroke-width="0.25" stroke-linecap="round" stroke-linejoin="round" stroke-miterlimit="10" d="
		M386.2,400.2v0.4l0.6,0.6l0.2-0.2v-0.4l-0.6-0.6L386.2,400.2z M398.7,385.4l-0.2,0.2l0.6,0.6l0.2-0.2l0-0.4l-0.2-0.2H398.7z
		 M385.1,400.6v0.4l0.2,0.2l0.2-0.2v-0.4l-0.2-0.2L385.1,400.6z M381.5,403.1l-0.2,0.2v0.4l0.2,0.2h0.4l0.2-0.2v-0.4l-0.2-0.2H381.5
		z M357.7,411.8l-0.4,0.3l-0.1,0.6l0.2,0.6l0.5,0.4l0.5-0.6l-0.1-1L357.7,411.8z M369.5,404.9l-0.2,0.2v0.4l0.2,0.2l0.4,0l0.2-0.2
		v-0.4l-0.2-0.2H369.5z M358.6,409.8l-0.2,0.2l0,0.8l0.2,0.2h0.4l0.2-0.2l0-0.4L358.6,409.8z M400.8,369.8l0.2,0.2h0.4l0.2-0.2v-0.4
		l-0.6-0.6l-0.2,0.2L400.8,369.8z M414,307.5l-0.2-0.9H413l-0.6,0.6l0,0.7l1.3,1.7h0.7l0.6-1l-0.6-0.9L414,307.5z M410.9,334.5
		l-0.3-0.4l0-4.1l-0.7-1.9l0.3-2.2l0.4-0.8l-1.1-1.1l0-1.5l-0.4-0.4v-1.5l-0.4-0.8l-1.5-1.9l0-2.6l0.8-1.5v-0.7l1.5-1.1v-1.1
		l-0.5-0.2l-1.5-1.5l-0.8,0l-1.9-1.1l-5.3,0l-0.8,0.8H398l-0.7,0.8l-0.8,0l-0.7,0.8l-1.5-0.8h-1.5l-0.4,0.4l-0.4-0.4l-0.7,0
		l-4.1-3.7h-0.7l-0.4,0.4l-3-0.4l-0.6,0.6l-0.2,0.9l-1.1,0.4l-2.3,1.9l-1.1,0.4l-1.3,1.3l0,0.4l-0.6,0.6l-3.4,0.7l-1.3,1.3l-0.4,1.5
		l-0.9,1l-0.8,0l-1.5,0.8l-0.2,1l-0.7,0.8l-1.1,2.2l-1.3,1.3l-2.3,1.1h-0.7l-0.4,0.4h-0.7l-1.1,1.1h-0.4l-0.6,1.3l-2.3,1.9l-0.4,0.8
		l0,2.6l-0.8,1.1l0,0.8l-0.3,0.8l-1,0.9l-0.4,0l-0.9,1.3l0,2.6l-1.1,1.9v1.5l-0.4,0.4v0.8l-1.7,2.1l-1.3,0.2l-0.8,1.5l0,1.9
		l-0.4,0.4l-0.7,1.1l0,0.7l-1.5,1.5v0.8l-0.7,0.8l0,1.1l-0.8,1.1l1.2,1.2l0.7,1.5v0.8l0.8,0.7l0,0.8l-1.5,1.1l0,0.4l-1.1,1.5l0,3
		l-1.1,0.7l-0.6,2.1l-1.9,0.4l-0.6,0.6l0.4,1.1l-1.1,0.4l0,0.7l1,0.9h0.7l1.1,1.5l1.2,0.4l0.9,0.9l0,1.9l-0.4,0.3l0,0.8l-1.1,1.1
		l0,0.7l-0.4,0.4l0.4,0.8l0,1.1l0.4,0.4l0,4.5l1,0.2l1-0.9v-0.4l0.6-0.2l0.2,0.9l0.8,0.4v0.7l0.8,0.7v0.4l-0.6,0.6h-0.7l-0.2-0.9
		l-1-0.2l-0.6,0.6l0,0.4l-0.8,1.5l0,1.1l-0.4,0.4l0,2.6l-0.4,0.4v1.1l-1,0.9l-0.8,0l-2.2,1.2l-1.9,0l-0.4,0.4l-1.9-1.1l-0.8,0
		l-0.2,0.9l1.1,0.7l0,0.4l-2.4,2.1h-0.4l-0.7,0.8l-0.8,0l-3,1.5h-0.7l-1.5,1.1h-1.5l-1.9,1.1v1.5l1.9,0l0.4,0.4l0.3-0.4h0.7l0.4,0.4
		h3.7l0.6-0.6l0.4-1.5l0.6-0.6l0.6,2.1l0.6,0.6l0.8,0.2l0.3,1.2l0.8,1l0.8-0.1l0.7-1.1l0.4-0.1l0.7,0.3l0.4,0.9l-0.4,1l0.7,0.5
		l0.8-0.4l0.6-3.1l0.1-2l0.6,0.5v0.8l0.6,0.6l0.8,0.2l-0.1,1.6l-0.7,0.8l-0.1,1.1l-1,2.2l0.3,0.2l0.4,0.9l0.4,0l1.6-0.9l0.7-0.7
		l0.1-0.5l0.3,0.7l0.6,0.3l0.3-0.2l0.6-0.7l0-1.1l0.4-0.6l-0.3-2.2l0.2-1.1l0.5-1.7h1.5l0.2,0.2l-0.8,1.5l-0.1,1.5l0.8,0.8l1.3-1.4
		l0.1-0.8l2.8-2.6l0-1.5l-0.4-0.4l0.2-1.3l0.7,1.1l1.5,0.8l0.4,0.7h1.5l0.2,1.7l0.6,0.6l1.1,0.4l0.4-0.4l1.1,0.8l1.2,0l0.9-1.7
		l0-0.8l-0.8-1.1l0-0.8l0.9-0.2l2,4.7l0.3,3.1l0.5,0.7l1.4-1.1l0.1-1.1l1-0.4l-0.1-1.2l-0.3-1.7h-0.4l-0.9-0.9l-0.4-1.1L361,407
		l0-0.8l0.5-0.2l2.3,1.5l1.5,0.4l0.8,1.1h0.4l1-0.9V407l-2.1-1.3l-0.3,0.4l-1.2,0l-0.5-0.9l0-0.7l0.5-0.2l0.4,0.4h1.9l1.1,0.8h1.5
		l1.1-1.1l1.1,0.8l1.5,0l0.8,1.9h1.1l0.2-0.6l-0.8-0.8v-1.1l-0.4-0.4l0.6-0.6l0.7,0l0.6-0.6l0-0.7l0.6-0.2l0.6,0.6l0,1.9l0.9,1.7
		l0.6-0.6l-0.4-1.1l0.6-0.6l1-0.2v-1.1l-0.4-0.4l0.2-1h0.8l0.2,1l0.9,0.9h0.4l0.8-0.8l1.3-0.2l0.4-0.8l-0.4-0.8l0.2-1l1.1,1.1
		l0.4-0.7h1.1l0.4-0.4l1.1,0.4l0.2-0.9l-0.7-0.8l0.2-0.6l0.4,0.4h1.1l0.8-0.8l0.7,0l0.6-1l0-1.1l-1.5-0.8l0.4-0.4v-0.7l0.6-0.2
		l1.5,1.2l0.6-0.2l0.2-0.9l1.5,0.8l0.6-1v-0.8l1.5-0.4v-0.4l-1.2-1.1l0-0.4l2.2-0.4v-0.4l-1.3-1.3l-0.6-0.2l1.3-0.9l0.8,0.4l0.6-0.2
		v-0.8l-0.8-0.7v-0.8l-0.4-0.4l0.9-0.2l0.8,0.7l1-0.2l-0.4-0.7l1.3-0.2l0.2-1l0.4-0.4l-1.1-0.7l0.4-3l-0.4-0.4l0.9-0.9l2.3,0.4
		l0.4-0.4l0.9-0.2l0-0.8l-1-0.6l-0.6-0.9l-0.4-0.8l0-1.1l-0.4-0.4l0-1.5l-1.5-1.5l0.4-3l1.1-1.1l-2.3-1.9l0-2.3l1.1-1.5l0.4-2.2
		l1.3-1.3l1.5-0.7l0.7,0.4l3-0.4l1.2,1.1l1.1,0l0.2-1l0.4-0.4l0-0.7l-0.9-0.6l-0.8,0.4l-0.6-0.6v-0.8l-0.4-0.4l0-7.1l0.4-0.4v-1.1
		l0.7-1.5v-4.1l0.4-0.4l0-0.7l1.5-1.9L410.9,334.5z M405.3,367.6v0.4l0.2,0.2l0.2-0.2v-0.4l-0.2-0.2L405.3,367.6z M402.5,378.3
		l-0.2,0.2l0.2,0.2h0.4l0.2-0.2l-0.2-0.2H402.5z M400.8,380.4l0.6,0.5l0.6-0.6l-0.6-0.6L400.8,380.4z M412.3,342.2l-0.2,0.2v0.4
		l0.5,0.6l0.6-0.5l-0.6-0.6H412.3z M458.5,193.9l1.1,0l0.2-0.2v-1.1l0.4-0.4l-0.2-0.2h-1.5l-0.2,0.2l0,1.5L458.5,193.9z
		 M419.8,265.6l1.3-0.9v-0.4l-1.3-1.7l-1.5,0l-0.2,2l1,0.9H419.8z M431,265.3l0.2-0.2v-0.4l-0.2-0.2l-0.6,0.6l0.2,0.2H431z
		 M464.8,193.9l0.2-0.2l0-0.4l-0.2-0.2h-0.7l-0.6,0.6l0.2,0.2H464.8z M508.4,171l0.8,0.4l1.1,1.2l1-0.6l-0.8-1.1l0-1.1l-0.6-0.5
		l-3-0.4l-0.5,0.6l0,0.8l0.9,0.9L508.4,171z M471.2,189.4l0.2-0.2l0-0.4l-0.2-0.2h-0.4l-0.2,0.2l0,0.4l0.2,0.2L471.2,189.4z
		 M490.8,184.2l0.2-0.2l-0.2-0.2l-0.4,0l-0.2,0.2l0.2,0.2L490.8,184.2z M409.2,309.2l0.2-0.2l0-1.5l-0.2-0.2h-0.7l-0.6,0.9l0.6,0.9
		H409.2z M334,412.4l-0.6,0.8l0.1,0.4l0.3,0.2l0.5-0.1l0.6-0.7l-0.5-0.6H334z M410.8,276.9l0.2-0.2v-0.4l-0.6-0.6l-0.7,0l-0.2,0.2
		l0.9,1L410.8,276.9z M350.1,410l0.4-0.4l-1-0.6l-0.9,0.6l0,1.1l-1.2,0.3l-0.4,1.5l0.2,0.4h0.8l0.7,0.4l1.1-0.2l1.1-2.1l-0.8-0.3
		L350.1,410z M327.1,416l-1.1,0.7l0,1.5l0.7,0.5l1.2-1.2l-0.1-1L327.1,416z M405.3,277.1l-0.2-0.2l-1.5,0l-1,0.6l0,0.8l0.6,0.6
		L405.3,277.1z M356,414l-1.1-0.5l0.4-0.6l-0.1-0.9l-1.6,0l0.1,2.8l1.6,1.6l0.9,0l0.2-0.3l-0.4-0.4L356,414z M404,366.6l-0.4-0.4
		l-0.9,0.2l0.9,0.9h0.4l0.4,0.4l0.6-0.2v-0.4l-0.6-0.6L404,366.6z M467.6,224.5l-0.6-0.6l-0.7,0.8l-1.1-1.9l-0.6,0.2l0,1.5l0.4,0.4
		l-0.4,2.3l3.4,0l0-1.5l-0.4-0.4V224.5z M469.3,216.8h-0.8l-0.4,0.4l-1.5,0l-0.2,0.9l0.9,1.3l1.1,0.7l1.1-0.4l0.6-1l0-1.1
		L469.3,216.8z M470.8,215.7l-0.5,0.6l0.6,0.2l0.8,0.8l0.5-0.2v-0.8l-0.6-0.6H470.8z M491.1,189l-0.2,0.2l0.2,0.2h0.4l0.2-0.2
		l-0.2-0.2H491.1z M459.2,218.3l0.2-0.2v-0.4l-0.2-0.2l-0.4,0l-0.2,0.2l0,0.4l0.2,0.2L459.2,218.3z M466,228.5l-0.2,0.2l0.4,0.4v0.4
		l0.2,0.2h0.4l0.2-0.2v-0.8l-0.2-0.2L466,228.5z M465.4,217l-0.4-0.4l-0.2-1l-0.9,0.2v1.5l0.5,0.6l0.9-0.2L465.4,217z M501.3,180
		l-0.2,0.2l0.6,0.6l0.2-0.2v-0.4l-0.2-0.2H501.3z M511.2,178.4l-0.7-3l-0.6-0.6l-2.2,0l-1.5,1.5l-0.4,0l-1.1,1.5l-1,0.2v1.1l0.9,0.9
		h0.4l0.2,0.2v0.4l0.9,0.9l3,0.7l1.1-0.7l0.9-0.2l0-1.9l0.4-0.8L511.2,178.4z M461.1,227l-0.7,0l-0.4,1.1l-0.8-0.4l-0.6,0.6
		l-0.4,1.5l0.9,0.2l1.1,1.1l1.9,0.8l1.3-2.1V229l-1.3-0.6L461.1,227z M512.5,172.9l-0.6,0.6l0.2,0.2h0.4l0.2-0.2v-0.4L512.5,172.9z
		 M501.3,184.1l-0.2,0.2v0.8l0.2,0.2h0.4l0.2-0.2l0-0.8l-0.2-0.2H501.3z M491.8,185.7l-1.5-0.8l-2-2.1l-0.4-0.8l0-1.5l0.4-0.4
		l-0.4-0.4v-2.3l0.4-0.4l0-1.5l-0.6-0.6l-1.1,0l-0.4,0.4l-0.8-0.4l-0.5-0.6l0-1.1l-0.6-0.2l-1.3,1.3l0,0.8l-0.9,0.9l-1.5,0.4
		l-0.2,0.6l-0.7,0.4v0.8l-0.7,0.4l-0.4,0.8l0,1.1l0.4,0.4l-0.4,0.8l0,1.9l0.4,0.4v1.5l-1.7,2.1l-0.6,0.2l-0.4,1.5l0.4,0.4l-0.4,0.8
		v1.1l0.4,0.7l-1.9,1.5l0,0.4l-0.9,0.9h-0.4l-0.8,0.7l-1.9,0.7l-0.4-0.4l-0.4,0.4l-2.6,0l-0.8-0.4l-0.9,1.3l0,0.7l-2.1,1.3l-0.8-0.4
		l-1.1,0l-0.4,0.4l-3-0.4l-0.8-2.6h-0.4l-0.6,1v1.1l-0.3,0.4l0.7,1.1l-0.4,0.8l0,1.1l2.1,2.1h1.5l0.4-0.4l0.4,0.4h0.7l0.4-0.4
		l0.9,0.9l0.4,1.9l-0.9,1.3l-0.8,0.4l-1.1,0l-0.7-0.4l-3.2,2.8v3l-0.4,0.8l0.4,0.4l-0.8,1.1l2.3,0l0-0.8l-0.4-0.4l0-1.5l0.6-0.6h0.7
		l0.8-0.7l0.6-0.2l0.6-1h0.8l0.4-0.4l1.5,0l0.4-0.4l1.3,0.6l0.2,0.6l0.7,0l0.7,0.8l2.3,0l2.1-2.5l0.2-0.6h0.4l1.1-1.1l1.5-0.3
		l1.5-1.1l1.1,0l1.1,1.1l1.9-0.4l0.4-0.4l1.5,0l1.9,0.8l0.8-0.8h1.5l0.4-0.4l0.8,0l0.6-0.5l0-2.3l-1.1-1.5l0-0.7l0.4-0.4l0-1.9
		l-0.4-0.4l0.4-0.4l0-2.6l0.4-0.8l0.7-0.4l0.6-1l1.9,0l0.6-0.9l-1.1-1.9l0-0.8l0.4-0.4l0-0.7l1-1l1.3-0.6l0-0.8L491.8,185.7z
		 M500.1,182.3l-0.2,0.2l0,1.1l0.5,0.6l0.6-0.2l0-1.5l-0.2-0.2H500.1z M434,270.1l-0.2,0.2v0.4l0.2,0.2l0.4,0l0.2-0.2v-0.4l-0.2-0.2
		L434,270.1z M460.3,233l-0.2,0.2v0.4l0.2,0.2h0.4l0.2-0.2v-0.4l-0.2-0.2H460.3z M433.5,271.5l0-0.7l-0.2-0.2h-0.4l-0.2,0.2l0,0.7
		l0.2,0.2h0.4L433.5,271.5z M432.7,266.6l-0.8-0.4l-0.2-0.6l-1.1,0l-0.6,0.6v0.8l2.4,0.2L432.7,266.6z M433.5,269.6l-0.8-0.8
		l-0.2-1.3l-1.3,0.2l-0.7,1.5l0,1.1l1.3,0.2l0.4-0.4l1.3-0.2V269.6z M421.7,280.7l-0.4,0.4l-1.5,0l-0.4,0.4l-1.9,0L417,282l0,1.5
		l0.6,0.6h0.8l0.7,0.8l0.8,0l1-0.6l0.2-1.3l0.4,0.4l1-0.2l0-1.9L421.7,280.7z M418.6,280.3l0.6-0.6l0.4-1.9l1.9-2.6l-0.7-0.8v-0.8
		L420,273l0-1.1l1.7-0.2l0.6-0.6l-0.2-1.3l-1.9,0.4l-0.8-0.7H419l-0.7-1.2h-0.4l-0.9,0.6v1.1l0.7,1.1l-0.4,0.4v0.8l-0.6,0.5
		l-0.4-0.4l-0.6,0.6l-0.4,1.5l-2.2,2.3v0.4l0.9,0.9h1.5l2.2,2.3H418.6z M416.8,310.3l-0.2,0.6l0.4,0.4v0.4l0.9,0.9l0.6-0.2v-1.1
		l-0.6-0.5L416.8,310.3z M433.3,317.8l-0.2,0.2l0,0.8l0.2,0.2l0.8,0l0.6-0.5V318l-0.2-0.2L433.3,317.8z M457.9,233.2v0.8l0.2,0.2
		h0.3l0.2-0.2v-0.4l-0.6-0.5L457.9,233.2z M459.2,233.7l-0.2,0.2v0.7l0.6,0.6l0.6-0.6l0-0.8l-0.2-0.2H459.2z M457.3,235.6H457
		l-0.6,0.6v0.8l0.2,0.2h0.4l0.2-0.2v-0.4l0.4-0.4l0-0.4L457.3,235.6z M451.3,196.6l-0.2,0.2l0,0.7l0.2,0.2h0.8l0.2-0.2v-0.4
		l-0.6-0.6H451.3z M414.1,296.8l0.6-0.2l0-0.4l-0.6-0.6l-1.7,1.3l0.2,0.2h1.2L414.1,296.8z M434.8,268.6l-0.6,1l0.7,0.4l0.2,0.6h0.4
		l0.2-1l0.7-0.4l-0.6-0.6H434.8z"/>
</g>
<g id="Grenada">
	<g>
		<polygon fill="#CE1126" points="471.2,189.4 471.4,189.2 471.4,188.9 471.2,188.7 470.8,188.7 470.7,188.9 470.7,189.2
			470.8,189.4 		"/>
		<polygon fill="#CE1126" points="338.2,414.6 337.9,415.4 338.6,417.8 339.9,417.1 340.6,416.3 340.7,415.8 341,416.5 341.5,416.9
			341.9,416.7 342.4,416.1 342.4,414.9 342.8,414.3 342.5,412.1 342.7,411.1 342.9,410.4 338.3,413.7 		"/>
		<polygon fill="#CE1126" points="501.1,185.1 501.2,185.3 501.5,185.3 501.1,185 		"/>
		<polygon fill="#CE1126" points="510.3,172.5 511.2,171.9 510.4,170.8 510.5,169.7 509.9,169.1 508.9,169 509.9,172.1 		"/>
		<polygon fill="#CE1126" points="506.9,168.8 506.3,169.3 506.3,170.1 506.7,170.4 507.2,168.8 		"/>
		<polygon fill="#CE1126" points="381.5,403.1 381.3,403.3 381.3,403.6 381.5,403.8 381.8,403.8 382,403.6 382,403.2 381.9,403.1
			"/>
		<polygon fill="#CE1126" points="327.8,405.8 325.9,406.8 325.2,406.8 324.9,407 327.5,407 		"/>
		<polygon fill="#CE1126" points="490.8,184.2 490.9,184 490.7,183.8 490.4,183.8 490.2,184 490.4,184.2 		"/>
		<polygon fill="#CE1126" points="389.5,393.5 390.1,393.3 391.6,394.4 392.2,394.2 392.4,393.3 393.9,394.1 394.4,393.1
			394.4,392.3 395.7,392 345.2,392 345,392.2 344.3,392.2 344.3,392 342.6,392 341.8,393.5 341.9,394.6 341.5,395 341.5,397.6
			341.1,398 341.1,399.1 340.2,400 339.4,400 337.2,401.2 335.3,401.2 334.9,401.5 333,400.4 333,400.4 335.1,407 347.6,407
			344.2,409.4 344.7,409.4 344.9,409.6 344.1,411.1 344,412.6 344.8,413.3 346.1,411.9 346.2,411.1 349,408.5 349,407 348.6,406.6
			348.8,405.3 349.5,406.4 351.1,407.2 351.4,407.9 352.9,407.9 353.1,409.6 353.7,410.2 354.8,410.6 355.2,410.2 356.3,410.9
			357.5,411 358.4,409.3 358.4,408.5 357.6,407.4 357.6,406.6 358.6,406.4 360.6,411.1 360.9,414.2 361.4,414.8 362.8,413.7
			362.9,412.7 363.8,412.2 363.7,411.1 363.5,409.4 363.1,409.4 362.1,408.5 361.8,407.4 361,407 361,406.2 361.6,406.1
			363.8,407.6 365.3,407.9 366.1,409.1 366.5,409.1 367.4,408.1 367.4,407 365.3,405.7 365,406.1 363.8,406 363.3,405.1
			363.3,404.4 363.8,404.2 364.2,404.6 366.1,404.6 367.2,405.3 368.7,405.3 369.8,404.2 371,404.9 372.5,404.9 373.2,406.8
			374.4,406.8 374.5,406.3 373.8,405.5 373.8,404.4 373.4,404 374,403.4 374.7,403.4 375.3,402.9 375.3,402.1 375.8,401.9
			376.4,402.5 376.4,404.4 377.3,406.1 377.9,405.5 377.5,404.4 378.1,403.8 379,403.6 379,402.5 378.7,402.1 378.8,401.2
			379.6,401.2 379.8,402.1 380.7,403.1 381.1,403.1 381.9,402.3 383.1,402.1 383.5,401.4 383.1,400.6 383.4,399.7 384.5,400.8
			384.9,400.1 386,400.1 386.4,399.7 387.5,400 387.7,399.1 386.9,398.4 387.1,397.8 387.5,398.2 388.6,398.2 389.4,397.4
			390.1,397.4 390.7,396.5 390.7,395.4 389.2,394.6 389.5,394.2 		"/>
		<polygon fill="#CE1126" points="491.1,189 490.9,189.2 491.1,189.4 491.5,189.4 491.7,189.2 491.5,189 		"/>
		<polygon fill="#CE1126" points="512.7,173.5 512.7,173.1 512.5,172.9 511.9,173.5 512.1,173.7 512.5,173.7 		"/>
		<polygon fill="#CE1126" points="386.2,400.2 386.2,400.6 386.7,401.2 386.9,401 386.9,400.6 386.4,400 		"/>
		<polygon fill="#CE1126" points="385.1,401 385.2,401.2 385.4,401 385.4,400.6 385.2,400.4 385.1,400.6 		"/>
		<polygon fill="#CE1126" points="357.2,412.1 357.1,412.8 357.3,413.4 357.8,413.8 358.3,413.2 358.2,412.1 357.7,411.8 		"/>
		<polygon fill="#CE1126" points="452.1,197.7 452.2,197.5 452.2,197.1 451.7,196.6 451.3,196.6 451.1,196.7 451.1,197.5
			451.3,197.7 		"/>
		<polygon fill="#CE1126" points="355.1,412 353.5,412 353.6,414.7 355.2,416.3 356.1,416.3 356.3,416 355.9,415.6 356,414
			354.9,413.5 355.3,412.9 		"/>
		<polygon fill="#CE1126" points="503.7,178.2 504.2,178.2 504.3,177.8 503.7,177.9 		"/>
		<polygon fill="#CE1126" points="465,193.7 465,193.4 464.8,193.2 464.1,193.2 463.5,193.7 463.7,193.9 464.8,193.9 		"/>
		<polygon fill="#CE1126" points="347,412.6 347.3,413 348.1,413 348.8,413.4 349.8,413.2 350.9,411.1 350.2,410.8 350.1,410
			350.5,409.6 349.6,409.1 348.6,409.6 348.7,410.8 347.5,411.1 		"/>
		<polygon fill="#CE1126" points="459.6,193.9 459.8,193.7 459.8,192.6 460.1,192.2 459.9,192.1 458.4,192.1 458.3,192.3
			458.3,193.7 458.5,193.9 		"/>
		<polygon fill="#CE1126" points="369.5,404.9 369.3,405.1 369.3,405.5 369.5,405.7 369.8,405.7 370,405.5 370,405.1 369.8,404.9
			"/>
		<polygon fill="#CE1126" points="358.4,410 358.4,410.8 358.6,410.9 359,410.9 359.2,410.8 359.1,410.4 358.6,409.8 		"/>
		<polygon fill="#CE1126" points="486.8,201.3 487.2,200.9 487.2,199 486.8,198.6 487.2,198.2 487.2,195.6 487.6,194.9 488.3,194.5
			488.9,193.5 490.7,193.6 491.3,192.6 490.2,190.7 490.2,190 490.6,189.6 490.5,188.9 491.5,187.9 492.8,187.4 492.8,186.6
			491.8,185.7 490.4,184.9 488.3,182.9 487.9,182.1 487.9,180.6 488.3,180.2 487.9,179.8 487.9,177.6 488.3,177.2 488.3,175.7
			487.7,175.1 486.6,175.1 486.2,175.5 485.5,175.2 484.9,174.6 484.9,173.5 484.3,173.3 483,174.6 483,175.3 482.1,176.3
			480.6,176.7 480.4,177.2 479.7,177.6 479.7,178.4 478.9,178.7 478.5,179.5 478.5,180.6 478.9,181 478.5,181.7 478.5,183.6
			478.9,184 478.9,185.5 477.2,187.5 476.7,187.7 476.3,189.2 476.7,189.6 476.3,190.4 476.3,191.5 476.7,192.2 474.8,193.7
			474.8,194.1 473.8,195.1 473.5,195.1 472.7,195.8 470.8,196.5 470.5,196.2 470.1,196.6 467.5,196.5 466.7,196.2 465.8,197.5
			465.8,198.2 463.7,199.5 462.9,199.2 461.8,199.2 461.4,199.6 458.4,199.2 457.7,196.5 457.3,196.5 456.7,197.5 456.7,198.6
			456.4,199 457.1,200.1 456.8,200.9 456.8,202 486.8,202 		"/>
		<path fill="#007A5E" d="M390.7,309.1l-3.6-3.3h-0.7l-0.4,0.4l-3-0.4l-0.6,0.6l-0.2,0.9l-1.1,0.4l-2.3,1.9l-1.1,0.4l-1.3,1.3l0,0.4
			l-0.6,0.6l-3.4,0.7l-1.3,1.3l-0.4,1.5l-0.9,1l-0.8,0l-1.5,0.8l-0.2,1l-0.7,0.8l-1.1,2.2l-1.3,1.3l-2.3,1.1h-0.7l-0.4,0.4h-0.7
			l-1.1,1.1h-0.4l-0.6,1.3l-2.3,1.9l-0.4,0.8l0,1.3l36.5-19C391.5,310.8,391.1,309.9,390.7,309.1z"/>
		<polygon fill="#FCD116" points="405.3,368 405.5,368.1 405.7,368 405.7,367.6 405.5,367.4 405.3,367.6 		"/>
		<path fill="#FCD116" d="M434.8,268.6l-0.2,0.3c0.4,0.2,0.8,0.4,1.2,0.6l0.7-0.3l-0.6-0.6H434.8z"/>
		<path fill="#FCD116" d="M432.5,267.5l-0.7,0.1c0.3,0.1,0.5,0.2,0.8,0.3L432.5,267.5z"/>
		<polygon fill="#FCD116" points="431,265.3 431.2,265.1 431.2,264.7 431,264.5 430.5,265.1 430.7,265.3 		"/>
		<polygon fill="#FCD116" points="412.1,342.4 412.1,342.8 412.6,343.4 413.2,342.8 412.6,342.2 412.3,342.2 		"/>
		<polygon fill="#FCD116" points="466.3,229.6 466.7,229.6 466.9,229.4 466.9,228.6 466.7,228.5 466,228.5 465.8,228.7 466.1,229
			466.1,229.4 		"/>
		<polygon fill="#FCD116" points="471.6,217.2 472.2,217 472.2,216.3 471.6,215.7 470.8,215.7 470.3,216.3 470.8,216.5 		"/>
		<polygon fill="#FCD116" points="469.3,216.8 468.6,216.8 468.2,217.2 466.7,217.2 466.5,218.1 467.5,219.5 468.6,220.2
			469.7,219.8 470.3,218.9 470.3,217.8 		"/>
		<polygon fill="#FCD116" points="459,233.9 459,234.7 459.6,235.2 460.1,234.7 460.1,233.9 459.9,233.7 459.2,233.7 		"/>
		<polygon fill="#FCD116" points="457.9,233.2 457.9,233.9 458.1,234.1 458.4,234.1 458.6,233.9 458.6,233.5 458.1,233 		"/>
		<polygon fill="#FCD116" points="464.8,215.7 463.9,215.9 463.9,217.4 464.4,218 465.4,217.8 465.4,217 465,216.7 		"/>
		<polygon fill="#FCD116" points="430.1,267 432.5,267.1 432.7,266.6 432,266.2 431.8,265.6 430.7,265.6 430.1,266.2 		"/>
		<polygon fill="#FCD116" points="465.2,222.8 464.7,223 464.6,224.5 465,224.9 464.6,227.2 468,227.1 468,225.6 467.6,225.3
			467.6,224.5 467.1,224 466.3,224.7 		"/>
		<polygon fill="#FCD116" points="404,366.6 403.6,366.3 402.7,366.4 403.6,367.4 404,367.4 404.4,367.7 404.9,367.6 404.9,367.2
			404.4,366.6 		"/>
		<polygon fill="#FCD116" points="401.4,380.9 401.9,380.3 401.4,379.8 400.8,380.4 		"/>
		<polygon fill="#FCD116" points="402.5,378.3 402.3,378.4 402.5,378.7 402.9,378.7 403,378.5 402.9,378.3 		"/>
		<polygon fill="#FCD116" points="459.2,218.3 459.4,218.1 459.4,217.8 459.2,217.6 458.8,217.6 458.6,217.8 458.7,218.1
			458.8,218.3 		"/>
		<polygon fill="#FCD116" points="400.8,369.8 401,370 401.4,370 401.6,369.8 401.6,369.4 401,368.9 400.8,369.1 		"/>
		<polygon fill="#FCD116" points="398.6,385.6 399.1,386.2 399.3,386 399.3,385.6 399.1,385.4 398.7,385.4 		"/>
		<polygon fill="#FCD116" points="458.3,229.8 459.2,230 460.3,231.1 462.2,231.8 463.5,229.8 463.5,229 462.2,228.5 461.1,227
			460.3,227 459.9,228.1 459.2,227.7 458.6,228.3 		"/>
		<polygon fill="#FCD116" points="457.1,236.9 457.1,236.6 457.5,236.2 457.5,235.8 457.3,235.6 457,235.6 456.4,236.2 456.4,236.9
			456.6,237.1 456.9,237.1 		"/>
		<polygon fill="#FCD116" points="460.1,233.2 460.1,233.5 460.3,233.7 460.7,233.7 460.9,233.5 460.9,233.2 460.7,233 460.3,233
			"/>
		<polygon fill="#FCD116" points="344.1,391.2 343.2,391 342.6,391.6 342.6,392 342.6,392 344.3,392 		"/>
		<polygon fill="#FCD116" points="458.8,204.1 460.3,204.1 460.7,203.7 461.1,204.1 461.8,204.1 462.2,203.7 463.2,204.6
			463.5,206.5 462.6,207.8 461.8,208.2 460.7,208.2 459.9,207.8 456.8,210.6 456.8,213.6 456.4,214.4 456.8,214.8 456,215.9
			458.3,215.9 458.3,215.1 457.9,214.8 457.9,213.3 458.4,212.7 459.2,212.7 460,211.9 460.5,211.8 461.1,210.8 461.8,210.8
			462.2,210.5 463.7,210.4 464.1,210.1 465.4,210.6 465.6,211.2 466.3,211.2 467.1,212 469.3,212 471.4,209.5 471.6,208.9
			472,208.9 473.1,207.8 474.6,207.4 476.1,206.3 477.2,206.3 478.3,207.4 480.2,207.1 480.6,206.7 482.1,206.7 484,207.4
			484.7,206.7 486.2,206.7 486.6,206.3 487.4,206.3 487.9,205.8 487.9,203.5 486.8,202 486.8,202 456.8,202 456.8,202 		"/>
		<path fill="#FCD116" d="M420.2,265.3l0.9-0.6v-0.4l-1.3-1.7l-1.5,0l-0.2,2l0.7,0.7c0.4,0,0.8,0,1.2,0
			C420.1,265.3,420.1,265.3,420.2,265.3z"/>
		<path fill="#FCD116" d="M395.9,392v-0.4l-1.2-1.1l0-0.4l2.2-0.4v-0.4l-1.3-1.3l-0.6-0.2l1.3-0.9l0.8,0.4l0.6-0.2v-0.8l-0.8-0.7
			v-0.8l-0.4-0.4l0.9-0.2l0.8,0.7l1-0.2l-0.4-0.7l1.3-0.2l0.2-1l0.4-0.4l-1.1-0.7l0.4-3l-0.4-0.4l0.9-0.9l2.3,0.4l0.4-0.4l0.9-0.2
			l0-0.8l-1-0.6l-0.6-0.9l-0.4-0.8l0-1.1l-0.4-0.4l0-1.5l-1.5-1.5l0.4-3l1.1-1.1l-2.3-1.9l0-2.3l1.1-1.5l0.4-2.2l1.3-1.3l1.5-0.7
			l0.7,0.4l3-0.4l1.2,1.1l1.1,0l0.2-1l0.4-0.4l0-0.7l-0.9-0.6l-0.8,0.4l-0.6-0.6v-0.8l-0.4-0.4l0-7.1l0.4-0.4v-1.1l0.7-1.5v-4.1
			l0.4-0.4l0-0.7l1.5-1.9l0-1.1l-0.3-0.4l0-4.1l-0.7-1.9l0.2-1.1c-7.9-2.6-14.3-8.2-18.1-15.5l-36.5,19l0,1.3l-0.8,1.1l0,0.8
			l-0.3,0.8l-1,0.9l-0.4,0l-0.9,1.3l0,2.6l-1.1,1.9v1.5l-0.4,0.4v0.8l-1.7,2.1l-1.3,0.2l-0.8,1.5l0,1.9l-0.4,0.4l-0.7,1.1l0,0.7
			l-1.5,1.5v0.8l-0.7,0.8l0,1.1l-0.8,1.1l1.2,1.2l0.7,1.5v0.8l0.8,0.7l0,0.8l-1.5,1.1l0,0.4l-1.1,1.5l0,3l-1.1,0.7l-0.6,2.1
			l-1.9,0.4l-0.6,0.6l0.4,1.1l-1.1,0.4l0,0.7l1,0.9h0.7l1.1,1.5l1.2,0.4l0.9,0.9l0,1.9l-0.4,0.3l0,0.8l-1.1,1.1l0,0.7l-0.4,0.4
			l0.4,0.8l0,1.1l0.4,0.4l0,4.5l1,0.2l1-0.9v-0.4l0.6-0.2l0.2,0.9l0.8,0.4v0.7l0.8,0.7v0.4l-0.4,0.4h50.5L395.9,392z"/>
		<path fill="#CE1126" d="M430.5,269.2l0,1.1l1.3,0.2l0.4-0.4l1.3-0.2v-0.4l-0.8-0.8l-0.1-0.9c-0.3-0.1-0.5-0.2-0.8-0.3l-0.6,0.1
			L430.5,269.2z"/>
		<path fill="#CE1126" d="M434.2,269.6l0.7,0.4l0.2,0.6h0.4l0.2-1l0.1,0c-0.4-0.2-0.8-0.4-1.2-0.6L434.2,269.6z"/>
		<polygon fill="#CE1126" points="403.6,276.9 402.7,277.5 402.7,278.2 403.2,278.8 405.3,277.1 405.1,276.9 		"/>
		<polygon fill="#CE1126" points="416.9,311.6 417.9,312.6 418.5,312.4 418.5,311.2 417.9,310.7 416.9,310.4 416.7,310.5
			416.6,310.9 416.9,311.2 		"/>
		<path fill="#CE1126" d="M410,327.1l0.2-1.2l0.4-0.8l-1.1-1.1l0-1.5l-0.4-0.4v-1.5l-0.4-0.8l-1.5-1.9l0-0.6l-4.3,3.1l3.7-11.3
			l-1.8-1.1l-5.3,0l-0.8,0.8H398l-0.7,0.8l-0.8,0l-0.7,0.8l-1.5-0.8h-1.5l-0.4,0.4l-0.4-0.4l-0.7,0l-0.5-0.5
			c0.4,0.9,0.7,1.7,1.2,2.5C395.7,318.8,402.1,324.4,410,327.1z"/>
		<polygon fill="#CE1126" points="421.6,271.6 422.2,271.1 422,269.8 420.7,270 421.2,271.7 		"/>
		<path fill="#CE1126" d="M419.8,265.6l0.4-0.3c-0.1,0-0.1,0-0.2,0c-0.4,0-0.8,0-1.2,0l0.3,0.3H419.8z"/>
		<polygon fill="#CE1126" points="410.9,276.7 410.9,276.3 410.4,275.8 409.6,275.8 409.4,276 410.4,276.9 410.8,276.9 		"/>
		<polygon fill="#CE1126" points="433.3,317.8 433.1,318 433.1,318.8 433.3,319 434,318.9 434.4,318.6 433.4,317.8 		"/>
		<polygon fill="#CE1126" points="434.6,270.7 434.6,270.3 434.4,270.1 434,270.1 433.8,270.3 433.8,270.7 434,270.9 434.4,270.9
			"/>
		<polygon fill="#CE1126" points="417.3,272.2 416.8,272.8 416.4,272.4 415.8,273 415.5,274.5 413.2,276.7 413.2,277.1 414.2,278
			415.7,278 416.5,278.8 419.5,269.5 419.4,269.4 419,269.4 418.3,268.3 417.9,268.3 417,268.8 417,270 417.7,271.1 417.3,271.5
			"/>
		<polygon fill="#CE1126" points="433.5,271.5 433.5,270.7 433.3,270.5 432.9,270.5 432.7,270.7 432.7,271.4 432.9,271.6
			433.3,271.6 		"/>
		<polygon fill="#FCD116" points="413.8,297.2 414.1,296.8 414.7,296.6 414.7,296.2 414.1,295.7 412.4,297 412.6,297.2 		"/>
		<polygon fill="#FCD116" points="407.2,317.4 407.2,315.4 407.9,313.9 407.9,313.1 409.4,312 409.4,310.9 408.9,310.7 407.4,309.2
			406.6,309.2 406.6,309.2 402.9,320.5 		"/>
		<polygon fill="#FCD116" points="419,284.8 419.8,284.8 420.7,284.2 420.9,282.9 421.3,283.3 422.2,283.1 422.2,281.2 421.7,280.7
			421.3,281 419.8,281 419.4,281.4 417.5,281.4 417,282 417,283.5 417.5,284 418.3,284 		"/>
		<polygon fill="#FCD116" points="409.2,309.2 409.5,309 409.4,307.5 409.3,307.3 408.5,307.3 407.9,308.2 408.5,309.2 		"/>
		<polygon fill="#FCD116" points="413.8,306.6 413,306.6 412.4,307.1 412.5,307.9 413.8,309.6 414.5,309.6 415.1,308.6 414.5,307.7
			414,307.5 		"/>
		<polygon fill="#FCD116" points="416.8,310.3 416.7,310.5 416.9,310.4 		"/>
		<polygon fill="#FCD116" points="434.4,318.6 434.6,318.4 434.6,318 434.4,317.8 433.4,317.8 		"/>
		<polygon fill="#FCD116" points="417.9,280.3 418.6,280.3 419.2,279.7 419.6,277.8 421.5,275.2 420.7,274.5 420.7,273.7 420,273
			420,271.8 421.2,271.7 420.7,270 420.2,270.1 419.5,269.5 416.5,278.8 		"/>
		<polygon fill="#FCD116" points="508.4,171 509.2,171.4 509.9,172.1 508.9,169 507.2,168.8 506.7,170.4 507.3,171 		"/>
		<polygon fill="#FCD116" points="503.7,178.2 503.7,179.1 504.6,180 505,180 505.2,180.2 505.2,180.6 506.1,181.5 509.1,182.3
			510.3,181.5 511.2,181.3 511.2,179.5 511.6,178.7 511.2,178.4 510.4,175.3 509.9,174.8 507.6,174.8 506.1,176.3 505.8,176.3
			504.6,177.8 504.3,177.8 504.2,178.2 		"/>
		<polygon fill="#FCD116" points="501,184 501.1,182.5 500.9,182.3 500.1,182.3 499.9,182.5 499.9,183.6 500.5,184.2 		"/>
		<polygon fill="#FCD116" points="501.3,180 501.1,180.2 501.6,180.8 501.8,180.6 501.8,180.2 501.6,180 		"/>
		<polygon fill="#FCD116" points="501.1,185 501.5,185.3 501.6,185.3 501.8,185.1 501.8,184.4 501.6,184.1 501.3,184.1 501.1,184.4
					"/>
		<polygon fill="#FCD116" points="337.2,416.9 337.5,417.1 337.9,418 338.3,418 338.6,417.8 337.9,415.4 		"/>
		<polygon fill="#FCD116" points="334.3,413.7 334.9,413 334.4,412.4 334,412.4 333.5,413.2 333.6,413.6 333.8,413.8 		"/>
		<polygon fill="#FCD116" points="335.1,407 333,400.4 332.3,400.4 332.1,401.4 333.2,402.1 333.2,402.5 330.8,404.6 330.4,404.6
			329.7,405.3 328.9,405.3 327.8,405.8 327.5,407 324.9,407 323.7,407.9 322.2,407.9 320.3,409.1 320.3,410.6 322.1,410.6
			322.6,411 322.9,410.6 323.6,410.6 324.1,410.9 327.8,410.9 328.3,410.4 328.7,408.9 329.3,408.3 329.8,410.4 330.4,410.9
			331.2,411.1 331.5,412.3 332.3,413.4 333.1,413.3 333.8,412.1 334.2,412 334.9,412.3 335.3,413.2 334.9,414.1 335.7,414.6
			336.4,414.2 337.1,411.1 337.2,409.1 337.7,409.6 337.7,410.4 338.3,410.9 339.1,411.1 339,412.7 338.3,413.5 338.3,413.7
			342.9,410.4 343.2,409.4 344.2,409.4 347.6,407 		"/>
		<polygon fill="#FCD116" points="327.7,416.6 327.1,416 325.9,416.7 325.9,418.3 326.6,418.8 327.8,417.6 		"/>
	</g>
</g>

</svg>
