<?xml version="1.0" encoding="utf-8"?>

<svg version="1.2" baseProfile="tiny" xmlns="http://www.w3.org/2000/svg" xmlns:xlink="http://www.w3.org/1999/xlink" x="0px"
	 y="0px" viewBox="280.4 125 279.1 344.1" xml:space="preserve">

<g id="French_Guiana">
	<g>
		<polygon fill="#ED2939" points="558.8,271.9 557.7,269.6 554,264.1 553.4,262.7 553.2,261 553.6,259.1 554.5,258.2 555.3,257.5
			555.7,256.2 555,255.4 553.4,255.2 551.9,254.8 551.1,253.6 550.6,252.1 550.5,251.3 550.7,251.4 551.2,251 551.7,250.3
			551.9,249.4 550.3,249.4 549.3,247.5 548.8,244.8 548.6,242.7 547.8,240.6 545.3,237 546,235.9 545.2,234.8 540.8,230.8
			539.3,230 537.7,229.7 536.3,230 535.1,230.8 533.6,233.6 533,236.9 533.8,250.4 533.6,252 532.7,254.6 532.5,255.5 531.1,257.5
			527.9,259.2 522.2,261 524.6,257.9 527.6,256.1 530.1,254 531.2,249.7 530.6,246 528.5,238.7 527.9,234.9 526.9,231.1
			524.2,227.2 520.9,223.8 517.7,221.2 511.5,217.7 510.6,216.3 510,214.5 508.4,212.6 506.5,211 504.7,210.2 503.7,212
			499.6,214.5 498.3,216 497.5,218.5 497,220.8 496.7,221.5 496,222.1 495.3,223.1 495.1,224.4 494.5,224.4 494.2,220.9 497,216.3
			500.5,211.7 502.2,208.6 501.7,206.7 500.2,205 498.3,203.7 496.1,203.2 494.1,203.9 491.7,207.2 489.9,208.3 490.8,204.4
			488.7,201 481.4,194.8 481.4,403.3 483.6,398.5 484.2,397.6 484.9,397 485.7,396.5 486.7,396.1 488,395.5 487.9,394.7
			487.2,393.8 486.8,392.7 487.3,391.3 493.2,380.4 493.4,379.7 492.5,375.6 492.4,373.5 493.1,371.7 496.4,369.2 498.3,364.8
			500.2,363.2 501.3,362.9 502.1,363.1 502.8,363.1 504.1,362.5 505,361.5 517.7,340.8 517.8,340 517.6,339.1 517.7,338.4
			519.5,337.5 520.2,336.4 521.3,333.7 525.3,327.9 526.2,325.7 526.9,321.7 527.6,319.9 529.1,318.3 529.9,318 530.6,318.1
			531.3,318 532.1,317.2 532.3,316.4 532,314.4 532.2,313.5 533,312.7 535.9,311.3 542,304.7 543.5,302.4 544.7,300 545.5,296.9
			546.9,294 549.2,292 556.4,288.6 557.4,286.5 559.2,280.8 559.6,278 559.4,274.5 		"/>
		<polygon fill="#FFFFFF" points="481.4,194.8 479,193.5 478.6,193.4 477.4,193.6 477,193.5 476.9,193.1 477,192.4 477.1,191.9
			476.7,191.6 475.6,191.1 462.4,178.8 451.9,171 444.5,159.7 440.6,156.6 438.3,155.2 435.2,155.1 432.8,154.4 431.1,154.4
			431.9,156.2 428.1,155.4 424.7,154.2 418.4,151.1 417.3,150.3 416.8,150 415.9,149.7 414.4,149.6 414,149.7 413.7,150.3
			412.9,151.4 410.8,152 409.2,150.7 406.8,147.2 405,146.9 399.3,147.8 397.4,147.7 387.1,145.1 385.9,144.3 383.6,142.1
			381,140.2 377.5,138.4 366.2,134.4 365,133.5 362.3,131 361.3,130.5 360.3,130.3 358.6,129.5 358.6,445.4 358.7,445.4
			360.4,444.9 362,445.3 363,446.8 362.9,447.7 362,449.6 362,450.2 362.6,450.6 365.3,450.6 371.6,453.4 373.2,453.7 376.4,453.8
			377.9,454.1 380.9,455.8 382.4,456.3 384.3,455.8 387.9,455.7 388.9,455.2 392.4,452.6 395.7,451.4 396.8,450.6 399.3,447.5
			399.6,446.9 400,446.7 401.3,447.1 402,447.7 404.4,451 410.4,456 410.3,456.9 408.5,457.5 406.8,458.9 406.1,460.2 407.1,461.1
			408.6,461 420,458.9 421.7,458.9 423.8,459.6 426.7,462 430.6,462.4 434.2,463.2 436.2,463 436.8,462.7 437.6,461.5 438.1,461.1
			438.6,461 439.6,461.3 440.2,461.1 441.2,460.2 441.8,459.4 442.5,457.3 443.7,455 445.3,453.8 449.3,452.1 459.9,445.8
			461.5,444.5 462.8,442.9 464.8,439.1 468.2,436.1 470.9,432.2 472.9,428 473.4,427.1 474,426.5 474.4,425.8 474.5,424.5
			474.2,423.4 472.7,421.2 472.3,420.1 472.7,419.7 474.6,419 475.4,418.5 475.7,417.7 476.3,414.9 481.4,403.3 481.4,194.8 		"/>
		<polygon fill="#002395" points="357.3,128.9 356.4,127.2 355.9,126.6 354.2,126 349.6,125 348.4,125 346.9,126.4 343.5,128
			341.7,129.2 339.5,132.2 338.3,135.9 337.7,146.2 337.2,147.8 335.2,151.1 332.7,157.6 330.8,160.3 328.3,162.8 325.5,164.7
			322.4,165.8 322.3,165.9 320.4,167.9 313,173.2 309,177.3 307.1,180.1 306,183.8 305.4,184.5 303.9,185.5 303.5,186.1
			303.3,187.1 302.9,187.7 297.8,193.5 296.1,196.2 295.5,197.7 295.2,199.3 296.1,203.1 295.9,204.4 295.5,205 293,206.7
			292.5,207.6 292.7,208.6 293.3,209.9 293.3,221.5 293.6,222.7 294.3,223.2 295.3,223.5 296.2,224 297.3,225.7 297.3,227.3
			297.1,229.2 297.1,231.5 298.3,234.5 298.5,235.6 298.5,239.5 298,241.1 296.2,244.5 295.9,246.9 297.5,257 300.4,262.9
			301.2,266.9 301.4,269.3 300.7,271 299.7,272.7 300,274.3 301.2,275.6 302.3,276.4 305.5,277.2 306.4,278 306.8,279.9
			306.6,281.3 305.3,284.5 304.9,286 305,288.3 305.9,289.9 309.1,292.8 309.8,293.7 310.7,296.9 311.3,297.8 312.7,298.8
			313.3,299.5 315.6,303.9 317.4,304.8 317.8,305.6 318.1,305.5 318.8,306.6 319.8,308.5 320.7,309.6 321.2,310 322.3,310.4
			325.5,311.4 326.5,312 328.4,314.9 329.4,315.9 331.3,322.6 333.5,325.9 333.6,326.5 334.6,326.3 335.6,326 336.6,325.8
			337.5,326.1 338.8,327.5 339.3,328.6 339.2,330.1 338.5,332.2 337.7,336.2 338,343.2 336.5,347 333.1,350.5 332.7,351.8
			332.4,353.4 331.7,355.3 330.8,356.9 327.6,359.2 325.1,362.9 321.7,367.1 320.4,369.2 318.4,374 320.6,373.6 321.6,375
			321.9,377.1 321.6,379 321.4,379.3 321,379.5 320.6,379.9 320.4,380.4 320.5,380.4 321.5,381.1 321.6,381.3 322.3,383.6
			322.4,384.9 322,385.4 320.9,386.1 321.4,387.4 322.4,388.5 322.9,388.7 323,390 322.3,392.9 322,393.4 320.7,395.3 320.4,396.4
			320.3,397.3 320.5,398 321.1,398.6 322.3,399.6 321.2,400.3 320.5,401 319.1,405.3 318.3,406.8 311.5,416 308.1,422.7
			304.5,431.9 302.9,434.2 298.5,438.6 297.3,439.1 295.9,439.3 293.9,439.3 292.8,439.8 291.9,440.4 289.4,446.8 288.3,447.6
			286.4,447.8 283.3,446.8 281.9,447.1 280.4,448.9 283,449.1 285.2,449.9 287.1,451.3 288.8,453 286.7,453.3 286.9,454.3
			290.2,456.6 292,458.6 293.5,459.4 297.5,459.8 298.2,460 299.6,460.8 300.4,461 301.8,461 302.5,460.9 303.1,461 304.4,461.8
			306.8,464.1 307.9,464.7 308.8,464.9 313.5,465.6 315.1,465.2 316.7,464.7 318.6,464.3 320,464.2 320.5,464.4 323.5,468
			324.4,468.7 325.6,469 327.8,468.7 329.1,467.4 330.4,463.6 331.1,462.2 331.8,461.8 333.8,461.8 334.3,461.8 335.2,462.5
			335.7,462.7 336.3,462.5 337.2,461.6 337.7,461.2 341.7,459.8 343.4,458.6 344.1,457 344.1,454.6 344.6,454.2 345.7,454.5
			347.6,454.7 348.8,453.8 349.6,452.2 350.8,450.9 353.1,450.8 354.2,450.4 355.1,449.2 356,447.5 357.1,446.3 358.6,445.4
			358.6,129.5 		"/>
	</g>
	<path vector-effect="none" fill="none" stroke="#878787" stroke-width="0.25" stroke-linecap="round" stroke-linejoin="round" d="
		M556.4,288.6l-7.1,3.4l-2.3,2l-1.4,2.9l-0.8,3l-1.2,2.4l-1.6,2.2l-6.1,6.6l-2.9,1.4l-0.7,0.7l-0.2,0.9l0.3,2l-0.2,0.8l-0.8,0.8
		l-0.6,0.1l-0.7-0.1l-0.8,0.3l-1.5,1.6l-0.7,1.8l-0.7,4l-0.9,2.2l-3.9,5.8l-1.1,2.6l-0.7,1.1l-1.8,0.9l-0.1,0.7l0.2,0.8l-0.1,0.9
		L505,361.5l-1,1l-1.3,0.6h-0.7l-0.7-0.2l-1.1,0.2l-1.9,1.6l-1.9,4.4l-3.3,2.5l-0.6,1.8l0,2.1l0.9,4.1l-0.2,0.8l-5.9,10.8l-0.5,1.4
		l0.4,1.1l0.7,0.9l0.1,0.8l-1.2,0.6l-1,0.3l-0.7,0.5l-0.7,0.6l-0.6,0.9l-7.3,16.4l-0.6,2.9l-0.3,0.7l-0.7,0.5l-1.9,0.7l-0.4,0.5
		l0.4,1l1.5,2.3l0.3,1.1l-0.1,1.3l-0.5,0.7l-0.5,0.6l-0.5,0.8l-2,4.2l-2.7,3.9l-3.4,3l-2,3.8l-1.3,1.6l-1.6,1.3l-10.6,6.3l-4.1,1.7
		l-1.6,1.3l-1.1,2.2l-0.7,2.1l-0.6,0.9l-1,0.8l-0.6,0.2l-1-0.3l-0.5,0.1l-0.5,0.5l-0.8,1.1l-0.6,0.4l-2,0.2l-3.6-0.8l-3.9-0.4
		l-2.9-2.4l-2-0.7H420l-11.4,2.1l-1.5,0.1l-1-0.8l0.7-1.4l1.7-1.4l1.9-0.6l0-0.9l-5.9-5l-2.4-3.3l-0.7-0.6l-1.3-0.4l-0.5,0.2
		l-0.2,0.5l-2.6,3.2l-1.1,0.8l-3.3,1.2l-3.5,2.6l-1,0.5l-3.6,0.2l-1.9,0.5l-1.5-0.5l-3-1.7l-1.5-0.3l-3.2-0.1l-1.5-0.3l-6.4-2.7
		l-2.7-0.1l-0.6-0.4l0.1-0.6l0.9-1.8l0-1l-1-1.4l-1.5-0.4l-1.8,0.5l-1.6,0.9l-1,1.2l-0.9,1.6l-0.9,1.3l-1.1,0.3l-2.2,0.1l-1.2,1.4
		l-0.8,1.6l-1.2,0.9l-1.9-0.2l-1.1-0.4l-0.5,0.5l-0.1,2.3l-0.7,1.7l-1.7,1.2l-3.9,1.4l-0.5,0.4l-0.9,0.9l-0.6,0.2l-0.5-0.2l-0.9-0.7
		l-0.5-0.1h-1.9l-0.7,0.5l-0.7,1.3l-1.3,3.9l-1.3,1.3l-2.2,0.4l-1.2-0.4l-0.8-0.7l-3-3.6l-0.5-0.2l-1.5,0.1l-1.8,0.4l-1.6,0.5
		l-1.6,0.4l-4.8-0.6l-0.8-0.2l-1.1-0.6l-2.4-2.2l-1.2-0.8l-0.6-0.1l-0.7,0.1l-1.4-0.1l-0.8-0.2l-1.4-0.8l-0.7-0.2l-4-0.5l-1.5-0.8
		l-1.8-1.9l-3.3-2.3l-0.3-1l2.1-0.3l-1.7-1.7l-2-1.4l-2.2-0.8l-2.5-0.2l1.5-1.8l1.4-0.3l3.1,1l1.9-0.2l1-0.8l2.6-6.3l0.9-0.6l1-0.5
		l2.1-0.1l1.4-0.2l1.1-0.5l4.4-4.5l1.6-2.3l3.6-9.2l3.3-6.7l6.8-9.2l0.8-1.5l1.5-4.4l0.6-0.7l1.1-0.6l-1.3-1l-0.6-0.6l-0.2-0.6
		l0.1-1l0.3-1.1l1.3-1.9l0.3-0.5l0.7-2.9l-0.1-1.3l-0.5-0.2l-1-1.1l-0.5-1.3l1.1-0.6l0.4-0.6l-0.1-1.3l-0.6-2.3l-0.2-0.2l-0.9-0.6
		l-0.2-0.1l0.2-0.5l0.4-0.4l0.4-0.2l0.2-0.2l0.2-2l-0.2-2.1l-1-1.4l-2.2,0.4l1.9-4.7l1.3-2.1l3.4-4.2l2.5-3.8l3.2-2.3l1-1.6l0.7-1.8
		l0.2-1.7l0.4-1.3l3.4-3.5l1.5-3.8l-0.3-7l0.7-4l0.8-2.1l0.1-1.5l-0.6-1.1l-1.3-1.4l-0.9-0.3l-1,0.1l-1,0.4l-1,0.2l-0.1-0.6
		l-2.2-3.3l-1.9-6.7l-1-1l-1.9-2.9l-1-0.6l-3.2-1l-1.1-0.5l-0.6-0.4l-0.9-1.1l-0.9-1.8l-0.7-1.1l-0.3,0.1l-0.4-0.8l-1.8-0.9
		l-2.3-4.3l-0.6-0.7l-1.3-1l-0.6-0.8l-1-3.3l-0.6-0.9l-3.2-2.9l-0.9-1.6l-0.1-2.3l0.4-1.5l1.3-3.2l0.3-1.4l-0.4-1.9l-1-0.7l-3.1-0.9
		l-1.1-0.8l-1.1-1.3l-0.3-1.6l1-1.8l0.6-1.6l-0.1-2.4l-0.9-4l-2.9-5.9l-1.6-10.1l0.2-2.4l1.9-3.4l0.5-1.6v-3.8l-0.2-1.1l-1.2-3
		l0-2.3l0.3-1.8v-1.6l-1.1-1.7l-0.9-0.5l-1-0.3l-0.7-0.5l-0.3-1.3v-11.6l-0.6-1.3l-0.1-0.9l0.4-1l2.5-1.7l0.5-0.5l0.2-1.4l-0.8-3.8
		l0.3-1.6l0.6-1.5l1.7-2.7l5.1-5.8l0.4-0.6l0.2-1l0.4-0.6l1.5-1l0.6-0.7l1.1-3.7l1.9-2.8l4-4.1l7.4-5.3l1.9-2l0.1-0.1l3-1.1l2.9-1.9
		l2.5-2.5l1.8-2.7l2.6-6.5l1.9-3.2l0.5-1.7l0.6-10.2l1.2-3.7l2.2-3l1.8-1.2l3.4-1.7l1.5-1.4l1.1-0.1l4.6,1l1.7,0.6l0.6,0.6l0.9,1.7
		l3,1.4l1,0.2l0.9,0.5l2.7,2.5l1.2,0.9l11.3,4l3.5,1.8l2.6,1.9l2.3,2.2l1.2,0.7l10.3,2.6l1.9,0.1l5.7-0.9l1.7,0.4l2.4,3.4l1.7,1.4
		l2-0.7l0.9-1l0.3-0.6l0.4-0.2l1.4,0.2l0.9,0.2l0.5,0.3l1.1,0.8l6.3,3.2l3.4,1.2l3.8,0.8l-0.8-1.8h1.7l2.4,0.7l3.1,0.2l2.3,1.4
		l3.9,3.1l7.4,11.3l10.5,7.8l13.2,12.3l1.1,0.5l0.3,0.2l-0.1,0.6l-0.1,0.6l0.1,0.5l0.5,0.1l1.1-0.2l0.5,0.1l2.4,1.3l7.3,6.2l2.1,3.4
		l-0.8,3.8l1.7-1l2.4-3.4l2-0.7l2.2,0.5l1.9,1.3l1.4,1.8l0.5,1.9l-1.7,3.1l-3.5,4.5l-2.8,4.6l0.2,3.5h0.6l0.2-1.3l0.7-0.9l0.7-0.7
		l0.3-0.6l0.5-2.3l0.8-2.5l1.3-1.6l4.1-2.4l1-1.8l1.8,0.8l1.9,1.6l1.5,1.9l0.6,1.8l0.9,1.4l6.2,3.5l3.2,2.6l3.4,3.4l2.6,3.9l1.1,3.8
		l0.5,3.8l2.2,7.2l0.5,3.8l-1,4.2l-2.5,2.2l-3,1.7l-2.4,3.2l5.7-1.8l3.2-1.7l1.4-2l0.2-0.9l0.9-2.6l0.2-1.7l-0.8-13.4l0.6-3.4
		l1.5-2.8l1.2-0.8l1.4-0.3l1.6,0.3l1.6,0.8l4.4,4l0.8,1.1l-0.7,1.1l2.6,3.5l0.8,2.1l0.1,2.2l0.5,2.7l1,1.9h1.6l-0.2,0.9l-0.5,0.7
		l-0.5,0.4l-0.2-0.1l0.1,0.7l0.5,1.5l0.7,1.3l1.6,0.4l1.5,0.2l0.7,0.8l-0.4,1.3l-0.8,0.7l-0.8,0.9l-0.5,1.9l0.2,1.7l0.6,1.5l3.7,5.4
		l1.1,2.3l0.6,2.6l0.2,3.5l-0.4,2.9l-1.8,5.7L556.4,288.6"/>
</g>

</svg>
