<?xml version="1.0" encoding="utf-8"?>
<svg id="e93e0494-476f-426b-97ec-2756cc8d5c5e" data-name="svg2" xmlns="http://www.w3.org/2000/svg" viewBox="0 0 797.86 800.04"><defs><style>.\39 6d5e8fb-f877-4b21-b21d-1c3833dd05da{fill:#fff;stroke:#e8112d;stroke-miterlimit:1;stroke-width:0.07px;}.\33 bbe31c5-5220-4f77-8bdb-98a27911b6f1{fill:#e8112d;}.\34 572835a-2b12-47b1-97ca-632d8480a5ee{fill:#f9dd16;}</style></defs><title>gg</title><path id="c878c274-a82e-4209-b7b0-ac79ca718944" data-name="path4" class="96d5e8fb-f877-4b21-b21d-1c3833dd05da" d="M660.1.9V2.1h1.8L661.3.9ZM612,7.7a3.8,3.8,0,0,0-.3,1.8l.3.3a4.84,4.84,0,0,0,2.4-.3V8.3h.6V7.7c-.8.2-2.3.6-3,0Zm46.2,4.1a9.89,9.89,0,0,1-2.4.9,15.11,15.11,0,0,0-1.8.9,5.46,5.46,0,0,1-.6,1.8,15.94,15.94,0,0,1-3,.6V14.8a11.08,11.08,0,0,1-3,1.2v1.2a14.5,14.5,0,0,1-3-.6,15.26,15.26,0,0,0-.3,3c.1.4,1.7.8,2.1.9s1.1,1.7,3.6,1.3l.6-.6a3.93,3.93,0,0,1,2.4.3V20.3L654,20c.5-.3.8-1.7,1.2-1.8l1.8-.6s.5-.4.5-.5a16.45,16.45,0,0,1,1.9-1v-.6h.6V14.3h-1.2l-.6-2.5Zm109.3,1.4a4.69,4.69,0,0,0-2.1,1.1v1.3a2,2,0,0,1,1.2,1.6c-.1.2-.7.4-.9.5l-.5-.3a2.81,2.81,0,0,0-1.3-2.4l-.9-.2-.1.7a2.33,2.33,0,0,0,1,1.2l.2.8a3,3,0,0,1,1.5.7l.3,2c-2.7,2.3-3,2.8-6.4.9l-.3-1.2a3.45,3.45,0,0,1-.9-1.2l-2.7-1.2c-.4,3.6,1.1,3.3,1.2,6.2-.7-.2-1.8-.6-2.4,0l-.3,1.8c-1.4.2-1.3.7-3.3.6l.3,1.8a7.07,7.07,0,0,1,1.2,1.8,15.27,15.27,0,0,0,1.8,1.8l.2,1.6c-1,1.8-2.4,2.8-3.6,4.5-.5,0-1.4.9-1.8,1.1-.6.2-1.4.4-2,.6a16,16,0,0,1-9.2,0A16.27,16.27,0,0,1,734,38l-.6-1.8.5-1.6h1.2l.7.6-.6-.9-1.3.1a15.86,15.86,0,0,1-1.3-5.3l-.8,2.9-1.7.1.1,1.5-.2.1-1.6-.2-.2-1.4.7-.4-.8-.6-.2-3c4.3-3.6,8.9-7,13.3-10.5V17h-.6c-.3.9-11.5,9.4-13,10.5-.5.4-.7.9-1.2,1.2a15.94,15.94,0,0,0-.6,3h-1.2c.4.5.7,3,.9,3.7l1.2,1.2v.6a6.08,6.08,0,0,0-1.5,2.4l-2.4-.3-1.2-1.2-1.8-.3v1.4a28.24,28.24,0,0,1-6.8,1.7c-1.1,0-2.2-.2-3.3-.2a26.42,26.42,0,0,0-2.9.2l-.7-.8c-1.9.4-4.1.1-5.7,1.2l-.3,1.2-.6.6c-.2.7.5,1.3.6,1.8.3,1.3-.6,4.8-1.7,5.6l-.1,1.1c-.4.6-1.5,1.4-2.2,1.2a22.46,22.46,0,0,0-1.2,2.1,7.46,7.46,0,0,0-1.2.7l-.9-.3c-1.5.3-1.7,1-3.9,1-.2,1.6-.7,5.2-.1,6.8h-1.2v1.2a5.46,5.46,0,0,1-1.8-.6v1.8l-1.2.3a3.45,3.45,0,0,1-1.2.9v1.2l-.4-.2-.2-.4h-.6v.6l.4.2a3.58,3.58,0,0,0,1.1,2.2c.3,1.2-1.3,2.4-.3,3.7h-1.8l.3,2.4c.2.6,2.2.7,2.4,1.2A9.86,9.86,0,0,1,684,80h-1.8v1.2l1.2-.6.3,1.2.3.3,1.2.3v1.2a5,5,0,0,0,2.4-.6v1.2h1.2v2.4h1.8a3.9,3.9,0,0,1,0-3,5.23,5.23,0,0,1,1.8-.3c2.1,0,2,.7,3.6,1.3h2.4l.3.3.3,1.8a7.35,7.35,0,0,1,3,.7l.3-1.2.3-.3,2.4-.3v1.2a3.45,3.45,0,0,0,1.2-.9l1.2-.3v1.2a2.38,2.38,0,0,1,1.4-.3,13.09,13.09,0,0,0,2.8,0c1.2-.2,2.4-.6,3.6-.9l.3-1.2.3-.3,1.2-.3.3-1.2.9-.9a2.78,2.78,0,0,0,1.8-.3v1.2c1.3-.4,2.1-2,2.8-3s2.3-1.5,3.4-2.1l1.2-1.2c.9-.3,4.8-1.1,5.5-.3V74.8a6.55,6.55,0,0,1,1.8,1.5h1.2l.3-.3.3-1.2a10.21,10.21,0,0,0,3,.3l.6-.6c1-.3,4-1.2,4.9-.3V73h1.2c.6-4.5,4.8-2.9,5.2-4.2a9,9,0,0,0-.9-4.3c.6,0,2.6.2,3,.6V63.9l1.8-.3.9-.9.3-1.2h1.2l.3-1.2.3-.3a7.5,7.5,0,0,1,3,.3c-.5-.7-.3-3.4-.3-4.3l.9-.9c1.4-.3,4.5,1.6,6.7,1.3l.3-.3.3-1.2,1.2-.3.3-.3V51.9l.9-.9,2.4-.3a10.2,10.2,0,0,0,.3-3c-1.7-1.2-.8-2.8-1.5-3.7l-1.2-.3a3.45,3.45,0,0,0-1.2-.9,5.9,5.9,0,0,1,1.5-3.3c1.9-1.9,8.5-1.9,10.7-1.2l.6.6h1.2l.9-.9.6-2.4c.2-.2,1.8-1.7,1.8-1.8a11.27,11.27,0,0,1,1.2-1.8l.3-1.3.4.1.2.5H791V29.5l1.2-.3.3-.3.3-1.8,1.2-.3.3-.3c.8-3.1.9-2.2,0-4.9l.5-.5.1-1.3-.3-.5-.9-.1a4,4,0,0,0-1.3,1.3l-1.4-.1.5-1.3-.8-.4a2.75,2.75,0,0,1-1.8.2l-.6-.9a4.47,4.47,0,0,0-1.7.8l-1.1-.2-1.3.5-.7-1.1-1.5-.1-.3,1.2a3.86,3.86,0,0,0-1.7,1.1,7.2,7.2,0,0,1-1-2.4,4.89,4.89,0,0,1-1.6,1.6,2.94,2.94,0,0,1-1.2,2.3,6.45,6.45,0,0,1-5.2-2.4,5,5,0,0,0-1.5-1.7l-.1-2.5-1.4.1a8.63,8.63,0,0,1-.4-2.8c0,.8-.1.8-.1.8Zm23.7,1.9c0,.4-.2,1.3-.6,1.5l-3.6-.2.1.7a4.76,4.76,0,0,1,2.3.7l1.8-.3.2-1,.4-.2V15.1Zm-32.2.2a5.46,5.46,0,0,0-1.8.6v.6l1.6.2.2.4h.6v-.6l-.4-.2-.2-1Zm24.3.3v1.8h.6V15.6Zm-141,2.8c-.9.6-2.1.6-3,1.2V22h-1.2a2,2,0,0,0,.6.9,8.6,8.6,0,0,0,3-.9v-.6h.6v-3Zm155.5,9.4-1.4.7-.2,1.4,2.5-1-.9-1.1Zm-16.7,17c0,.6-.2,2.6-.6,3h1.2v-.6h1.2a5,5,0,0,0-.6-2.4ZM680.2,57.2v.6h.6V59a3.8,3.8,0,0,0,1.8.3l.9-.9.3-1.2a5.55,5.55,0,0,1-3.6,0Zm3.3,28v.6h.6v-.6ZM698.1,89v1.2h.6v-.6h.6V89Zm1.8,0v1.2h.6V89Zm16.3,7.5v.6a5.46,5.46,0,0,0,1.8.6V96.5ZM137.8,600.9a15.91,15.91,0,0,0-1.4,2.6c-.5,1.8-.6,3.7-1.2,5.4a9.73,9.73,0,0,1-1.1,2.3c-.1.1-.7.6-.7.8-1.1,2.1-1.3,4.5-2.2,6.7a15.06,15.06,0,0,1-1,1.7,10.48,10.48,0,0,0-2.9.8l-1.2.9a12.51,12.51,0,0,1-3.7.9c-.9.2-5.3-.1-6-.7l-.3,1.8a9.61,9.61,0,0,1-2.1,1.4l-.1-1.4a5.46,5.46,0,0,1-1.8-.6,7.4,7.4,0,0,0,1.6,4l-.1,1a3.72,3.72,0,0,1-3,1.8c-.4-2-1.4-2.4-1.6-3.2h-1.2c-.1-.7-.1-3.8-.6-4.3a5,5,0,0,1-2.4.6l-.3,1.2-.6.6a1.66,1.66,0,0,0-1.2.5h-.8a22,22,0,0,1-2.5-1.7l-1.8.2-.6-.3.3,1.2,1.2,1.2.3,1.2,1.2.3.6.6,4.2.6a37.16,37.16,0,0,1,2.1,3.9v5.5a6.5,6.5,0,0,1-1.1,3.3c-1.2,1.9-6.1,5.7-8.4,6.3l-5.9,1.5a4.39,4.39,0,0,1-1.8,1.2c-.2.1-7.3.1-7.9,0a7.14,7.14,0,0,1-3.1-3.1l.2-.9h.6v-.6l-2.4-.6v-3l-3.4-.7a1.83,1.83,0,0,0-.7-1l-.8.1a4.24,4.24,0,0,0,.6,1.4l-.6,3.8-1.8.3c-.6.6-1.7,1.9-2.4,2.1-.6,1.7-.3,2.4.9,3.6,1.2,2.9-4.3,7.4-6.1,9.3a6.18,6.18,0,0,1-3,.3c-2.3-.5-6-2.8-6.7-5.2l-.5-.1c-.5.3-.9.8-1.3,1-1.9,1.1-4-.3-5.4.3l-5,5c-.6.3-1.3.3-1.8.6-.9.4-1.8,1.9-3,2.4h-2a4.92,4.92,0,0,1-1-1.5l-1.8-.3a9,9,0,0,0-3-2.1c.7,3.5-.1,3.6-.9,7.2-.5.2-1,.5-1.5.7v1.2c1.5-.1,3.4,0,4.8-.6v1.8c.9.1,1.7.8,2.4.9.5.1,2.6.1,3-.3l.3,1.2c2.1,2,1.8,1.9,3,4.9a26.79,26.79,0,0,1,1.2,3c.2.7-.2,1.7,0,2.4l.6,1.8c.1.4-.1.9,0,1.2a10.55,10.55,0,0,1,.6,2.4,15,15,0,0,1,0,3l-.6,2.4c-.1.4.1.9,0,1.2-.3,1.2-.9,2.2-.4,3.5-1.4,3.3-3.7,5.8-5.4,8.9a21.2,21.2,0,0,1,.3,3.3,8.06,8.06,0,0,1-1.2,1.8l-.6,1.2-3,3a25.28,25.28,0,0,1-2.9,1.4,5.35,5.35,0,0,1-3.7-.6l-.1-.3c-.5-.3-1.3.3-1.6.6a3.63,3.63,0,0,1-3.3-.9c-.4-.6-.3-1.3-1.2-1.7v-.8l-.4-.6a3.32,3.32,0,0,0-1.6-.5,3.29,3.29,0,0,0-1.3.7l-.1,1-.4.5c-.5,0-1.1-.5-1.5-.7-.2.1-.4.3-.6.4h-.3l-.4.1A10.73,10.73,0,0,1,8.8,714H8.2a5.49,5.49,0,0,0,.7-.9l-.2-.5-.6-.2c-.7,1.1-.6,2.4-2.5,2.1v1.4a1.21,1.21,0,0,1-1,.3l-.3-.6H4.1c.5,2.2-.5,3.1-1.6,4.9.3,1.7-.5,2.8-.1,3.8a4.43,4.43,0,0,1,1.2,1.5c.3.9-.7,1.7-.7,2.6,0,1.3.7,3.4,2.1,3.8a3.88,3.88,0,0,1-.6-1.1l.4-.2.1-.6a8.8,8.8,0,0,1,.5,1.5l.4-.5-.1.6.3.3H5.6l-.1.5.3.7c.3,0,.6.1.9.1a2.47,2.47,0,0,1-.9.4l.3.9.4-.1-.1.4a1.39,1.39,0,0,1,.5,1l.9.1c.2-.2.2-.8.2-1.1h.5a10.22,10.22,0,0,0,.8,2.7l.3.2c.1-.5.8-.7,1.1-1.2a2.41,2.41,0,0,0,1,1l.5-.5a5.76,5.76,0,0,0,.2,2.6l-.3.4a5.91,5.91,0,0,0,.6,1.4h.7c.9.6,1.2,2,1.6,2.2l.3.1a11.48,11.48,0,0,0,.1-1.9l.3-.3c-.1-.4-.1-.7-.2-1.1a3,3,0,0,1,1.6-.8l.2.8.6-.1c.4.5,1.2,1,1.4,1.6l-1.1.7.5.5.5.2-.2.5a11.93,11.93,0,0,0,.8,1.6l.4-.7-.3-.8.2-.4.6.6c.8-.8.1-2.5-.2-3.4l.2-.2a14.32,14.32,0,0,1,.9,3.7l.9-.1.1.5-.4.5.6.4.9-.5-.3-1.1a15.52,15.52,0,0,0,2.1-.4l.4-1.1a7,7,0,0,1,2.5,0l-.6,1.2.9.6a1.89,1.89,0,0,1,1.6.3c1-.3,1.4-.4,2.3-.6a36.11,36.11,0,0,1,3-2.5,5.19,5.19,0,0,1,2.4.5l.6,1.2.6.3.9-.9a3,3,0,0,1,.2-1.3c.6-1,1.8-1.6,2.5-2.5l.5-.6a6.71,6.71,0,0,1,1.5-.6l1,.5a3.67,3.67,0,0,1-.1,1.8l.3.8c.5-.2.9-.3,1.4-.5,0-.4.1-.9.1-1.3a2.26,2.26,0,0,0,1.1-.8l1-.3a12.48,12.48,0,0,1,1.2.9c.3.3.6.9.9,1.2.2.8-.2,1.4,0,2.2a16.55,16.55,0,0,0,2.1.6l.3-.5c1.1.2,3.1-.7,3.5,1.4a3.08,3.08,0,0,1-.3,1.3l.7.3a.76.76,0,0,0,.2.4l.3.1a1.39,1.39,0,0,0,.7.8l.7.1.5-.6a6.87,6.87,0,0,1,2.4.2,3.26,3.26,0,0,1,2.3-1l.7.4.5-.6.6-.2c.5.4.8,1.1,1.3,1.6l.6-.1c.1.3.4.6.5.9.3.9.1.8.8,1.5.8.3,1.9-.7,2.4-1.2,1.3-.3,1.8.6,2.7.6a1.42,1.42,0,0,1-.2.6l.8.2-.4.2-.1.3.2.3h.6a1.39,1.39,0,0,1-.7.8v.4a2.05,2.05,0,0,1,1.1,0l-.4.7h1.2l.1.5a1.49,1.49,0,0,0,1.4.4l-.4-.5.5-.2.3-.7.6.1.4.5h.5l.5.4c.2-.2.9-.1,1.1,0l.6-.3-.3-.5.4-.3a14.58,14.58,0,0,1,1.9.7l.1.8.4.4h.5l.1.6.6-.2-.2.3.1.3.7.3.6-.1-.5.6.4.1.2.7.7.4A13.45,13.45,0,0,0,90,755v-1.1l.9-.1a12,12,0,0,0,1.3,2.1,2.88,2.88,0,0,0-.3-1.6,2.36,2.36,0,0,1,1.2-.1l.3.6c.4-.2.4-1.4,1.9-2.3a1.94,1.94,0,0,1,1.3.3l.5-.1.4.7-.2.8-1,.9a2.45,2.45,0,0,1-.4,1.2c.2.4.4.9.6,1.3l.6-.1,1,.7.3-.1.6.5.4-.3.5.4-.2-.7.3-.1-.1-1.1h.5v-.3l.5-.2.5.1a10.81,10.81,0,0,0-1.1-1.8l.4-.2.5.6h.5v.8l.5.1.5-.3-1-1,.3-.6c.6-.1,2.2.3,2.5.1a1.09,1.09,0,0,1,.1-1.1,1.74,1.74,0,0,1,1.2-.6,2.08,2.08,0,0,1,.5,1.2,2.73,2.73,0,0,0,1.3.7l-.1.6.6.4.6-.7.1.8,1.3.6.5-.5,1-.2.3-1.7.3.7.8.3.2-1,.6.1a3.13,3.13,0,0,0,.9,1.1l-.8,1.3,1.1.5-.1,1.1.9.4c.4-.6.8-1.2,1.2-1.9a5.34,5.34,0,0,0,1.8.5l.2-.6.6,1,.5-.5a2.05,2.05,0,0,1,1.1,0,1.5,1.5,0,0,0,.4-1.1l.2.6.9.1.2-.6a2.29,2.29,0,0,0,.7,1l.1-.5h.4v.8l.7.1.3-1,.4,1,.4-.1.2-.8h.7a2.81,2.81,0,0,0,1,1.4v.5l.5.8-.2.7.6.7.4-.3a1.67,1.67,0,0,1,.1-1.2,21.85,21.85,0,0,1,.9,2.3l.5.3.4-.3.3.6.3-1.1-.3-.5.3-.3.5.3.7-.2a3.74,3.74,0,0,0-1.3-1.2l.5-.4-.7-.4v-.4l.4.3.4-.2-.6-.9.5-.1.3-.8a7.71,7.71,0,0,0-2.5-1l.2-.4a10.29,10.29,0,0,0,1.8.1c-.2-.4-.6-.8-.8-1.2s-.1-.6-.4-1l-.1-.2.5-.4c.7.3,1,1,1.6,1.4l.6.1.2-.8.3.2.1.6.4.1.4-.4.1.4.3.1.3-.3-.5-.6.5-.2.7.6.6-.3.5.4h1.4l.6.5.4-.3-.5-.6.7.1.4-.4.6.4.1-.8a2.19,2.19,0,0,0-1-.9l.1-.3.3.1a2.81,2.81,0,0,0,1-1.2l.6-.3.3.7-.1.7.6,1.2.1-.6.4.2v.7l.5.1c.6-.5,1-.9,1-1.6l-.4.2v-.5a2.1,2.1,0,0,0,.7-1.1,3,3,0,0,0-.7-1.5,3.18,3.18,0,0,1-.9-.3l-.1-.4.4-.5c-.1-.7-.5-1.2-.6-1.8a1.39,1.39,0,0,1,.7-.8l.4.2.1.4c.1.1.2.3.4.4l-.2-.5.4.7.3-.6a2.46,2.46,0,0,0,.1,1.2l.3-.3.3.2.2-.3-.3-.5.6.4a2.64,2.64,0,0,0-.7-1.9h-.5l.2-.5c-.3-.6,0-1.5-.5-1.8a2.35,2.35,0,0,1,1.1-1.1l.7.1c.5,1.3,1.2,1.5,2.2,2.1l.4-.4.3.9-.4.7.8.4a9.25,9.25,0,0,1,.4,2.3l-.4.4.1.4.8-.7a5.28,5.28,0,0,1,0-2.5l.7-.5c-.3-.7-.6-1.4-1-2.2l.6-.4a22.22,22.22,0,0,0,1.3,3.1l.7.3.7-.5-.3.4.1.4.3.2c.6-.1.7-.8,1.1-1l.8,1.1.7-.2-.2-1.5.7-.1a1.56,1.56,0,0,1,.7,1.3l.3-.1.1-.9a4.79,4.79,0,0,1,.7,2h.5l.3-.2.7.2.1-.7.3.7.7.3a8,8,0,0,1,1.1-2.5.76.76,0,0,0-.2-.4c0-.4.7-.9,1.1-.9.5.2,1.4,1.5,1.1,1.9l-.5.1-.4.3-.4.5.1.3a1.16,1.16,0,0,1,1,.2,4.1,4.1,0,0,1,.1,1.1l.5.1a1.93,1.93,0,0,0,.3,1h.4l.3-.3-.3-.6.2-.3.3-.1a2.78,2.78,0,0,0,2.5.2l.5.5-.2.7.3.5h.3l.2.6c.1.6-1.1,1.3-1.5,1.5v.6l.7-.2-.1.5-.4.5a2.11,2.11,0,0,0,.4,1v.6l.6.3v.3l-.6.4-.1.5.3.3c.2-.1.4-.3.6-.4a1,1,0,0,1-.4.7l.2.1a1.52,1.52,0,0,0,.4.8l.3-.3v-.5c.1.1.3.2.4.3l-.1.4.3.6a6.8,6.8,0,0,1,1.5.2,1.39,1.39,0,0,1,.5,1l.9.5.1.4-1,.1v.9l.7,1,.6-.2.3.2.2.3-.3.2a2.23,2.23,0,0,1,.6,1.3l-.2.6-.7.5.2.6.9-.3c.3-.5,1.1-2.3.9-2.8l.3-.4h.3c0,.2,0,.8.2,1h.4l.4-.3.1-.7.2.1.2.3.2-.3-.3-.6-1.3-.8a4.53,4.53,0,0,1,1.6.3l.3-.4-.1-.9a1.81,1.81,0,0,1,1.6.1l-.1-.9-.5-.6c0-.8.5-1.4.6-2.1,0-.3-.1-.7-.1-1h.4c.3.5.2,1,.4,1.5.1.3.4.7.5,1l.9.1.3-.4.2.4.3.1-.1-1c.2-.1.3-.4.4-.7l.7-.4.5.2.2.9a2.51,2.51,0,0,1,.6-1.4l.3-.1-.2-1.2.3-.3a10.26,10.26,0,0,1,.4,1.4l.4-.1V753l-.3-.2-.3-.8c-1.5-.6-2.1-2.7-3.4-3.8l-.1-.6h.5a.85.85,0,0,0,.5.3v-.5c-.4-.2-.8-1.5-.9-1.9l.7-.5h.8c.5.4.6,1.1.9,1.3.7.6,1.7.5,2.4,1a13,13,0,0,1,1,1.5l.5-.5.2.5.2.1v-1.2a1,1,0,0,1,.8-.4l.3.8.1-.5c.1-.2.6-.3.8-.3a8.75,8.75,0,0,1-.2,1.6l.2.1.2-.3-.1-.9c.6-.6-.2-2.9-.4-3.6l-.8-.2.4-.9.6-.4a7.1,7.1,0,0,1,1.4,1,2.14,2.14,0,0,0,.9,1.5l.3-.2.5.3-.2.3.4.2.2-.3a1.14,1.14,0,0,0-.3-.6l.4.1c.1-.3.3-.6.2-.9.5-.5.4-.8,1.2-1.2a1.19,1.19,0,0,0,.8-.1,9.85,9.85,0,0,0-.2-1.7,3.29,3.29,0,0,1,1.7-.4l.5-.5c-.2-.9-.1-1.3-.8-2.1l.2-.4-.4-.4a8.11,8.11,0,0,1,1.9-1.7V600.9ZM61.4,639.5v.6l1.2.6v-1.2ZM17.2,652l-1.8.3a3.45,3.45,0,0,1-1.2.9v1.2c-2.6,0-3.8-.8-6-1.2a6.93,6.93,0,0,0,.3,4.9l.3.3h2.4l.6.6h1.8a7.28,7.28,0,0,0,4.8,2.1l-.3-1.2-.6-.6a7.5,7.5,0,0,1,.3-3h-.6v-1.2h.6c0-.6-.2-2.7-.6-3.1ZM.9,656.2v.6c.7.3,1.1,1,1.8,1.2v-1.2l-1-.2-.2-.4Zm32.2,51h0a.6.6,0,0,0-.4.1,1.06,1.06,0,0,0-.1.8l.2.3a.91.91,0,0,0,1.1-.2v-.3a1.47,1.47,0,0,0-.5-.6.37.37,0,0,0-.3-.1Z" transform="translate(-0.86 -0.86)"/><path id="a96cd3c1-fac9-4ada-a919-966823a81e22" data-name="path6" class="3bbe31c5-5220-4f77-8bdb-98a27911b6f1" d="M592.9,36.2v.6h.6v-.6ZM243.2,543.3Zm0,0-1.2.1c-.9,2.7,1.1,2.7,0,5.5h-1.2l-.1,1.4-1.1.4c-.5,1.2-.3,3.5-.3,4.8l-1.2,1.2-1.3-.6-1,.3-.4,1.5-1,.8c-2.5.6-10.3-.8-12.9-2.2a30.7,30.7,0,0,1-2.6-2.5v-1.6c.1-.2,2.5-1.5,3-2.4.8-1.3,1-2.8,1.7-4l.4-.2.2-.4.4-.2v-.6H224l-.2.4-.4.2c-.5,1.2-1.5,1.5-2.4,2.1-.6.4-1,1-1.8,1.2s-2.1.2-3,.3v-2.4l-1.2-.3-.6-.6h-.6l-1.8,1.8h-2.4a19.22,19.22,0,0,1-2.4,0c-.8-.1-1.5-.8-2.4-.9l-.3,2.4-.4.2c-.6.1-1.3.1-1.9.2-.3.1-.7.4-1,.5h-.6c-.8.3-1.6.7-2.4,1-.2.1-.4.1-.6.2-.4.2-.6.7-1.2.9v1.8h1.2l.3,1.2.3.3h5.4l1.2,1.2c.6.2,3,.9,3.3,1.5v3l-.6.6v.6l.6.6v4.9l-.6.6-.3,1.2a5.46,5.46,0,0,0-1.8.6v1.8a5.46,5.46,0,0,0-1.8-.6v1.8a6.36,6.36,0,0,1,1.8-.6,22.8,22.8,0,0,1,.3,3.6l-.4.8c-1,2-1,1.7-.5,4l1.2.3.3.3c.3,1.2-.7,2.6-1.2,3.6-1,.6-1.4.1-2.1.3a6.72,6.72,0,0,1-1.2.6,9.88,9.88,0,0,1-3-.3,36.64,36.64,0,0,0-1.5-4.3c-.2-.4-.7-.6-.9-1.2a1.8,1.8,0,0,1-1.2.3,16.07,16.07,0,0,1-4.8-5.9c1.2-1.3,1.3-4.8,1.4-6.5-1.6-1-3.6-.7-5.4-.3-2.1,4.5-1.5,5.8-5.5,9.4-1.7-.8-3.8-.5-5.6-1.1v-1.5l-2.7-1.2-1.3.3a3.14,3.14,0,0,1-1.9,1.3l-1.1-.4.3-1.1-1-.8h-1.2l-.3-.6c-2.9.6-2-.2-4.8,1.2a2.84,2.84,0,0,0,.6.9h1.8c1.5.9.7,4.3,0,5.3-.3.5-.8.5-1.2.7s-.6.7-1.2.9a3.22,3.22,0,0,1-2.1-.6c-.1-.6-1.9-2.4-2.3-2.9.1,3.2-1.4,4.3-4.2,5.5a9.63,9.63,0,0,1,3.4.4c1.1,1.4.6,4.5-.8,5.6-1.3.2-2.6-.1-3.9.1l-.8.8a6.59,6.59,0,0,0,.5,3.4l-.5.9c-1.4,1.1-3.7,1.8-5.3.8l-1-1.9a7.84,7.84,0,0,0-3.6-1.6l-.2,2.4-1.3.3-2.1-1.6h-3.8c-.1,0-2.4,1.2-2.6,1.3l-3.1-2.3-2,3,.6,4.2a9.34,9.34,0,0,1,1.6-1.8c1.5-1.1,3.9-.1,5.5,0,.3,0,.8-.1,1.1-.1a9.26,9.26,0,0,1,4.1,2,2.88,2.88,0,0,1-.3,2.1h62V735.6a.37.37,0,0,1,.3-.1l.6.6a2.28,2.28,0,0,1-.3,1.1l.3.2.1.3a2.18,2.18,0,0,0-.5.8l.1.3.3.1.1-.3a1.38,1.38,0,0,1,.4-.3l.3.2.3-.1.1.4a2.35,2.35,0,0,0,.8.2l-.1.9.2.3a3.55,3.55,0,0,1,1-.2l-.1-1,.2.1.3.5.4-.3.1.6.5.1c0-.2.1-.6.3-.7l.5.1-.3.5.1.6.7.3.3-.3.3.2v.4l.5.5.5.1-.1-.6a4.35,4.35,0,0,1,.4-.7l.2.2-.1.4.6-.6.3.2a2.41,2.41,0,0,1,.6-.8l.1.4.3-.1.5.2c.3-.3,1.9-.9,2.1-.6l.3.3-.5.3c-.5.9-.4,1.9-.9,2.8a12.75,12.75,0,0,1-1.1,2.7l-.9-.2-.4.8.4.5c0,.7.1,1.4.1,2.1l-.4.2a2.6,2.6,0,0,0-.4,1.5l.3.1.1.8-.4.2-.2.3.1.3-.5.1a12.67,12.67,0,0,0-.6,1.8l1,.3.5-.6.4.6.5-.5a1.76,1.76,0,0,1,.8.9,2.19,2.19,0,0,1-1,.9v.7c.2.2.5.6.8.7l-.4.2c.2.5-.2,1,.1,1.4l.4.5.7-.8.5-.1a1.17,1.17,0,0,0,.6.6,7.5,7.5,0,0,1,2-1l-.4-.6v-.7l.3-.2-.3-.5.5-.4.5.4v-.5l.6.4-.1-.6.1-.3.5.2a1.39,1.39,0,0,1,.7-.8l.5-.1.4-.6-.2-.6.3-.3a3.45,3.45,0,0,0,.9.8l.7-.1c.2-.2.2-1,.2-1.3h.2c-.1.6.3,1.3.2,2.2a4.3,4.3,0,0,1,1,.9l.3-.5.4.6h.6c.1-.8-.6-1.9-.9-2.6a1.39,1.39,0,0,1,.5-1h.7l-.3-1c.1-.8.6-1.9.1-2.7l.2-.4a1.93,1.93,0,0,1,0-1.3l.4-.3v-.4l-.3-.2.2-.3.4.3a1.21,1.21,0,0,1,1,.3l.5-.2.1.3a.55.55,0,0,0-.3.5l.3.1.3-.1.2-.5h.2c.5.2.9,1.1,1.7,1.4a12.1,12.1,0,0,1,.1,1.9l.2.2a11,11,0,0,0,.2-2.6c-.5,0-1-.9-1.3-1.2a2,2,0,0,0,0-1.1c.5-.3,1-.1,1.5-.4a.82.82,0,0,0-.1-.7,1.07,1.07,0,0,0-.6.2l-.5-.1-.3.2-.2-.1-.2.3c-.1-.4.3-.7.4-1.2l-.1-.5-.3-.2-.1-.6-.3-.2-.4.1-.2-.3h-.4l-.1-.3.2-.1.3-.5-.4.1-.2-.3.2-.4.4-.2c.4-.8-.1-1.5.1-2l-.2-.2c0-.2.3-.3.4-.4l-.3-.4a1.08,1.08,0,0,1-.7-.3,2.18,2.18,0,0,1,.5-.8V735c-.4.1-.6.5-.8.8l-.2-.3.2-.4-.3-.1-.2.2a4.29,4.29,0,0,1-1.2-2.3h-.2a.52.52,0,0,1-.4.2,2.51,2.51,0,0,1-.7-.4.76.76,0,0,1,.2-.5c-.2-.2-.4-.1-.4,0l-.1-.3.4-.1.2-.2c-.1-.7,1.1-1.1,1.3-1.5v-.3l-.1-.2H223l-.2-.2a.76.76,0,0,0-.2.5.85.85,0,0,0-.7,0l-.4-.2a.66.66,0,0,0-.4-.5h-.3c.1-.4-.2-1.1.3-1.3v-.3l-.2-.3v-.2l-.3-.2-.1-.7-.3-.2a2.45,2.45,0,0,0-.4-1.2l.3-.3c0-.2-.3-.5-.5-.6a1,1,0,0,0,.4-.5,1.19,1.19,0,0,0-.9-1.3l-.3.4h-.3l.2-.6-.6-.5-.6.1c-1.1-.3-2.3-1.8-2.9-2.8a9.79,9.79,0,0,1,2.5-4.3,1.76,1.76,0,0,1,.9,1c.5,0,.8-.2,1.2-.2a.78.78,0,0,1,.2.8l.2.1c.1-.4-.2-1.2-.1-1.5a5.36,5.36,0,0,0,.5-1.1,2.84,2.84,0,0,0-.8-1.1,1.85,1.85,0,0,1,.2-.7c.1-.3-.2-.8-.3-1a4,4,0,0,0-.2-1.9h.6l.2-.2-.3-.3-.4-.1c0-1.3.6-1.6,1-2.6.2-.6.5-2.2.8-3.1l-.3-.4.5-.9-.6-.5a6.08,6.08,0,0,0-.1-1.9l.3-.2.1-.5-.3-.6.3-.4a4.55,4.55,0,0,1-.5-2,2.65,2.65,0,0,0,.6-.5,5.54,5.54,0,0,1,.2-1.8v-.4a4.73,4.73,0,0,0,1.7.1l.9-1.1a.89.89,0,0,1,.8.5,1.66,1.66,0,0,0,1.2,0l.7.6V692c-.6-.6-1.5-1.2-1.8-2a28.51,28.51,0,0,0,.3-2.9,19,19,0,0,0-3.3-3c-.8-.5-4-2-4.3-3a27.13,27.13,0,0,1-.4-4.1c.1,0,.2-.2.2-.2a13.58,13.58,0,0,0,2.9-.1c.5-.1,8.7-2.3,8.9-2.2l.1-.2c.3.9.5,1.9.8,2.6s.7.3.9,1.8a6.36,6.36,0,0,1,1.8-.6c-.5-.6-1.1-4-1.3-4.9l3.4-2.5-.1-.3-.2-.1v.3c-1.2,1-4.1,3.2-5.6,3.6l-.7.1-.6-1.7-.5.1a21.68,21.68,0,0,0-3,.8l-.2-.9-.1.5-1.9.5.1.2,1.9-.5.4,1.6-1,.3-2.6.6V673l-.2,2.6c-.5.2-2.4.5-2.8.2a25.57,25.57,0,0,1,.1-3.8c.3-.3,2.6.4,2.9.4l.2-.4c-1.3-.5-1-1.1-.9-2.4a.76.76,0,0,0-.4-.2,6.45,6.45,0,0,1-.3,2c-.1.1-2.2.1-2.5-.3a11.24,11.24,0,0,1,.4-3.2c.3-.3,2.1.1,2.6.2v.8l.3.1a7.08,7.08,0,0,1,.1-1.4l-1.3-.1c.3-1,.9-2.1,1.1-3l-.7.8c.2.4-.5,1.7-.7,2.3a4.25,4.25,0,0,0-1.1-.2,18.29,18.29,0,0,1,.6-2.5c.4-1,.4-1.9,1.5-1.9a13.41,13.41,0,0,1,2,.1v1.6a5.32,5.32,0,0,0,2.1.2,5.28,5.28,0,0,0,.1-1.3,2,2,0,0,1,1.1-.1,3.89,3.89,0,0,0,.2,1.5c.6,2.2,1.1,2,1.6,3.3l.6.2a8.17,8.17,0,0,1-.6-2.6l-.4-.2.4-1c1,.4,2.8,2.6,3.4,3.2l1.3-.5c-2.8-4.2-3.5-6.9-4.9-11.8l-.4.1,1.6,5.6-4.1-.2c-1.6-.1-3.2.5-4-1.3l1.5-2.9,1.7-.1.3,2.1.6.1c.3-3.1,1.8-1.1,0-4.7a26.61,26.61,0,0,1-3.8-2.8c-.2-.2-.4-.6-.6-.8-1.1-1.2-2.3-2-2.4-3.8a7.15,7.15,0,0,1,.3-2.5c.7-3.8,1.6-4.6,2.8-7.8a31.34,31.34,0,0,0,1.2-5.3c.7-1.1,2.3-.2,2.7-3.6l1.8-.3.6-.6,1.2-.3v-1.2l1.2-.3,1.8-1.8,2.4-.6c.7-.2,1.7.2,2.4,0a6.72,6.72,0,0,0,1.2-.6h1.2c1.2-.2,2.5-.3,3.6-.6.4-.1.8-.5,1.2-.6l2.4-.6.6-.6c1.2,0,2.5-.1,3.6,0,.7.1,3.3,1,4.2,1.2a5.23,5.23,0,0,0,1.8-.3v-1.2l1.8-.3,2.1-2.1a19.39,19.39,0,0,0,.9-4.8,8.91,8.91,0,0,1-3-.9,9.63,9.63,0,0,0-2.4,0l-2.4-.3a1.5,1.5,0,0,0,0-1.8,2.89,2.89,0,0,1-1.8.3l-.1-1.5c-1.8-.6-3.6-1.5-5.5-2l.2-1.2c.4.1.8.2,1.3.3v-.6l-2.1-.5-.3,1.7c-.3-.1-2.2-.5-2.3-.8s.2-1.4.3-1.7l1.2.3.1-.3c2.3.5,4.6.7,6.8,1.3a17.85,17.85,0,0,0-.2,2.3h.6a2.2,2.2,0,0,1,.6-1.5,5.23,5.23,0,0,1,1.8.3l-.6,1.2,2.4-.3.3-.3.3-1.2h1.8l.6-2.4h1.2c.2-2.2,1-3.9-.8-5.5v-.5a8.06,8.06,0,0,1,2.5-3h.5l-.3-1.2L259,592c.7-1.3-1-2.4-1-3.2.6-.3,1-.9,1.8-1.1,2.8-.7,3.5,2.7,4.2,3.1h.6a3.45,3.45,0,0,1,1.2-.9l.3,1.2.3.3,1.2.3-.3-1.2-1.2-1.2v-1.2l-.6-.6c-.2-1.9.7-5.4,1.3-7.3l.6-.6.3-3.6a2.55,2.55,0,0,1-2.4,0,5,5,0,0,1-.3-2.4,3.45,3.45,0,0,0,.9-1.2h-1.2v-1.8l2.4-.3a1.8,1.8,0,0,0,.6-.9,5.46,5.46,0,0,1-1.8-.6,7.5,7.5,0,0,0,0-4.2,5.46,5.46,0,0,1-1.8-.6c-.7-2.1.3-3,1.2-4.8l-4.2.6a3.45,3.45,0,0,1,.9-1.2,6.34,6.34,0,0,0-.3-2.4,3.45,3.45,0,0,1,1.2.9l1.2.3-.3-1.2-1.2-1.2v-1.2l.6-.6a2.36,2.36,0,0,1,.5-2l-.8-.9-.8.9c-.8-.3-2.1.3-2.8-.4v1.8h-3V555l-3.6-.3c-.7-1.4-4.1-1.3-5.4-1.2a3.45,3.45,0,0,0-1.2-.9l-.3-2.4-.6-.6a20.75,20.75,0,0,0-.3-4.3,19.35,19.35,0,0,0-1.7-2Zm29.1,18.6v.6h.6v-.6Zm-.1,1.2v.6h.6v-.6Zm-5.5,10.2v1.8h.6v-1.2h.6v-.6Zm6.7.7-.2.4-.4.2a9.93,9.93,0,0,1-1.2,3l1.8.3a3.45,3.45,0,0,0,1.2.9,14.27,14.27,0,0,0-.6-3.6h-.6l.2-.4.4-.2V574Zm-5.5,13.9v.6h.6v-.6Zm48.8,21.6v.6l1.2.6v-1.2h-1.2Zm1.8,1.2v.6h.6v-.6Zm-3.7,3.6v.6h.6v-.6Zm13.9,1.3v1.2l1,.2.2.4h.6v-.6l-.4-.2-.2-1ZM316,618v.6l.4.2.2.4h.6v-.6l-.4-.2-.2-.4Zm10.1,32.2c-.7.2-1.1,1-1.8,1.2v1.2h-.6v.6h.6V655c.7-.3,2.4-.5,3,0a25.94,25.94,0,0,1-1.2-4.8Zm6,6.5-4.2,1.1a5.65,5.65,0,0,1-3.1,2.6,16.69,16.69,0,0,0,0,7.7l1.5.2.6,1.6,2.4-1.1a5.29,5.29,0,0,1,1.3-2.3l1.5.4a2.11,2.11,0,0,1-.4-1l.4-.2v-1.2h.6v-.6h.5V658l-1.1-1.3Zm140,22.6v1.8h.6l.3,1.2.9.9,1.8.3a5.46,5.46,0,0,1-.6-1.8l-1.2-.3a3.45,3.45,0,0,0-1.2-.9v-1.2Zm6.6,5.5c-.7,0-3.8.1-4.2.6v1.2a4.19,4.19,0,0,1,1.5,1.2,5.23,5.23,0,0,1-.3,1.8h1.2a3.36,3.36,0,0,0-.2,2.2l-.4.2-.3,1.2-.6.6-.3,3h1.2c-.7.7-.3,3.4.6,3.9l1.8.3v1.2l-1.2-.6c.1.8.6,4.2,0,4.8a5.46,5.46,0,0,0-1.8-.6v-1.2c-.7.2-1.1,1-1.8,1.2-.3.8-.6,3.7,0,4.2a3.8,3.8,0,0,1-1.8.3l-.6-.6-2.4-.3v1.2h2.4l-.6,1.2h1.2a5.46,5.46,0,0,1-.6,1.8h-1.2l.3,1.8a5.72,5.72,0,0,1,1.5,3c-1.5,0-3.1,1.2-4.2.9-.3-.1-.7-.4-1-.5v19.1a2.18,2.18,0,0,1,.3.5h-.3v1.8l1.5.4.6.6c.7.2,1.3-.5,1.8-.6a10.82,10.82,0,0,1,1.8,0l.6-.6a5.66,5.66,0,0,1,1.8.3l-.3,2.4a3.45,3.45,0,0,0-.9,1.2h-1.2a14.5,14.5,0,0,0,.6,3H472l.3,1.8.3.3a6.34,6.34,0,0,1,2.4.3l.3,1.2.3.3a1.68,1.68,0,0,0,1.2-.3,11.08,11.08,0,0,1-1.2,3h-1.2v1.2h-3a5.46,5.46,0,0,1-.6,1.8,8.49,8.49,0,0,0-3.8-1.2v.9l.8-.4a5.46,5.46,0,0,1-.6,1.8h-.1v20.9a9.11,9.11,0,0,1,2.4-1.5v1.2h.6v-1.8c2.3-.3,3.3-1.3,3.3-3.6s-.3-7.5.7-9.7a7.64,7.64,0,0,1,.9-.9l1.2-.6a8.75,8.75,0,0,0,1.8-2.1h-1.2a3.8,3.8,0,0,1-.3-1.8l1.2-1.2a4.84,4.84,0,0,0-.3-2.4l.9-1.2v-.6l.3-.3H481c1.6-1.6,3.1-3,5.5-3.3a37,37,0,0,1,.6-4.8c2.1-.4,3.9-1.5,6-.5-.9,1,.4,2.5.6,3.6h1.8l.3-1.8L497,744v-1.8a4.81,4.81,0,0,0,1.5-3c.8-.2,2.3-.6,3,0V738h1.2c.3.9.1,1.9.3,2.4.7,2,.6.7.6,3l.6.6.1,1-1,.2v.6h1.2l.2-.4.4-.2V744a5.46,5.46,0,0,1,1.8.6c-.2-.9-.7-3.3-1.5-3.7v-1.2l1.2-1.2.3-1.8,1.8-.3.3-.3.3-1.8c.7.6,2.2.2,3,0v-1.2l-1.2-.3a3.45,3.45,0,0,0-1.2-.9v-.6h1.2l.9-1.1-.6-.7.3-1.1,1.1.1-.8.8.6.8,1-1.8a21.86,21.86,0,0,1,.3-5.1,2.2,2.2,0,0,1-.8.1v1a4.84,4.84,0,0,1-2.4-.3c-.2-1.2-1.2-2.4-.9-3.6l.6-.6v-1.2l-.6-.6v-.6l.6-.6c.2-.6-.8-3.2-.9-4.3a5,5,0,0,0-2.4.6v-1.2h-1.8v-1.2l-2.4-.3v1.5h-.6l.3-1.2-.3-.6h-.5l-.1,1.5a6.66,6.66,0,0,1-3.6-.9,2.89,2.89,0,0,0,.3-1.8l-.6-.6v-1.8c-.1-.4-.5-.8-.6-1.2-.3-.8-.3-1.6-.6-2.4-.1-.4-.5-.8-.6-1.2v-.6l.6-.6c.2-1.1-.2-4-.9-4.8a7.69,7.69,0,0,1-3,.3l-.6-.6-2.4-.6a19.21,19.21,0,0,0-2.4,0,15.1,15.1,0,0,1-1.8-.9v1.2l-2.4-1.2c.2-.9.7-4.8,0-5.4-.9.4-2.1,1.4-3,.6l-.3-1.2-.6-.6-.5-2.5Zm32.4,15.4v1.2h.6v-1.2Zm2.4,10.4-.2,1-.4.2v.6h.6l.2-.4,1-.2-.6-1.2Zm5.9,18.2-2.4.6v1.2a6.36,6.36,0,0,1,1.8-.6v-.6l.4.2.2.4h.6v-.6l-.4-.2-.2-.4ZM208.6,756.9l-.5.5c-.2.8-.2,2.1.8,2.4a2.73,2.73,0,0,0,.7-1.3l.2.7.2-.1.1-.9.5-.4v-.9Zm266.1,39.2v1.2h-1.2a12.61,12.61,0,0,0,.4,2.8l-.4.2v.6h.6a3.51,3.51,0,0,1,1.8-1.8v-2.4h.6v-.6Z" transform="translate(-0.86 -0.86)"/><path id="89370d2c-bedd-42f8-aa1a-9d4dee43b5c3" data-name="path8" class="4572835a-2b12-47b1-97ca-632d8480a5ee" d="M460.4,37.7h-.6a3.45,3.45,0,0,1-1.2.9v1.2a15.94,15.94,0,0,1,3-.6v-.6h.6V38a8.42,8.42,0,0,0-1.8-.3ZM407.9,541.6h0v.6h.6v1.2h2.4l-.6-1.2-2.4-.6Zm-21.8,8.3v1.2h1.2l-.6-1.2Zm-6.2,14.5h0v1.2a5.46,5.46,0,0,0,1.8.6V565a3,3,0,0,1-1.8-.6Zm-12.8,18.2v1.8h1.8c-.2-.8-1-1.1-1.2-1.8Zm9.6,3.7v1.2l2.4.6a5.46,5.46,0,0,0-.6-1.8Zm-25.3,17.3h0c-.5.3-3.6,2.4-3.8,2.5v1.2a5,5,0,0,0-2.4.6v1.2l-2.4.3-.6.6H341a52,52,0,0,0-5.5,2.1,27.7,27.7,0,0,0,.3,3c.2.9.8,1.4.9,3,2,.3,2.1,1.4,2.7,3.1,0,.1.6.5.6.6a4.24,4.24,0,0,0,1.2,2.4,39.2,39.2,0,0,0,1.8,5.5c.1.2.7.7.8,1l.4.8c.1.4-.1,4.1-.1,4.3h-.8a8.06,8.06,0,0,1-1.4-1.2c0,.4-.2,4.4-.1,4.7.3,1.3.6.7.6,2.4l1.1.4a4.67,4.67,0,0,0,.3,1.7l-.9.2.1.3c.3,1.7,1,3.1,1.3,4.8l.9.1.2,1.2.8.3-1.1.9v.8a3.3,3.3,0,0,0,2.4-.1c.4-.5.8-.9,1.2-1.4,1.2,0,1.8-1,2.8-1.6l.3.1a6.65,6.65,0,0,1,2.7-.9l.7.8a5.24,5.24,0,0,0,1.8-1c.3-1.4-.2-2.8,0-4l-.1-.2.1-.3.3-.3a1.8,1.8,0,0,1,1.2.3l.5-.4a3,3,0,0,0,.2-1.6l-1.3-1.7h1.2a14.5,14.5,0,0,1,.6-3h1.8a17.73,17.73,0,0,0,.5-3.2c-2.2-.1-2.1-1.9-3.5-3.1a10.86,10.86,0,0,1-.4-2.5,4.63,4.63,0,0,1-1.3-1.8,15.72,15.72,0,0,0,.4-2.3,4.78,4.78,0,0,0-2.3-1.3,9,9,0,0,1-1.5-1.9c-.3-.5-.9-1.1-1.2-1.6-.6-1.1-.3-5.4-.3-6.6,0-2.8,0-5.7.1-8.5l-.6-.7Zm-13.7,26v.6h.6v-.6Zm23.5,8.1h0v.6l.4.2.2.4h.6v-.6l-.4-.2-.2-.4ZM333.1,658v5.8l.9-.1.8-1.6-.2-2.2-1.5-1.9Zm.1,11v1.2h1.2V669Zm130.1,49.6-.3,1.8a13.58,13.58,0,0,0-1.2,1.2l-.6,1.2c-1,1.4-1.8,1.3-2.1,3.6l1.2.3.9.9.3,3a14.27,14.27,0,0,1,3.6.6v.6h-1.8a5.46,5.46,0,0,1-.6,1.8,5.46,5.46,0,0,1-1.8-.6c0,.6-.2,2.6-.6,3l.8.2a18.55,18.55,0,0,0,2.2.1c1.3.5,1,.6,2.4.6a4.81,4.81,0,0,1,.9,1.1V718.9c-.1,0-.1-.1-.2-.1a30.26,30.26,0,0,1-3.1-.2Zm-19,.7h0c-.6,0-1,.5-1.5.6-.2.1-1.7-.1-1.8,0-.4.1-.8.5-1.2.6a10.82,10.82,0,0,1-1.8,0,3.45,3.45,0,0,1-1.2.9v-1.2a6.36,6.36,0,0,1-1.8.6l-.3,1.8-1.8,1.8-.3,1.2H435V725c1.6.8,2.9,1.4,4.8.7v1.2H441v1.2l1.2.3a1.8,1.8,0,0,1,.6.9c-.8.3-2.5.1-3,.6v1.2a12.21,12.21,0,0,0,4.2.6v-1.2h1.2l.3-1.8.3-.3a50.67,50.67,0,0,1,5.4-.9v-1.2h.6v1.2H453c-.3-1.7-1-3.1-1.2-4.9l-1.2-.3c-2.5-2.5-2-2.2-6-3.1a.37.37,0,0,1-.3.1Zm14.1,5.9-1.2.6-.2.4a17,17,0,0,0-2.2-.4v.6h.6v1.2l1.2-.3a2.62,2.62,0,0,1,1.8-.9v-1.2Zm5.9,13.4a3.49,3.49,0,0,0,1.2,1.5l.9.2v-1.8l-2.1.1Zm1.7,17v1.2l.5-.2v-.9a.9.9,0,0,0-.5-.1Zm.5,2.4-1.7.3-.6.6c-4.3.9-3.9.9-6.7,3.6l-1,.1-.2-.4h-.6v.6l.4.2-.1.4-1.8,1.8-.3,1.2a5,5,0,0,0-2.4.6,19.81,19.81,0,0,1,.3,4.2l.3.3h1.2l.3-.3a1.68,1.68,0,0,0-.3-1.2,5,5,0,0,0,2.4-.6c.4,1.1.2,4.8,1.2,5.2l3,.3v-1.2h1.8c-.2,1.3-1.1,2.3-1.2,3.6h-1.2v3h-1.2a1.8,1.8,0,0,0,.6.9h1.8l.6.6c1.4,0,3.7.2,4.8-.3a3.8,3.8,0,0,1-.3-1.8,3.74,3.74,0,0,0,.9-.9V758Zm-15.1,5.3v.6h.6v-.6Zm-3.6,7.3v.6l1.2.6v-1.2Z" transform="translate(-0.86 -0.86)"/></svg>
