<?xml version="1.0" encoding="utf-8"?>

<svg version="1.2" baseProfile="tiny" xmlns="http://www.w3.org/2000/svg" xmlns:xlink="http://www.w3.org/1999/xlink" x="0px"
	 y="0px" viewBox="378.2 171.8 83.5 250" xml:space="preserve">

<g id="Gibraltar">
	<g>
		<path fill="#DA000C" d="M427.5,351.9c0.1,0.5,0.3,1,0.7,1.3c0.5,0.6,1.2,0.8,1.9,0.8c1.1,0.1,2.2-0.5,2.7-1.4l-3.3-1.9
			L427.5,351.9z"/>
		<path fill="#DA000C" d="M426.7,370.2v-3.8l-12-7h-3.1v-5.2h3.1l10.1-5.9c0-1.3,0-2.7,0-4c0-0.7,0-1.5,0-2.2h-34.5l6.1,10
			l14.3,26.7l0.2,3.6l0.1,11.8l0,2.8l-1.3,3.1h16.9V370.2z"/>
		<path fill="#DA000C" d="M435.7,342.2c0,1.1,0,2.3,0,3.4c0,1.2,0,2.5,0,3.7l8.6,5h3.1v5.2h-3.1l-12,7v3.8v50.3l2.2,1.4l5.4-7.7
			l3.4-21.5l4-9.8l3.3-8l0-18.2l2.4-4.6l4.5-8.5l0-1.4H435.7z"/>
		<polygon fill="#DA000C" points="421.1,411.7 426.7,411.7 426.7,409.1 421.1,409.1 421.1,404.9 414.5,404.9 414.5,409.1
			409.8,409.1 411.8,411.7 414.5,411.7 414.5,415.1 415.1,415.9 421.1,415.9 		"/>
		<path fill="#DA000C" d="M429.5,362.9l10.5-6.1l-5-2.9c-0.9,1.7-2.7,2.8-4.7,2.8c-0.2,0-0.3,0-0.5,0c-2.1,0-4-1.5-4.7-3.5l-6.1,3.6
			L429.5,362.9z"/>
		<path fill="#DA000C" d="M427.4,346.7c0,0.1,0,0.1,0,0.2l2.1-1.2l3.6,2.1v-5.5h-5.7C427.4,343.7,427.4,345.2,427.4,346.7z"/>
		<polygon fill="#DA000C" points="407.4,405.8 408.7,407.6 408.7,402.5 		"/>
		<path fill="#FFFFFF" d="M435.7,342.2h22.1l0-2.8h-22.1C435.7,340.3,435.7,341.3,435.7,342.2z"/>
		<path fill="#FFFFFF" d="M424.8,340c0-0.2,0-0.4,0-0.6h-0.3h-33.5v-3.1h-4.3l3.5,5.9h34.5C424.8,341.5,424.8,340.8,424.8,340z"/>
		<path fill="#FFFFFF" d="M431.2,341c-1.1,0-2.2-0.3-3-0.9c-0.4-0.1-0.6-0.3-0.7-0.5c0,0.8,0,1.7,0,2.5h5.7v-1.6
			c-0.1,0-0.1,0.1-0.2,0.1C432.4,340.9,431.8,341,431.2,341z"/>
		<polygon fill="#FFFFFF" points="411.4,193.5 418,193.5 418,189.3 426.7,189.3 426.7,193.5 433.3,193.5 433.3,189.3 442,189.3
			442,193.5 448.6,193.5 448.6,189.3 455.5,189.3 455.5,197.5 451.5,197.5 451.5,204.1 448.2,204.1 448.2,249.9 451.2,249.9
			451.2,255.9 456,255.9 458.2,253.5 458.2,244.6 458.1,221.9 461.1,218.1 461.1,213.8 459.1,213.8 459.1,208.8 456.9,208.8
			456.9,198.7 461.7,198.7 461.7,182.2 461.7,182.2 436.6,171.8 402.2,172.9 407.2,185.8 407.3,189.3 411.4,189.3 		"/>
		<polygon fill="#FFFFFF" points="401,208.8 401,213.8 398.9,213.8 398.9,249.9 400,249.9 400,255.9 408.9,255.9 408.9,249.9
			411.8,249.9 411.8,204.1 408.5,204.1 408.5,197.5 405.8,197.5 403.1,202.1 403.1,208.8 		"/>
		<path d="M415.2,325.4v1.2h2.6C417,326.2,416.1,325.8,415.2,325.4z"/>
		<path d="M396.2,308.5c0-4.4-2.6-8.2-6.3-9.8l1.5,11l1.3,11.2l-4.2,2.7h7.7V308.5z"/>
		<path d="M425.3,291.9c-6.4,1.6-10,6.5-10,13.8V321c3.2,1.4,6.5,3,10,5V291.9z"/>
		<polygon fill="#DA000C" points="391.1,331.7 394.4,330.1 385.6,330.1 385.5,334.2 386.5,335.8 391.1,335.8 		"/>
		<polygon fill="#DA000C" points="401.4,326.7 401.4,324.1 387.7,324.1 385.6,325.5 385.6,329.5 395.5,329.5 		"/>
		<polygon points="391.1,335.8 386.5,335.8 386.8,336.3 391.1,336.3 		"/>
		<polygon points="401.4,324.1 396.2,324.1 396.2,323.6 388.5,323.6 387.7,324.1 401.4,324.1 		"/>
		<path fill="#DA000C" d="M396.7,308.5v15.1h4.7v-52.9h-6.2v-4.8h-0.4h-2.4h-14.2l0,5.3l5.5,2.2l3.6-4.4l5.3,6.6l-5.3,6.9l-5.1,2.3
			l0.2,4.7l1.7,1l5.1,3.1l0.6,4.5C393.8,299.7,396.7,303.8,396.7,308.5z"/>
		<path d="M396.2,308.5v15.1v0.5h5.2v-0.5h-4.7v-15.1c0-4.7-2.9-8.8-6.9-10.4l0.1,0.6C393.6,300.3,396.2,304.1,396.2,308.5z"/>
		<path d="M392.4,249.9L392.4,249.9l0-9.8c0-3.7-3-6.8-6.8-6.8l-0.1,0c-0.1,0-0.1,0-0.2,0c-3.5,0.2-6.1,3.1-6.1,6.8v9.8v0.1l2.6,3.5
			l-2,2.4h12.6V249.9z"/>
		<polygon fill="#DA000C" points="392.4,261.3 378.2,261.3 378.2,265.4 392.4,265.4 		"/>
		<polygon fill="#DA000C" points="392.4,256.4 379.3,256.4 378.2,257.8 378.2,260.7 392.4,260.7 		"/>
		<rect x="378.2" y="265.4" width="14.2" height="0.5"/>
		<rect x="378.2" y="260.7" width="14.2" height="0.6"/>
		<polygon points="392.4,255.9 379.8,255.9 379.3,256.4 392.4,256.4 		"/>
		<path fill="#DA000C" d="M385.3,232.8c0.1,0,0.2,0,0.3,0l0.1,0c4,0,7.3,3.3,7.3,7.3v9.8h5.5v-36.1h-6.1l-14.1,21.6v13.5l0.4,0.5
			v-9.2C378.6,236.1,381.5,233,385.3,232.8z"/>
		<rect x="398.4" y="213.8" width="0.5" height="36.1"/>
		<path d="M379.1,240.1c0-3.7,2.6-6.6,6.1-6.8c0.1,0,0.1,0,0.2,0l0.1,0c3.7,0,6.8,3,6.8,6.8v9.8h0.5v-9.8c0-4-3.3-7.3-7.3-7.3
			l-0.1,0c-0.1,0-0.2,0-0.3,0c-3.8,0.2-6.6,3.3-6.6,7.3v9.2l0.5,0.7v-0.1V240.1z"/>
		<polygon fill="#DA000C" points="400.4,213.2 400.4,208.8 399.2,208.8 398.3,210.4 394.5,210.5 392.7,213.2 398.9,213.2 		"/>
		<polygon points="398.9,213.8 401,213.8 401,208.8 400.4,208.8 400.4,213.2 398.9,213.2 392.7,213.2 392.3,213.8 398.4,213.8 		"/>
		<polygon fill="#DA000C" points="402.6,208.3 402.6,203 399.5,208.3 401,208.3 		"/>
		<polygon points="401,208.8 403.1,208.8 403.1,202.1 402.6,203 402.6,208.3 401,208.3 399.5,208.3 399.2,208.8 400.4,208.8 		"/>
		<polygon points="395.5,329.5 385.6,329.5 385.6,330.1 394.4,330.1 		"/>
		<polygon fill="#DA000C" points="423.8,332.1 391.6,332.1 391.6,338.9 424.5,338.9 424.8,338.9 424.8,332.1 		"/>
		<path fill="#DA000C" d="M423.8,331.6h1v-1.1c-2-1.2-3.9-2.3-5.9-3.3h-17.3l-9,4.4H423.8z"/>
		<path d="M424.5,338.9h-32.9v-6.8h-0.3v-0.5h1.2l9-4.4h17.3c-0.4-0.2-0.7-0.4-1.1-0.5h-2.6v0.2c0,0.1-0.1,0.3-0.3,0.3h-13.3
			c-0.1,0-0.3-0.1-0.3-0.3v-0.2l-5.8,2.8l-1.1,0.5l-3.4,1.6v4.1v0.5v3.1h33.5V338.9z"/>
		<polygon points="423.8,332.1 423.8,331.6 392.5,331.6 391.3,331.6 391.3,332.1 391.6,332.1 		"/>
		<path d="M444.8,326.7v-1.1c-0.7,0.4-1.3,0.7-1.9,1.1L444.8,326.7z"/>
		<path d="M426.3,326.7l8.9,0c0.5-0.4,1.1-0.7,1.6-1.1c0,0,0.1-0.1,0.1-0.1c0.8-0.5,1.6-1,2.4-1.5c0-0.1,0.1-0.1,0.2-0.1
			c0.2-0.1,0.4-0.2,0.6-0.3l1-0.6c0.3-0.1,0.5-0.3,0.8-0.4c0-0.1,0.1-0.2,0.2-0.2c0,0,0,0,0.1,0c0.8-0.5,1.7-1,2.6-1.4v-15.3
			c0-10.6-8-14.4-14.8-14.4c-1.7,0-3.3,0.2-4.7,0.5V326C425.6,326.2,426,326.5,426.3,326.7z"/>
		<polygon fill="#DA000C" points="461.6,217.4 461.7,217.3 461.7,213.8 461.6,213.8 		"/>
		<polygon points="461.1,213.8 461.1,218.1 461.6,217.4 461.6,213.8 		"/>
		<polygon fill="#DA000C" points="459.6,213.2 461.1,213.2 461.7,213.2 461.7,208.8 459.6,208.8 		"/>
		<polygon points="459.6,213.2 459.6,208.8 459.1,208.8 459.1,213.8 461.1,213.8 461.6,213.8 461.7,213.8 461.7,213.2 461.1,213.2
					"/>
		<polygon fill="#DA000C" points="457.4,208.3 459.1,208.3 461.7,208.3 461.7,203.7 461.7,199.3 457.4,199.3 		"/>
		<polygon points="456.9,208.8 459.1,208.8 459.6,208.8 461.7,208.8 461.7,208.3 459.1,208.3 457.4,208.3 457.4,199.3 461.7,199.3
			461.7,198.7 456.9,198.7 		"/>
		<path fill="#DA000C" d="M436.2,332.1h-1.5c-0.1,0.1-0.2,0.2-0.3,0.2c0.3,0.3,0.7,0.7,1,1c1.3,1.3,1.1,3.4,0.6,4.7
			c-0.1,0.2-0.2,0.4-0.3,0.6c0,0.1,0.1,0.1,0.1,0.2h22.2l0.1-6.8H436.2z"/>
		<path fill="#DA000C" d="M427.9,332.4C427.9,332.4,427.9,332.4,427.9,332.4l-0.5-0.3h-2.6v6.8h0.1c0.2-0.9,0.6-1.8,1.2-2.6
			c0,0,0-0.1,0-0.2C425.8,334.5,427,333.3,427.9,332.4z"/>
		<path fill="#DA000C" d="M424.8,331.6h1.8c-0.6-0.4-1.2-0.7-1.8-1.1V331.6z"/>
		<path fill="#DA000C" d="M442,327.2c-2.4,1.4-4.5,2.8-6.4,4.2c-0.1,0-0.1,0.1-0.2,0.1h0.8H458l0.1-4.4H442z"/>
		<path fill="#DA000C" d="M427.3,327.2c0.1,0.1,0.2,0.1,0.4,0.2l0.6,0.4c1,0.6,2,1.3,2.9,1.9c1.1-0.8,2.2-1.7,3.4-2.5H427.3z"/>
		<path d="M435.7,339.2c0,0.1,0,0.1,0,0.2c0,0,0,0,0,0h22.1l0-0.5h-22.2C435.7,339,435.7,339.1,435.7,339.2z"/>
		<path d="M424.9,338.9L424.9,338.9h-0.3v0.5h0.3C424.8,339.2,424.9,339.1,424.9,338.9z"/>
		<path d="M445,327.2c-0.1,0-0.3-0.1-0.3-0.3v-0.2l-1.9,0c-0.3,0.2-0.6,0.3-0.9,0.5h16.1l0,0H445z"/>
		<path d="M435.3,326.7l-8.9,0c0.3,0.2,0.6,0.4,0.9,0.5h7.3C434.8,327,435,326.9,435.3,326.7z"/>
		<path d="M423.8,331.6v0.5h1h2.6l-0.1-0.1c-0.2-0.2-0.5-0.3-0.7-0.4h-1.8H423.8z"/>
		<path d="M436.2,331.6h-0.8c-0.2,0.2-0.5,0.4-0.7,0.5h1.5H458l0-0.5H436.2z"/>
		<path fill="#F8D80E" d="M442.4,326.5c0.8-0.4,1.6-0.9,2.4-1.4v-3.7c-0.8,0.4-1.6,0.8-2.4,1.3V326.5z"/>
		<path fill="#F8D80E" d="M426.4,335.9c0.8-0.8,1.8-1.4,2.9-1.5l0,0l0,0c0.2,0,0.5,0,0.7,0c0.2,0,0.4,0,0.6,0
			c-0.8-0.6-1.6-1.2-2.4-1.7C427.4,333.4,426.3,334.6,426.4,335.9z"/>
		<path fill="#F8D80E" d="M439.3,324.6c-0.7,0.4-1.3,0.8-2,1.2v3.9c0.6-0.4,1.3-0.9,2-1.3c0,0,0-0.1,0-0.1V324.6z"/>
		<path fill="#F8D80E" d="M436.8,326.1c-0.7,0.4-1.4,0.9-2,1.3c0,0,0,0,0,0v3.9c0.2-0.1,0.3-0.2,0.5-0.4c0.5-0.4,1-0.8,1.6-1.1
			c0,0-0.1-0.1-0.1-0.2V326.1z"/>
		<path fill="#F8D80E" d="M441.8,323.1c-0.2,0.1-0.4,0.2-0.6,0.3l-1,0.6c-0.2,0.1-0.3,0.2-0.5,0.3v3.8c0.6-0.4,1.3-0.8,2-1.2
			c0,0,0,0,0,0V323.1z"/>
		<path fill="#F8D80E" d="M434.4,331.8c-0.1,0-0.1-0.1-0.1-0.2v-3.7c-1,0.7-1.9,1.4-2.8,2.1c0.9,0.6,1.8,1.3,2.6,2.1
			C434.2,332,434.3,331.9,434.4,331.8z"/>
		<path d="M439.9,324.2L439.9,324.2c0.2,0,0.3-0.1,0.5-0.2l1-0.6c0.2-0.1,0.4-0.2,0.6-0.3v-0.4c0,0,0,0,0-0.1
			c-0.3,0.1-0.5,0.3-0.8,0.4l-1,0.6c-0.2,0.1-0.4,0.2-0.6,0.3c0,0,0,0,0,0C439.7,323.9,439.9,324.1,439.9,324.2z"/>
		<path d="M437.4,325.8L437.4,325.8c0.6-0.4,1.3-0.8,2-1.2v-0.4c0-0.1,0-0.1,0.1-0.1c-0.8,0.5-1.6,1-2.4,1.5c0,0,0,0,0.1,0
			C437.2,325.5,437.4,325.6,437.4,325.8z"/>
		<path d="M442.4,322.7v0.1c0.8-0.4,1.6-0.9,2.4-1.3V321c-0.9,0.4-1.7,0.9-2.6,1.4C442.3,322.5,442.4,322.5,442.4,322.7z"/>
		<path d="M442.4,326.8c0,0.1-0.1,0.3-0.3,0.3c-0.1,0-0.2-0.1-0.3-0.2c-0.7,0.4-1.4,0.8-2,1.2v0.2c0,0.1-0.1,0.3-0.3,0.3
			c-0.1,0-0.2-0.1-0.2-0.2c-0.7,0.4-1.4,0.9-2,1.3v0.1c0,0.1-0.1,0.3-0.3,0.3c-0.1,0-0.1,0-0.2-0.1c-0.5,0.4-1.1,0.7-1.6,1.1
			c-0.2,0.1-0.3,0.3-0.5,0.4v0.1c0,0.1-0.1,0.3-0.3,0.3c-0.1,0-0.1,0-0.2-0.1c-0.1,0.1-0.2,0.2-0.3,0.2c0.1,0.1,0.2,0.2,0.3,0.3
			c0.1-0.1,0.2-0.2,0.3-0.2c0.2-0.2,0.5-0.4,0.7-0.5c0.1,0,0.1-0.1,0.2-0.1c1.9-1.4,4-2.8,6.4-4.2c0.3-0.2,0.6-0.3,0.9-0.5
			c0.6-0.4,1.2-0.7,1.9-1.1v-0.5c-0.8,0.5-1.6,0.9-2.4,1.4V326.8z"/>
		<path d="M428.3,332.7c-0.1-0.1-0.2-0.2-0.3-0.2c-1,0.8-2.1,2.1-1.9,3.7c0,0.1,0,0.1,0,0.2c0.1-0.1,0.2-0.2,0.4-0.4
			C426.3,334.6,427.4,333.4,428.3,332.7z"/>
		<path d="M434.3,327.5c0-0.1,0.1-0.3,0.3-0.3c0.1,0,0.2,0.1,0.2,0.2c0.6-0.4,1.3-0.9,2-1.3v-0.4c0-0.1,0-0.1,0.1-0.1
			c-0.5,0.4-1.1,0.7-1.6,1.1c-0.3,0.2-0.5,0.3-0.7,0.5c-1.2,0.8-2.3,1.7-3.4,2.5c0.1,0.1,0.2,0.2,0.3,0.2c0.9-0.7,1.8-1.4,2.8-2.1
			V327.5z"/>
		<path d="M434.8,327.5C434.8,327.5,434.8,327.5,434.8,327.5c0-0.2-0.1-0.3-0.3-0.3c-0.1,0-0.3,0.1-0.3,0.3v0.3v3.7
			c0,0.1,0,0.2,0.1,0.2c0,0,0.1,0.1,0.2,0.1c0.1,0,0.3-0.1,0.3-0.3v-0.1V327.5z"/>
		<path d="M436.8,326.1v3.7c0,0.1,0,0.1,0.1,0.2c0,0.1,0.1,0.1,0.2,0.1c0.1,0,0.3-0.1,0.3-0.3v-0.1v-3.9v0c0-0.1-0.1-0.3-0.3-0.3
			c0,0,0,0-0.1,0c-0.1,0-0.1,0-0.1,0.1c0,0-0.1,0.1-0.1,0.1V326.1z"/>
		<path d="M439.3,324.6v3.6c0,0,0,0.1,0,0.1c0,0.1,0.1,0.2,0.2,0.2c0.1,0,0.3-0.1,0.3-0.3V328v-3.8v0c0-0.1-0.1-0.3-0.3-0.3
			c0,0,0,0,0,0c-0.1,0-0.1,0-0.2,0.1c0,0-0.1,0.1-0.1,0.1V324.6z"/>
		<path d="M441.8,323.1v3.7c0,0,0,0,0,0c0,0.1,0.1,0.2,0.3,0.2c0.1,0,0.3-0.1,0.3-0.3v-0.3v-3.7v-0.1c0-0.1-0.1-0.2-0.2-0.2
			c0,0,0,0-0.1,0c-0.1,0-0.2,0.1-0.2,0.2c0,0,0,0,0,0.1V323.1z"/>
		<path fill="#F8D80E" d="M418,326.1v-3.2c0-0.1,0-0.1,0.1-0.2c-1-0.5-1.9-0.9-2.8-1.3v3.5c0.9,0.4,1.9,0.9,2.8,1.3
			C418,326.3,418,326.2,418,326.1z"/>
		<path fill="#F8D80E" d="M421.2,324.6c0-0.1,0.1-0.2,0.2-0.2c-1-0.5-2-1-2.9-1.5v3.2c0,0.1-0.1,0.3-0.3,0.3c0,0,0,0-0.1,0
			c1,0.5,2,1,3.1,1.6V324.6z"/>
		<path fill="#F8D80E" d="M424.5,326.3c0-0.1,0-0.2,0.1-0.2c-1-0.6-1.9-1.1-2.9-1.6c0,0,0,0,0,0.1v3.4c0,0.1,0,0.1-0.1,0.1
			c0.9,0.5,1.9,1,2.8,1.6V326.3z"/>
		<path fill="#F8D80E" d="M435.7,335.6c0.1,0,0.2,0,0.2,0.1c0-0.8-0.3-1.5-0.9-2.1c-0.3-0.4-0.6-0.7-1-1l-1.8,2.5c0,0,0,0-0.1,0.1
			c0.2,0.2,0.4,0.4,0.5,0.7L435.7,335.6z"/>
		<path fill="#F8D80E" d="M435.9,336.1c0,0-0.1,0.1-0.2,0.1l-3.1,0.3c0,0.1-0.1,0.3-0.2,0.5c0,0.1-0.1,0.1-0.1,0.2l2.7,1.4
			c0,0,0,0.1,0.1,0.1l0.2-0.4l0,0.1c0.1-0.1,0.2-0.3,0.2-0.4C435.8,337.4,435.9,336.7,435.9,336.1z"/>
		<path fill="#F8D80E" d="M427.7,328.2c0-0.1,0-0.1,0.1-0.2l-0.4-0.3c-0.8-0.5-1.6-0.9-2.4-1.4v3.6c0,0,0,0.1,0,0.1
			c0.8,0.5,1.6,1,2.4,1.5L427.7,328.2z"/>
		<path fill="#F8D80E" d="M433.7,332.2c-0.8-0.7-1.7-1.4-2.6-2.1l-0.9,3.3c0,0,0,0.1-0.1,0.1c0.4,0.3,0.8,0.6,1.1,0.9l0.1,0l0.2,0.2
			c0.1,0.1,0.1,0.1,0.2,0.2c0,0,0,0,0,0L433.7,332.2z"/>
		<path fill="#F8D80E" d="M432.1,337.5c-0.1,0-0.1-0.1-0.1-0.2c-0.1,0-0.1,0-0.2,0c-0.2,0.1-0.5,0.1-0.8,0l-0.1,0c0,0,0,0,0,0
			c0,0.1,0,0.2-0.1,0.2l-2.6,1.9c0,0-0.1,0.1-0.2,0.1c-0.1,0-0.2,0-0.2-0.1c-0.1-0.1-0.1-0.3,0.1-0.4l2.5-1.8c-0.1,0-0.1,0-0.2,0
			c-0.6,0-1.3,0.2-1.8,0.6c-0.4,0.3-0.7,0.8-0.8,1.2c0,0.4,0.3,0.6,0.8,0.8l0.1,0c0.9,0.6,2,0.9,3.2,0.8c0,0-0.1-0.1-0.1-0.1
			l-0.2-2.7c0-0.1,0.1-0.3,0.2-0.3c0.1,0,0.3,0.1,0.3,0.2l0.2,2.7c0,0.1,0,0.1,0,0.1c0.3,0,0.6-0.1,0.8-0.2c0.2-0.1,0.4-0.2,0.6-0.2
			l0,0c0.5-0.3,1.1-0.6,1.4-1.1c0,0,0,0,0,0L432.1,337.5z"/>
		<path fill="#F8D80E" d="M430.6,329.9C430.6,329.9,430.6,329.9,430.6,329.9c-0.8-0.6-1.6-1.1-2.4-1.6l-0.3,3.4c0,0.1,0,0.1-0.1,0.2
			l0.3,0.2c0.6,0.4,1.1,0.8,1.6,1.2L430.6,329.9z"/>
		<path d="M418.9,327.2c2,1,3.9,2.1,5.9,3.3c0.6,0.4,1.2,0.7,1.8,1.1c0.2,0.1,0.5,0.3,0.7,0.4l0.1,0.1l0.4,0.3c0,0,0,0,0.1,0
			c0.1,0.1,0.2,0.2,0.3,0.2c0.8,0.5,1.6,1.1,2.4,1.7c0.2,0,0.5,0,0.7,0l0,0c-0.4-0.3-0.7-0.6-1.1-0.9c0,0.1-0.1,0.1-0.2,0.1
			c0,0,0,0-0.1,0c-0.1,0-0.2-0.2-0.2-0.3l0-0.1c-0.5-0.4-1.1-0.8-1.6-1.2l-0.3-0.2c0,0-0.1,0.1-0.2,0.1c0,0,0,0,0,0
			c-0.1,0-0.3-0.1-0.2-0.3l0-0.1c-0.8-0.5-1.6-1-2.4-1.5c0,0.1-0.1,0.2-0.2,0.2c-0.1,0-0.3-0.1-0.3-0.3v-0.2
			c-0.9-0.6-1.9-1.1-2.8-1.6c0,0.1-0.1,0.1-0.2,0.1c-0.1,0-0.3-0.1-0.3-0.3V328c-1-0.6-2-1.1-3.1-1.6c0,0-0.1,0-0.1-0.1
			c-0.9-0.5-1.9-0.9-2.8-1.3v0.5c0.9,0.4,1.7,0.8,2.6,1.2C418.2,326.8,418.5,327,418.9,327.2z"/>
		<path d="M432,340.5c0,0.1-0.1,0.1-0.2,0.2c0,0,0,0,0,0c-0.1,0-0.1,0-0.2-0.1c-1.1,0.1-2.3-0.2-3.2-0.8l-0.1,0
			c-0.5-0.2-0.8-0.4-0.8-0.8c-0.1,0.2-0.1,0.4-0.1,0.6c0,0,0,0.1,0,0.1c0.2,0.2,0.4,0.3,0.7,0.5c0.9,0.6,1.9,0.9,3,0.9
			c0.6,0,1.1-0.1,1.7-0.2c0.1,0,0.1-0.1,0.2-0.1v-0.4l0.2-0.1c-0.2,0.1-0.4,0.2-0.6,0.2C432.5,340.4,432.2,340.5,432,340.5z"/>
		<path d="M418.2,322.6c0.1,0,0.3,0.1,0.3,0.3v0c1,0.5,1.9,0.9,2.9,1.5c0,0,0,0,0.1,0c0.1,0,0.2,0.1,0.2,0.2c0.9,0.5,1.9,1,2.9,1.6
			c0,0,0.1-0.1,0.2-0.1c0.1,0,0.3,0.1,0.3,0.3v0c0.8,0.4,1.6,0.9,2.4,1.4l0.4,0.3c0.1-0.1,0.1-0.1,0.2-0.1c0.1,0,0.3,0.1,0.2,0.3
			l0,0.1c0.8,0.5,1.6,1,2.4,1.6c0.1-0.1,0.2-0.2,0.3-0.1c0.1,0,0.2,0.2,0.2,0.3l0,0.1c0.9,0.6,1.8,1.3,2.6,2.1l0-0.1
			c0.1-0.1,0.3-0.1,0.4-0.1c0.1,0.1,0.1,0.3,0.1,0.4l-0.1,0.1c0.3,0.3,0.7,0.7,1,1c0.6,0.6,0.8,1.3,0.9,2.1c0,0,0.1,0.1,0.1,0.1
			c0,0.1,0,0.1-0.1,0.2c0,0.7-0.2,1.3-0.4,1.9c-0.1,0.1-0.1,0.3-0.2,0.4l0.2,0.3c0,0,0,0.1,0,0.1c0.1-0.2,0.3-0.4,0.3-0.6
			c0.6-1.3,0.7-3.4-0.6-4.7c-0.3-0.4-0.6-0.7-1-1c-0.1-0.1-0.2-0.2-0.3-0.3c-0.8-0.8-1.7-1.4-2.6-2.1c-0.1-0.1-0.2-0.2-0.3-0.2
			c-1-0.7-2-1.3-2.9-1.9l-0.6-0.4c-0.1-0.1-0.2-0.1-0.4-0.2c-0.3-0.2-0.6-0.4-0.9-0.5c-0.4-0.2-0.7-0.4-1.1-0.6c-3.5-2-6.8-3.7-10-5
			v0.4c0.9,0.4,1.9,0.8,2.8,1.3C418.1,322.7,418.2,322.6,418.2,322.6z"/>
		<path d="M430.4,337.1C430.4,337.1,430.4,337.1,430.4,337.1L430.4,337.1l-0.1,0c-0.1,0-0.1,0-0.2,0
			C430.2,337.1,430.3,337.1,430.4,337.1L430.4,337.1z"/>
		<path d="M430.9,337.3C430.9,337.3,430.9,337.3,430.9,337.3l0.1,0c0.3,0.1,0.5,0.1,0.8,0c-0.2,0-0.5-0.1-0.6-0.1
			c-0.1,0-0.2-0.1-0.3-0.1c0,0,0,0,0,0C430.9,337.2,430.9,337.2,430.9,337.3z"/>
		<path d="M427.9,331.7l0.3-3.4l0-0.1c0-0.1-0.1-0.3-0.2-0.3c-0.1,0-0.1,0-0.2,0.1c0,0-0.1,0.1-0.1,0.2l-0.3,3.4l0,0.1
			c0,0.1,0.1,0.3,0.2,0.3c0,0,0,0,0,0c0.1,0,0.1,0,0.2-0.1C427.9,331.8,427.9,331.8,427.9,331.7z"/>
		<path d="M431.1,330.2l0-0.1c0-0.1,0-0.3-0.2-0.3c-0.1,0-0.2,0-0.3,0.1c0,0,0,0,0,0l-0.9,3.3l0,0.1c0,0.1,0,0.3,0.2,0.3
			c0,0,0,0,0.1,0c0.1,0,0.2-0.1,0.2-0.1c0,0,0,0,0.1-0.1L431.1,330.2z"/>
		<path d="M434.1,332.6l0.1-0.1c0.1-0.1,0.1-0.3-0.1-0.4c-0.1-0.1-0.3-0.1-0.4,0.1l0,0.1l-1.8,2.6c0,0,0,0,0,0
			c0.1,0.1,0.2,0.2,0.4,0.3c0,0,0.1,0,0.1-0.1L434.1,332.6z"/>
		<path d="M432.4,337.1c-0.1,0.1-0.3,0.2-0.4,0.2c0,0.1,0,0.2,0.1,0.2l2.7,1.5c0,0,0,0,0,0c0.1-0.1,0.2-0.2,0.3-0.4l0,0
			c0,0,0-0.1-0.1-0.1L432.4,337.1z"/>
		<path d="M435.8,336.2c0.1,0,0.1,0,0.2-0.1c0-0.1,0.1-0.1,0.1-0.2c0-0.1,0-0.1-0.1-0.1c-0.1-0.1-0.1-0.1-0.2-0.1l-3,0.3
			c0.1,0.2,0.1,0.3,0,0.5L435.8,336.2z"/>
		<path d="M431.7,340.7C431.7,340.7,431.8,340.7,431.7,340.7c0.1,0,0.2-0.1,0.2-0.2c0,0,0-0.1,0-0.1l-0.2-2.7c0-0.1-0.1-0.3-0.3-0.2
			c-0.1,0-0.3,0.1-0.2,0.3l0.2,2.7c0,0.1,0,0.1,0.1,0.1C431.6,340.6,431.7,340.7,431.7,340.7z"/>
		<path d="M427.9,338.9c-0.1,0.1-0.1,0.3-0.1,0.4c0.1,0.1,0.1,0.1,0.2,0.1c0.1,0,0.1,0,0.2-0.1l2.6-1.9c0.1,0,0.1-0.1,0.1-0.2
			c0-0.1,0-0.1,0-0.2c0,0,0,0,0,0c-0.1,0-0.3-0.1-0.4,0l-0.1,0.1L427.9,338.9z"/>
		<path d="M418.5,326.1v-3.2v0c0-0.1-0.1-0.3-0.3-0.3c-0.1,0-0.1,0-0.2,0.1c-0.1,0-0.1,0.1-0.1,0.2v3.2c0,0.1,0,0.1,0.1,0.2
			c0,0,0.1,0.1,0.1,0.1c0,0,0,0,0.1,0C418.4,326.4,418.5,326.3,418.5,326.1z"/>
		<path d="M425,326.4L425,326.4c0-0.2-0.1-0.3-0.3-0.3c-0.1,0-0.1,0-0.2,0.1c-0.1,0-0.1,0.1-0.1,0.2v3.5v0.2c0,0.1,0.1,0.3,0.3,0.3
			c0.1,0,0.2-0.1,0.2-0.2c0,0,0-0.1,0-0.1V326.4z"/>
		<path d="M421.8,324.6C421.8,324.6,421.8,324.6,421.8,324.6c-0.1-0.2-0.1-0.3-0.3-0.3c0,0-0.1,0-0.1,0c-0.1,0-0.2,0.1-0.2,0.2v3.3
			v0.1c0,0.1,0.1,0.3,0.3,0.3c0.1,0,0.2-0.1,0.2-0.1c0,0,0.1-0.1,0.1-0.1V324.6z"/>
		<polygon fill="#F8D80E" points="421.6,412.2 421.6,416.4 415.6,416.4 416.3,417.2 426.7,417.2 426.7,412.2 		"/>
		<polygon fill="#F8D80E" points="414,404.3 421.6,404.3 421.6,408.5 426.7,408.5 426.7,400.7 409.5,400.7 409.3,401.3 409.3,408.3
			409.4,408.5 414,408.5 		"/>
		<polygon fill="#F8D80E" points="412.2,412.2 413.6,414 414,414.4 414,412.2 		"/>
		<polygon points="411.8,411.7 412.2,412.2 414,412.2 414,414.4 414.5,415.1 414.5,411.7 		"/>
		<polygon points="414.5,404.9 421.1,404.9 421.1,409.1 426.7,409.1 426.7,408.5 421.6,408.5 421.6,404.3 414,404.3 414,408.5
			409.4,408.5 409.8,409.1 414.5,409.1 		"/>
		<polygon points="421.6,412.2 426.7,412.2 426.7,411.7 421.1,411.7 421.1,415.9 415.1,415.9 415.6,416.4 421.6,416.4 		"/>
		<polygon points="426.7,400.2 409.7,400.2 409.5,400.7 426.7,400.7 		"/>
		<polygon points="408.7,402.5 408.7,407.6 409.3,408.3 409.3,401.3 		"/>
		<polygon fill="#F8D80E" points="429.5,368 427.2,366.7 427.2,370.2 431.9,370.2 431.9,366.7 		"/>
		<polygon points="426.7,366.4 426.7,370.2 427.2,370.2 427.2,366.7 		"/>
		<polygon points="431.9,366.7 431.9,370.2 432.4,370.2 432.4,366.4 		"/>
		<polygon fill="#F8D80E" points="427.2,370.7 427.2,417.2 431.9,420.1 431.9,370.7 		"/>
		<polygon points="431.9,370.2 427.2,370.2 426.7,370.2 426.7,400.2 426.7,400.7 426.7,408.5 426.7,409.1 426.7,411.7 426.7,412.2
			426.7,417.2 427.1,417.2 427.2,417.2 427.2,370.7 431.9,370.7 431.9,420.1 432,420.2 432.4,420.4 432.4,370.2 		"/>
		<path fill="#F8D80E" d="M427.4,347.5c0,1.2,0,2.4,0,3.6c0,0.1,0,0.2,0,0.2l2.1-1.2l3.5,2l0,0l2,1.2l6.1,3.5l-11.6,6.7l-11.6-6.7
			l7-4.1c-0.1-0.3-0.2-0.7-0.2-1c0-0.9,0-1.8,0-2.7l-10,5.8h-2.7v4.1h2.7l14.7,8.5l14.7-8.5h2.7v-4.1h-2.7l-8.5-4.9v0l-2.6-1.5v0
			l-3.6-2.1L427.4,347.5z"/>
		<path d="M435.7,349.9l8.5,4.9h2.7v4.1h-2.7l-14.7,8.5l-14.7-8.5h-2.7v-4.1h2.7l10-5.8c0-0.2,0-0.4,0-0.6l-10.1,5.9h-3.1v5.2h3.1
			l12,7l0.5,0.3l2.3,1.3l2.3-1.3l0.5-0.3l12-7h3.1v-5.2h-3.1l-8.6-5c0,0.1,0,0.1,0,0.2L435.7,349.9z"/>
		<path d="M427.4,346.9c0,0.2,0,0.4,0,0.6l2.1-1.2l3.6,2.1v-0.6l-3.6-2.1L427.4,346.9z"/>
		<path d="M429.5,363.6l11.6-6.7l-6.1-3.5l0.2,0.1l-0.1,0.2c0,0.1-0.1,0.2-0.1,0.3l5,2.9l-10.5,6.1l-10.5-6.1l6.1-3.6
			c-0.1-0.2-0.1-0.3-0.2-0.5l-7,4.1L429.5,363.6z"/>
		<path d="M427.4,351.3c0,0.2,0,0.4,0.1,0.6l2-1.2l3.3,1.9c0-0.1,0.1-0.1,0.1-0.2l0.1-0.3l-3.5-2L427.4,351.3z"/>
		<path fill="#F8D80E" d="M433.7,340.5L433.7,340.5l0,7.5l1.5,0.9c0-1.1,0-2.2,0-3.4c0-2,0-4.1,0-6.1
			C434.7,339.9,434.2,340.3,433.7,340.5z"/>
		<path fill="#F8D80E" d="M425.4,351.7c0.1,2.4,2.2,4.5,4.6,4.5c1.9,0.2,3.8-0.9,4.6-2.5l-1.3-0.8c-0.6,1.2-1.9,1.9-3.2,1.7
			c-0.8,0-1.6-0.3-2.3-1c-0.7-0.7-1-1.7-0.9-2.6c0-1.5,0-2.9,0-4.4c0-2.3,0-4.8,0-7.1c0-0.8,0.5-1.6,1.1-2.2
			c0.7-0.6,1.5-0.8,2.3-0.8c0.3-0.1,0.7,0,1,0.1c0.5,0.2,0.7,0.2,0.8,0c0.4-0.5,0-0.9-0.7-1.5l-0.1-0.1c-0.3,0-0.7,0-1.1,0
			c-0.2,0-0.5,0-0.7,0c-2.3,0.3-4.1,2.6-4,5c0,1.5,0,3,0,4.4C425.3,346.8,425.3,349.3,425.4,351.7z"/>
		<path d="M435.7,339.4c0-0.1,0-0.1,0-0.2c0-0.1,0-0.2,0-0.3c0-0.1,0-0.1-0.1-0.2c0,0,0-0.1,0-0.1l-0.2-0.3l0-0.1l-0.2,0.4l0,0
			c-0.1,0.1-0.2,0.3-0.3,0.4c-0.4,0.4-0.9,0.8-1.4,1.1l0,0l-0.2,0.1v0.4v1.6v5.5v0.6v0l2.6,1.5v0l0-0.5c0-0.1,0-0.1,0-0.2
			c0-1.2,0-2.5,0-3.7c0-1.1,0-2.2,0-3.4C435.7,341.3,435.7,340.3,435.7,339.4C435.7,339.4,435.7,339.4,435.7,339.4z M435.2,345.6
			c0,1.1,0,2.2,0,3.4l-1.5-0.9v-7.5l0,0c0.5-0.3,1.1-0.6,1.5-1.1C435.2,341.5,435.2,343.5,435.2,345.6z"/>
		<path d="M424.8,349c0,0.9,0,1.8,0,2.7c0,0.4,0.1,0.7,0.2,1c0,0.2,0.1,0.3,0.2,0.5c0.8,2,2.7,3.4,4.7,3.5c0.2,0,0.3,0,0.5,0
			c1.9,0,3.7-1.1,4.7-2.8c0-0.1,0.1-0.2,0.1-0.3l0.1-0.2l-0.2-0.1l-2-1.2l0,0l-0.1,0.3c0,0.1-0.1,0.2-0.1,0.2
			c-0.5,1-1.6,1.6-2.7,1.4c-0.7,0-1.4-0.3-1.9-0.8c-0.4-0.4-0.6-0.8-0.7-1.3c0-0.2-0.1-0.4-0.1-0.6c0-0.1,0-0.2,0-0.2
			c0-1.2,0-2.4,0-3.6c0-0.2,0-0.4,0-0.6c0-0.1,0-0.1,0-0.2c0-1.5,0-3,0-4.5c0-0.9,0-1.7,0-2.5c0,0,0-0.1,0-0.1
			c0-0.2,0.1-0.4,0.1-0.6c0.1-0.5,0.4-0.9,0.8-1.2c0.5-0.4,1.1-0.7,1.8-0.6c0.1,0,0.1,0,0.2,0l0.1,0l0.1,0c0,0,0,0,0,0
			c0.1,0,0.2,0,0.4,0c0.1,0,0.2,0.1,0.3,0.1c0.2,0.1,0.4,0.1,0.6,0.1c0.1,0,0.1,0,0.2,0c0.2,0,0.3-0.1,0.4-0.2
			c0-0.1,0.1-0.1,0.1-0.2c0.1-0.2,0.2-0.3,0.2-0.5c0-0.2,0-0.4,0-0.5c-0.1-0.3-0.3-0.5-0.5-0.7c-0.1-0.1-0.2-0.2-0.4-0.3
			c-0.1-0.1-0.2-0.1-0.2-0.2l-0.2-0.2l-0.1,0l0,0c-0.2,0-0.4,0-0.7,0c-0.2,0-0.4,0-0.6,0c-0.2,0-0.5,0-0.7,0l0,0l0,0
			c-1.1,0.2-2.1,0.7-2.9,1.5c-0.1,0.1-0.2,0.2-0.4,0.4c-0.6,0.7-1,1.6-1.2,2.6c0,0.2,0,0.4-0.1,0.5c0,0.2,0,0.4,0,0.6
			c0,0.7,0,1.4,0,2.2c0,0.7,0,1.5,0,2.2c0,1.3,0,2.6,0,4C424.8,348.6,424.8,348.8,424.8,349z M425.3,344.4c0-1.5,0-2.9,0-4.4
			c-0.1-2.4,1.7-4.7,4-5c0.2,0,0.5,0,0.7,0c0.4,0,0.7,0,1.1,0l0.1,0.1c0.8,0.6,1.1,1,0.7,1.5c-0.1,0.2-0.2,0.2-0.8,0
			c-0.3-0.1-0.6-0.2-1-0.1c-0.8-0.1-1.6,0.2-2.3,0.8c-0.7,0.6-1.1,1.4-1.1,2.2c0,2.4,0,4.8,0,7.1c0,1.5,0,3,0,4.4
			c-0.1,0.9,0.3,1.9,0.9,2.6c0.6,0.7,1.4,1,2.3,1c1.3,0.2,2.7-0.6,3.2-1.7l1.3,0.8c-0.9,1.6-2.8,2.7-4.6,2.5c-2.4,0-4.5-2.1-4.6-4.5
			C425.3,349.3,425.3,346.8,425.3,344.4z"/>
		<rect x="420.2" y="212.5" width="2.5" height="11.1"/>
		<path d="M430,229.1c-6.3,0-8,4.6-8,7.3v13.4v0.6v5.4h16v-5.4v-0.6v-13.4C438,233.7,436.3,229.1,430,229.1z"/>
		<rect x="437.3" y="212.5" width="2.5" height="11.1"/>
		<rect x="428.8" y="209.3" width="2.5" height="15.3"/>
		<path fill="#DA000C" d="M412.4,204.1v45.7h9.1v-13.4c0-2.9,1.8-7.8,8.5-7.8c6.7,0,8.5,4.9,8.5,7.8v13.4h9.1v-45.7H412.4z
			 M423.2,224h-3.6v-12.1h3.6V224z M431.8,225.2h-3.5v-16.4h3.5V225.2z M440.3,224h-3.6v-12.1h3.6V224z"/>
		<polygon points="412.4,249.9 412.4,204.1 447.7,204.1 447.7,249.9 448.2,249.9 448.2,204.1 411.8,204.1 411.8,249.9 		"/>
		<path d="M430,228.6c-6.7,0-8.5,4.9-8.5,7.8v13.4h0.5v-13.4c0-2.7,1.7-7.3,8-7.3c6.3,0,8,4.6,8,7.3v13.4h0.5v-13.4
			C438.5,233.5,436.7,228.6,430,228.6z"/>
		<path d="M428.2,225.2h3.5v-16.4h-3.5V225.2z M428.8,209.3h2.5v15.3h-2.5V209.3z"/>
		<path d="M436.8,224h3.6v-12.1h-3.6V224z M437.3,212.5h2.5v11.1h-2.5V212.5z"/>
		<path d="M419.7,224h3.6v-12.1h-3.6V224z M420.2,212.5h2.5v11.1h-2.5V212.5z"/>
		<rect x="409.1" y="197.5" fill="#DA000C" width="41.9" height="6.1"/>
		<polygon points="448.2,204.1 451.5,204.1 451.5,197.5 450.9,197.5 450.9,203.5 409.1,203.5 409.1,197.5 408.5,197.5 408.5,204.1
			411.8,204.1 		"/>
		<polygon fill="#DA000C" points="451.5,197 454.9,197 454.9,189.8 449.1,189.8 449.1,194 441.5,194 441.5,189.8 433.8,189.8
			433.8,194 426.2,194 426.2,189.8 418.6,189.8 418.6,194 410.9,194 410.9,189.8 407.3,189.8 407.3,190.3 407.4,194.8 406.1,197
			408.5,197 		"/>
		<polygon points="409.1,197.5 450.9,197.5 451.5,197.5 455.5,197.5 455.5,189.3 448.6,189.3 448.6,193.5 442,193.5 442,189.3
			433.3,189.3 433.3,193.5 426.7,193.5 426.7,189.3 418,189.3 418,193.5 411.4,193.5 411.4,189.3 407.3,189.3 407.3,189.8
			410.9,189.8 410.9,194 418.6,194 418.6,189.8 426.2,189.8 426.2,194 433.8,194 433.8,189.8 441.5,189.8 441.5,194 449.1,194
			449.1,189.8 454.9,189.8 454.9,197 451.5,197 408.5,197 406.1,197 405.8,197.5 408.5,197.5 		"/>
		<polygon fill="#DA000C" points="403.8,265.9 395.7,265.9 395.7,270.2 401.6,270.2 454.3,270.2 454.3,265.9 		"/>
		<path d="M401.6,270.2h-5.9v-4.2h-0.5v4.8h6.2v-0.3C401.4,270.3,401.5,270.2,401.6,270.2z"/>
		<polygon fill="#DA000C" points="450.6,250.4 438.5,250.4 438.5,256.4 421.5,256.4 421.5,250.4 409.4,250.4 409.4,256.4
			399.4,256.4 399.4,250.4 398.9,250.4 392.9,250.4 392.9,265.4 394.2,265.4 395.2,265.4 404.3,265.4 454.3,265.4 454.3,257.5
			455.4,256.4 450.6,256.4 		"/>
		<polygon points="451.2,249.9 448.2,249.9 447.7,249.9 438.5,249.9 438,249.9 438,250.4 438,255.9 422,255.9 422,250.4 422,249.9
			421.5,249.9 412.4,249.9 411.8,249.9 408.9,249.9 408.9,255.9 400,255.9 400,249.9 398.9,249.9 398.4,249.9 392.9,249.9
			392.4,249.9 392.4,249.9 392.4,255.9 392.4,256.4 392.4,260.7 392.4,261.3 392.4,265.4 392.4,265.9 394.8,265.9 395.2,265.9
			395.7,265.9 403.8,265.9 454.3,265.9 454.3,265.4 404.3,265.4 395.2,265.4 394.2,265.4 392.9,265.4 392.9,250.4 398.9,250.4
			399.4,250.4 399.4,256.4 409.4,256.4 409.4,250.4 421.5,250.4 421.5,256.4 438.5,256.4 438.5,250.4 450.6,250.4 450.6,256.4
			455.4,256.4 456,255.9 451.2,255.9 		"/>
		<path fill="#DA000C" d="M401.9,270.7v55.9h12.8v-20.9c0-9.2,5.9-14.9,15.3-14.9c7.1,0,15.3,3.9,15.3,14.9v20.9h12.8l0-1.3
			l-3.8-4.6v-50H401.9z"/>
		<path d="M401.6,270.2c-0.1,0-0.3,0.1-0.3,0.3v0.3v52.9v0.5v0v2.6v0.2c0,0.1,0.1,0.3,0.3,0.3H415c0.1,0,0.3-0.1,0.3-0.3v-0.2v-1.2
			V325v-3.5V321v-15.2c0-7.3,3.7-12.3,10-13.8c1.4-0.4,3-0.5,4.7-0.5c6.8,0,14.8,3.8,14.8,14.4V321v0.5v3.7v0.5v1.1v0.2
			c0,0.1,0.1,0.3,0.3,0.3h13l0-0.5h-12.8v-20.9c0-11-8.2-14.9-15.3-14.9c-9.4,0-15.3,5.7-15.3,14.9v20.9h-12.8v-55.9h52.4v-0.5
			H401.6z"/>
	</g>
	<polygon fill="none" stroke="#999999" stroke-width="0.25" stroke-linecap="round" stroke-linejoin="round" points="461.7,203.7
		461.7,182.2 461.7,182.2 436.6,171.8 402.2,172.9 407.2,185.8 407.3,190.3 407.4,194.8 398.3,210.4 394.5,210.5 378.3,235.4
		378.3,248.8 381.8,253.5 378.2,257.8 378.2,271.2 383.7,273.4 387.3,269.1 392.6,275.7 387.3,282.6 382.2,284.8 382.4,289.5
		384.1,290.6 389.1,293.6 391.4,309.7 392.7,320.9 385.6,325.5 385.5,334.2 396.4,352.2 410.7,378.9 410.9,382.4 411,394.3
		411,397.1 407.4,405.8 413.6,414 416.3,417.2 427.1,417.2 432,420.2 434.6,421.8 440.1,414.2 443.4,392.6 447.5,382.9 450.8,374.8
		450.8,356.7 453.3,352.1 457.8,343.5 458.1,325.4 454.3,320.8 454.3,257.5 458.2,253.5 458.2,244.6 458.1,221.9 461.7,217.3 	"/>
</g>

</svg>
