<?xml version="1.0" encoding="utf-8"?>

<svg version="1.2" baseProfile="tiny" xmlns="http://www.w3.org/2000/svg" xmlns:xlink="http://www.w3.org/1999/xlink" x="0px"
	 y="0px" viewBox="172.3 233.6 495.6 127" xml:space="preserve">

<g id="The_Gambia">
	<g>
		<polygon fill="#CE1126" points="548.7,263.7 541.6,260.4 534.9,259.9 528.2,261.7 518.1,267.3 516.1,268 513.7,267.1 507,263.1
			505.8,261.8 502.7,250.9 501.2,247.8 499.1,244.9 493.3,240.2 487.3,238.2 470.7,237.4 460.8,233.7 457.3,233.6 445.3,238
			432.9,245.9 429.4,246.7 428,245.7 424.8,241.5 423.3,240 416.2,238.9 408.5,241.8 401.6,246.8 396.4,252.4 394.6,255.2
			392.9,258.8 391.6,262.4 391,265.9 390.9,268.8 553.9,268.8 551.9,266.3 		"/>
		<polygon fill="#FFFFFF" points="234.9,327.1 233.2,326.3 231.9,325.1 229.8,323.8 227.4,323.1 219.1,322.8 217.7,321.8 214,317.5
			173.5,317.5 173.9,318.4 174.5,319.3 173.2,322 173.9,324.2 176.5,327.2 235.6,327.2 		"/>
		<polygon fill="#FFFFFF" points="548.7,318.6 550.8,319.9 553.2,320.5 558.4,320.7 560.6,321.4 562.4,323.2 563.7,324.9
			565.3,326.4 566.5,327.2 613.6,327.2 616.3,325.1 618.8,324 621.6,324.1 628.7,321.5 635.3,321.5 642,319.7 654.4,318.6
			657,317.5 547.5,317.5 		"/>
		<polygon fill="#FFFFFF" points="390.7,272.6 388.1,273.4 380,273.4 369.8,273.4 359.6,273.4 349.4,273.3 339.2,273.3 328.9,273.2
			318.7,273.2 308.5,273.1 298.2,273.1 288,273.1 277.8,273 267.6,273 257.4,273 247.1,272.9 236.9,272.9 226.7,272.8 216.5,272.8
			217.6,274.5 218.5,276.7 218.6,278.5 442.4,278.5 447,273.8 450.7,272.3 455.3,275.2 458.8,278.5 557.6,278.5 555.7,272.3
			554.1,269.1 553.9,268.8 390.9,268.8 		"/>
		<polygon fill="#FFFFFF" points="271,325.5 271.7,321.7 271,318.4 268.2,317.5 264.5,317.5 263.1,317.8 257.1,321.9 254,322.8
			251.3,324.1 249.1,326.4 247.2,327.1 245.6,323.8 243.6,324.8 241.3,325.1 236.5,325 236.5,326.2 238.7,326 240.5,326.6
			241,327.2 271.2,327.2 		"/>
		<polygon fill="#FFFFFF" points="272.3,317.8 273.2,318.2 274.2,318.9 274.5,320.5 274.6,322.4 275.4,327 275.6,327.2 277.1,327.2
			277.7,326.8 279,325.5 280.5,324.6 282.2,324 284,323.8 284,325 280,327.2 337.8,327.2 338,317.8 338.1,317.5 272.2,317.5 		"/>
		<polygon fill="#FFFFFF" points="651.5,278.2 647.6,276.2 643.4,274.7 639.9,274.1 637.7,274.5 634.4,276.4 632.4,277.3
			630.7,277.6 627.8,277.3 626.1,277.4 622.7,278.2 622.1,278.5 652,278.5 		"/>
		<polygon fill="#0C1C8C" points="462.7,282.1 470.8,288.1 470.9,288.1 470.9,288.1 470.9,288.1 481.7,293.6 487.3,295.1
			493.6,295.6 496,296.3 501.5,299.7 504.6,300.7 507.9,301.3 509.7,302.4 513,307 517.6,311.2 523.1,313.5 529.1,314.2
			535.2,313.5 540.6,312.1 542.4,312.8 547.5,317.5 657,317.5 662.5,315 667.2,307.9 667.9,299.3 663.9,291.3 662.3,290
			658.5,287.8 657,286.5 656.2,285.1 655.1,281.9 654.3,280.4 652,278.5 622.1,278.5 615.1,282.1 605.6,284.2 602.5,285.6
			593.4,291.3 583.7,294.8 580.9,295.5 577.9,295.1 573.9,293.2 560.6,283.7 559,281.9 557.9,279.6 557.6,278.5 458.8,278.5 		"/>
		<polygon fill="#0C1C8C" points="218.7,279.4 217.3,286.5 217.3,289.9 217.6,290.5 219.3,291.5 220.3,293.4 223.3,295.6 224,296.8
			224.4,298.1 226,301.4 226.4,303.8 226,305.5 224,309.7 223,311.2 228.3,311.5 241.1,314.6 244.6,314.9 250.3,314.7 255.9,313.9
			259.2,312.2 258.4,311.9 257.6,311.4 256.8,311.2 256.8,310.1 257.5,309.8 259.2,309 258.2,307.1 258.5,305.7 261.3,303.1
			262,305 261.7,307 261.2,308.8 261.3,310.1 262.7,311 264,310.6 265.2,309.5 266.4,309 268,307.8 274.9,300.9 279.5,297.4
			282.5,295.8 285.6,295.1 288.8,295.6 294,297.5 346.8,293.4 352.7,291.6 359.9,287.6 362.9,287 365.8,287.3 370.2,289.4
			373,289.2 374.6,288.2 377.1,284.9 378.7,283.6 382,282.7 384.1,283.2 386,284.1 388.3,284.7 389,285 390,285.8 391.2,286.6
			392.7,287 394.1,286.6 395.5,286 396.9,285.8 398.4,286.5 402.4,290 405.1,292 407.4,292.8 410,293.2 415.6,294.8 418.7,295.1
			420.5,294.5 422.3,292.9 423.5,290.6 423.8,288.1 425,288.1 423.3,295 417.4,297.4 410.2,297 404.6,295.1 402.8,293.4 401.3,291
			399.3,289 396.1,288.1 394.6,288.5 392.9,289.2 391.1,289.5 389.4,288.7 388,287.6 386.1,286.5 384.1,285.9 382.1,285.9
			380.5,287 377.9,291.2 376.5,292.8 374.6,294.1 373,294.8 371.3,295.1 369,295.1 367.4,294.5 365,292.1 363.4,291.6 361.9,292
			358.8,294.2 357.3,295.1 347.7,298.1 344.3,298.4 333.7,297.2 330.1,297.4 329.6,297.7 328.9,298.4 328,299.2 326.8,299.7
			325.3,300 324.4,299.9 323.5,299.8 321.7,299.7 318.6,300 309.8,302.1 286.7,300.9 284,299.8 282.4,299.5 281.6,300.3 281.1,302
			279.9,303.4 273.3,308.9 271.9,311 271.4,314.1 271.5,315.5 271.8,316.8 272.2,317.5 338.1,317.5 338.6,315.5 340.5,314.3
			352,313.3 359.4,310.9 361.5,310.9 372.6,312 375.3,311.7 380.2,310.1 384,308 387.9,306.5 393,306.7 411,310.6 417,310.6
			422.4,309.6 427.8,307.5 432.5,304.4 435.9,300 436.9,295.4 437.5,284.9 439.8,281.2 442.4,278.5 218.6,278.5 		"/>
		<polygon fill="#0C1C8C" points="266.4,316.9 264.5,317.5 268.2,317.5 		"/>
		<polygon fill="#0C1C8C" points="211.6,314.6 212,311.8 210.9,306.8 208.7,302 206.1,299.7 208,297.7 210.8,297.5 212.5,297
			211.6,293.9 209.9,292.1 207.4,291.2 204.4,291.3 201.5,292.8 199.8,292 198.4,291 197.5,289.8 197.1,288.1 192.9,291.6
			183.3,303.4 181.4,304.9 179.3,306.1 177.3,306.6 175.6,307.7 173.8,312.8 172.3,314.6 173.5,317.5 214,317.5 		"/>
		<polygon fill="#3A7728" points="276.1,327.9 277.1,327.2 275.6,327.2 		"/>
		<polygon fill="#3A7728" points="567,327.5 573,330.6 577.3,331.8 581.8,332.2 591.1,331.4 600.1,333.1 604.8,332.9 608.4,331.1
			613.6,327.2 566.5,327.2 		"/>
		<polygon fill="#3A7728" points="278.4,328.1 274.4,329.3 271.4,328.5 271.2,327.2 241,327.2 241.7,328 242.1,330.2 242.7,330.6
			245.7,333.7 246.7,335.4 244.6,333.8 243.1,333.8 239.9,336.6 240.8,334.2 240.8,331.2 239.8,328.6 238.2,327.4 235.6,327.2
			176.5,327.2 176.7,327.4 177.6,329.7 178,331.8 177.6,339.8 177.7,341.7 180.9,350 181.2,352.6 180.1,355 179.4,356.4
			179.8,357.5 182.3,358.4 184.8,360.6 185,356.7 185.6,354.8 186.6,353.4 189.2,350.8 189.7,349.3 192.2,345.2 197.9,343.9
			205.1,343.9 232.2,344.2 257.2,344.4 293.6,344.7 315.1,344.9 330.1,345.1 336.2,345.1 337.3,344.3 337.6,332.4 337.8,327.2
			280,327.2 		"/>
	</g>
	<polygon fill="none" stroke="#999999" stroke-width="0.25" stroke-linecap="round" stroke-linejoin="round" points="663.9,291.3
		662.3,290 658.5,287.8 657,286.5 656.2,285.1 655.1,281.9 654.3,280.4 651.5,278.2 647.6,276.2 643.4,274.7 639.9,274.1
		637.7,274.5 634.4,276.4 632.4,277.3 630.7,277.6 627.8,277.3 626.1,277.4 622.7,278.2 615.1,282.1 605.6,284.2 602.5,285.6
		593.4,291.3 583.7,294.8 580.9,295.5 577.9,295.1 573.9,293.2 560.6,283.7 559,281.9 557.9,279.6 555.7,272.3 554.1,269.1
		551.9,266.3 548.7,263.7 541.6,260.4 534.9,259.9 528.2,261.7 518.1,267.3 516.1,268 513.7,267.1 507,263.1 505.8,261.8
		502.7,250.9 501.2,247.8 499.1,244.9 493.3,240.2 487.3,238.2 470.7,237.4 460.8,233.7 457.3,233.6 445.3,238 432.9,245.9
		429.4,246.7 428,245.7 424.8,241.5 423.3,240 416.2,238.9 408.5,241.8 401.6,246.8 396.4,252.4 394.6,255.2 392.9,258.8
		391.6,262.4 391,265.9 390.7,272.6 388.1,273.4 380,273.4 369.8,273.4 359.6,273.4 349.4,273.3 339.2,273.3 328.9,273.2
		318.7,273.2 308.5,273.1 298.2,273.1 288,273.1 277.8,273 267.6,273 257.4,273 247.1,272.9 236.9,272.9 226.7,272.8 216.5,272.8
		217.6,274.5 218.5,276.7 218.7,279.4 217.3,286.5 217.3,289.9 217.6,290.5 219.3,291.5 220.3,293.4 223.3,295.6 224,296.8
		224.4,298.1 226,301.4 226.4,303.8 226,305.5 224,309.7 223,311.2 228.3,311.5 241.1,314.6 244.6,314.9 250.3,314.7 255.9,313.9
		259.2,312.2 258.4,311.9 257.6,311.4 256.8,311.2 256.8,310.1 257.5,309.8 259.2,309 258.2,307.1 258.5,305.7 261.3,303.1 262,305
		261.7,307 261.2,308.8 261.3,310.1 262.7,311 264,310.6 265.2,309.5 266.4,309 268,307.8 274.9,300.9 279.5,297.4 282.5,295.8
		285.6,295.1 288.8,295.6 294,297.5 346.8,293.4 352.7,291.6 359.9,287.6 362.9,287 365.8,287.3 370.2,289.4 373,289.2 374.6,288.2
		377.1,284.9 378.7,283.6 382,282.7 384.1,283.2 386,284.1 388.3,284.7 389,285 390,285.8 391.2,286.6 392.7,287 394.1,286.6
		395.5,286 396.9,285.8 398.4,286.5 402.4,290 405.1,292 407.4,292.8 410,293.2 415.6,294.8 418.7,295.1 420.5,294.5 422.3,292.9
		423.5,290.6 423.8,288.1 425,288.1 423.3,295 417.4,297.4 410.2,297 404.6,295.1 402.8,293.4 401.3,291 399.3,289 396.1,288.1
		394.6,288.5 392.9,289.2 391.1,289.5 389.4,288.7 388,287.6 386.1,286.5 384.1,285.9 382.1,285.9 380.5,287 377.9,291.2
		376.5,292.8 374.6,294.1 373,294.8 371.3,295.1 369,295.1 367.4,294.5 365,292.1 363.4,291.6 361.9,292 358.8,294.2 357.3,295.1
		347.7,298.1 344.3,298.4 333.7,297.2 330.1,297.4 329.6,297.7 328.9,298.4 328,299.2 326.8,299.7 325.3,300 324.4,299.9
		323.5,299.8 321.7,299.7 318.6,300 309.8,302.1 286.7,300.9 284,299.8 282.4,299.5 281.6,300.3 281.1,302 279.9,303.4 273.3,308.9
		271.9,311 271.4,314.1 271.5,315.5 271.8,316.8 272.3,317.8 273.2,318.2 274.2,318.9 274.5,320.5 274.6,322.4 275.4,327
		276.1,327.9 277.7,326.8 279,325.5 280.5,324.6 282.2,324 284,323.8 284,325 278.4,328.1 274.4,329.3 271.4,328.5 271,325.5
		271.7,321.7 271,318.4 266.4,316.9 263.1,317.8 257.1,321.9 254,322.8 251.3,324.1 249.1,326.4 247.2,327.1 245.6,323.8
		243.6,324.8 241.3,325.1 236.5,325 236.5,326.2 238.7,326 240.5,326.6 241.7,328 242.1,330.2 242.7,330.6 245.7,333.7 246.7,335.4
		244.6,333.8 243.1,333.8 239.9,336.6 240.8,334.2 240.8,331.2 239.8,328.6 238.2,327.4 234.9,327.1 233.2,326.3 231.9,325.1
		229.8,323.8 227.4,323.1 219.1,322.8 217.7,321.8 211.6,314.6 212,311.8 210.9,306.8 208.7,302 206.1,299.7 208,297.7 210.8,297.5
		212.5,297 211.6,293.9 209.9,292.1 207.4,291.2 204.4,291.3 201.5,292.8 199.8,292 198.4,291 197.5,289.8 197.1,288.1 192.9,291.6
		183.3,303.4 181.4,304.9 179.3,306.1 177.3,306.6 175.6,307.7 173.8,312.8 172.3,314.6 173.9,318.4 174.5,319.3 173.2,322
		173.9,324.2 176.7,327.4 177.6,329.7 178,331.8 177.6,339.8 177.7,341.7 180.9,350 181.2,352.6 180.1,355 179.4,356.4 179.8,357.5
		182.3,358.4 184.8,360.6 185,356.7 185.6,354.8 186.6,353.4 189.2,350.8 189.7,349.3 192.2,345.2 197.9,343.9 205.1,343.9
		232.2,344.2 257.2,344.4 293.6,344.7 315.1,344.9 330.1,345.1 336.2,345.1 337.3,344.3 337.6,332.4 338,317.8 338.6,315.5
		340.5,314.3 352,313.3 359.4,310.9 361.5,310.9 372.6,312 375.3,311.7 380.2,310.1 384,308 387.9,306.5 393,306.7 411,310.6
		417,310.6 422.4,309.6 427.8,307.5 432.5,304.4 435.9,300 436.9,295.4 437.5,284.9 439.8,281.2 447,273.8 450.7,272.3 455.3,275.2
		462.7,282.1 470.8,288.1 470.9,288.1 470.9,288.1 470.9,288.1 481.7,293.6 487.3,295.1 493.6,295.6 496,296.3 501.5,299.7
		504.6,300.7 507.9,301.3 509.7,302.4 513,307 517.6,311.2 523.1,313.5 529.1,314.2 535.2,313.5 540.6,312.1 542.4,312.8
		548.7,318.6 550.8,319.9 553.2,320.5 558.4,320.7 560.6,321.4 562.4,323.2 563.7,324.9 565.3,326.4 567,327.5 573,330.6
		577.3,331.8 581.8,332.2 591.1,331.4 600.1,333.1 604.8,332.9 608.4,331.1 616.3,325.1 618.8,324 621.6,324.1 628.7,321.5
		635.3,321.5 642,319.7 654.4,318.6 662.5,315 667.2,307.9 667.9,299.3 	"/>
</g>

</svg>
