<?xml version="1.0" encoding="utf-8"?>

<svg version="1.2" baseProfile="tiny" xmlns="http://www.w3.org/2000/svg" xmlns:xlink="http://www.w3.org/1999/xlink" x="0px"
	 y="0px" viewBox="252.4 172 335.2 250" xml:space="preserve">

<g id="Guinea">
	<g>
		<polygon fill="#CE1126" points="355.5,181.8 354.1,181.7 353.7,181.5 353.2,181.1 353.1,180.7 353.2,180.4 353.2,180.2
			352.1,179.2 350.3,178.3 348.7,178.3 347.9,180.2 347.8,181 347.3,181.5 346.5,181.6 345.7,181.2 344.9,181.3 344.1,181.3
			343.4,180.9 342.9,180.2 342.7,179.3 342.8,178.5 343.5,176.9 343.7,176.1 343.7,175.2 343.5,174.4 343,173.7 342.3,173.6
			341.5,173.8 340.7,173.8 339.8,173.4 339.4,173.9 339.1,173.6 338.8,173.6 338.5,173.6 338,173.6 337.5,173.8 337.3,173.8
			337.1,173.7 336.7,173.3 336.4,173.2 336.1,173.2 335.3,173.4 334.9,173.5 334.5,173.4 334,173 333.6,172.9 333.2,173
			331.8,173.2 331.6,173.3 331.5,173.5 331.4,173.6 331.1,173.6 330.9,173.5 330.5,173.2 330.3,173.1 328.1,172.5 313.5,172
			313.1,175 313.2,176.1 313.7,177.3 315.9,180.2 316.4,181.1 316.6,181.9 316.4,182.7 315.6,184.6 315.5,185 315.5,185.5
			315.6,186.9 315.6,187.4 315.2,188.3 315,189.5 314.3,190.7 312.9,191.2 309.9,191.2 310.5,190.2 309.7,189.9 308.5,190.2
			307.6,190.7 306.5,191.6 303.8,192.9 302.8,194 302.7,194.5 302.7,195.5 302.5,196 302.8,196.2 304,196.3 304.9,196.6
			305.8,197.2 306.7,198 307.1,198.3 308.4,198.8 308.6,199 308.7,199.4 308.9,199.8 309.9,200.9 310.5,201.3 311.2,201.6
			312.8,201.9 313.2,202.1 313.7,202.8 313.8,203.7 313.4,205.6 313.2,207.5 313.9,212.9 313.9,213.7 313.7,215.7 313.4,216.3
			312.7,216.8 311.6,217.2 310.5,217.4 309.6,217.3 309.3,217 309.4,216.6 309.4,216.3 308.7,216.2 308.3,215.9 308.2,215
			307.8,214.7 307.1,214.7 307,215 307.2,215.5 307.1,216.5 306.9,217 306.4,217.8 305.6,218.3 304.7,218.3 303.7,217.8
			303.3,218.1 301.4,219.3 300.5,219.6 298.6,219.3 297.9,219.3 296.5,219.5 295.9,219.6 295.1,219.4 294.7,219.1 294.3,218.8
			293.9,218.5 293.5,218.4 292.4,218.6 288.6,218.3 288.4,218.2 288.1,218.1 287.7,218.4 287.3,218.8 286.8,219.9 286.5,220.4
			285.9,220.8 277.7,225.3 275.8,225.6 272.1,225.2 270.2,225.4 269.1,226 268.3,226.9 263.8,233.4 263.1,235.2 262.2,238.8
			257.9,247.1 256.4,248.9 255.1,250.3 255.2,250.4 255.2,250.5 255.2,250.6 255.4,250.6 255.4,250.9 255.2,251.1 255,251.4
			254.9,251.7 254.8,252 254.6,252.2 253.7,252.4 253.4,252.6 252.7,253.5 252.4,254.3 252.5,255.2 252.9,256.2 253.7,257.3
			254.7,258.3 255.4,258.7 257.1,259 257.9,259.4 258.4,258.5 258.5,258.3 258.3,257.7 257.9,257.5 257.5,257.3 257.3,257
			257.3,255.4 257.2,255.2 257,254.8 257,254.5 257.1,254.4 257.3,254.3 257.5,254.4 257.6,254.5 258,254.4 258.8,253.9 259.7,253
			260.1,252.2 259.9,251.4 259.4,250.8 257.9,249.7 258.6,249.7 259.2,249.9 260.1,250.6 260.4,249.9 260.6,249.1 260.5,248.2
			259.8,247.5 260.8,247.4 261.7,250 263.1,250.3 264.4,248.6 264.6,248.1 265.1,248.2 265.3,248.8 265.1,249.7 265.5,249.7
			265.8,249.6 266,249.5 266.3,249.3 267.1,249.6 267.8,249.3 268.2,248.5 268.4,247.6 268.6,247.5 269.3,247.2 269.5,247.1
			269.9,247 270.1,246.7 270.2,246.3 270.3,245.9 270.7,246.6 270.9,246.9 271.2,247.1 270.5,247.5 269.7,248.5 268.9,248.7
			268.7,249 268.5,249.7 268.2,250.3 267.7,250.6 266.9,250.7 266.1,250.9 265.3,251.2 264.7,251.5 264.4,252.1 264.2,252.8
			264.5,253.3 265.3,253.4 264.9,253.8 264.8,254.2 264.8,254.5 265.1,255 264.8,255.4 264.7,255.8 264.7,256.3 264.7,256.8
			265.1,256.8 266.3,256.3 266.6,256 266.7,255.6 267,255.3 267.8,254.6 267.7,255.1 267.6,255.3 267.5,255.6 267.6,255.9
			267.6,256.5 267.4,257.2 267.2,257.8 266.9,258.3 266.5,259 265.9,259.4 265.3,259.4 265.4,260.4 265.9,261.1 266.5,261.6
			266.9,262.5 267.5,262 268.1,260.3 268.6,259.5 270.6,257.9 271.2,257.2 271.6,257.4 271.8,257.5 271.7,257.6 271.6,257.9
			271.4,258.3 271.1,258.5 270.4,258.9 270.2,259.2 269.7,259.9 269.3,260.7 268.8,262.5 269.4,263.1 269.7,262.9 270,262.7
			270.3,262.7 270.6,262.8 270.1,263 269.7,263.3 269.5,263.8 269.4,264.5 269.6,265.1 270.3,264.9 271.5,263.7 272.8,262.2
			273.4,261.2 274,259.7 274.6,258.5 275.3,257.4 276,256.8 276.2,256.7 277.7,255.6 277.8,254.9 277.6,254.4 277.8,254
			278.7,253.8 278.2,254.4 278,254.6 278.3,255.3 278.2,256 277.9,256.6 277.3,256.8 276.2,259 275.6,261.1 275.4,261.3 275,261.5
			274.7,261.8 274.6,262.5 274.3,262.5 273.8,262.2 273.5,262.9 272.9,265.4 272.9,266.3 273.2,266.9 274.3,266.9 273.6,267.4
			273,268.1 272.4,268.6 271.9,268.4 271.4,269.7 271.3,270.3 271.2,271.1 271.3,271.9 271.5,272.6 271.8,272.8 272.2,272.2
			272.5,272.2 272.8,272.7 273.5,272.8 274.3,272.7 274.9,272.5 275.4,272.1 275.8,271.7 276.3,271.3 277.1,271.3 276.6,271.9
			276.4,272.9 276.4,274.1 276.5,275 277,276 279.8,278.9 280.1,279.1 280.3,279.4 280.5,280 280.6,280.6 280.2,282 280.2,283
			280.4,284.2 280.8,284.6 281.7,283.7 282.3,284 282.9,284 283.6,283.8 284.2,283.7 284.9,283.9 285.3,284.1 288.1,286.6
			289.1,287.2 289.5,286.4 289.6,286.3 289.7,286.1 290,286 290.2,286.1 290.4,286.5 290.2,286.7 289.9,287 289.8,287.3 289.9,288
			290.3,288.5 290.6,288.9 290.7,289.2 291.2,289.6 292.2,289.3 293,288.5 292.9,287.5 293.6,287.5 294.3,287.3 294.9,286.9
			295,286.3 295.7,287 295,287.8 293.9,288.7 293.2,289.4 293.1,290.3 293.6,291.2 294.3,291.9 295.4,292.2 296.1,292.1
			296.7,291.8 297.1,291.3 297.2,290.8 297.1,288.7 297.2,288.1 297.5,287.9 298.8,287.3 299.2,287 300.1,286.1 300.6,285.6
			301.3,285.3 300,287.4 299.3,288.4 298.3,288.8 298.2,289 298.7,289.6 299.4,289.8 299.7,289.2 300,289.1 300.6,289.7
			301.2,290.4 301.5,291 300.3,290.1 299.2,290.8 298.5,292.1 298.6,293.3 299.3,293.9 299.8,294 300.3,294.1 301,294.4
			301.8,295.3 302.2,295.6 302.6,295.7 303.3,295.8 303.7,295.9 304.3,297 304.5,297.4 305.7,298.1 306.4,298.4 307.2,299.2
			307.8,300 308.1,300.5 308.4,300.8 309,301 309.9,301.2 310.8,301.3 311,301.3 312.6,300.7 312.8,300.5 312.7,300.3 313.3,300
			314.2,298.8 314.7,298.5 314.9,298 314.9,297.1 315.1,296.5 315.5,296.9 315.6,298.4 314.9,299.9 313,302.2 312.6,303.6
			312.7,305 313.5,306.1 315.2,306.3 316.6,305.6 317,304.6 316.9,303.3 316.4,301.9 316.7,301.7 316.8,301.6 317,301.6
			317.2,302.1 319.1,304.5 319.6,304.7 320.2,304.6 321.1,304.1 320.8,304.9 320.2,305.3 319.5,305.6 319.2,306.1 319.1,306.4
			318.5,306.6 318.3,306.9 318.2,307.2 318.3,309.8 318.2,310.5 317.5,311.6 317,312.8 316,313.8 314.6,315.9 314.3,316.1
			314,316.2 313.7,316.3 313.6,316.7 313.8,316.9 314.2,316.9 314.5,316.7 314.6,316.6 315.8,316.2 318.5,314.6 319.9,314.1
			320,315 320.5,316 321.1,316.8 321.7,317.2 322.5,317 323.1,316.1 324.1,314.1 324.5,314.1 324.4,314.9 324.2,315.6 323.8,316.2
			323.4,316.7 322.9,317.4 322.9,318.1 323.2,319.5 323.9,320.4 325.4,320.9 327.1,320.8 328.2,320 328.5,320 328.2,320.9
			327.2,322.2 326.9,323.1 327,323.9 327.3,324.8 327.7,325.5 328.2,325.9 327.8,326.6 328,326.9 328.5,327 329.5,327.5
			329.8,327.1 330.3,325 330.5,324.5 330.8,324.3 331.4,324.3 331.9,324.2 332.3,324.1 332.5,323.7 332.8,323.7 332.7,324.2
			332.7,324.6 332.8,325.6 332,325 331.7,325.8 331.8,327.1 331.9,328.1 332,328.2 332.4,328.4 332.5,328.6 332.5,328.8
			332.4,329.1 332.3,329.4 332.2,329.3 332.4,330.5 332.3,330.9 331.9,331.2 332.2,331.7 332.7,332 333.8,332.4 334.2,331.1
			334.5,329.9 334.9,328.8 335.9,327.8 335.7,328.7 335.3,329.7 335.3,330.2 335.2,330.5 334.8,330.8 334.7,331 335.3,331.5
			336.6,331.6 339.3,331.5 339.3,331.8 338.5,332 337,331.8 336.2,331.8 335.5,332.2 334.9,332.9 334.1,334.3 332.8,335.6
			332.8,335.7 332.8,335.9 332.9,336.1 332.7,336.2 332,336.1 331.9,336.2 331.7,336.9 331.9,337.4 332.3,337.8 332.8,338.1
			333.9,337.3 335.9,336.7 337,336.5 337.7,336.6 339.5,337.7 340.5,338.1 341.2,338 342.5,336.9 344.3,336.1 345.1,335.6
			345.7,334.8 346.3,333.4 346.7,332.7 347.1,332.1 347.4,332 348.1,331.9 348.3,331.9 348.2,331.5 347.6,330.7 347.4,330.3
			347.6,328.9 348.3,327.5 349.3,326.9 350.1,327.8 351.1,327.3 352,327.2 352.9,327.3 353.8,327.1 354.6,326.5 355.6,324.9
			355.6,181.8 		"/>
		<polygon fill="#FCD116" points="483.7,198.5 482.1,197.7 481.3,197.4 480.7,197.2 479.8,196.5 479.2,196.2 478.8,196.1 478,196
			477.6,195.9 477.2,195.7 476.6,195.1 476.2,194.9 475.8,194.9 474.7,194.9 473.8,194.8 472.3,194 470.8,193.7 470.5,193.4
			470.3,193.1 469.9,193 468.2,193.6 467.9,194.2 467.8,194.2 467.7,193.9 467.3,193.7 467.3,193.8 467.1,194.2 466.6,194.4
			466.2,194.5 466,194.6 466,195.3 465.3,195.1 465,194.9 464.7,194.7 464.1,195.1 462.6,196.4 462.3,196.7 461.8,197.4
			459.7,197.2 458.9,197.5 458.8,198 459.2,198.9 459,199.1 458.6,199.3 458.6,199.7 458.7,200.2 458.7,200.5 457.8,201.2
			456.9,201.6 456.4,202.2 456.7,203.2 456,203.4 455.1,203.9 454.2,204.4 453.9,204.9 453.7,205.5 453.3,206.4 452.8,207.2
			452.4,207.6 451.7,207.9 449.8,208 448.5,206.6 446.7,203.1 445.5,201.9 445.3,201.4 445.3,201 445.8,200.2 445.9,199.8
			445.6,198.5 444.8,197.9 443.7,197.4 442.7,196.6 440.9,193.8 440.1,193.2 438.9,192.9 438,192.9 436.1,193.6 435,193.5
			434.4,193.7 434.1,194.1 433.5,196.1 433,196.7 431.5,197.7 431.3,198 430.6,199.1 430.3,199.2 429.9,199.2 429.6,199.4
			429.3,200.7 428.8,201.6 428.1,202.3 427.4,202.5 426.7,202.5 425.2,203.1 424.4,203.1 423.5,202.8 422.5,202.3 421.7,201.8
			420.9,201.1 419.1,198.7 418.3,198 415.5,196.8 414.7,196 413.8,194.2 414.6,192.8 415.9,191.5 416.7,189.7 416.7,188.6
			416.4,186.8 416.6,185.8 417.3,185.4 418.4,185.4 419.2,185.3 419.2,184.4 418,184.3 415,183.3 413.5,183.1 409.6,183.4
			407.7,183.8 404.2,185.1 402.5,185.4 398.8,185.2 397.9,185 395.2,183.8 395.1,183.8 395,183.7 394.7,183.7 394.5,183.8
			394,184.2 392.3,185.1 391.7,185.2 390.7,185.1 388,184.2 386.9,184.2 386.1,184.6 384.6,186 382.9,186.9 375.3,188.9
			374.6,188.5 373.3,186.6 372.5,186 370.5,185.3 369.6,185.1 368.8,185 368,185.2 367.1,185.5 365.8,186.2 365.4,186.4
			364.8,186.3 364.6,186.2 364.6,185.8 364.3,185.4 363.1,184 362.3,183.4 361.4,183 360.5,182.9 357.6,183.1 356.7,183
			356.4,182.6 356.2,182.1 355.6,181.8 355.6,324.9 355.7,324.7 356.4,324.3 357.1,324.1 357.1,323.8 356.9,323.4 356.9,323
			357.3,322.5 357.5,322.3 358.3,321.9 358.5,321.9 358.7,322.1 358.9,322.1 359.1,321.8 359.2,321.6 359.4,321.4 359.7,321.1
			359.9,320.8 361.4,315.9 361.4,315.7 361.4,315.5 361.4,315.3 361.7,315.1 362,315 362.1,314.9 362.2,314.8 362.4,314.6
			362.7,313.1 363,312.7 363.4,312.6 363.8,312.6 364.2,312.6 364.4,312.2 364.4,310.3 364.6,310.1 365.3,308.9 365.7,308.4
			367.1,307.6 367.3,307.5 367.3,307.4 367.3,306.8 367.4,306.6 367.6,306.6 367.9,306.6 368,306.5 368,306.3 367.8,305.8
			367.8,305.6 368.4,302.3 368.4,301.8 368.3,301.5 368.4,301.2 368.6,300.8 370.3,299.8 372.3,299.1 379.1,297.7 380.1,297.7
			381,298.2 381.8,299 382.9,299.6 383.7,299.9 384.4,300.1 385.2,300.1 395.1,298 395.4,297.5 395.7,294.8 424.5,294.6
			425.6,294.7 427.1,295.2 427.8,295.2 428.3,295.7 428.6,296.7 429.2,299.7 429.5,300.2 432.9,302.3 434.8,304.1 436.3,306.1
			437.4,308.2 437.9,309.7 438.2,310.2 438.5,310.3 439.2,310.6 439.5,310.8 439.7,311.2 440,312.4 440.3,312.8 441.5,313.6
			441.9,314.1 442.1,314.5 442.3,315.7 442.6,316.1 443.1,316.4 443.4,316.7 443.4,317.3 443.2,318.4 443.3,319.2 443.8,319.9
			444.5,320.7 445.2,321.1 445.3,321.4 444.8,321.7 444.4,322.1 444.9,322.3 445.7,322.3 446,322.3 446.5,322.3 447,322.3
			447.4,322.4 447.9,323.2 448.5,323.7 449.1,324.1 449.5,324.3 451.5,326 451.5,326.6 451.3,327.1 451.1,327.6 450.9,328.2
			450.9,328.5 451.1,329.3 451,329.7 450.6,330.3 450.2,330.6 449.7,330.8 449.2,331.1 448.4,332.5 447.9,334.5 448.2,336.1
			449.9,336.6 451.7,336.6 453.5,336.7 454.6,337 455.1,337.5 455.2,338.2 454.5,340.9 454.3,342.4 454.4,345.7 454.5,346.2
			454.9,347.5 454.9,347.7 454.8,348.2 454.9,348.3 455,348.5 455.3,348.7 455.5,348.8 457.3,351.3 458,351.8 458.3,352.2
			460.2,354.8 459.8,355.8 459.2,356.7 458.4,357.3 457.3,357.3 456.4,357.5 455.6,358.3 454.8,359.2 454.1,360.5 453.4,361.2
			453.1,361.7 453,362.3 453,362.9 452.9,363.2 452.4,363.3 451.7,367.2 451.1,368.3 450.2,369.3 449.2,370.8 448.7,372.3
			449.7,373.1 450,371.6 450.9,370.6 452.2,370.2 453.7,370.3 454.3,370.6 455.6,371.4 456.1,371.5 456.9,371.2 458.5,370.1
			461.2,367.5 461.7,366.8 462.8,364.6 463.3,364 463.8,363.5 464.4,363.1 465,362.9 466.4,362.7 466.7,362.7 467.9,363.1
			468.3,363.3 468.7,363.4 469.2,363.3 469.7,363.4 470.2,363.3 471.1,362.9 471.5,363.7 472.2,363.3 473.8,361.8 474.5,361.5
			475.3,361.5 477.9,362.2 478.5,362.6 478.8,363.2 478.4,365.4 478.6,366 479.2,366.2 480.1,366 482,365 483.7,363.6 484.4,363.2
			484.4,198.7 		"/>
		<polygon fill="#009460" points="586.4,365.4 586.5,364.4 586.8,363.2 586.8,362.4 586.3,360.5 586.2,359.6 586.3,357.8 586,357
			585.7,356.6 584.5,355.8 584,355.3 582.9,353.3 582.6,352.9 581.8,352.2 581.6,351.9 581.2,351.3 580.9,351.1 580.6,351.1
			580.2,351.4 580,351.4 577.3,350.6 576.3,350.5 574.2,349.9 573.7,348.4 574.6,344.5 574.8,342.3 575,341.2 575.4,340.1
			575.4,340.1 576.1,339.4 580.1,337.3 581,337.2 581.9,337.2 583,337.1 583.8,336.5 583.2,335.8 581.3,334.7 580.3,333.9
			579.8,333.4 579.2,332.3 578.8,332.2 578.4,332.4 577.8,332.5 575.5,331.6 575.5,329.9 577.1,326 577.2,324.9 578.4,321.3
			578.2,320.9 576.3,320.9 575.4,321.1 573.6,322.1 572.7,322.4 571.9,322.5 570.9,322.4 569.9,322.2 569.2,321.9 568.4,321.1
			565.8,317.3 565.4,316.6 565.2,315.8 565.1,314.8 565,313.7 566.8,301.5 566.5,300.5 565.7,300.6 565.5,300.5 565.3,300.1
			565.5,300 565.7,299.9 565.8,299.8 565.7,299.5 565.6,298.7 565.4,298.5 565.2,298.4 564.9,298.4 564.8,298.3 564.6,297.9
			564.4,297.5 564.5,297.1 565.4,296.7 566,296.3 566.2,295.8 565.6,295.6 565.2,295.1 565.7,294 566.6,292.7 567.4,292
			569.7,291.1 570.8,290.5 571.6,289.4 571.8,288.7 572,288.1 572.3,287.6 572.8,287 573.8,284.8 574,283.8 573.9,282.6
			573.6,281.6 573.2,280.4 572.5,279.5 571.6,278.9 569.2,278.8 568,278.6 567.1,278 566.9,277.4 566.8,276.2 566.7,275.6
			566.2,274.9 565.9,274.8 565.5,275.1 564.8,275.4 563.8,275.6 562.8,275.5 562,275.1 560.9,273 559.5,271.1 559,269.9
			558.3,260.9 558.1,260.1 556.9,259.6 557,258.7 557.9,256.1 558.2,255.7 558.5,255.3 558.6,254.5 558.6,249.8 558.3,248.7
			557.6,247.7 556.6,246.8 555.6,246.3 555.1,246.3 554.2,246.8 553.8,246.8 553,246.6 552.5,246.5 552.1,246.6 551.1,246.6
			550.2,246.4 549.5,246.4 548.3,248.8 547.9,249.5 547.1,250.1 546.3,250.3 545.5,250.4 544.7,250.4 544,250.2 543.1,250.3
			542.3,250.7 541.6,250.9 540.9,250.5 540.7,249.7 540.8,249 541.2,248.2 541.6,247.6 543.7,245.5 544.2,244.6 544.2,244.1
			544.1,243.6 544.1,243.2 544.5,242.6 544.9,242.5 545.8,242.5 546.2,242.3 546.6,241.5 546.9,239.9 547.4,239.1 547.7,238.9
			548.7,238.5 549,238.3 549.2,238.2 549.6,238.2 549.8,238.1 549.9,237.8 549.8,237.5 549.6,237.3 549.6,237.1 550.1,236.1
			550.5,235.7 552.2,236.1 553,236.2 554,236.2 554.8,235.9 555.3,235.3 555.6,234.1 555.1,233.9 554.3,234 553.5,233.9
			553.1,233.2 553.6,232.6 554.6,232.2 555.4,231.9 554.4,231.1 553,230.5 550.3,229.6 549,229.6 548.5,229.4 548.1,228.7
			547.8,226.9 547.5,226.3 546.3,227.2 545.1,227.2 542.7,226 542.2,225.4 541.7,224.5 541.3,223.6 541.1,222.8 540.1,219.5
			539.5,219 538.9,219.2 538.2,219.5 537.2,219.7 536.4,219.4 535.7,218.9 534.9,218.6 534.1,218.6 536.3,206.9 536.3,206.4
			536,205.9 535.7,205.5 535.5,205 535.4,204 535.5,203.2 535.3,202.4 534.5,201.7 533.5,201.5 532.5,201.6 531.5,201.6
			530.7,200.9 530.5,200 530.7,199 531.4,197.2 531.4,196.2 531,195.2 530.5,194.3 529.8,194 528.9,194.3 528.3,194.3 528,193.8
			527.9,193.4 527.4,192.6 527.3,192.2 527.3,191 527.8,190 528.4,189.1 528.8,188.1 528.7,187 528.2,186 527.4,185.2 520.5,181.6
			518.6,180.9 515.1,180.2 514.5,180.2 514.2,180.5 513.9,180.7 513.2,180.5 512.6,180.1 512.4,180.1 512.1,180.2 511.3,180.7
			509.2,181.2 508.5,182 508.7,182.5 509.4,183.3 510.2,184.1 511.5,184.7 511.6,185.1 511.6,185.5 511.8,185.9 512.2,186.1
			512.9,186.3 513.2,186.5 513.2,187.1 513,188 512.6,188.7 512,188.9 512.2,190 511.9,190.6 510.9,191.6 508.1,191.1 507.3,191.3
			505.5,192.1 504.7,192.6 503.9,193.4 498.8,195.1 497.3,196.1 496.6,196.8 496.3,197.5 496.3,198.3 496.4,199.2 496.1,199.8
			495.6,200.6 494.5,201.8 492,201.7 491.2,201.5 490.7,201.2 490,200.6 489.5,200.4 489.2,200.4 488.2,200.6 487.8,200.6
			487,200.2 485.4,198.9 484.6,198.7 484.4,198.7 484.4,363.2 484.5,363.2 485.2,362.9 486,362.9 486.9,362.8 487.1,362.8
			487.7,362.6 487.9,362.7 488.1,362.9 488.4,363.2 488.8,363.1 489.6,362.7 490.7,362.4 490.8,362.1 490.6,361.7 490.6,361.4
			490.9,361 491.2,360.6 491.5,360.2 491.4,359.7 492.2,359.8 492.7,360.4 492.9,361.2 493.2,363.3 493.4,364.1 493.9,364.9
			494.5,365.6 494.7,365.5 494.7,364.8 494.8,363.9 495.4,363.2 496.3,363.2 497.2,363.6 497.8,364.2 498,365.2 497.6,365.8
			497,366.2 496.6,366.7 496.5,367.6 497,367.7 497.6,367.5 498.4,367.5 498.8,367.6 499.2,367.5 499.5,367.3 499.7,367.1
			500,366.7 500.4,366.9 501,367.8 503.2,368.7 504,369.3 504.4,369.6 504.6,369.8 504,370.1 503.9,370.2 503.6,370.3 503.3,370.6
			502.8,371.1 503.2,371.4 503.4,371.9 503.6,372.4 503.9,372.9 504.1,373.1 504.1,373.3 504.1,373.5 503.9,373.7 503.4,374.4
			503.1,375.7 503.2,376.9 503.9,377.4 505,377.6 505.4,377.9 505.6,378.4 505.6,378.9 506.4,382.2 506.3,382.7 505.8,383.5
			505.7,384 506.3,383.4 506.7,383 507.2,383 507.8,383.7 508,384.1 508.1,384.6 508,385.1 507.6,385.5 507.6,385.6 507,387.6
			506.9,389.5 507.3,391.4 508.4,393.3 509.5,394.8 509.9,395.6 511.1,397 510.6,398.2 510.2,399.8 510.2,401.3 511.2,402.4
			510.7,402.8 510.3,403.4 510,404.1 509.8,405.3 509.5,405.8 508.7,406.7 508.9,407.4 508.5,408.3 507.4,409.9 506.5,410.6
			506.1,411 505.9,411.5 505.9,412.2 505.8,412.7 505.5,413.2 505,413.6 505.2,413.7 505.5,413.5 506.9,412.3 507.4,411.5
			508.2,413 508.7,413.5 509.4,412.5 509.7,412.4 509.9,412.3 510,411.8 510.2,411.6 510.6,411.5 511.4,411.5 512,411.6
			512.3,411.7 512.7,412 513,412.3 513.3,413.3 513.6,413.6 514.3,413.7 515.9,413.3 516.6,413.4 517.2,414.3 517.8,417.1
			519,418.1 519.2,418.2 520.2,418.1 520.5,418.3 520.5,419.1 520.9,419.4 521.7,419.8 521.9,420.4 521.5,422 522,421.5
			522.6,421.3 523.2,421.2 523.8,421 524.5,420.6 525,420.1 525.7,419.7 526.4,419.8 526.8,419.6 527.8,419.3 528,419.3
			528.2,418.6 528.4,418.5 528.8,418.7 529.1,417.6 529.7,418 530.5,419.4 531.1,419.3 533.1,418.5 533.6,418.2 533.9,417.4
			533.7,416.5 533.3,415.7 533.2,414.9 533.5,414.4 533.9,413.8 534.7,412.8 535.1,412.5 535.8,412.3 536.2,412 536.4,411.5
			536.5,410.6 536.6,410.2 536.9,410 538.2,409.2 538.9,408.4 539.4,407.6 539.5,406.7 539.5,405.6 539.4,405.4 539.2,405.4
			539,405.3 538.9,405 539,404.7 539.3,404.3 539.4,404 539.5,402.5 539.8,401.5 541,400.1 541.3,399.2 546.7,399.5 546.5,401.1
			546.7,402.4 547.6,403.4 549,404.5 550.4,405.3 552.5,403.4 553.6,402.9 554.7,404.1 555.5,404 557.1,403.5 558.6,403.9
			560.3,405.3 562,406 563.3,404.5 563.3,404.2 563.2,403.5 563.2,403.1 563.4,402.6 564.3,401.5 564.5,401.3 565,401 565.2,400.8
			565.2,400.6 565.1,400.2 565.1,400 566.6,398.3 566.8,397.7 567,396.2 567.1,395.4 567.3,395.2 567.6,395 567.9,394.8 568,394.3
			567.8,393.8 566.7,392.9 566.4,392.5 566.5,390.7 568.8,387.2 569.2,385.5 569.3,384.4 569.2,384 569.9,384 571.8,383.7
			572.2,383.9 572.7,384.2 573.2,384.6 574,384.6 573.8,383.7 573.2,382.6 572.5,381.8 571.6,381.3 571.4,380.7 571.4,380
			571.6,378.6 572,378.1 572.2,377.4 572.2,377 571.6,377 568.9,377.9 568.5,378 564.1,376.6 560.3,374.2 560.4,373.7 561.1,372.9
			561.3,372.4 561.1,371.5 561.1,370.7 561.7,368.1 561.6,367.2 561.4,366.6 561.1,366.1 560.8,365.6 560.8,365.1 561.1,364.7
			563.3,363 563.9,362.9 565.5,363.3 566.5,363.2 568,362.6 568.9,362.5 569.3,362.6 569.8,363.1 570,363.2 570.4,363.2
			571.2,363.2 571.6,363.2 573,362.9 573.7,362.8 574.3,362.9 574.9,363.3 575.2,364 575.4,364.6 575.8,365.2 576.3,365.6
			576.9,366 577.7,366.2 578.4,366.2 579.2,365.9 579.3,365.2 579.1,364.5 579.3,363.8 580.3,363.6 581.3,365 582.7,367.8
			583.7,368.4 585,368.6 587.6,368.3 586.7,366.4 		"/>
	</g>
	<g transform="matrix(11.8081,0,0,11.8081,11.8081,23.6162)">
		<path vector-effect="none" fill="none" stroke="#999999" stroke-width="0.25" stroke-linecap="round" stroke-linejoin="round" d="
			M34.5,13.6L34.5,13.6L34.5,13.6l-0.2,0.1l-0.1,0l0,0.1l0,0.2l0,0.1l-0.1,0.2l-0.1,0.1L34,14.4l0.1,0.2l0.1,0.1l0.2,0.1l0.1,0.1
			l0.2,0.2l0.1,0.1l0.1,0l0.1,0l0.1,0H35l0.1,0l0.1,0l0.1,0l0.1-0.1l0-0.1l0-0.1l0,0l0,0l0,0l0.1-0.1l0,0l0.1-0.1l0,0l0-0.2l0,0
			l0.1,0l0.1,0l0.2-0.1l0.1,0l0.1,0l0.1,0l0.2,0.2l0.1,0.1l0.1,0l0.1,0.1l0,0.1l0,0l0,0.1l0,0l0,0l0.1,0.1l0.2,0.3l0.1,0.1l0.2,0
			l0.1,0l0,0l0-0.1l0-0.1l0-0.1l0,0l0.1,0l0.1,0l0.1,0l0-0.1l0,0l0.1,0l0.1-0.1l0,0l0,0l0,0l0,0l0,0l0-0.1l0,0l0.1,0l0.2,0l0-0.1
			l0,0l0.1-0.1l0.1,0l0,0l0,0l0.1,0l0-0.1l0,0l0,0l0,0l0,0l0,0l0,0l0,0l0,0l0,0l0.1-0.1l0,0l0,0l0,0l0.1,0l0.1,0.1l0.1,0l0.1,0l0,0
			l0,0l0.1,0l0,0l0,0l0.1,0l0,0l0,0l0.1,0.1l0,0l0.1,0l0.1,0.1l0.1,0l0.1,0l0.1,0.1l0.1,0h0l0.1,0h0l0,0l0.1,0l0,0l0.1,0l0.2,0
			L41,15l0-0.1l0,0l0-0.1l0-0.1l0-0.1l0.1-0.1l0.1-0.1l0.4-0.1l0.1-0.1l0.1,0l0.2-0.1l0.1,0l0.2,0l0.1-0.1l0-0.1l0-0.1l0.1,0l0-0.1
			l0-0.1l0,0l0,0l-0.1,0l0,0l0,0l0,0l0,0l-0.1-0.1l-0.1-0.1l-0.1-0.1l0,0l0.1-0.1l0.2,0l0.1,0l0,0l0,0l0.1,0l0.1,0l0,0l0,0l0,0
			l0.3,0.1l0.2,0.1l0.6,0.3l0.1,0.1l0,0.1l0,0.1l0,0.1l-0.1,0.1l0,0.1l0,0.1l0,0l0,0.1l0,0l0,0l0,0l0.1,0l0.1,0l0.1,0.1l0,0.1l0,0.1
			l-0.1,0.2l0,0.1l0,0.1l0.1,0.1l0.1,0l0.1,0l0.1,0l0.1,0.1l0,0.1l0,0.1l0,0.1l0,0l0,0l0,0l0,0l-0.2,1l0.1,0l0.1,0l0.1,0l0.1,0
			l0.1,0l0.1,0l0.1,0l0.1,0l0.1,0.3l0,0.1l0,0.1l0,0.1l0,0.1l0.2,0.1l0.1,0l0.1-0.1l0,0l0,0.2l0,0.1l0,0l0.1,0l0.2,0.1l0.1,0.1
			l0.1,0.1l-0.1,0l-0.1,0l0,0.1l0,0.1l0.1,0l0.1,0l0,0l0,0.1l0,0.1l-0.1,0l-0.1,0l-0.1,0l-0.1,0l0,0l0,0.1l0,0l0,0l0,0l0,0l0,0l0,0
			l0,0l0,0l-0.1,0l0,0l0,0.1l0,0.1l0,0.1l0,0l-0.1,0l0,0l0,0l0,0l0,0l0,0l0,0.1L44.9,19l0,0l0,0.1l0,0.1l0,0.1l0.1,0l0.1,0l0.1,0
			l0.1,0l0.1,0l0.1,0l0.1,0l0.1,0l0.1,0l0-0.1l0.1-0.2h0.1l0.1,0l0.1,0l0,0l0,0l0.1,0l0,0l0.1,0l0,0l0.1,0l0.1,0.1l0.1,0.1l0,0.1
			l0,0.4l0,0.1l0,0l0,0l-0.1,0.2l0,0.1l0.1,0l0,0.1l0.1,0.8l0,0.1l0.1,0.2l0.1,0.2l0.1,0l0.1,0l0.1,0l0.1,0l0,0l0,0l0,0.1l0,0l0,0.1
			l0,0l0.1,0.1l0.1,0l0.2,0l0.1,0l0.1,0.1l0,0.1l0,0.1l0,0.1l0,0.1l-0.1,0.2l0,0l0,0l0,0.1l0,0.1l-0.1,0.1l-0.1,0.1l-0.2,0.1
			L47,22.8l-0.1,0.1l0,0.1l0,0l0,0l0,0l0,0l-0.1,0l0,0l0,0l0,0l0,0l0,0l0,0l0,0l0,0.1l0,0l0,0l0,0l0,0l0,0l0,0l0.1,0l0,0.1l-0.1,1
			l0,0.1l0,0.1l0,0.1l0,0.1l0.2,0.3l0.1,0.1l0.1,0l0.1,0l0.1,0l0.1,0l0.1,0l0.1-0.1l0.1,0H48l0,0l-0.1,0.3l0,0.1l-0.1,0.3l0,0.1
			l0.2,0.1l0,0l0,0l0,0l0.1,0.1l0,0l0.1,0.1l0.2,0.1l0,0.1l-0.1,0l-0.1,0h-0.1l-0.1,0l-0.3,0.2l-0.1,0.1l0,0l0,0h0l0,0.1l0,0.1
			l0,0.2l-0.1,0.3l0,0.1l0.2,0.1l0.1,0l0.2,0.1l0,0l0,0h0l0,0l0,0l0,0l0.1,0.1l0,0l0.1,0.2l0,0l0.1,0.1l0,0l0,0.1l0,0.1l0,0.1l0,0.2
			l0,0.1l0,0.1l0,0.1l0,0.1l0.1,0.2l-0.2,0l-0.1,0l-0.1-0.1l-0.1-0.2l-0.1-0.1l-0.1,0l0,0.1l0,0.1l0,0.1L48,29l-0.1,0l-0.1,0l-0.1,0
			l0,0l0,0l0-0.1l0-0.1l0,0l-0.1,0l-0.1,0l-0.1,0l0,0l-0.1,0l0,0l0,0l0,0l0,0l-0.1,0L47,28.8l-0.1,0l-0.1,0l-0.1,0l-0.2,0.1l0,0l0,0
			l0,0l0,0l0,0l0,0.1l0,0.2v0.1l0,0.1l0,0l-0.1,0.1l0,0l0.3,0.2l0.4,0.1l0,0l0.2-0.1h0l0,0l0,0.1l0,0l0,0.1l0,0.1l0,0.1l0.1,0
			l0.1,0.1l0,0.1l0,0.1l-0.1,0l0,0l0,0l0,0l-0.2,0l-0.1,0l0,0l0,0.1l0,0.1L47,31.1l0,0.2l0,0l0.1,0.1l0,0l0,0l0,0l0,0l0,0l0,0.1
			l0,0.1l0,0.1l-0.1,0.1l0,0l0,0l0,0l0,0l0,0l0,0l-0.1,0.1l0,0l0,0l0,0.1l0,0l-0.1,0.1l-0.1-0.1l-0.1-0.1l-0.1,0l-0.1,0l-0.1,0
			l-0.1-0.1l-0.1,0l-0.2,0.2l-0.1-0.1l-0.1-0.1l-0.1-0.1l0-0.1l0-0.1l-0.5,0l0,0.1L44.7,32l0,0.1l0,0.1l0,0l0,0l0,0l0,0l0,0l0,0l0,0
			l0,0.1l0,0.1l0,0.1l-0.1,0.1l-0.1,0.1l0,0l0,0l0,0.1l0,0l0,0l-0.1,0l0,0L44.2,33l0,0.1l0,0l0,0.1l0,0.1l0,0.1l0,0.1l0,0L44,33.5
			l-0.1,0l-0.1-0.1l0,0l0,0.1l0,0l0,0l0,0.1l0,0l-0.1,0l0,0l-0.1,0l-0.1,0l0,0l-0.1,0l-0.1,0l-0.1,0l-0.1,0l0,0l0-0.1l0-0.1l-0.1,0
			l0,0l0-0.1l0,0l-0.1,0l0,0l-0.1-0.1l-0.1-0.2L42.7,33l-0.1,0l-0.1,0l-0.1,0l0,0l0-0.1l0,0l0,0l0,0l-0.1,0l-0.1,0l0,0l0,0l0,0l0,0
			l0,0L42.1,33l0,0L42,32.9l0,0.1L41.8,33l0,0l0,0l0,0l0,0l0,0l0-0.1l0,0l0,0l0.1-0.1l0.1-0.1l0-0.1l0-0.1l0.1-0.1l0,0l0-0.1l0-0.1
			l0,0l0,0L42.2,32l0-0.1l0-0.1l0-0.1l-0.1-0.1l0-0.1l-0.1-0.1L42,31.1l0-0.2l0-0.2l0-0.2l0,0l0,0l0,0l0,0l0,0l0-0.1l0,0l0,0l0,0.1
			l0,0l0-0.1l0,0l-0.1-0.3v0l0,0l0,0l-0.1,0l-0.1,0l0-0.1l0-0.1l0-0.1l0,0l0,0l0,0l0,0l0,0l0,0l0,0l0,0l0,0l0,0l0,0l0,0l0,0l0,0l0,0
			l-0.1,0l-0.2-0.1l0-0.1l0,0l0,0l0,0l0,0l0,0l0,0l-0.1,0l-0.1,0l0,0l0-0.1l0,0l0.1,0l0,0l0-0.1l0,0l-0.1,0H41l0,0.1l0,0.1l0,0.1
			l0,0l-0.1-0.1l0-0.1l0-0.1l0-0.2l0-0.1l0,0l-0.1,0l0,0l0,0l0,0l0,0l0,0l0,0l0,0l-0.1,0l-0.1,0l0,0l0,0l0,0l0,0l-0.1,0l0,0l-0.1,0
			l-0.1,0l-0.1,0l-0.1,0l-0.1,0.1L39.7,29l-0.1,0l-0.1,0l0-0.1l0-0.2l0-0.1l-0.1,0l-0.2-0.1l-0.1,0l-0.1,0L39,28.8l-0.1,0l0-0.1
			l-0.1,0l0,0l0,0l0,0l0,0l0,0l-0.1,0l0,0l-0.1,0l-0.1,0l0,0l0,0l0,0.1l-0.1,0.2l0,0.1l-0.2,0.2l-0.1,0.1l-0.1,0l0,0l-0.1-0.1
			l-0.1,0l-0.1,0l-0.1,0l-0.1,0.1l0,0.1L37,29.5l0-0.1l0.1-0.1l0.1-0.1l0.1-0.1l0.1-0.3l0,0l0,0l0,0l0-0.1l0,0l0.1-0.1l0.1-0.1
			l0.1-0.1l0.1-0.1l0.1,0l0.1,0l0.1,0l0.1-0.1l0-0.1l-0.2-0.2l0,0l-0.1,0l-0.2-0.2l0,0l0,0l0,0l0,0l0,0l0,0l0-0.1l0,0l0-0.3l0-0.1
			l0.1-0.2l0-0.1l0,0l-0.1,0l-0.2,0l-0.2,0l-0.1,0l0-0.1l0-0.2L37,26l0,0l0,0l0,0l0,0l0,0l0-0.1l0,0l0,0l0,0l0,0l0,0l-0.2-0.1l0,0
			l-0.1,0l0,0l0-0.1l0,0h0l0,0l0,0l-0.1,0l0,0l0,0l0,0l0,0l-0.1,0l-0.1-0.1l0-0.1l0-0.1l0-0.1l0-0.1l0,0l0,0l0,0l0-0.1l0,0l0,0
			l-0.1-0.1l0,0l0-0.1l0,0l0,0l-0.1,0l0,0l0,0l0-0.1L36,23.9l-0.1-0.2l-0.2-0.2l-0.3-0.2l0,0l-0.1-0.3l0-0.1l0,0l-0.1,0L35,23
			l-0.1,0l-2.4,0l0,0.2l0,0l-0.8,0.2l-0.1,0l-0.1,0l-0.1,0l-0.1-0.1l-0.1-0.1l-0.1,0l-0.1,0l-0.6,0.1l-0.2,0.1l-0.1,0.1l0,0l0,0l0,0
			l0,0l-0.1,0.3l0,0l0,0l0,0l0,0l0,0h0l0,0l0,0l0,0l0,0L30,24.1l0,0l-0.1,0.1l0,0l0,0.2l0,0l0,0l0,0l0,0l0,0l0,0.1l0,0l0,0l0,0l0,0
			l0,0l0,0l0,0l0,0l-0.1,0.4l0,0l0,0l0,0l0,0l0,0l0,0l0,0l0,0l-0.1,0l0,0l0,0l0,0l0,0l0,0l-0.1,0l-0.1,0L29,25.7L29,25.7l-0.1,0
			l-0.1,0l-0.1,0l-0.1,0l-0.1-0.1l-0.1,0.1l-0.1,0.1l0,0.1l0,0l0.1,0.1l0,0l0,0l-0.1,0l0,0l0,0.1l0,0.1l-0.1,0.1l-0.1,0.1l-0.1,0
			L28,26.5l-0.1,0.1l-0.1,0l-0.1,0l-0.1-0.1l-0.1,0l-0.1,0l-0.2,0.1l-0.1,0.1l0,0l0,0l0,0l0-0.1l0,0l0.1,0l0,0l0,0l0,0l0,0l0.1-0.1
			l0.1-0.1l0-0.1l0.1,0l0.1,0l0.1,0l0.1,0v0l-0.2,0l-0.1,0l0,0l0,0l0,0l0,0v0l0-0.1l0-0.1l-0.1,0.1l0,0.1l0,0.1l0,0.1l-0.1,0l0,0
			l0,0l0,0l0,0l0-0.1l0,0l0,0l0,0l0,0l0,0l0,0l0,0l0-0.1l0-0.1l0-0.1l0.1,0.1l0-0.1l0,0l0,0h0l0,0l0,0l0,0l0,0l0,0l0,0l0,0.2l0,0
			l-0.1,0l0,0l0,0l0-0.1l0,0l0-0.1l0-0.1l0-0.1l0-0.1l0.1-0.1l0-0.1h0l-0.1,0.1l-0.1,0l-0.1,0l-0.1-0.1l0-0.1l0-0.1l0-0.1l0,0l0,0
			l0-0.1l0-0.1h0l-0.1,0.2l-0.1,0.1l-0.1,0l-0.1,0l-0.1-0.1l0-0.1l0-0.1l-0.1,0l-0.2,0.1l-0.1,0l0,0l0,0l0,0l0,0l0,0l0,0l0,0l0,0
			l0.1-0.2l0.1-0.1l0-0.1l0.1-0.1l0-0.1l0-0.2l0,0l0,0l0.1,0l0,0l0,0l0.1,0l0.1,0l0-0.1l-0.1,0l0,0l0,0l-0.2-0.2l0,0l0,0l0,0l0,0
			l0,0.1l0,0.1l0,0.1l-0.1,0.1l-0.1,0l-0.1-0.1l0-0.1l0-0.1l0.2-0.2l0.1-0.1l0-0.1l0,0l0,0.1l0,0.1l0,0l0,0l-0.1,0.1l-0.1,0l0,0l0,0
			l-0.1,0.1h0l-0.1,0l-0.1,0l-0.1,0l0,0l0,0L25,23.3l-0.1-0.1l-0.1,0l-0.1-0.1l0,0l0-0.1l0,0l-0.1,0l0,0l0,0l-0.1-0.1l-0.1,0l0,0
			l0,0l-0.1,0l0-0.1l0.1-0.1l0.1-0.1l0.1,0.1l0,0l-0.1-0.1l-0.1,0l0,0l0,0l-0.1,0l0,0l0,0l0.1,0l0.1-0.1l0.1-0.2l-0.1,0l0,0
			l-0.1,0.1l0,0l-0.1,0l0,0l0,0l0,0.2l0,0l0,0l0,0l-0.1,0l-0.1,0l-0.1-0.1l0-0.1l0-0.1l0.1-0.1l0.1-0.1l0.1-0.1L24,22.2l0,0.1l0,0
			l-0.1,0l-0.1,0l0,0.1l-0.1,0.1l-0.1,0l0,0l0,0l0,0l0,0l0-0.1l0,0l0,0l0,0l0,0l0,0l0,0l0,0l0,0l0,0.1l-0.1,0l-0.2-0.2l0,0l-0.1,0
			L23,22L23,22l0,0l-0.1,0l-0.1,0.1l0,0l0-0.1l0-0.1l0-0.1l0,0l0,0l0,0l0,0l-0.2-0.2l0-0.1l0-0.1l0-0.1l0-0.1l0-0.1l-0.1,0l0,0l0,0
			l0,0l-0.1,0l-0.1,0l-0.1,0l0,0h0l0,0l0,0l0-0.1l0-0.1l0-0.1l0-0.1l0-0.1l0,0l0.1,0l0.1-0.1l0.1,0l-0.1,0l0-0.1l0-0.1l0-0.2l0-0.1
			l0,0h0l0-0.1l0,0l0,0l0,0l0-0.2l0.1-0.2l0.1,0l0-0.1l0-0.1l0-0.1l0,0l0-0.1l-0.1,0l0,0l0,0l0,0.1l-0.1,0.1l0,0l-0.1,0l-0.1,0.1
			L22.2,20l0,0.1l-0.1,0.1L22,20.3l-0.1,0.1l-0.1,0l0,0l0-0.1l0,0l0,0l0,0l0,0h0l0,0l0,0l-0.1-0.1l0-0.2l0-0.1l0-0.1l0,0l0.1,0l0,0
			l0,0l0,0l0,0l0,0l0,0l-0.1,0.1L21.7,20l0,0.1l0,0.1l-0.1,0l0-0.1l0,0l0-0.1l0-0.1l0.1,0l0,0l0-0.1l0,0l0-0.1l0-0.1l0,0l0,0l0,0
			l0,0l0,0l-0.1,0.1l0,0l0,0l0,0l-0.1,0h0l0,0l0,0l0,0l0,0l0,0l0,0l0,0l0,0l-0.1,0l0,0l0-0.1l0,0l0,0l0.1,0l0.1,0l0.1,0l0,0l0-0.1
			l0-0.1l0,0l0.1,0l0.1-0.1l0.1,0l0,0l0,0l0-0.1l0,0l0,0l0,0l0,0l0,0l-0.1,0l0,0l0,0.1l0,0.1l-0.1,0l-0.1,0l0,0l0,0l0,0h0l0-0.1l0,0
			l0,0l0,0l-0.1,0.1l-0.1,0L21.1,19L21,19l0.1,0.1l0,0.1l0,0.1l0,0.1l-0.1-0.1l0,0l-0.1,0l0.1,0.1l0,0.1l0,0.1l0,0.1l-0.1,0.1
			l-0.1,0l0,0l0,0l0,0l0,0l0,0l0,0l0,0l0,0v0.1l0,0l0,0l0,0l0,0l0,0l0,0.1l-0.1,0l-0.1,0l-0.1,0l-0.1-0.1l-0.1-0.1l0-0.1l0-0.1
			l0-0.1l0.1-0.1l0,0l0.1,0l0,0l0,0l0,0l0,0l0,0v0l0,0l0,0l0,0l0,0l0.1-0.1l0,0l0.1-0.2l0.4-0.7l0.1-0.3l0.1-0.1l0.4-0.6l0.1-0.1
			l0.1-0.1l0.2,0l0.3,0l0.2,0l0.7-0.4l0,0l0,0l0-0.1l0,0l0,0l0,0l0,0l0.3,0l0.1,0l0,0l0,0l0,0l0,0l0.1,0l0.1,0l0.1,0l0.1,0l0.2,0
			l0.1,0l0.2-0.1l0,0l0.1,0l0.1,0l0.1,0l0-0.1l0,0l0-0.1l0,0l0,0h0.1l0,0l0,0.1l0,0l0.1,0l0,0l0,0l0,0l0.1,0l0.1,0l0.1,0l0.1,0
			l0-0.1l0-0.2l0-0.1l-0.1-0.5l0-0.2l0-0.2l0-0.1l0-0.1l0,0l-0.1,0l-0.1,0l0,0l-0.1-0.1l0,0l0,0l0,0l-0.1,0l0,0l-0.1-0.1l-0.1,0
			l-0.1,0l-0.1,0l0,0l0,0l0-0.1l0,0l0.1-0.1l0.2-0.1l0.1-0.1l0.1,0l0.1,0l0.1,0l0,0.1l0.3,0l0.1,0l0.1-0.1l0-0.1l0-0.1l0,0l0-0.1
			l0-0.1l0,0l0.1-0.2l0-0.1l0-0.1l0-0.1L25.6,13l0-0.1l0-0.1l0-0.3l1.2,0l0.2,0.1l0,0l0,0l0,0l0,0l0,0l0,0l0,0l0.1,0l0,0l0,0l0,0
			l0,0l0,0l0.1,0l0,0l0,0l0,0l0,0l0,0l0,0h0l0,0l0,0l0,0l0,0l0.1,0l0.1,0l0.1,0l0.1,0l0,0.1l0,0.1l0,0.1l0,0.1L28,13.1l0,0.1l0,0.1
			l0,0.1l0.1,0l0.1,0l0.1,0l0.1,0l0.1,0l0,0l0-0.1l0.1-0.2l0.1,0l0.1,0.1l0.1,0.1l0,0l0,0l0,0l0,0l0,0l0.1,0l0.1,0l0,0l0,0l0.1,0
			l0.2,0l0.1,0l0.1,0l0.1,0.1l0.1,0.1l0,0l0,0l0,0l0.1,0l0,0l0.1-0.1l0.1,0l0.1,0l0.1,0l0.1,0l0.2,0.1l0.1,0l0.1,0.2l0.1,0l0.6-0.2
			l0.1-0.1l0.1-0.1l0.1,0l0.1,0l0.2,0.1l0.1,0l0.1,0l0.1-0.1l0,0l0,0h0l0,0l0,0l0.2,0.1l0.1,0l0.3,0l0.1,0l0.3-0.1l0.2,0l0.3,0
			l0.1,0l0.3,0.1L34.5,13.6"/>
	</g>
</g>

</svg>
