<?xml version="1.0" encoding="utf-8"?>

<svg version="1.2" baseProfile="tiny" xmlns="http://www.w3.org/2000/svg" xmlns:xlink="http://www.w3.org/1999/xlink" x="0px"
	 y="0px" viewBox="271.9 171.6 295.7 250" xml:space="preserve">

<g id="Guadeloupe">
	<g>
		<path d="M297.9,310.1c-1.5-0.2-2.9-0.4-4.3-0.6c3.2,1.8,5.4,2.7,6,2.5C300,311.9,299.3,311.2,297.9,310.1z"/>
		<path d="M367,256.4l-0.3,0.3l0.6,0.6l-0.5,0.4l-0.7-0.4l0-0.9l-0.8-0.8H365l-0.4-0.4H363l-0.2,0.3l-0.5-0.1l-0.1-0.2h-1.8l-0.1,0
			l-0.8,0.5l-0.1,0.8l-1.2,0l-0.6-1.2l-0.9,0l-0.6,0.3l-0.5,0.4l0,0.3l0.6,0.3l0,0.9l-0.6,0.6v0.3l-1.2,0.9l0,1.2l-0.7,0.4l-0.9,0
			l-0.6,0.6l-1.5,0.3l-0.3-0.3h-0.9l-0.7-0.8l0-0.3l1.2-0.9l0-1.2l-0.3-0.3l0-0.9l0.3-0.6l-0.8-0.2l-0.5,0.5v0.6l-0.6,0.6l-0.3,0.6
			l0,0.9l-1.1,0.1l-0.2,0.8l-0.5,0.5l-0.6,0.3l-1.5,0l-0.1-1.1l0.9-1.2l0-1.5l-1.4-0.2l-0.3,0.3h-1.2l-0.9,0.6l-1.2,0l-0.5-0.4
			l0-1.2l1.1-0.8h0.3l0.7-0.7h-67l-0.5,0.8l0,0.9l0.3,0.3l0,0.6l-1,1.1l-1.1,0.4l0,1.2l0.6,0.6l0,0.9l0.6,1.2l-0.3,0.3l0,1.5
			l1.2,2.4l0,0.9l0.6,0.9l0,1.2l1.1,1.1l0.5,0.2l0,0.6l0.6,0.3l0.1,0.5l1.4,0.8l0.6,1.5l1.1,1.1h0.3l0.5,0.8l0,2.4l0.9,1.5l-0.3,0.6
			l0,0.9c8.2,7.5,17.6,16.5,17.3,16.8c-0.3,0.3-5.1-2.7-10.7-6.5c-3.3-2.2-5.9-4.2-8.1-6.1l0,0.1l0,1.5l1.8,2.2l-0.2,0.5
			c0.8,0.8,1.1,1.3,1,1.5c3.6,2,6.4,3.9,6.5,4.4c2.5,0.7,4.9,1.4,7.2,2.1c-0.3-0.8,0.2-0.7,1.7,0.5c8,2.5,14.2,4.7,15.1,5.7
			c1.3,1.3,7.3,5.6,12.2,8.5c0.7-0.4,1.4-0.7,2.1-0.9c0,0,0,0,0,0c-3.4-1.8-6.5-3.7-8.5-5.2c-2-1.5-3.7-3.5-3.9-4.4
			c-0.2-0.1-0.3-0.2-0.4-0.2l-2.2-0.3c-2.5-0.3-6.6-2.1-8.8-3.7c-8.3-6.2-23.3-22.3-26.9-29.3c-2.1-3.9-2.9-5.9-1.6-4.4
			c1,1.4,3.5,4.6,5.3,7.1c6.5,8.5,11.7,14.5,12.9,14.5c0.6,0-0.6-2.1-2.5-4.5c-2.1-2.4-4.4-6.8-5.5-9.7c-2.1-6.2-1.8-5.8,5.9,5.4
			c7.1,10.2,17.1,22,18.6,22c0.6,0-1.8-3.4-5.5-7.6c-3.7-4-7.5-9.7-8.5-12.6c-2.5-7.2-2.1-8.5,0.9-3c2.7,5.1,11.3,16.8,16.8,22.8
			l2.1,2.3c0.1,0,0.2,0.1,0.3,0.1c0.5-0.2,1.1-0.3,1.8-0.4c-2.7-2.6-9-11.4-9-12.9c0-1.3,0.9-0.5,6.6,7.4c1.7,2.3,2.9,4.4,3.4,5.5
			c1.5-0.2,3.4-0.2,5.7-0.2c-2.1-0.2-6.4-5.5-10.6-13.2c-1.9-3.4-3.2-6.1-2.8-5.7c0.3,0.3,3.8,4.6,8,9.5c4.6,5.6,6.8,9.1,5.8,9.4
			c-0.1,0-0.2,0-0.3,0c0.9,0,1.8,0,2.8,0.1l-0.3-0.6l0.7,0.6c0.6,0,1.3,0.1,1.9,0.1c-0.9-0.6-1.8-1.4-2.6-2.5
			c-2.7-3.8-7.4-12.8-7.4-14.1c0-0.5,1.5,0.9,3.2,3.2c1.8,2.2,5.2,6.4,7.9,9.1c2.5,2.8,3.6,4.1,3.6,4.7c1.1,0.1,2.2,0.2,3.4,0.3
			c0.3,0,0.7,0.1,1,0.1c-2.8-2.1-8.8-12.9-10.3-19.1c-0.5-2-0.3-3.2,0.6-3.1c0.7,0,1.3,0.9,1.3,2.2c0,2.4,6.4,15,9.4,18.5
			c0,0,0,0.1,0.1,0.1c0.4,0.2,1,0.7,2.1,1.6c0.1,0.1,0.1,0.1,0.2,0.2c3.9,0.6,4.4,1.2,2.3,1.5c1.6,0.9,3.5,1.9,5.3,2.5
			c0.1,0.1,0.3,0.1,0.4,0.2l1.1-0.3l-2.9-1.7c-5-2.9-9.4-8.5-10.5-13.4l-1.2-4.7l2.5,3.8c3,4.6,8.5,7.2,15.3,7h0l1.3-1.3l0.5-0.1
			l0-1.1c-0.5-0.5-0.9-0.9-1.4-1.5h-0.3l-0.8-0.4l0-0.6l-0.9-1.2l-0.1-0.4c-2.2-3.4-3.6-7.3-3.7-10.8l-0.2-4.9l1.6,4.3
			c0.9,2.3,2.3,4.2,4.1,5.8l0.3-0.4l0-0.6l-1.5-1.2l0-0.9l0.9-0.6l-0.3-0.3l0-0.6l-0.5-0.2l-0.2-0.5l-0.3-0.3l0-1.5l0.3-0.3v-0.6
			l0.6-1.2l0-0.6l0.3-0.3l0.3-1.2l0.8-0.8l1.8,0.9l0.6-0.3h0.9l0.3-0.3l0.9,0l0.9,1.2l1.2,0.6l0.1,0c-0.1-1.4,0-2.8,0.2-4l0.9-4.8
			l0.8,4.5c0.2,1.5,0.7,2.9,1.4,4.3l2.2-0.1V275l-0.6-0.3l-0.6-1.2l0-1.8l0.9-0.6l-0.6-1.5l-0.9-0.9V268l0.8-0.1l0.3,0.3l0.6,0
			l1.8,1.8l0.5,0.2l0.1,0.4h0.6l0.4,0.5l0,0.9l-0.3,0.6l1.1,1.4l0.8,0.2l-0.3,0.9l0.3,0.3l0,0.6l0.6,0.3l0.1,0.5l0.5,0.2l-0.8,0.1
			l-0.2,0.5l1.4,1.1l0.7,0.1l-0.3,0.3l0,0.9l0.9,1.2l0.2,0.4l1.2,0.6l0.8-0.6c-1.9-5.1-2.1-11.6-0.2-16l1.8-4.4l-0.2,4.5
			c-0.3,5.6,2.7,10.9,8.2,14.7l3.8,2.7l-0.7-3.2c-1.2-5.6,0-12.7,2.9-16.8l2.7-4l-1.1,4.4c-1.4,5.3,0.4,11.2,5,16.1l3.2,3.5v-3.3
			c0-5.7,2.7-12.3,6.3-15.8l3.5-3.3l-2.1,4.1c-2.6,4.9-2,11,1.5,16.8l1.3,2.2l0.3-0.2l0.9,0l0.5-0.5l0.1-0.6
			c1.2-5.6,5.1-11.5,9.5-14.2l4.1-2.6l-2.8,3.6c-2.6,3.1-3.6,7.3-3.1,11.7l0.2,0.1l0.5-0.2l0-1.2l0.8-1.1h2.4l0.3,0.3l2.4,0l0.4-1.1
			l1.6-0.9l0-0.6l1.1-1.1l0.6,0l1.2-0.6l0.6-0.3l0.9,0l0.3-0.3l3,0l1.2-0.6l0.9,0l1.2-0.9l0.9,0l0.3-0.6l4,0l0.3,0.3l0.6,0l0.6-0.9
			l1.2,0.9h2.5l0.3-0.3l3.4,0l1.2-0.6l3.4-0.3l2.1-0.9l0.9-0.9l0.6,0l0.3-0.3h4.9l1.2-0.6l0.3-0.6l0.6-0.3l1.5-0.3l0.3-0.3l0.6,0.3
			l2.5,0l0.3,0.3l2.4,0l0.3,0.3l1.5,0l0.3,0.3h1.8l0.3-0.3l0.9,0l0.3,0.3l1.8,0l1.2,0.6l3.3,0.3l0.3,0.3l3.3,0l0.3-0.3l0.6,0.3h1.5
			l0.3,0.3l1.2,0.3l0.9,0.9l1.8,0.3l0.9,0.9l1-0.8l0.6-0.9l-0.2-0.4l-1.2,0l-0.1-0.8l-0.4-0.5l-1.2,0l-2.4-1.8l-1.5,0l-0.6,0.3
			l-1.5-1.2l-0.6,0l-0.6,0.9l-1.2,0l-0.3-0.3h-0.6l-0.6-0.6l-0.6,0l-0.6-0.6l-1.2-0.3l-1.2-1.2l-0.9,0l-0.3-0.3l-1.5-0.3l-0.3-0.3
			l-0.9,0l-0.3-0.3l-2.1-0.6l-0.9-1.2l-0.9-0.3l-0.8-0.8l-0.5-0.8l-0.5-0.2l0-0.6l-0.6-0.3l0-1.2l-0.5-1.1H367L367,256.4z"/>
		<path d="M292.2,306.2c-0.9-0.8-1.9-1.6-2.7-2.5c-0.7,0.1-1.3,0.2-1.9,0.3c-1.2,0.2-2.1,0.3-2.7,0.4c1.2,0.8,2.4,1.5,3.5,2.2
			C289.7,306.4,291,306.2,292.2,306.2z"/>
		<polygon points="366.7,255.8 366.4,255.3 365.3,255.3 366.2,256 		"/>
		<path d="M319.7,346.5l-0.9,4l3.3,0.5c5.5,0.9,11.1-1.5,15.5-6.7l3.2-3.5l-3.3,0.3c-1.6,0.2-3.3,0.1-5-0.1
			c-1.4,1.1-3.6,3.6-4.9,5.6c-1.6,2.7-2.2,3.1-2.2,1.5c0-1.4,1-3.8,2.5-5.7c0.5-0.7,1.1-1.4,1.8-1.9c-2.1-0.5-4.1-1.3-5.8-2.2
			C321.6,340.3,320.5,342.8,319.7,346.5z"/>
		<path d="M294.4,301.4c-1.4-0.5-2.9-1-4.4-1.5c0.7,0.4,0.4,0.5-1,0.5c0.5,0.3,1,0.7,1.5,1.1c0.9-0.1,1.8-0.1,2.8-0.1
			C293.8,301.3,294.1,301.4,294.4,301.4z"/>
		<path d="M315.5,315.3c-1-0.6-2.2-1.3-3.4-2c-0.8-0.4-1.6-0.9-2.4-1.3c-1.5-0.3-3-0.5-4.6-0.8c2.3,1.4,4.5,2.7,6.5,3.8
			C313,315.1,314.3,315.2,315.5,315.3z"/>
		<polygon points="341.4,255.8 341.4,256.2 341.8,256.6 343.7,256.3 343.8,255.8 344.4,255.5 344.4,255.3 342.1,255.3 		"/>
		<path d="M326.2,316.1c-0.4,0.3-0.9,0.6-1.3,1c1.5,0.4,3,0.7,4.4,1c-1.2-0.7-2.3-1.4-2.9-2C326.3,316.1,326.3,316.1,326.2,316.1z"
			/>
		<path d="M327.5,335.8c2-0.1,4.1-0.6,6.1-1.6c-0.4-0.1-0.9-0.2-1.3-0.4C330.4,334.5,328.9,335.2,327.5,335.8z"/>
		<path d="M333.4,304.5c-0.4,0-0.8,0-1.3-0.1c-0.6,0-1.1-0.1-1.6-0.1c2,1.9,4.6,3.2,7.5,3.8C335.8,307.2,334.2,306,333.4,304.5z"/>
		<path d="M341.2,304.6c-0.9,0-1.9,0-3,0c1.2,0.6,2.5,1.1,3.6,1.5c1.8,0.7,3.2,1.3,4.2,1.8c0.2,0,0.4-0.1,0.7-0.1l0.7-0.1
			c-1-0.3-2-0.7-2.9-1.1C343.2,306,342.1,305.3,341.2,304.6z"/>
		<path d="M310.9,309.6c0.6,0.1,1.1,0.1,1.2,0c0.7-0.7-2.5-2.4-7.8-4.5C306.3,306.4,308.5,308,310.9,309.6z"/>
		<path d="M283.9,305.6l-0.4,0.8l-0.6,0.6l0,0.2c0.9-0.1,1.9-0.2,3-0.4C285.3,306.4,284.6,306,283.9,305.6z"/>
		<path d="M337.6,315.9c2.7,1,4.6,1.8,5.7,2.5l2.2-1l-3.2-1c-2.8-0.9-5.6-2.5-7.9-4.5c-1.2,0.3-2.4,0.7-3.5,1.2
			C333,314,335.2,315,337.6,315.9z"/>
		<path d="M325.1,304.2c0-0.1,0-0.1-0.1-0.2c-1.8,0-3.1,0-4.2,0c2.2,0.7,4.4,1.3,5.9,1.6C325.9,305.1,325.3,304.6,325.1,304.2z"/>
		<path d="M285.1,303c0.6-0.4,1.6-0.8,2.7-1.1c-0.2-0.2-0.3-0.4-0.5-0.5c-0.2-0.3-0.4-0.5-0.6-0.8c-1,0.2-2.1,0.5-2.8,0.9v2.2
			c0.1,0,0.2,0.1,0.2,0.1C284.3,303.7,284.6,303.4,285.1,303z"/>
		<path d="M285,298.3c-0.4-0.1-0.8-0.3-1.3-0.4l0.3,0.7c0.4-0.1,0.7-0.1,1-0.1C285,298.4,285,298.3,285,298.3z"/>
		<path d="M318.5,305.3c0.7,1.4,4.8,4,10.2,6.6c0.8-0.6,1.9-1.2,2.9-1.7c-4.7-1.5-9.8-3.3-12.5-4.7
			C318.9,305.5,318.7,305.4,318.5,305.3z"/>
		<path d="M314.1,328.8c-0.2,0.8-0.3,1.6-0.4,2.4c3.1-2.2,7-2.6,13.3-1.5c1.5,0.2,3.4,0.8,5.2,1.5c2.9-0.9,6.4-1.4,8.4-1.4l1.4-1
			l-3.3-0.3c-3-0.3-6.2-1.4-8.9-2.9c-0.8,0.3-1.9,0.6-3.2,0.7C321.8,327,317.7,327.9,314.1,328.8z"/>
		<path d="M303.8,308c-1.7-1.3-3.1-2.6-3.9-3.6c-0.5-0.6-0.9-1.1-1.3-1.6c-0.6-0.2-1.2-0.4-1.8-0.7c-0.3,0.1-0.6,0.2-0.9,0.3
			c-0.8,0.2-1.8,0.4-3,0.6c0.6,0.4,1.2,0.9,1.9,1.3c0.7,0.5,1.5,1,2.3,1.6c1.1,0,1.7,0.1,1.9,0.3C299.5,306.7,301.5,307.4,303.8,308
			z"/>
		<path d="M326,368.1l-4.6-1.4l4.5-0.3c5.6-0.3,10.5-3.8,13.8-9.7l2.3-4.1l-3.2,1c-5.5,1.8-12.6,1.4-17-1.1l-3.1-1.7l-0.2,1l0-1.1
			l-0.9-0.5l0.9,0.1l-0.1-4.2c0-3.9,0.9-6.7,3.3-9.2c-0.3-0.2-0.5-0.4-0.7-0.6l-3.7-3.1l4.3,1.6c0.6,0.2,1.2,0.4,1.9,0.6
			c1.3-1,2.9-1.9,4.8-2.8c-6.8-1.8-10.6-1.7-14.5,1.1c0,0.4,0.1,0.8,0.1,1.3l0.5,5.5l-1.9-5.4c0-0.1-0.1-0.2-0.1-0.3
			c-0.4,0.4-0.9,0.8-1.4,1.2l-3.9,3.8l3.1-4.8c0.5-0.8,1.1-1.5,1.7-2.2c-0.3-1.2-0.3-2.4-0.2-3.5c-4.4,1.2-7.6,2.5-8.7,3.6
			c-1.2,1.2-2.3,4-2.4,6.1c-0.2,3.7-0.2,3.8-1.1,0.9c-2.2-7-0.8-8.9,12.6-12.7c0.7-2.2,2.2-4.5,4.6-6.9c-1.1-0.1-2.1-0.3-2.9-0.5
			c-0.2-0.1-0.4-0.1-0.7-0.2l-1.7,0.9c-1.6,0.9-5.9,2.2-9.5,3.1c-3.6,0.9-7.4,2.2-8.5,3.3c-1.3,1.1-2.1,1.2-2.1,0.5
			c0-1.6,1.6-2.7,9.5-5.8c3.5-1.3,8.2-2.5,10.1-2.7h0.4c-0.8-0.3-1.7-0.6-2.7-1c-1.2-0.1-2.5-0.2-3.8-0.4c-10.6-0.9-15,0.6-16.4,5.7
			c-0.3,1.3-0.9,2.3-1.3,1.8c-0.3-0.3-0.1-2.1,0.6-3.9c0.8-1.7,1.1-3.5,0.9-3.8c-0.3-0.3-1.9-0.2-3.7,0.2l0,1.8l0.3,0.3v1.5
			l-0.6,0.6l0.3,0.3l0.2,0.5l0.5,0.1l-0.3,1.2l0.6,0.3l-0.3,2.1l0.4,0.5l1.7,0.2l-0.9,0.9v0.6l0.3,0.3l0,3l-0.3,0.3v3.6l-0.3,0.3
			l0.3,0.3l0,0.9l0.3,0.3l-0.3,0.3l0,0.9l1.2,1.8l0.3,0.9l0.5,0.1l3.5,3.5v0.6l0.6,0.9l0.6,0.3l0.9,1.8l0,1.8l0.3,0.3v0.6l0.3,0.3
			l0,2.4l0.3,0.3l0.3,1.8l2,2.3h0.3l0.9,0.9h0.3l1.1,1.3l3.1,3.3l1.7,1.1l0.6,0l1.4,1.1v0.3l0.6,0.3l0.9,1.5l0,0.6l0.6,0.9l0,1.2
			l0.6,1.2l-0.3,2.7l-0.6,1.2l0.9,0.6v0.9l0.8,0.8l0.3-0.3l2.1,0.9l0.6,0l1.2-0.6l0.9,0l0.3-0.3l1.2,0l0.3-0.3l1.8,0l1.2-0.6
			l0.3-0.3l0.6,0l1.1-1.1l0.3-1.2l1.4-1.4l1.2-0.3l0.3-0.3h0.6l0.6,0.9l0.9,0.3l1.5-1.8l0.9-0.3l1.2-0.9l0.9,0l0.3,0.3l2.5,0
			l1.2,0.6l0.6-0.3l1.2,0l0.6-1.2h0.6l0.3-0.3h2.4l0.5-0.5v-0.9l-0.6-0.9l1.7-0.8l0.5-0.5v-1.9l-1,0.6
			C337.9,368.5,330.9,369.5,326,368.1z"/>
		<path d="M321.7,316.2c0.5-0.3,1-0.6,1.5-0.9c-1.2-0.3-2.6-0.7-4.2-1.2c-0.5-0.1-1.1-0.3-1.6-0.4
			C318.9,314.6,320.4,315.4,321.7,316.2z"/>
		<path d="M290,309.2c-2.9-0.3-5.5-0.5-7.3-0.5l0.3,0.3l0.6,0.3l0.9,0l1.4,1.7l0,1.8l-1.2,0.9l0,2.1c3.7-0.7,9.9-1,16.3-1
			C297.3,313.1,293.5,311.1,290,309.2z"/>
		<path d="M328.1,314.6c0.8,0.3,1.6,0.7,2.2,1.3c0.8,0.9,2.8,2.2,4.4,3.1c0.1,0.1,0.3,0.2,0.4,0.3c1.5,0.4,2.6,0.9,2.9,1.3
			c1-0.3,2-0.7,3.1-1.2c-3-0.9-7.7-3-12.2-5.4C328.7,314.1,328.4,314.4,328.1,314.6z"/>
		<path d="M320.2,320.6c-2.5,2.1-4.2,3.9-5.2,5.9c0.1,0,0.3-0.1,0.4-0.1c5.4-1.5,9.1-2.3,11.5-2.6c-1.3-1-2.5-2.1-3.3-3.3l-0.1-0.2
			l-0.1,0C322.4,320.5,321.3,320.6,320.2,320.6z"/>
		<path d="M336,333c0.4-0.2,0.7-0.5,1.1-0.7c-0.5,0.2-0.9,0.3-1.4,0.5C335.8,332.9,335.9,332.9,336,333z"/>
		<polygon points="365.9,289.5 365.8,289.6 365.8,290 365.9,290.1 366.2,290.1 366.4,290 366.3,289.6 366.2,289.5 		"/>
		<path d="M355.3,403.4l-0.1,0.4c0.1-0.1,0.3-0.2,0.4-0.4H355.3z"/>
		<polygon points="360.9,405.3 360.9,405.6 360.6,406 360.6,406.2 360.8,406.4 361.4,406.4 361.5,406.3 361.5,405.3 361.4,405.2
			361.1,405.2 		"/>
		<polygon points="279.7,297.7 278.8,297.7 278.4,298.2 278.4,298.5 278.5,298.6 280,298.6 280.2,297.6 280,297.4 		"/>
		<path d="M357.8,404.5l-0.2,1.2l-0.8,0.4l-0.2-1.1l-0.1-0.1c-0.2,0.1-0.4,0.2-0.6,0.2l-1.8,0.6l0,0.1l0.9,1.5v0.6l-0.6,0.6
			l-0.5,0.8h-0.9l-0.6-0.3l-0.3,0.3l-2.4,0l-0.3-0.3l-0.6,0l-0.2,0.2l0.3,0.6l-0.3,0.6l-0.5,0.5l-1.2,0l-0.8,1.1l0.4,0.5l0.6,0
			l0.6-0.3l0.6,0.9l1.2,0.3l0.3,0.3l1.8,0l0.8-0.8v-0.6l0.5-0.5l0.6,0.3l2.4,0l0.3,0.6l0.3,0l0.8-0.8v-0.3l-0.6-0.6l0-1.5l1.1-1.1
			l1.4-0.2l0.2-0.5h0.6l1-0.8l-0.1-0.4l-1.4-0.2l0-0.6l0.6-0.6l0.3-1.2l-0.9-0.6l0-0.2C359.1,403.8,358.4,404.1,357.8,404.5z"/>
		<path d="M458.4,363l-0.4,0.4c5.7,1.9,15,5.3,22.2,7.7c2.2,0.8,5,1.7,8.2,2.7l-0.9-0.9l-1.1-0.5l0.3-0.6l-0.2-0.8l-1.2,0l-0.2-0.5
			l-1.1-0.8c-10.2-2.8-20.7-5.6-25.7-7.2L458.4,363z"/>
		<path d="M473.1,360.1l-0.6-0.6l-0.7-0.2c0.2,0.3,0.4,0.5,0.6,0.8l0,0c0.5,0.1,0.9,0.2,1.4,0.4l-0.1-0.3L473.1,360.1z"/>
		<path d="M475.4,363.9l-2-1.3c-5.3-1.3-9.9-2.4-12.7-3.2l-1.1,1.1c5.5,1.5,16.1,4.7,24,7c0,0,0,0,0.1,0l0-0.2l0.3-0.3l-0.1-0.8
			l-0.5-0.2l-0.1-1.1l-1.2-0.3l0,0c-2.5-0.6-5-1.2-7.4-1.7L475.4,363.9z"/>
		<path d="M456.1,365.2L456.1,365.2c1.7,0.9,3.4,1.9,4.9,3.1c5.1,2.1,11.3,4.7,16.4,6.7c4.3,1.7,11.2,4.3,18.4,6.9l-0.2-1.3
			l-0.9-0.9l-0.1-0.8h-0.3l-0.2-0.4l-0.7-0.7c-1-0.3-1.9-0.7-2.8-1C478.8,372.7,463.1,367.8,456.1,365.2z"/>
		<path d="M370.8,281l-0.6-1.2l-0.7,0.1v0.2c0.7,0.6,1.4,1.1,2.2,1.6l0.9,0l0-0.6l-0.5-0.4L370.8,281z"/>
		<polygon points="374.3,279.6 374.3,279.3 373.8,278.8 373.5,278.8 373.3,279 373.3,279.6 373.5,279.8 374.1,279.8 		"/>
		<path d="M464.8,372.3c0.7,1,1.3,1.9,1.8,2.9l0.1,0.2c2.7,1.2,5.5,2.5,7.9,3.5c5,2.2,13.6,5.7,22,9.1l0,0l-0.3-1.8l0.3-0.3l0-0.8
			c-3.1-1.3-6.3-2.6-9.4-3.9C480.4,378.3,471.9,375,464.8,372.3z"/>
		<polygon points="334,417.4 336.1,418.3 337.3,418.3 338.2,417.7 338.5,417.7 339.6,416.3 339.6,415.7 340.8,414.5 340.8,413.9
			341.3,413.1 341.6,414 342.8,414 343,413.6 343.6,413.3 343.6,412 342.5,411.3 340.7,411.3 340.1,411 339.9,410.2 340.5,409.6
			340.5,409 340.1,408.8 338.8,408.2 337.3,408.2 337,407.9 336.4,407.9 336.1,407 335.3,407.2 335,408.4 333.7,410.1 331.7,410.5
			331.7,412 331.4,412.3 331.4,413 330.8,413.6 330.8,414.5 330.2,415.1 330.2,415.7 332.4,416.2 		"/>
		<polygon points="528.2,295.9 528.5,296.2 529.1,296.2 529.4,295.6 529.9,295.4 530.2,294.5 529.7,294.1 529.4,294.1 528.8,294.7
			527.6,294.7 527.3,295 526.7,295 526.2,295.4 526.7,295.9 		"/>
		<polygon points="522.7,296.8 522.4,296.5 520.9,296.5 520.1,296.9 520.1,297.9 521.2,298.6 522.1,298.6 523.3,299.2 524.3,299.2
			524.5,298.9 525.8,298.9 526.1,298.6 528.5,298.6 529,298.2 529,297.6 527.8,296.6 527.6,296.2 526.4,296.2 525.8,296.8 		"/>
		<path d="M451.4,375.2l0,0.6l-0.3,0.3l-0.3,1.2l-0.4,0.3c3.7,3.1,6.7,7.4,7.5,11.3l1.2,4.7l-2.5-3.8c-2.4-3.8-6.6-6.2-11.7-6.8
			l0,0.4l0.3,0.3l0,3l0.3,0.3l0,0.9l0.6,1.2l0,0.9l0.6,0.9l0,1.2l0.3,0.3l0,0.9l0.3,0.3l0,1.2l-0.6,1.2l0.6,0.6v0.3l1.5,1.8l0.3,1.5
			l1.4,1.4l0.3,0l2.4,1.8l0.6,0.3l1.2,0l0.6,0.3l1.5,1.5h0.9l0.3,0.3l2.1,0l2.1,1.2l1.5,0l0.9,1.2l2.8,0l0.3-0.3h2.4l0.3-0.3h0.6
			l0.6-0.6l0.9,0l0.3-0.3h3l0.3-0.3l1.5-0.3l1.2-0.6l0.9-0.9h0.3l0.6-0.6l1.2-0.3l1.2-1.2l0.9-0.3l0.6-0.6l0.9-0.3l1.4-1.4v-0.6
			l1.4-1.4l1.2-0.6l0.3,0l1.5-1.2l0.9,0l0.1,0c-3.9-2-8-4.1-11.9-6.2C471.4,385.2,458.7,379.1,451.4,375.2z"/>
		<path d="M468.2,378.4l0.6,1.1l-1.6-1.6c-5.1-2.2-9.9-4.2-13.4-5.8c-0.7,0-1.4,0.1-2.1,0.2v0.5c5.4,2.8,13.6,7.1,19.9,10.3
			c5.2,2.7,14.4,6.9,23,10.9l0.3-1.1l0.3-0.3l0-0.6l0.8-1.2c-3.8-1.7-7.8-3.5-11.5-5.2C479.5,383.3,473.7,380.8,468.2,378.4z"/>
		<polygon points="345.5,420.4 347.2,420.3 346.2,419.5 345.5,419.5 345.2,418.6 344.5,418.8 344.8,419 344.8,419.7 		"/>
		<polygon points="338.4,406.9 338.5,407 338.8,407 339.3,406.5 338.8,406.1 338.4,406.6 		"/>
		<polygon points="349.7,420.3 349.8,420.4 351.6,420.4 354.1,421.6 354.5,421.2 354.8,419.9 353.9,419 353.5,418.3 353.1,418.3
			352.2,417.4 351.6,417.4 351.5,417.8 350.3,419 350.3,419.3 349.7,419.7 		"/>
		<polygon points="352.1,414.5 352.1,414.2 351.9,414 351.3,414 351.2,414.2 351.2,414.5 351.3,414.6 351.9,414.6 		"/>
		<polygon points="349.5,404.6 348.9,404.3 348.3,404.6 348.1,405 348.6,405.5 349.8,405.8 350.7,406.7 351.3,406.7 352.1,405.9
			352.4,404.7 351.9,404.3 		"/>
		<polygon fill="#002488" points="338.8,229.8 339,229.7 338.5,229.2 338.3,229.4 338.3,229.7 338.5,229.8 		"/>
		<path fill="#002488" d="M476.3,253.4l-1.5-1.5l-0.3-0.6l0-0.9l-0.8-1.7h-0.3l-0.6-0.6l-1.5,0l-0.5-0.4v-0.9l-0.8-0.4l-1.2-0.6
			l-0.6-0.6h-0.6l-0.9-1.2l-1.5,0l-1.2-1.5l-2.2,0l-0.9-0.6l-0.6,0l-0.8-0.5l0.3-0.3l-0.1-1.1l-1.2,0l-0.9,0.6l-0.9,0l-0.2-0.5
			l-1.1-0.8l-0.6,0l-0.3-0.6l-3.6,0l-0.3-0.3l-0.9,0l-0.3-0.3h-1.8l-0.3-0.3h-0.6l-0.3,0.3l-0.3-0.3l-0.9,0l-0.3,0.3l-1.2,0
			l-0.1,0.4l-0.5,0.2l-1.2-1.5l-3.6,0.3l-1.2-0.6h-1.2l-0.3-0.3l-1.4-0.2l-0.4-0.8l-0.9,0.3l-0.3-0.3l-0.6,0l-1.2-0.6l-1.4-1.4
			l-0.3-0.9l-1.5-1.5l-0.3-0.9l-0.9-0.9v-0.3l-1.5-1.5l0-0.6l-0.6-0.9l-0.9-0.9l-0.9-1.8l-0.6-0.3v-0.6l-0.6-0.9l0-0.1
			c-2.1,1.1-4.6,2.3-5.9,2.7c1-1.2,2-2.4,2.1-4.6c0.3-7.9-7.6-4.6-10.3,3.9c-0.7,2.1-0.9,3-1.2,4.5c-1.5,0-2,0-3.4,0
			c0.2-2.3,0.3-3,0.7-5c2.1-10.9,6.2-18.8,12.8-21.6c2.3-1,4.4-1.2,6.1-0.9l0-1.5l-0.9-1.5l-0.2-0.8h-0.6l-0.5-0.4l0.3-1.2l-0.9-1.2
			l0-1.2l-0.6-1.2v-2.8l-0.8-0.8l-1-0.2l-0.2-0.4l-0.8-0.2l0-0.6l-0.5-0.5l-0.9-0.3l-0.6,0.3l-0.6-0.3l-0.8-0.8l0-0.6l-0.6-0.6
			l-0.4-0.8l-1.2-0.3l-0.6-1.2l-1.2-0.3l-0.9-0.9l-0.6,0.3l-0.4-0.8l-0.5-2.9l-1.2-0.3l-0.6,0.6l-1.2,0l-0.3-0.3l-1.6,0
			c0.7,0.8,1.5,1.7,2.1,2.7c4.9,7.4,5.1,13.9,2,24.5c-1.5,5.3-3,12.9-3.5,16.6c-0.4,3.1-0.6,5.4-0.8,7.4c-1.3,0-3.9,0-5.1,0
			c-0.2-1.3-0.1-1.8-1-7.5c-0.7-4-2.4-11.5-3.9-16.5c-3.2-10.7-2.6-16.8,2.1-24.6c1.6-2.8,4-4.9,5.1-4.8c0.4,0,1,0.3,1.6,0.8
			l0.2-0.3l-0.4-0.5l-1.1-0.4l0.6-1.5l0-0.6l-0.5-0.5l-0.8,0.5l-0.1,0.5l-2.2,0.3l-0.7,0.8l-0.3,1.2l-1.2,1.5l0,1.2l-1.1,0.8h-0.3
			l-1.1,1.1l-0.5,0.8l-0.6,0l-2.1,1.2l-0.9,0.3l-0.9,0.9h-0.9l-0.6,0.3l-0.5,0.5v0.6l-0.9,1.5l-0.8,1.1l-0.6,0.3l-1.5,0l-1.2,0.6
			l-0.8,0.8l-0.3,1.2l-1.4,1.4l-0.9,0l-2.1,2.1l-0.5,0.2l-0.6,3.6l-0.6,0.9l-1.2,1.8l0.5,0.4l0.8,0.2l0.2,1.4
			c2.1-1.5,5.2-1.9,8.9-0.3c6.7,2.8,10.7,10.8,12.8,21.6c0.4,2.1,0.5,2.7,0.7,5c-1.5,0-2,0-3.4,0c-0.3-1.5-0.5-2.4-1.2-4.5
			c-2.3-7.5-8.7-11-10-6.4l0.1,0l0.3,0.3h1.2l0.9,1.2l1.1-0.1v-0.6l-0.6-0.6l0.2-0.1l0.3,0l0.7,0.8l0.6,1.5l0.8,0.8h0.6l0.8,0.8
			l0.3,0.9l0.6,0.6l-0.6,0.3v2.8l-0.5,0.8l-1.1,0.4l0,0.6l1.2,0.6l-0.3,1.5l-0.5,0.1l-0.2,0.4l0.8,0.5l0.6,0l0.2,0.5l-2.6,0.4
			l-0.6,0.6l-1.1,0.1l0.2,0.8l0.8,0.2l-0.5,0.4l-0.6,0l-0.3,0.6h-3.4l-1.2-0.6l-0.3-0.6h-0.3l-0.5,0.5v0.6l-1.7,1.4l-0.5,0.2
			l0.6,0.6l-0.2,0.2l-2.3,1.4v2.4l0.3,0.3l0,1.8l-0.6,0.6l0,1.2l0.3,0.3l0,1.5l-0.9,0.6l0,1.2l-1.4,1.4l-0.9,0.6l-0.1-0.8l-0.5-0.2
			l-0.8,1.1v0.6l0.8,1.1l1.7,0.2l0,1.5l-0.5,0.5h-0.3l-0.3-0.6l-1.5,0l-1.1,1.4l0.3,0.6l0,0.4h110.3l-0.1-0.1L476.3,253.4z
			 M388.5,229.4c3.2,0,15.8,0,19.1,0c0,0.9,0,0.3,0,1.5c-4.4,0-13.7-0.1-19.1-0.1C388.5,230.2,388.5,230,388.5,229.4z M405.8,240.8
			c-2.6-0.3-3.7-0.4-5.4-1.2c0.5,2.6,0.6,3.7,0.7,5.8c-0.3,2.8-0.9,4.8-1.7,6.6c-0.8,1.6-1.5,1.6-2.6,0.1c-0.9-1.9-1.3-2.8-1.6-6.7
			c0,0,0-2.8,0.4-5.8c-1.5,0.7-2.9,1-5.4,1.2c-2.5,0.3-5.1-0.1-5.1-0.1s3-1.6,5-3.7c1.5-1.6,1.6-2.1,2.8-4.8c2.2,0,9.1-0.1,10.5,0
			c1.1,2.8,0.8,2.5,2.3,4.6c1.5,2.2,5.1,4,5.1,4S408.4,241.1,405.8,240.8z"/>
		<polygon fill="#002488" points="322.1,234.1 322.2,233.9 322.2,233.6 322.1,233.5 321.7,233.5 321.6,233.7 321.9,234.1 		"/>
		<polygon fill="#002488" points="323.6,242.6 323.7,242.4 323.7,242.1 323.3,241.7 323,241.7 322.5,242.1 323,242.6 		"/>
		<polygon fill="#002488" points="351.9,233.5 352.2,233.8 354.3,233.8 354.6,234.1 355.9,233.8 356.3,233.3 356.6,231.8 355.5,231
			354.3,231.3 354,230.7 352.5,230.4 352.1,230.9 352.1,231.5 351.4,232.1 351.4,232.4 350.2,233.6 349.9,234.5 351,235
			351.1,234.2 		"/>
		<polygon fill="#002488" points="330.3,236.8 330.6,236.8 330.7,236.7 330.3,236.2 329.7,236.2 329.5,236.4 329.5,237 329.7,237.1
			330,237.1 		"/>
		<path fill="#002488" d="M400.3,176.2L400.3,176.2c0,0,0,0.1,0.1,0.1L400.3,176.2z"/>
		<polygon fill="#002488" points="317.2,237.7 316.9,237.4 316.3,237.4 316.1,237.9 316.6,238.3 317.2,238.3 317.6,237.9
			317.5,237.7 		"/>
		<polygon fill="#002488" points="374.4,232.2 376,232.2 376.1,232.1 375.6,231.3 374,231.5 		"/>
		<polygon fill="#002488" points="318.1,238.3 317.8,238.3 317.3,238.8 317.8,239.2 318.4,239.3 318.5,239.1 318.2,238.8
			318.3,238.5 		"/>
		<polygon fill="#002488" points="315,236.5 314.9,236.6 314.9,237 315.4,237.4 315.7,237.4 316.1,237 316,236.8 315.7,236.8
			315.4,236.5 		"/>
		<polygon fill="#002488" points="320.5,233.5 320.4,233.6 320.4,233.9 321.1,234.7 321.5,234.7 321.6,234.5 321.6,234.2
			320.8,233.5 		"/>
		<polygon fill="#002488" points="319.8,233.3 319.3,232.9 319,232.9 318.5,233.3 318.7,233.5 319.6,233.5 		"/>
		<polygon fill="#002488" points="366.4,255.2 366.2,253.9 365.8,254 365.8,254.6 365.1,254.9 365.1,255.2 365.3,255.3 366.4,255.3
					"/>
		<polygon fill="#002488" points="315.9,234.7 315.8,234.8 315.8,235.1 315.5,235.4 316,235.9 316.3,235.9 316.4,235.8 316.4,235.4
			316.1,235.1 316.1,234.8 		"/>
		<polygon fill="#002488" points="566.4,236 565.5,235.1 566.1,234.8 566.1,234.2 565.7,233.8 565.2,233.6 564.9,232.4 564.1,232.2
			563.8,231.9 563.5,232.2 562.6,232.2 562.3,232.5 561.4,232.5 560.8,233.8 560.2,234.1 558.7,234.1 558,234.4 557.1,235.3
			556.2,235.3 555.9,236.2 554.7,235.9 553.5,237.4 552.3,237.4 551.1,238.6 549.8,238.6 548.6,240.2 547.7,240.2 546.8,241.1
			546.5,241.1 545.6,242 544.3,242.6 543.7,242.6 542.8,243.2 541.9,243.2 541.6,242.9 540.7,242.9 539.6,244 539.3,245.2
			538.9,245.6 536.7,245.6 536.4,246 534.6,245.9 533.8,247 533.5,247.9 532.5,248.4 532,249.1 531.7,249.5 532,249.7 532,251.6
			531.4,252.5 531.4,253.1 532.2,253.9 532.8,253.9 534,252.3 534.6,252.3 534.9,252 537,252 537.9,251.1 539.2,250.5 539.8,249.9
			541,249.6 541.3,249.3 544,249.3 544.3,249 545.3,249 545.6,248.7 546.5,248.7 546.8,248.4 548,248.4 548.3,248.1 549.2,248.1
			549.5,247.8 550.4,247.8 551.1,247.5 552.6,246 552.9,246 554.7,244.4 555,244.4 555.8,243.6 556.2,243.2 557.1,242.9
			557.7,242.3 558.7,242 560.2,240.8 562.6,240.8 563.2,240.2 563.5,240.5 564.1,240.5 565,239.2 565.7,239.2 566.6,238.6
			566.9,238.9 567.7,238.5 567.7,238.2 566.6,236.8 		"/>
		<polygon fill="#002488" points="361.9,254.8 360.5,255.3 362.3,255.3 		"/>
		<polygon fill="#002488" points="364.1,254.8 363.2,255.1 363,255.3 364.6,255.3 		"/>
		<path fill="#002488" d="M342,254.6V254l-0.6-0.9l0.5-0.2l0.8,1.1l0,0.6l-0.3,0.6l-0.2,0.1h2.3v-0.4l0.6-1.2l0-1.2l2.1-1.8
			l-0.3-0.3l0.5-0.1l0.3,0.3l0.8-0.8v-0.3l-0.8-1.1l-0.6-0.3l-1.5,0l-0.3,0.3h-0.6l-0.3,0.3l-1.5,0l-0.3,0.3l-0.9,0l-0.3,0.3l-1.5,0
			l-1.2-1.2l-1.5,0l-0.9-1.2l-0.6-0.3l-2.2,0l-0.6-0.3l-0.2-0.8l1.2-0.9V244l-0.8-0.8l-0.9,0l-0.3-0.3h-0.6l-0.3-0.6h-0.6L330,242
			l-1.5,0.6l-2.1,0l-0.9,0.6L325,243l0.3-0.3l-0.2-0.5l-0.9,0.3l-0.3,0.6l-1.2-0.3l-0.4-0.5v-1.2l-2.6-2.3l-0.8,0.2l0.3,1.2
			l-0.4,0.5l-0.9,0l-0.5-0.8v-0.6l-0.8-0.8l-1.2-0.6l-0.9-0.9l-1.5,0l-0.3-0.3l-0.6,0.3l-0.6-0.6l-2.1,0l-0.3-0.3l-1.5,0l-0.8-0.8
			l-0.3-1.2l0.3-0.3l-0.3-0.6l-0.8-0.4l-0.3-0.6l-0.8-0.2v-0.3l0.6-0.3l-0.5-0.5l-0.6,0l-2-1.7l-0.4-0.8l-0.6,0.3l-0.9,0l-0.3-0.3
			l-0.9,0l-0.9-0.9h-0.6l-0.9-0.6l-1.1,0.7l-0.3,0.9l-0.8,1.1l-1.2,0l-0.3-0.3h-3.1L289,230c0,0.1,0,0.3,0,0.8c-0.5,0-1.2,0-1.8,0
			l-1.1,0.5l-2,0.5v0.5c0.3,0,0.5,0,0.7,0c1.1,2.8,0.8,2.5,2.3,4.6c1.5,2.2,5.1,4,5.1,4s-2.4,0.2-5-0.1c-2.6-0.3-3.7-0.4-5.4-1.2
			c0.5,2.6,0.6,3.7,0.7,5.8c-0.3,2.8-0.9,4.8-1.7,6.6c-0.8,1.6-1.5,1.6-2.6,0.1c-0.6-1.4-1-2.2-1.3-4.1l-1.5,0.4l-0.8,0.8l-0.3,0.6
			l0,1.8l-0.3,0.3l0,0.9l0.3,0.3l0,2.1l-0.1,0.1h67L342,254.6z"/>
		<path fill="#002488" d="M276.7,243.2L276.7,243.2L275,244l-0.3,0.6l0,1.2l1.7,1.1l0.4,0.1c-0.1-0.5-0.1-0.9-0.2-1.5
			C276.6,245.4,276.6,244.5,276.7,243.2z"/>
		<path fill="#002488" d="M283.4,226.8l0.3-0.1c0.1-0.6,0.1-1.1,0.2-1.6l-1.1-1.1l-0.3,0.1c0,0.4-0.1,0.9-0.1,1.3l0,0.6L283.4,226.8
			z"/>
		<polygon fill="#002488" points="370,252.5 370,251.9 369.9,251.7 369,251.7 368.8,251.9 368.8,252.5 368.9,252.7 369.9,252.7
			"/>
		<polygon fill="#002488" points="383,231.6 383.1,231.5 383,231.3 382.4,231.3 382.2,231.5 382.4,231.6 		"/>
		<polygon fill="#002488" points="381.9,231.6 381.7,231.6 381.3,232.1 381.7,232.5 382,232.5 382.2,232.4 382.2,231.9 		"/>
		<path fill="#008000" d="M314.5,303.3c0.1,0.1,0.3,0.1,0.4,0.2c0-0.1,0-0.1,0-0.2L314.5,303.3z"/>
		<path fill="#008000" d="M320.9,304.1c-1.7,0.1-2.4,0.4-2.4,0.8c0,0.1,0,0.3,0.1,0.4c0.2,0.1,0.4,0.2,0.6,0.3
			c2.7,1.4,7.9,3.2,12.5,4.7c0.2-0.1,0.4-0.2,0.6-0.2c0.1,0,0.2-0.1,0.3-0.1c-0.6-0.6-1.2-1.3-1.7-2c-1.4-0.7-2.9-1.6-4-2.3
			C325.3,305.5,323,304.9,320.9,304.1z"/>
		<path fill="#008000" d="M316,302.3c-0.1,0-0.2-0.1-0.3-0.1l0.1,0.2C315.9,302.4,315.9,302.3,316,302.3z"/>
		<polygon fill="#008000" points="318.7,350.9 318.5,350.7 318.5,351.9 		"/>
		<path fill="#008000" d="M330.5,304.3c0.5,0,1.1,0.1,1.6,0.1c0.4,0,0.9,0,1.3,0.1c0.9,1.5,2.5,2.7,4.6,3.6c2.5,0.5,5.2,0.4,8.1-0.1
			c-1-0.6-2.4-1.2-4.2-1.8c-1.2-0.4-2.5-0.9-3.6-1.5c1.1,0,2.2,0,3,0c0.9,0.7,2,1.4,3.2,1.9c0.9,0.4,1.9,0.8,2.9,1.1l2.8-0.6
			c-0.1-0.1-0.3-0.1-0.4-0.2c-1.8-0.7-3.7-1.6-5.3-2.5c2.1-0.3,1.6-0.9-2.3-1.5c-0.1-0.1-0.2-0.1-0.2-0.2c-1.1-0.9-1.8-1.4-2.1-1.6
			c0,0,0-0.1-0.1-0.1c-3-3.4-9.4-16.1-9.4-18.5c0-1.3-0.6-2.2-1.3-2.2c-0.9-0.1-1.1,1.1-0.6,3.1c1.5,6.1,7.5,17,10.3,19.1
			c-0.3,0-0.6-0.1-1-0.1c-1.2-0.1-2.3-0.2-3.4-0.3c0-0.6-1.1-1.8-3.6-4.7c-2.6-2.7-6.1-6.9-7.9-9.1c-1.7-2.2-3.2-3.7-3.2-3.2
			c0,1.3,4.6,10.3,7.4,14.1c0.8,1.1,1.7,2,2.6,2.5c-0.7,0-1.3-0.1-1.9-0.1l2.6,2.5C330.4,304.2,330.4,304.3,330.5,304.3z"/>
		<path fill="#008000" d="M298.7,299.7c0.3-0.3-9-9.3-17.3-16.8l0,1l-0.9,1.5l0,0.9l-0.6,0.9c2.2,1.9,4.8,3.9,8.1,6.1
			C293.5,297,298.4,300,298.7,299.7z"/>
		<path fill="#008000" d="M327.8,342.5c-1.5,1.9-2.5,4.4-2.5,5.7c0,1.5,0.6,1.2,2.2-1.5c1.3-2.1,3.5-4.5,4.9-5.6
			c-0.9-0.1-1.9-0.3-2.8-0.5C329,341,328.3,341.7,327.8,342.5z"/>
		<path fill="#008000" d="M318.4,346.1l0.1,4.2l0.3,0.1l0.9-4c0.8-3.7,1.9-6.2,4.1-8.2c-0.7-0.4-1.4-0.8-2.1-1.3
			C319.3,339.4,318.4,342.2,318.4,346.1z"/>
		<path fill="#008000" d="M288.5,317.5c0.3,0.3-0.1,2.1-0.9,3.8c-0.7,1.8-0.9,3.6-0.6,3.9c0.3,0.5,0.9-0.5,1.3-1.8
			c1.5-5.1,5.8-6.7,16.4-5.7c1.2,0.1,2.5,0.2,3.8,0.4c0.9,0.4,1.8,0.7,2.7,1h-0.4c-1.9,0.2-6.6,1.4-10.1,2.7
			c-7.9,3.1-9.5,4.2-9.5,5.8c0,0.7,0.9,0.6,2.1-0.5c1.1-1.1,5-2.5,8.5-3.3c3.6-0.9,7.9-2.2,9.5-3.1l1.7-0.9c0.2,0.1,0.4,0.1,0.7,0.2
			c0.8,0.2,1.8,0.4,2.9,0.5c-2.4,2.5-4,4.7-4.6,6.9c-13.3,3.8-14.8,5.8-12.6,12.7c0.9,2.8,0.9,2.7,1.1-0.9c0.1-2.1,1.2-4.9,2.4-6.1
			c1.1-1.1,4.3-2.4,8.7-3.6c-0.1,1.1,0,2.3,0.2,3.5c-0.6,0.6-1.1,1.4-1.7,2.2l-3.1,4.8l3.9-3.8c0.5-0.4,0.9-0.8,1.4-1.2
			c0,0.1,0.1,0.2,0.1,0.3l1.9,5.4l-0.5-5.5c0-0.4-0.1-0.9-0.1-1.3c3.9-2.8,7.7-2.9,14.5-1.1c-1.9,0.9-3.5,1.8-4.8,2.8
			c1.3,0.3,2.7,0.4,4.1,0.3c1.3-0.7,2.9-1.3,4.8-1.9c0.5,0.1,0.9,0.3,1.3,0.4c0.8-0.4,1.6-0.8,2.4-1.3c-0.1-0.1-0.2-0.1-0.4-0.2
			c0.5-0.2,1-0.3,1.4-0.5c0.3-0.2,0.6-0.5,1-0.7l2.4-1.8c-1.9,0-5.4,0.5-8.4,1.4c-1.8-0.7-3.6-1.2-5.2-1.5
			c-6.3-1.1-10.2-0.8-13.3,1.5c0.1-0.9,0.2-1.7,0.4-2.4c3.6-0.9,7.8-1.7,12.3-2.5c1.3-0.2,2.4-0.4,3.2-0.7c-1-0.5-1.9-1.1-2.8-1.8
			c-2.4,0.3-6,1.1-11.5,2.6c-0.1,0-0.3,0.1-0.4,0.1c1-2,2.7-3.8,5.2-5.9c1.1,0,2.2-0.1,3-0.3l0.1,0l-2.8-3.7l3.8,2.5
			c3.8,2.5,8.7,2.9,13.7,1.4c-0.3-0.4-1.5-0.9-2.9-1.3c-0.1-0.1-0.3-0.2-0.4-0.3c-1.5-0.9-3.6-2.1-4.4-3.1c-0.6-0.6-1.4-1-2.2-1.3
			c0.3-0.2,0.6-0.5,0.8-0.7c4.5,2.3,9.2,4.4,12.2,5.4c0,0,0.1,0,0.1,0l2.1-0.9c-1.1-0.6-2.9-1.5-5.7-2.5c-2.3-0.9-4.6-1.9-6.7-2.9
			c1.1-0.5,2.4-0.9,3.5-1.2c-0.7-0.6-1.3-1.2-1.9-1.8c-0.1,0-0.2,0.1-0.3,0.1c-0.2,0.1-0.4,0.2-0.6,0.2c-1.1,0.5-2.1,1.1-2.9,1.7
			c-5.4-2.7-9.4-5.2-10.2-6.6c-0.1-0.1-0.1-0.3-0.1-0.4c0-0.4,0.8-0.7,2.4-0.8c1-0.1,2.4-0.1,4.2,0c0,0.1,0,0.1,0.1,0.2
			c0.2,0.4,0.8,0.9,1.7,1.5c1.1,0.7,2.5,1.6,4,2.3c-0.6-0.9-1.2-1.8-1.6-2.6l-1.8-3.7c-1,0-1.9-0.1-2.8-0.1c0.1,0,0.2,0,0.3,0
			c0.9-0.3-1.2-3.8-5.8-9.4c-4.2-4.9-7.7-9.1-8-9.5c-0.3-0.3,0.9,2.3,2.8,5.7c4.2,7.7,8.5,13,10.6,13.2c-2.3,0-4.2,0-5.7,0.2
			c-0.4-1.1-1.7-3.1-3.4-5.5c-5.7-7.9-6.6-8.6-6.6-7.4c0,1.5,6.3,10.3,9,12.9c-0.8,0.1-1.4,0.3-1.8,0.4c0,0-0.1,0-0.2,0.1l-0.1-0.2
			l-2.1-2.3c-5.6-6.1-14.1-17.7-16.8-22.8c-3-5.6-3.3-4.2-0.9,3c0.9,2.8,4.8,8.5,8.5,12.6c3.7,4.2,6.1,7.6,5.5,7.6
			c-1.5,0-11.5-11.8-18.6-22c-7.7-11.2-8-11.5-5.9-5.4c1.1,3,3.4,7.4,5.5,9.7c1.9,2.5,3.1,4.5,2.5,4.5c-1.2,0-6.4-6-12.9-14.5
			c-1.8-2.5-4.3-5.7-5.3-7.1c-1.3-1.5-0.5,0.5,1.6,4.4c3.7,7,18.6,23.2,26.9,29.3c2.2,1.6,6.3,3.3,8.8,3.7l2.2,0.3l0.4,0.1
			c0,0,0,0.1,0,0.2c0.2,1,1.9,2.9,3.9,4.4c2,1.5,5.2,3.4,8.5,5.2c0,0,0,0,0,0c-0.6,0.3-1.3,0.6-2.1,0.9c-4.9-2.9-11-7.2-12.2-8.5
			c-0.9-1-7.1-3.2-15.1-5.7c-1.5-1.2-2-1.3-1.7-0.5c-2.3-0.7-4.7-1.4-7.2-2.1c-0.1-0.6-2.9-2.4-6.5-4.4c0.1-0.2-0.3-0.7-1-1.5
			l-0.4,1v0.6l0.3,0.3l0,2.4l0.5,0.5l1.5,0.3l0.5,0.5l-0.3,0.6l0.2,0.3c0.4,0.1,0.9,0.3,1.3,0.4c0,0.1,0,0.1,0.1,0.2
			c-0.3,0-0.7,0.1-1,0.1l0.1,0.2l0,1.5l-0.3,0.3v0.9c0.7-0.4,1.8-0.7,2.8-0.9c0.2,0.2,0.4,0.5,0.6,0.8c0.1,0.2,0.3,0.3,0.5,0.5
			c-1.1,0.3-2.1,0.7-2.7,1.1c-0.5,0.3-0.8,0.6-1,0.8c-0.1,0-0.2-0.1-0.2-0.1v0.2l0.3,0.3l0,0.9l-0.2,0.4c0.6,0.4,1.3,0.8,2,1.2
			c-1.1,0.1-2.1,0.2-3,0.4l0,1l-0.3,0.3l0.2,0.2c1.8,0,4.3,0.2,7.3,0.5c3.5,1.9,7.3,3.9,11,5.6c-6.4,0-12.6,0.3-16.3,1l0,1.9
			C286.6,317.3,288.2,317.1,288.5,317.5z M294.7,304.4c-0.7-0.5-1.3-0.9-1.9-1.3c1.2-0.2,2.2-0.5,3-0.6c0.4-0.1,0.7-0.2,0.9-0.3
			c0.6,0.2,1.2,0.4,1.8,0.7c0.4,0.5,0.8,1,1.3,1.6c0.8,1,2.2,2.3,3.9,3.6c-2.3-0.6-4.2-1.3-4.8-1.7c-0.2-0.2-0.9-0.3-1.9-0.3
			C296.2,305.5,295.5,304.9,294.7,304.4z M309.7,312.1c0.8,0.5,1.6,0.9,2.4,1.3c1.3,0.7,2.4,1.3,3.4,2c-1.2-0.1-2.5-0.2-3.9-0.3
			c-2-1.1-4.2-2.4-6.5-3.8C306.7,311.5,308.3,311.8,309.7,312.1z M324.9,317c0.5-0.3,0.9-0.7,1.3-1c0.1,0,0.1,0,0.2,0
			c0.6,0.6,1.7,1.3,2.9,2C327.9,317.8,326.4,317.4,324.9,317z M323.2,315.2c-0.5,0.3-1,0.6-1.5,0.9c-1.4-0.7-2.8-1.6-4.3-2.5
			c0.6,0.1,1.1,0.3,1.6,0.4C320.6,314.5,322,314.9,323.2,315.2z M312.1,309.5c-0.1,0.1-0.5,0.1-1.2,0c-2.4-1.6-4.6-3.1-6.6-4.6
			C309.6,307.1,312.8,308.9,312.1,309.5z M289,300.4c1.4,0,1.8-0.1,1-0.5c1.5,0.5,3,1,4.4,1.5c-0.3,0-0.7,0-1.1,0
			c-1,0-1.9,0-2.8,0.1C290,301.1,289.5,300.7,289,300.4z M287.6,304c0.6-0.1,1.2-0.2,1.9-0.3c0.9,0.8,1.8,1.7,2.7,2.5
			c-1.2,0.1-2.5,0.2-3.8,0.4c-1.1-0.7-2.3-1.4-3.5-2.2C285.5,304.3,286.3,304.2,287.6,304z M299.6,312.1c-0.6,0.2-2.8-0.7-6-2.5
			c1.4,0.2,2.8,0.4,4.3,0.6C299.3,311.2,300,311.9,299.6,312.1z"/>
		<path fill="#008000" d="M474.6,362.9c2.4,0.6,4.8,1.1,7.4,1.7l-0.3-0.3h-0.6l-0.6-0.6l-0.6,0l0-1.2h-0.6l-0.3,0.3l-0.9-0.3
			l-0.6-0.6l-1.2,0.3l-0.6-0.6l-1.4-0.5l-0.3-0.3l-0.1-0.5c-0.5-0.1-0.9-0.2-1.4-0.4L474.6,362.9z"/>
		<path fill="#008000" d="M471.5,361.4c-3.1-2-6.8-2.6-10.8-2l-0.1,0.1c2.8,0.8,7.4,1.9,12.7,3.2L471.5,361.4z"/>
		<path fill="#008000" d="M459.6,360.5L459.6,360.5l-0.3,0.6l-0.9,1.2l0,0.2c4.9,1.6,15.5,4.4,25.7,7.2l-0.1-0.1l0.3-1.5l-0.6-0.3
			l0-0.4c0,0,0,0-0.1,0C475.7,365.3,465.1,362.1,459.6,360.5z"/>
		<path fill="#008000" d="M466.7,375.4l1.5,3c5.5,2.4,11.3,4.9,16.3,7.1c3.8,1.7,7.7,3.5,11.5,5.2l0.4-0.6v-1.8l0.3-0.3
			c-8.4-3.4-17-6.8-22-9.1C472.2,377.9,469.5,376.6,466.7,375.4z"/>
		<path fill="#008000" d="M458,363.4l-0.4,0.4l-1.7,0.8l0.1,0.7c7,2.6,22.7,7.5,34.3,11.6c0.9,0.3,1.9,0.7,2.8,1l-0.9-0.9l-1.5-0.9
			l-1.8-0.6l-0.4-1.4l-0.2-0.2c-3.2-1-6-1.9-8.2-2.7C473,368.7,463.7,365.3,458,363.4z"/>
		<path fill="#008000" d="M461,368.3c1.5,1.2,2.8,2.5,3.9,3.9c7.1,2.8,15.5,6,22.5,8.9c3.1,1.3,6.3,2.6,9.4,3.9l0-1l-0.9-1.8l0-0.2
			c-7.2-2.6-14.1-5.2-18.4-6.9C472.3,373,466.1,370.5,461,368.3z"/>
		<path fill="#008000" d="M453.7,372.1c3.5,1.6,8.3,3.6,13.4,5.8l-1.6-1.6C462.6,373.5,458.4,372,453.7,372.1z"/>
		<path fill="#008000" d="M451.7,372.8v1.5l-0.3,0.3l0,0.7c7.4,3.8,20.1,9.9,29.7,14.9c3.9,2,8,4.2,11.9,6.2l1.1-0.6l0.5-1.8
			c-8.6-4-17.8-8.3-23-10.9C465.3,379.9,457.1,375.5,451.7,372.8z"/>
		<polygon fill="#FCDD09" points="363.6,278.1 363.8,278.2 364.1,278.2 364.4,278.5 364.5,278.4 364.5,277.8 364.4,277.6
			364.1,277.6 		"/>
		<path fill="#FCDD09" d="M426.6,269.1l2.8-3.6l-4.1,2.6c-4.4,2.6-8.3,8.5-9.5,14.2l-0.1,0.6l0.1-0.1l2.1,0l0.3-0.3l1.2-0.6l1.2-1.5
			l1.2-0.6l0.3,0l0.9,0.9l0.4,0.2C423,276.4,424.1,272.2,426.6,269.1z"/>
		<path fill="#FCDD09" d="M411.2,264.7l2.1-4.1l-3.5,3.3c-3.7,3.5-6.3,10.1-6.3,15.8v3.3l-3.2-3.5c-4.6-4.9-6.4-10.8-5-16.1l1.1-4.4
			l-2.7,4c-2.9,4.2-4.1,11.2-2.9,16.8l0.7,3.2l-3.8-2.7c-5.5-3.8-8.5-9.1-8.2-14.7l0.2-4.5l-1.8,4.4c-1.8,4.4-1.7,10.9,0.2,16
			l0.4-0.3l1.5,0l0.6-0.3l0.6-0.3l1.1,0.8l0.2,2.9l1.5,0.3l0.3,0.3l1.2,0l0.3,0.3l4.6,0l0.6,0.6l1.2,0.6l2.4,0.3l0.6,0.6l0.6,0.3
			l1.2,0l0.3,0.3l1.5,0l1.2-0.9l0.6-0.3l3,0l0.3-0.3h0.6l1.2-0.6l1.2-1.8l0.6-0.3l1.8,0l0.3-0.3h1.8l0.6,0.6l0.6,0l0.3-0.3l0.3,0.3
			l0.6-0.4l-1.3-2.2C409.3,275.7,408.7,269.5,411.2,264.7z"/>
		<path fill="#FCDD09" d="M356.6,405l-0.2-0.2l0.3-0.3l-0.3-0.6l-0.5-0.4h-0.3c-0.1,0.1-0.3,0.2-0.4,0.4l-0.1,0.7l-0.3,0.6l-0.6,0.3
			l0,0.5l1.8-0.6C356.2,405.1,356.4,405.1,356.6,405z"/>
		<path fill="#FCDD09" d="M363.5,266.6l-0.9,4.8c-0.2,1.2-0.3,2.6-0.2,4l0.3-0.1v-0.6l-0.3-0.3l0.2-0.2l1.5,0l0.6,0.9l0.6,0.3l0.4,0
			c-0.7-1.3-1.2-2.8-1.4-4.3L363.5,266.6z"/>
		<path fill="#FCDD09" d="M359.7,402.6l-1.1-0.5l-0.8,1.7l-0.1,0.6c0.6-0.3,1.3-0.7,1.9-1.1L359.7,402.6z"/>
		<path fill="#FCDD09" d="M369.4,281.1l0.4,0.8l1.7-0.1c-0.8-0.5-1.5-1.1-2.2-1.6V281.1z"/>
		<polygon fill="#FCDD09" points="365.1,277.8 365.1,278.1 366.2,278.8 366.8,278.8 367.3,278.4 366.8,277.9 366.5,278.2
			365.6,277.6 		"/>
		<path fill="#FCDD09" d="M339.2,290.8l-2.5-3.8l1.2,4.7c1.1,5,5.6,10.5,10.5,13.4l2.9,1.7l-1.1,0.3l-2.8,0.6l-0.7,0.1
			c-0.2,0.1-0.4,0.1-0.7,0.1c-2.9,0.6-5.6,0.6-8.1,0.1c-2.9-0.6-5.5-1.8-7.5-3.8c-0.1-0.1-0.1-0.1-0.2-0.2l-2.6-2.5l-0.7-0.6
			l0.3,0.6l1.8,3.7c0.4,0.9,1,1.8,1.6,2.6c0.5,0.7,1.1,1.3,1.7,2c0.6,0.6,1.2,1.2,1.9,1.8c2.3,2,5.1,3.6,7.9,4.5l3.2,1l-2.2,1
			l-2.1,0.9c0,0-0.1,0-0.1,0c-1,0.5-2,0.9-3.1,1.2c-5,1.5-9.9,1.1-13.7-1.4l-3.8-2.5l2.8,3.7l0.1,0.2c0.9,1.2,2,2.3,3.3,3.3
			c0.9,0.7,1.8,1.3,2.8,1.8c2.8,1.5,5.9,2.6,8.9,2.9l3.3,0.3l-1.4,1l-2.4,1.8c-0.3,0.2-0.6,0.5-1,0.7c-0.4,0.2-0.7,0.5-1.1,0.7
			c-0.8,0.5-1.6,0.9-2.4,1.3c-2,0.9-4.1,1.4-6.1,1.6c-1.4,0.1-2.8,0-4.1-0.3c-0.6-0.1-1.2-0.3-1.9-0.6l-4.3-1.6l3.7,3.1
			c0.2,0.2,0.5,0.4,0.7,0.6c0.6,0.5,1.3,0.9,2.1,1.3c1.7,1,3.7,1.7,5.8,2.2c0.9,0.2,1.9,0.4,2.8,0.5c1.7,0.2,3.4,0.2,5,0.1l3.3-0.3
			l-3.2,3.5c-4.4,5.1-10,7.5-15.5,6.7l-3.3-0.5l-0.3-0.1l-0.9-0.1l0.9,0.5l0.2,0.1l3.1,1.7c4.4,2.5,11.5,2.9,17,1.1l3.2-1l-2.3,4.1
			c-3.2,5.9-8.2,9.5-13.8,9.7l-4.5,0.3l4.6,1.4c4.9,1.5,11.9,0.4,16.8-2.4l1-0.6v-0.9l0.7-1.1l0.6,0l1.2-0.6l1.1-0.8l0.3-0.6l0-0.9
			l0.8-0.8l0.6,0l1.2-1.5l1.2-0.6l0.3-0.6l1.2-0.3l0.2-0.8l0.5-0.5l0.6,0l0.9-0.6l0.5-1.1l1.1-1.1l1.5-0.3l1.2-1.5l0.5-0.1l0.3-0.6
			l0-0.9l1.5-1.5l0-1.8l0.3-0.3l0-1.2l1.2-1.5v-0.3l1.2-0.9l0.6-1.2l-0.3-1.5l-1.2-1.2l-0.6-1.2l0-1.8l0.3-0.3l0-1.2l0.3-0.3l0-1.2
			l-0.3-0.3V328l0.3-0.3l0-2.8l-0.6-0.9l-0.3-1.8l-0.6-0.6l0.3-0.9l-0.5-0.8l-1.7-0.8l-0.6-1.2l0-2.1l0.3-0.3l0-0.6l0.8-0.8l0.6,0
			l1.7-1.3l0-1.5l-0.3-0.3l-0.4-0.8l-1.5,0l-0.9-0.6l-1.2-0.3l-0.8-0.8l-0.9-1.8l0.6-0.3l0-1.2l0.6-0.6V304l-0.4-0.8l-1.8-0.3
			l-0.5-0.4l0-1.5l-0.6-0.6l0-0.6l-0.3-0.3l0-1.5l0,0h0C347.7,298,342.2,295.4,339.2,290.8z"/>
		<path fill="#FCDD09" d="M350.6,279.7l-1.6-4.3l0.2,4.9c0.1,3.4,1.5,7.4,3.7,10.8l-0.2-1.4l-0.3-0.6l0.3-0.3l0-0.9l0.3-0.6l1.1-1.1
			h0.3l0.5-0.6C352.9,283.9,351.5,282,350.6,279.7z"/>
		<path fill="#FCDD09" d="M356.3,295.2l0-0.7l-0.8-0.8h-0.6C355.4,294.3,355.8,294.8,356.3,295.2z"/>
		<polygon fill="#FCDD09" points="364.4,275.8 364.2,276 364.2,276.3 364.4,276.4 365,276.4 365.1,276.2 365.1,275.9 365,275.8
			"/>
		<polygon fill="#FCDD09" points="389.2,287.5 389.2,287.2 388.7,286.8 388.1,286.8 388,286.9 388,287.5 388.1,287.7 389,287.7
			"/>
		<polygon fill="#FCDD09" points="358.3,293.2 358,293.2 357.8,293.3 357.8,293.6 358.3,294.1 358.7,293.6 		"/>
		<polygon fill="#FCDD09" points="362.4,304.6 362.4,304.9 362.6,305 362.9,305 363,304.9 363,304.6 362.9,304.4 362.6,304.4 		"/>
		<path fill="#FCDD09" d="M456.6,389.8l2.5,3.8l-1.2-4.7c-0.9-3.9-3.9-8.2-7.5-11.3l-1.6,1.1l-2.1,0.9L445,381l-0.3,1.2l0.3,0.3
			l0,0.5C450.1,383.7,454.2,386.1,456.6,389.8z"/>
		<path fill="#FCDD09" d="M471.5,361.4l1.9,1.2l2,1.3l-0.8-1l-2.2-2.9l0,0c-0.2-0.3-0.4-0.5-0.6-0.8l-0.2-0.1l-0.4-0.3l-0.8-0.6
			l-1.2,0l-0.3-0.3h-0.6l-0.9-0.9l-0.6,0l-0.9,0.9l-0.6,0l-0.3,0.3h-3.1l-0.6,0.3l-0.1,0.5l-0.3,0.3
			C464.7,358.8,468.4,359.4,471.5,361.4z"/>
		<path fill="#FCDD09" d="M465.5,376.4l1.6,1.6l1.6,1.6l-0.6-1.1l-1.5-3l-0.1-0.2c-0.5-1-1.1-2-1.8-2.9c-1.1-1.4-2.4-2.7-3.9-3.9
			c-1.5-1.2-3.2-2.3-4.9-3.1l0.2,0.8l-0.3,0.3l0,0.6l-0.5,0.5L454,368l-2.5,0.3l0.2,2.3l-0.3,0.3l0,0.6l0.3,0.3v0.4
			c0.7-0.1,1.4-0.1,2.1-0.2C458.4,372,462.6,373.5,465.5,376.4z"/>
		<path fill="#FCDD09" d="M407.6,229.4c-3.2,0-15.8,0-19.1,0c0,0.6,0,0.9,0,1.4c5.4,0,14.6,0.1,19.1,0.1
			C407.6,229.7,407.6,230.2,407.6,229.4z"/>
		<path fill="#FCDD09" d="M392.6,179.4c-4.7,7.8-5.3,13.9-2.1,24.6c1.5,5,3.2,12.5,3.9,16.5c0.9,5.7,0.9,6.2,1,7.5
			c1.2,0,3.8,0,5.1,0c0.2-2,0.3-4.3,0.8-7.4c0.5-3.7,2-11.3,3.5-16.6c3.2-10.6,2.9-17.1-2-24.5c-0.7-1-1.4-1.9-2.1-2.7l-0.2,0
			l-0.2-0.5c0,0-0.1-0.1-0.1-0.1l-0.2,0l-0.6,0.6l-0.4-0.8l0.4-0.7c-0.7-0.5-1.2-0.8-1.6-0.8C396.6,174.5,394.2,176.5,392.6,179.4z"
			/>
		<path fill="#FCDD09" d="M389.2,223.4c0.7,2.1,0.9,3,1.2,4.5c1.5,0,2,0,3.4,0c-0.2-2.3-0.3-3-0.7-5c-2.1-10.9-6.2-18.8-12.8-21.6
			c-3.7-1.6-6.7-1.2-8.9,0.3l0.1,0.7l0.3,0.3v0.6l0.9,0.9l0,1.8l-0.3,0.3l0,0.9l0.3,0.3l0,0.6l1.2,1.5l0,0.9l0.3,0.3l0.3,1.5
			l0.3,0.3l0,0.9l0.6,1.5l0.8,0.8h0.6l1.2,0.6l0.6,0.6l0.5,0C380.5,212.4,386.9,215.9,389.2,223.4z"/>
		<path fill="#FCDD09" d="M405.7,236.9c-1.5-2.1-1.2-1.8-2.3-4.6c-1.4-0.1-8.3,0-10.5,0c-1.2,2.7-1.3,3.2-2.8,4.8
			c-2,2.1-5,3.7-5,3.7s2.6,0.3,5.1,0.1c2.5-0.2,3.8-0.5,5.4-1.2c-0.4,3-0.4,5.8-0.4,5.8c0.3,3.8,0.8,4.8,1.6,6.7
			c1.1,1.5,1.8,1.5,2.6-0.1c0.9-1.8,1.5-3.8,1.7-6.6c-0.1-2.1-0.2-3.2-0.7-5.8c1.7,0.8,2.8,0.9,5.4,1.2c2.6,0.3,5,0.1,5,0.1
			S407.2,239.1,405.7,236.9z"/>
		<path fill="#FCDD09" d="M415.7,201.2c-6.7,2.8-10.7,10.8-12.8,21.6c-0.4,2.1-0.5,2.7-0.7,5c1.5,0,2,0,3.4,0
			c0.3-1.5,0.5-2.4,1.2-4.5c2.6-8.5,10.6-11.9,10.3-3.9c-0.1,2.2-1,3.4-2.1,4.6c1.2-0.3,3.8-1.5,5.9-2.7l0-0.9l-0.3-0.3l-0.6-0.9
			l0.3-4l0.3-0.3v-2.5l-0.3-0.3l0-0.6l1.2-0.9l0.6-2.1l-0.6-0.6l1.2-0.9l0-1.2l0.3-0.3l-0.3-0.3l0-0.9l-0.3-0.3v-2.4l-0.6-0.9l0-0.3
			C420,200,418,200.3,415.7,201.2z"/>
		<path fill="#FCDD09" d="M283.8,226.6l0-1.5l0,0c-0.1,0.5-0.1,1-0.2,1.6L283.8,226.6z"/>
		<path fill="#FCDD09" d="M280.8,252c0.9-1.8,1.5-3.8,1.7-6.6c-0.1-2.1-0.2-3.2-0.7-5.8c1.7,0.8,2.8,0.9,5.4,1.2
			c2.6,0.3,5,0.1,5,0.1s-3.6-1.8-5.1-4c-1.5-2.1-1.2-1.8-2.3-4.6c-0.2,0-0.4,0-0.7,0v0.1l-0.9,0.9l0.3,0.3l0,0.9l-0.5,0.5l-2.1,0.9
			l-1.4,1.3l0,1.8l0.6,0.6l-0.3,1.8l-0.5,0.5l-2.7,1.2c-0.1,1.3-0.1,2.2-0.1,2.2c0.1,0.6,0.1,1.1,0.2,1.5l0.4,0.1v0.9l-0.2,0.1
			c0.3,1.9,0.7,2.7,1.3,4.1C279.4,253.6,280,253.6,280.8,252z"/>
		<path fill="#FCDD09" d="M282.3,224.2l0,1.2c0-0.4,0.1-0.8,0.1-1.3L282.3,224.2z"/>
		<polygon fill="#FCDD09" points="288.9,220.7 289,220.5 289,220.2 288.5,219.8 288.3,219.8 288.1,219.9 288.1,220.5 288.3,220.7
			"/>
		<path fill="#FCDD09" d="M289,230l-0.2,0.1l-0.9,0l-0.6,0.6l-0.1,0.1c0.7,0,1.3,0,1.8,0C289,230.3,289,230.1,289,230z"/>
	</g>

		<path fill="none" stroke="#999999" stroke-width="0.25" stroke-linecap="round" stroke-linejoin="round" stroke-miterlimit="10" d="
		M359.7,406.6l0-0.6l0.6-0.6l0.3-1.2l-0.9-0.6l0-0.9l-1.1-0.5l-0.8,1.7l-0.3,1.8l-0.8,0.4l-0.2-1.1l-0.3-0.3l0.3-0.3l-0.3-0.6
		l-0.5-0.4h-0.6l-0.2,1.1l-0.3,0.6l-0.6,0.3l0,0.6l0.9,1.5v0.6l-0.6,0.6l-0.5,0.8h-0.9l-0.6-0.3l-0.3,0.3l-2.4,0l-0.3-0.3l-0.6,0
		l-0.2,0.2l0.3,0.6l-0.3,0.6l-0.5,0.5l-1.2,0l-0.8,1.1l0.4,0.5l0.6,0l0.6-0.3l0.6,0.9l1.2,0.3l0.3,0.3l1.8,0l0.8-0.8v-0.6l0.5-0.5
		l0.6,0.3l2.4,0l0.3,0.6l0.3,0l0.8-0.8v-0.3l-0.6-0.6l0-1.5l1.1-1.1l1.4-0.2l0.2-0.5h0.6l1-0.8l-0.1-0.4L359.7,406.6z M316.3,235.9
		l0.2-0.1l0-0.3l-0.3-0.3v-0.3l-0.2-0.1l-0.1,0.1v0.3l-0.3,0.3l0.5,0.5H316.3z M340.7,411.3l-0.6-0.3l-0.2-0.8l0.6-0.6l0-0.6
		l-0.4-0.2l-1.2-0.6l-1.5,0l-0.3-0.3l-0.6,0l-0.3-0.9l-0.8,0.2l-0.3,1.2l-1.4,1.7l-2,0.4l0,1.5l-0.3,0.3l0,0.6l-0.6,0.6l0,0.9
		l-0.6,0.6v0.6l2.3,0.5l1.5,1.2l2.1,0.9l1.2,0l0.9-0.6l0.3,0l1.1-1.4l0-0.6l1.2-1.2v-0.6l0.5-0.8l0.3,0.9l1.2,0l0.1-0.5l0.6-0.3
		l0-1.2l-1.1-0.8L340.7,411.3z M315.7,237.4l0.5-0.4l-0.2-0.1l-0.3,0l-0.3-0.3H315l-0.2,0.1v0.3l0.5,0.5L315.7,237.4z M288.9,220.7
		l0.1-0.2v-0.3l-0.5-0.5h-0.3l-0.2,0.2v0.6l0.2,0.2H288.9z M352.1,414.5v-0.3l-0.2-0.2h-0.6l-0.2,0.1v0.3l0.2,0.2h0.6L352.1,414.5z
		 M339.3,406.5l-0.4-0.5l-0.5,0.5v0.3l0.1,0.2h0.3L339.3,406.5z M353.5,418.3h-0.3l-0.9-0.9h-0.6l-0.2,0.5l-1.2,1.2l0,0.3l-0.6,0.3
		l0,0.6l0.2,0.2l1.8,0l2.4,1.2l0.5-0.5l0.3-1.2l-0.9-0.9L353.5,418.3z M345.5,419.5l-0.3-0.9l-0.8,0.2l0.3,0.3l0,0.6l0.8,0.8
		l1.7-0.2l-1.1-0.8L345.5,419.5z M279.7,297.7h-0.9l-0.5,0.5v0.3l0.2,0.2l1.5,0l0.2-1l-0.2-0.2L279.7,297.7z M316.1,237.9l0.5,0.5
		h0.6l0.4-0.5l-0.1-0.2h-0.3l-0.3-0.3h-0.6L316.1,237.9z M323.6,242.6l0.2-0.1l0-0.3l-0.5-0.5H323l-0.5,0.5l0.5,0.4H323.6z
		 M330,237.1l0.3-0.3h0.3l0.2-0.1l-0.5-0.5l-0.6,0l-0.2,0.1v0.6l0.2,0.2H330z M366.7,255.8l-0.3-0.6l-0.1-1.4l-0.5,0.1l0,0.6
		l-0.6,0.3v0.3l1.1,0.8L366.7,255.8z M351.1,234.2l0.8-0.8l0.3,0.3h2.2l0.3,0.3l1.2-0.3l0.4-0.5l0.3-1.5l-1.1-0.8l-1.2,0.3l-0.3-0.6
		l-1.5-0.3l-0.5,0.5v0.6l-0.6,0.6v0.3l-1.2,1.2l-0.3,0.9l1.1,0.5L351.1,234.2z M338.8,229.8l0.2-0.2l-0.5-0.5l-0.2,0.2v0.3l0.2,0.1
		H338.8z M317.8,239.2l0.6,0l0.2-0.2l-0.3-0.3l0-0.3l-0.2-0.1h-0.3l-0.5,0.4L317.8,239.2z M319.6,233.5l0.2-0.1l-0.5-0.5H319
		l-0.5,0.5l0.2,0.2H319.6z M322.1,234.1l0.2-0.2v-0.3l-0.2-0.1l-0.3,0l-0.2,0.3l0.3,0.4L322.1,234.1z M321.5,234.7l0.2-0.1v-0.3
		l-0.8-0.8h-0.3l-0.2,0.2v0.3l0.8,0.8H321.5z M283.4,226.8l0.5-0.2l0-1.5l-1.1-1.1l-0.5,0.2l0,1.8L283.4,226.8z M503.8,269.7
		l-0.1-0.8l-0.4-0.5l-1.2,0l-2.4-1.8l-1.5,0l-0.6,0.3l-1.5-1.2l-0.6,0l-0.6,0.9l-1.2,0l-0.3-0.3h-0.6l-0.6-0.6l-0.6,0l-0.6-0.6
		l-1.2-0.3l-1.2-1.2l-0.9,0l-0.3-0.3l-1.5-0.3l-0.3-0.3l-0.9,0l-0.3-0.3l-2.1-0.6l-0.9-1.2l-0.9-0.3l-0.8-0.8l-0.5-0.8l-0.5-0.2
		l0-0.6l-0.6-0.3l0-1.2l-0.6-1.2l-0.9-1.8l-1.5-1.5l-0.3-0.6l0-0.9l-0.8-1.7h-0.3l-0.6-0.6l-1.5,0l-0.5-0.4v-0.9l-0.8-0.4l-1.2-0.6
		l-0.6-0.6h-0.6l-0.9-1.2l-1.5,0l-1.2-1.5l-2.2,0l-0.9-0.6l-0.6,0l-0.8-0.5l0.3-0.3l-0.1-1.1l-1.2,0l-0.9,0.6l-0.9,0l-0.2-0.5
		l-1.1-0.8l-0.6,0l-0.3-0.6l-3.6,0l-0.3-0.3l-0.9,0l-0.3-0.3h-1.8l-0.3-0.3h-0.6l-0.3,0.3l-0.3-0.3l-0.9,0l-0.3,0.3l-1.2,0l-0.1,0.4
		l-0.5,0.2l-1.2-1.5l-3.6,0.3l-1.2-0.6h-1.2l-0.3-0.3l-1.4-0.2l-0.4-0.8l-0.9,0.3l-0.3-0.3l-0.6,0l-1.2-0.6l-1.4-1.4l-0.3-0.9
		l-1.5-1.5l-0.3-0.9l-0.9-0.9v-0.3l-1.5-1.5l0-0.6l-0.6-0.9l-0.9-0.9l-0.9-1.8l-0.6-0.3v-0.6l-0.6-0.9l0-0.9l-0.3-0.3l-0.6-0.9
		l0.3-4l0.3-0.3v-2.5l-0.3-0.3l0-0.6l1.2-0.9l0.6-2.1l-0.6-0.6l1.2-0.9l0-1.2l0.3-0.3l-0.3-0.3l0-0.9l-0.3-0.3v-2.4l-0.6-0.9l0-1.8
		l-0.9-1.5l-0.2-0.8h-0.6l-0.5-0.4l0.3-1.2l-0.9-1.2l0-1.2l-0.6-1.2v-2.8l-0.8-0.8l-1-0.2l-0.2-0.4l-0.8-0.2l0-0.6l-0.5-0.5
		l-0.9-0.3l-0.6,0.3l-0.6-0.3l-0.8-0.8l0-0.6l-0.6-0.6l-0.4-0.8l-1.2-0.3l-0.6-1.2l-1.2-0.3l-0.9-0.9l-0.6,0.3l-0.4-0.8l-0.5-2.9
		l-1.2-0.3l-0.6,0.6l-1.2,0l-0.3-0.3l-1.8,0l-0.3-0.6l-0.3,0l-0.6,0.6l-0.4-0.8l0.6-0.9l-0.4-0.5l-1.1-0.4l0.6-1.5l0-0.6l-0.5-0.5
		l-0.8,0.5l-0.1,0.5l-2.2,0.3l-0.7,0.8l-0.3,1.2l-1.2,1.5l0,1.2l-1.1,0.8h-0.3l-1.1,1.1l-0.5,0.8l-0.6,0l-2.1,1.2l-0.9,0.3l-0.9,0.9
		h-0.9l-0.6,0.3l-0.5,0.5v0.6l-0.9,1.5l-0.8,1.1l-0.6,0.3l-1.5,0l-1.2,0.6l-0.8,0.8l-0.3,1.2l-1.4,1.4l-0.9,0l-2.1,2.1l-0.5,0.2
		l-0.6,3.6l-0.6,0.9l-1.2,1.8l0.5,0.4l0.8,0.2l0.3,2.1l0.3,0.3v0.6l0.9,0.9l0,1.8l-0.3,0.3l0,0.9l0.3,0.3l0,0.6l1.2,1.5l0,0.9
		l0.3,0.3l0.3,1.5l0.3,0.3l0,0.9l0.6,1.5l0.8,0.8h0.6l1.2,0.6l0.6,0.6l0.6,0l0.3,0.3h1.2l0.9,1.2l1.1-0.1v-0.6l-0.6-0.6l0.2-0.1
		l0.3,0l0.7,0.8l0.6,1.5l0.8,0.8h0.6l0.8,0.8l0.3,0.9l0.6,0.6l-0.6,0.3v2.8l-0.5,0.8l-1.1,0.4l0,0.6l1.2,0.6l-0.3,1.5l-0.5,0.1
		l-0.2,0.4l0.8,0.5l0.6,0l0.2,0.5l-2.6,0.4l-0.6,0.6l-1.1,0.1l0.2,0.8l0.8,0.2l-0.5,0.4l-0.6,0l-0.3,0.6h-3.4l-1.2-0.6l-0.3-0.6
		h-0.3l-0.5,0.5v0.6l-1.7,1.4l-0.5,0.2l0.6,0.6l-0.2,0.2l-2.3,1.4v2.4l0.3,0.3l0,1.8l-0.6,0.6l0,1.2l0.3,0.3l0,1.5l-0.9,0.6l0,1.2
		l-1.4,1.4l-0.9,0.6l-0.1-0.8l-0.5-0.2l-0.8,1.1v0.6l0.8,1.1l1.7,0.2l0,1.5l-0.5,0.5h-0.3l-0.3-0.6l-1.5,0l-1.1,1.4l0.3,0.6l0,1.5
		l-0.3,0.3l0.6,0.6l-0.5,0.4l-0.7-0.4l0-0.9l-0.8-0.8H365l-0.9-0.9l-0.9,0.3l-0.3,0.6l-0.5-0.1l-0.4-0.8l-1.5,0.6l-0.8,0.5l-0.1,0.8
		l-1.2,0l-0.6-1.2l-0.9,0l-0.6,0.3l-0.5,0.4l0,0.3l0.6,0.3l0,0.9l-0.6,0.6v0.3l-1.2,0.9l0,1.2l-0.7,0.4l-0.9,0l-0.6,0.6l-1.5,0.3
		l-0.3-0.3h-0.9l-0.7-0.8l0-0.3l1.2-0.9l0-1.2l-0.3-0.3l0-0.9l0.3-0.6l-0.8-0.2l-0.5,0.5v0.6l-0.6,0.6l-0.3,0.6l0,0.9l-1.1,0.1
		l-0.2,0.8l-0.5,0.5l-0.6,0.3l-1.5,0l-0.1-1.1l0.9-1.2l0-1.5l-1.4-0.2l-0.3,0.3h-1.2l-0.9,0.6l-1.2,0l-0.5-0.4l0-1.2l1.1-0.8h0.3
		l1.4-1.4V254l-0.6-0.9l0.5-0.2l0.8,1.1l0,0.6l-0.3,0.6l-0.9,0.6v0.3l0.5,0.5l1.8-0.3l0.2-0.5l0.6-0.3v-0.6l0.6-1.2l0-1.2l2.1-1.8
		l-0.3-0.3l0.5-0.1l0.3,0.3l0.8-0.8v-0.3l-0.8-1.1l-0.6-0.3l-1.5,0l-0.3,0.3h-0.6l-0.3,0.3l-1.5,0l-0.3,0.3l-0.9,0l-0.3,0.3l-1.5,0
		l-1.2-1.2l-1.5,0l-0.9-1.2l-0.6-0.3l-2.2,0l-0.6-0.3l-0.2-0.8l1.2-0.9V244l-0.8-0.8l-0.9,0l-0.3-0.3h-0.6l-0.3-0.6h-0.6L330,242
		l-1.5,0.6l-2.1,0l-0.9,0.6L325,243l0.3-0.3l-0.2-0.5l-0.9,0.3l-0.3,0.6l-1.2-0.3l-0.4-0.5v-1.2l-2.6-2.3l-0.8,0.2l0.3,1.2l-0.4,0.5
		l-0.9,0l-0.5-0.8v-0.6l-0.8-0.8l-1.2-0.6l-0.9-0.9l-1.5,0l-0.3-0.3l-0.6,0.3l-0.6-0.6l-2.1,0l-0.3-0.3l-1.5,0l-0.8-0.8l-0.3-1.2
		l0.3-0.3l-0.3-0.6l-0.8-0.4l-0.3-0.6l-0.8-0.2v-0.3l0.6-0.3l-0.5-0.5l-0.6,0l-2-1.7l-0.4-0.8l-0.6,0.3l-0.9,0l-0.3-0.3l-0.9,0
		l-0.9-0.9h-0.6l-0.9-0.6l-1.1,0.7l-0.3,0.9l-0.8,1.1l-1.2,0l-0.3-0.3h-3.1l-0.9,0.6l-0.9,0l-0.6,0.6l-1.2,0.6l-2,0.5v0.6l-0.9,0.9
		l0.3,0.3l0,0.9l-0.5,0.5l-2.1,0.9l-1.4,1.3l0,1.8l0.6,0.6l-0.3,1.8l-0.5,0.5l-2.8,1.2L275,244l-0.3,0.6l0,1.2l1.7,1.1l0.8,0.2v0.9
		l-1.7,0.4l-0.8,0.8l-0.3,0.6l0,1.8l-0.3,0.3l0,0.9l0.3,0.3l0,2.1l-0.6,0.9l0,0.9l0.3,0.3l0,0.6l-1,1.1l-1.1,0.4l0,1.2l0.6,0.6
		l0,0.9l0.6,1.2l-0.3,0.3l0,1.5l1.2,2.4l0,0.9l0.6,0.9l0,1.2l1.1,1.1l0.5,0.2l0,0.6l0.6,0.3l0.1,0.5l1.4,0.8l0.6,1.5l1.1,1.1h0.3
		l0.5,0.8l0,2.4l0.9,1.5l-0.3,0.6l0,1.8l-0.9,1.5l0,0.9l-0.6,0.9l0,1.5l1.8,2.2l-0.6,1.5v0.6l0.3,0.3l0,2.4l0.5,0.5l1.5,0.3l0.5,0.5
		l-0.3,0.6l0.6,1.2l0,1.5l-0.3,0.3v3.3l0.3,0.3l0,0.9l-0.6,1.2l-0.6,0.6l0,1.2l-0.3,0.3l0.5,0.4l0.6,0.3l0.9,0l1.4,1.7l0,1.8
		l-1.2,0.9l0,5.8l0.3,0.3v1.5l-0.6,0.6l0.3,0.3l0.2,0.5l0.5,0.1l-0.3,1.2l0.6,0.3l-0.3,2.1l0.4,0.5l1.7,0.2l-0.9,0.9v0.6l0.3,0.3
		l0,3l-0.3,0.3v3.6l-0.3,0.3l0.3,0.3l0,0.9l0.3,0.3l-0.3,0.3l0,0.9l1.2,1.8l0.3,0.9l0.5,0.1l3.5,3.5v0.6l0.6,0.9l0.6,0.3l0.9,1.8
		l0,1.8l0.3,0.3v0.6l0.3,0.3l0,2.4l0.3,0.3l0.3,1.8l2,2.3h0.3l0.9,0.9h0.3l1.1,1.3l3.1,3.3l1.7,1.1l0.6,0l1.4,1.1v0.3l0.6,0.3
		l0.9,1.5l0,0.6l0.6,0.9l0,1.2l0.6,1.2l-0.3,2.7l-0.6,1.2l0.9,0.6v0.9l0.8,0.8l0.3-0.3l2.1,0.9l0.6,0l1.2-0.6l0.9,0l0.3-0.3l1.2,0
		l0.3-0.3l1.8,0l1.2-0.6l0.3-0.3l0.6,0l1.1-1.1l0.3-1.2l1.4-1.4l1.2-0.3l0.3-0.3h0.6l0.6,0.9l0.9,0.3l1.5-1.8l0.9-0.3l1.2-0.9l0.9,0
		l0.3,0.3l2.5,0l1.2,0.6l0.6-0.3l1.2,0l0.6-1.2h0.6l0.3-0.3h2.4l0.5-0.5v-0.9l-0.6-0.9l1.7-0.8l0.5-0.5v-2.8l0.7-1.1l0.6,0l1.2-0.6
		l1.1-0.8l0.3-0.6l0-0.9l0.8-0.8l0.6,0l1.2-1.5l1.2-0.6l0.3-0.6l1.2-0.3l0.2-0.8l0.5-0.5l0.6,0l0.9-0.6l0.5-1.1l1.1-1.1l1.5-0.3
		l1.2-1.5l0.5-0.1l0.3-0.6l0-0.9l1.5-1.5l0-1.8l0.3-0.3l0-1.2l1.2-1.5v-0.3l1.2-0.9l0.6-1.2l-0.3-1.5l-1.2-1.2l-0.6-1.2l0-1.8
		l0.3-0.3l0-1.2l0.3-0.3l0-1.2l-0.3-0.3V328l0.3-0.3l0-2.8l-0.6-0.9l-0.3-1.8l-0.6-0.6l0.3-0.9l-0.5-0.8l-1.7-0.8l-0.6-1.2l0-2.1
		l0.3-0.3l0-0.6l0.8-0.8l0.6,0l1.7-1.3l0-1.5l-0.3-0.3l-0.4-0.8l-1.5,0l-0.9-0.6l-1.2-0.3l-0.8-0.8l-0.9-1.8l0.6-0.3l0-1.2l0.6-0.6
		V304l-0.4-0.8l-1.8-0.3l-0.5-0.4l0-1.5l-0.6-0.6l0-0.6l-0.3-0.3l0-1.5l1.4-1.4l0.5-0.1l0-1.8l-0.8-0.8h-0.9l-0.8-0.4l0-0.6
		l-0.9-1.2l-0.3-1.8l-0.3-0.6l0.3-0.3l0-0.9l0.3-0.6l1.1-1.1h0.3l0.8-1.1l0-0.6l-1.5-1.2l0-0.9l0.9-0.6l-0.3-0.3l0-0.6l-0.5-0.2
		l-0.2-0.5l-0.3-0.3l0-1.5l0.3-0.3v-0.6l0.6-1.2l0-0.6l0.3-0.3l0.3-1.2l0.8-0.8l1.8,0.9l0.6-0.3h0.9l0.3-0.3l0.9,0l0.9,1.2l1.2,0.6
		l0.5-0.1v-0.6l-0.3-0.3l0.2-0.2l1.5,0l0.6,0.9l0.6,0.3l2.6-0.2V275l-0.6-0.3l-0.6-1.2l0-1.8l0.9-0.6l-0.6-1.5l-0.9-0.9V268l0.8-0.1
		l0.3,0.3l0.6,0l1.8,1.8l0.5,0.2l0.1,0.4h0.6l0.4,0.5l0,0.9l-0.3,0.6l1.1,1.4l0.8,0.2l-0.3,0.9l0.3,0.3l0,0.6l0.6,0.3l0.1,0.5
		l0.5,0.2l-0.8,0.1l-0.2,0.5l1.4,1.1l0.7,0.1l-0.3,0.3l0,0.9l0.9,1.2l0.2,0.4l1.2,0.6l1.2-0.9l1.5,0l0.6-0.3l0.6-0.3l1.1,0.8
		l0.2,2.9l1.5,0.3l0.3,0.3l1.2,0l0.3,0.3l4.6,0l0.6,0.6l1.2,0.6l2.4,0.3l0.6,0.6l0.6,0.3l1.2,0l0.3,0.3l1.5,0l1.2-0.9l0.6-0.3l3,0
		l0.3-0.3h0.6l1.2-0.6l1.2-1.8l0.6-0.3l1.8,0l0.3-0.3h1.8l0.6,0.6l0.6,0l0.3-0.3l0.3,0.3l0.9-0.6l0.9,0l0.6-0.6l2.1,0l0.3-0.3
		l1.2-0.6l1.2-1.5l1.2-0.6l0.3,0l0.9,0.9l0.6,0.3l0.5-0.2l0-1.2l0.8-1.1h2.4l0.3,0.3l2.4,0l0.4-1.1l1.6-0.9l0-0.6l1.1-1.1l0.6,0
		l1.2-0.6l0.6-0.3l0.9,0l0.3-0.3l3,0l1.2-0.6l0.9,0l1.2-0.9l0.9,0l0.3-0.6l4,0l0.3,0.3l0.6,0l0.6-0.9l1.2,0.9h2.5l0.3-0.3l3.4,0
		l1.2-0.6l3.4-0.3l2.1-0.9l0.9-0.9l0.6,0l0.3-0.3h4.9l1.2-0.6l0.3-0.6l0.6-0.3l1.5-0.3l0.3-0.3l0.6,0.3l2.5,0l0.3,0.3l2.4,0l0.3,0.3
		l1.5,0l0.3,0.3h1.8l0.3-0.3l0.9,0l0.3,0.3l1.8,0l1.2,0.6l3.3,0.3l0.3,0.3l3.3,0l0.3-0.3l0.6,0.3h1.5l0.3,0.3l1.2,0.3l0.9,0.9
		l1.8,0.3l0.9,0.9l1-0.8l0.6-0.9l-0.2-0.4L503.8,269.7z M381.9,231.6l-0.2,0l-0.5,0.5l0.5,0.4h0.3l0.2-0.1l0-0.5L381.9,231.6z
		 M370,252.5v-0.6l-0.1-0.2H369l-0.2,0.2l0,0.6l0.2,0.2h0.9L370,252.5z M357.8,293.3l0,0.3l0.5,0.4l0.5-0.5l-0.4-0.4H358
		L357.8,293.3z M362.4,304.6v0.3l0.2,0.1l0.3,0l0.2-0.2v-0.3l-0.2-0.2l-0.3,0L362.4,304.6z M376,232.2l0.2-0.2l-0.5-0.8l-1.7,0.2
		l0.4,0.8L376,232.2z M529.4,294.1l-0.6,0.6l-1.2,0l-0.3,0.3l-0.6,0l-0.5,0.5l0.5,0.4l1.5,0l0.3,0.3h0.6l0.3-0.6l0.5-0.1l0.3-0.9
		l-0.4-0.5H529.4z M566.6,236.8l-0.2-0.8l-0.9-0.9l0.6-0.3v-0.6l-0.4-0.4l-0.5-0.2l-0.3-1.2l-0.8-0.1l-0.3-0.3l-0.3,0.3h-0.9
		l-0.3,0.3l-0.9,0l-0.6,1.2l-0.6,0.3l-1.5,0l-0.6,0.3l-0.9,0.9l-0.9,0l-0.3,0.9l-1.2-0.3l-1.2,1.5l-1.2,0l-1.2,1.2l-1.2,0l-1.2,1.5
		l-0.9,0l-0.9,0.9h-0.3l-0.9,0.9l-1.2,0.6l-0.6,0l-0.9,0.6l-0.9,0l-0.3-0.3l-0.9,0l-1.1,1.1l-0.3,1.2l-0.5,0.5l-2.1,0l-0.3,0.3
		l-1.8,0l-0.8,1.1l-0.3,0.9l-1.1,0.5l-0.4,0.8l-0.3,0.3l0.3,0.3v1.8l-0.6,0.9v0.6l0.8,0.8l0.6,0l1.2-1.5l0.6,0l0.3-0.3h2.2l0.9-0.9
		l1.2-0.6l0.6-0.6l1.2-0.3l0.3-0.3h2.7l0.3-0.3l0.9,0l0.3-0.3l0.9,0l0.3-0.3l1.2,0l0.3-0.3l0.9,0l0.3-0.3l0.9,0l0.6-0.3l1.5-1.5h0.3
		l1.8-1.5h0.3l0.8-0.8l0.4-0.4l0.9-0.3l0.6-0.6l0.9-0.3l1.5-1.2h2.4l0.6-0.6l0.3,0.3l0.6,0l0.9-1.2h0.6l0.9-0.6l0.3,0.3l0.8-0.5
		v-0.3L566.6,236.8z M527.6,296.2l-1.2,0l-0.6,0.6h-3.1l-0.3-0.3l-1.5,0l-0.8,0.5l0,0.9l1.1,0.8l0.9,0l1.2,0.6l0.9,0l0.3-0.3l1.2,0
		l0.3-0.3h2.4l0.5-0.5l0-0.6l-1.2-0.9L527.6,296.2z M383,231.6l0.2-0.1l-0.2-0.2h-0.6l-0.2,0.1l0.2,0.1L383,231.6z M373.8,278.8
		h-0.3l-0.2,0.2v0.6l0.2,0.2h0.6l0.2-0.2l0-0.3L373.8,278.8z M366.2,289.5h-0.3l-0.1,0.1l0,0.3l0.2,0.2h0.3l0.2-0.2l0-0.3
		L366.2,289.5z M365.1,276.2v-0.3l-0.2-0.2h-0.6l-0.2,0.2v0.3l0.2,0.1l0.6,0L365.1,276.2z M366.5,278.2l-0.9-0.6l-0.5,0.1l0,0.3
		l1.1,0.8l0.6,0l0.5-0.5l-0.5-0.4L366.5,278.2z M361.1,405.2l-0.2,0.2v0.3l-0.3,0.3v0.3l0.2,0.2h0.6l0.2-0.1l0-0.9l-0.2-0.2H361.1z
		 M370.8,281l-0.6-1.2l-0.7,0.1v1.2l0.4,0.8l2.6-0.1l0-0.6l-0.5-0.4L370.8,281z M388.1,286.8l-0.2,0.1v0.6l0.1,0.2h0.9l0.2-0.1v-0.3
		l-0.5-0.4H388.1z M364.1,277.6l-0.5,0.5l0.2,0.2h0.3l0.3,0.3l0.2-0.2l0-0.6l-0.2-0.2H364.1z M349.8,405.8l0.9,0.9h0.6l0.8-0.8
		l0.3-1.2l-0.4-0.5l-2.4,0.3l-0.6-0.3l-0.6,0.3l-0.1,0.5l0.4,0.5L349.8,405.8z M496.7,384l-0.9-1.8l-0.3-1.5l-0.9-0.9l-0.1-0.8h-0.3
		l-0.2-0.4l-1.7-1.7l-1.5-0.9l-1.8-0.6l-0.4-1.4l-1.1-1.1l-1.1-0.5l0.3-0.6l-0.2-0.8l-1.2,0l-0.2-0.5l-1.2-0.9l0.3-1.5l-0.6-0.3
		l0-0.6l0.3-0.3l-0.1-0.8l-0.5-0.2l-0.1-1.1l-1.2-0.3l-0.3-0.3h-0.6l-0.6-0.6l-0.6,0l0-1.2h-0.6l-0.3,0.3l-0.9-0.3l-0.6-0.6
		l-1.2,0.3l-0.6-0.6l-1.4-0.5l-0.3-0.3l-0.1-0.8l-0.6,0l-0.6-0.6l-0.9-0.3l-0.4-0.3l-0.8-0.6l-1.2,0l-0.3-0.3h-0.6l-0.9-0.9l-0.6,0
		l-0.9,0.9l-0.6,0l-0.3,0.3h-3.1l-0.6,0.3l-0.1,0.5l-1.5,1.5l-0.3,0.6l-0.9,1.2l0,0.6l-0.8,0.8l-1.7,0.8l0.3,1.5l-0.3,0.3l0,0.6
		l-0.5,0.5L454,368l-2.5,0.3l0.2,2.3l-0.3,0.3l0,0.6l0.3,0.3v2.4l-0.3,0.3l0,1.2l-0.3,0.3l-0.3,1.2l-2,1.4l-2.1,0.9L445,381
		l-0.3,1.2l0.3,0.3l0,0.9l0.3,0.3l0,3l0.3,0.3l0,0.9l0.6,1.2l0,0.9l0.6,0.9l0,1.2l0.3,0.3l0,0.9l0.3,0.3l0,1.2l-0.6,1.2l0.6,0.6v0.3
		l1.5,1.8l0.3,1.5l1.4,1.4l0.3,0l2.4,1.8l0.6,0.3l1.2,0l0.6,0.3l1.5,1.5h0.9l0.3,0.3l2.1,0l2.1,1.2l1.5,0l0.9,1.2l2.8,0l0.3-0.3h2.4
		l0.3-0.3h0.6l0.6-0.6l0.9,0l0.3-0.3h3l0.3-0.3l1.5-0.3l1.2-0.6l0.9-0.9h0.3l0.6-0.6l1.2-0.3l1.2-1.2l0.9-0.3l0.6-0.6l0.9-0.3
		l1.4-1.4v-0.6l1.4-1.4l1.2-0.6l0.3,0l1.5-1.2l0.9,0l1.2-0.6l0.7-2.9l0.3-0.3l0-0.6l1.2-1.8v-1.8l0.3-0.3l-0.3-1.8l0.3-0.3
		L496.7,384z"/>
</g>

</svg>
