<?xml version="1.0" encoding="utf-8"?>

<svg version="1.2" baseProfile="tiny" xmlns="http://www.w3.org/2000/svg" xmlns:xlink="http://www.w3.org/1999/xlink" x="0px"
	 y="0px" viewBox="356 71 252.8 246" xml:space="preserve">

<g id="Equatorial_Guinea">
	<title>Flag of Equatorial Guinea</title>
	<g>
		<polygon fill="#E32118" points="471.1,237.6 470.7,238.2 470.5,240.3 470.2,240.9 469.8,241.3 469.4,241.8 468.7,243.5
			468.3,244.1 467.7,244.8 465.9,245.9 465.3,246.4 464.8,247.3 464.6,247.7 459.5,252.7 458.6,255 459.8,257.4 463.7,261
			465.2,261.4 468.8,258.9 470.6,258.8 468.7,259.7 467.1,260.7 465.5,261.5 463.2,261.8 461.5,261.1 460.5,260.1 459.3,259.7
			457.6,261.1 456.1,263.7 455.1,266.1 455,267 454.6,267.6 454.2,268 454.1,268.5 453.8,268.7 452.3,270.6 448.9,273.7
			446.6,274.7 446.2,276.1 446.4,279.4 446,280.9 445.1,282.9 443.9,284.5 442.6,285.3 441.6,285.9 440.8,287.5 439.4,291.8
			438.6,293.1 437.6,294.1 436.2,294.6 437.3,296.2 437.5,296.8 437.3,297.7 438.5,298.5 440.6,300.7 441.3,301.3 442.6,301
			445.1,299.9 448,299.3 449,298.8 450.1,298.6 451.7,299 453.1,299.7 454,300.5 454.6,301.5 456,305.7 456.8,306.8 459,305.9
			461.8,305.1 462.4,304.5 463.2,303.2 464.8,301.3 466.9,299.5 468.6,298.8 468,299.2 467.4,300 467,300.9 467.4,301.8 468.3,302
			471.9,301.3 472.9,301.5 475.1,302.8 476,303.1 477,303.2 478.3,303.4 479.3,303.8 479.8,304.3 478.6,304.3 477.4,304.6
			476.2,305 475.6,305.5 475.3,306.5 476,308.7 476.1,310.2 476,310.6 478.5,310.8 479.8,311.4 481.2,312.4 483.5,314.9
			484.9,316.1 486.2,316.7 487.7,317 489.1,316.7 490.1,315.7 490.4,314.6 490.4,312 490.9,310.7 495.1,310.2 530.7,310.2
			556.6,310.3 582.7,310.5 608.8,310.6 608.7,288 608.4,242.7 608.4,237.3 471.4,237.3 		"/>
		<path fill="#FFFFFF" d="M486.2,225.9c0.3,0,0.6-0.1,0.9-0.1l-0.2-3.4c0,0,0,0,0,0c-0.4-0.6,0-1.7,0-1.8l0.1-0.2l0.3,0
			c0.1,0,7.6,1.3,12.9-0.7c3.2-1.3,5.1-3.2,6.2-4.8l-2.6-3.7l0,0l0,0l-0.2-0.2l0.1-0.1c0-0.2-0.1-0.3,0-0.5h-3.1v1.5
			c0,2.8-0.7,4.8-2.1,6.1c-2.4,2.3-6.4,2.2-10,2.1c-4-0.1-7.5-0.2-8.1,2.7l-0.2,1.1l-0.4-1.1c-0.9-2.5-3.4-2.9-6.3-2.9l2.1,6
			C478.7,226.2,482.7,226.3,486.2,225.9z"/>
		<path fill="#FFFFFF" d="M607.6,209.8v0.5h-95.9c0.2,1.6-0.3,2.9-2.3,4.1c0.3,1.2,0.8,2.5,1.3,3.4l0.1,0.1l0,0.1
			c-0.8,4.1-4.4,7.2-10.6,8.9c-3.9,1.1-7.7,1.3-8.8,1.3v1.5c0,2.2-6,3-11.2,3c-1.7,0-3.4-0.1-4.8-0.2l-0.1,0.5l-3.1,2.9l-0.5,0.8
			l-0.1,0.5l-0.1,0.1h137l-0.1-17.2v-6.9L607.6,209.8z"/>
		<polygon fill="#3E9A00" points="401.6,75.5 399.3,72.7 398.5,72.5 398.2,72.4 398,72 395.5,72.9 392.6,73 389.8,72.7 387.9,72
			387,72.7 385.8,72.7 383.3,72.3 383.7,71.4 383.8,71 380.2,72 377.1,75 374.8,78.7 373.7,81.8 373,89.7 372.5,90.8 371.4,92
			370,93 368.9,93.6 369.7,94.8 370,96.3 369.5,97.7 368.1,98.4 365,97.9 363.6,97.9 362.4,98.5 360.4,98 358.7,99.4 357.6,101.6
			356.9,103.2 356.4,106.9 356,107.7 355.8,108.7 356.4,109.9 357.2,111 357.6,111.9 358.2,114.5 359.9,115.8 361.9,116.3
			363.8,116.3 365,116.5 366.9,117.7 367.8,118.1 368.7,118.1 370.7,117.5 371.4,117.3 373.8,118.7 375.1,119.1 375.6,118.8
			376.1,119.3 378.2,120.2 378.9,120.7 379.7,119.7 382.6,114.9 386.5,110.4 387,109 387,105 387.2,103.6 389.8,102.1 389.9,101.8
			390.2,101.3 390.6,99.3 392.1,98.1 393.9,93.5 396.9,89.8 398,87.4 401.2,84.6 401.8,83.4 402.3,82 402.7,80.5 402.8,78.8
			402.4,77 		"/>
		<path fill="#FFFFFF" d="M504.6,211.2l2.1,3.1l0.4-0.6c0.6-1.2,0.8-2.1,0.9-2.3c-0.1-0.5-0.3-0.8-0.4-1h-1.4c0,0,0,0,0,0
			C505.8,210.7,505.2,211.1,504.6,211.2z"/>
		<path d="M503.8,210.9l-0.1,0.1l0.2,0.2l0-0.2C503.8,210.9,503.8,210.9,503.8,210.9z"/>
		<path d="M507.1,213.7l-0.4,0.6l-2.1-3.1c-0.2,0-0.3,0.1-0.5,0l-0.2,0l2.6,3.7C506.7,214.5,506.9,214.1,507.1,213.7z"/>
		<path fill="#FFFFFF" d="M489.4,225.3c0.6-0.2,1.1-0.6,1.4-0.8l0-0.7c-0.3-0.5-1.6-0.7-3-0.9c0,0-0.1,0-0.1,0l0.2,2.8
			C488.1,225.6,488.8,225.5,489.4,225.3z"/>
		<path d="M490.7,223.8C490.7,223.8,490.7,223.8,490.7,223.8l0,0.7c-0.2,0.2-0.8,0.6-1.4,0.8c-0.6,0.2-1.2,0.3-1.6,0.3l-0.2-2.8
			c-0.3-0.1-0.6-0.3-0.7-0.4l0.2,3.4c2.8-0.3,3.6-0.9,3.6-1.2h0l0-0.1C490.9,224.1,490.8,223.9,490.7,223.8z"/>
		<path fill="#FFFFFF" d="M480,221.9c1.1-2.6,4.7-2.5,8.5-2.4c3.6,0.1,7.4,0.2,9.6-1.9c1.3-1.2,1.9-3.1,1.9-5.7v-1.5h-8.4l-1.8-0.3
			l-5.5-2.7l-1.5-0.4l-0.4-0.1c0.3,1.5,0.8,2.9,1.2,4.1c0.6,1.7,1,3.1,1.1,4.4c0,0.4-0.1,0.7-0.3,0.8c-0.4,0.3-1.1,0.1-1.4,0
			c-0.1,0.1-0.4,0.2-0.8,0.2c0,0-0.1,0-0.2,0c-0.5,0.5-1,0.8-1.5,0.8c-0.1,0-0.1,0-0.2,0c-0.5-0.1-0.9-0.5-1.1-0.8
			c-0.5,0.4-0.9,0.7-1.3,0.7c-0.1,0-0.1,0-0.2,0c-0.5-0.1-0.8-0.5-1-0.9c-0.9,0.4-1.4,0.2-1.7-0.1c-0.4-0.4-0.4-1-0.3-1.2
			c1.5-3,2.6-7,3.2-11l-0.9-0.8l-1.2-1.4l-0.1-1.8l0.3-1.8l-0.1-1.7l-0.9-1.4l-1.7,1.1l-1.2,1.5l0.6,1.9l0.8,1.5l0.3,1.9l-0.8,10.7
			l-0.1,0.5l-0.4,0.4l-0.4,0.6l-0.1,0.9l0.1,0.9l0.3,0.8l0.8,1.4C476.2,219.3,478.8,219.7,480,221.9z"/>
		<path d="M479.7,222.9l0.4,1.1l0.2-1.1c0.6-3,4.1-2.9,8.1-2.7c3.6,0.1,7.6,0.2,10-2.1c1.4-1.4,2.1-3.4,2.1-6.1v-1.5H500v1.5
			c0,2.6-0.6,4.5-1.9,5.7c-2.2,2.1-5.9,2-9.6,1.9c-3.8-0.1-7.4-0.2-8.5,2.4c-1.2-2.2-3.8-2.6-6.8-2.6l0.1,0.1l0.2,0.5
			C476.4,220,478.9,220.4,479.7,222.9z"/>
		<path fill="#FFFFFF" d="M477.5,229.1c0.1-0.1,0.2-0.1,0.2-0.2c0.1-0.1,0.1-0.1,0.1-0.2c0-0.2,0-0.3-0.1-0.3
			c-0.1-0.1-0.2-0.2-0.3-0.2c0,0-0.2,0-0.4,0h-0.3v1h0.3C477.3,229.1,477.4,229.1,477.5,229.1z"/>
		<path fill="#FFFFFF" d="M490.7,229.8v-1.5v-2.7c-1,0.6-3.6,1.2-9.7,1.2c-1.8,0-3.7-0.1-5.3-0.2l0.2,1.8v-0.8h1.1
			c0.4,0,0.7,0,0.8,0c0.2,0.1,0.4,0.2,0.5,0.3c0.1,0.2,0.2,0.4,0.2,0.6c0,0.2-0.1,0.4-0.1,0.5c-0.1,0.2-0.2,0.3-0.3,0.4
			c-0.1,0-0.2,0.1-0.3,0.1c-0.2,0-0.4,0.1-0.7,0.1h-0.4v1.3h-0.7v-0.4l-0.4,1.3c1.4,0.1,3,0.2,4.6,0.2
			C486.1,232.1,490.7,231.1,490.7,229.8z M479.1,231h-0.7l1.4-3.4h0.7l1.4,3.4v-0.6l1.8-2.2h-1.6v-0.5h2.5v0.5l-1.9,2.2h1.9v0.6
			h-2.8h-0.7l-0.3-0.8h-1.4L479.1,231z"/>
		<polygon fill="#FFFFFF" points="479.6,229.7 480.6,229.7 480,228.4 		"/>
		<path d="M491.4,229.8v-1.5c-0.2,0-0.3,0-0.3,0l-0.3,0v1.5c0,1.3-4.7,2.4-10.6,2.4c-1.7,0-3.2-0.1-4.6-0.2l-0.2,0.6
			c1.5,0.2,3.1,0.2,4.8,0.2C485.3,232.8,491.4,232,491.4,229.8z"/>
		<path d="M490.7,225.5v2.7l0-3.6h0c0,0.3-0.8,0.8-3.6,1.2c-0.3,0-0.6,0.1-0.9,0.1c-3.5,0.3-7.5,0.3-10.7,0l0.2,0.5l0,0.1
			c1.7,0.1,3.5,0.2,5.3,0.2C487.1,226.8,489.7,226.2,490.7,225.5z"/>
		<polygon fill="#FFFFFF" points="507.7,219 506.6,218.4 507.1,219.6 		"/>
		<path fill="#FFFFFF" d="M508.3,212.7c-0.7,1.9-2.7,5.5-7.9,7.6c-4.9,1.9-11.5,1-12.9,0.8c-0.1,0.3-0.1,0.7,0,1
			c0,0.1,0.1,0.1,0.3,0.2c1.8,0.3,3,0.6,3.4,1.2c0.2,0.3,0.3,0.7,0.1,1.3v2.9c2.4-0.1,17-1,18.7-9.6c-0.5-0.9-1-2.1-1.3-3.3l-0.1,0
			v-0.2C508.5,213.9,508.4,213.3,508.3,212.7z M493.5,226.3c-0.1,0.2-0.2,0.3-0.3,0.5c-0.1,0.1-0.3,0.2-0.6,0.2
			c-0.3,0-0.5,0-0.7-0.2c-0.2-0.1-0.3-0.3-0.3-0.7l0.5-0.1c0.1,0.2,0.1,0.3,0.2,0.4c0,0.1,0.1,0.1,0.3,0.1c0.1,0,0.2-0.1,0.2-0.2
			c0.1-0.1,0.1-0.2,0.1-0.5l-0.3-1.9l0,0v-0.1l0,0.1l0.6-0.1l0.3,1.9C493.5,225.9,493.5,226.2,493.5,226.3z M496.4,225.9
			c0,0.1-0.1,0.2-0.2,0.3c-0.2,0.1-0.4,0.2-0.6,0.2c-0.3,0.1-0.5,0.1-0.6,0.1c-0.2-0.1-0.3-0.1-0.4-0.2c-0.1-0.1-0.2-0.2-0.3-0.3
			c0-0.2-0.1-0.4-0.2-0.7l-0.3-1.7l0.6-0.1l0.3,1.7c0.1,0.2,0.1,0.4,0.1,0.5c0.1,0.1,0.2,0.2,0.3,0.2c0.1,0.1,0.2,0.1,0.4,0
			c0.2,0,0.3-0.1,0.3-0.1c0.1-0.1,0.2-0.2,0.1-0.3c0-0.1,0-0.3,0-0.5l-0.4-1.7l0.6-0.1l0.3,1.6c0.1,0.3,0.1,0.6,0.1,0.7
			C496.5,225.7,496.5,225.8,496.4,225.9z M499.3,225c0,0.2-0.1,0.3-0.2,0.4c-0.2,0.1-0.4,0.2-0.6,0.3c-0.4,0.1-0.7,0.1-1,0
			c-0.3-0.1-0.5-0.3-0.6-0.6l0.5-0.2c0.1,0.2,0.2,0.3,0.4,0.3c0.1,0.1,0.3,0.1,0.4,0c0.2,0,0.3-0.1,0.4-0.2c0.1-0.1,0.1-0.2,0.1-0.3
			c-0.1-0.1-0.1-0.1-0.1-0.2c-0.1,0-0.2,0-0.3,0c-0.1,0-0.2,0-0.5,0s-0.6,0-0.7-0.1c-0.2-0.1-0.4-0.3-0.5-0.5c0-0.1,0-0.3,0-0.4
			c0.1-0.2,0.2-0.3,0.3-0.4c0.1-0.1,0.3-0.2,0.5-0.3c0.4-0.1,0.7-0.1,1,0c0.2,0.1,0.4,0.3,0.5,0.5l-0.6,0.2
			c-0.1-0.1-0.1-0.2-0.2-0.2c-0.1-0.1-0.3-0.1-0.4,0c-0.2,0-0.3,0.1-0.4,0.2c0,0.1,0,0.1,0,0.2c0,0.1,0,0.1,0.1,0.2
			c0.1,0,0.3,0,0.6,0s0.5,0,0.7,0c0.1,0,0.3,0.1,0.4,0.2c0.1,0.1,0.2,0.2,0.2,0.4C499.4,224.7,499.4,224.8,499.3,225z M500.8,224.9
			l-1.1-2.4l-0.8,0.4l-0.2-0.5l2.3-1l0.2,0.4l-0.8,0.4l1,2.3L500.8,224.9z M502.6,224l-1.5-2.8l0.5-0.3l1.5,2.8L502.6,224z
			 M505.4,222.1c-0.1,0.3-0.2,0.5-0.5,0.7c-0.4,0.2-0.7,0.2-1.2,0.1c-0.3-0.1-0.6-0.3-1-0.7c-0.2-0.4-0.3-0.8-0.2-1.3
			c0-0.3,0.2-0.6,0.6-1c0.3-0.1,0.6-0.2,1-0.1c0.2,0,0.4,0.1,0.6,0.3l-0.5,0.4c-0.1-0.1-0.2-0.2-0.4-0.2c-0.1,0-0.2,0-0.4,0.1
			c-0.2,0.1-0.3,0.3-0.3,0.5c0,0.2,0.1,0.4,0.2,0.7c0.2,0.4,0.4,0.5,0.6,0.6c0.2,0.1,0.4,0,0.6-0.1c0.1-0.1,0.2-0.2,0.3-0.3
			c0-0.2,0-0.3-0.1-0.5l0.6-0.2C505.5,221.6,505.5,221.9,505.4,222.1z M506.3,221.8l-1.9-2.5l0.5-0.4l1.9,2.5L506.3,221.8z
			 M509.4,219.2l-0.5,0.4l-0.6-0.3l-1,0.8l0.3,0.6l-0.5,0.5l-1.2-3.2l0.5-0.4L509.4,219.2z"/>
		<path d="M508.8,214.8c0.3,1.1,0.8,2.4,1.3,3.3c-1.7,8.5-16.4,9.5-18.7,9.6v-2.9c0.1-0.5,0.1-0.9-0.1-1.3c-0.4-0.7-1.6-0.9-3.4-1.2
			c-0.2,0-0.3-0.1-0.3-0.2c-0.1-0.2-0.1-0.6,0-1c1.4,0.2,8,1.1,12.9-0.8c5.2-2.2,7.2-5.7,7.9-7.6c0.1,0.5,0.3,1.2,0.5,1.9v-0.4
			l-0.7-2.8c0,0,0,0,0-0.1c0,0.2-0.3,1.2-0.9,2.3c-0.2,0.4-0.4,0.8-0.7,1.2c-1.1,1.6-3,3.5-6.2,4.8c-5.3,2.1-12.8,0.7-12.9,0.7
			l-0.3,0l-0.1,0.2c0,0.1-0.4,1.1,0,1.8c0,0,0,0,0,0c0.1,0.2,0.3,0.4,0.7,0.4c0,0,0.1,0,0.1,0c1.3,0.2,2.6,0.4,3,0.9c0,0,0,0,0,0
			c0.1,0.1,0.2,0.3,0,0.8l0,0.1l0,3.6l0.3,0c0,0,0.1,0,0.3,0c1.1,0,4.9-0.2,8.8-1.3c6.2-1.7,9.8-4.8,10.6-8.9l0-0.1l-0.1-0.1
			c-0.6-0.9-1-2.2-1.3-3.4c-0.1,0-0.1,0.1-0.2,0.1L508.8,214.8z"/>
		<path fill="#FFFFFF" d="M509.3,213.8c1.6-1,2-2,1.8-3.4h-2.8c0.1,0.2,0.2,0.5,0.3,0.9L509.3,213.8z"/>
		<path fill="#FFFFFF" d="M505.1,210.4h-0.7c0,0.1,0,0.1,0,0.2C504.6,210.6,504.8,210.5,505.1,210.4z"/>
		<path d="M503.8,211l0,0.2l0,0l0,0l0.2,0c0.2,0,0.3,0,0.5,0c0.7-0.1,1.2-0.5,1.7-0.8c0,0,0,0,0,0h-1.2c-0.2,0.1-0.4,0.2-0.7,0.2
			c0-0.1,0-0.1,0-0.2h-0.7c0,0.2,0,0.3,0,0.5C503.8,210.9,503.8,210.9,503.8,211z"/>
		<path d="M508,211.4l0.7,2.8v0.4v0.2l0.1,0l0.4-0.2c0.1,0,0.1-0.1,0.2-0.1c2.1-1.2,2.5-2.5,2.3-4.1h-0.6c0.2,1.4-0.2,2.4-1.8,3.4
			l-0.7-2.5c-0.1-0.3-0.2-0.6-0.3-0.9h-0.7C507.7,210.6,507.9,210.9,508,211.4C508,211.4,508,211.4,508,211.4z"/>
		<polygon points="484.6,230.4 482.7,230.4 484.6,228.2 484.6,227.6 482.1,227.6 482.1,228.2 483.6,228.2 481.8,230.4 481.8,231
			484.6,231 		"/>
		<path d="M476.7,231v-1.3h0.4c0.3,0,0.5-0.1,0.7-0.1c0.1,0,0.2-0.1,0.3-0.1c0.1-0.1,0.2-0.2,0.3-0.4c0-0.1,0.1-0.3,0.1-0.5
			c0-0.2-0.1-0.4-0.2-0.6c-0.1-0.1-0.3-0.2-0.5-0.3c-0.1,0-0.4,0-0.8,0h-1.1v0.8l0.2,1.6l-0.2,0.6v0.4H476.7z M476.7,228.2h0.3
			c0.2,0,0.4,0,0.4,0c0.1,0,0.2,0.1,0.3,0.2c0.1,0,0.1,0.1,0.1,0.3c0,0.1,0,0.1-0.1,0.2c0,0.1-0.1,0.1-0.2,0.2c-0.1,0-0.2,0-0.5,0
			h-0.3V228.2z"/>
		<path d="M481.1,231h0.7l-1.4-3.4h-0.7l-1.4,3.4h0.7l0.3-0.8h1.4L481.1,231z M479.6,229.7l0.4-1.3l0.5,1.3H479.6z"/>
		<path fill="#73452B" d="M481.5,214.1c0,1.1,0.5,1.6,0.7,1.8c0.1,0.1,0.1,0.1,0.1,0.2c0.3,0,0.5-0.1,0.5-0.2
			c0.2-2.1-0.2-4.3-1.2-7.1l0.3-0.1c1,2.7,1.4,5,1.2,7.1c0.3,0.1,0.8,0.2,1.1,0.1c0.1-0.1,0.2-0.3,0.2-0.6c-0.1-1.2-0.5-2.6-1.1-4.3
			c-0.4-1.3-0.9-2.8-1.2-4.3l-0.8-0.3l-0.1-0.1c0.1,1.3,0.1,2.5,0.2,3.6C481.4,211.6,481.5,213,481.5,214.1z"/>
		<path d="M484.3,215.4c0,0.3,0,0.5-0.2,0.6c-0.3,0.2-0.8,0.1-1.1-0.1c0,0,0,0.1,0,0.1l-0.3,0c0,0,0,0,0-0.1
			c-0.1,0.1-0.3,0.2-0.5,0.2c0,0,0,0,0,0.1l0,0.1l0,0c-0.1,0.1-0.1,0.1-0.2,0.1c0.1,0,0.1,0,0.2,0c0.4,0,0.7-0.2,0.8-0.2
			c0.3,0.1,1,0.3,1.4,0c0.2-0.2,0.3-0.5,0.3-0.8c-0.1-1.3-0.5-2.7-1.1-4.4c-0.4-1.2-0.9-2.6-1.2-4.1l-0.4-0.1c0.3,1.6,0.8,3,1.2,4.3
			C483.8,212.7,484.3,214.2,484.3,215.4z"/>
		<path fill="#73452B" d="M480.4,216.8c0.4,0.1,1-0.2,1.5-0.8c-0.2-0.2-0.7-0.9-0.7-2c0-1.1-0.1-2.4-0.2-4.2
			c-0.1-1.1-0.1-2.4-0.2-3.8l-0.8-0.5c0,6.5-0.3,10-0.5,10.6C479.6,216.4,479.9,216.8,480.4,216.8z"/>
		<path d="M481,209.9c0.1,1.7,0.2,3.1,0.2,4.2c0,1.1,0.5,1.8,0.7,2c-0.5,0.6-1,0.8-1.5,0.8c-0.5-0.1-0.8-0.5-0.9-0.7
			c0,0,0,0.1,0,0.1c-0.1,0.1-0.1,0.1-0.2,0.2c0.2,0.3,0.5,0.7,1.1,0.8c0.1,0,0.1,0,0.2,0c0.5,0,1-0.3,1.5-0.8
			c0.1-0.1,0.1-0.1,0.2-0.1l0,0l0-0.1c0,0,0,0,0-0.1c0-0.1,0-0.1-0.1-0.2c-0.2-0.2-0.7-0.7-0.7-1.8c0-1.1-0.1-2.5-0.2-4.2
			c-0.1-1.1-0.1-2.3-0.2-3.6l-0.3-0.2C480.8,207.5,480.9,208.8,481,209.9z"/>
		<path fill="#A36629" d="M475.2,215.9c0.3,0.3,0.7,0.3,1.3,0c0-0.1-0.1-0.1-0.1-0.2c0,0,0,0,0,0l0,0c-0.1-0.7,0.3-1.9,0.9-3.4
			c0.8-2.1,1.8-4.6,1.7-7.2l0.3,0c0.1,2.7-0.9,5.3-1.7,7.4c-0.5,1.3-0.9,2.4-0.9,3.1c0,0,0,0,0,0.1c0.1,0.3,0.4,1,1,1.2
			c0.4,0.1,0.9-0.2,1.4-0.8c0.2-0.3,0.4-3.4,0.5-10.7l-0.7-0.5l-0.9-0.8c-0.7,4.3-1.9,8.3-3.2,11
			C474.9,215.1,474.9,215.6,475.2,215.9z"/>
		<path d="M475,216.1c0.3,0.3,0.8,0.5,1.7,0.1c0.2,0.4,0.5,0.8,1,0.9c0.1,0,0.1,0,0.2,0c0.4,0,0.9-0.2,1.3-0.7
			c0.1-0.1,0.1-0.1,0.2-0.2c0,0,0-0.1,0-0.1c0.3-0.5,0.5-4,0.5-10.6l-0.3-0.2c0,7.3-0.3,10.4-0.5,10.7c-0.5,0.6-1,0.8-1.4,0.8
			c-0.6-0.1-0.9-0.9-1-1.2c0,0,0,0,0-0.1c0,0,0,0.1,0,0.1l-0.3,0.1c0,0,0,0,0,0c0,0,0,0.1,0.1,0.2c-0.6,0.3-1,0.2-1.3,0
			c-0.3-0.3-0.4-0.8-0.3-0.9c1.3-2.7,2.5-6.7,3.2-11l-0.3-0.2c-0.7,4.1-1.8,8.1-3.2,11C474.5,215.1,474.6,215.7,475,216.1z"/>
		<path d="M479.3,205.1l-0.3,0c0.1,2.6-0.9,5.2-1.7,7.2c-0.6,1.5-1,2.6-0.9,3.4l0,0l0.3-0.1c0,0,0-0.1,0-0.1
			c-0.1-0.7,0.4-1.8,0.9-3.1C478.4,210.4,479.4,207.8,479.3,205.1z"/>
		<path d="M483.1,216c0,0,0-0.1,0-0.1c0.2-2.1-0.2-4.4-1.2-7.1l-0.3,0.1c1,2.7,1.3,5,1.2,7.1c0,0,0,0,0,0.1L483.1,216z"/>
		<polygon points="501.1,221.3 502.6,224 503.1,223.7 501.7,221 		"/>
		<path d="M492.6,223.8l0.3,1.9c0,0.3,0,0.4-0.1,0.5c0,0.1-0.1,0.2-0.2,0.2c-0.2,0-0.3,0-0.3-0.1c-0.1-0.1-0.1-0.2-0.2-0.4l-0.5,0.1
			c0,0.4,0.1,0.6,0.3,0.7c0.2,0.2,0.4,0.2,0.7,0.2c0.3,0,0.5-0.1,0.6-0.2c0.1-0.2,0.2-0.3,0.3-0.5c0-0.1,0-0.3,0-0.6l-0.3-1.9
			L492.6,223.8z"/>
		<path d="M496,223.2l-0.6,0.1l0.4,1.7c0,0.2,0,0.4,0,0.5c0.1,0.1,0,0.2-0.1,0.3c0,0-0.1,0.1-0.3,0.1c-0.2,0.1-0.3,0.1-0.4,0
			c-0.1,0-0.2-0.1-0.3-0.2c0-0.1,0-0.3-0.1-0.5l-0.3-1.7l-0.6,0.1l0.3,1.7c0.1,0.3,0.2,0.5,0.2,0.7c0.1,0.1,0.2,0.2,0.3,0.3
			c0.1,0.1,0.2,0.1,0.4,0.2c0.1,0,0.3,0,0.6-0.1c0.2,0,0.4-0.1,0.6-0.2c0.1-0.1,0.2-0.2,0.2-0.3c0.1-0.1,0.1-0.2,0.1-0.4
			c0-0.1,0-0.4-0.1-0.7L496,223.2z"/>
		<path d="M504.7,221.5c0.1,0.2,0.1,0.3,0.1,0.5c-0.1,0.1-0.2,0.2-0.3,0.3c-0.2,0.1-0.4,0.2-0.6,0.1c-0.2-0.1-0.4-0.2-0.6-0.6
			c-0.1-0.3-0.2-0.5-0.2-0.7c0-0.2,0.1-0.4,0.3-0.5c0.2-0.1,0.3-0.1,0.4-0.1c0.2,0,0.3,0.1,0.4,0.2l0.5-0.4
			c-0.2-0.2-0.4-0.3-0.6-0.3c-0.3-0.1-0.6,0-1,0.1c-0.4,0.3-0.6,0.6-0.6,1c-0.1,0.4,0,0.8,0.2,1.3c0.3,0.4,0.6,0.6,1,0.7
			c0.4,0.1,0.7,0.1,1.2-0.1c0.3-0.2,0.4-0.4,0.5-0.7c0.1-0.2,0.1-0.5,0-0.8L504.7,221.5z"/>
		<path d="M505.9,218.1l1.2,3.2l0.5-0.5l-0.3-0.6l1-0.8l0.6,0.3l0.5-0.4l-3-1.5L505.9,218.1z M507.7,219l-0.6,0.6l-0.4-1.2
			L507.7,219z"/>
		<path d="M499.1,224c-0.1-0.1-0.3-0.2-0.4-0.2c-0.2,0-0.4,0-0.7,0s-0.5,0-0.6,0c-0.1-0.1-0.1-0.1-0.1-0.2c0-0.1,0-0.1,0-0.2
			c0.1-0.1,0.2-0.2,0.4-0.2c0.1-0.1,0.3-0.1,0.4,0c0.1,0,0.1,0.1,0.2,0.2l0.6-0.2c-0.1-0.2-0.3-0.4-0.5-0.5c-0.2-0.1-0.5-0.1-1,0
			c-0.2,0.1-0.4,0.2-0.5,0.3c-0.1,0.1-0.2,0.2-0.3,0.4c0,0.1,0,0.3,0,0.4c0.1,0.2,0.3,0.4,0.5,0.5c0.1,0.1,0.4,0.1,0.7,0.1
			s0.4,0,0.5,0c0.1,0,0.2,0,0.3,0c0,0.1,0,0.1,0.1,0.2c0,0.1,0,0.2-0.1,0.3c-0.1,0.1-0.2,0.2-0.4,0.2c-0.1,0.1-0.3,0.1-0.4,0
			c-0.2,0-0.3-0.1-0.4-0.3l-0.5,0.2c0.1,0.3,0.3,0.5,0.6,0.6c0.2,0.1,0.5,0.1,1,0c0.2-0.1,0.4-0.2,0.6-0.3c0.1-0.1,0.2-0.2,0.2-0.4
			c0.1-0.2,0.1-0.3,0-0.5C499.3,224.3,499.2,224.1,499.1,224z"/>
		<polygon points="504.4,219.3 506.3,221.8 506.8,221.4 504.9,218.9 		"/>
		<polygon points="492.5,223.8 492.6,223.8 492.5,223.7 		"/>
		<polygon points="501.2,221.8 501,221.4 498.7,222.3 498.9,222.9 499.7,222.5 500.8,224.9 501.3,224.6 500.4,222.2 		"/>
		<polygon fill="#E32118" points="112.5,519.8 112.1,520.7 112.2,521.7 112.7,522.7 112.4,522.8 112,523.2 111.6,523.3 113,524.4
			114.1,523.2 114.5,521 113.4,519.1 		"/>
	</g>
	<path fill="none" stroke="#999999" stroke-width="0.25" stroke-linecap="round" stroke-linejoin="round" d="M112.5,519.8l-0.4,0.9
		l0.1,1l0.5,1l-0.4,0.1l-0.4,0.4l-0.4,0.1l1.4,1l1.2-1.2l0.4-2.2l-1.1-1.9L112.5,519.8z M608.7,288l-0.3-45.3l-0.1-22.6v-6.9
		l-0.6-3.3v0.5H491.6l-1.8-0.3l-5.5-2.7l-1.5-0.4l-1.5-0.6l-2.2-1.5l-2-1.8l-1.2-1.4l-0.1-1.8l0.3-1.8l-0.1-1.7l-0.9-1.4l-1.7,1.1
		l-1.2,1.5l0.6,1.9l0.8,1.5l0.3,1.9l-0.8,10.7l-0.1,0.5l-0.4,0.4l-0.4,0.6l-0.1,0.9l0.1,0.9l0.3,0.8l0.9,1.5l2.4,7l0.4,3.6l-0.9,2.9
		l-3.1,2.9l-0.5,0.8l-0.1,0.5l-0.4,0.4l-0.4,0.6l-0.3,2l-0.3,0.6l-0.4,0.4l-0.4,0.5l-0.8,1.7l-0.4,0.6l-0.6,0.6l-1.8,1.2l-0.5,0.5
		l-0.5,0.9l-0.3,0.4l-5.1,5l-0.9,2.3l1.3,2.4l3.8,3.6l1.5,0.4l3.6-2.4l1.8-0.1l-1.9,0.9l-1.5,1l-1.7,0.8l-2.3,0.3l-1.7-0.6l-1-1
		l-1.2-0.4l-1.8,1.4l-1.4,2.6l-1,2.4L455,267l-0.4,0.6l-0.4,0.4l-0.1,0.5l-0.3,0.1l-1.5,1.9l-3.4,3.1l-2.3,1l-0.4,1.4l0.3,3.3
		l-0.4,1.5l-0.9,1.9l-1.3,1.7l-1.3,0.8l-1,0.6l-0.8,1.5l-1.4,4.3l-0.8,1.3l-1,1l-1.4,0.5l1.2,1.5l0.1,0.6l-0.1,0.9l1.2,0.8l2.1,2.3
		l0.8,0.5l1.3-0.3l2.6-1.2l2.8-0.5l1-0.5l1.2-0.3l1.5,0.4l1.4,0.8l0.9,0.8l0.6,1l1.4,4.2l0.8,1l2.2-0.9l2.8-0.8l0.6-0.6l0.8-1.3
		l1.7-1.9l2-1.8l1.7-0.6l-0.5,0.4l-0.6,0.8l-0.4,0.9l0.4,0.9l0.9,0.3l3.6-0.8l1,0.3l2.2,1.3l0.9,0.3l1,0.1l1.3,0.3l1,0.4l0.5,0.5
		h-1.2l-1.3,0.3l-1.1,0.4l-0.6,0.5l-0.3,1l0.6,2.2l0.1,1.5l-0.1,0.4l2.6,0.3l1.3,0.5l1.4,1l2.3,2.5l1.4,1.2l1.3,0.6l1.5,0.3l1.4-0.3
		l1-1l0.3-1.2V312l0.5-1.3l4.2-0.5h35.5l26,0.1l26.1,0.1l26.1,0.1L608.7,288z M401.6,75.5l-2.3-2.8l-0.8-0.1l-0.3-0.1L398,72
		l-2.4,0.9l-2.9,0.1l-2.8-0.4l-1.9-0.6l-0.9,0.6h-1.2l-2.5-0.4l0.4-0.9l0.1-0.4l-3.6,1l-3.1,2.9l-2.3,3.7l-1.1,3.1l-0.6,7.9
		l-0.5,1.2l-1.2,1.1l-1.4,1l-1,0.6l0.8,1.2l0.3,1.5l-0.5,1.4l-1.4,0.6l-3.1-0.5h-1.4l-1.1,0.6l-2.1-0.5l-1.7,1.4l-1.2,2.2l-0.6,1.7
		l-0.5,3.7l-0.4,0.8l-0.3,1l0.6,1.2l0.8,1.1l0.4,0.9l0.6,2.6l1.7,1.3l2,0.5h1.9l1.2,0.3l1.9,1.2l0.9,0.4h0.9l2-0.5l0.6-0.3l2.4,1.4
		l1.3,0.4l0.5-0.3l0.5,0.5l2.1,0.9l0.8,0.5l0.8-1l2.9-4.9l3.8-4.5l0.5-1.4v-4l0.3-1.4l2.6-1.5l0.1-0.3l0.3-0.5l0.4-2l1.5-1.1
		l1.8-4.6l3.1-3.7l1-2.4l3.2-2.8l0.6-1.2l0.5-1.4l0.4-1.5l0.1-1.7l-0.4-1.8L401.6,75.5z"/>
</g>

</svg>
