<?xml version="1.0" encoding="utf-8"?>

<svg version="1.2" baseProfile="tiny" xmlns="http://www.w3.org/2000/svg" xmlns:xlink="http://www.w3.org/1999/xlink" x="0px"
	 y="0px" viewBox="333.6 172 172.8 250" xml:space="preserve">

<g id="Guam">
	<g>
		<polygon fill="#C62139" points="396.7,412.3 396.9,412.6 397.4,412.6 397.6,412.3 397.4,412.1 396.9,412.1 		"/>
		<polygon fill="#C62139" points="374.8,412.1 376.9,412.1 380.5,414.1 385.3,414 385.7,413.6 387.4,414.1 389.1,412.6 390.4,412.1
			392.2,414.6 393.1,414.1 393.5,414.5 394.4,414.6 395.5,413.8 395,412.8 395.6,412.1 396.4,411.6 374.4,411.6 		"/>
		<polygon fill="#C62139" points="383.1,415 383,415.3 382.9,415.8 383.2,416 383.6,416 383.8,415.8 383.8,415.3 383.6,415.1 		"/>
		<polygon fill="#C62139" points="357.6,416 357.2,417.5 356.3,417.5 355.1,419 352.9,419.5 351.9,420.7 351.9,421.7 352.6,422
			353,421.5 355.6,421 358.1,418.5 359,418.5 359.2,417.3 358,416 		"/>
		<polygon fill="#C62139" points="384.9,415 384.7,415.3 384.7,415.8 384.9,416 385.4,416 385.6,415.8 385.5,415.3 385.3,415 		"/>
		<polygon fill="#C62139" points="388.9,413.8 389.2,414 389.6,414 390.2,413.3 390,413.1 389.6,413.1 		"/>
		<polygon fill="#C62139" points="463.9,176 463,176 459.8,173 457.6,172.1 454.6,172 453.7,172.5 450.6,175.7 449.1,180.2
			448.9,180.6 467.4,180.6 466.8,179.2 		"/>
		<polygon fill="#C62139" points="360.2,416 360.8,415.3 360.8,414.8 360.6,414.5 359.7,414.6 359.1,415.3 359.1,415.8 359.3,416.1
					"/>
		<polygon fill="#C62139" points="393.5,415.1 393.3,415.3 393.4,415.8 393.6,416 394,416 394.2,415.8 394.2,415.3 394,415.1 		"/>
		<polygon fill="#C62139" points="366.1,418.3 366.4,418.5 368.1,418.5 368.7,417.8 368.5,417.5 366.3,417.5 		"/>
		<polygon fill="#C62139" points="378.8,415 378.6,415.3 378.6,415.8 378.8,416.1 379.3,416.1 379.5,415.8 379.5,415.3 379.2,415
			"/>
		<polygon fill="#C62139" points="381,415.1 380.8,415.3 381.4,416 381.9,416 382.1,415.8 382.1,415.3 381.8,415 		"/>
		<polygon fill="#00297B" points="344,357.4 343.8,357.1 343.4,357.1 343.1,357.4 343.4,357.6 343.8,357.6 		"/>
		<polygon fill="#00297B" points="442,206.2 442.6,205.4 442.4,205.2 441.1,205.2 440.9,205.5 440.9,205.9 441.1,206.2 		"/>
		<polygon fill="#00297B" points="378.6,276 378.8,275.7 378.8,275.2 378.6,275 377.7,275 377.5,275.2 378.2,276 		"/>
		<path fill="#00297B" d="M377.8,295.7c0-6,1.1-11.9,3-17.5l-0.9-0.7l-1.8-0.5l-0.1,3.2l-1,1.2l-1.7,0l-3.4,2l-2.2,0l-0.9-1.5
			l-1.3,0l-2.6,1.5l-2.6,1.5l-2.2,0l-0.4-0.5l-1.8-0.5l-1.3-1h-2.6l-1.3,1H352l-0.4-0.5l-9.1,0l-2.1,2l-0.4,0l-4,4.7l1.1,0.3l1.7-2
			h0.5l1.2-1.5l1.3-0.5l0.8-1l0.8-0.5h9.6l0.4,0.5l1.3,0l1.8,1l3,0l0.4,0.5l0.7,0.3l-0.2,0.2l-1.7,0l-1.5,1.2l0.1,1l1.1,1.7l0.5,0
			l0.8-1.5l2.6,0.5l0.8-1l1.7,0l1.5,0.8l-0.8,2l0,1l0.5,0.5l0.1,3l-1.4,1.7h-0.4l-0.2-1.7l-1.6-1.7l-2.2,0l-0.2,0.7l0.5,0.5
			l-0.6,0.2l-1,1.2l0.1,2.5l1.2,1.2l1.7-0.5l1.2,1.7l0.5,1.5l-0.4,0.5l0.4,1l-1.7,2l0,1l-0.8,1l0,1l0.4,0.5l-0.2,0.7l-0.9,0
			l-1.6-1.8l-1.4-2.5l0.4-2l-0.9-1l0-1l0.4-0.5l-0.1-2l0.8-1l0-1.5l-2-2.2l-0.8,0.5l-1.3,0l-0.4-0.5h-2.6l-0.9-0.5l-1.3,1l-2.1,0.5
			l-0.4,0.5l-0.9,0l-0.4-0.5l-1.7,0l-1.8-1.5l-1.3-0.5l-0.9-1h-0.9l-0.4-0.5l-2.2,0l-1.7,1l-0.2,1.2l0.9,1l0.5,1.5l1.6,1.7l1.3,0.5
			l0.9,1l1.3,0l0.4,0.5l1.3,0l1.8,2.5l0.7,0.3l0,1l0.4,0.5l0.1,3.5l2,2.2l1.3,0.5l0.7,0.7l-0.4,1l0.7,0.7l1.2-1h2.6l3.4,4.2l0.1,2
			l0.9,1l0.5,3l-1.2,2l-0.3,3l-1.5,1.2l-1.3,0l-0.6,0.8l0.5,2l-0.6,1.2l-1.3-0.5l-0.6,0.8l0.1,2.4l0.9,1.5l0.1,2.9l-0.8,1.5l0,1
			l-0.8,1l-0.8,2l0.1,2l-1.7,2.5l0.1,1.5l-1.2,2.9l-1,1.2l-1.3,0l-0.2,0.8l3.3,2.2l1.3,0l0.2,0.3l-0.4,0.5l1.9,0.2l1.2,1.8l0,1.5
			l1.8,1.5l-1.2,3l0.3,1.7l1.4,1l2.4,0.8l-0.2,1.2l-1.3-0.5l-0.6,0.7l0,1l0.4,0.5l0.1,2.5l0.7,0.7l1.5,0.2l-0.8,1l0.6,2.9l0.7,0.7
			h0.9l0.4-0.5l0.7,0.3l0,0.5l-2.1,2l-0.4,1l0.1,2l0.5,1l1.8,2l0.1,3l0.9,1l0.1,2l-0.8,1.5l0.5,2l1.6,1.7l1.3,0l1.3,1.5l1.3,0.5
			l0.7,0.7l0.5,3l1.2,1.3l2.6,0l0.9,0.5l0.8-1h0.4l0.7,1.7l0.7,0.8h22l0.9-0.5l1.1-1.2l0-1.5l1.6-2l0.2-1.2l1.7-0.5l0.6-0.8l0.4-1.5
			L402,402l1.1-0.8h0.8l3.2-3.2l-1.3-1l0.6-1.2l1.4,1.5l0.9,0l2.3-2.8l-0.1-1.5l1.1-0.2l1.5-2.2l-0.1-2.5l1.5-1.7l0.6-0.3l0-0.5
			l1.2-1.5l-0.1-2l0.8-1.5l-0.1-2.5l-0.5-0.5l-0.1-1.5l0.4-0.5v-1l-0.5-0.5l-0.1-3l0.4-0.5l-0.2-5.9l-0.5-0.5l-0.1-2l-0.7-0.7
			l-1.3-1l-1.7,0.5l-1.1-1.3l2.6-0.2C402.5,349.3,377.8,323.9,377.8,295.7z"/>
		<polygon fill="#00297B" points="356.9,323 357.1,322.7 357.1,322.2 356.8,322 356.4,322 356.2,322.2 356.2,322.7 356.4,323 		"/>
		<polygon fill="#00297B" points="350.4,334.9 350.6,334.6 350.5,334.1 350.3,333.8 349.5,333.9 349.3,334.1 349.3,334.6
			349.5,334.9 		"/>
		<polygon fill="#00297B" points="345.6,348.7 346.3,348 346.2,347 346,346.8 345.6,346.8 344.9,347.5 345,348.5 345.2,348.7 		"/>
		<polygon fill="#00297B" points="347.1,353.7 347.3,353.4 347.3,352.9 347.1,352.7 346.7,352.7 346.5,352.9 346.5,353.4
			346.7,353.7 		"/>
		<path fill="#00297B" d="M447.8,183.2l-0.6,0.8l-1.3,0.5l-2.3,3.7l-0.8,2l0.1,2.5l-0.4,0.5l0.3,8.4l0.5,0.5l0.1,4l0.4,0.5l0,1
			l-0.8,2l-0.8,2.5l-2.1,3l0.6,2.5l-1.9,1.2l-2.3,2.7l0,0.5l-0.8,0.5l0.1,2l-1.2,1.5l-0.3,2l-1.1,0.7l-2.3,2.7l0.1,2.5l-0.4,0.5l0,1
			l-0.5,1.2c9.6,8.8,23.2,23.9,28.7,42.7l2-1.8l0-0.5l2.9-3.5l0-0.5l4.4-3.2l2.2,0l0.4-0.5l0.9,0l3.1-4.2l-0.1-4l0.6-0.7l0.9,0
			l0.8-1h0.5l2-2.5l1.7-1l0.5,0.5l1.3,0l0.2-0.8l1.1-0.8l2.2,0l0.4-0.5l1.3,0l1.3-1l1.7-0.5l1-1.2l0.8-2l-0.1-1.5l1.2-3l0.4-0.5
			l0.3-2.5l0.4-0.5l-0.1-1.5l1.7-2.5l0-1l0.8-1l0-1l0.8-1l0-1.5l-0.5-0.5l0.4-0.5l0-1l-0.5-0.5l-0.1-3l0.8-2l1-1.2l0.4,0l1-1.2
			l0-0.5l1.3-1l1.6-4l-0.1-2.5l0.4-0.5l-0.1-1.5l2.4-4.9l0-1.5l-1.2-1.7l-3.4,0l-0.4,0.5l-7-0.5l-0.4-0.5l-5.2,0.5l-0.5-0.5l-1.3,0
			l-0.4-0.5l-2.6-0.5l-0.9-1l-0.9,0l-0.5-0.5l-1.7-0.5l-1.2-1.3l0.4-0.5l-0.1-1.5l-0.9-1l0-1.5l-1-1.5l0-0.5l-2.7-3.5l0-0.5l-2-2.2
			h-0.4l-2-2.2l0-0.5l-2.3-2.9l-0.3-0.6h-18.5L447.8,183.2z"/>
		<path fill="#C62139" d="M430.2,236.3l-0.3,0.8l-1.6,2l0,1l-0.9,1.3c9.1,8,23.6,23.4,28,42.8l0.5-0.6l0-0.5l2.3-2.7h0.4l0.2-1.3
			l0.1-0.1C453.4,260.3,439.8,245.2,430.2,236.3z"/>
		<path fill="#C62139" d="M415.8,353.7c-0.2-0.1-0.3-0.3-0.5-0.5c-0.1-0.1-0.2-0.2-0.3-0.3c0,0-0.1-0.1-0.1-0.1
			c-0.2-0.2-0.5-0.4-0.7-0.7c-0.1-0.1-0.1-0.1-0.2-0.2c-0.1-0.1-0.1-0.1-0.2-0.2c-0.2-0.2-0.4-0.4-0.7-0.6c-0.1-0.1-0.2-0.2-0.3-0.2
			c-0.3-0.3-0.6-0.5-0.9-0.8c-0.1-0.1-0.2-0.2-0.3-0.3c-0.2-0.2-0.4-0.4-0.6-0.5c-0.1-0.1-0.2-0.2-0.4-0.3c-0.1-0.1-0.2-0.2-0.3-0.3
			c-0.3-0.3-0.5-0.5-0.8-0.8c-0.2-0.2-0.3-0.3-0.5-0.5c-0.3-0.3-0.6-0.6-1-1c-0.1-0.1-0.1-0.1-0.2-0.2c-0.1-0.1-0.2-0.2-0.4-0.4
			c-0.3-0.3-0.5-0.5-0.8-0.8c-0.1-0.1-0.2-0.2-0.2-0.3c-0.1-0.1-0.2-0.2-0.3-0.3c-0.1-0.1-0.1-0.1-0.2-0.2c0,0-0.1-0.1-0.1-0.1
			c0,0,0,0,0,0c-0.1-0.1-0.2-0.2-0.3-0.3c-0.2-0.3-0.5-0.5-0.7-0.8c-0.3-0.3-0.5-0.6-0.8-0.9c-0.3-0.3-0.5-0.6-0.8-0.9
			c-0.5-0.5-0.9-1-1.4-1.6c-0.3-0.3-0.5-0.6-0.8-0.9c0-0.1-0.1-0.1-0.1-0.2c0,0,0,0,0,0c0,0,0-0.1-0.1-0.1c-0.2-0.2-0.4-0.5-0.6-0.7
			c-0.3-0.3-0.5-0.6-0.8-0.9c-0.3-0.3-0.5-0.7-0.8-1c-0.3-0.3-0.5-0.6-0.8-1c-0.3-0.3-0.5-0.7-0.8-1c0,0-0.1-0.1-0.1-0.1
			c-0.3-0.4-0.7-0.9-1-1.3c-0.2-0.3-0.5-0.7-0.7-1c-0.1-0.2-0.2-0.4-0.4-0.5c-0.3-0.4-0.5-0.7-0.8-1.1c-0.2-0.3-0.4-0.6-0.6-0.9
			c-0.1-0.1-0.1-0.2-0.2-0.2c0,0,0,0,0,0c-0.2-0.4-0.5-0.7-0.7-1.1c-0.2-0.4-0.5-0.8-0.7-1.1c-0.3-0.4-0.5-0.8-0.7-1.2
			c-0.2-0.4-0.4-0.7-0.6-1.1c-0.4-0.7-0.8-1.4-1.2-2.2c-0.2-0.4-0.4-0.7-0.6-1.1c-0.2-0.5-0.5-0.9-0.7-1.4c-0.2-0.4-0.4-0.8-0.5-1.1
			c-0.2-0.5-0.4-0.9-0.6-1.4c-0.2-0.4-0.3-0.8-0.5-1.1c0-0.1-0.1-0.2-0.1-0.3h0c-2.6-6.3-4.3-13-4.3-19.9c0-6.5,1.5-12.8,3.9-18.8
			l-2.8,2l-1.7,0l-0.9-0.8c-1.9,5.6-3,11.5-3,17.5c0,28.2,24.7,53.7,36.1,64l0.2,0l0.4,0.5l0.9,0l1-1.7l-0.1-2l-0.5-1l0.4-0.5l0-0.7
			c-0.1-0.1-0.2-0.2-0.3-0.2C416,353.9,415.9,353.8,415.8,353.7z"/>
		<path fill="#92DBFC" d="M392.3,326.5c0.2,0.4,0.5,0.8,0.7,1.1C392.8,327.3,392.6,326.9,392.3,326.5z"/>
		<path fill="#92DBFC" d="M401.2,338.8C401.2,338.8,401.2,338.8,401.2,338.8c0,0.1,0.1,0.1,0.1,0.2
			C401.3,338.9,401.2,338.8,401.2,338.8z"/>
		<path fill="#92DBFC" d="M402.1,339.9c0.5,0.5,0.9,1.1,1.4,1.6C403,340.9,402.6,340.4,402.1,339.9z"/>
		<path fill="#92DBFC" d="M413.8,268.2c-0.1,0-0.3,0.2-0.6,0.4l0,1c0.3-0.3,0.5-0.5,0.5-0.6C414.1,268.7,414,268.2,413.8,268.2z"/>
		<path fill="#92DBFC" d="M415.4,262.8c-0.3-0.8-1.6-0.9-2.1-1.4c0,0,1.3-0.4,1.3-0.4c0,0-1.8-0.4-2-0.6c0,0,0.7-0.7,0.7-0.7
			s-0.2-0.1-0.5-0.2l-0.5,0.3l-1.3,2.2c1.8,0.4,3,1,4.1,1.3C415.5,263.2,415.4,262.8,415.4,262.8z"/>
		<path fill="#92DBFC" d="M404.3,342.3c0.3,0.3,0.5,0.6,0.8,0.9C404.8,342.9,404.6,342.6,404.3,342.3z"/>
		<path fill="#92DBFC" d="M391,324.2c0.2,0.4,0.4,0.7,0.6,1.1C391.4,324.9,391.2,324.6,391,324.2z"/>
		<path fill="#92DBFC" d="M389.2,321c0.2,0.4,0.4,0.7,0.6,1.1C389.6,321.7,389.4,321.3,389.2,321z"/>
		<path fill="#92DBFC" d="M410.7,265.3c-0.2,0-0.4,0-0.6,0l0,0l0.4,0.3c0.1,0,0.1,0,0.2-0.1C411,265.5,411,265.3,410.7,265.3z"/>
		<path fill="#92DBFC" d="M408,346.3c-0.1-0.1-0.2-0.2-0.3-0.3C407.9,346.2,408,346.3,408,346.3C408.1,346.4,408.1,346.4,408,346.3z
			"/>
		<path fill="#92DBFC" d="M418.2,260.2c0.4,0.3,0.7,0.1,0.4-0.6c-0.3-0.7-1.5-1.3-1.4-1.8c0-0.1,0.1-0.1,0.3-0.1l0-0.1l-0.9,0
			l-0.6,0.3C416.9,259,417.8,259.9,418.2,260.2z"/>
		<path fill="#92DBFC" d="M409.7,348c0,0-0.1-0.1-0.1-0.1c-0.1-0.1-0.2-0.2-0.3-0.3c0,0,0,0,0,0C409.4,347.7,409.6,347.9,409.7,348z
			"/>
		<path fill="#92DBFC" d="M401.1,338.7c-0.1-0.2-0.3-0.4-0.4-0.5c-0.1-0.1-0.1-0.1-0.2-0.2C400.7,338.2,400.9,338.4,401.1,338.7z"/>
		<path fill="#92DBFC" d="M411.1,349.4c-0.1-0.1-0.2-0.2-0.3-0.3c0,0,0,0,0,0C410.9,349.2,411,349.3,411.1,349.4z"/>
		<path fill="#92DBFC" d="M427.3,241.4l-0.8,1.1l0.1,1l0.5,0.5l0.1,2l0.4,0.5l-0.4,0.5l0.1,1l0.4,0.5l-0.4,0.5l0,1l1.8,1.5l0.1,1.5
			l-0.1,0.1c2.3-1,4.7-1.4,6.1-0.8c0,0-2.5,0.7-2,0.8c0.5,0.2,0.9,0.5,0.9,0.5c0,0-2.3,0.6-2.3,0.7c0.5,0.5,1.3,1,1.3,1
			c-0.1,0.4-2.6-0.4-2.8,0.1c-0.1,0.1,1.2,0.9,1.2,1c-0.2,0.3-3.1-0.4-3.6,0.4c-0.2,0.4,1.4,1,1,1.3c0,0-1.7,0.1-2.1,0.2
			c-0.4,0.1,1.5,0.8,1.1,1.1c-0.6,0.3-2.8,0.5-4.2,1.8c-0.3,0.3,1.3,0.1,3.4-0.4c2.5-0.6,5.5-0.5,6.2-0.4c4,0.4,6.3,2,6.9,3.5
			c0,0-1.2-0.7-2.2-0.9c-0.1,0,0,0.9,0,0.9c-0.4-0.1-0.9-1.1-1.5-1.2c-0.2-0.1-0.3,1-0.3,1c-0.2-0.6-1.6-1.1-1.6-1.1
			c-0.1-0.3,0,1.4-0.1,1.1c-0.3-0.5-1.1-1.1-1.5-1c0,0,0.3,1.2,0.2,1.1c-0.5-0.6-1.5-0.7-2.3-1.2c-0.2-0.1,0.4,1.3,0.2,1.2
			c-0.6-0.4-1.2-0.8-1.9-0.8c0,0,0.1,1.3-0.1,1.3c-0.7-0.2-1.8-0.2-1.9,0.5c-0.1,0.4-2.2,0.8-2.2,0.8c4.3,0,9.5,1.9,12.4,5.1
			c1.8,2,1.5,6.6,1.4,6.6c-0.2,0.1-0.6-2-0.8-2.1c-0.3-0.1-0.5,0.9-0.9,0.6c-0.2-0.1-0.6-1.7-0.8-1.9c-0.3-0.2-0.5,1.2-0.9,0.5
			c-0.2-0.3-0.1-1.7-0.4-1.8c-0.3-0.2-0.6,1-0.9,0.7c-0.2-0.3-0.4-1.9-0.6-2c-0.2-0.2-0.4,1.1-0.6,0.9c-0.4-0.4-0.3-1.3-0.7-1.6
			c-0.3-0.2-0.4,1.5-0.7,1.2c-0.5-0.4-0.5-1.4-0.9-1.9c-0.2-0.3-0.2,1.3-0.5,0.9c-0.4-0.4-0.7-2-1-1.9c-0.3,0.1-0.3,1.4-0.4,1.4
			c-0.5,0-1.1-2.3-1.6-2.2c-0.2,0-0.4,1.6-0.4,1.6c-0.5,0.1-1.8-2.1-2.2-1.7c-0.1,0.1-0.1,1-0.1,1c-0.1,0.1-1.1-0.6-1.6-0.7
			c-1.2-0.1,1.2,1.4,1.3,1.6c0,0-1.1,0.4-0.9,0.6c0.7,0.6,2.2,0.8,2.4,1.3c0,0.1-1.6,0.4-1.2,0.8c0.6,0.7,1.8,0.9,2.2,1.4
			c0,0-1.3,0-1,0.3c0.5,0.6,1.5,0.9,1.5,1.5c0,0.1-1.1,0.1-1,0.3c0.4,0.6,0.9,0.7,1.2,1.3c0,0-1-0.1-0.9,0.3
			c0.3,1.6,1.3,2.1,1.3,2.1c0,0.2-0.8,0.1-0.8,0.3c0.2,1.6,0.3,3.3,0.1,3.4c0,0,0.2-1.4-0.7-2.2c-0.1-0.1-1.2,0-1.2,0
			c-0.1-0.1,0.1-1.8,0-2.1c-0.1-0.2-0.7,0.6-0.7,0.4c-0.1-0.9,0.1-1.9-0.1-2.7c0-0.1-1,0.7-1,0.7c0.1-1,0.1-1.6,0-2.4
			c0-0.1-1,0.1-1,0c0.3-0.6,0.5-1.2,0.4-1.6c0-0.1-0.7,0.1-0.7,0c0,0,0.2-0.1,0.1-1.1c0-0.1-1,0-1-0.1c-0.1-1,0.1-2,0.1-2
			c0,0.1-1,0-1,0c0,0,0,0,0,0c-0.1,0-0.1,0-0.2,0c-0.1,10.2-0.5,29.8,1.9,36.8c0.2,0.6,0.4,1.2,0.7,1.8l0.7-0.2l0.4-0.5l1.3,0
			l0.8-0.5l0.8-1.5h0.4l0.9,1l0.8,0l0.5,0.5l1.8,0l1.9-1.7l0.8-2.5l0.4-1l2.7-3.2c-0.1-0.4-0.3-1-0.5-1.5c-0.5-1.5-0.9-2.7-0.9-2.7
			c0,0,0,1.2,0,2.6c0,2.9,0,2.7-0.2,2.9l-0.1,0.1l-0.7,0c-0.4,0-0.7,0-0.7,0l0,0c-0.1,0-0.2-0.1-0.2-0.3c0-0.1,0-1.6,0-4.6l0-4.5
			l0.1-0.1c0.1-0.2,0.1-0.2,1.2-0.2c0.9,0,1,0,1.1,0c0,0,0.1,0.1,0.1,0.1c0,0,0.5,1.5,1.1,3.3c0.6,1.8,1.1,3.2,1.1,3.2
			c0,0,0.5-1.5,1.1-3.2c0.7-2,1.1-3.3,1.2-3.3c0.1-0.2,0.1-0.2,1.1-0.2c0.9,0,0.9,0,1,0c0,0,0.1,0.1,0.1,0.1l0.1,0.1l0,4.6
			c0,0.1,0,0.2,0,0.3l0.5-0.3l2.3-2.7l-0.1-1.5l0.7-0.2l2.5-3h0.4l0.8-1.5l0.9,0.5l1.2-1.5l1.7,0l0.8-0.5l1-1.1
			C450.9,264.8,436.5,249.5,427.3,241.4z M429.9,300.6c-0.1,0.1-0.1,0.1-0.9,0.1h-0.8l-0.1-0.1c-0.1-0.1-0.1-0.1-0.6-1.4
			c-0.2-0.6-0.4-1.1-0.5-1.2c0,0-0.1,0-1.6,0c-1.5,0-1.6,0-1.6,0c0,0-0.2,0.6-0.4,1.2c-0.2,0.6-0.4,1.2-0.5,1.3c0,0-0.1,0.1-0.1,0.1
			c-0.1,0.1-0.1,0.1-0.8,0.1c-0.4,0-0.7,0-0.8,0c0,0-0.1-0.1-0.2-0.1c-0.1-0.1-0.1-0.2-0.1-0.4c0-0.2,3.5-9,3.5-9.1
			c0.1-0.1,0.1-0.1,0.9-0.1c0.8,0,0.8,0,0.9,0.1c0,0,0.9,2.1,1.9,4.6c1.6,3.9,1.8,4.5,1.8,4.6C430,300.4,430,300.5,429.9,300.6z"/>
		<path fill="#92DBFC" d="M406.2,344.4c0.1,0.1,0.1,0.1,0.2,0.2C406.3,344.6,406.3,344.5,406.2,344.4z"/>
		<path fill="#92DBFC" d="M406.1,344.3c-0.1-0.1-0.2-0.2-0.3-0.3C405.9,344.1,406,344.2,406.1,344.3
			C406.1,344.3,406.1,344.3,406.1,344.3z"/>
		<path fill="#92DBFC" d="M413.9,352c0,0-0.1-0.1-0.1-0.1C413.8,352,413.9,352,413.9,352C414,352.1,413.9,352,413.9,352z"/>
		<path fill="#92DBFC" d="M416.1,353.9c0.1,0.1,0.2,0.2,0.3,0.2l0,0C416.3,354.1,416.2,354,416.1,353.9
			C416.1,353.9,416.1,353.9,416.1,353.9z"/>
		<path fill="#92DBFC" d="M415.3,353.3c-0.1,0-0.1-0.1-0.2-0.1c-0.1,0-0.1-0.1-0.2-0.1C415.1,353.1,415.2,353.2,415.3,353.3z"/>
		<path fill="#92DBFC" d="M388,318.4c0.2,0.4,0.4,0.8,0.5,1.1C388.3,319.2,388.1,318.8,388,318.4z"/>
		<path fill="#92DBFC" d="M386.7,315.6l13.8,0c0.7-2.5,1.1-5.9,0.5-10.2c0,0,5.1,1.3,10.3,8.8c0,0,0.4,0.4,0.9,1.4l0.5,0l1.9-4.9
			c0,0,2.2,0.1,5.5,0.3c-0.4-1-0.8-2.1-1.2-3.3c-2.5-8.3-1.6-26.4-1.6-36.4c0,0-0.1,0-0.1,0c-0.2-0.1-0.4-0.3-0.5-0.5
			c-0.2-0.2-0.7-0.6-0.8-0.4c-0.1,0.1,0.3,1.8,0.2,2c-0.1,0.2-0.8-0.9-0.9-0.7c-0.1,0.2-0.1,2.5-0.3,2.8l-0.7-0.7
			c-0.2,0.4-0.1,1.9-0.1,1.9c-0.2,0-0.6-1.3-0.7-0.9c-0.2,0.5,0.3,2.4,0.3,2.4c-0.2,0.3-0.6-0.8-0.7-0.4c-0.1,0.5-0.1,1.1,0,1.6
			c0,0.2-0.5-0.3-0.5,0c-0.1,0.9,0,2.8,0,2.8c-0.1,0.1-0.7-1.2-0.9-0.7c-0.3,0.8-0.8,3.1-0.9,3.7c0,0.1,0,0.2,0,0.1c0,0,0-0.1,0-0.1
			c0-0.6-0.4-2.9-0.6-2.9c-0.4-0.1-1.2-0.1-1.2-0.1c-0.3-0.3,1.2-2.1,1-2.5c-0.1-0.2-0.7-0.2-0.8-0.1c0,0,0,0,0,0c0,0,0,0,0,0
			c0.1-0.1,1.3-2.1,1.3-2.6c0-0.2-0.8-0.3-0.8-0.2c0,0.1,1.6-2,1.9-2.1c0.2-0.1,0-0.2-0.2-0.2l0,0l-1.7,1l-2.1,1.5l-4.3,0.5
			l-0.9-0.9l-0.3,0.1c0,0.1-0.1,0.2-0.1,0.2c0,0-0.1,0-0.1-0.1l-0.2,0.1l-0.1,1.3l-0.9-0.5l-0.6,0c-0.1,0.1-0.1,0.2-0.1,0.2
			c0-0.1,0-0.1-0.1-0.2l-1,0l-0.4-0.5h-2.6l-0.4-0.5l-4.3,0l-0.9-1l-0.4,0l-0.4,1.5l-1.8,0l-1.4,1c-2.4,5.9-3.9,12.3-3.9,18.8
			C382.4,302.6,384.1,309.3,386.7,315.6z M408.3,294.2c0-2.8,0-2.9,0.1-3c0,0,0.1-0.1,0.1-0.2l0.1-0.1l0.7,0c0.7,0,0.7,0,0.8,0
			c0.1,0,0.1,0.1,0.2,0.1l0.1,0.1l0,3c0,2.7,0,3,0,3.3c0.1,0.5,0.2,0.7,0.4,1c0.3,0.3,0.7,0.4,1.3,0.5c0.6,0,1,0,1.3-0.2
			c0.4-0.2,0.6-0.5,0.7-1.2c0.1-0.3,0.1-0.3,0.1-3.3c0-3.4,0-3.1,0.2-3.2l0.1-0.1h0.7c0.8,0,0.8,0,0.9,0.2l0.1,0.1l0,2.7
			c0,2.7,0,3.3-0.1,3.8c-0.2,1.1-0.5,1.8-1.2,2.3c-0.2,0.2-0.3,0.2-0.6,0.4c-0.4,0.2-0.8,0.3-1.2,0.4c-0.2,0-1,0.1-1.3,0
			c-1.1-0.1-1.9-0.4-2.4-1c-0.6-0.6-0.9-1.2-1-2.4C408.3,297.1,408.3,296.8,408.3,294.2z M396.9,294.9c0.2-1,0.5-2,1.1-2.6
			c0.2-0.2,0.5-0.5,0.7-0.6c0.4-0.3,1-0.6,1.6-0.8c0.4-0.1,0.7-0.1,1.2-0.2c0.7,0,1.2,0,1.8,0.2c0.7,0.2,1.3,0.6,1.7,1.2
			c0.3,0.4,0.6,1.2,0.7,1.5c0,0.2-0.1,0.4-0.2,0.4c-0.1,0-0.3,0.1-0.6,0.2c-0.6,0.2-0.7,0.2-0.8,0.1c-0.1-0.1-0.1-0.1-0.2-0.4
			c0-0.1-0.1-0.3-0.2-0.5c-0.1-0.2-0.2-0.3-0.3-0.4c-0.2-0.2-0.2-0.2-0.4-0.3c-0.5-0.2-1.1-0.3-1.7-0.2c-0.5,0.1-1,0.2-1.3,0.5
			c-0.7,0.5-1.1,1.6-1.1,2.9c0.1,1.7,0.8,2.6,2.3,2.9c0.3,0.1,0.9,0.1,1.2,0c0.4-0.1,1.1-0.3,1.5-0.6l0.1-0.1v-0.5l0-0.5l-1.2,0
			l-1.2,0l-0.1-0.1c0,0-0.1-0.1-0.1-0.1c-0.1-0.1-0.1-0.1-0.1-0.7c0-0.6,0-0.7,0.1-0.7c0,0,0.1-0.1,0.1-0.1l0.1-0.1l2,0l2,0l0.1,0.1
			c0,0,0.1,0.1,0.1,0.1l0.1,0.1l0,1.7c0,1.8,0,1.9-0.1,2c0,0-0.2,0.2-0.3,0.3c-1,0.7-2,1.1-3,1.2c-0.3,0-1,0-1.2,0c0,0-0.2,0-0.3,0
			c-0.8-0.1-1.7-0.4-2.3-0.9c-0.9-0.7-1.5-1.8-1.7-3.1C396.8,296.2,396.8,295.3,396.9,294.9z"/>
		<path fill="#92DBFC" d="M386.8,315.9c0.2,0.4,0.3,0.8,0.5,1.1C387.2,316.7,387,316.3,386.8,315.9z"/>
		<path fill="#92DBFC" d="M394,329.2c0-0.1-0.1-0.1-0.1-0.2c0.2,0.3,0.4,0.6,0.6,0.9C394.4,329.7,394.2,329.4,394,329.2z"/>
		<path fill="#92DBFC" d="M397.7,334.3c-0.1-0.1-0.2-0.2-0.2-0.3c0.2,0.3,0.5,0.7,0.8,1C398,334.8,397.9,334.5,397.7,334.3z"/>
		<path fill="#92DBFC" d="M440.7,295.2l-0.1,0.3c-0.1,0.2-0.4,1.1-0.8,2.2l0.3,0l0.5,0.5l0.1,0l0-0.5L440.7,295.2z"/>
		<path fill="#92DBFC" d="M395.7,331.7c0,0-0.1-0.1-0.1-0.1c0.2,0.3,0.5,0.7,0.7,1C396.2,332.2,395.9,332,395.7,331.7z"/>
		<path fill="#92DBFC" d="M399.8,337c0,0-0.1-0.1-0.1-0.1c-0.2-0.3-0.5-0.6-0.7-0.9c0,0,0,0-0.1-0.1
			C399.2,336.3,399.5,336.7,399.8,337z"/>
		<path fill="#92DBFC" d="M425.4,293.7C425.4,293.7,425.4,293.7,425.4,293.7c-0.1,0.2-0.9,2.5-1,2.5c0,0,0.4,0,0.9,0h1l0-0.1
			C426.3,296,425.4,293.8,425.4,293.7z"/>
		<path fill="#008CE7" d="M398.9,336C399,336,399,336,398.9,336c-0.4-0.5-0.8-1.1-1.3-1.6c0.2,0.2,0.3,0.4,0.5,0.7
			C398.4,335.3,398.7,335.6,398.9,336z"/>
		<path fill="#008CE7" d="M397.3,333.9c-0.5-0.7-1.1-1.5-1.6-2.2c0.2,0.3,0.4,0.6,0.6,0.9C396.7,333,397,333.4,397.3,333.9z"/>
		<path fill="#008CE7" d="M406.7,345c0.1,0.1,0.2,0.2,0.2,0.3C406.9,345.1,406.8,345.1,406.7,345z"/>
		<path fill="#008CE7" d="M411.7,350c0.1,0.1,0.2,0.2,0.3,0.3C411.9,350.1,411.8,350.1,411.7,350z"/>
		<path fill="#008CE7" d="M395.3,331c-0.4-0.6-0.8-1.2-1.2-1.8c0.2,0.2,0.3,0.5,0.5,0.7C394.8,330.3,395,330.6,395.3,331z"/>
		<path fill="#008CE7" d="M400.5,337.9c0.1,0.1,0.1,0.1,0.2,0.2c-0.3-0.4-0.7-0.8-1-1.2c0,0,0.1,0.1,0.1,0.1
			C400,337.3,400.3,337.6,400.5,337.9z"/>
		<path fill="#008CE7" d="M408.3,346.6c-0.1-0.1-0.2-0.2-0.3-0.3c0,0,0,0.1,0.1,0.1C408.2,346.5,408.2,346.5,408.3,346.6z"/>
		<path fill="#008CE7" d="M414.2,352.3c-0.1-0.1-0.2-0.2-0.3-0.2c0,0,0,0,0.1,0.1C414.1,352.1,414.1,352.2,414.2,352.3z"/>
		<path fill="#008CE7" d="M412.8,351c0.1,0.1,0.2,0.2,0.3,0.2C413,351.2,412.9,351.1,412.8,351z"/>
		<path fill="#008CE7" d="M412.8,315.7L412.8,315.7l-0.5,0c0.6,1.1,1.4,2.8,2.4,5.6l-6.8,0.1v1.1c3.2-0.1,6.5-0.4,9.2-1
			c0,0,0.7,0.5-0.3,1.6c-1,1.1-3.4,1.4-4.8,1.6c0,0-0.3,0.7-0.3,1.1c0,0.4,0.9,0.3,1.3,0.3c0.4-0.1,0.4-0.1,0.4-0.1
			s-0.2,1.4-5.2,1.6c-1.6,0.1-7,0.2-8.2-1.4c0,0,1,0.1,1.2,0s0.1-1.1,0-1.3c-0.1-0.1-3.5,0-5.3-1.7c-0.4-0.5-0.7-1-0.7-1.2
			c0,0,0.5,0.1,0.5,0.1s4.6,0.4,10,0.3v-1.1l-8.2,0.1c0,0,1.8-1.9,2.9-5.9l-13.8,0h0c0,0.1,0.1,0.2,0.1,0.3c0.2,0.4,0.3,0.8,0.5,1.1
			c0.2,0.5,0.4,0.9,0.6,1.4c0.2,0.4,0.4,0.8,0.5,1.1c0.2,0.5,0.5,0.9,0.7,1.4c0.2,0.4,0.4,0.7,0.6,1.1c0.4,0.7,0.8,1.5,1.2,2.2
			c0.2,0.4,0.4,0.7,0.6,1.1c0.2,0.4,0.5,0.8,0.7,1.2c0.2,0.4,0.5,0.8,0.7,1.1c0.2,0.4,0.5,0.7,0.7,1.1c1.7,0.1,3.5,0.4,5,1.3
			c2.8,1.5,4.4,1.4,7.4,1.5c3.1,0,5.6,2.4,9,2.5c0.5,0,1,0.1,1.4,0.1l0.2-5.4l-1.8-1.5l0.6-0.8l1.7-0.4l2.7-3.2l0.4-1l-0.1-2
			l0.4-0.5l-0.1-2l1-0.7l0.9,0l0.3-0.5c-0.1-0.1-0.1-0.2-0.2-0.4L412.8,315.7z"/>
		<path fill="#008CE7" d="M410.8,349.1c-0.1-0.1-0.2-0.2-0.3-0.3C410.6,348.9,410.7,349,410.8,349.1
			C410.8,349.1,410.8,349.1,410.8,349.1z"/>
		<path fill="#008CE7" d="M409.6,336c-3.6,0.4-5.7,0.6-8.4,2.8c0,0.1,0.1,0.1,0.1,0.2c0.3,0.3,0.5,0.6,0.8,0.9
			c0.5,0.5,0.9,1.1,1.4,1.6c0.3,0.3,0.5,0.6,0.8,0.9c0.3,0.3,0.5,0.6,0.8,0.9c0.2,0.3,0.5,0.5,0.7,0.8c0.1,0.1,0.2,0.2,0.3,0.3
			c1.5-1.1,2.6-1.9,4.1-1.9c2.2-0.1,3.3-1.1,5.1-1.6l0.1-0.2l0.4-1l-0.1-2.5l0.1-0.3C413.6,336.3,411.1,335.8,409.6,336z"/>
		<path fill="#008CE7" d="M416.1,353.9c-0.1-0.1-0.2-0.1-0.2-0.2C415.9,353.8,416,353.9,416.1,353.9
			C416.1,353.9,416.1,353.9,416.1,353.9z"/>
		<path fill="#008CE7" d="M415.2,353.1c-0.1-0.1-0.2-0.1-0.2-0.2c0,0,0.1,0.1,0.1,0.1C415.1,353.1,415.1,353.1,415.2,353.1z"/>
		<path fill="#008CE7" d="M409.6,347.9c-0.1-0.1-0.2-0.2-0.3-0.3C409.4,347.7,409.5,347.8,409.6,347.9z"/>
		<path fill="#9C8431" d="M412.8,315.7L412.8,315.7l9.8,0c-0.9-1.5-1.7-3-2.4-4.7c-3.4-0.1-5.5-0.3-5.5-0.3L412.8,315.7z"/>
		<path fill="#FFDE52" d="M406.1,344.3C406.1,344.3,406.1,344.3,406.1,344.3C406.1,344.3,406.1,344.3,406.1,344.3
			c0,0,0.1,0.1,0.1,0.1c0.1,0.1,0.1,0.1,0.2,0.2c0.1,0.1,0.2,0.2,0.3,0.3c0.1,0.1,0.2,0.2,0.2,0.3c0.3,0.3,0.5,0.5,0.8,0.8
			c0.1,0.1,0.2,0.2,0.3,0.3c0.1,0.1,0.2,0.2,0.3,0.3c0.3,0.3,0.6,0.7,1,1c0,0,0,0,0,0c0.1,0.1,0.2,0.2,0.3,0.3c0,0,0.1,0.1,0.1,0.1
			c0.3,0.3,0.5,0.5,0.8,0.8c0.1,0.1,0.2,0.2,0.3,0.3c0.1,0.1,0.2,0.2,0.3,0.3c0.2,0.2,0.4,0.4,0.6,0.5c0.1,0.1,0.2,0.2,0.3,0.3
			c0.3,0.3,0.6,0.5,0.9,0.8c0.1,0.1,0.2,0.2,0.3,0.2c0.2,0.2,0.4,0.4,0.7,0.6c0.1,0,0.1,0.1,0.1,0.1c0.1,0.1,0.2,0.2,0.3,0.2
			c0.3,0.2,0.5,0.4,0.7,0.7c0.1,0.1,0.2,0.1,0.2,0.2c0.1,0,0.1,0.1,0.2,0.1c0.2,0.2,0.4,0.3,0.5,0.5c0.1,0.1,0.2,0.1,0.2,0.2
			c0.1,0.1,0.2,0.2,0.3,0.2l-0.1-3.7l-1-2l0.4-1l-0.1-3l-0.9-1l0-1.5l0.7-1.3c-1.8,0.5-2.9,1.5-5.1,1.6
			C408.7,342.4,407.6,343.2,406.1,344.3z"/>
		<path fill="#FFDE52" d="M406.1,331.5c-3,0-4.6,0-7.4-1.5c-1.6-0.8-3.3-1.2-5-1.3c0,0,0,0,0,0c0.1,0.1,0.1,0.2,0.2,0.2
			c0,0.1,0.1,0.1,0.1,0.2c0.4,0.6,0.8,1.2,1.2,1.8c0.1,0.2,0.2,0.4,0.4,0.5c0,0,0.1,0.1,0.1,0.1c0.5,0.8,1.1,1.5,1.6,2.2
			c0,0,0.1,0.1,0.1,0.1c0.1,0.1,0.2,0.2,0.2,0.3c0.4,0.6,0.9,1.2,1.3,1.7c0.2,0.3,0.5,0.6,0.7,0.9c0.3,0.4,0.7,0.8,1,1.2
			c0.1,0.2,0.3,0.4,0.4,0.5c0,0,0,0.1,0.1,0.1c0,0,0,0,0,0c0,0,0,0,0,0c2.7-2.1,4.8-2.4,8.4-2.8c1.5-0.2,4.1,0.3,6.3,0.8l0.6-1.7
			l0-1.1c-0.4,0-0.9-0.1-1.4-0.1C411.7,333.8,409.3,331.5,406.1,331.5z"/>
		<path fill="#8C4200" d="M420,270.3C420,270.3,419.9,270.3,420,270.3c-0.1,0.2-0.2,0.4-0.3,0.6c-0.5,0.8-1.5,1-2.2,0.6
			c0,10-0.9,28,1.6,36.4c0.3,1.1,0.7,2.2,1.2,3.3c0.7,1.7,1.5,3.2,2.4,4.7c0.1,0.1,0.1,0.2,0.2,0.4l0.7-1.2l-0.1-1l-1.5-0.8
			l-1.2-1.2l0-0.5l0.4-1l-0.5-0.5l0.6-0.8l1.1-0.3c-0.2-0.6-0.5-1.2-0.7-1.8C419.5,300,419.9,280.5,420,270.3z"/>
		<path fill="#FFFFFF" d="M398.6,299.7c0.6,0.5,1.5,0.8,2.3,0.9c0.1,0,0.2,0,0.3,0c0.2,0,0.9,0,1.2,0c1-0.1,2.1-0.5,3-1.2
			c0.1-0.1,0.3-0.2,0.3-0.3c0.1-0.1,0.1-0.2,0.1-2l0-1.7l-0.1-0.1c0,0-0.1-0.1-0.1-0.1l-0.1-0.1l-2,0l-2,0l-0.1,0.1
			c0,0-0.1,0.1-0.1,0.1c-0.1,0.1-0.1,0.1-0.1,0.7c0,0.6,0,0.7,0.1,0.7c0,0,0.1,0.1,0.1,0.1l0.1,0.1l1.2,0l1.2,0l0,0.5v0.5l-0.1,0.1
			c-0.4,0.2-1,0.5-1.5,0.6c-0.3,0.1-0.9,0.1-1.2,0c-1.5-0.3-2.2-1.2-2.3-2.9c0-1.3,0.4-2.3,1.1-2.9c0.3-0.2,0.8-0.4,1.3-0.5
			c0.6-0.1,1.2,0,1.7,0.2c0.2,0.1,0.3,0.2,0.4,0.3c0.2,0.2,0.2,0.2,0.3,0.4c0.1,0.1,0.2,0.4,0.2,0.5c0.1,0.2,0.1,0.3,0.2,0.4
			c0.1,0.1,0.2,0.1,0.8-0.1c0.3-0.1,0.6-0.2,0.6-0.2c0.2-0.1,0.3-0.2,0.2-0.4c-0.1-0.4-0.4-1.2-0.7-1.5c-0.4-0.5-1-0.9-1.7-1.2
			c-0.6-0.2-1.1-0.3-1.8-0.2c-0.5,0-0.8,0-1.2,0.2c-0.6,0.1-1.2,0.4-1.6,0.8c-0.2,0.1-0.5,0.4-0.7,0.6c-0.5,0.7-0.9,1.6-1.1,2.6
			c-0.1,0.4-0.1,1.3,0,1.7C397.1,298,397.7,299,398.6,299.7z M397.3,295.1c0.1-1,0.5-2,1.1-2.7c1-1.1,3.1-1.6,4.8-1
			c1.1,0.3,1.7,1,2.1,2.1c0.1,0.2,0.1,0.3,0.1,0.3c0,0-0.9,0.3-1,0.3c0,0-0.1,0-0.1-0.2c-0.2-0.5-0.4-0.9-0.7-1.1
			c-0.6-0.5-1.5-0.7-2.5-0.5c-0.7,0.1-1.3,0.4-1.7,0.9c-0.6,0.6-0.8,1.4-0.9,2.5c0,1,0.2,1.8,0.6,2.5c0.7,1.1,2.3,1.5,3.8,1.1
			c0.5-0.1,1-0.4,1.3-0.6l0.2-0.1l0-0.8v-0.8l-1.3,0l-1.3,0l0-0.5v-0.5l1.9,0l1.9,0l0,1.6l0,1.6l-0.2,0.2c-0.8,0.6-1.7,1-2.6,1.2
			c-0.3,0.1-1.1,0.1-1.5,0c-1.2-0.1-2.2-0.7-2.9-1.4c-0.5-0.6-0.9-1.5-1-2.4C397.2,296.1,397.2,295.4,397.3,295.1z"/>
		<path fill="#FFFFFF" d="M409.3,299.8c0.6,0.6,1.4,0.9,2.4,1c0.2,0,1,0,1.3,0c0.5-0.1,0.9-0.2,1.2-0.4c0.2-0.1,0.3-0.2,0.6-0.4
			c0.7-0.5,1.1-1.2,1.2-2.3c0.1-0.5,0.1-1.1,0.1-3.8l0-2.7l-0.1-0.1c-0.1-0.2-0.1-0.2-0.9-0.2h-0.7l-0.1,0.1
			c-0.2,0.1-0.2-0.1-0.2,3.2c0,3,0,3-0.1,3.3c-0.1,0.7-0.3,1-0.7,1.2c-0.3,0.2-0.7,0.2-1.3,0.2c-0.6,0-1-0.1-1.3-0.5
			c-0.3-0.3-0.3-0.5-0.4-1c0-0.2,0-0.6,0-3.3l0-3l-0.1-0.1c0-0.1-0.1-0.1-0.2-0.1c-0.1,0-0.1,0-0.8,0l-0.7,0l-0.1,0.1
			c0,0-0.1,0.1-0.1,0.2c0,0.1,0,0.2-0.1,3c0,2.6,0,2.9,0,3.3C408.5,298.6,408.8,299.3,409.3,299.8z M408.7,294.2l0-2.8l0.6,0h0.6
			l0,3c0,3.2,0,3.1,0.1,3.6c0.2,0.6,0.6,1.1,1.3,1.3c0.5,0.2,1.2,0.2,1.8,0c0.7-0.2,1.1-0.6,1.3-1.3c0.1-0.6,0.1-0.5,0.2-3.7l0-2.9
			l0.6,0h0.6l0,2.7c0,1.6,0,2.9,0,3.1c-0.1,1.4-0.5,2.1-1.3,2.7c-0.3,0.2-0.8,0.4-1.3,0.5c-0.2,0-1.3,0.1-1.5,0
			c-0.9-0.1-1.5-0.4-2-0.8c-0.4-0.4-0.7-0.9-0.8-1.7C408.7,297.3,408.7,297,408.7,294.2z"/>
		<path fill="#FFFFFF" d="M426.3,291.1c-0.1-0.1-0.1-0.1-0.9-0.1c-0.8,0-0.8,0-0.9,0.1c-0.1,0.1-3.5,8.9-3.5,9.1
			c0,0.1,0,0.2,0.1,0.4c0.1,0.1,0.1,0.1,0.2,0.1c0,0,0.4,0,0.8,0c0.7,0,0.7,0,0.8-0.1c0,0,0.1-0.1,0.1-0.1c0,0,0.2-0.6,0.5-1.3
			c0.2-0.7,0.4-1.2,0.4-1.2c0,0,0.1,0,1.6,0c1.5,0,1.6,0,1.6,0c0,0,0.2,0.5,0.5,1.2c0.5,1.4,0.5,1.3,0.6,1.4l0.1,0.1h0.8
			c0.8,0,0.8,0,0.9-0.1c0.1-0.1,0.2-0.2,0.2-0.3c0-0.1-0.2-0.7-1.8-4.6C427.2,293.2,426.4,291.2,426.3,291.1z M429,300.3l-0.7,0
			l-0.1-0.3c-0.1-0.2-0.3-0.8-0.5-1.3l-0.4-1l-1.9,0l-1.9,0l-0.5,1.3l-0.5,1.3l-0.6,0h-0.6l0.1-0.1c0-0.1,0.8-2.1,1.7-4.4l1.7-4.3
			l0.6,0l0.6,0l1.8,4.4c1,2.4,1.8,4.4,1.8,4.5C429.6,300.3,429.6,300.3,429,300.3z"/>
		<path fill="#FFFFFF" d="M425.6,292.9c-0.1-0.3-0.2-0.6-0.2-0.6c0,0-0.1,0.1-0.1,0.3c-0.2,0.6-0.3,1.1-0.8,2.5
			c-0.3,0.8-0.5,1.4-0.5,1.5c0,0,0.1,0,1.5,0c1.4,0,1.5,0,1.5,0c0,0-0.3-0.7-0.6-1.5C426,294.2,425.7,293.3,425.6,292.9z
			 M425.4,296.2c-0.5,0-0.9,0-0.9,0c0,0,0.9-2.3,0.9-2.4c0,0,0-0.1,0,0c0,0.1,0.9,2.3,0.9,2.4l0,0.1H425.4z"/>
		<path fill="#FFFFFF" d="M442.6,291.3L442.6,291.3c-0.1-0.1-0.2-0.2-0.2-0.2c-0.1,0-0.1,0-1,0c-1,0-1,0-1.1,0.2
			c0,0.1-0.5,1.3-1.2,3.3c-0.6,1.8-1.1,3.2-1.1,3.2c0,0-0.5-1.5-1.1-3.2c-0.6-1.8-1.1-3.3-1.1-3.3c0,0-0.1-0.1-0.1-0.1
			c-0.1,0-0.2,0-1.1,0c-1.1,0-1.1,0-1.2,0.2l-0.1,0.1l0,4.5c0,3.1,0,4.6,0,4.6c0,0.1,0.1,0.2,0.2,0.3l0,0c0,0,0.4,0,0.7,0l0.7,0
			l0.1-0.1c0.2-0.1,0.2,0.1,0.2-2.9c0-1.4,0-2.6,0-2.6c0,0,0.4,1.2,0.9,2.7c0.2,0.6,0.4,1.1,0.5,1.5l0.3-0.4l-0.8-2.4
			c-0.7-2.1-1.3-3.8-1.3-3.8c0,0,0,1.7,0,3.8l0,3.8h-0.6l-0.6,0l0-4.4l0-4.5l0.9,0l0.9,0l1.2,3.5c0.5,1.5,1,2.9,1.2,3.5l0.6-0.7
			l0.1,0c0.2-0.7,0.7-2.1,1.2-3.5l1-2.9l0.8,0l0.8,0l0,4.4l0,0.6l0.4-0.3c0-0.1,0-0.2,0-0.3L442.6,291.3z"/>
		<path fill="#FFFFFF" d="M441.1,292.8c0,0-0.6,1.6-1.2,3.5c-0.2,0.5-0.4,1-0.5,1.5l0.4,0c0.4-1.1,0.7-2.1,0.8-2.2l0.1-0.3l0,2.6
			l0,0.5l0.4,0l0-1.7C441.1,294.5,441.1,292.8,441.1,292.8z"/>
		<path fill="#BD0728" d="M398.3,298.9c0.6,0.8,1.7,1.3,2.9,1.4c0.3,0,1.1,0,1.5,0c0.9-0.2,1.8-0.5,2.6-1.2l0.2-0.2l0-1.6l0-1.6
			l-1.9,0l-1.9,0v0.5l0,0.5l1.3,0l1.3,0v0.8l0,0.8l-0.2,0.1c-0.4,0.3-0.9,0.5-1.3,0.6c-1.5,0.4-3.1,0-3.8-1.1
			c-0.4-0.7-0.6-1.4-0.6-2.5c0-1,0.3-1.8,0.9-2.5c0.4-0.4,1-0.8,1.7-0.9c1-0.2,1.9,0,2.5,0.5c0.3,0.2,0.5,0.6,0.7,1.1
			c0.1,0.2,0.1,0.2,0.1,0.2c0.1,0,1-0.3,1-0.3c0,0,0-0.1-0.1-0.3c-0.4-1.1-1-1.8-2.1-2.1c-1.7-0.5-3.8-0.1-4.8,1
			c-0.6,0.7-1,1.6-1.1,2.7c0,0.3,0,1,0,1.4C397.4,297.4,397.7,298.2,398.3,298.9z"/>
		<path fill="#BD0728" d="M409.6,299.5c0.5,0.5,1.1,0.7,2,0.8c0.2,0,1.3,0,1.5,0c0.5-0.1,0.9-0.3,1.3-0.5c0.8-0.6,1.2-1.3,1.3-2.7
			c0-0.2,0-1.5,0-3.1l0-2.7h-0.6l-0.6,0l0,2.9c0,3.2,0,3.1-0.2,3.7c-0.2,0.7-0.6,1.1-1.3,1.3c-0.6,0.1-1.3,0.1-1.8,0
			c-0.7-0.2-1.1-0.6-1.3-1.3c-0.1-0.5-0.1-0.4-0.1-3.6l0-3h-0.6l-0.6,0l0,2.8c0,2.9,0,3.2,0.1,3.7
			C409,298.6,409.2,299.1,409.6,299.5z"/>
		<path fill="#BD0728" d="M426,291.4l-0.6,0l-0.6,0l-1.7,4.3c-0.9,2.4-1.7,4.4-1.7,4.4l-0.1,0.1h0.6l0.6,0l0.5-1.3l0.5-1.3l1.9,0
			l1.9,0l0.4,1c0.2,0.6,0.4,1.2,0.5,1.3l0.1,0.3l0.7,0c0.6,0,0.7,0,0.6,0c0,0-0.8-2-1.8-4.5L426,291.4z M425.4,296.6
			c-1.4,0-1.5,0-1.5,0c0,0,0.3-0.7,0.5-1.5c0.5-1.4,0.7-1.9,0.8-2.5c0-0.2,0.1-0.3,0.1-0.3c0,0,0.1,0.3,0.2,0.6
			c0.1,0.3,0.5,1.3,0.8,2.1c0.3,0.8,0.6,1.5,0.6,1.5C426.9,296.6,426.8,296.6,425.4,296.6z"/>
		<path fill="#BD0728" d="M442.2,291.4l-0.8,0l-0.8,0l-1,2.9c-0.5,1.3-1,2.8-1.2,3.5l0.9,0c0.2-0.5,0.3-1,0.5-1.5
			c0.7-1.9,1.2-3.4,1.2-3.5c0,0,0,1.7,0,3.7l0,1.7l0.3,0l0.6-0.7l-0.1-1l0.2-0.1l0-0.6L442.2,291.4z"/>
		<path fill="#BD0728" d="M435.5,291.4l-0.9,0l-0.9,0l0,4.5l0,4.4l0.6,0h0.6l0-3.8c0-2.1,0-3.8,0-3.8c0,0,0.6,1.7,1.3,3.8l0.8,2.4
			l0.1-0.2h0.5l0.2-0.3c-0.2-0.6-0.7-2-1.2-3.5L435.5,291.4z"/>
		<path fill="#109421" d="M409.3,278.6C409.3,278.6,409.4,278.6,409.3,278.6C409.3,278.6,409.3,278.6,409.3,278.6z"/>
		<path fill="#109421" d="M402.1,275.7c0,0,0-0.1,0.1-0.2l-0.1,0C402,275.7,402,275.8,402.1,275.7z"/>
		<path fill="#109421" d="M411.7,273.6c-0.3,0.2-1.9,2.2-1.9,2.1c0,0,0.8,0,0.8,0.2c0,0.4-1.2,2.4-1.3,2.6c0.1,0,0.7,0,0.8,0.1
			c0.2,0.4-1.3,2.2-1,2.5c0,0,0.9,0,1.2,0.1c0.2,0,0.5,2.3,0.6,2.9c0.1-0.6,0.6-2.9,0.9-3.7c0.2-0.5,0.9,0.8,0.9,0.7
			c0,0-0.1-1.9,0-2.8c0-0.2,0.5,0.3,0.5,0c0-0.5-0.1-1.1,0-1.6c0.1-0.4,0.5,0.7,0.7,0.4c0,0-0.5-1.9-0.3-2.4
			c0.1-0.4,0.5,0.9,0.7,0.9c0,0-0.1-1.5,0.1-1.9l0.7,0.7c0.2-0.2,0.1-2.5,0.3-2.8c0.1-0.2,0.8,0.9,0.9,0.7c0.1-0.1-0.3-1.9-0.2-2
			c0.1-0.2,0.6,0.2,0.8,0.4c-0.3-0.5-0.3-1.2,0-1.8c0.1-0.2,0.2-0.3,0.4-0.4c-0.2-0.1-0.4-0.3-0.6-0.5c-0.4-0.7-0.3-1.5,0.4-1.9
			s1.5-0.2,1.9,0.5c0.2,0.2,0.2,0.5,0.2,0.7c0.5-0.4,1.2-0.5,1.8-0.1c0.7,0.5,0.9,1.4,0.4,2.2c-0.3,0.5-0.8,0.7-1.3,0.8c0,0,0,0,0,0
			c0,0,1,0.1,1,0c0,0-0.1,1-0.1,2c0,0.1,1,0,1,0.1c0.1,1-0.1,1.1-0.1,1.1c0,0.1,0.7-0.1,0.7,0c0.1,0.5-0.1,1.1-0.4,1.6
			c0,0.1,1-0.1,1,0c0.1,0.7,0.1,1.3,0,2.4c0,0.1,1-0.7,1-0.7c0.2,0.9,0,1.8,0.1,2.7c0,0.2,0.7-0.6,0.7-0.4c0.1,0.2-0.1,2,0,2.1
			c0,0,1.1-0.1,1.2,0c0.9,0.8,0.7,2.2,0.7,2.2c0.2-0.2,0.1-1.9-0.1-3.4c0-0.2,0.8-0.1,0.8-0.3c0,0-0.9-0.6-1.3-2.1
			c-0.1-0.3,0.9-0.3,0.9-0.3c-0.3-0.6-0.7-0.7-1.2-1.3c-0.1-0.2,1-0.3,1-0.3c0-0.6-1-0.9-1.5-1.5c-0.2-0.3,1-0.3,1-0.3
			c-0.4-0.5-1.6-0.7-2.2-1.4c-0.3-0.4,1.2-0.7,1.2-0.8c-0.2-0.5-1.7-0.7-2.4-1.3c-0.1-0.1,0.9-0.6,0.9-0.6c-0.1-0.2-2.5-1.8-1.3-1.6
			c0.5,0.1,1.5,0.8,1.6,0.7c0,0,0-0.9,0.1-1c0.4-0.4,1.8,1.7,2.2,1.7c0,0,0.2-1.5,0.4-1.6c0.5-0.1,1.1,2.2,1.6,2.2
			c0.1,0,0.1-1.4,0.4-1.4c0.3-0.1,0.6,1.5,1,1.9c0.3,0.3,0.3-1.2,0.5-0.9c0.3,0.5,0.4,1.5,0.9,1.9c0.3,0.3,0.4-1.4,0.7-1.2
			c0.4,0.3,0.3,1.1,0.7,1.6c0.2,0.2,0.3-1.1,0.6-0.9c0.2,0.2,0.3,1.8,0.6,2c0.3,0.3,0.6-0.8,0.9-0.7c0.2,0.1,0.2,1.5,0.4,1.8
			c0.4,0.6,0.6-0.7,0.9-0.5c0.2,0.1,0.6,1.7,0.8,1.9c0.4,0.3,0.6-0.7,0.9-0.6c0.2,0.1,0.6,2.2,0.8,2.1c0.1,0,0.4-4.7-1.4-6.6
			c-2.9-3.2-8.1-5-12.4-5.1c0,0,2.1-0.4,2.2-0.8c0.1-0.7,1.2-0.6,1.9-0.5c0.1,0,0.1-1.2,0.1-1.3c0.7,0,1.3,0.4,1.9,0.8
			c0.2,0.1-0.4-1.3-0.2-1.2c0.8,0.5,1.7,0.6,2.3,1.2c0.1,0.2-0.2-1.1-0.2-1.1c0.4-0.1,1.2,0.5,1.5,1c0.2,0.3,0-1.4,0.1-1.1
			c0,0,1.4,0.5,1.6,1.1c0,0,0.1-1.1,0.3-1c0.6,0.1,1.1,1.1,1.5,1.2c0,0-0.2-1,0-0.9c1.1,0.3,2.2,0.9,2.2,0.9
			c-0.6-1.5-2.9-3.1-6.9-3.5c-0.7-0.1-3.7-0.2-6.2,0.4c-2.1,0.5-3.7,0.8-3.4,0.4c1.4-1.3,3.6-1.5,4.2-1.8c0.4-0.2-1.5-1-1.1-1.1
			c0.4-0.1,2.1-0.2,2.1-0.2c0.4-0.3-1.2-0.9-1-1.3c0.5-0.8,3.3-0.1,3.6-0.4c0.1-0.1-1.2-0.9-1.2-1c0.2-0.4,2.7,0.3,2.8-0.1
			c0,0-0.8-0.6-1.3-1c-0.1-0.1,2.3-0.7,2.3-0.7c0,0-0.4-0.3-0.9-0.5c-0.5-0.2,2-0.8,2-0.8c-1.4-0.6-3.7-0.2-6.1,0.8l-0.7,1.4
			l-1.3,1.5l-0.4,1.5l-1,1.2l-3,1.5h-0.9l-0.4,0.5l-1.8,0l-2.2-2.9c-0.1,0-0.2,0.1-0.3,0.1c0,0.4,1.2,1,1.4,1.8
			c0.3,0.7,0,0.9-0.4,0.6c-0.4-0.3-1.3-1.2-2.3-2.2l-1.1,0.6l-0.4,0.5l-1.3,0l-0.4,0.2c0.3,0.1,0.5,0.2,0.5,0.2s-0.8,0.7-0.7,0.7
			c0.2,0.2,2,0.6,2,0.6c0,0-1.3,0.4-1.3,0.4c0.5,0.5,1.8,0.6,2.1,1.4c0,0,0.2,0.4-0.3,0.4c-1-0.4-2.3-0.9-4.1-1.3l-0.9,1.5l0.1,1.9
			c0.2,0,0.4,0,0.6,0c0.3,0,0.3,0.2,0,0.3c-0.1,0-0.1,0-0.2,0.1l2.7,2.1l0,0.8c0.3-0.2,0.5-0.4,0.6-0.4c0.1,0,0.3,0.5-0.1,0.8
			c0,0-0.2,0.2-0.5,0.6l0,0.7l-0.8,2l-1,1.2C411.8,273.5,411.9,273.5,411.7,273.6z"/>
		<polygon fill="#109421" points="410.4,267.5 410.2,267.8 410.2,268.3 410.4,268.6 410.9,268.6 411.5,267.8 411.2,267.6 		"/>
		<path fill="#109421" d="M400.1,276.5l-0.2,0c0,0.1,0,0.2,0.1,0.2C400,276.7,400.1,276.6,400.1,276.5z"/>
		<path fill="#109421" d="M410.9,284.2c0,0.1,0,0.1,0,0.1C410.9,284.4,410.9,284.3,410.9,284.2z"/>
		<path fill="#8C4200" d="M418.7,268.3c0-0.1,0.1-0.3,0.2-0.4c0.1-0.2,0.2-0.3,0.4-0.4c0-0.3-0.1-0.5-0.2-0.7
			c-0.4-0.7-1.3-0.9-1.9-0.5s-0.8,1.3-0.4,1.9c0.1,0.2,0.3,0.4,0.6,0.5C417.7,268.3,418.2,268.2,418.7,268.3z"/>
		<path fill="#8C4200" d="M421.4,269.5c0.5-0.7,0.3-1.7-0.4-2.2c-0.5-0.4-1.2-0.3-1.8,0.1c-0.1,0.1-0.3,0.3-0.4,0.4
			c-0.1,0.1-0.1,0.3-0.2,0.4c0.2,0,0.4,0.1,0.6,0.2c0.6,0.4,0.8,1.1,0.7,1.8c0,0,0,0,0.1,0c0.1,0,0.1,0,0.2,0
			C420.6,270.2,421.1,270,421.4,269.5z"/>
		<path fill="#8C4200" d="M419.2,268.5c-0.2-0.1-0.4-0.2-0.6-0.2c-0.5-0.1-0.9,0.1-1.3,0.4c-0.1,0.1-0.3,0.3-0.4,0.4
			c-0.4,0.6-0.4,1.3,0,1.8c0.1,0.2,0.3,0.4,0.5,0.5c0,0,0.1,0,0.1,0c0.7,0.4,1.7,0.2,2.2-0.6c0.1-0.2,0.2-0.4,0.2-0.6
			C420.1,269.6,419.8,268.9,419.2,268.5z"/>
		<path d="M405.9,322.5c0.7,0,1.3,0,2,0v-1.1l-2,0V322.5z"/>
		<path fill="#8C4200" d="M395.8,322.2c0,0-0.5-0.1-0.5-0.1c0,0.2,0.2,0.7,0.7,1.2c1.8,1.7,5.2,1.5,5.3,1.7c0.1,0.2,0.3,1.2,0,1.3
			s-1.2,0-1.2,0c1.1,1.6,6.5,1.5,8.2,1.4c5-0.2,5.2-1.6,5.2-1.6s0,0-0.4,0.1c-0.4,0.1-1.2,0.1-1.3-0.3c0-0.4,0.3-1.1,0.3-1.1
			c1.4-0.2,3.8-0.5,4.8-1.6c1-1.1,0.3-1.6,0.3-1.6c-2.7,0.6-6,0.9-9.2,1c-0.7,0-1.3,0-2,0C400.4,322.5,395.8,322.2,395.8,322.2z"/>
		<path fill="#FDF9FF" d="M401,305.5c0.6,4.3,0.2,7.6-0.5,10.2c-1.1,3.9-2.9,5.9-2.9,5.9l8.2-0.1l2,0l6.8-0.1
			c-0.9-2.8-1.7-4.5-2.4-5.6c-0.6-1-0.9-1.4-0.9-1.4C406.1,306.8,401,305.5,401,305.5z"/>
	</g>
	<path fill="none" stroke="#999999" stroke-width="0.25" stroke-linecap="round" stroke-linejoin="round" d="M381.8,415l-0.8,0
		l-0.2,0.2l0.7,0.7h0.4l0.2-0.2l0-0.5L381.8,415z M379.2,415h-0.4l-0.2,0.2l0,0.5l0.2,0.3h0.4l0.2-0.3l0-0.5L379.2,415z
		 M383.6,415.1l-0.4,0l-0.2,0.3l0,0.5l0.2,0.2h0.4l0.2-0.2l0-0.5L383.6,415.1z M366.3,417.5l-0.2,0.8l0.2,0.2l1.7,0l0.6-0.8
		l-0.2-0.2L366.3,417.5z M343.4,357.1l-0.2,0.2l0.2,0.2h0.4l0.2-0.2l-0.2-0.2H343.4z M378.6,276l0.2-0.2l0-0.5l-0.2-0.3l-0.9,0
		l-0.2,0.3l0.7,0.7L378.6,276z M360.6,414.5l-0.9,0l-0.6,0.7l0,0.5l0.2,0.3l0.9,0l0.6-0.8l0-0.5L360.6,414.5z M441.1,206.2l0.9,0
		l0.6-0.7l-0.2-0.3l-1.3,0l-0.2,0.3l0,0.5L441.1,206.2z M357.6,416l-0.4,1.5l-0.9,0l-1.2,1.5l-2.2,0.5l-1,1.3l0,1l0.7,0.3l0.4-0.5
		l2.6-0.5l2.5-2.5h0.9l0.2-1.2L358,416H357.6z M389.6,413.1l-0.7,0.7l0.2,0.2h0.4l0.6-0.7l-0.2-0.3L389.6,413.1z M356.9,323l0.2-0.2
		l0-0.5l-0.2-0.2l-0.4,0l-0.2,0.2l0,0.5l0.3,0.2L356.9,323z M350.4,334.9l0.2-0.2l0-0.5l-0.2-0.3l-0.9,0l-0.2,0.3l0,0.5l0.2,0.2
		L350.4,334.9z M410.9,268.6l0.6-0.7l-0.2-0.2l-0.8,0l-0.2,0.2l0,0.5l0.2,0.3L410.9,268.6z M347.1,353.7l0.2-0.3l0-0.5l-0.2-0.2
		h-0.4l-0.2,0.3l0,0.5l0.2,0.2L347.1,353.7z M385.3,415h-0.5l-0.2,0.2l0,0.5l0.2,0.2h0.5l0.2-0.2l0-0.5L385.3,415z M345.6,348.7
		l0.6-0.8l0-1l-0.3-0.2l-0.4,0l-0.6,0.7l0,1l0.3,0.3L345.6,348.7z M394,415.1h-0.4l-0.2,0.2l0,0.5l0.2,0.2h0.4l0.2-0.2l0-0.5
		L394,415.1z M396.9,412.1l-0.2,0.3l0.2,0.2h0.4l0.2-0.2l-0.2-0.2H396.9z M504,212.3l2.4-4.9l0-1.5l-1.2-1.7l-3.4,0l-0.4,0.5l-7-0.5
		l-0.4-0.5l-5.2,0.5l-0.5-0.5l-1.3,0l-0.4-0.5l-2.6-0.5l-0.9-1l-0.9,0l-0.5-0.5l-1.7-0.5l-1.2-1.3l0.4-0.5l-0.1-1.5l-0.9-1l0-1.5
		l-1-1.5l0-0.5l-2.7-3.5l0-0.5l-2-2.2h-0.4l-2-2.2l0-0.5l-2.3-2.9l-0.9-2l-2.9-3.2H463l-3.1-3l-2.2-1l-3.1-0.1l-0.8,0.5l-3.1,3.2
		l-1.6,4.5l-1.2,2.9l-0.6,0.8l-1.3,0.5l-2.3,3.7l-0.8,2l0.1,2.5l-0.4,0.5l0.3,8.4l0.5,0.5l0.1,4l0.4,0.5l0,1l-0.8,2l-0.8,2.5l-2.1,3
		l0.6,2.5l-1.9,1.2l-2.3,2.7l0,0.5l-0.8,0.5l0.1,2l-1.2,1.5l-0.3,2l-1.1,0.7l-2.3,2.7l0.1,2.5l-0.4,0.5l0,1l-0.8,1.9l-1.6,2l0,1
		l-1.7,2.5l0.1,1l0.5,0.5l0.1,2l0.4,0.5l-0.4,0.5l0.1,1l0.4,0.5l-0.4,0.5l0,1l1.8,1.5l0.1,1.5l-0.8,1.5l-1.3,1.5l-0.4,1.5l-1,1.2
		l-3,1.5h-0.9l-0.4,0.5l-1.8,0l-2.3-3l-0.9,0l-1.7,1l-0.4,0.5l-1.3,0l-0.9,0.5l-2.2,3.7l0.1,2l3.1,2.5l0.1,2.4l-0.8,2l-1,1.2l-1.7,1
		l-2.1,1.5l-4.3,0.5l-0.9-0.9l-0.6,0.2l-0.1,1.3l-0.9-0.5l-1.7,0l-0.4-0.5h-2.6l-0.4-0.5l-4.3,0l-0.9-1l-0.4,0l-0.4,1.5l-1.8,0
		l-4.2,3l-1.7,0l-1.8-1.5l-1.8-0.5l-0.1,3.2l-1,1.2l-1.7,0l-3.4,2l-2.2,0l-0.9-1.5l-1.3,0l-2.6,1.5l-2.6,1.5l-2.2,0l-0.4-0.5
		l-1.8-0.5l-1.3-1h-2.6l-1.3,1H352l-0.4-0.5l-9.1,0l-2.1,2l-0.4,0l-4,4.7l1.1,0.3l1.7-2h0.5l1.2-1.5l1.3-0.5l0.8-1l0.8-0.5h9.6
		l0.4,0.5l1.3,0l1.8,1l3,0l0.4,0.5l0.7,0.3l-0.2,0.2l-1.7,0l-1.5,1.2l0.1,1l1.1,1.7l0.5,0l0.8-1.5l2.6,0.5l0.8-1l1.7,0l1.5,0.8
		l-0.8,2l0,1l0.5,0.5l0.1,3l-1.4,1.7h-0.4l-0.2-1.7l-1.6-1.7l-2.2,0l-0.2,0.7l0.5,0.5l-0.6,0.2l-1,1.2l0.1,2.5l1.2,1.2l1.7-0.5
		l1.2,1.7l0.5,1.5l-0.4,0.5l0.4,1l-1.7,2l0,1l-0.8,1l0,1l0.4,0.5l-0.2,0.7l-0.9,0l-1.6-1.8l-1.4-2.5l0.4-2l-0.9-1l0-1l0.4-0.5
		l-0.1-2l0.8-1l0-1.5l-2-2.2l-0.8,0.5l-1.3,0l-0.4-0.5h-2.6l-0.9-0.5l-1.3,1l-2.1,0.5l-0.4,0.5l-0.9,0l-0.4-0.5l-1.7,0l-1.8-1.5
		l-1.3-0.5l-0.9-1h-0.9l-0.4-0.5l-2.2,0l-1.7,1l-0.2,1.2l0.9,1l0.5,1.5l1.6,1.7l1.3,0.5l0.9,1l1.3,0l0.4,0.5l1.3,0l1.8,2.5l0.7,0.3
		l0,1l0.4,0.5l0.1,3.5l2,2.2l1.3,0.5l0.7,0.7l-0.4,1l0.7,0.7l1.2-1h2.6l3.4,4.2l0.1,2l0.9,1l0.5,3l-1.2,2l-0.3,3l-1.5,1.2l-1.3,0
		l-0.6,0.8l0.5,2l-0.6,1.2l-1.3-0.5l-0.6,0.8l0.1,2.4l0.9,1.5l0.1,2.9l-0.8,1.5l0,1l-0.8,1l-0.8,2l0.1,2l-1.7,2.5l0.1,1.5l-1.2,2.9
		l-1,1.2l-1.3,0l-0.2,0.8l3.3,2.2l1.3,0l0.2,0.3l-0.4,0.5l1.9,0.2l1.2,1.8l0,1.5l1.8,1.5l-1.2,3l0.3,1.7l1.4,1l2.4,0.8l-0.2,1.2
		l-1.3-0.5l-0.6,0.7l0,1l0.4,0.5l0.1,2.5l0.7,0.7l1.5,0.2l-0.8,1l0.6,2.9l0.7,0.7h0.9l0.4-0.5l0.7,0.3l0,0.5l-2.1,2l-0.4,1l0.1,2
		l0.5,1l1.8,2l0.1,3l0.9,1l0.1,2l-0.8,1.5l0.5,2l1.6,1.7l1.3,0l1.3,1.5l1.3,0.5l0.7,0.7l0.5,3l1.2,1.3l2.6,0l0.9,0.5l0.8-1h0.4
		l0.7,1.7l1.1,1.3h2.2l3.5,2l4.8,0l0.4-0.5l1.7,0.5l1.7-1.5l1.3-0.5l1.8,2.5l0.9-0.5l0.5,0.5l0.9,0l1.1-0.8l-0.5-1l0.6-0.8l1.7-1
		l1.1-1.2l0-1.5l1.6-2l0.2-1.2l1.7-0.5l0.6-0.8l0.4-1.5L402,402l1.1-0.8h0.8l3.2-3.2l-1.3-1l0.6-1.2l1.4,1.5l0.9,0l2.3-2.8l-0.1-1.5
		l1.1-0.2l1.5-2.2l-0.1-2.5l1.5-1.7l0.6-0.3l0-0.5l1.2-1.5l-0.1-2l0.8-1.5l-0.1-2.5l-0.5-0.5l-0.1-1.5l0.4-0.5v-1l-0.5-0.5l-0.1-3
		l0.4-0.5l-0.2-5.9l-0.5-0.5l-0.1-2l-0.7-0.7l-1.3-1l-1.7,0.5l-1.1-1.3l2.8-0.2l0.4,0.5l0.9,0l1-1.7l-0.1-2l-0.5-1l0.4-0.5l-0.2-4.5
		l-1-2l0.4-1l-0.1-3l-0.9-1l0-1.5l0.8-1.5l0.4-1l-0.1-2.5l0.7-2l0.3-6.5l-1.8-1.5l0.6-0.8l1.7-0.4l2.7-3.2l0.4-1l-0.1-2l0.4-0.5
		l-0.1-2l1-0.7l0.9,0l1-1.7l-0.1-1l-1.5-0.8l-1.2-1.2l0-0.5l0.4-1l-0.5-0.5l0.6-0.8l1.7-0.5l0.4-0.5l1.3,0l0.8-0.5l0.8-1.5h0.4
		l0.9,1l0.8,0l0.5,0.5l1.8,0l1.9-1.7l0.8-2.5l0.4-1l3.1-3.7h0.5l0.8-1l1.7,0l0.5,0.5l0.9,0l0.6-0.7l-0.1-1l1.1-0.7l2.3-2.7l-0.1-1.5
		l0.7-0.2l2.5-3h0.4l0.8-1.5l0.9,0.5l1.2-1.5l1.7,0l0.8-0.5l1.5-1.7l0-0.5l2.3-2.7h0.4l0.2-1.3l2.1-2l0-0.5l2.9-3.5l0-0.5l4.4-3.2
		l2.2,0l0.4-0.5l0.9,0l3.1-4.2l-0.1-4l0.6-0.7l0.9,0l0.8-1h0.5l2-2.5l1.7-1l0.5,0.5l1.3,0l0.2-0.8l1.1-0.8l2.2,0l0.4-0.5l1.3,0
		l1.3-1l1.7-0.5l1-1.2l0.8-2l-0.1-1.5l1.2-3l0.4-0.5l0.3-2.5l0.4-0.5l-0.1-1.5l1.7-2.5l0-1l0.8-1l0-1l0.8-1l0-1.5l-0.5-0.5l0.4-0.5
		l0-1l-0.5-0.5l-0.1-3l0.8-2l1-1.2l0.4,0l1-1.2l0-0.5l1.3-1l1.6-4l-0.1-2.5l0.4-0.5L504,212.3z"/>
</g>

</svg>
