<?xml version="1.0" encoding="utf-8"?>

<svg version="1.2" baseProfile="tiny" xmlns="http://www.w3.org/2000/svg" xmlns:xlink="http://www.w3.org/1999/xlink" x="0px"
	 y="0px" viewBox="204.8 172.1 431.2 250" xml:space="preserve">

<g id="Guinea-Bissau">
	<g>
		<polygon fill="#CE1126" points="307.9,283.6 305.8,283.5 304,283.5 302,283.6 301.7,283.8 301.7,283.9 302.2,284.5 302.1,284.6
			308.7,284.6 		"/>
		<polygon fill="#CE1126" points="302.8,396.3 303.6,398.1 304.1,400.3 304.8,402 306.4,401 309.4,397.4 310.8,395.2 311.2,393.3
			310.9,389.1 310.7,385.4 310.4,383.5 309.8,382.3 302.3,384.7 300.3,386.3 299.2,388.5 299.3,390.6 300.9,392 304.1,392
			302.6,394.5 		"/>
		<polygon fill="#CE1126" points="319.6,388.1 317.4,385.3 314.7,383.3 313.2,385.1 313,387 313.8,390.2 313.9,392.4 313.7,394.1
			313.1,395.7 311.8,397.8 312.7,398.9 313.8,399.9 313.9,397.5 315.4,396.8 316.9,397.3 317.6,398.9 316.7,399.6 312.8,401.4
			311.3,401.8 310.3,401.9 309.9,402.3 309.8,403.1 309.8,404.2 310.2,404.9 311.1,404.7 312,404.1 312.4,403.8 316,404.4
			317.5,404.5 318.6,403.8 320.1,404.2 322,404 323.7,403.1 324.4,401.3 323.9,400.1 323,399.1 322,397.7 321,391.5 		"/>
		<polygon fill="#CE1126" points="318.6,327.6 318.1,329.4 316.9,329.4 315.8,327.9 315.7,325.6 313.9,325.3 310.7,328.7
			309.5,329.2 310.8,333.1 307.2,330.5 307,330.7 305.6,333.4 304.5,336.5 304.1,338.8 303.5,338.8 300.3,342.2 295.4,345.2
			296,346.7 300.9,350.1 302.2,352 303.5,351.6 305,350.8 306.2,349.6 307,348.1 307.5,348.6 308.5,349.6 308.9,350.1 309.2,349.4
			309.6,348.7 309.8,348.1 310.9,348.1 312,351 315.1,350.2 318.7,348.1 321.5,347.2 320,344.3 319.3,340.8 319.8,337.3
			321.5,334.5 319.9,333.2 320.4,329.4 		"/>
		<polygon fill="#CE1126" points="301.4,304.1 303,302.2 303.3,301.5 301.1,303.1 		"/>
		<polygon fill="#CE1126" points="300.3,394.9 298.3,392 297.7,390.7 297.4,388.6 297.9,387.2 298.8,386.2 299.2,385.4 298.3,384.3
			295.9,382.4 293.1,382.1 291,383.6 290.6,387.2 288.5,386 287.7,385.2 286.9,386.8 285.6,387.3 284.4,388.1 283.3,393
			281.9,394.1 280.3,394.7 279.1,396 278.7,395.4 278.4,395.1 278.3,394.6 278.1,394 279,393.8 280.9,393 278.8,392.5 276.4,393.3
			274.2,395 272.3,396.9 274.2,400.3 277.2,403.9 280.7,406.1 283.9,405.7 284.6,406.7 285,407.1 286.8,407.7 285.9,405.7
			287.7,402.7 288.6,402.7 288.1,404.1 288,405.3 288.1,406.4 288.6,407.7 291.5,406.6 294,406.8 296.5,406.6 299.3,404.7
			298.4,403.4 299.1,401.4 299.7,398.7 298.3,396 298.3,394.9 		"/>
		<polygon fill="#CE1126" points="328.8,383.2 330,381.3 330.1,375.4 331.6,370.1 330.9,368.6 327.3,368.7 323.9,371.8 321.7,376.4
			321.8,380.7 325.3,383.3 		"/>
		<polygon fill="#CE1126" points="372.2,324.4 372.1,324.4 370.4,325.9 369,327.4 368.7,329.6 365.4,329.5 363.6,331.3 362.4,333.4
			360.5,334.5 358.8,335.1 359.2,336.4 360.4,337.4 361,336.9 361.7,337.2 363.3,337.6 365.2,337.8 366.8,337.4 368.1,339.1
			370.1,337.8 370.7,335.5 367.7,334.5 367.7,333.5 370.8,333.7 371.5,333.5 372.2,332.9 		"/>
		<polygon fill="#CE1126" points="354.9,339.9 354.2,339.3 352.1,340.8 351.3,341.4 350.3,340.3 349.9,341.7 349.3,342.9
			348.5,344.1 347.4,345.2 346.7,345.1 345.5,344.8 344.4,344.9 343.7,346.2 344.4,347.7 346.4,348.7 348.7,348.7 350.3,347.2
			351.3,347.2 351.5,347.7 352.2,349.1 355.3,346.6 356,345.4 355.2,344.3 355.9,343.3 356,342.9 356.1,342.2 355.2,342.3
			354.8,342.1 354.5,341.7 354.2,341.4 355,340.3 		"/>
		<polygon fill="#CE1126" points="248.2,342.2 249.8,342.1 250.9,341.4 252.1,340.3 259.5,340.4 259.8,340.3 260.4,340.7
			262.2,342.8 263.1,343.3 263.6,343 264.1,342.5 264.7,342.2 266.1,341.6 267.6,341.6 268.4,341.2 268.7,340.5 268.9,339.6
			269.4,338.4 271.7,335.2 272.8,333.2 273.3,330.6 273.1,329.5 272.8,329 272.3,328.6 271.5,329.1 270.6,329.4 269.5,329.6
			268.5,329.6 268.2,329.1 268.2,328.9 268.1,328.8 267.4,328.6 263.6,333 258.3,333.7 252.5,333.8 247.3,336.4 247.9,336.6
			249.3,337.4 248.6,338.1 248.4,338.5 249.3,340.3 248.7,341.3 		"/>
		<polygon fill="#CE1126" points="268.4,348.1 271.3,348.1 275.9,349.1 277.1,349.1 277.8,348.5 278.3,347.7 278.6,346.9
			279.1,346.2 279.9,345.6 284.1,341.1 284.6,339.8 283.9,338.4 281.4,337.9 277.5,338.4 273.9,339.4 272.3,340.8 271.3,343
			268.9,344.7 266.4,346.1 264.7,347.2 266.7,347.9 		"/>
		<polygon fill="#CE1126" points="338.8,382.3 337.8,383.3 338.1,385.2 339.1,387.1 340.4,387.9 341.8,386.3 342.6,386.3
			343.1,386.5 343.4,386.5 343.7,386.4 344.5,386.3 344.8,386.9 345.3,387.5 345.6,388.2 346.2,386.2 346.5,383.9 346.3,381.8
			345.6,380.4 347.3,379.8 347.7,380.1 348.5,381.3 349.5,380.4 350.3,379.4 351.3,377.4 351.3,376.4 350.3,376.4 350.3,375.4
			352.3,375.6 353.6,377.4 354.5,379.1 355.2,378.5 355.5,376 354.8,371.3 355.2,368.7 353,368.4 349.4,368.3 346,369.2
			344.5,372.1 344.2,372.6 343.4,372.5 342.4,372.3 341.8,372.5 341.6,373.1 341.9,374.8 341.8,375.4 338.8,378.5 338.8,379.4
			341,380.2 340.4,381.3 		"/>
		<polygon fill="#CE1126" points="271.8,380.8 273.6,381.2 282.9,380.4 282.3,378.3 282.9,377 284.3,376.1 285.9,375.4 286,374.3
			285.9,372.5 285.5,370.6 284.9,369.6 282.8,369.2 281,369.4 279.4,369.3 278.1,367.6 277.1,368.7 274.9,368.5 272.2,369.8
			270.3,372.1 270.5,374.5 269.1,374.9 268.1,375.8 267.6,377.2 267.4,378.9 268.1,379 		"/>
		<polygon fill="#CE1126" points="370.2,307.3 370.3,309.7 371,312 371.5,314.4 372.1,315.4 372.2,315.4 372.2,304.4 		"/>
		<polygon fill="#CE1126" points="339.8,288.5 339.9,288.5 340.7,288.5 		"/>
		<polygon fill="#CE1126" points="352.5,206.4 347.6,207.5 322,205.9 310.8,206.7 308.1,206.2 299.4,203.3 294.4,202.8 283.7,204.7
			282.8,205.1 282.2,205.6 281.5,205.9 280.4,205.7 277.3,204.5 275.8,204.2 274.4,204.5 264.6,209.7 253.4,215.8 249.1,217.5
			242,217.6 234.7,219.4 232.1,219.5 213.1,218.2 207.9,219.5 204.8,221.7 205.8,223 207.5,222.4 208.9,221.6 210.5,221 212.6,221
			214.2,221.7 219.4,225.8 220.2,226.8 221.5,229 222.3,229.7 223.4,229.8 225.5,229 226.1,228.8 227.5,229.6 230.4,232.1
			231.4,232.7 231.5,233.6 234.9,237.4 235.7,238.1 236,239.8 236.8,241.2 238.1,242.1 240.8,242.6 241.6,243 242.2,243.4
			242.5,244 242.8,244.7 243.7,244.1 244.5,243 244.9,242.5 247,242.5 248.7,242.3 249.9,241.4 250.1,239.6 251.7,240.9
			252.1,241.5 253.1,240.6 255.8,241.8 257.9,241.1 259.3,239 260.2,233.8 262,231 262.7,228.8 262.8,231.6 261.7,234.8
			261.5,237.5 264.2,238.6 268.9,233.2 270.3,232 275.2,228.8 278.1,227.9 285.3,226.4 288.2,224.4 290.1,221.9 292.1,220
			294.6,219 298.3,219.1 296.9,219.6 293.8,220.4 292.5,221 291.3,222.1 289.7,224.5 288.6,225.8 286.3,227.7 276,233.8
			273.4,234.9 271,236.3 269.4,238.6 269.4,240.2 270.6,242.3 270.5,243.5 269.2,244.8 268.2,244.5 267.5,243.2 267.4,241.5
			265.6,242.3 263.9,243.3 262.3,244.7 260.8,246.5 256.9,254.8 257.3,256.7 258.6,260.4 259.1,264.8 259.7,266.8 260.5,268.6
			261.7,269.9 263.3,270.6 267.1,271.2 268.5,271.9 271.3,278.2 273,279.9 276.6,281.4 285.3,254.6 294.4,282.6 295.2,282.4
			298,281.1 299.3,280.6 309.7,280.5 311.7,279.7 313.8,277.8 315,275.9 315.2,274.2 314.7,272.2 314.7,271.6 315.5,272.2
			316.6,272.8 316.6,272.2 316.8,272.1 317.1,272.1 317.6,271.9 317.2,271.4 317,270.9 316.6,269.9 319.5,269.6 322.7,268.8
			325.3,267.4 326.3,265 327.3,265 328.3,266.8 330.1,267.3 335.4,266.9 336,266.7 336.6,266.6 337.8,267 338.9,267.7 339.9,269.3
			340.7,269.9 343.3,269.9 345.3,268.8 346.6,267.5 347.4,267 348.5,268.1 347.9,269.8 346.9,271.9 346.5,273.9 345.2,273.3
			344,273 341.2,272.8 339.9,272.3 339.1,271 338.6,269.7 337.8,268.8 335.4,268.7 332.2,269.5 329.3,270.7 327.3,271.9
			326.1,273.2 322.5,278.7 321.5,282.1 321,282.6 320,282.8 319,283.3 318.1,283.9 317.6,284.5 317.6,284.6 326.6,284.6 315.1,293
			314.7,294.4 312.3,299.5 311.5,302.3 311.8,305.2 312.4,306.5 312.9,307.1 313.8,306.9 315.2,305.6 316.5,304.8 319.6,303.7
			320.5,303.2 321.4,300.6 321.5,297.8 322,295.4 324.4,294.4 323.5,299.6 324,301.5 326.8,302.1 328.2,301.3 332.8,292.4
			333,289.7 333.7,287.3 335.9,285.6 338.6,285.6 341.9,288.4 344.5,288.5 344.5,289.5 343,289.6 341.8,289.4 340.7,289.1
			339.9,288.5 336.5,288.7 333.9,293.6 331,305.2 333.7,304.5 340.4,301 341.8,299.8 343.1,298.9 352.2,297.3 355.3,296
			361.5,292.2 364.3,291.4 365.5,290.5 369.7,284.5 370.6,284 372.2,283.4 372.2,197.3 		"/>
		<polygon fill="#FCD116" points="634,198.3 626.9,189.4 625.5,185.5 625.3,182.3 626.4,172.9 576.6,172.7 526.8,172.5 476.9,172.3
			427.1,172.1 420.2,172.1 416.2,172.7 412.6,174.3 404.4,180.2 395.8,184.1 388,189.9 372.2,197.3 372.2,283.4 372.6,283.2
			373.4,282.6 377.8,278.2 379,277.7 380.6,277.6 383.6,277.8 384.5,277.4 386.8,275.4 387.8,274.8 390.9,273.9 394.2,273.7
			397.3,274.5 400,276.2 402,278 403.7,278.8 409.2,279.7 414.9,281.6 417.5,282.1 420.7,281.6 422.8,280.2 426.7,275.8 428,274.8
			430.2,274.2 434.6,271.6 436.6,271 438.1,271.3 441.2,272.6 442.3,272.4 443.7,271.8 445.3,271.9 446.7,272.3 446.7,272.8
			447.7,273.5 448.6,274.4 448.6,275.3 447.2,275.8 445.1,275.8 444.5,276.2 444.4,277.1 441.8,284.1 440.9,285.8 439.1,287.4
			437.9,289.1 438.5,290.9 439.7,292.3 440.4,293.5 441.2,294.5 442.8,295.4 444,295.8 448.2,296.3 450.1,297.9 450.1,298
			627.4,298 625.5,283.2 626,277.3 627.2,271.5 627,268.8 625.5,266.5 624.2,265.8 619.2,265 616.9,264 615.3,262.9 612.2,259.5
			611.4,258.1 611,257 610.4,256.2 606.5,254.9 605.1,253.9 602.4,251.2 599.7,249.5 596.9,248.6 593.2,248.1 592.1,247.6
			592.7,246 592.7,242.9 593.1,241.4 596.1,238 604.7,234 608.1,231.2 610.7,229.6 614.6,228.7 617,229.4 615.1,232.6 624.7,232.5
			628.8,231 631.1,227.4 631.7,223.6 632.8,220.8 632.9,219.2 632.5,215.1 632.6,213.2 632.9,212 635.4,206.1 635.9,203.7
			635.6,201.2 		"/>
		<polygon fill="#FCD116" points="438,297.3 436.5,294.8 435.6,291.3 435.5,287.8 436.6,285.1 438,282.8 438.9,280 438.3,277.8
			435.1,277.8 432.9,279.3 431,281.6 428.7,283.6 425,284.5 424.2,285 421.9,287.2 421.2,287.6 403.8,287.6 400.7,287.3
			395.1,285.7 391.8,285.6 390.9,285.9 390.1,285.8 389.4,286.3 388.9,287.6 388.3,287.2 387.8,286.9 387.3,286.5 386.9,285.6
			386.1,285.6 384.3,287.3 383.5,288.5 383.1,290 383,291.6 382.6,292.1 381.8,292.4 380.2,293.5 375.8,298 439.5,298 		"/>
		<polygon fill="#009E49" points="452.1,301.1 454.6,303.4 458.2,302.1 456.8,304.5 453.5,305.1 450.2,304.3 448.7,302.7
			447.4,300.2 444.3,299.1 440.7,298.5 439.5,298 375.8,298 375,298.8 374,300.3 372.8,303.4 372.2,304.4 372.2,315.4 373.4,314.7
			374.4,313.4 374.5,313 375.4,312.2 376.2,311.4 377.3,310.8 379.2,310.9 379,312.6 379,315.6 378.3,316.8 380.8,318.6
			383.2,317.3 387.8,313 387.5,316.3 386.2,318.9 384.8,321.1 384.1,323.2 382.5,324.4 381.8,325.5 382.6,327.1 383.7,328.7
			384.1,330.2 384.6,331.5 386.1,332.4 386.1,329.6 386.6,330 387.8,330.6 387.7,328.9 387.9,327.4 388.3,325.9 388.9,324.6
			389.8,324.6 389.9,327.1 390.9,328.5 392.1,328.5 392.7,326.6 394.9,327.3 395.6,327.6 394.7,325.1 393.3,322.7 392.3,320.3
			392.7,317.8 395.5,322.1 397.4,324.1 399.5,325.6 400.5,323.7 398.8,322.2 398.2,320.6 397.6,316.8 399.5,316.8 398.6,314.9
			400.5,314.3 401.3,316.2 402.4,321.7 402.7,320.4 403.1,319.2 403.6,318 404.3,316.8 405.1,318.1 406.4,318.7 407.7,318.3
			408.2,316.3 407.5,315.1 405.9,314.1 404.3,313 404.3,311.9 402.4,310.9 403.7,310.5 406.6,310.6 407.2,310.5 407.3,308.7
			407.8,307.2 408.7,306 410.1,305.2 409.1,309.4 409.4,311.2 411,311.9 409.6,314.1 409.2,315.4 410.1,315.9 411.3,315.3
			412.5,313.6 414,313 413.8,310.3 414.6,308.3 415.5,306.5 415.9,304.2 416.9,304.2 419.7,305.7 421,307 421.6,308.9 419.9,308.7
			419.3,308.5 418.7,308.1 417.8,308.1 417.1,309.5 416.9,310.9 417.5,312.1 418.7,313 415.2,314.7 414.5,317.1 415.7,318
			417.8,314.9 418.7,316.8 420.1,317.5 421.1,317 420.7,314.9 422.2,314.8 423,314.2 423.5,313.4 423.6,311.9 424.5,311.9
			425.6,312.8 426.9,312.8 428.2,312.2 429.4,310.9 428.8,313.6 427,314.7 425.1,315.7 423.6,317.8 425.6,318 427.7,319.2
			429.4,318.8 431.3,313.9 432.2,313.9 433.3,315.9 433.3,316.8 431.2,319.2 430.2,319.8 430.2,320.8 432,320.8 433.2,321.4
			435.1,323.7 435.4,321.7 436.2,320.2 437.4,319.4 439,319.8 438.5,321.6 438.5,322.4 439,323.7 438,323.7 437.1,324 436.4,324.5
			436.1,325.1 436.5,326.6 437.6,327 442.2,326.5 443.7,325.9 445,325.2 446.7,324.6 446.3,326.6 445.5,327.9 444.4,328.8
			442.8,329.6 441.5,329.8 437,330.1 436.3,330.4 434.6,330 433,330.2 431.6,334 430.4,334.1 429.6,332.8 430.2,330.6 429,330.3
			428.5,330 428.2,329.4 427.5,328.6 429.6,328.6 435.1,327.6 434,325.9 432.9,324.6 431.4,323.8 429.4,323.7 429.6,324.1
			430,325.1 430.2,325.6 427.5,326.6 427.6,325 427.4,323.4 426.9,322.2 426,321.7 424.4,321.4 422.9,320.8 421.9,320.1
			421.6,319.8 420.4,320.2 419.2,321.2 418.2,322.2 417.8,323.2 418.2,323.9 420,326.3 420.7,327.6 419.4,329.8 418.3,330
			414.9,327.6 415.2,326.6 415.6,324.6 415.9,323.7 414,324.6 412.9,324 409.8,323.3 408.2,322.8 408.8,324.6 409.8,325.1 411,325
			412.1,325.6 412.5,327 412.2,328.4 412.3,329.4 414,329.6 411.4,330.6 409.1,329.4 407.3,327.4 406.3,325.6 405,326.8
			403.5,327.6 400.5,328.6 400.5,329.6 402.2,329.2 402.7,329 403.3,328.6 405.3,330.3 406.9,332.5 407,334.5 404.3,335.5
			404.2,332.9 402.6,332.8 400.7,333.1 399.5,331.5 398.6,331.5 398.1,333.4 397.6,334.5 398.7,336.5 397.9,337 395.6,336.4
			393.6,336.3 392.1,336 390.8,335.5 390.6,335.9 390.6,336.1 390.5,336.3 389.8,336.4 390.7,337.5 391.3,338.7 391.7,340
			391.8,341.4 390.8,341.4 389.8,339.5 388.6,339.8 387.6,341.5 386.9,343.3 386.2,341.2 386.1,340.3 384.8,341.6 383.5,342.1
			382.3,342.1 381.2,341.4 380.8,343.5 380.7,345.1 381.6,346.1 384.1,346.2 380.1,352.1 379.7,353 379,354.2 376.9,359.3
			376.5,360.8 377.1,363.8 378.3,364.2 379.8,363.4 381.7,362.8 384.6,362.3 385.8,361.1 386.5,359.2 387.8,356.9 389.4,356
			391.7,355.2 393.7,354.2 394.6,352.5 395.1,350 396.2,347.6 398.1,345.8 400.5,345.2 401.2,345.9 400.1,347.5 398.4,349.2
			397.6,350.6 396.9,355 397.4,356.6 399.5,357.9 402.3,356.3 410.1,350.1 409.3,352 407.9,354.2 406.2,356.1 404.8,356.9
			403.4,357.4 401.4,359.3 400,359.8 398.4,359.4 395.5,358.1 394.6,357.9 393.1,359.1 389.6,363.9 388.9,365.2 388.7,366.7
			388,368.6 387.8,370.1 387.8,371 388,371.4 388.5,371.6 389.3,371.6 390.1,372 390.2,373 389.8,374.5 389.7,381.4 390.2,384.8
			392.3,386.3 393.8,386.5 395.2,387.1 396.3,388.1 396.6,389.6 397.4,391.2 399.1,391.5 402.4,391 403,391.4 403.8,391.9
			404.8,392.6 406.3,393 411.3,392.9 414.9,394.3 415.9,391.9 416.1,388.4 415.9,386.3 415.2,383.8 414.7,381.1 415.5,379
			418.7,378.5 417.2,382 418.7,394 417.6,400.2 416.9,401.8 415.4,403 411.2,405.1 409.6,406.2 409.8,407.7 411.4,409.9
			413.6,411.7 415.4,412.5 417.1,411.9 418.7,410.4 422.3,405.5 424.4,401.4 426,399.4 427.9,397.9 429.4,397 430.2,395.7
			430.2,393 431.7,393.6 432.2,394 432.3,393 432.6,392.4 433,391.8 433.3,391 434.9,392.1 436.2,391.8 436.9,390.4 436.1,388.2
			439.5,387.5 442.3,385.8 444.4,383.1 445.7,379.4 447.6,380.9 447.8,383.4 446.7,386.2 444.8,388.2 445.8,388.7 446.7,389.4
			447.4,390.3 447.7,391.5 441.8,392 441.7,392.5 441.9,394.4 441.8,394.9 441.1,395.2 439.3,395.1 438.5,395.4 437.7,397.1
			437,399.2 436.1,401.1 434.6,401.8 433.8,403.6 431.3,414 431.7,415.3 432.9,416.1 434.4,416.5 436.1,416.4 437.6,415.9
			438.6,415 439.3,413.9 439.9,412.5 441,412.5 441,413.5 440.1,414.3 438,417.4 436.8,418.3 435.5,419 434.5,420 434.2,421.9
			435.8,422.1 439.4,420.3 444.8,416.4 448.7,412.3 453.4,406.7 466.9,380.6 469.7,369.4 471.8,364.1 485.8,343.7 488.3,340.9
			491.7,339 497.5,338.4 509.2,339.8 515,338.7 540.6,324.8 542.3,323.3 543.3,321.9 544.9,318.5 546,317.3 547.5,316.5
			548.3,316.6 549.1,317 560.8,317.8 564.1,317.3 565.5,317.6 566.7,318.5 567.9,319.5 569.3,320.3 571.6,320.9 573.5,320.8
			577.7,320.1 580,320 586.1,321 588.7,320.1 594.8,316.3 595.9,315.5 599,317 601.8,317 604.2,315.5 606,312.8 606.4,311.4
			606.7,308.2 606.1,306.6 606.5,305.8 608.6,305.8 609.8,306.7 610.3,309.6 611.5,310.3 613.5,310.9 613.6,311.8 613.3,312.9
			614.1,313.9 617,314.3 620.6,313.7 624,312.3 626.2,310.6 626.9,308.7 627.7,302.6 627.7,300.1 627.4,298 450.1,298 		"/>
		<polygon fill="#009E49" points="374.3,331 374.5,330.6 375.8,330.4 377,331.3 378.7,331.5 381.4,331.1 381.3,330.1 380,328.6
			379.2,327.1 379.6,325.3 381.1,323.7 381.2,321.7 379.7,321.9 377.9,322.8 375.8,323.4 373.4,322.8 372.2,324.4 372.2,332.9 		"/>
		<polygon points="309.5,329.2 308.4,329.6 307.2,330.5 310.8,333.1 		"/>
		<polygon points="289.1,286.9 286.4,286.8 283.9,287.6 284.5,289 284.8,290.9 284.9,294.9 285.4,296.7 286.8,297 288.5,297
			290.1,297.8 293.6,303.1 295.4,304.2 296.7,304 298.3,303.4 299.9,303.2 301.4,304.2 301.4,304.1 301.1,303.1 303.3,301.5
			303.9,299.9 305.1,294.4 306.2,292.4 307.6,290.8 308.7,289 309.2,285.3 308.9,284.9 308.7,284.6 302.1,284.6 298,286.6
			295.9,287.4 294.1,287.6 		"/>
		<polygon points="276.6,281.4 276.9,281.6 281.4,282.4 284.9,281.6 287.1,284.1 288.3,285.1 289.7,285.6 291.2,285.2 292.4,284.2
			293.3,283.1 294.1,282.6 294.4,282.6 285.3,254.6 		"/>
		<polygon points="317.6,284.6 316.7,286.5 315.1,293 326.6,284.6 		"/>
	</g>
	<path fill="none" stroke="#999999" stroke-width="0.25" stroke-linecap="round" stroke-linejoin="round" d="M339.8,288.5
		L339.8,288.5h0.9H339.8z M295.9,287.4l-1.9,0.2l-5-0.7l-2.7-0.1l-2.5,0.8l0.6,1.4l0.3,1.9l0.1,4l0.6,1.8l1.4,0.4h1.7l1.6,0.8
		l3.5,5.3l1.8,1.1l1.3-0.1l1.6-0.6l1.6-0.2l1.5,1l1.7-2l0.8-2.3l1.2-5.6l1.1-2l1.4-1.6l1.1-1.8l0.5-3.7l-0.3-0.4l-1-1.2l-2.1-0.2
		l-1.9,0.1l-2,0.1l-0.3,0.2l0,0.1l0.5,0.6l-4.2,2.1L295.9,287.4z M318.6,327.6l-0.5,1.9l-1.2-0.1l-1.1-1.5l-0.2-2.2l-1.8-0.3
		l-3.2,3.4l-2.3,0.9l-1.4,1.1l-1.4,2.7l-1.1,3.1l-0.4,2.3h-0.6l-3.2,3.4l-4.9,2.9l0.6,1.5l4.9,3.4l1.3,1.9l1.3-0.4l1.4-0.8l1.3-1.1
		l0.8-1.5l0.4,0.5l1,1l0.4,0.5l0.3-0.7l0.4-0.7l0.2-0.6h1.1l1.1,2.9l3.1-0.8l3.6-2.1l2.8-0.9l-1.5-2.9l-0.7-3.5l0.4-3.5l1.7-2.9
		l-1.6-1.2l0.4-3.8L318.6,327.6z M378.7,331.5l2.7-0.4l-0.1-1l-1.3-1.4l-0.8-1.6l0.4-1.7l1.6-1.6l0.1-2l-1.5,0.2l-1.8,0.9l-2.1,0.6
		l-2.4-0.6l-1.3,1.6l-1.7,1.5l-1.4,1.6l-0.3,2.1l-3.3-0.1l-1.8,1.8l-1.3,2.1l-1.9,1l-1.7,0.6l0.4,1.4l1.2,0.9l0.7-0.5l0.7,0.3
		l1.6,0.4l1.9,0.2l1.6-0.5l1.3,1.7l2-1.3l0.5-2.2l-3-1.1v-1l3.1,0.2l0.7-0.2l2.8-2.5l0.2-0.4l1.3-0.2l1.2,0.9L378.7,331.5z
		 M354.8,342.1l-0.3-0.4l-0.3-0.3l0.7-1l0-0.4l-0.7-0.6l-2.1,1.4l-0.7,0.6l-1.1-1l-0.4,1.4l-0.6,1.2l-0.8,1.1l-1.1,1.1l-0.7,0
		l-1.2-0.4l-1.2,0.2l-0.7,1.3l0.7,1.5l2,1h2.3l1.6-1.5h1.1l0.2,0.5l0.7,1.4l3.1-2.5l0.7-1.1l-0.8-1.1l0.7-0.9l0.2-0.4l0.1-0.7
		l-0.9,0.1L354.8,342.1z M355.2,368.7l-2.2-0.3l-3.6-0.1l-3.4,0.9l-1.5,2.9l-0.4,0.5l-0.8-0.1l-0.9-0.2l-0.7,0.1l-0.1,0.7l0.3,1.7
		l-0.1,0.6l-3,3.1v0.9l2.2,0.8l-0.6,1.1l-1.6,1.1l-1,0.9l0.3,1.9l0.9,1.9l1.3,0.7l1.4-1.6h0.9l0.5,0.2h0.2l0.3-0.1l0.8-0.1l0.3,0.6
		l0.4,0.7l0.3,0.7l0.6-2l0.3-2.2l-0.1-2.1l-0.7-1.5l1.7-0.6l0.4,0.3l0.8,1.2l1-0.9l0.8-1l1.1-1.9v-1h-1.1v-1l2,0.2l1.3,1.8l0.9,1.6
		l0.7-0.6l0.3-2.5l-0.7-4.7L355.2,368.7z M327.3,368.7l-3.3,3.1l-2.2,4.6l0.1,4.3l3.5,2.6l3.5-0.1l1.3-1.9l0.1-5.9l1.5-5.3l-0.7-1.4
		L327.3,368.7z M266.1,341.6h1.4l0.9-0.4l0.3-0.7l0.1-0.9l0.6-1.2l2.3-3.1l1.1-2.1l0.5-2.6l-0.2-1.1l-0.2-0.4l-0.5-0.4l-0.8,0.5
		l-1,0.3l-1,0.2h-1.1l-0.3-0.5l0-0.2l-0.1-0.1l-0.7-0.3l-3.8,4.4l-5.3,0.7l-5.8,0.1l-5.2,2.6l0.6,0.2l1.4,0.8l-0.7,0.7l-0.2,0.4
		l0.9,1.8l-0.6,0.9l-0.4,1l1.5-0.2l1.1-0.7l1.3-1.1l7.4,0.1l0.3-0.1l0.6,0.4l1.8,2.1l0.8,0.6l0.5-0.3l0.5-0.5l0.6-0.3L266.1,341.6z
		 M271.3,348.1l4.6,1l1.2,0l0.7-0.6l0.4-0.8l0.3-0.8l0.5-0.7l0.8-0.6l4.2-4.5l0.5-1.3l-0.7-1.4l-2.5-0.4l-3.9,0.4l-3.6,1l-1.6,1.4
		l-1,2.2l-2.3,1.7l-2.5,1.3l-1.7,1.1l2,0.7l1.7,0.3H271.3z M323,399.1l-1-1.4l-1-6.2l-1.4-3.4l-2.2-2.8l-2.7-2l-1.5,1.8L313,387
		l0.8,3.2l0.1,2.2l-0.2,1.7l-0.6,1.7l-1.2,2.1l0.9,1.1l1,0.9l0.2-2.3l1.4-0.8l1.6,0.5l0.6,1.6l-0.8,0.7l-3.9,1.8l-1.5,0.4l-1,0.1
		l-0.4,0.4l-0.1,0.8l0,1.1l0.4,0.7l0.9-0.2l0.9-0.6l0.3-0.3l3.7,0.6l1.5,0.1l1.1-0.7l1.4,0.4l1.9-0.2l1.7-0.9l0.7-1.9l-0.5-1.2
		L323,399.1z M282.9,380.4l-0.6-2l0.6-1.3l1.4-0.9l1.7-0.7l0.1-1.1l-0.2-1.8l-0.4-1.9l-0.6-1l-2-0.4l-1.8,0.2l-1.6-0.1l-1.3-1.7
		l-1.1,1.1l-2.2-0.2l-2.7,1.4l-1.9,2.3l0.2,2.4l-1.4,0.4l-0.9,1l-0.5,1.4l-0.2,1.7l0.7,0.1l3.8,1.8l1.8,0.3L282.9,380.4z
		 M311.2,393.3l-0.3-4.2l-0.2-3.7l-0.3-1.9l-0.6-1.2l-7.5,2.4l-2,1.6l-1.2,2.2l0.1,2.1l1.6,1.4h3.2l-1.5,2.5l0.2,1.8l0.8,1.7
		l0.5,2.2l0.7,1.7l1.6-1l3-3.6l1.4-2.1L311.2,393.3z M300.3,394.9l-2-2.9l-0.6-1.3l-0.2-2.1l0.5-1.4l0.9-0.9l0.4-0.8l-0.9-1.1
		l-2.4-1.9l-2.8-0.3l-2.1,1.5l-0.4,3.5l-2.2-1.2l-0.7-0.7l-0.8,1.5l-1.3,0.5l-1.2,0.9l-1.1,4.9l-1.4,1.1l-1.6,0.7l-1.2,1.2l-0.4-0.6
		l-0.3-0.4l-0.1-0.4l-0.1-0.7l0.9-0.2l1.9-0.8l-2.1-0.5l-2.4,0.8l-2.3,1.7l-1.9,1.9l1.9,3.4l3,3.6l3.5,2.2l3.2-0.4l0.7,1l0.5,0.4
		l1.8,0.5l-0.9-1.9l1.8-3h0.9l-0.5,1.4l-0.1,1.2l0.2,1.1l0.5,1.2l2.9-1.1l2.5,0.2l2.5-0.2l2.9-1.9l-0.9-1.3l0.7-2.1l0.6-2.6
		l-1.4-2.7v-1H300.3z M635.6,201.2l-1.6-2.9l-7.1-8.9l-1.3-3.9l-0.2-3.2l1.1-9.4l-49.8-0.2l-49.8-0.2l-49.8-0.2l-49.8-0.2l-6.9,0
		l-4,0.6l-3.6,1.7l-8.2,5.9l-8.6,3.9l-7.9,5.7l-35.5,16.5l-4.8,1l-25.6-1.5l-11.2,0.8l-2.7-0.5l-8.8-2.9l-5-0.4l-10.6,1.8l-1,0.4
		l-0.6,0.4l-0.7,0.3l-1.2-0.2l-3-1.2l-1.5-0.3l-1.5,0.3l-9.7,5.3l-11.3,6.1l-4.3,1.8l-7.1,0l-7.3,1.8l-2.6,0.1l-19.1-1.3l-5.2,1.3
		l-3.1,2.3l1,1.2l1.7-0.5l1.4-0.8l1.6-0.6h2.1l1.6,0.8l5.2,4.1l0.8,1l1.3,2.2l0.8,0.7l1.1,0.1l2.1-0.8l0.6-0.1l1.3,0.8l3,2.5l1,0.5
		l0.1,0.9l3.4,3.8l0.9,0.8l0.3,1.6l0.8,1.4l1.3,1l2.7,0.5l0.8,0.3l0.6,0.4l0.2,0.6l0.4,0.6l0.8-0.6l0.8-1l0.3-0.5l2.1,0.1l1.8-0.2
		l1.1-0.9l0.3-1.9l1.6,1.3l0.4,0.6l1-1l2.7,1.2l2.1-0.7l1.4-2l0.9-5.2l1.8-2.8l0.7-2.1l0.1,2.8l-1.1,3.2l-0.2,2.6l2.6,1.1l4.7-5.4
		l1.4-1.2l4.8-3.1l2.9-0.9l7.2-1.5l2.8-1.9l2-2.5l1.9-1.9l2.5-1l3.7,0.1l-1.4,0.5l-3.1,0.8l-1.3,0.6l-1.3,1.1l-1.6,2.4l-1.1,1.3
		l-2.3,1.9l-10.3,6.1l-2.6,1.1l-2.4,1.4l-1.6,2.3l-0.1,1.5l1.2,2.1l-0.1,1.2l-1.2,1.3l-1.1-0.3l-0.7-1.2l-0.1-1.7l-1.8,0.8l-1.7,1
		l-1.6,1.4l-1.5,1.8l-3.8,8.3l0.3,1.9l1.4,3.7l0.5,4.4l0.5,2l0.9,1.8l1.2,1.3l1.6,0.7l3.8,0.6l1.3,0.7l2.9,6.3l1.7,1.6l3.9,1.7
		l4.5,0.8l3.4-0.8l2.2,2.5l1.2,1l1.3,0.4l1.6-0.4l1.2-1l0.9-1l0.7-0.5l1.1-0.3l2.8-1.3l1.4-0.5l10.4-0.2l1.9-0.8l2.1-1.9l1.2-1.9
		l0.3-1.8l-0.5-1.9l0-0.6l0.8,0.6l1.1,0.6l0-0.6l0.2-0.2h0.3l0.5-0.2l-0.4-0.5l-0.2-0.4l-0.4-1l2.9-0.2l3.2-0.8l2.6-1.4l1-2.4h1
		l1,1.7l1.8,0.5l5.3-0.4l0.6-0.2l0.6,0l1.2,0.3l1.1,0.7l1,1.6l0.8,0.5l2.6,0.1l1.9-1.1l1.3-1.3l0.8-0.6l1,1.1l-0.5,1.7l-1,2.1
		l-0.4,2l-1.2-0.6L344,273l-2.8-0.2l-1.4-0.5l-0.7-1.2l-0.5-1.3l-0.7-0.9l-2.5-0.1l-3.1,0.8l-3,1.2l-2,1.2l-1.2,1.3l-3.6,5.5
		l-0.9,3.5l-0.6,0.5l-0.9,0.2l-1,0.5l-0.9,0.6l-0.6,0.6l-0.9,1.9l-2,7.9l-2.4,5.1l-0.8,2.8l0.4,2.9l0.6,1.3l0.5,0.7l0.8-0.3l1.4-1.2
		l1.3-0.8l3.1-1.2l0.9-0.5l0.9-2.6l0.1-2.8l0.6-2.3l2.3-1.1l-0.9,5.2l0.5,1.8l2.8,0.7l1.4-0.8l4.5-8.9l0.3-2.7l0.6-2.5l2.2-1.7h2.7
		l3.3,2.8l2.7,0.1v1l-1.5,0.1l-1.3-0.1l-1.1-0.4l-0.8-0.5l-3.4,0.2l-2.6,4.8l-2.9,11.6l2.7-0.7l6.7-3.5l1.3-1.3l1.4-0.8l9.1-1.6
		l3.1-1.3l6.2-3.8l2.8-0.8l1.2-1l4.2-6l0.9-0.5l2-0.8l0.8-0.6l4.4-4.4l1.2-0.5l1.6-0.1l3,0.2l0.9-0.4l2.3-1.9l1-0.7l3.1-0.9l3.3-0.2
		l3.2,0.8l2.6,1.8l2,1.8l1.7,0.8l5.5,0.9l5.7,1.9l2.6,0.5l3.2-0.5l2-1.4l4-4.4l1.2-1l2.3-0.6l4.3-2.6l2-0.6l1.5,0.3l3.1,1.3l1.1-0.3
		l1.4-0.6l1.6,0.1l1.5,0.4l0,0.5l1,0.7l0.9,0.9l0,0.9l-1.4,0.4l-2.1,0.1l-0.6,0.4l-0.1,0.9l-2.6,7l-0.9,1.7l-1.8,1.6l-1.3,1.7
		l0.6,1.8l1.2,1.4l0.7,1.1l0.8,1l1.6,0.9l1.3,0.4l4.2,0.5l1.9,1.6l2,3.2l2.5,2.2l3.7-1.2l-1.5,2.3l-3.3,0.6l-3.3-0.8l-1.5-1.6
		l-1.3-2.5l-3.1-1l-3.6-0.6l-2.7-1.3l-1.4-2.5l-0.9-3.5l-0.1-3.6l1.1-2.7l1.4-2.2l1-2.9l-0.6-2.2h-3.2l-2.2,1.5l-1.9,2.3l-2.3,2
		l-3.7,0.9l-0.8,0.5l-2.3,2.1l-0.7,0.4h-17.4l-3.1-0.3l-5.6-1.5l-3.2-0.2l-0.9,0.3l-0.8-0.1l-0.7,0.5l-0.5,1.3l-0.6-0.4l-0.5-0.2
		l-0.4-0.4l-0.4-0.9h-0.9l-1.8,1.7l-0.8,1.2l-0.3,1.4l-0.1,1.6l-0.4,0.5l-0.9,0.4l-1.6,1l-5.3,5.4l-1,1.5l-1.1,3.1l-2.6,3.9l0,2.4
		l0.8,2.3l0.5,2.4l0.6,1l1.3-0.7l1.1-1.3l0-0.5l0.9-0.7l0.8-0.8l1.1-0.6l1.9,0.1l-0.2,1.7v3l-0.7,1.2l2.5,1.7l2.4-1.2l4.6-4.4
		l-0.3,3.3l-1.3,2.6l-1.5,2.2l-0.7,2.2l-1.6,1.1l-0.6,1.1l0.8,1.6l1,1.6l0.4,1.5l0.5,1.3l1.5,1v-2.8l0.5,0.4l1.3,0.6l-0.1-1.6
		l0.2-1.5l0.4-1.5l0.6-1.3h0.9l0.1,2.4l1,1.5l1.2-0.1l0.6-1.9l2.2,0.6l0.7,0.3l-0.9-2.5l-1.4-2.4l-1-2.4l0.4-2.5l2.8,4.3l1.9,2
		l2.1,1.5l1-1.9l-1.6-1.5l-0.7-1.6l-0.6-3.8h1.9l-1-1.9l1.9-0.6l0.9,1.9l1,5.5l0.3-1.3l0.4-1.2l0.5-1.2l0.7-1.1l0.8,1.3l1.3,0.6
		l1.2-0.4l0.6-1.9l-0.7-1.2l-1.6-1l-1.6-1.1v-1.1l-1.9-0.9l1.3-0.4l2.9,0.1l0.6-0.1l0.1-1.8l0.5-1.5l0.9-1.2l1.4-0.8l-1,4.2l0.3,1.8
		l1.7,0.7l-1.4,2.2l-0.4,1.3l0.9,0.5l1.2-0.5l1.2-1.8l1.5-0.6l-0.2-2.6l0.8-2l0.9-1.8l0.4-2.3h1l2.8,1.5l1.3,1.3l0.6,1.9l-1.7-0.3
		l-0.6-0.2l-0.6-0.4h-0.9l-0.8,1.4l-0.1,1.3l0.5,1.2l1.3,0.9l-3.5,1.7l-0.7,2.4l1.2,0.8l2.1-3.1l0.8,1.9l1.4,0.8l1-0.5l-0.4-2.1
		l1.5-0.1l0.9-0.5l0.4-0.9l0.1-1.5h0.9l1.1,0.9h1.3l1.3-0.6l1.2-1.2l-0.6,2.6l-1.7,1.1l-2,1l-1.5,2.2l2,0.2l2.1,1.3l1.7-0.4l1.9-4.9
		h1l1,2v0.9l-2.1,2.4l-1,0.5v1h1.7l1.2,0.6l1.9,2.2l0.2-2l0.8-1.5l1.3-0.8l1.6,0.4l-0.6,1.8l0,0.8l0.5,1.3l-1,0l-1,0.3l-0.7,0.4
		l-0.3,0.7l0.4,1.5l1,0.3l4.7-0.5l1.5-0.5l1.3-0.7l1.7-0.6l-0.5,1.9l-0.7,1.3l-1.1,0.9l-1.6,0.8l-1.3,0.3l-4.5,0.2l-0.7,0.3
		l-1.7-0.4l-1.6,0.2l-1.4,3.8l-1.2,0.1l-0.8-1.3l0.6-2.2l-1.2-0.3l-0.5-0.3l-0.3-0.6l-0.6-0.8l2.1,0.1l5.5-1.1l-1.1-1.7l-1.1-1.3
		l-1.5-0.8l-2.1-0.1l0.3,0.4l0.3,1l0.3,0.5l-2.7,1l0.1-1.6l-0.2-1.6l-0.5-1.2l-0.9-0.5l-1.6-0.3l-1.5-0.6l-1.1-0.7l-0.3-0.3
		l-1.2,0.4l-1.2,0.9l-1,1.1l-0.4,1l0.4,0.6l1.8,2.4l0.7,1.2l-1.3,2.3l-1,0.2l-3.5-2.5l0.4-0.9l0.4-2l0.3-0.9l-1.9,0.9l-1.1-0.6
		l-3.1-0.7l-1.6-0.5l0.5,1.8l1,0.5l1.2-0.1l1.1,0.6l0.4,1.4l-0.3,1.4l0.1,1l1.7,0.2l-2.6,1l-2.3-1.1l-1.8-2l-1-1.8l-1.3,1.1
		l-1.4,0.8l-3.1,1v1l1.7-0.4l0.5-0.2l0.6-0.4l2,1.7l1.7,2.2l0.1,2l-2.7,1l-0.1-2.5l-1.6-0.1l-2,0.3l-1.1-1.6h-1l-0.5,1.8l-0.5,1.1
		l1.1,2.1l-0.8,0.5l-2.3-0.6l-2-0.1l-1.5-0.3l-1.3-0.5l-0.2,0.4l0,0.2l-0.1,0.2l-0.7,0.1l0.9,1.1l0.6,1.2l0.4,1.3l0.1,1.4h-1l-1-1.9
		l-1.2,0.3l-1,1.6l-0.6,1.8l-0.8-2.1l-0.1-0.9l-1.3,1.2l-1.3,0.6l-1.2-0.1l-1.1-0.7l-0.4,2.1l-0.1,1.6l0.9,1l2.4,0.1l-3.9,5.9
		l-0.4,0.9l-0.7,1.1l-2.1,5.2l-0.4,1.5l0.6,3l1.2,0.4l1.6-0.8l1.8-0.6l2.9-0.5l1.2-1.3l0.7-1.9l1.3-2.2l1.6-0.9l2.3-0.8l2-1l0.9-1.6
		l0.4-2.5l1.2-2.4l1.8-1.8l2.4-0.7l0.7,0.7l-1.1,1.6l-1.6,1.7l-0.8,1.4l-0.7,4.4l0.5,1.7l2.1,1.2l2.8-1.5l7.7-6.2l-0.7,1.8l-1.5,2.2
		l-1.7,1.9l-1.4,0.8l-1.4,0.4l-2,1.9l-1.4,0.5l-1.6-0.4l-2.8-1.3l-0.9-0.3l-1.5,1.3l-3.6,4.8l-0.7,1.3l-0.2,1.5l-0.7,1.9l-0.2,1.5
		l0,0.9l0.2,0.5l0.4,0.1l0.9,0l0.8,0.4l0.1,1l-0.4,1.5l-0.1,6.9l0.5,3.4l2.1,1.5l1.6,0.2l1.4,0.6l1,1l0.4,1.6l0.7,1.6l1.7,0.3
		l3.2-0.5l0.6,0.3l0.8,0.5l1.1,0.7l1.5,0.4l5,0l3.6,1.4l1-2.4l0.2-3.4l-0.2-2.2l-0.7-2.4l-0.5-2.7l0.8-2.1l3.2-0.5l-1.5,3.5l1.5,12
		l-1.1,6.3l-0.7,1.6l-1.5,1.2l-4.2,2.1l-1.6,1.1l0.2,1.5l1.6,2.1l2.2,1.9l1.8,0.8l1.7-0.6l1.5-1.5l3.6-4.9l2.1-4l1.6-2l1.9-1.5
		l1.5-0.8l0.8-1.3l0-2.8l1.5,0.7l0.6,0.3l0.1-1l0.3-0.6l0.4-0.6l0.3-0.7l1.6,1.1l1.4-0.3l0.6-1.4l-0.8-2.3l3.4-0.7l2.8-1.7l2.1-2.7
		l1.3-3.7l2,1.5l0.2,2.5l-1.1,2.7l-1.9,2l1,0.5l0.9,0.7l0.7,0.9l0.3,1.2l-5.9,0.5l-0.1,0.5l0.2,1.9l-0.1,0.5l-0.7,0.2l-1.8-0.1
		l-0.8,0.4l-0.9,1.6l-0.7,2.1l-0.9,1.9l-1.5,0.8l-0.8,1.8l-2.5,10.4l0.4,1.3l1.2,0.8l1.5,0.4l1.7-0.1l1.5-0.5l1-0.9l0.7-1.1l0.6-1.4
		h1v1l-0.9,0.8l-2.1,3.2l-1.2,0.9l-1.2,0.7l-1,1l-0.4,1.9l1.6,0.2l3.6-1.8l5.5-3.9l3.9-4.1l4.7-5.6l13.5-26.1l2.8-11.2l2.1-5.4
		l13.9-20.4l2.5-2.8l3.4-1.9l5.8-0.6l11.7,1.4l5.8-1l25.6-13.9l1.8-1.4l0.9-1.4l1.6-3.4l1.1-1.2l1.5-0.8l0.7,0.1l0.8,0.4l11.8,0.8
		l3.2-0.5l1.4,0.3l1.2,0.9l1.2,1l1.3,0.8l2.3,0.5l2,0l4.2-0.8l2.2,0l6.1,1l2.6-0.9l6.1-3.7l1.1-0.8l3.1,1.5l2.8,0l2.4-1.5l1.8-2.7
		l0.4-1.4l0.3-3.3l-0.6-1.6l0.4-0.7h2.1l1.2,0.9l0.5,2.9l1.2,0.7l2,0.6l0.1,0.9l-0.3,1.1l0.8,1l2.8,0.4l3.6-0.6l3.4-1.4l2.2-1.6
		l0.7-1.9l0.7-6.1l0-2.5l-2.1-16.8l0.5-5.9l1.2-5.8l-0.2-2.7l-1.5-2.3l-1.3-0.6l-4.9-0.8l-2.3-1l-1.7-1.1l-3.1-3.4l-0.8-1.4L611,257
		l-0.7-0.9l-3.8-1.3l-1.4-1l-2.7-2.7l-2.7-1.6l-2.8-0.9l-3.7-0.5l-1.1-0.5l0.6-1.5l0-3.1l0.4-1.5l3.1-3.5l8.5-4l3.4-2.8l2.7-1.6
		l3.9-0.9l2.4,0.7l-1.8,3.2l9.5-0.1l4.1-1.5l2.4-3.6l0.6-3.8l1.1-2.8l0.1-1.6l-0.4-4.1l0.1-1.8l0.3-1.2l2.5-5.9l0.5-2.4L635.6,201.2
		z"/>
</g>

</svg>
