<?xml version="1.0" encoding="utf-8"?>

<svg version="1.2" baseProfile="tiny" xmlns="http://www.w3.org/2000/svg" xmlns:xlink="http://www.w3.org/1999/xlink" x="0px"
	 y="0px" viewBox="317.8 145.3 203.8 304.1" xml:space="preserve">

<g id="Guyana">
	<g>
		<polygon fill="#009E49" points="438.8,195.6 438,194.3 434.5,190.8 434.1,190.2 433.8,189.3 431.8,186.6 431.1,185 430.8,184.5
			430.3,184.1 429,183.6 428.5,183.2 428.4,183.7 428.5,184.2 428.7,185.2 428.5,185.2 428.2,184.5 425.6,180.4 421.9,176.7
			417.2,172.7 413.3,169.1 413,169 412.8,168.9 412.6,167.9 411.8,166.9 411.3,166.4 410.1,166 402.5,161.5 398.1,158.4
			394.4,156.7 391.6,155.1 390.3,153.9 389.5,153.4 387.8,152.9 386.3,151.7 385.6,151.4 384.7,151.6 384.6,152.1 385.1,153.2
			385.4,153.7 387.9,155.1 391.7,157.7 394.8,159 396.6,160.1 398,161.5 399,163 395.3,159.9 394.7,159.2 394.4,158.9 392.1,158.4
			391.9,158.5 391.7,158.4 391.6,158.1 391.5,158 391.2,157.3 389.9,157.1 388.8,156.5 386.5,154.8 385.4,154.3 383.4,153.7
			382.3,153.1 380.7,151.6 378.3,148.1 376.9,146.6 375.5,145.7 374.7,145.3 377.2,149 381.5,153.8 383.2,156.5 383.1,157.4
			382.6,158.3 381.8,159 380.9,159.3 380.1,159.3 378,159.8 377.3,160.1 376.9,160.6 375.8,161.5 375.5,162.1 375.5,162.7
			375.6,163.2 375.6,163.6 375.1,164.3 374.7,165.9 374.3,166.7 373.6,167.1 372.7,167.1 371.1,167 370.2,167.3 369.3,167.9
			368.7,168.6 368,169.2 366,169.9 365.5,170.5 365.1,171.2 364.3,171.9 362.3,173.2 361.4,174 361,175 360,175.8 358.2,175.9
			354.7,175.9 353.8,176.2 353.2,176.7 352.4,178.3 351.5,179.4 351.2,179.8 351.2,180.1 351.3,180.7 438.6,206.9 438.9,205.1
			438.7,199.8 438.9,198 438.6,198.3 439.1,196.9 		"/>
		<polygon fill="#009E49" points="383.7,403.9 384.1,403.9 384.9,404 385.3,404.1 386.2,405.1 386.3,406.5 386,408.1 386.1,409.6
			386.5,410.8 386.5,411.3 386.3,411.6 385.9,412.4 385.8,412.8 385.8,413.4 386.3,414.2 386.4,414.7 386.4,415 386.1,415.7
			386,416 386.1,417.1 386.1,417.5 385.9,417.9 385.4,418.7 385.3,419.2 385.3,419.8 385.3,420.7 385.5,421.6 385.9,422
			386.4,422.1 387.2,421.7 387.7,421.8 389.3,422.4 389.8,422.5 390,422.4 390.1,422.5 390.2,423 389.3,424.7 388.7,425.5
			388.7,425.9 389.6,426.8 390,427.1 390.4,427.3 390.9,427.5 391.7,427.4 392.4,427.2 393.2,427.1 394.1,427.4 394.9,428.1
			396.1,430 396.8,430.9 398.1,431.9 398.5,432.3 399.3,433.7 399.6,434.2 399.8,434.3 400.3,434.3 400.6,434.4 400.7,434.7
			401,435.3 401.2,435.5 401.7,435.6 402.5,435.4 402.9,435.4 403.4,436.1 403.5,436.8 403.6,437.5 404.4,438 404.7,438.4
			405.6,440.4 406.1,441.1 406.9,441.5 409.5,442.3 416.4,443.5 418.3,444.2 419.1,444.7 419.9,445.3 420.5,446.3 420.7,447.2
			421.1,448 422.2,448.9 423,449.2 423.7,449.4 424.5,449.3 425.3,449.1 426.3,448.7 427.1,448.2 427.8,447.5 428.9,445.8
			429.4,445.4 430,445.4 434.2,445.8 434.5,445.7 435,445.3 435.2,445.2 435.4,445.3 435.6,445.5 435.8,445.6 435.8,445.7
			436.1,445.8 436.4,446 436.8,446 438,444 438.3,443.3 438.3,442.3 438,441.4 437.3,439.8 437,439 437.6,438.2 441.1,437.6
			442.2,436.9 442.3,436.5 442,435.6 442.1,435.2 442.4,434.9 443.3,434.5 443.7,434.3 444,433.7 444.2,433.1 444.5,432.6
			445,432.3 445.1,432.4 445.6,433 445.8,433.4 446.6,433.7 447.4,434 448.3,434.1 449.1,434.2 449.7,434 450,433.7 450.5,433.7
			451.2,434 451.5,434.4 451.8,435.3 452.1,435.7 453.4,436 455.4,436.1 457.1,435.8 457.8,435 458.5,433.7 458.7,432.9
			458.9,432.2 458.6,430.9 458.6,430.3 458.8,430 459.5,430.1 460.7,430.6 461.4,430.6 462.1,430.4 463.5,429.5 466.9,428
			468.2,427.7 469.7,427.8 473.2,428.4 474.4,428.4 476.3,427.9 477.6,426.9 480.3,423.5 480.8,422.7 481.8,420 482.2,419.6
			482.8,419.4 483.6,419 484.3,418.4 484.8,417.8 485.4,417.2 486.4,416.9 487.4,417 488.9,417.9 489.7,418 493.2,415.8 495.2,415
			496.5,416 496.8,417.2 497.2,418 498,418.7 499.1,419.3 499.8,419.4 500.5,419.4 501.9,419.3 502.8,419.3 503.1,419.5
			503.4,419.9 504.1,420.4 504.6,420.6 507.6,421.1 508.1,421.1 508.6,420.9 510.4,419.5 511,419.4 511.8,419.5 512.6,419.5
			513.2,419.2 513.8,418.8 514.5,418.5 515.3,418.6 515.9,419 516.5,419.5 517.1,419.8 517.8,419.7 519.1,419 521,418.3
			520.8,417.8 520.6,417.4 520.2,417.2 519.4,416.9 519,416.7 518.7,416.4 518.5,416 516.9,415.2 512.9,415.1 511.8,414.7
			507.8,409.1 507.5,407.9 507.1,407 506.8,405.2 506.2,404.3 505.8,404.2 504.9,404 504.5,403.8 504.3,403.4 504.4,401.9
			503.9,401 502.4,399.8 502.1,399 502.4,398.4 502.4,398 502.2,397.6 501.6,397 501.4,396.6 501.2,396 501.3,395.6 501.5,395.2
			501.6,394.7 501.2,394.4 500.4,395 499.8,395.2 499.5,394.8 499.7,393.4 499.7,393.1 498.6,391.9 498.4,391.5 498.4,390.8
			498.6,390.3 498.7,389.8 498.4,389.3 497.6,389.8 497.2,389.5 497,387.9 496.6,387.1 495.5,386 495.3,385.5 495.4,385.1
			495.8,384.5 495.8,384.1 495.4,383.9 494,384.1 493.9,384.2 493.6,383.4 494.3,381.9 494,381.7 493.5,381.8 492.7,382.2
			492.3,382.2 491.8,382.1 491.7,381.7 491.5,381.3 491.2,381.1 491,380.7 490.5,378.6 490.9,378.2 491.5,377.7 492,377.1
			491.8,376.5 490.4,376.3 489.9,376 490.2,375.5 490.4,375.1 490.4,374.8 490.3,374.4 490.2,373.9 490.3,373.8 490.9,373.8
			491,373.6 491,373.3 490.8,372.8 490.8,372.5 490.4,371.6 383.4,403.7 		"/>
		<polygon fill="#FFFFFF" points="377.5,391.9 377.6,392.1 378,392.8 378,393.1 378,393.6 378.2,394.4 379.4,397.1 379.4,397.5
			379.5,398.4 379.6,398.8 379.6,399.3 379.2,400 379.1,400.4 379.5,401.1 380.3,401.7 382,402.5 383.2,403.6 383.4,403.7
			490.4,371.6 490.4,371.6 489.7,370.9 489.3,370.2 489.9,369 489.8,368.9 489.8,368.9 489.7,368.8 489.7,368.7 489.4,369
			489,369.2 488.6,369.3 488.2,369.3 487.7,368.9 487.8,368.7 488.1,368.3 488.2,367.9 487.7,366.9 487.6,366.5 487.7,366
			487.9,365.1 488,364.6 487.8,364.1 487.5,363.8 487.5,363.4 487.8,362.9 487.9,362.7 488,361.2 487.8,360.7 487,359 485.8,359.4
			485.5,359.6 484.5,359.8 377.4,391.9 		"/>
		<polygon fill="#FFFFFF" points="351.4,180.9 351.4,181.4 350.7,182.5 350.8,183.1 350.7,183.6 350.3,183.9 349.7,183.8 349.4,184
			349,184.6 348.4,185.6 347.8,186.4 345.9,187 345.3,188.1 345.4,188.7 345.6,189.3 346.6,191.1 347.1,191.3 347.7,191.4
			348.2,191.8 348.4,192.1 348.4,192.4 348.4,192.6 348.4,193 348.5,193.4 348.6,193.4 433.4,218.9 433.4,218.7 433.5,217.8
			434.5,215.3 434.8,213.7 435,212.9 435.5,212.1 436.1,211.3 437.7,210.1 438.2,209.4 438.6,206.9 351.3,180.7 		"/>
		<polygon fill="#FFFFFF" points="440.9,211 440.8,211.2 440.4,211.8 439.8,212.2 439.3,213.1 439.1,214 439.2,214.7 440,213.8
			442.1,213.2 444.4,211.5 444.5,211.3 442.6,211 441.3,211 		"/>
		<polygon fill="#FFFFFF" points="470.7,229.8 468.3,228 462.3,222.2 460.3,219.7 459.3,218.7 458,218 456.4,217.5 451.9,216.8
			451.5,216.9 451.4,217.4 451.2,217.6 450.9,217.4 450.5,217.1 450.4,217 450.2,216.9 449.4,216.1 446.9,214.8 445.3,214.3
			443.6,214.2 441.8,214.7 440.3,215.7 439.2,217.3 437.5,220.1 471.7,230.4 		"/>
		<polygon fill="#FCD116" points="486.8,358.6 485.8,359.4 487,359 		"/>
		<polygon fill="#FCD116" points="382.2,356.6 382.1,357.3 382.8,357 382.6,359 382.7,359.3 382.9,359.9 382.9,360.1 382.7,360.3
			382.4,360.4 382.1,360.4 382,360.5 381.6,361.8 380.5,363.6 380.3,364 379.8,365.9 379.5,366.2 379.2,366.5 379,366.8 379,367.4
			379.1,367.6 379.4,368 379.5,368.3 379.4,368.4 378.9,368.5 378.8,368.6 378.8,368.9 379.1,369.3 379.2,369.6 379,369.9
			378.8,370 378.5,370.1 378.3,370.3 377.2,372.1 376.8,373 376.6,374.1 376.8,376.4 376.6,377.3 375.8,380.7 375.5,387.4
			375.7,388.2 377,390.7 377,390.9 376.8,391.4 376.7,391.6 376.9,391.7 377.4,391.9 484.5,359.8 484.4,359.8 483.3,359.4
			482,358.9 482,359.6 481.7,360 480.6,360.3 480.5,360.4 480.2,360.7 479.9,360.9 479.7,360.7 479.6,360.5 479.4,360.4
			479.1,360.3 478.7,360.3 478.5,360.1 478,359.8 477.4,359.7 477,360.5 476.6,360.5 476.2,360.4 474.2,359.3 473,359.1
			472.7,358.9 472.5,358.7 472.3,358.5 472.2,358.1 472.1,357.6 472.1,357.3 472.3,356.5 472.3,356.3 472.3,355.8 472.3,355.5
			472.9,354.3 472.9,353.5 472.3,352.8 471.4,352.3 471.2,352.2 471.1,352.1 470.7,352 470.5,351.9 470.3,351.7 470.3,351.6
			470.2,351.4 469.9,350.8 469.7,350.1 469.5,349.8 468,348.8 465.9,348 465.2,347.6 464.8,346.8 464.5,345.9 464.4,344.1
			464.3,343.3 463.4,341.4 461.3,338.3 460.6,337.6 457.9,335.4 456.9,334.2 456.5,332.7 455.9,329.2 455.4,327.4 455.5,326.6
			456.1,325.7 459.7,322 460.1,321.4 460.4,320.5 460.5,319.5 460.4,318.8 460.1,318.2 460,317.5 460.2,316.8 460.6,316.2
			461,315.6 461.5,315.1 461.8,313.7 462.5,311.9 463.2,310.7 463.9,308.6 464.6,307.6 464.9,306.8 465,306.1 465,306 382.7,355.4
					"/>
		<polygon fill="#FCD116" points="348.9,193.6 349.2,193.7 349.5,193.9 349.8,194.5 350.3,195.6 350.6,196.2 350.7,196.5
			350.7,196.9 350.6,197.2 350.4,197.5 349.4,198.4 348.9,199.5 348.9,200.7 349.5,202 350,202.4 352.9,204.7 353.4,204.7
			354.3,203 355,202.4 355.9,202.1 356.9,202.1 357.4,202.3 357.9,202.5 358.3,202.8 358.9,202.8 359.6,202.7 360.1,202.7
			360.6,203 361.2,203.6 362.6,204.4 363.1,204.9 363.4,205.5 363.5,206.2 363.3,206.9 363,207.6 362.6,208.2 362,208.7
			361.3,209.1 360.7,209.7 360.3,210.3 359.9,212.4 359.2,212 358.1,212.3 352.8,215.5 349.9,216.2 349.1,216.6 348.4,217.1
			348,217.8 472,292.2 472.7,292.1 474.3,292.8 476.1,292.2 477.1,292 478.2,292 478.4,292.1 479,292.7 479.3,292.8 479.8,292.8
			480.5,292.6 483.8,292.2 484.8,292 485.3,291.8 485.6,291.6 485.9,291.5 486.5,291.4 486.9,291.5 487.2,291.6 487.5,291.6
			488,291.4 486.5,290 486.3,289.6 486.3,289 486.4,288.6 487.1,287.2 487.3,286 487.6,285.4 488.1,285.2 488.8,285.2 489.3,285.4
			489.7,285.8 489.9,286.6 490.6,286.3 491.2,286 491.7,285.5 491.9,284.9 491.6,284.1 490.2,282.4 489.9,281.6 489.7,281.4
			489.3,281.3 488.8,281.3 488.5,281.5 488.4,281.9 488.6,282.3 489.1,282.8 488.9,283 488.7,283.2 488.3,283.3 488,283.2
			487.7,282.9 487.7,282.6 487.6,279.7 487.5,279.6 487.2,279.6 486.8,279.5 486.2,279.8 485.8,279.8 485.7,279.4 485.8,279
			486.2,278.5 488.2,276.5 488.6,275.8 488.8,274.9 488.8,274 488.9,273.3 489.3,272.5 489.3,272.2 491.4,269.2 491.9,268.3
			492.2,266.8 492.2,262.4 492,261 492,260.3 492.3,259.6 492.7,259 493,258.3 493.2,257.5 493.4,256.2 493.8,254.6 493.9,253.9
			493.8,253 493.6,252.3 492.7,251 493,251.3 493,250.9 492.9,250.8 492.7,250.7 493,249.4 492.7,247.7 492,246.1 491.4,245
			486.7,240.5 485.9,240.1 485.1,239.4 484.9,239.2 484.3,239.2 484,239 482.2,238.1 481.6,237.9 480.8,237.7 480.2,237.1
			479.6,236.9 478.9,237.4 478.6,238.1 478.7,239.4 478.3,240 478,240 477.8,238.2 475.7,235.6 474.9,233.1 474.3,232.1
			473.5,231.2 472.8,230.9 472.3,230.7 471.7,230.4 437.5,220.1 434.8,224.9 434.4,226.6 434.2,232.1 433.5,233.7 433.8,234
			433.2,234 432.8,234 432.3,233.7 432.1,233.9 432,234.1 431.8,234.3 431.4,234.5 430.1,235.7 430,235.5 429.9,235.4 432.6,231.5
			433,230.2 433,222.8 433.1,222.3 433.4,221.8 433.5,221.4 433.4,218.9 348.6,193.4 		"/>
		<polygon points="347.3,218.8 346.6,219.5 345.7,219.8 345.1,219.6 343.6,218.6 342.7,218.4 342.2,218.5 341.3,218.7 340.9,218.7
			340.4,218.6 340,218.3 339.7,218 339.5,217.8 338.5,217.6 338,217.5 337.8,217.7 337.9,218.1 338.3,218.7 338.4,219.1
			338.3,219.4 338.3,219.6 337.1,220.8 336.9,221 336.1,221.1 334.2,220.8 333.4,221.4 332.5,221.2 331.7,221.1 331.3,221.8
			330.5,221.6 329.6,221.5 328.8,221.6 328.4,222.1 327.2,223.4 449.8,297 391.1,332.2 391.2,332.3 391.8,333.4 392.1,333.6
			392.3,333.8 392.2,334.9 392.5,335 392.9,335 394.2,335.2 394.7,335.4 395,335.7 395.1,336.1 395,336.4 394.8,336.6 394.4,336.7
			393.6,337 392.8,337.8 392.2,338.8 391.9,339.6 392.1,340.5 392.3,341.2 392.1,341.8 391.3,342.4 389.6,343.2 389.1,343.7
			388.8,344.7 388.7,345.2 388.8,345.6 388.8,345.9 388.5,346.4 388.1,346.7 387.2,347.1 385.6,348.6 382.2,349.7 381.2,350.9
			381.2,352.1 381.8,353 382.6,353.8 382.9,354.9 382.7,355.4 465,306 464.6,305.3 463.5,303.9 463,302.3 462.3,301.8 461.6,301.4
			461.3,300.9 461.6,299.5 462.3,298.5 463,297.7 463.6,297.1 464.4,295.6 464.7,295.4 465.2,295.2 465.6,295.4 466,295.5
			466.5,295.6 467.6,295.5 468,295.1 468.7,293.9 469.8,292.9 471.1,292.2 472,292.2 348,217.8 		"/>
		<polygon fill="#CE1126" points="327.2,223.4 327.1,223.6 326.3,225.1 325.7,226.6 325.4,228 325.5,228.9 325.9,229.3 326.5,229.6
			327.1,230.2 327.5,230.8 327.8,232 328.3,232.6 328.4,233 328.5,233.3 328.5,233.6 328.4,234 328,234.5 327.8,235.1 327.5,237.1
			327.6,237.5 327.9,238.7 328.1,239 328.9,239.5 329.1,239.8 329.2,240.1 329.3,240.2 329.4,240.3 329.5,240.7 329.3,242.3
			329.3,242.8 329.1,243.5 328.7,243.6 328.1,243.6 327.5,243.6 327,244.1 326.5,245.2 326.1,245.7 325.6,246 325,246.2
			323.6,246.5 323.1,246.8 322.7,247.4 322.1,248.7 320.2,251.8 319.6,252.2 318.2,253 317.8,253.5 318.5,255.1 319.8,256.6
			323,260 326.1,263.5 329.2,266.9 332.4,270.4 335.5,273.8 338.6,277.3 341.8,280.7 344.9,284.1 345,284.1 346.8,283.7
			347.7,283.7 350.2,283.8 350.6,283.9 351.1,284.2 351.6,284.4 352,284.6 352.6,284.7 355,284.4 355.8,284.6 356.1,284.8
			356.4,285.1 356.7,285.3 357,285.3 357.4,285 357.9,284.2 358.2,283.9 359,283.9 360.8,284.5 361.8,284.5 362.5,283.9
			364.2,282.3 365,281.9 366.7,281.4 367.2,281.6 367.7,282.6 368.2,283.1 370.1,282.4 370.4,282.9 371.8,285.9 372.4,286.7
			373.2,287.3 375.1,288.3 376.2,288.9 376.3,290.1 375.6,292.6 375.5,294.2 375.4,294.9 375.1,295.7 374.8,296.9 374.7,299.4
			374.1,301.2 374.3,303 374.2,303.8 373.9,304.5 373.6,305.2 372.4,306.9 372.2,307.4 372.1,307.8 372,308.3 371.9,308.6
			371.5,309 371.1,309.1 370.3,309.2 370,309.2 368.8,310.4 368.7,311.2 368.9,311.9 369.4,312.5 370,312.9 370.5,313 370.9,313
			371.1,312.8 371.2,312.3 371.5,312 371.9,312 372.3,312.2 372.6,312.5 372.8,313.3 373.2,313.4 373.9,313.3 374.7,313.1
			375.7,313.5 376.2,313.5 376.4,313.3 376.6,312.9 377,312.8 377.5,312.8 377.9,312.9 378.2,313.1 378.8,313.9 379.1,314.1
			379.4,314.1 380.2,313.7 380.8,313.7 381,313.8 380.8,314.4 381,314.6 381.2,314.7 381.6,314.7 381.8,314.7 382.7,314.9
			383.1,314.9 383.4,314.5 383.9,315.2 386.3,316.5 386.7,316.9 387,317.3 387.4,317.6 387.9,317.8 388.3,317.8 388.5,318
			388.5,318.7 388.2,319.6 386.8,321.1 386.3,321.9 386.4,322 386.8,322.5 386.9,322.8 386.8,323 386.5,323.5 386.3,323.8
			386.3,324.5 386.3,324.9 386.3,325.3 386.8,326.4 387.5,326.9 389.3,327.5 390.2,328.1 390,328.7 389.6,329.4 389.4,330.4
			389.8,331 391.1,332.2 449.8,297 		"/>
	</g>
	<path fill="none" stroke="#878787" stroke-width="0.25" stroke-linecap="round" stroke-linejoin="round" d="M521.4,417.8l-0.3-0.4
		l-0.4-0.3l-0.9-0.3l-0.4-0.2l-0.3-0.3l-0.2-0.4l-1.6-0.8l-4-0.1l-1.1-0.5l-4-5.6l-0.3-1.2l-0.3-0.9l-0.4-1.8l-0.5-0.8l-0.4-0.2
		l-1-0.2l-0.4-0.2l-0.2-0.4l0-1.5l-0.5-0.9l-1.5-1.3l-0.3-0.8l0.3-0.6l0.1-0.4l-0.2-0.4l-0.7-0.6l-0.2-0.4l-0.1-0.6l0.1-0.4l0.2-0.4
		l0.1-0.5l-0.3-0.4L501,395l-0.6,0.2l-0.3-0.4l0.2-1.4l-0.1-0.3l-1-1.2l-0.2-0.4l-0.1-0.7l0.2-0.5l0.1-0.5l-0.3-0.5l-0.9,0.5
		l-0.3-0.3l-0.3-1.6l-0.4-0.8l-1.1-1.1l-0.2-0.6l0.1-0.4l0.3-0.5l0.1-0.4l-0.4-0.2l-1.4,0.2l-0.1,0.1l-0.3-0.8l0.7-1.5l-0.3-0.3
		l-0.5,0.1l-0.8,0.4l-0.4,0.1l-0.5-0.2l-0.2-0.4l-0.1-0.4l-0.4-0.2l-0.1-0.4l-0.6-2.1l0.4-0.4l0.6-0.5l0.5-0.6l-0.2-0.6l-1.4-0.2
		l-0.5-0.3l0.4-0.5l0.2-0.4l0-0.3l-0.1-0.4l-0.1-0.5l0.1-0.2l0.6,0l0.1-0.2l0-0.3l-0.2-0.5l-0.1-0.3l-0.4-0.9l-0.7-0.7l-0.4-0.8
		l0.6-1.2l-0.1-0.1h0l0,0l-0.1-0.1L490,369l-0.3,0.3l-0.4,0.1l-0.4-0.1l-0.5-0.4l0.1-0.3l0.3-0.3l0.1-0.5l-0.5-1l-0.1-0.4l0.1-0.5
		l0.2-0.9l0.1-0.5l-0.2-0.5l-0.3-0.3l-0.1-0.3l0.3-0.5l0.1-0.3l0.1-1.4l-0.1-0.6l-1-2.1l-1.3,1l-1.1,0.2l-1.1-0.4l-1.3-0.5l0,0.7
		l-0.3,0.4l-1.2,0.3l-0.1,0.1l-0.3,0.3l-0.3,0.2l-0.1-0.2l-0.1-0.2l-0.3-0.1l-0.3-0.1h-0.3l-0.3-0.2l-0.5-0.3l-0.5-0.1l-0.4,0.8
		l-0.4,0.1l-0.5-0.1l-2-1.1l-1.2-0.2l-0.4-0.2l-0.2-0.2l-0.1-0.2l-0.2-0.5l-0.1-0.5l0-0.3l0.2-0.8v-0.3l-0.1-0.5v-0.3l0.6-1.2l0-0.7
		l-0.7-0.8l-0.9-0.5l-0.2-0.1l-0.1-0.1l-0.5-0.1l-0.2-0.1l-0.2-0.2l-0.1-0.1l-0.1-0.1l-0.3-0.6l-0.2-0.7l-0.1-0.3l-1.6-1l-2-0.8
		l-0.7-0.4l-0.5-0.8l-0.3-0.9l-0.1-1.9l-0.2-0.8l-0.9-1.9l-2.1-3.1l-0.7-0.8l-2.7-2.1l-1-1.3l-0.4-1.5l-0.6-3.5l-0.5-1.8l0.1-0.8
		l0.6-0.9l3.6-3.7l0.5-0.7l0.3-0.8l0.1-1l-0.1-0.7l-0.2-0.6l-0.2-0.6l0.2-0.8l0.4-0.6l0.5-0.5l0.4-0.5l0.3-1.4l0.8-1.8l0.7-1.2
		l0.7-2.1l0.7-1.1l0.3-0.7l0.1-0.8l-0.3-0.7l-1.1-1.4l-0.6-1.7l-0.7-0.5l-0.7-0.3l-0.3-0.6l0.3-1.4l0.7-1l0.8-0.8l0.6-0.7l0.8-1.4
		l0.3-0.3l0.5-0.1l0.4,0.1l0.4,0.2l0.5,0.1l1-0.1l0.5-0.4l0.6-1.2l1.1-1.1l1.4-0.7l1.6-0.1l1.6,0.7l1.8-0.6l1-0.2l1.1-0.1l0.2,0.1
		l0.6,0.6l0.3,0.1l0.5,0l0.7-0.2l3.3-0.3l1-0.3l0.5-0.2l0.3-0.2l0.3-0.1l0.6-0.1l0.4,0.1l0.3,0.1l0.3,0l0.4-0.3l-1.5-1.4l-0.2-0.4
		l0.1-0.6l0.1-0.5l0.6-1.4l0.3-1.2l0.3-0.6l0.5-0.2l0.7,0l0.5,0.2l0.4,0.4l0.2,0.8l0.6-0.3l0.7-0.4l0.5-0.5l0.2-0.6l-0.3-0.8
		l-1.4-1.7l-0.3-0.8l-0.2-0.3l-0.4-0.1l-0.5,0l-0.4,0.2l-0.1,0.4l0.2,0.4l0.4,0.5l-0.1,0.3l-0.3,0.2l-0.3,0.1l-0.3-0.1l-0.2-0.2
		l-0.1-0.3l0-2.9l-0.1-0.1h-0.3l-0.4-0.1l-0.6,0.3h-0.4l-0.1-0.4l0.1-0.5l0.3-0.5l2-2l0.4-0.6l0.2-1l0-0.9l0.1-0.6l0.4-0.9v-0.3
		l2.1-3l0.5-0.9l0.3-1.5l0-4.3l-0.2-1.4l0-0.7l0.3-0.7l0.4-0.6l0.3-0.7l0.2-0.8l0.1-1.4l0.4-1.6l0.1-0.7l-0.1-0.9l-0.2-0.7l-0.8-1.4
		l0.3,0.3l-0.1-0.3l-0.1-0.1l-0.1-0.1l0.3-1.3l-0.4-1.7l-0.7-1.6L492,245l-4.7-4.6l-0.7-0.4l-0.8-0.8l-0.2-0.1l-0.5-0.1l-0.3-0.1
		l-1.7-1l-0.7-0.1l-0.8-0.3l-0.6-0.5l-0.6-0.3l-0.7,0.5l-0.3,0.7l0.1,1.3l-0.4,0.5h-0.3l-0.2-1.7l-2.1-2.6l-0.7-2.5l-0.6-1l-0.8-0.9
		l-0.7-0.4l-0.5-0.1l-1.6-0.9l-2.4-1.9l-6-5.8l-2-2.5l-1-1l-1.3-0.7l-1.6-0.5l-4.5-0.7l-0.4,0.1l-0.1,0.5l-0.2,0.2l-0.3-0.2
		l-0.4-0.3L451,217l-0.2-0.1l-0.8-0.8l-2.5-1.3l-1.6-0.5l-1.7-0.1l-1.8,0.5l-1.5,1.1l-1.1,1.5l-4.3,7.7l-0.4,1.7l-0.2,5.4l-0.7,1.7
		l0.3,0.3l-0.7,0l-0.3,0l-0.6-0.3l-0.2,0.1l-0.1,0.3l-0.2,0.1l-0.4,0.3l-1.3,1.2l-0.1-0.2l-0.2-0.1l2.8-3.9l0.3-1.4v-7.4l0.1-0.4
		l0.4-0.5l0.1-0.4l-0.1-2.7l0.1-0.9l1-2.5l0.3-1.6l0.3-0.8l0.4-0.8l0.6-0.8l1.6-1.2l0.5-0.7l0.7-4.3l-0.2-5.3l0.2-1.8l-0.3,0.3
		l0.4-1.4l-0.3-1.4l-0.8-1.3l-3.5-3.5l-0.4-0.7l-0.3-0.8l-2-2.7l-0.7-1.7l-0.3-0.5l-0.6-0.4l-1.2-0.5l-0.6-0.4l0,0.5l0,0.5l0.3,1
		h-0.3l-0.3-0.7l-2.6-4.1l-3.7-3.7l-4.7-3.9l-3.9-3.6l-0.3-0.1l-0.1-0.2l-0.3-1l-0.8-1l-0.5-0.5l-1.2-0.4l-7.6-4.5l-4.4-3.1
		l-3.8-1.7l-2.7-1.6l-1.3-1.1l-0.8-0.6l-1.7-0.5l-1.5-1.2l-0.7-0.3l-1,0.2l-0.1,0.5l0.5,1.2l0.3,0.5l2.5,1.3l3.8,2.6l3.1,1.3
		l1.7,1.2l1.5,1.4l1,1.5l-3.7-3.2l-0.6-0.7l-0.3-0.3l-2.3-0.5l-0.3,0l-0.1-0.1l-0.1-0.3l-0.1-0.1l-0.4-0.7l-1.2-0.3l-1.2-0.6
		l-2.3-1.7l-1-0.5l-2-0.5l-1.2-0.6l-1.5-1.5l-2.4-3.6l-1.5-1.5l-1.4-0.9l-0.8-0.4l2.5,3.7l4.3,4.8l1.7,2.7l0,0.8l-0.5,0.9l-0.8,0.7
		l-0.9,0.3l-0.8,0.1l-2.1,0.5l-0.7,0.3l-0.5,0.5l-1.1,0.8l-0.3,0.6v0.6l0.1,0.5l0,0.5l-0.5,0.6l-0.3,1.7l-0.4,0.7l-0.7,0.4l-0.9,0.1
		l-1.7-0.2l-0.9,0.3l-0.8,0.6l-0.7,0.7l-0.7,0.6l-2,0.8l-0.5,0.6l-0.4,0.7l-0.8,0.7l-2,1.4l-0.9,0.8l-0.3,1l-1,0.8l-1.8,0.2
		l-3.5-0.1l-0.9,0.3l-0.6,0.6l-0.8,1.5l-0.9,1.1l-0.2,0.4l0,0.3l0.1,0.8v0.5l-0.6,1.1l0.1,0.6l-0.1,0.6l-0.4,0.3l-0.6-0.1L350,184
		l-0.4,0.6l-0.6,1.1l-0.6,0.8l-1.9,0.6l-0.6,1.1l0.1,0.6l0.2,0.6l1,1.8l0.5,0.2l0.6,0.1l0.5,0.4l0.2,0.3l0,0.3l-0.1,0.3v0.3l0.2,0.4
		l0.3,0.2l0.4,0.1l0.3,0.2l0.3,0.5l0.5,1.2l0.3,0.6l0.1,0.3v0.3l-0.1,0.3l-0.2,0.3l-1,0.9l-0.5,1.1l0,1.2l0.6,1.2l0.4,0.4l2.9,2.3
		h0.5l0.9-1.6l0.6-0.6l0.9-0.3h1.1l0.5,0.2l0.4,0.3l0.4,0.2l0.6,0l0.7-0.1l0.5,0.1l0.5,0.3l0.5,0.6l1.4,0.8l0.5,0.5l0.3,0.6l0,0.7
		l-0.2,0.7l-0.3,0.7l-0.4,0.6l-0.6,0.5l-0.7,0.5l-0.6,0.5l-0.3,0.7l-0.4,2.1l-0.7-0.4l-1.1,0.3l-5.3,3.3l-3,0.7l-0.8,0.3l-0.7,0.6
		l-1.2,1.7l-0.7,0.7l-0.9,0.3l-0.6-0.2l-1.5-1l-0.8-0.2l-0.5,0.1l-1,0.2l-0.4,0l-0.5-0.2l-0.4-0.3l-0.3-0.3l-0.3-0.2l-0.9-0.3
		l-0.5,0l-0.3,0.2l0.1,0.5l0.4,0.6l0.1,0.4l0,0.3l-0.1,0.2l-1.1,1.2l-0.2,0.2l-0.9,0.1l-1.9-0.3l-0.8,0.6l-0.9-0.3l-0.9-0.1
		l-0.4,0.8l-0.8-0.3l-0.9-0.1l-0.8,0.1l-0.4,0.5l-1.3,1.5l-0.8,1.5l-0.6,1.5L326,228l0.1,0.8l0.4,0.4l0.6,0.3l0.6,0.6l0.3,0.6
		l0.4,1.2l0.4,0.6l0.1,0.3l0.1,0.4v0.3l-0.1,0.4l-0.4,0.5l-0.2,0.6l-0.3,2l0,0.5l0.3,1.2l0.2,0.4l0.7,0.5l0.2,0.3l0.1,0.3l0.1,0.1
		l0.1,0.1l0.1,0.4l-0.2,1.6v0.6l-0.2,0.6l-0.5,0.1l-0.6-0.1l-0.6,0.1l-0.5,0.5l-0.5,1l-0.4,0.6l-0.5,0.3l-0.7,0.2l-1.3,0.3l-0.6,0.3
		l-0.4,0.6l-0.5,1.3l-1.9,3.1l-0.6,0.5l-1.4,0.8l-0.4,0.5l0.7,1.7l1.4,1.5l3.1,3.5l3.1,3.4l3.1,3.4l3.1,3.5l3.1,3.4l3.1,3.4l3.1,3.4
		l3.1,3.4h0.1l1.8-0.4l0.9-0.1l2.5,0.2l0.5,0.1l0.5,0.2l0.4,0.3l0.5,0.2l0.6,0.1l2.3-0.3l0.8,0.2l0.3,0.2l0.3,0.3l0.3,0.2l0.3,0
		l0.4-0.3l0.5-0.8l0.3-0.3l0.9-0.1l1.8,0.6l0.9,0l0.8-0.6l1.7-1.7l0.8-0.4l1.7-0.5l0.5,0.2l0.4,1l0.6,0.5l1.9-0.6l0.4,0.5l1.3,3
		l0.6,0.7l0.8,0.7l1.8,1l1.2,0.6l0.1,1.2l-0.7,2.5l0,1.6L376,295l-0.3,0.8l-0.3,1.2l-0.1,2.5l-0.6,1.8l0.2,1.8l-0.1,0.8l-0.2,0.7
		l-0.4,0.6l-1.2,1.7l-0.2,0.5l-0.1,0.5l-0.1,0.4l-0.1,0.4l-0.4,0.4l-0.4,0.1l-0.8,0l-0.4,0l-1.1,1.2l-0.1,0.8l0.2,0.8l0.5,0.6
		l0.6,0.4l0.5,0.1h0.4l0.2-0.2l0.1-0.5l0.2-0.3l0.4,0l0.5,0.2l0.2,0.3l0.2,0.8l0.4,0.1l0.6-0.2l0.8-0.1l1,0.3l0.5,0.1l0.3-0.3
		l0.2-0.3l0.4-0.1l0.5,0l0.4,0.1l0.4,0.3l0.6,0.8l0.2,0.2l0.4-0.1l0.8-0.4h0.5l0.2,0.1l-0.1,0.5l0.2,0.3l0.2,0.1h0.4l0.2,0l0.9,0.2
		l0.4-0.1l0.3-0.4l0.5,0.7l2.4,1.3l0.4,0.3l0.3,0.4l0.4,0.3l0.5,0.1l0.5,0.1l0.2,0.1l0,0.7l-0.3,1l-1.4,1.5l-0.4,0.8l0.1,0.2
		l0.4,0.5l0.1,0.3l-0.1,0.3l-0.4,0.5l-0.1,0.2l-0.1,0.7v0.4l0.1,0.4l0.5,1.1l0.7,0.5l1.8,0.6l0.9,0.7l-0.1,0.6l-0.5,0.7l-0.2,1
		l0.4,0.6l1.4,1.3l0.6,1.1l0.3,0.2l0.2,0.3l0,1.1l0.3,0.2h0.4l1.3,0.2l0.5,0.2l0.3,0.4l0.1,0.4l-0.1,0.3l-0.2,0.2l-0.4,0.1l-0.8,0.3
		l-0.8,0.8l-0.6,1l-0.3,0.8l0.1,0.9l0.2,0.7l-0.1,0.6l-0.8,0.6l-1.7,0.8l-0.5,0.5l-0.3,1.1l0,0.5l0,0.4l0,0.4l-0.3,0.5l-0.4,0.3
		l-0.9,0.4l-1.6,1.4l-3.4,1.2l-1,1.1l0,1.2l0.6,0.9l0.8,0.8l0.3,1.1l-0.7,1.7l-0.1,0.7l0.7-0.3l-0.2,2l0.1,0.3l0.2,0.6l0,0.3
		l-0.2,0.2l-0.3,0.1h-0.3l-0.1,0l-0.4,1.4l-1.1,1.8l-0.2,0.4l-0.6,1.9l-0.3,0.4l-0.3,0.3l-0.2,0.3v0.5l0.1,0.3l0.4,0.4l0.1,0.3
		l-0.1,0.1l-0.5,0.1l-0.1,0.1l0,0.3l0.3,0.4l0,0.3l-0.1,0.3l-0.3,0.1l-0.3,0.1l-0.2,0.2l-1.1,1.8l-0.4,1l-0.2,1.1l0.1,2.3l-0.1,0.9
		l-0.8,3.4l-0.3,6.7l0.2,0.8l1.3,2.5l0,0.2l-0.2,0.5l0,0.2l0.2,0.1l0.5,0.2l0.2,0.2l0.4,0.7l0,0.3v0.5l0.2,0.8l1.2,2.7l0.1,0.4
		l0.1,0.9l0.1,0.4v0.5l-0.4,0.7l-0.1,0.4l0.4,0.8l0.8,0.5l1.6,0.9l1.3,1.1l0.5,0.3l0.4,0.1l0.8,0l0.4,0.1l0.9,1l0.1,1.4l-0.2,1.6
		l0,1.5l0.4,1.2l0,0.4l-0.2,0.4l-0.5,0.7l-0.1,0.4l0.1,0.6l0.5,0.8l0.1,0.5l0,0.3l-0.3,0.7l-0.1,0.3l0.1,1.1l0,0.4l-0.2,0.4
		l-0.5,0.8l-0.2,0.5l0,0.6l0.1,0.9l0.2,0.8l0.4,0.5l0.5,0l0.9-0.3l0.5,0l1.6,0.6l0.5,0.1l0.3-0.1l0.1,0.1l0,0.5l-0.9,1.7l-0.7,0.9
		l0.1,0.4l0.9,1l0.4,0.3l0.4,0.2l0.5,0.1l0.8-0.1l0.7-0.2l0.7-0.1l0.9,0.3l0.9,0.7l1.2,1.9l0.7,0.9l1.3,1l0.4,0.4l0.8,1.5l0.4,0.4
		l0.2,0.1l0.5,0.1l0.2,0.1l0.1,0.2l0.3,0.6l0.2,0.2l0.5,0.1l0.8-0.2l0.4,0.1l0.5,0.6l0.1,0.8l0.2,0.7l0.8,0.4l0.4,0.4l0.9,2l0.5,0.7
		l0.8,0.4l2.6,0.8l6.9,1.2l1.9,0.7l0.8,0.5l0.8,0.6l0.6,1l0.2,0.9l0.4,0.8l1.1,0.9l0.8,0.4l0.8,0.1l0.7-0.1l0.8-0.2l1-0.4l0.8-0.6
		l0.7-0.7l1.1-1.7l0.5-0.4l0.6,0l4.2,0.4l0.3-0.1l0.5-0.4l0.2-0.1l0.2,0.1l0.2,0.2l0.1,0.2v0.1l0.3,0.1l0.3,0.2l0.3,0l1.3-2l0.3-0.7
		l0-1l-0.3-0.9l-0.8-1.6l-0.3-0.8l0.6-0.8l3.5-0.6l1.1-0.7l0-0.4l-0.3-0.9l0-0.4l0.3-0.3l1-0.4l0.3-0.3l0.3-0.5l0.2-0.6l0.3-0.5
		l0.5-0.3l0.2,0.1l0.4,0.7l0.3,0.3l0.7,0.3l0.9,0.3l0.9,0.2l0.8,0l0.5-0.2l0.4-0.3l0.5-0.1l0.7,0.4l0.3,0.4l0.3,0.9l0.3,0.3l1.3,0.3
		l2,0.1l1.7-0.3l0.7-0.8l0.7-1.3l0.3-0.8l0.1-0.7l-0.2-1.3l-0.1-0.6l0.3-0.3l0.6,0.1l1.2,0.5l0.7,0l0.7-0.3l1.4-0.8l3.3-1.5l1.3-0.4
		l1.5,0.1l3.5,0.6l1.3-0.1l1.9-0.5l1.3-0.9l2.7-3.5l0.4-0.8l1-2.7l0.4-0.4l0.6-0.2l0.8-0.5l0.7-0.6l0.5-0.6l0.6-0.6l0.9-0.3l1,0.1
		l1.5,0.9l0.8,0.2l3.5-2.2l2-0.8l1.3,1l0.3,1.2l0.5,0.8l0.8,0.6l1.1,0.6l0.8,0.1h0.7l1.4-0.1l0.9,0l0.3,0.2l0.3,0.4l0.7,0.5l0.6,0.2
		l2.9,0.5h0.6l0.5-0.2l1.8-1.4l0.6-0.1l0.8,0.1l0.8,0l0.6-0.3l0.6-0.4l0.7-0.3l0.8,0.1l0.7,0.4l0.6,0.5l0.6,0.3l0.7-0.1l1.3-0.7
		l1.9-0.7L521.4,417.8z M440.6,213.8l2.1-0.6l2.3-1.7l0.1-0.2l-1.9-0.3l-1.3-0.1l-0.4,0.1l-0.1,0.1l-0.4,0.6l-0.6,0.5l-0.4,0.8
		l-0.2,1l0.1,0.7L440.6,213.8z"/>
</g>

</svg>
