<?xml version="1.0" encoding="utf-8"?>

<svg version="1.2" baseProfile="tiny" xmlns="http://www.w3.org/2000/svg" xmlns:xlink="http://www.w3.org/1999/xlink" x="0px"
	 y="0px" viewBox="244.1 168.9 351.8 256.3" overflow="visible" xml:space="preserve">

<g id="Hong_Kong">
	<g>
		<polygon fill="#DE2910" points="450.9,380.1 451.1,380.3 451.6,380.3 452.3,379.6 451.6,378.8 450.9,379.6 		"/>
		<polygon fill="#DE2910" points="488.7,423.5 490.1,423 492.3,421.2 492.3,419.6 494,417.8 494.7,418 494.9,418.8 499.3,418.8
			499.5,417 499,416.5 498.6,414.4 498.1,413.9 499,411.8 498.1,410.3 498.1,409.2 497.3,408.4 496.4,408.4 494.5,406.3
			492.8,407.7 492.1,409 490.6,408.9 488,410.8 485.5,414.9 485.6,417 486.3,417.8 486.8,417.3 487,417.5 487.2,419.4 489.4,420.1
			489.4,420.6 488.5,421.7 		"/>
		<polygon fill="#DE2910" points="469.4,389.7 468.7,390.5 469.4,391.3 470.4,391.3 470.6,391 470.6,390 470.4,389.7 		"/>
		<polygon fill="#DE2910" points="502.2,353.8 501.7,353.8 501.4,354 501.4,354.6 501.7,354.8 502.2,354.8 502.4,354.5 502.4,354
			"/>
		<polygon fill="#DE2910" points="513.5,362.9 512.5,362.3 513,359.8 512.1,359.2 511.8,357.9 509.4,358.5 508.4,359.5 507.9,359.5
			507,361.1 506.5,360.6 504.6,360.6 502.9,362.4 502.9,365 502.4,365.5 502.4,366.5 504.6,368.4 505.5,368.3 506.8,369.1
			506.3,369.7 506.3,371.2 507.9,371.5 508.7,370.7 508.9,368.9 509.9,368.4 511.3,369.4 512.1,369.1 512.5,368.1 512.5,366.5
			512,366 513.5,365 		"/>
		<polygon fill="#DE2910" points="482.4,409 483.6,408.2 483.9,406.9 485.8,407.9 487.2,407.9 489.4,406.1 489.4,401.9 488.7,401.1
			482.4,401.7 481.2,402.4 481.2,403.5 481.7,404 481.7,407.1 		"/>
		<polygon fill="#DE2910" points="515.7,405.3 515.4,405.6 515.4,406.6 515.7,406.9 516.2,406.9 516.9,406.1 516.9,405.6
			516.6,405.3 		"/>
		<polygon fill="#DE2910" points="507.5,400.6 506.5,401.1 506,402.2 504.3,403 504.3,405 504.8,405.6 504.8,406.6 505.6,407.4
			507,407.4 508.2,406.6 508.2,402.4 		"/>
		<polygon fill="#DE2910" points="509.2,401.9 509.2,400.9 508.9,400.6 508.4,400.6 508.2,400.9 508.2,401.4 508.9,402.2 		"/>
		<polygon fill="#DE2910" points="477.6,409.5 477.3,409.7 477.4,410.8 477.6,411 478.1,411 478.3,410.8 478.3,409.7 478.1,409.5
			"/>
		<path fill="#DE2910" d="M481,390.2l1,0l0.5,0.5l3.4,0l0.5-0.5l0.5,0.5h2l0.5-0.5l0.5,0.5l1.4,0l0.5-0.5l0.7-0.3l-0.2-0.8h-0.5
			l-1.4-1.5l-1.7-0.3l0.5-0.5l-0.5-0.5v-4.1l-1.9-3.1v-1.6l2.9,0l-1.7-2.4l-1.2-0.3l1-1v-2.1l-1.4-1.5l0-1l-1-1l0-0.5l-1-0.5l0-0.5
			l1.2-0.2l0.7-0.8l0.2-1.3l0.5,0.5l1,0l0.7-0.8l0.5-3.1l0.5-0.5l-0.5-1.1v-2.1l0.5-0.5l0-1l-1.2-1.8h-1.9l-0.9,1.1h-0.5l-1.4-3.7
			l-0.5,0l-2.4,2.1l-1,0l-0.2-0.7l0.9-0.6v-4.2l-1.2-0.3l-1.2-1.3l0.7-0.3l0.7-1.3l-2.7-3.4l-1,0l-0.5,1.1l-1.5,0l-0.9,2.6l-1.4-0.5
			l-1.6-1.7c-1.9,11.1-8.2,21.8-19.8,29.1c4.6-9.2,0.6-17.1-8.5-20.6c-4.2-1.7-7.3-5.4-9.1-9.7l-0.5-0.2l-2.4-2.1H428l-0.4-0.5h-5.8
			l-0.4,0.4c-2.6,4.6-6.1,8.5-10.3,11.8l1.2,1.1l1,2.1l0,1l1.2,1.3l1,0l0.5-1l0.7,1.3l0.5,1l-0.5,3.7l0.5,1l1.9,1.6l0.2,0.8l2-1
			l1.4,1l1,0l0.5,0.5l6.3,0l0.5,0.5l2.4,0l0.9,1.1l1.4,0l0.3,0.3l-0.5,0.5l0,1l1,0.5l0,0.5l-1.2,0.8l-0.2,0.8l2.4,1.6l-0.5,0.5l0,1
			l0.7,0.8l0.5,0l1.9,1.6l1,0l0.7-1.3l0.5-4.2l0.5-1l0.9-0.5l1.2-2.3h3.9l0.2,0.8l-0.5,0.5v2.1l1.2,1.3l0.5,0l1,1.1l1.4-1h1.5
			l0.7,0.8l0.5,1v1.6l-0.9,1l0,1l0.5,0.5l-0.7,1.3l-1.2,0.3l0.2,1.3l3.6,1.3l0.5,1.6l-1.2,0.2l-1.7,1.8l0,1l0.5,0.5l0.2,1.8l2-0.5
			l1.9-1.6l1.4,0l0.2-1.8l1.7-1.3l1,0l0.7,0.8l0.5,1v1.6l-1,0.5l-0.5,1v3.7l-0.5,0.5l0,1.5l0.5,0.5v2.1l0.7,1.3l3.3,0l0.5-0.5h1.9
			l0.7-0.8v-2.1l-0.5-0.5l-0.5-2.1l-0.9-1.1l0-1l-0.9-1l2.9-2.6l-0.5-0.5l-0.7-1.3l-1.9-1l-1.7-1.8l0-1.6l2.4-2.6l0.2-0.8l1,0
			l1.5-2.1l1.4,1.6l1.4,0l0.7-0.8l-0.5-1v-2.1l-1.2-1.8l-1.7-0.8l-0.5-3.6l0.3-0.3l0.7,0.8l0,1.1l0.7,1.3l2-0.5l1.9,1.6l0.5-0.5
			l0.2,0.2l-0.5,2.1l1,2.1l0,1l0.5,0.5v3.6l-0.5,0.5l0.5,0.5l0,1l1,0.5l0,1l1.7,0.3l0.7,0.8l0.5,2.6l-1,1.5L481,390.2z"/>
		<polygon fill="#DE2910" points="513.7,285 513.5,285.3 513.5,285.8 514.2,286.6 515.2,286.6 515.4,286.3 514.2,285 		"/>
		<polygon fill="#DE2910" points="521.9,275.7 521.4,275.7 521.2,275.9 521.2,277 521.4,277.2 521.9,277.2 522.2,276.9 522.2,275.9
					"/>
		<polygon fill="#DE2910" points="514.2,287.1 514,287.4 514,288.4 514.2,288.7 515,287.9 514.9,287.4 514.7,287.1 		"/>
		<polygon fill="#DE2910" points="517.8,282.7 517.8,283.2 518.1,283.5 518.5,283.5 518.8,283.2 518.8,282.7 518.5,282.4
			518.1,282.4 		"/>
		<polygon fill="#DE2910" points="519,281.9 519.3,281.6 519.3,281.1 519,280.9 518.6,280.9 518.3,281.1 518.3,281.6 518.6,281.9
			"/>
		<polygon fill="#DE2910" points="525.5,284.8 524.8,284 524.6,284.3 524.6,285.3 524.8,285.6 		"/>
		<polygon fill="#DE2910" points="522.4,279.8 523.4,279.8 524.1,279 524.1,278.5 524.6,278 524.3,277.2 522.9,277.2 522.7,277.5
			522.6,278 522.2,278.5 522.2,279.6 		"/>
		<polygon fill="#DE2910" points="509.7,296.2 511.1,296.7 510.6,298.8 512.8,299.1 513,298.3 512.5,297.8 512.5,296.2 512,295.7
			512.1,293.1 513,292.1 512.5,291.5 512.5,290.5 510.6,288.9 510.6,286.8 511.8,286.6 512,285.8 510.3,284.5 509.9,284.5
			508.9,286.1 508.2,286.3 507.7,288.4 506.3,289.5 506.3,290.5 508.7,293.1 		"/>
		<polygon fill="#DE2910" points="529.4,291.6 530.6,291.8 530.8,289.5 531.3,288.9 531.3,286.8 528.2,284 526.3,284 525.5,286.3
			526.7,288.1 527.7,288.1 528.7,287.1 528.9,287.4 		"/>
		<polygon fill="#DE2910" points="506.5,293.9 506.8,293.6 506.7,292.1 506.5,291.8 506,291.8 505.8,292.1 505.8,292.6 505.3,293.1
			506,293.9 		"/>
		<polygon fill="#DE2910" points="511.3,287.6 511.1,287.9 511.1,288.4 511.3,288.7 511.8,288.7 512,288.4 512,287.9 511.8,287.6
			"/>
		<polygon fill="#DE2910" points="511.3,318.4 512.3,318.9 513.3,318.9 513.7,318.4 514.2,318.9 514.9,318.6 515.4,315.5
			514.2,315.3 510.8,312.1 509.6,312.4 509.6,316.1 511.1,317.6 		"/>
		<polygon fill="#DE2910" points="449.7,372.5 447.7,372.5 447.3,372 446.3,372 445.6,372.8 447.2,375.1 448.7,375.1 450.4,373.8
			"/>
		<polygon fill="#DE2910" points="516.6,281.9 516.2,282.4 515.6,281.9 514.7,281.9 514.5,284.3 516.1,286.1 517.8,284.2
			517.3,283.7 517.4,282.7 		"/>
		<polygon fill="#DE2910" points="560.2,296.2 560.2,295.2 560,295 559,294.9 558.8,295.2 558.8,295.7 559.5,296.5 560,296.5 		"/>
		<polygon fill="#DE2910" points="554.9,303.5 554.7,303.3 554.2,303.3 554,303.6 554,304.1 553.5,304.6 553.7,304.8 554.2,304.8
			554.9,304.1 		"/>
		<polygon fill="#DE2910" points="548.7,313.4 550.8,313.7 551.8,314.7 552.5,314.5 553,312.4 552.5,311.3 553.5,309.8 553.5,308.8
			552.8,307.4 551.3,307.4 550.4,307.9 548.7,309.8 549.2,311.8 548.7,312.4 		"/>
		<polygon fill="#DE2910" points="554.9,310.8 554.9,310.3 554.7,310 554.2,310 554,310.3 553.9,310.8 554.2,311.1 554.7,311.1
			"/>
		<polygon fill="#DE2910" points="507.7,285.3 508,285.6 508.4,285.5 508.7,285.3 508.7,284.8 508.4,284.5 507.9,284.5 507.7,284.8
					"/>
		<polygon fill="#DE2910" points="551.8,317.8 551.5,318.1 552.3,318.9 552.7,318.9 553,318.7 553,318.1 552.8,317.9 		"/>
		<polygon fill="#DE2910" points="554.7,354.3 554.9,354 554.9,353.5 554.2,352.8 554,353 554,354.1 554.2,354.3 		"/>
		<polygon fill="#DE2910" points="539.5,286.3 539.5,285.8 539.3,285.6 538.8,285.5 538.1,286.3 538.3,286.6 539.3,286.6 		"/>
		<polygon fill="#DE2910" points="521,331.4 521.7,331.1 521.7,329.6 521,328.8 520.2,329.1 520.2,330.6 		"/>
		<polygon fill="#DE2910" points="520.7,347.8 521.4,348.6 522.9,349.1 523.6,347.8 523.6,346.8 522.9,346 521.9,346 521.5,346.5
			520.7,346.7 		"/>
		<polygon fill="#DE2910" points="554.4,316.1 554.5,315.5 554.2,315.3 552.7,315.3 552.5,315.5 552.5,316.5 552.8,316.8
			553.7,316.8 		"/>
		<polygon fill="#DE2910" points="556.8,307.7 556.9,308.2 557.1,308.5 558.1,308.4 558.3,308.2 558.3,307.7 557.6,306.9 		"/>
		<polygon fill="#DE2910" points="527.2,289.7 527,290 527,290.5 527.7,291.3 528.7,291.3 528.9,291 528.9,290.5 528.2,289.7 		"/>
		<polygon fill="#DE2910" points="518.3,404 518.1,401.7 516.9,401.9 516.9,404.5 517.6,404.8 		"/>
		<polygon fill="#DE2910" points="285.1,333.3 286,334.3 286.3,335.1 287,334.8 286.8,332 285.3,332 		"/>
		<polygon fill="#DE2910" points="333.5,394.5 331.1,394.4 328.9,397.8 328.9,400.4 330.1,401.2 331.1,401.2 332.5,402.8 334,402.8
			334.5,402.2 336.1,402 336.6,398.8 334.7,398.3 334.7,396.3 		"/>
		<polygon fill="#DE2910" points="306.7,323.4 306.8,322.4 308.2,321.3 308.2,319.2 307.5,318.9 303.6,323.7 302.9,322.9
			302.9,321.8 301.7,321 298.3,324.2 296.6,325 296.6,328.6 297.1,329.1 297.1,330.1 297.6,331.2 298.6,332.2 298.5,332.8
			299.5,333.8 299.5,335.9 300.5,336.9 300,338 300.2,339.8 301.7,339.8 303.4,338.5 302.4,336.4 303.4,335.4 303.4,333.3
			304.1,332 304.8,331.7 304.8,327.5 305.3,327 305.3,324.4 306.1,324.2 		"/>
		<polygon fill="#DE2910" points="294.5,423.6 294,423.6 293.7,423.8 293.7,424.9 294,425.1 295.4,425.1 295.7,424.9 295.7,423.3
			295.4,423 294.9,423 		"/>
		<polygon fill="#DE2910" points="297.1,409.8 297.1,408.7 296.4,408.5 295.9,408 294.9,408 294.7,408.2 294.7,409.3 295.9,410.6
			"/>
		<polygon fill="#DE2910" points="500.3,355.9 500.7,355.9 501,355.6 501,354.6 500.7,354.3 499.8,354.3 499,355.1 499.3,355.3
			499.7,355.3 		"/>
		<polygon fill="#DE2910" points="332.3,293.2 332.3,294.2 332.5,294.5 333,294.5 333.7,293.7 333,292.9 332.5,292.9 		"/>
		<polygon fill="#DE2910" points="318.8,313.5 318.8,315.6 319.5,316.3 320,316.3 321.2,315.5 321.7,314 321,313.2 319.5,312.7
			"/>
		<polygon fill="#DE2910" points="327.9,309.9 327.5,312.5 328.7,312.7 329.9,311.4 329.6,308.5 		"/>
		<polygon fill="#DE2910" points="283.6,413.4 282.9,412.1 281,412.6 280.2,413.4 281.5,414.7 281.9,414.7 		"/>
		<polygon fill="#DE2910" points="587.4,229.3 588.4,229.3 588.6,229 588.7,228 587.9,227.2 587.7,227.5 587.7,228.5 587.2,229
			"/>
		<polygon fill="#DE2910" points="584.1,232.4 584.3,232.1 584.3,231.6 583.6,230.8 583.1,230.8 582.9,231.1 582.9,231.6
			583.6,232.4 		"/>
		<polygon fill="#DE2910" points="447.7,383.4 447.3,383.5 447,383.7 447,385.8 447.7,386.6 448.2,386.6 448.7,386 449.7,386.1
			449.9,384.8 449.2,384 448.2,384 		"/>
		<polygon fill="#DE2910" points="591.3,178.7 590.3,178.7 589.6,177.9 589.9,173.5 587.5,174 586.7,174.8 586.2,177.4 586.7,177.9
			586.7,180.5 587.4,181.3 588.9,181.3 590.8,182.9 591.8,182.8 592.3,183.4 594.7,183.4 595.9,182 595.9,180.5 592.8,180.2 		"/>
		<polygon fill="#DE2910" points="495.4,347.5 496.4,348 497.3,346.5 498.8,346.5 499.5,345.7 499.5,344.7 498.8,343.9 494.9,343.4
			493.3,346.2 493.3,348.3 494,349.1 494.5,349.1 		"/>
		<polygon fill="#DE2910" points="285.6,412.9 285.6,412.4 284.8,411.6 283.9,411.6 283.7,411.9 283.7,412.4 284.4,413.2
			285.3,413.2 		"/>
		<polygon fill="#DE2910" points="291.6,417.3 291.8,416 290.1,414.7 287.7,414.7 287,415.5 287.5,417.6 286.3,417.9 285.3,418.9
			284.9,418.4 283.4,418.4 281.5,419.4 281.2,421.7 282.4,423 283.4,423.1 283.9,423.6 285.3,422 287.2,422 287.7,422.5
			288.7,421.5 289.7,422 290.8,420.7 290.8,419.7 289.4,418.1 290.1,417.3 		"/>
		<polygon fill="#DE2910" points="293.3,407.2 292,406.9 291.6,405.9 289.2,405.9 288.2,405.3 286.8,403.3 285.3,403.3 284.6,404.6
			284.6,406.1 285.1,406.7 284.6,408.7 285.3,409.5 286.3,409.5 287,408.8 287.3,407.4 288.2,407.5 288.9,408.2 288.9,409.8
			291.1,410.5 291.6,409 293.3,408.7 		"/>
		<polygon fill="#DE2910" points="244.3,384.5 244.1,385.8 244.6,386.4 244.8,387.1 245.8,387.1 246.6,386.4 246.5,385.3
			245.8,384.6 		"/>
		<polygon fill="#DE2910" points="576.6,261.3 576.4,261 575.9,261.1 575.7,261.3 575.6,262.3 575.9,262.6 576.6,261.9 		"/>
		<path fill="#DE2910" d="M403.4,298.6L403.4,298.6C403.4,298.6,403.4,298.6,403.4,298.6L403.4,298.6z"/>
		<path fill="#DE2910" d="M392.1,314l0.5,1l2.7,0.8l0.5-0.5h1.9l0.5-0.5h3.8l1.2-1.3l0-4.1c-3.7,1.7-7.4,2.8-11.1,3.3V314z"/>
		<path fill="#DE2910" d="M374,338.2l-0.7,0.8l0,1.1l0.2,0.2C373.7,339.6,373.9,338.9,374,338.2L374,338.2z"/>
		<polygon fill="#DE2910" points="403.4,295.5 403.7,295.2 403.6,293.6 402.4,292.3 401.5,292.3 401.2,292.6 401.2,294.2
			402.4,295.5 		"/>
		<path fill="#DE2910" d="M402.1,298l0.1-0.2v-1.5l-1.9-1.6l0-1l-0.7-0.8h-3.3l0,0C397.8,295.1,399.8,296.8,402.1,298z"/>
		<polygon fill="#DE2910" points="423.2,395.9 424.6,394.9 425.1,395.4 426.3,395.1 426.8,393.1 428.2,392 428.5,391.2 428.9,391.2
			430.4,392.8 431.8,392.8 433.3,390.7 434,390.5 433.8,388.6 432.8,388.1 430.4,388.1 429.9,388.6 429.2,387.9 428.9,386.5
			428,386.6 427,387.6 426,387.6 424.6,389.2 422.7,389.2 421.7,388.7 421.2,389.2 419.3,389.2 418.8,389.7 417.9,389.7 416.7,391
			415.9,392.8 414.3,390.5 414.5,389.2 414.9,389.2 416.2,387.9 416.4,387.1 417.4,387.1 420,385.8 420.5,384.7 420,384.2
			420,382.1 418.8,380.8 416.9,381.9 415.9,383.4 414.5,382.4 413.8,381.1 413.8,378.5 413.1,377.7 412.1,377.7 411.8,377
			410.4,375.9 410.9,375.4 410.9,374.3 411.8,373.3 411.8,370.7 411.1,369.9 410.2,369.9 409.6,368.9 408.7,368.9 407.3,371
			404.9,371.5 403.4,372.5 402.5,372.5 401.7,373.3 401.7,374.4 403.4,375.6 404.6,375.9 403.6,376.9 403.6,378 405.1,379
			402.9,379.3 401.2,380.6 400.8,381.6 400.8,383.7 401,384 401.5,383.4 404.4,383.4 404.9,382.9 407.7,382.4 409.7,383.4
			410.4,384.2 410.4,387.3 410.9,387.9 409.9,390 411.4,392 410.9,392.5 410.9,396.2 410.4,396.7 410.4,399.9 408.7,401.6
			407.3,402.2 406.5,403 407,406.1 409.2,407.9 411.6,407.9 412.1,407.4 413.5,408.4 414.9,408.4 415.9,406.9 416.4,406.9
			417.4,405.8 419.8,409 420.8,408.9 420.5,405.6 419,403 419.1,400.9 420,400.9 421.2,402.7 423.2,403.7 424.1,405.3 426,405.8
			426.6,406.9 427.5,406.9 427.7,405.6 426.3,404 426.3,403 424.4,400.3 423.9,397.8 423.2,397 421.9,396.7 422.2,395.9 		"/>
		<polygon fill="#DE2910" points="367.1,338.4 367,337.4 366.3,336.6 364.4,336.6 363.4,337.6 362,337.6 360.8,338.4 361.7,340
			362.2,343.1 362.9,344.4 363.9,344.4 364.4,344.9 366.3,344.9 368,343.6 368,341.5 367.3,340.2 365.3,340.2 364.9,340.8
			364.1,340.5 365.4,339.2 		"/>
		<polygon fill="#DE2910" points="362.9,389.2 360,389.2 358.4,387.3 357.9,386.3 358.1,385.5 361.7,384.2 361,382.9 360.3,382.7
			361.3,381.6 361.2,380.1 360.1,379.8 359.6,380.3 356.7,380.3 355.5,382.7 356,383.2 355.9,384.2 354,386.3 354,387.4
			355.2,387.6 356.2,387.1 356.9,387.9 357.4,389.4 356.9,389.9 356.9,391 356.2,391.8 355.2,391.3 353.8,391.8 352.8,393.9
			352.3,393.3 351.4,393.3 351.1,396.2 352.3,396.5 352.8,397.5 353.8,397.5 354.2,397 355.2,397 356.7,395.4 357.2,395.4
			357.6,394.4 359.1,393.3 360.5,393.3 361.5,394.9 362,394.9 362.2,393.6 364.2,392.1 364.1,391 364.6,390.5 		"/>
		<polygon fill="#DE2910" points="366.8,369.4 367.5,368.6 368,365 366.5,363.4 367,361.9 367,359.3 365.3,357.9 362,357.9
			361.5,357.4 359.6,357.4 359.1,357.9 356.7,357.9 355.5,359.3 355.4,360.3 356.7,361.1 358.6,361.1 360.8,362.9 361,364.2
			362,364.2 362.5,363.7 362.7,364 363.7,367.6 365.3,369.4 		"/>
		<polygon fill="#DE2910" points="484.8,420.4 486.2,420.4 486.5,420.1 486.5,419.1 486.3,418.8 485.8,418.9 485.3,419.4
			484.9,419.3 484.6,419.6 484.6,420.1 		"/>
		<polygon fill="#DE2910" points="489.2,378.2 488.9,379 489.2,379.3 491.1,379.3 491.3,378.5 491.1,378.2 		"/>
		<polygon fill="#DE2910" points="491.6,375.6 488.9,375.9 490.1,377.2 491.1,377.2 491.8,376.4 		"/>
		<polygon fill="#DE2910" points="434.7,377.2 435,375.4 434.5,374.8 434.5,374.3 434.2,374.1 432.8,374.1 432.6,374.8 433.5,375.9
			433.5,376.4 434.3,377.2 		"/>
		<path fill="#DE2910" d="M370.2,359.5l0.9-1.6l1.1-0.2c-1.6-0.5-3.1-1.1-4.6-1.8l-0.1,0.2l0,1.5l1.7,1.9L370.2,359.5z"/>
		<polygon fill="#DE2910" points="490.6,391.3 490.4,391.5 490.4,392 491.1,392.8 491.6,392.8 491.8,392.5 491.8,391.5 491.6,391.3
					"/>
		<polygon fill="#DE2910" points="432.8,366.3 431.3,366.3 430.9,366.8 429.4,366.8 427.5,365.7 426.5,365.8 424.4,367.6
			425.1,368.4 425.5,368.4 426.3,369.1 427,370.4 428,371 429.4,371 429.6,372.2 430.4,373.1 431.3,373.6 433.8,373.6 434,371.7
			433.5,371.2 433.5,367.1 		"/>
		<polygon fill="#DE2910" points="419.5,380.1 419.5,378.5 419.3,378.2 418.8,378.2 417.6,379.5 417.6,380.1 417.9,380.3
			419.3,380.3 		"/>
		<polygon fill="#DE2910" points="422.9,367.6 422.9,367 422.7,366.8 421.7,366.8 421.2,367.3 420.5,367.6 420.5,368.1 420.7,368.3
			422.2,368.3 		"/>
		<path fill="#DE2910" d="M426.3,319.1l0-1l-0.2-0.3c0,0.5,0.1,1,0.1,1.4L426.3,319.1z"/>
		<polygon fill="#DE2910" points="515.7,205.8 515.4,206.1 515.4,206.6 515.7,206.8 516.6,206.8 516.9,206.6 516.8,206.1
			516.6,205.8 		"/>
		<polygon fill="#DE2910" points="518,201.6 518.6,202.7 519.5,202.7 521,200.6 521.9,200.6 523.9,199.5 524.1,198.8 526,196.7
			526,195.6 523.9,195.4 523.6,193 520,190.7 519,190.7 518.3,192 519.3,192.5 519.3,195.6 518.3,196.7 518.3,197.2 515.9,199.3
			515.7,200 514.7,199 511.8,199 511.3,198.5 510.6,199.3 510.6,200.3 512.1,201.4 511.5,202.9 512.7,204.3 513.7,203.7
			515.7,203.7 517.1,201.6 		"/>
		<polygon fill="#DE2910" points="510.8,196.9 510.1,197.7 510.1,198.2 510.4,198.5 511.1,197.7 511.1,197.2 		"/>
		<polygon fill="#DE2910" points="514.7,198.5 515,198.2 514.9,197.7 514.7,197.4 513.7,197.5 513.5,197.7 513.5,198.2 513.7,198.5
					"/>
		<polygon fill="#DE2910" points="519.7,181 517.1,180.8 516.4,182.1 516.4,183.1 517.1,183.9 518.1,183.9 519,183.4 		"/>
		<polygon fill="#DE2910" points="502.6,186 502.2,186 501.9,186.3 501.9,187.3 502.2,187.6 503.1,187.5 503.4,187.3 502.9,186.8
			502.9,186.3 		"/>
		<polygon fill="#DE2910" points="522.9,188.6 521.7,187.3 521,185.5 519,184.9 518.3,188.3 519.5,189.6 523.9,191.7 524.8,192.8
			526.2,192.8 526.5,190.4 526,189.9 526,187.8 527,186.8 527,185.2 526,184.7 525.8,183.4 524.8,183.4 524.1,184.1 524.1,186.2
			524.6,186.8 523.4,188.6 		"/>
		<polygon fill="#DE2910" points="498.6,249.8 498.5,248.8 498.3,248.6 497.8,248.6 497.1,249.3 497.1,249.9 497.3,250.1
			498.3,250.1 		"/>
		<polygon fill="#DE2910" points="501,186.3 499.8,184.9 499.3,184.9 499,185.2 499,186.8 499.3,187 500.7,187 		"/>
		<polygon fill="#DE2910" points="508.9,181.8 507,182.3 506.3,183.1 506.3,184.1 505.3,185.2 506,186 509.4,186 509.9,185.5
			510.4,186 511.3,186 513.2,184.4 513.7,184.4 514.4,185.2 513,186.3 513.3,187 515.7,187 516.6,187.5 517.4,186.2 517.4,184.7
			516.6,183.9 515.2,183.9 513.7,182.3 513.2,182.3 512.5,181.6 512.5,180 511.3,179.8 510.6,178.9 510.6,177.9 511.3,177.1
			513.7,177.1 515.7,179.2 516.6,179.2 519,177.1 521.4,177.6 521.9,176.6 522.9,176.6 523.6,175.8 522.9,175 521.9,175.6
			521.4,175 517.6,175 517.1,174.5 516.6,175 513.3,175 512.7,174.5 512.3,175 511.8,174.5 510.4,174.5 509.9,172.4 507.5,172.4
			507.2,175.3 507.9,175.5 508.7,176.8 506.3,176.9 506.3,178.4 507.5,179.7 509.4,180.8 510.1,182.6 509.4,182.8 		"/>
		<polygon fill="#DE2910" points="507.9,230.8 508.9,230.8 509.2,230.6 509.1,229.5 508.9,229.3 508.5,229.3 508.2,229.5
			508.2,230.1 507.7,230.6 		"/>
		<polygon fill="#DE2910" points="494,179.7 493.2,180.5 493.3,181.5 493.5,181.8 494,181.8 494.5,181.3 495,181.3 495.2,181.1
			494.7,180.5 494.7,180 494.5,179.7 		"/>
		<polygon fill="#DE2910" points="532.7,221.7 532.8,220.7 532.3,220.2 532.1,218.8 531.3,219.1 531.3,221.2 532,222 		"/>
		<polygon fill="#DE2910" points="506,233.4 507,233.4 507.7,232.6 507.7,232.1 507.5,231.9 506.5,231.9 506.3,232.1 506.3,232.7
			505.8,233.2 		"/>
		<polygon fill="#DE2910" points="498.3,254.8 499,254 499,253.5 498.8,253.3 498.3,253.3 497.6,254 497.6,254.6 497.8,254.8 		"/>
		<polygon fill="#DE2910" points="532.5,223.5 532.8,223.3 532.8,222.8 532.5,222.5 532.1,222.5 531.8,222.7 531.8,223.3 532,223.5
					"/>
		<polygon fill="#DE2910" points="508.4,200.1 508.2,200.3 508.2,200.8 508.4,201.1 508.9,201.1 509.2,200.8 509.2,200.3
			508.9,200.1 		"/>
		<polygon fill="#DE2910" points="507.5,186.5 506.5,186.5 506.3,186.8 507,187.6 507.7,186.8 		"/>
		<polygon fill="#DE2910" points="505.1,193.8 504.8,194.6 505.5,195.9 506,195.4 507,195.4 507.7,194.6 506.5,193.8 		"/>
		<polygon fill="#DE2910" points="532.5,182.3 532.8,182.1 532.7,181.5 532.1,180.2 530.6,180.3 530.3,181 531.1,182.3 		"/>
		<polygon fill="#DE2910" points="532.8,219.1 532.8,219.6 533.5,220.4 533.7,220.1 533.7,219.1 533.5,218.8 533,218.8 		"/>
		<polygon fill="#DE2910" points="521.2,181.5 521.2,180.5 521,180.3 520.5,180.3 520.2,180.5 520.2,181.6 520.5,181.8 521,181.8
			"/>
		<path fill="#DE2910" d="M247,379.6l-0.5,4.2l2.4,2.6l-0.5,1.6l-0.5,0.5v2.1l0.5,1l1.2,1.3l1,0l1.2,0.8l-1,2.6l-0.9,1.1l0.3,1.8
			l1.9-1.1l2.4,0.5l1.2-0.8l-0.9-1.6l2.6-1.8l1,0l1.4-1l1,1.5l1.4,0l1.2-1.3v-0.5l1.4-1.1l0-0.5l2.2-1.8l2.6-0.3l-0.5-2.1l0.7-0.2
			l1.7-1.8l0-0.5l1.7-1.8l1,0l0.5,0.5h1.9l0.4-1.6l0.5,0.6l2.6,0.3l-0.5,1l0.5,2.6l0.7,0.8l1,0l1,1.6l1.4,0.5l2.9,2.6l1.5,0l1.9-2.6
			l1.4,1l1.9,1.5l1.9-1l1.5,0l2.2-1.8l0-2.6l-1.2-1.8l-5.3,0.5l-0.7-0.8l1.2-0.8l1.7-1.8l0.3-0.8l3.8,0.1l1.9-1.1l1.9-1l1,0l4.3-2.6
			l1,0l1-1l2.9,0l1,1l1.4,0l0.5-0.5l3.4-2.1l1,0l2.9-2.1l5.1,0.3v2.1l-1.5,1.6l0,1.5l-0.5,0.5l0.7,1.3h0.5l1.2,1.3l0,0.5l1,0.5v1
			l-1.4,1.6l-0.4,1.6l0.7,0.8h1.5l0.2,0.8l1.2,1.3l1,0l1-1.6l2.4,0l1-1.6h1.9l0.3,1.3l1.2,0.8l0.5-1.1l0.5-0.5h1.9l0.7-0.8l0-1.1
			l1.2-0.8h1.5l0.2-1.3l1.7-1.8l2.4-0.5l0.7-1.3l0-1l1-1.1l-0.7-1.3l-0.5,0.5h-1.4l-1-1l-1.5,0l-0.9-1.5l-1,0l-1,1l-1,0l-0.9-1.6
			h-1.5l-0.5,0.5l-2.5-2l-1.4,0.5l-0.7-1.3l2.4-1.6v-0.5l2.2-2.4l0.5-0.5l2.4,0l0.9-1l1,0l1-1.1l1.2-0.3l0-1l-2.4-2.6l-0.5-1.6
			l-1.2-1.3l-1,0l-0.5-0.5l-1,0l-0.5,1l-1-1.5l-2,0l-0.5,0.5l-0.7-0.3l0.3-0.8l1.2-0.8l0.5-1.6l0.7-0.8l1,0l0.5-0.7l2.4-0.4l1.9,1.6
			l0.9,0l0.7,0.8v0.5l1.2,0.8l5.3,0l0.7-1.3l0-2l-1.5-0.6l1-1.1v-2.1l0.9-0.5l0-1l-0.5-0.5l0-3.1l-1.9-0.5l0-1l0.5-0.5l0-2.1
			l-0.5-0.5l0.7-0.8l0.4,1l1.5-1l1,0l0.2-2.4l-0.7-1.3l-1,0l-1.9,2.1l-3.1-0.8l0.3-1.3l2.4,0l0.7-0.8l-0.7-1.3l-2.7-0.8l1-1.6l0-1
			l0.7-0.8l4.8,0l2.4-1.5l1.4,2.1l1.9,0l0.7-0.8v-1.6l-0.5-0.5l0-3.1l-1.4-2.6l0.3-1.8h1.9l1-0.5l1.2,2.3l-0.5,0.5l1.4,2.6l1.2,0.2
			l0.5,0.5l1-1l2.9-0.5l0.5-1.1l1,0.5l0.8-0.2l0-1.1l-0.9-1l0.5-0.5l0-1.5l1-1.1l-0.2-1.3l-0.8-0.3l0-1.6l0.8-0.9
			c-2.9-1.1-5.6-2.5-8.2-4.3l-1,0.2l-0.7,0.8l-0.7,1.3l-2.9,1.1l-1.4,2.6l-1.5-0.1l-1.2,1.3l-0.2,1.3l-1.5,0.5l-0.4,1.1l-0.8-0.3
			l1.5-3.1l-0.7-1.3l-1.9-0.5l-2.4,2.6l-1,0l-1.7,1.3l0,1l-1.2,1.3l-1.5,0l-1.4,1.6l-1.5,0l-0.5,1l-0.6,1.1l-0.5-0.6l-1.2,0.3l0,2.6
			l-0.7,1.3l-0.5,0l-0.7,0.8v1.6l-0.7,0.8l-2.4,0l-0.5,0.5l-1.9,0l-3.6,3.4v3.6l-0.7,0.8l-0.2-0.8l-1.2-0.8h-2.4l-0.5,0.5l-4.3,0
			l-0.5,0.5l-2.9,0l-1.9,2.1l-2.9,1.6l-1.4,0.5l-2,1.5l-4.3,0l-0.2,1.3l-1,0.5l-0.5,1.1v1.5l-0.3,0.3l-0.9-0.5l-1,0.5l-0.7-0.8l0-1
			l-1.4-1.6l-0.5-2.1l-0.7-0.8l-0.5,0l-1.4-1.1h-5.3l-1,0.5l-1.9-1l-1,0l-1.5,1.6l-0.5-0.5l-1,0l-1-1.6l-0.7,1.3l-1,1.6l0,1.5
			l-1,2.6l-1.2,1.3l-0.5,0l-2.2,2.9l0,1.6l1,1.6l-0.2,0.7l-1.5,0l-0.2-1.3l-1.2-0.8l-1,1.1l-2.4,1l-3.4,0.5l-2.7,4.5l-0.7,0.8l-1,0
			l-0.5-0.5l-2.4,0l-1.4,1l-1,0l-1.2,1.8l0,1l0.7,0.8l4.4-0.5l0.7,0.8l-0.5,1v1.6l-1.7,1.8l-1.5,0l-2.2,1.9l0,3.1l0.5,0.5l0,2.6
			l-0.7,0.8l-1,0l-2.4-2.1l-1.4,0l-0.7,1.3l0,1l-1.5,2.1L247,379.6z"/>
		<path fill="#DE2910" d="M419.6,300c-0.2-0.7-0.5-1.3-0.8-2c-0.8,0.8-1.8,1.5-2.7,2.1c-1.5,1.5-3.1,2.9-4.7,4.2l0.3,0.5l2.4,0.6
			l3.4,4.1l0.3,0C419.2,306.7,420,303.4,419.6,300z"/>
		<polygon fill="#DE2910" points="494.2,182.6 494.2,183.1 494.9,183.9 495.4,183.9 495.6,183.6 495.7,182.6 495.5,182.3
			494.5,182.4 		"/>
		<polygon fill="#DE2910" points="507.5,282.5 507,281.9 506.5,281.9 506.3,282.2 506.2,282.7 507,283.5 507.5,283.4 508.2,282.7
			507.9,282.4 		"/>
		<path fill="#DE2910" d="M477.4,292.4c-6.9,8.4-22.8,6.8-28.6,0.4c-8.9-9.8-22.9-8.5-28.5,1.5c-0.2,0.7-0.4,1.4-0.5,2.1
			c1.1-0.1,2.3-0.2,3.5-0.1c26.3-4.1,43.2,12.7,46.5,32.4l1.4,1.5l2.2,3.9l0.9-0.6l2.2,0.3l0,0.5l-1.4,1.1l0.5,1l0,0.5l1,0.5
			l0.2,0.7l1.2,0.3l0.3,2.4l1,0.5l1.4,0l0.5,0.5l1.2-0.8l0-0.5l5.8-6.8l0.5-1l0-1.6l-1-2.1l-1-0.5l0.8-0.2l1.2-1.3l0.5-1.6l1-1
			l-0.5-5.7l-1.7-1.8h-0.5l-1,1.1l-0.2-1.3l0.7-0.8l2.9,0l1,0.5l0.2,1.3l1,1.6l0,1l1.2,1.4l1.4,0l0.3-1.3l0.7-0.8l0.2,0.8l1,0.5
			l-1,1l-0.2,1.3l-1,0l-0.7,0.8l0,3.1l1,0.5l0,0.5l1,0.5l0.5,1l0,1.6l0.5,1.1l1.2,1.3l1.2,0.3l0,1l0.5,0.5l0,1.6l0.5,0.5l-0.5,3.6
			l0.7,1.3l1.5,0l0.2,1.3l0.5,0.5l-2.4,2.1l0.5,5.7l0.7,1.3l1.5,0l0.5-1l0.7-0.3l0.3-1.8l0.5,0.5l3.4,0.5l0.2,1.3l0.7,0.8h1.5l1,0.5
			l1.5,3.6l1,0l0.7-0.8V354l0.7-0.3l1.4,1.1l1.2-0.8l0.5-1.6l-0.8-1.8l-1.9,1l-0.7-0.2l0-3.2l-0.5-0.5l0-1.6l1-1.1l-0.7-1.3l-1,0
			l-1.2,1.3l-0.5,1.5l-1.7,1.8l-0.7-0.2l1.2-1.8l0.7-0.3l0-1l-3.1-0.3l-0.5-0.5l-0.7-0.3l0-1.6l1-0.5l0-1.1l-1-1.6l1.7-1.3l1,0
			l0.3,0.8l1.7,1.3h3.4l1.9-2.1l2.4-1l0.7-0.8l0-2.6l0.9-0.5l-1.5-2.1l0-1l-2.9-3.1l0-1l-0.7-0.8l-0.9,0l-0.5,0.5h-1.9l-1.7,1.8l0,1
			l-0.8,0.3l-0.7-1.3l-1-0.5l1-0.5v-1.6l-0.5-0.5l0-1.1l-1-0.5l-0.3-4.4l-1,0l-0.5,0.5l-2.9-0.6l-1.4,1.1l-1,0l-0.5-1.1l-1.9-0.5
			l-0.7-0.8l0-3.6l-1.5-2.6l0-1l-1.2-0.8l-0.7-1.3l0-3.1l0.5-0.5v-1.6l1-1.6l-0.7-0.8l-1,0l-0.4,0.5l-0.7-0.8l0-1l-2.1-1.8l-0.5,0
			l-1,1.5l-2.9,0l-0.3-0.7l2.4-1.6l0.5-1.5l1.9-2.1v-2.1l0.8-0.3l0.5,0.5l0.7-0.8l0.2-1.8l2.1,1.8l0,1.1l0.5,0.5l-0.5,0.5l0,1.6
			l-1.9,1.6l0.2,1.8l1-0.6l1.9,0.5l0.7,2.4l1.7,1.8l1.2-0.8l0-1.6l1-0.5l-0.5-1l0.5-0.6v-2.1l-2.4-1l0-1l-1.4-3.1l0.2-0.4
			C490.9,283.7,483.1,285.5,477.4,292.4z"/>
		<polygon fill="#DE2910" points="419,297 419,297 419,297 419,297 419,297 		"/>
		<path fill="#DE2910" d="M498.5,284.3l-1.5-1.2c0.6,1.3,1.1,2.6,1.5,4L498.5,284.3z"/>
		<path fill="#DE2910" d="M496.5,281.9l0.9,0l0.2-0.8l1.9-2.1l0-1l0.9-1l0.5-2.1l0.7-0.8l0.5,0.5l1,0l0.2-0.7l1.2-0.8h1.5l1.2,1.8
			l1.7,2.4h1.9l0.9-1.6l0.2,1.3l1,1l0.2,1.9l1,0l0.7-0.8l0-1l0.2-0.3l1.5,2.1l1,0l0.4-0.6l1.5,0.1l0.2-1.3l-0.5-0.5l0-1.1l1.2-1.8
			l1,0l0.5-0.5l1.5,0l1.9-1l0.7,0.2l-0.3,0.8l-1.7,0.8v1.6l1,0.5l-0.5,4.2l0.8,0.2l1.4-1l0.3,0.8l1.2,1.3l3.8,2.1l1.9-1l0.3,0.8
			l1.7,1.3h1.4l0.5-1l1,0.5l0.7-0.8l-1.4-3.1l-1-0.5l0.3-1.8l1.4,1.1l1,0l0.4,1.6l1.7,0.3v1.6l2.2,1.8l1,0l0.5,0.5h2.4l0.5-1.5
			l0.7,1.3l-0.5,0.6l0,1.5l1.7,1.8l2.9,0.5l0.9,1l0.9,0l1,1.6h1.5l0.5,0.5l2.4,0l0.7-0.8l0-1l-1.2-1.3l-2.2-1.3l0-1.6l-0.5-0.5
			l1.2-1.3l1,1.1l1,0l1-1l0.7,0.8l0,1.6l1.4,3.1l0.8,0.8h1.4l1.2-1.3l0-1.6l-0.7-1.3l-0.8-0.3l-1-2.1l2.4-0.5l-0.5-5.7L566,278
			l0-1.5l-0.7-0.3l-0.9-1.1l-1,0l-0.5,1l-0.4-1.1l-1.2-0.8l-0.5-1.6l-2.2-2.3l-1.4,0l-1.5,2.6l-0.7-0.3l0.5-0.5v-1.5l-1.4-1l1.7-0.3
			l1.7-1.3v-4.2l1.2-0.8l0.5,1.1l0.5,0l0.7-0.8l-1-1.5l0.5-2.1l0.7-0.8l1.9,0l1.5-2.1l1,0l0.5,0.5l2.4,0l1.2,2.8l0.7,0.8h0.5
			l1.4,1.6l0.5-0.5l1,0l1,0.5l1.2-1.3l-0.5-1v-1.6l-1-0.5l-0.2-1.3l-2.4-1l-0.7-0.8l0-2.6l-0.5-0.5l0-1l1.5-1.1l0.9-2.6l-0.7-0.8
			l-1.5,0l-0.4,0.5l-1.5-2.1l-0.5,0.5l-0.3-0.2l-0.2-1.8h-0.5l-1.4,1.5l-2.9,0.5l-1,1h-1.9l-1.9-1.5l-1.9,0.5l-0.4,1l-1.2-0.2v-2.1
			l-0.5-0.5l0-1l-1-2.1l0.7-0.8l1.2-0.2v-4.2l-1.2-0.8l-1.5-2.1l-1-0.5l-2.2,0.2l0,3.1l0.5,0.5l0,1.1l-2.1,0.3l-1.5,1l-0.5-0.5
			l-1.2,0.3l0,1.5l0.5,1.1l0.7,1.3l0.7,0.3l0,1.6l-0.5,0.5l0.5,0.5l-0.4,0.5l0,3.1l-0.5,0.5l0,1.1l0.5,0.5l-0.5,0.5l0,1l1,1.6l0,0.5
			l-1,0.6l0.5,0.5l-0.2,0.8l-1,0l-0.5-0.5l-1,0.5l-1.2-0.8l0.7-1.3l1.2-0.2l0-1l-0.9-1.1v-2.1l-0.9-1.6v-2.1l-0.7-0.8l-0.9,0
			l-1.7,1.8l0,2.6l-0.7,0.8l-0.5-0.5l-1.2,0.3l1,1.5l-2.7,0.8l-0.3-0.8l1.5-1.1l0-2.6l-0.5-1.1l-1.4-1.5l0.7-0.8l2.9,0l1.2-1.3
			l0-2.6l-0.7-0.8l-1.2-0.2l0.5-0.6l-0.9-3.6l1-1.6v-2.6l0.7-0.3l1.4,1.1h1.5l1.2-0.8V229l-1.9-3.2v-2.6l-0.5-0.5l-0.5-2.1l-0.7-0.8
			l-0.7,0.3v0.5l-1.5,1.6v2.1l0.5,0.5l-0.5,0.5v2.1l-1,1.1l0.5,0.5l-0.7,0.8l-0.9,0.5l-1.9-0.5l-1.9,1.6l-0.3-0.2l1-2.1l0.5-2.6
			l1.2-0.3l0.2-0.8l-1.2-1.8l-1,0l-0.5,1.1l-1.4,0l-0.3-0.8l-0.5-0.5l0.5-1.1l-0.9-2.6l-1.3-0.3l-0.2,1.3l-0.7,0.8l-1.9,0l-2.4,3.1
			l-0.9,0l-3.2,2.8l-0.5,2.6l-0.9,0.5l0.5,0.5l0,3.1l-1.2,1.3l-1-1.6l-0.5,0.5h-1.9l-0.5-1l-1.4-0.1l-0.3,4.4l-0.2,0.3l-0.7-0.8
			v-0.5l-1.2-0.8l-1,0l-3.6,3.4l-0.2,1.3l-0.5,0l-0.7,0.8l0.2,1.8h0.5l0.9-1l0.5,0.5l0.9,0l0.3,0.8l-1,1l0,1l1.4,2.6v2.1l1.2,1.3
			l1.7,0.3l0,0.5l-3.1,2.9l-1.4,0.5l-3.2,2.3l-0.2,4.4l-0.7-1.8l-2.9-3.1l0-0.5l1.4-1.1l0-5.2l-0.5-0.5l0-1l-1.2-1.3l-2.9,0
			l-1.4,1.1h-1.9l-0.5,0.5l-0.9-1.6l-1.5,0l-0.9,1.1h-1.9l-1,1l-0.2-1.3l1.2-0.3l0.7-0.8l-0.3-0.8h-1.9l-1.9-1l-1,0.5h-1.5l-0.2,1.3
			l1,1.6l-1.7,1.9l-1.2,0.2l-0.9,4.7l-1.7,0.8l-0.2,1.3l-1.4,1.1l0.6,1C482,263.6,491.2,270.9,496.5,281.9z"/>
		<polygon fill="#DE2910" points="274.3,299.7 273.1,301 273.1,301.5 273.8,302.3 274.7,302.3 275.4,301 275.5,299.9 275.2,299.7
			"/>
		<polygon fill="#DE2910" points="271.8,282.5 269,282.5 268.2,284.3 269.9,284.6 271.1,285.9 270.6,290.1 272.3,290.3 273,289
			272.6,287 273.5,284.8 273,283.3 		"/>
		<polygon fill="#DE2910" points="276.7,307.5 276.7,304.4 274.7,304.4 274.5,305.1 275.4,306.2 275.4,307.2 		"/>
		<polygon fill="#DE2910" points="497.4,183.9 497.1,184.2 497.1,184.7 497.8,185.5 498.6,184.7 498.6,184.2 498.3,183.9 		"/>
		<polygon fill="#DE2910" points="490.1,178.2 489.9,178.4 490.6,179.2 491.6,179.2 492.3,178.4 492.3,177.9 491.6,177.6
			491.1,178.2 		"/>
		<polygon fill="#DE2910" points="498.3,186 497.8,186 497.6,186.2 497.6,186.8 497.8,187 498.3,187 498.6,186.8 498.6,186.3 		"/>
		<polygon fill="#DE2910" points="495.4,173.5 495,172.9 494.7,174.2 496.4,176.1 497.6,175.8 497.6,175.3 495.9,173.5 		"/>
		<polygon fill="#DE2910" points="470.9,186.5 470.6,186.8 471.3,187.6 471.6,187.3 471.6,186.8 471.3,186.5 		"/>
		<polygon fill="#DE2910" points="462.4,189.9 462.7,190.1 463.2,190.1 463.4,189.9 462.7,189.1 462.4,189.4 		"/>
		<path fill="#DE2910" d="M307.7,251.5l-2.2,1.8h-0.5l-1.2,1.3l-0.3,2.3l-2.9,1.6l-2.4,0l-0.5,0.5l-2.9,0l-0.5,0.5l-0.9-0.5h-1.9
			l-0.5,0.5l-0.9,0l-1.7,1.8l0,1l-1.2,1.8l-1,0.5h-1.9l-1.2,1.3l0,1.5l1.7,1.3l2.4,0l2.7,2.3l0.5,1l-0.5,0.5l0,2.1l1.2,1.8h0.5
			l1.2,1.3l0,1l0.5,0.5v3.6l-0.9,1.1l0,1.5l2.4,2.6l0.3,0.8l1.9,1l4.3,0l0.5,0.5l2.4,0.5l1.9,1.5l0.9,0l1,0.5l1-0.5l0.9-1.6l3.4-1.6
			l0.9-1l2.7-0.3v-1l2.4-2.6l0-2.6l1-1l0-0.5l1.7-1.8l0.7-0.3l0-1.5l-0.5-0.5l0.2-1.8l0.5,0.5l3.6,0.2l0,1l1.4,1.6l0,2.1l-0.5,0.5
			l-0.4,1l0,2.1l0.5,0.5l0,1.1l1.2,1.3l1,0l2.4,2.1l2.4,0l1.2,1.3l-0.7,1.3l-0.5,0l-0.7,0.8l0.7,1.3l2.4,0.5l0.5-0.5l0.9,1l1.5,0
			l0.5,0.5l0.5-0.6l0.5-1h1.4l1.9-1.5l1,0l0.7,0.8l0.3,1.3l1.9-1l2.2,0.8v1.6l1.2,2.3l2.9,0l0.5,0.5l1.3,0c-9.2-11-13.1-27-6.5-43.4
			c1.6,10.2,9.6,14.2,19,11.7c10.5-2.8,22.5,7.9,23.4,16.5c0.3,2.7,1.1,5.2,2.2,7.4l0.2,0l0.5-0.6l3.4-0.5l1.9-2.1l3.4,0.5l2.2,2.9
			v1.6l-1.4,1.5l2.4,3.1v1.6l0.5,1l-0.2,0.4c1.3,0.2,2.7,0.2,4,0.1l0.2-1.3l1,0l0.2,1c1.2-0.2,2.4-0.6,3.6-1.2
			c0.6-0.4,1.1-0.9,1.7-1.4c-1-0.6-2-1.2-2.9-1.9c-42.3-21.7-21.2-79.8,22.8-76.8c-9.2,4.7-10.5,13.5-5.3,21.6
			c5.9,9.1-0.5,23.8-8.5,27.3c-12,5.4-15.2,19.1-7.4,27.6c0.6,0.4,1.2,0.8,1.8,1.2c0.2-1.1,0.5-2.2,1-3.3
			c4.2-26.1,25.1-37,44.8-34.3v-2.4l-1.9-2.1l-0.2-0.8l-1-0.5l-2.9,0l-0.5-0.5l-1.2-0.3v-4.2l-1.2-1.4l-1,0l-1.4-1.6l-2.4,0
			l-0.5,0.5l-1-0.5l-1.9-1.6l-1.9-0.5l-1.2-1.3l0.5-0.5l-0.7-0.8l-3.4,0l-2.4-2.1l-1,0l-0.3-0.8l0.8-1.8l0.9,0.5l0.5-1l2.4,0.5
			l0.5-0.6l1,0l0.5,0.5l1,0l0.2-2.4l1.7-0.2l2.4-2.1l3.4,1l0.5,0.5l0.9,0l0.9,1.5l1.5,0l1-1.1h1.9l0.9,1.1l1,0.5l0.9-0.5l0.5,0.5
			l1,0l0.7,0.8l-1,2.6l-1,1l0.7,0.8l1,0l0.5-0.5l1,1.5h0.5l1-1.6l0.9,0.5l1-0.5l0.2-0.8l-0.7-0.8l-1.9-0.5l-1.2-2.8l-0.7-0.8l-1,0
			l-1.7-1.3l0.9-5.8l1.5-1l0.2-0.8l0.5,0l1.2,1.3l0.7,1.8l1-0.5h1.9l1.4-1.6l3.4-1l0.2,0.7l-0.5,1.1l1.2,1.3l1.7-1.3l0.5-2.1
			l1.5-1.6l0.5-1.5l1.9-2.1l0-1l0.5-0.5l0-3.1l-0.9-1.5v-1.5l-0.5-0.5l0.3-1.3l1.2,1.8l0.2,1.3l2.4,1.1l0.9,1l1.5,0l0.5,0.5l1,0
			l1.9,1l1.4,0l0.5,2.1l1,0l1.2-1.3l0-1.5l1.2-1.3l0.9,0l0.5-0.5l0.5,0.5l1.5,0l2.9-1.5l2.7,0.3l-0.7,1.3l-0.8,0.3l0.7,2.9l1,0
			l1.4-2.6l1.2,0.8l-0.5,1.5l-0.9,1.1l0,1l-2.4,1.6l-0.3,1.3l-2.9,0l-0.9,1.6l-0.5-0.5h-1.9l-0.9-0.5l-1,1.6l-2.4,0l-1,1.6l-0.7,0.3
			l0,1l-1,1.6l0.7,0.8l1,0l0.5-0.6l0.7,0.3l-3.6,4.4l-1.2-0.3l0.5-0.5l-0.7-0.8h-1.5l-3.1,3.4l0,1.6l-0.5,0.5l0.2,1.3l1,0l0.3-1.3
			l1.2-0.8l3.4,0l1.4-1.1l0.5,0l1.2-1.3l0.5-1.6l2.7-2.9l2.4-1.6l1.9-0.5l0-1l-2,1h-1.9l0-1l1.4,0.5l1.9-1.6h3.4l0.5-0.5l0.9,0
			l1.5-1l0.9,0l1-1.1l1,0.5l0.9-1l1.4-0.5l1-1.6l0.5,0.5l0.5-0.5l2.9-0.5l2.9-2.1l0.7-0.8l0-1l-1-0.5l0.7-0.8l1,0l0.9-1l0.5,1.6
			l2.9-2.6h0.5l4.4-5.8l1,0l1.4-1.6l1,0l2.6-1.8l0-2.6l-1.2-1.3l-2.9,1.6l-1.9,2.1l-1.4,0l-0.5,0.5l-1.4,0l-0.5,0.6l-1.9-0.1
			l-0.5,0.6h-1.9l-0.9,0.5l-0.4,0.5l-1,0l-1,1.6l-0.9,0.5l-2.9-2.6l-1,0.5l-0.3-0.2l-0.2-1.8l-1.5,0l-0.5-2.1l-2.2,0.3l0,0.5l1,1.1
			l-0.7,0.3l-1.7-0.8l0.5-0.5l-0.3-0.8l-2.4,0l0-0.5l1.7-0.3l-1.7-1.3l-0.5,0.5h-2.4l-0.2,0.8l-1.3,0.2l-0.9,1.1l-1.2-0.3l1.4-1
			v-1.6l-1-0.5l0-1.5l1.2-0.3l1.5,2.1l1,0l0.2-1.8l0.7-1.3l0.7-0.2l0-1l2.9-2.6l-0.7-1.3l-1,0l-2.9,2.6l-0.2-1.3l1.4-2.1l-0.2-1.3
			l-1,0.5h-1.4l-1.4-1l-0.2,2.3l-2.2,0.2l-0.5-0.5l-1.9,0l-0.5,0.5l-1.7-0.2l1-1.6l0-1l2.9-2.1l-0.7-1.3l-2.2-0.8l0-1l-0.7-1.3
			l-0.5,0.6l-1,0l-1,1.1l-0.7-0.3l1-1.6l-0.5-3.1l1.2-0.2l0.7-0.8l-0.3-0.8h-1.9l-0.5-0.5l-1,0l-0.5,1.5l-1,0l-0.5-0.5l-0.5,0.5
			l-0.7,0.3l-0.2,0.8h-0.5l-0.2-1.3l-0.7-0.8l-2.4,0.5l-1.2,1.3l0,1l-1.4,2.6l0,1l-0.5,0.5v1.6l-1.2,1.3l-1.9,0.5l-1.4-1.1l-0.7,1.3
			l0,1.1l-1.7,0.8l-0.9-1.1l-1,0l-1.2,1.8l0,1l-0.7,0.8l-0.7-0.2l-0.2-1.3l-1.5,1h-1.9l-0.5,0.5l-0.2-0.3l0.5-1v-1.6l-0.5-0.5l0-3.7
			l0.2-0.3l0.7,0.8l0,0.5l1.7,0.3l1.2-1.3l0.5-2.6l2.6-2.9l0.7,0.3l-0.9,1.1l0.2,0.7h1.9l1.1-0.9l-0.2-0.4l-0.1-0.3l0-0.3l0.2-0.1
			l0.1-0.2l0.2-0.2l0-0.1l0.1-0.2l0.2-0.4l-0.1-0.3l-0.3-0.3l-0.3-0.5l-0.3-0.4l-0.3-0.2l-0.1-0.2l-0.1-0.1l0-0.1l0,0l-0.2,0l-0.3,0
			l-0.3-0.2l-0.4-0.2l-0.3-0.1l-0.3-0.1l-0.2-0.2l-0.1-0.3l0-0.3l-0.1-0.2l-0.1-0.2l-0.3,0l-0.2-0.2l0-0.1l-0.1-0.2l-0.1-0.2
			l-0.1-0.2l-0.2-0.2l-0.5-0.4l-0.2,0l-0.1,0l-0.2,0.1l-0.1,0.3l-0.3,0.1l-0.3-0.1l-0.3,0.1l-0.4,0l-0.5,0l-0.4,0l-0.6-0.4l-0.4-0.3
			l-0.4,0l-0.3-0.1l-0.3-0.3l-0.2-0.1l-0.3-0.2l-0.3,0.1l-0.2,0.1l-0.2,0.1l-0.2,0.1l-0.4,0l-0.2-0.2l-0.4,0l-0.5,0l-0.8,0.1
			l-0.3,0.1l-0.5,0.1l-0.2-0.2l-0.1-0.2l0-0.1l-0.1-0.2l-0.3-0.1l-0.3,0.1l-0.2,0.1l0,0l-0.2,0.2l-0.3,0l-0.2-0.1l-0.1,0l-0.2,0
			l-0.1,0l-0.3,0l-0.4,0l-0.3,0l-0.2,0.2l0,0.1l0,0.3l-0.1,0.3l-0.6,0.2l-0.5,0.1l-0.4-0.1l-0.2-0.1l-0.3-0.1l-0.3-0.1l-0.3,0.2
			l-0.4,0.1l-0.4,0l-0.5,0l-0.5,0l-0.3,0l-0.3,0.1l-0.2,0.3l-0.1,0.2l0,0l-0.3,0l-0.2-0.1l-0.1,0l-0.5-0.1l-0.6-0.1l-0.8,0l-0.3-0.1
			l-0.3,0l-0.2,0l-0.1,0.3l0,0.1l-0.2,0.3l-0.4-0.2l-1-0.6l-0.4-0.1l-0.1-0.2l0-0.6l0-0.2l0-0.2l0-0.1l0,0l0-0.2l0-0.5l-0.2-0.2
			l-0.3-0.3l-0.2-0.2l-0.2-0.1l-0.5,0.1l-0.2,0.1l-0.1,0l-0.4,0.1l-0.3,0l-0.3,0l-0.2-0.1l-0.4,0l-0.3,0.1l-0.3,0l-0.2-0.1l-0.1-0.1
			l-0.3-0.3l-0.1-0.2l-0.2-0.2l-0.2-0.1l-0.4-0.1l-0.3,0l-0.2,0.1l-0.2,0.1l-0.2,0.2l-0.2,0.2l-0.1,0.2l-0.1,0.2l-0.2,0.3l-0.2,0
			l-0.3,0.1l-0.4,0l-0.4-0.1l-0.2-0.2l-0.1-0.2l-0.1-0.2l-0.2-0.6l-0.2-0.3l-0.3-0.2l-0.3,0l-0.2,0.1l-0.2,0.1l-0.4,0.4l-0.1,0.2
			l-0.4,0.6l-0.3,0.5l-0.2,0.3l-0.1,0.3l-0.2,0.5l-0.1,0.2l-0.1,0.3l-0.1,0.2l-0.2,0.2l-0.1,0.2l-0.1,0.4l-0.2,0.2l-0.4-0.1l-0.3,0
			l-0.3,0l-0.1,0l-0.1,0l-0.2-0.1l-0.3-0.1l-0.3-0.1l-0.3,0.1l-0.2,0.4l0,0.5l-0.1,0.2l0,0.3l0.1,0.3l0,0.3l-0.2,0.4l-0.2,0.2
			l-0.3,0l-0.3,0.1l-0.2,0.3l-0.1,0.4l-0.1,0.5l0,0.6l0,0.2l0.1,0.3l0.5,0.2l0.2-0.1l-0.1-0.3l0-0.2l0.3-0.1l0.2,0l0.2,0.2l0,0.3
			l-0.1,0.3l-0.2,0.2l-0.3,0l-0.3,0.1l-0.2,0.2l-0.2,0.2l-0.3,0.2l-0.2,0.2l-0.4,0.5l0,0l-0.1,0.2l0,0.2l0,0.2l0.2,0.5l-0.3,0.3
			l-0.3,0.2l-0.5,0.1l-0.2,0.2l-0.3-0.1l-0.3,0.1l-0.4,0.2l-0.2-0.1l0-0.2l0.1-0.3l0-0.1l-0.5,0.1l-0.3-0.1l-0.2-0.1l-0.2,0.1l0,0
			l-0.2,0l-0.1-0.3l-0.2-0.1l-0.3,0l-0.4-0.1l-0.2,0l-0.2-0.2l-0.2-0.1l-0.6,0l-0.2,0l-0.3,0.1l-0.5,0.4l-0.2,0.3l-0.3,0.2l-0.1,0.1
			l-0.2,0.1l-0.1,0.1l-0.2,0.3l-0.2,0.1l-0.2-0.1l-0.2-0.2l-0.3,0l-0.3-0.1l-0.1-0.2l-0.2-0.1l-0.3,0.3l-0.3,0.2l-0.2-0.1l-0.2-0.2
			l-0.3-0.1l-0.2,0.1l0,0.3l-0.1,0.3l-0.1,0.3l-0.8,0.7l-0.3,0.1l-0.1-0.1l-0.1-0.1l-0.4-0.3l0-0.3l0.3-0.1l0.1-0.2l-0.2-0.2
			l-0.4,0.2l-0.2,0.3l-0.1,0.3l-0.3,0.3l-0.2,0l-0.5,0.2l-0.2,0.1l-0.2,0.1l-0.2,0.2l-0.3,0.3l-0.1,0.3v0.4l0.2,0.2l0.3,0.5l0.1,0.3
			l-0.3-0.1l-0.3-0.2l-0.2-0.1l-0.2,0l-0.3,0.2l0.1,0.3l0.1,0.1l0.1,0.3l-0.5,0l-0.4,0l-0.4,0l-0.8-0.3l0,0l0,0l-0.4,0.1l0,0
			l-0.3,0.1l-0.3,0.3l0,0.5l0,0.8l0,0.7l-0.3,0.2l-0.2,0.1l-0.9,0.5l-0.4,0.1l-0.7-0.3l-0.3-0.2l-0.3-0.3l-0.2-0.3l0-0.4l0.1-0.8
			l0-0.3l0-0.7l-0.1-0.7l-0.2-0.3l-0.3-0.2l-0.3,0l-0.2,0.3l-0.1,0.5l-0.1,0.2l-0.2,0.2l0,0l-0.4,0.1l0,0l-0.3,0l-0.3-0.1l-0.2-0.1
			l-0.3,0l-0.2,0.3l0,0.3l0,0.4l-0.1,0.3l-0.1,0.3l-0.2,0.2l-0.3,0l-0.1-0.2l0.1-0.2l0-0.2l0.1-0.2l0-0.2l0-0.1l0.1-0.5l-0.1-0.4
			l-0.3,0l-0.5,0.1l-0.5,0.2l-0.3,0.1l0,0l-0.4,0.1l-0.5,0.1l-0.6,0.1l-0.3,0l-0.3,0.1l-0.3-0.1l-0.3-0.1l-0.1-0.1l-0.1,0l0,0
			l-0.2-0.2l-0.2-0.3l-0.1-0.1l-0.1-0.2l-0.2-0.3l-0.2-0.2l-0.2-0.2l-0.2-0.1l-0.3-0.1l-0.4-0.1l-0.4,0l-0.4,0.1l-0.2,0.1l0,0
			l-0.2,0.1l-0.3,0.1l-0.3,0.2l-0.3,0.3l-0.2,0.2l-0.2,0.2l-0.2,0.3l-0.2,0.2l-0.1,0.2l-0.2,0.3l0,0l-0.2,0.3l-0.2,0.2l-0.1,0.3
			l-0.2,0.2l-0.2,0.1l-0.2,0.1l-0.4,0.1l-0.3,0l-0.5,0.1l-0.6,0.1l0,0l-0.3,0l-0.7,0.2l-0.3,0.2l-0.2,0.2l-0.2,0.3l-0.1,0.3l0,0.5
			l0.1,0.3l0.3,0.3l0.2,0.2l0.3,0.3l0.2,0.1l0.6,0.3l0.1,0l0.2,0.1l0.3,0.2l0.5,0.3l0.2,0.1l0.1,0l0.1,0.1l0.3,0.2l0.3,0.4l0.1,0.2
			l0,0.3l-0.1,0.3l-0.2,0.5l-0.4,0.5l-0.4,0.6l-0.7,0.8l0,0.3l-1.2,1.5l-2.3,0.8l-2.1-1.7l-2.3,0.1l-1.9,0.6l-1.4,1.6l-0.5,0
			l-1.2,1.8l-0.5,2.6l-1.7,1.8l-1.2,0.8l-1.7,0.5l-2.4-0.7l-0.5-0.5l-3.9,0l-2.9,2.6l-1.4,0.5l-2.2,2.4l-0.5,2.1l0.5,0.5l0.5,3.1
			l1,1l0,1.6l-0.5,0.5v2.1l0.5,0.5l-0.5,0.5l-0.2,2.9l-0.8-3.9l-1.2-1.3l-1,0l-1.9,1.6l-3.4,1.5l-0.9,1.1h-2.4l-0.2-2.9l0.4-0.5
			l0-2.6l2.4-3.1l-0.7-1.3h-1.5l-0.5,0.5l-2.9,0l-0.5-0.5h-1.5l-0.4,1.1h-1.5l-1.7,1.3l-1.5,3.7l-1.7,2.9l-0.5,0l-1.9,2.1l-0.5,0
			l-2.6,2.9l0,0.5l-2.4,3.6l-0.5,2.1l-2.1,2.4l-7.7,3.6h-2l-1.2,1.3l0,0.5l-4.4,4.7L307.7,251.5z"/>
		<polygon fill="#DE2910" points="481,176.1 481.2,175.8 481.2,175.3 481,175 480.5,175 480.2,175.3 480.2,175.8 480.5,176.1 		"/>
		<polygon fill="#DE2910" points="492.8,175.3 492.8,174.3 492.5,174 491.1,174 490.9,174.2 490.9,175.3 491.1,175.6 492.5,175.6
			"/>
		<path fill="#DE2910" d="M422,297.4c-0.7,0-1.4,0-2.1,0.1c0.5,1,0.9,2.1,1.2,3.3c1.9,3.7,3.2,7.3,4,10.8l1.4,0l1-0.6l0.9,1.1h0.5
			l4.6,4.4l-0.5,0.5l0,3.1l0.5,1C437.8,310.6,432.3,299.5,422,297.4z"/>
		<polygon fill="#DE2910" points="547.7,316.6 547.5,315.8 546,315.2 544.5,317.3 543.6,316.3 542.7,316.3 541.4,318.6 541.4,319.7
			540.5,320.7 540.5,321.8 541,322.3 540.9,323.3 541.7,324.1 542.1,324.1 542.9,323.3 543.1,322 544.1,322.5 545.8,321.2
			545.8,319.7 545.3,319.2 547.2,317.6 		"/>
		<polygon fill="#DE2910" points="554.4,322.3 553.2,319.9 551.3,318.9 549.8,318.9 549.2,319.7 549.2,322.3 552.3,328.3 553.5,328
			553.5,325.9 554.4,325.9 		"/>
		<polygon fill="#DE2910" points="552.3,352.2 552,352.5 552,353 552.3,353.3 552.8,353.2 553,353 553,352.5 552.7,352.2 		"/>
		<polygon fill="#DE2910" points="543.6,348.6 543.1,348.6 542.9,348.8 542.9,349.9 543.1,350.1 544.1,350.1 544.3,349.9
			543.8,349.4 543.9,348.8 		"/>
		<polygon fill="#DE2910" points="539.8,354.8 539.5,355.1 539.5,355.6 540.2,356.4 540.9,355.6 540.2,354.8 		"/>
		<polygon fill="#DE2910" points="572.3,248.8 572.3,249.4 572.5,249.6 573.5,249.6 573.7,249.3 573.7,248.8 573.5,248.6
			572.5,248.6 		"/>
		<polygon fill="#DE2910" points="563.3,269.4 564.3,269.4 564.6,268.6 564.1,268.1 564.1,267.1 563.8,266.8 562.9,266.8 562.6,267
			563.1,267.6 563.1,269.1 		"/>
		<polygon fill="#DE2910" points="566.7,291.3 566.5,291.5 566.5,293.1 566.7,293.4 567.7,293.3 567.9,293.1 567.9,292.1
			567.2,291.3 		"/>
		<polygon fill="#DE2910" points="555.2,324.1 554.9,324.4 555,325.4 555.2,325.7 555.6,325.7 555.9,325.4 555.9,324.4 555.6,324.1
					"/>
		<polygon fill="#DE2910" points="573.7,247.7 573.7,246.8 573.5,246.5 573,246.5 572.8,246.7 572.7,247.8 573,248.1 573.5,248
			"/>
		<polygon fill="#DE2910" points="541.7,361.6 541.9,361.3 541.4,360.8 541.5,360.3 540.7,359.5 540,360.3 540,360.8 540.7,361.6
			"/>
		<polygon fill="#DE2910" points="559.7,315 559.8,314.4 559,313.7 558.5,313.7 556.1,311.6 554.7,311.6 554.5,312.9 556.1,315.3
			"/>
		<polygon fill="#DE2910" points="541.9,350.9 540.4,352 540.5,354 541.7,355.3 542.4,355.1 542.4,354 543.8,352.5 543.1,350.7
			542.2,350.1 		"/>
		<polygon fill="#DE2910" points="528.2,315.8 529.6,316.8 531.1,315.2 532.1,315.3 532.3,312.9 531.8,312.4 531.8,310.8
			529.9,309.2 529.9,308.2 528.7,306.4 523.8,306.4 522.7,307.7 522.6,309.3 523.6,310.3 524.1,312.4 524.6,312.9 524.6,314
			525.8,316.3 526.7,315.8 		"/>
		<polygon fill="#DE2910" points="525.3,332.4 525.8,331.9 526.3,331.9 526.5,331.7 526.5,331.1 526.3,330.9 524.8,330.9
			524.6,331.2 524.6,332.2 524.8,332.4 		"/>
		<polygon fill="#DE2910" points="468.2,245.7 468.2,246.7 468.5,247 469.6,245.7 469.4,243.9 		"/>
		<polygon fill="#DE2910" points="533,308.5 532.8,308.8 532.8,310.8 533,311.1 534.4,311.1 534.7,310.8 534.7,309.3 534.5,309
			"/>
		<polygon fill="#DE2910" points="543.6,361.1 544.6,361.6 544.8,361.3 544.3,359.2 544.8,358.2 544.1,356.4 543.3,356.6
			543.1,358.5 542.2,357.9 541.4,358.7 542.7,361.6 		"/>
		<polygon fill="#DE2910" points="549.6,306.7 549.6,305.1 548.7,304.1 549.2,303 548.7,302 548.9,300.1 549.8,300.1 550.8,301.7
			552.3,301.7 553.5,300.9 552.3,299.1 551.5,298.9 551.8,298.6 553.7,298.6 554.7,299.6 555.6,299.6 556.1,299.1 557.3,298.8
			557.4,297.8 557.8,297.3 557.3,296.2 558.1,296 558.3,295.2 557.6,294.9 556.1,292.9 555.2,292.4 553.7,292.3 552.3,290.8
			548.4,290.8 547.5,290.3 546.7,288.9 546.7,287.4 546,286.6 545,286.6 544.1,287.6 543.1,287.1 541.7,287.1 541.2,288.2
			540.2,287.1 537.8,287.1 536.9,287.6 536.4,287.1 535.4,287.1 535,288.1 534.4,287.7 534.2,288.9 534.7,289.5 533.5,289.7
			531.8,291 531.8,293.1 532.5,293.9 533,293.9 534.4,295.4 535.4,295.5 538,297.8 536.4,298 536.1,299.9 538.3,302.8 539.7,302.8
			541.2,300.7 542.2,300.7 542.4,299.3 543.1,298.6 544.1,298.6 544.8,300.4 545.8,301.4 545,302.2 544.1,302.2 543.8,303
			545.8,307.7 545.8,309.8 547.9,310 		"/>
		<polygon fill="#DE2910" points="525.3,323.6 524.3,323.6 524.1,323.8 524.1,325.4 524.3,325.7 524.8,325.7 525.1,325.4
			525.1,324.4 525.5,323.8 		"/>
		<polygon fill="#DE2910" points="543.8,299.3 543.6,299.1 542.9,299.9 543.1,300.1 543.6,300.1 543.9,299.9 		"/>
		<polygon fill="#DE2910" points="506,286.6 506.3,286.3 506.3,285.3 506,285.1 505.1,285 504.8,285.3 504.8,286.3 505.1,286.6
			"/>
		<polygon fill="#DE2910" points="502.7,281.4 502.2,280.9 501.9,281.1 501.9,282.7 502.2,283 502.6,283 503.1,283.5 503.6,283.5
			504.3,282.7 503.1,281.4 		"/>
		<polygon fill="#DE2910" points="515.9,297.8 515.9,300.4 516.9,302.5 518.6,304.3 521,305.4 521.9,303.8 522.4,303.8 523.4,305.3
			524.8,305.4 525.3,305.9 527.7,305.9 528.4,304.6 527.5,303 528.9,302.5 528.9,301.5 529.9,300.4 529.4,299.4 529.9,298.3
			529.6,295.9 527.7,295.4 526.3,294.4 524.6,294.1 525.5,293.1 525.5,290 523.6,286.8 524.1,286.3 524.1,284.3 522.9,283
			521.7,284.3 521.7,285.3 520.5,286.6 519.7,286.3 521.2,284.8 521.7,282.2 519.8,282.2 519.3,283.7 518.3,284.3 517.8,285.8
			517.1,286.1 516.9,286.9 514.9,288.9 514.9,290.5 516.2,290.8 516.6,290.2 516.9,290.5 516.9,292.6 517.9,294.2 516.4,294.7
			516.9,295.2 516.9,296.8 		"/>
		<polygon fill="#DE2910" points="505.3,276.4 505.3,275.9 505.1,275.6 504.6,275.7 504.3,275.9 504.3,276.4 503.9,277 504.1,277.2
			504.6,277.2 		"/>
		<polygon fill="#DE2910" points="543.4,306.1 543.6,306.4 544.1,306.4 544.3,306.1 544.3,305.6 543.6,304.8 543.4,305.1 		"/>
		<polygon fill="#DE2910" points="569.1,240.2 569.9,239.4 569.8,238.9 569.6,238.6 568.7,238.7 567.9,239.4 568.7,240.2 		"/>
		<polygon fill="#DE2910" points="547,210 547.5,209.4 548.9,209.5 549.1,207.1 551.1,205 551.1,204.5 549.9,204.2 549.4,203.7
			547,204.2 546.2,205 546.2,206.1 545.3,206.6 545.3,207.6 546.3,208.1 546.2,209.2 		"/>
		<polygon fill="#DE2910" points="466.5,233.9 466,233.4 465.3,233.7 465.3,234.2 466,235 467.5,235 467.7,234.7 467.5,234 		"/>
		<polygon fill="#DE2910" points="471.8,238.7 473.3,238.7 474.2,237.1 475.4,236.3 475.4,235.3 476.4,234.2 476.4,233.7
			475.2,232.9 473.3,232.9 473,233.7 471.6,234.7 471.6,236.3 469.6,237.9 469.6,238.9 471.3,239.2 		"/>
		<polygon fill="#DE2910" points="468.9,232.4 469.7,231.6 469.6,230.1 469.4,229.8 468.9,229.8 467.7,230.6 467.7,232.1 468,232.4
					"/>
		<polygon fill="#DE2910" points="545.1,219.9 545.5,219.9 546.2,220.7 546.2,222.2 546.7,222.7 546.7,224.8 548.2,224.8
			547.2,226.4 547.2,228 547.7,229 549.4,229.2 551.1,227.5 551.1,225.3 552.5,224.3 552.5,223.3 553,222.7 552.5,221.2
			551.8,220.9 550.6,220.2 550.6,219.1 551.5,218 551.6,217 550.8,216.2 549.9,216.2 548.9,215.2 547,215.7 545.5,217.8
			544.3,218.6 		"/>
		<polygon fill="#DE2910" points="556.1,218.8 556.4,218.6 556.4,217.5 555.2,216.8 554.2,216.7 554,217.5 555.2,218.8 		"/>
		<path fill="#FFFFFF" d="M405.8,280.4c-2.4-8.7-1-18.1,3.8-25.7l1,0.6c-4.6,7.3-5.9,16.4-3.6,24.8c1.7,6.2,5.3,11.6,9.9,14.9
			c-7.8-8.5-4.6-22.2,7.4-27.6c7.9-3.6,14.3-18.2,8.5-27.3c-5.2-8.1-3.9-16.9,5.3-21.6c-44-3-65.1,55.1-22.8,76.8
			C410.8,291.7,407.5,286.5,405.8,280.4z M412,243.1l3.6,3.4l4.6-1.8l-2.1,4.5l3.2,3.8l-4.9-0.6l-2.7,4.2l-1-4.9l-4.8-1.2l4.3-2.4
			L412,243.1z"/>
		<polygon fill="#DE2910" points="412.8,251.7 413.8,256.6 416.4,252.4 421.3,253 418.2,249.2 420.3,244.7 415.7,246.5 412,243.1
			412.3,248.1 408,250.5 		"/>
		<polygon fill="#DE2910" points="419,297 418.9,297 419,297 		"/>
		<path fill="#DE2910" d="M418.5,296.6c0-0.2,0.1-0.4,0.1-0.6c-0.6-0.3-1.2-0.7-1.8-1.2c-4.6-3.3-8.2-8.6-9.9-14.9
			c-2.3-8.4-1-17.4,3.6-24.8l-1-0.6c-4.8,7.6-6.2,17-3.8,25.7c1.7,6.2,5,11.3,9.4,14.8c0.9,0.7,1.9,1.4,2.9,1.9
			C418.2,296.9,418.3,296.8,418.5,296.6z"/>
		<path fill="#FFFFFF" d="M431.4,280.2c-5.4,3.6-9.4,8.7-11.1,14c5.7-10,19.7-11.2,28.5-1.5c5.8,6.4,21.8,8,28.6-0.4
			c5.6-6.9,13.4-8.6,20.3-3.3l0.8-1.7l0-0.3c-0.5-1.4-1-2.7-1.5-4l-0.1-0.1l-1.2-0.3l0.7-0.8l0.1,0c-5.3-11-14.5-18.3-24.8-21.7
			l0.4,0.6l-1.9,1.6l-0.5,2.1l-0.9,0.5l0,1.5l-0.7,0.8l-1.5,0l-0.9,1.1l-1.5,0.5l-0.4,1l-0.7,0.3l-1.4,3.5l2,1.8l4.6-1.8l-2.1,4.5
			l3.2,3.8l-4.9-0.6l-2.7,4.2l-0.8-4.3l-2.9-0.5l-0.7-0.8l0-0.2l-1.3-0.3l1.1-0.6l0-0.1l-1,0l-0.5,0.6l-0.9,0l-0.7,1.3l-2.2,1.8
			l-0.7-0.3l1.9-2.1l0.5-3.1l0.7-1.3C446.2,274.2,438.1,275.8,431.4,280.2z"/>
		<path fill="#FFFFFF" d="M419.6,292.7c1.9-5.2,5.9-10,11.2-13.5c7.1-4.6,15.7-6.3,23.9-4.7l0.1-0.2l2.9-3.1l0.5-1.5l3.1-3.4l0.4,0
			l1.7-1.3l-0.5-1l0-2.6l0.9-0.5l0.5-1v-1.3C444.7,255.7,423.7,266.7,419.6,292.7z"/>
		<polygon fill="#DE2910" points="457.1,279.9 456.9,278.9 455.8,279.5 		"/>
		<polygon fill="#DE2910" points="464.2,281.5 469.2,282 466,278.2 468.1,273.7 463.5,275.5 461.5,273.7 461,274.9 461.5,275.4
			462.4,277.5 461,280.1 460.7,281.4 460.7,281.4 461.6,285.6 		"/>
		<path fill="#DE2910" d="M430.7,279.3c-5.3,3.5-9.2,8.3-11.2,13.5c-0.4,1.1-0.7,2.2-1,3.3c0,0.2-0.1,0.4-0.1,0.6c0,0,0,0,0,0
			l0.4,0.4l0.1,0l0,0l-0.1-0.5c0.3,0,0.5-0.1,0.8-0.1c0.1-0.7,0.3-1.4,0.5-2.1c1.7-5.4,5.7-10.5,11.1-14c6.7-4.4,14.8-6,22.6-4.6
			l0.6-1.1C446.4,272.9,437.8,274.6,430.7,279.3z"/>
		<path fill="#FFFFFF" d="M423.2,296.2c5.6,0.2,11.3,2.5,16.3,6.5c6.5,5.2,10.8,12.8,11.8,21l0.3-0.1l1.7-1.8l0-1l1.2-0.8l3.4,3.7
			l0.5,0l6.7,6.8l1.2-1.8l-2.2-2.9l-1.4,0l-1-1.6l-0.5,0l-7-7l0.7-0.3l1.9,2.1l0.7-1.3l0-1.5l-0.5-0.5l0.2-0.8h3.9l1.7,1.3l-0.3,3.4
			l-1.2-0.8l0-1.6l-0.7-0.3l-0.2,1.3l-1.5,1.6l0,1l1.7,1.8l0.5,0l1.4,1.6l1.9-1.1l0.5,1.1l0.5,0l3.1,3.4l0.2,0.8l0.5,0l0.3,0.3
			C466.4,308.9,449.5,292.1,423.2,296.2z"/>
		<path fill="#FFFFFF" d="M450.4,325.8c-0.6-8.6-4.8-16.7-11.6-22.2c-5.1-4-11.1-6.3-16.8-6.2c10.3,2.1,15.8,13.2,11.6,23.8l0.2,0.3
			l0.5-0.5l1.9,0l0.7,1.3l0,2.6l0.4,1l-1.4,1.1l0,1l0.5,0.5l1.7,8.1h4.4l1.4-2.1l0.5,0l0.1-0.2L443,334l4-2.3l0-1.1l0.2-0.4
			l-0.2-3.6l3.6,3.4l1.7-0.7V329l0.5-0.5v-2.1l-0.7-0.8l-0.5-0.1c0,0.1,0,0.1,0,0.2L450.4,325.8z"/>
		<path fill="#FFFFFF" d="M441.5,351.1c9,3.5,13.1,11.4,8.5,20.6c11.6-7.3,17.9-18,19.8-29.1l-0.5-0.6l0-1.1l-0.7-1.3h-5.3l-0.7-2.4
			l-0.7-0.8l-1-0.5l-1.4,0l-0.5-0.5l-0.5,0.5l-2.4,0l0.3,0.4l-1.1-0.1l-0.2,0.3l-1.9,0l-2.4,3.1h-0.5l0.3,0.8l-1.7,1.3h-1.5
			l-0.9-0.5l-1.5,1.6l-0.5-0.5l-0.5,0.5l-1,0l-0.5,0.5h-3.9l-0.5,0.5h-1.9l-1.4-1.5l-2.4-0.9C434.2,345.8,437.2,349.5,441.5,351.1z"
			/>
		<polygon fill="#DE2910" points="456,336.1 455.5,336.1 455.2,336.4 456.3,336.5 		"/>
		<polygon fill="#DE2910" points="447,326.6 447.2,330.2 447.7,329.3 451.6,331.4 452.3,330.6 452.3,329.3 450.6,330 		"/>
		<polygon fill="#DE2910" points="444.4,334.4 444.8,333.5 445.8,333.5 447,332.7 447,331.7 443,334 		"/>
		<path fill="#DE2910" d="M439.5,302.7c-5-4-10.7-6.2-16.3-6.5c-1.2,0-2.3,0-3.5,0.1c-0.3,0-0.5,0.1-0.8,0.1l0.1,0.5l0,0l0.5-0.2
			c0.1,0.2,0.2,0.5,0.3,0.7c0.7-0.1,1.4-0.1,2.1-0.1c5.6,0,11.7,2.2,16.8,6.2c6.8,5.4,11,13.5,11.6,22.2l1.2-0.1c0-0.1,0-0.1,0-0.2
			l-0.7-0.1l0-1.6l0.5-0.2C450.3,315.5,446,307.9,439.5,302.7z"/>
		<path fill="#FFFFFF" d="M421.3,339.1l-0.1,0.1l-4.3,0.5l-1.4,1.5l-1,0.6h-1.9l-3.4,1.5l-1.2,1.8l0,3.2l0.7,0.8l0.5,0l1.9,1.8
			C415.2,347.6,418.8,343.6,421.3,339.1z"/>
		<path fill="#FFFFFF" d="M375,340.2l0.7-1.3l0-0.5l-0.2-0.3H374c-0.1,0.7-0.3,1.4-0.5,2.1l0,0L375,340.2z"/>
		<path fill="#FFFFFF" d="M419.4,316.3L419.4,316.3l-1,1.6l-2.4,0.5l-0.2,1.3l0.7,1.3h1c0.5-1,1-2.1,1.4-3.1
			C419,317.3,419.2,316.8,419.4,316.3z"/>
		<path fill="#FFFFFF" d="M421.7,311.1l0.5,0.5l2.9,0c-0.8-3.5-2.1-7.2-4-10.8C421.9,304,422.2,307.5,421.7,311.1z"/>
		<path fill="#FFFFFF" d="M419.6,300c0.4,3.5-0.3,6.8-1.9,9.6l1.1,0l1.4-2.6l0.3,1.3l-1,2.1l1,0.7C421,307.1,420.7,303.3,419.6,300z
			"/>
		<polygon fill="#FFFFFF" points="404.8,340.8 404.6,341 404.6,342.6 405.3,343.4 406.3,343.4 407.5,342.6 407.5,341.5 406.8,340.8
					"/>
		<polygon fill="#FFFFFF" points="383.4,342.6 384.1,343.4 386.6,343.4 386.8,340.5 384.6,340.2 383.7,340.8 		"/>
		<path fill="#FFFFFF" d="M372.8,357.7l0.5-1v-1.6l-1.2-1.3l-3.9,1l-0.6,1.1c1.5,0.7,3.1,1.3,4.6,1.8L372.8,357.7z"/>
		<polygon fill="#FFFFFF" points="408,340.5 408,342.1 408.2,342.3 409.4,341 409.4,340.5 409.2,340.2 408.2,340.2 		"/>
		<path fill="#FFFFFF" d="M419,320.4l1.3-0.5l2.4,3.1l1,0l1.2-1.8l0-1l1.3-0.9c0-0.5-0.1-1-0.1-1.4l-0.5-0.5l-1.4,1.1l-1.5-0.1
			l-1-0.5l-0.9-1.5l-0.2,0c-0.2,0.6-0.4,1.3-0.7,1.9C419.7,319,419.3,319.7,419,320.4z"/>
		<path fill="#DE2910" d="M421,300.8c-0.3-1.1-0.7-2.2-1.2-3.3c-0.1-0.2-0.2-0.5-0.3-0.7L419,297l0,0l0.4,0.4
			c-0.2,0.2-0.4,0.4-0.6,0.6c0.3,0.6,0.6,1.3,0.8,2c1.1,3.3,1.4,7.1,1,11l0.2,0.1l1,0l0,0C422.2,307.5,421.9,304,421,300.8z"/>
		<path fill="#DE2910" d="M418.8,317.8c-0.4,1.1-0.9,2.1-1.4,3.1h0.9l0.5-0.5l0.2-0.1c0.3-0.7,0.6-1.4,0.9-2.2
			c0.2-0.6,0.5-1.3,0.7-1.9l-1.2,0C419.2,316.8,419,317.3,418.8,317.8z"/>
		<path fill="#FFFFFF" d="M416.1,300.1c-1.2,0.8-2.4,1.5-3.8,2v0.3l-0.5,0l-0.1-0.1c-0.4,0.2-0.8,0.3-1.2,0.5l0.8,1.4
			C412.9,303,414.5,301.6,416.1,300.1z"/>
		<path fill="#FFFFFF" d="M399.1,304.4c-3.2-0.2-6.3-0.8-9.3-1.8l0.1,1.7l2,0l1.2,0.8l-1,1.6l0,1l0.2,0.3l1,0l0.5-0.5l0.3,0.2
			l-1,2.1l0,1l-1,1.6v0.3c3.7-0.5,7.4-1.6,11.1-3.3l0-0.6l1-2l1-1.6l-0.4-0.9C402.9,304.5,401,304.5,399.1,304.4z"/>
		<path fill="#FFFFFF" d="M412.8,299.6l0,0.2l-0.5,0.5v0.4c1.5-0.7,2.8-1.5,4.1-2.4C415.2,299,414,299.4,412.8,299.6z"/>
		<path fill="#FFFFFF" d="M405.1,303l0-2l-1.7-2.3c0,0-0.1,0-0.1-0.1l-1.6,0.2l0.4-0.8c-2.3-1.2-4.3-2.9-5.9-5.1l-0.5,0.5h-5.8
			l-1.4,1l-1.4,0l-1.2,1.3l0,0.5l0.7,0.8l0.7,0.3l-0.5,0.5l0,1.6l0.7,0.8h1.5l0.7,0.8l0,0.4c3,1.1,6.2,1.8,9.5,1.9
			C401.2,303.4,403.2,303.3,405.1,303z"/>
		<polygon fill="#FFFFFF" points="374,305.4 375,305.9 375.5,305.4 376.5,305.3 377.7,304.6 377.6,302.5 376.7,300.9 376.7,299.9
			377.6,299.3 378.4,297 374.5,297.5 373.5,297 372.8,297.8 373.3,299.9 371.4,301.5 371.4,302 373.3,302.5 373.3,303.5
			372.8,304.1 		"/>
		<path fill="#FFFFFF" d="M407.3,299.8l-0.3,0.6l0.5,1.1l0.7,0.8l0.3,0c0.3-0.1,0.6-0.2,0.8-0.3l0.8-1.3l1.2-0.8l0,0
			C410,300,408.7,300,407.3,299.8z"/>
		<polygon fill="#FFFFFF" points="375.7,306.1 375.7,307.2 376.4,308 377.4,307.9 377.6,307.7 377.7,306.6 376.9,305.9 376,305.9
			"/>
		<path fill="#FFFFFF" d="M369,266.4c-9.4,2.5-17.3-1.5-19-11.7c-6.6,16.4-2.7,32.3,6.5,43.4l1.6,0l0.5-0.6h1.9l1.4-1l1,0l3.4-2.1
			l2.9,0l0.5-0.5l1,0l3.9-3.1l1,0l2.9,1.5l0.5,0.5l2.9-0.5l1-1.6l1-0.5l2.9,0l0.5-1.1l2.9,1.6l1.4,0l0.5-0.5l2.7,0
			c-1.1-2.2-1.9-4.6-2.2-7.4C391.5,274.3,379.5,263.6,369,266.4z M374,288.9l-2.7,4.2l-1-4.9l-4.8-1.2l4.3-2.4l-0.3-5l3.6,3.4
			l4.6-1.8l-2.1,4.5l3.2,3.8L374,288.9z"/>
		<path fill="#FFFFFF" d="M374.3,309.8l-0.9-1.6l-0.5-2.1l-1.2-1.3h-0.5l-1-1.6l-1.9-0.5l-0.5-0.5h-1.4l-0.7,3.9l-0.1,0
			c2.6,1.7,5.3,3.2,8.2,4.3L374.3,309.8z"/>
		<path fill="#FFFFFF" d="M411.1,301.2l-0.1,0.2c0.1,0,0.1-0.1,0.2-0.1L411.1,301.2z"/>
		<polygon fill="#DE2910" points="377.9,281.2 373.3,283 369.6,279.6 369.9,284.6 365.6,287 370.4,288.2 371.4,293.1 374,288.9
			379,289.5 375.8,285.7 		"/>
		<path fill="#DE2910" d="M418.8,298c0.2-0.2,0.4-0.4,0.6-0.6L419,297l0,0l-0.1-0.1l-0.4-0.4c0,0,0,0,0,0c-0.2,0.2-0.3,0.3-0.5,0.5
			c-0.5,0.5-1.1,0.9-1.7,1.4c-1.2,0.9-2.6,1.7-4.1,2.4v1.3c1.3-0.6,2.6-1.3,3.8-2C417,299.5,417.9,298.8,418.8,298z"/>
		<path fill="#DE2910" d="M399.1,304.4c1.9,0.1,3.8,0,5.6-0.2l-0.1-0.2l0.5-1l0,0c-1.9,0.3-3.9,0.4-6,0.3c-3.3-0.2-6.4-0.8-9.5-1.9
			l0.1,1.3C392.7,303.7,395.9,304.3,399.1,304.4z"/>
		<path fill="#DE2910" d="M409.2,302.2l0.2-0.3c-0.3,0.1-0.6,0.2-0.8,0.3L409.2,302.2z"/>
		<path fill="#DE2910" d="M411.2,301.3c-0.1,0-0.1,0.1-0.2,0.1l-0.6,1.1l0.2,0.4c0.4-0.1,0.8-0.3,1.2-0.5L411.2,301.3z"/>
	</g>
	<path fill="none" stroke="#999999" stroke-width="0.25" stroke-linecap="round" stroke-linejoin="round" d="M404.6,341l0,1.6
		l0.7,0.8l1,0l1.2-0.8l0-1.1l-0.7-0.8l-1.9,0L404.6,341z M375.5,338.2H374l-0.7,0.8l0,1.1l0.2,0.2l1.5,0l0.7-1.3l0-0.5L375.5,338.2z
		 M368.2,354.8l-0.7,1.3l0,1.5l1.7,1.9l1,0l0.9-1.6l1.7-0.3l0.5-1v-1.6l-1.2-1.3L368.2,354.8z M367,361.9l0-2.6l-1.7-1.3l-3.3,0
		l-0.5-0.5h-1.9l-0.5,0.5l-2.4,0l-1.2,1.3l0,1l1.2,0.8h1.9l2.2,1.8l0.2,1.3l1,0l0.5-0.5l0.3,0.3l1,3.6l1.7,1.8l1.5,0l0.7-0.8
		l0.5-3.7l-1.4-1.5L367,361.9z M376,305.9l-0.2,0.2l0,1l0.7,0.8l1,0l0.2-0.3l0-1l-0.8-0.8L376,305.9z M403.4,295.5l0.3-0.3l0-1.5
		l-1.2-1.3l-0.9,0l-0.2,0.3v1.5l1.2,1.3L403.4,295.5z M403.1,313.4l0-4.7l1-2l1-1.6l-0.5-1.1l0.5-1l0-2.1l-1.7-2.3l-1.7,0.2l0.5-1
		v-1.5l-1.9-1.6l0-1l-0.7-0.8h-3.3l-0.5,0.5h-5.8l-1.4,1l-1.4,0l-1.2,1.3l0,0.5l0.7,0.8l0.7,0.3l-0.5,0.5l0,1.6l0.7,0.8h1.5l0.7,0.8
		l0.2,3.4l2,0l1.2,0.8l-1,1.6l0,1l0.2,0.3l1,0l0.5-0.5l0.3,0.2l-1,2.1l0,1l-1,1.6v1.6l0.5,1l2.7,0.8l0.5-0.5h1.9l0.5-0.5h3.8
		L403.1,313.4z M383.7,340.8l-0.2,1.8l0.7,0.8l2.4,0l0.2-2.9l-2.2-0.2L383.7,340.8z M378.4,297l-3.9,0.5l-1-0.5l-0.7,0.8l0.5,2.1
		l-1.9,1.6v0.5l1.9,0.5l0,1l-0.5,0.6l1.2,1.3l0.9,0.5l0.5-0.5l1,0l1.2-0.8l0-2.1l-0.9-1.6l0-1l1-0.6L378.4,297z M362.9,389.2l-2.9,0
		l-1.7-1.8l-0.5-1l0.2-0.8l3.6-1.3l-0.7-1.3l-0.7-0.2l1-1.1l0-1.5l-1.2-0.3l-0.5,0.5h-2.9l-1.2,2.3l0.5,0.5l0,1l-1.9,2.1l0,1
		l1.2,0.3l0.9-0.5l0.7,0.8l0.5,1.6l-0.5,0.5v1l-0.7,0.8l-0.9-0.5l-1.5,0.5l-0.9,2.1l-0.5-0.5l-0.9,0l-0.2,2.9l1.2,0.3l0.5,1l1,0
		l0.4-0.5l1,0l1.5-1.6h0.5l0.5-1.1l1.4-1h1.5l1,1.6l0.4,0l0.3-1.3l1.9-1.5l0-1.1l0.5-0.5L362.9,389.2z M351.6,376.9l1-1.1l-0.7-1.3
		l-0.5,0.5h-1.4l-1-1l-1.5,0l-0.9-1.5l-1,0l-1,1l-1,0l-0.9-1.6h-1.5l-0.5,0.5l-2.5-2l-1.4,0.5l-0.7-1.3l2.4-1.6v-0.5l2.2-2.4
		l0.5-0.5l2.4,0l0.9-1l1,0l1-1.1l1.2-0.3l0-1l-2.4-2.6l-0.5-1.6l-1.2-1.3l-1,0l-0.5-0.5l-1,0l-0.5,1l-1-1.5l-2,0l-0.5,0.5l-0.7-0.3
		l0.3-0.8l1.2-0.8l0.5-1.6l0.7-0.8l1,0l0.5-0.7l2.4-0.4l1.9,1.6l0.9,0l0.7,0.8v0.5l1.2,0.8l5.3,0l0.7-1.3l0-2l-1.5-0.6l1-1.1v-2.1
		l0.9-0.5l0-1l-0.5-0.5l0-3.1l-1.9-0.5l0-1l0.5-0.5l0-2.1l-0.5-0.5l0.7-0.8l0.4,1l1.5-1l1,0l0.2-2.4l-0.7-1.3l-1,0l-1.9,2.1
		l-3.1-0.8l0.3-1.3l2.4,0l0.7-0.8l-0.7-1.3l-2.7-0.8l1-1.6l0-1l0.7-0.8l4.8,0l2.4-1.5l1.4,2.1l1.9,0l0.7-0.8v-1.6l-0.5-0.5l0-3.1
		l-1.4-2.6l0.3-1.8h1.9l1-0.5l1.2,2.3l-0.5,0.5l1.4,2.6l1.2,0.2l0.5,0.5l1-1l2.9-0.5l0.5-1.1l1,0.5l0.8-0.2l0-1.1l-0.9-1l0.5-0.5
		l0-1.5l1-1.1l-0.2-1.3l-0.8-0.3l0-1.6l1.4-1.5l-0.9-1.6l-0.5-2.1l-1.2-1.3h-0.5l-1-1.6l-1.9-0.5l-0.5-0.5h-1.4l-0.7,3.9l-1.2,0.2
		l-0.7,0.8l-0.7,1.3l-2.9,1.1l-1.4,2.6l-1.5-0.1l-1.2,1.3l-0.2,1.3l-1.5,0.5l-0.4,1.1l-0.8-0.3l1.5-3.1l-0.7-1.3l-1.9-0.5l-2.4,2.6
		l-1,0l-1.7,1.3l0,1l-1.2,1.3l-1.5,0l-1.4,1.6l-1.5,0l-0.5,1l-0.6,1.1l-0.5-0.6l-1.2,0.3l0,2.6l-0.7,1.3l-0.5,0l-0.7,0.8v1.6
		l-0.7,0.8l-2.4,0l-0.5,0.5l-1.9,0l-3.6,3.4v3.6l-0.7,0.8l-0.2-0.8l-1.2-0.8h-2.4l-0.5,0.5l-4.3,0l-0.5,0.5l-2.9,0l-1.9,2.1
		l-2.9,1.6l-1.4,0.5l-2,1.5l-4.3,0l-0.2,1.3l-1,0.5l-0.5,1.1v1.5l-0.3,0.3l-0.9-0.5l-1,0.5l-0.7-0.8l0-1l-1.4-1.6l-0.5-2.1l-0.7-0.8
		l-0.5,0l-1.4-1.1h-5.3l-1,0.5l-1.9-1l-1,0l-1.5,1.6l-0.5-0.5l-1,0l-1-1.6l-0.7,1.3l-1,1.6l0,1.5l-1,2.6l-1.2,1.3l-0.5,0l-2.2,2.9
		l0,1.6l1,1.6l-0.2,0.7l-1.5,0l-0.2-1.3l-1.2-0.8l-1,1.1l-2.4,1l-3.4,0.5l-2.7,4.5l-0.7,0.8l-1,0l-0.4-0.5l-2.4,0l-1.4,1l-1,0
		l-1.2,1.8l0,1l0.7,0.8l4.4-0.5l0.7,0.8l-0.5,1v1.6l-1.7,1.8l-1.5,0l-2.2,1.9l0,3.1l0.5,0.5l0,2.6l-0.7,0.8l-1,0l-2.4-2.1l-1.4,0
		l-0.7,1.3l0,1l-1.5,2.1l0.5,1l-0.5,4.2l2.4,2.6l-0.5,1.6l-0.5,0.5v2.1l0.5,1l1.2,1.3l1,0l1.2,0.8l-1,2.6l-0.9,1.1l0.3,1.8l1.9-1.1
		l2.4,0.5l1.2-0.8l-0.9-1.6l2.6-1.8l1,0l1.4-1l1,1.5l1.4,0l1.2-1.3v-0.5l1.4-1.1l0-0.5l2.2-1.8l2.6-0.3l-0.5-2.1l0.7-0.2l1.7-1.8
		l0-0.5l1.7-1.8l1,0l0.5,0.5h1.9l0.4-1.6l0.5,0.6l2.6,0.3l-0.5,1l0.5,2.6l0.7,0.8l1,0l1,1.6l1.4,0.5l2.9,2.6l1.5,0l1.9-2.6l1.4,1
		l1.9,1.5l1.9-1l1.5,0l2.2-1.8l0-2.6l-1.2-1.8l-5.3,0.5l-0.7-0.8l1.2-0.8l1.7-1.8l0.3-0.8l3.8,0.1l1.9-1.1l1.9-1l1,0l4.3-2.6l1,0
		l1-1l2.9,0l1,1l1.4,0l0.5-0.5l3.4-2.1l1,0l2.9-2.1l5.1,0.3v2.1l-1.5,1.6l0,1.5l-0.5,0.5l0.7,1.3h0.5l1.2,1.3l0,0.5l1,0.5v1
		l-1.4,1.6l-0.4,1.6l0.7,0.8h1.5l0.2,0.8l1.2,1.3l1,0l1-1.6l2.4,0l1-1.6h1.9l0.3,1.3l1.2,0.8l0.5-1.1l0.5-0.5h1.9l0.7-0.8l0-1.1
		l1.2-0.8h1.5l0.2-1.3l1.7-1.8l2.4-0.5l0.7-1.3L351.6,376.9z M295.9,408l-1,0l-0.2,0.2l0,1l1.2,1.3l1.2-0.8l0-1l-0.7-0.2L295.9,408z
		 M306.7,323.4l0-1l1.4-1l0-2.1l-0.7-0.3l-3.8,4.7l-0.7-0.8l0-1l-1.2-0.8l-3.4,3.1l-1.7,0.8v3.6l0.5,0.5l0,1l0.5,1.1l0.9,1l0,0.5
		l1,1v2.1l1,1.1L300,338l0.2,1.8h1.4l1.7-1.3l-0.9-2.1l0.9-1v-2.1l0.7-1.3l0.7-0.2v-4.2l0.5-0.5l0-2.6l0.8-0.3L306.7,323.4z
		 M334.7,396.3l-1.2-1.8l-2.4,0l-2.2,3.4l0,2.6l1.2,0.8l1,0l1.5,1.6l1.4,0l0.5-0.5l1.7-0.3l0.5-3.1l-1.9-0.5V396.3z M367.1,338.4
		l0-1l-0.7-0.8h-1.9l-1,1l-1.4,0l-1.2,0.8l1,1.6l0.5,3.1l0.7,1.3l1,0l0.5,0.5l1.9,0l1.7-1.3v-2.1l-0.7-1.3h-1.9l-0.5,0.5l-0.7-0.2
		l1.2-1.3L367.1,338.4z M321.2,315.5l0.5-1.5l-0.7-0.8l-1.4-0.5l-0.7,0.8l0,2.1l0.7,0.8h0.5L321.2,315.5z M333,294.5l0.7-0.8
		l-0.7-0.8h-0.5l-0.3,0.2l0,1l0.3,0.3H333z M329.6,308.5l-1.7,1.3l-0.5,2.6l1.2,0.2l1.2-1.3L329.6,308.5z M287,334.8l-0.2-2.9
		l-1.5,0l-0.2,1.3l0.9,1l0.3,0.8L287,334.8z M409.4,341v-0.5l-0.3-0.3l-1,0l-0.2,0.3l0,1.5l0.3,0.3L409.4,341z M418.8,320.5l1.4-0.5
		l2.4,3.1l1,0l1.2-1.8l0-1l1.4-1.1l0-1l-0.7-0.8l-1.4,1.1l-1.5-0.1l-1-0.5l-0.9-1.5l-1.5-0.1l-1,1.6l-2.4,0.5l-0.2,1.3l0.7,1.3h1.9
		L418.8,320.5z M491.6,375.6l-2.7,0.2l1.2,1.3l1,0l0.7-0.8L491.6,375.6z M498.6,414.4l-0.5-0.5l1-2.1l-1-1.6l0-1l-0.7-0.8l-1,0
		l-1.9-2.1l-1.7,1.3l-0.7,1.3l-1.5-0.1l-2.6,1.8l-2.4,4.2l0,2.1l0.7,0.8l0.5-0.5l0.2,0.3l0.2,1.8l2.2,0.7l0,0.5l-0.9,1.1l0.2,1.8
		l1.4-0.5l2.1-1.8l0-1.5l1.7-1.9l0.7,0.3l0.3,0.8h4.4l0.2-1.8l-0.5-0.5L498.6,414.4z M487.2,407.9l2.2-1.8v-4.1l-0.7-0.8l-6.2,0.6
		l-1.2,0.8v1l0.5,0.5l0,3.1l0.7,1.9l1.2-0.8l0.3-1.3l1.9,1L487.2,407.9z M478.1,409.5h-0.5l-0.3,0.3l0,1l0.2,0.2l0.5,0l0.2-0.3l0-1
		L478.1,409.5z M489.2,378.2l-0.2,0.8l0.3,0.2h1.9l0.2-0.8l-0.3-0.3H489.2z M485.8,418.9l-0.5,0.5l-0.4,0l-0.3,0.3l0,0.5l0.3,0.3
		l1.4,0l0.2-0.3l0-1l-0.2-0.2L485.8,418.9z M432.8,388.1l-2.4,0l-0.4,0.5l-0.7-0.8l-0.2-1.3l-1,0l-1,1.1l-1,0l-1.4,1.6h-1.9l-1-0.5
		l-0.5,0.5h-1.9l-0.5,0.6l-1,0l-1.2,1.3l-0.7,1.8l-1.7-2.3l0.2-1.3h0.5l1.2-1.3l0.2-0.8l1,0l2.7-1.3l0.5-1.1l-0.5-0.5v-2.1l-1.2-1.3
		l-1.9,1.1l-1,1.5l-1.4-1l-0.7-1.3l0-2.6l-0.7-0.8l-1,0l-0.2-0.7l-1.4-1.1l0.5-0.5l0-1l0.9-1l0-2.6l-0.7-0.8l-1,0l-0.5-1l-1,0
		l-1.4,2.1l-2.4,0.5l-1.4,1l-1,0l-0.7,0.8v1.1l1.7,1.3l1.2,0.3l-1,1l0,1l1.5,1l-2.2,0.3l-1.7,1.3l-0.4,1l0,2.1l0.3,0.3l0.5-0.6
		l2.9,0l0.5-0.5l2.9-0.5l1.9,1l0.7,0.8l0,3.1l0.5,0.5l-0.9,2.1l1.5,2.1l-0.5,0.5l0,3.7l-0.5,0.5l0,3.2l-1.7,1.8l-1.4,0.5l-0.7,0.8
		l0.4,3.1l2.2,1.8h2.4l0.5-0.5l1.4,1.1h1.4l1-1.6h0.5l1-1l2.4,3.1l1,0l-0.2-3.4l-1.5-2.6l0-2.1l1,0l1.2,1.8l1.9,1l0.9,1.6l1.9,0.5
		l0.5,1l1,0l0.2-1.3l-1.5-1.6l0-1l-1.9-2.6l-0.5-2.6l-0.7-0.8l-1.2-0.2l0.2-0.8l1,0l1.5-1l0.5,0.5l1.2-0.3l0.4-2.1l1.5-1l0.2-0.8
		h0.5l1.4,1.6h1.5l1.5-2.1l0.7-0.2l-0.3-1.9L432.8,388.1z M490.6,391.3l-0.2,0.3v0.5l0.7,0.8h0.4l0.3-0.3l0-1l-0.3-0.2L490.6,391.3z
		 M422.9,367.6l0-0.5l-0.3-0.2l-1,0l-0.5,0.6l-0.7,0.2v0.5l0.2,0.2h1.5L422.9,367.6z M432.8,366.3l-1.4,0l-0.5,0.5h-1.4l-1.9-1l-1,0
		l-2.2,1.8l0.7,0.8h0.5l0.7,0.8l0.7,1.3l1,0.5h1.4l0.2,1.3l0.8,0.8l0.9,0.5l2.4,0l0.2-1.8l-0.5-0.5l0-4.1L432.8,366.3z M419.5,380.1
		v-1.6l-0.3-0.2h-0.4l-1.2,1.3v0.5l0.3,0.2l1.4,0L419.5,380.1z M469.4,389.7l-0.7,0.8l0.8,0.8l1,0l0.2-0.3l0-1l-0.2-0.2L469.4,389.7
		z M434.5,374.3l-0.3-0.3l-1.4,0l-0.2,0.8l0.9,1.1l0,0.5l0.8,0.8h0.5l0.3-1.8l-0.5-0.5V374.3z M450.9,379.6v0.5l0.2,0.2h0.5l0.7-0.8
		l-0.7-0.8L450.9,379.6z M447.7,372.5l-0.5-0.5l-1,0l-0.7,0.8l1.7,2.3h1.5l1.7-1.3l-0.7-1.3H447.7z M448.2,384l-0.5-0.5l-0.5,0
		l-0.2,0.2v2.1l0.7,0.8l0.5,0l0.5-0.5l1,0l0.2-1.3l-0.7-0.8L448.2,384z M482.4,390.7l3.4,0l0.5-0.5l0.5,0.5h2l0.5-0.5l0.5,0.5l1.4,0
		l0.5-0.5l0.7-0.3l-0.2-0.8h-0.5l-1.4-1.5l-1.7-0.3l0.5-0.5l-0.5-0.5v-4.1l-1.9-3.1v-1.6l2.9,0l-1.7-2.4l-1.2-0.3l1-1v-2.1l-1.4-1.5
		l0-1l-1-1l0-0.5l-1-0.5l0-0.5l1.2-0.2l0.7-0.8l0.2-1.3l0.5,0.5l1,0l0.7-0.8l0.5-3.1l0.5-0.5l-0.5-1.1v-2.1l0.5-0.5l0-1l-1.2-1.8
		h-1.9l-0.9,1.1h-0.5l-1.4-3.7l-0.5,0l-2.4,2.1l-1,0l-0.2-0.7l0.9-0.6v-4.2l-1.2-0.3l-1.2-1.3l0.7-0.3l0.7-1.3l-2.7-3.4l-1,0
		l-0.5,1.1l-1.5,0l-0.9,2.6l-1.4-0.5l-2.2-2.3l0-1.1l-0.7-1.3h-5.3l-0.7-2.4l-0.7-0.8l-1-0.5l-1.4,0l-0.5-0.5l-0.5,0.5l-2.9,0
		l-0.5,0.6l-1.9,0l-2.4,3.1h-0.5l0.3,0.8l-1.7,1.3h-1.5l-0.9-0.5l-1.5,1.6l-0.5-0.5l-0.5,0.5l-1,0l-0.4,0.5h-3.9l-0.5,0.5h-1.9
		l-1.4-1.5l-2.9-1.1l-2.4-2.1H428l-0.4-0.5h-5.8l-0.5,0.5l-4.3,0.5l-1.4,1.5l-1,0.6h-1.9l-3.4,1.5l-1.2,1.8l0,3.2l0.7,0.8l0.5,0
		l3.1,2.9l1,2.1l0,1l1.2,1.3l1,0l0.5-1l0.7,1.3l0.5,1l-0.5,3.7l0.5,1l1.9,1.6l0.2,0.8l2-1l1.4,1l1,0l0.5,0.5l6.3,0l0.5,0.5l2.4,0
		l0.9,1.1l1.4,0l0.3,0.3l-0.5,0.5l0,1l1,0.5l0,0.5l-1.2,0.8l-0.2,0.8l2.4,1.6l-0.5,0.5l0,1l0.7,0.8l0.5,0l1.9,1.6l1,0l0.7-1.3
		l0.5-4.2l0.5-1l0.9-0.5l1.2-2.3h3.9l0.2,0.8l-0.5,0.5v2.1l1.2,1.3l0.5,0l1,1.1l1.4-1h1.5l0.7,0.8l0.5,1v1.6l-0.9,1l0,1l0.5,0.5
		l-0.7,1.3l-1.2,0.3l0.2,1.3l3.6,1.3l0.5,1.6l-1.2,0.2l-1.7,1.8l0,1l0.5,0.5l0.2,1.8l2-0.5l1.9-1.6l1.4,0l0.2-1.8l1.7-1.3l1,0
		l0.7,0.8l0.5,1v1.6l-1,0.5l-0.5,1v3.7l-0.5,0.5l0,1.5l0.5,0.5v2.1l0.7,1.3l3.3,0l0.5-0.5h1.9l0.7-0.8v-2.1l-0.5-0.5l-0.5-2.1
		l-0.9-1.1l0-1l-0.9-1l2.9-2.6l-0.5-0.5l-0.7-1.3l-1.9-1l-1.7-1.8l0-1.6l2.4-2.6l0.2-0.8l1,0l1.5-2.1l1.4,1.6l1.4,0l0.7-0.8l-0.5-1
		v-2.1l-1.2-1.8l-1.7-0.8l-0.5-3.6l0.3-0.3l0.7,0.8l0,1.1l0.7,1.3l2-0.5l1.9,1.6l0.5-0.5l0.2,0.2l-0.5,2.1l1,2.1l0,1l0.5,0.5v3.6
		l-0.5,0.5l0.5,0.5l0,1l1,0.5l0,1l1.7,0.3l0.7,0.8l0.5,2.6l-1,1.5l0.7,1.8l1,0L482.4,390.7z M514.7,198.5l0.3-0.3l0-0.5l-0.3-0.3
		l-1,0l-0.2,0.2l0,0.5l0.2,0.3L514.7,198.5z M510.8,196.9l-0.7,0.8l0,0.5l0.3,0.2l0.7-0.8v-0.5L510.8,196.9z M515.7,205.8l-0.2,0.2
		v0.5l0.2,0.2l1,0l0.2-0.2l0-0.5l-0.2-0.2L515.7,205.8z M518,201.6l0.5,1.1l1,0l1.4-2.1l1,0l1.9-1l0.2-0.7l1.9-2.1l0-1.1l-2.2-0.2
		l-0.3-2.4l-3.6-2.3l-1,0l-0.7,1.3l1,0.5l0,3.1l-1,1v0.5l-2.4,2.1l-0.2,0.7l-1-1l-2.9,0l-0.5-0.5l-0.7,0.8l0,1l1.4,1l-0.5,1.6
		l1.2,1.3l1-0.6h1.9l1.4-2.1L518,201.6z M519.7,181l-2.7-0.3l-0.7,1.3l0,1.1l0.7,0.7l1,0l0.9-0.5L519.7,181z M508.4,200.1l-0.2,0.2
		v0.5l0.2,0.3l0.5,0l0.3-0.3l0-0.5l-0.2-0.3L508.4,200.1z M507.5,186.5l-1,0l-0.2,0.2l0.7,0.8l0.7-0.8L507.5,186.5z M521.2,181.5
		l0-1l-0.3-0.2h-0.5l-0.2,0.3l0,1l0.3,0.2l0.5,0L521.2,181.5z M509.4,186l0.5-0.5l0.5,0.5l1,0l1.9-1.6l0.5,0l0.7,0.8l-1.4,1l0.2,0.8
		l2.4,0l1,0.5l0.7-1.3v-1.5l-0.7-0.8l-1.5,0l-1.4-1.6h-0.5l-0.7-0.8V180l-1.2-0.2l-0.7-0.8l0-1l0.7-0.8h2.4l1.9,2.1l1,0l2.4-2.1
		l2.4,0.5l0.5-1.1l1,0l0.7-0.8l-0.7-0.8l-1,0.6l-0.5-0.5h-3.9l-0.5-0.5l-0.5,0.5l-3.4,0l-0.5-0.5l-0.5,0.5l-0.5-0.5l-1.4,0l-0.5-2.1
		l-2.4,0l-0.2,2.9l0.7,0.2l0.7,1.3l-2.4,0v1.6l1.2,1.3l1.9,1.1l0.7,1.8l-0.7,0.2l-0.5-1l-1.9,0.5l-0.7,0.8l0,1l-0.9,1.1l0.7,0.8
		L509.4,186z M556.1,218.8l0.2-0.2l0-1l-1.2-0.8l-1,0l-0.2,0.8l1.2,1.3L556.1,218.8z M569.1,240.2l0.7-0.8l0-0.5l-0.2-0.2l-1,0
		l-0.7,0.8l0.7,0.8L569.1,240.2z M505.1,193.8l-0.2,0.8l0.7,1.3l0.5-0.5l0.9,0l0.7-0.8l-1.2-0.8L505.1,193.8z M572.3,249.4l0.2,0.2
		l1,0l0.3-0.3l0-0.5l-0.3-0.2l-1,0l-0.2,0.3L572.3,249.4z M573.5,248l0.2-0.3l0-1l-0.3-0.3l-0.5,0l-0.2,0.2l0,1l0.3,0.3L573.5,248z
		 M523.4,188.6l-0.5,0l-1.2-1.3l-0.7-1.9l-1.9-0.5l-0.7,3.4l1.2,1.3l4.4,2.1l0.9,1.1l1.4,0l0.2-2.3l-0.5-0.5v-2.1l1-1l0-1.6
		l-0.9-0.5l-0.3-1.3l-0.9,0l-0.7,0.8v2.1l0.5,0.5L523.4,188.6z M532.5,182.3l0.2-0.3l0-0.5l-0.7-1.3l-1.5,0l-0.2,0.8l0.7,1.3
		L532.5,182.3z M546.3,208.1l0,1l0.7,0.8l0.5-0.6l1.4,0l0.2-2.4l1.9-2.1v-0.5l-1.2-0.3l-0.5-0.5l-2.4,0.5l-0.7,0.8l0,1l-0.9,0.5l0,1
		L546.3,208.1z M545.5,219.9l0.7,0.8l0,1.6l0.5,0.5v2.1l1.4,0l-0.9,1.5v1.6l0.5,1.1l1.7,0.2l1.7-1.8v-2.1l1.4-1l0-1l0.5-0.6
		l-0.5-1.5l-0.8-0.3l-1.2-0.8l0-1l1-1.1l0-1l-0.7-0.8l-1,0l-1-1l-1.9,0.5l-1.4,2.1l-1.2,0.8l0.7,1.3H545.5z M494.2,182.6l0,0.5
		l0.7,0.8l0.5,0l0.2-0.3l0-1l-0.2-0.3l-1,0L494.2,182.6z M503.1,187.5l0.2-0.3l-0.5-0.5l0-0.5l-0.3-0.3h-0.5l-0.2,0.3l0,1l0.3,0.3
		L503.1,187.5z M273.1,301.5l0.7,0.8l1,0l0.7-1.3l0-1l-0.2-0.3l-1,0l-1.2,1.3V301.5z M245.8,384.6l-1.5,0l-0.2,1.3l0.5,0.5l0.2,0.8
		l1,0l0.8-0.8l0-1L245.8,384.6z M274.5,305.1l1,1.1l0,1l1.3,0.2l0-3.1h-2L274.5,305.1z M271.1,285.9l-0.5,4.2l1.7,0.2l0.7-1.3
		l-0.5-2l0.9-2.1l-0.5-1.5l-1.2-0.8l-2.9,0l-0.8,1.8l1.7,0.3L271.1,285.9z M287.7,414.7l-0.7,0.8l0.5,2.1l-1.2,0.3l-0.9,1l-0.5-0.5
		l-1.5,0l-1.9,1l-0.3,2.3l1.2,1.3l1,0l0.5,0.5l1.4-1.5h1.9l0.5,0.5l0.9-1.1l1,0.5l1.2-1.3l0-1l-1.4-1.6l0.7-0.8h1.4l0.2-1.3
		l-1.7-1.3L287.7,414.7z M285.6,412.9v-0.5l-0.7-0.8l-1,0l-0.2,0.3v0.5l0.7,0.8l1,0L285.6,412.9z M291.6,405.9h-2.4l-1-0.6l-1.4-2.1
		h-1.5l-0.7,1.3l0,1.5l0.5,0.6l-0.5,2.1l0.7,0.8l1,0l0.7-0.8l0.2-1.3l1,0l0.7,0.8l0,1.6l2.2,0.8l0.5-1.5l1.7-0.3l0-1.5l-1.3-0.3
		L291.6,405.9z M281.9,414.7l1.7-1.3l-0.7-1.3l-1.9,0.5l-0.7,0.8l1.2,1.3L281.9,414.7z M480.5,176.1l0.5,0l0.2-0.2v-0.5L481,175
		h-0.5l-0.3,0.3l0,0.5L480.5,176.1z M498.3,186l-0.5,0l-0.2,0.2v0.5l0.3,0.2h0.5l0.3-0.3l0-0.5L498.3,186z M497.1,184.2l0,0.5
		l0.7,0.8l0.7-0.8v-0.5l-0.2-0.3l-1,0L497.1,184.2z M500.7,187l0.2-0.8l-1.2-1.3h-0.5l-0.2,0.3l0,1.5l0.3,0.3H500.7z M497.6,175.8
		v-0.5l-1.7-1.8l-0.4,0l-0.5-0.5l-0.3,1.3l1.7,1.8L497.6,175.8z M294.9,423l-0.5,0.5l-0.5,0l-0.2,0.3l0,1l0.3,0.3h1.4l0.3-0.3v-1.6
		l-0.3-0.3L294.9,423z M492.5,175.6l0.2-0.3l0-1l-0.3-0.3l-1.4,0l-0.2,0.3l0,1l0.3,0.3L492.5,175.6z M493.5,181.8l0.5,0l0.5-0.5
		l0.5,0l0.2-0.2l-0.5-0.5l0-0.5l-0.3-0.2H494l-0.7,0.8l0,1L493.5,181.8z M490.1,178.2l-0.2,0.2l0.7,0.8l1,0l0.7-0.8l0-0.5l-0.7-0.3
		l-0.5,0.6L490.1,178.2z M524.8,330.9l-0.2,0.3l0,1l0.3,0.3l0.5,0l0.5-0.5h0.5l0.2-0.3l0-0.5l-0.3-0.2L524.8,330.9z M554.4,325.9
		l0-3.6l-1.2-2.3l-1.9-1l-1.5,0l-0.7,0.8v2.6l3.1,6l1.2-0.3l0-2.1L554.4,325.9z M552.7,352.2h-0.4l-0.3,0.3l0,0.5l0.2,0.2l0.5,0
		l0.2-0.2l0-0.5L552.7,352.2z M554.9,303.5l-0.3-0.3h-0.5l-0.2,0.3v0.5l-0.5,0.5l0.2,0.3h0.5l0.7-0.8L554.9,303.5z M554,353l0,1.1
		l0.2,0.2l0.5,0l0.2-0.2l0-0.5l-0.8-0.8L554,353z M548.7,313.4l2.2,0.3l1,1l0.7-0.3l0.5-2.1l-0.5-1l1-1.6l0-1l-0.7-1.3l-1.4,0
		l-0.9,0.5l-1.7,1.8l0.5,2.1l-0.5,0.6L548.7,313.4z M559,294.9l-0.2,0.2v0.5l0.7,0.8l0.5,0l0.2-0.2l0-1L560,295L559,294.9z
		 M566.7,291.3l-0.2,0.2l0,1.6l0.2,0.2l1,0l0.2-0.2l0-1.1l-0.7-0.8L566.7,291.3z M555.6,324.1h-0.5l-0.2,0.3l0,1l0.2,0.3l0.5,0
		l0.3-0.2l0-1L555.6,324.1z M558.5,313.7l-2.4-2.1l-1.4,0l-0.3,1.3l1.7,2.4l3.6-0.3l0-0.5l-0.7-0.8H558.5z M554.9,310.8l0-0.5
		l-0.3-0.3h-0.5l-0.2,0.3l0,0.5l0.3,0.2l0.5,0L554.9,310.8z M549.6,305.1l-0.9-1l0.5-1l-0.5-1.1l0.2-1.8l1,0l1,1.6h1.5l1.2-0.8
		l-1.2-1.8l-0.8-0.2l0.3-0.3h1.9l0.9,1.1l1,0l0.5-0.5l1.2-0.3l0-1l0.4-0.5l-0.5-1.1l0.7-0.2l0.2-0.8l-0.8-0.3l-1.4-2l-1-0.5l-1.4,0
		l-1.4-1.5h-3.9l-0.9-0.5l-0.7-1.3v-1.6l-0.7-0.8h-1l-1,1l-1-0.5h-1.4l-0.5,1.1l-1-1.1l-2.4,0l-0.9,0.5l-0.5-0.5l-1,0l-0.4,1
		l-0.5-0.5l-0.2,1.3l0.5,0.5l-1.2,0.2l-1.7,1.3v2.1l0.7,0.8l0.5,0l1.4,1.6l1,0l2.6,2.3l-1.7,0.2l-0.2,1.8l2.2,2.9h1.4l1.5-2.1l1,0
		l0.3-1.3l0.7-0.8l1,0l0.7,1.8l1,1l-0.7,0.8l-1,0l-0.2,0.8l1.9,4.7v2.1l2.2,0.2l1.7-3.4L549.6,305.1z M539.5,286.3l0-0.5l-0.2-0.3
		l-0.5,0l-0.7,0.8l0.3,0.2l1,0L539.5,286.3z M543.4,306.1l0.3,0.3h0.5l0.2-0.3l0-0.5l-0.8-0.8l-0.2,0.3L543.4,306.1z M543.8,299.3
		l-0.2-0.2l-0.7,0.8l0.2,0.2l0.5,0l0.2-0.3L543.8,299.3z M554.4,316.1l0-0.5l-0.3-0.3h-1.5l-0.2,0.2l0,1l0.3,0.3l1,0L554.4,316.1z
		 M556.8,307.7l0,0.5l0.3,0.2l0.9,0l0.2-0.2l0-0.5l-0.7-0.8L556.8,307.7z M551.8,317.8l-0.2,0.3l0.7,0.8l0.5,0l0.3-0.2v-0.5
		l-0.3-0.3L551.8,317.8z M574.7,258.7l-1-0.5l-0.2-1.3l-2.4-1l-0.7-0.8l0-2.6l-0.5-0.5l0-1l1.5-1.1l0.9-2.6l-0.7-0.8l-1.5,0
		l-0.4,0.5l-1.5-2.1l-0.5,0.5l-0.3-0.2l-0.2-1.8h-0.5l-1.4,1.5l-2.9,0.5l-1,1h-1.9l-1.9-1.5l-1.9,0.5l-0.4,1l-1.2-0.2v-2.1l-0.5-0.5
		l0-1l-1-2.1l0.7-0.8l1.2-0.2v-4.2l-1.2-0.8l-1.5-2.1l-1-0.5l-2.2,0.2l0,3.1l0.5,0.5l0,1.1l-2.1,0.3l-1.5,1l-0.5-0.5l-1.2,0.3l0,1.5
		l0.5,1.1l0.7,1.3l0.7,0.3l0,1.6l-0.5,0.5l0.5,0.5l-0.4,0.5l0,3.1l-0.5,0.5l0,1.1l0.5,0.5l-0.5,0.5l0,1l1,1.6l0,0.5l-1,0.6l0.5,0.5
		l-0.2,0.8l-1,0l-0.5-0.5l-1,0.5l-1.2-0.8l0.7-1.3l1.2-0.2l0-1l-0.9-1.1v-2.1l-0.9-1.6v-2.1l-0.7-0.8l-0.9,0l-1.7,1.8l0,2.6
		l-0.7,0.8l-0.5-0.5l-1.2,0.3l1,1.5l-2.7,0.8l-0.3-0.8l1.5-1.1l0-2.6l-0.5-1.1l-1.4-1.5l0.7-0.8l2.9,0l1.2-1.3l0-2.6l-0.7-0.8
		l-1.2-0.2l0.5-0.6l-0.9-3.6l1-1.6v-2.6l0.7-0.3l1.4,1.1h1.5l1.2-0.8V229l-1.9-3.2v-2.6l-0.5-0.5l-0.5-2.1l-0.7-0.8l-0.7,0.3v0.5
		l-1.5,1.6v2.1l0.5,0.5l-0.5,0.5v2.1l-1,1.1l0.5,0.5l-0.7,0.8l-0.9,0.5l-1.9-0.5l-1.9,1.6l-0.3-0.2l1-2.1l0.5-2.6l1.2-0.3l0.2-0.8
		l-1.2-1.8l-1,0l-0.5,1.1l-1.4,0l-0.3-0.8l-0.5-0.5l0.5-1.1l-0.9-2.6l-1.3-0.3l-0.2,1.3l-0.7,0.8l-1.9,0l-2.4,3.1l-0.9,0l-3.2,2.8
		l-0.5,2.6l-0.9,0.5l0.5,0.5l0,3.1l-1.2,1.3l-1-1.6l-0.5,0.5h-1.9l-0.5-1l-1.4-0.1l-0.3,4.4l-0.2,0.3l-0.7-0.8v-0.5l-1.2-0.8l-1,0
		l-3.6,3.4l-0.2,1.3l-0.5,0l-0.7,0.8l0.2,1.8h0.5l0.9-1l0.5,0.5l0.9,0l0.3,0.8l-1,1l0,1l1.4,2.6v2.1l1.2,1.3l1.7,0.3l0,0.5l-3.1,2.9
		l-1.4,0.5l-3.2,2.3l-0.2,4.4l-0.7-1.8l-2.9-3.1l0-0.5l1.4-1.1l0-5.2l-0.5-0.5l0-1l-1.2-1.3l-2.9,0l-1.4,1.1h-1.9l-0.5,0.5l-0.9-1.6
		l-1.5,0l-0.9,1.1h-1.9l-1,1l-0.2-1.3l1.2-0.3l0.7-0.8l-0.3-0.8h-1.9l-1.9-1l-1,0.5h-1.5l-0.2,1.3l1,1.6l-1.7,1.9l-1.2,0.2l-0.9,4.7
		l-1.7,0.8l-0.2,1.3l-1.4,1.1l1,1.6l-1.9,1.6l-0.5,2.1l-0.9,0.5l0,1.5l-0.7,0.8l-1.5,0l-0.9,1.1l-1.5,0.5l-0.4,1l-0.7,0.3l-1.9,4.7
		l0.5,0.5l1,2.1l-1.5,2.6l-0.2,1.3l-2.9-0.5l-0.7-0.8l-0.2-1.3l-1,0l-0.5,0.6l-0.9,0l-0.7,1.3l-2.2,1.8l-0.7-0.3l1.9-2.1l0.5-3.1
		l1.4-2.6l2.9-3.1l0.5-1.5l3.1-3.4l0.5,0l1.7-1.3l-0.5-1l0-2.6l0.9-0.5l0.5-1v-3.7l-1.9-2.1l-0.2-0.8l-1-0.5l-2.9,0l-0.5-0.5
		l-1.2-0.3v-4.2l-1.2-1.4l-1,0l-1.4-1.6l-2.4,0l-0.5,0.5l-1-0.5l-1.9-1.6l-1.9-0.5l-1.2-1.3l0.5-0.5l-0.7-0.8l-3.4,0l-2.4-2.1l-1,0
		l-0.3-0.8l0.8-1.8l0.9,0.5l0.5-1l2.4,0.5l0.5-0.6l1,0l0.5,0.5l1,0l0.2-2.4l1.7-0.2l2.4-2.1l3.4,1l0.5,0.5l0.9,0l0.9,1.5l1.5,0
		l1-1.1h1.9l0.9,1.1l1,0.5l0.9-0.5l0.5,0.5l1,0l0.7,0.8l-1,2.6l-1,1l0.7,0.8l1,0l0.5-0.5l1,1.5h0.5l1-1.6l0.9,0.5l1-0.5l0.2-0.8
		l-0.7-0.8l-1.9-0.5l-1.2-2.8l-0.7-0.8l-1,0l-1.7-1.3l0.9-5.8l1.5-1l0.2-0.8l0.5,0l1.2,1.3l0.7,1.8l1-0.5h1.9l1.4-1.6l3.4-1l0.2,0.7
		l-0.5,1.1l1.2,1.3l1.7-1.3l0.5-2.1l1.5-1.6l0.5-1.5l1.9-2.1l0-1l0.5-0.5l0-3.1l-0.9-1.5v-1.5l-0.5-0.5l0.3-1.3l1.2,1.8l0.2,1.3
		l2.4,1.1l0.9,1l1.5,0l0.5,0.5l1,0l1.9,1l1.4,0l0.5,2.1l1,0l1.2-1.3l0-1.5l1.2-1.3l0.9,0l0.5-0.5l0.5,0.5l1.5,0l2.9-1.5l2.7,0.3
		l-0.7,1.3l-0.8,0.3l0.7,2.9l1,0l1.4-2.6l1.2,0.8l-0.5,1.5l-0.9,1.1l0,1l-2.4,1.6l-0.3,1.3l-2.9,0l-0.9,1.6l-0.5-0.5h-1.9l-0.9-0.5
		l-1,1.6l-2.4,0l-1,1.6l-0.7,0.3l0,1l-1,1.6l0.7,0.8l1,0l0.5-0.6l0.7,0.3l-3.6,4.4l-1.2-0.3l0.5-0.5l-0.7-0.8h-1.5l-3.1,3.4l0,1.6
		l-0.5,0.5l0.2,1.3l1,0l0.3-1.3l1.2-0.8l3.4,0l1.4-1.1l0.5,0l1.2-1.3l0.5-1.6l2.7-2.9l2.4-1.6l1.9-0.5l0-1l-2,1h-1.9l0-1l1.4,0.5
		l1.9-1.6h3.4l0.5-0.5l0.9,0l1.5-1l0.9,0l1-1.1l1,0.5l0.9-1l1.4-0.5l1-1.6l0.5,0.5l0.5-0.5l2.9-0.5l2.9-2.1l0.7-0.8l0-1l-1-0.5
		l0.7-0.8l1,0l0.9-1l0.5,1.6l2.9-2.6h0.5l4.4-5.8l1,0l1.4-1.6l1,0l2.6-1.8l0-2.6l-1.2-1.3l-2.9,1.6l-1.9,2.1l-1.4,0l-0.5,0.5l-1.4,0
		l-0.5,0.6l-1.9-0.1l-0.5,0.6h-1.9l-0.9,0.5l-0.4,0.5l-1,0l-1,1.6l-0.9,0.5l-2.9-2.6l-1,0.5l-0.3-0.2l-0.2-1.8l-1.5,0l-0.5-2.1
		l-2.2,0.3l0,0.5l1,1.1l-0.7,0.3l-1.7-0.8l0.5-0.5l-0.3-0.8l-2.4,0l0-0.5l1.7-0.3l-1.7-1.3l-0.5,0.5h-2.4l-0.2,0.8l-1.3,0.2
		l-0.9,1.1l-1.2-0.3l1.4-1v-1.6l-1-0.5l0-1.5l1.2-0.3l1.5,2.1l1,0l0.2-1.8l0.7-1.3l0.7-0.2l0-1l2.9-2.6l-0.7-1.3l-1,0l-2.9,2.6
		l-0.2-1.3l1.4-2.1l-0.2-1.3l-1,0.5h-1.4l-1.4-1l-0.2,2.3l-2.2,0.2l-0.5-0.5l-1.9,0l-0.5,0.5l-1.7-0.2l1-1.6l0-1l2.9-2.1l-0.7-1.3
		l-2.2-0.8l0-1l-0.7-1.3l-0.5,0.6l-1,0l-1,1.1l-0.7-0.3l1-1.6l-0.5-3.1l1.2-0.2l0.7-0.8l-0.3-0.8h-1.9l-0.5-0.5l-1,0l-0.5,1.5l-1,0
		l-0.5-0.5l-0.5,0.5l-0.7,0.3l-0.2,0.8h-0.5l-0.2-1.3l-0.7-0.8l-2.4,0.5l-1.2,1.3l0,1l-1.4,2.6l0,1l-0.5,0.5v1.6l-1.2,1.3l-1.9,0.5
		l-1.4-1.1l-0.7,1.3l0,1.1l-1.7,0.8l-0.9-1.1l-1,0l-1.2,1.8l0,1l-0.7,0.8l-0.7-0.2l-0.2-1.3l-1.5,1h-1.9l-0.5,0.5l-0.2-0.3l0.5-1
		v-1.6l-0.5-0.5l0-3.7l0.2-0.3l0.7,0.8l0,0.5l1.7,0.3l1.2-1.3l0.5-2.6l2.6-2.9l0.7,0.3l-0.9,1.1l0.2,0.7h1.9l1.1-0.9l-0.2-0.4
		l-0.1-0.3l0-0.3l0.2-0.1l0.1-0.2l0.2-0.2l0-0.1l0.1-0.2l0.2-0.4l-0.1-0.3l-0.3-0.3l-0.3-0.5l-0.3-0.4l-0.3-0.2l-0.1-0.2l-0.1-0.1
		l0-0.1l0,0l-0.2,0l-0.3,0l-0.3-0.2l-0.4-0.2l-0.3-0.1l-0.3-0.1l-0.2-0.2l-0.1-0.3l0-0.3l-0.1-0.2l-0.1-0.2l-0.3,0l-0.2-0.2l0-0.1
		l-0.1-0.2l-0.1-0.2l-0.1-0.2l-0.2-0.2l-0.5-0.4l-0.2,0l-0.1,0l-0.2,0.1l-0.1,0.3l-0.3,0.1l-0.3-0.1l-0.3,0.1l-0.4,0l-0.5,0l-0.4,0
		l-0.6-0.4l-0.4-0.3l-0.4,0l-0.3-0.1l-0.3-0.3l-0.2-0.1l-0.3-0.2l-0.3,0.1l-0.2,0.1l-0.2,0.1l-0.2,0.1l-0.4,0l-0.2-0.2l-0.4,0
		l-0.5,0l-0.8,0.1l-0.3,0.1l-0.5,0.1l-0.2-0.2l-0.1-0.2l0-0.1l-0.1-0.2l-0.3-0.1l-0.3,0.1l-0.2,0.1l0,0l-0.2,0.2l-0.3,0l-0.2-0.1
		l-0.1,0l-0.2,0l-0.1,0l-0.3,0l-0.4,0l-0.3,0l-0.2,0.2l0,0.1l0,0.3l-0.1,0.3l-0.6,0.2l-0.5,0.1l-0.4-0.1l-0.2-0.1l-0.3-0.1l-0.3-0.1
		l-0.3,0.2l-0.4,0.1l-0.4,0l-0.5,0l-0.5,0l-0.3,0l-0.3,0.1l-0.2,0.3l-0.1,0.2l0,0l-0.3,0l-0.2-0.1l-0.1,0l-0.5-0.1l-0.6-0.1l-0.8,0
		l-0.3-0.1l-0.3,0l-0.2,0l-0.1,0.3l0,0.1l-0.2,0.3l-0.4-0.2l-1-0.6l-0.4-0.1l-0.1-0.2l0-0.6l0-0.2l0-0.2l0-0.1l0,0l0-0.2l0-0.5
		l-0.2-0.2l-0.3-0.3l-0.2-0.2l-0.2-0.1l-0.5,0.1l-0.2,0.1l-0.1,0l-0.4,0.1l-0.3,0l-0.3,0l-0.2-0.1l-0.4,0l-0.3,0.1l-0.3,0l-0.2-0.1
		l-0.1-0.1l-0.3-0.3l-0.1-0.2l-0.2-0.2l-0.2-0.1l-0.4-0.1l-0.3,0l-0.2,0.1l-0.2,0.1l-0.2,0.2l-0.2,0.2l-0.1,0.2l-0.1,0.2l-0.2,0.3
		l-0.2,0l-0.3,0.1l-0.4,0l-0.4-0.1l-0.2-0.2l-0.1-0.2l-0.1-0.2l-0.2-0.6l-0.2-0.3l-0.3-0.2l-0.3,0l-0.2,0.1l-0.2,0.1l-0.4,0.4
		l-0.1,0.2l-0.4,0.6l-0.3,0.5l-0.2,0.3l-0.1,0.3l-0.2,0.5l-0.1,0.2l-0.1,0.3l-0.1,0.2l-0.2,0.2l-0.1,0.2l-0.1,0.4l-0.2,0.2l-0.4-0.1
		l-0.3,0l-0.3,0l-0.1,0l-0.1,0l-0.2-0.1l-0.3-0.1l-0.3-0.1l-0.3,0.1l-0.2,0.4l0,0.5l-0.1,0.2l0,0.3l0.1,0.3l0,0.3l-0.2,0.4l-0.2,0.2
		l-0.3,0l-0.3,0.1l-0.2,0.3l-0.1,0.4l-0.1,0.5l0,0.6l0,0.2l0.1,0.3l0.5,0.2l0.2-0.1l-0.1-0.3l0-0.2l0.3-0.1l0.2,0l0.2,0.2l0,0.3
		l-0.1,0.3l-0.2,0.2l-0.3,0l-0.3,0.1l-0.2,0.2l-0.2,0.2l-0.3,0.2l-0.2,0.2l-0.4,0.5l0,0l-0.1,0.2l0,0.2l0,0.2l0.2,0.5l-0.3,0.3
		l-0.3,0.2l-0.5,0.1l-0.2,0.2l-0.3-0.1l-0.3,0.1l-0.4,0.2l-0.2-0.1l0-0.2l0.1-0.3l0-0.1l-0.5,0.1l-0.3-0.1l-0.2-0.1l-0.2,0.1l0,0
		l-0.2,0l-0.1-0.3l-0.2-0.1l-0.3,0l-0.4-0.1l-0.2,0l-0.2-0.2l-0.2-0.1l-0.6,0l-0.2,0l-0.3,0.1l-0.5,0.4l-0.2,0.3l-0.3,0.2l-0.1,0.1
		l-0.2,0.1l-0.1,0.1l-0.2,0.3l-0.2,0.1l-0.2-0.1l-0.2-0.2l-0.3,0l-0.3-0.1l-0.1-0.2l-0.2-0.1l-0.3,0.3l-0.3,0.2l-0.2-0.1l-0.2-0.2
		l-0.3-0.1l-0.2,0.1l0,0.3l-0.1,0.3l-0.1,0.3l-0.8,0.7l-0.3,0.1l-0.1-0.1l-0.1-0.1l-0.4-0.3l0-0.3l0.3-0.1l0.1-0.2l-0.2-0.2
		l-0.4,0.2l-0.2,0.3l-0.1,0.3l-0.4,0.3l-0.2,0l-0.5,0.2l-0.2,0.1l-0.2,0.1l-0.2,0.2l-0.3,0.3l-0.1,0.3v0.4l0.2,0.2l0.3,0.5l0.1,0.3
		l-0.3-0.1l-0.3-0.2l-0.2-0.1l-0.2,0l-0.3,0.2l0.1,0.3l0.1,0.1l0.1,0.3l-0.5,0l-0.4,0l-0.4,0l-0.8-0.3l0,0l0,0l-0.4,0.1l0,0
		l-0.3,0.1l-0.3,0.3l0,0.5l0,0.8l0,0.7l-0.3,0.2l-0.2,0.1l-0.9,0.5l-0.4,0.1l-0.7-0.3l-0.3-0.2l-0.3-0.3l-0.2-0.3l0-0.4l0.1-0.8
		l0-0.3l0-0.7l-0.1-0.7l-0.2-0.3l-0.3-0.2l-0.3,0l-0.2,0.3l-0.1,0.5l-0.1,0.2l-0.2,0.2l0,0l-0.4,0.1l0,0l-0.3,0l-0.3-0.1l-0.2-0.1
		l-0.3,0l-0.2,0.3l0,0.3l0,0.4l-0.1,0.3l-0.1,0.3l-0.2,0.2l-0.3,0l-0.1-0.2l0.1-0.2l0-0.2l0.1-0.2l0-0.2l0-0.1l0.1-0.5l-0.1-0.4
		l-0.3,0l-0.5,0.1l-0.5,0.2l-0.3,0.1l0,0l-0.4,0.1l-0.5,0.1l-0.6,0.1l-0.3,0l-0.3,0.1l-0.3-0.1l-0.3-0.1l-0.1-0.1l-0.1,0l0,0
		l-0.2-0.2l-0.2-0.3l-0.1-0.1l-0.1-0.2l-0.2-0.3l-0.2-0.2l-0.2-0.2l-0.2-0.1l-0.3-0.1l-0.4-0.1l-0.4,0l-0.4,0.1l-0.2,0.1l0,0
		l-0.2,0.1l-0.3,0.1l-0.3,0.2l-0.3,0.3l-0.2,0.2l-0.2,0.2l-0.2,0.3l-0.2,0.2l-0.1,0.2l-0.2,0.3l0,0l-0.2,0.3l-0.2,0.2l-0.1,0.3
		l-0.2,0.2l-0.2,0.1l-0.2,0.1l-0.4,0.1l-0.3,0l-0.5,0.1l-0.6,0.1l0,0l-0.3,0l-0.7,0.2l-0.3,0.2l-0.2,0.2l-0.2,0.3l-0.1,0.3l0,0.5
		l0.1,0.3l0.3,0.3l0.2,0.2l0.3,0.3l0.2,0.1l0.6,0.3l0.1,0l0.2,0.1l0.3,0.2l0.5,0.3l0.2,0.1l0.1,0l0.1,0.1l0.3,0.2l0.3,0.4l0.1,0.2
		l0,0.3l-0.1,0.3l-0.2,0.5l-0.4,0.5l-0.4,0.6l-0.7,0.8l0,0.3l-1.2,1.5l-2.3,0.8l-2.1-1.7l-2.3,0.1l-1.9,0.6l-1.4,1.6l-0.5,0
		l-1.2,1.8l-0.5,2.6l-1.7,1.8l-1.2,0.8l-1.7,0.5l-2.4-0.7l-0.5-0.5l-3.9,0l-2.9,2.6l-1.4,0.5l-2.2,2.4l-0.5,2.1l0.5,0.5l0.5,3.1l1,1
		l0,1.6l-0.5,0.5v2.1l0.5,0.5l-0.5,0.5l-0.2,2.9l-0.8-3.9l-1.2-1.3l-1,0l-1.9,1.6l-3.4,1.5l-0.9,1.1h-2.4l-0.2-2.9l0.4-0.5l0-2.6
		l2.4-3.1l-0.7-1.3h-1.5l-0.5,0.5l-2.9,0l-0.5-0.5h-1.5l-0.4,1.1h-1.5l-1.7,1.3l-1.5,3.7l-1.7,2.9l-0.5,0l-1.9,2.1l-0.5,0l-2.6,2.9
		l0,0.5l-2.4,3.6l-0.5,2.1l-2.1,2.4l-7.7,3.6h-2l-1.2,1.3l0,0.5l-4.4,4.7l-0.9,4.7l-2.2,1.8h-0.5l-1.2,1.3l-0.3,2.3l-2.9,1.6l-2.4,0
		l-0.5,0.5l-2.9,0l-0.5,0.5l-0.9-0.5h-1.9l-0.5,0.5l-0.9,0l-1.7,1.8l0,1l-1.2,1.8l-1,0.5h-1.9l-1.2,1.3l0,1.5l1.7,1.3l2.4,0l2.7,2.3
		l0.5,1l-0.5,0.5l0,2.1l1.2,1.8h0.5l1.2,1.3l0,1l0.5,0.5v3.6l-0.9,1.1l0,1.5l2.4,2.6l0.3,0.8l1.9,1l4.3,0l0.5,0.5l2.4,0.5l1.9,1.5
		l0.9,0l1,0.5l1-0.5l0.9-1.6l3.4-1.6l0.9-1l2.7-0.3v-1l2.4-2.6l0-2.6l1-1l0-0.5l1.7-1.8l0.7-0.3l0-1.5l-0.5-0.5l0.2-1.8l0.5,0.5
		l3.6,0.2l0,1l1.4,1.6l0,2.1l-0.5,0.5l-0.4,1l0,2.1l0.5,0.5l0,1.1l1.2,1.3l1,0l2.4,2.1l2.4,0l1.2,1.3l-0.7,1.3l-0.5,0l-0.7,0.8
		l0.7,1.3l2.4,0.5l0.5-0.5l0.9,1l1.5,0l0.5,0.5l0.5-0.6l0.5-1h1.4l1.9-1.5l1,0l0.7,0.8l0.3,1.3l1.9-1l2.2,0.8v1.6l1.2,2.3l2.9,0
		l0.5,0.5l2.9,0l0.5-0.6h1.9l1.4-1l1,0l3.4-2.1l2.9,0l0.5-0.5l1,0l3.9-3.1l1,0l2.9,1.5l0.5,0.5l2.9-0.5l1-1.6l1-0.5l2.9,0l0.5-1.1
		l2.9,1.6l1.4,0l0.5-0.5l2.9,0l0.5-0.6l3.4-0.5l1.9-2.1l3.4,0.5l2.2,2.9v1.6l-1.4,1.5l2.4,3.1v1.6l0.5,1l-0.5,1l0.5,1.1l0.7,0.8l1,0
		l1-1.6l1.2-0.8l0.2-1.3l1,0l0.2,1.3l-0.5,0.5v2.1l-0.5,0l-0.7-1.4l-0.7,1.3l1.2,2.3l2.4,0.6l3.4,4.1l1.5,0l1.4-2.6l0.3,1.3l-1,2.1
		l1.2,0.8l1,0l0.5,0.5l4.3,0l1-0.6l0.9,1.1h0.5l4.6,4.4l-0.5,0.5l0,3.1l0.7,1.3l0.5-0.5l1.9,0l0.7,1.3l0,2.6l0.4,1l-1.4,1.1l0,1
		l0.5,0.5l1.7,8.1h4.4l1.4-2.1l0.5,0l0.5-1l1,0l1.2-0.8l0-2.1l0.7-1.3l3.8,2.1l0.7-0.8V329l0.5-0.5v-2.1l-0.7-0.8l-1.2-0.2l0-1.6
		l0.7-0.3l1.7-1.8l0-1l1.2-0.8l3.4,3.7l0.5,0l6.7,6.8l1.2-1.8l-2.2-2.9l-1.4,0l-1-1.6l-0.5,0l-7-7l0.7-0.3l1.9,2.1l0.7-1.3l0-1.5
		l-0.5-0.5l0.2-0.8h3.9l1.7,1.3l-0.3,3.4l-1.2-0.8l0-1.6l-0.7-0.3l-0.2,1.3l-1.5,1.6l0,1l1.7,1.8l0.5,0l1.4,1.6l1.9-1.1l0.5,1.1
		l0.5,0l3.1,3.4l0.2,0.8l0.5,0l1.7,1.8l2.2,3.9l0.9-0.6l2.2,0.3l0,0.5l-1.4,1.1l0.5,1l0,0.5l1,0.5l0.2,0.7l1.2,0.3l0.3,2.4l1,0.5
		l1.4,0l0.5,0.5l1.2-0.8l0-0.5l5.8-6.8l0.5-1l0-1.6l-1-2.1l-1-0.5l0.8-0.2l1.2-1.3l0.5-1.6l1-1l-0.5-5.7l-1.7-1.8h-0.5l-1,1.1
		l-0.2-1.3l0.7-0.8l2.9,0l1,0.5l0.2,1.3l1,1.6l0,1l1.2,1.4l1.4,0l0.3-1.3l0.7-0.8l0.2,0.8l1,0.5l-1,1l-0.2,1.3l-1,0l-0.7,0.8l0,3.1
		l1,0.5l0,0.5l1,0.5l0.5,1l0,1.6l0.5,1.1l1.2,1.3l1.2,0.3l0,1l0.5,0.5l0,1.6l0.5,0.5l-0.5,3.6l0.7,1.3l1.5,0l0.2,1.3l0.5,0.5
		l-2.4,2.1l0.5,5.7l0.7,1.3l1.5,0l0.4-1l0.7-0.3l0.3-1.8l0.5,0.5l3.4,0.5l0.2,1.3l0.7,0.8h1.5l1,0.5l1.5,3.6l1,0l0.7-0.8V354
		l0.7-0.3l1.4,1.1l1.2-0.8l0.5-1.6l-0.8-1.8l-1.9,1l-0.7-0.2l0-3.2l-0.5-0.5l0-1.6l1-1.1l-0.7-1.3l-1,0l-1.2,1.3l-0.5,1.5l-1.7,1.8
		l-0.7-0.2l1.2-1.8l0.7-0.3l0-1l-3.1-0.3l-0.5-0.5l-0.7-0.3l0-1.6l1-0.5l0-1.1l-1-1.6l1.7-1.3l1,0l0.3,0.8l1.7,1.3h3.4l1.9-2.1
		l2.4-1l0.7-0.8l0-2.6l0.9-0.5l-1.5-2.1l0-1l-2.9-3.1l0-1l-0.7-0.8l-0.9,0l-0.5,0.5h-1.9l-1.7,1.8l0,1l-0.8,0.3l-0.7-1.3l-1-0.5
		l1-0.5v-1.6l-0.5-0.5l0-1.1l-1-0.5l-0.3-4.4l-1,0l-0.5,0.5l-2.9-0.6l-1.4,1.1l-1,0l-0.5-1.1l-1.9-0.5l-0.7-0.8l0-3.6l-1.5-2.6l0-1
		l-1.2-0.8l-0.7-1.3l0-3.1l0.5-0.5v-1.6l1-1.6l-0.7-0.8l-1,0l-0.4,0.5l-0.7-0.8l0-1l-2.1-1.8l-0.5,0l-1,1.5l-2.9,0l-0.3-0.7l2.4-1.6
		l0.5-1.5l1.9-2.1v-2.1l0.8-0.3l0.5,0.5l0.7-0.8l0.2-1.8l2.1,1.8l0,1.1l0.5,0.5l-0.5,0.5l0,1.6l-1.9,1.6l0.2,1.8l1-0.6l1.9,0.5
		l0.7,2.4l1.7,1.8l1.2-0.8l0-1.6l1-0.5l-0.5-1l0.5-0.6v-2.1l-2.4-1l0-1l-1.4-3.1l1-2.1l0-3.1l-1.7-1.3l-1.2-0.3l0.7-0.8l1,0l0.2-0.8
		l1.9-2.1l0-1l0.9-1l0.5-2.1l0.7-0.8l0.5,0.5l1,0l0.2-0.7l1.2-0.8h1.5l1.2,1.8l1.7,2.4h1.9l0.9-1.6l0.2,1.3l1,1l0.2,1.9l1,0l0.7-0.8
		l0-1l0.2-0.3l1.5,2.1l1,0l0.4-0.6l1.5,0.1l0.2-1.3l-0.5-0.5l0-1.1l1.2-1.8l1,0l0.5-0.5l1.5,0l1.9-1l0.7,0.2l-0.3,0.8l-1.7,0.8v1.6
		l1,0.5l-0.5,4.2l0.8,0.2l1.4-1l0.3,0.8l1.2,1.3l3.8,2.1l1.9-1l0.3,0.8l1.7,1.3h1.4l0.5-1l1,0.5l0.7-0.8l-1.4-3.1l-1-0.5l0.3-1.8
		l1.4,1.1l1,0l0.4,1.6l1.7,0.3v1.6l2.2,1.8l1,0l0.5,0.5h2.4l0.5-1.5l0.7,1.3l-0.5,0.6l0,1.5l1.7,1.8l2.9,0.5l0.9,1l0.9,0l1,1.6h1.5
		l0.5,0.5l2.4,0l0.7-0.8l0-1l-1.2-1.3l-2.2-1.3l0-1.6l-0.5-0.5l1.2-1.3l1,1.1l1,0l1-1l0.7,0.8l0,1.6l1.4,3.1l0.8,0.8h1.4l1.2-1.3
		l0-1.6l-0.7-1.3l-0.8-0.3l-1-2.1l2.4-0.5l-0.5-5.7L566,278l0-1.5l-0.7-0.3l-0.9-1.1l-1,0l-0.5,1l-0.4-1.1l-1.2-0.8l-0.5-1.6
		l-2.2-2.3l-1.4,0l-1.5,2.6l-0.7-0.3l0.5-0.5v-1.5l-1.4-1l1.7-0.3l1.7-1.3v-4.2l1.2-0.8l0.5,1.1l0.5,0l0.7-0.8l-1-1.5l0.5-2.1
		l0.7-0.8l1.9,0l1.5-2.1l1,0l0.5,0.5l2.4,0l1.2,2.8l0.7,0.8h0.5l1.4,1.6l0.5-0.5l1,0l1,0.5l1.2-1.3l-0.5-1V258.7z M546,315.2
		l-1.5,2.1l-0.9-1l-1,0l-1.2,2.3l0,1l-0.9,1l0,1.1l0.5,0.5l0,1.1l0.7,0.8h0.5l0.7-0.8l0.3-1.3l1,0.5l1.7-1.3v-1.6l-0.5-0.5l1.9-1.6
		l0.5-1l-0.3-0.8L546,315.2z M468.2,246.7l0.3,0.3l1.2-1.3l-0.2-1.8l-1.2,1.8L468.2,246.7z M471.8,238.7h1.4l1-1.6l1.2-0.8l0-1
		l0.9-1.1l0-0.5l-1.2-0.8h-1.9l-0.2,0.8l-1.4,1l0,1.6l-1.9,1.5l0,1l1.7,0.3L471.8,238.7z M466.5,233.9l-0.5-0.5l-0.7,0.2l0,0.5
		l0.7,0.8l1.5,0l0.2-0.3l-0.3-0.8L466.5,233.9z M468.9,232.4l0.7-0.8l0-1.6l-0.2-0.3l-0.5,0l-1.2,0.8l0,1.5l0.3,0.3L468.9,232.4z
		 M587.7,227.5l0,1l-0.5,0.5l0.2,0.2l1,0l0.2-0.3l0-1l-0.7-0.8L587.7,227.5z M498.6,249.8l0-1l-0.2-0.2h-0.5l-0.7,0.8l0,0.5l0.2,0.3
		l1,0L498.6,249.8z M592.8,180.2l-1.5-1.5l-1,0l-0.7-0.7l0.2-4.5l-2.4,0.5l-0.7,0.8l-0.5,2.6l0.5,0.5l0,2.6l0.7,0.8l1.5,0l1.9,1.6
		l1,0l0.5,0.5h2.4l1.2-1.3l0-1.5L592.8,180.2z M583.1,230.8l-0.2,0.3l0,0.5l0.7,0.8l0.5,0l0.2-0.3v-0.5l-0.7-0.8L583.1,230.8z
		 M575.9,261.1l-0.2,0.3l0,1l0.3,0.3l0.7-0.8v-0.5l-0.3-0.3L575.9,261.1z M470.9,186.5l-0.3,0.3l0.7,0.8l0.3-0.3l0-0.5l-0.2-0.2
		H470.9z M462.4,189.9l0.3,0.2h0.5l0.2-0.3l-0.7-0.8l-0.3,0.3V189.9z M532.8,219.1v0.5l0.7,0.8l0.3-0.3l0-1l-0.3-0.2H533
		L532.8,219.1z M563.3,269.4l1,0l0.2-0.8l-0.5-0.5l0-1l-0.3-0.2l-0.9,0l-0.3,0.2l0.5,0.5l0,1.5L563.3,269.4z M532.5,223.5l0.2-0.3
		l0-0.5l-0.2-0.3l-0.5,0l-0.2,0.2v0.5l0.2,0.3L532.5,223.5z M506,233.4l1,0l0.7-0.8l0-0.5l-0.2-0.3l-1,0l-0.2,0.3l0,0.5l-0.5,0.5
		L506,233.4z M498.3,254.8l0.7-0.8l0-0.5l-0.3-0.2h-0.5l-0.7,0.8l0,0.5l0.3,0.2H498.3z M507.9,230.8l1,0l0.3-0.3l0-1l-0.2-0.2
		l-0.5,0l-0.3,0.3l0,0.5l-0.4,0.5L507.9,230.8z M532.7,221.7l0-1l-0.5-0.5l-0.2-1.3l-0.7,0.3v2.1l0.7,0.8L532.7,221.7z M506,286.6
		l0.2-0.2l0-1l-0.2-0.2l-1,0l-0.2,0.2l0,1l0.3,0.3L506,286.6z M495.4,347.5l0.9,0.5l1-1.5l1.5,0l0.7-0.8l0-1l-0.7-0.8l-3.9-0.6
		l-1.7,2.9v2.1l0.7,0.8l0.5,0L495.4,347.5z M502.7,281.4l-0.5-0.5l-0.2,0.3v1.5l0.2,0.3l0.5,0l0.5,0.5l0.5,0l0.7-0.8l-1.2-1.3
		L502.7,281.4z M507.5,282.5l-0.5-0.5l-0.5,0l-0.2,0.2l0,0.5l0.7,0.8l0.5,0l0.7-0.8l-0.2-0.2L507.5,282.5z M505.3,276.4l0-0.5
		l-0.2-0.3l-0.5,0l-0.2,0.2l0,0.5l-0.4,0.5l0.2,0.3l0.5,0L505.3,276.4z M511.3,287.6l-0.2,0.3l0,0.5l0.2,0.2l0.5,0l0.2-0.2v-0.5
		l-0.3-0.2H511.3z M509.7,296.2l1.4,0.5l-0.5,2.1l2.2,0.3l0.2-0.8l-0.5-0.5v-1.6l-0.5-0.5l0-2.6l0.9-1.1l-0.5-0.5l0-1l-1.9-1.6v-2.1
		l1.2-0.2l0.2-0.8l-1.7-1.3l-0.5,0l-0.9,1.6l-0.7,0.3l-0.5,2.1l-1.4,1l0,1l2.4,2.6L509.7,296.2z M515.9,297.8l0,2.6l1,2.1l1.7,1.8
		l2.4,1l0.9-1.6l0.5,0l1,1.6l1.5,0l0.5,0.5h2.4l0.7-1.3l-1-1.6l1.4-0.5l0-1l0.9-1.1l-0.5-1l0.5-1.1l-0.2-2.4l-1.9-0.5l-1.4-1
		l-1.7-0.3l0.9-1l0-3.1l-1.9-3.1l0.5-0.5v-2.1l-1.2-1.3l-1.2,1.3l0,1l-1.2,1.3l-0.7-0.3l1.5-1.6l0.5-2.6l-1.9,0l-0.5,1.6l-0.9,0.5
		l-0.5,1.5l-0.7,0.3l-0.2,0.8l-1.9,2.1l0,1.6l1.2,0.3l0.4-0.6l0.3,0.2v2.1l1,1.6l-1.5,0.5l0.5,0.5l0,1.6L515.9,297.8z M507.7,285.3
		l0.2,0.3l0.5,0l0.3-0.3l0-0.5l-0.3-0.3l-0.5,0l-0.2,0.3L507.7,285.3z M506.5,293.9l0.2-0.3l0-1.6l-0.2-0.2l-0.5,0l-0.2,0.2v0.5
		l-0.5,0.6l0.7,0.8H506.5z M508.4,400.6l-0.2,0.3l0,0.5l0.7,0.8l0.2-0.3l0-1l-0.2-0.3H508.4z M507.5,400.6l-1,0.5l-0.5,1.1l-1.7,0.7
		v2.1l0.5,0.5l0,1l0.7,0.8l1.4,0.1l1.2-0.8l0-4.1L507.5,400.6z M502.4,354l-0.2-0.2l-0.5,0l-0.3,0.3l0,0.5l0.3,0.2l0.5,0l0.2-0.2
		L502.4,354z M499.8,354.3l-0.7,0.8l0.3,0.3h0.4l0.5,0.5h0.5l0.2-0.3l0-1l-0.3-0.3L499.8,354.3z M511.3,318.4l1,0.5l1,0l0.4-0.5
		l0.5,0.5l0.7-0.3l0.5-3.1l-1.2-0.3l-3.4-3.1l-1.2,0.3l0,3.6l1.5,1.5L511.3,318.4z M513,359.8l-1-0.5l-0.2-1.3l-2.5,0.5l-0.9,1
		l-0.5,0l-1,1.6l-0.4-0.5h-2l-1.7,1.8v2.6l-0.5,0.5l0,1l2.2,1.8l1,0l1.2,0.8l-0.5,0.5l0,1.6l1.7,0.3l0.7-0.8l0.3-1.8l0.9-0.5l1.4,1
		l0.7-0.3l0.5-1l0-1.6L512,366l1.4-1l0-2.1l-1-0.5L513,359.8z M516.9,401.9l0,2.7l0.7,0.2l0.7-0.8l-0.2-2.4L516.9,401.9z
		 M515.7,405.3l-0.2,0.2l0,1l0.2,0.2h0.5l0.7-0.8v-0.5l-0.3-0.2L515.7,405.3z M522.9,346l-1,0l-0.5,0.5l-0.7,0.2l0,1.1l0.7,0.8
		l1.5,0.5l0.7-1.3l0-1L522.9,346z M519,281.9l0.2-0.3l0-0.5l-0.2-0.2l-0.5,0l-0.3,0.2l0,0.5l0.3,0.3L519,281.9z M525.1,325.4l0-1
		l0.5-0.5l-0.2-0.2l-1,0l-0.3,0.3l0,1.5l0.2,0.3h0.5L525.1,325.4z M531.8,310.8l-1.9-1.6l0-1l-1.2-1.8l-4.8,0l-1.2,1.3l0,1.6l1,1.1
		l0.5,2.1l0.5,0.5l0,1l1.2,2.3l1-0.5l1.4,0l1.4,1l1.5-1.6l1,0l0.2-2.4l-0.5-0.5L531.8,310.8z M527.2,289.7L527,290v0.5l0.7,0.8l1,0
		l0.2-0.3v-0.5l-0.7-0.8L527.2,289.7z M534.5,309l-1.5-0.5l-0.2,0.3l0,2.1l0.2,0.2h1.4l0.3-0.3l0-1.5L534.5,309z M521,331.4l0.7-0.3
		l0-1.5l-0.7-0.8l-0.7,0.3l0,1.6L521,331.4z M539.8,354.8l-0.2,0.3l0,0.5l0.8,0.8l0.7-0.8l-0.7-0.8L539.8,354.8z M543.6,348.6h-0.5
		l-0.2,0.3l0,1l0.3,0.2l1,0l0.2-0.3l-0.5-0.5l0-0.5L543.6,348.6z M516.6,281.9l-0.4,0.6l-0.5-0.5l-1,0l-0.2,2.3l1.7,1.8l1.7-1.9
		l-0.5-0.5l0-1L516.6,281.9z M541.9,350.9l-1.5,1l0,2.1l1.2,1.3l0.7-0.3l0-1l1.4-1.6l-0.7-1.8l-0.9-0.5L541.9,350.9z M541.5,360.3
		l-0.8-0.8l-0.7,0.8v0.5l0.7,0.8l1,0l0.3-0.3l-0.5-0.5L541.5,360.3z M514.2,287.1l-0.3,0.3l0,1l0.3,0.2l0.7-0.8l0-0.5l-0.3-0.2
		H514.2z M544.8,358.2l-0.7-1.8l-0.8,0.3l-0.2,1.8l-1-0.5l-0.7,0.8l1.2,2.9l0.9-0.5l1,0.5l0.2-0.3l-0.5-2.1L544.8,358.2z
		 M529.4,291.6l1.2,0.3l0.2-2.4l0.5-0.5v-2.1l-3.1-2.8l-1.9-0.1l-0.7,2.4l1.2,1.8l1,0l1-1l0.3,0.2L529.4,291.6z M513.7,285l-0.2,0.3
		l0,0.5l0.7,0.8l1,0l0.2-0.3l-1.2-1.3L513.7,285z M517.8,282.7l0,0.5l0.2,0.2l0.5,0l0.3-0.2l0-0.5l-0.3-0.3l-0.5,0L517.8,282.7z
		 M525.5,284.8l-0.7-0.8l-0.3,0.3l0,1l0.3,0.3L525.5,284.8z M521.9,275.7l-0.5,0l-0.2,0.2l0,1l0.2,0.2l0.5,0l0.2-0.3l0-1
		L521.9,275.7z M522.4,279.8l1,0l0.7-0.8v-0.5l0.5-0.6l-0.3-0.7h-1.4l-0.2,0.3l0,0.5l-0.4,0.5l0,1L522.4,279.8z"/>
</g>

</svg>
