<?xml version="1.0" encoding="utf-8"?>

<svg version="1.2" baseProfile="tiny" xmlns="http://www.w3.org/2000/svg" xmlns:xlink="http://www.w3.org/1999/xlink" x="0px"
	 y="0px" viewBox="188.6 150.3 503.2 284.5" xml:space="preserve">

<g id="Honduras">
	<g>
		<polygon fill="#0073CF" points="649.8,241.8 648.9,241.5 648,240.9 646.8,239.9 645.6,239.2 644.2,239.8 643.8,241.3 645,242
			646.7,242.6 647.6,243.5 648.3,244 651.8,245.2 653.1,245.4 652.7,246.2 652.7,246.3 659,246.3 658.5,246.2 		"/>
		<polygon fill="#0073CF" points="412.6,166.6 413.8,165.9 415.3,165.4 418.3,164.7 419.7,164.1 423.2,161.8 428.7,159.2 430,158.7
			430.7,158.6 432.1,158.9 432.8,158.8 433.3,158.6 434.4,157.9 435,157.6 436.4,157.4 439.6,157.4 441.1,157.3 442.4,156.8
			441.7,156.7 438.7,156.7 434.4,155.8 432.9,155.8 426.5,157.2 424.5,158 419.3,161 415,162.7 411.5,164.4 409,166.6 409.6,169.1
			410.7,168.4 		"/>
		<polygon fill="#0073CF" points="325.3,410.6 325.8,411.5 326.1,411.9 325.6,411.9 325.6,412.4 325.9,412.7 326.3,412.8 327.2,413
			329,412.7 329.9,411.5 330,410.3 329.8,409.7 327.4,409.6 326.3,409.8 325,410.2 		"/>
		<polygon fill="#0073CF" points="389.2,180.7 388.3,180.6 387.2,180.9 386,181.1 384.8,180.7 380.4,182.9 380.1,184.1 381.4,184.6
			383.1,184.7 384.3,184.5 386.4,183.7 387.7,183.4 389.2,183.4 389,182.5 389.7,181.2 		"/>
		<polygon fill="#0073CF" points="469.7,154.1 470.6,153.8 471.2,152.3 472.7,151.7 473.3,151.1 473.3,150.5 472.5,150.3
			469.5,150.4 468.4,150.8 467.2,151.9 466.2,153.2 464.7,155.7 463.9,156.9 463.9,158 466.6,155.5 468.1,154.5 		"/>
		<polygon fill="#0073CF" points="333.4,403.1 332.2,403.1 330,403.6 329.2,403.3 328.2,403 327.5,403.4 326.4,404.9 326.2,406.3
			328,407.3 331.7,408.5 332.9,407.4 332,404.2 333.4,403.6 		"/>
		<polygon fill="#0073CF" points="620.5,245.4 621.2,244.1 620.8,242.9 619.8,241.8 618.7,240.9 619.5,243.3 618.7,244.1 617,243.7
			614.9,242.6 613.6,241.2 612.2,239 611.6,236.9 612.4,236 614.2,235.3 613.7,233.4 612.4,231.3 611.3,228.7 610.5,228.2
			609.8,228.5 609,230.7 607.4,231.4 607.2,232.7 606.6,232.7 606.8,231.7 607.1,230.8 607,230.1 605.6,229.6 605,229 604.4,227.2
			605.4,227.3 606.8,227.6 607.7,227.7 609.1,227.2 610.2,227 611.1,227.2 612,228.1 614.4,232.7 614.9,232.7 615.1,232.4
			615.2,232.3 615.3,232.3 615.5,232.1 614.5,230.9 613.5,229.4 613,228 613.2,227.2 613.8,227 614.8,227.1 615.7,227.2 616,227.4
			615.9,227.9 615.4,228.4 614.4,229.3 616.6,230.1 617.1,230.4 618.3,229.7 618.9,229 619.6,228.5 621.3,228.3 622.3,228.7
			623.4,229.7 624.5,230.3 625.4,229.9 626,229.9 628.6,232.8 629.3,233.8 628.9,233.9 628.6,234.1 628.2,234.3 629.2,235.2
			630.2,235.4 632.7,235.4 633.4,235.8 635,236.8 637.2,237.6 640.3,239.9 641.7,240.4 642.9,240.3 643.4,239.9 643.4,239.2
			642.8,238.5 642.1,238.1 639.3,237.6 637.8,237 636.3,236.2 630.9,231.4 626.4,227.9 618.1,220.2 608.7,213 604.2,207.9
			601.6,206.6 600.9,205.5 600.3,204.8 599.3,204.5 588.3,203.6 575.5,201.2 574.6,201.1 574,201.7 575,202.2 587.3,204.5
			588.9,205.6 585,205.6 583.1,206.2 583.4,207.7 579.2,207.9 577.5,207.5 576.8,205.8 576.3,205.3 575.4,206.3 574.7,207.6
			574.8,208.3 573.2,208.4 572.6,208.1 571.8,207.2 571.2,206 570.8,204.3 571,202.8 572.5,202 571.8,201.4 570.1,200.6 567.3,200
			554,194.5 544.4,191.8 540.9,191.9 538.8,192 531.6,196.6 529.2,197.5 526.4,198 513.6,198.5 503.4,199.4 500.1,199 497.1,198.4
			491.9,196.4 490.7,196.1 489.5,195.6 488.2,194.6 487.1,194.1 486.6,195 486.4,195.2 486.1,195.3 486,195.6 486,196.1
			485.4,196.1 485.2,195.3 485.2,194.2 485,193.2 484.1,192.8 482.8,192.6 480.8,191.4 479.7,191.1 475.2,190.6 473,189.9
			471.6,188.9 470.7,189.4 469,189.7 468.3,190.1 461.6,188.3 459.5,188.4 459.1,189.3 461.6,189.9 466.7,190.6 468,192.3
			467.2,194.2 465.5,196.1 462.4,198.3 461.6,198.7 460.6,199 449,199.4 446.2,200 443.4,201.1 442.5,201.8 440.5,204 432.8,208.6
			431.5,209.2 429.9,209.4 427.9,209.3 426.7,209 424.8,207.8 424.6,207.7 422.2,206.7 419.5,206.7 403.7,208 400.3,207.7
			399.9,207.4 398.9,206.9 397.9,206.6 397.5,206.9 397.2,207.1 395.8,208.1 395.6,208.3 394.2,208.5 389.2,210 386.1,210.3
			383.3,210 374.7,208.1 367.2,207.3 359.9,204.9 351.6,203 350,203.2 348.8,203.9 348.3,205.3 347.9,205.6 345.8,205.5 345,205.6
			344.6,206 343.8,207.3 343.3,207.7 340.7,208.2 338.3,207.2 330.7,200.6 330.3,200 329.6,199.5 330.2,198.2 331.7,196.1
			328.9,197.8 328.1,198.7 328.9,199.5 328.9,200 327.5,199.9 323.9,197.8 322.6,197.3 321.1,197.2 320.6,197.3 320,197.5
			319.5,198.7 318.1,199.1 311.1,199.5 308.8,200.3 307.4,201.2 306.1,201.6 302.7,201.7 302.4,201.9 302.7,202.5 303.4,203.1
			304.3,203.3 304.8,203.7 304.6,204.5 304,205.6 299.3,208.3 296.2,207.9 295.4,208.2 295.8,209.4 293.8,210.7 289.1,215.5
			287,216.4 285,215.8 281.4,213.3 280.8,213.1 279.9,213.4 279.6,214.1 279.7,215 279.7,215 279.1,216.1 278.6,215.5 277.3,216.1
			276.1,216.7 274.8,217.2 273.1,217.2 272.6,217.8 270.2,221.9 266.4,225.4 260.9,229.6 258.3,231.6 258.3,231.6 238.7,246.3
			621.3,246.3 		"/>
		<polygon fill="#0073CF" points="636.6,245.7 635.7,245 633.3,244.6 632,244 630.9,243.2 630.4,242.3 629.3,240.7 622.1,237.6
			620.2,238.3 619.5,238.7 618.7,239.3 619.7,240 621.5,242.6 622.6,243.2 628.7,245.3 629.6,245.4 630.3,245.6 630.7,246
			630.9,246.3 637.2,246.3 		"/>
		<polygon fill="#0073CF" points="238.4,348.1 239.6,348.9 241.4,349.2 241.7,349.3 242.3,349.8 242.7,350.3 242.9,351 242.9,351.6
			243.4,351.4 245.4,351.1 247.5,351.2 253.6,353.1 257.2,353.4 257.9,353.7 258.7,354.4 258.7,354.4 258.6,354.6 258.6,354.8
			258.5,354.9 258.5,354.9 258.3,354.9 258.1,354.9 258.2,355.1 258.6,355.9 258.5,356.9 258.3,357.9 258.1,359.1 258.3,359.8
			259.2,361.9 259.3,363.2 258.5,364.4 258.5,364.4 260.7,364.3 262.2,363.4 263.7,362.8 266.9,362.1 267.7,362.1 269,362.6
			269.6,362.7 269.7,362.4 269.7,362.2 269.7,362 269.7,361.5 270,361.2 270.5,361.1 271.2,361.2 271.5,361.3 271.8,361.4
			272.1,361.5 272.3,361.6 272.9,360.6 273.8,360.3 274.2,360.3 274.7,360.3 275.6,360 276.2,359.4 276.5,358.9 276.8,358.3
			277.4,357.8 278.3,357.4 279,357.5 279.6,357.4 280,356.3 279.8,356 279.1,355.4 278.9,355.1 278.8,353.5 278.9,353.2
			279.7,352.9 280.9,353.1 281.1,353.1 283,353.5 284.3,353.6 288.5,353.1 290.7,353.2 291.6,353.9 292.8,356.9 293.4,357.6
			293.9,358.3 294.7,359 295.4,359.6 296.1,360.4 296.7,361.2 297.4,363.2 301.1,361.4 302.3,361 302.9,361.2 304.1,361.9
			304.7,362.1 305,361.9 306.1,361.1 306.7,360.9 307.5,361 309.1,361.3 309.9,361.2 310.7,360.7 311.3,359.9 312.1,359.2
			313.3,359.2 314.1,359.7 314.9,361.9 315.5,362.8 316,363.1 317.1,363.5 317.6,363.8 318.9,364.9 321.2,366.7 322.6,367.3
			321.8,368.5 320.2,372.1 319.8,373.4 319.8,373.4 320.3,374.8 319.9,375.7 319.1,376.4 318.4,377.4 318.1,378.8 318.2,381.8
			318,383.3 316.1,387.8 315.6,390.1 315.6,390.1 316,391 316.4,391.9 317.3,392.2 318.1,391.9 319,391.7 320.2,392.1 320.8,392.8
			321.2,393.8 321.3,394.9 321.3,394.9 321.2,395.9 319.8,397.4 313.4,400.3 314.6,400.7 315.2,400.8 315.9,400.9 316.2,401.1
			316.2,401.7 316.4,402.2 317.9,402.7 319.8,403.9 321.2,404.1 323.5,403.5 325.7,401.9 326.9,399.8 326.1,397.5 326.9,396.6
			328.1,395.7 329.1,395.5 329.5,396.7 329.2,399 329.4,399.8 330.6,400.3 329.6,402.3 329.5,403.1 330.1,403.1 331.1,402.1
			332.5,402.2 334.1,402.8 335.6,403.1 335.6,403.6 334.5,403.6 334.5,404.1 335.2,404.5 336,404.4 337.2,404.1 340,404.2
			340.5,404.1 341.3,403.5 341.2,403 341,402.5 341.1,401.4 341.5,400.6 341.9,400.1 343.3,399.2 344.1,399.9 344.7,400.1
			346.4,399.8 347.1,399.9 347.6,400.3 348.8,401.4 348.8,401.4 348.7,401.9 348.7,402.4 348.8,403.1 346.2,404.1 345,404.4
			343.9,404.1 343.3,404.6 341.7,406.9 341,407.5 339.6,408.1 338.9,408.5 338.2,409.3 338.1,410 338.4,410.6 338.9,411.3
			339.3,411.5 339.9,411.3 340.3,411.3 340.5,411.6 340.6,411.7 341.1,413 342.7,415 344.3,417.8 345.4,421 345.6,424.1
			346.1,424.1 347.6,423.7 350.2,424 354.9,425.2 354.1,425.4 351.6,425.8 351.1,426 351,427.3 351.1,427.7 351.6,428.5
			352.7,429.7 353.9,430.3 355.5,430.7 357.7,430.7 357.7,431.2 356.6,431.6 355.7,432.2 355.2,433 354.9,434 354.1,434.6
			372.5,433.4 373.7,433.5 375.6,434.7 376.5,434.7 377,433.4 378.7,432.6 380.7,431.3 381.6,430.4 383.5,427.5 384,427.1
			384.6,426.8 385.2,426.5 385.4,426.3 385.6,426.1 385.8,425.3 385.8,425.3 385.5,425 385.3,424.9 385,424.8 384.8,424.3
			385.5,420.1 385.4,419.9 384.8,418.6 384.6,418.1 384.6,418.1 384.8,417.9 385.3,415.6 385.9,414.5 386.6,413.8 390.5,410.5
			391.5,409.8 392.8,409.4 394.2,409.5 398.9,411.8 399.6,412 400.4,411.8 401,411.4 401.5,411 402.6,410 403.3,409 403.4,407.7
			403.4,407.7 403,405.4 402.9,405.2 402.8,404.9 402.5,404.4 402.2,403.9 401.7,403.4 401.1,403.3 400.6,403.1 400.3,402.3
			400.5,401.1 401.5,398.9 401.6,397.6 399,387.9 399,386.6 399.2,385.3 399.5,384 399.4,382.7 399.1,382.2 398.5,381.7
			398.4,381.7 398.1,381.4 397.8,381 397.6,380.2 397.8,376 397.9,374.5 398.1,373.4 398.2,372.9 398.6,372.6 399.6,372
			401.4,371.1 403.1,370.9 406.6,371.4 413.2,370.1 416.4,370 419,371.4 420.5,371.8 421.6,371.4 422.7,370.9 423.9,370.7
			425.2,372 425.7,372.3 426.4,372.5 427,372.6 431.2,372.4 432.6,372 433.8,371.4 434.8,370.4 435,369.8 435.2,369.2 435.9,366.8
			437.2,364.8 439.8,362.1 442.4,359.3 445.2,355 446.1,354.5 447,354.1 448,353.6 449,352.7 449.5,351.6 449.8,350.9 450.3,350.2
			451.2,349.4 452.3,348.8 458.5,347.9 458.4,348.8 457.6,350.5 457.8,352.7 463.5,356.7 465.3,359 465.8,359.5 466.9,359.8
			467.7,359.7 468.4,359.4 469.5,359.3 471.3,360.1 472.2,361.5 473,363.1 474.3,364.7 476.1,365.3 478,365.2 479.6,365.3
			480.7,366.5 480.9,366.6 481.6,365.9 482.3,364.6 482.5,363.4 482,362.5 480.8,362.1 480.5,361.4 480.8,359.8 481.6,357.4
			481.7,355.6 482.1,355.2 482.9,355.4 484.4,355.5 485.4,355 487,353.6 487.7,353.8 488.2,353.8 488.2,353.4 488.3,353.3
			488.5,353.4 488.8,353.3 488.5,352.4 488.5,352.4 489.9,352 491.3,351.6 492.1,350.8 492.9,349.7 494.7,349.1 495.1,349
			495.4,349 496.7,348.7 498.2,348.3 498.6,347.7 238.4,347.7 		"/>
		<path fill="#FFFFFF" d="M652.6,246.5l0.5,0.5l1.4-0.6l1.2,0.3l2.4,1.4l1.5-0.7l1,0.9l0.6,1.5l0.3,1.1l0.3,0.8l0.5,0.5l0.5,0.4
			l0.3,0.5l0.4,0.9l0,0.3l-3.6,1.3l-0.6,0.4l-0.5,0.5l-0.7,1.2l-0.4,0.5l-1.6,0.6l-1-0.5l-0.6-1.4l-0.2-2h-0.6l-0.3,0.5l-0.2,0.5
			l0.1,0.5l0.4,0.7l-0.5,0.4l-0.5,0.2l-0.5-0.1l-0.2-0.7l0.1-0.9l0.3-0.4l0.4-0.3l0.4-0.4l0.5-1.2l0.4-0.7l0.5-0.3l0.7,0l0.8,0.2
			l0.7,0.3l0.3,0.4l0.4,1.4l0.9,0.4l0.9-0.5l0.4-1.2V251l-0.2-0.6l-0.3-0.4l-0.1-0.3l0.5-0.5v-0.5l-1.4,0.3l-5.2-1l-0.6-0.2l-0.5,0
			l-0.5,0.3l-0.1,0.6l0.2,1.8l-0.4,0.4l-2.9,0.4l-1.7,0.5l-1.3,0.7l-1.4,2.3l-0.7,0.4l-0.7-1.6H642l0,1.1l-0.4,0.6l-0.6,0l-0.6-0.6
			l-0.2-0.8l0.2-3l-0.6-2.4l-0.9,0.1l-1.1,0.8l-1.3-0.3v-0.5l0.5-0.2l0.7-0.6l0.5-0.3l-0.7-1l-0.2-0.3h-6.3l0.1,0.2l0.6,0.6l3.4,1.8
			l1,1l-1.2,0.9l-1.8,0.7l-1.9,0.5l-1.5,0.2l-1.7-0.4l-1.3-0.9l-1-1.3l-0.7-1.4v-0.5l0.9-0.4l0.5-0.1l0.8,0v-0.5l-4,0.5l-1.6-0.3
			l-0.3-0.4H238.7l-1.4,1.1l-17.2,12.9l-2.8,1.3l-8.2,2.7l-2.5,1.2l-0.4,0.3l-0.1,0.1l-0.3,0.2l-0.8,0.7l-1,1.5l-1.3,3.7l0,0
			l1.6,1.4l0,2.1l-1,2.3l-1.4,1.9l-2,1.7l-0.6,0.9l-0.1,1.5v0l0.4,1.1l0.7,1l1.6,1.9l0.8,1.2l1.5,3.6l0.9,1.1l0.7,0.6l0.4,0.6
			l0.1,0.2l0.1,1.4l0,0l-0.2,0.6l-0.9,0.9l-0.3,0.5l0,0l0.3,4.1l0,1.4l-0.4,1.3l-0.9,0.9l-0.9,0.1l-2-0.7l-1-0.2l-1.4,0.2l-0.6,0.4
			l-0.4,0.6l-0.7,0.9l-2.5,2.1l-1.1,1.2l-0.8,1.4l-0.7,0.7l-1.8,0.4l-0.8,0.5l-0.5,1.1l-0.1,1.3l0,0l0.2,2.5v0l4.4,0.7l2.5,1.2
			l4.1,0.9l2,1.4l3.7,1.1l0.4-0.3l0.4-0.3l1.2-2.2l0.6-0.6l0.7-0.2l0.5,0.1l0.4,0.4l0.5,0.6l0.4,0.7l0.2,0.8l-0.1,0.8l-0.3,0.8
			l0.9,0.8l2.7,0.3l1.3,0.6l0.5,1l0.3,2.5l0.4,0.7l2,1.5l0.7,0.9l0.7,1.2l0.2,0.5l0.2,0.5l0,0.3l0.1,0.4l0,0.3l0.3,0.9l0.7,0.5
			l0.8-0.2l1-0.5l1.1-0.5l1.3,0l2,1.2l1.7,2.1l1.2,2.4l0.5,2.3l1.4-0.2l3.5,0.3l1-0.4l0.8-0.5l0.4,0l0.4,0l0.6,0.9l0,0l-0.1,1.4
			l-0.5,1.3l0,0.7h260.2l0.4-0.5l0.2-1.3l0.5-1.1l2.9-0.8l1.4-0.8l1-0.8l1-0.8l0.9-1.1l0.9-1.6l0.7-1.5l0.6-2.1l0.8-1.3l0.5-0.6
			l0.5-0.6l0.4-0.4l0.4-0.3l-7-5.1l-9.9,7.2l3.8-11.7l-9.9-7.2h12.3l3.8-11.7l3.8,11.7h12.3l-9.9,7.2l2.9,8.9l0.1-0.2l0.6-0.7
			l0.3-0.5l0.4-0.4l0.8-0.2l1.9-0.9l0.8-0.2h3.1l2-0.4l2-0.6l1.7-1l0.9-1.3l-0.1-1.8l-1-1.6l-1.4-1.3l-1.3-0.8h0l2.2-1.7l0.1-0.5
			l-0.2-1.2l0.1-0.5l1.9-1.9l0.3-0.5l0.2-4.1l0.3-2.2l0.6-1.2l1.5,0.4l1.3,1.4l1.4,1l1.7-0.8l2.9-2.8l0.5-1.2l0.1-0.2h-2.1l0.5-0.6
			l1.8-1.6v0l-2.3-1.6l-0.4-0.8l1.3-0.3l0.4-0.2l0.3-0.5l0.4-3l0.7-1.3l1.1-1l0.2-0.1l0.5-0.3l0.7-0.5l1.4-1l3.7-3.5l0.7-0.4
			l0.7-0.4l2.4-0.4l2.4-0.4l2.1-0.1l2.1,0.6l1.8,1.3l1.2,1.9l0,0l-0.3,0.2l-0.6,0.8l0,0.2l1.6,0.2l0.2,1l-0.1,1.1l1.6,1.1l0.8,1.3
			l1.2,2.8l1.5-0.9l1.5,0.2l3.1,1.3l1.8,0.4l5.9,0.2l-0.3,0.6l-0.1,0.8l-0.1,0.8v0l1.2-0.4l0.9,0.5l0.8,0.7l1.2,0.4l0.9-0.3l2.1-1.1
			l3-1l1.5-1.8l0.6-1l0.6-1l1.1-1.5l0.8,0.8l0.6,2.1l0.6,0.4l1.2,0.1l2,0.4l0.9,0.1l1.7-0.8l0.4-1.8l-0.4-3.8v0l0.4-1l1-0.1l1.1,0.4
			l0.7,0.4l0.3,0.3l0.3,0.3l1.9,2l1,0.4l1.2-0.1l2-0.6l0.5-0.3l0.3-0.4l0.4-0.3l0.7-0.1l0.7,0.1l0.4,0.2l0.2,0l0.2,0l0.6-0.3v-0.6
			l-0.7-0.7l-0.6-0.7l-0.9-1.9l0.9-0.7l0.6,0l1.8,1.1l0.2,0.4l0.3,0.3l0.8,0.1l1.4,0l0.4,0.2l0.2,0.6l1.4,0.2l8-0.4l-0.4-0.7v0
			l0-0.7l0.2-0.9l0.2-0.9l0.5,0.3l0.5,0.3l0.6,0.7l0.7,0.7l1,0.3l-0.1-0.3l-0.4-0.8l0.6,0.2l0.3,0.1l0.3,0.2l0.5,0.6l1-0.9l0.7-0.4
			l0.7-0.4l1.6-0.5l0.7,0l0.7,0h0l-0.6-0.4l-0.4-0.4l-0.6-0.9l4.5-0.3l1.7-0.6l-0.2-1.3l0.5,0l0.5,0l0.4,0.1l0.4,0.1l0.6,0.4
			l0.3,0.7h0.6l-0.8-2.3l0,0l0.2-0.4l0.2-0.4l1.5-0.7l1.6-0.2l1.8,0.1l1.5,0.4l0.7,0.8h0.6l0.3-1l0.2-1.1l0.4-0.9l2-0.7l2-1.6
			l1.2-0.3l-0.2-0.3l-0.2-0.6l-0.2-0.3l1.2,0.3l0.5,0.2l-0.2-1.1l0.1-0.9l0.5-0.3l0.8,0.7l0-1.2l0.1-0.5l0.4-0.5l-0.5-0.8v0l0.3-0.4
			l0.8-0.1l1.1,0.2l0.4,0.4l1,1.5l0.7,0.4l1.9-0.2l1.6-1l1.3-1.3l0.8-1.4l1,0.8l0.5,0.2l0.5,0.2l0.4,0.3l0.4,0.3l0.4,1.1l1.2-0.8
			l1.4-0.1l3.6,0.4l-1,0.5l0,0.2l0,0.2v0l0.6,0.4l1,0.4l0.2,0l0.2,0l1.8,0l1.8,0l1.1-0.5l1.1-0.5l1.1-0.2l2.7,0.2l1.1-0.2l-10-3.8
			l-2.5-1.9l-2.1-3.1l-1.4-3.2l-1.3-5.2l-1-1.5l-4.2-3l-10.4-3.8h-6.3L652.6,246.5z M345.5,334.3l-9.9-7.2l-9.9,7.2l3.8-11.7
			l-9.9-7.2h12.3l3.8-11.7l3.8,11.7h12.3l-9.9,7.2L345.5,334.3z M341.7,272l3.8,11.7l-9.9-7.2l-9.9,7.2l3.8-11.7l-9.9-7.2h12.3
			l3.8-11.7l3.8,11.7h12.3L341.7,272z M429.9,310.7l-9.9-7.2l-9.9,7.2l3.8-11.7l-9.9-7.2h12.3l3.8-11.7l3.8,11.7h12.3l-9.9,7.2
			L429.9,310.7z M510.6,272l3.8,11.7l-9.9-7.2l-9.9,7.2l3.8-11.7l-9.9-7.2h12.3l3.8-11.7l3.8,11.7h12.3L510.6,272z"/>
		<polygon fill="#0073CF" points="423.8,291.8 420,280.1 416.2,291.8 403.9,291.8 413.9,299 410.1,310.7 420,303.5 429.9,310.7
			426.1,299 436.1,291.8 		"/>
		<polygon fill="#0073CF" points="504.4,253.1 500.7,264.8 488.4,264.8 498.3,272 494.5,283.6 504.4,276.4 514.4,283.6 510.6,272
			520.5,264.8 508.2,264.8 		"/>
		<polygon fill="#0073CF" points="520.5,315.4 508.2,315.4 504.4,303.8 500.7,315.4 488.4,315.4 498.3,322.6 494.5,334.3
			504.4,327.1 511.5,332.2 511.5,332.2 511.7,332.1 511.9,332.1 512.7,332.3 512.9,332.2 513.1,332.2 513.2,332 513.3,331.9
			513.5,331.5 510.6,322.6 		"/>
		<polygon fill="#0073CF" points="339.3,315.4 335.6,303.8 331.8,315.4 319.5,315.4 329.4,322.6 325.6,334.3 335.6,327.1
			345.5,334.3 341.7,322.6 351.6,315.4 		"/>
		<polygon fill="#0073CF" points="335.6,253.1 331.8,264.8 319.5,264.8 329.4,272 325.6,283.6 335.6,276.4 345.5,283.6 341.7,272
			351.6,264.8 339.3,264.8 		"/>
	</g>

		<path fill="none" stroke="#878787" stroke-width="0.25" stroke-linecap="round" stroke-linejoin="round" stroke-miterlimit="10" d="
		M681.8,268.1l-2.5-1.9l-2.1-3.1l-1.4-3.2l-1.3-5.2l-1-1.5l-4.2-3l-10.9-4l-8.7-4.4l-0.9-0.3l-1-0.6l-1.1-1.1l-1.3-0.7l-1.3,0.6
		l-0.5,1.5l1.2,0.7l1.7,0.5l0.8,0.9l0.7,0.5l3.5,1.2l1.3,0.2l-0.3,0.8l-0.2,0.3l0.5,0.5l1.4-0.6l1.2,0.3l2.4,1.4l1.5-0.7l1,0.9
		l0.6,1.5l0.3,1.1l0.3,0.8l0.5,0.5l0.5,0.4l0.3,0.5l0.4,0.9l0,0.3l-3.6,1.3l-0.6,0.4l-0.5,0.5l-0.7,1.2l-0.4,0.5l-1.6,0.6l-1-0.5
		l-0.6-1.4l-0.2-2h-0.6l-0.3,0.5l-0.2,0.5l0.1,0.5l0.4,0.7l-0.5,0.4l-0.5,0.2l-0.5-0.1l-0.2-0.7l0.1-0.9l0.3-0.4l0.4-0.3l0.4-0.4
		l0.5-1.2l0.4-0.7l0.5-0.3l0.7,0l0.8,0.2l0.7,0.3l0.3,0.4l0.4,1.4l0.9,0.4l0.9-0.5l0.4-1.2V251l-0.2-0.6l-0.3-0.4l-0.1-0.3l0.5-0.5
		v-0.5l-1.4,0.3l-5.2-1l-0.6-0.2l-0.5,0l-0.5,0.3l-0.1,0.6l0.2,1.8l-0.4,0.4l-2.9,0.4l-1.7,0.5l-1.3,0.7l-1.4,2.3l-0.7,0.4l-0.7-1.6
		H642l0,1.1l-0.4,0.6l-0.6,0l-0.6-0.6l-0.2-0.8l0.2-3l-0.6-2.4l-0.9,0.1l-1.1,0.8l-1.3-0.3v-0.5l0.5-0.2l0.7-0.6l0.5-0.3l-0.7-1
		l-0.8-0.9l-1-0.7l-2.3-0.5L632,244l-1.1-0.8l-0.5-0.9l-1.2-1.6l-7.2-3.1l-1.8,0.6l-0.8,0.4l-0.7,0.6l0.9,0.7l1.9,2.6l1,0.6l6.2,2.1
		l0.9,0.1l0.8,0.2l0.3,0.4l0.3,0.5l0.6,0.6l3.4,1.8l1,1l-1.2,0.9l-1.8,0.7l-1.9,0.5l-1.5,0.2l-1.7-0.4l-1.3-0.9l-1-1.3l-0.7-1.4
		v-0.5l0.9-0.4l0.5-0.1l0.8,0v-0.5l-4,0.5l-1.6-0.3l-1.1-1.3l0.7-1.3l-0.4-1.2l-1-1.1l-1.1-0.8l0.8,2.4l-0.8,0.8l-1.7-0.4l-2.1-1.1
		l-1.4-1.4l-1.4-2.2l-0.6-2l0.9-0.9l1.7-0.8l-0.5-1.8l-1.3-2.1l-1.1-2.6l-0.8-0.4l-0.8,0.2l-0.7,2.2l-1.6,0.7l-0.3,1.2h-0.6l0.2-1
		l0.3-0.9l0-0.7l-1.5-0.5L605,229l-0.6-1.8l1,0.1l1.4,0.3l1,0.1l1.4-0.5l1.1-0.2l0.9,0.1l0.9,1l2.4,4.5h0.6l0.2-0.3l0.1-0.1l0.1-0.1
		l0.2-0.2l-1-1.2l-0.9-1.5L613,228l0.2-0.9l0.6-0.1l0.9,0l0.9,0.1l0.4,0.2l-0.2,0.5l-0.4,0.5l-1,0.9l2.2,0.8l0.5,0.3l1.1-0.8
		l0.6-0.7l0.8-0.5l1.7-0.2l1,0.5l1.1,0.9l1.1,0.6l0.9-0.4h0.6l2.7,2.9l0.7,1l-0.4,0.1l-0.3,0.2l-0.4,0.1l0.9,0.9l1.1,0.2l2.4,0
		l0.8,0.3l1.5,1.1l2.3,0.8l3.1,2.3l1.4,0.5l1.2-0.2l0.5-0.4l-0.1-0.6l-0.5-0.8l-0.7-0.4l-2.8-0.5l-1.5-0.6l-1.5-0.9l-5.4-4.7
		l-4.6-3.5l-8.2-7.7l-9.4-7.2l-4.6-5l-2.5-1.3l-0.7-1.1l-0.7-0.7l-1-0.3l-10.9-0.8l-12.8-2.5l-1-0.1l-0.6,0.6l1,0.5l12.3,2.3
		l1.6,1.1H585l-1.8,0.6l0.3,1.5l-4.2,0.2l-1.7-0.4l-0.7-1.7l-0.4-0.5l-0.9,1l-0.7,1.4l0.1,0.7l-1.6,0.1l-0.6-0.3l-0.8-0.9l-0.6-1.3
		l-0.4-1.7l0.2-1.5l1.5-0.9l-0.7-0.5l-1.7-0.9l-2.8-0.6l-13.4-5.5l-9.6-2.7l-3.5,0.1l-2.1,0.1l-7.2,4.6l-2.4,0.9l-2.8,0.5l-12.7,0.5
		l-10.2,0.9l-3.3-0.4l-3-0.7l-5.2-1.9l-1.2-0.3l-1.2-0.5l-1.3-1l-1.1-0.5l-0.6,0.9l-0.2,0.2l-0.2,0.1l-0.2,0.3l0,0.5h-0.6l-0.2-0.9
		l0-1.1l-0.2-0.9l-0.9-0.4l-1.3-0.3l-2-1.2l-1.1-0.3l-4.5-0.6l-2.3-0.7l-1.3-0.9l-0.9,0.4l-1.8,0.3l-0.6,0.4l-6.7-1.8l-2.1,0.2
		l-0.4,0.9l2.4,0.6l5.1,0.7l1.3,1.6l-0.7,2l-1.7,1.8l-3.1,2.2l-0.8,0.4l-1,0.3l-11.5,0.4l-2.8,0.7l-2.8,1.1l-0.9,0.7l-2,2.1
		l-7.7,4.6l-1.3,0.6l-1.6,0.2l-2-0.1l-1.3-0.3l-1.9-1.2l-0.2-0.1l-2.5-1l-2.7-0.1l-15.8,1.3l-3.4-0.3l-0.4-0.3l-1-0.5l-1-0.3
		l-0.5,0.4l-0.3,0.2l-1.3,1l-0.2,0.2l-1.4,0.2l-5,1.4l-3.1,0.3l-2.9-0.2l-8.6-1.9l-7.5-0.8l-7.3-2.5l-8.3-1.9l-1.6,0.2l-1.2,0.7
		l-0.5,1.4l-0.4,0.3l-2.1-0.1l-0.8,0.1l-0.4,0.4l-0.8,1.3l-0.4,0.5l-2.6,0.5l-2.4-1l-7.5-6.6l-0.4-0.6l-0.7-0.6l0.6-1.3l1.5-2.1
		l-2.8,1.7l-0.8,0.9l0.8,0.8v0.5l-1.4-0.1l-3.6-2.1l-1.4-0.5l-1.4-0.2l-0.5,0.2l-0.6,0.2l-0.5,1.1l-1.5,0.4l-6.9,0.5l-2.4,0.8
		l-1.3,0.9l-1.4,0.4l-3.4,0.1l-0.3,0.3l0.3,0.6l0.7,0.6l0.9,0.3l0.5,0.4l-0.2,0.8l-0.6,1.1l-4.7,2.8l-3.2-0.4l-0.8,0.3l0.4,1.3
		l-2,1.2l-4.7,4.8l-2.1,0.9l-2-0.6l-3.7-2.5l-0.5-0.2l-1,0.3l-0.3,0.7l0.1,0.9v0l-0.5,1.1l-0.5-0.6l-1.4,0.6l-1.2,0.6l-1.3,0.5
		l-1.7,0l-0.5,0.6l-2.4,4.1l-3.7,3.6l-5.6,4.2l-2.6,2v0l-21,15.8l-17.2,12.9l-2.8,1.3l-8.2,2.7l-2.5,1.2l-0.4,0.3l-0.1,0.1l-0.3,0.2
		l-0.8,0.7l-1,1.5l-1.3,3.7l0,0l1.6,1.4l0,2.1l-1,2.3l-1.4,1.9l-2,1.7l-0.6,0.9l-0.1,1.5v0l0.4,1.1l0.7,1l1.6,1.9l0.8,1.2l1.5,3.6
		l0.9,1.1l0.7,0.6l0.4,0.6l0.1,0.2l0.1,1.4l0,0l-0.2,0.6l-0.9,0.9l-0.3,0.5l0,0l0.3,4.1l0,1.4l-0.4,1.3l-0.9,0.9l-0.9,0.1l-2-0.7
		l-1-0.2l-1.4,0.2l-0.6,0.4l-0.4,0.6l-0.7,0.9l-2.5,2.1l-1.1,1.2l-0.8,1.4l-0.7,0.7l-1.8,0.4l-0.8,0.5l-0.5,1.1l-0.1,1.3l0,0
		l0.2,2.5v0l4.4,0.7l2.5,1.2l4.1,0.9l2,1.4l3.7,1.1l0.4-0.3l0.4-0.3l1.2-2.2l0.6-0.6l0.7-0.2l0.5,0.1l0.4,0.4l0.5,0.6l0.4,0.7
		l0.2,0.8l-0.1,0.8l-0.3,0.8l0.9,0.8l2.7,0.3l1.3,0.6l0.5,1l0.3,2.5l0.4,0.7l2,1.5l0.7,0.9l0.7,1.2l0.2,0.5l0.2,0.5l0,0.3l0.1,0.4
		l0,0.3l0.3,0.9l0.7,0.5l0.8-0.2l1-0.5l1.1-0.5l1.3,0l2,1.2l1.7,2.1l1.2,2.4l0.5,2.3l1.4-0.2l3.5,0.3l1-0.4l0.8-0.5l0.4,0l0.4,0
		l0.6,0.9l0,0l-0.1,1.4l-0.5,1.3l0,1.1l1.3,0.8l1.7,0.2l0.4,0.1l0.6,0.5l0.4,0.5l0.2,0.7l0,0.6l0.5-0.2l2.1-0.3l2.1,0.1l6.1,1.9
		l3.6,0.3l0.8,0.3l0.7,0.7h0l-0.1,0.3l0,0.2l-0.1,0l-0.1,0l-0.2,0l-0.2,0l0.1,0.2l0.4,0.8l-0.1,0.9l-0.3,1l-0.2,1.2l0.2,0.8l0.9,2.1
		l0.1,1.3l-0.7,1.1h0l2.2-0.1l1.5-0.9l1.5-0.6l3.3-0.7l0.8,0l1.3,0.5l0.6,0.1l0.1-0.2l0-0.2l0-0.2l0.1-0.5l0.3-0.3l0.5,0l0.6,0.1
		l0.3,0.1l0.3,0.1l0.3,0.1l0.3,0.1l0.6-1l0.9-0.3l0.5,0l0.5,0l0.9-0.3l0.6-0.6l0.3-0.5l0.3-0.5l0.5-0.6l1-0.4l0.7,0.1l0.5-0.1
		l0.4-1.1l-0.1-0.2l-0.7-0.7l-0.2-0.3l-0.1-1.6l0-0.3l0.8-0.3l1.2,0.1l0.2,0.1l1.9,0.4l1.3,0l4.2-0.5l2.1,0.1l0.9,0.7l1.2,3l0.6,0.7
		l0.6,0.7l0.7,0.7l0.7,0.7l0.7,0.8l0.7,0.8l0.7,2l3.7-1.8l1.2-0.3l0.6,0.1l1.2,0.8l0.6,0.2l0.4-0.2l1-0.8l0.6-0.2l0.8,0l1.6,0.3
		l0.8-0.1l0.8-0.5l0.7-0.8l0.8-0.7l1.2-0.1l0.8,0.6l0.8,2.1l0.7,1l0.4,0.2l1.1,0.4l0.5,0.3l1.3,1.1l2.3,1.9l1.4,0.6l-0.7,1.2
		l-1.6,3.7l-0.4,1.3v0l0.5,1.3l-0.4,0.9l-0.8,0.7l-0.7,1l-0.3,1.4l0.1,3l-0.2,1.5l-1.9,4.6l-0.5,2.2v0l0.4,0.9l0.4,0.9l0.8,0.3
		l0.9-0.3l0.9-0.3l1.2,0.4l0.6,0.7l0.4,1l0.1,1.1v0l-0.2,1l-1.4,1.5l-6.3,2.8l1.2,0.4l0.5,0.1l0.8,0l0.3,0.3v0.6l0.1,0.6l1.5,0.5
		l1.9,1.1l1.4,0.3l2.3-0.6l2.2-1.6l1.2-2.1l-0.7-2.3l0.8-0.9l1.1-0.9l1-0.2l0.4,1.2l-0.3,2.3l0.3,0.9l1.1,0.4l-0.9,2l-0.2,0.8h0.6
		l1-1l1.4,0.1l1.6,0.6l1.5,0.3v0.5h-1.2v0.6l0.8,0.3l0.7,0l1.3-0.3l2.8,0.1l0.5-0.1l0.8-0.6l-0.1-0.4l-0.3-0.6l0.1-1.1l0.4-0.8
		l0.4-0.4l1.4-1l0.8,0.8l0.6,0.1l1.6-0.3l0.7,0.2l0.6,0.4l1.2,1.1l0,0l-0.1,0.5l0,0.5l0.1,0.7l-2.6,1l-1.3,0.3l-1.1-0.2l-0.6,0.5
		l-1.6,2.2l-0.7,0.6l-1.4,0.6l-0.7,0.4l-0.7,0.8l-0.1,0.7l0.3,0.7l0.6,0.7l0.4,0.1l0.5-0.1l0.5,0l0.2,0.3l0.1,0.1l0.5,1.3l1.6,2
		l1.6,2.8l1.1,3.2l0.2,3.1h0.5l1.5-0.4l2.6,0.3l4.7,1.2l-0.8,0.2l-2.5,0.4l-0.5,0.2l-0.1,1.3l0.1,0.4l0.5,0.8l1.1,1.2l1.2,0.7
		l1.6,0.3l2.2,0.1v0.5l-1.1,0.4l-0.9,0.6l-0.6,0.8l-0.2,1l-0.8,0.5l18.4-1.2l1.2,0.1l1.9,1.1l1,0.1l0.4-1.3l1.7-0.8l2.1-1.3l0.9-1
		l1.9-2.9l0.5-0.4l0.6-0.3l0.6-0.3l0.2-0.2l0.2-0.2l0.2-0.8l0,0l-0.3-0.3l-0.2-0.1l-0.2-0.1l-0.2-0.5l0.7-4.2l-0.1-0.2l-0.6-1.3
		l-0.1-0.5v0l0.1-0.2l0.6-2.3l0.6-1.1l0.7-0.8l3.9-3.3l1.1-0.7l1.3-0.4l1.4,0.1l4.6,2.2l0.8,0.2l0.8-0.2l0.6-0.4l0.6-0.4l1.1-1
		l0.6-1.1l0.2-1.2v0l-0.5-2.3l-0.1-0.2l-0.1-0.2l-0.3-0.5l-0.3-0.5l-0.5-0.5l-0.6-0.1l-0.5-0.2l-0.3-0.8l0.1-1.2l1-2.2l0.1-1.3
		l-2.6-9.7l0-1.4l0.2-1.3l0.3-1.3l-0.1-1.3l-0.3-0.5l-0.6-0.4l-0.1-0.1l-0.4-0.3l-0.3-0.4l-0.2-0.7l0.2-4.3l0.1-1.4l0.2-1.1l0.1-0.5
		l0.4-0.3l0.9-0.6l1.8-0.9l1.7-0.1l3.5,0.4l6.6-1.2l3.2-0.2l2.7,1.4l1.4,0.4l1.2-0.4l1.1-0.6l1.2-0.2l1.3,1.3l0.5,0.3l0.8,0.2
		l0.6,0.1l4.2-0.3l1.5-0.4l1.2-0.6l0.9-1l0.2-0.6l0.2-0.6l0.6-2.4l1.3-2l2.6-2.8l2.6-2.8l2.8-4.2l0.8-0.5l1-0.4l1-0.5l0.9-1l0.6-1
		l0.3-0.8l0.4-0.7l0.9-0.8l1.1-0.6l6.2-0.9l0,0.9l-0.9,1.7l0.2,2.1l5.7,4l1.8,2.3l0.5,0.5l1.1,0.4l0.7-0.2l0.7-0.3l1.1-0.1l1.8,0.8
		l0.9,1.4l0.8,1.7l1.3,1.5l1.8,0.6l1.9-0.1l1.6,0.1l1.1,1.2l0.2,0.1l0.7-0.7l0.7-1.3l0.2-1.2l-0.5-0.9l-1.2-0.4l-0.3-0.7l0.3-1.6
		l0.8-2.4l0.1-1.8l0.4-0.4l0.8,0.2l1.4,0.1l1-0.5l1.6-1.4l0.7,0.2h0.5l0-0.4l0.1-0.1l0.2,0l0.2-0.1l-0.3-0.8h0l1.4-0.4l1.4-0.4
		l0.8-0.8l0.8-1.1l1.8-0.6l0.5-0.1l0.3,0l1.3-0.2l1.5-0.5l0.8-1.1l0.2-1.3l0.5-1.1l2.9-0.8l1.4-0.8l1-0.8l1-0.8l0.9-1.1l0.9-1.6
		l0.7-1.5l0.6-2.1l0.8-1.3l0.5-0.6l0.5-0.6l0.4-0.4l0.4-0.4l0.2,0l0.2,0l0.9,0.1l0.2,0l0.2,0l0.1-0.1l0.1-0.1l0.2-0.6l0.6-0.7
		l0.3-0.5l0.4-0.4l0.8-0.2l1.9-0.9l0.8-0.2h3.1l2-0.4l2-0.6l1.7-1l0.9-1.3l-0.1-1.8l-1-1.6l-1.4-1.3l-1.3-0.8h0l2.2-1.7l0.1-0.5
		l-0.2-1.2l0.1-0.5l1.9-1.9l0.3-0.5l0.2-4.1l0.3-2.2l0.6-1.2l1.5,0.4l1.3,1.4l1.4,1l1.7-0.8l2.9-2.8l0.5-1.2l0.1-0.2h-2.1l0.5-0.6
		l1.8-1.6v0l-2.3-1.6l-0.4-0.8l1.3-0.3l0.4-0.2l0.3-0.5l0.4-3l0.7-1.3l1.1-1l0.2-0.1l0.5-0.3l0.7-0.5l1.4-1l3.7-3.5l0.7-0.4l0.7-0.4
		l2.4-0.4l2.4-0.4l2.1-0.1l2.1,0.6l1.8,1.3l1.2,1.9l0,0l-0.3,0.2l-0.6,0.8l0,0.2l1.6,0.2l0.2,1l-0.1,1.1l1.6,1.1l0.8,1.3l1.2,2.8
		l1.5-0.9l1.5,0.2l3.1,1.3l1.8,0.4l5.9,0.2l-0.3,0.6l-0.1,0.8l-0.1,0.8v0l1.2-0.4l0.9,0.5l0.8,0.7l1.2,0.4l0.9-0.3l2.1-1.1l3-1
		l1.5-1.8l0.6-1l0.6-1l1.1-1.5l0.8,0.8l0.6,2.1l0.6,0.4l1.2,0.1l2,0.4l0.9,0.1l1.7-0.8l0.4-1.8l-0.4-3.8v0l0.4-1l1-0.1l1.1,0.4
		l0.7,0.4l0.3,0.3l0.3,0.3l1.9,2l1,0.4l1.2-0.1l2-0.6l0.5-0.3l0.3-0.4l0.4-0.3l0.7-0.1l0.7,0.1l0.4,0.2l0.2,0l0.2,0l0.6-0.3v-0.6
		l-0.7-0.7l-0.6-0.7l-0.9-1.9l0.9-0.7l0.6,0l1.8,1.1l0.2,0.4l0.3,0.3l0.8,0.1l1.4,0l0.4,0.2l0.2,0.6l1.4,0.2l8-0.4l-0.4-0.7v0l0-0.7
		l0.2-0.9l0.2-0.9l0.5,0.3l0.5,0.3l0.6,0.7l0.7,0.7l1,0.3l-0.1-0.3l-0.4-0.8l0.6,0.2l0.3,0.1l0.3,0.2l0.5,0.6l1-0.9l0.7-0.4l0.7-0.4
		l1.6-0.5l0.7,0l0.7,0h0l-0.6-0.4l-0.4-0.4l-0.6-0.9l4.5-0.3l1.7-0.6l-0.2-1.3l0.5,0l0.5,0l0.4,0.1l0.4,0.1l0.6,0.4l0.3,0.7h0.6
		l-0.8-2.3l0,0l0.2-0.4l0.2-0.4l1.5-0.7l1.6-0.2l1.8,0.1l1.5,0.4l0.7,0.8h0.6l0.3-1l0.2-1.1l0.4-0.9l2-0.7l2-1.6l1.2-0.3l-0.2-0.3
		l-0.2-0.6l-0.2-0.3l1.2,0.3l0.5,0.2l-0.2-1.1l0.1-0.9l0.5-0.3l0.8,0.7l0-1.2l0.1-0.5l0.4-0.5l-0.5-0.8v0l0.3-0.4l0.8-0.1l1.1,0.2
		l0.4,0.4l1,1.5l0.7,0.4l1.9-0.2l1.6-1l1.3-1.3l0.8-1.4l1,0.8l0.5,0.2l0.5,0.2l0.4,0.3l0.4,0.3l0.4,1.1l1.2-0.8l1.4-0.1l3.6,0.4
		l-1,0.5l0,0.2l0,0.2v0l0.6,0.4l1,0.4l0.2,0l0.2,0l1.8,0l1.8,0l1.1-0.5l1.1-0.5l1.1-0.2l2.7,0.2l1.1-0.2L681.8,268.1z M383.1,184.7
		l1.1-0.1l2.2-0.9l1.3-0.3l1.5,0.1l-0.2-0.9l0.7-1.3l-0.5-0.5l-1,0l-1.1,0.3l-1.2,0.2l-1.2-0.4l-4.4,2.2l-0.3,1.2l1.3,0.5
		L383.1,184.7z M410.7,168.4l1.9-1.7l1.2-0.7l1.5-0.5l3-0.7l1.4-0.6l3.5-2.3l5.4-2.7l1.3-0.5l0.7,0l1.4,0.2l0.7,0l0.5-0.2l1.1-0.7
		l0.5-0.3l1.4-0.2l3.2,0l1.5-0.2l1.3-0.5l-0.7-0.1l-3.1,0.1l-4.3-1l-1.5,0l-6.4,1.4l-2,0.8l-5.1,2.9l-4.4,1.7l-3.5,1.7l-2.5,2.2
		l0.5,2.5L410.7,168.4z M468.1,154.5l1.7-0.4l0.9-0.3l0.6-1.5l1.5-0.6l0.5-0.6l0-0.6l-0.8-0.3l-3,0.1l-1.1,0.5l-1.3,1.1l-1,1.3
		l-1.4,2.6l-0.8,1.1v1.1l2.7-2.4L468.1,154.5z M327.4,409.6l-1,0.1l-1.3,0.4l0.3,0.4l0.5,0.9l0.3,0.4h-0.6v0.5l0.3,0.3l0.3,0.1
		l1,0.2l1.8-0.3l0.8-1.2l0.2-1.3l-0.3-0.6L327.4,409.6z M330,403.6l-0.8-0.2l-1-0.4l-0.7,0.5l-1,1.5l-0.2,1.4l1.7,1l3.7,1.2l1.2-1.1
		l-1-3.2l1.4-0.6v-0.5l-1.2,0L330,403.6z"/>
</g>

</svg>
