<?xml version="1.0" encoding="utf-8"?>

<svg version="1.2" baseProfile="tiny" xmlns="http://www.w3.org/2000/svg" xmlns:xlink="http://www.w3.org/1999/xlink" x="0px"
	 y="0px" viewBox="220 174.7 400 244.6" xml:space="preserve">

<g id="Hungary">
	<g>
		<polygon fill="#CE1126" points="617.3,226.6 618.4,225.3 618.4,223.9 618.8,223.1 619,222.2 618.6,220.6 618,219.4 617.2,218.4
			615.4,216.8 613.3,215.6 613,215.2 612.1,214.6 611,214.9 610.1,215.5 608.9,215.9 604.7,215.9 603.9,216.3 603.8,216.3
			603.5,216 602.4,213.9 601.6,211.1 600.9,209.3 596.5,203.5 596.3,203.4 596.1,203.4 595.8,203.4 594.7,204 593.8,204
			592.9,203.8 591.7,203.4 591.2,203.4 591,203.4 590.6,203.8 590.1,204 589.7,203.9 589.3,203.5 586.4,199.1 585.8,197.3
			585.7,196 585.8,195 585.8,194.1 585.4,193.4 584.9,193.3 583.3,193.4 583.3,192 584.2,189.3 582.1,188.3 580.1,188 578.2,188.7
			577.6,189.4 577.4,189.4 576,189.1 574.9,190.5 573.9,191.4 572.8,191.7 569.2,191.3 568.2,191.4 567.1,191.7 564,191.9
			563.1,192.3 561.3,193.3 558.8,193.7 555.7,195.2 553.9,195.4 552.1,194.8 550.5,193.6 549.1,192 545.8,186.8 545.4,185.9
			544.6,182.2 544.1,181.2 543.1,181 540.9,181 540,180.5 539.6,180 539.1,178.2 538.8,177.5 538.2,177.1 537.2,176.6 535.2,175.4
			534.4,175.2 531.3,176.2 529.3,176.2 528.4,176.5 527.2,177.1 526.7,177.9 526.3,178.9 525.6,179.9 524.7,180.4 524.1,180.1
			523.3,179.5 522.3,179.1 520.4,179.5 515.8,181.7 514.3,181.4 513.1,180.2 511.5,179.4 509.8,179.1 508.3,179.2 506.2,179.1
			502.8,177.2 500.9,177 500.1,176.8 498.4,175.1 497.5,174.7 496.6,174.7 484.1,177.6 480.5,177.8 478.8,178.5 478.7,179.1
			478.7,179.9 478.9,181.4 478.9,182.3 478.8,182.6 478,183.8 476,185.9 475.2,187.1 474.5,188.5 472.2,195.5 470.9,198
			469.4,200.3 467.7,202 466.4,202.6 465.7,202.3 465,201.6 463.8,201 463.1,201.3 461.4,202.9 460.4,203.4 459.4,203.3
			458.8,203.1 458.2,203.2 457.5,204 457.3,204.6 457,206.3 456.5,207.1 456,207.4 454.9,207.9 452.4,209.5 450.2,210.2 448.8,211
			446.2,213.5 444.8,214 443.5,213.6 441.3,211.5 439.9,211.1 437.7,211.9 437.1,211.8 436.6,211 436.8,210.3 437.1,209.5
			437.1,208.7 436.1,207.4 434.7,207.2 431.9,207.8 431.3,207.4 430.1,205.9 429.4,205.3 428.8,205.2 428.2,205.2 422.8,206.6
			421.8,207.2 421.1,208.4 420.6,211.8 419.9,213.2 419.9,213.5 420,214 420,214.9 419.9,215.3 416.7,217.5 408.7,217.4
			405.2,219.7 404.5,219.8 397.2,218.9 393.6,219.5 391.2,219.3 390.3,219.7 381.8,221.6 380.8,222.4 379.2,225.7 378.6,226.1
			377.5,226.4 377,226.6 376.3,227.6 376.3,227.9 376.8,228.3 377,229.3 376.4,233 376.3,234.8 376.6,236.4 378.3,238.1
			380.6,239.8 379.1,240.3 377.7,240.7 376.7,241.4 374.8,243.6 373.4,244.5 371.7,244.7 369.9,244.3 367.7,243.3 365.1,243.1
			353,244.5 348.5,246.3 346.3,246.5 339,245.8 322.1,246.9 317.2,245.6 313.3,243.5 312.7,242.8 312.3,241.9 311.2,240.9
			309.9,240 309,239.5 308.4,239.6 307.8,239.9 307.2,239.9 306.4,239.2 304.4,236.2 303.9,235.8 302.4,235.5 301.8,235.3
			301.2,234.8 295.2,226.7 293.3,225.2 289.5,224.6 286.4,223.8 284.3,223.3 282.1,224.7 278.4,227.8 279,228.5 279,229
			278.7,229.5 278.6,230.3 278.5,230.4 278,230.8 277.8,231 277.9,231.4 278.2,231.5 278.5,231.6 278.6,231.8 278.4,233.3
			278,234.5 277.5,235.4 276.5,236.1 274.4,236.6 273.7,237 273.7,237.9 274,238.3 275.3,238.9 275.7,239.3 276.3,240.9
			276.7,241.4 275.9,242.4 276,243.9 276.3,245.7 276.4,248.5 276.7,249.4 277.2,250 277.9,250.4 276.7,251 272.9,251.3
			268.2,252.5 266,252.1 265.1,249.8 264.3,250.4 263.1,252.3 262.4,253 261.9,253.1 258.5,252.6 257.9,252.2 257.2,251.6
			256.8,250.7 256.6,249.8 256.3,249 255.5,248.4 250.8,246.6 248.3,246.3 246.2,247.3 245.8,248.1 245.9,249.3 245.6,250.1
			245.1,250.6 242.7,251.9 241.9,252.4 241.6,252.7 241.3,252.6 241,252.3 240.6,251.9 240.2,252.3 239.3,253.8 238.8,254.4
			239.7,255 580.3,255 580.4,254.2 580.6,253.5 581.1,252.8 582,252.1 582.5,251.6 583.8,249.7 584.5,249 585.6,248.4 586.6,248.1
			587.4,248 590.1,248.4 590.9,248.4 591.8,248.1 592.2,247.3 593.2,243.8 594.9,243.3 599.3,245.6 601.4,245.9 603.6,245.6
			605.8,244.7 607.5,243.3 608.9,241.3 609.7,240.7 610.9,240.2 612.1,240.1 612.5,239.8 613,238.9 612.9,238.2 612.6,237.6
			612.6,236.9 613.2,235.7 614.2,235 616.6,234.1 617.6,233.2 619,230.5 620,229.4 617.8,227.6 		"/>
		<polygon fill="#FFFFFF" points="239.8,255 243.1,256.4 244.7,256 248.5,257.6 250.5,257.2 251.7,257.8 252.8,259.2 253.3,261
			253,262.7 254,263.3 254.8,264.1 255.2,265.2 255.1,266.5 254.5,267.6 252.8,268.4 252.1,269.1 252.3,272.6 249.3,275
			242.9,277.9 242.2,276.8 241.4,276.2 240.7,276.5 240.1,277.6 240.2,280.9 240.1,281.2 239.8,281.4 239.5,281.6 239.5,282.1
			239.6,282.5 240,282.6 240.2,282.7 240.4,282.8 242.2,286.6 242.4,288 242,289.2 241.2,290 239.3,290.9 239.6,292.4 238.7,294.3
			238.9,295.7 239.3,296 240.2,296 240.6,296.6 240.6,297.4 240.1,298.8 240.1,299.3 240.9,299.8 242.9,298.8 243.9,298.9
			244.6,300 244.3,301 243,302.8 241.7,303.5 241.3,304.8 241.8,305.9 243,306.3 243.6,306.7 243.9,307.1 243.6,307.6 243,308
			240.3,309.2 239.6,309.8 241.3,310 242.1,310.3 242.9,311.2 243.2,312.1 242.1,312.4 240.5,312.4 239.6,312.6 239.3,312.8
			239,312.9 238.7,312.8 238.4,312.6 237.4,311.8 236.1,311.7 233.7,312 231.5,311.5 230.7,311.6 230.1,312.6 229.9,313.9
			229.3,314.3 228.7,314.4 228.2,314.9 228,315.5 228.1,315.9 228.1,316.4 227.7,317 227.3,317.3 226,317.8 224.5,318.9
			223.9,319.7 221.7,322.6 221,323.3 220,323.8 222.4,324.4 230.5,323.7 231,324.1 232.2,325.5 232.7,325.8 233.6,325.8
			233.9,326.3 233.7,327 233.3,328.1 233,329 232.2,330.4 232,331.3 232.2,331.6 233,334.1 233.6,335 234.2,335.9 234.7,336.6
			235.5,336.4 235.5,337.8 236.3,338.2 237.4,338.3 238.3,338.9 238.3,339 538,339 538.9,337.6 539.1,335.9 537.6,334.8
			537.4,334.7 537.3,334.4 537.1,334.2 537.2,333.7 537.3,333.2 537.6,332.7 537.9,332.3 539.1,328.8 539.9,327.4 541.1,326.2
			543.3,325.6 543.9,325.1 544.4,324 544.4,323 544.2,322.1 544.1,321.1 544.2,320.1 544.2,319.8 544.5,319.8 547.2,317.5
			547.7,316.9 548.8,312.7 549.1,312.6 549.1,312.6 548.5,311.5 548.1,311.2 547.5,311.1 547,310.9 546.8,310.1 549.1,307.4
			550.4,306.1 553.3,304.2 554.5,303 554.8,302.3 555.1,300.8 555.4,300 556,299.2 557.3,297.9 557.8,297.2 558.2,296.2
			558.2,295.4 558,294.6 558,293.6 558.3,292.6 558.9,291.4 559.2,290.5 559.9,287.4 560.2,286.4 562.6,283.1 563.7,281.9
			564.7,281.2 567.4,280.4 568.6,278 568.5,275.1 568,272.1 567.8,269.4 568.9,267.2 570.7,265.3 574.3,262.5 577.2,261.8
			578,261.2 578.3,260.5 578.4,259.9 578.4,259.2 578.5,258.6 580,256.5 580.2,255.8 580.3,255 239.7,255 		"/>
		<polygon fill="#008751" points="238.7,340.5 237.9,341.3 236.8,341.8 236.2,342.7 236.7,343.8 237.8,344.7 239.9,345.9 242,349
			244,350.7 244.8,354.4 245.2,354.7 247.7,356.3 248.5,357.1 248.9,357.1 249.1,356.4 249.5,356.1 249.9,356.2 250.5,356.5
			252,356.8 253.3,357.7 254.4,359 255.4,360.7 256.5,362.1 258.2,363.2 259,364.7 259.4,364.7 259.9,363.5 260.3,363.8
			261.9,364.2 262.2,364.3 262.5,364.5 262.7,364.8 262.9,365.1 263.3,365.5 263.4,365.2 263.6,364.8 263.9,364.8 264.6,365.6
			265.5,366.8 266.1,368.2 265.9,369.5 266.9,372.5 267.3,373 267.7,373.4 270,375.9 271.4,378.7 272,379.4 275.2,381.9
			275.7,382.6 276,383.5 276.6,384.2 279.5,386.4 280.3,386.8 285.2,387 285.8,387.4 288.2,390.5 288.5,391.3 289.2,394
			289.4,394.8 289.8,396.3 290.7,396.6 291.7,396.8 292.2,397.5 291.8,397.6 291,398 290.6,398 290.6,398.6 291.5,398.9
			292.1,399.5 292.7,399.7 293.3,398.6 293.7,400.1 293.6,400.8 293.8,401.1 295,401 296.4,400.5 297,400.8 297.4,402.2 297.7,402
			297.9,401.7 298.1,401.4 298.6,401.1 303.6,401.3 306.1,401.8 308.3,402.8 311.1,405.7 311.5,406.6 311.6,407.2 311.9,408.5
			312,409.5 312.2,410.5 312.7,410.8 314,410.9 321.2,413.1 322.7,414.3 323.9,416.3 323.9,416.8 324.6,416.6 325,416 325.3,415.4
			325.8,415.1 330.8,415.1 337.1,416.8 337.7,416.8 338.4,416.6 339.4,415.8 339.9,415.7 344.8,415.7 345.9,416 347.7,417.4
			349.1,417.4 350.1,418.5 351.1,418.9 352.2,418.5 353.1,418 354.1,418 355.1,419.2 355.4,419.3 356.2,419.3 356.7,419.2
			357.8,418.3 359.9,415.8 360.8,415.1 362.2,415.7 363.7,415.1 366.3,412.9 367,412 368.3,409.5 369.1,408.6 369.2,408.6
			369.4,408 369.5,407 369.7,406.6 371.1,405.2 372.4,405.1 375.3,406.1 377.6,407.4 378.3,407.5 378.9,407.1 379.2,406.5
			379.5,405.7 380,404.8 380.8,405.5 381.4,405.5 382.4,404.8 383.6,404.4 384.3,404 384.9,403.4 385.8,403.3 386,403.3
			389.4,403.5 389.8,403.7 390.6,404 390.8,403.9 390.9,403.8 390.9,403.6 390.9,403.5 390.8,403.2 390.6,403 390.3,402.6
			390.3,402.3 390.3,402 390.5,401.7 391.9,400.7 392.5,400.8 393.4,400.9 394.4,400.6 394.5,398.1 395.4,396.5 396.7,395.9
			398.1,396.4 398.6,397.4 398.9,398 399.2,398.2 400.2,398.8 405.4,399.3 407,399 407.1,398.9 407.7,398.1 407.8,397.4
			407.9,397.1 408.4,395.9 409.2,395.2 409.5,395 410.2,394.8 410.5,394.8 412.7,394.8 413.7,394.4 414.3,393.7 414.7,392.9
			415.1,392.3 415.2,392.2 415.9,391.8 416.6,391.7 417.1,391.5 418.1,390.7 418.4,390.1 418.7,389.7 418.7,389.5 418.9,389.4
			419.2,389 420,388.5 420.7,388.2 420.6,387.5 420.3,386.9 420.2,386.7 420.2,386.6 420.1,386 420.7,385.4 421,385.1 421.8,384.6
			422.4,384.2 423.5,383.7 423.9,383.5 424.2,383.4 425,383.3 426.2,383.3 429.6,382.6 430.9,382.6 432.2,383.1 435,384.8
			437,386.2 438.1,386.4 443.9,384 445.8,383.6 446.2,383.5 450,383.9 452.5,385.3 453.1,385.2 454.3,385.1 455.3,384.5
			455.8,384.2 456.2,384.2 456.4,384.2 457.4,384.4 457.6,384.5 457.7,384.6 458.2,385.4 458.6,385.7 458.7,385.7 459.1,385.7
			460.4,385.1 460.5,385.1 461.6,385.5 464.8,388.3 467.1,385.2 476.6,384.9 478,382.6 480.5,383.1 482.9,384.1 484.6,385.7
			485.2,386 485.9,386.3 486.3,386.3 489.7,385.7 490.9,385.1 491.8,384.1 492.1,383.3 492.1,382 492.4,381.4 492.9,381.3
			493.4,381.5 493.9,381.6 494.4,381.1 494.4,380.5 493.8,378.5 493.8,377.7 494.1,377.3 496.4,375.4 497.5,374.7 498.8,374.3
			500,374.4 500.5,374.7 501.5,375.6 502.2,375.8 502.8,375.7 503.7,375.3 504.1,375.1 505.1,375.4 507.3,376.3 508.5,376.3
			509,376.1 509.6,376.1 510,376.3 510.4,376.8 511.5,377.8 512.5,377.4 515.3,374 515.7,373.8 517.4,373.8 517.9,373.4 518.6,372
			519.1,370.4 519.2,366.5 519.8,364.7 520.7,363.5 521.9,363.1 524.4,363 525.9,362 525.5,360.2 523.8,356.9 523.9,355.1
			524.7,353.8 525.8,352.5 526.5,351 526.7,347.7 527.1,346.1 528,345 529.3,344.7 531.4,344.8 532.7,344.1 533.9,342.5
			534.4,341.1 535,340.1 536.7,339.8 537.9,339.2 538,339 238.3,339 		"/>
	</g>
	<polygon fill="none" stroke="#999999" stroke-width="0.25" stroke-linecap="round" stroke-linejoin="round" points="617.3,226.6
		618.4,225.3 618.4,223.9 618.8,223.1 619,222.2 618.6,220.6 618,219.4 617.2,218.4 615.4,216.8 613.3,215.6 613,215.2 612.1,214.6
		611,214.9 610.1,215.5 608.9,215.9 604.7,215.9 603.9,216.3 603.8,216.3 603.5,216 602.4,213.9 601.6,211.1 600.9,209.3
		596.5,203.5 596.3,203.4 596.1,203.4 595.8,203.4 594.7,204 593.8,204 592.9,203.8 591.7,203.4 591.2,203.4 591,203.4 590.6,203.8
		590.1,204 589.7,203.9 589.3,203.5 586.4,199.1 585.8,197.3 585.7,196 585.8,195 585.8,194.1 585.4,193.4 584.9,193.3 583.3,193.4
		583.3,192 584.2,189.3 582.1,188.3 580.1,188 578.2,188.7 577.6,189.4 577.4,189.4 576,189.1 574.9,190.5 573.9,191.4 572.8,191.7
		569.2,191.3 568.2,191.4 567.1,191.7 564,191.9 563.1,192.3 561.3,193.3 558.8,193.7 555.7,195.2 553.9,195.4 552.1,194.8
		550.5,193.6 549.1,192 545.8,186.8 545.4,185.9 544.6,182.2 544.1,181.2 543.1,181 540.9,181 540,180.5 539.6,180 539.1,178.2
		538.8,177.5 538.2,177.1 537.2,176.6 535.2,175.4 534.4,175.2 531.3,176.2 529.3,176.2 528.4,176.5 527.2,177.1 526.7,177.9
		526.3,178.9 525.6,179.9 524.7,180.4 524.1,180.1 523.3,179.5 522.3,179.1 520.4,179.5 515.8,181.7 514.3,181.4 513.1,180.2
		511.5,179.4 509.8,179.1 508.3,179.2 506.2,179.1 502.8,177.2 500.9,177 500.1,176.8 498.4,175.1 497.5,174.7 496.6,174.7
		484.1,177.6 480.5,177.8 478.8,178.5 478.7,179.1 478.7,179.9 478.9,181.4 478.9,182.3 478.8,182.6 478,183.8 476,185.9
		475.2,187.1 474.5,188.5 472.2,195.5 470.9,198 469.4,200.3 467.7,202 466.4,202.6 465.7,202.3 465,201.6 463.8,201 463.1,201.3
		461.4,202.9 460.4,203.4 459.4,203.3 458.8,203.1 458.2,203.2 457.5,204 457.3,204.6 457,206.3 456.5,207.1 456,207.4 454.9,207.9
		452.4,209.5 450.2,210.2 448.8,211 446.2,213.5 444.8,214 443.5,213.6 441.3,211.5 439.9,211.1 437.7,211.9 437.1,211.8 436.6,211
		436.8,210.3 437.1,209.5 437.1,208.7 436.1,207.4 434.7,207.2 431.9,207.8 431.3,207.4 430.1,205.9 429.4,205.3 428.8,205.2
		428.2,205.2 422.8,206.6 421.8,207.2 421.1,208.4 420.6,211.8 419.9,213.2 419.9,213.5 420,214 420,214.9 419.9,215.3 416.7,217.5
		408.7,217.4 405.2,219.7 404.5,219.8 397.2,218.9 393.6,219.5 391.2,219.3 390.3,219.7 381.8,221.6 380.8,222.4 379.2,225.7
		378.6,226.1 377.5,226.4 377,226.6 376.3,227.6 376.3,227.9 376.8,228.3 377,229.3 376.4,233 376.3,234.8 376.6,236.4 378.3,238.1
		380.6,239.8 379.1,240.3 377.7,240.7 376.7,241.4 374.8,243.6 373.4,244.5 371.7,244.7 369.9,244.3 367.7,243.3 365.1,243.1
		353,244.5 348.5,246.3 346.3,246.5 339,245.8 322.1,246.9 317.2,245.6 313.3,243.5 312.7,242.8 312.3,241.9 311.2,240.9 309.9,240
		309,239.5 308.4,239.6 307.8,239.9 307.2,239.9 306.4,239.2 304.4,236.2 303.9,235.8 302.4,235.5 301.8,235.3 301.2,234.8
		295.2,226.7 293.3,225.2 289.5,224.6 286.4,223.8 284.3,223.3 282.1,224.7 278.4,227.8 279,228.5 279,229 278.7,229.5 278.6,230.3
		278.5,230.4 278,230.8 277.8,231 277.9,231.4 278.2,231.5 278.5,231.6 278.6,231.8 278.4,233.3 278,234.5 277.5,235.4 276.5,236.1
		274.4,236.6 273.7,237 273.7,237.9 274,238.3 275.3,238.9 275.7,239.3 276.3,240.9 276.7,241.4 275.9,242.4 276,243.9 276.3,245.7
		276.4,248.5 276.7,249.4 277.2,250 277.9,250.4 276.7,251 272.9,251.3 268.2,252.5 266,252.1 265.1,249.8 264.3,250.4 263.1,252.3
		262.4,253 261.9,253.1 258.5,252.6 257.9,252.2 257.2,251.6 256.8,250.7 256.6,249.8 256.3,249 255.5,248.4 250.8,246.6
		248.3,246.3 246.2,247.3 245.8,248.1 245.9,249.3 245.6,250.1 245.1,250.6 242.7,251.9 241.9,252.4 241.6,252.7 241.3,252.6
		241,252.3 240.6,251.9 240.2,252.3 239.3,253.8 238.8,254.4 239.8,255 243.1,256.4 244.7,256 248.5,257.6 250.5,257.2 251.7,257.8
		252.8,259.2 253.3,261 253,262.7 254,263.3 254.8,264.1 255.2,265.2 255.1,266.5 254.5,267.6 252.8,268.4 252.1,269.1 252.3,272.6
		249.3,275 242.9,277.9 242.2,276.8 241.4,276.2 240.7,276.5 240.1,277.6 240.2,280.9 240.1,281.2 239.8,281.4 239.5,281.6
		239.5,282.1 239.6,282.5 240,282.6 240.2,282.7 240.4,282.8 242.2,286.6 242.4,288 242,289.2 241.2,290 239.3,290.9 239.6,292.4
		238.7,294.3 238.9,295.7 239.3,296 240.2,296 240.6,296.6 240.6,297.4 240.1,298.8 240.1,299.3 240.9,299.8 242.9,298.8
		243.9,298.9 244.6,300 244.3,301 243,302.8 241.7,303.5 241.3,304.8 241.8,305.9 243,306.3 243.6,306.7 243.9,307.1 243.6,307.6
		243,308 240.3,309.2 239.6,309.8 241.3,310 242.1,310.3 242.9,311.2 243.2,312.1 242.1,312.4 240.5,312.4 239.6,312.6 239.3,312.8
		239,312.9 238.7,312.8 238.4,312.6 237.4,311.8 236.1,311.7 233.7,312 231.5,311.5 230.7,311.6 230.1,312.6 229.9,313.9
		229.3,314.3 228.7,314.4 228.2,314.9 228,315.5 228.1,315.9 228.1,316.4 227.7,317 227.3,317.3 226,317.8 224.5,318.9 223.9,319.7
		221.7,322.6 221,323.3 220,323.8 222.4,324.4 230.5,323.7 231,324.1 232.2,325.5 232.7,325.8 233.6,325.8 233.9,326.3 233.7,327
		233.3,328.1 233,329 232.2,330.4 232,331.3 232.2,331.6 233,334.1 233.6,335 234.2,335.9 234.7,336.6 235.5,336.4 235.5,337.8
		236.3,338.2 237.4,338.3 238.3,338.9 238.7,340.5 237.9,341.3 236.8,341.8 236.2,342.7 236.7,343.8 237.8,344.7 239.9,345.9
		242,349 244,350.7 244.8,354.4 245.2,354.7 247.7,356.3 248.5,357.1 248.9,357.1 249.1,356.4 249.5,356.1 249.9,356.2 250.5,356.5
		252,356.8 253.3,357.7 254.4,359 255.4,360.7 256.5,362.1 258.2,363.2 259,364.7 259.4,364.7 259.9,363.5 260.3,363.8 261.9,364.2
		262.2,364.3 262.5,364.5 262.7,364.8 262.9,365.1 263.3,365.5 263.4,365.2 263.6,364.8 263.9,364.8 264.6,365.6 265.5,366.8
		266.1,368.2 265.9,369.5 266.9,372.5 267.3,373 267.7,373.4 270,375.9 271.4,378.7 272,379.4 275.2,381.9 275.7,382.6 276,383.5
		276.6,384.2 279.5,386.4 280.3,386.8 285.2,387 285.8,387.4 288.2,390.5 288.5,391.3 289.2,394 289.4,394.8 289.8,396.3
		290.7,396.6 291.7,396.8 292.2,397.5 291.8,397.6 291,398 290.6,398 290.6,398.6 291.5,398.9 292.1,399.5 292.7,399.7 293.3,398.6
		293.7,400.1 293.6,400.8 293.8,401.1 295,401 296.4,400.5 297,400.8 297.4,402.2 297.7,402 297.9,401.7 298.1,401.4 298.6,401.1
		303.6,401.3 306.1,401.8 308.3,402.8 311.1,405.7 311.5,406.6 311.6,407.2 311.9,408.5 312,409.5 312.2,410.5 312.7,410.8
		314,410.9 321.2,413.1 322.7,414.3 323.9,416.3 323.9,416.8 324.6,416.6 325,416 325.3,415.4 325.8,415.1 330.8,415.1 337.1,416.8
		337.7,416.8 338.4,416.6 339.4,415.8 339.9,415.7 344.8,415.7 345.9,416 347.7,417.4 349.1,417.4 350.1,418.5 351.1,418.9
		352.2,418.5 353.1,418 354.1,418 355.1,419.2 355.4,419.3 356.2,419.3 356.7,419.2 357.8,418.3 359.9,415.8 360.8,415.1
		362.2,415.7 363.7,415.1 366.3,412.9 367,412 368.3,409.5 369.1,408.6 369.2,408.6 369.4,408 369.5,407 369.7,406.6 371.1,405.2
		372.4,405.1 375.3,406.1 377.6,407.4 378.3,407.5 378.9,407.1 379.2,406.5 379.5,405.7 380,404.8 380.8,405.5 381.4,405.5
		382.4,404.8 383.6,404.4 384.3,404 384.9,403.4 385.8,403.3 386,403.3 389.4,403.5 389.8,403.7 390.6,404 390.8,403.9 390.9,403.8
		390.9,403.6 390.9,403.5 390.8,403.2 390.6,403 390.3,402.6 390.3,402.3 390.3,402 390.5,401.7 391.9,400.7 392.5,400.8
		393.4,400.9 394.4,400.6 394.5,398.1 395.4,396.5 396.7,395.9 398.1,396.4 398.6,397.4 398.9,398 399.2,398.2 400.2,398.8
		405.4,399.3 407,399 407.1,398.9 407.7,398.1 407.8,397.4 407.9,397.1 408.4,395.9 409.2,395.2 409.5,395 410.2,394.8 410.5,394.8
		412.7,394.8 413.7,394.4 414.3,393.7 414.7,392.9 415.1,392.3 415.2,392.2 415.9,391.8 416.6,391.7 417.1,391.5 418.1,390.7
		418.4,390.1 418.7,389.7 418.7,389.5 418.9,389.4 419.2,389 420,388.5 420.7,388.2 420.6,387.5 420.3,386.9 420.2,386.7
		420.2,386.6 420.1,386 420.7,385.4 421,385.1 421.8,384.6 422.4,384.2 423.5,383.7 423.9,383.5 424.2,383.4 425,383.3 426.2,383.3
		429.6,382.6 430.9,382.6 432.2,383.1 435,384.8 437,386.2 438.1,386.4 443.9,384 445.8,383.6 446.2,383.5 450,383.9 452.5,385.3
		453.1,385.2 454.3,385.1 455.3,384.5 455.8,384.2 456.2,384.2 456.4,384.2 457.4,384.4 457.6,384.5 457.7,384.6 458.2,385.4
		458.6,385.7 458.7,385.7 459.1,385.7 460.4,385.1 460.5,385.1 461.6,385.5 464.8,388.3 467.1,385.2 476.6,384.9 478,382.6
		480.5,383.1 482.9,384.1 484.6,385.7 485.2,386 485.9,386.3 486.3,386.3 489.7,385.7 490.9,385.1 491.8,384.1 492.1,383.3
		492.1,382 492.4,381.4 492.9,381.3 493.4,381.5 493.9,381.6 494.4,381.1 494.4,380.5 493.8,378.5 493.8,377.7 494.1,377.3
		496.4,375.4 497.5,374.7 498.8,374.3 500,374.4 500.5,374.7 501.5,375.6 502.2,375.8 502.8,375.7 503.7,375.3 504.1,375.1
		505.1,375.4 507.3,376.3 508.5,376.3 509,376.1 509.6,376.1 510,376.3 510.4,376.8 511.5,377.8 512.5,377.4 515.3,374 515.7,373.8
		517.4,373.8 517.9,373.4 518.6,372 519.1,370.4 519.2,366.5 519.8,364.7 520.7,363.5 521.9,363.1 524.4,363 525.9,362 525.5,360.2
		523.8,356.9 523.9,355.1 524.7,353.8 525.8,352.5 526.5,351 526.7,347.7 527.1,346.1 528,345 529.3,344.7 531.4,344.8 532.7,344.1
		533.9,342.5 534.4,341.1 535,340.1 536.7,339.8 537.9,339.2 538.9,337.6 539.1,335.9 537.6,334.8 537.4,334.7 537.3,334.4
		537.1,334.2 537.2,333.7 537.3,333.2 537.6,332.7 537.9,332.3 539.1,328.8 539.9,327.4 541.1,326.2 543.3,325.6 543.9,325.1
		544.4,324 544.4,323 544.2,322.1 544.1,321.1 544.2,320.1 544.2,319.8 544.5,319.8 547.2,317.5 547.7,316.9 548.8,312.7
		549.1,312.6 549.1,312.6 548.5,311.5 548.1,311.2 547.5,311.1 547,310.9 546.8,310.1 549.1,307.4 550.4,306.1 553.3,304.2
		554.5,303 554.8,302.3 555.1,300.8 555.4,300 556,299.2 557.3,297.9 557.8,297.2 558.2,296.2 558.2,295.4 558,294.6 558,293.6
		558.3,292.6 558.9,291.4 559.2,290.5 559.9,287.4 560.2,286.4 562.6,283.1 563.7,281.9 564.7,281.2 567.4,280.4 568.6,278
		568.5,275.1 568,272.1 567.8,269.4 568.9,267.2 570.7,265.3 574.3,262.5 577.2,261.8 578,261.2 578.3,260.5 578.4,259.9
		578.4,259.2 578.5,258.6 580,256.5 580.2,255.8 580.4,254.2 580.6,253.5 581.1,252.8 582,252.1 582.5,251.6 583.8,249.7 584.5,249
		585.6,248.4 586.6,248.1 587.4,248 590.1,248.4 590.9,248.4 591.8,248.1 592.2,247.3 593.2,243.8 594.9,243.3 599.3,245.6
		601.4,245.9 603.6,245.6 605.8,244.7 607.5,243.3 608.9,241.3 609.7,240.7 610.9,240.2 612.1,240.1 612.5,239.8 613,238.9
		612.9,238.2 612.6,237.6 612.6,236.9 613.2,235.7 614.2,235 616.6,234.1 617.6,233.2 619,230.5 620,229.4 617.8,227.6 	"/>
</g>

</svg>
