<?xml version="1.0" encoding="utf-8"?>

<svg version="1.2" baseProfile="tiny" xmlns="http://www.w3.org/2000/svg" xmlns:xlink="http://www.w3.org/1999/xlink" x="0px"
	 y="0px" viewBox="306 147 227.9 300" xml:space="preserve">

<g id="Isle_of_Ireland">
	<g>
		<polygon fill="#009B48" points="309.7,412.9 311.3,412.7 313,411.9 313.8,411.4 314.1,410.8 314,410.3 313.5,410.3 313.2,410.3
			312.9,410 312.6,409.9 311.7,409.9 311.3,410.3 309,411.8 308.2,412.9 308.4,413.4 309.3,413.3 		"/>
		<polygon fill="#009B48" points="325.4,271.1 328.6,271 329.4,270.6 329.9,270.1 329.9,269.8 329.7,269.5 329.1,269.1 328.6,268.6
			328.3,268.5 327.4,269.3 325.3,270.1 325.2,270.4 325.3,270.7 325.3,270.9 		"/>
		<polygon fill="#009B48" points="329.6,253.9 328.7,253.5 324.8,253.4 323.8,253.9 322.7,254.7 321.5,255.1 320.6,253.9
			320.2,254.3 319.8,254.5 319.4,254.3 319.1,253.9 318.5,255.4 317.8,256.2 316.8,256.5 315.6,256.5 315.6,257 316.8,257
			319,257.9 320.3,258.1 323.7,257.3 324.6,257.6 325.1,258.3 325.2,259 325,259.8 324.9,261 325.1,261.7 325.6,261.8 326.2,261.7
			326.8,261.8 327.8,262.7 328.7,263.8 329.5,264.2 330.5,263.3 330.3,262.3 330.4,261 330.8,259.8 331.1,259.2 331.1,258.6
			330.8,258.2 330.3,258.2 329.8,258.3 329.3,258.6 329.3,258.1 329.5,257.7 329.7,257.2 329.7,256.6 329.6,255.9 330.5,255.9 		"/>
		<polygon fill="#009B48" points="336,432 336.3,431.8 336.7,431.3 336.3,431 335.9,431.2 335.5,431.1 334,430.9 332.9,431
			332.1,431.3 331.4,431.9 331.3,432.6 332,432.9 332.5,433.1 		"/>
		<polygon fill="#009B48" points="349.5,446.9 349.8,446.4 349.9,446.5 350.3,446.5 350.8,446.2 351.2,445.7 351.2,445 350.5,444.9
			349.3,445.7 348.9,446.4 348.9,446.6 349.2,447 		"/>
		<polygon fill="#009B48" points="342.3,309.4 343.8,308.9 343.9,308.6 343.4,308.3 343.1,308.4 342.3,307.9 341.6,307.8
			341.2,307.9 340.8,308.2 340.6,308.4 341.1,309.4 		"/>
		<polygon fill="#009B48" points="336.6,319.8 336.1,320.5 337.6,321.6 342.9,324 343.7,323.8 343.8,323.2 343.6,323.1 343.5,323.2
			342.4,322.6 342.4,322.1 342.8,321.6 342.4,321 341.3,320.6 340.4,320.5 339.3,320.7 338.8,320.7 337.6,319.8 		"/>
		<polygon fill="#009B48" points="339.5,312.4 339.1,313 339.1,313.2 338.9,313.4 338.6,313.4 338.4,313.4 338.4,313.8 339,313.7
			340,313.9 340,313 340.1,312.7 		"/>
		<polygon fill="#009B48" points="333.9,308.4 334.2,308.5 334.3,309.2 334.6,309.3 334.6,308.5 334.4,308.1 334.2,307.9
			334.1,307.5 333.9,307.4 333.8,307.6 333.6,307.6 333.3,307.9 333.4,308.1 333.6,308.3 		"/>
		<polygon fill="#009B48" points="340.3,311.3 340.6,311.8 340.7,312.9 341.5,313.9 343.1,313.4 344,312 342.9,310.2 342.5,309.8
			341.9,309.6 341.2,309.8 340.7,310.2 340.3,310.9 		"/>
		<polygon fill="#009B48" points="379.3,234.9 378.6,234.7 377.6,234 376.8,233.7 376.1,233.2 375.5,232.8 375.3,232.9 375,233.2
			374.7,233.3 372,232.6 370.5,232.8 369.8,234.1 369.5,236.1 368.7,237.7 367.7,238.7 366.7,239.1 367,240.3 366.9,241.3
			366.7,242.5 366.7,243.9 366.4,243.9 366.4,242.4 366,241.2 365.5,240.3 363.3,238.4 363.1,237.6 363.9,237 363.9,236.5 363,236
			363,235.4 363.2,235.1 363.3,234.5 363.3,233.9 363,233.3 362.9,233.5 362.4,233.7 361.6,233.8 361.4,233.5 361,232 360.7,231.7
			360.3,231.7 358.2,230.7 357.7,230.6 357.3,230.9 356.9,231.4 356.4,231.8 355.9,232.1 355.4,232.2 351.8,231.7 351.5,231.5
			350.9,230.8 350.5,230.7 350,230.8 349.1,231.1 348.6,231.2 340.8,230.7 340,230.4 338.3,229.3 337.3,229.1 334.7,229.8
			334.6,230.4 334.8,231.5 335.3,232.3 337.7,232.8 338.5,233.3 337.6,233.1 337.1,233.1 336.7,233.3 336.7,233.8 337.6,234.4
			338,234.8 338.2,235.4 337.2,235.3 335.7,234.1 334.7,233.8 334,234.3 333.3,235.4 333,236.6 333.6,237.6 332.9,238 332.3,238.8
			331.7,239.4 331,238.9 330.1,238.5 329.1,238.4 328.4,238 328.6,236.5 329.8,237.5 330.9,237.7 332,236.8 333,234.9 332.8,234.8
			332.7,234.8 332.7,234.7 332.7,234.4 332.2,234.8 331.8,234.8 331.4,234.4 331.1,233.8 330.5,234.3 329.7,234.2 328.9,233.8
			328.3,233.3 328.2,232.9 328.1,232.4 328,232 327.7,231.7 327.3,231.8 327.1,232 327,232.4 326.8,232.8 324.8,233.9 324.3,234.4
			323.9,235.3 323.7,236.3 323.3,237 322.4,237 322.9,237.7 323.5,238 324.9,238 324.4,239 323.9,239.5 323.5,240.1 323.3,241.5
			323.1,242.4 322.1,244.6 321.8,245.5 321.9,247 322.3,247.7 323,248.1 323.8,248.1 324.6,247.8 324.5,247.1 323.9,246.4
			323.3,246 324.2,245.5 324.6,245.5 324.5,244 324.3,243.6 323.7,243.3 323.7,242.9 324.7,242.3 325.2,242.2 325.8,242.3
			325.8,241.8 325.6,241.5 325.2,240.7 326.1,240.9 326.8,240.6 327.1,239.9 326.5,239.1 327.1,238.3 328.2,238.7 330.5,240.7
			330.2,241.3 329.8,241.7 329.3,241.7 328.6,241.2 330.2,243 330.8,243.9 330.5,243.7 329.9,243.5 329.6,243.3 329.8,244.3
			330.4,245 331.8,246 330.9,246.5 328.9,247.1 328,247.1 328.9,249.1 330.1,250 331.4,249.8 332.7,248.1 332.3,248.1 332.3,247.6
			332.8,247.5 333.1,247.4 333.1,247.1 333,246.5 334.2,246.1 334.7,246.1 335.1,246.5 333.9,247.6 334.2,248.1 333.6,248.4
			333.2,248.9 333.2,249.4 333.9,249.6 333.3,250.3 332.7,250.5 332.2,250.9 332,252 332.2,253.2 332.5,253.8 332.8,254.2
			333,254.7 333.1,255 333.9,254.9 334.2,254.9 334.4,255.3 334.4,255.6 334.4,256 334.9,257.9 335.2,258.4 335.7,258.6
			335.5,258.1 335.5,257.6 336.1,257.7 336.5,258.1 336.9,258.7 337.3,259.2 337.1,260.1 337.2,260.9 337.2,261.5 336.8,261.8
			336.3,261.4 336.1,259.6 335.6,259.2 335,259 334,258.3 333.6,258.1 331.4,258.6 331.4,259.2 331.8,259.2 331.8,259.6
			331.6,260.2 331.6,260.5 331.8,261.2 331,261.8 330.7,263.9 330.2,264.3 331.6,265.9 334.1,265.3 338.5,262.8 345,262.8
			346.3,263.3 346.5,263.1 346.7,262.9 346.9,262.9 347.2,262.8 347.1,263.5 346.9,264.1 346.6,264.6 346.3,264.9 347.1,265.4
			347.5,265.4 345.9,266.7 345.4,267.4 345.6,268 345.6,268.5 345.3,268.6 345.1,268.7 344.9,268.9 344.7,269.1 346.5,270
			347.2,270.1 347.2,270.7 338.8,272.2 338.3,272 337.4,271.4 337.1,271.4 336.7,271.9 336.2,272.1 335.1,272.2 333.9,272.7
			332.2,273 331.8,273.3 332.2,274.7 331.9,275.9 331.4,277.1 331.1,278.7 331.8,282.1 335.4,284.4 337.4,285.1 340.5,284.9
			341.3,285.3 341.3,285.8 337.8,285.5 335.6,285.1 334.7,284.4 334.2,284.2 333.6,284.3 332,285.3 330.8,285.6 327.2,285.3
			325.5,285.7 326.2,286.6 328.9,288.4 328.4,288.7 327.8,289.7 327.4,289.9 326.7,288.7 326.5,288.4 324.4,287.9 322.4,287.9
			322.5,288.2 322.7,289.1 322.8,289.4 321.6,289.4 320.5,289 319.5,289 318.4,289.9 318.9,290.3 319.4,290.3 320.7,289.9
			321.2,290.3 321.5,291.1 321.8,292 321.8,292.5 322.8,293.6 324.5,294.3 326.2,294.7 327.1,294.6 326.7,295.4 325.8,295.3
			324.7,294.8 323.7,294.6 323.9,295.3 324.3,295.8 324.7,296.1 325.2,296.1 325.2,296.7 324.5,297.4 323.9,297.5 322.1,297.2
			321.2,297.3 320.5,297.8 320.1,298.6 319.6,299.8 320.5,299.8 320.8,299.6 321.2,299.3 321.9,300 322.9,300.1 324.8,299.8
			325.4,300 325.7,300.6 326,301.2 326.5,301.9 327,302.2 327.6,302.3 329.4,302.3 330.1,301.9 330.6,301.9 331.1,301.6
			331.1,300.9 331,300 331.1,299.3 331.6,298.8 332,298.9 332.4,299.1 332.8,299.3 333.3,299.1 333.6,298.7 333.9,298.3
			334.5,298.2 334.1,299 333.2,299.6 333,300.3 333.2,301.1 333.9,301.2 334.5,300.8 334.5,300.3 335.5,299.5 336,299.3
			336.7,299.3 336.7,299.8 335.7,300.3 335.7,300.8 337.3,300.8 337.3,301.3 336.6,301.9 334.8,303.2 334,303.4 333.4,303.4
			333,303.5 332.7,303.8 332.6,304.4 332.5,305.2 332.2,306.2 332,306.5 332.7,307 334.7,306.6 335.6,307.3 336.3,308.2
			337.1,308.2 339.2,307.2 339.9,306.4 341,304.4 341.5,303.2 341.9,302.6 342.4,302.4 343,301.6 343.3,301.3 343.5,301.4
			343.7,301.7 344,301.9 344,302.5 343.5,303.8 343.3,305.2 344.1,306 345,305.7 345.4,304.6 345.3,303.3 344.7,302.4 345.4,301.9
			346.2,301.8 347.8,301.9 346.1,302.9 345.6,303.4 347.5,305.2 347.3,305.5 347.2,305.6 346.9,306.4 346.7,306.5 346.4,306.4
			346,306.1 345.8,306 344.9,306.7 345.3,310.1 344.4,311.6 344.4,312.2 345.1,313.1 345.8,313 346.4,312 346.6,310.4 347,309
			347.7,309 348.1,309.9 347.2,311.2 347.8,311.8 348.2,312.6 348.7,313.3 349.7,313.7 351.6,313.7 352.6,313.4 353.2,312.9
			354.7,312.2 369.3,311 370.9,310.3 371.8,310.2 375.4,310.7 375.4,311.2 374.8,311.5 373.6,311.8 373.2,312.2 373.2,312.7
			374.5,312.7 374.5,313.2 373.6,313.3 371.5,313.8 370.7,314.3 371.4,314.6 375.8,314.7 376.2,314.6 377.1,314.3 377.5,314.3
			376,315.4 375.3,316.2 374.7,317.4 375,317.8 375.2,318.4 375.7,319.9 375,319.8 374.4,319.5 373.9,319 373.5,318.4 373.7,317.7
			373.4,317.6 372.9,317.8 372.3,318.4 371.8,318.3 370.7,317.8 370.7,318.4 372.6,319.5 372.6,319.9 371.7,319.8 370.3,318.7
			369.6,318.4 367,318.9 367,319.5 369,320.1 369.6,320.8 369.5,322 368.4,321.3 367.4,321.6 366.5,322.2 365.6,322.5 364.6,322.1
			362.5,320.1 361.4,319.5 360.5,319.8 359.7,321.2 359.1,322.8 358.3,324 357.4,325.1 354.9,329.7 355.3,330.2 354.8,330.5
			354.4,331.1 353,333.3 352.5,334 351.2,335.3 352.4,335.7 355.9,335.6 356.8,335.8 356.3,337.3 353.5,340 353.4,341 353.4,341.5
			353,341.8 352.9,342.3 352.7,342.9 352.4,343.5 352,344.2 351.6,344.8 351.1,345.3 350.6,345.5 350.9,346.1 350.8,346.6
			350.7,346.7 350.7,346.8 350.9,347.1 350.6,347.8 350.4,348.6 350.3,349.3 349.8,349.6 349.3,349.7 348.5,350.1 348,350.2
			346.6,350 346,350.2 345.5,350.4 344.9,351 344.4,351.2 344.6,351.9 344.7,352.2 335.6,361 333.2,361.6 331.3,363 330.5,363.4
			330.5,363.9 338.6,362.7 339.8,361.8 340.1,362 340.5,362.2 340.9,362.1 341,361.1 341.4,360.2 342.4,359.8 344.4,359.3
			347.8,357.7 347.6,357.2 347.3,356.7 347,356.4 346.6,356.3 346.6,355.7 348.2,355.7 348.7,356.1 348.5,357.3 349.1,357.9
			350.6,358.1 350.9,358.5 351.3,359.2 352.2,359.6 353.2,359.8 355.5,359.7 358.8,358.6 360.2,357.7 360.2,358.7 359.5,359.5
			358.5,360.2 357.7,360.8 358.2,361.1 358.8,361.4 359.3,361.4 359.9,361.3 360.3,361 361,360 361.3,359.8 365.3,359.3
			366.2,358.9 370.2,353.5 371.6,350.7 371.7,349.7 372.8,348.7 374.2,347.9 375.4,347.6 375,348.1 374.5,349 374.1,349.6
			374.8,349.9 374.9,350.7 374.9,351.6 375.1,352.2 375.1,352.7 374.5,353.2 374.5,353.7 375.1,354.1 375.8,354.2 378.8,353.7
			380.3,354 381.2,354.4 381.2,234.9 		"/>
		<polygon fill="#009B48" points="374.6,356.8 374.1,357 373.7,357.7 373.4,358.4 373.2,358.8 372.5,359.1 371.6,359.3 370.8,359.1
			370.4,358.3 369.6,358.9 364.1,360.6 363.4,361.1 362.8,361.7 362.1,362 360.5,362.3 357.6,362.3 357,362.6 356.6,362.5
			353,362.3 352.6,362.4 352.3,362.6 352,363.1 351.5,363.5 351.1,363.3 350.7,363 350.3,362.8 346.7,362.8 344.9,362.3
			344.4,362.5 344,362.9 343.8,363.1 343.5,362.8 342.4,364.1 342.3,364.7 342.4,365.6 342.3,366 341.9,366.4 341.9,366.9
			342.2,367.3 342.3,367.7 342.2,368.1 341.9,368.5 342.7,368.4 343.4,368.5 343.9,369 344.1,370 343.4,369.6 342.2,369.3
			341,369.3 340.2,369.7 339.6,370.7 339,371.3 334.5,373.4 331.4,373.6 330.6,373.9 329.9,374.6 330.7,375.5 332,376.1
			334.3,376.5 335.1,377.3 335,380.9 335.5,382.1 334.3,382.6 333.9,382.6 333.9,383.1 334.2,383.2 334.5,383.3 335.1,383.6
			334.4,383.9 334,383.9 333.5,383.6 333,383.1 333.1,383.8 333.3,384.4 333.5,384.8 333.9,385.2 334.5,384.7 335.2,384.9
			336.7,385.7 338.1,385.7 338.8,385.9 339.5,386.6 336.2,387.1 335.5,386.6 335.7,386.4 336,386.1 335.5,385.9 335,386.2
			334,387.4 333.4,387.8 331.5,387.8 330,387.4 328.6,386.8 327.9,386.6 327.2,386.3 327,385.3 327,384.2 326.8,383.1 327,382.4
			326.5,382.1 324.9,382.1 326,383.5 325.6,385.1 324.4,386.4 323.1,387.2 320.1,387.6 320,387.2 320.6,384.4 319.9,383.8
			315.2,385.2 314.7,385.5 313.7,387.1 313.1,387.6 312.3,387.8 311.6,387.8 311.1,388.1 310.6,389.2 310.8,389.3 311.3,389.7
			310.8,390.3 310.8,390.9 310.9,391.4 310.8,392 310.4,392.2 309.8,392 308.8,391.2 309.1,390.2 308.3,390.5 307.3,391
			306.8,391.7 307.3,392.3 307.3,392.7 306.4,393.5 306,393.7 306.4,395.2 306.5,396.4 306.8,397.3 307.9,397.7 308.9,397.5
			310.7,396.7 311.6,396.7 311.2,396.4 311,396.2 311,395.7 312,395.7 314.2,396.5 315.3,396.7 315.3,396.2 314.6,395.8
			314.2,395.7 313.8,395.7 313.8,395.3 315,394.9 315.5,394.9 316.7,396.1 317,395.9 317.3,395.4 317.8,395.3 318.3,395.7
			318.7,396.4 319.2,396.8 320.3,396.2 326.4,394.6 327.7,394.7 328.4,394.9 329,395.2 329.4,395.7 329.7,396.9 329.9,396.6
			330.2,395.7 329.6,394.2 338.5,393.7 337,394.7 337.2,394.9 337.6,395.4 337.9,395.7 334.6,396.2 333.2,396.1 331.8,395.3
			330.8,399.6 331,400.3 330.3,400.3 329.7,400.2 329.3,399.6 329.3,398.3 328.9,398.3 328,400.8 326.1,401.8 321.8,402.8
			319,404.1 317.8,404.9 316.5,405.2 315.6,405.7 315.9,406.8 315.4,407.1 314.3,407.5 313.8,407.8 313.8,408.3 314.6,408.4
			315.1,409.1 315.5,409.9 316.1,410.3 316.3,410.5 316.3,411 316.1,411.5 315.8,411.7 315,411.7 311.2,413.1 309.8,413.3
			309.8,413.8 309.9,413.8 310.2,413.8 310.4,413.8 310.3,414.1 310.3,414.3 310.2,414.5 310.1,414.8 310.1,414.8 310.2,414.8
			310.3,414.9 310.4,415.3 310.1,416.1 310.6,416.2 311.6,416.1 312.2,416.3 312.5,417.3 312,419.4 312.2,420.3 312.9,419.9
			314.3,418.6 314.9,418.3 315.4,417.9 316.5,416.1 317,415.7 318.9,416.6 319.6,418.5 319.2,420.2 317.5,420.8 321.8,422.8
			321.5,423.7 322.6,423.4 323.8,422.7 324.9,421.7 325.8,420.8 326.9,421.3 327.9,420.8 329.9,419.3 330.4,419.1 331.5,418.9
			332,418.7 332.3,418.4 332.6,418 332.9,417.7 333.6,417.7 333.5,418.1 333.4,418.9 333.3,419.3 333.8,419.1 335.1,418.3
			334.8,417.7 335.5,417.5 337,417.5 337.3,417 337.7,416.6 338.5,416 343.3,414.2 346.6,413.8 346.6,414.3 345.1,414.8
			342.5,416.3 341,416.8 339.8,416.7 339.5,416.8 339.2,417.1 338.7,418.1 337.8,418.6 336.7,419.9 336,420.3 336,420.8
			336.9,421.2 337.3,421.3 337.3,421.7 335.6,421.8 334.8,421.7 334.2,421.3 334.1,422.5 333.6,423.2 332.8,423.6 332,423.7
			332.3,423.3 332.5,422.6 332.7,422.2 331.5,422.5 329.9,423.3 328.5,424.4 327.7,425.7 329.6,425.7 329.6,426.3 327.4,428.3
			326.5,428.7 324.6,428.6 323.6,428.8 323.1,429.7 323.8,429.6 324.4,429.9 324.8,430.4 324.6,431.3 324.8,431.3 324.9,431.3
			324.9,431.4 324.9,431.7 324.2,432.2 321.1,433 320.9,433.2 320.7,433.6 320.7,434 320.6,434.4 320.3,434.7 320.6,435.2
			321.4,434.4 322.4,434 324.5,433.7 324.9,433.8 325.8,434.2 326.3,434.2 327.4,433.4 330.2,432.4 330.5,432.3 330.6,432
			330.7,431.7 330.7,431.5 330.8,431.3 331.4,430.8 333.3,429.9 339,429.1 340.6,428.4 343.5,428.1 344.5,427.8 345.4,427.3
			346.6,426 347.2,425.5 348.1,425.3 347.6,424.5 347.6,423.9 347.7,423.2 347.5,422.2 347.9,422.4 348.4,422.7 348.8,423
			349.1,423.3 349.1,423.6 349,424.5 349.1,424.8 349.2,424.9 349.6,424.9 350.7,425.7 351.4,425.4 352.1,424.9 352.8,425.3
			352.8,425.7 352.6,425.9 352.4,426.4 352.2,426.7 352.1,427.9 350.7,428.5 349.1,428.9 347.4,429.8 345.9,430 345.3,430.9
			339.8,433.9 338,434.5 337.6,435.2 337.3,435.9 336.8,436.2 336.4,436.4 334.5,437.7 337.3,437.4 346,433 348.1,433.2
			347.2,433.8 345.6,434.6 344.7,435.2 342.7,437.5 341.9,438.2 340.9,438.7 339.4,439.1 338.5,439.6 336.9,441.3 336.1,441.8
			335.1,442.2 335.5,442.8 335.7,443 336,443.1 336,443.6 335.9,443.9 335.8,444.2 335.7,445.2 336,444.6 336.4,445.2 337.7,444
			338.1,443.8 337.9,444.6 341,443.1 340.8,443.1 340.7,443 340.4,442.6 342.9,440.4 343.2,439.8 343.8,440.1 344.3,440.9
			344.4,441.7 345.2,441.7 345.7,441.5 346.6,440.6 346.9,440.6 347.7,440.6 347.8,440.4 347.9,439.7 348.1,439.4 351.3,438.7
			352.6,438.1 352.2,437.2 352.8,436.9 353.6,437.1 354.3,437.4 354.6,437.9 354.5,438.9 354.2,439.7 354.1,440.4 354.6,441.2
			355.6,440.3 356,439.8 356.2,439.4 357.6,438.5 358,438.2 358.1,438.4 358.1,438.5 358.2,438.5 358.3,438.7 357.8,439.2
			356.7,440 356.2,440.6 355.8,441.6 355.9,441.9 356.5,441.6 357.1,441.2 356.8,441.9 356.5,442.4 356.1,442.8 355.6,443.1
			357,443.1 357.6,442.9 358.2,442.4 358.5,442.1 358.9,442.2 359.2,442.1 359.3,441.4 360.5,440.6 360.6,441 360.7,441.3
			360.8,441.6 360.8,442.2 361.4,441.9 361.8,442 362.2,442.2 362.7,442.2 363,441.7 363.3,441.1 363.6,440.6 364.2,440.6
			364.2,440.2 364.1,439.5 364.4,439.3 365.6,439.6 366.3,439.5 367,439.1 367.6,438.5 367.9,437.7 367.5,437.3 367.3,437.2
			367.3,436.7 367.9,436.8 368.9,437.4 369.5,437.7 372,437.1 372.7,436.7 373.2,436.7 373.7,436.8 374.6,437.5 374.9,437.7
			375,438 375.4,438.5 375.8,438.7 376,437.9 376.2,437.7 377.8,437.2 378.3,436.4 378.7,435.1 379.4,434.3 380.3,434.7
			380.6,434.3 380.9,434.4 381.2,434.6 381.2,355.9 		"/>
		<polygon fill="#FFFFFF" points="392.4,178.9 392.4,179.4 393.1,180 394.1,180 396.1,179.4 395.9,178.1 395.5,177.4 395,177.1
			394.2,176.7 394,176.4 393.7,176.2 393.4,176.3 393,176.7 393.1,176.9 393.2,177.1 393.3,177.3 393.1,177.4 392.4,177.9
			392.5,178.5 392.5,178.6 392.5,178.6 		"/>
		<polygon fill="#FFFFFF" points="458.6,394.4 458.3,395.3 458.8,395.1 458.8,394.2 		"/>
		<polygon fill="#FFFFFF" points="458.6,174.3 457.1,174.1 455.1,173 454.3,172.9 452.8,173.4 452,172 452,172 452,171.7
			452.6,170.3 453.3,169 455.3,166.2 455.9,165.6 457.1,165.3 458.6,164.5 458.8,164.3 458.8,155.7 457.3,155 456.6,154.4
			454.3,150.8 453.7,150.3 451.9,149.3 451.2,149.2 448.1,148.1 446.6,147.2 445.7,147 445,147.5 445.4,148 446,148.5 447.2,149.2
			447.3,151.1 448.6,152.8 451.5,155.1 450.6,155.8 449.6,155.7 448.6,155.3 447.7,154.6 448.1,154.7 449,154.6 448.3,153.2
			447.4,152.7 446.5,153 444.8,154.9 443.8,154.9 442.8,154.3 441.9,153.5 442,153.9 442,154.2 442.1,154.4 442.2,154.6
			441.5,155.1 440.9,155 440.2,154.7 439.4,154.6 439.9,155.9 439.8,157.5 439.3,158.8 438.3,159.8 438.3,160.5 438.5,161.4
			438.7,161.9 439,162.3 440.1,163.2 441.9,166.1 442.2,166.2 442.2,168.1 441.7,169.2 441.5,169.9 441.8,170.2 442.6,170.7
			442.8,171.8 442.5,173.1 441.9,174.1 441.1,174.4 440.1,174.7 439.2,175.1 438.8,175.9 438.3,176 434.1,180.2 433.2,180.8
			432.3,181.1 432.3,180.5 433,180 434.5,177.9 436.7,176.2 437.2,175.7 437.7,174 436.9,173.5 434.2,174.1 434.2,173.5
			436.6,171.9 437.4,170.9 438,170.4 438.7,170.2 439.1,169.7 439.4,168.4 439.3,167.1 438.7,166.5 438.2,166.1 437.6,165.2
			437.3,164.2 437.2,163.2 435.9,162.6 435.4,162.1 435.1,161.4 435.2,160.9 435.4,159.7 435.5,158.5 435.3,157.9 434.9,157.5
			434.5,156.8 434,156 433.3,155.7 432.7,155.9 431.1,157.3 430.4,157.6 428.7,157.3 428.7,157.8 427.5,160.3 427.4,161.3
			427.9,161.8 429.2,162.2 429.6,162.6 430,163.2 430.4,163.7 431.1,163.8 430.8,163 430.5,161.7 430.4,160.6 430.8,160
			431.3,160.3 431.7,161.1 431.9,162.2 432,163 432.2,163.4 432.6,164.7 432.9,165.9 432.8,166.5 432.4,166.9 431.7,169
			431.4,169.7 431.4,169 431.7,167.6 431.7,167 431.6,166.5 431.2,165.4 431.1,165.1 430.7,164.4 429.8,163.6 428.9,163
			428.3,162.7 427.9,162.7 427.4,163.3 427,163.2 426.7,163 426.5,162.6 426.4,162.3 426.3,162.2 426.3,161.6 427.4,157.9
			427.2,157.7 427.2,157.7 427,157.3 425.9,158.7 424.7,159.6 424,160.6 424.3,162.2 425.3,163.7 425.4,164.5 424.9,165.9
			424.4,166.6 424,166.6 423.5,166.5 422.7,166.5 422.7,165.9 423.2,165.9 423.7,165.6 424,165 424.3,164.3 423.6,164.5 422.9,165
			422.5,165.2 422.7,164.3 422.7,163.8 422.1,162.7 421.6,163 420.9,163.3 420.2,163.3 419.9,163 419.7,162.8 417.8,163.8
			417.8,163.2 419.8,161.8 420.2,160.9 419,160 418,160.2 417.4,161.4 417,162.6 416.4,163.2 415.5,163.6 412.8,165.3 411.4,167.2
			410.9,167.7 410.6,167.3 410.7,166.6 411,166.1 411.3,165.6 411.6,164.9 410.8,165 409.4,165.8 408.6,165.9 406.1,164.8
			405.4,164.9 404.9,165.7 404.2,168.1 403.7,168.6 403.5,169.2 403.6,170.6 404.2,172.9 403.8,173.4 403.5,174.8 403.2,175.1
			402.8,174.7 402.7,172.9 402.3,172.4 401.9,172.7 401.1,174.6 400.5,174.9 400.1,174.9 399.7,175.1 399.5,176.2 399.8,176.2
			399.7,176.5 399.2,177.3 398.7,176.8 398.2,176.7 397.7,176.9 397.3,177.3 397.3,177.9 399,180 400.1,181 401.4,181.6
			400.3,182.3 399.7,182.6 399,182.6 398.5,182.4 398,181.9 397.6,181.7 397,182.2 397.6,183.6 398.4,185.2 399.5,186.4
			400.7,186.4 400.8,186.2 400.8,185.7 400.9,185.1 401.1,184.8 401.3,184.7 402.1,184.8 402.7,185.1 403.2,186.5 403.8,187
			403.2,187.2 401.4,186.8 400.7,187.5 400.7,188.8 401.4,189.6 402.4,190.1 403.2,190.2 403.2,190.7 402.3,190.7 399.8,189.7
			397.7,190.1 396.7,190 395.8,189.1 395.3,189.5 394.7,190.4 394.2,190.7 393.7,190.8 393.2,190.8 392.9,191 392.7,191.8
			393.8,191.9 395.4,193.1 397.1,193.7 399.5,196.1 398.7,196.5 397.9,196.1 397.1,195.1 396.6,194.2 396,194 394,194.1
			393.3,194.4 394.2,195.3 397.3,196.1 397.3,196.6 396.1,196.5 393.7,195.8 389.2,195.6 388,196.1 384.8,198.4 384.3,199
			384.2,200 383.8,200.5 383.3,200.8 382.6,200.9 382,201.1 381.9,201.6 382.2,202.2 382.8,202.5 382.8,203 382.6,203.3
			382.4,203.6 382.3,203.8 382.2,204.1 383,204.1 386.7,205.6 387.1,206 386.8,206.7 387.6,207.3 391,207.3 391.9,207.9
			392.5,208.1 393,207 393.5,206.8 394.6,206.7 394.9,206.6 395.3,206.3 395.6,206.2 396,206.3 396,206.6 396,207 396.2,207.5
			396.6,208.2 397.1,208.6 397.3,208.1 397.7,206.6 398.5,205.6 399,205.6 398.9,207.3 399.2,207.3 399.9,206.5 400.4,207.2
			400.6,208.3 400,208.9 399.1,209.2 398.4,209.7 397.3,211 397.3,211.5 398,211.4 398.6,211 399.2,210.4 401.3,208.1 402.5,207.5
			403.6,206 404.3,205.7 405,205.9 405.3,206.5 405.2,207.2 404.8,207.9 404.8,208.3 405.7,207.8 407.3,206.5 410.4,206
			411.3,205.5 412.2,204.7 412.3,204.9 412.3,205 412.3,205 412.5,205.1 412.2,205.8 411.7,208.3 411.2,208.2 410.8,207.9
			410.5,207.6 410,207.3 410.2,209.2 408.1,211.1 408.2,212.6 405.7,214.7 406.3,215.4 407,215.7 408.5,215.8 408.5,216.4
			407,216.7 405,218.1 400.6,219 399.3,219.7 397.9,220.6 397.9,220.1 397.8,220.1 397.7,220 397.5,219.6 397.2,218.7 396.9,218.5
			396.7,219.8 396.7,221.4 396.5,222 396.3,222.2 395.5,222.5 390.3,226.2 389,226.6 388.4,226.9 388,227.4 387.8,228 387.8,228.8
			388.1,229.1 392.6,229.1 393.5,229.3 394.5,229.9 394.8,230.7 393.9,231.2 392.9,230.4 392.3,230.2 392.1,230.9 392.2,231.6
			392.5,231.8 393.5,231.7 394.3,231.8 395.2,232.2 396,232.9 396.7,233.8 393.5,233.2 393,233.6 392.7,233.9 392.1,233.8
			391.1,233.3 390.7,233.6 390.2,234.5 389.9,234.9 389.9,235.4 390.6,235.4 391.4,235.7 392.1,236.1 392.4,236.7 392.7,237.6
			393.4,238 394.2,238.3 394.9,238.6 394.9,239.1 393.4,239.1 392.7,239.2 392.1,239.7 391.1,238.3 390.6,237.8 389.3,237.2
			389.1,236.5 388.9,235.6 388.7,234.9 387.4,234.2 384.6,234.8 383.4,233.8 382.5,234.6 381.5,234.9 381.2,234.9 381.2,354.4
			383.2,355.2 384,355.2 382.5,355.7 381.2,355.9 381.2,434.6 381.2,434.6 381.7,434.7 383.4,434.7 383.8,435 384.1,435.5
			384.4,435.8 384.8,435.5 386.5,435.7 386.3,434.8 386.3,434.2 386.6,433.7 387.1,433.2 386.2,432.8 386.5,432.5 386.8,432.3
			386.8,431.7 385.1,431.7 384.4,431.4 383.7,430.7 389.1,431.3 391.3,430.7 392.1,430.7 392.7,431.2 393.4,432.7 393.9,433.2
			393.8,432.4 393.6,431.3 393.6,430.5 393.7,430 394.4,428.3 394.7,428.2 395.1,428 395.4,427.7 395.5,427.3 395.3,426.7
			395,426.8 394.6,427.3 394.1,427.1 393.2,427 392.7,426.7 392.7,426.3 394.8,426.3 395.8,426.8 396.1,428.3 396.8,427.9
			397,427.1 396.8,426.2 396.1,425.7 396.6,425.5 397.4,425.8 398,426.4 398.3,427.3 398.9,426.4 399.4,426 401.1,425.6
			402.3,424.9 402.8,424.2 404.3,422.5 404.5,421.9 404.4,421.5 404.2,421.2 404.2,420.8 404.3,420.5 405.1,419.3 403.5,419.3
			403.8,419 404.1,418.9 404.8,418.7 404.6,418.6 404.2,418.3 404.2,417.7 404.5,417.7 404.5,417.3 403.9,417.1 402.3,417.3
			403.1,415 402,414.1 400.1,413.9 398.6,413.3 399.5,412.8 400.4,412.6 402.3,412.7 403.1,412.5 403.9,412.1 404.7,411.9
			405.1,412.3 405.1,412.7 406.9,412.7 407.9,412.9 408.5,413.3 408.8,412.7 409.2,412.5 409.5,412.7 409.7,413.3 409.3,413.5
			409.1,413.8 408.8,414.8 409.2,414.8 409.5,414.9 409.7,415.1 410,415.3 409.4,416 408.8,416.4 408.2,416.7 407.6,416.8
			407.8,417.5 407.9,417.7 407.4,417.8 407,418.1 406.7,418.5 406.6,419 406.8,419.3 407.3,419.3 407.8,419.3 409,419.4
			411.9,419.1 413.6,418.4 417,417.7 417.8,417.3 416.9,416.3 417.6,415.4 419.9,414.3 421.8,413.9 422.8,413.5 423.3,412.7
			422.8,412.5 421.5,411.3 422.4,411.2 423.2,410.8 423.8,410 424.4,409 424.5,408.4 424.6,406.7 424.7,406.3 425.2,406.6
			425.4,407.3 425.5,407.9 425.7,408.3 430.4,408.9 430.7,408.5 430.7,407.8 431.1,406.8 432,406.3 434.4,406.5 435.3,406
			435.6,405.7 436.1,405.6 436.5,405.5 436.6,405 436.8,402.8 438.2,401.7 438.5,400.8 438.4,400.5 438.1,400.4 436.7,399.8
			435.9,399.6 435.2,399.7 434.8,400.3 434.6,399.1 435.2,398.1 436,397.4 436.8,397.2 436.9,397.4 437.1,397.9 437.3,398.4
			437.6,398.7 438,398.6 438.3,398.3 438.4,397.9 438.7,397.7 440.3,397.3 443.4,395.6 452.1,394.7 453.8,395.1 454.6,395.1
			455.5,394.7 455.8,394.3 456,393.8 456.4,393.4 456.9,393.2 457.3,393.3 457.8,393.6 458.3,393.7 458.2,393.4 458.1,393.1
			457.9,392.9 457.7,392.7 457.7,392.3 458.3,392.2 458.8,392.3 458.8,174.3 		"/>
		<polygon fill="#FF7900" points="499.6,155.8 499.5,156.1 499.5,156.8 499.8,156.3 500.2,155.4 500.5,154.4 500.4,153.5
			499.9,153.3 497.6,153 497,153 496.5,153.3 496,153.6 495.5,154.1 496.5,154.2 497.6,154.1 498.7,154.2 499.8,155.1 499.6,155.5
					"/>
		<polygon fill="#FF7900" points="533.7,217.5 532.3,215.3 532.1,214.2 531.8,211.1 531.5,210.5 530.7,210.1 530.2,208.9
			529.5,206.2 529.4,205.4 529.3,204.8 529.2,204.3 528.7,204.1 528.3,203.9 527.7,202.8 527.5,202.5 522.1,203.4 521.1,203.3
			520.4,202.8 519.7,202.5 518.7,202.9 517.1,204.1 515.5,204.9 515.1,205.4 514.1,207 513.6,207.5 513.4,208 513,208.4
			512.4,208.3 512.3,208 512.3,207.3 512.1,206.6 511.6,206.2 513.2,203.1 514.1,202 515.3,200.9 516.5,200.2 519.2,199.4
			520.5,198.8 521.5,197.6 522.1,195.9 522.3,193.7 521.7,191.2 520.9,190 519.5,188.7 518.1,188.4 517.4,189.7 520.3,192.8
			521.1,194.4 520.8,194.4 519.8,192.8 518.4,192.3 517.3,191.6 516.8,189.4 516.7,188.3 516.4,187.3 515.9,186.5 515.5,185.9
			515.2,185.5 514.5,184.9 514.2,184.5 513.9,183.9 513.6,182.7 513.4,182.2 512.5,180.8 511.4,179.8 510.2,179.2 508.9,178.9
			508.8,178.4 509.6,175.5 509.7,174.1 509.4,173.3 508.8,172.8 508.1,172.5 507.5,172.4 506.7,172.5 505.8,172.4 505.5,171.7
			506.1,170 506.4,168.7 506.6,164.3 506.1,163.4 504.5,161.6 504.1,161.4 503.7,160.8 502.8,160.3 501,160 500.2,160.2
			498.4,160.9 497.4,161.1 496.7,160.9 492.3,158.4 491.2,158.1 489.5,159.2 488.4,158.9 486.8,157.9 485.8,158 484.8,158.5
			483.9,159.3 483.2,160.3 482.5,160.9 479.3,161.1 474.2,163.5 468.4,163.8 467.5,163.4 465.5,162.1 464.8,162.2 464.5,163.3
			464.2,166.8 463.7,167.6 463.2,168.2 462.7,169.5 462.3,170.9 462.3,171.9 461.7,172.4 460.7,173.7 460.2,174.1 458.8,174.3
			458.8,392.3 458.9,392.3 459.9,392.7 458.8,394.2 458.8,395.1 459.3,395 461.3,394.9 462.3,394.7 463.1,394.1 464.4,392.3
			465.1,391.7 465.1,391.2 464,391.2 463.9,390.5 464.5,388.7 464.3,388 463.7,386.7 463.6,386.4 463.5,385.6 463.2,383.6
			463.8,384.4 464.5,386.7 465,387.2 465.4,387.5 466,388 466.4,388.7 466.7,389.2 467.5,392.2 467.4,393 466.9,393.5 466.4,393.9
			465.8,394.4 465.4,395.3 466.2,395.7 466.8,395.1 467.3,394.2 467.8,393.7 471,391.7 470.7,391.2 470.8,391.2 471.1,391.2
			471.3,391.2 471.3,390.7 471,390.7 470.7,390.7 471,390.2 471.2,389.8 471.3,388.7 471,388.7 470.9,388.9 470.4,389.2
			470.5,388.7 470.5,388.5 470.4,388.2 470.4,387.6 470.7,387.2 471.6,387.6 472.5,387.2 473.2,386.4 473.8,385.7 473.7,386.8
			473.2,387.8 472.6,388.4 471.9,388.7 471.9,389.2 472.8,389.5 475.9,389 479.3,390 480.1,390.4 481.3,391.7 482.1,391.8
			484,390.7 486.2,390.2 486.9,389.7 487.4,389.7 488,390.2 487.1,390.2 487.1,390.7 489,390.6 489.2,390.6 489.3,390.4 489.8,390
			490.2,389.4 490.5,389.2 491,389.3 491.1,389.6 490.7,390.5 490.3,390.9 490.2,391.2 490.8,391.7 491.2,391.8 491.6,391.7
			492,391.2 492.6,390.4 493.9,387.2 491.6,384.9 490.7,383.2 491.4,381.6 491.4,381.2 490.3,383 489.8,383.6 489.5,382.8
			489.1,382.2 487.7,381.9 488,381.2 487.7,380.2 487.2,379.4 486.5,378.8 485.8,378.5 485.8,378.1 486.2,377.7 486.6,377.5
			487,377.2 487.4,377.1 487.1,378.4 488,378.7 490.7,378.5 491.1,378.6 491.4,379 491.7,379.5 491.8,378.6 491.7,377.3
			491.8,375.9 492.2,374.8 493.2,372.9 493.9,371.9 494.7,371.5 495.5,370.5 498.2,366 498.8,364.7 498.9,361.5 498.8,360.4
			498.4,358.2 498.3,357.2 498.5,355.7 500.7,352 501.6,349.8 501.3,348.1 502.4,344.6 502.9,343.5 503.4,342.8 505.4,341
			505,340.4 506.6,336.9 507.1,336.3 507.3,336 507.7,334.6 508,334.3 508.6,334 508.4,333.5 506.5,331.3 505.9,330.1 506.1,328.9
			506.5,327.8 506.7,326 506.8,324.2 506.6,323 506.7,322.9 506.8,322.9 506.8,322.8 506.9,322.5 505.3,319.3 504.7,318.4
			505.1,317 504.8,316.2 504.3,315.6 503.8,314.7 503.5,313.6 503.5,312.6 503.5,310.9 503.7,310.6 503.9,310 503.9,309.4
			503.3,309.1 503,309 502.5,308.7 501.3,308.4 500.7,307.8 499.8,306.5 498.7,305.4 498.4,304.8 498.5,303.9 501.2,301.9
			501.5,301.8 502.3,301.4 502.7,301.3 502.9,301.5 503.5,302.2 503.6,302.4 504.3,302.7 504.9,303.3 505.5,303.2 506,301.9
			505.1,301.3 503.3,301.2 502.6,300.8 502.7,300.6 503,300 503.2,299.8 502.7,299.3 502.6,298.4 502.4,297.5 499.5,296.1
			500.2,295.6 501.1,295.3 501.9,295.4 502.2,296.1 502.6,295.6 503.2,294.2 503.5,293.6 503.6,293 503.8,292.5 504.6,291.2
			504.9,290.2 504.8,289.1 504.4,288 504.1,287.3 503.2,286.7 501.8,286 500.6,285.2 499.8,283.3 498.6,282.5 498.2,282.1
			497.9,281.3 497.6,280.2 497.4,279.1 497,273.8 497.3,271.7 498.2,270.7 497.2,269.9 496.8,268.7 496.8,267.4 497.3,266
			497.3,265.4 493.9,265 492.4,264.2 491.4,262.8 491.2,261.5 491.2,260.1 491.4,257.8 491.7,256.6 492.3,255.5 492.6,254.8
			492,254.5 492,253.9 494.4,254.2 497.6,255.6 498.2,255.4 498.8,256 499.9,256.7 501,257.1 501.8,256.8 503.3,255 503.4,254.1
			502.6,252.8 502.2,252.5 501.8,252.4 500.9,252.3 500.6,252.1 499.9,251 499.6,250.7 498.9,250.4 496.1,247.6 496.4,247.1
			497.3,247.5 498.7,247.5 499.9,248 500.4,249.4 501,249.4 504.4,250.7 504.1,250.8 503.2,251.3 503.2,251.7 504,252.3
			504.7,252.4 506.4,252.3 507,252 509,250.5 510.4,249.1 512.2,248.1 513.1,247.1 513.5,245.8 513.9,244.3 514.2,242.7
			514.3,241.2 514.2,238.3 514.5,237.4 515.4,237 516.3,236.9 518.2,236.1 520.2,235.9 522.8,236.2 523.3,236.7 523.5,237.4
			523.8,237.4 524.2,237.3 524.5,237 524.8,235.4 525,235.4 525.6,235.5 525.8,235.4 527.3,233.9 528.5,232.1 529,229.9 528.6,227
			527.3,225.5 525.3,226.1 523.2,227.3 521.4,228 521.9,227.2 523.6,225.9 523.9,225.1 525.2,221.1 524.8,220.6 525.1,220.1
			525.1,219.9 525.2,219.6 524.6,219.4 524.3,218.7 524.3,217.8 524.5,216.9 523.2,216.1 523.4,215.7 524.4,215.6 525.2,215.3
			524.7,214.8 523,214.7 522.7,214.4 522.2,214.1 521.7,213.7 521.1,213.7 521.5,213.2 521.9,212.6 522.1,211.8 521.7,211
			521.7,210.5 523.1,210.6 524.3,211.3 527.4,214.3 528.2,215.6 528.7,217.4 528.9,219.8 528.7,221 527.6,222.3 527.3,223.2
			527.4,224.1 527.7,224.9 528.2,225.6 528.7,225.9 529.2,227.4 529.6,228.5 530.1,229.1 530.8,229 531.3,227.9 532,227.5
			531.3,226.6 531.6,226 532.2,225.5 532.6,224.9 532.8,223.6 532.5,222.3 532.7,221.4 533.6,220 533.8,219.6 533.9,219.2
			533.7,218.8 533.7,218.4 534,217.7 		"/>
		<polygon fill="#FF7900" points="506.7,294.2 507.2,294.7 507.8,294.9 508,294.7 508,294.3 508.3,294 508,293.6 507,293.7 		"/>
		<polygon fill="#FF7900" points="460.1,162.9 461.6,162 463.1,161.3 464.3,161.1 465.7,160.3 465.8,158.7 465.2,157.5 464.2,157.9
			463.3,157.2 461.2,156.3 459.5,156 458.8,155.7 458.8,164.3 		"/>
		<polygon fill="#FF7900" points="501.6,303.4 500.8,303.9 500.6,304 500.1,304.5 499.9,305.1 500.2,305.4 500.5,304.8 501.1,304.2
			501.6,304 502,303.5 502.6,303.3 502.2,303.2 		"/>
	</g>
	<path fill="none" stroke="#999999" stroke-width="0.25" stroke-linecap="round" stroke-linejoin="round" d="M533.7,218.4l0.3-0.7
		l-0.3-0.2l-1.4-2.2l-0.2-1.1l-0.3-3.1l-0.3-0.6l-0.8-0.4l-0.5-1.1l-0.7-2.7l-0.1-0.8l0-0.7l-0.2-0.5l-0.5-0.2l-0.4-0.2l-0.6-1.1
		l-0.3-0.3l-5.4,0.9l-1-0.1l-0.7-0.6l-0.7-0.3l-1,0.4l-1.5,1.2l-1.6,0.8l-0.4,0.5l-1,1.6l-0.5,0.5l-0.2,0.5l-0.3,0.4l-0.6-0.1
		l-0.1-0.4l0-0.7l-0.2-0.7l-0.5-0.4l1.7-3.1l0.9-1.2l1.2-1.1l1.2-0.7l2.7-0.8l1.3-0.7l1-1.1l0.6-1.7l0.1-2.2l-0.5-2.5l-0.8-1.3
		l-1.4-1.3l-1.4-0.4l-0.7,1.3l2.9,3.1l0.8,1.7h-0.3l-1.1-1.6l-1.3-0.5l-1.1-0.7l-0.5-2.2l-0.1-1.1l-0.3-1l-0.4-0.8l-0.4-0.6
		l-0.4-0.4l-0.7-0.6l-0.3-0.3l-0.3-0.6l-0.3-1.3l-0.2-0.5l-0.9-1.4l-1.1-1l-1.2-0.6l-1.3-0.2l-0.1-0.5l0.8-2.9l0.1-1.4l-0.3-0.7
		l-0.6-0.5l-0.7-0.3l-0.6-0.1l-0.8,0.1l-0.9-0.1l-0.4-0.7l0.7-1.7l0.3-1.3l0.2-4.4l-0.5-0.8l-1.7-1.9l-0.4-0.2l-0.4-0.6l-0.9-0.4
		L501,160l-0.9,0.2l-1.7,0.8l-1,0.2l-0.7-0.2l-4.4-2.5l-1.1-0.3l-1.7,1.1l-1.1-0.3l-1.6-1l-1,0.1l-1,0.5l-0.9,0.8l-0.7,1l-0.7,0.6
		l-3.1,0.2l-5.2,2.4l-5.8,0.3l-0.9-0.4l-1.9-1.3l-0.7,0.1l-0.3,1.1l-0.3,3.6l-0.5,0.8l-0.5,0.6l-0.5,1.3l-0.4,1.4l0,1l-0.7,0.5
		l-1,1.3l-0.5,0.4l-1.6,0.2l-1.6-0.2l-2-1l-0.8-0.1l-1.5,0.5L452,172l0,0l0.1-0.3l0.6-1.4l0.7-1.3l2-2.8l0.6-0.6l1.2-0.4l1.5-0.8
		l1.5-1.5l1.4-0.9l1.5-0.7l1.3-0.2l1.3-0.8l0.2-1.6l-0.6-1.2l-1,0.5l-0.9-0.7l-2.1-0.9l-1.7-0.3l-2.3-1l-0.7-0.6l-2.3-3.6l-0.6-0.5
		l-1.7-1l-0.7-0.1l-3.1-1.1l-1.5-0.9l-0.8-0.2l-0.7,0.5l0.4,0.5l0.5,0.5l1.2,0.7l0.1,1.8l1.4,1.7l2.9,2.3l-0.9,0.7l-1,0l-1-0.5
		l-0.9-0.6l0.3,0.1l1-0.1l-0.7-1.4l-0.9-0.5l-0.9,0.3l-1.7,1.9l-1,0l-1-0.6l-0.9-0.8l0.1,0.4l0,0.2l0,0.2l0.1,0.3l-0.7,0.5l-0.6-0.1
		l-0.7-0.3l-0.8-0.1l0.5,1.2l-0.1,1.6l-0.5,1.4l-1,0.9l0,0.8l0.2,0.8l0.2,0.5l0.3,0.5l1.1,0.9l1.8,2.8l0.3,0.1v1.9l-0.5,1.1
		l-0.2,0.7l0.2,0.3l0.8,0.5l0.2,1.1l-0.3,1.3l-0.6,1l-0.8,0.4l-1,0.3l-0.9,0.4l-0.4,0.9l-0.5,0.1l-4.3,4.2l-0.8,0.6l-0.9,0.3v-0.5
		l0.6-0.5l1.5-2.1l2.2-1.6l0.5-0.6l0.5-1.7l-0.9-0.5l-2.7,0.5v-0.5l2.5-1.6l0.8-1l0.5-0.5l0.7-0.2l0.4-0.6l0.3-1.3l-0.1-1.3
		l-0.6-0.6l-0.5-0.4l-0.5-0.9l-0.4-1l0-0.9l-1.3-0.7l-0.6-0.5l-0.2-0.7l0.1-0.5l0.2-1.2l0.1-1.2l-0.2-0.6l-0.4-0.4l-0.4-0.8L434,156
		l-0.8-0.3l-0.6,0.2l-1.6,1.4l-0.7,0.3l-1.6-0.3v0.4l-1.2,2.5l-0.2,1l0.5,0.5l1.3,0.4l0.4,0.5l0.4,0.6l0.4,0.5l0.6,0.1l-0.3-0.8
		l-0.3-1.2l-0.1-1.1l0.4-0.6l0.6,0.3l0.4,0.9l0.2,1l0.1,0.8l0.2,0.5l0.4,1.2l0.3,1.3l-0.2,0.6l-0.3,0.4l-0.7,2.1l-0.3,0.7l0.1-0.7
		l0.2-1.4l0-0.6l-0.1-0.6l-0.4-1l-0.1-0.3l-0.4-0.7l-0.9-0.8l-0.9-0.6l-0.6-0.3l-0.4,0.1l-0.4,0.5l-0.4,0l-0.3-0.2l-0.2-0.4
		l-0.2-0.3l-0.1-0.1l0.1-0.6l1-3.7l-0.2-0.2l0,0l-0.1-0.4l-1.1,1.4l-1.2,0.9l-0.7,1l0.3,1.6l1,1.5l0.1,0.9l-0.5,1.4l-0.5,0.6l-0.4,0
		l-0.5-0.1l-0.8,0v-0.5l0.5-0.1l0.5-0.3l0.3-0.5l0.2-0.8l-0.7,0.2l-0.7,0.5l-0.4,0.1l0.2-0.9v-0.5l-0.6-1.1l-0.4,0.3l-0.7,0.3
		l-0.7,0.1l-0.3-0.4l-0.3-0.2l-1.9,1v-0.5l2.1-1.4l0.4-0.9L419,160l-1,0.2l-0.5,1.2l-0.4,1.3l-0.6,0.6l-0.9,0.3l-2.7,1.8l-1.4,1.9
		l-0.5,0.5l-0.2-0.4l0.1-0.7l0.2-0.5l0.3-0.5l0.3-0.7l-0.7,0.2l-1.4,0.7l-0.8,0.2l-2.5-1.1l-0.7,0l-0.4,0.8l-0.7,2.4l-0.5,0.5
		l-0.2,0.6l0.2,1.4l0.5,2.3l-0.4,0.4l-0.3,1.5l-0.3,0.3l-0.4-0.4l-0.1-1.8l-0.4-0.5l-0.3,0.3l-0.9,1.9l-0.5,0.3l-0.5-0.1l-0.4,0.2
		l-0.2,1.1h0.3l-0.1,0.3l-0.5,0.8l-0.5-0.5l-0.5-0.1l-0.5,0.2l-0.4,0.4v0.6l1.7,2.1l1,1l1.3,0.6l-1.1,0.8l-0.6,0.2l-0.6,0.1
		l-0.6-0.2l-0.4-0.5l-0.4-0.2l-0.6,0.4l0.6,1.5l0.8,1.6l1.1,1.1l1.3,0.1l0-0.2l0-0.5l0.1-0.5l0.2-0.4l0.2-0.1l0.8,0.1l0.6,0.3
		l0.5,1.4l0.6,0.5l-0.7,0.2l-1.8-0.3l-0.6,0.7l0,1.3l0.7,0.8l1,0.4l0.8,0.1v0.5l-0.9,0l-2.5-1l-2.1,0.4l-1-0.1l-0.9-0.9l-0.5,0.4
		l-0.6,0.8l-0.4,0.4l-0.6,0.1l-0.4,0l-0.3,0.2l-0.2,0.8l1.1,0.1l1.6,1.2l1.7,0.6l2.4,2.4l-0.8,0.4l-0.8-0.5l-0.7-0.9l-0.6-0.9
		L396,194l-2,0.1l-0.7,0.3l0.9,0.9l3.2,0.8v0.5l-1.2,0l-2.4-0.8l-4.5-0.1l-1.2,0.4l-3.2,2.4l-0.5,0.6l-0.1,0.9l-0.3,0.6l-0.5,0.3
		l-0.7,0.1l-0.6,0.2l-0.1,0.5l0.3,0.6l0.6,0.4v0.5l-0.2,0.3l-0.1,0.3l-0.1,0.3l-0.1,0.3l0.8,0l3.7,1.4l0.4,0.4l-0.4,0.8l0.8,0.5
		l3.4,0l0.9,0.7l0.6,0.2l0.5-1.1l0.5-0.2l1.1-0.1l0.3-0.1l0.5-0.3l0.3-0.1l0.4,0.1l0,0.3l0,0.4l0.2,0.5l0.4,0.6l0.5,0.4l0.2-0.5
		l0.4-1.5l0.8-1.1h0.6l-0.1,1.7h0.3l0.7-0.7l0.6,0.7l0.1,1.1l-0.6,0.6l-0.9,0.2l-0.7,0.6l-1.1,1.3v0.5l0.7-0.2l0.6-0.4l0.6-0.5
		l2.1-2.3l1.1-0.6l1.2-1.5l0.7-0.3l0.7,0.2l0.3,0.6l-0.1,0.7l-0.5,0.7v0.5l0.9-0.5l1.6-1.4l3.1-0.5l0.9-0.5l0.9-0.8l0.1,0.2l0,0.1
		l0,0l0.1,0.2l-0.2,0.7l-0.5,2.5l-0.6-0.1l-0.3-0.3l-0.3-0.3l-0.5-0.3l0.1,1.9l-2.1,1.9l0.1,1.5l-2.5,2.1l0.6,0.7l0.7,0.3l1.5,0.1
		v0.6l-1.4,0.3l-2,1.4l-4.4,0.9l-1.3,0.7l-1.3,0.9l0-0.5l-0.1,0l-0.2-0.1l-0.1-0.5l-0.3-0.8l-0.3-0.2l-0.2,1.3l0,1.6l-0.1,0.6
		l-0.3,0.2l-0.7,0.3l-5.2,3.7l-1.3,0.4l-0.5,0.4l-0.5,0.5l-0.2,0.6l0.1,0.8l0.2,0.2h4.5l1,0.3l1,0.6l0.3,0.7l-0.9,0.6l-1-0.9
		l-0.6-0.2l-0.2,0.8l0.1,0.6l0.3,0.2l0.9-0.1l0.9,0.1l0.9,0.4l0.8,0.7l0.7,0.9l-3.2-0.6l-0.5,0.3l-0.3,0.4l-0.6-0.2l-1-0.5l-0.4,0.3
		l-0.5,0.9l-0.3,0.4v0.6h0.7l0.8,0.2l0.7,0.4l0.3,0.6l0.3,0.9l0.7,0.4l0.8,0.2l0.6,0.3v0.5l-1.5-0.1l-0.7,0.1l-0.6,0.5l-0.9-1.5
		l-0.5-0.5l-1.3-0.5l-0.3-0.8l-0.1-0.9l-0.3-0.7l-1.3-0.7l-2.8,0.6l-1.3-0.9l-0.9,0.7l-1,0.3h-2.2l-0.7-0.2l-1-0.7l-0.7-0.3
		l-0.8-0.5l-0.5-0.5l-0.2,0.1l-0.3,0.3l-0.3,0.1l-2.7-0.7l-1.5,0.2l-0.7,1.3l-0.3,2l-0.8,1.5l-1,1l-1,0.4l0.3,1.1l-0.1,1.1l-0.2,1.2
		l0,1.4h-0.3v-1.5l-0.4-1.2l-0.6-0.9l-2.2-2l-0.2-0.7l0.9-0.6v-0.6l-1-0.5v-0.5l0.3-0.4l0.1-0.5l-0.1-0.6l-0.3-0.6l-0.1,0.2
		l-0.5,0.2l-0.8,0.2l-0.2-0.3L361,232l-0.3-0.3l-0.4,0l-2-1l-0.6-0.1l-0.4,0.3l-0.3,0.5l-0.5,0.4l-0.5,0.3l-0.4,0.1l-3.6-0.5
		l-0.4-0.2l-0.6-0.7l-0.4-0.1l-0.5,0.1l-0.8,0.4l-0.5,0.1l-7.8-0.6l-0.9-0.2l-1.7-1.1l-1-0.2l-2.6,0.7l-0.1,0.6l0.3,1.1l0.5,0.8
		l2.4,0.5l0.8,0.5l-1-0.2l-0.4,0l-0.4,0.2v0.5l0.9,0.5l0.4,0.4l0.3,0.7l-1-0.2l-1.6-1.2l-1-0.3l-0.7,0.5l-0.7,1.1l-0.3,1.2l0.6,0.9
		l-0.7,0.4l-0.6,0.9l-0.6,0.6l-0.7-0.5l-0.8-0.4l-1.1-0.1l-0.7-0.5l0.3-1.5l1.1,1.1l1.1,0.2l1.1-0.9l1-1.9l-0.2-0.1l0-0.1v-0.1
		l-0.1-0.3l-0.4,0.4h-0.4l-0.4-0.3l-0.3-0.6l-0.6,0.4l-0.8-0.1l-0.8-0.4l-0.6-0.5l-0.2-0.4l-0.1-0.5L328,232l-0.3-0.3l-0.5,0
		l-0.2,0.3l-0.1,0.4l-0.2,0.3l-2,1.2l-0.5,0.5l-0.4,0.9l-0.2,1l-0.4,0.7l-0.9,0l0.5,0.7l0.6,0.3l1.4,0l-0.5,0.9l-0.5,0.5l-0.4,0.6
		l-0.2,1.4l-0.2,0.9l-1,2.2l-0.3,0.9l0.1,1.5l0.4,0.8l0.7,0.3l0.8,0.1l0.8-0.3l-0.1-0.7l-0.6-0.7l-0.6-0.4l0.9-0.5l0.4,0l-0.1-1.5
		l-0.2-0.5l-0.6-0.2v-0.5l1-0.5l0.6-0.1l0.6,0.1v-0.5l-0.2-0.3l-0.4-0.8l0.9,0.2l0.8-0.3l0.3-0.7l-0.6-0.8l0.7-0.8l1,0.4l2.3,2
		l-0.3,0.6l-0.4,0.3l-0.5,0l-0.6-0.4l1.6,1.8l0.6,0.9l-0.3-0.2l-0.6-0.2l-0.3-0.2l0.3,0.9l0.5,0.7l1.4,1l-0.8,0.5l-2,0.6l-0.9,0
		l0.9,2l1.1,0.9l1.3-0.3l1.3-1.6h-0.3v-0.5l0.5-0.1l0.2-0.1l0.1-0.3l-0.1-0.6l1.2-0.4l0.5,0l0.4,0.4l-1.3,1.1l0.3,0.5l-0.6,0.3
		l-0.4,0.5l0,0.5l0.6,0.3l-0.5,0.7l-0.6,0.2l-0.5,0.4L332,252l0.2,1.1l0.3,0.6l0.3,0.4l0.1,0.5l0.2,0.3l0.8-0.1l0.3,0.1l0.2,0.4v0.3
		l0,0.4l0.5,1.9l0.3,0.6l0.5,0.2l-0.3-0.6v-0.5l0.6,0.1l0.4,0.5l0.4,0.6l0.4,0.5l-0.2,0.9l0.1,0.8l0,0.6l-0.4,0.2l-0.5-0.4l-0.2-1.8
		l-0.5-0.4L335,259l-1-0.7l-0.4-0.2l-2.2,0.6v0.5h0.3v0.5l-0.1,0.5l0,0.3l0.1,0.7l-0.8,0.6l-0.3,2.1l-0.6,0.4l1.5,1.6l2.4-0.6
		l4.4-2.5l6.4,0l1.3,0.5l0.2-0.3l0.2-0.1l0.2-0.1l0.3-0.1l-0.1,0.7l-0.2,0.6l-0.3,0.5l-0.4,0.3l0.8,0.5l0.4,0l-1.6,1.3l-0.5,0.7
		l0.2,0.6v0.5l-0.3,0.1l-0.2,0.1l-0.2,0.2l-0.2,0.1l1.8,0.9l0.7,0.1v0.6l-8.4,1.5l-0.5-0.2l-0.9-0.6l-0.3,0l-0.5,0.5l-0.5,0.2
		l-1.1,0.1l-1.2,0.5l-1.7,0.3l-0.4,0.3l0.4,1.4l-0.3,1.2l-0.5,1.2l-0.3,1.6l0.6,3.4l3.7,2.3l2,0.8l3.1-0.3l0.8,0.4v0.5l-3.5-0.2
		l-2.2-0.4l-0.9-0.7l-0.5-0.2l-0.6,0.1l-1.5,1l-1.3,0.4l-3.5-0.4l-1.7,0.4l0.7,0.9l2.7,1.9l-0.5,0.3l-0.6,1l-0.4,0.2l-0.7-1.2
		l-0.3-0.3l-2-0.5l-2,0l0.1,0.4l0.1,0.9l0.1,0.3l-1.1-0.1l-1.1-0.3l-1.1,0l-1,0.9l0.4,0.4l0.5-0.1l1.3-0.4l0.4,0.4l0.4,0.9l0.3,0.9
		l0,0.5l0.9,1.1l1.7,0.7l1.7,0.3l0.9-0.1l-0.4,0.8l-0.9-0.2l-1.1-0.5l-1-0.2l0.2,0.7l0.3,0.5l0.4,0.3l0.5,0.1v0.6l-0.7,0.7l-0.7,0.1
		l-1.7-0.4l-0.9,0.1l-0.7,0.5l-0.5,0.8l-0.4,1.2l0.8,0l0.4-0.2l0.4-0.3l0.6,0.7l1.1,0.1l1.8-0.3l0.6,0.2l0.3,0.5l0.3,0.7l0.5,0.6
		l0.5,0.3l0.6,0.1l1.8,0l0.8-0.4l0.5-0.1l0.5-0.3l0-0.7L331,300l0.1-0.7l0.5-0.5l0.4,0.1l0.4,0.3l0.4,0.2l0.4-0.2l0.3-0.4l0.3-0.4
		l0.6-0.1l-0.4,0.7l-0.9,0.6l-0.2,0.7l0.3,0.8l0.7,0.1l0.6-0.4l0-0.5l1-0.8l0.5-0.2h0.7v0.5l-1,0.5v0.6h1.6v0.5l-0.7,0.6l-1.8,1.3
		l-0.8,0.2l-0.6,0l-0.4,0.1l-0.3,0.3l-0.2,0.6l-0.1,0.8l-0.2,1l-0.2,0.3l0.7,0.5l2-0.4l0.9,0.7l0.8,0.9h0.7l2.1-1l0.7-0.9l1.1-2
		l0.5-1.2l0.4-0.6l0.5-0.2l0.6-0.8l0.3-0.3l0.2,0.1l0.2,0.3l0.3,0.1l0,0.6l-0.5,1.3l-0.2,1.4l0.8,0.8l0.9-0.3l0.4-1.1l-0.1-1.3
		l-0.6-0.9l0.7-0.5l0.8-0.1l1.6,0.1l-1.7,1l-0.5,0.6l1.8,1.8l-0.1,0.3l-0.1,0.2l-0.3,0.7l-0.2,0.2l-0.3-0.1l-0.5-0.3l-0.2-0.1
		l-0.9,0.7l0.4,3.4l-0.9,1.6v0.6l0.7,0.9l0.7-0.1l0.5-1l0.2-1.6l0.4-1.4l0.8,0l0.3,0.9l-0.9,1.3l0.6,0.6l0.4,0.7l0.5,0.7l1,0.5
		l1.9,0l1-0.3l0.7-0.5l1.4-0.7l14.7-1.2l1.6-0.7l0.9-0.1l3.6,0.5v0.5l-0.6,0.3l-1.2,0.4l-0.4,0.4v0.5h1.3v0.5l-0.9,0.1l-2,0.5
		l-0.8,0.5l0.6,0.3l4.5,0.2l0.4-0.1l0.8-0.4l0.5,0l-1.5,1.1l-0.7,0.8l-0.6,1.1l0.3,0.5l0.2,0.6l0.4,1.5l-0.7-0.2l-0.6-0.3l-0.5-0.5
		l-0.5-0.6l0.2-0.7l-0.4-0.1l-0.5,0.2l-0.5,0.6l-0.6-0.1l-1-0.5v0.6l1.9,1.1v0.5l-0.9-0.1l-1.4-1.1l-0.7-0.3l-2.6,0.5v0.6l2,0.6
		l0.6,0.7l-0.1,1.2l-1.1-0.6l-1,0.3l-0.9,0.6l-0.9,0.3l-1-0.4l-2.1-2l-1.1-0.6l-1,0.4l-0.8,1.3l-0.6,1.6l-0.8,1.3l-1,1.1l-2.4,4.6
		l0.3,0.5l-0.5,0.3l-0.4,0.5l-1.3,2.3l-0.5,0.7l-1.3,1.3l1.2,0.4l3.5-0.2l0.8,0.3l-0.5,1.4l-2.8,2.7l-0.1,1v0.5l-0.4,0.3l-0.2,0.5
		l-0.1,0.6l-0.3,0.7l-0.4,0.7l-0.5,0.6l-0.5,0.5l-0.5,0.3l0.3,0.6l-0.1,0.5l-0.1,0.1l0,0l0.2,0.3l-0.3,0.7l-0.1,0.8l-0.2,0.7
		l-0.4,0.3l-0.5,0.1l-0.8,0.4l-0.5,0.1l-1.4-0.2l-0.6,0.2l-0.4,0.2l-0.6,0.5l-0.5,0.2l0.2,0.7l0.1,0.3l-9.1,8.8l-2.3,0.6l-1.9,1.4
		l-0.8,0.4v0.5l8.1-1.1l1.2-0.9l0.3,0.1l0.4,0.3l0.3-0.1l0.1-1l0.4-0.8l1-0.5l2-0.4l3.4-1.6l-0.2-0.6l-0.3-0.4l-0.4-0.3l-0.4-0.1
		v-0.5l1.6,0l0.5,0.4l-0.2,1.1l0.6,0.6l1.5,0.2l0.3,0.4l0.4,0.7l0.9,0.4l1,0.2l2.3-0.1l3.3-1l1.4-0.9l0,1l-0.7,0.8l-1,0.7l-0.7,0.6
		l0.5,0.3l0.5,0.2l0.6,0.1l0.6-0.1l0.5-0.3l0.7-1l0.2-0.2l4-0.5l0.9-0.5l4-5.4l1.5-2.8l0.1-1l1.1-1l1.4-0.8l1.2-0.3l-0.3,0.4l-0.5,1
		l-0.4,0.6l0.7,0.3l0.1,0.8l-0.1,0.9l0.2,0.7v0.5l-0.6,0.5l0.1,0.5l0.5,0.4l0.8,0.1l2.9-0.5l1.5,0.3l2.9,1.2l0.8,0l-1.5,0.5l-7.9,1
		l-0.5,0.3l-0.4,0.6l-0.3,0.7l-0.3,0.4l-0.7,0.3l-0.9,0.2l-0.8-0.2l-0.4-0.8l-0.8,0.6l-5.5,1.8l-0.6,0.5l-0.6,0.6l-0.7,0.3l-1.6,0.3
		l-2.9-0.1l-0.6,0.3l-0.4-0.1l-3.6-0.1l-0.4,0.1l-0.3,0.2l-0.3,0.5l-0.5,0.4l-0.5-0.2l-0.4-0.3l-0.4-0.2h-3.6l-1.8-0.5l-0.5,0.2
		l-0.4,0.4l-0.3,0.2l-0.2-0.2l-1.1,1.3l-0.2,0.5l0.1,0.9l-0.1,0.4l-0.4,0.4v0.5l0.3,0.4l0.1,0.4l-0.1,0.4l-0.3,0.4l0.8-0.1l0.7,0.1
		l0.5,0.5l0.2,1l-0.8-0.4l-1.2-0.3l-1.2,0l-0.8,0.5l-0.7,1l-0.6,0.5l-4.5,2.1l-3,0.2l-0.9,0.3l-0.7,0.7l0.8,0.9l1.3,0.6l2.4,0.5
		l0.8,0.8l-0.1,3.6l0.5,1.2l-1.1,0.5l-0.4,0v0.5l0.4,0.1l0.3,0.1l0.6,0.3l-0.7,0.3H334l-0.4-0.3l-0.5-0.5l0.1,0.7l0.2,0.6l0.3,0.4
		l0.3,0.4l0.7-0.5l0.7,0.2l1.5,0.8l1.4,0l0.6,0.2l0.7,0.7l-3.3,0.5l-0.7-0.5l0.3-0.3l0.3-0.2l-0.6-0.2l-0.5,0.3l-0.9,1.2l-0.6,0.4
		l-1.9,0l-1.5-0.3l-1.4-0.7l-0.7-0.1l-0.6-0.4l-0.2-0.9l0-1.1l-0.2-1.1l0.2-0.8l-0.5-0.3l-1.6,0l1.1,1.4l-0.4,1.5l-1.2,1.3l-1.3,0.8
		l-3,0.5l-0.1-0.4l0.5-2.8l-0.7-0.6l-4.7,1.4l-0.5,0.3l-1,1.6l-0.5,0.5l-0.9,0.2l-0.7,0l-0.5,0.3l-0.4,1.1l0.2,0.1l0.5,0.4l-0.5,0.6
		l0,0.5l0.2,0.5l-0.1,0.6l-0.5,0.3l-0.6-0.2l-1-0.8l0.3-1l-0.8,0.3l-1,0.5l-0.5,0.7l0.5,0.6v0.5l-0.8,0.8l-0.4,0.2l0.4,1.5l0.1,1.3
		l0.3,0.9l1.1,0.4l1-0.2l1.8-0.8l1,0l-0.5-0.2l-0.1-0.2l0-0.5h1.1l2.2,0.7l1.1,0.2v-0.5l-0.7-0.4l-0.4-0.1h-0.5v-0.5l1.3-0.4l0.5,0
		l1.2,1.2l0.3-0.2l0.3-0.4l0.5-0.2l0.5,0.4l0.5,0.7l0.5,0.4l1.1-0.7l6.1-1.5l1.4,0.1l0.6,0.2l0.6,0.3l0.4,0.5l0.3,1.2l0.2-0.3
		l0.3-0.8l-0.6-1.5l9-0.5l-1.6,1l0.2,0.2l0.4,0.5l0.3,0.3l-3.4,0.5l-1.4-0.1l-1.4-0.8l-1,4.3l0.1,0.7l-0.6,0l-0.6-0.1l-0.4-0.6
		l0-1.3h-0.3l-1,2.5l-1.8,1.1l-4.3,0.9l-2.9,1.4l-1.1,0.8l-1.3,0.3l-0.9,0.5l0.3,1.1l-0.5,0.3l-1.1,0.4l-0.5,0.3v0.5l0.9,0.1
		l0.5,0.7l0.4,0.8l0.6,0.4l0.2,0.2l0,0.5l-0.1,0.5l-0.4,0.2H315l-3.7,1.4l-1.5,0.2v0.5l0.1,0l0.3,0l0.2,0l0,0.4l-0.1,0.2l-0.1,0.2
		l-0.1,0.3l0.1,0l0.1,0l0.1,0.1l0,0.3l-0.3,0.8l0.6,0.1l0.9-0.1l0.7,0.2l0.3,1l-0.5,2.1l0.3,0.9l0.7-0.4l1.4-1.3l0.5-0.3l0.5-0.4
		l1.1-1.7l0.5-0.4l1.8,0.9l0.8,1.9l-0.4,1.7l-1.7,0.5l4.3,2l-0.3,1l1.1-0.4l1.2-0.7l1.1-0.9l0.9-1l1,0.5l1-0.5l2-1.6l0.5-0.2
		l1.1-0.2l0.5-0.2l0.3-0.3l0.3-0.4l0.4-0.3h0.6l-0.1,0.4l-0.1,0.8l-0.1,0.3l0.5-0.1l1.4-0.9l-0.3-0.5l0.7-0.2h1.5l0.3-0.5l0.4-0.5
		l0.9-0.5l4.7-1.8l3.3-0.4v0.5l-1.4,0.5l-2.6,1.5l-1.5,0.5l-1.2-0.1l-0.4,0.1l-0.2,0.3l-0.5,1l-0.9,0.5l-1.2,1.3l-0.6,0.4v0.5
		l0.9,0.4l0.4,0.1v0.5l-1.7,0l-0.8-0.1l-0.6-0.4l-0.1,1.2l-0.5,0.7l-0.8,0.4l-0.8,0.2l0.2-0.4l0.2-0.8l0.1-0.3l-1.2,0.3l-1.6,0.8
		l-1.4,1.1l-0.8,1.3h1.8v0.5l-2.1,2.1l-1,0.4l-1.8-0.2l-1,0.2l-0.6,0.9l0.7,0l0.7,0.2l0.4,0.5l-0.2,0.9l0.1,0.1l0.1,0l0.1,0.1l0,0.3
		l-0.7,0.4l-3.1,0.8l-0.3,0.2l-0.2,0.4l0,0.4l-0.1,0.4l-0.3,0.2l0.3,0.5l0.8-0.8l1-0.5l2.1-0.3l0.5,0.1l0.9,0.4l0.5,0.1l1.1-0.9
		l2.8-0.9l0.3-0.2l0.1-0.2l0-0.3l0-0.3l0.1-0.2l0.7-0.5l1.9-0.8l5.7-0.8l1.6-0.7l3-0.3l1-0.3l0.9-0.6l1.3-1.3l0.6-0.5l0.9-0.2
		l-0.5-0.8l0-0.6l0.1-0.7l-0.2-0.9l0.5,0.2l0.4,0.3l0.4,0.3l0.3,0.3l0,0.3l-0.1,0.9l0,0.3l0.2,0.1l0.4,0l1,0.8l0.8-0.3l0.7-0.4
		l0.7,0.3v0.5l-0.2,0.2l-0.2,0.4l-0.2,0.4l-0.1,1.2l-1.3,0.6l-1.7,0.4l-1.7,0.9l-1.5,0.2l-0.6,1l-5.6,3l-1.8,0.6l-0.4,0.7l-0.3,0.7
		l-0.4,0.3l-0.4,0.2l-1.9,1.3l2.8-0.2l8.7-4.4l2.1,0.2l-0.9,0.6l-1.6,0.7l-0.8,0.7l-2,2.3l-0.8,0.7l-1,0.5l-1.6,0.4l-0.8,0.6
		l-1.6,1.6l-0.8,0.6l-1,0.3l0.3,0.7l0.2,0.2l0.4,0.1v0.4l-0.2,0.3l-0.1,0.3l-0.1,0.9l0.3-0.5l0.3,0.5l1.3-1.2l0.4-0.1l-0.1,0.8
		l3.1-1.5l-0.2-0.1l-0.1-0.1l-0.3-0.3l2.5-2.2l0.3-0.6l0.6,0.4l0.6,0.8l0.1,0.7l0.8,0l0.5-0.2l0.9-0.8l0.3,0l0.8,0.1l0.2-0.2
		l0.1-0.7l0.2-0.3l3.2-0.7l1.3-0.6l-0.4-0.9l0.6-0.3l0.8,0.1l0.7,0.4l0.3,0.5l-0.2,1l-0.3,0.8l-0.1,0.7l0.5,0.7l0.9-0.8l0.4-0.5
		l0.2-0.4l1.4-0.9l0.4-0.4l0.1,0.2l0,0.1l0.1,0l0.1,0.2l-0.6,0.5l-1.1,0.7l-0.5,0.6l-0.4,1l0.2,0.3l0.5-0.3l0.6-0.4l-0.3,0.7
		l-0.3,0.5l-0.4,0.4l-0.5,0.4l1.5,0l0.6-0.2l0.5-0.5l0.4-0.3l0.4,0l0.3-0.1l0.1-0.6l1.2-0.8l0.1,0.4l0.1,0.3l0.1,0.3l0,0.5l0.5-0.3
		l0.4,0.1l0.4,0.2l0.5-0.1l0.4-0.4l0.2-0.6l0.3-0.5l0.6,0v-0.4l-0.1-0.7l0.4-0.1l1.2,0.3l0.7-0.1l0.7-0.4l0.6-0.6l0.4-0.8l-0.4-0.4
		l-0.2-0.1v-0.5l0.6,0.2l1,0.6l0.6,0.2l2.5-0.5l0.7-0.4l0.5-0.1l0.5,0.2l0.9,0.7l0.3,0.2l0.1,0.3l0.4,0.5l0.4,0.2l0.2-0.8l0.3-0.2
		l1.6-0.5l0.4-0.8l0.5-1.2l0.6-0.8l0.9,0.4l0.3-0.4l0.3,0l0.3,0.2l0.5,0.1h1.7l0.4,0.3l0.3,0.5l0.3,0.3l0.4-0.3l1.7,0.2l-0.2-0.8
		l0.1-0.7l0.3-0.5l0.5-0.5l-0.9-0.4l0.3-0.3l0.3-0.2v-0.5h-1.7l-0.8-0.3l-0.6-0.7l5.4,0.5l2.2-0.6l0.7,0.1l0.6,0.5l0.6,1.5l0.6,0.5
		l-0.1-0.8l-0.2-1.1l0-0.8l0.1-0.5l0.7-1.7l0.3-0.1l0.4-0.2l0.3-0.3l0.1-0.4l-0.2-0.6l-0.3,0.1l-0.4,0.5l-0.5-0.2l-0.9-0.1l-0.5-0.3
		v-0.5l2.1,0l1,0.5l0.3,1.5l0.7-0.4l0.2-0.8l-0.2-0.8l-0.7-0.5l0.5-0.2l0.7,0.3l0.6,0.6l0.3,0.8l0.6-0.8l0.6-0.4l1.7-0.4l1.2-0.7
		l0.5-0.8l1.5-1.7l0.2-0.6l-0.1-0.4l-0.2-0.4l-0.1-0.4l0.1-0.3l0.8-1.2h-1.6l0.3-0.2l0.3-0.2l0.7-0.2l-0.2-0.1l-0.4-0.3v-0.5h0.3
		v-0.4l-0.5-0.2l-1.7,0.2l0.8-2.3l-1.1-0.8l-1.9-0.3l-1.5-0.6l0.9-0.5l0.9-0.1l1.9,0.1l0.8-0.2l0.8-0.4l0.8-0.2l0.4,0.4v0.4l1.9-0.1
		l0.9,0.2l0.6,0.4l0.4-0.6l0.4-0.2l0.3,0.2l0.2,0.6l-0.4,0.2l-0.2,0.3l-0.3,0.9l0.4,0l0.3,0.1l0.2,0.2l0.3,0.2l-0.6,0.7l-0.6,0.4
		l-0.6,0.3l-0.7,0.1l0.2,0.7l0.1,0.3l-0.4,0.1l-0.4,0.2l-0.3,0.4l-0.1,0.5l0.2,0.3l0.5,0.1l0.5,0l1.2,0.1l2.8-0.3l1.7-0.7l3.4-0.7
		l0.7-0.4l-0.9-1l0.7-0.9l2.4-1.1l1.9-0.4l1-0.5l0.5-0.7l-0.5-0.2l-1.3-1.2l1-0.1l0.8-0.5l0.6-0.8l0.6-1l0.1-0.6l0-1.7l0.1-0.4
		l0.5,0.3l0.2,0.7l0.1,0.7l0.1,0.3l4.8,0.6l0.3-0.4l0-0.7l0.4-1l0.9-0.5l2.4,0.3l0.9-0.5l0.4-0.3l0.4-0.1l0.4-0.2l0.2-0.5l0.2-2.2
		l1.4-1l0.3-0.9l-0.1-0.3l-0.3-0.1l-1.3-0.6l-0.8-0.2l-0.7,0.1l-0.4,0.6l-0.2-1.2l0.5-1l0.9-0.7l0.8-0.2l0.1,0.2l0.1,0.5l0.2,0.5
		l0.3,0.3l0.5-0.1l0.2-0.4l0.2-0.4l0.2-0.2l1.7-0.4l3.1-1.7l8.7-0.9l1.7,0.4l0.8,0l0.9-0.4l0.3-0.4l0.2-0.5l0.3-0.4l0.5-0.2l0.4,0.1
		l0.6,0.4l0.5,0.1l-0.2-0.3l-0.1-0.3l-0.1-0.2l-0.3-0.2v-0.5l0.6-0.1l0.6,0.1l1,0.4l-1.3,1.7l-0.3,0.8l1-0.2l2-0.1l1-0.2l0.8-0.6
		l1.3-1.8l0.7-0.6v-0.5l-1.1,0l-0.1-0.7l0.6-1.8l-0.2-0.7l-0.6-1.2l-0.1-0.4l0-0.7l-0.3-2l0.6,0.8l0.7,2.3l0.5,0.5l0.5,0.3l0.5,0.6
		l0.4,0.7l0.3,0.5l0.8,3l0,0.7l-0.5,0.6l-0.6,0.4l-0.5,0.5l-0.4,0.9l0.8,0.5l0.6-0.6l0.5-0.9l0.5-0.5l3.3-2l-0.3-0.5l0.2,0l0.3,0
		l0.2,0v-0.6l-0.3,0l-0.3,0l0.3-0.5l0.1-0.4l0.1-1.1H471l-0.2,0.2l-0.5,0.3l0.1-0.5l0-0.2l-0.1-0.2l0-0.6l0.3-0.5l0.9,0.4l0.9-0.4
		l0.8-0.8l0.5-0.8l-0.1,1.1l-0.5,0.9l-0.7,0.6l-0.7,0.3v0.5l0.9,0.2l3.2-0.5l3.4,1l0.8,0.4l1.2,1.3l0.8,0.1l1.9-1.1l2.2-0.5l0.8-0.5
		l0.5,0l0.6,0.5h-0.9v0.5l2,0l0.1-0.1l0.1-0.1l0.6-0.5l0.4-0.6l0.3-0.2l0.5,0.1l0.1,0.3l-0.4,0.9l-0.3,0.3l-0.1,0.4l0.6,0.5l0.4,0.1
		l0.3-0.1l0.4-0.5l0.6-0.8l1.3-3.2l-2.3-2.3l-0.9-1.7l0.8-1.5v-0.5l-1.1,1.8l-0.6,0.7l-0.2-0.8l-0.4-0.6l-1.4-0.3l0.3-0.8l-0.3-1
		l-0.5-0.8l-0.6-0.6l-0.7-0.3v-0.5l0.3-0.4l0.4-0.3l0.4-0.2l0.4-0.2l-0.3,1.3l0.9,0.3l2.6-0.2l0.4,0.1l0.4,0.3l0.3,0.6l0.1-1
		l-0.1-1.3l0-1.3l0.4-1.2l1-1.9l0.7-1l0.8-0.4l0.8-1l2.7-4.5l0.6-1.3l0.1-3.2l-0.1-1.1l-0.5-2.1l-0.1-1.1l0.2-1.4l2.1-3.8l0.9-2.2
		l-0.3-1.7l1.1-3.5l0.5-1.1l0.5-0.7l1.9-1.8l-0.3-0.6l1.5-3.6l0.5-0.5l0.2-0.3l0.4-1.4l0.2-0.3l0.6-0.3l-0.1-0.6l-1.9-2.2l-0.6-1.2
		l0.2-1.2l0.4-1.1l0.3-1.8l0.1-1.8l-0.2-1.2l0.2-0.1h0l0-0.1l0.1-0.3l-1.6-3.3l-0.6-0.9l0.3-1.4l-0.3-0.8l-0.5-0.6l-0.5-0.8
		l-0.3-1.1l-0.1-1l0.1-1.7l0.1-0.3l0.2-0.6v-0.6l-0.5-0.3L503,309l-0.5-0.4l-1.3-0.3l-0.6-0.5l-0.9-1.3l-1.1-1.1l-0.3-0.6l0.1-0.8
		l2.6-2.1l0.3-0.1l0.8-0.4l0.4-0.1l0.2,0.2l0.6,0.7l0.2,0.2l0.6,0.4l0.6,0.5l0.6,0l0.5-1.4l-0.8-0.5l-1.9-0.1l-0.7-0.4l0.2-0.2
		l0.3-0.6l0.2-0.2l-0.4-0.5l-0.2-0.9l-0.2-0.8l-2.9-1.4l0.7-0.6l0.9-0.3l0.8,0.1l0.3,0.8l0.4-0.6l0.5-1.4l0.3-0.6l0.1-0.6l0.2-0.5
		l0.8-1.2l0.3-1.1l-0.1-1.1l-0.3-1l-0.4-0.7l-0.9-0.7l-1.4-0.7l-1.2-0.8l-0.8-1.9l-1.2-0.8l-0.4-0.4l-0.3-0.8l-0.3-1.1l-0.2-1.1
		l-0.3-5.3l0.2-2l0.9-1l-1-0.8l-0.5-1.2l0-1.3l0.5-1.4v-0.6l-3.3-0.5l-1.5-0.8l-1-1.4l-0.3-1.3l0-1.4l0.2-2.3l0.3-1.3l0.6-1l0.3-0.7
		l-0.5-0.4v-0.6l2.4,0.3l3.2,1.4l0.6-0.1l0.6,0.5l1.1,0.7l1.1,0.4l0.8-0.3l1.5-1.8l0.2-0.9l-0.9-1.3l-0.3-0.2l-0.4-0.2l-1-0.1
		l-0.3-0.2l-0.6-1.1l-0.3-0.3l-0.7-0.4l-2.8-2.8l0.3-0.5l1,0.4l1.4,0.1l1.2,0.4l0.5,1.4l0.6,0l3.5,1.3l-0.4,0.1l-0.9,0.4v0.5
		l0.8,0.6l0.7,0.1l1.8-0.2l0.6-0.3l1.9-1.5l1.4-1.5l1.9-1l0.8-1l0.5-1.2l0.4-1.5l0.3-1.6l0.1-1.5l-0.1-2.9l0.3-0.9l0.9-0.3l0.9-0.2
		l2-0.7l1.9-0.2l2.6,0.2l0.6,0.6l0.1,0.6l0.3,0.1l0.4-0.2l0.3-0.2l0.3-1.6l0.2-0.1l0.5,0.1l0.2-0.1l1.5-1.5l1.2-1.8l0.5-2.2
		l-0.4-2.9l-1.3-1.4l-1.9,0.5l-2.1,1.2l-1.8,0.7l0.5-0.8l1.7-1.3l0.4-0.7l1.3-4l-0.3-0.5l0.2-0.5l0.1-0.2l0-0.3l-0.6-0.2l-0.3-0.7
		v-0.9l0.2-0.9l-1.4-0.8l0.3-0.4l1-0.2l0.7-0.3l-0.5-0.5l-1.7-0.1l-0.3-0.3l-0.4-0.4l-0.5-0.3l-0.6,0l0.4-0.5l0.4-0.6l0.1-0.8
		l-0.3-0.8v-0.5l1.4,0.1l1.2,0.7l3.1,3l0.8,1.3l0.5,1.8l0.2,2.4l-0.2,1.2l-1,1.3l-0.3,0.9l0.1,0.9l0.3,0.9l0.5,0.7l0.5,0.3l0.5,1.5
		l0.4,1.1l0.5,0.6l0.6-0.1l0.6-1.1l0.7-0.4l-0.6-0.9l0.2-0.6l0.6-0.5l0.4-0.6l0.2-1.3l-0.3-1.3l0.3-0.9l0.9-1.4l0.2-0.5l0-0.4
		l-0.1-0.3L533.7,218.4z M313,411.9l0.8-0.5l0.3-0.6l-0.2-0.5l-0.5-0.1l-0.3,0l-0.3-0.3l-0.3-0.1l-0.8,0l-0.4,0.4l-2.3,1.6l-0.8,1
		l0.1,0.6l0.9-0.1l0.4-0.4l1.6-0.2L313,411.9z M350.5,444.9l-1.2,0.8l-0.4,0.7l0,0.1l0.3,0.4l0.3-0.1l0.3-0.5l0.2,0.1l0.3,0l0.6-0.3
		l0.4-0.6l0-0.7L350.5,444.9z M336.3,431.8l0.4-0.5l-0.4-0.3l-0.4,0.1l-0.3,0l-1.5-0.3l-1.1,0.1l-0.9,0.3l-0.7,0.6l-0.1,0.7l0.7,0.4
		l0.5,0.2l3.6-1.2L336.3,431.8z M394.1,180l2-0.6l-0.2-1.3l-0.4-0.7l-0.6-0.4l-0.7-0.3l-0.3-0.4l-0.3-0.2l-0.3,0.1l-0.4,0.4l0.1,0.1
		l0.1,0.2l0.1,0.2l-0.3,0.1l-0.7,0.5l0.1,0.6l0,0.1l0,0l-0.1,0.4v0.5l0.7,0.6L394.1,180z M325.4,271.1l3.2-0.1l0.8-0.4l0.5-0.5
		l0.1-0.3l-0.3-0.3l-0.6-0.4l-0.5-0.5l-0.4-0.2l-0.9,0.8l-2.1,0.8l-0.1,0.2l0,0.3l0,0.2L325.4,271.1z M319,257.9l1.2,0.2l3.4-0.8
		l0.9,0.3l0.5,0.7l0.1,0.7l-0.1,0.9l-0.1,1.1l0.2,0.7l0.5,0.1l0.6-0.1l0.6,0.1l1,0.9l0.9,1.1l0.8,0.5l1-0.9l-0.2-1l0.1-1.3l0.3-1.2
		l0.4-0.6v-0.5l-0.4-0.4l-0.5-0.1l-0.5,0.2l-0.5,0.3v-0.6l0.3-0.4l0.1-0.5l0-0.6l-0.1-0.6h0.9l-0.9-2.1l-0.9-0.4l-3.9-0.1l-0.9,0.5
		l-1.1,0.9l-1.2,0.3l-1-1.2l-0.4,0.4l-0.4,0.1l-0.4-0.1l-0.3-0.4l-0.5,1.5l-0.8,0.8l-1,0.3l-1.2,0v0.5l1.2,0L319,257.9z
		 M497.6,154.1l1.1,0.1l1,0.9l-0.2,0.4l-0.1,0.3l0,0.4l-0.1,0.6l0.3-0.5l0.4-0.9l0.3-1l-0.1-0.8l-0.5-0.2l-2.3-0.4L497,153l-0.5,0.2
		l-0.5,0.4l-0.5,0.5l1,0.2L497.6,154.1z M340.3,311.3l0.2,0.5l0.1,1.1l0.8,0.9l1.5-0.5l0.9-1.4l-1.1-1.8l-0.4-0.4l-0.6-0.1l-0.6,0.1
		l-0.5,0.4l-0.4,0.7L340.3,311.3z M342.3,309.4l1.5-0.5l0.1-0.4l-0.4-0.2l-0.4,0l-0.8-0.5l-0.7-0.1l-0.4,0.2l-0.4,0.3l-0.2,0.3
		l0.5,1L342.3,309.4z M336.6,319.8l-0.5,0.7l1.5,1l5.3,2.5l0.8-0.2l0.1-0.6l-0.2-0.1l-0.2,0.1l-1-0.6l0-0.5l0.4-0.5l-0.3-0.5
		l-1.2-0.4l-0.9-0.1l-1.1,0.2l-0.5,0l-1.1-0.9L336.6,319.8z M506.7,294.2l0.4,0.5l0.6,0.2l0.2-0.2l0-0.4l0.2-0.2l-0.3-0.5l-1,0.1
		L506.7,294.2z M501.6,303.4l-0.8,0.5l-0.2,0.1l-0.5,0.5l-0.3,0.6l0.3,0.3l0.3-0.6l0.6-0.5l0.4-0.3l0.4-0.5l0.6-0.2l-0.4-0.1
		L501.6,303.4z M339.5,312.4l-0.4,0.6l0,0.2l-0.2,0.2l-0.3,0h-0.2l0,0.3l0.6-0.1l1,0.2l0-0.9l0.1-0.3L339.5,312.4z M333.9,308.4
		l0.3,0.1l0.1,0.6l0.3,0.1l0-0.7l-0.2-0.5l-0.2-0.1l-0.1-0.4l-0.2-0.1l-0.1,0.2h-0.2l-0.2,0.3l0,0.3l0.2,0.1L333.9,308.4z"/>
</g>

</svg>
