<?xml version="1.0" encoding="utf-8"?>

<svg version="1.2" baseProfile="tiny" xmlns="http://www.w3.org/2000/svg" xmlns:xlink="http://www.w3.org/1999/xlink" x="0px"
	 y="0px" viewBox="318 172 203.9 250" xml:space="preserve">

<g id="Isle_of_Man">
	<g>
		<path fill="#CF142B" d="M521.3,251.4l-0.6-2.2l-2.9-1.4l-1.3,0l-3.9-1.7l-1.3-0.6h-3.9l-1-0.8l0-1.2l-0.3-0.3
			c-0.9,0.2-1.8,0.5-2.7,0.7c0,0,0,0.1,0,0.1c0,0.2-0.2,0.4-0.5,0.4c0,0,0,0-0.1,0c-0.1,0-0.4-0.1-0.7-0.2c-1.5,0.4-2.9,0.8-4.4,1.1
			c0,0.1-0.1,0.2-0.1,0.2c-0.1,0.1-0.2,0.1-0.4,0.1s-0.3,0-0.4-0.1l0,0c-2.1,0.5-4.2,1.1-6.3,1.6c-1.7,0.6-5,2.1-7.2,5.6
			c-0.6,1.5-1.1,5.1-0.9,9.8c-1,8.1-1.9,19.1-6.2,28.5c0.2,1.6-0.5,2.4,0.7,5.3c0.7,1.4,0.6,3,0,4.6c-1.6,2.9-2.9,6.2-6.4,8.2
			c-2.6,2-6.4,2-10.2,0.4c-3.9-1.3-9.2-1.8-13-1.4c-2.9-0.4-21.9-4.4-25.7-6.6c0,0-0.1,0-0.1,0c-1.1,0-1.9,0-2.4,0
			c-1.1,0-1.1-0.1-1.2-0.2c0,0,0,0,0,0c-0.1-0.1-0.1-0.2-0.2-0.3c-8.2,5.3-15.2,10.5-23.8,15.3c-0.9,0.7-1.8,2.2-0.5,2.7
			c1.6,0.7,2.5,1.1,5.2,2.3c1.7,1.1,2.6,1.9,4.4,3.8c2.6,2,14,16.4,16.3,23.1c0.2,0,5.1,4.9,5.1,4.9c1.4,0.5,2.8,1,4.2,1.6
			c0,0,0.1,0,0.1,0c0.1-0.4,0.3-3.1,0.2-3.1c-0.1,0-4.3-4.9-4.2-4.9s5.4,1.2,5.4,1c0-0.2,2.1-5.2,2.1-5.3c0-0.1,2.6,6.1,2.6,6.1
			l5.2,2.3l-3.6,3c0,0,0.8,5.8,0.8,5.9c0,0.1-3.6-3.5-3.6-3.5l-2.5,0.3c0.7,1.2,0.6,2.9-1.2,5.2c0,0.2-2.2,1.1-2.2,1.1
			c-1.4,1.9-2.8,3.7-4.1,5.6c0.1,0.1,0.1,0.1,0.2,0.2c0.1,0.3-0.1,0.5-0.4,0.6c-0.2,0-0.3,0.1-0.5,0.1c-0.3,0.4-0.6,0.8-0.9,1.2
			c-0.2,0.8-0.5,1.6-0.7,2.4c0.1,0.1,0.2,0.2,0.3,0.3c0.1,0.3-0.1,0.5-0.4,0.6c-0.1,0-0.2,0.1-0.3,0.1c-3.6,11.1-6.3,9.8-8.1,12.1
			c-0.2,1-4.6,2.1-3.8-2.9c0.5-1.9,1-3.8,1.5-5.6c0,0-0.1,0-0.1-0.1c-0.2-0.2-0.3-0.5-0.1-0.7c0.1-0.1,0.3-0.3,0.5-0.5
			c0.4-1.5,0.8-2.9,1.2-4.4c-0.1-0.1-0.1-0.1-0.2-0.2c-0.1-0.3,0.1-0.5,0.3-0.6l0,0c0.6-2.1,1.1-4.2,1.7-6.3c0.3-1.8,0.6-5.3-1.3-9
			c-1-1.2-3.9-3.4-8.1-5.6c-6.6-4.9-15.7-11-21.8-19.3c-1.6-0.6-1.8-1.5-4.9-2c-1.5-0.1-2.9-0.9-4-2.2c-1.8-2.8-4-5.5-4-9.5
			c-0.5-3.2,1.4-6.6,4.7-9.1c3.1-2.8,6.1-7.2,7.6-10.6c1.8-2.3,14.6-17,18.3-19.2c0-0.2,0.1-0.4,0.2-0.5c0.3-0.2,0.6-0.8,0.7-1.4
			c-0.1-1.3-0.2-2.5-0.4-3.8l-0.4,0.3l0,0.5l-1.3,1.1l0,1.1l-0.7,1.1l-2.6,2.2l0,0.6l-3.9,3.4l0,0.5l-2.6,2.2l-1.6,3.1l-1.6,0.8
			l0,0.6l-1.3,1.1v1.7l-1.6,1.4l-0.6,0l-1.9,1.7l-1.3-0.1l-2,1.2l-1.9,0.5l-1,0.8l0.6,0.6l-1,0.3l-1.9,1.7l-0.6-0.6l-1.3,0l-0.6-1.1
			l-1.3,0l-0.3,2l-1.3,0.6l0,0.6l-1.9,1.6l-0.7,1.1l0,1.1l-0.6,0.5l0,1.1l-0.7,1.1l-1.9,1.1l0.7,0.6l0,2.3l1.3,1.1v1.7l-1.3,1.6
			l0,6.1l-0.7,0.5l0,2.8l-2,3.3l-1.3,1.1l0,0.6l-1.6,1.4l-0.6,0l-2.3,2l0,1.1l-0.7,0.5l0,2.8l0.6,0.6l-0.7,0.5l0,1.1l1.9,1.7
			l0.7,1.1l0,1.1l1.3,1.7l0,3.9l-0.6,0.5l0,2.8l1.3,1.1v2.8l-2.6,4.4v2.8l0.6,0.6l-1.6,1.9l-1,0.3l-0.6,2.2l-1.9,2.2l0,4.5l-0.6,0.5
			l0,1.1l-0.6,0l-0.3-0.9l-3.3,0l-1.3,1.1l-0.6,0l-2.3,2.5l0,1.1l-1.3,1.1l0,1.1l-1.3,1.1l0,3.9l2.3,0.3l0.6,0.6h3.3l1,0.8l0,1.1
			l-1,0.8l-2.6,0l-1,0.8l-0.6,2.8l-1.3,1.1l0,0.6l-2.3,1.9l-0.6,0l-1.6,1.9v1.7l-2,1.1l0,1.1l-1.3,1.1l0,1.7l1,0.8l0.7-0.6h0.6
			l1.3,1.1l1.3-0.6l1.6,2.5l0.3,1.4l3.9-0.6l0.3-2.5l1-0.8l0.6,0.6h3.3l0.7-0.6l1-0.2l0-1.7l1.3-0.6l0-2.3l0.6-1.1l0.3-0.2l2,1.7
			l3.6-0.3l0.6-1.7l-2-1.1l0-0.6l0.7-0.6l-0.7-1.1l0-1.1l0.3-0.3l1.3,0.5l1-0.8l0-2.8l0.3-0.3l0.6,0l1.3-1.1l2,0l0.6,0.6h2l0.6-0.6
			l2.6,0l0.7,0.6h2.6l1,0.9l-0.6,1.6l1.9,1.1l1.3,2.2l1.3,1.1l-0.7,0.6l0,1.1l0.7,0.6l0,1.7l0.6,0.6l0.3,1.4l0.6,0l1.3,1.1l2,0
			l1.3,1.1h0.6l1.6-1.4v-3.3l0.7-0.6l0-0.5l1-0.8l1.3,0l1-0.8l0-0.6l1.7-1.9h5.2l1.3,1.1l1.6,0.3l0.6,1.1l0,2.2l0.7,0.6l-0.6,0.6
			l0,1.7l-0.6,0.6l0,2.8l-2.6,2.7l0.3,0.8h1.3l0.6-0.5l0.7,0.6h1.3l1-0.8l0-1.7l1.3-1.7l0-1.1l1.3-1.1l0-1.7l1.3-1.1l0.7-2.8
			l1.9-1.1l-0.3-1.9l-0.6,0l-2.3,1.9l0,0.6l-1,0.8l-1.6-0.3l0-0.6l-1.3-1.1l0-2.8l2.3-1.9l2-0.6l2.3-1.9v-1.7l1.3-1.7l0-1.1l1.6-0.3
			l1-0.8l0-0.6l1-0.3l3.2-2.8l2.6-0.6l0.7-1.1l1.3,0.6l2.6,0l0.7-0.6l0.6,0.6h4.6l2.3-1.4l0.7-1.2l0-1.6l0.7-0.6l0-2.2l1-0.8l0.7,0
			l3.6-3.1l-0.7-1.1l0-2.3l1.3-1.1l0.3-1.4l2,0l0.6-0.6h2l0.6-0.5l1.9,0.6l2.6,1.1l0.3-1.4l1.3-1.1l0-0.6l1-0.3l5.8-5l1.3,0l2.9-1.9
			l0-0.6l1.3-1.1v-1.6l-1-0.9l-1.7-0.3l0.7-1.1l-1.9-1.7V347l0.6-0.6l0.6-2.2l3.6-3.6l5.8,0l1.3-1.7l1.9,0l1.3,0.5l1.9-1.1l1.3,0
			l1.6-0.8l0.3-0.8l1-0.3v-1.7l0.7-1.1l1.6-0.8l2.6-0.6l0.3-0.8l1.9-1.7l0-1.1l1.9-3.3l3.2-2.8l0.7-3.3l-1.3-1.1l-0.6-1.7l-1.6-1.4
			l-1.3,0l-0.3-0.9l-0.7-0.6l0.7-0.5l-0.7-1.1l0-3.4l0.6-0.6l0.6-2.2l0.7-0.5l0.6-2.8l2.3-1.4h1.9l4.9-4.2l1.3-2.2l0-1.7l1.3-1.7
			v-1.7l-1.3-1.1l0.6-0.6l0-1.1l1.9-1.7v-1.7l3.3-2.8l1.3-2.2l0-0.6l1.9-1.6l-0.7-1.1l1.3-0.6l0-1.1l0.6-0.5l0-2.2l1.3-1.1l0-0.6
			l1.9-1.1l0-0.6l2.6-2.7l0-0.6l1.3-1.1l0-1.1l-0.6-0.6l0-2.2l-0.6-0.6l0-1.7l1-0.3l0.7,0.6l1.3,0l1.6-1.4l1-1.4l1-0.3l0.7-1.1
			l0-1.1L521.3,251.4z"/>
		<polygon fill="#CF142B" points="324.9,411 323.6,410.4 322.3,411.5 319.7,412.6 318.1,414 318,416.2 319.3,416.7 320,420.6
			322.9,420.9 323.6,420.3 324.6,421.2 324.5,421.7 325.5,422 325.9,420 326.8,419.8 327.8,418.4 327.8,417.3 329.8,416.2
			329.7,415.6 330.4,415.1 330.4,410.7 329.4,409.8 326.2,409.8 		"/>
		<path fill="#CF142B" d="M422.2,245.5c1.1,2.3,8.6,21.3,8.7,25.6c0,0.2,0.1,0.5,0.1,0.7c0.1,0.4,0.2,0.8,0.2,1.2
			c0.2,0.3,0.3,0.5,0.5,0.6c0.2,0.1,0.3,0.2,0.3,0.4c0,0.2,0,0.3-0.2,0.4c0,0-0.1,0.1-0.1,0.1c0,0,0.1,0,0.1,0.1
			c9.1,4.8,17.3,8.4,26,13.8c1,0.4,2.8,0.5,2.6-0.9c-0.8-4.8-0.5-3.4-0.5-5.7c-0.3-3,0.9-2.4,1.1-5.5c0.5-3.3,7.5-20.4,12.3-25.7
			c-0.1-0.2,1.8-6.8,1.8-6.8c-0.2-1.5-0.5-3-0.7-4.4c0,0,0-0.1,0-0.1c-0.4,0.1-2.8,1.3-2.7,1.3c0,0.1-2.2,6.1-2.2,6.1
			c0-0.1-1.6-5.3-1.8-5.2c-0.2,0.1-5.6,0.7-5.6,0.8c-0.1,0,4.1-5.2,4.1-5.2l-0.6-5.6l4.4,1.7c0,0,4.7-3.6,4.8-3.6
			c0.1,0-1.2,4.9-1.2,4.9l1.5,2c0.7-1.2,2.2-2,5.1-1.5c0.2-0.1,2.1,1.4,2.1,1.4c2.3,0.3,4.6,0.6,6.9,0.9c0-0.1,0.1-0.2,0.1-0.3
			c0.2-0.2,0.5-0.2,0.7,0c0.1,0.1,0.2,0.2,0.4,0.4c0.5,0.1,1,0.1,1.5,0.2c0.9-0.2,1.7-0.4,2.4-0.5c0-0.1,0-0.3,0.1-0.4
			c0.2-0.2,0.5-0.2,0.7,0c0.1,0.1,0.1,0.1,0.2,0.2c0.1,0,0.2,0,0.2,0l0-0.9l-1.3-2.2l0-1.7l-0.7-0.6l0-2.8l-0.7-0.6l0-8.4l0.6-0.6
			v-3.9l0.6-0.5v-2.2l0.7-0.6l0-1.7l0.7-0.6l0-1.1l0.7-0.6l0-1.1l1.3-2.2v-2.2l1.3-2.3l0.7-1.1l0-2.8l0.6-0.6l0-2.2l1.3-2.3l0-18.4
			l-1-0.8h-1.9l-2.6,1.1h-1.9l-4.5,2.2l-5.2,2.2l-5.2,2.8l-1.3,0l-1.9,1.1h-1.9l-2,1.1l-3.2,0l-0.6,0.5h-3.3l-0.6,0.6l-1.3,0
			l-1.9,1.6l-0.6,0l-2.6,2.2l-2,0.6l-2.6,2.2l-2.6,1.1l-7.1,6.1l-0.6,0l-1.3,1.1l-1.9,0.6l-0.7,1.1l-0.6,0l-1,0.9l0,0.5l-5.2,5
			l0,0.6l-1.3,1.1l-3.2,5.6l0,1.1l-0.7,0.5l0,2.3l-0.6,0.5v1.7l-0.6,0.5l0,2.2l-0.6,0.6l0,2.2l-0.6,0.6v1.7l-2,2.2l0,0.6l-4.2,7.1
			c1.2,2.7,2.7,5.4,4.4,7.4C422.2,245.4,422.2,245.5,422.2,245.5z"/>
		<path fill="#F9DD16" fill-opacity="0.9882" stroke="#000000" stroke-linecap="round" stroke-linejoin="round" d="M431,356.7
			l2.5-0.3c0,0,3.6,3.6,3.6,3.5c0-0.1-0.8-5.9-0.8-5.9l3.6-3l-5.2-2.3c0,0-2.6-6.2-2.6-6.1c0,0.1-2.1,5.1-2.1,5.3c0,0.2-5.3-1-5.4-1
			s4.1,4.9,4.2,4.9c0.1,0-0.1,2.6-0.2,3.1C429.6,355.2,430.5,355.8,431,356.7z"/>
		<path fill="#FFFFFF" d="M412.9,291l-0.8,0.4c-5.1,2.7-12.6,7.8-19.2,16.5c-0.2,0.2-0.3,0.4-0.4,0.5c-0.2,0.3-0.5,0.7-0.7,1.2
			l-0.3,0.4c-0.1,0.2-0.3,0.4-0.5,0.7c-0.2,0.2-0.4,0.5-0.5,0.7c-0.4,0.5-1,1.3-1.5,1.9c0,0,0,0.1,0,0.1c0.8,0.2,1.6,1.2,1.6,1.2
			c3.6,3.4,0.7,7.6,0.5,7.7c-1.8,1.7-2.2,1.8-3.3,0.7c-1.1-1.3-1.4-1.9-2.3-2.3c-1.7-0.8-5.3-0.2-5.4-0.2c-0.1,0-1.9,0.7-1.9,0.7
			c-0.9,0.3-1.4,1.1-3,1.4c-1.5,0.1-2.1,0-2.8-1.3c-1-1.6-0.5-3.5,1-3.7c1.9-0.1,5.2,0.5,5.2,0.5c0,0,4.3-0.1,4.3-0.1
			c2.2-0.2,2.7-1.1,3.1-1.7c0.8-1.2,1.4-1.7,2-2.6c-0.1-0.1-0.2-0.3-0.1-0.5c0-0.1,0.1-0.2,0.1-0.3c0.4-0.4,1.2-1.5,1.6-2
			c0.1-0.2,0.3-0.5,0.6-0.8c0.2-0.2,0.3-0.4,0.4-0.6l0.3-0.4c0.3-0.4,0.6-0.8,0.7-1.1c0-0.1,0.1-0.1,0.1-0.1c0,0,0.1-0.2,0.3-0.4
			c6.7-8.8,14.3-14,19.5-16.7l0.8-0.4c1-0.5,1.6-0.8,2-1c-0.3-2-0.4-3.7-0.5-4.3c-2.2-1-4.4-1.9-6.6-2.9c-2.3-1-4.6-2-6.8-3
			c-0.2-0.1-0.3-0.2-0.3-0.4c0,0,0,0,0,0c-3.8,2.3-16.6,16.9-18.3,19.2c-1.5,3.4-4.5,7.8-7.6,10.6c-3.3,2.5-5.1,5.9-4.7,9.1
			c0,4,2.2,6.7,4,9.5c1.1,1.3,2.5,2.1,4,2.2c3.1,0.4,3.4,1.4,4.9,2c6.1,8.3,15.2,14.5,21.8,19.3c4.2,2.2,7.1,4.4,8.1,5.6
			c1.9,3.7,1.6,7.3,1.3,9c-0.6,2.1-1.1,4.2-1.7,6.3l0.2-0.1c1.5-0.4,3.1-0.9,3.7-1c0.8-0.2,1.6-0.4,2.3-0.6c0.4-0.1,0.7-0.2,1.1-0.2
			c0.4-0.1,0.8-0.2,1.4-0.3c0.7-0.3,1.5-0.5,2.2-0.6c0.2,0,0.3,0,0.5,0.1c1.4-1.9,2.8-3.7,4.1-5.6c0,0,2.2-0.9,2.2-1.1
			c1.9-2.3,1.9-4,1.2-5.2c-0.5-0.9-1.4-1.5-2.3-1.9c0,0-0.1,0-0.1,0c-1.4-0.5-2.8-1-4.2-1.6c0,0-4.9-4.9-5.1-4.9
			c-2.3-6.7-13.7-21.1-16.3-23.1c-1.8-1.9-2.7-2.7-4.4-3.8c-2.7-1.3-3.5-1.7-5.2-2.3c-1.4-0.5-0.4-2,0.5-2.7
			c8.7-4.7,15.6-9.9,23.8-15.3c-1.6-2-2.6-6.9-3.1-11C414.1,290.4,413.3,290.8,412.9,291z"/>
		<path fill="#FFFFFF" d="M411.6,375.9c0.2-0.1,0.5-0.2,0.8-0.3c0,0,0.1,0,0.1-0.1L411.6,375.9l0.8-3.7l-0.1,0c0,0-0.1,0-0.1,0
			c-0.1,0-0.2-0.1-0.3-0.1c-0.4,1.5-0.8,2.9-1.2,4.4c0.2-0.2,0.5-0.4,0.7-0.5C411.6,376,411.6,376,411.6,375.9z"/>
		<path fill="#FFFFFF" d="M420.5,373.2c0.1,0,0.2-0.1,0.3-0.1c0.1,0,0.2,0,0.3,0c0.2-0.7,0.5-1.5,0.7-2.4c0.3-0.4,0.6-0.8,0.9-1.2
			c-0.4,0.1-0.7,0.2-1.1,0.3C421.6,369.9,420.6,373,420.5,373.2z"/>
		<path fill="#FFFFFF" d="M418.8,373.7c0.2-0.1,0.4-0.1,0.6-0.2l-1.1,0.3C418.5,373.8,418.6,373.8,418.8,373.7z"/>
		<path fill="#FFFFFF" d="M419,374.7c-0.5,0.1-0.8,0.2-1.2,0.3c-0.3,0.1-0.6,0.2-0.9,0.2c-0.6,0.2-1.3,0.4-2.1,0.6
			c-0.4,0.1-1.4,0.4-2,0.7c-0.3,0.1-0.6,0.2-0.8,0.3c-0.4,0.2-0.9,0.7-0.9,0.8c-0.1,0.1-0.2,0.2-0.4,0.2c-0.1,0-0.1,0-0.2,0
			c-0.5,1.9-1,3.8-1.5,5.6c-0.8,5,3.5,3.9,3.8,2.9c1.8-2.3,4.4-1,8.1-12.1C420.3,374.3,419.7,374.4,419,374.7
			C419.1,374.7,419.1,374.7,419,374.7z"/>
		<path fill="#F9DD16" d="M412.6,375.6c0.8-0.3,1.6-0.6,2.1-0.7c0.7-0.2,1.4-0.4,2-0.6c0.4-0.1,0.7-0.2,0.9-0.2
			c0.2-0.1,0.5-0.1,0.7-0.2l1.1-0.3c0.4-0.1,0.8-0.3,1.2-0.4c0.1-0.2,1.1-3.3,1.1-3.3c-0.2,0.1-0.4,0.1-0.5,0.2
			c-0.6,0.1-1,0.2-1.4,0.3c-0.3,0.1-0.6,0.2-1,0.2c-0.7,0.2-1.4,0.4-2.3,0.6c-0.7,0.1-2.8,0.7-3.6,0.9l-0.2,0.1l-0.9,3.6
			L412.6,375.6z"/>
		<path d="M423,368.4c-0.7,0.2-1.5,0.4-2.2,0.6c-0.5,0.1-0.9,0.2-1.4,0.3c-0.3,0.1-0.6,0.1-1.1,0.2c-0.7,0.2-1.4,0.4-2.3,0.6
			c-0.6,0.1-2.2,0.5-3.7,1l-0.2,0.1l0,0c-0.3,0.1-0.4,0.4-0.3,0.6c0,0.1,0.1,0.2,0.2,0.2c0.1,0.1,0.2,0.1,0.3,0.1c0,0,0.1,0,0.1,0
			l0.1,0l0.2-0.1c0.8-0.2,2.9-0.8,3.6-0.9c0.9-0.2,1.7-0.4,2.3-0.6c0.4-0.1,0.7-0.2,1-0.2c0.4-0.1,0.8-0.2,1.4-0.3
			c0.2-0.1,0.4-0.1,0.5-0.2c0.4-0.1,0.7-0.2,1.1-0.3c0.2,0,0.3-0.1,0.5-0.1c0.3-0.1,0.4-0.3,0.4-0.6c0-0.1-0.1-0.2-0.2-0.2
			C423.3,368.5,423.2,368.4,423,368.4z"/>
		<path d="M420.8,373.1c-0.1,0-0.2,0.1-0.3,0.1c-0.4,0.1-0.8,0.2-1.2,0.4c-0.2,0.1-0.4,0.1-0.6,0.2c-0.2,0-0.3,0.1-0.5,0.1
			c-0.2,0.1-0.5,0.1-0.7,0.2c-0.3,0.1-0.6,0.1-0.9,0.2c-0.6,0.2-1.3,0.4-2,0.6c-0.5,0.1-1.3,0.4-2.1,0.7c0,0-0.1,0-0.1,0.1
			c-0.4,0.1-0.7,0.3-0.8,0.3c0,0-0.1,0-0.1,0c-0.2,0.1-0.5,0.3-0.7,0.5c-0.3,0.2-0.5,0.4-0.5,0.5c-0.2,0.2-0.1,0.5,0.1,0.7
			c0,0,0.1,0,0.1,0.1c0.1,0,0.1,0,0.2,0c0.1,0,0.3-0.1,0.4-0.2c0.1-0.1,0.6-0.5,0.9-0.8c0.2-0.1,0.5-0.2,0.8-0.3
			c0.7-0.3,1.6-0.6,2-0.7c0.8-0.2,1.5-0.4,2.1-0.6c0.3-0.1,0.6-0.2,0.9-0.2c0.4-0.1,0.7-0.2,1.2-0.3c0,0,0.1,0,0.1,0
			c0.6-0.2,1.1-0.4,1.6-0.5c0.1,0,0.2-0.1,0.3-0.1c0.3-0.1,0.4-0.3,0.4-0.6c0-0.2-0.2-0.3-0.3-0.3
			C421,373.1,420.9,373.1,420.8,373.1z"/>
		<path fill="#F9DD16" d="M388.6,313.7c0,0-0.1,0-0.1,0c-0.1,0-0.2,0-0.3-0.1c0,0-0.1-0.1-0.1-0.1c-0.6,0.9-1.2,1.4-2,2.6
			c-0.4,0.6-0.9,1.5-3.1,1.7c0,0-4.3,0.1-4.3,0.1c-0.1,0-3.3-0.6-5.2-0.5c-1.5,0.2-2.1,2.1-1,3.7c0.8,1.2,1.3,1.4,2.8,1.3
			c1.5-0.3,2.1-1,3-1.4c0,0,1.8-0.7,1.9-0.7c0.1,0,3.7-0.6,5.4,0.2c0.9,0.5,1.2,1,2.3,2.3c1.1,1.1,1.5,0.9,3.3-0.7
			c0.2-0.1,3.1-4.3-0.5-7.7c0,0-0.8-0.9-1.6-1.2c0,0,0,0.1,0,0.1C388.9,313.6,388.8,313.7,388.6,313.7z"/>
		<path fill="#F9DD16" fill-opacity="0.9882" stroke="#000000" stroke-linecap="round" stroke-linejoin="round" d="M474.9,236.4
			l-1.5-2c0,0,1.3-4.9,1.2-4.9c-0.1,0-4.8,3.6-4.8,3.6l-4.4-1.7l0.6,5.6c0,0-4.1,5.3-4.1,5.2c0.1,0,5.5-0.7,5.6-0.8
			c0.2-0.1,1.7,5.1,1.8,5.2c0,0.1,2.3-6,2.2-6.1c0-0.1,2.3-1.2,2.7-1.3C474.2,238.4,474.3,237.3,474.9,236.4z"/>
		<path fill="#FFFFFF" d="M501.2,243.9c-0.1-0.1-0.4-0.3-0.7-0.6c0,0-0.1-0.1-0.1-0.1L501.2,243.9l-3.6,1.1l0,0
			c0.1,0.1,0.2,0.3,0.1,0.5c1.5-0.4,2.9-0.8,4.4-1.1C501.8,244.2,501.5,244.1,501.2,243.9C501.2,243.9,501.2,243.9,501.2,243.9z"/>
		<path fill="#FFFFFF" d="M494,242.8c-0.6-0.6-1.1-1.2-1.7-1.7c-0.3-0.3-0.5-0.6-0.7-0.8c-0.3-0.3-0.6-0.6-0.9-1.1
			c-0.6-0.5-1.1-1.1-1.6-1.6c-0.1-0.1-0.1-0.3-0.1-0.5c-2.3-0.3-4.6-0.6-6.9-0.9c0,0-1.9-1.5-2.1-1.4c-2.9-0.5-4.4,0.3-5.1,1.5
			c-0.6,0.9-0.6,2-0.5,2.9c0,0,0,0.1,0,0.1c0.2,1.5,0.5,3,0.7,4.4c0,0-1.9,6.6-1.8,6.8c-4.7,5.3-11.8,22.4-12.3,25.7
			c-0.2,3.1-1.4,2.5-1.1,5.5c0,2.3-0.3,0.9,0.5,5.7c0.2,1.5-1.6,1.3-2.6,0.9c-8.7-5.5-16.9-9-26-13.8c0,0-0.1,0-0.1-0.1
			c-2,1.6-3.9,3.2-5.9,4.9c-0.6,0.5-1.2,1-1.7,1.4c0,0,0,0,0,0c0.3,0.2,1.5,1.1,2.1,1.5l0.7,0.5c4.8,3.3,12.7,7.6,23.4,9.5
			c0.3,0,0.5,0.1,0.6,0.1c0.4,0,0.9,0.1,1.4,0.1l0.5,0.1c0.3,0,0.5,0.1,0.8,0.1c0.3,0.1,0.6,0.1,0.9,0.1c0.6,0.1,1.6,0.3,2.3,0.4
			c0.1,0,0.2-0.1,0.2-0.1c0.2,0,0.4,0.1,0.5,0.2c0-0.7,0.3-1.3,0.3-1.4c1.2-4.8,6.3-4.3,6.5-4.2c2.3,0.8,2.6,1,2.2,2.5
			c-0.6,1.6-0.9,2.2-0.9,3.2c0.1,1.9,2.5,4.8,2.5,4.8c0,0.1,1.5,1.3,1.5,1.3c0.7,0.6,1.7,0.7,2.6,1.9c0.9,1.3,1,1.8,0.3,3.1
			c-0.9,1.7-2.8,2.2-3.8,0.9v0c-1.1-1.6-2.1-4.7-2.2-4.8c0,0-2.1-3.7-2.1-3.7c-1.3-1.8-2.3-1.9-3-1.9c-1.5-0.1-2.2-0.4-3.4-0.5
			c-0.3-0.1-0.5-0.4-0.6-0.7c-0.1,0.1-0.2,0.2-0.4,0.2c0,0-0.1,0-0.1,0c0,0-0.1,0-0.1,0c-0.6-0.2-1.9-0.4-2.5-0.5
			c-0.3,0-0.6-0.1-0.9-0.1c-0.3,0-0.5-0.1-0.8-0.1l-0.5-0.1c-0.5-0.1-1-0.1-1.3-0.1c-0.1,0-0.1,0-0.2,0c-0.1,0-0.2,0-0.5-0.1
			c-10.9-1.9-19-6.3-23.8-9.7l-0.7-0.5c-1.2-0.8-1.8-1.3-2.1-1.6c0,0,0,0,0,0l0,0c-0.1-0.1-0.1-0.1-0.2-0.2
			c-0.2,0.2-0.5,0.4-0.7,0.6l-2.7,2.5c0,1.2,0,2.4,0,3.6c0,4.1,0,8.2,1.9,12.6c0.1,0.2,0.1,0.3,0,0.5c-0.1,0.1-0.2,0.2-0.3,0.2
			c3.8,2.2,22.8,6.2,25.7,6.6c3.7-0.4,9,0.1,13,1.4c3.8,1.6,7.6,1.6,10.2-0.4c3.5-1.9,4.8-5.2,6.4-8.2c0.6-1.6,0.6-3.2,0-4.6
			c-1.2-2.9-0.5-3.6-0.7-5.3c4.3-9.4,5.1-20.4,6.2-28.5c-0.1-4.7,0.4-8.4,0.9-9.8c2.3-3.5,5.6-4.9,7.2-5.6c2.1-0.5,4.2-1.1,6.3-1.6
			l-0.2-0.2C495.9,244.8,494.4,243.3,494,242.8z"/>
		<path fill="#FFFFFF" d="M495.7,238.7c-0.2-0.1-0.3-0.3-0.5-0.4l0.8,0.8C496,239,495.8,238.8,495.7,238.7z"/>
		<path fill="#FFFFFF" d="M491,238.2c0,0,3.2-0.7,3.4-0.7c-0.1-0.1-0.1-0.1-0.2-0.2c-0.1-0.1-0.1-0.2-0.1-0.3
			c-0.8,0.2-1.6,0.3-2.4,0.5c-0.5-0.1-1-0.1-1.5-0.2C490.4,237.6,490.7,237.9,491,238.2z"/>
		<path fill="#FFFFFF" d="M506,243.3l-0.6-0.5l-1.3,0l-0.6,1.1l-0.2,0c0,0,0,0.1,0,0.1C504.2,243.8,505.1,243.5,506,243.3z"/>
		<path fill="#FFFFFF" d="M495.3,237l0-0.3c-0.1,0-0.2,0-0.2,0C495.2,236.9,495.3,236.9,495.3,237z"/>
		<path fill="#F9DD16" d="M496.1,239.1l-0.8-0.8c-0.3-0.3-0.6-0.6-0.9-0.8c-0.2,0-3.4,0.7-3.4,0.7c0.1,0.1,0.3,0.3,0.4,0.4
			c0.4,0.5,0.7,0.8,1,1.1c0.2,0.2,0.4,0.5,0.7,0.8c0.5,0.5,1.1,1,1.7,1.7c0.4,0.5,1.9,2,2.5,2.6l0.2,0.2l3.6-1l-0.7-0.7
			c-0.6-0.5-1.3-1.1-1.6-1.5c-0.1-0.1-0.1-0.1-0.2-0.2l-0.7-0.3l0-0.4c-0.2-0.2-0.5-0.5-0.7-0.7c-0.1-0.1-0.3-0.3-0.4-0.4l-0.2-0.2
			l0,0c0,0-0.1-0.1-0.1-0.1C496.4,239.4,496.2,239.3,496.1,239.1z"/>
		<path d="M494.9,236.6c-0.2-0.2-0.5-0.2-0.7,0c-0.1,0.1-0.2,0.3-0.1,0.4c0,0.1,0,0.2,0.1,0.3c0.1,0.1,0.1,0.1,0.2,0.2
			c0.3,0.3,0.6,0.6,0.9,0.8c0.2,0.1,0.3,0.3,0.5,0.4c0.1,0.1,0.2,0.3,0.3,0.4c0.2,0.2,0.3,0.4,0.5,0.5c0,0,0.1,0.1,0.1,0.1l0-1.1
			l-1.3-1.1l0-0.4c-0.1-0.1-0.2-0.2-0.2-0.2C495,236.7,495,236.7,494.9,236.6z"/>
		<path d="M497.6,245L497.6,245l-0.2-0.2c-0.6-0.6-2.1-2.1-2.5-2.6c-0.6-0.7-1.2-1.3-1.7-1.7c-0.3-0.3-0.5-0.5-0.7-0.8
			c-0.3-0.3-0.6-0.6-1-1.1c-0.1-0.1-0.3-0.3-0.4-0.4c-0.3-0.3-0.6-0.5-0.8-0.8c-0.1-0.1-0.2-0.3-0.4-0.4c-0.2-0.2-0.5-0.2-0.7,0
			c-0.1,0.1-0.1,0.2-0.1,0.3c0,0.2,0,0.3,0.1,0.5c0.5,0.5,1,1.1,1.6,1.6c0.3,0.4,0.6,0.7,0.9,1.1c0.2,0.2,0.4,0.5,0.7,0.8
			c0.5,0.5,1.1,1.1,1.7,1.7c0.4,0.5,1.9,2,2.6,2.7l0.2,0.2l0,0c0.1,0.1,0.2,0.1,0.4,0.1s0.3,0,0.4-0.1c0.1-0.1,0.1-0.2,0.1-0.2
			C497.7,245.3,497.7,245.1,497.6,245z"/>
		<path d="M497.9,241l0-0.1l-1.1-0.9c0.1,0.1,0.2,0.2,0.4,0.4C497.5,240.5,497.7,240.7,497.9,241z"/>
		<path d="M500.4,243.2c0,0,0.1,0.1,0.1,0.1c0.3,0.2,0.5,0.4,0.7,0.6c0,0,0.1,0,0.1,0.1c0.2,0.1,0.5,0.3,0.8,0.4
			c0.3,0.1,0.6,0.2,0.7,0.2c0,0,0,0,0.1,0c0.2,0,0.4-0.2,0.5-0.4c0,0,0-0.1,0-0.1c0,0,0-0.1,0-0.1l-0.5,0l-2.6-1.7l-1.6-0.6
			c0.1,0.1,0.1,0.1,0.2,0.2C499.1,242.1,499.7,242.7,500.4,243.2z"/>
		<path fill="#F9DD16" d="M457.7,294.1c0,0.1,0,0.2-0.1,0.3c0.1,0.3,0.2,0.5,0.6,0.7c1.2,0.1,1.8,0.4,3.4,0.5c0.7,0,1.7,0,3,1.9
			c0,0,2.1,3.7,2.1,3.7c0,0.1,1.1,3.1,2.2,4.8v0c0.9,1.3,2.9,0.8,3.8-0.9c0.7-1.3,0.6-1.8-0.3-3.1c-1-1.2-1.9-1.3-2.6-1.9
			c0,0-1.5-1.2-1.5-1.3c0-0.1-2.4-2.9-2.5-4.8c0-1,0.3-1.6,0.9-3.2c0.4-1.5,0.1-1.8-2.2-2.5c-0.2-0.1-5.3-0.6-6.5,4.2
			c0,0-0.2,0.7-0.3,1.4c0,0,0,0,0,0C457.7,293.8,457.7,294,457.7,294.1z"/>
		<path fill="#FFFFFF" d="M409.6,260.4c0.1,0.4,0.3,1,0.2,1.6c0.1,0.7,0.2,1.5,0.2,2.1c0.2,0.7,0.2,1.4,0.3,2.3c0,0.4,0,0.7,0.1,1.1
			c0,0.5,0.1,1,0.1,1.4c0.1,0.6,0.1,1.3,0.2,2l0,0.7c0,0.9-0.1,1.7-0.3,2.6c0,0.3,0,0.7-0.1,1.2c-0.1,0.5-0.1,1-0.1,1.4
			c0,0,0,0.1,0,0.1c0,0.1,0,0.1-0.1,0.2c0,0.1,0,0.2,0,0.3l-0.1,0.1c0,0,0,0,0,0l0,0.1c0,0,0,0.1-0.1,0.1c2.9,1.1,6,2.2,6.9,2.3
			c2-0.8,8.9-6.4,12.6-9.5c-0.7-4.9-7.1-21.4-8.4-24.2c-1.5-1.9-2.9-4.3-4-6.7l-0.1,0.1l0,0.6l-0.7,0.5l0,1.1l-0.7,0.6l0,1.1
			l-0.7,0.6l0,1.1l-0.7,0.6l0,1.1l-0.7,0.5l0,1.1l-0.7,0.5l0.7,1.1l-1.3,1.7l0,1.7l-0.7,0.6l0,1.1l-0.7,0.5l0,1.2l-0.7,0.5v1.7
			l-0.7,0.9c0,0.1,0,0.1,0,0.2L409.6,260.4z"/>
		<path fill="#FFFFFF" d="M407,276.7c0.6,0.2,1.3,0.5,1.9,0.7c0-0.1,0-0.2,0.1-0.3c0-0.1,0.1-0.2,0.1-0.4c0-0.5,0.1-0.9,0.1-1.4
			c0-0.4,0.1-0.8,0.1-1.2c0.1-0.9,0.3-1.7,0.3-2.5l0-0.7c0-0.7-0.1-1.3-0.2-2c0-0.5,0-1-0.1-1.4c0-0.4-0.1-0.8-0.1-1.2
			c0-0.9-0.1-1.5-0.2-2.2c0-0.7-0.1-1.4-0.2-2.1l-3.1,4.2l0,1.2l-1.3,2.2l-2.1,1.8c0.1,1.2,0.2,2.4,0.4,3.6
			C403.5,275.4,404.8,275.9,407,276.7z"/>
		<path d="M401.2,275.6c-0.1-0.2-0.1-0.3,0-0.5c0.2-0.3,0.2-0.4,1.4,0c-0.1-1.2-0.2-2.4-0.4-3.6l-1.4,1.2c0.1,1.2,0.3,2.5,0.4,3.8
			C401.3,276.2,401.3,275.9,401.2,275.6z"/>
		<path d="M420.1,284.6l2.7-2.5c-0.9,0.7-1.8,1.5-2.7,2.2C420.1,284.4,420.1,284.5,420.1,284.6z"/>
		<path d="M429.3,270.5c0.2-0.1,0.3-0.3,0.4-0.4c0.1-0.1,0.3-0.2,0.5-0.1c0.2,0.1,0.3,0.2,0.3,0.4c0.1,1.1,0.4,2.1,0.7,2.7
			c-0.1-0.4-0.1-0.8-0.2-1.2c0-0.2-0.1-0.5-0.1-0.7c-0.1-4.3-7.6-23.3-8.7-25.6c0-0.1-0.1-0.1-0.1-0.2c-1.6-2.1-3.2-4.8-4.4-7.4
			l-1,1.6c1.1,2.4,2.6,4.8,4,6.7C422.2,249.1,428.6,265.5,429.3,270.5z"/>
		<path d="M409.3,266.4c0,0.4,0,0.8,0.1,1.2c0,0.5,0.1,0.9,0.1,1.4c0.1,0.7,0.1,1.3,0.2,2l0,0.7c0,0.8-0.1,1.6-0.3,2.5
			c0,0.3-0.1,0.7-0.1,1.2c-0.1,0.5-0.1,1-0.1,1.4c-0.1,0.2-0.1,0.3-0.1,0.4c0,0.1,0,0.2-0.1,0.3c0.3,0.1,0.6,0.2,0.9,0.3
			c0,0,0.1,0,0.1-0.1l0-0.1c0,0,0,0,0,0l0.1-0.1c0.1-0.1,0.1-0.2,0-0.3c0-0.1,0-0.1,0.1-0.2c0,0,0-0.1,0-0.1c0-0.4,0.1-0.9,0.1-1.4
			c0.1-0.5,0.1-0.9,0.1-1.2c0.1-0.9,0.3-1.7,0.3-2.6l0-0.7c0-0.7-0.1-1.4-0.2-2c0-0.5,0-0.9-0.1-1.4c0-0.4-0.1-0.8-0.1-1.1
			c0-0.9-0.1-1.7-0.3-2.3c0-0.6-0.1-1.4-0.2-2.1c0.1-0.6-0.1-1.1-0.2-1.6l0-0.1c0-0.1,0-0.1,0-0.2l-0.6,0.7l0,1.1l-0.1,0.2
			c0.1,0.7,0.2,1.4,0.2,2.1C409.2,264.9,409.3,265.6,409.3,266.4z"/>
		<path fill="#F9DD16" d="M415.5,289.6c0.6,4.3,1.6,9.3,3,11c0.4,0,1.3,0,2.2,0c-1.8-4.3-1.7-8.4-1.7-12.3c0-1.4,0-2.8-0.1-4.1
			c0-0.2,0.1-0.3,0.2-0.4c2.1-1.7,4.1-3.3,6.1-5c1.8-1.5,3.6-3,5.5-4.6c-0.6-0.7-0.9-1.8-1.1-2.7c-2.4,2-10.5,8.7-12.8,9.5
			c-0.1,0-0.1,0-0.2,0c-1.1,0-5-1.5-10.1-3.4c-1.7-0.6-3.4-1.3-4.3-1.6c0,0.8-0.2,1.6-0.6,2.2c2.1,0.9,4.1,1.8,6.2,2.7
			c2.3,1,4.6,2,6.8,3c0.2,0.1,0.3,0.2,0.3,0.4c0.1,1.1,0.2,2.7,0.5,4.6c0,0,0.1,0.1,0.1,0.1C415.6,289.2,415.6,289.4,415.5,289.6z"
			/>
		<path d="M422,300.9c-2-4.3-1.9-8.5-1.9-12.6c0-1.2,0-2.4,0-3.6c0-0.1,0-0.2,0-0.3c0.9-0.7,1.8-1.5,2.7-2.2
			c0.2-0.2,0.5-0.4,0.7-0.6c-0.2-0.2-0.2-0.4-0.1-0.6c0.1-0.2,0.4-0.3,0.7-0.2c0.1,0,0.1,0.1,0.1,0.1c0.6-0.5,1.2-1,1.7-1.4
			c1.9-1.6,3.9-3.2,5.9-4.9c0,0,0.1-0.1,0.1-0.1c0.1-0.1,0.2-0.3,0.2-0.4c0-0.2-0.1-0.3-0.3-0.4c-0.2-0.1-0.4-0.3-0.5-0.6
			c-0.3-0.6-0.6-1.5-0.7-2.7c0-0.2-0.1-0.3-0.3-0.4c-0.2-0.1-0.4,0-0.5,0.1c-0.1,0.1-0.3,0.3-0.4,0.4c-3.8,3.2-10.6,8.7-12.6,9.5
			c-0.9-0.1-4-1.2-6.9-2.3c-0.3-0.1-0.6-0.2-0.9-0.3c-0.7-0.3-1.3-0.5-1.9-0.7c-2.2-0.8-3.5-1.3-4.3-1.6c-1.2-0.4-1.2-0.3-1.4,0
			c-0.1,0.1-0.1,0.3,0,0.5c0.1,0.3,0.1,0.7,0,1c-0.1,0.7-0.4,1.2-0.7,1.4c-0.2,0.1-0.2,0.3-0.2,0.5c0,0,0,0,0,0
			c0,0.2,0.1,0.3,0.3,0.4c2.3,1,4.6,2,6.8,3c2.2,1,4.4,1.9,6.6,2.9c0.1,0.7,0.2,2.3,0.5,4.3c0.1-0.1,0.2-0.1,0.3-0.1c0,0,0,0,0,0
			l0,0c0.4-0.2,0.5-0.1,0.6,0c-0.2-1.8-0.4-3.5-0.5-4.6c0-0.2-0.1-0.3-0.3-0.4c-2.3-1-4.6-2-6.8-3c-2.1-0.9-4.1-1.8-6.2-2.7
			c0.4-0.6,0.6-1.3,0.6-2.2c0.9,0.3,2.6,1,4.3,1.6c5.1,1.9,9,3.3,10.1,3.4c0.1,0,0.1,0,0.2,0c2.3-0.8,10.4-7.5,12.8-9.5
			c0.2,1,0.5,2.1,1.1,2.7c-1.9,1.5-3.7,3.1-5.5,4.6c-2,1.7-4,3.3-6.1,5c-0.1,0.1-0.2,0.3-0.2,0.4c0.1,1.4,0.1,2.7,0.1,4.1
			c0,3.9,0,8,1.7,12.3c-1,0-1.9,0-2.2,0c-1.5-1.7-2.5-6.7-3-11c0,0.1-0.1,0.1-0.1,0.2c-0.1,0-0.1,0.1-0.2,0.1
			c-0.1,0.1-0.3,0.2-0.6,0.3c0.6,4,1.6,9,3.1,11c0.1,0.1,0.1,0.2,0.2,0.3c0,0,0,0,0,0c0.1,0.1,0.2,0.2,1.2,0.2c0.5,0,1.3,0,2.4,0
			c0,0,0.1,0,0.1,0c0.1,0,0.2-0.1,0.3-0.2C422.1,301.2,422.1,301,422,300.9z"/>
		<path d="M411.6,290.6c-5.2,2.8-12.8,7.9-19.5,16.7c-0.2,0.2-0.3,0.4-0.3,0.4c0,0-0.1,0.1-0.1,0.1c-0.2,0.3-0.4,0.7-0.7,1.1
			l-0.3,0.4c-0.1,0.2-0.3,0.4-0.4,0.6c-0.2,0.3-0.4,0.5-0.6,0.8c-0.4,0.6-1.2,1.6-1.6,2c-0.1,0.1-0.1,0.2-0.1,0.3
			c0,0.3,0,0.4,0.1,0.5c0,0.1,0.1,0.1,0.1,0.1c0.1,0,0.1,0.1,0.3,0.1c0,0,0.1,0,0.1,0c0.2,0,0.4-0.1,0.4-0.3c0,0,0-0.1,0-0.1
			c0,0,0-0.1,0-0.1c0.5-0.5,1.1-1.4,1.5-1.9c0.1-0.2,0.3-0.5,0.5-0.7c0.2-0.2,0.3-0.5,0.5-0.7l0.3-0.4c0.3-0.4,0.6-0.8,0.7-1.2
			c0.1-0.1,0.2-0.2,0.4-0.5c6.6-8.7,14.1-13.7,19.2-16.5l0.8-0.4c0.5-0.2,1.2-0.6,1.7-0.9c0.3-0.1,0.5-0.3,0.6-0.3
			c0.1,0,0.1,0,0.2-0.1c0.1,0,0.1-0.1,0.1-0.2c0.1-0.2,0.1-0.4,0-0.5c0-0.1-0.1-0.1-0.1-0.1c-0.1-0.1-0.2-0.2-0.6,0l0,0c0,0,0,0,0,0
			c-0.1,0-0.2,0.1-0.3,0.1c-0.4,0.2-1.1,0.5-2,1L411.6,290.6z"/>
		<path d="M424,280.8c-0.2-0.1-0.5,0-0.7,0.2c-0.1,0.2-0.2,0.3,0.1,0.6c0,0,0.1,0.1,0.2,0.2l0,0c0,0,0,0,0,0c0.3,0.3,1,0.8,2.1,1.6
			l0.7,0.5c4.8,3.4,12.9,7.8,23.8,9.7c0.3,0,0.5,0.1,0.5,0.1c0.1,0,0.1,0,0.2,0c0.3,0,0.8,0.1,1.3,0.1l0.5,0.1
			c0.2,0,0.5,0.1,0.8,0.1c0.3,0.1,0.7,0.1,0.9,0.1c0.7,0.1,2,0.3,2.5,0.5c0,0,0.1,0,0.1,0c0,0,0.1,0,0.1,0c0.2-0.1,0.3-0.2,0.4-0.2
			c0.1-0.1,0.1-0.2,0.1-0.3c0-0.1,0-0.2-0.1-0.4c0,0,0,0,0,0c-0.1-0.2-0.3-0.2-0.5-0.2c-0.1,0-0.2,0-0.2,0.1
			c-0.7-0.2-1.7-0.4-2.3-0.4c-0.3,0-0.6-0.1-0.9-0.1c-0.3-0.1-0.6-0.1-0.8-0.1l-0.5-0.1c-0.5-0.1-1-0.1-1.4-0.1
			c-0.1,0-0.3-0.1-0.6-0.1c-10.7-1.9-18.7-6.2-23.4-9.5l-0.7-0.5c-0.7-0.5-1.8-1.3-2.1-1.5c0,0,0,0,0,0
			C424.1,280.9,424.1,280.9,424,280.8z"/>
	</g>

		<path fill="none" stroke="#999999" stroke-width="0.25" stroke-linecap="round" stroke-linejoin="round" stroke-miterlimit="10" d="
		M330.4,410.7l-1-0.8h-3.2l-1.3,1.1l-1.3-0.6l-1.3,1.1l-2.6,1.1l-1.6,1.4l0,2.2l1.3,0.6l0.7,3.9l2.9,0.3l0.7-0.6l1,0.8l0,0.5l1,0.3
		l0.3-2l1-0.2l0.9-1.4l0-1.1l1.9-1.1l0-0.6l0.7-0.6L330.4,410.7z M521.9,252l-0.6-0.6l-0.6-2.2l-2.9-1.4l-1.3,0l-3.9-1.7l-1.3-0.6
		h-3.9l-1-0.8l0-1.2l-1-0.8l-1.3,0l-0.6,1.1l-0.6,0l-2.6-1.7l-2.3-0.9l0-0.5l-1.3-1.1l0-1.1l-1.3-1.1l0-1.7l-1.3-2.2l0-1.7l-0.7-0.6
		l0-2.8l-0.7-0.6l0-8.4l0.6-0.6v-3.9l0.6-0.5v-2.2l0.7-0.6l0-1.7l0.7-0.6l0-1.1l0.7-0.6l0-1.1l1.3-2.2v-2.2l1.3-2.3l0.7-1.1l0-2.8
		l0.6-0.6l0-2.2l1.3-2.3l0-18.4l-1-0.8h-1.9l-2.6,1.1h-1.9l-4.5,2.2l-5.2,2.2l-5.2,2.8l-1.3,0l-1.9,1.1h-1.9l-2,1.1l-3.2,0l-0.6,0.5
		h-3.3l-0.6,0.6l-1.3,0l-1.9,1.6l-0.6,0l-2.6,2.2l-2,0.6l-2.6,2.2l-2.6,1.1l-7.1,6.1l-0.6,0l-1.3,1.1l-1.9,0.6l-0.7,1.1l-0.6,0
		l-1,0.9l0,0.5l-5.2,5l0,0.6l-1.3,1.1l-3.2,5.6l0,1.1l-0.7,0.5l0,2.3l-0.6,0.5v1.7l-0.6,0.5l0,2.2l-0.6,0.6l0,2.2l-0.6,0.6v1.7
		l-2,2.2l0,0.6l-5.2,8.9l0,0.6l-0.7,0.5l0,1.1l-0.7,0.6l0,1.1l-0.7,0.6l0,1.1l-0.7,0.6l0,1.1l-0.7,0.5l0,1.1l-0.7,0.5l0.7,1.1
		l-1.3,1.7l0,1.7l-0.7,0.6l0,1.1l-0.7,0.5l0,1.2l-0.7,0.5v1.7l-1.3,1.6l0,1.1l-3.2,4.4l0,1.2l-1.3,2.2l-3.9,3.4l0,0.5l-1.3,1.1
		l0,1.1l-0.7,1.1l-2.6,2.2l0,0.6l-3.9,3.4l0,0.5l-2.6,2.2l-1.6,3.1l-1.6,0.8l0,0.6l-1.3,1.1v1.7l-1.6,1.4l-0.6,0l-1.9,1.7l-1.3-0.1
		l-2,1.2l-1.9,0.5l-1,0.8l0.6,0.6l-1,0.3l-1.9,1.7l-0.6-0.6l-1.3,0l-0.6-1.1l-1.3,0l-0.3,2l-1.3,0.6l0,0.6l-1.9,1.6l-0.7,1.1l0,1.1
		l-0.6,0.5l0,1.1l-0.7,1.1l-1.9,1.1l0.7,0.6l0,2.3l1.3,1.1v1.7l-1.3,1.6l0,6.1l-0.7,0.5l0,2.8l-2,3.3l-1.3,1.1l0,0.6l-1.6,1.4
		l-0.6,0l-2.3,2l0,1.1l-0.7,0.5l0,2.8l0.6,0.6l-0.7,0.5l0,1.1l1.9,1.7l0.7,1.1l0,1.1l1.3,1.7l0,3.9l-0.6,0.5l0,2.8l1.3,1.1v2.8
		l-2.6,4.4v2.8l0.6,0.6l-1.6,1.9l-1,0.3l-0.6,2.2l-1.9,2.2l0,4.5l-0.6,0.5l0,1.1l-0.6,0l-0.3-0.9l-3.3,0l-1.3,1.1l-0.6,0l-2.3,2.5
		l0,1.1l-1.3,1.1l0,1.1l-1.3,1.1l0,3.9l2.3,0.3l0.6,0.6h3.3l1,0.8l0,1.1l-1,0.8l-2.6,0l-1,0.8l-0.6,2.8l-1.3,1.1l0,0.6l-2.3,1.9
		l-0.6,0l-1.6,1.9v1.7l-2,1.1l0,1.1l-1.3,1.1l0,1.7l1,0.8l0.7-0.6h0.6l1.3,1.1l1.3-0.6l1.6,2.5l0.3,1.4l3.9-0.6l0.3-2.5l1-0.8
		l0.6,0.6h3.3l0.7-0.6l1-0.2l0-1.7l1.3-0.6l0-2.3l0.6-1.1l0.3-0.2l2,1.7l3.6-0.3l0.6-1.7l-2-1.1l0-0.6l0.7-0.6l-0.7-1.1l0-1.1
		l0.3-0.3l1.3,0.5l1-0.8l0-2.8l0.3-0.3l0.6,0l1.3-1.1l2,0l0.6,0.6h2l0.6-0.6l2.6,0l0.7,0.6h2.6l1,0.9l-0.6,1.6l1.9,1.1l1.3,2.2
		l1.3,1.1l-0.7,0.6l0,1.1l0.7,0.6l0,1.7l0.6,0.6l0.3,1.4l0.6,0l1.3,1.1l2,0l1.3,1.1h0.6l1.6-1.4v-3.3l0.7-0.6l0-0.5l1-0.8l1.3,0
		l1-0.8l0-0.6l1.7-1.9h5.2l1.3,1.1l1.6,0.3l0.6,1.1l0,2.2l0.7,0.6l-0.6,0.6l0,1.7l-0.6,0.6l0,2.8l-2.6,2.7l0.3,0.8h1.3l0.6-0.5
		l0.7,0.6h1.3l1-0.8l0-1.7l1.3-1.7l0-1.1l1.3-1.1l0-1.7l1.3-1.1l0.7-2.8l1.9-1.1l-0.3-1.9l-0.6,0l-2.3,1.9l0,0.6l-1,0.8l-1.6-0.3
		l0-0.6l-1.3-1.1l0-2.8l2.3-1.9l2-0.6l2.3-1.9v-1.7l1.3-1.7l0-1.1l1.6-0.3l1-0.8l0-0.6l1-0.3l3.2-2.8l2.6-0.6l0.7-1.1l1.3,0.6l2.6,0
		l0.7-0.6l0.6,0.6h4.6l2.3-1.4l0.7-1.2l0-1.6l0.7-0.6l0-2.2l1-0.8l0.7,0l3.6-3.1l-0.7-1.1l0-2.3l1.3-1.1l0.3-1.4l2,0l0.6-0.6h2
		l0.6-0.5l1.9,0.6l2.6,1.1l0.3-1.4l1.3-1.1l0-0.6l1-0.3l5.8-5l1.3,0l2.9-1.9l0-0.6l1.3-1.1v-1.6l-1-0.9l-1.7-0.3l0.7-1.1l-1.9-1.7
		V347l0.6-0.6l0.6-2.2l3.6-3.6l5.8,0l1.3-1.7l1.9,0l1.3,0.5l1.9-1.1l1.3,0l1.6-0.8l0.3-0.8l1-0.3v-1.7l0.7-1.1l1.6-0.8l2.6-0.6
		l0.3-0.8l1.9-1.7l0-1.1l1.9-3.3l3.2-2.8l0.7-3.3l-1.3-1.1l-0.6-1.7l-1.6-1.4l-1.3,0l-0.3-0.9l-0.7-0.6l0.7-0.5l-0.7-1.1l0-3.3
		l0.6-0.6l0.6-2.2l0.7-0.5l0.6-2.8l2.3-1.4h1.9l4.9-4.2l1.3-2.2l0-1.7l1.3-1.7v-1.7l-1.3-1.1l0.6-0.6l0-1.1l1.9-1.7v-1.7l3.3-2.8
		l1.3-2.2l0-0.6l1.9-1.6l-0.7-1.1l1.3-0.6l0-1.1l0.6-0.5l0-2.2l1.3-1.1l0-0.6l1.9-1.1l0-0.6l2.6-2.7l0-0.6l1.3-1.1l0-1.1l-0.6-0.6
		l0-2.2l-0.6-0.6l0-1.7l1-0.3l0.7,0.6l1.3,0l1.6-1.4l1-1.4l1-0.3l0.7-1.1L521.9,252z"/>
</g>

</svg>
