<?xml version="1.0" encoding="utf-8"?>

<svg version="1.2" baseProfile="tiny" xmlns="http://www.w3.org/2000/svg" xmlns:xlink="http://www.w3.org/1999/xlink" x="0px"
	 y="0px" viewBox="230.7 102.6 380.6 385.3" xml:space="preserve">

<g id="Iraq">
	<g>
		<polygon fill="#CE1126" points="523.5,177.4 522.7,177.3 522,177.6 521.3,178.1 520.6,178.4 518.9,178.7 518.1,178.8 517.3,178.4
			517,178.2 516.7,177.9 516.6,177.6 516.4,176.6 516.2,176.4 515.9,176.4 514.7,175.9 514.1,175.9 513.4,176.1 512.7,176.6
			511.9,176.8 509.4,176.7 508.2,177.1 507.8,177.1 507.4,177 507,177 506,177.8 505.3,178.1 504.5,178.2 503.9,177.8 503.4,177.7
			501.9,178.1 501.3,177.9 500.8,177.3 499.8,174.8 498,172.3 496.8,171.2 495.8,171 495.3,170.7 493.8,169.4 491.5,168.5
			490.4,168.5 489.2,169.2 488.5,169.4 488.5,169.4 488.4,169.4 488.4,169.4 487.7,169.9 486.8,170.2 486,170.1 485.3,169.4
			485.3,169.4 485.3,169.3 485,168.6 485.3,167.6 485.7,166.6 486.2,165.9 486.4,164.9 485.9,163.9 484.7,162.4 484.5,161.3
			484.6,159.1 484.4,158.2 483.8,157.7 483.1,157.1 482.9,156.5 483.8,155.9 483.1,155 482.8,154.1 482.7,152.1 482.5,150.9
			482.1,149.7 481.4,148.9 480.4,148.8 478.3,149.7 477.1,149.8 476.1,149.3 475.6,148.8 475.5,148.3 475.4,147.8 475.2,147.2
			474.9,146.8 474.6,146.4 474.3,146 474.3,145.4 473.8,144.8 473.1,144.2 472.5,143.5 472.6,142.7 472.7,142.6 473.2,142.4
			473.3,142.3 473.4,141.3 473.8,139.6 474.6,137.9 474.6,137 474.2,135.9 473.2,134.2 472.7,133.4 472,133.1 471.5,133
			471.1,132.9 470.7,132.6 470.3,132.2 469.8,131.8 469.3,131.7 468,131.7 467,131.5 466.3,131 466,130.1 466.4,128.9 467.7,127.3
			468.3,126.4 468.5,125.2 468.3,124.1 468,123.3 467.7,122.5 468,121.2 468.4,120.7 468.4,120.1 468.2,119.7 467.3,119.3
			466.9,118.8 466.6,118.6 466.2,118.6 465.5,118.9 465.1,118.8 464.9,118.6 464.7,117.8 464.6,117.5 464.3,117.3 464,117.2
			463.7,117.1 463.5,116.8 463.2,115.9 463.2,115.4 463.7,114 463.2,113.2 462.5,112.8 458.4,112.2 457.7,112.2 456.4,112.8
			454.9,113.9 453.5,115.3 452.6,116.4 451.6,117.2 450.6,117.8 447.3,118.8 447,119.4 446.8,120.2 446.2,121.2 446.2,121.2
			445.9,122 445.5,122.4 445,122.4 443.4,122 443,121.7 442.8,121.2 441.2,117.7 440.9,116.7 441,115.6 441.3,114.6 441.9,113.8
			442.4,113.5 442.9,113.4 443.3,113.2 443.6,112.7 443.6,112.2 443.6,111.6 443.4,110.5 443.1,109.4 442.6,108.6 442,107.9
			441.1,107.3 437.4,105.8 435.3,105.4 433.6,105.7 432.1,106.9 431,108.6 429.8,110 427.7,110.4 427,111.1 426.5,111.2 426.2,111
			425.4,110.2 425,109.9 424.1,109.7 423.1,109.6 419.1,109.9 418.2,109.8 417.2,109.4 416.5,108.8 416.1,108.7 415.6,108.6
			415.2,108.7 414.2,109 413.7,109.1 413.1,108.8 411.3,107.3 409.7,106.6 408.1,105.3 407.6,105.3 406.9,105.4 406.6,105.5
			406.2,105.9 405.9,106 405.5,105.9 405.3,105.8 400.2,103.1 399.5,102.9 398.3,103 396.7,103.4 395.2,104 394.2,104.8
			392.6,105.3 391,105.1 387.8,104 387.5,103.8 387.3,103 387,102.7 386.5,102.6 386.2,102.7 384.2,103.5 384,103.6 383.7,104
			383.7,104.4 383.6,104.7 383.5,105.1 378.6,112.2 378.1,113.5 378,113.8 377.4,114.1 374,114.6 371.8,115.4 370,115.6
			370.3,116.1 370.6,116.6 370.8,117.2 370.8,117.9 369.6,118.8 367.1,121.2 367.1,121.2 363.1,125.5 355.3,133.8 350.1,139.4
			349,140.3 348,140.8 335.9,143.3 333.4,143.7 332.2,144.3 331.5,145.4 331.5,145.4 328,152.1 327.7,153.3 326.5,165.4
			326.5,166.2 326.6,167 327.6,169.3 327.6,169.4 330.6,175.9 331,177.4 331.2,179 331.4,185.5 331.2,187 330.6,188.5 327.4,193.2
			327.4,193.2 327.4,193.2 327,194.6 326.7,199.3 325.1,205.1 324.7,208 325,216.9 325.3,225.2 325.2,226.4 324.9,227.6
			322.9,231.3 498.8,231.3 498.8,231.3 498.5,230.9 498.1,230.6 497.8,230.5 497.2,229.8 497.5,229.1 498.6,227.8 498.7,227.3
			498.6,226.3 498.8,225.8 499.1,225.2 499.6,225 500.7,224.9 501.8,224.1 502,223 501.9,221.8 502.2,220.9 503.1,220.9
			504.3,221.5 505.3,221.8 505.9,221 506.2,219.9 506.5,219 506.6,218.1 506.3,216.9 506.3,216.9 506.2,216.3 506.2,215.6
			506.3,215.1 506.8,214.7 507,214.6 507.6,214.5 507.8,214.4 507.9,214.2 507.8,213.6 507.8,213.4 508.3,212.5 508.6,212.4
			509.2,212.6 510,213.1 510.4,213.3 510.9,213.3 512.1,213.8 512.7,213.6 513.3,213.1 514.3,212.4 514.7,212.4 515.4,212.6
			516.4,212.3 516.9,212.2 517.3,211.9 517.6,211.4 516.8,210.4 517.3,209.1 518.2,207.7 518.3,206.4 517.7,205.9 516.2,205.9
			515.7,205.6 515.6,204.8 515.9,204.2 516.4,203.6 516.7,203 516.4,201.6 515.5,200.5 513.3,198.6 510.8,194.6 510.3,193.2
			510.3,192.8 510.4,192.4 510.6,192.1 510.9,191.8 511.1,191.7 511.1,191.5 511.1,191.3 510.9,191.1 510.5,190.2 510.1,189.2
			510.3,189.1 510.5,189.1 511.7,189.5 511.8,188.8 511.4,187 511.4,186.2 511.6,185.4 511.9,184.6 512.4,184.1 513.2,183.8
			515.9,183.9 516.7,183.7 518.6,182.7 520.2,182.8 521,182.7 521.6,182.1 522.1,181.3 523.3,180.6 523.9,180 524.4,179.2
			524.4,178.5 524.1,177.8 		"/>
		<path fill="#FFFFFF" d="M497,319.4h7.7v-38.3l-0.1,0l-0.7,0.3l-1.1,1.1l-0.6,0.4l-0.7,0.2l-0.3-0.3l0-1.7l-0.3-0.7L499,279
			l-0.6-0.6l-0.5-0.8l-0.4-0.8l-0.3-0.8l-0.2-0.9l-0.2-0.5c0.1,4.8,0.1,11.2,0.1,18.3V319.4z"/>
		<path fill="#FFFFFF" d="M464.1,317.4v2h7.7v-3.9v0v-3.9h-2.1C466.8,311.6,464.1,314.4,464.1,317.4z"/>
		<path fill="#FFFFFF" d="M318.2,240.5l-1.4,3.1l-0.9,1.2l-1.1,0.7l-9.6,2.6l-5.7,3.4l-4.3,2.6l-4.3,2.6l-4.3,2.6l-4.3,2.6l-4.3,2.6
			l-4.3,2.6l-4.3,2.6l-4.3,2.6l-4.3,2.6l-4.3,2.6l-4.3,2.6l-4.3,2.6l-4.3,2.6l-4.3,2.6l-4.3,2.6l-4.3,2.6l3.1,11.2l1.7,6.3l6.2,22.9
			l-3,0.9l0,0l0,0l0,0.1l0,0.1l1.9,6.6l0.3,0.7l0.4,0.2l7.4-2l0.8,0.5l0.6,1.4l0.8,3.1l-1,1.4l-4.7,4v0.3l0.4-0.1l7.7,1.3l7.7,1.3
			l7.7,1.3l7.7,1.3l3.1,0.5h0h0l13.3,2.6l2.1,0.8l2.2,1.3l3.1,1.9h280.7l-0.5-0.5l-0.1-0.3L580,361l-0.2-0.4l-0.3-0.3l-0.7-0.5
			l-0.3-0.4l-1.4-2.5l-0.2-0.8l-0.4-0.8l-1.4-0.7l-0.6-0.7l-0.9-2l-0.7-1l-0.8-0.3l-0.6-0.1l-0.3-0.4l-0.3-0.5l-0.5-0.3l-0.6-0.2
			l-0.3-0.2l0-0.4l0.1-0.6l0.2-0.5l0.2-0.4l0.2-0.5l0.1-0.6l-0.2-0.6l-0.8-0.6l-0.2-0.6l-0.4-0.2l-0.3-0.3l-0.7-1l-0.2-0.3l-0.2-0.2
			l-1.2-1.1l-0.2-0.3l-0.3-0.6l0-0.2l0.2-0.2l0.3-0.9l0.2-0.3l0.1-0.3l-0.1-0.5l-0.2-0.3l-1-0.8l-0.7-0.8l-0.4-0.7L564,335l-0.8-0.4
			l-2.2-0.7l-0.5,0l-1.8,1l-0.7,0.3l-1.4,0.1l-1.2-0.3l-1.2-0.6l-1.2-0.9l0,0l-11.1-9.7c-0.1,0.6-0.2,1.2-0.3,1.7l-0.3,3.3
			l-10.8,0.2l-10.8,0.2v-16.7l-1.7,0.2l-2.3-0.3l-0.8-1.8v0l0.5-0.6l0.6-0.5l0.6-0.6l0.3-0.8l-0.2-0.6l-0.6-0.5l-0.7-0.3l-1.6-0.2
			v22.7h-58.2l0.3-7.6l-0.1,0c0.3-8.7,1.1-11.6,4-14.4c2.3-2.2,5.5-3.2,9.2-2.9l2.8,0.2l0.2-3.6c0.2-4.5-0.2-6.1-1.5-6.6
			c-1.7-0.6-1.3-2.4,0.7-3.8c1-0.7,3.4-3,5.3-5.1c1.9-2.1,3.7-3.9,4-3.9c0.2,0,0.4,8.6,0.4,19.1v19.1h7.7v-19.6
			c0-17-0.1-19.8-0.9-20.6c-0.5-0.5-1.1-0.9-1.4-0.9c-1.2,0-0.4-2.4,1.3-3.5c1-0.7,3.4-3,5.3-5.1c0.2-0.2,0.4-0.4,0.6-0.6l-1.4-2.6
			l-0.1-0.1l-0.1,0l-0.1,0l-1.1,0.2l-1-0.1l-0.9-0.5l-0.8-1.1l0.8-0.4l0.4-0.2l0.3-0.3h0l0.3-0.7c-2.1-0.5-2.6-0.4-3.6,0.6
			c-2.4,2.4-6,3.1-9.5,1.7l0,0c-1-0.4-2.1-1.1-2.5-1.5c-0.6-0.7-0.3-0.8,1.9-0.4c3.9,0.6,6.3-0.1,8.5-2.5l1.9-2.1l2.7,1
			c0.6,0.2,1.2,0.4,1.7,0.5l0.1-0.1l0.9-0.8l0.6-0.6l1.6-1.3l0.4-0.5v-0.5l-0.2-0.4l-0.3-0.4l-0.2-0.5l0.1-0.4l0.5-0.9l0.2-0.4
			l0.5-2.2l0.1-1.2l-0.2-1.1l-0.6-0.9l-0.8-0.5h-0.9l-0.8,0.6l-0.7-0.5l-0.5-1l-1.2-3.9l0.4-0.6l2-0.5l0.3-0.2l0.3-0.3l0.2-0.3
			l0.2-0.4l0.1-1.4l-0.3-1.9l0.2-1.3l1.5,0.4l1.3,0.7l1.2,0.3l2.7,0.2l0.9,0.3l0.2,0l0.2-0.3l0.1-0.5l0-0.5l-0.1-0.3l-0.4-0.6
			l-0.1-0.8l0-0.9l-0.1-0.9l-0.2-0.3l-0.2-0.2l-0.2-0.3l-0.1-0.5l-0.1-0.3H322.9L318.2,240.5z M479.8,246.2c1.6-0.2,2.3,0.9,3.5,5.5
			c1,3.8,0.9,4.9-0.3,4h0c-1.3-1-4.1-6-4.2-7.6C478.7,246.7,478.9,246.3,479.8,246.2z M311,345.8l-3.4,3.7l-3.4-3.7l0,0l-3.4-3.7
			l3.4-3.7l3.4-3.7l3.4,3.7l3.4,3.7L311,345.8z M399,298.5L399,298.5L399,298.5c0-21.6,0.2-31,0.6-31.3c0.3-0.2,1.7,0.9,3.1,2.5
			c1.4,1.6,3.9,4.2,5.6,5.7c2.6,2.4,2.9,2.9,2.1,3.4c-2.7,1.8-2.6,1.2-2.6,21.7v19.3h5.2c4.6,0,5.5-0.2,7.6-1.5
			c2.7-1.7,2.8-1.5,1.5,1.9c-0.5,1.3-1,3.8-1.2,5.6l-0.3,3.3l-10.8,0.2l-10.8,0.2V298.5z M339,283.6c0.2-0.2,0.9-1.2,1.6-2.4
			c0.7-1.1,1.6-2.4,1.9-2.8c0.3-0.4,5.5-7.9,11.5-16.7c6-8.8,11.1-16.1,11.3-16.1c0.2,0,0.5,0.7,0.7,1.6c0.9,5,1.6,7.8,2.3,9.3
			c0.9,2,0.4,2.7-2,2.8c-1.1,0-3.8,3.5-16.1,21.5c-8.1,11.8-14.8,21.7-14.9,21.9c-0.1,0.3,7.2,0.5,16.2,0.5h16.4l0-6.4
			c0-3.5,0.2-6.7,0.4-7c1-1.6,11.9-9.8,12.6-9.6c0.5,0.1,3.4,2.3,6.5,4.9l5.6,4.6v39.6h-94.8l-1,3.8c-1.1,4.6-3,7.9-5.5,9.8
			c-2.4,1.7-7.8,2.2-10.9,1l0,0c-1.2-0.5-3.2-2.1-4.5-3.6c-2.4-2.9-3-4.3-1.4-3.3c2.5,1.4,7.3,2.4,9,1.7c6.4-2.3,7.8-11.6,2.7-17.5
			c-1-1.2-1.8-2.5-1.8-3s1.1-1.4,2.4-2c1.8-0.9,2.7-1.8,3.9-4.2c1.2-2.4,1.7-2.9,2.2-2.4c0.8,0.7,3.5,7.8,3.5,9.2
			c0,0.7,1,0.9,5.5,0.9h5.5l-0.9-2.2c-0.5-1.2-1.2-2.9-1.7-3.7c-0.8-1.3-0.8-1.5,0-2.1c0.5-0.4,2-1.5,3.4-2.6c1.4-1.1,2.7-2.4,2.9-3
			c0.5-1.4,3.5-5.5,4.1-5.5c0.2,0,0.5,4.3,0.5,9.5v9.5h68.2v-27.2l-1.9-1.3l-1.9-1.3l-1.9,1.6l-1.9,1.6v19.5H348
			c-15.8,0-28.7-0.1-28.7-0.2c0-0.2,14.3-21.2,16-23.5c0.4-0.5,1.3-1.8,2-3C338.1,284.8,338.8,283.8,339,283.6z"/>
		<path fill="#FFFFFF" d="M533.6,319.4c1.2,0,2.1,0,2.9,0l-1.3-1l-3.8-2.2l-1.1-1.1l-2.1-1v5.4H533.6z"/>
		<polygon fill="#FFFFFF" points="513.7,304.7 514.5,304.7 515.2,304.7 515.8,304.6 516.6,304 517.7,302.9 518.2,302.3 518.5,301.7
			518.5,301.3 518,301 517.8,300.5 517.9,300.2 518.1,299.3 518.1,298.8 517.8,298 517.2,297.5 516,296.5 514.4,294.3 513.5,293.4
			513.5,304.8 		"/>
		<polygon points="301,363.2 304.4,365.3 307.8,367.3 311.3,369.3 314.7,371.3 318.1,373.4 321.5,375.4 324.9,377.5 328.3,379.5
			331.7,381.5 335.1,383.5 338.6,385.6 342,387.6 345.4,389.6 348.8,391.6 352.2,393.7 355.6,395.7 359.1,397.7 361.7,400
			365,402.8 368.2,405.6 371.5,408.5 374.8,411.3 378.5,414.5 382.2,417.7 385.9,420.9 389.5,424.1 389.6,424.1 393.7,427.4
			397.1,430.2 400.5,433 404,435.8 407.4,438.6 411.8,442.2 416.3,445.8 420.7,449.4 425.2,453 429.7,456.6 434.1,460.2
			438.6,463.8 443,467.4 446.7,470.4 450.4,473.4 454.1,476.4 457.8,479.4 460.8,481.8 461.1,481.9 461.3,482 461.6,482.1
			461.8,482.2 465.4,482.5 468.5,482.8 471.6,483 474.7,483.3 477.8,483.6 481.8,484 485.8,484.3 489.7,484.7 493.7,485
			497.7,485.4 501.7,485.8 505.7,486.1 509.7,486.5 512.6,486.7 515.6,487 518.6,487.3 521.5,487.5 525.6,487.9 527.3,487.6
			529,487.2 530.7,486.8 532.4,486.5 539.4,478.7 541.8,474.6 544.3,471.9 544.9,471 546.1,468 549,463.2 549.7,461.5 549.8,461.1
			550,459.7 550.2,459.1 551.6,456.4 554.9,448 556.2,446.1 558.3,444.7 564.5,442.1 566.8,441.9 576.8,441.9 579.1,442.3
			587.5,446.5 587.5,445.5 587.2,445.1 587.3,444.6 587.4,444.1 587.5,443.5 587.5,442.9 587,441.5 587.6,442.3 587.9,443.6
			588,444.9 588.3,446.1 591,444.6 592.5,444.2 594.2,444.2 596,444.6 597.7,445.2 599.8,446.5 601.2,447 602.6,448 605.5,449
			609.8,449.4 610.8,449.2 611.3,448.6 611.1,448.2 610.2,448.2 610.2,448 610.2,448 608.7,447.5 608.1,447.2 607.6,446.7
			607.3,446.5 607.1,446.2 606.8,445.3 606.7,444.7 606,442.5 605.9,442.4 605.7,442 604.9,441.1 604.4,440.1 604.3,439.7
			604.4,439.3 604.7,438.9 605.1,438.5 605.4,438.2 605.5,437.7 605.4,437.2 605.2,436.7 604.9,436.4 603.4,435 602.2,433.6
			601.4,432.3 601,431.9 600.6,431.8 600.1,431.8 598.6,432 598.2,432 597.7,431.9 597.3,431.8 597,431.4 596.8,431 596.5,429
			596.1,428 595.6,427.2 595,426.5 594.6,426.2 594.2,426.1 590,425.5 590,424.1 590,424.1 590.1,402.4 590,401.8 589.6,401.6
			576.8,401.6 577,382.9 582.9,366.8 583.2,365.8 583.1,364.8 582.5,364 581,362.8 580.9,362.7 300.1,362.7 		"/>

			<line fill="none" stroke="#007A3D" stroke-width="0" stroke-linecap="round" stroke-linejoin="round" x1="399" y1="298.5" x2="399" y2="298.5"/>
		<polygon fill="#007A3D" points="307.6,334.7 304.2,338.4 300.8,342.1 304.2,345.8 304.2,345.8 307.6,349.5 311,345.8 314.4,342.1
			311,338.4 		"/>
		<path fill="#007A3D" d="M319.3,312.5c0,0.1,12.9,0.2,28.7,0.2h28.7v-19.5l1.9-1.6l1.9-1.6l1.9,1.3l1.9,1.3v27.2h-68.2v-9.5
			c0-5.2-0.2-9.5-0.5-9.5c-0.6,0-3.6,4.1-4.1,5.5c-0.2,0.6-1.5,1.9-2.9,3c-1.4,1.1-2.9,2.2-3.4,2.6c-0.7,0.6-0.7,0.8,0,2.1
			c0.5,0.8,1.2,2.4,1.7,3.7l0.9,2.2h-5.5c-4.5,0-5.5-0.2-5.5-0.9c0-1.4-2.7-8.5-3.5-9.2c-0.6-0.5-1.1,0-2.2,2.4
			c-1.2,2.3-2.1,3.3-3.9,4.2c-1.3,0.6-2.4,1.5-2.4,2s0.8,1.8,1.8,3c5.1,5.9,3.6,15.1-2.7,17.5c-1.7,0.6-6.6-0.3-9-1.7
			c-1.6-1-1.1,0.4,1.4,3.3c1.3,1.5,3.3,3.1,4.5,3.6l0,0c3.1,1.3,8.5,0.8,10.9-1c2.5-1.9,4.4-5.2,5.5-9.8l1-3.8H393v-39.6l-5.6-4.6
			c-3.1-2.5-6-4.7-6.5-4.9c-0.8-0.2-11.6,8-12.6,9.6c-0.2,0.3-0.4,3.5-0.4,7l0,6.4h-16.4c-9,0-16.3-0.2-16.2-0.5
			c0.1-0.3,6.8-10.1,14.9-21.9c12.3-18,15-21.5,16.1-21.5c2.4-0.1,2.9-0.8,2-2.8c-0.7-1.5-1.4-4.3-2.3-9.3c-0.2-0.9-0.5-1.6-0.7-1.6
			c-0.2,0-5.3,7.3-11.3,16.1c-6,8.8-11.2,16.4-11.5,16.7c-0.3,0.4-1.2,1.6-1.9,2.8c-0.7,1.1-1.5,2.2-1.6,2.4
			c-0.2,0.2-0.9,1.2-1.7,2.4c-0.7,1.1-1.6,2.5-2,3C333.6,291.3,319.3,312.3,319.3,312.5z"/>
		<path fill="#007A3D" d="M420.6,329l0.3-3.3c0.2-1.8,0.7-4.3,1.2-5.6c1.3-3.4,1.1-3.6-1.5-1.9c-2.1,1.4-3,1.5-7.6,1.5h-5.2v-19.3
			c0-20.5-0.1-19.9,2.6-21.7c0.8-0.5,0.5-1-2.1-3.4c-1.7-1.5-4.2-4.1-5.6-5.7c-1.4-1.6-2.8-2.7-3.1-2.5c-0.4,0.3-0.6,9.7-0.6,31.3
			v30.8l10.8-0.2L420.6,329z"/>
		<path fill="#007A3D" d="M530.3,328.8l10.8-0.2l0.3-3.3c0.1-0.5,0.1-1.1,0.3-1.7l-0.6-0.5l-1.6-1.8l-2.5-1.5l-0.5-0.4
			c-0.8,0-1.7,0-2.9,0h-5.4V314l-1.8-0.9l-4.1-1.3l-2.8,0.3V329L530.3,328.8z"/>
		<path fill="#007A3D" d="M487.3,274.8c-1.6,1.1-2.5,3.5-1.3,3.5c0.3,0,0.9,0.4,1.4,0.9c0.7,0.8,0.9,3.5,0.9,20.6v19.6h-7.7v-19.1
			c0-10.5-0.2-19.1-0.4-19.1c-0.2,0-2,1.8-4,3.9c-1.9,2.1-4.3,4.5-5.3,5.1c-2,1.4-2.3,3.2-0.7,3.8c1.4,0.5,1.8,2.1,1.5,6.6l-0.2,3.6
			l-2.8-0.2c-3.7-0.3-7,0.8-9.2,2.9c-2.9,2.8-3.8,5.7-4,14.4l0.1,0l-0.3,7.6h58.2v-22.7l-0.1,0l-0.5-0.5l0-0.6l0.6-0.3v-11.5
			l-0.3-0.3l-0.2-0.7l0-0.8l-0.1-0.9l-0.3-0.9L512,289l-1.3-1.6l-0.1-0.1l-0.1-0.1l-0.2-0.1l-0.2,0l-0.2,0l-0.2,0.1l-0.7,0.7
			l-1.2,0.1l-1.1-0.3l-0.7-0.6l0.6-0.8l1.8-1.1l0.5-0.7l-0.3-1l-0.8-0.6l-0.7-0.7l0.2-1.4l-0.8,0.2l-1.7,0v38.3H497v-26.5
			c0-7,0-13.4-0.1-18.3l-0.1-0.3l-0.5-0.6l-0.6-0.5l-0.5-0.6l-2-3.7c-0.2,0.2-0.4,0.4-0.6,0.6C490.7,271.8,488.3,274.1,487.3,274.8z
			 M471.8,315.5L471.8,315.5v3.9h-7.7v-2c0-3,2.6-5.7,5.5-5.7h2.1V315.5z"/>
		<path fill="#007A3D" d="M483,255.7L483,255.7c1.2,0.9,1.3-0.3,0.3-4c-1.2-4.6-1.9-5.7-3.5-5.5c-0.9,0.1-1.1,0.6-1,1.9
			C478.9,249.7,481.7,254.7,483,255.7z"/>
		<path fill="#007A3D" d="M486.1,258.9l-1.9,2.1c-2.2,2.4-4.6,3.2-8.5,2.5c-2.2-0.3-2.5-0.3-1.9,0.4c0.4,0.4,1.5,1.1,2.5,1.5l0,0
			c3.5,1.4,7.1,0.7,9.5-1.7c1-1,1.4-1.1,3.6-0.6l0.3-0.6l0.3-1.2l0.4-0.9c-0.5-0.1-1.1-0.3-1.7-0.5L486.1,258.9z"/>
	</g>

		<path vector-effect="none" fill="none" stroke="#878787" stroke-width="0.25" stroke-linecap="round" stroke-linejoin="round" stroke-miterlimit="10" d="
		M391,105.1l1.6,0.2l1.7-0.6l1-0.7l1.5-0.6l1.6-0.4l1.2-0.1l0.7,0.2l5.1,2.8l0.3,0.1l0.3,0l0.3-0.1l0.4-0.4l0.3-0.2l0.7-0.1l0.5,0.1
		l1.6,1.2l1.6,0.8l1.8,1.5l0.6,0.3l0.5-0.1l1-0.4l0.5-0.1l0.5,0.1l0.3,0.2l0.7,0.5l1,0.4l0.9,0.1l4-0.3l1,0.1l0.9,0.2l0.4,0.3
		l0.8,0.8l0.3,0.2l0.5-0.1l0.7-0.7l2.1-0.4l1.2-1.4l1.2-1.7l1.4-1.2l1.8-0.3l2,0.3l3.7,1.5l0.9,0.6l0.6,0.7l0.5,0.8l0.3,1.1l0.2,1.1
		l0,0.6l0,0.5l-0.3,0.6l-0.4,0.2l-0.5,0.1l-0.5,0.3l-0.7,0.8l-0.3,1l0,1l0.3,1l1.6,3.5l0.3,0.5l0.3,0.3l1.6,0.4l0.5,0l0.4-0.4
		l0.4-0.8l0,0h0l0,0l0.6-1l0.1-0.8l0.3-0.5l3.3-1.1l1-0.6l1-0.8l0.9-1.2l1.4-1.3l1.5-1.1l1.2-0.6l0.7,0l4.1,0.6l0.8,0.4l0.5,0.8
		l-0.5,1.4v0.5l0.3,0.9l0.2,0.3l0.3,0.1l0.3,0.1l0.3,0.2l0.1,0.3l0.2,0.7l0.2,0.2l0.4,0.1l0.8-0.2l0.4,0l0.3,0.2l0.4,0.5l0.8,0.4
		l0.3,0.4l-0.1,0.5l-0.4,0.5l-0.2,1.3l0.2,0.9l0.4,0.8l0.2,1.1l-0.2,1.2l-0.5,0.9l-1.4,1.7l-0.4,1.2l0.3,0.8l0.8,0.5l1,0.2l1.2-0.1
		l0.6,0.1l0.5,0.4l0.4,0.4l0.4,0.3l0.5,0.2l0.5,0l0.7,0.4l0.6,0.8l0.9,1.7l0.4,1l-0.1,0.9l-0.8,1.8l-0.4,1.6l0,1l-0.1,0.1l-0.5,0.2
		l-0.2,0.1l-0.1,0.8l0.6,0.7l0.8,0.7l0.5,0.5l0,0.7l0.3,0.4l0.3,0.3l0.3,0.5l0.2,0.6l0.1,0.5l0.1,0.4l0.4,0.5l1,0.5l1.1-0.1l2.2-0.9
		l1,0.1l0.7,0.9l0.4,1.2l0.2,1.1l0.1,2.1l0.3,0.8l0.7,0.9l-0.9,0.6l0.2,0.6l0.7,0.6l0.6,0.6l0.2,0.9l-0.1,2.2l0.2,1l1.2,1.6l0.5,1
		l-0.2,1l-0.5,0.8l-0.5,1l-0.2,1l0.2,0.8v0l0,0l0,0l0,0l0.7,0.7l0.8,0.1l0.9-0.3l0.8-0.5v0h0l0,0h0l0.7-0.2l1.3-0.6l1,0l2.4,0.9
		l1.4,1.3l0.5,0.3l1.1,0.2l1.2,1.1l1.8,2.6l1,2.5l0.5,0.6l0.7,0.2l1.5-0.4l0.4,0.1l0.6,0.4l0.8,0l0.8-0.4l0.9-0.8l0.4,0l0.4,0.1
		l0.4,0l1.3-0.4l2.5,0.1l0.8-0.3l0.8-0.4l0.6-0.2l0.6,0l1.2,0.5l0.3,0l0.2,0.2l0.2,1l0.2,0.3l0.2,0.3l0.3,0.3l0.8,0.3l0.8,0l1.7-0.4
		l0.7-0.3l0.7-0.5l0.7-0.3l0.8,0.1l0.6,0.5l0.3,0.6l-0.1,0.7l-0.5,0.8l-0.6,0.6l-1.2,0.8l-0.5,0.8l-0.6,0.6l-0.8,0.1l-1.5-0.1l-2,1
		l-0.8,0.2l-2.7-0.1l-0.8,0.3l-0.5,0.5l-0.3,0.8l-0.1,0.8v0.8l0.4,1.8l-0.1,0.7l-1.2-0.4h-0.2l-0.2,0l0.3,1l0.4,0.9l0.1,0.2l0.1,0.2
		l0,0.2l-0.2,0.2l-0.3,0.2l-0.2,0.3l-0.1,0.4l0,0.4l0.5,1.4l2.5,4l2.1,1.9l0.9,1.1l0.3,1.4l-0.3,0.7l-0.5,0.6l-0.3,0.6l0.1,0.8
		l0.5,0.4l1.5,0l0.6,0.5l-0.1,1.2l-0.8,1.4l-0.5,1.3l0.8,0.9l-0.3,0.6l-0.4,0.2l-0.5,0.1l-1,0.3l-0.7-0.2l-0.4,0l-1,0.6l-0.6,0.5
		l-0.6,0.2l-1.2-0.5l-0.5,0l-0.4-0.2l-0.8-0.5l-0.6-0.2l-0.3,0.1l-0.5,0.9l0,0.2l0.1,0.6l-0.1,0.2l-0.2,0.1l-0.5,0.1l-0.3,0.1
		l-0.4,0.4l-0.2,0.6v0.6l0.1,0.6v0l0.4,1.2l-0.1,0.9l-0.3,0.9l-0.3,1.2l-0.6,0.8l-1.1-0.4l-1.2-0.6l-0.9,0l-0.2,0.9l0.1,1.2
		l-0.2,1.1l-1.1,0.8l-1.1,0.1l-0.5,0.2l-0.4,0.5l-0.1,0.6l0.1,1l-0.1,0.5l-1.1,1.2l-0.3,0.8l0.6,0.7l0.3,0.2l0.4,0.3l0.3,0.3
		l0.1,0.4l0.1,0.5l0.2,0.3l0.2,0.2l0.2,0.3l0.1,0.9l0,0.9l0.1,0.8l0.4,0.6l0.1,0.3l0,0.5l-0.1,0.5l-0.2,0.3l-0.2,0l-0.9-0.3
		l-2.7-0.2l-1.2-0.3l-1.3-0.7l-1.5-0.4l-0.2,1.3l0.3,1.9l-0.1,1.4l-0.2,0.4l-0.2,0.3l-0.3,0.3l-0.3,0.2l-2,0.5l-0.4,0.6l1.2,3.9
		l0.5,1l0.7,0.5l0.8-0.6h0.9l0.8,0.5l0.6,0.9l0.2,1.1l-0.1,1.2l-0.5,2.2l-0.2,0.4l-0.5,0.9l-0.1,0.4l0.2,0.5l0.3,0.4l0.2,0.4v0.5
		l-0.4,0.5l-1.6,1.3l-0.6,0.6l-0.9,0.8l-0.4,1l-0.3,1.2l-0.6,1.3l0,0h0l-0.3,0.3l-0.4,0.2l-0.8,0.4l0.8,1.1l0.9,0.5l1,0.1l1.1-0.2
		l0.1,0l0.1,0l0.1,0.1l3.5,6.3l0.5,0.6l0.6,0.5l0.5,0.6l0.3,0.8l0.2,0.9l0.3,0.8l0.4,0.8l0.5,0.8l0.6,0.6l1.8,1.3l0.3,0.7l0,1.7
		l0.3,0.3l0.7-0.2l0.6-0.4l1.1-1.1l0.7-0.3l1.9,0l0.8-0.2l-0.2,1.4l0.7,0.7l0.8,0.6l0.3,1l-0.5,0.7l-1.8,1.1l-0.6,0.8l0.7,0.6
		l1.1,0.3l1.2-0.1l0.7-0.7l0.2-0.1l0.2,0l0.2,0l0.2,0.1l0.1,0.1l0.1,0.1l1.3,1.6l0.5,0.8l0.3,0.9l0.1,0.9l0,0.8l0.2,0.7l1.3,1.3
		l1.5,2.2l1.2,1l0.5,0.6l0.3,0.8l0,0.5l-0.2,0.9l0,0.4l0.2,0.4l0.4,0.3l0,0.4l-0.3,0.6l-0.5,0.7l-1,1l-0.8,0.6l-0.6,0.1l-0.7,0
		l-0.8,0.1l-0.8,0.4l0,0.6l0.5,0.5l1.7,0.2l0.7,0.3l0.6,0.5l0.2,0.6l-0.3,0.8l-0.6,0.6l-0.6,0.5l-0.5,0.6v0l0.8,1.8l2.3,0.3l4.6-0.5
		l4.1,1.3l3.9,1.9l1.1,1.1l3.8,2.2l1.8,1.4l2.5,1.5l1.6,1.8l11.7,10.2l0,0l0,0l1.2,0.9l1.2,0.6l1.2,0.3l1.4-0.1l0.7-0.3l1.8-1l0.5,0
		l2.2,0.7l0.8,0.4l0.5,0.6l0.4,0.7l0.7,0.8l1,0.8l0.2,0.3l0.1,0.5l-0.1,0.3l-0.2,0.3l-0.3,0.9l-0.2,0.2l0,0.2l0.3,0.6l0.2,0.3
		l1.2,1.1l0.2,0.2l0.2,0.3l0.7,1l0.3,0.3l0.4,0.2l0.2,0.6l0.8,0.6l0.2,0.6l-0.1,0.6l-0.2,0.5l-0.2,0.4l-0.2,0.5l-0.1,0.6l0,0.4
		l0.3,0.2l0.6,0.2l0.5,0.3l0.3,0.5l0.3,0.4l0.6,0.1l0.8,0.3l0.7,1l0.9,2l0.6,0.7l1.4,0.7l0.4,0.8l0,0l0.2,0.8l1.4,2.5l0.3,0.4
		l0.7,0.5l0.3,0.3l0.2,0.4l0.2,0.8l0.1,0.3l0.6,0.7l1.5,1.2l0.5,0.8l0.1,1l-0.2,1l-5.9,16.1l-0.2,18.7l12.8,0l0.4,0.3l0.1,0.6
		l-0.1,21.7v0l0.1,1.4l4.1,0.6l0.4,0.2l0.4,0.3l0.6,0.7l0.5,0.9l0.3,1l0.3,2l0.2,0.4l0.3,0.3l0.4,0.2l0.5,0.1l0.5,0l1.4-0.2l0.5,0
		l0.5,0.2l0.4,0.3l0.8,1.3l1.3,1.4l1.5,1.4l0.3,0.4l0.2,0.5l0.1,0.5l-0.1,0.5l-0.3,0.4l-0.4,0.3l-0.3,0.4l-0.1,0.5l0.1,0.3l0.5,1
		l0.8,0.9l0.2,0.5l0.1,0.1l0.7,2.2l0.1,0.6l0.3,0.9l0.2,0.3l0.3,0.3l0.5,0.4l0.6,0.4l1.5,0.5l0,0v0.2l0.9,0l0.2,0.4l-0.5,0.5l-1,0.3
		l-4.2-0.4l-3-1l-1.4-1l-1.3-0.4l-2.2-1.4l-1.7-0.6l-1.8-0.3l-1.7,0l-1.5,0.4l-2.7,1.5l-0.3-1.2l-0.1-1.3l-0.3-1.2l-0.7-0.8l0.5,1.5
		l0,0.5l-0.1,0.6l-0.2,0.5l0,0.5l0.3,0.4l0,1.1l-8.4-4.2l-2.2-0.4h-10.1l-2.2,0.3l-6.3,2.6l-2,1.4l-1.3,1.9l-3.3,8.4l-1.4,2.6
		l-0.2,0.6l-0.1,1.3l-0.1,0.4l-0.8,1.7l-2.9,4.8l-1.1,3l-0.6,0.9l-2.5,2.7l-2.4,4.1l-7,7.8l-1.7,0.4l-1.7,0.4l-1.7,0.4l-1.7,0.4
		l-4.1-0.4l-3-0.3l-3-0.3l-3-0.3l-3-0.3l-4-0.4l-4-0.4l-4-0.4l-4-0.4l-4-0.4l-4-0.4l-4-0.4l-4-0.4l-3.1-0.3l-3.1-0.3l-3.1-0.3
		l-3.1-0.3l-3.6-0.3l-0.3-0.1l-0.2-0.1l-0.3-0.1l-0.3-0.1l-3-2.4l-3.7-3l-3.7-3l-3.7-3l-3.7-3l-4.5-3.6l-4.5-3.6l-4.5-3.6l-4.4-3.6
		l-4.5-3.6l-4.5-3.6l-4.5-3.6l-4.5-3.6l-3.4-2.8l-3.4-2.8l-3.4-2.8l-3.4-2.8l-4.1-3.3l0,0l0,0l0,0l-3.7-3.2l-3.7-3.2l-3.7-3.2
		l-3.7-3.2l-3.3-2.8l-3.3-2.8l-3.3-2.8l-3.3-2.8l-2.6-2.2l-3.5-2.1l-3.4-2l-3.4-2l-3.4-2l-3.4-2l-3.4-2l-3.4-2l-3.4-2l-3.4-2l-3.4-2
		l-3.4-2l-3.4-2l-3.4-2l-3.4-2l-3.4-2l-3.4-2l-3.4-2l-4-2.4l-2.2-1.3l-2.1-0.8l-13.3-2.6h0l0,0h0l-3.1-0.5l-7.7-1.3L261,353
		l-7.7-1.3l-7.7-1.3l-0.4,0.1v-0.3l4.7-4l1-1.4l-0.8-3.1l-0.6-1.4l-0.8-0.5l-7.4,2l-0.4-0.2l-0.3-0.7l-1.9-6.6l0-0.1l0-0.1l0,0l0,0
		l3-0.9l-6.2-22.9l-1.7-6.3l-3.1-11.2l4.3-2.6l4.3-2.6l4.3-2.6l4.3-2.6l4.3-2.6l4.3-2.6l4.3-2.6l4.3-2.6l4.3-2.6l4.3-2.6l4.3-2.6
		l4.3-2.6l4.3-2.6l4.3-2.6l4.3-2.6l4.3-2.6l5.7-3.4l9.6-2.6l1.1-0.7l0.9-1.2l1.4-3.1l0,0l6.7-12.9l0.3-1.2l0.1-1.2l-0.3-8.2
		l-0.3-8.9l0.4-2.9l1.6-5.9l0.3-4.6l0.4-1.4l0,0h0v0l3.1-4.7l0.6-1.4l0.2-1.5l-0.2-6.6l-0.2-1.6l-0.4-1.5l-3-6.5v0l0,0l-1-2.3
		l-0.1-0.8l0-0.8l1.3-12l0.3-1.3l3.4-6.7l0,0l0,0v0l0.8-1.1l1.1-0.5l2.5-0.4l12.1-2.6l1.1-0.5l1-0.9l5.2-5.6l7.8-8.3l4-4.3h0l0,0
		l0,0l2.5-2.4l1.2-0.9l0-0.7l-0.2-0.5l-0.3-0.5l-0.3-0.6l1.7-0.2l2.2-0.7l3.3-0.6l0.6-0.3l0.1-0.3l0.5-1.3l4.9-7.1l0.2-0.4l0-0.3
		l0.1-0.3l0.3-0.4l0.3-0.2l1.9-0.8l0.3,0l0.5,0.1l0.3,0.3l0.2,0.8l0.3,0.2L391,105.1"/>
</g>

</svg>
