<?xml version="1.0" encoding="utf-8"?>

<svg version="1.2" baseProfile="tiny" xmlns="http://www.w3.org/2000/svg" xmlns:xlink="http://www.w3.org/1999/xlink" x="0px"
	 y="0px" viewBox="222.5 118.7 396.6 359.2" xml:space="preserve">

<g id="Iran">
	<g>
		<path fill="#239F40" d="M228.5,128.3l-0.4,0.3l-1.1,0.5l-0.4,0.1l-0.5,0l-1.4-0.7l-0.5-0.1l-1.1,0.3l-0.5,0.1l-0.5-0.1l-0.3,0
			l-0.3,0.1l-0.4,0.3l-0.2,0.3l0.1,0.3l0.5,0.6l0.1,0.3l0.1,0.6l0.2,0.5l0,0.2l0,0.2l0,0.2l0.1,0.2l0.3,0.5l0,0.2l-0.1,0.5l0,0.2
			l0.5,0.4l0.9,0.5l0.8,0.6l0.2,0.7l-0.4,0.8l-0.1,0.4l0.2,1l-0.2,0.3l-0.3,0.3l-0.3,0.5v0l0.1,0.2l0.1,0.2l0.1,0.4l0.1,0.2l0.2,0.1
			l0.2,0.2l0,0.2l0,0.2l0.1,0.2l0.1,0.2l0.2,0.6l0.3,0.4l0.3,0.3l1.1,0.5l0.1,0.8l-0.6,1.9l-0.1,0.5l0,0.3l0.1,0.3l0.1,0.5l-0.1,0.2
			l-0.2,0.2l-0.1,0.2l0.3,0.1l0.4,0.1l0.2,0.1l0.2,0.2l0.1,0.4v0.5l-0.1,1l0.2,1.3l0,0.4l-0.3,1.1v0.3l0.1,0.7l0,0.2l-0.1,0.4
			l0.1,0.2l0.2,0.1l0.3,0.1l1,0.2l0.7-0.4l0.3-0.1l0.3,0.1l0.3,0.2l0.3,0.4l0.2,0.4l0,0.4l-0.5,0.7l-0.7,0.6l-0.6,0.7l0.1,1.3
			l-0.1,0.5l-0.1,0.5l-0.1,0.4l-0.2,0.2l-0.4,0.2l-0.2,0.1l0,0.2l0.2,0.5l-0.1,0.2l-0.4,0.2l-0.3,0.2l-0.2,0.3l-0.2,0.5l-0.2,0.4
			l-0.5,0.6l-0.2,0.4v0l-0.2,0.3l-0.1,0.3l0,0.3l0.1,0.4l0,0.3l-0.2,0.3l-0.2,0.3l-0.1,0.3l0.4,0.6l0.7,0.1l1.3-0.2l0.2,0.1l0.7,0.4
			l0.2,0.2l0.1,0.2l0.1,0.3l0.1,0.3l0.2,0.3l0.2,0.1l0.1-0.1l0.1,0l0.2,0.1l0,0.1l-0.1,0.4l0,0.2l0.2,0.3l0.3,0l0.3-0.1l0.3-0.1
			l0.6-0.1l0.6,0.3l0.5,0.4l0.8,0.9l0,0.2l-0.2,0.3L232,174l-0.2,0.2l-0.1,0.8l0.4,0.5l0.5,0.4l0.1,0.4l-0.2,0.5l-0.1,0.6l0,0.6
			l0.1,0.5v0l0.1,0.4l-0.3,0.8l0.1,0.4l0.3,0.2l0.8,0.1l0.3,0.2l0.3,0.7l0.2,0.2l0.7-0.1l0.2,0.2l0.1,0.4l0.2,0.3l1.2,0.8l0.5,0.5
			l-0.1,0.8l-0.2,0.3l-0.3,0.2l-0.3,0.2l-0.1,0.5l0.1,0.5l0.2,0.4l0.1,0.4l-0.1,0.5l-0.3,0.7v0.3l0.2,0.5l0.1,0.2l0.2,0.1l0.2,0.1
			l0.2,0.1l0.1,0.2l0.1,0.4l0.1,0.1l0.2,0l0.4-0.1l0.2,0l0.1,0.1l0.2,0.3l0.4,0.2l0.1,0.2l0,0.3l-0.2,0.3l-0.1,0.7l0.1,0.5l0.2,0.4
			l0.1,0.6l-0.1,0.6l-0.3,0.5l-0.7,0.9l-0.2,0.6l0.2,0.4l0.4,0.3l0.5,0.1l0.6,0l0.3,0l0.3,0.2l0.2,0.2l0.2,0.2l0.2,0.1l0.3,0
			l0.3,0.2l0.3,0.4l0.5,0.9l0.2,0.6l0,0.5l-0.4,0.9l-0.2,0.9l0,0.5l-0.1,0l-0.3,0.1l-0.1,0.1l0,0.4l0.3,0.4l0.4,0.3l0.3,0.3l0,0.4
			l0.1,0.2l0.2,0.2l0.2,0.2l0.1,0.3l0,0.3l0.1,0.2l0.2,0.3l0.6,0.3l0.6-0.1l1.2-0.5l0.5,0l0.4,0.5l0.2,0.6l0.1,0.6l0.1,1.1l0.1,0.4
			l0.4,0.5l-0.5,0.3l0.1,0.3l0.4,0.3l0.3,0.3l0.1,0.5l-0.1,1.2l0.1,0.5l0.6,0.8l0.3,0.5l-0.1,0.5l-0.3,0.4l-0.1,0.3h9.8v1.7h-4.8
			l0.2,0.1l0.3,0.2l0.6,0.1l0.6,0.6l1,1.4l0.5,1.3l0.3,0.3l0.2,0.1h0.4l0.6-0.2l0.2,0l0.2,0.1h0.7l0.3-0.1l0.5-0.4l0.2,0l0.2,0.1
			l0.2,0l0.7-0.2l1.1,0.1v-5.1h1.7v4.7l0.6,0.2l0.1,0l0.1,0.1l0.1,0.5l0.1,0.2l0.1,0.1l0.2,0.1l0.4,0.2l0.4,0l0.9-0.2l0.4-0.1
			l0.4-0.2l0.2-0.1v-5.4h1.7v11.5h4v-11.5h1.7v13.2h-13.2v-1.4l-0.6-0.2h-0.1l-0.1,0l0.2,0.5l0.2,0.5l0.1,0.1l0,0.1l0,0.1l-0.1,0.1
			l-0.2,0.1l-0.1,0.2l-0.1,0.2l0,0.2l0.3,0.7l1.3,2.1l1.1,1l0.2,0.2h10.9v1.7h4v-1.7h24.6v1.7h4v-1.7h24.6v1.7h4v-1.7h24.6v1.7h4
			v-1.7h24.6v1.7h4v-1.7H418v1.7h4v-1.7h24.6v1.7h4v-1.7h24.6v1.7h4v-1.7h24.6v1.7h4v-1.7h24.6v1.7h4v-1.7h24.6v1.7h4v-1.7h10.1
			l-0.1-0.9l0.1-0.5l0.1-0.3l0.4-0.6l0.1-0.3l0.2-0.8l0.2-0.5l0.5-0.6l0.1-0.2h-0.4v-2.9l-0.3-0.4l-0.3-0.6l-0.1-0.7l0.1-0.2
			l0.3-0.3l0.1-0.2l0-0.4l0-0.1h-9.6v5.7h-1.7v-7.5h11.4l0-0.3l-0.1-0.4l-0.1-0.9l-0.1-0.5l-0.2-0.4l-0.2-0.4l-0.3-0.4l-0.4-0.3
			l-0.4-0.2l-0.5-0.1l-0.3-0.1l0,0h-8.8v-1.7h9.7l0-0.2l0.1-0.1l0.2-0.1l0.2-0.1l0.1-0.3l0-0.2l0-0.3l0.1-0.2l0.1-0.2l0.2-0.3l0-0.2
			l0-0.1l-0.1-0.8l-0.3-1.6l-0.3-0.5l-0.1-0.2l0-0.6l0-0.3l-0.1-0.3l-0.1-0.1l-0.1-0.2l-0.2-0.1l-0.2-0.1l0.1-0.2l0-0.1l0.1-0.1
			l-0.3-0.7l0.1-1.2l0.4-2.1l-0.1-0.4l0-0.3l0.1-0.3l0.1-0.2l0.1-0.2l0.1-0.3l0-0.3l0-0.3L575,202l-0.2-0.4l-0.2-0.9l-0.8-0.1
			l-1-0.2l-2.1,0l-2.4,0l-4.4,0.1l-2.9,0.1l-3.3,0.1l-0.7-0.4l-0.4-0.7L556,198l-0.4-0.7l-2.2-2.7l-1-1.5l-0.8-1.6l-0.6-0.8
			l-0.8-0.3l-1.7-0.3l-0.8-0.4l-1.4-1.1l-3-1l-0.2,0l-0.2,0.1l-0.2,0.4l-0.1,0.2l-0.2,0l-0.3-0.2l-0.1-0.4l-0.1-0.5l-0.1-0.4
			l-0.3-0.4l-0.3-0.1l-0.7,0.3l-0.2,0l-0.2-0.1l-0.2-0.1l-0.1-0.1l-0.3-0.1l-0.1-0.2l0.1-0.2l0-0.2l0-0.1l0.1-0.1l0-0.1l-0.1-0.2
			l-0.4-0.4l-1.3-1.1l-0.2-0.4l-0.4-1.8l0-0.5l0.1-0.3l0.1-0.3l0.1-0.2l-0.1-0.2l-0.1-0.3l0.1-0.6l-0.1-0.3l-0.4-0.6l-0.4-0.4
			l-0.5-0.1l-1.2,0.5l-0.4,0l-2.8-2l-0.7-0.7l-0.2-0.1l-0.6-0.1l-0.3-0.1l-0.3-0.2l-0.8-0.4l-1.6-0.4l-1.2-0.7l-0.1,0.2l-0.1,0.4
			l-0.3,0.3l-0.2,0.1l-0.2,0l-0.4-0.1h-0.2l-0.1,0.1l-0.1,0.2l-0.2,0.1l-0.5,0l-0.5-0.1l-0.9-0.4l-1-0.9l-0.3-0.2l-0.4,0l-0.3,0.2
			l-0.2,0.4l-0.2,0.4l-0.3,0.4l-0.4,0.2l-1.9,0.2l-0.3-0.1l-0.5-0.4l-0.3-0.1l-1.6-0.2l-0.4-0.1l-0.3-0.3l-0.1-0.3l0-0.4l-0.1-0.5
			l-0.1-0.2l-0.3-0.6l0-0.2l0-0.2v-0.2l-0.2-0.2l-0.3-0.2l-0.3-0.1l-0.7-0.1l-1.4-0.3L507,169l-0.7-0.2l-0.3,0l-0.3,0.1l-0.3,0
			l-0.3-0.1l-0.1-0.2l-0.2-0.4l-0.1-0.1l-0.2,0l-0.3,0.1l-0.2,0l-0.3-0.2l-0.3-0.2l-0.3-0.2l-0.3,0l-0.3,0.1l-1,0l-1.1-0.3l-0.3,0
			l-0.4,0.1l-0.3,0.1l-0.3,0l-3-1.2l-0.5-0.7l0.4-1.4l0.1-0.4l-0.1-0.5l-0.4-0.6l-0.2-0.8l-0.7-0.7l-0.2-0.4l-0.4-0.9l-0.5-0.8
			l-0.1-0.2l0-0.2l-0.1-0.2l-0.2-0.1l-0.4-0.2l-0.2,0l-0.2,0l-0.4,0.2l-0.2,0.3l-0.4,0.7l-0.2,0.3l-0.7,0.4l-0.3,0.3l-0.4,0.2
			l-0.4-0.1l-0.8-0.3l-3.1-0.6l-0.3-0.1l-0.7-0.4l-0.8-0.7l-0.2,0l-1,0.2l-1.7,0.7l-0.3,0.1l-0.3-0.1l-0.3-0.2l-0.3-0.2l-0.3-0.1
			l-1.9,0.1l-0.7,0.3l-0.7,0.5l-1.3,1.2l-0.1,0.4l0.6,0.6l0.1,0.5l-0.1,0.5l-0.2,0.4l-0.3,0.2l-1.8,0.3l-0.3,0l-0.7-0.3l-0.8-0.1
			l-2.9,0.5l-0.3,0l-0.3-0.1l-0.6-0.3l-0.3-0.1l-1.1,0l-0.3-0.1l-0.8-0.5l-1.3-0.3l-0.6,0l-4.1,0.9l-1.3,0.1l-0.5,0.2l-1.5,1.2
			l-0.4,0.2l-0.4,0.3l-0.2,0l-0.9,0.3l-0.4,0.2l-0.2,0.4l-0.3,0.1l-1.2,0.2l-0.4,0.1l-0.2,0.2l-0.2,0.5l-0.2,0.2l-0.2,0.1l-0.3,0
			l-0.2,0.1l-0.1,0.4l-0.2,0.3l-1,1.1l-3.1,2.1l-0.6,0.7l-0.3,0.4l-0.1,0.4l-0.1,0.5l-0.3,0.8l0,0.5l0.1,0.1l0.2,0.2l0.1,0.2l0,0.2
			l0,0.6l-0.1,0.4l-0.3,0.7l-0.1,0.4L443,178l-0.5,0.4l-1,0.6l-0.3,0.2l-0.4,0.2l-0.5,0.5l-0.3,0.1l-0.5,0l-1.3-0.3l-0.5,0.1l-3.5,2
			l-0.7,0.2h-0.5l-0.5-0.1l-0.4,0l-0.4,0.3l-0.4,0.4l-0.4,0.2l-0.4,0l-5.6-0.5l0.2,2.2l0.1,0.4l0.6,1.7l0.5,2.2l0.3,0.9l0.5,0.8
			l-0.5,0.9l-0.1,0.4l0.4,0.2l0.3,0.2l0.1,0.4l0,2.7l-0.1,0.4l-0.2,0.2l-2.6,0.7l-0.4-0.1l-0.3-0.2l-3.2-0.3l-0.8-0.4l-0.5-0.7
			l0.2,0l0.4-0.1l-0.7,0l-0.3-0.1l-0.2-0.3h1.1l1.2,0.2l0.3-0.1l0.6-0.2l0.3,0l0.6,0.2l0.3,0l0.3-0.1l0.9-0.3l1.5-0.2l1.2-0.4l0-1
			l-1,0.8l-1.5,0.4l-8.1,0.5l-0.9,0.2l-6.8,1.5l-3.4,1l-3.5,1.1l-3.5,0.7l-3.7,0.7l-3.5,0.9l-3.4,1.2l-3.8,0.5L380,201l-3.8-0.7
			l-3.7-1.1l-5.8-1.1l-1.7-0.8l-3-2.1l-3.2-1.8l-0.3-0.3l-0.6-0.7l-0.3-0.1l-0.4-0.1l-2.3-1.5l-0.4-0.1l-0.3-0.2l-1-1.2l-1.5-1.1
			l-0.7-0.7l-0.6-1l-0.5-1.4l-0.3-0.5l-0.2-0.4l-0.3-0.9l-0.2-0.4l0.1-0.9l-0.7-0.6l-1-0.4l-2.7-0.6l-1.7-0.7l0.2-0.2l0.1,0l0.2,0.1
			l0.2,0l-0.7-0.4l-0.7,0.1l-0.7,0.3l-0.9,0.1l-7.9-1.1l-1.6-0.5l-3.3-1.7l-1.5-1.1l-1.4-1.4l-1-1.6l-0.4-1l-0.2-1l0-0.2l0.1-0.2
			l0-0.3l-0.7-1.2l-0.2-0.4l-0.1-0.6l0-0.6l0.2-0.5l-0.9-3l-0.3-3.2l-0.4-1l0-1.4l-0.1-0.6l0.2-0.8l-0.1-2.3l-1.3-0.3l-0.7,0
			l-0.5,0.3l-0.4,0.4l-0.5,0.3l-0.6,0.2l-0.5,0.1l-1.1-0.1l-0.7-0.6l-0.6-0.9l-0.8-1l-0.3-0.4l-0.3-0.4l-0.3-0.5l-0.3-0.3l-0.3-0.4
			l-0.1-0.7l-0.2-0.6h-0.5l-1,0.5l-0.6,0l-0.4-0.4l-0.3-0.5l-1-0.8l0-0.4l0.1-0.5l-0.2-0.6l-0.3-0.2l-2.7-1.3l-1.3-1.1l-0.4-0.8
			l0-1.1l0.2-0.3l1.1-0.7l0.1-0.2l0-0.2l0.1-0.2l3.8-0.7l0.8-0.5v0l0,0v0l0.2-0.3l0.2-0.3l0.1-0.4l0-0.4l-0.1-0.3l-0.6-1.3l-0.3-0.3
			l-1.2-0.5l-1.2-1.1l-0.5-0.7l-0.3-0.7l0-0.9l0.4-0.8l0.6-0.6l0.7-0.4l1.3-0.3l1.1-0.7l0.8-0.2l-0.5-1l-0.6-0.8l-1.4-1.3l-3.5-4.2
			l-1.3-1.2l-0.4-0.3l-0.3-0.1l-0.2,0.4l-0.2,0.2l-0.3,0.1l-1.6,0l-0.5,0.1l-0.4,0.3l-1.2,1.2l-2.8,1.6l-1.1,1.1l-0.3,0.2l-0.5,0.1
			l-1.4,0.5l-0.9,0.5l-0.7,0.6l-1,1.3l-0.7,0.7l-0.9,0.5l-2.1,0.8l-1,0.6l-0.2,0.2l-0.1,0.3l-0.7,1.2l-0.3,1l-0.1,0.2l-0.2,0.3
			l-1.4,0.8l-0.3,0l-0.3-0.1l-0.6-0.3l-0.3,0l-0.3,0.2l-0.3,0.3l-0.3,0.3l-0.5,0.9l-0.1,0.2l-0.2,0.1l-0.3,0.2l-0.2,0.1l-0.3,0.4
			l-0.3,0.8l-0.3,0.3l-1.2,0.6l-0.4,0.3l-0.3,0.4l-0.6,1.2l-0.2,0.4l-0.3,0.3l-0.3,0.3l-0.3,0.2l-0.4,0.2l-0.4,0l-0.4-0.1l-2.2-1
			l-0.3-0.1l-0.2,0l-0.5,0.2l-0.8,0l-0.3,0.1l-0.4,0.2l-1.1,0.8l-0.4,0.2l-1.4,0.2l-0.2,0l-1.2-0.3l-1.4-0.6l-4.3-0.9l-1.5-0.6
			l-1.8,0l-1.2-0.3l-0.6,0l-0.3-0.1l-0.4-0.2l-0.6-0.2l-0.5-0.2l-0.4-0.3l-0.2-0.3l0-0.3l0.1-0.2l0.1-0.2l0-0.3l-0.1-0.2l-0.5-0.2
			l-0.2-0.1l-0.1-0.2l-0.2-0.6l-0.1-0.2l-0.2-0.2l-0.2-0.1l-0.2-0.1l-0.1-0.3l0.2-0.4l-0.1-0.3l-0.3-0.2l-0.3-0.1l-0.2-0.1l0-0.2
			l0.1-0.2l-0.1-0.2l-0.2,0l-0.2,0.1l-0.1,0.1l-0.1,0l-2.2-0.7l-0.5,0.2l-0.1-0.4l-0.2-1.3l-0.1-0.3l-0.2-0.3l-0.5-1.1L243,130
			l-0.2-0.1l-0.2-0.3l-0.2-0.3l-0.1-0.2l-0.1-0.1l-0.7-0.5l-0.1-0.1l0-0.1l-0.1-0.1l-0.2,0l-0.2,0l-0.1,0l-0.5-0.4l-0.1-0.2l0.2-0.3
			l-0.4-0.4l-0.3-0.5l-0.6-2.6l-0.2-0.6l-0.4-0.3l0.1-0.1l0.1-0.1l-0.5,0l-0.4-0.1l-0.4-0.2l-0.1-0.1l-1.7-1.2l-0.4-0.3l-1.2-0.6
			l-0.3-0.3L233,119l-0.3-0.2l-0.5,0.2l-2.2,1.8l-0.1,0.3l0.1,0.9l0,0.4l-0.1,0.3l-0.7,1.4l-0.1,0.4l0,0.4l0,0.4l0.1,0.3l0,0.3
			l-0.2,0.3v0l-0.1,0.6l0.1,0.5l0,0.5L228.5,128.3z M515.3,229.1h-1.7l0-1.7h1.7V229.1z M547.9,221.7v-5.7h1.7v11.5h4v-11.5h1.7
			v11.5h4v-11.5h1.7v13.2h-13.2v-5.7h-9.7v4h5.7v1.7h-7.4v-7.5H547.9z M507.9,215.9h36.1v1.7h-36.1V215.9z M507.9,221.7H521v5.7h9.7
			v-4H525v-1.7h7.4v7.5h-13.2v-5.7h-9.7v5.7h-1.7V221.7z M458.1,229.1h-1.7l0-1.7h1.7V229.1z M490.7,221.7v-5.7h1.7v11.5h4v-11.5
			h1.7v11.5h4v-11.5h1.7v13.2h-13.2v-5.7H481v4h5.7v1.7h-7.4v-7.5H490.7z M450.6,215.9h36.1v1.7h-36.1V215.9z M450.6,221.7h13.2v5.7
			h9.7v-4h-5.7v-1.7h7.4v7.5h-13.2v-5.7h-9.7v5.7h-1.7V221.7z M400.8,229.1h-1.7l0-1.7h1.7V229.1z M433.5,221.7v-5.7h1.7v11.5h4
			v-11.5h1.7v11.5h4v-11.5h1.7v13.2h-13.2v-5.7h-9.7v4h5.7v1.7H422v-7.5H433.5z M393.4,215.9h36.1v1.7h-36.1V215.9z M393.4,221.7
			h13.2v5.7h9.7v-4h-5.7v-1.7h7.4v7.5h-13.2v-5.7h-9.7v5.7h-1.7V221.7z M343.6,229.1h-1.7l0-1.7h1.7V229.1z M376.2,221.7v-5.7h1.7
			v11.5h4v-11.5h1.7v11.5h4v-11.5h1.7v13.2h-13.2v-5.7h-9.7v4h5.7v1.7h-7.4v-7.5H376.2z M336.1,215.9h36.1v1.7h-36.1V215.9z
			 M336.1,221.7h13.2v5.7h9.7v-4h-5.7v-1.7h7.4v7.5h-13.2v-5.7h-9.7v5.7h-1.7V221.7z M286.3,229.1h-1.7l0-1.7h1.7V229.1z M319,221.7
			v-5.7h1.7v11.5h4v-11.5h1.7v11.5h4v-11.5h1.7v13.2H319v-5.7h-9.7v4h5.7v1.7h-7.4v-7.5H319z M278.9,215.9H315v1.7h-36.1V215.9z
			 M278.9,221.7h13.2v5.7h9.7v-4h-5.7v-1.7h7.4v7.5h-13.2v-5.7h-9.7v5.7h-1.7V221.7z"/>
		<polygon fill="#239F40" points="267.4,227.4 267.4,223.3 267.3,223.4 267,223.8 266.7,224.1 266.3,224.2 265.5,224.2 264.4,224.7
			264,224.8 263.4,224.8 263.4,227.4 		"/>
		<polygon fill="#239F40" points="261.7,225.6 261.6,226 261.6,226.5 261.7,226.9 261.7,225.6 		"/>
		<path fill="#FFFFFF" d="M565.1,235.5h-4v0h-24.6v0h-4v0h-24.6v0h-4v0h-24.6v0h-4v0h-24.6v0h-4v0H422v0h-4v0h-24.6v0h-4v0h-24.6v0
			h-4v0h-24.6v0h-4v0h-24.6v0h-4v0h-24.6v0h-4v0h-10.8l-0.1,0.1l-0.2,0.3l0.1,0.4l0.3,0.2l0.8,0l0.3,0.3l-0.1,0.7l-0.4,0.8l-0.3,0.7
			l0.4,0.5l-0.2,0.3l-0.2,0.1l-0.3,0.1l-0.5,0.2l-0.4-0.1l-0.2,0l-0.5,0.3l-0.3,0.3l-0.3,0.1l-0.6-0.3l-0.3,0l-0.2-0.1l-0.4-0.3
			l-0.3-0.1L260,240l-0.3,0.5l0,0.1l0.1,0.3l0,0.1l-0.1,0.1l-0.3,0l-0.1,0l-0.2,0.2l-0.1,0.3v0.3l0.1,0.3v0l0.2,0.6l-0.1,0.5
			l-0.2,0.5l-0.2,0.6l-0.3,0.4l-0.6-0.2l-0.6-0.3l-0.5,0l-0.1,0.5l0,0.6l-0.1,0.6l-0.6,0.4l-0.6,0.1l-0.3,0.1l-0.2,0.3l-0.1,0.3
			l0,0.5l-0.1,0.3l-0.6,0.7l-0.2,0.4l0.3,0.3l0.2,0.1l0.2,0.1l0.2,0.2l0.1,0.2l0.1,0.3l0.1,0.2l0.1,0.1l0.1,0.2l0.1,0.5l0,0.5
			l0.1,0.4l0.2,0.3l0.1,0.2l0,0.3l-0.1,0.3l-0.1,0.2l-0.1,0l-0.5-0.2l-1.4-0.1L253,253l-0.7-0.4l-0.8-0.2l-0.1,0.7l0.2,1l0,0.7
			l-0.1,0.2l-0.1,0.2l-0.1,0.2l-0.2,0.1l-1.1,0.2l-0.2,0.3l0.6,2l0.3,0.5l0.4,0.3l0.4-0.3h0.5l0.4,0.3l0.3,0.5l0.1,0.6l0,0.6
			l-0.3,1.2l-0.1,0.2l-0.3,0.5l0,0.2l0.1,0.3l0.2,0.2l0.1,0.2v0.3l-0.2,0.3l-0.8,0.7l-0.3,0.3l-0.5,0.4l-0.2,0.5l-0.2,0.6l-0.3,0.7
			h0l-0.2,0.2l-0.2,0.1l-0.4,0.2l0.4,0.6l0.5,0.3l0.5,0l0.6-0.1l0.1,0l0,0l0,0l1.8,3.3l0.3,0.3l0.3,0.3l0.3,0.3l0.2,0.4l0.1,0.5
			l0.1,0.4l0.2,0.4l0.3,0.4l0.3,0.3l1,0.7l0.1,0.4l0,0.9l0.1,0.2l0.4-0.1l0.3-0.2l0.6-0.6l0.4-0.2l1,0l0.4-0.1l-0.1,0.8l0.4,0.4
			l0.4,0.3l0.1,0.5l-0.3,0.4l-1,0.6l-0.3,0.4l0.4,0.3l0.6,0.1l0.6-0.1l0.4-0.4l0.1-0.1l0.1,0l0.1,0l0.1,0.1l0.1,0l0.1,0l0.7,0.9
			l0.2,0.4l0.2,0.5l0.1,0.5l0,0.4l0.1,0.4l0.7,0.7l0.8,1.2l0.7,0.5l0.3,0.3l0.2,0.4l0,0.3l-0.1,0.5l0,0.2l0.1,0.2l0.2,0.1l0,0.2
			l-0.1,0.3l-0.3,0.3l-0.5,0.6l-0.4,0.3l-0.3,0.1l-0.3,0l-0.4,0l-0.4,0.2l0,0.3l0.3,0.2l0.9,0.1l0.4,0.2l0.3,0.3l0.1,0.3l-0.1,0.4
			l-0.3,0.3l-0.3,0.3l-0.3,0.3v0l0.4,1l1.2,0.1l2.4-0.3l2.2,0.7l2,1l0.6,0.6l2,1.2l0.9,0.8l1.3,0.8l0.9,1l6.2,5.4l0,0l0.7,0.5
			l0.6,0.3l0.7,0.1l0.7-0.1l0.4-0.1l0.9-0.5l0.3,0l1.2,0.4l0.4,0.2l0.3,0.3l0.2,0.4l0.3,0.4l0.6,0.4l0.1,0.2l0,0.3l-0.1,0.2
			l-0.1,0.1l-0.2,0.5l-0.1,0.1l0,0.1l0.1,0.3l0.1,0.1l0.6,0.6l0.1,0.1l0.1,0.1l0.4,0.5l0.1,0.1l0.2,0.1l0.1,0.3l0.4,0.3l0.1,0.3
			l0,0.3l-0.1,0.2l-0.1,0.2l-0.1,0.3l0,0.3l0,0.2l0.1,0.1l0.3,0.1l0.3,0.2l0.2,0.2l0.2,0.2l0.3,0l0.4,0.2l0.4,0.5l0.5,1.1l0.3,0.4
			l0.7,0.3l0.2,0.4l0.1,0.4l0.7,1.3l0.1,0.2l0.4,0.2l0.2,0.1l0.1,0.2l0.1,0.4l0.1,0.2l0.3,0.4l0.8,0.6l0.3,0.4l0.1,0.5l-0.1,0.5
			l-3.1,8.5l-0.1,9.9l6.8,0l0.2,0.1l0.1,0.3l-0.1,11.5v0l0,0.7l2.2,0.3l0.2,0.1l0.2,0.1l0.3,0.4l0.3,0.5l0.2,0.5l0.2,1l0.1,0.2
			l0.2,0.2l0.2,0.1l0.2,0l0.2,0l0.8-0.1l0.3,0l0.2,0.1l0.2,0.2l0.4,0.7l0.7,0.8l0.6,0.5h11.2l0-0.1l-0.2-0.4l-0.3-0.4l-0.4-0.3
			L321,357l-0.2-0.5l0.1-0.1l0.1-0.2l0.1-0.2l-0.2-0.2l0.1-0.3l0.2-0.3l0.1-0.1l1.1-1l0.2-0.1l1.1,0.1l0.4,0l0.4-0.4l-0.2-0.4
			l-0.5-0.3l-0.7-0.1l-0.6-0.2l0.2-0.5l0.6-0.4l0.7,0.1l0.3-0.2l0.3,0l0.4,0.1l0.4,0.1l0.1,0l0.2-0.1l0.1,0l0.1,0.1l0.2,0.3l0.1,0.1
			l0.3-0.1l0.2-0.2l0.2,0l0.2,0.3l-0.1,0.1l0,0.1l0,0.3l0.3-0.2l0.3-0.3l0.2-0.1l0.2,0.9l0.2,0.4l0.3,0.2l0.4-0.1l0,0.4l-0.1,0.3
			l-0.6,0.8l-0.4,0.7l-0.1,0.3l-0.3-0.4l-0.3-0.3L327,355l-0.5,0l-0.3-0.1l-0.9-0.4l-0.4-0.1l-0.4,0.1l-0.7,0.2l-0.4,0l-0.8-0.1
			l-0.3,0.1l-0.2,0.4l0.7,0.2l0.5,0.3l0.4,0.5l0.1,0.8l0.3,0.3l1.4,0.8l0.5,0.2l0.4,0l0.2,0.2l0.2,0.3l0.1,0.1h0.7l0.2-0.2l0.2-0.4
			l0.1-0.4l0.3,0.2l0,0.2l-0.1,0.2l0,0.2l0,0.3h4v0h4v0h24.6v0h4v0h24.6v0h4v0H418v0h4v0h24.6v0h4v0h24.6v0h4v0h24.6v0h4v0h24.6v0h4
			v0h24.6v0h4v0h10.4l0.2-0.2l1.2-1.4l2.2-2.7l1.7-2v0l2.4-2.8l2.6-3.1l1.7-2l0.3-0.4l0-0.1l0,0l0-0.4l0.1-0.2l0.1-0.1l-0.1-1.6
			l-0.1-0.3l0.4-0.8l0.1-0.5v-0.5l-0.1-0.5l-0.3-0.8l-0.4-0.8l0-0.2l0-0.7l-0.2-0.5l-0.5-0.9l-0.2-0.5l0-0.5l0.1-1l-0.1-0.4
			l-0.7-0.9l-0.4-0.3l-0.5-0.2l-3.5-0.5l-4-0.6l-3.5-0.5l-3.5-0.5l-2.1-0.3l-0.7-0.3l-0.2-2.3l-0.3-1.2l-0.1-0.6l0.3-1.8l-0.3-2.2
			l0-1.2l0.1-1.5l0-0.5l-0.1-0.3l-0.1-0.2l0-0.2l0.2-0.5l-0.1-0.1l-0.2-0.1l-0.1-0.1l0.2-0.4l0.5-0.7l0.1-0.4l0.3-1.9l0-2l-0.7-2.6
			l-0.9-3.4l-0.8-2.8l-0.8-2.6l-0.7-2.4l-0.7-2.4l-0.6-2l-0.3-1.6l0-1.9l0.1-0.3l1-1.3l1.1-1.5l1-1.4l0.8-1.1l0.6-0.5l0.7-0.4
			l0.2-0.3l0.1-0.5l0-0.4l-0.1-0.4l0.1-0.3l0.4-0.2l1-0.1l0.3-0.1l0.2-0.3l-0.2-0.3l-0.3-0.3l-0.3-0.2l-0.7-0.2l-0.8-0.1l-1.5,0.1
			l-1.6-0.1l-1.7-0.7l-1.3-1.2l-0.5-1.8l0.2-0.8l0.6-1.4l0-1l-0.6-3.8l-0.3-2.5l0.1-1.1l0.6-1.2l0.7-0.8l0.7-0.7l1-0.5l0.3-0.4
			l-0.1-0.5l1.5-0.1l2.1-0.1l1.5-0.1l-0.2-0.5l-1.5-2l-0.3-0.6l-0.2-0.3l-0.3-0.2l-0.5-0.2l-0.2-0.2l-0.2-0.6l-0.1-0.2l-0.2-0.1
			l-0.2,0l0.3-0.5l0.5-0.3l1.1-0.2l0.5-0.1l0.4-0.3l0.9-1.1l0.1-0.2l0.1-0.2l0.3-0.2l0.3,0l0.3,0l0.2-0.1l0.2-0.3l0.1-0.6l-0.1-0.6
			l0-0.6l0.4-0.4l0.7-0.5l0.4-0.7l0.1-0.4l0.6-0.2l0.2-0.8l0.1-0.9l0-0.2l-0.1-0.5l0-0.3l0.1-0.3l0.3-0.5l0.1-0.2l0.1-0.5l0.3-0.9
			l0.1-1l0.2-0.4l0.5-0.7l-0.2-0.2l0-0.2l0.1-0.2l0-0.3l-0.1-0.1l-0.7-1l-0.1-0.2l0.1-0.1l0.2-0.1l0-0.2l-0.1-0.2l-0.1-0.1l0-0.2
			l0-0.5l0.1-0.2L565.1,235.5L565.1,235.5z M408.7,253.8c5.5,9.8,11.3,1.9,11.3,1.9s5.8,8,11.3-1.9c3.1,6.5-6,12.5-11.3,6.5
			C414.7,266.3,405.6,260.3,408.7,253.8z M401.3,264c0,0-33.3,26.1-8.8,63.6C369.4,313.5,367.4,274.7,401.3,264z M444.6,335.5
			c-11.8,4.1-20.8,1.1-20.8,1.1l-3.8,5l0,0l0,0l0,0l-3.8-5c0,0-9,3-20.8-1.1c9.7,0,15.1-1.7,17.1-2.7c0,0-21.9-11.8-21.5-36
			c1.3-24.4,14.2-31.8,14.2-31.8s-23,33.7,10.8,61.8l-1.5-34.8v-25.6c1.9-0.5,5.4-4.5,5.4-4.5s3.5,4.1,5.4,4.5V292l-1.5,34.8
			c33.9-28.2,10.8-61.8,10.8-61.8s12.9,7.4,14.2,31.8c0.4,24.1-21.5,36-21.5,36C429.5,333.8,434.9,335.5,444.6,335.5z M447.6,327.7
			c24.5-37.5-8.8-63.6-8.8-63.6C472.6,274.7,470.6,313.5,447.6,327.7z"/>
		<polygon fill="#FFFFFF" points="324.3,353.1 324.4,352.9 324.5,352.8 324.5,352.8 324.5,352.9 324.7,352.9 325,352.9 325,352.8
			325,352.6 324.9,352.4 324.9,352.3 324.9,352.3 325,352.2 325,352 324.8,352 324.6,352 324.5,352 324.4,352.1 324.4,352.1
			324.3,352 324.2,352.1 324.1,352.1 323.9,352.1 323.9,352.3 323.8,352.4 323.8,352.6 323.8,352.6 323.9,352.9 324,352.9
			324.1,353 324.2,352.9 324.2,353 		"/>
		<polygon fill="#DA0000" points="311,360.2 310.9,360.5 311,360.7 311.2,361.2 311.6,361.7 311.7,361.9 311.8,362 312.2,363.2
			312.2,363.5 312.4,363.9 312.5,364.1 312.6,364.2 312.9,364.4 313.2,364.6 314,364.9 314,364.9 314,364.8 314,364.8 314,364.8
			314.2,364.7 314.2,364.8 314.4,364.9 315,364.9 315,364.9 315.7,365 316.1,364.8 316.3,364.7 316.5,364.6 316.7,364.4
			316.7,364.1 316.7,363.8 316.4,363.3 316.3,363.1 316.3,362.6 316.7,362.7 317.5,363.2 319,363.2 319.4,363.4 319.8,363.2
			321.1,363.4 321.6,363.3 321.9,363 322.2,362.5 322.3,362.1 322.3,361.8 322.2,361.4 322.2,361.1 322.3,360.8 322.4,360.3
			322.5,360.2 311,360.2 		"/>
		<polygon fill="#DA0000" points="437.8,459.3 438,459.4 438.2,459.2 438.2,458.8 438.1,458.6 437.6,458.8 437.3,458.9 437.4,459.2
					"/>
		<polygon fill="#DA0000" points="454.1,450.6 453.8,450.5 453.6,450.6 453.4,450.7 453.4,450.9 453.4,451.1 453.5,451.2
			453.7,451.3 453.9,451.3 454.1,451.2 454.1,451.1 454.1,450.9 		"/>
		<polygon fill="#DA0000" points="328.7,360.2 329.3,360.3 329.6,360.2 328.7,360.2 		"/>
		<polygon fill="#DA0000" points="475.1,436.8 474.8,437.2 474.7,437.8 475.1,438 475.9,437.7 476.5,437.2 476.4,436.5 475.7,436.6
					"/>
		<polygon fill="#DA0000" points="465.9,441.4 465.7,441.4 465.4,441.7 465.1,442.2 465.1,442.7 465.4,442.9 465.8,442.7
			466.1,442.2 466.1,441.6 		"/>
		<polygon fill="#DA0000" points="478.1,431.7 477.9,431.6 477.5,431.7 477.1,432.2 477.1,432.8 477.7,433 478,433 478.3,432.8
			478.5,432.6 478.6,432.3 478.5,432 478.3,431.8 		"/>
		<polygon fill="#DA0000" points="467,441 467.6,440.7 468.6,439.7 468.8,439.6 469,439.4 469.8,439 469.9,438.8 470.1,438.5
			470.9,437.6 471.2,437.2 471.6,436.2 472.1,435.8 473.4,435.4 474,435.1 473.9,434.6 473.4,434.3 472.9,434.1 472.5,434
			471.7,434 468.9,434.6 466.8,436 466,436.2 463.1,435.1 462.6,435.4 462.7,435.6 463.1,435.8 463.4,436.2 463.6,436.6
			463.7,437.6 463.6,438 463.3,438.4 463.4,438.5 463.4,438.7 463.2,438.8 463,439 462.9,439 462.7,439 462.2,439 462,439
			460.7,439.5 460.3,439.9 459.3,440.5 459,440.6 458.6,440.6 455.8,441.5 454.7,442.1 454.5,442.1 454.3,442.2 453.3,441.8
			453.1,442.1 453.3,442.8 453.4,442.9 453.4,443.2 453.3,443.6 453.4,444.1 453.5,444.4 453.6,444.5 453.8,444.5 454.1,444.4
			454.3,444.3 454.4,444.1 454.5,443.9 454.7,443.9 454.9,444 455.1,444.1 455.3,444 455.7,443.7 456.6,443.5 457.8,443.3
			458.2,443.1 458.9,442.6 460.1,442.2 461.2,441.4 461.6,441.2 462,441.1 463,441.2 463.4,441.2 463.8,441 464.2,440.7
			465.6,439.9 466.1,440.4 466.5,440.8 		"/>
		<polygon fill="#DA0000" points="437.7,451.2 438.1,450.3 438.1,450.2 438,450 437.8,449.9 437.7,449.9 437.5,449.7 437.3,449.6
			437.1,449.7 437,449.9 436.9,450.1 436.9,450.4 437,450.6 437,450.9 437.1,451 437.3,451.2 437.6,451.2 		"/>
		<polygon fill="#DA0000" points="336.1,358.5 332.1,358.5 332.1,360 332.3,360 332.5,360 333,360 333.2,360 333.4,360.1
			333.6,360.3 333.7,360.4 333.7,360.5 333.9,360.7 334,361.1 334,362.2 334.1,362.6 334.7,363.4 335.3,363.6 336.1,363.2
			340.8,360.2 336.1,360.2 		"/>
		<polygon fill="#DA0000" points="427.5,444.4 427.2,444.2 426.5,444.2 426.1,444.1 425.7,444 425.3,444.1 425,444.4 424.8,444.7
			425.2,445.4 425.9,445.7 427.6,445.8 427.8,445.7 427.9,445.4 427.9,445.1 427.7,445 427.6,444.9 427.6,444.7 427.6,444.5 		"/>
		<polygon fill="#DA0000" points="419.2,441.1 418.8,441.1 418.6,441.4 418.8,441.7 419.2,441.9 419.5,441.9 419.8,441.6
			419.6,441.3 419.4,441.2 		"/>
		<polygon fill="#DA0000" points="411.6,437.9 409.9,437.3 409.7,437.3 409.5,437.4 409.4,437.4 409.3,437.5 409.5,437.7
			410.1,438.3 410.4,438.5 410.8,438.6 412,438.8 412.4,438.8 412.8,438.6 413,438.6 413.8,438.6 414.1,438.6 413.6,438.2
			413.2,438 		"/>
		<path fill="#DA0000" d="M565.1,358.5h-4v1.7h-24.6v-1.7h-4v1.7h-24.6v-1.7h-4v1.7h-24.6v-1.7h-4v1.7h-24.6v-1.7h-4v1.7H422v-1.7
			h-4v1.7h-24.6v-1.7h-4v1.7h-24.6v-1.7h-4v1.7h-14.5l0.1,0.2l0.3,0.4l0.3,0.2l-0.1,0.6l0.5,1.3l-0.2,0.8l0.3,0.1l0.1,0.2l-0.1,0.1
			l-0.3,0l0.1,0.3l0,0.3h25v1.7h-23.6l0.3,0.2l0.4,0.3l0.5,0.7l0.9,1.7l0.5,0.8l0.6,0.6l0.3,0.4l0.1,0.5l0.2,0.3l1.2,0.5l0.7,0.7
			l0.3,0.5l0.1,0.4l0.2,0.3l1.1,0.9l0.6,0.9l0.1,0.1h0.1l0-0.6l0.3,0.2l0.3,0.4h1.6v-4h-5.7v-1.7h7.4v7.5h-2.7l0.1,0.5l0,0.9
			l-0.1,0.6l0.2,0.4l0.1,0.1l0.2,0.1l-0.1,0.2l-0.1,1l-0.3-0.3l-0.2,0.2l-0.1,0.4l-0.2,0.3l-0.2,0.3l0,0.3l0,0.6l0.2,0.7l0.5,0.4
			l0.6,0.1l0.5-0.3l0.4-0.1l1.6-0.1l0.5,0.1l0.1,0.1l0,0.2l0,0.4l0.1,0.1l0.2-0.1l0.2-0.1l0.1,0l0.3,0.2l0.1,0.2l0.2,0.7l0.4-0.1
			l0.2,0.3l0.1,0.5l-0.1,0.5l-0.1,0.2l-0.4,0.4l-0.1,0.2l0,0.3l0.1,0.2l0,0.2l-0.2,0.2l-0.2-0.4l-0.3-0.4l-0.4-0.3l-0.4-0.1
			l-0.4,0.3l-0.1,0.6l0.1,0.6l0.2,0.4l1,1.2l0.2,0.5l0.2,0.2l0.4,0.1l0.8,0l0.9,0.2l0.7,0.4l0.5,0.6l0.5,0.9l0.3,1l0,3l0.2,0.7
			l1.3,3.1l0.2,0.2l0.7,0.7l0.7,1.1l0.3,0.3l0.7,0.7l0.4,0.7l0,0.6l-0.5,1.3l0,0.6l0.1,0.3l0.2,0.2l1.4,1.4l0.4,0.3l1,0.3l0.5,0.2
			l0.2,0.4l0.1,0.6l0.2,0.4l0.3,0.4l0.9,1l0.4,0.3l0.6,0.2l0.1,0.1l0.1,0.2l0,0.2l0.1,0.1l0.2,0.1l2.3,0.2l0.4,0l1.2-0.3l1,0
			l0.5,0.1l0.4,0.2l0.3,0.1l1.4-0.2l1,0.1l0.9,0.4l0.8,0.5l2.4,2.3l0.8,0.4l3.7,0.8l0.8,0.3l0.7,0.5l1.6,1.6l0.1,0.2l0.3,0.8
			l0.2,0.3l0.3,0.3l0.8,0.3l0.3,0.3l0.2,0.5l-0.3,0.2l-0.4,0.1l-0.4,0l-0.4,0l-0.3,0.1l-0.2,0.3l0,0.5l0.4,0.4l2.7,1.2l0.7,0.5
			l1.7,1.5l0.9,0.3l0.4,0.3l0.2,0.5l0.2,0.2l1.2,0.3l0.3,0.3l0.2,0.4l0.3,0.3l0.4,0.1l0.5,0l7,2.4l0.7,0.4l0.4,0.4l0.2,0.5l0,1.1
			l0.1,0.5l0.3,0.4l2,1.5l1.6,0.9l1.1,0.9l0.3,0.1l0.5-0.3l0.5,0l0.9,0.3l0.5,0l0.8-0.2l0.9-0.1l1.4-0.6l0.4-0.1l0.2,0l0.2,0.1
			l0.4,0.3l0.2,0.1l0.4,0.1l1.4,0.4l0.4,0l1.6-0.1l0.4-0.1l0.4-0.1l0.4,0.1l0.6,0.5l0.4,0.7l0.3,0.7l0.4,0.6l0.7,0.4l1.9-0.1
			l0.9,0.2l0.6,0.6l0.3,0.7l0.4,0.5l0.9,0.1l1.8-0.2l0.2,0l0.4,0.2l0.3,0l0.2-0.1l0.2-0.1l0.1-0.1l0.1-0.1l2.2-1.3l2-1.6l0.2-0.1
			l1.3-1.2l0.3-0.1l0.9-0.3l0.4,0l0.5-0.1l0.2-0.3l0.1-0.4l0.2-0.4l0.8-0.4l0.9,0.1l1.7,0.6l0.9,0l0.9-0.2l0.8-0.4l0.7-0.6l0.3-0.5
			l0.2-0.7l0.1-0.7l-0.1-0.6l-0.2,0.1l-0.1,0.1l-0.3,0.1l1.1-1.2l0.2-0.2l0.3-0.1l0.7-0.6l0.4-0.2h0.2l0.6,0.2h0.8l0.2,0l0.3-0.2
			l0.2,0l0.7,0l0.2,0l0.9-0.2l0.9-0.1l0.2-0.1l0.4-0.3l0.1-0.1l0-0.1l0.5-0.4l1.4-0.8l0.4-0.3l0.2-0.1l0.2,0l0.1-0.1l0-0.2l0.1-0.1
			l0.4-0.3l0.2-0.1l0.5-0.1l1.3-0.1l0.4-0.2l0.5-0.3l0.7-0.2l1.3-0.1l0.6,0.1l1.1,0.4l0.6,0.1l1.3,0.1l0.6,0.1l0.5,0.3l0.1-0.2
			l0.5,0.1l2.1,0l0.2,0.1l0.2,0.2l0.2,0.2l0.3,0.1l0.6,0l0.3-0.1l0.2-0.2l0.1,0.5l0.3,0.5l0.5,0.3l0.6,0.1v0.2l-0.2,0.1l-0.4,0.4
			l-0.1,0.1l-0.2,0.1l0,0.2l0.1,0.1l0.3-0.1l0,0.2l0,0.2l0.1,0.1l0.4-0.2l0.1,0.1l0.1,0.1l0.1,0.1l0.1,0l0.1,0.1l0.1,0.1l0.2,0
			l0.2,0l0.6-0.3l-0.1,0.2l-0.1,0.2l0,0.2l0.2,0.2l-0.2,0.1l-0.2,0.1l-0.2,0.1l-0.3,0l0.2,0.2l0.6,0.4l0,0.4l0.2,0.4l0.7,0.6
			l0.3,0.4l1.3,5.3l0.1,1.1l-0.3,2.9l0,0.2l0.1,0.5l0.1,0.2l0.1,0.2l0.4,0.4l0.2,0.4l0.1,0.5l0.1,1l0.2,0.1l-0.1,0.6l1.4,1.5
			l0.3,0.7l-0.2,0.5l-0.6,0.7l-0.1,0.5l0,0.3l0.2,0.4l0.1,0.4l0.3,0.8l0,0.3l0,0.1l0.1,0l0.3,0l0.1,0l0.5,0.5l0,0.1l0.2,0.2l0.2,0.4
			l0.3,0.9l0.5,1.2l0.1,1.1l0.1,0.4l0.3,0.2l2.8,0.2l-0.1,0.1l1.4,0.4l0.5,0l0.2,0l0.4-0.1l0.2,0l0.2,0.1l0.4,0.2l0.3,0l1.1-0.3
			l0.5-0.1l0.5,0l0.4,0.1l0.3,0.3l0.2,0.5l0,0.2l0,0.1l0,0.1l-0.1,0.3l-0.1,1h0.3l0.5-0.3l0.7-0.6l0.8-0.4l0.9-0.2l0.8,0.2l0.6,0.8
			l0.6,1.3l0.5,0.6l0.6,0.3l0.7,0.1l0.7,0.2l0.7,0.1l0.8-0.1l0.7-0.5l0.1,0l0.1,0.2l0.2,0l0.2-0.1l0.2-0.1l0.2-0.2h0.1l0.1,0.1
			l0.1,0.1l0.3-0.1l0.5-0.4l0.3-0.1l0.7-0.1l0.6,0l-0.1,0.4l0.4,0.2l1.1,0.1l1.3-0.2l3.8,0.7h1.8l0.2,0.1l0.1,0.2l0.1,0.2l0.1,0.2
			l0.2,0.1l0.7,0l0.8,0.4l0.5,0.6l1,1.5l0.3,0.2l0.3,0.1l0.4,0.1l0.5,0l0.2-0.1l0.2-0.1l0.2,0l0.2,0.1l0.1,0.1l0.2,0l0.4-0.1
			l1.2-0.5l1.7-0.3l2.9-1l0.9-0.1l0.9,0.3l1.2,1.2l0.8,0.4l0.8,0l3.6-0.4l0.3,0.2l0.1,0.4l0.1,0.1l0.8,0.7l0.2,0l0.1-0.1l0.1-0.1
			l1.7-0.4l0.9-0.1l0.8,0.2l0.1,0l0.2,0l0.1,0l0,0.1l0,0.3l0,0.1l0.2,0.3l0.2,0.1l0.7,0.1l0.2,0.1l0.4,0.3l0.1-0.1l0.1-0.4l0-0.2
			l-0.1-0.1v-0.1l0.2-0.2l0.1,0l0.6-0.1l0.7,0l0.4,0.1l0.3,0.1l-0.1,0.1l-0.2,0.4l0.5,0.3l1,0.2l0.4,0.2l1.2,1.1l0.2,0.1l0.3,0
			l-0.1-0.3l-0.4-0.8v-0.1l0-0.1l0-0.1l-0.1-0.1l-0.1-0.1h-0.2l-0.2-0.1l-0.1,0l-0.1-0.1l-0.1-0.5l-0.1-0.1l0-0.2l0.2-0.2l0.3-0.4
			l0.2-0.3l0.4-0.2l1.4-0.4l0.4,0l0.4,0.1l0.3,0.2l0.8,0.7l0.1,0.2l0,1.3l0.1,0.3l0.5,0.7l-0.3,0.3l0.3,0.2l1.9,0.2l2.9,0.7l3.4,0.6
			l3.5,1l0.1,0.1l0.1,0.5l0.1,0.1l0.8,0.3l4.1,0.9l-0.3-0.2l-0.3-0.2l1.1-0.3l0.3-0.2l0.2-0.2l0-0.1v-0.1l0.1-0.2l0.3-0.4l0.1-0.2
			l-0.2-0.2l-0.2-0.1l-0.5-0.2l0.4-0.3l0.3,0l0.3,0.1l0.4,0l-0.1-0.1l-0.2-0.2l-0.1-0.1l0.1-0.1l0-0.4l0.1-0.1l0.2-0.1l0.1,0.1
			l0.1,0.1l0.4,0.3l0,0.4l0.1,0.3l0.6-1.9l0.1-1.9l0.1-2.3l0.1-1.9l0.1-1.3l0.1-0.3l0.1-0.2l0.3-0.3l0.1-0.2l0.1-0.8l-0.2-0.9
			l-0.1-0.8l0.4-0.6l0.4-0.1l0.4,0l0.4-0.1l0.3-0.4l0.1-0.4l0.2-1.6l0.3-1.9l0.2-1.4l0.2-1.2l0.2-1.4l0.2-0.7l0.3-0.6l0.5-0.4
			l2.5-0.7l0.7-0.5l0.4-0.2l0.4-0.1l0.9-0.1l0.2-0.2l0.1-0.6l0.4-0.6l0.8,0.1l0.9,0.3l0.8,0.1l0.4-0.2l0-0.3l-0.2-0.4l-0.1-0.5
			l0.1-0.3l0.7-0.6l0.2-0.4l0-0.1l-0.1-0.1l-0.1-0.2l0-0.2l0.1-0.2l0.2-0.1l0.4-0.2l0.2-0.1l0.3-0.2l0.2-0.1l0.2,0l0.4,0l0.2-0.1
			l0.1-0.1l0.2-0.3l0.2-0.1l0.2-0.1l3.4-0.4l0.4-0.1l0.2-0.1l0.2-0.2l0.2-0.1l0.2,0l0.2,0.1l0.2,0l0.6-0.1l0.2-0.1l0.2-0.1l0.1-0.1
			l0.2-0.4l0.2-0.2l0.2-0.1l1.4,0l1.6,0l1.9,0l0.8,0.1l0.8,0l0.6-0.1l0.2,0l0.2,0.1l0.1,0.1l0.2,0.1l0.2,0l0.5-0.4l0.2-0.9l0.2-3.3
			l0.2-0.4l0.3-0.2l0.8-0.1l0.3-0.3l0.1-0.4l-0.2-0.4l-0.3-0.4l-0.2-0.4l-0.1-2.6l0-0.3l0.1-0.2l0.2-0.3l0.1-0.2l0.2-0.4l0.4-0.2
			h0.5l0.4,0.1l-0.7-1.6l-0.3-0.4l-0.2-0.2l-0.2-0.1l-0.5-0.2l-0.2-0.1l-0.5-0.5l-0.3-0.1l-0.2,0l-1.1,0.4l-0.3,0l-0.3,0l-0.5,0
			l-1.1,0.3l-0.5,0.1l-1.2,0.2l-0.6,0l-0.7-0.1l-0.5-0.3l-0.2-0.1l-0.1,0l-0.3,0.2l-0.2,0l-0.3-0.2l-0.9-0.8l0.3,0l0.2-0.2l0.1-0.3
			l0.1-0.3l0-0.4l-0.1-0.3l-0.4-0.5l1.1-2.4l0.1-1l-0.1-1.2l-0.2-2.1l-0.1-1.2l-0.2-1.9l-0.1-1.4l-0.5-2.2L607,411l0.3-2.6l0.3-2.4
			l-0.1-0.8l-0.5-0.3l-3.4,0.7l-0.4-0.3l-1.3-1.4l-0.3-0.5l-0.1-0.4l-0.1-0.2l-0.2-0.1l-0.3-0.1l-0.3-0.2l-0.2-0.3l-0.2-0.3
			l-0.2-0.3l-0.6-0.3l-2.7-0.6l-1.7-0.8l-0.7-0.1l-1.4-0.1l-0.6-0.2l-1-0.6l-1.2-0.3l-0.4-0.2l-0.7-0.7l-1.3-1.2l-0.9-1.1l-2.1-1.9
			l-0.6-0.7l-0.6-1.3l-0.6-0.7l-0.1-0.3l-0.1-0.4l-0.1-0.5l-0.9-2l-0.2-0.2l-0.2-0.2l-0.3-0.1l-0.2-0.1l0-0.1l0.1-0.1l0.2-0.2
			l0.2-0.2l0.1-0.2l-0.1-0.2l-0.2-0.2l-0.4-0.2l-0.2-0.3l-0.1-0.4l-0.2-0.3l-0.2-0.1l-0.2,0l-0.2-0.1l-0.2-0.2l-0.1-0.3l-0.1-0.6
			l-0.1-0.3l-0.3-0.4l-0.7-0.7l-0.2-0.5v-0.5l0.2-0.8l0-0.5l-0.2-0.6l-0.4-0.3l-0.4-0.2l-0.3-0.2h-0.5v-0.6l-1.3-1.5l-1.6-1.9
			l-1.4-1.7h-5.4v5.7h-1.7v-7.5h5.7l0,0l-1.1-1.3l-1.7-2l0.6-0.7h-3.5v-1.7h5l0.7-0.8l0,0l3.2-3.8l0.1-0.1h-8.9V358.5z M389.4,378.1
			h-13.2v-5.7h-9.7v4h5.7v1.7h-7.4v-7.5h11.4v-5.7h1.7v11.5h4v-11.5h1.7v11.5h4v-11.5h1.7V378.1z M400.8,378.1h-1.7l0-1.7h1.7V378.1
			z M418,378.1h-13.2v-5.7h-9.7v5.7h-1.7v-7.5h13.2v5.7h9.7v-4h-5.7v-1.7h7.4V378.1z M393.4,366.6v-1.7h36.1v1.7H393.4z
			 M446.6,378.1h-13.2v-5.7h-9.7v4h5.7v1.7H422v-7.5h11.4v-5.7h1.7v11.5h4v-11.5h1.7v11.5h4v-11.5h1.7V378.1z M458.1,378.1h-1.7
			l0-1.7h1.7V378.1z M475.2,378.1h-13.2v-5.7h-9.7v5.7h-1.7v-7.5h13.2v5.7h9.7v-4h-5.7v-1.7h7.4V378.1z M450.6,366.6v-1.7h36.1v1.7
			H450.6z M503.9,378.1h-13.2v-5.7H481v4h5.7v1.7h-7.4v-7.5h11.4v-5.7h1.7v11.5h4v-11.5h1.7v11.5h4v-11.5h1.7V378.1z M515.3,378.1
			h-1.7l0-1.7h1.7V378.1z M532.5,378.1h-13.2v-5.7h-9.7v5.7h-1.7v-7.5H521v5.7h9.7v-4H525v-1.7h7.4V378.1z M507.9,366.6v-1.7h36.1
			v1.7H507.9z M561.1,378.1h-13.2v-5.7h-9.7v4h5.7v1.7h-7.4v-7.5h11.4v-5.7h1.7v11.5h4v-11.5h1.7v11.5h4v-11.5h1.7V378.1z"/>
		<polygon fill="#DA0000" points="351,381.1 350.8,381 350.4,380.9 350.5,381.4 350.8,382.1 351.1,382.6 351.2,382.3 351.3,381.8
			351.3,381.3 351.2,381 351.1,381.1 		"/>
		<rect x="399.1" y="227.4" fill="#FFFFFF" width="1.7" height="1.7"/>
		<polygon fill="#FFFFFF" points="395.1,223.4 404.8,223.4 404.8,229.1 418,229.1 418,221.7 410.6,221.7 410.6,223.4 416.3,223.4
			416.3,227.4 406.5,227.4 406.5,221.7 393.4,221.7 393.4,229.1 395.1,229.1 		"/>
		<polygon fill="#FFFFFF" points="422,229.1 429.4,229.1 429.4,227.4 423.7,227.4 423.7,223.4 433.5,223.4 433.5,229.1 446.6,229.1
			446.6,215.9 444.9,215.9 444.9,227.4 440.9,227.4 440.9,215.9 439.2,215.9 439.2,227.4 435.2,227.4 435.2,215.9 433.5,215.9
			433.5,221.7 422,221.7 		"/>
		<rect x="393.4" y="215.9" fill="#FFFFFF" width="36.1" height="1.7"/>
		<polygon fill="#FFFFFF" points="446.6,235.5 446.6,235.5 446.6,233.8 422,233.8 422,235.5 422,235.5 		"/>
		<polygon fill="#FFFFFF" points="418,235.5 418,235.5 418,233.8 393.4,233.8 393.4,235.5 393.4,235.5 		"/>
		<polygon fill="#FFFFFF" points="410.6,372.3 416.3,372.3 416.3,376.3 406.5,376.3 406.5,370.6 393.4,370.6 393.4,378.1
			395.1,378.1 395.1,372.3 404.8,372.3 404.8,378.1 418,378.1 418,370.6 410.6,370.6 		"/>
		<rect x="393.4" y="364.9" fill="#FFFFFF" width="36.1" height="1.7"/>
		<polygon fill="#FFFFFF" points="444.9,376.3 440.9,376.3 440.9,364.9 439.2,364.9 439.2,376.3 435.2,376.3 435.2,364.9
			433.5,364.9 433.5,370.6 422,370.6 422,378.1 429.4,378.1 429.4,376.3 423.7,376.3 423.7,372.3 433.5,372.3 433.5,378.1
			446.6,378.1 446.6,364.9 444.9,364.9 		"/>
		<rect x="399.1" y="376.3" fill="#FFFFFF" width="1.7" height="1.7"/>
		<polygon fill="#FFFFFF" points="446.6,360.2 446.6,358.5 446.6,358.5 422,358.5 422,358.5 422,360.2 		"/>
		<polygon fill="#FFFFFF" points="418,360.2 418,358.5 418,358.5 393.4,358.5 393.4,358.5 393.4,360.2 		"/>
		<polygon fill="#FFFFFF" points="479.2,229.1 486.7,229.1 486.7,227.4 481,227.4 481,223.4 490.7,223.4 490.7,229.1 503.9,229.1
			503.9,215.9 502.1,215.9 502.1,227.4 498.1,227.4 498.1,215.9 496.4,215.9 496.4,227.4 492.4,227.4 492.4,215.9 490.7,215.9
			490.7,221.7 479.2,221.7 		"/>
		<rect x="456.4" y="227.4" fill="#FFFFFF" width="1.7" height="1.7"/>
		<polygon fill="#FFFFFF" points="452.3,223.4 462.1,223.4 462.1,229.1 475.2,229.1 475.2,221.7 467.8,221.7 467.8,223.4
			473.5,223.4 473.5,227.4 463.8,227.4 463.8,221.7 450.6,221.7 450.6,229.1 452.3,229.1 		"/>
		<rect x="450.6" y="215.9" fill="#FFFFFF" width="36.1" height="1.7"/>
		<polygon fill="#FFFFFF" points="503.9,235.5 503.9,235.5 503.9,233.8 479.2,233.8 479.2,235.5 479.2,235.5 		"/>
		<polygon fill="#FFFFFF" points="475.2,235.5 475.2,235.5 475.2,233.8 450.6,233.8 450.6,235.5 450.6,235.5 		"/>
		<rect x="450.6" y="364.9" fill="#FFFFFF" width="36.1" height="1.7"/>
		<polygon fill="#FFFFFF" points="502.1,376.3 498.1,376.3 498.1,364.9 496.4,364.9 496.4,376.3 492.4,376.3 492.4,364.9
			490.7,364.9 490.7,370.6 479.2,370.6 479.2,378.1 486.7,378.1 486.7,376.3 481,376.3 481,372.3 490.7,372.3 490.7,378.1
			503.9,378.1 503.9,364.9 502.1,364.9 		"/>
		<polygon fill="#FFFFFF" points="467.8,372.3 473.5,372.3 473.5,376.3 463.8,376.3 463.8,370.6 450.6,370.6 450.6,378.1
			452.3,378.1 452.3,372.3 462.1,372.3 462.1,378.1 475.2,378.1 475.2,370.6 467.8,370.6 		"/>
		<rect x="456.4" y="376.3" fill="#FFFFFF" width="1.7" height="1.7"/>
		<polygon fill="#FFFFFF" points="503.9,360.2 503.9,358.5 503.9,358.5 479.2,358.5 479.2,358.5 479.2,360.2 		"/>
		<polygon fill="#FFFFFF" points="475.2,360.2 475.2,358.5 475.2,358.5 450.6,358.5 450.6,358.5 450.6,360.2 		"/>
		<polygon fill="#FFFFFF" points="307.5,229.1 315,229.1 315,227.4 309.2,227.4 309.2,223.4 319,223.4 319,229.1 332.1,229.1
			332.1,215.9 330.4,215.9 330.4,227.4 326.4,227.4 326.4,215.9 324.7,215.9 324.7,227.4 320.7,227.4 320.7,215.9 319,215.9
			319,221.7 307.5,221.7 		"/>
		<rect x="284.6" y="227.4" fill="#FFFFFF" width="1.7" height="1.7"/>
		<polygon fill="#FFFFFF" points="280.6,223.4 290.3,223.4 290.3,229.1 303.5,229.1 303.5,221.7 296.1,221.7 296.1,223.4
			301.8,223.4 301.8,227.4 292.1,227.4 292.1,221.7 278.9,221.7 278.9,229.1 280.6,229.1 		"/>
		<rect x="278.9" y="215.9" fill="#FFFFFF" width="36.1" height="1.7"/>
		<polygon fill="#FFFFFF" points="303.5,235.5 303.5,235.5 303.5,233.8 278.9,233.8 278.9,235.5 278.9,235.5 		"/>
		<polygon fill="#FFFFFF" points="332.1,235.5 332.1,235.5 332.1,233.8 307.5,233.8 307.5,235.5 307.5,235.5 		"/>
		<polygon fill="#FFFFFF" points="314.4,364.9 315,364.9 315,364.9 		"/>
		<polygon fill="#FFFFFF" points="314,364.9 314,364.9 314,364.9 314,364.9 		"/>
		<polygon fill="#FFFFFF" points="332.1,358.5 328.1,358.5 328.1,358.5 328.1,358.7 328.2,358.8 328.5,359 328.6,359.1 328.6,360
			328.7,360.2 329.6,360.2 329.7,360.2 330.5,359.9 330.9,359.8 331.1,359.9 331.4,360.1 331.6,360.1 331.9,360.1 332.1,360
			332.1,358.5 		"/>
		<polygon fill="#FFFFFF" points="327,358.7 327.4,358.6 327.5,358.5 326.8,358.5 		"/>
		<polygon fill="#FFFFFF" points="311.2,358.7 311.4,358.9 311.5,359.2 311.5,359.4 311.5,359.7 311.3,359.9 311.1,360 311,360.2
			322.5,360.2 322.5,360 322.4,359 322.3,358.5 311,358.5 		"/>
		<rect x="341.9" y="227.4" fill="#FFFFFF" width="1.7" height="1.7"/>
		<polygon fill="#FFFFFF" points="364.8,229.1 372.2,229.1 372.2,227.4 366.5,227.4 366.5,223.4 376.2,223.4 376.2,229.1
			389.4,229.1 389.4,215.9 387.7,215.9 387.7,227.4 383.6,227.4 383.6,215.9 381.9,215.9 381.9,227.4 377.9,227.4 377.9,215.9
			376.2,215.9 376.2,221.7 364.8,221.7 		"/>
		<rect x="336.1" y="215.9" fill="#FFFFFF" width="36.1" height="1.7"/>
		<polygon fill="#FFFFFF" points="337.9,223.4 347.6,223.4 347.6,229.1 360.8,229.1 360.8,221.7 353.3,221.7 353.3,223.4 359,223.4
			359,227.4 349.3,227.4 349.3,221.7 336.1,221.7 336.1,229.1 337.9,229.1 		"/>
		<polygon fill="#FFFFFF" points="360.8,235.5 360.8,235.5 360.8,233.8 336.1,233.8 336.1,235.5 336.1,235.5 		"/>
		<polygon fill="#FFFFFF" points="389.4,235.5 389.4,235.5 389.4,233.8 364.8,233.8 364.8,235.5 364.8,235.5 		"/>
		<polygon fill="#FFFFFF" points="360.8,370.6 353.3,370.6 353.3,372.3 359,372.3 359,376.3 357.5,376.3 357.6,376.5 357.8,377
			358,377.6 358.1,378.1 360.8,378.1 		"/>
		<polygon fill="#FFFFFF" points="387.7,376.3 383.6,376.3 383.6,364.9 381.9,364.9 381.9,376.3 377.9,376.3 377.9,364.9
			376.2,364.9 376.2,370.6 364.8,370.6 364.8,378.1 372.2,378.1 372.2,376.3 366.5,376.3 366.5,372.3 376.2,372.3 376.2,378.1
			389.4,378.1 389.4,364.9 387.7,364.9 		"/>
		<polygon fill="#FFFFFF" points="372.2,364.9 347.2,364.9 347.2,365 347.2,365.3 347.3,365.4 348.1,366.3 348.6,366.6 372.2,366.6
					"/>
		<polygon fill="#FFFFFF" points="356.8,376.5 356.8,376.3 356.8,376.3 		"/>
		<polygon fill="#FFFFFF" points="389.4,360.2 389.4,358.5 389.4,358.5 364.8,358.5 364.8,358.5 364.8,360.2 		"/>
		<polygon fill="#FFFFFF" points="360.8,358.5 360.8,358.5 336.1,358.5 336.1,358.5 336.1,360.2 340.8,360.2 342.6,359.1
			343.3,358.9 344.1,358.7 344.8,358.8 345.5,359.1 345.8,359.3 346,359.6 346.1,360 346.2,360.2 360.8,360.2 		"/>
		<polygon fill="#FFFFFF" points="509.6,223.4 519.3,223.4 519.3,229.1 532.5,229.1 532.5,221.7 525,221.7 525,223.4 530.8,223.4
			530.8,227.4 521,227.4 521,221.7 507.9,221.7 507.9,229.1 509.6,229.1 		"/>
		<rect x="513.6" y="227.4" fill="#FFFFFF" width="1.7" height="1.7"/>
		<polygon fill="#FFFFFF" points="536.5,229.1 543.9,229.1 543.9,227.4 538.2,227.4 538.2,223.4 547.9,223.4 547.9,229.1
			561.1,229.1 561.1,215.9 559.4,215.9 559.4,227.4 555.4,227.4 555.4,215.9 553.7,215.9 553.7,227.4 549.7,227.4 549.7,215.9
			547.9,215.9 547.9,221.7 536.5,221.7 		"/>
		<rect x="507.9" y="215.9" fill="#FFFFFF" width="36.1" height="1.7"/>
		<polygon fill="#FFFFFF" points="561.1,235.5 561.1,235.5 561.1,233.8 536.5,233.8 536.5,235.5 536.5,235.5 		"/>
		<polygon fill="#FFFFFF" points="532.5,235.5 532.5,235.5 532.5,233.8 507.9,233.8 507.9,235.5 507.9,235.5 		"/>
		<rect x="507.9" y="364.9" fill="#FFFFFF" width="36.1" height="1.7"/>
		<rect x="513.6" y="376.3" fill="#FFFFFF" width="1.7" height="1.7"/>
		<polygon fill="#FFFFFF" points="525,372.3 530.8,372.3 530.8,376.3 521,376.3 521,370.6 507.9,370.6 507.9,378.1 509.6,378.1
			509.6,372.3 519.3,372.3 519.3,378.1 532.5,378.1 532.5,370.6 525,370.6 		"/>
		<polygon fill="#FFFFFF" points="559.4,376.3 555.4,376.3 555.4,364.9 553.7,364.9 553.7,376.3 549.7,376.3 549.7,364.9
			547.9,364.9 547.9,370.6 536.5,370.6 536.5,378.1 543.9,378.1 543.9,376.3 538.2,376.3 538.2,372.3 547.9,372.3 547.9,378.1
			561.1,378.1 561.1,364.9 559.4,364.9 		"/>
		<polygon fill="#FFFFFF" points="532.5,360.2 532.5,358.5 532.5,358.5 507.9,358.5 507.9,358.5 507.9,360.2 		"/>
		<polygon fill="#FFFFFF" points="561.1,360.2 561.1,358.5 561.1,358.5 536.5,358.5 536.5,358.5 536.5,360.2 		"/>
		<polygon fill="#FFFFFF" points="565.1,229.1 566.8,229.1 566.8,223.4 576.4,223.4 576.4,223.4 576.5,222.8 576.5,222.5
			576.4,222.4 576.5,221.8 576.5,221.7 565.1,221.7 		"/>
		<polygon fill="#FFFFFF" points="577,229.1 577.1,228.9 577.2,228.4 577.2,227.9 577,226.8 576.8,226.6 576.6,226.2 576.6,229.1
			"/>
		<polygon fill="#FFFFFF" points="565.1,217.7 573.9,217.7 574.2,217.4 574.6,217 574.8,216.8 574.8,216.5 574.8,216 574.8,215.9
			565.1,215.9 		"/>
		<polygon fill="#FFFFFF" points="565.1,235.5 565.1,235.5 573.4,235.5 573.5,235.2 573.8,234.9 574.2,234.9 574.7,234.9
			575.1,234.6 575.3,234.2 575.2,233.8 565.1,233.8 		"/>
		<polygon fill="#FFFFFF" points="565.1,366.6 568.7,366.6 569.2,365.9 570.1,364.9 565.1,364.9 		"/>
		<polygon fill="#FFFFFF" points="577.1,378.1 577,378 576.6,377.5 576.6,378.1 		"/>
		<polygon fill="#FFFFFF" points="565.1,378.1 566.8,378.1 566.8,372.3 572.2,372.3 572.1,372.2 570.8,370.6 565.1,370.6 		"/>
		<polygon fill="#FFFFFF" points="565.1,358.5 565.1,360.2 574,360.2 575.5,358.5 565.1,358.5 		"/>
		<polygon fill="#FFFFFF" points="261.7,215.9 261.7,221 261.9,221.1 262.3,220.9 262.7,220.7 263,220.6 263.4,220.6 263.4,220.6
			263.4,215.9 		"/>
		<polygon fill="#FFFFFF" points="274.9,229.1 274.9,215.9 273.2,215.9 273.2,227.4 269.2,227.4 269.2,215.9 267.4,215.9
			267.4,221.4 267.6,221.3 268,221.3 268.4,221.6 268.5,221.9 268.5,222.3 268.3,222.7 267.9,223 267.4,223.3 267.4,227.4
			263.4,227.4 263.4,224.8 262.6,224.8 262.1,224.9 261.9,225.2 261.7,225.6 261.7,226.9 261.8,227.4 261.8,227.8 261.7,227.8
			261.7,229.1 		"/>
		<polygon fill="#FFFFFF" points="258,221.8 258.4,221.8 258.5,221.7 257.8,221.7 		"/>
		<polygon fill="#FFFFFF" points="257.7,215.9 247.9,215.9 247.8,216.2 247.6,216.7 247.8,217.1 247.8,217.1 247.8,217.1
			248.1,217.5 248.6,217.5 249,217.4 249.4,217.1 249.4,217.1 249.5,217.1 249.8,217 250.5,216.6 251.1,216.6 252.3,217.1
			252.9,217.7 257.7,217.7 		"/>
		<polygon fill="#FFFFFF" points="256.6,221.7 256.8,221.7 256.4,221.7 		"/>
		<polygon fill="#FFFFFF" points="274.9,235.5 274.9,233.8 263.9,233.8 264.3,234.2 264.4,234.9 264.3,235.3 264.1,235.5
			274.9,235.5 		"/>
		<path fill="#DA0000" d="M438.7,264c0,0,33.3,26.1,8.8,63.6C470.6,313.5,472.6,274.7,438.7,264z"/>
		<path fill="#DA0000" d="M420,260.3c5.3,6,14.4,0,11.3-6.5c-5.5,9.8-11.3,1.9-11.3,1.9s-5.8,8-11.3-1.9
			C405.6,260.3,414.7,266.3,420,260.3z"/>
		<path fill="#DA0000" d="M449,296.8c-1.3-24.4-14.2-31.8-14.2-31.8s23,33.7-10.8,61.8l1.5-34.8v-25.6c-1.9-0.5-5.4-4.5-5.4-4.5
			s-3.5,4.1-5.4,4.5V292l1.5,34.8c-33.9-28.2-10.8-61.8-10.8-61.8s-12.9,7.4-14.2,31.8c-0.4,24.1,21.5,36,21.5,36
			c-2,1-7.4,2.7-17.1,2.7c11.8,4.1,20.8,1.1,20.8,1.1l3.8,5l3.8-5c0,0,9,3,20.8-1.1c-9.7,0-15.1-1.7-17.1-2.7
			C427.5,332.8,449.4,320.9,449,296.8z"/>
		<polygon fill="#DA0000" points="420,341.6 420,341.6 420,341.6 		"/>
		<path fill="#DA0000" d="M401.3,264c-33.9,10.7-31.9,49.5-8.8,63.6C368,290.1,401.3,264,401.3,264z"/>
	</g>
	<path fill="none" stroke="#878787" stroke-width="0.25" stroke-linecap="round" stroke-linejoin="round" d="M454.1,450.6l-0.2-0.1
		l-0.2,0.2l-0.2,0.1l-0.1,0.2l0.1,0.2l0.1,0.1l0.2,0l0.2,0l0.2-0.1l0-0.1l0-0.1L454.1,450.6z M324.3,353.1l0.2-0.2l0-0.1l0,0l0,0.1
		l0.2,0h0.3v-0.1l0-0.2l0-0.2l-0.1-0.1l0.1,0l0-0.1l0-0.1l-0.1,0l-0.2,0h-0.1l-0.1,0.1h-0.1l-0.1-0.1l-0.1,0h0l-0.2,0l0,0.2
		l-0.1,0.1l0,0.1l0,0.1l0,0.3l0.1,0.1l0.1,0.1l0.1-0.1L324.3,353.1L324.3,353.1z M351.1,381.1L351.1,381.1l-0.3-0.1l-0.3-0.1l0,0.5
		l0.3,0.7l0.3,0.5l0.1-0.4l0.1-0.5l0-0.5l-0.1-0.3L351.1,381.1z M427.7,445l-0.2-0.1l0-0.2l0-0.2l-0.1-0.1l-0.3-0.1l-0.8-0.1
		l-0.3-0.1l-0.4,0l-0.4,0.1l-0.3,0.2l-0.2,0.3l0.4,0.7l0.7,0.3l1.7,0.1l0.2-0.1l0.1-0.3l0-0.3L427.7,445z M478.3,431.8l-0.2-0.1
		l-0.2-0.1l-0.4,0.1l-0.4,0.5l0,0.6l0.7,0.2l0.3-0.1l0.3-0.1l0.2-0.2l0.1-0.3l-0.1-0.3L478.3,431.8z M475.7,436.6l-0.5,0.2l-0.3,0.4
		l-0.1,0.6l0.4,0.2l0.8-0.3l0.6-0.5l-0.1-0.7L475.7,436.6z M413.2,438l-1.5-0.1l-1.7-0.5l-0.2,0l-0.2,0.1l-0.1,0l-0.1,0.1l0.2,0.2
		l0.7,0.5l0.3,0.2l0.4,0.2l1.2,0.2h0.4l0.4-0.2l0.2-0.1l0.8,0.1l0.3-0.1l-0.4-0.4L413.2,438z M437.6,451.2l0.1,0l0.4-0.9l-0.1-0.2
		L438,450l-0.1-0.1l-0.1-0.1l-0.2-0.2l-0.2,0l-0.2,0.1l-0.1,0.2l-0.1,0.3l0,0.2l0,0.2l0,0.3l0.1,0.1l0.2,0.1L437.6,451.2z
		 M419.4,441.2l-0.2,0l-0.4,0l-0.2,0.3l0.2,0.3l0.4,0.2l0.4,0l0.3-0.3l-0.2-0.3L419.4,441.2z M465.9,441.4l-0.2,0l-0.3,0.3l-0.3,0.5
		l0,0.5l0.3,0.2l0.4-0.2l0.3-0.5l0-0.5L465.9,441.4z M438.1,458.6l-0.5,0.1l-0.3,0.1l0.1,0.3l0.3,0.2l0.3,0.1l0.2-0.2l0-0.4
		L438.1,458.6z M473.4,434.3l-0.5-0.2l-0.4-0.1l-0.8,0l-2.7,0.6l-2.2,1.4l-0.8,0.2l-2.9-1.1l-0.5,0.3l0.1,0.2l0.3,0.3l0.4,0.3
		l0.2,0.4l0.1,1l-0.1,0.4l-0.3,0.4l0.1,0.2l0.1,0.2l-0.2,0.1L463,439l-0.2,0.1l-0.2,0l-0.4,0l-0.2,0l-1.3,0.5l-0.4,0.3l-1,0.6
		l-0.3,0.1l-0.4,0l-2.8,0.9l-1.1,0.6l-0.2-0.1l-0.2,0.1l-1-0.3l-0.2,0.2l0.2,0.7l0.1,0.1l0,0.3l-0.1,0.4l0.1,0.6l0.1,0.3l0.2,0.1
		l0.2,0l0.2-0.1l0.2-0.1l0.1-0.2l0.1-0.2h0.2l0.2,0.1l0.2,0l0.2-0.1l0.4-0.2l0.9-0.2l1.3-0.1l0.4-0.2l0.7-0.5l1.2-0.5l1.1-0.8
		l0.4-0.2l0.4-0.1l0.9,0.1l0.4,0l0.4-0.2l0.4-0.3l1.4-0.7l0.5,0.4l0.5,0.5l0.5,0.2l0.6-0.4l1-1l0.2-0.1l0.2-0.2l0.8-0.4l0.2-0.2
		l0.1-0.3l0.9-0.9l0.2-0.4l0.5-1l0.5-0.4l1.3-0.3l0.7-0.4l-0.2-0.4L473.4,434.3z M618.4,429.8l-0.3-0.4l-0.2-0.2l-0.2-0.1l-0.5-0.2
		l-0.2-0.1l-0.5-0.5l-0.3-0.1l-0.2,0l-1.1,0.4l-0.3,0l-0.3,0l-0.5,0l-1.1,0.3l-0.5,0.1l-1.2,0.2l-0.6,0l-0.7-0.1l-0.5-0.3l-0.2-0.1
		l-0.1,0l-0.3,0.2l-0.2,0l-0.3-0.2l-0.9-0.8l0.3,0l0.2-0.2l0.1-0.3l0.1-0.3l0-0.4l-0.1-0.3l-0.4-0.5l1.1-2.4l0.1-1l-0.1-1.2
		l-0.2-2.1l-0.1-1.2l-0.2-1.9l-0.1-1.4l-0.5-2.2L607,411l0.3-2.6l0.3-2.4l-0.1-0.8l-0.5-0.3l-3.4,0.7l-0.4-0.3l-1.3-1.4l-0.3-0.5
		l-0.1-0.4l-0.1-0.2l-0.2-0.1l-0.3-0.1l-0.3-0.2l-0.2-0.3l-0.2-0.3l-0.2-0.3l-0.6-0.3l-2.7-0.6l-1.7-0.8l-0.7-0.1l-1.4-0.1l-0.6-0.2
		l-1-0.6l-1.2-0.3l-0.4-0.2l-0.7-0.7l-1.3-1.2l-0.9-1.1l-2.1-1.9l-0.6-0.7l-0.6-1.3l-0.6-0.7l-0.1-0.3l-0.1-0.4l-0.1-0.5l-0.9-2
		l-0.2-0.2l-0.2-0.2l-0.3-0.1l-0.2-0.1l0-0.1l0.1-0.1l0.2-0.2l0.2-0.2l0.1-0.2l-0.1-0.2l-0.2-0.2l-0.4-0.2l-0.2-0.3l-0.1-0.4
		l-0.2-0.3l-0.2-0.1l-0.2,0l-0.2-0.1l-0.2-0.2l-0.1-0.3l-0.1-0.6l-0.1-0.3l-0.3-0.4l-0.7-0.7l-0.2-0.5v-0.5l0.2-0.8l0-0.5l-0.2-0.6
		l-0.4-0.3l-0.4-0.2L577,378l-1.7-2l-1.6-1.9l-1.6-1.9l-1.3-1.6l-1.1-1.3l-1.7-2l1.2-1.4l1.6-1.8l0,0l3.2-3.8l1.7-2l1.2-1.4l2.2-2.7
		l1.7-2v0l2.4-2.8l2.6-3.1l1.7-2l0.3-0.4l0-0.1l0,0l0-0.4l0.1-0.2l0.1-0.1l-0.1-1.6l-0.1-0.3l0.4-0.8l0.1-0.5v-0.5l-0.1-0.5
		l-0.3-0.8l-0.4-0.8l0-0.2l0-0.7l-0.2-0.5l-0.5-0.9l-0.2-0.5l0-0.5l0.1-1l-0.1-0.4l-0.7-0.9l-0.4-0.3l-0.5-0.2l-3.5-0.5l-4-0.6
		l-3.5-0.5l-3.5-0.5l-2.1-0.3l-0.7-0.3l-0.2-2.3l-0.3-1.2l-0.1-0.6l0.3-1.8l-0.3-2.2l0-1.2l0.1-1.5l0-0.5l-0.1-0.3l-0.1-0.2l0-0.2
		l0.2-0.5l-0.1-0.1l-0.2-0.1l-0.1-0.1l0.2-0.4l0.5-0.7l0.1-0.4l0.3-1.9l0-2l-0.7-2.6l-0.9-3.4l-0.8-2.8l-0.8-2.6l-0.7-2.4l-0.7-2.4
		l-0.6-2l-0.3-1.6l0-1.9l0.1-0.3l1-1.3l1.1-1.5l1-1.4l0.8-1.1l0.6-0.5l0.7-0.4l0.2-0.3l0.1-0.5l0-0.4l-0.1-0.4l0.1-0.3l0.4-0.2
		l1-0.1l0.3-0.1l0.2-0.3l-0.2-0.3l-0.3-0.3l-0.3-0.2l-0.7-0.2l-0.8-0.1l-1.5,0.1l-1.6-0.1l-1.7-0.7l-1.3-1.2l-0.5-1.8l0.2-0.8
		l0.6-1.4l0-1l-0.6-3.8l-0.3-2.5l0.1-1.1l0.6-1.2l0.7-0.8l0.7-0.7l1-0.5l0.3-0.4l-0.1-0.5l1.5-0.1l2.1-0.1l1.5-0.1l-0.2-0.5l-1.5-2
		l-0.3-0.6l-0.2-0.3l-0.3-0.2l-0.5-0.2l-0.2-0.2l-0.2-0.6l-0.1-0.2l-0.2-0.1l-0.2,0l0.3-0.5l0.5-0.3l1.1-0.2l0.5-0.1l0.4-0.3
		l0.9-1.1l0.1-0.2l0.1-0.2l0.3-0.2l0.3,0l0.3,0l0.2-0.1l0.2-0.3l0.1-0.6l-0.1-0.6l0-0.6l0.4-0.4l0.7-0.5l0.4-0.7l0.1-0.4l0.6-0.2
		l0.2-0.8l0.1-0.9l0-0.2l-0.1-0.5l0-0.3l0.1-0.3l0.3-0.5l0.1-0.2l0.1-0.5l0.3-0.9l0.1-1l0.2-0.4l0.5-0.7l-0.2-0.2l0-0.2l0.1-0.2
		l0-0.3l-0.1-0.1l-0.7-1l-0.1-0.2l0.1-0.1l0.2-0.1l0-0.2l-0.1-0.2l-0.1-0.1l0-0.2l0-0.5l0.1-0.5l0.3-0.2l0.4,0l0.5-0.1l0.4-0.2
		l0.2-0.4l-0.1-1.3l0.1-0.5l0.1-0.3l0.4-0.6l0.1-0.3l0.2-0.8l0.2-0.5l0.5-0.6l0.3-0.5l0.1-0.5l-0.1-0.5l-0.2-1l-0.2-0.2l-0.5-0.8
		l-0.3-0.6l-0.1-0.7l0.1-0.2l0.3-0.3l0.1-0.2l0-0.4l0-0.1l0.1-0.6l0-0.3l-0.1-0.2l0.1-0.6l0-0.4l-0.1-0.4l-0.1-0.9l-0.1-0.5
		l-0.2-0.4l-0.2-0.4l-0.3-0.4l-0.4-0.3l-0.4-0.2l-0.5-0.1l-0.3-0.1l0.2-0.3l0.4-0.3l0.3-0.3l0-0.2l-0.1-0.5l0.1-0.3l0.1-0.1l0.2-0.1
		l0.2-0.1l0.1-0.3l0-0.2l0-0.3l0.1-0.2l0.1-0.2l0.2-0.3l0-0.2l0-0.1l-0.1-0.8l-0.3-1.6l-0.3-0.5l-0.1-0.2l0-0.6l0-0.3l-0.1-0.3
		l-0.1-0.1l-0.1-0.2l-0.2-0.1l-0.2-0.1l0.1-0.2l0-0.1l0.1-0.1l-0.3-0.7l0.1-1.2l0.4-2.1l-0.1-0.4l0-0.3l0.1-0.3l0.1-0.2l0.1-0.2
		l0.1-0.3l0-0.3l0-0.3L575,202l-0.2-0.4l-0.2-0.9l-0.8-0.1l-1-0.2l-2.1,0l-2.4,0l-4.4,0.1l-2.9,0.1l-3.3,0.1l-0.7-0.4l-0.4-0.7
		L556,198l-0.4-0.7l-2.2-2.7l-1-1.5l-0.8-1.6l-0.6-0.8l-0.8-0.3l-1.7-0.3l-0.8-0.4l-1.4-1.1l-3-1l-0.2,0l-0.2,0.1l-0.2,0.4l-0.1,0.2
		l-0.2,0l-0.3-0.2l-0.1-0.4l-0.1-0.5l-0.1-0.4l-0.3-0.4l-0.3-0.1l-0.7,0.3l-0.2,0l-0.2-0.1l-0.2-0.1l-0.1-0.1l-0.3-0.1l-0.1-0.2
		l0.1-0.2l0-0.2l0-0.1l0.1-0.1l0-0.1l-0.1-0.2l-0.4-0.4l-1.3-1.1l-0.2-0.4l-0.4-1.8l0-0.5l0.1-0.3l0.1-0.3l0.1-0.2l-0.1-0.2
		l-0.1-0.3l0.1-0.6l-0.1-0.3l-0.4-0.6l-0.4-0.4l-0.5-0.1l-1.2,0.5l-0.4,0l-2.8-2l-0.7-0.7l-0.2-0.1l-0.6-0.1l-0.3-0.1l-0.3-0.2
		l-0.8-0.4l-1.6-0.4l-1.2-0.7l-0.1,0.2l-0.1,0.4l-0.3,0.3l-0.2,0.1l-0.2,0l-0.4-0.1h-0.2l-0.1,0.1l-0.1,0.2l-0.2,0.1l-0.5,0
		l-0.5-0.1l-0.9-0.4l-1-0.9l-0.3-0.2l-0.4,0l-0.3,0.2l-0.2,0.4l-0.2,0.4l-0.3,0.4l-0.4,0.2l-1.9,0.2l-0.3-0.1l-0.5-0.4l-0.3-0.1
		l-1.6-0.2l-0.4-0.1l-0.3-0.3l-0.1-0.3l0-0.4l-0.1-0.5l-0.1-0.2l-0.3-0.6l0-0.2l0-0.2v-0.2l-0.2-0.2l-0.3-0.2l-0.3-0.1l-0.7-0.1
		l-1.4-0.3L507,169l-0.7-0.2l-0.3,0l-0.3,0.1l-0.3,0l-0.3-0.1l-0.1-0.2l-0.2-0.4l-0.1-0.1l-0.2,0l-0.3,0.1l-0.2,0l-0.3-0.2l-0.3-0.2
		l-0.3-0.2l-0.3,0l-0.3,0.1l-1,0l-1.1-0.3l-0.3,0l-0.4,0.1l-0.3,0.1l-0.3,0l-3-1.2l-0.5-0.7l0.4-1.4l0.1-0.4l-0.1-0.5l-0.4-0.6
		l-0.2-0.8l-0.7-0.7l-0.2-0.4l-0.4-0.9l-0.5-0.8l-0.1-0.2l0-0.2l-0.1-0.2l-0.2-0.1l-0.4-0.2l-0.2,0l-0.2,0l-0.4,0.2l-0.2,0.3
		l-0.4,0.7l-0.2,0.3l-0.7,0.4l-0.3,0.3l-0.4,0.2l-0.4-0.1l-0.8-0.3l-3.1-0.6l-0.3-0.1l-0.7-0.4l-0.8-0.7l-0.2,0l-1,0.2l-1.7,0.7
		l-0.3,0.1l-0.3-0.1l-0.3-0.2l-0.3-0.2l-0.3-0.1l-1.9,0.1l-0.7,0.3l-0.7,0.5l-1.3,1.2l-0.1,0.4l0.6,0.6l0.1,0.5l-0.1,0.5l-0.2,0.4
		l-0.3,0.2l-1.8,0.3l-0.3,0l-0.7-0.3l-0.8-0.1l-2.9,0.5l-0.3,0l-0.3-0.1l-0.6-0.3l-0.3-0.1l-1.1,0l-0.3-0.1l-0.8-0.5l-1.3-0.3
		l-0.6,0l-4.1,0.9l-1.3,0.1l-0.5,0.2l-1.5,1.2l-0.4,0.2l-0.4,0.3l-0.2,0l-0.9,0.3l-0.4,0.2l-0.2,0.4l-0.3,0.1l-1.2,0.2l-0.4,0.1
		l-0.2,0.2l-0.2,0.5l-0.2,0.2l-0.2,0.1l-0.3,0l-0.2,0.1l-0.1,0.4l-0.2,0.3l-1,1.1l-3.1,2.1l-0.6,0.7l-0.3,0.4l-0.1,0.4l-0.1,0.5
		l-0.3,0.8l0,0.5l0.1,0.1l0.2,0.2l0.1,0.2l0,0.2l0,0.6l-0.1,0.4l-0.3,0.7l-0.1,0.4L443,178l-0.5,0.4l-1,0.6l-0.3,0.2l-0.4,0.2
		l-0.5,0.5l-0.3,0.1l-0.5,0l-1.3-0.3l-0.5,0.1l-3.5,2l-0.7,0.2h-0.5l-0.5-0.1l-0.4,0l-0.4,0.3l-0.4,0.4l-0.4,0.2l-0.4,0l-5.6-0.5
		l0.2,2.2l0.1,0.4l0.6,1.7l0.5,2.2l0.3,0.9l0.5,0.8l-0.5,0.9l-0.1,0.4l0.4,0.2l0.3,0.2l0.1,0.4l0,2.7l-0.1,0.4l-0.2,0.2l-2.6,0.7
		l-0.4-0.1l-0.3-0.2l-3.2-0.3l-0.8-0.4l-0.5-0.7l0.2,0l0.4-0.1l-0.7,0l-0.3-0.1l-0.2-0.3h1.1l1.2,0.2l0.3-0.1l0.6-0.2l0.3,0l0.6,0.2
		l0.3,0l0.3-0.1l0.9-0.3l1.5-0.2l1.2-0.4l0-1l-1,0.8l-1.5,0.4l-8.1,0.5l-0.9,0.2l-6.8,1.5l-3.4,1l-3.5,1.1l-3.5,0.7l-3.7,0.7
		l-3.5,0.9l-3.4,1.2l-3.8,0.5L380,201l-3.8-0.7l-3.7-1.1l-5.8-1.1l-1.7-0.8l-3-2.1l-3.2-1.8l-0.3-0.3l-0.6-0.7l-0.3-0.1l-0.4-0.1
		l-2.3-1.5l-0.4-0.1l-0.3-0.2l-1-1.2l-1.5-1.1l-0.7-0.7l-0.6-1l-0.5-1.4l-0.3-0.5l-0.2-0.4l-0.3-0.9l-0.2-0.4l0.1-0.9l-0.7-0.6
		l-1-0.4l-2.7-0.6l-1.7-0.7l0.2-0.2l0.1,0l0.2,0.1l0.2,0l-0.7-0.4l-0.7,0.1l-0.7,0.3l-0.9,0.1l-7.9-1.1l-1.6-0.5l-3.3-1.7l-1.5-1.1
		l-1.4-1.4l-1-1.6l-0.4-1l-0.2-1l0-0.2l0.1-0.2l0-0.3l-0.7-1.2l-0.2-0.4l-0.1-0.6l0-0.6l0.2-0.5l-0.9-3l-0.3-3.2l-0.4-1l0-1.4
		l-0.1-0.6l0.2-0.8l-0.1-2.3l-1.3-0.3l-0.7,0l-0.5,0.3l-0.4,0.4l-0.5,0.3l-0.6,0.2l-0.5,0.1l-1.1-0.1l-0.7-0.6l-0.6-0.9l-0.8-1
		l-0.3-0.4l-0.3-0.4l-0.3-0.5l-0.3-0.3l-0.3-0.4l-0.1-0.7l-0.2-0.6h-0.5l-1,0.5l-0.6,0l-0.4-0.4l-0.3-0.5l-1-0.8l0-0.4l0.1-0.5
		l-0.2-0.6l-0.3-0.2l-2.7-1.3l-1.3-1.1l-0.4-0.8l0-1.1l0.2-0.3l1.1-0.7l0.1-0.2l0-0.2l0.1-0.2l3.8-0.7l0.8-0.5v0l0,0v0l0.2-0.3
		l0.2-0.3l0.1-0.4l0-0.4l-0.1-0.3l-0.6-1.3l-0.3-0.3l-1.2-0.5l-1.2-1.1l-0.5-0.7l-0.3-0.7l0-0.9l0.4-0.8l0.6-0.6l0.7-0.4l1.3-0.3
		l1.1-0.7l0.8-0.2l-0.5-1l-0.6-0.8l-1.4-1.3l-3.5-4.2l-1.3-1.2l-0.4-0.3l-0.3-0.1l-0.2,0.4l-0.2,0.2l-0.3,0.1l-1.6,0l-0.5,0.1
		l-0.4,0.3l-1.2,1.2l-2.8,1.6l-1.1,1.1l-0.3,0.2l-0.5,0.1l-1.4,0.5l-0.9,0.5l-0.7,0.6l-1,1.3l-0.7,0.7l-0.9,0.5l-2.1,0.8l-1,0.6
		l-0.2,0.2l-0.1,0.3l-0.7,1.2l-0.3,1l-0.1,0.2l-0.2,0.3l-1.4,0.8l-0.3,0l-0.3-0.1l-0.6-0.3l-0.3,0l-0.3,0.2l-0.3,0.3l-0.3,0.3
		l-0.5,0.9l-0.1,0.2l-0.2,0.1l-0.3,0.2l-0.2,0.1l-0.3,0.4l-0.3,0.8l-0.3,0.3l-1.2,0.6l-0.4,0.3l-0.3,0.4l-0.6,1.2l-0.2,0.4l-0.3,0.3
		l-0.3,0.3l-0.3,0.2l-0.4,0.2l-0.4,0l-0.4-0.1l-2.2-1l-0.3-0.1l-0.2,0l-0.5,0.2l-0.8,0l-0.3,0.1l-0.4,0.2l-1.1,0.8l-0.4,0.2
		l-1.4,0.2l-0.2,0l-1.2-0.3l-1.4-0.6l-4.3-0.9l-1.5-0.6l-1.8,0l-1.2-0.3l-0.6,0l-0.3-0.1l-0.4-0.2l-0.6-0.2l-0.5-0.2l-0.4-0.3
		l-0.2-0.3l0-0.3l0.1-0.2l0.1-0.2l0-0.3l-0.1-0.2l-0.5-0.2l-0.2-0.1l-0.1-0.2l-0.2-0.6l-0.1-0.2l-0.2-0.2l-0.2-0.1l-0.2-0.1
		l-0.1-0.3l0.2-0.4l-0.1-0.3l-0.3-0.2l-0.3-0.1l-0.2-0.1l0-0.2l0.1-0.2l-0.1-0.2l-0.2,0l-0.2,0.1l-0.1,0.1l-0.1,0l-2.2-0.7l-0.5,0.2
		l-0.1-0.4l-0.2-1.3l-0.1-0.3l-0.2-0.3l-0.5-1.1L243,130l-0.2-0.1l-0.2-0.3l-0.2-0.3l-0.1-0.2l-0.1-0.1l-0.7-0.5l-0.1-0.1l0-0.1
		l-0.1-0.1l-0.2,0l-0.2,0l-0.1,0l-0.5-0.4l-0.1-0.2l0.2-0.3l-0.4-0.4l-0.3-0.5l-0.6-2.6l-0.2-0.6l-0.4-0.3l0.1-0.1l0.1-0.1l-0.5,0
		l-0.4-0.1l-0.4-0.2l-0.1-0.1l-1.7-1.2l-0.4-0.3l-1.2-0.6l-0.3-0.3L233,119l-0.3-0.2l-0.5,0.2l-2.2,1.8l-0.1,0.3l0.1,0.9l0,0.4
		l-0.1,0.3l-0.7,1.4l-0.1,0.4l0,0.4l0,0.4l0.1,0.3l0,0.3l-0.2,0.3v0l-0.1,0.6l0.1,0.5l0,0.5l-0.3,0.5l-0.4,0.3l-1.1,0.5l-0.4,0.1
		l-0.5,0l-1.4-0.7l-0.5-0.1l-1.1,0.3l-0.5,0.1l-0.5-0.1l-0.3,0l-0.3,0.1l-0.4,0.3l-0.2,0.3l0.1,0.3l0.5,0.6l0.1,0.3l0.1,0.6l0.2,0.5
		l0,0.2l0,0.2l0,0.2l0.1,0.2l0.3,0.5l0,0.2l-0.1,0.5l0,0.2l0.5,0.4l0.9,0.5l0.8,0.6l0.2,0.7l-0.4,0.8l-0.1,0.4l0.2,1l-0.2,0.3
		l-0.3,0.3l-0.3,0.5v0l0.1,0.2l0.1,0.2l0.1,0.4l0.1,0.2l0.2,0.1l0.2,0.2l0,0.2l0,0.2l0.1,0.2l0.1,0.2l0.2,0.6l0.3,0.4l0.3,0.3
		l1.1,0.5l0.1,0.8l-0.6,1.9l-0.1,0.5l0,0.3l0.1,0.3l0.1,0.5l-0.1,0.2l-0.2,0.2l-0.1,0.2l0.3,0.1l0.4,0.1l0.2,0.1l0.2,0.2l0.1,0.4
		v0.5l-0.1,1l0.2,1.3l0,0.4l-0.3,1.1v0.3l0.1,0.7l0,0.2l-0.1,0.4l0.1,0.2l0.2,0.1l0.3,0.1l1,0.2l0.7-0.4l0.3-0.1l0.3,0.1l0.3,0.2
		l0.3,0.4l0.2,0.4l0,0.4l-0.5,0.7l-0.7,0.6l-0.6,0.7l0.1,1.3l-0.1,0.5l-0.1,0.5l-0.1,0.4l-0.2,0.2l-0.4,0.2l-0.2,0.1l0,0.2l0.2,0.5
		l-0.1,0.2l-0.4,0.2l-0.3,0.2l-0.2,0.3l-0.2,0.5l-0.2,0.4l-0.5,0.6l-0.2,0.4v0l-0.2,0.3l-0.1,0.3l0,0.3l0.1,0.4l0,0.3l-0.2,0.3
		l-0.2,0.3l-0.1,0.3l0.4,0.6l0.7,0.1l1.3-0.2l0.2,0.1l0.7,0.4l0.2,0.2l0.1,0.2l0.1,0.3l0.1,0.3l0.2,0.3l0.2,0.1l0.1-0.1l0.1,0
		l0.2,0.1l0,0.1l-0.1,0.4l0,0.2l0.2,0.3l0.3,0l0.3-0.1l0.3-0.1l0.6-0.1l0.6,0.3l0.5,0.4l0.8,0.9l0,0.2l-0.2,0.3L232,174l-0.2,0.2
		l-0.1,0.8l0.4,0.5l0.5,0.4l0.1,0.4l-0.2,0.5l-0.1,0.6l0,0.6l0.1,0.5v0l0.1,0.4l-0.3,0.8l0.1,0.4l0.3,0.2l0.8,0.1l0.3,0.2l0.3,0.7
		l0.2,0.2l0.7-0.1l0.2,0.2l0.1,0.4l0.2,0.3l1.2,0.8l0.5,0.5l-0.1,0.8l-0.2,0.3l-0.3,0.2l-0.3,0.2l-0.1,0.5l0.1,0.5l0.2,0.4l0.1,0.4
		l-0.1,0.5l-0.3,0.7v0.3l0.2,0.5l0.1,0.2l0.2,0.1l0.2,0.1l0.2,0.1l0.1,0.2l0.1,0.4l0.1,0.1l0.2,0l0.4-0.1l0.2,0l0.1,0.1l0.2,0.3
		l0.4,0.2l0.1,0.2l0,0.3l-0.2,0.3l-0.1,0.7l0.1,0.5l0.2,0.4l0.1,0.6l-0.1,0.6l-0.3,0.5l-0.7,0.9l-0.2,0.6l0.2,0.4l0.4,0.3l0.5,0.1
		l0.6,0l0.3,0l0.3,0.2l0.2,0.2l0.2,0.2l0.2,0.1l0.3,0l0.3,0.2l0.3,0.4l0.5,0.9l0.2,0.6l0,0.5l-0.4,0.9l-0.2,0.9l0,0.5l-0.1,0
		l-0.3,0.1l-0.1,0.1l0,0.4l0.3,0.4l0.4,0.3l0.3,0.3l0,0.4l0.1,0.2l0.2,0.2l0.2,0.2l0.1,0.3l0,0.3l0.1,0.2l0.2,0.3l0.6,0.3l0.6-0.1
		l1.2-0.5l0.5,0l0.4,0.5l0.2,0.6l0.1,0.6l0.1,1.1l0.1,0.4l0.4,0.5l-0.5,0.3l0.1,0.3l0.4,0.3l0.3,0.3l0.1,0.5l-0.1,1.2l0.1,0.5
		l0.6,0.8l0.3,0.5l-0.1,0.5l-0.3,0.4l-0.3,0.5l-0.1,0.5l0.1,0.4v0l0,0l0.4,0.4l0.4,0.1l0.5-0.2l0.4-0.3v0h0l0.4-0.1l0.7-0.3l0.5,0
		l1.3,0.5l0.8,0.7l0.3,0.2l0.6,0.1l0.6,0.6l1,1.4l0.5,1.3l0.3,0.3l0.4,0.1l0.8-0.2l0.2,0l0.3,0.2l0.4,0l0.4-0.2l0.5-0.4l0.2,0
		l0.2,0.1l0.2,0l0.7-0.2l1.3,0.1l0.4-0.1l0.4-0.2l0.3-0.1l0.3,0l0.6,0.2l0.1,0l0.1,0.1l0.1,0.5l0.1,0.2l0.1,0.1l0.2,0.1l0.4,0.2
		l0.4,0l0.9-0.2l0.4-0.1l0.4-0.2l0.4-0.2l0.4,0l0.3,0.2l0.2,0.3l0,0.4l-0.2,0.4l-0.3,0.3l-0.6,0.4l-0.3,0.4l-0.3,0.3l-0.4,0l-0.8,0
		l-1,0.6l-0.4,0.1l-1.4,0l-0.4,0.1l-0.3,0.3l-0.2,0.4l-0.1,0.4v0.4l0.2,1l-0.1,0.3l-0.6-0.2h-0.1l-0.1,0l0.2,0.5l0.2,0.5l0.1,0.1
		l0,0.1l0,0.1l-0.1,0.1l-0.2,0.1l-0.1,0.2l-0.1,0.2l0,0.2l0.3,0.7l1.3,2.1l1.1,1l0.5,0.6l0.2,0.7l-0.2,0.4l-0.3,0.3l-0.2,0.3
		l0.1,0.4l0.3,0.2l0.8,0l0.3,0.3l-0.1,0.7l-0.4,0.8l-0.3,0.7l0.4,0.5l-0.2,0.3l-0.2,0.1l-0.3,0.1l-0.5,0.2l-0.4-0.1l-0.2,0l-0.5,0.3
		l-0.3,0.3l-0.3,0.1l-0.6-0.3l-0.3,0l-0.2-0.1l-0.4-0.3l-0.3-0.1L260,240l-0.3,0.5l0,0.1l0.1,0.3l0,0.1l-0.1,0.1l-0.3,0l-0.1,0
		l-0.2,0.2l-0.1,0.3v0.3l0.1,0.3v0l0.2,0.6l-0.1,0.5l-0.2,0.5l-0.2,0.6l-0.3,0.4l-0.6-0.2l-0.6-0.3l-0.5,0l-0.1,0.5l0,0.6l-0.1,0.6
		l-0.6,0.4l-0.6,0.1l-0.3,0.1l-0.2,0.3l-0.1,0.3l0,0.5l-0.1,0.3l-0.6,0.7l-0.2,0.4l0.3,0.3l0.2,0.1l0.2,0.1l0.2,0.2l0.1,0.2l0.1,0.3
		l0.1,0.2l0.1,0.1l0.1,0.2l0.1,0.5l0,0.5l0.1,0.4l0.2,0.3l0.1,0.2l0,0.3l-0.1,0.3l-0.1,0.2l-0.1,0l-0.5-0.2l-1.4-0.1L253,253
		l-0.7-0.4l-0.8-0.2l-0.1,0.7l0.2,1l0,0.7l-0.1,0.2l-0.1,0.2l-0.1,0.2l-0.2,0.1l-1.1,0.2l-0.2,0.3l0.6,2l0.3,0.5l0.4,0.3l0.4-0.3
		h0.5l0.4,0.3l0.3,0.5l0.1,0.6l0,0.6l-0.3,1.2l-0.1,0.2l-0.3,0.5l0,0.2l0.1,0.3l0.2,0.2l0.1,0.2v0.3l-0.2,0.3l-0.8,0.7l-0.3,0.3
		l-0.5,0.4l-0.2,0.5l-0.2,0.6l-0.3,0.7h0l-0.2,0.2l-0.2,0.1l-0.4,0.2l0.4,0.6l0.5,0.3l0.5,0l0.6-0.1l0.1,0l0,0l0,0l1.8,3.3l0.3,0.3
		l0.3,0.3l0.3,0.3l0.2,0.4l0.1,0.5l0.1,0.4l0.2,0.4l0.3,0.4l0.3,0.3l1,0.7l0.1,0.4l0,0.9l0.1,0.2l0.4-0.1l0.3-0.2l0.6-0.6l0.4-0.2
		l1,0l0.4-0.1l-0.1,0.8l0.4,0.4l0.4,0.3l0.1,0.5l-0.3,0.4l-1,0.6l-0.3,0.4l0.4,0.3l0.6,0.1l0.6-0.1l0.4-0.4l0.1-0.1l0.1,0l0.1,0
		l0.1,0.1l0.1,0l0.1,0l0.7,0.9l0.2,0.4l0.2,0.5l0.1,0.5l0,0.4l0.1,0.4l0.7,0.7l0.8,1.2l0.7,0.5l0.3,0.3l0.2,0.4l0,0.3l-0.1,0.5
		l0,0.2l0.1,0.2l0.2,0.1l0,0.2l-0.1,0.3l-0.3,0.3l-0.5,0.6l-0.4,0.3l-0.3,0.1l-0.3,0l-0.4,0l-0.4,0.2l0,0.3l0.3,0.2l0.9,0.1l0.4,0.2
		l0.3,0.3l0.1,0.3l-0.1,0.4l-0.3,0.3l-0.3,0.3l-0.3,0.3v0l0.4,1l1.2,0.1l2.4-0.3l2.2,0.7l2,1l0.6,0.6l2,1.2l0.9,0.8l1.3,0.8l0.9,1
		l6.2,5.4l0,0l0.7,0.5l0.6,0.3l0.7,0.1l0.7-0.1l0.4-0.1l0.9-0.5l0.3,0l1.2,0.4l0.4,0.2l0.3,0.3l0.2,0.4l0.3,0.4l0.6,0.4l0.1,0.2
		l0,0.3l-0.1,0.2l-0.1,0.1l-0.2,0.5l-0.1,0.1l0,0.1l0.1,0.3l0.1,0.1l0.6,0.6l0.1,0.1l0.1,0.1l0.4,0.5l0.1,0.1l0.2,0.1l0.1,0.3
		l0.4,0.3l0.1,0.3l0,0.3l-0.1,0.2l-0.1,0.2l-0.1,0.3l0,0.3l0,0.2l0.1,0.1l0.3,0.1l0.3,0.2l0.2,0.2l0.2,0.2l0.3,0l0.4,0.2l0.4,0.5
		l0.5,1.1l0.3,0.4l0.7,0.3l0.2,0.4l0.1,0.4l0.7,1.3l0.1,0.2l0.4,0.2l0.2,0.1l0.1,0.2l0.1,0.4l0.1,0.2l0.3,0.4l0.8,0.6l0.3,0.4
		l0.1,0.5l-0.1,0.5l-3.1,8.5l-0.1,9.9l6.8,0l0.2,0.1l0.1,0.3l-0.1,11.5v0l0,0.7l2.2,0.3l0.2,0.1l0.2,0.1l0.3,0.4l0.3,0.5l0.2,0.5
		l0.2,1l0.1,0.2l0.2,0.2l0.2,0.1l0.2,0l0.2,0l0.8-0.1l0.3,0l0.2,0.1l0.2,0.2l0.4,0.7l0.7,0.8l0.8,0.7l0.1,0.2l0.1,0.2l0,0.3
		l-0.1,0.3l-0.2,0.2l-0.2,0.2l-0.2,0.2l-0.1,0.3l0,0.2l0.3,0.6l0.4,0.5l0.1,0.2l0.1,0l0.4,1.2l0,0.3l0.2,0.5l0.1,0.2l0.1,0.1
		l0.3,0.2l0.3,0.2l0.8,0.2v0l0,0l0,0l0,0l0.1-0.1v0.2l1.5,0.1l0.5-0.1l0.2-0.1l0.2-0.2l0.2-0.2l0.1-0.2l-0.1-0.3l-0.3-0.4l-0.1-0.3
		l0.1-0.4l0.3,0.1l0.9,0.5l1.4,0l0.4,0.2l0.4-0.2l1.4,0.2l0.4-0.1l0.4-0.3l0.3-0.4l0.1-0.5l0-0.3l-0.1-0.5l0-0.2l0.1-0.3l0.2-0.5
		l0-0.3l-0.1-1.1l-0.1-0.5l-0.2-0.4l-0.3-0.4l-0.4-0.3L321,357l-0.2-0.5l0.1-0.1l0.1-0.2l0.1-0.2l-0.2-0.2l0.1-0.3l0.2-0.3l0.1-0.1
		l1.1-1l0.2-0.1l1.1,0.1l0.4,0l0.4-0.4l-0.2-0.4l-0.5-0.3l-0.7-0.1l-0.6-0.2l0.2-0.5l0.6-0.4l0.7,0.1l0.3-0.2l0.3,0l0.4,0.1l0.4,0.1
		l0.1,0l0.2-0.1l0.1,0l0.1,0.1l0.2,0.3l0.1,0.1l0.3-0.1l0.2-0.2l0.2,0l0.2,0.3l-0.1,0.1l0,0.1l0,0.3l0.3-0.2l0.3-0.3l0.2-0.1
		l0.2,0.9l0.2,0.4l0.3,0.2l0.4-0.1l0,0.4l-0.1,0.3l-0.6,0.8l-0.4,0.7l-0.1,0.3l-0.3-0.4l-0.3-0.3L327,355l-0.5,0l-0.3-0.1l-0.9-0.4
		l-0.4-0.1l-0.4,0.1l-0.7,0.2l-0.4,0l-0.8-0.1l-0.3,0.1l-0.2,0.4l0.7,0.2l0.5,0.3l0.4,0.5l0.1,0.8l0.3,0.3l1.4,0.8l0.5,0.2l0.4,0
		l0.2,0.2l0.2,0.3l0.4,0.2l0.3-0.1l0.3-0.3l0.2-0.4l0.1-0.4l0.3,0.2l0,0.2l-0.1,0.2l0,0.2l0,0.4l0,0.1l0.1,0.1l0.3,0.2l0.1,0.1l0,1
		l0.2,0.2l0.5,0l0.4-0.1l0.8-0.3l0.4-0.1l0.2,0l0.3,0.2l0.2,0.1l0.2,0l0.4-0.1l0.2,0l0.4,0l0.2,0.1l0.2,0.1l0.2,0.1l0.1,0.1l0.1,0.1
		l0.1,0.2l0.2,0.4l0,1.1l0.1,0.4l0.6,0.8l0.7,0.1l0.8-0.3l6.5-4.1l0.7-0.3l0.8-0.1l0.7,0.1l0.7,0.3l0.3,0.2l0.1,0.2l0.1,0.4l0.3,0.5
		l0.3,0.4l0.3,0.2l-0.1,0.6l0.5,1.3l-0.2,0.8l0.3,0.1l0.1,0.2l-0.1,0.1l-0.3,0l0.1,0.3l0,0.4l0.1,0.3l0.1,0.1l0.8,0.8l0.8,0.5
		l0.4,0.3l0.5,0.7l0.9,1.7l0.5,0.8l0.6,0.6l0.3,0.4l0.1,0.5l0.2,0.3l1.2,0.5l0.7,0.7l0.3,0.5l0.1,0.4l0.2,0.3l1.1,0.9l0.6,0.9
		l0.1,0.3l0-0.7l0.3,0.2l0.4,0.5l0.3,0.5l0.2,0.6l0.1,0.9l0,0.9l-0.1,0.6l0.2,0.4l0.1,0.1l0.2,0.1l-0.1,0.2l-0.1,1l-0.3-0.3
		l-0.2,0.2l-0.1,0.4l-0.2,0.3l-0.2,0.3l0,0.3l0,0.6l0.2,0.7l0.5,0.4l0.6,0.1l0.5-0.3l0.4-0.1l1.6-0.1l0.5,0.1l0.1,0.1l0,0.2l0,0.4
		l0.1,0.1l0.2-0.1l0.2-0.1l0.1,0l0.3,0.2l0.1,0.2l0.2,0.7l0.4-0.1l0.2,0.3l0.1,0.5l-0.1,0.5l-0.1,0.2l-0.4,0.4l-0.1,0.2l0,0.3
		l0.1,0.2l0,0.2l-0.2,0.2l-0.2-0.4l-0.3-0.4l-0.4-0.3l-0.4-0.1l-0.4,0.3l-0.1,0.6l0.1,0.6l0.2,0.4l1,1.2l0.2,0.5l0.2,0.2l0.4,0.1
		l0.8,0l0.9,0.2l0.7,0.4l0.5,0.6l0.5,0.9l0.3,1l0,3l0.2,0.7l1.3,3.1l0.2,0.2l0.7,0.7l0.7,1.1l0.3,0.3l0.7,0.7l0.4,0.7l0,0.6
		l-0.5,1.3l0,0.6l0.1,0.3l0.2,0.2l1.4,1.4l0.4,0.3l1,0.3l0.5,0.2l0.2,0.4l0.1,0.6l0.2,0.4l0.3,0.4l0.9,1l0.4,0.3l0.6,0.2l0.1,0.1
		l0.1,0.2l0,0.2l0.1,0.1l0.2,0.1l2.3,0.2l0.4,0l1.2-0.3l1,0l0.5,0.1l0.4,0.2l0.3,0.1l1.4-0.2l1,0.1l0.9,0.4l0.8,0.5l2.4,2.3l0.8,0.4
		l3.7,0.8l0.8,0.3l0.7,0.5l1.6,1.6l0.1,0.2l0.3,0.8l0.2,0.3l0.3,0.3l0.8,0.3l0.3,0.3l0.2,0.5l-0.3,0.2l-0.4,0.1l-0.4,0l-0.4,0
		l-0.3,0.1l-0.2,0.3l0,0.5l0.4,0.4l2.7,1.2l0.7,0.5l1.7,1.5l0.9,0.3l0.4,0.3l0.2,0.5l0.2,0.2l1.2,0.3l0.3,0.3l0.2,0.4l0.3,0.3
		l0.4,0.1l0.5,0l7,2.4l0.7,0.4l0.4,0.4l0.2,0.5l0,1.1l0.1,0.5l0.3,0.4l2,1.5l1.6,0.9l1.1,0.9l0.3,0.1l0.5-0.3l0.5,0l0.9,0.3l0.5,0
		l0.8-0.2l0.9-0.1l1.4-0.6l0.4-0.1l0.2,0l0.2,0.1l0.4,0.3l0.2,0.1l0.4,0.1l1.4,0.4l0.4,0l1.6-0.1l0.4-0.1l0.4-0.1l0.4,0.1l0.6,0.5
		l0.4,0.7l0.3,0.7l0.4,0.6l0.7,0.4l1.9-0.1l0.9,0.2l0.6,0.6l0.3,0.7l0.4,0.5l0.9,0.1l1.8-0.2l0.2,0l0.4,0.2l0.3,0l0.2-0.1l0.2-0.1
		l0.1-0.1l0.1-0.1l2.2-1.3l2-1.6l0.2-0.1l1.3-1.2l0.3-0.1l0.9-0.3l0.4,0l0.5-0.1l0.2-0.3l0.1-0.4l0.2-0.4l0.8-0.4l0.9,0.1l1.7,0.6
		l0.9,0l0.9-0.2l0.8-0.4l0.7-0.6l0.3-0.5l0.2-0.7l0.1-0.7l-0.1-0.6l-0.2,0.1l-0.1,0.1l-0.3,0.1l1.1-1.2l0.2-0.2l0.3-0.1l0.7-0.6
		l0.4-0.2h0.2l0.6,0.2h0.8l0.2,0l0.3-0.2l0.2,0l0.7,0l0.2,0l0.9-0.2l0.9-0.1l0.2-0.1l0.4-0.3l0.1-0.1l0-0.1l0.5-0.4l1.4-0.8l0.4-0.3
		l0.2-0.1l0.2,0l0.1-0.1l0-0.2l0.1-0.1l0.4-0.3l0.2-0.1l0.5-0.1l1.3-0.1l0.4-0.2l0.5-0.3l0.7-0.2l1.3-0.1l0.6,0.1l1.1,0.4l0.6,0.1
		l1.3,0.1l0.6,0.1l0.5,0.3l0.1-0.2l0.5,0.1l2.1,0l0.2,0.1l0.2,0.2l0.2,0.2l0.3,0.1l0.6,0l0.3-0.1l0.2-0.2l0.1,0.5l0.3,0.5l0.5,0.3
		l0.6,0.1v0.2l-0.2,0.1l-0.4,0.4l-0.1,0.1l-0.2,0.1l0,0.2l0.1,0.1l0.3-0.1l0,0.2l0,0.2l0.1,0.1l0.4-0.2l0.1,0.1l0.1,0.1l0.1,0.1
		l0.1,0l0.1,0.1l0.1,0.1l0.2,0l0.2,0l0.6-0.3l-0.1,0.2l-0.1,0.2l0,0.2l0.2,0.2l-0.2,0.1l-0.2,0.1l-0.2,0.1l-0.3,0l0.2,0.2l0.6,0.4
		l0,0.4l0.2,0.4l0.7,0.6l0.3,0.4l1.3,5.3l0.1,1.1l-0.3,2.9l0,0.2l0.1,0.5l0.1,0.2l0.1,0.2l0.4,0.4l0.2,0.4l0.1,0.5l0.1,1l0.2,0.1
		l-0.1,0.6l1.4,1.5l0.3,0.7l-0.2,0.5l-0.6,0.7l-0.1,0.5l0,0.3l0.2,0.4l0.1,0.4l0.3,0.8l0,0.3l0,0.1l0.1,0l0.3,0l0.1,0l0.5,0.5l0,0.1
		l0.2,0.2l0.2,0.4l0.3,0.9l0.5,1.2l0.1,1.1l0.1,0.4l0.3,0.2l2.8,0.2l-0.1,0.1l1.4,0.4l0.5,0l0.2,0l0.4-0.1l0.2,0l0.2,0.1l0.4,0.2
		l0.3,0l1.1-0.3l0.5-0.1l0.5,0l0.4,0.1l0.3,0.3l0.2,0.5l0,0.2l0,0.1l0,0.1l-0.1,0.3l-0.1,1h0.3l0.5-0.3l0.7-0.6l0.8-0.4l0.9-0.2
		l0.8,0.2l0.6,0.8l0.6,1.3l0.5,0.6l0.6,0.3l0.7,0.1l0.7,0.2l0.7,0.1l0.8-0.1l0.7-0.5l0.1,0l0.1,0.2l0.2,0l0.2-0.1l0.2-0.1l0.2-0.2
		h0.1l0.1,0.1l0.1,0.1l0.3-0.1l0.5-0.4l0.3-0.1l0.7-0.1l0.6,0l-0.1,0.4l0.4,0.2l1.1,0.1l1.3-0.2l3.8,0.7h1.8l0.2,0.1l0.1,0.2
		l0.1,0.2l0.1,0.2l0.2,0.1l0.7,0l0.8,0.4l0.5,0.6l1,1.5l0.3,0.2l0.3,0.1l0.4,0.1l0.5,0l0.2-0.1l0.2-0.1l0.2,0l0.2,0.1l0.1,0.1l0.2,0
		l0.4-0.1l1.2-0.5l1.7-0.3l2.9-1l0.9-0.1l0.9,0.3l1.2,1.2l0.8,0.4l0.8,0l3.6-0.4l0.3,0.2l0.1,0.4l0.1,0.1l0.8,0.7l0.2,0l0.1-0.1
		l0.1-0.1l1.7-0.4l0.9-0.1l0.8,0.2l0.1,0l0.2,0l0.1,0l0,0.1l0,0.3l0,0.1l0.2,0.3l0.2,0.1l0.7,0.1l0.2,0.1l0.4,0.3l0.1-0.1l0.1-0.4
		l0-0.2l-0.1-0.1v-0.1l0.2-0.2l0.1,0l0.6-0.1l0.7,0l0.4,0.1l0.3,0.1l-0.1,0.1l-0.2,0.4l0.5,0.3l1,0.2l0.4,0.2l1.2,1.1l0.2,0.1l0.3,0
		l-0.1-0.3l-0.4-0.8v-0.1l0-0.1l0-0.1l-0.1-0.1l-0.1-0.1h-0.2l-0.2-0.1l-0.1,0l-0.1-0.1l-0.1-0.5l-0.1-0.1l0-0.2l0.2-0.2l0.3-0.4
		l0.2-0.3l0.4-0.2l1.4-0.4l0.4,0l0.4,0.1l0.3,0.2l0.8,0.7l0.1,0.2l0,1.3l0.1,0.3l0.5,0.7l-0.3,0.3l0.3,0.2l1.9,0.2l2.9,0.7l3.4,0.6
		l3.5,1l0.1,0.1l0.1,0.5l0.1,0.1l0.8,0.3l4.1,0.9l-0.3-0.2l-0.3-0.2l1.1-0.3l0.3-0.2l0.2-0.2l0-0.1v-0.1l0.1-0.2l0.3-0.4l0.1-0.2
		l-0.2-0.2l-0.2-0.1l-0.5-0.2l0.4-0.3l0.3,0l0.3,0.1l0.4,0l-0.1-0.1l-0.2-0.2l-0.1-0.1l0.1-0.1l0-0.4l0.1-0.1l0.2-0.1l0.1,0.1
		l0.1,0.1l0.4,0.3l0,0.4l0.1,0.3l0.6-1.9l0.1-1.9l0.1-2.3l0.1-1.9l0.1-1.3l0.1-0.3l0.1-0.2l0.3-0.3l0.1-0.2l0.1-0.8l-0.2-0.9
		l-0.1-0.8l0.4-0.6l0.4-0.1l0.4,0l0.4-0.1l0.3-0.4l0.1-0.4l0.2-1.6l0.3-1.9l0.2-1.4l0.2-1.2l0.2-1.4l0.2-0.7l0.3-0.6l0.5-0.4
		l2.5-0.7l0.7-0.5l0.4-0.2l0.4-0.1l0.9-0.1l0.2-0.2l0.1-0.6l0.4-0.6l0.8,0.1l0.9,0.3l0.8,0.1l0.4-0.2l0-0.3l-0.2-0.4l-0.1-0.5
		l0.1-0.3l0.7-0.6l0.2-0.4l0-0.1l-0.1-0.1l-0.1-0.2l0-0.2l0.1-0.2l0.2-0.1l0.4-0.2l0.2-0.1l0.3-0.2l0.2-0.1l0.2,0l0.4,0l0.2-0.1
		l0.1-0.1l0.2-0.3l0.2-0.1l0.2-0.1l3.4-0.4l0.4-0.1l0.2-0.1l0.2-0.2l0.2-0.1l0.2,0l0.2,0.1l0.2,0l0.6-0.1l0.2-0.1l0.2-0.1l0.1-0.1
		l0.2-0.4l0.2-0.2l0.2-0.1l1.4,0l1.6,0l1.9,0l0.8,0.1l0.8,0l0.6-0.1l0.2,0l0.2,0.1l0.1,0.1l0.2,0.1l0.2,0l0.5-0.4l0.2-0.9l0.2-3.3
		l0.2-0.4l0.3-0.2l0.8-0.1l0.3-0.3l0.1-0.4l-0.2-0.4l-0.3-0.4l-0.2-0.4l-0.1-2.6l0-0.3l0.1-0.2l0.2-0.3l0.1-0.2l0.2-0.4l0.4-0.2h0.5
		l0.4,0.1L618.4,429.8z"/>
</g>

</svg>
