<?xml version="1.0" encoding="utf-8"?>

<svg version="1.2" baseProfile="tiny" xmlns="http://www.w3.org/2000/svg" xmlns:xlink="http://www.w3.org/1999/xlink" x="0px"
	 y="0px" viewBox="245 174.7 350 244.7" xml:space="preserve">

<g id="Iceland">
	<g>
		<polygon fill="#003897" points="482.3,384.5 480.8,384.6 480.9,384.7 483.9,384.7 		"/>
		<polygon fill="#003897" points="459.6,392 459.8,391.9 460.3,391.2 460.5,390.4 460.5,389.8 460.2,389.3 459.8,389.3 459.5,389.3
			459,389.7 458,390.6 458,391.2 459.4,390.8 459.7,390.7 460,390.9 460,391.4 459.9,391.7 		"/>
		<polygon fill="#003897" points="490.1,384 488.5,383.9 488.4,384.4 487,384.7 490.3,384.4 490.4,384.2 		"/>
		<polygon fill="#003897" points="305.7,261.5 305.3,261.9 305.1,261.8 305,261.9 304.8,262.2 304.9,262.5 305.5,262.2 		"/>
		<polygon fill="#003897" points="314.2,327.6 314.8,328.5 315.5,328.6 316.4,328.2 317.8,327 317.8,327.5 317.5,328.3 317.4,328.5
			317.7,328.5 318,328.6 318.2,328.8 318.4,329 318.2,329.4 318,329.6 318.4,330.4 318.2,331.5 317.8,332.7 317.4,333.6
			317.7,333.5 318,333.3 318.2,333 318.5,332.6 318.8,333.8 319.2,334.7 319.8,335.4 320.3,335.6 320.6,335.6 320.9,335.4
			321.1,335.2 321.3,334.9 321.4,334.6 322.6,334.6 322.9,334.2 322.9,333.7 322.9,333.2 323,332.5 323.8,331.2 323.9,330.8
			323.9,329.7 324,328.6 324.3,327.7 325,327.5 324.5,329.2 324.4,329.9 324.8,330.6 325.3,330.8 325.8,330.5 326.5,329.6
			328.4,328 329.2,327.7 330.2,328 330,327 330.5,326.6 331,326.4 314,326.4 		"/>
		<polygon fill="#003897" points="491.4,384.2 491.4,384.3 493.6,383.8 492.2,384 		"/>
		<polygon fill="#003897" points="338.8,326.4 338.9,326.5 339.1,326.8 339.1,326.4 		"/>
		<polygon fill="#003897" points="561.4,188.9 561.4,188.9 561.6,188.9 		"/>
		<polygon fill="#003897" points="591.4,256.2 590.3,255 590.1,254.9 589.7,255 589.4,255 589.4,254.7 589.4,254.2 589.3,253.8
			589.2,253.4 588.2,253.2 587.4,253.8 586,256 585.4,255.5 585.1,255.1 584.9,254.5 585,253.6 585.1,252.9 585.1,252.4
			584.8,251.9 584.4,251.8 583.4,251.8 583.4,251.3 583.8,251.2 584,250.7 583.9,249.9 583.7,248.9 583.3,248.5 582.7,248.5
			579.2,249.4 578.3,249.2 571.4,245 571.7,245.9 572.6,246.9 573.1,247.6 570.6,245.7 569.8,245.5 569.1,246 565.2,251.9
			564.6,253.2 564.2,253.7 563.2,254.8 562.8,255 562.5,255.3 561.8,257 561.4,257.6 561.6,256.3 561.9,255.2 562.4,254.2
			564.8,251.3 565.5,249.7 567.1,247.7 567.9,245.7 568.8,245 570.5,244.4 569.9,243.7 567.9,242.4 567.2,241.8 567.1,241.6
			566.9,241.3 566.7,240.7 566.6,240 567.4,239.2 568.8,236 567.8,234.9 566.5,235.2 564,236.5 557.2,238.4 554.7,239.9
			553.6,240.2 552.5,239.6 552.8,238.3 553.8,236.5 554.2,234.9 552.8,236.9 551.9,237.5 551,237.6 552.6,235.9 553.2,234.8
			553.1,233.4 553.8,232.5 556.2,230.7 558.3,228.1 558.6,227.8 558.7,227.3 559.5,225.4 559.5,225 559.5,224.2 559.5,223.8
			559.6,223.5 560,223.1 560.1,222.7 560,221.9 559.7,220.1 559.7,219.3 559.5,219 559,218.9 558.6,218.6 558.4,217.7 558.3,215.9
			557.8,214.7 557.2,214 556.5,213.6 554.8,213.8 552.2,216.2 550.7,216.3 548.7,215.4 545.1,215.3 544.4,214.7 544.8,214.5
			545.4,213.9 545.7,213.6 545.5,212.1 545.1,211.5 543.3,211.4 542.8,211.2 541.8,210.4 542.4,208.7 543.3,207.9 545.2,207.8
			545.7,207.5 548.8,204.6 549.1,204 549.4,202.7 549.5,201.8 549.3,201.4 549.2,201 548.5,199.6 548.4,199.4 548.2,198.8
			547.8,198.4 547.1,198.1 547.8,196.7 548.8,195.9 551.7,195.1 554.2,193.2 559.9,190.6 561.4,188.9 555.3,190 554.6,189.6
			553.4,188.6 552.6,188.4 549.9,188.9 549.1,189.5 547.8,190.8 547.2,191.8 547,193 546.7,193.9 544.4,195.4 544.3,196
			544.2,196.7 544.1,197.3 541.8,198.1 537.9,198.1 537,198.7 536.8,199.4 536.9,200.5 537.1,202.1 536.9,203.6 536.7,204.9
			536.3,205.7 535.7,206.1 535.9,206.5 535.9,206.6 536.2,206.7 535.5,207.4 534.9,206.7 534.3,205.6 533.2,204.8 532.3,203.8
			531.4,203.4 531.1,202.9 530.9,202.2 530.8,201.4 530.5,201.7 530.3,201.9 530.1,201.9 529.8,201.3 529.6,201 529.2,200.8
			528.1,201.4 525.8,201.2 525.3,200.8 525.6,199.7 525.7,198.9 525.6,198.3 524.6,197.9 524.1,197.4 523.7,197.1 523.4,197.6
			522.9,196.5 523.9,195.7 524.7,194.6 526,192.1 525.3,190 525.3,189.5 525.4,188.8 525.1,188.1 524.6,187.5 524,187.3 521,187.3
			521,186.9 521.1,186 521.2,185.7 520.7,185.9 519.4,185.7 518.3,185.9 517.8,185.8 518.1,185.1 518,184.9 517.7,184.3 517.5,184
			518.2,183.4 518.2,182.9 518,182.9 517.7,182.9 517.9,181.7 518.3,181.2 518.8,180.9 519.3,180.2 517.8,179.6 515.1,176.9
			513.6,177.5 513.3,177.7 511.5,176.9 510.6,176.9 509.9,177.3 509.6,177.6 509.4,179.2 509,179.6 508.6,179.5 508.4,178.6
			508.3,178.4 508,178.9 507.6,179.6 507.3,180.2 507.3,180.8 507.1,180.8 506.5,181.2 505.9,181.3 505.3,180.8 505.5,180.7
			506,180.2 505.4,180.1 505.1,179.6 504.7,179 504.2,178.6 503.9,178.7 503,179.5 502.5,179.7 502.6,180.2 502.7,180.5
			502.7,180.8 502.7,181.3 502.4,181 502.1,180.5 502,179.7 502.1,178.8 502.1,178.2 501.6,178.2 500.8,178.6 500.4,178.9
			500.1,179.7 500,180.4 499.9,180.8 499.6,180.7 499.5,180.2 499.4,179.6 499.2,179.1 498.6,179.2 497.9,180.2 497.6,181.3
			498.5,182.4 499.2,184.9 499.7,185.7 499.7,186.2 499,186.2 499.3,187.2 499.5,187.5 499.7,187.8 499.6,188.1 499.4,188.6
			499.3,188.9 499.6,188.8 499.7,188.9 499.5,190.3 499.7,190.9 500.6,191.6 500.6,192.1 500.7,192.8 500.7,193.5 500.9,193.7
			501.1,193.8 501.3,194 501.4,194.2 501.9,195.4 502.2,196 502.4,196.6 502.5,197.8 502.4,198.5 502.2,199.3 501.9,199.9
			501.8,200.3 501.8,200.8 501.3,201.3 500.8,202.1 500.5,203.1 500.4,204.3 500.6,205.2 501.2,206.1 502.3,207.2 502.3,207.8
			501.5,207.7 500.2,205.8 499.5,205.1 498.8,205 496,206.1 496.9,205.2 499.7,203.5 499,203.6 497.6,204.4 495.5,205.1
			494.1,206.1 494.7,206.7 494.8,207.3 494.8,208.1 495,209.1 495.4,209.7 495.9,210.3 496.9,211 496.9,211.5 495.8,211.2
			495.1,210 494.5,208.7 493.6,207.8 493.2,208 492.8,208.6 492.2,210.2 492,210.3 491.4,209.1 491,208.8 491.5,208.3 491.9,208
			492.4,207.8 492.9,207.8 491.7,207.4 487.8,208.5 486.6,209.4 487.1,209.9 487.3,209.9 487,210.4 486.6,210.4 486.2,210.3
			485.8,209.9 485.8,209.4 486.2,209.4 486.2,208.7 486.2,208.3 485,204.9 484.3,203.5 483.5,202.9 480.3,202.6 479.5,201.8
			479.2,203.2 477.2,203.9 476.3,204.8 475.7,205.9 475.5,206.5 475.9,206.7 476.1,207.1 476,208.1 475.8,209 475.5,209.4
			474.7,209.7 473.7,210.5 472.9,211.6 472.5,212.6 472.5,213.6 472.6,214.8 472.5,215.2 472.4,215.8 472.2,216.2 471.7,216.8
			471.8,217.9 471.6,218.7 471.2,219.2 470.8,219.6 470.8,220 471.1,220.5 471.2,221 471.1,221.6 471,222.2 470.8,222.2
			470.4,220.7 470.2,219.9 469.8,219.5 464.7,219.6 465.5,220.2 468.4,220 467.9,220.6 467.2,221 466.4,221.2 465.8,221.1
			466.1,222.3 466.5,223.3 466.8,224.4 466.7,225.9 466.2,224.9 465.2,221.7 464.4,220.1 463.8,219.3 462.8,218.6 462.4,217.5
			461.9,215.3 461.5,214.4 460.3,212.5 459.8,212.1 459.2,211.8 458.2,210.3 457.7,209.9 456.4,210.1 456,209.9 455.8,209.4
			455.5,207.8 455.2,207.2 453.9,206.6 450.7,207.4 449.5,206.7 449.6,206.6 449.7,206.5 449.7,206.4 449.7,206.2 449.2,206
			447.9,206.2 447.4,206 446.7,205.3 446.2,205.1 443.4,204.9 442.9,205.1 442.1,207.3 441.9,211 442.3,214.6 443.2,216.8
			443.2,217.4 443,217.4 443,217.9 443.4,218.7 444,220.3 444.9,220.9 445.3,221.7 445.4,222.7 445.2,223.8 445.5,224.4
			446.5,225.7 446.9,225.9 447,225.8 447.3,225.1 447.4,224.9 447.6,225 447.7,225.1 447.7,225.3 447.8,225.4 448,225.6 448.6,227
			448.8,227.1 449,227 449.2,227 449.3,227.3 449.3,228.3 449.3,228.6 450.3,232.3 450.4,233.5 450.2,234.9 450,235.2 449.5,235.7
			449.3,236 449.2,236.8 449.2,237.4 449.3,237.9 449.3,238.6 449.1,239 449,239.4 448.9,239.9 449.1,240.8 449.3,241.1
			449.9,241.6 450.1,241.9 450.5,242.8 450.7,244.2 450.8,245.6 450.4,246.5 449.9,246.3 449.5,245.3 449.3,243.9 449.5,242.9
			448,241.3 447.1,239.9 446.8,239.7 446.7,239.2 446.7,236 446.5,235.4 445.9,234 445.8,233.1 445.9,231 445.8,230.3 445.4,229.4
			445.2,229.1 445,229.1 444.4,229.1 444.1,229 444,228.8 444,228.5 443.7,227.4 443.5,226.5 443.3,225.7 442.5,225.1 442,223.8
			441.7,223.3 441.3,223 439,222.6 437.6,221.7 435.3,221.1 435.2,220.5 435.4,219.2 436,216.8 435.7,215.6 435.4,214 435.1,212.7
			434.6,212.1 434.2,211.8 433.8,211.3 433.4,211 433.1,211.3 432.7,211.7 432.3,212 431.9,212.1 431.5,212.1 432.4,210.1
			432.8,208.8 432.5,208.3 431.9,207.8 431.2,206.8 430.4,205.8 429.5,205.6 427.2,208 426.9,208.1 427,206.9 427.5,205.2
			427.8,204 426.2,203.2 425.3,203.1 424.7,203.5 424.8,203.8 425,204.6 424.2,206.3 423.8,207 423.2,207.2 423.4,204.7
			422.5,204.2 419.6,205.3 418.5,206.3 418.2,206.7 418,207.6 417.6,209.4 417.3,209.9 417.3,210.4 417.5,210.6 417.8,210.9
			418,211 418,211.5 417.8,211.5 417.9,212.2 418.1,212.8 418.4,213.2 418.8,213.6 418.2,213.5 417.1,212.3 416.5,212.1
			416.6,211.3 416.7,211 416.4,210.9 416.1,211 415.9,211.2 415.6,211.5 415.7,212.8 414.9,212.6 413.4,211.5 409.2,212.2
			407.4,213.2 406.8,213.9 406.5,214.6 406.3,214.7 406.3,215 406.7,216.7 406.9,217.5 407.2,218.1 407.5,218.5 407.1,219.4
			406.5,220 405.8,220.4 405.3,220.6 404.9,220.8 404.6,221.5 404.5,222.2 404.5,222.8 406.3,224.9 406.5,225.4 407.3,228.1
			407.8,230 408,231.8 408,233.8 407.8,236 407.4,238.2 407.1,239.3 406.8,239.7 406.2,240.1 406,240.1 405.8,239.5 405.9,239.1
			406.2,238.9 406.5,238.7 405.6,238.7 405.2,238.6 405,238.4 404.5,237.7 404.4,237.6 403.4,237.5 403.2,238.1 403,239.7
			402.4,238.8 400.7,238.3 400,237.3 399.8,236.4 399.7,234.4 399.5,233.4 399.3,232.8 398.6,231.3 398.5,230.8 398.5,230.2
			398.4,229.7 398.2,229.1 398.1,229 397.9,229 397.9,267.6 585.3,267.6 585.7,267.4 587.3,267.6 588.8,267.6 589.7,267
			589.7,266.2 589.8,265.4 589.8,264.9 589.5,264.4 590.5,263.6 590.7,263.3 590.7,262.6 590.4,261.2 590.3,260.7 590.6,260.1
			591.2,259.3 591.7,258.3 591.6,256.6 		"/>
		<polygon fill="#003897" points="339.1,246.8 337.9,246.9 337.4,246.3 337.2,246.1 336.9,245.8 336.5,245.2 336.3,244.2
			336.2,243.8 335.9,243.4 335.4,242.9 335.8,242.2 336.1,241.8 336.1,241.1 336.1,240.2 335.9,240.1 335.3,238.8 335.2,238.6
			334.7,238.1 333.2,237.1 332.6,237 333.5,236.5 334.5,236.5 335.5,237 336.3,238.1 336.3,238.7 336.7,239.8 337.3,240.9
			337.9,241.3 338,241.5 338.6,242.5 338.9,242.9 339.1,242.9 339.1,223.2 338.6,223.3 338,222.2 338.5,222.2 339.1,222
			339.1,211.5 338.4,211.6 337.3,212.2 336.9,212.6 337.6,214.2 337.6,214.7 337.6,216.1 337.4,216.5 337,216.9 336.5,217.3
			336.1,217.4 336.3,216.6 336.7,215.7 337,214.7 336.9,213.6 336.5,213.1 336,213.2 335.4,213.6 334.9,213.6 334.5,213.2
			334.3,212.7 334.1,211.2 334.1,209.9 334.1,210 334,209.6 333.8,208.8 333.7,208.3 334.1,207.9 334.1,206.9 333.8,206
			333.3,205.6 333.4,204.9 333.5,204.6 331.5,203.5 331.2,203.6 330.5,204 330.2,204 330,203.8 329.6,203.2 328.1,201.9
			327.6,201.8 327.1,202 326.7,202.4 326.3,202.7 325.9,202.4 327.7,200.8 328,200.2 326.7,198.1 326.5,197.8 326.2,197.6
			325.9,197.6 325.7,198.1 325.1,197.9 322.8,198.1 323,196.9 322.7,196.4 322.2,196.5 321.7,197.5 321.5,198.1 321.1,197.9
			320.9,197.3 320.6,197 320.2,197 319.6,197.2 319.1,197.6 318.7,198.1 318.3,197.6 318.3,197 318.8,196.4 318.7,195.8
			318.4,195.3 318.3,194.9 318.3,194 318.3,193.3 318.6,193 319.2,193.2 319.2,192.7 317.8,192.4 317.4,191.9 317.8,191.1
			317,189.6 314.5,188.2 313.9,187 313.6,185.1 312.9,183.6 311.9,182.6 310.9,182.4 311.1,183.2 311.9,183.7 312.2,184.5
			312,185.5 311.5,185.6 309.4,184.5 308.4,183.3 307.3,182.5 306.1,182.9 306.2,183.7 306.3,184 305.5,184.6 304.3,186
			303.5,186.2 302.9,185.7 301.7,184.3 300.3,183.8 299.2,182.7 298.6,182.4 295.4,182.4 297,183.8 297.5,184.1 298,184.5
			298.1,185.3 297.8,185.9 297.2,185.7 297,185.3 296.8,184.3 296.6,184 296.3,183.9 292.9,184.5 293.1,184.9 293.3,185.3
			293.5,186.2 292.5,185.7 291.5,184.8 290.5,184.3 289.6,185.1 290.2,186.3 291.1,187.5 292.1,188.2 293.1,188.4 292.4,190.8
			291,191 289.5,190.4 288.3,190.5 287.8,191.2 288,191.8 288.6,192.3 289.4,193.4 290.7,194.1 295.8,195.5 296.5,194.6
			296.8,194.4 298,192.2 298.6,191.4 299.1,191 300.2,190.5 300.2,191.1 299.8,191.7 299.3,192.8 299.1,193.8 299.5,194.3
			300.7,194.1 301.3,193.7 303.9,191 304.9,190.3 306.3,190 304.8,190.6 304.3,191.1 304.2,191.6 304,193.2 303.9,193.7
			303.3,194.5 303,195.1 303,195.9 303.3,196.1 304.8,196.5 306.7,196.3 308.3,195.4 309.5,194 309.9,193.9 310.6,194.3
			310.6,194.9 310.1,194.9 309.6,195.1 309.2,195.6 308.8,196.2 308.3,196.7 307.8,196.8 307.6,196.9 308.3,197.6 309.6,198.3
			313.9,197.6 313.2,198.2 311.6,198.3 310.2,199.5 309.4,199.7 307.8,199.7 308.1,200.7 308.2,201 308.4,201.3 308,201.8
			307.6,201.7 306.7,200.8 306.6,200.5 306.5,200.1 306.3,199.8 306,199.6 305.1,199.6 301.7,198.6 300.7,198.5 296,199.8
			294.5,200.8 295.8,204.3 298.1,206.7 305.7,209.9 307.4,211.8 310.1,213.1 310.6,212.9 311.3,212.3 312.8,211.5 313.5,211.5
			313.1,212.6 312.5,212.8 311.9,212.9 311.3,213.2 310.9,214 310.7,214.9 310.5,215.8 310.2,216.8 310.9,217.1 311.5,217.9
			312.1,219 312.6,220 312.9,221.4 313.1,223.2 313.5,224.7 314.1,225.4 314.1,225.9 313.1,226.7 311.8,231.1 310.6,231.8
			310.6,231.3 311,230.4 311.7,228.9 311.9,228.1 312.1,225.3 312.1,224.8 311.9,224.7 311.7,225.3 311.5,226.1 311.5,226.5
			311.1,226.1 311.1,225.6 311.3,225 311.3,224.4 311.1,223.7 310.9,223.7 310.7,223.9 310.4,223.8 310,222.8 309.6,221.7
			309.2,221 308.5,221.1 308.5,221.7 308.3,223.2 306.2,228.9 305.4,231.9 305,232 304.8,231.4 305.1,229.9 306.7,225.4
			306.6,225.2 306.5,224.9 306.8,224.5 307,223.8 307.1,222.9 307.2,221.2 307.2,220.9 307,220.6 305.9,218.4 304.7,217.1
			304.4,216.7 304.2,216.1 304.1,215 303.9,214.7 301.7,214.6 301.6,214.7 301.3,215.3 301,216.6 300.7,218.5 300.6,220.4
			300.6,222.2 299.6,225.9 299.4,224.8 299.7,223 299.9,220.8 299.4,218.7 299.1,219 298.6,220.2 298,222.2 297.5,222.8
			296.9,223.2 295.6,223.2 296.7,222.5 297.6,221 298.4,219.2 298.9,217.4 298.4,216.9 297.9,217.3 297.4,218.1 297,218.5
			297,218.3 297.2,217.9 296.7,216.1 296.5,215.5 296.1,215.3 295.8,215.5 295.6,216.1 295.4,216.8 295.3,217.4 294.6,218.5
			292.9,220.6 292.2,221.7 292,221.7 292.3,220.9 293.7,218.2 293.8,218.1 294.4,217.1 294.6,216.5 294.5,215.7 294.4,214.5
			294.4,213.3 294.3,212.9 293.7,212 293.3,211.1 293,210.6 292.6,210.4 292,210.7 290.4,213.2 290.2,211.5 290.4,210.3
			289.8,208.9 289,207.7 288.4,207.2 287.4,207 284.2,204.6 279.2,203.2 278.5,203.5 278.4,204.5 277.9,205 276.6,205.1
			276.1,205.3 275.6,205.9 275.1,206.6 274.8,207.2 274.8,207.8 275.5,208.4 278.6,208.3 279.3,208.7 280.5,210.8 281.3,211.5
			278.5,209.2 276.4,208.8 273.7,209.1 272.6,209.9 273.7,211.4 275.5,213.2 276.5,214.5 276.8,214.7 277.6,214.9 279.1,215.6
			279.8,215.8 280.4,216.3 281.4,218.7 282,219.6 282,220 281.3,219.8 280.8,219.1 280.4,218.1 280.2,216.8 279.1,217.5 277.4,217
			271.7,213.5 270.1,213.2 268.7,213.6 268.3,214.6 268.1,215.8 268.1,218.2 268.4,218.9 269.6,220.7 271.1,222.1 271.8,222.4
			272.2,223.1 273.1,223.6 274.8,225.9 275.5,226.5 278.8,227.3 280.3,228.6 281.1,229.1 283.7,229.4 284.6,230.4 287.2,231.3
			286.1,231.8 284.9,231.3 282.6,229.6 281.3,229.6 277.4,228 275.4,228.6 274.8,228.5 274.2,228.1 273.2,226.8 272.6,226.4
			270.3,225.9 268.5,224.8 267.8,224.9 266.5,226.4 266.4,228.8 267,231.3 268.1,233.4 269.9,235.5 270.3,236.3 270.7,236.6
			272.4,236 273.5,237 275.2,237.7 283.7,237.9 285.1,236.7 286.1,236.2 287.8,236 287.4,236.6 285.8,237.6 285.8,238.1
			286.1,238.1 286.3,238.2 286.7,238.6 286.1,239.2 285.4,239.1 284,238.6 283.4,238.8 282.5,239.5 279.9,239.9 279.5,239.5
			279,239.3 277.1,240.2 276.8,240.6 277,241.5 277.6,242.4 278.1,242.9 279.3,243.7 281,244.2 284.8,243.9 284.4,244.4
			283.9,244.5 283.4,244.4 282.9,244.5 281.4,245.5 280.9,245.5 281.1,246.2 281.3,246.4 281.5,246.5 281.5,247.1 280.8,247.3
			279.1,246.9 278.7,247.6 278.2,246.9 278.1,246.5 276.8,248.4 276,249 275.4,248.7 275.7,247.5 276,246.7 276.2,245.8
			275.9,244.5 275.6,244.1 274.8,243.4 274.2,242.3 273.9,241.9 260.5,234.4 259.2,234.3 257.8,235.5 258.2,236.4 258.2,237.3
			258.2,238.2 258.3,239.2 259.6,241.9 260.7,243.5 261.4,244.2 262.9,244.7 264.5,245.8 265.9,246.3 266.8,247 267.7,248
			268.3,249.2 267.3,248.9 264.2,247.1 259.4,246.1 259.9,247.2 260.9,248.5 261.8,250.1 263.4,251.8 264,252.1 264.5,252.9
			264.9,253.8 265.5,254.5 266.1,254.8 266.8,255 268.3,254.9 266.5,255.9 265.6,256 264.6,255.5 264.1,254.8 263.6,253.9
			263.1,253.2 260.9,252.6 259.6,251.8 257.9,249.5 257.3,249.2 256.4,249.1 253.3,247.3 252.5,247.1 252.1,247.3 251.5,248
			250.5,248.7 250.4,249.8 250.4,251.1 250.3,252.3 249.7,253 247.8,254.2 247.4,254.7 247.1,255.5 246.4,256.2 245,257.1
			245.7,258.3 246.9,258.5 255.9,257.6 260.8,259.6 261.5,260.7 261.9,259.7 262.6,259.7 263.2,260.3 263.1,261.7 262.8,261.4
			262.6,261.3 262,261.2 262.4,261.7 262.7,262.1 262.8,262.7 262.6,263.3 262.6,263.9 263.9,264.8 265.4,265 271.2,263.3
			272.4,261.2 272.7,261 272.9,260.9 273,260.6 273.1,259.7 274,260.2 278.3,259.3 279.9,258 280.8,257.6 280.6,257.3 280.5,257.2
			280.4,257.1 280.7,256.7 280.9,256.6 281.1,256.6 281.3,256.6 281.6,257.2 282,257.8 282.5,258.1 283,258.1 283.9,258.5
			286,258.8 286.5,258.6 287,258.2 287.7,257 288.1,256.6 288.1,256 287.5,255 287.5,253.4 288,251.9 288.9,251.3 288.9,251.8
			288.8,252.9 289.7,253.9 291.5,254.7 292.4,254.2 294.3,253.8 295,252.9 295.1,252.1 295.3,249.7 295.3,249.2 295.6,249.5
			295.8,250.3 296,251.3 296.2,252.1 296.8,252.5 297.6,251.8 298.3,250.4 298.5,248.7 299.6,249.4 300.1,249.9 300.4,250.8
			299.6,251.2 298.2,253.2 297.4,253.9 297.4,254.5 298.2,254.6 298.5,254.5 298.5,255.2 298.8,255.3 299.9,255 300.3,255.1
			300.7,255.4 300.9,256 300.7,256.6 300.7,257.1 301.2,257.1 301.8,257.4 302.3,257.5 302.8,257.1 301.9,251.2 301.6,250.3
			301.3,248.6 301.3,248.2 301.5,247.7 301.7,247.6 302.2,247.6 303,248.2 303.3,248.1 303.5,247.9 303.6,247.7 303.9,248.2
			303.2,249.6 303,250.9 303.1,252.1 303.9,254.6 304.1,255.2 304.3,255.5 304.7,255.5 305.1,255.2 305.3,254.6 305.5,252.6
			305.8,252.8 306.4,254.2 306.9,255 307.3,254.9 307.6,254.4 308.2,253 308.4,252.4 308.4,251.8 307.9,250.2 307.8,249.4
			307.9,248.5 307.8,248.1 308.2,247.4 308.6,248.3 309.3,251.1 309.7,252.4 309.7,253.3 309.6,254.2 309.6,255.5 309.9,256.8
			310.4,257.1 312.1,256.4 312.6,255.8 312.7,255.1 312.3,254.5 312.3,253.9 312.9,254 313.3,254.4 313.7,254.8 314.3,254.5
			315.2,253.4 315.7,252.9 316.3,252.9 316.3,253.4 315.9,254 314.5,255 314.5,255.5 316.8,255.3 317.8,254.8 318.9,253.9
			321.2,250.5 322.1,250.3 321.5,250.8 321.1,251.2 320.8,251.8 320.8,252.4 320.8,253.4 320.7,254.2 320.3,254.5 319.6,254.8
			318.1,255.8 314.6,256.6 313.9,257.1 313.3,258.3 313.5,259 314.8,259.7 316.6,261.4 317.5,262.7 318,263 319.2,262.8
			319.5,262.5 319.8,261.8 320,261.1 320.1,260.7 320.4,260.7 320.7,260.4 321.3,259.7 321.7,258.8 322,257.9 322.1,256.8
			321.9,255.5 322.3,256.1 322.9,257.9 323.2,258.6 323.5,258.9 324,259 324.3,258.7 324.1,257.6 324.6,257.6 325,257.6
			325.5,257.4 325.9,257.1 326,258.2 326.5,259.1 327.6,260.1 326.9,261.1 326.3,262.2 326.9,262.3 328.8,261.7 331.1,262.2
			332.2,262.2 335.2,261.2 333.2,262.4 329.1,263.7 327.2,264.9 327.3,265.2 327.6,266.4 327.1,266.4 326.3,265.5 325.9,265.4
			325.9,265.8 325.9,265.8 326,265.8 326.1,265.9 325.4,266.7 323.7,267.6 339.1,267.6 		"/>
		<polygon fill="#003897" points="439.8,219.9 440,220.4 440.3,220.7 440.7,220.8 441.1,220.5 441.1,220.5 441.1,219.7 440.6,218.6
			440.3,218.2 440,217.7 439.4,217 439.2,217.3 439.5,218.4 439.7,219.3 		"/>
		<polygon fill="#003897" points="479.8,384.6 478.9,384.5 478.4,384.4 478.6,384.5 479.5,384.7 		"/>
		<polygon fill="#003897" points="476.4,384.4 474.5,384.9 474.5,385 477,384.7 477,384.5 		"/>
		<polygon fill="#003897" points="299.5,267.1 299.5,267.6 299.7,267.6 299.8,267.4 300,267.2 300.1,266.8 300,266.8 		"/>
		<polygon fill="#003897" points="484.9,382.2 484.7,382.5 484.5,383.4 484.7,383.6 484.9,382.9 		"/>
		<polygon fill="#003897" points="397.9,403.2 398.1,403.3 403.2,404.7 406.9,407.2 409.5,407.7 411.2,409 411.6,409.2 415.8,410.1
			416.5,409.2 416.9,409.7 417.5,410 418.7,410.3 418.5,410.5 418.4,410.6 418,410.7 418.9,411 421.5,410.3 427.6,412.1
			429.2,412.2 435.8,410.4 439.8,408.4 446.6,407.4 446.1,407.3 445.3,407.3 444,407.2 443.9,406.7 443.8,405.7 443.6,404.8
			443.3,404.3 443.1,404.1 442.5,402.9 442.1,402.4 442.2,402.2 442.3,402 442.6,401.9 442.4,401.4 443,401.6 445.1,402.9 446,403
			447.7,402.4 448.6,402.5 448.6,403 447.6,403 447.2,403.4 446.8,404.2 446.4,404.6 445.6,404.9 445.2,405.4 446.2,406.8
			448.2,406.3 450.3,404.8 453.5,403.2 455,401.6 456.1,399.5 456.9,397.1 456.4,397.5 454.1,397.6 454.2,396.8 454.1,396.3
			453.8,396.1 453.4,396.1 453.9,395.7 454.8,395.8 454.7,395.1 456,395.1 456,395.4 456,395.5 455.9,395.5 455.8,395.6
			456.6,396.1 457.5,395.4 458.8,392.7 458,393 455.4,392.7 455,392.9 454.3,393.6 453.9,393.7 453.4,393.5 453.3,393 453.4,392.4
			453.8,391.8 454.4,392.4 455,392.2 455.4,391.3 455.6,390 455.8,389.2 456.2,388.4 456.8,388 457.4,388.3 457.7,387.9 458,387.7
			458.8,387.7 458.8,387.3 458.2,386.8 459.1,386.8 459.9,387.2 460.6,387.3 461.4,386.8 461.3,386.2 461.3,385.8 461.4,384.8
			462.2,385.7 464.3,386.8 464.3,387.3 463.4,387.4 462.4,387.8 461.5,388.7 461.2,390.2 465.4,387.3 465.4,386.7 465.3,386.5
			465.3,386.2 465.2,385.8 465.6,386.3 466.1,386.1 466.4,385.4 466.7,384.4 466.9,385.1 466.9,385.9 466.7,386.5 466.3,387
			469.3,386.3 473.6,384.8 477.5,382.4 477.6,383.6 478,383.6 478.4,383.1 478.8,382.8 480,383.7 480.5,383.8 482.7,383.9
			483.9,383.6 484.5,382.8 484,382.3 483.8,381.5 483.6,380.7 483.2,380 483.5,379.1 484.1,378.9 484.6,378.9 485.1,378.5
			484.9,377.8 484.8,377.1 484.9,375.2 485.1,374.8 485.4,375.1 485.8,375.7 485.9,375.9 486,376.4 485.9,377.4 485.8,379.3
			485.9,379.3 486,379.7 486,380.1 485.7,380.3 485.6,380.4 485.5,380.7 485.4,381.3 485.6,381.9 485.5,382.6 485.2,384.3
			485.8,384.2 486.3,383.8 486.5,383.4 486.1,382.7 486.2,381.9 486.2,381 486.2,379.1 486.4,378.6 486.6,379.1 486.8,379.9
			487,380.6 486.8,382.4 486.9,383 487.3,383.3 487.5,382.8 487.5,381.9 487.4,380.6 487.4,379.5 487.5,378.8 487.7,378.6
			488.2,378.8 488.6,379.2 489.8,380.8 490.3,381.3 490.4,381.6 490.4,382.6 490.4,383 490.6,383.3 490.9,383 491.1,382.1
			491.1,381.1 491,380.4 491.5,380.2 492.1,379.9 491.8,379.8 491.5,379.6 491.2,379.3 491,378.9 491.5,379.5 492.2,379.7
			496.5,378.5 501.2,374.5 501,375.3 500.7,375.9 500.3,376.2 499.9,376.5 500.9,375.9 502.4,373.6 504.7,371.6 505.1,371
			505.9,369.3 505.6,369.7 505.2,370.1 504.7,370 505.2,368.8 506,367.8 507.7,366.5 507.5,367.5 508.2,367.3 510.1,366
			510.1,365.5 509.7,365.5 509.7,365.1 510,364.5 510.4,364.3 510.7,364.4 511,365.1 511.2,364.5 511.6,364.1 512.3,363.5
			513.4,362.2 513.7,362 514.4,361.8 516.4,360 516.4,359.6 514.9,359.6 516.1,358.5 524.3,356 525.3,355.1 524.7,354.7
			522.1,355.6 524.9,353.3 525.8,352.1 525.9,352.5 526.1,352.8 526.2,353.1 527.1,352.5 529,351.8 530.8,351.6 532.8,350.8
			533.6,350.2 532.6,350.2 532.1,350 531.6,349.6 532.4,349.1 534.1,349.6 534.9,349.2 535.4,348.1 535.7,346.9 535.5,345.7
			534.9,345.1 534.9,344.6 535.2,345 535.5,345.1 535.7,345 536,344.6 535.7,343.9 535.1,342.1 534.8,341.3 534.1,341 533.1,340.5
			532.5,340.1 533.3,340.3 534.5,340.8 535.2,341.5 535.9,342.2 536.7,343.6 537.1,345.1 536.8,346.2 536.8,346.6 537.3,346.9
			538.2,347.3 538.6,347.6 538.5,346.9 538.4,346.3 538.2,346 537.9,345.6 537.9,345.1 538.3,344.8 538.7,345 539.1,345.8
			539.3,346.9 539.4,347.4 539.9,347.4 541,347.2 541,347.6 540.3,349.6 541.1,349.7 541.5,349.6 541.8,349.2 541.4,348.6
			541.8,348.2 542.2,348.2 542.6,348.5 543,348.6 543.3,348.3 543.9,347.4 544.2,347.1 544.8,347.4 545.4,347.9 546.4,349.2
			547,349.7 547.7,350 549.1,350.2 549.7,349.8 550.6,348.6 551.4,348.6 551.1,347.6 550.9,346.6 550.6,346.9 550.3,347.1
			549.7,347.2 549.3,346.9 549.1,346.4 549,345.9 549.2,345.5 549.5,345.4 550.1,344.9 550.6,344.3 550.8,343.6 551,343.6
			551,344.1 550.8,344.4 550.7,344.8 550.6,345.6 551,344.7 551.6,343.9 552.3,343.1 554.1,342 554.4,341.6 555.1,340.3
			555.2,340.1 555.6,340 556.3,339.3 556.5,339.1 556.7,338.9 556.6,338 556.6,337.6 556.9,337.5 560.4,338.1 561.2,338.6
			559.8,339.2 556.9,340 555.5,341.1 556.4,340.8 558.7,340 562,339.6 562.1,339.4 562.4,338.2 562.5,337.9 562.6,337.4
			562.7,337.2 562.9,337.1 563,336.9 563.1,336.6 563,335.8 563,335.3 563.1,334.7 564.2,332.8 564.3,332.3 564.4,330.7 564.5,330
			564.9,329.2 567.2,326.4 566.2,326.4 565.1,328.1 563.8,328.5 563.7,329 563,329 562.4,328.6 562,327.8 561.7,327.8 561.1,327
			560.9,326.4 397.9,326.4 		"/>
		<polygon fill="#003897" points="314,331.6 314.4,331.1 314.9,330.9 315.1,330.4 314.9,330.4 314.9,330.3 314.7,330 314.3,330
			313.9,330.3 313.7,330.7 313.8,330.8 313.9,330.8 313.9,331.4 		"/>
		<polygon fill="#003897" points="453,176.7 453.1,175.9 452.9,175.7 452.1,174.7 451.7,174.9 451.8,176.2 452.4,177.1 		"/>
		<polygon fill="#003897" points="330,357.2 330.2,357.4 330.6,357.7 330.8,357.5 330.6,357.1 330.2,356.8 330.1,356.5 329.8,356.2
			329.5,356.5 329.7,356.7 329.9,356.9 		"/>
		<polygon fill="#003897" points="457.5,206.5 457.7,206.5 457.8,205.6 457.4,205.5 456.5,205.7 456.2,206 456.2,206.7 456.8,206.7
			457.3,206.9 457.4,206.7 457.3,206.5 457.4,206.6 		"/>
		<polygon fill="#003897" points="296.6,267 296.3,267.2 296.2,267.5 296.6,267.3 296.8,267 		"/>
		<polygon fill="#003897" points="338.9,327.4 338.5,326.8 338.3,326.4 332.7,326.4 331.9,327.5 331.3,328 331.3,328.5 331.8,328.4
			332.2,328.5 332.4,328.9 332.5,329.6 330.6,329.8 327,331.6 326.3,332.3 326.2,333.1 325.8,334.2 325.7,334.8 325.5,336.1
			325.3,336 325.1,335.8 324.9,335.9 324.6,337 324.6,338 324.5,338.9 324.1,339.6 324.7,340.8 325.2,341.2 325.7,341.1
			326.3,340.6 327.1,340.3 330,340.6 329.4,341 328,341.5 327.4,342.1 326.7,341.7 326,342.1 325,343.6 323.7,344.8 322.4,345.6
			322.4,346.2 325.2,347.2 326.7,347.4 327.9,346.4 328.4,345.8 329.8,344.8 330.3,344.6 330.6,344.6 331.2,344.4 331.5,344.2
			331.8,343.8 331.9,343.3 332,342.9 332.1,342.6 334.5,340.4 337.2,339.8 339.1,339.9 339.1,327.4 		"/>
		<polygon fill="#003897" points="289.2,260.2 289.4,260.2 289.3,260.1 289.1,260.1 289,260.3 288.8,260.7 288.8,260.9 289.2,260.4
					"/>
		<polygon fill="#003897" points="338.1,341.6 337.4,341.7 336.7,342 335.4,343.1 335.7,343.1 336,343.4 336.6,343.7 336,343.7
			334.6,343.5 333.9,343.6 333.3,343.9 333,344.4 332.5,345.9 331.8,347.1 330.8,348.2 328.9,349.6 329,350.7 328.7,351.3
			327.8,352.1 329,352.3 329.2,352 329.5,351.8 329.8,351.7 330.7,351.6 331.4,351.8 331.7,352.3 331.5,353.6 332.2,353.2
			333.1,353.1 334.1,353.2 334.7,353.6 333.7,354.1 333.2,354.5 333,355.4 333.3,355.9 333.9,355.9 335,355.2 334.3,356.7
			333.3,356.7 332.2,356.3 331.3,356.7 332,357.1 331.7,357.3 331.4,357.6 331.1,358.1 331.5,358.5 331.8,358.6 332.1,358.7
			332.5,358.6 332,359.1 331.5,359.2 330.5,358.6 330.3,358.4 330.1,358 329.9,357.8 325.1,356.9 324.1,357.7 325.2,357.7
			326.3,358.3 328.2,360.1 328,360.2 327.6,360.6 328.2,360.6 328.2,361.2 327.7,361.4 327,361.6 326.4,361.5 325.9,361.2
			326.5,360.6 326.7,360.6 326.1,360.2 325.3,360.3 324.5,360.9 324.1,362.1 324.7,361.8 325.5,362 326.3,362.5 326.9,363.1
			326.9,363.5 326.7,363.8 326.5,364 326.3,363.9 326,363.5 325.2,364.7 324.3,365.3 321.7,365.9 320.2,367.2 319.3,367.5
			318.9,367.4 318,366.7 317.6,366.5 317.3,366.6 316.1,367.5 314.6,367.8 314.1,368 313.7,368.4 313.3,368.9 313.1,369.5
			313.4,370 312.9,370.6 312.2,370.8 309.1,370.6 308.3,370.4 307.8,369.6 308.3,369.6 307.8,367.7 307,365.9 306.2,364.6
			305.1,363.9 304.1,362.8 303.7,362.6 303.3,362.9 302.9,363.4 302.7,364 302.8,364.5 302.8,365.2 302.8,366.7 302.8,367.6
			302.7,368.2 302.2,369.6 302.4,370.9 302.9,371.8 303.6,372.4 304.2,372.5 304.9,372 305.3,372 305.4,372.8 305.2,373 303.8,373
			303.5,373.6 302.9,376.2 302.4,376.9 302.7,377.5 303.1,377.8 303.3,378.1 303.5,378.9 303.4,379.7 303.2,380.2 303,380.7
			302.8,381.4 303.1,381.6 303.6,382.6 304,382.8 304.3,382.7 304.5,382.4 304.6,382.1 304.8,381.9 305.5,381.6 308.6,382
			308.9,381.9 309.3,381.6 309.9,381.1 310.9,380.8 312.1,380 312.8,380 312.3,380.4 313,380.9 313.6,380.3 314.2,379.4
			314.9,378.9 323.5,380.9 325.1,380.3 325.5,380.4 326.9,380.3 332.1,378.4 333.1,378.5 334.1,379.3 335.2,380.3 336.3,381.1
			339.1,380.7 339.1,341.9 		"/>
		<polygon fill="#003897" points="494.3,383.5 494.1,383.7 495.4,383.4 495.2,383.2 494.6,383.3 		"/>
		<polygon fill="#003897" points="493.8,383.8 493.9,383.7 493.9,383.7 		"/>
		<polygon fill="#003897" points="495.6,383 496.3,382 496.2,381.9 495.4,382.5 495.1,382.8 495.3,383 		"/>
		<polygon fill="#003897" points="498.8,377.9 498.4,378.3 496.9,380 496.8,380.6 497,380.7 498.8,378.1 		"/>
		<polygon fill="#003897" points="322.6,260.6 322.7,260.4 322.7,260.2 322.5,260.2 322.3,260.4 322.1,260.9 322.2,260.9
			322.4,260.9 		"/>
		<polygon fill="#FFFFFF" points="353.5,374.1 351.1,374 351.4,375.7 351.5,376.4 351.3,376.9 351.9,378.1 352.7,378.7 353.4,379.1
			353.8,379.4 353.8,374.1 		"/>
		<polygon fill="#FFFFFF" points="302.2,312.3 303,312.4 303,311.9 302.8,311.7 301.5,311.7 		"/>
		<polygon fill="#FFFFFF" points="305.4,312.1 305.1,312.4 304.7,312.5 303.9,312.3 304.7,312.9 307.6,312.3 307,311.9 306.7,311.8
			306.7,311.7 305.2,311.7 		"/>
		<polygon fill="#FFFFFF" points="338.1,326.1 337.3,326 336.6,325.8 336.7,324.5 335.4,324.4 335,324.5 334.7,324.7 334.2,325.3
			333.1,325.8 332.7,326.4 338.3,326.4 		"/>
		<polygon fill="#FFFFFF" points="567.8,325.7 568.3,324.8 568.1,324.5 567.1,325.2 566.2,326.4 567.2,326.4 		"/>
		<polygon fill="#FFFFFF" points="588.6,267.8 588.8,267.6 587.3,267.6 		"/>
		<polygon fill="#FFFFFF" points="311.8,314.9 312.3,315.5 312.8,315.8 313.1,315.9 313.3,315.8 313.3,315.3 313.2,315.3
			312.7,315.5 312.2,314.9 311.5,313.9 310.8,312.8 311,313.6 311.3,314 		"/>
		<polygon fill="#FFFFFF" points="566.7,312.9 567.5,313.7 568.5,316.6 568.9,317.2 569.5,317.6 570.7,317.9 577.7,316.4 579.1,315
			579.7,314.9 579.2,313.9 578.7,313.1 577.7,311.8 577.7,311.7 566.2,311.7 		"/>
		<polygon fill="#FFFFFF" points="305.8,282.1 306.2,282 306.2,281.8 306,281.7 305.2,282.3 305.7,282.3 		"/>
		<polygon fill="#FFFFFF" points="573.3,325.6 573.2,325.7 573.2,325.9 573.4,325.9 573.6,326.2 573.8,326.2 574,326.3 574.4,326.2
			574.4,325.8 574.4,325.7 574.4,325.5 574,325.5 573.7,325.3 573.5,325.3 573.4,325.1 573.3,325.3 573.4,325.4 573.4,325.7 		"/>
		<polygon fill="#FFFFFF" points="397.9,229 397.7,229.1 397.5,228.9 397.1,228.2 396.7,228.1 396.4,228.1 395.1,227.3 393.4,227
			392.8,226.5 392.8,225.1 392.2,224.1 391.4,223.2 390.9,222.2 391,222 391.1,221.4 391.2,221.1 390.9,220.8 390.7,220.3
			390.6,219.7 390.4,219 389.1,216.5 388.7,215.3 388.3,214.1 388.1,213.5 387.8,213.2 388,212.6 387.3,212.2 386.7,211.6
			386.2,210.6 386.1,208.9 385.4,209.6 384.7,209.5 383.2,208.9 383.2,282.3 590.7,282.3 590.7,282.1 591.3,281.3 591.4,280.7
			591.1,280.5 589.9,280.5 587.7,281 582.8,280.5 579.1,281.3 578.1,280.5 580.1,280.5 581.9,280 586.2,280 590.2,278.9
			590.9,278.5 592.2,276.4 592.9,275.8 592.4,274.6 591.7,273.7 590.1,272.7 589.1,272.4 586.1,273.2 584.5,273.1 579.5,275
			579,274.2 579.8,273.7 582.5,273.2 583.8,272.4 584.5,272.1 586.1,272.1 587.1,271.7 587.8,270.9 587.7,269.6 585.2,268.7
			584.4,268 585.3,267.6 397.9,267.6 		"/>
		<polygon fill="#FFFFFF" points="353.8,279.3 353.8,279.3 353.2,278 352.6,277.4 352.6,277.2 352.6,277.1 352.7,277 352.8,276.9
			352.4,276.1 351.1,272.1 351.1,271.4 351.3,269.8 351.3,268.7 351.1,267 351.1,266 351.2,265.2 351.1,264.7 350.6,264.4
			350.8,263.1 350.5,262.4 349.3,261.2 348.5,259.7 348,259.3 347.3,259.1 346.6,259.4 345.3,260.5 342.2,261.7 342.2,261.2
			343.7,260.6 345.5,258.6 347.1,256 347.8,253.2 347.1,249.9 345.4,250.3 343.5,252 342,252.9 342,252.4 342.6,251.7 344.2,249.1
			344.6,248.2 344.1,247.2 343.2,246.8 339.1,246.8 339.1,267.6 323.7,267.6 323.3,267.8 322.2,269.2 319.2,271.5 315.7,272.6
			314.8,273.2 313.9,275 313.6,275.3 312.4,275.1 311.9,275.3 312,276.6 311.5,277.2 310,278 308.9,279.3 308.4,280.4 308,281.5
			309.6,280.9 310.4,281 311.1,281.5 311.1,282.1 310.5,282.1 310.2,282 310,281.6 309.3,282.2 309,282.3 330.6,282.3 330.8,282.1
			330.8,281.5 330.6,281.5 330.6,281 331.6,280 333,279.9 334,280.9 333.9,282.3 353.8,282.3 		"/>
		<polygon fill="#FFFFFF" points="263.7,312.1 263.8,313.3 264.2,313.7 264.6,313.9 265.1,314.6 267.4,315.9 268.1,315.8 269.4,315
			270.1,314.9 272.5,314.8 273.3,314.1 273.9,312.3 274,311.7 263.6,311.7 		"/>
		<polygon fill="#FFFFFF" points="311.6,311.7 311.5,311.9 312.1,311.9 311.7,312.9 313.7,312.7 314.7,313 315.4,313.9 315,314.6
			314.8,314.8 314.5,314.9 314.8,315.4 314.5,316.2 314.1,316.7 313.5,317.4 312.6,318.6 312.2,318.9 312.8,319.6 313.7,319
			314.7,317.9 315.5,317.4 316.6,317.2 317.6,316.6 319.6,314.9 319.6,315.4 318.6,316.6 315,318.4 315,318.9 315.1,319
			315.5,319.4 315,319.7 314.6,320.1 314.3,320.6 314.1,321.5 314.8,321.5 314,322.1 313.1,321.6 312.3,320.8 311.5,320.4
			311.9,321 312.3,321.7 312.7,322.3 313.1,322.5 313.3,322.7 313.6,323.3 314,323.9 314.5,324 314.5,324.5 314.1,325.3 314,326.4
			314,326.4 331,326.4 332.2,326 333.5,324.7 333.8,324.5 334.2,324.1 334.4,322.4 334.7,322 335,321.8 336.3,320.4 336.1,321.1
			335.8,321.7 335,322.5 335,323 335.8,322.9 337.8,320.9 338.6,320.9 341,321.5 341,322 338.5,321.6 338,321.7 337.4,322.3
			335.6,323.5 335.6,324 338.9,324 338.9,324.5 337.6,325 338.2,325.4 338.8,326.4 339.1,326.4 339.1,326.8 339.3,327 339.9,327.2
			341,327.1 341.5,327.5 339.1,327.4 339.1,339.9 343,340.2 342.8,340.2 342.9,340.2 343,340.2 343,340.3 343,340.6 342.5,341
			342.3,341.1 342,341.1 342,341.5 342.7,341.9 344.1,341.1 343.3,342.6 342.5,342.7 339.1,341.9 339.1,380.7 345.6,379.8
			345.7,379.7 345.8,379.5 345.9,379.4 346.1,379.4 345.7,378.2 346.2,377.4 347,377 348.5,376.9 349.9,377.1 350.6,377.4
			350.2,376.3 349.4,375.7 347.8,374.9 347.8,374.5 348.2,374.3 349.2,373.2 349.4,372.8 349.8,372.4 351.4,372 351.9,372.1
			353.4,373 353.8,373 353.8,311.7 		"/>
		<polygon fill="#FFFFFF" points="299.5,267.8 299.7,267.6 299.5,267.6 		"/>
		<polygon fill="#FFFFFF" points="383.2,401.7 384.3,402 386.7,401.9 386.5,401 386.7,401 386.8,401.1 386.9,401.4 387.1,401.3
			387.1,401.2 387.2,401 387.3,401 387.9,401.8 396.3,402.4 393.1,401.7 393,401.4 396,401.9 396.4,401.8 396.9,401.3 397.3,401.4
			397.7,401.7 397.8,402 397.5,402.3 397.1,402.4 397.9,403.2 397.9,326.4 560.9,326.4 560.7,326 561.1,325.5 565.3,325.5
			565.9,325.1 566.3,324.5 566.3,323.8 566,323 565.4,322.3 564.1,321.6 563.6,320.9 565.2,319.7 570.5,321.5 570.3,320.9
			570.7,320.2 570,319.5 568.5,319 568.1,318.5 567.5,317.5 567,316.3 567.1,315.4 567.1,314.9 566.5,314.8 564.9,313.9
			564.4,313.3 564.5,312.8 564.8,311.9 564.8,311.7 383.2,311.7 		"/>
		<polygon fill="#FFFFFF" points="298.7,275.1 298.9,275.2 299,275 299.1,274.8 299.1,274.6 298.6,274.8 298.3,275.3 298.5,275.2
			"/>
		<polygon fill="#FFFFFF" points="341.8,221.2 342.7,220.5 347.2,220.1 346.8,218.4 346.2,217.5 345.5,217.1 344.5,216.9
			341.1,217.8 340.3,217.1 339.7,216.1 339.6,215.5 339.8,214.7 340,214.6 340.7,214.1 341.1,213.5 340.5,213.2 340.4,213
			340.2,212.4 340.1,211.8 339.8,211.5 339.1,211.5 339.1,222 		"/>
		<polygon fill="#FFFFFF" points="343.2,243.1 344.1,242.4 346.7,239.1 346.2,238.6 344.5,237.5 344,237.4 342.8,237.6 342.2,237.6
			342.2,237 345.4,235.8 346.3,235 346.9,233.9 348.5,230.2 348.5,229.7 346.9,228.6 347.9,228 348.2,227 348.2,225.7 347.7,224.1
			346.9,223.4 343.4,224.4 343.4,223.8 344.8,222.8 345.2,222.2 344.3,221.6 341.3,222.2 339.5,223.2 339.1,223.2 339.1,242.9 		"/>
		<polygon fill="#FFFFFF" points="353.5,275.3 353.7,276 353.8,276.3 353.8,274.7 		"/>
		<polygon fill="#D72828" points="380.7,408.3 380,408.4 379.3,408.7 379.3,409.5 379.5,410.3 379.7,410.8 379.9,411.5 380.1,411.8
			380.4,411.3 380.7,410.6 380.9,409.9 380.8,409.1 380.6,408.8 380.8,408.5 		"/>
		<polygon fill="#D72828" points="383.2,208.9 383.1,208.9 382.6,209.2 381.4,210.6 380.8,211 379.7,210.8 379.3,211 379,211.2
			378.5,211.9 378.1,212 376.8,211.9 376.1,212 375.4,212.6 375.8,213.6 375.7,214.9 375.2,216.1 374.7,216.8 375.3,217.5
			375.7,218.3 376.1,219.3 376.3,220.6 376.5,223.3 376.7,224 377.9,226.7 378.7,229.3 379.1,231.5 378.2,232.3 378.2,232.9
			379,233.7 379.8,235.1 380.4,236.9 380.6,238.9 380.6,240.2 380.4,241.2 380,242 379.7,242.4 379.2,242.8 379.3,244 379.7,244.9
			380.4,245 379.7,245.2 379.1,245.2 378.9,245.5 378.7,246.1 378.7,247.3 378.5,247.9 378.1,248.8 377.1,250.3 376.7,251.3
			377.1,252.5 376.9,253.4 376.6,254.3 376.7,255.5 376.2,254.4 376.3,251 375.9,250.3 375.5,250.5 374.6,251.2 374.2,251.3
			373.2,251.4 372.1,251.8 372.6,252.3 373.1,252.4 374.2,252.4 374.6,252.6 375,253.6 375.4,253.9 375.1,255.6 374.9,256.7
			374.6,257.5 373.9,258 373.5,258.1 373.1,258 372.7,257.8 372.4,257.5 372,257.1 371.8,256.6 371.7,256.1 371.5,255.5
			371.3,255.3 370.7,255 370.6,255 370.6,254.6 370.7,254 370.8,253.4 370.7,252.6 370.7,252.1 370.7,251.8 370.4,251.3
			369.6,250.7 369.2,251.3 369.2,252.5 369.6,253.9 368.9,254.2 368.5,253.4 368.5,252.1 368.9,250.8 368.6,249.7 368.7,248.1
			368.9,245 369,244.8 369.1,244.8 369.2,244.7 369.1,244 369,243.9 368.6,244 368.5,244 367.9,243.1 367.5,242.8 367.1,242.9
			367,243.7 366.6,244 366,244.2 365.4,244.5 363.4,247.1 359.8,249.9 358.9,251.8 358.8,252.3 358.5,254.5 358.4,254.9 358,255.6
			357.8,256 357.7,257.2 357.7,258.4 357.8,260.2 358.1,262.5 358.6,264.9 359.4,267.3 360.2,269.1 360,269.6 359.5,269.2
			358.5,268.9 358.2,268.3 358.1,267.8 357.1,265.9 356.2,262.7 355.5,261.3 354.5,260.8 354.1,261.9 354.3,264.2 354.9,270
			354.9,271.1 354.7,272.2 354.5,272.7 354.2,273.1 354,273.6 354.1,274.2 353.9,274.5 353.8,274.7 353.8,276.3 354.3,277.2
			354.5,277.9 354.6,278.5 354.7,279.7 355.2,281.5 354.9,282.6 354.4,283 353.9,282.6 353.9,282.1 354.1,280.8 353.8,279.3
			353.8,282.3 333.9,282.3 333.9,283.5 332.5,287.4 332.2,288.2 331.6,288.8 331.1,289 330.7,289.3 330.4,290.3 331.4,290.5
			332,291.2 331.9,292.1 331.1,292.9 327.6,293.4 326.7,292.9 326.1,293.4 325.5,293.2 324.8,292.7 324.1,292.4 321.7,292.4
			321.4,292.6 321,293.3 320.6,293.5 317.8,292 313.5,291.1 310.9,291.7 308.2,291.6 307.7,291.9 307.6,292.9 307,292.9
			306.5,293.3 305.6,294.4 306.4,295.8 306.8,296.3 307.2,296.5 307.2,297 306.6,296.8 305.3,295.4 304.2,294.9 303.9,294.3
			303.7,292.9 303.2,293.3 302.7,293.5 302.1,293.6 301.7,293.5 302.1,293 303.1,292.5 303.5,291.8 303.4,291.5 303.4,291.4
			303.5,290.8 302.9,290.5 302.4,290.3 302.6,290.1 302.8,289.7 301.6,290.1 299.2,292.5 297.8,292.9 297.8,293.5 300.1,293.1
			300.6,293.5 298.8,294.8 296.8,295.2 296.2,295.7 295.6,296.5 294.9,295.2 294.1,294.4 293.2,294.5 292.3,295.7 292.1,296.2
			291.9,297.1 291.7,297.6 291.5,297.7 290.9,297.8 290.7,298 290.4,298.8 290.2,299.6 290.3,300.5 290.4,301.6 288.7,299
			288.9,298.4 289.2,297.9 289.4,297.6 289.8,297.6 289.6,296.8 289.6,296.5 290.5,295.8 290.9,295.2 291.1,294.4 288.5,294
			287.2,294.2 286.3,295.4 286.2,296.5 286.4,297.6 286.6,298.5 286.8,299.3 286.6,300.1 286.1,300.7 285.5,301 285,300.5
			284.4,301.3 284.3,300.7 284.3,299.7 284.1,299 283.8,299 283.5,299.5 283.3,299.9 282.9,299.6 283.1,298.3 282.6,297.9
			281.3,298 281.4,298.3 281.5,298.6 281.6,298.8 281.7,299 281.7,299.6 278.9,299 277.6,299.5 276.4,301.3 276.1,301.7
			274.8,301.6 274.5,301.9 273.9,302.9 273.6,303.1 270.1,302.5 267.6,300.8 266.9,300.7 263.4,301.7 262.9,302.1 261.7,303.5
			261.1,303.7 260.4,303.1 260.2,303.6 261.1,306.8 261.6,308.1 262.2,309.2 263.5,311.4 263.6,311.7 274,311.7 274.1,310.9
			275,309.6 276.2,309 276.8,309.2 276.4,309.2 276,309.4 275.6,309.8 279.4,310.9 279.7,310.8 280.1,310.6 280.4,310.3
			280.6,309.9 281.2,309 281.2,308.8 284.3,308 286,308.2 287.9,310.1 292.3,310.5 296,310.5 300,310.8 299.8,310.8 300.7,311
			301.5,311.7 302.8,311.7 301.3,310.8 300.9,310.3 304.2,310.3 304.5,310.5 304.9,311.1 305.2,311.7 305.2,311.7 306.7,311.7
			306.7,311.3 307.2,311.1 308.2,310 308.7,309.8 310.4,310.3 310.4,309.8 310.8,309.4 311.1,309.3 311.3,309.6 311.5,310.3
			311.7,309.6 312,309.1 312.3,308.8 312.6,308.8 312.3,309.6 311.7,311.1 311.6,311.7 353.8,311.7 353.8,373 355.8,373
			354.9,373.8 353.8,374.1 353.8,379.4 354.8,380.1 358.9,381.6 361.8,383.5 363,384.9 362.9,384.6 362.6,383.4 363.4,383.9
			364.3,383.7 365,383.1 366.2,381.5 366.8,380.4 366.9,379.4 366.1,379 366.1,378.6 367.3,379 367.7,380.8 367.4,383 366.3,384.5
			366.3,384.9 367.1,385 369.4,384.4 369.4,384.9 369.2,384.9 369,384.8 368.9,384.8 368.9,385.3 369.8,385.3 369.8,385.8
			368.7,385.8 368.3,385.9 368.2,386.3 367.7,386.3 367,385.5 366.6,385.3 364.5,385.3 366.7,387.1 367.8,387.5 369.2,388.8
			370.6,389.6 370.8,389.4 371.1,388.8 371.2,388.1 371.1,387.2 371.2,386.5 371.4,386.3 372.2,386 372.8,385.4 373.7,384.4
			375.1,382.5 375.4,381.8 375.4,381.4 375.3,380.8 375.6,380.6 375.9,380.8 376.1,381.8 375.9,382.5 374.9,384.3 377.4,385.7
			377.8,386.2 378.6,387.6 379.1,388.3 378.1,388.1 376.3,386.3 375.3,385.8 373.2,386.1 372.2,386.7 371.3,387.7 371.7,388.9
			371.9,389.3 371.6,389.7 371.5,389.8 372.1,391.4 373,392.7 375.1,394.6 374.7,393.4 374.1,392.3 373,390.7 373,390.2
			373.8,390.2 374.1,390.6 374.4,391.5 374.9,392.7 375.5,393.4 376.1,393.9 376.7,394.5 377.1,395.6 376.1,395.1 376.1,395.6
			376.8,396.1 377.3,396.3 377.9,395.9 378.5,395.1 378.4,395.4 378.2,396.5 378.6,396.6 379.3,396.9 379.7,397 379.3,397.5
			378.7,397.6 378.2,397.4 377.8,397 378.3,397.6 383.1,401.7 383.2,401.7 383.2,311.7 564.8,311.7 564.8,311.2 564.4,310.8
			563.6,310.9 563.2,310.7 562.9,310.3 565.4,310.8 565.9,311.2 566.2,311.7 577.7,311.7 577.7,311.3 578.3,310.9 578.6,310.6
			578.8,310.3 579.8,310.7 583.4,310.8 584.3,310.5 584.3,309.7 583.7,309.2 580.3,307.8 581.3,306.9 584.6,308.2 585,308
			585.8,306.9 586.3,306.7 586.6,306.4 586.5,305.8 586.2,305.1 586,304.7 583.9,303 579.4,301.9 577.5,300.5 578.1,300.3
			580,301.1 583.1,300.5 585.9,301.9 587.5,302.1 588.8,301 588.2,300 584.9,298.4 583.4,297.1 583.2,296.7 583,295.9 582.6,295.2
			582.2,294.6 581.9,294.4 571.8,293.4 571.8,292.9 578.3,292.6 579.5,291.3 579.1,291.1 578.7,290.7 578.4,290.1 578.2,289.3
			579.1,289.7 580.9,291.4 582.6,292 583.6,292.7 584.1,292.9 584.6,293.3 585,294.2 585.2,295.2 585.5,295.9 586.2,296.3
			588.1,295.9 590.4,296.5 590.9,296.2 591.9,295.2 592.4,294.9 592.4,294.6 592.2,293.9 591.6,292.9 592.2,292.3 593.6,291.9
			594.2,291.3 594.8,290.3 595,289.4 594.8,288.7 594.2,288.2 594.2,287.7 594.4,286.8 594.5,285.2 594.5,283.6 594.4,282.5
			593.2,284.1 592.3,285.9 592.2,286.2 591.9,286.4 591.4,287.4 591.1,287.7 591,287.5 590.8,287.2 590.5,286.9 590.2,286.7
			589.2,286.7 589.5,286.2 589.7,285.9 590,285.7 590.3,285.6 590.3,285.2 589.7,284.6 587.3,285.2 587.3,284.6 588.3,284.2
			589.3,284.1 590.5,283.5 590.7,283.2 590.7,282.9 590.7,282.6 590.7,282.3 383.2,282.3 		"/>
		<polygon fill="#D72828" points="309.1,290.5 309.5,289.9 309.6,289.9 309.8,290 311.7,289.6 311.7,289.3 310.8,289.1 309.4,289.5
			309.3,289.4 309.1,289.4 309.1,289.6 309.2,289.8 309,290.3 		"/>
		<polygon fill="#D72828" points="369.8,419.3 370,419.1 370,418.3 369.6,418.3 369.4,418.7 369.2,419 369.4,419.2 369.7,419.3
			"/>
		<polygon fill="#D72828" points="302.8,286 302.9,286.3 303.1,286.4 303.3,286.2 303.3,286 303.2,286 303,286.1 		"/>
		<polygon fill="#D72828" points="307.5,285.6 307.4,285.6 307.2,285.5 307.2,285.9 307.4,286.2 307.5,286.4 307.7,286.4
			307.8,286.1 307.9,286 308.1,286 308.2,285.8 308.4,285.6 308.5,285.2 308.3,285.2 308.2,285.4 308,285.4 307.9,285.2
			307.9,285.5 307.8,285.6 307.7,285.7 307.6,285.8 307.6,285.7 		"/>
		<polygon fill="#D72828" points="308.4,282.5 307.9,282.8 308.5,283.5 309.3,283.9 312.2,283.5 312.7,283.1 312.8,283.1
			313.2,283.2 315.5,285.1 324.5,286.9 326.1,286.2 330.6,282.3 309,282.3 		"/>
		<polygon fill="#D72828" points="304.5,283.2 304.6,283.5 305.3,283.3 305.3,283.2 305.1,282.9 305.1,282.8 305.6,282.4
			305.7,282.3 305.2,282.3 304.8,282.7 		"/>
		<polygon fill="#D72828" points="304.3,284 304.1,284.1 304.1,284.2 303.9,284.4 303.7,284.3 304,284.8 304.2,284.8 304.3,284.6
			304.5,284.4 304.7,284.3 304.7,284.3 304.7,283.8 304.3,283.8 		"/>
		<polygon fill="#D72828" points="307,286.5 306.8,286.3 306.5,286 306.2,286.4 306.1,286.4 306,286.4 306,286.8 306.1,286.8
			306.3,287 306.5,287 306.5,287.3 306.2,287.4 306,287.6 306.2,287.7 306.6,287.5 306.9,287.2 306.9,287.2 306.9,287 307,286.8
			"/>
	</g>
	<path fill="none" stroke="#999999" stroke-width="0.25" stroke-linecap="round" stroke-linejoin="round" d="M307.5,285.6
		L307.5,285.6l-0.3-0.1l0,0.4l0.2,0.3l0.2,0.1h0.2l0-0.3l0.2-0.1l0.2,0.1l0.1-0.2l0.2-0.3l0.1-0.3h-0.2l-0.2,0.2H308l-0.1-0.2l0,0.3
		l-0.1,0.1l-0.1,0.1l-0.1,0.2v-0.1L307.5,285.6z M307,286.5l-0.2-0.2l-0.4-0.3l-0.3,0.4l-0.1,0l-0.1,0v0.4l0.2,0l0.2,0.3h0.2l0,0.3
		l-0.3,0.1l-0.2,0.2l0.2,0.1l0.4-0.2l0.3-0.3v-0.1l0-0.2l0.1-0.2L307,286.5z M298.9,275.2l0.2-0.2l0.1-0.2l0-0.2l-0.4,0.2l-0.4,0.5
		l0.2-0.2l0.2-0.1L298.9,275.2z M574.4,325.5l-0.4,0l-0.3-0.1h-0.2l-0.1-0.2l-0.1,0.2l0.1,0v0.3l-0.1,0l-0.1,0.1v0.2l0.2,0l0.2,0.3
		l0.1,0l0.2,0.1l0.4-0.1l0.1-0.3l0-0.2V325.5z M304.6,283.5l0.6-0.2l0-0.1l-0.2-0.3v-0.2l0.5-0.4l0.2-0.2l0.4-0.2l0-0.2l-0.2-0.1
		l-1.2,1l-0.3,0.6L304.6,283.5z M309.1,290.5l0.4-0.6h0.1l0.2,0.1l1.9-0.4l0-0.3l-0.9-0.2l-1.4,0.5l-0.1-0.1l-0.2,0l0,0.2l0.1,0.2
		l-0.2,0.5L309.1,290.5z M496.9,380l-0.1,0.5l0.2,0.2l1.8-2.6l0.1-0.2l-0.4,0.4L496.9,380z M495.4,382.5l-0.2,0.3l0.2,0.2l0.3,0
		l0.8-1l-0.1-0.1L495.4,382.5z M484.7,382.5l-0.1,1l0.2,0.2l0.2-0.7l0-0.6L484.7,382.5z M494.6,383.3l-0.3,0.2l-0.2,0.2l1.3-0.3
		l-0.2-0.2L494.6,383.3z M491.4,384.2v0.1l2.2-0.5l-1.4,0.2L491.4,384.2z M493.8,383.8l0.2,0L493.8,383.8L493.8,383.8z M488.5,383.9
		l-0.2,0.4l-1.3,0.4l3.2-0.4l0.1-0.1l-0.3-0.2L488.5,383.9z M478.4,384.4l0.1,0.1l0.9,0.2l0.4-0.2l-0.9,0L478.4,384.4z M476.4,384.4
		l-1.9,0.4v0.2l2.5-0.3l-0.1-0.2L476.4,384.4z M480.8,384.6l0.1,0.1h2.9l-1.5-0.2L480.8,384.6z M561.4,188.9L561.4,188.9h0.2H561.4z
		 M452.4,177.1l0.6-0.4l0.1-0.8l-0.2-0.2l-0.8-1.1l-0.3,0.2l0.1,1.3L452.4,177.1z M460.2,389.3l-0.4-0.1l-0.2,0.1l-0.6,0.4l-1,1
		l-0.1,0.6l1.4-0.5l0.4,0l0.3,0.2l0,0.4l-0.2,0.4l-0.2,0.3l0.2-0.1l0.5-0.7l0.2-0.8l0-0.6L460.2,389.3z M439.7,219.3l0,0.6l0.2,0.5
		l0.3,0.3l0.4,0.1l0.4-0.3h0v-0.9l-0.5-1l-0.3-0.4l-0.3-0.5l-0.6-0.7l-0.2,0.3l0.3,1.1L439.7,219.3z M380.6,408.8l0.2-0.4l-0.1-0.1
		l-0.8,0l-0.6,0.3l-0.1,0.8l0.2,0.8l0.2,0.5l0.2,0.6l0.2,0.3l0.3-0.4l0.3-0.7l0.2-0.8l-0.2-0.8L380.6,408.8z M594.8,288.7l-0.6-0.4
		v-0.6l0.2-0.9l0.1-1.6v-1.6l-0.1-1.1l-1.2,1.6l-0.9,1.8l-0.1,0.3l-0.3,0.2l-0.5,1l-0.3,0.2l-0.1-0.2l-0.2-0.3l-0.2-0.3l-0.3-0.2h-1
		l0.2-0.5l0.2-0.3l0.3-0.2l0.3-0.1v-0.5l-0.6-0.5l-2.5,0.5v-0.6l1-0.4l1.1-0.1l1.2-0.6l0.2-0.3v-0.3l0-0.4l0.1-0.5l0.5-0.8l0.1-0.6
		l-0.3-0.2h-1.2l-2.2,0.6l-4.9-0.6l-3.7,0.8l-1-0.8h2l1.8-0.5h4.3l4-1l0.7-0.4l1.3-2.1l0.7-0.6l-0.4-1.2l-0.8-0.9l-1.6-1l-1-0.3
		l-3.1,0.8l-1.6-0.1l-5,1.9l-0.5-0.7l0.8-0.5l2.7-0.5l1.3-0.8l0.7-0.2h1.6l1-0.4l0.7-0.8l-0.1-1.3l-2.5-0.9l-0.8-0.7l1.3-0.7
		l2.9,0.4l1.1-0.8v-0.8l0.1-0.7v-0.6l-0.3-0.5l1.1-0.8l0.2-0.3v-0.7l-0.4-1.4l-0.1-0.4l0.3-0.7l0.6-0.7l0.4-1.1l0-1.7l-0.2-0.4
		l-1.1-1.3l-0.2-0.1l-0.4,0.2l-0.2-0.1l0-0.2v-0.5l0-0.5l-0.2-0.3l-1-0.2l-0.8,0.6L586,256l-0.6-0.5l-0.3-0.4l-0.2-0.6l0.1-0.9
		l0.1-0.7l0-0.6l-0.3-0.4l-0.4-0.2l-1,0v-0.5l0.4-0.2l0.2-0.5l0-0.8l-0.2-0.9l-0.4-0.4l-0.6,0l-3.5,0.9l-0.9-0.2l-7-4.2l0.4,0.8
		l0.9,1l0.5,0.7l-2.5-1.9l-0.8-0.2l-0.7,0.5l-3.9,5.9l-0.6,1.2l-0.3,0.5l-1.1,1.1l-0.4,0.2l-0.3,0.4l-0.7,1.7l-0.4,0.6l0.2-1.3
		l0.4-1.2l0.5-1l2.4-2.9l0.6-1.6l1.7-2l0.8-2l0.9-0.7l1.7-0.6l-0.6-0.7l-2-1.4l-0.7-0.6l-0.2-0.2l-0.1-0.3l-0.2-0.7l-0.1-0.6
		l0.8-0.8l1.4-3.2l-1-1.1l-1.3,0.3l-2.4,1.4l-6.8,1.9l-2.5,1.4l-1.2,0.3l-1.1-0.6l0.4-1.4l0.9-1.8l0.5-1.6l-1.5,2l-0.8,0.7l-1,0.1
		l1.6-1.8l0.6-1.1l0-1.4l0.7-0.9l2.4-1.8l2.1-2.6l0.4-0.3l0.1-0.6l0.7-1.9l0-0.4l0-0.8v-0.4l0.2-0.4l0.4-0.4l0.1-0.4l0-0.8l-0.3-1.8
		l-0.1-0.9l-0.2-0.3l-0.4-0.1l-0.4-0.3l-0.2-0.9l-0.2-1.8l-0.4-1.2l-0.6-0.7l-0.7-0.4l-1.6,0.2l-2.6,2.4l-1.5,0.1l-2.1-1l-3.6-0.1
		l-0.6-0.5l0.4-0.3l0.6-0.6l0.3-0.3l-0.2-1.5l-0.4-0.6l-1.9-0.1l-0.5-0.2l-1-0.8l0.6-1.8l0.8-0.8l2-0.1l0.5-0.3l3-2.9l0.3-0.6
		l0.4-1.3l0.1-0.9l-0.2-0.4l-0.1-0.4l-0.7-1.4l-0.2-0.2l-0.2-0.6l-0.4-0.4l-0.8-0.3l0.8-1.4l1-0.8l2.9-0.8l2.5-2l5.6-2.5l1.5-1.7
		l-6.1,1l-0.7-0.3l-1.2-1l-0.8-0.2l-2.7,0.5l-0.8,0.6l-1.2,1.3l-0.6,1L547,193l-0.4,1l-2.2,1.5l-0.2,0.6l0,0.7l-0.2,0.6l-2.2,0.8
		h-3.9l-0.9,0.6l-0.2,0.8l0.1,1.1l0.1,1.6l-0.1,1.5l-0.2,1.2l-0.4,0.9l-0.6,0.4l0.1,0.3l0.1,0.2l0.3,0.1l-0.8,0.7l-0.6-0.7l-0.6-1.1
		l-1-0.8l-1-1.1l-0.9-0.4l-0.3-0.5l-0.2-0.7l-0.1-0.8l-0.3,0.4l-0.2,0.2h-0.2l-0.3-0.6l-0.2-0.4l-0.4-0.1l-1.1,0.5l-2.3-0.1
		l-0.5-0.4l0.2-1.1l0.2-0.9l-0.1-0.6l-1-0.4l-0.4-0.5l-0.4-0.2l-0.4,0.4l-0.4-1.1l1-0.8l0.8-1l1.3-2.5l-0.6-2.2v-0.5l0.1-0.7
		l-0.3-0.7l-0.5-0.6l-0.6-0.2h-3l0-0.4l0.1-0.9l0.1-0.4l-0.6,0.3l-1.3-0.3l-1.2,0.3l-0.4-0.1l0.3-0.7l-0.2-0.2l-0.3-0.6l-0.2-0.2
		l0.7-0.6v-0.5l-0.1,0l-0.3,0l0.2-1.2l0.4-0.5l0.5-0.3l0.4-0.7l-1.5-0.6l-2.7-2.7l-1.5,0.6l-0.4,0.2l-1.8-0.8h-0.9l-0.7,0.4
		l-0.3,0.4l-0.2,1.5l-0.4,0.4l-0.4-0.1l-0.2-0.9l0-0.2l-0.4,0.5l-0.3,0.8l-0.4,0.6v0.6l-0.2,0l-0.6,0.3l-0.6,0.1l-0.6-0.5l0.2-0.1
		l0.4-0.5l-0.6-0.1l-0.4-0.5l-0.4-0.6l-0.5-0.4l-0.3,0.1l-0.9,0.8l-0.5,0.2l0.1,0.5l0,0.3v0.4l0.1,0.5l-0.3-0.3l-0.3-0.6l-0.1-0.8
		l0.1-0.9v-0.6l-0.5,0l-0.9,0.4l-0.4,0.4l-0.2,0.8l-0.1,0.8l-0.1,0.4l-0.4-0.1l-0.1-0.5l0-0.6l-0.2-0.5l-0.7,0.1l-0.6,1l-0.3,1.1
		l0.9,1l0.6,2.6l0.6,0.8v0.6H499l0.3,1l0.2,0.3l0.2,0.2l-0.1,0.3l-0.2,0.6l-0.1,0.2l0.3,0l0.1,0l-0.2,1.4l0.2,0.6l0.9,0.7l0.1,0.4
		l0,0.7l0,0.7l0.2,0.3l0.2,0.1l0.2,0.2l0.1,0.2l0.5,1.2l0.3,0.6l0.2,0.6l0.1,1.2l-0.1,0.7l-0.2,0.8l-0.3,0.6l-0.1,0.4v0.5l-0.6,0.5
		l-0.5,0.8l-0.3,1l-0.1,1.2l0.2,0.9l0.6,0.9l1.1,1.2v0.6l-0.8-0.1l-1.2-1.9l-0.8-0.7l-0.7,0l-2.8,1.1l0.9-1l2.8-1.7l-0.8,0l-1.3,0.8
		l-2.2,0.7l-1.4,1l0.6,0.6l0.1,0.6v0.8l0.2,1l0.4,0.6l0.5,0.6l1,0.7v0.5l-1.1-0.2l-0.7-1.2l-0.6-1.4l-0.9-0.9l-0.4,0.2l-0.4,0.6
		l-0.6,1.6l-0.2,0.1l-0.6-1.2l-0.4-0.3l0.5-0.6l0.5-0.3l0.5-0.2h0.5l-1.2-0.4l-4,1.1l-1.1,0.9l0.5,0.5l0.2,0l-0.4,0.4l-0.4,0.1
		l-0.4-0.2l-0.4-0.4v-0.5h0.4v-0.7l0-0.4l-1.2-3.3l-0.6-1.4l-0.8-0.6l-3.2-0.3l-0.8-0.8l-0.3,1.4l-2,0.8l-0.9,0.9l-0.6,1.1l-0.2,0.6
		l0.4,0.2l0.2,0.4l0,0.9l-0.2,0.9l-0.4,0.4l-0.8,0.3l-1,0.8l-0.8,1l-0.4,1.1l0,1l0.1,1.2l0,0.4l-0.2,0.6l-0.2,0.4l-0.5,0.6l0.1,1
		l-0.2,0.8l-0.4,0.6l-0.4,0.4v0.5l0.3,0.5l0.1,0.5l-0.1,0.6l-0.2,0.6h-0.2l-0.4-1.4l-0.2-0.9l-0.4-0.4l-5.1,0.1l0.8,0.6l2.9-0.2
		l-0.6,0.5l-0.7,0.4l-0.7,0.2l-0.6,0l0.3,1.2l0.4,1l0.3,1.1l-0.1,1.5l-0.4-1l-1.1-3.2l-0.8-1.6l-0.6-0.8l-1-0.8l-0.4-1l-0.5-2.2
		l-0.4-0.9l-1.2-2l-0.4-0.4l-0.6-0.3l-1-1.5l-0.5-0.4l-1.3,0.2l-0.4-0.2l-0.3-0.6l-0.3-1.6l-0.3-0.6l-1.4-0.6l-3.2,0.8l-1.2-0.7
		l0.1-0.2l0,0v-0.1l0-0.2l-0.5-0.2l-1.4,0.2l-0.4-0.2l-0.8-0.7l-0.4-0.2l-2.8-0.2l-0.5,0.2l-0.8,2.3l-0.2,3.7l0.4,3.6l0.9,2.2v0.6
		H443v0.5l0.4,0.8l0.6,1.6l0.9,0.6l0.4,0.8l0.1,1l-0.3,1.1l0.3,0.6l1,1.3l0.4,0.3l0.1-0.2l0.3-0.7l0.2-0.2l0.2,0.1l0.1,0.2l0,0.2
		l0,0.1l0.2,0.2l0.6,1.4l0.2,0.1l0.2-0.1h0.2l0.1,0.3l0,1.1l0,0.2l1,3.7l0.1,1.2l-0.2,1.4l-0.2,0.2l-0.6,0.5l-0.2,0.3l-0.1,0.8v0.6
		l0.1,0.5v0.7l-0.1,0.4l-0.2,0.4l-0.1,0.5l0.2,0.9l0.2,0.3l0.6,0.5l0.2,0.3l0.3,0.9l0.3,1.4l0,1.4l-0.4,1l-0.5-0.2l-0.4-1.1
		l-0.2-1.4l0.2-1l-1.5-1.6l-0.9-1.4l-0.3-0.2l-0.1-0.5V236l-0.2-0.6l-0.6-1.4l-0.1-0.9l0.1-2.2l-0.1-0.6l-0.4-0.9l-0.2-0.3l-0.3-0.1
		l-0.6,0.1l-0.2-0.1l-0.1-0.2l0-0.4l-0.3-1l-0.2-0.9l-0.2-0.8l-0.7-0.6l-0.5-1.3l-0.4-0.6l-0.3-0.3l-2.3-0.4l-1.4-0.9l-2.3-0.6
		l-0.1-0.6l0.2-1.4l0.6-2.3l-0.4-1.2l-0.2-1.6l-0.3-1.4l-0.5-0.6l-0.4-0.3l-0.4-0.5l-0.4-0.3l-0.4,0.3l-0.3,0.4l-0.4,0.3l-0.4,0.1
		l-0.4,0l0.9-2l0.4-1.2l-0.3-0.6l-0.6-0.5l-0.7-1l-0.8-1l-0.9-0.2l-2.3,2.4l-0.4,0l0.1-1.2l0.5-1.7l0.2-1.2l-1.6-0.8l-0.9-0.2
		l-0.6,0.4l0.1,0.3l0.1,0.8l-0.7,1.7l-0.4,0.7l-0.6,0.2l0.2-2.5l-1-0.5l-2.8,1.1l-1.1,1l-0.3,0.5l-0.2,0.8l-0.4,1.8l-0.3,0.5v0.5
		l0.2,0.1l0.3,0.3l0.2,0.1v0.5h-0.2l0.2,0.8l0.2,0.6l0.3,0.4l0.4,0.4l-0.6-0.2l-1.1-1.2l-0.6-0.2l0.1-0.8l0.1-0.3l-0.3-0.1l-0.3,0.1
		l-0.2,0.2l-0.2,0.3l0,1.3l-0.8-0.2l-1.5-1.2l-4.2,0.7l-1.8,1l-0.6,0.7l-0.3,0.6l-0.2,0.2v0.3l0.3,1.6l0.2,0.8l0.3,0.6l0.3,0.5
		l-0.5,0.9l-0.6,0.6l-0.6,0.4l-0.6,0.1l-0.4,0.3l-0.3,0.6l-0.1,0.7v0.6l1.9,2.1l0.1,0.5l0.9,2.7l0.5,1.9l0.2,1.8l0,2l-0.2,2.2
		l-0.4,2.2l-0.3,1.1l-0.3,0.5l-0.6,0.4l-0.3,0l-0.1-0.6l0.1-0.4l0.2-0.2l0.3-0.2l-0.9,0l-0.4-0.1l-0.2-0.2l-0.4-0.6l-0.1-0.1l-1-0.1
		l-0.2,0.6l-0.2,1.6l-0.6-1l-1.7-0.5l-0.7-1l-0.2-0.9l-0.2-2.1l-0.1-1l-0.2-0.6l-0.7-1.6l-0.1-0.5l0-0.6l-0.1-0.6l-0.2-0.6l-0.2-0.1
		l-0.4,0.1l-0.2-0.2l-0.4-0.6l-0.3-0.1l-0.4,0l-1.3-0.8l-1.7-0.3l-0.6-0.6l0-1.4l-0.6-1l-0.8-0.8l-0.6-1l0.1-0.2l0.2-0.6l0.1-0.3
		l-0.4-0.3l-0.2-0.5l-0.1-0.6l-0.2-0.7l-1.3-2.6l-0.4-1.2l-0.3-1.2l-0.2-0.6l-0.3-0.3l0.2-0.6l-0.8-0.4l-0.6-0.6l-0.4-1l-0.2-1.7
		l-0.7,0.6l-0.7-0.1l-1.6-0.6l-0.5,0.3l-1.2,1.4l-0.6,0.4l-1.1-0.2l-0.4,0.1l-0.3,0.3l-0.6,0.7l-0.3,0.1l-1.3-0.2l-0.8,0.2l-0.6,0.6
		l0.4,1l-0.2,1.3l-0.4,1.2l-0.5,0.8l0.6,0.7l0.4,0.8l0.4,1l0.2,1.3l0.2,2.7l0.2,0.7l1.2,2.7l0.8,2.5l0.3,2.2l-0.8,0.8v0.6l0.8,0.8
		l0.8,1.4l0.6,1.8l0.2,2l-0.1,1.2l-0.2,1.1L380,242l-0.4,0.3l-0.4,0.5l0,1.1l0.4,0.9l0.7,0.2l-0.6,0.2h-0.6l-0.3,0.3l-0.2,0.6l0,1.2
		l-0.1,0.6l-0.5,0.9l-1,1.5l-0.4,1l0.4,1.2l-0.2,0.9l-0.3,0.9l0.1,1.2l-0.5-1.1l0.1-3.4l-0.4-0.7l-0.4,0.2l-0.9,0.7l-0.4,0.2l-1,0.1
		l-1.1,0.4l0.5,0.5l0.5,0.1l1.1-0.1l0.4,0.2l0.5,1l0.4,0.3l-0.4,1.6l-0.2,1.2l-0.3,0.8l-0.7,0.5l-0.4,0.1l-0.4-0.1l-0.4-0.2
		l-0.4-0.3l-0.4-0.5l-0.2-0.4l-0.1-0.5l-0.2-0.6l-0.2-0.2l-0.6-0.4l-0.1,0v-0.4l0.1-0.5l0.2-0.6l-0.1-0.9v-0.4l0-0.3l-0.3-0.5
		l-0.8-0.6l-0.4,0.6l0,1.2l0.4,1.4l-0.7,0.3l-0.4-0.8v-1.3l0.4-1.3l-0.3-1.1l0-1.6l0.2-3.1l0.1-0.2l0.1,0l0.1-0.1l-0.1-0.7l-0.1-0.1
		l-0.4,0.1l-0.1,0l-0.6-0.9l-0.3-0.2l-0.4,0.1l-0.1,0.8l-0.4,0.3l-0.6,0.2l-0.6,0.3l-2,2.6l-3.6,2.8l-1,1.9l-0.1,0.5l-0.3,2.2
		l-0.1,0.4l-0.4,0.7l-0.2,0.4l-0.1,1.2v1.2l0.1,1.8l0.3,2.3l0.6,2.5l0.8,2.3l0.8,1.8l-0.2,0.6l-0.4-0.4l-1.1-0.4l-0.2-0.6l-0.2-0.5
		l-0.9-1.9l-1-3.2l-0.7-1.4l-1-0.6l-0.4,1.1l0.1,2.4l0.7,5.8v1l-0.2,1.2l-0.2,0.5l-0.3,0.4l-0.2,0.5l0.2,0.6l-0.2,0.2l-0.5,0.8
		l0.2,0.7l0.6,1.2l0.3,0.8l0.1,0.6l0.1,1.2l0.5,1.8l-0.2,1l-0.5,0.4l-0.5-0.4v-0.5l0.2-1.3l-0.3-1.5l-0.6-1.3l-0.6-0.7l0-0.2v-0.1
		l0,0l0.1-0.2l-0.4-0.8l-1.2-4v-0.8l0.2-1.6v-1.2l-0.2-1.7v-1l0.1-0.8l-0.1-0.6l-0.4-0.3l0.2-1.3l-0.3-0.8l-1.2-1.2l-0.9-1.5
		l-0.5-0.4l-0.7-0.2l-0.7,0.2l-1.2,1.1l-3.2,1.2v-0.5l1.5-0.6l1.8-2l1.6-2.7l0.7-2.8l-0.7-3.3l-1.7,0.4l-2,1.8l-1.5,0.9v-0.5
		l0.6-0.7l1.6-2.6l0.4-0.8l-0.4-1l-0.9-0.5l-5.3,0.1l-0.6-0.5l-0.2-0.2l-0.4-0.3l-0.4-0.6l-0.2-1l-0.1-0.4l-0.3-0.4l-0.5-0.5
		l0.4-0.6l0.2-0.5l0.1-0.6l-0.1-0.9l-0.1-0.1l-0.7-1.3l-0.1-0.2l-0.5-0.5l-1.5-1l-0.6-0.1l0.9-0.6h1l1,0.5l0.8,1.1l0,0.6l0.4,1.1
		l0.6,1l0.6,0.4l0.1,0.2l0.6,1l0.3,0.4l4.3,0.2l1-0.7l2.6-3.3l-0.5-0.5l-1.7-1.1l-0.5-0.2l-1.2,0.2l-0.7,0V237l3.2-1.2l0.9-0.8
		l0.6-1l1.6-3.7v-0.6l-1.5-1.1l1-0.6l0.4-1l-0.1-1.3l-0.5-1.6l-0.8-0.7l-3.4,1v-0.5l1.4-1l0.4-0.6l-0.9-0.6l-3,0.6l-1.8,1l-0.9,0.1
		l-0.6-1.1h0.5l3.3-1l0.9-0.7l4.5-0.4l-0.4-1.7l-0.6-0.9l-0.8-0.4l-0.9-0.2l-3.4,1l-0.8-0.7l-0.6-1.1l-0.2-0.6l0.2-0.8l0.3-0.1
		l0.7-0.6l0.4-0.6l-0.6-0.2l-0.1-0.3l-0.1-0.6l-0.2-0.6l-0.2-0.3l-1.4,0.1l-1.1,0.6l-0.4,0.4l0.6,1.6l0,0.6v1.3l-0.2,0.4l-0.4,0.5
		l-0.5,0.4l-0.4,0.1l0.2-0.8l0.4-0.9l0.3-1l-0.1-1.1l-0.4-0.6l-0.6,0.1l-0.6,0.4l-0.5,0.1l-0.4-0.4l-0.2-0.5l-0.2-1.5l0-1.3v0l0-0.4
		l-0.2-0.8l-0.1-0.5l0.5-0.4v-1l-0.3-1l-0.6-0.4l0.1-0.8l0.1-0.3l-2-1.1l-0.4,0l-0.6,0.4h-0.3l-0.2-0.2l-0.4-0.6l-1.5-1.2l-0.5-0.1
		l-0.5,0.2l-0.4,0.4l-0.4,0.2l-0.4-0.3l1.9-1.6l0.3-0.6l-1.3-2.2l-0.2-0.3l-0.3-0.2h-0.3l-0.3,0.5l-0.6-0.2l-2.3,0.2l0.2-1.2
		l-0.3-0.6l-0.5,0.2l-0.5,1l-0.2,0.6l-0.3-0.2l-0.2-0.6l-0.3-0.4h-0.5l-0.5,0.2l-0.5,0.4l-0.4,0.5l-0.4-0.5V197l0.5-0.6l0-0.6
		l-0.3-0.6l-0.2-0.4V194l0-0.7l0.2-0.3l0.6,0.2v-0.5l-1.4-0.3l-0.4-0.5l0.4-0.8l-0.8-1.5l-2.6-1.4l-0.6-1.2l-0.3-1.9l-0.8-1.6l-1-1
		l-1-0.2l0.2,0.7l0.8,0.6l0.2,0.8l-0.2,1l-0.5,0.1l-2.2-1.1l-1-1.2l-1-0.8l-1.2,0.4l0.1,0.8l0.1,0.3l-0.8,0.6l-1.2,1.4l-0.8,0.2
		l-0.6-0.4l-1.2-1.4l-1.4-0.6l-1.1-1.1l-0.6-0.2h-3.1l1.6,1.4l0.5,0.2l0.5,0.4l0.1,0.8l-0.3,0.6l-0.7-0.2l-0.1-0.4l-0.3-1l-0.2-0.3
		l-0.2-0.1l-3.5,0.6l0.2,0.4l0.2,0.4l0.2,0.9l-1-0.5l-1-0.9l-1-0.5l-1,0.8l0.7,1.2l0.9,1.1l1,0.8l0.9,0.2l-0.7,2.5L291,191l-1.5-0.6
		l-1.2,0.1l-0.4,0.7l0.2,0.5l0.5,0.5l0.9,1.2l1.3,0.7l5,1.4l0.8-0.9l0.2-0.2l1.3-2.3l0.6-0.7l0.5-0.5l1.1-0.4v0.6l-0.4,0.6l-0.5,1.1
		l-0.2,1l0.4,0.4l1.3-0.2l0.6-0.3l2.5-2.7l1-0.7l1.4-0.3l-1.5,0.7l-0.4,0.5l-0.2,0.5l-0.2,1.6l-0.1,0.6l-0.6,0.8l-0.3,0.6l0,0.8
		l0.3,0.2l1.5,0.3l1.9-0.2l1.6-0.9l1.2-1.4l0.4-0.2l0.7,0.4v0.6h-0.5l-0.5,0.3l-0.4,0.5l-0.4,0.6l-0.5,0.5l-0.5,0l-0.1,0.1l0.6,0.7
		l1.3,0.7l4.3-0.7l-0.7,0.6l-1.6,0.2l-1.4,1.2l-0.8,0.2h-1.6l0.3,1l0.1,0.3l0.2,0.3l-0.4,0.5l-0.4-0.1l-0.8-0.9l-0.1-0.3l-0.1-0.4
		l-0.2-0.3l-0.4-0.2h-0.9l-3.3-1.1l-1,0l-4.7,1.3l-1.5,1l1.3,3.5l2.2,2.4l7.6,3.3l1.8,1.9l2.7,1.3l0.6-0.2l0.6-0.6l1.6-0.8l0.6,0
		l-0.4,1.1l-0.6,0.3l-0.6,0l-0.6,0.3l-0.4,0.8l-0.2,0.9l-0.2,1l-0.3,1l0.7,0.3l0.7,0.8l0.6,1.1l0.4,1.1l0.3,1.4l0.2,1.7l0.4,1.5
		l0.6,0.7v0.6l-1,0.8l-1.3,4.3l-1.2,0.7v-0.5l0.3-0.9l0.8-1.5l0.2-0.9l0.2-2.7v-0.5l-0.2-0.2l-0.2,0.6l-0.2,0.8l0,0.4l-0.4-0.4
		l0-0.5l0.2-0.6v-0.6l-0.2-0.6h-0.2l-0.2,0.2l-0.2-0.1l-0.5-1l-0.4-1.1l-0.4-0.7l-0.7,0.1v0.6l-0.2,1.5l-2.1,5.7l-0.8,3L305,232
		l-0.2-0.6l0.3-1.4l1.6-4.5l-0.1-0.2l-0.1-0.3l0.2-0.4l0.2-0.8l0.1-0.9l0.2-1.6l0-0.4l-0.2-0.3l-1.2-2.2l-1.2-1.3l-0.3-0.4l-0.2-0.6
		l-0.1-1.1l-0.2-0.2l-2.2-0.2l-0.2,0.1l-0.3,0.6l-0.3,1.3l-0.3,1.9l-0.1,2l0,1.8l-1.1,3.7l-0.2-1.1l0.3-1.8l0.2-2.2l-0.4-2.1
		l-0.4,0.2l-0.4,1.2l-0.6,2l-0.5,0.7l-0.6,0.3l-1.3,0.1l1-0.7l0.9-1.5l0.8-1.8l0.6-1.8l-0.5-0.5l-0.5,0.4l-0.5,0.8l-0.4,0.4l0-0.2
		l0.2-0.4l-0.4-1.8l-0.2-0.6l-0.4-0.2l-0.4,0.2l-0.2,0.6l-0.2,0.7l-0.2,0.6l-0.6,1l-1.8,2.2l-0.7,1.1H292l0.3-0.8l1.4-2.7l0.1-0.2
		l0.6-1l0.2-0.6l0-0.8l-0.2-1.3v-1.2l-0.1-0.4l-0.6-0.8l-0.4-1l-0.3-0.5l-0.4-0.2l-0.6,0.3l-1.6,2.5l-0.2-1.7l0.2-1.2l-0.6-1.4
		l-0.8-1.2l-0.6-0.5l-1-0.2l-3.2-2.4l-5-1.4l-0.8,0.4l0,1l-0.5,0.4l-1.3,0.1l-0.5,0.2l-0.5,0.6l-0.4,0.7l-0.3,0.6v0.6l0.7,0.6
		l3.1-0.1l0.7,0.4l1.2,2.1l0.8,0.7l-2.8-2.3l-2.1-0.4l-2.8,0.3l-1,0.8l1.1,1.5l1.8,1.7l1,1.3l0.4,0.3l0.8,0.2l1.5,0.7l0.7,0.2
		l0.6,0.5l1,2.4l0.6,0.8v0.5l-0.6-0.2l-0.6-0.7l-0.4-1l-0.2-1.2l-1.1,0.6l-1.7-0.4l-5.7-3.5l-1.6-0.4l-1.3,0.5l-0.5,0.9l-0.2,1.3
		v2.4l0.3,0.6l1.3,1.8l1.5,1.4l0.7,0.3l0.4,0.7l0.8,0.5l1.8,2.4l0.7,0.6l3.3,0.8l1.5,1.3l0.8,0.5l2.6,0.2l0.8,1l2.6,0.9l-1.1,0.5
		l-1.2-0.5l-2.3-1.7h-1.3l-3.9-1.6l-2,0.6l-0.6-0.1l-0.6-0.5l-1-1.2l-0.6-0.4l-2.4-0.5l-1.8-1.1l-0.6,0l-1.4,1.6l-0.1,2.3l0.7,2.5
		l1,2.1l1.8,2.1l0.4,0.8l0.4,0.3l1.6-0.6l1.1,1l1.7,0.7l8.6,0.2l1.4-1.2l1-0.5l1.7-0.2l-0.4,0.6l-1.5,1v0.5h0.3l0.2,0.1l0.4,0.4
		l-0.6,0.6l-0.7-0.1l-1.4-0.5l-0.6,0.2l-0.8,0.8l-2.6,0.4l-0.5-0.4l-0.4-0.2l-2,0.9l-0.3,0.4l0.3,0.9l0.6,0.9l0.4,0.5l1.2,0.8
		l1.7,0.6l3.8-0.3l-0.4,0.5l-0.5,0.1l-0.5-0.1l-0.5,0.1l-1.4,1l-0.6,0l0.2,0.7l0.2,0.2l0.3,0.2v0.6l-0.8,0.2l-1.7-0.4l-0.4,0.7
		l-0.5-0.7l-0.1-0.4l-1.3,1.8L276,249l-0.6-0.3l0.3-1.2l0.3-0.8l0.2-0.9l-0.3-1.4l-0.2-0.4l-0.8-0.6l-0.6-1.2l-0.3-0.4l-13.4-7.5
		l-1.4-0.1l-1.4,1.2l0.4,0.9l0,0.9l0,0.9l0.1,1l1.3,2.7l1.1,1.6l0.7,0.7l1.5,0.6l1.6,1.1l1.4,0.5l0.9,0.7l0.9,1l0.6,1.2l-1-0.3
		l-3.1-1.8l-4.8-1l0.6,1.1l1,1.4l0.9,1.5l1.6,1.8l0.6,0.3l0.5,0.8l0.4,0.9l0.6,0.7l0.6,0.3l0.7,0.2l1.5-0.1l-1.8,1l-0.9,0.1l-1-0.5
		l-0.6-0.7l-0.5-0.9l-0.5-0.7l-2.2-0.6l-1.2-0.8l-1.8-2.2l-0.6-0.3l-1-0.1l-3.1-1.8l-0.8-0.2l-0.4,0.2l-0.6,0.8l-1,0.6l-0.2,1.1v1.4
		l-0.1,1.2l-0.6,0.7l-1.9,1.2l-0.4,0.5l-0.3,0.8l-0.7,0.7l-1.4,0.8l0.7,1.3l1.2,0.2l9-1l4.9,2l0.8,1.1l0.3-1l0.7-0.1l0.6,0.7
		l-0.1,1.4l-0.3-0.3l-0.2-0.2l-0.6,0l0.4,0.4l0.3,0.5l0.1,0.6l-0.2,0.6v0.6l1.3,0.9l1.4,0.2l5.8-1.7l1.2-2.1l0.3-0.2l0.2-0.1
		l0.1-0.3l0-0.9l1,0.6l4.3-0.9l1.6-1.4l0.9-0.4l-0.2-0.3l-0.1-0.1l-0.1-0.1l0.3-0.3l0.2-0.1l0.2-0.1h0.2l0.3,0.7l0.4,0.6l0.5,0.2
		l0.5,0.1l0.9,0.4l2.1,0.2l0.5-0.2l0.5-0.4l0.7-1.2l0.4-0.4V256l-0.6-1l0-1.6l0.5-1.5l0.9-0.5v0.5l-0.1,1.1l0.9,1l1.8,0.8l0.9-0.5
		l1.9-0.5l0.7-0.9l0.1-0.8l0.2-2.4l0.1-0.5l0.3,0.3l0.2,0.8l0.2,1l0.2,0.8l0.6,0.4l0.8-0.7l0.6-1.4l0.2-1.7l1.1,0.7l0.5,0.6l0.3,0.9
		l-0.8,0.4l-1.4,2l-0.8,0.8v0.6l0.8,0l0.3,0v0.7l0.4,0.1l1.1-0.4l0.4,0.2l0.4,0.3l0.2,0.5l-0.2,0.6v0.5l0.6,0l0.6,0.3l0.5,0.1
		l0.5-0.5l-0.9-5.9l-0.3-1l-0.3-1.6l0-0.4l0.2-0.4l0.2-0.2h0.5l0.8,0.6l0.3-0.1l0.2-0.2l0.2-0.1l0.3,0.4l-0.7,1.4l-0.2,1.3l0.1,1.2
		l0.8,2.4l0.2,0.6l0.2,0.3l0.4,0l0.4-0.3l0.2-0.6l0.2-2l0.3,0.1l0.6,1.4l0.5,0.8l0.4,0l0.3-0.5l0.6-1.4l0.2-0.6v-0.6l-0.5-1.6l0-0.8
		l0-0.9l0-0.4l0.4-0.7l0.4,0.9l0.6,2.8l0.4,1.3v1l-0.1,0.9v1.2l0.4,1.4l0.5,0.2l1.8-0.7l0.4-0.6l0.2-0.6l-0.4-0.6v-0.6l0.6,0.1
		l0.4,0.4l0.4,0.3l0.6-0.2l0.8-1.1l0.5-0.5l0.6,0v0.6l-0.4,0.6l-1.4,1v0.5l2.2-0.2l1-0.5l1.1-0.9l2.3-3.4l0.9-0.3l-0.7,0.6l-0.4,0.4
		l-0.3,0.6l-0.1,0.7v0.9l-0.1,0.8l-0.4,0.4l-0.8,0.2l-1.5,1l-3.5,0.8l-0.7,0.5l-0.6,1.2l0.2,0.7l1.3,0.7l1.9,1.7l0.8,1.4l0.6,0.2
		l1.2-0.1l0.3-0.3l0.3-0.7l0.2-0.7l0.1-0.4l0.3-0.1l0.3-0.3l0.6-0.7l0.5-0.8l0.3-1l0.1-1.1l-0.2-1.3l0.4,0.6l0.6,1.8l0.3,0.7
		l0.3,0.3l0.5,0.1l0.3-0.3l-0.2-1.1l0.5,0l0.4,0l0.4-0.2l0.4-0.3l0.2,1.2l0.4,0.8l1.2,1.1l-0.7,0.9l-0.6,1.2l0.6,0.1l1.9-0.6
		l2.3,0.5h1.1l3-1l-2,1.2l-4.1,1.3l-2,1.2l0.2,0.4l0.3,1.2l-0.5,0l-0.8-0.9l-0.5,0v0.4l0.1,0h0.1l0.1,0.1l-0.7,0.8l-2,1.1l-1.2,1.4
		l-3,2.3l-3.5,1l-0.8,0.6l-1,1.8l-0.3,0.3l-1.2-0.2l-0.5,0.2l0.1,1.3l-0.6,0.6L310,278l-1.1,1.4l-0.6,1.1l-0.3,1.1l1.5-0.6l0.8,0.1
		l0.7,0.5v0.6h-0.6l-0.2-0.2l-0.2-0.4l-0.7,0.6l-0.9,0.3l-0.5,0.3l0.6,0.7l0.8,0.4l2.9-0.5l0.4-0.3l0.2-0.1l0.4,0.2l2.3,1.9l9,1.8
		l1.6-0.7l4.8-4.1v-0.6h-0.2V281l1-1l1.4-0.1l1,1l-0.1,2.6l-1.3,3.9l-0.4,0.9l-0.6,0.6l-0.5,0.2l-0.4,0.3l-0.3,1l1,0.2l0.6,0.8
		l0,0.9l-0.8,0.7l-3.5,0.6l-0.8-0.6l-0.6,0.6l-0.7-0.2l-0.7-0.5l-0.6-0.3h-2.4l-0.3,0.2l-0.5,0.7l-0.3,0.2l-2.8-1.5l-4.3-0.9
		l-2.6,0.6l-2.6-0.1l-0.6,0.3l-0.1,1H307l-0.5,0.4l-0.9,1.2l0.8,1.4l0.4,0.5l0.4,0.2v0.4l-0.5-0.2l-1.4-1.4l-1.1-0.5l-0.3-0.6
		l-0.2-1.4l-0.5,0.4l-0.6,0.2l-0.5,0l-0.4-0.1l0.4-0.5l1-0.5l0.4-0.6l0-0.3v-0.1l0-0.6l-0.5-0.4l-0.6-0.2l0.2-0.2l0.2-0.4l-1.2,0.3
		l-2.4,2.5l-1.4,0.3v0.6l2.3-0.4l0.5,0.4l-1.9,1.3l-1.9,0.5l-0.7,0.5l-0.5,0.8l-0.7-1.3l-0.8-0.7l-0.9,0.1l-0.9,1.2l-0.2,0.4l-0.2,1
		l-0.2,0.4l-0.2,0.2l-0.6,0.1l-0.2,0.2l-0.3,0.8l-0.2,0.8l0,0.9l0.2,1.2l-1.8-2.6l0.2-0.7l0.2-0.5l0.3-0.3l0.4,0l-0.2-0.8l-0.1-0.3
		l0.9-0.7l0.4-0.6l0.2-0.8l-2.6-0.4l-1.3,0.2l-0.9,1.2l-0.1,1l0.2,1.1l0.2,1l0.2,0.8l-0.2,0.8l-0.5,0.7l-0.6,0.3l-0.5-0.5l-0.6,0.8
		l-0.2-0.6v-1l-0.1-0.7l-0.4,0l-0.2,0.5l-0.3,0.4l-0.4-0.3l0.2-1.2l-0.4-0.4l-1.3,0.1l0.1,0.3l0.1,0.3l0.1,0.2l0.2,0.2v0.5l-2.8-0.5
		l-1.3,0.5l-1.2,1.8l-0.3,0.3l-1.3-0.1l-0.3,0.4l-0.6,1l-0.3,0.2l-3.5-0.6l-2.6-1.7l-0.7-0.1l-3.4,1l-0.6,0.4l-1.2,1.4l-0.6,0.3
		l-0.6-0.7l-0.2,0.6l0.9,3.2l0.5,1.3l0.6,1.2l1.4,2.2l0.2,0.7l0.1,1.2l0.3,0.4l0.5,0.2l0.5,0.7l2.3,1.3l0.7-0.1l1.4-0.8l0.7-0.2
		l2.3-0.1l0.9-0.7l0.6-1.8l0.2-1.5l1-1.2l1.2-0.7l0.5,0.2l-0.4,0.1l-0.4,0.2l-0.4,0.3l3.7,1.2l0.4-0.1l0.3-0.2l0.4-0.3l0.2-0.3
		l0.6-1v-0.2l3.1-0.7l1.8,0.1l1.8,2l4.4,0.3h3.7l4,0.4h-0.2l0.9,0.2l1.5,1.3l0.8,0.1v-0.5l-1.7-1l-0.5-0.6h3.3l0.3,0.2l0.4,0.6
		l0.3,0.6l0.2,0.5l-0.3,0.3l-0.4,0l-0.8-0.1l0.8,0.6l2.9-0.6l-0.6-0.4l-0.2-0.1v-0.6l0.5-0.2l1-1.1l0.5-0.2l1.8,0.6v-0.5l0.3-0.4
		l0.3-0.1l0.2,0.2l0.2,0.7l0.2-0.7l0.2-0.5l0.3-0.3l0.4-0.1l-0.3,0.9l-0.6,1.5l-0.2,0.8h0.6l-0.4,1l2-0.1l1,0.3l0.7,0.9l-0.4,0.7
		l-0.2,0.2l-0.3,0.1l0.2,0.5l-0.3,0.8l-0.4,0.5l-0.6,0.7l-0.9,1.3l-0.4,0.3l0.6,0.7l0.9-0.6l1-1l0.9-0.6l1-0.2l1-0.6l2-1.7v0.5
		l-0.9,1.2l-3.7,1.8v0.5l0.1,0.1l0.4,0.4l-0.4,0.3l-0.4,0.4l-0.3,0.6l-0.2,0.8h0.7l-0.8,0.6l-0.8-0.5l-0.8-0.8l-0.8-0.4l0.4,0.6
		l0.4,0.7l0.5,0.6l0.4,0.2l0.2,0.3l0.3,0.6l0.4,0.6l0.5,0.1v0.5l-0.4,0.8l-0.1,1.2l0.2,1.2l0.6,0.9l0.7,0l0.9-0.4l1.4-1.1v0.5
		l-0.3,0.8l-0.1,0.2h0.3l0.3,0.1l0.2,0.2l0.2,0.3l-0.3,0.4l-0.1,0.1l0.3,0.8l-0.1,1.1l-0.4,1.2l-0.4,0.9l0.3-0.1l0.2-0.2l0.2-0.3
		l0.3-0.4l0.3,1.2l0.5,1l0.6,0.6l0.5,0.2l0.2,0l0.3-0.2l0.3-0.2l0.1-0.3l0.2-0.3h1.2l0.3-0.4l0-0.4v-0.5l0.1-0.7l0.8-1.4l0.1-0.3
		v-1.2l0.1-1.1l0.3-0.8l0.6-0.2l-0.5,1.6l0,0.7l0.4,0.7l0.5,0.2l0.5-0.3l0.8-0.9l1.8-1.6l0.9-0.2l1,0.3l-0.2-1l0.5-0.4l1.6-0.6
		l1.3-1.3l0.3-0.2l0.4-0.4l0.2-1.7l0.3-0.4l0.4-0.2l1.3-1.4l-0.2,0.7l-0.3,0.6l-0.8,0.8v0.5l0.8-0.1l2-1.9l0.8,0l2.4,0.6v0.5
		l-2.5-0.4l-0.5,0.1l-0.6,0.6l-1.8,1.1v0.6h3.3v0.4l-1.3,0.6l0.6,0.4l0.7,1.1l0.4,0.5l0.6,0.2l1.1-0.1l0.5,0.4l-2.6-0.2l-0.4-0.6
		l-0.4-0.8l-0.8,0l-0.6-0.2l0.1-1.4l-1.3-0.1l-0.4,0.1l-0.3,0.2l-0.5,0.6l-1.1,0.5l-1.2,1.7l-0.6,0.6v0.5l0.4-0.1l0.4,0.1l0.3,0.4
		l0.1,0.6l-1.9,0.2l-3.6,1.8l-0.8,0.8l0,0.8l-0.4,1l-0.2,0.6l-0.2,1.3l-0.2,0l-0.2-0.2l-0.2,0.1l-0.2,1.1v1l-0.1,0.9l-0.4,0.7
		l0.6,1.2l0.5,0.4l0.5-0.2l0.6-0.4l0.9-0.3l2.8,0.3l-0.6,0.4l-1.4,0.4l-0.6,0.6l-0.7-0.4l-0.7,0.4l-1,1.5l-1.3,1.2l-1.3,0.8v0.6
		l2.8,1.1l1.5,0.2l1.2-1.1l0.4-0.6l1.4-1l0.5-0.2h0.3l0.6-0.2l0.3-0.2l0.3-0.4l0.2-0.4l0.1-0.4l0.1-0.3l2.4-2.2l2.7-0.6l5.8,0.4
		h-0.2l0.1,0.1h0.1l0,0v0.3l-0.5,0.4l-0.2,0.1H342v0.4l0.8,0.4l1.4-0.8l-0.9,1.5l-0.8,0.2l-4.4-1.2l-0.8,0.1l-0.7,0.3l-1.3,1.1h0.3
		l0.3,0.3l0.6,0.3H336l-1.4-0.2l-0.7,0.2l-0.6,0.3l-0.3,0.4l-0.6,1.5l-0.7,1.2l-1,1.1l-2,1.4l0.2,1.1l-0.3,0.6l-0.9,0.8l1.2,0.2
		l0.2-0.4l0.3-0.2l0.3-0.1l0.9,0l0.6,0.2l0.4,0.6l-0.2,1.2l0.7-0.4l1-0.2l1,0.1l0.6,0.4l-1,0.5l-0.5,0.4l-0.2,0.9l0.3,0.5l0.6-0.1
		l1.1-0.6l-0.7,1.4l-1.1,0l-1.1-0.4l-0.8,0.3l0.6,0.5l-0.3,0.2l-0.2,0.2l-0.4,0.6l0.4,0.4l0.3,0.2l0.3,0l0.4-0.1l-0.5,0.5l-0.5,0
		l-1-0.6l-0.2-0.2l-0.2-0.3l-0.2-0.3l-4.8-0.9l-1,0.8l1.1,0.1l1.1,0.6l2,1.8l-0.2,0.1l-0.4,0.4h0.6v0.6l-0.5,0.3l-0.6,0.1l-0.6-0.1
		l-0.6-0.3l0.6-0.5l0.2-0.1l-0.6-0.3l-0.9,0.1l-0.8,0.6l-0.3,1.2l0.5-0.3l0.9,0.2l0.8,0.6l0.6,0.6v0.4l-0.2,0.3l-0.2,0.2l-0.2-0.1
		l-0.3-0.4l-0.8,1.2l-0.9,0.6l-2.6,0.5l-1.6,1.4l-0.8,0.3l-0.4-0.2l-0.8-0.7l-0.4-0.2l-0.4,0.1l-1.2,0.9l-1.5,0.2l-0.5,0.2l-0.4,0.4
		l-0.4,0.5l-0.2,0.6l0.3,0.6l-0.5,0.5l-0.8,0.2l-3.1-0.2l-0.8-0.2l-0.5-0.8h0.5l-0.4-1.9l-0.8-1.8l-0.9-1.3l-1.1-0.8l-1-1.1
		l-0.4-0.2l-0.4,0.3l-0.3,0.5l-0.2,0.6l0,0.6v0.7l0,1.5l0,0.8l-0.1,0.6l-0.5,1.4l0.2,1.4l0.6,0.9l0.7,0.5l0.6,0.2l0.7-0.5h0.3
		l0.1,0.8l-0.2,0.2h-1.4l-0.3,0.6l-0.6,2.6l-0.5,0.7l0.4,0.6l0.3,0.3l0.3,0.4l0.1,0.8l0,0.8l-0.2,0.5l-0.2,0.5l-0.2,0.8l0.4,0.2
		l0.5,1l0.4,0.2l0.2-0.1l0.2-0.3l0.2-0.3l0.2-0.2l0.7-0.3l3.1,0.4l0.4-0.1l0.4-0.2l0.6-0.6l1-0.3l1.2-0.8h0.7l-0.4,0.5l0.7,0.5
		l0.6-0.6l0.6-0.9l0.7-0.5l8.6,2l1.6-0.6l0.4,0l1.3-0.1l5.3-1.9l1,0.2l1,0.7l1.1,1.1l1.1,0.8l9.3-1.3l0.1-0.2l0.1-0.2l0.1-0.1h0.2
		l-0.4-1.2l0.5-0.8l0.8-0.4l1.5-0.2l1.4,0.2l0.7,0.4l-0.4-1.1l-0.8-0.7l-1.6-0.7v-0.4l0.4-0.2l1-1.1l0.3-0.4l0.3-0.3l1.6-0.4
		l0.6,0.1l1.5,0.9h2.4l-0.9,0.8l-1.4,0.3l-2.5-0.2l0.3,1.7l0.1,0.7l-0.2,0.6l0.6,1.1l0.8,0.7l0.8,0.4l1.4,1l4.1,1.5l2.9,1.9l1.3,1.4
		l-0.1-0.3l-0.4-1.2l0.9,0.5l0.8-0.2l0.8-0.6l1.2-1.6l0.6-1.2l0.1-1l-0.9-0.4v-0.4l1.2,0.4l0.4,1.8l-0.3,2.2l-1.1,1.4v0.4l0.8,0.1
		l2.3-0.6v0.4h-0.1l-0.2,0h-0.1v0.5h0.9v0.5l-1,0l-0.4,0.1l-0.1,0.4l-0.5,0l-0.8-0.8l-0.4-0.2h-2.1l2.2,1.8l1.1,0.5l1.4,1.2l1.4,0.8
		l0.2-0.2l0.2-0.7l0.1-0.7l0-0.8l0-0.7l0.2-0.3l0.8-0.2l0.6-0.6l0.9-1l1.4-1.8l0.4-0.7v-0.4l-0.1-0.6l0.3-0.3l0.4,0.3l0.1,1
		l-0.2,0.7l-1,1.8l2.4,1.4l0.4,0.5l0.8,1.4l0.5,0.7l-1-0.1l-1.8-1.9l-1-0.5l-2.2,0.3l-1,0.6l-0.9,1l0.4,1.2l0.2,0.3l-0.3,0.4
		l-0.1,0.1l0.6,1.7l1,1.3l2.1,1.9l-0.4-1.2l-0.6-1.2l-1.1-1.6v-0.4l0.8-0.1l0.4,0.4l0.3,0.9l0.5,1.2l0.6,0.7l0.6,0.5l0.6,0.6
		l0.4,1.1l-1.1-0.4v0.4l0.7,0.5l0.6,0.2l0.5-0.4l0.6-0.8l-0.1,0.3l-0.2,1.1l0.4,0.1l0.7,0.3l0.4,0.1l-0.5,0.5l-0.5,0.1l-0.5-0.2
		l-0.4-0.4l0.5,0.6l4.8,4.1l1.2,0.3l2.4,0l-0.2-1l0.2,0.1l0.1,0.1l0.2,0.3l0.1-0.2l0.1-0.1l0.1-0.1l0.1-0.1l0.6,0.9l8.4,0.6
		l-3.2-0.7l-0.1-0.4l3,0.5l0.4-0.1l0.5-0.4l0.4,0l0.4,0.3l0,0.4l-0.2,0.3l-0.4,0.1l1,0.9l5.1,1.4l3.7,2.5l2.6,0.5l1.7,1.3l0.4,0.2
		l4.3,0.9l0.6-0.9l0.5,0.4l0.6,0.3l1.2,0.3l-0.2,0.3l-0.2,0.1l-0.4,0l0.9,0.3l2.6-0.7l6.1,1.9l1.6,0.1l6.7-1.8l4-2l6.8-1l-0.5-0.1
		h-0.8l-1.3-0.1l-0.1-0.4l-0.1-1l-0.2-1l-0.3-0.4l-0.2-0.2l-0.7-1.2l-0.3-0.4l0.1-0.2l0.1-0.2l0.2-0.1l-0.2-0.5l0.6,0.2l2.1,1.4
		l0.9,0l1.7-0.5l0.9,0v0.5l-1,0.1l-0.4,0.4l-0.4,0.8l-0.4,0.4l-0.9,0.3l-0.4,0.5l1,1.4l2-0.5l2.1-1.6l3.2-1.5l1.5-1.6l1.1-2.2
		l0.8-2.4l-0.4,0.4l-2.4,0.1l0.1-0.8l-0.1-0.5l-0.3-0.2l-0.4,0l0.5-0.4l0.9,0.1l0-0.7h1.3l0,0.3v0h0l-0.1,0.1l0.8,0.5l0.8-0.7
		l1.4-2.7L458,393l-2.5-0.3l-0.5,0.2l-0.6,0.7l-0.4,0.2l-0.5-0.2l-0.2-0.5l0.2-0.6l0.4-0.6l0.6,0.6l0.6-0.2l0.4-0.9l0.2-1.3l0.2-0.8
		l0.5-0.8l0.6-0.4l0.5,0.3l0.3-0.4l0.4-0.2h0.8v-0.4l-0.6-0.5l0.9,0l0.8,0.4l0.8,0.2l0.8-0.6l-0.1-0.6l0-0.4l0.2-1l0.8,0.8l2.1,1.1
		v0.5l-0.9,0.1l-1,0.4l-0.8,0.9l-0.3,1.6l4.1-2.9v-0.5l-0.1-0.2v-0.3l-0.1-0.4l0.5,0.5l0.4-0.2l0.4-0.7l0.2-1l0.2,0.7v0.8l-0.2,0.6
		l-0.4,0.5l2.9-0.7l4.3-1.5l3.9-2.5l0.1,1.2l0.3,0l0.4-0.5l0.4-0.3l1.2,0.9l0.5,0.2l2.3,0.1l1.2-0.3l0.6-0.8l-0.5-0.6l-0.2-0.8
		l-0.2-0.8l-0.4-0.7l0.3-0.9l0.5-0.1h0.6l0.5-0.5l-0.3-0.6l0-0.8l0.1-1.9l0.2-0.4l0.4,0.3l0.4,0.6l0.1,0.3l0.1,0.4l0,1l-0.2,1.9h0.1
		l0.1,0.4v0.4l-0.3,0.2l-0.1,0.1l-0.1,0.3l-0.1,0.6l0.2,0.6l0,0.7l-0.4,1.6l0.6-0.1l0.5-0.3l0.2-0.5l-0.4-0.6l0.2-0.8l0-0.9v-1.9
		l0.1-0.5l0.2,0.5l0.2,0.8l0.1,0.6l-0.2,1.8l0.1,0.6l0.4,0.2l0.2-0.4v-1l-0.1-1.3v-1.1l0.1-0.6l0.2-0.2l0.5,0.2l0.3,0.3l1.2,1.6
		l0.6,0.5l0.1,0.2v1l0,0.5l0.2,0.2l0.4-0.3l0.2-0.8v-1l-0.1-0.8l0.5-0.1l0.6-0.4l-0.3,0l-0.3-0.2l-0.3-0.3l-0.2-0.4l0.6,0.6l0.6,0.2
		l4.3-1.2l4.8-4l-0.2,0.8l-0.3,0.6l-0.4,0.4l-0.4,0.2l1-0.5l1.5-2.4l2.3-2l0.4-0.6l0.8-1.7l-0.3,0.4l-0.4,0.4l-0.5,0l0.5-1.2
		l0.8-1.1l1.7-1.3l-0.2,1l0.7-0.2l1.9-1.3v-0.4h-0.4v-0.5l0.4-0.5l0.3-0.3l0.3,0.1l0.3,0.7l0.2-0.6l0.3-0.4l0.8-0.6l1.1-1.3l0.3-0.2
		l0.7-0.2l2-1.8v-0.4h-1.5l1.2-1l8.2-2.5l1.1-0.9l-0.6-0.4l-2.6,0.9l2.8-2.3l0.9-1.2l0.1,0.4l0.2,0.3l0.2,0.4l0.8-0.7l1.9-0.7
		l1.8-0.2l2-0.8l0.8-0.7h-1l-0.5-0.2l-0.4-0.4l0.7-0.5l1.8,0.5l0.8-0.4l0.5-1l0.3-1.3l-0.1-1.1l-0.6-0.6v-0.6l0.3,0.4l0.3,0.1
		l0.3-0.1l0.3-0.4l-0.3-0.6l-0.6-1.8l-0.4-0.8l-0.6-0.3l-1.1-0.5l-0.6-0.4l0.8,0.2l1.2,0.5l0.6,0.7l0.7,0.6l0.8,1.4l0.5,1.6l-0.3,1
		v0.4l0.4,0.4l0.9,0.4l0.4,0.3l-0.1-0.8l-0.1-0.5l-0.2-0.4l-0.3-0.4v-0.5l0.4-0.4l0.4,0.2l0.4,0.8l0.2,1.1l0.2,0.5l0.5,0l1-0.3v0.5
		l-0.6,2l0.8,0l0.4-0.1l0.4-0.4l-0.4-0.6l0.4-0.5l0.4,0.1l0.4,0.3l0.4,0.1l0.3-0.3l0.6-1l0.3-0.2l0.6,0.2l0.6,0.6l1,1.2l0.6,0.6
		l0.6,0.3l1.5,0.2l0.6-0.3l0.9-1.2h0.7l-0.3-1l-0.2-1l-0.3,0.3l-0.3,0.2l-0.7,0.1l-0.3-0.2l-0.2-0.5l-0.1-0.5l0.2-0.4l0.4-0.2
		l0.6-0.4l0.5-0.6l0.2-0.7h0.2v0.5l-0.2,0.3l-0.1,0.4l-0.2,0.8l0.4-0.9l0.6-0.9l0.7-0.8l1.8-1.1l0.4-0.4l0.6-1.3l0.2-0.2l0.4-0.2
		l0.7-0.7l0.2-0.2l0.1-0.2l-0.1-1l0-0.3l0.2-0.1l3.5,0.6l0.8,0.6l-1.4,0.6l-2.9,0.8l-1.4,1.1l0.8-0.4l2.3-0.8l3.3-0.4l0.1-0.2
		l0.4-1.2l0.1-0.3l0-0.4l0.1-0.2l0.2-0.1l0.2-0.2l0-0.3l-0.1-0.8v-0.5l0.2-0.7l1-1.8l0.1-0.6l0.1-1.5l0.1-0.7l0.4-0.8l2.9-3.5
		l0.5-0.8l-0.2-0.4l-1,0.7l-2,2.9l-1.3,0.4l-0.1,0.6H563l-0.7-0.5l-0.3-0.8h-0.3l-0.6-0.8l-0.4-1l0.4-0.5h4.2l0.6-0.4l0.4-0.6l0-0.7
		L566,323l-0.6-0.7l-1.3-0.7l-0.5-0.6l1.6-1.3l5.3,1.8l-0.2-0.5l0.3-0.8l-0.6-0.6l-1.6-0.6l-0.4-0.4l-0.6-1l-0.4-1.2l0-0.9v-0.5
		l-0.5-0.1l-1.6-0.9l-0.5-0.6l0.1-0.5l0.2-0.8l0-0.8l-0.4-0.4l-0.8,0l-0.4-0.2l-0.3-0.4l2.5,0.5l0.5,0.4l0.8,1.7l0.8,0.8l0.9,2.9
		l0.4,0.5l0.6,0.4l1.1,0.4l7.1-1.5l1.4-1.4l0.5-0.2l-0.5-1l-0.5-0.8l-1-1.2v-0.6l0.6-0.4l0.3-0.2l0.2-0.4l1,0.4l3.6,0.2l0.9-0.3
		l0-0.8l-0.6-0.6l-3.4-1.4l1-0.8l3.3,1.3l0.4-0.2l0.8-1l0.5-0.2l0.4-0.3l-0.1-0.6l-0.3-0.7l-0.2-0.4l-2-1.7l-4.5-1.1l-1.9-1.4
		l0.6-0.3l1.9,0.8l3.1-0.6l2.8,1.4l1.6,0.2l1.4-1.1l-0.6-1.1l-3.3-1.5l-1.5-1.4l-0.3-0.4l-0.2-0.8l-0.4-0.7l-0.4-0.6l-0.3-0.3l-10-1
		v-0.6l6.5-0.2l1.2-1.3l-0.4-0.2l-0.4-0.4l-0.3-0.6l-0.2-0.8l1,0.4l1.8,1.8l1.7,0.6l1,0.7l0.5,0.2l0.5,0.4l0.4,0.9l0.2,1l0.3,0.7
		l0.6,0.4l2-0.4l2.3,0.6l0.5-0.3l1-1.1l0.5-0.2l0.1-0.3l-0.3-0.8l-0.6-1l0.6-0.5l1.4-0.4l0.6-0.6l0.6-1l0.2-0.9L594.8,288.7z
		 M457.3,206.9l0-0.2l-0.1-0.2l0.1,0.1l0.1-0.1l0.2,0l0-0.9l-0.4-0.1l-0.8,0.2l-0.3,0.2v0.7h0.6L457.3,206.9z M289.2,260.2h0.1
		l0-0.2l-0.2,0.1l-0.1,0.2l-0.2,0.4l0.1,0.2l0.3-0.5L289.2,260.2z M322.4,260.9l0.2-0.2l0.1-0.2l0-0.2l-0.2,0l-0.2,0.2l-0.2,0.4l0,0
		L322.4,260.9z M305.5,262.2l0.2-0.6l-0.5,0.3l-0.2-0.1l-0.1,0.1l-0.2,0.3l0.2,0.2L305.5,262.2z M300.1,266.8l-0.1,0.1l-0.4,0.3v0.7
		l0.3-0.4l0.2-0.2L300.1,266.8z M296.6,267l-0.3,0.2l-0.1,0.4l0.3-0.2l0.3-0.4L296.6,267z M303.3,286.2l0.1-0.2h-0.1l-0.2,0.1
		l-0.2-0.1l0,0.4l0.2,0L303.3,286.2z M311.8,314.9l0.5,0.7l0.4,0.3l0.4,0.1l0.2-0.1v-0.5l-0.2,0l-0.5,0.2l-0.5-0.6l-0.6-0.9
		l-0.8-1.1l0.2,0.8l0.3,0.4L311.8,314.9z M314,331.6l0.4-0.6l0.5-0.2l0.2-0.5l-0.1,0l-0.1-0.1l-0.1-0.4h-0.5l-0.3,0.4l-0.2,0.4
		l0,0.1l0.1,0v0.6L314,331.6z M330,357.2l0.2,0.2l0.3,0.3l0.3-0.2l-0.3-0.4l-0.4-0.3l-0.1-0.3l-0.4-0.3l-0.3,0.3l0.2,0.2l0.2,0.2
		L330,357.2z M369.6,418.3l-0.2,0.4l-0.1,0.3l0.2,0.2l0.3,0.1h0.1l0.2-0.3l0-0.8H369.6z M304.3,284l-0.2,0.1l0,0.2l-0.1,0.1l-0.2,0
		l0.2,0.5l0.2-0.1l0.1-0.1l0.2-0.2l0.2-0.2h0v-0.4h-0.4L304.3,284z"/>
</g>

</svg>
