<?xml version="1.0" encoding="utf-8"?>

<svg version="1.2" baseProfile="tiny" id="Layer_1" xmlns="http://www.w3.org/2000/svg" xmlns:xlink="http://www.w3.org/1999/xlink"
	 x="0px" y="0px" viewBox="0 0 319.6 375.7" xml:space="preserve">
<g id="Layer_4">
</g>
<g id="Italy">
	<g>
		<polygon fill="none" points="156.7,194.3 156.7,194.5 156.8,194.6 157,194.6 157.1,194.5 157,194.3 		"/>
		<polygon fill="none" points="157.7,118.5 156.9,118.6 156.1,119.1 155.4,119.8 155.1,120.7 155.5,121.5 156.3,121.9 157.1,121.8
			157.6,121 157.6,120.8 157.6,120.7 157.6,120.6 157.7,120.5 157.9,120.1 158,119.5 157.9,118.9 		"/>
		<polygon fill="#FFFFFF" points="155.6,62.8 155.4,62.9 155.2,63 154.8,63.2 155.1,63.5 155.4,63.3 155.7,63.1 156,62.6
			155.9,62.4 		"/>
		<polygon fill="#FFFFFF" points="205,242.8 205.3,242.7 205.4,242.4 205.3,242.3 204.3,242.2 204.1,242.2 203.7,242.2 203.7,242.9
			204,243 204.8,242.7 		"/>
		<polygon fill="#FFFFFF" points="93.4,170.3 93.7,170.1 93.7,169.9 93.7,169.7 93.7,169.6 93.6,169.4 93.5,169.1 93.4,168.8
			93.2,168.8 93.1,169.3 92.8,169.6 92.5,169.7 92.5,169.9 92.7,170.2 93,170.3 		"/>
		<polygon fill="#FFFFFF" points="183,233.7 182.8,233.9 182.7,234.2 183,234.1 183.2,233.7 		"/>
		<polygon fill="#FFFFFF" points="194.6,236 194.4,236.7 194.7,237 195.3,237.3 195.5,237.5 195.8,237.3 196.3,237.1 196.7,237.1
			197,237.2 197.3,236.8 197.5,236.7 197.4,236.4 197.4,236.2 197.5,236 197,235.7 195.3,235.1 194.8,235.1 194.9,235.4 195,235.5
			194.7,235.7 		"/>
		<polygon fill="#FFFFFF" points="208,311.8 207.6,311.9 207.7,312.3 208.1,312.2 		"/>
		<polygon fill="#FFFFFF" points="176.3,307 176.9,306.4 176.8,306.3 176.6,306.1 176.1,306.1 175.8,306.4 175.7,306.6 175.7,306.9
			176,307 		"/>
		<path fill="#FFFFFF" d="M229.7,193.6l-1.1-0.2l-0.5-0.3l-1.1-0.8l-0.5-0.2l-0.3-0.2l-0.7-1l-0.4-0.3l-1.1-0.4l-2.2-0.4l-1-0.4
			l-1-0.8l-0.5-0.3l-0.6-0.1l-0.4-0.2l-0.3-0.5l-0.2-0.7l-0.2-1.5l-0.2-0.6l-0.4-0.4l-1.1-0.2l-1.5-0.6l-1-0.6l-3.5-3.5l-1.1-1.8
			l-0.8-0.7l-1.9-1.3l-1.7-1.5l-3.9-4.7l-0.2-0.4l-0.2-0.6l-1.7-2.7l-0.6-1.2l-1-2.5l-2.1-7.6l-0.4-3.1l-0.4-1.3l-0.9-1.9l-0.3-0.5
			l-0.1-0.3l-0.2-1.3l-0.1-0.3l-0.4-0.7l-3.8-9.8l0.2-0.6l-0.2-0.5l-0.5-0.3l-0.5-0.1l-0.3-0.3l-0.3-0.6l-0.4-0.6l-0.5-0.3l-0.1-0.1
			v-0.2l-0.1-0.2l-0.2-0.1H185l-0.1,0.1l-0.1,0.1h-0.1l-0.1,0.1l-0.2,0.3l-0.3,0.2l-0.7-0.4l-1.3-0.4l-0.3-0.3l-0.5-0.2l-3.1-1.9
			l-8.2-7.2l-0.2-0.3l-0.3-0.4l-1.8-0.7l-1.1-0.9l-0.5-0.3l-1.3-0.2l-1.2-0.4l-0.5-0.3l-0.8-0.7l-0.8-0.8l-1.5-2.1l-0.7-0.3l-1-0.8
			l-0.9-0.9l-0.5-1l-1.1-1.1l-0.7-1l-0.6-1l-0.5-1.4l-0.2-0.7l-0.1-0.8l-0.1-0.2l-0.4-0.5l-0.1-0.2l-0.1-0.3l-0.1-1l-0.8-3.8
			l-0.1-1.7l0.2-2.7l-0.1-0.4l-0.2-0.3l-0.3-0.6l-0.3-1.2l-0.2-1.6l0.2-1.5L152,87h-0.4v-0.1l0.7-0.6h0.3l0.5,0.3l0.7,0.7l0.3,0.4
			l0.5,0.5l0.6-0.1l0.5-0.4l0.2-0.6h-0.2l-0.3-0.2h-0.2v-0.3l0.3-0.1l0.2-0.3v-0.3l-0.7-0.3v-0.4l0.3-0.6l0.1-0.2l0.2-0.3l0.3-0.2
			l0.3,0.1l0.1,0.4l-0.1,0.5l-0.4,0.9l0.2,0.3l0.2,0.4l0.1,0.4v0.2l0.8-1l0.4-0.6l0.1-0.6l0.1-1.2l0.1-0.4h0.2h0.2l0.1-0.2l0.1-0.2
			l0.2-0.4l-0.1-0.3l0.3-0.4v-0.3l-0.2-0.4l-0.3-0.3l-0.4-0.2h-0.4v0.3h0.1h0.2h0.1l-0.3,0.3l-0.6-0.6l-0.5-0.7l-0.3-0.2l-0.2-0.2
			l-0.4-0.5l0.1-0.4l-0.3-0.3l-0.5-0.2l-0.4-0.3l0.3,0.5l0.2,0.5l-0.1,0.5l-0.4,0.6l-0.4-0.5l0.2-0.1l0.1-0.1l0.1-0.1h0.2v-0.2
			l-0.4-0.5l-0.3-0.6l-0.3-0.5l-0.5-0.5l0.1,0.3v0.1l0.1,0.1l-0.6,0.1l-0.3-0.4v-0.7l0.3-0.8v0.2v0.4v0.3l0.3,0.2l0.3,0.1l-0.2-1.4
			V74l-0.2-0.5l-0.3-0.5l-0.2-0.6l0.3-0.6l-0.3,0.2l-0.6,0.6l-0.4,0.3l0.1,0.1l0,0l0.1,0.1h-0.5l-0.5-0.3l-0.2-0.5l0.1-0.5l-0.3-0.2
			l-0.1-0.2l0.1-0.2l0.3-0.1l-0.1-0.7v-0.5l-0.1-0.4l-0.5-0.2l0.1,0.4l-0.1,0.5l-0.2,0.4l-0.3,0.2l-0.3-0.2l-0.2-0.8l-0.3-0.3
			l0.1-0.8l0.2-0.1l0.3,0.2l0.4,0.2l0.6-0.1l0.2-0.3l0.1-0.4l0.3-0.5l-0.2-0.5l0.1-0.1h0.3l0.2-0.1l0.1-0.4v-0.3l0.1-0.3l0.3-0.4
			l-0.3-0.3l-0.1-0.3l0.1-0.4l0.2-0.3h-0.2v-0.2l0.5-1l1-1l1.1-0.6h0.9l-0.1,0.4l0.4,0.1l0.5-0.1l0.3-0.2v-0.2l-0.9-0.4l-0.2-0.3
			l0.3-0.6l0.2,0.8h0.2l0.2-0.2l0.5,0.4h0.4V61l-0.3-0.5l0.4-0.7l0.7-0.6l0.6-0.3l0.1,0.5l0.2,0.3l0.5,0.5h0.2l0.7-0.5l0.3-0.1
			l-0.2,0.5l-0.3,0.3l-0.4,0.2l-0.5,0.1l-0.2,0.3v0.5l-0.1,0.5l-0.6,0.1v-0.3h0.3h0.1l0,0l-0.1-0.1l-0.1-0.1v0.1v-0.1l-0.3,0.1h-0.3
			h-0.3l0.4,0.5l-0.2,0.2h-0.1l-0.1-0.2l-0.1-0.3h-0.2v0.3l-0.1,0.2l-0.2,0.1h-0.3l0.1,0.3l-0.2,0.4l-0.3,0.5l-0.2,0.6l0.4-0.1
			l0.7-0.5l1-0.2l0.2-0.1l0.5-0.4l2.7-1l4.5-2.2l4.4-2.9l1-0.2l2.1-0.1l0.7-0.2l0.3-0.4l0.2-0.6l0.9-0.8l0.3-0.6l-1,0.5l-0.5,0.1
			l-0.4-0.3l-0.2-0.6l0.3-0.5l0.5-0.3h0.6v-0.3l-0.3-0.2l-0.1-0.4l0.1-0.4l0.2-0.2l0.3,0.1l0.2,0.5l0.3,0.1l0.2-0.1l0.3-0.5l1-0.3
			h0.3l0.2,0.1l0.6,0.7l0.2,0.1l2.6,0.6l0.5-0.2l0.3,0.6l1.1,0.2L183,54l-0.2,0.3l-0.4,0.3l-0.5,0.2l-0.4,0.1l0.7,0.3l0.7-0.2
			l0.6-0.5L184,54l0.3-0.2l0.7-0.1l0.1-0.3l0.1-0.2l1-0.5l-0.7-0.1l-0.1-0.8l0.3-0.8l0.4-0.4l0.6,0.1l1.5,0.7l0.5,0.4l2.1,2.2
			l0.3,0.5l0.4,0.7l0.1,0.7l-0.5,0.2l1,0.5l0.3,0.4l0.2,0.3l0.3,0.1l-0.6,0.1l-0.8-0.1h-0.7l-0.3,0.5l-0.2,0.3l1.3-0.1l1.1,0.6
			l1.3-0.1l1.1-1.3l0.2-0.5v-0.1h-0.2l-0.4-0.2l-0.3-0.3l-2.1-3.6l-1.9-0.8l-1.3-1l-0.4-0.1l-0.9-0.1l-0.7-0.4l-0.4-0.8l0.1-1.3
			l1-2.4l0.4-1.5l-0.5-0.7l-0.9,0.2l-0.9,0.4l-0.8,0.1l-0.7-0.8l0,0l0,0l0,0l0,0l-0.1-0.1l-0.3-0.4l0.4-0.4l0.1-0.1l0.2-0.3l0.1-0.3
			l-0.1-0.3l-0.2-0.2l0.6-0.8l3-2.3l0.8-1.4l-0.2-0.7l-0.6-0.1l-0.8,0.1l-0.7-0.1l-0.8-0.8l-0.5-0.4l-0.7-0.2l-0.4-0.2l-0.8-0.1
			l-0.4-0.1l0.4,0.7l-0.7,0.1l-0.2-0.3l-0.1-0.5l-0.4-0.5l0,0l-0.2-1l-0.2-0.5l-0.2-0.4l0.7-0.4l0.5-0.9l0.4-0.8l0.3-0.3h0.4
			l0.3-0.2l0.6-0.5l1.2-0.7l0.7-0.7l0.6-0.8l0.7-0.6l0.9-0.1h0.7l0.5-0.3l0.3-0.6v-1l0.2-0.2l0.1-0.2v-0.3v-0.3l-0.4,0.1h-0.4
			l-3.2-1.1h-1.1l-0.2-0.1l-0.4-0.4l-0.2-0.1l-1.6,0.1l-1.2-0.2l-2.7,0.6l-1.3-0.9l-0.6-0.2l-1.7-1.1l-2.2-0.5l-6.3-0.4l-1.5-1
			l-0.9-0.3h-0.2l-0.4,0.2h-0.3l-0.3-0.1l-0.5-0.4l-0.3-0.1l-1.3-0.1l-1.6,0.2h-0.4l-0.4-0.2l-0.8-0.6l-1.4-0.3l-1.1-0.4l-0.9-0.8
			l-0.5-1.3l-0.2-0.9l-0.4-0.3l-0.6-0.1l-0.6-0.2l-0.3-0.2l-0.2-0.2l-0.1-0.3v-0.5l0.1-0.5L152,10l0.1-0.3V9.2l-0.3-0.8l-0.4-0.3
			h-1.1L149.9,8l-0.1-0.1l-0.1-0.3l-0.3-0.3l-0.3-0.2L148.5,7l-0.3-0.1l0.4-0.4V6.1l-0.2-0.4l-0.2-0.4L148,4.4L147.9,4l-0.2-0.4
			l0.3-0.7l1.6-0.9l0.6-0.8v-1L149.6,0l-1.7,0.3l-2.7,1.4l-1.9,0.1l-1.2,0.4L141,2.8l-0.9,0.7l-1.3,0.4l-0.3,0.2L138,4.5l-0.3,0.1
			l-0.5-0.2l-0.9-0.6l-0.5-0.1h-0.2h-0.2l0,0l0,0L134,3.4l-0.6,0.1l-0.8,0.2l0,0l-0.3,0.1H132h-0.2l-0.2-0.1l-0.1-0.2l-0.2-0.1
			l-0.2-0.1l-0.5-0.1l-0.3,0.1l-0.2,0.2l-0.2,0.3l0,0L129,4.7h-0.8l-0.8-0.4l-1-0.2l-1.9,0.3L122.6,5l-0.5,0.3L120.4,7l-0.2,0.5
			l-0.3,1.4l-0.5,1.2v0.2v0.4v0.2l-0.1,0.1l-0.3,0.1l-0.1,0.1l-0.6,1l-0.4,0.4l-0.4,0.1l-0.5-0.2l-0.9-0.1l-0.5,0.1l-0.9,0.3h-0.3
			l-0.3-0.1l-0.5-0.4l-0.2-0.1h-0.3l-0.5,0.1h-0.3l-0.8-0.4l-0.3-0.1l-0.6,0.2h-0.3l-0.2-0.3l0.1-0.2l0.6-0.5l0.1-0.3l-0.3-0.4
			l-2.1-1.2L108.1,9l-0.5,0.1l-2.7,0.7l-1.1-0.1L102.9,9l-0.1,1.3l-0.1,0.4l-0.2,0.3l-0.6,0.7v0.6l0.2,0.6l0.1,0.5l-0.3,0.5
			l-0.5,0.3l-0.1,0.4V15l-0.1,0.6l-0.3,0.5l-0.3,0.3l-0.1,0.4l0.2,0.8l0.5,0.6l1.1,0.1l0.6,0.5l0.2,0.7v1l-0.2,1l-0.4,0.6l-0.5,0.1
			l-1.9-0.5l-0.9,0.1l-0.3-0.1l-0.3-0.1l-0.2-0.2l-0.1-0.2L98.1,21L97,20.6l-0.1-0.4l0.1-0.8V19l-0.4-0.3h-0.7l-2.5,0.7l-0.3,0.1
			L93,19.8l-0.3,1.3l-0.2,0.3L91.9,22l-0.2,0.3v0.3v0.8l-0.1,0.4v0.4l0.1,0.3l0.1,0.2l0.2,0.2l-0.5,0.8l0.4,0.5l0.8,0.3l1.2,0.2
			l0.5,0.2l0.2,0.4l-0.2,0.8l-0.2,0.3l-0.6,0.5l-0.2,0.4l-0.1,0.5v0.3l0.1,0.3l0.3,0.4l1.1,1.1l0.3,0.7l-0.4,0.7L94,33.8l-1.1,0.4
			H92v-0.9l-0.3-0.7l-1.1-0.9l-0.4-0.5L90,30.4v-0.8L89.8,29l-0.7-0.4H89v87.6l0,0l0.4,0.4l0.2,0.1h0.3l0.2-0.2l0.1-0.2l0.1-0.2
			l0.3,0.1l0.4,0.2l0.5,0.2l1,0.7l0.5,0.2l0.4,0.3l0.8,1.4l1.2,0.9l0.8,1.3l1.1,2.7l0.3,1.4l0.8,8.9l0.6,2.8l0.2,0.6l0.9,0.4
			l0.4,0.4l1.7,2.4l2.1,4.5l0.3,0.7l0.1,0.8v1.5l0.1,0.8l0.2,0.6l-0.2,0.5l-0.1,0.8v0.8l0.1,0.4l-0.6,2l-0.4,0.7l-0.7,0.6l0.6,1.8
			l0.5,0.6l0.8-0.3l-0.1-0.1l-0.1-0.4l1.2-0.4h1.3l1.3,0.3l1.9,0.9l0.3,0.3l0.3,0.4l0.1,0.5l-0.1,0.2l-0.2,0.2l-0.1,0.3v0.8v0.7
			l-0.3,0.6l0.3-0.2l4.3,1.5l1.4,0.8l0.8,0.8l0.2,0.1l0.2,0.2l0.2,0.5l0.1,0.6l0.1,0.4l1.3,0.8l0.6,0.5l0.1,0.7l0.4,0.2l0.3,0.6
			l0.2,0.7l0.3,0.5h0.2l0.3-0.2h0.3l0.2,0.7l0.6,0.9l0.1,0.6l-0.1,0.9l-0.2,0.8l-0.2,0.4h-1.2l-0.6,0.1l-0.5,0.3l0.2,0.6l0.2,0.6
			l0.3,0.4l0.7,0.3l0.4,0.5l0.2,0.2v-0.1l0.2-0.1h0.3l0.3,0.1l0.1-0.5l0.4-0.6l0.1-0.6l0.2-0.3l0.4-0.1h0.5l0.4,0.1l2,0.7h0.8
			l-0.2-0.2h0.3h0.3l0.3,0.1l0.3,0.1v0.3l0.7,0.2l1.8,1l1.3,0.4l3.2,2.5l0.6,1l1.4,3l0.2,0.6l0.1,0.6l0.1,0.3l0.6,0.8l0.2,0.5
			l0.4,0.3l0.4,0.7l0.3,0.7l0.1,0.5l0.3-0.1l2.1-0.1l0.5,0.2l0.5,0.3l0.4,0.4l0.3,0.4l0.3,0.1l0.8,0.1l0.2,0.3l0.1,0.5l0.2,0.3
			l0.3,0.2l2.6,2l0.6,0.9l0.7,1.2l0.3,0.7l0.1,0.7v0.7l0.1,0.7l0.2,0.6l0.4,0.5l0.2,0.1l0.8,0.2l0.2,0.1l0.4,0.3l0.7,0.2l0.4,0.3
			l2.8,2.6l2.6,3.1l2,3l0.4,0.4l0.2-0.4l0.3-0.3l0.7,0.3l1.9,1.2l0.4,0.1l2.1,0.1l0.6,0.2l0.8,0.5l0.8,0.7l1.5,1.7l0.3,0.6l0.5,1
			l0.3,0.5l0.3,0.6l0.1,0.6l0.2,0.5l0.6,0.2l0.6-0.2l0.6-0.9l1-0.3l1-0.6l0.5-0.2l2.2-0.4h1l4.2,2l0.5,0.6h0.2l0.2-0.3l0.1,0.2
			l0.2,0.3l0.3,0.3l0.3,0.1l0.8-0.1l-0.3-1.1l0.8-0.5l1.7-0.2l0.2,0.3h0.4l0.8-0.2l0.4,0.1l1.7,1.7l2.7,3.5l0.7,1.4l0.1,0.4v0.8
			l0.1,0.3l0.3,0.3l0.9,0.6l2.1,4.3l0.2,1.3l-0.3,1.4l0.9,0.3l0.2,0.2v-0.5l-0.1-0.5v-0.4l0.2-0.3l0.4-0.1l0.4,0.1l1.9,1h0.6
			l0.3-0.7l0.3-0.4l0.7-0.2l0.7-0.1h0.5l0.5,0.4l1,1.1l0.5,0.2l0.1,0.1l0.3,0.5l0.2,0.2l0.2,0.1l0.4,0.1l0.3,0.1l0.5,0.3l0.5,0.4
			l0.4,0.5l0.1,0.6l-0.2,0.4l-1.8,1.5l-0.2,0.2l-0.2,0.5l-0.2,0.1h-0.5l-0.6,0.3l-0.3,0.7v0.7l0.3,0.5l0.4-0.5l1.2-0.7l0.6-0.5
			l1.3-0.3l0.4-0.3l0.8,0.5l0.7,0.2l0.7-0.1l1.1-1l0.3-0.1l1.4,0.1l0.3-0.1l0.8-0.6l0.9-0.3l0.8,0.2l0.7,0.6l0.7,0.7l0.7,0.9
			l0.7,1.2l2.3,5l0.4,1.3l-0.3,1.2l-0.2,0.2l-0.2,0.2l-0.3,0.2l-0.3,0.1l-0.3,0.1v0.3l0.2,0.6l-0.2,0.8l-0.7,0.9l0.1,0.6l0.3,0.1
			l1,0.2l0.2,0.3l0.2,0.1l1.1,1l0.6,0.7l0.3,0.2l0.5,0.1l0.8-0.2l0.5-0.1l0.4,0.2l1.5,1.6v-63.9L229.7,193.6z M157,194.6h-0.2
			l-0.1-0.1l0.1-0.2l0.2-0.1V194.6L157,194.6z M157.9,120.1l-0.2,0.4l-0.1,0.1v0.1v0.1v0.1l-0.5,0.8l-0.8,0.1l-0.8-0.4l-0.4-0.8
			l0.3-0.9l0.7-0.7l0.9-0.4l0.8-0.1l0.2,0.4l0.1,0.6L157.9,120.1z"/>
		<polygon fill="#FFFFFF" points="224.2,315.8 223.8,316.6 223.9,317.1 224.3,317.6 224.9,318.2 225.2,318 225.5,317.7 225.3,317.3
			225.1,316.9 224.8,316.5 224.4,316.3 224.4,315.8 		"/>
		<polygon fill="#FFFFFF" points="213.8,311.6 214.1,311.6 214.1,311.5 214,311.3 213.9,310.9 213.5,310.7 213.1,310.5 213,310.6
			213,311 213.2,311.5 		"/>
		<polygon fill="#FFFFFF" points="224.1,312.8 223.2,312.8 222.8,313 222.6,313.6 222.6,314.2 222.8,314.5 223.1,314.6 223.5,315
			223.9,315.2 224.4,315.1 224.4,314.9 224.2,314.8 224.1,314.6 224,314.2 224.7,314.2 224.7,314 224.6,313.9 224.3,313.6
			224.2,313.5 224.3,313 		"/>
		<polygon fill="#FFFFFF" points="221.5,312.2 221.6,311.9 221.7,311.5 221.8,311.3 222,311.2 221.7,310.8 221.3,310.7 220.3,310.7
			219.7,311.1 220.5,311.8 		"/>
		<polygon fill="#FFFFFF" points="198.4,235.7 198.5,235.7 198.5,235.6 198.6,235.6 198.7,235.9 198.9,236 198.8,235.6 198.9,235.5
			199.1,235.5 199,235.2 199.1,235.2 199.2,235.1 199.4,235.2 199.2,235 199,234.9 198.9,234.8 198.8,234.8 198.6,235 198.5,235.1
			198.6,235.2 198.5,235.5 		"/>
		<polygon fill="#FFFFFF" points="144.6,370.1 144.4,370.1 144.3,370 144,369.9 143.9,369.9 143.6,369.6 143.5,369.5 143.3,369.5
			143.1,369.7 143,369.7 142.7,370 142.8,370.5 143,371.1 143.1,371.3 143.7,372.1 144.7,372.8 145.6,372.9 146.2,372 146.2,371.2
			145.8,370.7 144.8,369.7 		"/>
		<polygon fill="#FFFFFF" points="173.3,227.5 173,227.6 172.9,227.8 173,227.9 173.2,227.9 		"/>
		<polygon fill="#FFFFFF" points="120.8,181.8 121,181.9 120.9,181.6 120.7,181.5 120.6,181.6 120.5,181.6 120.4,181.7 120.4,181.9
			120.5,182.1 120.5,182.2 120.8,182.4 120.8,182.1 120.7,181.8 		"/>
		<polygon fill="#FFFFFF" points="99.1,178.5 99,179.1 99.5,179.3 99.6,178.7 99.3,178.3 		"/>
		<polygon fill="#FFFFFF" points="97.1,161.9 96.8,161.7 96.2,161.4 95.9,161.3 95.4,161.4 94.7,161.6 94.1,162 93.9,162.6
			94,163.6 94.5,164.1 95.1,164.3 97.3,164.4 97.4,164.4 97.6,164.1 97.7,163.6 98.2,164.1 99.3,163.5 99.6,164.1 99.9,163.3
			100.2,163.3 100.6,163.6 100.9,163.9 101,164 101.3,164.7 101.4,164.9 101.7,165 102,165 102.2,165 102.3,165.3 102.7,164.9
			102.5,164.2 102.1,163.6 101.6,163.4 102,163.2 102.4,162.9 102.7,162.5 102.8,161.9 102.7,161.4 102.7,161 102.8,160.6
			103,160.4 102.9,160 102.7,159.7 102.5,159.4 102.2,159.4 101.9,159.5 101.7,159.9 101.4,160.8 101.2,161 101,161.2 100.7,161.4
			100.6,161.7 100.5,161.8 100.1,161.8 99.8,161.6 99.9,161.1 98.9,161.1 98.4,161 98.4,161.3 98.1,161.6 98.2,161.7 98.2,161.6
			98.2,161.7 98.3,161.9 97.6,161.9 		"/>
		<polygon fill="#FFFFFF" points="115.8,178.9 116,178.7 116.1,178.5 115.8,178.2 115.5,177.3 115.2,177 114.8,176.8 114.6,177
			114.5,177.4 114.2,177.8 114.6,178 115.5,179.3 		"/>
		<polygon fill="#FFFFFF" points="146.5,332.2 146.9,332.2 146.9,331.9 146.7,331.6 146.5,331 146.2,330.8 145.7,330.9 145.6,331.1
			145.8,331.4 146,331.9 		"/>
		<polygon fill="#FFFFFF" points="171.1,229.2 171.4,229 171.3,228.9 171.1,228.9 171,228.9 170.8,229 170.7,229.1 170.7,229.1
			170.7,229.2 170.6,229.3 170.4,229.4 170.2,229.6 170,230.2 170.2,230.4 170.2,230.5 170.2,230.7 170.3,230.9 170.5,230.8
			170.6,230.6 170.7,230.4 170.7,230.4 170.6,230.3 170.5,230.1 170.8,229.5 		"/>
		<polygon fill="#FFFFFF" points="167.6,229 167.5,229.2 167.6,229.3 167.9,229.1 167.8,228.8 167.8,228.5 167.8,228.4 167.6,228.5
			167.7,228.6 167.6,228.7 		"/>
		<polygon fill="#FFFFFF" points="156.7,336.9 156.7,336.8 156.2,337 156.2,337.4 156.5,337.9 156.8,338.3 157,338.7 157.1,339.1
			157.1,339.5 157.3,340.1 157.5,340.6 157.9,341.3 158.4,341.9 158.8,342.1 159.9,342.1 160.3,342.3 160.7,342.8 161.9,344.7
			162.5,345.3 163.5,345.3 165.7,345 167.9,344.9 170.1,345.2 170.9,345.5 171.6,346.3 171.7,346.5 171.9,347.2 172.1,347.5
			172.3,347.7 172.6,347.6 173,347.4 176.3,347.9 176.4,348 176.7,348.5 176.8,348.6 177.1,348.7 177.3,348.9 177.7,349.3
			178.2,349.6 178.4,349.8 179.1,351 179.4,351.2 179.7,351.3 180,351.5 180.5,352 181.6,352.6 182.9,353.7 183.7,354.2
			184.7,354.6 185.9,354.8 186.9,355.1 187.7,355.6 189.9,357.9 190.8,358.5 191.8,358.9 192.9,359.1 193.9,359.6 195.6,360.9
			196.8,361 197.1,360.9 197.5,360.6 197.8,360.6 200.8,360.3 201.8,360.5 204,361.5 205.9,362.8 208.4,365.1 209,366.1
			211.2,370.8 211.5,371.1 213.6,371.6 214,371.5 214.5,371.8 216.1,372.5 216.4,372.8 216.8,373.4 218.4,373.6 218.8,374
			219.2,373.9 219.2,374 219.4,374.3 221.1,373.4 222.1,373.2 223.1,373.6 224.1,374.3 224.8,374.6 225.1,374.4 225.2,374.2
			225.4,374.2 225.8,374.3 226.1,374.4 226.3,374.7 226.7,375.2 227.2,375.6 227.8,375.8 228.3,375.6 228.9,375.1 228.9,374.7
			228.4,372.7 227.9,371.6 227.8,370.9 228.1,370.6 228.1,370.2 229.5,366.8 229.9,366.1 230.2,366 230.2,354.5 230.1,354.5
			228.2,353.4 228,353.2 227.8,352.7 227.7,352.2 227.7,348.8 227.7,348.2 227.8,347.6 228.4,346.7 229.7,345.2 230.1,343.9
			230.2,343.4 230.2,325.1 230,325.3 228.5,325.8 228.1,326 227.6,326.2 227.1,326.1 227,326 226.7,325.5 226.6,325.4 226.3,325.4
			225.5,325.4 224.8,325.2 224.4,325.2 224.3,325 223.8,324.4 223.5,324.3 222.8,324.2 222.5,324.3 222.3,324.4 221.9,324.6
			219.8,325.1 219.3,325.2 218.4,325.1 218.1,325.2 217.1,326.5 216.3,327.2 215.5,327.8 212.2,329.1 210.9,329.3 210,328.9
			208.8,329.6 207.3,330 205.8,330.1 202.5,329.6 201.7,329.8 201.3,329.8 200.7,329.8 200.1,329.5 199,328.9 198.6,329.3
			196.8,329.6 196.4,329.8 196.1,330.1 195.7,330.4 194.6,330.7 193.4,331.3 192.8,331.5 191.1,331.2 190.5,331.2 190.6,331.1
			190.6,331.1 190.7,331 190.3,330.8 189.1,330.5 188.3,330.1 187.4,329.2 186.6,328.9 186.3,328.7 186.1,328.3 186.1,328
			186.1,327.4 185.4,326.8 182.1,327.1 181.7,326.1 181.6,325.8 181.6,324.7 181.4,324.5 180.4,323.8 180.4,323.6 180.3,323.4
			180.3,323.2 180.1,323.1 179.9,323.1 179.6,323.3 179,323.4 178.7,323.6 178.4,323.7 178,323.5 177.8,324.3 177.2,324.6
			176.4,324.6 175.8,324.5 174.9,324.1 174.6,324 174.3,324.1 174,324.3 173.9,324.6 174,324.9 173.1,325.8 173.1,326.1
			173.4,326.4 173.4,326.7 173.5,327.1 173.5,327.3 173.5,327.5 173.3,327.7 172.3,328.4 170.1,329.4 169,329.6 168.1,329.1
			168.1,328.8 167.8,328.6 167,328.2 166.7,327.9 166,326.6 165.3,325.1 165.2,324.4 164.9,324.4 164.6,324.4 164.4,324
			164.1,324.6 164.2,325.5 164.2,326.3 163.7,326.8 163.3,326.8 162.9,326.6 162.6,326.6 162.4,326.9 162.3,327.5 161.9,327.9
			161.1,328.4 160.2,328.1 159.5,328.7 158.8,329.5 158,329.8 158.3,330.2 158.3,330.7 158.1,331.2 157.9,332.1 157.3,333.4
			157.2,333.5 157.2,333.5 157.3,333.8 157.3,334.1 157.6,334.4 157.6,334.6 157.6,334.9 157.5,335.5 157.4,335.5 157.2,336.5
			157.3,336.6 157.1,336.7 		"/>
		<polygon fill="#FFFFFF" points="152.8,333.3 153.2,333.1 153.5,333.3 154,333.5 154.4,333.5 154.7,333.1 154.3,333 153.8,332.8
			153.4,332.6 153.2,332.4 153,332.4 152.8,332.6 152.5,332.7 152.1,332.6 152.3,333 152.5,333.2 		"/>
		<polygon fill="#009246" points="73.2,216.7 73.3,216.8 73.5,216.9 73.7,216.9 73.7,216.4 73.3,216.5 		"/>
		<polygon fill="#009246" points="76.1,220.2 76.3,220.1 76.5,220.2 76.8,220.5 76.9,220.6 77,220.3 77,220.1 76.9,219.9 77.1,219
			77.2,218.7 77.1,218.6 77,218.3 76.8,218.1 76.6,218.1 76.5,218.4 76.3,218.8 76.2,219.2 76.3,219.4 76,220.1 		"/>
		<polygon fill="#009246" points="74.4,215.7 74.3,215.8 74.1,216 74,216.1 73.9,216.1 74.1,216.4 74.2,216.2 74.3,216.3
			74.4,216.3 74.5,216.2 74.5,216 74.4,215.9 		"/>
		<polygon fill="#009246" points="43.1,231.4 41.1,236.2 41.4,236.3 41.6,236.6 42,237.2 42.1,237.4 42.3,237.4 42.6,237.5
			42.8,237.6 42.7,237.8 42.6,238 42.5,237.9 42.5,238.8 42.1,239.3 41.7,239.6 41.3,239.9 41.3,240.1 41.4,241 41.6,241.6
			41.8,242.1 41.9,241.3 42.2,240.6 42.7,240.2 43.3,240.4 43,240.9 42.7,241.6 43.3,241.8 44.7,241 45.3,240.9 45.9,241.6
			46.1,242.3 46.2,243.2 46.4,243.9 46.9,244.2 47.3,244.6 47.7,245.4 48,246.3 48.1,247 47.8,248.8 47.8,249.5 48.4,250
			48.6,249.7 49.3,250.2 49.9,250.8 50.3,251.6 50.3,252.6 49.8,254.3 49.9,256.1 50,256.7 50.5,257.7 50.6,258.2 50.6,258.7
			50.3,259.2 50.1,259.6 49.8,259.8 49.6,259.8 49.1,260 48.3,260.1 48.2,260.1 47.8,260.3 47.6,260.6 47.7,260.8 48.1,260.5
			48.4,261 48.4,261.5 48.1,262.2 48,262.6 48.2,263.9 48.2,264.1 48.1,264.3 48,264.6 48.1,264.8 48.2,265.1 48.2,265.2
			48.3,265.2 48.7,265.6 49.1,265.8 49.2,266.1 49,266.5 49.2,266.7 49.4,265.9 49.6,265.5 49.9,265.3 49.7,265.3 49.6,265.3
			49.4,265.4 49.3,265.5 49.2,265.3 49.9,264.8 50.7,264.9 51.5,265.3 52.1,266 52.3,266.5 52.4,266.9 52.3,268 52.2,268.5
			52,269.1 51.7,269.7 51.4,270.1 51.6,270 51.7,269.8 51.8,269.6 51.9,269.4 52.1,269.4 51.8,269.8 51.4,270.3 51.1,270.9
			51,271.5 51.3,271.8 52.7,272.2 51.9,272.4 51.4,272.2 50.9,271.7 50.1,270.3 49.8,270.1 49.4,270.1 49.4,270.3 49.5,271.2
			49.3,271.5 49.3,271.7 49.5,272.1 49.6,273.7 49.9,275.1 49.9,275.8 49.7,276.3 49.9,276.5 49.6,277.2 49.2,278.3 48.8,278.9
			48.1,279.8 47.9,280.2 47.8,280.4 47.9,280.5 48.3,281.4 48.3,281.7 48.2,282.2 48.1,282.5 47.6,283.1 47.5,283.4 47.7,284
			48.7,284.7 48.6,285.3 49.1,286 48.9,286.7 47.6,288.2 47.5,288.5 47.5,288.8 47.7,289.3 47.8,289.4 48,289.4 48.2,289.5
			48.2,289.9 48.3,290.2 48.4,290.4 48.5,290.6 48.6,290.7 48.6,290.4 48.7,290.3 49,290.5 49.2,290.7 49.3,291.2 49.2,292
			49.3,292.4 49.7,292.1 50,292.3 50.2,292.7 50.3,293.3 50.4,293.5 50.4,293.7 51,293.3 51.4,293.6 51.1,294.1 51,294.3
			51.5,294.3 52.1,294.7 52.3,294.5 52.5,294.5 52.8,296 53,297.8 53.7,297.6 54,298.2 54,299.1 53.6,299.7 53.6,299.9 54,300
			54.5,300 54.7,300.2 54.5,300.9 54.7,301.1 55.1,300.9 55,300.2 55.4,299.5 56.1,299 56.7,298.7 57.3,298.8 58,299.2 58.7,299.7
			59.1,300.4 59.1,299.7 59.7,300.3 60.1,300.5 60.4,300.6 60.6,300.5 60.9,300 61,299.9 61.3,299.9 61.5,299.8 64.2,297
			64.4,296.6 64.6,296.8 64.7,296.8 65,296.6 64.8,296.6 65.1,295.4 65.5,294.7 65.5,294.4 65.3,294.2 65.2,294 65,293.5
			64.8,292.9 64.7,292.2 64.8,291.4 65,290.7 65.3,290.3 66.4,289.1 66.5,289 66.5,288.7 66.3,288.5 65.7,288.7 65.4,288.6
			65.3,288.6 65.3,288.4 65,288.3 64.9,288.2 65,287.9 65,287.6 64.6,287.5 64.7,287.3 65,287.3 65.4,287.4 65.6,287.6 65.8,287.9
			66,288.1 66.3,287.9 67.4,289.2 68,289.7 68.8,290 68.9,289.8 69.2,289.3 69.6,288.8 70.1,288.6 71.1,288.7 71.6,288.8 72,289.1
			72.1,288.8 72.4,289 72.7,289.3 73.1,289.5 73.3,289.5 73.6,289.7 74.2,290.3 74.4,290.5 74.6,290.6 75.3,291.4 75.8,291.7
			76.1,291.8 76.2,292.2 76.4,292.2 76.8,291.9 77.2,291.8 77.6,291.8 78,292.2 77.9,292.4 77.9,292.6 78,292.7 78.2,292.8
			78.3,292.1 78.8,291.8 79.3,291.6 79.5,291.3 79.6,290.9 79.8,290.3 79.9,290 79.8,289.8 79.6,289.6 79.5,289.4 79.7,289.1
			79.5,288.2 79.9,287.3 80.6,286.5 81.3,286.2 81.3,286 80.7,285.5 80.5,285.2 80.4,284.7 80.5,284.2 80.8,282.7 81.5,280.8
			81.6,279.7 81.2,279.1 81.8,276.9 81.9,275.9 81.7,274.4 81.8,273.9 81.9,273.5 82,273.3 82.1,273.1 82.1,272.5 82.4,272
			82.4,271.6 82.4,271.1 82.3,270.3 82.3,269.8 82.3,269 82.4,268.1 82.7,267.4 83,267 83,266.7 82.9,266.7 82.8,266.6 82.6,266.5
			82.6,266.3 82.8,266.3 82.6,265.9 82.7,265.5 82.8,265.1 83,264.6 83.1,264.5 83.3,264.5 83.5,264.4 83.6,264.1 83.5,263.9
			83.3,263.9 83.2,264 83,264.1 82.7,263.2 82.9,262 83.9,259.4 84,258.9 83.4,258.4 82.8,257.6 82.5,257.4 82.1,257.2 81.9,256.8
			81.2,255 81.2,254.6 81.1,253.1 81.1,252.6 81.3,251.9 81.6,251.5 82.3,250.9 82.6,250.5 83.1,249.5 83.4,249 83.8,248.8
			84.4,248.6 84.7,248.1 85.2,246.9 85.8,245.9 86,245.3 86.1,244.6 86.2,244.2 86.5,243.6 86.5,243.3 86.3,243 85.6,242.3
			85.4,241.9 85.4,241.6 85.3,241.4 84.9,241.3 84.7,241.2 84.6,241 84.5,240.6 84.4,238.4 84.3,237.9 83.5,236.3 83.4,235.7
			83.2,235.2 82.4,234.1 82.3,233.7 82.3,234.1 82,233.7 82.1,233.4 82.4,233.2 82.8,233.4 82.8,233.1 82.6,232.7 82.8,232.5
			83.7,232.1 83.4,232.1 83.1,232 82.8,231.8 82.6,231.4 82.3,231.7 82.1,231.7 82,231.5 81.9,231.1 81.8,230.9 80.8,230.4
			80.8,230.2 81,230.2 81.2,230 81.4,229.8 81.5,229.5 81,229.4 80.6,229.6 80.2,229.8 79.7,230 79.5,229.9 79,229.6 78.8,229.5
			78.5,229.5 78.3,229.7 78,229.7 77.8,229.3 78.1,229.2 78,229.2 78,229 79.3,229.1 79.6,229 79.5,228.5 79.8,228 79.9,227.4
			80.1,226.8 80.5,226.6 80.9,226.7 81.4,226.9 81.8,227 82.1,226.6 81.6,226.2 80.8,226 80.1,225.9 79.7,226.3 79.6,226.3
			79.5,226.3 79.3,226.1 79.3,226.2 79.3,226.3 79.3,226.3 79.1,226.3 79.3,225.8 79.2,225.4 78.9,225.4 78.4,225.6 78.6,226.1
			78,226.1 78.3,225.5 78.8,223.4 78.8,223.6 78.9,223.7 79,223.9 79.2,223.6 79.4,223.2 79.5,222.9 79.5,222.4 79.4,222.4
			79.4,222.4 79.4,222.3 79.3,222.2 79.1,222.2 79,222.4 78.8,222.3 78.6,222.1 78.4,222 78.6,221.7 78.4,221.4 78.2,221.4
			78.1,221.6 77.9,221.7 77.6,221.6 77.2,221.5 76.9,221.5 76.6,221.7 76.7,221.8 76.8,221.9 76.8,222 76.9,222.2 76.7,222.4
			76.5,222.7 76.2,223.4 76,222.6 76,222.2 76.2,222 75.9,221.7 75.8,221.4 75.6,221.1 75.3,221 75.4,220.8 75.4,220.7 75.5,220.6
			75.6,220.5 75.6,220.3 75.4,220.3 75.1,220.2 74.9,220.1 74.7,220 74.7,220.3 73.8,219.3 73.3,219.2 73.2,220 72.8,219.7
			72.7,219.5 72.5,219.6 72.3,219.7 72,219.7 72,219.5 72,219.4 72.1,219.3 72,218.8 71.8,218.8 71.7,219.1 71.6,219.4 71.7,219.6
			71.8,219.7 71.5,219.5 71.5,218.3 71.2,217.8 70.9,217.9 70.7,217.8 70.5,217.7 70.5,217.3 70,217.6 69.4,217.8 68.9,218
			68.7,218.7 68.7,220.1 68.5,220.7 68.1,221.3 68,221 67.2,221.7 66.8,221.9 65,222.1 64.5,222.3 64.1,223.2 63.7,223.7
			63.2,224.2 62.9,224.4 62.7,224.5 62.4,225.1 62.2,225.4 62,225.5 61.1,225.8 61.2,225.9 61.3,225.9 61.3,226 61.3,226.1
			61,226.4 60,228 59.6,228.5 58,229.7 57.6,229.5 57.2,229.4 56.5,229.5 54.7,230.3 54.5,230.9 54.1,231.4 53.5,231.9 51.5,232.8
			50.9,232.9 50.3,232.8 48.8,232.4 45.8,231.9 44.9,231.4 43.7,229.8 43.6,229.4 43.7,229 43.8,228.6 43.8,228.3 43.6,228
			43.4,228 43.2,228 43.1,227.5 42.9,227.5 42.7,227.9 42.4,228.6 42.3,229.2 42.6,229.5 43.1,229.7 43.3,230.2 43.3,230.9 		"/>
		<polygon fill="#009246" points="44.3,292.7 44.7,293 45.3,293 45.7,292.8 45.9,292.3 45.7,290.9 45.7,289.8 45.3,289.9
			44.1,290.2 43.7,290.5 43.5,291 43.7,291.5 44.4,292.2 44.4,292.4 		"/>
		<polygon fill="#009246" points="75,219.6 74.9,219.7 74.9,219.9 75.1,219.9 75.2,220 75.2,220.1 75.5,219.6 75.2,219.3
			75.2,219.5 		"/>
		<polygon fill="#009246" points="75.8,217.9 75.8,217.6 75.6,217.4 75.4,217.3 75.2,217.5 75.1,217.5 75,217.6 74.9,217.9
			74.8,218.1 74.6,218.3 74.4,218.4 74.3,218.5 74.3,218.8 74.4,219.1 74.9,219.2 76,219 75.9,218.8 75.9,218.7 75.8,218.5
			75.8,218.2 		"/>
		<polygon fill="#009246" points="68.3,218 68.2,218 68.1,217.9 68,218.1 68.2,218.5 68.4,218.4 68.5,218.2 68.5,218.2 68.5,218.1
					"/>
		<polygon fill="#009246" points="44.5,224.4 44,224.8 43.6,225.2 43.5,225.5 43.5,225.8 43.4,226.2 43.3,226.5 43.1,226.8
			44.1,226.9 44.2,226.1 44.2,225.1 44.9,224.6 46.4,224.4 46.6,224 46.7,223.6 46.7,223.2 46.4,222.9 46.3,222.7 46.2,222.5
			46.2,222.2 45.9,222.5 45.7,222.6 45.7,222.8 45.6,222.9 45.1,222.9 44.9,222.9 44.9,223.3 44.9,223.8 44.9,224.2 		"/>
		<polygon fill="#009246" points="73.2,218.4 73.3,218.5 73.4,218.5 73.4,218.5 73.5,218.6 73.7,218.4 73.8,217.9 73.5,217.7
			73.4,217.7 73.2,217.8 73.1,218.2 		"/>
		<polygon fill="#009246" points="73.8,216 73.6,215.8 73.5,215.8 73.4,215.8 73.4,215.7 73.3,215.7 73.2,215.8 73.3,216
			73.3,216.1 73.3,216.2 73.6,216.2 73.8,216.3 		"/>
		<polygon fill="#009246" points="50.5,294 50.3,294 50.3,294 50.3,294 50.1,294.2 49.9,294.2 49.8,294.1 49.7,293.9 49.4,292.9
			48.7,292.8 47.8,292.8 47.1,292.4 46.8,293.1 46.8,293.3 47,293.3 47,293.6 46.9,294.3 47.3,295.4 48.2,297.1 48.4,297.3
			48.4,297.6 48.5,297.7 48.8,297.8 49.1,297.7 49.2,297.6 49.5,296.6 49.7,295.5 49.9,295 49.8,294.7 49.9,294.5 		"/>
		<polygon fill="#009246" points="88.9,138.5 88.8,138.4 88.7,138.3 88.5,138.4 88.4,138.5 88.3,138.9 88.7,139.1 88.8,138.8 		"/>
		<polygon fill="#009246" points="88.9,27.9 88.4,27.9 87.2,28.1 85.5,29 84.9,29.2 84.5,29.1 83.9,28.7 83.6,28.7 83.3,29
			83.3,29.5 83.3,29.9 83.3,30.2 82.9,30.8 82.4,31 79.3,30.9 78.7,30.7 78.1,30.3 77.8,29.9 77.2,28.5 77,28.3 76.4,27.9
			76.2,27.8 76.2,27.5 76.2,26.9 76,23.2 76,23 75.7,23 75.3,23.3 75.1,23.6 75,23.9 74.9,24.1 74.6,24.2 74.4,24.1 73.7,23.5
			73.7,23 73.2,22.8 71.9,23 71.4,23.5 70.9,24.4 70.7,25.4 70.9,25.9 71.3,26.1 71.3,26.5 71.3,27 71.3,27.6 71.6,28.9 71.7,29.5
			71.5,30.3 70.7,31.9 70.3,33.3 70.1,33.7 69.8,34 69.4,34.2 69.2,34.4 69,34.8 68.9,35.2 68.7,35.6 66.7,36.9 66.2,37.7
			66.1,38.2 66.2,39 66.1,39.5 65.9,39.9 65.6,40 65,40.2 64.3,40.7 64.2,41.2 64.7,42.5 63.8,43.3 63.8,43.4 63.7,43.5 63.8,43.6
			63.8,43.7 64.1,44 64.3,44.7 64.6,45.1 64.8,45.2 65.4,45.3 65.7,45.5 66,46.1 65.9,46.8 65.2,48.1 64.4,49.1 63.6,49 62.7,48.6
			61.6,48.9 61.7,48.3 61.9,47.9 62,47.4 61.9,46.7 61.8,46.2 61.6,45.7 61.1,44.9 60.8,44.3 60.7,44 60.5,43.9 58.9,43.1
			58.5,42.9 58.1,42.9 58.1,42.8 58.2,42.6 58.7,41.5 59.5,40.6 59.9,39.7 59.2,38.8 58.8,38.6 57.9,38.7 57.5,38.6 57.3,38.5
			57.1,38.1 56.9,38 56.7,38.1 56.3,38.5 56.1,38.6 55.6,38.6 54.4,37.8 53.9,37.6 53.6,37.5 51.9,35 51.2,34.2 50.4,33.9
			49.7,33.6 49.2,33.2 48.9,32.5 48.8,31.6 48.9,30.6 49.3,28.6 49.4,27.5 49.4,26.3 49.3,25.4 48.9,24.9 48.2,24.8 46.7,25.1
			46,25.5 45.4,26.1 45.2,26.6 45.3,26.7 45.4,26.9 45.4,27.3 45.3,27.6 45,27.9 44.7,28.2 44,28.6 42.6,30.3 42.1,30.7 40.9,31
			40.3,31.2 39.8,31.8 39.5,32.1 39.4,32.5 39.5,32.6 40.2,33.2 40.9,34.7 41,36.1 40.4,37.4 39.3,38.4 39,38.5 38.4,38.5
			38.2,38.7 38,39.1 37.9,39.6 37.9,40 37.8,41.1 37.7,41.2 37.4,41.7 37.4,41.8 37.1,42.3 36.9,42.4 36.6,42.5 34.7,42.9 34,43.4
			33.4,44.6 33.3,45 33.3,45.2 33.3,45.3 32.9,45.5 32.8,45.5 32.3,45.4 31.6,45.4 30.3,44.9 30,45 29.8,45 29.6,45.1 29.3,45
			29.2,44.9 28.7,44.2 28.3,43.8 27.9,43.5 25.2,42.9 24.7,43.1 24.4,43.5 24.2,43.9 23.6,44 22.8,44.3 21.2,45.5 20.4,45.8
			18.3,45.6 18,45.7 17.2,46.2 15.6,46.8 14.8,47 13.9,47 13.1,46.8 12.4,46.5 11.2,45.1 10.9,45.3 10.6,45.7 10.4,46.1 10.2,46.6
			9.8,47.2 9.3,47.7 8.7,48 8.1,48.2 7.4,48.2 7.2,48.2 7.1,48.2 6.9,48.1 6.8,48 6.7,48.1 6.6,48.3 6.5,48.5 6.5,48.6 5.7,48.7
			5.3,48.9 5,49.5 4.8,50.1 4.8,50.8 4.9,51.5 5.2,53.1 5.7,53.9 6.4,54.4 7.1,54.6 7.5,54.7 8.1,55.3 8.5,55.6 9.3,55.8 9.7,56
			9.8,56.6 9.8,56.8 9.5,57.5 9.4,57.8 9.4,58.1 9.7,58.6 9.8,58.8 10,60.4 10.2,61 11.4,61.7 12.6,62.5 12.8,63 13,63.4 13.2,63.9
			13.6,64.1 14.7,64.6 15,64.8 14.9,65.3 14.7,65.8 14.1,66.8 13.3,67.9 13.1,68.1 13.3,69.2 13.5,70 13.5,70.6 12.8,71.2
			12.3,72.1 12.1,72.3 12,72.2 11.7,71.8 11.4,71.7 10.5,72 9.5,72.4 9.2,72.8 8.7,73.6 8.3,73.9 8.1,74 7.5,74 7.2,74.1 7.1,74.4
			7.2,74.6 7.4,74.8 7.3,75 6.5,75.5 5.5,75.1 4.5,74.6 3.6,74.4 3.4,74.5 2.9,74.9 2.7,75 2.4,75.1 2,75.1 1.7,75.1 0.8,75.6
			0.3,76 0,76.5 0.5,77.2 0.9,77.6 0.9,77.8 0.9,78.1 1,78.5 1.3,79 1.6,79.3 2.5,79.4 3.2,79.9 3.4,81 3.3,83.1 3.8,83.9 4.7,84.6
			6.5,85.7 7.1,85.8 8.4,85.6 8.8,85.6 10.2,86.2 10.7,86.7 10.8,86.9 10.8,87.1 10.8,87.2 10.8,87.3 10.8,87.5 10.8,87.5
			10.6,88.1 10.6,88.2 10.9,89 11,89.9 11.2,90.2 12,91.8 12.1,92.3 11.6,92.3 10.7,92 10.2,92 9.6,92.3 9.1,92.9 8.9,93.7
			9.2,94.5 8.8,94.8 7.9,96.4 6.5,97.4 6.2,97.9 6.3,99.1 6.9,100.2 7.7,101 8.4,101.6 7.5,102.1 7.4,102.4 7.1,103.6 7.1,103.8
			7.1,104 7.1,104.3 7.3,104.5 7.9,105.2 8.1,105.6 8.4,106.3 8.5,106.6 8.8,106.9 9.3,107.2 9.6,107.5 9.7,107.9 9.8,108.3
			9.9,108.6 10.2,108.9 10.5,109 10.9,109 11.2,108.9 11.5,108.8 11.9,108.9 13.5,109.8 14.5,110.2 17.4,111.9 17.9,112.1
			18.6,112.2 18.9,112.4 19.1,112.7 19.3,113 19.5,113.2 19.8,113.3 20.9,113.3 25.5,111.9 26.3,111.9 27.4,111.2 28.2,111.3
			27.9,112.5 28.2,113.2 28.8,113.8 29.2,114.7 29.2,115.4 28.9,115.8 28.5,116.1 28.2,116.4 28,116.9 27.8,117.7 27.6,118.1
			27,118.8 25.6,119.9 25,120.8 23.9,122.1 23.5,122.9 23.6,123.8 24.1,125.6 24.4,125.6 24.7,125.7 24.9,125.9 25.3,125.9
			26,125.6 29.3,125.6 30.4,125.4 31.7,124.5 36.4,123.3 38.3,122.1 39,121.9 39.3,121.7 39.4,121.4 39.5,121.2 39.7,121
			39.9,120.9 40.6,120.6 41.4,119.6 42,119.5 42,119.3 41.6,118.5 42,117.6 43.3,116.2 43.5,115.8 43.7,115.2 43.7,114.9
			43.7,114.3 43.7,114 44.4,113.1 44.7,112.7 45.1,112.4 45.9,111.9 47.4,111.4 48.1,111.1 48.4,110.7 48.4,110.3 48.4,109.9
			48.5,109.4 48.7,109.3 49.1,109 49.2,108.9 49.2,108.7 49.3,108.5 49.6,108 49.4,107.3 50,106.5 52,105.2 52.6,104.6 52.9,104.4
			53.4,104.4 55.1,103.2 55.3,103.1 55.5,103.2 55.7,103.2 55.9,103 56.2,102.7 56.9,102.1 57.3,101.9 57.9,101.8 59.7,101.9
			60,102.3 60.2,102.5 60.8,102.6 62,102.6 62.3,102.5 63,103 64.3,103.4 67,103.9 67.8,104.3 68.3,105.2 68.2,105.6 68.7,106
			70,106.5 69.9,105.9 70,105.5 70.2,105.1 70.5,104.7 71.4,105.3 74.2,106.9 74.4,107.8 75.6,108.3 75.8,108.7 76,109 76.5,109
			77,109 77.3,108.8 77.4,109.3 77.7,109.6 78,109.9 79.2,110.4 79.7,110.8 79.9,111.2 80,111.3 81,112.4 81.2,112.5 81.6,112.6
			82.4,112.6 82.6,112.8 83.3,113.5 83.7,113.7 85,114.9 86.3,115.5 86.5,115.8 86.6,116.3 86.9,116.4 87,116.2 86.7,115.9
			86.8,115.6 86.9,115.5 87,115.4 87,115.2 86.8,115.1 86.6,115 86.4,114.7 86.3,114.4 86.4,114.3 86.5,114.2 86.7,114.2
			86.5,113.9 87,113.8 87.8,114.6 88.1,114.4 88.6,114.9 89.4,115.6 89.4,28 		"/>
		<polygon fill="#009246" points="86.9,153.4 87.2,152.6 87,152.6 86.9,152.5 86.9,152.4 86.8,152.4 86.5,151.8 86.1,152.1
			85.6,153.4 86,154.1 86.5,154 		"/>
		<polygon fill="#009246" points="80.4,224.2 80.5,224.2 80.5,224.1 80.5,224 80.6,223.8 80.4,223.9 80.3,224 80.3,224.1
			80.3,224.2 		"/>
		<polygon fill="#009246" points="83.4,231.1 83.6,231.5 84,231.7 84.1,231.6 84.3,231.3 84,231 83.8,231.1 		"/>
		<polygon fill="#009246" points="84.1,229.3 84,229.3 82.5,230.5 82.4,230.5 82.5,230.5 82.7,230.5 82.8,230.6 83.1,230.5
			84.1,229.8 84.1,229.5 		"/>
		<polygon fill="#CE2B37" points="319.4,257.3 319.6,256.9 319.4,256.9 319.3,256.7 319.1,256.5 317.5,252.4 315.7,250 315.4,249.7
			314.9,249.5 314.6,249 313.9,247.8 313,247.1 312.7,246.7 312.1,245.8 311.9,245.7 311.4,245.5 308.9,244.1 306.7,242.3
			306.9,240.7 306.8,240.5 306.2,239.9 306,239.5 306,239.2 305.9,239 305.5,238.9 304.8,239.1 304.5,239.1 304.5,238.3
			303.6,237.9 301.5,237.5 299,235.6 296.2,234.5 295.9,234.3 293.6,233.7 292.7,233 292.1,232.9 291.7,232.7 290,230.9 289,230.1
			288.6,230 288.2,229.8 287.2,228.3 286.3,227.4 284.4,225.9 280.4,223.8 275.8,222.3 275.3,221.7 275.1,221.7 275.1,222
			274.9,222 274.4,221.5 268,219.3 266.9,218.6 266.5,218.2 266.1,217.8 264.4,217.3 260.2,215 255.1,212.7 254.8,212.3 254.4,212
			252.7,211.5 251,210.3 250.3,209.6 249.7,208.8 249.3,207.6 249.2,206.1 249.4,204.8 250.1,203.9 252.8,202.5 253.8,201.7
			254.5,200.8 255,200.4 255.5,200.2 256,200 256.6,199.5 257,198.9 257.3,198.5 257.3,197.9 257.2,197.4 257,196.1 256.8,195.4
			256.9,194.8 256.4,194.8 255.8,193.9 255.1,193.6 255.1,193.6 252.8,193 246,193.8 241.7,193.6 237.2,194.3 236,194.3
			232.8,193.6 230.2,193.6 230.2,257.5 230.4,257.6 230.9,257.9 231.5,258.3 232.3,259.2 232.7,260.1 232.3,260.5 232.3,260.8
			232.6,260.8 232.8,260.8 233.1,260.7 233.4,260.5 233.7,260.6 234.7,261.4 235.4,261.7 236.1,261.8 236.6,261.7 237.6,260.8
			238.5,259.8 238.9,259.3 239.6,259.1 241.6,259.3 242,259.1 242,259.5 242.2,259.8 242.7,260.3 243.5,261.5 244.4,262.5
			244.8,263.1 245,263.8 245.2,264.3 246,265.6 246.2,266.4 245.9,267.7 245.9,267.9 246.1,268.1 246.3,268.4 246.4,269.1
			246.4,268.9 246.9,272.4 247.1,273 247.7,273.9 248.1,275.2 248.4,276.1 248.5,277 248.8,277.4 249.5,277.9 250.3,278.7
			250.9,279.6 252.9,284.6 253.2,285.7 254.3,293.8 255.8,297.3 256.2,298 256.6,298.3 257.2,298.4 257.6,298.7 257.8,299.2
			258,299.9 258,301.4 257.9,302.8 257.5,304.1 256.9,305.1 256.2,305.7 255.7,305.9 255.3,306 253.4,305.8 252.2,305.9
			251.2,306.3 249.5,307.4 248.4,307.8 247.9,308.1 247.7,308.5 247.7,308.8 247.6,309 247.7,309.2 247.9,309.5 248.1,309.7
			248.4,309.9 248.6,310 249.4,310.9 249.8,311.8 249.9,313 249.5,314.5 247.5,318.6 247.1,320.2 247.1,320.4 246.7,320.7
			246.6,320.9 246.4,321.1 243.6,322 242.7,322.4 242.2,323.1 242.4,324.3 242.6,325.1 242.6,325.7 242.5,326.3 242.1,326.9
			242,327.4 242.2,328 242.9,329.1 242.4,329.6 242.3,330.3 242.6,331 243.1,331.7 243.6,332.1 244.3,332.6 245,332.9 245.7,333.1
			250.5,332.8 252.1,333.3 252.5,333.1 253.8,332.8 254.1,332.6 254.5,332.3 254.8,331.9 255.1,331.5 255.4,330.4 256.2,326.8
			256.6,325.7 260.3,321.2 261.2,320.3 263.8,319 264.6,318.7 265.4,318 265.7,317.9 266.1,317.4 267.1,316.4 267.4,316
			267.6,313.5 267.6,312.6 267.1,310.3 266.8,307.7 266.8,307.1 266.7,307 266.4,306.7 266.5,305.9 266.9,305.3 267.2,304.8
			267.5,303.8 267.8,303.4 268.5,302.7 270.1,301.9 270.3,301.7 270.5,301.4 271.6,300.6 274.6,299.2 277.2,298.5 277.8,298.5
			278.4,298.6 278.8,298.9 279.5,299.7 280,299.3 280.8,299.1 281.5,299.2 281.7,299.9 282.1,299.2 282.3,298.9 282.5,298.7
			282.6,298.6 283.5,297.8 283.5,297.6 283.5,296.2 283.6,296 283.9,295.8 284.5,295.4 284.1,295.4 283.2,295 283,294.9
			282.9,294.6 282.2,293.3 282.2,292.3 282.7,290.3 282.8,289.2 282.7,288.8 282.3,288 282.1,287.6 282,287.2 282,286.7
			282.2,284.8 283.2,282.4 282.2,282.3 281.3,281.9 280.4,281.2 279.9,280.5 279.5,280 279.2,279.7 278.8,279.4 278.1,279.4
			277.6,279.2 276.4,278.1 274.8,277.4 274.5,277.1 274.4,276.5 274,276 273.5,275.6 273.1,275.3 272.2,275 268.8,274.8
			267.9,274.4 266.7,273.6 265.9,272.6 266.3,271.7 266.3,271.5 265.5,270.6 265.2,269.6 265.3,268.6 265.7,267.5 266.6,265.8
			267.9,264.6 268.3,263.8 268.8,263.4 269,263 268.5,261.9 268.2,260.6 268.1,260.2 268.3,258.9 268.8,258 270.3,256.7 271.3,255
			271.7,254.8 271.9,254.4 272.5,252.4 273.1,251.3 276.6,246.2 278.3,244.6 280.2,243.6 282.2,243.8 282.5,243.9 283.1,243.9
			283.4,244 283.5,244.2 283.6,244.5 283.8,244.8 284,244.9 284.6,244.8 285,244.4 285.5,244.2 286.1,244.4 286,244.6 285.9,244.7
			287.1,244.3 287.6,244.4 287.4,244.9 286.8,245.2 285.5,245 285,245.2 285.6,245.8 285.4,246.4 284.9,246.8 284.3,247.1
			284.6,247.6 285.3,248 286.9,248.5 288.3,249.4 288.8,249.5 289,249.6 289.4,250.1 289.6,250.2 289.9,250.3 290.4,250.2
			290.7,250.2 292.2,251.1 292.6,251.2 301.6,251.7 302.1,251.8 303.4,252.9 303.4,253.1 303,253.1 303.3,253.4 303.5,253.9
			303.6,254.5 303.6,255.1 303.7,255.7 304.1,256.1 304.9,256.7 305.7,257.6 306,258.5 305.8,259.2 304.9,259.8 305.2,260
			305.9,260.2 306.2,260.5 306.3,261.1 306.3,261.4 306,261.7 305.6,261.7 305.6,262 305.9,262.3 307.6,264.9 307.9,265.1
			308.3,265.2 309.2,265.9 310.1,266.7 310.7,267 311.4,267.4 311.7,267.5 312.9,267.5 313.3,267.6 314.6,268.7 314.8,268.8
			315,268.8 315.6,268.9 315.8,268.8 316,268.3 316.2,268.2 316.1,267.9 316.5,266 316.4,265.6 316.3,264.7 316.3,264.4
			316.6,263.6 316.7,262.9 316.8,262.5 317.4,261 318.3,260.3 318.7,259.9 318.9,258.9 319.4,258.5 319.6,258.2 319.6,257.8
			319.5,257.6 		"/>
		<polygon fill="#CE2B37" points="230.5,365.8 230.9,365.7 231.3,365.4 231.8,365.2 232.4,365.1 232.4,364.9 232.3,364.7
			232.4,364.6 232.6,364.4 232.4,364.2 233.4,363.7 233.5,363.6 233.7,363.8 234,364 234.2,363.8 234.1,363.3 233.9,362.9
			233.6,362.8 233.1,362.8 232.9,362.6 232.8,362.2 233,361.9 233.4,362.1 233.5,361.3 233.4,360.8 233,360.6 232.4,360.6
			231.9,360.3 231.5,359.7 231.4,359.2 231.9,359.1 231.9,358.9 231.5,358.7 231.1,359 230.5,358.3 230.2,357.3 230.6,356.6
			230.4,356.2 230.8,356 231,356 231.2,356.3 231.2,356.9 231.4,356.5 231.6,356.1 231.8,356 232.3,356.4 232,355.6 231.6,355
			231.1,354.7 230.2,354.5 230.2,366 		"/>
		<polygon fill="#CE2B37" points="230.2,343.2 230.5,342.2 230.6,341.5 230.7,341.2 231.1,340.8 231.2,340.5 231.1,340.1
			230.8,339.5 230.8,339.1 231,338.6 231.7,337.5 232.4,336.9 232.9,336.2 233.4,335.2 235.8,331.4 238.7,327.7 239.4,325.9
			240.7,323.8 240.3,323.8 240.4,323.3 240.5,322.9 240.9,322.4 242,321.7 242.3,321.7 242.5,321.7 242.6,321.5 242.7,321.2
			241.8,321.1 240.3,320.4 239.4,320.3 239,320.5 237.9,321.5 236.9,322 236.6,322.3 236,322.7 233.9,323.4 233.1,323.5
			232.6,323.5 232.2,323.4 231.8,323.2 231.7,322.8 231.9,321.9 231.8,321.6 231.6,321.6 231.7,321.7 231.6,322 231.6,322
			231.6,322.1 231.7,322.4 230.7,324.3 230.2,325.1 230.2,343.4 		"/>
		<polygon fill="#CE2B37" points="238.3,186.6 238.2,186.7 238.1,186.9 238.1,187.2 238.2,187.3 238.4,187.1 238.6,186.8
			238.5,186.5 238.4,186.5 		"/>
		<polygon fill="#CE2B37" points="231.1,304.2 231.3,304.1 231.4,303.9 231.5,303.7 231.6,303.4 231.7,303.1 231.5,303 231.3,302.9
			231.1,302.9 230.9,302.9 230.8,303.1 230.7,303.2 230.4,303.4 230.3,303.5 230.3,303.7 230.8,304.1 		"/>
	</g>
	<path fill="none" stroke="#999999" stroke-width="0.25" stroke-linecap="round" stroke-linejoin="round" d="M145.8,370.7l-1-1
		l-0.2,0.4h-0.2l-0.2-0.1l-0.2-0.1l-0.1-0.1l-0.3-0.3l-0.2-0.1h-0.1l-0.2,0.2H143l-0.3,0.3l0.1,0.6l0.2,0.5l0.1,0.2l0.6,0.8l0.9,0.7
		l0.9,0.1l0.6-0.9v-0.8L145.8,370.7z M73.8,216l-0.2-0.2h-0.1h-0.1l0,0h-0.1l-0.1,0.1l0.1,0.2v0.1v0.1h0.3h0.2L73.8,216z
		 M74.4,215.7l-0.1,0.1l-0.2,0.1L74,216h-0.1l0.2,0.3l0.1-0.2l0.1,0.1h0.1l0.1-0.1v-0.2L74.4,215.7L74.4,215.7z M73.2,216.7l0.2,0.1
		l0.2,0.1h0.2v-0.4l-0.4,0.1L73.2,216.7z M73.2,218.4l0.1,0.1l0.1,0.1h0.1h0.1l0.2-0.1l0.1-0.5l-0.3-0.1h-0.1h-0.1l-0.1,0.5H73.2z
		 M68.3,218h-0.1l-0.1-0.1l-0.1,0.2l0.3,0.4l0.2-0.1l0.1-0.1l0,0l0.1-0.1L68.3,218z M75,219.6l-0.1,0.1v0.2h0.2l0.1,0.1l0.1,0.1
		l0.3-0.5l-0.2-0.3l-0.1,0.2L75,219.6z M80.4,224.2L80.4,224.2L80.4,224.2l0.1-0.2v-0.1l-0.2,0.1l-0.1,0.1v0.1v0.1L80.4,224.2z
		 M83.4,231.1l0.1,0.4l0.4,0.2l0.1-0.1l0.1-0.3l-0.3-0.3l-0.2,0.1L83.4,231.1z M84.1,229.3L84.1,229.3l-1.6,1.1v0.1h0.1h0.1l0.2,0.1
		l0.2-0.1l1.1-0.8v-0.3L84.1,229.3z M75.8,217.9l-0.1-0.3l-0.1-0.2l-0.2-0.1l-0.2,0.2H75h-0.1l-0.1,0.3l-0.1,0.3l-0.2,0.1l-0.2,0.1
		l-0.1,0.1v0.3l0.1,0.3l0.5,0.1l1.1-0.2v-0.1l-0.1-0.1v-0.2v-0.3L75.8,217.9z M76.1,220.2l0.2-0.1l0.2,0.2l0.2,0.3h0.2l0.1-0.3v-0.2
		l-0.1-0.2l0.2-1v-0.3v-0.2l-0.1-0.3l-0.2-0.2h-0.2l-0.2,0.3l-0.2,0.5l-0.1,0.3l0.1,0.2l-0.3,0.7L76.1,220.2z M45.7,289.8l-0.4,0.2
		l-1.2,0.3l-0.4,0.3l-0.1,0.5l0.2,0.4l0.7,0.7v0.2l-0.1,0.4l0.4,0.2l0.6,0.1l0.4-0.2l0.2-0.5l-0.2-1.4L45.7,289.8z M44.5,224.4
		l-0.5,0.4l-0.3,0.4l-0.1,0.3v0.3v0.3l-0.1,0.3l-0.2,0.3l1,0.1l0.1-0.8v-1l0.6-0.5l1.6-0.3l0.2-0.3l0.1-0.4l-0.1-0.4l-0.3-0.3
		l-0.1-0.2l-0.1-0.2v-0.3l-0.3,0.3l-0.1,0.2l-0.1,0.2l-0.1,0.1l-0.5-0.1H45l-0.1,0.4l0.1,0.5l-0.1,0.4L44.5,224.4z M50.3,294
		L50.3,294l-0.2,0.2h-0.2l-0.1-0.1l-0.1-0.2l-0.3-1l-0.7-0.1h-0.9l-0.7-0.5l-0.4,0.7v0.2h0.2v0.3l-0.1,0.7l0.4,1.1l1,1.7l0.1,0.2
		v0.2l0.1,0.2h0.3l0.3-0.1l0.1-0.1l0.3-0.9l0.2-1.2l0.3-0.5l-0.1-0.3l0.1-0.2l0.5-0.5L50.3,294L50.3,294z M86.3,243l-0.8-0.7
		l-0.1-0.4v-0.3l-0.1-0.2l-0.4-0.1l-0.2-0.1l-0.1-0.3l-0.1-0.4l-0.1-2.2l-0.1-0.5l-0.8-1.7l-0.1-0.6l-0.2-0.5l-0.8-1l-0.2-0.5v0.4
		l-0.3-0.3l0.1-0.3l0.3-0.2l0.4,0.1V233l-0.2-0.5l0.3-0.2l0.9-0.3l-0.4-0.1l-0.3-0.1l-0.3-0.2l-0.2-0.3l-0.3,0.2H82l-0.1-0.2
		l-0.1-0.4l0,0l-1-0.5v-0.2h0.3l0.2-0.1l0.2-0.2l0.1-0.3l-0.5-0.1l-0.4,0.2l-0.4,0.3l-0.5,0.1l-0.2-0.1l-0.5-0.3l-0.3-0.1l-0.3,0.1
		l-0.2,0.1h-0.2l-0.2-0.4h0.2l0,0v-0.2l1.2,0.1l0.4-0.1l-0.1-0.5l0.3-0.5l0.1-0.6l0.1-0.6l0.4-0.2l0.4,0.1l0.4,0.2h0.4l0.3-0.4
		l-0.5-0.3l-0.8-0.3H80l-0.4,0.4h-0.1h-0.1l-0.2-0.2v0.1v0.1v0.1h-0.1l0.1-0.6l-0.1-0.3l-0.3-0.1l-0.5,0.2l0.2,0.5h-0.6l0.3-0.5
		l0.5-2.1v0.2l0.1,0.2l0.1,0.2l0.3-0.4l0.2-0.3l0.1-0.4v-0.4l-0.1-0.1l0,0l0,0v-0.2h-0.2l-0.2,0.2l-0.1-0.1l-0.2-0.2l-0.3-0.2
		l0.2-0.3l-0.2-0.3h-0.1l-0.1,0.2l-0.2,0.1l-0.4-0.1l-0.3-0.1H77l-0.3,0.2l0.2,0.1l0.1,0.1v0.1l0.1,0.2l-0.3,0.2l-0.2,0.3l-0.3,0.7
		l-0.2-0.8v-0.4l0.2-0.3l-0.3-0.3l-0.2-0.3l-0.2-0.3l-0.3-0.1l0.1-0.2l0.1-0.1l0.1-0.1l0.1-0.1v-0.2h-0.3h-0.2l-0.2-0.1l-0.2-0.1
		v0.2l-1-0.9l-0.5-0.2l-0.1,0.9l-0.4-0.3l-0.1-0.2l-0.2,0.1h-0.2l-0.4,0.1v-0.2l0.1-0.2v-0.1l-0.1-0.5h-0.1l-0.1,0.3v0.3v0.2
		l0.1,0.2l-0.3-0.2v-1.2l-0.3-0.5l-0.3,0.1h-0.2l-0.2-0.2v-0.3l-0.5,0.3l-0.6,0.2l-0.5,0.3l-0.2,0.6v1.5l-0.2,0.5l-0.4,0.6l-0.2-0.3
		l-0.8,0.7l-0.3-0.1l-1.8,0.2l-0.5,0.2l-0.4,0.9l-0.4,0.5l-0.5,0.5l-0.3,0.2l-0.2,0.1l-0.3,0.6l-0.2,0.2l-0.3,0.2l-0.9,0.3l0.1,0.1
		l0,0l0,0l0.1,0.1l-0.3,0.3l-1,1.6l-0.5,0.5l-1.6,1.2l-0.4-0.2l-0.5-0.1h-0.7l-1.8,0.9l-0.2,0.5l-0.4,0.5l-0.5,0.5l-2.1,0.9
		l-0.5,0.1l-0.6-0.1l-1.5-0.4l-3-0.4l-0.9-0.5l-1.2-1.6l-0.1-0.4l0.1-0.5l0.1-0.4v-0.3l-0.2-0.3h-0.2H43l-0.1-0.4h-0.2l-0.3,0.4
		l-0.3,0.6L42,229l0.4,0.3l0.5,0.2l0.2,0.5v0.6l-0.2,0.6l-2,4.8l0.3,0.1l0.2,0.2l0.4,0.6l0.2,0.2l0.1,0.1h0.4l0.1,0.1l-0.1,0.2
		l-0.1,0.2h-0.1l-0.1,0.8l-0.3,0.5l-0.4,0.3l-0.5,0.3v0.2l0.2,0.9l0.2,0.5l0.2,0.5l0.1-0.8l0.3-0.7l0.4-0.4L43,240l-0.3,0.5
		l-0.3,0.7l0.5,0.3l1.4-0.8h0.6l0.5,0.6l0.2,0.8l0.1,0.9l0.2,0.7l0.5,0.3l0.4,0.4l0.4,0.8l0.3,0.9l0.1,0.7l-0.3,1.8l0.1,0.7l0.6,0.5
		l0.2-0.3l0.7,0.5l0.6,0.6l0.4,0.8v1.1l-0.5,1.6l0.1,1.8l0.1,0.6l0.5,0.9l0.1,0.5l-0.1,0.5l-0.2,0.5l-0.3,0.4l-0.2,0.2h-0.2
		l-0.5,0.2h-0.8h-0.1l-0.5,0.3l-0.2,0.3l0.1,0.1l0.4-0.2l0.3,0.5v0.4l-0.3,0.7v0.4l0.2,1.3v0.2l-0.1,0.2l-0.1,0.2v0.3l0.1,0.3
		l0.1,0.1h0.1l0.4,0.4l0.3,0.2l0.2,0.3l-0.2,0.4l0.2,0.3l0.3-0.9l0.2-0.3l0.3-0.2h-0.2h-0.2h-0.1l-0.1,0.2l-0.2-0.2l0.7-0.5l0.8,0.1
		l0.8,0.5l0.6,0.7l0.2,0.5v0.4l-0.1,1.1l-0.1,0.5l-0.2,0.6l-0.3,0.6l-0.3,0.3l0.2-0.1l0.2-0.2l0.1-0.2l0.1-0.2h0.2l-0.3,0.4L51,270
		l-0.4,0.6l-0.1,0.6l0.3,0.3l1.4,0.4l-0.7,0.2l-0.6-0.2l-0.5-0.5l-0.8-1.3l-0.2-0.2l-0.4-0.1l-0.1,0.2l0.1,0.9l-0.1,0.3v0.2l0.1,0.4
		l0.1,1.6l0.3,1.5v0.7l-0.2,0.5l0.2,0.3l-0.3,0.6l-0.4,1.1l0.1,0.8l-0.7,0.9l-0.2,0.4v0.1l0.1,0.1l0.4,0.9v0.3l-0.1,0.5l-0.2,0.3
		l-0.5,0.6l-0.1,0.3l0.2,0.7l0.9,0.7v0.5L49,286l-0.2,0.6l-1.3,1.6l-0.1,0.3v0.3l0.2,0.5l0.1,0.1h0.2l0.2,0.1l0.1,0.4v0.3l0.1,0.2
		l0.1,0.2l0.2,0.1l-0.1-0.3l0.2-0.1l0.3,0.1l0.2,0.2l0.1,0.4v0.8l0.1,0.4l0.3-0.2l0.3,0.2l0.2,0.4l0.1,0.6l0.1,0.2v0.1l0.6-0.4
		l0.4,0.3l-0.2,0.5l-0.1,0.2l0.4,0.1l0.6,0.3l0.2-0.2h0.2l0.3,1.5l0.2,1.8l0.6-0.1l0.3,0.6v0.8l-0.4,0.6v0.2l0.4,0.1h0.5l0.3,0.2
		l-0.2,0.6l0.2,0.2l0.4-0.2l-0.1-0.7l0.5-0.7l0.7-0.5l0.6-0.2l0.6,0.1l0.7,0.4l0.7,0.5l0.4,0.7v-0.7l0.6,0.6l0.4,0.3l0.3,0.1
		l0.2-0.1l0.3-0.5l0.1-0.1h0.3l0.2-0.1l2.7-2.8l0.2-0.4l0.2,0.2h0.1l0.3-0.2h-0.3l0.3-1.2l0.4-0.7v-0.3l-0.2-0.2l-0.2-0.2l-0.2-0.6
		l-0.1-0.4l-0.1-0.7l0.1-0.8l0.2-0.7l0.3-0.5l1.1-1.1V289v-0.3l-0.1-0.2l-0.7,0.2l-0.3-0.1l0,0l-0.1-0.2l-0.2-0.1l-0.2-0.2l0.1-0.3
		v-0.3l-0.3-0.2v-0.1h0.3l0.4,0.1l0.2,0.2l0.2,0.3l0.2,0.2l0.2-0.2l1.1,1.3l0.6,0.6l0.8,0.3l0.1-0.2l0.3-0.5l0.4-0.5l0.5-0.2l1,0.1
		l0.5,0.2l0.4,0.2l0.2-0.3l0.2,0.2l0.3,0.2l0.4,0.2l0.3,0.1l0.2,0.2l0.6,0.7l0.3,0.1l0.2,0.1l0.7,0.8l0.5,0.3l0.2,0.2l0.1,0.3h0.2
		l0.4-0.3l0.4-0.1l0.4,0.1l0.4,0.3l-0.1,0.3v0.2l0.1,0.1l0.2,0.1l0.1-0.7l0.5-0.3l0.5-0.2l0.2-0.3l0.1-0.3l0.3-0.7l0.1-0.3l-0.1-0.2
		l-0.2-0.2l-0.1-0.2l0.2-0.3l-0.1-0.8l0.4-1l0.7-0.8l0.7-0.3v-0.2l-0.6-0.5l-0.2-0.3l-0.1-0.5v-0.5l0.3-1.5l0.7-1.8l0.2-1.1
		l-0.4-0.6l0.7-2.3l0.1-1l-0.2-1.5l0.1-0.5l0.1-0.4l0.1-0.3l0.1-0.2l0.1-0.5l0.3-0.6l0.1-0.4v-0.5l-0.1-0.9v-0.4V269l0.1-0.9
		l0.2-0.7l0.3-0.4v-0.2l-0.1-0.1l-0.1-0.1l-0.1-0.1v-0.2h0.2l-0.2-0.4v-0.4l0.1-0.4l0.2-0.4l0.1-0.1h0.2l0.2-0.1l0.1-0.3l-0.1-0.2
		h-0.2l-0.2,0.1l-0.2,0.1l-0.3-1l0.2-1.1l1-2.6l0.1-0.5l-0.6-0.4l-0.6-0.8l-0.2-0.2l-0.4-0.2l-0.3-0.5l-0.6-1.8l-0.1-0.3l-0.1-1.5
		v-0.5l0.2-0.7l0.3-0.5l0.7-0.6l0.3-0.4l0.5-1l0.3-0.5l0.4-0.2l0.6-0.2l0.3-0.5l0.4-1.3l0.6-1l0.2-0.5l0.1-0.8l0.1-0.4l0.3-0.6v-0.4
		L86.3,243z M221.5,312.2v-0.3l0.2-0.4l0.1-0.2l0.1-0.1l-0.3-0.4l-0.4-0.1h-1l-0.6,0.4l0.8,0.7L221.5,312.2z M224.2,315.8l-0.4,0.7
		l0.1,0.5l0.4,0.5l0.6,0.6l0.3-0.2l0.2-0.2l-0.2-0.5l-0.2-0.4l-0.3-0.3l-0.4-0.2v-0.5H224.2z M224.1,312.8h-0.9l-0.4,0.2l-0.2,0.6
		v0.6l0.2,0.3l0.4,0.2l0.3,0.3l0.4,0.3l0.5-0.1v-0.3l-0.1-0.1l-0.1-0.2l-0.1-0.4h0.7V314l-0.1-0.1l-0.2-0.3l-0.2-0.1l0.2-0.5
		L224.1,312.8z M153.8,332.8l-0.4-0.3l-0.2-0.2H153l-0.2,0.1l-0.3,0.1h-0.4l0.1,0.4l0.2,0.3l0.3,0.1l0.4-0.2l0.3,0.2l0.4,0.2h0.4
		l0.3-0.4l-0.4-0.1L153.8,332.8z M231.1,304.2l0.2-0.1l0.1-0.2l0.1-0.2l0.1-0.2l0.1-0.3l-0.1-0.1l-0.2-0.1l-0.2-0.1L231,303
		l-0.1,0.2l-0.1,0.1l-0.3,0.1l-0.2,0.2v0.1l0.5,0.5H231.1z M176.3,307l0.6-0.5v-0.1l-0.3-0.2h-0.4l-0.3,0.3l-0.1,0.3v0.3l0.3,0.1
		L176.3,307z M213.8,311.6h0.3v-0.1l-0.1-0.2l-0.1-0.4l-0.3-0.3l-0.5-0.1H213v0.4l0.2,0.4L213.8,311.6z M208,311.8l-0.4,0.1l0.1,0.4
		l0.4-0.1L208,311.8z M146.7,331.6l-0.2-0.6l-0.3-0.2h-0.5l-0.1,0.2l0.2,0.4l0.3,0.4l0.5,0.3h0.4v-0.3L146.7,331.6z M240.5,322.9
		l0.4-0.5l1.1-0.7h0.3h0.2l0.2-0.2l0.1-0.3l-1-0.2l-1.5-0.7l-0.8-0.1l-0.4,0.2l-1.1,1l-1,0.5l-0.3,0.3l-0.6,0.4l-2.1,0.7l-0.8,0.1
		h-0.5l-0.4-0.1l-0.3-0.2l-0.1-0.4l0.2-0.8l-0.1-0.3h-0.2l0.1,0.1l-0.1,0.3v0.1v0.1l0.1,0.3l-1,2l-0.7,0.9l-1.5,0.5l-0.5,0.3
		l-0.5,0.2l-0.5-0.1l-0.2-0.1l-0.3-0.4l-0.1-0.1h-0.3h-0.8l-0.7-0.2h-0.3l-0.2-0.1l-0.5-0.6l-0.3-0.1l-0.8-0.1l-0.3,0.1l-0.3,0.1
		l-0.4,0.2l-2,0.5h-0.5l-0.9-0.1l-0.3,0.1l-1,1.2l-0.8,0.7l-0.9,0.6l-3.3,1.3l-1.3,0.2l-0.9-0.4l-1.3,0.7l-1.4,0.4l-1.6,0.1
		l-3.3-0.5l-0.8,0.2H201l-0.6-0.1l-0.6-0.2l-1.1-0.7l-0.3,0.4l-1.8,0.3l-0.4,0.2l-0.3,0.3l-0.4,0.3l-1.1,0.3l-1.2,0.6l-0.6,0.1
		l-1.7-0.2h-0.6l0.1-0.1l0,0l0.1-0.1l-0.4-0.2l-1.2-0.3l-0.8-0.5l-0.9-0.8l-0.8-0.3l-0.3-0.2l-0.2-0.4v-0.3v-0.6l-0.7-0.6l-3.3,0.3
		l-0.4-1l-0.1-0.3v-1.1l-0.2-0.2l-1-0.7l-0.1-0.2v-0.2l-0.1-0.2l-0.1-0.1h-0.2l-0.4,0.2l-0.5,0.1l-0.3,0.2l-0.3,0.1l-0.4-0.2
		l-0.2,0.8l-0.6,0.3h-0.7l-0.6-0.1l-0.9-0.4l-0.3-0.1l-0.3,0.1l-0.3,0.2l-0.2,0.3l0.2,0.3l-0.9,0.8l0.1,0.3l0.3,0.3l0.1,0.3v0.4v0.2
		v0.1l-0.2,0.3l-0.9,0.7l-2.2,1l-1.2,0.2l-0.8-0.5v-0.3l-0.3-0.3l-0.8-0.4l-0.3-0.3l-0.7-1.3l-0.7-1.5l-0.1-0.6H165h-0.3l-0.2-0.4
		l-0.3,0.6l0.1,0.9v0.8l-0.6,0.5h-0.3l-0.4-0.1h-0.4l-0.2,0.3l-0.1,0.5l-0.3,0.4l-0.8,0.6l-0.9-0.3l-0.7,0.6l-0.7,0.8l-0.8,0.3
		l0.3,0.3v0.5l-0.2,0.6l-0.2,0.9l-0.6,1.3l-0.1,0.1l0,0v0.2l0.1,0.3l0.2,0.4l0.1,0.2v0.3l-0.1,0.6h-0.1l-0.2,0.9l0.1,0.1l-0.1,0.1
		l-0.4,0.2v-0.1l-0.5,0.2v0.4l0.2,0.5l0.3,0.4l0.2,0.4l0.1,0.4v0.4l0.1,0.5l0.3,0.6l0.4,0.7l0.5,0.6l0.5,0.2h1.1l0.4,0.2l0.5,0.5
		l1.1,1.9l0.6,0.6l1,0.1l2.2-0.4l2.2-0.1l2.2,0.3l0.8,0.4l0.7,0.7l0.1,0.3l0.2,0.7l0.2,0.3l0.3,0.1l0.3-0.1l0.4-0.2l3.3,0.5l0.1,0.1
		l0.3,0.5l0.2,0.1l0.3,0.1l0.2,0.2l0.3,0.4l0.6,0.3l0.2,0.1l0.7,1.3l0.3,0.1l0.3,0.1l0.3,0.2l0.5,0.5l1.1,0.7l1.3,1.1l0.8,0.5l1,0.3
		l1.2,0.2l0.9,0.3l0.8,0.6l2.3,2.3l0.9,0.6l1,0.4l1.1,0.2l1,0.4l1.7,1.3l1.2,0.2l0.3-0.1l0.5-0.3l0.2-0.1l3-0.3l1,0.2l2.2,1l1.9,1.2
		l2.4,2.4l0.7,0.9l2.2,4.7l0.3,0.4l2.1,0.5l0.4-0.1l0.5,0.3l1.6,0.6l0.3,0.3l0.4,0.6l1.6,0.2l0.4,0.4l0.3-0.1l0.1,0.1l0.1,0.3
		l1.8-0.9l0.9-0.1l1,0.4l1,0.7l0.7,0.3l0.3-0.2l0.1-0.2h0.2l0.4,0.1l0.3,0.2l0.2,0.2l0.4,0.5l0.5,0.4l0.5,0.1l0.5-0.2l0.5-0.5v-0.4
		l-0.5-2l-0.5-1.1l-0.2-0.5l0.3-0.3v-0.4l1.4-3.5l0.4-0.7l0.6-0.3l0.4-0.1l0.4-0.3l0.5-0.2h0.6v-0.2l-0.1-0.2l0.1-0.1l0.2-0.1
		l-0.2-0.2l0.9-0.5l0.2-0.1l0.1,0.2l0.3,0.1l0.2-0.1l-0.1-0.5l-0.2-0.4l-0.2-0.1L233,363l-0.2-0.2v-0.4l0.2-0.3l0.4,0.2l0.1-0.8
		l-0.1-0.5l-0.4-0.2l-0.6-0.1l-0.5-0.3l-0.4-0.6l-0.1-0.5l0.5-0.1v-0.3l-0.4-0.2l-0.4,0.3l-0.6-0.7l-0.3-1l0.4-0.7l-0.2-0.4l0.3-0.2
		h0.3l0.2,0.3v0.6l0.2-0.3l0.2-0.4l0.3-0.1l0.4,0.4l-0.3-0.8l-0.4-0.6l-0.5-0.3l-1-0.2l-1.9-1l-0.2-0.3l-0.2-0.5l-0.1-0.6l-0.1-3.3
		l0.1-0.6l0.1-0.6l0.5-0.9l1.3-1.5l0.4-1.2l0.2-0.7l0.3-1l0.1-0.7l0.1-0.3l0.4-0.4l0.1-0.3l-0.1-0.4l-0.3-0.6l-0.1-0.4l0.2-0.5
		l0.8-1.2l0.7-0.6l0.5-0.7l0.5-1.1l2.4-3.8l2.9-3.7l0.7-1.8l1.3-2.2h-0.4l0.1-0.5L240.5,322.9z M88.7,138.3l-0.1,0.1h-0.1l-0.1,0.4
		l0.4,0.2l0.2-0.3v-0.3l-0.1-0.1L88.7,138.3z M120.7,181.5l-0.1,0.1h-0.2v0.1v0.2l0.1,0.2v0.1l0.3,0.2v-0.3l-0.1-0.3h0.1h0.1
		l0.1,0.1v-0.3L120.7,181.5z M173.3,227.5h-0.2l-0.1,0.3l0.1,0.1h0.2V227.5z M167.6,229v0.2v0.1l0.3-0.2v-0.3v-0.3l-0.1-0.1
		l-0.1,0.1l0.1,0.1l-0.1,0.1L167.6,229z M198.4,235.7L198.4,235.7l0.1-0.1l0,0l0.1,0.3l0.2,0.1l-0.1-0.4l0.2-0.1h0.2l-0.1-0.2
		l0.1-0.1h0.1h0.1l-0.1-0.2l-0.3-0.1l-0.1-0.1h-0.1l-0.1,0.2l-0.1,0.1l0.1,0.1l-0.1,0.3L198.4,235.7z M155.6,62.8l-0.1,0.2l-0.2,0.1
		l-0.4,0.1l0.3,0.3l0.3-0.1l0.3-0.3l0.3-0.5l-0.1-0.2L155.6,62.8z M238.4,187.1l0.1-0.3l-0.1-0.3h-0.1l-0.1,0.1l-0.1,0.1l-0.2,0.2
		v0.3l0.2,0.1L238.4,187.1z M171.1,229.2l0.3-0.2l-0.1-0.1h-0.2L171,229l-0.1,0.1h-0.1v0.1v0.1v0.1l-0.3,0.1l-0.2,0.1l-0.2,0.6
		l0.2,0.2v0.2v0.2l0.1,0.1h0.2l0.2-0.2l0.1-0.2v-0.1l-0.1-0.1l-0.1-0.2l0.2-0.6L171.1,229.2z M205,242.8l0.2-0.1l0.2-0.3l-0.1-0.1
		l-1-0.1h-0.2l-0.3,0.1l-0.1,0.6l0.3,0.1l0.8-0.2H205z M194.6,236l-0.2,0.7l0.3,0.3l0.6,0.3l0.2,0.2l0.4-0.2l0.4-0.2h0.4l0.3,0.1
		l0.4-0.4l0.2-0.1l-0.1-0.3v-0.2l0.1-0.2l-0.5-0.4l-1.7-0.6h-0.6l0.1,0.4l0.1,0.1l-0.2,0.2L194.6,236z M115.5,177.3l-0.3-0.3
		l-0.3-0.2l-0.2,0.2l-0.2,0.4l-0.2,0.4l0.3,0.2l1,1.2l0.3-0.3l0.1-0.2l0.1-0.2l-0.3-0.3L115.5,177.3z M183,233.7l-0.2,0.2l-0.1,0.3
		l0.3-0.2l0.1-0.4L183,233.7z M93.6,169.4l-0.1-0.3l-0.1-0.4h-0.1l-0.2,0.5l-0.3,0.3l-0.3,0.1l-0.1,0.3l0.2,0.2l0.4,0.1h0.4l0.3-0.2
		l0.1-0.3v-0.1v-0.1L93.6,169.4z M99.1,178.5l-0.1,0.6l0.5,0.1l0.1-0.6l-0.3-0.4L99.1,178.5z M86.9,152.5l-0.1-0.1v-0.1l-0.4-0.6
		l-0.4,0.4l-0.5,1.2L86,154l0.5-0.1l0.4-0.6l0.3-0.9L86.9,152.5L86.9,152.5z M102.8,160.6l0.2-0.3l-0.1-0.4l-0.2-0.3l-0.2-0.2
		l-0.3-0.1l-0.3,0.2l-0.2,0.4l-0.3,0.9l-0.2,0.2l-0.2,0.2l-0.2,0.2l-0.1,0.3l-0.2,0.1h-0.4l-0.3-0.2l0.1-0.5h-1l-0.5-0.1v0.3
		l-0.3,0.3l0.1,0.1l0,0l0,0v0.2h-0.6h-0.5l-0.3-0.1l-0.6-0.3l-0.3-0.1h-0.6l-0.7,0.2L94,162l-0.3,0.6l0.1,1l0.5,0.5l0.6,0.2l2.2,0.1
		h0.2l0.1-0.2l0.1-0.6l0.5,0.5l1.1-0.6l0.3,0.6l0.3-0.8h0.3l0.4,0.3l0.3,0.2l0.1,0.1l0.3,0.7l0.1,0.2l0.3,0.2h0.3h0.2l0.1,0.3
		l0.4-0.5l-0.2-0.7l-0.5-0.6l-0.5-0.2l0.5-0.2l0.4-0.3l0.3-0.4l0.2-0.6l-0.2-0.4V161L102.8,160.6z M319.5,257.6l-0.1-0.3l0.1-0.4
		l-0.2-0.1l-0.1-0.2l-0.1-0.2l-1.7-4l-1.8-2.5l-0.2-0.2l-0.5-0.2l-0.4-0.5l-0.7-1.2l-0.9-0.7l-0.3-0.3l-0.5-0.9l-0.2-0.1l-0.5-0.1
		l-2.5-1.4l-2.2-1.8l0.1-1.6l-0.1-0.2l-0.6-0.6l-0.1-0.4v-0.3l-0.1-0.2l-0.4-0.1l-0.7,0.2h-0.3v-0.8l-0.9-0.4l-2.1-0.4l-2.6-1.9
		l-2.8-1.1l-0.3-0.2l-2.3-0.6l-1-0.6l-0.6-0.2l-0.4-0.2l-1.7-1.8l-1-0.7l-0.4-0.1l-0.4-0.2l-1-1.5l-0.9-0.9l-2-1.4l-3.9-2.2
		l-4.6-1.5L275,222h-0.2v0.3h-0.2l-0.6-0.5l-6.3-2.2l-1.1-0.7l-0.4-0.4l-0.5-0.4l-1.6-0.5l-4.3-2.3l-5-2.3l-0.4-0.4l-0.4-0.3
		l-1.7-0.5l-1.6-1.1L250,210l-0.6-0.8L249,208l-0.1-1.4l0.2-1.3l0.7-0.9l2.7-1.4l1-0.8l0.7-0.9l0.5-0.4l0.6-0.2l0.5-0.2l0.6-0.5
		l0.5-0.6l0.2-0.4v-1.1v-0.5l-0.2-1.3l-0.2-0.7l0.1-0.6h-0.5l-0.6-1l-0.8-0.2v-0.1l-2.3-0.6l-6.8,0.8l-4.4-0.3l-4.4,0.8h-1.2
		l-3.2-0.7h-3.1l-1.1-0.2l-0.5-0.3l-1.1-0.8l-0.5-0.2l-0.3-0.2l-0.7-1l-0.4-0.3l-1.1-0.4l-2.2-0.4l-1-0.4l-1-0.8l-0.5-0.3l-0.6-0.1
		l-0.4-0.2l-0.3-0.5l-0.2-0.7l-0.2-1.5l-0.2-0.6l-0.4-0.4l-1.1-0.2l-1.5-0.6l-1-0.6l-3.5-3.5l-1.1-1.8l-0.8-0.7l-1.9-1.3l-1.7-1.5
		l-3.9-4.7l-0.2-0.4l-0.2-0.6l-1.7-2.7l-0.6-1.2l-1-2.5l-2.1-7.6l-0.4-3.1l-0.4-1.3l-0.9-1.9l-0.3-0.5l-0.1-0.3l-0.2-1.3l-0.1-0.3
		l-0.4-0.7l-3.8-9.8l0.2-0.6l-0.2-0.5l-0.5-0.3l-0.5-0.1l-0.3-0.3l-0.3-0.6l-0.4-0.6l-0.5-0.3l-0.1-0.1v-0.2l-0.1-0.2l-0.2-0.1h-0.2
		l-0.1,0.1l-0.1,0.1h-0.1l-0.1,0.1l-0.2,0.3l-0.3,0.2l-0.7-0.4l-1.3-0.4l-0.3-0.3l-0.5-0.2l-3.1-1.9l-8.2-7.2l-0.2-0.3l-0.3-0.4
		l-1.8-0.7l-1.1-0.9l-0.5-0.3l-1.3-0.2l-1.2-0.4l-0.5-0.3l-0.8-0.7l-0.8-0.8l-1.5-2.1l-0.7-0.3l-1-0.8l-0.9-0.9l-0.5-1l-1.1-1.1
		l-0.7-1l-0.6-1l-0.5-1.4l-0.2-0.7l-0.1-0.8l-0.1-0.2l-0.4-0.5l-0.1-0.2l-0.1-0.3l-0.1-1l-0.8-3.8l-0.1-1.7l0.2-2.7l-0.1-0.4
		l-0.2-0.3l-0.3-0.6l-0.3-1.2l-0.2-1.6l0.2-1.5l0.7-2.6h-0.4v0l0.7-0.6h0.3l0.5,0.3l0.7,0.7l0.3,0.4l0.5,0.5l0.6-0.1l0.5-0.4
		l0.2-0.6h-0.2l-0.3-0.2H155v-0.3l0.3-0.1l0.2-0.3v-0.3l-0.7-0.3v-0.4l0.3-0.6l0.1-0.2l0.2-0.3l0.3-0.2L156,84l0.1,0.4l-0.1,0.5
		l-0.4,0.9l0.2,0.3l0.2,0.4l0.1,0.4v0.2l0.8-1l0.4-0.6l0.1-0.6l0.1-1.2l0.1-0.4h0.2h0.2l0.1-0.2l0.1-0.2l0.2-0.4l-0.1-0.3l0.3-0.4
		v-0.3l-0.2-0.4l-0.3-0.3l-0.4-0.2h-0.4v0.3h0.1h0.2h0.1l-0.3,0.3l-0.6-0.6l-0.5-0.7l-0.3-0.2l-0.2-0.2l-0.4-0.5l0.1-0.4l-0.3-0.3
		l-0.5-0.2l-0.4-0.3l0.3,0.5l0.2,0.5l-0.1,0.5l-0.4,0.6l-0.4-0.5l0.2-0.1l0.1-0.1l0.1-0.1h0.2v-0.2l-0.4-0.5l-0.3-0.6l-0.3-0.5
		l-0.5-0.5l0.1,0.3v0.1l0.1,0.1l-0.6,0.1l-0.3-0.4v-0.7l0.3-0.8v0.2v0.4v0.3l0.3,0.2l0.3,0.1l-0.2-1.4V74l-0.2-0.5l-0.3-0.5
		l-0.2-0.6l0.3-0.6l-0.3,0.2l-0.6,0.6l-0.4,0.3l0.1,0.1l0,0l0.1,0.1H151l-0.5-0.3l-0.2-0.5l0.1-0.5l-0.3-0.2l-0.1-0.2l0.1-0.2
		l0.3-0.1l-0.1-0.7v-0.5l-0.1-0.4l-0.5-0.2l0.1,0.4l-0.1,0.5l-0.2,0.4l-0.3,0.2l-0.3-0.2l-0.2-0.8l-0.3-0.3l0.1-0.8l0.2-0.1l0.3,0.2
		l0.4,0.2l0.6-0.1l0.2-0.3l0.1-0.4l0.3-0.5l-0.2-0.5l0.1-0.1h0.3L151,67l0.1-0.4v-0.3l0.1-0.3l0.3-0.4l-0.3-0.3l-0.1-0.3l0.1-0.4
		l0.2-0.3h-0.2v-0.2l0.5-1l1-1l1.1-0.6h0.9l-0.1,0.4L155,62l0.5-0.1l0.3-0.2v-0.2l-0.9-0.4l-0.2-0.3l0.3-0.6l0.2,0.8h0.2l0.2-0.2
		l0.5,0.4h0.4V61l-0.3-0.5l0.4-0.7l0.7-0.6l0.6-0.3l0.1,0.5l0.2,0.3l0.5,0.5h0.2l0.7-0.5l0.3-0.1l-0.2,0.5l-0.3,0.3l-0.4,0.2
		l-0.5,0.1l-0.2,0.3v0.5l-0.1,0.5l-0.6,0.1v-0.3h0.3h0.1l0,0l-0.1-0.1l-0.1-0.1v0.1v-0.1l-0.3,0.1h-0.3h-0.3l0.4,0.5l-0.2,0.2H157
		l-0.1-0.2l-0.1-0.3h-0.2v0.3l-0.1,0.2l-0.2,0.1H156l0.1,0.3l-0.2,0.4l-0.3,0.5l-0.2,0.6l0.4-0.1l0.7-0.5l1-0.2l0.2-0.1l0.5-0.4
		l2.7-1l4.5-2.2l4.4-2.9l1-0.2l2.1-0.1l0.7-0.2l0.3-0.4l0.2-0.6l0.9-0.8l0.3-0.6l-1,0.5l-0.5,0.1l-0.4-0.3l-0.2-0.6l0.3-0.5l0.5-0.3
		h0.6v-0.3l-0.3-0.2l-0.1-0.4l0.1-0.4l0.2-0.2l0.3,0.1L175,52l0.3,0.1l0.2-0.1l0.3-0.5l1-0.3h0.3l0.2,0.1l0.6,0.7l0.2,0.1l2.6,0.6
		l0.5-0.2l0.3,0.6l1.1,0.2l0.2,0.7l-0.2,0.3l-0.4,0.3l-0.5,0.2l-0.4,0.1l0.7,0.3l0.7-0.2l0.6-0.5l0.5-0.5l0.3-0.2l0.7-0.1l0.1-0.3
		l0.1-0.2l1-0.5l-0.7-0.1l-0.1-0.8l0.3-0.8l0.4-0.4l0.6,0.1l1.5,0.7l0.5,0.4l2.1,2.2l0.3,0.5l0.4,0.7l0.1,0.7l-0.5,0.2l1,0.5
		l0.3,0.4l0.2,0.3l0.3,0.1l-0.6,0.1l-0.8-0.1h-0.7l-0.3,0.5l-0.2,0.3l1.3-0.1l1.1,0.6l1.3-0.1l1.1-1.3l0.2-0.5v-0.1h-0.2l-0.4-0.2
		l-0.3-0.3l-2.1-3.6l-1.9-0.8l-1.3-1l-0.4-0.1l-0.9-0.1l-0.7-0.4l-0.4-0.8l0.1-1.3l1-2.4l0.4-1.5l-0.5-0.7l-0.9,0.2l-0.9,0.4
		l-0.8,0.1l-0.7-0.8l0,0l0,0l0,0l0,0l-0.1-0.1l-0.3-0.4l0.4-0.4l0.1-0.1l0.2-0.3l0.1-0.3l-0.1-0.3l-0.2-0.2l0.6-0.8l3-2.3l0.8-1.4
		l-0.2-0.7l-0.6-0.1l-0.8,0.1l-0.7-0.1l-0.8-0.8l-0.5-0.4l-0.7-0.2l-0.4-0.2l-0.8-0.1l-0.4-0.1l0.4,0.7l-0.7,0.1l-0.2-0.3l-0.1-0.5
		l-0.4-0.5l0,0l-0.2-1l-0.2-0.5l-0.2-0.4l0.7-0.4l0.5-0.9l0.4-0.8l0.3-0.3h0.4l0.3-0.2l0.6-0.5l1.2-0.7l0.7-0.7l0.6-0.8l0.7-0.6
		l0.9-0.1h0.7l0.5-0.3l0.3-0.6v-1l0.2-0.2l0.1-0.2v-0.3v-0.3l-0.4,0.1h-0.4l-3.2-1.1h-1.1l-0.2-0.1l-0.4-0.4l-0.2-0.1l-1.6,0.1
		l-1.2-0.2l-2.7,0.6l-1.1-0.9l-0.6-0.2l-1.7-1.1l-2.2-0.5l-6.3-0.4l-1.5-1l-0.9-0.3h-0.2l-0.4,0.2h-0.3l-0.3-0.1l-0.5-0.4l-0.3-0.1
		l-1.3-0.1l-1.6,0.2h-0.4l-0.4-0.2l-0.8-0.6l-1.4-0.3l-1.1-0.4l-0.9-0.8l-0.5-1.3l-0.2-0.9l-0.4-0.3l-0.6-0.1l-0.6-0.2l-0.3-0.2
		l-0.2-0.2l-0.1-0.3v-0.5l0.1-0.5L152,10l0.1-0.3V9.2l-0.3-0.8l-0.4-0.3h-1.1L149.9,8l-0.1-0.1l-0.1-0.3l-0.3-0.3l-0.3-0.2L148.5,7
		l-0.3-0.1l0.4-0.4V6.1l-0.2-0.4l-0.2-0.4L148,4.4L147.9,4l-0.2-0.4l0.3-0.7l1.6-0.9l0.6-0.8v-1L149.6,0l-1.7,0.3l-2.7,1.4l-1.9,0.1
		l-1.2,0.4L141,2.8l-0.9,0.7l-1.3,0.4l-0.3,0.2L138,4.5l-0.3,0.1l-0.5-0.2l-0.9-0.6l-0.5-0.1h-0.2h-0.2l0,0l0,0L134,3.4l-0.6,0.1
		l-0.8,0.2l0,0l-0.3,0.1H132h-0.2l-0.2-0.1l-0.1-0.2l-0.2-0.1l-0.2-0.1l-0.5-0.1l-0.3,0.1l-0.2,0.2l-0.2,0.3l0,0L129,4.7h-0.8
		l-0.8-0.4l-1-0.2l-1.9,0.3L122.6,5l-0.5,0.3L120.4,7l-0.2,0.5l-0.3,1.4l-0.5,1.2v0.2v0.4v0.2l-0.1,0.1l-0.3,0.1l-0.1,0.1l-0.6,1
		l-0.4,0.4l-0.4,0.1l-0.5-0.2l-0.9-0.1l-0.5,0.1l-0.9,0.3h-0.3l-0.3-0.1l-0.5-0.4l-0.2-0.1h-0.3l-0.5,0.1h-0.3l-0.8-0.4l-0.3-0.1
		l-0.6,0.2h-0.3l-0.2-0.3l0.1-0.2l0.6-0.5l0.1-0.3l-0.3-0.4l-2.1-1.2L108.1,9l-0.5,0.1l-2.7,0.7l-1.1-0.1L102.9,9l-0.1,1.3l-0.1,0.4
		l-0.2,0.3l-0.6,0.7v0.6l0.2,0.6l0.1,0.5l-0.3,0.5l-0.5,0.3l-0.1,0.4V15l-0.1,0.6l-0.3,0.5l-0.3,0.3l-0.1,0.4l0.2,0.8l0.5,0.6
		l1.1,0.1l0.6,0.5l0.2,0.7v1l-0.2,1l-0.4,0.6l-0.5,0.1l-1.9-0.5l-0.9,0.1l-0.3-0.1l-0.3-0.1l-0.2-0.2l-0.1-0.2L98.1,21L97,20.6
		l-0.1-0.4l0.1-0.8V19l-0.4-0.3h-0.7l-2.5,0.7l-0.3,0.1L93,19.8l-0.3,1.3l-0.2,0.3L91.9,22l-0.2,0.3v0.3v0.8l-0.1,0.4v0.4l0.1,0.3
		l0.1,0.2l0.2,0.2l-0.5,0.8l0.4,0.5l0.8,0.3l1.2,0.2l0.5,0.2l0.2,0.4l-0.2,0.8l-0.2,0.3l-0.6,0.5l-0.2,0.4l-0.1,0.5v0.3l0.1,0.3
		l0.3,0.4l1.1,1.1l0.3,0.7l-0.4,0.7L94,33.8l-1.1,0.4H92v-0.9l-0.3-0.7l-1.1-0.9l-0.4-0.5L90,30.4v-0.8L89.8,29l-0.7-0.4l-0.6-0.1
		H88l-1.2,0.2L85,29.6l-0.6,0.2l-0.3-0.1l-0.7-0.4h-0.3l-0.3,0.3L82.7,30v0.4v0.3l-0.4,0.6l-0.5,0.2h-3.1l-0.6-0.2l-0.6-0.4l0.3-1
		l-0.5-1.4l-0.2-0.2L76.5,28l-0.2-0.2l-0.1-0.2V27L76,23.3l-0.1-0.2h-0.2l-0.4,0.3l-0.2,0.2L75,23.9l-0.1,0.2l-0.3,0.1l-0.2-0.1
		l-0.7-0.7v-0.5l-0.5-0.1L71.9,23l-0.5,0.5l-0.5,0.9l-0.2,0.9l0.3,0.5l0.4,0.2l0.1,0.4l-0.1,0.5v0.6l0.4,1.4v0.5l-0.2,0.8l-0.8,1.6
		l-0.4,1.4l-0.2,0.4l-0.3,0.3l-0.3,0.2l-0.3,0.2l-0.1,0.4l-0.1,0.4l-0.2,0.4L67,36.8l-0.5,0.7L66.4,38l0.1,0.9l-0.1,0.5l-0.2,0.4
		L65.9,40l-0.6,0.2l-0.7,0.5l-0.1,0.4l0.5,1.3l-0.9,0.8L64,43.3v0.1v0.1l0.1,0.1l0.3,0.3l0.2,0.7l0.2,0.4l0.3,0.1l0.6,0.1l0.3,0.2
		l0.3,0.6l-0.1,0.7L65.5,48l-0.9,1.1l-0.8-0.2l-0.9-0.4l-1.1,0.3l0.1-0.6l0.2-0.5l0.1-0.5v-0.7L62,46l-0.2-0.5l-0.5-0.8L61,44.1
		l-0.2-0.2l-0.2-0.1L59.1,43l-0.4-0.1h-0.5v-0.1l0.1-0.2l0.5-1.1l0.8-0.9l0.4-0.9l-0.7-0.9l-0.4-0.1h-0.8l-0.4-0.1l-0.2-0.1
		l-0.2-0.4L57.1,38l-0.2,0.1l-0.4,0.4l-0.2,0.1h-0.5l-1.3-0.7L54,37.7l-0.3-0.1L52,35.1l-0.8-0.8l-0.7-0.4l-0.7-0.3l-0.5-0.4
		L49,32.6l-0.1-0.9l0.1-1l0.4-2l0.1-1.1v-1.2l-0.1-0.9L49,25l-0.8-0.1l-1.5,0.3L46,25.6l-0.6,0.6l-0.2,0.5l0.1,0.2l0.2,0.1v0.4
		l-0.2,0.4L45,28.1l-0.3,0.2l-0.8,0.4l-1.3,1.7l-0.5,0.4l-1.2,0.3l-0.6,0.3l-0.5,0.5l-0.3,0.4l-0.1,0.3l0.1,0.1l0.6,0.5l0.8,1.5
		l0.1,1.4l-0.6,1.3l-1.2,1l-0.3,0.1l-0.6,0.1L38,38.8l-0.2,0.4l-0.1,0.4V40l-0.1,1.1l-0.1,0.1l-0.3,0.6v0.1l-0.3,0.4l-0.2,0.2
		l-0.3,0.1L34.5,43l-0.7,0.5l-0.6,1.2l-0.1,0.4v0.2L33,45.4l-0.3,0.2h-0.2L32,45.5h-0.7L30,45h-0.3l-0.2,0.1h-0.2L29,45v-0.1
		l-0.5-0.7l-0.4-0.4l-0.4-0.2L25,42.9l-0.4,0.2l-0.3,0.4L24,43.9L23.4,44l-0.8,0.3L21,45.5l-0.9,0.3l-2-0.2l-0.3,0.1L17,46.2
		l-1.7,0.7l-0.8,0.2h-0.9l-0.8-0.2l-0.6-0.4L11,45.2l-0.4,0.2l-0.3,0.4l-0.2,0.5l-0.2,0.5l-0.4,0.6L9,47.9l-0.6,0.3l-0.6,0.2H7.1
		H6.9H6.8l-0.2-0.1H6.5l-0.1,0.1l-0.1,0.2l-0.1,0.2v0.1L5.4,49L5,49.3l-0.3,0.6l-0.1,0.6v0.7l0.1,0.7L5,53.5l0.5,0.8l0.7,0.5
		l0.7,0.1L7.3,55l0.6,0.6l0.4,0.3l0.9,0.2l0.3,0.2l0.2,0.6l-0.1,0.2l-0.3,0.7l-0.1,0.3v0.3l0.3,0.5l0.1,0.3l0.1,1.6l0.2,0.6l1.2,0.7
		l1.2,0.9l0.3,0.4l0.2,0.5l0.2,0.4l0.4,0.3l1.1,0.5l0.2,0.2v0.5l-0.2,0.6l-0.6,1l-0.9,1l-0.1,0.2l0.1,1.1l0.3,0.8v0.6l-0.7,0.6
		l-0.5,0.9l-0.2,0.2l-0.1-0.1l-0.3-0.4l-0.2-0.1l-0.9,0.3l-1,0.4l-0.3,0.3L8.6,74l-0.4,0.4L8,74.5H7.4l-0.2,0.1l-0.1,0.3l0.1,0.2
		l0.2,0.2l-0.1,0.2l-0.9,0.4l-1-0.3l-1-0.5l-0.9-0.2L3.3,75l-0.5,0.4l-0.2,0.1H2.4H1.9H1.7L0.8,76l-0.5,0.4L0,76.8l0.5,0.7l0.4,0.4
		v0.3v0.3L1,78.8l0.3,0.6l0.3,0.2l0.9,0.1l0.7,0.5l0.2,1.1v2.1l0.5,0.8L4.8,85l1.8,1.1l0.5,0.1l1.3-0.3h0.5l1.3,0.6l0.5,0.5l0.1,0.2
		l0.1,0.2v0.1v0.1v0.2l0,0l-0.1,0.6l0,0l0.3,0.8l0.1,0.9l0.1,0.3l0.8,1.5l0.2,0.5h-0.5l-1-0.3h-0.5l-0.6,0.3L9.2,93L9,93.8l0.3,0.8
		l-0.4,0.3L8,96.5l-1.4,1.1l-0.3,0.5l0.1,1.2l0.6,1.1l0.8,0.9l0.7,0.6l-0.9,0.5l-0.2,0.3l-0.2,1.2l-0.1,0.2v0.2l0.1,0.3l0.1,0.2
		l0.6,0.7l0.2,0.4l0.3,0.8l0.2,0.3l0.2,0.3l0.5,0.4l0.3,0.3l0.2,0.4l0.1,0.4l0.1,0.3l0.3,0.3l0.4,0.2l0.3-0.1l0.3-0.1h0.4l0.3,0.1
		l1.6,0.8l1.1,0.4l2.8,1.8l0.5,0.2l0.7,0.1l0.4,0.1l0.2,0.3l0.1,0.3l0.3,0.2l0.3,0.1h1.1l4.7-1.4l0.8-0.1l1.1-0.7l0.8,0.1l-0.4,1.2
		l0.3,0.7l0.6,0.6l0.4,0.9v0.6l-0.3,0.4l-0.4,0.3l-0.3,0.3l-0.2,0.5L28,118l-0.2,0.4l-0.6,0.7l-1.4,1.2l-0.5,0.9l-1.2,1.3l-0.4,0.8
		l0.1,0.9l0.5,1.8h0.3l0.3,0.1l0.2,0.2h0.3l0.8-0.3h3.3l1.1-0.3l1.3-0.9l4.7-1.1l1.9-1.3l0.6-0.2l0.3-0.2l0.1-0.3l0.1-0.2l0.2-0.2
		l0.2-0.2l0.7-0.3l0.8-0.9l0.6-0.1v-0.2l-0.4-0.8l0.4-0.9l1.3-1.4l0.2-0.4l0.2-0.6v-0.3v-0.6l0.1-0.3l0.6-0.9l0.3-0.4l0.4-0.4
		l0.8-0.5l1.5-0.5l0.7-0.3l0.4-0.4v-0.4l-0.1-0.4l0.1-0.5l0.1-0.1l0.4-0.3l0.1-0.1v-0.3l0.1-0.2l0.3-0.4l-0.1-0.7l0.6-0.8l2-1.3
		l0.7-0.6l0.3-0.1l0.5-0.1l1.7-1.2h0.2h0.2h0.2l0.2-0.1l0.3-0.3l0.8-0.6l0.3-0.2l0.7-0.1l1.7,0.1l0.3,0.4l0.2,0.1l0.6,0.1h1.2
		l0.2-0.1l0.8,0.4l1.3,0.5l2.7,0.5l0.7,0.4l0.5,0.9l-0.1,0.4l0.5,0.4l1.2,0.5v-0.6l0.1-0.5l0.2-0.4l0.3-0.4l0.9,0.6l2.8,1.6l0.2,0.8
		l1.3,0.6l0.2,0.4l0.2,0.3l0.5,0.1l0.5-0.1l0.3-0.2l0.1,0.5l0.2,0.3l0.3,0.2l1.2,0.6l0.4,0.3l0.2,0.5h0.2l0.9,1.1l0.3,0.1l0.3,0.1
		l0.8,0.1l0.3,0.2l0.7,0.7l0.3,0.2l1.4,1.3l1.3,0.6l0.2,0.3l0.2,0.5h0.3l0.1-0.2l-0.3-0.2l0.1-0.3l0.1-0.1l0.2-0.1v-0.2l-0.3-0.1
		l-0.2-0.1l-0.2-0.2l-0.1-0.3l0.1-0.1l0.1-0.1l0.1-0.1l-0.2-0.3h0.5l0.9,0.8l0.3-0.2l0.4,0.5l0.9,0.7l0.4,0.4l0.2,0.1h0.3l0.2-0.2
		l0.1-0.2l0.1-0.2l0.3,0.1l0.4,0.2l0.5,0.2l1,0.7l0.5,0.2l0.4,0.3l0.8,1.4l1.2,0.9l0.8,1.3l1.1,2.7l0.3,1.4l0.8,8.9l0.6,2.8l0.2,0.6
		l0.9,0.4l0.4,0.4l1.7,2.4l2.1,4.5l0.3,0.7l0.1,0.8v1.5l0.1,0.8l0.2,0.6l-0.2,0.5l-0.1,0.8v0.8l0.1,0.4l-0.6,2l-0.4,0.7l-0.7,0.6
		l0.6,1.8l0.5,0.6l0.8-0.3l-0.1-0.1l-0.1-0.4l1.2-0.4h1.3l1.3,0.3l1.9,0.9l0.3,0.3l0.3,0.4l0.1,0.5l-0.1,0.2l-0.2,0.2l-0.1,0.3v0.8
		v0.7l-0.3,0.6l-0.3,0.1l4.3,1.5l1.4,0.8l0.8,0.8l0.2,0.1l0.2,0.2l0.2,0.5l0.1,0.6l0.1,0.4l1.3,0.8l0.6,0.5l0.1,0.7l0.4,0.2l0.3,0.6
		l0.2,0.7l0.3,0.5h0.2l0.3-0.2h0.3l0.2,0.7l0.6,0.9l0.1,0.6l-0.1,0.9l-0.2,0.8l-0.2,0.4h-1.2l-0.6,0.1l-0.5,0.3l0.2,0.6l0.2,0.6
		l0.3,0.4l0.7,0.3l0.4,0.5l0.2,0.2v-0.1l0.2-0.1h0.3l0.3,0.1l0.1-0.5l0.4-0.6l0.1-0.6l0.2-0.3l0.4-0.1h0.5l0.4,0.1l2,0.7h0.8
		l-0.2-0.2h0.3h0.3l0.3,0.1l0.3,0.1v0.3l0.7,0.2l1.8,1l1.3,0.4l3.2,2.5l0.6,1l1.4,3l0.2,0.6l0.1,0.6l0.1,0.3l0.6,0.8l0.2,0.5
		l0.4,0.3l0.4,0.7l0.3,0.7l0.1,0.5l0.3-0.1l2.1-0.1l0.5,0.2l0.5,0.3l0.4,0.4l0.3,0.4l0.3,0.1l0.8,0.1l0.2,0.3l0.1,0.5l0.2,0.3
		l0.3,0.2l2.6,2l0.6,0.9l0.7,1.2l0.3,0.7l0.1,0.7v0.7l0.1,0.7l0.2,0.6l0.4,0.5l0.2,0.1l0.8,0.2l0.2,0.1l0.4,0.3l0.7,0.2l0.4,0.3
		l2.8,2.6l2.6,3.1l2,3l0.4,0.4l0.2-0.4l0.3-0.3l0.7,0.3l1.9,1.2l0.4,0.1l2.1,0.1l0.6,0.2l0.8,0.5l0.8,0.7l1.5,1.7l0.3,0.6l0.5,1
		l0.3,0.5l0.3,0.6l0.1,0.6l0.2,0.5l0.6,0.2l0.6-0.2l0.6-0.9l1-0.3l1-0.6l0.5-0.2l2.2-0.4h1l4.2,2l0.5,0.6h0.2l0.2-0.3l0.1,0.2
		l0.2,0.3l0.3,0.3l0.3,0.1l0.8-0.1l-0.3-1.1l0.8-0.5l1.7-0.2l0.2,0.3h0.4l0.8-0.2l0.4,0.1l1.7,1.7l2.7,3.5l0.7,1.4l0.1,0.4v0.8
		l0.1,0.3l0.3,0.3l0.9,0.6l2.1,4.3l0.2,1.3l-0.3,1.4l0.9,0.3l0.2,0.2v-0.5l-0.1-0.5v-0.4l0.2-0.3l0.4-0.1l0.4,0.1l1.9,1h0.6l0.3-0.7
		l0.3-0.4l0.7-0.2l0.7-0.1h0.5l0.5,0.4l1,1.1l0.5,0.2l0.1,0.1l0.3,0.5l0.2,0.2l0.2,0.1l0.4,0.1l0.3,0.1l0.5,0.3l0.5,0.4l0.4,0.5
		l0.1,0.6l-0.2,0.4l-1.8,1.5l-0.2,0.2l-0.2,0.5l-0.2,0.1h-0.5l-0.6,0.3l-0.3,0.7v0.7l0.3,0.5l0.4-0.5l1.2-0.7l0.6-0.5l1.3-0.3
		l0.4-0.3l0.8,0.5l0.7,0.2l0.7-0.1l1.1-1l0.3-0.1l1.4,0.1l0.3-0.1l0.8-0.6l0.9-0.3l0.8,0.2l0.7,0.6l0.7,0.7l0.7,0.9l0.7,1.2l2.3,5
		l0.4,1.3l-0.3,1.2l-0.2,0.2l-0.2,0.2l-0.3,0.2l-0.3,0.1l-0.3,0.1v0.3l0.2,0.6l-0.2,0.8l-0.7,0.9l0.1,0.6l0.3,0.1l1,0.2l0.2,0.3
		l0.2,0.1l1.1,1l0.6,0.7l0.3,0.2l0.5,0.1l0.8-0.2l0.5-0.1l0.4,0.2l1.7,1.8l0.5,0.3l0.6,0.4l0.8,0.9l0.4,0.9l-0.5,0.4v0.2h0.3h0.3
		l0.3-0.1l0.3-0.1l0.3,0.1l1,0.8l0.6,0.3l0.8,0.1l0.5-0.2l0.9-0.9l0.9-1l0.5-0.4l0.7-0.3l2,0.2l0.4-0.2v0.5l0.2,0.3l0.6,0.5l0.7,1.2
		l0.9,1l0.4,0.6l0.2,0.7l0.2,0.5l0.9,1.3l0.2,0.8l-0.3,1.3v0.2l0.2,0.2l0.1,0.4l0.1,0.7v-0.2l0.5,3.5l0.3,0.6l0.6,0.9l0.4,1.3
		l0.4,0.9l0.1,0.8l0.2,0.4l0.8,0.5l0.8,0.8l0.6,0.9l2.1,5l0.3,1.2l1.1,8.1l1.5,3.5l0.4,0.6l0.4,0.3l0.6,0.1l0.4,0.3l0.3,0.5l0.1,0.7
		v1.5l-0.2,1.5l-0.4,1.3l-0.6,1l-0.7,0.6l-0.4,0.2l-0.4,0.1l-1.9-0.2l-1.2,0.1l-0.9,0.4l-1.7,1.1l-1.1,0.4l-0.5,0.3l-0.2,0.4v0.3
		v0.2l0.1,0.2l0.2,0.4l0.2,0.2l0.4,0.2l0.2,0.1l0.8,0.9l0.4,1l0.1,1.1l-0.3,1.5l-2,4.2l-0.4,1.5l-0.1,0.2l-0.4,0.3l-0.1,0.2
		l-0.2,0.3l-2.7,0.8l-0.9,0.4l-0.5,0.7l0.1,1.2l0.2,0.8v0.6l-0.2,0.6l-0.4,0.6l-0.1,0.5l0.2,0.6l0.7,1.1l-0.5,0.5l-0.1,0.6l0.3,0.7
		l0.5,0.7l0.5,0.5l0.6,0.4l0.7,0.3l0.7,0.2l4.8-0.3l1.6,0.5l0.4-0.2l1.3-0.3l0.4-0.2l0.3-0.3l0.3-0.4l0.3-0.4l0.4-1l0.7-3.6l0.5-1.1
		l3.7-4.5l0.9-0.8l2.6-1.3l0.9-0.3l0.8-0.7l0.3-0.1l0.4-0.5l1.1-1l0.2-0.4l0.2-2.5v-0.9l-0.5-2.3l-0.3-2.6v-0.6l-0.1-0.1l-0.3-0.2
		l0.1-0.8l0.3-0.6l0.3-0.5l0.3-1l0.3-0.4l0.7-0.6l1.6-0.8l0.2-0.2l0.2-0.3l1.1-0.8l3-1.4l2.6-0.7h0.6l0.6,0.1l0.4,0.3l0.7,0.8
		l0.5-0.4l0.8-0.2l0.7,0.1l0.2,0.7l0.4-0.7l0.2-0.3l0.2-0.1l0.1-0.1l0.9-0.8v-0.2v-1.3l0.1-0.2l0.3-0.2l0.5-0.4l-0.4-0.1l-0.9-0.3
		l-0.2-0.2l-0.1-0.3l-0.6-1.3l-0.1-1l0.5-2l0.1-1.1l-0.1-0.4l-0.5-0.8l-0.2-0.4l-0.1-0.5v-0.5l0.2-1.9l1-2.3l-0.9-0.1l-1-0.5
		l-0.8-0.7l-0.6-0.7l-0.3-0.5l-0.3-0.4l-0.4-0.2l-0.7-0.1l-0.5-0.1l-1.3-1.1l-1.6-0.8l-0.2-0.3l-0.2-0.6l-0.4-0.5l-0.5-0.4l-0.4-0.3
		l-0.9-0.3l-3.3-0.2l-0.9-0.4l-1.2-0.8l-0.8-1l0.3-0.9v-0.2l-0.7-0.9l-0.3-1l0.1-1.1l0.4-1.1l0.9-1.7l1.3-1.2l0.4-0.8l0.4-0.4
		l0.3-0.4l-0.5-1.1l-0.4-1.3l-0.1-0.4l0.2-1.3l0.5-0.8l1.5-1.3l1-1.7l0.4-0.3l0.2-0.4l0.6-2l0.6-1.1l3.5-5l1.7-1.7l2-0.9l2,0.1
		l0.2,0.1h0.6l0.3,0.1l0.2,0.2l0.1,0.3l0.1,0.3l0.2,0.1l0.6-0.2l0.5-0.4l0.5-0.2l0.6,0.2l-0.1,0.2v0.1l1.1-0.4h0.5l-0.2,0.6
		l-0.5,0.3l-1.3-0.2l-0.5,0.2l0.5,0.6l-0.1,0.6l-0.5,0.5l-0.6,0.3l0.3,0.5l0.7,0.4l1.5,0.6l1.5,0.9l0.5,0.1l0.2,0.1l0.5,0.5l0.2,0.1
		h0.3l0.5-0.1h0.3l1.4,0.8l0.5,0.1l9,0.5l0.4,0.2l1.3,1.1v0.2h-0.3l0.3,0.3l0.2,0.5l0.1,0.6v0.7l0.2,0.5l0.4,0.5l0.7,0.6l0.8,0.9
		l0.4,0.9l-0.2,0.8l-1,0.6l0.3,0.2l0.7,0.2l0.3,0.3l0.2,0.5l-0.1,0.4l-0.3,0.2h-0.4v0.3l0.3,0.3l1.7,2.6l0.3,0.2l0.4,0.1l1,0.7
		l0.8,0.8l0.7,0.3l0.7,0.4l0.3,0.1h1.1l0.4,0.2l1.3,1l0.2,0.1l0.2,0.1h0.6l0.1-0.1l0.3-0.5l0.1-0.1l-0.1-0.3l0.4-1.9v-0.4l-0.2-0.9
		l0.1-0.3l0.3-0.8l0.1-0.7l0.1-0.4l0.6-1.5l1-0.7l0.4-0.4l0.2-1l0.4-0.3l0.2-0.3v-0.3L319.5,257.6z M157,194.6h-0.2l-0.1-0.1
		l0.1-0.2l0.2-0.1V194.6L157,194.6z M157.9,120.1l-0.2,0.4l-0.1,0.1v0.1v0.1v0.1l-0.5,0.8l-0.8,0.1l-0.8-0.4l-0.4-0.8l0.3-0.9
		l0.7-0.7l0.9-0.4l0.8-0.1l0.2,0.4l0.1,0.6L157.9,120.1z"/>
</g>
</svg>
