<?xml version="1.0" encoding="utf-8"?>

<svg version="1.2" baseProfile="tiny" xmlns="http://www.w3.org/2000/svg" xmlns:xlink="http://www.w3.org/1999/xlink" x="0px"
	 y="0px" viewBox="219.8 218.6 400 157.2" xml:space="preserve">

<g id="Jamaica">
	<g>
		<polygon fill="#009B3A" points="471,242.1 470,242.2 467.8,241.8 464,240 461.8,239.5 452.2,241.1 446.2,240.9 445.2,240.3
			442.1,237.6 441.1,237 432.9,235.5 433.1,235.9 432.5,236.5 431.5,237 430.5,237 429.6,236.1 428.9,233.8 428.1,232.9
			421.4,231.2 411.8,230.1 402.4,230.1 396.6,231.6 392.9,229.3 388.1,228.2 375.4,227.2 367.5,225.3 349.7,225 323,219.1
			420,267.6 		"/>
		<polygon fill="#009B3A" points="352,346.4 363.7,345.7 371.5,347 379.5,349.4 383.4,349 387.3,346.4 390.6,345 394.9,345.6
			399,347.1 412.6,355 415.9,359.1 431.8,373.3 435.2,374.9 438.6,375.7 442.4,375.8 446.9,374.5 447.4,371.2 445.6,364
			441.9,365.1 438.3,365.4 434.9,364.7 431.7,362.7 433.5,361.2 435.4,360.5 437.4,360.6 439.3,361.5 438.9,360.3 438.6,358.4
			438.1,357.4 439.4,356.8 441.7,355.4 443.1,354.9 441.7,349.6 444.8,344.8 454.3,337.8 459.5,338.4 461.8,339.2 463.7,340.7
			466.2,344 468.2,345.7 464.3,347 464.3,348.5 474.4,348.5 476.4,349.3 477.9,350.3 479.5,351 481.9,351 484.8,349.1 486.9,345.8
			420,312.4 		"/>
		<polygon points="260.1,232.4 257.4,235.5 252.7,232 246.2,234.1 240.6,239.3 238.7,244.7 235.6,243.7 233.7,245.2 232.3,247.5
			230.5,248.6 227.7,248.8 227,249.6 226.9,251 225.5,253.3 225.1,255 225.4,260.7 224.8,263.2 223.6,264.8 220.9,266.8
			219.8,268.3 220.6,271.7 223,274.6 226.1,276.7 229.3,277.5 232.4,277.9 238.1,279.7 240.6,280.1 241.1,280.4 245.6,282.2
			246.8,282.5 248.2,281.7 249.9,280.1 252.9,280.1 261.2,281.5 274.6,281.2 279.2,283.7 282.6,290.7 283.7,295.2 284.6,297.5
			285.8,298.5 287.2,298.9 289,299.8 290.6,300.9 292,303 296.4,313 299.3,314.1 312,314.2 316.6,315.9 317.5,318.9 375.3,290 		"/>
		<polygon points="573.5,344.4 578.3,342.5 581.7,343.4 585,344.9 587.8,345.7 591,344.8 593.9,340.4 597.2,339.2 596.5,341.6
			596,342.2 594.7,343.2 598,344 601.8,342.9 608.5,339.2 617.9,336.8 619.8,335.3 614.8,331.6 611.4,328 608.7,323.4 606,316.8
			600.1,304 596.1,298.3 590.9,293.3 590,289.3 583,286.8 569.5,284.3 568.9,283.4 567.4,280.7 566.5,280.1 552.8,280.1
			551.2,279.8 550.1,279 549.2,278.1 548.3,277.5 538.9,276 535.8,275 533.1,273.3 529.7,269.8 527,268.3 523.8,267.7 514.4,266.9
			512.1,266.3 464.7,290 		"/>
		<polygon fill="#FED100" points="464.7,290 512.1,266.3 511,266 509.3,265 508.2,263.3 506.9,260.5 504.9,257.6 500.4,254.4
			491.2,246 487.7,243.6 484.4,242.2 480.8,241.7 471,242.1 420,267.6 323,219.1 322,218.9 313.6,218.6 306.2,219.8 303,221.3
			301.1,223.1 297,228.3 295.9,230.3 295.9,231.8 295.7,233 293.9,234.3 291.8,234.7 289.8,234.2 286.4,232.9 282.4,232.9
			270.6,234.3 266.4,233.5 263,232.3 260.1,232.3 260.1,232.4 375.3,290 317.5,318.9 317.8,319.9 317.4,324.8 317.7,328.8
			318.7,329.6 322,330.8 322.7,332 323.1,333.5 325,338.4 325.8,339.9 327.4,341.1 333.8,344.3 337.6,346.9 338.9,347.1 352,346.4
			420,312.4 486.9,345.8 487.2,345.5 495,327.2 498,322.5 502,320.7 504.4,321.6 509.3,324.9 512,326.1 517.5,326.2 519.9,326.7
			522.1,328.8 502,330 502,331.3 511.5,331.6 514.4,331.3 521,329.7 524.8,329.5 527.6,330.6 529,331.4 534.5,332.7 535.6,333.7
			536.5,335 537.4,336.1 538.9,336.5 540.3,337.3 540.9,339.2 541.2,341.4 542.1,343.2 544,344.4 545.5,344.6 546.8,344.4
			548.3,344.3 558.5,345.9 572.9,344.6 573.5,344.4 		"/>
	</g>
	<path vector-effect="none" fill="none" stroke="#878787" stroke-width="0.25" stroke-linecap="round" stroke-linejoin="round" d="
		M392.9,229.3l3.8,2.3l5.8-1.5l9.4,0l9.6,1.1l6.6,1.7l0.8,0.9l0.7,2.4l0.9,0.8h1.1l1-0.5l0.6-0.6l-0.1-0.4l8.2,1.4l1,0.6l3.1,2.7
		l1,0.6l6,0.2l9.6-1.6l2.2,0.6l3.8,1.8l2.2,0.4l10.8-0.4l3.6,0.4l3.4,1.4l3.5,2.4l9.2,8.4l4.5,3.2l2,2.9l1.3,2.8l1.1,1.7l1.7,1
		l3.4,0.9l9.5,0.7l3.1,0.7l2.7,1.4l3.5,3.5l2.7,1.7l3.1,1l9.4,1.5l0.9,0.6l0.9,0.9l1.1,0.8l1.5,0.4h13.7l1,0.6l1.4,2.7l0.7,0.8
		l13.5,2.5l7,2.5l0.9,4l5.2,5l4.1,5.8l5.9,12.8l2.7,6.6l2.7,4.6l3.4,3.6l5,3.7l-1.9,1.5l-9.4,2.4l-6.7,3.7L598,344l-3.3-0.8l1.3-0.9
		l0.5-0.6l0.7-2.4l-3.3,1.2l-2.9,4.4l-3.2,1l-2.8-0.8l-3.3-1.5l-3.4-0.9l-5.5,2.1l-14.4,1.2l-10.2-1.5l-1.5,0.1l-1.4,0.2l-1.5-0.2
		l-1.9-1.3l-0.8-1.7l-0.3-2.2l-0.6-1.9l-1.4-0.8l-1.5-0.4l-1-1.1l-0.9-1.3l-1.1-1l-5.5-1.4l-1.4-0.7l-2.8-1.1l-3.8,0.2l-6.6,1.6
		l-2.8,0.3l-9.5-0.3V330l20.1-1.2l-2.2-2.1l-2.4-0.5l-5.5-0.1l-2.7-1.1l-4.8-3.4l-2.5-0.9l-4,1.7l-2.9,4.8l-7.9,18.2l-2.3,3.6
		l-2.9,1.9l-2.4,0l-1.6-0.7l-1.5-1l-2-0.8h-10.1V347l3.9-1.3l-2-1.7l-2.5-3.3l-1.9-1.5l-2.2-0.8l-5.2-0.6l-9.6,7l-3.1,4.8l1.4,5.3
		l-1.4,0.5l-2.3,1.4l-1.4,0.5l0.5,1l0.3,2l0.5,1.2l-2-0.9l-2-0.1l-1.9,0.7l-1.8,1.5l3.2,2l3.4,0.8l3.5-0.3l3.7-1.1l1.9,7.2l-0.6,3.3
		l-4.5,1.4l-3.8-0.2l-3.4-0.7l-3.4-1.6l-15.9-14.2l-3.3-4.1l-13.7-7.9l-4.1-1.5l-4.2-0.6l-3.4,1.4l-3.9,2.6l-3.9,0.4l-8-2.3
		l-7.9-1.3l-24.8,1.4l-1.2-0.2l-3.8-2.6l-6.4-3.2l-1.6-1.3l-0.8-1.4l-1.9-4.9l-0.4-1.6l-0.7-1.2l-3.3-1.2l-1-0.8l-0.3-4l0.3-4.8
		l-1.2-4.1l-4.6-1.7l-12.7-0.1l-2.9-1.1l-4.3-10l-1.4-2.1l-1.6-1.1l-1.8-0.9l-1.4-0.4l-1.2-1l-0.9-2.3l-1.1-4.5l-3.5-6.9l-4.5-2.6
		l-13.4,0.3l-8.2-1.4l-3,0l-1.7,1.6l-1.4,0.8l-1.2-0.3l-4.5-1.8l-0.4-0.3l-2.6-0.4l-5.6-1.8l-3.2-0.4l-3.2-0.8l-3.1-2.1l-2.3-2.9
		l-0.8-3.3l1-1.6l2.7-1.9l1.3-1.6l0.6-2.5l-0.2-5.8l0.3-1.7l1.4-2.3l0.1-1.4l0.6-0.8l2.9-0.2l1.8-1.2l1.5-2.2l1.9-1.5l3.1,1l1.9-5.4
		l5.6-5.1l6.5-2.1l4.7,3.5l2.7-3.2l2.9-0.1l3.4,1.2l4.2,0.8l11.8-1.5l3.9,0l3.4,1.2l2,0.5l2.1-0.3l1.8-1.3l0.2-1.2l0-1.5l1.1-2
		l4.1-5.3l1.9-1.8l3.2-1.5l7.4-1.2l8.4,0.3l27.7,6l17.8,0.4l7.9,1.9l12.7,0.9L392.9,229.3"/>
</g>

</svg>
