<?xml version="1.0" encoding="utf-8"?>

<svg version="1.2" baseProfile="tiny" xmlns="http://www.w3.org/2000/svg" xmlns:xlink="http://www.w3.org/1999/xlink" x="0px"
	 y="0px" viewBox="254.9 89.3 329.4 415.4" xml:space="preserve">

<g id="Kenya">
	<g>
		<path fill="#FFFFFF" d="M378.9,212.6h-5.5l2.8,4.8C377.1,215.8,378,214.2,378.9,212.6z"/>
		<path fill="#FFFFFF" d="M465.1,212.6h-5.5c0.9,1.6,1.8,3.2,2.7,4.8L465.1,212.6z"/>
		<path fill="#FFFFFF" d="M373.4,383.4h5.5c-0.9-1.6-1.8-3.2-2.7-4.8L373.4,383.4z"/>
		<path fill="#FFFFFF" d="M459.6,383.4h5.5l-2.8-4.8C461.4,380.2,460.5,381.8,459.6,383.4z"/>
		<path fill="#FFFFFF" d="M465.6,223.8c1.8,3.7,3.3,7.1,4.4,10.1h76.6v-21.4h-74.5L465.6,223.8z"/>
		<path fill="#FFFFFF" d="M465.6,372.2l6.5,11.3h97.3l0.5-0.5l0.1-3.4l-0.1-0.8l-0.5-0.9l-1.6-2l-2.1-2.6l-2.1-2.6l-2.1-2.7l-2-2.6
			l-1.9-2.4l-0.6-0.8H470C468.8,365.1,467.3,368.5,465.6,372.2z"/>
		<path fill="#FFFFFF" d="M372.9,223.8l-6.5-11.3h-68.1l0,0l-0.1,0.9l-0.6,0.7l-0.8,0.5l-0.7,0.6l-0.4,1l0.3,1.6l2.3,5.6l1.9,4.4
			v0.8l-0.4,1.8l-0.1,0.8l0.1,0.8l0.2,0.8l0.3,0.7l0.2,0.2h68.2C369.6,230.9,371.1,227.5,372.9,223.8z"/>
		<path fill="#FFFFFF" d="M372.9,372.2c-1.8-3.7-3.3-7.1-4.4-10.1h-95.3l1.2,0.7l8.8,4.9l8.8,4.9l8.8,4.9l8.8,4.9l2,1.1h54.7
			L372.9,372.2z"/>
		<path d="M366,211.8c-7.3-2-11.4-9.1-15.4-16c-11.1-19.2-15.9-36.3-18-47.3l-0.2-1l0.8,0.7c8.5,7.3,20.9,20.1,31.9,39.2
			c3.9,6.8,8,13.9,6.1,21.3l2.2,3.8h5.5c11.6-20.4,28.8-42.7,40.4-42.7c11.6,0,28.7,22.3,40.4,42.7h5.5l2.2-3.8
			c-1.9-7.4,2.2-14.5,6.1-21.3c3.2-5.6,6.5-10.6,9.9-15.1l-4.8-0.1l0.4-0.7l-0.2-0.4l-0.5-0.1l-1.9,1.1l-1.6,0.1l-1.6-0.4l-4.2-1.9
			l-0.4-0.1l-2.4,0.5h-0.6l-0.6-0.2l-0.7-0.1l-1.7,0.3l-1.1,0l-3.1-0.8l-4-1.1l-0.7-0.4l-0.6-0.7l-1.1-1.4l0,0.2l-0.1,0.6l0,0.3
			l-2.4-0.2l-0.2-0.1l0-0.2l-0.1-0.1l-0.6,0.2l-0.2,0l-0.5,0l-0.6-0.2l-0.2-0.2l-0.1-0.3l-0.3-0.4l-0.8-0.7l-0.2-0.1l-0.4,0.2
			l-0.1,0.3l0,0.4l0,0.2l-2.1,0.9l-2.3,0.2l-4.4-0.5l-4.4-0.5l-1.3,0.1l-1.3,0.3l-0.5-0.1l-0.9-0.8l-1.2-0.4l-0.5-0.3l-0.6-0.7
			l-1-1.7l-0.8-0.8l-1.3-0.8l-4.1-2.6l-3.9-2.5l-4.2-2.7l-3.8-2.4l-3.3-2.1l-4.7-3l-4-2.5l-4-2.6l-2.2-1.4l-0.2-0.1l-0.2,0l-0.2-0.1
			l-0.1-0.2l-0.2-0.9l-0.2-0.4l-0.3-0.4l-0.3-0.1l-0.8,0l-0.3-0.2l-0.7-1.1l-0.4-0.3l-1.7-0.4l-2.9-1.5l-2.4-0.7l-7.9,0.1l-0.3-0.1
			l-0.6-0.4l-0.4-0.1l-6.4,0.1l-7.6,0.1l-0.5-0.1l-0.7-0.3l-0.4-0.1l-0.4,0l-1.4,0.2l-6.2,0l-0.9-0.2l-0.9-0.6l-1.6-1.4l-0.7-0.4
			l-0.3-0.6l0-0.7l0.1-0.8l0-0.8l-0.5-1l-0.1-0.7l-3.7-3.9l-1.9-2l-1-1.7l-0.3-2v0l0.2-8.6l0.2-0.5l1.6-2l0.3-0.8v-0.9l-0.4-1
			l-0.8-1.5l-0.1-0.8l0.3-1l1.1-1.6l-0.2-0.4l-2.3-0.9l-2.7-1.6l-1-0.3l-0.8,0.2l-0.7,0.3l-1,0.2l-1-0.3l-1.8-1.4l-0.9-0.5l-0.7-0.2
			l-0.9-0.1h-0.9l-0.7,0.2l-0.9,0.6l-1.7,1.8l-0.9,0.6l-1,0.2l-0.8-0.4l-0.6-0.7l-1.3-2.1l-0.2-0.4l0-0.5l0.3-0.4l0.4-0.4l0.2-0.5
			l-0.2-0.5l-2.3,2.2l-2.3,2.2l-2.3,2.2l-2.3,2.2l-2.3,2.2l-2.3,2.2l-2.3,2.3l-2.3,2.2l-2.3,2.2l-2.3,2.2l-2.3,2.3l-2.3,2.2
			l-2.3,2.2l-2.3,2.2l-2.3,2.2L276,125l-4.1,4.1l-4.2,4.1l-4.2,4.1l-4.1,4.1l1.2,0.6l0.9,0.7l0.5,0.9l-0.1,1.3l0.1,0.5l0.4,0.5
			l0.5,0.4l0.3,0.5l0.1,0.5l0,0.5l-0.1,1l-0.2,0.6l-0.2,0.4l0,0.4l0.3,0.7l0.5,0.4l0.6,0.4l0.5,0.5l0.1,0.7l-0.4,1l-0.5,0.9
			l-0.1,0.7l1,0.4l0.6-0.1l1.6-0.6l0.8,0l0.9,0.5l0.1,0.5l-0.4,0.5l-2,1l0.1,0.2l0.6,0.2l0.5,0.6l-0.8,0.5l-0.3,0.3l0.5,0.2l0.3,0
			l0.7-0.2l0.8-0.1l0.8-0.2l0.4,0l0,0.2l0.9,1.2l0.6,1.6l0.5,0.2l0.2-0.1l0.2-0.4l0.4-0.4l1.1-0.3l0.7,0.3l1.3,1.4l0.8,0.4l0.8,0.2
			l0.6,0.4l0.3,0.8l-0.1,3.3l-0.4,1.6l-0.8,1.2l-0.4,0.2l-0.4,0.1l-0.4,0.2l-0.2,0.4l0,0.4l0.5,0.9l0.2,0.4l-0.1,0.4l-0.4,1
			l-0.1,0.5l0.1,0.5l0.3,0.4l0.4,0.4l0.3,0.5l0.5,1.6l0.4,5l0.4,0.9l0.9,0.6l1.9,0.5l0.9,0.5l0.5,0.9l1.2,6.2l0.4,0.7l1.3,1.4l0.6,1
			l0.4,0.4l0.6,0.1l0.3-0.1l0.5-0.4l0.2-0.1l0.1-0.1l0.2-0.3l0.1-0.1l0.2,0.1l0.1,0.1l0.1,0.2l0.1,0.1l0.1,0.1l1.2,0.6l0.2,0.1
			l0.3,0.3l0.2,0.4l0.8,2.6l0.6,3.5l1.7,3.6l0.4,0.4l0.6,0l0.3-0.3l0.3-0.3l0.4-0.1l0.4,0.6l0.2,2l0.2,0.8l1.1,1.1l0.4,0.7h68.1
			L366,211.8z"/>
		<path d="M580.4,152.1l-1.8-0.9l-2-0.6l-1.7,1l-0.6,0.1l-0.6-0.1l-1.1-0.4L572,151l-3.3,0.8l-1.1,0.1l-2.1,0.6l-4.6,0.2l-4.2,0.2
			l-2.1-0.2l-2-0.8l-1.8-1.4l-2.6-3.7l-1.1-1l-0.7-0.4l-2-0.6l-0.8-0.4l-0.4-0.4l-0.7-1.3l-1-1.1l-2.5-1.7l-0.9-1.2l-2.6,1.7
			l-3.4,1.3l-4.3,1.6l-5.3,2l-0.2,0.2l-0.2,0.6l-0.2,0.2l-3.2,1.1l-4.2,1.4h-0.1l-0.1,0l-0.1-0.1l-0.4,0l0,0.1l0,0.2l-0.2,0.2
			l-1.9,0.9l-4,1.9l-2.9,1.4c-2.6,10.8-7.5,25.7-16.9,42c-4,6.8-8,13.9-15.4,16l-0.5,0.8h74.5v-0.8l-0.1-5.5l-0.1-5.3l0-2.2l0.6-1.1
			l1.4-1.4l3.4-3.3l3.4-3.3l3.4-3.3l3.4-3.3l2.1-3l2.1-3l2.1-3l2.1-3l3.4-4.9l3.4-4.9l3.4-4.9l3.4-4.9l-2,1.2L580.4,152.1z"/>
		<polygon fill="#006600" points="311.7,383.4 318.5,387.2 327.3,392.1 336.1,397 345,401.9 353.1,406.4 366.4,383.4 		"/>
		<path fill="#006600" d="M496,424.9l-5.2,3l-0.2-0.3l-25.5-44.2h-5.5c-11.6,20.4-28.8,42.7-40.4,42.7c-11.6,0-28.7-22.3-40.4-42.7
			h-5.5l-15,25.9l4.2,2.3l8.8,4.9l8.8,4.9l8.8,4.9l8.8,4.9l8.8,4.9l3.4,1.9l0.6,1l0.7,4.4l0.9,5.5l-0.7,0.1l-0.4,0.4L411,450
			l0.1,0.7l-0.8,0l-1,0.5l-0.9,0.7l-0.6,0.7l-0.2,0.3l-0.2,0.5l-0.1,0.5l0.1,0.4l0.3,0.3l0.7,0.1l0.2,0.3l-0.2,0.7l-0.3,0.8l0.1,0.6
			l2-0.1l0.9,0.1l0.9,0.2l0.8,0.4l0.6,0.5l0.3,0.7l0.7,2.5l0.4,0.8l0.6,0.7l2.2,1.6l3.5,2.5l3.5,2.5l3.5,2.5l3.5,2.5l3.5,2.5
			l3.5,2.5l3.5,2.5l3.5,2.5l3.5,2.5l3.5,2.5l3.5,2.5l3.5,2.5l3.5,2.5l3.5,2.5l3.5,2.5l3.5,2.5l0.1-0.2l0.1-0.1l0.1,0l0.2-0.1
			l0.8-0.6l0.8-1.2l0.9-0.9l1.2,0.4l0.2-0.6l0-0.2l1,1.2l1.6,0.4l1.4-0.2l0.4-0.6l-0.6-0.9l-0.1-0.4l0.1-0.6l0.3,0l0.3,0.2l0.2,0
			l0.3-0.6l0.2-0.6l0.3-0.6l0.5-0.4l0.2,0.6l-0.1,1.2l0.3,0.8l1.4-4.2l0.1-0.2l0.6-0.5l0.1-0.2l0-0.5l0.1-0.2l0.3-0.5l0.4-0.4l0.4,0
			l0.4,0.6l0.5-1.2l1.3-5l1.3-3.3l2.1-3.5l0.2-1l-0.8-0.7l-1.4-0.4l-1.4,0.1l-0.6,0.8l-0.2-0.4l-0.1-0.4l0-0.9l0.2-0.3l0.4-0.1
			l0.5,0h0.4l1.3-0.3l0.4-0.3l0.3-0.7l-1.1-0.2l-0.5-0.2l-0.4-0.4l0.5-0.4l0.5,0.1l1,0.6l0.7-0.6l0.1,0.6l-0.1,0.9l0.3,0.5l0.3,0.2
			l0.3,0.9l0.4,0.2l0.4-0.2l0.4-0.4l0.3-0.5l0.1-0.4l0.1-0.3l0.9-1l0.1-0.7l-0.4-0.2l-0.9,0.1l-0.4-0.4l-0.2-0.4l-0.1-0.4l-0.3-0.4
			l-0.2-0.4l0.3-0.3l0.9-0.5l0,1.4l0.8,0.6l1.2-0.2l1.1-1l3.3-9.1l0.1-1.3l-0.1-0.6l-0.3-0.6l-0.5-0.3l-1.4,0.6l-0.6-0.2l-0.2-0.5
			l0.5-0.6l-0.8,0l-0.5-0.4l-0.1-0.6l0.3-0.7l0.4,0.3l0,0.2l-0.2,0.4l1.1,0.1l0.2,0.1l0.5,0.6l0.2,0.1l0.9,0.4l0.4-0.1l0.5-0.5
			l0.5-1l0.4-2.3l1.1-1.8l0.8-2.2l0.7-1.2l-0.1-0.2l-0.2-0.2l-0.1-0.2l0.2-1l0-0.4l0-0.6l0.1-0.5l0.3-0.4l0.7-0.2l-0.1,0.6l-0.4,1.5
			l-0.3,0.7l0.7-0.1l0.6-0.4l1-1.1l0.5-0.4l2-0.9l0.6-0.4l0.5-0.5l0.4-0.6l0.2-0.6l0-0.8l-0.4-1.5l0-0.6l1.4-2l0.3-0.7l0.2-2.1
			l0.2-0.5l0.9-1.2l1.5-1.3l0.3-0.5l0-0.5l-0.8,0.6l-0.9,0.1l-0.5-0.5l0.2-1.1l-0.9-0.7l0.1-1.3l0.8-2.6l0-0.4l0.1-0.6l0-0.3
			l-0.6-0.8l-0.1-0.3l0.2-0.7l1.2-1.5l0.8-1.7l0.4-0.6l0.5-0.5l2.1-1.7l1.2-0.7l1-0.3l1.7-1.2l4.2-1.3l1.3-0.1l1.3,0.3l1.2,0.5
			l1.3,0.3l1.4-0.5l2.5-3l1.9-0.8l1.3-0.9l1.1-1.1l0.5-0.9l-0.3-0.6l-1.2-0.8l-0.3-0.6l0.3-0.5l0.1-0.3l-0.2-0.1l-0.3-0.1l-0.2-0.3
			l-0.1-0.4l0-0.4l0.8,0.5l0.9-0.7l0.9-1.1l1-0.6l0.6-0.1l0.3-0.1l-0.1-0.1l0.4,0.2l0,0.2l-0.1,0.2l0.2,0.3l1,1l0.6,0.4l0.7,0.2
			l-1.3,0.7l0.1,0.4l0.9-0.2l1-1.2l0.5-1.1l-0.1-0.5l-0.4-0.6l-0.5-0.4l-0.5,0l-0.5,0.1l-0.4-0.1l-0.5-1l-0.3-1.6l-0.1-3l-0.1-0.2
			l-0.3-0.1l-0.3-0.1l-0.1-0.4l0.1-0.2l0.4-0.2l0.1-0.3l-0.1-0.6l-0.4-0.5l-0.5-0.1l-0.7,0.3l0.1-0.5L542,395l-0.3-0.6l0.5-0.6
			l0.4,0.2l0.4,0.4l0.4,0.2l0.7,0.6l0.8,2.5l0.8,0.6l0.9-1.1l0.2-4.8l1.5-1.1l-0.6,0.9l-0.2,0.5l0.1,0.6l0,0.5l-0.4,1.2l0,0.6
			l0.2,0.6l0.3,0.4l0.4,0.3l0.5,0.3l0.6,0.1l0.4-0.5l0.4-0.6l1.1-0.4l0.8-0.9l0.5-0.3l0.4,0l1.6,0.4l1.2,0.1l0.4-0.9l0.2-1l0.8-0.8
			l0.1,0.9l0.5,0.5l0.7,0.1l0.8-0.3l0.6,0.8l0.9-0.5l1.5-1.8l2.3-2.1l0.9-0.5l0.2-0.7l1.5-2.2l2.7-2.7h-97.3L496,424.9z"/>
		<polygon fill="#006600" points="554.3,399.9 554.6,399.1 553.8,397.8 552.9,397.3 551.7,396.9 550.6,396.8 550.1,397.4
			549.8,398.2 548.9,398.6 547.9,398.9 547.2,399.3 546.6,400.2 546.1,401.5 546.1,402.4 547,402.2 547.1,402.7 547.3,403.1
			547.6,403.4 548.2,403.4 548.3,403 548,402.7 547.5,402.4 547.3,402.1 547.4,401.5 547.7,401.2 548.1,401.1 548.5,401.4
			550,400.6 550.7,400.4 551.3,400.3 551.3,400.4 551.4,400.6 551.7,400.8 552,400.9 552.2,400.8 552.3,400.7 552.4,400.6
			552.5,400.6 552.8,400.4 552.9,400.1 553,399.6 553,399.2 553.5,400.1 		"/>
		<path d="M376.2,378.6c-0.1-0.1-0.1-0.2-0.2-0.4l-17.9,31l0.3,0.2l15-25.9L376.2,378.6z"/>
		<path d="M373.1,372.6c-0.1-0.1-0.1-0.3-0.2-0.4l-6.5,11.3l-13.3,23l0.3,0.2L373.1,372.6z"/>
		<path d="M472.3,211.5l-6.9,12c0.1,0.1,0.1,0.3,0.2,0.4l6.5-11.3l0.5-0.8c7.3-2,11.4-9.1,15.4-16c9.4-16.3,14.3-31.2,16.9-42
			l-0.4,0.2c-5.1,21.3-14.3,37.4-16.8,41.6C483.6,202.6,479.6,209.5,472.3,211.5z"/>
		<path d="M467.3,208.8l-2.2,3.8l-2.8,4.8c0.1,0.1,0.1,0.2,0.2,0.4l5.2-9c-2-7.3,2.1-14.2,6.1-21.2c1.3-2.3,4.7-8.1,10-15.3l0,0
			l-0.4,0c-3.3,4.5-6.6,9.5-9.9,15.1C469.5,194.3,465.4,201.4,467.3,208.8z"/>
		<path fill="#FFFFFF" d="M376,378.2c-1-1.9-2-3.8-2.9-5.7l-19.7,34.1l0.3,0.2l4.4,2.4L376,378.2z"/>
		<path fill="#FFFFFF" d="M467.7,208.8l-5.2,9c1,1.9,2,3.8,2.9,5.7l6.9-12c7.3-2,11.3-8.9,15.3-15.8c2.5-4.3,11.7-20.3,16.8-41.6
			l-0.3,0.1l-3.5,1.7l-0.8,1l-0.8,2.1l-1.1,3l-0.7,1.3l-0.8,1l-3.2,2.9l-2.7,2.4l-1.1,1.3l-0.9,2.7l-0.7,1.1l-1.3,0.1l-0.7-0.4
			l-0.3-0.5l-0.2-0.6l-0.4-0.4l-1.2-0.4c-5.3,7.2-8.6,13-10,15.3C469.7,194.6,465.7,201.5,467.7,208.8z"/>
		<path d="M366.2,211.5c-7.3-2-11.3-8.9-15.3-15.8c-2.7-4.6-13.3-23.1-18-47.2c18.5,16,29.2,34.5,31.8,39.1c4,6.9,8,13.9,6.1,21.2
			l5.2,9c0.1-0.1,0.1-0.2,0.2-0.4l-2.8-4.8l-2.2-3.8c1.9-7.4-2.2-14.5-6.1-21.3c-11.1-19.2-23.5-31.9-31.9-39.2l-0.8-0.7l0.2,1
			c2.1,11,7,28.1,18,47.3c3.9,6.8,8,13.9,15.4,16l0.5,0.8l6.5,11.3c0.1-0.1,0.1-0.3,0.2-0.4L366.2,211.5z"/>
		<path d="M495.5,424.8l-4.6,2.7l-28.4-49.3c-0.1,0.1-0.1,0.2-0.2,0.4l2.8,4.8l25.5,44.2l0.2,0.3l5.2-3l-24-41.5l-6.5-11.3
			c-0.1,0.1-0.1,0.3-0.2,0.4L495.5,424.8z"/>
		<path fill="#FFFFFF" d="M370.8,208.8c2-7.3-2.1-14.2-6.1-21.2c-2.7-4.6-13.3-23.1-31.8-39.1c4.6,24,15.3,42.5,18,47.2
			c4,6.9,8,13.9,15.3,15.8l6.9,12c0.9-1.8,1.9-3.7,2.9-5.7L370.8,208.8z"/>
		<path fill="#FFFFFF" d="M490.9,427.5l4.6-2.7l-30.2-52.3c-0.9,1.8-1.9,3.7-2.9,5.7L490.9,427.5z"/>
		<path fill="#BB0000" d="M355.2,298c0-21.4,5.3-42.7,13.3-64.1h-68.2l0.2,0.2l1,0.9l0.2,0.5l-0.2,0.4l-0.8,1l-0.2,0.5l0,7.9
			l-0.3,0.9L299,249l-0.3,0.5l-0.4,0.4l-0.4,0.2l-0.9,0.2l-0.4,0.2l-0.9,1.4l-0.9,3.3l-2.4,2l0.2,1.4l0.7,1.7l0.4,1.6l-0.5,1.6
			l-1.3,0.6l-3.4,0.4l-0.9,0.5l-1.4,1.4l-2,0.4l-0.3,0.7l-0.1,0.9l-0.4,0.7l-0.9,0.2l-0.7-0.4l-0.7-0.1l-0.8,0.8l-0.4,0.7l-0.3,0.8
			l-0.2,0.9l0,1.8l-0.2,0.9l-1.1,2.6l-1.2,1.5l-0.6,1.7l-0.7,0.6l-2.6,1.3l-0.3,0.4l-0.3,1.4l-0.7,1.8l-1,1l-1.3,0.7l-1.7,0.6
			l-1.2,0.8l-0.7,1.2l-1,4.2l-0.1,0.3l-0.3,0.4l-0.7,0.8l-0.2,0.4l0.1,0.7l0.5,1.5l-0.1,0.9l-0.4,0.5l-1.5,1.1l-3.7,4.8l-2.4,3.2
			l-0.1,0.8l1.3,4.2l1.3,4.2l0,1.6l-0.8,6.5l-1,8.4l-0.7,5.9l0.2,5.6l0.2,8.3h3.1l0.2,0l0.6,0l0.1,1.1l0.6,0.4l1.5,0.1l3.1,1.7
			l7.6,4.2h95.3C360.5,340.7,355.2,319.4,355.2,298z"/>
		<path fill="#BB0000" d="M483.3,298c0,21.4-5.3,42.7-13.3,64.1H557l-1.7-2.1l-2.1-2.7l-2-2.6l-1-1.3l-1-1.3l-1-1.3l-1-1.3l0-3.1
			l0-2.9l0-2.9l-0.1-4.4l-0.1-4.4l-0.1-4.4l-0.1-4.4l0-2.7l0-2.8l-0.1-3.3v-79.9H470C478,255.3,483.3,276.6,483.3,298z"/>
		<path fill="#BB0000" d="M462.5,217.8c-0.1-0.1-0.1-0.2-0.2-0.4c-0.9-1.6-1.7-3.2-2.7-4.8c-11.6-20.4-28.8-42.7-40.4-42.7
			c-11.6,0-28.7,22.3-40.4,42.7c-0.9,1.6-1.8,3.2-2.7,4.8c-0.1,0.1-0.1,0.2-0.2,0.4c-1,1.9-2,3.8-2.9,5.7c-0.1,0.1-0.1,0.3-0.2,0.4
			c-1.8,3.7-3.3,7.1-4.4,10.1c8,21.4,13.3,42.7,13.3,64.1s-5.3,42.7-13.3,64.1c1.1,3,2.6,6.4,4.4,10.1c0.1,0.1,0.1,0.3,0.2,0.4
			c0.9,1.8,1.9,3.7,2.9,5.7c0.1,0.1,0.1,0.2,0.2,0.4c0.9,1.6,1.7,3.2,2.7,4.8c11.6,20.4,28.8,42.7,40.4,42.7
			c11.6,0,28.7-22.3,40.4-42.7c0.9-1.6,1.8-3.2,2.7-4.8c0.1-0.1,0.1-0.2,0.2-0.4c1-1.9,2-3.8,2.9-5.7c0.1-0.1,0.1-0.3,0.2-0.4
			c1.8-3.7,3.3-7.1,4.4-10.1c-8-21.4-13.3-42.7-13.3-64.1s5.3-42.7,13.3-64.1c-1.1-3-2.6-6.4-4.4-10.1c-0.1-0.1-0.1-0.3-0.2-0.4
			C464.5,221.6,463.5,219.7,462.5,217.8z M432.6,226.3c0,34.7-10.7,56.1-10.7,56.1V170.3C421.9,170.3,432.6,191.6,432.6,226.3z
			 M416.6,170.3v112.1c0,0-10.7-21.4-10.7-56.1C405.9,191.6,416.6,170.3,416.6,170.3z M405.9,369.7c0-34.7,10.7-56.1,10.7-56.1
			v112.1C416.6,425.7,405.9,404.4,405.9,369.7z M421.9,425.7V313.6c0,0,10.7,21.4,10.7,56.1C432.6,404.4,421.9,425.7,421.9,425.7z
			 M429.9,298c0,8.8-4.8,16-10.7,16c-5.9,0-10.7-7.2-10.7-16c0-8.8,4.8-16,10.7-16C425.1,282,429.9,289.2,429.9,298z"/>
		<path d="M470,362.1c8-21.4,13.3-42.7,13.3-64.1s-5.3-42.7-13.3-64.1c-8,21.4-13.3,42.7-13.3,64.1S462,340.7,470,362.1z"/>
		<path d="M368.5,233.9c-8,21.4-13.3,42.7-13.3,64.1s5.3,42.7,13.3,64.1c8-21.4,13.3-42.7,13.3-64.1S376.5,255.3,368.5,233.9z"/>
		<ellipse fill="#FFFFFF" cx="419.2" cy="298" rx="10.7" ry="16"/>
		<path fill="#FFFFFF" d="M421.9,313.6v112.1c0,0,10.7-21.4,10.7-56.1C432.6,335,421.9,313.6,421.9,313.6z"/>
		<path fill="#FFFFFF" d="M416.6,282.4V170.3c0,0-10.7,21.4-10.7,56.1C405.9,261,416.6,282.4,416.6,282.4z"/>
		<path fill="#FFFFFF" d="M416.6,313.6c0,0-10.7,21.4-10.7,56.1c0,34.7,10.7,56.1,10.7,56.1V313.6z"/>
		<path fill="#FFFFFF" d="M421.9,282.4c0,0,10.7-21.4,10.7-56.1c0-34.7-10.7-56.1-10.7-56.1V282.4z"/>
	</g>
	<path fill="none" stroke="#999999" stroke-width="0.25" stroke-linecap="round" stroke-linejoin="round" d="M551.9,397.3l-1.2-0.4
		l-1.1-0.1l-0.5,0.6l-0.4,0.8l-0.8,0.4l-1,0.3l-0.8,0.4l-0.5,0.9l-0.5,1.3v0.9l0.9-0.2l0.1,0.5l0.2,0.4l0.3,0.3h0.5l0.2-0.4
		l-0.3-0.3l-0.4-0.3l-0.2-0.3l0.1-0.6l0.3-0.4l0.4-0.1l0.4,0.3l1.5-0.8l0.7-0.3l0.5-0.1l0.1,0.1l0.1,0.2l0.2,0.2l0.3,0.1l0.2-0.1
		l0.1-0.1l0.1-0.1l0.1-0.1l0.3-0.1l0.2-0.3l0.1-0.5l0-0.4l0.6,0.9l0.8-0.2l0.3-0.8l-0.8-1.3L551.9,397.3z M581.2,152.5l-1.8-0.4
		l-1.8-0.9l-2-0.6l-1.7,1l-0.6,0.1l-0.6-0.1l-1.1-0.4L571,151l-3.3,0.8l-1.1,0.1l-2.1,0.6l-4.6,0.2l-4.2,0.2l-2.1-0.2l-2-0.8
		l-1.8-1.4l-2.6-3.7l-1.1-1l-0.7-0.4l-2-0.6l-0.8-0.4l-0.4-0.4l-0.7-1.3l-1-1.1l-2.5-1.7l-0.9-1.2l-2.6,1.7l-3.4,1.3l-4.3,1.6
		l-5.3,2l-0.2,0.2l-0.2,0.6l-0.2,0.2l-3.2,1.1l-4.2,1.4h-0.1l-0.1,0l-0.1-0.1l-0.4,0l0,0.1l0,0.2l-0.2,0.2l-1.9,0.9l-4,1.9l-3.5,1.7
		l-3.5,1.7l-0.8,1l-0.8,2.1l-1.1,3l-0.7,1.3l-0.8,1l-3.2,2.9l-2.7,2.4l-1.1,1.3l-0.9,2.7l-0.7,1.1l-1.3,0.1l-0.7-0.4l-0.3-0.5
		l-0.2-0.6l-0.4-0.4l-1.3-0.4l-5.1-0.2l0.4-0.7l-0.2-0.4l-0.5-0.1l-1.9,1.1l-1.6,0.1l-1.6-0.4l-4.2-1.9l-0.4-0.1l-2.4,0.5h-0.6
		l-0.6-0.2l-0.7-0.1l-1.7,0.3l-1.1,0l-3.1-0.8l-4-1.1l-0.7-0.4l-0.6-0.7l-1.1-1.4l0,0.2l-0.1,0.6l0,0.3l-2.4-0.2l-0.2-0.1l0-0.2
		l-0.1-0.1l-0.6,0.2l-0.2,0l-0.5,0l-0.6-0.2l-0.2-0.2l-0.1-0.3l-0.3-0.4l-0.8-0.7l-0.2-0.1l-0.4,0.2l-0.1,0.3l0,0.4l0,0.2l-2.1,0.9
		l-2.3,0.2l-4.4-0.5l-4.4-0.5l-1.3,0.1l-1.3,0.3l-0.5-0.1l-0.9-0.8l-1.2-0.4l-0.5-0.3l-0.6-0.7l-1-1.7l-0.8-0.8l-1.3-0.8l-4.1-2.6
		l-3.9-2.5l-4.2-2.7l-3.8-2.4l-3.3-2.1l-4.7-3l-4-2.5l-4-2.6l-2.2-1.4l-0.2-0.1l-0.2,0l-0.2-0.1l-0.1-0.2l-0.2-0.9l-0.2-0.4
		l-0.3-0.4l-0.3-0.1l-0.8,0l-0.3-0.2l-0.7-1.1l-0.4-0.3l-1.7-0.4l-2.9-1.5l-2.4-0.7l-7.9,0.1l-0.3-0.1l-0.6-0.4l-0.4-0.1l-6.4,0.1
		l-7.6,0.1l-0.5-0.1l-0.7-0.3l-0.4-0.1l-0.4,0l-1.4,0.2l-6.2,0l-0.9-0.2l-0.9-0.6l-1.6-1.4l-0.7-0.4l-0.3-0.6l0-0.7l0.1-0.8l0-0.8
		l-0.5-1l-0.1-0.7l-3.7-3.9l-1.9-2l-1-1.7l-0.3-2v0l0.2-8.6l0.2-0.5l1.6-2l0.3-0.8v-0.9l-0.4-1l-0.8-1.5l-0.1-0.8l0.3-1l1.1-1.6
		l-0.2-0.4l-2.3-0.9l-2.7-1.6l-1-0.3l-0.8,0.2l-0.7,0.3l-1,0.2l-1-0.3l-1.8-1.4l-0.9-0.5l-0.7-0.2l-0.9-0.1h-0.9l-0.7,0.2l-0.9,0.6
		l-1.7,1.8l-0.9,0.6l-1,0.2l-0.8-0.4l-0.6-0.7l-1.3-2.1l-0.2-0.4l0-0.5l0.3-0.4l0.4-0.4l0.2-0.5l-0.2-0.5l-2.3,2.2l-2.3,2.2
		l-2.3,2.2l-2.3,2.2l-2.3,2.2l-2.3,2.2l-2.3,2.3l-2.3,2.2l-2.3,2.2l-2.3,2.2l-2.3,2.3l-2.3,2.2l-2.3,2.2l-2.3,2.2l-2.3,2.2L275,125
		l-4.1,4.1l-4.2,4.1l-4.2,4.1l-4.1,4.1l1.2,0.6l0.9,0.7l0.5,0.9l-0.1,1.3l0.1,0.5l0.4,0.5l0.5,0.4l0.3,0.5l0.1,0.5l0,0.5l-0.1,1
		l-0.2,0.6l-0.2,0.4l0,0.4l0.3,0.7l0.5,0.4l0.6,0.4l0.5,0.5l0.1,0.7l-0.4,1l-0.5,0.9l-0.1,0.7l1,0.4l0.6-0.1l1.6-0.6l0.8,0l0.9,0.5
		l0.1,0.5l-0.4,0.5l-2,1l0.1,0.2l0.6,0.2l0.5,0.6l-0.8,0.5l-0.3,0.3l0.5,0.2l0.3,0l0.7-0.2l0.8-0.1l0.8-0.2l0.4,0l0,0.2l0.9,1.2
		l0.6,1.6l0.5,0.2l0.2-0.1l0.2-0.4l0.4-0.4l1.1-0.3l0.7,0.3l1.3,1.4l0.8,0.4l0.8,0.2l0.6,0.4l0.3,0.8l-0.1,3.3l-0.4,1.6l-0.8,1.2
		l-0.4,0.2l-0.4,0.1l-0.4,0.2l-0.2,0.4l0,0.4l0.5,0.9l0.2,0.4l-0.1,0.4l-0.4,1l-0.1,0.5l0.1,0.5l0.3,0.4l0.4,0.4l0.3,0.5l0.5,1.6
		l0.4,5l0.4,0.9l0.9,0.6l1.9,0.5l0.9,0.5l0.5,0.9l1.2,6.2l0.4,0.7l1.3,1.4l0.6,1l0.4,0.4l0.6,0.1l0.3-0.1l0.5-0.4l0.2-0.1l0.1-0.1
		l0.2-0.3l0.1-0.1l0.2,0.1l0.1,0.1l0.1,0.2l0.1,0.1l0.1,0.1l1.2,0.6l0.2,0.1l0.3,0.3l0.2,0.4l0.8,2.6l0.6,3.5l1.7,3.6l0.4,0.4l0.6,0
		l0.3-0.3l0.3-0.3l0.4-0.1l0.4,0.6l0.2,2l0.2,0.8l1.1,1.1l0.4,0.7l-0.1,0.9l-0.6,0.7l-0.8,0.5l-0.7,0.6l-0.4,1l0.3,1.6l2.3,5.6
		l1.9,4.4v0.8l-0.4,1.8l-0.1,0.8l0.1,0.8l0.2,0.8l0.3,0.7l0.4,0.4l1,0.9l0.2,0.5l-0.2,0.4l-0.8,1l-0.2,0.5l0,7.9l-0.3,0.9L298,249
		l-0.3,0.5l-0.4,0.4l-0.4,0.2l-0.9,0.2l-0.4,0.2l-0.9,1.4l-0.9,3.3l-2.4,2l0.2,1.4l0.7,1.7l0.4,1.6l-0.5,1.6l-1.3,0.6l-3.4,0.4
		l-0.9,0.5l-1.4,1.4l-2,0.4l-0.3,0.7l-0.1,0.9l-0.4,0.7l-0.9,0.2l-0.7-0.4l-0.7-0.1l-0.8,0.8l-0.4,0.7l-0.3,0.8l-0.2,0.9l0,1.8
		l-0.2,0.9l-1.1,2.6l-1.2,1.5l-0.6,1.7l-0.7,0.6l-2.6,1.3l-0.3,0.4l-0.3,1.4l-0.7,1.8l-1,1l-1.3,0.7l-1.7,0.6l-1.2,0.8l-0.7,1.2
		l-1,4.2l-0.1,0.3l-0.3,0.4l-0.7,0.8l-0.2,0.4l0.1,0.7l0.5,1.5l-0.1,0.9l-0.4,0.5l-1.5,1.1l-3.7,4.8l-2.4,3.2l-0.1,0.8l1.3,4.2
		l1.3,4.2l0,1.6l-0.8,6.5l-1,8.4l-0.7,5.9l0.2,5.6l0.2,8.3h3.1l0.2,0l0.6,0l0.1,1.1l0.6,0.4l1.5,0.1l3.1,1.7l8.8,4.9l8.8,4.9
		l8.8,4.9l8.8,4.9l8.8,4.9l8.8,4.9l8.8,4.9l8.8,4.9l8.8,4.9l8.8,4.9l8.8,4.9l8.8,4.9l8.8,4.9l8.8,4.9l8.8,4.9l8.8,4.9l3.4,1.9l0.6,1
		l0.7,4.4l0.9,5.5l-0.7,0.1l-0.4,0.4L410,450l0.1,0.7l-0.8,0l-1,0.5l-0.9,0.7l-0.6,0.7l-0.2,0.3l-0.2,0.5l-0.1,0.5l0.1,0.4l0.3,0.3
		l0.7,0.1l0.2,0.3l-0.2,0.7l-0.3,0.8l0.1,0.6l2-0.1l0.9,0.1l0.9,0.2l0.8,0.4l0.6,0.5l0.3,0.7l0.7,2.5l0.4,0.8l0.6,0.7l2.2,1.6
		l3.5,2.5l3.5,2.5l3.5,2.5l3.5,2.5l3.5,2.5l3.5,2.5l3.5,2.5l3.5,2.5l3.5,2.5l3.5,2.5l3.5,2.5l3.5,2.5l3.5,2.5l3.5,2.5l3.5,2.5
		l3.5,2.5l0.1-0.2l0.1-0.1l0.1,0l0.2-0.1l0.8-0.6l0.8-1.2l0.9-0.9l1.2,0.4l0.2-0.6l0-0.2l1,1.2l1.6,0.4l1.4-0.2l0.4-0.6l-0.6-0.9
		l-0.1-0.4l0.1-0.6l0.3,0l0.3,0.2l0.2,0l0.3-0.6l0.2-0.6l0.3-0.6l0.5-0.4l0.2,0.6l-0.1,1.2l0.3,0.8l1.4-4.2l0.1-0.2l0.6-0.5l0.1-0.2
		l0-0.5l0.1-0.2l0.3-0.5l0.4-0.4l0.4,0l0.4,0.6l0.5-1.2l1.3-5l1.3-3.3l2.1-3.5l0.2-1l-0.8-0.7l-1.4-0.4l-1.4,0.1l-0.6,0.8l-0.2-0.4
		l-0.1-0.4l0-0.9l0.2-0.3l0.4-0.1l0.5,0h0.4l1.3-0.3l0.4-0.3l0.3-0.7l-1.1-0.2l-0.5-0.2l-0.4-0.4l0.5-0.4l0.5,0.1l1,0.6l0.7-0.6
		l0.1,0.6l-0.1,0.9l0.3,0.5l0.3,0.2l0.3,0.9l0.4,0.2l0.4-0.2l0.4-0.4l0.3-0.5l0.1-0.4l0.1-0.3l0.9-1l0.1-0.7l-0.4-0.2l-0.9,0.1
		l-0.4-0.4l-0.2-0.4l-0.1-0.4l-0.3-0.4l-0.2-0.4l0.3-0.3l0.9-0.5l0,1.4l0.8,0.6l1.2-0.2l1.1-1l3.3-9.1l0.1-1.3l-0.1-0.6l-0.3-0.6
		l-0.5-0.3l-1.4,0.6l-0.6-0.2l-0.2-0.5l0.5-0.6l-0.8,0l-0.5-0.4l-0.1-0.6l0.3-0.7l0.4,0.3l0,0.2l-0.2,0.4l1.1,0.1l0.2,0.1l0.5,0.6
		l0.2,0.1l0.9,0.4l0.4-0.1l0.5-0.5l0.5-1l0.4-2.3l1.1-1.8l0.8-2.2l0.7-1.2l-0.1-0.2l-0.2-0.2l-0.1-0.2l0.2-1l0-0.4l0-0.6l0.1-0.5
		l0.3-0.4l0.7-0.2l-0.1,0.6l-0.4,1.5l-0.3,0.7l0.7-0.1l0.6-0.4l1-1.1l0.5-0.4l2-0.9l0.6-0.4l0.5-0.5l0.4-0.6l0.2-0.6l0-0.8l-0.4-1.5
		l0-0.6l1.4-2l0.3-0.7l0.2-2.1l0.2-0.5l0.9-1.2l1.5-1.3l0.3-0.5l0-0.5l-0.8,0.6l-0.9,0.1l-0.5-0.5l0.2-1.1l-0.9-0.7l0.1-1.3l0.8-2.6
		l0-0.4l0.1-0.6l0-0.3l-0.6-0.8l-0.1-0.3l0.2-0.7l1.2-1.5l0.8-1.7l0.4-0.6l0.5-0.5l2.1-1.7l1.2-0.7l1-0.3l1.7-1.2l4.2-1.3l1.3-0.1
		l1.3,0.3l1.2,0.5l1.3,0.3l1.4-0.5l2.5-3l1.9-0.8l1.3-0.9l1.1-1.1l0.5-0.9l-0.3-0.6l-1.2-0.8l-0.3-0.6l0.3-0.5l0.1-0.3l-0.2-0.1
		l-0.3-0.1l-0.2-0.3l-0.1-0.4l0-0.4l0.8,0.5l0.9-0.7l0.9-1.1l1-0.6l0.6-0.1l0.3-0.1l-0.1-0.1l0.4,0.2l0,0.2l-0.1,0.2l0.2,0.3l1,1
		l0.6,0.4l0.7,0.2l-1.3,0.7l0.1,0.4l0.9-0.2l1-1.2l0.5-1.1l-0.1-0.5l-0.4-0.6l-0.5-0.4l-0.5,0l-0.5,0.1l-0.4-0.1l-0.5-1l-0.3-1.6
		l-0.1-3l-0.1-0.2l-0.3-0.1l-0.3-0.1l-0.1-0.4l0.1-0.2l0.4-0.2l0.1-0.3l-0.1-0.6l-0.4-0.5l-0.5-0.1l-0.7,0.3l0.1-0.5L541,395
		l-0.3-0.6l0.5-0.6l0.4,0.2l0.4,0.4l0.4,0.2l0.7,0.6l0.8,2.5l0.8,0.6l0.9-1.1l0.2-4.8l1.5-1.1l-0.6,0.9l-0.2,0.5l0.1,0.6l0,0.5
		l-0.4,1.2l0,0.6l0.2,0.6l0.3,0.4l0.4,0.3l0.5,0.3l0.6,0.1l0.4-0.5l0.4-0.6l1.1-0.4l0.8-0.9l0.5-0.3l0.4,0l1.6,0.4l1.2,0.1l0.4-0.9
		l0.2-1l0.8-0.8l0.1,0.9l0.5,0.5l0.7,0.1l0.8-0.3l0.6,0.8l0.9-0.5l1.5-1.8l2.3-2.1l0.9-0.5l0.2-0.7l1.5-2.2l3.1-3.2l0.1-3.4
		l-0.1-0.8l-0.5-0.9l-1.6-2l-2.1-2.6l-2.1-2.6l-2.1-2.7l-2-2.6l-1.9-2.4l-2.3-2.9l-2.1-2.7l-2-2.6l-1-1.3l-1-1.3l-1-1.3l-1-1.3
		l0-3.1l0-2.9l0-2.9l-0.1-4.4l-0.1-4.4l-0.1-4.4l-0.1-4.4l0-2.7l0-2.8l-0.1-3.3v-102l-0.1-5.5l-0.1-5.3l0-2.2l0.6-1.1l1.4-1.4
		l3.4-3.3l3.4-3.3l3.4-3.3l3.4-3.3l2.1-3l2.1-3l2.1-3l2.1-3l3.4-4.9l3.4-4.9l3.4-4.9l3.4-4.9L581.2,152.5z"/>
</g>

</svg>
