<?xml version="1.0" encoding="utf-8"?>

<svg version="1.2" baseProfile="tiny" xmlns="http://www.w3.org/2000/svg" xmlns:xlink="http://www.w3.org/1999/xlink" x="0px"
	 y="0px" viewBox="295.2 172 249.7 250" xml:space="preserve">

<g id="Kiribati">
	<g>
		<polygon fill="#CE1126" points="383.9,215.9 383.2,216.3 383,217 383.6,218.5 384.5,220.1 385.1,220.2 385.7,219.4 385.6,217.7
			"/>
		<polygon fill="#CE1126" points="386.1,221.4 385.2,222.7 386.3,224.2 387.9,223.7 389.8,225.3 390.4,224.6 389.4,221.5
			390.4,219.2 390.4,218 389.4,216.6 388.4,216.6 386.8,218.3 386.7,219.6 387.3,221.3 386.7,221.8 		"/>
		<polygon fill="#CE1126" points="363.9,199 362.6,197.7 360.8,197.7 359.2,199.4 359.2,200.4 360.6,203.1 362,204.3 363.8,204.2
			366,206 367.2,205.9 367.6,205.4 367.5,202.9 368.4,200.2 367.9,199.3 367.8,195.3 367.4,194.9 366.6,195.5 365.3,196.1
			364.2,197.3 364.8,198 364.7,199 		"/>
		<polygon fill="#CE1126" points="375.1,227.5 375.9,226.5 376,225.8 375.4,225.2 373.9,225.3 372.9,226.5 372.9,227.5 373.3,228.2
			373.9,227.6 		"/>
		<polygon fill="#CE1126" points="339.4,247.3 340.1,246.2 339.6,245.8 339.3,245.8 338.7,246.3 338.9,247.2 339.1,247.5 		"/>
		<polygon fill="#CE1126" points="343.8,292.5 343.8,293.3 344.9,294.5 345.9,294.4 346.3,293.6 346.3,293.1 345.1,291.9 344.1,292
					"/>
		<polygon fill="#CE1126" points="318.2,285.5 317.5,286.2 317.3,286.7 318.5,287.9 319.5,287.7 320.1,286.7 319.2,285.5 		"/>
		<polygon fill="#CE1126" points="340.5,239.4 341.4,240 342.6,239.9 344.2,238 344.6,235.3 344.4,232.5 343.5,231.7 342.5,231.7
			341.8,232.6 341.5,234.2 342,234.7 342,236.9 340.5,238.3 		"/>
		<polygon fill="#CE1126" points="394.4,223.8 394.5,223.2 394.2,222.1 393.5,222 392.6,223.6 392.6,224.9 393,225.1 		"/>
		<polygon fill="#CE1126" points="359.4,194.2 358.5,194.3 357.1,195.6 358,196.6 359.5,196.6 360.2,195.9 360,194.9 		"/>
		<path fill="#CE1126" d="M355.1,296.3L355.1,296.3l-0.7-0.8l-1.1,1C353.9,296.5,354.5,296.5,355.1,296.3z"/>
		<path fill="#CE1126" d="M334.4,304.5l1.1-0.7l0.7,0.2c5.5-1.7,11-3.6,16.4-5c-0.6-0.5-1.1-1-1.6-1.6l-1.4-1.6l1.7,0.5l-1.1-1.2
			L349,295l-0.6,0.7l0.2,1.1l-6.1-3.4l-1.7-3.4l-2.1-2.2l-1.5-0.6l-1.9,0.9l-1.2,1.9l1.3,1.6l1.9-0.1l2,0.9l0.2,0.8H337l-0.7-0.5
			h-1.9l-0.9-0.7l-2.3,0l-0.7-0.6l-5-0.7l-2,1.3l-1.5-0.7l-1.9,0.1l-1.5-0.8l-3.1,1.4l-0.8-0.1l-1.2,0.8l-1.3,2.4l0,0.6l0.9,0.5
			l-0.2,0.5l-1.5,2.3l-1.5,0.6l0.9-1.6l-0.6-0.7l-1,0.7l-1.4,0l1.5-0.7l1.5-1.7l0-2l-1.6-2.8l0-1.2l1.4-2.7l0.8-4.7l0.6-2.5l3.5-4.2
			l3.5-2.6l1-2.5l0.9-1l0.7,0l0.5-1.3l2.5-2.3l2.1,0l0.5,0.7l-1.5,1.7l-2.1,0.7l-1.5,1.8l0.1,0.6l1,0.2l1.5-1.7h1.4l2.3-1.8l2.7-7
			l0.9-1l1.6-0.6l1.6-1.7l1.8-0.2l2-2.4l-0.1-2.2l-1.5-1.2l-5.8,4.8l-1.1,0.1l-1.9,1.5l0,0.8l-2.6,1.6l-2.1,2.6l-3.6,2.4l-1.4,1.7
			l-2.4,0.6l-0.7,0.6l-1.2,1.6l-2.8,2.3l0.1,1l-1.5,4l-2,4.4l-7.1,7.1l-1.4,0.7l-1.1,1.6l-2.3,1.3l-0.8,0.9l-0.4,2.7l0.1,2.3l4,5.7
			l2.3,3.1l0,0.1c4,0.9,8,1.5,12,1.5C320.5,308.4,327.4,306.7,334.4,304.5z"/>
		<polygon fill="#CE1126" points="361.8,205.4 360.7,205.6 360.2,206.9 361.2,208.3 362.8,209 364.1,208.9 364.9,207.8 364.2,206.8
					"/>
		<path fill="#CE1126" d="M397.2,234.4c0.3-0.1,0.6,0,0.8,0.3l6,9.5c-0.1-5.8,0.2-11.4,3.6-15.2l1.3-1.5l-0.2,2
			c-0.3,3.6,2.8,7.3,5.9,10.8c0.7,0.8,1.4,1.7,2.1,2.5l2.6-11.9c0.1-0.3,0.3-0.5,0.6-0.5s0.6,0.2,0.6,0.5l2.5,11.3
			c2-5.5,4.3-10.8,8.5-13.4l1.9-1.1l-0.9,2c-1.5,3.3,0.2,7.7,1.9,12c0.4,1,0.8,2.1,1.2,3.1l6.4-10.2c0.2-0.3,0.5-0.4,0.8-0.3
			c0.3,0.1,0.5,0.4,0.4,0.7l-1.5,11.3c3.7-4.5,7.6-8.6,12.5-9.5l0.2,0l0.5-1.1l-0.1-5.6l-0.1-2.5l-0.6-0.7l-0.3-2.2l-1.1-0.9
			l-0.2-0.7l-2.3-4.3l-3.2-3.7l-2.9-1l-0.8-0.5l-3.1,0l-1.3-0.7l-2.1,0.1l-2.3,0.2l-2-0.2l-0.9-0.6l-1.9,0.1l-0.7-0.6l-2.8-0.1
			c-3.8,1.3-7.5,2.2-11.1,2.2c0,0-0.1,0-0.1,0c-8.6-0.1-17.6-4-22.4-9.9L383,204c-1.8-0.1-3.7-2-4-3.4c-0.2-0.7,0.1-1.3,0.6-1.6
			l0.1-0.1l9.6-0.3c1.1-0.8,2.4-1.6,4.1-2l-1.2-0.7l-4.2-3.5c-2.1-0.4-4.2-0.8-6.2-1.1c-7.8-1.2-22-4.2-28.6-10.7l0.5-0.9
			c8.3,2.4,18.9,3.8,28.3,4.8l-0.4-1.8l-1.1-2.6l-1.1-1.1l-3.1-2.4l-4.5-1.1l-0.6-0.7h-1l-3.9-1.7l-3-0.6l-1.7-0.7H356l-0.7,0.7
			l-2.1-0.1l-7.9,0.2l-2.8-0.1l-2.7,0.8l-0.4,0.5l-2.7,0.7l-2.9,2.1l-1.5,5.5l0.1,2.3l0.5,0.5l0.7,3.6l1.6,2.4l3.1,5.7l0.2,1.3
			l1,1.1l0.2,1.3l2.6,6.3l0.4,2.8l-0.1,3.5l0.6,1.1l0,2.6l1,2.3l0.5,1.2l2.4,0.2l2.1,1.7l1.3-0.3l0.2-0.9l-1.2-2.7l0.1-1.7l1.4-2.1
			l0.1-1l-0.4-0.7l-3.8,0l-0.3,1l1,1.1l-0.2,0.7l-0.9,0.1l-0.5-1.1l-0.5-4.8l-0.5-4.4l-1.5-4.6l-0.3-2.1l-0.8-1.5l-0.8-0.4l0-1.1
			l1-3.3l0.9-0.6l1.6-0.7l2.1,0.1l1.7-2.3l2.7-1l0.2-1.2l1-0.7l0.1-0.7l3.1,0.1l1.5,1l-1.5,1.2l-0.5,1.5l0.1,1.4l-1.8-1.7l-1.1,0.3
			l-0.3,0.6l1.6,2l-0.8,0.8l2.2,1.8l1.3-0.1l0.9-0.8l0.1-4l0.6-1l1.7,1.3l0.2,1l-0.9-0.5l-0.5,0.7l2,2.1l1.1,0.2l3.3-1.9l-1.2,2.3
			l1.8,1.9l1.5-0.1l1-1.1l0.6,0.1l0.2,6l0.8,0.9l1.7,0.6l0.1,1.1l-0.4,0.5l-0.5,1.2l0.5,0.6l1.2-0.2l1.7-1.1l1.2,0.1l1.9,1.2
			l1.2-1.7l0,1.5l0.5,0.8l0.8,0.6l2.2-0.1l-2.9,1.2l-0.4,0.7l1.5,1l2.5,0.6l1,2.5l0.5,1.5l1.7,2.2l1.3-0.4l1.2,1.1l2.5-0.5l0.8,2.1
			l4,4.4l0.2,2.8l-0.8,0.8l-1.9-0.6l-0.5,0.9l0.7,1.2l-0.5,0.8l-2-0.5l-1,0.7l-0.3,0.9l0.7,2.5l1.7,2.1l0.7,0.3l0.4,1.4l1.1,0.2
			l0.6-0.5l0.1-1.2l1.2-0.3l0.8-1l-0.6-2l0.5-0.3l0.2,0.6l0.4,0.6l0,2.8l-0.5,0.7l-1,0l-1.4,2.1l-1.6-1.7h-2.4l-0.5,0.4l-0.1,0.7
			l0.6,0.6l2.1,0.6l0.2,1.4l0.8,0.8l4.9,0.7l-0.8-6C396.8,234.8,396.9,234.5,397.2,234.4z"/>
		<polygon fill="#CE1126" points="355.7,289.8 355.6,290.3 357.1,293.2 358.2,291.9 358.3,290.5 360.4,289.5 361,288.7 359.8,288.2
					"/>
		<path fill="#CE1126" d="M397.8,242.8l-1.1-1.1l-1.9,0.1l-0.9,1.4l2.4,2.8c0.8,0.4,1.5,0.9,2.2,1.3L397.8,242.8z"/>
		<polygon fill="#CE1126" points="379.4,210.1 378.2,210.1 377.8,210.6 377.9,212 379.9,214.2 381.3,213.8 381.4,213.1 380.9,211.8
					"/>
		<path fill="#FCD116" d="M430.7,231.2c-3.3,3-5.2,8.3-7.1,13.5l3.1,14.2l7.9-12.6c-0.4-1.3-1-2.7-1.5-4.1
			C431.7,238.5,430.2,234.6,430.7,231.2z"/>
		<path fill="#FCD116" d="M443.8,246l1.9-1.1l1.4-1.2l3.5-1.2l0.9-0.7c0.2-1,0.6-2,1.1-2.9C449.3,240,446.5,242.8,443.8,246z"/>
		<polygon fill="#FCD116" points="400,258.9 399.6,259.2 398.7,259.9 398,261.4 397.5,259.8 396.2,259.1 395.8,259.7 400.7,263.5
			"/>
		<path fill="#FCD116" d="M397.3,248.1l0.3,1.6l1.3,0.8l-0.2-1.6C398.2,248.7,397.8,248.4,397.3,248.1z"/>
		<path fill="#FCD116" d="M407.5,231.4c-2.4,3.9-2.3,9.5-2.1,15.1l7.9,12.5l3.1-14.4c-0.8-1.1-1.8-2.2-2.8-3.3
			C410.9,238.1,408.1,234.8,407.5,231.4z"/>
		<polygon fill="#FCD116" points="390.4,252 391,252.9 391.5,252.8 392.9,251.2 393,250.3 392.3,249.8 390.8,251 		"/>
		<polygon fill="#FCD116" points="396.1,251.5 397.2,251.5 397.6,251 397.2,250.4 396.2,250.4 395.6,251.1 		"/>
		<path fill="#FCD116" d="M377,297.6l-1.1-2.4l0.1-0.4l-7.5-3.1l3,3.1l2.2,1.4l0.9,1.4c1,0.2,2,0.3,3,0.6L377,297.6z"/>
		<path fill="#FCD116" d="M353.3,297.9c0.2,0.2,0.4,0.3,0.7,0.5l0.6-0.6C354.2,297.9,353.7,297.9,353.3,297.9L353.3,297.9z"/>
		<polygon fill="#FCD116" points="395,249.9 395.6,249.2 395.5,248.1 394.9,247.5 391.9,247.6 391.6,248.2 394,249.3 		"/>
		<polygon fill="#FCD116" points="383.3,283.5 383.3,283.6 383.4,283.8 383.7,283.8 		"/>
		<polygon fill="#FCD116" points="390.1,271.7 389.7,271.9 390.4,272.1 		"/>
		<path fill="#FCD116" d="M360.4,295.7l-2.2,1.2l-0.9,1.1l0,0c1.2-0.2,2.4-0.4,3.6-0.6l-0.2-1.5L360.4,295.7z"/>
		<path fill="#FCD116" d="M370.7,296l-0.5-1.1l-3.1-1.7l-0.6,0.8l1,1.4l0.8,0.3l-0.6,1l0.1,0.3c1,0,2,0.1,3,0.2L370.7,296z"/>
		<path fill="#FCD116" d="M354.9,298l-0.1,0.5c0.4-0.1,0.8-0.2,1.2-0.3L354.9,298z"/>
		<polygon fill="#FCD116" points="375.7,283.8 373.6,284.1 373.6,284.2 376,284.1 		"/>
		<path fill="#BD9C08" d="M353.2,296.7l0.1,1.2c0.4,0,0.9,0,1.3-0.1l0.5-0.5l0-1c-0.6,0.1-1.2,0.2-1.8,0.2L353.2,296.7z"/>
		<path fill="#BD9C08" d="M408.8,229.5l0.2-2l-1.3,1.5c-3.4,3.8-3.7,9.5-3.6,15.2l1.4,2.2c-0.2-5.5-0.3-11.1,2.1-15.1
			c0.6,3.4,3.4,6.7,6.1,9.8c1,1.1,1.9,2.2,2.8,3.3l0.4-1.7c-0.7-0.9-1.4-1.7-2.1-2.5C411.6,236.8,408.4,233.1,408.8,229.5z"/>
		<path fill="#BD9C08" d="M432.5,229.7l0.9-2l-1.9,1.1c-4.2,2.5-6.5,7.8-8.5,13.4l0.5,2.5c1.8-5.3,3.7-10.6,7.1-13.5
			c-0.5,3.4,1,7.3,2.4,11.1c0.5,1.4,1.1,2.8,1.5,4.1l0.9-1.4c-0.4-1-0.8-2.1-1.2-3.1C432.7,237.5,431,233,432.5,229.7z"/>
		<path fill="#BD9C08" d="M350.9,297.4c0.5,0.6,1.1,1.1,1.6,1.6c0.1,0,0.3-0.1,0.4-0.1l-0.2-0.2l-0.2-1l-1.3-1.4l-1.7-0.5
			L350.9,297.4z"/>
		<path fill="#BD9C08" d="M441.7,246.4l-0.1,0.4l1.3-0.4l0.9-0.5c2.7-3.2,5.5-6,8.8-7.2c-0.5,0.9-0.8,1.9-1.1,2.9l1.2-0.9l0.9-1.8
			l0.8-2l-0.2,0C449.2,237.8,445.3,241.9,441.7,246.4z"/>
		<path fill="#BD9C08" d="M398.4,247.3c-0.7-0.4-1.5-0.9-2.2-1.3l0.9,1.1l0.2,1.1c0.5,0.3,0.9,0.6,1.4,0.8L398.4,247.3z"/>
		<path fill="#BD9C08" d="M353.4,298.3l0.4,0.3l0.2-0.2c-0.2-0.2-0.5-0.3-0.7-0.5L353.4,298.3z"/>
		<path fill="#FCD116" d="M427.4,260.3c2.1,0.4,4.2,1.1,6.2,1.8l0.4-0.4l0.6-3.6l1.3-4.6l2-3.5l1.5-2.4l0.9-0.3l1.3-9.3L427.4,260.3
			z"/>
		<polygon fill="#FCD116" points="377.2,292.7 378.3,289.9 378.3,287.3 378.7,286.6 377.3,285.4 375,285.4 375.6,285.7 375.5,286.9
			376.1,288.7 375.6,291 374.3,292.5 373.8,292.5 376.5,293.6 		"/>
		<path fill="#FCD116" d="M396.6,267.5l-0.2-2.4l-0.5-0.6l-1.7,2.1l0.3,2.3l0.3,0.3c0.6-0.5,1.2-1,1.8-1.5L396.6,267.5z"/>
		<polygon fill="#FCD116" points="383.4,285.2 384.2,285.6 384.4,285.1 383.4,285.1 		"/>
		<path fill="#FCD116" d="M386.5,280.2l-2.7-0.2l-0.1-0.7l1.1-1.3l0-0.6l-0.8-0.6l-1.8,1.7l-0.7,1.5l1.3,1.2l0.4,0.2l0,0.2l2,1.8
			C385.5,282.3,386,281.2,386.5,280.2z"/>
		<path fill="#FCD116" d="M382.6,299.4L382.6,299.4C382.6,299.4,382.6,299.4,382.6,299.4C382.6,299.4,382.6,299.4,382.6,299.4z"/>
		<path fill="#FCD116" d="M400.2,264.8l0,0.4c0.1,0,0.2-0.1,0.2-0.2L400.2,264.8z"/>
		<path fill="#FCD116" d="M386.8,276.8l-1,1.2l0,1l0.6,0.9l0.4,0c0.5-0.9,1-1.8,1.6-2.7l-0.2-0.2L386.8,276.8z"/>
		<path fill="#FCD116" d="M389.5,273.3l0.3,0.7l0,0.7c0.3-0.3,0.5-0.7,0.8-1L389.5,273.3z"/>
		<path fill="#FCD116" d="M412.6,260.3l-14-22.3l0.5,3.4l0.9,0.1l-0.4,1.3l-0.3,0.3l1.1,7.7l0.4-0.1l0.2-0.7l0.4,0.9l0.9,0.4
			l-0.7,0.3l-0.7-0.6l-0.3,0l1.8,13C405.3,262.3,408.8,261,412.6,260.3z"/>
		<polygon fill="#FCD116" points="395.8,262.7 396.7,263.8 397.5,264 398.4,263.5 395.7,261.4 		"/>
		<path fill="#FCD116" d="M399.1,265.5l0.1-0.5l-0.8-0.7l-0.8,0.1l-0.7,0.7l0,1.1l0.3,0.5l0.5,0.2c0,0,0.1-0.1,0.1-0.1L399.1,265.5z
			"/>
		<polygon fill="#FCD116" points="393.8,263.4 393.9,264.7 394.3,265 394.9,265 395.9,263.7 395.8,262.7 395,262.1 		"/>
		<path fill="#FCD116" d="M393.1,270.4l-0.7,0.5l-0.2,0.9c0.4-0.4,0.8-0.9,1.2-1.3L393.1,270.4z"/>
		<path fill="#FCD116" d="M382.5,286.8l-0.6-0.2l-0.5,0.5l0,1.2l1.1,1.4l-0.1,1l-0.6,0.9l-3.2,1.7l-0.2,0.3l0.7,0.8l3.6-0.8l0,0
			c0.2-1.9,0.5-3.8,0.9-5.6L382.5,286.8z"/>
		<polygon fill="#FCD116" points="377.3,271.6 376.9,272.3 377.3,273 378.5,273.3 379.2,273 379.6,272.1 379,271.4 		"/>
		<polygon fill="#FCD116" points="371.4,291.5 369.4,289.6 369.6,288.9 371,287.4 370.2,286.4 368.3,287.3 367,288.8 366.9,289.7
			"/>
		<path fill="#FCD116" d="M420,234.2l-5.6,25.7c1.8-0.3,3.7-0.4,5.6-0.4s3.8,0.1,5.6,0.4L420,234.2z"/>
		<path fill="#BD9C08" d="M382.5,297c0-0.2,0-0.5,0-0.7l-0.5,0.8l0.5,0.7C382.5,297.6,382.5,297.3,382.5,297z"/>
		<polygon fill="#BD9C08" points="376.3,293.7 376.5,293.6 373.8,292.5 372.3,292.4 371.4,291.5 366.9,289.7 366.8,290 368.5,291.8
			376,294.8 		"/>
		<path fill="#BD9C08" d="M385.1,283.3l-2-1.8l0.2,1.9l0.3,0.3l-0.3,0l0.1,1.3l1,0l0.2-0.4C384.8,284.2,385,283.8,385.1,283.3z"/>
		<polygon fill="#BD9C08" points="359.8,288.2 361,288.7 361,288.6 360.8,287.8 		"/>
		<path fill="#BD9C08" d="M412.6,260.3c0.6-0.1,1.2-0.2,1.9-0.3l5.6-25.7l5.6,25.7c0.6,0.1,1.2,0.2,1.9,0.3l14-22.3l-1.3,9.3
			l1.4-0.4l0.1-0.4l1.5-11.3c0-0.3-0.1-0.6-0.4-0.7c-0.3-0.1-0.6,0-0.8,0.3l-6.4,10.2l-0.9,1.4l-7.9,12.6l-3.1-14.2l-0.5-2.5
			l-2.5-11.3c-0.1-0.3-0.3-0.5-0.6-0.5s-0.6,0.2-0.6,0.5l-2.6,11.9l-0.4,1.7l-3.1,14.4l-7.9-12.5l-1.4-2.2l-6-9.5
			c-0.2-0.3-0.5-0.4-0.8-0.3c-0.3,0.1-0.5,0.4-0.4,0.7l0.8,6l1.4,0.2l-0.5-3.4L412.6,260.3z"/>
		<path fill="#BD9C08" d="M402.1,264.1l-1.8-13l-0.5,0.1l-0.6,0.7l1,1.4l-0.4,0.8l0.7,3.1l-0.1,1.6l-0.3,0.2l0.6,4.6l-4.9-3.8
			l-0.1,0.2l0.1,1.4l2.7,2.1l0.9-0.5l0.8,1.1l0.1,0.8l0.3,0.2C401,264.7,401.5,264.4,402.1,264.1z"/>
		<polygon fill="#BD9C08" points="381.3,280.4 382.8,281.2 381.5,280 		"/>
		<polygon fill="#BD9C08" points="376,284.1 373.6,284.2 373.8,284.8 375,285.4 377.3,285.4 		"/>
		<path fill="#BD9C08" d="M391.4,272.8l-1-1.2l-0.3,0.1l0.2,0.4l-0.7-0.2l-0.2,0.1l-0.1,0.9l0.2,0.3l1.2,0.4
			C390.9,273.4,391.2,273.1,391.4,272.8z"/>
		<polygon fill="#BD9C08" points="399.2,243.1 398.7,243.5 397.8,242.8 398.4,247.3 398.7,249 398.9,250.6 399.5,250.9 400.3,250.8
					"/>
		<path fill="#FCD116" d="M384.3,299.9c11.9,3.4,23.8,8.5,35.7,8.5c3.8,0,7.6-0.5,11.4-1.4l-0.1-3.7l-0.1-6.3l-0.2-8.2l0-5.4
			l-0.7-0.8l0.1-4.2l-0.7-1.1l0-2.5l-0.1-2l0.6-2.7l1.8-3.2l1.1-3.4c-4-1.6-8.4-2.5-13-2.5c-7.2,0-14,2.2-19.6,5.9l0.1,1.6l-0.5-0.4
			l-1.4,2l0.4,0.8l1.2,0l0.4-0.7l0.1,0.6l0.6,0.7l0.2,2.4l0.6,0.9l-2.5,2l-1.3-0.9l0.1-0.6l1.4-0.9l0-0.7l-3.8-1.1l-0.6-1.5
			c-0.8,0.8-1.6,1.6-2.3,2.4l1.8,1.5l1.4,0.2l-0.5,2.3l-0.5,1.1l0.5,1.2l1.6-1.2l1.9,1.1l0.1,3.6l-1.1,3.5l-1.9,4l0.3,0.6l1.3,0.2
			l1.4-1.2l1-0.1l-0.3,1.1l-1,1.2l-2,0.4l-1.4,3l-1.2-2.2l0.6-2.6l0.4-3.4l-1.2-1.4l0-2l0.6-1.7l-1-0.7l-1.5,0.8l-0.6,1.5l0.6,4.1
			l-0.8,0.1l-0.3,1l-2.3,1.3l-1.1,0.3l-2.1-0.5l-0.7-2c-0.3,1.3-0.5,2.6-0.7,4h2.1l0.5,0.5l-1.4,1.7l-1.3,0.7l-0.2,0
			c0,0.4,0,0.9,0,1.3C384.1,298,384.2,298.9,384.3,299.9z"/>
		<polygon fill="#FCD116" points="394.6,275.7 393.6,275.6 392,277.4 391.6,279.9 393.1,281.6 395,281.5 395.6,280.5 394.6,278.6
			394.1,278.5 395.1,276.4 		"/>
		<polygon fill="#FCD116" points="387.5,288.1 387.6,288.7 388.1,289.2 388.7,289 389.6,287.8 389,287.2 387.9,287.3 		"/>
		<path fill="#FCD116" d="M396.9,271l0.7-1.1l-0.3-0.7c-0.4,0.3-0.8,0.7-1.2,1.1L396.9,271z"/>
		<polygon fill="#FCD116" points="389.1,283.2 387.1,283.5 387,285.7 387.9,286.7 388.9,285.7 389.6,283.9 		"/>
		<polygon fill="#FCD116" points="390.8,288.6 391.3,288.4 391.8,287.7 391.7,287.3 390.9,286.2 390.3,286.2 389.8,286.5
			389.6,287.1 389.9,287.8 		"/>
		<path fill="#FCD116" d="M391.2,277.3l1.3-3l-0.1-0.2c-0.8,0.9-1.5,1.9-2.1,2.9L391.2,277.3z"/>
		<path fill="#FCD116" d="M389.4,281.5l-1.3-0.8c-0.2,0.5-0.5,0.9-0.7,1.4l1.5-0.1L389.4,281.5z"/>
		<path fill="#BD9C08" d="M387.3,279.8l1.1-1.4l0-1.2l-0.1-0.1c-0.6,0.9-1.1,1.8-1.6,2.7L387.3,279.8z"/>
		<path fill="#BD9C08" d="M397.9,266.8c0,0-0.1,0.1-0.1,0.1l0,0L397.9,266.8z"/>
		<path fill="#BD9C08" d="M384.3,299.9c-0.1-0.9-0.1-1.9-0.1-2.9c0-0.4,0-0.9,0-1.3l-1.2,0l-0.4,0.6c0,0.2,0,0.5,0,0.7
			c0,0.3,0,0.6,0,0.9l0.5,0.7l-0.1,0.5l-0.4,0.3c0,0,0,0,0,0.1C383.2,299.6,383.7,299.7,384.3,299.9z"/>
		<path fill="#BD9C08" d="M391.4,272.8c-0.2,0.3-0.5,0.5-0.7,0.8c-0.3,0.3-0.5,0.7-0.8,1l0.1,2.3l0.2,0.1c0.7-1,1.4-1.9,2.1-2.9
			L391.4,272.8z"/>
		<path fill="#BD9C08" d="M385.1,288.7l-1.2-0.2l-0.3-0.3c-0.4,1.8-0.7,3.7-0.9,5.6l1.4-1.1h0.3C384.6,291.4,384.8,290,385.1,288.7
			L385.1,288.7z"/>
		<path fill="#BD9C08" d="M433,263.6l0.4-1.3l0.2-0.2c-2-0.8-4.1-1.4-6.2-1.8c-0.6-0.1-1.2-0.2-1.9-0.3c-1.8-0.3-3.7-0.4-5.6-0.4
			s-3.8,0.1-5.6,0.4c-0.6,0.1-1.2,0.2-1.9,0.3c-3.7,0.8-7.2,2.1-10.5,3.8c-0.5,0.3-1.1,0.6-1.6,0.9c-0.1,0-0.2,0.1-0.2,0.2l0.2,1.8
			c5.6-3.7,12.4-5.9,19.6-5.9C424.6,261.1,429,262,433,263.6z"/>
		<path fill="#BD9C08" d="M395.2,271.1l-0.3-0.8l-0.9,0.5l-0.5-0.2c-0.4,0.4-0.8,0.9-1.2,1.3l-0.2,0.8l0.9,0.8
			C393.6,272.7,394.4,271.9,395.2,271.1z"/>
		<path fill="#BD9C08" d="M387.5,280.3l-1-0.1c-0.5,1-1,2-1.4,3.1c-0.2,0.5-0.3,0.9-0.5,1.4l1.1-2.5l1.6-0.1
			c0.2-0.5,0.4-0.9,0.7-1.4L387.5,280.3z"/>
		<path fill="#BD9C08" d="M396.1,270.3c0.4-0.4,0.8-0.7,1.2-1.1l-0.2-0.4l-0.5-1.1c-0.6,0.5-1.2,1-1.8,1.5L396.1,270.3z"/>
		<path fill="#FCD116" d="M389.7,199.8l-9.7,0.3c0,0.1-0.1,0.1,0,0.3c0,0.1,0,0.1,0.1,0.2h11.2c0.3,0,0.5,0.2,0.5,0.5
			c0,0.3-0.2,0.5-0.5,0.5h-10.6c0.6,0.7,1.5,1.3,2.3,1.3l10.2,0.1l0.2,0.2c4.6,5.8,13.3,9.7,21.7,9.7c0,0,0.1,0,0.1,0
			c2.9,0,5.9-0.6,9-1.6l-0.4-0.2l-2.4,0.3l-1.9-0.4c-1.8,0.3-3.7,0.5-5.7,0.5c-0.9,0-1.8,0-2.7-0.1c-0.3,0-0.5-0.3-0.5-0.6
			c0-0.3,0.3-0.5,0.6-0.5c1.8,0.1,3.6,0.1,5.3,0l-1.3-0.3l-1-0.7l-6.3-2.8l-1.6-0.8l-1-1.2l-1.9-0.5l-3.1-2.8l-2.7-2.4l-2.5-1.4
			c-1.9,0.1-3.6,0.8-5.1,2L389.7,199.8z M395,198.4c0.8,0,1.4,0.6,1.4,1.4c0,0.8-0.6,1.4-1.4,1.4s-1.4-0.6-1.4-1.4
			C393.5,199.1,394.2,198.4,395,198.4z"/>
		<path fill="#BD9C08" d="M379.7,199l-0.1,0.1c-0.6,0.3-0.8,0.9-0.6,1.6c0.3,1.4,2.3,3.3,4,3.4l9.7,0.1c4.8,5.9,13.8,9.9,22.4,9.9
			c0,0,0.1,0,0.1,0c3.6,0,7.3-0.9,11.1-2.2l-1.2,0l-0.9-0.4c-3.1,0.9-6.1,1.6-9,1.6c0,0-0.1,0-0.1,0c-8.4-0.1-17.1-4-21.7-9.7
			l-0.2-0.2L383,203c-0.7,0-1.7-0.6-2.3-1.3h-0.9c-0.3,0-0.5-0.2-0.5-0.5c0-0.3,0.2-0.5,0.5-0.5h0.3c0-0.1,0-0.1-0.1-0.2
			c0-0.2,0-0.3,0-0.3l9.7-0.3l0.1-0.1c1.5-1.2,3.2-1.9,5.1-2l-1.5-0.9c-1.7,0.4-3,1.1-4.1,2L379.7,199z"/>
		<path fill="#FCD116" d="M361.2,184.2c-1.1-0.3-2.3-0.8-3.3-1.2c7.1,4.3,17.7,6.5,24.1,7.4c1.5,0.2,2.9,0.5,4.4,0.7l-0.4-0.4
			l-0.6-0.1l-1.5-2.4l0-0.1c-0.3,0-0.6-0.1-0.8-0.1C375.7,187.2,368.3,186.2,361.2,184.2z"/>
		<path fill="#FCD116" d="M361.5,183.2c7.1,2,14.4,2.9,21.5,3.9l-0.7-1.2c-7.5-0.8-15.9-1.9-23.2-3.5
			C359.8,182.7,360.6,183,361.5,183.2z"/>
		<path fill="#BD9C08" d="M353.2,180.8c6.6,6.5,20.8,9.5,28.6,10.7c2.1,0.3,4.2,0.7,6.2,1.1l-1.7-1.4c-1.5-0.3-2.9-0.5-4.4-0.7
			c-6.4-1-17-3.1-24.1-7.4c-0.5-0.2-0.9-0.4-1.4-0.6c-0.8-0.3-1.5-0.7-2.3-1l0.4-1c0.8,0.3,1.6,0.6,2.3,1c0.7,0.3,1.4,0.6,2.1,0.9
			c7.4,1.6,15.7,2.7,23.2,3.5l-0.1-0.1l-0.2-1c-9.4-1-20-2.4-28.3-4.8L353.2,180.8z"/>
		<path fill="#BD9C08" d="M359,182.3c-0.7-0.3-1.4-0.6-2.1-0.9c-0.8-0.3-1.5-0.7-2.3-1l-0.4,1c0.8,0.3,1.5,0.6,2.3,1
			c0.5,0.2,0.9,0.4,1.4,0.6c1.1,0.5,2.2,0.9,3.3,1.2c7.2,2,14.5,3,21.6,3.9c0.3,0,0.6,0.1,0.8,0.1l-0.7-1.2
			c-7.1-0.9-14.4-1.9-21.5-3.9C360.6,183,359.8,182.7,359,182.3z"/>
		<path fill="#BD9C08" d="M411.2,210.4c-0.3,0-0.5,0.2-0.6,0.5c0,0.3,0.2,0.5,0.5,0.6c0.9,0.1,1.8,0.1,2.7,0.1c2,0,3.9-0.2,5.7-0.5
			l-3.1-0.7C414.8,210.6,413,210.6,411.2,210.4z"/>
		<path fill="#BD9C08" d="M391.8,201.1c0-0.3-0.2-0.5-0.5-0.5H380h-0.3c-0.3,0-0.5,0.2-0.5,0.5c0,0.3,0.2,0.5,0.5,0.5h0.9h10.6
			C391.6,201.6,391.8,201.4,391.8,201.1z"/>
		<circle fill="#BD9C08" cx="395" cy="199.9" r="1.4"/>
		<path fill="#003F87" d="M473.2,392c-1.3,0-2.6,0.1-4,0.2l1.9,2.2l3.3,2l1.5,1.2l3.1,1.1l3,1.7l1.5,1.3l3.9,2l3.1,3.8l2.9,4.4
			l2,1.7l0.1,0.7l2.5,2.6l1.2,0.7l5.5,0.6l0.9,0.6l2.1,0l3.6,1.7h1l0.6,0.7l3,1.1l3.9,0l0.8-0.5l1.7,0l1.9-0.7l4.2-2.8l8.3-0.1
			l3.2,0.6l2.6-1.6l1.6-2.5l0.6-2.1l0.3-9.4l-0.5-0.8l0-1.7c-6,1.7-11.9,3-17.9,3C508.7,403.4,490.9,392,473.2,392z"/>
		<path fill="#003F87" d="M425.7,365l3.6,0.9l1.7,0.6l1.1,1.1l0.8,0l3.4,2.3l1.1,1.3l1,0l1.5,1.1l1.5,0l6,2.4l0.7,0.7l1,0l0.3,0.5
			l1.6,0.6l0.6,0.6c7.2-2.2,14.4-4.1,21.7-4.1c17.7,0,35.5,11.4,53.2,11.4c5.1,0,10.1-0.9,15.2-2.3l-0.8-2.5l-1.7-4.2l-1.9-2.3
			l-0.4-1.1l-2.5-1.4l-1.7-0.1l-3-1.2l-2,0.1l-2.2-0.6l-3.9-1.1l-3.5-1.8l-3.1-1.8c-3.5-0.8-7-1.8-10.6-2.9l-1.4,0l-1.4-0.9
			c-9.4-3-18.7-6.2-28.1-6.2C457.4,354,441.5,363.1,425.7,365z"/>
		<path fill="#003F87" d="M372.9,354.8l2.7,1.7l1.6,0.5l7.8,2l1.9,0.9l3.1,0.1l0.8,0.6l2.5-0.1l1.5,0.8l1.9-0.1l2.1,0.6l2,1l1.6,0.1
			l0.8,0.6l2.9,0c-11.2-2.8-22.3-7.7-33.5-9.1L372.9,354.8z"/>
		<path fill="#003F87" d="M348.4,321.9l0.1,1.5l1.6,4.3l1.6,4.8l2.4,4.2c4.3-1,8.5-1.7,12.8-1.7c17.7,0,35.5,11.4,53.2,11.4
			c12.5,0,25.1-5.7,37.6-9l-4-2.5l-1.5-0.6l-3-3.1l-1.1-2.6l-2.3-2.3l-1-0.6l-3.2-0.1l-1-0.5l-1-1c-6.5,1.9-13,3.5-19.5,3.5
			c-17.7,0-35.5-11.4-53.2-11.4c-0.4,0-0.8,0-1.3,0l-0.4,1.1l-2.4,0.1l-1-0.9c-4.9,0.5-9.8,1.8-14.7,3.3L348.4,321.9z"/>
		<path fill="#FFFFFF" d="M473.2,373c-7.2,0-14.4,1.9-21.7,4.1l6,5.7l8.5,7.1l3.2,2.3l0,0c1.3-0.1,2.6-0.2,4-0.2
			c17.7,0,35.5,11.4,53.2,11.4c6,0,11.9-1.3,17.9-3l-0.1-3.6l-0.6-1.8l0-5l-0.6-0.8l0-2.6l-1.4-4.5c-5.1,1.3-10.1,2.3-15.2,2.3
			C508.7,384.4,490.9,373,473.2,373z"/>
		<path fill="#FFFFFF" d="M366.8,335c-4.3,0-8.5,0.7-12.8,1.7l0.2,0.3l1.1,2.3l2.4,2.7l3.1,2.8l1.1,0.4l0.8,1.1l3.5,2l4.4,4.6
			l0.9,0.3l1,1.2c11.2,1.4,22.3,6.3,33.5,9.1l2.8,0l1.3,0.1l3.2-1.2l3.5-0.1l2.8,1.8l5.2,0.7l0.8,0.2c15.8-1.9,31.7-11,47.5-11
			c9.4,0,18.7,3.2,28.1,6.2l-0.2-0.1l-5.1-2.7l-2.1-2.2l-1.5-1.1l-0.4-1l-1.8-1.7l-4.4-1.9l-3.8-0.8l-2.8-2.2l-1.6-0.6l-4.7-4
			l-3.3-0.1l-3.2,0l-4.9-2l-4-2.4c-12.5,3.3-25.1,9-37.6,9C402.3,346.4,384.5,335,366.8,335z"/>
		<path fill="#FFFFFF" d="M513.1,363l-3.6-0.7l-1.2-0.7l-1.9,0.1l-0.7-0.6l-1.5,0c3.5,1.1,7,2.1,10.6,2.9L513.1,363z"/>
		<path fill="#FFFFFF" d="M336.1,304l1.3,0.4l1.9,1.1l3.7,0.7l2.7,2.2l1.4,2.2l0.7,3.7l1,1.9l-0.2,0.5l-1.2-1.1l-0.7-2.7l-1-0.5
			l-1.7-4l-1.6-1.1l-0.7,0.5l-1.3,0l-1.4-0.7l-0.4-1.1l-1.5-0.9l-1.5-0.1l-1.5,2.2l0.6,1.5l2.6,1.4l1,0l3.5,2.3l3.2,2.9l1.2,3.2
			l0.7,1.1c4.9-1.5,9.8-2.7,14.7-3.3l-2.2-2l-0.9-2.3l1.5-2.2l-0.5-0.7l-1.1-0.1l-0.9-1.1l-0.1-5.3l0.5-0.7l-0.1-2.4l-1-1.2
			l-0.7-0.2c-0.4,0.1-0.8,0.2-1.2,0.3l-0.1,0.6l0.5,0.7l0.1,3.5l-0.4,0.5l-1.3-4.3l-0.5-0.5c-0.1,0-0.3,0.1-0.4,0.1
			C347.1,300.4,341.6,302.3,336.1,304z"/>
		<path fill="#FFFFFF" d="M357.9,298.5l2.6-0.1l0.5-0.7l0-0.3c-1.2,0.2-2.4,0.3-3.6,0.6L357.9,298.5z"/>
		<polygon fill="#FFFFFF" points="373.5,308.9 374.2,309.6 375.1,309.5 376.7,308.3 377.4,307.2 377.1,306.7 374.8,307.4 		"/>
		<polygon fill="#FFFFFF" points="371,302.7 370.3,301.9 369.5,302 368.7,302.8 368.8,303.4 369.1,303.7 370.4,303.7 		"/>
		<polygon fill="#FFFFFF" points="359.7,306.6 360,306.1 359.6,305.6 359,305.5 358.6,306 358.6,306.7 358.9,307.3 		"/>
		<path fill="#FFFFFF" d="M307.5,312.6l2.2,2.3l1.8-0.1l4.7-2.7l0.3-1l4.9-2.1l6.7-1.9l1.4-1l2.6-0.1l2.2-1.5
			c-6.9,2.1-13.8,3.9-20.8,3.9c-4,0-8-0.6-12-1.5l0.2,0.8l4.3,4L307.5,312.6z"/>
		<path fill="#FFFFFF" d="M420,327.4c6.5,0,13-1.5,19.5-3.5l-2.1-2.1l-0.5-1.4l-1.4-1.3l-1.7-3.9l-0.6-2.6l-1.6-4l0-1.5
			c-3.8,0.8-7.6,1.4-11.4,1.4c-11.9,0-23.8-5.1-35.7-8.5c-0.5-0.2-1.1-0.3-1.6-0.5c0,0,0,0-0.1,0l-1.8,1.4l-1.2-0.6l-2-2.1
			c-1-0.2-2-0.4-3-0.6l0.1,0.1l0.1,1.1l-0.8,1.2l-1.3,0.5l-1.4-1.4l-0.6-1.4l0-0.7c-1-0.1-2-0.1-3-0.2l0.1,0.6l1.4,0.9l0.5,1.7
			l1.8,2.1l0.9,0.4l1.1-0.2l2.3-1.7l0.9,0.3l0.7,1.6l-1.2,0.6l-1.9,2.1l1,1.2l4-2.9l1.1,0.5l0.2,0.5l-1.2,1.4l-1.4-0.7l-0.5,1.2
			l1.1,1.1l1.6,0l3-2.1l-0.8,2.1l0.3,1.6l3.1-0.2l0.4,1.8l2.3,2.2l0.1,1l-0.6,1.2l0.5,1.3l-5.1-0.1l-0.5-0.5h-4.4l-1.4-0.7l0.1-1.2
			l0.8,0.2l1.2,1.1l0.8-0.1l0.3-2.4l3-2.2l-1-1.1l-6,2.8l-0.7,0l-1.1-1.2l-1.1-0.1l0.4-1l-0.3-0.6l-2.5-0.9l-0.1-0.8l1-1.3l-0.1-1.4
			l-2.7-1.6l-0.8,1l1,1.6l-0.1,0.6l-1,0.4l-0.4,0.8l1.1,1.7l-0.1,1.1l-2.1,2.7l-0.3,0.7l0.3,0.6l-1.2,0.9l-0.1,0.2
			c0.4,0,0.8,0,1.3,0C384.5,316,402.3,327.4,420,327.4z"/>
		<polygon fill="#FFFFFF" points="385.9,313.1 385,315 385.4,315.5 386.5,315.5 387.4,314.4 387.5,313.5 387.1,313.1 		"/>
	</g>

		<path fill="none" stroke="#CCCCCC" stroke-width="0.25" stroke-linecap="round" stroke-linejoin="round" stroke-miterlimit="10" d="
		M361,297.7l-0.2-1.8l-0.3-0.2l-2.2,1.2l-0.9,1.1l0.5,0.5l2.6-0.1L361,297.7z M355.6,290.3l1.5,2.9l1.1-1.3l0.1-1.4l2.1-1l0.6-0.9
		l-0.3-0.8l-5.1,2L355.6,290.3z M359.4,194.2l-0.9,0.1l-1.4,1.4l0.9,1h1.5l0.7-0.7l-0.1-1.1L359.4,194.2z M360.7,205.6l-0.5,1.3
		l1,1.4l1.6,0.7l1.3-0.1l0.8-1.1l-0.7-1l-2.4-1.4L360.7,205.6z M358.6,306l-0.1,0.6l0.3,0.6l0.8-0.7l0.3-0.6l-0.4-0.5l-0.5-0.1
		L358.6,306z M387.4,314.4l0.1-0.9l-0.4-0.4l-1.2,0L385,315l0.4,0.5h1.1L387.4,314.4z M375.1,309.5l1.6-1.2l0.7-1.1l-0.3-0.5
		l-2.3,0.7l-1.2,1.5l0.7,0.7L375.1,309.5z M363.9,199l-1.2-1.3h-1.8l-1.7,1.7l0.1,1l1.4,2.7l1.4,1.3l1.8-0.1l2.2,1.7l1.2-0.1
		l0.4-0.5l-0.1-2.5l0.9-2.7l-0.5-0.9l-0.1-3.9l-0.4-0.5l-0.8,0.7l-1.3,0.6l-1.1,1.2l0.6,0.8l-0.1,1L363.9,199z M375.1,227.5l0.8-1
		l0.1-0.7l-0.6-0.6l-1.5,0.2l-1,1.2l0,1l0.4,0.6l0.6-0.5L375.1,227.5z M544.3,402.1l-0.1-5.2l-0.6-1.8l0-5l-0.6-0.8l0-2.6l-2.2-7
		l-1.7-4.2l-1.9-2.3l-0.4-1.1l-2.5-1.4l-1.7-0.1l-3-1.2l-2,0.1l-2.2-0.6l-3.9-1.1l-3.5-1.8l-4.7-2.8l-3.6-0.7l-1.2-0.7l-1.9,0.1
		l-0.7-0.6l-2.9,0l-1.6-1l-5.1-2.7l-2.1-2.2l-1.5-1.1l-0.4-1l-1.8-1.7l-4.4-1.9l-3.8-0.8l-2.8-2.2l-1.6-0.6l-4.7-4l-3.3-0.1l-3.2,0
		l-4.9-2l-8.1-4.9l-1.5-0.6l-3-3.1l-1.1-2.6l-2.3-2.3l-1-0.6l-3.2-0.1l-1-0.5l-3.1-3.1l-0.5-1.4l-1.4-1.3l-1.7-3.9l-0.6-2.6l-1.6-4
		l-0.2-5.2l-0.1-6.3l-0.2-8.2l0-5.4l-0.7-0.8l0.1-4.2l-0.7-1.1l0-2.5l-0.1-2l0.6-2.7l1.8-3.2l1.5-4.7l0.6-0.6l0.6-3.6l1.3-4.6l2-3.5
		l1.5-2.4l3.6-1.1l2.8-1.6l1.4-1.2l3.5-1.2l2.1-1.6l0.9-1.8l1.3-3.2l-0.1-5.6l-0.1-2.5l-0.6-0.7l-0.3-2.2l-1.1-0.9l-0.2-0.7
		l-2.3-4.3l-3.2-3.7l-2.9-1l-0.8-0.5l-3.1,0l-1.3-0.7l-2.1,0.1l-2.3,0.2l-2-0.2l-0.9-0.6l-1.9,0.1l-0.7-0.6l-4-0.1l-1.2-0.6
		l-2.4,0.3l-6.3-1.4l-1-0.7l-6.3-2.8l-1.6-0.8l-1-1.2l-1.9-0.5l-3.1-2.8l-2.7-2.4l-5.2-3l-6.3-5.2l-0.6-0.1l-1.5-2.4l-1.6-2.6
		l-0.6-2.8l-1.1-2.6l-1.1-1.1l-3.1-2.4l-4.5-1.1l-0.6-0.7h-1l-3.9-1.7l-3-0.6l-1.7-0.7H356l-0.7,0.7l-2.1-0.1l-7.9,0.2l-2.8-0.1
		l-2.7,0.8l-0.4,0.5l-2.7,0.7l-2.9,2.1l-1.5,5.5l0.1,2.3l0.5,0.5l0.7,3.6l1.6,2.4l3.1,5.7l0.2,1.3l1,1.1l0.2,1.3l2.6,6.3l0.4,2.8
		l-0.1,3.5l0.6,1.1l0,2.6l1,2.3l0.5,1.2l2.4,0.2l2.1,1.7l1.3-0.3l0.2-0.9l-1.2-2.7l0.1-1.7l1.4-2.1l0.1-1l-0.4-0.7l-3.8,0l-0.3,1
		l1,1.1l-0.2,0.7l-0.9,0.1l-0.5-1.1l-0.5-4.8l-0.5-4.4l-1.5-4.6l-0.3-2.1l-0.8-1.5l-0.8-0.4l0-1.1l1-3.3l0.9-0.6l1.6-0.7l2.1,0.1
		l1.7-2.3l2.7-1l0.2-1.2l1-0.7l0.1-0.7l3.1,0.1l1.5,1l-1.5,1.2l-0.5,1.5l0.1,1.4l-1.8-1.7l-1.1,0.3l-0.3,0.6l1.6,2l-0.8,0.8l2.2,1.8
		l1.3-0.1l0.9-0.8l0.1-4l0.6-1l1.7,1.3l0.2,1l-0.9-0.5l-0.5,0.7l2,2.1l1.1,0.2l3.3-1.9l-1.2,2.3l1.8,1.9l1.5-0.1l1-1.1l0.6,0.1
		l0.2,6l0.8,0.9l1.7,0.6l0.1,1.1l-0.4,0.5l-0.5,1.2l0.5,0.6l1.2-0.2l1.7-1.1l1.2,0.1l1.9,1.2l1.2-1.7l0,1.5l0.5,0.8l0.8,0.6l2.2-0.1
		l-2.9,1.2l-0.4,0.7l1.5,1l2.5,0.6l1,2.5l0.5,1.5l1.7,2.2l1.3-0.4l1.2,1.1l2.5-0.5l0.8,2.1l4,4.4l0.2,2.8l-0.8,0.8l-1.9-0.6
		l-0.5,0.9l0.7,1.2l-0.5,0.8l-2-0.5l-1,0.7l-0.3,0.9l0.7,2.5l1.7,2.1l0.7,0.3l0.4,1.4l1.1,0.2l0.6-0.5l0.1-1.2l1.2-0.3l0.8-1l-0.6-2
		l0.5-0.3l0.2,0.6l0.4,0.6l0,2.8l-0.5,0.7l-1,0l-1.4,2.1l-1.6-1.7h-2.4l-0.5,0.4l-0.1,0.7l0.6,0.6l2.1,0.6l0.2,1.4l0.8,0.8l7.1,1
		l-0.4,1.3l-0.9,0.7l-2-1.8l-1.9,0.1l-0.9,1.4l3.2,3.9l0.5,2.7l1.9,1.2l1.1-0.2l0.2-0.7l0.4,0.9l0.9,0.4l-0.7,0.3l-0.7-0.6l-0.9,0.1
		l-0.6,0.7l1,1.4l-0.4,0.8l0.7,3.1l-0.1,1.6l-0.7,0.4l-0.9,0.8l-0.6,1.5l-0.6-1.6l-1.3-0.7l-0.5,0.8l0.1,2.7l0.9,1.1l0.8,0.2
		l1.9-1.1l0.8,1.1l0.4,4.5l-0.5-0.4l-1.4,2l0.4,0.8l1.2,0l0.4-0.7l0.1,0.6l0.6,0.7l0.2,2.4l0.6,0.9l-2.5,2l-1.3-0.9l0.1-0.6l1.4-0.9
		l0-0.7l-3.8-1.1l-0.9-2.2l-0.9,0.5l-0.9-0.4l-0.7,0.5l-0.4,1.8l2.7,2.2l1.4,0.2l-0.5,2.3l-0.5,1.1l0.5,1.2l1.6-1.2l1.9,1.1l0.1,3.6
		l-1.1,3.5l-1.9,4l0.3,0.6l1.3,0.2l1.4-1.2l1-0.1l-0.3,1.1l-1,1.2l-2,0.4l-1.4,3l-1.2-2.2l0.6-2.6l0.4-3.4l-1.2-1.4l0-2l0.6-1.7
		l-1-0.7l-1.5,0.8l-0.6,1.5l0.6,4.1l-0.8,0.1l-0.3,1l-2.3,1.3l-1.1,0.3l-2.1-0.5l-0.7-2.1l-1.2-0.2l-1.4-1.7l-0.6-0.2l-0.5,0.5
		l0,1.2l1.1,1.4l-0.1,1l-0.6,0.9l-3.2,1.7l-0.2,0.3l0.7,0.8l3.6-0.8l1.4-1.1h2.5l0.5,0.5l-1.4,1.7l-1.3,0.7l-1.4,0l-0.9,1.5l1,1.4
		l-0.1,0.5l-2.2,1.8l-1.2-0.6l-2.6-2.6l-1.1-2.4l0.4-1.6l0.8-1l1.1-2.8l0-2.6l0.4-0.7l-2.9-2.8l-2.1,0.3l0.1,0.7l1.9,1l-0.1,1.2
		l0.6,1.7l-0.6,2.3l-1.2,1.5l-2-0.1l-2.9-2.8l0.1-0.7l1.4-1.5l-0.8-1l-1.9,0.8l-1.3,1.5l-0.2,1.2l4.6,4.9l2.2,1.4l1,1.5l0.1,1.1
		l-0.8,1.2l-1.3,0.5l-1.4-1.4l-0.6-1.4l0-1.9l-0.5-1.1l-3.1-1.7l-0.6,0.8l1,1.4l0.8,0.3l-0.6,1l0.2,0.9l1.4,0.9l0.5,1.7l1.8,2.1
		l0.9,0.4l1.1-0.2l2.3-1.7l0.9,0.3l0.7,1.6l-1.2,0.6l-1.9,2.1l1,1.2l4-2.9l1.1,0.5l0.2,0.5l-1.2,1.4l-1.4-0.7l-0.5,1.2l1.1,1.1
		l1.6,0l3-2.1l-0.8,2.1l0.3,1.6l3.1-0.2l0.4,1.8l2.3,2.2l0.1,1l-0.6,1.2l0.5,1.3l-5.1-0.1l-0.5-0.5h-4.4l-1.4-0.7l0.1-1.2l0.8,0.2
		l1.2,1.1l0.8-0.1l0.3-2.4l3-2.2l-1-1.1l-6,2.8l-0.7,0l-1.1-1.2l-1.1-0.1l0.4-1l-0.3-0.6l-2.5-0.9l-0.1-0.8l1-1.3l-0.1-1.4l-2.7-1.6
		l-0.8,1l1,1.6l-0.1,0.6l-1,0.4l-0.4,0.8l1.1,1.7l-0.1,1.1l-2.1,2.7l-0.3,0.7l0.3,0.6l-1.2,0.9l-0.5,1.3l-2.4,0.1l-3.1-3l-0.9-2.3
		l1.5-2.2l-0.5-0.7l-1.1-0.1l-0.9-1.1l-0.1-5.3l0.5-0.7l-0.1-2.4l-1-1.2l-1.8-0.5l-0.2,1.1l0.5,0.7l0.1,3.5l-0.4,0.5l-1.3-4.3
		l-0.7-0.7l-0.2-1l-2.4-2.6L349,295l-0.6,0.7l0.2,1.1l-6.1-3.4l-1.7-3.4l-2.1-2.2l-1.5-0.6l-1.9,0.9l-1.2,1.9l1.3,1.6l1.9-0.1l2,0.9
		l0.2,0.8H337l-0.7-0.5h-1.9l-0.9-0.7l-2.3,0l-0.7-0.6l-5-0.7l-2,1.3l-1.5-0.7l-1.9,0.1l-1.5-0.8l-3.1,1.4l-0.8-0.1l-1.2,0.8
		l-1.3,2.4l0,0.6l0.9,0.5l-0.2,0.5l-1.5,2.3l-1.5,0.6l0.9-1.6l-0.6-0.7l-1,0.7l-1.4,0l1.5-0.7l1.5-1.7l0-2l-1.6-2.8l0-1.2l1.4-2.7
		l0.8-4.7l0.6-2.5l3.5-4.2l3.5-2.6l1-2.5l0.9-1l0.7,0l0.5-1.3l2.5-2.3l2.1,0l0.5,0.7l-1.5,1.7l-2.1,0.7l-1.5,1.8l0.1,0.6l1,0.2
		l1.5-1.7h1.4l2.3-1.8l2.7-7l0.9-1l1.6-0.6l1.6-1.7l1.8-0.2l2-2.4l-0.1-2.2l-1.5-1.2l-5.8,4.8l-1.1,0.1l-1.9,1.5l0,0.8l-2.6,1.6
		l-2.1,2.6l-3.6,2.4l-1.4,1.7l-2.4,0.6l-0.7,0.6l-1.2,1.6l-2.8,2.3l0.1,1l-1.5,4l-2,4.4l-7.1,7.1l-1.4,0.7l-1.1,1.6l-2.3,1.3
		l-0.8,0.9l-0.4,2.7l0.1,2.3l4,5.7l2.3,3.1l0.2,0.9l4.3,4l1.5,0.9l2.2,2.3l1.8-0.1l4.7-2.7l0.3-1l4.9-2.1l6.7-1.9l1.4-1l2.6-0.1
		l3.3-2.2l1.9,0.6l1.9,1.1l3.7,0.7l2.7,2.2l1.4,2.2l0.7,3.7l1,1.9l-0.2,0.5l-1.2-1.1l-0.7-2.7l-1-0.5l-1.7-4l-1.6-1.1l-0.7,0.5
		l-1.3,0l-1.4-0.7l-0.4-1.1l-1.5-0.9l-1.5-0.1l-1.5,2.2l0.6,1.5l2.6,1.4l1,0l3.5,2.3l3.2,2.9l1.2,3.2l2.1,3.4l0.1,1.5l1.6,4.3
		l1.6,4.8l2.6,4.5l1.1,2.3l2.4,2.7l3.1,2.8l1.1,0.4l0.8,1.1l3.5,2l4.4,4.6l0.9,0.3l1.3,1.6l2.7,1.7l1.6,0.5l7.8,2l1.9,0.9l3.1,0.1
		l0.8,0.6l2.5-0.1l1.5,0.8l1.9-0.1l2.1,0.6l2,1l1.6,0.1l0.8,0.6l5.6,0l1.3,0.1l3.2-1.2l3.5-0.1l2.8,1.8l5.2,0.7l4.4,1.1l1.7,0.6
		l1.1,1.1l0.8,0l3.4,2.3l1.1,1.3l1,0l1.5,1.1l1.5,0l6,2.4l0.7,0.7l1,0l0.3,0.5l1.6,0.6l6.7,6.3l8.5,7.1l3.2,2.3l2,2.2l3.3,2l1.5,1.2
		l3.1,1.1l3,1.7l1.5,1.3l3.9,2l3.1,3.8l2.9,4.4l2,1.7l0.1,0.7l2.5,2.6l1.2,0.7l5.5,0.6l0.9,0.6l2.1,0l3.6,1.7h1l0.6,0.7l3,1.1l3.9,0
		l0.8-0.5l1.7,0l1.9-0.7l4.2-2.8l8.3-0.1l3.2,0.6l2.6-1.6l1.6-2.5l0.6-2.1l0.3-9.4L544.3,402.1z M339.4,247.3l0.7-1.1l-0.5-0.4h-0.3
		l-0.5,0.6l0.1,0.9l0.3,0.2L339.4,247.3z M371,302.7l-0.6-0.8l-0.8,0l-0.8,0.8l0.1,0.6l0.3,0.3l1.3,0L371,302.7z M343.8,292.5l0,0.8
		l1.1,1.2l1-0.1l0.4-0.8l0-0.5l-1.2-1.2l-1,0.1L343.8,292.5z M318.2,285.5l-0.8,0.7l-0.2,0.6l1.2,1.1l0.9-0.2l0.7-1.1l-1-1.1
		L318.2,285.5z M355.1,297.3l0.1-1.1l-0.7-0.7l-1.3,1.2l0.2,1.6l0.4,0.3L355.1,297.3z M340.5,239.4l0.8,0.6l1.2,0l1.6-1.9l0.4-2.7
		l-0.3-2.8l-0.8-0.8l-1.1,0l-0.7,0.9l-0.3,1.6l0.4,0.5l0.1,2.2l-1.5,1.4L340.5,239.4z M393.8,263.4l0.1,1.3l0.4,0.4l0.5-0.1l1-1.2
		l-0.1-1.1l-0.8-0.6L393.8,263.4z M376.9,272.3l0.4,0.7l1.2,0.3l0.7-0.3l0.4-0.9l-0.6-0.7l-1.7,0.1L376.9,272.3z M387.5,288.1
		l0.1,0.6l0.5,0.4l0.6-0.2l0.9-1.2l-0.6-0.5l-1.1,0.1L387.5,288.1z M390.8,288.6l0.5-0.1l0.5-0.7l0-0.4l-0.9-1.1l-0.5-0.1l-0.5,0.3
		l-0.2,0.6l0.3,0.7L390.8,288.6z M396.4,265.1l-0.5-0.6l-1.7,2.1l0.3,2.3l2.3,2.1l0.7-1.1l-0.5-1.1l-0.6-1.3L396.4,265.1z
		 M379.4,210.1l-1.2,0l-0.4,0.4l0.1,1.5l2.1,2.2l1.3-0.4l0.2-0.7l-0.6-1.3L379.4,210.1z M397.8,266.9l1.3-1.4l0.1-0.5l-0.8-0.7
		l-0.8,0.1l-0.7,0.7l0,1.1l0.3,0.5L397.8,266.9z M394.4,223.8l0.2-0.6l-0.3-1.2l-0.7-0.1l-1,1.6l0,1.3l0.4,0.2L394.4,223.8z
		 M397.2,251.5l0.5-0.5l-0.4-0.6h-1l-0.5,0.7l0.5,0.4L397.2,251.5z M381.3,280.4l1.9,1l0.2,2.2l0.1,1.5l0.8,0.4l1.6-3.4l3.1-0.2
		l0.5-0.5l-1.9-1.2l-3.6-0.3l-0.1-0.7l1.1-1.3l0-0.6l-0.8-0.6l-1.8,1.7L381.3,280.4z M390.4,252l0.6,0.9l0.5-0.1l1.4-1.6l0.1-1
		l-0.7-0.4l-1.4,1.2L390.4,252z M386.1,221.4l-0.9,1.2l1.1,1.5l1.7-0.5l1.9,1.7l0.6-0.7l-1.1-3.2l1-2.3l0-1.2l-1-1.3l-1,0l-1.6,1.7
		l-0.1,1.2l0.7,1.8l-0.6,0.5L386.1,221.4z M383.9,215.9l-0.7,0.4L383,217l0.6,1.5l1,1.6l0.6,0l0.6-0.7l-0.1-1.8L383.9,215.9z
		 M389.1,283.2l-2,0.3l0,2.2l0.9,1l1-1l0.7-1.8L389.1,283.2z M386.8,276.8l-1,1.2l0,1l0.6,0.9l1,0l1.1-1.4l0-1.2l-0.3-0.3
		L386.8,276.8z M394.6,275.7l-1-0.1l-1.6,1.8l-0.4,2.6l1.5,1.7l1.9-0.1l0.6-1l-1-1.9l-0.5-0.1l1-2.1L394.6,275.7z M395,249.9
		l0.6-0.7l-0.1-1.1l-0.6-0.6l-3,0.1l-0.3,0.6l2.4,1L395,249.9z M389.4,272.9l0.5,1l0.2,3l1.1,0.4l1.3-3l-2.1-2.7l-1,0.4L389.4,272.9
		z"/>
</g>

</svg>
