<?xml version="1.0" encoding="utf-8"?>

<svg version="1.2" baseProfile="tiny" xmlns="http://www.w3.org/2000/svg" xmlns:xlink="http://www.w3.org/1999/xlink" x="0px"
	 y="0px" viewBox="261.2 172.2 318 250" xml:space="preserve">

<g id="Comoros">
	<g>
		<polygon fill="#FFC61E" points="302.9,177.8 300,174 295.6,172.2 289.6,173.1 279.3,176.5 276.4,176.7 273.9,181.3 271.6,187.3
			269.3,191.6 270.6,194.3 271.1,197.2 270.3,207.2 301.4,225.9 306.1,186.2 305,181.7 		"/>
		<polygon fill="#CE1126" points="567.5,349 565.6,345.6 564.2,344.7 562.5,344.5 561.3,345.2 560.3,345.9 559.1,346.4 556.5,347.1
			553.1,349.1 550.8,349.8 551.6,358.1 550,362 572.1,362 568.3,349.8 		"/>
		<polygon fill="#3A75C4" points="547.9,367.2 541.5,373 534.3,371.7 533,372.6 530.6,373.9 529.3,374.9 526.6,373.8 518.7,372.7
			514.5,371.7 508.3,368.8 505,368.1 501.2,368.3 504.4,371.8 514.1,377.5 516.2,379.2 531.1,386.9 540.7,388.8 544.4,390.6
			545.8,394.3 547.8,397.5 565.7,409.9 566.9,411.6 567.5,414.6 568.3,416.8 570.3,419.3 572.7,421.4 574.9,422.2 577.7,420.4
			579,416 579.1,386 578.5,382.6 572.1,362 550,362 		"/>
		<polygon fill="#3A75C4" points="362.8,402.8 364.5,404 366.8,405 368.8,406.9 369.6,409.3 369.2,413.6 370.4,415.4 374.2,416.8
			391.2,417.1 407.6,420.5 413.3,420.5 416.9,420 417.8,418 415,413.9 402.2,405.4 400.2,404.5 397.9,401.8 385.3,393.5
			380.8,392.2 370.6,390.1 367.2,388.3 363.3,387.1 361.8,390.6 362.1,399.5 		"/>
		<path fill="#3D8E33" d="M267.8,239.2c3-0.5,6-0.7,9.2-0.7c4.5,0,8.8,0.5,13,1.5c-8.5,1.9-16.4,5.8-23,11l-3.6,5.2l-1.5,2.9
			l-0.6,2.5l1.1,6l2.6,3.8l6.2,6.1l1.1,2.3l0.3,2.2l0.6,2.1l2,2.7l4.6,3.7l2.8,1.5l2.6,0.6l10.3,0.5l3.6,1.5l13.5,12.5l1.6,3.1
			l1.3,1.9l2.9,0.3l3.3-0.4l2.3-0.8l1.7-1.2l0.6-1.4l0.3-1.7l0.7-2.4l2.8-4.5l0.1-2l-5.6-7.6l-1.5-2.8l-0.6-2.4l-0.6-2.5l-1.5-1.7
			l-1.6-1.5l-1-1.8l-0.3-2.5l0.4-5.2l-0.1-2.5l-3.9-10L303,241.9l-2.2-10l0.7-6l-31.1-18.7L267.8,239.2z M293.9,284.3l2.4,7.5
			l-6.4-4.6l-6.4,4.6l2.4-7.5l-6.4-4.6h7.9l2.4-7.5l2.4,7.5h7.9L293.9,284.3z M293.9,256.4l2.4,7.5l-6.4-4.6l-6.4,4.6l2.4-7.5
			l-6.4-4.6h7.9l2.4-7.5l2.4,7.5h7.9L293.9,256.4z"/>
		<path fill="#FFFFFF" d="M277,238.5c-3.1,0-6.2,0.2-9.2,0.7l-0.1,1.3l0.3,2.8l0.6,2.8v2.4L267,251c6.7-5.2,14.5-9,23-11
			C285.8,239,281.5,238.5,277,238.5z"/>
		<polygon fill="#FFFFFF" points="290,272.2 287.6,279.7 279.7,279.7 286.1,284.3 283.6,291.8 290,287.2 296.4,291.8 293.9,284.3
			300.3,279.7 292.4,279.7 		"/>
		<polygon fill="#FFFFFF" points="290,244.3 287.6,251.8 279.7,251.8 286.1,256.4 283.6,263.9 290,259.3 296.4,263.9 293.9,256.4
			300.3,251.8 292.4,251.8 		"/>
	</g>
	<path fill="none" stroke="#999999" stroke-width="0.25" stroke-linecap="round" stroke-linejoin="round" d="M323,287.5l-0.6-2.4
		l-0.6-2.5l-1.5-1.7l-1.6-1.5l-1-1.8l-0.3-2.5l0.4-5.2l-0.1-2.5l-3.9-10L303,241.9l-2.2-10l5.4-45.6l-1.1-4.5l-2.2-4L300,174
		l-4.5-1.8l-6,0.9l-10.3,3.4l-2.9,0.2l-2.5,4.6l-2.3,6l-2.3,4.3l1.3,2.7l0.5,2.9l-3.3,43.3l0.3,2.8l0.6,2.8v2.4l-5.3,7.7l-1.5,2.9
		l-0.6,2.5l1.1,6l2.6,3.8l6.2,6.1l1.1,2.3l0.3,2.2l0.6,2.1l2,2.7l4.6,3.7l2.8,1.5l2.6,0.6l10.3,0.5l3.6,1.5l13.5,12.5l1.6,3.1
		l1.3,1.9l2.9,0.3l3.3-0.4l2.3-0.8l1.7-1.2l0.6-1.4l0.3-1.7l0.7-2.4l2.8-4.5l0.1-2l-5.6-7.6L323,287.5z M402.2,405.4l-2-0.9
		l-2.3-2.7l-12.6-8.3l-4.5-1.4l-10.2-2l-3.5-1.9l-3.9-1.2l-1.5,3.6l0.3,8.9l0.7,3.2l1.7,1.2l2.2,1l2.1,2l0.7,2.3l-0.3,4.3l1.1,1.9
		l3.9,1.4l16.9,0.3l16.4,3.4h5.7l3.6-0.5l0.9-2l-2.8-4.1L402.2,405.4z M578.5,382.6l-10.2-32.8l-0.8-0.8l-1.9-3.4l-1.4-0.9l-1.7-0.2
		l-1.2,0.6l-1,0.7l-1.2,0.5l-2.6,0.7l-3.3,2l-2.3,0.6l0.9,8.3l-3.7,9.1l-6.4,5.8l-7.2-1.4l-1.3,0.9l-2.4,1.4l-1.3,1l-2.8-1.1
		l-7.9-1.1l-4.2-1.1l-6.2-2.8l-3.3-0.7l-3.8,0.2l3.2,3.6l9.7,5.7l2,1.7l15,7.7l9.6,1.9l3.6,1.9l1.4,3.7l2,3.2l17.8,12.3l1.3,1.7
		l0.5,3.1l0.8,2.2l2.1,2.4l2.4,2.2l2.2,0.8l2.8-1.9l1.4-4.4l0.1-30L578.5,382.6z"/>
</g>

</svg>
