<?xml version="1.0" encoding="utf-8"?>

<svg version="1.2" baseProfile="tiny" xmlns="http://www.w3.org/2000/svg" xmlns:xlink="http://www.w3.org/1999/xlink" x="0px"
	 y="0px" viewBox="299.6 172.1 240.2 250" xml:space="preserve">

<g id="Saint_Kitts_and_Nevis">
	<g>
		<polygon fill="#009E49" points="411.6,228 411,228 407.6,224.5 407.3,223.5 406.4,223.2 405.1,220.7 405.1,219.3 403.9,218.7
			403.9,218.1 403.3,217.4 403.3,216.1 402.1,215.5 402.1,214.2 399.9,211.9 399.3,211.9 397.2,209.7 396.3,208.1 394.4,208.1
			392.3,205.9 392.3,204.6 391.4,203.6 388.3,202.3 387.1,201 385.2,201 382.8,199.1 380.3,197.8 379.1,197.8 377.8,196.5
			376,195.9 373.2,193.6 372.3,192 370.5,191.4 366.5,187.2 364.4,183.7 361.3,182.4 358.8,182.4 355.1,179.8 353.9,179.8
			352.7,178.5 349.6,178.5 347.2,179.8 346,179.2 341.7,172.8 336.1,172.7 335.5,172.1 331.8,172.7 326.9,175.9 323.8,175.9
			323.2,176.6 322.6,176 319.6,176 316.5,177.9 314.7,177.9 314.3,178.9 312.8,179.8 310,182.1 308.8,184.6 306.6,186.8
			304.8,187.5 303.3,189.1 303.3,189.8 301.4,192.3 301.4,193.6 300.8,194.3 300.8,200.1 300.2,200.7 300.2,202.6 300.8,203.3
			300.8,205.2 299.6,207.1 299.6,208.4 301.2,210.1 306.1,212.6 308.2,214.8 309.4,217.4 312.5,221.9 312.5,225.1 314,227.4
			315.3,227.4 318,229.6 318,230.9 320.2,233.2 321.4,233.2 324.4,236.4 325.1,236.4 325.7,237.7 329.4,239.6 330.6,239.6
			331.8,240.9 334.9,241.5 339.2,244.1 340.4,244.1 341.6,245.4 343.5,246 344.7,247.3 347.2,247.9 351.2,251.5 351.7,254.7
			354.2,257.3 354.9,259.2 355.8,260.2 357,260.2 357.6,260.8 359.4,260.8 363.1,262.8 365.9,265.6 415.8,232.4 		"/>
		<polygon fill="#CE1126" points="538.4,377.4 537.8,376.8 537.7,369.7 537.1,369.1 537.1,367.8 536.5,367.2 536.5,364.6
			535.9,363.9 535.9,358.2 535.3,357.5 535.3,354.9 534.6,353.6 533.7,353.3 533.5,352.4 532.5,352.1 530.4,349.8 530.4,348.5
			527.9,345.9 527.9,344.7 527,343.7 525.2,343.7 524.6,343 520.9,343 517.2,341.1 515.6,339.5 515,337.6 512.9,335.3 509.2,334.7
			508.6,334 507.4,334.7 504.3,334.7 503.7,334.1 499.4,334.1 497,335.3 495.7,335.3 495.1,336 487.1,336 485.6,337.6 486.2,340.2
			484.4,341.5 484.4,342.7 481.3,345.9 481.3,346.6 480.7,347.2 481.3,348.5 480.7,349.1 480.7,351.1 475.8,356.9 475.8,358.1
			473.9,362 474,363.9 473.3,364.6 473.3,365.9 472.7,366.5 472.7,374.8 473.3,375.5 473.3,381.3 472.7,381.9 472.7,383.2
			472.1,383.9 472.1,389.6 469.6,392.8 470.3,393.5 470.2,395.4 472.7,397.4 473.9,399.9 473.9,401.8 476.4,404.4 476.4,405.7
			477.6,407.6 477.6,410.2 479.4,411.4 479.8,412.4 480.4,412.4 486.2,418.5 486.5,419.4 489,420.1 490.8,421.4 492,421.4
			492.7,422.1 496.3,422 497.5,420.7 500,420.7 500.6,420.1 501.8,420.1 505.5,416.9 509.9,416.3 511,415 515.3,415 518.4,413.1
			523.9,411.8 524.6,412.4 527,412.4 528.2,411.8 533.5,406.9 533.4,405.7 534.1,405 534.1,403.1 535.9,398.6 535.9,397.4
			537.1,396 537.7,393.5 538.4,392.8 538.4,389 537.7,387.7 538.4,387.1 538.4,385.2 539.6,382.5 538.4,380 		"/>
		<polygon fill="#FCD116" points="369.3,266.6 371.1,267.9 374.8,267.3 376,268.5 384.6,268.5 384.9,268.9 421.4,244.6 420.5,241.2
			419.3,239.3 419.3,238 418,236.7 418,235.4 416.8,234.1 416.8,233.5 415.8,232.4 365.9,265.6 366.2,265.9 		"/>
		<polygon fill="#FCD116" points="450.6,320.9 450.6,322.8 451.2,323.4 451.2,326 450,327.3 452.2,330.2 456.7,329.9 457.4,328.6
			456.7,327.3 456.8,321.5 458.9,320 460.7,320 462.9,322.2 463.2,323.2 465,323.2 465.3,320.2 466.3,319.3 467.5,319.3 469.3,318
			470,317.4 471.2,318 471.8,319.9 475.5,319.9 475.8,317.7 473.9,315.1 475.5,312.9 476.1,312.9 478.9,309.9 478.8,306.8
			477.6,304.2 476.9,303.3 450.5,320.8 		"/>
		<polygon points="385.2,269.2 388.3,269.2 389.5,270.4 390.7,270.5 391.3,271.1 391.9,270.5 394.5,270.5 395,271.1 396.9,271.1
			398.7,268.5 400,268.5 400.6,267.9 412.8,267.9 413.8,268.9 413.8,270.1 414.9,272.1 416.8,274 416.8,274.7 418.1,275.3
			418.3,276.2 419.6,276.2 420.2,276.9 425.1,276.9 425.7,277.5 429.4,277.6 430.9,279.1 431.8,280.7 432.4,280.7 433.7,282
			436.8,282.7 438.6,283.9 439.8,283.9 443.5,285.8 448.8,290.7 448.8,291.3 450.6,293.3 450.6,294.6 451.2,295.2 451.2,299.1
			451.9,299.7 451.9,301 452.4,301.6 450.6,304.2 450.6,306.1 451.9,307.4 451.9,310.6 451.2,311.3 451.2,312.6 448.5,315.4
			446.9,315.7 447.5,319 449.1,319.9 450.5,320.8 476.9,303.3 474.2,300 472.4,300 468.1,297.5 467.2,298.4 466.6,301 464.4,302
			463.5,301 464.1,299 462.9,297.8 462.9,297.1 459.8,294.5 459.8,293.9 457.7,291.7 454.6,291.7 453.7,290.1 453.7,288.8
			452.8,287.1 449.7,285.2 447.8,282.7 446.6,282 444.7,282 444.1,281.4 441.7,280.1 438.9,277.2 438.6,274.3 434.9,274.3
			434.6,273.4 434,272.7 434,266.9 434.6,266.3 433.7,264.7 432.8,264.3 432.8,263.1 433.4,261.8 432.5,260.8 429.4,259.5
			427.9,257.3 427.9,252.7 421.7,245.7 421.4,244.6 384.9,268.9 		"/>
	</g>

		<path fill="none" stroke="#999999" stroke-width="0.25" stroke-linecap="round" stroke-linejoin="round" stroke-miterlimit="10" d="
		M471.2,318l0.6,1.9h3.7l0.3-2.2l-1.8-2.6l1.5-2.3h0.6l2.8-2.9l0-3.2l-1.2-2.6l-3.4-4.2h-1.8l-4.3-2.6l-0.9,1l-0.6,2.6l-2.1,1
		l-0.9-1l0.6-1.9l-1.3-1.2v-0.7l-3-2.6v-0.6l-2.1-2.3h-3.1l-0.9-1.6v-1.3l-0.9-1.6l-3.1-1.9l-1.9-2.6l-1.2-0.7h-1.9l-0.6-0.6
		l-2.4-1.3l-2.8-2.9l-0.3-2.9h-3.7l-0.3-0.9l-0.6-0.7l0-5.8l0.6-0.7l-0.9-1.6l-0.9-0.4v-1.2l0.6-1.3l-0.9-1l-3.1-1.3l-1.5-2.3v-4.5
		l-6.2-7l-1.2-4.5l-1.2-1.9V238l-1.2-1.3v-1.3l-1.2-1.3v-0.7l-5.2-5.5H411l-3.4-3.5l-0.3-1l-0.9-0.3l-1.3-2.5v-1.3l-1.2-0.6v-0.7
		l-0.6-0.6l0-1.3l-1.2-0.7v-1.3l-2.2-2.3h-0.6l-2.1-2.2l-0.9-1.7h-1.8l-2.1-2.2v-1.3l-0.9-1l-3.1-1.3l-1.2-1.3h-1.9l-2.5-1.9
		l-2.5-1.3h-1.2l-1.3-1.3l-1.8-0.6l-2.8-2.3l-0.9-1.6l-1.8-0.6l-4-4.2l-2.1-3.5l-3.1-1.3h-2.5l-3.7-2.6h-1.2l-1.2-1.3h-3.1l-2.5,1.3
		l-1.2-0.6l-4.3-6.4l-5.5,0l-0.6-0.7l-3.7,0.7l-4.9,3.2h-3.1l-0.6,0.7l-0.6-0.6l-3.1,0l-3.1,1.9h-1.8l-0.4,1l-1.5,1l-2.8,2.3
		l-1.2,2.6l-2.2,2.2l-1.8,0.7l-1.5,1.6v0.7l-1.9,2.6v1.3l-0.6,0.7v5.8l-0.6,0.6v1.9l0.6,0.7v1.9l-1.2,1.9v1.3l1.6,1.7l4.9,2.5
		l2.1,2.3l1.2,2.6l3.1,4.5l0,3.2l1.5,2.2h1.2l2.8,2.3v1.3l2.2,2.3h1.2l3,3.2h0.7l0.6,1.3l3.7,2h1.2l1.2,1.3l3.1,0.6l4.3,2.6h1.2
		l1.2,1.3l1.8,0.6l1.2,1.3l2.5,0.6l4,3.6l0.6,3.2l2.5,2.5l0.7,2l0.9,1h1.2l0.6,0.6h1.8l3.7,2l3.1,3.2l3.1,0.6l1.8,1.3l3.7-0.7
		l1.2,1.3l8.6,0l0.6,0.7h3.1l1.2,1.3l1.3,0l0.6,0.7l0.6-0.7h2.5l0.6,0.7h1.8l1.9-2.6h1.2l0.6-0.7l12.3,0l0.9,1v1.3l1.2,1.9l1.8,1.9
		v0.7l1.3,0.6l0.3,1h1.2l0.6,0.6h4.9l0.6,0.7l3.7,0l1.5,1.6l0.9,1.6h0.6l1.2,1.3l3.1,0.6l1.8,1.3h1.2l3.7,1.9l5.2,4.8v0.7l1.8,1.9
		v1.3l0.6,0.6l0,3.9l0.6,0.6l0,1.3l0.6,0.7l-1.8,2.5v1.9l1.2,1.2v3.2l-0.6,0.7l0,1.3l-2.8,2.9l-1.6,0.3l0.6,3.2l1.6,1l1.5,1v1.9
		l0.6,0.6v2.6l-1.2,1.3l2.1,2.9l4.6-0.3l0.6-1.3l-0.6-1.3l0-5.7l2.1-1.6h1.8l2.2,2.2l0.3,1h1.8l0.3-2.9l0.9-0.9h1.2l1.9-1.3l0.6-0.6
		L471.2,318z M538.4,380v-2.6l-0.6-0.6l0-7.1l-0.6-0.6v-1.3l-0.6-0.6v-2.6l-0.6-0.7l0-5.8l-0.6-0.7v-2.6l-0.7-1.3l-0.9-0.3l-0.3-1
		l-0.9-0.3l-2.1-2.3v-1.3l-2.5-2.6v-1.3l-0.9-0.9l-1.8,0l-0.6-0.7h-3.7l-3.6-1.9l-1.6-1.6l-0.6-1.9l-2.1-2.3l-3.7-0.6l-0.7-0.7
		l-1.2,0.7h-3.1l-0.6-0.6l-4.3,0l-2.4,1.3h-1.2l-0.6,0.7l-8,0l-1.5,1.6l0.7,2.6l-1.9,1.3v1.3l-3.1,3.2v0.7l-0.6,0.7l0.6,1.3
		l-0.6,0.6v1.9l-4.9,5.8v1.2l-1.8,3.9l0,1.9l-0.7,0.7v1.3l-0.6,0.6l0,8.4l0.6,0.7l0,5.8l-0.7,0.6v1.3l-0.6,0.7l0,5.7l-2.4,3.2
		l0.6,0.7l0,1.9l2.5,1.9l1.2,2.5v1.9l2.5,2.6v1.3l1.2,1.9v2.6l1.8,1.3l0.3,1h0.6l5.8,6.1l0.3,0.9l2.5,0.7l1.8,1.3h1.2l0.6,0.7l3.7,0
		l1.2-1.3h2.5l0.6-0.6h1.2l3.7-3.2l4.3-0.6l1.2-1.3h4.3l3.1-1.9l5.5-1.3l0.7,0.6l2.4,0l1.2-0.6l5.3-4.9l-0.1-1.3l0.7-0.6v-1.9
		l1.8-4.5v-1.2l1.2-1.3l0.6-2.6l0.6-0.6V389l-0.6-1.3l0.6-0.6v-1.9l1.3-2.6L538.4,380z"/>
</g>

</svg>
