<?xml version="1.0" encoding="utf-8"?>

<svg version="1.2" baseProfile="tiny" id="Layer_1" xmlns="http://www.w3.org/2000/svg" xmlns:xlink="http://www.w3.org/1999/xlink"
	 x="0px" y="0px" viewBox="0 0 273.3 297.5" xml:space="preserve">
<g id="North_Korea">
	<g>
		<polygon fill="#024FA2" points="31.4,289.9 31.3,289.9 31,289.8 30.7,289.7 30.5,289.9 30.3,290.1 30.1,290.2 30.1,290.4
			30.4,290.6 30.9,290.6 31.3,290.4 31.7,289.9 31.9,289.9 31.9,290 32.1,289.6 31.9,289 31.5,288.9 31.4,289.3 31.5,289.6
			31.4,289.7 		"/>
		<polygon fill="#024FA2" points="21.3,252.2 21.7,252.6 22.6,251.9 23.4,252.5 24.3,252.9 26.1,253.4 26,252.8 25.4,251.7
			21.4,251.7 		"/>
		<polygon fill="#024FA2" points="271.7,39.9 271.5,39.1 271.6,37.7 271.4,36.3 270.9,35.3 270.2,34.5 269.2,34.1 268.4,33.5
			267.9,32.7 267.2,30.5 267.1,30.3 266.9,30.1 266.7,29.8 266.6,29.2 266.5,28.9 266,27.8 265.8,26.7 265.6,24.5 265.4,23.8
			264.8,23.2 264,23.2 263.4,23.8 262.8,24.6 263.5,25.5 263.4,26.4 262.7,26.7 261.8,26 261.6,25.4 261.7,24.3 261.6,23.8
			261.3,23.6 261,23.5 260.6,23.6 260.2,23.4 257.2,20.9 256.9,19.9 254.6,17.5 253.7,15.5 253.7,13.3 254.3,8.4 253.6,6.3 251.7,6
			249.4,6 247.6,5.2 248.2,4.8 248.6,3.9 249,3 249.1,2.2 248.6,1.7 247.4,2 245.4,2.8 243.8,2.9 243.2,2.8 242.6,2.5 242.2,2.2
			240.9,0.4 240.6,0.1 240,0 239.5,0.1 238.7,0.7 238.3,0.9 238.4,1.3 238.7,1.6 239,1.8 239.4,2 238.9,2.3 237.6,2.4 237.1,2.8
			236.9,3.5 236.9,4.8 236.6,5.4 236.3,6 234.8,10.1 234.7,11.8 234.4,12.7 233.7,14.2 233.2,15.3 233.1,16 233,16.7 233.1,17.8
			233.4,18.2 233.8,18.4 234.3,18.9 234.4,19.4 234,19.7 233.7,20.2 233.9,21.1 232.8,21.3 232.4,22.1 232.6,22.9 233.3,23.1
			233.3,23.4 232.2,24.6 232,26.6 232.1,28.9 231.8,31 230.8,32.9 229.4,33.1 227.8,32.7 226,32.6 226.2,33.3 226.1,34 225.8,34.7
			224.8,35.1 224.7,35.5 224.6,36.1 224.4,36.7 224,37 223.6,37.1 223.2,36.9 223.1,36.3 222.8,35.8 221.6,35.1 221.3,34.7
			219.3,33 218.6,33 218.1,33.2 217.6,33.6 217.2,33.7 216.6,33.4 216.2,32.7 215.8,32.6 215.3,32.7 215.2,33.1 215.4,33.6
			215.8,34.1 215.2,34.5 214.7,33.8 214.2,34 213.9,34.9 213.7,35.9 213.4,36.1 211.1,36.5 210.8,36.8 210.6,37.2 210.5,37.7
			210.5,38.2 210.7,38.4 211,38.5 211.1,38.8 210.8,39.7 210.4,40 209,40 209,40.4 209.4,40.5 209.8,40.6 210.2,40.8 210.5,41.2
			210,41.6 209.9,42 209.9,42.5 209.8,43 209.4,43.2 209,43.4 208.6,43.7 208.5,44.3 208.7,44.7 209.7,44.8 209.9,45.3 209.8,45.7
			209.5,46 209.1,46.3 208.4,47.1 254.5,47.1 256.7,45.1 256.6,47.1 256.9,47.1 257.4,46.8 259.6,44 259.9,44 260.2,44.3
			260.5,44.4 260.7,44 260.7,43.3 260.4,43.2 260.1,43.1 259.9,42.8 259.9,42.4 260.2,42.1 260.5,41.6 260.7,40.7 260.8,40.2
			260.7,39.6 262,40.7 262.5,40.8 262.9,40.6 263.6,39.8 264.3,39.6 264.8,39.7 265.6,40.2 266,40.4 267.8,40.4 268.2,40.6
			268.8,41.2 268.9,41.6 269,42.2 268.9,43.3 270.4,43 271.4,42.7 272.3,42.2 273.1,41.6 273.3,41.4 272.1,40.4 		"/>
		<polygon fill="#024FA2" points="42.9,293.2 42.7,293.3 42.5,293.4 42.4,293.6 42.3,293.6 42.1,293.6 42,294.1 41.9,294.5
			41.4,294.3 40.9,294.6 39.6,296.1 39.8,296.5 40.7,296.3 41.3,295.9 41.7,295.5 42.8,294.8 43.5,294 44.6,292.6 44.2,292.7 		"/>
		<polygon fill="#024FA2" points="28.7,284.7 28.7,284.2 28.5,284 28.3,284 28.3,284.2 28.4,284.5 28.4,284.8 		"/>
		<polygon fill="#024FA2" points="22.7,276.8 22.5,277 22.5,277.3 22.7,277.4 		"/>
		<polygon fill="#024FA2" points="69.3,292.2 69.5,292 69.5,291.8 69.3,291.9 69,292 68.6,292.3 68.4,292.1 68.2,292.3 68.1,292.6
			68.3,292.7 68.7,292.5 		"/>
		<polygon fill="#024FA2" points="63.2,290.8 63.2,290.4 63.1,290.2 62.7,290.3 62.5,290.7 62.6,291 63,291.1 		"/>
		<polygon fill="#024FA2" points="39.7,293.2 39.5,293.3 39.3,293.3 39.8,293.6 40.2,294.1 40.3,294.1 40.3,293.9 40.2,293.7
			40.4,293.3 		"/>
		<polygon fill="#024FA2" points="44.8,291.3 44.8,291.1 45,290.9 45.5,290.3 45.2,290.3 44.9,290.6 44.5,290.9 44.3,291.5
			44.3,291.9 44.3,291.6 44.5,291.4 		"/>
		<polygon fill="#024FA2" points="57.7,294.4 57.9,294.5 57.9,294.2 		"/>
		<polygon fill="#024FA2" points="36.8,291.6 37.5,291 38.1,290.5 38.3,290.4 38.4,290.3 38.3,290.1 38.2,289.9 38,289.9
			37.3,290.2 36.4,290.8 36.2,290.9 36.3,291.2 36.5,291.7 		"/>
		<polygon fill="#024FA2" points="30.9,251.8 31.1,252.3 30.9,253.2 30.3,254.5 29.6,255.7 29.1,256.3 29.2,255.5 29,255.1
			28.8,255.1 28.5,255.2 28,255.8 27.5,257.4 27.2,258.1 25.3,260.9 25.1,261.5 24.7,264.9 24.7,265.8 24.8,266.2 25.4,266.9
			26.6,267.8 28.8,267.5 29.9,267.9 27.3,269.7 26.8,269.9 25.8,268.2 25.1,267.7 24.1,267.9 23.6,268.4 22.9,269.7 22.6,270.1
			20.9,270.5 20.6,270.6 20.2,271.7 19.4,272.2 17.3,272.3 16.3,272.7 16,273.3 16.5,273.9 21.4,274.9 23.4,274.7 24.5,274.4
			25,274 25.3,273 26.2,273.4 27.6,274.9 30.8,276.8 31.4,276.4 33.4,276 35.6,275 36.2,274.9 36.9,275 38.3,275.5 39.1,275.6
			40.8,275.6 41.5,275.9 41.9,276.8 41,277.2 40.7,279 39.8,279 39.6,278.6 39.5,278.1 39.3,277.7 38.8,277.5 36.9,277.9
			35.2,277.9 34.8,278.3 34.9,279.3 35.2,280 35.3,280.2 35.5,280.2 36.4,281 36.9,281.2 37.3,281.1 37.8,280.8 38.1,281.2
			37.7,281.8 37.2,282.1 36.6,282.3 35.9,282.3 35.2,282.2 34,281.4 33.4,281.2 32.9,281.3 31.8,282.1 31.3,282.3 30.5,282.4
			29.9,282.7 29.5,283.2 29.4,284.2 29.8,284 30.8,283.4 30.5,284.5 30.8,285.2 31.5,285.5 32.4,285.6 32.9,285.7 34,286.7
			34.5,286.9 37,287.3 37.8,287.3 38.5,287.1 39.1,286.5 39.6,285.7 40,284.7 40.5,283.9 41.3,283.8 41.2,284.8 43.1,285.8
			43.4,286.7 42.8,287.7 41,288.9 40.4,289.7 43.1,289.7 43.3,289.8 43.4,290.1 43.4,290.3 43.4,290.4 44.2,290.2 45,289.7
			46.3,288.6 45.9,288.4 45.6,288.2 45.3,287.8 45.1,287.4 46.1,287.2 47.3,287.4 48.4,287.9 49.2,288.6 49.3,287.7 48.5,286.9
			47.4,286.3 46.6,286 47,285.7 47.6,285.6 48.7,285.6 48.6,285.4 48.5,285.1 48.3,284.9 49.2,284.4 49.6,284.8 50,285.3
			50.8,285.6 52,285.8 51.9,286.4 50.7,287.8 51,288.4 51.4,288.8 52,288.9 52.7,288.6 52.6,289.9 51.8,290.2 49.7,289.7
			48.8,289.9 47.8,290.4 46.9,291.1 46.3,291.9 47.1,292.2 48.5,291.9 49.2,292.3 46.9,293.3 45.8,293 45.1,294.2 44.5,297
			45.1,297.6 45.6,297.3 46.1,296.6 46.3,295.7 46.7,295.4 47.5,295.3 48.9,295.2 50.5,294.6 51.2,293.4 51.7,292.1 52.7,291.1
			52.4,292 52.8,292.4 53.3,292.5 53.6,292.4 53.8,291.8 54.1,291.6 54.6,291.6 55.1,291.9 55,292.1 55,292.1 54.9,292.2
			54.8,292.3 55.1,292.6 55.5,292.9 55.9,293 56.4,293 56.7,292.8 56.7,292.3 56.6,291.5 56.3,290.9 56.2,290.6 56.4,290.4
			57.2,290.4 57.5,290.2 57.7,289.7 57.4,289.5 56.8,288.9 57.6,287.9 57.4,286.7 57,285.4 57.1,284.2 57.7,284.7 58.3,285.2
			58.8,285.6 59.5,285.6 60.1,285.4 60.7,285.1 61.3,284.7 61.8,284.2 61.5,283.8 61.2,284 60.8,284.2 60,284.2 60.4,283.4
			60.9,282.7 60.5,282.4 60,282.4 59.6,282.5 59.2,282.7 59.5,281.6 59,281.4 57.6,281.6 56.7,281.3 55.7,280.6 54.9,279.6
			54.9,278.8 55.7,278.4 56.8,278.4 57.8,278.7 59.6,279.5 60.3,279.6 62.1,279.7 62.5,279.9 63.2,280.3 63.7,280.4 64.3,280.5
			64.5,280.7 64.4,281.7 64.4,282.4 64.6,282.8 64.8,283 65.8,283.2 66.1,283.6 66.3,284.1 68.4,287.4 69.1,288.2 69.5,288.5
			69.8,288.5 70,288.5 70.6,288.6 71,288.7 71.5,289 71.9,289.3 72.3,289.7 72.2,288.9 71.8,287.5 71.7,286.9 71.4,286.7
			70.8,286.1 70.5,285.4 71.2,284.9 71.6,285.1 72.3,285.6 72.9,286.3 73.2,286.9 73.4,288 74,288 75.2,287.1 75.4,289.6
			75.6,290.8 76,290.9 76.6,290.9 77,291.9 77.6,294.1 79.6,294.5 79.8,294.1 79.9,293.3 79.9,292.6 79.7,292 79.4,290.9
			79.3,290.1 79.2,289.9 79.2,289.7 79.6,289.3 80.5,288.7 81.4,288.5 83,288.6 83.9,288.4 84.8,288.1 88.1,286.4 89,286.1
			89.8,286 90.1,286.2 91.1,288 91.5,288.3 97.4,292.1 98.2,292.3 99.3,291.6 99.3,291.5 98.7,284.6 98.8,284.1 99.3,281.6
			100.1,281 101,280.3 101.6,280.3 102.1,280.2 102.7,280 103.8,279.1 107.4,273.7 108.5,272.5 110,271.4 110.3,271.1 111.7,267.6
			111.9,267.3 112.9,266.1 115.5,263.9 118.5,262 121.8,260.7 126.3,260.5 131.8,260 136.5,261.2 139.1,260.4 148.1,259.6
			148.7,260 149.9,261.3 152.3,260.8 158.3,261.1 159.4,260.9 161.9,260 164.2,258.5 166.2,256.4 166.9,255.4 167.6,254.2
			168,252.2 167.9,251.7 30.8,251.7 		"/>
		<polygon fill="#FFFFFF" points="55.4,244.1 55.8,244.3 56.7,244.3 57.1,244.5 57.4,244.7 57.9,245.6 58.3,246 57.4,246.2
			56.3,246 55.2,245.4 54.8,244.6 54.6,244.3 54.3,243.9 53.9,243.5 53.5,243.4 53.3,243.7 53.2,244.2 53,244.7 52.4,244.8
			52.2,244.5 52.1,243.5 52,243.2 45.6,243.2 45.3,243.4 44.4,244 43.9,244.6 43.7,244.8 43.1,244.6 42.4,244.2 42,243.9
			41.6,243.8 40.6,244.6 40.2,244.8 39.7,244.6 38.8,244 38.4,244.1 38.2,244.6 38.3,245.4 38.4,246.1 38,246.3 37.4,245.8
			36.9,244.9 36.3,244.1 35.5,244.1 35.2,244.6 35.3,245.2 35.6,245.9 36.1,246.3 35.9,247.1 36,248.2 35.8,248.8 35.2,248.6
			33.8,249.8 33.1,250.1 32.9,249.1 32.4,248.6 31.5,248.3 30.4,248.3 29.6,248.6 30.1,249.1 30.1,249.5 30,250 29.9,250.6
			30.1,251.2 30.8,251.7 167.9,251.7 167.7,250.7 167.5,248.7 167.8,248 168.4,246.5 168.9,246.1 170.2,245 173.5,243.4
			173.4,243.2 54.7,243.2 		"/>
		<polygon fill="#FFFFFF" points="188.9,55.5 188.8,55.6 190.1,55.6 		"/>
		<polygon fill="#FFFFFF" points="30.9,245.1 31,244.5 30.9,244.4 30.5,244.6 30.3,244.4 30,243.8 29.7,243.7 29.7,244 29.8,244.3
			29.7,244.5 29.6,244.6 29.4,244.8 29.6,245.1 30,245.1 30.3,245.1 30.3,245.3 30,245.6 29.9,245.7 29.8,245.5 29.5,245.5
			29.3,245.8 29.3,246.3 29.5,246.4 30.5,245.7 		"/>
		<polygon fill="#FFFFFF" points="254.7,49.1 254.8,49.3 254.8,49.6 255,49.9 255.6,49.3 255.5,48.5 255,48.1 254.6,48.7 254.5,49
					"/>
		<polygon fill="#FFFFFF" points="256.6,47.3 256.9,47.1 256.6,47.1 		"/>
		<polygon fill="#FFFFFF" points="25.4,251.7 25.3,251.5 25,251.1 24.5,250.8 23.8,250.6 23.6,250.1 23.1,250.2 21.5,251.3
			21.4,251.7 		"/>
		<polygon fill="#FFFFFF" points="208.3,47.2 207.1,48.3 205.9,49.7 205.3,50.1 204.6,50 203.5,49.4 203.5,50.5 203,51.2
			201.9,52.4 201.2,52.8 200.1,52.9 199.2,53.2 198.9,54 198.4,55.6 246.2,55.6 246.3,55.6 246.9,55.5 247.3,54.5 247,54.1
			247.9,53.8 249.8,54.6 250.5,54.5 250.6,54.3 250.5,53.9 250.4,53.5 250.3,53.4 250.9,52.6 251.3,52.3 251.7,52.5 251.9,52.5
			252.2,49.2 252.6,48.3 254,47.5 254.5,47.1 208.4,47.1 		"/>
		<polygon fill="#ED1C27" points="22.7,190.5 23.3,190.9 23.5,190.5 23,190.3 		"/>
		<polygon fill="#ED1C27" points="20.1,191.9 19.9,191.5 19.7,192.1 		"/>
		<polygon fill="#ED1C27" points="12.8,201.8 13,202.3 13.2,202.4 13.4,202.4 13.9,202.1 13.9,201.5 13.8,201.4 13.7,201.3
			13.7,200.8 13.2,201.3 12.8,201.4 		"/>
		<polygon fill="#ED1C27" points="14,200.2 14.3,200.6 14.4,200.5 14.3,200.2 14.1,199.9 		"/>
		<polygon fill="#ED1C27" points="18.9,195.2 18.8,195.6 18.8,196 19.2,195.2 		"/>
		<polygon fill="#ED1C27" points="18.8,203 18.5,202.8 18.2,203 18.1,203.2 18.1,203.5 18.5,203.3 		"/>
		<polygon fill="#ED1C27" points="14.2,198.5 13.9,198.8 14.1,199.3 14.2,199.3 14.3,199 14.5,199 		"/>
		<polygon fill="#ED1C27" points="34.8,197.9 35,198.3 35.1,198 		"/>
		<polygon fill="#ED1C27" points="39.2,197.5 39.5,197.1 39,196.9 38.9,196.6 38.5,196.7 38.5,197 38.9,197.4 		"/>
		<polygon fill="#ED1C27" points="20.4,201.3 20.5,201.4 20.8,201.1 21.3,200.7 21.1,200.6 21.1,200.5 20.8,200.4 20.3,200.4
			20.3,200.8 20.5,201 20.3,201.1 		"/>
		<polygon fill="#ED1C27" points="22.2,197.7 21.7,197.4 21.9,197.6 22.1,197.7 		"/>
		<polygon fill="#ED1C27" points="23.2,198.3 24.3,198 25.5,197.3 26.4,196.3 27,194.9 26.8,194 27,193.4 27.6,192.3 26.7,191.9
			26.1,192.1 25.3,193.4 23.7,195.1 23.5,195.7 24.3,195.5 24.1,196.4 		"/>
		<polygon fill="#ED1C27" points="36.7,196.1 37.1,196 37.1,195.9 37,195.4 36.6,195.5 36.2,195.4 36,195.4 36,195.6 36.4,195.8
			"/>
		<polygon fill="#ED1C27" points="36.2,197 36.4,197.3 36.5,196.8 36.8,196.5 36.9,196.6 37.1,196.2 36.7,196.2 36.3,196.3
			36.1,196.4 35.8,196.8 		"/>
		<polygon fill="#ED1C27" points="26.3,191.7 26.4,191.4 26.1,191.2 26,191.3 25.9,191.4 		"/>
		<polygon fill="#ED1C27" points="20.3,190.8 19.9,190.7 19.9,191.2 20.1,191.2 		"/>
		<polygon fill="#ED1C27" points="138,213.9 138.4,213.8 138.4,213.6 137.8,213.5 137.4,213.6 		"/>
		<polygon fill="#ED1C27" points="142,212.8 142,213 142,213.4 141.8,213.7 141.9,213.7 142.4,213.5 142.8,213.5 142.7,213
			142.3,212.8 		"/>
		<polygon fill="#ED1C27" points="16.8,197 16.8,197.2 16.8,197.5 16.8,198 16.9,198.3 17.3,198.3 17.6,198 17.8,197.4 17.9,196.9
			17.6,196.6 17.1,196.8 		"/>
		<path fill="#ED1C27" d="M43.1,149.4c0-4.9,0.5-9.7,1.5-14.3h-0.1l-0.6-0.2l-0.7-0.3l-0.6,0.1l-0.7,0.3l-0.3,0.6l-0.3,0.5l-0.4,0.4
			l-0.6,0.2l-1.1,0.5l-1.5,0.5l-1.2,0.5l-0.9,0.6l-0.8,0.5l-1.1,0.5l-0.7,0.4l-1,0.3l-1.1,0.4l-0.4,0.7v0.8l0.5,0.7l0.5,0.7l0.3,0.7
			l-0.2,0.5l-0.7,0.2l-0.8,0.1l-0.9-0.1l-1.2,0.2l-1-0.1l-0.4-0.1l-0.3-0.2l-0.1-0.3l-0.4-0.6l-0.4-0.4l-0.2,0.3l-0.3,0.7l-1.4,1.9
			l-2.1,2.1l-0.9,0.6l-1,0.2l-0.6,0.5l-0.2,1.4l-0.3,1.3l-0.5,0.9l-0.8,0.4l-2.2,0.5l-0.6,0.4l-0.7,0.8l-1.7,1.1l-0.7,0.6l-0.1,0.3
			l-0.1,0.7v0.2l-0.2,0.2l-0.5,0.1l-0.2,0.1L4,164.8l-0.6,0.7l0.4,0.9l0.2,1l0.3,0.9l0.8,0.7l1,0.2l2,0.1l0.8,0.4l-1.4,0.4l-1.3-0.5
			L5,169.4l-1,1.4l-0.3,2.7l-0.2,0.8L3,174.7l-0.6,0.2l-0.6,0.3l-0.4,0.7l0.3,0.2l0.3,0.2l0.3,0.3l0.3,0.4l0.6,1.2l1.2,0.2l0.3,0.1
			l0.1,0.3l0.2,1l0.2,0.2l0.1,0.1l0.2,0.5l0.2,0.2h0.2l0.2-0.1l0.2-0.2l0.2-0.1l3.6,0.7l1.5,0.1l0.4,0.2l0.1,0.4l-0.2,1.1l0.2,0.4
			l0.8,0.4l0.2,0.3l-0.1,0.5l-0.2,0.9l-0.1,0.5l0.1,0.4l0.3,0.2l0.4,0.1l0.4,0.3l0.2,0.3l0.3,0.7l0.2,0.2h0.3l0.4-0.2h0.3l0.1,0.8
			l-0.2,0.8l-0.9,2.2l-0.4,0.7l0.1,0.2l0.1,0.1l0.3,0.1l-0.2,0.3l-0.1,0.2v0.2l1.1-0.4l1.2-0.9l1.2-0.6l1,0.3l0.5-0.5v-0.5l-0.1-0.5
			l0.1-0.5l0.5-0.8l-0.1-0.2l-0.3-0.3l-0.2-0.8l0.2-0.6l0.3-0.6L20,186l-0.2-0.6l-0.3-0.4l-0.2-0.5v-0.6l0.3-0.6L20,184l0.3,0.7
			l0.4,0.6l1.1,0.4l0.2,0.5l0.3,0.1l1,0.1l0.6,0.3l0.8,0.4l0.7,0.5l0.5,0.7l0.4,1.7l0.5,0.3l0.6,0.2l0.5,0.4l0.4-1l0.5,0.1l1.2,1.3
			l0.4,0.1h0.4l0.3,0.1l0.1,0.4l0.2,0.3l0.9,0.9l0.3,0.2l0.5,0.2h0.4l0.7-0.2l0.5,0.1l0.2,0.2L35,194l0.3,0.4l0.1,0.4v0.4l0.1,0.3
			l0.4,0.1h1.9l-0.1-0.3l-0.3-0.8l-0.2-0.3h2.9l-0.6,1l0.4,0.4l0.7,0.2l0.4,0.5l0.2,0.1l1.1,1.4l0.4,0.3l0.4-0.1l0.4-0.2l0.9-0.3
			l4.4-2.3l0.7-0.5l0.3,0.7l-0.1,0.7l-0.4,0.6l-1.2,0.5l-0.3,0.6l-0.2,0.8l-0.2,0.6l-0.8,0.9l-0.8,0.6l-0.6,0.8l-0.1,1.4l0.4-0.2
			l0.4-0.1l0.5-0.1h0.5l-1,1.5l-0.1,0.8l0.8,0.3l2.6,0.4h0.9l-0.2,0.6l-0.4,0.4l-0.9,0.5l-0.2-0.2l-0.2-0.1l-0.4-0.2l0.4,0.6
			l0.2,0.2l-0.3,1l0.2,0.8l0.5,0.4l0.7,0.1l-0.8-0.2l-1.6,3l0.1,0.5l0.4,0.4l0.2,0.8l-0.9-0.4h-1l-0.9,0.4l-0.6,1.1l0.1,0.5l0.4,0.5
			l0.1,0.4l-0.5,0.2h-1.1l-0.5,0.2l-0.4,0.5l0.3,0.3l-0.1,0.2l-0.2,0.2l-0.1,0.4l0.1,0.5l0.2,0.1h0.2l0.1,0.1l0.4,1.3l0.3,0.3
			l0.8,0.3l-0.8,0.2l-1.1-0.1l-0.9,0.1l-0.4,0.7l-0.2,1.1l-0.5,1l-1.3,1.5l1-0.2v0.5l-1,1.9l-0.6,0.6l-0.3,0.7l0.5,0.8l-2,2
			l-0.3,0.5l-0.1,2l-0.2,0.9l-0.3,0.9l0.6,0.7l0.9,0.1l0.8,0.3l0.4,1.3l0.3,0.8l0.6-0.4L40,238l-0.2-1.3l0.7,0.2l0.5,0.5l0.2,0.6
			l-0.2,0.5l0.3,0.2l0.3,0.2l-0.9,1l-0.1,0.5l0.3,0.6l0.5,0.5l0.6,0.2h0.7l0.7-0.2v-0.3l-0.2-0.2l-0.3-0.3l-0.1-0.3l0.2-0.3h0.2
			l0.2,0.2l0.1,0.3l0.1,0.2l1.1,0.2l0.4-0.2l0.2-0.7h0.3l0.2,1.2l1,0.1l2.1-1l-0.2-0.5l-0.3-0.4l-0.3-0.3l-0.4-0.3h0.6l0.3-0.4
			l0.2-0.4l0.1-0.2l0.4-0.1v0.1l-0.1,0.3l1.1,2l0.3,0.4l0.5,0.3h1l0.5,0.1l0.7,0.6l1.3,1.6h118.7l-0.4-0.8l-0.4-0.4l-0.7-0.4
			l-0.3-0.3l-1.3-2.1l-0.5,0.2l-1.9,1.1l-0.6,0.2l-5.1-6.3l-3.3-0.8l-0.8-0.9l-1.4-2.3l-0.8-0.5l-0.4-0.1l-0.3-0.3l-0.2-0.4
			l-0.2-0.8l-0.2-0.4l-0.2-0.2l-0.3,0.2l-0.4,0.4l-0.2-0.2l-0.1-0.7l-1.5-1.5l-0.6-0.9l-0.3-0.8l-0.3-0.6l-1.3-1.9l-1-1.7l-0.4-0.4
			l-0.6-0.1h-2.9l-0.6-0.2l-0.4-0.4l-0.4-0.5l-0.5-0.4l-1.1-0.3l-3.2,0.3l-0.9-0.6l-0.9-2.1l-0.8,0.1v0.3l0.1,0.6l-0.2,0.5l-0.8,0.1
			l-0.5-0.2l-0.9-1l-0.5-0.2l-0.6-0.4l-0.2-0.4c-6.5,2.1-13.5,3.2-20.7,3.2C73.7,217.6,43.1,187.1,43.1,149.4z"/>
		<path fill="#ED1C27" d="M122.6,82.1l0.6-0.2l-0.6-0.6l-2.2-0.9l-0.7-0.1l0.2-0.6l0.1-0.2l-1.3-0.5l-0.7-0.4l-0.4-0.6l-0.2-0.8
			l0.2-0.6l0.4-0.2l0.7,0.1l-0.4-0.7l-0.9-1.5l-0.2-0.7l-0.4,0.1l-2.2-1.8l-1-0.2h-0.5l-0.2-0.3l-0.1-1.2l-0.4-0.4l-0.9,0.3
			l-0.9,0.6l-0.4,0.7l-0.5,1.5l-2.4,1l-0.5,1.4l-0.3,0.5l-0.7-0.5l-1.3-1.4l-0.6-0.4l-0.6-0.2h-0.7l-0.7,0.3l0.3,0.7l0.5,0.4
			l0.6,0.4l0.6,0.5l-0.7,0.4l-1.4,1.3l-0.5,0.3l-1.5-0.1l-0.7,0.2l-0.7,1.4l-1.5,1.6v0.7l0.5,0.8l0.2,0.7V83
			c4.4-0.9,9.1-1.4,13.8-1.4C115.2,81.2,118.9,81.5,122.6,82.1z"/>
		<polygon fill="#ED1C27" points="51.9,243 50,241.8 49.5,242 49.3,242.4 49.2,242.8 49.1,243 48.5,242.9 47.6,242.6 47.2,242.6
			46.4,242.8 45.6,243.2 52,243.2 		"/>
		<polygon fill="#ED1C27" points="2.2,174.2 2.9,173.7 2.8,172.9 2.5,173.4 		"/>
		<path fill="#ED1C27" d="M198.2,56.2l-1.6,0.5l-3.7-1l-2.9-0.1h-1.3l-0.5,0.9l-1.1,0.3l-3.2-0.3l-0.4,0.2l-0.4,0.4l-0.6,0.9
			l-0.4,0.2l-0.5-0.3l-0.4-0.1l-1.8,0.7l-0.6-0.1l-1.4-0.7l-2,0.1l-0.9-0.7l-1-0.3l-4.3-0.4l-6.9,1.9l-2,0.1l-0.9,0.3l-0.5,0.8
			l-0.1,0.9l0.8,4.9l0.3,0.9l0.4,0.8l1.4,0.5l0.3,1.1l2,3.9l0.4,1.2l0.2,1.3l1.2,1l1.6,1.4l1.1,0.5l0.8,1l0.5,1.2l0.1,1l0.8,1.2
			l-0.6,2.2l-4.4,7.9L164,94l-1.8-0.2l0.6-0.8l-0.6-0.3l-0.7,0.6h-1l-0.7-0.6l0.2-1.2l-0.7,0.4l-0.4,0.1l-0.4-0.1l-0.2-0.6l0.1-1v-1
			l-0.5-0.6l-0.4,0.5l-0.3,0.4l-0.4,0.2l-1.3-1.2l-1.7,0.3l-1,0.3l-0.1,0.2l-0.3,0.9l-0.7,0.4l-0.9-0.1l-0.8-0.5l-1.1,0.4l-3.7-0.1
			c20.5,11.8,34.3,33.9,34.3,59.2c0,5.3-0.6,10.5-1.8,15.4l0.2-0.2l1.9-0.8l0.9-0.5l0.4-0.8l1.9-1.1l0.4-0.5l0.2-0.1l0.3,0.1
			l0.6,0.3h0.3l0.6-0.5l0.8-1.1l0.6-1l-0.1-0.5l-0.6-0.4l-0.6-1l-0.4-1.3l0.2-1.1l0.6-0.5l2.1-0.9l1.6-0.3l2.1-0.7l4-2l0.5-0.5
			l0.3-0.8l2.3-2.5l1.7-0.8l3.5-0.9l1.5-1.3l1.6-2.8l0.6-0.8l0.1-0.5l0.1-1.4l0.1-0.3l0.4-0.2l0.2-0.5l0.1-0.6l0.1-0.6l0.2-0.3
			l0.5-0.5l0.2-0.3v-0.3l-0.3-0.2v-0.2l0.4-1l0.3-0.4l0.8-0.3l0.5-0.3l0.4-0.1l0.4,0.3l0.6,0.8l0.4,0.4l0.3,0.2l0.6-0.6l0.8-2.3
			l0.6-0.5l0.7-0.2l4.9-2.7l1-0.2h1l0.4-0.2l0.4-0.4l0.6-0.8l0.2-0.2l0.5-0.3l1.8-0.6l1.8-0.2h1.1l0.7-0.1l0.5-0.4l0.5-1l0.8-2.2
			l0.2-1.1l0.1-1.1l-0.2-0.4l-0.8-1l-0.2-0.6l-0.3-2.5l-0.1-1.8l0.1-0.9l0.3-0.7l-0.7-2.1l0.3-2.5l1.7-7.1l0.5-1.3l0.7-0.6v-0.3
			l0.3-1.3l0.1-0.2l0.2-0.7l0.2-0.2v-0.2l-0.4-0.6l-0.2-0.1l-0.6,0.1h-0.3l-0.4-0.9l-0.2-0.3l-1.2-1l-0.4-0.1l-0.6-0.3l-0.6-0.8
			l-0.6-1l-0.3-1l-0.2-1.1l-0.1-1.3l0.1-1.2l0.8-1.8l0.4-2.6l0.4-1.2l0.4-0.5l0.9-0.9l0.4-0.6l0.4-0.9l0.6-2l0.4-0.9l1.1-0.8
			l2.5-0.5l0.9-1.2l0.2-1.9l-0.1-1.9l0.3-1.5l1.3-0.6l1.5,0.1l0.4-0.4l0.2-1.1l0.1-0.2l0.2-0.7l0.1-0.5l-0.1,0.1l0.5-0.8l0.3-0.3
			l0.4-0.1l-0.4-0.6l-0.2-0.3l-0.3-0.3l1.3-1h0.3l0.4,0.2l0.4-0.3l0.3-0.5l0.3-1.9l0.4-0.2H198L198.2,56.2z"/>
		<polygon fill="#ED1C27" points="10.4,186.3 10.7,186.1 10.9,185.8 10.6,185.7 10.2,186 9.6,186.5 9.8,186.8 10,186.3 		"/>
		<polygon fill="#ED1C27" points="16.3,194.6 15.2,194.9 14.6,194.9 14.4,194.9 13.7,195.5 13.3,195.7 13,196 12.9,196.4
			13.1,196.5 13.3,196.3 15,195.8 15.8,196.3 16.4,196.3 16.8,196 17.2,195.5 17.3,195 17,194.6 		"/>
		<polygon fill="#ED1C27" points="6.9,188.1 6.6,188.2 6.8,188.4 7,188.4 		"/>
		<polygon fill="#ED1C27" points="0.5,174.6 0,175.3 0.6,174.8 		"/>
		<polygon fill="#ED1C27" points="1.8,178.3 2.2,178.4 2.6,177.7 2.1,177.2 1.7,177.3 		"/>
		<polygon fill="#ED1C27" points="1.2,176.3 1.2,176.6 1.3,176.8 1.8,177 2.1,176.8 1.6,176.3 		"/>
		<path fill="#FFFFFF" d="M145.2,90.2h-0.3l-1.2-0.5h-0.2l-0.5,0.8l-0.4,0.2l-0.3-0.2l-1.4-1l-1.7-0.4l-0.6-0.6l-0.1-1.3l-0.7,0.4
			l-0.8-0.2l-0.7-0.4l-0.7-0.2l-0.7,0.2l-0.6,0.4l-0.7,0.3l-0.9-0.1l-0.2-0.1l-0.2-0.3l-0.3-0.3l-0.4-0.2h-0.3l-0.7,0.3l-0.4,0.1
			l-1.7-0.2l-0.8-0.3l-0.7-0.3l0.3-0.1l0.4-0.3l0.3-0.4v-0.4l-0.3-0.3l-0.3,0.1l-0.3,0.2l-0.4,0.1l-0.6-0.1l-1-0.7l-0.6-0.3
			l-0.3,0.2l-0.6,1.2l-0.3,0.2l-0.2-0.1l-0.4-0.2l-0.2-0.3l-0.4-0.1l-0.6,0.4l-0.3,0.1l-0.3-0.5l-0.3-0.2l-0.4-0.1l-0.3-0.1l0.6-1
			l0.8-0.8l0.9-0.5l0.4-0.1c-3.7-0.6-7.4-0.9-11.2-0.9c-4.7,0-9.3,0.5-13.8,1.4l-0.1,0.6l-0.8,1.5L96,87.4l-1.5,2.4l-0.3,0.7
			l0.3,1.4l0.6,1.8v1.4l-1.5,0.4v-0.4l0.3-0.1l0.1-0.2l0.1-0.2l0.1-0.3H93l-1.3,1l-2.1,2.5l-0.5,0.7l-1,2.3l-0.5,0.7l-1.1,1.1
			l-0.5,0.6l-1.1,2.5l-0.4,0.6l-0.6,0.6l-4.8,2.8l-1,1l0.6,1l-0.5,0.8l-0.6,0.6l-0.4,0.6l0.1,0.7l-0.5,0.2l-0.4,0.2l-0.3,0.3
			l-0.3,0.4l0.1,0.5l-0.3,0.7l-0.9,1.3l-0.7,0.6l-0.8,0.1l-0.7,0.3l-0.5,0.8l0.7-0.1h0.6l0.2,0.3l-0.3,0.6l-0.5,0.3l-1.3,0.2
			l-0.6,0.5l-0.6,0.3l-0.5-0.4l-0.5-0.6l-0.5-0.3l-0.7,0.1l-0.5,0.3l-1.8,1.3l-0.4,0.1l-1.8-0.8l-0.4-0.1h-0.4l-0.3,0.2l-0.2,0.4
			l-0.2,0.4l-0.4,0.2l-1.3,0.3l-1,0.7l-1.6,2.1l1.2,1.5l0.4,0.8l-0.6,0.4l-2.5,0.1l-0.1-0.2l-0.3-0.5l-0.6-0.5l-0.7-0.1l-0.5,0.4
			l-0.2,1.1v0.5h42.7l14.8-45.7l14.8,45.7h48l-38.8,28.2l7.8,24.1h0.1l0.7-0.2l1.6-1.3l0.7-0.4l2-0.4l0.6-0.3l0.5-0.5l0.1-0.6
			l-0.6-0.5l4-0.4l0.4-0.5l0.4-2.6l0.5-1.1l0.3-0.2l0.7-0.1l0.4-0.2l0.3-0.4l0.7-1.2l0.3-0.3l0.4-0.1l0.4-0.2l0.4-0.3l0.1-0.3
			l0.1-0.8l0.2-0.3l5.7,1l0.2,0.3l0.1,0.2l0.4,0.1l0.4-0.1l0.8-0.4l0.5-0.2h0.4l0.9,0.1l0.4-0.1l0.3-0.3l0.3-1l0.2-0.4l0.8-0.3
			l1.3,1.8l0.9,0.2l1.2-1.9l0.4-0.4l1.6-1.2l0.5-0.2l1.6-0.2l0.3-0.2l0.2-0.2l0.1-0.1c1.1-5,1.8-10.1,1.8-15.4
			C179.6,124.1,165.8,102,145.2,90.2z"/>
		<polygon fill="#FFFFFF" points="165.1,171.2 165.3,171.6 166.5,171.6 167.1,171.5 167.5,171.3 167.7,170.9 167.9,170.5
			167.9,170.2 167.7,170.2 167.5,170.4 167.4,170.5 167.3,170.8 167.1,171.1 167,170.3 166.7,170.5 166.5,170.8 166.4,170.7
			166.3,170.5 166.1,170.5 165.8,170.3 165.5,170.3 165.5,170.6 165.6,171 165.1,171 		"/>
		<path fill="#FFFFFF" d="M72.5,202.9l14.8-45.7l-36.5-26.5l-0.3,0.1l-0.4,0.3l-0.4,0.6l-0.1,0.4v0.8l-0.1,0.3l-0.4,0.3l-0.7-0.1
			l-0.3,0.3l-0.2,0.8l0.1,0.7l-0.2,0.4h-1l-0.3-0.2l-0.5-0.5l-0.4-0.2h-0.3l-0.7,0.3c-1,4.6-1.5,9.4-1.5,14.3
			c0,37.7,30.5,68.2,68.2,68.2c7.2,0,14.2-1.1,20.7-3.2l-0.3-0.7l-0.2-1.4l0.1-1.2l0.3-1.6l0.5-1.4l-0.1-0.3l-0.2-0.4V207l0.4-0.1
			l0.3,0.1l0.3,0.1l0.3,0.2l0.2,0.3l0.4-0.2l1.3-0.3l0.3-0.4l-0.2-0.9l-0.6-0.2l-0.7,0.2l-0.5,0.4l-0.5-0.3l-1-0.3l-0.5-0.2V205
			l2-0.8l0.2-0.3l0.4-0.6l1.3-1.2l0.5-0.4l0.5,0.2l0.4,0.6l0.1,0.7l1.5,2.1l-0.7,1.5l-0.3,0.8l0.1,0.7l0.4,0.6l0.5,0.2l0.5-0.2
			l0.3-0.6l0.1-1.5l-1.2-5.5l-0.1-3.6l0.3-1.6l0.7-1.5l-27.9-20.3L72.5,202.9z"/>
		<polygon fill="#ED1C27" points="174.2,129 126.2,129 111.4,83.3 96.5,129 53.9,129 53.8,129.7 53.5,130.4 53,130.6 51.2,130.6
			50.9,130.7 87.4,157.2 72.5,202.9 111.4,174.6 139.2,194.9 140,193.2 139.8,192 139.1,190.9 138,190.4 137.6,190.5 137.3,190.2
			137.2,189.7 137.1,188.3 136.9,187.5 136.9,187 137,186.6 137.4,185.7 137.5,185.3 137.7,184.8 138.9,184.1 139.5,182.8
			140.1,182.1 140.8,181.6 141.4,181.3 143.2,181.3 135.4,157.2 		"/>
	</g>
	<path fill="none" stroke="#999999" stroke-width="0.25" stroke-linecap="round" stroke-linejoin="round" d="M2.8,172.9l-0.3,0.5
		l-0.3,0.8l0.7-0.5L2.8,172.9z M10.2,186l-0.6,0.4l0.2,0.3l0.2-0.5h0.4l0.3-0.2l0.2-0.3l-0.3-0.1L10.2,186z M6.6,188.2l0.2,0.2H7
		l-0.1-0.3L6.6,188.2z M22.7,190.5l0.6,0.4l0.2-0.3l-0.4-0.2L22.7,190.5z M20.3,190.8h-0.4l-0.1,0.4l0.3,0.1L20.3,190.8z
		 M26.3,191.7v-0.4l-0.2-0.2l-0.2,0.1l-0.1,0.1L26.3,191.7L26.3,191.7z M20.1,191.9l-0.2-0.4l-0.2,0.6L20.1,191.9z M18.9,195.2
		l-0.1,0.4v0.4l0.3-0.8H18.9z M36.7,196.1l0.5-0.1v-0.2l-0.1-0.5l-0.4,0.1l-0.4-0.1l-0.2,0.1l-0.1,0.2l0.4,0.2L36.7,196.1z
		 M36.2,197l0.2,0.4l0.2-0.5l0.3-0.3l0.1,0.1l0.2-0.4h-0.5l-0.4,0.1l-0.3,0.2l-0.3,0.4L36.2,197z M39.2,197.5l0.3-0.5l-0.5-0.2
		l-0.1-0.3l-0.4,0.2v0.2l0.4,0.4L39.2,197.5z M22.2,197.7l-0.5-0.3l0.2,0.2L22.2,197.7L22.2,197.7z M34.8,197.9l0.1,0.3l0.1-0.3
		H34.8z M21.1,200.5l-0.3-0.1h-0.4v0.4l0.2,0.2l-0.2,0.1l0.1,0.2l0.1,0.1l0.3-0.2l0.5-0.4l-0.2-0.1L21.1,200.5z M18.8,203l-0.3-0.2
		l-0.3,0.2l-0.2,0.2v0.3l0.4-0.2L18.8,203z M0,175.3l0.6-0.5l-0.1-0.2L0,175.3z M13.9,198.8l0.2,0.4h0.1l0.1-0.2h0.2l-0.3-0.5
		L13.9,198.8z M13.8,201.4L13.8,201.4l-0.1-0.5l-0.5,0.4l-0.4,0.1v0.4l0.1,0.5l0.3,0.2h0.2l0.5-0.3v-0.6L13.8,201.4z M137.4,213.6
		l0.5,0.3h0.4v-0.2l-0.5-0.1L137.4,213.6z M22.5,277.3l0.1,0.1v-0.5l-0.2,0.1L22.5,277.3z M28.3,284l-0.1,0.2l0.1,0.3v0.2l0.3-0.1
		v-0.4L28.3,284L28.3,284z M44.8,291.3v-0.2l0.2-0.2l0.5-0.6l-0.4-0.1l-0.2,0.3l-0.4,0.3l-0.3,0.6v0.5l0.1-0.3l0.1-0.2L44.8,291.3z
		 M62.7,290.3l-0.2,0.4l0.1,0.3l0.4,0.1l0.2-0.3v-0.4l-0.1-0.2L62.7,290.3z M69,292l-0.4,0.3l-0.3-0.2l-0.2,0.2l-0.1,0.3l0.3,0.1
		l0.4-0.2l0.6-0.4l0.2-0.2v-0.2l-0.2,0.2L69,292z M39.7,293.2l-0.3,0.1h-0.2l0.4,0.3l0.4,0.5l0.1-0.1v-0.2l-0.1-0.2l0.2-0.4
		L39.7,293.2z M57.7,294.4l0.2,0.1l-0.1-0.2L57.7,294.4z M255,48.1l-0.4,0.6l-0.1,0.3h0.1h0.1v0.2l0.1,0.3l0.2,0.3l0.6-0.6l-0.1-0.8
		L255,48.1z M142,212.8v0.2v0.4l-0.2,0.3h0.1l0.6-0.2h0.3l-0.1-0.5l-0.4-0.2L142,212.8z M165.1,171.2l0.2,0.3h1.2l0.6-0.1l0.4-0.2
		l0.3-0.4l0.1-0.4v-0.3l-0.2-0.1l-0.2,0.2l-0.1,0.1l-0.1,0.3l-0.2,0.3l-0.2-0.8l-0.3,0.2l-0.2,0.3l-0.2-0.1l-0.1-0.1h-0.2l-0.3-0.2
		h-0.3l-0.1,0.3l0.1,0.4h-0.5L165.1,171.2z M2.1,176.8l-0.4-0.4H1.3l-0.1,0.2l0.2,0.2l0.5,0.2L2.1,176.8z M1.7,177.3l0.1,1l0.4,0.1
		l0.3-0.7L2,177.2L1.7,177.3z M14.1,199.9l-0.1,0.2l0.3,0.4l0.2-0.1l-0.1-0.3L14.1,199.9z M30,245.6L30,245.6l-0.2-0.1h-0.3
		l-0.2,0.3v0.5l0.2,0.1l1-0.8l0.4-0.5l0.2-0.7l-0.2-0.1l-0.3,0.2l-0.2-0.1l-0.4-0.6l-0.3-0.2v0.3l0.1,0.3v0.2l-0.2,0.1l-0.1,0.2
		l0.1,0.3l0.5,0.1l0.3-0.1v0.2L30,245.6z M16.8,196l0.4-0.5l0.1-0.5l-0.3-0.4l-0.8-0.1l-1.1,0.3l-0.6,0.1l-0.2-0.1l-0.7,0.6
		l-0.4,0.2l-0.3,0.3l-0.1,0.4l0.2,0.1l0.1-0.1l1.8-0.5l0.7,0.5h0.6L16.8,196z M16.8,197l-0.1,0.2v0.4v0.4l0.1,0.4h0.4l0.3-0.4
		l0.2-0.5l0.1-0.6l-0.3-0.3l-0.5,0.2L16.8,197z M31.5,288.9l-0.1,0.3l0.1,0.3v0.1v0.2h-0.1l-0.3-0.1l-0.3-0.1l-0.2,0.2l-0.2,0.2
		l-0.2,0.1v0.2l0.3,0.2H31l0.4-0.2l0.5-0.5H32h0.1l0.1-0.4l-0.2-0.5L31.5,288.9z M38.2,289.9H38l-0.8,0.3l-0.8,0.6l-0.2,0.2l0.1,0.3
		l0.2,0.5l0.4-0.1l0.7-0.6l0.5-0.6h0.2l0.1-0.1l-0.1-0.2L38.2,289.9z M44.2,292.7l-1.3,0.5l-0.3,0.1l-0.2,0.1l-0.1,0.2l-0.1,0.1H42
		l-0.1,0.5l-0.1,0.4l-0.4-0.2l-0.6,0.3l-1.3,1.5l0.2,0.4l0.9-0.2l0.6-0.4l0.3-0.4l1.1-0.7l0.7-0.8l1.1-1.5L44.2,292.7z M23.2,198.3
		l1.1-0.3l1.1-0.7l1-1.1l0.6-1.3l-0.2-0.9l0.1-0.6l0.7-1.1l-0.9-0.4l-0.6,0.2l-0.9,1.3l-1.6,1.7l-0.2,0.6l0.8-0.2l-0.2,0.9
		L23.2,198.3z M21.3,252.2l0.4,0.5l1-0.8l0.8,0.7l0.9,0.4l1.8,0.5l-0.1-0.6l-0.7-1.3l-0.3-0.4l-0.5-0.3l-0.7-0.2l-0.2-0.5l-0.5,0.1
		l-1.6,1L21.3,252.2z M272.1,40.4l-0.4-0.5l-0.1-0.8v-1.4l-0.2-1.4l-0.5-1l-0.7-0.8l-1-0.3l-0.8-0.6l-0.5-0.8l-0.7-2.1l-0.1-0.3
		l-0.2-0.2l-0.2-0.3v-0.6l-0.1-0.3l-0.5-1.1l-0.2-1.1l-0.2-2.3l-0.1-0.6l-0.6-0.7l-0.7,0.1l-0.7,0.6l-0.5,0.9l0.7,0.9l-0.1,0.9
		l-0.7,0.3l-0.9-0.7l-0.2-0.6l0.1-1.1l-0.1-0.4l-0.3-0.3h-0.3h-0.4l-0.5-0.1l-2.9-2.5l-0.3-1l-2.3-2.4l-0.9-2v-2.2l0.6-4.9l-0.8-2
		l-1.9-0.3l-2.2,0.1l-1.8-0.8l0.5-0.4l0.5-0.8l0.3-0.9l0.1-0.8l-0.5-0.5l-1.1,0.3l-2,0.8L244,3.5l-0.5-0.1l-0.6-0.3l-0.4-0.4
		L241.2,1l-0.3-0.3l-0.6-0.1l-0.5,0.1L239,1.2l-0.5,0.2l0.2,0.4l0.3,0.3l0.3,0.2l0.4,0.2l-0.6,0.3l-1.3,0.1l-0.5,0.4l-0.2,0.6v1.3
		l-0.2,0.6l-0.3,0.6l-1.5,4.1l-0.2,1.7l-0.2,0.8l-0.7,1.5l-0.5,1.2l-0.2,0.7l-0.1,0.7l0.1,1.1l0.3,0.4l0.4,0.2l0.5,0.5l0.1,0.5
		l-0.4,0.4l-0.3,0.5l0.2,0.8l-1.1,0.2l-0.4,0.8l0.2,0.8l0.7,0.2v0.3l-1.1,1.2l-0.2,2l0.1,2.3l-0.2,2.1l-1.1,1.9l-1.4,0.3l-1.6-0.4
		l-1.8-0.1l0.2,0.7l-0.1,0.8l-0.3,0.6l-1,0.4l-0.1,0.4v0.6l-0.2,0.6l-0.4,0.3l-0.4,0.1l-0.4-0.2l-0.1-0.6l-0.3-0.4l-1.2-0.7
		l-0.3-0.5l-2-1.7h-0.7l-0.5,0.3l-0.5,0.3l-0.4,0.1l-0.6-0.3l-0.4-0.7L216,33l-0.5,0.1l-0.1,0.4l0.2,0.5l0.4,0.5l-0.6,0.4l-0.5-0.7
		l-0.5,0.3l-0.4,0.8l-0.1,1l-0.3,0.2l-2.3,0.5l-0.3,0.3l-0.2,0.4l-0.1,0.5v0.5l0.2,0.2l0.3,0.1l0.1,0.3l-0.3,0.9l-0.4,0.3h-1.4v0.4
		l0.4,0.1l0.4,0.1l0.3,0.2l0.3,0.3l-0.5,0.4l-0.1,0.4v0.5l-0.1,0.5l-0.4,0.3l-0.5,0.2l-0.4,0.3l-0.1,0.7l0.3,0.4l0.9,0.1l0.2,0.5
		l-0.1,0.3l-0.3,0.3l-0.3,0.3l-0.8,0.9l-1.2,1.1l-1.2,1.4l-0.6,0.4l-0.7-0.1l-1-0.6l-0.1,1l-0.4,0.7l-1.1,1.2l-0.7,0.4l-1,0.1
		l-0.9,0.2l-0.4,0.8l-0.6,2.3l-1.6,0.5l-3.7-1l-4.1-0.2l-0.5,1l-1.1,0.3l-3.2-0.3l-0.4,0.2l-0.4,0.4l-0.6,0.9l-0.4,0.2l-0.5-0.3
		l-0.4-0.1l-1.8,0.7l-0.6-0.1l-1.4-0.7l-2,0.1l-0.9-0.7l-1-0.3l-4.3-0.4l-6.9,1.9l-2,0.1l-0.9,0.3l-0.5,0.8l-0.1,0.9l0.8,4.9
		l0.3,0.9l0.4,0.8l1.4,0.5l0.3,1.1l2,3.9l0.4,1.2l0.2,1.3l1.2,1l1.6,1.4l1.1,0.5l0.8,1l0.5,1.2l0.1,1l0.8,1.2l-0.6,2.2l-4.4,7.9
		l-1.7,1.6l-1.8-0.2l0.6-0.8l-0.6-0.3l-0.7,0.6h-1l-0.7-0.6l0.2-1.2l-0.7,0.4l-0.4,0.1l-0.4-0.1l-0.2-0.6l0.1-1v-1l-0.5-0.6
		l-0.4,0.5l-0.3,0.4l-0.4,0.2l-1.3-1.2l-1.7,0.3l-1,0.3l-0.5-0.2l-0.3,0.9l-0.7,0.4l-0.9-0.1l-0.8-0.5l-1.1,0.4l-4-0.1l-1.2-0.5
		h-0.2l-0.5,0.8l-0.4,0.2l-0.3-0.2l-1.4-1l-1.7-0.4l-0.6-0.6l-0.1-1.3l-0.7,0.4l-0.8-0.2l-0.7-0.4l-0.7-0.2l-0.7,0.2l-0.6,0.4
		l-0.7,0.3l-0.9-0.1l-0.2-0.1l-0.2-0.3l-0.3-0.3l-0.4-0.2h-0.3l-0.7,0.3l-0.4,0.1l-1.7-0.2l-0.8-0.3l-0.7-0.3l0.3-0.1l0.4-0.3
		l0.3-0.4v-0.4l-0.3-0.3l-0.3,0.1l-0.3,0.2l-0.4,0.1l-0.6-0.1l-1-0.7l-0.6-0.3l-0.3,0.2l-0.6,1.2l-0.3,0.2l-0.2-0.1l-0.4-0.4
		l-0.2-0.3l-0.4-0.1l-0.6,0.4l-0.3,0.1l-0.3-0.5l-0.3-0.2l-0.4-0.1l-0.3-0.1l0.6-1l0.8-0.8l0.9-0.5l0.9-0.4l-0.6-0.6l-2.2-0.9
		l-0.7-0.1l0.2-0.6l0.1-0.2l-1.3-0.5l-0.7-0.4l-0.4-0.6l-0.2-0.8l0.2-0.6l0.4-0.2l0.7,0.1l-0.4-0.7l-0.9-1.5l-0.2-0.7l-0.4,0.1
		l-2.2-1.8l-1-0.2H113l-0.2-0.3l-0.1-1.2l-0.4-0.4l-0.9,0.3l-0.9,0.6l-0.4,0.7l-0.5,1.5l-2.4,1l-0.5,1.4l-0.3,0.5l-0.7-0.5l-1.3-1.4
		l-0.6-0.4l-0.6-0.2h-0.7l-0.7,0.3l0.3,0.7l0.5,0.4l0.6,0.4l0.6,0.5l-0.7,0.4l-1.4,1.3l-0.5,0.3l-1.5-0.1L99,77.7l-0.7,1.4l-1.5,1.6
		v0.7l0.5,0.8l0.2,0.7l-0.2,0.8l-0.8,1.5l-0.7,2.6l-1.5,2.4L94,90.9l0.3,1.4l0.6,1.8v1.4l-1.5,0.4v-0.4l0.3-0.1l0.1-0.2l0.1-0.2
		l0.1-0.3h-1.2l-1.3,1l-2.1,2.5l-0.5,0.7l-1,2.3l-0.5,0.7l-1.1,1.1l-0.5,0.6l-1.1,2.5l-0.4,0.6l-0.6,0.6l-4.8,2.8l-1,1l0.6,1
		l-0.5,0.8l-0.6,0.6l-0.4,0.6l0.1,0.7l-0.5,0.2l-0.4,0.2l-0.3,0.3l-0.3,0.4l0.1,0.5l-0.3,0.7l-0.9,1.3l-0.7,0.6l-0.8,0.1l-0.7,0.3
		l-0.5,0.8l0.7-0.1h0.6l0.2,0.3L73,121l-0.5,0.3l-1.3,0.2l-0.6,0.5l-0.6,0.3l-0.5-0.4l-0.5-0.6l-0.5-0.3l-0.7,0.1l-0.5,0.3l-1.8,1.3
		l-0.4,0.1l-1.8-0.8l-0.4-0.1h-0.4l-0.3,0.2l-0.2,0.4l-0.2,0.4l-0.4,0.2l-1.3,0.3l-1,0.7l-1.6,2.1l1.2,1.5l0.4,0.8l-0.6,0.4L56,129
		l-0.1-0.2l-0.3-0.5l-0.6-0.5l-0.7-0.1l-0.5,0.4l-0.2,1.1l-0.1,1.2l-0.3,0.6l-0.6,0.2l-1.8,0.1l-0.5,0.1l-0.4,0.3l-0.4,0.6l-0.1,0.4
		v0.8l-0.1,0.3l-0.4,0.3l-0.7-0.1l-0.3,0.3l-0.2,0.8l0.1,0.7l-0.2,0.4h-1l-0.3-0.2l-0.5-0.5l-0.4-0.2h-0.3l-0.8,0.3l-0.6-0.2
		l-0.7-0.3l-0.6,0.1l-0.7,0.3l-0.3,0.6l-0.3,0.5l-0.4,0.4l-0.6,0.2l-1.1,0.5l-1.5,0.5l-1.2,0.5l-0.9,0.6l-0.8,0.5l-1.1,0.5l-0.7,0.4
		l-1,0.3l-1.1,0.4l-0.4,0.7v0.8l0.5,0.7l0.5,0.7l0.3,0.7l-0.2,0.5l-0.7,0.2l-0.8,0.1l-0.9-0.1l-1.2,0.2l-1-0.1l-0.4-0.1l-0.3-0.2
		l-0.1-0.3l-0.4-0.6l-0.4-0.4l-0.2,0.3l-0.3,0.7l-1.4,1.9l-2.1,2.1l-0.9,0.6l-1,0.2l-0.6,0.5l0,0.9l-0.3,1.3l-0.5,0.9l-0.8,0.4
		l-2.2,0.5l-0.6,0.4l-0.7,0.8l-1.7,1.1l-0.7,0.6l-0.1,0.3l-0.1,0.7v0.2l-0.2,0.2l-0.5,0.1l-0.2,0.1L4,164.8l-0.6,0.7l0.4,0.9l0.2,1
		l0.3,0.9l0.8,0.7l1,0.2l2,0.1l0.8,0.4l-1.4,0.4l-1.3-0.5L5,169.4l-1,1.4l-0.3,2.7l-0.2,0.8L3,174.7l-0.6,0.2l-0.6,0.3l-0.4,0.7
		l0.3,0.2l0.3,0.2l0.3,0.3l0.3,0.4l0.6,1.2l1.2,0.2l0.3,0.1l0.1,0.3l0.2,1l0.2,0.2l0.1,0.1l0.2,0.5l0.2,0.2h0.2l0.2-0.1l0.2-0.2
		l0.2-0.1l3.6,0.7l1.5,0.1l0.4,0.2l0.1,0.4l-0.2,1.1l0.2,0.4l0.8,0.4l0.2,0.3l-0.1,0.5l-0.2,0.9l-0.1,0.5l0.1,0.4l0.3,0.2l0.4,0.1
		l0.4,0.3l0.2,0.3l0.3,0.7l0.2,0.2h0.3l0.4-0.2h0.3l0.1,0.8l-0.2,0.8l-0.9,2.2l-0.4,0.7l0.1,0.2l0.1,0.1l0.3,0.1l-0.2,0.3l-0.1,0.2
		v0.2l1.1-0.4l1.2-0.9l1.2-0.6l1,0.3l0.5-0.5v-0.5l-0.1-0.5l0.1-0.5l0.5-0.8l-0.1-0.2l-0.3-0.3l-0.2-0.8l0.2-0.6l0.3-0.6L20,186
		l-0.2-0.6l-0.3-0.4l-0.2-0.5v-0.6l0.3-0.6L20,184l0.3,0.7l0.4,0.6l1.1,0.4l0.2,0.5l0.3,0.1l1,0.1l0.6,0.3l0.8,0.4l0.7,0.5l0.5,0.7
		l0.4,1.7l0.5,0.3l0.6,0.2l0.5,0.4l0.4-1l0.5,0.1l1.2,1.3l0.4,0.1h0.4l0.3,0.1l0.1,0.4l0.2,0.3l0.9,0.9l0.3,0.2l0.5,0.2h0.4l0.7-0.2
		l0.5,0.1l0.2,0.2L35,194l0.3,0.4l0.1,0.4v0.4l0.1,0.3l0.4,0.1h1.9l-0.1-0.3l-0.3-0.8l-0.2-0.3h2.9l-0.6,1l0.4,0.4l0.7,0.2l0.4,0.5
		l0.2,0.1l1.1,1.4l0.4,0.3l0.4-0.1l0.4-0.2l0.9-0.3l4.4-2.3l0.7-0.5l0.3,0.7l-0.1,0.7l-0.4,0.6l-1.2,0.5l-0.3,0.6l-0.2,0.8l-0.2,0.6
		l-0.8,0.9l-0.8,0.6l-0.6,0.8l-0.1,1.4l0.4-0.2l0.4-0.1l0.5-0.1h0.5l-1,1.5l-0.1,0.8l0.8,0.3l2.6,0.4h0.9l-0.2,0.6l-0.4,0.4
		l-0.9,0.5l-0.2-0.2l-0.2-0.1l-0.4-0.2l0.4,0.6l0.2,0.2l-0.3,1l0.2,0.8l0.5,0.4l0.7,0.1l-0.8-0.2l-1.6,3l0.1,0.5l0.4,0.4l0.2,0.8
		l-0.9-0.4h-1l-0.9,0.4l-0.6,1.1l0.1,0.5l0.4,0.5l0.1,0.4l-0.5,0.2h-1.1l-0.5,0.2l-0.4,0.5l0.3,0.3l-0.1,0.2l-0.2,0.2l-0.1,0.4
		l0.1,0.5l0.2,0.1h0.2l0.1,0.1l0.4,1.3l0.3,0.3l0.8,0.3l-0.8,0.2l-1.1-0.1l-0.9,0.1l-0.4,0.7l-0.2,1.1l-0.5,1l-1.3,1.5l1-0.2v0.5
		l-1,1.9l-0.6,0.6l-0.3,0.7l0.5,0.8l-2,2l-0.3,0.5l-0.1,2l-0.2,0.9l-0.3,0.9l0.6,0.7l0.9,0.1l0.8,0.3l0.4,1.3l0.3,0.8l0.6-0.4
		L40,238l-0.2-1.3l0.7,0.2l0.5,0.5l0.2,0.6l-0.2,0.5l0.3,0.2l0.3,0.2l-0.9,1l-0.1,0.5l0.3,0.6l0.5,0.5l0.6,0.2h0.7l0.7-0.2v-0.3
		l-0.2-0.2l-0.3-0.3l-0.1-0.3l0.2-0.3h0.2l0.2,0.2l0.1,0.3l0.1,0.2l1.1,0.2l0.4-0.2l0.2-0.7h0.3l0.2,1.2l1,0.1l2.1-1l-0.2-0.5
		l-0.3-0.4l-0.3-0.3l-0.4-0.3h0.6l0.3-0.4l0.2-0.4l0.1-0.2l0.4-0.1v0.1l-0.1,0.3l1.1,2l0.3,0.4l0.5,0.3h1l0.5,0.1l0.7,0.6l1.9,2.4
		l0.4,0.2l0.9,0.1l0.5,0.1l0.3,0.3l0.5,0.9l0.4,0.4l-0.8,0.3l-1.2-0.3l-1-0.6l-0.5-0.8l-0.1-0.3l-0.3-0.4l-0.4-0.4l-0.4-0.1
		l-0.2,0.3l-0.1,0.6l-0.2,0.5l-0.5,0.1l-0.3-0.3l-0.1-1l-0.2-0.5L50,242l-0.5,0.2l-0.2,0.4l-0.1,0.4l-0.1,0.2l-0.5-0.1l-1-0.3h-0.4
		l-0.8,0.2l-1.1,0.5l-1,0.6l-0.4,0.6l-0.3,0.2l-0.6-0.2l-0.7-0.4l-0.4-0.3l-0.4-0.1l-1.1,0.8l-0.4,0.2l-0.4-0.2l-0.9-0.6h-0.4
		l-0.2,0.6l0.1,0.8l0.1,0.7l-0.4,0.3l-0.6-0.5l-0.5-1l-0.6-0.8h-0.8l-0.3,0.5l0.1,0.7l0.3,0.7l0.5,0.5l-0.2,0.8v1l-0.1,0.6l-0.6-0.2
		l-1.5,1.3l-0.6,0.3l-0.3-1l-0.4-0.5l-1-0.3h-1.1l-0.7,0.3l0.4,0.5l0.1,0.4l-0.1,0.5l-0.1,0.6l0.2,0.6l0.8,0.6l0.3,0.5l-0.2,0.9
		l-0.6,1.3l-0.7,1.2l-0.5,0.6l0.1-0.8l-0.1-0.4l-0.3-0.1l-0.3,0.1L28,256l-0.5,1.6l-0.3,0.7l-1.9,2.9l-0.2,0.6l-0.4,3.4v0.9l0.1,0.4
		l0.6,0.7l1.2,0.8l2.2-0.3l1.1,0.4l-2.6,1.8l-0.4,0.2l-1.1-1.8l-0.7-0.5l-1,0.2l-0.5,0.5l-0.7,1.3l-0.3,0.4l-1.8,0.4l-0.3,0.1
		l-0.4,1.1l-0.9,0.4l-2,0.2l-1,0.4l-0.3,0.6l0.4,0.6l5,0.9l2-0.2l1.1-0.3l0.5-0.4l0.4-1l0.9,0.4l1.4,1.5l3.2,1.9l0.6-0.4l2-0.4
		l2.1-1l0.7-0.2l0.7,0.1l1.5,0.5l0.8,0.1h1.7l0.7,0.3l0.4,0.8l-0.9,0.5l-0.3,1.8l-0.9-0.1l-0.2-0.3l-0.1-0.5l-0.2-0.5l-0.5-0.2
		l-1.9,0.4h-1.8l-0.4,0.4l0.2,1l0.2,0.7l0.1,0.2l0.2,0.1l0.9,0.8l0.5,0.2l0.5-0.1l0.5-0.4l0.3,0.4l-0.4,0.6l-0.5,0.3l-0.6,0.1H36
		l-0.8-0.1l-1.1-0.7l-0.6-0.2l-0.6,0.1l-1.1,0.8l-0.5,0.2l-0.8,0.1l-0.6,0.3l-0.4,0.6l-0.2,0.9l0.4-0.1l1-0.7l-0.3,1.1l0.3,0.7
		l0.7,0.3l1,0.1l0.4,0.1l1.2,1l0.5,0.2l2.5,0.4h0.8l0.7-0.2l0.7-0.5l0.5-0.8l0.4-1l0.5-0.8l0.9-0.2l-0.1,1l1.9,1l0.3,0.9l-0.6,1
		l-1.8,1.2l-0.5,0.8h2.6l0.2,0.2l0.1,0.2l0.1,0.3v0.1l0.8-0.2l0.8-0.5l1.3-1.1l-0.4-0.2l-0.3-0.2l-0.3-0.3l-0.2-0.4l1-0.3l1.2,0.2
		l1.1,0.5l0.8,0.7v-0.9l-0.8-0.8l-1.1-0.6l-0.8-0.3l0.5-0.3l0.5-0.1h1.1l-0.1-0.2l-0.1-0.3l-0.1-0.2l0.9-0.4l0.4,0.3l0.4,0.5
		l0.8,0.3l1.2,0.2l-0.1,0.6l-1.2,1.4l0.3,0.6l0.5,0.4l0.6,0.1l0.7-0.3l-0.1,1.4l-0.8,0.2l-2.1-0.5l-0.9,0.2l-1,0.5l-0.9,0.7
		l-0.5,0.8l0.7,0.3l1.5-0.3l0.7,0.4l-2.4,1.1l-1.1-0.3l-0.7,1.2l-0.6,2.8l0.5,0.6l0.6-0.2l0.5-0.7l0.2-0.9l0.3-0.3l0.8-0.1l1.5-0.1
		l1.5-0.6l0.7-1.2l0.5-1.3l1-0.9l-0.3,0.9l0.4,0.4l0.5,0.1l0.3-0.1L54,292l0.3-0.3h0.5l0.5,0.3l-0.1,0.2v0.1l0,0l-0.2,0.1l0.4,0.4
		l0.4,0.2l0.4,0.1h0.5l0.3-0.2v-0.5l-0.1-0.8l-0.3-0.6l-0.1-0.3l0.2-0.2h0.8l0.3-0.2l0.2-0.5l-0.3-0.1l-0.6-0.6l0.8-1l-0.2-1.2
		l-0.4-1.3l0.1-1.2l0.6,0.5l0.5,0.5l0.5,0.4h0.7l0.7-0.2l0.6-0.3l0.5-0.4l0.5-0.5l-0.3-0.4l-0.3,0.3l-0.3,0.1h-0.8l0.4-0.8l0.5-0.7
		l-0.4-0.3l-0.4-0.1l-0.4,0.1l-0.4,0.2l0.3-1.1l-0.4-0.3l-1.5,0.2l-0.8-0.3l-1.1-0.7l-0.8-0.9v-0.9l0.8-0.4h1.1l1.1,0.2l1.7,0.8
		l0.8,0.2l1.8,0.1l0.4,0.2l0.8,0.5l0.4,0.1l0.7,0.1l0.2,0.2l-0.1,1v0.6l0.1,0.4l0.3,0.2l1,0.2l0.3,0.4l0.2,0.5l2.1,3.3l0.7,0.8
		l0.4,0.3h0.2h0.3l0.5,0.1l0.4,0.2l0.5,0.3l0.5,0.3l0.4,0.3l-0.1-0.8l-0.4-1.4l-0.1-0.6l-0.3-0.2l-0.6-0.6l-0.3-0.7l0.7-0.5l0.4,0.2
		l0.7,0.5l0.7,0.7l0.3,0.6l0.3,1.1h0.6l1.2-0.9l0.1,2.5l0.2,1.2l0.4,0.2l0.6-0.1l0.4,1l0.6,2.2l2.1,0.4l0.1-0.4l0.1-0.7v-0.7
		l-0.3-0.6L80,291l-0.1-0.8l-0.1-0.2l0.1-0.2l0.4-0.4l0.8-0.6l0.9-0.2l1.6,0.1l1-0.1l0.8-0.3l3.4-1.8l0.9-0.3l0.8-0.1l0.3,0.3l1,1.8
		l0.3,0.3l6,3.8l0.7,0.2l1.2-0.7v-0.1l-0.6-7l0.1-0.4l0.4-2.5l0.9-0.6l0.9-0.7l0.5-0.1h0.5l0.6-0.2l1.1-0.9l3.6-5.4l1.2-1.1l1.5-1.1
		l0.3-0.3l1.4-3.5l0.3-0.3l0.9-1.2l2.6-2.2l3-1.9l3.3-1.3l4.6-0.2l5.4-0.5l4.8,1.2l2.5-0.8l9.1-0.8l0.6,0.4l1.2,1.3l2.4-0.5l6,0.3
		l1.1-0.2l2.5-0.9l2.3-1.5l2-2l0.8-1.1l0.6-1.1l0.4-2l-0.3-1.5l-0.2-1.9l0.3-0.8l0.6-1.5l0.5-0.4l1.3-1l3.3-1.6l-0.5-1l-0.4-0.4
		l-0.7-0.4l-0.3-0.3l-1.3-2.1l-1.4-0.3l-1.9,1.1l-0.6,0.2l-5.1-6.3l-3.3-0.8l-0.8-0.9l-1.4-2.3l-0.8-0.5l-0.4-0.1l-0.3-0.3l-0.2-0.4
		l-0.2-0.8l-0.2-0.4l-0.2-0.2l-0.3,0.2l-0.4,0.4l-0.2-0.2l-0.1-0.7l-1.5-1.5l-0.6-0.9l-0.3-0.8l-0.3-0.6l-1.3-1.9l-1-1.7l-0.4-0.4
		l-0.6-0.1h-2.9l-0.6-0.2l-0.4-0.4l-0.4-0.5l-0.5-0.4l-1.1-0.3l-3.2,0.3l-0.9-0.6l-0.9-2.1l-0.8,0.1v0.3l0.1,0.6l-0.2,0.5l-0.8,0.1
		l-0.5-0.2l-0.9-1l-0.5-0.2l-0.6-0.4l-0.5-1.1l-0.2-1.4l0.1-1.2l0.3-1.6l0.5-1.4l-0.1-0.3l-0.2-0.4v-0.3l0.4-0.1l0.3,0.1l0.3,0.1
		l0.3,0.2l0.2,0.3l0.4-0.2l1.3-0.3l0.3-0.4l-0.2-0.9l-0.6-0.2l-0.7,0.2l-0.5,0.4l-0.5-0.3l-1-0.3l-0.5-0.2v-0.4l2-0.8l0.2-0.3
		l0.4-0.6l1.3-1.2l0.5-0.4l0.5,0.2l0.4,0.6l0.1,0.7l1.5,2.1l-0.7,1.5l-0.3,0.8l0.1,0.7l0.4,0.6l0.5,0.2l0.5-0.2l0.3-0.6l0.1-1.5
		l-1.2-5.5l-0.1-3.6l0.3-1.6l1.5-3.2l-0.2-1.3l-0.7-1l-1.1-0.5l-0.4,0.1l-0.3-0.3l-0.2-0.6l-0.1-1.3l-0.2-0.8v-0.5l0.1-0.5l0.4-0.9
		l0.1-0.4l0.3-0.5l1.2-0.8l0.5-1.3l0.6-0.7l0.7-0.5l0.6-0.2h1.9l0.7-0.2l1.6-1.3l0.7-0.4l2-0.4l0.6-0.3l0.5-0.5l0.1-0.6l-0.6-0.5
		l4-0.4l0.4-0.5l0.4-2.6l0.5-1.1l0.3-0.2l0.7-0.1l0.4-0.2l0.3-0.4l0.7-1.2l0.3-0.3l0.4-0.1l0.4-0.2l0.4-0.3l0.1-0.3l0.1-0.8l0.2-0.3
		l5.7,1l0.2,0.3l0.1,0.2l0.4,0.1l0.4-0.1l0.8-0.4l0.5-0.2h0.4l0.9,0.1l0.4-0.1l0.3-0.3l0.3-1l0.2-0.4l0.8-0.3l1.3,1.8l0.9,0.2
		l1.2-1.9l0.4-0.4l1.6-1.2l0.5-0.2l1.6-0.2l0.3-0.2l0.2-0.2l0.3-0.3l1.9-0.8l0.9-0.5l0.4-0.8l1.9-1.1l0.4-0.5l0.2-0.1l0.3,0.1
		l0.6,0.3h0.3l0.6-0.5l0.8-1.1l0.6-1l-0.1-0.5l-0.6-0.4l-0.6-1l-0.4-1.3l0.2-1.1l0.6-0.5l2.1-0.9l1.6-0.3l2.1-0.7l4-2l0.5-0.5
		l0.3-0.8l2.3-2.5l1.7-0.8l3.5-0.9l1.5-1.3l1.6-2.8l0.6-0.8l0.1-0.5l0.1-1.4l0.1-0.3l0.4-0.2l0.2-0.5l0.1-0.6l0.1-0.6l0.2-0.3
		l0.5-0.5l0.2-0.3v-0.3l-0.3-0.2v-0.2l0.4-1l0.3-0.4l0.8-0.3l0.5-0.3l0.4-0.1l0.4,0.3l0.6,0.8l0.4,0.4l0.3,0.2l0.6-0.6l0.8-2.3
		l0.6-0.5l0.7-0.2l4.9-2.7l1-0.2h1l0.4-0.2l0.4-0.4l0.6-0.8l0.2-0.2l0.5-0.3l1.8-0.6l1.8-0.2h1.1l0.7-0.1l0.5-0.4l0.5-1l0.8-2.2
		l0.2-1.1l0.1-1.1l-0.2-0.4l-0.8-1l-0.2-0.6l-0.3-2.5l-0.1-1.8l0.1-0.9l0.3-0.7l-0.7-2.1l0.3-2.5l1.7-7.1l0.5-1.3l0.7-0.6v-0.3
		l0.3-1.3l0.1-0.2l0.2-0.7l0.2-0.2v-0.2l-0.4-0.6l-0.2-0.1l-0.6,0.1h-0.3L233,92l-0.2-0.3l-1.2-1l-0.4-0.1l-0.6-0.3l-0.6-0.8l-0.6-1
		l-0.3-1l-0.2-1.1l-0.1-1.3l0.1-1.2l0.8-1.8l0.4-2.6l0.4-1.2l0.4-0.5l0.9-0.9l0.4-0.6l0.4-0.9l0.6-2l0.4-0.9l1.1-0.8l2.5-0.5
		l0.9-1.2l0.2-1.9l-0.1-1.9l0.3-1.5l1.3-0.6l1.5,0.1l0.4-0.4l0.2-1.1l0.1-0.2l0.2-0.7l0.1-0.5l-0.1,0.1l0.5-0.8l0.3-0.3l0.4-0.1
		l-0.4-0.6l-0.2-0.3l-0.3-0.3l1.3-1h0.3l0.4,0.2l0.4-0.3l0.3-0.5l0.3-1.9l0.5-0.2l0.6-0.1l0.5-1l-0.3-0.4l0.9-0.3l1.9,0.8l0.7-0.1
		v-0.3l-0.1-0.4l-0.1-0.4L250,53l0.6-0.8l0.5-0.3l0.4,0.2h0.2l0.3-3.3l0.4-1l1.4-0.7l2.7-2.4v2.2l0.8-0.4l2.2-2.8l0.3,0.1l0.3,0.2
		l0.3,0.1l0.2-0.4v-0.6l-0.3-0.2l-0.3-0.1l-0.2-0.4v0l0.3-0.3l0.3-0.5l0.3-0.9v-0.5v-0.5l1.3,1l0.5,0.1l0.4-0.2l0.7-0.8l0.6-0.2
		l0.5,0.1l0.8,0.5l0.5,0.2l1.7-0.1l0.5,0.2l0.5,0.6l0.1,0.4l0.1,0.6v1.1l1.5-0.3l1-0.3l1-0.5l0.7-0.6l0.2-0.2L272.1,40.4z"/>
</g>
</svg>
