<?xml version="1.0" encoding="utf-8"?>

<svg version="1.2" baseProfile="tiny" xmlns="http://www.w3.org/2000/svg" xmlns:xlink="http://www.w3.org/1999/xlink" x="0px"
	 y="0px" viewBox="278.8 148.9 222.9 296.4" xml:space="preserve">

<g id="South_Korea">
	<g>
		<polygon fill="#FFFFFF" points="383.4,431.3 383.6,431 383.3,430.3 383.1,430.5 382.9,430.8 382.6,431 382.2,430.4 381.8,428.8
			381.1,428.2 378.9,427.3 378.3,426.8 377.4,426.2 376.4,426.2 374.2,426.7 370.6,426.7 369.9,426.8 368.3,427.9 363.7,428.7
			356.6,431 355,431.8 354.2,432.3 351.7,434.9 350.1,435.8 349.7,436.3 348.9,437.6 348.1,439.8 348.6,441.5 349.8,442.9
			352.3,444.9 353,445.3 353.7,445.2 355.3,443.8 356.1,443.6 365.8,443.5 368.7,442.5 370.5,442.3 376.2,440.2 377,439.6
			377.4,439.4 378.5,439.3 379,439.1 379.2,438.8 380.2,437.2 381.5,435.7 382.1,434.8 382.3,433.8 382.4,433.6 382.8,433.1
			382.9,432.9 382.9,432.6 382.7,432.1 382.6,431.8 383,431.4 		"/>
		<polygon fill="#FFFFFF" points="342.8,389.6 342.6,389.4 342.4,389.4 342.2,389.4 341.9,389.6 342.2,389.8 342.4,389.9
			342.5,390.3 342.8,389.8 343,390 343.4,390.2 343.6,389.6 343.7,389.3 343.9,389.4 343.7,389.1 343.7,388.8 343.5,388.8
			343.3,388.7 343.1,388.8 343.1,389.1 342.9,389.3 		"/>
		<polygon fill="#FFFFFF" points="347.5,382.4 347.3,382.7 347.4,383.2 347.9,383.4 349.8,383.2 350.3,383 354.5,380.7 354.7,379.8
			354.7,379.5 355.1,379.7 355.8,380.4 355.9,380.6 356.4,380.3 356.7,379.7 357.6,377.9 357.9,377 358,376.2 357.9,375.5
			356.6,373.3 356.5,372.9 355.5,373.5 355.3,373.6 355,373.3 354.8,372.9 354.7,372.6 354.6,372.4 354.1,372.2 353.4,371.7
			352.7,371.3 352,371.3 351.7,371.8 352.8,372.7 353.2,373.4 352.9,374.2 352.3,374.6 351.6,374.5 351,373.9 350.9,374.7
			350.6,374.9 350.2,375 349.7,375.3 349.3,375.7 349,376.1 348.6,377.3 347.3,377.4 346.1,378.8 345.5,380.6 346.5,381.8
			346.5,380.6 347.7,381.4 348,381.8 347.9,382 		"/>
		<polygon fill="#FFFFFF" points="344.2,387.1 344.7,387.1 344.9,386.7 344.8,386.4 344.9,385.8 344.6,385.6 343.9,385.7
			342.4,385.4 342,385.6 342,385.9 341.8,386.1 341.8,386.4 342.2,386.9 343.1,387.2 343.4,387.2 343.4,386.9 343.6,386.9
			343.8,387.2 344,387.3 		"/>
		<polygon fill="#FFFFFF" points="340.7,384.7 341.3,384.9 342.2,384.7 343.3,385 343.4,385.1 343.5,384.9 343.4,384.6 342.5,384.1
			341.6,384 341.5,384 341.3,384.2 340.7,384 340.5,384.1 340.5,384.1 340.6,384.3 340.6,384.5 		"/>
		<polygon fill="#FFFFFF" points="337.8,389.9 337.9,389.9 338,390 338.4,389.9 338.9,389.3 338.4,389.2 338.3,389.1 338,389
			337.8,389.2 337.7,389.5 337.5,389.4 337.6,389.7 337.6,390 		"/>
		<polygon fill="#FFFFFF" points="403.8,371.4 403.8,371.3 403.8,371.3 		"/>
		<polygon fill="#FFFFFF" points="403,387 403.1,387.4 403.2,387.3 403.3,387.2 403.4,387.2 403.5,387.1 403.6,386.5 402.9,386.5
			"/>
		<polygon fill="#FFFFFF" points="398.2,400.3 398.4,400.5 398.5,400.6 398.6,401 398.8,401.4 398.9,401.6 399.5,401.7 400.2,402
			400.2,401.8 400.1,401.6 399.7,401.5 399.5,401.3 398.9,400.3 398.9,399.8 399,399.3 398.9,399 398.8,399 398.7,399.2
			398.5,399.3 398.3,399.2 398.2,399.2 398.2,399.5 398.2,399.7 398.1,399.9 		"/>
		<polygon fill="#FFFFFF" points="400.5,400.6 400.6,400.4 400.6,400.4 400.6,400.2 400.5,400.1 400.3,400 400.3,399.7 400.2,399.3
			400.1,399.2 399.9,399.3 399.6,399.2 399.4,399.1 399.4,399.5 399.6,399.9 399.9,400.3 400.4,400.6 		"/>
		<polygon fill="#FFFFFF" points="389.4,384 389.7,384.2 390,384.1 389.9,383.9 389.8,383.8 389.5,383.4 389.3,383.2 389.1,383
			388.7,383 388.1,383.2 387.7,383.1 387.5,382.6 387.2,382.1 386.9,381.8 386.8,381.8 386.8,381.9 386.4,382.3 386,382.8
			385.7,383 385.4,383 385.3,383.1 385.4,383.2 385.7,383.3 386.5,383.4 386.7,383.6 386.9,383.8 386.7,384.1 387.7,384.3
			387.9,384.5 387.6,384.7 387.4,385 387.4,385.5 387.9,385.3 388.7,384.7 389,384.3 388.7,384.2 388.6,384 388.9,383.9 		"/>
		<polygon fill="#FFFFFF" points="390.9,378.3 390.9,378.8 392,379.5 392.5,379.7 393.2,379.8 395.1,379.5 395.9,379.2 396.5,378.3
			396.6,377.3 396.2,376.4 395.5,376.2 394.8,376.1 393.4,376.3 391.9,376.5 391.2,376.8 390.6,377.3 391,377.6 391.2,377.8
			391.2,378 		"/>
		<polygon fill="#FFFFFF" points="401.8,386.6 401.5,386.8 401.4,386.4 401.3,387.9 401.9,387.2 402,386.9 402.2,386.8 402.1,386.5
					"/>
		<polygon fill="#FFFFFF" points="357.7,261.1 357.6,260.7 357,260.5 356.3,260.9 355.8,262.1 355.7,264.1 355.8,266.2 356.3,267.7
			356.9,267 357.2,267.3 356.4,268.4 356.2,269.2 356.7,269.5 357.8,268.8 357.8,269.4 357.7,269.9 357.5,270.4 357.2,270.7
			357.8,270.9 359.8,270.7 360.2,270.9 360,270.1 359.4,269.1 358.1,267.7 358.3,267.5 358.8,267.1 359,267 358.4,266.6
			358.1,266.6 358.1,266.2 359,266.2 358.5,266 357.4,265.7 356.9,265.4 356.9,265 357,265.1 357.5,265.1 357.9,264.8 358.1,264.4
			357.9,263.8 356.8,261.9 356.7,261.6 356.7,261.4 		"/>
		<polygon fill="#FFFFFF" points="350.8,343.6 351.3,343.6 351.6,343.2 351.4,342.9 351.2,343 351,343 350.8,342.7 350.6,342.6
			350.1,342.8 349.8,343 349.4,342.7 348.8,342.5 348.3,342.7 348,343.1 348.5,344.2 348.7,344.5 349,344.7 349.2,344.8
			349.4,344.9 349.7,344.9 350,345.1 351.1,345.3 351.4,345.4 351.4,345.7 351.4,346.1 351.5,346.5 351.7,346.7 352.3,346.9
			352.4,347 352.6,346.9 352.7,346.4 352.7,346 352.4,345.7 352.3,345.2 352,344.8 351.6,344.8 351.1,344.6 350.7,344.1
			350.7,343.8 		"/>
		<polygon fill="#FFFFFF" points="454.3,349.8 453.4,350.3 453.6,350.7 453.4,351.3 453.5,351.8 453.6,352.5 453.8,352.4
			454.1,352.2 454.2,351.9 454,351.7 454.2,351.6 454.2,351.3 453.9,351 454.3,350.4 		"/>
		<polygon fill="#FFFFFF" points="368.7,305.4 368.9,305.6 369.4,305.2 369.6,304.9 369.3,304.4 368.8,304.9 		"/>
		<polygon fill="#FFFFFF" points="345.9,341 345.5,341.7 345.3,342.1 344.8,342.3 344.3,342.5 344,342.7 343.7,343.2 343.4,344.9
			343.6,344.9 343.7,345 343.8,345.2 344,345.3 344.4,345.2 345.6,345.5 345.8,345.5 346,345 346.4,344.5 346.9,344 347.4,343.7
			346.8,342.8 346.6,342.2 346.6,341.7 346.9,341.2 348.3,340.4 347.6,340.3 346.7,340.5 		"/>
		<polygon fill="#FFFFFF" points="361.5,303.1 361.2,302.8 360.7,302.7 360.7,303 360.8,303.3 360.9,303.4 360.9,303.8 361,304
			361.3,303.7 361.4,303.6 361.4,303.3 361.5,303.4 361.5,303.6 362,303.3 361.9,303.2 		"/>
		<polygon fill="#FFFFFF" points="339.3,368.5 339.4,368.8 339.8,369 339.8,368.4 339.7,368.1 339.5,368.1 339.4,367.7 339.2,367.6
			338.9,367.6 338.6,367.9 338.4,368 338.7,368.5 339.1,368.6 		"/>
		<polygon fill="#FFFFFF" points="340.2,366.7 340.8,365.8 341,365.4 341.1,365 341.1,364.5 340.9,364.3 340.4,363.8 340,363.1
			339.9,363 339.6,363.2 338.8,364.3 337.4,364.8 337.1,365.2 337.5,366.1 337.7,366 338.4,366.3 339.1,366.7 339.1,366.9
			339.6,366.9 339.9,366.9 		"/>
		<polygon fill="#FFFFFF" points="337.4,389.2 337.5,389.1 337.5,388.4 337.1,388.3 336.6,388.4 336.3,388.9 336.3,389.1 336.5,389
			336.8,389.2 337,389.4 337,389.3 336.9,389 336.9,388.9 337.1,388.8 337.2,388.8 337.4,388.7 337.3,389 		"/>
		<polygon fill="#FFFFFF" points="357.4,302.1 357.9,301.8 357.8,301.5 357.5,301.6 357.2,301.6 357.2,301.7 357.1,301.9 357,301.9
			357.1,302 		"/>
		<polygon fill="#FFFFFF" points="343.4,375.6 343,375.6 342.9,375.9 342.6,376.2 342.3,376.4 342.3,376.5 342.5,376.9 342.6,377.5
			342.9,377.4 343.3,377 343.8,376.6 343.9,376.4 343.8,376.3 343.5,376.3 343.4,376.2 343.6,375.9 		"/>
		<polygon fill="#FFFFFF" points="342.2,371.8 342.6,371.6 343,371.6 343.4,371.4 343.6,370.8 343.2,370.1 342.7,369.3 342.2,368.1
			341.8,368.6 341.6,369.6 341.8,371.5 		"/>
		<polygon fill="#FFFFFF" points="345.3,372.2 345.3,371.7 345.5,371.1 345.5,370.5 345.5,370.2 345.3,370.1 345.3,369.7
			344.8,369.3 344.4,369 343.9,368.6 343.6,368.8 343.9,369.8 344.3,370.5 344.5,371 344.3,371.5 343.8,371.9 343.1,371.9
			342.5,372 342.3,372.3 343.3,372.5 343.3,372.7 343,372.9 342.8,373.2 342.5,373.2 342.3,373.3 342.4,373.5 343,373.7
			343.4,373.6 344.3,373.1 344.7,372.7 345.1,372.5 		"/>
		<polygon fill="#FFFFFF" points="440.5,356.7 440.6,356.5 438.7,356 438.2,356.2 438,356.6 438.8,357.7 439.2,357.3 440,356.9
			"/>
		<polygon fill="#FFFFFF" points="440.4,359 440.7,359.2 441.1,359.3 441.3,359.1 441.2,358.7 441.5,358.6 441.9,358.6 442.1,358.3
			441.9,357.9 441.2,357.2 440.6,357 440,357.5 439.7,358 439.7,358.3 440,358.7 		"/>
		<polygon fill="#FFFFFF" points="438.6,364 438.2,364 437.9,364.4 438.2,364.9 438.7,365 439.1,365.2 439.2,365.3 439.2,365.3
			439.5,365 439.5,364.8 439.2,364.2 		"/>
		<polygon fill="#FFFFFF" points="440.7,366.1 441.1,366.2 441.3,366.3 441.7,366.2 441.9,365.9 441.7,365.8 441.5,365.7
			441.3,365.7 441.2,365.9 440.9,365.8 440.7,365.9 440.3,365.6 440.4,366 		"/>
		<polygon fill="#FFFFFF" points="433.9,356.8 433.7,356.7 433.5,356.3 433.2,355.4 433.1,354.7 432.9,354.6 432.6,354.4 432.5,354
			432.1,354.1 431.5,354.9 431.3,355.5 431.1,355.4 431,354.8 431.2,354.2 431.5,353.4 431.3,352.8 430.5,353 430.1,353.5
			429.7,354.2 429.1,355 428.8,355.9 429.2,356.6 429.9,357.1 430.5,357.1 431.6,356.8 433.7,357.3 434.1,357.2 		"/>
		<polygon fill="#FFFFFF" points="433.7,359.5 433.8,358.9 433.6,358.3 433.3,358.2 431.8,357.9 430.7,358.2 429.6,358.6
			428.8,358.7 428.2,357.8 427.3,357.5 426.9,357.2 426.6,356.7 426.4,355.7 426.2,355.4 427.3,354.3 427.6,353.7 427.7,352.9
			427.3,352.3 426.7,351.7 426.1,351.5 425.5,351.8 424.8,352.4 424.5,352.7 424.3,353.9 424,354.1 423.7,354.2 423.3,354.4
			422.8,355.4 422.7,356.3 422.8,357.3 424.1,361.3 424.2,362 424.2,362.5 424.3,362.9 424.6,363.4 425,363.6 425.6,363.9
			426.3,363.9 426.5,363.4 426.7,362.2 427.1,361.3 427.7,360.9 428.4,361.3 428.9,363.5 429.3,364.6 430.1,364.5 430.9,364.1
			431.6,364.4 432.3,364.8 433,364.6 433.2,364.1 432.8,363 433.1,362.8 433.4,362.5 433.4,361.9 433.3,360.7 433.4,360 		"/>
		<polygon fill="#FFFFFF" points="436.1,357.1 436.4,357.8 436.5,357.8 436.8,357.8 436.8,357.4 436.7,357.2 		"/>
		<polygon fill="#FFFFFF" points="441,369.4 441.3,369.3 441.5,369.1 442,368.9 442.3,368.8 442.7,368.9 443,368.9 443.2,368.8
			443.7,368.2 443.7,368 443.6,367.8 442.8,368.2 442.6,368.2 442.6,367.9 441.2,367.1 440.8,367.2 440.7,367.4 440.6,367.7
			440.5,367.9 440.5,368.2 440.7,368.3 440.9,368.4 441.1,368.6 441.1,368.9 441,369.2 		"/>
		<polygon fill="#FFFFFF" points="455.5,344.9 455.3,344.5 454.7,344.5 455,344.9 455.6,345.4 		"/>
		<polygon fill="#FFFFFF" points="457.8,349.1 457.8,349.5 457.9,349.6 458.2,349.4 458.4,349.4 458.6,349.6 458.7,349.8
			459.3,349.3 459.5,348.8 459.5,348.3 459.6,347.8 459.6,347.2 459.3,347.2 459.2,347.5 458.9,347.5 458.7,347.7 458.7,348.1
			458.5,348.3 458.1,348.4 458.2,348.6 458.3,348.7 458.2,348.9 		"/>
		<polygon fill="#FFFFFF" points="444.2,361.7 444,361.5 443.5,361.2 443.4,361.3 443.3,361.5 443.5,362 443.7,362.1 444,362.2
			444,362 444,361.8 		"/>
		<polygon fill="#FFFFFF" points="445.7,367.5 446,367.9 446.5,367.9 446.7,367.9 447.2,368.1 447.5,367.9 447.2,367.7 446.9,367.6
			446.2,367 445.7,366.5 445.5,366.7 445.7,367 446,367.1 446,367.3 445.9,367.3 		"/>
		<polygon fill="#FFFFFF" points="409.7,388.2 409.7,387.8 409.5,387.8 409.2,387.9 409.5,388.3 		"/>
		<polygon fill="#FFFFFF" points="409.8,369.8 409.9,370.2 410.3,370.3 410.4,370 410.4,369.8 410.8,369.7 411,369.6 411,369.3
			410.7,369.1 410.3,368.9 409.9,369.1 409.7,369.3 409.5,369.2 409.2,369 409,369.4 409.1,369.7 409.5,369.8 409.7,369.5 		"/>
		<polygon fill="#FFFFFF" points="403.8,371.6 403.8,371.4 403.3,372 		"/>
		<polygon fill="#FFFFFF" points="405.5,375.7 405.5,376 405.8,376.3 406.1,376.5 406.4,376.4 407.4,376.1 407.8,376.2 408.2,375.9
			408.2,375.7 408.2,375.5 408,375.3 406.6,374.8 406.3,374.7 406.5,374.6 406.8,374.7 406.8,374.5 406.7,374.2 406.4,374
			406.4,373.8 406.7,373.8 407,373.6 406.5,373.2 405.8,373.2 405.4,373.6 405.3,374 405.4,374.2 405.3,374.3 405.1,374.3
			405.1,374.5 405.8,374.6 405.9,374.8 405.9,375 406.1,375.3 406.2,375.5 405.8,375.4 		"/>
		<polygon fill="#FFFFFF" points="405.6,360.3 405.8,360.3 405.9,360.3 406,360 406.3,359.8 406.5,359.7 406.5,359.5 406.6,359.1
			406.2,359.4 405.8,359.3 405.7,359.4 405.5,359.6 405.6,359.9 405.4,360.1 		"/>
		<polygon fill="#FFFFFF" points="403.9,371.3 404,371.1 403.8,371.3 		"/>
		<polygon fill="#FFFFFF" points="416.2,371.4 415.7,371.4 415.6,371.3 415.5,371 415.3,370.8 415.1,370.8 414.6,371 414.4,371.2
			414.2,371.7 414.2,371.9 414.4,371.8 414.9,372.5 415.5,372.3 415.7,372.4 415.9,372.2 416.2,371.6 416.4,371.8 416.4,372.1
			416.7,372 416.9,371.7 416.7,371.3 416.3,371.2 		"/>
		<polygon fill="#FFFFFF" points="421.6,377.8 421.5,377.6 421.3,377.7 421.2,378 421.2,378.4 421.1,378.6 420.9,379.1 421,379.2
			421.1,379.3 420.9,379.6 421,379.9 421.6,380.3 421.6,380.3 421.7,380 421.8,379.9 421.8,379.6 421.7,379.4 422,378.1 		"/>
		<polygon fill="#FFFFFF" points="419.9,366.7 419.1,367.4 418.9,367.6 418.6,368.6 418.8,369.2 420.4,370.9 420.9,371.1
			421.4,371.1 421.9,370.6 422.2,369.9 422.3,369.1 422.3,368.3 421.9,366.9 421.6,366.2 421.2,365.5 420.7,365.4 421.2,364.9
			421.5,364.3 421.3,363.8 420.9,363.6 420.3,363.6 419.8,363.9 419.7,364.3 420.4,365 420.1,366.4 		"/>
		<polygon fill="#FFFFFF" points="418.5,353.9 418.3,354 417.9,353.8 417.4,353.9 416.9,354.2 416.7,354.6 416.8,354.8 417.2,355.3
			417.5,355.4 418,355.3 419,354.1 418.7,354 		"/>
		<polygon fill="#FFFFFF" points="406.8,378.9 407.2,379.1 407.5,379.4 407.6,379.9 407.8,380 408.5,379.8 409.3,379.3 409.7,378.9
			409.7,378.6 409.5,378 408.5,377 408.1,377 407.7,377.4 407.5,377.5 407.4,377.3 406.8,377.2 406.5,377 406.2,376.8 406,377
			406,377.2 406.1,377.5 405.9,377.9 406.2,378.1 406.7,378.5 406.6,378.6 		"/>
		<polygon fill="#FFFFFF" points="422.5,375.4 422.1,375.5 421.6,375.7 421.4,376.1 421.4,375.5 421,374.6 420.5,373.6 420.2,373.3
			419.9,373 419.6,372.9 419.6,372.9 419.6,372.9 419.2,372.6 418.3,372.7 417.6,373.1 417.4,373.5 417.7,373.9 417.7,373.9
			418.1,374.2 418.2,374.5 418.4,374.9 418.6,375.1 418.8,375.3 419.2,375.8 420.7,376.4 420.9,376.5 421.3,376.2 421.3,376.7
			421.5,376.8 421.6,376.6 421.8,376.5 421.9,376.7 422.2,376.7 422.5,376.5 422.4,376.1 422.3,375.9 422.5,375.6 		"/>
		<polygon fill="#FFFFFF" points="347.1,333.6 347.5,333.3 347.7,333.2 347.6,332.9 347.5,332.4 347.3,332.2 347,332 346.9,332.2
			346.8,332.4 346.7,332.5 346.7,332.7 346.8,333 347,333.4 		"/>
		<polygon fill="#FFFFFF" points="390.5,375 390.7,375.3 391.3,375.1 391.6,374.7 391.6,374.2 391.3,374.1 391.2,374.5 391,374.7
			390.9,374.4 390.6,374.2 390.5,374.5 390.2,374.5 390.2,374.9 		"/>
		<polygon fill="#FFFFFF" points="374.1,384.4 373.9,384.1 373.7,383.7 373.6,382.8 373.2,381.8 372.7,381.1 372.2,380.8
			371.7,380.7 370.9,380.7 370.6,380.8 370.2,381 369.8,381.6 369.6,382.2 369.6,382.9 369.6,383.6 369.7,384.2 370.1,384.6
			370.6,384.9 371.2,385.1 371.6,385 372,385.1 372.1,385.4 371.7,385.8 371.7,386.1 372.6,386.4 373.3,386.6 373.6,386.8
			373.9,386.6 373.9,386.3 374.1,386.3 374.4,386.5 374.8,386.7 375.1,386.7 375.3,386.8 375.4,386.6 375.2,386 375.1,385.7
			374.3,384.9 		"/>
		<polygon fill="#FFFFFF" points="374.5,392.4 374.8,392.8 374.9,392.5 375.2,392.1 375.3,391.8 375.3,391.7 375.2,391.5
			375.1,390.9 374.4,391.4 374.4,391.7 374.3,392.2 		"/>
		<polygon fill="#FFFFFF" points="384,429.4 383.9,428.7 383.8,428.3 383.8,428.1 383.6,427.9 383.5,427.8 383.3,427.9 383,428.8
			383,429.3 383.2,429.5 383.6,429.6 		"/>
		<polygon fill="#FFFFFF" points="390.3,370.1 390.5,369.7 390.2,369.4 390,369.4 389.9,369.4 389.7,369.5 390,370.2 		"/>
		<polygon fill="#FFFFFF" points="388.1,379.5 388.3,380.3 388.5,380.5 388.6,380.3 388.7,380.2 388.8,380.1 388.8,379.7 389,379.4
			388.5,378.1 388.1,377.7 388,377.9 387.5,377.6 387,377.7 386.8,378 387.5,379.7 387.7,379.9 387.9,379.9 388,379.7 387.9,379.5
			388,379.3 		"/>
		<polygon fill="#FFFFFF" points="384.2,385.9 384.5,385.9 384.9,385.8 385.1,385.8 386,385.1 386.2,384.9 386.2,384.5 385.8,384.2
			385.5,384.1 384.4,384.1 383.8,384.5 383.7,384.8 383.6,385.3 383.9,385.5 384.1,385.7 		"/>
		<polygon fill="#FFFFFF" points="383.2,380.6 383.2,380.2 383,380.2 382.8,380.7 382.6,381.1 382.2,381.1 381.8,381 381.5,380.7
			381.3,380.6 381.1,380.7 380.1,380.6 379.8,380.4 379.5,380.3 379.5,380.5 379.7,380.7 379.7,381.3 379.6,382.1 379.7,382.4
			379.8,382.1 380.1,381.8 380.4,381.6 380.5,381.8 380.4,382.4 380.4,382.5 380.6,382.8 380.9,383 381.3,383.2 381.5,383.2
			381.6,383.1 381.8,383.1 382.1,382.8 382.3,382.5 382.7,382.5 383,382.2 382.8,381.6 383,381.4 		"/>
		<polygon fill="#FFFFFF" points="378.5,379.1 378.3,378.7 377.7,378.6 376.8,378.8 375.9,379.3 375.3,380.2 375,380.9 374.8,381.1
			374.6,381.5 374.8,381.7 375,381.7 375.2,381.9 375.3,382.3 375.3,382.9 375.6,383.2 375.9,383.1 376,382.5 376.4,381.9
			377.6,381.4 377.8,381 378.2,380.9 379.1,381.2 379.4,381.2 379.4,380.9 379.1,380.4 378.8,380 378.3,379.8 378.3,379.6
			378.5,379.4 		"/>
		<polygon fill="#FFFFFF" points="379.2,383.5 379,383.6 378.6,383.5 378.4,383.3 377.9,383.4 377.3,383.9 376.8,384.1 376.4,383.9
			376.1,383.8 375.9,383.9 375.7,384 375.3,384.2 374.8,384.2 374.9,384.4 375.9,384.9 376,385 376.2,385 376.6,385 377.2,384.9
			377.6,384.8 378,384.9 378.2,385.3 378.3,385.7 378.5,386 378.9,385.9 379.1,385.7 379.3,385.5 379.8,385.4 380.1,385.5
			380.4,385.2 380.5,384.8 380.5,384.7 380.8,384.4 380.9,384 380.5,383.7 379.9,383.6 379.4,383.5 		"/>
		<polygon fill="#FFFFFF" points="381.7,403.9 382.7,403.7 382.3,402.9 382,402.9 381.6,403.1 381.7,403.7 		"/>
		<polygon fill="#FFFFFF" points="382.2,393.1 382.3,392.4 382,392.1 381.6,391.7 381.1,391.1 380.4,390.9 379.7,391.2 379.4,391.5
			379.2,391.9 379.2,392.4 378.9,393 379.1,393.8 379.2,393.9 379.4,393.6 379.7,393.6 380.1,393.9 380.6,394.2 381.3,394.1
			381.8,393.8 382.1,393.3 		"/>
		<polygon fill="#FFFFFF" points="397.7,381.8 397.8,381.7 397.8,381.6 397.7,381.4 397.5,381.2 397.3,380.9 397.2,380.6 397,380.4
			396.9,380.3 396.7,380 396.5,379.9 396.3,380 396.4,380.3 396.4,380.5 396.6,380.6 396.8,380.7 396.8,380.9 396.7,381.1
			396.7,381.4 396.9,381.7 397.6,381.9 		"/>
		<polygon fill="#FFFFFF" points="341.8,344 342,344.1 342,343.2 341.8,342.8 341.5,342.8 341.3,343 341.3,343.4 341.5,343.8 		"/>
		<polygon fill="#FFFFFF" points="342.4,353.2 342.1,353.2 341.5,353.7 340.7,355 340.3,355.4 340.3,355.7 340.8,355.7 342.3,355.4
			342.7,355.5 343,355.8 343.3,355.9 344,355.7 344.5,355.3 344.8,354.6 345,353.9 344.9,353.1 344.5,352.5 344,352.1 343.6,352.2
			343.4,352.9 343.2,353.3 342.8,353.3 		"/>
		<polygon fill="#FFFFFF" points="342.4,329 342.2,328.9 342.1,328.7 341.8,328.4 341.5,328.8 341.2,328.9 341.4,329 341.6,329.2
			341.7,329.4 341.6,329.4 341.4,329.3 341.3,329.4 341.1,329.5 341.3,329.6 341.5,329.8 341.5,330.1 342,330 342.2,329.9
			342.3,329.8 342.6,329.6 342.5,329.2 		"/>
		<polygon fill="#FFFFFF" points="397.2,390.9 397.4,390.9 397.3,390.7 397.1,390.4 397.2,390.2 397.4,390 397.3,390 397.4,389.4
			397.3,389.1 397.2,388.9 397,388.8 396.8,389 396.6,389.1 396.4,389.4 395.9,389.8 395.6,391 396.4,390.8 		"/>
		<polygon fill="#FFFFFF" points="559.9,207.5 558.9,207.9 557.3,208.2 556.5,208.7 556.1,209.6 556.3,210.7 557.1,211.6
			558.2,212.3 559.3,212.5 560.2,212.1 560.7,211 561.2,209.4 561.3,208 560.5,207.4 		"/>
		<polygon fill="#FFFFFF" points="339.5,286.9 339.6,287.3 339.9,287.6 340.2,287.4 340.1,287 340.3,287 340.6,287.3 340.5,286.7
			339.9,286.5 		"/>
		<polygon fill="#FFFFFF" points="343,256.3 343.3,256.6 344,256.3 344.2,256.4 344.4,256.3 344.5,256 344.6,255.5 344.6,255.3
			344.4,255.2 344.2,255.8 343.8,255.9 343.2,256.1 		"/>
		<polygon fill="#FFFFFF" points="369.4,394.7 369.5,395.4 369.7,395.5 369.9,395.7 370,395.9 370.2,396.1 370.7,395.9 370.9,395.5
			370.9,395 371,394.6 371.2,394.6 371.3,394.4 371.1,394.2 371,394.1 370.5,393.4 370.6,393 371,392.7 370.9,392.1 370.2,391.7
			369.8,391.7 369.7,391.9 369.4,392.3 369.5,392.5 369.7,392.8 369.7,393.5 		"/>
		<polygon fill="#FFFFFF" points="349.6,199.6 347.9,200.2 348.2,200.5 348.5,200.6 348.9,200.6 349.6,201.2 350,201.3 350.1,200.9
			349.9,200.2 		"/>
		<polygon fill="#FFFFFF" points="344.1,280.6 344.1,280.8 344,280.9 343.7,281.3 344.3,281.4 345.1,281.1 344.9,280.6 344.3,280.6
					"/>
		<polygon fill="#FFFFFF" points="343.9,233.4 344.1,233.4 344.2,233.4 344.6,232 343.8,232.2 343.5,232.7 343.8,232.6 344.1,232.8
			343.7,233.2 		"/>
		<polygon fill="#FFFFFF" points="344.9,228.4 345.1,228.8 345.7,228.8 345.8,228.6 345.8,228.4 345.8,228.2 345.9,228 345.7,227.9
			345.6,228 345.3,227.6 344.9,227.6 344.8,227.9 		"/>
		<polygon fill="#FFFFFF" points="366.9,396.9 367,396.9 367.5,397 367.9,397.1 367.9,397 367.8,396.6 367.5,396.1 367.2,396.1
			367,396.2 367.2,396.5 367,396.7 		"/>
		<polygon fill="#FFFFFF" points="350.6,349.1 350.3,349.2 349.9,349.4 349.8,349.9 349.9,350.2 350.1,350.7 350.3,350.8
			350.4,350.1 350.5,349.6 350.5,349.5 350.6,349.3 		"/>
		<polygon fill="#FFFFFF" points="348.2,349.9 348.8,349.4 348.9,348.7 348.8,348.4 348.5,348.3 348.2,348.1 348.1,347.8 348,347.5
			348,347.4 347.8,347.3 347.7,347.2 347.6,347.1 347.4,347.1 347.2,347 346.8,346.9 346.5,347 346.3,347.3 346.1,347.3
			345.9,347.5 345.8,347.8 345.7,347.9 345.3,348 345.2,348.1 345.2,348.4 345.5,348.5 345.8,348.4 346,348.5 347.2,348.5
			347.5,348.4 347.6,348.4 347.5,348.7 347,348.9 346.9,350 346.6,350.8 346.5,351.1 346.6,351.1 346.8,351 347.3,350.9
			347.4,350.8 347.3,350.4 347.4,350.1 		"/>
		<polygon fill="#FFFFFF" points="346.5,369.2 346.8,369.2 347,369 347.3,368.9 347.5,368.9 347.7,368.9 347.8,368.7 348.1,368.6
			348.5,368.7 348.7,368.7 349,368.4 349.8,367.9 349.8,367.7 349.2,367.8 349.1,367.1 348.6,366.5 347.9,367.1 347.9,366.9
			348.1,366.5 348,366.2 347.7,366 347.5,366.1 346.7,366.7 346.5,366.9 346.2,367.1 346,367.3 346.3,367.5 346.6,367.7
			346.5,369.1 		"/>
		<polygon fill="#FFFFFF" points="352.7,348.4 352.6,348.3 352.2,348 351.9,347.9 351.7,348 352,348.4 352,349 352,349.4
			351.8,349.6 352.1,349.6 352.3,349.8 352.5,349.5 352.9,349.5 353,349.2 352.9,348.7 		"/>
		<polygon fill="#FFFFFF" points="346.2,363.6 346.4,363.5 346.6,363.3 347.1,363.3 347.5,363.9 348,364.4 348.6,364.3 348.8,363.8
			348.8,363.2 348.7,362.8 348.6,362.4 348.7,362.1 348.5,361.8 348.2,361.6 347.8,361.5 347.2,361.4 346.8,361.2 346.6,360.9
			346.1,360.7 345.6,360.7 345.1,360.7 344.8,360.9 344.4,360.9 344,360.7 344.2,361.2 345,362.1 345.5,362.9 345.5,363.4
			345.9,363.6 		"/>
		<polygon fill="#FFFFFF" points="345.1,364.4 345.4,364.8 345.7,364.5 345.7,363.8 345.2,364.1 		"/>
		<polygon fill="#FFFFFF" points="353.8,350.4 353.4,350.1 353.2,349.9 353,349.9 353,350.1 352.8,350 352.6,350 352.9,350.4
			353.1,350.8 353.2,351.1 353.4,351.7 354.1,351.9 354.3,351.6 354.1,351.1 		"/>
		<polygon fill="#FFFFFF" points="352.1,316.5 352.2,316.9 352.4,317.1 352.7,317 352.8,316.9 353.2,316.6 353.7,316 354.6,315.3
			354.7,314.9 354.6,314.6 354.4,314.4 354.3,314.6 353.9,314.9 353.4,314.8 353.2,314.8 353.3,315.1 353.2,315.1 352.9,315.2
			352.7,315.4 352.5,315.5 352.4,315.7 352.6,315.8 352.6,315.9 352.2,316.2 		"/>
		<polygon fill="#FFFFFF" points="360.4,273.1 360.2,272.5 360,272.2 359.8,272.2 359.3,272.3 359.3,272.6 359,272.7 358.7,272.5
			358.4,272.5 358.1,272.5 358,272.8 358.2,273.1 361,273.9 361.4,273.7 361.3,273.5 360.6,273.3 		"/>
		<polygon fill="#FFFFFF" points="351.9,352.8 352.1,352.6 352.2,352.1 352.2,351.9 352,351.7 351.2,351.7 350.8,351.9 350.7,352.5
			351,352.9 351.5,353 		"/>
		<polygon fill="#FFFFFF" points="355.3,360.5 355.5,360.2 355.4,360 355.3,359.9 355.1,359.8 354.9,360 354.5,360.2 355,361.3
			355.1,361.3 355.1,361 355,360.9 355.1,360.6 		"/>
		<polygon fill="#FFFFFF" points="355.9,354.2 356.3,354.2 356.3,353.9 355.8,353.3 355,352.9 354.2,352.7 353.7,353 353.9,353.5
			354.2,354 354.2,354.4 354,354.7 353.4,354.9 353.4,355.1 353.2,355.3 353.1,355.5 352.2,355.8 351.4,355.9 351.2,356.2
			351.5,356.5 352,356.7 352.7,356.6 353.3,356.3 354.6,356.1 354.8,356.2 356,356.9 356.1,357.1 356,357.4 355.7,357.7
			356.2,357.9 357.1,357.1 357,355.9 356.1,355.6 355.5,355.6 355.2,355.5 355.1,355.3 355.1,355 355.2,354.7 		"/>
		<polygon fill="#FFFFFF" points="359.4,377.9 359.5,378.1 359.4,377.7 359.4,377.7 		"/>
		<polygon fill="#FFFFFF" points="368.1,389.6 368.3,389.7 368.6,389.4 368.9,389.5 368.6,389 368.3,388.8 368,388.8 367.9,388.9
			367.8,388.8 367.7,389 367.4,389.3 367.7,389.8 		"/>
		<polygon fill="#FFFFFF" points="366.3,389.8 365.9,389.7 365.8,389.8 366,390.2 366.1,390.4 365.9,390.5 365.8,390.6 365.8,390.7
			365.8,390.8 365.8,391 365.7,391.2 365.5,391.9 365.5,392 365.7,392.1 365.9,392.2 366,392.4 366.4,392.7 367,392.9 367.2,392.7
			367,392.3 367.4,392.2 368,392.2 368.2,391.6 368.5,391.3 368.5,390.9 368.3,390.6 368.1,390.4 367.6,390.2 366.6,390 		"/>
		<polygon fill="#FFFFFF" points="346.8,346.1 347.1,346.1 347.3,346.2 347.3,346.4 347.5,346.4 347.8,346.3 348,346.4 348.3,346.9
			348.6,347 348.8,346.8 349,346.7 349,346.1 349,345.8 348.9,345.6 348.7,345.4 348.3,345.2 347.7,345.3 347.3,345.1 347,345.1
			346.7,345.4 346.6,345.6 346.8,345.7 347,345.7 347.1,345.7 346.8,346 		"/>
		<polygon fill="#FFFFFF" points="364,393.3 363.6,394 363.6,394.9 364.1,395.5 364.9,395.5 365.6,395.1 366.1,394.7 366.5,394.4
			366.7,394.1 366.9,393.8 367.4,393.8 367.8,394.1 367.9,394.1 368,393.9 368.2,394 368.4,394.1 368.5,393.9 368.1,393.4
			367.7,393.3 367.4,393.2 366.9,393.2 366.6,393.3 366.3,393.3 365.4,392.7 364.7,392.7 		"/>
		<polygon fill="#FFFFFF" points="362.1,384.2 362.2,383.9 362,383.7 361.7,383.7 361.7,384 361.9,384.3 362.1,384.4 		"/>
		<polygon fill="#FFFFFF" points="365.4,387.1 365,387 365,387.5 365.4,387.4 365.8,387.5 366,387.4 366.4,387.2 366.1,387 		"/>
		<polygon fill="#FFFFFF" points="343.9,356.4 343.7,356.8 344,357.4 344.4,357.9 345.1,358.7 345.1,358.9 345.2,359.2 345.6,359.2
			346.1,359 346.2,358.4 346.2,357.8 346.5,357.5 346.9,357.5 347.2,357.3 347.3,356.8 347.1,356 347.7,355.6 347.7,355.3
			347.5,354.9 347.3,354.8 347,354.8 346.4,354.8 346,355.3 346,355.9 345.9,356.2 345.5,356.2 345.1,356 344.5,356 		"/>
		<polygon fill="#FFFFFF" points="347.2,359 346.6,359.2 345.5,359.4 345,359.8 345.6,360.1 346.3,360.4 346.9,360.9 347.4,361.2
			348,361 348.2,360.7 348.1,360 348.3,359.7 348.4,359.5 348.3,359.3 348,358.9 347.5,358.7 		"/>
		<polygon fill="#FFFFFF" points="359.1,377.5 359.3,377.6 359.4,377.6 359.3,377.1 		"/>
		<polygon fill="#FFFFFF" points="357.3,274.9 357,274.5 356.9,273.9 356.7,273.8 356.5,274.3 356.2,274.7 356,275.3 356,275.4
			356.4,275.2 356.9,275.5 356.9,275.4 357.1,275.1 		"/>
		<polygon fill="#FFFFFF" points="355.4,404.8 355,404.7 354.4,404.8 354.7,405.3 355.1,405.9 355.3,406.1 355.4,406 355.4,405.7
			355.5,405.3 355.9,405.3 356,405.2 356.1,405.2 356,404.9 356.2,404.7 		"/>
		<polygon fill="#FFFFFF" points="340.2,235.8 339.9,235.8 340.1,236.5 340.3,236.6 340.5,236.9 341.2,236.8 341.5,236.4
			341.4,236.4 341.1,236.6 340.8,236.5 340.4,236.4 340.5,236.1 		"/>
		<polygon fill="#FFFFFF" points="357.4,197.7 359,200.7 359.3,201 359.5,201.2 359.5,201.5 359.2,202.1 358.8,202.3 357.5,202.6
			358.4,203.9 359.3,204.3 361.6,204.1 361.8,204 362,203.8 362.2,203.7 362.5,204 363,204.5 363.3,204.6 363.6,204.6 364.1,204.2
			364.6,203 365.2,202.6 365,202.4 364.8,201.8 364.5,201.5 364.7,201 364.5,199 364.4,198.5 364,197.8 363.9,197.4 364,197.1
			364.2,196.3 364.3,195.9 364,195 363.4,194.4 362,193.7 361.3,193 360.6,192.2 359.9,191.7 359.1,191.9 358,193.2 357.6,193.3
			357.4,193.9 357.5,196.6 357.3,197.2 		"/>
		<polygon fill="#FFFFFF" points="491.4,329 491.8,328.2 491.1,329.3 		"/>
		<polygon fill="#FFFFFF" points="364.3,311.9 362.9,312.8 362.3,313.3 362.4,313.8 362.4,314 363.8,316.1 367.6,315.9 364.7,311.6
					"/>
		<polygon fill="#FFFFFF" points="347.1,199.9 347.2,199.5 346.7,199.2 346.4,199.4 346.4,199.7 346.9,199.8 		"/>
		<polygon fill="#FFFFFF" points="359.6,234.8 359.7,235.2 359.8,235.6 360.1,235.7 360.2,235.7 360.7,234.8 359.7,234.5 		"/>
		<polygon fill="#FFFFFF" points="367.3,223.1 366.8,222.8 366.6,222.4 366.7,221.9 366.6,221.9 365.9,222.4 365.2,222.1
			365.1,222.2 365.4,222.5 365.8,223.1 366,224 366,224.6 365.4,225.3 365.6,225.6 365.5,226 365,226.7 365,226.9 366.1,226.8
			366.1,226.7 368.2,223.6 368.1,223.5 		"/>
		<polygon fill="#FFFFFF" points="345.9,223.3 345.6,223 345.2,223.5 345,224.3 344.9,225.2 344.8,225.4 345,225.4 345.3,225.2
			345.5,225.2 345.6,225.5 345.9,226 346.3,226.2 346.8,226.1 347.3,225.9 347.8,225.4 348,225 347.7,224.7 346.5,224.1
			346.2,223.8 		"/>
		<polygon fill="#FFFFFF" points="494.5,233.9 493.5,232.5 494.6,234.1 		"/>
		<polygon fill="#FFFFFF" points="339.3,233.5 339.3,233 338.6,232.8 338.5,232.7 338.4,232.9 338.4,233.2 338.2,233.4 338.2,233.8
			338.4,233.9 338.4,234.2 338.6,234.3 338.7,234.1 338.7,233.8 338.7,233.4 339,233.5 		"/>
		<polygon fill="#FFFFFF" points="316.7,367.8 316.9,368 317.2,367.6 317.5,367.2 317.6,366.9 317.3,366.9 317.1,367 316.9,367
			316.8,367.2 316.6,367.3 316.5,367.6 		"/>
		<polygon fill="#FFFFFF" points="337.5,360.2 337,360.4 336.5,360.7 336.1,361.2 336,361.8 336.1,362.6 336.3,363.1 336.7,363.5
			337.2,363.6 337.8,363.3 338.1,362.8 338.4,362.2 338.5,361.5 338.7,361.3 339.3,361.5 339.9,361.5 340.3,360.9 340.5,361.1
			341,361.2 341.2,361.3 341.2,360.2 341.1,359.8 340.9,359.7 340.7,359.6 340.4,359.7 338.9,360.2 338.1,360.4 		"/>
		<polygon fill="#FFFFFF" points="326.9,199.9 326.6,200 326.5,200.4 326.7,201.1 326.9,201.4 327.2,201.3 327.6,200.9 327.7,200.3
			327.4,200 		"/>
		<polygon fill="#FFFFFF" points="313.1,365.8 312.8,365.6 312.3,365.8 312.7,366.3 312.9,366 		"/>
		<polygon fill="#FFFFFF" points="316.1,365.2 315.7,365.2 315.5,364.8 315.3,364.6 315,364.7 314.6,365 314.3,365.5 314,366.1
			313.7,366.7 313.7,367.4 314,368.2 314.4,368.4 314.6,368.2 314.8,367.9 315.1,367.4 315.2,367 315.9,366.2 316.1,365.9
			316.3,365.6 316.7,365.3 316.6,365 		"/>
		<polygon fill="#FFFFFF" points="368.7,240.3 368.8,239.9 368.7,239.5 368.5,239.1 368.3,238.9 367.6,238.7 367.3,238.4
			366.8,237.5 366.2,238.5 366.2,238.5 366.6,238.9 366.5,239.3 366.1,239.5 365.5,239.5 365.5,239.5 365,240.3 365.9,241.2
			366.3,241.8 366.7,242.9 366.9,243.3 368.8,240.5 		"/>
		<polygon fill="#FFFFFF" points="332.5,369.7 332.5,370.1 332.8,370.2 333.2,370 333.5,370 334.2,369.8 334.5,369.6 334.5,369.4
			334.5,368.8 334.4,368.4 334,368.4 333,369 332.6,368.9 332.2,368.7 332,368.7 332,368.8 332.8,369.5 332.8,369.7 		"/>
		<polygon fill="#FFFFFF" points="328.3,203.9 328.2,203.6 327.8,203.7 327.7,204.3 328,204.2 		"/>
		<polygon fill="#FFFFFF" points="356.8,239.8 356.6,240 356.7,240.5 356.8,240.6 357.2,240.1 		"/>
		<polygon fill="#FFFFFF" points="361.4,207.8 361.1,207.9 361,208.1 360.6,208.3 360.2,208.7 360.4,209 361.7,209.4 361.8,209.2
			361.9,209 362,208.1 361.8,207.8 		"/>
		<polygon fill="#FFFFFF" points="360.4,223.2 360.3,224 360.4,224.7 360.7,224.9 361,224.8 361.4,225.1 361.9,224.9 362.3,224.5
			362.3,224.1 362.5,223.8 363,223.6 363.2,223.4 363,222.7 362.5,222.4 361.5,222.3 360.7,222.7 		"/>
		<polygon fill="#FFFFFF" points="355,192.9 354.1,193 353.3,192.5 352.6,192.3 351.9,192.4 351.4,193 350.8,194.5 350.8,194.7
			350.9,195.3 351.4,195.3 351.9,195.1 352.3,194.9 354.2,195.3 355.1,195.2 355.9,194.6 356.2,193.5 355.8,193.1 		"/>
		<polygon fill="#FFFFFF" points="356.2,198.5 356,198.2 355.7,197.8 355.7,197.6 355.5,196.6 355.5,196.4 355.4,196.2 355.2,196.1
			355,196.1 354.7,196.4 354.5,196.6 354.4,196.9 354.1,198 353.9,198.4 353.5,198.8 356.6,201.1 357.5,201.1 357.9,200.5
			357.8,199.9 357.4,199.4 356.9,199 		"/>
		<polygon fill="#FFFFFF" points="366.5,209.1 366.2,208.9 366,208.9 365.5,208.9 365.2,208.9 365,208.8 364.7,208.7 364.5,208.6
			364.2,208.6 364,208.8 363.9,209 363.3,211.3 362.9,212.2 362.4,212.6 363.1,212.4 365.2,211.1 365.5,211.1 365.9,211.1
			366.2,211.1 366.4,210.9 366.5,210.5 366.6,210.3 366.9,210.1 367.3,210 367.2,209.8 		"/>
		<polygon fill="#FFFFFF" points="358,208.2 357.8,207.9 356.4,207.9 355.8,207.2 355.1,206.9 354.8,206.9 354.8,207 355.2,207.6
			355.5,208.4 355.7,208.6 356,208.5 357.4,208.4 		"/>
		<polygon fill="#FFFFFF" points="361.5,211.9 361.7,211.5 361.8,211.2 362,211 361.9,210.2 361.1,210.1 360.9,210.1 360.9,210.6
			361.4,210.9 361.3,211.6 		"/>
		<polygon fill="#FFFFFF" points="358.9,216.3 359.3,217.5 359.9,217.5 360.4,217.2 360.5,216.8 360.5,216.6 360.3,216.3
			360.1,216.2 359.5,215.4 359.2,215.1 358.9,215.2 358.7,215.7 358.7,216.1 		"/>
		<polygon fill="#FFFFFF" points="358.8,213.5 359,213.7 359.3,213.9 359.8,214.1 360.1,213.8 360.1,213.2 359.7,212.7 359,212.2
			358.6,212.1 358.4,212.3 358.1,212.4 357.3,212 357.1,212.2 357.4,212.9 357.5,213.2 357.6,213.4 357.9,213.5 358.5,213.3 		"/>
		<polygon fill="#FFFFFF" points="357.9,232.2 358.1,232.3 358.4,232.6 358.2,231.6 357.9,231.6 		"/>
		<polygon fill="#FFFFFF" points="352.2,201.4 351,201.5 351,201.7 351.6,202.3 352.3,202.9 352.5,202.8 352.3,202.6 352.2,202.4
			352.3,201.6 		"/>
		<polygon fill="#FFFFFF" points="358.4,237.6 358.4,238 358.5,238.2 358.9,237.6 		"/>
		<polygon fill="#FFFFFF" points="454.3,361.7 454.7,361.9 455.1,362 455.4,361.9 455.4,361.5 455,361.4 454.4,361.4 453.5,361
			453.2,361.2 453.4,361.5 		"/>
		<polygon fill="#FFFFFF" points="358,238.5 357.6,238.2 357.2,237.9 356.7,238 356.3,238.3 355.9,238.8 356.7,238.7 357.4,238.9
			357.7,239.3 358.2,238.6 		"/>
		<polygon fill="#FFFFFF" points="352.5,228.7 352.8,228.7 353,229.1 353.4,229.2 353.2,228.8 353,228.6 352.9,228.2 352.4,227.8
			352.2,228.1 351.8,228.1 352,228.6 		"/>
		<polygon fill="#FFFFFF" points="351.2,197.9 351.3,197.8 351.7,197.8 351.4,197.5 350.9,197.4 350.6,197.6 		"/>
		<polygon fill="#FFFFFF" points="308.9,381.1 309.3,381.9 309.6,381.6 309.8,381.7 310.1,381.6 310.3,381.5 310.1,381.4
			309.7,381.1 309.4,380.9 309,380.8 308.8,380.9 		"/>
		<polygon fill="#FFFFFF" points="349.5,244.4 349.4,245.2 350.5,246 349.7,247.2 349.8,247.9 350.5,248.2 351.7,248.3 351.3,248.9
			350.8,249.1 349.5,248.7 350,249.6 350.5,250.2 350.1,250.1 349.7,250 349.4,250 349.2,250.2 348.9,249.7 348.6,249.3
			348.5,248.8 348.3,248.3 348.2,249 347.9,249.5 346.8,250.9 346.6,251.3 346.7,252.7 346.7,254.1 346.8,254.5 347.4,254
			347.6,253.4 347.7,252 348,251.4 348.6,251.8 349.3,252 350,252.4 350.5,253.3 350.5,254.1 350,254.4 348.2,254.4 347.9,254.6
			348,255.1 348.2,255.6 348.3,255.9 348.9,256.2 349.3,256.2 349.8,256 350.3,255.9 351.1,255.6 352.3,254.1 353.2,253.6
			353.5,255.2 353.1,256.2 354.4,258.4 353.8,259.7 354,260.1 354.1,260.4 354.1,260.8 354.1,261.3 354.5,260.7 355,260.2
			355.6,259.9 356.3,259.7 355.5,258.7 355.4,258.3 355.9,257.8 355.6,256.9 354.8,255.6 354.4,254.8 355.4,254.8 355.7,254.1
			355.8,253.2 356.3,252.5 357,252.4 357.5,252.9 357.9,253.8 358.4,254.4 358,255.1 357.5,258.2 358.1,258 358.4,257.8
			358.7,257.5 359,257.8 359.5,257.1 360.6,254.9 360.7,254.4 360.5,254.2 360.5,253.9 360,253.6 366.7,243.7 366.4,243.7
			366,243.3 365.8,242.8 365.5,242.2 364.7,241.3 364.4,241.1 363.8,242.1 363.7,242.5 362.9,245.2 362.7,246.6 362.6,246.9
			362.2,246.7 361.9,246.2 361.8,245.5 361.8,245.1 357.3,251.8 354.2,249.7 353.9,249.8 353.7,249.5 353.7,249.3 351.9,248.1
			355,243.4 354.8,243.1 354.6,241.8 354.6,240.6 354.7,239.9 353.7,240.2 353.5,241.6 353.6,243.2 353.5,244.5 353.2,245
			352.9,245.2 351.8,245.2 351.2,245.1 351.1,244.7 351.4,243.4 350.3,243.8 		"/>
		<polygon fill="#FFFFFF" points="282.9,182.4 280.4,183.3 279.3,182.9 278.8,184.9 280.1,186.1 282,186.3 282.9,185.6 282.7,185.4
			282.1,185.3 281.7,185.1 281.7,184.5 281.9,184.4 283.1,184.3 283.9,184.8 284.6,184.4 284.6,183.5 284.1,182.9 		"/>
		<polygon fill="#FFFFFF" points="284.5,194.5 284.5,194.6 284.2,194.9 284,195.4 284.4,195.3 284.7,194.9 284.9,194.8 285.4,194.9
			285.7,194.8 285.8,194.5 285.5,194.3 285.2,194.4 284.6,194.3 		"/>
		<path fill="#FFFFFF" d="M363.6,256l0.6,0.7l-0.4,0.1l-0.9,0.7l0.7,0.3l0.4,0.4l0.1,0.6l0.1,1.6l0,0.2l-1.1-0.2l-0.8,0.2l-0.4,0.5
			l-0.1,0.7l0.2,0.9l0.2,0.8l0.2,0.3l0.4,0h0.8l0.1,0.3l-0.4,0.7l-1,1.1l0,0.6l0.3,1l0.4,1l0.4,0.5l0.7-0.1l1-1.4l0.6-0.4h2.6
			l-0.8,0.4l-2.2,1.8l-1.3,0.5l-0.4,0.5l0.2,0.9h-0.6v0.4l0.4,0.3l0.5,0.6l0.3,0.2h1.5l0.7,0.2l0.3,0.7l-0.4,0.6l-2,0.5l-0.7,0.6
			l0.7,0.3l1.9,0.6l0.5,0.6l-0.7,0.4l-0.6,1.1l-0.9,2.6l0.3,0.4l0.4,0.3l0.2,0.1l0.3-0.2l0.3,0l0.5,0.4l0.4,0.4l0.7,1.1l-1.3-0.2
			l-1.3,0.4l-1.2,0.9l-1,1.2l0.3,0.3l0.1,0.1l0.2,0l0.6-0.6l1.1-0.2l1.2,0.1l0.8,0.3l1.2,1.7l0.3,0.2l0.6,0.3l0.3,0.3l-0.6,0.5
			l0.4,0.7l0.7,1l0.4,0.6l0.2,0.7l0.1,0.5l0.2,0.4l0.7,0.3l0.9-0.4l1-0.2l0.8-0.4l0.8-0.7l0.9-0.6l3.5-1.1l-0.1,0.8l-0.9,0.6
			l-2.1,0.8l-1.7,1.3l-1,0.5l-0.8-0.2l-0.7,0.4l-2,0.6l-0.8,0.1l-0.6,0.4l-0.4,0.9l-0.3,1.1l-0.1,1l0.2,0.5l5-3.3l2.3,3.4l1-0.4
			l0.2-0.1l0.5,0.2l0.5,0.4l0.2,0.4l-0.2,0.2l-0.6,0.1l-0.2,0.3l-0.1,0.4l-0.2,0.3l18.4,27.6l-5.5,3.6l-10.8-16.3l-1-1.5l-5.4-8.2
			l-0.7,0.2l-0.2,0.7l0,0.9l-0.3,0.8l-1.4-0.8l-0.2,0.1l5.5,8.2l-3.8,2.5l0.2,0.6l-0.6-0.2l0,0l-1.2,0.8l-1.1-1.7l-0.8,0.9l-0.7,0.2
			l-1.5,0.1l-0.1,0l1.5,2.2l1.8,2.7l0,0l10,15l-5.5,3.6l-12.8-19.2l-0.2,0.3l-0.8,1.6l-0.3,1.3l0.2,0.6l1.5,1.7l0.1,0.4l-0.4,0
			l-0.8-0.2l-0.6-0.8l-0.3-0.3l-1,1.5l-0.4,0.8l-0.1,0.8l0.1,0.4l0.2,0.4l0,0.4l-0.1,0.4l-0.3,0.3l-0.3,0.2l-0.2,0.3l-0.2,0.5l0.3,0
			l0.2,0.1l0.1,0.1l0.3,0.1l-0.8,0.2l-0.9,0.1l-0.8,0.2l-0.5,0.6h1.3l0.6-0.1l0.6-0.2l-0.1,0.7l0.2,0.4l0.5,0.4l-0.1,0.5l-0.2,0.3
			l-0.2,0.2l-0.1,0.3l0.3,0.8l1.5,1.7l0.4,1.2l0.3,0.3l0.4,0.2l0.8,0.2l0.2,0.4l0,0.9l-0.1,0.9l-1.1,2.6l-0.5-0.5l-0.3-0.5l-0.1-0.6
			l0.3-0.6l-0.4-0.2l-0.8,0l-0.4-0.2l-0.5-0.3l-0.2-0.2l-0.1-0.3l-0.2-0.7l-0.2-0.1l-0.2,0.1l-0.2,0l-0.1-0.3l0.1-0.3l0.2-0.5l0.1-1
			l0-0.5l-0.3-0.6l-0.4,1.3l-0.3,0.6l-0.6,0.4l-0.3-0.8l-0.8-0.4l-0.9,0.1l-0.7,0.7l0.2,0.9l1.1,1.5l-0.4,0.6l0.6,0.8l0.6,0l0.3-0.7
			l-0.3-1.2l0.8,0.3l0.8,0.7l1.3,1.8l0.3,1.1l-1.3,1.2l0.1,1.2l-1.1-0.2l-0.5,0l-0.5,0.2l0.2,0.5l0.3,0.4l0.3,0.3l0.4,0.3l-0.2,0.1
			l-0.4,0.3l0.6,0.4l0.8,0.3l0.8-0.1l0.7-0.6l0-0.5l-0.2-0.6l-0.1-0.5l0.5-0.2l0.3-0.1l0.2-0.3l0.3-0.3l0.5-0.1l1.1,0.3l-0.3,0.5
			l-0.8,0.6l-0.6,0.6l-0.1,0.9l0.3,1.1l0.5,0.9l0.5,0.4l-0.6,0.5l-0.2,0.4l0.1,0.8l0,0.4l-0.1,0.4l-0.2,0.4l-0.4,0.5l-0.9,0.9
			l-0.3,0.5l0.1,0.6l0.5,0.2l1-0.3l0.6,0.3l0.1-0.8l0.4-0.2l1.2,0.3l0.6-0.2l0.4-0.4l0.4-0.2l0.6,0.3l-0.2,0.3l-0.2,0.6l-0.2,0.3
			l0.3,0.2v0.1l0.9-0.1l0.5-0.6l0.5-1.9l0.5-1.1l0.1-0.1l-0.1-0.5l-0.3-0.9l0.1-0.5l0.5-0.7l0.7-0.3l0.6,0.2l0.4,0.8l0,0.6l-0.2,0.3
			l-0.2,0.3l-0.2,0.4v0.6l0.1,0.4l0.1,0.4l-0.2,0.5l2.3-0.2l1,0.2l0.7,0.8l-0.5,0l-0.4,0.1l-0.7,0.4l0.3,0.7l-1.1-0.1l-2-0.6
			l-1.1,0.3l-0.5,0.7l-0.1,1l0.2,1l-0.2-0.1l-0.1-0.1l-0.1-0.1l-0.2-0.1l-0.7,0.1l-3.9-0.6l-0.5-0.1l-0.5,0l-0.5,0.3l-0.4,0.7v0.8
			l0.3,0.5l1.5-0.8l1.1,0.1l1.1,0.4l1.1,0.2l0.8,0.4l1.5,1.9l1,0.7l-0.3,0.4l1.3,1.2l0.8,0.5l1,0.1l-1.1,0.6l-1.1-0.3l-1.1-0.7
			l-1-0.4v0.4l0.5,0.5l-0.1,0.4l-0.6,0.1l-1-0.8l-1.5-0.8l-0.5-0.1l-0.1-0.1v-0.3l0-0.4l0-0.3l-0.1-0.3l0-0.2l0-0.2l-0.2-0.4
			l-0.1,0.1l-1.7-0.5l-0.3,0l0.6,0.4l-0.7,1l-0.2,0.5l0,0.7l0.7-0.4l0.4,0.2l0.7,1.2l0.9,0.6l0,0.5l0.1,0.3l0.2,0.1l0.5-0.1
			l-0.4,0.9l-0.5,0l-0.9-0.7l-2.2-0.4l-0.6-0.4l-0.9-2.6l-0.1-0.6l-0.1-0.5l0.1-0.5l0.4-0.6l-1.4-2l-0.3-0.6l-0.2-0.2l-0.4-0.1
			l-0.3,0l-0.4,0.2l0,0.4l0,0.5l-0.1,0.4l-0.5,1.2l-0.4,1.7l0.1,1.6l0.9,0.7l1.2,0.6l0.2,0.5l-0.3,0.3h-0.5l-0.2-0.3l-0.2,0.3
			l-0.2,0.1L354,370l0.2,0.5l0.1,0.1l0.9,0.9l0.3,0.1l0.4,0l0.3-0.2l0.1-0.2l0.1-0.3l0.3,0.2l0.2,0.4v0.2l1.1,0.5l0.4,0.5l0.1,0.9
			l0.7-0.3l0.5-0.1l0.9,0l0.4,0.1h0.4l0.4-0.1l0.1-0.5l0.2-0.3l0.3-0.2h0.3l0.6,0.3h0.4l0.3-0.2l0.4-0.5l0.2-0.1l0.5,0.3l0,0.5
			l-0.4,0.6l-0.7,0.5l0.4,0.1l0.3,0.2l0.3,0.3l0.2,0.4l-1.1,0l-1.2,0.2l-0.9,0.7l-0.2,1.3l0.7-0.2l0.1,0.3l-0.2,0.7l0,0.7l-0.1,0.1
			l-0.1,0.3l0,0.3l0.5,0.1l0.7,0.1l0.3,0.1l0.2,0.2l0.2,0.5l-0.1,0.6l-0.6,1.1l-0.2,0.1l-0.2-0.1l-0.1,0l-0.1,0.9l-0.1,0.2l-0.2,0.3
			v0.3l1.2,0l0.6,0.1l0.4,0.4l0.1,0.6l-0.4,1.3l0.1,0.6l0.5,0.1l2.1-0.7l1.1,0.2v-0.6l0.1-0.5l1.1-3.6l0.2-0.4l0.5-0.4l1.3-0.3
			l0.4-0.2l0.2-0.5v-0.4l0.1-0.3l0.6-0.1l0.2,0.1l0.4,0.3l0.3,0.1l0.1-0.1l0.1-0.3l-0.1-0.2l-0.1-0.1l-0.7-0.2l0.6-0.6l1.7-1l-1-1.2
			l-0.2-0.7l1.4-0.5v-0.4l-0.3-0.6l-0.2-0.8l0.1-0.5l0.4-0.6l0.5-0.5l0.5-0.1l0.5,0.4l0.3,0.7l0,0.8l-0.2,0.7l0.2,1.1l-0.2,2.7
			l0.3,1l0.4,0.2l1.7,0.5l1.2,0.9l0.6,0.2l-0.2-0.7l0-0.6l0.2-0.5l0.4-0.5l1.2,0.6l0.4-0.4l-0.1-2.2l2.5-2.4l-0.3-0.7l0.2-0.6
			l0.4-0.5l0.3-0.4l0.1-0.6l0-0.6l0.1-0.5l0.4-0.2l0.5-0.2l0.6-0.3l0.9-0.7l1.6-1l0.4-0.3l0.8-1.1l0.5-0.4l0.5-0.2l1.1,0.2l0.5,0
			l0.7-0.2l0.6-0.8l0.9-2.3l0.6-1l1.1,1.8l0.8,0.7l1-0.4l0.8-0.6l0.3,0.4l0.2,0.9l0.6,0.9l-0.4,0.6l-0.6,1.3l-0.3,0.4l-0.7,0.3
			l-0.5-0.2l-0.4-0.5l-0.3-0.7l0.2-0.5l0-0.4l-0.3-0.3l-0.5-0.2l-1.3,1.4l-0.2,0.4l0,0.8l0.3,0.4l0.4,0.4l0.3,0.6v1.6l-0.7,0.9
			l-1.1,0.4l-1.3,0.1l0.7-1.6l0.2-0.9l0-0.9l-0.6,0.3l-0.3,0.4l-0.5,1.2l-0.9,1.2l-0.3,0.3l-1,0.6l-0.3,0.5l0.1,0.8l0.4,0.8l0.6,0.3
			l0.7,0.1l0.7,0.3l-0.1-0.2l-0.2-0.6l1.8-0.9l0.5-0.1l1.7,1.8l1.7,2.6l1,1.2l1-0.1l-0.6-0.6l0.6-0.5l1.1-0.3l0.9-0.1l0.4-0.5
			l1.9-3.2l-0.7-0.1l-2.3,0.1l-0.2-0.1l-0.4-0.6l-0.5-1.1l-0.1-0.2l0.2-0.4l0.6-0.4l0.7-0.3l0.6-0.1l0.7,0.2l2,1.3l0.5-0.1l0.9,0.1
			l0.8-0.1l0.5-0.6l-0.1-1.2l-0.8-0.7L406,368l0.3-0.1h0.8l0.5,0.1l-1-1.4l-1.4-0.9l-1.3-1.1l-0.6-2.2l0.1-0.1l0.2-0.1l0.1-0.2
			l-0.3-0.5l-0.4-0.2l-0.8,0.3l-0.4-0.3l0.2-0.8l1-0.5l1.9-0.6v-0.3l-0.9-0.3l-1.1-0.5l-0.6-0.5l0.7-0.2l1.9,0.1l0.9-0.1l1.5-0.5
			l0.2,0l0.1-0.1l0.3-0.4l0.8-1.9l0.2-0.1l0.1-0.2l0.2,0.1l0.2,0.2l0.1,0.3l0,0.3l-0.2,0.5l0,0.3l0.1,0.5l0.7,1.4l-0.1,0.2l-0.1,0.3
			v0.3l0.2,0.2l0.3,0h0.2l0.2,0.1l0.7,1.5l0.4,0.5l0.2,0.9l-0.4,1.1l-0.6,1.1l-0.3,1.2l0.2,1.2l0.5,0.8l0.8,0.4l1.1,0.1l0.7,0.8
			l0.4,0.2l0.2-0.4l-0.3-2.4l-0.2-0.8l-0.4-0.7l0.2-0.1l0.1-0.1l0.1,0l0.3,0.2l0.8-1.8l1,0.2l1.3,0.6l0.6-0.2l0,0.2l-0.2,0.2
			l0.1,0.1l0.3,0.4l0.4,0.2l0.5-0.4l-0.4-0.2l-0.2-0.1l-0.1-0.2l0.2-0.1v-0.1l-0.2-0.1l-0.1,0l0.8-0.3l0.4-0.6l0.5-2.7l0.5-1.5
			l0.1-0.8l0.1-1.1l-0.8,0.5l-0.8-0.1l-0.8-0.2l-1,0.1l-1.4,1.3l-0.5,0.4l-0.5-0.2l-0.5-0.7l-0.7-0.4l-0.8-1.1l-0.7-1.3l-0.4-1
			l-0.1-0.9l0.2-1.1l0.5-0.7l0.7,0.3l0.9,1.7l0.6,0.6l1-0.4l1.7-1.3l0.4-0.5l0.2-0.4l0.3-1l-0.1-0.3l-0.1-0.7l0.1-0.4l0.5,0.4
			l0.3,0.5l0.1,0.4l0.2,0.3l0.6,0.1l1.8,0l0.8,0.2l0.7,0.5l0.3-0.2l0.3-0.1l0.4,0.1l0.5,0.2l1.2-0.1l0.9-0.8l0.5-1.4l0.1-1.8
			l0.5,0.4l0.3,0.5l0.5,1.3l1.2-0.7l1.2,0l0.5-0.4l-0.8-1.9l1.1-0.1l0.7-0.7l0.6-1l0.7-0.8l-0.1,0.7l-0.2,0.5l-0.2,0.4l-0.1,0.3
			l-0.1,0.7l0.1,4l-0.1,0.4l-0.1,0.4l0,0.4l0.2,0.4l0.4,0.2l1,0.1l0.7,0.2l0.5-0.1l0.2,0.1l0.1,0.2v0.8l0.1,0.3l0.8,0.5l2.1-0.1
			l1,0.2l0-0.8l0.1-0.8l0.2-0.6l0.4-0.3l1,0.1l0.5,0.3l0.9,1.3l1-0.1l0.7-1.4l0.7-0.7l1,2l-1,0.4l-0.5,0.3l0.1,0.4l0.6,0.9l0.6,0.2
			l2.8,0.3l-0.2,0.4l-0.4,0.1l-0.4,0l0.7,1.3l1.2-0.6l1.1-1.5l0.6-1.1l-0.6-0.7L451,354l-0.3,0.4l-0.4,0.1l-0.4-0.4l0.3-2.2l0.1-1.1
			l0-0.4l-0.1-0.3l-0.3-0.5l-0.4-0.2l-0.2-0.3l0.3-0.5l0.6,0.2l0.9,0l0.9-0.2l0.6-0.3l0.4-0.7l-0.1-0.6l-0.2-0.7l-0.2-1l-0.8,0.1
			l-4.5,2.4v-0.4l0.5-0.5l0.1-0.7l0.3-0.7l1.8-0.5l1.5-0.8l0.8-0.2l-0.5-0.7l0-0.4l0.4-0.2l1.5-0.3l0.7,0l2.4,0.9l0.3,0.2l0.4,0.4
			l0.1,0.4l0,0.4l0.1,0.3l0.5,0.1h0.9l0.4-0.1l0.4-0.3l-0.3-0.1l-0.5-0.2l-0.3-0.1l0.2-0.7l-0.1-0.5l-0.7-1l-0.4-0.6l-0.2-0.5
			l-0.3-1.4l-0.6-1.2v-0.6l0.6-0.9l0.5-0.5l0.2,0.2l0.5,1.4l-0.2,0.4l0.4,1.1l-0.2,0.8l0.9-0.4l0.6,0.5l0.6,0.8l0.7,0.5l0-0.8
			l0.3-0.5l0.4-0.2l0.2,0.2v2.4l0.7-0.5l0.5,0.1l0.6,0.3l0.8,0.2l1.6-0.4l0.5,0.1l-0.4,1l1.9-0.6l1.5-0.3l0.8-0.3l0.6-0.4l0.2-0.2
			v-0.4l0.6,1.4l0.8-0.4l1-1.1l1-0.6l-0.2,0.8v0.7l0.2,1.1l-0.1,0.8l-0.2,0.7l-0.1,0.7l0.3,0.8l0.2-0.5l0.1-0.1l0.6,0.2l0-0.9
			l0.3-0.7l0.4-0.2l0.2,0.7h0.3l0.2-1l0.5-1.2l0.7-0.9l0.5-0.1l0.8,0.7l0.8,0.2l0.7-0.2l0.5-0.9l-0.2-0.2l-0.3-0.3l-0.2-0.4l0.4-0.5
			l0.5-0.2l0.5,0l0.5,0.1l0.6,0.1l0.8-0.3l0.8-0.7l1.3-1.6l0.9-1.9v-0.1l-1.3,1.9l-5.5-3.6l10-15l1.5,1l0.2-0.6l0.6,0.2l0.6,0.9
			l0.1,0.5l1.5,1l0.4-0.6l0.5-0.9l0.5-1.6l-4-2.7l5.3-8l0.1-0.6l0.8-1.7l0.9-3.5l0.3-3.9l0.1-0.6l1.7-3.8l0.1-1.3l-0.2-1.1l-0.3-1
			l-0.2-0.9l-0.4-0.4l-0.9,0.7l-2.9,3.1l-0.7,0.4l-1.1,0.1l-1-0.3l-0.8-0.8l-0.4-1.1l0.2-1.2l0.3-0.2l0.4-0.2l0.5-0.2l0.4-0.5
			l0.2-0.8l-0.2-0.3l-0.4-0.2l-0.3-1.4l-0.2-1.9l-0.2-0.3l-0.3-0.2l-0.3-0.5l-0.2-0.9l0.2-6.7l0.2-1.1l0.5-1l1.4-1.7l0.3-1l0.3-4.7
			l-0.2-2.3l-0.4-1.7l-0.7,0.5l-10-15l5.5-3.6l6.8,10.3l0.3-1.3l-0.1-2.3l-1.3-4l-3-4.5l2.1-1.4l-0.2-2l-0.3-1.6l-3.5,2.3l-10-15
			l5.5-3.6l6.4,9.6l-0.7-2.1l-0.6-4.2l-0.7-2l-2.2-2.4l-0.3-0.9l-0.2-0.9l-0.4-0.9l-1.2-1.5l-2.1-4l-0.6-0.6l-0.7-0.4l-0.6-1
			l-1.3-4.2l-0.5-1l-1.6-0.9l-0.3-1.2v-1.4l-0.1-1.1l-2.3-2.7l-0.5-0.4l-3.5-3.8l-2.9-4.2l-7.5-10.6l-0.6-1.7l-1.6-2l-0.5-0.9
			l-3.1-8.2l-3.9-7.8l-1.1-2.7l-0.4-1.8l-2.1-4.2l-0.1,0.1l-2.8,1.4l0.4,1.7l-0.1,0.6l-0.2,2.4l-0.8,2.4l-1.1,1.9l-1.3,1.8l-2.7,2.8
			l-3.3,2.1l-3.5,1.3l-3.4,0.3l-4.6-0.3l-3.1,0.7l-1.6-0.4l-1.2-1.2l-0.1-0.2l-7.4,0.7l-2.8,0.8l-1.7,0.2l-4.3-1.3l-5.5,0.4
			l-1.2-0.1l-2.4,0.3l-2.6,1.1L388,170l-2.1,1.8l-0.4,0.5L384,176l-1.2,1.4l-1.8,1.4l-0.5,0.5l-3.9,6l-2.4,1.9l-1.3,0.5l0.2,3.7
			l-1.5,2.7l0.1,0.5l0.4,0.9l0.2,0.8l-0.2,1.2l-0.8,2l2.6,1.9l0.8,0.9l-1.1-0.1l-1.7-0.7l-1.4-1.1V199l0.2-0.7l0.1-1l-0.1-1.1
			l-0.2-0.7l-0.6-0.4l-0.6,0.1l-0.7,0.3l-0.8,0.2l-2.4-0.9l-0.6,0.1l-0.2,0.8l0.6,4.6l0.5,1.8l0.8,1.1l1.1-0.2l0.1,0.3l0.1,0.1
			l0,0.1l-0.1,0.3l1.8,0.6l0.8,1.9l0.4,2.3l0.7,1.8l-0.8,0.3l-0.8-0.1l-0.7,0.1l-0.3,0.7l1.2,2.1l0.5,1.5l0.4,0.3l1.3,0.2l1.1,0.4
			l0.3-0.5l5.5,3.6l-1.3,1.9l1.1-0.3l-0.1,0.2l-0.1,0.7l-0.1,0.3l0.4,0.1l0.3,0.2l0.3,0.4l0.2,0.5l-1,0.1l-0.7-0.4l-0.6-0.1
			l-0.7,1.1l-0.2,1.2l-0.2,0.5l-0.5,0.2l-0.4-0.2l-0.2-0.5l0-0.1l-3.6,5.5v0.4l0.3,0.3l0.5,0l0.5-0.2l0.4-0.3l1.6-1.7l0.8-0.6
			l1.1-0.5l0,0.7l0,0.1l5-7.6l5.5,3.6l-6.7,10.1l0.3,0.6l0.6,1l0.2,1.1l-0.4-0.3l-0.4-0.2l-0.5,0l-0.5,0.1l0.4,0.3l0.2,0.1v0.3h-1.9
			l-0.6,1l0.4,0.8l1.6,1.5l0.3,0.2l9.8-14.8l5.5,3.6l-21.9,32.8l-5.5-3.6l10-15l0-0.2l-0.2-0.8l-0.3-0.5l-0.5,0.1l-0.8,1.1l-0.5,0.4
			l0.7-2.4l0-1l-11,16.6L363.6,256z M381.9,337.4l-10-15l5.5-3.6l10,15L381.9,337.4z M477.5,331.9l-5.5-3.6l10-15l5.5,3.6
			L477.5,331.9z M493.9,295.5l5.5,3.6l-10,15l-5.5-3.6L493.9,295.5z M477.5,226.3l10,15l-5.5,3.6l-10-15L477.5,226.3z M401,257.2
			c12.1-18.1,36.5-23,54.6-10.9c18.1,12.1,23,36.5,10.9,54.6c-12.1,18.1-36.5,23-54.6,10.9C393.8,299.8,389,275.4,401,257.2z"/>
		<polygon fill="#FFFFFF" points="281.9,193.1 282.1,193.1 282.3,192.8 282.6,192.7 283,192.7 283.3,192.5 283.5,192.1 283.6,191.5
			283.8,191 283.7,190.6 283.4,190.5 283.1,190.4 282.8,190.6 282.4,191.1 281.6,191.7 281.4,192.1 281.8,192.6 282,192.9
			281.9,192.9 		"/>
		<polygon fill="#FFFFFF" points="305.4,365.2 305.6,364.6 305.7,364.3 305.6,363.7 305.3,363.8 305.2,363.7 305,363.8 305,364.4
			304.5,365.4 304.4,365.3 304.1,365.4 304,365.6 304.1,365.9 304.1,366.2 304.4,366.6 304.5,366.3 304.7,366.1 304.9,366.1
			304.7,365.6 304.9,365.5 		"/>
		<polygon fill="#FFFFFF" points="301.6,399.6 301.8,399.7 301.9,399.8 302.1,399.8 302.2,399.6 302.2,399.2 301.6,397.8
			301.2,397.3 300.7,397.2 300.3,397.5 300.1,398.1 300.2,398.5 300.7,398.8 		"/>
		<polygon fill="#FFFFFF" points="463.7,356.7 463.9,356 464,355.4 463.9,354.5 463.8,354.4 463.3,354.7 462.4,355 463.2,353.1
			463.3,352.5 463.3,351.8 463.2,351.2 462.9,350.7 462.7,350.1 462.6,349.8 462.9,347.8 462.9,347.2 462.7,346.8 461.9,346.5
			461.2,347 461,348 461.5,349 458.4,350.8 457.8,350.7 457.9,351.6 458.1,352.5 458.5,353.3 459.4,353.9 459.4,354.2 458.5,354.1
			457.9,353.8 457.4,353.5 456.6,353.2 456.1,353.2 454.5,353.5 453.9,353.7 453.2,354.2 452.6,354.8 452.3,355.4 452.5,356.4
			453,357.2 453.6,357.9 454.1,358.7 454.9,358.1 456.4,357.4 456.9,356.8 457.5,357.2 457.3,358.2 457.3,359 457,359.6
			455.8,359.8 455.6,360.1 455.5,360.7 455.7,361.4 456.1,361.6 457.5,360.9 457.3,361.7 457.3,362.4 457.5,362.9 458.2,363.2
			456.6,364.3 457.6,364.2 460.8,363.2 461.5,362.6 461.2,362.2 460.4,361.9 459.9,361.5 460.1,360.7 460.9,359.9 461.1,359.5
			461.2,358.7 461.7,359.1 462.5,359.5 463.3,359.8 463.7,359.6 463.6,358.8 463,357.6 462.7,356.8 463.3,357.1 		"/>
		<polygon fill="#FFFFFF" points="451.4,361 451.5,361.3 451.7,361.3 452.4,361.4 452.9,361.2 453.2,360.7 453,360.2 452.7,360.1
			452.5,359.7 452.2,358.7 452,358.6 452,358.5 452,358.3 451.8,358.2 451.5,358.6 451.5,358.9 451.6,359.1 451.6,359.3
			451.5,359.5 451.3,359.3 451.2,359 451.1,359.1 451.1,359.9 451.5,360.5 451.5,360.8 451.4,360.9 		"/>
		<polygon fill="#FFFFFF" points="452.4,362.8 453.3,362.8 453.3,362.7 452.7,362.1 452.3,361.9 451.6,362.2 451.4,362.4
			452.2,362.7 		"/>
		<polygon fill="#FFFFFF" points="356,223.4 355.7,223.5 355.4,223.5 353.7,223 353.5,223.1 353.4,223.3 353.5,223.4 354.1,223.9
			354.4,223.9 354.8,224.2 355.3,224.3 355.8,224.2 356.1,223.7 		"/>
		<polygon fill="#FFFFFF" points="455.9,367.8 455.6,368 455.6,368.2 455.8,368.3 456.2,368.1 456.6,367.9 456.6,367.6 456.4,367.5
			456.3,367.3 		"/>
		<polygon fill="#FFFFFF" points="309.1,378 308.8,378.4 308.6,378.7 308.7,378.9 309.3,378.5 309.3,378.2 309.3,378.1 		"/>
		<polygon fill="#FFFFFF" points="466.8,347.1 467.1,347.5 467.3,348.4 467.5,348.7 467.7,348.6 468,348.2 468.2,347 468.2,345.7
			467.9,345 467.5,344.9 466.9,344.9 466.5,345.2 466.3,345.6 466.6,346 466.7,346.4 466.7,346.8 		"/>
		<path fill="#C60C30" d="M406.5,284.6c9.1,6,21.3,3.6,27.3-5.5c6-9.1,18.3-11.5,27.3-5.5c9.1,6,11.5,18.3,5.5,27.3
			c12.1-18.1,7.2-42.6-10.9-54.6c-18.1-12.1-42.6-7.2-54.6,10.9C395,266.3,397.4,278.5,406.5,284.6z"/>
		<path fill="#003478" d="M412,311.9c18.1,12.1,42.6,7.2,54.6-10.9c6-9.1,3.6-21.3-5.5-27.3c-9.1-6-21.3-3.6-27.3,5.5
			c-6,9.1-18.3,11.5-27.3,5.5s-11.5-18.3-5.5-27.3C389,275.4,393.8,299.8,412,311.9z"/>
		<polygon points="369.2,225 368.9,225.4 369.1,225.9 369.8,226.2 369.6,225.2 		"/>
		<polygon points="360.8,235.5 360.9,235.3 360.8,234.8 360.7,234.8 360.2,235.7 		"/>
		<polygon points="368.3,225 368.6,224.5 368.5,224 368.4,223.7 368.2,223.6 366.1,226.7 		"/>
		<polygon points="366.4,236.9 365.5,235.8 364.9,235.3 364.1,234.9 363.3,234.9 364.2,235.8 364.8,238 365.6,238.4 366.2,238.5
			366.8,237.5 		"/>
		<polygon points="373.7,215.4 373.4,215.8 374,216 374.5,216.3 374.6,217.5 373.3,218.4 372.7,219 374.7,219.2 375,219.4
			375.7,220.7 376.2,221.1 377,221.2 377.9,220.9 379.2,219 		"/>
		<polygon points="496.1,318.6 496.3,318 496.5,316.8 496.5,315.5 496.4,314.9 496,313.9 495.9,313.3 496,312.7 496.8,311.2
			497.4,308 492.1,316 		"/>
		<rect x="376.3" y="319" transform="matrix(0.8321 -0.5547 0.5547 0.8321 -118.2076 265.6727)" width="6.6" height="18.1"/>
		<polygon points="373.7,262.7 395.6,229.9 390.1,226.3 380.3,241 381.8,241.9 383.3,242.2 384.3,241.8 384.6,241.4 384.5,239.7
			384.9,239.1 387.6,238.4 387.5,239 387.2,239.2 386.7,239.3 386.1,239.6 385.9,239.6 385.7,239.6 385.4,239.9 385.5,240
			385.9,240.4 386,240.7 385.7,242 385.2,242.6 384.5,242.9 383.1,244 381.1,244.7 380.3,244.9 379.4,245.3 379.9,246.2
			381.4,247.9 380.5,247.8 379.6,247.5 379.9,248.9 379.7,249.7 379.3,250.5 379,251.7 378.6,251.6 378.4,251.4 378.2,251
			378.1,250.6 378.8,250.3 378.9,249.8 378.6,248.1 378.2,247.4 378.1,247 378.1,246.5 378.3,245.8 378.4,245.5 378.3,244
			368.2,259.1 		"/>
		<polygon points="483.9,247.7 493.9,262.7 494.6,262.2 494.4,261.6 494.2,259.4 495,257.1 496,255.2 496.2,254.3 489.4,244 		"/>
		<polygon points="480.2,224.5 490.3,239.5 493.8,237.2 493.7,237 493.8,236.5 494,235.9 494.4,235.2 494.7,234.6 494.6,234.1
			493.5,232.5 492.2,230.7 492.1,230.5 485.7,220.8 		"/>
		<polygon points="495.1,246.7 494.9,246 494.5,243.7 494.2,240.8 492.1,242.2 		"/>
		<polygon points="381.9,220.8 376.9,228.4 377.1,228.8 377.5,229 378.1,229.2 379,228.3 379.6,228 379.9,228.2 379.8,229.2
			379.6,229.6 378.4,229.9 377.3,230.5 376.8,230.7 376.1,230.7 375.7,231.1 375.3,233.4 376.2,233.4 375.9,234 375.1,234.7
			374.7,235.3 376.8,235.9 377.6,235.7 378.4,234.5 378.5,235.5 378.9,235.9 379.4,235.7 379.6,234.7 379.7,233.8 379.9,232.9
			380.3,232.4 380.8,232.7 380.4,234.1 380.6,234.6 387.4,224.5 		"/>
		<polygon points="361.8,245.1 361.8,242.9 361.9,242.6 362.3,242.1 362.4,242 362.3,241.6 362.1,241.2 362.1,240.9 361.9,240.4
			361.5,240.4 360.9,240.7 360.6,241 360.3,240.1 360.5,239.5 361,239 361.2,238.6 360.9,237.8 360.1,237.6 358.9,237.6
			358.5,238.2 358.6,238.4 358.4,238.6 358.2,238.6 357.7,239.3 357.8,239.4 357.5,240.3 357.2,240.1 356.8,240.6 357.2,241
			357.8,241.3 358.9,241.3 359.3,241.4 359.7,242.3 359.5,243.6 358.9,244.6 357.8,244.9 357.8,245.2 358.6,245.6 359,245.6
			359,246 358.1,246.2 357.6,246.4 357.5,246.6 357.3,247.2 356.8,246.9 356.1,246 355.6,246.5 356,247.8 356.9,249.8 355.6,248.9
			355,248.9 354.3,249.6 354.2,249.7 357.3,251.8 		"/>
		<polygon points="360.5,253.9 360.5,253.8 360.7,253.4 361.4,253.1 362,252.4 362.4,252.1 362.5,252.6 362.7,252.9 363.3,253.6
			362.4,254.2 362.8,255.1 363.6,256 365.5,257.2 376.6,240.7 376.6,240.5 375.6,239.5 374.8,239.6 373.4,240.8 373.2,240.5
			373,239.8 372.4,239 372.3,238.6 372.1,238.3 371.8,238.9 371.5,240.1 371.1,240.4 370.6,240.9 370.2,241.2 370,241.7
			369.8,242.2 369.6,242.6 369.2,242.9 369.3,242 369.3,241.5 368.8,240.7 368.8,240.5 366.9,243.3 367,243.4 367,243.7
			366.7,243.7 360,253.6 		"/>
		<polygon points="353.7,249.3 353.6,249 353.5,248.5 353.7,248.3 354.5,247.8 354.7,247.5 354.7,247.3 354.4,246.5 354.4,246
			354.7,245.5 355.1,245 355.4,244.5 355,243.4 351.9,248.1 		"/>
		<rect x="470.8" y="319.3" transform="matrix(0.5547 -0.832 0.832 0.5547 -54.7537 542.8512)" width="18.1" height="6.6"/>
		<rect x="476.5" y="226.6" transform="matrix(0.8321 -0.5547 0.5547 0.8321 -50.118 305.7113)" width="6.6" height="18.1"/>
		<rect x="482.6" y="301.5" transform="matrix(0.5547 -0.832 0.832 0.5547 -34.7077 544.7955)" width="18.1" height="6.6"/>
		<polygon points="493.5,321.5 493.8,322.5 494.4,322.1 494.7,321.7 493.3,320.7 		"/>
		<polygon points="375.2,224.4 375.3,223.8 374.6,224.1 374,223.9 373.4,223.6 372.7,223.4 371.8,223.6 371.3,223.6 371,223.4
			370.7,223.7 370.6,223.7 370.4,223.8 370.8,224.5 371.1,225.2 371.3,225.8 371.8,226.1 373,225.9 373.1,226.1 372.5,226.8
			372.1,227.1 371.5,227.3 370.9,227.6 370.7,228.2 370.8,229 371.2,229.1 372.5,228.8 371.9,229.7 371.6,230.2 371.6,230.3
			375.3,224.9 		"/>
		<polygon points="364.1,240.9 363.9,241.2 363.8,242.1 364.4,241.1 		"/>
		<polygon points="362.1,315.5 363.5,316.2 363.8,316.1 362.4,314 		"/>
		<polygon points="365.1,239.3 364.7,239 364,238.1 363.5,237.6 363.1,237.6 363,238.2 363.2,238.4 365,240.3 365.5,239.5 		"/>
		<polygon points="361.1,304.2 361.2,304 361.3,303.7 361,304 		"/>
		<polygon points="377.4,237.6 378,238.5 378.6,237.6 		"/>
		<polygon points="368.7,298.8 368.9,299.3 370.7,298.8 372.6,299.8 373.7,299.8 376,298.9 373.7,295.5 		"/>
		<polygon points="370.1,307.8 368.9,308.1 364.7,311.6 367.6,315.9 370.2,315.7 370.9,316.1 371.3,317 371.8,318.5 375.5,316 		"/>
		<polygon points="371.3,318.8 370.5,317.9 369.8,317.6 369.1,317.8 369,317.9 370.1,319.6 		"/>
		<polygon points="379.2,339.2 369.2,324.2 369.2,324.2 367.3,321.4 365.9,319.3 364.7,319.6 363.5,320.3 362.4,321.4 360.9,323.6
			373.7,342.8 		"/>
		<polygon points="480.2,333.7 485.7,337.4 487,335.4 487,335.2 486.7,334.8 486.7,334.5 486.9,334.2 487.5,333.7 487.6,333.5
			487.8,332.2 488.3,331.4 490.1,330.3 491.1,329.3 491.8,328.2 491.9,328.1 491.5,327.7 491.3,327.5 491.5,327 491.9,326
			491.8,325.4 491.3,324 491.3,323.6 491.6,323.2 492.2,323.2 492.6,323 492.8,322.3 492.8,321.5 492.6,320.8 492.2,320.4
			491.6,320.2 491.8,319.7 490.3,318.7 		"/>
		<polygon points="361.5,303.8 361.6,303.9 362.1,303.8 362.2,303.9 362.3,303.8 362.6,303.6 362.3,303.5 362,303.3 361.5,303.6
			"/>
		<polygon points="379.3,315.7 390.1,331.9 395.6,328.3 377.1,300.6 377,300.8 376.6,301 376.1,301.1 373.6,300.9 373.2,301
			372.8,301.3 372.4,301.8 372.3,302.3 372.7,302.5 373.6,302.7 374.6,303.1 375.6,303.8 376.2,304.4 376.3,305 376.2,305.6
			376.1,306.2 375.9,306.7 375.4,305.9 374.7,305.7 373,305.9 372.8,306 378.3,314.2 		"/>
	</g>
	<path fill="none" stroke="#999999" stroke-width="0.25" stroke-linecap="round" stroke-linejoin="round" d="M284.6,183.5l-0.5-0.6
		l-1.3-0.5l-2.5,0.9l-1.1-0.4l-0.5,2l1.4,1.2l1.8,0.2l0.9-0.7l-0.2-0.2l-0.5-0.1l-0.4-0.2l0-0.6l0.2-0.1l1.1-0.1l0.9,0.5l0.6-0.4
		L284.6,183.5z M560.5,207.4l-0.6,0.1l-1,0.4l-1.6,0.2l-0.8,0.5l-0.4,0.9l0.2,1.1l0.7,0.9l1.1,0.7l1.1,0.2l0.8-0.4l0.5-1.1l0.5-1.6
		l0.1-1.4L560.5,207.4z M383.8,428.3l0-0.1l-0.2-0.2l-0.2-0.1l-0.1,0.1l-0.3,0.9v0.4l0.2,0.2l0.5,0.1l0.4-0.2l-0.1-0.7L383.8,428.3z
		 M383.1,430.5l-0.3,0.2l-0.2,0.3l-0.4-0.6l-0.4-1.6l-0.7-0.7l-2.2-0.9l-0.7-0.5l-0.9-0.5h-1l-2.1,0.4l-3.6,0l-0.7,0.1l-1.7,1
		l-4.6,0.8l-7.1,2.3l-1.6,0.8l-0.8,0.5l-2.5,2.6l-1.6,0.9l-0.5,0.5l-0.8,1.3l-0.8,2.2l0.5,1.7l1.2,1.4l2.4,2.1l0.7,0.4l0.7-0.1
		l1.6-1.4l0.8-0.2l9.6-0.1l3-0.9l1.7-0.3l5.8-2.1l0.8-0.6l0.4-0.2l1.1-0.1l0.5-0.2l0.2-0.3l0.9-1.5l1.3-1.6l0.6-0.9l0.2-0.9l0.1-0.2
		l0.4-0.5l0.1-0.3v-0.3l-0.3-0.5l0-0.3l0.3-0.4l0.4-0.1l0.2-0.2l-0.3-0.7L383.1,430.5z M285.2,194.4l-0.6,0l-0.1,0.2v0.1l-0.3,0.2
		l-0.2,0.6l0.4-0.2l0.3-0.3l0.3-0.1l0.4,0.1l0.3,0l0.1-0.3l-0.2-0.2L285.2,194.4z M351.3,197.8l0.4,0l-0.3-0.3l-0.5,0l-0.3,0.1
		l0.6,0.4L351.3,197.8z M346.9,199.8l0.2,0.1l0.1-0.4l-0.5-0.2l-0.3,0.1l0.1,0.3L346.9,199.8z M327.8,203.7l-0.1,0.5l0.3-0.1
		l0.3-0.3l-0.1-0.3L327.8,203.7z M361.5,211.9l0.2-0.4l0-0.3l0.2-0.2l-0.1-0.8l-0.8-0.1l-0.2,0l0.1,0.5l0.4,0.3l-0.1,0.7
		L361.5,211.9z M369.6,225.2l-0.4-0.2l-0.3,0.4l0.2,0.5l0.7,0.3L369.6,225.2z M345.1,228.8h0.6l0.1-0.2l0-0.2v-0.2l0.1-0.2l-0.2-0.1
		l-0.1,0.1l-0.3-0.4l-0.5,0l-0.1,0.3l0.1,0.5L345.1,228.8z M352.5,228.7h0.3l0.2,0.4l0.4,0.2l-0.2-0.4l-0.2-0.2l-0.1-0.5l-0.4-0.3
		l-0.2,0.3l-0.4,0l0.2,0.5L352.5,228.7z M357.9,232.2l0.2,0.1l0.3,0.3l-0.2-1l-0.3,0V232.2z M344.1,232.8l-0.4,0.4l0.2,0.2h0.2
		l0.1,0l0.4-1.4l-0.9,0.2l-0.2,0.4l0.2-0.1L344.1,232.8z M338.4,234.2l0.2,0.1l0.1-0.2l0.1-0.3l0-0.4l0.3,0.1h0.3V233l-0.6-0.2
		l-0.1-0.1l-0.1,0.2l0,0.4l-0.2,0.2l0,0.4l0.2,0.2V234.2z M340.3,236.6l0.2,0.3l0.7-0.1l0.2-0.4h-0.1l-0.3,0.2l-0.3-0.1l-0.4-0.2
		l0.1-0.2l-0.3-0.4h-0.4l0.2,0.8L340.3,236.6z M344,256.3l0.2,0.1l0.2-0.1l0.1-0.3l0.1-0.5l-0.1-0.2l-0.2,0l-0.2,0.5l-0.4,0.1
		l-0.6,0.2l-0.2,0.2l0.3,0.3L344,256.3z M357.3,274.9l-0.3-0.4l-0.1-0.6l-0.2-0.1l-0.2,0.5l-0.3,0.3l-0.2,0.6l0.1,0.1l0.4-0.2
		l0.4,0.3l0.1,0l0.2-0.3L357.3,274.9z M345.1,281.1l-0.2-0.4l-0.6-0.1l-0.2,0l0,0.2l-0.2,0.1l-0.2,0.4l0.5,0.1L345.1,281.1z
		 M339.9,287.6l0.3-0.2l-0.1-0.4l0.2-0.1l0.3,0.4l-0.2-0.6l-0.6-0.2l-0.4,0.4l0.1,0.4L339.9,287.6z M357.4,302.1l0.5-0.2l-0.1-0.3
		l-0.3,0.1l-0.3,0l0,0.1l-0.1,0.1H357l0.1,0.2L357.4,302.1z M361.6,303.9l0.5,0l0.1,0.1l0.1-0.1l0.3-0.2l-0.3-0.1l-0.4-0.3l-0.4-0.1
		l-0.2-0.3l-0.6-0.1l0,0.3l0.1,0.2l0.1,0.2v0.4l0.2,0.3l0.1-0.2l0.2-0.4l0-0.3l0.1,0.2l0,0.3L361.6,303.9z M369.6,304.9l-0.3-0.5
		l-0.5,0.4l-0.1,0.6l0.2,0.2l0.5-0.4L369.6,304.9z M341.2,328.9l0.2,0.1l0.2,0.1l0.1,0.2l-0.1,0l-0.2-0.1l-0.2,0.1l-0.1,0.1l0.1,0.2
		l0.3,0.2l-0.1,0.3l0.5-0.2l0.2,0l0.1-0.1l0.3-0.2l-0.1-0.4l-0.1-0.2l-0.2-0.1l-0.1-0.2l-0.3-0.3l-0.4,0.3L341.2,328.9z
		 M347.1,333.6l0.4-0.3l0.2-0.1l-0.1-0.2l-0.1-0.5l-0.2-0.2L347,332l-0.1,0.2l-0.1,0.2l-0.2,0.2v0.2l0.1,0.2l0.2,0.4L347.1,333.6z
		 M341.8,344l0.1,0.2l0-1l-0.2-0.4l-0.3,0l-0.2,0.1l0,0.5l0.2,0.4L341.8,344z M352.7,348.4l-0.1-0.2l-0.4-0.3l-0.3-0.1l-0.2,0.1
		l0.3,0.3l0,0.7l-0.1,0.3l-0.2,0.2h0.3l0.2,0.2l0.2-0.2l0.4,0l0-0.3l0-0.5L352.7,348.4z M350.6,349.1l-0.3,0.1l-0.3,0.2l-0.2,0.5
		l0.1,0.3l0.2,0.4l0.2,0.1l0.1-0.7l0.1-0.4l0-0.1l0.1-0.2L350.6,349.1z M353.8,350.4l-0.4-0.2l-0.2-0.2l-0.2,0v0.2l-0.3-0.1l-0.2,0
		l0.3,0.4l0.2,0.5l0.1,0.2l0.2,0.6l0.7,0.2l0.2-0.3l-0.2-0.5L353.8,350.4z M405.6,360.3l0.3,0.1l0.1,0l0.1-0.3l0.3-0.2l0.2-0.1
		l0-0.2l0.1-0.4l-0.4,0.3l-0.4-0.1l-0.2,0.1l-0.1,0.2l0,0.4l-0.2,0.2L405.6,360.3z M355.3,360.5l0.2-0.3l-0.2-0.2l-0.1-0.2l-0.2-0.1
		l-0.2,0.2l-0.4,0.2l0.4,1.1l0.2,0l0-0.3l-0.1-0.1l0-0.2L355.3,360.5z M305.3,363.8l-0.1-0.1l-0.1,0.1l0,0.5l-0.5,1l-0.1-0.1
		l-0.2,0.1l-0.1,0.1l0.1,0.4l-0.1,0.2l0.3,0.4l0.1-0.3l0.2-0.1l0.2-0.1l-0.1-0.4l0.2-0.1l0.4-0.3l0.3-0.6l0-0.3l0-0.6L305.3,363.8z
		 M345.1,364.4l0.4,0.3l0.2-0.3v-0.7l-0.5,0.3L345.1,364.4z M312.3,365.8l0.4,0.5l0.2-0.3l0.2-0.2l-0.3-0.2L312.3,365.8z M317.1,367
		h-0.2l-0.1,0.2l-0.2,0.1l-0.1,0.3l0.2,0.2l0.2,0.2l0.3-0.3l0.3-0.4l0.1-0.3h-0.4L317.1,367z M339.5,368.1l-0.1-0.4l-0.3-0.1h-0.2
		l-0.3,0.3l-0.2,0.1l0.2,0.5l0.4,0.1l0.2-0.1l0.2,0.3l0.4,0.2v-0.5l-0.1-0.3L339.5,368.1z M410.3,368.9l-0.4,0.2l-0.2,0.2l-0.2-0.1
		l-0.2-0.2l-0.2,0.4l0.1,0.3l0.4,0.1l0.2-0.3l0,0.4l0.2,0.4l0.3,0.1l0.1-0.2l0.1-0.2l0.3-0.1l0.2-0.1v-0.3l-0.3-0.3L410.3,368.9z
		 M390.5,369.7l-0.3-0.3l-0.1-0.1l-0.2,0l-0.1,0.1l0.3,0.7l0.2-0.1L390.5,369.7z M403.9,371.3l0.1-0.2L403.9,371.3L403.9,371.3z
		 M403.8,371.4L403.8,371.4L403.8,371.4L403.8,371.4z M403.8,371.6l0-0.2l-0.4,0.6L403.8,371.6z M391.3,375.1l0.3-0.4l0-0.5
		l-0.3-0.1l-0.1,0.5l-0.2,0.1l-0.1-0.3l-0.3-0.1l-0.1,0.2h-0.3l0,0.4l0.3,0.1l0.2,0.3L391.3,375.1z M359.1,377.5l0.2,0.1l0.1,0
		l-0.1-0.5L359.1,377.5z M359.4,377.9l0.1,0.2l-0.1-0.4l0,0.1V377.9z M309.3,378.2v-0.2l-0.2-0.1l-0.3,0.4l-0.1,0.3l0.1,0.2l0.6-0.5
		L309.3,378.2z M309.7,381.1l-0.2-0.2l-0.4-0.1l-0.3,0.1l0.1,0.2l0.4,0.7l0.3-0.3l0.2,0.1l0.3,0l0.2-0.1l-0.2-0.1L309.7,381.1z
		 M362.1,384.2l0.1-0.3l-0.2-0.1l-0.2-0.1l-0.1,0.3l0.2,0.3l0.2,0.1V384.2z M403,387l0.1,0.4l0.1-0.1l0.2-0.1l0.1,0l0.1-0.1l0-0.7
		l-0.6,0L403,387z M401.8,386.6l-0.3,0.2l-0.1-0.4l-0.1,1.5l0.6-0.7l0.1-0.3l0.2-0.1l-0.1-0.2L401.8,386.6z M365.4,387.1L365,387
		v0.5l0.4-0.1l0.4,0.1l0.2-0.1l0.4-0.2l-0.3-0.2L365.4,387.1z M409.2,387.9l0.4,0.4l0.2-0.1v-0.4l-0.2-0.1L409.2,387.9z
		 M337.5,388.4l-0.4-0.1l-0.4,0.2l-0.3,0.5l0,0.2l0.1,0l0.3,0.2l0.2,0.2l0-0.1l-0.1-0.2l0-0.1l0.1-0.1l0.2,0l0.1-0.1l0,0.3l0.1,0.2
		l0.1-0.1L337.5,388.4z M343.7,388.8l-0.2,0l-0.2-0.2l-0.2,0.2l0.1,0.3l-0.3,0.2l-0.1,0.2l-0.2-0.2l-0.2,0h-0.2l-0.3,0.3l0.3,0.1
		l0.2,0.1l0.2,0.4l0.2-0.5l0.3,0.3l0.3,0.1l0.2-0.5l0.1-0.3l0.2,0l-0.2-0.2L343.7,388.8z M368.1,389.6l0.2,0.1l0.3-0.3l0.2,0
		l-0.2-0.5l-0.4-0.2l-0.2,0l-0.1,0.1l-0.1-0.1l0,0.2l-0.4,0.3l0.3,0.5L368.1,389.6z M338.3,389.1L338,389l-0.2,0.2l-0.1,0.3
		l-0.2-0.1l0.1,0.3v0.3l0.1,0l0.2-0.1l0.1,0.1l0.3-0.1l0.5-0.5l-0.4-0.2L338.3,389.1z M374.5,392.4l0.3,0.5l0.1-0.4l0.3-0.4l0.1-0.3
		v-0.2l-0.1-0.2l-0.2-0.5l-0.7,0.5l0,0.3l-0.1,0.4L374.5,392.4z M366.9,396.9l0.1,0l0.5,0l0.3,0.2l0-0.1l-0.1-0.4l-0.3-0.5l-0.3-0.1
		l-0.1,0.1l0.1,0.3l-0.1,0.1L366.9,396.9z M381.7,403.9l1-0.2l-0.4-0.8l-0.3,0l-0.4,0.2l0.1,0.6L381.7,403.9z M355.4,404.8l-0.4-0.1
		l-0.5,0.1l0.2,0.4l0.4,0.7l0.2,0.2l0.2-0.1l0-0.4l0.1-0.4h0.4l0.1-0.1l0.1,0l0-0.3l0.1-0.2L355.4,404.8z M455.5,344.9l-0.3-0.4
		l-0.6,0.1l0.3,0.4l0.5,0.5L455.5,344.9z M454.3,349.8l-0.9,0.5l0.2,0.4l-0.2,0.5l0.1,0.5l0.1,0.7l0.2-0.1l0.3-0.2l0.1-0.3l-0.2-0.1
		l0.2-0.1v-0.4l-0.2-0.2l0.4-0.7L454.3,349.8z M436.1,357.1l0.4,0.7h0.1l0.2-0.1l0-0.4l-0.1-0.2L436.1,357.1z M444.2,361.7l-0.2-0.2
		l-0.5-0.3l-0.2,0.1l-0.1,0.2l0.2,0.5l0.2,0.1l0.3,0.1l0-0.2l0-0.2L444.2,361.7z M439.2,364.2l-0.5-0.1l-0.4-0.1l-0.3,0.4l0.3,0.5
		l0.4,0.2l0.5,0.1l0.1,0.2h0.1l0.3-0.3l0-0.2L439.2,364.2z M441.1,366.2l0.2,0.1l0.4-0.1l0.2-0.3l-0.2-0.1l-0.2,0l-0.2,0l-0.2,0.2
		l-0.2-0.1l-0.2,0.2l-0.3-0.3l0.1,0.4l0.3,0.1L441.1,366.2z M446.9,367.6l-0.7-0.6l-0.5-0.5l-0.1,0.2l0.2,0.3l0.2,0.1l0.1,0.2
		l-0.2,0l-0.1,0.2l0.3,0.5l0.5-0.1h0.2l0.5,0.3l0.2-0.3l-0.3-0.2L446.9,367.6z M456.3,367.3l-0.4,0.5l-0.3,0.2l0,0.2l0.2,0.1
		l0.4-0.2l0.4-0.3v-0.2l-0.2-0.1L456.3,367.3z M400.5,400.1l-0.2-0.1l0-0.3l-0.1-0.4l-0.1-0.2l-0.2,0.2l-0.3-0.1l-0.2-0.1l-0.1,0.4
		l0.3,0.5l0.2,0.4l0.5,0.2h0.1l0.1-0.1v-0.1l-0.1-0.1L400.5,400.1z M348.5,200.6h0.3l0.7,0.7l0.4,0l0.1-0.3l-0.2-0.7l-0.3-0.5
		l-1.7,0.6l0.3,0.3L348.5,200.6z M352.2,201.4l-1.2,0.1v0.2l0.5,0.7l0.7,0.5l0.2-0.1l-0.2-0.2l-0.1-0.1l0.1-0.8L352.2,201.4z
		 M358,208.2l-0.2-0.2l-1.3,0l-0.6-0.7l-0.7-0.4h-0.2l-0.1,0.1l0.4,0.6l0.3,0.8l0.2,0.2l0.3-0.1l1.4,0L358,208.2z M361.8,207.8
		l-0.4-0.1l-0.3,0.2l-0.1,0.2l-0.4,0.2l-0.4,0.4l0.2,0.2l1.3,0.4l0.2-0.1l0.1-0.3l0.1-0.9L361.8,207.8z M358.9,216.3l0.4,1.2h0.6
		l0.5-0.3l0.1-0.4v-0.3l-0.2-0.2l-0.2-0.2l-0.5-0.7l-0.4-0.3l-0.3,0.1l-0.2,0.5l0,0.4L358.9,216.3z M355.7,223.5l-0.3,0l-1.7-0.6
		l-0.2,0.1l-0.1,0.2l0.1,0.2l0.7,0.5h0.3l0.4,0.2l0.4,0.2l0.5-0.1l0.3-0.5l-0.1-0.3L355.7,223.5z M359.8,235.6l0.2,0.1l0.7-0.2
		l0.1-0.2l-0.1-0.5l-1.1-0.3l-0.1,0.3l0.1,0.4L359.8,235.6z M360.6,273.3l-0.2-0.3l-0.2-0.6l-0.2-0.2l-0.2,0l-0.5,0.1l-0.1,0.3
		l-0.2,0.1l-0.3-0.2l-0.3-0.1h-0.3l-0.1,0.3l0.2,0.3l2.8,0.8l0.3-0.2l0-0.2L360.6,273.3z M346.3,347.3l-0.2,0.1l-0.2,0.2l-0.1,0.2
		l-0.1,0.1l-0.4,0.1l-0.2,0.1l0.1,0.2l0.3,0.2l0.3-0.1l0.2,0.1l1.2,0l0.3-0.1l0.2,0l-0.1,0.2l-0.5,0.2l-0.1,1.1l-0.3,0.7l-0.1,0.4
		l0.1,0l0.1-0.1l0.6-0.1l0.1-0.1l-0.1-0.3l0.1-0.3l0.8-0.2l0.6-0.5l0.1-0.7l-0.1-0.3l-0.3-0.2l-0.3-0.2l-0.1-0.3l0-0.3l-0.1-0.1
		l-0.2-0.1l-0.1-0.1l-0.1-0.1l-0.2,0l-0.2-0.1l-0.4-0.1l-0.3,0.1L346.3,347.3z M457.8,349.1l0,0.4l0.1,0.1l0.2-0.2l0.2,0l0.2,0.2
		l0.1,0.2l0.6-0.5l0.1-0.6l0-0.5l0.1-0.5l0-0.6l-0.2,0l-0.2,0.3l-0.2,0.1l-0.2,0.1v0.4l-0.2,0.2l-0.4,0.2l0.1,0.2l0.1,0.1l-0.1,0.2
		L457.8,349.1z M418.5,353.9l-0.2,0.1l-0.4-0.2l-0.5,0.1l-0.5,0.3l-0.2,0.4l0.1,0.2l0.4,0.4l0.4,0.1l0.5-0.1l1-1.1l-0.2-0.2
		L418.5,353.9z M439.2,357.3l0.7-0.5l0.6-0.1l0-0.3l-1.9-0.4l-0.5,0.2l-0.2,0.4l0.8,1.1L439.2,357.3z M451.4,361l0.1,0.2l0.2,0.1
		l0.7,0.1l0.5-0.3l0.3-0.5l-0.2-0.5l-0.4-0.1l-0.2-0.3l-0.3-1.1l-0.2,0l-0.1-0.1v-0.3l-0.2,0l-0.3,0.3v0.4l0.1,0.2l0,0.2l-0.1,0.2
		l-0.2-0.2l-0.1-0.3l-0.1,0.1l0.1,0.8l0.3,0.7l0.1,0.2l-0.1,0.2L451.4,361z M454.4,361.4l-0.9-0.4l-0.3,0.2l0.2,0.2l1,0.2l0.4,0.2
		l0.4,0.1l0.3-0.1v-0.3l-0.4-0.2L454.4,361.4z M452.3,361.9l-0.7,0.2l-0.2,0.2l0.7,0.4l0.3,0.1h0.8l0.1-0.1l-0.7-0.6L452.3,361.9z
		 M346.5,369.2l0.2,0l0.3-0.2l0.2-0.1h0.3l0.1,0l0.1-0.2l0.3-0.1l0.4,0.1h0.3l0.3-0.3l0.8-0.4l-0.1-0.2l-0.5,0l-0.1-0.7l-0.5-0.5
		l-0.7,0.5l-0.1-0.2l0.2-0.4l0-0.3l-0.3-0.1l-0.2,0l-0.8,0.6l-0.2,0.2l-0.3,0.1l-0.2,0.2l0.2,0.2l0.3,0.2l-0.1,1.4L346.5,369.2z
		 M442.8,368.2h-0.2v-0.4l-1.4-0.7l-0.3,0.1l-0.2,0.2l0,0.3l-0.1,0.3l0,0.3l0.2,0.1l0.2,0.1l0.2,0.2l0,0.3l-0.1,0.4l0,0.2l0.3-0.1
		l0.3-0.2l0.5-0.2l0.4-0.1l0.4,0.1l0.3-0.1l0.2-0.1l0.4-0.5l0.1-0.3l-0.1-0.1L442.8,368.2z M334.4,368.4H334l-1,0.6l-0.5-0.1
		l-0.3-0.2l-0.2,0l-0.1,0.1l0.8,0.7v0.2l-0.3,0.1v0.3l0.3,0.1l0.4-0.2h0.4l0.7-0.2l0.2-0.2l0.1-0.3l-0.1-0.6L334.4,368.4z
		 M416.3,371.2l-0.1,0.1h-0.5l-0.1-0.1l-0.1-0.3l-0.2-0.2l-0.2-0.1l-0.5,0.2l-0.3,0.2l-0.2,0.5l0.1,0.2l0.2-0.1l0.5,0.7l0.6-0.1
		l0.2,0l0.2-0.2l0.3-0.5l0.2,0.2l0.1,0.2l0.3-0.1l0.2-0.3l-0.2-0.4L416.3,371.2z M406.4,376.4l1-0.3l0.4,0l0.4-0.2l0.1-0.2l-0.1-0.3
		l-0.1-0.2l-1.4-0.4l-0.2-0.2l0.2-0.1l0.3,0.1l0.1-0.2l-0.1-0.3l-0.3-0.2l0-0.1l0.3,0l0.3-0.2l-0.4-0.4l-0.7,0.1l-0.4,0.4l-0.1,0.4
		l0.1,0.2l0,0.1l-0.2,0v0.1l0.7,0.1l0.1,0.2l0.1,0.2l0.2,0.3l0.1,0.2l-0.4,0l-0.4,0.2l0,0.3l0.3,0.3l0.2,0.2L406.4,376.4z
		 M422.5,375.4l-0.4,0.1l-0.4,0.2l-0.2,0.4l0-0.6l-0.4-0.9l-0.5-1l-0.2-0.4l-0.3-0.2l-0.3-0.1l0,0l0,0l-0.4-0.3l-0.8,0.1l-0.7,0.4
		l-0.2,0.5l0.3,0.4l0.1,0l0.4,0.3l0.2,0.3l0.2,0.5l0.2,0.1l0.1,0.3l0.4,0.5l1.5,0.6l0.2,0.1l0.5-0.3v0.5l0.1,0.1l0.2-0.2l0.1,0
		l0.1,0.1l0.3,0l0.3-0.2l-0.1-0.3l-0.1-0.2l0.2-0.3L422.5,375.4z M343.4,375.6l-0.4-0.1l-0.1,0.3l-0.3,0.3l-0.3,0.2l0,0.1l0.2,0.4
		l0.1,0.6l0.3-0.1l0.4-0.4l0.5-0.4l0.1-0.2l-0.1-0.1l-0.3,0l-0.1-0.1l0.2-0.3L343.4,375.6z M421.6,377.8l-0.1-0.2l-0.2,0.1l-0.1,0.3
		l0,0.4l-0.1,0.3l-0.3,0.5l0.2,0.1l0,0.1l-0.2,0.3l0.2,0.3l0.5,0.4l0.1-0.1l0.1-0.2l0.1-0.1l0-0.3l-0.1-0.2l0.3-1.3L421.6,377.8z
		 M388.1,379.5l0.2,0.9l0.2,0.2l0.1-0.2l0.1-0.1l0.1-0.1v-0.4l0.2-0.3l-0.5-1.3l-0.3-0.4l-0.2,0.1l-0.5-0.2l-0.5,0.1l-0.2,0.2
		l0.7,1.7l0.2,0.2h0.2l0.1-0.2l-0.1-0.2l0.1-0.2L388.1,379.5z M397.5,381.2l-0.2-0.3l-0.1-0.3l-0.2-0.2l-0.1-0.1l-0.2-0.4l-0.2-0.1
		l-0.1,0.1l0,0.3l0.1,0.2l0.2,0.1l0.2,0.1l0,0.2l-0.1,0.2v0.3l0.2,0.3l0.7,0.2l0.2,0l0.1-0.1v-0.1l-0.1-0.2L397.5,381.2z
		 M383.2,380.6l-0.1-0.4l-0.1,0.1l-0.2,0.5l-0.3,0.4l-0.4,0l-0.4-0.1l-0.3-0.2l-0.2-0.1l-0.1,0.1l-1-0.1l-0.3-0.2l-0.3-0.1v0.2
		l0.2,0.2l0,0.6l0,0.8l0.1,0.2l0.1-0.3l0.3-0.3l0.3-0.2l0.1,0.2l-0.1,0.5l0.1,0.2l0.1,0.3l0.3,0.2l0.4,0.2h0.2l0.1-0.1l0.2-0.1
		l0.3-0.3l0.2-0.3h0.4l0.3-0.4l-0.2-0.6l0.2-0.2L383.2,380.6z M343.3,385l0.2,0.1l0.1-0.2l-0.1-0.3l-0.9-0.5l-0.8-0.1l-0.2,0.1
		l-0.2,0.2l-0.6-0.2l-0.2,0.1l0,0.1l0.1,0.1v0.2l0.1,0.3l0.6,0.1l0.9-0.1L343.3,385z M385.8,384.2l-0.2-0.1l-1.1,0.1l-0.6,0.3
		l-0.1,0.4l0,0.5l0.2,0.2l0.2,0.1l0.1,0.2l0.3,0l0.4-0.1l0.2,0l0.9-0.6l0.2-0.3l0-0.4L385.8,384.2z M397.1,390.4l0-0.2l0.2-0.2
		l0-0.1l0.1-0.6l-0.1-0.3l-0.1-0.2l-0.2,0l-0.2,0.1l-0.2,0.2l-0.2,0.3l-0.5,0.4l-0.4,1.1l0.8-0.2l0.8,0.2l0.2-0.1l-0.1-0.2
		L397.1,390.4z M351.4,195.3l0.5-0.2l0.4-0.2l1.9,0.4l1-0.1l0.8-0.7l0.3-1l-0.4-0.5l-0.8-0.1l-0.9,0l-0.8-0.5l-0.7-0.2l-0.6,0.2
		l-0.6,0.5l-0.5,1.5l-0.1,0.2l0.2,0.6L351.4,195.3z M357.7,261.1l-0.1-0.3l-0.6-0.2l-0.8,0.3l-0.5,1.2l-0.1,2l0.1,2.1l0.5,1.5
		l0.6-0.7l0.3,0.3l-0.8,1.1l-0.1,0.8l0.5,0.2l1.1-0.6v0.6l-0.1,0.5l-0.2,0.4l-0.3,0.4l0.6,0.1l2-0.1l0.4,0.2l-0.3-0.8l-0.6-0.9
		l-1.3-1.4l0.2-0.2l0.5-0.4l0.2-0.2l-0.7-0.4l-0.3-0.1v-0.3h1l-0.5-0.2l-1.1-0.3l-0.5-0.2V265l0.2,0.1l0.4-0.1l0.4-0.3l0.2-0.4
		l-0.1-0.5l-1.1-1.9l-0.1-0.3l0-0.2L357.7,261.1z M356,198.2l-0.2-0.4l-0.1-0.2l-0.1-1l0-0.2l-0.1-0.2l-0.2-0.1l-0.3,0.1l-0.3,0.2
		l-0.2,0.3l-0.1,0.3l-0.2,1.1l-0.2,0.4l-0.4,0.4l3,2.3l0.9-0.1l0.5-0.6l-0.1-0.5l-0.4-0.5l-0.6-0.4l-0.6-0.5L356,198.2z
		 M366.5,209.1l-0.3-0.2l-0.2,0l-0.5,0h-0.3l-0.3-0.1l-0.2-0.1l-0.2-0.1l-0.3,0l-0.2,0.2l-0.1,0.2l-0.6,2.3l-0.4,0.9l-0.5,0.4
		l0.7-0.2l2-1.3l0.3,0l0.4,0.1l0.4,0l0.1-0.2l0.1-0.4l0.2-0.2l0.3-0.2l0.4-0.1l-0.1-0.2L366.5,209.1z M345.9,341l-0.3,0.7l-0.2,0.4
		l-0.5,0.2l-0.5,0.2l-0.3,0.2l-0.2,0.5l-0.4,1.7l0.2,0l0.1,0.1l0.1,0.1l0.2,0.1l0.4-0.1l1.2,0.3l0.2-0.1l0.2-0.4l0.4-0.6l0.5-0.5
		l0.5-0.2l-0.6-0.9l-0.2-0.6l0-0.5l0.3-0.5l1.4-0.8l-0.7-0.2l-0.9,0.2L345.9,341z M336.7,363.5l0.5,0.1l0.5-0.2l0.4-0.5l0.2-0.6
		l0.1-0.7l0.2-0.1l0.6,0.1h0.6l0.4-0.5l0.2,0.1l0.5,0.1l0.2,0.1v-1.2l-0.1-0.3l-0.2-0.2l-0.2,0l-0.3,0l-1.5,0.6l-0.8,0.2l-0.6-0.2
		l-0.5,0.2l-0.5,0.3l-0.4,0.5l-0.1,0.7l0.1,0.7l0.2,0.6L336.7,363.5z M396.5,378.3l0.1-1l-0.5-0.9l-0.6-0.3l-0.7-0.1l-1.4,0.2
		l-1.5,0.3l-0.7,0.3l-0.6,0.5l0.4,0.3l0.2,0.2l0,0.2l-0.2,0.3v0.4l1.1,0.7l0.5,0.3l0.7,0.1l1.8-0.4l0.8-0.3L396.5,378.3z
		 M419.9,366.7l-0.8,0.7l-0.2,0.2l-0.3,1l0.2,0.6l1.6,1.6l0.5,0.3l0.5-0.1l0.5-0.4l0.3-0.8l0.1-0.8l0-0.8l-0.4-1.4l-0.3-0.8
		l-0.4-0.7l-0.5-0.1l0.5-0.5l0.2-0.6l-0.1-0.5l-0.5-0.2l-0.5,0.1l-0.5,0.2l-0.1,0.4l0.7,0.7l-0.4,1.4L419.9,366.7z M346.8,346.1
		l0.2,0l0.2,0.1l0.1,0.2l0.2,0l0.2-0.1l0.2,0.1l0.4,0.4l0.2,0.1l0.2-0.1l0.2-0.2l0-0.5l-0.1-0.3l-0.1-0.2l-0.2-0.2l-0.4-0.1l-0.6,0
		l-0.4-0.2l-0.3,0l-0.4,0.2l-0.1,0.2l0.2,0.1l0.2,0l0.1,0.1l-0.3,0.2L346.8,346.1z M399.7,401.5l-0.2-0.2l-0.6-0.9l-0.1-0.6l0.2-0.5
		l-0.1-0.2l-0.1,0l-0.1,0.1l-0.2,0.1l-0.2-0.1l-0.1,0l0,0.2l0,0.2l-0.1,0.2l0.1,0.4l0.1,0.2l0.2,0.1l0.1,0.4l0.2,0.4l0.1,0.2
		l0.6,0.1l0.7,0.3l0-0.3l-0.1-0.2L399.7,401.5z M351.9,352.8l0.2-0.2l0.2-0.5l0-0.2l-0.2-0.1h-0.8l-0.4,0.2l-0.1,0.5l0.2,0.5l0.5,0
		L351.9,352.8z M283.4,190.5l-0.3,0l-0.2,0.2l-0.5,0.5l-0.8,0.6l-0.1,0.5l0.4,0.5l0.1,0.3l0,0.1v0.1l0.1,0l0.2-0.2l0.3-0.1l0.4,0
		l0.3-0.2l0.2-0.5l0.1-0.6l0.2-0.5l-0.1-0.4L283.4,190.5z M327.4,200l-0.5,0l-0.4,0l-0.1,0.5l0.2,0.7l0.1,0.3l0.3-0.1l0.4-0.4
		l0.1-0.6L327.4,200z M358.8,213.5l0.2,0.2l0.3,0.2l0.5,0.2l0.3-0.3v-0.6l-0.4-0.5l-0.6-0.4l-0.4-0.1l-0.2,0.2l-0.3,0l-0.8-0.4
		l-0.2,0.2l0.3,0.7l0.1,0.3l0.2,0.2l0.3,0.1l0.6-0.2L358.8,213.5z M365,226.7l0,0.3l1.1-0.1l2.3-1.8l0.2-0.5l-0.1-0.5l-0.1-0.3
		l-0.2-0.2l-0.8-0.4l-0.5-0.3l-0.2-0.5l0.1-0.5l-0.1,0l-0.7,0.5l-0.7-0.4l-0.1,0.1l0.3,0.4l0.3,0.6l0.2,0.8l0,0.6l-0.6,0.7l0.2,0.3
		l-0.1,0.4L365,226.7z M361.4,225.1l0.5-0.1l0.4-0.5l0-0.3l0.2-0.4l0.5-0.2l0.2-0.2l-0.2-0.7l-0.5-0.3l-1-0.1l-0.8,0.4l-0.4,0.5
		l-0.1,0.7l0.1,0.7l0.3,0.2l0.4,0L361.4,225.1z M352.1,316.5l0.1,0.4l0.2,0.2l0.3-0.1l0.1-0.1l0.4-0.3l0.5-0.6l0.8-0.7l0.2-0.4
		l-0.1-0.3l-0.2-0.2l-0.2,0.2l-0.3,0.3l-0.5-0.1l-0.2,0l0.1,0.3l-0.2,0.1l-0.3,0.1l-0.2,0.2l-0.3,0.1l-0.1,0.1l0.2,0.1l0.1,0.1
		l-0.5,0.2L352.1,316.5z M467.5,344.9l-0.5,0l-0.5,0.3l-0.1,0.4l0.2,0.4l0.2,0.4l-0.1,0.4l0.1,0.3l0.3,0.3l0.2,1l0.1,0.2l0.2-0.1
		l0.3-0.4l0.2-1.1l0-1.4l-0.3-0.7L467.5,344.9z M433.7,356.7l-0.2-0.4l-0.3-0.9l-0.1-0.6l-0.2-0.1l-0.2-0.2l-0.1-0.4l-0.4,0.1
		l-0.5,0.8l-0.3,0.6l-0.2-0.2l-0.1-0.5l0.2-0.6l0.3-0.9l-0.2-0.6l-0.7,0.2l-0.4,0.5l-0.4,0.8l-0.6,0.8l-0.3,0.8l0.4,0.8l0.7,0.4
		l0.6,0.1l1.1-0.4l2,0.5l0.5-0.1l-0.2-0.4L433.7,356.7z M344.5,356l-0.7,0.3l-0.1,0.4l0.3,0.6l0.4,0.5l0.7,0.8l0,0.2l0.1,0.3
		l0.4,0.1l0.5-0.3l0.2-0.5l0-0.6l0.3-0.3h0.5l0.3-0.2l0.1-0.5l-0.2-0.8l0.6-0.4l0-0.3l-0.2-0.3l-0.2-0.1l-0.3,0l-0.6,0l-0.4,0.4
		l0.1,0.6l-0.1,0.3l-0.4,0l-0.4-0.2L344.5,356z M348.4,359.5l-0.1-0.2l-0.3-0.4l-0.4-0.2l-0.3,0.3l-0.6,0.3l-1.1,0.2l-0.4,0.4
		l0.5,0.3l0.7,0.3l0.6,0.5l0.5,0.3l0.5-0.1l0.3-0.3l-0.1-0.7l0.2-0.4L348.4,359.5z M346.2,363.6l0.2-0.1l0.2-0.2l0.5,0l0.4,0.6
		l0.5,0.5l0.6-0.1l0.3-0.5v-0.6l-0.2-0.5l-0.1-0.4l0.1-0.3l-0.2-0.3l-0.3-0.3l-0.4-0.1l-0.5,0l-0.4-0.2l-0.3-0.3l-0.4-0.2l-0.5-0.1
		l-0.5,0l-0.3,0.2h-0.4l-0.4-0.1l0.2,0.5l0.9,0.9l0.4,0.7l0.1,0.5l0.3,0.2L346.2,363.6z M316.6,365l-0.5,0.1l-0.4,0l-0.2-0.4
		l-0.2-0.1l-0.3,0.1l-0.4,0.3l-0.3,0.5l-0.3,0.6l-0.2,0.6l-0.1,0.7l0.3,0.8l0.4,0.2l0.2-0.2l0.2-0.3l0.3-0.5l0.1-0.4l0.7-0.8
		l0.1-0.3l0.2-0.2l0.4-0.4L316.6,365z M342.2,368.1l-0.4,0.5l-0.2,1l0.2,1.9l0.4,0.3l0.4-0.2l0.5,0l0.4-0.1l0.1-0.6l-0.4-0.8
		l-0.5-0.7L342.2,368.1z M345.5,370.5l-0.1-0.3l-0.1-0.1l0-0.5l-0.5-0.3l-0.3-0.3l-0.5-0.4l-0.3,0.2l0.3,0.9l0.4,0.7l0.2,0.6
		l-0.2,0.5l-0.5,0.4h-0.7l-0.6,0.1l-0.2,0.3l1,0.2l0.1,0.2l-0.3,0.2l-0.2,0.2l-0.3,0l-0.3,0.1l0.2,0.3l0.5,0.2l0.5-0.1l0.9-0.5
		l0.4-0.4l0.4-0.3l0.2-0.3l0-0.5l0.2-0.6L345.5,370.5z M409.7,378.9v-0.3l-0.2-0.5l-1-1.1l-0.4,0l-0.4,0.4l-0.2,0.1l0-0.2l-0.6-0.1
		l-0.3-0.2l-0.3-0.2L406,377l0.1,0.2l0,0.3l-0.2,0.4l0.3,0.2l0.5,0.3l-0.1,0.2l0.2,0.3l0.4,0.1l0.3,0.3l0,0.5l0.2,0.1l0.7-0.2
		l0.8-0.5L409.7,378.9z M374.1,384.4l-0.2-0.3l-0.1-0.4l-0.1-0.8l-0.4-1.1l-0.5-0.6l-0.5-0.3l-0.5-0.2l-0.8,0.1l-0.3,0.1l-0.5,0.2
		l-0.4,0.5l-0.2,0.7l0,0.7l0,0.7l0.1,0.6l0.3,0.4l0.5,0.3l0.6,0.2l0.5-0.1l0.4,0.1l0.1,0.4l-0.4,0.3v0.4l0.8,0.3l0.7,0.2l0.4,0.2
		l0.2-0.1l0.1-0.3l0.2,0l0.3,0.2l0.4,0.2l0.2,0.1l0.2,0l0.2-0.1l-0.3-0.6l-0.1-0.3l-0.8-0.8L374.1,384.4z M344.9,385.8l-0.3-0.1
		l-0.7,0.1l-1.5-0.3l-0.3,0.2l0,0.3l-0.2,0.3l0,0.3l0.3,0.5l0.9,0.4l0.3,0l0.1-0.3h0.1l0.2,0.3l0.2,0.1l0.2-0.2l0.4,0l0.2-0.3
		l-0.1-0.4L344.9,385.8z M366.3,389.8l-0.4-0.1l-0.1,0.1l0.2,0.4l0,0.2l-0.1,0.1l-0.2,0.1l0,0.1l0.1,0.1l0,0.2l-0.1,0.2l-0.2,0.7
		l0.1,0.2l0.2,0.1l0.2,0.1l0.1,0.2l0.4,0.3l0.7,0.2l0.2-0.2l-0.2-0.4l0.4-0.1l0.6,0l0.2-0.6l0.3-0.3l0-0.5l-0.2-0.3l-0.2-0.2
		l-0.5-0.3l-0.9-0.2L366.3,389.8z M382.2,393.1l0.1-0.7l-0.3-0.3l-0.4-0.4l-0.5-0.6l-0.8-0.2l-0.7,0.3l-0.3,0.3l-0.2,0.4l-0.1,0.5
		l-0.3,0.6l0.2,0.8l0.2,0.1l0.2-0.3l0.3,0l0.4,0.3l0.5,0.2l0.7,0l0.5-0.3l0.3-0.5L382.2,393.1z M364,393.3l-0.4,0.8l0,0.8l0.5,0.6
		l0.8,0.1l0.7-0.4l0.5-0.4l0.5-0.3l0.2-0.3l0.2-0.2h0.4l0.4,0.2l0.2,0.1l0.1-0.2l0.2,0l0.2,0.2l0.1-0.2l-0.4-0.5l-0.4-0.2l-0.3,0
		l-0.5,0l-0.4,0.1l-0.3,0l-0.9-0.5h-0.7L364,393.3z M301.6,397.8l-0.4-0.5l-0.5-0.2l-0.3,0.3l-0.2,0.6l0.1,0.4l0.5,0.3l0.9,0.8
		l0.2,0.1l0.1,0.1l0.2,0l0.1-0.2l0-0.4L301.6,397.8z M355.9,354.2l0.4,0l0.1-0.3l-0.6-0.6l-0.8-0.4l-0.8-0.2l-0.5,0.3l0.2,0.5
		l0.3,0.5v0.4l-0.2,0.4l-0.5,0.2l-0.1,0.2l-0.1,0.1l-0.2,0.2l-0.9,0.3l-0.7,0l-0.2,0.3l0.3,0.4l0.5,0.2l0.7-0.1l0.6-0.3l1.3-0.2
		l0.2,0.1l1.3,0.7l0.1,0.2l-0.2,0.3l-0.3,0.3l0.5,0.2l0.9-0.8l-0.1-1.1l-0.8-0.3h-0.6l-0.3-0.1l-0.1-0.2l0-0.3l0.1-0.2L355.9,354.2z
		 M378.5,379.1l-0.2-0.3l-0.6-0.1l-0.9,0.2l-0.9,0.5l-0.6,0.8l-0.3,0.7l-0.2,0.3l-0.2,0.3l0.2,0.2h0.2l0.2,0.2l0.1,0.5v0.6l0.3,0.3
		l0.2-0.2l0.1-0.6l0.4-0.6l1.2-0.5l0.2-0.3l0.4-0.1l0.9,0.3l0.3-0.1l0-0.3l-0.3-0.4l-0.3-0.4l-0.4-0.3l0-0.1l0.2-0.2L378.5,379.1z
		 M379.2,383.5l-0.2,0l-0.3-0.1l-0.2-0.2l-0.5,0.1l-0.6,0.5l-0.5,0.2l-0.4-0.2l-0.3-0.1l-0.2,0.1l-0.2,0.1l-0.4,0.1l-0.5,0l0.1,0.2
		l1,0.4l0.2,0.1l0.2,0.1h0.4l0.5-0.2l0.5-0.1l0.3,0.1l0.2,0.3l0.1,0.4l0.2,0.3l0.4-0.1l0.2-0.2l0.2-0.2l0.4-0.1l0.4,0.1l0.3-0.3
		l0.1-0.4l0.1-0.2l0.2-0.3l0.1-0.4l-0.4-0.2l-0.6-0.1l-0.5-0.1L379.2,383.5z M369.4,394.7l0.1,0.7l0.2,0.1l0.2,0.2l0.1,0.2l0.2,0.1
		l0.4-0.1l0.2-0.4V395l0.1-0.3l0.2,0l0.1-0.2l-0.2-0.3l-0.2-0.1l-0.5-0.7l0.1-0.4l0.4-0.4l-0.1-0.5l-0.8-0.4h-0.4l0,0.2l-0.4,0.4
		l0.1,0.2l0.3,0.3l-0.1,0.7L369.4,394.7z M350.8,343.6l0.4,0l0.3-0.3l-0.1-0.4l-0.3,0.1H351l-0.1-0.2l-0.3-0.1l-0.4,0.2l-0.4,0.1
		l-0.4-0.3l-0.5-0.2l-0.6,0.2l-0.3,0.4l0.5,1.1l0.2,0.3l0.3,0.1l0.2,0.2l0.2,0l0.4,0l0.3,0.2l1.1,0.2l0.3,0.1l-0.1,0.3v0.5l0.2,0.3
		l0.2,0.3l0.5,0.1l0.1,0.2l0.2-0.1l0.2-0.5l-0.1-0.4l-0.2-0.3l-0.1-0.5l-0.3-0.4l-0.5,0l-0.4-0.2l-0.5-0.5v-0.3L350.8,343.6z
		 M440.7,359.2l0.4,0.1l0.1-0.2l0-0.4l0.2-0.1h0.5l0.2-0.3l-0.2-0.4l-0.7-0.7l-0.5-0.1l-0.6,0.4l-0.3,0.5l-0.1,0.3l0.3,0.4l0.5,0.4
		L440.7,359.2z M389.8,383.8l-0.3-0.4l-0.1-0.2l-0.2-0.2l-0.4,0.1l-0.6,0.2l-0.3-0.2l-0.2-0.5l-0.3-0.4l-0.3-0.3l-0.1-0.1l0,0.2
		l-0.4,0.3l-0.4,0.5l-0.2,0.2l-0.3,0.1l-0.1,0.1l0.1,0.1l0.3,0.1l0.8,0.1l0.3,0.2l0.1,0.3l-0.1,0.2l1,0.2l0.2,0.2l-0.3,0.2l-0.2,0.3
		l0.1,0.5l0.5-0.2l0.8-0.6l0.3-0.3l-0.3-0.2l-0.1-0.1l0.3-0.1l0.5,0.1l0.4,0.2l0.2-0.1l-0.1-0.2L389.8,383.8z M357.4,197.7l1.6,3
		l0.2,0.3l0.2,0.2l0.1,0.3l-0.4,0.6l-0.3,0.2l-1.4,0.4l0.9,1.2l0.9,0.4l2.4-0.1l0.2-0.1l0.2-0.2l0.2-0.1l0.3,0.2l0.5,0.5l0.3,0.1
		l0.3,0l0.5-0.4l0.5-1.2l0.6-0.4l-0.1-0.2l-0.2-0.6l-0.2-0.3l0.1-0.5l-0.1-2l-0.1-0.4l-0.4-0.8l-0.1-0.4l0.1-0.3l0.2-0.8l0.1-0.5
		L364,195l-0.6-0.6l-1.4-0.7l-0.7-0.6l-0.7-0.8l-0.7-0.5l-0.8,0.2l-1.1,1.2l-0.4,0.2l-0.2,0.6l0,2.7l-0.2,0.6L357.4,197.7z
		 M342.1,353.2l-0.6,0.5l-0.8,1.3l-0.4,0.4v0.3h0.5l1.5-0.3l0.4,0.1l0.3,0.3l0.4,0.1l0.6-0.2l0.5-0.4l0.3-0.7l0.1-0.8l-0.1-0.8
		l-0.4-0.6l-0.5-0.3l-0.4,0.1l-0.2,0.7l-0.2,0.4h-0.4l-0.4-0.1L342.1,353.2z M341,365.4l0.1-0.4l0-0.4l-0.1-0.2l-0.5-0.5l-0.4-0.7
		l-0.2-0.1l-0.3,0.2l-0.8,1.1l-1.3,0.5l-0.3,0.4l0.4,0.9l0.2-0.1l0.7,0.3l0.6,0.4l0,0.2l0.5,0.1l0.3,0l0.3-0.2l0.7-0.9L341,365.4z
		 M350.3,383l4.2-2.3l0.2-0.8v-0.4l0.4,0.2l0.8,0.7l0.1,0.2l0.4-0.3l0.4-0.6l0.9-1.9l0.2-0.8l0.1-0.8l-0.1-0.7l-1.3-2.1l-0.1-0.5
		l-1,0.6l-0.2,0.1l-0.3-0.2l-0.2-0.4l-0.1-0.3l-0.1-0.2l-0.5-0.2l-0.7-0.5l-0.7-0.4l-0.7,0.1l-0.3,0.5l1.1,0.9l0.4,0.7l-0.3,0.8
		l-0.6,0.4l-0.7-0.1l-0.5-0.7l-0.1,0.8l-0.3,0.2l-0.4,0.1l-0.5,0.3l-0.4,0.4l-0.3,0.4l-0.4,1.2l-1.2,0.1l-1.2,1.5l-0.6,1.8l0.9,1.1
		v-1.1l1.3,0.8l0.2,0.3l-0.1,0.3l-0.3,0.3l-0.3,0.4l0.1,0.5l0.5,0.1l1.9-0.2L350.3,383z M433.3,358.2l-1.5-0.2l-1,0.2l-1.1,0.4
		l-0.9,0.1l-0.6-1l-0.9-0.3l-0.4-0.3l-0.2-0.5l-0.2-0.9l-0.2-0.4l1-1.1l0.4-0.7l0-0.7l-0.3-0.7l-0.6-0.5l-0.7-0.2l-0.6,0.3l-0.7,0.6
		l-0.3,0.3l-0.2,1.2l-0.3,0.2l-0.3,0.1l-0.4,0.2l-0.5,1l-0.1,0.9l0.1,1l1.2,4l0.1,0.7l0,0.5l0.1,0.4l0.3,0.5l0.4,0.3l0.7,0.2h0.6
		l0.3-0.5l0.1-1.1l0.4-0.9l0.6-0.4l0.7,0.4l0.5,2.2l0.4,1.1l0.7-0.1l0.8-0.4l0.7,0.3l0.7,0.4l0.7-0.1l0.2-0.5l-0.4-1.1l0.4-0.2
		l0.2-0.3l0-0.7l-0.1-1.1l0.1-0.7l0.2-0.6l0.1-0.5l-0.2-0.6L433.3,358.2z M463.8,354.4l-0.4,0.3l-0.9,0.3l0.7-1.9l0.2-0.7l0-0.7
		l-0.2-0.5l-0.3-0.5l-0.2-0.7l0-0.3l0.3-2v-0.5l-0.2-0.5l-0.8-0.3l-0.7,0.5l-0.3,1l0.5,1l-3.1,1.8l-0.6-0.1l0,0.9l0.2,0.9l0.5,0.8
		l0.8,0.5v0.3l-0.8-0.1l-0.6-0.3l-0.6-0.4l-0.8-0.3h-0.5l-1.7,0.3l-0.6,0.2l-0.7,0.5l-0.6,0.6l-0.3,0.6l0.1,1l0.5,0.7l0.7,0.7
		l0.5,0.8l0.7-0.6l1.6-0.7l0.5-0.6l0.6,0.3l-0.2,1l0,0.8l-0.3,0.6l-1.1,0.2l-0.3,0.3l0,0.6l0.2,0.6l0.4,0.3l1.4-0.7l-0.2,0.8
		l-0.1,0.7l0.2,0.5l0.7,0.3l-1.6,1.1l1-0.1l3.3-1l0.7-0.6l-0.3-0.4l-0.7-0.3l-0.5-0.4l0.2-0.7l0.8-0.9l0.1-0.4l0.1-0.8l0.5,0.4
		l0.8,0.4l0.8,0.3l0.4-0.1l-0.1-0.8l-0.6-1.2l-0.2-0.7l0.6,0.2l0.4-0.4l0.2-0.7l0.1-0.6l0-0.9L463.8,354.4z M345.3,225.2l0.1,0
		l0.1,0.3l0.3,0.5l0.5,0.2l0.5-0.1l0.4-0.2l0.6-0.6l0.2-0.4l-0.3-0.4l-1.1-0.6l-0.3-0.2l-0.3-0.5l-0.4-0.2l-0.3,0.5l-0.3,0.7
		l-0.1,0.9l0,0.2l0.2,0.1L345.3,225.2z M501,290.5l-0.2-0.9l-0.4-0.4l-0.9,0.7l-2.9,3.1l-0.7,0.4l-1.1,0.1l-1-0.3l-0.8-0.8l-0.4-1.1
		l0.2-1.2l0.3-0.2l0.4-0.2l0.5-0.2l0.4-0.5l0.2-0.8l-0.2-0.3l-0.4-0.2l-0.3-1.4l-0.2-1.9l-0.2-0.3l-0.3-0.2l-0.3-0.5l-0.2-0.9
		l0.2-6.7l0.2-1.1l0.5-1l1.4-1.7l0.3-1l0.3-4.7l-0.2-2.3l-0.6-2.3l-0.3-2.3l0.8-2.3l1-1.9l0.5-2.1l-0.1-2.3l-1.5-4.7l-0.4-2.3
		l-0.4-5l-0.3-1.7l0-0.5l0.2-0.6l0.4-0.6l0.3-0.6l-0.2-0.7l-2.3-3.2l-0.8-2.3l-0.6-4.2l-0.7-2l-2.2-2.4l-0.3-0.9l-0.2-0.9l-0.4-0.9
		l-1.2-1.5l-2.1-4l-0.6-0.6l-0.7-0.4l-0.6-1l-1.3-4.2l-0.5-1l-1.6-0.9l-0.3-1.2v-1.4l-0.1-1.1l-2.3-2.7l-0.5-0.4l-3.5-3.8l-2.9-4.2
		l-7.5-10.6l-0.6-1.7l-1.6-2l-0.5-0.9l-3.1-8.2l-3.9-7.8l-1.1-2.7l-0.4-1.8l-2.1-4.2l-0.1,0.1l-2.8,1.4l0.4,1.7l-0.1,0.6l-0.2,2.4
		l-0.8,2.4l-1.1,1.9l-1.3,1.8l-2.7,2.8l-3.3,2.1l-3.5,1.3l-3.4,0.3l-4.6-0.3l-3.1,0.7l-1.6-0.4l-1.2-1.2l-0.1-0.2l-7.4,0.7l-2.8,0.8
		l-1.7,0.2l-4.3-1.3l-5.5,0.4l-1.2-0.1l-2.4,0.3l-2.6,1.1L388,170l-2.1,1.8l-0.4,0.5L384,176l-1.2,1.4l-1.8,1.4l-0.5,0.5l-3.9,6
		l-2.4,1.9l-1.3,0.5l0.2,3.7l-1.5,2.7l0.1,0.5l0.4,0.9l0.2,0.8l-0.2,1.2l-0.8,2l2.6,1.9l0.8,0.9l-1.1-0.1l-1.7-0.7l-1.4-1.1V199
		l0.2-0.7l0.1-1l-0.1-1.1l-0.2-0.7l-0.6-0.4l-0.6,0.1l-0.7,0.3l-0.8,0.2l-2.4-0.9l-0.6,0.1l-0.2,0.8l0.6,4.6l0.5,1.8l0.8,1.1
		l1.1-0.2l0.1,0.3l0.1,0.1l0,0.1l-0.1,0.3l1.8,0.6l0.8,1.9l0.4,2.3l0.7,1.8l-0.8,0.3l-0.8-0.1l-0.7,0.1l-0.3,0.7l1.2,2.1l0.5,1.5
		l0.4,0.3l1.3,0.2l1.8,0.6l0.5,0.3l0,1.2l-1.3,0.9l-0.6,0.6l2,0.2l0.3,0.2l0.7,1.2l0.5,0.4l0.7,0.1l2-0.5l-0.1,0.2l-0.1,0.7
		l-0.1,0.3l0.4,0.1l0.3,0.2l0.3,0.4l0.2,0.5l-1,0.1l-0.7-0.4l-0.6-0.1l-0.7,1.1l-0.2,1.2l-0.2,0.5l-0.5,0.2l-0.4-0.2l-0.2-0.5l0-0.6
		l0-0.6l-0.7,0.3l-0.6-0.2l-0.6-0.4l-0.7-0.2l-0.9,0.2l-0.5,0l-0.3-0.2l-0.3,0.3l-0.1,0.1l-0.2,0.1l0.4,0.7l0.3,0.7l0.3,0.6l0.4,0.2
		l1.2-0.2l0.1,0.2l-0.5,0.7l-0.5,0.3l-0.6,0.2l-0.6,0.3l-0.2,0.6l0.1,0.8l0.4,0.1l1.3-0.3l-0.6,0.9l-0.3,0.5v0.5l0.3,0.3l0.5,0
		l0.5-0.2l0.4-0.3l1.6-1.7l0.8-0.6l1.1-0.5l0,0.7l0.2,0.4l0.4,0.2l0.6,0.1l0.9-0.8l0.6-0.3l0.3,0.2l-0.1,1l-0.2,0.4l-1.2,0.3
		l-1.1,0.5l-0.5,0.2l-0.7,0.1l-0.3,0.3l-0.5,2.3h1l-0.3,0.6l-0.8,0.7l-0.4,0.5l2.1,0.6l0.8-0.2l0.7-1.2l0.1,1l0.4,0.4l0.4-0.2l0.2-1
		l0.1-0.9l0.2-0.9l0.4-0.5l0.5,0.2l-0.3,1.5l0.5,1.1l0.6,1l0.2,1.1l-0.4-0.3l-0.4-0.2l-0.5,0l-0.5,0.1l0.4,0.3l0.2,0.1v0.3h-3l1,1.8
		l1.6,1.5l1.8,1l1.5,0.2l1-0.4l0.3-0.4l-0.1-1.7l0.4-0.6l2.7-0.7l-0.1,0.6l-0.3,0.2l-0.4,0.1l-0.6,0.4l-0.2,0l-0.2,0l-0.2,0.2
		l0.1,0.1l0.4,0.4l0.1,0.2l-0.3,1.4l-0.5,0.5l-0.7,0.3l-1.4,1.1l-2,0.8l-0.8,0.1l-0.9,0.4l0.5,1l1.5,1.7l-0.9-0.1l-0.9-0.3l0.4,1.4
		l-0.2,0.8l-0.4,0.7l-0.3,1.3l-0.4-0.2l-0.2-0.2l-0.2-0.3l-0.1-0.5l0.7-0.2l0.1-0.5l-0.4-1.7l-0.4-0.7l-0.1-0.5l0-0.4l0.2-0.8
		l0.1-0.3l-0.1-1.6l-0.2-0.8l-0.3-0.5l-0.5,0.1l-0.8,1.1l-0.5,0.4l0.7-2.4l-0.1-1.2l-0.9-1l-0.9,0.1l-1.4,1.2l-0.2-0.4l-0.2-0.7
		l-0.6-0.8l-0.1-0.4l-0.1-0.3l-0.3,0.6l-0.4,1.2l-0.3,0.4l-0.6,0.5l-0.3,0.3l-0.3,0.5l-0.1,0.5l-0.2,0.4l-0.5,0.3l0.1-0.9l0-0.5
		l-0.5-0.8l-0.1-0.4l0-0.4l0-0.4l-0.2-0.4l-0.2-0.2l-0.7-0.2l-0.3-0.3l-0.9-1.5l-0.9-1.1l-0.7-0.5l-0.7-0.4l-0.8,0l0.9,0.9l0.6,2.1
		l0.8,0.4l0.6,0.2l0.3,0.4l-0.1,0.4l-0.4,0.2h-0.6l-0.5-0.2l-0.4-0.3l-0.7-0.9l-0.5-0.4l-0.4-0.1l-0.2,0.6l0.2,0.2l2.7,2.9l0.4,0.6
		l0.4,1.1l0.3,0.4v0.4l-0.6,0l-0.3-0.4l-0.3-0.5l-0.3-0.6l-0.8-0.9l-0.5-0.4l-0.2,0.3l-0.2,1.3l-0.8,2.7l-0.2,1.4l-0.1,0.3l-0.3-0.2
		l-0.3-0.5l-0.1-0.7v-2.5l0.1-0.4l0.4-0.4l0.1-0.2l-0.1-0.4l-0.2-0.3l-0.1-0.4l-0.2-0.5l-0.4,0l-0.5,0.3l-0.4,0.4l-0.3-0.9l0.3-0.6
		l0.4-0.5l0.2-0.5l-0.3-0.7l-0.8-0.3l-1.7,0v0.4l0.2,0.4l-0.2,0.2l-0.4-0.1l-0.4-0.3l-0.4-0.2l-0.5,0.1l-0.5,0.3l-0.3,0.4l0.8-0.1
		l0.7,0.2l0.3,0.5l-0.3,0.9l-0.6-0.5l-0.2,0.2l0.1,0.5l0.4,0.5l0.6,0.3h1.2l0.4,0.1l0.3,0.9l-0.2,1.3l-0.6,1l-1.1,0.2v0.4l0.8,0.4
		l0.4,0.1v0.4l-0.9,0.2l-0.5,0.2l-0.2,0.2l-0.2,0.6l-0.4-0.3l-0.7-0.9l-0.5,0.5l0.4,1.2l0.9,2l-1.3-0.9l-0.6,0l-0.7,0.7l-0.3,0.2
		l-0.2-0.3l-0.1-0.5l-0.1-0.5l0.2-0.1l0.8-0.5l0.2-0.3l0-0.2l-0.3-0.8V246l0.3-0.5l0.4-0.5l0.3-0.5l-0.5-1.5l-0.2-1.2l0-1.2l0.1-0.8
		l-1,0.3l-0.2,1.4l0.1,1.7l-0.1,1.3l-0.3,0.5l-0.3,0.2l-1.1,0l-0.6-0.1l-0.1-0.4l0.3-1.4l-1.1,0.4l-0.8,0.6l-0.1,0.8l1,0.8l-0.7,1.2
		l0.1,0.7l0.7,0.3l1.1,0.1l-0.3,0.7l-0.5,0.1l-1.3-0.4l0.5,0.9l0.5,0.6l-0.4-0.1l-0.3-0.1l-0.3,0l-0.2,0.2l-0.3-0.5l-0.2-0.4
		l-0.2-0.5l-0.1-0.5l-0.2,0.7l-0.2,0.5l-1.1,1.4l-0.1,0.4l0.1,1.4l-0.1,1.4l0.2,0.4l0.5-0.5l0.3-0.7l0.1-1.4l0.2-0.6l0.6,0.5
		l0.7,0.2l0.7,0.4l0.5,0.9v0.8l-0.5,0.3h-1.8l-0.2,0.2l0.1,0.5l0.2,0.5l0.1,0.3l0.5,0.3l0.5,0l0.5-0.2l0.5-0.1l0.8-0.3l1.2-1.5
		l0.8-0.5l0.3,1.5l-0.4,1.1l1.3,2.2l-0.6,1.4l0.2,0.3l0.1,0.4l0,0.4v0.4l0.4-0.6l0.5-0.5l0.6-0.3l0.7-0.1l-0.8-1l-0.1-0.5l0.5-0.4
		l-0.3-0.9l-0.8-1.3l-0.4-0.8l1,0l0.3-0.7l0.1-0.9l0.4-0.7l0.7-0.1l0.5,0.6l0.4,0.8l0.5,0.6l-0.4,0.7l-0.6,3l0.7-0.2l0.3-0.2
		l0.3-0.4l0.3,0.4l0.5-0.8l1.1-2.2l0.1-0.5l-0.2-0.2l0-0.4l0.2-0.4l0.7-0.3l0.6-0.7l0.4-0.3l0.1,0.5l0.2,0.3l0.6,0.7l-0.9,0.6
		l0.4,0.8l1.5,1.6l-0.4,0.1l-0.9,0.7l0.7,0.3l0.4,0.4l0.1,0.6l0.1,1.6l0,0.2l-1.1-0.2l-0.8,0.2l-0.4,0.5l-0.1,0.7l0.2,0.9l0.2,0.8
		l0.2,0.3l0.4,0h0.8l0.1,0.3l-0.4,0.7l-1,1.1l0,0.6l0.3,1l0.4,1l0.4,0.5l0.7-0.1l1-1.4l0.6-0.4h2.6l-0.8,0.4l-2.2,1.8l-1.3,0.5
		l-0.4,0.5l0.2,0.9h-0.6v0.4l0.4,0.3l0.5,0.6l0.3,0.2h1.5l0.7,0.2l0.3,0.7l-0.4,0.6l-2,0.5l-0.7,0.6l0.7,0.3l1.9,0.6l0.5,0.6
		l-0.7,0.4l-0.6,1.1l-0.9,2.6l0.3,0.4l0.4,0.3l0.2,0.1l0.3-0.2l0.3,0l0.5,0.4l0.4,0.4l0.7,1.1l-1.3-0.2l-1.3,0.4l-1.2,0.9l-1,1.2
		l0.3,0.3l0.1,0.1l0.2,0l0.6-0.6l1.1-0.2l1.2,0.1l0.8,0.3l1.2,1.7l0.3,0.2l0.6,0.3l0.3,0.3l-0.6,0.5l0.4,0.7l0.7,1l0.4,0.6l0.2,0.7
		l0.1,0.5l0.2,0.4l0.7,0.3l0.9-0.4l1-0.2l0.8-0.4l0.8-0.7l0.9-0.6l3.5-1.1l-0.1,0.8l-0.9,0.6l-2.1,0.8l-1.7,1.3l-1,0.5l-0.8-0.2
		l-0.7,0.4l-2,0.6l-0.8,0.1l-0.6,0.4l-0.4,0.9l-0.3,1.1l-0.1,1l0.4,0.9l1.8-0.5l1.9,1.1l1.1,0l3.3-1.3l0.2-0.1l0.5,0.2l0.5,0.4
		l0.2,0.4l-0.2,0.2l-0.6,0.1l-0.2,0.3l-0.1,0.4l-0.3,0.5l-0.4,0.2l-0.5,0l-2.5-0.2l-0.4,0.1l-0.4,0.3l-0.4,0.5l-0.1,0.5l0.4,0.2
		l0.9,0.2l1.1,0.4l1,0.6l0.6,0.7l0.1,0.5l-0.1,0.6l-0.1,0.6l-0.2,0.4l-0.5-0.8l-0.7-0.2l-1.7,0.3l-0.8,0.2l-0.2,0.7l0,0.9l-0.3,0.8
		l-1.4-0.8l-1.3,0.4l-4.7,3.8l-1.4,0.8l-0.6,0.5l0.1,0.5l-0.3,1.7l1.4,0.6l6.7-0.5l0.7,0.4l0.4,0.9l0.6,2.1l-0.6-0.2l-0.8-1
		l-0.7-0.3l-0.7,0.2l-0.9,1.1l-0.7,0.2l-1.5,0.1l-1.3,0.4l-1.2,0.7l-1.1,1l-1.7,2.5l-0.8,1.6l-0.3,1.3l0.2,0.6l1.5,1.7l0.1,0.4
		l-0.4,0l-0.8-0.2l-0.6-0.8l-0.3-0.3l-1,1.5l-0.4,0.8l-0.1,0.8l0.1,0.4l0.2,0.4l0,0.4l-0.1,0.4l-0.3,0.3l-0.3,0.2l-0.2,0.3l-0.2,0.5
		l0.3,0l0.2,0.1l0.1,0.1l0.3,0.1l-0.8,0.2l-0.9,0.1l-0.8,0.2l-0.5,0.6h1.3l0.6-0.1l0.6-0.2l-0.1,0.7l0.2,0.4l0.5,0.4l-0.1,0.5
		l-0.2,0.3l-0.2,0.2l-0.1,0.3l0.3,0.8l1.5,1.7l0.4,1.2l0.3,0.3l0.4,0.2l0.8,0.2l0.2,0.4l0,0.9l-0.1,0.9l-1.1,2.6l-0.5-0.5l-0.3-0.5
		l-0.1-0.6l0.3-0.6l-0.4-0.2l-0.8,0l-0.4-0.2l-0.5-0.3l-0.2-0.2l-0.1-0.3l-0.2-0.7l-0.2-0.1l-0.2,0.1l-0.2,0l-0.1-0.3l0.1-0.3
		l0.2-0.5l0.1-1l0-0.5l-0.3-0.6l-0.4,1.3l-0.3,0.6l-0.6,0.4l-0.3-0.8l-0.8-0.4l-0.9,0.1l-0.7,0.7l0.2,0.9l1.1,1.5l-0.4,0.6l0.6,0.8
		l0.6,0l0.3-0.7l-0.3-1.2l0.8,0.3l0.8,0.7l1.3,1.8l0.3,1.1l-1.3,1.2l0.1,1.2l-1.1-0.2l-0.5,0l-0.5,0.2l0.2,0.5l0.3,0.4l0.3,0.3
		l0.4,0.3l-0.2,0.1l-0.4,0.3l0.6,0.4l0.8,0.3l0.8-0.1l0.7-0.6l0-0.5l-0.2-0.6l-0.1-0.5l0.5-0.2l0.3-0.1l0.2-0.3l0.3-0.3l0.5-0.1
		l1.1,0.3l-0.3,0.5l-0.8,0.6l-0.6,0.6l-0.1,0.9l0.3,1.1l0.5,0.9l0.5,0.4l-0.6,0.5l-0.2,0.4l0.1,0.8l0,0.4l-0.1,0.4l-0.2,0.4
		l-0.4,0.5l-0.9,0.9l-0.3,0.5l0.1,0.6l0.5,0.2l1-0.3l0.6,0.3l0.1-0.8l0.4-0.2l1.2,0.3l0.6-0.2l0.4-0.4l0.4-0.2l0.6,0.3l-0.2,0.3
		l-0.2,0.6l-0.2,0.3l0.3,0.2v0.1l0.9-0.1l0.5-0.6l0.5-1.9l0.5-1.1l0.1-0.1l-0.1-0.5l-0.3-0.9l0.1-0.5l0.5-0.7l0.7-0.3l0.6,0.2
		l0.4,0.8l0,0.6l-0.2,0.3l-0.2,0.3l-0.2,0.4v0.6l0.1,0.4l0.1,0.4l-0.2,0.5l2.3-0.2l1,0.2l0.7,0.8l-0.5,0l-0.4,0.1l-0.7,0.4l0.3,0.7
		l-1.1-0.1l-2-0.6l-1.1,0.3l-0.5,0.7l-0.1,1l0.2,1l-0.2-0.1l-0.1-0.1l-0.1-0.1l-0.2-0.1l-0.7,0.1l-3.9-0.6l-0.5-0.1l-0.5,0l-0.5,0.3
		l-0.4,0.7v0.8l0.3,0.5l1.5-0.8l1.1,0.1l1.1,0.4l1.1,0.2l0.8,0.4l1.5,1.9l1,0.7l-0.3,0.4l1.3,1.2l0.8,0.5l1,0.1l-1.1,0.6l-1.1-0.3
		l-1.1-0.7l-1-0.4v0.4l0.5,0.5l-0.1,0.4l-0.6,0.1l-1-0.8l-1.5-0.8l-0.5-0.1l-0.1-0.1v-0.3l0-0.4l0-0.3l-0.1-0.3l0-0.2l0-0.2
		l-0.2-0.4l-0.1,0.1l-1.7-0.5l-0.3,0l0.6,0.4l-0.7,1l-0.2,0.5l0,0.7l0.7-0.4l0.4,0.2l0.7,1.2l0.9,0.6l0,0.5l0.1,0.3l0.2,0.1l0.5-0.1
		l-0.4,0.9l-0.5,0l-0.9-0.7l-2.2-0.4l-0.6-0.4l-0.9-2.6l-0.1-0.6l-0.1-0.5l0.1-0.5l0.4-0.6l-1.4-2l-0.3-0.6l-0.2-0.2l-0.4-0.1
		l-0.3,0l-0.4,0.2l0,0.4l0,0.5l-0.1,0.4l-0.5,1.2l-0.4,1.7l0.1,1.6l0.9,0.7l1.2,0.6l0.2,0.5l-0.3,0.3h-0.5l-0.2-0.3l-0.2,0.3
		l-0.2,0.1L354,370l0.2,0.5l0.1,0.1l0.9,0.9l0.3,0.1l0.4,0l0.3-0.2l0.1-0.2l0.1-0.3l0.3,0.2l0.2,0.4v0.2l1.1,0.5l0.4,0.5l0.1,0.9
		l0.7-0.3l0.5-0.1l0.9,0l0.4,0.1h0.4l0.4-0.1l0.1-0.5l0.2-0.3l0.3-0.2h0.3l0.6,0.3h0.4l0.3-0.2l0.4-0.5l0.2-0.1l0.5,0.3l0,0.5
		l-0.4,0.6l-0.7,0.5l0.4,0.1l0.3,0.2l0.3,0.3l0.2,0.4l-1.1,0l-1.2,0.2l-0.9,0.7l-0.2,1.3l0.7-0.2l0.1,0.3l-0.2,0.7l0,0.7l-0.1,0.1
		l-0.1,0.3l0,0.3l0.5,0.1l0.7,0.1l0.3,0.1l0.2,0.2l0.2,0.5l-0.1,0.6l-0.6,1.1l-0.2,0.1l-0.2-0.1l-0.1,0l-0.1,0.9l-0.1,0.2l-0.2,0.3
		v0.3l1.2,0l0.6,0.1l0.4,0.4l0.1,0.6l-0.4,1.3l0.1,0.6l0.5,0.1l2.1-0.7l1.1,0.2v-0.6l0.1-0.5l1.1-3.6l0.2-0.4l0.5-0.4l1.3-0.3
		l0.4-0.2l0.2-0.5v-0.4l0.1-0.3l0.6-0.1l0.2,0.1l0.4,0.3l0.3,0.1l0.1-0.1l0.1-0.3l-0.1-0.2l-0.1-0.1l-0.7-0.2l0.6-0.6l1.7-1l-1-1.2
		l-0.2-0.7l1.4-0.5v-0.4l-0.3-0.6l-0.2-0.8l0.1-0.5l0.4-0.6l0.5-0.5l0.5-0.1l0.5,0.4l0.3,0.7l0,0.8l-0.2,0.7l0.2,1.1l-0.2,2.7l0.3,1
		l0.4,0.2l1.7,0.5l1.2,0.9l0.6,0.2l-0.2-0.7l0-0.6l0.2-0.5l0.4-0.5l1.2,0.6l0.4-0.4l-0.1-2.2l2.5-2.4l-0.3-0.7l0.2-0.6l0.4-0.5
		l0.3-0.4l0.1-0.6l0-0.6l0.1-0.5l0.4-0.2l0.5-0.2l0.6-0.3l0.9-0.7l1.6-1l0.4-0.3l0.8-1.1l0.5-0.4l0.5-0.2l1.1,0.2l0.5,0l0.7-0.2
		l0.6-0.8l0.9-2.3l0.6-1l1.1,1.8l0.8,0.7l1-0.4l0.8-0.6l0.3,0.4l0.2,0.9l0.6,0.9l-0.4,0.6l-0.6,1.3l-0.3,0.4l-0.7,0.3l-0.5-0.2
		l-0.4-0.5l-0.3-0.7l0.2-0.5l0-0.4l-0.3-0.3l-0.5-0.2l-1.3,1.4l-0.2,0.4l0,0.8l0.3,0.4l0.4,0.4l0.3,0.6v1.6l-0.7,0.9l-1.1,0.4
		l-1.3,0.1l0.7-1.6l0.2-0.9l0-0.9l-0.6,0.3l-0.3,0.4l-0.5,1.2l-0.9,1.2l-0.3,0.3l-1,0.6l-0.3,0.5l0.1,0.8l0.4,0.8l0.6,0.3l0.7,0.1
		l0.7,0.3l-0.1-0.2l-0.2-0.6l1.8-0.9l0.5-0.1l1.7,1.8l1.7,2.6l1,1.2l1-0.1l-0.6-0.6l0.6-0.5l1.1-0.3l0.9-0.1l0.4-0.5l1.9-3.2
		l-0.7-0.1l-2.3,0.1l-0.2-0.1l-0.4-0.6l-0.5-1.1l-0.1-0.2l0.2-0.4l0.6-0.4l0.7-0.3l0.6-0.1l0.7,0.2l2,1.3l0.5-0.1l0.9,0.1l0.8-0.1
		l0.5-0.6l-0.1-1.2l-0.8-0.7L406,368l0.3-0.1h0.8l0.5,0.1l-1-1.4l-1.4-0.9l-1.3-1.1l-0.6-2.2l0.1-0.1l0.2-0.1l0.1-0.2l-0.3-0.5
		l-0.4-0.2l-0.8,0.3l-0.4-0.3l0.2-0.8l1-0.5l1.9-0.6v-0.3l-0.9-0.3l-1.1-0.5l-0.6-0.5l0.7-0.2l1.9,0.1l0.9-0.1l1.5-0.5l0.2,0
		l0.1-0.1l0.3-0.4l0.8-1.9l0.2-0.1l0.1-0.2l0.2,0.1l0.2,0.2l0.1,0.3l0,0.3l-0.2,0.5l0,0.3l0.1,0.5l0.7,1.4l-0.1,0.2l-0.1,0.3v0.3
		l0.2,0.2l0.3,0h0.2l0.2,0.1l0.7,1.5l0.4,0.5l0.2,0.9l-0.4,1.1l-0.6,1.1l-0.3,1.2l0.2,1.2l0.5,0.8l0.8,0.4l1.1,0.1l0.7,0.8l0.4,0.2
		l0.2-0.4l-0.3-2.4l-0.2-0.8l-0.4-0.7l0.2-0.1l0.1-0.1l0.1,0l0.3,0.2l0.8-1.8l1,0.2l1.3,0.6l0.6-0.2l0,0.2l-0.2,0.2l0.1,0.1l0.3,0.4
		l0.4,0.2l0.5-0.4l-0.4-0.2l-0.2-0.1l-0.1-0.2l0.2-0.1v-0.1l-0.2-0.1l-0.1,0l0.8-0.3l0.4-0.6l0.5-2.7l0.5-1.5l0.1-0.8l0.1-1.1
		l-0.8,0.5l-0.8-0.1l-0.8-0.2l-1,0.1l-1.4,1.3l-0.5,0.4l-0.5-0.2l-0.5-0.7l-0.7-0.4l-0.8-1.1l-0.7-1.3l-0.4-1l-0.1-0.9l0.2-1.1
		l0.5-0.7l0.7,0.3l0.9,1.7l0.6,0.6l1-0.4l1.7-1.3l0.4-0.5l0.2-0.4l0.3-1l-0.1-0.3l-0.1-0.7l0.1-0.4l0.5,0.4l0.3,0.5l0.1,0.4l0.2,0.3
		l0.6,0.1l1.8,0l0.8,0.2l0.7,0.5l0.3-0.2l0.3-0.1l0.4,0.1l0.5,0.2l1.2-0.1l0.9-0.8l0.5-1.4l0.1-1.8l0.5,0.4l0.3,0.5l0.5,1.3l1.2-0.7
		l1.2,0l0.5-0.4l-0.8-1.9l1.1-0.1l0.7-0.7l0.6-1l0.7-0.8l-0.1,0.7l-0.2,0.5l-0.2,0.4l-0.1,0.3l-0.1,0.7l0.1,4l-0.1,0.4l-0.1,0.4
		l0,0.4l0.2,0.4l0.4,0.2l1,0.1l0.7,0.2l0.5-0.1l0.2,0.1l0.1,0.2v0.8l0.1,0.3l0.8,0.5l2.1-0.1l1,0.2l0-0.8l0.1-0.8l0.2-0.6l0.4-0.3
		l1,0.1l0.5,0.3l0.9,1.3l1-0.1l0.7-1.4l0.7-0.7l1,2l-1,0.4l-0.5,0.3l0.1,0.4l0.6,0.9l0.6,0.2l2.8,0.3l-0.2,0.4l-0.4,0.1l-0.4,0
		l0.7,1.3l1.2-0.6l1.1-1.5l0.6-1.1l-0.6-0.7L451,354l-0.3,0.4l-0.4,0.1l-0.4-0.4l0.3-2.2l0.1-1.1l0-0.4l-0.1-0.3l-0.3-0.5l-0.4-0.2
		l-0.2-0.3l0.3-0.5l0.6,0.2l0.9,0l0.9-0.2l0.6-0.3l0.4-0.7l-0.1-0.6l-0.2-0.7l-0.2-1l-0.8,0.1l-4.5,2.4v-0.4l0.5-0.5l0.1-0.7
		l0.3-0.7l1.8-0.5l1.5-0.8l0.8-0.2l-0.5-0.7l0-0.4l0.4-0.2l1.5-0.3l0.7,0l2.4,0.9l0.3,0.2l0.4,0.4l0.1,0.4l0,0.4l0.1,0.3l0.5,0.1
		h0.9l0.4-0.1l0.4-0.3l-0.3-0.1l-0.5-0.2l-0.3-0.1l0.2-0.7l-0.1-0.5l-0.7-1l-0.4-0.6l-0.2-0.5l-0.3-1.4l-0.6-1.2v-0.6l0.6-0.9
		l0.5-0.5l0.2,0.2l0.5,1.4l-0.2,0.4l0.4,1.1l-0.2,0.8l0.9-0.4l0.6,0.5l0.6,0.8l0.7,0.5l0-0.8l0.3-0.5l0.4-0.2l0.2,0.2v2.4l0.7-0.5
		l0.5,0.1l0.6,0.3l0.8,0.2l1.6-0.4l0.5,0.1l-0.4,1l1.9-0.6l1.5-0.3l0.8-0.3l0.6-0.4l0.2-0.2v-0.4l0.6,1.4l0.8-0.4l1-1.1l1-0.6
		l-0.2,0.8v0.7l0.2,1.1l-0.1,0.8l-0.2,0.7l-0.1,0.7l0.3,0.8l0.2-0.5l0.1-0.1l0.6,0.2l0-0.9l0.3-0.7l0.4-0.2l0.2,0.7h0.3l0.2-1
		l0.5-1.2l0.7-0.9l0.5-0.1l0.8,0.7l0.8,0.2l0.7-0.2l0.5-0.9l-0.2-0.2l-0.3-0.3l-0.2-0.4l0.4-0.5l0.5-0.2l0.5,0l0.5,0.1l0.6,0.1
		l0.8-0.3l0.8-0.7l1.3-1.6l0.9-1.9v-0.3l-0.3-0.4l0-0.3l0.2-0.3l0.6-0.5l0.1-0.2l0.2-1.3l0.5-0.8l1.8-1.1l1.3-1.3l0.5-0.9l-0.4-0.4
		l-0.2-0.2l0.2-0.5l0.5-0.9l-0.1-0.6l-0.5-1.4l-0.1-0.4l0.4-0.3l0.5-0.1l0.5-0.2l0.2-0.7l-0.1-0.8l-0.2-0.7l-0.3-0.4l-0.6-0.2
		l0.4-1.1l0.6,0.2l0.6,0.9l0.3,1.3l0.3,1l0.7-0.4l0.7-1l0.5-0.9l0.6-2.3l0.2-1.2l0.1-1.2l-0.1-0.6l-0.4-1l-0.1-0.7l0.1-0.5l0.8-1.5
		l0.7-3.8l0.8-1.7l0.9-3.5l0.3-3.9l0.1-0.6l1.7-3.8l0.1-1.3l-0.2-1.1L501,290.5z"/>
</g>

</svg>
