<?xml version="1.0" encoding="utf-8"?>

<svg version="1.2" baseProfile="tiny" xmlns="http://www.w3.org/2000/svg" xmlns:xlink="http://www.w3.org/1999/xlink" x="0px"
	 y="0px" viewBox="283 162.3 282 264.9" xml:space="preserve">

<g id="Kuwait">
	<g>
		<polygon fill="#007A3D" points="504.4,184.2 505.5,184 509.5,181.8 510.2,181.2 511.6,179.2 512.6,178.3 516.6,176 517.1,174.3
			514.8,174 509,174.8 507.3,175.8 504.3,179.9 502.2,181.3 502.5,182.4 503.3,183.5 		"/>
		<polygon fill="#007A3D" points="518.6,237.8 515.1,230.3 512.6,222.6 508.7,222.8 504.1,216.6 500.2,208.4 498.3,202.8
			497.9,198.7 497.9,192.4 497.2,188.8 495.7,185.5 494.2,182.9 493.1,180 460.9,163.9 452.5,162.3 414.1,162.3 405.6,163.3
			381.7,173.2 373.9,178.4 368.8,185.6 357.5,214.3 407,247.3 491.9,247.3 492,247.1 495.3,241.9 496.8,241.1 500.1,241.2
			503.5,242.3 505.4,244.8 502.5,244.8 504.2,246.7 506.1,247 508.2,246.8 510.5,247.1 510.9,247.3 524.9,247.3 524.8,246.8 		"/>
		<polygon fill="#007A3D" points="528.9,181.8 527,180.4 524.9,179.8 522.8,179.9 520.7,180.8 518.8,182.2 518.2,183.5 519.1,184.2
			521.7,184.2 521.5,185.4 521.7,187.1 522,189 522.7,190.1 524.1,190.7 526.1,189.9 527.8,190.1 530.2,191.7 529.6,193.3
			527.4,194.6 524.7,195.8 525.6,198.4 524.4,199.6 522.4,199.8 520.7,199.5 517.1,197.2 515,197 513.5,199.5 515,199.4
			516.2,199.6 518.6,200.5 517.7,206.4 517.1,207.4 515.5,207.9 512.3,210.1 510.5,211 507.7,213 508.8,214.8 511.8,216.6
			513.5,218.6 519.7,229.7 524.9,242 528.5,246.4 534.9,247.1 540.4,244.4 545.8,239.4 550.4,233.6 553.2,228.4 554.2,220.8
			552,214.7 		"/>
		<polygon fill="#FFFFFF" points="407,342.7 523.4,342.7 516.9,321.3 517.1,318.5 517,315.9 512.6,304 512.3,298.8 513,289.2
			512.4,289 506.1,289.2 504.6,288.6 502.5,286.7 499.8,283 498.1,281.4 496.7,281.4 493.7,284.4 484.3,291.1 480.5,292.4
			475.6,292.5 473.6,291.7 472.8,289.5 473.4,286.6 475.3,282.8 474.9,280.9 472.6,282.2 470.3,282.8 464.8,283.1 459.1,284.4
			457.5,284 455.7,283.2 454.6,282.4 455,282 456.6,281.2 463.7,276.2 466.3,273.5 472.3,265.1 476.1,261.3 485.1,255.5
			489.1,251.8 491.9,247.3 407,247.3 		"/>
		<polygon fill="#FFFFFF" points="512.5,248.2 513.2,249.8 513.6,251.3 514.6,252.9 517.7,254.8 521.5,255.5 524.6,254.2
			525.8,250.6 524.9,247.3 510.9,247.3 		"/>
		<polygon fill="#FFFFFF" points="556.2,273.7 553.4,271.3 551.1,270.4 545.1,268.6 542.6,269 540.9,271.5 541.4,273.9 543.9,274.5
			547.2,274.5 550.1,275.1 555,279.3 557.7,280.9 559.2,279.6 558.6,276.8 		"/>
		<polygon fill="#CE1126" points="400.1,347.3 408.4,348.4 416.7,349.5 416.8,349.5 425.8,364.8 434,387.3 434.7,391.5 435.3,400.6
			436.7,405.7 438.7,410.7 441,414.5 444.1,417.5 447.6,419.8 450.3,422.7 451.6,427.2 459.5,427.1 485.9,426.8 512.3,426.6
			538.7,426.3 565.1,426 563.3,424.2 561,421.1 559.8,418.9 559.2,416.8 558.7,408.7 558.2,407 556.5,409 554.5,410.1 553.1,409.2
			553.2,405.7 554.2,405.7 554.9,406.2 555.4,406.5 556.2,406.1 557.2,404.7 555.8,403.9 555.2,403.3 555,402.5 555.2,401.1
			556,401.8 558.2,403.4 557.4,400.6 557.2,397.5 557.8,394.5 559.2,391.9 553.1,390.6 549.6,389.1 548.1,386.8 547.2,384.8
			543.2,379 542,375.7 542.2,372.3 542.8,369 542.4,366.4 536.6,364.6 534.4,362.4 527,351.4 524.4,345.7 523.4,342.7 407,342.7
			"/>
		<polygon points="407,247.3 357.5,214.3 356.2,217.8 350.8,227.9 350,230.3 349.4,235.5 349.1,237.2 346.2,243.6 335,261.9
			330.7,273.4 328.4,276.8 318.9,287.1 309.6,302.8 283,332.4 299.6,334.5 316.2,336.5 332.7,338.6 349.3,340.6 364.1,342.6
			378.9,344.6 393.6,346.5 400.1,347.3 407,342.7 		"/>
	</g>
	<path fill="none" stroke="#999999" stroke-width="0.25" stroke-linecap="round" stroke-linejoin="round" d="M503.3,183.5l1.1,0.7
		l1.1-0.2l4-2.1l0.6-0.6l1.5-1.9l1-0.9l4-2.3l0.5-1.8l-2.3-0.2l-5.8,0.8l-1.6,0.9l-3,4.1l-2.1,1.4l0.2,1.1L503.3,183.5z
		 M551.1,270.4l-6-1.8l-2.6,0.4l-1.6,2.5l0.5,2.4l2.5,0.6h3.3l2.9,0.7l4.8,4.2l2.7,1.6l1.5-1.3l-0.6-2.8l-2.4-3.1l-2.9-2.4
		L551.1,270.4z M521.7,184.2l-0.1,1.2l0.1,1.8l0.4,1.8l0.6,1.1l1.5,0.6l2-0.9l1.7,0.2l2.4,1.6l-0.6,1.5l-2.2,1.4l-2.7,1.2l0.9,2.6
		l-1.2,1.1l-2,0.2l-1.7-0.3l-3.6-2.3L515,197l-1.5,2.5l1.5,0l1.2,0.2l2.4,0.9l-0.9,5.9l-0.5,1l-1.6,0.5l-3.2,2.2l-1.7,0.9l-2.8,2
		l1.1,1.8l2.9,1.8l1.7,2l6.2,11.2l5.2,12.3l3.6,4.4l6.4,0.7l5.5-2.7l5.4-5l4.6-5.8l2.8-5.2l1-7.6l-2.2-6.2l-23.1-32.9l-1.9-1.4
		l-2.1-0.6l-2.1,0.2l-2.1,0.8l-1.9,1.4l-0.6,1.3l0.9,0.8L521.7,184.2z M563.3,424.2l-2.3-3.1l-1.2-2.2l-0.5-2.1l-0.6-8.1l-0.4-1.7
		l-1.8,2l-2,1l-1.4-0.8l0.1-3.5h1l0.7,0.5l0.5,0.3l0.7-0.4l1.1-1.4l-1.4-0.7l-0.6-0.6l-0.2-0.8l0.2-1.4l0.8,0.7l2.2,1.6l-0.9-2.9
		l-0.2-3l0.6-3l1.5-2.6l-6.1-1.3l-3.5-1.4l-1.5-2.3l-0.9-2.1l-4-5.7l-1.2-3.3l0.2-3.4l0.6-3.3l-0.4-2.6l-5.7-1.9l-2.2-2.1l-7.4-11.1
		l-2.7-5.6l-7.5-24.4l0.2-2.8l-0.1-2.6l-4.5-11.9l-0.2-5.2l0.6-9.6l-0.6-0.2l-6.3,0.2l-1.5-0.6l-2.1-2l-2.7-3.6l-1.7-1.6l-1.4,0
		l-3.1,3l-9.4,6.7l-3.7,1.3l-4.9,0.1l-2-0.8l-0.8-2.2l0.6-2.9l1.9-3.9l-0.4-1.9l-2.4,1.3l-2.3,0.6l-5.5,0.3l-5.7,1.3l-1.6-0.4
		l-1.8-0.8l-1.1-0.8l0.4-0.4l1.6-0.8l7.1-5.1l2.6-2.6l6-8.4l3.8-3.8l8.9-5.7l4-3.7l3-4.7l3.2-5.2l1.5-0.7l3.3,0.1l3.5,1.1l1.9,2.4
		h-2.9l1.7,1.9l1.9,0.4l2.1-0.2l2.3,0.3l2,1.1l0.7,1.5l0.4,1.6l0.9,1.6l3.2,1.9l3.8,0.7l3.1-1.2l1.2-3.7l-1.1-3.8l-6.2-9l-3.5-7.5
		l-2.5-7.6l-3.9,0.2l-4.6-6.2l-3.9-8.2l-1.9-5.6l-0.5-4v-6.3l-0.7-3.6l-1.5-3.3l-1.6-2.6l-1-2.9l-32.2-16.2l-8.5-1.6h-38.4l-8.5,1
		l-23.9,9.9l-7.8,5.2l-5.1,7.2l-12.6,32.1l-5.4,10.1l-0.8,2.4l-0.5,5.1l-0.4,1.7l-2.9,6.4L335,261.9l-4.4,11.5l-2.2,3.3l-9.5,10.4
		l-9.3,15.6L283,332.4l16.6,2.1l16.5,2l16.6,2l16.6,2.1l14.8,2l14.8,2l14.7,1.9l14.8,2l8.3,1.1h0.1l9,15.3l8.2,22.5l0.7,4.2l0.5,9.1
		l1.5,5.1l2,5l2.2,3.8l3.2,2.9l3.4,2.4l2.8,2.9l1.2,4.5l8-0.1l26.4-0.3l26.4-0.3l26.4-0.3l26.4-0.3L563.3,424.2z"/>
</g>

</svg>
