<?xml version="1.0" encoding="utf-8"?>

<svg version="1.2" baseProfile="tiny" xmlns="http://www.w3.org/2000/svg" xmlns:xlink="http://www.w3.org/1999/xlink" x="0px"
	 y="0px" viewBox="224.3 236.5 391.3 121" xml:space="preserve">

<g id="Cayman_Islands">
	<g>
		<polygon fill="#012169" points="614.6,237.3 614.6,240.4 614.9,240.1 615.1,239.5 615.5,239.1 615.7,237.8 615.2,237.3 		"/>
		<polygon fill="#012169" points="253,347 252.7,346.7 252.5,346.7 252.4,346.8 252.4,347 252.5,347.1 252.9,347.1 		"/>
		<polygon fill="#012169" points="260.4,341.5 260.4,341.7 260.5,341.8 260.9,341.8 261,341.7 261,341.1 260.9,341 260.3,341
			260.3,341.3 		"/>
		<polygon fill="#012169" points="260.7,339.4 260.8,339.3 260.8,339.1 260.7,339 260.4,339 260.3,339.1 260.3,339.3 260.4,339.4
			"/>
		<polygon fill="#012169" points="301.9,340.3 302.1,340.1 301.9,339.9 301.9,339.5 301.5,338.7 301.5,337.7 300.9,336.7
			300.7,336.7 299.9,336.4 299.5,335.7 298.6,335.1 297.8,335.1 297.6,335.3 293.9,335.3 293.8,335.1 293,335.1 292.8,334.9
			291.8,334.9 291.7,334.7 290.7,334.7 289.9,335.3 286.7,335.3 286.3,335.1 286.1,335.3 285.1,335.3 284.9,335.5 284.4,335.5
			283,336.1 282.2,336.1 281.5,336.6 279.7,336.6 279.5,336.8 276.5,336.8 276.3,336.6 275.9,336.6 275.7,336.4 275.3,336.4
			274.6,335.7 274.2,335.7 274,335.5 273.2,335.5 273,335.3 272.4,335.3 272.1,335.1 271.9,335.3 271.1,335.3 270.9,335.5
			270.5,335.5 269.9,335.9 269.6,335.9 268.8,336.3 267.1,336.3 266.9,336.1 266.5,336.1 265.4,335.3 265,335.3 263.8,334.3
			263.6,334.3 263.2,333.9 262.8,333.9 261.1,332.3 260.8,332.2 260.7,331.9 260.5,331.9 260,331.3 259.6,331.3 258.8,330.4
			258.4,330.4 258.1,330.8 257.8,332.2 258,332.5 258.2,332.1 258.5,332.2 258,333.2 257.4,333.8 257.4,334 256.6,334.6 256.6,335
			257.7,335.1 258,334.8 258.3,333.8 258.8,333.3 259.1,333.4 258.9,334 259.1,334.4 259.3,334.6 259.3,336 258.3,337.1
			258.4,337.6 258.8,337.6 259.6,337.2 260.2,338.2 260.5,338.2 260.9,337.2 261.5,337.2 261.6,337.9 261.2,338.3 261.4,340.3
			261.2,340.5 261.2,340.9 261.8,341.3 261.8,341.9 261.5,342 261.1,342.7 260.7,342.7 260.3,342 258.8,342.1 258.7,341.3
			258.2,341 258.1,341.7 257.3,342.7 256.7,343.1 256.1,343.1 255.9,342.9 255.8,343.1 255.2,343.1 254.5,342.6 255.1,341.5
			255.1,340.9 255.3,340.7 255.2,340.2 254.8,340.2 254.4,340.6 254,340.4 253.4,340.4 253,340.6 253,341.1 253.2,341.3
			253.1,344.6 252.8,344.8 252.6,345.6 252.2,345.8 252.2,346.4 252.9,346.5 253.4,345.7 253.6,345.7 253.9,346 253.9,346.4
			253.7,346.8 253.2,347.1 253.1,347.3 252.3,347.3 251.3,347.9 251.1,347.9 250.7,347.3 250.2,347.3 249,348.8 248.2,349
			247.5,349.6 246.9,349.8 246.7,349.6 246.1,349.6 245.9,349.4 244.6,349.4 244.4,349.6 244,349.6 243.7,349.1 243.3,348.8
			242.7,349.6 241.9,349.8 241.4,350.2 241.2,349.7 240.8,349 240.6,349 239.4,347.7 238.4,347.4 238.6,347 238.6,346.4 238,345.8
			238,345.6 237.7,345.3 237.1,345.3 236.6,344.8 236.6,344.6 237.2,344.2 237.2,343.8 236.7,342.9 236.4,343.1 236.1,343
			236.3,341.3 236.6,341.1 236.6,340.5 237.4,340.3 237.6,339.1 237.8,338.9 237.8,337.3 237.2,336.5 236.8,335.4 235.9,334.2
			235.5,333.2 235.2,332.9 234.8,332.9 234.4,333.3 234.1,333.2 234.7,332.6 234.7,332 234.1,331.2 233.8,330.3 233.8,329.9
			233.4,329.5 233.4,329.1 233.8,328.4 234.2,328.2 235.6,328.2 235.8,328.4 237.1,328.6 237.3,328.8 238,328.7 237.8,327.9
			237.5,327.8 237.1,327.2 236.9,327.2 236.2,326.4 235.8,326.4 234.6,325.8 233.7,325 233.3,324.9 233.1,324.7 232.3,324.8
			232.1,324.6 230.8,324.9 229.6,325.6 229.2,325.6 228.3,326.2 227.9,326.2 227.7,326.4 227.3,326.4 226.9,326.8 226.2,327.2
			225.8,327.2 225.1,327.9 224.7,328.7 224.7,329.1 224.4,329.7 224.3,330.7 225,331.3 226.2,331.3 226.4,331.5 226.7,331.5
			227.1,331.3 227.9,331.7 228.5,331.7 228.9,331.9 229.6,332.5 230,332.5 231.5,334 231.8,334.6 231.8,335 232.2,335.8
			232.2,336.2 232.8,337.3 232.8,337.9 233,338.1 233.2,339.5 233,339.7 233,341.1 232.8,341.3 232.8,341.7 232.4,342.3
			232.4,343.8 232.6,344 232.2,344.6 232,344.8 232,346.2 232.4,346.8 232.6,347.8 232.8,348.1 232.8,348.9 232.6,349.1
			232.6,349.5 231.5,350.7 231.5,350.9 230.3,352.9 230.3,353.3 230.7,354.1 230.7,354.6 230.9,354.8 230.7,355 230.7,355.8
			231.2,356.3 231.9,356.5 232.5,356.9 233.7,356.9 234.8,356.1 235.2,356.1 236.3,355.5 236.7,355.5 237.9,354.9 238.3,354.5
			238.7,354.5 239.2,354 239.6,354 239.8,353.8 240.4,353.8 240.6,353.6 242.1,353.6 242.2,354.4 242.6,354.8 242.6,355
			243.1,355.5 243.5,355.5 244,355.1 245.2,355.3 245.4,355.5 245.6,355.3 249,355.3 249.2,355.5 249.6,355.5 250.4,355.9
			250.6,355.9 251.5,356.9 253.4,356.7 253.8,357.1 254.6,357.5 256.3,357.5 256.5,357.3 258.2,357.3 258.4,357.1 259.6,357.1
			261.1,356.3 261.5,356.3 262.3,355.5 262.5,355.5 262.6,355.2 262.8,355.1 265.5,352.4 265.8,352.3 265.9,352 266.7,351.6
			267.5,351.4 267.5,351.1 268,350.8 268.8,350.4 270.3,350 270.5,349.8 271.1,349.8 271.9,349.4 274.2,349.6 274.7,350 275.3,350
			275.5,350.2 276.9,349.6 279.2,348.4 279.9,348.4 280.1,348.2 282.6,348.2 283.6,348.8 284.4,349.6 285.1,349.8 285.3,350
			286.8,349.8 287,350 288,350 288.6,350.4 290.1,350.4 290.3,350.2 294.5,350.2 294.7,350 295.5,350 297.4,349 298.2,348.8
			298.3,348.5 298.7,348.3 298.7,348 300.4,346.2 301.5,343.8 301.5,343.2 301.9,342.4 301.9,341.5 301.7,341.1 301.9,340.9 		"/>
		<polygon fill="#012169" points="239.5,327.5 239.5,327.7 239.6,327.8 240,327.8 240.3,327.5 240.2,327.4 239.6,327.4 		"/>
		<polygon fill="#FFFFFF" points="614.6,237.3 614.4,237.1 613.2,237.1 613.1,236.9 612.7,236.9 612.3,236.5 610.5,236.5
			610.5,243.9 610.6,243.9 610.8,243.9 611.3,243.2 611.6,243.1 611.7,242.8 611.9,242.8 613.6,241.2 613.8,241.2 614.6,240.4
			614.6,237.3 		"/>
		<path fill="#FFFFFF" d="M530.9,261.3l0.2,0.1l0.1,0C531.1,261.3,531,261.3,530.9,261.3z"/>
		<path fill="#FFFFFF" d="M526.2,260.7v0.4l0.1,0.1l1.7,0l0.2-0.2h1.4C528.6,260.8,527.5,260.7,526.2,260.7z"/>
		<path fill="#CF142B" d="M593.8,243.5l-0.5,0.4l-1,0.6l0,0.1c1.1-0.2,2.1-0.5,2.8-1.1L593.8,243.5z"/>
		<polygon fill="#CF142B" points="541.3,250.4 541.2,250.4 541.3,250.4 		"/>
		<path fill="#CF142B" d="M535.6,258.7c0.4-1,0.8-1.4,1.2-1.7c0.1-0.3,0.2-0.6,0.5-0.8c0.2-0.1,0.3-0.2,0.5-0.3c-0.1,0-0.1,0-0.2,0
			l-1.8,0.1l1.2-1.3c0.9-0.9,1.5-1,2-1c0,0,0.1,0,0.1,0l0.3-0.2l0.1,0c0.1,0,0.3,0,0.4,0c0.4,0,1,0.3,1.3,0.7
			c0.2,0.2,0.3,0.4,0.4,0.6c0.1,0.3,0.2,0.5,0.4,0.6c0.2,0.2,0.8,0.3,1.2,0.3c0.5-0.4,2.2-1.4,3.6-2.1c-0.3-0.3-0.6-0.8-0.8-1.1
			c-0.6,0.1-1.5,0.1-2.1,0c-0.9-0.2-2-1.1-2.1-1.2l-1.1-0.9l-0.9,0l-0.2,0.2l-0.4,0l-0.6,0.4l-0.8,0l-0.2,0.2l-0.6,0l-0.8,0.4
			l-0.4,0l-0.5,0.5l-0.4,1l-0.7,0.7l-1.2,0.6l-1,0.2l-0.2,0.2l-1.3,0.4l-0.4,0.4h-0.4l-0.4,0.4l-0.6,0.2l-1.2,0.6l-0.7,0.7l-0.4,0.8
			l-0.9,0.5l-0.1,0.2v1.4c1.3,0,2.5,0.1,3.5,0.3h0.7l0.5,0.3c0.1,0,0.3,0.1,0.4,0.1l0.8,0l0.2-0.2h0.4l1.5-1l0.8-0.6l0.4-0.1
			L535.6,258.7z"/>
		<path fill="#CF142B" d="M607.7,237.1l-0.6,0.4l-0.4,0l-1.7,1.6h-0.2l-1,1l-0.6,0.2l-0.8,0.6h-0.4l-0.4,0.4l-1.3,0.4l-0.2,0.2h-0.4
			l-0.2,0.2l-0.7,0c0,0.1,0,0.2,0,0.3c-0.2,3.3-3.5,4.5-4.8,4.9c-1.9,0.7-4.2,0.8-6.4,0.7l-0.3,0.2l-0.8,0.4h-0.4l-0.2,0.2l-0.6,0.1
			c0.1,0.2,0.3,0.5,0.5,0.6c0.3,0.1,1,0,1.6-0.2c0.4-0.1,0.9-0.2,1.3-0.3c1-0.1,2.6,0,3.3,0.1c0.3-0.3,0.6-0.6,1-0.7
			c0.4-0.1,1-0.2,1.4,0c0.2,0.1,0.5,0.3,0.8,0.8l0.7-0.1l0.6-0.4h0.4l0.2-0.2l1.3-0.2l0.2-0.2l1.3-0.2l0.8-0.4l2.1-0.4l0.2-0.2
			l1.5-0.2l0.8-0.4l0.6,0l1-0.4l0.6,0l0.2-0.2l0.6,0l0.8-0.6l0.1,0V237L607.7,237.1z"/>
		<polygon points="610.4,236.5 610.2,236.7 609.6,236.7 609.4,236.9 609.1,237 609.1,245.1 609.6,244.9 610.5,243.9 610.5,236.5
			"/>
		<polygon points="526.2,260.7 526.2,259.3 525.8,259.9 525.8,260.7 526.2,261.1 		"/>
		<path fill="#E4C900" d="M548.3,252.9C548.3,252.9,548.4,252.9,548.3,252.9c0-0.2,0-0.4-0.1-0.5c-0.2-0.2-0.4-0.5-0.5-0.9l-0.2,0.4
			C547.8,252.4,548.1,252.8,548.3,252.9z"/>
		<path fill="#E4C900" d="M544.3,251.2c0.1,0,0.2,0.1,0.3,0.1c0.4,0.1,1.3,0,1.9-0.1c-0.2-0.3-0.5-0.7-0.6-1l-0.1,0l-0.7,0.6
			C544.7,250.9,544.5,251.1,544.3,251.2z"/>
		<path fill="#806600" d="M544.2,252.7c0.6,0.1,1.5,0,2.1,0c0.2,0.3,0.5,0.8,0.8,1.1c0.2-0.1,0.5-0.2,0.7-0.3
			c0.2-0.1,0.4-0.1,0.7-0.2c0-0.1,0-0.1,0-0.2c0,0,0-0.1,0-0.1c0,0-0.1,0-0.1,0c-0.2-0.1-0.5-0.5-0.8-0.9l-0.2,0.4l-0.7-1
			c-0.1-0.1-0.1-0.2-0.2-0.3c-0.6,0.1-1.5,0.2-1.9,0.1c-0.1,0-0.2,0-0.3-0.1c0.2-0.1,0.4-0.3,0.7-0.5l0.7-0.6l-0.2,0l-0.2,0.2
			l-0.8,0l-0.2-0.2l-2.1,0l-0.2,0.2l-0.7,0l-0.1,0l-0.2,0.2l-0.1,0l1.1,0.9C542.2,251.6,543.3,252.5,544.2,252.7z"/>
		<path fill="#E4C900" d="M578.4,253.4l0.4,1.3l0.3,0c-0.1-0.2-0.4-0.6-0.5-1C578.6,253.5,578.5,253.5,578.4,253.4z"/>
		<path fill="#E4C900" d="M578.2,253.2c-0.1-0.2-0.3-0.3-0.4-0.5l-0.1,0.1l-0.4,0l-0.3,0.3C577.4,253.3,578,253.2,578.2,253.2z"/>
		<path fill="#806600" d="M578.6,253.6c0.2,0.4,0.4,0.9,0.5,1l0.1,0l0.2-0.2l0,0C579.2,254.2,578.9,253.9,578.6,253.6z"/>
		<path fill="#FFE66F" d="M578.2,253.2c-0.2,0-0.9,0.1-1.1-0.1l-0.1,0.1h-0.4l-0.6,0.6l-0.3,0.1v0.8l0.3,0.3l2.3-0.2l0.2-0.2l0.4,0
			l-0.4-1.3C578.4,253.3,578.3,253.3,578.2,253.2z"/>
		<path fill="#FEE46E" d="M597.1,243.7c0.2-0.3,0.3-0.7,0.3-1.1l-0.2,0c0,0.2-0.1,0.4-0.2,0.6c-1.2,2.3-4,2.7-6.5,2.9l-0.4,0.3
			c2.6-0.1,5.1-0.7,6.6-2.4C597,243.9,597,243.8,597.1,243.7z"/>
		<path fill="#FEE46E" d="M593.7,249.9c0,0-0.1,0-0.1,0c-0.1,0-0.3,0.2-0.5,0.5l0,0l0,0l0.8-0.2l0.2-0.1c-0.1-0.1-0.1-0.1-0.2-0.2
			C593.8,249.9,593.8,249.9,593.7,249.9z"/>
		<path fill="#FEE46E" d="M580.4,250.8l-0.1,0.1l-0.6,0.2l-0.4,0.3c0.7,0.8,1.4,1.6,2.3,2.1c0.5,0.3,1.2,0.4,1.8,0.5l0.1,0l0.2-0.2
			l0.4,0.2l0.2-0.2h0.6l0.2-0.2l0.8-0.2l0.2-0.2C583.5,253.5,581.9,252.4,580.4,250.8z"/>
		<path fill="#FEE46E" d="M541.3,256.6c-0.3-0.3-0.5-0.6-0.7-0.9c-0.1,0.4-0.4,0.7-0.8,0.8l0.1,0.6l0.3,0.3l1.3,0l0.4-0.4l0,0
			c-0.1-0.1-0.3-0.1-0.4-0.2C541.5,256.8,541.4,256.7,541.3,256.6z"/>
		<path fill="#FEE46E" d="M589.9,250.7c-0.8,0.1-1.4,0.4-2.2,0.5c-0.7,0.1-1.7,0.2-1.7,0.2c-1,0-1.9-0.9-2.7-1.8l-0.3,0.2l-1,0.2
			c1.3,1.3,2.7,2.4,4.8,2.7l0,0l1.2-0.2l0.8-0.4l1.7-0.2l0.4-0.4h0.4l1-0.6l0,0C591.6,250.7,590.7,250.6,589.9,250.7z"/>
		<path fill="#FEE46E" d="M559,250.2c-0.1,0.5-0.4,1-0.7,1.4h0.8l1.2-0.9c0,0,0,0,0,0l0-0.4l0.2-0.2l0-1.2l-0.3-0.3h-0.2l-0.8-0.7
			c-0.1,0-0.1,0-0.2,0C559.1,248.5,559.1,249.6,559,250.2z"/>
		<path fill="#E4C900" d="M589,250.6c-0.3,0-0.6,0.1-1,0.2c-0.8,0.2-1.7,0.4-2.5,0.1c-0.6-0.2-0.9-0.8-1.2-1.3
			c-0.1-0.1-0.1-0.2-0.2-0.3l-0.4,0l-0.4,0.2c0.8,0.9,1.7,1.8,2.7,1.8c0,0,1-0.1,1.7-0.2c0.8-0.1,1.4-0.5,2.2-0.5
			c0.8-0.1,1.7,0,2.3,0.1l0.4,0l0.2-0.1l-0.3,0C592.4,250.7,590.2,250.5,589,250.6z"/>
		<path fill="#E4C900" d="M593.7,249.9c0.1,0,0.1,0,0.1,0c0.1,0,0.1,0.1,0.2,0.2l0,0c0-0.1-0.1-0.2-0.1-0.2
			C593.9,249.9,593.8,249.9,593.7,249.9z"/>
		<path fill="#E4C900" d="M558.9,247.7c0.2,1.6-0.1,2.9-0.9,3.9h0.2c0.3-0.4,0.5-0.9,0.7-1.4c0.2-0.6,0.1-1.7,0.1-2.4
			c0.1,0,0.1,0,0.2,0l-0.1-0.1L558.9,247.7z"/>
		<path fill="#E4C900" d="M579.3,251.5l-0.2,0.1l-0.1,0.2c0.9,1.1,1.9,2,2.9,2.4h0.9l0.2-0.2l0.5,0c-0.7-0.1-1.3-0.2-1.8-0.5
			C580.7,253.1,580,252.3,579.3,251.5z"/>
		<path fill="#E4C900" d="M542,257.1l0.1,0c-0.2,0-0.3-0.1-0.5-0.2C541.8,257,541.9,257,542,257.1z"/>
		<path fill="#E4C900" d="M597.1,243.7c-0.1,0.1-0.2,0.2-0.3,0.3c-1.6,1.7-4.1,2.4-6.6,2.4l0,0l-0.3,0.2c1.3-0.1,2.6-0.2,3.8-0.6
			C595.5,245.4,596.6,244.7,597.1,243.7z"/>
		<path fill="#FFF1A1" d="M560.4,250.7L560.4,250.7C560.4,250.7,560.3,250.7,560.4,250.7L560.4,250.7z"/>
		<path fill="#FFF1A1" d="M582,249.9l-0.2,0l-1.2,0.6l-0.2,0.3c1.5,1.5,3.1,2.6,5.6,2.4l0.7-0.6C584.7,252.3,583.3,251.2,582,249.9z
			"/>
		<path fill="#806600" d="M594.2,247.4c1.3-0.5,4.6-1.7,4.8-4.9c0-0.1,0-0.2,0-0.3l-0.1,0l-0.2,0.2l-0.8,0l-0.2,0.2l-0.2,0
			c0,0.4-0.1,0.7-0.3,1.1c-0.5,1-1.6,1.7-3.5,2.4c-1.1,0.4-2.4,0.6-3.8,0.6l-2.1,1.5C589.9,248.2,592.2,248.1,594.2,247.4z"/>
		<path fill="#806600" d="M594.5,248.5c-0.4-0.2-1-0.1-1.4,0c-0.4,0.1-0.7,0.4-1,0.7c-0.7,0-2.2-0.1-3.3-0.1c-0.4,0-0.8,0.1-1.3,0.3
			c-0.6,0.2-1.2,0.3-1.6,0.2c-0.1-0.1-0.3-0.3-0.5-0.6l-1.1,0.1l-0.2,0.2l-0.1,0c0.1,0.1,0.1,0.2,0.2,0.3c0.3,0.5,0.6,1.1,1.2,1.3
			c0.8,0.3,1.7,0.1,2.5-0.1c0.4-0.1,0.7-0.2,1-0.2c1.2-0.1,3.4,0.1,3.4,0.1l0.3,0l0.4-0.3l0,0c0.3-0.3,0.4-0.4,0.5-0.5
			c0,0,0.1,0,0.1,0c0.1,0,0.2,0,0.2,0c0,0,0.1,0.1,0.1,0.2l0.6-0.3l0.4-0.4l0.3-0.1C595.1,248.8,594.7,248.6,594.5,248.5z"/>
		<path fill="#806600" d="M547.8,253.4c-0.2,0.1-0.4,0.2-0.7,0.3c-1.4,0.7-3.1,1.7-3.6,2.1c-0.5,0-1.1-0.1-1.2-0.3
			c-0.2-0.2-0.3-0.4-0.4-0.6c-0.1-0.2-0.2-0.4-0.4-0.6c-0.3-0.4-0.9-0.7-1.3-0.7c-0.1,0-0.3,0-0.4,0l0.2,0.2c0.7,0.4,1,1.2,0.8,2
			c0,0,0,0,0,0c0.1,0.3,0.3,0.6,0.7,0.9c0.1,0.1,0.3,0.2,0.4,0.2c0.2,0.1,0.3,0.1,0.5,0.2l0.4-0.2l1.2-1l0.8-0.4l0.4,0l0.8-0.6
			l0.8-0.2l0.2-0.2l0.4,0l0.2-0.2h0.4l1-0.6h0c0-0.1-0.1-0.3-0.1-0.4C548.2,253.3,548,253.4,547.8,253.4z"/>
		<path fill="#806600" d="M597.1,243.2c0.1-0.2,0.2-0.4,0.2-0.6l-0.6,0l-0.2,0.2l-0.6,0l-0.8,0.4l-1.3,0.2l-0.1,0.1l1.3-0.1
			c-0.7,0.6-1.7,0.9-2.8,1.1l-0.2,0.4l-0.2,0l-1.3,1.3C593.1,246,595.9,245.5,597.1,243.2z"/>
		<path fill="#806600" d="M539.4,256.7l-0.4,0.1l0.5,0.4l0.4,0l0.1,0.1l-0.1-0.6C539.7,256.6,539.6,256.7,539.4,256.7z"/>
		<path fill="#806600" d="M538.7,256.4c-0.4-0.4-0.5-0.5-0.9-0.5c-0.2,0.1-0.4,0.2-0.5,0.3c-0.3,0.2-0.4,0.5-0.5,0.8
			c0.1-0.1,0.2-0.1,0.3-0.2c0,0,0.1,0,0.1-0.1l0.2-0.3l0.3,0c0.3,0,0.5,0.1,0.7,0.2l0.5-0.1l0,0L538.7,256.4z"/>
		<path fill="#806600" d="M579,251.8l-0.1,0.2l-0.2,0l-0.9,0.7c0.1,0.2,0.3,0.3,0.4,0.5c0.1,0.1,0.1,0.1,0.2,0.2
			c0.1,0.1,0.1,0.1,0.2,0.2c0.3,0.3,0.6,0.6,0.9,0.8l1.1,0l0.2-0.2h1.1C580.9,253.9,579.9,252.9,579,251.8z"/>
		<path fill="#FEE46E" d="M554.2,248c-0.2,0.2-0.4,0.4-0.6,0.5c0.1,0,0.1,0,0.2-0.1C554,248.3,554.1,248.2,554.2,248z"/>
		<path fill="#FEE46E" d="M557,250.4c0.2-0.6,0.4-1.6,0.4-2.2c0-0.2-0.1-0.5-0.1-0.8l-0.2,0l-0.2-0.2l-0.3,0
			c0.2,0.9,0.1,2.1-0.5,3.4c0.1-1.1-0.1-2.2-0.3-3.2l-0.3,0l-0.1,0c0.1,0.4,0.3,1.9,0.3,2.5c0,0.3-0.1,1.1-0.2,1.5l0.5,0
			C556.5,251.1,556.9,250.7,557,250.4z"/>
		<path fill="#FEE46E" d="M553.6,248.9c0.2,0.7,0.3,0.8,0.1,2.6c0,0,0,0,0,0c0.1-0.2,0.7-1.2,1-1.7c0.3-0.5,0.6-2,0.7-2.4l-0.7,0.4
			l-0.2,0c-0.2,0.4-0.5,0.7-0.9,0.9c-0.2,0.1-0.5,0.2-0.7,0.2c-0.2,0.3-0.4,0.6-0.7,0.8l-1,1l-0.3-1.4c0-0.1,0-0.2,0-0.3l-0.6,0.1
			l-0.2,0.2h-0.2c0,0.1,0,0.1,0.1,0.2c0.2,0.5,1.4,1.5,1.4,1.5l1.2-0.9c0,0-0.5,1.2-0.7,1.5c-0.2,0.4-1.4,0.9-1.4,0.9l0.3-1
			c0,0-1.1-0.8-1.2-1.2c-0.1-0.3-0.1-0.6-0.2-0.9h-0.2l-0.2,0.2h-0.4c0,0.1,0,0.1,0,0.2c0.2,0.7,0.7,1.4,1,2
			c0.1,0.2,0.3,0.9,0.5,1.3l0.2,0l1.2-0.6l0.6-0.4l0.3-0.1C553.2,250.9,553.6,248.9,553.6,248.9z"/>
		<path fill="#FFEFA7" d="M550.9,251.5l-0.3,1c0,0,1.1-0.5,1.4-0.9c0.2-0.3,0.7-1.5,0.7-1.5l-1.2,0.9c0,0-1.2-0.9-1.4-1.5
			c0-0.1,0-0.1-0.1-0.2h-0.5c0,0.3,0,0.6,0.2,0.9C549.8,250.7,550.9,251.5,550.9,251.5z"/>
		<path fill="#FFEFA7" d="M556.2,250.5c0.6-1.3,0.7-2.5,0.5-3.4l-0.3,0l-0.2,0.2l-0.3,0C556.1,248.3,556.3,249.4,556.2,250.5z"/>
		<path fill="#E4C900" d="M553.3,248.6c0.1,0,0.2-0.1,0.4-0.1c0.2-0.1,0.4-0.3,0.6-0.5c0.1-0.1,0.1-0.2,0.2-0.2l-0.3,0l-0.4,0.4
			l-0.2,0.1C553.4,248.3,553.3,248.4,553.3,248.6z"/>
		<path fill="#806600" d="M553.8,248.4c-0.1,0-0.1,0-0.2,0.1c-0.1,0-0.2,0.1-0.4,0.1c-0.1,0.1-0.1,0.2-0.2,0.3
			c0.2,0,0.5-0.1,0.7-0.2c0.4-0.2,0.7-0.5,0.9-0.9l-0.3,0c-0.1,0.1-0.1,0.2-0.2,0.2C554.1,248.2,554,248.3,553.8,248.4z"/>
		<path fill="#2C5AA0" d="M551.4,250.7l1-1c0.2-0.3,0.5-0.5,0.7-0.8c0.1-0.1,0.1-0.2,0.2-0.3c0.1-0.1,0.2-0.3,0.2-0.4l-0.7,0.2
			l-1.2,0.6l-0.5,0.1c0,0.1,0,0.2,0,0.3L551.4,250.7z"/>
		<path fill="#E4C900" d="M549.8,251.8c-0.3-0.6-0.8-1.3-1-2c0-0.1,0-0.1,0-0.2h-0.2l-0.2,0.2l0.4,0c0,0.2,0.1,1.2,0.6,1.7
			c0.3,0.3,0.3,0.7,0.5,1.2c0,0.1,0.1,0.3,0.1,0.5l0.4-0.1C550.1,252.7,549.9,252,549.8,251.8z"/>
		<path fill="#E4C900" d="M555.6,247.4L555.6,247.4c-0.1,0.4-0.5,1.9-0.8,2.4c-0.3,0.6-0.9,1.5-1,1.7c0.1-0.1,0.3-0.3,0.4-0.4
			l1.6-1.9l-0.3,2.2l0.2,0c0.1-0.5,0.2-1.2,0.2-1.5C555.9,249.2,555.7,247.7,555.6,247.4z"/>
		<path fill="#E4C900" d="M557.4,247.3L557.4,247.3c0,0.3,0,0.6,0.1,0.8c0,0.6-0.2,1.7-0.4,2.2c-0.1,0.3-0.5,0.7-0.9,1l0.1,0
			C557.4,250.4,557.7,249.1,557.4,247.3z"/>
		<path fill="#E4C900" d="M553.8,251.5c0.2-1.8,0.1-1.9-0.1-2.6c0,0-0.4,2-1.1,3l0.9-0.1C553.6,251.7,553.7,251.6,553.8,251.5z"/>
		<path fill="#806600" d="M558.9,247.7l-0.8-0.2l-0.2-0.2l-0.6,0c0.4,1.8,0,3.1-1.1,4.1l0.1,0l0.2,0.2h1.4
			C558.8,250.5,559.1,249.2,558.9,247.7z"/>
		<path fill="#806600" d="M554.2,251c-0.1,0.2-0.3,0.3-0.4,0.4c0,0,0,0,0,0c-0.1,0.1-0.2,0.2-0.3,0.3l0.1,0l0.2-0.2l1,0l0.2-0.2
			l0.6,0l0.3-2.2L554.2,251z"/>
		<path fill="#806600" d="M549.8,252.7c-0.1-0.5-0.2-0.9-0.5-1.2c-0.5-0.5-0.6-1.5-0.6-1.7l-0.4,0l0,0l-0.7,0l-0.2,0.2l-1.6,0.2
			c0.2,0.4,0.4,0.7,0.6,1c0.1,0.1,0.1,0.2,0.2,0.3l0.7,1l0.2-0.4l0.2-0.4c0.2,0.3,0.3,0.6,0.5,0.9c0,0.1,0.1,0.3,0.1,0.5
			c0,0,0,0.1,0,0.1c0,0.1,0,0.1,0,0.2c0,0.1,0.1,0.3,0.1,0.4h0.4l0.6-0.4l0.4-0.1C549.9,253,549.8,252.8,549.8,252.7z"/>
		<path fill="#2C5AA0" d="M537.8,256.6l-0.3,0l-0.2,0.3c0,0-0.1,0-0.1,0.1c-0.1,0.1-0.2,0.1-0.3,0.2c-0.4,0.3-0.8,0.7-1.2,1.7
			l-0.3,0.7l0.7-0.1l0.3-0.3l0-0.6l0.2-0.4l0.9-0.9l0.4-0.2l0.6-0.1C538.3,256.7,538,256.6,537.8,256.6z"/>
		<path fill="#2C5AA0" d="M539.4,256.7c0.2,0,0.3-0.1,0.4-0.1c0.4-0.2,0.6-0.5,0.8-0.8c0,0,0,0,0,0c0.2-0.8,0-1.6-0.8-2l-0.2-0.2
			l-0.1,0l-0.3,0.2c0,0-0.1,0-0.1,0c-0.5,0-1.2,0.1-2,1l-1.2,1.3l1.8-0.1c0.1,0,0.1,0,0.2,0c0.4,0,0.5,0.1,0.9,0.5l0.2,0.3l0.1,0
			L539.4,256.7z"/>
	</g>
</g>

</svg>
