<?xml version="1.0" encoding="utf-8"?>

<svg version="1.2" baseProfile="tiny" xmlns="http://www.w3.org/2000/svg" xmlns:xlink="http://www.w3.org/1999/xlink" x="0px"
	 y="0px" viewBox="295.1 134.5 249.8 325" xml:space="preserve">

<g id="Lebanon">
	<g>
		<polygon fill="#ED1C24" points="539.3,210.4 538.1,210.5 536.9,210 535.1,208.1 531.5,203 530.7,201.5 530.3,199.9 530.4,198.2
			530.9,197.2 531.5,196.3 532,194.9 532.6,191.6 532.7,189.4 531.8,187.6 529.2,185.7 527.9,186.1 526.7,185.4 524.3,182.3
			521.5,181.1 519.3,179.3 517.6,176.7 516.6,173.3 514.3,172.5 509.7,172.2 504.9,172.4 501.6,173.3 501.2,173.5 500.7,173.5
			500.3,173.5 499.8,173.3 497.7,169.3 500.5,166.4 505,163.9 508.3,161.4 509,158.2 508.8,155.2 509.2,152.8 511.6,151.3
			514.1,152 515.9,153.5 517,152.5 517.7,146.2 513.7,147.5 509.5,147.6 505.6,146.2 502.3,143.2 498.3,136.1 495.9,134.5
			492.4,136.9 491.9,138.5 491.8,142.4 491.2,144.2 489.7,145.8 488,146.6 478,147.2 477,146.8 475,145.4 474.2,145 473.2,145.3
			471.2,146.5 470.5,146.7 459,145.8 454.7,146.5 450.9,146.4 447.3,145.4 444.4,143 443.1,142.4 441.7,142 439.6,142.1
			441.4,144.4 442.5,148 442.9,152.2 442.8,161.6 441.9,164.5 440.1,166.3 437.5,168.2 428.6,176.6 415.4,180.1 412.3,179.2
			412.3,180.5 415.4,185.4 412.4,189.2 403.2,194.3 401,198.4 398.5,204.8 395.8,209 392.9,206.6 389,210 387.3,214.6 417.8,214.6
			540.9,214.6 541.2,212.3 540.4,210.7 		"/>
		<polygon fill="#ED1C24" points="367.9,379.4 324.3,379.4 323.5,380 324.2,382.5 323.2,385 320.2,389.5 319.5,392.3 319.4,397.6
			319,400.2 315.9,408.9 313.4,412.5 309.9,415.2 313.3,420.2 312.6,426.1 307.6,436.9 307,435.6 306.4,435.4 305.4,435.5
			306.4,436.9 305.3,438.6 304.3,440.8 303.1,442.8 299.4,444.4 297.6,446.1 296.2,448.3 295.1,450.5 295.2,451.1 295.2,451.6
			295.5,451.8 296.3,451.7 296.1,452.6 296.1,452.9 309.3,453.9 310,453.6 311.8,452.2 312.9,451.7 313.9,451.8 316.2,452.4
			317.4,452.5 323.6,450.5 325.6,450.5 327.4,451.3 329.3,452.8 330.9,454.8 332.1,457.1 333.6,459.2 335.8,459.5 345.2,457
			353.1,453.6 358.2,453.2 359,450.2 362.2,444.7 363.6,441.3 364.5,436.3 364.9,426.6 366.1,422.2 367.7,419.5 368.6,416.8
			369.8,414.9 371.7,414.8 372.7,415.9 375.7,420.6 377.7,422.2 377.8,422.2 377.8,422.2 378.8,423 378.9,422.2 378.9,422.2
			378.4,418.6 379.8,417.1 384.9,416 388.2,413.3 394.5,406.7 397.4,405.9 399.6,405.7 402,405 404.3,404 406.3,402.8 409,399.8
			412.3,393.1 414.9,390.1 423,385.2 426.1,383.4 430.8,379.4 369.7,379.4 		"/>
		<path fill="#FFFFFF" d="M391.9,254.8c2.7,0,3.3-1.1,2.2-3.5c-0.8-1.6-1.7-1.9-4-1.4c-1.3,0.3-2.4,0.2-2.9,0c0,0,0,0-0.1,0
			c0,0,0,0,0,0c0,0,0,0,0,0c0,0,0,0,0,0c0,0,0,0,0,0c0,0,0,0,0-0.1c0,0,0,0,0,0c0,0,0,0,0,0c0,0,0,0,0,0s0,0,0,0c0,0,0,0,0-0.1
			c0,0,0,0,0-0.1c0,0,0-0.1,0-0.1c0.7-1.5,5.9-5.3,9.4-6.8c3.7-1.5,8.3-5.2,8.7-6.8c0,0,0-0.1,0-0.1c0,0,0,0,0-0.1
			c0-0.6-0.7-0.8-1.6-0.5c-0.9,0.4-2.8,1-4.3,1.4l-2.7,0.7l2.5-3.1c1.4-1.7,4.9-4.8,7.8-6.8c2.9-2.1,6.5-5.8,8-8.3l2.7-4.5h-30.5
			l-0.3,0.8l-0.7,6.3l-0.1,6.3l-0.6,1l-2.4,1.7l-0.5,1.5v6.8l0.5,2.8l2.4,4.4l0.6,2.3l-0.8,6.2l-1.7,5.4
			C384.9,257.5,389,254.8,391.9,254.8z"/>
		<path fill="#FFFFFF" d="M419.7,219c2.3,5.1,7.9,10.9,11.2,11.7c1.2,0.3,4.8,1.1,7.9,1.7c4.1,0.9,7.8,2.8,13.7,7.4l8,6.2l-5.6-0.3
			c-2.8-0.2-5.1,0-5.5,0.3c0,0,0,0,0,0c0,0,0,0,0,0c0,0,0,0,0,0c0,0,0,0,0,0c0,0,0,0,0,0c0,0,0,0,0,0c0,0,0,0.1,0,0.1
			c0.8,1.6,10.8,8.8,14.5,10.3l3.7,1.5l-5.6,0c-3.1,0-6.7-0.7-8.1-1.6c-3.4-2.2-8.7-2.1-9.5,0c-0.4,1.3,0.7,2.3,4,3.9
			c2.6,1.2,7.2,4.7,10.4,7.9c3.2,3.1,10.2,8.1,15.7,11.2c6.1,3.4,8.8,5.4,8.2,6.2c-0.6,0.7-3.9,0.5-9.8-0.5c-5.3-0.9-8.5-1-9.1-0.3
			c-0.4,0.4-0.6,0.8-0.6,1.1c0,0.1,0,0.2,0,0.3c0,0.1,0.1,0.3,0.1,0.4c0.5,1.1,2.7,2,6.6,2.8c3.2,0.7,8.9,2.3,12.8,3.5
			c9.6,3.1,7.7,4.7-6.2,5.3c-10.3,0.4-14.1,1.4-12.8,3.6c0,0,0,0,0,0c0,0,0,0,0,0c0,0,0,0,0.1,0.1c0.3,0.3,1.3,0.6,2.5,0.8l1.2-0.8
			l1.1,0.6l0.3,0.3c2.8,0.1,5.5,1,7.7,2.5l1.7-1l2.3-1.9l2.5-1l2.9,0.6l8.6,4.2l6.3,1.5l3.2-0.6l2-2.6l-0.4-4.1l-2.8-1.8l-6.5-1.1
			l-4.9-3.8l-1.1-1.2l-1-1.9l-0.3-0.7l3.6-7.2l2.2-3.6l2.7-3.2l6.6-5.8l5.6-7l3.5-1.8l1.9,0.2l3.6,1.3l2.3-0.1l2.7-1.4l0.9-1.8
			l0.3-2.3l1-2.8l3.3-4.1l7.4-6.4l3.9-6.4l4.7-5.1l-1-2.2l-4-4l-1.1-2.8l-0.8-3.8l1.3-2.6l1.6-2.2l0-0.3H417.8L419.7,219z"/>
		<path fill="#FFFFFF" d="M396.2,269.3c-0.1,0-0.1,0-0.2,0c-2,0-3.2,0.4-3.7,1.2c-0.5,0.9-0.2,2.4,0.9,4.6c0.9,1.9,1.4,2,2.8,0.8
			c0.9-0.8,2.3-2.2,3-3.1C401.1,270,400.5,269.3,396.2,269.3z"/>
		<path fill="#FFFFFF" d="M443,269.2c-1.2-0.5-2.4-0.7-3.5-0.6c-2.1,0.1-3.9,1.2-4.8,3c-0.9,1.9-0.6,2.3,2.3,3.3
			c5.9,1.9,7.6,1.5,8.1-1.6C445.5,270.8,445.1,270.1,443,269.2z"/>
		<path fill="#FFFFFF" d="M395,316.3c-0.2,0-0.5,0-0.6,0c-1.5,0.1-1.4,0.7,0,5.7c1.6,5.7,4.9,6.2,4.9,0.6
			C399.2,318.5,397.7,316.3,395,316.3z"/>
		<path fill="#FFFFFF" d="M419.9,266c-0.8,0.1-2.6,0.6-4.1,1.3l-2.9,1.3l2.5,0.9c1.4,0.5,2.7,0.9,2.9,0.9c0,0,0,0,0,0c0,0,0,0,0,0
			c0.3,0,1.3-0.5,2.2-1.1c2.1-1.2,1.7-3.3-0.6-3.3C420,266,419.9,265.9,419.9,266z"/>
		<path fill="#FFFFFF" d="M397.5,251C397.5,251,397.5,251,397.5,251c0.1,0,0.1,0,0.1,0c0.3,0,0.9-0.3,1.8-1c1.2-0.9,2.4-2.2,2.6-2.9
			c0,0,0,0,0-0.1c0,0,0-0.1,0-0.1c0,0,0,0,0-0.1c0,0,0-0.1,0-0.1c0,0,0,0,0-0.1c0-0.1,0-0.1-0.1-0.2c0,0,0,0,0,0c0,0,0,0,0,0
			c-0.3-0.4-1.1-0.6-2.1-0.6c-0.1,0-0.3,0-0.4,0c-1.8,0.1-2.2,0.7-2.2,2.9C397.2,250,397.2,250.7,397.5,251
			C397.5,251,397.5,251,397.5,251z"/>
		<path fill="#FFFFFF" d="M406.5,319.8c-0.7-0.1-1.1-0.2-1.4-0.2c-0.1,0-0.2,0.1-0.3,0.1c0,0,0,0.1-0.1,0.1
			c-0.2,0.4,0.2,1.3,1.1,3.1c0.8,1.6,1.6,2.5,2.3,2.6c0.1,0,0.1,0,0.2,0c0,0,0.1,0,0.1,0c0.1,0,0.2-0.1,0.2-0.1c0,0,0,0,0.1,0
			c0,0,0.1-0.1,0.1-0.1c0,0,0.1-0.1,0.1-0.1c0.3-0.5,0.5-1.5,0.2-2.9C409,321.1,407.8,320,406.5,319.8z"/>
		<path fill="#FFFFFF" d="M397.2,262.9C397.2,262.9,397.2,262.9,397.2,262.9c0,0.1,0,0.1,0,0.1c0,0,0,0,0,0.1c0,0,0,0,0,0
			c0,0,0,0.1,0,0.1c0,0,0,0,0,0c0,0.1,0.1,0.1,0.1,0.2c0,0,0,0,0,0c0.8,0.7,3.8-0.1,6.6-2c3.1-2.1,4.7-6.7,2.2-6.7
			c-0.1,0-0.1,0-0.2,0C403.2,255,397.3,260.4,397.2,262.9z"/>
		<path fill="#FFFFFF" d="M405.7,294C405.8,294,405.8,294,405.7,294c0.1-0.1,0.1-0.1,0.2-0.2c0,0,0,0,0,0c0,0,0,0,0,0
			c0,0,0-0.1,0.1-0.1c0,0,0-0.1,0-0.1c0,0,0-0.1,0-0.1c0,0,0-0.1,0-0.2c0-0.6-0.4-1.3-1.3-2.1c-1.4-1.2-2.8-1.7-3.7-1.6
			c-0.5,0.1-0.8,0.4-0.8,1c0,0,0,0,0,0c0,0,0,0,0,0c0.1,0.6,1.1,1.8,2.2,2.7C403.9,294.4,405.2,294.5,405.7,294z"/>
		<path fill="#FFFFFF" d="M428.5,294.1c-0.5,0.1-0.8,0.6-0.8,1.7c0,2.3,0.8,3.6,2.3,3.6c0,0,0,0,0,0c0,0,0,0,0,0c0,0,0,0,0,0
			c0,0,0,0,0,0c0,0,0,0,0,0c0,0,0,0,0.1,0c0,0,0,0,0,0c0,0,0,0,0,0c0.3-0.3,0.5-1.2,0.4-2.3C430.2,295.2,429.2,294,428.5,294.1z"/>
		<path fill="#FFFFFF" d="M422.9,291c-0.7-0.8-1.1-1.1-1.5-1.1c-0.4,0-0.8,0.6-1.5,1.6c-1.7,2.7-1,5.1,2,6.6c2.8,1.4,4.2,0.1,3.3-3
			C424.8,293.8,423.7,292,422.9,291z"/>
		<path fill="#FFFFFF" d="M429,265.4c-0.7,0.1-1.5,0.6-2.3,1.7c-1.4,1.9-2.1,3-1.9,3.7c0,0,0,0.1,0,0.1c0,0,0,0,0,0c0,0,0,0,0,0
			c0,0,0,0,0,0.1c0,0,0,0,0,0c0.3,0.4,1.1,0.4,2.5,0.3c1.7-0.2,2.9-1.1,3.1-2.4C430.9,266.6,430.2,265.3,429,265.4z"/>
		<path fill="#FFFFFF" d="M420.5,251.7c0-1.7-0.6-2.6-1.9-2.4c-1,0.1-2.5,0.7-4.6,1.8c-3.3,1.7-4.4,3.6-3.1,5c0,0,0,0,0,0
			c0,0,0,0,0,0c0.5,0.2,2.6-0.1,5-0.7C419.7,254.5,420.5,253.8,420.5,251.7z"/>
		<path fill="#FFFFFF" d="M421.5,319.4C421.5,319.4,421.5,319.3,421.5,319.4C421.5,319.3,421.4,319.3,421.5,319.4
			c-0.6-0.7-4.6-1.6-6.2-1.5c-0.2,0-0.4,0-0.5,0.1c0,0,0,0,0,0c0,0,0,0,0,0c0,0,0,0,0,0c0,0,0,0,0,0c0,0,0,0,0,0c0,0,0,0,0,0
			c0,0,0,0,0,0c0,0,0,0,0,0c0,0,0,0,0,0c-0.1,0.5,0.3,2.3,0.9,4.4l1.2,4.1l2.4-3.2c1.3-1.7,2.4-3.5,2.4-3.9
			C421.5,319.5,421.5,319.5,421.5,319.4C421.5,319.4,421.5,319.4,421.5,319.4C421.5,319.4,421.5,319.4,421.5,319.4
			C421.5,319.4,421.5,319.4,421.5,319.4C421.5,319.4,421.5,319.4,421.5,319.4z"/>
		<path fill="#FFFFFF" d="M415,287.6C415,287.6,415,287.6,415,287.6C414.9,287.5,414.9,287.5,415,287.6c-0.1-0.1-0.1-0.1-0.1-0.1
			c0,0-0.1,0-0.1-0.1c-0.1-0.1-0.2-0.1-0.3-0.1c-0.1,0-0.3-0.1-0.5-0.1c-0.1,0-0.2,0-0.2,0c-1.8,0.1-2.6,1.7-1.8,3.9
			c0.9,2.5,2.8,1.6,3.2-1.4C415.4,288.7,415.3,288,415,287.6z"/>
		<path fill="#FFFFFF" d="M438.2,253c1-2.8,0.7-3.8-1.3-3.7c-0.3,0-0.6,0-0.9,0.1c-2,0.3-2.9,1.1-3.1,2.9c-0.3,2,0.2,2.5,2.2,2.5
			C436.4,254.8,437.8,254,438.2,253z"/>
		<path fill="#FFFFFF" d="M371.9,309.2c0-1.5-0.9-3.6-2-4.7c-1.9-1.9-2.2-1.9-6.9,1.5c-1.5,1.1-3.2,2-4.7,2.7l-0.4,2.6l-5.2,12.7
			c3.7-3.3,8-6.4,11.8-8.3C370.7,312.5,371.9,311.5,371.9,309.2z"/>
		<path fill="#FFFFFF" d="M367.8,379c0-1.8,5.4-6.9,8-7.6c7.1-1.7,11-4.2,15.4-9.7c10.1-12.6,10.9-20.3,2.5-24.7
			c-3.6-1.9-3.7-1.9-14,2.8c-5.7,2.6-12.6,5.4-15.4,6.2c-7,2.1-15.1,2-16.8-0.2c-0.7-0.9-1-1.9-0.8-2.2c0,0,0,0,0,0c0,0,0,0,0,0
			c0,0,0,0,0,0c0,0,0,0,0,0c0.6-0.4,5.6-2.1,11.3-3.8c15.5-4.6,23.8-10.5,18.9-13.4c-3.2-1.9-7-1.3-11,1.7
			c-3.3,2.5-12.4,6.2-18.4,7.7l-0.9,3.9l-2.6,2.3l1.1,1.3l-6.4,17.2l-0.4,2.5l-1.9,5.9l-4.3,4.5l-7.9,6h43.6
			C367.8,379.3,367.8,379.2,367.8,379z"/>
		<path fill="#FFFFFF" d="M422.5,369.3c-1.7-1-3-2.6-3-3.8c0-2.7-1.8-3.4-5.4-2c-2,0.8-3.6,0.7-5.3-0.3c-3-1.8-7.1-0.7-11.1,3
			c-4.6,4.2-10.6,7-15.6,7c-4.6,0-9.1,2-11.3,5c-0.4,0.5-0.8,1-1.2,1.2h61.1l0.5-0.4l1-2.5c-0.6,0-1.6-0.7-3.1-2.1
			C427.2,372.6,424.2,370.3,422.5,369.3z"/>
		<path fill="#FFFFFF" d="M430.5,369.5C430.4,369.5,430.4,369.5,430.5,369.5C430.4,369.5,430.4,369.5,430.5,369.5
			C430.4,369.5,430.4,369.5,430.5,369.5c-0.1,0.1-0.1,0.1-0.1,0.1c0,0,0,0,0,0.1c0,0,0,0,0,0c0,0,0,0,0,0c0,0,0,0,0,0
			c0,0,0,0.1,0,0.1c-0.1,0.5,0.2,1.6,0.9,2.6c0.9,1.4,1.3,2.4,1.5,3.1l1.2-2.8l-1.9-3.4C431.2,369.4,430.7,369.4,430.5,369.5z"/>
		<path fill="#FFFFFF" d="M452,281.7c-1.1,0.1-2.1,0.6-2.8,1.7c-1.2,1.8-1.2,2.3,0.4,3.6c2.6,2.1,5.8,1.3,6.2-1.7
			C456.1,283,454.1,281.6,452,281.7z"/>
		<path fill="#FFFFFF" d="M390.5,300c-0.5-0.5-1.4-0.9-2.8-1.2c-0.9-0.2-2.2-0.3-3.7-0.3c-4.4,0-10.3,0.7-11,1.4c0,0,0,0,0,0
			c0,0,0,0,0,0c0,0,0,0,0,0c0,0,0,0,0,0c0,0,0,0,0,0c0,0.3,0.7,2.1,1.6,3.9c1.4,3,1.9,3.3,5.3,2.6c2.1-0.4,5.3-1.6,7.2-2.6
			c2.3-1.2,3.6-2.3,3.7-3.2c0-0.1,0-0.3,0-0.4c0-0.1,0-0.1-0.1-0.2C390.6,300.3,390.6,300.1,390.5,300z"/>
		<path fill="#FFFFFF" d="M426.6,252.5c2.5,0,3.1-0.4,2.9-2c-0.2-1.2-1.3-2-2.9-2c0,0,0,0-0.1,0c-1.5,0-2.6,0.8-2.8,2
			c-0.1,0.7-0.1,1.1,0.2,1.4C424.4,252.4,425.2,252.5,426.6,252.5z"/>
		<path fill="#FFFFFF" d="M388.1,279.2l3.1-1.2l-2-3.5c-1.4-2.4-2.5-3.3-4.2-3.3l0.1,1.2l-0.7,0.8h-2.7l-0.7,0.3
			c0.1,0.8,0.7,1.9,1.7,3.4C384.9,280.1,385.4,280.3,388.1,279.2z"/>
		<path fill="#FFFFFF" d="M446.9,310.8c-3.3,2.2-3.4,2.5-1.6,3.9c0.8,0.6,1.7,1,2.8,1.3l1-0.8l2.2-4.3l1.6-2.1l0.3-0.1
			c-0.1,0-0.1,0-0.2,0C451.2,308.7,449,309.4,446.9,310.8z"/>
		<path fill="#FFFFFF" d="M442.5,364.3l2-0.9l3.4-2.2l2.5-3.1l0.5-3.7l-1.4-2.2l-2.8-2.1l-3.1-1.5l-2.3-0.7l-3.9-2.2l-0.6-0.1
			c0,0.2,0,0.3,0,0.5C436.8,355.2,437.7,359.2,442.5,364.3z"/>
		<path fill="#FFFFFF" d="M377.1,286.8c3.7-4.7,3.7-4.8,2.1-8.4c-0.2-0.5-0.4-0.9-0.6-1.3l-1.4,3.2l-1.4,1.6l1.1,0.1l0.2,0.3
			l-0.1,0.9l-0.9,1.6l-1.5,4l-1.1,1.3l-2.4,0.9l-4-0.3l-1.6,0.9h-1.1l-1-0.9l-1.9-0.8l-2.2-0.4l-1.8,0.6l-0.9,1.6l0.5,1.6l1,1.9
			l0.5,2.4l0,1.4c5-4.9,6.7-5.8,11.1-6.7C372.3,291.8,374.5,290.1,377.1,286.8z"/>
		<path fill="#00A651" d="M463.7,301.9C463.7,301.9,463.7,301.9,463.7,301.9C463.7,301.9,463.7,301.8,463.7,301.9
			c-1.3-2.3,2.4-3.3,12.8-3.7c13.9-0.5,15.9-2.2,6.2-5.3c-3.8-1.2-9.6-2.8-12.8-3.5c-3.9-0.8-6.1-1.8-6.6-2.8
			c-0.1-0.1-0.1-0.3-0.1-0.4c0-0.1,0-0.2,0-0.3c0-0.4,0.3-0.7,0.6-1.1c0.7-0.7,3.8-0.6,9.1,0.3c6,1,9.2,1.2,9.8,0.5
			c0.6-0.8-2.1-2.8-8.2-6.2c-5.5-3.1-12.5-8-15.7-11.2c-3.2-3.1-7.8-6.6-10.4-7.9c-3.4-1.6-4.5-2.7-4-3.9c0.8-2.2,6.1-2.2,9.5,0
			c1.4,0.9,5,1.6,8.1,1.6l5.6,0l-3.7-1.5c-3.7-1.5-13.7-8.6-14.5-10.3c0,0,0-0.1,0-0.1c0,0,0,0,0,0c0,0,0,0,0,0c0,0,0,0,0,0
			c0,0,0,0,0,0c0,0,0,0,0,0c0,0,0,0,0,0c0.4-0.3,2.7-0.4,5.5-0.3l5.6,0.3l-8-6.2c-5.9-4.5-9.5-6.5-13.7-7.4
			c-3.1-0.7-6.7-1.4-7.9-1.7c-3.3-0.8-8.9-6.6-11.2-11.7l-2-4.4l-2.7,4.5c-1.5,2.5-5.1,6.2-8,8.3c-2.9,2.1-6.4,5.1-7.8,6.8l-2.5,3.1
			l2.7-0.7c1.5-0.4,3.4-1,4.3-1.4c0.9-0.4,1.6-0.2,1.6,0.5c0,0,0,0,0,0.1c0,0,0,0.1,0,0.1c-0.4,1.6-5,5.2-8.7,6.8
			c-3.5,1.5-8.8,5.3-9.4,6.8c0,0,0,0.1,0,0.1c0,0,0,0,0,0.1c0,0,0,0,0,0.1c0,0,0,0,0,0s0,0,0,0c0,0,0,0,0,0c0,0,0,0,0,0
			c0,0,0,0,0,0.1c0,0,0,0,0,0c0,0,0,0,0,0c0,0,0,0,0,0c0,0,0,0,0,0c0,0,0,0,0.1,0c0.4,0.3,1.5,0.3,2.9,0c2.3-0.5,3.2-0.2,4,1.4
			c1.2,2.4,0.5,3.5-2.2,3.5c-3,0-7,2.7-8.2,5.3l-1,3.3l0.1,4.9l0.5,0.7l0.9,0.6l0.8,0.9l0,0.7c1.7,0,2.8,0.9,4.2,3.3l2,3.5l-3.1,1.2
			c-2.8,1.1-3.3,0.9-5.6-2.4c-1-1.5-1.6-2.6-1.7-3.4l-0.4,0.1l-1.2,2l-0.7,1.5c0.2,0.4,0.4,0.8,0.6,1.3c1.6,3.6,1.6,3.7-2.1,8.4
			c-2.6,3.3-4.8,5-7.3,5.5c-4.4,0.9-6.1,1.8-11.1,6.7l-0.3,8.3l-0.2,1.4c1.5-0.6,3.2-1.6,4.7-2.7c4.8-3.4,5-3.4,6.9-1.5
			c1.1,1.1,2,3.2,2,4.7c0,2.3-1.2,3.3-7.5,6.5c-3.7,1.9-8,4.9-11.8,8.3l-1.3,3.3l0.1,2.4l-2.8,1.8l-1,4.2c5.9-1.5,15.1-5.2,18.4-7.7
			c4-3,7.8-3.6,11-1.7c4.9,2.9-3.3,8.8-18.9,13.4c-5.7,1.7-10.7,3.4-11.3,3.8c0,0,0,0,0,0c0,0,0,0,0,0c0,0,0,0,0,0c0,0,0,0,0,0
			c-0.2,0.4,0.1,1.3,0.8,2.2c1.6,2.2,9.8,2.3,16.8,0.2c2.8-0.8,9.7-3.6,15.4-6.2c10.3-4.7,10.4-4.7,14-2.8
			c8.4,4.4,7.6,12.1-2.5,24.7c-4.4,5.5-8.3,8-15.4,9.7c-2.6,0.6-8,5.7-8,7.6c0,0.2,0,0.3,0.1,0.5h1.8c0.4-0.3,0.8-0.7,1.2-1.2
			c2.2-3,6.7-5,11.3-5c5,0,11-2.7,15.6-7c4-3.7,8-4.8,11.1-3c1.7,1,3.2,1.1,5.3,0.3c3.6-1.4,5.4-0.7,5.4,2c0,1.2,1.3,2.8,3,3.8
			c1.7,0.9,4.6,3.3,6.6,5.2c1.5,1.4,2.5,2.1,3.1,2.1l0.4-1c-0.2-0.7-0.7-1.8-1.5-3.1c-0.7-1.1-1-2.1-0.9-2.6c0,0,0-0.1,0-0.1
			c0,0,0,0,0,0c0,0,0,0,0,0c0,0,0,0,0,0c0,0,0,0,0-0.1c0,0,0,0,0,0c0,0,0,0,0,0c0,0,0,0,0,0c0,0,0,0,0,0c0.2-0.1,0.7-0.1,1.5-0.1
			l-0.4-0.6l1.9-2.7l3.9-1.3l3.9,0l1.2-0.5c-4.8-5.1-5.7-9.1-5.7-18.1c0-0.2,0-0.3,0-0.5l-3-0.5l-2.2-1.4l0.7-4.2l0.7-0.7l2.2-0.9
			l0.8-0.8l0.5-1.9l-0.5-3.6l0.2-1.7l1.2-1.7l3.1-2.8l1-2.2l2.3-3.4l4.5-3.9c-1-0.2-2-0.6-2.8-1.3c-1.8-1.5-1.7-1.7,1.6-3.9
			c2.1-1.4,4.2-2.1,6-2.1c0.1,0,0.1,0,0.2,0l2.4-1l3.1-0.8l2.9-1.3l4.7-2.9C465.1,302.6,464.1,302.3,463.7,301.9
			C463.8,301.9,463.7,301.9,463.7,301.9z M390.7,301c-0.2,0.9-1.4,1.9-3.7,3.2c-1.9,1-5.2,2.2-7.2,2.6c-3.4,0.7-3.9,0.4-5.3-2.6
			c-0.8-1.8-1.5-3.5-1.6-3.9c0,0,0,0,0,0c0,0,0,0,0,0c0,0,0,0,0,0c0,0,0,0,0,0c0,0,0,0,0,0c0.7-0.7,6.7-1.4,11-1.4
			c1.5,0,2.8,0.1,3.7,0.3c1.4,0.3,2.4,0.7,2.8,1.2c0.1,0.1,0.2,0.2,0.2,0.3c0,0.1,0,0.1,0.1,0.2C390.8,300.7,390.8,300.8,390.7,301z
			 M423.8,250.6c0.2-1.2,1.2-2,2.8-2c0,0,0,0,0.1,0c1.6,0,2.6,0.7,2.9,2c0.3,1.5-0.4,2-2.9,2c-1.4,0-2.2-0.1-2.6-0.5
			C423.7,251.7,423.6,251.2,423.8,250.6z M420.6,269.3c-1,0.6-1.9,1-2.2,1.1c0,0,0,0,0,0c0,0,0,0,0,0c-0.2-0.1-1.5-0.5-2.9-0.9
			l-2.5-0.9l2.9-1.3c1.5-0.7,3.2-1.2,4.1-1.3c0.1,0,0.1,0,0.2,0C422.4,266,422.7,268,420.6,269.3z M406.1,254.8c0.1,0,0.1,0,0.2,0
			c2.4,0,0.9,4.6-2.2,6.7c-2.8,1.9-5.8,2.7-6.6,2c0,0,0,0,0,0c-0.1-0.1-0.1-0.1-0.1-0.2c0,0,0,0,0,0c0,0,0,0,0-0.1c0,0,0,0,0,0
			c0,0,0,0,0-0.1c0,0,0-0.1,0-0.1c0,0,0,0,0,0C397.3,260.4,403.2,255,406.1,254.8z M399.4,245.8c0.1,0,0.3,0,0.4,0
			c1,0,1.8,0.3,2.1,0.6c0,0,0,0,0,0c0,0,0,0,0,0c0,0.1,0.1,0.1,0.1,0.2c0,0,0,0,0,0.1c0,0,0,0.1,0,0.1c0,0,0,0,0,0.1
			c0,0,0,0.1,0,0.1c0,0,0,0,0,0.1c-0.2,0.7-1.4,2-2.6,2.9c-0.9,0.7-1.5,1.1-1.8,1c0,0-0.1,0-0.1,0c0,0,0,0,0,0c0,0,0,0-0.1-0.1
			c-0.2-0.3-0.3-1-0.3-2.2C397.2,246.5,397.6,245.9,399.4,245.8z M394.3,322c-1.4-5-1.5-5.6,0-5.7c0.2,0,0.4,0,0.6,0
			c2.7,0,4.3,2.3,4.3,6.4C399.2,328.1,395.9,327.7,394.3,322z M399,272.8c-0.7,0.9-2,2.3-3,3.1c-1.4,1.2-1.9,1.1-2.8-0.8
			c-1.1-2.2-1.4-3.7-0.9-4.6c0.5-0.8,1.7-1.1,3.7-1.2c0.1,0,0.1,0,0.2,0C400.5,269.3,401.1,270,399,272.8z M400.3,290.6
			C400.3,290.5,400.3,290.5,400.3,290.6C400.3,290.5,400.3,290.5,400.3,290.6c0-0.7,0.3-1,0.8-1.1c0.9-0.1,2.3,0.5,3.7,1.6
			c1,0.8,1.4,1.6,1.3,2.1c0,0.1,0,0.1,0,0.2c0,0,0,0.1,0,0.1c0,0,0,0.1,0,0.1c0,0,0,0.1-0.1,0.1c0,0,0,0,0,0c0,0,0,0,0,0
			c0,0-0.1,0.1-0.1,0.1c0,0,0,0,0,0c-0.6,0.5-1.8,0.3-3.2-0.8C401.3,292.4,400.3,291.2,400.3,290.6z M409,325.1c0,0-0.1,0.1-0.1,0.1
			c0,0-0.1,0.1-0.1,0.1c0,0,0,0-0.1,0c-0.1,0-0.2,0.1-0.2,0.1c0,0-0.1,0-0.1,0c-0.1,0-0.1,0-0.2,0c-0.7-0.1-1.6-0.9-2.3-2.6
			c-0.9-1.9-1.3-2.8-1.1-3.1c0,0,0-0.1,0.1-0.1c0.1-0.1,0.2-0.1,0.3-0.1c0.3,0,0.8,0,1.4,0.2c1.3,0.2,2.5,1.3,2.7,2.4
			C409.5,323.6,409.3,324.6,409,325.1z M410.9,256.1C410.9,256.1,410.9,256.1,410.9,256.1C410.9,256.1,410.9,256.1,410.9,256.1
			c-1.4-1.5-0.2-3.3,3-5c2.1-1.1,3.6-1.7,4.6-1.8c1.4-0.1,1.9,0.7,1.9,2.4c0,2.1-0.8,2.7-4.6,3.7C413.6,256,411.4,256.3,410.9,256.1
			z M412,291c-0.8-2.2,0-3.7,1.8-3.9c0.1,0,0.2,0,0.2,0c0.2,0,0.3,0,0.5,0.1c0.1,0,0.2,0.1,0.3,0.1c0,0,0.1,0,0.1,0.1c0,0,0,0,0,0
			c0,0,0,0,0,0c0,0,0,0,0,0c0.3,0.4,0.4,1.1,0.3,2C414.9,292.6,412.9,293.5,412,291z M421.5,319.4
			C421.5,319.4,421.5,319.4,421.5,319.4C421.5,319.5,421.5,319.5,421.5,319.4c-0.1,0.5-1.1,2.2-2.4,3.9l-2.4,3.2l-1.2-4.1
			c-0.6-2.1-1-3.9-0.9-4.4c0,0,0,0,0,0c0,0,0,0,0,0c0,0,0,0,0,0c0,0,0,0,0,0c0,0,0,0,0,0c0,0,0,0,0,0c0,0,0,0,0,0c0,0,0,0,0,0
			c0,0,0,0,0,0c0.1,0,0.3-0.1,0.5-0.1c1.7-0.1,5.7,0.9,6.2,1.5C421.4,319.3,421.5,319.3,421.5,319.4
			C421.5,319.3,421.5,319.4,421.5,319.4C421.5,319.4,421.5,319.4,421.5,319.4C421.5,319.4,421.5,319.4,421.5,319.4
			C421.5,319.4,421.5,319.4,421.5,319.4z M421.9,298.1c-3-1.5-3.7-3.9-2-6.6c0.7-1,1.1-1.6,1.5-1.6c0.4,0,0.8,0.4,1.5,1.1
			c0.9,1,1.9,2.8,2.3,4.1C426,298.2,424.6,299.5,421.9,298.1z M430.1,299.4C430.1,299.4,430.1,299.4,430.1,299.4
			C430.1,299.4,430.1,299.4,430.1,299.4c-0.1,0.1-0.1,0.1-0.1,0.1c0,0,0,0,0,0c0,0,0,0,0,0c0,0,0,0,0,0c0,0,0,0,0,0c0,0,0,0,0,0
			c-1.4,0-2.3-1.3-2.3-3.6c0-1.1,0.4-1.7,0.8-1.7c0.8-0.1,1.8,1,2,2.9C430.6,298.2,430.5,299.1,430.1,299.4z M430.5,268.9
			c-0.2,1.3-1.4,2.2-3.1,2.4c-1.3,0.2-2.2,0.1-2.5-0.3c0,0,0,0,0,0c0,0,0,0,0-0.1c0,0,0,0,0,0c0,0,0,0,0,0c0,0,0-0.1,0-0.1
			c-0.2-0.6,0.5-1.8,1.9-3.7c0.8-1.1,1.6-1.7,2.3-1.7C430.2,265.3,430.9,266.6,430.5,268.9z M432.9,252.3c0.2-1.8,1.1-2.6,3.1-2.9
			c0.3,0,0.6-0.1,0.9-0.1c2-0.1,2.3,0.9,1.3,3.7c-0.3,1-1.7,1.8-3.1,1.8C433,254.8,432.6,254.3,432.9,252.3z M445.1,273.1
			c-0.5,3.1-2.3,3.5-8.1,1.6c-2.9-0.9-3.2-1.4-2.3-3.3c0.9-1.8,2.7-2.9,4.8-3c1.1-0.1,2.3,0.2,3.5,0.6
			C445.1,270.1,445.5,270.8,445.1,273.1z M455.8,285.3c-0.4,2.9-3.6,3.8-6.2,1.7c-1.6-1.3-1.6-1.7-0.4-3.6c0.7-1,1.7-1.6,2.8-1.7
			C454.1,281.6,456.1,283,455.8,285.3z"/>
		<path fill="#00A651" d="M470.8,305.2l1.3,0.9l3.5-0.1l1-0.6c-2.2-1.5-4.9-2.4-7.7-2.5L470.8,305.2z"/>
	</g>
	<path vector-effect="none" fill="none" stroke="#999999" stroke-width="0.25" stroke-linecap="round" stroke-linejoin="round" d="
		M505.6,146.2l3.9,1.4l4.1-0.1l4-1.3l-0.7,6.3l-1.2,0.9l-1.8-1.4l-2.4-0.7l-2.5,1.5l-0.4,2.4l0.2,3l-0.8,3.2l-3.3,2.5l-4.5,2.5
		l-2.8,3l2.1,4l0.5,0.2l0.5,0l0.5,0l0.5-0.2l3.2-1l4.9-0.2l4.5,0.3l2.3,0.8l0,0l1.1,3.4l1.6,2.6l2.2,1.8l2.8,1.2l2.4,3l1.2,0.8
		l1.2-0.4l2.7,1.9l0.9,1.8l-0.1,2.2l-0.6,3.3l-0.5,1.4l-0.6,1l-0.6,1l-0.1,1.6l0.4,1.6l0.8,1.5l3.6,5.1l1.8,1.9l1.2,0.5l1.2-0.1
		l1.1,0.2l0.9,1.6l-0.4,2.6l-1.6,2.2l-1.3,2.6l0.8,3.8l1.1,2.8l4,4l1,2.2l-4.7,5.1l-3.9,6.4l-7.4,6.4l-3.3,4.1l-1,2.8l-0.3,2.3
		l-0.9,1.8l-2.7,1.4l-2.3,0.1l-3.6-1.3l-1.9-0.2l-3.5,1.8l-5.6,7l-6.6,5.8l-2.7,3.2l-2.2,3.6l-3.6,7.2l0.3,0.7l1,1.9l1.1,1.2
		l4.9,3.8l6.5,1.1l2.8,1.8l0.4,4.1l-2,2.6l-3.2,0.6l-6.3-1.5l-8.6-4.2l-2.9-0.6l-2.5,1l-2.3,1.9l-2.7,1.6l-3.5,0.1l-1.3-0.9
		l-2.1-2.7l-1.1-0.6l-6,3.6l-2.9,1.3l-3.1,0.8l-2.7,1.1l-1.6,2.1l-2.2,4.3l-5.5,4.7l-2.3,3.4l-1,2.2l-3.1,2.8L436,330l-0.2,1.7
		l0.5,3.6l-0.5,1.9L435,338l-2.2,0.9l-0.7,0.7l-0.7,4.2l2.2,1.4l3.7,0.7l3.9,2.2l2.3,0.7l3.1,1.5l2.8,2.1l1.4,2.2l-0.5,3.7l-2.5,3.1
		l-3.4,2.2l-3.2,1.4l-3.9,0l-3.9,1.3l-1.9,2.7l2.3,4l-2.6,6.3l-5.1,4.3l-3.1,1.8l-8.1,4.8l-2.5,3.1l-3.3,6.6l-2.7,3l-2,1.2l-2.3,1
		l-2.4,0.7l-2.2,0.3l-2.9,0.8l-6.3,6.6l-3.3,2.7l-5,1.1l-1.5,1.5l0.5,3.6l0,0v0.1l-0.1,0.8l-1-0.8v-0.1h-0.1l-2.1-1.5l-3-4.7l-1-1.2
		l-1.9,0.2l-1.1,1.9l-1,2.7l-1.5,2.7l-1.3,4.3l-0.4,9.7l-0.9,5l-1.4,3.3l-3.1,5.6l-0.8,3l-5.1,0.4l-7.9,3.4l-9.4,2.5l-2.2-0.3
		l-1.5-2l-1.2-2.4l-1.6-2l-1.9-1.5l-1.8-0.8h-2l-6.2,2l-1.2-0.1l-2.3-0.6l-1-0.1l-1.1,0.4l-1.8,1.4l-0.7,0.3l-13.2-1v-0.3l0.2-0.9
		l-0.8,0.1l-0.2-0.2v-0.5l-0.2-0.6l1.1-2.2l1.5-2.2l1.7-1.7l3.7-1.5l1.2-2l1-2.2l1.2-1.7l-1.1-1.4l1.1-0.2l0.5,0.3l0.6,1.3l5-10.8
		l0.8-5.9l-3.5-5l3.5-2.7l2.5-3.7l3.2-8.7l0.4-2.6l0.1-5.3l0.6-2.8l3-4.5l1.1-2.4l-0.7-2.5l8.7-6.6l4.3-4.5l1.9-5.9l0.4-2.5
		l6.4-17.2l-1.1-1.3l2.6-2.3l1.9-8.2l2.8-1.8l-0.1-2.4l6.5-16l0.7-3.9l0.3-9.7l-0.5-2.4l-1-1.9l-0.5-1.6l0.9-1.6l1.8-0.6l2.2,0.4
		l1.9,0.8l1,0.9h1.1l1.6-0.9l4,0.3l2.4-0.9l1.1-1.3l1.5-4l0.9-1.6l0.1-0.9l-0.2-0.3l-1.1-0.1l1.4-1.6l2-4.8l1.2-2l1.1-0.4h2.7
		l0.7-0.8l-0.1-1.8l-0.8-0.9l-0.9-0.6l-0.5-0.7l-0.1-4.9l2.7-8.7l0.8-6.2l-0.6-2.3l-2.4-4.4l-0.5-2.8v-6.8l0.5-1.5l2.4-1.7l0.6-1
		l0.1-6.3l0.7-6.3l2-5.3l3.9-3.4l2.8,2.4l2.7-4.2l2.5-6.4l2.2-4.1l9.2-5.1l2.9-3.9l-3.1-4.8v-1.3l3.1,0.8l13.2-3.4l8.9-8.5l2.7-1.9
		l1.7-1.8l0.9-2.8l0.2-9.4l-0.5-4.2l-1.1-3.5l-1.8-2.3l2.1-0.2l1.4,0.4l1.2,0.6l2.9,2.4l3.6,1l3.8,0.1l4.4-0.6l11.4,0.8l0.7-0.2
		l2-1.2l1-0.2l0.9,0.4l1.9,1.5l1,0.3l10-0.6l1.6-0.8l1.5-1.6l0.6-1.8l0.1-3.9l0.5-1.6l3.5-2.4l2.4,1.6l3.9,7.1L505.6,146.2"/>
</g>

</svg>
