<?xml version="1.0" encoding="utf-8"?>

<svg version="1.2" baseProfile="tiny" xmlns="http://www.w3.org/2000/svg" xmlns:xlink="http://www.w3.org/1999/xlink" x="0px"
	 y="0px" viewBox="355.6 172 128.8 250" xml:space="preserve">

<g id="Saint_Lucia">
	<g>
		<polygon fill="#66CCFF" points="402.7,224.7 401.3,226.2 401.2,226.8 402.7,228.3 403.3,228.3 404.1,228.9 405.8,224.7 		"/>
		<polygon fill="#66CCFF" points="473,314.5 473.9,314.5 474.9,315.1 475.6,316.1 476.6,316.1 477.1,315.6 476.7,314.7 476.8,313.7
			478.2,312.9 477.7,311.2 479.6,310.5 479.7,310 478.3,308.8 479.3,307.9 480.3,307.8 480.2,303.8 479.2,302.7 477.7,302.5
			476.8,300.9 476.1,300.7 474.5,298.6 474.2,298.2 474.6,296.9 478.2,294.4 478.2,293.5 475.1,291.8 474,290.3 474.1,288.3
			474.9,286.3 476.6,285.2 478.7,285.1 479.8,283.6 480.5,283.4 480.7,282.5 480.8,280.6 481.8,279.4 481.4,275.9 482.8,274.4
			482.9,271 483.9,270 483.4,269.1 482.1,269.5 481.3,268.5 481.2,267.8 482.3,266.5 480.7,264.4 480.7,263.5 481.5,262.7
			482.3,260.4 483.2,259.5 483.4,257.7 484.4,256.5 481.4,252.6 481.9,252.1 483.4,249.9 483.3,248.1 480.6,245.9 479,245.8
			478.1,244.1 478.2,243.2 476.6,239.1 476.6,237.5 476.2,237.1 475.6,235.9 476.5,234.7 477.5,232 476.7,230.4 476.7,229.3
			476.1,228.8 474,228.8 474,227.9 475,226.9 475,222.6 473.6,221.7 471,221.6 470.6,220.9 471,220.6 472.1,220.6 473.1,219.3
			470.9,216.7 473.9,216.6 474.6,216 475,214.9 475,212.4 475.6,210.8 477.5,209.3 477.8,208.3 475,206.1 473.6,205.2 472.4,202.2
			470.3,201.3 469,199.4 467.5,199.4 467,199 465.4,198.9 464.8,199.5 462.7,199.5 461.7,199.9 459.8,201.7 459.5,201.1
			460.6,199.3 460.7,197.1 459.6,195.3 460.2,194.8 461.2,194.8 461.7,193.8 459.7,192.6 460.6,191.1 460,190.3 459,190 457,191.7
			455.7,191.7 454.5,190.6 454.4,189.2 452.5,186.6 449.8,186.4 449.9,185.3 453.4,184.9 453.9,184.5 456,184.5 456.5,183.6
			456.5,182 455.4,180.3 455.5,179.3 456.4,177.6 455.5,177.1 454.7,175.9 451.9,174.7 449.8,174.6 448.7,175.2 447.8,175.1
			447.8,174.2 446.8,173.1 440.7,173.1 438.7,172 437.5,172.9 436.9,174.2 436.8,175.8 434.8,178.2 434.6,179.5 433.7,179.8
			432.3,181.8 432.2,187.2 432.7,187.6 432.2,192.2 431.1,195.2 430.5,195.8 427.1,195.2 425.6,196.7 425.3,198.6 424.4,197.8
			423.3,197.8 471,315.5 		"/>
		<polygon fill="#66CCFF" points="413.4,405.3 416.8,405.5 418.1,406.8 418.4,407.7 419.6,408.4 426.6,408.4 427,408.1 431.1,409.1
			432.3,411.2 434.8,413.2 434.8,414.7 434.3,415.6 432.5,417.6 430.2,418.7 430.3,420.6 432.6,420.9 433.2,420.4 434.5,420.3
			437.2,421.9 438.3,422 439.3,421.5 443.1,420.9 443.5,420.4 443.6,417.9 440.7,416.3 439.6,414.9 439.3,414 439.9,410.6
			441.9,408.5 444,407.6 444,405.9 443.5,405.4 443.5,405.3 413.4,405.3 		"/>
		<polygon fill="#66CCFF" points="472.2,317.3 471.9,316.6 471.4,316.5 471.9,317.7 		"/>
		<polygon fill="#66CCFF" points="463.8,190.6 464.3,189.9 463.9,189.2 463.4,189 462.9,189 462.1,189.8 462.2,190.3 462.8,190.6
			"/>
		<polygon fill="#66CCFF" points="461.5,195.9 461.1,196.3 461.2,197.1 462,197.4 462.7,196.7 462.7,196.4 462.5,195.9 462,195.8
			"/>
		<polygon fill="#66CCFF" points="478.2,332 479,330.4 478.1,329.5 477.1,330.1 476.8,329.8 477.7,332.1 		"/>
		<polygon fill="#66CCFF" points="432.7,179.8 433.3,179.7 433.8,179.3 433.8,178.8 433.4,178.4 433,178.5 432.3,179.2 432.5,179.7
					"/>
		<polygon fill="#66CCFF" points="477.4,328 478.2,328.6 479.1,328.6 481.2,326.9 481.7,325 481.4,324.6 479.2,324.4 478.2,325.4
			477,325.3 477.2,324.8 476.5,323.6 477.3,321.6 479.9,321.1 480.2,320.2 479.7,319.8 476.1,319.6 473.5,320.2 473.1,320.6
			476.1,328.1 		"/>
		<polygon fill="#66CCFF" points="447.3,410 446.6,410.7 446.7,412.4 447.3,413.1 448.3,412.6 449.4,410.6 449,410.2 		"/>
		<polygon fill="#66CCFF" points="428.8,183.1 429,182.1 427,181.4 425.8,181.5 425,183 424.9,184 426.5,185 		"/>
		<polygon fill="#66CCFF" points="402.3,230.4 401.2,230.4 400.1,231.5 399,234 396.5,234 395.4,235 395,236.1 395.2,239.1
			395.8,240.7 395.9,244.3 395.3,244.9 395.9,247.4 396.4,247.9 403.2,231 		"/>
		<polygon fill="#66CCFF" points="449.3,408 449,407.9 448.3,408.4 447.7,409.1 447.7,409.4 447.9,409.6 449,409.7 449.6,408.5
			"/>
		<polygon fill="#66CCFF" points="477.2,296 476.6,296 475.7,296.5 475.6,296.9 476,297.6 477.1,298.2 478,297.8 478.3,297.3
			477.9,296.7 		"/>
		<polygon fill="#66CCFF" points="394.1,252.3 392,251.3 391,250.3 389.4,250.2 388.6,251.5 388.6,253.6 388.1,254.1 388.1,256.2
			386.6,258.2 386.6,259.3 387.9,260.6 388.9,260.6 390.9,261.5 394.6,252.3 		"/>
		<polygon fill="#66CCFF" points="386.3,261.6 385.5,262.4 385.5,263.4 385,263.9 385,265.5 382.7,267.3 382.2,267.3 380.9,268.6
			380.4,271.7 377.3,274.8 377.3,276.8 377.8,277.3 374.4,280.2 373.4,280.7 370.8,280.7 369.5,281.5 369,284.5 369.6,285.1
			369.6,286.1 368,288.2 368,289.7 367,291.8 365.7,292.6 364.6,292.6 363.4,293.9 363.4,295.4 364.4,296.4 364.4,297.5 362.8,299
			361.8,301.1 361.8,302.1 360.8,303.7 360.8,304.7 356.1,312.4 356.2,323.8 355.6,324.3 355.6,325.4 359.5,327.2 360,327.1
			362.1,329.2 363.4,329.4 390.6,262.1 		"/>
		<polygon fill="#FFFFFF" points="474.7,348 475.5,347.1 475.5,346 474.1,345.1 472.8,344.9 471.9,344.2 471.9,343.6 472.8,342.9
			474.1,343.5 475.3,342.4 476.5,342.4 477.6,342 477.7,341 476.4,339.5 477.2,338.3 477.1,336.9 476.5,336.1 477.1,334.8
			477.1,332.7 476.6,332.2 477.7,332.1 476.8,329.8 475,328.2 476.1,328.1 473.1,320.6 472.9,320.7 470.5,320.7 468.9,319.6
			469.5,318.7 471.4,318.1 471.9,317.7 471.4,316.5 470.9,316.4 470.9,315.5 471,315.5 423.3,197.8 423,197.8 422.2,198.4 421,198
			419.3,198.9 419.4,200.1 420.2,202.1 418.8,203.1 418.8,204 420.5,205.3 420,208.1 420.4,209.2 421.5,210.4 421.4,214.4
			421.8,215.1 421.5,216 420.7,218.7 420.3,219.1 472.4,348 		"/>
		<polygon fill="#FFFFFF" points="475.6,354.4 476.4,354.2 476.6,353.6 475.4,352.3 474,351.9 475,354.4 		"/>
		<polygon fill="#FFFFFF" points="365.7,329.2 366.7,329.2 367.5,330.5 367.5,331.5 367,332.1 367,333.6 365.9,335.1 365.9,337.7
			365.4,338.3 365.4,339.3 362.3,343.4 362.3,344.4 363.3,346.5 364.6,346.8 365.1,347.3 365.9,347.5 365.9,350.1 365.4,351.2
			361,355.5 360.5,355.5 356.7,359.4 357.2,361 358.4,362.3 359,362.2 361.2,363.8 419.4,219.9 417.7,220.6 415.2,223.7
			414.2,224.1 412.6,225.7 409.9,226.7 407.6,226.8 405.9,224.7 405.8,224.7 404.1,228.9 405.9,230.4 407.5,230.9 408.6,232
			410.1,231.5 410.5,232.6 407.2,234.3 405.9,233.1 405.4,232.4 403.9,232.4 403.8,231.4 403.2,231 396.4,247.9 396.6,248.2
			397.9,248.4 397.9,250 397.4,251 396.1,251.8 395.6,252.3 394.6,252.3 390.9,261.5 391,261.6 391,262.1 390.6,262.1 363.4,329.4
			365.1,329.7 		"/>
		<polygon points="362.3,364.6 362.8,365.6 362.8,367.9 420,297 470.8,359.9 470.9,359.2 470.3,357.4 471.1,354.4 475,354.4
			474,351.9 472.9,351.6 471.9,352 471.2,351.7 470.7,350.9 469.6,350.4 470.8,349.3 470.3,348.7 468.3,347.9 468.5,347.5
			469.4,347.5 470.4,348.1 472.4,348 420.3,219.1 419.5,219.9 419.4,219.9 361.2,363.8 		"/>
		<polygon fill="#FCD116" points="362.8,367.9 362.9,370.2 364.6,372.6 366.7,373.6 369.5,376.4 369.8,377.2 370.3,377.2 373.1,380
			374.7,383.7 375.5,384.4 376,384.4 376.5,385.5 377,385.5 378.1,386.5 380.1,387 383.2,390.7 384.8,391.2 386.3,392.7
			387.9,392.7 389.9,393.7 391,394.2 394.6,394.3 395.1,394.8 398.2,394.8 398.7,395.3 402.3,395.3 402.8,394.8 405.9,395.4
			407.2,395.9 406.8,397.2 407.5,398.4 408.4,398.7 409.5,402.5 410.8,403 411.1,404 412.4,404.3 413.4,405.3 443.5,405.3
			443.5,402.4 445.5,398.8 447.1,397.7 448.2,395.7 448.7,393.5 451.6,390.4 450.5,389.4 448.9,389.3 448.1,388.8 448.2,388.1
			451.8,385.9 452.3,385.3 451.8,384.6 452,384.2 453.7,384.4 454.3,385.7 455.1,386.3 456.5,385.7 457.4,386.3 458.8,388.8
			460.2,388.8 461.1,386.2 461.7,385.9 462.1,386.3 464,386.3 464.6,385.9 464.7,383.8 463.7,382.7 463.9,381.2 465.3,381.1
			466.8,379.1 466.8,378.1 465.8,377 465.9,376.4 469,377 469.4,375.9 468.3,374.7 470.5,373.3 469.7,372 468.2,371.7 467.9,371.3
			467.9,367.7 468.4,366.2 469.5,366.1 469.9,365.6 470.8,359.9 420,297 		"/>
		<polygon fill="#FCD116" points="453.4,386.8 453.9,386.3 453.9,385.8 453.3,385.2 452.7,385.3 452.3,385.9 452.4,386.4
			452.8,386.9 		"/>
	</g>
	<path fill="none" stroke="#999999" stroke-width="0.25" stroke-linecap="round" stroke-linejoin="round" d="M432.7,179.8l0.6-0.1
		l0.4-0.4l0-0.5l-0.4-0.4l-0.4,0l-0.7,0.7l0.2,0.5L432.7,179.8z M428.8,183.1l0.1-1l-1.9-0.7l-1.2,0.1L425,183l0,1l1.6,1
		L428.8,183.1z M461.1,196.3l0.1,0.8l0.9,0.3l0.7-0.6l0-0.3l-0.2-0.4l-0.5-0.2l-0.5,0.2L461.1,196.3z M477.2,296h-0.5l-1,0.5
		l-0.1,0.5l0.4,0.7l1.1,0.5l0.9-0.3l0.3-0.5l-0.4-0.6L477.2,296z M462.8,190.6l1,0l0.5-0.7l-0.4-0.7l-0.5-0.2l-0.5,0l-0.8,0.7
		l0.1,0.5L462.8,190.6z M482.1,269.5l-0.8-1l-0.1-0.8l1.1-1.3l-1.6-2l0-1l0.8-0.7l0.9-2.4l0.9-0.8l0.2-1.8l1-1.2l-3-3.8l0.5-0.5
		l1.5-2.2l0-1.8l-2.7-2.2l-1.7-0.2l-0.8-1.7l0.1-0.9l-1.7-4l0-1.6l-0.4-0.4l-0.6-1.3l0.9-1.2l1-2.6l-0.9-1.6l0.1-1.1l-0.6-0.5
		l-2.1,0l0.1-0.9l1-1v-4.3l-1.4-0.9l-2.6-0.1l-0.4-0.8l0.4-0.3l1.1,0l0.9-1.3l-2.1-2.6l2.9-0.2l0.7-0.6l0.5-1.1l0-2.4l0.6-1.7
		l1.9-1.4l0.2-1.1l-2.8-2.1l-1.4-0.9l-1.2-3l-2.1-0.9l-1.3-1.9h-1.5L467,199l-1.6-0.1l-0.7,0.6l-2.1,0l-1,0.4l-1.9,1.8l-0.3-0.6
		l1.1-1.8l0.1-2.2l-1-1.8l0.5-0.6l1,0l0.5-0.9l-2-1.3l0.9-1.5l-0.7-0.8L459,190l-2,1.6l-1.3,0.1l-1.2-1.1l0-1.4l-1.9-2.6l-2.7-0.2
		l0.1-1.1l3.5-0.4l0.5-0.5l2.1,0l0.5-0.9l0-1.6l-1.1-1.7l0.1-1l1-1.7l-0.9-0.4l-0.8-1.3l-2.8-1.2l-2.1-0.1l-1.1,0.6l-0.9-0.1l0-0.9
		l-1-1l-6-0.1l-2.1-1.1l-1.2,0.9l-0.6,1.3l-0.1,1.6l-2,2.4l-0.2,1.3l-0.9,0.3l-1.4,1.9l-0.1,5.4l0.4,0.4l-0.5,4.5l-1,3.1l-0.7,0.6
		l-3.3-0.6l-1.6,1.5l-0.3,1.9l-0.9-0.8l-1.4,0l-0.8,0.6L421,198l-1.7,0.9l0.1,1.1l0.8,2.1l-1.4,0.9l0.1,1l1.6,1.2l-0.4,2.8l0.3,1.1
		l1.2,1.2l-0.1,3.9l0.5,0.8l-0.3,0.9l-0.8,2.7l-1.2,1.2l-1.8,0.7l-2.5,3.1l-1,0.4l-1.5,1.5l-2.8,1.1l-2.3,0l-1.7-2l-3.2-0.1
		l-1.5,1.5l0,0.6l1.5,1.5l0.6,0l2.6,2l1.6,0.5l1,1l1.5-0.5l0.5,1.2l-3.4,1.7l-1.2-1.2l-0.5-0.6l-1.5,0l-0.1-1l-1.5-1l-1.1,0
		l-1.1,1.1L399,234l-2.6,0l-1,1l-0.4,1.1l0.2,3.1l0.6,1.5l0,3.6l-0.5,0.5l0.5,2.6l0.8,0.8l1.3,0.2v1.6l-0.5,1l-1.3,0.8l-0.5,0.5
		l-1.5,0l-2.1-1l-1-1l-1.5,0l-0.8,1.3l0,2.1l-0.5,0.5l0,2.1l-1.6,2l0,1l1.3,1.3l1,0l2.1,1v0.5l-4.7-0.5l-0.8,0.7l0,1.1l-0.5,0.5v1.6
		l-2.3,1.8h-0.5l-1.3,1.3l-0.5,3.1l-3.1,3.1l0,2.1l0.5,0.5l-3.4,2.9l-1,0.5l-2.6,0l-1.3,0.8l-0.5,3.1l0.6,0.5l0,1l-1.5,2.1l0,1.5
		l-1,2.1l-1.3,0.8l-1.1,0l-1.3,1.3l0,1.6l1,1l0,1l-1.5,1.5l-1,2.1l0,1l-1,1.5v1l-4.6,7.7l0,11.3l-0.6,0.5l0,1l3.9,1.8l0.5,0l2.1,2.1
		l3.1,0.5l0.5-0.5h1l0.8,1.3v1l-0.5,0.5l0,1.5l-1.1,1.6l0,2.6l-0.5,0.5v1l-3.1,4.1v1l1,2.1l1.3,0.2l0.5,0.5l0.8,0.3v2.6l-0.5,1
		l-4.4,4.4h-0.5l-3.9,3.9l0.5,1.6l1.3,1.3l0.5,0l3.4,2.3l0.5,1l0,4.6l1.8,2.3l2.1,1l2.9,2.8l0.3,0.8h0.5l2.8,2.8l1.6,3.6l0.8,0.8
		h0.5l0.5,1h0.5l1.1,1.1l2,0.5l3.1,3.7l1.5,0.5l1.6,1.5h1.5l2.1,1l1,0.5l3.6,0l0.5,0.5l3.1,0l0.5,0.5h3.6l0.5-0.5l3.1,0.6l1.3,0.5
		l-0.4,1.3l0.7,1.2l0.9,0.3l1.1,3.8l1.3,0.5l0.2,1l1.3,0.3l1,1l3.4,0.2l1.4,1.3l0.2,0.8l1.2,0.7l7,0l0.4-0.3l4.1,1l1.2,2.1l2.5,2
		l0,1.5l-0.5,1l-1.8,1.9l-2.3,1.1l0.2,2l2.2,0.2l0.6-0.5l1.3,0l2.7,1.6l1,0.1l1-0.5l3.8-0.6l0.4-0.5l0.1-2.5l-2.9-1.7l-1.2-1.4
		l-0.2-0.9l0.5-3.4l2-2l2.1-0.9l0-1.7l-0.5-0.6l0.1-2.9l2-3.6l1.5-1.1l1.1-1.9l0.5-2.2l2.9-3l-1.1-1l-1.6-0.1l-0.7-0.5l0.1-0.8
		l3.6-2.2l0.5-0.6l-0.5-0.7l0.2-0.4l1.7,0.2l0.6,1.3l0.8,0.6l1.4-0.6l1,0.5l1.4,2.5l1.4,0.1l0.9-2.6l0.6-0.3l0.4,0.4l1.9,0l0.6-0.4
		l0.1-2.1l-0.9-1.1l0.2-1.5l1.4-0.1l1.5-2l0-1l-0.9-1.1l0.1-0.6l3.1,0.5l0.4-1.1l-1.1-1.2l2.2-1.4l-0.8-1.3l-1.5-0.3l-0.3-0.4l0-3.6
		l0.4-1.5l1.1-0.2l0.4-0.5l1-6.4l-0.6-1.8l0.8-3h4.5l0.8-0.2l0.2-0.6l-1.3-1.3l-2.5-0.7l-0.9,0.4l-0.8-0.3l-0.4-0.8l-1.2-0.5
		l1.2-1.1l-0.5-0.6l-2-0.7l0.2-0.4l0.9,0l0.9,0.6l4.4-0.1l0.8-0.8l0-1.2l-1.4-0.9l-1.3-0.1l-0.9-0.7l0-0.6l0.9-0.7l1.3,0.6l1.2-1.1
		h1.2l1.1-0.4l0.1-1l-1.2-1.5l0.7-1.2l-0.1-1.4l-0.5-0.8l0.5-1.4l0.1-2.1l-0.5-0.5l1.6-0.1l0.8-1.6l-0.9-0.9l-1,0.5l-2.1-1.9
		l2.4-0.2l0.9,0.6h0.9l2-1.6l0.6-1.9l-0.3-0.5l-2.3-0.2l-1,1l-1.2-0.1l0.2-0.5l-0.7-1.2l0.8-2l2.7-0.4l0.2-1l-0.5-0.4l-3.6-0.1
		l-2.6,0.6l-0.6,0.5l-2.4,0l-1.6-1.1l0.6-0.9l1.9-0.6l0.8-0.8l-0.3-0.8l-1-0.2l0.1-0.8l2-1l0.9,0.1l1.1,0.6l0.7,1l0.9,0l0.6-0.6
		l-0.5-0.9l0.2-1l1.4-0.8l-0.5-1.8l2-0.7l0.1-0.5l-1.4-1.2l1-0.9l1-0.1l-0.2-4l-1-1l-1.5-0.2l-0.9-1.6l-0.7-0.2l-1.6-2.1l-0.3-0.5
		l0.4-1.2l3.6-2.5l0-0.9l-3.1-1.7l-1.1-1.6l0.1-2l0.8-2l1.7-1.1l2.2-0.1l1.1-1.5l0.7-0.2l0.2-0.8l0.1-2l1-1.2l-0.4-3.5l1.4-1.4
		l0.2-3.4l1-1l-0.5-0.8L482.1,269.5z M452.7,385.3l-0.4,0.5l0.1,0.6l0.5,0.4l0.5,0l0.5-0.6l0.1-0.5l-0.7-0.6L452.7,385.3z
		 M447.3,410l-0.7,0.7l0.1,1.7l0.7,0.7l0.9-0.6l1.1-1.9l-0.4-0.4L447.3,410z M449,407.9l-0.7,0.5l-0.5,0.7l0,0.3l0.2,0.2l1.1,0
		l0.6-1.1l-0.3-0.5L449,407.9z"/>
</g>

</svg>
