<?xml version="1.0" encoding="utf-8"?>

<svg version="1.2" baseProfile="tiny" xmlns="http://www.w3.org/2000/svg" xmlns:xlink="http://www.w3.org/1999/xlink" x="0px"
	 y="0px" viewBox="357.5 172 125.1 250" xml:space="preserve">

<g id="Liechtenstein">
	<g>
		<path fill="#002B7F" d="M405,221.2c-0.3,0-0.6-0.1-0.8-0.1c0.4,0.5,0.7,0.9,1,1.4c0-0.5,0.2-1,0.5-1.4
			C405.4,221.2,405.2,221.2,405,221.2z"/>
		<path fill="#002B7F" d="M394.4,215.1c-0.2,0.4-0.5,0.8-0.9,1.1c0.6,0,1.1,0,1.6,0.1C394.8,216,394.5,215.6,394.4,215.1z"/>
		<path fill="#002B7F" d="M397.6,216.7c0.5,0.1,1.1,0.3,1.5,0.5c-0.2-0.4-0.4-0.8-0.4-1.3C398.4,216.3,398,216.6,397.6,216.7z"/>
		<path fill="#002B7F" d="M402.6,218c-0.4,0.2-0.8,0.4-1.3,0.4c0.5,0.3,0.9,0.6,1.3,1c-0.1-0.2-0.1-0.5-0.1-0.7
			C402.5,218.4,402.5,218.2,402.6,218z"/>
		<path fill="#002B7F" d="M408.1,229.5c-0.5-0.2-0.9-0.5-1.2-0.9c0,0.1,0,0.2,0,0.3c0,0.5,0,1,0,1.5
			C407.2,229.9,407.6,229.6,408.1,229.5z"/>
		<path fill="#002B7F" d="M407.5,225.1c-0.5,0-1-0.2-1.4-0.5c0.2,0.5,0.4,1.1,0.5,1.6C406.8,225.7,407.2,225.3,407.5,225.1z"/>
		<path fill="#002B7F" d="M389.7,215.1c-0.1,0.5-0.4,1-0.8,1.4c0.6-0.1,1.2-0.1,1.8-0.2C390.3,216,389.9,215.6,389.7,215.1z"/>
		<path fill="#002B7F" d="M448.8,291.9l-9.2-7.5l-3.7,1.8l-5.8-0.5l-1.7-0.5l1.5-2.8l4.8-3l0.8-3.3l-0.5-0.5l-0.3-10.5l-0.5-2.8
			l4.7-4.8l1.2-0.8l0.2-3l1.9-5.6l0.5-0.2l0.5-1.2l0.2-0.8l-4.6-4l-2.3-5.5l-3-4.2l-1.9-2.5l-0.8-0.5l-3.2-0.8l-1-2l-3.6-2.2l-1.5,2
			l-2.7-2l3.8-7.6l5.4-7.6l1.9-2.7l-0.2-2.3l-4.7-8l-0.7-1.3l-2-0.7l-0.8-1.3l-5.8-5.3l-2.3-0.8l-4.5-3.7v-4.3l-2.5-1.8l-4.9-4.8
			l-0.1,1.7l0,5.9l-0.3,1.8l-0.5,1.5l-6.7,20l-5.3,9.6c0.4,0.3,0.7,0.6,0.8,1.1c0.2-1.2,1.2-2,2.5-2c1.1,0,2.1,0.8,2.4,1.8
			c0.4-0.9,1.3-1.5,2.3-1.5c1.4,0,2.5,1.1,2.5,2.5c0.5-0.6,1.2-1,2-1c1.4,0,2.5,1.1,2.5,2.5c0,0.2,0,0.4-0.1,0.7
			c0.4-0.3,0.9-0.4,1.4-0.4c1.4,0,2.5,1.1,2.5,2.5c0,0.5-0.2,1-0.5,1.4c0.2-0.1,0.4-0.1,0.6-0.1c1.4,0,2.5,1.1,2.5,2.5
			c0,0.8-0.4,1.6-1.1,2.1c1.3,0.1,2.4,1.2,2.4,2.5c0,1.1-0.7,2-1.7,2.4c1,0.4,1.7,1.3,1.7,2.4c0,1.3-0.9,2.3-2.1,2.5
			c0.7,0.4,1.2,1.2,1.2,2.1c0,1.2-0.9,2.2-2,2.5c1.4,0.4,2.8,1.2,4.1,2.2c0.1,0.1,0.2,0.2,0.2,0.3c0,0.1-0.1,0.2-0.2,0.3
			c-2.7,2.2-4.6,6.9-6.4,11.5c-1.5,3.8-3,7.4-4.8,9.7c-0.1,0.1-0.1,0.1-0.2,0.1c-1.3,2.6-15.7,4.9-32.1,4.9c-0.2,0-0.4,0-0.6,0
			l-0.8,5l0.1,1.5l0.4,2.6l2.2,9.3l2,8.7l1,2h81.6l-2.3-3.3L448.8,291.9z"/>
		<path fill="#002B7F" d="M406.7,232.9c-0.1,0.5-0.2,1.1-0.3,1.6c0.3-0.3,0.8-0.5,1.2-0.6C407.2,233.7,406.9,233.4,406.7,232.9z"/>
		<path fill="#002B7F" d="M405.7,237.4c-0.1,0.4-0.2,0.7-0.3,1.1c0.4,0,0.8,0,1.2,0.1C406.2,238.2,405.9,237.8,405.7,237.4z"/>
		<polygon fill="#CE1126" points="378.7,307 383.9,314.8 385.8,319.3 388.6,329.7 391.6,346.2 394.1,360.6 394.4,363.8 393.7,367.5
			390.6,377.7 389.9,379.3 371.1,395.4 363.8,399.2 359.6,402.5 357.9,404.6 357.5,406.1 357.5,407.9 360.4,418.6 360.6,415.1
			365.2,413.2 365.3,417.2 366.9,421 368.2,420.8 368.5,418.9 372.9,412.6 376.7,415.3 378,414.8 379,412 381.9,413.2 387.6,412.4
			389.5,411.8 392,408.4 401.6,406.1 409.2,403.6 412.3,404.6 413.2,406 413.8,406.9 415.4,407.8 417.1,409.4 418.3,410.6
			419.5,412.7 420.4,419.9 422.4,421.6 424.6,422 428.3,419.5 431.9,417.5 434.3,417.7 438.7,416 440.8,417.4 445.9,414.8
			448.9,412.4 450.9,412.1 452.3,410.3 453.7,410.2 455.1,410.3 457.5,407.2 460,408.2 460.7,408.5 464.3,404.2 463.9,401.8
			465.5,398.8 465.5,396.6 463.2,392.5 464.1,387.5 469.4,389 473.2,384 480.8,382.9 480.7,379.7 482.2,374.9 482.5,369.6
			481.4,363 478.5,359 476.9,358 477.2,355.9 474.3,355.7 472.2,354.9 471.4,352.2 473.2,350.1 474.2,347.1 474.2,346.1 474,344.4
			474.2,343.4 479.6,337.1 482.1,332.8 474.2,327.7 473.8,324.9 474.4,321.2 472.5,317.9 475.1,312.6 473.1,311.3 472,306.8
			470.9,306.3 468.8,308.8 466.1,311 464.1,311 462.1,310.8 459.5,309 458.4,307.5 457.6,306.1 457.5,303.7 455.6,300.7
			455.8,297.8 455.2,297 373.6,297 		"/>
		<path fill="#FFD83D" d="M402.6,228.5c0-1-0.1-1.8-0.3-2.6v6.4C402.5,231,402.6,229.8,402.6,228.5z"/>
		<path fill="#FFD83D" d="M388.2,220.2c-0.3,0.1-0.7,0.1-1.1,0.2v15.3c0.5-0.1,1-0.2,1.5-0.3v-15.3
			C388.5,220.1,388.4,220.1,388.2,220.2z"/>
		<path fill="#FFD83D" d="M389.3,220.1v15.3c0.5-0.1,1-0.1,1.5,0V220C390.4,220,389.8,220,389.3,220.1z"/>
		<path fill="#FFD83D" d="M385,221.1v15.1c0.5-0.1,1-0.3,1.5-0.4v-15.3C386.1,220.7,385.5,220.9,385,221.1z"/>
		<path fill="#FFD83D" d="M382.2,236.9v-13l-1.2,2l-0.3,0.8v10.4C381.2,237.1,381.7,237,382.2,236.9z"/>
		<path fill="#FFD83D" d="M391.7,219.9c-0.1,0-0.2,0-0.3,0v15.5c0.5,0.1,1,0.4,1.5,0.7V220C392.6,219.9,392.1,219.9,391.7,219.9z"/>
		<path fill="#FFD83D" d="M397.3,239.4v-18.6c-0.5-0.2-1-0.3-1.5-0.4v18.2C396.3,238.9,396.8,239.2,397.3,239.4z"/>
		<path fill="#FFD83D" d="M398.6,239.6c0.3,0,0.6-0.1,0.9-0.3v-17.4c-0.5-0.3-1-0.6-1.5-0.8v18.5
			C398.2,239.6,398.4,239.6,398.6,239.6z"/>
		<path fill="#FFD83D" d="M400.4,238.6C400.4,238.6,400.4,238.6,400.4,238.6c0.5-1.2,1-2.4,1.3-3.6v-10.7c-0.4-0.8-0.9-1.4-1.5-1.9
			v16.4C400.2,238.8,400.3,238.7,400.4,238.6z"/>
		<path fill="#FFD83D" d="M395.2,220.2c-0.5-0.1-1-0.2-1.5-0.2v16.5c0.4,0.3,0.7,0.6,1,1c0.2,0.1,0.3,0.3,0.5,0.5V220.2z"/>
		<path fill="#FFD83D" d="M384.4,236.4v-15.1c-0.3,0.1-0.6,0.2-0.9,0.4l-0.6,1.1v14C383.3,236.7,383.9,236.5,384.4,236.4z"/>
		<path fill="#FFD83D" d="M380.1,237.2v-8.8l-0.2,0.4l-1,5l-0.3,2.8v0.4C379,237.1,379.5,237.2,380.1,237.2z"/>
		<path d="M402.3,232.3v-6.4c-0.2-0.6-0.4-1.1-0.6-1.6V235C401.9,234.1,402.1,233.2,402.3,232.3z"/>
		<path d="M400.1,238.8v-16.4c-0.2-0.2-0.4-0.4-0.6-0.5v17.4C399.7,239.2,399.9,239,400.1,238.8z"/>
		<path d="M398,239.5v-18.5c-0.2-0.1-0.4-0.2-0.6-0.3v18.6C397.5,239.4,397.8,239.5,398,239.5z"/>
		<path d="M395.8,238.5v-18.2c-0.2,0-0.4-0.1-0.6-0.1V238C395.4,238.2,395.6,238.4,395.8,238.5z"/>
		<path d="M393,220v16.1c0.2,0.1,0.4,0.3,0.6,0.5V220C393.4,220,393.2,220,393,220z"/>
		<path d="M390.9,220v15.4c0.1,0,0.2,0,0.3,0c0.1,0,0.2,0,0.3,0.1v-15.5C391.3,219.9,391.1,220,390.9,220z"/>
		<path d="M388.7,220.1v15.3c0,0,0,0,0.1,0c0.1,0,0.1,0,0.2,0l0,0c0.1,0,0.3-0.1,0.4-0.1v-15.3C389.1,220.1,388.9,220.1,388.7,220.1
			z"/>
		<path d="M386.5,220.6v15.3c0.2-0.1,0.4-0.1,0.6-0.1v-15.3C387,220.5,386.8,220.5,386.5,220.6z"/>
		<path d="M384.4,221.4v15.1c0.2,0,0.4-0.1,0.6-0.1c0,0,0.1,0,0.1,0v-15.1C384.8,221.2,384.6,221.3,384.4,221.4z"/>
		<path d="M382.9,236.8v-14l-0.6,1.1v13C382.4,236.9,382.6,236.8,382.9,236.8z"/>
		<path d="M380.7,237.1v-10.4l-0.6,1.6v8.8C380.3,237.2,380.5,237.2,380.7,237.1z"/>
		<path d="M378.5,236.5l-0.1,0.4c0,0,0,0,0.1,0V236.5z"/>
		<path d="M399.9,239.8c-0.4,0.2-0.8,0.3-1.3,0.4c-1,0-1.9-0.4-2.8-0.9c0.7,1.2,1.1,2.7,1.2,4.4c0.7-1.2,1.5-2.3,2.5-3.1
			C399.7,240.3,399.8,240.1,399.9,239.8z"/>
		<path d="M379.2,243.2c1.2-1.8,3.6-4.7,6.4-6.5c-0.2,0-0.3,0.1-0.5,0.1c-2.6,0.7-4.9,1.3-6.7,0.7l-0.2,1.9l-0.1,0.2
			C378.7,240.7,379,241.9,379.2,243.2z"/>
		<path d="M385,221.1c0.5-0.2,1-0.4,1.5-0.5c0.2-0.1,0.4-0.1,0.6-0.2c0.4-0.1,0.7-0.2,1.1-0.2c-1.4,0.2-2.8,0.4-4.2,0.7l-0.5,0.8
			c0.3-0.1,0.6-0.3,0.9-0.4C384.6,221.3,384.8,221.2,385,221.1z"/>
		<path d="M385.1,236.9c0.2,0,0.3-0.1,0.5-0.1c1.1-0.7,2.2-1.2,3.3-1.4l0,0c-0.1,0-0.1,0-0.2,0c0,0,0,0-0.1,0
			c-0.5,0.1-1,0.2-1.5,0.3c-0.2,0-0.4,0.1-0.6,0.1c-0.5,0.1-1,0.3-1.5,0.4c0,0-0.1,0-0.1,0c-0.2,0-0.4,0.1-0.6,0.1
			c-0.5,0.1-1,0.3-1.5,0.4c-0.2,0-0.4,0.1-0.6,0.1c-0.5,0.1-1,0.2-1.5,0.2c-0.2,0-0.4,0-0.6,0c-0.5,0-1.1-0.1-1.5-0.2c0,0,0,0-0.1,0
			l-0.1,0.6C380.2,238.1,382.5,237.6,385.1,236.9z"/>
		<path d="M398.6,240.2c0.5,0,0.9-0.2,1.3-0.4c0.2-0.4,0.4-0.9,0.6-1.3c0,0,0,0-0.1,0.1c-0.1,0.1-0.2,0.2-0.2,0.2
			c-0.2,0.2-0.4,0.4-0.6,0.5c-0.3,0.1-0.6,0.2-0.9,0.3c-0.2,0-0.4,0-0.6,0c-0.2,0-0.4-0.1-0.6-0.2c-0.5-0.2-1-0.5-1.5-0.9
			c-0.2-0.2-0.4-0.3-0.6-0.5c-0.2-0.2-0.4-0.3-0.5-0.5c0.4,0.5,0.8,1.1,1.1,1.7C396.7,239.8,397.6,240.3,398.6,240.2z"/>
		<path fill="#FFD83D" d="M388.9,214.6c0-0.5-0.2-1-0.6-1.3l-1.6,2.9c0.2,0.1,0.3,0.1,0.5,0.1C388.2,216.2,388.9,215.5,388.9,214.6z
			"/>
		<path d="M389,216.4c0.4-0.4,0.7-0.8,0.8-1.4c-0.1-0.3-0.2-0.6-0.2-1c0-0.2,0-0.3,0-0.5c-0.2-0.4-0.5-0.8-0.8-1.1l-0.4,0.7
			c0.4,0.3,0.6,0.8,0.6,1.3c0,0.9-0.7,1.7-1.7,1.7c-0.2,0-0.4,0-0.5-0.1l-0.4,0.6C387.2,216.6,388.1,216.5,389,216.4z"/>
		<circle fill="#FFD83D" cx="392.1" cy="214.1" r="1.7"/>
		<path d="M389.7,215.1c0.2,0.5,0.6,0.9,1,1.2c0.8-0.1,1.7-0.1,2.5-0.1c0.1,0,0.1,0,0.2,0c0.4-0.3,0.7-0.6,0.9-1.1
			c-0.1-0.2-0.1-0.5-0.1-0.7c0-0.4,0.1-0.7,0.2-1c-0.3-1-1.3-1.8-2.4-1.8c-1.2,0-2.2,0.9-2.5,2c0,0.2,0,0.3,0,0.5
			C389.5,214.4,389.6,214.8,389.7,215.1z M392.1,212.4c0.9,0,1.7,0.7,1.7,1.7c0,0.9-0.7,1.7-1.7,1.7c-0.9,0-1.7-0.7-1.7-1.7
			C390.4,213.2,391.1,212.4,392.1,212.4z"/>
		<circle fill="#FFD83D" cx="396.8" cy="214.4" r="1.7"/>
		<path d="M394.4,215.1c0.1,0.5,0.4,0.9,0.8,1.2c0.9,0.1,1.7,0.3,2.5,0.5c0.5-0.2,0.8-0.4,1.1-0.8c0,0,0,0,0,0
			c0-0.6,0.2-1.1,0.6-1.6c0-1.4-1.1-2.5-2.5-2.5c-1,0-1.9,0.6-2.3,1.5c-0.1,0.3-0.2,0.6-0.2,1C394.2,214.6,394.3,214.9,394.4,215.1z
			 M396.8,212.7c0.9,0,1.7,0.7,1.7,1.7c0,0.9-0.7,1.7-1.7,1.7c-0.9,0-1.7-0.7-1.7-1.7C395.1,213.4,395.8,212.7,396.8,212.7z"/>
		<circle fill="#FFD83D" cx="401.2" cy="215.9" r="1.7"/>
		<path d="M398.7,215.9c0,0.5,0.2,0.9,0.4,1.3c0.8,0.3,1.5,0.7,2.2,1.2c0.5,0,0.9-0.2,1.3-0.4c0.2-0.6,0.5-1.1,1.1-1.5
			c0.1-0.2,0.1-0.4,0.1-0.7c0-1.4-1.1-2.5-2.5-2.5c-0.8,0-1.5,0.4-2,1C398.9,214.8,398.7,215.3,398.7,215.9
			C398.7,215.9,398.7,215.9,398.7,215.9z M401.2,214.2c0.9,0,1.7,0.7,1.7,1.7c0,0.9-0.7,1.7-1.7,1.7c-0.9,0-1.7-0.7-1.7-1.7
			C399.6,215,400.3,214.2,401.2,214.2z"/>
		<circle fill="#FFD83D" cx="405" cy="218.7" r="1.7"/>
		<path d="M402.6,218c-0.1,0.2-0.1,0.4-0.1,0.7c0,0.3,0,0.5,0.1,0.7c0.6,0.5,1.1,1.1,1.6,1.7c0.3,0.1,0.5,0.1,0.8,0.1
			c0.2,0,0.4,0,0.6-0.1c0.3-0.5,0.9-0.8,1.4-1c0.3-0.4,0.5-0.9,0.5-1.4c0-1.4-1.1-2.5-2.5-2.5c-0.5,0-1,0.2-1.4,0.4
			C403.1,216.9,402.8,217.4,402.6,218z M405,220.4c-0.9,0-1.7-0.7-1.7-1.7c0-0.9,0.7-1.7,1.7-1.7c0.9,0,1.7,0.7,1.7,1.7
			C406.7,219.6,405.9,220.4,405,220.4z"/>
		<circle fill="#FFD83D" cx="407.7" cy="222.6" r="1.7"/>
		<path d="M405.6,221.1c-0.3,0.4-0.4,0.9-0.5,1.4c0.4,0.7,0.7,1.4,1,2.1c0.4,0.3,0.8,0.5,1.4,0.5c0.4-0.3,0.9-0.5,1.5-0.5
			c0.1,0,0.1,0,0.2,0c0.6-0.5,1.1-1.2,1.1-2.1c0-1.4-1.1-2.5-2.5-2.5c-0.2,0-0.4,0-0.6,0.1C406.5,220.3,406,220.6,405.6,221.1z
			 M407.7,224.2c-0.9,0-1.7-0.7-1.7-1.7c0-0.9,0.7-1.7,1.7-1.7s1.7,0.7,1.7,1.7C409.4,223.5,408.6,224.2,407.7,224.2z"/>
		<circle fill="#FFD83D" cx="409" cy="227.1" r="1.7"/>
		<path d="M407.5,225.1c-0.4,0.3-0.7,0.7-0.9,1.1c0.2,0.8,0.3,1.6,0.3,2.4c0.3,0.4,0.7,0.7,1.2,0.9c0.3-0.1,0.5-0.1,0.8-0.1
			c0.3,0,0.6,0.1,0.9,0.2c1-0.3,1.7-1.3,1.7-2.4c0-1.3-1-2.4-2.4-2.5c-0.1,0-0.1,0-0.2,0C408.4,224.6,408,224.8,407.5,225.1z
			 M409,228.8c-0.9,0-1.7-0.7-1.7-1.7s0.7-1.7,1.7-1.7c0.9,0,1.7,0.7,1.7,1.7S409.9,228.8,409,228.8z"/>
		<circle fill="#FFD83D" cx="408.9" cy="231.8" r="1.7"/>
		<path d="M408.1,229.5c-0.5,0.2-0.9,0.5-1.2,0.9c0,0.9-0.1,1.8-0.3,2.6c0.2,0.4,0.5,0.8,1,1c0.1,0,0.3,0,0.4,0
			c0.5,0,0.9,0.1,1.3,0.4c1.2-0.2,2.1-1.2,2.1-2.5c0-1.1-0.7-2-1.7-2.4c-0.3-0.1-0.6-0.2-0.9-0.2
			C408.7,229.3,408.4,229.4,408.1,229.5z M408.9,233.5c-0.9,0-1.7-0.7-1.7-1.7c0-0.9,0.7-1.7,1.7-1.7c0.9,0,1.7,0.7,1.7,1.7
			C410.6,232.8,409.9,233.5,408.9,233.5z"/>
		<circle fill="#FFD83D" cx="408" cy="236.5" r="1.7"/>
		<path d="M407.6,234c-0.5,0.1-0.9,0.3-1.2,0.6c-0.2,1-0.4,1.9-0.7,2.8c0.2,0.5,0.5,0.8,0.9,1.1c0.7,0.1,1.3,0.2,2,0.4
			c1.1-0.2,2-1.3,2-2.5c0-0.9-0.5-1.7-1.2-2.1c-0.4-0.2-0.8-0.4-1.3-0.4C407.9,233.9,407.8,234,407.6,234z M408,238.1
			c-0.9,0-1.7-0.7-1.7-1.7c0-0.9,0.7-1.7,1.7-1.7c0.9,0,1.7,0.7,1.7,1.7C409.7,237.4,409,238.1,408,238.1z"/>
		<path fill="#FFD83D" d="M391.7,219.1c7.5,0,11.7,3.4,11.7,9.4c0,4-1.1,7.7-2.6,11.2c0.6-0.3,1.2-0.6,1.9-0.8
			c0.5-0.2,1.1-0.2,1.6-0.3c1-3,1.7-6.1,1.7-9.7c0-5.7-4.5-11.9-12.8-11.9c-2.5,0-5,0.3-7.4,0.7l-0.1,0.2l-1.1,1.9
			C387,219.4,389.4,219.1,391.7,219.1z"/>
		<path d="M388.2,220.2c0.2,0,0.3,0,0.5-0.1c0.2,0,0.4,0,0.6-0.1c0.5,0,1-0.1,1.5-0.1c0.2,0,0.4,0,0.6,0c0.1,0,0.2,0,0.3,0
			c0.4,0,0.8,0,1.3,0c0.2,0,0.4,0,0.6,0c0.5,0,1,0.1,1.5,0.2c0.2,0,0.4,0.1,0.6,0.1c0.5,0.1,1,0.3,1.5,0.4c0.2,0.1,0.4,0.2,0.6,0.3
			c0.5,0.2,1,0.5,1.5,0.8c0.2,0.2,0.4,0.3,0.6,0.5c0.6,0.5,1.1,1.2,1.5,1.9c0.3,0.5,0.5,1,0.6,1.6c0.2,0.8,0.3,1.6,0.3,2.6
			c0,1.3-0.1,2.6-0.3,3.8c-0.2,0.9-0.4,1.9-0.6,2.8c-0.3,1.2-0.8,2.4-1.2,3.5c-0.2,0.4-0.4,0.9-0.6,1.3c-0.1,0.2-0.2,0.5-0.3,0.7
			c0.4-0.4,0.9-0.7,1.4-0.9c1.5-3.4,2.6-7.2,2.6-11.2c0-6-4.3-9.4-11.7-9.4c-2.4,0-4.8,0.3-7.2,0.8l-0.6,1
			C385.4,220.6,386.8,220.3,388.2,220.2z"/>
		<path d="M406.1,228.9c0,3.5-0.7,6.7-1.7,9.7c0.3,0,0.6-0.1,0.9-0.1c0.1-0.4,0.2-0.7,0.3-1.1c0.3-0.9,0.5-1.9,0.7-2.8
			c0.1-0.5,0.2-1.1,0.3-1.6c0.1-0.8,0.2-1.7,0.3-2.6c0-0.5,0-1,0-1.5c0-0.1,0-0.2,0-0.3c0-0.8-0.1-1.6-0.3-2.4
			c-0.1-0.5-0.3-1.1-0.5-1.6c-0.3-0.7-0.6-1.4-1-2.1c-0.3-0.5-0.6-1-1-1.4c-0.5-0.6-1-1.1-1.6-1.7c-0.4-0.4-0.8-0.7-1.3-1
			c-0.7-0.4-1.4-0.8-2.2-1.2c-0.5-0.2-1-0.4-1.5-0.5c-0.8-0.2-1.6-0.4-2.5-0.5c-0.5-0.1-1.1-0.1-1.6-0.1c-0.1,0-0.1,0-0.2,0
			c-0.8,0-1.7,0-2.5,0.1c-0.6,0-1.2,0.1-1.8,0.2c-0.9,0.1-1.7,0.2-2.6,0.4l-0.5,1c2.5-0.4,5-0.7,7.4-0.7
			C401.6,217,406.1,223.1,406.1,228.9z"/>
		<path fill="#FFD83D" d="M372,257.1c0-0.2,0.2-0.3,0.3-0.3c0.2,0,0.3,0.2,0.3,0.3l-0.1,1.6c0.6,0,1.2,0,1.9,0l0.1-1.6
			c0-0.2,0.2-0.3,0.3-0.3c0.2,0,0.3,0.2,0.3,0.3l-0.1,1.6c0.5,0,1,0,1.6,0l0.1-1.5c0-0.2,0.2-0.3,0.3-0.3c0.2,0,0.3,0.2,0.3,0.3
			l-0.1,1.5c0.4,0,0.9,0,1.4,0l0.1-1.4c0-0.2,0.2-0.3,0.3-0.3c0.2,0,0.3,0.2,0.3,0.3l-0.1,1.4c0.5,0,1,0,1.6,0.1l0.1-1.5
			c0-0.2,0.2-0.3,0.3-0.3c0.2,0,0.3,0.2,0.3,0.3l-0.1,1.5c0.5,0,0.9,0,1.4,0.1l0.2-1.4c0-0.2,0.2-0.3,0.4-0.3c0.2,0,0.3,0.2,0.3,0.4
			l-0.2,1.3c0.5,0,1,0,1.5,0.1l0.2-1.2c0-0.2,0.2-0.3,0.4-0.3c0.2,0,0.3,0.2,0.3,0.4l-0.1,1.2c0.5,0,1,0.1,1.5,0.1l0.2-1.5
			c0-0.2,0.2-0.3,0.4-0.3c0.2,0,0.3,0.2,0.3,0.4l-0.2,1.4c0.6,0,1.1,0.1,1.7,0.1l0.2-0.9c0-0.2,0.2-0.3,0.4-0.3
			c0.2,0,0.3,0.2,0.3,0.4l-0.1,0.8c0.6,0.1,1.1,0.1,1.7,0.2l0.2-1.1c0-0.2,0.2-0.3,0.4-0.3c0.2,0,0.3,0.2,0.3,0.4l-0.2,1.1
			c0.5,0.1,1,0.1,1.5,0.2l0.2-1.2c0-0.2,0.2-0.3,0.4-0.2c0.2,0,0.3,0.2,0.2,0.4l-0.2,1.1c0.4,0.1,0.7,0.1,1.1,0.2l0.2-1.1
			c0-0.2,0.2-0.3,0.4-0.3c0.2,0,0.3,0.2,0.3,0.4l-0.2,1.1c0.4,0.1,0.8,0.1,1.1,0.2l0.3-1.1c0-0.2,0.2-0.3,0.4-0.2
			c0.2,0,0.3,0.2,0.2,0.4l-0.3,1.1c0.4,0.1,0.7,0.2,1.1,0.3l0.3-1.1c0.1-0.2,0.2-0.3,0.4-0.2c0.2,0.1,0.3,0.2,0.2,0.4l-0.3,1.1
			c0.7,0.3,1.2,0.6,1.5,0.9c1.7-2.3,3-5.6,4.4-9.1c1.8-4.4,3.6-9,6.3-11.5c-2.7-2-5.8-2.6-8.6-1.8c-2.8,0.8-5,3-6.1,6.2
			c-0.1,0.2-0.3,0.3-0.5,0.3c-0.2,0-0.4-0.2-0.3-0.5c0.5-4.9-2.3-9-5.1-9.5c-5.2-1-10.7,6.6-11.8,8.6c-0.1,0.2-0.3,0.2-0.5,0.2
			c-0.2,0-0.3-0.2-0.3-0.4c-0.1-1.5-0.3-2.8-0.8-3.8l-1.1,2.2c0,0,0,0.1,0,0.1c-0.1,0.5-0.3,1-0.4,1.5c-0.1,0.4-0.4,0.5-0.5,0.3
			l-4.5,9.1l-1,4.7c0.5,0,1.1,0,1.7,0L372,257.1z M404.6,249.7c-2.6,1.9-5.2,4-6.2,5.9c-0.4,0.8-1,1.1-0.7,0.3c1-2.3,1.2-4.2,1-5.3
			c-0.2-1.2-0.5-1.9-0.5-2.6c0-0.7,0.4-0.6,0.6,0c0.1,0.4,0.3,1,0.5,1.2c0.1,0.2,0.7,0.3,1.2-0.4c0.5-0.7,1.9-2.1,2.3-2.5
			c0.2-0.1,0.3-0.2,0.5-0.2c0.2,0,0.3,0.1,0,0.5c-0.6,0.9-1.3,2.2-1.4,2.7c0,0.6,0.2,0.6,0.5,0.6c0.8,0,1.2-0.6,1.9-0.7
			C405,249,405.1,249.4,404.6,249.7z M390.3,239c-0.3,0.6-0.5,0.9-0.8,1.5c-0.2,0.5-0.6,0.2-0.5-0.2c0.1-0.4,0.2-0.8,0.6-1.6
			c0.1-0.3,0.3-0.4,0.4-0.4C390.3,238.3,390.5,238.7,390.3,239z M393.1,241c-0.3,0.5-0.7,1.1-0.9,1.5c-0.2,0.4-0.6,0.1-0.3-0.3
			c0.3-0.4,0.3-1,0.6-1.6c0.1-0.2,0.3-0.3,0.4-0.3C393.2,240.3,393.4,240.6,393.1,241z M390.8,240.7c0.1-0.3,0.2-0.7,0.3-1.2
			c0.1-0.3,0.2-0.5,0.4-0.4c0.2,0,0.5,0.4,0.3,0.7c-0.2,0.5-0.4,0.6-0.6,1.1C391,241.4,390.7,241,390.8,240.7z M403.1,244.2
			c0.3-0.7,0.3-1,0.5-1.6c0.1-0.3,0.4-0.5,0.6-0.5c0.2,0,0.4,0.2,0.2,0.6c-0.3,0.6-0.6,1.2-0.8,1.6
			C403.5,244.7,402.8,244.8,403.1,244.2z M408,242.4c0.2-0.1,0.3-0.1,0.4-0.1c0.3,0,0.4,0.3,0.1,0.5c-0.4,0.3-0.8,0.6-1.3,1
			c-0.5,0.4-0.7,0-0.5-0.3C407,243.1,407.3,242.7,408,242.4z M405.9,242.1c0.2-0.3,0.4-0.4,0.5-0.4c0.3,0,0.4,0.5,0.1,0.8
			c-0.4,0.5-0.7,0.8-1.1,1.2c-0.4,0.3-0.5-0.1-0.3-0.4C405.3,242.9,405.6,242.6,405.9,242.1z M402,242.7c0.2,0,0.4,0.2,0.3,0.5
			c-0.2,0.6-0.5,1.2-0.6,1.5c-0.1,0.4-0.5,0.2-0.4-0.3c0.1-0.5,0.1-0.8,0.2-1.3C401.5,242.9,401.8,242.7,402,242.7z M400.4,244.1
			c-0.1,0.5-0.2,0.9-0.4,1.3c-0.1,0.4-0.4,0.4-0.4-0.1c0-0.4,0.1-0.9,0.1-1.3c0-0.2,0.2-0.4,0.4-0.4
			C400.3,243.7,400.5,243.8,400.4,244.1z M394.6,244.3c0.3,0,0.5,0.3,0.2,0.7c-0.5,0.6-1,1.1-1.2,1.3s-0.7,0.1-0.4-0.3
			c0.3-0.5,0.8-1.1,1-1.5c0.1-0.1,0.2-0.2,0.3-0.2C394.5,244.3,394.6,244.3,394.6,244.3z M394,242c0.3,0,0.3,0.6,0.1,0.9
			c-0.3,0.4-0.7,0.8-1.2,1.3c-0.4,0.4-0.6,0-0.4-0.3c0.2-0.4,0.5-0.7,1.1-1.6C393.8,242.1,393.9,242,394,242z M387.3,240.4
			c0.1-0.4,0.2-0.7,0.5-1.6c0.1-0.3,0.3-0.5,0.4-0.5c0,0,0.1,0,0.1,0c0.2,0.1,0.3,0.3,0.2,0.5c-0.2,0.5-0.5,1-0.7,1.6
			C387.6,241,387.2,240.9,387.3,240.4z M385.3,241.3c0.1-0.4,0.2-1,0.5-1.9c0.1-0.4,0.3-0.6,0.5-0.5c0.2,0,0.4,0.4,0.2,0.8
			c-0.2,0.5-0.5,1-0.7,1.6C385.6,241.8,385.2,241.6,385.3,241.3z M383.3,241.9c0.1-0.5,0.1-0.7,0.3-1.3c0.1-0.3,0.3-0.5,0.5-0.5
			c0,0,0.1,0,0.1,0c0.1,0,0.2,0.2,0.1,0.4c-0.1,0.4-0.4,1.3-0.5,1.7C383.7,242.6,383.2,242.5,383.3,241.9z M385.1,245.3
			c-0.3-0.7,0-1.4,0.5-0.2c0.4,0.8,0.9,1.1,1.4,0.4c0.5-0.7,1.4-2.5,1.7-3.3c0.1-0.3,0.2-0.4,0.3-0.5c0,0,0,0,0.1,0
			c0.1,0,0.2,0.3,0.1,0.7c-0.6,2.1-0.8,3.3-0.7,3.8c0.1,0.5,0.4,0.6,0.8,0.4c0.4-0.2,0.8-0.4,1.2-0.7c0.4-0.2,0.7,0,0.2,0.5
			c-2.6,2.1-4.3,4.5-5,7.4c-0.1,0.6-0.5,0.7-0.4,0C385.8,250.2,386,247.2,385.1,245.3z"/>
		<path d="M378.8,245c0.2,0,0.4,0,0.5-0.2c1.1-1.9,6.7-9.5,11.8-8.6c2.8,0.5,5.6,4.5,5.1,9.5c0,0.2,0.1,0.4,0.3,0.5
			c0.2,0,0.4-0.1,0.5-0.3c1.1-3.2,3.3-5.4,6.1-6.2c2.8-0.8,6-0.2,8.6,1.8c-2.6,2.4-4.5,7-6.3,11.5c-1.4,3.5-2.8,6.9-4.4,9.1
			c0.2,0.2,0.3,0.4,0.3,0.6c0,0.1,0,0.3-0.1,0.4c0.1,0,0.2-0.1,0.2-0.1c1.9-2.3,3.3-5.9,4.8-9.7c1.8-4.6,3.7-9.3,6.4-11.5
			c0.1-0.1,0.2-0.2,0.2-0.3c0-0.1-0.1-0.2-0.2-0.3c-1.3-1-2.7-1.7-4.1-2.2c-0.7-0.2-1.3-0.4-2-0.4c-0.4,0-0.8-0.1-1.2-0.1
			c-0.3,0-0.6,0-0.9,0.1c-0.5,0.1-1.1,0.1-1.6,0.3c-0.7,0.2-1.3,0.5-1.9,0.8c-0.5,0.3-0.9,0.6-1.4,0.9c-1,0.8-1.8,1.9-2.5,3.1
			c-0.1-1.6-0.6-3.1-1.2-4.4c-0.3-0.6-0.7-1.2-1.1-1.7c-0.3-0.4-0.7-0.7-1-1c-0.2-0.2-0.4-0.3-0.6-0.5c-0.5-0.3-1-0.5-1.5-0.7
			c-0.1,0-0.2-0.1-0.3-0.1c-0.1,0-0.2,0-0.3,0c-0.5-0.1-1-0.1-1.5,0c-0.1,0-0.3,0.1-0.4,0.1c-1.1,0.2-2.3,0.7-3.3,1.4
			c-2.8,1.8-5.2,4.7-6.4,6.5c-0.2-1.4-0.5-2.6-1.1-3.6l-0.2,0.7l-0.2,0.4c0.4,1.1,0.7,2.3,0.8,3.8
			C378.4,244.7,378.6,244.9,378.8,245z"/>
		<path d="M400.7,262.7c0-0.3-0.4-0.7-1.3-1l-0.3,1c0,0.1-0.2,0.2-0.3,0.2c0,0-0.1,0-0.1,0c-0.2-0.1-0.3-0.2-0.2-0.4l0.3-1
			c-0.3-0.1-0.7-0.2-1-0.3l-0.3,1c0,0.1-0.2,0.2-0.3,0.2c0,0-0.1,0-0.1,0c-0.2,0-0.3-0.2-0.2-0.4l0.3-0.9c-0.3-0.1-0.7-0.1-1.1-0.2
			l-0.2,1c0,0.2-0.2,0.3-0.3,0.3c0,0,0,0-0.1,0c-0.2,0-0.3-0.2-0.3-0.4l0.2-1c-0.4-0.1-0.7-0.1-1.1-0.2l-0.2,1
			c0,0.2-0.2,0.3-0.3,0.3c0,0,0,0-0.1,0c-0.2,0-0.3-0.2-0.2-0.4l0.2-0.9c-0.5-0.1-1-0.1-1.5-0.2l-0.2,1c0,0.2-0.2,0.3-0.3,0.3
			c0,0,0,0-0.1,0c-0.2,0-0.3-0.2-0.3-0.4l0.2-1c-0.5-0.1-1.1-0.1-1.7-0.2l-0.2,1.2c0,0.2-0.2,0.3-0.3,0.3c0,0,0,0-0.1,0
			c-0.2,0-0.3-0.2-0.3-0.4l0.2-1.2c-0.5,0-1.1-0.1-1.6-0.1l-0.1,0.7c0,0.2-0.2,0.3-0.3,0.3c0,0,0,0,0,0c-0.2,0-0.3-0.2-0.3-0.4
			l0.1-0.6c-0.5,0-1-0.1-1.5-0.1l-0.1,0.9c0,0.2-0.2,0.3-0.3,0.3c0,0,0,0,0,0c-0.2,0-0.3-0.2-0.3-0.4l0.1-0.9c-0.5,0-1-0.1-1.5-0.1
			l-0.1,0.8c0,0.2-0.2,0.3-0.3,0.3c0,0,0,0,0,0c-0.2,0-0.3-0.2-0.3-0.4l0.1-0.7c-0.4,0-0.9,0-1.3-0.1l0,0.6c0,0.2-0.2,0.3-0.3,0.3
			c0,0,0,0,0,0c-0.2,0-0.3-0.2-0.3-0.3l0-0.6c-0.5,0-1,0-1.6-0.1l0,0.7c0,0.2-0.2,0.3-0.3,0.3c0,0,0,0,0,0c-0.2,0-0.3-0.2-0.3-0.3
			l0-0.7c-0.4,0-0.9,0-1.4,0l0,0.6c0,0.2-0.1,0.3-0.3,0.3c0,0,0,0,0,0c-0.2,0-0.3-0.2-0.3-0.3l0-0.6c-0.5,0-1,0-1.6,0l0,0.5
			c0,0.2-0.1,0.3-0.3,0.3c0,0,0,0,0,0c-0.2,0-0.3-0.2-0.3-0.3l0-0.5c-0.6,0-1.3,0-1.9,0l0,0.5c0,0.2-0.1,0.3-0.3,0.3c0,0,0,0,0,0
			c-0.2,0-0.3-0.2-0.3-0.3l0-0.5c-0.6,0-1.2,0-1.8,0l-0.7,3.5l-0.7,4.5c0.2,0,0.3,0,0.5,0C387.4,267.3,400.7,264.5,400.7,262.7z"/>
		<path d="M401.2,263.1c0.1-0.1,0.1-0.3,0.1-0.4c0-0.2-0.1-0.4-0.3-0.6c-0.3-0.3-0.8-0.6-1.5-0.9l-0.2,0.5c0.9,0.3,1.3,0.6,1.3,1
			c0,1.9-13.2,4.7-31.5,4.7c-0.2,0-0.3,0-0.5,0l-0.1,0.6c0.2,0,0.4,0,0.6,0C385.4,268,399.8,265.7,401.2,263.1z"/>
		<path d="M398.9,260.9c-0.3-0.1-0.7-0.2-1.1-0.3l-0.2,0.6c0.4,0.1,0.7,0.2,1,0.3L398.9,260.9z"/>
		<path d="M374.4,258.8c-0.7,0-1.3,0-1.9,0l0,0.6c0.6,0,1.3,0,1.9,0L374.4,258.8z"/>
		<path d="M382.9,259c-0.5,0-0.9,0-1.4-0.1l0,0.6c0.5,0,0.9,0,1.3,0.1L382.9,259z"/>
		<path d="M397.3,260.5c-0.3-0.1-0.7-0.1-1.1-0.2l-0.1,0.6c0.4,0.1,0.7,0.1,1.1,0.2L397.3,260.5z"/>
		<path d="M384.9,259.1c-0.5,0-1-0.1-1.5-0.1l-0.1,0.6c0.5,0,1,0,1.5,0.1L384.9,259.1z"/>
		<path d="M387,259.3c-0.5,0-1-0.1-1.5-0.1l-0.1,0.6c0.5,0,1,0.1,1.5,0.1L387,259.3z"/>
		<path d="M378.7,258.9c-0.5,0-0.9,0-1.4,0l0,0.6c0.5,0,0.9,0,1.4,0L378.7,258.9z"/>
		<path d="M376.7,258.8c-0.5,0-1.1,0-1.6,0l0,0.6c0.5,0,1.1,0,1.6,0L376.7,258.8z"/>
		<path d="M380.9,259c-0.5,0-1,0-1.6-0.1l0,0.6c0.5,0,1,0,1.6,0.1L380.9,259z"/>
		<path d="M393.8,259.9c-0.5-0.1-1-0.1-1.5-0.2l-0.1,0.6c0.5,0.1,1,0.1,1.5,0.2L393.8,259.9z"/>
		<path d="M395.5,260.2c-0.4-0.1-0.7-0.1-1.1-0.2l-0.1,0.6c0.4,0.1,0.8,0.1,1.1,0.2L395.5,260.2z"/>
		<path d="M389.4,259.4c-0.5,0-1.1-0.1-1.7-0.1l-0.1,0.6c0.6,0,1.1,0.1,1.6,0.1L389.4,259.4z"/>
		<path d="M391.7,259.7c-0.5-0.1-1.1-0.1-1.7-0.2l-0.1,0.6c0.6,0.1,1.1,0.1,1.7,0.2L391.7,259.7z"/>
		<path d="M371.9,258.8c-0.6,0-1.2,0-1.7,0l-0.1,0.6c0.6,0,1.2,0,1.8,0L371.9,258.8z"/>
		<path d="M404.3,249.1c-0.7,0.2-1.1,0.7-1.9,0.7c-0.3,0-0.5,0-0.5-0.6c0-0.6,0.7-1.9,1.4-2.7c0.3-0.4,0.2-0.5,0-0.5
			c-0.1,0-0.3,0.1-0.5,0.2c-0.4,0.4-1.8,1.8-2.3,2.5c-0.5,0.7-1.1,0.6-1.2,0.4c-0.1-0.2-0.3-0.8-0.5-1.2c-0.2-0.6-0.5-0.7-0.6,0
			c0,0.7,0.3,1.4,0.5,2.6c0.2,1.2,0,3.1-1,5.3c-0.3,0.7,0.3,0.5,0.7-0.3c1-1.9,3.6-4,6.2-5.9C405.1,249.4,405,249,404.3,249.1z"/>
		<path d="M405.4,243.7c0.4-0.4,0.7-0.7,1.1-1.2c0.3-0.3,0.2-0.8-0.1-0.8c-0.1,0-0.3,0.1-0.5,0.4c-0.4,0.5-0.6,0.8-0.8,1.2
			C404.9,243.6,405.1,244,405.4,243.7z"/>
		<path d="M407.2,243.7c0.5-0.4,0.9-0.7,1.3-1c0.3-0.2,0.3-0.5-0.1-0.5c-0.1,0-0.2,0-0.4,0.1c-0.7,0.4-1,0.7-1.3,1.1
			C406.4,243.8,406.6,244.2,407.2,243.7z"/>
		<path d="M385.7,253.9c0.7-2.9,2.5-5.3,5-7.4c0.5-0.4,0.1-0.7-0.2-0.5c-0.4,0.2-0.8,0.5-1.2,0.7c-0.4,0.2-0.7,0.1-0.8-0.4
			c-0.1-0.5,0.1-1.7,0.7-3.8c0.1-0.4,0-0.7-0.1-0.7c0,0,0,0-0.1,0c-0.1,0-0.2,0.2-0.3,0.5c-0.3,0.8-1.2,2.6-1.7,3.3
			c-0.5,0.7-1,0.4-1.4-0.4c-0.5-1.2-0.9-0.5-0.5,0.2c0.9,1.9,0.8,4.9,0.2,8.6C385.2,254.5,385.5,254.5,385.7,253.9z"/>
		<path d="M403.7,244.3c0.2-0.4,0.5-1,0.8-1.6c0.2-0.4,0-0.6-0.2-0.6c-0.2,0-0.5,0.2-0.6,0.5c-0.2,0.6-0.3,0.9-0.5,1.6
			S403.5,244.7,403.7,244.3z"/>
		<path d="M383.8,242.2c0.1-0.4,0.4-1.2,0.5-1.7c0-0.2,0-0.4-0.1-0.4c0,0-0.1,0-0.1,0c-0.2,0-0.4,0.2-0.5,0.5
			c-0.1,0.6-0.1,0.8-0.3,1.3S383.7,242.6,383.8,242.2z"/>
		<path d="M387.8,240.5c0.2-0.6,0.5-1.1,0.7-1.6c0.1-0.3,0-0.5-0.2-0.5c0,0-0.1,0-0.1,0c-0.1,0-0.3,0.2-0.4,0.5
			c-0.3,0.8-0.3,1.1-0.5,1.6C387.2,240.9,387.6,241,387.8,240.5z"/>
		<path d="M393.2,245.9c-0.3,0.5,0.2,0.6,0.4,0.3s0.7-0.7,1.2-1.3c0.3-0.4,0.1-0.6-0.2-0.7c0,0-0.1,0-0.1,0c-0.1,0-0.2,0.1-0.3,0.2
			C394,244.8,393.5,245.4,393.2,245.9z"/>
		<path d="M392.9,244.3c0.4-0.5,0.8-1,1.2-1.3c0.2-0.3,0.2-1-0.1-0.9c-0.1,0-0.2,0.1-0.3,0.3c-0.6,0.9-0.9,1.3-1.1,1.6
			C392.4,244.3,392.6,244.7,392.9,244.3z"/>
		<path d="M385.8,241.2c0.2-0.6,0.5-1.1,0.7-1.6c0.1-0.4,0-0.7-0.2-0.8c-0.2,0-0.4,0.1-0.5,0.5c-0.3,0.9-0.4,1.6-0.5,1.9
			C385.2,241.6,385.6,241.8,385.8,241.2z"/>
		<path d="M391.2,240.9c0.2-0.5,0.4-0.7,0.6-1.1c0.1-0.3-0.1-0.7-0.3-0.7c-0.1,0-0.3,0.1-0.4,0.4c-0.1,0.5-0.2,0.9-0.3,1.2
			C390.7,241,391,241.4,391.2,240.9z"/>
		<path d="M389.6,238.8c-0.4,0.8-0.5,1.2-0.6,1.6c-0.1,0.4,0.2,0.7,0.5,0.2c0.3-0.6,0.5-1,0.8-1.5c0.2-0.4,0-0.7-0.2-0.7
			C389.9,238.4,389.8,238.5,389.6,238.8z"/>
		<path d="M392.5,240.6c-0.3,0.6-0.4,1.1-0.6,1.6c-0.3,0.4,0.1,0.7,0.3,0.3c0.2-0.4,0.7-1,0.9-1.5c0.2-0.5,0.1-0.8-0.2-0.8
			C392.8,240.3,392.6,240.3,392.5,240.6z"/>
		<path d="M376.2,244.6c0.1-0.5,0.3-1,0.4-1.5c0,0,0-0.1,0-0.1l-1,1.9C375.8,245,376.1,245,376.2,244.6z"/>
		<path d="M401.2,244.5c-0.1,0.5,0.3,0.7,0.4,0.3c0.1-0.4,0.5-1,0.6-1.5c0.1-0.4-0.1-0.5-0.3-0.5c-0.2,0-0.5,0.1-0.5,0.4
			C401.3,243.7,401.3,244,401.2,244.5z"/>
		<path d="M399.8,244.1c-0.1,0.4-0.1,0.9-0.1,1.3c0,0.4,0.3,0.5,0.4,0.1c0.1-0.4,0.3-0.8,0.4-1.3c0.1-0.3-0.1-0.5-0.2-0.5
			C400,243.7,399.8,243.8,399.8,244.1z"/>
		<path d="M399.7,259.7c-0.2-0.1-0.3,0-0.4,0.2l-0.3,1.1l-0.2,0.6l-0.3,1c-0.1,0.2,0,0.3,0.2,0.4c0,0,0.1,0,0.1,0
			c0.1,0,0.3-0.1,0.3-0.2l0.3-1l0.2-0.5l0.3-1.1C399.9,259.9,399.8,259.7,399.7,259.7z"/>
		<path d="M392.3,259.7l0.2-1.1c0-0.2-0.1-0.3-0.3-0.4c-0.2,0-0.3,0.1-0.4,0.3l-0.2,1.1l-0.1,0.6l-0.2,1c0,0.2,0.1,0.3,0.3,0.4
			c0,0,0,0,0.1,0c0.2,0,0.3-0.1,0.3-0.3l0.2-1L392.3,259.7z"/>
		<path d="M394.4,260l0.2-1.1c0-0.2-0.1-0.3-0.2-0.4c-0.2,0-0.3,0.1-0.4,0.2l-0.2,1.2l-0.1,0.6l-0.2,0.9c0,0.2,0.1,0.3,0.2,0.4
			c0,0,0,0,0.1,0c0.1,0,0.3-0.1,0.3-0.3l0.2-1L394.4,260z"/>
		<path d="M387.7,259.3l0.2-1.4c0-0.2-0.1-0.3-0.3-0.4c-0.2,0-0.3,0.1-0.4,0.3l-0.2,1.5l-0.1,0.6l-0.1,0.6c0,0.2,0.1,0.3,0.3,0.4
			c0,0,0,0,0,0c0.2,0,0.3-0.1,0.3-0.3l0.1-0.7L387.7,259.3z"/>
		<path d="M397.9,260.7l0.3-1.1c0-0.2-0.1-0.3-0.2-0.4c-0.2,0-0.3,0.1-0.4,0.2l-0.3,1.1l-0.2,0.6l-0.3,0.9c0,0.2,0.1,0.3,0.2,0.4
			c0,0,0.1,0,0.1,0c0.1,0,0.3-0.1,0.3-0.2l0.3-1L397.9,260.7z"/>
		<path d="M396.1,260.3l0.2-1.1c0-0.2-0.1-0.3-0.3-0.4c-0.2,0-0.3,0.1-0.4,0.3l-0.2,1.1l-0.1,0.6l-0.2,1c0,0.2,0.1,0.3,0.3,0.4
			c0,0,0,0,0.1,0c0.2,0,0.3-0.1,0.3-0.3l0.2-1L396.1,260.3z"/>
		<path d="M390,259.5l0.1-0.8c0-0.2-0.1-0.3-0.3-0.4c-0.2,0-0.3,0.1-0.4,0.3l-0.2,0.9l-0.1,0.6l-0.2,1.2c0,0.2,0.1,0.3,0.3,0.4
			c0,0,0,0,0.1,0c0.2,0,0.3-0.1,0.3-0.3l0.2-1.2L390,259.5z"/>
		<path d="M377.3,258.8l0.1-1.5c0-0.2-0.1-0.3-0.3-0.3c-0.2,0-0.3,0.1-0.3,0.3l-0.1,1.5l0,0.6l0,0.6c0,0.2,0.1,0.3,0.3,0.3
			c0,0,0,0,0,0c0.2,0,0.3-0.1,0.3-0.3l0-0.6L377.3,258.8z"/>
		<path d="M375.1,258.8l0.1-1.6c0-0.2-0.1-0.3-0.3-0.3c-0.2,0-0.3,0.1-0.3,0.3l-0.1,1.6l0,0.6l0,0.5c0,0.2,0.1,0.3,0.3,0.3
			c0,0,0,0,0,0c0.2,0,0.3-0.1,0.3-0.3l0-0.5L375.1,258.8z"/>
		<path d="M372.5,258.8l0.1-1.6c0-0.2-0.1-0.3-0.3-0.3c-0.2,0-0.3,0.1-0.3,0.3l-0.1,1.6l0,0.6l0,0.5c0,0.2,0.1,0.3,0.3,0.3
			c0,0,0,0,0,0c0.2,0,0.3-0.1,0.3-0.3l0-0.5L372.5,258.8z"/>
		<path d="M379.3,258.9l0.1-1.4c0-0.2-0.1-0.3-0.3-0.3c-0.2,0-0.3,0.1-0.3,0.3l-0.1,1.4l0,0.6l0,0.7c0,0.2,0.1,0.3,0.3,0.3
			c0,0,0,0,0,0c0.2,0,0.3-0.1,0.3-0.3l0-0.7L379.3,258.9z"/>
		<path d="M383.5,259.1l0.2-1.3c0-0.2-0.1-0.3-0.3-0.4c-0.2,0-0.3,0.1-0.4,0.3l-0.2,1.4l-0.1,0.6l-0.1,0.7c0,0.2,0.1,0.3,0.3,0.4
			c0,0,0,0,0,0c0.2,0,0.3-0.1,0.3-0.3l0.1-0.8L383.5,259.1z"/>
		<path d="M381.5,259l0.1-1.5c0-0.2-0.1-0.3-0.3-0.3c-0.2,0-0.3,0.1-0.3,0.3l-0.1,1.5l0,0.6l0,0.6c0,0.2,0.1,0.3,0.3,0.3
			c0,0,0,0,0,0c0.2,0,0.3-0.1,0.3-0.3l0-0.6L381.5,259z"/>
		<path d="M385.6,259.2l0.1-1.2c0-0.2-0.1-0.3-0.3-0.4c-0.2,0-0.3,0.1-0.4,0.3l-0.2,1.2l-0.1,0.6l-0.1,0.9c0,0.2,0.1,0.3,0.3,0.4
			c0,0,0,0,0,0c0.2,0,0.3-0.1,0.3-0.3l0.1-0.9L385.6,259.2z"/>
	</g>
	<polygon fill="none" stroke="#999999" stroke-width="0.25" stroke-linecap="round" stroke-linejoin="round" points="418.9,224.3
		421.6,226.3 423.1,224.3 426.7,226.5 427.7,228.5 430.9,229.3 431.7,229.8 433.6,232.3 436.6,236.4 438.9,241.9 443.5,245.9
		443.3,246.7 442.8,247.9 442.4,248.1 440.5,253.7 440.2,256.7 439,257.5 434.3,262.3 434.7,265.2 435,275.6 435.5,276.1
		434.7,279.4 429.9,282.4 428.4,285.2 430.1,285.7 435.8,286.2 439.6,284.4 448.8,291.9 452.9,293.7 455.8,297.8 455.6,300.7
		457.5,303.7 457.6,306.1 458.4,307.5 459.5,309 462.1,310.8 464.1,311 466.1,311 468.8,308.8 470.9,306.3 472,306.8 473.1,311.3
		475.1,312.6 472.5,317.9 474.4,321.2 473.8,324.9 474.2,327.7 482.1,332.8 479.6,337.1 474.2,343.4 474,344.4 474.2,346.1
		474.2,347.1 473.2,350.1 471.4,352.2 472.2,354.9 474.3,355.7 477.2,355.9 476.9,358 478.5,359 481.4,363 482.5,369.6 482.2,374.9
		480.7,379.7 480.8,382.9 473.2,384 469.4,389 464.1,387.5 463.2,392.5 465.5,396.6 465.5,398.8 463.9,401.8 464.3,404.2
		460.7,408.5 460,408.2 457.5,407.2 455.1,410.3 453.7,410.2 452.3,410.3 450.9,412.1 448.9,412.4 445.9,414.8 440.8,417.4
		438.7,416 434.3,417.7 431.9,417.5 428.3,419.5 424.6,422 422.4,421.6 420.4,419.9 419.5,412.7 418.3,410.6 417.1,409.4
		415.4,407.8 413.8,406.9 413.2,406 412.3,404.6 409.2,403.6 401.6,406.1 392,408.4 389.5,411.8 387.6,412.4 381.9,413.2 379,412
		378,414.8 376.7,415.3 372.9,412.6 368.5,418.9 368.2,420.8 366.9,421 365.3,417.2 365.2,413.2 360.6,415.1 360.4,418.6
		357.5,407.9 357.5,406.1 357.9,404.6 359.6,402.5 363.8,399.2 371.1,395.4 389.9,379.3 390.6,377.7 393.7,367.5 394.4,363.8
		394.1,360.6 391.6,346.2 388.6,329.7 385.8,319.3 383.9,314.8 378.7,307 372.6,295 370.5,286.3 368.3,277 367.9,274.4 367.8,272.9
		369.3,262.9 371.1,254 377.9,240.3 378.2,239.4 378.9,233.7 379.9,228.8 381,225.9 385.7,218 394.1,203 400.8,183 401.3,181.4
		401.6,179.6 401.6,173.8 401.7,172 406.6,176.8 409.1,178.6 409.1,182.9 413.6,186.6 415.9,187.4 421.6,192.8 422.4,194.1
		424.4,194.7 425.1,196.1 429.9,204.1 430.1,206.4 428.2,209 422.7,216.7 	"/>
</g>

</svg>
