<?xml version="1.0" encoding="utf-8"?>

<svg version="1.2" baseProfile="tiny" xmlns="http://www.w3.org/2000/svg" xmlns:xlink="http://www.w3.org/1999/xlink" x="0px"
	 y="0px" viewBox="0 0 188.3 325" xml:space="preserve">

<g id="Sri_Lanka">
	<g>
		<polygon fill="#FFB700" points="17.2,19.7 16.6,19.2 16,17.6 15.5,17.2 15.2,17.6 15.1,20.7 15.7,21.5 18.4,22 19.1,21.9
			19.4,21.5 19.6,19.8 19.3,18.6 18.5,18 17.8,18 17.7,18.5 18.2,19.3 17.8,19.6 		"/>
		<polygon fill="#FFB700" points="40.7,20.5 38.1,19.5 35.5,19.4 36.7,20.9 40.7,23.2 45.5,23.2 		"/>
		<polygon fill="#FFB700" points="2.6,22.8 2.5,23.2 3.5,23.2 3.2,22.9 		"/>
		<polygon fill="#FFB700" points="22.3,6.7 22.2,6 21.3,5.7 19.4,6.1 18.9,7.6 18.7,9.4 17.8,10.8 19.8,14.8 21.1,16.7 22.4,17.7
			23.4,17.5 24.9,16.7 25.5,16.8 26.4,17.3 27.5,17.7 28.6,17.7 29.2,17.1 28.8,16.3 27.8,15.7 26.5,15.1 25.5,14.5 25.3,14
			25.2,12.8 24.9,12.5 23.3,12.6 23,12.5 22.3,11.8 21.9,10.9 21.8,10 21.8,8.8 22,7.7 		"/>
		<polygon fill="#FFB700" points="70,20.7 66.8,18.8 65.2,17.7 54.3,5 53.5,3.8 52.7,1.1 51.6,0.3 49.9,0 46.5,0.2 44.2,0.5
			42.4,1.3 42.6,2.6 43.8,3.5 48.6,4.6 51.7,6.2 57.7,13.1 65,19 68,20.5 68,21.1 61.8,18.3 59.2,16.7 49.5,6.3 48.6,5.7 47.9,5.8
			46.9,6.1 46.1,6.1 45.7,5.4 45.3,5.2 43.3,4.7 42.6,4.6 41.9,4.3 41.6,3.7 41.7,2 41.2,0.9 40,0.7 36.6,1.1 30.1,0.6 28.6,1.2
			25.3,4.2 23.5,5.1 24.1,6.1 25.3,7.6 25.8,8.5 26.1,9.6 26.3,10.5 26.7,11.3 27.6,12 27.7,11.4 28.3,11.7 29.2,12.2 31.1,12.9
			34.3,15.4 38.3,17.6 40.3,18.4 42.3,18.8 41.4,17.8 39.8,16.4 38.9,15.4 40.7,16.1 43.8,18.8 45.4,19.6 45.9,20.1 46.5,20.4
			47.2,20.2 47.7,19.2 47.2,18.3 46.3,17.7 45.7,17.1 45.5,15 46.5,15.1 48.1,16 53.3,18.2 55.8,19.8 59.8,23.2 73.2,23.2 		"/>
		<polygon fill="#FFB700" points="84.5,322.6 85.7,322.2 87.1,322 90.5,322.2 92,320.5 98.4,315.7 100.6,314.9 102.8,315.3
			104.1,313.6 106.2,312.8 110.8,311.9 115,310.5 123.6,308.6 125.4,307.9 127.2,306.8 128.2,306.3 128.9,306.1 129.4,305.6
			129.6,304.2 129.9,303.5 130.5,303.4 131.1,303.8 131.3,305.1 141.3,301.6 144.4,299.9 149.7,295.7 33.6,295.7 33.7,296.5
			37.6,304.6 38.6,305.9 38.8,306.3 38.8,307 38.9,307.3 39.1,307.6 39.7,308.1 46.5,315.2 48,316.5 48.6,315.9 49.8,316.4
			51.7,317.9 54.1,318.4 58.3,319.9 58.6,320.1 59.1,320.8 59.4,321.1 59.9,321.1 60.2,320.9 60.5,320.6 60.9,320.5 61.5,320.6
			61.9,321 62.2,321.4 62.5,321.6 65.3,322 66.6,321.9 68,321.1 68.6,322 69.1,322.9 69.2,323 83.8,323 		"/>
		<polygon fill="#8D2029" points="29.1,44.4 28.6,44.7 29.3,45.9 29.7,45.6 30.3,45 30.4,44.5 30.1,44.1 29.6,43.7 		"/>
		<polygon fill="#8D2029" points="3.1,63.2 2.8,62.9 1.3,62.8 0.3,63.4 1.1,63.4 1.4,63.2 		"/>
		<path fill="#8D2029" d="M141.8,127.5c0.1,0,0.2-0.1,0.3-0.1c0.2,0,0.4,0,0.6,0c-0.2-0.5-0.4-0.7-0.5-0.8
			C142,126.8,141.9,127,141.8,127.5z"/>
		<path fill="#8D2029" d="M54.2,179.8c0,0-0.1,0.1-0.1,0.1c-0.5,0.3-1,0.4-1.7,0.5c0,0,0,0,0,0c1.2,0.5,2.4,1.2,2.7,2.4
			c0.6-0.8,1.3-1.5,2.1-1.9c0.7-0.3,1.1-0.7,1.2-0.9c0-0.1-0.1-0.3-0.1-0.4c-0.8,0.8-1.8,1.7-2.8,1.7c-0.7,0-1.2-0.4-1.4-1
			C54.2,180.1,54.2,179.9,54.2,179.8z"/>
		<path fill="#8D2029" d="M116.9,136.9C116.9,136.9,116.9,136.9,116.9,136.9l-0.3-0.8C116.7,136.4,116.8,136.7,116.9,136.9z"/>
		<path fill="#8D2029" d="M54.3,174.4c-0.1,0-0.1,0.1-0.2,0.1c-0.5,0.3-1.2,0.5-2.3,0.4c2.2,0.9,3.1,1.6,3.2,2.5
			c0.5-0.8,1.3-1.5,2.1-1.9c0.7-0.3,1.1-0.7,1.2-0.9c-0.1-0.2-0.1-0.5,0-0.8c-1.8,1.7-2.8,2.3-3.6,1.8
			C54.4,175.4,54.3,174.9,54.3,174.4z"/>
		<path fill="#8D2029" d="M133.3,123C133.3,123,133.3,123.1,133.3,123c0.5-0.6,0.9-0.7,1-0.7c-0.2-0.2-0.5-0.4-0.6-0.5
			C133.6,122.1,133.5,122.5,133.3,123z"/>
		<path fill="#8D2029" d="M145.8,154.7c0,0.4,0.1,0.7,0.1,0.9c0.2-0.1,0.3-0.2,0.5-0.3C146.1,155.2,145.9,154.9,145.8,154.7z"/>
		<path fill="#8D2029" d="M141.1,141.4c-0.1,0-0.3,0.2-0.5,0.5c0.2,0,0.3,0.1,0.4,0.2C141,141.7,141.1,141.5,141.1,141.4
			C141.1,141.4,141.1,141.4,141.1,141.4z"/>
		<path fill="#8D2029" d="M130.7,126.9c0,0,0.1-0.1,0.1-0.1c-0.1,0-0.2,0-0.4,0C130.6,126.8,130.7,126.9,130.7,126.9z"/>
		<path fill="#8D2029" d="M153.4,149.4C153.4,149.4,153.4,149.4,153.4,149.4c0,0,0.1,0,0.2,0C153.6,149.4,153.5,149.4,153.4,149.4
			C153.4,149.4,153.4,149.4,153.4,149.4z"/>
		<path fill="#8D2029" d="M121.2,132C121.2,132,121.2,132,121.2,132c0.2,0,0.4,0,0.5,0.1c-0.1-0.3-0.2-0.6-0.2-0.8
			C121.4,131.5,121.3,131.7,121.2,132z"/>
		<polygon fill="#8D2029" points="136.5,113.4 136.1,113.4 136.5,113.7 		"/>
		<path fill="#8D2029" d="M136.2,133.3c0,0,0.1,0,0.1-0.1c0.1-0.1,0.3-0.1,0.4-0.1c-0.2-0.1-0.3-0.2-0.4-0.3
			C136.2,133,136.2,133.2,136.2,133.3z"/>
		<path fill="#8D2029" d="M145.6,140.1c0.1-0.2,0.2-0.4,0.3-0.7c0,0,0-0.1,0-0.1c-0.2,0-0.4,0-0.8-0.2
			C145.4,139.5,145.6,139.8,145.6,140.1z"/>
		<path fill="#8D2029" d="M140.1,110.7c-0.1,0-0.2-0.1-0.3-0.2c0.1,0.2,0.2,0.3,0.2,0.3C140,110.8,140,110.8,140.1,110.7z"/>
		<path fill="#8D2029" d="M134.1,138.8c0.1,0.2,0.2,0.5,0.3,0.6c0.1-0.1,0.1-0.2,0.2-0.4l0,0C134.4,139,134.3,139,134.1,138.8z"/>
		<path fill="#8D2029" d="M55,171.9c0,0.1,0.1,0.2,0.1,0.2c0.1-0.2,0.3-0.3,0.4-0.5L55,171.9z"/>
		<path fill="#8D2029" d="M41.6,158.4c-0.2,0.1-0.3,0.1-0.5,0.1c0,0.2,0.1,0.5,0.4,0.8C41.5,159,41.6,158.7,41.6,158.4z"/>
		<path fill="#8D2029" d="M131.1,146.4c0.1,0,0.1,0,0.2,0c0.2,0,0.4,0.1,0.6,0.2c-0.2-0.4-0.3-0.7-0.4-1
			C131.4,145.8,131.3,146.1,131.1,146.4z"/>
		<path fill="#8D2029" d="M135.2,151c0,0.1,0,0.1,0.1,0.1l0.4,0.9l0.3-0.5c-0.1,0-0.2-0.1-0.3-0.1
			C135.5,151.3,135.4,151.1,135.2,151z"/>
		<polygon fill="#8D2029" points="2.4,23.7 2.4,27.1 3.3,28.2 5.2,28.8 7.3,28.7 8.7,27.4 7.7,25.4 7.3,25.1 5.6,25 4.1,24.5
			3.8,23.6 3.5,23.2 2.5,23.2 		"/>
		<path fill="#8D2029" d="M60.2,169c0.1,0,0.1,0,0.2,0.1c0,0,0-0.1,0-0.1C60.3,169,60.3,169,60.2,169z"/>
		<polygon fill="#8D2029" points="24,73.4 23.6,72.9 23.3,74.4 		"/>
		<polygon fill="#8D2029" points="95.4,257.4 95.4,257.4 95.4,257.4 		"/>
		<path fill="#8D2029" d="M159.8,287.8l2.1-1.1l1.6-0.5l4.8-3.4l2.6-2.6l7.8-12.3l0.9-2.4l-0.6-2l2.4-3.7l0.5-1.4l0.3-1l1.2-2.3
			l0.3-1.5l0.1-1.8l0.2-1.4l3.8-13.2l0.5-3.3l-0.1-1.7l-0.9-2.9l-0.2-1.3l0.4-19.6l-2.1-7.1l-1.3-2l-0.2-1.8l-0.3-0.7L183,196
			l-0.1,0c-0.2,0-0.4,0.1-0.5,0.1l0.2,0.6v0.6l-0.5,0.7l-0.4,1l-0.2,1.2l-0.1,1.2h-0.6l0-1.2l-0.6-3.4h-0.1
			c-0.2,0.1-0.4,0.1-0.6,0.2l-0.5,0.7l-0.7-0.1l0-0.1c-4.5,1.5-9.8,3.7-17,7c-6.1,2.8-13.2,5.8-14.5,6.1l-2.9,0.7
			c-1.3,2.4-2.8,4.8-4.4,7.2c-2.7,4.1-3.6,7.2-2.7,9.2c0.8,1.6,2.9,2.7,6.3,3c4.3,0.5,4.3,1.1,4.3,1.6c0,1.4-4.7,6.6-6.2,7.4
			c-0.9,0.5-3.4,1.5-5.6,2.3c-3.4,1.2-3.4,1.2-3.3,3.3c0.1,1.4,0.3,3.8,0.6,5.3c0.4,2.5,0.1,3.6-1.5,6.1c-2,3-2.3,3.2-5.8,2.7
			c-1.7-0.2-4-0.9-4.9-1.7c-0.8-0.7-0.8-0.7-2.3,0.4c-2.8,2-7,2-9.4,0l-1.2-1l-1.4,1.1c-1.6,1.2-3.8,1.8-5.7,1.5
			c-1.3-0.2-2.3-0.7-2.9-1.6l-0.6-0.9l-1.8,1.1c-2.3,1.3-3.7,1.7-4.5,1.2c-0.3-0.1-0.7-0.5-0.7-1.3c0-2.5,2.6-7.7,4.6-9.4
			c2.2-1.7,3.1-1.8,9.2-1.8c5.5,0.1,6.7-0.1,8.7-1.3c6.2-3.6,6.8-9,2.2-22.3c-1.1-3.1-1.9-5.8-2.6-8.3c-0.1,0.1-0.1,0.1-0.2,0.2
			c-1.6,1.2-11.2-4.6-15-7.4c-0.1-0.1-0.3-0.2-0.4-0.3c0.3,0.4,0.4,0.7,0.4,1c0,1.8-6.7,7-9.1,7.9c-0.5,0.2-2.8,1.1-3.5,1
			c-0.3-0.1-1.3-0.2-2.3-0.4c-1.4-0.3-5.5-3.8-7.8-6.1c-3.2-3.1-5.7-5.1-6.2-5.4c-1.3,0-2.8,1.2-2.8,1.8c0,0.5,0,1.2-0.6,1.4
			c-0.6,0.3-1.1-0.2-1.9-0.9c-1.3-1.2-1.5-3-1.5-8.4c0-6.4,0-6.4-1.7-7.7c-1.1-0.8-1.6-1.5-1.7-2c-1.6,1.4-2.4,2-3.2,1.7
			c-0.5-0.2-0.7-0.7-0.7-1.2c-0.1,0.2-0.3,0.4-0.6,0.6c-0.9,0.6-2.3,0.8-4,0.6c0.6,0.4,1.1,0.8,1.2,1.3c0.1,0.2,0.1,0.5,1.7,0.3
			c2.6-0.4,5,0.5,5.6,2.1c0.4,1,0.1,2.1-1,3c-1.1,0.9-2.2,0.7-4.2,0.1c-1.1-0.4-1.9-0.5-2.3-0.5c-0.1,0.6,0.6,3,2.1,4.4
			c1.7,1.6,1.9,2.1,0.4,4c-2.4,2.8-2.3,7.5,0.1,9.8c1.2,1.1,1.5,1.1,1.5,1.1c0,0,0.2-0.1,0.3-0.8c0.2-0.9,1-1.5,1.9-1.7
			c1.2-0.3,2.5,0.2,3.3,1.1c0.6,0.7,0.9,2,0.5,3.1c-0.7,2-4.7,4.5-7.2,4.5c-0.7,0-0.8,0.2-0.8,0.2c0,0.1,0.2,0.9,1.8,2.2l3.4,2.7
			l-4.8,0.7c-2.6,0.4-2.6,0.6-2.6,1.2c0,0.9-0.5,2.4-1.2,3.3c-0.5,0.7-1.5,1.8-2.4,1.8c-1.3,0-3.2-4.1-3.4-5.7
			c-0.3-0.2-1.2-0.5-2.4-0.7l-4.6-0.7l3.2-2.5c1.4-1.1,1.7-1.9,1.6-2.2c-0.1-0.2-0.4-0.3-1-0.3c-1.3,0-3.2-1-4.4-2.1
			c-1.9-1.6-2.5-2.5-2-4.4c0.3-1.2,1.1-2,2.1-2.2c1.2-0.2,2.5,0.4,3.4,1.7l0.6,0.8l1.2-1.3c2-2.1,2.1-6.6,0.3-9.2l-1.7-2.4l2.1-2.3
			c1.5-1.7,1.7-2.7,1.5-3c-0.1-0.2-0.6-0.3-1.2-0.3c-2.3,0.2-4-0.2-5-1.1c-0.6-0.5-0.9-1.3-0.9-2.1c0-1.1,0.5-2,1.3-2.5
			c0.9-0.5,2.2-0.5,3.3,0.2c1.1,0.7,1.8,0.8,2.1,0.6c0.2-0.1,0.3-0.5,0.3-1.2c0-1,0-1.7,0.5-2.1c0.1-0.1,0.2-0.2,0.4-0.2
			c-2.1-1-3-1.7-3-3.6c0-0.8,0-1.5,0.5-1.9c0.2-0.2,0.4-0.3,0.8-0.3c-1.4-0.5-2.3-1.3-2.6-2.3c-0.3-1,0.1-2.1,1.2-2.9
			c0.2-0.1,0.4-0.3,0.7-0.3c-1.4-0.4-2.4-0.9-3-2.1c-0.8-1.5-0.9-2.7-0.2-3.5c0.5-0.6,1.5-0.9,2.8-0.8c-0.8-0.5-1.3-1.1-1.4-1.8
			c-0.2-1,0.2-1.6,0.5-1.9c0.9-0.8,2.6-0.9,5.6-0.3c1.7,0.4,3.2,0.8,4.3,1.2c-0.5-0.5-0.7-0.8-0.6-1.2c0-0.1,0.1-0.1,0.1-0.2
			c-5.1,0.2-10.7-0.5-13.9-2.1c-3.6-1.7-5.7-4.9-5.4-8.1c0.3-2.7,2.2-4.8,5.2-5.5c1.9-0.5,3.5-0.4,4.6,0.3
			c-0.7-2.2-0.7-6.9-0.7-22.6c0-33.8,2.2-50,8.5-61.9c3.4-6.4,7.2-10.8,12.2-14.2c2.9-2,3.6-2.4,4.2-1.8c0.6,0.5,0.2,1.4-0.7,2.9
			c-3.6,6.7-6.5,35.4-7.2,73c-0.3,16.5-0.5,21.9-1.1,24.3c1.1-0.5,2.5-0.4,4.3,0.1c3,0.9,4.8,3.1,5,5.8c0.2,3.1-1.9,6.1-5.2,7.9
			l11.3,11c5.8,5.6,9,8.9,10.7,11.1c-1.5-4.7-2-9.5-1.2-14.3c2.1-13.6,9.7-24.4,22.5-32.2c5.9-3.6,8.1-6,7.3-8.1
			c-0.4-1-0.9-1.6-1.4-1.7c-0.6-0.2-1.4,0.1-2.3,0.7c-1,0.7-1.8,1.8-1.9,2.3c-0.2,1.3-0.8,1.6-1.3,1.7c-1.7,0.2-3.3-2.7-4.1-4.5
			c-0.9-1.9-1.4-2.6-1.7-2.9c-0.1,0.2-0.2,0.6-0.2,1.2c-0.2,1.7-0.7,2.7-1.6,2.9c-1,0.2-2-0.6-3.1-2.3c-1.2-1.8-1.2-1.8-2.5-1.2
			c-1.1,0.5-3,1.2-4.3,1.4l-3.7,0.8l2.1-3.8c0.4-0.7,0.6-1.2,0.8-1.6c-0.3,0.1-0.7,0.2-1.1,0.3c-1.2,0.4-3.8,0.8-5.8,1l-4.6,0.4
			l1.3-4.1c0.5-1.7,1.3-4.3,1.8-5.7c0.5-1.6,1-2.7,2-3.1c0.4-0.2,0.8-0.3,1.3-0.2c-2.6-1.5-4.4-3.6-4.7-5.4
			c-0.1-0.9,0.1-1.6,0.7-2.1c0.9-0.9,2.6-0.5,8.5,2.2c9.1,4,17.8,6.5,23.2,6.5c0.6,0,1.1,0.1,1.5,0.2c-0.7-1-1.5-2-2.4-3.1
			c-2.2-2.5-4.6-5.8-5.3-7.2l-0.6-1.2l-0.2,0.5c-0.4,1-0.7,2.2-0.7,2.7c0,0.3,0,0.9-0.5,1.2c-0.6,0.3-1.3,0-2.5-0.8
			c-1.1-0.7-2.5-1.8-3.1-2.6c-0.2-0.3-0.4-0.5-0.5-0.6c0,0.3,0,0.7,0.1,1.3l0.5,3.8l-3.5-1.9c-1.2-0.7-2.8-1.9-3.3-2.8
			c-0.3-0.6-2.6-3.2-5.4-6c-2.4-2.4-5.1-5.6-5.4-7.1c-0.2-1-0.7-2.8-1.1-3.9c-1.1-3.4-0.9-6.6,0.6-8.7c1.2-1.6,3.1-2.5,5.4-2.5
			c2.1,0,4,0.8,5.2,2.1c1.1,1.3,1.6,3,1.3,4.8c0,0.3-0.1,1-0.2,1.5c0,0,0,0,0,0c0.8-0.3,3.3-0.7,5.2-0.9c2-0.2,4.6-0.8,5.6-1.2
			c1.1-0.5,3.7-1,5.8-1c4.1,0,6.7-1.1,8.7-3.8c1.2-1.7,1.3-2,0.8-3.3l-1.1-2.7l0.8-0.1l-1.4-1.7l-0.6,1.4l-0.9,1.5l-1.1,1.1
			l-1.4,0.1l-1.3-1l0.8-0.9l0.9-0.8l-1-0.7l0-1.6l-3-2.8l-0.9-1.3l1.3,0.6l2.3,0.6l1,0.5l0.9,1.5l0.2,0.2l0.8-0.3l0.4-0.6l0-0.6
			l-0.3-0.3l-1.6-1l-1.6-2.4l-1.2-2.7l-0.5-1.9l-0.4,0.3l-0.3,0.1l-0.3,0.2l-0.3,0.5h-0.6l-0.2-1.9l-1.2-0.8l-1.3-0.2l-0.6-0.3
			L101,56l1.1,0l2.4,0.9l-4-7.8l-0.9-2.6l-0.5-0.4l-1.2,0.3l-0.2,0.7l0.4,0.9l0.7,1l-1.7-0.9l-4.3-4l-0.4-0.9l0.6-0.2l1.5,0.2
			l0.5,0.3l0.9,1.1l0.6,0.3l1-0.5L96.4,43l-1.8-1.7l-0.9-1.2L93,39.1L73.2,23.2H59.8l1.9,1.7l0.8,0.2l2.7-0.1l0.4,0.1l1.1,0.8
			l0.3-0.2l0.3-0.4l0.7-0.3l1.7-0.1l0.6,0.1l0.6,0.3l1.5,1.1l0.5,0.2l1.7,0.4l1.9,0.9l5.7,3.8l-3.9-0.8L73,28.8l-4.4-1.2l-2-0.2
			l-7.5,3l-4.1,1l-1.7-1.2l0.5-0.6l-0.3-0.6l-0.2-0.6l1-0.5l-0.5-0.9l-2-1.7l-1.3-0.8l-4.8-1.2l-0.2-0.1h-4.8l2.2,1.3l1.6,1.2
			l1.2,1.2l1,1.3l0.8,1.4l-1,0.1l-0.7,0.3l-0.6,0.4l-0.5,0.4l-1.8,2.4L42,33.6l-1.7,0.2l-2.1,0.6l-1.8,0.9l-1,1l0.1,1.1l0.4,1.9
			l0.7,1.8l0.9,0.8l2.3,1.2l1,0.2l0.2,0.5l-0.2,0.7v4.8L39.8,53l-2.7,6.9l-0.6,2.9l-1,2.1l-0.6,2l-1,0.9L31.5,69l-4.8,4.3l-0.7,0.2
			l-1.1,0.2L24,74.1l0.3,0.8l0.4,0.7l0.2,1l0.2,2l-0.2,6l-0.2,0.9l2,5.2l-0.7,8.1l-0.8,1.7l-0.2,0.7l-0.2,0.2l-1,3l-1.1,1.2
			l-1.3,0.9l-1.1,1.1l-0.5,1.7v3.5l-0.2,1.2l-0.4,0.6l-0.5,0.5l-0.5,0.9l-0.8,8.1l-0.8,3.5l-0.2,1.7l-0.2,0.9l-1.1,1.4l-0.4,0.8
			l-0.2,0.9l0.2,0.3l0.3,0.3l0.3,0.7l0,0.7l-0.1,1.7l0.1,1l0.3,0.6l0.4,0.6l0.4,0.7l0.1,1l-2.8,5.3l0.2,0.9l0.8,0.5l1,1.3l0.9,1.6
			l0.4,1.5l-2,1.4l-3.9-0.3l-2.7-1.9l1.7-3.5l-1.9-2.2L8.4,143l1.4-4.5l0.1-0.6l-0.1-2l0.1-0.9l0.3-0.2l0.4,0l0.4-0.3l0.8-1.7
			l0.8-2.3l-1,0l-0.8-0.3l-0.6-0.6l-0.4-0.8l1.6-2.8l1.3-3l-2.5,3.8l-0.4,1l-0.4,1.6l-1,1.9l-1.3,1.7L5.8,134l0.4,1.5l0.4,4.9
			L6.4,142l-0.2-0.3v-0.1l-0.1,0l-0.3-0.2l0,2.7l2.1,9.4l1.4,3.4l0.9,4.3l1,2l2.2,10.4l0,3.1l0.2,1.5l0.6,1.1l0.5,1.3l-0.2,1.6
			l-0.4,1.7l-0.1,1.4l-0.6-0.4l-0.2,0l-0.3,0.4l0.5,1.1l4.1,29.7l-0.2,0.6l-0.3,0.6l-0.1,0.7l0.3,0.7l0.5,0.3l1.1,0.2l0.4,0.3
			l0.4,0.9l0.2,1.1l0,2.6l-0.1-0.1l-0.2,0.1l-0.2,0.3l-0.1,0.8h-0.5l-0.4-0.7l-0.8-2.8l-0.4-0.7l-0.5-0.6l-0.3-0.8l0-1.3l-0.5,2.1
			l4,14.1l0,1l-0.2,1l-0.9,2.2v6l1.2,6.9l8.9,22.6l0.7,4.7l-0.2,0l-0.4,0l-0.4,0.1l-0.1,0.5l0.2,0.5l0.4,0.3l0.4,0.2l0.2,0.1
			l1.3,5.3l1.5,2.7l0.7,3.9l0.7,1.4l0.1,0.4l0,1.4l0,0h116.1L159.8,287.8z"/>
		<path fill="#8D2029" d="M59.8,183.2c-0.1,0.2-0.3,0.4-0.4,0.6c-0.3,0.4-0.7,0.9-1.1,1.3c0.8-0.4,1.4-0.6,1.8-0.5
			C59.9,184.1,59.8,183.7,59.8,183.2z"/>
		<polygon fill="#8D2029" points="21.3,64.6 17.9,62.6 14.3,61.3 11,60.4 7.3,60.4 6.2,60.8 5.9,61.6 6.3,62.4 7.3,62.7 9.1,62.9
			11,63.4 14.4,65 17.8,68 18.7,68.4 19.4,68.9 20.2,70 21.5,71 23.5,71.3 22.8,69.9 18.9,65.6 20.3,65.8 22.7,67 24.1,67.3 		"/>
		<path fill="#8D2029" d="M56.6,186.3c-1.1,0.5-2.2,0.2-2.4-0.8c0-0.1,0-0.3,0-0.5c-0.1,0.1-0.2,0.1-0.2,0.2
			c-0.5,0.3-1.1,0.5-1.8,0.5c1.4,0.7,2.4,1.6,2.7,2.7C55.2,187.7,55.9,187,56.6,186.3z"/>
		<path fill="#8D2029" d="M107,148.6c-0.2,0.2-0.3,0.4-0.5,0.5c-0.1,0.1-0.1,0.1-0.2,0.1c0.2,0,0.4-0.1,0.7-0.1
			C107,149,107,148.8,107,148.6z"/>
		<path fill="#8D2029" d="M123.4,148.5c0.2-0.1,0.4-0.1,0.6,0c-0.1-0.4-0.3-0.8-0.3-1.1C123.6,147.7,123.5,148.1,123.4,148.5z"/>
		<path fill="#8D2029" d="M125.1,152.1c0,1,0.1,1.8,0.2,2.2c0.1-0.1,0.3-0.2,0.4-0.4l-0.6-2C125.1,152,125.1,152.1,125.1,152.1z"/>
		<path fill="#8D2029" d="M115.6,156c0,0.1-0.1,0.2-0.1,0.3c0.1-0.1,0.2-0.2,0.4-0.3l-0.2-0.6C115.7,155.6,115.6,155.8,115.6,156z"
			/>
		<path fill="#8D2029" d="M102.2,119.1C102.3,119.1,102.3,119.2,102.2,119.1c0.1,0.1,0.1,0,0.1,0
			C102.3,119.1,102.3,119.1,102.2,119.1z"/>
		<path fill="#8D2029" d="M113.9,147.1l-1.4,0.7c0.1,0,0.2,0,0.3,0c0.5,0,0.9,0.1,1.1,0.4c0-0.3-0.1-0.5-0.1-0.7L113.9,147.1z"/>
		<polygon fill="#FFB700" points="-6.1,61.4 -6.3,61.3 -6.2,62 -6.1,61.9 		"/>
		<path d="M143.3,127.3c-1-2.1-1.7-2-2.3,0.3l-0.5,1.8l-0.7-1.7c-0.7-1.7-5.4-6.7-6.3-6.7c-0.3,0-0.7,0.8-0.9,1.8
			c-0.8,3.5-1.6,4-3.7,2.2c-1-0.9-2.5-2.6-3.2-3.7c-1-1.5-1.3-1.7-1.3-0.8c0,1.1,5.4,7.1,6.4,7.2c0.2,0,1-1,1.7-2.3
			c0.7-1.3,1.5-2.3,1.8-2.3c1,0,4.9,4.8,4.9,6c0,1.7,1.2,1.7,2.1,0c0.8-1.3,0.8-1.3,2.8,0.5c1.8,1.6,2.1,2.4,2.1,5.3
			c0,1.9-0.2,3.6-0.4,3.8c-0.2,0.2-1.4-0.6-2.7-1.7c-2-1.8-7.4-5.3-7.5-4.9c0,0.1-0.2,1.5-0.4,3.1c-0.2,1.7-0.5,3.1-0.6,3.2
			c-0.1,0.1-0.8-0.9-1.6-2.3c-0.8-1.4-2.1-3.2-3-3.9c-1.5-1.3-1.6-1.3-2.4-0.1c-0.4,0.7-1.6,2.2-2.6,3.3l-1.8,2l-0.5-3.4
			c-0.3-1.9-0.8-3.6-1.2-3.8c-0.4-0.2-0.7,0-0.7,0.5c0,0.5-0.8,2-1.7,3.5l-1.7,2.6l-1.5-4.3c-0.8-2.4-1.3-3.2-1.1-1.9
			c0.2,1.3,0.6,3.5,0.8,4.8c0.2,1.4,0.6,2.5,0.9,2.5c0.7,0,4.2-3.9,4.2-4.8c0-0.4,0.4-0.4,0.8-0.2c0.5,0.3,0.6,1.5,0.4,3
			c-0.2,1.4-0.1,2.6,0.1,2.6c1.1,0,3.6-2.2,5.1-4.4l1.5-2.4l2,2.6c1.1,1.4,2.2,3.4,2.5,4.4c0.3,1,0.7,1.8,1.1,1.8
			c0.6,0,2.1-4.2,2.1-5.8c0-1.1,0.4-1.1,2.7,0.3c2.9,1.7,5.8,4.4,5.8,5.4h0c0,1.4,1.2,1,1.7-0.6c0.2-0.8,0.4-3,0.4-4.8l0-3.3
			l2.5,1.8c0,0,0.1,0,0.1,0.1l-0.4-1.3l-1.4-0.9C145.8,129.9,143.7,128.1,143.3,127.3z M130.7,126.9c-0.1,0-0.2-0.1-0.3-0.2
			c0.1,0,0.2,0,0.4,0C130.8,126.9,130.8,126.9,130.7,126.9z M133.3,123.1C133.3,123.1,133.3,123,133.3,123.1
			c0.1-0.5,0.3-0.9,0.4-1.2c0.2,0.1,0.4,0.3,0.6,0.5C134.2,122.4,133.9,122.4,133.3,123.1z M142.1,127.4c-0.1,0-0.2,0.1-0.3,0.1
			c0.1-0.5,0.3-0.8,0.4-0.9c0.1,0.1,0.3,0.4,0.5,0.8C142.4,127.4,142.2,127.4,142.1,127.4z M116.9,136.9c-0.1-0.2-0.2-0.5-0.3-0.8
			L116.9,136.9C116.9,136.9,116.9,136.9,116.9,136.9z M121.2,132C121.2,132,121.2,132,121.2,132c0-0.3,0.1-0.5,0.2-0.7
			c0.1,0.2,0.2,0.5,0.2,0.8C121.5,132,121.4,132,121.2,132z M134.3,139.4c-0.1-0.2-0.2-0.4-0.3-0.6c0.2,0.2,0.3,0.2,0.4,0.2l0,0
			C134.4,139.2,134.4,139.3,134.3,139.4z M136.3,133.2c0,0-0.1,0-0.1,0.1c0-0.2,0-0.3,0.1-0.5c0.1,0.1,0.3,0.2,0.4,0.3
			C136.6,133.1,136.4,133.2,136.3,133.2z M145.9,139.4c-0.1,0.3-0.2,0.6-0.3,0.7c0-0.3-0.2-0.6-0.4-1c0.3,0.2,0.6,0.2,0.8,0.2
			C145.9,139.3,145.9,139.4,145.9,139.4z"/>
		<path d="M139.8,117.7c-0.4,0,0.2,0.8,1.3,1.8c1.1,1,2.5,2.5,3.1,3.4l1.1,1.6l0.5-0.9h-0.3l-1.1-0.5l-0.5-1l-0.2-1.1l-0.9-0.9
			C141.6,118.8,140.2,117.7,139.8,117.7z"/>
		<path d="M160.9,152.3l-0.2,0.2c0.1,0,0.2,0,0.3,0.1L160.9,152.3z"/>
		<path d="M179.8,196.7l-0.1,0.2c0.2-0.1,0.4-0.1,0.6-0.2H179.8z"/>
		<path d="M145.8,121.4l0.8,0.6l0-0.1l-0.1-2.1l0-0.1c-0.1,0.4-0.2,0.7-0.4,1L145.8,121.4z"/>
		<path d="M130.7,93.5l-0.6-0.3c-0.2-0.1-0.4-0.1-0.7-0.2l-0.3,0.3l-0.1,0.4c0.5,0.2,1,0.3,1.5,0.4L130.7,93.5z"/>
		<path d="M114.1,75.2c0.5,1.2,0.5,1.6-0.8,3.3c-2,2.7-4.6,3.8-8.7,3.8c-2.1,0-4.7,0.4-5.8,1c-1,0.5-3.5,1-5.6,1.2
			c-2,0.2-4.4,0.6-5.2,0.9c0,0,0,0,0,0c0-0.4,0.1-1.2,0.2-1.5c0.3-1.8-0.2-3.5-1.3-4.8c-1.2-1.4-3-2.1-5.2-2.1
			c-2.3,0-4.2,0.9-5.4,2.5c-1.5,2.1-1.7,5.3-0.6,8.7c0.4,1.1,0.8,2.9,1.1,3.9c0.3,1.4,3,4.7,5.4,7.1c2.8,2.8,5.1,5.4,5.4,6
			c0.5,0.9,2.1,2.2,3.3,2.8l3.5,1.9l-0.5-3.8c-0.1-0.6-0.1-1-0.1-1.3c0.1,0.1,0.3,0.3,0.5,0.6c0.6,0.7,1.9,1.9,3.1,2.6
			c1.2,0.7,1.9,1.1,2.5,0.8c0.5-0.3,0.5-0.9,0.5-1.2c0-0.4,0.3-1.6,0.7-2.7l0.2-0.5l0.6,1.2c0.8,1.5,3.1,4.7,5.3,7.2
			c0.9,1.1,1.7,2.1,2.4,3.1c-0.4-0.1-0.9-0.2-1.5-0.2c-5.4,0-14.1-2.4-23.2-6.5c-5.9-2.6-7.5-3-8.5-2.2c-0.6,0.5-0.8,1.3-0.7,2.1
			c0.3,1.8,2.2,3.9,4.7,5.4c-0.5,0-0.9,0-1.3,0.2c-1,0.5-1.5,1.5-2,3.1c-0.4,1.4-1.2,4-1.8,5.7l-1.3,4.1l4.6-0.4
			c2-0.2,4.6-0.6,5.8-1c0.4-0.1,0.8-0.2,1.1-0.3c-0.2,0.4-0.4,0.9-0.8,1.6l-2.1,3.8l3.7-0.8c1.3-0.3,3.2-0.9,4.3-1.4
			c1.3-0.6,1.3-0.6,2.5,1.2c1.1,1.8,2.1,2.5,3.1,2.3c0.9-0.2,1.4-1.2,1.6-2.9c0.1-0.7,0.2-1,0.2-1.2c0.3,0.3,0.8,1,1.7,2.9
			c0.8,1.8,2.4,4.7,4.1,4.5c0.5-0.1,1.1-0.4,1.3-1.7c0.1-0.5,0.9-1.6,1.9-2.3c0.9-0.6,1.7-0.9,2.3-0.7c0.6,0.2,1.1,0.8,1.4,1.7
			c0.8,2.1-1.4,4.5-7.3,8.1c-12.8,7.8-20.4,18.6-22.5,32.2c-0.8,4.8-0.3,9.6,1.2,14.3c-1.7-2.2-4.9-5.5-10.7-11.1l-11.3-11
			c3.4-1.7,5.4-4.8,5.2-7.9c-0.2-2.7-2-4.9-5-5.8c-1.7-0.5-3.1-0.6-4.3-0.1c0.6-2.4,0.8-7.8,1.1-24.3c0.7-37.6,3.5-66.3,7.2-73
			c0.8-1.5,1.3-2.3,0.7-2.9c-0.6-0.6-1.3-0.1-4.2,1.8c-5.1,3.4-8.8,7.8-12.2,14.2c-6.3,11.9-8.5,28-8.5,61.9
			c0,15.7,0.1,20.4,0.7,22.6c-1.1-0.7-2.7-0.8-4.6-0.3c-3,0.8-4.9,2.8-5.2,5.5c-0.3,3.2,1.8,6.4,5.4,8.1c3.3,1.6,8.8,2.3,13.9,2.1
			c0,0.1-0.1,0.1-0.1,0.2c-0.1,0.4,0,0.8,0.6,1.2c-1.2-0.4-2.6-0.8-4.3-1.2c-3-0.6-4.7-0.5-5.6,0.3c-0.3,0.3-0.7,0.9-0.5,1.9
			c0.1,0.7,0.6,1.3,1.4,1.8c-1.3-0.1-2.3,0.2-2.8,0.8c-0.7,0.8-0.6,2,0.2,3.5c0.6,1.2,1.6,1.8,3,2.1c-0.3,0.1-0.5,0.2-0.7,0.3
			c-1,0.8-1.5,1.9-1.2,2.9c0.3,1,1.2,1.8,2.6,2.3c-0.3,0.1-0.6,0.2-0.8,0.3c-0.5,0.4-0.5,1.1-0.5,1.9c0,1.8,0.9,2.6,3,3.6
			c-0.1,0-0.3,0.1-0.4,0.2C44,190.3,44,191,44,192c0,0.6-0.1,1-0.3,1.2c-0.3,0.1-0.9,0.1-2.1-0.6c-1.1-0.7-2.4-0.8-3.3-0.2
			c-0.9,0.5-1.3,1.4-1.3,2.5c0,0.8,0.3,1.5,0.9,2.1c1,0.9,2.6,1.3,5,1.1c0.6,0,1.1,0.1,1.2,0.3c0.1,0.3,0,1.3-1.5,3l-2.1,2.3L42,206
			c1.8,2.6,1.7,7.1-0.3,9.2l-1.2,1.3l-0.6-0.8c-1-1.3-2.3-1.9-3.4-1.7c-1,0.2-1.8,1-2.1,2.2c-0.5,1.9,0.1,2.8,2,4.4
			c1.2,1,3.2,2.1,4.4,2.1c0.6,0,1,0.2,1,0.3c0.1,0.3-0.3,1.2-1.6,2.2l-3.2,2.5l4.6,0.7c1.3,0.2,2.1,0.5,2.4,0.7
			c0.2,1.5,2.1,5.7,3.4,5.7c0.8,0,1.9-1.1,2.4-1.8c0.7-0.9,1.2-2.4,1.2-3.3c0-0.6,0-0.8,2.6-1.2l4.8-0.7L55,225
			c-1.6-1.3-1.8-2.1-1.8-2.2c0,0,0.2-0.2,0.8-0.2c2.5,0,6.5-2.5,7.2-4.5c0.3-1,0.1-2.3-0.5-3.1c-0.8-0.9-2.1-1.4-3.3-1.1
			c-0.9,0.2-1.7,0.9-1.9,1.7c-0.2,0.7-0.3,0.8-0.3,0.8c0,0-0.3,0-1.5-1.1c-2.4-2.3-2.4-7-0.1-9.8c1.5-1.8,1.3-2.3-0.4-4
			c-1.5-1.4-2.3-3.8-2.1-4.4c0.4,0,1.2,0.1,2.3,0.5c1.9,0.7,3,0.8,4.2-0.1c1.1-0.9,1.5-1.9,1-3c-0.7-1.6-3-2.4-5.6-2.1
			c-1.5,0.2-1.6-0.1-1.7-0.3c-0.1-0.5-0.6-0.9-1.2-1.3c1.7,0.1,3.1-0.1,4-0.6c0.2-0.2,0.4-0.4,0.6-0.6c0.1,0.5,0.2,1,0.7,1.2
			c0.8,0.3,1.7-0.3,3.2-1.7c0.1,0.6,0.6,1.2,1.7,2c1.7,1.3,1.7,1.3,1.7,7.7c0,5.4,0.2,7.2,1.5,8.4c0.8,0.7,1.3,1.2,1.9,0.9
			c0.6-0.2,0.6-0.9,0.6-1.4c0-0.6,1.5-1.8,2.8-1.8c0.6,0.3,3,2.3,6.2,5.4c2.4,2.3,6.4,5.9,7.8,6.1c0.9,0.2,2,0.3,2.3,0.4
			c0.7,0.1,3.1-0.8,3.5-1c2.4-0.9,9.1-6.1,9.1-7.9c0-0.2-0.2-0.6-0.4-1c0.1,0.1,0.3,0.2,0.4,0.3c3.8,2.8,13.3,8.6,15,7.4
			c0.1,0,0.1-0.1,0.2-0.2c0.7,2.5,1.6,5.2,2.6,8.3c4.5,13.2,4,18.6-2.2,22.3c-2,1.2-3.2,1.3-8.7,1.3c-6.1-0.1-7,0-9.2,1.8
			c-2.1,1.7-4.6,6.8-4.6,9.4c0,0.8,0.4,1.2,0.7,1.3c0.8,0.5,2.2,0.1,4.5-1.2l1.8-1.1l0.6,0.9c0.6,0.8,1.6,1.4,2.9,1.6
			c1.9,0.3,4.1-0.3,5.7-1.5l1.4-1.1l1.2,1c2.3,2.1,6.6,2.1,9.4,0c1.4-1.1,1.4-1.1,2.3-0.4c0.9,0.8,3.2,1.4,4.9,1.7
			c3.5,0.4,3.8,0.3,5.8-2.7c1.7-2.5,2-3.6,1.5-6.1c-0.2-1.5-0.5-3.9-0.6-5.3c-0.1-2.1-0.1-2.1,3.3-3.3c2.2-0.8,4.7-1.8,5.6-2.3
			c1.5-0.8,6.2-6,6.2-7.4c0-0.4,0-1.1-4.3-1.6c-3.4-0.4-5.6-1.4-6.3-3c-0.9-2,0-5.1,2.7-9.2c1.6-2.4,3-4.8,4.4-7.2l2.9-0.7
			c1.3-0.3,8.4-3.3,14.5-6.1c7.1-3.2,12.4-5.5,17-7l-0.1-0.5l0.4-0.3c-4.7,1.5-10.1,3.8-17.6,7.1c-6.8,3.1-13.2,5.8-14.3,6.1l-2,0.5
			l2.1-3.9c5.2-9.8,8.6-23.3,6.7-26.6c-0.5-0.8-0.7,0.4-0.7,4.1c0,8.2-5.2,21-13.8,34.1c-5.3,8.1-3.9,12.4,4.2,13.3
			c2,0.2,3.7,0.6,3.7,0.9c0,1-4.3,6-5.8,6.8c-0.9,0.5-3.4,1.5-5.5,2.2c-3.9,1.3-3.9,1.4-3.7,4c0.1,1.5,0.3,3.9,0.6,5.4
			c0.4,2.3,0.1,3.2-1.4,5.6c-1.9,2.8-1.9,2.8-5.1,2.4c-1.8-0.2-3.8-0.9-4.5-1.5c-1.2-1-1.4-1-3.1,0.3c-2.5,1.9-6.4,1.9-8.5,0
			l-1.6-1.4l-1.9,1.4c-2.5,1.9-6.2,1.9-7.6,0l-1-1.4l-2.4,1.4v0c0,0,0,0,0,0l0,0l0,0c-2.7,1.6-4.1,1.8-4.1,0.5
			c0-2.3,2.5-7.3,4.4-8.8c2-1.6,2.6-1.7,8.7-1.6c5.6,0.1,7-0.1,9.1-1.4c6.5-3.8,7.2-9.6,2.5-23.1c-5.1-14.9-6-21.3-4-29.3
			c0.5-2.1,0.7-3.6,0.3-3.3c-2.5,2.4-2.6,16.4-0.1,23.8c0.6,1.7-8.5-2.8-14.2-7.1c-11.9-9-17.9-21.5-16-33.6
			c2.1-13.4,9.5-24,22.2-31.7c6.3-3.8,8.5-6.4,7.6-8.9c-0.9-2.4-2.6-2.9-4.8-1.3c-1.1,0.8-2.1,2-2.2,2.8c-0.4,2.3-2.3,0.9-4.1-3
			c-1.9-4.1-2.9-4.5-3.2-1.5c-0.3,3-1.7,3.1-3.4,0.3c-1.4-2.3-1.6-2.3-3.4-1.5c-1,0.5-2.9,1.1-4.1,1.4l-2.2,0.5l1.3-2.5
			c0.7-1.4,1.2-2.6,1.1-2.7c-0.1-0.1-1.2,0.1-2.3,0.4c-1.1,0.3-3.7,0.8-5.6,1l-3.6,0.3l1-3.1c0.5-1.7,1.4-4.3,1.8-5.7
			c1-3.1,1.7-3.5,5.1-2.2c3.4,1.4,12.3,3.1,15.9,3.1c3.1,0,3.3,0.3,1.8,2.3c-1.5,1.9-1.3,2.2,1.1,1.8c1.2-0.2,4.1,0.1,6.4,0.5
			c3,0.6,4.4,0.6,5,0.1c1.3-1.2-1.2-6.7-5.4-11.5c-2.2-2.5-4.5-5.7-5.3-7.1l-1.3-2.6l-0.8,1.9c-0.4,1-0.8,2.3-0.8,2.9
			c0,0.9-0.3,0.9-1.9-0.2c-1.1-0.7-2.4-1.7-2.9-2.4c-1.4-1.9-2-1.5-1.7,1.2l0.3,2.4l-2.3-1.3c-1.2-0.7-2.6-1.8-3-2.6
			c-0.4-0.7-2.9-3.5-5.6-6.1c-2.7-2.7-5-5.6-5.2-6.7c-0.2-1-0.7-2.8-1.1-4c-1.9-5.9,0.3-10.3,5.3-10.3c3.8,0,6.3,2.6,5.8,6.1
			c-0.3,2.3-0.2,2.6,0.8,2.2c0.6-0.2,2.9-0.6,5.1-0.8c2.1-0.2,4.7-0.8,5.8-1.3c1-0.5,3.5-0.9,5.5-0.9c4.3,0,7.1-1.2,9.2-4.1
			c1.3-1.8,1.5-2.4,0.8-4L114,73l0.4,0l-0.5-0.6l-0.8,0.1L114.1,75.2z M41.2,129.5c0-33.9,2.2-49.8,8.5-61.6c3.3-6.3,7.1-10.6,12-14
			c3.8-2.6,4-2.6,2.6,0.1c-3.7,6.8-6.5,35.4-7.2,73.3c-0.4,22-0.6,24.2-1.8,25.7c-1.6,1.9-1.7,3.6-0.2,4.8c0.7,0.5,0.8,1.1,0.4,1.5
			c-1.5,1.4-11.7,1.8-13.1,0.5c-0.2-0.2,0-1.3,0.5-2.5c0.7-1.8,0.7-2.5-0.4-4.2C41.3,151.2,41.2,148.7,41.2,129.5z M37,164.9
			c-6.5-3.2-6.7-10.7-0.3-12.4c2.8-0.7,4.8-0.1,5.4,1.9c0.5,1.4-0.2,3.4-1.1,3.4c-1.2,0-0.6,2,0.9,2.7c4.3,2.2,14.7,1,14.7-1.7
			c0-0.6-0.3-1-0.7-1c-1.1,0-1.6-2.5-0.8-3.9c1-1.8,2.7-2.3,5.4-1.4c6.4,2,5.8,9.7-1,12.7C54.1,167.7,42.4,167.5,37,164.9z
			 M41.6,158.4c-0.1,0.3-0.1,0.6-0.1,0.9c-0.2-0.3-0.4-0.6-0.4-0.8C41.3,158.5,41.5,158.5,41.6,158.4z M41.3,170
			c-0.3-1.8,1.4-2.3,5.3-1.5c5.3,1.1,8,2.6,7.8,4.2c-0.3,1.9-2.1,1.9-8,0.1C42.8,171.7,41.5,171,41.3,170z M55.2,173.4
			c0.6-2,5-4.9,5-3.3c0,0.5-0.9,1.9-2,3C55.6,175.7,54.5,175.8,55.2,173.4z M55,171.9l0.5-0.3c-0.1,0.2-0.3,0.3-0.4,0.5
			C55.1,172,55,171.9,55,171.9z M58.4,173.8c-0.1,0.3-0.1,0.5,0,0.8c-0.1,0.2-0.5,0.5-1.2,0.9c-0.8,0.4-1.5,1.1-2.1,1.9
			c-0.2-0.9-1.1-1.6-3.2-2.5c1,0.1,1.7,0,2.3-0.4c0.1,0,0.1-0.1,0.2-0.1c0,0.5,0.1,1,0.6,1.3C55.6,176.1,56.7,175.6,58.4,173.8z
			 M55.6,181.2c0.9,0,2-0.9,2.8-1.7c0,0.2,0,0.3,0.1,0.4c-0.1,0.2-0.5,0.5-1.2,0.9c-0.8,0.4-1.6,1.1-2.1,1.9
			c-0.3-1.2-1.5-1.9-2.7-2.4c0,0,0,0,0,0c0.7,0,1.3-0.2,1.7-0.5c0,0,0.1-0.1,0.1-0.1c0,0.1,0,0.3,0,0.4
			C54.4,180.8,54.9,181.2,55.6,181.2z M40,175.9c-1.8-3.4,0.7-4.3,6.3-2.3c7.5,2.6,8.4,3.1,8.2,4.6c-0.2,1.6-2,1.9-5.1,1
			c-1.2-0.4-3.5-0.9-5.3-1.1C41.7,177.6,40.6,177.1,40,175.9z M42.1,179.3c1.2-0.9,5.9-0.1,10,1.7c1.9,0.8,2.5,1.5,2.3,2.5
			c-0.2,1.6-2.7,2-5.4,1c-0.9-0.4-2.8-0.8-4.2-0.9C41.4,183.2,40,180.9,42.1,179.3z M50.5,192.6c0.2,0.8,0.9,1,2.4,0.8
			c3.9-0.5,6.5,1.9,4.1,3.8c-0.8,0.6-1.6,0.6-3.5,0c-1.4-0.5-2.7-0.7-2.9-0.4c-0.8,0.7,0.4,3.9,2.1,5.5c1.6,1.5,1.6,1.6,0.3,3
			c-2.6,3-2.5,8.2,0.1,10.8c1.8,1.7,2.5,1.7,3,0c0.4-1.6,2.8-1.8,4-0.4c0.5,0.5,0.6,1.6,0.4,2.4c-0.6,1.7-4.3,4-6.5,4
			c-2.2,0-2,1.6,0.5,3.6l2.1,1.7l-3.2,0.5c-2.6,0.4-3.2,0.7-3.2,1.9c0,0.8-0.5,2.1-1.1,2.9v0c-0.6,0.8-1.4,1.5-1.8,1.5
			c-0.7,0-2.7-4-2.7-5.2c0-0.3-1.3-0.8-3-1.1l-3-0.5l1.9-1.5c2.5-1.9,2.6-3.8,0.2-3.8c-1,0-2.8-0.9-4-1.9c-1.8-1.5-2.1-2.2-1.8-3.7
			c0.6-2.2,2.7-2.4,4.3-0.3l1.1,1.5l1.7-1.9c2.2-2.4,2.4-7.2,0.4-10.1l-1.4-2l1.7-1.9c2.4-2.7,2.3-4.6-0.2-4.4
			c-3.3,0.2-5.1-0.7-5.1-2.5c0-2,1.8-2.8,3.6-1.7c2.3,1.3,3.4,0.9,3.4-1.1c0-1.9,0-1.9,2.8-1.2C49,191.2,50.4,192,50.5,192.6z
			 M45.6,189.3c-2.4-1.1-3-1.6-3-3.1c0-1.8,0.1-1.8,3.6-1.4c4.4,0.5,8,2.4,8,4.2C54.2,190.8,49.5,191,45.6,189.3z M54.8,188.4
			c-0.3-1-1.3-1.9-2.7-2.7c0.7,0,1.3-0.2,1.8-0.5c0.1-0.1,0.2-0.1,0.2-0.2c0,0.2,0,0.3,0,0.5c0.2,0.9,1.3,1.3,2.4,0.8
			C55.9,187,55.2,187.7,54.8,188.4z M58.2,188.8c-2.4,2.1-3,2.2-3,0.5c0-1.1,3.3-4.1,4.5-4.1C60.9,185.2,60,187.1,58.2,188.8z
			 M58.3,185.1c0.4-0.4,0.8-0.8,1.1-1.3c0.1-0.2,0.3-0.4,0.4-0.6c0,0.4,0.1,0.9,0.3,1.3C59.7,184.4,59.1,184.6,58.3,185.1z
			 M93.3,204.3c2,1.8,3.6,3.6,3.6,4c0,1.2-5.9,6.2-8.6,7.3l0,0c-1.4,0.6-2.9,1-3.2,0.9c-0.3-0.1-1.3-0.2-2.3-0.4
			c-0.9-0.2-4.3-2.8-7.5-5.9c-3.2-3.1-6.2-5.6-6.6-5.6c-1.6,0-3.6,1.4-3.6,2.5c0,1-0.1,1-1.2,0c-1-1-1.2-2.4-1.2-7.9
			c0-6.6,0-6.8-2-8.2c-1.4-1-1.7-1.7-1.2-2c1.3-0.8,2-3.2,1.3-4.5c-0.4-0.7-0.4-1.6,0-2.3c0.7-1.2,0.3-3.7-0.6-3.2
			c-0.3,0.2-0.4,0.9-0.2,1.7c0.4,1.4-2.8,5.3-4.4,5.3c-1.6,0-0.2-3.4,1.9-4.4c1.1-0.6,1.9-1.3,1.6-1.7c-0.2-0.4,0.2-1.4,1-2.3
			c1.3-1.6,1.4-4.7,0.1-4c-0.3,0.2-0.4,0.9-0.2,1.6c0.4,1.4-2.9,5.4-4.4,5.4c-1.7,0-0.2-3.4,1.9-4.4c1.1-0.6,1.9-1.3,1.6-1.7
			c-0.2-0.4,0.2-1.4,1-2.3c0.8-0.9,1.2-2.2,1-3c-0.4-1.3-0.5-1.3-3.3,0.3l-2.9,1.6l-2.1-1.6c-2-1.5-2-1.6-0.5-1.6
			c0.9,0,3-0.4,4.8-0.8l3.2-0.8L71.4,177c8.4,8.1,11.3,11.5,12,13.4C84.6,194.1,89.1,200.5,93.3,204.3z M60.2,169c0,0,0.1,0,0.1,0
			c0,0,0,0.1,0,0.1C60.3,169.1,60.3,169.1,60.2,169z M111.7,119.5c0.8,1.7,1.3,3.3,1,3.7h0c-0.4,0.7-0.5,0.7-3.5-0.1
			c-1.2-0.3-3.5-0.5-5.2-0.6l-3.1-0.1l1.1-1.6c1.5-2.2,1.5-2.4-1.2-2.4c-4.7,0-15-2.1-18.7-3.8c-4.1-1.9-6.8-5.5-5.2-7.1
			c0.6-0.6,2.5-0.1,7.7,2.3c9.1,4.1,18,6.5,23.5,6.5C110,116.4,110.5,116.8,111.7,119.5z M102.2,119.1c0,0,0.1,0,0.1,0
			C102.3,119.1,102.3,119.2,102.2,119.1C102.3,119.2,102.3,119.1,102.2,119.1z"/>
		<path d="M159.1,151.9l-0.4-0.8l-0.2,0.4l-0.4,0.3c0.3,0.1,0.6,0.2,0.9,0.3L159.1,151.9z"/>
		<path d="M126.9,113.7l-2.6-2c-1.5-1.2-2.7-2.8-2.9-3.8l-0.3-1.8l-0.1,1.9c-0.1,1.8,0.6,2.6,5.1,6.4c1.1,0.9,1.9,0.9,1.9-0.1
			c0-0.5,0.6-1.5,1.4-2.4l0.7-0.9l-0.5-0.7c-0.3,0.5-0.7,1.1-1.2,1.6L126.9,113.7z"/>
		<path d="M130.1,108.8l0.3,0.2l1.4,1.1l0.2-0.5C130.5,108.3,130.2,108.2,130.1,108.8z"/>
		<path d="M117.4,87.8c-2.3-0.3-2.9-0.1-4.2,1.5c-1.8,2.2-1.9,3.5-0.4,5.5c1.2,1.6,4.4,2,5.8,0.7c1.2-1.2,1-4.3-0.3-4.8
			c-1.9-0.7-2-0.5-0.6,1c1,1.1,1.1,1.6,0.6,2.5c-2,3-6.8,0.4-5.5-3c0.4-1,1.5-2,2.6-2.4c2-0.6,3-0.3,11.3,3.9
			c0.6,0.3,1.4,0.6,2.1,0.9l-0.2-0.9c-1.3-0.5-2.7-1.2-4.1-2C122.1,89.3,118.9,88,117.4,87.8z"/>
		<path d="M182.5,195.8l-0.1,0.3l0,0c0.2,0,0.4-0.1,0.5-0.1L182.5,195.8z"/>
		<polygon points="137.2,113.4 136.5,113.4 136.5,113.7 136.1,113.4 135,113.4 137,115 		"/>
		<path d="M152.8,149.2c-0.2,0.5-1.6,2.1-3.2,3.5c-2.5,2.3-2.9,2.4-3.4,1.3c-0.3-0.7-1.5-3.6-2.7-6.5c-1.2-2.9-2-5.5-1.8-5.8
			c0.2-0.3,0.1-0.7-0.3-1c-1-0.6-2.6,2.1-3.6,6.2c-0.5,1.9-1.1,3.7-1.5,3.9c-0.7,0.4-4.2-4.2-4.2-5.5c0-1.8-1.2-0.7-2,1.7
			c-0.4,1.4-1.5,3.4-2.4,4.4l-1.5,1.8l-1-2.9c-0.5-1.6-1.1-3.3-1.1-3.7c-0.3-1.5-1.2-1.8-1.2-0.3c0,2.9-2.2,6.7-4.5,7.7l-2.2,1
			l-0.9-3.1c-0.5-1.7-0.9-3.8-0.9-4.6l0-1.4l-3.3,1.6c-1.8,0.9-3.4,1.5-3.5,1.3c-0.1-0.1,0.2-1.1,0.8-2.2c0.6-1.1,1.1-2.4,1.1-3
			c0-0.6,0.5-1.7,1.2-2.6c0.9-1.2,0.9-1.5,0.2-1.3c-0.5,0.2-1.5,1.9-2.2,3.9c-0.7,2-1.9,4.1-2.7,4.7c-2.2,1.7-0.8,1.9,3.4,0.6
			c2.6-0.8,3.8-1,4-0.4c0.1,0.4,0.6,1.9,1.1,3.2c0.4,1.4,0.6,3.1,0.4,3.8c-0.5,1.6,0.5,1.8,1.8,0.3c0.5-0.6,1.3-1,1.8-1
			c1.1,0,4.6-3.8,4.6-5.1c0-0.5,0.3-1,0.7-1s0.7,1.4,0.7,3s0.3,3,0.7,3c1,0,5-4.8,5.4-6.5c0.2-0.8,0.6-1.5,0.8-1.5
			c0.6,0,2.3,2.2,3.3,4.3l0.9,2l1.5-2.3c0.8-1.3,1.7-3.4,1.9-4.6c0.2-1.3,0.7-2.8,1-3.3c0.5-0.8,0.6-0.8,1,0.3
			c0.3,0.7,1.2,3.1,2.2,5.3c0.9,2.2,1.8,4.8,1.8,5.8c0.1,1,0.3,1.8,0.4,1.8c0.8,0,6.6-4.3,7.2-5.4c0.7-1.2,0.9-1.2,2.8-0.3
			c0.4,0.2,1,0.4,1.7,0.7l-0.5-1.3c-0.7-0.3-1.3-0.6-1.7-0.8C153.4,148.4,153,148.4,152.8,149.2z M106.3,149.3
			c0.1,0,0.1-0.1,0.2-0.1c0.2-0.1,0.3-0.3,0.5-0.5c0,0.2,0,0.4,0,0.5C106.8,149.2,106.5,149.2,106.3,149.3z M112.8,147.7
			c-0.1,0-0.2,0-0.3,0l1.4-0.7l0,0.3c0,0.2,0,0.4,0.1,0.7C113.7,147.8,113.3,147.7,112.8,147.7z M115.5,156.3c0-0.1,0-0.2,0.1-0.3
			c0.1-0.2,0.1-0.4,0.1-0.6l0.2,0.6C115.7,156.1,115.6,156.2,115.5,156.3z M123.4,148.5c0.1-0.4,0.2-0.8,0.2-1.1
			c0.1,0.3,0.2,0.7,0.3,1.1C123.8,148.4,123.6,148.4,123.4,148.5z M125.3,154.3c-0.1-0.4-0.2-1.2-0.2-2.2c0-0.1,0-0.1,0-0.2l0.6,2
			C125.6,154.1,125.5,154.2,125.3,154.3z M131.3,146.4c-0.1,0-0.1,0-0.2,0c0.1-0.3,0.3-0.6,0.4-0.8c0.1,0.3,0.2,0.6,0.4,1
			C131.7,146.5,131.5,146.4,131.3,146.4z M135.7,152l-0.4-0.9c0,0,0-0.1-0.1-0.1c0.2,0.2,0.3,0.3,0.5,0.4c0.1,0.1,0.2,0.1,0.3,0.1
			L135.7,152z M141,142c-0.1-0.1-0.3-0.2-0.4-0.2c0.2-0.3,0.4-0.4,0.5-0.5c0,0,0,0,0.1,0C141.1,141.5,141,141.7,141,142z
			 M145.9,155.6c0-0.2-0.1-0.5-0.1-0.9c0.1,0.2,0.3,0.4,0.6,0.6C146.2,155.4,146,155.5,145.9,155.6z M153.4,149.5
			C153.4,149.4,153.4,149.4,153.4,149.5c0-0.1,0-0.1,0-0.1c0,0,0.1,0,0.2,0.1C153.6,149.4,153.5,149.5,153.4,149.5z"/>
		<path d="M141.5,109.4l-0.3,0l-0.4,0.1c-0.2,0.6-0.4,0.7-0.8,0.3l-1.1,0.5C139.8,112.3,140.4,112,141.5,109.4z M140.1,110.7
			c0,0.1-0.1,0.1-0.1,0.1c-0.1-0.1-0.1-0.2-0.2-0.3C139.8,110.6,140,110.7,140.1,110.7z"/>
		<path fill="#FFB700" d="M59.8,185.2c-1.2,0-4.5,2.9-4.5,4.1c0,1.7,0.6,1.6,3-0.5C60,187.1,60.9,185.2,59.8,185.2z"/>
		<path fill="#FFB700" d="M49,184.5c2.6,1,5.2,0.6,5.4-1c0.2-1-0.5-1.7-2.3-2.5c-4-1.8-8.8-2.6-10-1.7c-2.1,1.7-0.7,3.9,2.7,4.3
			C46.2,183.7,48.1,184.2,49,184.5z"/>
		<path fill="#FFB700" d="M44.7,192c0,2.1-1.2,2.5-3.4,1.1c-1.8-1.1-3.6-0.2-3.6,1.7c0,1.8,1.8,2.7,5.1,2.5c2.5-0.2,2.6,1.7,0.2,4.4
			l-1.7,1.9l1.4,2c2,2.9,1.8,7.7-0.4,10.1l-1.7,1.9l-1.1-1.5c-1.6-2.1-3.7-1.9-4.3,0.3c-0.4,1.5-0.1,2.1,1.8,3.7c1.2,1,3,1.9,4,1.9
			c2.4,0,2.3,1.9-0.2,3.8l-1.9,1.5l3,0.5c1.6,0.3,3,0.7,3,1.1c0,1.3,2.1,5.2,2.7,5.2c0.4,0,1.2-0.7,1.8-1.5v0
			c0.6-0.8,1.1-2.1,1.1-2.9c0-1.2,0.5-1.5,3.2-1.9l3.2-0.5l-2.1-1.7c-2.5-2-2.8-3.6-0.5-3.6c2.2,0,6-2.3,6.5-4
			c0.3-0.8,0.1-1.8-0.4-2.4c-1.2-1.4-3.6-1.2-4,0.4c-0.5,1.7-1.2,1.7-3,0c-2.7-2.5-2.7-7.7-0.1-10.8c1.2-1.4,1.2-1.5-0.3-3
			c-1.7-1.6-2.9-4.7-2.1-5.5c0.3-0.2,1.6,0,2.9,0.4c1.9,0.7,2.7,0.7,3.5,0c2.4-1.9-0.2-4.4-4.1-3.8c-1.6,0.2-2.2,0-2.4-0.8
			c-0.2-0.6-1.5-1.4-3.1-1.8C44.7,190.1,44.7,190.1,44.7,192z"/>
		<polygon fill="#FFB700" points="182.7,194.6 182.8,192.9 181.3,185.6 178.4,181 177.4,178.4 176.7,177.3 175.6,174.9 174.6,173.9
			175,174.9 174.9,175.7 174.6,176.4 174.6,177.3 174.9,178.1 175.6,179.6 175.7,180.5 178.5,184.6 178.9,185.3 179.8,186.1
			180,187.9 179.7,193.3 179.8,194.1 180.3,194.6 181.5,195.6 		"/>
		<path fill="#FFB700" d="M71.4,177l-11.1-10.8l-3.2,0.8c-1.8,0.4-3.9,0.8-4.8,0.8c-1.5,0-1.5,0.1,0.5,1.6l2.1,1.6l2.9-1.6
			c2.9-1.6,3-1.6,3.3-0.3c0.2,0.7-0.2,2-1,3c-0.8,0.9-1.2,2-1,2.3c0.2,0.4-0.5,1.1-1.6,1.7c-2.1,1-3.5,4.4-1.9,4.4
			c1.5,0,4.8-4,4.4-5.4c-0.2-0.7-0.1-1.4,0.2-1.6c1.3-0.7,1.2,2.4-0.1,4c-0.8,0.9-1.2,2-1,2.3c0.2,0.4-0.5,1.1-1.6,1.7
			c-2.1,1-3.5,4.4-1.9,4.4c1.6,0,4.8-3.9,4.4-5.3c-0.2-0.8-0.1-1.5,0.2-1.7c0.9-0.5,1.3,2,0.6,3.2c-0.4,0.7-0.4,1.6,0,2.3
			c0.7,1.3,0,3.8-1.3,4.5c-0.6,0.3-0.2,1,1.2,2c2,1.5,2,1.7,2,8.2c0,5.5,0.2,6.9,1.2,7.9c1.1,1.1,1.2,1.1,1.2,0c0-1.1,2-2.5,3.6-2.5
			c0.5,0,3.5,2.5,6.6,5.6c3.2,3.1,6.5,5.8,7.5,5.9c0.9,0.2,2,0.3,2.3,0.4c0.3,0.1,1.7-0.4,3.2-0.9l0,0c2.7-1.1,8.6-6.1,8.6-7.3
			c0-0.4-1.6-2.2-3.6-4c-4.2-3.8-8.7-10.2-9.9-13.9C82.8,188.5,79.8,185.1,71.4,177z"/>
		<path fill="#FFB700" d="M49.3,179.1c3.1,1,4.9,0.6,5.1-1c0.2-1.4-0.7-1.9-8.2-4.6c-5.6-2-8-1-6.3,2.3c0.6,1.2,1.7,1.7,4,2.1
			C45.7,178.2,48.1,178.8,49.3,179.1z"/>
		<path fill="#FFB700" d="M84.7,109.8c-5.3-2.3-7.1-2.9-7.7-2.3c-1.6,1.5,1.1,5.2,5.2,7.1c3.7,1.7,14,3.8,18.7,3.8
			c2.7,0,2.8,0.1,1.2,2.4l-1.1,1.6l3.1,0.1c1.7,0,4,0.3,5.2,0.6c3,0.7,3.1,0.7,3.5,0.1h0c0.2-0.3-0.3-2-1-3.7
			c-1.2-2.6-1.7-3.1-3.5-3.1C102.7,116.4,93.8,113.9,84.7,109.8z"/>
		<path fill="#FFB700" d="M46.2,184.8c-3.5-0.4-3.6-0.4-3.6,1.4c0,1.5,0.6,2,3,3.1c3.9,1.7,8.6,1.5,8.6-0.3
			C54.2,187.1,50.5,185.3,46.2,184.8z"/>
		<polygon fill="#FFB700" points="146.7,122 146.7,121.9 146.6,121.9 		"/>
		<path fill="#FFB700" d="M140.7,109.5l-0.5,0.1l-0.4,0.2C140.4,110.2,140.5,110.1,140.7,109.5z"/>
		<path fill="#FFB700" d="M114.8,74.9c0.6,1.6,0.5,2.2-0.8,4c-2.1,2.9-4.9,4.1-9.2,4.1c-2,0-4.5,0.4-5.5,0.9c-1,0.5-3.7,1.1-5.8,1.3
			c-2.1,0.2-4.4,0.6-5.1,0.8c-1,0.4-1.1,0.1-0.8-2.2c0.5-3.5-2-6.1-5.8-6.1c-5,0-7.3,4.4-5.3,10.3c0.4,1.1,0.9,2.9,1.1,4
			c0.2,1.1,2.5,4,5.2,6.7c2.6,2.6,5.1,5.4,5.6,6.1c0.4,0.7,1.8,1.9,3,2.6l2.3,1.3l-0.3-2.4c-0.3-2.7,0.3-3.1,1.7-1.2
			c0.5,0.7,1.8,1.8,2.9,2.4c1.7,1,1.9,1.1,1.9,0.2c0-0.6,0.3-1.9,0.8-2.9l0.8-1.9l1.3,2.6c0.7,1.4,3.1,4.6,5.3,7.1
			c4.2,4.9,6.8,10.3,5.4,11.5c-0.5,0.5-2,0.5-5-0.1c-2.3-0.5-5.2-0.7-6.4-0.5c-2.4,0.3-2.6,0-1.1-1.8c1.6-2,1.3-2.3-1.8-2.3
			c-3.6,0-12.5-1.7-15.9-3.1c-3.3-1.3-4.1-1-5.1,2.2c-0.4,1.4-1.2,4-1.8,5.7l-1,3.1l3.6-0.3c2-0.2,4.5-0.6,5.6-1
			c1.1-0.3,2.2-0.5,2.3-0.4c0.1,0.1-0.4,1.3-1.1,2.7l-1.3,2.5l2.2-0.5c1.2-0.3,3.1-0.9,4.1-1.4c1.8-0.9,1.9-0.8,3.4,1.5
			c1.7,2.8,3.1,2.7,3.4-0.3c0.3-3.1,1.3-2.6,3.2,1.5c1.8,3.9,3.7,5.3,4.1,3c0.1-0.8,1.1-2,2.2-2.8c2.2-1.5,3.8-1.1,4.8,1.3
			c1,2.5-1.2,5.1-7.6,8.9C91.5,149.5,84.1,160,82,173.4c-1.9,12.1,4,24.6,16,33.6c5.7,4.3,14.8,8.8,14.2,7.1
			c-2.4-7.4-2.4-21.4,0.1-23.8c0.4-0.4,0.2,1.1-0.3,3.3c-2,8-1.1,14.4,4,29.3c4.6,13.5,4,19.3-2.5,23.1c-2.1,1.2-3.4,1.4-9.1,1.4
			c-6.1-0.1-6.8,0-8.7,1.6c-1.9,1.5-4.4,6.5-4.4,8.8c0,1.3,1.4,1.1,4.1-0.5l0,0c0,0,0,0,0,0v0l2.4-1.4l1,1.4c1.4,1.8,5.1,1.8,7.6,0
			l1.9-1.4l1.6,1.4c2.1,1.9,6,1.9,8.5,0c1.7-1.3,2-1.3,3.1-0.3c0.7,0.6,2.7,1.3,4.5,1.5c3.2,0.4,3.3,0.4,5.1-2.4
			c1.6-2.4,1.8-3.3,1.4-5.6c-0.2-1.5-0.5-4-0.6-5.4c-0.1-2.7-0.1-2.7,3.7-4c2.1-0.7,4.6-1.7,5.5-2.2c1.5-0.8,5.8-5.8,5.8-6.8
			c0-0.3-1.7-0.7-3.7-0.9c-8.1-0.9-9.5-5.2-4.2-13.3c8.6-13.1,13.7-26,13.8-34.1c0-3.6,0.2-4.9,0.7-4.1c1.9,3.2-1.5,16.8-6.7,26.6
			l-2.1,3.9l2-0.5c1.1-0.3,7.6-3,14.3-6.1c7.4-3.4,12.9-5.6,17.6-7.1l0.4-0.3l-0.6-0.5l-0.2-0.5l-0.2-0.5l-0.4-0.5l-0.4-0.7l0.4-0.5
			l0.6-0.5l0.3-0.6l-0.1-0.3l-0.4-0.8l-0.1-0.3l0.5-2.1l0.1-0.2l-1.5-3.9l-0.4-0.7l-1.9-1.4l-1-0.3l0.3,1.1l-0.5,0.6l-0.4-0.8
			l-0.1-0.6l0.1-0.5l0.4-0.5l-0.9-1.5l-0.9-1l-2.2-2.1l0.1-0.9l-0.5-0.6l-0.9-0.4l-1-0.4l-0.6,0.8l-0.8,0.3l-1-0.1l-1-0.5l0.6-1.8
			l0.9-0.9l1.1-0.1l1.4,0.5l1.1,0.9l2,2.6l0.9,0.6l1.8-0.6l-0.2-1.6l-1.2-1.8l-3.6-3.7l-0.9-1.4l-0.6-1.7h-0.6l-1.8,0.3l-1.7-2
			l-1-2.8l0.5-1.8l0.3-0.2l0.5-0.3l0.4,0l-0.6-1l-1.7-1.3l-0.6-1.1l0-1l0.3-0.7l0.2-0.7l-0.3-0.8c-0.1,0-0.2,0-0.3-0.1l-0.2,0.2
			l-0.8,0.4l-0.4,0.3l-0.1-0.4l-0.1-0.2l-0.2-0.2l-0.2-0.3l0.3-0.3c-0.3-0.1-0.6-0.2-0.9-0.3l-0.2,0.1l-0.4,0.4l-0.4-0.8
			c-0.7-0.2-1.3-0.5-1.7-0.7c-1.9-0.9-2.1-0.9-2.8,0.3c-0.6,1.1-6.4,5.4-7.2,5.4c-0.1,0-0.3-0.8-0.4-1.8c-0.1-1-0.9-3.6-1.8-5.8
			c-0.9-2.2-1.9-4.6-2.2-5.3c-0.4-1.1-0.6-1.2-1-0.3c-0.3,0.6-0.8,2.1-1,3.3c-0.2,1.3-1.1,3.4-1.9,4.6l-1.5,2.3l-0.9-2
			c-1-2.1-2.7-4.3-3.3-4.3c-0.2,0-0.6,0.7-0.8,1.5c-0.5,1.7-4.5,6.5-5.4,6.5c-0.4,0-0.7-1.4-0.7-3s-0.3-3-0.7-3s-0.7,0.4-0.7,1
			c0,1.3-3.4,5.1-4.6,5.1c-0.5,0-1.3,0.5-1.8,1c-1.3,1.4-2.3,1.2-1.8-0.3c0.2-0.7,0.1-2.5-0.4-3.8c-0.4-1.4-0.9-2.8-1.1-3.2
			c-0.2-0.5-1.4-0.4-4,0.4c-4.2,1.3-5.6,1.1-3.4-0.6c0.8-0.6,2-2.8,2.7-4.7c0.7-2,1.7-3.8,2.2-3.9c0.8-0.2,0.7,0.1-0.2,1.3
			c-0.6,0.9-1.2,2-1.2,2.6c0,0.6-0.5,1.9-1.1,3c-0.6,1.1-1,2-0.8,2.2c0.1,0.1,1.7-0.5,3.5-1.3l3.3-1.6l0,1.4c0,0.8,0.4,2.8,0.9,4.6
			l0.9,3.1l2.2-1c2.3-1.1,4.5-4.8,4.5-7.7c0-1.4,0.8-1.2,1.2,0.3c0.1,0.4,0.6,2.1,1.1,3.7l1,2.9l1.5-1.8c0.8-1,1.9-3,2.4-4.4
			c0.8-2.5,2-3.5,2-1.7c0,1.3,3.5,5.9,4.2,5.5c0.3-0.2,1-1.9,1.5-3.9c1-4,2.6-6.7,3.6-6.2c0.4,0.2,0.5,0.6,0.3,1
			c-0.2,0.3,0.6,2.9,1.8,5.8c1.2,2.9,2.4,5.8,2.7,6.5c0.4,1.1,0.8,0.9,3.4-1.3c1.6-1.4,3-3,3.2-3.5c0.3-0.8,0.6-0.8,2.1,0.2
			c0.4,0.3,1,0.5,1.7,0.8l-0.1-0.2l-0.6-1l-0.9-1l-0.7-1.2l-0.7-3l-0.7-1.2h-0.5l-0.5,1.8l-1.4,0.1l-1.5-1.1l-0.7-1.7l-0.1-0.3
			l-0.7-0.2l-0.3-0.3l-0.1-0.5V140l0.1-0.2l0.1,0l-0.1-0.8l0.1-2.6h0.6l1.3,3.5l0.9,3.9l1.5-2.1l-0.7-3.8l-1.3-4.3
			c0,0-0.1,0-0.1-0.1l-2.5-1.8l0,3.3c0,1.8-0.2,3.9-0.4,4.8c-0.5,1.6-1.7,2.1-1.7,0.6h0c0-1-2.9-3.6-5.8-5.4
			c-2.3-1.3-2.7-1.4-2.7-0.3c0,1.7-1.5,5.8-2.1,5.8c-0.3,0-0.8-0.8-1.1-1.8c-0.3-1-1.4-3-2.5-4.4l-2-2.6l-1.5,2.4
			c-1.4,2.2-3.9,4.4-5.1,4.4c-0.3,0-0.3-1.2-0.1-2.6c0.2-1.5,0-2.8-0.4-3c-0.4-0.3-0.8-0.2-0.8,0.2c0,0.8-3.5,4.8-4.2,4.8
			c-0.3,0-0.7-1.1-0.9-2.5c-0.2-1.4-0.6-3.6-0.8-4.8c-0.2-1.3,0.3-0.4,1.1,1.9l1.5,4.3l1.7-2.6c0.9-1.4,1.7-3,1.7-3.5
			c0-0.5,0.3-0.7,0.7-0.5c0.4,0.2,0.9,1.9,1.2,3.8l0.5,3.4l1.8-2c1-1.1,2.2-2.6,2.6-3.3c0.8-1.3,0.8-1.3,2.4,0.1
			c0.9,0.7,2.2,2.5,3,3.9c0.8,1.4,1.5,2.5,1.6,2.3c0.1-0.1,0.4-1.6,0.6-3.2c0.2-1.7,0.4-3.1,0.4-3.1c0.1-0.4,5.5,3.1,7.5,4.9
			c1.3,1.1,2.5,1.9,2.7,1.7c0.2-0.2,0.4-1.9,0.4-3.8c0-2.9-0.3-3.7-2.1-5.3c-2-1.8-2.1-1.8-2.8-0.5c-1,1.7-2.1,1.8-2.1,0
			c0-1.2-3.9-6-4.9-6c-0.3,0-1.1,1.1-1.8,2.3c-0.7,1.3-1.5,2.3-1.7,2.3c-1,0-6.4-6.1-6.4-7.2c0-0.9,0.4-0.6,1.3,0.8
			c0.7,1.1,2.2,2.7,3.2,3.7c2.1,1.8,2.9,1.4,3.7-2.2c0.2-1,0.6-1.8,0.9-1.8c0.9,0,5.6,5,6.3,6.7l0.7,1.7l0.5-1.8
			c0.6-2.2,1.3-2.3,2.3-0.3c0.4,0.9,2.4,2.6,4.5,4l1.4,0.9l-0.3-1l-0.2-1.3l-0.7-2.6l-0.5-3.2l-0.9-0.4h-0.8l-0.5,0.9l-1.1-1.6
			c-0.6-0.9-2-2.4-3.1-3.4c-1.1-1-1.7-1.8-1.3-1.8c0.4,0,1.8,1.1,3.1,2.3l0.9,0.9l-0.3-1.8l0-0.6l1,0.5l1.1,2.2l0.2,0.1l0.4-0.7
			c0.2-0.3,0.3-0.7,0.4-1l-1.3-4.2l-0.6-3.3L144,111l-0.9-1l-1-0.6l-0.6,0c-1,2.6-1.7,2.9-2.7,0.9l-0.7,0.3l0.9,1.9l-1.3,0.8l-0.4,0
			L137,115l-2-1.6l-1.1,0l-1.8-0.5l-1.3-1.3l-0.5-0.7l-0.7,0.9c-0.8,0.9-1.4,2-1.4,2.4c0,1-0.8,1-1.9,0.1c-4.5-3.7-5.2-4.6-5.1-6.4
			l0.1-1.9l0.3,1.8c0.2,1.1,1.4,2.7,2.9,3.8l2.6,2l1.6-1.8c0.5-0.5,0.9-1.1,1.2-1.6l0,0l-1.2-1.3l-1.7,1.4l-1.3,0.2l-0.4-0.8
			l1.1-1.4l1.4-0.6l1.4,0.3l1.1,0.7c0.1-0.6,0.4-0.5,1.9,0.8l0.4-0.8l-0.3-0.8l-0.6-0.8l-0.2-1.1l0.7-1.4l0.9,0.2l0.6,1.1l-0.4,1.3
			l2.1-0.3l-0.3-2l-1.8-3.9l-0.5,0.3l-1.2,0.3l0.8-0.9l0.9-0.4l0.6-0.6l0-1.5l-0.8-1.2l-2.3-2.5l0.1-0.2c-0.5-0.1-1-0.3-1.5-0.4
			l-0.1,0.4l-0.1-0.5c-0.8-0.3-1.5-0.6-2.1-0.9c-8.3-4.2-9.3-4.5-11.3-3.9c-1.1,0.3-2.2,1.4-2.6,2.4c-1.3,3.4,3.5,6,5.5,3
			c0.6-0.9,0.4-1.5-0.6-2.5c-1.4-1.4-1.2-1.6,0.6-1c1.3,0.5,1.5,3.6,0.3,4.8c-1.4,1.3-4.6,1-5.8-0.7c-1.5-2-1.4-3.3,0.4-5.5
			c1.3-1.6,1.9-1.8,4.2-1.5c1.5,0.2,4.6,1.5,7,2.9c1.4,0.8,2.8,1.5,4.1,2l-0.8-2.9l-1-2.2l-2-0.9l-0.9-1l-1.8-4.3l-1.2-1l-1.5-0.4
			l-1.1-1.1l-2.7-4.5l-1.1-1.3l-0.4,0L114.8,74.9z"/>
		<path fill="#FFB700" d="M129.9,93.1l-0.5-0.1l0,0c0.2,0.1,0.5,0.1,0.7,0.2L129.9,93.1z"/>
		<path fill="#FFB700" d="M58.2,173.1c1.1-1.1,2-2.5,2-3c0-1.6-4.4,1.3-5,3.3C54.5,175.8,55.6,175.7,58.2,173.1z"/>
		<path fill="#FFB700" d="M42.7,157.2c-0.5,1.2-0.7,2.3-0.5,2.5c1.4,1.3,11.6,1,13.1-0.5c0.4-0.4,0.2-0.9-0.4-1.5
			c-1.5-1.1-1.4-2.8,0.2-4.8c1.2-1.5,1.3-3.6,1.8-25.7c0.7-37.9,3.5-66.5,7.2-73.3c1.5-2.7,1.3-2.7-2.6-0.1c-4.9,3.4-8.7,7.7-12,14
			c-6.3,11.8-8.5,27.7-8.5,61.6c0,19.2,0.1,21.8,1.2,23.6C43.4,154.8,43.5,155.4,42.7,157.2z"/>
		<path fill="#FFB700" d="M54.4,172.8c0.2-1.6-2.5-3.1-7.8-4.2c-3.9-0.8-5.6-0.4-5.3,1.5c0.2,1,1.5,1.7,5.2,2.9
			C52.4,174.7,54.1,174.7,54.4,172.8z"/>
		<path fill="#FFB700" d="M60.6,152.5c-2.7-0.8-4.4-0.4-5.4,1.4c-0.8,1.4-0.3,3.9,0.8,3.9c0.4,0,0.7,0.5,0.7,1
			c0,2.7-10.4,3.9-14.7,1.7c-1.5-0.8-2.2-2.7-0.9-2.7c0.9,0,1.6-2,1.1-3.4c-0.6-1.9-2.6-2.6-5.4-1.9c-6.4,1.7-6.2,9.2,0.3,12.4
			c5.3,2.6,17.1,2.8,22.6,0.3C66.5,162.2,67,154.5,60.6,152.5z"/>
	</g>
	<path fill="none" stroke="#999999" stroke-width="0.25" stroke-linecap="round" stroke-linejoin="round" d="M174.6,176.4l0,0.9
		l0.3,0.8l0.7,1.5l0.2,0.9l2.8,4.1l0.4,0.7l0.9,0.8l0.2,1.8l-0.3,5.4l0.1,0.8l0.5,0.6l1.2,0.9l1.2-1l0-1.7l-1.4-7.3l-3-4.7l-1-2.5
		l-0.7-1.1l-1-2.4l-1.1-1l0.4,1l-0.1,0.8L174.6,176.4z M18.4,22l0.8-0.1l0.3-0.4l0.2-1.7l-0.3-1.1L18.5,18l-0.7,0l0,0.5l0.5,0.8
		l-0.4,0.3l-0.7,0.1l-0.6-0.5L16,17.6l-0.4-0.4l-0.3,0.4l-0.1,3.1l0.5,0.7L18.4,22z M29.3,45.9l0.4-0.3l0.5-0.6l0.1-0.6l-0.2-0.4
		l-0.5-0.4l-0.5,0.7l-0.5,0.3L29.3,45.9z M6.2,60.8l-0.3,0.8l0.4,0.8l0.9,0.4l1.8,0.2l1.9,0.5l3.4,1.5l3.4,3l0.9,0.4l0.7,0.5
		l0.9,1.1l1.3,1l2,0.2l-0.7-1.3l-3.9-4.4l1.4,0.2l2.4,1.2l1.4,0.3l-2.8-2.7l-3.4-2l-3.5-1.3L11,60.4H7.3L6.2,60.8z M21.1,16.7
		l1.3,0.9l1-0.1l1.5-0.9l0.6,0.1l0.8,0.5l1.2,0.4l1.1,0l0.6-0.6l-0.4-0.8l-1.1-0.6l-1.3-0.5l-0.9-0.6L25.3,14l-0.1-1.2l-0.3-0.3
		l-1.6,0.1L23,12.5l-0.7-0.8l-0.4-0.8l-0.1-1l0-1.1L22,7.7l0.3-1L22.2,6l-1-0.3l-1.8,0.4l-0.5,1.5l-0.2,1.8l-0.9,1.4l2,4L21.1,16.7z
		 M8.7,27.4l-1-2l-0.4-0.3L5.6,25l-1.4-0.4l-0.3-0.9l-0.6-0.7l-0.6-0.1l-0.2,0.9v3.4l0.9,1l2,0.6l2.1-0.1L8.7,27.4z M24,73.4
		l-0.4-0.5l-0.3,1.4L24,73.4z M1.3,62.8l-1,0.6l0.8-0.1l0.3-0.2h1.7l-0.3-0.3L1.3,62.8z M188.2,232.1l-0.9-2.9l-0.2-1.3l0.4-19.6
		l-2.1-7.1l-1.3-2l-0.2-1.8l-0.3-0.7L183,196l-0.5-0.2l-0.1,0.3l0.2,0.6v0.6l-0.5,0.7l-0.4,1l-0.2,1.2l-0.1,1.2h-0.6l0-1.2l-0.6-3.4
		h-0.5l-0.7,0.9l-0.7-0.1l-0.1-0.6l0.9-0.6l-0.6-0.5l-0.2-0.5l-0.2-0.5l-0.4-0.5l-0.4-0.7l0.4-0.5l0.6-0.5l0.3-0.6l-0.1-0.3
		l-0.4-0.8l-0.1-0.3l0.5-2.1l0.1-0.2l-1.5-3.9l-0.4-0.7l-1.9-1.4l-1-0.3l0.3,1.1l-0.5,0.6l-0.4-0.8l-0.1-0.6l0.1-0.5l0.4-0.5
		l-0.9-1.5l-0.9-1l-2.2-2.1l0.1-0.9l-0.5-0.6l-0.9-0.4l-1-0.4l-0.6,0.8l-0.8,0.3l-1-0.1l-1-0.5l0.6-1.8l0.9-0.9l1.1-0.1l1.4,0.5
		l1.1,0.9l2,2.6l0.9,0.6l1.8-0.6l-0.2-1.6l-1.2-1.8l-3.6-3.7l-0.9-1.4l-0.6-1.7h-0.6l-1.8,0.3l-1.7-2l-1-2.8l0.5-1.8l0.3-0.2
		l0.5-0.3l0.4,0l-0.6-1l-1.7-1.3l-0.6-1.1l0-1l0.3-0.7l0.2-0.7l-0.4-1l-0.4,0.3l-0.8,0.4l-0.4,0.3l-0.1-0.4l-0.1-0.2l-0.2-0.2
		l-0.2-0.3l0.4-0.4l-0.4-0.8l-0.2,0.4l-0.5,0.4l-0.4,0.4l-1-2.4l-0.6-1l-0.9-1l-0.7-1.2l-0.7-3l-0.7-1.2h-0.5l-0.5,1.8l-1.4,0.1
		l-1.5-1.1l-0.7-1.7l-0.1-0.3l-0.7-0.2l-0.3-0.3l-0.1-0.5V140l0.1-0.2l0.1,0l-0.1-0.8l0.1-2.6h0.6l1.3,3.5l0.9,3.9l1.5-2.1l-0.7-3.8
		l-2-6.7l-0.2-1.3l-0.7-2.6l-0.5-3.2l-0.9-0.4h-1.1l-1.1-0.5l-0.5-1l-0.4-2.9l0-0.6l1,0.5l1.1,2.2l1.1,0.7l-0.1-2.2l-1.3-4.3
		l-0.6-3.3L144,111l-0.9-1l-1-0.6l-0.9-0.1l-0.9,0.3l-2.2,1l0.9,1.9l-1.3,0.8l-3.8,0.1l-1.8-0.5l-1.3-1.3l-1.1-1.5l-1.2-1.3
		l-1.7,1.4l-1.3,0.2l-0.4-0.8l1.1-1.4l1.4-0.6l1.4,0.3l1.4,0.9l1.4,1.1l0.6-1.3l-0.3-0.8l-0.6-0.8l-0.2-1.1l0.7-1.4l0.9,0.2l0.6,1.1
		l-0.4,1.3l2.1-0.3l-0.3-2l-1.8-3.9l-0.5,0.3l-1.2,0.3l0.8-0.9l0.9-0.4l0.6-0.6l0-1.5l-0.8-1.2l-2.3-2.5l0.2-0.8l-0.8-0.4l-0.5-0.1
		l-0.3,0.3l-0.2,0.8l-1.2-4.4l-1-2.2l-2-0.9l-0.9-1l-1.8-4.3l-1.2-1l-1.5-0.4l-1.1-1.1l-2.7-4.5l-3-3.6l-0.6,1.4l-0.9,1.5l-1.1,1.1
		l-1.4,0.1l-1.3-1l0.8-0.9l0.9-0.8l-1-0.7l0-1.6l-3-2.8l-0.9-1.3l1.3,0.6l2.3,0.6l1,0.5l0.9,1.5l0.2,0.2l0.8-0.3l0.4-0.6l0-0.6
		l-0.3-0.3l-1.6-1l-1.6-2.4l-1.2-2.7l-0.5-1.9l-0.4,0.3l-0.3,0.1l-0.3,0.2l-0.3,0.5h-0.6l-0.2-1.9l-1.2-0.8l-1.3-0.2l-0.6-0.3
		L101,56l1.1,0l2.4,0.9l-4-7.8l-0.9-2.6l-0.5-0.4l-1.2,0.3l-0.2,0.7l0.4,0.9l0.7,1l-1.7-0.9l-4.3-4l-0.4-0.9l0.6-0.2l1.5,0.2
		l0.5,0.3l0.9,1.1l0.6,0.3l1-0.5L96.4,43l-1.8-1.7l-0.9-1.2L93,39.1L70,20.7l-3.2-1.8l-1.6-1.2L54.3,5l-0.8-1.1l-0.8-2.7l-1.2-0.8
		L49.9,0l-3.4,0.2l-2.3,0.4l-1.7,0.8l0.2,1.3l1.3,0.9l4.8,1.1l3,1.6l6,6.9L65,19l3,1.5v0.6l-6.2-2.8l-2.6-1.6L49.5,6.3l-0.9-0.5
		l-0.7,0.1l-1,0.3l-0.9,0l-0.4-0.7l-0.4-0.2l-2-0.5l-0.7-0.1l-0.7-0.2l-0.2-0.6L41.7,2l-0.5-1.1L40,0.7l-3.4,0.4l-6.5-0.6l-1.5,0.6
		l-3.3,3l-1.8,0.9l0.6,1l1.2,1.5l0.5,0.9l0.3,1.1l0.2,1l0.4,0.8l0.9,0.6l0.1-0.6l0.7,0.3l0.9,0.6l1.9,0.7l3.2,2.5l4,2.2l2,0.8l2,0.4
		l-0.9-1l-1.6-1.4l-0.9-1l1.8,0.8l3.1,2.7l1.6,0.8l0.6,0.5l0.6,0.3l0.6-0.2l0.5-1l-0.5-0.8l-0.9-0.7l-0.6-0.6l-0.2-2l1,0l1.6,0.9
		l5.2,2.2l2.5,1.6l5.9,5.1l0.8,0.2l2.7-0.1l0.4,0.1l1.1,0.8l0.3-0.2l0.3-0.4l0.7-0.3l1.7-0.1l0.6,0.1l0.6,0.3l1.5,1.1l0.5,0.2
		l1.7,0.4l1.9,0.9l5.7,3.8l-3.9-0.8L73,28.8l-4.4-1.2l-2-0.2l-7.5,3l-4.1,1l-1.7-1.2l0.5-0.6l-0.3-0.6l-0.2-0.6l1-0.5l-0.5-0.9
		l-2-1.7l-1.3-0.8l-4.8-1.2l-5-2.9l-2.5-1l-2.7-0.1l1.2,1.5l6.2,3.6l1.6,1.2l1.2,1.2l1,1.3l0.8,1.4l-1,0.1l-0.7,0.3l-0.6,0.4
		l-0.5,0.4l-1.8,2.4L42,33.6l-1.7,0.2l-2.1,0.6l-1.8,0.9l-1,1l0.1,1.1l0.4,1.9l0.7,1.8l0.9,0.8l2.3,1.2l1,0.2l0.2,0.5l-0.2,0.7v4.8
		L39.8,53l-2.7,6.9l-0.6,2.9l-1,2.1l-0.6,2l-1,0.9L31.5,69l-4.8,4.3l-0.7,0.2l-1.1,0.2L24,74.1l0.3,0.8l0.4,0.7l0.2,1l0.2,2l-0.2,6
		l-0.2,0.9l2,5.2l-0.7,8.1l-0.8,1.7l-0.2,0.7l-0.2,0.2l-1,3l-1.1,1.2l-1.3,0.9l-1.1,1.1l-0.5,1.7v3.5l-0.2,1.2l-0.4,0.6l-0.5,0.5
		l-0.5,0.9l-0.8,8.1l-0.8,3.5l-0.2,1.7l-0.2,0.9l-1.1,1.4l-0.4,0.8l-0.2,0.9l0.2,0.3l0.3,0.3l0.3,0.7l0,0.7l-0.1,1.7l0.1,1l0.3,0.6
		l0.4,0.6l0.4,0.7l0.1,1l-2.8,5.3l0.2,0.9l0.8,0.5l1,1.3l0.9,1.6l0.4,1.5l-2,1.4l-3.9-0.3l-2.7-1.9l1.7-3.5l-1.9-2.2L8.4,143
		l1.4-4.5l0.1-0.6l-0.1-2l0.1-0.9l0.3-0.2l0.4,0l0.4-0.3l0.8-1.7l0.8-2.3l-1,0l-0.8-0.3l-0.6-0.6l-0.4-0.8l1.6-2.8l1.3-3l-2.5,3.8
		l-0.4,1l-0.4,1.6l-1,1.9l-1.3,1.7L5.8,134l0.4,1.5l0.4,4.9L6.4,142l-0.2-0.3v-0.1l-0.1,0l-0.3-0.2l0,2.7l2.1,9.4l1.4,3.4l0.9,4.3
		l1,2l2.2,10.4l0,3.1l0.2,1.5l0.6,1.1l0.5,1.3l-0.2,1.6l-0.4,1.7l-0.1,1.4l-0.6-0.4l-0.2,0l-0.3,0.4l0.5,1.1l4.1,29.7l-0.2,0.6
		l-0.3,0.6l-0.1,0.7l0.3,0.7l0.5,0.3l1.1,0.2l0.4,0.3l0.4,0.9l0.2,1.1l0,2.6l-0.1-0.1l-0.2,0.1l-0.2,0.3l-0.1,0.8h-0.5l-0.4-0.7
		l-0.8-2.8l-0.4-0.7l-0.5-0.6l-0.3-0.8l0-1.3l-0.5,2.1l4,14.1l0,1l-0.2,1l-0.9,2.2v6l1.2,6.9l8.9,22.6l0.7,4.7l-0.2,0l-0.4,0
		l-0.4,0.1l-0.1,0.5l0.2,0.5l0.4,0.3l0.4,0.2l0.2,0.1l1.3,5.3l1.5,2.7l0.7,3.9l0.7,1.4l0.1,0.4l0,1.4l0.2,0.8l3.8,8.1l1,1.3l0.2,0.4
		l0,0.7l0.1,0.4l0.3,0.3l0.6,0.4l6.8,7.2l1.5,1.2l0.6-0.6l1.2,0.6l1.8,1.4l2.5,0.5l4.1,1.5l0.3,0.2l0.5,0.7l0.3,0.2l0.4,0l0.3-0.2
		l0.3-0.3l0.4-0.1l0.7,0.2l0.4,0.4l0.3,0.4l0.4,0.2l2.8,0.4l1.3-0.1l1.4-0.8l0.6,0.9l0.4,0.9l0.7,0.7l1.4,0.3l4.8-0.6l1.4,0.4
		l1.5,0.8l1.4,0.5l1.2-0.3l2-1.5l1.1-0.6l1.1-0.4l1.4-0.2l3.4,0.2l1.5-1.7l6.4-4.7l2.2-0.8l2.2,0.4l1.3-1.8l2.1-0.8l4.6-0.8l4.2-1.4
		l8.7-1.9l1.8-0.8l1.8-1.1l1-0.4l0.7-0.2l0.5-0.5l0.2-1.4l0.3-0.7l0.7-0.2l0.6,0.5l0.1,1.3l10-3.6l3.1-1.7l15.4-12.1l2.1-1.1
		l1.6-0.5l4.8-3.4l2.6-2.6l7.8-12.3l0.9-2.4l-0.6-2l2.4-3.7l0.5-1.4l0.3-1l1.2-2.3l0.3-1.5l0.1-1.8l0.2-1.4l3.8-13.2l0.5-3.3
		L188.2,232.1z M-6.3,61.3l0.2,0.7l0.1-0.1l0-0.5L-6.3,61.3z"/>
</g>

</svg>
