<?xml version="1.0" encoding="utf-8"?>

<svg version="1.2" baseProfile="tiny" xmlns="http://www.w3.org/2000/svg" xmlns:xlink="http://www.w3.org/1999/xlink" x="0px"
	 y="0px" viewBox="280.8 153.5 278.3 286.9" xml:space="preserve">

<g id="Liberia">
	<g>
		<polygon fill="none" points="419.7,192.7 419.8,192.5 419.8,192.5 		"/>
		<polygon fill="#BF0A30" points="399.6,284.9 486.1,284.9 493.3,276.9 494.3,275.4 495.1,273.4 495.7,271.4 495.8,270.4
			495.8,269.5 495.4,269.1 494.9,268.7 494.5,268.2 495.4,266.3 495.5,265.3 495.4,264.2 495.5,263 495.8,262.4 497.2,261.3
			497.7,260.7 497.9,259 497.4,256.1 399.6,256.1 		"/>
		<polygon fill="#BF0A30" points="549.3,337.8 549.2,337.9 549.3,337.9 		"/>
		<polygon fill="#BF0A30" points="489.7,230.8 488.3,226 487,223.7 484.2,222.2 482.2,220.9 480,219.3 478.7,217.8 478.3,215.9
			478.6,213.3 470.5,212.9 470,214.3 468.2,216.4 467.7,217.9 467.6,220.2 467.5,220.6 467.1,221.3 466.9,221.7 467,222.1
			467.3,222.2 467.6,222.3 467.8,222.6 467.9,224.2 467.6,225.6 466.9,226.8 465.8,228 463.9,229.2 463.5,229.5 463.2,230.2
			463.1,231.5 463,231.8 489.8,231.8 		"/>
		<polygon fill="#BF0A30" points="552.7,337.8 552.7,337.9 552.9,337.9 		"/>
		<polygon fill="#BF0A30" points="426.9,231.8 426.4,231.6 425.5,231.5 424.3,231.5 423.7,231.7 423.5,231.8 427,231.8 		"/>
		<polygon fill="#BF0A30" points="336.4,312.8 350.2,316.2 352.3,317.1 354.2,318.2 355.3,319.5 354.8,317.9 353.2,316.6
			349.7,314.8 349.7,314.3 351,314.4 352.1,314.8 354.3,316.2 355.4,317 356.2,317.9 357.2,318.7 358.6,319 358.2,319.6
			357.8,319.9 357.3,319.8 356.7,319.5 356.5,320.4 357.2,321.3 358.4,322 361,322.5 362.2,323 365.8,325.3 368.6,328.3
			373.4,332.1 374.1,332.5 375.2,332.7 376.4,333.3 377.5,334.2 378.1,335.3 378.2,336.1 377.9,336.9 378.1,337.6 378.3,337.9
			545.9,337.9 545.8,337.7 545.3,337.3 545.9,336.6 545.5,336.1 544,335.5 543.8,335.4 542.4,334.7 542.3,334.4 541.1,334.2
			540.1,333.5 539.4,332.6 539,332.2 538.2,333.1 537.4,334.5 536.5,335 535.3,333.3 534.4,332.5 531.7,331.1 530.9,330
			530.8,329.5 530.8,327.5 531,327.2 531.6,326.9 531.7,326.5 531.6,326.1 531.2,325.9 530.9,325.8 530.7,325.6 530.4,324
			530.2,323.4 529.5,322.8 528.9,322.7 528,323 527.4,323.3 527.4,323.6 526.6,322.7 526.4,321.3 526.6,319.8 526.9,318.4
			527.8,315.7 527.7,314.8 526.6,313.5 523.6,311.1 523.3,310.8 523.2,310 523,309.8 522.6,309.6 522.3,309.7 522,309.8
			521.7,309.8 519,309.1 508.1,309.1 507.7,309.4 506.7,309.6 505.6,309.6 505,309.4 504.7,309.1 329.2,309.1 		"/>
		<polygon fill="#BF0A30" points="487.4,418.1 494.5,420.6 495.8,420.8 496.8,421.4 499.8,424.6 502.2,425.4 510.4,426.4
			514.7,428.1 517.1,428.4 520,429.2 521.2,429.7 521.9,430.1 522.4,430.6 523.1,430.9 524.2,431.1 525,431.4 526.6,432.6
			528.6,433.3 529.3,434 529.6,435 530,435.7 530.8,436.4 531.6,436.8 534.3,437.9 535.4,438 535.7,438.2 535.9,438.7 536.2,439.2
			536.8,439.4 541.5,439.4 542.3,439.5 543.9,440.2 544.9,440.4 548.5,440 546.2,438.4 545.8,437.6 545.9,437 546.6,435.7
			546.9,435 546.8,434.4 546.3,433 546.4,431.3 546.3,430.6 546.1,430 546,429.4 546.3,415.2 483.3,415.2 		"/>
		<polygon fill="#BF0A30" points="399.6,231.8 417.2,231.8 417.2,231.5 417.5,230.7 418.1,230.1 419.5,229 421.1,226.7 421.7,225.2
			421.4,224.3 422.6,222.9 423.1,222.1 423.4,220.3 423.8,219.3 424.4,218.4 425.2,217.8 423.7,216.2 423.6,213.9 424.3,211.4
			425,209.7 423.3,207.5 422.7,206.3 420.9,204.1 420.4,203.1 399.6,203.1 		"/>
		<polygon fill="#BF0A30" points="408.7,363 409.8,364.6 409.6,365.2 408.8,366.2 408.9,366.9 409.3,366.9 411.2,367.3 411.4,367.4
			412.4,367.6 413.6,368.2 414.7,369 415.4,369.7 416,370.9 416.7,373.4 417.2,374.4 425.2,381.8 426.5,382.5 428,383 429.4,383.8
			430.3,385 429.4,385 430.3,386.2 431.4,386.8 432.7,387.3 434.8,388.8 437.1,389.9 438.2,390.6 438.5,390.9 546.3,390.9
			546.9,390 548,389.5 549.2,389.5 550.1,389.9 552,386.6 552.4,385.4 552.4,384.2 551.9,381 552.6,378.8 552.9,378.2 553.4,377.6
			555.2,376.6 555.3,376.4 556.1,376.6 556,376.8 555.6,377.2 555.7,377.5 555.9,377.9 555.9,378.5 556.1,378.7 556.8,378.4
			557.1,378 557.3,376.9 557.5,376.4 558.3,375.3 558.7,374.6 558.8,373.8 558.6,372.5 558.2,371.2 557.7,371.1 557,371.3
			556,370.7 555.4,369.8 554.9,368.6 554.6,367.4 554.6,366.3 555.6,366.8 555.9,366.1 555.8,363.6 556.3,362.6 556.8,362.2
			407.2,362.2 		"/>
		<polygon fill="#BF0A30" points="419.4,231.5 419.2,231.8 419.6,231.8 		"/>
		<polygon fill="#BF0A30" points="413.7,169.5 414.1,169.3 414.4,169.1 415.3,168.6 414.9,168.4 414.4,167.9 413.2,167.1
			409.8,165.6 408.9,164.4 408.4,164 407.9,164.6 407.6,165 407.1,165.3 406.5,165.3 405.9,165.3 404.8,165.3 403.8,165.5
			403.1,165.3 403.2,164.1 403.9,163.2 404.8,162.6 405.3,161.8 405,160.3 404.1,159.4 402.7,158.8 401.4,158.8 400.5,159.8
			400.4,161.2 400.4,162.2 400.1,162.3 399.6,161.8 399.6,178.8 413.1,178.8 413,177.6 413.5,175.7 414.1,174.6 414.5,174.3
			414.6,173.9 414.5,173.6 414.1,173.3 413.8,172.7 413.5,171.9 413.1,171.2 412.5,170.6 413.3,169.8 		"/>
		<polygon fill="#FFFFFF" points="378.5,338.1 379.7,338.8 380.2,339.2 382.6,342 392,349.6 401.9,359 407.2,362.2 556.8,362.2
			557.1,361.9 557.5,361.4 556.7,360.6 557.1,360.6 558.5,360.5 557.5,359.4 557.2,358.1 557.7,357.3 559.1,357.5 558.3,356.4
			555.9,351.7 554.7,346.4 554.7,343.9 555.2,341 554.9,338.7 552.9,337.9 552.7,337.9 552.5,339.8 552.1,340.9 551.6,341.4
			551,341 550.6,340 550.2,339.1 549.1,339 549.3,337.9 549.2,337.9 548.8,338 548,338.7 547.2,339.1 546.7,338.8 545.9,337.9
			378.3,337.9 		"/>
		<polygon fill="#FFFFFF" points="442.1,394 444.5,395.4 447.5,396.2 447.4,396.4 447.3,396.5 447.3,396.5 447.1,396.7 448.2,397.6
			449.8,398.3 451.5,398.8 453.6,399.1 455,399.8 455.7,399.9 457.8,400.9 459.6,402 464.3,406 466.5,407.1 475.9,410.6
			479.9,412.7 483.3,415.2 546.3,415.2 546.3,414.9 546,411.3 545.8,410.7 545.4,410.2 544.9,409.8 544.4,409.4 544,408.6 544,408
			544.4,406.6 544.5,405.8 544,403.7 544.1,403.1 546.1,401.4 547,401.5 547.6,401.9 547.9,401.9 547.9,400.9 547.5,399.6
			546.8,398.7 546.4,397.8 546.5,396.3 546.4,396.3 545.9,392.4 546.1,391.2 546.3,390.9 438.5,390.9 		"/>
		<polygon fill="#FFFFFF" points="299.3,284.9 309.6,288.5 320.3,294.3 322.9,296.1 325.2,298.5 326.8,301.7 327.3,301.3 327.9,301
			328.6,300.8 329.6,300.8 328,302.3 327.3,303.8 327.6,305.5 328.7,307.4 328,307.2 327.5,306.9 327.1,306.5 326.8,306
			326.3,307.1 327.6,308.3 329.2,309.1 504.7,309.1 504.6,309.1 503.9,308.7 503,308.3 497.8,307.2 497.2,306.9 497.1,306.7
			497.1,306.2 497,305.6 496.6,305.1 496.1,304.8 495.8,305 495.6,305.3 495.3,305.4 494.6,304.7 493.9,304 493.2,303.7
			492.3,304.4 491.6,304.1 490.8,304.1 489.9,304.4 489.2,305.1 488.4,304.3 488.6,303.9 489.3,303.5 489.6,302.9 489.5,302.4
			488.8,301.2 488.7,300.5 489.1,299.4 489.6,299 489.7,298.6 488.8,297.6 486.6,296.4 485.9,295.4 485.4,295.1 485.1,295.7
			484.8,297 484.3,298.2 483.4,298.9 482.2,298.5 480.1,295.8 479.4,295.1 478.6,294.9 477,294.9 476.3,294.8 475.1,294.7
			476.8,292.6 477.1,292.5 478,292.3 478.3,292.2 478.4,291.8 478.7,290.9 478.6,290.8 478.7,290.8 479.9,290.2 480,290.2
			480.9,289.1 485.8,285.2 486.1,284.9 399.6,284.9 		"/>
		<polygon fill="#FFFFFF" points="399.6,203.1 420.4,203.1 419.4,201.2 418.7,198.4 418.9,195.5 419.8,192.5 419.7,192.7
			419.8,192.5 419.8,192.5 419.8,192.3 420.3,191.7 420.5,191 420.4,190.3 420,189.6 419.2,188.6 418.5,188.5 417.8,189.1
			417,190.1 417.1,189.3 417.8,188.1 417.9,187.4 416.7,182.4 416.7,181.7 416.5,180.8 415.8,180.5 414.1,180.1 413.2,179.4
			413.1,178.8 399.6,178.8 		"/>
		<polygon fill="#FFFFFF" points="517.3,308.7 516.2,308 515,307.7 513.1,307.8 510,308.2 509.2,308.5 508.1,309.1 519,309.1 		"/>
		<polygon fill="#FFFFFF" points="399.6,256.1 497.4,256.1 496.7,252.5 496.6,250.9 496.5,250.2 496,249.5 495,248.5 494.8,248.1
			494.7,247.6 494.9,246.8 494.9,246.3 494.6,245.8 493.8,244.8 493.4,244.3 492.9,242.1 492.5,241.2 491.3,239.6 490.9,238.8
			490.5,237.5 489.8,231.8 463,231.8 462.9,232.1 462.3,232.7 461.2,233 460.5,233.4 459.3,234.9 458.7,235.9 458.4,236.6
			458.5,237.8 459,239 459.3,240.3 458.9,241.6 458.1,242.1 455.2,243.2 454.3,243.3 453,241.3 452.1,240.7 451.8,242.3 451,242
			450.7,242.1 450.5,243.2 450.2,243.2 448.7,243.6 448.1,244 447,243.9 446,244.4 445.2,245.2 444.2,245.8 443.3,246.1
			442.4,246.3 441.5,246.6 440.7,247.3 441.3,244.9 441.1,244 439.7,243.3 439.2,242.9 439.2,241.8 438.8,241.5 437.3,241.5
			436.9,241.4 435.2,239.9 434.3,235.6 433.3,234.3 432.2,234.1 429.9,234.7 428.8,234.6 428.4,234.1 428,232.7 427.5,232.2
			427,231.8 423.5,231.8 423.4,231.9 423.3,232.7 422.9,232.9 422.5,233 421.5,234.5 420.7,233.8 419.6,231.8 419.2,231.8
			418.7,232.6 416.7,234.5 416.1,234.8 415.8,234.6 416.6,234 417,233.3 417.2,232.5 417.2,231.8 399.6,231.8 		"/>
		<polygon fill="#002868" points="399.6,256.1 399.6,231.8 399.6,203.1 399.6,178.8 399.6,161.8 399.2,161.3 398.5,160.1
			398.1,158.9 397.7,155.7 397.3,154.5 396.6,153.6 395.4,153.5 395.5,154.3 395.2,154.9 394.7,155.4 394.2,156 394.2,156.5
			394.4,157.1 394.3,157.5 392.6,158 391.4,158.6 390.8,158.8 390.5,158.4 390.2,158.1 389.9,157.9 388.9,158.2 388.5,158.2
			387.2,158.2 386.1,158.4 385,158.8 383.8,159.3 381.2,161.4 378.5,163 377,163.3 376.1,163 375.8,162 376.5,158.8 376,157.8
			375,157.3 371.1,156.3 370,156.2 368.8,156.6 366.5,158.9 365.4,159.5 364.9,158.4 363.5,158.9 362.7,159 362,159 362,162.5
			359.9,170.9 358.7,173.5 358.5,175 359,176.9 359.6,178.3 359.4,179.6 357.7,181.2 356.4,182 355,182.4 353.6,182.6 348.2,182.6
			346.8,182.8 345.2,183.6 344.2,184.8 342.6,187.7 341.9,188.4 340.2,189.4 339.6,189.9 339.3,190.5 339.2,191.3 339.3,197.8
			341.8,205.6 370.9,205.6 347.4,222.8 356.4,250.5 332.8,233.3 309.2,250.5 317.3,225.8 314.7,227.2 304.6,235.2 298.9,242.4
			298.4,242.9 292.8,245.5 291.6,245.7 289.2,249.4 288,250.5 287.8,250.8 288,251.5 288.9,253.1 289.2,253.9 289,254.5
			288.7,254.9 288.2,255.1 286.7,255.2 286.5,255.7 286.7,257 286.6,258.1 286.1,259.4 285.5,260.5 283.6,261.5 283.3,262.7
			283.5,264.4 283,264.7 280.8,265.7 282.6,268.2 283.2,268.9 284.4,269.8 285.7,270.6 287,271 287.3,271.3 288.2,273.1 288.2,274
			288.1,274.6 287.7,276.1 287.7,278.8 289.2,280.6 297.4,284.2 299.3,284.9 399.6,284.9 		"/>
		<polygon fill="#FFFFFF" points="309.2,250.5 332.8,233.3 356.4,250.5 347.4,222.8 370.9,205.6 341.8,205.6 339.3,197.8
			339.4,207.8 337.8,208.1 337.3,208.2 334.1,210 331.5,212.2 321.7,224.1 321,224.7 320.1,225 317.5,225.6 317.3,225.8 		"/>
	</g>
	<polygon fill="none" stroke="#999999" stroke-width="0.25" stroke-linecap="round" stroke-miterlimit="10" points="558.2,371.2
		557.7,371.1 557,371.3 556,370.7 555.4,369.8 554.9,368.6 554.6,367.4 554.6,366.3 555.6,366.8 555.9,366.1 555.8,363.6
		556.3,362.6 557.1,361.9 557.5,361.4 556.7,360.6 557.1,360.6 558.5,360.5 557.5,359.4 557.2,358.1 557.7,357.3 559.1,357.5
		558.3,356.4 555.9,351.7 554.7,346.4 554.7,343.9 555.2,341 554.9,338.7 552.7,337.8 552.5,339.8 552.1,340.9 551.6,341.4 551,341
		550.6,340 550.2,339.1 549.1,339 549.3,337.8 548.8,338 548,338.7 547.2,339.1 546.7,338.8 545.8,337.7 545.3,337.3 545.9,336.6
		545.5,336.1 544,335.5 543.8,335.4 542.4,334.7 542.3,334.4 541.1,334.2 540.1,333.5 539.4,332.6 539,332.2 538.2,333.1
		537.4,334.5 536.5,335 535.3,333.3 534.4,332.5 531.7,331.1 530.9,330 530.8,329.5 530.8,327.5 531,327.2 531.6,326.9 531.7,326.5
		531.6,326.1 531.2,325.9 530.9,325.8 530.7,325.6 530.4,324 530.2,323.4 529.5,322.8 528.9,322.7 528,323 527.4,323.3 527.4,323.6
		526.6,322.7 526.4,321.3 526.6,319.8 526.9,318.4 527.8,315.7 527.7,314.8 526.6,313.5 523.6,311.1 523.3,310.8 523.2,310
		523,309.8 522.6,309.6 522.3,309.7 522,309.8 521.7,309.8 517.3,308.7 516.2,308 515,307.7 513.1,307.8 510,308.2 509.2,308.5
		507.7,309.4 506.7,309.6 505.6,309.6 505,309.4 504.6,309.1 503.9,308.7 503,308.3 497.8,307.2 497.2,306.9 497.1,306.7
		497.1,306.2 497,305.6 496.6,305.1 496.1,304.8 495.8,305 495.6,305.3 495.3,305.4 494.6,304.7 493.9,304 493.2,303.7 492.3,304.4
		491.6,304.1 490.8,304.1 489.9,304.4 489.2,305.1 488.4,304.3 488.6,303.9 489.3,303.5 489.6,302.9 489.5,302.4 488.8,301.2
		488.7,300.5 489.1,299.4 489.6,299 489.7,298.6 488.8,297.6 486.6,296.4 485.9,295.4 485.4,295.1 485.1,295.7 484.8,297
		484.3,298.2 483.4,298.9 482.2,298.5 480.1,295.8 479.4,295.1 478.6,294.9 477,294.9 476.3,294.8 475.1,294.7 476.8,292.6
		477.1,292.5 478,292.3 478.3,292.2 478.4,291.8 478.7,290.9 478.6,290.8 478.7,290.8 479.9,290.2 480,290.2 480.9,289.1
		485.8,285.2 493.3,276.9 494.3,275.4 495.1,273.4 495.7,271.4 495.8,270.4 495.8,269.5 495.4,269.1 494.9,268.7 494.5,268.2
		495.4,266.3 495.5,265.3 495.4,264.2 495.5,263 495.8,262.4 497.2,261.3 497.7,260.7 497.9,259 496.7,252.5 496.6,250.9
		496.5,250.2 496,249.5 495,248.5 494.8,248.1 494.7,247.6 494.9,246.8 494.9,246.3 494.6,245.8 493.8,244.8 493.4,244.3
		492.9,242.1 492.5,241.2 491.3,239.6 490.9,238.8 490.5,237.5 489.7,230.8 488.3,226 487,223.7 484.2,222.2 482.2,220.9 480,219.3
		478.7,217.8 478.3,215.9 478.6,213.3 470.5,212.9 470,214.3 468.2,216.4 467.7,217.9 467.6,220.2 467.5,220.6 467.1,221.3
		466.9,221.7 467,222.1 467.3,222.2 467.6,222.3 467.8,222.6 467.9,224.2 467.6,225.6 466.9,226.8 465.8,228 463.9,229.2
		463.5,229.5 463.2,230.2 463.1,231.5 462.9,232.1 462.3,232.7 461.2,233 460.5,233.4 459.3,234.9 458.7,235.9 458.4,236.6
		458.5,237.8 459,239 459.3,240.3 458.9,241.6 458.1,242.1 455.2,243.2 454.3,243.3 453,241.3 452.1,240.7 451.8,242.3 451,242
		450.7,242.1 450.5,243.2 450.2,243.2 448.7,243.6 448.1,244 447,243.9 446,244.4 445.2,245.2 444.2,245.8 443.3,246.1 442.4,246.3
		441.5,246.6 440.7,247.3 441.3,244.9 441.1,244 439.7,243.3 439.2,242.9 439.2,241.8 438.8,241.5 437.3,241.5 436.9,241.4
		435.2,239.9 434.3,235.6 433.3,234.3 432.2,234.1 429.9,234.7 428.8,234.6 428.4,234.1 428,232.7 427.5,232.2 426.9,231.8
		426.4,231.6 425.5,231.5 424.3,231.5 423.7,231.7 423.4,231.9 423.3,232.7 422.9,232.9 422.5,233 421.5,234.5 420.7,233.8
		419.4,231.5 418.7,232.6 416.7,234.5 416.1,234.8 415.8,234.6 416.6,234 417,233.3 417.2,232.5 417.2,231.5 417.5,230.7
		418.1,230.1 419.5,229 421.1,226.7 421.7,225.2 421.4,224.3 422.6,222.9 423.1,222.1 423.4,220.3 423.8,219.3 424.4,218.4
		425.2,217.8 423.7,216.2 423.6,213.9 424.3,211.4 425,209.7 423.3,207.5 422.7,206.3 420.9,204.1 419.4,201.2 418.7,198.4
		418.9,195.5 419.8,192.5 419.7,192.7 419.8,192.5 419.8,192.5 419.8,192.3 420.3,191.7 420.5,191 420.4,190.3 420,189.6
		419.2,188.6 418.5,188.5 417.8,189.1 417,190.1 417.1,189.3 417.8,188.1 417.9,187.4 416.7,182.4 416.7,181.7 416.5,180.8
		415.8,180.5 414.1,180.1 413.2,179.4 413,177.6 413.5,175.7 414.1,174.6 414.5,174.3 414.6,173.9 414.5,173.6 414.1,173.3
		413.8,172.7 413.5,171.9 413.1,171.2 412.5,170.6 413.3,169.8 413.7,169.5 414.1,169.3 414.4,169.1 415.3,168.6 414.9,168.4
		414.4,167.9 413.2,167.1 409.8,165.6 408.9,164.4 408.4,164 407.9,164.6 407.6,165 407.1,165.3 406.5,165.3 405.9,165.3
		404.8,165.3 403.8,165.5 403.1,165.3 403.2,164.1 403.9,163.2 404.8,162.6 405.3,161.8 405,160.3 404.1,159.4 402.7,158.8
		401.4,158.8 400.5,159.8 400.4,161.2 400.4,162.2 400.1,162.3 399.2,161.3 398.5,160.1 398.1,158.9 397.7,155.7 397.3,154.5
		396.6,153.6 395.4,153.5 395.5,154.3 395.2,154.9 394.7,155.4 394.2,156 394.2,156.5 394.4,157.1 394.3,157.5 392.6,158
		391.4,158.6 390.8,158.8 390.5,158.4 390.2,158.1 389.9,157.9 388.9,158.2 388.5,158.2 387.2,158.2 386.1,158.4 385,158.8
		383.8,159.3 381.2,161.4 378.5,163 377,163.3 376.1,163 375.8,162 376.5,158.8 376,157.8 375,157.3 371.1,156.3 370,156.2
		368.8,156.6 366.5,158.9 365.4,159.5 364.9,158.4 363.5,158.9 362.7,159 362,159 362,162.5 359.9,170.9 358.7,173.5 358.5,175
		359,176.9 359.6,178.3 359.4,179.6 357.7,181.2 356.4,182 355,182.4 353.6,182.6 348.2,182.6 346.8,182.8 345.2,183.6 344.2,184.8
		342.6,187.7 341.9,188.4 340.2,189.4 339.6,189.9 339.3,190.5 339.2,191.3 339.4,207.8 337.8,208.1 337.3,208.2 334.1,210
		331.5,212.2 321.7,224.1 321,224.7 320.1,225 317.5,225.6 314.7,227.2 304.6,235.2 298.9,242.4 298.4,242.9 292.8,245.5
		291.6,245.7 289.2,249.4 288,250.5 287.8,250.8 288,251.5 288.9,253.1 289.2,253.9 289,254.5 288.7,254.9 288.2,255.1 286.7,255.2
		286.5,255.7 286.7,257 286.6,258.1 286.1,259.4 285.5,260.5 283.6,261.5 283.3,262.7 283.5,264.4 283,264.7 280.8,265.7
		282.6,268.2 283.2,268.9 284.4,269.8 285.7,270.6 287,271 287.3,271.3 288.2,273.1 288.2,274 288.1,274.6 287.7,276.1 287.7,278.8
		289.2,280.6 297.4,284.2 309.6,288.5 320.3,294.3 322.9,296.1 325.2,298.5 326.8,301.7 327.3,301.3 327.9,301 328.6,300.8
		329.6,300.8 328,302.3 327.3,303.8 327.6,305.5 328.7,307.4 328,307.2 327.5,306.9 327.1,306.5 326.8,306 326.3,307.1 327.6,308.3
		336.4,312.8 350.2,316.2 352.3,317.1 354.2,318.2 355.3,319.5 354.8,317.9 353.2,316.6 349.7,314.8 349.7,314.3 351,314.4
		352.1,314.8 354.3,316.2 355.4,317 356.2,317.9 357.2,318.7 358.6,319 358.2,319.6 357.8,319.9 357.3,319.8 356.7,319.5
		356.5,320.4 357.2,321.3 358.4,322 361,322.5 362.2,323 365.8,325.3 368.6,328.3 373.4,332.1 374.1,332.5 375.2,332.7 376.4,333.3
		377.5,334.2 378.1,335.3 378.2,336.1 377.9,336.9 378.1,337.6 378.5,338.1 379.7,338.8 380.2,339.2 382.6,342 392,349.6 401.9,359
		408.7,363 409.8,364.6 409.6,365.2 408.8,366.2 408.9,366.9 409.3,366.9 411.2,367.3 411.4,367.4 412.4,367.6 413.6,368.2
		414.7,369 415.4,369.7 416,370.9 416.7,373.4 417.2,374.4 425.2,381.8 426.5,382.5 428,383 429.4,383.8 430.3,385 429.4,385
		430.3,386.2 431.4,386.8 432.7,387.3 434.8,388.8 437.1,389.9 438.2,390.6 442.1,394 444.5,395.4 447.5,396.2 447.4,396.4
		447.3,396.5 447.3,396.5 447.1,396.7 448.2,397.6 449.8,398.3 451.5,398.8 453.6,399.1 455,399.8 455.7,399.9 457.8,400.9
		459.6,402 464.3,406 466.5,407.1 475.9,410.6 479.9,412.7 487.4,418.1 494.5,420.6 495.8,420.8 496.8,421.4 499.8,424.6
		502.2,425.4 510.4,426.4 514.7,428.1 517.1,428.4 520,429.2 521.2,429.7 521.9,430.1 522.4,430.6 523.1,430.9 524.2,431.1
		525,431.4 526.6,432.6 528.6,433.3 529.3,434 529.6,435 530,435.7 530.8,436.4 531.6,436.8 534.3,437.9 535.4,438 535.7,438.2
		535.9,438.7 536.2,439.2 536.8,439.4 541.5,439.4 542.3,439.5 543.9,440.2 544.9,440.4 548.5,440 546.2,438.4 545.8,437.6
		545.9,437 546.6,435.7 546.9,435 546.8,434.4 546.3,433 546.4,431.3 546.3,430.6 546.1,430 546,429.4 546.3,414.9 546,411.3
		545.8,410.7 545.4,410.2 544.9,409.8 544.4,409.4 544,408.6 544,408 544.4,406.6 544.5,405.8 544,403.7 544.1,403.1 546.1,401.4
		547,401.5 547.6,401.9 547.9,401.9 547.9,400.9 547.5,399.6 546.8,398.7 546.4,397.8 546.5,396.3 546.4,396.3 545.9,392.4
		546.1,391.2 546.9,390 548,389.5 549.2,389.5 550.1,389.9 552,386.6 552.4,385.4 552.4,384.2 551.9,381 552.6,378.8 552.9,378.2
		553.4,377.6 555.2,376.6 555.3,376.4 556.1,376.6 556,376.8 555.6,377.2 555.7,377.5 555.9,377.9 555.9,378.5 556.1,378.7
		556.8,378.4 557.1,378 557.3,376.9 557.5,376.4 558.3,375.3 558.7,374.6 558.8,373.8 558.6,372.5 	"/>
</g>

</svg>
