<?xml version="1.0" encoding="utf-8"?>

<svg version="1.2" baseProfile="tiny" xmlns="http://www.w3.org/2000/svg" xmlns:xlink="http://www.w3.org/1999/xlink" x="0px"
	 y="0px" viewBox="292.6 172.1 254.7 250" xml:space="preserve">

<g id="Lesotho">
	<g>
		<path fill="#00209F" d="M537.7,243.2l-1.7-1.2l-1.2-1.4l-0.5-6.9l-3.2-1.3l-4.2-0.1l-3.5-1l-8.6-9.1l-3.6-1.6l-2.4-0.6l-1.3-1
			l-0.6-1.5l0-2.3l-1-1.2l-2.3-1.1l-2.5-0.7l-1.5,0.1l-5.7-5.9l-4.2-7.4l-1.3-1.6l-1.5-1.3l-1.6-1l-1.7-0.7l-3.2-0.6l-0.9-0.7
			l-3.1-5.7l-1.5-1.2l-4.6-0.2l-1.1-1.7l-0.8-4.8l-0.6-2.3l-0.9-2l-1.4-1.7l-2-1.4l-1.6,0.2l-5.9,4l-2.1,0.5l-14.5,1l-2.1,0.9l-2,2
			l-2.9,4.9l-2,1.9l-2.1,0.8l-2.4,0.3l-2.4-0.3l-2.1-0.9l-7,0.7l-1-0.4l-1,1.5l-1.4,1.7l-2.9,4.3l-0.3,0.7l-4.6,5l-3.9,5.3l-0.4,0.9
			v0.9l-0.1,0.7l-0.9,0.3h-2.9l-1.2-0.6l-1-1.3l-1.2-1.1l-2-0.2l-1.5,0.9L387,208l-0.6,1.9l-1,1.8l-2.8,1.3l-11.9-0.8l0.8,2
			l-1.1,0.9l-1.7,0.5l-0.8,1l0,1.6l-0.1,0.9l-0.3,0.6l-0.2,0.4l-0.1,0.4l0,0.9l-0.2,0.5l-0.4-0.1l-0.5-0.2l-0.4,0.2l-2,2.9l-1.3,1.4
			l-1.3,0.6l-1.7,0.5l0.5,1.1l1.3,1.3l0.9,1.2l-0.7,0.2l-1,0.5l-0.5,0.2l-0.7-0.8l-0.7,0.8l0.5,2.9l-2.4,4.4l-5.5,6.7
			c62.8,0,125.5,0,188.3,0l-0.3-0.8L537.7,243.2z"/>
		<path fill="#009543" d="M321.7,349l1.4,5.7l0.7,1.7l1.3,2l0.9,0.4l1.3-0.3h2.3l1.6,0.4l1,0.8l-0.1,1.2l-1.6,1.6l-2.3,5.7l0.2,3.5
			l2.3,6.5l-0.2,1.9l1.1,0.2l2.1,0.6l1.1,0.2l0.7-0.1l2.2-0.9h1.7l0.7,0.8l0.8,3l1.1,1.8l1.7,1.4l3.8,1.8l0.8,2.5l2.7,2.7l2.5,3.6
			l0.3,1.1l0.1,1.1l0.2,1.1l0.6,1l6.4,4.9l5.7,6.4l3.1,2l3.6,1.1l4.4,0.6l1-0.2l2-1l0.9-0.2l1.2,0.4l0.9,0.7l0.8,0.8l1,0.8l2.1,1.1
			l2.2,0.7l12.3,1.1l2.5,1.1v-2.4l-0.3-2l-0.1-2l0.6-2.4l0.7-1.1l0.9-0.6l0.9-0.5l0.8-0.8l0.8-1.1l0.3-0.7l1.8-5.7l0.2-1l-0.3-1.2
			l-1.2-2.1l-0.2-1l0.8-1.4l8.9-7l1.4-1.6l0.7-2.6l-0.3-2.8l-1.2-1.1l-1.5-0.7l-1.2-1.6l0.2-2.3l1.6-1.8l2.2-1.3l1.9-0.8l3.1-0.4
			l1-0.4l0.7-0.7l1.3-1.9l0.9-0.7l1.7-1.6l2.7-5.1l2.1-1.8l2.5-0.4l5.1,0.7l2.6-0.9l4.5-2.7l1.7-0.4l1.7,0.2l5.1,1.9l3.5,0l9.4-3.6
			l6.9-1.5l6.7-2.8l3.6-2.4c-56.5,0-112.9,0-169.4,0L321.7,349z"/>
		<path fill="#FFFFFF" d="M451.3,332.2c1.5-0.1,2.4-0.9,3.8-1.2c-0.4-1.4-1.3-2.4-1.7-3.8C452.3,328.5,450.6,329.8,451.3,332.2z"/>
		<path fill="#FFFFFF" d="M452.3,324.8c-1-3-4.1,0.2-6.1,0.6c0.7,1.6,2.1,2.5,2.9,4C450.5,328.2,451.3,326.4,452.3,324.8z"/>
		<path fill="#FFFFFF" d="M441.7,335.7c2.3-0.2,3.9-1.1,6.1-1.3c-0.3-1.3-1.8-3-2.9-4c-1.4,1.2-3.1,2.1-4.4,3.5
			C441.1,334.3,441.3,335,441.7,335.7z"/>
		<path fill="#FFFFFF" d="M442.5,326.7c-2.1,0.4-3.6,1.2-5.8,1.5c0.6,1.6,1.8,2.7,2.9,3.8C441,330.3,446.5,328.4,442.5,326.7z"/>
		<path fill="#FFFFFF" d="M416.7,335.9c0.2,1.2,0.9,1.8,1.3,2.7c0.4,0,0.9,0,1.3,0c1-0.1,2.6,0.3,3.3-0.2c1.3,0,2.7,0,4,0
			c-0.7-2-2.1-3.3-3.1-5C421.2,334.1,419.1,335.1,416.7,335.9z"/>
		<path fill="#FFFFFF" d="M405.4,335.1c0.2,0.9,0.6,1.5,0.8,2.3c2.6,0.2,4.9,0.7,7.5,1c-0.7-1.9-2.1-3.1-2.9-5
			C408.8,333.8,407.3,334.7,405.4,335.1z"/>
		<path fill="#FFFFFF" d="M425.8,329.7c0.9,1.3,1.5,2.8,2.5,4c1.6-1,3.7-1.7,5.4-2.7C433.3,327.5,428.4,329.2,425.8,329.7z"/>
		<path fill="#FFFFFF" d="M399.1,329.2c-0.6-3.1-3.8-3.6-6.9-4.2c0.6,2,1.2,3.9,1.9,5.8C395.8,330.3,397.7,330,399.1,329.2z"/>
		<path fill="#FFFFFF" d="M391.2,333.6c0-1.2-0.6-1.9-0.6-3.1c-1.2-0.3-2.6,0.9-4,1C387.6,332.7,389.7,332.8,391.2,333.6z"/>
		<path fill="#FFFFFF" d="M396,335.3c2.3,0.3,4,1.2,6.3,1.3c-1-1.8-1.4-4.1-2.9-5.4c-1.3,0.5-2.8,0.9-4.2,1.3
			C395.3,333.7,395.6,334.5,396,335.3z"/>
		<path fill="#FFFFFF" d="M438.2,336.5c-1.1-1.2-2.2-2.6-3.3-3.8c-2,0.8-3.7,1.8-5.6,2.7C429.8,339.5,435.4,337,438.2,336.5z"/>
		<path fill="#FFFFFF" d="M350.6,246.3l-0.8,0.4l-1.1,0.4l-1.1,0.6l-0.7,1.1l0,1.1l0.6,2.8l0.2,1.4l-1,0.9l-5.1,1.7l-1.7,1.1l-0.3,1
			l-0.2,2.8l-0.3,1.1l-1,1.4l-1,0.6l-1,0.3l-1,0.8l-0.2,0.8l0.4,0.7l0.6,0.7l0.3,1l-0.1,1.5l-0.4,0.7l-0.7,0.5l-4.4,4.8l-1.1,1.9
			l-0.4,2.2l-0.5,0.5l-2.5-0.1l-0.5,0.4l-0.2,1.4l-0.5,1.3l-0.7,1.1l-0.8,0.8l-3.4,2l-2.2,0.9l-3,0.6l-1.9,1l-1.1,0.4l-3.1,0.3
			l-3,1.2l-0.6,0.4l-3.4,3.6l-0.5,0.3l-0.9-0.4l-0.3-0.8l-0.3-0.6l-1,0l-0.5,0.5l-0.8,1.9l-0.7,0.9l-1-1.4h-1.1l-0.8,1.1l0,1.9
			l-1.3,3l0.9,0.4l1.5,1.2l1.4,0.8l1.3,1.2l3.1,4.6l0.9,1.8l11.5,27.4l2,2.3l5,4.3l1,1.6c56.5,0,112.9,0,169.4,0l8.6-5.6l12.3-7.6
			l1.3-0.6l2.8-0.8l1.2-0.6l0.7-1l-0.3-1.2l-1.1-2.3l-0.2-1.7l0.1-1.1l-0.3-0.9l-1.3-1l-1.5-2.2l0-2.8l0.6-3.2l0.2-3l1.9-3.5
			l1.3-3.4l1.7-3l3-2.4l8-2.5l1.2-1.5v-2l0.1-1.9l1.7-1.1l-1.5-1.9l-0.7-2.9l0-3.1l0.8-2.5l2.2-2.3l2.9-1.3l3.1-1l2.7-1.2l1.2-0.9
			l0.8-1.1l0.5-1.3l-0.1-1.7l0.2-1.9l1.9-2.8l0.4-1.7l-0.3-0.7l-1.4-1.3l-0.4-0.8l-0.1-0.9l0.1-1.8l-0.1-0.7L544,255l-2.9-4
			l-1.1-4.2l-0.5-1.2c-62.8,0-125.5,0-188.3,0L350.6,246.3z M389.5,319.8c6.9-8.4,13.2-17.5,19.8-26.3c-2.6-6.1-5.1-12.3-6-20.2
			c-0.1-0.6,0.2-1.7-0.2-1.9c0.1-7.9,3-14.8,8.8-17.9c1.4-0.8,2.6-0.6,4.2-1.3c1.2-0.5,2-1.9,3.6-1.9c1.7,0,2.5,1.1,3.6,1.9
			c8.5,1.3,11.9,7.7,13.1,16.3c0.1,0.6-0.2,1.8,0.2,2.1c0,0.2,0,0.4,0,0.6c-0.4,0.3-0.1,1.5-0.2,2.1c-0.9,7.5-3.1,13.7-5.8,19.4
			c6.4,9.2,13.4,18,20.2,26.9c1.3-0.3,2.2-1,3.5-1.3c2.5,4.8,4.7,9.9,7.3,14.6c-9.3,6.1-21.4,9.6-35.7,10.8
			c-0.6,0.1-1.7-0.2-1.9,0.2c-0.6,0-1.3,0-1.9,0c-1.9,0-3.8,0-5.8,0c-15.2-0.7-27.1-4.7-37.4-10.2c2.1-5.3,4.7-10,6.9-15.2
			C387,318.9,388.3,319.3,389.5,319.8z"/>
		<path fill="#FFFFFF" d="M389.7,328.6c-0.7-1.1-0.8-2.8-1.5-3.8c-0.7,1.6-1.7,3-2.3,4.8C387.1,329.3,388.7,329.2,389.7,328.6z"/>
		<path fill="#FFFFFF" d="M412.7,329.4c0,0.2,0,0.5,0.2,0.6c0.9,1.5,1.5,3.2,2.7,4.4c2.1-1.2,5-1.5,6.9-2.9
			c-0.4-0.4-0.6-1.1-0.8-1.7c-0.7,0-1.4,0-2.1,0c-0.5-0.4-1.7-0.1-2.5-0.2c-0.6,0-1.2,0-1.7,0C414.9,329.1,413.5,329.5,412.7,329.4z
			"/>
		<path fill="#FFFFFF" d="M409.4,331.5c-0.6-3-4.1-3.1-7.1-3.6c0.5,2,1.5,3.5,2.1,5.4C406.4,332.9,407.7,332,409.4,331.5z"/>
		<path fill="#FFFFFF" d="M415.6,284.8c0.7-2.8-0.5-5.8,0-9.2c-1.6,0-3.2,0-4.8,0c0.9-1.3,2.3-2.1,3.1-3.5c0.7-0.6,1.4-1.2,1.9-1.9
			c0.3-0.2,0.8-0.4,0.8-1c0.3-2,0.3-5.3,0-7.3c0-1.9,0-3.7,0-5.6c-5.8,1.3-8.4,5.7-9,12.1c-0.3,1.2-0.3,3.6,0,4.8
			c0.7,6.4,2.4,11.7,4.8,16.3C412.8,287.9,415.1,286.9,415.6,284.8z"/>
		<path fill="#FFFFFF" d="M423.3,269.1c1.8,2.3,4.1,4,6.1,6c-1.3,1-3.5-0.8-4.6,0.2c-1.3,1.1,0.4,8.7,0,9.6c0.8,1.7,1.9,2.9,3.1,4.2
			c2-4.7,3.9-9.6,4.4-15.7c0.3-1.1,0.3-3.5,0-4.6c-0.7-6.3-2.8-11.3-8.8-12.3c0-0.1,0-0.1,0-0.2
			C421.9,258.7,423.7,265.8,423.3,269.1z"/>
		<path d="M416.4,343.8c1.9,0,3.8,0,5.8,0c0.6,0,1.3,0,1.9,0c0.3-0.4,1.3-0.1,1.9-0.2c14.3-1.2,26.4-4.6,35.7-10.8
			c-2.6-4.7-4.8-9.8-7.3-14.6c-1.3,0.3-2.2,1-3.5,1.3c-6.8-8.9-13.7-17.7-20.2-26.9c2.7-5.7,4.9-11.9,5.8-19.4
			c0.1-0.6-0.2-1.8,0.2-2.1c0-0.2,0-0.4,0-0.6c-0.4-0.3-0.1-1.5-0.2-2.1c-1.1-8.7-4.6-15-13.1-16.3c-1.2-0.8-1.9-2-3.6-1.9
			c-1.6,0-2.5,1.4-3.6,1.9c-1.7,0.7-2.8,0.6-4.2,1.3c-5.8,3-8.7,9.9-8.8,17.9c0.4,0.3,0.1,1.3,0.2,1.9c0.9,7.8,3.3,14.1,6,20.2
			c-6.6,8.8-12.8,17.9-19.8,26.3c-1.2-0.5-2.5-0.8-3.6-1.3c-2.2,5.1-4.9,9.9-6.9,15.2C389.3,339.1,401.1,343.1,416.4,343.8z
			 M406.2,337.4c-0.2-0.8-0.6-1.4-0.8-2.3c1.9-0.5,3.4-1.4,5.4-1.7c0.7,1.9,2.2,3.1,2.9,5C411.1,338.2,408.8,337.6,406.2,337.4z
			 M422.7,338.4c-0.7,0.4-2.2,0.1-3.3,0.2c-0.4,0-0.9,0-1.3,0c-0.4-0.9-1.2-1.5-1.3-2.7c2.3-0.8,4.5-1.8,6.9-2.5c1,1.7,2.4,3,3.1,5
			C425.4,338.4,424,338.4,422.7,338.4z M455.1,331.1c-1.4,0.2-2.3,1-3.8,1.2c-0.7-2.4,1-3.8,2.1-5
			C453.8,328.7,454.7,329.7,455.1,331.1z M452.3,324.8c-0.9,1.7-1.8,3.5-3.3,4.6c-0.8-1.5-2.2-2.5-2.9-4
			C448.2,324.9,451.3,321.8,452.3,324.8z M447.8,334.4c-2.3,0.2-3.8,1.2-6.1,1.3c-0.4-0.7-0.6-1.4-1.2-1.9c1.3-1.3,3-2.3,4.4-3.5
			C446.1,331.4,447.6,333.1,447.8,334.4z M442.5,326.7c4,1.7-1.4,3.6-2.9,5.4c-1.1-1.2-2.3-2.2-2.9-3.8
			C438.8,327.9,440.4,327,442.5,326.7z M438.2,336.5c-2.8,0.5-8.5,3-8.8-1.2c1.9-0.9,3.6-1.9,5.6-2.7
			C436.1,333.9,437.1,335.2,438.2,336.5z M433.6,331.1c-1.7,1-3.7,1.6-5.4,2.7c-1-1.2-1.6-2.8-2.5-4
			C428.4,329.2,433.3,327.5,433.6,331.1z M423.5,256.2c0,0,0,0.1,0,0.2c6,1,8.1,6,8.8,12.3c0.3,1.1,0.3,3.5,0,4.6
			c-0.5,6.2-2.4,11-4.4,15.7c-1.1-1.3-2.3-2.6-3.1-4.2c0.4-0.9-1.3-8.5,0-9.6c1.1-1,3.3,0.8,4.6-0.2c-2.1-2-4.4-3.7-6.1-6
			C423.7,265.8,421.9,258.7,423.5,256.2z M419.6,329.7c0.7,0,1.4,0,2.1,0c0.2,0.7,0.3,1.3,0.8,1.7c-1.9,1.3-4.8,1.7-6.9,2.9
			c-1.2-1.2-1.8-2.9-2.7-4.4c-0.2,0-0.2-0.3-0.2-0.6c0.8,0.1,2.2-0.3,2.7,0.2c0.6,0,1.2,0,1.7,0
			C417.9,329.7,419.2,329.3,419.6,329.7z M407.5,273.3c-0.3-1.2-0.3-3.6,0-4.8c0.6-6.4,3.3-10.8,9-12.1c0,1.9,0,3.7,0,5.6
			c0.3,2,0.3,5.3,0,7.3c0,0.6-0.4,0.7-0.8,1c-0.6,0.7-1.2,1.4-1.9,1.9c-0.8,1.4-2.1,2.2-3.1,3.5c1.6,0,3.2,0,4.8,0
			c-0.5,3.4,0.7,6.4,0,9.2c-0.5,2-2.8,3.1-3.3,4.8C409.9,284.9,408.2,279.6,407.5,273.3z M409.4,331.5c-1.7,0.5-3,1.4-5,1.7
			c-0.7-1.8-1.6-3.4-2.1-5.4C405.4,328.4,408.8,328.5,409.4,331.5z M402.3,336.7c-2.4-0.2-4-1.1-6.3-1.3c-0.4-0.8-0.7-1.6-0.8-2.7
			c1.4-0.4,2.9-0.8,4.2-1.3C400.9,332.6,401.4,334.9,402.3,336.7z M399.1,329.2c-1.4,0.8-3.2,1.1-5,1.5c-0.7-1.9-1.3-3.8-1.9-5.8
			C395.2,325.6,398.4,326.1,399.1,329.2z M390.6,330.5c0,1.2,0.6,1.9,0.6,3.1c-1.5-0.7-3.6-0.9-4.6-2.1
			C388.1,331.4,389.4,330.2,390.6,330.5z M388.1,324.8c0.8,1,0.8,2.7,1.5,3.8c-1,0.6-2.5,0.7-3.8,1
			C386.4,327.8,387.4,326.4,388.1,324.8z"/>
	</g>
	<polygon fill="none" stroke="#999999" stroke-width="0.25" stroke-linecap="round" stroke-linejoin="round" points="545.6,261.7
		545.1,261 545,260.1 545.1,258.3 545,257.5 544,255 541,251 539.9,246.8 539.1,244.8 537.7,243.2 536,241.9 534.8,240.5
		534.3,233.6 531.1,232.3 526.9,232.2 523.5,231.2 514.9,222 511.3,220.4 508.9,219.8 507.5,218.8 506.9,217.3 506.9,215
		505.9,213.8 503.7,212.7 501.2,212 499.7,212.1 494,206.2 489.7,198.8 488.4,197.2 486.9,196 485.3,195 483.6,194.3 480.4,193.7
		479.5,193.1 476.4,187.3 474.9,186.1 470.3,186 469.2,184.3 468.4,179.5 467.8,177.1 466.8,175.1 465.4,173.5 463.5,172.1
		461.9,172.2 456,176.3 453.9,176.8 439.3,177.7 437.2,178.6 435.1,180.7 432.3,185.5 430.3,187.4 428.2,188.2 425.7,188.5
		423.3,188.2 421.2,187.3 414.3,188 413.3,187.7 412.3,189.1 410.9,190.9 408,195.1 407.7,195.8 403,200.7 399.1,206 398.6,206.9
		398.6,207.9 398.5,208.6 397.6,208.8 394.8,208.8 393.6,208.2 392.6,206.9 391.4,205.8 389.4,205.6 387.9,206.4 387,208
		386.4,209.9 385.4,211.7 382.6,212.9 370.7,212.1 371.5,214.1 370.4,215.1 368.7,215.6 367.9,216.6 367.8,218.2 367.7,219.2
		367.5,219.8 367.2,220.2 367.1,220.6 367.1,221.4 366.9,221.9 366.5,221.9 366,221.7 365.6,221.8 363.6,224.8 362.3,226.2
		361,226.7 359.3,227.2 359.8,228.3 361.1,229.6 362,230.8 361.4,230.9 360.4,231.4 359.9,231.6 359.2,230.8 358.5,231.6 359,234.5
		356.6,238.9 350.6,246.3 349.9,246.7 348.8,247.1 347.7,247.7 347,248.8 347,249.9 347.6,252.7 347.8,254.1 346.7,255 341.6,256.6
		339.9,257.8 339.6,258.7 339.4,261.5 339.1,262.6 338.1,263.9 337.1,264.5 336.2,264.8 335.2,265.5 335,266.4 335.4,267.1
		336,267.8 336.3,268.8 336.1,270.3 335.7,271 335,271.5 330.7,276.3 329.5,278.1 329.1,280.3 328.5,280.8 326,280.7 325.5,281.1
		325.3,282.4 324.8,283.7 324.1,284.8 323.3,285.6 319.9,287.5 317.7,288.5 314.8,289.1 312.9,290.1 311.8,290.5 308.8,290.8
		305.8,292 305.3,292.4 301.9,296 301.4,296.3 300.5,295.9 300.3,295.2 300,294.5 298.9,294.6 298.4,295.1 297.5,297 296.8,297.9
		295.8,296.5 294.7,296.5 293.9,297.6 293.9,299.5 292.6,302.5 293.5,302.9 294.9,304.1 296.3,304.9 297.7,306.2 300.8,310.8
		301.6,312.5 313.2,340 315.1,342.3 320.2,346.6 321.7,349 323.1,354.7 323.8,356.4 325.1,358.4 326,358.8 327.4,358.5 329.7,358.5
		331.3,358.9 332.3,359.7 332.2,360.9 330.6,362.5 328.3,368.2 328.5,371.7 330.9,378.1 330.7,380 331.8,380.2 334,380.8 335,381
		335.8,380.8 338,379.9 339.7,379.9 340.4,380.7 341.2,383.7 342.3,385.5 344,386.9 347.8,388.6 348.6,391.1 351.3,393.8
		353.8,397.4 354.1,398.5 354.2,399.6 354.4,400.7 355,401.7 361.4,406.6 367,413 370.2,415 373.8,416.1 378.3,416.7 379.3,416.5
		381.3,415.5 382.2,415.4 383.4,415.8 384.3,416.5 385.1,417.3 386.1,418.1 388.2,419.2 390.4,419.9 402.7,420.9 405.3,422.1
		405.3,419.7 405,417.7 404.9,415.8 405.5,413.3 406.2,412.2 407.1,411.6 408,411.1 408.8,410.4 409.6,409.3 410,408.6 411.8,402.9
		411.9,402 411.6,400.7 410.4,398.6 410.1,397.7 411,396.2 419.9,389.2 421.2,387.6 422,385 421.7,382.2 420.5,381.2 418.9,380.5
		417.8,378.8 418,376.6 419.6,374.8 421.8,373.4 423.7,372.6 426.8,372.2 427.8,371.8 428.5,371 429.8,369.1 430.8,368.4
		432.5,366.8 435.1,361.7 437.2,359.9 439.7,359.5 444.8,360.2 447.3,359.3 451.9,356.6 453.6,356.2 455.3,356.4 460.4,358.3
		463.9,358.4 473.4,354.8 480.3,353.3 487,350.6 499.2,342.5 511.5,334.9 512.8,334.3 515.6,333.5 516.8,332.9 517.5,331.9
		517.2,330.7 516,328.4 515.8,326.7 515.9,325.6 515.6,324.8 514.3,323.8 512.8,321.6 512.8,318.8 513.4,315.6 513.6,312.5
		515.5,309 516.9,305.6 518.6,302.6 521.6,300.2 529.6,297.7 530.8,296.2 530.8,294.3 531,292.4 532.7,291.2 531.2,289.3
		530.5,286.5 530.5,283.4 531.3,280.9 533.5,278.6 536.4,277.3 539.6,276.4 542.3,275.2 543.5,274.3 544.3,273.2 544.9,271.9
		544.8,270.1 545,268.3 546.9,265.5 547.3,263.8 547,263.1 	"/>
</g>

</svg>
