<?xml version="1.0" encoding="utf-8"?>

<svg version="1.2" baseProfile="tiny" xmlns="http://www.w3.org/2000/svg" xmlns:xlink="http://www.w3.org/1999/xlink" x="0px"
	 y="0px" viewBox="255.7 172 328.6 250" xml:space="preserve">

<g id="Lithuania">
	<g>
		<polygon fill="#FDB913" points="572.9,249.6 570.2,249.5 567,248.7 559.3,244.9 555.8,242.2 552.8,236.8 551.5,233.8 550.1,231.6
			544.5,226.8 541.1,222.8 532.9,217.4 527,210.7 523.8,208.4 523.1,207.7 522.6,206.7 521.5,203.3 521.1,202.4 520.4,202.1
			517.1,202.4 516.1,202.2 513.3,200.8 509.5,201.5 490.1,198.2 488.1,196.7 486.5,193.7 485.5,190.4 484.9,189.4 483,187.4
			482.5,186.3 481.8,184.4 480.4,178.3 479,174.1 478,172.4 476.8,172 476,172.7 475.8,173.8 475.7,174.9 475.4,175.8 474.9,175.9
			473.6,175.4 473.1,175.4 466,178.5 463.8,180.3 459.2,186.5 458.1,187.6 454.9,189.5 453,190.4 451.2,189.9 447.6,187.3
			445.8,186.6 444.1,186.8 437.3,190.4 435.8,190.6 434.1,190.3 432.2,189.2 426.9,185.1 420,182.9 418.2,182.8 414.3,183.7
			412.6,183.5 412.5,183.1 412.6,182.5 412.5,181.7 412,181 411.5,180.9 410,181.1 406.1,180.9 404.3,181.4 400.9,183.5
			398.9,183.3 389.3,179.2 388,179 381.6,180.5 380.5,181.1 381,182.2 378.2,185.2 375.4,185.9 372.8,184 370.9,179 369.5,176.1
			367.7,175 365.7,175.4 362,178 354.1,181.3 353.2,181.4 352.2,181 349.8,178.4 348.2,177.6 344.6,176.7 328,177.3 326.9,176.9
			324.7,175.3 323.7,174.7 321.2,174.6 298.2,185.4 293.3,185.6 291.2,186.7 283.4,192.7 282.6,193 280,193.2 278.3,194.1
			276.2,195.8 274.3,198 272.8,200.2 271.9,203.4 271.4,206.2 270.6,208.1 268.3,208.7 265,208.7 262.9,209.2 263.2,212.7
			263.2,221.3 263.1,222.2 262.6,223.6 262.4,224.7 262.4,229 263.3,237.4 263.8,239.4 264.1,241.8 264.4,242.5 264.9,242.8
			265.5,243.4 267.8,247.5 268.1,248.4 268.3,250.3 268.6,252.2 269.4,254.3 573.6,254.3 573.4,251.9 		"/>
		<polygon fill="#FDB913" points="267.2,250.8 266.5,246.4 264.6,244.1 265.1,246.8 265,252.9 265.3,254.3 267.3,254.3 		"/>
		<polygon fill="#C1272D" points="359.1,340.2 358.6,340.7 357.7,341.3 357.1,341.8 356.6,341.9 356.4,342 356.3,342.5 356.4,343
			356.5,343.4 356.5,343.8 355.3,345.6 355.1,346.3 355.1,347.3 355.5,349.5 355.5,350.5 355.3,352.3 354,356.9 353.6,364.3
			354,368.1 355.5,371.4 358.9,377.3 359.9,376.5 361.4,373.8 362.8,373.1 364,373.3 367.4,375 368,375.1 369.3,374.8 369.8,374.9
			370.4,375.6 370.7,376.4 371,377.1 371.4,377.8 372,378.2 373.9,378.4 374.3,378.9 374,379.8 373.7,380.9 373.7,381.8
			374.7,383.3 375.9,383.3 377.3,382.7 378.4,382.4 379.4,382.9 382.8,385.9 384.9,387.2 389.4,388.9 391.6,390.7 392.2,391.5
			393.2,393.5 393.7,394.3 394.2,394.6 395.4,395 395.9,395.3 396.8,396.6 397.6,398.5 398.2,400.6 398.7,402.7 399.5,407.1
			399.5,409.2 398.7,410.7 398,411.2 397.7,411.6 397.4,412 397.4,413 397.6,413.8 398.1,414.5 398.7,415 399,415.5 399.2,416
			399.2,416.4 398.9,417 400.8,417.5 405.8,420.5 406.8,420.9 407.7,420.8 410.4,419.6 413.9,419.1 414.9,418.4 415.7,418.1
			416.2,418.1 417.1,418.7 417.6,418.8 418.1,418.8 422.4,416.3 423.5,416.2 424.4,416.5 426,417.6 426.9,417.8 430.5,417.8
			432.1,417.3 435.6,415.5 437.4,415.1 439.2,415.7 440.7,417.6 441.7,420.4 442.3,421.3 443.4,421.5 445.3,421.4 447,422
			449.1,422 451.1,420.9 457.5,415.2 460.3,413.6 463.9,412.9 465.3,411.8 465.5,411.8 465.7,411.9 465.9,412 466.6,413.8
			467.4,414.7 468.4,414.8 472.1,414.1 473.1,413.6 473.8,412 473.9,409.4 473.4,407.6 472.6,406 471.9,403.9 471.7,402.4
			471.7,402.2 472.1,402.2 472.6,401.5 473.6,400.9 473.6,400.5 473.6,399.9 473.6,399.2 473.8,398.7 475.7,397.5 478.3,397.2
			480.8,397.5 485.2,399.2 487.8,398.8 490.2,397.2 492.5,394.6 493.4,392.7 494.6,388.2 495.3,386.9 496.3,386.8 499.8,388
			504.4,387.7 505.7,386.8 507.9,383.5 509.3,382.8 510,383 510.4,383.3 510.7,383.9 514.6,389.3 514.1,389.7 512.8,389.6
			511.7,390.2 511.5,391.1 512.9,391.8 513.2,392.6 512.8,393.3 511.2,393.9 510.7,394.6 511.2,396.3 512.4,397.5 513.9,398.2
			518.9,399.1 520.2,399 520.7,398.7 521.6,397.4 522.3,397.1 524.4,397.4 525,397.3 526.4,396.3 526.8,394.9 526.9,390.5
			527.1,390.1 527.7,389.2 527.8,388.7 527.7,388.2 527.4,388 527.1,387.8 526.9,387.5 526.6,386.5 526.2,385.6 525.7,384.9
			525.1,384.3 524.8,384.2 524.2,384.4 524,384.4 523.8,384 523.2,382.3 523.1,381.4 522.7,380.6 521.9,380.2 521.1,380.4
			517.7,382.2 515.3,382.3 514.1,381.8 513.3,380.6 513.3,378.2 514.4,376.1 516.9,373 517.9,370.9 518.1,369 518.1,367.1
			518.3,364.5 519,362.6 519.8,361.4 523.3,359.4 524.3,358.3 525.2,356.7 525.4,354.8 525.1,352.9 523.7,349.4 523.3,347.5
			523.4,346.3 523.7,345.3 524,344.5 524.2,343.4 524.2,342.5 524.1,339.7 359.4,339.7 		"/>
		<polygon fill="#006A44" points="270.7,257.9 271,258.9 271,259.6 270.9,260.3 270.8,261.5 271.1,262.4 271.7,263.2 272.2,263.8
			272.4,264.1 272.5,264.9 273.2,267.9 273.8,271.9 273.8,274.3 273,275.3 272.5,276.1 270.3,281 270.2,281.1 270.2,281.3
			270.5,282.1 273.7,279 274.3,279 274.3,281.3 274.4,282.3 274.9,282.8 275.2,283.2 275.7,284.2 276.1,285.4 276.2,286.1
			275.9,287.1 275.5,287.1 275,287 274.7,287.3 274.7,288.1 275,290.4 274.9,290.8 279.5,287 280.9,286.8 282.6,288.5 286,294.4
			288,296.1 293.8,296.5 296.1,297.7 300,300.8 301,302 302,302.9 305.8,303.7 307.7,305.4 308.8,306.1 310.8,306.6 312.1,307.5
			312.7,307.7 313.1,307.5 314.6,306.4 316.1,306.2 316.8,306.7 317,307.8 317,309.4 317.5,311 318.8,312.1 320.2,312.6
			321.5,312.4 322.6,311.7 323.2,310.7 323.9,310 330,308.4 340.3,309.6 346.1,307.9 347.5,308.6 348.3,309.6 348.9,311.6
			349.9,316 350.6,318.2 351.3,319.4 352.2,319.9 355.3,319.9 355.9,320 356.3,320.5 356.7,321.2 357.2,321.8 358,322.1
			357.4,323.3 357.8,324.1 361.2,325.7 361.9,326.4 362.3,327.7 363.1,331.6 363.4,333.4 363.2,335.1 362.5,336.8 361.7,337.7
			359.9,339 359.4,339.7 524.1,339.7 524,337.5 524.2,336.3 524.8,335.4 526,334.3 526.6,334 526.9,334 527.2,333.8 527.5,333
			527.5,332.3 527,330.4 526.9,329.5 527.5,327.7 528.5,326.6 529.8,325.6 531,324.2 531.4,323.2 531.4,322.4 531.6,321.6
			532.3,321.1 534.4,320.2 535.4,320.2 537.5,320.7 538.5,320.7 545.3,319.3 547.4,318.1 548.2,317.1 550.1,314.2 552.2,309.7
			552.5,308.8 552.4,307.7 552.3,305.3 552.5,304.2 554.2,301.4 556.7,301 562.9,302.6 563.4,302.6 564,302.5 564.3,302
			564.7,301.5 565.2,301 566,300.9 571.9,303.6 573.1,303.4 574,302 574.6,299.1 575,296.4 575.4,295.3 576.3,294.1 577.9,292.5
			578.7,292 582.3,291 583.7,290 584.3,288.4 583.8,286.7 582.5,285.7 573.3,284.1 569.9,285 568.9,284.9 565.6,283.7 564.8,283
			564.5,282 565,280.2 566.4,277.7 566.8,276.8 567.6,273.1 568.1,272.1 570,270 570.2,269 569.1,266.9 569.4,264.5 570.5,262.6
			571.9,261 572.9,259.3 573.5,257.2 573.6,254.6 573.6,254.3 269.4,254.3 		"/>
		<polygon fill="#006A44" points="259.3,286.8 262.1,283.1 262.8,281.1 263.1,279.1 264.1,276.9 265,275 265.8,274 265.8,273.3
			264.8,272 265.1,270.5 266,268.8 266.6,267.2 266.6,263.5 266.7,262.3 267.2,260.7 267.4,259.4 267.3,254.3 265.3,254.3
			265.5,254.9 265.1,255.8 265.5,256.3 265.1,258 264.5,266.3 262.2,274.3 259.9,280.2 255.7,287.4 259.3,288.3 		"/>
	</g>
	<path fill="none" stroke="#999999" stroke-width="0.25" stroke-linecap="round" stroke-linejoin="round" d="M266.5,246.4l-1.8-2.3
		l0.5,2.7l-0.1,6.2l0.5,2l-0.4,0.9l0.4,0.5l-0.4,1.7l-0.6,8.3l-2.3,8l-2.3,5.8l-4.2,7.2l3.6,0.9l0.1-1.5l2.7-3.7l0.7-2l0.4-2
		l0.9-2.2l1-1.9l0.8-1.1v-0.6l-1.1-1.3l0.3-1.5l0.8-1.6l0.6-1.6v-3.7l0.1-1.2l0.5-1.6l0.1-1.3l-0.1-8.7L266.5,246.4z M583.8,286.7
		l-1.3-1l-9.3-1.6l-3.4,0.9l-1-0.1l-3.3-1.3l-0.8-0.6l-0.3-1l0.6-1.8l1.3-2.5l0.4-0.9l0.8-3.7l0.5-1.1l2-2l0.1-1.1l-1.1-2.1l0.3-2.4
		l1.1-1.8l1.3-1.6l1.1-1.7l0.6-2.2l0.1-2.6l-0.2-2.7l-0.5-2.3l-2.7-0.1l-3.2-0.8l-7.7-3.8l-3.5-2.7l-3-5.4l-1.3-3l-1.4-2.2l-5.6-4.9
		l-3.4-3.9l-8.2-5.5l-5.9-6.7l-3.2-2.2l-0.7-0.7l-0.5-1l-1.1-3.4l-0.4-0.9l-0.7-0.3l-3.3,0.3l-1-0.2l-2.8-1.3l-3.8,0.7l-19.3-3.4
		l-2-1.5l-1.6-3l-1-3.2l-0.6-1l-1.9-2l-0.6-1.1l-0.6-1.9l-1.4-6.1l-1.5-4.2l-1-1.7l-1.2-0.4l-0.8,0.7l-0.2,1.1l-0.1,1.1l-0.3,0.9
		l-0.5,0.1l-1.3-0.5h-0.6l-7.1,3.2l-2.2,1.8l-4.6,6.2l-1.1,1.1l-3.2,1.9l-1.9,0.8l-1.8-0.5l-3.6-2.6l-1.8-0.7l-1.7,0.3l-6.8,3.5
		l-1.5,0.3l-1.7-0.3l-1.9-1.1l-5.3-4.1l-6.9-2.2l-1.8-0.1l-3.9,0.9l-1.8-0.3l-0.1-0.4l0.1-0.6l-0.1-0.8L412,181l-0.5-0.1l-1.5,0.3
		l-3.9-0.2l-1.8,0.5l-3.4,2l-2-0.1l-9.6-4.1L388,179l-6.5,1.5l-1.1,0.6l0.5,1.1l-2.8,3l-2.8,0.7l-2.5-2l-2-5l-1.3-2.9l-1.8-1.1
		l-2,0.3L362,178l-7.9,3.3l-0.8,0.1l-1-0.4l-2.5-2.6l-1.6-0.8l-3.6-0.8l-16.6,0.6l-1.1-0.4l-2.1-1.5l-1.1-0.6l-2.5-0.1l-22.9,10.8
		l-4.9,0.2l-2.1,1.1l-7.8,6l-0.8,0.3l-2.5,0.1l-1.7,0.9l-2.1,1.8l-2,2.2l-1.4,2.2l-1,3.2l-0.4,2.7l-0.8,1.9l-2.3,0.6H265l-2.1,0.5
		l0.3,3.5v8.6l-0.1,0.9l-0.5,1.4l-0.1,1.1v4.4l0.8,8.4l0.5,2l0.3,2.5l0.3,0.6l0.5,0.3l0.6,0.6l2.3,4.1l0.3,1l0.1,1.9l0.4,1.9
		l2.1,5.6l0.2,1v0.7l-0.1,0.8l-0.1,1.2l0.3,0.9l0.6,0.8l0.6,0.6l0.2,0.3l0.1,0.8l0.7,3l0.6,4v2.4l-0.8,1l-0.5,0.8l-2.2,4.9l-0.1,0.1
		v0.2l0.3,0.8l3.2-3.1l0.6,0.1v2.2l0.1,1.1l0.5,0.4l0.4,0.4l0.5,1.1l0.4,1.1l0.1,0.8l-0.4,1h-0.4L275,287l-0.3,0.3v0.8l0.3,2.2
		l-0.1,0.5l4.6-3.9l1.4-0.2l1.7,1.7l3.4,6l2,1.6l5.8,0.5l2.3,1.1l3.9,3.1l1,1.3l1,0.8l3.9,0.9l1.9,1.7l1.1,0.7l2,0.5l1.3,0.9
		l0.6,0.2l0.5-0.2l1.5-1.1l1.5-0.1l0.7,0.5l0.2,1.1v1.6l0.5,1.6l1.3,1.1l1.5,0.5l1.3-0.1l1.1-0.8l0.6-0.9l0.7-0.8l6-1.6l10.3,1.3
		l5.8-1.8l1.3,0.8l0.8,1l0.6,2l0.9,4.4l0.8,2.2l0.6,1.2l0.9,0.5h3.2l0.6,0.1l0.4,0.4l0.4,0.7l0.6,0.6l0.8,0.3l-0.6,1.3l0.4,0.8
		l3.4,1.5l0.7,0.8l0.4,1.3l0.8,3.9l0.2,1.8l-0.1,1.7l-0.7,1.7l-0.8,0.9l-1.8,1.3l-0.8,1.3l-0.5,0.5l-1,0.6l-0.6,0.5l-0.5,0.1
		l-0.2,0.1l-0.1,0.4l0.1,0.5l0.1,0.4v0.4l-1.2,1.8l-0.2,0.7v1l0.4,2.2l0.1,1.1l-0.3,1.8l-1.3,4.6l-0.4,7.5l0.4,3.7l1.5,3.3l3.4,6
		l1.1-0.8l1.5-2.7l1.4-0.6l1.2,0.1l3.4,1.8l0.6,0.1l1.3-0.3l0.6,0.1l0.6,0.6l0.4,0.8l0.3,0.8l0.3,0.6l0.6,0.4l1.9,0.2l0.3,0.5
		l-0.2,0.9l-0.4,1.1v1l1,1.4h1.3l1.3-0.6l1.1-0.3l1,0.5l3.4,3l2.1,1.3l4.5,1.7l2.2,1.8l0.6,0.8l1,2l0.5,0.8l0.6,0.3l1.2,0.3l0.5,0.3
		l0.9,1.3l0.8,1.9l0.6,2.1l0.4,2l0.8,4.4v2.1l-0.8,1.5l-0.7,0.6l-0.3,0.3l-0.3,0.4v1l0.2,0.8l0.5,0.7l0.6,0.5l0.3,0.4l0.1,0.5v0.5
		l-0.2,0.6l1.9,0.5l5,3l1,0.3l0.8-0.1l2.7-1.2l3.5-0.5l1-0.7l0.8-0.4l0.4,0.1l1,0.6l0.5,0.1l0.4-0.1l4.3-2.5l1.2-0.1l0.8,0.3
		l1.6,1.1l0.9,0.2h3.6l1.6-0.5l3.4-1.8l1.8-0.4l1.8,0.6l1.5,1.9l1,2.7l0.6,0.9l1.1,0.2l1.9-0.1l1.8,0.6h2l2-1.1l6.4-5.8l2.8-1.6
		l3.6-0.7l1.3-1.1h0.2l0.2,0.1l0.2,0.1l0.7,1.8l0.8,0.8l1,0.1l3.7-0.6l1-0.5l0.7-1.6l0.1-2.6l-0.5-1.8l-0.8-1.6l-0.7-2l-0.3-1.5
		l0.1-0.3h0.4l0.5-0.6l1.1-0.6v-0.4l-0.1-0.6v-0.7l0.2-0.6l1.9-1.2l2.6-0.3l2.5,0.4l4.4,1.7l2.5-0.4l2.5-1.5l2.3-2.6l0.9-2l1.1-4.5
		l0.7-1.3l1-0.1l3.5,1.3l4.6-0.3l1.3-0.9l2.3-3.3l1.4-0.7l0.7,0.1l0.3,0.4l0.3,0.6l3.9,5.4l-0.5,0.4l-1.3-0.1l-1.1,0.6l-0.1,0.9
		l1.3,0.7l0.4,0.8l-0.4,0.7l-1.6,0.6l-0.4,0.7l0.4,1.7l1.3,1.2l1.5,0.8l5,0.9l1.3-0.1l0.6-0.4l0.9-1.3l0.6-0.3l2.1,0.3l0.6-0.1
		l1.3-1l0.4-1.5l0.1-4.4l0.2-0.4l0.6-0.9l0.1-0.4l-0.1-0.6l-0.3-0.2l-0.3-0.1l-0.2-0.3l-0.3-1l-0.4-0.8l-0.5-0.7l-0.6-0.6l-0.3-0.1
		l-0.6,0.2l-0.2-0.1l-0.2-0.3l-0.6-1.7l-0.1-0.9l-0.3-0.8l-0.8-0.4l-0.8,0.2l-3.4,1.8l-2.5,0.1l-1.2-0.5l-0.8-1.3l0.1-2.4l1.1-2.1
		l2.5-3.1l1-2.1l0.2-1.8v-2l0.2-2.5l0.6-2l0.8-1.1l3.4-2l1.1-1.1l0.8-1.6l0.3-1.9l-0.3-1.9l-1.4-3.5l-0.4-1.9l0.1-1.2l0.3-1l0.3-0.9
		l0.2-1.1l0.1-1l-0.2-4.9l0.1-1.3l0.6-0.8l1.2-1.1l0.6-0.3h0.4l0.3-0.2l0.3-0.8v-0.8l-0.5-1.9l-0.1-0.8l0.6-1.8l1.1-1.1l1.3-1
		l1.2-1.4l0.4-1l0.1-0.8l0.2-0.7l0.6-0.6l2.1-0.9h1.1l2,0.5h1.1l6.8-1.4l2-1.2l0.8-0.9l1.9-3l2-4.5l0.3-0.9l-0.1-1.1l-0.1-2.4
		l0.1-1.1l1.8-2.8l2.5-0.4l6.2,1.6h0.5l0.6-0.1l0.4-0.4l0.3-0.6l0.5-0.5l0.8-0.1l5.9,2.7l1.3-0.2l0.8-1.4l0.6-2.9l0.3-2.7l0.4-1.1
		l0.9-1.3l1.6-1.6l0.8-0.5l3.6-1l1.3-1l0.6-1.6L583.8,286.7z"/>
</g>

</svg>
