<?xml version="1.0" encoding="utf-8"?>

<svg version="1.2" baseProfile="tiny" xmlns="http://www.w3.org/2000/svg" xmlns:xlink="http://www.w3.org/1999/xlink" x="0px"
	 y="0px" viewBox="333.1 172 173.8 250" xml:space="preserve">

<g id="Luxembourg">
	<g>
		<polygon fill="#00A1DE" points="361.1,340.8 360.6,341.9 360.3,343 360.8,344.4 361.1,345.5 362.5,346.6 366.9,347.2 368.6,348.6
			369.1,351.3 369.7,353.6 368.3,356.6 366.1,358.6 364.4,360.5 362.8,365.2 361.7,368.5 360,371.8 357.5,374 359.7,375.4
			361.1,376.3 360,379 358.9,381.5 353.9,387.1 348.6,389.6 355.6,398.7 359.5,402.3 365,404.8 378.9,408.2 383,412.3 386,422
			390,420.6 408.8,419.5 412.1,418.4 414.3,415.1 417.1,414 417.6,412 417.6,409.8 418.8,407.9 420.4,407.3 426.5,406.8
			425.1,403.7 437.9,402.3 444.3,402.9 450.4,405.4 461.2,413.7 467,417 471.4,417.6 471.4,415.1 470.6,404.8 472.5,390.7
			472.5,379.9 473.9,376.3 477.2,371 483.1,364.1 485.3,359.4 487,356.9 487.5,355.5 487.2,353.3 485.8,351.9 484.4,351
			484.2,349.9 487.5,345.2 495.5,340.1 361.1,340.1 		"/>
		<polygon fill="#ED2939" points="434.6,247.4 432.1,252.1 430.4,249 427.1,239.3 423.2,233.5 422.4,230.8 422.9,226.9 421.5,219.7
			420.2,216.9 417.6,215.5 419.6,211.6 420.4,210.5 418.5,210.5 418.2,210.2 419.6,200.8 420.7,196.1 422.4,191.1 419,189.7
			418.8,188.6 418.5,186.9 418.5,183.6 417.4,180.6 417.1,180.3 414.6,177.8 412.7,177.8 411.3,179.5 409.6,180.6 409.3,180.8
			404.3,181.7 401.9,181.4 401.9,180.6 399.9,179.5 398.5,177 397.7,173.6 396.6,172.3 396.3,172 393,174.8 390.5,175 388.3,175.3
			386.3,178.4 385.5,182.5 385.5,183.1 383.8,188.1 380.5,191.4 372.2,195.3 370,197.5 368.6,198.9 367.8,201.1 367.5,204.4
			367.2,206.9 366.9,208.3 366.7,209.4 366.1,210.2 365.3,211.3 361.9,214.1 361.4,215 360.6,216.3 360.8,219.1 360.8,223.3
			360.3,225.8 360.3,226.1 360,226.3 358.6,227.7 354.2,229.6 352.8,231.6 352.5,236.3 354.2,238.2 355,240.2 352.5,244.9
			351.4,246 350.6,246.8 347.3,247.6 345.6,248.8 344.2,250.7 343.6,251.8 343.1,252.9 342.8,253.5 342.7,253.9 438.6,253.9
			438.5,253.5 		"/>
		<polygon fill="#FFFFFF" points="342.5,254.6 342.3,255.1 341.7,256.8 336.7,265.4 333.9,270.4 333.7,271.8 333.1,273.7
			335.6,275.1 336.4,275.7 340.6,278.7 342.5,281.8 336.7,281.2 336.7,282.9 336.4,283.7 336.4,284 336.2,284.8 335.9,285.9
			337.8,287.9 335.1,289.5 334.2,292.8 334.5,297 335.3,299.2 335.9,301.4 338.1,305.3 340.3,306.4 340.6,306.4 342.8,306.7
			343.6,307.2 345.6,308.4 347,310 347.3,310.3 348.6,313.1 352.5,320.8 352.8,322.5 353.4,327.2 353.4,328 354.5,328.9
			357.5,329.7 358.1,330 357.8,330 359.2,330.3 360,330 360.6,329.7 361.9,329.7 363.3,331.6 363.3,334.2 363,334.7 362.5,335.5
			361.4,336.6 361.1,338.6 361.1,340.1 495.5,340.1 503.9,334.7 503.3,333.9 501.9,332.2 502.7,330.5 503.9,330 506.4,331.1
			504.7,329.2 503.6,326.6 503,323.9 503.3,320.8 505.5,318.9 505.5,317.5 505,316.1 505,313.6 506.1,306.1 506.4,305.9
			506.4,302.8 506.9,302.2 505.8,300.9 505,300.9 498.3,299 487.8,299 483.9,297.8 480.3,295.3 473.9,289.2 470.3,286.8
			468.4,286.8 465,288.7 463.4,288.7 463.1,287.6 460.9,281.8 459.8,279.8 456.5,277.9 449,274.6 445.7,270.9 438.6,253.9
			342.7,253.9 		"/>
	</g>
	<polygon fill="none" stroke="#999999" stroke-width="0.25" stroke-linecap="round" stroke-linejoin="round" points="505,300.9
		498.3,299 487.8,299 483.9,297.8 480.3,295.3 473.9,289.2 470.3,286.8 468.4,286.8 465,288.7 463.4,288.7 463.1,287.6 460.9,281.8
		459.8,279.8 456.5,277.9 449,274.6 445.7,270.9 438.5,253.5 434.6,247.4 432.1,252.1 430.4,249 427.1,239.3 423.2,233.5
		422.4,230.8 422.9,226.9 421.5,219.7 420.2,216.9 417.6,215.5 419.6,211.6 420.4,210.5 418.5,210.5 418.2,210.2 419.6,200.8
		420.7,196.1 422.4,191.1 419,189.7 418.8,188.6 418.5,186.9 418.5,183.6 417.4,180.6 417.1,180.3 414.6,177.8 412.7,177.8
		411.3,179.5 409.6,180.6 409.3,180.8 404.3,181.7 401.9,181.4 401.9,180.6 399.9,179.5 398.5,177 397.7,173.6 396.6,172.3
		396.3,172 393,174.8 390.5,175 388.3,175.3 386.3,178.4 385.5,182.5 385.5,183.1 383.8,188.1 380.5,191.4 372.2,195.3 370,197.5
		368.6,198.9 367.8,201.1 367.5,204.4 367.2,206.9 366.9,208.3 366.7,209.4 366.1,210.2 365.3,211.3 361.9,214.1 361.4,215
		360.6,216.3 360.8,219.1 360.8,223.3 360.3,225.8 360.3,226.1 360,226.3 358.6,227.7 354.2,229.6 352.8,231.6 352.5,236.3
		354.2,238.2 355,240.2 352.5,244.9 351.4,246 350.6,246.8 347.3,247.6 345.6,248.8 344.2,250.7 343.6,251.8 343.1,252.9
		342.8,253.5 342.5,254.6 342.3,255.1 341.7,256.8 336.7,265.4 333.9,270.4 333.7,271.8 333.1,273.7 335.6,275.1 336.4,275.7
		340.6,278.7 342.5,281.8 336.7,281.2 336.7,282.9 336.4,283.7 336.4,284 336.2,284.8 335.9,285.9 337.8,287.9 335.1,289.5
		334.2,292.8 334.5,297 335.3,299.2 335.9,301.4 338.1,305.3 340.3,306.4 340.6,306.4 342.8,306.7 343.6,307.2 345.6,308.4 347,310
		347.3,310.3 348.6,313.1 352.5,320.8 352.8,322.5 353.4,327.2 353.4,328 354.5,328.9 357.5,329.7 358.1,330 357.8,330 359.2,330.3
		360,330 360.6,329.7 361.9,329.7 363.3,331.6 363.3,334.2 363,334.7 362.5,335.5 361.4,336.6 361.1,338.6 361.1,340.8 360.6,341.9
		360.3,343 360.8,344.4 361.1,345.5 362.5,346.6 366.9,347.2 368.6,348.6 369.1,351.3 369.7,353.6 368.3,356.6 366.1,358.6
		364.4,360.5 362.8,365.2 361.7,368.5 360,371.8 357.5,374 359.7,375.4 361.1,376.3 360,379 358.9,381.5 353.9,387.1 348.6,389.6
		355.6,398.7 359.5,402.3 365,404.8 378.9,408.2 383,412.3 386,422 390,420.6 408.8,419.5 412.1,418.4 414.3,415.1 417.1,414
		417.6,412 417.6,409.8 418.8,407.9 420.4,407.3 426.5,406.8 425.1,403.7 437.9,402.3 444.3,402.9 450.4,405.4 461.2,413.7 467,417
		471.4,417.6 471.4,415.1 470.6,404.8 472.5,390.7 472.5,379.9 473.9,376.3 477.2,371 483.1,364.1 485.3,359.4 487,356.9
		487.5,355.5 487.2,353.3 485.8,351.9 484.4,351 484.2,349.9 487.5,345.2 503.9,334.7 503.3,333.9 501.9,332.2 502.7,330.5
		503.9,330 506.4,331.1 504.7,329.2 503.6,326.6 503,323.9 503.3,320.8 505.5,318.9 505.5,317.5 505,316.1 505,313.6 506.1,306.1
		506.4,305.9 506.4,302.8 506.9,302.2 505.8,300.9 	"/>
</g>

</svg>
