<?xml version="1.0" encoding="utf-8"?>

<svg version="1.2" baseProfile="tiny" xmlns="http://www.w3.org/2000/svg" xmlns:xlink="http://www.w3.org/1999/xlink" x="0px"
	 y="0px" viewBox="214.4 172 411 250" xml:space="preserve">

<g id="Latvia">
	<g>
		<polygon fill="#9E3039" points="603.4,253.6 602.3,252.7 596.5,249.1 592.8,244.8 586.8,242 585.4,240.5 585.6,238.6 586.3,236.5
			586.1,234 586.4,230.1 576.5,230.2 574.4,231.3 565.7,228.1 561.1,227.8 559.7,227.1 558.6,225.8 556.5,222.6 555.2,221.5
			553.3,220.9 552.3,220.9 551.3,221.1 550.4,220.9 549.8,220.2 549.1,219.6 548,220.1 547.1,221.4 546.6,223 545.8,224.5
			544.7,225.6 543.7,225.9 539.3,225.6 537.4,226.3 535.5,227.4 533.9,228.9 533.5,229.6 533.3,230.3 533,231 532.4,231.3
			531.9,231.1 530.8,230.3 530.2,230.1 529.4,230.6 528.7,231.3 527.8,231.4 526.7,230.2 524.8,227.5 523.9,226.6 518.7,224.3
			516.3,222.6 514.4,220.3 509.1,211.5 507.2,209.2 500.9,204 500.4,202.7 500.3,200.5 500.4,199.5 500.8,198.8 501,198.2
			500.8,197.2 500.4,196.7 499.7,196.3 487.8,195.3 486.4,193.9 485.7,191.8 485.2,189.6 484.3,188.1 483.5,188.1 479.8,189.4
			478.3,189.6 477,189.4 475.7,188.6 474.5,187 474.2,186.2 474.1,185.4 474.1,184.7 473.6,183.9 473,183.6 471,183.2 468.8,181.7
			465.4,177.5 463.1,176.3 462.5,176.3 462.2,176.5 461.8,176.6 461.3,176.3 460.9,175.7 460.3,173.7 459.9,173 458.9,172.2
			457.9,172 457.2,172.7 457.1,174.5 458.7,177.5 459.1,179.2 457.9,180.7 456.2,181.6 455.3,181.6 454.5,180.9 453.7,178.6
			453.2,176 452.5,173.7 451,172.8 448.3,172.8 447,173.2 445.8,174 441.6,178.4 440.1,179.4 435.8,180 434.4,180.7 432.6,182.4
			431.1,182.2 429.6,181.2 427.9,180.8 427.1,181.9 426,184.9 425.2,185.6 421.7,185.9 417.7,185.6 416.6,185.9 413.6,188.6
			411.4,189.9 410.7,190.7 409.8,193.2 409.1,194.3 407.8,195 406.2,195.1 403.8,194.1 403.2,195.2 402.8,196.5 402.6,197.8
			402.8,200.3 403.4,205.3 403.4,207.3 404.2,209.2 406.7,213.5 407,214.9 407.6,221.1 407,225 406.7,227.8 407,229.1 407.6,230.1
			407.9,232.4 408,236.3 409.6,249.8 409.8,254.7 409.3,258.9 408.1,261.8 404.3,266.1 403,267.1 402.4,267.8 402.4,269
			401.4,269.3 400.1,270.2 399.5,270.9 600.5,270.9 601.4,270.4 603.2,268.8 603.7,266.6 604.2,263.4 604.4,257.5 604.1,255.1 		"/>
		<polygon fill="#9E3039" points="342.6,264.2 342.1,263.3 341.3,262.4 340.7,260.5 340.3,256.8 339.9,254.7 339.3,253 337.8,250
			337.5,248.9 337.5,247.8 337.4,247 336.7,246.7 334.8,246.2 331.8,244.5 327.2,240.5 323.1,235.4 310.5,224.4 307.4,219.7
			306.8,218.1 306.6,215.9 306.8,211.6 307.3,207.6 307.6,206.8 307.9,206.5 307.9,206.4 307.3,206 306.5,205.9 305.7,206.2
			305,206.6 304.4,206.8 303.1,206.9 300.7,207.7 273.2,222.7 270.8,223.5 260.3,224.2 257.8,225.5 256.1,227.4 249.9,239.7
			245.8,245.1 243.7,250.7 242.9,251.6 242,252.2 241,253.6 240.3,255.4 240,257.3 239.8,259.5 240,266.4 239.8,267.3 239.3,268.8
			239.2,269.9 239.4,270.9 343.7,270.9 		"/>
		<polygon fill="#9E3039" points="217,327.2 216.4,331.4 216.1,331.9 216,332.3 216.2,333.4 216.6,334.2 217,334.4 217.5,334.5
			218.1,334.8 219.1,335.6 219.4,336.1 219.7,336.9 220,337.9 220.3,339.7 220.5,340.4 220.3,341.5 220.2,343.2 220.3,345
			221,347.1 220.8,347.9 220.4,348.5 219.9,348.7 219.4,348.4 218.1,346.5 218.9,345.2 218.9,343.1 218.5,342.8 218.1,342.4
			218.9,341 218.4,339.8 218.1,337.1 217.7,336 216.7,335 216.4,335.9 216.5,337.8 216.9,339.5 216.6,340.6 216.6,342.6
			216.5,343.7 216.2,344.6 215.9,345.4 215.1,346.8 214.6,348.3 214.4,350.3 214.6,352.4 215.1,356.4 215.2,357.3 215.2,358.4
			215.1,359.5 214.6,361.5 214.4,362.2 214.6,364.4 215.2,366.6 217.8,373 218.6,376.3 219.1,380.1 219.1,380.6 221.3,380.1
			224.6,380.1 226.9,379.4 227.8,377.5 228.2,374.7 229.2,371.4 230.6,369.2 232.6,367 234.7,365.2 236.1,364.2 238.7,364.1
			239.5,363.8 247.4,357.7 249.6,356.6 254.6,356.4 277.8,345.4 280.4,345.5 281.4,346.1 283.6,347.7 284.7,348.1 301.5,347.5
			305.2,348.4 306.8,349.3 309.3,351.9 310.3,352.3 311.2,352.2 319.2,348.8 323,346.2 325,345.8 326.9,346.9 328.2,349.8
			330.2,354.9 332.8,356.9 335.6,356.2 338.5,353.1 338,352 339,351.4 345.6,349.8 346.9,350.1 356.6,354.2 358.6,354.4
			362.1,352.3 363.9,351.8 367.8,352 369.4,351.8 369.9,351.9 370.4,352.6 370.5,353.4 370.4,354 370.5,354.4 372.3,354.7
			376.2,353.7 378,353.8 385,356 390.4,360.2 392.3,361.3 394,361.7 395.6,361.4 402.4,357.8 404.1,357.5 406,358.2 409.6,360.9
			411.5,361.4 413.4,360.5 416.7,358.6 417.7,357.5 422.4,351.2 424.6,349.4 431.8,346.2 432.4,346.2 433.6,346.7 434.1,346.6
			434.5,345.7 434.6,344.6 434.8,343.5 435.6,342.8 436.8,343.2 437.8,344.9 439.3,349.2 440.7,355.4 441.3,357.3 441.9,358.4
			443.8,360.4 444.4,361.4 445.4,364.7 447,367.8 449.1,369.3 468.7,372.7 472.6,372 475.4,373.3 476.4,373.6 479.8,373.3
			480.5,373.6 480.9,374.5 482,377.9 482.5,379 483.2,379.7 486.5,382 492.4,388.7 500.7,394.3 504.2,398.3 509.8,403.2
			511.3,405.4 512.6,408.5 515.6,413.9 519.2,416.6 527,420.5 530.3,421.7 533.5,422 534.7,419.8 536.1,419 537.6,419.2
			540.6,420.4 541.9,420.3 546.4,418 547.6,416.6 550.8,410.6 554.1,406.6 555.5,405.8 562.8,404.9 565.1,405.2 566.3,405.9
			569.9,408.9 571.4,409.8 572.6,409.3 575.2,406.7 576.4,405.4 577.8,407 579.6,408.1 581.4,408.6 588.5,409.3 590.1,409.1
			590.6,407.5 591.1,405.4 591.5,400.6 593.1,396.1 598.7,392.4 600.6,389.1 600.8,386.7 602.6,384.8 606.4,381.8 607.2,380.5
			607.7,379.3 608.2,378.1 609.1,377.2 609.8,376.8 612.1,376.3 614.6,375.1 617.1,373.3 619.5,372.4 621.6,373.9 622.8,371.9
			623.3,369.6 623.7,367.2 624.2,364.7 624.6,363.7 625,363 625.4,362.2 625.5,360.7 625.3,359.7 623.1,352.7 622.6,350.6
			622.5,348.3 622.7,344.8 622.5,343.6 622.1,342.8 619.1,339 618.6,338.1 618.4,337.1 618.8,335.9 620.3,334.4 620.6,333.5
			620.3,332.3 619.3,331.5 614.7,329.3 613.7,328.2 612.9,326.5 612.7,325.1 217.7,325.1 		"/>
		<polygon fill="#FFFFFF" points="399.1,271.4 398.6,272.9 390.8,278 388.6,278.6 387.8,279.7 387.1,281.1 386.1,282.6 384,284.5
			379,286.9 369.3,289.2 365.8,288.9 363.1,288 362.3,287.2 359.5,283.2 358.8,282.6 353.9,281.7 349.2,279.7 346.5,276.6
			345.5,276.2 344.7,275.5 344.2,273.9 343.7,270.9 239.4,270.9 239.8,272.7 240,273.8 239.9,278.1 239.2,281.8 238.1,284.8
			236.8,286.8 233.4,289.9 232.7,290.4 232.1,291 230,294.2 229,295.3 225.3,297.6 224.7,298.5 220.1,301.6 219.4,303.4
			219.4,305.2 219.8,307.1 220.1,309.1 219.7,318 219,321.3 217.7,325.1 612.7,325.1 612.6,324.3 612.6,319.7 612,317.9
			606.4,313.9 605.4,312.1 606,310.4 607.4,308 608.4,305.6 608.2,304.1 606.9,303.1 604.7,300.6 603.5,299.6 601,298.9
			598.6,299.5 593.9,302.1 592,301.6 593.2,298 597,289.9 597.2,288.7 597.3,286.6 597.5,285.5 597.8,284.4 598.7,282.1 599,281
			598.7,278.3 597.4,277.3 595.9,276.5 595.1,274.5 596.2,273 600.5,270.9 399.5,270.9 		"/>
	</g>
	<polygon fill="none" stroke="#999999" stroke-width="0.25" stroke-linecap="round" stroke-linejoin="round" points="623.1,352.7
		622.6,350.6 622.5,348.3 622.7,344.8 622.5,343.6 622.1,342.8 619.1,339 618.6,338.1 618.4,337.1 618.8,335.9 620.3,334.4
		620.6,333.5 620.3,332.3 619.3,331.5 614.7,329.3 613.7,328.2 612.9,326.5 612.6,324.3 612.6,319.7 612,317.9 606.4,313.9
		605.4,312.1 606,310.4 607.4,308 608.4,305.6 608.2,304.1 606.9,303.1 604.7,300.6 603.5,299.6 601,298.9 598.6,299.5 593.9,302.1
		592,301.6 593.2,298 597,289.9 597.2,288.7 597.3,286.6 597.5,285.5 597.8,284.4 598.7,282.1 599,281 598.7,278.3 597.4,277.3
		595.9,276.5 595.1,274.5 596.2,273 601.4,270.4 603.2,268.8 603.7,266.6 604.2,263.4 604.4,257.5 604.1,255.1 603.4,253.6
		602.3,252.7 596.5,249.1 592.8,244.8 586.8,242 585.4,240.5 585.6,238.6 586.3,236.5 586.1,234 586.4,230.1 576.5,230.2
		574.4,231.3 565.7,228.1 561.1,227.8 559.7,227.1 558.6,225.8 556.5,222.6 555.2,221.5 553.3,220.9 552.3,220.9 551.3,221.1
		550.4,220.9 549.8,220.2 549.1,219.6 548,220.1 547.1,221.4 546.6,223 545.8,224.5 544.7,225.6 543.7,225.9 539.3,225.6
		537.4,226.3 535.5,227.4 533.9,228.9 533.5,229.6 533.3,230.3 533,231 532.4,231.3 531.9,231.1 530.8,230.3 530.2,230.1
		529.4,230.6 528.7,231.3 527.8,231.4 526.7,230.2 524.8,227.5 523.9,226.6 518.7,224.3 516.3,222.6 514.4,220.3 509.1,211.5
		507.2,209.2 500.9,204 500.4,202.7 500.3,200.5 500.4,199.5 500.8,198.8 501,198.2 500.8,197.2 500.4,196.7 499.7,196.3
		487.8,195.3 486.4,193.9 485.7,191.8 485.2,189.6 484.3,188.1 483.5,188.1 479.8,189.4 478.3,189.6 477,189.4 475.7,188.6
		474.5,187 474.2,186.2 474.1,185.4 474.1,184.7 473.6,183.9 473,183.6 471,183.2 468.8,181.7 465.4,177.5 463.1,176.3 462.5,176.3
		462.2,176.5 461.8,176.6 461.3,176.3 460.9,175.7 460.3,173.7 459.9,173 458.9,172.2 457.9,172 457.2,172.7 457.1,174.5
		458.7,177.5 459.1,179.2 457.9,180.7 456.2,181.6 455.3,181.6 454.5,180.9 453.7,178.6 453.2,176 452.5,173.7 451,172.8
		448.3,172.8 447,173.2 445.8,174 441.6,178.4 440.1,179.4 435.8,180 434.4,180.7 432.6,182.4 431.1,182.2 429.6,181.2 427.9,180.8
		427.1,181.9 426,184.9 425.2,185.6 421.7,185.9 417.7,185.6 416.6,185.9 413.6,188.6 411.4,189.9 410.7,190.7 409.8,193.2
		409.1,194.3 407.8,195 406.2,195.1 403.8,194.1 403.2,195.2 402.8,196.5 402.6,197.8 402.8,200.3 403.4,205.3 403.4,207.3
		404.2,209.2 406.7,213.5 407,214.9 407.6,221.1 407,225 406.7,227.8 407,229.1 407.6,230.1 407.9,232.4 408,236.3 409.6,249.8
		409.8,254.7 409.3,258.9 408.1,261.8 404.3,266.1 403,267.1 402.4,267.8 402.4,269 401.4,269.3 400.1,270.2 399.1,271.4
		398.6,272.9 390.8,278 388.6,278.6 387.8,279.7 387.1,281.1 386.1,282.6 384,284.5 379,286.9 369.3,289.2 365.8,288.9 363.1,288
		362.3,287.2 359.5,283.2 358.8,282.6 353.9,281.7 349.2,279.7 346.5,276.6 345.5,276.2 344.7,275.5 344.2,273.9 342.6,264.2
		342.1,263.3 341.3,262.4 340.7,260.5 340.3,256.8 339.9,254.7 339.3,253 337.8,250 337.5,248.9 337.5,247.8 337.4,247 336.7,246.7
		334.8,246.2 331.8,244.5 327.2,240.5 323.1,235.4 310.5,224.4 307.4,219.7 306.8,218.1 306.6,215.9 306.8,211.6 307.3,207.6
		307.6,206.8 307.9,206.5 307.9,206.4 307.3,206 306.5,205.9 305.7,206.2 305,206.6 304.4,206.8 303.1,206.9 300.7,207.7
		273.2,222.7 270.8,223.5 260.3,224.2 257.8,225.5 256.1,227.4 249.9,239.7 245.8,245.1 243.7,250.7 242.9,251.6 242,252.2
		241,253.6 240.3,255.4 240,257.3 239.8,259.5 240,266.4 239.8,267.3 239.3,268.8 239.2,269.9 239.8,272.7 240,273.8 239.9,278.1
		239.2,281.8 238.1,284.8 236.8,286.8 233.4,289.9 232.7,290.4 232.1,291 230,294.2 229,295.3 225.3,297.6 224.7,298.5 220.1,301.6
		219.4,303.4 219.4,305.2 219.8,307.1 220.1,309.1 219.7,318 219,321.3 217,327.2 216.4,331.4 216.1,331.9 216,332.3 216.2,333.4
		216.6,334.2 217,334.4 217.5,334.5 218.1,334.8 219.1,335.6 219.4,336.1 219.7,336.9 220,337.9 220.3,339.7 220.5,340.4
		220.3,341.5 220.2,343.2 220.3,345 221,347.1 220.8,347.9 220.4,348.5 219.9,348.7 219.4,348.4 218.1,346.5 218.9,345.2
		218.9,343.1 218.5,342.8 218.1,342.4 218.9,341 218.4,339.8 218.1,337.1 217.7,336 216.7,335 216.4,335.9 216.5,337.8 216.9,339.5
		216.6,340.6 216.6,342.6 216.5,343.7 216.2,344.6 215.9,345.4 215.1,346.8 214.6,348.3 214.4,350.3 214.6,352.4 215.1,356.4
		215.2,357.3 215.2,358.4 215.1,359.5 214.6,361.5 214.4,362.2 214.6,364.4 215.2,366.6 217.8,373 218.6,376.3 219.1,380.1
		219.1,380.6 221.3,380.1 224.6,380.1 226.9,379.4 227.8,377.5 228.2,374.7 229.2,371.4 230.6,369.2 232.6,367 234.7,365.2
		236.1,364.2 238.7,364.1 239.5,363.8 247.4,357.7 249.6,356.6 254.6,356.4 277.8,345.4 280.4,345.5 281.4,346.1 283.6,347.7
		284.7,348.1 301.5,347.5 305.2,348.4 306.8,349.3 309.3,351.9 310.3,352.3 311.2,352.2 319.2,348.8 323,346.2 325,345.8
		326.9,346.9 328.2,349.8 330.2,354.9 332.8,356.9 335.6,356.2 338.5,353.1 338,352 339,351.4 345.6,349.8 346.9,350.1 356.6,354.2
		358.6,354.4 362.1,352.3 363.9,351.8 367.8,352 369.4,351.8 369.9,351.9 370.4,352.6 370.5,353.4 370.4,354 370.5,354.4
		372.3,354.7 376.2,353.7 378,353.8 385,356 390.4,360.2 392.3,361.3 394,361.7 395.6,361.4 402.4,357.8 404.1,357.5 406,358.2
		409.6,360.9 411.5,361.4 413.4,360.5 416.7,358.6 417.7,357.5 422.4,351.2 424.6,349.4 431.8,346.2 432.4,346.2 433.6,346.7
		434.1,346.6 434.5,345.7 434.6,344.6 434.8,343.5 435.6,342.8 436.8,343.2 437.8,344.9 439.3,349.2 440.7,355.4 441.3,357.3
		441.9,358.4 443.8,360.4 444.4,361.4 445.4,364.7 447,367.8 449.1,369.3 468.7,372.7 472.6,372 475.4,373.3 476.4,373.6
		479.8,373.3 480.5,373.6 480.9,374.5 482,377.9 482.5,379 483.2,379.7 486.5,382 492.4,388.7 500.7,394.3 504.2,398.3 509.8,403.2
		511.3,405.4 512.6,408.5 515.6,413.9 519.2,416.6 527,420.5 530.3,421.7 533.5,422 534.7,419.8 536.1,419 537.6,419.2 540.6,420.4
		541.9,420.3 546.4,418 547.6,416.6 550.8,410.6 554.1,406.6 555.5,405.8 562.8,404.9 565.1,405.2 566.3,405.9 569.9,408.9
		571.4,409.8 572.6,409.3 575.2,406.7 576.4,405.4 577.8,407 579.6,408.1 581.4,408.6 588.5,409.3 590.1,409.1 590.6,407.5
		591.1,405.4 591.5,400.6 593.1,396.1 598.7,392.4 600.6,389.1 600.8,386.7 602.6,384.8 606.4,381.8 607.2,380.5 607.7,379.3
		608.2,378.1 609.1,377.2 609.8,376.8 612.1,376.3 614.6,375.1 617.1,373.3 619.5,372.4 621.6,373.9 622.8,371.9 623.3,369.6
		623.7,367.2 624.2,364.7 624.6,363.7 625,363 625.4,362.2 625.5,360.7 625.3,359.7 	"/>
</g>

</svg>
