<?xml version="1.0" encoding="utf-8"?>

<svg version="1.2" baseProfile="tiny" xmlns="http://www.w3.org/2000/svg" xmlns:xlink="http://www.w3.org/1999/xlink" x="0px"
	 y="0px" viewBox="225.8 129.5 388.4 334.9" xml:space="preserve">

<g id="Libya">
	<g>
		<polygon fill="#239E46" points="341.9,384.5 345,387 346.1,387.9 346.4,388.1 346.8,388.1 348.4,387.3 352.6,385.2 356.7,383
			358.8,382 338.9,382 		"/>
		<polygon fill="#239E46" points="419.2,382.4 422.2,383.9 425.2,385.3 428.2,386.8 431.3,388.3 434.3,389.8 437.3,391.3
			440.3,392.8 443.4,394.3 446.4,395.8 449.4,397.3 452.4,398.8 455.4,400.3 458.5,401.8 461.5,403.3 464.5,404.7 467.5,406.2
			470.6,407.7 473.6,409.2 476.6,410.7 479.6,412.2 482.7,413.7 485.7,415.2 488.7,416.7 491.7,418.2 494.7,419.7 497.8,421.2
			500.8,422.7 503.8,424.2 506.8,425.6 509.9,427.1 512.9,428.6 515.9,430.1 518.9,431.6 521.9,433.1 525,434.6 528,436.1
			531,437.6 534,439.1 537.1,440.6 540.1,442.1 543.1,443.6 546.1,445 549.2,446.5 552.2,448 555.2,449.5 558.2,451 561.2,452.5
			564.3,454 567.3,455.5 570.3,457 573.3,458.5 576.4,460 579.4,461.5 582.4,463 585.4,464.5 585.4,461.4 585.4,458.3 585.4,455.3
			585.4,452.2 589.4,452.2 591.5,452.2 594.2,452.2 597.5,452.2 600.5,452.2 603.5,452.2 607.1,452.3 609.6,452.3 609.6,452.2
			609.7,452.2 609.7,452.2 609.8,452.2 609.8,452.2 609.8,452.1 609.9,452.1 609.9,452.1 609.9,449.2 609.9,446.9 609.9,444.5
			609.9,442.2 609.9,439.9 609.9,436.8 609.9,433.8 609.9,430.7 609.9,427.7 609.9,424.6 609.9,421.6 609.9,418.5 609.9,415.5
			609.9,412.4 609.9,409.4 609.9,406.3 609.9,403.3 609.9,396.2 609.9,389 609.9,382 418.4,382 		"/>
		<path d="M232.2,212.2l2.9,4.7l3.9,11.7l0.5,3.7l0.1,4.6l-1.8,12.7l0.3,1.4l3.6,8.4l0,1l-1.7,5.1l-0.4,0.5l-0.7,0.3l-0.6,0.4
			l0.1,0.5l0.4,0.5l0.2,0.5l-0.2,0.5l-1.1,1l-0.3,0.5l-0.3,1.4l-0.4,1l-0.1,0.4l0,0.4l2.1,6.5l0.5,2.6l0.2,0.5l0.3,0.2l1.1,0.5
			l0.4,0.3l0.1,0.4l-0.6,2.6l-0.1,0.8l0.3,0.7l0.1,0.5l-1,3.1l-0.5,0.5l-8.6,3.7l0,0.5l-0.1,0.4l-0.2,0.4l-0.8,0.7l-0.4,1l-0.3,0.4
			l-0.6,1.2l0.6,1.4l3.4,4.3l3.7,4.7l3,3.8l3.7,4.7l0.9,1.6l0.3,1.6l0.1,3.2l0.1,3.5l0.1,3.4l0.3,0.7l3.6,1.9l0.5,0.7l0.4,2.3
			l0.3,0.9l0.4,0.5l3.2,2.4l0.5,0.2l1-0.1l2.9-1l2.7-0.9l0.5-0.1l0.5,0.1l4.7,1.4l5.8,1.8l8.8,2.7l0.8,0.4l0.6,0.8l1.7,3.2l1.8,3.3
			l2.8,5.2l1.7,3.2l1.9,3.5l2.2,0.5l2.2,0.5l2.2,0.5l2.2,0.5l2.2,0.5l2.2,0.5l2.2,0.5l2.2,0.5l2.2,0.5l2.2,0.5l2.2,0.5l2.2,0.5
			l2.2,0.5l2.2,0.5l2.2,0.5l2.2,0.5l2.5,0.6l2.9,1.5l1.4,1.1l3.1,2.5l3.1,2.5l0,0h19.9l2.1-1.1l4.2-2.1l0,0l0,0l0,0l0.4-0.2l1.4-0.6
			l1.4-0.6l1.4-0.6l1.4-0.6l1.4-0.6l1.4-0.6l1.4-0.6l1.4-0.6l1.4-0.6l1.4-0.6l1.4-0.6l1.4-0.6l1.4-0.6l1.4-0.6l1.4-0.6l1.4-0.6
			l1.1-0.5l0.5-0.1l2.2,1.1l3,1.5l3,1.5l3,1.5l3,1.5l3,1.5l3,1.5l3,1.5l3,1.5l2.3,1.1h191.5v-0.1v-7.1v-7.1v-7.1v-7.1v-7.1V339v-7.1
			v-7.1v-7.1v-7.1v-7.1v-7.1V289v-4.8v-6.8v-8.3v-3.7v-9.6v-11.6v-9.8v-4.1v-3l-0.2-1.4l-0.4-1.3l-2-4.3l-0.2-0.8l-0.1-0.9l0.2-1.8
			l0-0.6l-0.4-1l-1.3-1.8l-0.2-1l0.1-0.4H232.1L232.2,212.2z M462.5,266.9l13.5,18.6l21.8-7.1L484.4,297l13.5,18.6l-21.8-7.1
			l-13.5,18.6v-23l-21.8-7.1l21.8-7.1V266.9z M390,266.9c16.6-16.6,43.5-16.6,60.1,0c0,0,0,0,0,0v0c0,0,0,0,0,0
			c-16.6-11.8-39.7-8-51.5,8.6c-11.8,16.6-8,39.7,8.6,51.5c12.8,9.2,30.1,9.2,42.9,0c-16.6,16.6-43.5,16.6-60.1,0
			C373.4,310.4,373.4,283.5,390,266.9z"/>
		<polygon fill="#E70013" points="613.4,165.3 613.2,164.9 611.9,163.2 611.1,162.4 610.9,162 611,161.5 611.2,160.5 610.8,159.7
			609.9,159.2 607.1,158.7 606.1,158.4 605.3,158.3 604.8,158 604.4,158 604.2,157.8 604.1,157.7 603.9,157.6 603.7,157.7
			603.5,157.8 603.3,157.8 602.3,157.7 602,157.8 601.5,158.1 599.3,158.7 592.8,158.3 588.1,158.3 587.6,158.2 586,157.2
			585.4,156.9 585.2,156.8 585.3,156.6 585.9,156.2 582,154.8 577.8,154 574.4,154 571.3,153.8 571.2,153.7 570.5,153.2
			570.3,153.1 569.2,153.1 568.7,153 569,154.1 569.1,154.5 568.8,154.3 568.6,153.7 568.4,153.5 568.1,153.3 567.7,153.2
			567.4,153.1 567.1,152.3 566.7,151.8 566.2,151.3 565.8,151.1 565.3,151 563.8,150.5 563.4,150.3 563.4,149.8 563.7,147.8
			564,148 564.1,148.2 564.2,148.4 564.1,148.6 564.6,148.8 564.9,147.2 565.1,146.8 564.6,146.5 564.2,146.2 564,145.8
			563.7,144.3 563.8,144.1 564.2,143.7 564.4,143.4 564.3,143.1 564,142.8 563.5,142.6 562.4,142.5 561.4,142 560.9,141.9
			560,141.9 559.7,141.9 558.9,141.6 558.6,141.6 558.2,141.5 556.8,140.7 551.1,139.3 550,139.2 549.5,139.1 549.1,138.9
			548.6,138.7 546.2,137.2 545.3,136.9 543,136.9 542,136.7 541.2,136 541.1,135.8 541.1,135.6 541.1,135.5 540.9,135.3
			540.6,135.3 540.4,135.3 539.8,135.3 539.7,135.4 539.4,135.8 539.3,135.9 534,136.4 532.9,136.3 531.8,136 530.7,135.7
			530,135.2 528.9,135.5 527.7,135.5 527.4,135.7 523.6,138.6 522.6,139 520.6,139.5 519.5,139.6 514.8,139.3 513.7,139.6
			510.9,140.8 507.5,142.7 501.8,144.8 498.2,147.2 497.9,147.5 497.4,147.8 496.5,148.2 496,148.4 494.8,149.6 494.4,150.1
			489.8,154.1 489.2,154.9 487,158.9 486.7,159.2 486.5,159.5 486.6,159.8 486.7,160 486.7,160.3 486.4,161.2 486,163.2 486,164.3
			486.1,165.4 486.2,165.8 486.6,166.7 486.7,167.1 486.8,168.2 486.9,169.2 488.6,173.2 488.9,173.7 490,174.7 490.5,175.4
			491.1,177 491.6,177.6 491.7,180.8 491.6,181.8 490.4,184.5 488.9,187.4 488.5,187.7 487.6,188.3 487,189.1 485.9,190.7
			481.9,194.9 478.6,197.1 478.1,197.3 477,197.5 476.5,197.7 473.8,199.2 471.8,200.1 470.7,200.4 469.4,200.7 467.1,200.9
			464.9,200.9 462.7,200.6 461.7,200.2 458.2,198.2 457.7,198 456.7,197.8 455,197.1 454.3,196.5 453,195.2 447,191.3 444.8,189.1
			444.2,188.6 443.4,188.2 439.5,186.9 437.3,186.5 436.8,186.3 436.4,185.9 435.7,185 435.4,184.8 433.6,184.5 431.5,183.9
			429.6,183.1 426,182.2 425.8,182.1 425.5,182 424.8,181.4 423.9,181 423.8,180.9 423.5,180.8 422.7,180.8 418.5,180 413.2,178.4
			407.9,177.5 398.9,177.4 391.2,176.2 384.3,173.4 382.5,172.2 380.9,170.8 378.2,167.5 377.6,166.7 374.7,160.2 374.5,159.3
			374.3,157.5 374.4,156 374.7,155.1 374.7,154.6 374.6,154.2 373.5,153 373,152.1 372.8,151.6 372.6,150.7 372.2,150.4 371.3,150
			370.4,148.9 370.1,148.8 369.6,148.7 368.5,148.4 363.5,147.6 359,147.4 358.5,147.3 357.4,146.8 357,146.5 356.6,146.3
			352.7,145.8 352.2,145.6 351.1,144.6 348.9,143 347.6,142.3 346.7,141.5 346.3,141.4 346.1,141.3 345.7,141 345.5,140.9
			341,140.2 339.1,139.5 337,139 336,138.9 331.8,139 330.7,138.8 325.8,136.6 325.6,136.4 325.3,136.3 323,136 321.3,136
			320.7,136.1 320.3,136.3 319.5,136.9 318.5,137.3 312.4,138.8 310.1,138.9 300.7,138.1 299.7,137.8 297.7,137 296.2,136.1
			295.2,135.9 294.2,135 288.5,132 285.8,131.2 284.7,130.7 285.1,131.1 286.7,131.5 287.2,132 286.3,131.7 283.3,131.3 282.5,131
			282.1,130.7 281.8,130.1 281.5,129.9 280.6,129.7 280.1,129.5 280.1,130.6 279.4,133 279.4,133.3 279.3,134.7 278.9,136.4
			279.1,138.9 278.7,141.5 278.7,142.8 279.2,143.8 280.9,145.1 281.5,146 281.5,147.1 281.1,147.8 280.3,148.5 278.6,149.4
			264.6,155.1 264,155.7 263,157.7 262.2,158.3 261.3,158.8 260.5,159.4 260,159.5 259.5,159.3 259.1,159.1 258.6,159.1
			258.1,159.6 257.9,161.5 257.6,162.4 256.5,163.2 256.1,164 255.8,164.4 255.5,164.7 255.1,165 253.7,165.4 251,165.4
			249.7,166.3 248.1,168.8 246.5,170.3 246.1,170.8 245.9,172.4 245.9,172.8 247.7,177 248.5,179.6 249.3,181 249.3,181.5
			249.2,182.4 249.3,183.3 249.9,185 249.9,185.8 249.5,186.8 248,189.5 245.7,191.7 243.2,195.3 240.1,198.7 239.5,199
			237.7,199.1 237,199.3 231.5,201.8 225.8,204.5 226.4,205.3 229.1,208.2 232.1,212 605.5,212 605.8,211.1 605.9,210.6
			605.7,210.1 603.6,205.5 603,204.4 602.7,203.9 602.7,202.9 603.1,202.1 604.1,200.5 604.6,199.6 604.8,199.3 605.4,198.6
			606.2,197.9 607.6,196 608.1,195.2 608.3,194.4 608.4,193.9 609.2,192.2 609.4,190.8 609.7,189.9 610.1,189 610.2,188.2
			609.9,187.2 608.8,185.2 608.5,184 607.7,182.5 607.5,182 606.9,179.4 606.9,177.3 606.7,175.3 606.7,174.4 607,173.6
			610.9,170.8 611.8,168.7 612.5,167.9 614.1,166.9 614.1,166.8 614.2,166.7 613.7,166 		"/>
		<polygon fill="#FFFFFF" points="462.5,304.1 462.5,327.1 476,308.5 497.9,315.6 484.4,297 497.9,278.4 476,285.5 462.5,266.9
			462.5,289.9 440.7,297 		"/>
		<path fill="#FFFFFF" d="M450.1,327.1c-12.8,9.2-30.1,9.2-42.9,0c-16.6-11.8-20.5-34.9-8.6-51.5c11.8-16.6,34.9-20.5,51.5-8.6
			c-16.6-16.6-43.5-16.6-60.1,0c-16.6,16.6-16.6,43.5,0,60.1C406.5,343.6,433.5,343.7,450.1,327.1z"/>
		<polygon fill="#FFFFFF" points="450.1,266.9 450.1,266.9 450.1,266.9 		"/>
	</g>
	<path fill="none" stroke="#999999" stroke-width="0.25" stroke-linecap="round" stroke-linejoin="round" d="M286.3,131.7l0.9,0.3
		l-0.5-0.5l-1.6-0.4l-0.4-0.5l1.2,0.6l2.6,0.7l5.7,3.1l1,0.9l0.9,0.2l1.6,0.9l1.9,0.8l1.1,0.3l9.3,0.8l2.3-0.1l6.1-1.5l1-0.4
		l0.8-0.5l0.4-0.2l0.6-0.1l1.7-0.1l2.3,0.4l0.3,0.1l0.3,0.2l4.8,2.2l1.1,0.2l4.2-0.2l1.1,0.1l2.1,0.5l1.9,0.7l4.5,0.7l0.2,0.1
		l0.4,0.3l0.1,0.1l0.4,0.2l0.9,0.8l1.3,0.7l2.1,1.6l1.1,1l0.5,0.2l4,0.6l0.4,0.2l0.4,0.3l1.1,0.5l0.5,0.1l4.5,0.2l5,0.8l1.1,0.3
		l0.5,0.1l0.3,0.1l0.9,1l0.9,0.4l0.3,0.3l0.2,0.9l0.2,0.5l0.5,0.9l1,1.2l0.1,0.4l0,0.5l-0.2,0.9l-0.1,1.6l0.1,1.8l0.2,0.9l2.9,6.5
		l0.6,0.9l2.7,3.2l1.6,1.5l1.8,1.2l6.9,2.8l7.7,1.2l9,0.1l5.2,1l5.3,1.6l4.2,0.8l0.9,0l0.2,0.1l0.2,0.1l0.9,0.4l0.7,0.6l0.3,0.1
		l0.2,0.1l3.6,0.9l1.9,0.8l2.1,0.6l1.8,0.3l0.3,0.2l0.7,0.9l0.4,0.4l0.5,0.2l2.2,0.4l3.9,1.3l0.8,0.4l0.7,0.5l2.2,2.2l6,3.8l1.3,1.3
		l0.7,0.6l1.6,0.8l1,0.2l0.5,0.2l3.6,2l1,0.4l2.2,0.3l2.2,0l2.3-0.2l1.3-0.3l1.1-0.3l2-0.8l2.7-1.6l0.5-0.2l1.1-0.2l0.5-0.2l3.2-2.2
		l4-4.2l1.1-1.6l0.6-0.7l0.9-0.6l0.4-0.4l1.5-2.8l1.1-2.7l0.1-1l-0.1-3.1l-0.5-0.6l-0.6-1.6l-0.5-0.7l-1.1-1l-0.4-0.5l-1.7-4l-0.1-1
		l0-1.1l-0.1-0.4l-0.4-0.9l-0.2-0.5l-0.1-1l0.1-1.1l0.4-2l0.3-0.9l-0.1-0.2l-0.1-0.3l0-0.3l0.1-0.2l0.3-0.4l2.2-4l0.6-0.7l4.7-4
		l0.4-0.5l1.2-1.2l0.5-0.2l1-0.4l0.4-0.3l0.3-0.3l3.6-2.4l5.7-2.1l3.4-1.9l2.9-1.2l1.1-0.2l4.7,0.2l1.1-0.1l2-0.5l1-0.5l3.8-2.9
		l0.4-0.1l1.2-0.1l1.1-0.3l0.7,0.5l1.1,0.4l1.2,0.2l1,0.1l5.4-0.5l0.1-0.1l0.3-0.4l0.1-0.1l0.5-0.1l0.3,0l0.3,0.1l0.2,0.1l0,0.1v0.2
		l0.1,0.2l0.8,0.7l1,0.2l2.3,0l1,0.3l2.4,1.5l0.5,0.2l0.4,0.2l0.5,0.1l1.1,0.1l5.7,1.5l1.3,0.7l0.4,0.1l0.3,0l0.8,0.3l0.3,0l0.8,0
		l0.6,0.2l1,0.4l1.1,0.1l0.5,0.2l0.3,0.3l0.1,0.3l-0.1,0.3l-0.4,0.4l-0.1,0.2l0.2,1.5l0.2,0.4l0.4,0.3l0.5,0.3l-0.2,0.5l-0.3,1.5
		l-0.5-0.2l0.1-0.2l-0.1-0.2L564,148l-0.2-0.2l-0.4,2l0,0.5l0.4,0.3l1.5,0.5l0.5,0.1l0.4,0.2l0.5,0.5l0.4,0.5l0.3,0.7l0.3,0.2
		l0.4,0.1l0.3,0.1l0.2,0.3l0.2,0.5l0.2,0.2l0-0.4l-0.3-1.1l0.5,0.2l1.1,0l0.2,0.1l0.7,0.5l0.2,0.1l3.1,0.2l3.4,0l4.2,0.8l3.9,1.4
		l-0.6,0.5l-0.1,0.2l0.2,0.1l0.6,0.2l1.5,1l0.6,0.1l4.7,0l6.5,0.4l2.2-0.6l0.5-0.3l0.3-0.1l1,0.2l0.2,0l0.2-0.1l0.2,0l0.2,0.1
		l0.1,0.1l0.3,0.2l0.3,0.1l0.5,0.2l0.8,0.1l1,0.3l2.9,0.5l0.9,0.5l0.4,0.8l-0.2,1l-0.1,0.5l0.2,0.4l0.8,0.8l1.3,1.6l0.1,0.4l0.4,0.7
		l0.5,0.7l-0.1,0.1l0,0.1l-1.5,1l-0.7,0.8l-0.9,2.1l-4,2.8l-0.3,0.8l0,0.9l0.2,2.1l0,2l0.6,2.6l0.2,0.5l0.9,1.5l0.3,1.2l1.1,2l0.3,1
		l-0.2,0.8l-0.4,0.8l-0.3,1l-0.3,1.3l-0.7,1.7l-0.1,0.5l-0.2,0.8l-0.5,0.8l-1.4,1.9l-0.7,0.7l-0.7,0.7l-0.2,0.3l-0.4,0.8l-1,1.6
		l-0.4,0.9l0,0.9l0.2,0.5l0.7,1.1l2.1,4.6l0.1,0.6l0,0.5l-0.4,1.3l0.2,1l1.3,1.8l0.4,1l0,0.6l-0.2,1.8l0.1,0.9l0.2,0.8l2,4.3
		l0.4,1.3l0.2,1.4v3v4.1v9.8v11.6v9.6v3.7v8.3v6.8v4.8v7.1v7.1v7.1v7.1v7.1v7.1v7.1v7.1v7.1v7.1v7.1v7.1v7.1v7.1v7.1v7.1v3l0,3.1v3
		v3v3l0,3v3v3v3.1l0,3v3v3l0,2.3l0,2.3v2.3v2.3v2.9l0,0l0,0l0,0l0,0l-0.1,0l-0.1,0l-0.1,0l-0.1,0h-2.5l-3.6,0h-3l-3,0l-3.3,0h-2.8
		l-2.1,0h-3.9v3.1v3.1v3.1v3.1l-3-1.5l-3-1.5l-3-1.5l-3-1.5l-3-1.5l-3-1.5l-3-1.5l-3-1.5l-3-1.5l-3-1.5l-3-1.5l-3-1.5l-3-1.5l-3-1.5
		l-3-1.5l-3-1.5l-3-1.5l-3-1.5l-3-1.5l-3-1.5l-3-1.5l-3-1.5l-3-1.5l-3-1.5l-3-1.5l-3-1.5l-3-1.5l-3-1.5l-3-1.5l-3-1.5l-3-1.5l-3-1.5
		l-3-1.5l-3-1.5l-3-1.5l-3-1.5l-3-1.5l-3-1.5l-3-1.5l-3-1.5l-3-1.5l-3-1.5l-3-1.5l-3-1.5l-3-1.5l-3-1.5l-3-1.5l-3-1.5l-3-1.5l-3-1.5
		l-3-1.5l-3-1.5l-3-1.5l-3-1.5l-3-1.5l-3-1.5l-3-1.5l-3-1.5l-3-1.5l-3-1.5l-3-1.5l-3-1.5l-3-1.5l-3-1.5l-2.2-1.1l-0.5,0.1l-1.1,0.5
		l-1.4,0.6l-1.4,0.6l-1.4,0.6l-1.4,0.6l-1.4,0.6l-1.4,0.6l-1.4,0.6l-1.4,0.6l-1.4,0.6l-1.4,0.6l-1.4,0.6l-1.4,0.6l-1.4,0.6l-1.4,0.6
		L367,378l-1.4,0.6l-0.4,0.2l0,0l0,0l0,0l-4.2,2.1l-4.2,2.1l-4.2,2.1l-4.2,2.1l-1.5,0.8l-0.4,0l-0.4-0.2L345,387l-3.1-2.5l-3.1-2.5
		l-3.1-2.5l-3.1-2.5l-1.4-1.1l-2.9-1.5l-2.5-0.6l-2.2-0.5l-2.2-0.5l-2.2-0.5l-2.2-0.5l-2.2-0.5l-2.2-0.5l-2.2-0.5l-2.2-0.5l-2.2-0.5
		l-2.2-0.5l-2.2-0.5l-2.2-0.5l-2.2-0.5l-2.2-0.5l-2.2-0.5l-2.2-0.5l-1.9-3.5l-1.7-3.2l-2.8-5.2l-1.8-3.3l-1.7-3.2L281,347l-0.8-0.4
		l-8.8-2.7l-5.8-1.8l-4.7-1.4l-0.5-0.1l-0.5,0.1l-2.7,0.9l-2.9,1l-1,0.1l-0.5-0.2l-3.2-2.4l-0.4-0.5l-0.3-0.9l-0.4-2.3l-0.5-0.7
		l-3.6-1.9l-0.3-0.7l-0.1-3.4l-0.1-3.5l-0.1-3.2l-0.3-1.6l-0.9-1.6l-3.7-4.7l-3-3.8l-3.7-4.7l-3.4-4.3l-0.6-1.4l0.6-1.2l0.3-0.4
		l0.4-1l0.8-0.7l0.2-0.4l0.1-0.4l0-0.5l8.6-3.7l0.5-0.5l1-3.1l-0.1-0.5l-0.3-0.7l0.1-0.8l0.6-2.6l-0.1-0.4l-0.4-0.3l-1.1-0.5
		l-0.3-0.2l-0.2-0.5l-0.5-2.6l-2.1-6.5l0-0.4l0.1-0.4l0.4-1l0.3-1.4l0.3-0.5l1.1-1l0.2-0.5l-0.2-0.5l-0.4-0.5l-0.1-0.5l0.6-0.4
		l0.7-0.3l0.4-0.5l1.7-5.1l0-1l-3.6-8.4l-0.3-1.4l1.8-12.7l-0.1-4.6l-0.5-3.7l-3.9-11.7l-2.9-4.7l-3.1-4.1l-2.7-2.8l-0.6-0.8
		l5.7-2.7l5.5-2.5l0.7-0.2l1.8-0.1l0.6-0.3l3-3.4l2.6-3.6l2.2-2.2l1.5-2.7l0.4-1l0-0.8l-0.6-1.7l-0.1-0.9l0.1-0.9l0-0.5l-0.8-1.4
		l-0.7-2.6l-1.8-4.2l0-0.4l0.3-1.6l0.4-0.6l1.6-1.5l1.7-2.5l1.3-0.9l2.7,0l1.3-0.5l0.4-0.3l0.4-0.3l0.3-0.4l0.4-0.8l1-0.8l0.3-0.8
		l0.2-2l0.6-0.5l0.5,0.1l0.4,0.2l0.4,0.2l0.5-0.1l0.8-0.6l0.9-0.5l0.8-0.7l1-1.9l0.7-0.6l14-5.7l1.7-1l0.8-0.6l0.4-0.8l-0.1-1
		l-0.6-0.9l-1.6-1.4l-0.5-0.9l0-1.3l0.4-2.6l-0.2-2.5l0.4-1.7l0-1.4l0.1-0.4l0.7-2.3l0-1.1l0.5,0.1l0.8,0.3l0.4,0.2l0.3,0.6l0.4,0.3
		l0.8,0.3L286.3,131.7L286.3,131.7z"/>
</g>

</svg>
