<?xml version="1.0" encoding="utf-8"?>

<svg version="1.2" baseProfile="tiny" xmlns="http://www.w3.org/2000/svg" xmlns:xlink="http://www.w3.org/1999/xlink" x="0px"
	 y="0px" viewBox="279.9 147 280.1 300" xml:space="preserve">

<g id="Morocco">
	<g>
		<path fill="#C1272D" d="M554.9,214.7l-1.1-0.4l-0.6-0.5l-2.4-3.9l0.7-0.5l0.1-0.1l0.1-0.2l0.1-0.2l0-0.2l0.1-0.5l0-0.5l-0.1-0.4
			l-0.3-0.3l-0.5-0.4l-0.5-0.4l-0.4-0.5l-0.2-0.7l-0.3-0.6l-0.9-0.9l-0.2-0.7l0-2l0.2-0.5l0.2-0.5l0.3-1.2l0.3-0.4l0.2-0.6l-0.1-0.7
			l-0.8-1.9l-0.2-0.2l-0.3-0.2l-0.6-0.2l-0.3-0.2l-0.1-0.3l0.1-0.3l0.2-0.2l0.2-0.2l0.2-0.2l0.1-0.3l0-0.2l-0.2-0.6l-0.2-1l0.1-1
			l0.8-3.4l0-0.4l-0.1-0.6l-1.2-3.9l-0.4-0.9l-0.7-0.8l1.9-2.3l-0.2-0.1l-0.6-0.2l-2.1-2.2l0.1-0.4l0.9-1.4l0.4-1l0.2-0.2l0.1-0.2
			l-0.3-0.3l-1.8-1.2l-0.6-0.6l-0.9-0.6l-0.2-0.3l-0.1-0.3l0-0.3l-0.1-0.2l-0.2-0.2l-0.8-0.1l-0.6-0.4l-0.5-0.5l-0.6-0.5l-0.5-0.2
			l-0.3-0.4l-0.2-0.6l0-0.8l-0.5-0.2l-0.5-0.3l-0.4-0.1l-0.4-0.1l-1.7-0.6l-0.4,0.1l-0.3,0.3l-0.4,0.4l-0.3,0.2l-0.4,0.1l-0.8,0.1
			l-1.8-0.3l-0.9-0.3l-0.7-0.4l-0.8-0.9l-0.1-0.2l-0.8-0.9l-0.2-0.2l-0.1,0.2l0.3,0.4l1.3,1.5l0.8,0.6l-1.3-0.1l-0.6-0.2l-0.4-0.3
			l-0.3-0.3l-0.1-0.3l-0.1-0.3l-0.1-0.7l0-0.4l0.1-0.3l0.2-0.2l-0.2-0.4l-0.5,0.2l-0.4-0.4l-0.1-0.6l0.3-0.3l0-0.1l-0.2-0.8l0.2-0.6
			l-0.1-0.3l0.1-0.4l-0.1-0.2l-0.2-0.1l-0.2,0.1l-0.1,0.2l0,0.2l-0.4,0.7L525,160l-0.6,0.6l-0.2,0l-0.2-0.1l-0.2-0.1l-0.1,0
			l-0.2,0.1l-0.8,0.8l-0.4,0.2l-2.2,0.8l-0.7,0.2l-0.9-0.1l-0.2-0.1l-0.3-0.2l-0.2-0.1l-0.2,0l-0.2,0l-0.2,0l-0.5-0.3l-1.3-0.2
			l-0.4-0.3l-0.7-0.7l-0.3-0.2l-0.5-0.1l-0.5,0.2l-0.4,0.4l-0.1,0.6l-0.2,0.4l-0.4,0.2l-0.9,0.1l-0.5,0l-0.2-0.1l-0.2-0.2l-0.1-0.2
			l-0.2-0.5l-0.2-0.2l-0.7,0.3l-1.5,0.3l-1.5,0.7l-2.4,0.4l-1,0.6l-0.4,0.1l-0.5,0l-2.1-0.6l-2.3-0.5l-2.5-0.8l-0.7-0.4l-1-0.9
			l-0.8-0.3l-0.3-0.3l-0.5-0.7l-0.6-0.5l-0.3-0.2l-0.3-0.1L490,158l-0.3-0.2l-1.5-2.1l-0.6-0.6l-0.7-0.5l-0.4-0.3l-0.2-0.4l-0.3-1.1
			l0-0.1l0-0.3l0-0.1l-0.1,0l-0.3,0l-0.1,0l-0.1-0.2l-0.1-0.2l-0.1-0.3l-0.1-0.9l-0.3-1.1l-0.1-0.5l0.1-0.3l-0.4-0.4l-0.3-0.4
			l-0.2-0.4L484,147l-0.9,0.1l-0.4,0.2l-0.3,0.3l-0.6,0.7l-0.3,0.3l-1,0.6l-0.3-0.2l-0.4-0.1l-0.4,0L479,149l-0.2-0.1l-0.3,0.1
			l-0.3,0.2l-0.2,0.2l-0.5,0.5l-0.2,0l-1.6-0.2l-0.6,0.1l-0.3,0.4l-0.2,0.3l-0.1,0.5l-0.1,1l-0.1,0.2l-0.2,0.3l-0.1,0.2l0,0.2
			l-0.4,1.2l-0.4,0.8l-0.1,0.3l0,0.5l-0.1,0.4l-3.2,8l-1.5,5.2l-3.8,7.9l-0.4,0.6l-0.3,0.8l-0.2,0.4l-1.9,2.9l-1.1,2.5l-1.5,2.6
			l-1.8,2l-1.8,1.5l-0.6,0.2l-0.6,0.5l-0.3,0.1l-0.6,0.1l-0.7,0.3l-0.6,0.3l-0.7,0.6l-1.5,1l-0.4,0.1l-0.3-0.1l0.1-0.2l-0.3,0.1
			l-0.5,0.6l-0.5,0.2l-0.6,0.8l-0.2,0.2l-0.3,0.2l-0.4,0.1l-0.5,0.1l-0.3,0.2l-0.2,0.1l-0.2,0l-0.2-0.1l-0.2,0l-0.2,0.1l-0.3-0.1
			l-0.3,0.3l-0.3,0.4l-0.3,0.2l-0.3,0.1l-0.7,0.4l-1.2,0.4l-0.4,0.2l-0.4,0.5l-0.4,0.2l-0.8,0.2l-2.5,1.1l-2.4,0.5l-0.7,0.3
			l-0.6,0.5l-1,1.3l-0.6,0.5l-0.6,0.3l-0.3,0.1l-0.4,0l-0.1,0l-0.2-0.2l-0.1,0l-0.1,0.1l-1.4,1.7l-0.2,0.3l0,0.4l0,0.3l-0.1,0.2
			l-2.2,2.4l-2,2.7l-0.6,0.6l-1.7,1.2l-2,2.4l-2.6,2.2l-0.3,0.6l0,0.3l0.1,0.3l0.2,0.3l0.2,0.2l0.1,0.3l0,0.4l-0.1,0.4l-0.5,0.9
			l-0.1,0.3l0,0.4l0.1,0.1l0.3,0.2l0.1,0.1l-0.1,2.1l-0.1,0.6l-0.2,0.6l-0.6,0.8l-0.1,0.3l0,0.3l-0.2,0.8l-0.1,0.3l-0.2,0.4
			l-2.1,2.1l-0.1,0.1l-0.2,0.4l-0.1,0.2l-0.1,0.2l-0.3,0.2l-0.1,0.1l-0.7,1l-1.6,1.7l-0.1,0.3l-0.2,1.6l-0.1,0.2l-0.2,0.3l-0.1,0.2
			l-0.2,0.3l-0.1,0.4l-0.1,0.1l-0.3,0.3l-0.2,0.3l-0.4,1.2l-0.4,0.7l-0.5,0.7l0.2,0.3l0.2,0.2l0.2,0.3l0.1,0.5l0,1.2l-0.5,2.9
			l-0.2,0.5l0.3,0.7l0.1,0.4l0.1,4l0,0.2l0,0.1l0,0.1l0.1,0.2l0.1,0.2l0,0.2l-0.1,0.5l-0.3,0.7l-0.5,0.7l-0.4,0.8l0,0.8l0.3,0.3
			l0.4,0.1l0.4,0l1.2,0.8l0.3,0.5l0.2,0.2l0.2,0.1l0.2,0l0.1,0.1l0.1,0.7l0.4,1l0.2,0.3l0.3,0.3l0.3,0.2l0.2,0.3l0.1,0.5l0,0.4
			l-0.3,1.3l-0.3,2.6l-0.2,0.7l-1.1,2.6l-1.8,3.2l-2.3,2.5l-0.7,1l-0.1,0.3l-0.1,0.2l-0.8,0.8l-0.2,0.3l-0.2,0.4l-0.1,0.4l0,0.4
			l-0.1,0.2l-0.7,1.1l-0.2,0.4l-0.1,0.1l-0.5,0.3l7.7,0L420,246l11.5,35.3h16.9l0.9-0.8l1.3-1.6l0.3-0.2l2.8-1.6l0.6-0.1l2.1,0.5
			l2.2,0l2.9,0.8l1.4,0.1l1.2-0.9l0.2-0.4l0.2-0.4l0.1-0.4l0-0.5l0.2-0.7l0-0.3l-0.1-0.8l0.1-0.3l0.2-0.2l0.3-0.1l0.3,0.1l0.6,0.4
			l0.3,0.1l1-0.2l0.3,0l1,0.3l0.4,0l0.4-0.1l0.2-0.2l0.2-0.2l0.3-0.3l0.7-0.3l0.7,0.1l0.7,0.2l0.7,0.1l4.4-1l3.4-0.4l1-0.5l0.5-0.4
			l1.8-0.9l1.1-0.9l3-3.3l0.9-1.2l1.2-2.7l1-1.8l0.3-0.4l0.4-0.2l6.1-2.3l1-0.1l1.2-0.3l2.1-1.3l1.8-0.8l0.5-0.4l2.5-2.7l0.6-0.3
			l2.8-0.5l1.7,0l1-0.1l0.9-0.4l0.5-0.7l0.1-0.3l0-0.4l0-0.4l-0.1-0.4l-0.2-0.4l-0.2-0.2l-0.6-0.3l-0.3-0.3l-0.5-0.8l-0.2-0.3
			l-0.3-0.1l-0.3,0.1l-0.5,0.5l-0.3,0.1l-0.3,0l-0.2-0.2l-0.1-0.4l0.1-0.4l0.4-0.6l0-0.5l-0.1-1.5l0.1-0.4l0.2-0.3l1-0.7l0-0.1
			l-0.1-0.3l-0.1-0.2l-0.2-0.1l-0.8-0.3l-0.4-0.3l-0.3-0.4l-0.1-0.6l0.1-0.8l0.1-2.5l0.3-0.7l0.6-0.3l0.7-0.1l0.7,0l0.7,0.1l1.4,0.5
			l0.7,0.2l0.6-0.1l1.7-0.9c2.3-0.8,4.6-1.5,6.9-2.3l0.6-0.6l0.3-0.9l0.1-1.9l0.4-1.1l1-0.6l3.2-0.3l3.1-0.9c0.6,0,1.2,0.1,1.7,0.1
			c6.8,0.3,13.6,0.6,20.3,1l0.7-0.2l0.3-0.7l-0.1-0.4l-0.3-0.3l-0.4-0.1l-0.3,0l-0.6,0.3l-0.3,0l-0.1-0.3l0.1-0.1l0.3-0.2l0.1-0.1
			l0.1-0.2l0-0.2l0-0.2l0.3-2.1l0.2-0.7l0.2-0.4l0.3-0.4l0.3-0.1l0.7-0.1l0.6-0.3l0.6-0.4l1-1.1l-0.3-0.5L554.9,214.7z"/>
		<polygon fill="#C1272D" points="413.9,288.8 410.2,300.3 420,307.5 426.7,302.6 426.7,296.1 426.8,295.6 427,295.2 427.3,294.9
			427.9,294.6 426.1,288.8 		"/>
		<polygon fill="#C1272D" points="426.4,312.1 426.7,312.4 426.7,311.8 426.4,312.1 		"/>
		<polygon fill="#C1272D" points="404.2,319 413.7,312.1 407.8,307.8 		"/>
		<path fill="#C1272D" d="M390,338.6l11.4-35.4l-13.8-10l-2.1,1.1l-0.3,0.2l-0.5,0.5l-0.4,0.6l-0.1,0.1l-0.6,0.5l-0.1,0.1l-0.1,0.3
			l-0.1,0.2l-0.7,0.4l-0.1,0.3l-0.8,1l-1,0.7l-0.2,0.3l-0.1,0.4l-0.3,0.3l-0.3,0.3l-0.3,0.3l-0.7,1.2l-0.4,0.5l-0.6,0.4l-9.1,4
			l-0.3,0.1l-0.1,0.1l-0.4,0.4l-0.2,0.1l-4.8,0.8l-3.1,1l-2.5-0.1l-3.2,0.5l-1.6,0.6l-0.3,0.2l-0.3,0.3l-0.2,0.4l-0.4,1.4l-0.7,1.2
			l-0.3,0.3l-0.6,0.2l-0.6,0.5l-0.5,0.3l-0.2,0.2l-0.1,0.4l0,0.1h0l0,0.4l-0.3,0.8l-0.1,0.4l0,0.4l-0.6,2l-0.9,2.2l-0.2,0.1l0,0.1
			l0.1,0.2l0,0.1l-1.4,2.1l-0.3,0.7l-0.5,2.5l-0.5,1.1l-0.3,1.6l-0.4,1l-1,2.1l-1,1.2l-2.1,1.4l-3.2,2.3l-1.8,0.9l-0.3,0.2l-1.9,0.2
			l-0.4,0.2l-0.2,0.3l-0.2,0.3l-0.2,0.3l-1.4,1.4l-0.9,0.5L327,343l-0.2,0.1l-1,1.3l-0.1,0.2l-0.2,0.6l-0.1,0.2l0,0.2l0.2,0.6
			l0.1,0.3l-0.2,1.1l0.1,0.3l-0.1,0.3l-0.3,0.9l0,0.4l-0.1,0.3l-0.5,0.9l-1.3,1.8l-0.7,1.8l-0.1,0.6l-0.2,0.3l0,0.1l-0.1,0.9
			l-0.5,1.3l-0.1,0.2l-0.2,0.2l-0.8,1.1l-0.5,1.9l-0.1,0.3l-0.5,2.2l0.1,0.5l0,1.7l0,0.3l0.2,0.4l0,0.3l0,0.3l0,0.3l-0.1,0.3
			l-0.1,0.3l0.1,0.1l-0.1,0.3l0,0.3l0.1,0.3l0,0.3l-0.1,0.3l-0.2,0.5l-0.2,0.9l-0.4,1.1l-0.2,1.2l-0.2,0.4l-0.3,0.3l-0.4,0.2
			l-0.4,0.3l-0.4,0.5l-0.3,0.6l0,0.4l-0.6,0.5l-0.4,0.2l-0.8,0.1l-0.4,0.1l-0.4,0.2l-0.3,0.2l-0.6,0.5l-0.4,0.5l-1.2,1.8l-1,1
			l-1.6,1.3l-0.1,0.2l-0.1,0.3l-0.3,0.3l-0.7,0.5l-0.5,0.7l-0.7,0.8l-0.3,0.4l-0.4,0.4l-0.5,0.3l-0.6,0.1l-0.2,0.2l-0.8,0.5
			l-0.6,0.2l-1.3,1.1l-0.3,0.3l-0.3,0.3l-0.1,0.3l-1.1,1.5l-0.6,1.2l-0.1,0.3l-0.4,0.5l-0.1,0.3l0.3,0.2l0.8-0.7l0.1-0.2l0-0.2
			l0.2-0.4l0-0.2l0-0.1l0.2-0.4l0.3-0.6l0.1-0.2l0.2-0.2l0.3-0.2l0.2,0l0.2,0l0.2,0l0.2-0.1l0.4-0.3l0.1-0.1l0-0.3l0-0.3l0-0.2
			l0.2-0.2l-0.1,0.2l-0.1,0.1l0.2,0.4l0.1,0.4l0,0.8l-0.1,0.5l-0.2,0.4l-0.3,0.4l-0.3,0.4l-0.1,0.2l-0.1,0.4l-0.1,0.2l-0.1,0.1
			l-0.3,0.2l-0.1,0.1l-0.8,1l-0.6,1.1l-0.3,0.4l-0.2,0.3l-0.2,1.3l-0.8,1.3l-0.2,0.2l-0.2,0.1l-0.2,0.2l-1.3,3l-0.1,0.1l-0.8,0.8
			l-0.2,0.2l-0.3,0.6l-0.1,0.4l0.7-0.2l0.3,0.1l0.1,0.4l0,0.4l-0.1,0.4l-0.1,0.4l-0.2,0.4l-0.6,0.7L295,407l-0.4,0.1l-0.4,0
			l-0.1,0.1l0,0.1l-0.2,0.3l0,0.1l0,0.2l0,0.1l0.1,0.2l0,0.2l-0.3,0.5l-0.1,0.3l-0.2,0.7l-0.1,0.4l-0.1,1.6l-0.2,1.2l-0.2,0.3
			l-0.9,0.9l-0.2,0.2l0,0.3L291,417l-0.3,0.5l-0.3,0.4l-0.3,0.3l-1.9,0.8l-0.2-0.2l-0.1-0.1l-0.2-0.1l-0.2,0l-0.1,0.1l-0.1,0.1
			l-0.4,0.2l-0.2,0.3l-0.3,0.6l-0.1,0.1l-0.3,0.2l-0.1,0.1l-0.2,0.4l0,0.1l-0.1,0.2l-0.6,0.7l-1.8,3.7l-0.2,0.4l-0.1,0.8l-0.3,0.8
			l-0.1,0.6l-0.1,0.3l0.1,0.1l0.2,0.2l0.1,0.1l0,0.2l0,0.2l-0.1,0.2l-0.3,0.5l0,0.4l0.1,0.7l-0.1,0.8l-0.7,2.7l0,0.5l0,0l0,0.8
			l0,0.3l-0.2,0.7l-0.7,5.5l-0.3,1l-0.1,0.3v0.9l0,0.3L280,445l-0.1,0.3l0.1,0.5l0.6,0.8l0.2,0.5l-0.4-2l0.1-0.6l0.4-1.7l0.1-0.6
			l0.7-2.1l0.3-1.8l0.3-1.6l0.2-0.2h28.1l6,0h31.4l0.7,0h2.6l-0.2-3l-0.6-9.3l-0.6-9.4l-0.2-1.2l-0.8-2.4l-0.2-1.2l0.2-1.3l0.6-1.2
			l1.5-2.1l0.3-0.4l1.7-1.2l2.2-1.5l1.9-1.3l1.1-0.8l1.1-0.4l2.9-0.4l0.6-0.2l3.8-1.8l1.8-0.5l0.2-0.3l0.1-0.6v-47.7h57.7l0.3-0.1
			l0.1-0.2V346l0-1.2v-1.5l0-1.8l0-2l0-2.1v-2.2l0-2.2l0-2.2l0-2l0-1.8l0-1.5v-3.8l-6.7-4.9C411.7,322.7,397.7,332.9,390,338.6z"/>
		<polygon fill="#C1272D" points="416.4,281.3 423.6,281.3 420,270.2 		"/>
		<polygon fill="#C1272D" points="434.2,289.7 434.3,289.6 435.4,288.8 433.9,288.8 		"/>
		<polygon fill="#C1272D" points="406.1,288.8 394.7,288.8 394.6,289 403.9,295.7 		"/>
		<path fill="#006233" d="M420,246l-11.4,35.3l-7.7,0l-0.2,0.1l-0.1,0.2l-0.1,0.4l-0.2,0.4l-0.4,0.6l-0.4,0.7l-0.3,0.3l-0.7,0.2
			l-0.3,0.3l-0.5,0.6l-1.8,2.7l-1.2,1.2l11.4,0l-2.2,6.9l-9.3-6.8l-0.8,0.7l-0.7,0.5l-1.4,0.7l-1.2,0.8l-2.9,1.5l13.8,10L390,338.6
			c7.7-5.7,21.7-15.8,30-21.8l6.7,4.9v-5.7h0v-3.5l-0.4-0.3v0l0.4-0.3v-9.3l-6.7,4.9l-9.8-7.1l3.7-11.5h12.1l1.9,5.8l1.6-0.9
			l0.8-0.6l0.8-0.4l0.2-0.2l0.6-1.1l0.3-0.2l0.6-0.3l0.3-0.2l1.1-1l-0.3-0.9h1.5l0,0l2-0.9l0.6-0.4l1.6-1.5l1.8-1.2l1.1-1l0.8-0.4
			l0.3-0.2l1.1-1.1l0.6-0.3l0.8,0l0.8,0.1l0.4,0l0.4,0l0.4-0.1l0.4-0.4h-16.9L420,246z M413.7,312.1l-9.5,6.9l3.6-11.2L413.7,312.1z
			 M416.4,281.3l3.6-11.2l3.6,11.1L416.4,281.3z"/>
	</g>
	<path fill="none" stroke="#999999" stroke-width="0.25" stroke-linecap="round" stroke-linejoin="round" d="M559.8,218.5l-4.9-3.7
		l-1.1-0.4l-0.6-0.5l-2.4-3.9l0.7-0.5l0.1-0.1l0.1-0.2l0.1-0.2l0-0.2l0.1-0.5l0-0.5l-0.1-0.4l-0.3-0.3l-0.5-0.4l-0.5-0.4l-0.4-0.5
		l-0.2-0.7l-0.3-0.6l-0.9-0.9l-0.2-0.7l0-2l0.2-0.5l0.2-0.5l0.3-1.2l0.3-0.4l0.2-0.6l-0.1-0.7l-0.8-1.9l-0.2-0.2l-0.3-0.2l-0.6-0.2
		l-0.3-0.2l-0.1-0.3l0.1-0.3l0.2-0.2l0.2-0.2l0.2-0.2l0.1-0.3l0-0.2l-0.2-0.6l-0.2-1l0.1-1l0.8-3.4l0-0.4l-0.1-0.6l-1.2-3.9
		l-0.4-0.9l-0.7-0.8l1.9-2.3l-0.2-0.1l-0.6-0.2l-2.1-2.2l0.1-0.4l0.9-1.4l0.4-1l0.2-0.2l0.1-0.2l-0.3-0.3l-1.8-1.2l-0.6-0.6
		l-0.9-0.6l-0.2-0.3l-0.1-0.3l0-0.3l-0.1-0.2l-0.2-0.2l-0.8-0.1l-0.6-0.4l-0.5-0.5l-0.6-0.5l-0.5-0.2l-0.3-0.4l-0.2-0.6l0-0.8
		l-0.5-0.2l-0.5-0.3l-0.4-0.1l-0.4-0.1l-1.7-0.6l-0.4,0.1l-0.3,0.3l-0.4,0.4l-0.3,0.2l-0.4,0.1l-0.8,0.1l-1.8-0.3l-0.9-0.3l-0.7-0.4
		l-0.8-0.9l-0.1-0.2l-0.8-0.9l-0.2-0.2l-0.1,0.2l0.3,0.4l1.3,1.5l0.8,0.6l-1.3-0.1l-0.6-0.2l-0.4-0.3l-0.3-0.3l-0.1-0.3l-0.1-0.3
		l-0.1-0.7l0-0.4l0.1-0.3l0.2-0.2l-0.2-0.4l-0.5,0.2l-0.4-0.4l-0.1-0.6l0.3-0.3l0-0.1l-0.2-0.8l0.2-0.6l-0.1-0.3l0.1-0.4l-0.1-0.2
		l-0.2-0.1l-0.2,0.1l-0.1,0.2l0,0.2l-0.4,0.7L525,160l-0.6,0.6l-0.2,0l-0.2-0.1l-0.2-0.1l-0.1,0l-0.2,0.1l-0.8,0.8l-0.4,0.2
		l-2.2,0.8l-0.7,0.2l-0.9-0.1l-0.2-0.1l-0.3-0.2l-0.2-0.1l-0.2,0l-0.2,0l-0.2,0l-0.5-0.3l-1.3-0.2l-0.4-0.3l-0.7-0.7l-0.3-0.2
		l-0.5-0.1l-0.5,0.2l-0.4,0.4l-0.1,0.6l-0.2,0.4l-0.4,0.2l-0.9,0.1l-0.5,0l-0.2-0.1l-0.2-0.2l-0.1-0.2l-0.2-0.5l-0.2-0.2l-0.7,0.3
		l-1.5,0.3l-1.5,0.7l-2.4,0.4l-1,0.6l-0.4,0.1l-0.5,0l-2.1-0.6l-2.3-0.5l-2.5-0.8l-0.7-0.4l-1-0.9l-0.8-0.3l-0.3-0.3l-0.5-0.7
		l-0.6-0.5l-0.3-0.2l-0.3-0.1L490,158l-0.3-0.2l-1.5-2.1l-0.6-0.6l-0.7-0.5l-0.4-0.3l-0.2-0.4l-0.3-1.1l0-0.1l0-0.3l0-0.1l-0.1,0
		l-0.3,0l-0.1,0l-0.1-0.2l-0.1-0.2l-0.1-0.3l-0.1-0.9l-0.3-1.1l-0.1-0.5l0.1-0.3l-0.4-0.4l-0.3-0.4l-0.2-0.4L484,147l-0.9,0.1
		l-0.4,0.2l-0.3,0.3l-0.6,0.7l-0.3,0.3l-1,0.6l-0.3-0.2l-0.4-0.1l-0.4,0L479,149l-0.2-0.1l-0.3,0.1l-0.3,0.2l-0.2,0.2l-0.5,0.5
		l-0.2,0l-1.6-0.2l-0.6,0.1l-0.3,0.4l-0.2,0.3l-0.1,0.5l-0.1,1l-0.1,0.2l-0.2,0.3l-0.1,0.2l0,0.2l-0.4,1.2l-0.4,0.8l-0.1,0.3l0,0.5
		l-0.1,0.4l-3.2,8l-1.5,5.2l-3.8,7.9l-0.4,0.6l-0.3,0.8l-0.2,0.4l-1.9,2.9l-1.1,2.5l-1.5,2.6l-1.8,2l-1.8,1.5l-0.6,0.2l-0.6,0.5
		l-0.3,0.1l-0.6,0.1l-0.7,0.3l-0.6,0.3l-0.7,0.6l-1.5,1l-0.4,0.1l-0.3-0.1l0.1-0.2l-0.3,0.1l-0.5,0.6l-0.5,0.2l-0.6,0.8l-0.2,0.2
		l-0.3,0.2l-0.4,0.1l-0.5,0.1l-0.3,0.2l-0.2,0.1l-0.2,0l-0.2-0.1l-0.2,0l-0.2,0.1l-0.3-0.1l-0.3,0.3l-0.3,0.4l-0.3,0.2l-0.3,0.1
		l-0.7,0.4l-1.2,0.4l-0.4,0.2l-0.4,0.5l-0.4,0.2l-0.8,0.2l-2.5,1.1l-2.4,0.5l-0.7,0.3l-0.6,0.5l-1,1.3l-0.6,0.5l-0.6,0.3l-0.3,0.1
		l-0.4,0l-0.1,0l-0.2-0.2l-0.1,0l-0.1,0.1l-1.4,1.7l-0.2,0.3l0,0.4l0,0.3l-0.1,0.2l-2.2,2.4l-2,2.7l-0.6,0.6l-1.7,1.2l-2,2.4
		l-2.6,2.2l-0.3,0.6l0,0.3l0.1,0.3l0.2,0.3l0.2,0.2l0.1,0.3l0,0.4l-0.1,0.4l-0.5,0.9l-0.1,0.3l0,0.4l0.1,0.1l0.3,0.2l0.1,0.1
		l-0.1,2.1l-0.1,0.6l-0.2,0.6l-0.6,0.8l-0.1,0.3l0,0.3l-0.2,0.8l-0.1,0.3l-0.2,0.4l-2.1,2.1l-0.1,0.1l-0.2,0.4l-0.1,0.2l-0.1,0.2
		l-0.3,0.2l-0.1,0.1l-0.7,1l-1.6,1.7l-0.1,0.3l-0.2,1.6l-0.1,0.2l-0.2,0.3l-0.1,0.2l-0.2,0.3l-0.1,0.4l-0.1,0.1l-0.3,0.3l-0.2,0.3
		l-0.4,1.2l-0.4,0.7l-0.5,0.7l0.2,0.3l0.2,0.2l0.2,0.3l0.1,0.5l0,1.2l-0.5,2.9l-0.2,0.5l0.3,0.7l0.1,0.4l0.1,4l0,0.2l0,0.1l0,0.1
		l0.1,0.2l0.1,0.2l0,0.2l-0.1,0.5l-0.3,0.7l-0.5,0.7l-0.4,0.8l0,0.8l0.3,0.3l0.4,0.1l0.4,0l1.2,0.8l0.3,0.5l0.2,0.2l0.2,0.1l0.2,0
		l0.1,0.1l0.1,0.7l0.4,1l0.2,0.3l0.3,0.3l0.3,0.2l0.2,0.3l0.1,0.5l0,0.4l-0.3,1.3l-0.3,2.6l-0.2,0.7l-1.1,2.6l-1.8,3.2l-2.3,2.5
		l-0.7,1l-0.1,0.3l-0.1,0.2l-0.8,0.8l-0.2,0.3l-0.2,0.4l-0.1,0.4l0,0.4l-0.1,0.2l-0.7,1.1l-0.2,0.4l-0.1,0.1l-0.6,0.5l-0.1,0.2
		l-0.1,0.4l-0.2,0.4l-0.4,0.6l-0.4,0.7l-0.3,0.3l-0.7,0.2l-0.3,0.3l-0.5,0.6l-1.8,2.7l-2.1,2l-0.7,0.4l-1.4,0.7l-1.2,0.8l-5,2.5
		l-0.3,0.2l-0.5,0.5l-0.4,0.6l-0.1,0.1l-0.6,0.5l-0.1,0.1l-0.1,0.3l-0.1,0.2l-0.7,0.4l-0.1,0.3l-0.8,1l-1,0.7l-0.2,0.3l-0.1,0.4
		l-0.3,0.3l-0.3,0.3l-0.3,0.3l-0.7,1.2l-0.4,0.5l-0.6,0.4l-9.1,4l-0.3,0.1l-0.1,0.1l-0.4,0.4l-0.2,0.1l-4.8,0.8l-3.1,1l-2.5-0.1
		l-3.2,0.5l-1.6,0.6l-0.3,0.2l-0.3,0.3l-0.2,0.4l-0.4,1.4l-0.7,1.2l-0.3,0.3l-0.6,0.2l-0.6,0.5l-0.5,0.3l-0.2,0.2l-0.1,0.4l0,0.1h0
		l0,0.4l-0.3,0.8l-0.1,0.4l0,0.4l-0.6,2l-0.9,2.2l-0.2,0.1l0,0.1l0.1,0.2l0,0.1l-1.4,2.1l-0.3,0.7l-0.5,2.5l-0.5,1.1l-0.3,1.6
		l-0.4,1l-1,2.1l-1,1.2l-2.1,1.4l-3.2,2.3l-1.8,0.9l-0.3,0.2l-1.9,0.2l-0.4,0.2l-0.2,0.3l-0.2,0.3l-0.2,0.3l-1.4,1.4l-0.9,0.5
		L327,343l-0.2,0.1l-1,1.3l-0.1,0.2l-0.2,0.6l-0.1,0.2l0,0.2l0.2,0.6l0.1,0.3l-0.2,1.1l0.1,0.3l-0.1,0.3l-0.3,0.9l0,0.4l-0.1,0.3
		l-0.5,0.9l-1.3,1.8l-0.7,1.8l-0.1,0.6l-0.2,0.3l0,0.1l-0.1,0.9l-0.5,1.3l-0.1,0.2l-0.2,0.2l-0.8,1.1l-0.5,1.9l-0.1,0.3l-0.5,2.2
		l0.1,0.5l0,1.7l0,0.3l0.2,0.4l0,0.3l0,0.3l0,0.3l-0.1,0.3l-0.1,0.3l0.1,0.1l-0.1,0.3l0,0.3l0.1,0.3l0,0.3l-0.1,0.3l-0.2,0.5
		l-0.2,0.9l-0.4,1.1l-0.2,1.2l-0.2,0.4l-0.3,0.3l-0.4,0.2l-0.4,0.3l-0.4,0.5l-0.3,0.6l0,0.4l-0.6,0.5l-0.4,0.2l-0.8,0.1l-0.4,0.1
		l-0.4,0.2l-0.3,0.2l-0.6,0.5l-0.4,0.5l-1.2,1.8l-1,1l-1.6,1.3l-0.1,0.2l-0.1,0.3l-0.3,0.3l-0.7,0.5l-0.5,0.7l-0.7,0.8l-0.3,0.4
		l-0.4,0.4l-0.5,0.3l-0.6,0.1l-0.2,0.2l-0.8,0.5l-0.6,0.2l-1.3,1.1l-0.3,0.3l-0.3,0.3l-0.1,0.3l-1.1,1.5l-0.6,1.2l-0.1,0.3l-0.4,0.5
		l-0.1,0.3l0.3,0.2l0.8-0.7l0.1-0.2l0-0.2l0.2-0.4l0-0.2l0-0.1l0.2-0.4l0.3-0.6l0.1-0.2l0.2-0.2l0.3-0.2l0.2,0l0.2,0l0.2,0l0.2-0.1
		l0.4-0.3l0.1-0.1l0-0.3l0-0.3l0-0.2l0.2-0.2l-0.1,0.2l-0.1,0.1l0.2,0.4l0.1,0.4l0,0.8l-0.1,0.5l-0.2,0.4l-0.3,0.4l-0.3,0.4
		l-0.1,0.2l-0.1,0.4l-0.1,0.2l-0.1,0.1l-0.3,0.2l-0.1,0.1l-0.8,1l-0.6,1.1l-0.3,0.4l-0.2,0.3l-0.2,1.3l-0.8,1.3l-0.2,0.2l-0.2,0.1
		l-0.2,0.2l-1.3,3l-0.1,0.1l-0.8,0.8l-0.2,0.2l-0.3,0.6l-0.1,0.4l0.7-0.2l0.3,0.1l0.1,0.4l0,0.4l-0.1,0.4l-0.1,0.4l-0.2,0.4
		l-0.6,0.7L295,407l-0.4,0.1l-0.4,0l-0.1,0.1l0,0.1l-0.2,0.3l0,0.1l0,0.2l0,0.1l0.1,0.2l0,0.2l-0.3,0.5l-0.1,0.3l-0.2,0.7l-0.1,0.4
		l-0.1,1.6l-0.2,1.2l-0.2,0.3l-0.9,0.9l-0.2,0.2l0,0.3L291,417l-0.3,0.5l-0.3,0.4l-0.3,0.3l-1.9,0.8l-0.2-0.2l-0.1-0.1l-0.2-0.1
		l-0.2,0l-0.1,0.1l-0.1,0.1l-0.4,0.2l-0.2,0.3l-0.3,0.6l-0.1,0.1l-0.3,0.2l-0.1,0.1l-0.2,0.4l0,0.1l-0.1,0.2l-0.6,0.7l-1.8,3.7
		l-0.2,0.4l-0.1,0.8l-0.3,0.8l-0.1,0.6l-0.1,0.3l0.1,0.1l0.2,0.2l0.1,0.1l0,0.2l0,0.2l-0.1,0.2l-0.3,0.5l0,0.4l0.1,0.7l-0.1,0.8
		l-0.7,2.7l0,0.5l0,0l0,0.8l0,0.3l-0.2,0.7l-0.7,5.5l-0.3,1l-0.1,0.3v0.9l0,0.3L280,445l-0.1,0.3l0.1,0.5l0.6,0.8l0.2,0.5l-0.4-2
		l0.1-0.6l0.4-1.7l0.1-0.6l0.7-2.1l0.3-1.8l0.3-1.6l0.2-0.2h28.1l6,0h31.4l0.7,0h2.6l-0.2-3l-0.6-9.3l-0.6-9.4l-0.2-1.2l-0.8-2.4
		l-0.2-1.2l0.2-1.3l0.6-1.2l1.5-2.1l0.3-0.4l1.7-1.2l2.2-1.5l1.9-1.3l1.1-0.8l1.1-0.4l2.9-0.4l0.6-0.2l3.8-1.8l1.8-0.5l0.2-0.3
		l0.1-0.6v-47.7h57.7l0.3-0.1l0.1-0.2V346l0-1.2v-1.5l0-1.8l0-2l0-2.1v-2.2l0-2.2l0-2.2l0-2l0-1.8l0-1.5v-9.6h0v-19.8l0.1-0.5
		l0.2-0.4l0.3-0.3l2.2-1.2l0.8-0.6l0.8-0.4l0.2-0.2l0.6-1.1l0.3-0.2l0.6-0.3l0.3-0.2l1.2-1.1l1.2-0.8l2-0.9l0.6-0.4l1.6-1.5l1.8-1.2
		l1.1-1l0.8-0.4l0.3-0.2l1.1-1.1l0.6-0.3l0.8,0l0.8,0.1l0.4,0l0.4,0l0.4-0.1l1.3-1.2l1.3-1.6l0.3-0.2l2.8-1.6l0.6-0.1l2.1,0.5l2.2,0
		l2.9,0.8l1.4,0.1l1.2-0.9l0.2-0.4l0.2-0.4l0.1-0.4l0-0.5l0.2-0.7l0-0.3l-0.1-0.8l0.1-0.3l0.2-0.2l0.3-0.1l0.3,0.1l0.6,0.4l0.3,0.1
		l1-0.2l0.3,0l1,0.3l0.4,0l0.4-0.1l0.2-0.2l0.2-0.2l0.3-0.3l0.7-0.3l0.7,0.1l0.7,0.2l0.7,0.1l4.4-1l3.4-0.4l1-0.5l0.5-0.4l1.8-0.9
		l1.1-0.9l3-3.3l0.9-1.2l1.2-2.7l1-1.8l0.3-0.4l0.4-0.2l6.1-2.3l1-0.1l1.2-0.3l2.1-1.3l1.8-0.8l0.5-0.4l2.5-2.7l0.6-0.3l2.8-0.5
		l1.7,0l1-0.1l0.9-0.4l0.5-0.7l0.1-0.3l0-0.4l0-0.4l-0.1-0.4l-0.2-0.4l-0.2-0.2l-0.6-0.3l-0.3-0.3l-0.5-0.8l-0.2-0.3l-0.3-0.1
		l-0.3,0.1l-0.5,0.5l-0.3,0.1l-0.3,0l-0.2-0.2l-0.1-0.4l0.1-0.4l0.4-0.6l0-0.5l-0.1-1.5l0.1-0.4l0.2-0.3l1-0.7l0-0.1l-0.1-0.3
		l-0.1-0.2l-0.2-0.1l-0.8-0.3l-0.4-0.3l-0.3-0.4l-0.1-0.6l0.1-0.8l0.1-2.5l0.3-0.7l0.6-0.3l0.7-0.1l0.7,0l0.7,0.1l1.4,0.5l0.7,0.2
		l0.6-0.1l1.7-0.9c2.3-0.8,4.6-1.5,6.9-2.3l0.6-0.6l0.3-0.9l0.1-1.9l0.4-1.1l1-0.6l3.2-0.3l3.1-0.9c0.6,0,1.2,0.1,1.7,0.1
		c6.8,0.3,13.6,0.6,20.3,1l0.7-0.2l0.3-0.7l-0.1-0.4l-0.3-0.3l-0.4-0.1l-0.3,0l-0.6,0.3l-0.3,0l-0.1-0.3l0.1-0.1l0.3-0.2l0.1-0.1
		l0.1-0.2l0-0.2l0-0.2l0.3-2.1l0.2-0.7l0.2-0.4l0.3-0.4l0.3-0.1l0.7-0.1l0.6-0.3l0.6-0.4l1-1.1L559.8,218.5z"/>
</g>

</svg>
