<?xml version="1.0" encoding="utf-8"?>

<svg version="1.2" baseProfile="tiny" xmlns="http://www.w3.org/2000/svg" xmlns:xlink="http://www.w3.org/1999/xlink" x="0px"
	 y="0px" viewBox="317.4 171.4 203.4 250" xml:space="preserve">

<g id="Monaco">
	<g>
		<polygon fill="#CE1126" points="519.8,190.6 518.9,188.5 514.9,190.9 514.2,187.4 516.2,178.2 512.7,173.2 509.7,172.9
			505.7,171.4 505,174.9 507,177.3 494.4,190 489.5,189.7 478.1,194.4 475.6,194.4 471.5,199 470.3,198.9 463.7,197.6 461.6,200.2
			460.3,205 457.1,207.5 451.3,218.2 448.5,220 447.1,232.1 445,237.9 444.1,243.3 440,248.5 436.5,251.1 434.2,256.2 430.1,261.7
			427.1,265.3 424.4,267.9 419.7,272.7 410.5,266.4 404.8,270.4 401.3,275.5 396.9,281.3 393.1,283.5 385.5,289.9 379.1,289
			378.4,290.5 383.1,292.1 377.8,297 458.2,297 464.9,269.8 467.4,261.1 467.9,259.2 473.2,248.2 474.5,235.2 475.6,231.4
			479.6,226.1 486.5,219.6 492.2,217.8 494.6,214.8 498.4,212.2 499.1,212.5 502.7,218.7 507.4,223.1 511.5,224.9 519.8,221.3
			520.8,218.1 515.7,193.9 		"/>
		<polygon fill="#FFFFFF" points="370.1,304.1 359.2,313.3 344.1,324.4 335.4,333 337.2,337.2 338.9,342.7 341.4,346 340.8,355.3
			338.7,356.2 335.2,356 332.3,356.6 325.5,360 317.4,375.3 320.7,377.8 337.6,389.7 348.4,397.8 359.8,406.9 368.3,413.6
			369.3,414.6 378.2,421.4 406.4,397.5 400.9,385.6 400.4,385.2 398.5,383 389.1,383.3 387.8,382.1 384.2,382.1 382.9,380.3
			382.5,373.8 381.9,372.3 376.9,371.5 376.7,370.9 381.5,365.9 381.9,365.6 384.4,365.6 387,366.4 389.4,369.4 393.4,374.1
			398.3,371.8 398.9,371.9 400,372.1 403.8,377.1 406,378.6 417.7,378.3 431.6,367.9 436.1,368.2 439.3,365.6 440.6,361.7
			443.6,358.5 444.6,353.7 446.5,346.3 445.5,340.4 442.9,338.1 431,341.3 430.7,341.5 411.7,346.6 408.8,342.2 406.6,335.1
			403.8,322.1 405.7,314.7 405.8,314.4 406.3,314.3 434.1,307.7 444.6,305.3 456.6,300.5 457.9,298.5 458.2,297 377.8,297 		"/>
	</g>
	<polygon fill="none" stroke="#999999" stroke-width="0.25" stroke-linecap="round" stroke-linejoin="round" points="515.7,193.9
		519.8,190.6 518.9,188.5 514.9,190.9 514.2,187.4 516.2,178.2 512.7,173.2 509.7,172.9 505.7,171.4 505,174.9 507,177.3 494.4,190
		489.5,189.7 478.1,194.4 475.6,194.4 471.5,199 470.3,198.9 463.7,197.6 461.6,200.2 460.3,205 457.1,207.5 451.3,218.2 448.5,220
		447.1,232.1 445,237.9 444.1,243.3 440,248.5 436.5,251.1 434.2,256.2 430.1,261.7 427.1,265.3 424.4,267.9 419.7,272.7
		410.5,266.4 404.8,270.4 401.3,275.5 396.9,281.3 393.1,283.5 385.5,289.9 379.1,289 378.4,290.5 383.1,292.1 370.1,304.1
		359.2,313.3 344.1,324.4 335.4,333 337.2,337.2 338.9,342.7 341.4,346 340.8,355.3 338.7,356.2 335.2,356 332.3,356.6 325.5,360
		317.4,375.3 320.7,377.8 337.6,389.7 348.4,397.8 359.8,406.9 368.3,413.6 369.3,414.6 378.2,421.4 406.4,397.5 400.9,385.6
		400.4,385.2 398.5,383 389.1,383.3 387.8,382.1 384.2,382.1 382.9,380.3 382.5,373.8 381.9,372.3 376.9,371.5 376.7,370.9
		381.5,365.9 381.9,365.6 384.4,365.6 387,366.4 389.4,369.4 393.4,374.1 398.3,371.8 398.9,371.9 400,372.1 403.8,377.1 406,378.6
		417.7,378.3 431.6,367.9 436.1,368.2 439.3,365.6 440.6,361.7 443.6,358.5 444.6,353.7 446.5,346.3 445.5,340.4 442.9,338.1
		431,341.3 430.7,341.5 411.7,346.6 408.8,342.2 406.6,335.1 403.8,322.1 405.7,314.7 405.8,314.4 406.3,314.3 434.1,307.7
		444.6,305.3 456.6,300.5 457.9,298.5 464.9,269.8 467.4,261.1 467.9,259.2 473.2,248.2 474.5,235.2 475.6,231.4 479.6,226.1
		486.5,219.6 492.2,217.8 494.6,214.8 498.4,212.2 499.1,212.5 502.7,218.7 507.4,223.1 511.5,224.9 519.8,221.3 520.8,218.1 	"/>
</g>

</svg>
