<?xml version="1.0" encoding="utf-8"?>

<svg version="1.2" baseProfile="tiny" xmlns="http://www.w3.org/2000/svg" xmlns:xlink="http://www.w3.org/1999/xlink" x="0px"
	 y="0px" viewBox="320.8 172 198.7 250" overflow="visible" xml:space="preserve">

<g id="Moldova">
	<g>
		<polygon fill="#CC092F" points="517.7,343.6 516.9,343.7 516.3,344.2 515.4,343.1 512.8,341 513.3,340.3 512.6,338.9 512.2,338.4
			511.8,338.1 511.4,338.1 510.7,338.5 510.4,338.6 510.1,338.5 509.9,337.7 509.8,337.5 507.3,336.4 506.5,335.4 506.3,333.6
			507.3,333.5 508.6,333.3 509.2,331.5 509.1,330.7 508.4,329 508.2,328.2 508.2,327.1 508.4,326.3 508.7,325.6 508.9,324.6
			509.4,319.5 509.3,318 509,317.4 508.4,316.2 508.2,315.6 508.1,314.8 508.1,313.1 508,312.5 507.3,312.1 506.7,312.4
			506.2,312.7 505.8,312.6 505.5,312.2 505.3,311.8 505.3,349.1 505.5,348.9 506.5,348.3 507.5,348.1 514.1,348.6 516.6,348.1
			518.1,346.7 519.4,344.2 518.7,343.7 		"/>
		<path fill="#FFD200" d="M460.3,334.5c-2.8-1.3-5-4.3-6.4-6.5c-0.1,0-0.2,0-0.2,0s0.7,1.2,0.4,1.9c-0.3,0.5-0.9,0.9-1.7,0.8
			c0.7,0.5,1.2,1,1.4,1.3c0.5,0.8,0.8,1.9,0.8,2.7c0,0.9-1,2.2-1,2.2c-0.1-0.4-0.3-0.6-0.3-0.6s-2.6,3.2-2.9,3.6
			c-0.3,0.3-1.6,0.5-2.1,0.1c-0.1-0.1-0.1-0.1-0.2-0.2c0,0.2,0,0.4,0,0.5c-0.1,0.3-0.4,0.5-0.7,0.5c0,0,0.9,0.6,0.9,1
			c0.1,0.4-4,2.9-4,2.9s-0.3-4.8,0-5c0.3-0.2,1.4,0.1,1.4,0.1c-0.2-0.3-0.1-0.6,0-0.9c0.1-0.2,0.3-0.4,0.8-0.5c0,0,0,0,0,0h0h0
			c0.1,0,0.3,0,0.4,0c-0.6-0.5-1.2-1.1-1.8-2c-0.5-0.8-0.6-1.7-1.2-2.5c-2-2.8-6.1-8.2-7-9.4c-0.1,0.3-0.1,0.6-0.2,1
			c-0.8-1.7-4.2-4.6-5.6-5.7c-1.5,0.7-2.9,1.3-4.2,1.9c-0.5,0.2-1,0.4-1.4,0.6c1.5,3.4,10.4,22.5,18.4,25.6c0,0-3.8,1.6-8.5,4
			c-0.7,0.4-1.4,0.7-2.1,1.1c-0.6-0.7-1.2-1.5-1.8-2.3c-2.8-3.7-5.5-8.1-5.5-8.1c-0.2,1.1,1.3,4.6,3.8,8.9c0.5,0.8,1,1.7,1.6,2.6
			c-0.6,0.4-1.3,0.7-1.9,1.1c-4.6,2.8-9,6-10.6,8.9c-1.6-2.9-5.7-6-10.2-8.7l-0.1,0.1l-0.5,0.3l-0.6,0.2l-0.6,0.3l-0.2,0.6l0.2,1.3
			l-0.1,0.4l-0.6,0.1l-0.6,0.3l0.1,0.7l1,1.7l0.4,0.5l0.4,0.6l0.2,0.7l-0.6,1.9l-0.4,2l-1.5,4.3l-0.4,0.3l-0.1,0.4v0.4l0.4,0.2v0.4
			l-0.7,2.8l-0.1,0.8l0.2,1.1l1.4,4l0.1,0.9l0.1,0.5l0.4,0.6l0.2,0.6l-0.1,0.6l-0.2,0.6l-0.1,0.6l0.1,0.6l0.5,1.1l0.1,0.3l-0.1,0.4
			l-0.8,0.6l-0.3,0.4l0.1,2.3l0.9,2.5l1,1.9l0.5,0.8l0.5,8.1l-0.1,1.3l0.4,1.1l-0.9,0.4h-1.8l-0.7,0.3l-0.9,0.7l-0.9,0.9l-0.7,0.9
			l3.1,1.6l1.3,1l0.9,1.7l0.2,0.5l0.1,0.1l0.1,0.2v2.7l0.4,0.9l1.5,1.8l-0.2-0.6l0.4-1l0.5-0.9l3-2.3l4.1,0.3l4.3,1.1l3.6,0.1
			l1.2-0.6l0.3-0.9l-0.4-2.7l-0.1-0.1v-0.2l0.4-0.7l0.4-0.3l1.5-0.7l-0.8-1.1l-0.2-1.1l-0.1-1.1l-0.4-1.1l-0.7-0.8l-0.9-0.5
			l-0.5-0.6l0.4-0.9l1.3-2l0.6-0.6l1-0.6l1.6-0.5l0.4-0.6l-0.4-1.5l0.9-1.5l3.8-0.4l1.5-0.9l0.2-0.8l-0.1-0.9l-0.1-0.7v-0.5l0.4-0.4
			l1.6-0.4l1.1-0.6l0.7-0.7l0.4-1.1l0.1-1.6l-0.2-1.3l-0.8-2.8v-1.3l0.6-1.2l1-0.6l9.9-2.6l1.4-0.6l0.1-1.6l-1-3.6l-0.1-2l0.4-1.3
			l1.9-2.2l1.3-2.2l0.6-1.9l-0.3-1.8l-3.3-3.1l-1-1.3v-1.1l0.4-1.2l0.4-1.5l-0.1-1.3l-1-3.9l-0.4-3l0.3-2.3l1.1-1.8l4.2-2.8l3.1-1.1
			l2.3-1.3c-0.7-1.1-1.3-2.1-1.6-2.8V334.5z"/>
		<path fill="#FFD200" d="M505,310.7l-0.3-0.6l-1.6-1.3l-1.6-0.2l-1.6,0.1l-1.8-0.3l-1.1-0.8l-1.3-2.1l-0.9-0.9l-0.9-0.4l-1.8-0.1
			l-0.9-0.4l-0.5-0.4l-0.9-1l-0.5-0.3l-1.4,0.1l-0.4-0.1l-0.5-0.9l0.1-1.1l0.4-1.2l0.4-3.1l0.6-0.9l0.7-0.8l0.4-1.1l-0.1-1.3
			l-0.4-1.1l-0.6-0.9l-0.8-0.5l-1.1,0.1l-0.6,0.9l-0.5,1.1l-0.6,0.5l-0.5-0.5l-1.7-3.3l-0.1-0.3v-0.6l0.1-0.2l1.6-0.1l1.2-0.4l0.8-1
			l0.3-2.1l-0.6-4.3l0.2-1.8l1.4-0.7l0.6-1.4l-0.1-1.9l-0.5-1.9L487,270l-0.9-0.9l-1.1-0.4l-1.1-0.1l-1.1,0.1l-0.6,1.3l-0.3,1.3
			l-0.4,1.1l-1.2,0.9l-0.9,0.3l-0.9-0.1l-0.9-0.4l-0.8-0.7l-0.8-1.3l-0.1-1.2v-1.2l-0.3-1.3l-0.7-1.1l-0.9-0.4l-0.8-0.2l-0.8-0.5
			l-0.5-0.9l-0.3-1l-0.4-0.9l-1.7-1.1l-1-1.8l-0.9-0.4l-0.7,0.3c0,9.3-0.1,24-0.1,38.8c0.4-0.7,0.7-1.4,1-2c0.2-0.5-0.1-1.2,0.1-1.6
			c0.1-0.2,0.7-0.4,0.7-0.4s-0.4-0.7-0.4-1.2c0-0.5,1-0.3,1.4-2.8c0.3-1.8-0.3-3.9,0.1-4.2c0.5-0.3,3.6,0,3.6,0s-0.4-0.7-0.2-1.3
			c0.3-0.5,0.9-0.7,0.9-0.7l-0.4-0.8l3.2-2.4v0v0v0h0l0,0v4l-0.8,0.1c0,0,0.2,0.6-0.1,1.1c-0.3,0.5-1.1,0.6-1.1,0.6s2,2.3,2.1,2.9
			c0,0.5-2,1.3-3.3,2.6c-1.8,1.8-1,2.5-1.4,2.8c-0.4,0.3-1.2,0.4-1.2,0.4s0.2,0.6,0.1,0.8c-0.2,0.4-1,0.5-1.2,1
			c-0.8,1.7-1.9,3.8-3,5.8c0,12.9,0,25.4,0.1,33.7l0.1,0.7l0,2.8c0.2,1,0.6,2,0.6,2c-0.2-0.1-0.4-0.2-0.6-0.4l0,2.5l-0.1,1l-0.4,0.8
			l-0.5,0.8l-0.4,0.8v0.9l1,0.8l1.3-0.8l2.1-2.3l0.7-0.2l0.4,0.1l0.3-0.1l0.4-1.1v-0.7l-0.3-1.6l0.2-1l1-1.7l0.8,0.3l1.3,2.8l1,1.5
			h0.7l2.5-3.8l1.1-1.2l1.2-0.6l1.3,0.2l0.3,0.5l0.1,0.6l-0.1,0.6l-0.3,0.6l-0.4,0.6l-0.1,0.6l0.1,0.6l0.4,0.6l0.9,0.4l1.6,0.2
			l0.8,0.3l0.9,0.7l0.8,1.8l0.8,1.1l0.9,0.5l1,0.1l0.9-0.4l0.8-0.8l0.4-1.3l-0.3-2l0.4-0.5h1.6l1.1-0.4l0.6-1.2V340l0.7,1.3l3,2.8
			l1.2,1.8l0.3,0.7l0.1,0.8v1.6l0.1,0.6l1.1,1.3l1.1-0.1l1.9-1.7v-37.3L505,310.7z"/>
		<path fill="#FFD200" d="M382.1,236.1c4.3,2.5,8.9,8.2,10.6,8.6c0,1.5-0.6,3-0.6,4.6v3c4,0.2,5.7,2,9,3.9c1.9,1.1,4.6,1.9,5.2,2.1
			c1.3-0.9,2.4-2,3.1-3.2c2.1-3.4,2.6-7.7,2.6-12c0-6.6-3-8.2-6-9.3v3.7c0,0.8,0.5,1.5,1.2,1.7c-1,0.1-1.9,1.5-2.1,2.2
			c-0.2-0.7-1.1-2.1-2.1-2.2c0.7-0.2,1.2-0.9,1.2-1.7v-2.8v-6.6v-0.8h-0.8h-1.3c-0.8,0-1.5,0.5-1.7,1.3c-0.4-0.5-0.6-1.3-0.6-2.2
			c0-0.9,0.2-1.7,0.6-2.2c0.2,0.7,0.9,1.3,1.7,1.3h1.3h0.8v-2.1c0-0.8-0.5-1.5-1.3-1.7c0.5-0.4,1.3-0.6,2.2-0.6v0
			c0.9,0,1.7,0.2,2.2,0.6c-0.7,0.2-1.3,0.9-1.3,1.7v2.1h0.8h1.3c0.8,0,1.5-0.5,1.7-1.3c0.4,0.5,0.6,1.3,0.6,2.2
			c0,0.9-0.2,1.7-0.6,2.2c-0.2-0.7-0.9-1.3-1.7-1.3h-1.3H406v0.8v2.1c0.5-0.5,1.3-0.8,2.3-0.8c0.5,0,1.7,0,2.3-0.6
			c0.3-0.2,0.2-0.9,1-1.5c0.9-0.6,2.4-0.6,3.4-0.6h0h0v0c1.4,0,3.9,0.1,7.3,1.7c1.8,0.9,3.8,1.7,5.4,2.2c0.7,0.2,1.4,0.4,2,0.5
			c-0.5,0.1-1.2,0.3-1.7,0.6c-0.2,0.1-0.4,0.3-0.5,0.5c0,0,2,1.2,2.4,2.3c-1.4,0-1.8,0.5-1.8,0.5c1,0.5,1,3.7,1,3.7
			s-1.1-1.1-1.7-1.2c0,0,0.2,1.1,0.2,3c0,1.2-1.7,3-1.7,4.5c0,3.6,0.8,7.2,2.6,10.1c0.8,1.2,1.8,2.2,3.1,3.2c0.5-0.2,3.3-1,5.2-2.1
			c3.3-1.9,5.1-3.7,9-3.9v-3c0-1.6-0.6-3.1-0.6-4.6c1.7-0.4,6.3-6.1,10.6-8.6c4.3,2.8,7.9,6.7,9.8,10l0.1-0.2l0.6-3.1l-0.1-3
			l0.3-2.6l1.7-2.2l0.6-1.1l-0.2-0.9l-0.7-0.6l-1.9-0.7l-0.6-0.6v-0.9l0.5-1.5l0.7-0.9l1.1-1.1l0.9-1.2l0.2-1.1l-0.6-0.4l-2.2-0.7
			l-0.8-0.6l-0.4-1.2l-0.5-2.9l-0.4-1.3l-0.6-1.1l-0.7-0.6l-0.8-0.3h-1l-1.8,0.9l-2.5,3.3l-2.1,0.4l-1.7-0.7l-2-1.6l-1.8-2l-1.5-2.6
			l-0.9-0.9l-0.4-0.6l-0.1-0.5l-0.1-2.2l-0.9-2.2l-0.1-0.6l-0.1-0.6l-0.1-0.6l-0.4-0.6l-1.6-1.1l-2.1-0.4l-3.9-0.1l-5.2-2.1
			l-1.8-0.1l-1.3,0.6l-1.1,3.1l-0.4,1.8v1.4l-0.2,0.8l-0.6,0.1l-1.1-0.8l-0.7-0.7l-1.6-3.3l0.9-1.1l0.1-1.3l-0.6-1.1l-0.9-0.6
			l-1.3,0.2l-0.7,1l-0.6,1.3l-0.9,1l-1.2,0.2l-0.6-0.7l-0.1-1.2l0.3-1.4l0.9-1.1l0.8-0.5l0.6-0.8l0.4-1.7l-0.1-1.6l-0.6-0.7l-1-0.1
			l-2.6,0.3l-0.9,0.6l-0.9,0.8l-1.2,0.7l-1.3,0.3l-0.9-0.3l-0.6-1l-0.2-1.6l-0.4-1.4l-0.9,0.1l-1.8,1.5l-0.9,0.2l-1.3-0.1l-0.8-0.6
			l1.1-3.3l-0.3-1.5l-0.9-1.1l-1.1-0.6l-5-0.6l-2.3-0.9l-1.3-1.9l-0.4-0.4l-1.8-2.7l-0.9-0.9l-3.6-2.7l-1.9-0.9l-7,0.1l-1.1-0.6
			l-0.1-2.2l-1.2-0.1l-1.5,1l-0.6,0.1H371l-1.3,1.8l-3.4,2.9l-0.9,0.5l-0.8-0.3l-1.6-1.5l-1.1-0.3l-2.1,1.1l-3.4,4.3l-2.1,1.1
			l-1.8-0.1l-6-2.3l-1.2-0.7l-0.6-0.2l-0.6,0.2l-0.1,0.6l0.1,0.7v0.6l0.1,0.4l0.2,0.5l0.1,0.4l-0.3,0.2l-0.7-0.1l-0.6,0.1l-0.4-0.2
			l-0.4-0.1l-0.6,0.6l-2.1,0.4l-2-1.2l-1.8-1.6l-0.9-0.4v13.2l2,2l0.4,0.6l0.2,1.4l0.6-0.3l0.6-0.9l0.5-0.5l0.7,0.6l0.3,1l0.4,0.9
			l1.9,0.8v0.7l-0.6,0.6l-1.1,0.1v0.8l1.6,0.9l1.1,0.4l0.7-0.6l0.5,0.2l0.5,0.4l0.3,0.4v0.5l-0.6,0.8l-0.1,0.4l0.4,2.1l1,1.6
			l1.3,1.2l1.5,0.9v0.6l-1.1,0.5l0.1,0.4l0.1,0.3l0.1,0.3l0.1,0.2l1.4-0.6l0.7,1.1l0.5,1.1l0.8-0.4l0.6,0.8l0.1,0.8l-0.4,0.8
			l-0.6,0.6l1.2,0.9l0.4,0.2v0.5l-1,1.4l0.6,0.8l1.3,0.7l1,1.2v0.4l0.1,2.6l-0.1,0.5l0.6,0.4l0.7,0.2l0.6,0.5l0.4,0.7l-1.9,1.2
			l0.6,0.6l0.8,1.2l0.6,1.3l0.3,0.7l0.2,0.4l1,0.8l0.3,0.3l0.2,0.9l-0.1,0.9l0.3,0.6v0.5l-1.3,0.3l0.5,1.8l1.3,2.2l3.7,4.8l1.6,1.6
			l1.8,0.6l0.4,1.8l0.2,0.5l0.1,0.3v0.8l0.1,0.4l0.2,0.1l0.6,0.1l0.1,0.1l0.4,2.3l0.4,1.2l0.6,0.5l0.5,0.1l0.3,0.1l0.2,0.2
			c0-4.4,0-7.1,0-7.1C370.9,246.9,375.8,240.2,382.1,236.1z"/>
		<path fill="#FFD200" d="M410.9,321.9l0.8,1.6c0.2-0.4,0.4-0.8,0.5-1C411.8,322.3,411.4,322.1,410.9,321.9z"/>
		<path fill="#FFD200" d="M406,233.1c1.4,0.1,3.9,1,5.5,1c0,0,0.3,0,0.3-0.3c0-0.5-2-2-4.7-2c-0.4,0-0.8,0.1-1.1,0.2v0.6V233.1z"/>
		<path fill="#FFD200" d="M441.5,321.1c0.4,0.6,3.7,5.4,4.8,7.2c1,1.7,1.7,0.9,3.1,0.9c0.4,0,1,0.2,1.5,0.5
			c-0.3-0.5-0.3-1.1-0.1-1.6c0.4-0.7,1.7-0.8,1.7-0.8s-0.5-0.5-0.7-1.4c-2.2-4-4.6-12.4-5.4-15.7c-0.2,0.5-0.4,0.9-0.7,1.3
			c-0.6,0.8-1.8,1.9-3.1,2.8c-0.8,0.5-1.8,1.1-2.8,1.6c0.7,1.3,2.3,4.4,3,5.1C442.8,321,442.2,321.1,441.5,321.1z"/>
		<polygon fill="#0046AE" points="333.7,180 333,180.2 332.8,180.7 332.7,181.3 332.2,181.8 331.8,181.8 330.8,181.5 330.5,181.5
			329.9,182.3 330,183.1 330.3,184.1 330.6,185.7 330.6,187.4 330.4,188.5 329.8,189.1 328.6,189.1 327.6,188.6 326.9,187.7
			326.2,186.7 325.5,185.8 324.3,185.4 324,186.1 323.7,187.2 321.8,188.4 321.2,189.4 320.8,190.8 320.8,191.5 323.5,190.2
			324.7,190.1 326,191.3 326.7,191.4 327.2,190.5 327.9,191.8 329,192 331.3,191.5 332.3,192 333.6,193.7 334.3,193.3 334.7,193.7
			334.7,180.4 		"/>
		<polygon fill="#B07F55" points="381.9,267.1 379.4,264.8 379.4,271.5 380.6,271.8 381.2,272.2 381.6,272.5 382.1,272.8
			383.5,273.2 384.1,273.8 384.3,274.3 384.3,264.8 		"/>
		<polygon fill="#B07F55" points="376.2,266.4 376.6,266.8 378,270 378,264.8 		"/>
		<polygon fill="#B07F55" points="374.3,257.9 374.4,258 375.1,258.6 375.1,257.2 		"/>
		<path fill="#B07F55" d="M413.7,232.2c0-0.6,0.7-1.2,1.5-1.2c0,0,0,0,0.1,0c-0.9-0.4-1.8-0.8-2.5-0.8c-0.8,0-1,0.2-1,0.6
			c0,0.9,1.1,1.5,2.1,1.9C413.7,232.5,413.7,232.4,413.7,232.2C413.7,232.2,413.7,232.2,413.7,232.2z"/>
		<path fill="#B07F55" d="M385.5,249.5L385.5,249.5v7.4c1.5-0.8,3-2.7,3.5-3.5C387.4,252.7,385.8,250.1,385.5,249.5z"/>
		<polygon fill="#B07F55" points="374.9,260.4 374.6,261.3 374.5,262.2 375.1,262.8 375.1,259.9 		"/>
		<path fill="#B07F55" d="M439.4,258.6c0.8-0.2,0.9-3.1,0.9-3.1c-1.3,0.6-2.7,1.4-4,2C436.4,257.5,438.5,257.8,439.4,258.6z"/>
		<path fill="#B07F55" d="M397.5,255.5c-1.2-0.6-2.4-1-3.3-1c-1,0-1.8,0.1-2.4,0.1c0.4,1,1.3,3.4,1.9,3.5
			C394.3,257,397.5,255.5,397.5,255.5C397.5,255.5,397.5,255.5,397.5,255.5z"/>
		<path fill="#B07F55" d="M398.5,258.6c0.9-0.8,3-1.1,3-1.2c-1.3-0.6-2.7-1.4-4-2C397.5,255.5,397.7,258.5,398.5,258.6z"/>
		<path fill="#B07F55" d="M424.9,245c0-2,1.7-3.3,1.7-4.5c0-2.3-0.5-4.4-0.5-4.4l1.9,0.6c0-0.9-0.7-1.8-1.5-1.9
			c0.2-0.8,1.5-0.9,1.5-0.9c-0.6-1.2-2-1.4-2-1.4c0.1-0.3,0.4-0.7,0.8-1c-0.7-0.2-1.4-0.5-2.2-0.9c-3.1-1.4-5.4-2.9-8.6-2.9
			c-0.2,0-0.5,0-0.8,0l0,0h0h0v0c-0.3,0-0.6,0-1,0c-1.1,0-2.2,0.2-2.6,0.8c-0.2,0.3-0.4,0.5-0.2,0.9c0.1,0.2,1,0.2,1.8,0.2
			c1.2,0,2.3,1,3.3,1c0.9,0,1.7-0.2,2.6-0.2c2.6,0,4.4,2.6,5.4,3.2c-1,0.1-3.8-2.5-5.1-2.5c-1.1,0-1.5,0.3-2.6,0.3
			c-0.3,0-0.5,0-0.8-0.1c0.3,0.2,0.5,0.5,0.5,0.9c0,0,0,0,0,0c0,0.6-0.7,1.2-1.5,1.2c0,0-0.1,0-0.1,0c-0.3,0.2-0.6,0.7-0.6,0.9
			c0,0.3,0.3,0.7,0.5,0.8c1,0.7,1.1,2,1.1,2s-2-1.6-2.9-1.6c-1.7,0-1.4,1.2-1.2,1.6c0.7,1.3,1.2,3.3,1.2,6.1
			c0,7.6-1.5,10.2-2.7,12.3c-0.4,0.7-0.8,1.6-1.5,2.3c3.2-1.7,5.5-3.8,5.5-5.8v-7.5h0.8v7.5c0,1.4-0.3,2.1-0.3,2.1
			c-0.5,1.6-1.5,4-2.1,5c2.9-1.6,4.4-3.6,4.4-4.3v-10.3h0.8v10.4l-0.2,0.7c0.4,0.5,0.8,1.2,1.1,1.4c0.3-0.2,0.8-0.8,1.1-1.4
			l-0.2-0.7v-10.4h0.8v10.3c0,0.7,1.5,2.7,4.4,4.3c-0.6-1-1.6-3.4-2.1-5c0,0-0.3-0.7-0.3-2.1v-7.5h0.8v7.5c0,2,2.4,4.1,5.6,5.8
			c-0.7-0.6-1.1-1.5-1.5-2.3C426.4,253.6,424.9,251.2,424.9,245z"/>
		<path fill="#B07F55" d="M462.8,250.2L462.8,250.2l1.4-1.8l0.1-0.3c-0.1-0.1-0.1-0.3-0.2-0.4L462.8,250.2z"/>
		<path fill="#B07F55" d="M455.2,321.2c0.9-1.7,2.1-4.1,3.3-6.5v-50v0v0l-2.5,2.3l-2.5-2.3v56.5c0,0,0,0.6-0.1,1.3
			C454.2,322.1,454.9,321.8,455.2,321.2z"/>
		<path fill="#B07F55" d="M436.1,322.8c0,0,0.4-1.8,0.7-2.4c0,0,1.2,0.9,1.8,0.9c0,0,0.2-1.2,0.3-2c0.8,0.5,2.1,0.4,2.1,0.4
			c-0.9-0.4-1.8-2.3-2.3-3.3c-1.9,1-4,1.9-6.1,2.9C433.6,320.4,435.4,322.4,436.1,322.8z"/>
		<path fill="#B07F55" d="M456.5,326.4c-0.4,0.8-1,1.2-1.5,1.3c1.6,1.6,3.4,3.5,3.4,3.5v-11.6c-0.5,1-1,1.9-1.3,2.6
			C456.7,323.2,457.5,324.6,456.5,326.4z"/>
		<path fill="#B07F55" d="M460.2,310.2c0.3-0.5,0.8-0.6,0.8-0.6s-0.2-0.8,0.1-1.5c0.3-0.6,1.2-0.6,1.2-0.6s-0.2-0.6,0-1.1
			c0.2-0.5,0.7-0.6,0.9-1c0.5-0.9,1-2,1.6-3.1v-37.5l-2.4,2.3l-2.5-2.3V312c0.1-0.2,0.2-0.5,0.4-0.7
			C460.4,311,459.9,310.7,460.2,310.2z"/>
		<path fill="#B07F55" d="M464.1,308.4c0,0,0.5,0.7,0.2,1.3c-0.3,0.6-1.1,1-1.1,1s0.3,0.5,0,1c-0.3,0.6-0.8,0.3-0.9,0.6
			c-0.7,1.5-1.6,3-2.3,4.6v12.3c0,1.4,2.1,4.4,3.8,6.1l0.9-0.5h0.2v-26.7C464.5,308.2,464.1,308.4,464.1,308.4z"/>
		<polygon fill="#B07F55" points="462.8,264.1 464.8,262.2 464.8,260.4 464.6,260.3 464.1,259.4 463.6,258 462.8,257.2 		"/>
		<path fill="#B07F55" d="M427.8,352.8c-4.6-8.3-6.9-21.5-5.9-24.1c0,0,1.9,6.8,4.2,10.7c2.2,3.6,4.8,7.7,7.4,10.7
			c2.1-0.9,4.2-1.7,5.9-2.2c-6.8-5.2-13.7-21.1-15.3-24.8c-2.3,1.1-3.7,2.1-5.3,4.1c-1.6-2-3-2.9-5.3-4.1c-0.2,0.6-0.6,1.4-1.1,2.5
			l0.3,1.1l0.1,1.2v1.1l-0.4,0.9l-0.4,0.9l-0.3,1.2l0.5,1.3l-0.5,0.4l-0.2,0.6l-0.1,3.1l0.1,0.6l0.3,0.7c2.2-4,3.9-10.1,3.9-10.1
			c1.1,2.6-1.2,15.7-5.8,24l0,0.2c3.8,2,7.2,4.1,8.8,5.9C420.6,357,424,354.8,427.8,352.8z"/>
		<path fill="#B07F55" d="M452.1,321.3v-56.5l-2.5,2.3l-3-2.8v38.6v4.2C447.5,310.7,449.7,319.2,452.1,321.3z"/>
		<path fill="#B07F55" d="M449.2,256.1c-0.5-0.7-0.8-1.3-1.1-1.8c-0.5,0.9-2.3,3.8-4.3,5.5c-0.3-1.4-2.5-2.7-2.5-2.7s-0.8,2.1-2,2.7
			c-0.4-0.7-3-2.4-3-2.4c0,0,0,0,0,0c-1.6,0.7-4.1,0.9-4.7,0.9c0.8,0.6,1.7,1.1,2.7,1.6c0,0-3.8,0-6.5-1.4c-1-0.6-1.9-1.2-2.8-2
			c0.4,1,0.9,2.2,1.8,3.3c-3.9-0.3-5.9-2.6-6.5-3.3c-0.3,0.7-0.7,1.8-1.5,2.7c-0.7-0.9-1.2-2-1.5-2.7c-0.6,0.8-2.5,3-6.5,3.3
			c0.9-1,1.5-2.2,1.8-3.3c-0.8,0.7-1.8,1.3-2.8,2c-2.7,1.3-6.5,1.4-6.5,1.4c1-0.5,1.9-1,2.7-1.6c-0.7,0-3.1-0.2-4.7-0.9h0
			c0,0-2.5,1.7-3,2.4c-1.2-0.5-2-2.7-2-2.7s-2.2,1.3-2.5,2.7c-2-1.8-3.8-4.6-4.3-5.5c-0.2,0.4-0.6,1-1.1,1.8v8l2-1.9
			c-0.7-1.2-1.9-2-1.9-2h0h0h2.6h1.5h26h26h1.5h2.6c0,0-1.2,0.9-1.9,2l2,1.9V256.1z"/>
		<polygon fill="#B07F55" points="382.3,264.1 383.6,262.8 384.6,261.9 384.6,259.4 382.3,257.2 		"/>
		<path fill="#B07F55" d="M455.8,239L455.8,239c0,0-5.8,5.4-7.8,6.1l-0.1,1.8v5.3c1.4-0.5,3.2-2.8,4.1-4.1v-0.7
			c0-0.7-0.4-1.2-0.7-1.5l0.9-0.3c0.3,0.4,0.7,0.9,0.7,1.6v0.4l0.3,0.3l0.1,0.2l2.1,2.3l2.5-3.8v-0.9c0-0.6-0.5-1.3-0.9-1.8l0.8-0.3
			c0.4,0.6,0.9,1.3,0.9,2v0.8c0.6,0.6,2.9,3,2.9,3s1.2-2.5,1.5-3.2C461.3,243.7,458.5,240.9,455.8,239z"/>
		<polygon fill="#B07F55" points="382.1,239 382.1,239 382.1,239 		"/>
		<path fill="#B07F55" d="M386.6,245.9c-0.3,0.3-0.7,0.8-0.7,1.5v0.7c0.9,1.2,2.7,3.6,4.1,4.1v-5.3l-0.1-1.8c-2-0.7-7.8-6-7.8-6v0
			c-2.7,2-5.6,4.7-7.3,7.1c0.3,0.7,1.5,3.2,1.5,3.2s2.3-2.4,2.9-3v-0.8c0-0.7,0.4-1.4,0.9-2l0.8,0.3c-0.4,0.5-0.9,1.2-0.9,1.8v0.9
			l2.5,3.8l2.1-2.3l0.1-0.2l0.3-0.3v-0.4c0-0.7,0.4-1.3,0.7-1.6L386.6,245.9z"/>
		<polygon fill="#B07F55" points="459.6,256.8 461.9,254.6 461.9,251.4 459.6,248.9 		"/>
		<polygon fill="#B07F55" points="379.1,256.8 381.4,254.6 381.4,251.9 379.1,248.3 		"/>
		<polygon fill="#B07F55" points="459.6,259.4 459.6,261.9 460.6,262.8 461.9,264.1 461.9,257.2 460.6,258.5 		"/>
		<polygon fill="#B07F55" points="375.9,257.2 375.9,264.1 377.3,262.8 378.3,261.9 378.3,259.4 377.3,258.5 		"/>
		<polygon fill="#B07F55" points="379.1,259.4 379.1,261.9 380.1,262.8 381.4,264.1 381.4,257.2 380.1,258.5 		"/>
		<path fill="#B07F55" d="M373.1,250v6.5l2-1.9v-4.4l-1.3-2.4C373.3,248.6,373.1,249.3,373.1,250z"/>
		<polygon fill="#B07F55" points="375.9,254.6 378.3,256.8 378.3,249 375.9,251.4 		"/>
		<polygon fill="#B07F55" points="382.3,254.6 384.6,256.8 384.6,249.9 382.3,252.2 		"/>
		<path fill="#B07F55" d="M440.4,255.5c0,0,3.2,1.6,3.7,2.7c0.6-0.2,1.6-2.6,1.9-3.5c-0.6-0.1-1.3-0.1-2.4-0.1
			C442.7,254.5,441.6,254.9,440.4,255.5z"/>
		<path fill="#B07F55" d="M387.8,264.1v-6.8h0v0c-0.7,1-1.5,1.9-2.3,2.4v2.3l1,0.9L387.8,264.1z"/>
		<polygon fill="#B07F55" points="458.8,248.3 458.8,248.3 456.4,251.9 456.4,254.6 458.8,256.8 		"/>
		<path fill="#B07F55" d="M452.4,257v-7.4v0c-0.4,0.6-2,3.2-3.5,4C449.4,254.2,450.9,256.1,452.4,257z"/>
		<polygon fill="#B07F55" points="388.2,267.1 385.8,264.8 385.8,278 387.1,279.8 387.8,282.1 387.9,282.1 388.1,282.8 388.2,283.3
			388.1,283.6 387.5,283.8 388.1,284.7 390.6,286.1 390.6,286.7 390.3,287.3 390.5,287.5 391,287.7 391.2,287.8 391.2,264.3 		"/>
		<polygon fill="#B07F55" points="453.2,259.4 453.2,261.9 454.2,262.8 455.6,264.1 455.6,257.2 		"/>
		<polygon fill="#B07F55" points="453.2,256.8 455.6,254.6 455.6,252.2 453.2,249.9 		"/>
		<polygon fill="#B07F55" points="458.8,259.4 457.8,258.5 456.4,257.2 456.4,264.1 457.8,262.8 458.8,261.9 		"/>
		<path fill="#B07F55" d="M452.4,259.6c-0.8-0.5-1.6-1.4-2.3-2.4v6.8l1.3-1.3l1-0.9V259.6z"/>
		<path d="M406,227.4h0.8h1.3c0.8,0,1.5,0.5,1.7,1.3c0.4-0.5,0.6-1.3,0.6-2.2c0-0.9-0.2-1.7-0.6-2.2c-0.2,0.7-0.9,1.3-1.7,1.3h-1.3
			H406v-2.1c0-0.8,0.5-1.5,1.3-1.7c-0.5-0.4-1.3-0.6-2.2-0.6v0c-0.9,0-1.7,0.2-2.2,0.6c0.7,0.2,1.3,0.9,1.3,1.7v2.1h-0.8h-1.3
			c-0.8,0-1.5-0.5-1.7-1.3c-0.4,0.5-0.6,1.3-0.6,2.2c0,0.9,0.2,1.7,0.6,2.2c0.2-0.7,0.9-1.3,1.7-1.3h1.3h0.8v0.8v6.6v2.8
			c0,0.8-0.5,1.5-1.2,1.7c1,0.1,1.9,1.5,2.1,2.2c0.2-0.7,1.1-2.1,2.1-2.2c-0.7-0.2-1.2-0.9-1.2-1.7v-3.7c-0.1,0-0.2-0.1-0.2-0.1
			v-0.1c0,0,0,0,0.1,0c0,0,0,0-0.1,0v-0.6c0.1,0,0.2,0,0.2,0v-0.3v-0.6c-0.2,0.1-0.3,0.1-0.4,0.2v0.4v4.7c0,0.7,0.3,1.2,0.8,1.6
			c-0.3,0.2-0.6,0.4-0.8,0.7c-0.2,0.3-0.3,0.5-0.4,0.8c-0.1-0.3-0.2-0.5-0.4-0.8c-0.2-0.3-0.5-0.5-0.8-0.7c0.4-0.4,0.8-0.9,0.8-1.6
			v-2.8v-6.6v-0.8c0,0,0-0.1,0-0.1v-0.2c0,0,0-0.1,0-0.1h-0.4h-0.5h-0.3h-1.3c-0.7,0-1.3,0.3-1.7,0.8c-0.1-0.4-0.2-0.8-0.2-1.3
			c0-0.5,0.1-0.9,0.2-1.3c0.4,0.5,1,0.8,1.7,0.8h1.3h0.6h0.2c0,0,0.1,0,0.1,0h0.3v-0.3c0,0,0-0.1,0-0.1v-2.1c0-0.7-0.3-1.3-0.8-1.7
			c0.4-0.1,0.8-0.2,1.3-0.2l0,0h0c0.5,0,0.9,0.1,1.3,0.2c-0.5,0.4-0.8,1-0.8,1.7v2.1c0,0,0,0.1,0,0.1v0.3h0.3c0,0,0.1,0,0.1,0h0.8
			h1.3c0.7,0,1.3-0.3,1.7-0.8c0.1,0.4,0.2,0.8,0.2,1.3c0,0.5-0.1,0.9-0.2,1.3c-0.4-0.5-1-0.8-1.7-0.8h-1.3H406c0,0-0.1,0-0.1,0h-0.3
			v0.4v0.7v0.1v2.5c0.1-0.2,0.3-0.3,0.4-0.4v-2.1V227.4z"/>
		<path fill="#F5D402" d="M405.6,228.1v-0.7V227h0.3c0,0,0.1,0,0.1,0h0.8h1.3c0.7,0,1.3,0.3,1.7,0.8c0.1-0.4,0.2-0.8,0.2-1.3
			c0-0.5-0.1-0.9-0.2-1.3c-0.4,0.5-1,0.8-1.7,0.8h-1.3H406c0,0-0.1,0-0.1,0h-0.3v-0.3c0,0,0-0.1,0-0.1v-2.1c0-0.7,0.3-1.3,0.8-1.7
			c-0.4-0.1-0.8-0.2-1.3-0.2h0l0,0c-0.5,0-0.9,0.1-1.3,0.2c0.5,0.4,0.8,1,0.8,1.7v2.1c0,0,0,0.1,0,0.1v0.3h-0.3c0,0-0.1,0-0.1,0H404
			h-0.6h-1.3c-0.7,0-1.3-0.3-1.7-0.8c-0.1,0.4-0.2,0.8-0.2,1.3c0,0.5,0.1,0.9,0.2,1.3c0.4-0.5,1-0.8,1.7-0.8h1.3h0.3h0.5h0.4
			c0,0,0,0.1,0,0.1v0.2c0,0,0,0.1,0,0.1v0.8v6.6v2.8c0,0.7-0.3,1.2-0.8,1.6c0.3,0.2,0.6,0.4,0.8,0.7c0.2,0.3,0.3,0.5,0.4,0.8
			c0.1-0.3,0.2-0.5,0.4-0.8c0.2-0.3,0.5-0.5,0.8-0.7c-0.5-0.4-0.8-0.9-0.8-1.6v-4.7v-0.4c-0.6,0.4-0.9,0.9-0.9,0.9s0.1-1.5,0.9-2.6
			v-2.5V228.1z"/>
		<path fill="#D10429" d="M450.2,333.6c-0.2,0-0.3,0.1-0.4,0.2c-0.2,0.3-0.2,0.7,0,0.9l2,1.7c0.3,0.2,0.7,0.2,0.9-0.1
			c0.2-0.3,0.2-0.7,0-0.9l-2-1.7c-0.1-0.1-0.2-0.1-0.3-0.1C450.3,333.6,450.2,333.6,450.2,333.6L450.2,333.6L450.2,333.6z"/>
		<path fill="#D10429" d="M450.3,338.1l-2-1.7c-0.1-0.1-0.2-0.1-0.3-0.1c-0.1,0-0.1,0-0.2,0c-0.2,0-0.3,0.1-0.4,0.2
			c-0.2,0.3-0.2,0.7,0,0.9l2,1.7c0.3,0.2,0.7,0.2,0.9-0.1C450.5,338.7,450.5,338.3,450.3,338.1z"/>
		<path fill="#D10429" d="M451,333.3l0.8,0.7c0.1,0.1,0.3,0.1,0.4,0c0.1-0.1,0.1-0.3,0-0.4l-0.8-0.7c-0.1,0-0.1-0.1-0.2-0.1
			c-0.1,0-0.1,0-0.2,0.1C450.9,333.1,450.9,333.3,451,333.3z"/>
		<path fill="#D10429" d="M449.1,334.9c-0.2,0-0.3,0.1-0.4,0.2c-0.2,0.3-0.2,0.7,0,0.9l2,1.7c0.3,0.2,0.7,0.2,0.9-0.1
			c0.2-0.3,0.2-0.7,0-0.9l-2-1.7c-0.1-0.1-0.2-0.1-0.3-0.1C449.2,334.9,449.1,334.9,449.1,334.9L449.1,334.9L449.1,334.9z"/>
		<path fill="#D10429" d="M449.5,330.1c-0.3-0.1-2.8,0.5-3.3-0.2c-2.1-3.2-5.4-8.4-5.8-8.9c-0.2-0.1-0.4-0.1-0.6-0.2v0v0v0
			c0,0,0,1.6-0.5,2.2l-1.8-1.2c0,0-0.1,0.6-0.3,1.4c0.8,1.1,5.2,7.1,7.4,10.1c0.5,0.7,1,2.6,1,2.6s0.8-0.4,0.8-1.1
			c0-0.7-0.1-1.5-0.1-1.5s0.6,0.7,1.6,0.7c0-0.8-1.6-1.7-1.7-2.9c1.2,0.9,2.3,0.4,3.7,0.9c1.5,0.5,2,1.1,2.4,1.1
			c0.3,0,0.5-0.5,0.4-0.8C452.7,331.8,450.8,330.4,449.5,330.1z"/>
		<polygon fill="#0B45BB" points="434.9,302.6 434.9,302.6 434.9,302.6 		"/>
		<polygon fill="#0B45BB" points="428.9,289 428.9,289 428.9,289 428.9,289 428.9,289 		"/>
		<polygon fill="#0B45BB" points="392.6,289.3 392.6,289.3 392.6,289.3 		"/>
		<path fill="#0B45BB" d="M418.9,324.9c2.2-2.8,9.7-5,19.4-9.8c5.9-2.9,6.9-5.2,6.9-6.2v-5.9v-13.6c-0.1,0.1-4.8,2.2-8.3,4.8
			c-1.7-2.4-7.9-5.1-8-5.2l2.3,4.2c0,0-3.9,0.2-5.9,2c-2.5,2.1-2.2,6.6-2.2,9.9c0,2.6,0.3,5.3,1.6,6.4c1.8,1.5,3,1.6,3,3.4
			c0,1.5-1.1,1.8-3,2.7c-2.4,1.2-2.3,2.9-5.8,2.9c-3.5,0-3.4-1.7-5.8-2.9c-1.8-1-3-1.3-3-2.7c0-1.8,1.2-1.9,3-3.4
			c1.3-1.1,1.6-3.8,1.6-6.4c0-3.3,0.2-7.8-2.2-9.9c-2.1-1.8-5.9-2-5.9-2l2.3-4.2l0,0l0,0l0,0c0,0,0,0,0,0s-6.3,2.8-8,5.2
			c-3.6-2.7-8.3-4.8-8.3-4.8v0l0.6,0.7l1.6,1.1l0.7,0.6v1.2l1.3,0.3l1.4,0.9l1.2,0.6l1.1-0.6l0.5,1.4l1.8,2.3l0.8,1.4l1.1,3l0.1,0.8
			c0.4-0.2,0.7-0.3,1.1-0.4c0.9-0.1,1.9,0.4,2.4,1.2c0.8,1.3,0.4,2.9-0.8,3.7c-0.2,0.1-0.4,0.2-0.6,0.3c0.2,0.1,0.4,0.2,0.6,0.3
			c1.1,0.9,1.3,2.6,0.3,3.8c-0.3,0.4-0.7,0.6-1.2,0.8l0.1,0.1l2.3,3.9v1.6l0.8,1.6C414.3,321.7,417.6,323.2,418.9,324.9z
			 M434.9,302.6L434.9,302.6c2.5,0,4.7,1.4,5.9,3.3c-0.5-0.1-1-0.2-1.6-0.2c-3.4,0-5.9,2.6-5.6,5.9c0.1,0.9,0.4,1.8,0.9,2.5
			c-2.7-0.7-5-2.9-5.2-5.7C429,305.2,431.5,302.6,434.9,302.6z M426.6,295.2l2.3,2.3l-2.3,2.3l-2.3-2.3L426.6,295.2z M427.4,312.7
			c0,0-3.2-0.9-3.8-4.2c-0.3-1.5-0.6-7.1,0.9-8l4.2-0.8h0v0c-0.4,1.1-1.5,4.5-1.5,8.7C427.1,311.2,427.4,312.7,427.4,312.7z
			 M409,297.4l2.3-2.3l2.3,2.3l-2.3,2.3L409,297.4z M409.2,299.7l4.2,0.8c1.5,1,1.2,6.5,0.9,8c-0.6,3.2-3.8,4.2-3.8,4.2
			s0.3-1.5,0.3-4.4C410.7,304.2,409.7,300.8,409.2,299.7L409.2,299.7z"/>
		<path fill="#D10429" d="M401,284.7c2.2,2.9,7.9,4.3,8,4.3l0,0l0,0l0.4-0.7c0,0-9.4-2.4-9.4-12.4c0-7.8,9.4-11.7,9.7-13.6
			c0,0,0,0,0,0h0c0,0,0,0,0,0c0.9,3.2-3.1,7.7-3.1,13c0,6.9,5.1,7.2,5.1,7.2c1.2,0,1.7,0.8,2.1,0.8c1-0.1,1.5-1.4,2.4-1.4
			c0.9,0,1.6,1.4,2.8,1.4c1.2,0,1.9-1.4,2.9-1.4c1,0,1.5,1.3,2.4,1.4c0.5,0,0.9-0.8,2.1-0.8c0,0,5.1-0.3,5.1-7.2
			c0-5.3-4.1-9.8-3.1-13c0.3,1.9,9.7,5.8,9.7,13.6c0,10-9.4,12.4-9.4,12.4l0.4,0.7l0,0l0,0c0,0,5.8-1.4,8-4.3
			c3.7,3.4,8.2,4.5,8.3,4.6v-25.4c0-1.4,0.6-2.2,0.7-2.3v0h-1h-26h-26h-1v0c0.1,0.2,0.7,1,0.7,2.3v25.4l0,0
			C392.7,289.3,397.2,288.1,401,284.7z M412.9,265.5l4.4,2.1l1.6-4.6l1.6,4.6l4.4-2.1l-2.1,4.4l4.6,1.6l-4.6,1.6l2.1,4.4l-4.4-2.1
			l-1.6,4.6l-1.6-4.6l-4.4,2.1l2.1-4.4l-4.6-1.6l4.6-1.6L412.9,265.5z"/>
		<path d="M408.9,289C408.9,289,408.9,289,408.9,289c0,0-5.8-1.4-8-4.3c-3.8,3.4-8.3,4.6-8.3,4.6c0,0,0,0,0,0v0c0,0,4.7,2.1,8.3,4.8
			C402.6,291.8,408.9,289,408.9,289z M400.8,292.8l-5.4-3.4c0,0,3.4-1.2,5.5-3.2v0h0c1.9,2.2,5,3,5,3l-4.9,3.6l-0.1,0.1L400.8,292.8
			z"/>
		<path d="M436.9,284.7c-2.2,2.9-7.9,4.3-8,4.3c0,0,0,0,0,0l0,0c0,0,6.3,2.8,8,5.2c3.5-2.7,8.2-4.8,8.3-4.8v0
			C445.1,289.3,440.6,288.1,436.9,284.7z M437.1,292.8c0.1,0.3-0.1,0.1-0.1,0.1c-0.1,0.1,0,0-0.1-0.1c-1.7-2-4.9-3.6-4.9-3.6
			s3-0.8,5-3c0,0,0,0,0,0h0c0,0,0,0,0,0c2,2.1,5.5,3.2,5.5,3.2S438.9,291.2,437.1,292.8z"/>
		<path d="M415,273.2l-2.1,4.4l4.4-2.1l1.6,4.6l1.6-4.6l4.4,2.1l-2.1-4.4l4.6-1.6l-4.6-1.6l2.1-4.4l-4.4,2.1l-1.6-4.6l-1.6,4.6
			l-4.4-2.1l2.1,4.4l-4.6,1.6L415,273.2z M415.1,267.7l2.8,1.4l1.1-3l1,3l2.8-1.4l-1.3,2.8l2.9,1l-2.9,1l1.3,2.8l-2.8-1.3l-1.1,2.9
			l-1-2.9l-2.8,1.3l1.3-2.8l-2.9-1l2.9-1L415.1,267.7z"/>
		<polygon fill="#FFD200" points="416.4,272.6 415.1,275.5 417.9,274.1 418.9,277.1 420,274.1 422.8,275.5 421.5,272.6 424.4,271.6
			421.5,270.5 422.8,267.7 420,269.1 418.9,266.1 417.9,269.1 415.1,267.7 416.4,270.5 413.5,271.6 		"/>
		<path d="M428.9,289L428.9,289l-0.4-0.7c0,0,9.4-2.4,9.4-12.4c0-7.8-9.4-11.7-9.7-13.6c-0.9,3.2,3.1,7.7,3.1,13
			c0,6.9-5.1,7.2-5.1,7.2c-1.2,0-1.7,0.8-2.1,0.8c-1-0.1-1.5-1.4-2.4-1.4c-0.9,0-1.6,1.4-2.9,1.4c-1.2,0-1.9-1.4-2.8-1.4
			c-1,0-1.5,1.3-2.4,1.4c-0.5,0-0.9-0.8-2.1-0.8c0,0-5.1-0.3-5.1-7.2c0-5.3,4.1-9.8,3.1-13c-0.3,1.9-9.7,5.8-9.7,13.6
			c0,10,9.4,12.4,9.4,12.4l-0.4,0.7l0,0l-2.3,4.2c0,0,3.9,0.2,5.9,2c2.5,2.1,2.2,6.6,2.2,9.9c0,2.6-0.3,5.3-1.6,6.4
			c-1.8,1.5-3,1.6-3,3.4c0,1.5,1.1,1.8,3,2.7c2.4,1.2,2.2,2.9,5.8,2.9c3.5,0,3.4-1.7,5.8-2.9c1.8-1,3-1.3,3-2.7c0-1.8-1.2-1.9-3-3.4
			c-1.3-1.1-1.6-3.8-1.6-6.4c0-3.3-0.2-7.8,2.2-9.9c2.1-1.8,5.9-2,5.9-2L428.9,289L428.9,289L428.9,289z M424.4,294.3
			c-2.4,1.9-2.4,7.2-2.4,10.7c0,4.2,0.2,5.9,1.7,7.1c1.6,1.2,2.8,1.4,2.8,2.7c0,1.1-1.2,1.5-2.8,2.2c-1.8,0.8-2,2.2-4.6,2.2
			c-2.6,0-2.8-1.4-4.6-2.2c-1.6-0.7-2.8-1.1-2.8-2.2c0-1.2,1.2-1.5,2.8-2.7c1.5-1.1,1.7-2.9,1.7-7.1c0-3.5,0-8.8-2.4-10.7
			c-1.8-1.5-4.7-1.9-4.7-1.9l2.1-4.8c0,0-9.5-2.3-9.5-11.7c0-5.8,6.9-10.8,6.9-10.8h0c0.4,0.8-3.1,6-3.1,10.2c0,5.2,2.7,8.2,6.4,8.2
			c0.7,0,1.5,0.9,2.1,0.9c1.1,0,1.8-1.2,2.4-1.2c0.8,0,1.4,1.3,2.8,1.3c1.4,0,2-1.3,2.9-1.3c0.7,0,1.4,1.2,2.4,1.2
			c0.7,0,1.4-0.9,2.1-0.9c3.7,0,6.4-3,6.4-8.2c0-4.2-3.5-9.3-3.1-10.2c0,0,6.9,4.9,6.9,10.8c0,9.4-9.5,11.7-9.5,11.7l2.1,4.8
			C429.1,292.4,426.2,292.8,424.4,294.3z"/>
		<polygon points="409.6,262.3 409.6,262.3 409.6,262.3 		"/>
		<path fill="#FFD200" d="M405.8,289.2c0,0-3-0.8-5-3h0v0c-2,2.1-5.5,3.2-5.5,3.2l5.4,3.4l0.1,0.1l0.1-0.1L405.8,289.2z"/>
		<path fill="#FFD200" d="M427,287.6c0,0,9.5-2.3,9.5-11.7c0-5.8-6.9-10.8-6.9-10.8c-0.4,0.8,3.1,6,3.1,10.2c0,5.2-2.8,8.2-6.4,8.2
			c-0.7,0-1.5,0.9-2.1,0.9c-1.1,0-1.8-1.2-2.4-1.2c-0.8,0-1.4,1.3-2.9,1.3c-1.4,0-2-1.3-2.8-1.3c-0.7,0-1.4,1.2-2.4,1.2
			c-0.7,0-1.4-0.9-2.1-0.9c-3.7,0-6.4-3-6.4-8.2c0-4.2,3.5-9.3,3.1-10.2h0c0,0-6.9,4.9-6.9,10.8c0,9.4,9.5,11.7,9.5,11.7l-2.1,4.8
			c0,0,2.9,0.4,4.7,1.9c2.4,1.9,2.4,7.2,2.4,10.7c0,4.2-0.2,5.9-1.7,7.1c-1.6,1.2-2.8,1.4-2.8,2.7c0,1.1,1.2,1.5,2.8,2.2
			c1.8,0.8,2,2.2,4.6,2.2c2.6,0,2.8-1.4,4.6-2.2c1.6-0.7,2.8-1.1,2.8-2.2c0-1.2-1.2-1.5-2.8-2.7c-1.5-1.1-1.7-2.9-1.7-7.1
			c0-3.5,0-8.8,2.4-10.7c1.8-1.5,4.7-1.9,4.7-1.9L427,287.6z M415.3,315.9c-1.9,0-3.1-0.4-3.1-0.9c0-0.6,1.2-1,3.1-1
			c0.5,0,1.1,0.3,1.1,1C416.4,315.6,415.8,315.9,415.3,315.9z M422.5,314c1.9,0,3.1,0.4,3.1,1c0,0.6-1.2,0.9-3.1,0.9
			c-0.5,0-1.1-0.3-1.1-0.9C421.5,314.3,422,314,422.5,314z"/>
		<path fill="#FFD200" d="M437,286.2c-1.9,2.2-5,3-5,3s3.2,1.7,4.9,3.6c0,0,0,0.2,0.1,0.1c0,0,0.2,0.2,0.1-0.1
			c1.8-1.6,5.4-3.4,5.4-3.4S439,288.2,437,286.2z"/>
		<polygon fill="#FFD200" points="437,286.2 437,286.2 437,286.2 		"/>
		<path d="M413.6,297.4l-2.3-2.3l-2.3,2.3l2.3,2.3L413.6,297.4z M412.5,297.4l-1.2,1.2l-1.2-1.2l1.2-1.2L412.5,297.4z"/>
		<path d="M428.8,297.4l-2.3-2.3l-2.3,2.3l2.3,2.3L428.8,297.4z M426.6,296.3l1.2,1.2l-1.2,1.2l-1.2-1.2L426.6,296.3z"/>
		<polygon fill="#FFD200" points="411.3,298.6 412.5,297.4 411.3,296.3 410.1,297.4 		"/>
		<polygon fill="#FFD200" points="427.8,297.4 426.6,296.3 425.4,297.4 426.6,298.6 		"/>
		<path d="M410.5,312.7c0,0,3.2-0.9,3.8-4.2c0.3-1.5,0.6-7.1-0.9-8l-4.2-0.8h0c0.4,1.1,1.5,4.5,1.5,8.7
			C410.7,311.2,410.5,312.7,410.5,312.7z M410.7,300.9l2.2,0.5c0.8,1.1,0.7,3,0.7,5.5c0,2.6-1.9,3.6-1.9,3.6
			C411.6,304.3,411,302.8,410.7,300.9L410.7,300.9z"/>
		<path d="M428.7,299.7L428.7,299.7l-4.2,0.8c-1.5,1-1.2,6.5-0.9,8c0.6,3.2,3.8,4.2,3.8,4.2s-0.3-1.5-0.3-4.4
			C427.1,304.2,428.2,300.8,428.7,299.7L428.7,299.7z M426.2,310.5c0,0-1.9-1-1.9-3.6c0-2.6-0.1-4.4,0.7-5.5l2.2-0.5
			C426.9,302.8,426.2,304.3,426.2,310.5z"/>
		<path d="M407.6,308c-0.2-0.1-0.4-0.3-0.6-0.3c0.2-0.1,0.4-0.2,0.6-0.3c1.3-0.8,1.6-2.4,0.8-3.7c-0.5-0.9-1.5-1.3-2.4-1.2
			c-0.4,0-0.8,0.2-1.1,0.4l0.1,0.7l0,0c0.3-0.1,0.6-0.2,0.9-0.2h0h0c0.7,0,1.3,0.4,1.7,1c0.6,1,0.3,2.3-0.7,2.9
			c-0.2,0.1-0.4,0.2-0.6,0.3c-0.2,0-0.4,0-0.6,0c0,0,0-0.1,0-0.1c0-0.4-0.1-0.7-0.2-1.1l0,0l-0.1,1l0.3,0.3c0.2,0,0.4,0.1,0.5,0.1
			c0.2,0.1,0.4,0.2,0.6,0.3c0.9,0.7,1,2,0.2,2.9c-0.2,0.2-0.4,0.4-0.7,0.5l0.4,1c0.4-0.2,0.8-0.4,1.2-0.8
			C408.9,310.7,408.7,309,407.6,308z"/>
		<path fill="#FFD200" d="M413.6,306.9c0-2.6,0.1-4.4-0.7-5.5l-2.2-0.5v0c0.3,1.9,1,3.4,1,9.6C411.6,310.5,413.6,309.5,413.6,306.9z
			"/>
		<path fill="#FFD200" d="M424.3,306.9c0,2.6,1.9,3.6,1.9,3.6c0-6.2,0.6-7.7,1-9.6l-2.2,0.5C424.1,302.6,424.3,304.4,424.3,306.9z"
			/>

			<line fill="none" stroke="#000000" stroke-width="0" stroke-linecap="round" stroke-linejoin="round" x1="434.9" y1="302.6" x2="434.9" y2="302.6"/>
		<path d="M434.6,314.1c-0.5-0.8-0.8-1.6-0.9-2.5c-0.3-3.2,2.2-5.9,5.6-5.9c0.5,0,1.1,0.1,1.6,0.2c-1.2-2-3.5-3.3-5.9-3.3l0,0h0
			c-3.4,0-5.9,2.6-5.6,5.9C429.6,311.2,431.8,313.5,434.6,314.1z M434.9,303.8C434.9,303.8,434.9,303.8,434.9,303.8L434.9,303.8
			C434.9,303.8,434.9,303.8,434.9,303.8c1.1,0,2.1,0.3,3,0.9c-3.3,0.6-5.7,3.6-5.4,7c-1.1-0.9-1.8-2.1-2-3.4
			C430.3,305.8,432.1,303.8,434.9,303.8z"/>
		<path fill="#FFD200" d="M405.6,307.5c0.2,0,0.4,0,0.6,0c0.2-0.1,0.4-0.1,0.6-0.3c1-0.6,1.3-1.9,0.7-2.9c-0.4-0.6-1-1-1.7-1h0h0
			c-0.3,0-0.6,0.1-0.9,0.2l-0.5,1.3l0.9,0.6l0.1,0.9C405.6,306.6,405.6,307,405.6,307.5C405.6,307.4,405.6,307.4,405.6,307.5z"/>
		<path fill="#FFD200" d="M432.5,311.7c-0.3-3.4,2.1-6.4,5.4-7c-0.9-0.5-1.9-0.9-3-0.9c-2.8,0-4.7,2-4.4,4.5
			C430.7,309.6,431.4,310.8,432.5,311.7z"/>
		<polygon fill="#FFD200" points="434.9,303.8 434.9,303.8 434.9,303.8 		"/>
		<path fill="#FFD200" d="M406.8,308.1c-0.2-0.1-0.4-0.2-0.6-0.3c-0.2-0.1-0.4-0.1-0.5-0.1l0.4,0.4v0.6l-0.1,1.6l0.5,1.2
			c0.3-0.1,0.5-0.3,0.7-0.5C407.8,310.2,407.7,308.9,406.8,308.1z"/>
		<path d="M415.3,314c-1.9,0-3.1,0.4-3.1,1c0,0.6,1.2,0.9,3.1,0.9c0.5,0,1.1-0.3,1.1-0.9C416.4,314.3,415.8,314,415.3,314z"/>
		<path d="M421.5,315c0,0.7,0.6,0.9,1.1,0.9c1.9,0,3.1-0.4,3.1-0.9c0-0.6-1.2-1-3.1-1C422,314,421.5,314.3,421.5,315z"/>

			<line fill="none" stroke="#000000" stroke-width="0" stroke-linecap="round" stroke-linejoin="round" x1="476.9" y1="281" x2="476.9" y2="281"/>
		<polygon points="446.5,338.7 446.5,338.7 446.5,338.7 		"/>
		<path d="M467,298.9c1.4-2.8,1.3-3.2,1.5-3.6c0.1-0.2,0.3-0.4,0.6-0.5l0,0v0c0.2,0,0.4,0,0.6,0.1c0.6,0.3,0.7,0.8,0.5,1.2
			c-0.2,0.3-0.6,0.5-2,3.3c-0.6,1.1-0.8,1.6-1.4,2.7c0,0.3,0,0.6,0,1c1-2,2.1-4.2,3-5.8c0.2-0.5,1-0.6,1.2-1
			c0.1-0.2-0.1-0.8-0.1-0.8s0.8-0.1,1.2-0.4c0.4-0.3-0.4-1,1.4-2.8c1.3-1.3,3.4-2,3.3-2.6c0-0.6-2.1-2.9-2.1-2.9s0.9-0.1,1.1-0.6
			c0.3-0.5,0.1-1.1,0.1-1.1l0.8-0.1v-4l-3.2,2.4l0.4,0.8c0,0-0.6,0.2-0.9,0.7c-0.3,0.5,0.2,1.3,0.2,1.3s-3.1-0.3-3.6,0
			c-0.4,0.3,0.2,2.4-0.1,4.2c-0.4,2.5-1.4,2.3-1.4,2.8c0,0.5,0.4,1.2,0.4,1.2s-0.6,0.2-0.7,0.4c-0.2,0.4,0.1,1.1-0.1,1.6
			c-0.3,0.6-0.6,1.3-1,2c0,0.3,0,0.6,0,0.9C466.9,299.1,467,299,467,298.9z M476.2,289.6c0,0.2-1.6,1-2.7,2
			c-1.1,0.9-1.2,1.4-1.4,1.9c-0.2,0.4-0.2,1.4-0.2,1.4l-0.9-0.1c0,0,0.3-0.8,1-2.1c0.8-1.6,3.1-3.3,3.1-3.5c0-0.2-0.7-1.9-0.7-1.9h0
			C474.4,287.2,476.2,289.4,476.2,289.6z M476.3,282.2L476.3,282.2l0,2.3l-1-0.5l-1-0.5L476.3,282.2z M473.7,284.9
			c0.2-0.3,0.5-0.5,0.8-0.5v0h0c0.2,0,0.4,0,0.6,0.1c0.5,0.3,0.8,0.9,0.5,1.4c-0.2,0.5-0.9,0.7-1.4,0.4
			C473.7,286,473.4,285.4,473.7,284.9z M473.9,287L473.9,287L473.9,287c0,0,0.7,1.6,0.7,2c0,0.3-2.1,1.7-3,3.5c-0.8,1.5-1,2.2-1,2.2
			l-0.5-0.2l-0.5-0.2c0,0,0.4-0.6,1.2-2.1c0.9-1.8,0.8-4.3,1.1-4.5C472.1,287.3,473.9,287,473.9,287z M468.6,293.2c0,0,0.8-0.5,1-1
			c0.2-0.5,0.7-0.9,0.7-2.3c0.1-1.5-0.2-3.2,0-3.3c0,0,0.3,0,0.5,0v0h0h0c0.9,0,2.4,0.1,2.4,0.1s-1.7,0.4-1.9,0.6
			c-0.2,0.2-0.2,3-1,4.6c-0.7,1.3-1.1,2-1.1,2L468.6,293.2z"/>
		<path d="M446.5,338.7c-0.4,0-0.7,0.3-0.8,0.5c-0.1,0.2-0.2,0.6,0,0.9c0,0-1-0.3-1.4-0.1c-0.3,0.2,0,5,0,5s4.1-2.6,4-2.9
			c-0.1-0.4-0.9-1-0.9-1c0.3-0.1,0.6-0.3,0.7-0.5c0.1-0.1,0.1-0.3,0-0.5c-0.4-0.4-0.9-0.7-1.3-1.1
			C446.8,338.6,446.7,338.6,446.5,338.7z M447.7,341.9l-2.8,2v-3.4v0c0,0,0.8-0.1,1.6,0.3C447.3,341.2,447.7,341.9,447.7,341.9z
			 M447.8,340.2c-0.1,0.3-0.6,0.3-1.1,0c-0.5-0.2-0.8-0.7-0.6-0.9c0.1-0.1,0.2-0.2,0.4-0.2v0c0.2,0,0.4,0,0.7,0.2
			C447.7,339.5,448,339.9,447.8,340.2z"/>
		<polygon points="476.9,281 476.9,281 476.9,281 		"/>
		<path d="M453.2,327.1c0,0.3,0,0.5,0,0.5c-0.4-0.4-0.8-1-1.3-1.7c0.2,0.8,0.7,1.4,0.7,1.4s-1.4,0.1-1.7,0.8
			c-0.2,0.5-0.2,1.1,0.1,1.6c0.5,0.3,1.1,0.6,1.5,0.9c0.7,0.1,1.4-0.3,1.7-0.8c0.4-0.7-0.4-1.9-0.4-1.9s0.1,0,0.2,0
			c-0.1-0.2-0.2-0.4-0.4-0.6c-0.1,0-0.2-0.1-0.3-0.1C453.3,327.2,453.2,327.2,453.2,327.1z M453.6,329.7c-0.3,0.5-1,0.7-1.7,0.3
			c-0.6-0.3-0.9-1-0.7-1.5c0.2-0.3,0.5-0.5,0.9-0.5v0c0.2,0,0.5,0.1,0.7,0.2C453.5,328.5,453.9,329.1,453.6,329.7z"/>
		<path d="M464.1,306.1c-0.6-0.3-0.3-0.9-0.3-0.9s0.5-0.9,1-1.9v-0.9c-0.6,1.1-1.1,2.2-1.6,3.1c-0.2,0.4-0.7,0.5-0.9,1
			c-0.2,0.4,0,1.1,0,1.1s-0.9,0.1-1.2,0.6c-0.3,0.6-0.1,1.5-0.1,1.5s-0.5,0.1-0.8,0.6c-0.3,0.6,0.2,0.9,0.1,1.1
			c-0.1,0.2-0.2,0.5-0.4,0.7v0.9c0.2-0.4,0.3-0.6,0.3-0.6s0.2-0.3,0.5-0.4l0,0h0c0.1,0,0.3,0,0.4,0.1c0.6,0.3,0.3,0.9,0.3,0.9
			s-0.7,1.3-1.5,3v1c0.8-1.5,1.6-3.1,2.3-4.6c0.1-0.2,0.6,0,0.9-0.6c0.3-0.5,0-1,0-1s0.8-0.3,1.1-1c0.3-0.6-0.2-1.3-0.2-1.3
			s0.4-0.2,0.7-0.5V306C464.7,306.1,464.4,306.2,464.1,306.1z M462.7,311.4c-0.2,0.3-0.8,0.4-1.3,0.1c-0.5-0.3-0.8-0.8-0.7-1.1
			c0.1-0.2,0.3-0.3,0.5-0.3h0c0.2,0,0.5,0,0.8,0.2C462.5,310.6,462.8,311.1,462.7,311.4z M463.8,309.6c-0.2,0.4-0.9,0.5-1.6,0.2
			c-0.7-0.3-1-1-0.8-1.4c0.1-0.3,0.5-0.4,0.9-0.4h0h0c0,0,0,0,0,0c0.2,0,0.5,0.1,0.7,0.2C463.7,308.6,464,309.2,463.8,309.6z
			 M464.6,307.7c-0.2,0.3-0.8,0.4-1.3,0.1c-0.5-0.3-0.8-0.8-0.7-1.1c0.1-0.2,0.3-0.3,0.5-0.3h0c0.2,0,0.5,0,0.8,0.2
			C464.4,306.8,464.8,307.3,464.6,307.7z"/>
		<path d="M456.1,326.1c-0.4,0.7-0.9,1.1-1.5,1.3c0.1,0.1,0.3,0.3,0.4,0.4c0.5-0.2,1.1-0.6,1.5-1.3c0.9-1.8,0.1-3.3,0.6-4.2
			c0.4-0.8,0.8-1.7,1.3-2.6v-1c-0.7,1.4-1.4,2.8-1.9,3.7C456.2,323.1,456.8,324.8,456.1,326.1z"/>
		<path d="M455.4,321.7c0.7-1.3,2-3.9,3.1-6v-0.9c-1.2,2.4-2.5,4.8-3.3,6.5c-0.3,0.6-1,0.8-1.7,1.4c0,0.2,0,0.5,0,0.7
			C454.2,322.7,455.1,322.3,455.4,321.7z"/>
		<path d="M418.9,364.5c1.6-2.9,6-6.2,10.6-8.9c0.6-0.4,1.3-0.7,1.9-1.1c-0.6-0.9-1.1-1.8-1.6-2.6c-2.5-4.3-4-7.8-3.8-8.9
			c0,0,2.7,4.3,5.5,8.1c0.6,0.8,1.2,1.6,1.8,2.3c0.7-0.4,1.4-0.8,2.1-1.1c4.7-2.4,8.5-4,8.5-4c-8-3.2-16.8-22.2-18.4-25.6
			c-0.5,0.2-1,0.4-1.4,0.7c1.5,3.6,8.5,19.5,15.3,24.8c-1.8,0.5-3.8,1.3-5.9,2.2c-2.6-3-5.2-7.1-7.4-10.7
			c-2.3-3.9-4.2-10.7-4.2-10.7c-1.1,2.6,1.2,15.8,5.9,24.1c-3.8,2-7.3,4.2-8.9,5.9c-1.6-1.8-5-3.9-8.8-5.9l0,0.4l-0.1,0.3l-0.8,1.7
			l-0.6,0.5C413.2,358.5,417.4,361.6,418.9,364.5z"/>
		<path d="M467.1,340.3l0,1.7c0.2,0.1,0.4,0.3,0.6,0.4C467.7,342.3,467.3,341.4,467.1,340.3z"/>
		<path d="M466.9,303.2c0-0.3,0-0.6,0-1c0,0.1-0.1,0.2-0.1,0.3c-0.7,1.3-1.7,3.2-1.7,3.2s-0.1,0.2-0.2,0.3v1.9v26.7h1l0.9,1.1
			l0.2,1.1C466.9,328.5,466.8,316.1,466.9,303.2z"/>
		<path d="M449.4,329.2c-1.5,0-2.2,0.7-3.1-0.9c-1-1.8-4.3-6.6-4.8-7.2c0.7,0,1.3-0.1,1.3-0.1c-0.7-0.7-2.3-3.8-3-5.1
			c-0.3,0.2-0.7,0.4-1,0.5c0.5,1,1.4,2.9,2.3,3.3c0,0-1.3,0.1-2.1-0.4c-0.1,0.8-0.3,2-0.3,2c-0.6,0-1.8-0.9-1.8-0.9
			c-0.2,0.6-0.7,2.4-0.7,2.4c-0.7-0.5-2.5-2.4-3.4-3.5c-0.5,0.2-1,0.4-1.5,0.7c1.3,1.1,4.7,4,5.6,5.7c0.1-0.3,0.1-0.6,0.2-1
			c0.9,1.2,5,6.6,7,9.4c0.6,0.8,0.6,1.7,1.2,2.5c0.6,0.8,1.2,1.4,1.8,2c0.4,0.4,0.9,0.7,1.3,1.1c0.1,0.1,0.1,0.1,0.2,0.2
			c0.5,0.4,1.8,0.2,2.1-0.1c0.4-0.4,2.9-3.6,2.9-3.6s0.2,0.2,0.3,0.6c0,0,1-1.3,1-2.2c0-0.8-0.4-1.9-0.8-2.7
			c-0.2-0.3-0.7-0.8-1.4-1.3c-0.5-0.3-1-0.7-1.5-0.9C450.3,329.4,449.8,329.2,449.4,329.2z M449.4,339.1l-2-1.7
			c-0.3-0.2-0.3-0.6,0-0.9c0.1-0.1,0.3-0.2,0.4-0.2c0.1,0,0.1,0,0.2,0c0.1,0,0.2,0,0.3,0.1l2,1.7c0.3,0.2,0.3,0.6,0,0.9
			C450.1,339.3,449.7,339.3,449.4,339.1z M449.2,334.9c0.1,0,0.2,0.1,0.3,0.1l2,1.7c0.3,0.2,0.3,0.6,0,0.9c-0.2,0.3-0.6,0.3-0.9,0.1
			l-2-1.7c-0.3-0.2-0.3-0.6,0-0.9c0.1-0.1,0.3-0.2,0.4-0.2v0l0,0C449.1,334.9,449.2,334.9,449.2,334.9z M450.3,333.6
			c0.1,0,0.3,0.1,0.3,0.1l2,1.7c0.3,0.2,0.3,0.6,0,0.9c-0.2,0.3-0.7,0.3-0.9,0.1l-2-1.7c-0.3-0.2-0.3-0.6,0-0.9
			c0.1-0.1,0.3-0.2,0.4-0.2v0l0,0C450.2,333.6,450.3,333.6,450.3,333.6z M451.2,332.9c0.1,0,0.1,0,0.2,0.1l0.8,0.7
			c0.1,0.1,0.1,0.3,0,0.4c-0.1,0.1-0.3,0.1-0.4,0l-0.8-0.7c-0.1-0.1-0.1-0.3,0-0.4C451.1,332.9,451.1,332.9,451.2,332.9z
			 M452.5,333.1c-0.5,0-0.9-0.6-2.4-1.1c-1.4-0.4-2.5,0-3.7-0.9c0.1,1.2,1.7,2.1,1.7,2.9c-1,0-1.6-0.7-1.6-0.7s0.1,0.8,0.1,1.5
			c0,0.7-0.8,1.1-0.8,1.1s-0.5-1.9-1-2.6c-2.2-3-6.6-9-7.4-10.1c0.2-0.8,0.3-1.4,0.3-1.4l1.8,1.2c0.5-0.6,0.5-2.2,0.5-2.2v0v0v0
			c0.2,0.1,0.4,0.2,0.6,0.2c0.3,0.5,3.7,5.7,5.8,8.9c0.5,0.8,3,0.2,3.3,0.2c1.3,0.3,3.2,1.7,3.4,2.2
			C453,332.6,452.7,333.1,452.5,333.1z"/>
		<path d="M459.9,316.8v-1c-0.4,0.9-0.9,1.8-1.4,2.8v1v11.6c0,0-1.9-1.9-3.4-3.5c-0.1-0.1-0.3-0.3-0.4-0.4c-0.3,0.1-0.7,0.1-1,0
			c0.1,0.2,0.2,0.4,0.4,0.6c1.3,2.2,3.5,5.2,6.4,6.5v-1c0.3,0.7,0.8,1.7,1.6,2.8l1.7-1c-1.7-1.6-3.8-4.6-3.8-6.1V316.8z"/>
		<path d="M388.2,267.1l3-2.8v-0.4c0-0.6-0.2-1.2-0.6-1.7l-2,1.9v-8c0.5-0.8,0.8-1.3,1.1-1.8c0.5,0.9,2.3,3.8,4.3,5.5
			c0.3-1.4,2.5-2.7,2.5-2.7s0.8,2.1,2,2.7c0.4-0.7,3-2.4,3-2.4h0c1.6,0.7,4,0.9,4.7,0.9c-0.8,0.6-1.7,1.1-2.7,1.6c0,0,3.8,0,6.5-1.4
			c1-0.6,1.9-1.2,2.8-2c-0.4,1-0.9,2.2-1.8,3.3c3.9-0.3,5.9-2.6,6.5-3.3c0.3,0.7,0.7,1.8,1.5,2.7c0.7-0.9,1.2-2,1.5-2.7
			c0.6,0.8,2.5,3,6.5,3.3c-0.9-1-1.5-2.2-1.8-3.3c0.8,0.7,1.8,1.3,2.8,2c2.7,1.3,6.5,1.4,6.5,1.4c-1-0.5-1.9-1-2.7-1.6
			c0.7,0,3.1-0.2,4.7-0.9c0,0,0,0,0,0c0,0,2.5,1.7,3,2.4c1.2-0.5,2-2.7,2-2.7s2.2,1.3,2.5,2.7c2-1.8,3.8-4.6,4.3-5.5
			c0.3,0.5,0.6,1,1.1,1.8v8l-2-1.9c-0.3,0.5-0.6,1.1-0.6,1.7v0.4l3,2.8l2.5-2.3v56.5c-2.4-2.1-4.6-10.6-5.5-14.2v1.7
			c0,0.5-0.1,1-0.2,1.4c0.9,3.3,3.2,11.8,5.4,15.7c0.4,0.8,0.9,1.4,1.3,1.7c0,0,0-0.3,0-0.5c-0.7-0.5-1.1-1.6-0.5-2.8
			c0.2-0.4,0.4-0.6,0.7-0.9c0-0.3,0-0.5,0-0.7c0-0.8,0.1-1.3,0.1-1.3v-56.5l2.5,2.3l2.5-2.3v0v0v50v0.9c0.6-1.1,1.1-2.2,1.4-2.8V312
			v-47.2l2.5,2.3l2.4-2.3v37.5v0.9c0.2-0.5,0.5-1,0.7-1.4c0.6-1.2,0.9-1.7,1.3-2.6c0-0.3,0-0.6,0-0.9c0-14.8,0-29.5,0.1-38.8
			l-0.2,0.1l-0.6,0.9l-0.6,0.5l-0.8-0.6v1.7l-2,1.9v-6.9l0.8,0.8l-0.4-1.1l-0.5-1.1l-0.7-3.3l0.7-2.2l0,0v-0.1l1.3-2.4
			c0.1,0.1,0.1,0.3,0.2,0.4l1.2-2.1c-1.9-3.2-5.5-7.2-9.8-10c-4.3,2.5-8.9,8.2-10.6,8.6c0,1.5,0.6,3,0.6,4.6v3c-4,0.2-5.7,2-9,3.9
			c-1.9,1.1-4.6,1.9-5.2,2.1c-1.3-0.9-2.3-2-3.1-3.2c-1.8-2.9-2.6-6.5-2.6-10.1c0-1.5,1.7-3.3,1.7-4.5c0-1.9-0.2-3-0.2-3
			c0.6,0.1,1.7,1.2,1.7,1.2s0-3.1-1-3.7c0,0,0.4-0.4,1.8-0.5c-0.4-1-2.4-2.3-2.4-2.3c0.1-0.2,0.3-0.3,0.5-0.5
			c0.5-0.3,1.2-0.5,1.7-0.6c-0.6-0.1-1.2-0.3-2-0.5c-1.7-0.5-3.6-1.3-5.4-2.2c-3.3-1.6-5.9-1.7-7.3-1.7v0h0h0c-1,0-2.5,0-3.4,0.6
			c-0.8,0.5-0.7,1.2-1,1.5c-0.7,0.6-1.8,0.6-2.3,0.6c-1,0-1.8,0.3-2.3,0.8c-0.2,0.1-0.3,0.3-0.4,0.4c-0.9,1.1-0.9,2.6-0.9,2.6
			s0.3-0.5,0.9-0.9c0.1-0.1,0.3-0.2,0.4-0.2c0.3-0.1,0.7-0.2,1.1-0.2c2.7,0,4.7,1.4,4.7,2c0,0.2-0.3,0.3-0.3,0.3
			c-1.6,0-4.1-0.9-5.5-1c-0.1,0-0.2,0-0.2,0v0.6c0,0,0,0,0.1,0c0,0,0,0-0.1,0v0.1c0.1,0,0.2,0.1,0.2,0.1c3,1.1,6,2.7,6,9.3
			c0,4.3-0.5,8.6-2.6,12c-0.8,1.2-1.8,2.2-3.1,3.2c-0.6-0.2-3.3-1-5.2-2.1c-3.3-1.9-5.1-3.7-9-3.9v-3c0-1.6,0.6-3.1,0.6-4.6
			c-1.7-0.4-6.3-6.1-10.6-8.6c-6.3,4.1-11.2,10.8-11.2,13.8c0,0,0,2.7,0,7.1l0,0l0.4,0.1h1.5l0.8,0.3l0.8,0.4l0.8-0.7v1.4l0,0
			l0.4,0.8l-0.4,0.4l0,0.1v2.9l0.4,0.3l-0.4,2.6l0.8,0.5l0.4,0.3l1.8-1.6v5.2l0,0l0.7,1.2l0.4,0.2l0.3,0.1v-6.7l2.5,2.3l2.5-2.3v9.5
			l0.9,1.5l-0.1,1.1l0.6,1.1l0,0v-13.2L388.2,267.1z M385.5,257v-7.4v0c0.4,0.6,2,3.2,3.5,4C388.4,254.2,387,256.1,385.5,257z
			 M393.8,258.1c-0.6-0.2-1.6-2.6-1.9-3.5c0.6-0.1,1.3-0.1,2.4-0.1c0.9,0,2.1,0.4,3.3,1c0,0,0,0,0,0
			C397.5,255.5,394.3,257,393.8,258.1z M398.5,258.6c-0.8-0.2-0.9-3.1-0.9-3.1c1.3,0.6,2.7,1.4,4,2
			C401.5,257.5,399.3,257.8,398.5,258.6z M423.5,252v-7.5h-0.8v7.5c0,1.4,0.3,2.1,0.3,2.1c0.5,1.6,1.5,4,2.1,5
			c-2.9-1.6-4.4-3.6-4.4-4.3v-10.3h-0.8v10.4l0.2,0.7c-0.4,0.5-0.8,1.2-1.1,1.4c-0.3-0.2-0.8-0.8-1.1-1.4l0.2-0.7v-10.4h-0.8v10.3
			c0,0.7-1.5,2.7-4.4,4.3c0.6-1,1.6-3.4,2.1-5c0,0,0.3-0.7,0.3-2.1v-7.5h-0.8v7.5c0,2-2.4,4.1-5.5,5.8c0.7-0.6,1.1-1.5,1.5-2.3
			c1.2-2.1,2.7-4.7,2.7-12.3c0-2.8-0.4-4.8-1.2-6.1c-0.2-0.4-0.5-1.6,1.2-1.6c0.9,0,2.9,1.6,2.9,1.6s-0.1-1.2-1.1-2
			c-0.2-0.1-0.5-0.5-0.5-0.8c0-0.2,0.3-0.7,0.6-0.9c-0.5,0-1-0.3-1.2-0.6c-1-0.4-2.1-1-2.1-1.9c0-0.3,0.2-0.6,1-0.6
			c0.6,0,1.5,0.5,2.5,0.8c0.3,0,0.6,0.1,0.8,0.3c0.3,0.1,0.5,0.1,0.8,0.1c1.1,0,1.5-0.3,2.6-0.3c1.3,0,4.2,2.6,5.1,2.5
			c-1.1-0.7-2.8-3.2-5.4-3.2c-0.9,0-1.7,0.2-2.6,0.2c-1.1,0-2.2-1-3.3-1c-0.8,0-1.7,0-1.8-0.2c-0.2-0.4,0-0.6,0.2-0.9
			c0.4-0.6,1.5-0.7,2.6-0.8c0.3,0,0.7,0,1,0v0h0h0l0,0c0.3,0,0.6,0,0.8,0c3.3,0,5.6,1.5,8.6,2.9c0.8,0.4,1.5,0.6,2.2,0.9
			c-0.4,0.4-0.7,0.7-0.8,1c0,0,1.4,0.3,2,1.4c0,0-1.3,0.1-1.5,0.9c0.7,0.1,1.5,1,1.5,1.9l-1.9-0.6c0,0,0.5,2.1,0.5,4.4
			c0,1.2-1.7,2.5-1.7,4.5c0,6.2,1.6,8.6,2.7,10.5c0.4,0.7,0.8,1.6,1.5,2.3C425.9,256.1,423.5,254,423.5,252z M444.1,258.1
			c-0.6-1.1-3.7-2.7-3.7-2.7s-0.2,3-0.9,3.1c-0.9-0.8-3-1.2-3-1.2c1.3-0.6,2.7-1.4,4-2c1.2-0.6,2.4-1,3.3-1c1,0,1.8,0.1,2.4,0.1
			C445.7,255.6,444.7,258,444.1,258.1z M448.9,253.5c1.5-0.8,3.2-3.4,3.5-4v0v7.4C450.9,256.1,449.4,254.2,448.9,253.5z
			 M451.4,262.8l-1.3,1.3v-6.8c0.7,1,1.5,1.9,2.3,2.4v2.3L451.4,262.8z M454.2,262.8l-1-1v-2.4l2.3-2.2v6.8L454.2,262.8z
			 M455.6,254.6l-2.3,2.2v-6.9l2.3,2.3V254.6z M457.8,262.8l-1.3,1.3v-6.8l1.3,1.3l1,0.9v2.4L457.8,262.8z M456.4,254.6v-2.7
			l2.3-3.6v0v8.5L456.4,254.6z M461.9,264.1l-1.3-1.3l-1-0.9v-2.5l1-0.9l1.3-1.3V264.1z M461.9,254.6l-2.3,2.2v-7.8l2.3,2.5V254.6z
			 M461.6,249.3c0,0-2.3-2.4-2.9-3v-0.8c0-0.7-0.4-1.4-0.9-2l-0.8,0.3c0.4,0.5,0.9,1.2,0.9,1.8v0.9l-2.5,3.8l-2.1-2.3l-0.1-0.2
			l-0.3-0.3v-0.4c0-0.7-0.4-1.3-0.7-1.6l-0.9,0.3c0.3,0.3,0.7,0.8,0.7,1.5v0.7c-0.9,1.2-2.7,3.6-4.1,4.1v-5.3l0.1-1.8
			c2-0.7,7.8-6,7.8-6v0c2.7,2,5.6,4.7,7.3,7.1C462.8,246.8,461.6,249.3,461.6,249.3z M407.1,231.4c-1,0-1.7,0.4-1.7,0.4l0,0l0,0h0
			l0,0c0,0,0.7-1.3,2.4-1.3c0.7,0,3.1-0.1,3.1-0.1c0.3,0.8,1.8,2.2,1.8,3.7C412.7,234.1,411.3,231.4,407.1,231.4z M408.7,234.1
			c0,0,1.3,0.8,3.5,0.5h0c0,0-0.9,0.9-1.1,1.4C410.2,235.7,408.7,234.1,408.7,234.1z M382.1,239L382.1,239L382.1,239
			C382.1,239,382.1,239,382.1,239z M375.1,254.6l-2,1.9V250c0-0.6,0.3-1.4,0.7-2.2l1.3,2.4V254.6z M378.3,261.9l-1,0.9l-1.3,1.3
			v-6.8l1.3,1.3l1,0.9V261.9z M378.3,256.8l-2.3-2.2v-3.2l2.3-2.5V256.8z M381.4,264.1l-1.3-1.3l-1-0.9v-2.4l1-0.9l1.3-1.3V264.1z
			 M381.4,254.6l-2.3,2.2v-8.5l2.3,3.6V254.6z M384.6,261.9l-1,1l-1.3,1.2v-6.8l2.3,2.2V261.9z M384.6,256.8l-2.3-2.2v-2.4l2.3-2.3
			V256.8z M385.1,247.2v0.4l-0.3,0.3l-0.1,0.2l-2.1,2.3l-2.5-3.8v-0.9c0-0.6,0.5-1.3,0.9-1.8l-0.8-0.3c-0.4,0.6-0.9,1.3-0.9,2v0.8
			c-0.6,0.6-2.9,3-2.9,3s-1.2-2.5-1.5-3.2c1.8-2.4,4.6-5.2,7.3-7.1v0c0,0,5.8,5.4,7.8,6l0.1,1.8v5.3c-1.4-0.5-3.2-2.8-4.1-4.1v-0.7
			c0-0.7,0.4-1.2,0.7-1.5l-0.9-0.3C385.4,246,385.1,246.5,385.1,247.2z M385.5,261.9v-2.3c0.8-0.5,1.6-1.4,2.3-2.4v0h0v6.8l-1.3-1.3
			L385.5,261.9z"/>
		<path d="M415.9,328.7c0,0-1.7,6.1-3.9,10.1l0.4,0.8l0.2,0.2l0.2-0.1l0.2,0.1l0.1,0.7v2.6l-0.1,0.7l-0.4,0.6l-0.8,0.4l0.4,1.1
			l-0.3,0.4l-0.5,0.2l-0.4,0.4l-0.4,2.5l-0.3,0.4l-0.7,0.2l-0.1,0.6l0.4,1.7l0,0.5C414.7,344.4,417,331.3,415.9,328.7z"/>
		<path d="M412.2,322.5c-0.1,0.3-0.3,0.6-0.5,1l0.5,1l0.3,1.1c0.5-1.1,0.8-1.9,1.1-2.5C413.2,322.9,412.7,322.7,412.2,322.5z"/>
		<path d="M445.9,261.6L445.9,261.6L445.9,261.6C445.9,261.6,445.9,261.6,445.9,261.6z"/>
		<path d="M391.9,261.6C391.9,261.6,391.9,261.6,391.9,261.6L391.9,261.6L391.9,261.6z"/>
		<polygon fill="#F5D402" points="476.3,284.5 476.3,282.2 476.3,282.2 474.4,283.5 475.4,284 		"/>
		<path fill="#F5D402" d="M474.2,286.3c0.5,0.3,1.2,0.1,1.4-0.4c0.2-0.5,0-1.1-0.5-1.4c-0.2-0.1-0.4-0.1-0.6-0.1h0v0
			c-0.3,0-0.6,0.2-0.8,0.5C473.4,285.4,473.7,286,474.2,286.3z"/>
		<path fill="#F5D402" d="M446.5,340.8c-0.8-0.4-1.6-0.3-1.6-0.3v0v3.4l2.8-2C447.7,341.9,447.3,341.2,446.5,340.8z"/>
		<path fill="#F5D402" d="M452.9,328.1c-0.2-0.1-0.5-0.2-0.7-0.2v0c-0.4,0-0.8,0.2-0.9,0.5c-0.3,0.5,0,1.2,0.7,1.5
			c0.6,0.3,1.4,0.2,1.7-0.3C453.9,329.1,453.5,328.5,452.9,328.1z"/>
		<path fill="#F5D402" d="M474.4,287.2c0,0,0.6,1.6,0.7,1.9c0,0.3-2.3,2-3.1,3.5c-0.7,1.3-1,2.1-1,2.1l0.9,0.1c0,0-0.1-1,0.2-1.4
			c0.2-0.5,0.3-1.1,1.4-1.9c1.2-0.9,2.7-1.7,2.7-2C476.2,289.4,474.4,287.2,474.4,287.2L474.4,287.2z"/>
		<path fill="#F5D402" d="M470.2,296.2c0.2-0.4,0.1-0.9-0.5-1.2c-0.2-0.1-0.4-0.1-0.6-0.1v0l0,0c-0.3,0-0.5,0.2-0.6,0.5
			c-0.2,0.3-0.1,0.8-1.5,3.6c-0.1,0.1-0.1,0.3-0.2,0.4c-0.5,0.9-0.7,1.5-1.3,2.6c-0.2,0.4-0.5,0.9-0.7,1.4c-0.5,1-1,1.9-1,1.9
			s-0.3,0.6,0.3,0.9c0.3,0.2,0.5,0.1,0.7,0c0.2-0.1,0.2-0.3,0.2-0.3s1-1.9,1.7-3.2c0.1-0.1,0.1-0.2,0.1-0.3c0.6-1.1,0.8-1.6,1.4-2.7
			C469.6,296.7,470.1,296.5,470.2,296.2z"/>
		<path fill="#F5D402" d="M446.5,339.1L446.5,339.1c-0.2,0-0.4,0.1-0.4,0.2c-0.1,0.3,0.1,0.7,0.6,0.9c0.5,0.2,1,0.2,1.1,0
			c0.1-0.3-0.1-0.7-0.6-0.9C447,339.2,446.7,339.1,446.5,339.1z"/>
		<path fill="#F5D402" d="M470.8,292.1c-0.8,1.5-1.2,2.1-1.2,2.1l0.5,0.2l0.5,0.2c0,0,0.2-0.6,1-2.2c0.9-1.8,3-3.2,3-3.5
			c0-0.3-0.7-2-0.7-2v0h0c0,0-1.8,0.3-2,0.6C471.6,287.8,471.7,290.2,470.8,292.1z"/>
		<path fill="#F5D402" d="M470.4,291.9c0.8-1.6,0.8-4.5,1-4.6c0.2-0.1,1.9-0.6,1.9-0.6s-1.5-0.1-2.4-0.1h0h0v0c-0.3,0-0.5,0-0.5,0
			c-0.2,0.1,0.1,1.9,0,3.3c-0.1,1.4-0.5,1.8-0.7,2.3c-0.2,0.4-1,1-1,1l0.7,0.7C469.3,293.9,469.7,293.2,470.4,291.9z"/>
		<path fill="#F5D402" d="M463.9,306.5c-0.3-0.1-0.6-0.2-0.8-0.2h0c-0.2,0-0.4,0.1-0.5,0.3c-0.2,0.3,0.1,0.8,0.7,1.1
			c0.5,0.3,1.1,0.2,1.3-0.1C464.8,307.3,464.4,306.8,463.9,306.5z"/>
		<polygon fill="#F5D402" points="462.3,308 462.3,308 462.3,308 		"/>
		<path fill="#F5D402" d="M463,308.2c-0.2-0.1-0.5-0.2-0.7-0.2c-0.4,0-0.7,0.1-0.9,0.4c-0.2,0.4,0.1,1.1,0.8,1.4
			c0.7,0.3,1.4,0.3,1.6-0.2C464,309.2,463.7,308.6,463,308.2z"/>
		<path fill="#F5D402" d="M461.1,312c-0.2-0.1-0.3-0.1-0.4-0.1h0l0,0c-0.3,0-0.5,0.4-0.5,0.4s-0.1,0.2-0.3,0.6
			c-0.3,0.6-0.8,1.6-1.4,2.8c-1.1,2.1-2.4,4.7-3.1,6c-0.3,0.6-1.3,1-2,1.7c-0.3,0.3-0.5,0.5-0.7,0.9c-0.6,1.2-0.3,2.3,0.5,2.8
			c0.1,0,0.1,0.1,0.2,0.1c0.1,0,0.2,0.1,0.3,0.1c0.3,0.1,0.7,0.1,1,0c0.6-0.2,1.1-0.6,1.5-1.3c0.7-1.3,0.1-2.9,0.5-3.7
			c0.4-0.8,1.1-2.2,1.9-3.7c0.5-0.9,1-1.9,1.4-2.8c0.9-1.7,1.5-3,1.5-3S461.7,312.3,461.1,312z"/>
		<path fill="#F5D402" d="M462,310.3c-0.3-0.1-0.6-0.2-0.8-0.2h0c-0.2,0-0.4,0.1-0.5,0.3c-0.2,0.3,0.1,0.8,0.7,1.1
			c0.5,0.3,1.1,0.2,1.3-0.1C462.8,311.1,462.5,310.6,462,310.3z"/>
		<path fill="#CC092F" d="M412.7,234.1c0-1.4-1.5-2.8-1.8-3.7c0,0-2.4,0.1-3.1,0.1c-1.7,0-2.4,1.3-2.4,1.3c0,0,0.7-0.4,1.7-0.4
			C411.3,231.4,412.7,234.1,412.7,234.1z M410.7,232.1L410.7,232.1L410.7,232.1c0,0-1-0.3-1-0.7c0-0.4,0.5-0.4,0.8-0.1
			C410.7,231.6,410.7,232.1,410.7,232.1L410.7,232.1L410.7,232.1z"/>

			<ellipse transform="matrix(0.8222 -0.5692 0.5692 0.8222 -59.8422 271.9782)" fill="#CC092F" cx="405.4" cy="231.8" rx="0" ry="0"/>
		<rect x="410.7" y="232.1" width="0" height="0"/>
		<path d="M409.7,231.5c0,0.3,1,0.7,1,0.7c0,0,0-0.5-0.2-0.8C410.2,231,409.7,231,409.7,231.5z"/>
		<path fill="#D10429" d="M411.1,236c0.2-0.5,1.1-1.4,1.1-1.4h0c-2.2,0.3-3.5-0.5-3.5-0.5S410.2,235.7,411.1,236z"/>
		<path d="M416.6,232.2C416.6,232.2,416.6,232.2,416.6,232.2c0-0.4-0.2-0.7-0.5-0.9c-0.2-0.2-0.5-0.2-0.8-0.3c0,0,0,0-0.1,0
			c-0.8,0-1.5,0.5-1.5,1.2c0,0,0,0,0,0c0,0.2,0.1,0.4,0.2,0.5c0.2,0.4,0.7,0.6,1.2,0.6c0,0,0.1,0,0.1,0
			C415.9,233.3,416.6,232.8,416.6,232.2z M414.1,232.2c0-0.6,0.5-1,1-1c0.6,0,1,0.5,1,1c0,0.6-0.5,1-1,1
			C414.5,233.2,414.1,232.7,414.1,232.2z"/>
		<path fill="#F5D402" d="M416.1,232.2c0-0.6-0.5-1-1-1c-0.6,0-1,0.5-1,1c0,0.6,0.5,1,1,1C415.7,233.2,416.1,232.7,416.1,232.2z
			 M414.7,232.2c0-0.2,0.2-0.4,0.4-0.4c0.2,0,0.4,0.2,0.4,0.4c0,0,0,0,0,0c0,0.2-0.2,0.4-0.4,0.4
			C414.9,232.6,414.7,232.4,414.7,232.2C414.7,232.2,414.7,232.2,414.7,232.2z"/>
		<path d="M415.1,232.6c0.2,0,0.4-0.2,0.4-0.4c0,0,0,0,0,0c0-0.2-0.2-0.4-0.4-0.4c-0.2,0-0.4,0.2-0.4,0.4c0,0,0,0,0,0
			C414.7,232.4,414.9,232.6,415.1,232.6z"/>
		<path fill="#F5D402" d="M413.6,323.1c2.3,1.1,3.7,2.1,5.3,4.1c1.6-2,3-2.9,5.3-4.1c0.4-0.2,0.9-0.4,1.4-0.7
			c0.4-0.2,0.9-0.4,1.4-0.6c1.3-0.6,2.8-1.2,4.2-1.9c0.5-0.2,1-0.4,1.5-0.7c2.1-0.9,4.2-1.9,6.1-2.9c0.3-0.2,0.7-0.4,1-0.5
			c1-0.5,2-1.1,2.8-1.6c1.3-0.8,2.5-2,3.1-2.8c0.3-0.4,0.6-0.8,0.7-1.3c0.1-0.4,0.2-0.9,0.2-1.4v-1.7v-4.2v-38.6v-0.4
			c0-0.6,0.2-1.2,0.6-1.7c0.7-1.2,1.9-2,1.9-2h-2.6h-1.5h-26h-26h-1.5h-2.6h0h0c0,0,1.2,0.9,1.9,2c0.3,0.5,0.6,1.1,0.6,1.7v0.4v23.5
			l0.3,0.3l1.1,1.2v0v0v0v-25.4c0-1.3-0.6-2.1-0.7-2.3c0,0,0,0,0,0h0h1h26h26h1h0c0,0,0,0,0,0c-0.1,0.1-0.7,0.9-0.7,2.3v25.4v0v13.6
			v5.9c0,1-1,3.3-6.9,6.2c-9.7,4.8-17.2,7.1-19.4,9.8c-1.3-1.7-4.6-3.1-9.1-5.1l1.1,2.1c0.5,0.2,0.9,0.4,1.3,0.6
			C412.7,322.7,413.2,322.9,413.6,323.1z"/>
	</g>
	<polygon fill="none" stroke="#999999" stroke-width="0.25" stroke-linecap="round" stroke-linejoin="round" points="517.7,343.6
		516.9,343.7 516.3,344.2 515.4,343.1 512.8,341 513.3,340.3 512.6,338.9 512.2,338.4 511.8,338.1 511.4,338.1 510.7,338.5
		510.4,338.6 510.1,338.5 509.9,337.7 509.8,337.5 507.3,336.4 506.5,335.4 506.3,333.6 507.3,333.5 508.6,333.3 509.2,331.5
		509.1,330.7 508.4,329 508.2,328.2 508.2,327.1 508.4,326.3 508.7,325.6 508.9,324.6 509.4,319.5 509.3,318 509,317.4 508.4,316.2
		508.2,315.6 508.1,314.8 508.1,313.1 508,312.5 507.3,312.1 506.7,312.4 506.2,312.7 505.8,312.6 505.5,312.2 505,310.7
		504.8,310.2 503.1,308.8 501.5,308.6 499.9,308.7 498.1,308.5 497,307.7 495.7,305.5 494.8,304.6 494,304.3 492.1,304.1
		491.2,303.8 490.7,303.3 489.8,302.4 489.4,302.1 487.9,302.2 487.6,302.1 487.1,301.2 487.2,300.2 487.5,298.9 487.9,295.9
		488.6,295 489.3,294.2 489.7,293.1 489.6,291.8 489.2,290.6 488.6,289.8 487.8,289.3 486.7,289.4 486.1,290.3 485.6,291.4
		485,291.8 484.5,291.4 482.8,288.1 482.6,287.8 482.6,287.2 482.8,287 484.3,286.9 485.5,286.5 486.3,285.5 486.7,283.5
		486.1,279.1 486.3,277.4 487.7,276.7 488.4,275.2 488.3,273.3 487.8,271.4 487,270 486.1,269.1 485,268.7 483.9,268.6 482.8,268.8
		482.2,270.1 481.9,271.3 481.5,272.5 480.3,273.3 479.3,273.6 478.4,273.5 477.6,273.1 476.8,272.4 476,271.1 475.9,269.9
		475.9,268.7 475.6,267.4 474.9,266.3 474,265.9 473.2,265.7 472.4,265.2 471.9,264.4 471.6,263.4 471.2,262.5 469.5,261.4
		468.5,259.6 467.6,259.2 466.7,259.6 466.1,260.5 465.6,261 464.6,260.3 464.1,259.4 463.2,256.9 462.7,255.9 462,252.5
		462.7,250.3 464.2,248.4 465.6,245.9 466.2,242.7 466.1,239.7 466.4,237.1 468.1,234.9 468.8,233.9 468.6,232.9 467.8,232.3
		465.9,231.6 465.4,231 465.4,230.1 465.9,228.6 466.6,227.7 467.6,226.5 468.5,225.3 468.7,224.2 468.1,223.8 465.9,223.1
		465.1,222.4 464.7,221.2 464.2,218.3 463.8,217 463.2,216 462.5,215.3 461.7,215 460.7,215 458.9,215.9 456.4,219.2 454.4,219.6
		452.7,218.9 450.7,217.3 448.8,215.3 447.3,212.7 446.4,211.8 446.1,211.3 446,210.8 445.8,208.6 445,206.4 444.8,205.8
		444.8,205.2 444.6,204.6 444.3,204 442.7,202.9 440.7,202.5 436.8,202.5 431.6,200.3 429.7,200.3 428.4,200.8 427.4,203.9
		427,205.7 427,207.1 426.7,207.9 426.2,207.9 425,207.2 424.3,206.5 422.7,203.1 423.6,202.1 423.7,200.8 423.1,199.6 422.3,199
		421,199.2 420.3,200.2 419.7,201.5 418.8,202.5 417.6,202.7 416.9,202 416.9,200.8 417.2,199.4 418,198.4 418.8,197.9 419.4,197.1
		419.9,195.4 419.7,193.8 419.2,193 418.2,192.9 415.5,193.2 414.6,193.8 413.7,194.6 412.5,195.3 411.1,195.6 410.2,195.3
		409.6,194.3 409.4,192.7 409,191.3 408.1,191.4 406.3,192.9 405.4,193.1 404.2,193 403.4,192.4 404.5,189.1 404.2,187.6
		403.3,186.5 402.2,185.9 397.1,185.3 394.9,184.4 393.6,182.5 393.2,182 391.4,179.3 390.5,178.4 386.9,175.7 385,174.8 378,174.9
		376.8,174.3 376.7,172.1 375.5,172 374,173 373.4,173.1 371,173.1 369.7,174.9 366.3,177.8 365.4,178.3 364.6,178 363,176.5
		361.9,176.2 359.9,177.3 356.5,181.5 354.3,182.7 352.5,182.6 346.5,180.3 345.3,179.6 344.7,179.4 344,179.6 344,180.3 344.1,181
		344.1,181.5 344.2,181.9 344.4,182.4 344.5,182.8 344.2,183 343.5,182.9 342.8,183 342.5,182.7 342.1,182.7 341.5,183.2
		339.4,183.6 337.4,182.4 335.5,180.8 333.7,180 333,180.2 332.8,180.7 332.7,181.3 332.2,181.8 331.8,181.8 330.8,181.5
		330.5,181.5 329.9,182.3 330,183.1 330.3,184.1 330.6,185.7 330.6,187.4 330.4,188.5 329.8,189.1 328.6,189.1 327.6,188.6
		326.9,187.7 326.2,186.7 325.5,185.8 324.3,185.4 324,186.1 323.7,187.2 321.8,188.4 321.2,189.4 320.8,190.8 320.8,191.5
		323.5,190.2 324.7,190.1 326,191.3 326.7,191.4 327.2,190.5 327.9,191.8 329,192 331.3,191.5 332.3,192 333.6,193.7 334.3,193.3
		336.7,195.7 337,196.3 337.2,197.7 337.8,197.4 338.4,196.5 338.9,196 339.6,196.7 339.9,197.7 340.4,198.6 342.3,199.4
		342.3,200.1 341.6,200.7 340.5,200.8 340.5,201.6 342.1,202.5 343.1,202.8 343.8,202.3 344.3,202.5 344.8,202.9 345.1,203.3
		345.1,203.8 344.5,204.6 344.4,205 344.8,207.1 345.8,208.7 347.2,209.9 348.7,210.8 348.7,211.4 347.5,211.9 347.6,212.3
		347.7,212.6 347.8,212.8 348,213.1 349.4,212.4 350.1,213.5 350.6,214.6 351.4,214.2 352,215 352.1,215.8 351.7,216.5 351.1,217.1
		352.3,218 352.6,218.2 352.6,218.7 351.6,220.1 352.3,220.9 353.6,221.6 354.6,222.8 354.6,223.1 354.6,225.7 354.6,226.2
		355.1,226.6 355.8,226.8 356.5,227.3 356.9,228 355,229.2 355.6,229.8 356.4,231 357,232.3 357.3,233 357.5,233.4 358.5,234.1
		358.8,234.4 359,235.3 359,236.2 359.2,236.8 359.2,237.3 358,237.5 358.5,239.4 359.7,241.6 363.4,246.4 365,248.1 366.8,248.7
		367.2,250.5 367.4,251 367.5,251.2 367.5,252 367.6,252.4 367.8,252.5 368.5,252.6 368.6,252.7 369,254.9 369.4,256.1 370,256.6
		370.5,256.7 370.7,256.9 371,257.1 371.3,257.2 372.8,257.2 373.6,257.5 374.4,258 375.1,258.6 375.6,259.4 375.1,259.8
		374.9,260.4 374.6,261.3 374.5,262.2 375.5,263.1 375.1,265.7 375.8,266.2 376.6,266.8 378,270.1 378.7,271.3 379.1,271.5
		380.6,271.8 381.2,272.2 381.6,272.5 382.1,272.8 383.5,273.2 384.1,273.8 385.2,275.8 385.1,276.9 385.7,277.9 387.1,279.8
		387.8,282.1 387.9,282.1 388.1,282.8 388.2,283.3 388.1,283.6 387.5,283.8 388.1,284.7 390.6,286.1 390.6,286.7 390.3,287.3
		390.5,287.5 391,287.7 391.5,288.1 393.2,290 394.8,291.1 395.5,291.7 395.5,292.9 396.9,293.2 398.2,294 399.4,294.6 400.6,294
		401.1,295.4 402.9,297.7 403.7,299.1 404.8,302.1 405,303.5 404.5,304.8 405.4,305.4 405.4,306.3 405.4,307.3 406,308.1 406,308.7
		405.9,310.4 406.8,312.7 409.1,316.6 409.1,318.2 412.3,324.6 412.8,326.8 413,328 413,329.1 412.6,330 412.2,330.9 411.9,332.1
		412.4,333.4 411.9,333.8 411.7,334.4 411.6,337.5 411.7,338.1 412.4,339.5 412.6,339.8 412.8,339.7 413,339.8 413.1,340.5
		413.1,343 413,343.7 412.7,344.4 411.9,344.8 412.3,345.9 412.1,346.4 411.6,346.6 411.2,346.9 410.8,349.4 410.6,349.8 409.9,350
		409.7,350.6 410.1,352.3 410.1,353.2 410.1,353.5 409.3,355.2 408.6,355.9 408.1,356.2 407.4,356.4 406.9,356.7 406.7,357.2
		406.9,358.6 406.7,359 406.1,359.1 405.4,359.4 405.6,360.1 406.6,361.8 406.9,362.3 407.3,362.9 407.5,363.6 406.9,365.5
		406.5,367.5 405,371.8 404.6,372.1 404.5,372.6 404.5,373 404.8,373.2 404.8,373.6 404.1,376.5 404,377.2 404.2,378.4 405.6,382.4
		405.7,383.3 405.8,383.8 406.2,384.4 406.4,385 406.2,385.7 406,386.3 405.9,387 406.1,387.5 406.6,388.6 406.7,388.9 406.5,389.3
		405.7,389.9 405.4,390.3 405.6,392.6 406.4,395.1 407.4,397 407.9,397.8 408.4,405.9 408.3,407.2 408.6,408.3 407.8,408.7
		405.9,408.7 405.2,409 404.3,409.7 403.4,410.5 402.7,411.4 405.8,413.1 407.1,414.1 408,415.8 408.2,416.3 408.4,416.4
		408.4,416.6 408.4,419.3 408.9,420.2 410.4,422 410.1,421.3 410.6,420.3 411.1,419.4 414,417.1 418.1,417.4 422.3,418.5 426,418.7
		427.2,418.1 427.5,417.2 427.1,414.5 427,414.4 427,414.1 427.3,413.4 427.7,413.2 429.2,412.4 428.4,411.4 428.2,410.2
		428.1,409.1 427.7,408 427,407.2 426.2,406.7 425.7,406.1 426.1,405.2 427.4,403.2 428,402.6 429,401.9 430.7,401.4 431,400.8
		430.6,399.3 431.5,397.8 435.3,397.5 436.8,396.6 437,395.8 436.9,395 436.8,394.3 436.8,393.8 437.2,393.4 438.8,393.1
		439.9,392.4 440.6,391.7 440.9,390.7 441,389 440.8,387.7 440,384.8 440,383.5 440.7,382.3 441.7,381.6 451.5,379.1 452.9,378.4
		453.1,376.8 452.1,373.3 451.9,371.3 452.4,370 454.3,367.8 455.6,365.6 456.2,363.7 455.9,361.9 452.6,358.8 451.6,357.5
		451.6,356.4 452,355.2 452.4,353.7 452.3,352.4 451.3,348.5 450.9,345.5 451.2,343.2 452.4,341.5 456.6,338.6 459.6,337.5
		464.6,334.6 465.8,334.6 466.7,335.8 467.1,337.6 467.1,344.4 467,345.4 466.6,346.2 466.1,347 465.8,347.8 465.8,348.6
		466.8,349.4 468.1,348.6 470.1,346.4 470.8,346.1 471.2,346.3 471.5,346.1 472,345.1 472,344.4 471.7,342.7 471.9,341.7 472.9,340
		473.7,340.3 475,343.2 476,344.7 476.7,344.7 479.2,340.9 480.3,339.7 481.5,339.1 482.8,339.3 483.1,339.8 483.2,340.3 483,340.9
		482.8,341.5 482.4,342.1 482.3,342.7 482.4,343.4 482.8,343.9 483.6,344.3 485.2,344.5 485.9,344.8 486.8,345.5 487.6,347.3
		488.4,348.3 489.2,348.8 490.2,348.9 491.1,348.6 491.9,347.8 492.3,346.4 492,344.4 492.4,343.9 494,343.9 495.1,343.5
		495.7,342.3 495.7,340 496.5,341.3 499.4,344.2 500.6,346 500.9,346.7 501,347.5 501,349.1 501.1,349.6 502.3,350.9 503.4,350.8
		505.5,348.9 506.5,348.3 507.5,348.1 514.1,348.6 516.6,348.1 518.1,346.7 519.4,344.2 518.7,343.7 	"/>
</g>

</svg>
