<?xml version="1.0" encoding="utf-8"?>

<svg version="1.2" baseProfile="tiny" xmlns="http://www.w3.org/2000/svg" xmlns:xlink="http://www.w3.org/1999/xlink" x="0px"
	 y="0px" viewBox="347.9 151.8 145.9 290.8" xml:space="preserve">

<g id="Madagascar">
	<g>
		<polygon fill="#FFFFFF" points="412.4,225.3 412,225.5 410.7,227 409.8,227.7 409.4,228.1 409.2,228.9 408.9,229.4 408.8,229.8
			408.9,229.9 409.2,229.9 409.4,229.9 409.7,229.9 409.9,230.2 409.8,230.6 409.3,231.5 409,231.7 408.8,231.8 408.7,232
			409.1,232.2 409.3,232.2 409.9,232.2 410.4,232.4 411.3,233.2 411.7,233.3 412.2,234.2 412.4,234.8 412.2,234.9 411.8,234.6
			411.4,234.1 411,233.7 410.5,233.8 410.6,234.2 410.7,234.6 410.5,235 410.1,235.1 409.9,234.9 409.7,234.5 409.5,234.5
			409.4,234.6 409.4,234.9 409.4,235.2 409.4,235.4 408.9,235 408.6,234.6 407.9,233.1 407.7,232.7 407.3,232.4 406.9,232.1
			407.3,231.8 407.4,231.5 407.5,231.1 407.7,230.8 407.6,230.6 407.5,230.4 407.5,230.2 407.5,229.9 407.4,229.8 407.1,229.7
			406.6,229.6 405.6,229.6 405.1,229.7 404.7,229.9 404.2,230.2 403.7,230.6 403.3,231 403,231.5 402.9,231.9 403.2,231.8
			403.6,231.4 404.1,231.2 404.1,231.6 404,231.8 403.8,232 403.7,232.2 403.8,232.6 404,232.8 404,232.9 403.6,232.9 403,232.6
			402.8,232.6 402.5,232.6 402.3,232.6 402,232.6 401.9,232.5 401.8,232.3 401.8,232 401.8,231.3 401.7,231.1 401.2,231
			400.9,231.1 400.6,231.1 400.4,231.2 399.2,231.9 398.7,232 398,231.5 397.7,231.5 397.3,231.5 397,231.4 396.7,231.3
			396.5,231.3 395.8,231.7 395.2,232.4 395,232.7 395.2,232.9 395.4,233.1 395.5,233.3 395.5,233.6 395.5,233.7 395.4,233.9
			395.4,234.1 395.4,234.6 395.4,234.6 395.2,234.9 394.9,235.2 394.8,235.4 395.1,236.5 394.9,236.9 394.7,236.9 394.6,236.5
			394.2,236.7 394.2,236.5 394.4,235.9 394.4,235.6 394.4,235.5 394.3,235.4 394.2,235.2 394,234.6 393.7,234.8 393.6,234.9
			393.5,234.9 390.1,235.3 390,235.5 390,235.7 390.1,236.1 390.4,236.3 390.8,236.5 390.8,236.7 390.7,237 390.4,237.2
			389.7,237.4 389.5,237.6 389.3,237.9 389.1,238.1 388.8,238.2 388.5,238.2 388.3,238 388.3,237.7 388.3,237.4 388.5,236.9
			388.5,236.8 388.5,236.6 388.4,236.5 388.1,235.3 388,234.7 388,234.4 387.9,234.2 387.1,234.8 385.8,235.3 385.3,235.6
			384.8,236.1 384.4,236.6 383.7,237.8 383.3,238.3 382.7,238.7 381.5,239.2 381.7,239.4 381.4,239.5 380.8,239.6 380.6,239.7
			380.3,239.8 380.1,240 380,240.2 379.8,240.5 379.5,240.5 379.2,240.4 378.8,240.2 378.3,239.8 378.1,239.8 377.5,240
			373.1,239.5 372.4,239.6 371.7,239.6 371.4,239.7 371.2,239.9 371.2,240.2 371.1,241.4 371.1,241.7 370.9,241.9 370.7,242.1
			370.5,242.4 370.4,242.7 370.3,243 370.4,243.6 370.7,244.3 371.4,245.4 371.6,246 371.6,246.6 371.5,247.2 371.1,247.7
			371.1,247.2 370.9,247.1 370.7,247.3 370.6,247.8 370.7,248.3 371,249.1 371.1,249.6 371,250.5 370.4,251.3 369.7,252.1
			369.1,252.9 368.7,253.8 368.5,254.2 368.2,254.5 368,254.7 367.9,255.2 367.8,255.4 367.2,256 367.1,256.2 366.4,258
			365.9,258.8 365.3,258.8 365.3,259.8 365.2,260.1 365,260.4 364.7,260.7 363.2,263.1 363,263.7 362.9,263.9 362.6,263.8
			362.5,263.8 362.1,264.7 361.1,266.4 360.9,267 360.7,268.3 360.7,268.9 360.8,269.5 362.1,271.3 362.4,272.2 362.9,272.7
			363,273 362.9,273.9 362.3,276.6 362.3,278 363.1,282.1 363.1,286.3 363.3,286.9 364.6,288.8 366,290.8 367,293.4 367.5,294.9
			367.5,295.6 367.5,295.8 367.4,296.3 367.3,296.4 367.2,296.6 367.1,296.7 367.2,296.8 367.2,297 367.3,297 367.3,298.3 367,299
			366.8,300.2 367,301 367.3,301.6 369.2,304.1 369.6,304.8 369.7,305.5 369.9,305.7 370.9,306.6 371.2,307.3 371.5,308
			371.9,309.4 372,310.2 371.8,310.6 371.3,310.7 371.2,310.9 371.1,311.2 371,311.6 370.9,311.7 370.5,312 370.4,312.1
			370.4,312.3 370.5,312.5 370.5,312.7 370.6,312.9 370.6,313.7 370.5,314 370.4,314.3 370.2,314.5 369.8,315.3 369.7,315.6
			369.8,315.9 370,316.3 370.3,316.6 370.6,316.9 370.7,316.9 371,316.9 371.1,317 371.2,317.2 371.4,317.8 371.8,317.8
			371.9,318.5 371.9,319.4 371.8,320.1 371.5,320.9 371.1,321.6 370.7,322.2 369.4,323.4 369,324 367.5,327 367.3,327.8
			367.4,328.5 367.1,328.7 366.2,329.4 365.9,329.8 365.5,331 365.3,330.7 365.3,330.6 365.3,330.4 364.8,331.1 364.5,332
			364.3,333 364.1,333.9 363,335.9 362.6,336.3 362,336.4 361.5,336.9 360.3,339.3 359.5,343.5 358.8,345.5 358.7,346.2
			358.5,346.7 358,347.3 357.4,347.7 356.9,347.9 356.5,347.8 356.2,347.7 355.8,347.6 355,347.8 353.9,347.8 353.8,347.8
			353.5,348.2 353,348.5 352.6,348.9 352.4,348.9 352.3,348.5 352.2,349.1 351.7,350.1 351.6,350.6 351.6,356.4 351.1,356.1
			350.8,356.2 350.4,356.4 349,358.1 348.8,358.5 348.7,359.3 348.8,360.4 348.7,361.4 348.3,362 348.4,361.2 348.4,360.8
			348.1,360.5 348,360.8 347.8,361 347.7,361.3 347.7,361.6 347.9,362.1 347.8,362.2 347.7,362.3 347.6,362.3 347.6,362.3
			347.5,362.4 347.4,362.5 347.3,362.6 347.3,362.8 347.3,363.3 347.3,363.6 347.1,364 347,364.2 347,366.2 347.3,367.1 348,367.1
			348,367.5 348.1,367.8 348.1,368.2 348,368.6 347.6,368.2 347,368.2 346.6,368.5 346.5,369 346.8,369.5 346.9,370 346.9,370.2
			346.9,370.5 346.9,370.7 347.4,371.7 347.7,372.7 347.9,374.7 347.8,375.7 347.8,376.2 347.9,376.7 348,376.9 348.3,377.3
			348.4,377.5 348.5,378.3 348.8,378.9 348.9,380 349.1,380.6 349.2,381.5 349.3,381.8 349.6,382.3 350,382.9 350.7,383.7 351,384
			351.3,384.3 351.7,384.9 351.9,385.3 353.3,386.3 353.8,386.9 354.1,387.8 354.4,389.4 354.4,391.4 354.7,392.2 354.7,392.7
			354.8,392.8 354.9,392.9 355.1,393 355.2,393 355.4,393.1 356.2,393.9 356.6,394.4 357.1,394.9 357.4,395.2 357.4,395.4
			357.4,395.6 357.3,395.9 357.2,396.1 356.9,396.4 356.9,396.8 357.1,397.4 357.2,397.7 356.8,398.2 355.4,398.8 355,399.2
			354.9,399.9 354.9,401.5 354.7,401.9 354.9,402.3 355,402.7 355.2,403.6 355.5,404.2 355.5,404.5 355.4,404.7 355.3,405.1
			355.2,405.3 355.6,407.5 355.3,411.2 355.6,414.5 356.3,416.1 356.9,416.8 358.3,417.7 359,418.3 359.1,418.5 359.2,418.9
			359.2,419.1 359.3,419.3 359.4,419.4 359.5,419.5 360.4,420.4 360.6,420.8 360.8,421.6 360.6,423.5 360.8,424.3 362.3,426.3
			362.5,427 362.6,428.8 362.8,429.2 364.4,430.3 364.7,430.4 365.3,430.4 366,430.7 367.3,432.1 368,432.4 368.4,432.4
			368.7,432.5 369,432.6 369.3,432.8 369.8,433.3 370.1,433.5 370.4,433.4 370.5,433.9 370.4,434.2 370,434.2 369.6,433.9
			369,433.1 368.6,432.8 368.2,432.7 368.4,433.2 369,433.9 369.3,434.8 369.7,435 372.7,435.6 374.8,435.7 377,436 377.8,436.2
			379.1,436.9 380.6,438 381,438.3 381.2,439 381.5,439.3 382.1,439.8 384.2,440.6 384.9,441 385,441.4 385.2,442.3 385.4,442.5
			385.8,442.6 386.1,442.5 386.4,442.3 386.7,442.3 392.4,442 393.8,441.7 394.8,440.8 395.3,440.7 395.7,440.5 396.1,440.3
			398.1,438.3 401,436.8 403.5,435.4 407.5,433.7 410.5,432.9 412.4,432.9 412.4,297 		"/>
		<polygon fill="#FC3D32" points="483,250.9 482.9,251.2 482.8,251.5 482.8,251.9 482.7,252.2 481.3,254.3 480.9,254.8 480.7,255.1
			480.6,255.5 480.6,256.1 480.6,256.3 480.5,256.6 480,257.7 479.9,258.2 480.1,258.8 480.4,258.3 481,257.1 481.7,256.1
			482.7,253.9 483.3,252.3 484,250.8 484.1,250.3 483.3,250.7 		"/>
		<polygon fill="#FC3D32" points="466.7,297 467.2,295.7 468.3,291.8 469.5,289.3 470,287.9 470.1,287.6 470.5,287.1 470.6,286.8
			471.1,282.6 471.8,281.5 472,281.3 472.2,281.2 472.3,281.1 472.2,280.9 472.1,280.7 471.9,280.5 471.8,280.3 471.7,280
			471.7,279.7 471.7,279.3 472.7,276.1 473.4,273.6 473.7,272.1 473.6,270.8 472.6,265.6 472,264.6 471.9,264.3 472.1,262.8
			473.1,260.3 474.1,257.7 475.4,254.9 475.7,254.6 476,254.4 476.4,254.3 477.4,254.2 477.9,253.9 479.1,253.8 479.8,253.5
			480.4,253.2 479.8,253.2 479.3,253.1 478.9,252.9 478.5,252.5 478.2,252.1 478,251.6 478,250.7 478.9,249.9 479.5,249.3
			480.5,247.4 480.6,247.1 480.6,246.4 480.7,246.2 480.7,245.9 480.8,245.1 480.8,244.8 480.6,244.7 480.2,244.4 480.1,243.6
			480.1,242.8 480.6,240.9 480.5,240.3 480,239.6 479.4,239.2 478.1,238.7 477.6,238.2 477.3,237.6 477.2,237 477.2,236.3
			477.4,235.7 478,234.6 478.1,234.2 478.2,233.9 478.2,233.6 477.9,233.1 477.6,232.4 477.5,231.3 477.2,230.7 477.1,230
			476.8,229.7 476.6,229.5 476.5,229.2 476.5,229.2 476.7,228.6 476.8,228.3 476.7,228.1 476.3,226.9 476.3,226.3 477.4,224.7
			477.9,224.3 478.5,224.1 479.8,224.1 480.6,224 481.1,223.7 481.5,223.7 481.6,223.8 481.7,224 481.7,224.1 481.6,224.2
			481.6,224.3 481.8,225.4 481.7,225.8 481.6,226.4 481.7,226.7 482.3,227.4 482.4,227.5 482.5,227.5 482.7,227.5 482.8,227.6
			482.9,227.7 483.1,228 483.1,228.3 482.9,228.6 482.8,228.9 482.8,229.3 482.9,229.6 483,229.9 483.1,230.2 483.3,230.5
			483.6,230.7 483.8,230.9 484.1,231 484.1,231.2 484.2,232.3 484.4,232.9 484.8,233.3 485.7,234.2 486.2,234.1 486.6,234.5
			487,235.5 487.3,235.3 487.6,235.3 487.9,235.3 488.2,235.2 488.5,235 488.9,233.8 490.4,231.9 490.5,231.6 490.3,231.5
			490.5,230.9 492.3,227.5 492.4,226.9 492.5,226.5 492.8,225.5 493,224.8 493,224.6 493.3,224.4 493.4,224.2 493.4,224.1
			493.3,223.9 493.3,223.7 493.3,223.5 493.5,223 493.5,222.8 493.5,222.6 493.4,222.5 493.5,222.3 493.6,222 493.8,221.7
			493.8,221.6 493.7,220.2 493.5,219.5 493.2,219 493,218.8 492.7,218.7 492.5,218.5 492.3,217.8 492.1,217.4 491.1,216.2
			490.8,215.7 489.3,212.5 489.1,211.1 489,210.8 488.8,210.5 488.6,210.3 488,210 487.8,209.8 488.3,209.5 488.5,208.9
			488.4,208.1 487.9,207 487.7,204.7 487.5,203.7 487.4,203.3 487.5,203 487.7,202.4 487.9,200.8 487.9,200.2 487.6,199.5
			487.1,199.1 486.9,198.8 486.9,198.4 486.9,197.7 487,197.3 487.1,196.7 487.2,196 487.1,195.4 486.7,193.9 486.5,189.7
			486.3,189 485.8,188.1 485.7,187.8 485.6,187.5 485.7,186.8 485.7,186.6 485.6,186.4 485.6,186.3 485.6,186.2 485.5,186.2
			485.4,186.2 485.3,186.2 485.2,186.1 485.2,186.1 485.1,185.9 485.1,185.5 485.1,185.3 485.1,184.9 485.1,184.8 485,184.7
			484.7,184.5 484.6,184.4 484.4,183.8 484.1,182.6 484.1,182 484.2,181.3 484.3,181 484.1,180.7 483.9,180.7 483.6,180.8
			483.4,180.9 483.1,180.7 483,180.4 483.1,179.5 483,179.1 482.5,178.3 482.4,178.1 482.4,177.7 482.3,177.3 482.3,177
			482.5,175.4 482.4,174.2 482.3,174 481.8,173.5 481.7,173.2 481.7,172.8 481.4,172.6 481.2,172.5 480.9,172.4 480.6,172
			480.7,171.8 480.9,171.8 481.1,171.7 481,171.2 480.9,171.1 480.6,171.1 480.3,171.1 480,171 479.8,170.8 479.6,170.2 479.6,170
			479.6,169.5 479.6,169.4 479,168.9 478.8,168.7 478.5,168.6 478.3,168.5 478.3,168.5 478.4,168.3 478.1,168.2 477.9,168.2
			477.8,168.4 477.7,168.9 477.6,169.1 477.4,169.3 477.3,169.5 477.1,169.4 477,169.4 476.8,169.4 476.6,169.5 476.7,169.3
			477,168.8 477,168.5 477,168.3 476.8,167.9 476.7,167.6 476.6,167.3 476.2,166.8 475.8,166.5 475.5,166.3 475.3,166.3
			475.1,166.5 475,166.5 474.8,166.1 474.7,165.9 474.8,165.7 474.8,165.4 475,165.2 475.1,164.8 474.8,163.6 474.9,163
			474.9,163.6 475,163.9 475.2,164.1 475.4,164.1 475.4,163.9 475.4,163.3 475.2,162.9 474.7,161.6 474.3,162.1 474,162.1
			473.8,161.7 473.3,161.3 473.5,161.1 473.7,161.2 474,161.3 474.3,161.3 474.4,161.2 474.4,161 474.3,160.7 473.9,160.4
			473.8,160.3 473.7,160.1 473.4,160.1 473.1,160.1 472.9,160.2 472.7,160.4 472.6,160.6 472.6,160.2 472.4,159.9 472.2,159.7
			472,159.4 472,159.1 472,158.8 471.9,158.6 471.3,157.7 471.1,157.5 470.7,157.8 470.6,158 470.9,158.6 470.8,159 470.6,159.1
			470.4,159.1 470,159.1 469.8,159 469.8,158.9 469.9,158.8 470,158.7 469.7,158.4 469.6,158.2 469.4,158.3 469.2,158.7
			469.1,158.8 469,158.7 468.9,158.6 468.9,158.4 468.9,158.3 469.2,158 469.3,157.9 469.1,157.7 468.7,157.6 468.3,157.5
			468,157.5 468.3,156.9 468.4,156.7 468.2,156.5 468.2,156.3 468.3,156.1 468.5,156 468.7,155.8 468.8,156.1 468.9,156.4
			469.1,156.6 469.4,156.7 469.6,156.6 469.7,156.3 469.8,156.2 470,156.2 470.8,157 470.9,157 470.9,156.7 470.5,156 470.4,155.4
			470.5,154.8 470.4,154.3 470,153.8 469.9,153.6 469.9,153 469.8,152.7 469.2,152 469,151.9 468.6,151.8 468.3,152 467.7,152.7
			467.6,152.8 467.6,153 467.7,153.1 467.7,153.2 467.7,153.2 467.5,153.3 467.4,153.4 467.2,153.5 467.1,153.7 467,153.9
			467.5,154 467.7,154.3 467.9,154.7 467.9,155.1 467.7,155 467.6,155.1 466.9,154.2 466.6,154 466.3,154.4 465.5,154.6 465.3,155
			466,155 466.2,155 466.4,155.1 466.5,155.2 466.5,155.3 466.6,155.4 466.9,155.5 467,155.5 467.1,155.5 467.3,155.7 467.4,156
			467.4,156.1 467.2,156.1 467.1,156.2 466.9,156.3 466.7,156.5 466.6,156.7 466.6,156.9 466.7,157.1 466.7,157.2 466.8,157.4
			466.7,157.8 466.4,158.1 466.1,158.2 465.8,158 465.5,158.2 465.2,158.8 465,159 464.7,158.7 464.4,159 464.2,159.1 464,159.3
			463.9,159.7 463.6,159.5 463.3,159.6 463,159.8 462.9,160.1 462.8,160.2 462.9,160.5 462.9,160.6 462.7,161.1 462.6,161.2
			462.6,162.3 462.5,162.6 462.3,162.8 462,163 461.7,163.1 461.4,163 460.8,161.8 460.4,161.5 459.7,161.3 459.2,161.3 459,161.2
			458.7,161.1 458.5,161.2 458.2,161.7 457.9,161.9 458.7,162.3 458.8,161.9 459,162.2 459.3,163 459.9,163.6 460.1,164
			460.1,164.6 460.4,164.4 460.7,164.3 460.9,164.3 461.1,164.6 461,164.6 460.8,165.1 460.8,165.3 460.9,165.5 460.9,165.7
			460.9,165.8 460.8,166 460.7,166.1 460.7,166.3 460.7,166.5 460.8,166.5 461,166.5 461.1,166.6 461.4,167 461.5,167.2
			461.6,168.2 461.6,168.4 461.8,168.7 461.9,168.9 462.4,169.4 462.5,169.7 462.4,170.2 462.1,171.6 462.2,172.1 462,172.2
			461.7,172.4 461.5,172.7 461.4,173 461.3,173.2 461.2,173.6 461,173.9 460.5,174.6 460.2,175.2 459.7,176.8 459.7,177.2
			459.7,177.9 459.8,178.2 460.1,178.7 460.1,178.9 459.4,179.8 459.1,180.4 459.4,180.8 458.9,181.5 458.3,182 457.5,182.5
			456.8,182.7 456.6,182.7 456.3,182.6 456.1,182.5 455.8,182.6 455.6,182.7 455.4,182.7 455.2,182.7 454.1,182.3 453.7,182
			453.7,181.7 453.5,181.5 453.4,181.2 453.2,181.1 452.9,181 452.8,181.6 452.8,181.8 452.9,182.1 453,182.4 453.4,182.8
			453.5,183.4 453.9,184.1 453.9,184.3 453.8,184.3 453.5,184.2 453,183.8 453.1,183.9 453,184.1 453,184.2 452.8,184.2
			452.4,184.2 452.1,184.3 451.8,184.4 451.6,184.6 451.4,184.9 451.2,185.3 451.1,185.6 450.5,184.8 450.3,184.7 449.9,184.8
			450,185.2 450.4,185.9 450.3,186.2 450,186.9 449.9,187.2 449.8,188.3 449.7,188.6 450,189.2 449.8,189.7 449.2,190 448.6,190.2
			448.2,190.1 447.6,189.8 447,189.4 446.8,189 447,188.7 447.1,188.6 446.8,188.4 446.7,188.3 446.7,188.2 446.7,188.1
			446.6,187.7 446.3,186.8 446.2,186.3 446,185.8 445.7,185.7 445.2,185.9 445,185.6 445,185 444.8,184.5 444.5,184.2 443.8,184.2
			443.8,184.4 444.2,184.8 443.9,184.9 443.8,185.1 443.8,185.3 443.7,185.4 443.5,185.5 443.3,185.4 443.3,185.2 443.4,184.9
			443.2,185 443,185 442.9,185.1 442.8,184.8 442.9,184.5 443.1,184.4 443.2,184.2 443,184 442.8,184 442.6,184.1 442.4,184.3
			442.4,185.2 442.2,185.7 441.9,185.7 441.5,185.6 441.2,186 441,186.6 441,187.1 441,187.6 441.2,187.8 441.5,187.9 441.7,188.2
			440.8,188.6 440.6,189.7 440.9,191.1 441.5,192.1 441.7,192.3 442.5,192.6 443.5,193.2 443.5,193.5 442,194.3 442.7,195
			443.1,195.3 443.9,195.6 444.1,196 444.2,196.4 444.2,196.9 444.1,197.4 443.5,198.1 443.4,198.6 443.4,198.8 443.5,199.1
			443.7,199.3 443.8,199.5 443.8,199.6 443.6,199.8 443.4,200 443.2,200.1 443.2,200.3 443.2,200.6 443.2,200.8 443.1,201
			442.8,201 442.7,200.7 442.6,200.4 442.6,200.2 442.7,199.6 443,198.6 443.1,198.1 443.2,197.8 443.3,197.6 443.4,197.4
			443.4,197.1 443.3,197 443.1,196.9 443,196.8 442.8,196.7 442,196.1 441.5,196 441.3,196.3 441.7,196.5 442,197 442.2,197.6
			442.2,198.1 442.2,198.3 442.1,198.7 442,199 441.8,199.3 441.7,199.3 441.3,199.3 441,199.3 440.3,199.4 439.4,198.7
			438.9,198.8 438.7,199.1 438.7,199.3 438.6,199.9 438.6,200.2 438.4,200.4 437.9,200.7 437.5,201.2 437.3,201.9 437.1,202.6
			437.1,203.5 437.1,203.5 437.4,203.7 437.3,203.8 437.3,203.8 437.2,204 437.6,204.7 437.7,204.8 437.8,204.9 437.8,205.1
			437.8,205.2 437.5,205.4 437.5,205.5 437.6,205.8 438,206.5 438.1,206.7 438.4,206.6 438.6,206.3 439.2,205.5 439.3,205.6
			439.4,205.9 439.6,206.2 439.9,206.5 440.2,206.5 440.5,206.5 440.7,206.4 441.3,206 441.7,206 442,206.2 442.5,206.6
			442.7,206.9 443,207 443.4,207.3 443.6,208 443.6,208.9 443.5,209.5 443.2,210 443,209.6 443.1,208.2 442.9,207.6 442.5,207.1
			442,207.1 441.4,207.5 441.7,207.7 441.9,208.1 441.8,208.6 441.5,208.9 441.5,208.7 441.5,208.2 441.4,207.9 441.2,207.8
			440.6,207.6 440.3,207.5 439.9,207.2 439,206 438.9,206.4 438.7,206.6 438.4,206.8 438.2,207.1 438.1,207.4 438,207.7
			437.5,208.2 437.4,208.3 437,208.5 436.9,208.6 436.8,208.7 436.8,209.1 436.8,209.3 436.1,210 436,210.2 435.9,210.8
			434.5,213.6 434.3,213.9 434.4,214.5 434.3,214.7 434.1,214.5 433.5,215 433.2,215.5 433,216.1 432.7,216.6 432.5,216.8
			431.8,217.2 431.6,217.2 431.3,217.1 431.2,216.8 431.4,214.3 431.6,213.6 431.9,213.1 433.1,211.8 433.3,211.3 433.4,211.2
			433.3,211 433.2,210.9 433.1,210.9 433,210.8 432.9,210.5 433,209.2 432.9,209 432.5,208.5 432.4,208.3 432.3,208 432.2,207.9
			431.9,208.1 429.4,210.8 428.8,211.8 428.7,211.8 429,212.3 429.2,212.4 429.5,212.4 429.7,212.2 429.8,211.9 430,211.7
			430.4,211.8 430.5,212.2 430.4,212.7 430.2,212.9 429.7,213 429.2,213.1 428.8,213.4 427.8,214.3 427.5,214.7 427.1,215.9
			426.3,216.6 425.5,217.2 424.8,217.8 424.2,218.6 424.1,219 424.1,219.5 424.2,219.7 424.6,219.8 424.7,220.3 424.8,220.4
			425.1,220.4 425.3,220.3 425.2,220.8 425.1,221.1 425.2,221.4 425.8,221.1 425.9,221.1 426.2,221.1 426.3,221.1 426.3,221.3
			426.5,222.6 426.9,223.2 427,223.3 427.1,223.4 427.3,223.5 427.5,223.5 427.6,223.5 427.7,223.6 427.6,224 427.3,224.2
			426.6,224.5 425.9,224.3 425.3,224.5 424.6,224.8 424,225.1 423.2,225.2 422.9,225.3 422.6,225.5 422.4,226.2 422.3,226.5
			422.1,226.4 422,225.9 422.3,225.2 423.2,223.4 423.4,223.2 423.7,223 423.9,222.8 424.2,222.2 424.4,222 424.4,221.7
			424.1,221.5 423.4,221.2 423.1,221 422.9,220.8 422.7,220.6 422.5,220.1 422.4,220 422.4,219.5 422.4,219.3 422.3,219.1
			422.2,219 421.9,219.1 421.3,219.4 420.5,219.7 419,221.1 416.9,222.6 415.7,222.8 415.5,223.1 415.6,223.3 416.2,223.4
			416.5,223.6 416,223.8 415.5,223.8 414.9,223.8 414.4,224.1 414.2,224.4 413.4,225 412.8,225.5 412.6,225.6 412.6,225.5
			412.5,225.4 412.5,225.3 412.5,225.2 412.4,225.3 412.4,297 		"/>
		<polygon fill="#FC3D32" points="448.6,179.1 448.4,179.1 448.2,179 448,178.8 447.8,179 447.5,178.8 447.2,178.7 447,179
			447.3,179.1 447.3,179.4 447.2,179.7 447.1,180.1 447.2,181 447.3,181.4 447.5,181.7 447.6,181.7 447.6,181.8 447.7,181.8
			447.8,181.8 447.8,181.5 447.9,181.5 448.2,181.7 448.4,181.9 449.2,182 449.5,181.8 449.6,181.8 449.6,181.9 449.6,182
			449.7,182.1 449.8,182.1 450,182.1 450.2,182.1 450.4,182 450.5,181.8 450.5,181.6 450.3,181.3 450,181.2 449.9,181 450,180.7
			450.2,180.3 450.3,180 450.1,179.8 450,179.6 449.9,179.2 449.7,178.7 449.5,178.6 449.7,178.3 449.7,177.9 449.6,177.7
			449.2,177.6 448.8,177.6 448.6,177.7 448.5,177.9 448.5,178.4 448.5,178.5 448.7,178.7 448.8,178.8 448.7,179 		"/>
		<polygon fill="#007E3A" points="412.4,297 412.4,432.9 412.8,432.9 414.9,433.1 415.6,433.3 415.9,433.3 417.3,433 417.5,432.8
			417.7,432.6 417.9,432.6 418.1,432.7 418.3,432.7 418.5,432.5 418.8,432.1 419,431.9 419.6,431.7 419.8,431.6 420.2,431.2
			421.4,430.3 421.4,430.2 421.5,430.2 421.7,430.2 421.9,430.7 422,430.8 422.2,430.7 423.2,429.5 423.7,429 424.1,428.8
			424.7,428.6 424.8,428.4 424.9,427.9 424.9,427.6 424.9,427.2 424.9,426.9 425.1,426.6 425.1,426.9 425.1,427.3 425.3,427.6
			425.5,427.8 425.7,427.3 425.5,425.8 425.8,425.1 426.8,424.3 427,424 427,423.3 427,423 427.5,422.2 429.2,417.9 429.8,414.3
			429.5,413.1 429.6,413 430,413.2 430.3,413.2 430.4,413.1 431.6,409.8 432,409 432.1,408.5 432.1,408.3 432,408.2 432,408.2
			432.1,408 432.1,408 432.4,408 432.4,408 432.5,407.9 432.8,407.7 433,407.5 433.3,406.9 434.4,403.9 435.5,399.3 435.4,398.7
			435,398.5 434.7,398.5 434.5,398.3 434.8,397.9 435,397.6 435.1,397.6 435.2,397.9 435.4,398.2 437.8,390.8 438.3,387.6
			439.1,385.5 439.8,383.1 439.9,381 440.3,379.7 441.1,373.9 441.8,372.5 442.1,371 447.2,359.1 449.8,350.8 450.1,350.3
			450.4,349.5 450.7,347.6 450.7,347 450.8,346.7 451.5,345 451.7,344.2 451.8,343.5 451.9,343.1 452.2,342.5 452.4,342.2
			452.4,341.8 452.3,341.5 452.2,341.4 451.9,341.7 451.8,341.4 452,341.1 452.3,340.7 452.5,340.4 454.5,332.8 456.1,327.8
			457.3,324.7 459,321.2 459,320.9 458.9,320.6 458.4,319.9 458.3,319.7 458.5,319.4 458.8,319.6 459,320 459.1,320.2 459.8,318.3
			459.8,317.5 459.8,317 460.5,313.6 463.1,307.1 464.9,300.5 465.7,299.3 466.7,297 		"/>
	</g>
	<path fill="none" stroke="#999999" stroke-width="0.25" stroke-linecap="round" stroke-linejoin="round" d="M493.7,220.2l-0.2-0.7
		l-0.3-0.5l-0.3-0.2l-0.3-0.2l-0.2-0.2l-0.2-0.7l-0.2-0.3l-1-1.2l-0.4-0.6l-1.4-3.2l-0.2-1.3l-0.1-0.4l-0.2-0.3l-0.2-0.2L488,210
		l-0.2-0.3l0.5-0.3l0.2-0.7l-0.1-0.8l-0.6-1.1l-0.1-2.3l-0.2-1l0-0.4l0-0.3l0.2-0.6l0.3-1.6l0-0.6l-0.3-0.6l-0.5-0.5l-0.1-0.2l0-0.4
		l0-0.7l0.1-0.4l0.2-0.6l0-0.7l-0.1-0.6l-0.4-1.5l-0.2-4.1l-0.2-0.7l-0.5-1l-0.2-0.2l-0.1-0.3l0.2-0.7l-0.1-0.2l-0.1-0.1v-0.1l0-0.1
		l-0.1,0l-0.1,0l-0.1,0l-0.1,0l0-0.1l-0.1-0.1l-0.1-0.4v-0.2l0-0.4l0-0.2l-0.1-0.1l-0.2-0.2l-0.1-0.1l-0.2-0.6l-0.3-1.2l0-0.6
		l0.2-0.7l0-0.4l-0.2-0.3l-0.2,0l-0.2,0.1l-0.2,0.1l-0.3-0.2l-0.1-0.3l0.1-0.9l-0.1-0.4l-0.5-0.8l-0.1-0.3l0-0.3l-0.1-0.4l0-0.3
		l0.2-1.7l0-1.1l-0.1-0.2l-0.5-0.6l-0.1-0.3l-0.1-0.4l-0.2-0.2l-0.3-0.1l-0.3-0.2l-0.3-0.4l0.1-0.2l0.2-0.1l0.1-0.1l0-0.4l-0.2-0.2
		l-0.3,0l-0.3,0L480,171l-0.2-0.2l-0.3-0.5l0-0.2l0.1-0.5l-0.1-0.1l-0.5-0.5l-0.2-0.2l-0.3-0.1l-0.3-0.1l0.1-0.1l0.1-0.2l-0.3-0.1
		l-0.2,0l-0.1,0.2l-0.1,0.6l-0.1,0.2l-0.1,0.2l-0.1,0.2l-0.2-0.1l-0.2,0l-0.2,0l-0.2,0.1l0.1-0.3l0.3-0.5l0-0.3l0-0.2l-0.2-0.4
		l0-0.3l-0.2-0.4l-0.4-0.4l-0.4-0.4l-0.3-0.2l-0.2,0l-0.2,0.1l-0.1,0l-0.2-0.3l-0.1-0.2l0-0.2l0.1-0.2l0.2-0.2l0.1-0.5l-0.3-1.2
		l0.1-0.6l0,0.6l0.1,0.3l0.2,0.2l0.2,0l0-0.3l0-0.5l-0.1-0.4l-0.6-1.3l-0.4,0.5l-0.2,0l-0.3-0.3l-0.5-0.4l0.2-0.2l0.2,0l0.2,0.1
		l0.3,0.1l0.2-0.1l0-0.2l-0.1-0.3l-0.3-0.3l-0.1-0.2l-0.1-0.1l-0.3-0.1l-0.3,0l-0.2,0.1l-0.2,0.2l-0.1,0.3l0-0.5l-0.1-0.3l-0.2-0.2
		l-0.2-0.3l-0.1-0.3l0-0.2l-0.1-0.2l-0.6-0.9l-0.2-0.1l-0.4,0.2l-0.1,0.3l0.3,0.6l-0.1,0.4l-0.2,0.1l-0.2,0l-0.4,0l-0.2-0.1l0-0.1
		l0.1-0.1l0-0.1l-0.2-0.3l-0.2-0.1l-0.2,0.1l-0.2,0.4l-0.1,0.2l-0.1-0.1l-0.1-0.2l0-0.2l0.1-0.1l0.3-0.2l0.1-0.1l-0.2-0.2l-0.4-0.1
		l-0.4-0.1l-0.3,0l0.3-0.6l0.1-0.2l-0.2-0.1l0.1-0.2l0.1-0.2l0.2-0.2l0.2-0.1l0.1,0.3l0.1,0.3l0.2,0.2l0.3,0.1l0.1-0.1l0.1-0.2
		l0.1-0.2l0.2,0l0.8,0.9l0.1,0l0-0.3l-0.4-0.8l-0.1-0.6l0.1-0.5l-0.1-0.5l-0.4-0.5l-0.1-0.2l0-0.6l-0.1-0.3l-0.6-0.6l-0.2-0.1
		l-0.4-0.1l-0.4,0.2l-0.6,0.7l-0.1,0.2l0,0.1l0.1,0.1l0,0.1l-0.1,0l-0.2,0.1l-0.1,0.1l-0.1,0.1l-0.1,0.1l-0.1,0.2l0.4,0.1l0.3,0.3
		l0.2,0.4l0,0.4l-0.2-0.2l-0.1,0.2l-0.7-0.9l-0.3-0.2l-0.3,0.3l-0.8,0.3l-0.3,0.4l0.7,0l0.2,0l0.2,0.1l0.1,0.1l0.1,0.1l0.1,0.1
		l0.2,0.1l0.1,0l0.1,0l0.2,0.2l0.1,0.3l-0.1,0.1l-0.2,0l-0.1,0.1l-0.2,0.1l-0.2,0.1l-0.1,0.2l0,0.2l0.1,0.2l0.1,0.2l0,0.2l-0.1,0.4
		l-0.2,0.3l-0.3,0.1l-0.3-0.3l-0.3,0.3l-0.3,0.5L465,159l-0.3-0.4l-0.2,0.3l-0.2,0.2l-0.2,0.2l-0.1,0.4l-0.3-0.1l-0.3,0.1l-0.3,0.2
		l-0.2,0.3l0,0.2l0,0.3v0.1l-0.2,0.4l-0.1,0.1l0,1.1l-0.1,0.3l-0.2,0.2L462,163l-0.3,0.1l-0.2-0.1l-0.6-1.2l-0.4-0.4l-0.7-0.1
		l-0.5,0l-0.2-0.1l-0.2-0.1l-0.2,0l-0.4,0.6l-0.2,0.2l0.8,0.4l0.1-0.4l0.2,0.3l0.3,0.8l0.6,0.6l0.2,0.3l0,0.6l0.3-0.2l0.3-0.1l0.2,0
		l0.1,0.2l0,0.1l-0.2,0.5l0,0.1l0.1,0.3l0,0.2l-0.1,0.1l-0.1,0.1l-0.1,0.1l0,0.2l0.1,0.2l0.1,0l0.1,0l0.1,0.1l0.3,0.4l0.1,0.2
		l0.1,0.9l0.1,0.2l0.1,0.3l0.2,0.2l0.4,0.5l0.1,0.3l0,0.6l-0.3,1.3l0.1,0.5l-0.2,0.1l-0.3,0.3l-0.2,0.3l-0.1,0.2l0,0.3l-0.1,0.3
		l-0.2,0.3l-0.6,0.8l-0.3,0.6l-0.5,1.6l0,0.3l0,0.7l0.1,0.3l0.3,0.5l0.1,0.3l-0.8,0.9l-0.3,0.6l0.3,0.4l-0.5,0.6l-0.7,0.6l-0.7,0.4
		l-0.7,0.2l-0.2,0l-0.2-0.1l-0.3,0l-0.3,0.1l-0.2,0.1l-0.2,0l-0.2,0l-1.1-0.4l-0.4-0.2l0-0.3l-0.2-0.2l-0.1-0.2l-0.2-0.2l-0.3-0.1
		l-0.1,0.6l0,0.3l0.1,0.3l0.1,0.2l0.4,0.5l0.2,0.6l0.4,0.7l0,0.2l-0.2,0l-0.2-0.1l-0.5-0.4l0,0.1l0,0.2l0,0.1l-0.2,0l-0.4,0
		l-0.4,0.1l-0.3,0.1l-0.2,0.2l-0.2,0.3l-0.2,0.4l-0.1,0.4l-0.6-0.9l-0.2-0.1l-0.4,0.2l0.1,0.4l0.4,0.7l-0.1,0.3l-0.4,0.7l-0.1,0.3
		l0,1.1l-0.1,0.3l0.3,0.5l-0.3,0.5l-0.6,0.4l-0.6,0.2l-0.5-0.1l-0.6-0.3l-0.5-0.4l-0.2-0.4l0.2-0.3l0-0.2l-0.3-0.1l-0.1-0.1l0-0.1
		v-0.1l0-0.3l-0.4-0.9l-0.1-0.5l-0.2-0.4l-0.3-0.2l-0.6,0.3l-0.1-0.4L445,185l-0.1-0.5l-0.3-0.2h-0.7l0,0.2l0.4,0.4l-0.3,0.1
		l-0.1,0.2l0,0.2l-0.1,0.2l-0.2,0.1l-0.2-0.1l0-0.2l0.1-0.2l-0.1,0l-0.2,0l-0.1,0.1l-0.1-0.3l0.1-0.2l0.2-0.2l0.1-0.1L443,184h-0.2
		l-0.2,0.1l-0.2,0.2l-0.1,0.9l-0.2,0.5l-0.3,0l-0.4-0.1l-0.3,0.4l-0.2,0.6l-0.1,0.4l0,0.5l0.2,0.2l0.2,0.1l0.2,0.3l-0.9,0.4
		l-0.2,1.2l0.3,1.4l0.5,1l0.2,0.2l0.8,0.3l1,0.6v0.3l-1.5,0.8l0.7,0.7l0.4,0.3l0.8,0.3l0.2,0.4l0.1,0.5v0.5l-0.1,0.4l-0.6,0.7
		l-0.1,0.5l0,0.2l0.1,0.3l0.2,0.2l0.2,0.2l0,0.2l-0.2,0.2l-0.3,0.2l-0.2,0.1l0,0.2l0,0.2l0,0.2l-0.1,0.2h-0.3l-0.1-0.3l0-0.3v-0.2
		l0.1-0.5l0.3-1.1l0.1-0.5l0.1-0.3l0.2-0.2l0.1-0.2l0-0.3l-0.1-0.2l-0.2-0.1l-0.2-0.1l-0.2-0.1l-0.8-0.6l-0.4-0.1l-0.3,0.3l0.4,0.2
		l0.3,0.5l0.2,0.6l0.1,0.5l0,0.3l-0.1,0.3L442,199l-0.2,0.2l-0.2,0.1l-0.4-0.1l-0.3,0.1l-0.7,0l-0.9-0.7l-0.5,0.1l-0.2,0.2l-0.1,0.2
		l0,0.6l-0.1,0.3l-0.1,0.2l-0.5,0.3l-0.4,0.5l-0.3,0.7l-0.1,0.7l0,0.9l0,0.1l0.2,0.2l0,0.1l-0.1,0.1l0,0.1l0.3,0.7l0.1,0.1l0.1,0.1
		l0,0.2l0,0.1l-0.2,0.2l0,0.1l0.1,0.2l0.4,0.8l0.1,0.2l0.2-0.1l0.3-0.2l0.6-0.8l0.1,0.1l0.1,0.3l0.2,0.3l0.3,0.3l0.3,0.1l0.3,0
		l0.3-0.1l0.6-0.4l0.3,0l0.4,0.2l0.4,0.5l0.3,0.2l0.3,0.1l0.4,0.3l0.2,0.8v0.9l-0.1,0.6l-0.3,0.5l-0.1-0.4l0-1.4l-0.2-0.7l-0.4-0.4
		l-0.5-0.1l-0.6,0.5l0.3,0.2l0.2,0.4l0,0.5l-0.3,0.3l0-0.3l0-0.5l-0.1-0.3l-0.2-0.2l-0.6-0.2l-0.3-0.1l-0.4-0.4L439,206l-0.1,0.4
		l-0.3,0.2l-0.3,0.2l-0.1,0.3l-0.1,0.3l-0.2,0.3l-0.5,0.5l-0.1,0.1l-0.3,0.2l-0.2,0.1l-0.1,0.2v0.4l-0.1,0.2l-0.7,0.7l-0.1,0.3
		l-0.1,0.6l-1.4,2.8l-0.1,0.3l0,0.5l-0.1,0.2l-0.2-0.2l-0.6,0.5l-0.3,0.5l-0.2,0.6l-0.4,0.6l-0.2,0.2l-0.7,0.4l-0.2,0l-0.3-0.2
		l-0.1-0.3l0.2-2.5l0.2-0.6l0.3-0.5l1.2-1.4l0.2-0.5l0.1-0.1l-0.1-0.2l-0.1-0.1l-0.1,0l-0.1-0.1l-0.1-0.3l0.1-1.3l0-0.2l-0.4-0.5
		l-0.1-0.3l-0.1-0.2l-0.1-0.1l-0.3,0.2l-2.5,2.7l-0.6,1h-0.1l0.3,0.5l0.2,0.1l0.3,0l0.2-0.1l0.1-0.3l0.2-0.2l0.3,0.1l0.1,0.4
		l-0.1,0.5l-0.3,0.2l-0.5,0l-0.5,0.2l-0.4,0.2l-1,1l-0.3,0.4l-0.4,1.2l-0.8,0.7l-0.9,0.6l-0.7,0.6l-0.6,0.8l-0.2,0.5l0,0.5l0.1,0.2
		l0.3,0.2l0.1,0.4l0.1,0.1l0.2,0l0.3,0l-0.2,0.5l0,0.2l0.1,0.3l0.6-0.3l0.2,0l0.3,0l0.1,0.1l0,0.1l0.3,1.3l0.3,0.6l0.1,0.1l0.2,0.1
		l0.2,0.1l0.2,0l0.1,0l0.1,0.1l-0.1,0.4l-0.3,0.2l-0.7,0.3l-0.7-0.2l-0.6,0.2l-0.6,0.3l-0.7,0.3l-0.7,0.1l-0.4,0.1l-0.2,0.2
		l-0.2,0.7l-0.2,0.3l-0.2,0l-0.1-0.5l0.2-0.7l0.9-1.8l0.2-0.2l0.3-0.2l0.3-0.2l0.3-0.5l0.2-0.3v-0.3l-0.3-0.2l-0.7-0.3l-0.3-0.2
		l-0.2-0.2l-0.2-0.2l-0.2-0.5l0-0.1l0-0.6l0-0.2l-0.1-0.2l-0.1-0.1l-0.3,0.1l-0.6,0.3l-0.8,0.3l-1.5,1.4l-2.1,1.5l-1.2,0.3l-0.2,0.2
		l0.1,0.2l0.6,0.2l0.3,0.2l-0.5,0.1l-0.5,0l-0.5,0.1l-0.5,0.3l-0.2,0.2l-0.9,0.6l-0.6,0.5l-0.2,0.1l0-0.1l0-0.1l0-0.1l0-0.1
		l-0.5,0.3l-1.3,1.4l-0.9,0.7l-0.4,0.4l-0.2,0.8l-0.3,0.6l-0.1,0.3l0.1,0.2h0.2l0.3,0l0.2,0l0.2,0.3l-0.1,0.4l-0.5,0.8l-0.3,0.2
		l-0.2,0.1l0,0.1l0.4,0.2l0.2,0l0.6,0l0.5,0.2l0.8,0.8l0.4,0.2l0.5,0.9l0.2,0.6l-0.2,0.2l-0.4-0.3l-0.3-0.5l-0.4-0.4l-0.5,0l0.1,0.4
		l0,0.5l-0.2,0.4l-0.4,0.1l-0.2-0.1l-0.2-0.4l-0.2,0l-0.1,0.1l0,0.3l0,0.3l0,0.2l-0.4-0.4l-0.3-0.4l-0.7-1.5l-0.3-0.4l-0.3-0.3
		l-0.4-0.4l0.4-0.3l0.1-0.3l0.1-0.3l0.2-0.4l-0.2-0.2l-0.1-0.2l0-0.2v-0.2l-0.1-0.1l-0.2-0.1l-0.5-0.1h-1l-0.5,0.1l-0.4,0.2
		l-0.5,0.3l-0.5,0.4l-0.4,0.4l-0.3,0.5l-0.1,0.5l0.3-0.1l0.5-0.4l0.5-0.2l0,0.4l-0.2,0.2l-0.2,0.2l-0.1,0.2l0.1,0.4l0.2,0.3v0.1
		l-0.5,0l-0.6-0.3l-0.2,0l-0.3,0l-0.2,0l-0.3-0.1l-0.2-0.1l-0.1-0.2l0-0.3l0-0.7l-0.2-0.2l-0.4-0.1l-0.3,0l-0.3,0.1l-0.3,0.1
		l-1.2,0.7l-0.5,0.1l-0.7-0.5l-0.3,0h-0.3l-0.3-0.1l-0.3-0.1l-0.2,0l-0.7,0.4l-0.7,0.7l-0.1,0.3l0.1,0.2l0.2,0.2l0.2,0.3l0,0.2
		l0,0.2l-0.1,0.2l0,0.2l0,0.5l0,0.1l-0.2,0.2l-0.3,0.3l-0.1,0.2l0.2,1.1l-0.2,0.4l-0.2,0l-0.1-0.4l-0.4,0.2l0-0.2l0.2-0.6l0-0.3
		l0-0.1l-0.1,0l-0.1-0.2l-0.2-0.6l-0.3,0.2l-0.1,0.1l-0.1,0l-3.3,0.4l-0.2,0.2l0,0.3l0.2,0.4l0.2,0.2l0.4,0.1l0,0.2l-0.1,0.3
		l-0.3,0.2l-0.7,0.3l-0.2,0.2l-0.2,0.3l-0.2,0.2l-0.3,0.1l-0.3-0.1l-0.2-0.2l0-0.3l0-0.4l0.1-0.4l0-0.1l0-0.2l0-0.1l-0.4-1.2l0-0.7
		l0-0.3l-0.1-0.1l-0.8,0.5l-1.2,0.5l-0.5,0.3l-0.5,0.4l-0.5,0.6l-0.7,1.2l-0.4,0.5l-0.6,0.4l-1.2,0.6l0.2,0.1l-0.3,0.1l-0.6,0.1
		l-0.3,0.1l-0.3,0.2l-0.1,0.2l-0.1,0.2l-0.2,0.2l-0.3,0.1l-0.4-0.1l-0.3-0.2l-0.5-0.4l-0.3,0l-0.5,0.1l-4.4-0.4l-0.7,0.1h-0.7
		l-0.3,0.1l-0.2,0.2l-0.1,0.3l-0.1,1.2l0,0.3l-0.1,0.2l-0.2,0.2l-0.2,0.3l-0.2,0.3l-0.1,0.3l0,0.7l0.3,0.6l0.8,1.1l0.2,0.6l0,0.6
		l-0.2,0.6l-0.3,0.5l0-0.5l-0.2-0.1l-0.2,0.2l-0.1,0.5l0.1,0.4l0.4,0.9l0.1,0.4l-0.2,0.9l-0.6,0.8l-0.7,0.8l-0.5,0.8l-0.4,0.9
		l-0.2,0.4l-0.3,0.4l-0.1,0.2l-0.2,0.5l-0.1,0.2l-0.6,0.6l-0.1,0.2l-0.7,1.8l-0.5,0.8l-0.6,0l-0.1,1l-0.1,0.3l-0.2,0.3l-0.3,0.3
		l-1.5,2.4l-0.2,0.6l-0.1,0.2l-0.2-0.1l-0.1,0.1l-0.4,0.9l-1,1.7l-0.2,0.6l-0.2,1.3v0.7l0.1,0.5l1.3,1.8l0.3,1l0.5,0.4l0.1,0.3
		l-0.1,0.9l-0.6,2.6l0,1.4l0.8,4.1l0,4.2l0.2,0.6l1.3,1.9l1.5,2l1,2.6l0.5,1.5l0.1,0.7l0,0.2l-0.1,0.5l-0.1,0.1l-0.2,0.2l0,0.1
		l0,0.1l0.1,0.1l0,0.1v1.3L367,299l-0.1,1.2l0.1,0.7l0.3,0.7l1.9,2.4l0.4,0.7l0.2,0.7l0.1,0.3l1,0.9l0.4,0.6l0.3,0.7l0.4,1.4
		l0.1,0.8l-0.3,0.4l-0.5,0.1l-0.2,0.2l0,0.3l-0.1,0.4l-0.1,0.1l-0.3,0.2l-0.1,0.1l0,0.2l0.1,0.2l0.1,0.2l0,0.2l0,0.7l-0.1,0.4
		l-0.2,0.3l-0.1,0.2l-0.4,0.7l-0.1,0.3l0.1,0.4l0.2,0.4l0.3,0.3l0.3,0.2l0.1,0l0.3,0l0.1,0.1l0.1,0.1l0.2,0.6l0.4,0l0.1,0.7l0,0.9
		l-0.1,0.7l-0.3,0.8l-0.4,0.7l-0.5,0.6l-1.2,1.2L369,324l-1.5,3l-0.2,0.8l0.1,0.7l-0.3,0.3l-0.9,0.7l-0.3,0.4l-0.5,1.2l-0.1-0.3
		l0-0.1v-0.2l-0.5,0.7l-0.3,1l-0.2,1l-0.3,0.9l-1.1,2l-0.4,0.3l-0.7,0.2l-0.4,0.4l-1.3,2.5l-0.8,4.2l-0.7,2l-0.1,0.6l-0.2,0.5
		l-0.5,0.6l-0.6,0.5l-0.5,0.2l-0.4-0.1l-0.4-0.2l-0.4-0.1l-0.8,0.2l-1.1,0l-0.1,0.1l-0.3,0.4l-0.6,0.3l-0.4,0.4h-0.2l-0.2-0.4
		l-0.1,0.5l-0.4,1l-0.2,0.5v5.8l-0.4-0.3l-0.4,0l-0.3,0.3l-1.4,1.6l-0.2,0.4l-0.1,0.8l0,1.1l-0.1,1l-0.4,0.6l0.1-0.8l0-0.4l-0.2-0.3
		l-0.2,0.2l-0.1,0.2l-0.1,0.3l0,0.3l0.1,0.6l-0.1,0.1l-0.1,0l-0.1,0l0,0l-0.1,0.1l-0.1,0.1l-0.1,0.1l0,0.2v0.5l0,0.2l-0.2,0.4l0,0.2
		l0,2l0.3,0.9l0.7,0l0,0.4l0.1,0.4l0,0.4l-0.1,0.3l-0.4-0.4l-0.6,0l-0.4,0.3l0,0.5l0.2,0.5l0.1,0.5v0.2l0,0.2l0,0.2l0.5,1l0.3,1
		l0.2,2l-0.1,1l0,0.5l0.1,0.5l0.1,0.2l0.3,0.4l0.1,0.2l0.1,0.8l0.2,0.6l0.1,1.1l0.2,0.6l0.1,0.9l0.1,0.3l0.2,0.5l0.4,0.7l0.7,0.8
		l0.4,0.3l0.3,0.3l0.3,0.7l0.2,0.3l1.4,1l0.5,0.6l0.3,0.9l0.3,1.6l0.1,2l0.2,0.8l0.1,0.5l0.1,0.1l0.2,0.1l0.1,0l0.1,0l0.1,0.1
		l0.9,0.8l0.4,0.5l0.5,0.5l0.2,0.3l0.1,0.2l0,0.2l-0.1,0.4l-0.1,0.2l-0.3,0.3l0,0.4l0.3,0.6l0,0.4l-0.4,0.5l-1.4,0.6l-0.5,0.4
		l-0.1,0.7l0,1.5l-0.3,0.5l0.2,0.4l0.1,0.4l0.2,0.9l0.2,0.7l0,0.3l0,0.2l-0.2,0.4l0,0.2l0.4,2.1l-0.3,3.8l0.3,3.3l0.7,1.6l0.6,0.7
		l1.4,1l0.7,0.6l0.1,0.2l0.1,0.5l0,0.2l0.1,0.2l0.1,0.1l0.1,0.1l0.9,0.9l0.2,0.4l0.2,0.7l-0.2,2l0.2,0.7l1.5,2l0.2,0.7l0.1,1.7
		l0.2,0.5l1.6,1.1l0.2,0.1l0.6,0l0.7,0.4l1.2,1.3l0.7,0.3l0.4,0l0.3,0.1l0.3,0.1l0.3,0.2l0.5,0.5l0.3,0.2l0.3-0.1l0.1,0.5l-0.2,0.2
		l-0.3,0l-0.4-0.3l-0.6-0.7l-0.4-0.3l-0.4-0.2l0.2,0.5l0.6,0.8l0.3,0.9l0.4,0.2l3,0.6l2.1,0.1l2.1,0.3l0.8,0.2l1.4,0.7l1.5,1.1
		l0.3,0.3l0.3,0.7l0.3,0.3l0.6,0.4l2.2,0.8l0.6,0.5l0.2,0.4l0.2,0.9l0.2,0.2l0.3,0.1l0.3-0.1l0.3-0.1l0.3-0.1l5.8-0.2l1.4-0.3l1-1
		l0.4,0l0.4-0.2l0.4-0.3l2-1.9l2.8-1.6l2.5-1.3l4-1.8l3-0.7l2.3-0.1l2.1,0.3l0.7,0.2l0.3,0l1.4-0.4l0.2-0.1l0.2-0.2h0.2l0.2,0.1
		l0.2,0l0.2-0.2l0.3-0.4l0.2-0.2l0.6-0.2l0.2-0.2l0.5-0.4l1.2-0.9l0-0.1l0.1,0l0.2,0l0.2,0.5l0.1,0.1l0.2-0.1l1-1.2l0.6-0.5l0.3-0.2
		l0.6-0.2l0.1-0.2l0.1-0.4l0-0.4l0-0.3l0-0.3l0.2-0.3l0,0.3l0.1,0.3l0.1,0.3l0.2,0.3l0.2-0.6l-0.2-1.4l0.3-0.7l1-0.8l0.1-0.3l0-0.7
		l0.1-0.3l0.5-0.8l1.7-4.3l0.5-3.6l-0.3-1.2l0.1-0.1l0.4,0.2l0.2,0.1l0.2-0.1l1.2-3.4l0.4-0.7l0.1-0.6v-0.2l-0.1-0.1l0-0.1l0.1-0.1
		h0l0.2-0.1h0l0.1-0.1l0.3-0.2l0.1-0.1l0.4-0.6l1.1-3l1-4.7l-0.1-0.6l-0.4-0.2l-0.3,0l-0.1-0.1l0.2-0.5l0.2-0.3l0.1,0.1l0.1,0.2
		l0.2,0.3l2.4-7.3l0.5-3.2l0.8-2.1l0.7-2.4l0.1-2.1l0.4-1.3l0.8-5.8l0.7-1.5l0.3-1.4l5.1-12l2.5-8.3l0.3-0.5l0.3-0.8l0.3-1.8l0-0.7
		l0.1-0.3l0.7-1.7l0.2-0.7l0.1-0.7l0.1-0.4l0.4-0.6l0.1-0.3l0-0.4l0-0.3l-0.1-0.1l-0.3,0.3l-0.1-0.3l0.2-0.3l0.3-0.3l0.2-0.4l2-7.6
		l1.6-5l1.2-3.1l1.7-3.5l0.1-0.3l-0.1-0.3l-0.5-0.7l-0.1-0.2l0.2-0.2l0.3,0.2l0.2,0.3l0.1,0.3l0.7-1.9l0-0.8l0-0.5l0.7-3.4l2.5-6.5
		l1.8-6.7l0.7-1.1l1.6-3.6l1-3.9l1.2-2.5l0.5-1.4l0.2-0.3l0.4-0.5l0.1-0.3l0.5-4.2l0.6-1.2l0.2-0.1l0.2-0.1l0.1-0.1l0-0.2l-0.1-0.1
		l-0.2-0.3l-0.1-0.2l-0.1-0.3l0-0.4l0-0.4l1-3.2l0.7-2.5l0.2-1.5l-0.1-1.4l-1-5.2l-0.6-1l-0.1-0.3l0.2-1.5l1-2.5l0.9-2.6l1.3-2.7
		l0.3-0.3l0.3-0.2l0.4-0.1l1-0.1l0.5-0.3l1.2-0.2l0.6-0.2l0.6-0.3l-0.5,0.1l-0.5-0.1l-0.4-0.2l-0.4-0.4l-0.3-0.5l-0.1-0.4l0-1
		l0.9-0.7l0.6-0.7l1.1-1.9l0.1-0.3v-0.7l0-0.2l0.1-0.3l0.1-0.8l0-0.3l-0.2-0.1l-0.4-0.3l-0.1-0.7l0-0.8l0.4-2l-0.1-0.6l-0.5-0.7
		l-0.6-0.4l-1.3-0.5l-0.5-0.5l-0.3-0.6l-0.1-0.7l0-0.7l0.2-0.6l0.6-1.1l0.1-0.3l0.1-0.4l-0.1-0.2l-0.3-0.6l-0.2-0.7l-0.1-1.1
		l-0.3-0.7l-0.2-0.7l-0.2-0.3l-0.2-0.2l-0.1-0.3h0l0.2-0.6l0-0.3l0-0.3l-0.4-1.2l0-0.5l1.2-1.6l0.4-0.4l0.7-0.2h1.3l0.7-0.1l0.5-0.3
		l0.4,0l0.1,0l0.1,0.2l0,0.1l-0.1,0.1l0,0.1l0.2,1.1l0,0.4l-0.1,0.6l0.1,0.3l0.6,0.8l0.1,0.1l0.2,0l0.1,0l0.1,0.1l0.1,0.1l0.2,0.3
		l0,0.3l-0.1,0.3l-0.1,0.3l0,0.3l0.1,0.3l0.1,0.3l0.1,0.3l0.2,0.2l0.3,0.3l0.3,0.2l0.2,0.1l0,0.1l0.1,1.1l0.2,0.6l0.4,0.5l1,0.9
		l0.5-0.1l0.3,0.3l0.4,1l0.3-0.2l0.3,0l0.3,0l0.3-0.1l0.2-0.3l0.5-1.2l1.5-1.9l0.1-0.3l-0.2-0.1l0.2-0.6l1.8-3.4l0.1-0.6l0-0.4
		l0.4-1.1l0.1-0.7l0.1-0.1l0.2-0.3l0.1-0.2l0-0.1l0-0.2l0-0.2l0-0.2l0.2-0.5l0-0.1l0-0.2l0-0.1l0-0.1l0.2-0.3l0.1-0.3l0-0.1
		L493.7,220.2z M483,250.9l-0.2,0.3l-0.1,0.3l0,0.3l-0.1,0.3l-1.4,2.1l-0.5,0.5l-0.2,0.3l-0.1,0.4l0,0.6l-0.1,0.3l-0.1,0.3l-0.5,1.1
		l-0.1,0.5l0.2,0.6l0.4-0.5l0.6-1.2l0.7-1l1-2.2l0.5-1.6l0.7-1.5l0.1-0.5l-0.8,0.5L483,250.9z M447.3,179.4l-0.1,0.4l-0.1,0.4
		l0.1,0.9l0.1,0.4l0.2,0.2l0.1,0l0,0l0.1,0l0.1,0v-0.3h0.1l0.3,0.2l0.3,0.1l0.7,0.1l0.3-0.1l0.1,0v0l0,0.1l0.1,0.1l0.1,0l0.2,0
		l0.2,0l0.2-0.1l0.1-0.1l0-0.3l-0.2-0.2l-0.3-0.2l-0.1-0.2l0.1-0.3l0.2-0.4l0.1-0.3l-0.2-0.1l0-0.2l-0.2-0.5l-0.2-0.4l-0.2-0.1
		l0.2-0.4l0-0.3l-0.2-0.3l-0.3-0.1l-0.4,0l-0.2,0.1l-0.1,0.2l0,0.4l0.1,0.2l0.1,0.2l0.1,0.2l0,0.2l-0.2,0.1l-0.2,0l-0.2-0.1
		l-0.1-0.1l-0.3,0.1l-0.3-0.1l-0.3-0.1L447,179l0.3,0.1L447.3,179.4z"/>
</g>

</svg>
