<?xml version="1.0" encoding="utf-8"?>

<svg version="1.2" baseProfile="tiny" xmlns="http://www.w3.org/2000/svg" xmlns:xlink="http://www.w3.org/1999/xlink" x="0px"
	 y="0px" viewBox="261.3 172 317.4 250" xml:space="preserve">

<g id="Macedonia">
	<g>
		<path fill="#D20000" d="M461,317.5l84.1,42.1l0.3-8.3l1.2-5.1l3.6-3.3l5.6-0.9l11.2,0.9l3-2.3l0.5-3.1l-0.6-3.4l-0.3-3.6l0.5-0.9
			l1.4-1.9l0.3-0.8l-0.2-0.9l-0.8-1.7l-0.2-0.8l-0.3-11.4l-104.7-10.5C465.1,307.2,463.5,312.6,461,317.5z"/>
		<path fill="#D20000" d="M374.3,301.6l-112.8,11.3l-0.2,1.6l0.9,2.5l1.4,0.6l0.9,0.9l1.6,3l0.5,1.2l0.3,2.6l1.1,0.5l0.9,0.8l2,0.3
			l0.9,0.6l1.6,2l0.8,2v2.2l-0.9,2.8l-1.2,2.2l-1.6,2l-1.7,1.1l-1.9-0.6l-0.5,3.6l0.6,5l2,8.8l1.5,4.2l4.5,6.5l0.1,0.1L379,317.5
			C376.5,312.6,374.9,307.2,374.3,301.6z"/>
		<path fill="#D20000" d="M413.8,251.6L400.1,193l-0.8-0.5l-0.3-0.1l-5.1,1.4h-2.5l-2.2-1.5l-1.7,2.2l-1.2-0.3l-1.1-1.2l-1.4-0.5
			l-2,1.1l0.2,1.4l0.9,1.4l0.2,1.1l-1.4,0.1l-4.4-1.7l-2.2,0.2l-1.7,1.2l-7.3,11.2l-0.2,1.4l0.3,0.9l0.3,0.9l0.2,1.4l0.2,3.4
			l-0.2,1.5l-1.2,0.3l-6.4-1.2l-1.5-1.6l-1.1-2.3l-2-3.3l-4.4-4.4l-4.7-3.6l-1.7-0.9l-0.8-0.1h-0.9l-2.9,1.9l-5.6,5.4l-3.1,1.6
			l-20.2,6.8l74.5,51.3C391.7,259.2,402.1,253.2,413.8,251.6z"/>
		<path fill="#D20000" d="M465.7,292.4l112.5-11.2l0.6-1.7v-3.9l-2.2-3.4l-1.2-0.6l-3-0.1l-1.4-0.6l-0.8-1.3l-2.6-6.2l-1.2-5.6
			l-0.8-1.9l-0.6-0.6l-1.4-0.8l-0.6-0.6l-0.3-1.2v-2.5l-0.2-1.1l-1.4-3.7l-0.9-3.9l-0.1-3.9l-0.3-1.7l-0.9-1.7l-0.2-2.2l-0.3-1.3
			l-0.6-0.9l-1.3-0.9L461,276.5C463.5,281.4,465.1,286.8,465.7,292.4z"/>
		<path fill="#D20000" d="M379,276.5L298.1,236l-0.1,2.2l1.6,6.5l-0.5,4l-1.2,3.1l-2,3.6l-2.5,2.8l-2.6,0.9l-1.2-0.9l-2.3-3.3
			l-1.1-0.8l-0.8,0.5l-1.4,2.5l-0.9,0.8l-2,0.2l-1.6-0.8l-2.8-3.1l-3.1,1.9l-0.2,3.7l0.9,4.2l0.3,3.4l-0.8,1.4l-2.8,2.8l-1.2,1.6
			l-0.9,2.2l-0.3,1.7l0.4,4.9l105.5,10.6C374.9,286.8,376.5,281.4,379,276.5z"/>
		<path fill="#D20000" d="M384.6,326.1l-94.4,65l1.6,7.3l2.3,9.3l1.7,3.7l3,2.5l3.1,0.8l2.2-0.9l4.2-3.4l2.5-0.6l6.5,0.9l6.1,1.9
			l2,2l0.9,3.1v4.4l18.2-0.8l8.7-2.6l3.3,0.2l6.4,1.4h4.2l4.2-0.9l1.9-1.1l4.5-4.5l3-1.2h3l9.9,1.4l3.1,2.8l17.3-74.2
			C402.1,340.8,391.7,334.8,384.6,326.1z"/>
		<path fill="#D20000" d="M426.2,342.4l11.6,49.9l1.2-1.1l1.7-2.5l0.2-1.3l0.3-3.1l0.5-1.6l0.9-1.1l3.1-2.3l3.7-2l7.9-2.3l0.6-0.5
			l1.2-1.4l0.5-0.3l0.9,0.3l0.3,0.8l0.2,0.8l0.3,0.5l4,2.2l0.9,0.3l2.6-0.9l4.5-4l2.8-1.2l2.8-0.3l2.5,0.3l4.7,1.6l3.7,0.5l1.1,0.3
			l0.3,0.6l0.2,2.2l0.3,0.6h0.8l1.1-0.6h2.3l3.1-0.6l1.6,0.2l1.1,0.6l2.6,1.7l1.4,0.5l3.6,0.2l2-0.2l1.7-0.5l2.3-0.8h2l4,0.6
			l2.8-0.2l2.3-0.9l1.4-1.1l-72.6-50C448.3,334.8,437.9,340.8,426.2,342.4z"/>
		<path fill="#D20000" d="M455.4,267.9l72.5-49.9l-8.6-6.2l-2.6-2.6l-1.9-3.3l-1.7-4.8l-4.7-3.6L496.4,181l-2.9,0.2l-2.2-0.8
			l-0.6-0.5l-1.2-0.9l-1.9-2.2l-0.2-0.8l-0.2-0.5l-0.2-2.6v-0.2l-0.2-0.3l-0.3-0.5h-0.5l-0.8,0.2l-2.2,2.3l-0.9,1.1l-10.4,4.3
			l-6.7,2.8l-3,0.6l-1.4,0.2h-0.5l-3.6-0.5l-2.5-0.8l-1.6-0.6l-6.7-3.4l-0.9-0.2l-0.6-0.2l-1.2,0.5l-17.1,73.1
			C437.9,253.2,448.3,259.2,455.4,267.9z"/>
		<path fill="#FFE600" d="M455.4,326.1l72.6,50l0.8-0.6l2.2-2.8l0.3-1.2l-0.2-1.6l0.5-1.2l1.9-0.5l1.4,0.3l0.8,0.9l0.5,1.2l0.9,1.2
			l2.3,2.2l1.6,0.8l1.4-0.9l1.4-3.3l1.2-6.4l0.2-4.8L461,317.5C459.5,320.6,457.6,323.5,455.4,326.1z"/>
		<path fill="#FFE600" d="M465.9,297c0,1.5-0.1,3.1-0.2,4.6L570.4,312l-0.1-2.5l0.6-2.8l0.2-0.9l-0.3-1.1l-1.1-1.9l-0.5-0.9
			l-0.2-2.2l0.2-2.3l0.3-2.3l0.6-1.9l0.6-0.6l1.9-0.6l0.6-1.1l0.5-0.8l0.8-2.3l2.8-4.4l0.8-2.2l-112.5,11.2
			C465.8,293.9,465.9,295.5,465.9,297z"/>
		<path fill="#FFE600" d="M555.4,228.9l-1.9,0.6h-0.9l-0.9-0.8l-0.5-1.1l-0.3-1.1l-0.6-0.6l-1.2-0.2l-5.6,0.3l-0.8-0.3l-0.6-0.6
			l-0.5-0.8l-0.6-0.5l-3.7-0.8l-7.1-3.6l-2.1-1.6l-72.5,49.9c2.2,2.6,4,5.5,5.6,8.6l95.2-47.6l0,0H555.4z"/>
		<path fill="#FFE600" d="M420,342.9c-2.1,0-4.2-0.2-6.2-0.4l-17.3,74.2l2.3,2.1l3.4,0.6l1.1-0.8l2.8-3l1.2-0.9l0.8-0.2l1.7,0.2
			l0.6-0.2l0.5-0.9l0.3-2.2l0.2-0.6l3.6-1.5l6.4,1.4l3.6-0.8l1.6-1.6l0.5-1.9v-1.7l0.2-1.4l1.2-1.6l4.7-3.3l1.7-3.1l3.2-3.1
			l-11.6-49.9C424.2,342.7,422.1,342.9,420,342.9z"/>
		<path fill="#FFE600" d="M420,251.1c2.1,0,4.2,0.2,6.2,0.4l17.1-73.1l-0.2,0.1l-3,2.5l-1.2,1.1h-0.2l-0.8,0.2h-5l-0.5,0.2l-2,0.5
			l-11.3,6.8l-2.3,1.4l-0.9,1.1l-0.9,1.1l-1.2,0.8l-0.6,0.5h-2l-2.6-0.8l-1.7-0.5h-6.1l-0.6-0.3l13.7,58.6
			C415.8,251.3,417.9,251.1,420,251.1z"/>
		<path fill="#FFE600" d="M374.1,297c0-1.5,0.1-3.1,0.2-4.6l-105.5-10.6l0.6,7.1l0.6,3.6l2.7,7.6v1.4l-0.6,1.7l-1.1,1.1l-1.7,0.9
			l-1.7,0.8l-6.1,1.4l0.5,2.3l-0.4,3l112.8-11.3C374.2,300.1,374.1,298.5,374.1,297z"/>
		<path fill="#FFE600" d="M384.6,267.9l-74.5-51.3l-3.7,1.3l-3.1,1.9l-2.3,2.9l-1.2,3.6l-1.6,8.2l-0.1,1.6l80.9,40.5
			C380.5,273.4,382.4,270.5,384.6,267.9z"/>
		<path fill="#FFE600" d="M379,317.5l-103.8,51.9l2,3.6l0.6,3.7v2.9l0.8,2.2l3.6,1.7l1.7,0.2h1.6l1.4,0.1l1.4,1.1l1.2,2.6l0.8,3.5
			l94.4-65C382.4,323.5,380.5,320.6,379,317.5z"/>
		<path fill="#FFE600" d="M420,258.6c-21.2,0-38.4,17.2-38.4,38.4s17.2,38.4,38.4,38.4s38.4-17.2,38.4-38.4S441.2,258.6,420,258.6z"
			/>
		<path fill="#D20000" d="M426.2,251.6c-2-0.3-4.1-0.4-6.2-0.4s-4.2,0.2-6.2,0.4c-11.7,1.6-22,7.6-29.2,16.3c-2.2,2.6-4,5.5-5.6,8.6
			c-2.5,4.9-4.1,10.3-4.6,15.9c-0.1,1.5-0.2,3-0.2,4.6s0.1,3.1,0.2,4.6c0.6,5.7,2.2,11.1,4.6,15.9c1.5,3.1,3.4,6,5.6,8.6
			c7.2,8.7,17.5,14.7,29.2,16.3c2,0.3,4.1,0.4,6.2,0.4s4.2-0.2,6.2-0.4c11.7-1.6,22-7.6,29.2-16.3c2.2-2.6,4-5.5,5.6-8.6
			c2.5-4.9,4.1-10.3,4.6-15.9c0.1-1.5,0.2-3,0.2-4.6s-0.1-3.1-0.2-4.6c-0.6-5.7-2.2-11.1-4.6-15.9c-1.5-3.1-3.4-6-5.6-8.6
			C448.3,259.2,437.9,253.2,426.2,251.6z M458.4,297c0,21.2-17.2,38.4-38.4,38.4s-38.4-17.2-38.4-38.4s17.2-38.4,38.4-38.4
			S458.4,275.8,458.4,297z"/>
	</g>
	<polygon fill="none" stroke="#999999" stroke-width="0.25" stroke-linecap="round" stroke-linejoin="round" points="575.3,271.6
		572.3,271.4 570.9,270.8 570.2,269.6 567.5,263.3 566.3,257.8 565.5,255.9 564.9,255.3 563.5,254.5 562.9,253.9 562.5,252.6
		562.5,250.2 562.4,249.1 561,245.3 560.1,241.5 559.9,237.6 559.6,235.9 558.7,234.1 558.5,232 558.2,230.7 557.6,229.8
		556.2,228.9 555.4,228.9 553.5,229.5 552.6,229.5 551.7,228.7 551.2,227.6 550.9,226.5 550.3,225.9 549,225.7 543.4,226.1
		542.7,225.7 542,225.1 541.6,224.3 541,223.9 537.2,223.1 530.1,219.5 519.4,211.8 516.7,209.1 514.9,205.9 513.1,201.1
		508.5,197.5 496.4,181 493.4,181.2 491.2,180.4 490.6,179.9 489.4,179 487.5,176.8 487.4,176 487.2,175.6 487,172.9 487,172.8
		486.9,172.5 486.6,172 486.1,172 485.3,172.2 483.2,174.5 482.2,175.6 471.8,179.9 465.1,182.7 462.2,183.3 460.8,183.5
		460.3,183.5 456.7,183 454.3,182.3 452.7,181.6 446,178.2 445.1,178.1 444.5,177.9 443.1,178.5 440.1,181 438.9,182.1 438.7,182.1
		437.9,182.3 433,182.3 432.5,182.4 430.5,182.9 419.1,189.7 416.8,191.1 415.9,192.2 414.9,193.3 413.7,194.1 413.1,194.5
		411.1,194.5 408.4,193.7 406.7,193.3 400.7,193.3 399.3,192.5 398.9,192.4 393.8,193.7 391.3,193.7 389.2,192.2 387.4,194.4
		386.2,194.1 385.1,192.8 383.7,192.4 381.7,193.4 381.9,194.8 382.8,196.2 382.9,197.3 381.5,197.5 377.2,195.8 375,195.9
		373.3,197.2 366,208.4 365.9,209.8 366.2,210.7 366.5,211.6 366.6,213 366.8,216.4 366.6,218 365.4,218.3 359,217.1 357.5,215.5
		356.4,213.2 354.4,209.9 350,205.6 345.3,202 343.6,201.1 342.9,200.9 341.9,200.9 339,202.8 333.4,208.2 330.3,209.8 306.4,217.8
		303.2,219.7 300.9,222.6 299.7,226.2 298.1,234.4 298,238.2 299.5,244.7 299,248.8 297.8,251.9 295.8,255.4 293.3,258.2
		290.6,259.2 289.4,258.2 287.1,255 286,254.2 285.2,254.6 283.8,257.1 282.9,257.9 280.9,258.1 279.3,257.3 276.5,254.2 273.4,256
		273.2,259.8 274.2,264 274.5,267.4 273.7,268.8 270.9,271.6 269.7,273.1 268.7,275.3 268.4,277 269.4,289 270,292.6 272.6,300.2
		272.6,301.6 272,303.3 270.9,304.4 269.2,305.3 267.5,306.1 261.4,307.5 261.9,309.8 261.3,314.5 262.2,317 263.6,317.6
		264.6,318.5 266.1,321.5 266.6,322.7 266.9,325.3 268,325.8 268.9,326.6 270.9,326.9 271.8,327.5 273.4,329.5 274.2,331.6
		274.2,333.7 273.2,336.5 272,338.7 270.4,340.7 268.7,341.8 266.9,341.2 266.4,344.8 267,349.7 269.1,358.6 270.6,362.8
		275.1,369.3 277.1,373 277.8,376.8 277.8,379.7 278.5,381.9 282.1,383.6 283.8,383.8 285.4,383.8 286.8,383.9 288.2,385
		289.4,387.7 291.7,398.4 294.1,407.7 295.8,411.4 298.7,413.9 301.8,414.7 304,413.8 308.2,410.3 310.7,409.7 317.2,410.7
		323.3,412.5 325.3,414.5 326.2,417.6 326.2,422 344.4,421.2 353.1,418.6 356.4,418.7 362.7,420.1 366.9,420.1 371.1,419.2
		373,418.1 377.5,413.6 380.5,412.4 383.4,412.4 393.4,413.8 398.8,418.7 402.2,419.3 403.3,418.6 406.1,415.6 407.3,414.7
		408.1,414.5 409.8,414.7 410.4,414.5 410.9,413.6 411.2,411.4 411.4,410.8 415,409.3 421.3,410.7 424.9,409.9 426.4,408.3
		426.9,406.5 426.9,404.7 427.1,403.3 428.3,401.8 433,398.5 434.7,395.4 439,391.2 440.7,388.7 440.9,387.5 441.2,384.4
		441.7,382.8 442.6,381.8 445.7,379.4 449.4,377.4 457.4,375.1 458,374.6 459.2,373.2 459.7,372.9 460.6,373.2 460.9,374
		461.1,374.8 461.4,375.2 465.4,377.4 466.4,377.7 469,376.8 473.5,372.7 476.3,371.5 479.1,371.2 481.6,371.5 486.3,373 490,373.5
		491.1,373.8 491.4,374.5 491.5,376.6 491.9,377.2 492.6,377.2 493.7,376.6 496,376.6 499.2,376 500.7,376.2 501.8,376.8
		504.4,378.5 505.8,379 509.4,379.1 511.4,379 513.1,378.5 515.5,377.7 517.5,377.7 521.5,378.3 524.3,378.2 526.7,377.2
		528.8,375.5 531,372.7 531.3,371.5 531.2,369.9 531.6,368.7 533.5,368.2 534.9,368.5 535.7,369.5 536.1,370.7 537.1,372
		539.4,374.1 541,374.9 542.3,374 543.7,370.7 545,364.3 545.5,351.3 546.7,346.2 550.3,342.9 555.9,342 567.1,342.9 570,340.6
		570.5,337.5 569.9,334 569.5,330.5 570,329.5 571.4,327.7 571.7,326.9 571.6,326 570.8,324.3 570.6,323.5 570.3,309.5 570.9,306.7
		571.1,305.8 570.8,304.7 569.7,302.8 569.2,301.9 569.1,299.7 569.2,297.4 569.5,295 570.2,293.2 570.8,292.6 572.6,291.9
		573.3,290.9 573.7,290.1 574.5,287.8 577.3,283.4 578.7,279.5 578.7,275.6 576.5,272.2 	"/>
</g>

</svg>
