<?xml version="1.0" encoding="utf-8"?>

<svg version="1.2" baseProfile="tiny" xmlns="http://www.w3.org/2000/svg" xmlns:xlink="http://www.w3.org/1999/xlink" x="0px"
	 y="0px" viewBox="329.1 94.5 181.9 405" xml:space="preserve">

<g id="Myanmar">
	<g>
		<polygon fill="#FECB00" points="477.1,218.3 476.9,218 476.9,217.6 477,217.3 477,217 476.7,216.8 475.2,216.7 474.7,216.4
			474.1,215.6 473.8,215.4 473.4,215.5 473.1,215.8 473,216.1 472.8,216.3 472.4,216.4 472.2,216.5 471.8,216.9 471.6,217
			471.4,217 471.2,216.9 471.1,216.8 471,216.6 471,216.2 470.9,216.1 470.7,216.2 470.7,216.1 470.6,216.1 470.3,216.1
			469.8,215.9 469.6,215.9 468.9,216 468.5,216 468.1,215.8 467.8,215.4 467.7,215 467.5,214.7 467.2,214.7 466.8,214.7
			466.4,214.7 465.7,214.5 464.2,214.3 464.2,213.6 465.2,211.7 464.9,211.2 464.2,211.2 464,211.1 464,210.9 464.2,210.8
			464.5,210.7 464.6,210.6 464.8,210.2 464.8,209.8 464.8,209.3 464.5,208.5 464.3,208 464,207.7 463.6,207.7 463.2,207.9
			463,207.7 462.6,206.6 462.7,206.3 462.9,206 463.8,205.4 464,205.3 464.1,205 464.1,204.9 464,204.8 463.1,203.4 463,203.1
			462.9,201.9 462.8,201.6 462.5,201.4 461.7,201.2 461.1,201 460.6,201 460.5,201 460.2,200.8 460.2,200.6 460.3,200.5
			460.4,200.3 460.2,198.7 460.2,198.4 460.4,197.9 460.4,197.7 460.3,197.3 460.1,197.2 460.2,197 460.5,196.8 460.9,196.7
			461.3,196.6 462.3,195.7 464.1,194.5 464.5,193.8 464.3,193.1 464.3,193.1 464.1,193.2 463.3,193.5 461.3,193.6 460.6,194
			459.7,194.1 459.2,194.4 458.9,194.5 458.6,194.6 458.3,194.5 457.8,194.2 457,193.6 456.4,193.5 455.6,193.4 454.8,193.5
			454.4,193.6 453.8,194 453.5,194.1 452.7,194.1 451.2,193.7 450.5,193.7 448.9,194.1 444.6,195.8 444.3,196 443.5,196.9
			443.1,197.2 442.8,197.3 442.5,197.3 442.1,197.5 441.7,197.8 440.7,198.8 440.3,199 439.8,199.1 439.5,199.3 439.2,199.7
			439.1,199.3 439,199.1 438.9,198.9 438.2,198.3 437.4,198 437,197.6 440.9,193.5 441.1,193.1 441.2,192.5 441.1,192.3
			440.8,191.9 440.8,191.7 440.8,191.4 441,191.3 441.1,191.2 441.2,191 441.1,190.2 439.6,189.6 439.5,189.1 439.8,188.8
			440.2,188.8 440.5,188.7 440.5,188.2 440.3,188 440,187.7 439.9,187.4 439.8,187.2 439.8,187 439.7,186.8 439.5,186.6
			439.2,186.6 438.7,186.6 437.1,186.8 437,186.6 437,186.1 437.5,183.1 437.4,180.3 437.4,179.9 437.4,179.9 438.8,178.9
			439.6,178.3 440,178 440.4,177.9 441.3,178.1 441.7,178.1 442,177.9 442.2,177.4 442,177.1 441.2,176.5 440.9,175.8 440.8,175.1
			440.8,173.6 440.7,172.8 440.8,172.6 441.2,172.5 441.5,172.2 441.8,171.7 442.3,170.7 442.8,168.9 443.2,168.4 444,168.8
			444.2,169.2 444.3,169.5 444.5,169.6 445,169.6 445.4,169.4 446.3,168.2 446.6,167.9 447.5,167.5 447.7,167.3 448.1,166.3
			448.3,165.9 448.6,165.6 449,165.6 449.1,165.4 449,165.1 449.1,164.2 449,164 448.9,163.8 448.8,163.2 448.8,163.1 448.9,162.9
			449.3,162.6 449.5,162.3 449.6,162 449.6,160.9 449.6,160.6 449.8,160.6 451.5,161.2 451.8,161.3 452.4,161.9 452.6,162
			453.1,161.8 453.5,161.6 453.8,161.4 454,161 454.3,160.1 454.4,159.8 455.1,158.8 455.2,158.6 455.2,158.4 455.3,158.1
			455.4,158 455.5,157.8 455.7,157.7 455.9,156.9 456.1,156.5 456.4,156.3 456.9,155.7 457.1,155.6 457.4,155.5 457.7,155.7
			458.2,156 458.7,156.3 458.9,156.4 459.1,156.4 459.4,156.3 460.5,155.4 460.6,155.2 460.7,154.9 460.8,154.6 460.7,154.4
			460.6,154.2 460.4,154.1 460.3,154 460.1,153.6 459.4,152.6 459.2,152.4 459,152.3 458.8,152.4 458.6,152.3 458.4,152.1
			458.5,151.6 458.4,151.1 458,150.3 457.9,150 457.8,149.6 457.9,149.2 458.2,149 459,148.8 459.3,148.7 459.4,148.7 459.4,149.5
			459.5,149.8 459.8,149.7 460.6,149.1 460.7,149 460.7,148.5 460.8,148.4 460.9,148.2 461.1,148 461,147.7 460.5,146.6
			460.3,146.4 459.9,146.5 459.8,146.2 459.8,145.9 459.9,145.4 460.1,145 460.9,144 461.1,143.6 461.2,143.2 461.3,142.8
			461.4,139.9 461.5,139.1 461.9,138.3 462.1,137.9 462,137.4 461.9,137.2 461.9,137 461.9,136.9 461.9,136.7 461.6,135.9
			461.6,135.5 461.9,134.6 462,134.2 461.8,133.7 461.3,133 461.2,132.6 461.3,132.3 461.6,132 461.7,131.8 461.7,131.6
			461.2,129.6 461.4,129.2 461.6,128.8 461.7,128.4 461.6,127.9 461.3,127.6 461,127.5 460.8,127.4 460.6,127 460.4,125.5
			460.4,124.8 460.5,124.1 461,122.6 461.1,121.9 460.9,121.1 460.8,121 460.6,121 460.5,121 460.4,120.7 460.3,118.7 460.4,117.8
			460.6,116.9 460.5,116.4 460.4,116.2 460.3,116 460.1,115.7 459.9,115.6 459.6,115.6 459.4,115.8 459.3,115.9 459,116.1
			458.5,116.1 458.2,115.8 457.8,114.9 457.3,114.6 456.7,114.9 456.4,114.6 455.3,114.1 455.1,114 454.9,114.2 454.8,114.6
			454.8,115.4 454.7,116.2 454.5,116.9 454.2,117.4 453.4,117.6 452.8,117.3 452.4,116.6 451.9,114.8 451.6,114.1 450.9,113
			450.9,112.8 451.1,112.3 451,112.1 450.9,112 450.8,111.8 450.8,111.3 450.9,111 450.8,110.8 450.1,110.4 449.7,110 449.6,109.6
			450,109.3 450.4,109.1 450.4,108.8 450.1,108.4 449.8,108.1 449.1,107.7 449,107.4 449.2,106.9 449.3,106.5 449.4,104.4
			449.4,104 449.2,103.6 447.8,102.3 447.4,102.1 446.6,101.9 446.5,101.7 446.7,101 446.7,100.7 446.4,100.4 445.7,100 444.7,98.7
			443.9,98.4 442.7,99 442.1,98.8 441.5,98.1 440.7,95.7 440.1,95.1 439.5,95.4 439,95.8 438.5,95.5 438.1,94.8 437.6,94.5
			437.2,94.7 437,95.5 436.7,95.9 436.4,96.7 436.2,97.1 436.1,97.3 436,97.5 435.7,97.9 435.6,98.1 435.6,98.3 435.7,98.5
			435.7,98.7 435.7,99.6 435.6,100 435.4,100.3 435,100.3 434.6,100.2 434.4,100.3 434.2,100.8 434.1,101 433.3,101.4 433.1,101.8
			433.2,102.5 432.6,103.9 432.5,104.6 432.8,105.2 433.8,106.3 433.9,106.9 433.8,107.2 433.5,107.9 433.4,108.3 433.4,108.8
			433.4,109 433.3,109.2 432.9,109.4 432.5,109.6 432.4,109.4 432.4,109.1 432.2,108.8 431.9,108.8 431.5,108.9 431.1,109.1
			430.8,109.3 430.6,109.7 430.3,110.1 429.2,111 429.1,111.1 428.9,111.1 428.7,111.2 428.6,111.6 428.4,111.7 428,111.8
			427.9,111.9 427.8,112.2 427.8,112.5 427.7,112.6 427.6,112.6 426.7,112.8 426.4,113 425.7,113.9 425.4,114.2 424.6,114.8
			424.2,115.1 424,115.5 423.8,115.9 423.8,116.4 423.9,116.6 424.1,117 424.2,117.2 424.2,117.4 424.2,117.8 424.3,118
			424.4,118.3 424.1,119 424.2,119.4 424.7,120.2 428,124.6 428.5,125.2 428.6,125.3 428.6,125.7 428.7,126 428.8,126.1 429,126.2
			429.2,126.4 429.3,126.6 429.3,126.8 429.1,127.4 429,127.5 428.7,127.6 428.6,127.5 428.4,127.4 428.1,127.3 427.9,127.3
			427.5,127.5 427.3,127.5 427.1,127.4 427,127.2 426.8,127.1 426.6,126.9 423.9,125.6 423.4,125.2 423.4,124.9 423.6,124.5
			423.7,124 423.6,123.9 423,123.3 422.7,123 422.3,122.3 422.1,122 421.7,121.8 421,121.4 420.6,121.3 420.3,121.3 420,121.4
			419.7,121.8 419.5,121.9 419.2,121.9 419.1,121.8 419,121.7 418.8,121.6 418.2,121.5 418,121.7 417.8,122.1 417.4,122.5
			417.1,122.7 416.7,122.9 416.3,122.9 416,122.8 414.6,122.7 409.3,123.7 407.9,124.3 406.6,125.2 405.9,126.2 405.1,127.7
			404.7,128.3 404.1,128.9 403.6,129.2 402.4,129.4 401.9,129.6 401,130.7 400.5,131.6 400.3,131.8 400,131.9 399.1,132
			398.8,132.2 398.6,132.5 398.4,133 398.1,133.4 397.8,133.6 397.4,133.6 396.9,133.5 396.1,133.7 395.5,134.5 395,135.4
			394.5,136.2 394.1,136.4 392.5,136.9 391.8,137.3 391.4,137.4 391,137.4 390.7,136.9 390.3,137 390.1,137.1 389.8,137.5
			389.7,137.7 389.5,137.8 389,137.9 388.8,138 388.6,138.2 388.6,138.4 388.5,139 388.5,139.2 388.5,139.3 388.4,139.6
			388.2,139.9 387.6,140.6 387.3,140.8 387.3,140.8 387,141.3 387,141.6 387.4,142.4 387.5,142.8 387.5,143.1 387.2,143.9
			387,144.6 387,145.5 387.1,146.4 387.3,147.1 387.5,147.2 387.7,147.3 387.8,147.3 388,147.4 388.1,147.6 388,147.7 387.8,147.9
			387.7,148.1 387.9,149.6 388.2,149.8 388.9,150.1 389.2,150.4 389.2,150.8 389,151.3 388.3,152.1 387.5,153 387.2,153.2
			386.4,153.5 386.2,153.7 386,154.2 386,154.6 386.4,156.9 386.5,157.4 386.3,157.8 386.2,157.9 385.7,158 385.5,158.1
			385.4,158.2 383.6,160.9 383.5,161 383.3,161.1 383.2,161.2 383.2,161.3 383.3,161.5 383.3,161.6 383.1,161.7 382.7,161.7
			382.6,161.8 382.3,162.2 381.8,163 381.4,163.3 381,163.4 380.3,163.5 379.9,163.6 379.3,164.1 378.7,164.7 378.2,165.4
			377.1,168.8 377.1,169.7 377.6,170.4 378.3,170.6 379.1,170.8 379.9,171.1 380.2,171.8 380.4,172.7 380.3,173.6 379.9,174.3
			379.6,174.8 379.2,176.7 378.9,177.3 378,178.3 377.9,179 377.9,179.4 377.9,179.8 377.7,180.2 377.5,180.5 377.2,180.7
			376.9,180.7 376.7,180.7 376.4,180.7 376.2,181.1 375.8,182.6 375.5,183.1 374.6,183.7 374.4,183.9 374.2,184.3 374,185.4
			373.7,185.6 373.4,185.8 373.3,186 373.2,186.9 373.1,187.2 372.8,187.4 372.6,187.6 372.6,187.7 372.6,188.1 372.6,188.3
			372.5,188.5 372.1,188.8 371.9,189 371.8,189.3 371.7,190.1 371.7,190.4 370.7,192.8 370.4,193.6 370.4,194.4 370.3,194.8
			370.1,195 370,195.2 369.9,196.1 369.8,196.4 368.9,197.6 368.7,198.1 368.6,198.5 368.7,199 368.6,199.4 368.3,199.8 368,199.8
			367.7,199.4 367.4,199 367.1,198.8 365.9,198.1 365.4,198 364.7,197.9 364.2,197.6 363.6,197.5 362,197.7 361.6,197.5
			360.7,196.4 360.1,196.2 359.1,196.1 358.1,196.1 357.6,196.4 357.6,196.6 357.5,196.8 357.4,196.9 357.3,197 357.1,197.1
			357,196.9 356.8,196.8 356.7,196.7 356.4,196.8 355.7,197.2 355.3,197.2 355,197.2 354.8,197 354.7,196.7 354.6,196.4
			353.9,195.7 353.7,195.5 353.2,194.6 352.8,194.3 352.2,194.5 352,194.9 351.9,195.4 351.8,195.9 351.9,196.4 352,196.8
			352.1,197.2 352.6,197.9 352.7,198.1 352.8,198.2 352.9,198.4 353,198.7 353,199.5 353.3,202 353.9,202.5 354.1,202.7
			354.3,203.1 354.4,203.3 354.5,204.1 353.8,208.3 353.8,208.9 353.9,210.2 354,210.4 354,210.6 353.9,210.8 353.5,211.4
			353.4,211.7 353.3,212.1 353.4,213 353.3,214.5 353.3,214.9 353.3,215.1 353.3,215.4 352.5,217.1 352.2,217.5 351.8,217.8
			351.2,218.1 350.7,218.1 350.3,217.8 350,217.4 349.7,217 349.3,216.9 348.8,217.1 348.6,217.5 348.5,218.1 348.6,218.7
			348.8,219.2 349.2,220 349.3,220.4 349.3,220.8 349,221.3 348.3,222.1 348.1,222.6 348,222.6 347.3,223.2 347.2,224.9
			347.2,225.4 347.4,225.8 347.8,226.6 348,227 347.9,227.5 347.7,228.4 347.7,228.9 347.8,229 397.9,229 420,161 442.1,229
			474.2,229 474.2,229 474,228.6 474,228.4 474,228 474.2,227.2 474.2,226.8 473.2,224.3 473.2,223.8 473.4,223.6 473.6,223.4
			473.8,223.4 474.1,223.3 474.3,223.1 474.7,222.3 475.2,221.7 475.4,221.3 475.4,221 475.3,220 475.4,219.7 475.7,219.6
			476.8,220.2 477.4,220.2 477.9,219.8 477.8,219.3 		"/>
		<polygon fill="#EA2839" points="445.5,482.4 445.6,482.4 445.7,482.2 445.5,481.9 445.4,481.7 445.3,481.6 445.2,481.6 445,481.6
			444.8,481.5 445,481.2 444.7,481.3 444.7,481.7 444.7,482.1 444.9,482.3 444.6,482.7 444.7,483 445,483.1 445.4,482.9
			445.3,482.8 445.1,482.5 445.3,482.5 		"/>
		<polygon fill="#EA2839" points="456.5,441.9 456.8,442 457.1,441.9 457.2,441.7 457.3,440.5 457.2,440.2 456.9,439.8 456.7,440.2
			456.4,441.6 		"/>
		<polygon fill="#EA2839" points="457.2,425 457,425 456.7,425.1 456.6,425.4 456.7,425.8 456.7,426.1 456.9,426.3 457,426.3
			457.2,426.2 457.4,425.9 457.5,425.6 457.4,425.2 		"/>
		<polygon fill="#EA2839" points="455.6,443.2 455.6,443.4 455.7,443.5 455.9,443.6 456.2,443.5 456.5,443.3 456.7,443.1
			456.7,442.7 456.5,442.4 456.1,442.4 		"/>
		<polygon fill="#EA2839" points="452.5,466.3 452.8,466.1 452.9,465.9 452.8,465.8 452.7,465.8 452.5,465.8 452.4,465.8
			452.4,465.6 452.5,465.2 451.9,465.2 451.5,465.3 451.2,465.4 451.3,465.5 451.5,465.7 451.7,465.9 451.8,466.2 451.8,466.5 		"/>
		<polygon fill="#EA2839" points="451.5,439 451.4,439.5 451.5,439.8 451.6,440 452.1,440.2 452.5,440 452.7,439.6 452.2,438.9
			452.2,438.9 452.1,438.7 452,438.6 451.9,438.7 451.9,438.9 451.7,438.9 451.6,438.9 		"/>
		<polygon fill="#EA2839" points="453,470.7 453.2,470.7 453.4,470.5 453.3,470.3 453.2,470.3 453.2,470.1 453,470.1 452.9,470.3
			452.8,470.4 452.8,470.5 		"/>
		<polygon fill="#EA2839" points="455,447.1 455,447 455,446.9 454.9,446.8 454.8,446.7 454.7,446.8 454.6,446.9 454.5,447.1
			454.5,447.4 454.6,447.5 454.8,447.6 		"/>
		<polygon fill="#EA2839" points="453.7,434.8 453.6,434.6 453.5,434.6 453.6,434.8 453.6,435 453.7,435.5 453.8,435.7 453.9,435.8
			454.1,435.9 453.9,435.1 		"/>
		<polygon fill="#EA2839" points="457.3,474.8 457.2,474.8 457,474.8 456.9,475.1 457.1,475.2 457.5,475.2 457.7,475 458,474.3
			457.8,473.7 457.3,473.3 456.8,473.1 456.7,473.3 456.7,473.6 456.8,473.9 456.9,474.2 456.9,474.5 457.1,474.4 457.3,474.4
			457.4,474.4 457.5,474.6 457.4,474.7 		"/>
		<polygon fill="#EA2839" points="455.6,471 455.5,471.3 455.6,471.6 455.7,471.6 455.9,471.4 456,471.2 455.9,470.8 455.7,470.8
			"/>
		<polygon fill="#EA2839" points="460.1,451.4 459.8,451.2 459,451 458.4,450.5 458.1,450.4 457.7,450.5 457.3,450.2 457.1,450
			456.8,449.4 456.4,448.8 455.8,448.3 455.7,448.1 455.5,448.3 455.5,448.6 455.7,449.2 455.7,449.8 455.7,450.1 455.8,450.2
			455.9,450.2 456.1,450.5 456.2,450.5 456.3,450.6 456.4,450.8 456.3,451 456.1,451.3 456.1,451.5 456.1,451.7 456.2,452
			456.5,452.6 456.8,452.7 457.2,452.5 457.6,452.2 458,451.9 458.4,451.8 459.6,451.8 460.1,451.6 460.1,451.7 		"/>
		<polygon fill="#EA2839" points="457.1,470.3 457,470.4 456.6,470.7 456.5,471 456.4,471.4 456.6,471.8 457.1,472 457.1,471.8
			457.2,471.6 457.3,471.5 457.5,471.4 457.5,471.5 457.5,471.7 457.6,471.9 457.7,471.8 457.8,471.7 457.7,471.1 457.8,470.5
			457.8,470.2 457.7,469.5 457.6,469.2 457.4,469.1 457.2,469.4 457.2,469.6 457.2,469.9 457.2,470.1 		"/>
		<polygon fill="#EA2839" points="458,465.1 458,465.1 457.9,464.9 457.9,464.7 457.8,464.5 457.6,464.4 457.5,464.2 457.4,464.4
			457.7,464.9 457.9,465.5 458,465.4 458,465.3 		"/>
		<polygon fill="#EA2839" points="458.1,455.3 458,455.1 458,454.9 457.9,454.7 457.8,454.5 457.6,454.4 457.4,454.4 456.9,454.5
			456.6,454.6 456.1,454.4 455.8,454.4 455.8,454.6 455.9,454.6 456,454.7 455.7,454.7 454.8,454.6 454.3,454.7 454.4,454.9
			454.5,455 454.7,455 454.9,455 455.2,455 455.1,455.1 454.9,455.2 454.8,455.3 454.7,455.4 454.6,455.4 454.5,455.5 454.4,455.8
			454.5,455.9 454.9,456.2 455,456.4 454.5,456.4 454.5,456.7 454.7,457.3 454.8,457.4 455.1,457.6 455.3,457.9 455.1,458.3
			455.2,458.5 455.3,458.6 455.4,458.6 455.5,458.5 455.5,458.9 455.5,459.3 455.7,459.3 456.1,458.9 456.2,459.1 456.4,459.2
			456.7,459.3 456.9,459.3 457.1,459.5 457.4,459.9 457.6,460 457.6,459.8 457.5,459.3 457.5,459 457.5,458.7 457.8,458.4
			457.9,458.1 457.8,456.5 458,456 		"/>
		<polygon fill="#EA2839" points="446,498.7 445.9,498.9 446,499 446,498.9 446.1,499.5 446.3,499.2 446.3,498.9 446.3,498.8 		"/>
		<polygon fill="#EA2839" points="447.6,495.6 448,495.4 448,495.1 447.7,494.8 447.4,494.7 447.1,494.8 447,495.2 447.2,495.5
			"/>
		<polygon fill="#EA2839" points="446.6,480.3 446.8,480.3 446.9,480 447.1,479.9 447.2,479.8 447.3,479.8 447.4,479.8 447.4,479.7
			447.3,479.6 447.3,479.4 447.3,479.2 447.1,479.3 446.9,479.5 447,479.7 446.8,479.8 446.6,479.7 446.4,479.6 446.3,479.6
			446.1,479.6 446,479.7 445.9,479.8 445.8,479.8 445.7,479.8 445.6,479.9 445.6,479.9 446,480 446,480 446.1,480.1 446.5,480.3
			"/>
		<polygon fill="#EA2839" points="448.6,457.9 448.5,457.7 448.4,457.5 448.1,457.1 448.2,456.9 448.2,456.7 448.1,456.6
			447.9,456.5 448.1,456.4 448.3,456.3 448.4,456.1 448.5,455.8 448,455.9 447.9,455.5 447.9,455 447.7,454.7 447.2,454.3
			447.1,454.1 447,453.9 447.1,453.1 446.8,453.6 447,454.7 446.9,455.3 447.3,455.4 447.4,455.8 447.4,456.2 447.3,456.4
			447,456.4 447.1,456.6 447.5,456.8 447.8,457.3 447.9,457.4 448,457.5 448.1,457.6 		"/>
		<polygon fill="#EA2839" points="443,386.4 442.9,386.8 442.7,387.2 442.7,387.3 442.8,387.6 442.9,387.8 442.7,387.7 442.5,387.8
			442.3,387.9 442.2,388 442.6,388.2 442.8,388.4 443,388.7 443.1,389.3 443,389.4 442.8,389.7 442.8,390 442.8,390.5 442.8,390.7
			442.7,390.9 443.1,391.5 443.6,393.9 443.7,394 443.8,394.1 443.9,394.3 444,394.3 444.3,394.3 444.4,394.2 444.5,394.1
			444.7,394 444.8,393.9 444.7,393 444.7,392.6 444.9,392.6 444.9,393.1 445.1,393.4 445.4,393.5 445.7,393.3 445.7,393.2
			445.7,393 445.6,392.9 445.6,392.9 445.7,392.7 445.8,392.6 445.8,392.7 445.9,392.8 446,393 446.1,393.2 446.3,393.3
			446.1,393.7 446.2,393.9 446.5,394 446.8,394.2 446.4,394.3 446.7,394.8 447.4,395.7 446.7,395.4 446.2,394.7 445.7,394.2
			444.9,394.4 444.5,395 444.5,395.5 444.8,396.1 445.3,396.4 445.1,397 445.2,397.6 445.8,398.7 446,399.7 446.1,399.9 446.3,400
			446.5,399.8 446.6,399.6 446.8,399.4 446.7,399.8 446.4,400.5 446.4,400.9 446.4,401.3 446.5,401.8 446.7,402.3 447.1,402.9
			447.6,404.1 448.6,405.4 448.7,405.1 448.8,405.2 449,405.4 449,405.7 448.8,405.7 449,406.4 449,406.6 449,406.9 448.8,407.2
			448.8,407.5 448.6,407.8 448.1,408.5 448.1,408.9 448.1,409.4 448.4,410.2 448.5,410.7 448.5,410.8 448.7,411 448.8,411.1
			449,411.1 449,411.2 449,411.4 448.9,411.7 448.9,412.6 449,413.5 448.6,413.4 448.5,413.9 448.7,414.5 449.2,414.8 449.1,414.9
			449,415.2 448.9,415.3 449.2,415.5 449.3,415.5 449.8,415.5 450,415.6 450.2,415.8 450.2,415.9 449.9,415.9 450,416.2 450,416.5
			449.9,416.8 449.6,416.9 449.7,417 449.8,417.2 449.9,417.3 449.7,417.4 449.5,417.6 449.4,417.8 449.5,417.9 449.7,418
			449.7,418.2 449.7,418.5 449.7,418.7 449.7,418.6 449.8,418.5 449.9,418.3 450.1,418.6 450.3,418.7 450.4,418.7 450.6,418.6
			450.5,418.4 450.3,418.2 450.2,417.7 450.2,417.5 450.3,417.3 450.3,417.1 450.4,417 450.5,416.9 450.6,416.7 450.7,416.4
			450.8,416 450.7,415.6 450.4,414.7 450.6,413 450.8,412.2 450.8,411.9 450.7,411.5 450.4,410.7 450.5,410.4 450.7,410.1
			450.8,409.9 450.8,409.3 450.8,409.2 450.5,408.9 450.4,408.7 450.4,408.5 450.5,408.1 450.6,407.8 450.7,407.8 450.8,408.2
			451,408.5 451.3,408.9 451.5,409.1 451.5,409.2 451.4,409.4 451.4,409.5 451.5,409.7 451.5,409.9 451.5,410.9 451.8,412
			451.9,412.2 451.8,412.5 451.8,412.8 451.9,413 451.9,413.3 451.9,413.6 451.7,414.4 451.8,415.1 452,415.2 452.4,415.2
			452.9,415.3 452.8,415.6 452.6,415.5 452.8,416 453.6,417 453.6,417.4 454,417.7 454.1,417.9 454,418.2 454.3,418.3 454.6,418.4
			454.8,418.6 455,419 455.4,419.7 455.5,419.9 455.5,420.1 455.3,420.3 455.3,420.4 455.3,420.6 455.5,420.7 455.6,420.8
			455.7,420.8 455.8,421.1 455.9,421.3 456,421.6 456,422 456.1,421.6 456.2,421.4 456.4,421.3 456.3,421.7 456.3,421.8 456.4,422
			456.1,422.2 456.1,422.5 456.4,423.1 456.3,423.3 456.4,423.6 456.4,423.8 456.5,423.9 456.7,423.7 456.8,423.9 456.9,424.7
			458,425.5 458.2,425.7 458.5,426 458.6,427.5 458.7,428.1 458.6,428.2 458.5,428.5 458.6,429.3 458.7,429.5 458.9,429.9
			459.1,430.6 459.2,430.7 459.1,430.8 458.9,431 458.7,431.5 459,431.6 459.4,432.2 459.6,432.3 460,434 459.9,434.2 459.8,434.3
			459.6,434.3 459.4,434.4 459.3,434.4 459.3,434.4 459.3,434.6 459.5,434.8 460.3,434.7 460.5,434.8 460.4,435 460.2,435.1
			460,435 459.8,435.1 459.8,435.3 459.8,435.4 459.9,435.5 460.2,435.5 460.7,435.4 460.8,435.5 460.8,435.8 460.7,435.9
			460.6,436 460.4,436.2 460.3,436.5 460.2,437.1 460.4,437.4 460.4,437.5 460.3,437.5 460.2,437.5 460,437.5 460,437.6 459.8,438
			459.6,438.5 459.4,438.9 459.6,439.3 459.7,439.4 460,439.5 460.2,439.5 460.4,439.5 460.6,439.6 460.8,439.8 461,439.8
			461.1,439.8 461.1,440 461,440.1 460.7,440.2 460,440.2 459.5,440.3 459.3,440.4 459.2,440.7 459.1,441.1 459,441.6 459.1,441.8
			459.4,441.9 459.5,442 460,442.5 460.6,442.7 460.9,442.9 461.1,443.2 460.9,443.6 460.5,443.9 458.7,444.3 458.3,444.4
			458,444.6 457.7,445 457.7,445.4 457.9,445.8 458.2,446.1 458.3,446.2 458.7,446.3 458.9,446.4 459.4,446.1 459.8,445.8
			460.2,445.5 460.9,445.4 461,445.5 461.2,445.7 461.2,445.9 461.1,446.2 460.9,446.4 460.3,446.7 460.1,447 460.4,447
			460.4,447.1 460,447.2 459.7,447.3 459.6,447.4 459.5,447.7 459.7,447.9 459.8,448 459.6,448.3 459.6,448.5 459.8,448.8
			460.1,449 460.2,449.1 461.2,449.1 461,449.4 461.1,449.6 461.2,449.9 461.4,450.2 461.4,450.4 461.4,451.1 461.3,451.2
			461,451.2 460.8,451.3 460.5,451.8 460.2,452 459.8,452.2 459.5,452.3 458.5,452.3 458.1,452.4 457.9,452.9 459.6,452.9
			460.4,452.6 460.8,452.6 461.1,452.9 460.6,452.9 460.3,453.2 460.1,453.6 460,453.9 459.9,453.8 459.8,453.8 459.6,453.8
			459.4,453.9 459.3,454 459,454.4 459.6,454.4 459.6,454.6 459.5,454.6 459.4,454.6 459.3,454.7 459.1,455.1 459,455.3 459,455.4
			459.1,455.7 459.1,455.9 459.3,456 459.9,456.5 460.4,456.8 460.6,456.9 460.8,456.8 461,456.6 461.1,456.3 461.1,456
			461.2,455.8 461.4,455.7 461.5,455.6 461.7,455.4 461.8,455.3 461.8,455.3 462.2,455.3 462.3,455.3 462.8,454.4 463,454.2
			463.2,454 463.3,453.8 463.2,453.4 463.5,454 463.2,454.4 462.8,454.9 462.6,455.4 463.1,455.8 464.5,456.1 464.8,456.7
			464.7,456.7 464.4,456.5 464.1,456.4 463.7,456.3 463.4,456.4 463.3,456.6 463.4,456.8 463.3,457 463.1,457.1 462.9,457
			462.7,456.9 462.6,456.8 462.3,456.9 462,456.9 461.8,457.3 461.7,457.7 461.6,458.1 461.7,458.8 461.6,459.1 461.4,459.5
			461.5,459.6 461.3,460 461.4,460.2 461.5,460.3 461.9,460.1 462.1,460.2 462.2,460.5 462.3,461.3 462.5,461.6 461.7,461.7
			461.3,461.8 461.1,462.2 460.9,462.9 461,463.1 461.5,463 461.4,463.4 461.4,463.7 461.5,464 461.9,465 462.1,465.4 462.1,465.5
			462,465.6 461.9,466 461.6,466.6 461.6,467.3 461.4,467.7 461,467.9 460.1,468.2 460.5,468.8 460.7,469 461.1,468.9 461.2,469.3
			461.3,469.7 461.4,470 461.3,470.2 461.1,470.3 461,470.4 460.9,470.5 460.8,470.7 460.9,470.8 461.2,471.1 461.4,471.3
			461.2,471.4 461.3,471.7 461.3,472.1 461.2,472.4 461.1,472.7 461,472.6 460.7,472.6 460.4,472.7 460.4,472.8 460.2,472.7
			460,472.6 459.9,472.5 459.6,472.6 459.4,472.9 459.2,473.1 458.6,473.3 458.5,473.4 458.6,473.6 458.7,473.7 458.8,473.8
			459.3,473.8 459.6,473.9 459.4,474.1 459.3,474.2 459.1,474.2 458.9,474.2 459,474.6 458.9,474.8 458.6,475.3 458.5,475.6
			458.3,476.1 458.2,476.4 458,476.2 457.8,476.1 457.6,476.1 457.3,476.2 457.5,476.3 457.7,476.6 457.7,476.9 457.5,477.1
			457.1,476.5 456.9,476.4 456.4,476.3 456.2,476.4 456.1,476.7 456.1,477.6 456.2,478.4 456.8,479.9 456.9,480.8 456.8,481.7
			456.8,482.1 457.2,482.7 457.5,483.9 457.5,484.3 457.3,485 457.2,486 457.1,486.3 456.7,487.1 456.7,487.3 456.7,487.4
			456.8,487.6 457.2,488.3 457.2,489.2 457.3,489.9 457.3,490.1 457.3,490.5 457.3,490.7 457.4,490.9 457.6,491.2 457.6,491.4
			457.8,491.6 458.1,491.3 458.7,490.4 459.8,488.1 460.2,487.5 460.7,487 460.9,486.7 461,485.9 461.3,484.9 461.6,484.4
			461.7,484.3 461.8,484.2 461.9,484.1 462.3,482.9 462.5,481.9 462.8,481.1 462.8,480.7 462.5,479.4 462.4,479.2 462,478.8
			461.9,478.6 462.1,477.7 462.3,477.2 463.2,476.1 463.6,475.7 463.8,475.6 464.2,475.6 464.3,475.6 464.5,475.4 464.7,475
			464.8,474.8 465.1,474.7 465.3,474.7 465.5,474.8 465.7,474.8 466.4,474.5 466.5,474.5 466.6,474.3 466.7,474.1 466.8,473.7
			466.8,473.4 466.6,473 466.6,472.8 466.6,472.5 466.7,472.3 466.7,472.1 466.9,471.9 467,471.7 467.1,471.7 467.2,471.8
			467.5,471.8 467.7,471.9 467.9,472 468.1,472 468.3,471.7 468.5,471.1 468.6,470.9 468.9,470.6 469.7,470.2 470.1,469.9
			470.2,469.7 470.4,469.3 470.5,469.1 470.7,469 471.2,468.8 471.3,468.7 471.9,466.8 472.2,466.4 472.8,465.6 473.1,465.1
			473.4,464.3 473.6,464 474.4,463.2 474.5,462.8 474.5,462.5 474.6,462 474.8,461.6 475.4,461 475.7,460.7 475.8,460.3
			475.9,459.9 475.9,459.1 475.9,458.6 476.1,458.3 476.4,458.1 476.9,458 477.7,457.9 478,457.8 479.3,456 479.4,455.5
			479.7,454.2 479.7,454 479.4,453.9 479,453.6 478.6,453.3 478.4,453 478.2,452.5 478.3,452.1 478.6,451.3 478.6,450.9
			478.5,450.5 478.2,450.3 477.8,450.1 477.5,449.8 477.6,449.3 477.9,448.3 477.9,448.1 478,447.9 478,447.7 478,447.5
			477.8,447.4 477.6,447.4 476.4,447.8 476.2,447.7 476.1,447.3 476.2,447.1 476.4,447 476.5,446.8 476.6,446.5 476.5,446.3
			476.3,445.9 476.2,445.7 476.2,445.5 476.2,445.1 476.2,444.9 476.1,444.7 475.7,444.3 475.6,444 475.6,443.6 475.5,442.5
			475.4,442 474.9,441.2 474.8,440.8 474.9,440.6 475.1,440.1 475.2,439.9 475.2,439.5 475.2,439 475.2,438.5 475,438.2 474,437.7
			473.7,437.5 473.5,437.3 473.4,437.1 473.3,436.9 472.8,436.8 472.6,436.7 472.5,436.5 472.5,436.1 472.4,435.9 472.2,435.8
			471.7,435.7 471.5,435.6 471.3,435.3 471.3,434.9 471.3,434.5 471.3,434.1 471.1,433.8 470.7,433.5 470.5,433.2 470.5,433
			470.4,432.4 470.1,431.8 470.1,431.6 470.1,431.3 470.2,431.1 470.3,430.9 470.4,430.7 470.3,430.3 470.1,429.9 469.7,429.6
			469.3,429.4 468.9,429 468.8,428.6 468.9,428.1 469.1,427.6 469.1,427.1 469.1,426.7 469.1,426.3 469.3,425.9 469.7,425.8
			470.5,425.7 470.8,425.4 470.9,425.1 470.8,424.6 470.5,423.9 470.5,423.6 470.6,423.4 470.7,423.2 470.8,423 470.8,422.8
			470.7,422.4 470.8,421.4 470.8,421 470.1,417.8 470,416.1 470.1,415.6 470.1,415 469.9,414.7 469.2,414.1 469.1,413.7
			468.8,412.7 468.8,412.4 468.9,412.1 468.9,412 468.8,411.8 468.7,411.7 468.6,411.6 468.3,411.5 468.2,411.5 468.2,411.3
			468.1,411 468,410.9 467.3,410.4 467.2,410.2 466.9,409.7 466.7,409.3 466.1,408.6 465.9,408.2 465.9,407.7 465.7,407.4
			465.3,407.1 464.9,407 464.4,406.8 462,405 461.6,404.5 461.1,403.6 460.9,403.5 460.7,403.6 460.3,403.6 460.2,403.5
			459.9,403.1 459.8,403 459.7,402.9 459.4,402.9 459.2,402.8 459,402.6 458.8,402.5 457.9,401.3 456.5,398.4 456.2,398.3
			455.9,398.2 455.8,397.9 455.7,397.4 455.5,397 455.2,396.5 452.8,394.2 451.7,392.4 451.6,392 451.6,391.7 442.9,385.4 		"/>
		<polygon fill="#EA2839" points="455,437.2 454.6,436.9 453.5,436.6 453.2,436.2 452.9,437.1 452.9,438.1 453.2,439 453.5,439.7
			453.5,439.8 453.4,440 453.3,440.1 453.2,440.2 453.2,440.3 453.3,440.4 453.4,440.6 453.6,440.9 453.6,441.1 453.5,441.6
			453.3,442.4 453.2,442.9 453.1,443 452.9,443.4 453.9,443.7 454.7,442.9 456,441 456.2,440.5 456.3,439.7 456.3,438.9
			456.2,438.4 455.9,438 455.7,438.3 455.5,439 455.4,439.5 454.9,438.6 454.8,438.3 455,437.4 		"/>
		<polygon fill="#EA2839" points="452,452.4 451.9,452.8 451.9,453.3 452.1,453.4 452.3,453.4 452.5,453.1 452.6,452.8 452.6,452.5
			452.2,452.3 		"/>
		<polygon fill="#EA2839" points="445.2,412.2 445.1,412.7 445.1,413.3 445.1,413.6 445.3,413.6 445.4,412.8 445.4,412.5
			445.6,412.2 445.4,412.1 		"/>
		<polygon fill="#EA2839" points="446.5,488.3 446.5,488 446.5,487.8 446.3,487.7 446.3,488 446.1,488.2 446,488.3 445.9,488.6
			446,488.7 446.1,488.6 446.1,488.5 446.2,488.3 446.3,488.4 446.4,488.5 		"/>
		<polygon fill="#EA2839" points="449.7,471.3 449.6,471.5 449.5,471.8 449.5,472 449.4,472.1 449.1,472.2 449,472.3 448.5,472.8
			448.4,473.2 448.6,473.4 448.8,473.3 449.5,472.9 449.6,472.7 449.6,472.5 449.8,472.4 450,472.4 450.1,472.5 450.3,473.2
			450.3,473.1 450.4,473 450.4,472.9 450.8,473.3 451.2,473.7 451.2,473.8 451.2,473.9 451.2,474.1 451.3,474.2 451.6,474.3
			451.7,474.3 451.7,474.7 451.5,475.3 451.5,475.6 451.9,475.9 452,476.1 451.7,476.3 451.6,476.2 451.5,476.2 451.5,476.8
			451.6,477.1 451.9,477.1 452.2,477.1 452.4,476.9 452.6,476.4 452.7,476.4 452.6,476.3 452.7,476.3 452.8,476.3 452.6,476.1
			452.5,475.9 452.6,475.6 452.8,475.3 452.4,475.3 452.3,475 452.3,474.6 452.2,474.2 452,473.9 451.7,473.8 451.5,473.5
			451.4,473.2 451.4,472.8 451.3,472.4 451.2,472 451,471.7 450.7,471.5 450.3,471.3 449.9,471.3 		"/>
		<polygon fill="#EA2839" points="451.8,451.9 451.9,452 452.1,451.9 452.2,451.7 452.2,451.6 452.1,451.2 452.1,451 451.9,450.9
			451.6,451 451.4,451.3 		"/>
		<polygon fill="#EA2839" points="452.5,490.3 452.8,490.3 452.8,490.2 452.5,490.1 452.5,490.1 452.4,490.2 451.9,490 451.5,490.2
			451,490.7 450.4,491 450.3,491.1 450.2,491.3 450.1,491.5 450,491.6 449.9,491.7 449.9,491.8 449.8,491.9 449.6,492 449.4,492.1
			449.3,492.7 449.2,492.9 449.2,493.2 449.2,493.7 449.2,494.1 449.5,494.1 449.5,494.4 449.7,494.2 450.3,493.4 450.2,493.2
			450.3,493.1 450.3,492.9 450.4,492.7 450.7,492.7 451.4,492.2 451.7,492.1 451.9,491.9 452,491.6 452.2,491.2 452.6,491.1
			452.7,490.9 452.7,490.8 452.5,490.7 452.4,490.6 452.3,490.4 452.3,490.3 		"/>
		<polygon fill="#EA2839" points="451.3,481.1 451.4,480.7 451.4,480.6 451.5,480.5 451.5,480.5 451.2,480.5 450.9,480.6
			450.6,480.8 450.5,481.1 450.7,481.5 451,481.4 		"/>
		<polygon fill="#EA2839" points="450.3,488 450.3,488.3 450.3,488.4 450.5,488.7 450.6,488.8 450.6,490.4 450.8,489.9 450.9,488.9
			451,488.7 451.2,488.5 451.5,488.4 451.4,488.2 451.4,488.1 451.5,488 451.5,487.9 451.6,487.9 451.6,487.9 451.7,487.9
			451.7,487.8 451.3,487.7 450.8,487.4 450.4,487.4 450.4,487.5 450.5,487.7 450.5,487.9 		"/>
		<polygon fill="#EA2839" points="453.2,427.9 453.1,428 452.9,428.1 452.8,428.1 452.6,427.8 452.2,425.7 452.1,425.4 451.8,425.4
			451.7,425.6 451.6,426.5 451.7,426.9 451.8,427.4 452.2,428.6 452.5,429.9 452.6,430.3 452.6,430.7 452.9,431.2 452.9,431.6
			453.2,431.3 453.1,430.9 452.9,430 452.9,429.4 452.9,429.2 453,429 453.1,428.9 453.2,428.8 453.3,428.6 453.6,428.4
			453.6,428.3 453.5,428.1 		"/>
		<polygon fill="#EA2839" points="435.9,454.5 435.6,454.5 435.9,454.8 436,454.8 436.3,454.9 436.2,454.7 		"/>
		<polygon fill="#EA2839" points="436.3,454.4 436.4,454.4 436.6,454.8 436.9,454.9 437.2,454.8 437.3,454.7 437.3,454.6
			437.3,454.4 437.2,454.3 437,454.3 437,454.3 436.6,454.3 436.6,454.2 436.4,454.2 436.3,454.2 436.3,454.3 436.3,454.4 		"/>
		<polygon fill="#EA2839" points="450.5,461.2 450.3,461.2 450.1,461.2 450.1,461.5 450.1,461.6 450.4,461.7 450.6,461.7
			450.8,461.7 451.1,461.7 451.2,461.6 450.9,461.5 450.9,461.3 451.1,461.2 451.4,461.2 451.3,461 451.3,460.9 451.4,460.8
			451.5,460.6 451.6,460.8 451.9,461.1 452.1,461.3 452.1,461.2 452.1,461.1 452.2,461 452.2,460.9 452.4,461 452.5,460.4
			452.5,459.3 452.8,458.8 452.6,458.4 452.7,457.9 452.9,457.1 452.9,456.4 452.9,456.2 453,456.2 453.1,456.1 453.3,456.1
			453.3,455.9 453.2,455.5 453,454.9 452.7,454.5 452.4,454.5 452.3,454.8 452.2,455.7 451.6,456.8 451.5,457.2 451.5,457.4
			451.7,457.8 451.7,458.1 451.6,458.1 451.4,458.2 451.3,458.2 451.2,458.6 450.9,458.8 450.8,459 450.9,459.2 451,459.3
			451.1,459.4 451.1,459.5 451,459.6 450.8,459.8 450.6,459.9 450.6,460.1 450.7,460.3 450.8,460.7 450.8,460.9 450.7,461.1 		"/>
		<polygon fill="#EA2839" points="442.3,406.1 442.4,406.3 442.5,406.4 442.7,406.2 442.8,406 443,405.9 443,405.8 443.2,405.4
			443.2,405.2 443.1,405.2 442.9,405.3 442.9,405.3 442.8,405.3 442.7,405.4 442.6,405.4 442.5,405.7 442.4,405.9 442.3,405.9 		"/>
		<polygon fill="#EA2839" points="441.3,448.2 441.3,448.2 441.4,448 441.4,447.9 441.6,447.7 441.6,447.6 441.5,447.5 441.6,447.4
			441.6,447.4 441.5,447.4 441.3,447.4 441,447.5 441,447.6 441.2,447.8 441.3,448 441.2,448.2 		"/>
		<polygon fill="#EA2839" points="440.3,452.9 440.3,452.7 440.2,452.5 440,452.3 439.6,452.8 439.6,453.1 439.7,453.6 440.1,453.7
			440.2,453.7 440.1,453.2 440.1,453.1 		"/>
		<polygon fill="#EA2839" points="442.2,400.5 442.1,400.7 442.1,400.8 442.2,401 442.3,401.1 442.3,400.9 442.4,400.7 442.5,400.6
			442.4,400.5 		"/>
		<polygon fill="#EA2839" points="447.2,442.4 447.3,442.2 447.2,442.1 446.9,442.1 446.3,442.5 445.9,442.6 445.6,442.8
			445.6,443.4 445.7,443.4 445.8,443.3 445.9,443.2 446.1,443 446.2,443.3 446,443.5 445.8,443.7 445.7,444 445.9,444.1 446.2,444
			446.4,444.1 446.5,444.4 446.6,444.5 446.8,444.8 447,444.1 447,444 447.2,444 447.4,443.9 447.6,443.7 447.8,443.6 448.1,443
			448.1,442.9 448.3,442.9 448.4,443 448.6,443 448.8,442.9 448.9,442.5 448.8,442.1 448.6,441.7 448.3,441.6 448.3,441.7
			448.2,442 448.1,442.2 447.7,442.4 447.7,442.6 447.6,442.8 447.6,443 447.5,443 447.3,443 447.1,443 446.9,442.8 446.9,442.7
			447,442.6 		"/>
		<polygon fill="#EA2839" points="448.9,446.1 449.1,446 449.2,445.8 449.2,445.7 449.3,445.2 449.3,445 449.2,444.7 449,444.5
			448.7,444.4 448.3,444.4 448,444.6 447.7,445 447.6,445.5 447.5,445.8 447.6,446.1 448,446.5 448.3,447 448.3,447 448.4,447.1
			448.5,447.1 448.8,446.9 449.2,447 449.4,447.2 449.6,447.5 449.6,447.3 449.6,446.5 449.5,446.3 449.2,446.3 448.9,446.4
			448.8,446.5 448.8,446.3 		"/>
		<polygon fill="#EA2839" points="449.8,462.2 449.7,462.2 449.6,462.2 449.5,462.2 449.6,462.3 449.6,462.4 449.5,462.4
			449.3,462.4 449.2,462.3 449,462.3 448.9,462.3 448.9,462.4 448.8,462.4 448.9,462.5 449.1,462.7 449.1,462.7 449.2,462.7
			449.4,463.2 449.5,463.1 449.6,463.1 449.7,463.1 449.8,463.2 449.8,463 449.8,462.5 449.8,462.3 		"/>
		<polygon fill="#EA2839" points="443.8,434.6 444,434.6 444.1,434.4 444.1,434.1 443.8,433.8 443.6,433.8 443.5,434.1 443.5,434.5
					"/>
		<polygon fill="#EA2839" points="443.2,438.3 443.3,438.5 443.4,438.6 443.4,438.6 443.4,438.8 443.4,438.9 443.5,438.9
			443.5,438.9 443.6,438.9 443.6,439.1 443.7,439.1 443.7,439.2 443.8,439.2 443.8,439.3 444,438.9 444,438.7 443.8,438.5
			443.8,438.2 443.7,438.1 443.5,438.1 443.3,438.2 		"/>
		<polygon fill="#EA2839" points="444.6,473.8 444.4,474.1 445,473.8 445.3,473.5 445.6,473.1 445.8,472.5 445.4,472.4 445,472.4
			444.7,472.6 444.6,473.2 444.7,473.5 444.7,473.6 		"/>
		<polygon fill="#34B233" points="453.8,264.9 499.7,264.9 499.9,264.7 500.4,264.2 500.4,264.1 499.8,264 498,264.3 497.6,264
			497.7,263.6 497.9,262.7 497.9,262.3 498,262.1 498.4,261.9 498.5,261.7 498.5,261.6 498.2,261 498.6,260.8 499.5,260.6
			499.9,260.4 500.1,260.1 501.2,258.1 501.8,255.5 501.8,255.3 501.8,255 501.9,254.9 502.1,254.8 502.3,254.8 502.5,254.8
			502.7,254.9 502.8,255 503.2,255.2 503.7,255.1 504.4,254.8 504.7,254.6 505.3,253.9 505.6,253.8 507.5,252.8 510.3,250.5
			510.6,250.4 510.7,250 510.6,249.7 510.6,249.3 510.6,248.9 510.8,248.6 510.9,248.4 510.8,248.1 510.8,247.8 510.7,247.4
			510.5,247 510.2,246.8 510,246.6 510,245.5 509.8,245.2 509.1,245 508.8,245.1 508.6,245.3 508.3,245.5 507.3,246.2 506.9,246.4
			505,247 504.1,247.4 503.3,248.1 502.5,249.3 501.5,250.4 500.6,250.9 500.6,250.9 500.6,250.9 500.3,251.2 499.8,251.5
			498.8,251.8 498.3,251.8 497.3,251.6 496.8,251.7 496.5,251.8 496.2,251.6 496,251.3 495.9,250.9 495.3,250.4 495,250.2
			494.6,250.1 494.1,250.1 493.8,250.3 493.6,250.5 493.3,250.9 493.3,250.9 493.3,250.9 493.1,251.2 492.8,251.3 492.2,251.6
			491.9,251.7 491.2,252.2 491,252.4 490.5,252.2 489.8,251.2 489.4,250.9 489.2,250.6 489,250.2 489,249.7 489,249.3 489,249
			489.1,248.7 489.3,248.3 489.6,248 489.8,247.9 490,247.8 490.1,247.8 490.2,247.6 490.1,247.4 490,247.3 489.7,247 488.9,246.8
			487.2,246.8 486.4,246.4 486.2,246 486,244.8 485.6,244 485.6,243.7 485.6,243.2 486.3,241.6 486.5,240.8 486.2,240.1 486,239.8
			485.9,239.6 485.9,239.3 486.1,239 484.5,238.7 484.1,238.8 484,239 484,239.4 483.9,239.6 483.6,239.6 483.5,239.5 483.3,239.3
			483.2,239.2 481.9,238.5 481.6,238.4 481.2,238.6 481,239 480.8,239.1 480.4,238.9 480.3,238.8 480.1,238.4 480,238.2
			479.8,238.1 477.9,237.7 477.2,237.7 476.9,237.7 475.9,237.3 475.6,237.3 474.4,237.8 473.7,237.9 472.1,237.7 471.3,237.5
			470.4,237.1 469.9,236.6 470.5,236.3 470.2,236 470.4,235.5 471,234.7 471.2,234.3 471.4,233.2 471.6,233 471.9,232.6 472,232.3
			472,232 471.9,231.9 471.8,231.7 471.9,231.4 472.7,231 474,229.7 474.2,229.5 474.2,229.2 474.2,229 442.1,229 		"/>
		<polygon fill="#34B233" points="397.9,229 347.8,229 347.9,229.6 348.1,229.9 348.8,230.7 349.1,231.6 349.3,234.1 349.2,234.3
			349.1,234.6 349,234.7 348.8,234.7 348.3,235 348.3,234.9 348.2,235 348.2,235.2 348.6,235.9 348.1,236.1 347.8,235.9
			347.6,235.7 347.2,235.6 346.7,235.5 346.5,235.5 346.2,235.6 346.2,235.7 346.2,235.9 346.2,237.4 346.2,237.5 345.9,237.7
			345.6,237.7 345.4,237.9 345.1,238.6 345,238.9 345.1,239.2 345.2,239.5 345.3,239.6 345.3,239.8 345.3,239.9 345.3,240.1
			345.3,240.1 345.2,240.2 345.1,240.3 345,240.3 344.8,240.2 344.7,240.1 344.5,239.7 344.1,239.5 343.8,239.6 343.7,240.1
			343.5,240.7 343.3,240.9 343,240.7 342.9,240.1 342.8,239.5 342.4,239 341.1,237.7 339.8,236.8 339.3,236.6 339.1,236.8
			339.1,237.1 339.2,237.7 339.1,237.9 339,238 338.9,237.9 338.9,237.9 338.8,238.3 338.8,238.7 338.8,239 338.8,239.3
			338.7,239.6 338.4,239.7 338.2,239.7 338,239.8 337.7,240.1 337.6,240.2 337.5,240.3 337.3,240.4 337.2,240.5 337.4,241.8
			337.5,242.4 337.1,245.7 337.4,250.9 337.5,251.4 337.7,252.5 338.4,254.7 338.5,255.1 338.3,255.5 337.9,255.9 337.5,256.2
			337,256.2 336.8,256 336.7,255.5 336.5,254.7 336.1,253.8 335.6,253.7 334.9,253.8 334.1,253.7 333.6,253.6 333.4,253.5
			333.2,253.3 333.1,252.9 333,252.5 333,252.2 332.7,251.8 332,251.6 331.3,252.5 330.6,252.5 330.3,252.6 330.1,253 329.8,253.9
			329.2,254.7 329.1,255.1 329.1,255.5 329.3,256.4 329.2,256.8 329.1,257.5 329.1,257.8 329.2,258.2 329.3,258.5 329.8,258.9
			329.9,259.2 330,259.6 330.9,260.3 331,260.5 331.2,262.5 331.3,262.8 331.7,263.4 332.2,264.9 386.2,264.9 		"/>
		<polygon fill="#FFFFFF" points="353.3,407.8 353.7,407.6 353.8,407.2 353.7,406.2 353.6,406 353.5,406 353.5,406.3 		"/>
		<polygon fill="#FFFFFF" points="359.8,390.7 359.6,391.1 359.4,391.3 359.7,391.3 360,391.1 360.2,390.7 360.4,390.3 360.4,390.2
			360,390.4 		"/>
		<polygon fill="#FFFFFF" points="350.4,409.6 350.4,409.7 350.5,409.8 350.7,409.6 350.6,409.4 350.6,409.1 350.5,408.9
			350.4,409.1 350.4,409.3 350.4,409.5 		"/>
		<polygon fill="#FFFFFF" points="374.4,367.2 373.8,367.5 373.7,368.2 374.2,369.5 374.4,370.2 374.1,370.8 374.1,370.9
			374.2,370.9 374.7,370.3 374.9,369.9 374.8,369.6 375,369.4 375.4,369 375.6,368.8 375.6,368.6 375.6,368.4 375.6,368.3
			375.7,368.2 376,368 377.1,367.6 377.5,367.4 377.7,367.3 378.7,366 379.2,365 379.4,364 379.3,362.9 378.9,362.4 378.3,362.9
			377.1,364.4 376.4,365 376.3,365.3 376,366 375.8,366.3 375.1,366.8 		"/>
		<polygon fill="#FFFFFF" points="387.3,373.4 387.5,373.1 387.2,372.8 387,372.9 387,372.9 386.8,373.1 386.6,373.2 386.6,373.2
			386.7,373.5 387,373.6 		"/>
		<polygon fill="#FFFFFF" points="382.2,371.8 382.5,371 382.9,370.4 383,370.1 382.9,369.9 382.7,369.3 382.7,369 382.7,368.9
			382.7,369 382.6,368.7 382.3,369 381.7,369.8 381.3,370.6 381,371 380.6,371.3 380.6,371.5 381.1,371.7 381.7,371.9 		"/>
		<polygon fill="#FFFFFF" points="440.1,377.6 440.2,377.3 440.2,376.9 440,376.6 440,376.5 439.9,376.3 439.9,376.2 439.7,376.1
			439.9,377.5 440,377.9 		"/>
		<polygon fill="#FFFFFF" points="348.9,286.8 348.9,286.7 348.8,286.7 348.8,286.7 349.1,287.2 		"/>
		<polygon fill="#FFFFFF" points="442.1,229 420,161 397.9,229 386.2,264.9 332.2,264.9 332.8,266.6 333,267.6 333.2,268
			333.6,268.2 333.8,268.3 334.2,268.6 334.4,268.7 334.7,268.7 334.8,268.8 334.9,269 335,269.2 335.8,270 336,270.4 336.2,271.4
			336.4,271.7 338.3,273.5 338.7,274.1 339.6,276.4 339.8,276.8 340.2,277.2 340.3,277.5 340.5,277 340.3,274.8 340.4,273.9
			340.4,273.5 340,272.3 339.8,270.6 339.8,270.4 338.9,269 338.4,268.1 338.9,268.5 339.7,269.8 340.1,270.3 340.4,271
			340.5,271.7 340.7,272.4 341.3,272.8 341.2,272.8 340.9,272.9 341.1,273.3 341.4,273.1 341.6,272.7 341.5,272.2 342,272.2
			342.2,272.4 342.3,272.8 342.5,274.7 342.6,275 342.8,275.2 343.3,275.6 343.5,275.7 343.5,275.9 343.6,276 343.8,276 344.2,276
			344.4,276.1 344.6,276.2 343.7,276.4 343,276.6 341.7,277.5 341.4,277.8 341.3,278.1 341.2,278.4 341.1,278.7 341.3,279
			342.6,280 342.8,280.2 342.9,280.4 343.1,280.4 343.3,280.4 343.5,280.3 343.6,280.2 343.7,280.1 344.4,278.5 345.6,276.9
			346.1,276.1 346.2,275.1 346.1,274 346.2,273.3 346.5,272.9 346.7,272.5 347,272 347.1,271.6 347.2,271.2 347.5,271.6
			347.2,272.4 346.4,273.8 346.4,274.3 346.4,274.8 346.6,275.2 346.9,275.3 347.2,275 347.4,274.1 347.8,273.8 347.6,274.9
			347.4,275.4 346.9,275.6 346.6,275.9 346.1,277.5 345.8,277.9 345.5,279 345.5,279.7 346.1,279.8 346.7,279.4 347.5,278.5
			348.2,278.4 348.2,278.5 348.1,278.7 347.6,279.8 347.5,279.8 347.5,279.7 347.5,279.6 347.4,279.5 347.4,279.4 347,279.9
			346.8,280.2 346.6,280.3 345.5,280.4 345.1,280.3 345.2,280.5 345.2,281.2 345.3,281.4 345.6,281.6 346,282.2 346.5,282.8
			346.7,283.1 346.8,283.7 346.9,284.1 348,285.7 348.3,286.3 348.5,286.6 348.6,286.6 348.8,286.7 348.5,286.3 348.4,286
			348.3,285.3 347.9,284.5 347.8,283.8 347.9,283.2 348.4,282.9 348.7,283.2 349,283.8 349.3,284.8 349.8,286 350.1,286.5
			350.6,286.9 350.5,286.3 349.3,283.9 348.9,282.5 348.5,281.8 348.4,281.4 348.3,281 348.5,281.3 348.7,281.5 349,281.7
			349.3,281.9 349.6,281.7 350.1,281.8 350.7,282 351.2,282 351.7,281.9 352.1,281.6 352.3,281.3 352.5,280.8 352.6,280.8
			352.9,282.2 353,282.5 353.3,282.4 353.3,282 353.3,281.1 353.5,281.1 353.5,281.7 353.9,282.8 354,283.3 354.1,283.5
			354.3,283.8 354.5,284 354.8,284.1 355,284 355.1,283.9 355.2,283.4 355.3,283.5 355.6,283.7 355.7,283.8 355.8,283.5
			355.9,283.3 356.1,283.2 356.4,283.1 356.4,283.2 356.5,283.4 356.2,283.4 356.1,283.7 356.2,283.9 356.5,284.1 356.2,284.3
			356.4,284.5 357.2,284.8 357,284.9 356.9,285 356.8,285.1 356.9,285.3 357.2,285.5 357.5,285.6 357.7,285.5 357.9,285.4 358,285
			358.1,284.9 358.5,285 358.6,285 358.8,284.9 359,284.8 360,284.8 360.1,284.8 360.1,284.4 360.2,284.4 360.4,284.4 360.6,284.5
			360.7,284.6 360.8,284.8 360.5,284.9 360.4,285.1 360.5,285.3 360.7,285.5 360,285.5 359.5,285.5 359.1,285.8 358,287.4
			357.9,287.7 357.9,289 358.2,288.9 358.3,288.7 358.6,288.2 358.6,288.7 358.8,288.9 359.8,288.9 359.9,288.7 360.1,288.3
			360.3,288 360.9,288 360.7,288.3 360.3,288.5 360.1,288.8 360.1,289.2 360.2,289.5 360.3,289.8 360.5,289.9 361.1,290
			361.6,289.6 361.9,289.1 362,288.5 362.2,288.6 362.5,289 362.2,289.4 362,289.7 361.8,290 361.9,290.4 361.5,290.2 361,290.3
			360.7,290.5 360.5,290.9 360.7,291.2 361.4,291.5 361.6,291.8 361.8,292.2 362.2,292.6 363,293.1 363.6,293.7 363.8,293.7
			364.3,293.7 364.5,293.8 364.7,293.9 364.3,294 364.2,294.3 364.4,294.5 364.9,294.6 365.5,294.5 365.6,294.5 365.8,294.6
			365.8,294.8 365.6,295 365.7,295.7 365.7,296.1 365.6,296.4 365.2,296.9 365.2,297 365,297 364.9,297.1 364.9,297.2 365,297.4
			364.9,297.5 364.5,298 363.2,298.9 362.6,299.3 361.8,299.3 361,299.1 360.3,298.6 360.2,298.1 359.6,298 359.2,297.8
			358.3,297.2 358.6,296.9 358.5,296.4 358.1,295.8 357.4,295.8 357.2,295.7 357.1,295.5 357.1,295.3 356.9,295.2 356.4,295.2
			356,295.4 355.7,295.7 355.5,296 355.5,296.9 355.6,297.3 355.8,297.7 357,299.3 357.2,299.4 357.7,300.6 358,300.9 358.7,301.5
			358.9,301.8 358.9,302 359,302.3 359.1,302.5 359.2,302.7 359.3,302.9 359.2,303.4 359.3,303.7 359.5,303.9 359.6,304
			359.8,303.9 360,304 360.2,304.1 360.3,304.3 360.4,304.5 360.6,304.7 360.9,305 361.8,305.3 362.2,305.5 363.2,306.6
			364.1,306.9 364.3,307.2 364.5,307.4 364.8,307.1 364.8,307.1 364.7,307 364.7,306.8 364.7,306.7 364.7,306.7 364.9,306.6
			364.9,306.6 365.4,306 365.5,305.8 365.5,305.6 365.6,305.3 365.6,305 365.6,304.8 365.2,304.3 365.1,304.1 365,303.7
			364.9,302.3 365,302 365.1,301.8 365,301.7 364.9,301.4 364.2,300.7 364.1,300.6 364.1,300.3 364.3,300 364.4,299.9 364.7,300
			364.8,300.2 364.8,300.7 364.9,301 365.4,301.2 365.8,301 366.2,300.5 366.4,300.3 366.6,300 366.6,299.3 366.5,298.3
			366.6,297.6 367.1,296.6 367.3,296.1 367.4,296.4 367.4,296.9 367.2,297.3 367,297.5 366.9,297.9 367,299.6 367,299.9
			366.7,300.5 366.6,300.8 366.6,301.1 366.7,301.5 366.7,301.8 366.6,302.1 366.5,302.3 366.6,302.5 366.9,302.6 367.1,302.6
			367.6,302.5 367.9,302.5 367.7,302.6 367.2,303 367.2,303.1 367.3,303.3 367.3,303.4 367.2,303.5 367,303.9 367,304 366.8,304.4
			366.7,304.7 366.8,305 367,305.7 366.7,306.1 366.6,306.7 366.7,307.3 367,307.7 367.1,307.7 367.3,307.6 367.5,307.9
			367.9,308.1 368.4,308.2 368.7,308.2 368.6,307.9 368.7,307.6 368.7,307.3 369,307.1 368.9,307.8 369,308.1 369.6,308.9
			370.2,309.8 370.6,310 371.1,309.6 371.3,309.8 371.6,309.9 370.2,310.2 369.5,310.2 369.1,309.9 369,309.9 369,310.1 371,312
			371.1,312.2 371.3,314 371.2,314.2 370.9,314.1 371.2,314.8 371.6,315.4 372.6,316.5 372.8,316.9 372.9,317.3 373,317.6
			373.3,317.7 373.8,317.9 374,318.2 374.1,318.6 374.4,318.9 374.2,319 374,319.4 373.8,319.5 373.6,319.5 373.3,319.2 373,319.3
			372.8,319.1 372.6,319.1 372.6,319.3 372.5,319.6 372.5,319.9 372.6,320.1 372.9,320.3 373.2,320.3 374.2,320.2 374.5,320.4
			374.6,320.8 374.8,321.7 374.9,321.8 375.1,322 375.2,322.2 375.3,322.5 375.3,322.7 375.3,323 375.7,323.5 375.9,324 376,324.5
			375.9,325 375.7,325.2 375.1,325.5 374.9,325.8 375,326.1 375.7,327.6 375.8,328.1 375.9,329.4 376.1,330 376.9,330.9
			377.1,331.3 377.2,332.2 377.3,332.7 377.6,333.1 377.9,333.4 378,333.6 377.9,333.9 377.9,334.1 378.3,334.8 378.4,335.1
			378,334.9 377.6,334.5 377.3,334.4 377.1,334.9 377.1,335.2 377.2,335.3 377.3,335.4 377.4,335.7 377.5,336 377.5,336.2
			377.4,336.6 377.6,339.1 378,340.5 377.8,340.2 377.5,340.1 377.3,340 377,339.9 377,340.4 376.7,340.5 376.4,340.5 376.3,340.8
			376.2,341.8 376.3,342 376.4,342.1 376.6,342.2 376.8,342.3 376.9,342.5 376.8,342.7 376.7,342.8 376.5,342.9 376.4,343
			376.3,343 375.3,342.6 375.1,342.8 375.1,343.1 375.2,343.4 375.8,343.6 375.8,344 375.7,344.4 375.6,344.6 375.3,345.1
			375.2,345.4 375.2,345.5 375.2,347 375.1,347.3 374.9,347.7 375.3,347.7 374.7,348.5 374.5,348.7 374.3,348.7 374.1,348.6
			373.8,348.6 373.7,348.7 373.6,349 373.7,349.3 374,349.8 374,350.2 374.1,351 374,351.3 373.6,351.7 373.5,352 373.5,352.3
			373.3,352.9 373.3,353.2 373.3,354.3 373.1,354.6 372.6,354.9 372.6,355 372.9,355.2 373,355.5 372.8,356.1 372.6,356.5
			372.2,356.5 371.5,356.3 371.4,356.5 371.5,357.8 371.2,359.5 371.1,359.6 370.8,359.9 370.8,360 370.7,360.3 370.8,361.8
			370.3,364.3 370.2,366.6 370.2,366.9 370.3,367.2 370.8,368 371,368.2 371.3,368.1 371.7,367.6 372,367.8 372.4,367.8
			372.8,367.6 373,367.4 373,366.8 373.2,366.5 373.5,366.4 374,366.3 374.6,366 375.2,365.3 376.2,363.6 376.3,363.3 376.4,362.9
			376.4,362.4 376.4,361.5 376.5,361.4 376.9,361.5 377,361.6 377.1,361.7 377.3,361.8 377.6,361.9 377.7,361.8 377.9,361.6
			378.1,361.4 378.2,360.7 378.4,360.4 378.7,360.4 378.8,360.7 378.4,361.6 377.9,362.1 377.7,362.5 377.8,362.6 378.2,362.5
			378.6,362.1 379,361.6 379.1,361.1 379.2,360.8 379.7,360.3 379.8,359.9 379.8,358.7 379.5,356.9 379.6,356.4 379.8,356.9
			380,356.9 380.8,356.6 380.7,356.9 380.6,357 380.4,357 380.3,357.2 380.2,357.4 380.2,357.7 380.5,359.6 380.8,359.9 380.8,360
			380.5,360 380.3,360 380.2,360.2 379.8,361.4 379.6,361.8 379.4,362.2 379.5,362.5 379.8,363.2 379.8,364.1 379.7,365
			379.4,365.9 378.9,366.6 377.9,367.6 377.3,368.4 377.4,368.9 377.9,369 378.4,368.7 379.5,367.6 379.9,367.4 380.2,367.1
			380.5,366.6 380.6,366.2 381.2,365.3 381.4,364.6 381.6,364.4 382,364.2 382,364.5 381.8,364.6 381.6,364.7 381.6,364.8
			381.6,365.2 381.5,365.4 381.4,365.6 381.3,365.8 381.1,366 380.9,366.1 380.8,367.2 380.2,367.9 379.4,368.4 378.7,368.8
			378.1,369.2 378.3,369.5 378.5,369.8 378.7,369.9 378.8,369.5 379,369.9 379.1,370.3 379.3,370.6 379.8,370.8 380.2,370.7
			380.5,370.5 380.8,370.3 381,370 381.6,368.7 381.9,368.3 383.1,367.6 383.2,367.3 383.3,367.2 383.5,366.7 383.5,366.6
			383.4,366.5 383.4,366.4 383.3,366.2 383.1,365.8 383.1,365.5 383.1,364.6 383.2,364.2 383.5,364 383.5,363.9 384,363.3
			384.2,363.2 384.6,363.2 385,363 385.5,362.9 385.6,362.8 385.7,362.7 385.9,362.4 386,362.3 385.9,362.7 385.7,363.1
			385.3,363.4 385,363.5 384.5,363.5 384.1,363.7 383.9,364 383.5,364.6 383.4,364.9 383.4,365.2 383.7,365.9 383.8,366.8
			383.9,367.2 384.6,366.7 384.6,367.2 384.3,367.4 383.9,367.6 383.6,367.6 383.4,367.7 383.1,368 382.9,368.3 382.8,368.6
			382.8,368.9 383.1,369.5 383.1,369.7 383.1,370.4 383.2,370.9 383.4,370.8 383.8,370.3 383.9,370.4 384,370.5 384.1,370.7
			384.1,370.9 383.9,371.2 383.7,371.3 383.5,371.4 383.3,371.5 383.1,371.9 383.3,372.1 384.2,372.2 384.9,372.5 385.1,372.5
			385.7,372.5 385.8,372.4 385.9,372.3 386,372.1 386,372 386.1,371.8 386.4,371.7 386.6,371.7 386.8,371.6 387.1,371.3
			387.3,370.8 387.6,368.2 387.7,367.6 387.5,366.5 387.6,366 388.1,365.6 388.6,364.8 388.8,364.5 388.9,364.5 389,364.7
			389.2,364.8 389.3,364.8 389.5,364.7 389.8,364.6 389.9,364.6 390,364.7 390.1,364.8 390.2,364.9 390.5,364.9 390.7,365
			390.7,365 390.6,365.2 390.4,365.2 389.7,365.2 388.9,365.5 388.4,366.1 388.1,367 388.3,367.9 388.8,366.7 388.9,367.4
			388.5,369.8 388.5,370.6 388.7,371.4 389.1,372 389.7,372.2 390.5,372 390.7,371.5 390.6,370 390.7,369.3 391,368.6 391.7,367.5
			391.7,368.2 391.5,368.8 391.1,369.3 391,369.8 391.2,370.3 391.7,370.1 392.2,369.6 392.5,368.7 393.1,367.9 393.1,367.6
			393.2,366.7 393.1,366.3 392.9,365.6 392.8,365.3 392.8,365 393,364.8 393.2,364.7 393.3,364.5 393.5,364.5 393.4,364.9
			393.2,365.1 393.1,365.4 393.2,365.8 393.5,366.4 393.6,366.7 393.6,367.2 393.5,367.9 393.3,368.6 393,369.2 392.5,369.6
			392.6,370 392.5,370.3 392.3,370.6 392,370.8 391.9,370.9 392,373 392.1,373.2 392.4,373.3 393.7,373.5 394.2,373.5 394.6,373.3
			394.9,373.1 395.5,372.5 396.7,371.7 399.6,368.6 400.1,367.8 400.1,367.5 400.1,366.5 400.3,366.2 400.8,365.3 401,364.9
			400.8,362.9 401,363.1 401.1,363.5 401.2,363.9 401.2,364.2 401.4,364.5 401.9,364.6 402.3,364.5 402.7,363.9 404.2,362.5
			404.1,363 404,363.2 404.5,363.1 404.8,362.8 405,362.5 405.4,362.2 405.3,362.6 405.2,362.8 405.2,363 405.6,363 406,362.9
			406.8,362.2 407.7,361.1 407.7,360.5 406.5,359.5 407.9,360 408.2,360.2 408.3,360.7 408.8,360.8 409.3,360.8 409.7,360.6
			411.1,359.6 411.6,359.4 412.5,359.1 412.9,358.9 413.2,358.4 413,358.1 412.6,357.8 412.3,357.3 411.4,355.9 411.1,355.5
			411.1,355.3 411.1,355 411.3,354.6 411.4,354.3 411.2,353.9 410.7,353.3 410.5,353 410.4,352.2 410.3,352 410,351.6 409.8,351.4
			410.6,351.3 411.6,350.5 412.2,350.5 411.9,350.7 411.1,351.3 410.9,351.6 411,352.1 411,352.5 411.1,352.9 411.5,353.8
			411.7,354.1 411.7,354.5 411.8,355.1 411.9,355.4 412.2,355.7 413.6,356.7 414,356.9 414.5,357 415.8,357.1 416.2,357
			417.4,356.5 418.3,356.3 418.7,356 419.4,355.3 420.1,354.8 420.3,354.6 420.5,354.4 420.9,353.8 421,353.5 421.9,353
			422.2,352.6 422.6,352.1 422.4,351.9 422.3,351.7 422.5,351.6 422.8,351.5 423.1,350.8 423.2,350.3 423.5,349.9 423.5,349.5
			423.4,349.2 423.2,349 423,348.8 422.7,348.7 422.7,348.5 423,348.5 423.4,348.7 423.7,348.7 423.5,348.5 423.4,348.3
			423.3,348.1 423.3,347.9 423.9,348.1 424.1,348 424.3,347 424.7,346.4 424.8,346.1 424.8,345.2 424.5,344.5 423.7,343.1
			423.5,342.1 423.9,341.5 424.4,341.1 424.8,340.6 424.8,339.9 424.3,339.5 423.6,339 423.1,338.4 423,338.3 423,338.2
			423.1,338.1 423.3,338.1 423.4,338 423.4,338.1 423.6,338.3 423.7,338.4 423.8,338.1 424,337.3 424.2,337 424.3,337.3
			424.3,337.9 424.4,338.3 424.5,338.5 424.7,338.7 426.9,340.3 426.7,340.8 427.1,341 427.6,341.1 428,341.3 428.2,341.7
			428.2,342.2 428.4,342.5 428.8,342.6 428.8,342.8 428.5,343.1 428.6,343.8 428.9,344.5 429.2,344.9 429.5,344.5 429.6,344.1
			429.8,343.9 430.3,343.8 430.7,343.8 431.1,344 431.9,344.3 431.3,344.6 430.7,344.4 430.1,344.2 429.8,344.8 429.8,345.1
			429.9,345.4 430.1,345.6 430.2,345.8 430.5,346.1 430.6,346.3 430.6,346.7 430.4,347.7 430.3,348.2 430.5,348.7 430.7,348.6
			430.9,348.5 431,348.7 430.7,349.2 430.7,349.5 430.7,349.9 430.8,350.1 431,350.3 431.1,349.9 431.1,349.7 431.3,349.2
			431.5,349.2 431.3,349.8 431.3,350 431.4,350.2 431.5,350.4 431.6,350.6 431.6,351.3 431.6,351.6 431.8,351.7 431.9,351.8
			432,351.8 432.5,353 432.9,353.3 433.7,353.4 433.4,353.8 433.4,354.3 434.1,357.4 434.4,357 434.7,356.7 435.1,356.6
			435.7,356.6 435.9,356.6 436.1,356.7 436.2,356.7 436.4,356.7 436.5,356.6 436.6,356.5 436.7,356.4 437.2,356.3 437.7,356.3
			439,356.5 439.3,356.4 439.8,356.3 441,355.4 441.2,355.5 441.3,355.6 441.5,355.7 441.6,355.8 440.8,356 440.2,356.4
			439.8,356.9 439.5,357.6 439.3,358.4 439.2,359.3 439.3,360.2 439.5,361 439.7,361.4 439.7,361.6 439.7,361.9 439.7,362.1
			439.5,362.6 439.1,364.9 439,365.3 438.7,365.6 438.4,365.8 438.3,365.8 438.1,365.9 438.1,366 438.1,366.2 438.2,367.1
			438.2,367.2 438.4,367.4 438.9,367.9 439.5,368.6 440.6,369.4 441,369.9 440.9,370.5 441.2,370.6 441.3,370.8 441.3,372.2
			441.2,372.3 441,372.5 441,372.6 441.1,372.8 441.4,373.1 441.4,373.3 441.4,373.4 441.3,373.6 441.3,373.8 441.3,374
			441.5,374.2 441.6,374.6 441.6,374.8 441.6,375 441.6,375.2 441.7,375.4 441.7,375.5 441.6,375.7 441.6,375.8 442.1,377.1
			442.2,377.3 442,377.9 442,378.2 442.5,379.7 442.7,379.9 442.3,380.2 442.1,380.3 442,380.2 441.8,380.9 441.6,380.9 441.4,381
			441.3,381.1 441.3,381.3 441.5,381.6 441.6,381.8 441.6,382.3 441.6,382.7 441.6,382.8 442.1,383.8 442.4,384 442.7,384.1
			443.2,384 443,384.4 442.9,384.8 442.9,385.4 451.6,391.7 451.6,391.7 451.6,391.6 451.6,391.5 451.3,391.3 451.3,391.2
			451.2,390.8 451.3,390 451.1,389.6 450.7,388.9 450.7,388.6 450.7,388.4 450.8,388.2 450.9,388 450.9,387.8 450.8,387.3
			450.2,386.7 450,386.2 450.1,385.8 450.5,385.1 450.6,384.7 450.4,384.1 450.4,383.8 451.1,383.8 451.5,383.7 451.8,383.4
			452.5,382.4 452.8,382.3 453.2,382.4 453.6,382.5 454.3,382.9 454.6,383.1 454.7,383 454.8,382.9 454.8,382.6 454.7,382.4
			454.6,382.4 454.5,382.3 454.4,382.2 454.5,382.1 454.5,382 454.5,381.9 454.6,381.9 454.8,381.8 454.9,381.7 454.9,381.5
			454.8,381.2 454.8,381 454.9,380.9 455.7,380.7 456,380.6 456.4,380.4 456.8,380.6 457.2,380.8 457.5,381.2 457.6,381.6
			458.1,381 458.3,380 458.3,379 457.8,375.9 457.8,374.7 457.7,373.6 457.8,373.1 458.4,371 458.5,370.6 458.3,369.7 458.3,369.2
			458.5,368.4 458.6,368 458.5,367.6 457.9,366.8 457.9,366.6 458,366.4 458.3,366.4 458.5,366.5 458.7,366.6 459,366.6
			459.2,366.6 459.3,366.5 459.5,366.3 459.8,365.9 459.9,365.5 460.1,365.1 460.5,364.9 460.9,364.9 462.1,365.1 462.4,365.2
			462.5,365.3 462.6,365.4 462.9,365.4 463.1,365.2 463.6,364.7 463.7,364.5 463.7,364 463.7,363.6 463.8,363.2 464.1,362.8
			464.7,362.1 464.8,361.8 464.9,360.9 465.1,359.9 465,359.6 464.7,359.1 464.2,358.8 463.8,358.4 463.8,357.7 463.3,358
			463.2,358.4 463,359.2 462.7,359.7 461.5,360.7 460.9,361.6 460.6,361.8 460.2,361.6 460.1,361.2 459.8,359.7 459.5,359.1
			459.5,358.9 459.7,358.5 459.7,358.2 459.6,357.9 458.3,356.2 458.2,356 458.2,355.8 458.3,355.5 458.3,355.4 458.2,355.2
			458.1,355 457.9,354.6 457.2,354.1 456.9,353.7 456.7,353.1 456.6,352.9 456,352.4 456,352 456.1,351.6 456.4,351.3 456.7,351.2
			457,351 457.3,350.7 457.3,350.5 457.2,350.3 457,350.3 456.8,350.1 456.7,349.9 456.8,349.6 456.9,349.5 457.1,349.6
			457.4,349.7 457.2,349.1 457.1,348.9 456.9,348.7 456.6,348.6 456.5,348.3 456.5,347.9 456.4,347.6 456.2,347.4 455.8,346.7
			455.6,346.4 455.2,346 454.9,345.8 454.5,345.6 453.5,345.6 453.1,345.5 452.9,345.2 452.6,344.8 452.7,344.7 452.8,344.5
			452.7,344.3 452.2,344.3 452.2,344.2 452.3,343.9 452.4,343.7 452,343.4 451.3,342.4 450.9,342.1 450.6,341.9 448.8,340.2
			448.7,340 448.6,339.8 448.7,339.3 448.7,339.1 448.6,338.8 448.3,338.6 448.1,338.5 447.8,338.4 447.5,338.1 447.4,337.8
			447.2,337.2 446.7,336.5 446.6,336.2 446.4,336 446.2,335.8 445.8,335.6 445.5,335.4 442.1,332.3 441.9,332 441.8,331.8
			441.8,331.5 441.8,331.2 441.7,331 441.6,330.8 441.1,330.4 441,330.1 440.9,329.9 440.7,329.6 440.4,329.4 440.2,329.1
			440.7,329.1 440.4,328.1 440.6,327.7 441.1,326.7 441.7,326.4 441.8,326.3 441.8,326.2 441.8,325.9 441.7,325.7 441.6,325.6
			441.5,325.5 441.2,324.8 441.2,324.5 441.1,324.4 440.9,324.3 440.8,324.2 440.7,324.2 440.6,324.2 440.6,324.1 440.6,323.9
			440.7,323.7 440.7,323.6 440.7,323.4 440.5,323 440.4,322.8 440.4,322.6 440.4,322.4 440.3,322.3 439.3,320.9 439.1,320.4
			439.1,320.2 439.4,320.1 439.6,319.8 439.6,319.4 439.5,319.1 439.2,318.9 438.2,318.5 438,318.5 437.9,318.6 437.5,319.6
			437.4,319.8 437.3,319.9 436.9,319.7 436.4,319.4 436,318.9 435.7,318.5 435.6,318 435.6,317.5 435.5,317 435,316.2 434.6,315.2
			434.5,314.9 434.2,314.5 433.8,314.1 433.7,313.9 434.3,313.9 434.4,314.1 434.9,314.7 434.9,314.9 435,315 435.2,315.2
			435.4,315.2 435.9,315.1 436.9,315.1 437.7,314.8 439.1,313.8 439.5,313.7 440.5,313.7 441.5,313.5 441.6,313.5 441.7,313.4
			441.8,313.2 441.9,312.4 441.8,311.5 441.6,310.6 441.5,309.9 441.5,309.4 441.4,309 441.1,308.2 441.1,308 441.2,307.5
			441.1,307.2 440.9,307 440.4,306.6 440,306.2 439.9,305.9 440.1,305.7 440.5,305.4 440.8,305.1 440.9,304.8 441.1,304
			441.3,303.6 442.5,302.6 442.8,302.3 443,302 443.1,300.3 443,299.9 442.9,299.5 442.7,299.3 442.1,298.9 442,298.7 442.1,298.5
			442.3,298.4 442.5,298.4 442.7,298.4 442.9,297.9 442.7,297.6 442.4,297.2 442.3,296.7 442.2,296.5 442.1,296 442.1,295.9
			442.8,295 443.4,294.4 443.6,294.1 443.7,293.8 443.7,293.7 443.6,293.6 443.6,293.3 443.5,292.9 443.6,292.5 443.7,292.3
			444.5,292.2 445.7,291.5 445.9,291.4 446.2,291 446.4,290.9 446.6,290.8 446.8,290.8 447,290.7 447.1,290.5 447.1,290.1
			446.9,289.3 446.9,288.9 447.2,287.5 447.3,287.2 447.7,287.1 448,287.4 448.3,287.8 448.5,287.9 449,287.8 449.5,288
			450.3,288.8 451,289 451.1,289.1 451.2,289.3 451.2,289.7 451.2,289.9 451.6,290.2 452.1,290.1 453,289.7 453.8,289.6
			454.8,289.7 455.7,289.7 456.4,289.3 456.7,289.3 456.9,289.4 457,289.6 457.2,289.8 457.6,290 457.6,289.9 457.7,289.8
			457.9,289.6 458.3,289.4 458.7,289.3 458.9,289.2 459.2,288.8 459.4,288.6 459.8,288.5 461.6,288.2 461.9,288.1 463.1,287.2
			463.7,287.4 464,287.6 464.3,287.9 464.7,288.5 465,288.4 465.7,287.9 466.5,287.6 466.8,287.3 467,286.9 467.2,286.3
			467.2,285.9 467.1,285.5 467,285 467,284.8 467.1,284.6 467.2,284.5 467.3,284.4 467.3,284.2 467.2,283.8 467.1,283.6
			467.3,282.2 467.7,281.4 468.5,280.9 469.4,280.5 470.2,280.4 470.6,280.4 471.4,280.7 471.8,280.8 472.6,281.5 473,281.7
			473.5,281.6 475.9,280.9 476.6,280.3 476.9,280 477.1,279.9 477.3,279.7 477.5,279.4 477.6,278.8 477.5,278.5 476.8,277.8
			476.6,276.5 476.4,276.1 475.7,275.4 475.5,275 475.9,274.8 476.2,275 477.2,275.6 478.7,276.2 478.9,276.2 479.3,276.1
			479.5,276.1 479.7,276.2 480,276.4 480.2,276.5 480.6,276.4 481.3,276.1 481.7,276 482.6,276 482.9,275.9 483.3,275.6
			483.4,275.2 483.7,274.4 483.9,274.1 484.3,273.9 484.8,273.7 485.9,273.5 486,273.5 486.1,273.5 486.3,273.7 486.4,273.9
			486.4,274.1 486.5,274.3 486.7,274.4 486.9,274.7 487.2,274.8 487.4,274.8 487.7,274.9 488,275 488.1,275.2 488.2,275.4
			488.3,275.7 489.2,276.2 489.2,275.9 489.2,275.6 489.2,275.3 489.5,275 489.7,274.7 489.8,274.3 489.8,273.9 490,273.2
			490.2,271.3 490.5,270.5 490.7,270 490.7,269.7 490.9,269.4 491.3,268.7 491.4,268.4 491.5,268.1 491.7,267.8 492.2,267.3
			492.8,266.7 493.1,266.4 493.9,266.2 494.1,265.9 494.3,265.5 494.6,265.3 495,265.2 496.7,265.5 497.6,265.7 498.1,265.7
			498.7,265.5 499.3,265.2 499.7,264.9 453.8,264.9 		"/>
		<polygon fill="#FFFFFF" points="355.8,285.4 355.5,285.2 355.2,285.1 355.1,284.9 355.1,284.8 354.9,284.6 354.7,284.4
			354.3,284.1 353.9,284 354,284.7 354.6,287.1 355,287.5 356.1,288.5 356.2,288.1 356.2,287.8 355.9,287.2 355.9,286.8
			355.9,285.8 		"/>
		<polygon fill="#FFFFFF" points="344.1,281.8 344.2,282 344.2,282.3 345.5,284.6 345.8,285 345.9,285.4 346,286.3 346.1,286.7
			346.2,286.7 346.2,285.8 346,285.1 345.1,282.6 345,282.2 345,282 344.9,281.9 344.8,281.7 344.6,281.5 344.3,281.3 344.2,281.2
			344.1,281.1 344,281.2 343.9,281.4 343.9,281.6 344,281.8 		"/>
		<polygon fill="#FFFFFF" points="360.9,297.3 361.4,298 361.6,298.3 361.8,298.4 362,298.5 362.4,298.4 362.8,298.4 363.1,298.4
			363.2,298.3 363.2,298.2 363.2,298 363.2,297.8 363.4,297.7 363.5,297.7 363.5,297.8 363.6,297.9 363.7,298 363.8,297.9
			363.9,297.9 363.9,297.9 364.3,297.6 364.7,296.9 365,296.8 365.3,296.6 365.4,296.2 365.4,295.8 365.4,295.5 365.1,295.1
			364.3,294.7 363.9,294.4 363.5,294.2 363.1,294.1 362.6,294.1 362.3,294.3 362,294 361,293.2 360.9,293 360.8,292.9 360.7,292.7
			360.5,292.6 360.4,292.5 360,292.5 359.8,292.4 359.6,292.4 358.9,293.4 359,293.6 359,293.8 358.9,293.9 358.7,293.9
			359.1,294.6 359.3,294.8 359.5,295 360.2,295.3 360.5,295.4 360.7,295.8 360.6,295.9 360.5,295.9 360.4,295.9 360.4,296
			360.4,296.1 360.4,296.2 360.5,296.2 360.5,296.3 360.6,296.5 360.8,296.8 360.8,297 		"/>
		<polygon fill="#FFFFFF" points="360.9,307.7 360.9,307.2 360.7,307.1 360,307.1 359.6,307.1 359.3,307.1 359.1,307 358.7,306.7
			358.3,306.3 358.1,306.4 357.9,306.7 357.4,306.9 355.5,307 355.7,307.5 355.8,307.7 357.7,310.1 358.2,310.5 358.5,310.7
			358.6,311 358.8,311.2 359.2,311.3 359.7,311.3 360.1,311.2 360.5,310.9 360.8,310.5 361,310.1 361.1,309.5 361,309.3
			360.9,308.9 360.8,308.6 360.8,308.4 		"/>
		<polygon fill="#FFFFFF" points="435.8,358 435.7,358.2 435.8,358.4 435.9,358.6 436.1,359 436.3,359.4 436.4,359.9 436.3,360.4
			436.1,360.6 436.1,360.8 436.7,361.9 436.9,362.2 437.3,362.5 437.8,362.6 438.1,362.5 438.4,362.2 438.1,361.5 438.1,361.3
			438.1,361 438.3,360.8 438.4,360.7 438.5,360.4 438.5,360 438.5,359.2 438.5,358.9 438.9,358.2 439.1,357.7 438.8,357.4
			438.4,357.4 437.9,357.3 437.1,356.9 436.8,356.9 436.4,357.1 436.1,357.3 435.9,357.6 436,357.8 435.9,357.9 		"/>
	</g>
	<path fill="none" stroke="#CCCCCC" stroke-width="0.25" stroke-linecap="round" stroke-linejoin="round" d="M387,372.9L387,372.9
		l-0.3,0.2l-0.1,0.1l-0.1,0l0.1,0.3l0.3,0l0.3-0.1l0.1-0.4l-0.3-0.3L387,372.9z M442.4,400.7l0.1-0.2l0,0l-0.2,0l-0.1,0.1l0,0.2
		l0.1,0.2l0.1,0.1l0-0.2L442.4,400.7z M442.9,405.3L442.9,405.3l-0.2,0l-0.1,0.1l-0.1,0l-0.1,0.4l0,0.1l-0.1,0.1l0,0.2l0.1,0.2
		l0.1,0.1l0.1-0.2l0.2-0.1l0.1-0.1l0-0.1l0.1-0.4l0-0.2l-0.1,0L442.9,405.3z M453.6,434.8l0,0.2l0.1,0.4l0.1,0.2l0.1,0.1l0.2,0.1
		l-0.2-0.8l-0.2-0.3l-0.1-0.2l-0.1,0L453.6,434.8z M454.8,446.7l-0.1,0.1l-0.1,0.1l-0.1,0.2v0.3l0.2,0.1l0.2,0l0.1-0.4V447l0-0.2
		l-0.1-0.1L454.8,446.7z M441.6,447.4L441.6,447.4L441.6,447.4l-0.3-0.1l-0.3,0.2l0,0.1l0.1,0.2l0.1,0.1l-0.1,0.2l0.1,0.1l0,0l0-0.2
		l0.1-0.1l0.2-0.2l0-0.1L441.6,447.4L441.6,447.4z M449.8,462.2L449.8,462.2l-0.2,0l-0.1,0l0,0.1l0,0.1l-0.1,0l-0.1,0l-0.1-0.1
		l-0.2,0l-0.1,0.1l0,0.1l-0.1,0l0.1,0.1l0.2,0.1l0.1,0.1l0.1-0.1l0.2,0.5l0.1-0.1l0.1,0l0.1,0l0.1,0.1l0-0.2l0-0.4l0-0.2
		L449.8,462.2z M458,465.1L458,465.1l-0.1-0.2l0-0.2l-0.1-0.2l-0.2-0.1l-0.1-0.2l0,0.2l0.2,0.4l0.2,0.6l0.1-0.1l0-0.1L458,465.1z
		 M453.2,470.3l0-0.2H453l-0.2,0.3l-0.1,0.1l0.1,0.1l0.2,0.2l0.2,0l0.1-0.2L453.2,470.3L453.2,470.3z M447.2,479.8l0.1,0l0.1-0.1
		l0-0.1l-0.1-0.1l0-0.2l0-0.2l-0.2,0l-0.2,0.2l0.1,0.2l-0.2,0.1l-0.2-0.1l-0.2-0.1l-0.1,0l-0.2,0.1l0,0.1l-0.1,0.1l-0.1-0.1l-0.1,0
		l-0.1,0.1l0,0.1l0.3,0.1l0.1,0l0.1,0.1l0.4,0.2l0.1,0l0.2,0l0.1-0.3L447.2,479.8L447.2,479.8z M446.5,487.8l-0.2-0.1l-0.1,0.3
		l-0.1,0.2l-0.1,0.1l-0.1,0.3l0,0.2l0.1-0.2l0-0.1l0.1-0.1l0.1,0.1l0.1,0.1l0.1-0.2l0-0.4L446.5,487.8z M446.3,498.8l-0.3-0.1
		l-0.1,0.2l0.1,0.1l0.1,0l0.1,0.5l0.2-0.3l0-0.2L446.3,498.8z M350.6,409.1l-0.1-0.2l-0.1,0.2l0,0.2l0,0.2l0,0.1l0.1,0.2l0.1,0
		l0.2-0.1l0-0.2L350.6,409.1z M457.2,425L457,425l-0.3,0.2l-0.1,0.2l0.1,0.4l0,0.3l0.1,0.2h0.2l0.2-0.1l0.2-0.4l0-0.3l-0.1-0.3
		L457.2,425z M455.6,443.2l0,0.2l0.1,0.1l0.2,0.1l0.3-0.1l0.3-0.2l0.2-0.2l0-0.4l-0.3-0.4l-0.3,0L455.6,443.2z M437,454.3L437,454.3
		l-0.4,0l0-0.1l-0.2-0.1l-0.2,0.1l0,0.1l0,0.1l0.1,0l0.1,0l0.2,0.4l0.3,0.1l0.3,0l0.1-0.1v-0.1l0-0.2l-0.1-0.1L437,454.3z
		 M348.9,286.8L348.9,286.8l-0.2-0.1l0,0l0.4,0.5L348.9,286.8z M346,285.1l-1-2.5l-0.1-0.3l0-0.2l-0.1-0.2l-0.1-0.2l-0.1-0.2
		l-0.3-0.2l-0.1-0.1l-0.1,0l-0.1,0.1l-0.1,0.2l0,0.2l0.1,0.1l0.1,0.1l0.1,0.1l0.1,0.4l1.2,2.3l0.3,0.4l0.1,0.4l0.1,0.9l0.1,0.4h0.1
		l-0.1-0.9L346,285.1z M359.8,390.7l-0.1,0.3l-0.2,0.3l0.3,0l0.3-0.3l0.2-0.4l0.2-0.4v-0.1l-0.4,0.2L359.8,390.7z M382.7,369.3
		l0-0.3l0-0.1v0.1l-0.1-0.3l-0.3,0.3l-0.5,0.8l-0.4,0.9L381,371l-0.4,0.3v0.1l0.5,0.3l0.6,0.2l0.5-0.1l0.3-0.8l0.4-0.6l0.1-0.3
		l0-0.3L382.7,369.3z M440.1,377.6l0.1-0.3l0-0.3l-0.1-0.3l0-0.2l-0.1-0.1l-0.1-0.1l-0.1-0.1l0.1,1.4l0.1,0.4L440.1,377.6z
		 M445.2,412.2l-0.1,0.5l0,0.6l0.1,0.3h0.2l0.1-0.8l0.1-0.4l0.1-0.2l-0.1-0.2L445.2,412.2z M451.5,439l-0.1,0.5l0,0.2l0.1,0.2
		l0.5,0.2l0.5-0.2l0.1-0.5l-0.5-0.6l0-0.1l-0.1-0.2l-0.1-0.1l-0.1,0.1l-0.1,0.2l-0.1,0L451.5,439L451.5,439z M453.2,427.9l-0.2,0.1
		l-0.1,0.1l-0.2,0l-0.1-0.3l-0.4-2.1l-0.2-0.3l-0.3,0l-0.1,0.2l-0.1,0.9l0,0.4l0.1,0.4l0.5,1.3l0.3,1.3l0.1,0.4l0,0.4l0.3,0.5l0,0.4
		l0.3-0.3l0-0.4l-0.2-0.9l0-0.7l0-0.2l0.1-0.2l0.1-0.1l0.1-0.1l0.1-0.2l0.2-0.2l0-0.1l-0.1-0.2L453.2,427.9z M456.5,441.9l0.3,0.1
		l0.3-0.1l0.1-0.3l0.1-1.1l-0.1-0.3l-0.3-0.4l-0.2,0.4l-0.3,1.4L456.5,441.9z M447.2,442.4l0.1-0.2l-0.1-0.1l-0.2,0l-0.6,0.4
		l-0.4,0.1l-0.3,0.2l0,0.6h0.1l0.1-0.1l0.1-0.1l0.3-0.2l0.1,0.3l-0.2,0.2l-0.3,0.2l-0.1,0.3l0.2,0.1l0.3-0.1l0.3,0l0.1,0.3l0.1,0.1
		l0.2,0.4l0.2-0.7l0-0.1l0.2,0l0.2-0.1l0.2-0.1l0.2-0.2l0.3-0.6l0-0.1l0.2,0l0.1,0.1l0.1,0l0.2-0.1l0.2-0.4l-0.1-0.4l-0.2-0.4
		l-0.3-0.1l-0.1,0.1l-0.1,0.2l-0.1,0.2l-0.4,0.2l-0.1,0.2l0,0.2l0,0.2l-0.2,0l-0.1,0l-0.3,0.1l-0.2-0.2l0-0.1l0.1-0.1L447.2,442.4z
		 M443.8,438.5l-0.1-0.3l-0.1-0.1l-0.2,0.1l-0.2,0.1l-0.1,0.1l0.1,0.2l0.1,0.1l0.1,0.1l-0.1,0.1v0.2l0.1,0l0.1,0l0,0l0,0.1l0.1,0.1
		l0.1,0l0,0.1l0,0.1l0.2-0.5l0-0.2L443.8,438.5z M452.5,466.3l0.3-0.2l0.1-0.2l-0.1-0.2l-0.2,0l-0.2,0l-0.1,0l0-0.2l0.1-0.4l-0.6,0
		l-0.4,0l-0.2,0.1l0,0.1l0.2,0.2l0.2,0.2l0.1,0.3v0.3L452.5,466.3z M451.8,451.9l0.2,0l0.2-0.1l0.1-0.2l0-0.2l-0.1-0.4l0-0.2
		l-0.2-0.1l-0.3,0.1l-0.2,0.3L451.8,451.9z M440,452.3l-0.4,0.5l0,0.3l0.2,0.5l0.3,0.1l0.1,0l-0.1-0.5l0-0.1l0.2-0.2l0-0.2l-0.1-0.2
		L440,452.3z M448.5,457.7l-0.1-0.2l-0.3-0.4l0.1-0.2l0-0.2l-0.1-0.1l-0.2-0.1l0.2-0.1l0.2-0.1l0.1-0.2l0-0.2l-0.5,0.1l-0.1-0.4V455
		l-0.1-0.3l-0.5-0.4l-0.1-0.1l0-0.2l0-0.8l-0.3,0.5l0.2,1.1l-0.1,0.5l0.3,0.1l0.1,0.4l0,0.4l-0.1,0.2l-0.3,0.1l0.1,0.1l0.4,0.2
		l0.3,0.5l0.1,0.1l0,0.1l0.2,0.1l0.5,0.3L448.5,457.7z M452,452.4l-0.1,0.4l0,0.5l0.1,0.1l0.2,0l0.2-0.3l0.1-0.3l-0.1-0.3l-0.4-0.3
		L452,452.4z M445.4,481.7l-0.1-0.1l-0.1,0l-0.2,0l-0.1-0.1l0.2-0.3l-0.3,0.1l-0.1,0.3l0.1,0.4l0.1,0.3l-0.3,0.4l0.1,0.3l0.3,0.1
		l0.4-0.2l-0.1-0.1l-0.2-0.3l0.2,0l0.1,0l0.1-0.1l0.1-0.1l-0.2-0.4L445.4,481.7z M450.3,488l-0.1,0.2l0,0.2l0.2,0.3l0,0.1v1.6
		l0.2-0.6l0.1-1l0.1-0.2l0.2-0.2l0.3-0.2l-0.1-0.1l0-0.1l0.1-0.1l0.1-0.1l0.1,0l0.1,0l0,0l0-0.1l-0.4-0.1l-0.5-0.3l-0.3,0v0.2
		l0.1,0.2l-0.1,0.2L450.3,488z M444.6,473.8l-0.1,0.2l0.5-0.3l0.4-0.3l0.3-0.4l0.2-0.6l-0.4-0.1l-0.4,0l-0.3,0.2l-0.1,0.6l0.1,0.2
		v0.2L444.6,473.8z M457.1,470.3l-0.1,0.1l-0.3,0.3l-0.2,0.3l0,0.4l0.2,0.4l0.4,0.2l0-0.2l0.1-0.2l0.1-0.1l0.2-0.1v0.2l0,0.2
		l0.1,0.1l0.2-0.1l0-0.1l0-0.6l0.1-0.6l0-0.3l-0.2-0.8l-0.1-0.3l-0.1-0.1l-0.2,0.3l0,0.1l0,0.4l0,0.2L457.1,470.3z M457.3,474.8
		l-0.2,0l-0.2,0.1l-0.1,0.3l0.2,0.1l0.4,0l0.3-0.2l0.2-0.8l-0.2-0.6l-0.5-0.4l-0.5-0.2l-0.1,0.2l0,0.3l0.1,0.3l0.1,0.3v0.3l0.2-0.1
		l0.2,0l0.1,0.1l0.1,0.1l0,0.2L457.3,474.8z M447.7,494.8l-0.3-0.1l-0.3,0.1l-0.1,0.4l0.2,0.3l0.4,0.1l0.4-0.1l0-0.4L447.7,494.8z
		 M435.9,454.5l-0.4,0l0.3,0.3l0.1,0.1l0.3,0.1l-0.1-0.2L435.9,454.5z M451.3,481.1l0.1-0.4l0-0.1l0.1-0.1l0,0l-0.3,0l-0.3,0.1
		l-0.2,0.2l-0.1,0.3l0.1,0.4l0.3,0L451.3,481.1z M455.7,470.8l-0.2,0.2l-0.1,0.3l0.1,0.3l0.1,0l0.2-0.2l0.1-0.2l0-0.3L455.7,470.8z
		 M443.8,433.8l-0.2,0l-0.1,0.3l0,0.4l0.3,0.1l0.2,0l0.1-0.2l-0.1-0.3L443.8,433.8z M358.7,293.9l0.3,0.7l0.2,0.2l0.3,0.2l0.7,0.2
		l0.3,0.2l0.2,0.3l0,0.1l-0.1,0l-0.1,0l0,0.1l0,0.1l0,0.1l0,0l0,0.1l0,0.2l0.2,0.3l0,0.2l0.1,0.2l0.5,0.7l0.2,0.3l0.2,0.2l0.1,0
		l0.4-0.1l0.4,0l0.2,0l0.2-0.1l0-0.2l-0.1-0.2v-0.2l0.2-0.1l0.1,0l0,0.1l0.1,0.1l0.1,0l0.1,0l0.1,0l0,0l0.3-0.3l0.5-0.6l0.3-0.1
		l0.2-0.2l0.1-0.4l0-0.4l-0.1-0.3l-0.3-0.3l-0.8-0.5l-0.4-0.3l-0.4-0.2l-0.4-0.1l-0.4,0.1l-0.3,0.2L362,294l-1-0.8l-0.1-0.2
		l-0.1-0.2l-0.1-0.2l-0.2-0.2l-0.1,0l-0.4,0l-0.2,0l-0.2,0l-0.8,1l0.1,0.2l0,0.1l-0.1,0.1L358.7,293.9z M356.2,288.1l0-0.3l-0.2-0.6
		l-0.1-0.4l0.1-1l-0.1-0.3l-0.3-0.2l-0.3-0.2l-0.1-0.2l-0.1-0.1l-0.2-0.2l-0.2-0.2l-0.4-0.3l-0.4,0l0.1,0.7l0.7,2.3l0.3,0.5l1.1,0.9
		L356.2,288.1z M360.9,308.9l-0.1-0.3l0-0.2l0.1-0.6l0-0.5l-0.1-0.2l-0.7,0.1l-0.5,0l-0.2,0l-0.2-0.1l-0.4-0.3l-0.4-0.4l-0.2,0.1
		l-0.2,0.3l-0.5,0.2l-1.9,0.1l0.2,0.5l0.1,0.2l1.9,2.3l0.5,0.4l0.2,0.3l0.1,0.3l0.2,0.2l0.5,0.1l0.5,0l0.4-0.1l0.4-0.3l0.3-0.4
		l0.2-0.5l0.1-0.5l0-0.2L360.9,308.9z M353.6,406L353.6,406l-0.1,0.3l-0.2,1.5l0.4-0.2l0.1-0.4l-0.1-0.9L353.6,406z M377.7,367.3
		l1-1.3l0.5-1l0.3-1l-0.1-1l-0.4-0.5l-0.6,0.5l-1.3,1.5l-0.6,0.6l-0.2,0.3L376,366l-0.2,0.3l-0.7,0.5l-0.7,0.3l-0.6,0.4l-0.1,0.7
		l0.5,1.3l0.2,0.7l-0.3,0.5v0.2h0.1l0.5-0.6l0.2-0.3l-0.1-0.3l0.2-0.3l0.4-0.4l0.2-0.3l0-0.1l0-0.2v-0.2l0.1-0.1l0.3-0.2l1.1-0.4
		l0.3-0.2L377.7,367.3z M438.4,362.2l-0.2-0.7l0-0.2l0.1-0.3l0.1-0.2l0.1-0.2l0.1-0.2l0-0.4l-0.1-0.8l0-0.3l0.4-0.6l0.2-0.5
		l-0.3-0.2l-0.4-0.1l-0.5-0.1l-0.8-0.4l-0.3,0.1l-0.4,0.1l-0.3,0.2l-0.2,0.3l0.1,0.2l-0.1,0.1l-0.1,0.1l-0.1,0.1l0,0.3l0.1,0.2
		l0.2,0.4l0.2,0.4l0.1,0.5l0,0.5l-0.3,0.2l0,0.2l0.6,1.1l0.2,0.3l0.4,0.3l0.4,0.1l0.4-0.1L438.4,362.2z M456,441l0.2-0.5l0.1-0.8
		l0-0.8l-0.1-0.6l-0.3-0.4l-0.3,0.3l-0.2,0.7l-0.1,0.5l-0.5-0.9l-0.1-0.3l0.2-0.9v-0.2l-0.4-0.4l-1.1-0.3l-0.4-0.3l-0.3,0.8l0,1
		l0.2,0.9l0.4,0.7l0,0.1l-0.1,0.1l-0.2,0.1l-0.1,0.1l0,0.1l0.1,0.1l0.1,0.3l0.2,0.3l0,0.2l-0.1,0.5l-0.3,0.8l-0.1,0.4l-0.1,0.1
		l-0.2,0.5l1,0.2l0.8-0.7L456,441z M448.9,446.1l0.1-0.1l0.1-0.2l0.1-0.2l0.1-0.4l0-0.2l-0.1-0.3l-0.2-0.2l-0.3-0.1l-0.4,0l-0.3,0.2
		l-0.3,0.4l-0.2,0.5l-0.1,0.4l0.1,0.3l0.4,0.4l0.3,0.5l0,0l0,0l0.1,0.1l0.4-0.2l0.3,0.1l0.3,0.2l0.2,0.3l0-0.2l0-0.9l-0.1-0.2
		l-0.3,0l-0.3,0.1l-0.2,0.1l0-0.2L448.9,446.1z M455.5,459.3l0.2,0.1l0.3-0.4l0.1,0.2l0.2,0.1l0.3,0.1l0.2,0.1l0.2,0.2l0.3,0.4
		l0.2,0.2l0-0.3l-0.1-0.5l0-0.3l0.1-0.3l0.3-0.3l0.1-0.3l-0.1-1.6l0.2-0.6l0-0.6l0-0.2l-0.1-0.2l-0.1-0.2l-0.1-0.2l-0.2-0.1l-0.3,0
		l-0.5,0.1l-0.2,0l-0.6-0.1l-0.3,0l0,0.2l0,0.1l0.1,0.1l-0.3,0l-0.9-0.1l-0.5,0.1l0.1,0.2l0.1,0.1l0.2,0l0.2,0l0.2,0l-0.1,0.1
		l-0.2,0.1l-0.1,0l-0.1,0.1l-0.1,0l-0.1,0.1l0,0.3l0.1,0.1l0.4,0.3l0.1,0.2l-0.5,0.1l0,0.3l0.2,0.6l0.1,0.2l0.3,0.2l0.2,0.3
		l-0.1,0.4l0.1,0.1l0.1,0.1l0.1,0l0.2-0.1l0,0.4L455.5,459.3z M460.1,451.4l-0.3-0.2L459,451l-0.6-0.5l-0.3-0.2l-0.4,0.1l-0.4-0.2
		l-0.2-0.2l-0.3-0.7l-0.4-0.6l-0.6-0.5l-0.1-0.2l-0.2,0.2l0,0.3l0.2,0.6v0.6l0,0.2l0.1,0.1l0.1,0.1l0.2,0.2l0.1,0.1l0.1,0.1l0,0.2
		l0,0.2l-0.2,0.3l-0.1,0.2l0,0.3l0.1,0.3l0.3,0.6l0.4,0l0.4-0.2l0.4-0.3l0.3-0.3l0.4-0.2l1.2,0l0.5-0.2v0.1L460.1,451.4z
		 M450.5,461.2l-0.2,0l-0.2-0.1l0,0.3l0,0.1l0.2,0.1l0.2,0.1h0.2l0.2-0.1l0.2-0.1l-0.3-0.1l-0.1-0.2l0.2-0.1l0.3,0l-0.1-0.2l0-0.1
		l0.1-0.1l0.1-0.2l0.1,0.2l0.3,0.4l0.2,0.2l0-0.1l0-0.1l0-0.1l0-0.1l0.2,0.2l0.2-0.6l0-1.2l0.3-0.5l-0.2-0.4l0-0.4l0.2-0.9l0-0.6
		l0-0.2l0.1-0.1l0.1,0l0.1-0.1l0.1-0.2l-0.1-0.4l-0.2-0.6l-0.3-0.4l-0.3,0l-0.1,0.3l-0.1,0.9l-0.6,1.1l-0.1,0.4l0,0.2l0.1,0.4l0,0.2
		l-0.1,0.1l-0.1,0l-0.1,0.1l-0.1,0.4l-0.3,0.2l-0.1,0.2l0,0.2l0.1,0.1l0.1,0.1l0,0.2l-0.1,0.1l-0.2,0.1l-0.2,0.2l0,0.2l0.1,0.2
		l0.1,0.4l0.1,0.2l-0.1,0.2L450.5,461.2z M452.5,490.1L452.5,490.1l-0.5-0.1l-0.4,0.2l-0.6,0.5l-0.5,0.3l-0.1,0.1l-0.1,0.1l-0.1,0.2
		l-0.1,0.2l-0.1,0.1l-0.1,0.1l-0.1,0.1l-0.2,0.1l-0.3,0.1l-0.1,0.6l-0.1,0.2l0,0.3l0,0.5l0.1,0.4l0.2-0.1l0,0.4l0.3-0.2l0.5-0.8
		l-0.1-0.1l0-0.2l0.1-0.2l0.1-0.2l0.3,0l0.7-0.5l0.3-0.1l0.1-0.2l0.1-0.4l0.2-0.3l0.4-0.1l0.1-0.2l-0.1-0.1l-0.2-0.1l-0.1-0.2l0-0.1
		l0-0.1l0.1-0.1l0.3,0v-0.1L452.5,490.1L452.5,490.1z M452.8,475.3l-0.4-0.1l-0.1-0.3l0-0.4l-0.1-0.4l-0.2-0.3l-0.3-0.2l-0.2-0.2
		l-0.1-0.4l0-0.4l-0.1-0.4l-0.1-0.4l-0.2-0.3l-0.3-0.2l-0.4-0.2l-0.4,0l-0.3,0.1l-0.1,0.1l-0.1,0.4l0,0.1l-0.1,0.1l-0.3,0.2
		l-0.1,0.1l-0.5,0.5l-0.2,0.3l0.2,0.2l0.2-0.1l0.6-0.4l0.1-0.1l0-0.2l0.1-0.1l0.2,0l0.2,0.1l0.1,0.7l0-0.1l0.1-0.1l0-0.1l0.4,0.3
		l0.4,0.4l0,0.1l0,0.1l0,0.2l0.1,0.1l0.3,0.1l0.1,0.1l0,0.3l-0.2,0.6l0,0.3l0.4,0.3l0.1,0.2l-0.3,0.2l-0.1-0.1l-0.1-0.1l0,0.7
		l0.1,0.2l0.3,0.1l0.3-0.1l0.2-0.2l0.2-0.5l0-0.1l0-0.1l0,0l0.1,0l-0.2-0.2l-0.1-0.2l0.1-0.3L452.8,475.3z M510.8,248.6l0.1-0.3
		l-0.1-0.2l0-0.3l-0.2-0.4l-0.2-0.4l-0.3-0.2l-0.2-0.2l-0.1-1.1l-0.1-0.3l-0.7-0.1l-0.3,0.1l-0.3,0.2l-0.2,0.2l-1,0.7l-0.4,0.2
		l-2,0.6l-0.9,0.4l-0.8,0.7l-0.8,1.2l-1.1,1.2l-0.9,0.5l0,0v0l-0.3,0.3l-0.5,0.2l-1,0.3l-0.5,0l-1-0.2l-0.5,0.1l-0.4,0l-0.3-0.2
		l-0.2-0.3l-0.1-0.4l-0.6-0.5l-0.3-0.2l-0.4-0.1l-0.4,0l-0.3,0.1l-0.2,0.2l-0.2,0.4l0,0v0l-0.3,0.3l-0.3,0.2l-0.6,0.2l-0.3,0.2
		l-0.7,0.5l-0.2,0.1l-0.5-0.2l-0.7-1l-0.4-0.3l-0.2-0.3l-0.1-0.4l-0.1-0.5l0-0.4l0.1-0.3l0.1-0.4l0.2-0.4l0.2-0.3l0.2-0.1l0.2,0
		l0.2-0.1l0.1-0.2l-0.1-0.1l-0.2-0.2l-0.3-0.2l-0.8-0.2l-1.7,0l-0.7-0.4l-0.2-0.4l-0.2-1.2l-0.3-0.8l-0.1-0.4l0-0.5l0.7-1.6l0.2-0.8
		l-0.3-0.7l-0.2-0.2l-0.1-0.3l0-0.3l0.2-0.3l-1.5-0.3l-0.4,0.1L484,239l0,0.4l-0.2,0.2l-0.3,0l-0.2-0.1l-0.1-0.2l-0.2-0.1l-1.2-0.6
		l-0.3-0.1l-0.4,0.2L481,239l-0.2,0.2l-0.4-0.2l-0.1-0.1l-0.2-0.4l-0.2-0.2l-0.2-0.1l-1.9-0.5l-0.7,0.1l-0.3,0l-1-0.4l-0.3,0
		l-1.2,0.5l-0.7,0.1l-1.6-0.2l-0.8-0.2l-0.9-0.4l-0.4-0.5l0.6-0.3l-0.3-0.3l0.1-0.4l0.7-0.9l0.1-0.3l0.2-1.1l0.1-0.2l0.4-0.4
		l0.1-0.3l0-0.3l-0.1-0.2l-0.1-0.2l0.1-0.3l0.8-0.4l1.3-1.3l0.2-0.2l0.1-0.2l0-0.2l-0.2-0.4l-0.1-0.2l0.1-0.4l0.2-0.7l0-0.5l-1-2.4
		l0-0.6l0.2-0.2l0.2-0.1l0.2-0.1l0.2-0.1l0.2-0.1l0.4-0.8l0.5-0.6l0.2-0.3l0.1-0.4l-0.1-1l0-0.3l0.3-0.1l1.1,0.6l0.6,0l0.5-0.4
		l-0.1-0.5l-0.7-1l-0.2-0.4l0-0.4l0.1-0.3l0-0.3l-0.3-0.2l-1.5-0.1l-0.4-0.3l-0.6-0.8l-0.3-0.2l-0.4,0.1l-0.2,0.3l-0.2,0.3l-0.2,0.2
		l-0.4,0.1l-0.2,0.1l-0.4,0.4l-0.2,0.1l-0.2,0l-0.1-0.1l-0.2-0.1l-0.1-0.1l0-0.4l-0.1-0.1l-0.2,0l0,0l-0.1,0l-0.3,0l-0.5-0.2l-0.2,0
		l-0.8,0.1l-0.3,0l-0.4-0.2l-0.3-0.4l-0.1-0.4l-0.1-0.3l-0.3,0l-0.4,0l-0.4,0l-0.8-0.2l-1.5-0.2l0-0.7l1-1.9l-0.3-0.6l-0.7,0
		l-0.1-0.1l0-0.2l0.2-0.1l0.2-0.1l0.2-0.1l0.2-0.4l0-0.4l-0.1-0.4l-0.3-0.9l-0.2-0.4l-0.3-0.3l-0.4,0l-0.4,0.1l-0.2-0.1l-0.4-1.1
		l0.1-0.3l0.2-0.2l0.9-0.6l0.1-0.1l0.1-0.3l0-0.1l-0.1-0.1l-0.8-1.3l-0.2-0.4l0-1.1l-0.1-0.3l-0.3-0.2l-0.8-0.1l-0.6-0.2l-0.5,0
		l-0.2-0.1l-0.2-0.2l0-0.1l0.1-0.1l0.1-0.2l-0.1-1.6l0-0.3l0.2-0.5l0-0.2l-0.2-0.4l-0.1-0.2l0.1-0.2l0.3-0.1l0.4-0.1l0.4-0.2l1-0.9
		l1.8-1.3l0.3-0.7l-0.1-0.6l0-0.1l-0.2,0.1l-0.8,0.2l-2.1,0.2l-0.7,0.3l-0.8,0.1l-0.6,0.3l-0.3,0.1l-0.2,0.2l-0.3-0.1l-0.5-0.3
		l-0.8-0.6l-0.6-0.1l-0.8-0.1l-0.8,0l-0.3,0.1l-0.6,0.4l-0.3,0.1l-0.8,0l-1.5-0.4l-0.8,0l-1.5,0.4l-4.3,1.7l-0.3,0.2l-0.8,0.9
		l-0.4,0.3l-0.3,0.1l-0.3,0l-0.4,0.1l-0.4,0.3l-1,1l-0.4,0.2l-0.4,0.1l-0.4,0.2l-0.3,0.4l-0.1-0.4l-0.1-0.2l-0.1-0.2l-0.8-0.5
		l-0.8-0.4l-0.3-0.4l3.9-4l0.3-0.5l0.1-0.5l-0.1-0.2l-0.3-0.4l-0.1-0.3l0.1-0.2l0.1-0.1l0.1-0.1l0.1-0.2l-0.1-0.8l-1.5-0.5l-0.1-0.6
		l0.3-0.2l0.4,0l0.3-0.1l0-0.5l-0.1-0.2l-0.4-0.3l-0.1-0.3l0-0.2l-0.1-0.2l-0.1-0.2l-0.1-0.2l-0.3-0.1l-0.5,0l-1.6,0.2l-0.1-0.2
		l0-0.5l0.5-3l-0.1-2.8l0.1-0.5l0,0l1.4-0.9l0.8-0.7l0.4-0.3l0.4-0.1l0.8,0.2l0.4,0l0.3-0.2l0.2-0.4l-0.2-0.3l-0.7-0.6l-0.3-0.7
		l-0.1-0.7l0-1.5l-0.1-0.8l0.1-0.2l0.4-0.1l0.3-0.3l0.3-0.5l0.5-1l0.5-1.8l0.5-0.5l0.7,0.4l0.2,0.4l0.1,0.3l0.2,0.2l0.4,0l0.4-0.2
		l0.9-1.2l0.3-0.2l0.8-0.4l0.2-0.2l0.4-0.9l0.3-0.5l0.3-0.2l0.4-0.1l0.1-0.2l0-0.3l0-0.8L449,164l-0.1-0.2l-0.1-0.6l0-0.1l0.1-0.2
		l0.4-0.3l0.2-0.3l0.1-0.3l0-1.1l0-0.3l0.2,0l1.7,0.6l0.3,0.2l0.6,0.6l0.3,0l0.5-0.2l0.4-0.2l0.3-0.2l0.2-0.3l0.3-1l0.1-0.3l0.8-1
		l0.1-0.2l0-0.3l0-0.3l0.1-0.1l0.2-0.1l0.1-0.2l0.3-0.8l0.2-0.4l0.3-0.2l0.5-0.6l0.2-0.2l0.4,0l0.3,0.1l0.5,0.4l0.6,0.2l0.2,0.1
		l0.2,0l0.3-0.1l1-0.8l0.1-0.2l0.1-0.3l0-0.3l-0.1-0.3l-0.1-0.1l-0.2-0.1l-0.1-0.1l-0.2-0.4l-0.7-1l-0.2-0.2l-0.2-0.1l-0.2,0l-0.2,0
		l-0.1-0.3l0-0.5l-0.1-0.4l-0.4-0.8l-0.1-0.4l0-0.4l0.1-0.3l0.3-0.2l0.8-0.2l0.3-0.1l0.1,0l0,0.8l0.1,0.3l0.3,0l0.7-0.6l0.1-0.2
		l0-0.5l0.1-0.1l0.2-0.1l0.1-0.2l-0.1-0.4l-0.5-1.1l-0.2-0.2l-0.4,0.1l-0.1-0.2l0-0.4l0.1-0.4l0.2-0.5l0.8-1l0.2-0.4l0.1-0.4
		l0.1-0.4l0.1-2.9l0.1-0.8l0.4-0.8l0.1-0.4l-0.1-0.5l-0.1-0.2l0-0.2l0-0.2l0-0.2l-0.3-0.7l0-0.5l0.3-0.8l0-0.5l-0.2-0.4l-0.5-0.7
		l-0.1-0.4l0.1-0.2l0.3-0.3l0.1-0.2l0-0.2l-0.5-2l0.2-0.4l0.2-0.4l0.1-0.4l-0.1-0.5l-0.3-0.3l-0.3-0.1l-0.2-0.1l-0.2-0.4l-0.2-1.5
		l0-0.7l0.1-0.7l0.5-1.5l0.1-0.7l-0.2-0.7l-0.1-0.1l-0.2,0l-0.1-0.1l-0.1-0.2l-0.1-2l0.1-0.9l0.2-0.9l-0.1-0.5l-0.1-0.2l-0.2-0.2
		l-0.2-0.2l-0.2-0.1l-0.2,0l-0.2,0.1l-0.2,0.2l-0.2,0.1l-0.5,0l-0.3-0.3l-0.4-0.9l-0.4-0.3l-0.6,0.3l-0.4-0.3l-1.1-0.5l-0.2-0.1
		l-0.2,0.2l-0.1,0.4l0,0.8l-0.1,0.7l-0.2,0.7l-0.4,0.5l-0.7,0.2l-0.7-0.3l-0.4-0.8l-0.4-1.8l-0.3-0.7l-0.7-1.1l-0.1-0.2l0.2-0.5
		l-0.1-0.1l-0.1-0.1l-0.1-0.2l0-0.5l0-0.3l-0.1-0.2l-0.7-0.4l-0.3-0.4l-0.1-0.4l0.3-0.2l0.4-0.2l0-0.3l-0.2-0.4l-0.3-0.3l-0.7-0.4
		l-0.1-0.3l0.2-0.5l0.1-0.5l0.1-2.1l0-0.4l-0.2-0.4l-1.4-1.3l-0.3-0.2l-0.8-0.1l-0.1-0.2l0.2-0.6l0-0.4l-0.3-0.3l-0.7-0.4l-1-1.3
		l-0.8-0.3l-1.3,0.6l-0.6-0.2l-0.5-0.7l-0.8-2.4l-0.6-0.5l-0.6,0.3l-0.6,0.4l-0.5-0.3l-0.5-0.7l-0.4-0.3l-0.4,0.2l-0.3,0.8l-0.2,0.4
		l-0.3,0.8l-0.3,0.4l-0.1,0.3l-0.1,0.2l-0.3,0.3l-0.1,0.2l0,0.2l0.1,0.2l0,0.2v0.9l-0.1,0.5l-0.2,0.3l-0.4,0l-0.4-0.1l-0.3,0.1
		l-0.1,0.5l-0.2,0.2l-0.7,0.4l-0.2,0.4l0.1,0.6l-0.6,1.4l-0.1,0.8l0.3,0.6l1,1.1l0.1,0.6l-0.1,0.3l-0.3,0.7l-0.1,0.4l0,0.5l0,0.3
		l-0.1,0.2l-0.4,0.2l-0.4,0.2l-0.1-0.2l0-0.3l-0.2-0.3l-0.3,0l-0.4,0.1l-0.4,0.2l-0.2,0.2l-0.3,0.4l-0.3,0.4l-1,0.9l-0.2,0.1
		l-0.2,0.1l-0.1,0.1l-0.2,0.3l-0.1,0.1l-0.4,0.1l-0.1,0.1l-0.1,0.2l0,0.3l-0.1,0.1h-0.1l-0.9,0.3l-0.3,0.2l-0.7,0.9l-0.4,0.3
		l-0.8,0.6l-0.3,0.3l-0.3,0.4l-0.2,0.4l0,0.5l0.1,0.2l0.2,0.3l0.1,0.2l0,0.2l0.1,0.4l0.1,0.2l0,0.3l-0.3,0.7l0.1,0.4l0.5,0.8
		l3.3,4.3l0.6,0.6l0.1,0.2l0,0.4l0.1,0.2l0.1,0.2l0.2,0.1l0.2,0.1l0.1,0.2l0,0.2l-0.2,0.6l-0.1,0.1l-0.3,0.1l-0.2-0.1l-0.2-0.1
		l-0.3-0.1l-0.2,0l-0.4,0.2l-0.2,0l-0.2-0.1l-0.2-0.2l-0.1-0.2l-0.2-0.2l-2.8-1.3l-0.5-0.4l0-0.4l0.2-0.4l0.2-0.4l-0.1-0.2l-0.6-0.6
		l-0.2-0.3l-0.4-0.7l-0.3-0.3l-0.4-0.3l-0.7-0.3l-0.4-0.1l-0.4,0l-0.2,0.1l-0.3,0.4l-0.2,0.1l-0.3,0l-0.1-0.1l-0.1-0.1l-0.2-0.1
		l-0.6-0.1l-0.2,0.2l-0.2,0.4l-0.4,0.5l-0.3,0.2l-0.4,0.1l-0.4,0l-0.3-0.1l-1.4-0.1l-5.4,0.9l-1.4,0.6l-1.2,0.9l-0.8,1.1l-0.7,1.4
		l-0.4,0.6l-0.6,0.5l-0.6,0.3l-1.1,0.2l-0.5,0.2l-0.9,1.1l-0.5,0.9l-0.2,0.3l-0.3,0.1l-0.9,0.1l-0.3,0.1l-0.2,0.3l-0.2,0.5l-0.2,0.5
		l-0.3,0.2l-0.4,0l-0.5-0.1l-0.8,0.2l-0.5,0.8l-0.5,0.9l-0.6,0.8l-0.4,0.2l-1.5,0.5l-0.7,0.4l-0.4,0.1l-0.4,0l-0.3-0.5l-0.4,0.1
		l-0.2,0.2l-0.3,0.4l-0.2,0.2l-0.2,0.1l-0.4,0.1l-0.2,0.1l-0.2,0.2l-0.1,0.2l-0.1,0.6l0,0.1l0,0.2l-0.1,0.3l-0.2,0.3l-0.6,0.7
		l-0.3,0.3v0l-0.3,0.4l0,0.4l0.4,0.7l0.1,0.4l0,0.3l-0.3,0.8l-0.1,0.7l0,0.9l0.1,0.9l0.3,0.7l0.2,0.1l0.2,0.1l0.2,0l0.2,0.1l0.1,0.2
		l-0.1,0.2l-0.1,0.2l-0.1,0.2l0.2,1.5l0.3,0.2l0.7,0.2l0.3,0.3l0,0.5l-0.2,0.4l-0.6,0.8l-0.9,0.9l-0.3,0.2l-0.8,0.3l-0.2,0.2
		l-0.1,0.5l0,0.4l0.4,2.3l0,0.5l-0.1,0.4l-0.2,0.1l-0.4,0.1l-0.2,0.1l-0.2,0.2l-1.8,2.7l-0.1,0.1l-0.2,0.1l-0.1,0.1l0,0.1l0.2,0.2
		l0,0.1l-0.2,0.1l-0.4,0l-0.2,0.1l-0.3,0.4l-0.5,0.8l-0.4,0.3l-0.4,0.1l-0.7,0.1l-0.4,0.1l-0.7,0.5l-0.6,0.6l-0.5,0.7l-1.2,3.3
		l0.1,0.9l0.5,0.7l0.7,0.3l0.8,0.2l0.7,0.3l0.4,0.6l0.1,0.9l-0.1,0.9l-0.4,0.7l-0.3,0.4l-0.4,1.9l-0.3,0.6l-0.8,1.1l-0.1,0.7v0.4
		l-0.1,0.4l-0.2,0.4l-0.2,0.3l-0.3,0.2l-0.2,0l-0.3,0l-0.3,0.1l-0.2,0.4l-0.4,1.5l-0.2,0.5l-0.9,0.6l-0.2,0.2l-0.2,0.3l-0.3,1.1
		l-0.3,0.2l-0.2,0.2l-0.1,0.3l-0.1,0.9l-0.2,0.3l-0.2,0.2l-0.2,0.3l0,0.1l0.1,0.4l0,0.2l-0.1,0.2l-0.4,0.3l-0.1,0.2l-0.1,0.3
		l-0.1,0.7l-0.1,0.4l-1,2.3l-0.2,0.8l-0.1,0.8l-0.1,0.4l-0.2,0.3l-0.1,0.2l-0.1,0.8l-0.1,0.3l-0.9,1.2l-0.2,0.4l0,0.4l0,0.5
		l-0.1,0.4l-0.3,0.3l-0.3,0l-0.3-0.3l-0.3-0.4l-0.3-0.3l-1.2-0.6l-0.5-0.1l-0.7-0.2l-0.6-0.2l-0.6-0.1l-1.6,0.2l-0.4-0.2l-0.8-1.1
		l-0.6-0.2l-1-0.1l-1,0l-0.5,0.3l0,0.2l-0.1,0.2l-0.1,0.1l-0.1,0.1l-0.2,0.1l-0.1-0.1l-0.1-0.2l-0.1-0.1l-0.3,0.1l-0.6,0.4l-0.4,0
		l-0.4-0.1l-0.2-0.2l-0.1-0.3l-0.1-0.3l-0.7-0.7l-0.2-0.3l-0.6-0.9l-0.4-0.2l-0.5,0.2l-0.3,0.4l-0.1,0.5l0,0.5l0,0.5l0.1,0.4
		l0.2,0.4l0.4,0.7l0.2,0.2l0.1,0.1l0.1,0.2l0.1,0.4l0,0.8l0.3,2.6l0.6,0.4l0.1,0.2l0.3,0.4l0.1,0.2l0,0.7l-0.6,4.2l0,0.6l0.1,1.3
		l0,0.2l0,0.2l-0.1,0.2l-0.4,0.6l-0.1,0.4l0,0.4l0.1,0.9l-0.2,1.5l0,0.3l0,0.3l0,0.3l-0.8,1.7l-0.3,0.4l-0.4,0.3l-0.5,0.3l-0.5,0
		l-0.4-0.3l-0.3-0.4l-0.3-0.3l-0.4-0.1l-0.5,0.2l-0.2,0.4l0,0.6l0.1,0.6l0.2,0.5l0.4,0.8l0.1,0.4l0,0.4l-0.3,0.5l-0.7,0.9l-0.2,0.5
		l-0.1,0l-0.7,0.6l-0.2,1.7l0.1,0.5l0.2,0.4l0.5,0.8l0.1,0.4l0,0.5l-0.2,0.9l0,0.5l0.2,0.7l0.2,0.4l0.7,0.8l0.2,0.9l0.2,2.5l0,0.2
		l-0.1,0.3l-0.2,0.1l-0.2,0l-0.4,0.2l-0.1,0l0,0l0,0.3l0.4,0.7l-0.4,0.1l-0.3-0.1l-0.3-0.2l-0.4-0.1l-0.5-0.1l-0.2,0l-0.2,0.1l0,0.1
		l0,0.2l0,1.5l0.1,0.2l-0.4,0.2l-0.2,0.1l-0.2,0.2l-0.4,0.7l0,0.3l0.1,0.3l0.1,0.3l0.1,0.1l0,0.2l0,0.2l0,0.2l0,0l0,0l-0.1,0.1
		l-0.1,0l-0.1-0.1l-0.1-0.1l-0.3-0.4l-0.3-0.2l-0.3,0.1l-0.2,0.5l-0.2,0.6l-0.2,0.2l-0.2-0.2l-0.1-0.6l-0.2-0.6l-0.4-0.5l-1.3-1.3
		l-1.3-0.9l-0.5-0.1l-0.2,0.2l-0.1,0.3l0.1,0.6l0,0.2L339,238l-0.1,0l-0.1,0l-0.1,0.4l0,0.3l0,0.3v0.3l-0.2,0.3l-0.2,0.1l-0.2,0
		l-0.2,0.1l-0.2,0.3l-0.1,0.1l-0.1,0.1l-0.2,0.1l-0.2,0.1l0.3,1.3l0.1,0.7l-0.4,3.3l0.3,5.2l0.1,0.5l0.2,1.1l0.7,2.2l0.1,0.4
		l-0.2,0.4l-0.4,0.4l-0.5,0.3l-0.4,0l-0.2-0.3l-0.1-0.4l-0.2-0.9l-0.4-0.9l-0.5-0.1l-0.7,0.1l-0.9-0.1l-0.5-0.2l-0.2-0.1l-0.2-0.2
		l-0.1-0.4l0-0.4l-0.1-0.4l-0.3-0.4l-0.6-0.2l-0.8,0.9l-0.6,0l-0.3,0.1l-0.2,0.4l-0.3,0.9l-0.6,0.8l-0.1,0.4l0,0.4l0.1,0.9l0,0.4
		l-0.1,0.6l-0.1,0.3l0.1,0.4l0.2,0.3l0.5,0.4l0.1,0.3l0.1,0.3l0.8,0.7l0.1,0.3l0.2,1.9l0.1,0.3l0.4,0.6l1.1,3.2l0.2,1l0.2,0.5
		l0.4,0.2l0.2,0.1l0.4,0.3l0.2,0.1l0.3,0l0.1,0.1l0.1,0.2l0.1,0.2l0.7,0.7l0.3,0.4l0.2,1l0.2,0.3l1.9,1.7l0.4,0.6l0.9,2.4l0.2,0.3
		l0.4,0.5l0.1,0.3l0.2-0.4l-0.2-2.2l0.1-1l0-0.4l-0.4-1.2l-0.2-1.7l-0.1-0.2l-0.9-1.4l-0.5-1l0.6,0.4l0.7,1.3l0.4,0.6l0.3,0.6
		l0.1,0.7l0.2,0.7l0.6,0.4l-0.1,0l-0.3,0.1l0.2,0.4l0.3-0.2l0.2-0.4l-0.1-0.5l0.5,0l0.2,0.2l0.1,0.3l0.2,1.9l0.1,0.3l0.2,0.2
		l0.5,0.4l0.1,0.2l0,0.1l0.1,0.1l0.2,0l0.4,0l0.2,0l0.2,0.1l-0.8,0.3l-0.7,0.2l-1.3,0.9l-0.3,0.3l-0.2,0.3l-0.1,0.3l0,0.3l0.2,0.3
		l1.3,1l0.2,0.3l0.1,0.1l0.2,0.1l0.3,0l0.2-0.1l0.1-0.1l0.1-0.1l0.8-1.6l1.2-1.6l0.4-0.8l0.2-0.9l-0.1-1.2l0-0.6l0.3-0.5l0.3-0.4
		l0.2-0.5l0.2-0.5l0.1-0.4l0.3,0.5l-0.3,0.8l-0.8,1.4l0,0.5l0.1,0.5l0.2,0.4l0.3,0.1l0.3-0.3l0.2-0.9l0.4-0.3l-0.2,1.1l-0.2,0.5
		l-0.5,0.2l-0.3,0.4l-0.5,1.6l-0.4,0.4l-0.3,1.1l0.1,0.7l0.6,0.1l0.6-0.4l0.8-0.9l0.6-0.2v0.1l-0.1,0.2l-0.4,1.1h-0.1l0-0.1l0-0.1
		l-0.1-0.1l-0.1-0.1l-0.3,0.5l-0.2,0.3l-0.2,0.1l-1.1,0.1l-0.4-0.1l0.1,0.3l0,0.6l0.1,0.2l0.2,0.2l0.4,0.6l0.5,0.6l0.2,0.4l0.1,0.6
		l0.1,0.4l1.1,1.6l0.2,0.6l0.2,0.3l0.1,0.1l0.2,0l-0.3-0.4l-0.1-0.3l-0.1-0.7l-0.4-0.8l-0.1-0.7l0.1-0.6l0.5-0.3l0.3,0.3l0.3,0.6
		l0.3,1.1l0.5,1.1l0.3,0.5l0.4,0.3l-0.1-0.6l-1.2-2.4l-0.4-1.5l-0.4-0.7l-0.1-0.3l0-0.4l0.2,0.3l0.2,0.2l0.3,0.2l0.3,0.1l0.3-0.2
		l0.5,0.1l0.6,0.2l0.6,0l0.4-0.1l0.4-0.2l0.3-0.3l0.2-0.4h0.1l0.3,1.4l0.1,0.3l0.2-0.1l0-0.4l0-0.8h0.1l0,0.5l0.4,1.1l0.1,0.5
		l0.1,0.2l0.2,0.3l0.2,0.2l0.2,0.1l0.2-0.1l0.1-0.2l0.1-0.5l0.1,0.1l0.2,0.2l0.1,0.1l0.1-0.3l0.2-0.2l0.2-0.1l0.2-0.1l0.1,0.1l0,0.2
		l-0.3,0.1l-0.1,0.2l0.1,0.3l0.3,0.2l-0.3,0.3l0.2,0.2l0.7,0.3l-0.1,0.1l-0.2,0.2l-0.1,0.1l0.2,0.2l0.2,0.2l0.3,0.1l0.3,0l0.1-0.1
		l0.2-0.4l0.1-0.1l0.4,0l0.2,0l0.1-0.1l0.2-0.1l1,0l0.1-0.1l0-0.3l0.1-0.1l0.2,0l0.1,0.1l0.1,0.1l0.1,0.2l-0.3,0l-0.1,0.2l0.1,0.3
		l0.2,0.2l-0.7-0.1l-0.5,0l-0.4,0.3l-1.1,1.6l-0.1,0.3v1.4l0.3-0.1l0.2-0.2l0.2-0.6l0,0.5l0.2,0.2l0.9,0l0.2-0.2l0.1-0.4l0.3-0.3
		l0.6,0.1l-0.2,0.3l-0.5,0.2l-0.2,0.3l0,0.4l0.1,0.3l0.2,0.3l0.2,0.2l0.6,0.1l0.5-0.3l0.3-0.6l0.2-0.6l0.1,0.1l0.3,0.4l-0.2,0.3
		l-0.3,0.3l-0.2,0.3l0.1,0.4l-0.4-0.1l-0.5,0l-0.4,0.2l-0.1,0.4l0.2,0.3l0.8,0.3l0.2,0.3l0.2,0.4l0.4,0.4l0.8,0.6l0.5,0.5l0.2,0.1
		l0.5,0l0.2,0l0.2,0.1l-0.4,0.2l-0.1,0.2l0.2,0.2l0.5,0.1l0.6-0.1l0.1,0l0.1,0.1l0,0.2l-0.1,0.3l0.1,0.7l0,0.4l-0.1,0.3l-0.3,0.5
		l0,0L365,297l-0.1,0l0,0.1l0,0.3l0,0.1l-0.4,0.4l-1.3,1l-0.6,0.3l-0.8,0.1l-0.9-0.3l-0.6-0.5l-0.1-0.5l-0.6-0.1l-0.4-0.2l-0.9-0.6
		l0.3-0.3l-0.1-0.5l-0.4-0.7h-0.7l-0.2-0.1l-0.1-0.2l-0.1-0.2l-0.1-0.1l-0.5,0l-0.5,0.2l-0.3,0.3l-0.1,0.3l0,0.9l0.1,0.4l0.2,0.4
		l1.2,1.6l0.2,0.1l0.5,1.2l0.3,0.3l0.7,0.6l0.1,0.3l0,0.2l0.1,0.2l0.1,0.2l0.1,0.2l0.1,0.2l-0.1,0.5l0,0.2l0.2,0.3l0.1,0l0.2,0
		l0.2,0l0.2,0.2l0.1,0.2l0.1,0.2l0.2,0.2l0.3,0.2l0.9,0.3l0.4,0.2l1.1,1l0.8,0.3l0.3,0.3l0.2,0.2l0.3-0.2l0,0l-0.1-0.1l0-0.2l0-0.1
		l0,0l0.2-0.1l0,0l0.5-0.6l0.1-0.2l0-0.2l0.1-0.3l0-0.2l-0.1-0.3l-0.3-0.4l-0.1-0.2l-0.1-0.4l0-1.4l0-0.2l0.1-0.2l0-0.2l-0.2-0.3
		l-0.7-0.6l-0.1-0.2l0-0.3l0.1-0.3l0.2-0.1l0.2,0.1l0.1,0.2l0,0.5l0.1,0.2l0.5,0.3l0.4-0.3l0.3-0.4l0.2-0.2l0.2-0.3v-0.6l-0.2-1.1
		l0.1-0.6l0.5-1l0.2-0.5l0.1,0.3l-0.1,0.5l-0.2,0.4l-0.2,0.2l-0.1,0.3l0.2,1.8l-0.1,0.3l-0.3,0.6l-0.1,0.3l0,0.3l0.1,0.5l0,0.2
		l-0.1,0.3l-0.1,0.2l0,0.2l0.3,0.1l0.2,0l0.5-0.1l0.3,0l-0.1,0.1l-0.5,0.4l0,0.1l0.1,0.2l0,0.1l-0.1,0.1l-0.2,0.4l0,0.2l-0.2,0.4
		l0,0.3l0,0.3l0.3,0.7l-0.3,0.4l-0.1,0.6l0.1,0.6l0.3,0.4l0.1-0.1l0.2-0.1l0.2,0.3l0.4,0.2l0.4,0.1l0.3-0.1l0-0.2l0-0.3l0.1-0.3
		l0.2-0.2l0,0.6l0.1,0.4l0.6,0.8l0.6,0.9l0.3,0.1l0.5-0.4l0.2,0.1l0.3,0.1l-1.4,0.3l-0.7,0l-0.4-0.3H369v0.2l2,2l0.1,0.2l0.2,1.8
		l-0.1,0.2l-0.3-0.1l0.3,0.6l0.4,0.6l1,1.2l0.2,0.3l0.1,0.4l0.1,0.3l0.3,0.1l0.5,0.1l0.2,0.3l0.1,0.4l0.2,0.3l-0.2,0.1l-0.2,0.4
		l-0.2,0.1l-0.2,0l-0.3-0.2l-0.3,0.1l-0.2-0.3l-0.2,0.1l-0.1,0.2l0,0.3l0,0.3l0,0.2l0.3,0.2l0.4,0l0.9-0.1l0.3,0.2l0.1,0.4l0.1,0.8
		l0.1,0.1l0.2,0.2l0.1,0.2l0.1,0.2v0.2l0,0.2l0.4,0.6l0.2,0.5l0.1,0.5l-0.1,0.5l-0.2,0.2l-0.6,0.3l-0.1,0.3l0.1,0.3l0.7,1.5l0.1,0.5
		l0.1,1.3l0.2,0.6l0.9,0.8l0.2,0.4l0.1,0.9l0.1,0.4l0.2,0.4l0.3,0.3l0.1,0.2l-0.1,0.2l0,0.2l0.4,0.7l0.1,0.3l-0.4-0.3l-0.4-0.4
		l-0.3-0.1l-0.1,0.5l0,0.3l0,0.1l0.1,0.1l0.1,0.3l0.1,0.3l0,0.2l-0.1,0.4l0.2,2.5l0.4,1.4l-0.2-0.2l-0.2-0.2l-0.3-0.1l-0.3-0.1
		l0,0.5l-0.2,0.1l-0.3,0l-0.1,0.3l-0.1,0.9l0.1,0.3l0.1,0.1l0.2,0.1l0.2,0.1l0.1,0.2l0,0.2l-0.1,0.1l-0.2,0.1l-0.1,0.1l-0.2,0.1
		l-0.9-0.4l-0.2,0.2l0,0.3l0.1,0.3l0.6,0.3l0.1,0.4l-0.1,0.4l-0.1,0.3l-0.3,0.5l-0.1,0.2l0,0.2l0,1.4l-0.1,0.4l-0.2,0.3h0.4
		l-0.6,0.8l-0.2,0.2l-0.2,0l-0.2-0.1l-0.2,0l-0.2,0.1l-0.1,0.3l0.1,0.3l0.3,0.5l0.1,0.3l0,0.9l-0.1,0.3l-0.4,0.4l-0.1,0.3l0,0.2
		l-0.2,0.6l0,0.3l0,1.1l-0.2,0.4l-0.5,0.3v0.1l0.4,0.2l0.1,0.3l-0.2,0.6l-0.2,0.4l-0.5,0l-0.7-0.2l-0.1,0.2l0.1,1.3l-0.3,1.7
		l-0.1,0.2l-0.2,0.3l-0.1,0.1l-0.1,0.3l0.1,1.6l-0.5,2.4l-0.1,2.4l0,0.3l0.1,0.3l0.5,0.8l0.2,0.2l0.3-0.1l0.4-0.5l0.3,0.2l0.4,0
		l0.4-0.1l0.2-0.2l0.1-0.6l0.2-0.3l0.3-0.1l0.4-0.1l0.6-0.3l0.6-0.7l1-1.8l0.1-0.3l0.1-0.4l0-0.5l-0.1-0.8l0.1-0.2l0.4,0.1l0.2,0.1
		l0.1,0.1l0.2,0.1l0.2,0.1l0.2-0.1l0.2-0.2l0.1-0.2l0.2-0.7l0.2-0.3l0.2,0l0.1,0.4l-0.4,0.9l-0.5,0.6l-0.2,0.3l0,0.1l0.5-0.1
		l0.4-0.4l0.3-0.5l0.1-0.5l0.1-0.3l0.5-0.5l0.1-0.3v-1.2l-0.3-1.8l0.1-0.5l0.1,0.4l0.3,0l0.7-0.3l0,0.3l-0.1,0.1l-0.2,0l-0.1,0.1
		l-0.1,0.3l0,0.2l0.3,2l0.2,0.2v0.1l-0.2,0l-0.2,0l-0.1,0.1l-0.4,1.3l-0.2,0.4l-0.2,0.4l0.1,0.4l0.3,0.7l0.1,0.9l-0.2,0.9l-0.3,0.9
		l-0.4,0.7l-1.1,1l-0.5,0.7l0.1,0.6l0.5,0.1l0.5-0.3l1.1-1.1l0.4-0.2l0.3-0.3l0.3-0.5l0.2-0.4l0.5-0.9l0.3-0.7l0.2-0.3l0.4-0.2
		l0,0.3l-0.2,0.2l-0.2,0.1l-0.1,0.1l0,0.4l0,0.2l-0.1,0.2l-0.2,0.2l-0.2,0.2l-0.2,0.2l-0.2,1l-0.6,0.7l-0.8,0.5l-0.7,0.4l-0.5,0.4
		l0.2,0.3l0.2,0.3l0.2,0l0.1-0.4l0.2,0.4l0.1,0.4l0.2,0.3l0.5,0.2l0.4,0l0.3-0.2l0.3-0.2l0.2-0.3l0.6-1.3l0.3-0.4l1.2-0.8l0.2-0.3
		l0-0.1l0.3-0.5l0-0.1l-0.1-0.1l0-0.1l0-0.2l-0.2-0.4l0-0.2l0-0.9l0.1-0.4l0.2-0.2l0.1-0.1l0.5-0.7l0.2-0.1l0.5,0l0.4-0.2l0.5-0.1
		l0.1-0.1l0.1-0.1l0.3-0.3l0.1-0.1l-0.1,0.4l-0.2,0.4l-0.3,0.3l-0.4,0.1l-0.5,0.1l-0.3,0.2l-0.3,0.3l-0.4,0.6l-0.1,0.3l0,0.3
		l0.3,0.7l0.1,0.9l0.1,0.4l0.7-0.4l-0.1,0.4l-0.3,0.3l-0.4,0.1l-0.3,0l-0.2,0.1l-0.3,0.3l-0.2,0.3l-0.1,0.3l0,0.3l0.3,0.6l0,0.3
		l0,0.7l0.1,0.5l0.2-0.1l0.4-0.5l0.1,0.1l0.1,0.2l0.1,0.2l0,0.2l-0.1,0.3l-0.2,0.1l-0.2,0.1l-0.2,0.1l-0.2,0.4l0.2,0.2l0.9,0.1
		l0.7,0.3l0.2,0l0.5,0l0.1-0.1l0.1-0.1l0.1-0.2l0-0.1l0.1-0.1l0.2-0.1l0.3-0.1l0.2-0.1l0.3-0.3l0.2-0.5l0.4-2.6l0-0.6l-0.1-1.1
		l0.1-0.6l0.5-0.4l0.6-0.8l0.2-0.3h0.1l0.1,0.3l0.1,0.1l0.1,0l0.2,0l0.3-0.1l0.1,0l0.1,0l0.1,0.2l0.1,0l0.2,0l0.2,0.1l0.1,0.1
		l-0.2,0.1l-0.2,0l-0.7,0l-0.7,0.3l-0.6,0.7l-0.3,0.9l0.2,0.9l0.4-1.1l0.2,0.7l-0.5,2.4l0,0.8l0.2,0.8l0.4,0.6l0.6,0.2l0.8-0.2
		l0.2-0.5l-0.1-1.5l0.1-0.7l0.3-0.7l0.7-1.1l0.1,0.7l-0.3,0.6l-0.3,0.5l-0.1,0.4l0.3,0.5l0.5-0.2l0.4-0.6l0.3-0.9l0.6-0.8l0.1-0.3
		l0.1-0.9l-0.1-0.4l-0.3-0.6l-0.1-0.3l0.1-0.3l0.2-0.2l0.2-0.2l0.2-0.2h0.1l-0.1,0.4l-0.1,0.3l-0.1,0.3l0.1,0.4l0.3,0.7l0.1,0.3
		l0,0.4l-0.1,0.7l-0.2,0.7l-0.3,0.6l-0.5,0.4l0.1,0.3l-0.1,0.4l-0.2,0.3l-0.2,0.1l-0.2,0.2l0.1,2l0.1,0.3l0.3,0.1l1.3,0.2l0.5,0
		l0.4-0.1l0.3-0.2l0.6-0.6l1.3-0.9l2.8-3l0.5-0.8l0.1-0.3v-1l0.1-0.4l0.6-0.8l0.1-0.4l-0.2-2l0.2,0.2l0.1,0.4l0.1,0.4l0,0.3l0.2,0.3
		l0.4,0.1l0.4-0.1l0.4-0.6l1.5-1.4l-0.1,0.5l-0.1,0.2l0.5-0.1l0.3-0.3l0.2-0.4l0.4-0.3l-0.1,0.4l-0.1,0.3l0,0.2l0.4,0.1l0.4-0.1
		l0.8-0.7l1-1.1l0-0.5l-1.2-1.1l1.4,0.6l0.2,0.2l0.2,0.4l0.4,0.1l0.5-0.1l0.4-0.2l1.4-1l0.4-0.2l1-0.4l0.3-0.2l0.3-0.5l-0.2-0.3
		l-0.3-0.2l-0.3-0.6l-1-1.3l-0.2-0.5l-0.1-0.2l0-0.2l0.2-0.5l0-0.2l-0.1-0.4l-0.5-0.6l-0.2-0.4l-0.1-0.8l-0.1-0.2l-0.3-0.4l-0.1-0.2
		l0.7-0.1l1-0.8l0.6,0.1l-0.2,0.2l-0.8,0.5l-0.2,0.3l0,0.5l0.1,0.4l0.1,0.4l0.4,0.9l0.1,0.3l0.1,0.4l0,0.5l0.1,0.3l0.3,0.3l1.4,1
		l0.4,0.2l0.5,0.1l1.3,0l0.4,0l1.2-0.5l0.9-0.2l0.4-0.3l0.7-0.8l0.7-0.4l0.2-0.2l0.2-0.3l0.4-0.6l0.2-0.2l0.8-0.6l0.3-0.3l0.4-0.5
		l-0.2-0.2l0-0.2l0.1-0.1l0.3-0.1l0.3-0.7l0.1-0.5l0.3-0.5l0-0.3l-0.1-0.3l-0.2-0.2l-0.3-0.2l-0.3-0.1v-0.2l0.3,0l0.4,0.1l0.3,0
		l-0.1-0.2l-0.1-0.2l-0.1-0.2l-0.1-0.2l0.7,0.2l0.2-0.1l0.2-0.9l0.4-0.6l0.1-0.3l0-0.9l-0.3-0.7l-0.8-1.4l-0.1-0.9l0.3-0.6l0.5-0.4
		l0.4-0.5l0-0.7l-0.5-0.5l-0.7-0.4l-0.5-0.6l-0.1-0.1l0.1-0.1l0.1-0.1l0.1-0.1l0.1-0.1l0.1,0.1l0.2,0.2l0.1,0.1l0.2-0.3l0.2-0.8
		l0.2-0.3l0.1,0.3l0,0.7l0.1,0.4l0.1,0.2l0.2,0.2l2.2,1.6l-0.1,0.4l0.3,0.2l0.5,0.1l0.4,0.2l0.2,0.4l0.1,0.5l0.1,0.3l0.4,0.1v0.1
		l-0.3,0.3l0.1,0.7l0.3,0.7l0.3,0.4l0.2-0.4l0.1-0.4l0.2-0.3l0.5-0.1l0.4,0.1l0.4,0.1l0.8,0.4l-0.6,0.3l-0.6-0.2l-0.6-0.1l-0.3,0.5
		l0,0.3l0.1,0.3l0.2,0.3l0.1,0.2l0.3,0.4l0.1,0.2l0,0.3l-0.2,1.1l-0.1,0.5l0.2,0.4l0.2-0.1l0.2,0l0.2,0.1l-0.3,0.6l0,0.3l0,0.3
		l0.1,0.3l0.2,0.1l0-0.3l0.1-0.3l0.2-0.4h0.2l-0.1,0.5l0,0.2l0.1,0.2l0.2,0.3l0,0.2v0.7l0.1,0.3l0.1,0.1l0.1,0.1l0.1,0.1l0.5,1.2
		l0.4,0.3l0.8,0.1l-0.3,0.4l0,0.5l0.7,3.1l0.3-0.4l0.3-0.3l0.4-0.1l0.6,0l0.1,0l0.2,0.1l0.1,0l0.2,0l0.1-0.1l0.1-0.1l0.1-0.1
		l0.5-0.1l0.5,0l1.3,0.2l0.4,0l0.5-0.2l1.2-0.8l0.2,0.1l0.2,0.1l0.1,0.1l0.1,0.2l-0.8,0.2l-0.6,0.4l-0.4,0.6l-0.3,0.6l-0.2,0.8
		l-0.1,0.9l0.1,0.9l0.2,0.8l0.2,0.4l0.1,0.2l0,0.3l-0.1,0.3l-0.2,0.4l-0.4,2.4l-0.2,0.4l-0.2,0.3l-0.3,0.1l-0.2,0l-0.1,0.1l-0.1,0.2
		l0,0.2l0.1,0.8l0,0.1l0.1,0.2l0.6,0.5l0.6,0.7l1.1,0.8l0.4,0.5l-0.1,0.6l0.3,0.1l0.1,0.3l0,1.4l-0.1,0.1l-0.2,0.2l0,0.1l0.1,0.2
		l0.3,0.3l0.1,0.2l0,0.2l-0.1,0.2l0,0.2l0.1,0.2l0.2,0.3l0.1,0.3l0,0.3l-0.1,0.2l0.1,0.1l0.1,0.2v0.2l-0.1,0.2l0,0.1l0.5,1.3
		l0.1,0.3l-0.3,0.6l0,0.3l0.5,1.5l0.2,0.2l-0.4,0.3l-0.2,0.1l-0.1-0.1l-0.2,0.7l-0.2,0l-0.1,0.1l-0.1,0.1l-0.1,0.2l0.2,0.2l0.1,0.2
		l0,0.5l0,0.3l0,0.2l0.5,0.9l0.2,0.2l0.3,0.1l0.6,0l-0.2,0.4l-0.1,0.3l0.1,1.7l-0.1,0.4l-0.2,0.3l0.1,0.1l0.1,0.3l0.1,0.1l-0.2,0
		l-0.2,0l-0.2,0.1l-0.1,0.2l0.3,0.2l0.3,0.2l0.2,0.3l0.1,0.5l0,0.2l-0.2,0.3l0,0.2l0,0.5l0,0.2l-0.1,0.2l0.4,0.6l0.6,2.4l0.1,0.1
		l0.1,0.1l0.1,0.1l0.1,0.1l0.3,0l0.2-0.1l0.1-0.1l0.1-0.1l0.2-0.2l-0.2-0.9l0.1-0.4h0.1l0.1,0.5l0.2,0.4l0.3,0.1l0.3-0.2l0-0.1
		l-0.1-0.1l-0.1-0.1l0,0l0.1-0.2l0.1-0.1l0,0.1l0,0.1l0.1,0.2l0.1,0.2l0.1,0.1l-0.2,0.3l0.1,0.2l0.3,0.2l0.3,0.1l-0.4,0.1l0.2,0.5
		l0.7,0.9l-0.7-0.3l-0.5-0.7l-0.5-0.5l-0.8,0.2l-0.4,0.5l0,0.6l0.3,0.5l0.5,0.4l-0.2,0.5l0.2,0.6l0.6,1.1l0.2,0.9l0.1,0.2l0.2,0.1
		l0.2-0.1l0.1-0.2l0.2-0.2l-0.1,0.4l-0.3,0.6l-0.1,0.5l0,0.4l0.1,0.5l0.2,0.5l0.4,0.6l0.5,1.2l1,1.3l0.1-0.3l0.1,0l0.1,0.2l0.1,0.3
		h-0.3l0.2,0.7l0,0.2l-0.1,0.3l-0.2,0.4l0,0.3l-0.2,0.3l-0.4,0.6l-0.1,0.5l0.1,0.4l0.3,0.9l0.1,0.5l0.1,0.1l0.2,0.1l0.2,0.1l0.1,0
		l0.1,0.1l0,0.2l-0.1,0.3l0,0.9l0.1,0.9l-0.4-0.1l-0.1,0.5l0.2,0.6l0.5,0.2l-0.1,0.1l-0.1,0.3l-0.1,0.1l0.3,0.1l0.1,0l0.5,0l0.3,0.1
		l0.2,0.2l0,0.2l-0.3,0l0.1,0.3l0,0.3l-0.1,0.2l-0.3,0.1l0.1,0.1l0.1,0.2l0.1,0.1l-0.2,0.1l-0.2,0.2l-0.1,0.2l0.1,0.1l0.1,0.1l0,0.2
		l0,0.3l0,0.2l0-0.1l0.1-0.2l0-0.2l0.3,0.3l0.1,0.1l0.2,0l0.2-0.1l-0.1-0.2l-0.2-0.3l-0.1-0.4l0-0.2l0.1-0.3l0.1-0.2l0.1-0.1
		l0.1-0.1l0.1-0.1l0.2-0.4l0-0.3l0-0.4l-0.3-1l0.2-1.7l0.2-0.7l0-0.4l-0.1-0.4l-0.3-0.8l0-0.3l0.2-0.3l0.1-0.3l0-0.6l-0.1-0.1
		l-0.3-0.3l-0.1-0.1l0-0.2l0.1-0.4l0-0.3h0.1l0.1,0.3l0.2,0.4l0.3,0.3l0.2,0.2v0.1l-0.1,0.2l0,0.2l0.1,0.2l0.1,0.2v0.9l0.3,1.1
		l0.1,0.2l-0.1,0.3l0,0.3l0.1,0.3l0,0.3l0,0.3l-0.2,0.8l0.1,0.7l0.3,0.2l0.4,0l0.5,0.1l-0.1,0.3l-0.1-0.1l0.2,0.5l0.8,1.1l0,0.4
		l0.4,0.3l0.1,0.2l-0.1,0.3l0.3,0.1l0.3,0.2l0.2,0.2l0.2,0.4l0.5,0.7l0.1,0.2l-0.1,0.2l-0.2,0.2l0,0.2l0.1,0.2l0.1,0.1l0.1,0.1
		l0.1,0.1l0.1,0.2l0.1,0.3l0.1,0.3l0,0.3l0.1-0.4l0.1-0.2l0.2-0.1l0,0.4l0,0.2l0,0.1l-0.3,0.2l0,0.3l0.3,0.6l0,0.2l0,0.2l0.1,0.2
		l0.1,0.2l0.2-0.3l0.1,0.3l0.1,0.7l1.1,0.8l0.3,0.1l0.3,0.3l0.1,1.5l0.1,0.6l-0.2,0.2l0,0.2l0.1,0.8l0,0.2l0.2,0.4l0.3,0.7l0.1,0.1
		l-0.1,0.1l-0.1,0.2l-0.2,0.5l0.2,0.2l0.5,0.6l0.2,0.1l0.3,1.7l-0.1,0.2l-0.1,0.1l-0.1,0l-0.2,0.1l-0.1,0l0,0l0,0.2l0.2,0.2l0.9-0.1
		l0.2,0.1l-0.1,0.2l-0.2,0l-0.2,0l-0.2,0.1l-0.1,0.1l0,0.1l0.1,0.1l0.3,0l0.6-0.1l0.1,0.1l0,0.3l-0.1,0.2l-0.1,0.1l-0.1,0.2
		l-0.1,0.3l-0.1,0.6l0.1,0.3l0,0.1l-0.1,0l-0.2,0l-0.1,0l-0.1,0.1l-0.1,0.4l-0.3,0.4l-0.2,0.4l0.2,0.4l0.2,0.1l0.2,0l0.2,0l0.2,0
		l0.2,0.1l0.3,0.2l0.2,0l0.1,0.1l0,0.1l-0.1,0.1l-0.2,0.1H460l-0.5,0.1l-0.2,0.1l-0.1,0.3l0,0.5l-0.1,0.5l0,0.2l0.3,0.1l0.1,0.1
		l0.5,0.5l0.7,0.3l0.3,0.2l0.1,0.3l-0.2,0.4l-0.4,0.3l-1.8,0.4l-0.4,0.1l-0.3,0.2l-0.2,0.4l0,0.4l0.2,0.4l0.3,0.3l0.2,0.1l0.4,0.1
		l0.2,0.1l0.5-0.3l0.4-0.3l0.4-0.3l0.7-0.1l0.1,0.1l0.1,0.2l0.1,0.3l-0.1,0.2l-0.3,0.2l-0.6,0.3l-0.2,0.2h0.3v0.2l-0.5,0.1l-0.3,0.1
		l-0.1,0.1l0,0.3l0.1,0.2l0.1,0.2l-0.1,0.3l0,0.2l0.2,0.3l0.3,0.2l0.1,0.1l1-0.1l-0.2,0.3l0,0.2l0.2,0.2l0.1,0.3l0,0.2l0,0.7
		l-0.1,0.1l-0.2,0l-0.2,0.1l-0.2,0.4l-0.3,0.3l-0.4,0.2l-0.4,0.1l-1,0l-0.4,0.2l-0.2,0.4h1.7l0.9-0.3l0.4,0l0.3,0.3l-0.5,0l-0.3,0.3
		l-0.2,0.4l-0.2,0.3l-0.1,0l-0.2,0l-0.2,0l-0.1,0l-0.1,0.1l-0.3,0.5h0.6l0,0.2l-0.1,0l-0.1,0l-0.1,0.1l-0.2,0.4l0,0.1l0,0.2l0.1,0.2
		l0,0.2l0.1,0.2l0.6,0.5l0.5,0.3l0.2,0.1l0.2-0.1l0.2-0.2l0.1-0.3l0-0.3l0.1-0.2l0.2-0.1l0-0.1l0.2-0.2l0.1,0l0.1-0.1l0.3,0l0.1,0
		l0.5-0.8l0.2-0.2l0.2-0.2l0.1-0.2l-0.1-0.4l0.3,0.5l-0.3,0.5l-0.4,0.5l-0.1,0.5l0.4,0.4l1.5,0.3l0.3,0.6h-0.1l-0.2-0.1l-0.4-0.1
		l-0.4-0.1l-0.3,0l-0.1,0.2l0,0.2l0,0.2l-0.2,0.1l-0.2-0.1l-0.2-0.1l-0.2-0.1l-0.2,0.1l-0.3,0l-0.2,0.3l-0.1,0.5l0,0.4l0.1,0.7
		l-0.1,0.3l-0.3,0.3l0.1,0.2l-0.2,0.3l0,0.2l0.2,0.1l0.3-0.1l0.2,0l0.2,0.3l0,0.8l0.2,0.3l-0.8,0.1l-0.4,0.1l-0.2,0.4l-0.2,0.7
		l0.1,0.2l0.5-0.1l-0.1,0.4l0,0.4l0.1,0.3l0.4,1l0.3,0.3l0,0.1l-0.1,0.1l-0.1,0.4l-0.3,0.6v0.6l-0.2,0.4l-0.4,0.3l-0.9,0.2l0.4,0.6
		l0.3,0.2l0.4-0.1l0.1,0.4l0.2,0.4l0.1,0.3l-0.1,0.3l-0.2,0.1l-0.2,0.1l-0.1,0.1l0,0.2l0.1,0.1l0.4,0.3l0.1,0.2l-0.1,0.1l0.1,0.3
		l0,0.4l-0.1,0.4l-0.1,0.2l-0.1-0.1l-0.3,0.1l-0.3,0.1l0,0.1l-0.2-0.1l-0.2-0.2l-0.1,0l-0.3,0.1l-0.2,0.2l-0.2,0.2l-0.6,0.2
		l-0.1,0.1l0.1,0.2l0.1,0.1l0.2,0.1l0.5,0l0.2,0.1l-0.1,0.2l-0.2,0.1l-0.2,0l-0.2,0l0.1,0.4l-0.1,0.3l-0.3,0.5l-0.1,0.2l-0.2,0.6
		l-0.1,0.3l-0.2-0.2l-0.2-0.1l-0.2,0l-0.2,0.1l0.2,0.2l0.1,0.3l0,0.3l-0.2,0.2l-0.4-0.6l-0.3-0.2l-0.4-0.1l-0.3,0.1l-0.1,0.3l0,0.9
		l0.1,0.9l0.7,1.5l0.1,0.9l-0.1,0.9l0,0.4l0.4,0.6l0.3,1.2v0.4l-0.2,0.7l-0.1,0.9l-0.1,0.3l-0.3,0.8l0,0.1l0,0.2l0.1,0.2l0.4,0.7
		l0,0.9l0.1,0.7l0,0.2l0,0.4l0,0.2l0.1,0.2l0.2,0.3l0,0.2l0.2,0.2l0.4-0.3l0.6-0.8l1.1-2.3l0.4-0.6l0.4-0.5l0.2-0.3l0.1-0.8l0.3-1
		l0.2-0.5l0.1-0.1l0.1-0.1l0.2-0.1l0.4-1.2l0.2-1l0.3-0.8l0-0.4l-0.3-1.3l-0.1-0.2l-0.4-0.3l-0.1-0.3l0.2-0.9l0.2-0.5l0.9-1.2
		l0.4-0.3l0.2-0.1l0.4,0l0.1,0l0.1-0.2l0.2-0.4l0.2-0.2l0.3-0.1l0.2,0l0.2,0.1l0.2,0l0.7-0.3l0.1,0l0.2-0.2l0.1-0.2l0.1-0.4l0-0.3
		l-0.2-0.4l0-0.2l0-0.2l0-0.2l0.1-0.2l0.1-0.2l0.2-0.2l0.1,0l0.1,0.1l0.3,0l0.2,0.1l0.2,0.1l0.2,0l0.2-0.3l0.2-0.6l0.1-0.2l0.3-0.3
		l0.8-0.4l0.4-0.3l0.1-0.2l0.2-0.4l0.1-0.2l0.2-0.1l0.4-0.1l0.1-0.2l0.6-1.8l0.3-0.5l0.7-0.8l0.2-0.5l0.3-0.8l0.2-0.3l0.8-0.8
		l0.1-0.3l0-0.4l0.1-0.5l0.2-0.3l0.6-0.6l0.2-0.3l0.2-0.4l0.1-0.3l0-0.8l0-0.5l0.2-0.3l0.3-0.2l0.5-0.1l0.8-0.1l0.2-0.2l1.3-1.7
		l0.2-0.5l0.3-1.4l0-0.2l-0.3-0.1l-0.4-0.3l-0.4-0.3l-0.3-0.3l-0.1-0.5l0.1-0.4l0.3-0.8l0-0.4l-0.1-0.3l-0.3-0.3l-0.4-0.1l-0.3-0.3
		l0.1-0.6l0.3-1l0-0.2l0.1-0.2l0-0.2l-0.1-0.2l-0.2-0.1l-0.2,0l-1.1,0.4l-0.3-0.1l-0.1-0.4l0.1-0.2l0.2-0.2l0.2-0.2l0-0.3l-0.1-0.2
		l-0.2-0.4l-0.1-0.2l0-0.2l0-0.4l-0.1-0.2l-0.1-0.2l-0.3-0.4l-0.1-0.3l-0.1-0.4l-0.1-1.1l-0.1-0.4l-0.5-0.8l-0.1-0.4l0-0.2l0.2-0.4
		l0.1-0.2l0.1-0.5l0-0.4l-0.1-0.5l-0.2-0.3l-1-0.6l-0.2-0.2l-0.2-0.2l-0.1-0.2l-0.1-0.2l-0.5-0.1l-0.2-0.1l-0.1-0.2l0-0.4l-0.1-0.2
		l-0.2-0.1l-0.5-0.1l-0.2-0.1l-0.2-0.4l0-0.4l0-0.4l-0.1-0.4l-0.2-0.2l-0.4-0.4l-0.2-0.2l-0.1-0.2l-0.1-0.6l-0.3-0.6l0-0.2l0-0.3
		l0.1-0.2l0.1-0.2l0.1-0.2l0-0.4l-0.3-0.4l-0.4-0.3l-0.3-0.2l-0.4-0.4l-0.1-0.4l0.1-0.5l0.2-0.5l0.1-0.5l-0.1-0.5l0-0.4l0.2-0.3
		l0.4-0.1l0.8-0.1l0.3-0.3l0.1-0.4l-0.1-0.4l-0.3-0.8l0-0.3l0.1-0.2l0.1-0.2l0.1-0.2v-0.2l-0.1-0.4l0.1-1l0-0.4l-0.7-3.2l-0.1-1.7
		l0.1-0.5l0-0.5l-0.2-0.4l-0.7-0.6l-0.2-0.3l-0.2-1l0-0.4l0-0.2l0-0.2l0-0.1l-0.1-0.2l-0.1-0.1l-0.3-0.1l-0.1-0.1l-0.1-0.1l-0.1-0.3
		l-0.1-0.1l-0.6-0.5l-0.2-0.2l-0.2-0.5l-0.2-0.4l-0.6-0.8l-0.1-0.4l0-0.5l-0.2-0.3l-0.4-0.2l-0.5-0.1l-0.4-0.2L462,405l-0.5-0.5
		l-0.5-1l-0.2,0l-0.2,0.1l-0.3,0l-0.1-0.1l-0.3-0.3l-0.1-0.1l-0.1-0.1l-0.3-0.1l-0.1-0.1l-0.3-0.2l-0.2-0.2l-0.9-1.2l-1.4-2.9
		l-0.3-0.1l-0.2-0.1l-0.1-0.3l-0.1-0.5l-0.2-0.4l-0.3-0.4l-2.4-2.4l-1.1-1.7l-0.2-0.4l0.1-0.3l0-0.1l-0.1-0.1l-0.2-0.2l-0.1-0.1
		l0-0.4l0-0.7l-0.1-0.5l-0.4-0.7l-0.1-0.2l0-0.3l0.1-0.2l0.1-0.2l0.1-0.2l-0.1-0.5l-0.6-0.7l-0.2-0.5l0.1-0.4l0.4-0.7l0.1-0.4
		l-0.3-0.6l0-0.2l0.8,0l0.4-0.2l0.3-0.3l0.7-1l0.2-0.1l0.5,0.1l0.4,0.1l0.7,0.4l0.3,0.1l0.1,0l0.1-0.1v-0.3l-0.1-0.1l-0.1-0.1
		l-0.1-0.1l0-0.1l0-0.1l0-0.1l0-0.1l0,0l0.2-0.1l0.1-0.1l0-0.2l-0.1-0.4l0-0.2l0.1-0.1l0.7-0.2l0.3-0.1l0.4-0.2l0.4,0.2l0.4,0.2
		l0.3,0.3l0.1,0.5l0.5-0.6l0.2-1l0-1l-0.5-3.1l0-1.2l-0.1-1.1l0.1-0.5l0.6-2.1l0-0.4l-0.1-0.9l0-0.5l0.2-0.8l0.1-0.4l-0.1-0.4
		l-0.5-0.8l-0.1-0.3l0.2-0.2l0.2,0l0.3,0.1l0.2,0.1h0.3l0.2,0l0.2-0.1l0.2-0.2l0.3-0.4l0.1-0.4l0.2-0.3l0.4-0.2l0.4,0l1.2,0.2
		l0.2,0.1l0.1,0.1l0.1,0.1l0.3,0l0.2-0.1l0.5-0.5l0.1-0.2l0-0.5l0-0.4l0.1-0.4l0.3-0.4l0.6-0.7l0.1-0.3l0.1-1l0.2-0.9l0-0.4
		l-0.3-0.5l-0.5-0.3l-0.4-0.4l-0.1-0.7l-0.4,0.4l-0.2,0.3l-0.2,0.9l-0.3,0.5l-1.2,1l-0.6,0.9l-0.3,0.2l-0.4-0.3l-0.1-0.3l-0.3-1.5
		l-0.3-0.6l0-0.2l0.2-0.4l0-0.2l-0.2-0.4l-1.2-1.6l-0.1-0.2l0-0.2l0.1-0.2l0-0.2l0-0.2l-0.1-0.2l-0.3-0.4l-0.7-0.5l-0.3-0.4
		l-0.1-0.6l-0.1-0.2l-0.6-0.5l0-0.4l0.2-0.4l0.2-0.3l0.3-0.1l0.3-0.2l0.2-0.3l0.1-0.2l-0.1-0.2l-0.2-0.1l-0.2-0.1l-0.1-0.3l0.1-0.3
		l0.2-0.1l0.2,0.1l0.3,0.2l-0.2-0.6l-0.1-0.3l-0.2-0.1l-0.3-0.1l-0.1-0.3l0-0.3l-0.1-0.3l-0.2-0.3l-0.3-0.7l-0.2-0.3l-0.4-0.4
		l-0.4-0.2l-0.4-0.1l-1,0l-0.4-0.1l-0.3-0.3l-0.3-0.5l0.1-0.1l0.1-0.2l0-0.2l-0.5,0l0-0.2l0.1-0.2l0.2-0.2l-0.5-0.3l-0.7-1l-0.4-0.3
		l-0.3-0.2l-1.7-1.7l-0.2-0.2l0-0.3l0.1-0.4l0-0.3l-0.1-0.3l-0.2-0.2l-0.3-0.1l-0.3-0.1l-0.3-0.3l-0.1-0.3l-0.2-0.6l-0.4-0.7
		l-0.1-0.3l-0.2-0.2l-0.2-0.1l-0.5-0.2l-0.3-0.2l-3.3-3.1l-0.2-0.3l-0.1-0.3l0-0.3l0-0.2l0-0.2l-0.2-0.2l-0.5-0.4l-0.1-0.2l-0.1-0.3
		l-0.2-0.2l-0.3-0.2l-0.2-0.3l0.5-0.1l-0.3-1l0.1-0.3l0.6-1l0.6-0.4l0.1-0.1l0.1-0.1l0-0.2l-0.1-0.2l-0.1-0.1l-0.1-0.1l-0.3-0.7
		l-0.1-0.3l0-0.1l-0.3-0.1l-0.1-0.1l-0.1,0l-0.1,0l0-0.2l0-0.1l0.1-0.2l0-0.1l0-0.2l-0.2-0.4l0-0.2v-0.2l0-0.1l-0.1-0.1l-1-1.4
		l-0.2-0.4l0.1-0.2l0.3-0.1l0.2-0.3l0-0.4l-0.1-0.3l-0.3-0.1l-1-0.4l-0.2,0.1l0,0l-0.4,1l-0.1,0.2l-0.2,0.2l-0.4-0.2l-0.4-0.3
		l-0.4-0.4l-0.3-0.5l-0.1-0.5l0-0.5l-0.1-0.5l-0.5-0.8l-0.5-1l-0.1-0.3l-0.2-0.4l-0.4-0.4l-0.1-0.2l0.6,0.1l0.2,0.1l0.4,0.7l0.1,0.2
		l0.1,0.1l0.2,0.1l0.2,0l0.5-0.1l0.9,0l0.8-0.4l1.4-0.9l0.4-0.1l1.1,0l1-0.3l0.1,0l0.1,0l0.1-0.2l0.2-0.9l-0.1-0.9l-0.2-0.8
		l-0.1-0.8l0-0.5l-0.1-0.4l-0.2-0.8l0-0.2l0.1-0.6l-0.1-0.3l-0.2-0.2l-0.5-0.4l-0.5-0.5l-0.1-0.3l0.2-0.2l0.4-0.3l0.3-0.3l0.1-0.3
		l0.1-0.8l0.2-0.4l1.3-1l0.3-0.3l0.1-0.3l0.1-1.7l0-0.4l-0.1-0.4l-0.2-0.2l-0.5-0.4l-0.1-0.2l0.1-0.2l0.2,0l0.2,0l0.2-0.1l0.2-0.4
		l-0.2-0.4l-0.3-0.4l-0.1-0.5l0-0.2l-0.2-0.4l0-0.2l0.7-0.9l0.7-0.6l0.2-0.2l0.1-0.3l0-0.1l-0.1-0.1l-0.1-0.3l0-0.4l0-0.4l0.2-0.3
		l0.8-0.1l1.3-0.6l0.2-0.1l0.3-0.4l0.2-0.2l0.2-0.1l0.2,0l0.2-0.1l0.1-0.3l0-0.4l-0.2-0.8l0-0.4l0.3-1.4l0.1-0.3l0.4-0.1l0.3,0.3
		l0.3,0.4l0.3,0.1l0.5-0.1l0.4,0.2l0.8,0.7l0.7,0.2l0.1,0.1l0.1,0.2l0,0.4l0,0.2l0.4,0.3l0.5-0.1l0.9-0.4l0.8,0l0.9,0.1l0.9,0
		l0.7-0.4l0.3,0l0.2,0.1l0.2,0.2l0.2,0.2l0.3,0.2l0.1,0l0-0.1l0.2-0.2l0.4-0.2l0.5-0.1l0.2-0.1l0.3-0.4l0.2-0.2l0.4-0.2l1.8-0.3
		l0.4-0.1l1.2-0.9l0.6,0.3l0.3,0.2l0.3,0.2l0.4,0.6l0.3-0.1l0.7-0.5l0.8-0.3l0.3-0.2l0.3-0.5l0.2-0.5l0-0.4l-0.1-0.4L467,285l0-0.2
		l0.1-0.2l0.1-0.1l0.1-0.1l0-0.2l-0.1-0.4l0-0.2l0.2-1.5l0.4-0.7l0.7-0.6l0.9-0.4l0.8-0.1l0.4,0l0.8,0.2l0.4,0.2l0.8,0.7l0.4,0.2
		l0.5-0.1l2.4-0.8l0.7-0.6l0.3-0.3l0.2-0.1l0.2-0.1l0.2-0.4l0.1-0.5l-0.1-0.3l-0.7-0.7l-0.2-1.2l-0.2-0.4l-0.7-0.8l-0.2-0.4l0.4-0.1
		l0.3,0.1l1,0.7l1.6,0.5l0.2,0l0.4,0l0.2,0l0.2,0.1l0.3,0.2l0.2,0l0.4-0.1l0.8-0.3l0.4-0.1l0.8,0l0.4-0.1l0.3-0.3l0.2-0.3l0.3-0.8
		l0.2-0.3l0.4-0.2l0.4-0.2l1.1-0.2l0.1,0l0.1,0l0.2,0.2l0.1,0.2l0,0.2l0.1,0.2l0.2,0.2l0.2,0.3l0.2,0.1l0.2,0l0.3,0.1l0.3,0.2
		l0.1,0.2l0.1,0.2l0.2,0.2l0.9,0.6l0-0.4l0-0.3l0.1-0.3l0.2-0.3l0.2-0.3l0.1-0.4l0-0.5l0.2-0.7l0.3-1.9l0.2-0.7l0.3-0.6v-0.3
		l0.1-0.3l0.5-0.6l0.1-0.3l0.1-0.4l0.2-0.3l0.5-0.5l0.5-0.6l0.3-0.3l0.8-0.2l0.2-0.3l0.2-0.3l0.3-0.3l0.4-0.1l1.8,0.3l0.9,0.2l0.5,0
		l0.7-0.2l0.6-0.3l0.6-0.4l0.5-0.5v-0.1l-0.6-0.1l-1.8,0.3l-0.4-0.3l0-0.4l0.2-0.9l0-0.5l0.1-0.1l0.4-0.3l0.1-0.1l0-0.2l-0.2-0.6
		l0.4-0.2l0.9-0.2l0.4-0.2l0.2-0.3l1-1.9l0.6-2.6l0-0.3l0-0.2l0.1-0.2l0.3-0.1l0.2,0l0.2,0l0.2,0.1l0.2,0.1l0.4,0.1l0.5-0.1l0.7-0.3
		l0.2-0.2l0.7-0.7l0.3-0.1l1.9-1l2.8-2.3l0.3-0.1l0.1-0.3l0-0.4l-0.1-0.3l0.1-0.4L510.8,248.6z"/>
</g>

</svg>
