<?xml version="1.0" encoding="utf-8"?>

<svg version="1.2" baseProfile="tiny" xmlns="http://www.w3.org/2000/svg" xmlns:xlink="http://www.w3.org/1999/xlink" x="0px"
	 y="0px" viewBox="180.5 182.6 478.8 229.8" xml:space="preserve">

<g id="Mongolia">
	<g>
		<polygon fill="#C4272F" points="659,305.7 659,305.5 659,305.1 659.2,304.4 659.2,304 659.2,303.8 659.3,303.7 659.3,303.6
			659.2,303.5 659.1,303.4 659,303.4 659,303.3 659,303.2 659,302.9 659,302.7 659.1,302.6 659.2,302.4 659.1,302.2 658.9,302.1
			658.7,302.1 658.5,302.1 658.4,301.9 658.3,301.8 658.3,301.6 658.2,301.4 658,301.1 657.5,300.6 657.3,300.3 657.3,300.2
			657.2,300.1 657.2,299.8 657.2,298.5 657.1,298.1 656.7,297.4 656.3,296.7 655.2,295.4 654.6,295 653.7,294.7 653.5,294.4
			653.3,294.1 653.1,293.7 652.9,293.4 650.6,291.3 650,291.1 650.1,290.8 650.5,290.3 650.6,290.1 650.5,289.7 650.2,289.6
			649.6,289.4 648.2,288.8 647.8,288.6 647.7,288.4 647.6,288 647.4,286.4 647.3,286 647.1,285.7 646.7,285.4 645.4,284.9
			642.4,283.6 641.6,282.8 640,280.1 639,278.9 638,278.4 635.1,278.2 634.7,278.1 634,277.7 633.7,277.6 632.8,277.6 631.9,277.8
			630.9,278.2 630.6,278.2 628.2,278.1 627.5,278.3 627.1,278.7 623.9,282.9 623.1,283.6 622.6,284.1 622,285.1 621.4,285.9
			620.8,285.8 617.1,282.4 616.8,282.2 615.7,281.8 613.9,281 613.4,280.9 612.4,281 608.6,281.8 607.6,281.8 604.8,281.2
			603.9,281.5 602.4,282.5 600.8,284.6 599.9,285.2 599,284.7 595.2,280.7 594.9,280.2 594.7,279.7 594.4,278.3 594,275.5
			594,275.3 594.3,274.9 597.8,273.2 598.2,272.8 598.4,272.1 598,267.6 598,267.2 598.1,266.7 598.2,266.4 601.6,261 601.9,260.3
			601.9,259.9 601.7,259.1 601.7,258.7 608,244.6 608.2,244 611.4,237 610.9,236.1 610.4,235.3 609.8,234.7 605.7,233.1
			604.4,232.6 603.2,232.6 602,233 597.5,235.6 597,235.8 596.5,235.8 594.9,235.4 593.9,235.5 593.3,235.5 593,235.4 592.1,235.4
			591.8,235.3 589.4,233.6 587.2,231.1 587,230.8 586.7,230.2 586.5,229.9 586.3,229.6 582.6,227.5 581.2,227.1 578.5,227.5
			577.7,227.3 576.4,226.6 575.7,226.5 574.4,227 573.2,227.7 572.2,228.7 571.9,228.8 571.3,229 571,229.2 569.2,231.1 569,231.2
			568.7,231.2 568,231 567.7,231.1 565.2,232.5 564.4,233.1 564.1,233.4 563.4,233.9 563.1,234.2 562.7,234.7 559.7,237
			559.3,237.5 558.9,238.1 557.8,240.1 557.7,240.6 557.6,240.9 557.6,241.7 557.4,242.2 557.2,242.4 556.4,242.4 556.1,242.5
			555.7,242.7 555.4,242.9 554.6,243.7 553.2,244.4 552.6,244.6 552.1,244.6 551.6,244.5 550.4,243.8 548.7,243.6 548.1,243.8
			542.1,246.4 536.6,246.8 535.9,247 534.3,247.9 533.9,248 533.5,248 533.2,247.9 532.5,247.6 532.2,247.4 531.8,247.5
			531.5,247.7 531.1,248.3 530.8,248.5 528.8,249.2 526.3,251.1 524.4,252.1 522.8,252.7 522.1,252.7 521.5,252.7 520.9,252.5
			519.4,251.6 518.6,251.4 518.3,251.2 517.6,250.3 517.4,250.3 517.3,250.5 517,250.8 516.5,251.4 515.9,251.8 515.2,252
			514.6,252.1 510.6,250.9 509.4,250.6 509.2,250.6 508.7,250.1 507.8,249.7 504.7,250 504.3,249.8 504.1,249.7 504,249.5
			503.9,249.1 503.9,249 503.7,248.8 503.1,248.9 502.8,248.8 502,248.5 501.6,248.2 501.3,248.1 499.8,248 499.8,395.6
			500.8,395.7 501.2,395.7 501.9,395.4 504.2,395.2 504.3,395.2 504.3,395.1 504.4,394.9 504.5,394.9 504.6,394.9 504.7,394.9
			506.9,393.2 510.6,391.6 511.7,391.5 512.5,391.5 512.8,391.4 513,391.3 513.1,391.2 513.3,391 513.5,390.9 514,390.5
			517.9,388.8 518.2,388.5 518.6,387.4 518.9,387.1 520.3,385.9 520.9,385.2 521.4,384.4 521.8,383.4 522,382.9 523.7,381.1
			525.8,378.3 526.4,377.7 528.2,376.7 531.8,375.2 532.7,374.4 533.2,374.3 534.7,374.1 535.2,373.9 535.7,373.5 538,370.6
			538.3,370.5 539.4,370.5 540.1,370.2 540.3,370.1 540.7,369.9 540.8,369.3 540.9,368.7 540.8,368.1 540.6,367.4 539.3,364.9
			538.8,364.4 538.4,363.9 536.7,362.8 536.2,362.3 534.9,360.4 534.5,359.8 534.3,359 534.2,358.2 534.1,357.8 533.8,357.5
			532.9,356.9 532.7,356.5 532.7,355.7 532.8,355.1 533.1,354.4 533.4,353.8 533.8,353.5 533.8,353.4 534,353.2 534.3,352.3
			534.7,351.8 534.8,351.6 534.9,351.2 534.9,350.9 534.8,350.1 534.8,349.8 535,349.3 537.8,343.6 538.1,343.1 538.5,342.7
			539.3,342 539.6,341.9 540.3,341.7 540.6,341.6 540.7,341.4 540.9,341.2 541,341.1 541.3,341 541.8,341 543.3,341.5 547.3,341.4
			547.8,341.5 548.2,341.8 549.4,343 550.1,344 550.4,344.5 550.8,344.8 552.8,345.7 556.1,346.6 556.8,346.6 558.1,347.2
			563.6,347.7 563.8,347.8 564.2,348.1 564.5,348.2 565.5,348.3 566,348.2 566.5,347.7 567.5,346.7 569,345.6 569.8,344.8
			570.1,344.6 571,344.6 571.7,344.4 572.2,344.1 572.8,343.7 573.2,343 573.5,342.5 573.6,342.2 573.9,342 574.6,341.6
			577.7,338.6 578.5,337.4 578.9,336.5 579,336 579.2,335.1 579.2,334.9 579.4,334.8 581.4,334 581.9,333.9 582.4,333.9
			584.9,334.9 585.4,335 588.2,334.6 591.3,334.6 593.3,334.2 595.8,333.5 596.2,333.3 596.6,333 597.7,331.7 600.9,328.9
			601.2,328.6 601.4,328.6 602.1,328.7 602.4,328.7 602.6,328.6 603.3,328.2 603.7,327.9 604.6,326.6 604.9,325.9 604.8,325.4
			604.5,324.9 604.3,324.2 604.4,323.7 606.5,319.4 609,316.9 609.2,316.5 609.3,316.2 609.6,315.5 610.2,315.1 610.8,314.9
			611.7,314.8 611.9,314.7 612.9,313.9 613.2,313.5 613.3,313.4 613.6,313.4 615.4,313.9 620.6,314.2 621.1,314.1 621.3,313.6
			621.4,312.1 621.6,311.5 622.1,310.7 622.2,310.4 622.2,310.1 621.9,309.4 623.1,309.2 623.4,309.3 623.5,309.3 623.7,309.3
			624.3,308.8 624.5,308.7 624.7,309 625.1,309.9 625.4,310.2 626.1,310.6 626.4,310.7 627.9,310.5 628.2,310.4 628.5,310.1
			628.9,309.2 629.1,308.9 629.5,308.7 629.8,308.5 630.6,308.3 631,308.2 632.2,307.3 632.5,307.2 633.3,307.2 633.5,307.1
			634,306.6 634.5,306.3 635,306.2 635.4,306.1 635.9,306.2 636.5,306.4 637.4,306.9 638,307 639.2,307 639.4,306.9 639.8,306.6
			640,306.5 640.6,306.7 641.1,307 641.7,307.2 642.2,306.9 642.7,305.8 643.1,305.4 643.5,305.2 643.9,305.4 644,305.7 644,306.1
			644.2,306.4 644.5,306.5 644.7,306.3 645.1,305.9 645.4,305.8 645.6,306.1 646,307 646.4,307.3 646.8,307.5 650.6,308.6
			651.2,308.5 652.6,308.2 653.3,308.2 654.4,308.4 654.8,308.4 655.1,308.5 655.6,308.9 656,309 656.2,308.9 656.5,308.8
			656.9,308.5 657.1,308.3 657.3,307.9 657.5,307.6 657.7,307.5 658,307.7 658.3,307.7 658.6,307.5 658.8,307.2 659.1,306.8
			659.2,306.6 659.3,306.5 659.3,306.3 659.3,306.1 		"/>
		<path fill="#C4272F" d="M264.4,223.2c1.1,0,2-0.9,2-2c0-1.1-0.3-1.6-0.6-2.2l-0.7-0.2l-2.1,0.1c-0.4,0.8-0.6,1.6-0.6,2.3
			C262.4,222.3,263.3,223.2,264.4,223.2z"/>
		<path fill="#C4272F" d="M339.6,191.9l-1.4,0.7l-0.9,1.5l-0.2,0.5l-0.4,0.8l-0.2,0.4l-0.1,0.6l0.1,1l-0.1,0.6l-0.1,0.4l-1.2-0.3
			l-0.4,0l-0.7,0.4l-0.2,0.1l-0.2,0.2l-0.3,0.5l-0.7,1.6l-0.2,0.3l-0.4,0.6l-0.2,0.3l-0.1,0.4l0,0.3l0.2,0.8l0.1,0.5l0,0.4l-0.4,1.1
			l-0.1,0.3l-0.1,0.8l-0.2,0.8l-0.9,2l0,0.7l0.4,0.7l0.5,0.6l0.7,0.5l0.2,0.3l0.1,0.3l0.2,0.3l0.5,0.4l0.1,0.3l-0.6,0.9l0,0.5
			l0.5,1.2l0.7,1.9l0.2,0.4l0.3,0.3l1.1,0.9l0.4,0.1l0.9,0.2l0.4,0.2l0.4,0.3l0.3,0.4l0.1,0.6v0l0,0.8l-0.5,1.4l-0.1,0.8l0.1,0.7
			l0,0.4l0,0.5l-0.1,0.4l-2.3,5.1l-0.9,0.9l-2.1,1.2l-0.5,0.4l-0.4,0.6l-0.3,0.2l-0.3-0.2l-0.5-0.6l-0.3-0.1l-0.3,0.1l-1.4,0.7
			l-1.1,0.3l0,0.2l0.1,0.3l0.1,0.4l-0.1,0.7l-0.5,0.6l-1,0.8l-1.2,0.9l-0.7,0.3l-0.6,0.2l-0.6,0l-0.8-0.2l-0.8-0.4l-0.4-0.6
			l-0.1-0.4l-0.3-0.2l-0.6-0.2L319,237l-0.5-1l-0.5-0.5l-4-0.6l-0.3,0.1l-0.8,0.8l-0.3,0.2l-0.3,0.1l-0.3-0.1l-0.2-0.4l-0.2-0.5
			l-0.2-0.3l-0.3-0.1l-0.4,0l-0.4,0.2l-0.7,0.5l-0.4,0.1l-0.4-0.1l-0.3-0.2l-0.6-0.7l-0.7-0.5l-2.2-1v0l0,0l-0.2-0.1l-0.2-0.1
			l-0.2,0l-0.2,0.1l-0.2,0.2l-0.2,0.2l-0.2,0.3l-0.2,0.3l-0.4,0.3l-0.4-0.1l-0.3-0.5l-0.2-0.6v0l-0.4-0.5l-0.6-0.1l-0.6,0.2
			l-0.4,0.4l-0.6,0.8l-0.6,0.3l-1.4,0.2l-0.3,0.2l-0.4,0.6l-0.3,0.3l-0.3,0.1l-0.3-0.1l-0.3-0.2l-0.2-0.3l-0.7-0.6l-0.7-0.2
			l-4.1,0.1l-0.7-0.4l-0.1-0.1l-0.3-0.5l-0.4-0.7l-0.4-0.4l-0.5-0.1l-2.6,0.1l-1.4,0.5l-0.4,0.1l-0.3-0.1l-0.2-0.2l-0.3-0.7
			l-0.2-0.3l-0.6-0.6l-0.2-0.3l-0.1-0.3l-0.1-0.3l-0.1-0.3l-0.2-0.2l-1.2-0.5l-0.3-0.4l-0.2-0.5l-0.1-0.6l-0.2-1.2l-0.1-2.4
			l-0.1-0.6l-0.6-1.5l0-0.8l-0.1-0.4l-0.2-0.3l-0.3-0.2l-8-0.3c0.6,0.8,1.1,1.9,1.1,3.7c0,1.4-0.3,2.7-0.8,3.8
			c8.6,3.6,14.7,12.1,14.7,22.1c0,3.4-0.7,6.7-2,9.6c0,0.1,0,0.3,0,0.4c0,12.1-9.8,21.9-21.9,21.9c-12.1,0-21.9-9.8-21.9-21.9
			c0-0.1,0-0.3,0-0.4c-1.3-2.9-2-6.2-2-9.6c0-10,6.1-18.5,14.7-22.1c-0.5-1.2-0.8-2.5-0.8-3.8c0-4,2.5-4.5,2.5-6
			c0-0.2,0-0.4-0.1-0.5l-0.7-1l-0.6-0.4L251,215l-0.5-0.4l-0.4-0.6l-0.3-0.9l-0.2-0.4l-0.4-0.1l-0.4,0.1l-0.3,0.2l-0.2,0.3l-0.1,0.4
			l0,0.4l0,0.4l-0.8,1.7l-1.3,0.7l-1.4,0.1l-2.4-0.5l-1.1,0.1l-1.1,0.4l-1,0.6l-0.4,0.4l-0.8,1.4l-0.4,0.4l-1.5,0.6l-0.4,0.4
			l-0.2,0.5l-0.1,0.5l-0.2,0.4l-0.5,0.1l-1.3-0.3l-0.6,0l-1.4,0.8l-0.5,0.2l-1.8,0l-0.6,0.3l-0.4,0.4l-1.1,1.4l-0.6,0.4l-1.2,0.3
			l-0.5,0.3l-0.1,0.3v0.7l-0.1,0.3l-0.2,0.3l-0.2,0.2l-0.3,0.1l-0.3,0.1l-0.7,0l-1.3-0.3l-0.7,0.1l-0.7,0.6l-0.3,0.1l-0.6,0.1
			l-0.3,0.1l-1.8,1.4l-0.6,0.3l-2,0.4l-0.5,0.3l-0.2,0.5l-0.1,0.6l0,0.7l-0.4,0.6l-0.7,0.4l-0.8,0.2l-2.2,0.1l-0.8,0.3l-0.6,0.6
			l0,0.2l-0.1,0.9l0,0.3l0.1,0.2l0.3,0.2l0.1,0.1l0,0.2l-0.2,0.3l0,0.2l0.2,0.3l0.7,0.3l0.3,0.2l0.2,0.4l-0.2,0.3l-0.3,0.3l-1,0.5
			l-1.4,0.5l-0.7,0.5l-0.5,0l-0.3,0.4l-0.3,0.6l-0.4,0.4l-0.5,0l-0.4-0.3l-0.9-0.8l-0.5-0.1l-0.4,0.3l-0.1,0.5l0.3,0.6l0.2,0.6
			l-0.3,0.5l-0.5,0.4l-2.2,1l-0.6,0.1l-0.2-0.1l-0.1-0.2l-0.1-0.3l-0.1-0.2l-0.2-0.3l-0.1-0.4l-0.2-0.3l-0.3-0.1l-0.3,0.1l-0.1,0.2
			l0,0.4l0,0.9l0.3,0.7l-0.1,0.1l-2.2-0.2l-0.4-0.1l-0.3-0.3l-0.4-0.5l-0.2-0.2l-0.3,0l0,0l-0.2,0.1l-0.6,0.4l-0.3,0.1l-0.9,0.1
			l-0.4,0l-0.7-0.2h-0.3l-2.7,0.5l-0.4,0.2l-0.2,0.3l-0.2,0.8l-0.2,0.3l-0.3,0.7l0.2,0.7l0.3,0.7l-0.1,0.6l-0.5,0.5l-1.2,0.7
			l-0.6,0.5l-0.3,0.4l-0.3,0.2l-1.5,0.2l-0.3,0l-0.3-0.1l0,0.3l0.2,0.7l0,0.5l-0.1,0.3l-0.1,0.3l-0.1,0.5l0.1,0.5l0.2,0.2l0.3,0.1
			l0.2,0.3v0.8L182,257l-1.2,0.6l-0.2,0.3v1l0.1,0.1l0.3,0.1l0.2,0.1l0.1,0.2l0.1,0.2l0,0.5l0.1,0.2l0.2,0.3l0.3,0.2l1,0.5l0.7-0.1
			l0.3,0.1l0.9,0.6l0.4,0.5l0.1,0.6l-0.1,0.2l-0.7,0.4l-0.1,0.2l-0.1,0.2l-0.1,0.2l-0.2,0.2l-0.5,0.4l0.1,0.5l0.5,0.5l0.5,0.3l0.2,0
			l0.3-0.1l0.2,0l0.1,0.1l0.2,0.3l0.4,0.2l0.5,0.4l0.3,0.1l0.3,0l0.5,0l0.3,0l1,0.5l0.4,0.3l0.8,1l0.5,0.3l0.3,0l0.3-0.1l0.3,0
			l0.4,0.2l0.9,1.1l0.1,0.4l-0.2,0.8l0,0.4l0.1,0.4l0.1,0.4l0.1,0.4l0.2,0.3l0.6,0.5l0.3,0.1l0.4,0l0.4,0.2l1,1l0.5,0.3l0.4,0
			l0.9-0.1l0.4,0.1l0.2,0.2l1.7,2.3h0v0l0.4,0.2l1.4,0l0.8,0.2l0.4-0.1l0.4-0.3l0.3-0.3l0.7-0.6l0.3-0.1l0.2,0l0.6,0.3l0.2,0l0.7,0
			l0.4-0.2l0.6,0l0.5,0.2l0.1,0.6l0,0.4l0.1,0.3l0.2,0.2l0.2,0.1l0.2,0.1l0.1,0.3l0.1,0.4l0.2,0.3l0.3,0.1l0.5,0.1l0.2,0.2l0.1,0.3
			l0.1,0.6l0.2,0.3l0.5,0.1l1.6-0.1l0.5-0.2l0.2-0.3l0-0.3l0-0.3l0.1-0.3l0.2-0.1l0.6,0.2l0.6,0l0.2,0.2l0.1,0.4L215,282l-0.1,0.4
			l0.1,0.5l0.2,0.4l0.2,0.3l0.5,0.6l0.7,0.4l0.7,0.3l0.4,0.1h18.8v55.8l0.3,0.4l0.2,0.1l0.1,0l0.1-0.1l0.2,0l1.5,0.4l0.3,0l0.6-0.2
			l0.3,0l0,0c-1.1-2.6-1.7-5.5-1.7-8.5c0-12.1,9.8-21.9,21.9-21.9s21.9,9.8,21.9,21.9c0,7-3.3,13.2-8.3,17.2l0.6,0.1l0.7,0l0.7-0.3
			l0.2,0l0.2,0.1l0.2,0.1l1.2,1.3l0.3,0.4l0.4,0.9l0.2,0.3l0.4,0.2l1,0l0.5,0.2l1.9,1.2l1,1l0.2,0.3l0.2,0.4l0.2,0.3l0.2,0.1V285
			h19.9v95.7h-1.2l4.7,4.7l0.4,0.5l0.2,0.4l0.1,0.5l0.2,2.5l0.1,0.3l0.3,0.1l1.4-0.2l10.7-1.1l18.9,2.5V191.7L339.6,191.9z
			 M280.4,309h-39.9v-8h39.9V309z M260.4,297l-19.9-12h39.9L260.4,297z"/>
		<path fill="#C4272F" d="M254.5,221.2c0,1.1,0.9,2,2,2c1.1,0,2-0.9,2-2c0-2-1.5-2.5-1.5-5.5c0-0.5,0.1-0.9,0.1-1.3l-0.4,0l-0.9,0.2
			l-0.5,0.4l-0.1,0.4l0,0c0.2,0.4,0.3,0.8,0.3,1.3C255.5,219.2,254.5,219.2,254.5,221.2z"/>
		<polygon fill="#015197" points="499.4,247.9 497.9,248.3 497.5,248.3 496,247.9 494.9,248.1 493.3,248 491.2,248.4 490.1,248.4
			489.2,247.7 487.1,245.9 486.2,244.8 486.1,244.5 486,244.2 485.8,243.9 485.6,243.7 485.2,243.5 484,243.3 483.7,243.2
			482.6,242.4 482.4,242.1 482.2,241.7 482.2,241.4 482.4,240.9 482.2,240.7 481.6,240.7 481.2,240.7 481,240.5 481,240.2
			481.4,239.4 481.4,239.1 481.5,238.8 481.4,237.9 481.1,236.9 481.1,236.4 481.2,236 481.3,235.7 481.4,235.3 481.5,234.7
			481.3,234.5 480.6,234.4 479.9,234.2 479.7,234.2 479.3,234.2 478.9,234.1 478.4,233.7 478.1,233.6 472.7,233.5 471.8,232.7
			471.4,232.8 471,233 470.6,233 470.1,232.8 469.7,232.5 468.9,231.8 468.7,231.6 468.3,231.4 468.1,231.2 468,231 467.8,230.4
			467.7,230.2 467.6,230 467.3,229.7 467.2,229.5 467,228.6 466.8,228.4 466.3,228.1 464.1,226.2 463.5,225.8 462.1,225.4
			460.5,225.2 458.9,225.3 456,226.2 455.7,226.2 455.3,226 454.7,225.5 454.4,225.4 453.2,225.2 453.1,225.1 453,224.9 453,224.7
			453,224.5 452.9,224.3 452.1,223.7 451.7,223.6 450.9,223.6 450.2,223.4 449.5,223.1 449.1,223 447,223.2 442.4,221.9 441.6,222
			441.1,222.3 439.4,223.7 439,223.9 438.6,224 438.2,224 436.5,223.8 436,223.9 435.7,224 434.8,224.6 434.3,224.8 433,224.8
			432.6,224.9 432,225.4 431.7,225.7 431.2,225.8 429.6,225.7 428.6,226 428.2,226.2 427.4,227.1 426.6,227.6 426.3,228.2
			425.5,229 424.4,229.5 423.2,229.7 422.2,229.5 420.3,228.7 419.4,228.6 417.6,229.9 416.6,229.8 415.6,229.4 414.8,228.7
			414.2,228.5 413.8,228.4 412.3,228.5 411.8,228.4 411.5,228 411.3,227.3 410.7,226.1 409.6,225.8 407.3,226.1 406.6,225.9
			406,225.6 404.2,224.2 402,223.7 401.5,223.3 400.5,221.2 399.8,220.7 398.4,220.5 397.7,220.3 397.3,219.8 397,219.2
			396.9,218.5 396.9,217.8 397.2,217.2 397.6,216.7 397.7,216.2 397.4,215.5 396.5,214.8 396,214.3 395.8,213.6 396,213
			396.3,212.3 396.4,211.7 396,211.1 396.2,210.8 396.3,210.4 396.2,210.1 396.1,209.8 395.7,209.1 395.3,208.2 395,207.3
			394.9,206.4 395,205.6 395,205.2 395,204.8 394.9,204.4 394.8,204.1 394.8,203.9 395.5,202.8 395.7,202.3 395.5,201.9 394.2,201
			393.9,200.7 393.6,200.5 392.4,200.4 392.2,200.3 391.6,199.8 391.4,199.7 390.2,199.8 389.8,199.7 389,199.1 388.7,198.9
			388.3,198.9 387.5,198.9 386.4,198.5 385.8,198.3 385.1,198.4 383.7,198.9 383.1,198.9 382.6,198.6 382.1,197.9 381.5,197.4
			380.9,197.2 380.3,197.2 379.7,197.1 379,196.5 372.6,193.2 371.5,192.8 370.7,192.3 366.2,192.3 364.5,192 363.1,192.2
			361.8,191.8 360.8,190.8 359.8,189.7 358.7,188.6 358.3,188.4 356.5,188.4 353,187.3 352.6,187.1 352.3,186.7 352,186.3
			351.6,185.9 351.1,185.6 348.5,184.7 348.1,184.3 347.8,183.8 347.6,183 347.1,182.6 346.5,182.6 346,183.2 345.9,183.6
			345.9,184.4 345.9,184.8 345.8,185.1 345.2,185.9 345.1,186.3 344.8,187.4 343.9,189.5 343.4,190.1 343,190.6 342.5,191
			340.2,191.7 340.2,390.9 355.2,392.9 362.6,390.7 363.3,390.7 381.2,393.6 384.1,393.3 385.7,393.5 387.4,393.9 388.9,395
			391.1,398.7 392.4,400.1 393.3,400.5 408.8,404.1 409.3,404.4 409.3,404.4 418,409 418.4,409.1 430,406.8 430,410.9 430.1,411.1
			431.5,411.3 435.9,411.3 436.2,411.4 436.5,411.7 437.1,412.5 437.7,412.3 440.5,409.3 440.7,409.2 441.6,409.1 442.3,408.7
			442.6,408.6 442.8,408.5 443.5,408 444.5,407.4 450.4,404.4 463.8,398.5 484.8,395.1 485.6,395.2 486.9,395.6 490.1,395.5
			494,396.3 494.4,396.2 495,396 496.4,395.3 496.9,395.2 499.8,395.6 499.8,248 		"/>
		<path fill="#F9CF02" d="M260.4,273.1c-9.8,0-18.2-5.9-21.9-14.3c0,0.1,0,0.3,0,0.4c0,12.1,9.8,21.9,21.9,21.9
			c12.1,0,21.9-9.8,21.9-21.9c0-0.1,0-0.3,0-0.4C278.7,267.2,270.3,273.1,260.4,273.1z"/>
		<path fill="#C4272F" d="M260.4,233.2c-4.1,0-7.7-2.5-9.2-6.1c-8.6,3.6-14.7,12.1-14.7,22.1c0,3.4,0.7,6.7,2,9.6
			c3.7,8.4,12.1,14.3,21.9,14.3c9.8,0,18.2-5.9,21.9-14.3c1.3-2.9,2-6.2,2-9.6c0-10-6.1-18.5-14.7-22.1
			C268.1,230.6,264.6,233.2,260.4,233.2z M260.4,269.1c-8.8,0-16-7.1-16-16c0-8.8,7.1-16,16-16c8.8,0,16,7.1,16,16
			C276.4,261.9,269.3,269.1,260.4,269.1z"/>
		<circle fill="#F9CF02" cx="260.4" cy="253.1" r="16"/>
		<path fill="#F9CF02" d="M250.5,223.2c0,1.4,0.3,2.7,0.8,3.8c1.5,3.6,5.1,6.1,9.2,6.1c4.1,0,7.7-2.5,9.2-6.1
			c0.5-1.2,0.8-2.5,0.8-3.8c0-1.9-0.5-3-1.1-3.7l-2.5-0.1l-1-0.3c0.3,0.6,0.6,1.1,0.6,2.2c0,1.1-0.9,2-2,2c-1.1,0-2-0.9-2-2
			c0-0.8,0.3-1.5,0.6-2.3l-1.4,0.1l-0.7,0l-0.5,0l-0.9-0.3l-0.3-0.1l-0.2-0.2l-0.1-0.3l-0.2-0.5l-0.3-0.9l0-1.1l-0.2-0.8l-0.6-0.3
			l-0.6,0c-0.1,0.4-0.1,0.8-0.1,1.3c0,3,1.5,3.5,1.5,5.5c0,1.1-0.9,2-2,2c-1.1,0-2-0.9-2-2c0-2,1-2,1-4.5c0-0.5-0.1-1-0.3-1.3
			l-0.1,0.8l-0.2,0.4l-0.3,0.3l-0.3,0.2l-0.4,0.1l-0.3,0l-0.6-0.3l-0.2-0.3c0,0.2,0.1,0.4,0.1,0.5
			C253,218.7,250.5,219.2,250.5,223.2z"/>
		<polygon fill="#F9CF02" points="217.8,285 218.7,285.3 219,285.5 219.3,285.7 219.4,286 219.2,286.2 219.1,286.5 219.2,287
			219.5,287.3 219.9,288.4 220.1,288.7 220.6,289.1 220.8,289.4 220.8,290 220.8,290.7 220.9,291.3 221.3,291.6 221.5,291.9
			221.5,292.3 221.4,292.6 221.3,292.9 221.2,293.1 221.2,293.2 221.2,293.4 224.8,299.8 225.3,300.3 225.8,300.4 226.2,300.4
			226.5,300.5 226.9,300.7 227.2,301 227.4,301.4 227.5,301.7 227.6,302.1 227.8,302.5 227.9,302.6 228,302.7 228.1,302.9
			228.2,303.1 228.1,303.3 227.9,303.6 227.9,303.8 228,304.2 228.2,304.5 228.7,305.1 229.2,305.8 229.3,306.6 229.3,307.5
			229.1,308.4 229,308.9 229.3,309.1 229.6,309.3 229.8,309.5 229.8,309.9 229.6,310.4 229.3,311.1 229.1,311.5 228.9,312.4
			228.7,312.8 228.1,314.3 227.7,314.9 227.5,315.2 227.6,315.7 228.3,318.1 228.7,318.7 229,319.3 229.2,320.3 229.1,321.2
			228.9,321.9 228.7,322 227.9,322.8 224.8,327 224.6,327.5 223.9,332.5 224.2,332.9 225.2,333.6 225.4,334 225.6,334.6
			225.8,335.2 226,335.8 226,336.5 226.1,336.7 226.7,337 226.9,337.2 227.1,337.5 227.1,337.8 227,338 227,338.4 227.2,339
			227.7,339 228.7,338.4 229.3,338.3 229.9,338.3 230.6,338.4 231.1,338.7 231.3,338.9 231.6,339.4 231.8,339.6 232.8,340.1
			234.3,340.5 234.5,340.5 234.8,340.3 235,340 235.3,339.8 235.6,339.8 235.9,340 236.5,340.8 236.5,285 		"/>
		<polygon fill="#F9CF02" points="304.3,285 284.4,285 284.4,356.7 284.5,356.7 287.2,357.6 288.5,358.3 289.2,358.4 294.3,357.7
			294.5,357.9 294.4,358.3 294,358.9 293.8,359.2 293.7,359.8 293.5,360.2 293.4,360.4 293.4,360.6 293.5,361.6 293.4,362.8
			293.4,363.3 293.5,363.5 294.9,363.9 295.7,363.9 296.2,364.1 296.6,364.5 297.4,366.4 298.9,371.3 301,375.8 301.2,376.5
			301.2,377.5 301.4,378.3 301.6,379.1 302.1,379.8 303.2,380.8 304.3,380.8 		"/>
		<rect x="240.5" y="301" fill="#F9CF02" width="39.9" height="8"/>
		<polygon fill="#F9CF02" points="260.4,297 280.4,285 240.5,285 		"/>
		<path fill="#F9CF02" d="M280.8,332.9c0-8.5-5.3-15.9-12.7-18.9c2.2,2.1,3.7,5,3.7,8.3c0,6.2-5.1,11.3-11.3,11.3
			c-5.2,0-9.5,4.1-9.8,9.2l0.2,0.1l0.2,0l1.4-0.3l1-0.1l1.7-0.5l0.7,0.1l0.2,0l0.5-0.1l0.1,0c0.6-1.5,2-2.6,3.7-2.6c2.2,0,4,1.8,4,4
			l0.4,0.3l0.3,0.1l1.6,0.1l2.4,1.3l0.4,0.3l2.4,3.4l0.5,0.5C277.5,345.7,280.8,339.7,280.8,332.9z"/>
		<path fill="#F9CF02" d="M260.4,332.2c5.4,0,9.8-4.4,9.8-9.8c0-5.1-3.9-9.3-8.8-9.8c-0.3,0-0.7-0.1-1-0.1
			c-11.2,0-20.4,9.1-20.4,20.4c0,3.1,0.7,5.9,1.9,8.5l0.8,0l0.8-0.2l0.5-0.1l0.5,0l0.5,0.1l0.5,0.2l1.3,0.9l0.4,0.1l0.7-0.2h0.3
			l0.7,0.2l0.2,0l0,0C249.6,336.8,254.5,332.2,260.4,332.2z M260.4,318.3c2.2,0,4,1.8,4,4c0,2.2-1.8,4-4,4c-2.2,0-4-1.8-4-4
			C256.5,320.1,258.2,318.3,260.4,318.3z"/>
		<path fill="#C4272F" d="M282.3,332.9c0-12.1-9.8-21.9-21.9-21.9c3,0,5.6,1.1,7.7,3c7.5,3,12.7,10.4,12.7,18.9
			c0,6.8-3.3,12.8-8.5,16.5l0.3,0.3l0.7,0.3l0.6,0.1C279.1,346.1,282.3,339.9,282.3,332.9z"/>
		<path fill="#C4272F" d="M260.4,312.5V311c-12.1,0-21.9,9.8-21.9,21.9c0,3,0.6,5.8,1.7,8.5l1.7,0.1c-1.2-2.6-1.9-5.5-1.9-8.5
			C240.1,321.7,249.2,312.5,260.4,312.5z"/>
		<path fill="#C4272F" d="M260.4,312.5c0.3,0,0.7,0,1,0.1C261.1,312.5,260.8,312.5,260.4,312.5z"/>
		<path fill="#C4272F" d="M260.4,333.7c6.2,0,11.3-5.1,11.3-11.3c0-3.3-1.4-6.2-3.7-8.3c-2-1.9-4.7-3-7.7-3v1.5c0.3,0,0.7,0,1,0.1
			c4.9,0.5,8.8,4.7,8.8,9.8c0,5.4-4.4,9.8-9.8,9.8c-6,0-10.9,4.7-11.3,10.6l0.7-0.1l0.3,0l0.5,0.2
			C251,337.7,255.2,333.7,260.4,333.7z"/>
		<circle fill="#C4272F" cx="260.4" cy="322.3" r="4"/>
		<path fill="#C4272F" d="M260.4,339.5c-1.7,0-3.1,1.1-3.7,2.6l0.1,0l0.8,0.5l0.4,0.2l0.4,0l0.3-0.1l0.3,0l0.3,0l0.3,0.1l1.3-0.1
			l0.4,0.1l1.2,0.5l0.4,0l0.7-0.1l0.4,0l0.3,0.1l0.2,0.1C264.4,341.3,262.6,339.5,260.4,339.5z"/>
	</g>
	<path vector-effect="none" fill="none" stroke="#999999" stroke-width="0.25" stroke-linecap="round" stroke-linejoin="round" d="
		M611.4,237l-3.1,7l-0.2,0.5l-6.2,14.1l-0.1,0.4l0.2,0.8l0,0.4l-0.3,0.7l-3.4,5.3l-0.1,0.4l-0.1,0.5v0.4l0.3,4.4l-0.1,0.7l-0.4,0.4
		l-3.5,1.7l-0.3,0.4v0.2l0.5,2.9l0.2,1.3l0.2,0.5l0.4,0.5l3.8,4l0.9,0.5l0.9-0.6l1.7-2.2l1.4-0.9l0.9-0.3l2.8,0.6l1,0l3.8-0.8l1,0
		l0.5,0.1l1.8,0.8l1.1,0.4l0.3,0.2l3.7,3.4l0.7,0.1l0.6-0.8l0.5-1l0.5-0.6l0.8-0.6l3.2-4.2l0.4-0.3l0.7-0.3l2.3,0.2l0.4,0l1-0.4
		l0.9-0.2l0.9,0l0.4,0.1l0.7,0.5l0.4,0.1l2.9,0.2l1,0.5l0.9,1.1l1.6,2.7l0.8,0.8l3.1,1.3l1.3,0.5l0.4,0.3l0.2,0.3l0.1,0.4l0.2,1.6
		l0.1,0.4l0.2,0.3l0.4,0.2l1.4,0.5l0.6,0.2l0.3,0.2l0.1,0.3l-0.1,0.2l-0.4,0.5l-0.1,0.3l0.6,0.2l2.3,2.1l0.2,0.3l0.2,0.4l0.1,0.4
		l0.2,0.3l0.9,0.3l0.6,0.5l1,1.2l0.4,0.7l0.4,0.7l0.1,0.4l0,1.3l0,0.3l0,0.1l0,0.1l0.2,0.3l0.5,0.5l0.2,0.3l0.1,0.2l0,0.2l0.1,0.2
		l0.1,0.2l0.2,0l0.2,0l0.2,0.1l0.1,0.1l-0.1,0.2l-0.1,0.2l-0.1,0.2v0.3l0,0.1l0.1,0.1l0.1,0.1l0.1,0l0.1,0.1l0,0.1l0,0.1l0,0.1
		l0,0.5l-0.2,0.7l0,0.4l0.1,0.2l0.2,0.4l0.1,0.2l0,0.2l-0.1,0.2l-0.1,0.1l-0.3,0.5l-0.3,0.3l-0.3,0.2l-0.3,0l-0.3-0.2l-0.2,0.1
		l-0.2,0.3l-0.2,0.4l-0.2,0.2l-0.3,0.2l-0.3,0.2L656,309l-0.3-0.1l-0.5-0.4l-0.3-0.1l-0.4,0l-1.1-0.2l-0.7,0l-1.3,0.3l-0.7,0
		l-3.8-1.1l-0.4-0.2L646,307l-0.4-0.9l-0.3-0.3l-0.3,0.1l-0.4,0.5l-0.2,0.1l-0.2-0.1l-0.2-0.3l-0.1-0.4l-0.1-0.3l-0.3-0.2l-0.5,0.2
		l-0.4,0.4l-0.6,1l-0.5,0.3l-0.5-0.1l-0.6-0.3l-0.6-0.2l-0.2,0.1l-0.4,0.3l-0.2,0.1l-1.2,0l-0.6-0.1l-0.9-0.5l-0.5-0.2l-0.5-0.1
		l-0.5,0l-0.5,0.2l-0.5,0.3l-0.6,0.5l-0.2,0.1l-0.8,0l-0.3,0.1l-1.2,0.9l-0.5,0.1l-0.7,0.2l-0.3,0.2l-0.3,0.2l-0.3,0.3l-0.4,0.8
		l-0.2,0.3l-0.3,0.2l-1.5,0.2l-0.3-0.1l-0.7-0.4l-0.3-0.3l-0.4-0.9l-0.2-0.3l-0.2,0l-0.7,0.5l-0.1,0l-0.1,0l-0.3-0.1l-1.2,0.3
		l0.2,0.7l0,0.3l-0.1,0.3l-0.5,0.8l-0.2,0.6l-0.1,1.5l-0.2,0.5l-0.5,0.2l-5.1-0.3l-1.9-0.4l-0.3,0l-0.2,0.1l-0.3,0.4l-0.9,0.8
		l-0.2,0.1l-0.9,0.1l-0.6,0.2l-0.5,0.4l-0.3,0.7l-0.1,0.4l-0.2,0.3l-2.5,2.6l-2.1,4.2l-0.1,0.6l0.2,0.7l0.3,0.5l0.1,0.5l-0.3,0.7
		l-0.9,1.3l-0.4,0.3l-0.7,0.4l-0.2,0.1h-0.2l-0.8-0.1l-0.1,0.1l-0.3,0.3l-3.2,2.7l-1.1,1.3l-0.4,0.3l-0.4,0.2l-2.4,0.7l-2,0.4
		l-3.1,0l-2.8,0.4l-0.5-0.1l-2.5-1l-0.5,0l-0.5,0.1l-2,0.8l-0.1,0.1l-0.1,0.2l-0.1,1l-0.1,0.5l-0.4,0.9l-0.8,1.2l-3.1,2.9l-0.7,0.5
		l-0.2,0.2l-0.1,0.2l-0.3,0.5l-0.5,0.7l-0.5,0.4l-0.6,0.3l-0.7,0.2l-0.9,0.1l-0.4,0.2l-0.8,0.8l-1.5,1.1l-0.9,1l-0.6,0.5l-0.5,0.1
		l-1.1-0.1l-0.2-0.1l-0.4-0.3l-0.2-0.1l-5.5-0.5l-1.3-0.6l-0.7,0l-3.3-0.9l-2-0.9l-0.4-0.3l-0.3-0.4l-0.6-1l-1.2-1.2l-0.4-0.3
		l-0.5-0.1l-4,0.1l-1.4-0.4l-0.6,0l-0.2,0.1l-0.2,0.1l-0.1,0.2l-0.2,0.2l-0.3,0.1l-0.6,0.2l-0.3,0.1l-0.9,0.6l-0.4,0.4l-0.3,0.5
		l-2.8,5.7l-0.2,0.5l0,0.3l0.1,0.7l0,0.3l-0.1,0.4l-0.1,0.3l-0.3,0.5l-0.4,0.8l-0.2,0.2l0,0l-0.4,0.4l-0.3,0.6l-0.3,0.7l-0.1,0.6
		l0,0.8l0.2,0.4l0.9,0.6l0.3,0.3l0.1,0.4l0.1,0.8l0.2,0.8l0.4,0.7l1.4,1.9l0.5,0.5l1.7,1.1l0.5,0.5l0.4,0.5l1.4,2.5l0.2,0.7l0.1,0.6
		l0,0.7l-0.2,0.6l-0.3,0.2l-0.3,0l-0.7,0.3l-1.1,0l-0.3,0.1l-2.3,2.9l-0.4,0.4l-0.5,0.2l-1.6,0.1l-0.4,0.2l-0.9,0.8l-3.6,1.5l-1.8,1
		l-0.6,0.6l-2,2.8l-1.7,1.9l-0.2,0.4l-0.4,1l-0.5,0.9l-0.6,0.7l-1.4,1.1l-0.4,0.4l-0.4,1.1l-0.3,0.3l-4,1.7l-0.5,0.3l-0.2,0.2
		l-0.1,0.2l-0.1,0.1l-0.2,0.1l-0.3,0l-0.8,0l-1.1,0.2l-3.7,1.6l-2.2,1.6l-0.1,0h-0.1l-0.1,0l-0.1,0.2l-0.1,0.1l-0.1,0l-2.3,0.2
		l-0.7,0.2l-0.4,0.1l-3.9-0.5l-0.5,0L495,396l-0.5,0.2l-0.5,0l-3.9-0.7l-3.2,0.1l-1.3-0.4l-0.9-0.1l-21,3.4l-13.4,5.9l-5.9,3.1
		l-1.1,0.6l-0.7,0.5l-0.2,0.1l-0.3,0.1l-0.8,0.4l-0.8,0.1l-0.3,0.1l-2.8,2.9l-0.6,0.2l-0.6-0.7l-0.3-0.3l-0.3-0.1l-4.3,0l-1.4-0.2
		l-0.1-0.2l0-4.1l-11.6,2.3L418,409l-8.7-4.7h0l0,0l-0.5-0.2l-15.5-3.6l-0.9-0.5l-1.3-1.4l-2.3-3.7l-1.5-1.1l-1.7-0.4l-1.7-0.1
		l-2.9,0.3l-17.9-2.9h-0.7l-7.4,2.3l-33.9-4.5l-10.7,1.1l-1.4,0.2l-0.3-0.1l-0.1-0.3l-0.2-2.5l-0.1-0.5l-0.2-0.4l-0.4-0.5l-5.7-5.7
		l-0.5-0.7l-0.3-0.8l-0.1-0.9l-0.1-0.9l-0.1-0.7l-2.1-4.5l-1.5-4.9l-0.8-1.8l-0.4-0.4l-0.5-0.2l-0.8,0l-1.4-0.4l-0.1-0.2v-0.5
		l0.1-1.2l-0.1-1l0-0.2l0.1-0.2l0.2-0.4l0.1-0.6l0.2-0.4l0.4-0.6l0.1-0.4l-0.3-0.1l-5.1,0.7l-0.6-0.1l-1.3-0.7l-2.7-0.9l-0.3-0.2
		l-0.2-0.3l-0.2-0.4l-0.2-0.3l-1-1l-1.9-1.2l-0.5-0.2l-1,0l-0.4-0.2l-0.2-0.3l-0.4-0.9l-0.3-0.4l-1.2-1.3l-0.2-0.1l-0.2-0.1l-0.2,0
		l-0.7,0.3l-0.7,0l-1.2-0.2l-0.7-0.3l-0.8-0.9l-2.4-3.4l-0.4-0.3l-2.4-1.3l-1.6-0.1l-0.3-0.1l-0.6-0.4l-0.3-0.1l-0.4,0l-0.7,0.1
		l-0.4,0l-1.2-0.5l-0.4-0.1l-1.3,0.1l-0.3-0.1l-0.3,0l-0.3,0l-0.3,0.1l-0.4,0l-0.4-0.2l-0.8-0.5l-0.2,0l-0.5,0.1l-0.2,0l-0.7-0.1
		l-1.7,0.5l-1,0.1l-1.4,0.3l-0.2,0l-0.7-0.3l-0.3,0l-0.7,0.1l-0.2,0l-0.7-0.2H248l-0.7,0.2l-0.4-0.1l-1.3-0.9l-0.5-0.2l-0.5-0.1
		l-0.5,0l-0.5,0.1l-0.8,0.2l-2.6-0.1l-0.3,0l-0.6,0.2l-0.3,0l-1.5-0.4l-0.2,0l-0.1,0.1l-0.1,0l-0.2-0.1l-1-1.3l-0.3-0.2l-0.3,0
		L235,340l-0.2,0.3l-0.3,0.2l-0.3,0l-1.4-0.3l-1-0.5l-0.2-0.2l-0.3-0.5l-0.2-0.2l-0.5-0.3l-0.7-0.1l-0.7,0l-0.5,0.1l-1,0.6l-0.5,0
		l-0.2-0.6l0-0.3l0.1-0.2l0-0.2l-0.2-0.4l-0.3-0.2l-0.6-0.3l-0.1-0.2l0-0.7l-0.2-0.6l-0.2-0.6l-0.1-0.6l-0.2-0.4l-1-0.7l-0.3-0.4
		l0.7-5l0.2-0.5l3.1-4.2l0.8-0.8l0.2-0.1l0.2-0.6l0-1l-0.1-1l-0.3-0.6l-0.4-0.6l-0.7-2.4l0-0.4l0.2-0.3l0.4-0.6l0.6-1.6l0.2-0.4
		l0.2-0.9l0.2-0.4l0.3-0.8l0.1-0.5l0-0.3l-0.2-0.3l-0.3-0.1l-0.2-0.2l0-0.6l0.2-0.9l0.1-0.9l-0.2-0.8l-0.4-0.7l-0.5-0.5l-0.2-0.3
		l-0.1-0.4l0-0.2l0.2-0.3l0-0.2l-0.1-0.2l-0.1-0.1l-0.1-0.1l-0.1-0.2l-0.1-0.4l-0.1-0.4l-0.1-0.4l-0.2-0.3l-0.3-0.3l-0.3-0.2
		l-0.3-0.1l-0.4,0l-0.6-0.1l-0.5-0.5l-3.6-6.4l0-0.2l0-0.2l0.1-0.1l0.2-0.3l0.1-0.4l0-0.4l-0.2-0.3l-0.4-0.3l-0.1-0.6l0-0.7l0-0.7
		l-0.2-0.3l-0.5-0.4l-0.2-0.3l-0.4-1.1l-0.2-0.3l-0.2-0.4l0.2-0.3l0.2-0.2l-0.1-0.2l-0.3-0.3l-0.3-0.2l-1.4-0.4l-0.7-0.3l-0.7-0.4
		l-0.5-0.6l-0.2-0.3l-0.2-0.4l-0.1-0.5l0.1-0.4l0.1-0.5l-0.1-0.4l-0.2-0.2l-0.6,0l-0.6-0.2l-0.2,0.1l-0.1,0.3l0,0.3l0,0.3l-0.2,0.3
		l-0.5,0.2l-1.6,0.1l-0.5-0.1l-0.2-0.3l-0.1-0.6l-0.1-0.3l-0.2-0.2l-0.5-0.1l-0.3-0.1l-0.2-0.3l-0.1-0.4l-0.1-0.3l-0.2-0.1l-0.2-0.1
		L208,279l-0.1-0.3l0-0.4l-0.1-0.6l-0.5-0.2l-0.6,0l-0.4,0.2l-0.7,0l-0.2,0l-0.6-0.3l-0.2,0l-0.3,0.1l-0.7,0.6l-0.3,0.3l-0.4,0.3
		l-0.4,0.1l-0.8-0.2l-1.4,0l-0.4-0.2v0h0l-1.7-2.3l-0.2-0.2l-0.4-0.1l-0.9,0.1l-0.4,0l-0.5-0.3l-1-1l-0.4-0.2l-0.4,0l-0.3-0.1
		l-0.6-0.5l-0.2-0.3l-0.1-0.4l-0.1-0.4l-0.1-0.4l0-0.4l0.2-0.8l-0.1-0.4l-0.9-1.1l-0.4-0.2l-0.3,0l-0.3,0.1l-0.3,0l-0.5-0.3l-0.8-1
		l-0.4-0.3l-1-0.5l-0.3,0l-0.5,0l-0.3,0l-0.3-0.1l-0.5-0.4l-0.4-0.2l-0.2-0.3l-0.1-0.1l-0.2,0l-0.3,0.1l-0.2,0l-0.5-0.3l-0.5-0.5
		l-0.1-0.5l0.5-0.4l0.2-0.2l0.1-0.2l0.1-0.2l0.1-0.2l0.7-0.4l0.1-0.2l-0.1-0.6l-0.4-0.5l-0.9-0.6l-0.3-0.1l-0.7,0.1l-1-0.5l-0.3-0.2
		l-0.2-0.3l-0.1-0.2l0-0.5l-0.1-0.2l-0.1-0.2l-0.2-0.1l-0.3-0.1l-0.3-0.3l0-0.4l0.1-0.4l0.2-0.3l1.2-0.6l0.5-0.5v-0.8l-0.2-0.3
		l-0.3-0.1l-0.2-0.2l-0.1-0.5l0.1-0.5l0.1-0.3l0.1-0.3l0-0.5l-0.2-0.7l0-0.3l0.3,0.1l0.3,0l1.5-0.2l0.3-0.2l0.3-0.4l0.6-0.5l1.2-0.7
		l0.5-0.5l0.1-0.6l-0.3-0.7l-0.2-0.7l0.3-0.7l0.2-0.3l0.2-0.8l0.2-0.3l0.4-0.2l2.7-0.5h0.3l0.7,0.2l0.4,0l0.9-0.1l0.3-0.1l0.6-0.4
		l0.2-0.1l0,0l0.3,0l0.2,0.2l0.4,0.5l0.3,0.3l0.4,0.1l2.2,0.2l0.1-0.1l-0.3-0.7l0-0.9l0-0.4l0.1-0.2l0.3-0.1l0.3,0.1l0.2,0.3
		l0.1,0.4l0.2,0.3l0.1,0.2l0.1,0.3l0.1,0.2l0.2,0.1l0.6-0.1l2.2-1l0.5-0.4l0.3-0.5l-0.2-0.6l-0.3-0.6l0.1-0.5l0.4-0.3l0.5,0.1
		l0.9,0.8l0.4,0.3l0.5,0l0.4-0.4l0.3-0.6l0.3-0.4l0.5,0l0.7-0.5l1.4-0.5l1-0.5l0.3-0.3l0.2-0.3l-0.2-0.4l-0.3-0.2l-0.7-0.3l-0.2-0.3
		l0-0.2l0.2-0.3l0-0.2l-0.1-0.1l-0.3-0.2l-0.1-0.2l0-0.3l0.1-0.9l0-0.2l0.6-0.6l0.8-0.3l2.2-0.1l0.8-0.2l0.7-0.4l0.4-0.6l0-0.7
		l0.1-0.6l0.2-0.5l0.5-0.3l2-0.4l0.6-0.3l1.8-1.4l0.3-0.1l0.6-0.1l0.3-0.1l0.7-0.6l0.7-0.1l1.3,0.3l0.7,0l0.3-0.1l0.3-0.1l0.2-0.2
		l0.2-0.3l0.1-0.3v-0.7l0.1-0.3l0.5-0.3l1.2-0.3l0.6-0.4l1.1-1.4l0.4-0.4l0.6-0.3l1.8,0l0.5-0.2l1.4-0.8l0.6,0l1.3,0.3l0.5-0.1
		l0.2-0.4l0.1-0.5l0.2-0.5l0.4-0.4l1.5-0.6l0.4-0.4l0.8-1.4l0.4-0.4l1-0.6l1.1-0.4l1.1-0.1l2.4,0.5l1.4-0.1l1.3-0.7l0.8-1.7l0-0.4
		l0-0.4l0.1-0.4l0.2-0.3l0.3-0.2l0.4-0.1l0.4,0.1l0.2,0.4l0.3,0.9l0.4,0.6l0.5,0.4l0.6,0.2l0.6,0.4l0.9,1.3l0.6,0.3l0.3,0l0.4-0.1
		l0.3-0.2l0.3-0.3l0.2-0.4l0.1-0.8l0.1-0.4l0.5-0.4l0.9-0.2l0.9,0.1l0.6,0.3l0.2,0.8l0,1.1l0.3,0.9l0.2,0.5l0.1,0.3l0.2,0.2l0.3,0.1
		l0.9,0.3l0.5,0l0.7,0l3.5-0.2l1.7,0.6l10.4,0.5l0.3,0.2l0.2,0.3l0.1,0.4l0,0.8l0.6,1.5l0.1,0.6l0.1,2.4l0.2,1.2l0.1,0.6l0.2,0.5
		l0.3,0.4l1.2,0.5l0.2,0.2l0.1,0.3l0.1,0.3l0.1,0.3l0.2,0.3l0.6,0.6l0.2,0.3l0.3,0.7l0.2,0.2l0.3,0.1l0.4-0.1l1.4-0.5l2.6-0.1
		l0.5,0.1l0.4,0.4l0.4,0.7l0.3,0.5l0.1,0.1l0.7,0.4l4.1-0.1l0.7,0.2l0.7,0.6l0.2,0.3l0.3,0.2l0.3,0.1l0.3-0.1l0.3-0.3l0.4-0.6
		l0.3-0.2l1.4-0.2l0.6-0.3l0.6-0.8l0.4-0.4l0.6-0.2l0.6,0.1l0.4,0.5v0l0.2,0.6l0.3,0.5l0.4,0.1l0.4-0.3l0.2-0.3l0.2-0.3l0.2-0.2
		l0.2-0.2l0.2-0.1l0.2,0l0.2,0.1l0.2,0.1l0,0l0,0v0l2.2,1l0.7,0.5l0.6,0.7l0.3,0.2l0.4,0.1l0.4-0.1l0.7-0.5l0.4-0.2l0.4,0l0.3,0.1
		l0.2,0.3l0.2,0.5l0.2,0.4l0.3,0.1l0.3-0.1l0.3-0.2l0.8-0.8l0.3-0.1l4,0.6l0.5,0.5l0.5,1l0.2,0.2l0.6,0.2l0.3,0.2l0.1,0.4l0.4,0.6
		l0.8,0.4l0.8,0.2l0.6,0l0.6-0.2l0.7-0.3l1.2-0.9l1-0.8l0.5-0.6l0.1-0.7l-0.1-0.4l-0.1-0.3l0-0.2l1.1-0.3l1.4-0.7l0.3-0.1l0.3,0.1
		l0.5,0.6l0.3,0.2l0.3-0.2l0.4-0.6l0.5-0.4l2.1-1.2l0.9-0.9l2.3-5.1l0.1-0.4l0-0.5l0-0.4l-0.1-0.7l0.1-0.8l0.5-1.4l0-0.8l0,0v0
		l-0.1-0.6l-0.3-0.4l-0.4-0.3l-0.4-0.2l-0.9-0.2l-0.4-0.1l-1.1-0.9l-0.3-0.3l-0.2-0.4l-0.7-1.9l-0.5-1.2l0-0.5l0.6-0.9l-0.1-0.3
		l-0.5-0.4l-0.2-0.3l-0.1-0.3l-0.2-0.3l-0.7-0.5l-0.5-0.6l-0.4-0.7l0-0.7l0.9-2l0.2-0.8l0.1-0.8l0.1-0.3l0.4-1.1l0-0.4l-0.1-0.5
		l-0.2-0.8l0-0.3l0.1-0.4l0.2-0.3l0.4-0.6l0.2-0.3l0.7-1.6l0.3-0.5l0.2-0.2l0.2-0.1l0.7-0.4l0.4,0l1.2,0.3l0.1-0.4l0.1-0.6l-0.1-1
		l0.1-0.6l0.2-0.4l0.4-0.8l0.2-0.5l0.9-1.5l1.4-0.7l2.9-0.8l0.5-0.4l0.5-0.5l0.4-0.6l1-2l0.2-1.1l0.1-0.4l0.6-0.8l0.1-0.3l0-0.4
		l0-0.8l0.1-0.4l0.5-0.5l0.6,0l0.5,0.4l0.2,0.8l0.3,0.5l0.5,0.3l2.6,0.9l0.5,0.3l0.3,0.4l0.3,0.4l0.3,0.4l0.4,0.2l3.5,1l1.8,0.1
		l0.5,0.2l1.1,1l1,1.2l1,1l1.3,0.4l1.4-0.2l1.7,0.3l4.5,0l0.9,0.5l1,0.3l6.4,3.3l0.7,0.6l0.6,0.2l0.6,0l0.6,0.1l0.6,0.5l0.5,0.7
		l0.5,0.3h0.6l1.4-0.5l0.7-0.1l0.6,0.1l1.1,0.5l0.8-0.1l0.4,0l0.3,0.1l0.8,0.6l0.4,0.1l1.2-0.1l0.3,0.1l0.5,0.5l0.3,0.2l1.1,0.1
		l0.4,0.2l0.2,0.2l1.4,1l0.1,0.4l-0.2,0.5l-0.7,1.1l0,0.2l0.1,0.2l0.1,0.4l0,0.4l0,0.4l-0.1,0.8l0.1,0.9l0.3,0.9l0.4,0.9l0.4,0.7
		l0.2,0.3l0,0.3l-0.1,0.3l-0.2,0.3l0.4,0.6l-0.1,0.6L396,213l-0.1,0.6l0.2,0.7l0.4,0.5l0.9,0.7l0.3,0.7l-0.1,0.5l-0.4,0.5l-0.3,0.6
		l-0.1,0.7l0.2,0.7l0.3,0.6l0.4,0.4l0.7,0.3l1.5,0.2l0.6,0.5l1.1,2.1l0.5,0.4l2.2,0.6l1.9,1.4l0.6,0.3l0.7,0.2l2.3-0.3l1.1,0.3
		l0.6,1.2l0.2,0.7l0.4,0.4l0.4,0.2l1.5-0.2l0.5,0.1l0.5,0.2l0.9,0.7l1,0.5l1,0.1l1.7-1.3l0.9,0l1.9,0.8l1,0.2l1.2-0.2l1.1-0.5
		l0.7-0.8l0.3-0.5l0.8-0.6l0.8-0.8l0.4-0.3l1-0.3l1.5,0.1l0.5-0.1l0.3-0.2l0.6-0.6l0.4-0.1l1.4,0l0.4-0.1l0.9-0.6l0.3-0.1l0.5-0.1
		l1.7,0.2l0.4,0l0.4-0.1l0.4-0.2l1.6-1.4l0.6-0.3l0.7-0.1l4.6,1.3l2.1-0.2l0.4,0.1l0.7,0.3l0.7,0.2l0.8,0l0.4,0.1l0.8,0.7l0.1,0.2
		v0.2l0,0.2l0.1,0.2l0.1,0.1l1.2,0.1l0.4,0.2l0.6,0.5l0.3,0.2l0.3,0l2.9-0.9l1.6-0.2l1.6,0.2l1.3,0.5l0.6,0.4l2.2,1.9l0.6,0.3
		l0.1,0.2l0.2,0.9l0.1,0.2l0.3,0.3l0.1,0.2l0.1,0.2l0.1,0.5l0.1,0.2l0.2,0.2l0.5,0.2l0.2,0.2l0.7,0.7l0.4,0.3l0.5,0.2l0.5,0l0.4-0.2
		l0.4-0.1l0.9,0.8l5.4,0.1l0.3,0.1l0.5,0.4l0.3,0.1l0.5-0.1l0.2,0l0.7,0.2l0.7,0l0.1,0.2l-0.1,0.6l-0.1,0.4l-0.1,0.3l-0.1,0.3l0,0.5
		l0.3,1.1l0.1,0.8l0,0.3l-0.1,0.3l-0.3,0.9l0,0.3l0.2,0.2l0.4,0l0.6,0l0.2,0.2l-0.1,0.5l0,0.4l0.2,0.4l0.2,0.3l1.1,0.8l0.3,0.2
		l1.2,0.2l0.4,0.2l0.2,0.2l0.1,0.3l0.1,0.3l0.1,0.3l0.9,1.1l2.1,1.8l1,0.7l1,0.1l2.1-0.4l1.6,0l1.1-0.2l1.5,0.5l0.4,0l1.5-0.4
		l1.9,0.2l0.4,0.1l0.4,0.2l0.8,0.3l0.3,0.1l0.6-0.1l0.2,0.1l0.1,0.1l0.1,0.4l0.1,0.2l0.3,0.1l0.4,0.2l3.2-0.2l0.8,0.3l0.5,0.5l0.2,0
		l1.2,0.3l4,1.2l0.7-0.1l0.6-0.3l0.6-0.4l0.5-0.6l0.2-0.3l0.2-0.2l0.2,0l0.8,0.9l0.3,0.2l0.8,0.2l1.4,0.9l0.6,0.2l0.6,0l0.7-0.1
		l1.6-0.6l1.9-1l2.6-1.9l2-0.7l0.3-0.2l0.4-0.6l0.3-0.2l0.4-0.1l0.3,0.1l0.7,0.4l0.4,0.1l0.4,0l0.4-0.1l1.7-0.9l0.7-0.2l5.5-0.4
		l6-2.7l0.6-0.1l1.7,0.2l1.3,0.7l0.5,0.1l0.5,0l0.6-0.2l1.4-0.7l0.9-0.8l0.3-0.2l0.3-0.2l0.3-0.1l0.8,0l0.3-0.2l0.2-0.5l0-0.8l0-0.4
		l0.2-0.4l1-2.1l0.4-0.6l0.4-0.5l3-2.3l0.4-0.5l0.2-0.3l0.8-0.5l0.3-0.3l0.8-0.6l2.6-1.4l0.3-0.1l0.6,0.1h0.3l0.2-0.1l1.8-1.8
		l0.3-0.2l0.6-0.2l0.3-0.2l0.9-0.9l1.2-0.7l1.3-0.5l0.7,0.1l1.4,0.7l0.7,0.2l2.8-0.4l1.4,0.4l3.6,2.1l0.3,0.3l0.2,0.3l0.3,0.7
		l0.2,0.3l2.2,2.4l2.4,1.8l0.3,0.1l0.9,0l0.3,0.1l0.5,0l1-0.2l1.6,0.4l0.5,0l0.5-0.2l4.5-2.6l1.2-0.4l1.2,0l1.2,0.5l4.1,1.6l0.6,0.6
		l0.5,0.8L611.4,237"/>
</g>

</svg>
