<?xml version="1.0" encoding="utf-8"?>

<svg version="1.2" baseProfile="tiny" xmlns="http://www.w3.org/2000/svg" xmlns:xlink="http://www.w3.org/1999/xlink" x="0px"
	 y="0px" viewBox="339.6 146.9 161.9 300" xml:space="preserve">

<g id="Macao">
	<g>
		<path fill="#00785E" d="M447.6,334.6c3.1,0.6,6.3,0.8,9.5,0.8c6,0,11.8-1,17.1-2.8l-2.5-1.6c-6.1,2.4-12.8,3.8-19.8,3.8
			C450.5,334.8,449,334.7,447.6,334.6z"/>
		<path fill="#00785E" d="M398.6,292.9l-3.6-0.5l-3.9,0.9c5.1,3,9.8,6.7,13.9,10.9C402.5,300.7,400.3,296.9,398.6,292.9z"/>
		<path fill="#00785E" d="M439,304.2c1.5-1.6,3.1-3.1,4.7-4.5l-1.6-0.2C441.1,301.1,440.1,302.7,439,304.2z"/>
		<path fill="#00785E" d="M383.9,295l-6.4,1.5c10.8,2,20.7,6.8,28.9,13.6C400.2,303.5,392.5,298.3,383.9,295z"/>
		<path fill="#00785E" d="M405.2,293.9l-1.3-0.2c1.9,6.1,4.9,11.6,8.7,16.6C409.2,305.3,406.7,299.8,405.2,293.9z"/>
		<path fill="#00785E" d="M392,334.8c-0.9,0-1.9,0-2.8-0.1l0.1,0.2l0.1,0.5c2.4-0.1,4.7-0.4,7-0.8C395,334.7,393.5,334.8,392,334.8z
			"/>
		<polygon fill="#00785E" points="356.3,210.9 342.7,229.6 340.4,234.4 339.6,238.8 339.9,242 342.6,247.7 344.8,249.9 346.7,250.5
			347.6,250.8 354.7,249.2 355.7,247.2 356,248.7 364.3,242.7 374.4,239.8 377.6,237.3 376.3,233.1 367.6,233 374.8,228
			372.2,219.6 379.2,224.9 386.3,219.9 383.5,228.1 389.8,232.9 408.4,227.5 410.7,232.4 413.6,230.3 413.7,228.6 411.8,230
			413.8,223.7 412.3,215.5 405.5,210.6 411.3,210.6 407.6,191.5 423.1,181.8 422,172.6 421.8,162.3 421.3,160.3 419,157.7
			412.7,155.4 398.1,151.4 397,146.9 389.5,147.9 388.9,148.5 387.4,147.9 383.5,147.9 382.6,147.6 380.5,147.5 378,149.2
			375.5,154.5 374.4,156.6 374.2,156.5 373.3,158.1 372.8,158.5 372.4,158.7 371.1,158.5 368,157.7 364.1,156.9 359.9,156.9
			357.6,157.3 354.5,158.6 352.1,160.4 351.9,160.8 351.9,161.1 354.2,167.4 355.9,173.8 372.6,169.2 373.8,173.4 361.6,176.4
			362.7,181.1 362.4,193.3 		"/>
		<path fill="#00785E" d="M422,323.5c-8.3,8.7-19.6,14.5-32.2,16l0.4,4.2c3.6-0.3,7-1,10.3-2c10.5-3.2,17.6-8.9,21.4-12.5
			c3.8,3.6,10.9,9.3,21.4,12.5c4.9,1.5,10.1,2.3,15.5,2.3h21.7l-1-3.7l-0.7-2.5l-0.5-1c-5.6,2-11.6,3.1-17.9,3.1
			C445.4,339.9,431.7,333.6,422,323.5z"/>
		<path fill="#00785E" d="M452,301l-2.9-0.4c-4.2,2.7-8.1,5.9-11.5,9.5C441.9,306.4,446.8,303.3,452,301z"/>
		<path fill="#00785E" d="M438.2,298.9l-0.9-0.1c-1.5,4.1-3.4,7.9-5.8,11.5C434.2,306.8,436.4,303,438.2,298.9z"/>
		<path fill="#00785E" d="M392.4,366.9l0.3,4.1H422h50.5c-3.1,1.9-6.2,3.7-9.5,5.3h-41h-28.9l0.2,2.6H422h35
			c-10.8,4.3-22.6,6.7-35,6.7c-9.9,0-19.5-1.6-28.5-4.4l1.8,23.8l0.6,0.7l-0.3,0.5l0.5,6.2l-2.4,3.8l-3.5,2.3l-0.8,5l2.4,1.8
			l0.3,5.9l-2.2,5l0.5,5l4.6,3.2l2.7,2.1l3.4,0.7l6.7-7.1l6.3,0.2l2.2,2.2l4.2-0.1l2.1-2.4l15.1,0.2l4.4-2.3l3.1-5.9l-5.2-1.2
			l-3.2-3.4l2.2-2.3l-0.1-4.6l9.7-17.4l6.4,4.6l8.7-4.6l6.4,0.2l6.5-4.7l11.8-1.2v-1.4l13.2-2.8l-4.6-15.2l-23.1-2.6l-1.5-7.9H422
			H392.4z"/>
		<polygon fill="#00785E" points="380.9,235.5 388.3,233.3 381.7,233.2 		"/>
		<polygon fill="#00785E" points="391.7,357.3 392.1,362.8 422,362.8 474.8,362.8 479,358 479.1,357.3 474.8,357.3 470.8,359.5
			468.1,360.9 468.9,357.3 422,357.3 		"/>
		<path fill="#00785E" d="M422,336.7c-8.5,7.2-19.3,11.7-31.1,12.5l0.6,5.5H422h47.5l1.2-5.2l0-0.2h-14.3
			C443.3,349.3,431.3,344.5,422,336.7z"/>
		<path fill="#FFFFFF" d="M463,376.2c3.3-1.6,6.5-3.3,9.5-5.3H422h-29.3l0.4,5.3H422H463z"/>
		<path fill="#FFFFFF" d="M457,378.9h-35h-28.7l0.2,2.3c9,2.8,18.6,4.4,28.5,4.4C434.3,385.5,446.1,383.2,457,378.9z"/>
		<polygon fill="#FFFFFF" points="392.1,362.8 392.4,366.9 422,366.9 472.3,366.9 472.1,365.8 473.8,363.9 474.8,362.8 422,362.8
			"/>
		<polygon fill="#FFFFFF" points="479.5,354.8 474.8,357.3 479.1,357.3 		"/>
		<polygon fill="#FFFFFF" points="391.4,354.7 391.5,355.4 391.7,357.3 422,357.3 468.9,357.3 469.5,354.7 422,354.7 		"/>
		<path fill="#FFFFFF" d="M442.1,299.5l-3.8-0.6c-1.8,4.1-4,7.9-6.7,11.3c2.4-3.5,4.3-7.4,5.8-11.5l-32.1-4.9
			c1.5,5.9,4,11.4,7.3,16.4c-3.8-4.9-6.8-10.5-8.7-16.6l-5.2-0.8c1.7,4,3.8,7.8,6.4,11.3c-4.1-4.3-8.8-8-13.9-10.9l-7.2,1.7
			c8.6,3.4,16.2,8.5,22.5,15.1c-8.1-6.8-18-11.6-28.9-13.6l-2.3,0.6l-4.9,3.8l3.8,15.8l2.7,3.8l8.1,6.5l4.3,7.8
			c0.9,0,1.9,0.1,2.8,0.1c1.5,0,2.9-0.1,4.4-0.2c-2.3,0.4-4.6,0.7-7,0.8l0.4,4.1c12.6-1.5,23.8-7.4,32.2-16
			c9.7,10.1,23.4,16.4,38.5,16.4c6.3,0,12.3-1.1,17.9-3.1l-1.1-2.1l-3.1-2c-5.4,1.8-11.1,2.8-17.1,2.8c-3.2,0-6.4-0.3-9.5-0.8
			c1.4,0.1,2.9,0.2,4.4,0.2c7,0,13.7-1.4,19.8-3.8l-6.1-4l5.7-19.9l-1.1-3.2L452,301c-5.2,2.4-10.1,5.4-14.4,9
			c3.4-3.6,7.3-6.8,11.5-9.5l-5.4-0.8c-1.7,1.4-3.2,2.9-4.7,4.5C440.1,302.7,441.1,301.1,442.1,299.5z"/>
		<path fill="#FFFFFF" d="M443.4,341.7c-10.5-3.2-17.6-8.9-21.4-12.5c-3.8,3.6-10.9,9.3-21.4,12.5c-3.3,1-6.8,1.7-10.3,2l0.6,5.4
			c11.8-0.7,22.6-5.3,31.1-12.5c9.3,7.8,21.3,12.6,34.4,12.6h14.3l0.1-0.6l1.4-1.5l5.4-1.8l3.5,0.6l-0.5-2h-21.7
			C453.5,344,448.3,343.2,443.4,341.7z"/>
		<polygon fill="#FBD116" points="386.3,219.9 379.2,224.9 372.2,219.6 374.8,228 367.6,233 376.3,233.1 377.6,237.3 379.3,236
			380.9,235.5 381.7,233.2 388.3,233.3 389.8,232.9 383.5,228.1 		"/>
		<polygon fill="#FBD116" points="354.7,249.2 355.4,249 356,248.7 355.7,247.2 		"/>
		<polygon fill="#FBD116" points="412.3,215.5 411.3,210.6 405.5,210.6 		"/>
		<polygon fill="#FBD116" points="413.7,228.6 414,224.3 413.8,223.7 411.8,230 		"/>
	</g>
	<path fill="none" stroke="#999999" stroke-width="0.25" stroke-linecap="round" stroke-linejoin="round" d="M379.3,236l29.1-8.5
		l2.3,4.9l2.9-2.1l0.3-6l-6.4-32.8l15.5-9.6l-1.1-9.3l-0.1-10.3l-0.6-2l-2.3-2.6l-6.3-2.4l-14.6-4l-1.2-4.5l-7.5,0.9l-0.5,0.7
		l-1.5-0.6l-3.9-0.1l-0.9-0.3l-2.1-0.1l-2.5,1.8l-2.5,5.3l-1.1,2l-0.1-0.1l-0.9,1.6l-0.6,0.4l-0.4,0.1l-1.3-0.2l-3.1-0.8l-3.9-0.8
		l-4.2,0l-2.4,0.4l-3.1,1.3l-2.3,1.7l-0.2,0.4l0,0.4l2.3,6.3l1.7,6.4l16.7-4.6l1.3,4.2l-12.3,3l1.1,4.7l-0.3,12.3l-6.1,17.6
		l-13.6,18.7l-2.3,4.8l-0.8,4.3l0.3,3.2l2.6,5.7l2.3,2.2l1.8,0.6l0.9,0.3l7.8-1.8l8.8-6.4l10.1-2.8L379.3,236z M496.9,377.4
		l-23.1-2.6l-1.8-9l1.8-1.9l5.2-5.9l0.5-3.2l-8.7,4.7l-2.7,1.5l2.5-11.5l0.2-0.8l1.4-1.5l5.4-1.8l3.5,0.6l-1.5-5.7l-0.7-2.5
		l-1.7-3.1l-11.6-7.7l5.7-19.9l-1.1-3.2L395,292.3l-19.8,4.7l-4.9,3.8l3.8,15.8l2.7,3.8l8.1,6.5l4.3,7.9l2.2,20.5l3.8,49.5l0.6,0.7
		l-0.3,0.5l0.5,6.2l-2.4,3.8l-3.5,2.3l-0.8,5l2.4,1.8l0.3,5.9l-2.2,5l0.5,5l4.6,3.2l2.7,2.1l3.4,0.7l6.7-7.1l6.3,0.2l2.2,2.2
		l4.2-0.1l2.1-2.4l15.1,0.2l4.4-2.3l3.1-5.9l-5.2-1.2l-3.2-3.4l2.2-2.3l-0.1-4.6l9.7-17.4l6.4,4.6l8.7-4.6l6.4,0.2l6.5-4.7l11.8-1.2
		v-1.4l13.2-2.8L496.9,377.4z"/>
</g>

</svg>
