<?xml version="1.0" encoding="utf-8"?>

<svg version="1.2" baseProfile="tiny" xmlns="http://www.w3.org/2000/svg" xmlns:xlink="http://www.w3.org/1999/xlink" x="0px"
	 y="0px" viewBox="313.8 171.5 213.2 250" xml:space="preserve">
<g id="Martinique">
	<g>
		<polygon fill="#FFFFFF" points="497,316.8 496.9,316.7 495.5,315.7 495.4,314.5 495.8,314 497.1,313.6 497.3,313 496.7,311.8
			495.1,310.1 494.3,309.9 493,308.2 493,307.1 493.7,306.4 496.4,305.4 496.8,304.2 496.2,303.7 494.2,303.7 493.4,302.9
			492.1,302.9 491.2,303.4 490.8,304.2 489.6,303.5 488,304.8 487.9,303.4 487.2,302.9 486.6,302.9 485.6,303.7 483.2,303.7
			482.2,303.4 482.2,303 483.2,302.2 482.7,301.3 482.8,300 483.9,299.7 484.3,298.8 484.9,298.6 485.6,297.9 485.6,296.6
			485,295.5 484.7,295.6 484.1,294.8 484.5,294 486.2,293.5 487,292.8 486.5,292.3 483.1,292.2 481.5,291.1 480.6,291 479,290
			479.8,289.1 479.9,288.1 480.6,288 481.2,288.5 481.6,289.4 482.3,289.8 482.8,289.7 484.4,288.5 486.2,288.4 487,287.8
			487.2,286.6 487.7,287.2 488.7,287.2 489.1,286.8 489.2,284.8 489.9,283.9 490.4,282.5 490.5,281 489.6,280.1 487.5,280
			486,280.6 485.3,281.3 485.2,283.4 484.1,283.4 483.5,283 482.3,283 482.3,281.8 482.8,281.2 482.3,280.5 481.2,280.4
			479.9,281.7 479.2,280.2 477.6,280 477.2,280.4 477.7,281.3 477.5,281.7 476.1,281.6 476,281 475.3,280.4 472.7,281.3
			472.1,281.7 471.8,283.3 470.9,284.3 470.5,285.9 468.9,285.9 468.2,286.8 466.2,286.8 464.6,284.8 464.5,284 463.7,283
			463.4,281 461.4,280.3 459.9,278.8 460,277.5 460.5,277.2 438.7,277.2 438.7,222.5 438.2,222.8 437.1,222.8 435.3,221.1
			435.3,219.4 436.5,218.7 436.4,217.5 435.3,217.3 433.3,218.1 432,217.1 431.6,215.6 429.5,214 429.5,213.5 429,213.1 429,211.4
			429.4,210.8 429.4,210.2 430.3,209.3 429.5,207.5 428.5,207.5 428.2,207.9 427.7,206.7 426.5,206.2 425.4,207.9 424.4,208.4
			423.4,208.3 421.4,206.5 420.6,205.1 420.2,202.1 418.4,200.3 416.3,200.4 415.5,200.1 415.4,199.1 416.3,198.7 416.4,197.5
			415.1,196.1 413.8,196.1 413.3,196.7 412.5,196.1 411.7,196.1 410.1,194.1 409.2,193.9 408.8,193.2 407,193.9 404.7,195.3
			402.7,194.4 402.5,194 401.3,193.7 401.3,277.2 345.8,277.2 346.4,277.9 346.4,278.4 348.1,280 349,281.5 349.4,283.4
			349.9,284.4 351.9,286.4 352.4,288.1 353.5,289.8 357.4,291 358.7,292.3 358.7,293.6 359.1,294.1 359.2,295.1 360,295.8
			359.9,296.3 361.6,297.4 364.2,297.4 364.6,297.9 365.5,297.8 366.2,298.7 368.9,299.1 371,300.4 371.9,300.4 372.7,301.2
			373.1,301.2 373.1,301.7 374.7,303.3 376.3,303.9 377.4,305.9 378.8,307.4 379.9,310.2 382,312.7 382.7,314.7 387,314.2
			388.8,313.5 392.8,313 395.1,313.9 395.5,315 395.9,315.6 396.5,315.6 397.2,314.7 396.8,313.9 398.5,313.9 399.3,314.3
			400.2,316.1 401.4,316 401.9,315.6 404,315.6 405.3,316.9 408.5,316.9 409.1,317.3 410.2,317.3 411.3,316.8 410,311.3
			414.2,311.3 416.4,309.6 417.1,308.4 417.9,308.5 418.1,309.8 418.9,310.1 418.5,311 418.5,312.3 420.1,314.4 420.2,315.2
			421,315.7 421,316.9 420.5,317.7 417.5,318.2 416.7,319 417.2,319.4 417.2,321.1 418.7,322.3 419.8,322 420.3,323.1 421.4,323.3
			422.6,325.4 423.5,325.7 424.4,326.1 422.3,329.1 424,331.8 424,333.8 424.4,334.3 426.5,333.9 429,335 429.9,334.7 432.5,334.7
			432.4,336.4 433.3,337.2 434.5,337.7 434.5,338.4 434.9,339.1 434.7,339.8 434.1,339.2 434,338.5 433.3,338.1 431.7,338
			431.2,338.5 430.7,338.4 430.3,339.4 430.7,339.8 432,339.8 432.8,340.2 432.8,341 432.1,341 431.2,341.8 430,341.8 427.4,344.4
			427.4,344.9 427,343.9 426.5,343.6 425.2,343.6 422.7,346.6 422.7,347 421.4,346.6 421.4,345.1 421,344.9 417.6,344.8
			417.2,345.2 416.8,346.6 416.4,346.6 415.5,345.7 414.2,345.7 415,344.8 413.8,343.6 410,343.6 408.7,342.7 408.4,341.3
			409.9,340.7 410.9,340.6 411.3,340.1 411.3,336.4 410.7,335.9 409.5,335.9 407.9,337.6 406.2,338.5 404.5,338.5 405.3,336.8
			405.3,334.7 404.5,334.2 404.5,333.8 403.8,333 402.7,333.4 402.3,335.1 401.9,335.5 401.9,336.3 402.4,336.9 402.4,338
			401.9,338.5 401.3,338.5 401.3,388.5 402,388.5 403.2,387.6 405,387.1 406.6,385 407.5,380.3 409.2,378.6 410.1,378.7
			411.3,377.8 412.6,377.8 413.1,377.4 416,377 419,375.8 420.5,375.7 421.5,376.2 421.9,377.2 423.9,379 425.3,379.5 426.2,380.4
			427.1,380.3 427.5,379.9 427.4,379 426.5,378.4 427.4,376.6 428.3,376.6 429.1,378 429.1,379.2 429.5,379.6 429.8,380.8
			430.7,381.7 431.7,381.6 432.1,381.2 432.3,381.1 433.3,381.3 433.7,381.7 434.9,382 436,381.6 436.3,381.2 435.5,379.7
			435.9,378.4 435.3,376.3 435.5,376.2 437,378.7 437.9,378.7 438.3,378.2 438.3,377.2 438.7,376.3 438.7,316.8 		"/>
		<polygon fill="#FFFFFF" points="504.5,316.8 505.8,316.8 505.3,316.2 		"/>
		<polygon fill="#FFFFFF" points="410.8,394.8 411.3,394.4 411.3,393.5 410.3,392.7 409.2,392.7 408.7,393.2 408.7,394.4
			409.1,394.8 		"/>
		<polygon fill="#FFFFFF" points="411.3,318.6 411.2,317.6 410.7,317.6 410,318.2 410,318.6 410.5,319.1 411,319 		"/>
		<polygon fill="#FFFFFF" points="485.7,297.2 486.5,298.3 487.1,299.3 488.4,299.5 489.1,297.4 486.6,296.2 		"/>
		<polygon fill="#FFFFFF" points="422.1,341 421.8,339.1 420.7,338.9 418.7,339.8 418,341.1 419.5,341.9 421.2,341 		"/>
		<polygon fill="#FFFFFF" points="498.7,311.7 499.8,311.7 500.1,311.5 500.1,310.6 499.6,310 498.8,310.1 498.5,310.4 498.1,311
			"/>
		<polygon fill="#FFFFFF" points="501.5,308.4 499.8,309.2 499.8,309.8 500.2,310.1 501.9,310.1 503.3,309.2 504.5,309.3
			505.1,309.7 506.2,309.6 506.5,308.5 505.6,307.8 505.6,307.1 505.1,306.5 504.2,306.4 503.6,307.1 502,307.3 		"/>
		<polygon fill="#FFFFFF" points="491.2,277.5 491.7,277.5 492,277.2 491,277.2 		"/>
		<polygon fill="#FFFFFF" points="489.3,279.1 489.8,279.6 490.9,279.6 491.2,279.3 491.3,278.3 490.8,277.9 489.6,277.5
			489.1,278.2 		"/>
		<polygon fill="#FFFFFF" points="509.4,281.4 509.1,281.7 509,282.2 509.3,283 509.5,283.1 509.9,282.9 510.2,282.5 510.2,281.8
			509.9,281.3 		"/>
		<polygon fill="#FFFFFF" points="505.2,301.2 505.7,300.6 505.6,299.9 505.2,299.1 504.6,299 503.9,299.6 503.6,300.5 504.4,301.2
					"/>
		<polygon fill="#FFFFFF" points="500.8,303.1 498.4,304.2 498.4,304.7 499.1,305.4 501,305 502.2,303.7 501.9,302.9 		"/>
		<polygon fill="#FFFFFF" points="428.3,340.2 428.6,339.9 428.6,339.2 428.4,339 427.9,338.9 427.3,339.5 427.3,339.9 427.9,340.2
					"/>
		<polygon fill="#FFFFFF" points="508.3,302.4 508.6,301.2 508.5,300.3 507.6,299.7 506,301.3 506.1,302.2 506.8,302.9 		"/>
		<polygon fill="#2B57A0" points="490.9,269.6 490.5,268.6 489.4,267.9 489.1,268.5 489.2,270 489.9,270.7 490.4,270.7 490.9,270.2
					"/>
		<polygon fill="#2B57A0" points="463.3,247 463.3,247.6 463.6,248.2 464,248.3 464.9,247.4 465,247.2 464.5,246.6 463.9,246.6
			"/>
		<polygon fill="#2B57A0" points="480.8,269.4 480.2,269.9 480.2,270.7 480.7,271.2 481.6,271.1 482.3,270.3 481.9,269.4 		"/>
		<polygon fill="#2B57A0" points="482.2,271.1 481.2,271.9 481.5,272.4 482.4,272.4 482.7,272.1 482.8,271.6 482.4,271.1 		"/>
		<polygon fill="#2B57A0" points="492.2,277 492,276.1 491.6,275.8 491.2,275.9 490.8,276.3 490.8,276.9 491,277.2 492,277.2
			492,277.2 		"/>
		<polygon fill="#2B57A0" points="491.7,272 492.1,272 492.6,271.5 492.5,271.1 492.1,270.7 491.3,270.7 490.8,271.3 491.1,271.9
			"/>
		<polygon fill="#2B57A0" points="492.5,236 492.9,235.7 493,234.3 492.2,233.5 491.3,233.9 491.2,234.5 491.3,235.2 492.1,236
			"/>
		<polygon fill="#2B57A0" points="460.5,277.2 461.8,276.5 462.4,275.5 462.8,272.4 464,272.8 465.7,274.8 467.6,274.5 468.3,274.9
			469.3,273.8 467.2,272.1 467,270.4 467.6,269.4 470.9,269.3 474,267.7 474.8,268.3 474.7,269.4 475.3,269.7 476.1,269.4
			476.8,268.1 477.7,266.8 477.7,266.1 480.3,266 481,265.3 480.7,264.9 481.4,263.9 480.6,263.2 481.5,262.3 480.8,261.6
			478.6,262.6 476.1,262.6 475.1,262.1 474.3,261 475.1,259.6 474.3,258.4 474.8,255.2 474.3,254.6 471.9,254.6 471.4,255
			471.3,256.2 470.6,257.5 469.6,257.9 469.1,257.6 468,258.8 465.9,259.3 465.4,258.8 464.5,258.7 464.5,257.6 467.1,255.9
			467,253.4 467.9,253.2 468.8,252.5 467.9,251.2 467.1,251.2 465.3,251.7 464.6,252.8 464.5,254.1 463.9,254.6 462.4,254.3
			460.4,251.7 458.9,251.1 458.2,249.8 458.2,248.7 459,247.3 459,246.6 460.5,246.5 461,246.9 462.4,247 462.7,246.7 462.5,245.8
			462.1,244.9 460.7,244.8 459.7,244.3 459,243.5 458.9,242.9 459,241.8 460.7,241.2 462,239.7 462,238.6 462.4,238.1 468.3,238.1
			469.1,238.5 469.7,239.4 472.7,239.8 473.2,240.2 474.4,241.2 475.2,242.9 475.2,244.5 476,245.7 476.8,245.7 478.8,244.8
			480.1,245.5 481.5,246.1 483.6,246.1 484.1,245.7 483.9,244.8 484.3,244.8 486.1,245.7 486.6,245.2 486.6,244.6 485.8,243.5
			486.1,242.3 484.5,241.5 483,241.4 482.3,240.9 482.3,240.5 484,239.8 484.2,238.4 485.5,238.9 486.8,238.3 487.4,237.2
			487.4,236.1 486.3,234.3 485.3,233.9 484,233.8 483.3,233.3 483.3,232.1 484.6,232 484.8,230.5 486.2,229.6 487.2,229.5
			488.1,230 489.3,229.3 489.5,229.5 489.9,230.1 489.9,231.2 491.2,233.1 493.7,233.4 494.1,233.7 495.1,233.3 496.3,232.2
			495.5,231.3 494.3,231.1 494.1,229.7 495.5,226.4 494.2,225.4 494.6,225 494.6,223.7 494,223.2 492.7,223.9 491.6,222.9
			491.1,223.2 490.4,222.8 489.1,222.9 488.3,221.6 487.3,221.6 486.2,222.7 486.1,223.4 484.3,225.8 482.3,226.5 481.2,226.6
			479.8,227.8 479.4,228.7 478.4,229.2 476.8,227.5 475.1,228.8 474.7,229.2 474.8,230.4 473.9,231.2 472.1,231.8 470.5,232.9
			469.6,232.6 468.2,230.5 465,230.4 463.2,231.4 462.8,232.2 461.5,233 460.7,233.4 457.9,233.4 457.3,233.8 456.9,235.5
			454.8,237.5 453.9,238.5 453.5,239.8 453.6,242.2 452.2,244 451,244 450,243.1 449.6,243.2 449.2,242.5 449.3,241.4 449.2,240
			450.1,238.9 447.7,237.3 447.1,236.2 447.1,235.2 447.6,234.1 447.1,233 445.1,230.9 443.9,230.7 443.4,229.6 443.4,228.4
			443.1,228 441.1,227.4 439.3,225.3 439.3,224.9 440.8,225.4 441.3,224.9 440.8,224 440.8,222.8 440.3,222.4 438.9,222.4
			438.7,222.5 438.7,277.2 		"/>
		<polygon fill="#2B57A0" points="482.4,264.4 482,265.2 482.5,266.3 483.8,266.9 484.4,266.8 485.7,268.5 486.7,268.8 487.8,267.8
			489.5,267.6 491.8,268.1 492.2,266.7 491.4,265.7 487.7,264.3 486.7,264.3 486.3,264.8 485.4,264.8 484.9,264.4 484.2,264.3
			483.5,264.8 		"/>
		<polygon fill="#2B57A0" points="448.7,227.1 449.4,227.1 449.8,226.6 449.8,225.9 448.6,224.5 447.6,225.4 447.6,226.2
			447.9,226.6 		"/>
		<polygon fill="#2B57A0" points="496.3,224.9 496.4,224.5 496.2,224 495.7,223.6 495.5,223.7 495,224.4 495.8,225.3 		"/>
		<polygon fill="#2B57A0" points="477.1,271 477.3,270 477,269.5 476.5,269.4 475.6,270.3 475.5,270.7 475.6,271.1 476,271.6 		"/>
		<path fill="#2B57A0" d="M328.8,192.3c-0.1-2.7-4.4-3.1-9.9-2.8l-0.4,0.3l0,0.8l-1.2,1.2l-0.5,1.4l-1.6,2.9l-0.9,2.6
			C320.2,197.3,329,196.5,328.8,192.3z"/>
		<path fill="#2B57A0" d="M401.3,193.7l-0.2-0.1l-0.8-0.9l-0.5,0.1l0-0.4l-0.8-0.8l0-0.6l-0.9-1.3l-1.1,0.1l-0.4-0.5l-2.6-0.4
			l-0.9-0.9l-1.4,0l-1.2-1.2l0-0.5l-2.2-1.7l-1.6,0l-2.1-1l-3-3.6l-1.6-0.8l-1.3,0l-1.4-1.1l-2.3-1l-2.5-1.2l-1.7,0.4l-1.8-1.3h-0.6
			l-2-1.3l-1.3,0l-0.4-0.4l-2.1,0l-2.2-1.8l-0.8,0l-0.4,0.4l-2.1,0l-0.4-0.4l-2.1,0l-0.5,0.5l-8-0.1l-1.6,0.9l-2.1-0.1l-0.5,0.4
			l-3,0.1l-2.1,2l-1.7,0.9l-1.3,0.8l-2.2,0.4l-0.6,1.2l-2.2,0.5l-0.3,0.4l-2.6,0.4l-0.1,0.1c8.7,1.9,15,6.8,12.1,15.8
			c-2.9,8.9-15.8,7.8-22.6,13.8l0.1,0.1v0.7l0.8,1c10.7,5.4,33.6,0.6,35.3,13.6c1,7.7-5,10.7-13,12.4l1.2,1.2l1.2,3l-0.2,0.9
			c10.4,1.3,18.5,5,16.6,13.8c-1.3,5.8-8.9,9-18.1,10.3l1.8,2.7l0.9,2.4l1.6,1.6l0.9,1.8l1.2,1.2l0,0.5l0.6,0.6h55.5V193.7z"/>
		<path fill="#2B57A0" d="M326,223.1l0.5,0.5l0.2,0.8l2.1,3.7l0.7,0.7c3.3-0.4,6.6-0.9,9.7-1.6C335.9,224.8,331.1,223.8,326,223.1z"
			/>
		<path fill="#2B57A0" d="M337.4,250l-0.3,2.8l-0.8,2.1l0,1c3.6-0.7,6.8-1.8,9.1-3.4C343.3,251.4,340.6,250.6,337.4,250z"/>
		<path fill="#FFFFFF" d="M356.8,256.2c2-8.8-6.1-12.6-16.6-13.8l-0.2,0.8l-0.5,0.4l-0.4,2.1l-0.9,0.9l0,1.3l-0.9,1.6l-0.1,0.5
			c3.1,0.6,5.9,1.4,8,2.5c-2.4,1.6-5.6,2.8-9.1,3.4l0,0.3l-0.5,0.9l0.4,0.4l0,2.1l1,3.1l0.7,1.1l0.5,2.3l0.2,0.4
			C347.9,265.2,355.5,262,356.8,256.2z"/>
		<path fill="#FFFFFF" d="M351.1,225c-1.7-12.9-24.6-8.1-35.3-13.6l1.4,1.8l0.8,2.9l2,3.7l0,0.6l1.1,1l4,1l0.7,0.7
			c5.1,0.8,10,1.7,13.2,4c-3.1,0.7-6.4,1.2-9.7,1.6l1.3,1.3l0.5,0.1l6.7,6.7l0,0.6l0.1,0.1C346.1,235.7,352.1,232.7,351.1,225z"/>
		<path fill="#FFFFFF" d="M337.6,195.9c3-9-3.3-13.9-12.1-15.8l-2.8,2.9l0,0.9l-1.3,2.6l-0.3,0.8l-1,0l-0.8,0.8l-0.5,1.4l0,0
			c5.5-0.3,9.8,0.1,9.9,2.8c0.2,4.3-8.6,5-14.6,6.5l-0.4,1.3l0,5.5l0.4,0.3l0,0.9l0.4,0.4l0,2.2l0.4,0.4
			C321.8,203.7,334.7,204.8,337.6,195.9z"/>
		<path fill="#2B57A0" d="M504.1,317l-0.6,1l-2.2,0.8l-0.4-0.4l-3,0l-1-1.8h-58.3v59.6l0.5-1.3l0.4-0.6l0.8,0.1l1.5,2.9l-0.4,1
			l-0.6,0.2l0,0.6l1.8,2.1l1.2-0.1l2-1.2l0.7-1l2,0.1l1.6,2l1.5,0.2l1.7,1.6l3.3-0.9l0.7,0.5l1.8,0l1.1,0.8l2.2-0.1l1,0.8l1.3,0
			l0.5-0.4h0.8l3.8-1.4l1.6-0.7l0.8-1.9l0.4,1l2.3,0.1l0.5,0.8l-0.6,1.2l0.1,1.9l1.4,1.2l2.4,2.5l1.4,0.5l1.1,2.4l0.4,0.1l1.4-1.3
			l1-0.2l0.9-1.1l0.1-0.9l0.9-1.8l1.7-1.8l0.7-0.2l0.5-1l2-1.5l1-0.1l0.7-0.6l0-0.9l1.3-0.1l0.5,0.4l3.8,0.1l0.7,1.3l0.5,2.3l-2.2,2
			l0.6,1.1l-1,0.1l-1.3-0.9l-0.4-0.1l-0.8,1.4l-0.1,3.3l-0.9-0.4L492,391l-1.6-1.7l-1.3,0l-0.5,0.4l0.1,2.1l1.7,3.1l-0.6,2.7l-1.6,2
			l0,0.1c4.5,1,10,1.6,14.7,0.5c1.2-11.7,9.4-16.3,19.8-18.7l-0.1-1.2l2.5-2.4l1-1.8l0.4-0.4v-1.1l-1.7-1.6l0-2.9l-0.1-0.2
			c-4.6-1.7-7.8-4.6-7.7-10.2c0-0.9,0.2-1.7,0.5-2.5l-0.6,0l-0.9,0.8l-1.3,0.4l-0.2,1l-0.7-0.1l-0.7-0.9l1.2-1.2l-0.2-0.8l1.5-1.3
			l-0.2-0.6l-0.6-0.3l0.4-0.7l1.6,0l1.3,1.2l1.2-1.1l0.5-4.2l-0.8-1.5l-2.6,0.8l-0.8,0l-0.6-0.4l-0.9,0.1l-0.2-0.4l1.2-0.9l2.5,0.4
			l0.5-0.4l0.1-1.9l-0.5-1.6l-2-2.1l-2.5-0.9l-0.1-0.6c-1.4-0.2-2.6-0.6-3.3-1.2c-5,0.9-16.7,4.1-18.7,0c0.5,0.3,2.2,0.9,2.7,0.8
			c1.3-0.5-0.8-0.6-1.8-1.5c1.1-0.7,3.4,0.7,5.3,0.7c3.8,0,8.1-1.2,10.9-1.6c2.4-0.5-0.3-2.3,1-3.6c0.6-0.4,1.2-0.8,1.9-1.2
			l-0.3-1.1l-0.6-0.5l-1,0l-0.5,0.5l-1.4-0.2l1.8-0.7l0.7-0.7l0.1-0.5l0.3-0.3l-0.6-0.8l-2.5,0.6l-1.4,0.8l-0.4-2l-0.5-0.5l0.7-0.8
			l3.1-0.1l2.1-0.7l-0.5-0.9l-1.6,0l-0.5-0.5l-2,0l-0.5-0.5l0.4-0.3l2.1-0.1l0.5-0.4l-0.8-1.1l-1-0.2l0.5-1.4l-1.8-2l0.5-1l-0.3-0.3
			h-1.3L504.1,317z"/>
		<polygon fill="#2B57A0" points="441.6,378 441.6,377.4 440.7,376.1 440,376.5 440,376.8 440.1,377.5 440.9,378.3 		"/>
		<polygon fill="#2B57A0" points="498.4,420.6 498,419.9 497.7,418.9 496.9,418.9 496.3,419.4 496.3,420.2 497.3,421.5 497.7,421.5
					"/>
		<polygon fill="#2B57A0" points="514.6,329.5 513.9,328.7 513.3,328.8 511.9,329.9 511.6,330.8 511.8,331.3 513.1,331.3
			514.5,329.9 		"/>
		<path fill="#2B57A0" d="M517.5,329.1l-0.6,0l-1,0.5l-1.3,1.4c1.3-0.4,2.6-0.8,4.1-1.1L517.5,329.1z"/>
		<path fill="#2B57A0" d="M486.9,402.6l-1.6,1.3l-1.1,0.6l-0.2,1.2l0.9,1l1.8,1l1.1,1l-0.7,1.9l1.2,1.2l0.1,0.8l0.6,0.6l3.1,1.5
			l0.1,2.1l0.8,0.4l3.4,1.3l2.2-0.9l1.1,0.5l0.6,0l0.5-0.5l1.7,0l1.4-0.9l0.2-2.5l1.3-2l0.6-0.3l0.9-0.8l0.2-0.7l1.7-1.2l1.7,1.3
			l1.6,0l0.2-0.2c-2.2-1.5-4.2-3-6.6-3.9C499.7,404.3,491.3,405.3,486.9,402.6z"/>
		<path fill="#2B57A0" d="M522.2,392.9l0.1,0.2c0.4-0.1,0.8-0.1,1.3-0.2l0.4-0.6l-0.2-0.3l-0.4-0.3c-0.2,0.1-0.4,0.2-0.6,0.3
			L522.2,392.9z"/>
		<path fill="#FFFFFF" d="M524.7,369.9l-0.3-0.5l-2.1-2.4l-1.5,0.7l-0.6-0.8l0.4-3.7l-0.3-0.3l0.3-3l-0.5-1.6l-1.2-1.1l-1.4-0.1
			c-0.3,0.8-0.5,1.6-0.5,2.5C516.9,365.2,520.1,368.1,524.7,369.9z"/>
		<path fill="#FFFFFF" d="M508.1,337.3c-2.8,0.4-7.2,1.6-10.9,1.6c-1.9,0-4.2-1.4-5.3-0.7c1,0.9,3,1,1.8,1.5
			c-0.5,0.1-2.2-0.5-2.7-0.8c2.1,4.1,13.7,0.9,18.7,0c0.7,0.6,1.8,1,3.3,1.2l-0.1-0.5l0.9-1.5l0.1-1.4l1.4-0.5l0.7-0.6l0.7-0.5
			l0.5-1.3l0-1.7l0.5-0.8l1.2-0.7l0-0.6l-0.2-0.1c-1.4,0.3-2.8,0.7-4.1,1.1l-0.1,0.1l-0.9,0.3l-3.7,2.8l-0.2-0.2l1.4-1.6l0,0
			c-0.7,0.4-1.3,0.8-1.9,1.2C507.8,335,510.5,336.8,508.1,337.3z"/>
		<path fill="#FFFFFF" d="M502.9,400.2c-4.7,1.1-10.1,0.4-14.7-0.5l-0.4,1.5l-0.8,1.3l-0.1,0.1c4.4,2.8,12.8,1.8,18.6,3.9
			c2.4,0.9,4.5,2.4,6.6,3.9l0.3-0.3l0-1.4l-0.6-0.7l-2-0.2l-0.3-0.5l0.5-1.8l-0.3-0.7l-0.7-0.2l-0.6,0.4l-0.2-1l-1.2-0.2l0.6-1.7
			l2.3,0l1.2,1.5l0.1,0.7l0.9,0.4l1.9-0.6l0.7-0.7l-0.4-0.8l0.6-0.6l0.1-2.6l1.1-0.3l0.7-1.2l1.6,0.1l0.4-0.3l0.5-2.2l0.4-0.3
			l0.4-1.7l0-3.8l0.7-0.2l1.2-2.2l1.1-0.2l0.8-0.8l2.6-0.1l0.6-0.5l-0.2-0.6l-1-0.1l-1.1-0.9l-0.6-1.1l-1.4-1.1l0-0.3
			C512.3,383.9,504.1,388.5,502.9,400.2z"/>
		<polygon fill="#FFFFFF" points="510.9,406.4 510.7,406.8 510.8,407.2 511.1,407.4 512.1,407.5 512.4,407.1 511.6,406.2 		"/>
		<path fill="#FFFFFF" d="M522.3,393.3l0.4,0.2l0.6-0.3l0.2-0.3c-0.5,0.1-0.9,0.1-1.3,0.2L522.3,393.3z"/>
		<polygon fill="#FFFFFF" points="518,398.6 518,398.2 517.5,397.9 517,398 516.7,398.4 516.8,398.8 517.8,398.8 		"/>
		<polygon fill="#FFFFFF" points="520.1,397.1 520.3,397.2 520.5,397.2 521.2,396.5 521.1,396.2 520.5,396.1 520,396.6 		"/>
		<polygon fill="#FFFFFF" points="516.3,400.9 517.1,401.6 518.5,401.5 518.9,400.6 519.2,400 518.8,399 517.1,399.1 516.2,400.1
			"/>
		<path fill="#FFFFFF" d="M522.7,392c0.2-0.1,0.4-0.2,0.6-0.3l-0.3-0.3L522.7,392z"/>
		<polygon fill="#FFFFFF" points="514.1,408.9 513.8,410.1 515,410.8 515.9,409.9 515.9,409.2 515.1,408.4 514.5,408.5 		"/>
		<polygon fill="#FFFFFF" points="515.4,405.8 514.6,406.7 514.7,407.6 515,408 515.4,408 516.1,407.2 516.6,406.2 515.9,405.5
			"/>
		<polygon fill="#FFFFFF" points="519.7,398.1 519.6,398.5 519.9,399 520.6,399 520.9,398.7 521,398.2 520.3,397.7 520,397.9 		"/>
		<polygon fill="#2B57A0" points="398.9,338.5 398.1,339.8 398.1,340.6 396.9,342.3 396.9,343.6 396.4,344.4 395.1,344.4
			393.8,343.5 391.7,343.6 391.2,343.2 390.9,343.6 390.4,343.6 388,346.1 384.9,347.9 384.5,348.7 384.7,350.4 383.7,350.7
			383.7,351.6 382.4,351.6 381.6,352.5 380.6,354.7 380,356.3 380.3,356.7 379.9,357.1 379.9,358.4 378.6,359.7 378.6,360.9
			379.7,361.5 385,361.8 386.2,362.5 386.2,363.4 386.7,363.9 386.6,365.2 384.9,365.2 384.2,366 383.7,369.1 385,369.9
			388.4,369.8 389.3,370.8 389.2,374.9 387.9,376.6 387.5,378.4 387.9,378.7 387.9,379.6 389.6,381.3 391.8,381.7 392.2,381.2
			393.9,381.2 395.7,383.4 395.6,385.5 396.5,386.9 397.2,387.6 399,388.1 399.5,388.5 401.3,388.5 401.3,338.5 		"/>
	</g>

		<path fill="none" stroke="#999999" stroke-width="0.25" stroke-linecap="round" stroke-linejoin="round" stroke-miterlimit="10" d="
		M497.7,418.9l-0.8,0l-0.5,0.5v0.8l0.9,1.3l0.4-0.1l0.7-0.8l-0.4-0.7L497.7,418.9z M515.1,408.4l-0.6,0.1l-0.4,0.4l-0.3,1.2l1.1,0.7
		l0.9-1l0-0.6L515.1,408.4z M441.6,377.4l-0.9-1.3l-0.7,0.4l0,0.3l0,0.8l0.8,0.7l0.7-0.3L441.6,377.4z M410.3,392.7l-1.2,0l-0.5,0.5
		l0,1.2l0.4,0.4l1.8,0l0.5-0.5l0-0.8L410.3,392.7z M515.4,405.8l-0.8,0.9l0.1,0.9l0.3,0.3h0.4l0.7-0.7l0.5-1l-0.7-0.7L515.4,405.8z
		 M518,398.6v-0.5l-0.5-0.3L517,398l-0.3,0.5l0.1,0.3l1,0L518,398.6z M517.1,399.1l-0.9,1l0.1,0.8l0.8,0.7l1.4,0l0.4-0.9l0.3-0.6
		l-0.4-1L517.1,399.1z M520,397.9l-0.3,0.2l-0.1,0.4l0.3,0.6h0.7l0.3-0.4l0.1-0.5l-0.6-0.5L520,397.9z M448.7,227.1l0.7,0l0.4-0.5
		v-0.7l-1.2-1.3l-0.9,0.9l0,0.8l0.3,0.4L448.7,227.1z M506.8,302.9l1.5-0.5l0.3-1.2l-0.1-0.8l-0.9-0.6l-1.6,1.6l0.1,0.9L506.8,302.9
		z M496.3,224.9l0-0.5l-0.1-0.4l-0.5-0.4l-0.2,0.1l-0.5,0.7l0.7,0.9L496.3,224.9z M509.5,283.1l0.4-0.2l0.3-0.4l0-0.7l-0.4-0.6
		l-0.5,0.1l-0.3,0.3l-0.1,0.5l0.4,0.7L509.5,283.1z M513.1,331.3l1.5-1.4l0.1-0.4l-0.7-0.8l-0.7,0.1l-1.3,1.1l-0.3,0.9l0.2,0.4
		L513.1,331.3z M505.6,307.1l-0.5-0.6l-0.8-0.1l-0.6,0.6l-1.6,0.2l-0.6,1.1l-1.7,0.8l0,0.6l0.5,0.3l1.6,0l1.5-0.8l1.1,0l0.6,0.5
		l1.1-0.1l0.3-1.1l-0.8-0.6L505.6,307.1z M499.8,311.7l0.3-0.3l0-0.9l-0.6-0.6l-0.7,0.1l-0.3,0.3l-0.5,0.6l0.6,0.7L499.8,311.7z
		 M505.2,301.2l0.5-0.6l0-0.7l-0.4-0.8l-0.6,0l-0.7,0.5l-0.4,0.9l0.8,0.7L505.2,301.2z M501,305l1.2-1.3l-0.3-0.8l-1.1,0.2l-2.4,1.1
		v0.5l0.7,0.7L501,305z M411.3,318.6l-0.1-1h-0.5l-0.7,0.6l0,0.4l0.5,0.4l0.5-0.1L411.3,318.6z M492.5,271.1l-0.4-0.4l-0.8,0
		l-0.5,0.6l0.3,0.7l0.6,0.1l0.5-0.1l0.5-0.5L492.5,271.1z M492,277.2l0.1-0.2l-0.2-0.9l-0.4-0.3l-0.4,0.1l-0.4,0.5v0.6l0.4,0.5
		l0.5,0L492,277.2z M489.8,279.6l1.1,0l0.3-0.3l0-1l-0.5-0.4l-1.2-0.4l-0.5,0.7l0.1,0.8L489.8,279.6z M520.5,396.1l-0.5,0.5l0,0.5
		l0.2,0.2h0.3l0.7-0.7l-0.1-0.3L520.5,396.1z M493,234.3l-0.8-0.8l-0.9,0.4l-0.1,0.6l0.1,0.7l0.8,0.8h0.5l0.4-0.4L493,234.3z
		 M485.7,297.2l0.8,1l0.5,1l1.3,0.2l0.7-2.1l-2.5-1.2L485.7,297.2z M463.3,247l0,0.6l0.4,0.6l0.4,0.1l0.9-0.9l0.1-0.3l-0.4-0.6h-0.6
		L463.3,247z M475.6,270.3l0,0.4l0,0.4l0.5,0.5l1.1-0.6l0.2-1l-0.3-0.6l-0.5,0L475.6,270.3z M489.4,267.9l-0.3,0.6l0.1,1.5l0.7,0.7
		l0.5,0l0.5-0.6l0-0.6l-0.4-1L489.4,267.9z M422.1,341l-0.3-1.8l-1.1-0.3l-2,0.9l-0.7,1.3l1.4,0.8l1.7-0.9L422.1,341z M510.9,406.4
		l-0.3,0.4l0.1,0.4l0.4,0.2l1,0.1l0.2-0.4l-0.8-0.8L510.9,406.4z M526.7,384.9l-1-0.1l-1.1-0.9l-0.6-1.1l-1.4-1.1l-0.2-1.4l2.5-2.4
		l1-1.8l0.4-0.4v-1.1l-1.7-1.6l0-2.9l-0.4-0.7l-2.1-2.4l-1.5,0.7l-0.6-0.8l0.4-3.7l-0.3-0.3l0.3-3l-0.5-1.6l-1.2-1.1l-2-0.1
		l-0.9,0.8l-1.3,0.4l-0.2,1l-0.7-0.1l-0.7-0.9l1.2-1.2l-0.2-0.8l1.5-1.3l-0.2-0.6l-0.6-0.3l0.4-0.7l1.6,0l1.3,1.2l1.2-1.1l0.5-4.2
		l-0.8-1.5l-2.6,0.8l-0.8,0l-0.6-0.4l-0.9,0.1l-0.2-0.4l1.2-0.9l2.5,0.4l0.5-0.4l0.1-1.9l-0.5-1.6l-2-2.1l-2.5-0.9l-0.2-1.1l0.9-1.5
		l0.1-1.4l1.4-0.5l0.7-0.6l0.7-0.5l0.5-1.3l0-1.7l0.5-0.8l1.2-0.7l0-0.6l-1.3-0.9l-0.6,0l-1,0.5l-1.4,1.5l-0.9,0.3l-3.7,2.8
		l-0.2-0.2l1.4-1.6l-0.3-1.2l-0.6-0.5l-1,0l-0.5,0.5l-1.4-0.2l1.8-0.7l0.7-0.7l0.1-0.5l0.3-0.3l-0.6-0.8l-2.5,0.6l-1.4,0.8l-0.4-2
		l-0.5-0.5l0.7-0.8l3.1-0.1l2.1-0.7l-0.5-0.9l-1.6,0l-0.5-0.5l-2,0l-0.5-0.5l0.4-0.3l2.1-0.1l0.5-0.4l-0.8-1.1l-1-0.2l0.5-1.4
		l-1.8-2l0.5-1l-0.8-0.9l-1.2,0.9l-0.6,1l-2.2,0.8l-0.4-0.4l-3,0l-1-1.9l-1.5-1l-0.1-1.2l0.4-0.5l1.3-0.3l0.2-0.6l-0.6-1.2l-1.6-1.7
		l-0.7-0.2l-1.3-1.8l-0.1-1l0.7-0.8l2.7-1l0.4-1.2l-0.6-0.4l-2,0l-0.8-0.8l-1.4,0l-0.9,0.4l-0.4,0.8l-1.1-0.7l-1.6,1.4l-0.1-1.4
		l-0.7-0.5h-0.5l-1.1,0.9l-2.4,0l-1-0.4V303l1-0.8l-0.5-0.8l0-1.3l1.1-0.3l0.4-1l0.7-0.1l0.7-0.7l0-1.3l-0.6-1.2l-0.4,0.1l-0.6-0.8
		l0.4-0.8l1.7-0.5l0.8-0.7l-0.5-0.5l-3.4-0.1l-1.5-1.1l-0.9-0.1l-1.7-1l0.8-0.9l0.1-1l0.7,0l0.6,0.5l0.3,0.9l0.7,0.4l0.6-0.1
		l1.6-1.2l1.8,0l0.7-0.7l0.2-1.1l0.5,0.5l1,0l0.3-0.4l0.1-2l0.8-0.9l0.5-1.4l0-1.5l-0.9-0.9l-2.1-0.1l-1.5,0.6l-0.6,0.7l-0.1,2.1
		l-1.1,0l-0.6-0.4l-1.2,0l0-1.1l0.5-0.6l-0.5-0.7l-1.1-0.1l-1.3,1.3l-0.7-1.6l-1.6-0.1l-0.4,0.4l0.5,0.9l-0.2,0.4l-1.4-0.1l0-0.7
		l-0.7-0.6l-2.6,0.9l-0.5,0.5l-0.4,1.6l-0.8,0.9l-0.5,1.6l-1.6,0l-0.7,0.9l-2,0l-1.6-2l-0.1-0.8l-0.8-1l-0.3-2l-2-0.7l-1.4-1.5
		l0.1-1.3l1.8-1l0.6-1l0.4-3.1l1.3,0.4l1.7,2l1.9-0.3l0.8,0.4l0.9-1.1l-2.1-1.7l-0.1-1.8l0.6-0.9l3.2-0.1l3.1-1.7l0.7,0.6l-0.1,1.1
		l0.6,0.3l0.8-0.3l0.7-1.2l0.8-1.3v-0.7l2.6-0.2l0.7-0.7l-0.3-0.5l0.6-0.9l-0.7-0.7l0.8-0.9l-0.7-0.7l-2.2,1.1l-2.5,0l-0.9-0.5
		l-0.9-1.1l0.9-1.3l-0.8-1.2l0.5-3.2l-0.5-0.6l-2.4,0l-0.5,0.4l-0.1,1.2l-0.7,1.3l-1,0.5l-0.5-0.3l-1.1,1.1l-2.1,0.5l-0.5-0.5
		l-0.9-0.1l0-1.1l2.6-1.7l0-2.5l0.9-0.2l0.8-0.8l-0.8-1.3l-0.8,0l-1.8,0.4l-0.7,1.1l0,1.3l-0.6,0.5l-1.6-0.3l-2-2.6l-1.6-0.6
		l-0.7-1.3v-1.1l0.9-1.4v-0.7l1.4-0.2l0.6,0.5l1.4,0l0.3-0.3l-0.3-0.9l-0.4-0.9l-1.4-0.1l-1-0.5l-0.7-0.7l-0.1-0.7l0.1-1.1l1.7-0.6
		l1.3-1.4l0-1.1l0.5-0.6l5.9,0l0.8,0.5l0.5,0.8l3,0.4l0.5,0.4l1.2,1l0.8,1.7l0,1.7l0.8,1.1l0.9,0l2-0.9l1.2,0.7l1.5,0.6l2,0l0.5-0.4
		l-0.2-0.9l0.4,0l1.8,0.9l0.5-0.5v-0.6l-0.8-1l0.3-1.2l-1.7-0.8l-1.4-0.1l-0.7-0.5l0-0.4l1.7-0.7l0.2-1.4l1.3,0.5l1.3-0.6l0.6-1.2
		l0-1l-1.2-1.8l-0.9-0.5l-1.4-0.1l-0.7-0.5l0-1.2l1.3-0.1l0.1-1.5l1.4-0.9l1-0.1l0.9,0.4l1.2-0.7l0.2,0.2l0.4,0.6l0,1.2l1.3,1.8
		l2.5,0.3l0.4,0.4l1-0.4l1.1-1.1l-0.8-0.9l-1.2-0.2l-0.1-1.4l1.4-3.3l-1.3-0.9l0.4-0.4l0-1.3l-0.6-0.5l-1.3,0.8l-1.1-1.1l-0.5,0.4
		l-0.7-0.4l-1.3,0.1l-0.8-1.4l-1,0.1l-1.1,1l-0.1,0.7l-1.8,2.4l-2,0.8l-1.1,0.1l-1.3,1.2l-0.4,0.9l-1.1,0.5l-1.6-1.7l-1.7,1.3
		l-0.4,0.4l0.1,1.2l-0.9,0.9l-1.8,0.6l-1.6,1.1l-0.9-0.3l-1.4-2.1l-3.2-0.1l-1.9,0.9l-0.3,0.8l-1.3,0.8l-0.8,0.4h-2.8l-0.6,0.4
		l-0.4,1.8l-2.1,1.9l-0.9,1l-0.4,1.2l0,2.5l-1.3,1.8l-1.2,0l-0.9-0.9l-0.4,0l-0.4-0.6l0.1-1.2l-0.1-1.3l0.9-1.1l-2.4-1.5l-0.6-1.2
		l0-1l0.4-1.2l-0.5-1.1l-2-2.1l-1.1-0.2l-0.5-1.1v-1.2l-0.3-0.4l-2-0.6l-1.8-2.1l0-0.4l1.5,0.5l0.5-0.5l-0.5-0.8v-1.2l-0.5-0.4
		l-1.4,0l-0.7,0.4l-1.2,0l-1.8-1.7l0-1.7l1.2-0.7l-0.1-1.2l-1.1-0.2l-2,0.8l-1.3-1.1l-0.5-1.5l-2.1-1.6v-0.5l-0.5-0.4l0-1.7l0.5-0.6
		l0-0.7l0.9-0.9l-0.8-1.7l-1,0l-0.4,0.4l-0.4-1.2l-1.2-0.5l-1.2,1.7l-1,0.6l-1-0.1l-2-1.8l-0.9-1.5l-0.3-3l-1.8-1.7l-2.1,0.1
		l-0.8-0.3l-0.1-1.1l0.9-0.4l0.1-1.2l-1.2-1.4l-1.3,0l-0.5,0.6l-0.8-0.5h-0.8l-1.6-2.1l-0.9-0.2l-0.5-0.8l-1.7,0.8l-2.3,1.3l-2-0.9
		l-0.2-0.4l-1.4-0.4l-0.8-0.9l-0.5,0.1l0-0.4l-0.8-0.8l0-0.6l-0.9-1.3l-1.1,0.1l-0.4-0.5l-2.6-0.4l-0.9-0.9l-1.4,0l-1.2-1.2l0-0.5
		l-2.2-1.7l-1.6,0l-2.1-1l-3-3.6l-1.6-0.8l-1.3,0l-1.4-1.1l-2.3-1l-2.5-1.2l-1.7,0.4l-1.8-1.3h-0.6l-2-1.3l-1.3,0l-0.4-0.4l-2.1,0
		l-2.2-1.8l-0.8,0l-0.4,0.4l-2.1,0l-0.4-0.4l-2.1,0l-0.5,0.5l-8-0.1l-1.6,0.9l-2.1-0.1l-0.5,0.4l-3,0.1l-2.1,2l-1.7,0.9l-1.3,0.8
		l-2.2,0.4l-0.6,1.2l-2.2,0.5l-0.3,0.4l-2.6,0.4l-2.9,3l0,0.9l-1.3,2.6l-0.3,0.8l-1,0l-0.8,0.8l-0.5,1.4l-0.4,0.3l0,0.8l-1.2,1.2
		l-0.5,1.4l-1.6,2.9l-1.3,3.9l0,5.5l0.4,0.3l0,0.9l0.4,0.4l0,2.2l0.5,0.5v0.7l2.2,2.8l0.8,2.9l2,3.7l0,0.6l1.1,1l4,1l1.2,1.2
		l0.2,0.8l2.1,3.7l2,2l0.5,0.1l6.7,6.7l0,0.6l1.3,1.2l1.2,2.9l-0.3,1.7l-0.5,0.4l-0.4,2.1l-0.9,0.9l0,1.3l-0.9,1.6l-0.4,3.3
		l-0.8,2.1l0,1.3l-0.5,0.9l0.4,0.4l0,2.1l1,3.1l0.7,1.1l0.5,2.3l2,3.1l0.9,2.4l1.6,1.6l0.9,1.8l1.2,1.2l0,0.5l1.2,1.2l0,0.5l1.7,1.6
		l0.9,1.5l0.4,1.9l0.5,1l2,2l0.5,1.8l1.1,1.6l3.9,1.2l1.2,1.4l0,1.3l0.4,0.4l0.1,1l0.8,0.7l0,0.5l1.7,1.1l2.6,0l0.4,0.5l0.9-0.1
		l0.7,0.8l2.7,0.4l2.1,1.3l0.9,0l0.8,0.8h0.5v0.5l1.6,1.6l1.6,0.6l1.1,2l1.5,1.4l1.1,2.9l2.1,2.4l0.7,2.1l4.3-0.5l1.8-0.8l4-0.4
		l2.3,0.9l0.4,1.1l0.4,0.6l0.6,0l0.7-0.9l-0.4-0.8l1.7,0l0.8,0.4l0.8,1.8l1.3-0.1l0.5-0.5l2.1,0l1.2,1.3h3.3l0.6,0.5l1.1,0l1-0.5
		l-1.3-5.5l4.2-0.1l2.2-1.7l0.7-1.2l0.8,0.1l0.2,1.3l0.8,0.3l-0.4,0.8l0.1,1.3l1.6,2.1l0.1,0.9l0.8,0.5l0,1.2l-0.4,0.8l-3.1,0.5
		l-0.7,0.8l0.4,0.4l0,1.8l1.6,1.1l1.1-0.3l0.5,1.1l1.1,0.2l1.2,2.1l0.9,0.4l0.9,0.4l-2.1,3l1.7,2.7l0,2l0.4,0.5l2.1-0.4l2.5,1.1
		l0.9-0.4l2.6,0l-0.1,1.7l0.9,0.9l1.1,0.5l0,0.7l0.5,0.7l-0.2,0.7l-0.6-0.6l-0.1-0.7l-0.7-0.3l-1.6-0.1l-0.5,0.5l-0.5-0.1l-0.5,1
		l0.4,0.4h1.4l0.8,0.4l0,0.8l-0.7,0l-0.8,0.8l-1.2,0l-2.6,2.6l0,0.5l-0.4-1l-0.5-0.3l-1.3,0l-2.5,3v0.4l-1.3-0.4l0-1.5l-0.4-0.3
		l-3.3,0l-0.5,0.4l-0.4,1.4l-0.4,0l-0.8-0.9l-1.4,0l0.8-0.9l-1.2-1.2l-3.9,0l-1.3-0.9l-0.3-1.4l1.5-0.6l1,0l0.4-0.5l0-3.8l-0.6-0.5
		l-1.2,0l-1.6,1.7l-1.7,0.9l-1.7,0l0.8-1.7l0-2.1l-0.8-0.5l-0.1-0.4l-0.7-0.8l-1,0.4l-0.4,1.7l-0.4,0.4l-0.1,0.8l0.5,0.6l0,1.1
		l-0.5,0.5l-3,0l-0.8,1.3v0.8l-1.2,1.7l-0.1,1.3l-0.5,0.8l-1.3-0.1l-1.3-0.9l-2.1,0.1l-0.5-0.4l-0.3,0.4l-0.5,0l-2.4,2.5l-3.1,1.8
		l-0.4,0.9l0.1,1.7l-1,0.4l0,0.9l-1.3,0l-0.8,0.9l-1,2.2l-0.6,1.6l0.3,0.4l-0.4,0.4l0.1,1.3l-1.4,1.3l0,1.2l1,0.6l5.4,0.2l1.1,0.7
		l0,0.9l0.5,0.5l-0.1,1.2l-1.7,0l-0.7,0.8l-0.5,3.1l1.3,0.8l3.3-0.1l0.9,1l-0.1,4.1l-1.3,1.8l-0.4,1.7l0.4,0.3l0.1,0.9l1.7,1.6
		l2.2,0.4l0.4-0.5l1.7,0l1.8,2.2l0,2.1l0.8,1.3l0.7,0.7l1.8,0.5l0.5,0.5l2.5,0l1.2-0.9l1.8-0.4l1.6-2.2l0.8-4.7l1.7-1.7l0.9,0
		l1.2-0.9l1.3,0l0.5-0.4l2.9-0.4l3-1.2l1.5,0l1,0.5l0.4,1l1.9,1.8l1.4,0.5l0.9,0.9l0.9-0.1l0.4-0.4l-0.1-0.9l-0.9-0.6l0.9-1.8
		l0.8,0.1l0.9,1.4l-0.1,1.2l0.5,0.4l0.3,1.2l0.9,0.8l1-0.1l0.4-0.4l0.2-0.1l1,0.1l0.4,0.4l1.2,0.3l1.1-0.4l0.3-0.4l-0.8-1.5l0.4-1.3
		l-0.7-2l0.3-0.1l1.5,2.5l0.9,0.1l0.5-0.5v-1l0.9-2.2l0.4-0.6l0.8,0.1l1.5,2.9l-0.4,1l-0.6,0.2l0,0.6l1.8,2.1l1.2-0.1l2-1.2l0.7-1
		l2,0.1l1.6,2l1.5,0.2l1.7,1.6l3.3-0.9l0.7,0.5l1.8,0l1.1,0.8l2.2-0.1l1,0.8l1.3,0l0.5-0.4h0.8l3.8-1.4l1.6-0.7l0.8-1.9l0.4,1
		l2.3,0.1l0.5,0.8l-0.6,1.2l0.1,1.9l1.4,1.2l2.4,2.5l1.4,0.5l1.1,2.4l0.4,0.1l1.4-1.3l1-0.2l0.9-1.1l0.1-0.9l0.9-1.8l1.7-1.8
		l0.7-0.2l0.5-1l2-1.5l1-0.1l0.7-0.6l0-0.9l1.3-0.1l0.5,0.4l3.8,0.1l0.7,1.3l0.5,2.3l-2.2,2l0.6,1.1l-1,0.1l-1.3-0.9l-0.4-0.1
		l-0.8,1.4l-0.1,3.3l-0.9-0.4L492,391l-1.6-1.7l-1.3,0l-0.5,0.4l0.1,2.1l1.7,3.1l-0.6,2.7l-1.6,2l-0.4,1.6l-0.8,1.3l-1.8,1.3
		l-1.1,0.6l-0.2,1.2l0.9,1l1.8,1l1.1,1l-0.7,1.9l1.2,1.2l0.1,0.8l0.6,0.6l3.1,1.5l0.1,2.1l0.8,0.4l3.4,1.3l2.2-0.9l1.1,0.5l0.6,0
		l0.5-0.5l1.7,0l1.4-0.9l0.2-2.5l1.3-2l0.6-0.3l0.9-0.8l0.2-0.7l1.7-1.2l1.7,1.3l1.6,0l0.5-0.6l0-1.4l-0.6-0.7l-2-0.2l-0.3-0.5
		l0.5-1.8l-0.3-0.7l-0.7-0.2l-0.6,0.4l-0.2-1l-1.2-0.2l0.6-1.7l2.3,0l1.2,1.5l0.1,0.7l0.9,0.4l1.9-0.6l0.7-0.7l-0.4-0.8l0.6-0.6
		l0.1-2.6l1.1-0.3l0.7-1.2l1.6,0.1l0.4-0.3l0.5-2.2l0.4-0.3l0.4-1.7l0-3.8l0.7-0.2l1.2-2.2l1.1-0.2l0.8-0.8l2.6-0.1l0.6-0.5
		L526.7,384.9z M523,391.5l-0.9,1.4l0.2,0.4l0.4,0.2l0.6-0.3l0.6-0.9l-0.2-0.3L523,391.5z M484.4,266.8l1.3,1.7l1,0.3l1.1-1l1.6-0.2
		l2.4,0.5l0.4-1.5l-0.8-0.9l-3.6-1.4l-1,0l-0.5,0.5l-0.9,0l-0.5-0.4l-0.7,0l-0.7,0.5l-1.1-0.4l-0.4,0.7l0.5,1.1l1.2,0.6L484.4,266.8
		z M481.9,269.4h-1.2l-0.5,0.5l0,0.7l0.5,0.5l0.9-0.1l0.7-0.7L481.9,269.4z M482.4,272.4l0.4-0.3l0.1-0.4l-0.5-0.6h-0.2l-0.9,0.8
		l0.2,0.5H482.4z M428.3,340.2l0.3-0.3l0-0.7l-0.2-0.2l-0.6-0.1l-0.5,0.5v0.4l0.5,0.3H428.3z"/>
</g>
</svg>
