<?xml version="1.0" encoding="utf-8"?>

<svg version="1.2" baseProfile="tiny" xmlns="http://www.w3.org/2000/svg" xmlns:xlink="http://www.w3.org/1999/xlink" x="0px"
	 y="0px" viewBox="286.3 172 267.3 250" xml:space="preserve">

<g id="Malta">
	<g>
		<polygon fill="#CF142B" points="464.1,280.4 464.4,280.1 464.4,279.3 464.1,279 463.5,279 463.2,279.3 463.2,280 463.5,280.4
			"/>
		<polygon fill="#CF142B" points="550.6,354.4 550.1,353.6 547.2,353.7 546.6,354.4 544.4,355.1 544.1,354 544.9,352.9 546.6,352.9
			547.2,352.3 551.7,352.3 552,351.2 550.9,349.8 549.7,346.3 547.8,343.9 544.9,343.2 543.8,341.1 543.3,341.1 542.1,339.7
			540.4,339.7 538.7,338.3 535.9,334.2 534.2,333.4 532.5,331.3 529.1,329.2 528,327.9 525.7,328.6 525.2,327.8 522.9,327.2
			521.8,325.7 517.2,325 516.9,326.8 519.2,329.6 518.4,329.9 517.2,329.3 516.4,330.3 518.7,333.1 517.8,333.4 517.2,332.7
			516.6,332.7 514.4,329.9 512.4,330.3 512.4,331.7 515.2,335.9 515.2,337.3 514.4,337.6 513,333.8 511.6,332 510.2,332.4
			512.4,338 512.1,339.7 510.8,338 510.7,335.9 509.9,334.8 508.2,335.5 507.6,336.2 505.9,336.2 504.8,336.9 503.4,338.7
			503.4,340.8 502.5,341.8 499.5,340.8 501.7,340.1 501.7,337.3 504.2,334.8 505.9,334.8 506.2,333.1 507.1,332 507.6,332
			511,327.9 512.7,327.9 514.7,326.1 514.1,325.4 514.7,324 514.4,320.9 513.9,321.6 509.3,321.5 507.6,323.6 506,324.4
			504.8,325.7 503.7,325.7 499.7,329.9 499.4,328.2 495.5,328.2 495.8,327.2 498.6,327.2 499.2,326.4 501.7,326.1 501.7,324.7
			499.7,323 498.6,323 497.7,320.5 500.3,318.1 503.7,317.4 505.9,318.8 507.7,318.8 508.8,320.2 510.4,320.2 511.9,318.5
			511,316.7 509.4,316 508.2,314.6 506.5,314.6 506.2,313.5 506.8,311.4 504.2,310.4 501.4,308.3 500.3,308.3 499.2,310.4
			497.4,310.4 496.9,311.1 495.5,308.7 496.9,308.3 497.8,307.3 497.7,305.1 497.2,304.5 498.9,301.7 497.4,301.3 496.9,302
			494.1,302 493.5,302.7 493.5,301.3 495.2,301.3 496,300.3 496,299.6 494.1,297.8 491.8,297.8 488.7,294.7 487.9,293 485,292.3
			484.5,291.6 483.3,291.6 482.2,293 479.4,292.9 478.8,293.7 476,292.9 473.7,291.6 472.6,289.5 472,290.2 470.6,289.8
			470.6,286.3 469.7,284.6 468.4,284.9 467,288 465.5,286.3 465,283.5 463.5,281.1 462.4,280.3 460.7,280.4 458.4,279 457.9,278.3
			455.6,278.3 454,281.6 454,385.8 455.1,386.4 457.3,386.5 457.6,387.5 459.6,389.2 460.1,388.5 461.3,388.5 463,389.9
			465.8,390.6 468.6,392.7 470.3,392.7 472,389.9 473.7,391.3 475.4,390.6 476,391.3 477.7,391.3 481.6,395.5 486.2,396.2
			486.7,395.5 489,395.5 490.6,396.9 492.4,396.9 492.9,396.2 495.7,396.2 496.9,397.6 500.3,397.6 501.9,399 504.2,399
			505.4,400.4 508.8,402.5 511,402.5 512.1,403.2 512.7,402.5 516.1,402.5 516.7,401.8 517.2,402.5 521.2,401.8 521.8,402.5
			525.7,401.8 530.2,399 530.5,397.9 530,397.2 529.1,394.1 527.9,393.4 526.9,394.1 525.7,392 522.6,391 521.5,386.8 523.4,386.4
			524.3,385.4 524.3,384 522.6,382.6 523.5,381.6 526.3,381.5 526.9,380.8 528,380.9 529.7,383.6 530.8,383.6 531.3,384.4
			532.8,384 533.3,381.9 532.8,377.7 531.6,377 532,374.6 533.1,376 534.2,376 536.5,378.8 539.3,380.1 540.2,381.9 539,388.2
			540.1,389.6 540.7,392.3 541.6,392.7 543.6,391.7 544.1,390.3 543.5,388.2 545.2,384 544.1,381.9 544.6,379.1 543.3,378.7
			541.9,376.3 543.8,376 545.5,377.4 545.8,375.6 544.1,373.5 545.5,372.5 547.2,373.2 548.3,374.6 550.9,374.2 550.9,372.8
			550,371.1 548.3,371.1 547.5,370.1 548.9,367.6 551.2,367.6 551.1,365.5 546.1,365.5 544.7,363.1 546.1,362.1 547.8,363.4
			548.6,362.4 548.6,361 550.3,359.6 550.6,358.5 551.7,357.9 553.4,357.9 553.7,356.1 552.3,354.4 		"/>
		<polygon fill="#CF142B" points="454.8,273.7 454,272.9 454,274.7 		"/>
		<polygon fill="#CF142B" points="504.2,319.5 500.3,319.5 499.4,321.2 500.9,323 503.1,322.9 503.7,323.7 504.8,323.7 506.8,320.6
			504.8,320.2 		"/>
		<polygon fill="#FFFFFF" points="435,421.6 435,420.9 434.7,420.6 433.6,420.6 433.3,420.9 433.3,421.7 433.6,422 434.7,422 		"/>
		<polygon fill="#FFFFFF" points="381.4,230.4 381.4,229.7 379.4,227.9 377.7,227.9 377.4,229.7 378.2,230.7 		"/>
		<polygon fill="#FFFFFF" points="437,267.8 436.7,268.8 436.9,269.2 439.2,269.2 439.5,268.2 438.1,267.1 437.5,267.8 		"/>
		<polygon fill="#FFFFFF" points="453.9,281.8 452.2,282.5 451.1,283.9 450.3,282.8 450.8,277.9 452.3,275.5 453.4,275.5 454,274.7
			454,272.9 453.9,272.7 452.8,272.7 452.3,273.4 450.5,273.4 449.4,274.1 447.2,276.2 445.4,275.5 444.3,279.7 442.1,280.4
			441.5,279.7 440.4,279.7 438.1,282.5 434.7,282.5 434.2,281.8 432.4,281.8 431.9,282.5 430.7,283.2 430.2,282.5 429.6,283.1
			428.5,283.1 426.8,285.3 424.5,285.3 424,286 423.1,285.6 423.1,284.2 425.9,281.4 426.5,279.3 427.6,277.9 427.6,276.5
			426.8,276.2 426.8,275.5 429,275.5 430.2,276.2 431.6,274.5 432.2,270.9 431,270.3 432.2,268.9 432.2,267.4 430.2,266.4
			429.6,267.1 427.9,267.1 427.4,266.4 425.1,266.4 424.5,265.7 423.4,265.7 422.8,266.4 420.6,266.4 419.4,264.3 417.8,264.3
			415.5,265.7 410.4,266.4 409.8,267.1 406.5,267.1 405.9,267.8 402.5,267.8 401.9,268.5 401.1,267.4 401.1,266 399.4,264
			399.3,263.3 400.8,261.6 403.1,261.5 404.2,260.9 404.7,259.4 405.9,259.4 408.1,256.6 408.7,256.6 409.8,253.8 413.8,253.8
			414.3,253.1 415.5,253.1 417.5,250.7 416.3,248.6 415.8,245.8 415,245.5 414.7,244.4 412.1,241.9 411,242.7 408.1,242.7
			407.8,245.8 409,246.5 408.7,246.9 407.6,246.9 405.8,248.3 401.9,247.6 401.1,248.6 401.1,250 400.2,251 399.1,249.7 398,249.7
			396.8,251.1 395.7,251.1 395.1,250.4 392.9,250.4 392.3,251.1 390.6,251.1 390,250.3 386.1,250.3 385.5,249.7 383.8,250.3
			383.8,251.7 385,251.8 386.7,253.1 387.8,253.1 388.1,254.2 387.2,255.2 385.5,255.2 384.4,257.3 383.3,258.1 382.1,257.3
			381.3,258.4 381.3,259.8 379.6,262.6 379,265.3 380.5,266.4 382.1,266.4 382.7,267.1 385,267.1 385.5,266.4 389.5,266.4
			390.9,269.6 390.9,271.6 390.3,272.4 390.6,274.1 393.7,274.5 391.5,275.1 392,279.4 392.3,279.7 392.9,279 393.2,280
			391.5,281.4 391.5,283.5 390.6,283.9 388.9,286.7 386.7,286.7 385.8,287.7 385.3,291.2 386.4,291.9 387.2,293.6 390,292.9
			392.3,295.7 394.6,295.7 395.4,296.8 394.9,298.9 396,300.3 392,300.3 392.3,302 394.8,303.1 394.3,305.2 394.9,305.8 394,306.9
			392.3,304.8 390,304.8 389.5,304.1 388.6,305.1 388,308 387,308.6 386.9,310.8 389.5,312.5 389.8,312.9 389.2,313.6 391.5,315.6
			392.6,317.7 389.5,319.5 385.5,318.1 385.3,319.8 386.4,321.2 384.7,327.5 386.7,327.8 389.2,330.3 389.8,331.7 390.9,334.5
			390.9,338.6 390.3,340.7 391.7,342.5 392.3,342.5 393.7,344.2 393.8,345.6 394.6,346.7 395.7,346.7 396.3,348.1 397.4,348.8
			399.1,348.8 399.6,349.5 401.9,349.5 401.6,351.2 402.5,352.3 403.6,353 405.3,353 407.3,355.4 407.3,357.5 408.7,357.9
			409.3,358.6 410.4,358.5 413.8,362.7 414.9,363.4 417.2,363.4 418.9,366.2 420,366.9 422.8,366.9 426.3,369.7 430.5,372.2
			431,374.3 430.5,374.9 430.7,376 433.6,376 434.7,377.4 435.8,378.1 438.1,378.1 438.7,378.8 442,378.8 443.2,379.5 443.5,381.9
			444.9,384.3 446,385 447.7,385 448.3,385.7 452.2,385.7 452.8,385 454,385.8 454,281.6 		"/>
		<polygon fill="#FFFFFF" points="373.4,220.6 374.3,221.6 375.4,221.7 376.3,220.6 373.7,219.5 		"/>
		<polygon fill="#FFFFFF" points="436.7,421.6 436.7,420.9 436.4,420.6 435.9,420.6 435.6,420.9 435.6,421.6 435.8,422 436.4,422
			"/>
		<path fill="#FFFFFF" d="M381,218.2h2.9l3.4-2.1l2.2,0l0.8-1l-0.6-4.9l-3.1-3.1h-0.6l-0.2-1.1l-3.7-4.5l-3.9-3.5l-0.6,0.7l-1.1,0
			l-2-2.4l-0.9-4.5l-2.8-0.7l-1.7,1.4l-3.4,0l-1.7-2.8l-2.3-0.7l-1.7-2.8h-2.3l-1.4,1l-0.3,1.1l-2.2,0.7l-2-1.7l-0.8-1.8H350
			l-0.6,0.7l-1.1-0.7l-2.9-4.1l-2.8-2.1l-2.2-0.7l-2.3,1.4l-0.3-1.7l-1.4-1.7l-2.8,0l0-2.8l-2.3,0.7l-1.1-1.4l-1.1,0l-0.6,0.7h-1.7
			l-1.6-1.4l-2.9,0l-0.6,0.7l-0.5-0.7l-2.3,0l-0.6,0.7l-2.2-0.7l-1.1,0.7l-1.1-0.7l-2.2,1.4l-0.1-0.2V189c3.4,0,6.7,3.4,6.7,6.7
			h20.2v20.2h-20.2c0,3.4-3.4,6.7-6.7,6.7v1.1h1.8l0.5,0.7h1.1l2.3-1.4l2.2,1.4h4l0.6,0.7l4.5,0.7l0.6,0.7l1.1-0.7l1.7,0l2.6,2.4
			l0.8,1.8h2.2l2.3,2.1l1.7-0.7l0.6-1.4l1.7-1.4l2.8-0.7l0.5-2.8l1.7,2.1l1.1,0.7l2.2,0l1.1-1.4l2.8,0l0.6-0.7l1.1-0.7l2.3,0.7
			l2.2-1.3l1.4-1.8l0-1.4l2-1.8l1.7-1.4l2.3,1.4l1.1,0l1.7-1.4l0.6,0.7l1.7,0l0.6,0.7h4.5L381,218.2z"/>
		<polygon fill="#FFFFFF" points="385.3,219.2 385.3,219.9 385.6,220.3 387.3,220.2 388.1,219.2 388.1,218.5 387.9,218.1
			386.1,218.1 		"/>
		<polygon fill="#FFFFFF" points="384.4,234.2 383.3,236.3 382.4,236.7 382.7,237.7 384.5,237.7 385,237 385.6,237.7 388.4,237.7
			390.1,236.4 391.2,237 393.5,237.1 394.1,236.3 398,236.3 401.1,233.2 400.3,231.4 399.7,231.4 397.4,228.7 395.7,227.2
			394.6,227.2 392.9,224.4 391.8,224.4 390.6,225.8 389.6,225.1 389,224.5 387.3,224.4 386.7,225.9 385.6,224.4 383.3,225.2
			382.7,224.5 381.6,224.5 380.8,225.5 381.3,226.2 381.3,226.9 381.9,227.6 381.9,230.4 382.7,232.1 385.9,232.5 385,234.2 		"/>
		<polygon fill="#FFFFFF" points="434.2,269.2 433.6,269.2 433.3,269.5 433.3,271 433.6,271.3 434.7,271.3 435.6,270.2 435.6,268.8
			435.3,268.5 434.7,268.5 		"/>
		<path fill="#FFFFFF" d="M291.3,178.9l-3.5-0.6l-1.4,2.4l0,2.1l2,4.6l2.3,0.7l0.1,1c0.2,0,0.4,0,0.5,0V178.9z"/>
		<polygon fill="#FFFFFF" points="441,419.2 438.7,419.2 438.1,418.5 437,418.5 436.7,419.5 437.5,420.6 441.2,420.2 		"/>
		<path fill="#E60D2E" d="M318.1,215.9h20.2v-20.2h-20.2c0-3.4-3.4-6.7-6.7-6.7v-15.8l-0.4-0.5h-0.9v17.7c0.3,0,0.7,0,1,0.1
			c1.2-0.8,3.2-0.4,4.6,1c1.4,1.4,1.8,3.3,1,4.6c0.1,0.3,0.1,0.7,0.1,1h20.2v17.5h-20.2c0,0.3,0,0.7-0.1,1c0.8,1.2,0.4,3.2-1,4.6
			c-1.4,1.4-3.3,1.8-4.6,1c-0.3,0.1-0.7,0.1-1,0.1v0.3l0.9,2.2h0.5v-1.1C314.8,222.6,318.1,219.2,318.1,215.9z"/>
		<path fill="#E60D2E" d="M292.6,190.3v-11.5l-0.3,0.2l-1.1-0.2V189c-0.2,0-0.4,0-0.5,0l0.1,1.1c0.3,0.1,0.5,0.2,0.7,0.3
			C291.9,190.4,292.3,190.3,292.6,190.3z"/>
		<path fill="#96877D" d="M316,196.7c0.1,0.3,0.1,0.7,0.1,1h20.2v16.1h-20.2c0,0.3,0,0.7-0.1,1c0.1,0.1,0.2,0.2,0.3,0.3
			c0.1,0.1,0.2,0.3,0.3,0.4c0.1-0.3,0.1-0.7,0.1-1h20.2v-17.5h-20.2c0-0.3,0-0.7-0.1-1c-0.1,0.2-0.2,0.3-0.3,0.4
			C316.2,196.6,316.1,196.7,316,196.7z"/>
		<path fill="#96877D" d="M310.4,191.1c0.1-0.1,0.2-0.2,0.3-0.3c0.1-0.1,0.3-0.2,0.4-0.3c-0.3-0.1-0.7-0.1-1-0.1v-17.7h-0.2
			l-0.4,0.5V191C309.7,191,310.1,191.1,310.4,191.1z"/>
		<path fill="#96877D" d="M291.6,190.5c0.2,0.1,0.3,0.2,0.4,0.3c0.1,0.1,0.2,0.2,0.3,0.3c0.3-0.1,0.7-0.1,1-0.1v-12.8l-0.7,0.6v11.5
			C292.3,190.3,291.9,190.4,291.6,190.5z"/>
		<path fill="#96877D" d="M311.1,221.1c-0.2-0.1-0.3-0.2-0.4-0.3c-0.1-0.1-0.2-0.2-0.3-0.3c-0.3,0.1-0.7,0.1-1,0.1v0.1l0.4,0.3
			l0.2,0.6v-0.3C310.4,221.2,310.7,221.2,311.1,221.1z"/>
		<path fill="#CCCCCC" d="M289.8,202l0.4,0.2c0.1,0.1,0.2,0.1,0.3,0.1c0,0,0,0,0,0l0.2-0.2l0,0l0,0l0.2-0.3l0-0.3l-1.1,0.3V202z"/>
		<path fill="#CCCCCC" d="M290.7,203.5l-0.4,0.4l0,2.1l-1.6,2.4l0.7-0.2l0,0.1c-0.1,0-0.2,0.1-0.2,0.1c0,0-0.1,0.1-0.1,0.1
			c0,0,0,0.1,0,0.2l0.1,0.4l0.7-0.2c0.1,0,0.2-0.1,0.2-0.1c0,0,0,0,0.1-0.1c0-0.1,0-0.1,0-0.2l0-0.1l0.1,0l0.2,1l-0.1,0l0-0.1
			c0-0.1-0.1-0.2-0.1-0.2c0,0-0.1,0-0.3,0l-1.5,0.4c-0.1,0-0.2,0.1-0.2,0.1c0,0,0,0-0.1,0.1c0,0.1,0,0.1,0,0.2l0,0.1l-0.1,0
			l-0.2-0.7l-0.2,0.3c0.2,0.8,0.5,1.6,0.9,2.3l1.9,0l1.7,1.4l1.1,0c-1.9-2-3-4.7-3-7.5C290.5,205,290.6,204.2,290.7,203.5z"/>
		<path fill="#CCCCCC" d="M288.2,209.3l0.9-0.2l-0.1-0.4c0-0.1-0.1-0.2-0.1-0.2c-0.1,0-0.1,0-0.3,0l-0.5,0.7L288.2,209.3
			L288.2,209.3z"/>
		<path fill="#CCCCCC" d="M292.3,191.1c0.8,1.2,0.5,3-0.8,4.4c2.7-2.6,6.1-4,9.8-4c3.7,0,7.2,1.4,9.8,4c-1.3-1.4-1.6-3.2-0.8-4.4
			c-0.3-0.1-0.7-0.1-1-0.1v-17.8l-0.1,0.2l-2.2,0l-2.2,1.4h-4.5l-2.8,2.8l-1.1,0l-0.6-0.7l-0.6,0.7l-1.1,0l-0.8,0.6V191
			C292.9,191,292.6,191.1,292.3,191.1z"/>
		<path fill="#CCCCCC" d="M296.9,198.2c0.3,0.1,0.7,0.1,1,0.2C297.7,198.3,297.3,198.2,296.9,198.2L296.9,198.2z"/>
		<path fill="#CCCCCC" d="M289.8,202.4L289.8,202.4l0.3,0.4l0.2-0.2c0,0-0.1,0-0.1-0.1L289.8,202.4z"/>
		<path fill="#CCCCCC" d="M290.1,196.7l0.1,0.3c0.3-0.3,0.6-0.7,0.9-1C290.8,196.2,290.4,196.5,290.1,196.7z"/>
		<path fill="#CCCCCC" d="M310.4,220.5c-0.8-1.2-0.5-3,0.8-4.4c-1.2,1.2-2.6,2.1-4.2,2.8l0.6,0.7l1.8,1.1v-0.1
			C309.7,220.6,310.1,220.5,310.4,220.5z"/>
		<path fill="#CCCCCC" d="M313.7,204.8L313.7,204.8C313.7,204.8,313.7,204.8,313.7,204.8C313.7,204.9,313.7,204.9,313.7,204.8
			c0,0.3,0.1,0.5,0.2,0.6c0.1,0.1,0.2,0.2,0.4,0.2c0.2,0,0.3-0.1,0.4-0.2c0.1-0.1,0.1-0.2,0.1-0.4c0-0.1,0-0.2,0-0.3L313.7,204.8z"
			/>
		<path fill="#CCCCCC" d="M298.5,212.1l1.1-0.1c0.1-0.1,0.2-0.3,0.3-0.4c-0.6-0.3-1-0.4-1.2-0.4c-0.2,0-0.3,0-0.4-0.2
			c-0.1-0.2,0-0.4,0.1-0.7c0.1-0.3,0.2-0.7,0.1-0.9c-0.8-0.2-2-0.9-2.4-1.8c-0.4,0.2-0.8,0-1.2-0.2c-0.3-0.2-0.6-0.3-0.8-0.2
			c0,0-0.1,0.1-0.1,0.1c0,0.1,0.2,0.3,0.4,0.5c0.2,0.2,0.5,0.5,0.5,0.8c0,0.5-0.6,0.8-0.7,0.8c0,0.1,0.1,0.3,0.2,0.4l0.1,0.1h-0.2
			c0.1,0.1,0.2,0.5,0.1,0.7c-0.1,0.2-0.6,0.2-0.7,0.2c-0.1,0.2-0.2,0.6-0.1,0.8l0,0.1l-0.1,0c-0.2,0-0.3-0.2-0.3-0.4
			c0,0,0-0.1,0-0.1c0,0,0,0,0,0c-0.1,0-0.2,0-0.2,0l0,0l-0.2-0.5l0-0.4l-0.2-0.2c-0.1-0.1-0.3-0.4-0.1-0.7c0.1-0.1,0.2-0.2,0.4-0.3
			c0.2-0.1,0.5-0.3,0.5-0.4c0-0.1,0-0.2-0.1-0.3c-0.4-0.6-0.7-1.7-0.1-2.2c0.3-0.3,0.9,0,1.4,0.2c0.4,0.2,0.9,0.4,1.2,0.3
			c0.2-0.8,0.6-1.2,1.1-1.6l-1-0.9l-0.1-0.1c0,0-0.1,0-0.1,0c-0.1,0-0.1,0-0.1,0c0,0,0,0,0,0c-0.1,0-0.2-0.1-0.3-0.1c0,0,0,0,0,0
			c0,0-0.1,0-0.1,0c-0.1,0-0.1-0.1-0.1-0.2c0,0-0.1,0-0.1,0c0,0-0.1-0.1-0.1-0.2c-0.2-0.2-0.4-0.4-0.3-0.6c0.1-0.1,0.3,0,0.5,0
			c0,0,0-0.1,0-0.1c0-0.1,0-0.3,0.1-0.5c-0.2,0.1-0.4,0.3-0.6,0.5c-0.4,0.4-0.8,0.7-1.3,0.7c0,0,0,0,0,0c-0.3,0-0.6-0.2-0.9-0.5
			l-0.1-0.1l0.1,0c0.1,0,0.2-0.1,0.2-0.1c0-0.1,0-0.1,0-0.2c-0.3,0.1-0.5,0.1-0.6,0c-0.1-0.1-0.2-0.3,0-0.7c0,0,0-0.1,0-0.2
			l-1.3,1.2c-0.2,0.8-0.3,1.7-0.3,2.6c0,2.8,1.1,5.5,3.1,7.5l0.3,0l0.5,0.7l1.1-0.2l-0.7-0.6l2.4,0.1l-2.9-0.5l0-0.1l2.2,0l1.3-0.1
			l0,0l0.1,0L298.5,212.1L298.5,212.1z"/>
		<path fill="#CCCCCC" d="M312,205.8c0-2.8-1.1-5.5-3.1-7.5c-2-2-4.7-3.1-7.5-3.1c-2.8,0-5.5,1.1-7.5,3.1c-0.7,0.7-1.3,1.5-1.8,2.3
			l0.4,0.7c0.1-0.3,0.3-0.5,0.6-0.5c-0.1-0.2,0-0.7,0.2-1.1c0.2-0.4,0.6-0.5,0.9-0.4c0-0.1,0.1-0.3,0.2-0.5c0.1-0.2,0.3-0.4,0.6-0.4
			c0-0.2,0.3-0.5,0.8-0.6l0,0l0,0c0.3,0.2,0.7,0.3,1.2,0.4l0-0.1c0.2-0.4,0.8-0.5,0.9-0.5c0-0.1,0.1-0.2,0.4-0.3
			c0.2-0.1,0.5-0.1,0.9,0.1c0.2-0.1,0.4-0.1,0.6-0.1c0.2-0.7,0.8-1.1,1.5-1.1c0.8,0,1.5,0.7,1.5,1.5c0,0,0,0,0,0
			c0.1,0,0.3-0.1,0.4,0c0.3-0.2,0.6-0.3,0.6-0.3l0,0l0,0c0,0,0.1,0.3,0,0.6c0.4,0,0.9,0.1,1.4,0.2c0.3,0.1,0.7,0.2,0.9,0.2l0,0l0,0
			c0.2,0.4,0.2,0.6,0.1,0.8c0,0.1-0.1,0.1-0.1,0.2c-0.1,0.1-0.2,0-0.2,0c-0.1,0.1-0.3,0.2-0.5,0.2c-0.2,0.2-0.5,0.6-0.9,0.9
			c0.4,0.5,0.9,1.2,0.8,1.5c0.3,0.2,0.7,0.7,0.8,0.8c0.2-0.1,1.1-0.6,1.4-1.1l0,0h0c0.4,0,0.9,0.2,1.3,0.4c0.3,0.1,0.6,0.3,0.8,0.3
			l0,0l0,0c0.6,0.5,1.2,1,1.2,1l0,0l-0.1,0c0,0-0.4,0.3-0.7,0.2c-0.2,0-0.3-0.1-0.4-0.3c-0.1,0-0.3-0.1-0.5-0.2
			c-0.4-0.2-1.1-0.6-1.8-0.4c0,0.8-0.7,1.4-1.1,1.7c0.3,0,1.1,0,1.5,0.2c0.6,0.5,1.5,1.2,1.5,1.2l0,0l0.8,1.4l-0.1,0
			c0,0-0.7,0.1-1-0.7c0,0.1-0.1,0.1-0.1,0.2c-0.1,0-0.2-0.1-0.3-0.3c-0.2-0.3-0.4-0.7-1-1c-0.3,0-0.5,0.1-0.8-0.2
			c-0.2,0-0.4,0.1-0.6,0.2c-0.6,0.2-1.4,0.5-2.2,0.4c-0.1,0-0.2,0.1-0.3,0.1c0.1,0.2,0.2,0.4,0.3,0.6c0.1,0.1,0.4,0.3,0.7,0.5
			c0.2,0.2,0.4,0.3,0.5,0.4c0.6-0.6,1.4-1.3,1.8-1.2l0.1,0l-0.1,0.1c-0.5,0.4-0.8,1.1-0.9,1.8c0,0,0.1-0.1,0.1-0.1
			c0.4-0.3,0.8,0,1.1,0.3c0.2,0.2,0.3,0.3,0.5,0.3c0.1,0,0.2,0,0.2-0.1c0.1-0.1,0-0.2,0-0.3c-0.1,0-0.3-0.2-0.4-0.4c0,0,0,0-0.1,0
			c-0.2,0-0.4,0-0.5-0.1c-0.1-0.1-0.1-0.1-0.1-0.2l0-0.1l0.1,0c0,0,0,0,0,0c-0.3-0.2-0.4-0.5-0.4-0.5l0.1-0.1
			c0.2,0.1,0.6,0.3,0.9,0.4c-0.2-0.1-0.5-0.4-0.5-0.6c0-0.4,0.7-0.8,0.7-0.9l0,0l0.3,0.8l0.4,0l0,0c0,0,0.3,0.5,0.5,0.9
			c0.2,0,0.4,0,0.4,0l0,0l0,0c0,0,0,0.1,0,0.2c0.1,0,0.3,0,0.4,0l0.1,0l-0.1,0.1c0,0-0.1,0.1-0.2,0.1c0.1,0.1,0.3,0.2,0.3,0.2
			l0.1,0.1l-0.1,0c0,0-0.2,0-0.4,0c0.1,0.1,0,0.3,0,0.3l0,0.1l-0.1,0c0,0-0.3-0.1-0.5-0.3c-0.1,0.4-0.4,0.8-0.8,0.9
			c-0.3,0.1-0.6-0.1-0.9-0.3c-0.2-0.1-0.3-0.2-0.4-0.2c0,0-0.1,0-0.1,0.1c-0.1,0.2,0.1,0.5,0.3,0.8c0.2,0.3,0.4,0.6,0.5,0.9
			c0.3-0.2,0.8-0.6,0.9-0.6c0-0.2,0.1-1.1,0.5-1.2l0,0l0,0c0.1,0,0.1,0.1,0.1,0.2c0.1,0,0.2,0,0.3,0.1c0,0,0.1,0.1,0.1,0.2
			c0.1,0,0.1,0,0.1,0.1c0.1,0.1,0.1,0.3,0.1,0.3l0,0l-0.4,0.1l-0.3,0.5c0,0-0.5,0.8-1.1,1.3c0.2,0.1,0.4,0.3,0.5,0.3c0,0,0,0,0,0
			c0.2,0,0.3-0.5,0.3-0.7l0.1,0c0,0,0.1,0.2,0.1,0.2c0,0,0,0,0.1,0l0.1,0l0,0.1c0,0.2,0.2,0.2,0.2,0.2l0.1,0l0,0
			c0,0-0.2,0.5-0.7,0.6c-0.1,0-0.2,0-0.3,0c-0.3,0-0.7-0.2-1.1-0.4c-0.2,0.1-0.4,0.2-0.5,0.2c0,0-0.1,0.1-0.2,0.2l0,0l1.5,0.8
			l-1,0.8h-6.1l0.1,0.1l2.8,0l0.6,1.4l1.2,0c1.1-0.5,2-1.2,2.9-2.1C310.9,211.3,312,208.6,312,205.8z"/>
		<polygon fill="#CCCCCC" points="297.7,194.3 298.5,194.1 297.8,193.2 		"/>
		<polygon fill="#CCCCCC" points="308.6,196.1 308.8,195.1 307.9,195.7 		"/>
		<path fill="#CCCCCC" d="M316,214.9c0.1-0.3,0.1-0.7,0.1-1h20.2v-16.1h-20.2c0-0.3,0-0.7-0.1-1c-1.2,0.8-3,0.5-4.4-0.8
			c2.6,2.7,4,6.1,4,9.8c0,3.7-1.4,7.2-4,9.8C313,214.4,314.8,214.1,316,214.9z"/>
		<path fill="#CCCCCC" d="M287.5,210.1l0.8,1.8l0.2,0c-0.3-0.7-0.6-1.3-0.8-2L287.5,210.1z"/>
		<path fill="#CCCCCC" d="M315.3,205.8c0-3.7-1.5-7.3-4.1-9.9c-2.6-2.6-6.2-4.1-9.9-4.1c-3.7,0-7.3,1.5-9.9,4.1
			c-0.4,0.4-0.8,0.8-1.1,1.3l1.6,3.2c0.5-0.8,1-1.6,1.7-2.3c2.1-2.1,4.8-3.2,7.7-3.2s5.6,1.1,7.7,3.2c2.1,2.1,3.2,4.8,3.2,7.7
			c0,2.9-1.1,5.6-3.2,7.7c-0.8,0.8-1.6,1.4-2.6,1.9l1.4,1l-0.9,0.2c0,0,0,0,0,0c0.2,0.1,0.3,0.3,0.3,0.6c0,0.2-0.1,0.5-0.3,0.6
			c-0.2,0.1-0.5,0.1-0.7,0c-0.1,0-0.1-0.1-0.1-0.1l0,0.2l0.7,0.8c1.6-0.7,3.1-1.7,4.4-3C313.9,213,315.3,209.5,315.3,205.8z
			 M314.8,204L314.8,204l0.1,0.9c0,0.3,0,0.4,0,0.6c0,0.1-0.1,0.2-0.2,0.3c-0.1,0.1-0.2,0.1-0.4,0.1c-0.1,0-0.3,0-0.4-0.1
			c-0.1-0.1-0.2-0.2-0.3-0.4l-0.7,0.5c-0.2,0.1-0.3,0.2-0.3,0.3c0,0.1-0.1,0.2-0.1,0.3l-0.1,0l0,0h0h0l0-0.6l1.1-0.9
			c0-0.1,0-0.1,0-0.1c0,0,0,0,0,0c0,0,0,0,0-0.1l-0.7,0c-0.2,0-0.2,0-0.3,0.1c-0.1,0-0.1,0.1-0.1,0.2l0,0.1l-0.1,0l-0.1-1l0.1,0
			l0,0.1c0,0.1,0,0.2,0.1,0.2c0,0,0.1,0,0.3,0l1.6-0.1c0.2,0,0.2,0,0.3-0.1C314.8,204.3,314.8,204.2,314.8,204L314.8,204z
			 M295.7,196.2c-0.1,0.1-0.2,0.2-0.3,0.3c-0.4,0.3-0.8,0.3-1.1,0.2c-0.3-0.1-0.5-0.3-0.7-0.5c-0.1-0.2-0.2-0.4-0.2-0.6
			c0-0.3,0-0.5,0.1-0.7c0.1-0.2,0.2-0.3,0.4-0.5c0.1,0,0.1-0.1,0.2-0.1c0.1,0,0.2-0.1,0.3-0.1c0.1,0,0.1,0,0.1,0c0,0,0,0,0-0.1
			c0,0,0-0.1,0-0.1l0.1,0l0.5,0.6l-0.1,0c-0.2-0.1-0.3-0.2-0.4-0.2c-0.2,0-0.4,0-0.6,0.1c-0.3,0.2-0.4,0.4-0.4,0.7
			c0,0.2,0.1,0.5,0.2,0.7c0.1,0.2,0.3,0.3,0.5,0.5c0.2,0.1,0.4,0.2,0.5,0.2c0.2,0,0.3,0,0.4-0.1c0.1,0,0.1-0.1,0.2-0.2
			c0.1-0.1,0.1-0.1,0.1-0.2l-0.4-0.6c-0.1-0.1-0.1-0.2-0.2-0.2c0,0-0.1,0-0.1,0c0,0-0.1,0-0.2,0.1l0-0.1l0.8-0.5l0,0.1l0,0
			c-0.1,0.1-0.1,0.1-0.1,0.2c0,0,0,0.1,0.1,0.2l0.4,0.6C295.9,195.9,295.8,196.1,295.7,196.2z M298.7,195L298.7,195
			c0.1-0.1,0.1-0.1,0.2-0.2c0,0,0-0.1,0-0.1c0-0.1-0.1-0.1-0.1-0.2l-0.2-0.3l-0.9,0.2l-0.1,0.4c0,0.1,0,0.2,0,0.2c0,0,0,0.1,0.1,0.1
			c0,0,0.1,0,0.2,0l0,0.1l-0.7,0.2l0-0.1c0.1,0,0.2-0.1,0.2-0.1c0-0.1,0.1-0.2,0.1-0.4l0.3-2.1l0.1,0l1.3,1.7
			c0.1,0.1,0.2,0.2,0.3,0.3c0.1,0,0.1,0,0.2,0l0,0.1L298.7,195z M302.6,194.7l-1.9-0.1l0-0.1l0.1,0c0.1,0,0.2,0,0.2-0.1
			c0,0,0-0.1,0-0.3l0.1-1.6c0-0.2,0-0.2,0-0.3c0-0.1-0.1-0.1-0.2-0.1l-0.1,0l0-0.1l1.1,0l0,0.1c-0.1,0-0.2,0-0.3,0
			c-0.1,0-0.1,0.1-0.1,0.1c0,0,0,0.1,0,0.3l-0.1,1.5c0,0.1,0,0.2,0,0.2c0,0,0,0,0.1,0.1c0,0,0.1,0,0.3,0l0.2,0c0.2,0,0.3,0,0.4,0
			c0.1,0,0.1-0.1,0.2-0.1c0.1-0.1,0.1-0.2,0.2-0.3l0,0h0c0,0,0,0,0,0l0.1,0L302.6,194.7z M305.6,195.5l-1.8-0.6l0-0.1l0.1,0
			c0.1,0,0.2,0,0.2,0c0,0,0.1-0.1,0.1-0.2l0.5-1.5c0-0.1,0.1-0.2,0-0.3c0-0.1-0.1-0.1-0.2-0.1l-0.1,0l0-0.1l1,0.3l0,0.1
			c-0.1,0-0.2-0.1-0.3-0.1c-0.1,0-0.1,0-0.1,0.1c0,0-0.1,0.1-0.1,0.2l-0.5,1.4c0,0.1,0,0.2,0,0.2c0,0,0,0.1,0,0.1
			c0,0,0.1,0.1,0.3,0.1l0.2,0.1c0.2,0.1,0.3,0.1,0.4,0.1c0.1,0,0.2,0,0.2-0.1c0.1,0,0.2-0.1,0.3-0.3l0.1,0L305.6,195.5z
			 M308.7,196.9c0,0.2,0,0.3,0,0.4c0,0.1,0.1,0.1,0.1,0.2l0,0.1l-0.8-0.6l0-0.1c0.1,0.1,0.1,0.1,0.2,0.1c0,0,0.1,0,0.1-0.1
			c0,0,0.1-0.1,0.1-0.2l0.1-0.4l-0.8-0.5l-0.4,0.2c-0.1,0.1-0.1,0.1-0.2,0.1c0,0,0,0.1,0,0.1c0,0,0.1,0.1,0.2,0.2l0,0.1l-0.6-0.4
			l0-0.1c0.1,0,0.2,0.1,0.2,0.1c0.1,0,0.2-0.1,0.4-0.2l1.8-1.1l0.1,0L308.7,196.9z M310.8,199.9l0.6-2.4l-1.2,0.9
			c-0.1,0.1-0.2,0.2-0.2,0.2c0,0.1,0,0.1,0.1,0.2l0.1,0.1l-0.1,0l-0.5-0.7l0.1,0l0,0.1c0.1,0.1,0.1,0.1,0.2,0.1c0,0,0.1,0,0.2-0.1
			l1.3-1c0-0.1,0-0.2,0-0.2c0,0,0-0.1,0-0.2c0,0,0-0.1-0.1-0.1l0.1,0l0.4,0.5l-0.6,2.3l1.1-0.8c0.1-0.1,0.2-0.2,0.2-0.2
			c0-0.1,0-0.1-0.1-0.2l0-0.1l0.1,0l0.5,0.7l-0.1,0l-0.1-0.1c-0.1-0.1-0.1-0.1-0.2-0.1c0,0-0.1,0-0.2,0.1L310.8,199.9L310.8,199.9z
			 M312.1,202.6L312.1,202.6l-0.4-0.9l0.1,0l0,0.1c0,0.1,0.1,0.2,0.2,0.2c0,0,0.1,0,0.3,0l1.7-0.6l-0.1-0.3c0-0.1-0.1-0.2-0.1-0.2
			c0-0.1-0.1-0.1-0.2-0.1c-0.1,0-0.2,0-0.3,0l0-0.1l0.5-0.2l0.7,1.9l-0.5,0.2l0-0.1c0.1,0,0.2-0.1,0.2-0.1c0.1-0.1,0.1-0.1,0.1-0.2
			c0-0.1,0-0.1,0-0.2l-0.1-0.3l-1.7,0.6c-0.1,0-0.2,0.1-0.2,0.1C312,202.4,312,202.4,312.1,202.6L312.1,202.6z M312.3,208.2
			L312.3,208.2L312.3,208.2c0,0.2,0,0.3,0.1,0.3c0,0,0.1,0.1,0.2,0.1l0.6,0.1l1.1-0.4c0.1,0,0.2-0.1,0.3-0.1c0,0,0.1-0.1,0.1-0.1
			c0,0,0-0.1,0-0.1l0.1,0l-0.3,1l-0.1,0l0-0.1c0-0.1,0-0.1,0-0.2c0-0.1,0-0.1-0.1-0.1c0,0-0.1,0-0.3,0l-0.9,0.3l0.6,0.6
			c0.1,0.1,0.2,0.2,0.2,0.2c0,0,0.1,0,0.1,0c0,0,0.1,0,0.1-0.1c0,0,0-0.1,0.1-0.1l0.1,0l-0.2,0.8l-0.1,0l0,0c0,0,0-0.1,0-0.1
			c0-0.1,0-0.1-0.1-0.2c0-0.1-0.1-0.1-0.2-0.2l-0.7-0.8l-0.6-0.2c-0.1,0-0.2,0-0.3,0c-0.1,0-0.1,0.1-0.1,0.2l0,0.1l-0.1,0
			L312.3,208.2z"/>
		<path fill="#CCCCCC" d="M304.3,200.4c0.3-0.2,0.5-0.5,0.7-0.7c-0.3,0.2-0.8,0.3-1,0.3C304,200.1,304.1,200.3,304.3,200.4z"/>
		<path fill="#CCCCCC" d="M302,210.5c0.3-0.1,0.5-0.1,0.8-0.2c0.2-0.1,0.5-0.1,0.7-0.2c-0.1-0.1-0.2-0.2-0.3-0.3
			c-0.1,0-0.1,0-0.1,0.1c-0.1,0.1-0.1,0.2-0.4,0c-0.2,0-1.1,0.3-1.7,0.2c-0.1,0.1-0.4,0.3-0.6,0.1c-0.1-0.1-0.1-0.3-0.1-0.5
			c0-0.3,0-0.6-0.1-0.9c0,0.1,0,0.1,0,0.2c-0.1,0.4-0.3,0.9-0.6,1c0.1,0.5,0.5,0.7,0.8,0.9C300.8,210.4,301.2,210.1,302,210.5z"/>
		<path fill="#CCCCCC" d="M306.7,209.7c-0.1-0.1-0.4-0.5-0.5-0.8c0,0.2-0.1,0.5-0.1,0.6c0.1,0.1,0.2,0.3,0.3,0.4
			C306.6,209.9,306.6,209.8,306.7,209.7z"/>
		<path fill="#CCCCCC" d="M302.1,207.3c-0.4,0.2-0.6,0.2-0.8,0.2c0.2,0.5,0.3,1.1,0,1.5c0,0.1,0,0.1,0,0.2c0,0.1,0,0.2,0.1,0.2
			c0.2,0,1.3,0,1.7-0.2l0,0l0,0c0.3,0.2,0.8,0.6,1.1,0.8c0.3,0,0.6,0.1,0.9,0.3c-0.1-0.1-0.1-0.2-0.3-0.3c-0.1,0-0.1,0-0.2,0l-0.1,0
			l0-0.1c0-0.1,0-0.1-0.1-0.2c-0.1-0.1-0.3,0-0.3,0l-0.1,0l0-0.1c0,0,0-0.2-0.2-0.4c-0.1-0.1-0.2-0.1-0.3-0.1l-0.1,0l0-0.1
			c0-0.1,0-0.3,0-0.3c-0.2-0.2-0.6-0.2-0.6-0.2l0,0l0,0c0,0,0-0.2-0.2-0.3c-0.2-0.2-0.6-0.3-1.1-0.2l0-0.1c1.2-0.5,2.3-0.2,3.2,0.3
			c0-0.1,0.1-0.1,0.2-0.2c-0.1,0-0.2-0.1-0.3-0.2c0,0,0,0,0,0c-0.1,0-0.4,0-0.5-0.1c-0.1-0.1-0.1-0.3-0.1-0.4
			c-0.4-0.3-0.7-0.6-0.9-0.9c0,0,0,0,0,0C302.8,207,302.4,207.2,302.1,207.3z"/>
		<path fill="#CCCCCC" d="M290.6,200.7h-0.6l-0.3,0.3v0.3l0.8-0.2c0.2,0,0.3-0.1,0.3-0.1l0,0L290.6,200.7z"/>
		<path fill="#CCCCCC" d="M299.7,198.8c0.1,0,0.1,0,0.1,0c0,0,0.1-0.1,0.2-0.1c-0.1-0.1-0.2-0.3-0.3-0.5c-0.2,0.1-0.4,0.2-0.6,0.4
			c0.1,0,0.2,0.1,0.3,0.1C299.6,198.7,299.6,198.7,299.7,198.8z"/>
		<path fill="#CCCCCC" d="M301.5,203.1L301.5,203.1L301.5,203.1C301.4,203.1,301.4,203.1,301.5,203.1l-0.1,0.2
			C301.4,203.3,301.5,203.2,301.5,203.1C301.5,203.1,301.5,203.1,301.5,203.1z"/>
		<path fill="#CCCCCC" d="M301.7,211.2C301.7,211.2,301.7,211.2,301.7,211.2c0,0-0.1,0-0.1,0.1c0,0,0,0,0,0L301.7,211.2z"/>
		<path fill="#CCCCCC" d="M298,204.8c0.4-0.1,0.8-0.2,1.2-0.3c0.1,0,0.1,0,0.2,0c-0.4-0.3-0.8-1.3-0.9-1.9c-0.3-0.3-0.4-0.8-0.3-1.3
			c-0.1,0.2-0.5,0.5-1.2,0.8c-0.2,0.3-0.5,0.5-0.5,0.5c0,0.1-0.2,0.4-0.1,0.6c0,0.2,0.1,0.3,0.2,0.3c0,0,0.1,0,0.1,0.1
			c0,0.1,0.1,0.3,0,0.3c0,0,0,0,0,0l0,0L298,204.8z"/>
		<path fill="#CCCCCC" d="M301,199.5c0,0-0.1,0.1-0.1,0.1l0.4,0.2l0-0.1l0.4-0.3l0.1-0.2c-0.1,0-0.1,0-0.3,0
			C301.4,199.3,301.2,199.6,301,199.5z"/>
		<path fill="#96877D" d="M291.3,195.7c0.1-0.1,0.1-0.1,0.2-0.2c1.3-1.4,1.6-3.2,0.8-4.4c-0.1-0.1-0.2-0.2-0.3-0.3
			c-0.1-0.1-0.3-0.2-0.4-0.3c-0.2-0.1-0.5-0.2-0.7-0.3l0,0.4l1.2,1.4l0,1.4l-0.1,0.1l0.4,0.4l-0.5,0.5l-0.4-0.4l-1.6,1.5v0.6
			l0.1,0.2l0,0l0.2,0.5c0.4-0.2,0.7-0.4,1-0.7C291.1,195.9,291.2,195.8,291.3,195.7z"/>
		<polygon fill="#D0D0D0" points="289.8,196.1 289.8,196.1 289.8,196.2 289.9,196.2 		"/>
		<polygon fill="#D0D0D0" points="292.2,193.9 291.9,193.5 291.4,193.9 291.8,194.3 		"/>
		<path fill="#96877D" d="M310.4,191.1c-0.8,1.2-0.5,3,0.8,4.4c0.1,0.1,0.1,0.1,0.2,0.2s0.1,0.1,0.2,0.2c1.4,1.3,3.2,1.6,4.4,0.8
			c0.1-0.1,0.2-0.2,0.3-0.3c0.1-0.1,0.2-0.3,0.3-0.4c0.8-1.2,0.4-3.2-1-4.6c-1.4-1.4-3.3-1.8-4.6-1c-0.2,0.1-0.3,0.2-0.4,0.3
			C310.5,190.9,310.5,191,310.4,191.1z M316.1,193.9l-2.8,2.9l-0.5-0.5l2.8-2.9L316.1,193.9z M312.8,190.5L312.8,190.5l0.5,0.5
			l-0.9,1.9l1.9-0.9l0.5,0.5l-3.8,1.9L312.8,190.5z"/>
		<polygon fill="#D0D0D0" points="310.9,194.3 314.7,192.4 314.2,192 312.3,192.9 313.3,191 312.8,190.5 312.8,190.5 		"/>

			<rect x="312.4" y="194.7" transform="matrix(0.7071 -0.7072 0.7072 0.7071 -45.8191 279.5005)" fill="#D0D0D0" width="4" height="0.7"/>
		<path fill="#96877D" d="M316,214.9c-1.2-0.8-3-0.5-4.4,0.8c-0.1,0.1-0.1,0.1-0.2,0.2s-0.1,0.1-0.2,0.2c-1.3,1.4-1.6,3.2-0.8,4.4
			c0.1,0.1,0.2,0.2,0.3,0.3c0.1,0.1,0.3,0.2,0.4,0.3c1.2,0.8,3.2,0.4,4.6-1c1.4-1.4,1.8-3.3,1-4.6c-0.1-0.2-0.2-0.3-0.3-0.4
			C316.2,215,316.1,214.9,316,214.9z M313.3,220.6l-2.9-2.9l0.5-0.5l2.9,2.9L313.3,220.6z M316.6,217.3L316.6,217.3L316.6,217.3
			l-0.5,0.5l-1.9-0.9l0.9,1.9l-0.5,0.5l-1.9-3.8L316.6,217.3L316.6,217.3z"/>
		<polygon fill="#D0D0D0" points="316.6,217.3 316.6,217.3 316.6,217.3 		"/>
		<polygon fill="#D0D0D0" points="312.8,215.4 314.7,219.2 315.2,218.7 314.2,216.8 316.1,217.7 316.6,217.3 		"/>

			<rect x="311.7" y="216.9" transform="matrix(0.7071 -0.7071 0.7071 0.7071 -63.3938 284.7873)" fill="#D0D0D0" width="0.7" height="4"/>
		<path fill="#96877D" d="M287.7,209.8c0.2,0.7,0.5,1.4,0.8,2l0.3,0c-0.4-0.7-0.6-1.5-0.9-2.3L287.7,209.8z"/>
		<path fill="#96877D" d="M311.4,215.9c0.1-0.1,0.1-0.1,0.2-0.2c2.6-2.7,4-6.1,4-9.8c0-3.7-1.4-7.2-4-9.8c-0.1-0.1-0.1-0.1-0.2-0.2
			s-0.1-0.1-0.2-0.2c-2.7-2.6-6.1-4-9.8-4c-3.7,0-7.2,1.4-9.8,4c-0.1,0.1-0.1,0.1-0.2,0.2c-0.1,0.1-0.1,0.1-0.2,0.2
			c-0.3,0.3-0.6,0.7-0.9,1l0.1,0.2c0.3-0.4,0.7-0.9,1.1-1.3c2.6-2.6,6.2-4.1,9.9-4.1c3.7,0,7.3,1.5,9.9,4.1c2.6,2.6,4.1,6.2,4.1,9.9
			c0,3.7-1.5,7.3-4.1,9.9c-1.3,1.3-2.8,2.3-4.4,3l0.1,0.2c1.5-0.7,2.9-1.6,4.2-2.8C311.2,216,311.3,215.9,311.4,215.9z"/>
		<path fill="#96877D" d="M312.2,205.8c0-2.9-1.1-5.6-3.2-7.7c-2.1-2.1-4.8-3.2-7.7-3.2s-5.6,1.1-7.7,3.2c-0.7,0.7-1.2,1.4-1.7,2.3
			l0.1,0.2c0.5-0.8,1.1-1.6,1.8-2.3c2-2,4.7-3.1,7.5-3.1c2.8,0,5.5,1.1,7.5,3.1c2,2,3.1,4.7,3.1,7.5c0,2.8-1.1,5.5-3.1,7.5
			c-0.9,0.9-1.8,1.5-2.9,2.1l0.5,0l0,0c0.9-0.5,1.8-1.1,2.6-1.9C311.1,211.4,312.2,208.7,312.2,205.8z"/>
		<path fill="#96877D" d="M291,203.2l-0.3,0.3c-0.2,0.8-0.3,1.5-0.3,2.3c0,2.8,1.1,5.4,3,7.5l0.3,0c-2-2-3.1-4.6-3.1-7.5
			C290.7,204.9,290.8,204,291,203.2z"/>
		<path d="M307,217.8c0.2-0.1,0.3-0.3,0.3-0.6c0-0.2-0.1-0.5-0.3-0.6c0,0,0,0,0,0l-0.6,0.1l-0.2,0.9c0,0.1,0.1,0.1,0.1,0.1
			C306.6,217.9,306.8,217.9,307,217.8z"/>
		<path fill="#96877D" d="M309.6,208.5l-0.1-0.1L309.6,208.5c0.1,0,0.3,0,0.4,0c-0.1-0.1-0.2-0.1-0.2-0.1l-0.1,0l0.1-0.1
			c0,0,0.1-0.1,0.1-0.1c-0.1,0-0.3,0-0.4-0.1l-0.1,0l0.1,0c0,0,0.1-0.1,0-0.1c-0.1,0-0.2,0-0.3,0c0,0,0,0.1,0,0.1l0,0l0,0
			c0,0.2,0,0.3-0.1,0.5c0.2,0.1,0.4,0.2,0.5,0.2C309.7,208.7,309.7,208.6,309.6,208.5z"/>
		<path d="M309.3,207.9c0.1,0,0.2,0,0.3,0c0,0,0,0.1,0,0.1l-0.1,0l0.1,0c0.1,0,0.3,0.1,0.4,0.1c0,0-0.1,0.1-0.1,0.1l-0.1,0.1l0.1,0
			c0.1,0,0.2,0.1,0.2,0.1c-0.1,0-0.3,0-0.4,0l-0.1-0.1l0.1,0.1c0.1,0.1,0.1,0.2,0.1,0.3c-0.1,0-0.3-0.1-0.5-0.2c0,0,0,0.1,0,0.1
			c0.2,0.2,0.5,0.3,0.5,0.3l0.1,0l0-0.1c0,0,0-0.1,0-0.3c0.2,0,0.4,0,0.4,0l0.1,0l-0.1-0.1c0,0-0.1-0.1-0.3-0.2
			c0.1-0.1,0.2-0.1,0.2-0.1l0.1-0.1l-0.1,0c-0.1,0-0.3,0-0.4,0c0.1-0.1,0-0.2,0-0.2l0,0l0,0C309.6,207.8,309.4,207.8,309.3,207.9
			C309.3,207.8,309.3,207.8,309.3,207.9z"/>
		<path fill="#96877D" d="M307.1,207.4c0.1,0.1,0.2,0.3,0.4,0.4c0.2,0,0.4-0.1,0.4-0.1c0,0,0,0,0,0c0,0,0,0,0,0
			C307.8,207.7,307.4,207.5,307.1,207.4z"/>
		<path d="M307.6,207.8c-0.2-0.1-0.3-0.3-0.4-0.4c0.2,0.1,0.7,0.3,0.9,0.3c0,0,0,0,0,0c0,0-0.1,0-0.1-0.1c-0.3,0-0.7-0.2-0.9-0.4
			l-0.1,0.1c0,0,0.2,0.3,0.4,0.5C307.4,207.8,307.5,207.8,307.6,207.8z"/>
		<polygon fill="#96877D" points="295.7,213.7 297.3,213.3 295.2,213.2 		"/>
		<path fill="#96877D" d="M308.1,213.1l-1.4-0.8l-0.1,0c-0.1,0-0.1,0-0.2,0c-0.1,0.2-0.4,0.1-0.5,0.1c-0.1,0-0.4,0.2-0.7,0
			c-0.2,0.1-0.4,0.2-0.6,0.2c-0.1,0-0.2,0-0.3-0.1c0,0,0,0-0.1,0c0,0.1,0,0.2,0,0.2l0,0l0,0c0,0-0.3,0-0.5-0.3
			c-0.3,0.2-0.9,0.3-0.9,0.3c-0.1,0-0.3,0.1-0.5,0.1c0,0-0.1,0-0.1,0c0,0,0,0,0-0.1c0-0.1,0.2-0.3,0.2-0.3l0.1-0.4c0,0-0.1,0-0.1,0
			c-0.3,0-0.5-0.3-0.7-0.7l-0.1,0c0.3,0.3,0.6,1,0.6,1.1l0,0.1l-0.1,0c0,0-0.2,0-0.4,0c-0.2,0-0.4,0-0.5-0.1c-0.1,0-0.1-0.1-0.2-0.2
			c-0.1-0.1-0.1-0.1-0.2-0.1l0,0l0,0c-0.1-0.1-0.2-0.1-0.3-0.2c-0.3,0.2-0.7,0.3-1,0.2l-0.1,0l0.1-0.1c0,0,0,0,0,0l-1,0.1l-0.4,0.4
			l1.5,0l1.5,1.2h6.2L308.1,213.1z"/>
		<polygon fill="#96877D" points="295,212.8 297.5,213.2 297.8,212.7 296.6,212.8 		"/>
		<path fill="#96877D" d="M303.3,211.9c0,0-0.1,0.1-0.1,0.1c-0.1,0.1-0.1,0.1-0.1,0.2c0.1,0,0.2,0,0.4-0.1
			C303.4,212,303.4,212,303.3,211.9z"/>
		<path d="M301.7,211.2l-0.1,0.1c0,0,0,0,0.1,0.1L301.7,211.2C301.7,211.2,301.7,211.2,301.7,211.2z"/>
		<path d="M308.3,213.1l-1.5-0.8l0,0c0,0-0.1,0-0.1,0.1l0.1,0l1.4,0.8l-0.8,0.7h-6.2l0.1,0.1h6.1L308.3,213.1z"/>
		<polygon points="294.4,212.7 294.4,212.8 297.3,213.2 294.9,213.1 295.6,213.7 295.7,213.7 295.2,213.2 297.3,213.3 297.4,213.3
			297.5,213.2 295,212.8 296.6,212.8 297.8,212.7 297.9,212.6 296.6,212.7 		"/>
		<path d="M299.6,212c0,0,0.1-0.1,0.1-0.1l-1.1,0.1l0,0l-0.4,0.5l0.1,0l0.4-0.4L299.6,212z"/>
		<path fill="#96877D" d="M306.6,210.2l-0.2,0.7l0,0c0,0-0.1,0.1-0.3,0.1c-0.1,0-0.2,0-0.3-0.1l0,0l0,0c0-0.1-0.1-0.1-0.1-0.2
			c0,0-0.1-0.1-0.1-0.1c-0.1-0.1-0.3-0.1-0.3-0.1l0,0l0,0c0,0,0-0.1-0.1-0.1c-0.3-0.2-0.6-0.3-0.9-0.3c0.1,0.1,0.1,0.1,0.1,0.1
			l0.1,0.1l-0.1,0c0,0-0.1,0-0.2,0c-0.2,0-0.4,0-0.6-0.2c-0.2,0-0.5,0.1-0.8,0.2c-0.3,0.1-0.5,0.1-0.8,0.2l0,0l0,0
			c-0.7-0.4-1.2-0.1-1.5,0.4c0,0,0,0,0.1,0c0.1,0,0.2,0.1,0.2,0.1c0.1,0,0.5-0.2,0.8,0c0.1,0,0.1-0.1,0.2-0.1l0,0l0,0
			c0.2,0.5,0.4,0.7,0.7,0.8c0,0,0.1,0,0.1,0l0.1-0.4l0,0l0,0l0.8-0.2l0,0l0,0c0.1,0.2,0,0.4-0.1,0.6c0.1,0.1,0.1,0.1,0.2,0.2
			c0.2-0.1,0.4-0.2,0.5-0.3l0,0l0,0c0.1,0,0.2,0,0.3,0.1c0.1,0.1,0,0.1,0,0.2c0,0,0,0,0,0.1c0.2,0.1,0.1,0.3,0.1,0.4l0,0
			c0.2,0,0.4,0,0.7-0.1l0,0l0,0c0.3,0.2,0.6,0,0.6,0l0,0l0,0c0.1,0,0.4,0,0.5-0.1l0,0l0,0c0.2,0.1,0.4-0.2,0.4-0.2l0,0l0,0
			c0,0,0,0,0,0c0,0,0.3,0,0.5-0.1c0,0-0.1,0-0.1-0.1l0,0l0,0l0.4-0.6c0,0,0,0,0,0l0.1-0.1c0.1,0.1,0.2,0.2,0.4,0.4
			c0.5-0.4,1-1.2,1-1.3l0.3-0.6l0.4-0.1c0,0,0-0.1,0-0.2c0,0-0.1,0-0.1,0l0,0l0,0c0-0.1,0-0.1-0.1-0.1c-0.1,0-0.1-0.1-0.2,0l-0.1,0
			l0-0.1c0,0,0-0.1-0.1-0.1c-0.3,0.1-0.4,0.8-0.4,1.1l0,0l0,0c0,0-0.7,0.5-1,0.7l-0.1,0l0-0.1c0-0.3-0.2-0.6-0.4-0.9
			c-0.2-0.3-0.5-0.7-0.3-0.9c0-0.1,0.1-0.1,0.1-0.1c0.1,0,0.3,0.1,0.5,0.2c0.3,0.2,0.5,0.4,0.8,0.3c0.5-0.2,0.8-0.8,0.8-1.4
			c-0.1-0.3-0.5-0.9-0.5-1l-0.4,0l-0.3-0.7c-0.1,0.1-0.6,0.5-0.6,0.7c0,0.3,0.7,0.7,0.7,0.7l0.1,0l-0.1,0c0,0-0.4,0.2-0.8,0.2
			c0,0.1,0,0.1,0,0.1c0.1,0.1,0.3,0.1,0.5,0.1c0,0,0.1,0,0.1,0l0,0l0,0c0.1,0.3,0.3,0.4,0.3,0.4l0,0l0,0c0,0,0.1,0.2,0,0.4
			c-0.1,0.1-0.2,0.1-0.3,0.1c-0.2,0-0.4-0.2-0.5-0.3c-0.3-0.3-0.6-0.5-1-0.3c-0.1,0.1-0.2,0.2-0.2,0.4c0,0.4,0.5,1,0.5,1l0,0l-0.1,0
			c0,0-0.1,0.1-0.3,0.2C306.6,210.1,306.6,210.2,306.6,210.2L306.6,210.2z"/>
		<path fill="#96877D" d="M299.7,212.1c0.3,0,0.6-0.1,0.8-0.2c-0.2-0.1-0.3-0.2-0.4-0.3C299.9,211.8,299.8,212,299.7,212.1z"/>
		<path d="M300.5,211.9c-0.3,0.2-0.5,0.3-0.8,0.2c0.1-0.1,0.3-0.3,0.4-0.5c0,0-0.1,0-0.1,0c-0.1,0.2-0.2,0.3-0.3,0.4
			c0,0-0.1,0.1-0.1,0.1c0,0,0,0,0,0l-0.1,0.1l0.1,0C299.9,212.2,300.3,212.1,300.5,211.9C300.5,211.9,300.5,211.9,300.5,211.9z"/>
		<path d="M302,210.6L302,210.6L302,210.6c0.3-0.1,0.6-0.1,0.8-0.2c0.3-0.1,0.5-0.1,0.8-0.2c0,0-0.1,0-0.1-0.1
			c-0.2,0-0.4,0.1-0.7,0.2C302.6,210.4,302.3,210.4,302,210.6c-0.8-0.5-1.3-0.1-1.6,0.4c0,0,0.1,0,0.1,0
			C300.8,210.5,301.3,210.2,302,210.6z"/>
		<path d="M306.2,208.9c0.1,0.4,0.4,0.7,0.5,0.8c-0.1,0-0.1,0.1-0.2,0.2c0,0,0,0,0.1,0.1c0.2-0.1,0.3-0.2,0.3-0.2l0.1,0l0,0
			c0,0-0.5-0.5-0.5-1c0-0.1,0.1-0.3,0.2-0.4c0.4-0.3,0.7,0,1,0.3c0.2,0.2,0.4,0.3,0.5,0.3c0.1,0,0.2,0,0.3-0.1c0.1-0.1,0-0.3,0-0.4
			l0,0l0,0c0,0-0.3-0.1-0.3-0.4l0,0l0,0c0,0-0.1,0-0.1,0c-0.1,0-0.4,0-0.5-0.1c0,0,0-0.1,0-0.1c0.4,0.1,0.7-0.1,0.8-0.2l0.1,0
			l-0.1,0c0,0-0.7-0.3-0.7-0.7c0-0.3,0.4-0.6,0.6-0.7l0.3,0.7l0.4,0c0.1,0.1,0.4,0.6,0.5,1c0,0.6-0.3,1.3-0.8,1.4
			c-0.3,0.1-0.6-0.1-0.8-0.3c-0.2-0.1-0.4-0.2-0.5-0.2c-0.1,0-0.1,0-0.1,0.1c-0.1,0.2,0.1,0.5,0.3,0.9c0.2,0.3,0.4,0.6,0.4,0.9
			l0,0.1l0.1,0c0.3-0.1,1-0.7,1-0.7l0,0l0,0c0-0.3,0.1-1,0.4-1.1c0,0,0.1,0.1,0.1,0.1l0,0.1l0.1,0c0.1,0,0.2,0,0.2,0
			c0,0,0.1,0.1,0.1,0.1l0,0l0,0c0,0,0.1,0,0.1,0c0,0,0,0.1,0,0.2l-0.4,0.1l-0.3,0.6c0,0-0.5,0.8-1,1.3c0,0,0,0,0.1,0.1
			c0.5-0.4,1-1.2,1.1-1.3l0.3-0.5l0.4-0.1l0,0c0,0,0-0.2-0.1-0.3c0,0-0.1-0.1-0.1-0.1c0-0.1,0-0.1-0.1-0.2c-0.1-0.1-0.2-0.1-0.3-0.1
			c0-0.1-0.1-0.1-0.1-0.2l0,0l0,0c-0.4,0.1-0.5,1-0.5,1.2c-0.1,0.1-0.6,0.5-0.9,0.6c0-0.3-0.2-0.6-0.5-0.9c-0.2-0.3-0.4-0.6-0.3-0.8
			c0,0,0-0.1,0.1-0.1c0.1,0,0.3,0.1,0.4,0.2c0.3,0.2,0.6,0.4,0.9,0.3c0.4-0.1,0.6-0.5,0.8-0.9c0,0,0-0.1,0-0.1
			c0.1-0.2,0.1-0.4,0.1-0.5l0,0l0,0c0,0,0-0.1,0-0.1c0,0,0-0.1,0-0.1c-0.2-0.4-0.5-0.8-0.5-0.9l0,0l-0.4,0l-0.3-0.8l0,0
			c0,0-0.7,0.5-0.7,0.9c0,0.3,0.3,0.5,0.5,0.6c0.1,0,0.1,0.1,0.1,0.1c0,0,0,0,0,0c-0.1,0-0.3,0.1-0.4,0.1c-0.1,0-0.1,0-0.2,0
			c0,0,0,0,0,0l-0.1,0l0,0.1c0,0.1,0,0.2,0.1,0.2c0.1,0.1,0.4,0.1,0.5,0.1c0,0,0,0,0.1,0c0.1,0.2,0.3,0.4,0.4,0.4c0,0.1,0,0.2,0,0.3
			c0,0.1-0.1,0.1-0.2,0.1c-0.1,0-0.3-0.2-0.5-0.3c-0.3-0.3-0.7-0.6-1.1-0.3c-0.1,0-0.1,0.1-0.1,0.1
			C306.3,208.6,306.3,208.8,306.2,208.9z"/>
		<path d="M304.3,210.2c0.3,0,0.6,0.1,0.9,0.3c0,0,0-0.1-0.1-0.1C304.8,210.2,304.5,210.1,304.3,210.2
			C304.3,210.1,304.3,210.1,304.3,210.2z"/>
		<path d="M305.6,210.7c0,0,0.1,0.1,0.1,0.1C305.7,210.8,305.6,210.7,305.6,210.7z"/>
		<path d="M307.3,211.9c-0.2,0.1-0.4,0.1-0.5,0.1c0,0,0,0,0,0l0,0l0,0c0,0-0.2,0.3-0.4,0.2l0,0l0,0c-0.1,0.1-0.4,0.1-0.5,0.1l0,0
			l0,0c0,0-0.3,0.2-0.6,0l0,0l0,0c-0.2,0.1-0.5,0.2-0.7,0.1l0,0l0,0c0,0-0.1,0-0.2,0c0.1,0,0.2,0.1,0.3,0.1c0.2,0,0.4-0.1,0.6-0.2
			c0.3,0.2,0.6,0.1,0.7,0c0.1,0,0.4,0.1,0.5-0.1c0.1,0,0.1,0,0.2,0c0,0,0.1,0,0.1-0.1c0.1-0.1,0.2-0.1,0.2-0.2
			C307,212.1,307.3,212.1,307.3,211.9C307.4,211.9,307.4,211.9,307.3,211.9z"/>
		<path d="M303.4,211.9C303.4,211.9,303.4,211.9,303.4,211.9c0,0.1,0.1,0.2,0.1,0.2c0,0,0.1,0,0.1,0
			C303.5,212,303.4,211.9,303.4,211.9z"/>
		<path d="M302.5,211.9c0,0-0.1,0-0.1,0c-0.3,0-0.5-0.3-0.7-0.8l0,0l0,0c-0.1,0-0.1,0.1-0.2,0.1c0,0,0.1,0,0.1,0c0,0,0,0,0,0
			c0,0,0.1,0,0.1-0.1c0,0,0,0,0,0c0,0,0,0.1,0,0.1c0.2,0.4,0.4,0.6,0.7,0.7C302.4,212,302.5,211.9,302.5,211.9L302.5,211.9z"/>
		<path fill="#96877D" d="M300.3,209.7c0,0.2,0,0.4,0.1,0.4c0.2,0.2,0.5-0.1,0.5-0.1l0,0l0,0c0.6,0.2,1.7-0.2,1.7-0.2l0,0l0,0
			c0.3,0.1,0.3,0.1,0.3,0c0-0.1,0.1-0.1,0.2-0.1c0,0,0,0,0,0l0,0l0,0c0.2,0.5,0.8,0.5,1,0.5c-0.2-0.2-0.8-0.8-1.2-1
			c-0.4,0.2-1.5,0.3-1.7,0.2c-0.2,0-0.2-0.2-0.2-0.3c0-0.1,0-0.1,0-0.2l0,0l0,0c0.3-0.3,0.2-1,0-1.5c-0.1,0-0.1,0-0.2,0l-0.6,0
			c0,0.1,0,0.2,0,0.3c0,0.3-0.1,0.6-0.3,0.7c0,0,0,0,0,0C300.3,209,300.3,209.4,300.3,209.7z"/>
		<path d="M300.2,209.7c0,0.2,0,0.4,0.1,0.5c0.2,0.2,0.5,0,0.6-0.1c0.6,0.1,1.6-0.1,1.7-0.2c0.3,0.2,0.4,0.1,0.4,0
			c0,0,0.1-0.1,0.1-0.1c0.1,0.1,0.2,0.2,0.3,0.3c0,0,0.1,0,0.1,0.1c0.2,0.1,0.5,0.2,0.6,0.2c0.1,0,0.2,0,0.2,0l0.1,0l-0.1-0.1
			c0,0-0.1-0.1-0.1-0.1c0,0-0.1-0.1-0.1-0.1c-0.3-0.3-0.7-0.7-1.1-0.8l0,0l0,0c-0.4,0.2-1.5,0.3-1.7,0.2c-0.1,0-0.1-0.1-0.1-0.2
			c0-0.1,0-0.1,0-0.2c0.3-0.3,0.2-1,0-1.5c0,0-0.1,0-0.1,0c0.2,0.4,0.3,1.1,0,1.5l0,0l0,0c0,0.1,0,0.1,0,0.2c0,0.1,0,0.3,0.2,0.3
			c0.2,0,1.3,0,1.7-0.2c0.4,0.2,1,0.8,1.2,1c-0.2,0-0.8,0-1-0.5l0,0l0,0c0,0,0,0,0,0c-0.1,0-0.2,0.1-0.2,0.1c0,0.1-0.1,0.1-0.3,0
			l0,0l0,0c0,0-1.1,0.3-1.7,0.2l0,0l0,0c0,0-0.3,0.3-0.5,0.1C300.3,210.1,300.3,209.9,300.2,209.7c0.1-0.3,0.1-0.7-0.1-1.1
			c0,0.1,0,0.1,0,0.2C300.3,209.1,300.3,209.4,300.2,209.7z"/>
		<path fill="#96877D" d="M294.8,206.6c-0.5-0.2-1-0.4-1.3-0.2c-0.6,0.4-0.3,1.5,0.1,2c0.1,0.1,0.1,0.2,0.1,0.3
			c0,0.2-0.3,0.4-0.5,0.5c-0.2,0.1-0.3,0.2-0.4,0.3c-0.2,0.3,0.1,0.6,0.1,0.6l0.3,0.2l-0.1,0.4l0.1,0.5c0,0,0,0,0.1,0c0,0,0,0,0,0
			l0-0.1l0.1,0.1c0.1,0.1,0.1,0.1,0.1,0.2c0,0.1,0,0.2,0.1,0.3c-0.1-0.3,0.1-0.8,0.1-0.8l0,0l0,0c0.1,0,0.5,0,0.6-0.2
			c0.1-0.2-0.1-0.6-0.1-0.7l0-0.1h0.1c-0.1-0.2-0.2-0.4-0.2-0.4l0,0l0,0c0,0,0.7-0.2,0.7-0.8c0-0.2-0.3-0.5-0.5-0.7
			c-0.2-0.2-0.4-0.4-0.4-0.6c0-0.1,0-0.1,0.1-0.2c0.2-0.2,0.5,0,0.9,0.2c0.4,0.2,0.8,0.4,1.1,0.2c-0.1-0.1-0.1-0.3-0.1-0.5l0,0l0,0
			c0,0,0,0,0,0C295.6,207,295.2,206.8,294.8,206.6z"/>
		<path d="M296.1,207.4c-0.4,0.2-0.8,0-1.1-0.2c-0.3-0.2-0.6-0.3-0.9-0.2c-0.1,0-0.1,0.1-0.1,0.2c0,0.2,0.2,0.4,0.4,0.6
			c0.2,0.2,0.5,0.5,0.5,0.7c0,0.5-0.7,0.8-0.7,0.8l0,0l0,0c0,0,0,0.3,0.2,0.4h-0.1l0,0.1c0.1,0.1,0.2,0.5,0.1,0.7
			c-0.1,0.2-0.5,0.2-0.6,0.2l0,0l0,0c0,0-0.2,0.5-0.1,0.8c-0.1,0-0.1-0.1-0.1-0.3c0-0.1,0-0.2-0.1-0.2l-0.1-0.1l0,0.1c0,0,0,0,0,0
			c0,0,0,0-0.1,0l-0.1-0.5l0.1-0.4l-0.3-0.2c0,0-0.3-0.3-0.1-0.6c0.1-0.1,0.2-0.2,0.4-0.3c0.2-0.1,0.5-0.3,0.5-0.5
			c0-0.1,0-0.2-0.1-0.3c-0.4-0.6-0.7-1.6-0.1-2c0.3-0.2,0.8,0,1.3,0.2c0.4,0.2,0.9,0.4,1.2,0.3c0,0,0-0.1,0-0.1
			c-0.3,0.1-0.8-0.1-1.2-0.3c-0.5-0.2-1.1-0.5-1.4-0.2c-0.6,0.4-0.4,1.6,0.1,2.2c0.1,0.1,0.1,0.2,0.1,0.3c0,0.2-0.3,0.3-0.5,0.4
			c-0.2,0.1-0.3,0.2-0.4,0.3c-0.2,0.3,0,0.6,0.1,0.7l0.2,0.2l0,0.4l0.2,0.5l0,0c0,0,0.1,0.1,0.2,0c0,0,0,0,0,0c0,0,0,0.1,0,0.1
			c0,0.1,0.1,0.3,0.3,0.4l0.1,0l0-0.1c-0.1-0.2,0-0.6,0.1-0.8c0.1,0,0.6,0,0.7-0.2c0.1-0.2,0-0.6-0.1-0.7h0.2l-0.1-0.1
			c-0.1-0.1-0.2-0.3-0.2-0.4c0.2-0.1,0.7-0.3,0.7-0.8c0-0.3-0.3-0.6-0.5-0.8c-0.2-0.2-0.4-0.4-0.4-0.5c0,0,0-0.1,0.1-0.1
			c0.2-0.1,0.5,0,0.8,0.2C295.3,207.5,295.7,207.7,296.1,207.4C296.1,207.5,296.1,207.4,296.1,207.4z"/>
		<path fill="#96877D" d="M292.4,202.2c-0.1,0.3-0.1,0.5,0,0.6c0.1,0.1,0.3,0.1,0.5,0l0,0l0,0c0,0.1,0,0.3,0,0.4
			c0,0.1-0.1,0.1-0.2,0.2c0.3,0.3,0.5,0.4,0.8,0.5c0,0,0,0,0,0c0.4,0,0.8-0.4,1.2-0.7c0.2-0.2,0.5-0.4,0.7-0.6
			c0.1-0.5,0.3-1.2,0.8-1.4c0.4-0.6,0.6-0.9,0.9-0.9c0,0,0,0,0,0c0.1-0.3,0.4-0.5,0.7-0.6c0.1-0.3,0.5-0.5,1-0.7
			c0.1,0,0.2-0.1,0.5-0.2c0,0-0.1,0-0.1,0l0,0l0,0c0,0-0.1,0-0.1,0c-0.2,0-0.4-0.1-0.6-0.1c-0.1,0-0.2,0-0.3-0.1
			c-0.9-0.1-1.7-0.3-2.4-0.6c-0.5,0-0.7,0.4-0.7,0.5l0,0l0,0c0,0,0,0,0,0c-0.3,0-0.5,0.2-0.5,0.4c-0.2,0.2-0.2,0.5-0.2,0.5l0,0.1
			l-0.1,0c-0.5-0.2-0.8,0.1-0.9,0.3c-0.3,0.4-0.3,0.9-0.1,1l0.1,0.1l-0.1,0c-0.4,0-0.5,0.3-0.6,0.6l0.1,0.3l-0.2,0.2c0,0,0,0,0,0
			C292.4,202.1,292.4,202.1,292.4,202.2z"/>
		<path fill="#96877D" d="M298.1,201.1L298.1,201.1L298.1,201.1c0-0.1,0-0.1,0.1-0.1c-0.2,0.2-0.5,0.4-0.9,0.4
			c0,0.2-0.1,0.4-0.3,0.5C297.8,201.5,298.1,201.1,298.1,201.1z"/>
		<path d="M298.1,201.2c0-0.1,0-0.1,0-0.2l0,0l0,0c0,0-0.3,0.4-1.1,0.8c0,0.1-0.1,0.1-0.1,0.2C297.6,201.7,298,201.4,298.1,201.2z"
			/>
		<path d="M292.3,202.8c0.1,0.1,0.3,0.1,0.6,0c0,0.1,0,0.2,0,0.2c0,0.1-0.1,0.1-0.2,0.1l-0.1,0l0.1,0.1c0.3,0.3,0.6,0.5,0.9,0.5
			c0,0,0,0,0,0c0.5,0,0.9-0.4,1.3-0.7c0.2-0.2,0.4-0.4,0.6-0.5c0,0,0-0.1,0-0.1c-0.2,0.2-0.5,0.4-0.7,0.6c-0.4,0.4-0.8,0.7-1.2,0.7
			c0,0,0,0,0,0c-0.3,0-0.5-0.2-0.8-0.5c0.1,0,0.2-0.1,0.2-0.2c0.1-0.1,0.1-0.2,0-0.4l0,0l0,0C292.6,202.9,292.4,202.9,292.3,202.8
			c0-0.2,0-0.4,0.1-0.6c0-0.1,0-0.1,0-0.3c0,0,0,0,0,0l-0.1,0.1c0,0.1,0,0.1,0,0.2C292.1,202.6,292.2,202.8,292.3,202.8z"/>
		<path d="M299.5,198.7c-0.1,0-0.2-0.1-0.3-0.1c0,0,0,0-0.1,0.1l0,0c0,0,0.1,0,0.1,0C299.3,198.7,299.4,198.7,299.5,198.7z"/>
		<path d="M293.1,200.9l0.1,0L293.1,200.9c-0.1-0.2-0.1-0.7,0.2-1.1c0.1-0.2,0.4-0.5,0.9-0.3l0.1,0l0-0.1c0-0.1,0-0.3,0.2-0.5
			c0.1-0.1,0.3-0.4,0.5-0.4c0,0,0,0,0,0l0,0l0,0c0-0.1,0.2-0.5,0.7-0.5c0.6,0.3,1.5,0.5,2.4,0.6c0.1,0,0.2,0,0.3,0.1
			c-0.1,0-0.1,0-0.2-0.1c-0.1,0-0.2-0.1-0.2-0.1c-0.3-0.1-0.7-0.1-1-0.2l0,0l0,0c-0.4-0.1-0.8-0.2-1.2-0.4l0,0l0,0
			c-0.5,0-0.7,0.4-0.8,0.6c-0.3,0-0.5,0.3-0.6,0.4c-0.1,0.2-0.2,0.4-0.2,0.5c-0.4-0.1-0.7,0-0.9,0.4
			C293,200.1,292.9,200.6,293.1,200.9c-0.4,0-0.6,0.2-0.7,0.5l0.1,0.1C292.6,201.2,292.7,200.9,293.1,200.9z"/>
		<path fill="#96877D" d="M300.1,198.6c0,0,0.1-0.2,0-0.5c0,0,0-0.1,0-0.1c-0.1,0-0.2,0.1-0.3,0.1c0,0-0.1,0-0.1,0
			C299.9,198.4,300,198.5,300.1,198.6C300.1,198.7,300.1,198.6,300.1,198.6z"/>
		<path fill="#96877D" d="M301.9,198.9C301.9,198.9,301.9,198.9,301.9,198.9l0.7-1.1c0,0,0-0.1,0-0.1c0-0.8-0.6-1.4-1.4-1.4
			c-0.7,0-1.2,0.5-1.4,1.1c0.2,0.1,0.5,0.1,0.5,0.2c0-0.1,0.2-0.2,0.3-0.3c0,0,0.1-0.1,0.2-0.1c0.1,0,0.1,0,0.2,0c0,0,0,0,0.1,0
			c0,0,0,0,0,0c0,0,0,0,0,0c0,0,0,0,0,0c0.5,0.1,0.7,0.3,0.8,0.5c0,0.1,0.1,0.1,0.1,0.2c0,0,0,0,0,0c0,0,0,0,0,0c0,0.1,0,0.1,0,0.2
			c0,0,0,0,0,0.1c0,0,0,0,0,0.1c0,0.2-0.1,0.3-0.2,0.4C301.9,198.7,301.9,198.8,301.9,198.9z"/>
		<path d="M300.1,198.7c-0.1-0.1-0.2-0.3-0.3-0.5c0,0-0.1,0-0.1,0C299.8,198.4,299.9,198.6,300.1,198.7
			C300,198.7,300.1,198.7,300.1,198.7z"/>
		<path d="M301.9,199C301.9,199,301.9,199,301.9,199L301.9,199C301.9,198.9,301.9,198.9,301.9,199
			C301.9,198.9,301.9,198.9,301.9,199z"/>
		<path d="M299.8,197.4c0.2-0.6,0.7-1.1,1.4-1.1c0.8,0,1.4,0.6,1.4,1.4c0,0,0,0.1,0,0.1l0-0.1l0,0c0,0,0,0,0,0c0,0,0,0,0,0
			c0-0.8-0.7-1.5-1.5-1.5C300.4,196.2,299.9,196.7,299.8,197.4C299.7,197.4,299.7,197.4,299.8,197.4z"/>
		<path fill="#96877D" d="M298.1,204.9l0.6,0.4l0.8,1.2L298,206l-0.8-0.7c-0.5,0.3-1,0.8-1.2,1.7c0.2,1.2,1.6,2.1,2.5,2.3l0,0l0,0
			c0.1,0.3,0,0.7-0.1,1c-0.1,0.3-0.2,0.5-0.1,0.7c0,0.1,0.1,0.1,0.3,0.1c0.4,0,1.1,0.1,2.1,1c0,0,0,0,0.1,0c0.1,0,0.2,0.1,0.2,0.1
			c0,0,0.1,0.1,0.2,0.1c0.2,0.1,0.6,0.1,0.8,0c-0.1-0.2-0.4-0.8-0.6-1.1c-0.3-0.3-0.8-0.1-0.8-0.1l0,0l0,0c-0.1,0-0.2-0.1-0.2-0.1
			c-0.5-0.3-0.9-0.5-1-1.1l0,0l0,0c0.2-0.1,0.5-0.6,0.6-1c0-0.2,0-0.3,0-0.4l0-0.1l0.1,0c0.2-0.1,0.3-0.4,0.3-0.7
			c0-0.1,0-0.2,0.1-0.3l0,0l0.7,0l0,0c0,0,0.2,0.2,1-0.2c0.3-0.2,0.7-0.4,1-0.6c-0.4-0.6-0.7-1.1-0.6-1.7c-0.7,0.1-2.4-0.3-2.9-0.4
			c0,0,0,0,0,0c-0.1,0-0.2,0-0.2,0.1C298.8,204.7,298.5,204.8,298.1,204.9z"/>
		<path fill="#96877D" d="M303.8,200.1L303.8,200.1L303.8,200.1c0-0.1,0.8-0.1,1.1-0.4l0,0l0,0c0,0,0,0,0.1,0
			c0.2-0.2,0.3-0.4,0.3-0.4l0,0l0.4,0l0,0.1c0,0-0.1,0.1-0.2,0.3c0.1,0,0.2-0.1,0.3-0.2l0,0l0,0c0,0,0.1,0,0.2,0
			c0,0,0.1-0.1,0.1-0.1c0-0.2,0.1-0.4-0.1-0.7c-0.3,0-0.6-0.1-0.9-0.2c-0.5-0.1-1-0.2-1.4-0.2l-0.1,0l0-0.1c0.1-0.2,0.1-0.4,0.1-0.5
			c-0.1,0-0.3,0.1-0.5,0.3c0,0,0,0,0,0l0,0l0,0c-0.1,0.3-0.3,0.5-0.5,0.9c-0.3,0.4-0.6,0.8-0.7,1.3c-0.3,0.8-0.1,1.3-0.1,1.3
			c0,0,0.1,0.3,0.1,0.5c0.9-0.3,1.6-0.9,2.2-1.4C304.1,200.3,303.9,200.2,303.8,200.1z"/>
		<path fill="#96877D" d="M302.1,202.3c0,0.2-0.3,0.5-0.4,0.6c0,0.1,0,0.2-0.1,0.2l0,0l0,0c0,0.1-0.1,0.2-0.1,0.3
			c0.3,0,1.3,0.1,1.9,0.8l0,0l0,0c0.1,0.6,0.3,1.3,0.6,1.8c0.1,0,0.2-0.1,0.3-0.1l0,0l0,0c0.8,0.1,1.6-0.2,2.2-0.4
			c0.2-0.1,0.4-0.1,0.6-0.2l0,0l0,0c0.3,0.2,0.4,0.2,0.7,0.2l0,0l0,0c0.6,0.3,0.8,0.8,1,1c0.1,0.1,0.1,0.2,0.2,0.2c0,0,0,0,0,0
			c0,0,0,0,0.1-0.2l0-0.1l0,0.1c0.2,0.7,0.7,0.8,0.9,0.8c0,0,0,0,0,0l-0.8-1.3c-0.1-0.1-0.9-0.7-1.5-1.2c-0.6-0.3-1.6-0.2-1.6-0.2
			l0-0.1c0,0,1.1-0.7,1.2-1.7l0,0l0,0c0.8-0.2,1.4,0.1,1.9,0.4c0.2,0.1,0.4,0.2,0.5,0.2l0,0l0,0c0.1,0.2,0.2,0.3,0.3,0.3
			c0.2,0.1,0.5-0.1,0.6-0.1c-0.2-0.1-0.7-0.6-1.2-1c-0.2,0-0.5-0.2-0.9-0.3c-0.4-0.2-0.9-0.4-1.3-0.4c-0.4,0.5-1.4,1.1-1.4,1.1l0,0
			l0,0c0,0-0.5-0.7-0.8-0.9l0,0l0,0c0.1-0.3-0.3-0.9-0.7-1.5c-0.6,0.6-1.4,1.1-2.3,1.4C302.1,202.2,302.1,202.3,302.1,202.3z"/>
		<path d="M298,204.8L298,204.8c0.5-0.1,0.9-0.2,1.2-0.2c0.1,0,0.2,0,0.2-0.1c0,0-0.1,0-0.1-0.1c-0.1,0-0.1,0-0.2,0
			C298.8,204.6,298.4,204.7,298,204.8z"/>
		<path d="M301.6,211.2C301.6,211.2,301.6,211.2,301.6,211.2C301.6,211.2,301.6,211.2,301.6,211.2
			C301.6,211.2,301.5,211.2,301.6,211.2c-0.4-0.2-0.8-0.1-0.9-0.1c-0.1,0-0.2-0.1-0.2-0.1c0,0,0,0-0.1,0c0,0-0.1,0-0.1,0
			c-0.4-0.2-0.7-0.4-0.8-0.9c0.3-0.2,0.5-0.6,0.6-1c0-0.1,0-0.1,0-0.2c0-0.1,0-0.1,0-0.2c0,0,0,0,0,0c0.2-0.1,0.3-0.4,0.3-0.7
			c0-0.1,0-0.2,0-0.3l0.6,0c0,0,0.1,0,0.2,0c0,0,0.1,0,0.1,0c0.2,0,0.4-0.1,0.8-0.2c0.4-0.2,0.7-0.4,1-0.6c0,0,0,0,0,0
			c0,0,0,0-0.1-0.1c-0.3,0.2-0.6,0.4-1,0.6c-0.7,0.3-1,0.2-1,0.2l0,0l-0.7,0l0,0c0,0.1,0,0.2-0.1,0.3c0,0.3-0.1,0.6-0.3,0.7l-0.1,0
			l0,0.1c0.1,0.1,0.1,0.2,0,0.4c-0.1,0.4-0.3,0.8-0.6,1l0,0l0,0c0.2,0.6,0.6,0.8,1,1.1c0.1,0,0.2,0.1,0.2,0.1l0,0l0,0
			C300.8,211.2,301.2,211,301.6,211.2c0.2,0.3,0.5,0.9,0.6,1.1c-0.2,0-0.6,0-0.8,0c-0.1,0-0.1-0.1-0.2-0.1c-0.1-0.1-0.1-0.1-0.2-0.1
			c0,0,0,0-0.1,0c-1-0.9-1.8-1-2.1-1c-0.2,0-0.3,0-0.3-0.1c-0.1-0.1,0-0.4,0.1-0.7c0.1-0.3,0.2-0.7,0.1-1l0,0l0,0
			c-1-0.2-2.4-1.1-2.5-2.3c0.2-0.8,0.6-1.3,1.2-1.7l-0.1-0.1c-0.5,0.3-0.9,0.8-1.1,1.6c0,0,0,0.1,0,0.1c0,0,0,0,0,0l0,0l0,0
			c0,0.2,0.1,0.3,0.1,0.5c0,0,0,0.1,0,0.1c0.4,0.9,1.6,1.7,2.4,1.8c0.1,0.3,0,0.6-0.1,0.9c-0.1,0.3-0.2,0.6-0.1,0.7
			c0.1,0.1,0.2,0.1,0.4,0.2c0.3,0,0.7,0.1,1.2,0.4c0,0,0.1,0,0.1,0c0.1,0.1,0.3,0.2,0.4,0.3c0,0,0,0,0.1,0.1
			c0.1,0.1,0.2,0.1,0.3,0.2l0,0l0,0c0.1,0,0.2,0,0.2,0.1c0.1,0.1,0.1,0.1,0.2,0.2c0.1,0,0.3,0.1,0.5,0.1c0.2,0,0.4,0,0.4,0l0.1,0
			l0-0.1C302.3,212.3,302,211.6,301.6,211.2C301.6,211.3,301.6,211.3,301.6,211.2z"/>
		<path d="M305,199.6L305,199.6c-0.4,0.3-1.1,0.3-1.1,0.3l-0.1,0l0.1,0.1c0.1,0.1,0.2,0.3,0.4,0.4c0,0,0,0,0.1-0.1
			c-0.1-0.2-0.3-0.3-0.3-0.4c0.2,0,0.7-0.1,1-0.3C305,199.7,305,199.7,305,199.6C305,199.7,305,199.7,305,199.6L305,199.6z"/>
		<path d="M301.6,202.9C301.6,203,301.6,203,301.6,202.9l-0.1,0.2C301.6,203.1,301.6,203,301.6,202.9z"/>
		<path d="M304.4,200.7c0.4,0.5,0.9,1.2,0.7,1.5l0,0l0,0c0.3,0.1,0.8,0.9,0.8,0.9l0,0l0,0c0,0,1.1-0.6,1.4-1.1
			c0.3,0,0.8,0.2,1.3,0.4c0.3,0.1,0.6,0.3,0.9,0.3c0.5,0.4,1,0.8,1.2,1c-0.1,0.1-0.4,0.2-0.6,0.1c-0.1,0-0.3-0.1-0.3-0.3l0,0l0,0
			c-0.1,0-0.3-0.1-0.5-0.2c-0.5-0.3-1.1-0.6-1.9-0.4l0,0l0,0c0,1-1.1,1.7-1.2,1.7l0,0.1c0,0,1.1-0.1,1.6,0.2
			c0.6,0.5,1.4,1.1,1.5,1.2l0.8,1.3c0,0,0,0,0,0c-0.2,0-0.7-0.1-0.9-0.8l0-0.1l0,0.1c-0.1,0.2-0.1,0.2-0.1,0.2c0,0,0,0,0,0
			c0,0-0.1-0.1-0.2-0.2c-0.2-0.3-0.5-0.7-1-1l0,0l0,0c-0.3,0-0.5,0.1-0.7-0.2l0,0l0,0c-0.2,0.1-0.4,0.1-0.6,0.2
			c-0.6,0.2-1.4,0.5-2.2,0.4l0,0l0,0c-0.1,0-0.2,0.1-0.3,0.1c0,0,0,0.1,0,0.1c0.1,0,0.2-0.1,0.3-0.1c0.8,0.1,1.6-0.2,2.2-0.4
			c0.2-0.1,0.4-0.1,0.6-0.2c0.3,0.2,0.5,0.2,0.8,0.2c0.5,0.3,0.8,0.7,1,1c0.1,0.2,0.2,0.3,0.3,0.3c0.1,0,0.1-0.1,0.1-0.2
			c0.3,0.8,1,0.7,1,0.7l0.1,0l-0.8-1.4l0,0c0,0-0.9-0.7-1.5-1.2c-0.5-0.3-1.2-0.3-1.5-0.2c0.3-0.2,1-0.9,1.1-1.7
			c0.7-0.2,1.3,0.2,1.8,0.4c0.2,0.1,0.4,0.2,0.5,0.2c0.1,0.2,0.2,0.3,0.4,0.3c0.3,0.1,0.7-0.2,0.7-0.2l0.1,0l0,0c0,0-0.6-0.5-1.2-1
			l0,0l0,0c-0.2,0-0.5-0.2-0.8-0.3c-0.4-0.2-0.9-0.4-1.3-0.4h0l0,0c-0.3,0.5-1.2,1-1.4,1.1c-0.1-0.1-0.5-0.7-0.8-0.8
			C305.3,201.9,304.9,201.2,304.4,200.7C304.5,200.7,304.4,200.7,304.4,200.7z"/>
		<path d="M301.5,203.1C301.5,203.1,301.5,203.1,301.5,203.1c0,0.1-0.1,0.1-0.1,0.2l0,0.1c0,0,0,0,0,0
			C301.5,203.4,301.5,203.3,301.5,203.1L301.5,203.1z"/>
		<path d="M303.2,197.8c0.2-0.2,0.4-0.2,0.5-0.3c0,0.1,0.1,0.3-0.1,0.5l0,0.1l0.1,0c0.4,0,0.9,0.1,1.4,0.2c0.3,0.1,0.7,0.2,0.9,0.2
			c0.2,0.4,0.2,0.5,0.1,0.7c0,0.1,0,0.1-0.1,0.1c-0.1,0.1-0.2,0-0.2,0l0,0l0,0c-0.1,0.1-0.2,0.2-0.3,0.2c0,0-0.1,0.1-0.1,0.1
			c0.2,0,0.4-0.1,0.5-0.2c0,0,0.2,0,0.2,0c0.1,0,0.1-0.1,0.1-0.2c0-0.3,0.1-0.4-0.1-0.8l0,0l0,0c-0.3,0-0.6-0.1-0.9-0.2
			c-0.5-0.1-1-0.2-1.4-0.2c0.1-0.2,0-0.5,0-0.6l0,0l0,0C303.7,197.5,303.4,197.6,303.2,197.8C303.1,197.8,303.1,197.8,303.2,197.8z"
			/>
		<path fill="#96877D" d="M294.9,203.2c0,0,0.1,0.2,0.2,0.4c0-0.1,0.1-0.2,0.1-0.3C295.1,203.2,294.9,203.2,294.9,203.2z"/>
		<path fill="#96877D" d="M298.1,205.9l1.2,0.4l-0.7-1l-2.1-1.3l-0.3-0.2c0,0,0,0.1,0,0.2c0,0.1,0,0.2,0,0.3c0,0,0,0-0.1,0l0.1,0
			L298.1,205.9z"/>
		<path d="M297.2,205.3l0.8,0.7l1.5,0.5l-0.8-1.2l-0.6-0.4l-0.1-0.1l-1.4-0.9l0,0c-0.1,0-0.1,0-0.2-0.1c0,0-0.1,0-0.1,0c0,0,0,0,0,0
			l0.3,0.2l2.1,1.3l0.7,1l-1.2-0.4l-1.8-1.6l-0.1,0c0,0-0.1,0-0.1,0l0.1,0.1L297.2,205.3L297.2,205.3z"/>
		<path d="M295.1,203.6C295.1,203.6,295.1,203.6,295.1,203.6c-0.1-0.2-0.2-0.3-0.2-0.4c0,0,0.2,0,0.4,0c0,0,0-0.1,0-0.1
			c-0.2-0.1-0.4-0.1-0.5,0c-0.1,0.1,0.1,0.4,0.3,0.6C295.1,203.7,295.1,203.6,295.1,203.6z"/>
		<path fill="#96877D" d="M306.1,209.5c0.1-0.8,0.3-2.1,1.1-2.9c-0.4,0-1.1,0.6-1.6,1.2c0.4,0.3,0.5,0.4,0.4,0.5
			c0,0-0.1,0.1-0.2,0.1c0,0,0,0-0.1,0c-0.2,0-0.4,0-0.6-0.1c-0.1,0.1-0.2,0.2-0.2,0.2C305.3,208.8,305.8,209.2,306.1,209.5z"/>
		<path d="M304.8,208.5c0-0.1,0.1-0.1,0.2-0.2c0,0-0.1,0-0.1,0C304.9,208.3,304.8,208.4,304.8,208.5
			C304.8,208.5,304.8,208.5,304.8,208.5z"/>
		<path d="M305.5,207.8c0.5-0.5,1.2-1.2,1.6-1.2c-0.8,0.7-1,2.1-1.1,2.9c0,0,0.1,0.1,0.1,0.1c0-0.2,0-0.4,0.1-0.6
			c0-0.2,0.1-0.3,0.1-0.5c0.2-0.7,0.4-1.4,0.9-1.8l0.1-0.1l-0.1,0C306.8,206.4,306,207.2,305.5,207.8
			C305.4,207.8,305.5,207.8,305.5,207.8z"/>
		<path fill="#96877D" d="M299.9,201.7c-0.1-0.1-0.1-0.4-0.2-0.6c0-0.3-0.1-0.7-0.3-0.9c-0.1-0.1-0.2-0.2-0.3-0.3
			c-0.3-0.3-0.5-0.5-0.4-0.7c-0.4,0.2-0.8,0.4-0.8,0.6l0,0l0,0c-0.2,0-0.6,0.3-0.6,0.6l0,0l0,0c-0.2,0-0.5,0.2-0.9,0.8l0,0l0,0
			c-0.7,0.3-0.8,2-0.8,2l0,0l0,0c-0.1,0.1-0.2,0.3-0.2,0.4c0,0.1,0,0.2,0.1,0.2c0,0,0,0,0,0l0.1,0l0,0.1c0,0.1,0.1,0.1,0.1,0.1
			c0,0,0,0,0.1,0l0.1,0l0,0.1c0,0.1,0.1,0.1,0.2,0.1l0,0l0,0c0,0,0,0,0.1,0c0,0,0,0,0,0c0.1,0,0.1,0,0.1,0c0,0,0-0.1,0-0.2
			c0-0.2,0-0.2,0-0.3c0,0,0.1,0,0.2,0c0,0,0.2,0.1,0.2,0.1c0,0,0-0.1-0.1-0.2c0,0,0,0,0,0c-0.1-0.1-0.2-0.2-0.3-0.4
			c-0.1-0.3,0.1-0.6,0.1-0.7l0,0c0,0,0.8-0.7,0.9-1.2l0,0l0,0c0.5,0.1,0.9-0.4,1-0.6c0,0,0.1-0.1,0.1-0.1l0.1,0.1
			c-0.4,0.5-0.4,1.5,0.1,1.9l0,0l0,0c0,0.6,0.6,1.8,1,1.9c0.5,0.1,2.3,0.5,2.9,0.4l0.1,0l0,0.1c-0.1,0.9,0.4,1.8,1.6,2.6l0,0l0,0
			c0,0.1,0,0.2,0.1,0.3c0.1,0.1,0.4,0.1,0.5,0.1l0-0.1l0.1,0.1c0.1,0.2,0.5,0.3,0.9,0.3c0.2,0,0.2,0,0.3,0c-0.1-0.1-0.6-0.5-1-0.8
			c-0.3-0.2-0.6-0.4-0.7-0.6l0,0c-0.3-0.5-0.8-1.6-0.9-2.5c-0.7-0.8-1.9-0.8-1.9-0.8l0,0l0-0.6c-0.2-0.2-0.4-0.3-0.5-0.4
			C300.5,202.3,300.1,202.1,299.9,201.7z"/>
		<path fill="#96877D" d="M300.2,198.7c-0.1,0.1-0.3,0.2-0.3,0.2c0.3,0.3,0.8,0.6,0.8,0.7l0,0c0,0,0.1-0.1,0.2-0.1l0,0l0,0
			c0.1,0.1,0.4-0.2,0.4-0.3l0,0l0,0c0.1,0,0.2,0,0.2,0c0,0,0,0,0,0c0,0,0-0.1,0-0.2c0-0.1,0-0.3,0.1-0.4l0,0l0,0
			c0.1-0.1,0.1-0.2,0.2-0.3c-0.2,0-0.5,0-0.8-0.1c-0.3-0.1-0.7-0.2-1-0.1c0,0.1,0,0.1,0,0.1C300.3,198.4,300.3,198.6,300.2,198.7z"
			/>
		<path d="M301.1,197.1C301,197.1,301,197.2,301.1,197.1C301,197.1,301.1,197.1,301.1,197.1C301.1,197.1,301.1,197.1,301.1,197.1
			C301.1,197.1,301.1,197.1,301.1,197.1z"/>
		<path d="M302.1,197.9C302.1,197.9,302.1,197.9,302.1,197.9C302.1,197.9,302.1,197.9,302.1,197.9
			C302.1,197.9,302.1,197.9,302.1,197.9z"/>
		<path d="M300.1,198.6C300.1,198.6,300.1,198.7,300.1,198.6c-0.1,0.1-0.1,0.1-0.1,0.1c-0.1,0-0.1,0.1-0.2,0.1c0,0-0.1,0-0.1,0
			c0,0,0.1,0,0.1,0.1c0,0,0,0,0.1,0.1C300,198.9,300.2,198.7,300.1,198.6c0.1,0,0.1-0.2,0.1-0.5c0,0,0-0.1,0-0.1c0,0,0,0,0,0
			c0,0,0,0-0.1,0c0,0.1,0,0.1,0,0.1C300.2,198.5,300.2,198.6,300.1,198.6z"/>
		<path d="M302.1,198C302.1,198.1,302.1,198.1,302.1,198C302.1,198.1,302.1,198.1,302.1,198z"/>
		<path d="M300.8,197.2c-0.1,0-0.1,0-0.2,0.1C300.7,197.2,300.7,197.2,300.8,197.2z"/>
		<path d="M303.9,206.1c-0.2-0.6-0.5-1.2-0.6-1.8l0,0l0,0c-0.6-0.7-1.6-0.8-1.9-0.8c0,0,0,0,0,0l0-0.1l0-0.3c0,0-0.1-0.1-0.1-0.1
			l0,0.6l0,0c0,0,1.2,0,1.9,0.8c0.1,0.9,0.6,2,0.9,2.5l0,0c0.1,0.1,0.4,0.3,0.7,0.6c0.4,0.3,0.9,0.7,1,0.8c0,0-0.1,0-0.3,0
			c-0.3,0-0.7-0.1-0.9-0.3l-0.1-0.1l0,0.1c-0.1,0-0.4,0-0.5-0.1c-0.1-0.1-0.1-0.2-0.1-0.3l0,0l0,0c-1.2-0.8-1.7-1.7-1.6-2.6l0-0.1
			l-0.1,0c-0.7,0.1-2.4-0.3-2.9-0.4c-0.4-0.1-0.9-1.3-1-1.9l0,0l0,0c-0.5-0.4-0.5-1.4-0.1-1.9l-0.1-0.1c0,0-0.1,0.1-0.1,0.1
			c-0.2,0.2-0.5,0.6-1,0.6l0,0l0,0c-0.1,0.5-0.9,1.2-0.9,1.2l0,0c0,0-0.2,0.4-0.1,0.7c0,0.2,0.2,0.3,0.3,0.4c0,0,0,0,0,0
			c0.1,0.1,0.1,0.2,0.1,0.2c0,0-0.1,0-0.2-0.1c-0.1,0-0.1-0.1-0.2,0c0,0,0,0.1,0,0.3c0,0.1,0,0.2,0,0.2c0,0-0.1,0-0.1,0c0,0,0,0,0,0
			c-0.1,0-0.1,0-0.1,0l0,0l0,0c-0.1,0-0.2,0-0.2-0.1l0-0.1l-0.1,0c0,0,0,0-0.1,0c0,0-0.1-0.1-0.1-0.1l0-0.1l-0.1,0c0,0,0,0,0,0
			c0,0-0.1-0.1-0.1-0.2c0-0.1,0.2-0.4,0.2-0.4l0,0l0,0c0,0,0.1-1.7,0.8-2l0,0l0,0c0.4-0.6,0.6-0.9,0.9-0.8l0,0l0,0
			c0.1-0.2,0.4-0.5,0.6-0.6l0,0l0,0c0-0.3,0.4-0.5,0.8-0.6c0,0,0,0,0-0.1l0,0l0,0c0,0,0,0,0,0c-0.4,0.2-0.9,0.4-1,0.7
			c-0.2,0.1-0.6,0.3-0.7,0.6c0,0,0,0,0,0c-0.2,0-0.5,0.3-0.9,0.9c-0.5,0.2-0.7,0.9-0.8,1.4c0,0,0,0.1,0,0.1c0,0.3-0.1,0.5-0.1,0.5
			c0,0,0,0,0,0.1c0,0,0,0.1,0,0.1c-0.1,0.1-0.1,0.2-0.1,0.3c0,0,0,0,0,0c0,0,0,0.1,0,0.1c0,0.1,0,0.1,0.1,0.2c0,0,0.1,0,0.1,0
			c0,0.1,0.1,0.1,0.1,0.2c0,0,0.1,0,0.1,0c0,0,0,0,0,0c0,0.1,0.2,0.1,0.3,0.1c0,0,0,0,0,0c0,0,0.1,0,0.1,0c0,0,0.1,0,0.1,0
			c0,0,0.1,0,0.1,0c0,0,0.1,0,0.1,0c0,0,0-0.1,0-0.3c0-0.1,0-0.1,0-0.2c0,0,0,0,0,0c0,0,0,0,0.1,0c0.1,0,0.2,0.1,0.2,0.1
			c0,0,0,0,0,0c0.1-0.1,0-0.3,0-0.3c0,0,0,0-0.1-0.1c-0.1-0.1-0.2-0.1-0.2-0.3c0-0.2,0.1-0.5,0.1-0.6c0.1,0,0.3-0.3,0.5-0.5
			c0-0.1,0.1-0.1,0.1-0.2c0.1-0.2,0.2-0.4,0.3-0.5c0.4,0,0.7-0.2,0.9-0.4c0,0,0,0.1,0,0.1c0,0.1,0,0.1,0,0.2c-0.1,0.5,0,1,0.3,1.3
			c0.1,0.6,0.5,1.6,0.9,1.9c0,0,0.1,0.1,0.1,0.1c0,0,0,0,0,0c0.5,0.1,2.2,0.5,2.9,0.4c-0.1,0.6,0.2,1.2,0.6,1.7c0,0,0,0,0.1,0.1
			c0.2,0.3,0.6,0.6,0.9,0.9c0,0.1,0,0.2,0.1,0.4c0.1,0.1,0.4,0.1,0.5,0.1c0,0,0,0,0,0c0.1,0.1,0.2,0.1,0.3,0.2c0,0,0.1,0,0.1,0
			c0.2,0.1,0.5,0.1,0.6,0.1c0,0,0,0,0.1,0c0.1,0,0.2,0,0.2-0.1c0-0.1,0-0.2-0.4-0.5c0,0,0,0-0.1-0.1c-0.1-0.1-0.3-0.2-0.5-0.4
			c-0.3-0.2-0.6-0.4-0.7-0.5C304.1,206.7,304,206.5,303.9,206.1C303.9,206.2,303.9,206.2,303.9,206.1z"/>
		<path d="M301.9,198.5L301.9,198.5L301.9,198.5c0,0.1-0.1,0.3-0.1,0.4c0,0.1,0,0.1,0,0.2c0,0,0,0,0,0c0,0-0.1,0-0.2,0l0,0l0,0
			c0,0.1-0.3,0.4-0.4,0.3l0,0l0,0c-0.1,0.1-0.2,0.1-0.2,0.1l0,0c0,0,0,0,0,0l0.5,0.2l0,0l-0.4-0.2c0,0,0.1-0.1,0.1-0.1
			c0.2,0,0.4-0.2,0.5-0.3c0.1,0,0.2,0,0.3,0l0.1-0.2c0,0,0,0,0-0.1c0,0,0,0,0,0C301.9,198.8,301.9,198.7,301.9,198.5
			c0.2-0.1,0.3-0.2,0.3-0.4c0,0,0,0,0,0.1l0,0l0,0c0,0,0,0-0.1,0C302,198.4,302,198.5,301.9,198.5z"/>
		<path fill="#96877D" d="M297,198.1c0.5,0,0.9,0.2,1.2,0.3c0.3,0.1,0.5,0.2,0.8,0.2c0.2-0.2,0.5-0.4,0.8-0.5
			c0.1-0.1,0.2-0.1,0.3-0.2l0,0c0.3-0.1,0.7,0,1.1,0.1c0.3,0.1,0.6,0.2,0.8,0.1c0-0.1,0-0.3-0.1-0.5c-0.1-0.2-0.3-0.4-0.8-0.5
			c-0.4,0-0.8,0.4-0.8,0.4l0,0l0,0c0,0-0.9-0.4-1.3-0.1l0,0l0,0c-0.3-0.1-0.6-0.2-0.8-0.1c-0.2,0.1-0.3,0.3-0.3,0.3l0,0l0,0
			C297.8,197.8,297.2,197.8,297,198.1z"/>
		<path d="M296.9,198.2L296.9,198.2c0.4,0,0.7,0.1,1,0.2c0.1,0,0.2,0.1,0.2,0.1c0.1,0,0.1,0,0.2,0.1c0.2,0.1,0.4,0.1,0.6,0.1
			c0,0,0.1,0,0.1,0l0,0l0,0l0,0c0,0,0,0,0.1-0.1c0.1-0.1,0.4-0.3,0.6-0.4c0,0,0.1,0,0.1,0c0,0,0.1,0,0.1,0c0.1,0,0.2-0.1,0.3-0.1
			c0,0,0,0,0.1,0c0,0,0,0,0,0c0.3-0.1,0.7,0,1,0.1c0.3,0.1,0.6,0.1,0.8,0.1c0,0,0,0,0.1,0l0,0l0,0c0,0,0,0,0-0.1c0,0,0,0,0-0.1
			c0,0,0,0,0-0.1c0,0,0-0.1,0-0.2c0,0,0,0,0,0c0-0.1-0.1-0.1-0.1-0.2c-0.1-0.2-0.4-0.5-0.8-0.5c0,0,0,0,0,0c0,0-0.1,0-0.1,0
			c-0.1,0-0.1,0-0.2,0c-0.1,0-0.1,0-0.2,0.1c-0.2,0.1-0.3,0.2-0.3,0.3c-0.1,0-0.3-0.1-0.5-0.2c0,0-0.1,0-0.1,0c-0.2,0-0.5,0-0.6,0.1
			c-0.3-0.1-0.6-0.2-0.9-0.1c-0.2,0.1-0.3,0.3-0.4,0.3C297.7,197.7,297.1,197.7,296.9,198.2L296.9,198.2L296.9,198.2L296.9,198.2z
			 M297.9,197.8c0,0,0.1-0.2,0.3-0.3c0.2-0.1,0.5-0.1,0.8,0.1l0,0l0,0c0.3-0.3,1.2,0.1,1.3,0.1l0,0l0,0c0,0,0.3-0.4,0.8-0.4
			c0.4,0.1,0.7,0.3,0.8,0.5c0.1,0.2,0.1,0.4,0.1,0.5c-0.2,0-0.5,0-0.8-0.1c-0.4-0.1-0.7-0.2-1.1-0.1l0,0c-0.1,0.1-0.2,0.1-0.3,0.2
			c-0.3,0.2-0.7,0.3-0.8,0.5c-0.2,0-0.5-0.1-0.8-0.2c-0.3-0.1-0.7-0.3-1.2-0.3C297.2,197.8,297.8,197.8,297.9,197.8L297.9,197.8
			L297.9,197.8z"/>
		<path fill="#96877D" d="M301.4,201.9C301.5,202,301.5,202,301.4,201.9l-0.2-0.9C301.2,201.4,301.3,201.8,301.4,201.9z"/>
		<path fill="#96877D" d="M299.8,198.9c-0.4-0.3-0.9,0-1,0.1c0,0.2,0.2,0.4,0.4,0.7c0.1,0.1,0.2,0.2,0.3,0.4c0.2,0.3,0.3,0.7,0.3,1
			c0,0.2,0,0.4,0.1,0.6c0.3,0.4,0.6,0.6,0.9,0.9c0.2,0.1,0.4,0.3,0.6,0.5l0-0.3l0-0.5c-0.1,0-0.3-0.1-0.4-0.2
			c-0.3-0.4-0.1-1.4-0.1-1.5l0,0l0.1,0c0,0,0-0.1-0.1-0.1c0,0,0,0,0,0c-0.1,0-0.2-0.1-0.3-0.2c-0.1,0-0.2-0.1-0.3-0.2
			c-0.1,0-0.3-0.2-0.3-0.2l0-0.1l0.1,0c0.1,0,0.4-0.1,0.5,0l0,0c0.1,0,0.2,0.1,0.3,0.2c0.1,0,0.2,0.1,0.2,0.2c0,0,0,0,0,0l0-0.3
			l-0.5-0.2C300.7,199.7,300.2,199.3,299.8,198.9z"/>
		<path d="M301.5,203.1L301.5,203.1L301.5,203.1L301.5,203.1l0.1-0.1C301.6,203,301.5,203,301.5,203.1L301.5,203.1
			C301.5,203.1,301.5,203.1,301.5,203.1C301.5,203.1,301.5,203.1,301.5,203.1z"/>
		<path d="M298.7,198.9L298.7,198.9C298.7,199,298.7,199,298.7,198.9c0,0.3,0.2,0.5,0.4,0.8c0.1,0.1,0.2,0.2,0.3,0.3
			c0.2,0.3,0.3,0.6,0.3,0.9c0,0.2,0.1,0.5,0.2,0.6c0.3,0.4,0.6,0.7,0.9,0.9c0.2,0.1,0.4,0.3,0.5,0.4c0,0,0.1,0.1,0.1,0.1
			c0,0,0,0,0,0l0-0.1c-0.2-0.2-0.4-0.4-0.6-0.5c-0.3-0.2-0.6-0.4-0.9-0.9c-0.1-0.1-0.1-0.3-0.1-0.6c0-0.3-0.1-0.7-0.3-1
			c-0.1-0.1-0.2-0.2-0.3-0.4C298.9,199.4,298.7,199.2,298.7,198.9c0.2,0,0.7-0.3,1.1,0c0.4,0.4,0.9,0.8,1,0.8l0.5,0.2l0-0.1
			l-0.5-0.2c0,0,0,0,0,0c-0.1-0.1-0.5-0.4-0.8-0.7c0,0,0,0-0.1-0.1c0,0-0.1,0-0.1-0.1c-0.1,0-0.2-0.1-0.2-0.1c-0.1,0-0.2,0-0.3,0
			C299,198.8,298.8,198.9,298.7,198.9C298.7,198.9,298.7,198.9,298.7,198.9L298.7,198.9z"/>
		<path d="M301.5,202.2C301.5,202.2,301.5,202.2,301.5,202.2l-0.1,0.5L301.5,202.2z"/>
		<path fill="#96877D" d="M301.2,200.3L301.2,200.3c0-0.1-0.1-0.2-0.2-0.2l0,0l0,0c0-0.1-0.1-0.1-0.2-0.1l0,0c0,0-0.2,0-0.3,0
			c0,0,0.1,0.1,0.2,0.1l0,0l0,0c0,0.1,0.1,0.2,0.2,0.2l0,0l0,0C300.9,200.2,301,200.3,301.2,200.3
			C301.1,200.3,301.1,200.3,301.2,200.3l0,0.1l0,0c0,0,0,0.1,0.1,0.1l0,0l0-0.2C301.2,200.3,301.2,200.3,301.2,200.3L301.2,200.3z"
			/>
		<path d="M301,200c0-0.1-0.2-0.1-0.3-0.2l0,0c-0.1-0.1-0.4,0-0.5,0l-0.1,0l0,0.1c0,0,0.1,0.2,0.3,0.2c0,0.1,0.1,0.2,0.3,0.2
			c0.1,0.1,0.2,0.1,0.3,0.2c0,0,0,0,0,0c0,0,0,0.1,0.1,0.1l0.1,0c0,0,0-0.1-0.1-0.1l0,0l0,0c0,0,0,0-0.1,0c-0.1,0-0.2-0.1-0.2-0.1
			l0,0l0,0c-0.1,0-0.2-0.1-0.2-0.2l0,0l0,0c-0.1,0-0.1,0-0.2-0.1c0.1,0,0.3,0,0.3,0l0,0C300.8,199.9,300.9,200,301,200L301,200
			L301,200c0,0.1,0.1,0.2,0.1,0.2v0l0,0c0,0,0,0,0.1,0.1l0-0.1c0,0,0,0,0,0C301.2,200.1,301.1,200,301,200z"/>
		<path fill="#96877D" d="M301.6,202.9c0.1-0.1,0.4-0.4,0.4-0.6c0,0,0-0.1,0-0.1c-0.1,0-0.2,0.1-0.3,0.1L301.6,202.9z"/>
		<path fill="#96877D" d="M301.6,202c0.1,0,0.2-0.1,0.3-0.1c0-0.2-0.1-0.4-0.1-0.5c0,0-0.3-0.5,0.1-1.4c0.2-0.5,0.5-0.9,0.8-1.3
			c0.2-0.3,0.4-0.6,0.5-0.8c-0.2-0.1-0.4-0.1-0.5,0l-0.9,1.6l-0.4,0.3l0,1.2L301.6,202C301.6,202,301.6,202,301.6,202z"/>
		<path d="M302.6,197.8L302.6,197.8L302.6,197.8l-0.7,1.1l-0.1,0.1l-0.1,0.2l-0.1,0.2l-0.4,0.3l0,0.1l0,0l0,0.1l0,0.3l0,0.1l0,0.2
			l0.1,0l0,0.1c0,0,0,0.2,0,0.5l0.3,0.9c0,0,0.1,0,0.1,0l-0.3-1l0-1.2l0.4-0.3L302.6,197.8c0.1,0.1,0.3,0,0.5,0.1
			c-0.1,0.2-0.3,0.5-0.5,0.8c-0.3,0.4-0.6,0.8-0.8,1.3c-0.3,0.9-0.1,1.3-0.1,1.4c0,0.1,0.1,0.3,0.1,0.5c0,0,0.1,0,0.1,0
			c-0.1-0.3-0.1-0.5-0.1-0.5c0,0-0.3-0.5,0.1-1.3c0.2-0.5,0.5-0.9,0.7-1.3c0.2-0.3,0.4-0.6,0.5-0.9l0,0l0,0c0,0,0,0,0,0
			c0,0-0.1,0-0.1-0.1C302.9,197.7,302.7,197.7,302.6,197.8C302.6,197.8,302.6,197.8,302.6,197.8z"/>
		<path d="M301.5,203l0,0.1l0,0l0,0L301.5,203c0.1,0.1,0.1,0,0.1,0c0,0,0,0,0,0c0.1-0.1,0.4-0.4,0.4-0.6c0,0,0-0.1,0-0.2
			c0,0-0.1,0-0.1,0c0,0.1,0,0.1,0,0.1c0,0.2-0.3,0.4-0.4,0.6l0.1-0.6c0,0,0,0,0,0c0,0,0,0-0.1,0l-0.1,0.5L301.5,203z"/>
		<path fill="#96877D" d="M305.6,199.3l-0.2,0c-0.2,0.2-1.6,2.1-3.8,2.7c-0.1,0-0.2,0-0.3-0.1c-0.3-0.3-0.2-1.2-0.2-1.4l-0.1,0
			c0,0.2-0.2,1,0.1,1.4c0.1,0.1,0.2,0.2,0.4,0.2C303.7,201.8,305.3,199.7,305.6,199.3z"/>
		<path d="M305.5,199.6c0.2-0.2,0.2-0.3,0.2-0.3l0-0.1l-0.4,0l0,0c0,0-0.1,0.2-0.3,0.4c0,0-0.1,0.1-0.1,0.1
			c-0.2,0.2-0.4,0.4-0.7,0.7c0,0,0,0-0.1,0.1c-0.6,0.5-1.3,1-2.2,1.4c0,0-0.1,0-0.1,0c-0.1,0-0.2,0.1-0.3,0.1c0,0,0,0,0,0
			c0,0-0.1,0-0.1,0c0,0-0.1,0-0.1,0c-0.2-0.2-0.2-0.6-0.2-0.9c0-0.3,0-0.5,0-0.5l0-0.1l-0.1,0l0,0l-0.1,0l-0.1,0l0,0
			c0,0-0.2,1,0.1,1.5c0.1,0.1,0.2,0.2,0.4,0.2c0,0,0,0,0,0c0,0,0,0,0.1,0c0,0,0,0,0,0c0.1,0,0.2-0.1,0.3-0.1c0,0,0.1,0,0.1,0
			c0.9-0.3,1.7-0.9,2.3-1.4c0,0,0,0,0.1-0.1c0.4-0.3,0.7-0.7,0.9-0.9C305.4,199.7,305.4,199.7,305.5,199.6z M301.6,202.2
			c-0.2,0-0.3-0.1-0.4-0.2c-0.3-0.4-0.1-1.2-0.1-1.4l0.1,0c0,0.3-0.1,1.2,0.2,1.4C301.5,202.1,301.6,202.1,301.6,202.2
			c2.3-0.8,3.7-2.6,3.8-2.8l0.2,0C305.3,199.7,303.7,201.8,301.6,202.2z"/>
		<path fill="#96877D" d="M306.6,210.2c0,0-0.6-0.8-1.4-1.4c-1.1-0.8-2.2-1-3.2-0.6c0,0,0,0,0,0c0.4,0,0.6,0.1,0.8,0.2
			c0.2,0.1,0.2,0.3,0.2,0.3c0.1,0,0.5,0,0.6,0.2c0.1,0.1,0.1,0.2,0.1,0.4c0.1,0,0.2,0,0.3,0.1c0.1,0.1,0.2,0.3,0.2,0.4
			c0.1,0,0.2-0.1,0.4,0c0.1,0,0.1,0.1,0.1,0.2c0.1,0,0.2,0,0.2,0c0.2,0.1,0.4,0.4,0.4,0.5c0.1,0,0.4,0.1,0.5,0.4
			c0.2,0.1,0.4,0,0.4,0l0,0L306.6,210.2L306.6,210.2z"/>
		<path d="M304.8,208.5C304.8,208.5,304.8,208.5,304.8,208.5c-0.9-0.6-2-0.9-3.3-0.3l0,0.1c0.5-0.1,0.9,0,1.1,0.2
			c0.2,0.1,0.2,0.3,0.2,0.3l0,0l0,0c0,0,0.4,0,0.6,0.2c0.1,0.1,0.1,0.2,0,0.3l0,0.1l0.1,0c0.1,0,0.2,0,0.3,0.1
			c0.1,0.1,0.2,0.4,0.2,0.4l0,0.1l0.1,0c0.1,0,0.2-0.1,0.3,0c0.1,0,0.1,0.1,0.1,0.2l0,0.1l0.1,0c0.1,0,0.1,0,0.2,0
			c0.1,0,0.2,0.1,0.3,0.3c0,0.1,0.1,0.1,0.1,0.1c0,0.1,0.1,0.1,0.1,0.1l0,0l0,0c0,0,0.1,0,0.3,0.1c0,0,0.1,0.1,0.1,0.1
			c0,0,0.1,0.1,0.1,0.2l0,0l0,0c0.1,0.1,0.2,0.1,0.3,0.1c0.2,0,0.3-0.1,0.3-0.1l0,0l0,0c0,0-0.2,0.1-0.4,0c-0.1-0.3-0.4-0.4-0.5-0.4
			c0-0.1-0.2-0.4-0.4-0.5c-0.1,0-0.2,0-0.2,0c0-0.1-0.1-0.1-0.1-0.2c-0.1-0.1-0.3,0-0.4,0c0-0.1-0.1-0.3-0.2-0.4
			c-0.1-0.1-0.2-0.1-0.3-0.1c0-0.1,0-0.3-0.1-0.4c-0.2-0.2-0.5-0.2-0.6-0.2c0-0.1-0.1-0.2-0.2-0.3c-0.2-0.2-0.5-0.2-0.8-0.2
			c0,0,0,0,0,0c1.1-0.4,2.1-0.2,3.2,0.6c0.9,0.6,1.4,1.4,1.4,1.4l0,0l0,0c0,0,0-0.1-0.1-0.2c0,0,0,0-0.1-0.1
			c-0.1-0.1-0.2-0.2-0.3-0.4c0,0-0.1-0.1-0.1-0.1C305.8,209.2,305.3,208.8,304.8,208.5z"/>
		<path fill="#96877D" d="M307.3,211.8L307.3,211.8c0.6,0.4,1.1,0.6,1.5,0.5c0.4-0.1,0.6-0.4,0.6-0.5c-0.1,0-0.2-0.1-0.2-0.2
			c0,0,0,0-0.1,0c-0.1,0-0.1-0.1-0.1-0.1c0,0.2-0.1,0.6-0.4,0.6c0,0,0,0,0,0c-0.3,0-0.9-0.7-1-0.7L307.3,211.8L307.3,211.8z"/>
		<path d="M308.1,211.6c-0.2-0.1-0.3-0.3-0.4-0.4l-0.1,0.1c0,0,0,0,0,0c0.1,0.1,0.7,0.7,1,0.7c0,0,0,0,0,0c0.3,0,0.4-0.4,0.4-0.6
			c0,0,0.1,0.1,0.1,0.1c0,0,0,0,0.1,0c0,0.1,0.1,0.2,0.2,0.2c-0.1,0.1-0.3,0.4-0.6,0.5c-0.4,0.1-0.9-0.1-1.5-0.5l0,0l0,0
			c0,0,0.1,0,0.1,0.1c0,0,0.1,0,0.1,0.1c0.4,0.3,0.8,0.4,1.1,0.4c0.1,0,0.2,0,0.3,0c0.5-0.1,0.7-0.6,0.7-0.6l0,0l-0.1,0
			c0,0-0.2,0-0.2-0.2l0-0.1l-0.1,0c0,0,0,0-0.1,0c-0.1,0-0.1-0.2-0.1-0.2l-0.1,0c0,0.2-0.1,0.7-0.3,0.7c0,0,0,0,0,0
			C308.5,211.9,308.3,211.8,308.1,211.6C308.1,211.6,308.1,211.6,308.1,211.6z"/>
		<path fill="#96877D" d="M302.7,211.5L302.7,211.5L302.7,211.5l-0.2,1l0,0c-0.1,0.1-0.2,0.2-0.2,0.3c0,0,0.3,0,0.5-0.1
			c0,0,0.7-0.1,0.9-0.3l0,0l0,0.1c0.1,0.2,0.3,0.3,0.4,0.3c0,0,0-0.1,0-0.2l0-0.1l0.1,0c0.1,0,0.2,0,0.3,0c0-0.1,0-0.2-0.1-0.3l0,0
			l0,0c0,0,0-0.1,0-0.1c0-0.1,0-0.1,0-0.2c0,0-0.1,0-0.2,0c-0.3,0.3-0.9,0.6-1.1,0.5c0,0,0,0,0-0.1c0-0.1,0.1-0.1,0.2-0.2
			c0.2-0.2,0.4-0.4,0.3-0.6l0,0l0,0L302.7,211.5z"/>
		<path d="M304.5,212.5L304.5,212.5L304.5,212.5L304.5,212.5c0.1-0.1,0.1-0.3-0.1-0.4c0,0,0,0,0-0.1c0-0.1,0-0.2,0-0.2
			c0-0.1-0.1-0.1-0.3-0.1l0,0l0,0c-0.1,0.1-0.3,0.2-0.5,0.3c0,0-0.1,0-0.1,0c-0.2,0.1-0.4,0.1-0.4,0.1c0,0,0.1-0.1,0.1-0.2
			c0,0,0.1-0.1,0.1-0.1c0,0,0,0,0.1-0.1c0.1-0.2,0.2-0.3,0.1-0.6l0,0l0,0c0.1,0.3-0.1,0.5-0.3,0.6c-0.1,0.1-0.2,0.2-0.2,0.2
			c0,0,0,0,0,0.1c0.2,0.1,0.8-0.2,1.1-0.5c0.1,0,0.2,0,0.2,0c0,0,0,0.1,0,0.2c0,0,0,0.1,0,0.1l0,0l0,0
			C304.5,212.2,304.4,212.4,304.5,212.5c-0.1-0.1-0.2,0-0.3-0.1l-0.1,0l0,0.1c0,0,0,0.1,0,0.2c-0.1,0-0.3-0.1-0.4-0.3l0-0.1l0,0
			c-0.2,0.2-0.9,0.3-0.9,0.3c-0.2,0.1-0.5,0.1-0.5,0.1c0,0,0.1-0.2,0.2-0.3l0,0l0.2-0.9l0,0l0,0l-0.1,0.4l0,0.1l-0.1,0.4
			c-0.1,0.1-0.2,0.2-0.2,0.3c0,0,0,0,0,0.1c0,0,0.1,0,0.1,0c0.1,0,0.4-0.1,0.5-0.1c0,0,0.6-0.1,0.9-0.3c0.2,0.3,0.5,0.3,0.5,0.3l0,0
			l0,0c0,0,0-0.1,0-0.2c0,0,0,0,0.1,0C304.4,212.5,304.5,212.5,304.5,212.5z"/>
		<path d="M314.4,204.4l-1.6,0.1c-0.1,0-0.2,0-0.3,0c-0.1,0-0.1-0.1-0.1-0.2l0-0.1l-0.1,0l0.1,1l0.1,0l0-0.1c0-0.1,0-0.2,0.1-0.2
			c0,0,0.1-0.1,0.3-0.1l0.7,0c0,0,0,0,0,0.1c0,0,0,0,0,0c0,0,0,0.1,0,0.1l-1.1,0.9l0,0.6l0.1,0c0-0.1,0-0.2,0.1-0.3
			c0-0.1,0.1-0.2,0.3-0.3l0.7-0.5c0.1,0.2,0.1,0.3,0.3,0.4c0.1,0.1,0.2,0.1,0.4,0.1c0.1,0,0.3-0.1,0.4-0.1c0.1-0.1,0.2-0.2,0.2-0.3
			c0-0.1,0-0.3,0-0.6l0-0.9l-0.1,0l0,0.1c0,0.1,0,0.2-0.1,0.2C314.7,204.4,314.6,204.4,314.4,204.4z M314.7,205.4
			c-0.1,0.1-0.2,0.2-0.4,0.2c-0.2,0-0.3,0-0.4-0.2c-0.1-0.1-0.2-0.3-0.2-0.5c0,0,0,0,0,0c0,0,0,0,0-0.1h0l1-0.1c0,0.1,0,0.2,0,0.3
			C314.8,205.2,314.7,205.3,314.7,205.4z"/>
		<path d="M289.8,201.3v0.3l1.1-0.3l0-0.4c-0.1,0-0.2,0.1-0.3,0.1L289.8,201.3z"/>
		<path d="M288.3,210L288.3,210c0-0.1,0-0.2,0-0.3c0,0,0-0.1,0.1-0.1c0,0,0.1-0.1,0.2-0.1l1.5-0.4c0.1,0,0.2,0,0.3,0
			c0.1,0,0.1,0.1,0.1,0.2l0,0.1l0.1,0l-0.2-1l-0.1,0l0,0.1c0,0.1,0,0.1,0,0.2c0,0,0,0.1-0.1,0.1c0,0-0.1,0.1-0.2,0.1l-0.7,0.2
			l-0.1-0.4c0-0.1,0-0.1,0-0.2c0,0,0-0.1,0.1-0.1c0,0,0.1-0.1,0.2-0.1l0-0.1l-0.7,0.2l-0.1,0.1c0.1,0,0.2,0,0.3,0
			c0.1,0,0.1,0.1,0.1,0.2l0.1,0.4l-0.9,0.2v0l0-0.2l-0.1,0.1L288.3,210L288.3,210z"/>
		<polygon points="312.6,206.6 312.6,206.6 312.6,206.6 		"/>
		<path d="M299.4,194.6c-0.1,0-0.2-0.1-0.3-0.3l-1.3-1.7l-0.1,0l-0.3,2.1c0,0.2-0.1,0.3-0.1,0.4c0,0-0.1,0.1-0.2,0.1l0,0.1l0.7-0.2
			l0-0.1c-0.1,0-0.2,0-0.2,0c0,0-0.1,0-0.1-0.1c0,0,0-0.1,0-0.2l0.1-0.4l0.9-0.2l0.2,0.3c0.1,0.1,0.1,0.2,0.1,0.2c0,0,0,0.1,0,0.1
			c0,0-0.1,0.1-0.2,0.1l0,0.1l0.9-0.2l0-0.1C299.5,194.7,299.4,194.7,299.4,194.6z M297.7,194.3l0.2-1.1l0.6,0.8L297.7,194.3z"/>
		<path d="M295.4,194.9c0-0.1,0-0.1,0.1-0.2l0,0l0-0.1l-0.8,0.5l0,0.1c0.1-0.1,0.1-0.1,0.2-0.1c0,0,0.1,0,0.1,0c0,0,0.1,0.1,0.2,0.2
			l0.4,0.6c0,0.1-0.1,0.2-0.1,0.2c-0.1,0.1-0.1,0.1-0.2,0.2c-0.1,0.1-0.3,0.1-0.4,0.1c-0.2,0-0.3,0-0.5-0.2
			c-0.2-0.1-0.3-0.3-0.5-0.5c-0.2-0.2-0.2-0.5-0.2-0.7c0-0.3,0.1-0.5,0.4-0.7c0.2-0.1,0.4-0.2,0.6-0.1c0.1,0,0.3,0.1,0.4,0.2l0.1,0
			l-0.5-0.6l-0.1,0c0,0.1,0,0.1,0,0.1c0,0,0,0,0,0.1c0,0-0.1,0-0.1,0c-0.1,0-0.2,0.1-0.3,0.1c-0.1,0-0.1,0.1-0.2,0.1
			c-0.2,0.1-0.3,0.3-0.4,0.5c-0.1,0.2-0.2,0.5-0.1,0.7c0,0.2,0.1,0.4,0.2,0.6c0.2,0.2,0.4,0.4,0.7,0.5c0.4,0.1,0.7,0.1,1.1-0.2
			c0.1-0.1,0.3-0.2,0.3-0.3c0.1-0.1,0.2-0.2,0.3-0.4l-0.4-0.6C295.5,195.1,295.4,195,295.4,194.9z"/>
		<path d="M290.2,202.2l-0.4-0.2v0.4l0.3,0.1c0.1,0,0.1,0,0.1,0.1l0.3-0.3c0,0,0,0,0,0C290.5,202.3,290.4,202.2,290.2,202.2z"/>
		<path d="M312.1,209.2c0-0.1,0.1-0.2,0.1-0.2c0,0,0.1,0,0.3,0l0.6,0.2l0.7,0.8c0.1,0.1,0.2,0.2,0.2,0.2c0,0.1,0.1,0.1,0.1,0.2
			c0,0.1,0,0.1,0,0.1l0,0l0.1,0l0.2-0.8l-0.1,0c0,0.1,0,0.1-0.1,0.1c0,0,0,0-0.1,0.1c0,0-0.1,0-0.1,0c-0.1,0-0.1-0.1-0.2-0.2
			l-0.6-0.6l0.9-0.3c0.1,0,0.2-0.1,0.3,0c0.1,0,0.1,0,0.1,0.1c0,0.1,0,0.1,0,0.2l0,0.1l0.1,0l0.3-1l-0.1,0c0,0,0,0.1,0,0.1
			c-0.1,0.1-0.1,0.1-0.1,0.1c0,0-0.1,0.1-0.3,0.1l-1.1,0.4l-0.6-0.1c-0.1,0-0.2-0.1-0.2-0.1c0-0.1-0.1-0.1,0-0.2l0-0.1l-0.1,0
			L312.1,209.2L312.1,209.2L312.1,209.2z"/>
		<polygon points="290.7,202 290.7,202 290.7,202 		"/>
		<path d="M312.3,202.2l1.7-0.6l0.1,0.3c0,0.1,0,0.2,0,0.2c0,0.1,0,0.1-0.1,0.2c0,0-0.1,0.1-0.2,0.1l0,0.1l0.5-0.2l-0.7-1.9
			l-0.5,0.2l0,0.1c0.1,0,0.2,0,0.3,0c0.1,0,0.1,0.1,0.2,0.1c0,0,0.1,0.1,0.1,0.2l0.1,0.3l-1.7,0.6c-0.1,0-0.2,0.1-0.3,0
			c-0.1,0-0.1-0.1-0.2-0.2l0-0.1l-0.1,0l0.3,1l0.1,0l0-0.1c0-0.1,0-0.2,0-0.2C312.1,202.3,312.2,202.2,312.3,202.2z"/>
		<path d="M302.5,194.4c-0.1,0.1-0.1,0.1-0.2,0.1c-0.1,0-0.2,0-0.4,0l-0.2,0c-0.2,0-0.2,0-0.3,0c0,0-0.1,0-0.1-0.1c0,0,0-0.1,0-0.2
			l0.1-1.5c0-0.1,0-0.2,0-0.3c0,0,0.1-0.1,0.1-0.1c0.1,0,0.1,0,0.3,0l0-0.1l-1.1,0l0,0.1l0.1,0c0.1,0,0.2,0,0.2,0.1c0,0,0,0.1,0,0.3
			l-0.1,1.6c0,0.1,0,0.2,0,0.3c0,0.1-0.1,0.1-0.2,0.1l-0.1,0l0,0.1l1.9,0.1l0.2-0.6l-0.1,0C302.7,194.2,302.6,194.3,302.5,194.4z"/>
		<polygon points="302.7,194 302.7,194 302.7,194 		"/>
		<path d="M312.7,198.6c0.1,0,0.1,0,0.2,0.1l0.1,0.1l0.1,0l-0.5-0.7l-0.1,0l0,0.1c0.1,0.1,0.1,0.1,0.1,0.2c0,0-0.1,0.1-0.2,0.2
			l-1.1,0.8l0.6-2.3l-0.4-0.5l-0.1,0c0,0.1,0.1,0.1,0.1,0.1c0,0.1,0,0.1,0,0.2c0,0,0,0.1,0,0.2l-1.3,1c-0.1,0.1-0.2,0.1-0.2,0.1
			c-0.1,0-0.1,0-0.2-0.1l0-0.1l-0.1,0l0.5,0.7l0.1,0l-0.1-0.1c-0.1-0.1-0.1-0.1-0.1-0.2c0,0,0.1-0.1,0.2-0.2l1.2-0.9l-0.6,2.4l0,0.1
			l1.6-1.2C312.6,198.7,312.6,198.6,312.7,198.6z"/>
		<path d="M305.7,195.2c-0.1,0-0.2,0.1-0.2,0.1c-0.1,0-0.2,0-0.4-0.1l-0.2-0.1c-0.1,0-0.2-0.1-0.3-0.1c0,0,0,0,0-0.1
			c0,0,0-0.1,0-0.2l0.5-1.4c0-0.1,0.1-0.2,0.1-0.2c0,0,0.1,0,0.1-0.1c0.1,0,0.1,0,0.3,0.1l0-0.1l-1-0.3l0,0.1l0.1,0
			c0.1,0,0.1,0.1,0.2,0.1c0,0,0,0.1,0,0.3l-0.5,1.5c0,0.1-0.1,0.2-0.1,0.2c-0.1,0-0.1,0.1-0.2,0l-0.1,0l0,0.1l1.8,0.6l0.4-0.6
			l-0.1,0C305.8,195,305.7,195.1,305.7,195.2z"/>
		<path d="M307.3,195.8c-0.2,0.1-0.3,0.2-0.4,0.2c0,0-0.1,0-0.2-0.1l0,0.1l0.6,0.4l0-0.1c-0.1-0.1-0.1-0.1-0.2-0.2c0,0,0-0.1,0-0.1
			c0,0,0.1-0.1,0.2-0.1l0.4-0.2l0.8,0.5l-0.1,0.4c0,0.1-0.1,0.2-0.1,0.2c0,0-0.1,0-0.1,0.1c0,0-0.1,0-0.2-0.1l0,0.1l0.8,0.6l0-0.1
			c-0.1-0.1-0.1-0.1-0.1-0.2c0-0.1,0-0.2,0-0.4l0.5-2.1l-0.1,0L307.3,195.8z M308.6,196.1l-0.7-0.5l0.9-0.6L308.6,196.1z"/>
	</g>
	<path fill="none" stroke="#999999" stroke-width="0.25" stroke-linecap="round" stroke-linejoin="round" d="M387.3,220.2l0.8-1
		v-0.7l-0.2-0.4l-1.7,0l-0.8,1v0.7l0.3,0.4L387.3,220.2z M290.9,201l-0.3-0.3h-0.6l-0.3,0.3v1.4l0.3,0.3l0.8-1.1L290.9,201z
		 M389,224.5l-1.7,0l-0.6,1.4l-1.1-1.4l-2.2,0.7l-0.6-0.7h-1.1l-0.8,1l0.5,0.7v0.7l0.6,0.7l0,2.8l0.8,1.8l3.1,0.3l-0.8,1.7h-0.6
		l-1.1,2.1l-0.9,0.4l0.3,1l1.7,0l0.6-0.7l0.5,0.7l2.9,0l1.7-1.3l1.1,0.7l2.3,0l0.6-0.7l4,0l3.1-3.1l-0.8-1.7h-0.6l-2.3-2.8l-1.7-1.4
		h-1.1l-1.7-2.8h-1.1l-1.1,1.4l-1.1-0.7L389,224.5z M375.4,219.6h4.5l1.1-1.4h2.9l3.4-2.1l2.2,0l0.8-1l-0.6-4.9l-3.1-3.1h-0.6
		l-0.2-1.1l-3.7-4.5l-3.9-3.5l-0.6,0.7l-1.1,0l-2-2.4l-0.9-4.5l-2.8-0.7l-1.7,1.4l-3.4,0l-1.7-2.8l-2.3-0.7l-1.7-2.8h-2.3l-1.4,1
		l-0.3,1.1l-2.2,0.7l-2-1.7l-0.8-1.8H350l-0.6,0.7l-1.1-0.7l-2.9-4.1l-2.8-2.1l-2.2-0.7l-2.3,1.4l-0.3-1.7l-1.4-1.7l-2.8,0l0-2.8
		l-2.3,0.7l-1.1-1.4l-1.1,0l-0.6,0.7h-1.7l-1.6-1.4l-2.9,0l-0.6,0.7l-0.5-0.7l-2.3,0l-0.6,0.7l-2.2-0.7l-1.1,0.7l-1.1-0.7l-2.2,1.4
		l-0.6-0.7h-1.1l-0.6,0.7l-2.2,0l-2.2,1.4h-4.5l-2.8,2.8l-1.1,0l-0.6-0.7l-0.6,0.7l-1.1,0l-1.7,1.4l-4.6-0.7l-1.4,2.4l0,2.1l2,4.6
		l2.3,0.7l0.2,2.4l1.2,1.4l0,1.4l-2.2,2.1v0.7l2.8,5.6l-2.3,2.1l0,2.1l-2.8,4.2l0.8,1.8l2.3,0l1.7,1.4l1.7,0l0.5,0.7l2.8-0.7
		l0.6-0.7l1.7,0l1.7,1.4l2.8,0l0.6,1.4l1.7,0l1.4,1l-1.4,0.4l-0.3,1.1l1.4,1.7l2.3,1.4l1.1,2.8h2.3l0.5,0.7h1.1l2.3-1.4l2.2,1.4h4
		l0.6,0.7l4.5,0.7l0.6,0.7l1.1-0.7l1.7,0l2.6,2.4l0.8,1.8h2.2l2.3,2.1l1.7-0.7l0.6-1.4l1.7-1.4l2.8-0.7l0.5-2.8l1.7,2.1l1.1,0.7
		l2.2,0l1.1-1.4l2.8,0l0.6-0.7l1.1-0.7l2.3,0.7l2.2-1.3l1.4-1.8l0-1.4l2-1.8l1.7-1.4l2.3,1.4l1.1,0l1.7-1.4l0.6,0.7l1.7,0
		L375.4,219.6z M464.1,280.4l0.3-0.3v-0.7l-0.3-0.3h-0.6l-0.3,0.3v0.7l0.3,0.4H464.1z M434.7,271.3l0.8-1.1v-1.4l-0.3-0.3h-0.5
		l-0.6,0.7h-0.6l-0.3,0.3v1.4l0.3,0.3H434.7z M439.2,269.2l0.3-1l-1.5-1l-0.6,0.7H437l-0.3,1l0.2,0.4L439.2,269.2z M552.3,354.4
		h-1.7l-0.5-0.7l-2.9,0l-0.6,0.7l-2.2,0.7l-0.3-1l0.8-1.1h1.7l0.6-0.7l4.5,0l0.3-1l-1.1-1.4l-1.2-3.5l-2-2.4l-2.8-0.7l-1.1-2.1
		l-0.6,0l-1.1-1.4l-1.7,0l-1.7-1.4l-2.8-4.2l-1.7-0.7l-1.7-2.1l-3.4-2.1l-1.1-1.4l-2.2,0.7l-0.6-0.7l-2.3-0.7l-1.1-1.4l-4.5-0.7
		l-0.3,1.8l2.3,2.8l-0.8,0.3l-1.1-0.7l-0.8,1l2.3,2.8l-0.9,0.3l-0.6-0.7h-0.6l-2.2-2.8l-2,0.3v1.4l2.8,4.2v1.4l-0.8,0.4l-1.4-3.8
		l-1.4-1.8l-1.4,0.3l2.3,5.6l-0.3,1.8l-1.4-1.8l0-2.1l-0.9-1l-1.7,0.7l-0.6,0.7l-1.7,0l-1.1,0.7l-1.4,1.8l0,2.1l-0.9,1l-3.1-1
		l2.2-0.7l0-2.8l2.6-2.5l1.7,0l0.3-1.8l0.8-1h0.6l3.4-4.2h1.7l2-1.7l-0.6-0.7l0.6-1.4l-0.3-3.1l-0.5,0.7l-4.5,0l-1.7,2.1l-1.7,0.7
		l-1.1,1.4h-1.1l-3.9,4.2l-0.3-1.7l-4,0l0.3-1h2.8l0.6-0.7l2.5-0.3l0-1.4l-2-1.7h-1.1l-0.8-2.4l2.5-2.4l3.4-0.7l2.3,1.4l1.7,0
		l1.1,1.4l1.7,0l1.4-1.7l-0.8-1.8l-1.7-0.7l-1.1-1.4h-1.7l-0.3-1l0.6-2.1l-2.6-1l-2.8-2.1h-1.1l-1.1,2.1l-1.7,0l-0.6,0.7l-1.4-2.4
		l1.4-0.3l0.8-1l0-2.1l-0.6-0.7l1.7-2.8l-1.4-0.4l-0.6,0.7l-2.8,0l-0.6,0.7l0-1.4h1.7l0.8-1.1v-0.7l-2-1.8l-2.3,0l-3.1-3.1l-0.8-1.7
		l-2.8-0.7l-0.6-0.7h-1.1l-1.1,1.4l-2.9,0l-0.6,0.7l-2.8-0.7l-2.3-1.4l-1.1-2.1l-0.6,0.7l-1.4-0.4l0-3.5l-0.8-1.7l-1.4,0.3L467,288
		l-1.5-1.7l-0.5-2.8l-1.5-2.4l-1.1-0.7l-1.7,0l-2.3-1.4l-0.6-0.7l-2.2,0l-1.7,3.5l-1.7,0.7l-1.1,1.4l-0.8-1l0.6-4.9l1.4-2.4l1.1,0
		l1.4-1.8l-0.9-1h-1.1l-0.6,0.7l-1.7,0l-1.1,0.7l-2.2,2.1l-1.7-0.7l-1.1,4.2l-2.2,0.7l-0.6-0.7l-1.1,0l-2.2,2.8l-3.4,0l-0.6-0.7
		l-1.7,0l-0.6,0.7l-1.1,0.7l-0.5-0.7l-0.6,0.7h-1.1l-1.7,2.1h-2.3L424,286l-0.8-0.3l0-1.4l2.8-2.8l0.6-2.1l1.1-1.4v-1.4l-0.8-0.3
		v-0.7h2.2l1.1,0.7l1.4-1.7l0.5-3.5l-1.1-0.7l1.1-1.4l0-1.4l-2-1l-0.6,0.7h-1.7l-0.5-0.7h-2.2l-0.6-0.7l-1.1,0l-0.6,0.7l-2.2,0
		l-1.1-2.1h-1.7l-2.2,1.4l-5.1,0.7l-0.6,0.7l-3.4,0l-0.6,0.7l-3.4,0l-0.6,0.7l-0.9-1l0-1.4l-1.7-2l0-0.7l1.4-1.7l2.3,0l1.1-0.7
		l0.6-1.4l1.1,0l2.3-2.7h0.6l1.1-2.8l3.9,0l0.6-0.7h1.1l2-2.5l-1.1-2.1l-0.5-2.8l-0.8-0.3l-0.3-1l-2.5-2.5l-1.1,0.7h-2.8l-0.3,3.1
		l1.1,0.7l-0.3,0.4h-1.1l-1.7,1.4l-3.9-0.7l-0.8,1v1.4l-0.8,1l-1.1-1.4H398l-1.1,1.4l-1.1,0l-0.6-0.7h-2.2l-0.5,0.7h-1.7l-0.6-0.7
		l-4,0l-0.6-0.6l-1.7,0.7v1.4l1.1,0l1.7,1.4l1.1,0l0.3,1.1l-0.8,1l-1.7,0l-1.1,2.1l-1.1,0.7l-1.2-0.7l-0.8,1l0,1.4l-1.7,2.7
		l-0.5,2.8l1.4,1.1h1.7l0.6,0.7l2.2,0l0.6-0.7l4,0l1.4,3.1l0,2.1l-0.6,0.7l0.3,1.7l3.1,0.4l-2.2,0.7l0.6,4.2l0.3,0.3l0.6-0.7l0.3,1
		l-1.7,1.4l0,2.1l-0.9,0.4l-1.7,2.8h-2.2l-0.8,1l-0.6,3.5l1.1,0.7l0.9,1.7l2.8-0.7l2.3,2.8h2.2l0.9,1l-0.6,2.1l1.1,1.4l-4,0l0.3,1.8
		l2.5,1l-0.6,2.1l0.6,0.7l-0.8,1.1l-1.7-2.1l-2.3,0l-0.6-0.7l-0.8,1L388,308l-1.1,0.7l0,2.1l2.5,1.7l0.3,0.4l-0.6,0.7l2.3,2l1.1,2.1
		l-3.1,1.7l-4-1.4l-0.3,1.8l1.1,1.4l-1.7,6.3l2,0.3l2.5,2.5l0.6,1.4l1.1,2.8l0,4.2l-0.6,2.1l1.4,1.8h0.6l1.4,1.7l0,1.4l0.8,1l1.1,0
		l0.6,1.4l1.1,0.7h1.7l0.5,0.7l2.3,0l-0.3,1.7l0.8,1l1.1,0.7h1.7l1.9,2.4l0,2.1l1.4,0.4l0.6,0.7l1.1,0l3.4,4.2l1.1,0.7h2.3l1.7,2.8
		l1.1,0.7h2.8l3.4,2.8l4.2,2.5l0.6,2.1l-0.6,0.7l0.2,1l2.9,0l1.1,1.4l1.1,0.7l2.3,0l0.5,0.7l3.4,0l1.1,0.7l0.3,2.4l1.4,2.4l1.1,0.7
		l1.7,0l0.6,0.7l4,0l0.6-0.7l2.3,1.4l2.3,0l0.2,1l2,1.8l0.6-0.7l1.1,0l1.7,1.4l2.8,0.7l2.8,2.1h1.7l1.7-2.8l1.7,1.4l1.7-0.7l0.6,0.7
		l1.7,0l3.9,4.2l4.5,0.7l0.6-0.7h2.2l1.7,1.4h1.7l0.6-0.7l2.8,0l1.1,1.4l3.4,0l1.7,1.4l2.3,0l1.1,1.4l3.4,2.1l2.2,0l1.1,0.7l0.6-0.7
		l3.4,0l0.6-0.7l0.5,0.7l4-0.7l0.5,0.7l4-0.7l4.5-2.7l0.3-1.1l-0.5-0.7l-0.9-3.1l-1.1-0.7l-1.1,0.7l-1.1-2.1l-3.1-1l-1.1-4.2l2-0.4
		l0.8-1V384l-1.7-1.4l0.8-1l2.8,0l0.6-0.7l1.1,0l1.7,2.8h1.1l0.5,0.7l1.4-0.3l0.6-2.1l-0.5-4.2l-1.1-0.7l0.3-2.5l1.1,1.4h1.1
		l2.3,2.8l2.8,1.4l0.9,1.8l-1.2,6.3l1.1,1.4l0.5,2.8l0.9,0.3l2-1l0.6-1.4l-0.6-2.1l1.7-4.2l-1.1-2.1l0.5-2.8l-1.4-0.4l-1.4-2.4
		l2-0.4l1.7,1.4l0.3-1.8l-1.7-2.1l1.4-1l1.7,0.7l1.1,1.4l2.5-0.4l0-1.4l-0.9-1.7h-1.7l-0.9-1l1.4-2.5h2.3l0-2.1l-5,0l-1.4-2.4l1.4-1
		l1.7,1.4l0.9-1l0-1.4l1.7-1.4l0.3-1.1l1.1-0.7h1.7l0.3-1.8L552.3,354.4z M438.7,419.2l-0.6-0.6l-1.1,0l-0.3,1l0.8,1l3.7-0.3l-0.3-1
		L438.7,419.2z M373.4,220.6l0.9,1l1.1,0l0.8-1l-2.5-1.1L373.4,220.6z M504.2,319.5l-4,0l-0.8,1.7l1.5,1.8l2.2,0l0.6,0.7h1.1l2-3.1
		l-2-0.4L504.2,319.5z M435.9,420.6l-0.3,0.3v0.7l0.2,0.3l0.6,0l0.3-0.3v-0.7l-0.2-0.3H435.9z M433.6,420.6l-0.3,0.3v0.7l0.3,0.3
		h1.1l0.3-0.3v-0.7l-0.3-0.3H433.6z M381.4,229.7l-2-1.8l-1.7,0l-0.3,1.7l0.9,1l3.1-0.3V229.7z"/>
</g>

</svg>
