<?xml version="1.0" encoding="utf-8"?>

<svg version="1.2" baseProfile="tiny" xmlns="http://www.w3.org/2000/svg" xmlns:xlink="http://www.w3.org/1999/xlink" x="0px"
	 y="0px" viewBox="347.1 119.1 145.3 356.6" xml:space="preserve">

<g id="Malawi">
	<title>Flag of Malawi</title>
	<g>
		<path d="M415.3,173.3l0.4-0.8l0.3-0.3l1.1-0.6l0.3-0.3l0-0.3l-0.2-0.4l-0.1-0.4l-0.1-1.4l0.3-0.4l0.7-0.6l0.4-0.1l0.3,0.1l0.3,0
			l0.3-0.5l-0.1-0.1l-0.5-1.1l-0.5-1.6l-0.3-0.6l-1.6-1.8l-0.5-0.7l-0.2-0.7l-0.3-0.6l-0.7-0.6l-1.4-1l-0.2-0.2
			c-0.2,2-0.4,4.1-0.6,6.6c-1.1-4.2-2-7.6-2.8-10.5l-2.5-3.7l-1.3-3l-0.5-3.1v-1.5l-0.1-0.4l-0.3-0.1l-0.4,0l-0.3-0.2
			c0.8,6.6,0.6,12.2,0.6,23.6c-4.9-13.5-6.9-18.1-8.7-27.8c-0.6-3.2-0.5-6.6,1.1-7.9l-0.6-0.6l-1.2-0.8l-1.4,0.4l-1.2,0.7l-1.1,0.1
			l-1.2-0.2l-1.4-0.4l-1.5-0.2l-1.1,0.5l-1.1,0.6l-1.4,0.3l-1.9-0.1l-0.9-0.3l-0.7-0.5l-0.5-0.8l-0.8-1.7l-0.8-0.8l-2.5-1.8
			l-0.8-0.3l-0.4,0.1l-0.7,0.5l-0.4,0.1l-0.5-0.1l-0.9-0.3l-0.6,0l-0.3,0.1l-0.6,0.5L370,125l-0.2-0.1l-1.3-0.5l-1.2-0.3l-0.4-0.2
			l-2.8-2.1l-2.2-2.2l-0.8-0.5l-0.9,0l-0.9,0.4l-0.7,0.7l0.1,2.6l0.2,0.6l0.4,0.4l0.3-0.1l0.3-0.2l0.5,0l0.3,0.2l0.7,0.6l0.4,0.2
			l0,1.2l-0.8,3.3l0.6,1.2l0.6,0.2l0.5-0.2l0.5-0.3l0.6-0.1l0.5,0.2l0.2,0.5l0.1,0.5l0.2,0.4l1,0.4l0.4-0.8l0.1-1.3l0.3-1.2l1,0.5
			l2.4,0.1l0.9,0.6l0.6,1.1l0.2,0.6l0.1,0.7l-0.1,0.5l-0.2,0.4l-0.2,0.4l0.1,0.7l0.4,0.6l1.1,0.7l0.5,0.5l0.7,1.2l0.4,0.5l0.5,0.5
			l0.1,0.1c0-1.7,0.5-3.1,1.8-3.6c2.3-0.8,4.8,2.4,6.2,6.3c3.2,8.7,3.9,13.9,6.1,26.7l0.8,1.8l0.7,0.8l1.2,0.2v1.2l0.3,0.8l0.1,0.8
			l-0.7,1.1L391,175l-1.8,1.3l-0.6,0.3l-0.6,0.4l-2.2,2.5l-0.7,1.8l-0.1,0.2c9.2-4.5,19.5-7.3,30.3-7.9L415.3,173.3z M386,140.1
			c-1-3.8-1.1-8,1.5-8.7c2.4-0.6,4.6,2.8,5.6,6.8c2.5,9.4,2.7,14.6,3.9,28.9C391,154.1,388.6,149.7,386,140.1z"/>
		<path d="M387.3,165.5l0.4,0.5c-0.2-0.3-0.4-0.6-0.6-1L387.3,165.5z"/>
		<path d="M377,145.6l-0.8,2.1l-0.2,1.1l0,0.8c0.1,0.2,0.2,0.5,0.3,0.7l0.3,0.4l3.7,1.6c-1.1-2.2-2.1-4.4-3.1-7L377,145.6z"/>
		<path d="M403.1,134.4l-0.5-0.3c0.1,0.2,0.1,0.4,0.2,0.7L403.1,134.4z"/>
		<path d="M379.5,183.5l-0.6,0.1l-0.6,0.2l-1.1,0.2l-0.6,0.2l-0.6,0.5l-0.8,1.3l-0.7,0.4l-0.5,0l-0.5-0.1l-0.4,0.1l-0.4,0.8l0,0.7
			l0.4,0.3h0.6l0.5-0.1c2.2-1.6,4.4-3,6.8-4.3L379.5,183.5z"/>
		<path fill="#CE1126" d="M419,226l0.5-0.3l1.8-1.7l0.4-0.9l0-1.5l-0.2-1.2l-0.2-0.6l-0.3-0.5l-0.2-0.5v-1.3l-0.9-3.2l-0.3-5.7
			l-0.9-2.6l-0.4-0.4l-0.4-0.3l-0.3-0.4l-0.1-0.7l0.1-1.1l0-0.5l-0.2-0.4l-0.5-1.2l0.3-1.1l1.3-2.2l-0.6-0.9l-0.3-1.5l0.2-5.7
			l-0.8-8.8l-0.6-2.5l0-0.7l0.3-1.6l0-0.5l-0.4-0.8l-0.5-0.7l-0.2-0.6c-10.8,0.6-21.1,3.4-30.3,7.9l-0.4,0.6l-0.9,0.6l-0.7,0.1
			l-0.8,0.8l-0.6,0.3l-0.7,0l-0.2,0c-2.3,1.3-4.6,2.8-6.8,4.3l0.1,0l0.7,0.6l0.3,1.4l0.3,2.7l0.4,1.4l0.6,1.3l0.8,1.1l1,1l1.4,2.5
			l-0.4,1.4l-0.6,1.3l-3.2,4.8l-0.1,0.3l0.2,0.5l-0.1,0.3l-0.3,0.2l-0.7,0.3l-0.2,0.2l-0.1,0.6l0.1,0.6l0,0.6l-0.4,0.6l-1.1-0.9
			l-0.4,0.6l0.2,3.9l0,0.6l-0.3,0.9l-0.7,1.4l0.2,0.4l0.7,0.3l0.7,0l0.8-0.1l0.7,0.1l0.6,0.7l0.3,0.7l0.4,6h42.5L419,226z"/>
		<polygon fill="#CE1126" points="484.1,352.6 479.4,346.6 475.5,341.7 472.5,335.9 468.6,331.3 464.5,326.4 459.7,320.7 455.8,316
			451.9,312.4 447.3,308.2 445.9,307.4 445.6,307.3 445.5,307.6 445.4,308.4 445.7,311.4 445.4,314.3 445.6,315.5 446.6,316.6
			447.5,317 448.1,317.1 452.8,316.9 454.5,317.2 455.1,318.1 455.3,319.4 455.9,321 456.4,321.7 456.9,322.4 457.1,322.7
			457.2,323.5 457.5,324.5 457.6,325.4 457.7,327 458.1,328.3 459.7,330.8 460.2,332 460.1,332.7 460,333.5 460,334.3 460.3,335
			461.7,337.2 461.9,338.8 462.4,340.2 464.2,344 465,345.1 464.9,345.6 464.7,346.4 464.4,347.1 464,347.5 463.7,347.6 463,348.1
			462.6,348.1 462.4,347.9 462.2,347.6 462.1,347.3 462,347.1 459.9,345.3 459,343.9 458.5,343.3 457.7,343 457.5,342.7
			456.4,341.4 456.2,341 455.8,339.7 454.9,338.2 453.8,337.2 452.8,337.4 452.6,337.1 452.1,336.7 451.9,336.4 450.4,336.8
			449.4,335.5 449,333.6 449.4,332 448.8,331.6 447.8,330.6 447.2,330.1 445.9,329.7 445,330.3 444.9,331.5 445.6,332.8
			445.9,333.9 445.1,335 444,336.1 443.6,337.4 443.8,337.8 444.1,338.3 444.4,338.7 444.3,339.1 443.8,339.4 443.7,339.7
			443.6,340 443.3,340.6 442.6,341 441.8,341.3 441.1,341.4 440.4,341.7 439.7,342.1 439,342.3 438.3,341.8 438.2,341.1
			438.4,340.5 438.5,339.9 437.7,339.3 436.9,339 436.3,338.9 435.6,338.7 434.8,338.1 434.5,337.7 434.1,337 433.8,336.2
			433.7,335.6 433.5,335.1 431.9,333.2 431.6,332.6 430.9,328.6 431.1,327.5 431.8,326.5 433,325.2 433.3,324.7 434.1,322.6
			434,322.2 433.7,321.4 433.7,321 434,320.7 434.7,320 435,319.7 435.1,318.9 434.9,318.2 434.9,317.6 435.4,316.7 435.6,316
			435.1,315.4 434.4,314.8 434.1,314.4 433.8,313.7 432.5,312.5 431.9,311.9 431.3,310.6 430.9,310 430.3,309.6 429.6,309.6
			428.2,310.1 427.4,310.3 426.8,310.1 426.4,309.6 426,309 425.1,308 424.2,305.9 421.7,301.9 421.2,300.4 421,298.8 421.6,297.6
			422.5,296.2 422.7,294.9 422.3,291.7 422.2,284.3 421.7,282 421.8,281.2 422.1,279.8 422,279.2 421.9,279.7 421.6,280.2
			421.3,280.4 420.9,280.1 420.8,279.6 421.1,278.5 421.1,277.9 420.6,277.1 419.2,275.9 418.9,275 419.6,272.7 419.5,271.7
			417.8,271 417.1,270.2 416.2,268.5 415.5,266.4 415.3,265.3 415.3,264.1 415.4,263 415.6,262.6 416,262.1 416.3,261.7
			416.3,261.3 416.2,260.2 414.8,256.1 413.7,255.5 412.9,255.5 412,255.6 410.9,255.4 411,255 411,254.6 410.8,254.3 409.9,253.9
			409.8,253.5 409.8,253 409.7,252.6 408.9,250.4 408.5,247.4 408.5,246.6 409,244.4 409.2,242.9 409.7,240.7 409.9,238.9
			410.2,238.1 410.8,237.4 413.3,235.5 375.7,235.5 375.4,237.2 373.7,241.3 373.5,242.9 373.6,244.4 373.9,245.1 375.2,246.3
			375.7,247 376.2,248.5 377,251.6 377.9,253 379.5,253.6 382.8,252.6 384.6,253.2 385.3,253.1 385.8,253.3 385.9,254.3 385.5,255
			384.1,255.8 383.8,256.6 383.1,256.7 382.9,257 382.9,258.2 382.5,258.7 381.1,259.3 380.6,259.7 379.9,260.8 379,261.7
			377.9,262.4 377,262.6 376.6,262.5 376.2,262.2 375.8,262 375.2,262 374,262.2 373.7,262.3 373.2,262.9 372.4,264.5 371.8,264.9
			371.3,265.1 371,265.2 370.9,265.4 370.6,265.5 370.4,265.8 370.2,266.1 370,266.3 369.5,266.4 369.3,266.1 368.8,265.1
			368.5,264.8 368.1,264.7 367.7,264.7 367,264.9 366.7,265.1 366.3,265.5 365.9,265.7 365.5,265.3 365.4,265 365.1,264.7
			364.8,264.7 364.4,264.8 363.8,265.4 363.3,266 361.9,268.7 360.3,271.2 359.7,272.4 359.6,273.2 359.8,276.6 360.1,277.1
			361.3,277.8 362.4,278.8 362.8,279.9 362.6,281.2 361.4,284 360.7,289.1 360.7,289.9 360.9,290.6 361.3,291.4 362,292.5
			362.1,293 361.9,293.6 360.5,294 359.4,295.5 358.6,297.2 357.4,302.3 356.6,304 355.3,304.7 354.5,304.8 354.1,305.4 354,306.1
			354,306.9 353.8,308 353.2,308.4 351.6,308.6 351,309 349.8,310 349.2,310.1 348.4,309.8 347.7,309.8 347.3,310.1 347.1,311.1
			347.6,312.5 349,312.9 350.7,312.9 351.9,313.4 353.6,315.8 353.8,316.3 353.5,316.8 351.8,317.6 351.3,318.1 351.6,319.4
			352.9,320 354.5,320.3 355.9,320.8 356.6,321.4 358.8,324.1 359,324.8 359.1,325.5 359.3,326.2 359.7,326.5 360.5,326.5
			360.9,326.7 361.2,327.1 361.2,327.3 361.1,327.6 360.9,329.9 361.2,330.6 362.2,331.9 363,331.7 364.4,329.5 365,328.8
			365.7,328.4 367.2,328 367.6,327.6 368.1,326.4 368.5,326.2 369.2,326.7 370.6,329.3 371.3,330.3 373.8,331.6 374.8,332.4
			375.3,333.7 375.1,336 375.3,336.8 376.4,338.7 376.8,339.1 377.4,339.5 377.8,339.7 378.1,340 378.9,341.4 379.7,342.5
			381.9,347.1 382.7,348.2 383.3,348.7 385.2,349.5 385.8,350.1 386.1,350.6 386.3,351.2 386.7,351.8 387.2,352.2 388.5,352.7
			389,353.2 389.3,353.8 390.3,356.2 390.6,356.9 391.2,357.3 392,357.6 392.4,357.3 392.5,356.4 392.5,354.8 392.9,353.5
			393.6,352.5 394.6,352.2 397,354 398.2,354.1 399.5,353.7 402.1,352.1 403.4,351.8 404.7,351.8 409.4,352.4 409.8,352.2
			410.3,351 410.6,350.5 412,349.9 415.3,349.9 419.7,348.2 420.1,348.2 420.8,348.3 421.2,348.2 421.5,348 421.8,347.7
			422.2,347.5 422.6,347.4 423.8,348.1 424.8,349.5 426.3,352.5 427.3,353.8 429.6,356.1 430.4,357.6 430.4,358.5 489.2,358.5
			487.3,356.7 		"/>
		<polygon fill="#CE1126" points="433.2,238.2 433.1,238.2 432.8,238.5 432.8,238.8 433.3,239.4 433.5,239.7 433.8,239.9 434,240
			434.4,239.6 434.6,238.9 434.3,238.4 433.8,238.1 		"/>
		<polygon fill="#CE1126" points="441.1,240 439.8,239.4 439.4,239.8 439,241.1 438.7,241.6 438.9,241.9 439.3,242.2 439.8,242.3
			440.3,242.1 440.5,241.5 440.4,240.9 440.4,240.4 		"/>
		<path fill="#CE1126" d="M375.9,150l0.3,0.4c-0.1-0.2-0.2-0.5-0.3-0.7L375.9,150z"/>
		<path fill="#CE1126" d="M377.1,134.8c-1.3,0.5-1.8,1.8-1.8,3.6l0.4,0.2l1.6,0.6l0.3,0.3l0.7,1.8l0.3,1.3l-0.3,1l-1.3,1.9
			c1,2.6,2,4.8,3.1,7l0,0l0.9,0.8l0.7,0.8l0.8,0.7l1.2,0.4l0.8,1.1l0.9,0.6l0.6,0.7l0.1,1.4l-0.3,2.5l0.2,1.1l1,2.3
			c0.2,0.3,0.4,0.6,0.6,1l0,0l1.3,1.1l0.3,0.4l0.1,0.2c-2.2-12.8-2.9-17.9-6.1-26.7C381.9,137.2,379.4,133.9,377.1,134.8z"/>
		<path fill="#CE1126" d="M387.5,131.5c-2.6,0.7-2.5,4.9-1.5,8.7c2.5,9.5,5,13.9,11.1,27c-1.2-14.3-1.4-19.5-3.9-28.9
			C392.1,134.3,389.9,130.8,387.5,131.5z"/>
		<path fill="#CE1126" d="M396,137.6c1.7,9.7,3.8,14.3,8.7,27.8c0-11.4,0.2-17-0.6-23.6l0,0l-1.1-2.5l-0.4-3.1l0.2-1.5l0,0
			c-0.1-0.2-0.1-0.4-0.2-0.7l0,0l-0.5-0.9l-1.1-0.9l-1.3-0.8l-1.1-0.4l-1.2-0.8l-0.6-0.6C395.5,131,395.4,134.4,396,137.6z"/>
		<path fill="#CE1126" d="M412.9,157.9l-2.3-2.3l-1.2-1.7c0.8,2.9,1.7,6.3,2.8,10.5C412.5,162,412.7,159.8,412.9,157.9z"/>
		<polygon points="415.9,233.5 415.3,232.5 415.3,231.2 415.7,229.8 416.2,228.8 416.6,228.4 417.7,227.8 418.2,227.4 418.3,227.2
			418.5,226.6 418.7,226.3 418.7,226.2 376.2,226.2 376.3,227.6 376.2,229.3 375.6,231 375.6,231.8 376.1,232.8 376.3,233.4
			376.1,234.1 375.8,234.8 375.7,235.5 413.3,235.5 		"/>
		<polygon fill="#339E35" points="430.4,359.1 429.8,361.9 430.3,363.5 431,364.9 431.5,366.3 431.7,367.7 431.8,371.2 431.9,371.9
			432.1,372.9 432.5,373.6 433,374.3 433.3,375 433.3,375.8 432.9,376.4 432,377.7 431.8,378.4 431.9,379 432.1,379.6 432.2,380.1
			431.8,380.6 431.7,381.4 432.7,388.2 432.5,389.4 431.7,390.6 431.1,391.1 430.5,391.4 429.9,391.8 429.4,392.5 429.2,393
			429,394.2 428.7,394.8 427.8,395.3 426.9,396.8 426.1,397.2 425.5,398 425.5,399.5 425.9,402.3 425.8,404.2 425.3,405.6
			422.5,409.5 422,409.8 421,410.1 420.3,410.5 419.5,411.1 418.2,412.5 417.7,413.6 417.5,415.2 417.6,416.9 418.1,418.2
			418.6,418.7 420.1,419.4 420.8,419.8 424.5,423.7 425.3,424.8 425.5,426.1 424.6,429.1 424.4,430.7 426.3,434.7 427.1,435.6
			428.7,435.7 430.7,436 431.7,437 432.9,440.2 433.4,441 434,441.5 435.4,442.6 435.7,442.9 436,443.4 436.5,444.8 436.8,445
			437.1,445.1 440,446.6 440.6,447.2 441.4,448.8 441.8,449.4 443.9,451.2 444.3,451.8 444.6,452.8 445,453.6 445.7,454
			446.5,454.3 447.2,454.8 447.4,455.2 447.6,456.1 447.8,456.5 448.1,456.6 448.8,456.8 449.1,456.9 449.7,457.3 450.1,457.8
			450.9,458.9 452.2,459.9 453.5,460.1 454.8,460 456.3,460 457.3,460.8 457.7,462.2 457.8,463.9 457.6,465.4 457.1,466.7
			456.1,467.4 455,468 454,468.8 453.7,470.2 455.1,472.5 455,473.7 455.7,474.4 458,474.7 462.6,474.9 465.1,474.6 465.5,474.1
			465.7,473.4 465.8,472.6 465.8,471.7 465.4,469.9 465.4,469.2 465.9,468.3 466.1,467.7 465.9,467.3 464.4,466.5 464.2,466.3
			464.2,465.9 464.4,465.7 464.7,465.5 464.8,465.3 464.7,463.5 464.8,462.5 466,461.6 465.7,460.4 464.8,458.6 464.6,457.7
			464.5,454.6 464.4,454.3 463.3,453.2 463.2,453.1 462.8,452.9 462.6,452.8 462.5,452.6 462.2,452.1 462,451.9 461.7,451.7
			460.8,451.3 460.3,451.3 459.8,451.1 459.6,450.7 459.4,450.2 458.7,449.1 457.9,447 458.5,446.6 461.6,444.5 462.3,443.9
			462.5,443 462.5,441.2 462.7,440.3 463.8,439 464,438.6 463.4,437.3 463.3,436.8 463.6,434.6 464.5,432.9 465.7,431.4
			468.8,428.6 469.7,428 470.7,427.7 471.6,427.8 472.5,428 473.3,428.5 473.6,429.3 474,429.7 474.6,429.9 475.1,430 475.4,429.5
			475.5,428.8 475.8,428.6 476.9,428.4 481.1,427.1 481.6,427.1 482.5,427.3 482.9,427.2 483.3,427 486.6,424.7 487.3,424
			487.7,423 487.7,422.2 487.5,420.8 487.5,420.1 488.2,417.2 488.7,410.5 489,406.4 489.4,400.6 489.8,395 488.5,389.8
			487.2,384.7 487.2,383.6 487.5,382.5 489.7,377.4 490.9,374.5 492.6,370.5 491.7,370.5 491.1,370.4 490.8,370 490.3,360.4
			490.1,359.6 489.5,358.9 489.2,358.5 430.4,358.5 		"/>
	</g>
	<path fill="none" stroke="#999999" stroke-width="0.25" stroke-linecap="round" stroke-linejoin="round" d="M489.7,377.4l1.2-2.9
		l1.7-4l-1,0l-0.6-0.1l-0.3-0.4l-0.5-9.7l-0.3-0.8l-0.5-0.7l-2.2-2.2l-3.3-4.1l-4.7-6l-3.9-4.9l-3-5.8l-3.9-4.6l-4.1-4.9l-4.8-5.7
		l-3.9-4.7l-3.9-3.6l-4.6-4.2l-1.4-0.9l-0.3-0.1l-0.1,0.4l-0.1,0.7l0.3,3l-0.3,2.9l0.2,1.2l1,1l0.8,0.4l0.7,0.1l4.6-0.1l1.7,0.3
		l0.6,0.9l0.2,1.3l0.5,1.6l0.5,0.7l0.6,0.7l0.2,0.3l0.1,0.8l0.3,1l0.1,0.9l0.1,1.6l0.3,1.3l1.6,2.5l0.5,1.2l0,0.7l-0.2,0.8l0,0.8
		l0.4,0.7l1.4,2.2l0.2,1.6l0.4,1.4l1.9,3.8l0.7,1.1l0,0.5l-0.2,0.8l-0.3,0.8l-0.3,0.3l-0.3,0.1l-0.7,0.5l-0.4,0l-0.2-0.2l-0.2-0.3
		l-0.1-0.3l-0.1-0.2l-2.1-1.9l-0.9-1.3l-0.5-0.6l-0.7-0.3l-0.2-0.3l-1.1-1.3l-0.3-0.5l-0.3-1.3l-0.9-1.5l-1.1-1l-1,0.2l-0.2-0.3
		l-0.5-0.5l-0.2-0.3l-1.5,0.4l-1-1.3l-0.4-1.9l0.4-1.6l-0.6-0.4l-1-1l-0.6-0.5l-1.3-0.4l-0.9,0.6l-0.2,1.2l0.7,1.3l0.3,1.1l-0.8,1.1
		l-1,1.1l-0.4,1.3l0.2,0.4l0.3,0.5l0.3,0.5l-0.1,0.4l-0.5,0.3l-0.2,0.2l-0.1,0.4l-0.3,0.5l-0.7,0.5l-0.8,0.3l-0.6,0.1l-0.7,0.2
		l-0.7,0.4l-0.7,0.2l-0.6-0.5l-0.1-0.7l0.2-0.6l0-0.6l-0.7-0.7l-0.8-0.3l-0.7-0.1l-0.7-0.2l-0.8-0.6l-0.3-0.5l-0.4-0.7l-0.3-0.7
		l-0.1-0.6l-0.3-0.5l-1.6-1.9l-0.2-0.6l-0.8-4l0.2-1.2l0.7-1l1.1-1.2l0.3-0.5l0.8-2.2l-0.1-0.3l-0.3-0.8l0-0.4l0.3-0.3l0.8-0.6
		l0.2-0.3l0.1-0.8l-0.1-0.7l0-0.6l0.5-0.8l0.2-0.7l-0.5-0.6l-0.7-0.5l-0.3-0.5l-0.3-0.6l-1.3-1.2l-0.6-0.7l-0.6-1.3l-0.3-0.5
		l-0.6-0.4l-0.7-0.1l-1.4,0.5l-0.8,0.2l-0.6-0.2l-0.4-0.5L426,309l-0.9-1l-1-2.1l-2.5-4l-0.6-1.5l-0.2-1.5l0.6-1.3l1-1.4l0.2-1.3
		l-0.4-3.2l-0.1-7.5l-0.5-2.3l0.1-0.8l0.4-1.4l-0.1-0.6l-0.1,0.5l-0.3,0.5l-0.3,0.3l-0.3-0.3l-0.1-0.5l0.3-1.1l0-0.6l-0.5-0.8
		l-1.4-1.2l-0.3-1l0.6-2.2l0-1l-1.7-0.7l-0.7-0.8l-0.9-1.7l-0.7-2.1l-0.2-1.2l0-1.1l0.1-1.1l0.2-0.4l0.4-0.5l0.3-0.4l0-0.4l-0.1-1
		l-1.4-4.1l-1-0.7h-0.9l-0.9,0.1l-1-0.2l0.1-0.4l-0.1-0.4l-0.2-0.3l-0.8-0.3l-0.1-0.4l0-0.5l-0.1-0.4l-0.8-2.2l-0.4-3v-0.8l0.5-2.2
		l0.2-1.5l0.5-2.3l0.2-1.7l0.3-0.8l0.6-0.7l5.1-3.9l-0.6-0.9v-1.3l0.3-1.4l0.5-1l0.4-0.4l1.1-0.6l0.5-0.4l0.2-0.2l0.2-0.6l0.2-0.3
		l0.3-0.3l0.5-0.3l1.8-1.7l0.4-0.9l0-1.5l-0.2-1.2l-0.2-0.6l-0.3-0.5l-0.2-0.5v-1.3l-0.9-3.2l-0.3-5.7l-0.9-2.6l-0.4-0.4l-0.4-0.3
		l-0.3-0.4l-0.1-0.7l0.1-1.1l0-0.5l-0.2-0.4l-0.5-1.2l0.3-1.1l1.3-2.2l-0.6-0.9l-0.3-1.5l0.2-5.7l-0.8-8.8l-0.6-2.5l0-0.7l0.3-1.6
		l0-0.5l-0.4-0.8l-0.5-0.7l-0.3-0.7l0.4-0.8l0.3-0.3l1.1-0.6l0.3-0.3l0-0.3l-0.2-0.4l-0.1-0.4l-0.1-1.4l0.3-0.4l0.7-0.6l0.4-0.1
		l0.3,0.1l0.3,0l0.3-0.5l-0.1-0.1l-0.5-1.1l-0.5-1.6l-0.3-0.6l-1.6-1.8l-0.5-0.7l-0.2-0.7l-0.3-0.6l-0.7-0.6l-1.4-1l-2.5-2.5
		l-3.7-5.3l-1.3-3l-0.5-3.1v-1.5l-0.1-0.4l-0.3-0.1l-0.4,0l-0.3-0.2l-1.1-2.5l-0.4-3.1l0.2-1.5l0.3-0.4l-0.5-0.4l-0.5-0.9l-1.1-0.9
		l-1.3-0.8l-1.1-0.4l-1.2-0.8l-1.2-1.2l-1.2-0.8l-1.4,0.4l-1.2,0.7l-1.1,0.1l-1.2-0.2l-1.4-0.4l-1.5-0.2l-1.1,0.5l-1.1,0.6l-1.4,0.3
		l-1.9-0.1l-0.9-0.3l-0.7-0.5l-0.5-0.8l-0.8-1.7l-0.8-0.8l-2.5-1.8l-0.8-0.3l-0.4,0.1l-0.7,0.5l-0.4,0.1l-0.5-0.1l-0.9-0.3l-0.6,0
		l-0.3,0.1l-0.6,0.5L370,125l-0.2-0.1l-1.3-0.5l-1.2-0.3l-0.4-0.2l-2.8-2.1l-2.2-2.2l-0.8-0.5l-0.9,0l-0.9,0.4l-0.7,0.7l0.1,2.6
		l0.2,0.6l0.4,0.4l0.3-0.1l0.3-0.2l0.5,0l0.3,0.2l0.7,0.6l0.4,0.2l0,1.2l-0.8,3.3l0.6,1.2l0.6,0.2l0.5-0.2l0.5-0.3l0.6-0.1l0.5,0.2
		l0.2,0.5l0.1,0.5l0.2,0.4l1,0.4l0.4-0.8l0.1-1.3l0.3-1.2l1,0.5l2.4,0.1l0.9,0.6l0.6,1.1l0.2,0.6l0.1,0.7l-0.1,0.5l-0.2,0.4
		l-0.2,0.4l0.1,0.7l0.4,0.6l1.1,0.7l0.5,0.5l0.7,1.2l0.4,0.5l0.5,0.5l0.6,0.3l1.6,0.6l0.3,0.3l0.7,1.8l0.3,1.3l-0.3,1l-1.3,2.1
		l-0.8,2.1l-0.2,1.1l0,1.2l0.6,0.8l3.7,1.6l0.9,0.8l0.7,0.8l0.8,0.7l1.2,0.4l0.8,1.1l0.9,0.6l0.6,0.7l0.1,1.4l-0.3,2.5l0.2,1.1
		l1.2,2.8l0.4,0.5l1.3,1.1l0.3,0.4l0.9,2l0.7,0.8l1.2,0.2v1.2l0.3,0.8l0.1,0.8l-0.7,1.1L391,175l-1.8,1.3l-0.6,0.3l-0.6,0.4
		l-2.2,2.5l-0.7,1.8l-0.5,0.8l-0.9,0.6l-0.7,0.1l-0.8,0.8l-0.6,0.3l-0.7,0l-1.5-0.3l-0.6,0.1l-0.6,0.2l-1.1,0.2l-0.6,0.2l-0.6,0.5
		l-0.8,1.3l-0.7,0.4l-0.5,0l-0.5-0.1l-0.4,0.1l-0.4,0.8l0,0.7l0.4,0.3h0.6l0.6-0.1l0.7,0.6l0.3,1.4l0.3,2.7l0.4,1.4l0.6,1.3l0.8,1.1
		l1,1l1.4,2.5l-0.4,1.4l-0.6,1.3l-3.2,4.8l-0.1,0.3l0.2,0.5l-0.1,0.3l-0.3,0.2l-0.7,0.3l-0.2,0.2l-0.1,0.6l0.1,0.6l0,0.6l-0.4,0.6
		l-1.1-0.9l-0.4,0.6l0.2,3.9l0,0.6l-0.3,0.9l-0.7,1.4l0.2,0.4l0.7,0.3l0.7,0l0.8-0.1l0.7,0.1l0.6,0.7l0.3,0.7l0.5,7.4l-0.1,1.7
		l-0.6,1.7l0,0.7l0.5,1l0.2,0.6l-0.2,0.7l-0.3,0.7l-0.4,2.3l-1.8,4.2l-0.2,1.5l0.1,1.5l0.3,0.7l1.3,1.2l0.5,0.6l0.6,1.5l0.8,3.2
		l0.9,1.4l1.6,0.6l3.3-1l1.8,0.6l0.7,0l0.5,0.2l0.1,0.9l-0.4,0.7l-1.4,0.8l-0.3,0.8l-0.7,0.1l-0.2,0.3l0,1.1l-0.4,0.5l-1.4,0.6
		l-0.5,0.5l-0.7,1.1l-0.9,0.9l-1,0.6l-1,0.2l-0.4-0.1l-0.4-0.2l-0.4-0.2l-0.6,0l-1.2,0.2l-0.4,0.2l-0.5,0.6l-0.7,1.6l-0.6,0.4
		l-0.4,0.1l-0.3,0.2l-0.2,0.2l-0.2,0.2l-0.3,0.3l-0.2,0.3l-0.2,0.2l-0.5,0l-0.2-0.2l-0.5-1l-0.3-0.3l-0.4-0.1l-0.3,0l-0.7,0.2
		l-0.4,0.2l-0.4,0.3l-0.4,0.2l-0.3-0.3l-0.2-0.4l-0.2-0.3l-0.3-0.1l-0.4,0.2l-0.6,0.6l-0.5,0.6l-1.4,2.7l-1.6,2.4l-0.6,1.2l-0.2,0.8
		l0.3,3.4l0.3,0.5l1.2,0.8l1.1,1l0.4,1.1l-0.2,1.3l-1.2,2.8l-0.7,5.1l0.1,0.8l0.2,0.8l0.4,0.8l0.7,1.1l0.1,0.5l-0.2,0.6l-1.4,0.4
		l-1.1,1.4l-0.8,1.8l-1.2,5l-0.8,1.8l-1.3,0.7l-0.8,0.1l-0.4,0.5l-0.1,0.7l0,0.8l-0.2,1l-0.6,0.4l-1.7,0.3L351,309l-1.2,1l-0.6,0.1
		l-0.8-0.3l-0.7-0.1l-0.4,0.4l-0.2,1l0.5,1.5l1.4,0.3l1.6,0l1.2,0.5l1.7,2.4l0.2,0.5l-0.4,0.5l-1.6,0.8l-0.5,0.5l0.3,1.3l1.3,0.6
		l1.7,0.3l1.4,0.5l0.7,0.6l2.2,2.8l0.2,0.7l0.1,0.7l0.3,0.7l0.4,0.3l0.8,0l0.4,0.2l0.3,0.4l0,0.2l-0.1,0.3l-0.2,2.3l0.2,0.7l1,1.3
		l0.8-0.2l1.4-2.3l0.6-0.7l0.6-0.3l1.6-0.5l0.4-0.4l0.4-1.2l0.4-0.3l0.7,0.5l1.4,2.6l0.8,0.9l2.5,1.4l1,0.8l0.5,1.3l-0.2,2.3
		l0.2,0.8l1.1,1.9l0.4,0.4l0.6,0.4l0.4,0.2l0.3,0.3l0.7,1.4l0.8,1.1l2.3,4.6l0.8,1.1l0.6,0.5l1.9,0.9l0.6,0.5l0.3,0.5l0.2,0.6
		l0.4,0.6l0.5,0.4l1.2,0.6l0.5,0.4l0.4,0.6l0.9,2.5l0.4,0.6l0.5,0.5l0.8,0.2l0.4-0.3l0.1-0.8v-1.6l0.4-1.3l0.7-1l0.9-0.3l2.4,1.9
		l1.3,0.1l1.3-0.5l2.6-1.6l1.2-0.3l1.3,0l4.7,0.6l0.4-0.2l0.5-1.2l0.3-0.5l1.4-0.6l3.3-0.1l4.4-1.6l0.3,0l0.7,0.1l0.4-0.1l0.3-0.2
		l0.3-0.3l0.3-0.2l0.4-0.1l1.3,0.7l1,1.4l1.5,3l1,1.3l2.3,2.3l0.7,1.5l0.1,1.5l-0.6,2.7l0.4,1.6l0.8,1.5l0.5,1.4l0.3,1.4l0,3.4
		l0.1,0.8l0.3,0.9l0.4,0.7l0.5,0.7l0.3,0.7l-0.1,0.8l-0.3,0.7l-0.9,1.3l-0.3,0.7l0.1,0.6l0.3,0.6l0.1,0.5l-0.4,0.5l-0.1,0.8l0.9,6.8
		l-0.2,1.2l-0.8,1.2l-0.6,0.4l-0.6,0.3l-0.6,0.4l-0.5,0.7l-0.2,0.6l-0.2,1.2l-0.3,0.6l-0.9,0.6l-0.9,1.4l-0.8,0.4l-0.6,0.8v1.6
		l0.4,2.8l-0.1,1.8l-0.5,1.5l-2.8,3.9l-0.5,0.3l-0.9,0.3l-0.8,0.4l-0.8,0.6l-1.3,1.4l-0.5,1.2l-0.2,1.6l0.1,1.7l0.5,1.3l0.6,0.5
		l1.5,0.7l0.7,0.4l3.8,4l0.7,1l0.2,1.3l-0.9,3l-0.2,1.6l1.8,4.1l0.9,0.9l1.5,0l2,0.3l1,1l1.3,3.2l0.5,0.7l0.6,0.6l1.5,1.1l0.3,0.3
		l0.2,0.4l0.6,1.4l0.3,0.2l0.3,0.1l2.8,1.5l0.6,0.6l0.8,1.6l0.5,0.6l2.1,1.8l0.4,0.6l0.3,1l0.4,0.7l0.7,0.4l0.8,0.3l0.7,0.5l0.2,0.4
		l0.1,0.9l0.2,0.3l0.3,0.2l0.7,0.1l0.3,0.1l0.6,0.4l0.4,0.4l0.8,1.1l1.3,1l1.3,0.2l1.3-0.1l1.5,0l1,0.7l0.4,1.4l0,1.7l-0.1,1.5
		l-0.5,1.3l-1,0.7L455,468l-1,0.8l-0.3,1.5l1.5,2.3l-0.1,1.2l0.7,0.7l2.4,0.4l4.5,0.2l2.6-0.3l0.3-0.5l0.3-0.6l0.1-0.8l-0.1-1
		l-0.4-1.7l0.1-0.8l0.5-0.9l0.2-0.6l-0.3-0.4l-1.4-0.9l-0.2-0.2l0-0.3l0.2-0.2l0.3-0.2l0.1-0.2l-0.1-1.8l0.1-1l1.1-0.9l-0.2-1.2
		l-0.9-1.8l-0.2-0.9l-0.1-3.1l-0.1-0.3l-1.1-1.2l-0.1-0.1l-0.4-0.2l-0.1-0.1l-0.2-0.3l-0.2-0.5l-0.2-0.2l-0.3-0.2l-1-0.4l-0.4-0.1
		l-0.5-0.2l-0.3-0.4l-0.2-0.5l-0.7-1.2l-0.7-2.1l0.6-0.4l3.1-2.1l0.6-0.7l0.3-0.8l0-1.9l0.2-0.9l1.1-1.3l0.2-0.5l-0.5-1.3l-0.1-0.5
		l0.3-2.2l0.8-1.7l1.3-1.5l3.1-2.8l0.8-0.6l1-0.3l0.9,0l0.9,0.3l0.7,0.5l0.3,0.8l0.4,0.4l0.6,0.3l0.6,0l0.3-0.4l0.1-0.7l0.2-0.3
		l1.1-0.1l4.3-1.3l0.5,0l0.9,0.2l0.4,0l0.5-0.2l3.3-2.3l0.7-0.8l0.4-1l0-0.7l-0.3-1.4l0-0.7l0.8-2.9l0.4-6.7l0.3-4.1l0.4-5.8
		l0.4-5.6l-1.3-5.2l-1.2-5.1l0-1.1l0.3-1.2L489.7,377.4z M433.3,239.4l0.2,0.3l0.2,0.2l0.3,0l0.4-0.4l0.2-0.6l-0.2-0.6l-0.5-0.3
		l-0.7,0.1l0,0l-0.4,0.3l0,0.3L433.3,239.4z M439.3,242.2l0.5,0.1l0.5-0.2l0.2-0.6l-0.2-0.6l0-0.5l0.7-0.4l-1.3-0.6l-0.5,0.4
		l-0.3,1.3l-0.4,0.5l0.3,0.3L439.3,242.2z"/>
</g>

</svg>
