<?xml version="1.0" encoding="utf-8"?>

<svg version="1.2" baseProfile="tiny" id="Layer_1" xmlns="http://www.w3.org/2000/svg" xmlns:xlink="http://www.w3.org/1999/xlink"
	 x="0px" y="0px" viewBox="0 0 550.3 183" xml:space="preserve">
<g id="Malaysia">
	<g>
		<polygon fill="#CC0001" points="535.2,77.4 534.9,77.2 534.8,77.3 534.6,77.2 534.5,77.1 534.4,77.2 534.2,77.3 533.8,77.5
			533.8,78 534.1,77.8 534.4,77.5 534.5,77.4 534.8,77.6 535,77.7 535.3,77.7 535.3,77.6 		"/>
		<polygon fill="#CC0001" points="506,31.4 506,31.3 465.8,31.3 465.9,32.2 465.8,32.4 465.4,32.4 465,32.2 464.7,32.1 464.2,32.1
			463.9,32.3 463.3,32.8 461.9,34.8 461.5,35.1 460.6,35.4 460.3,35.9 460.5,36.3 461.2,36.1 461.6,36.9 461.2,38.1 459.5,40.9
			459.3,41.4 459.2,42.7 459.1,43.4 458.6,43.8 456.1,45.2 455.7,45.6 455.4,46 455.2,46.6 455,47.8 454.7,48.9 454.1,50.1
			453.4,51.3 453.1,51.5 529.2,51.5 529.3,51 529.5,50.4 529.8,48.8 529.9,48.7 530.1,48.6 530.3,48.5 530.4,48.2 530.2,47.8
			529.8,47.6 529.3,47.3 528.9,47.1 528,46.3 525.1,44.6 524.5,44.5 524.3,44.4 524.1,44.3 523.8,44.1 523.6,44.2 523.3,44.6
			523.1,44.7 523,44.7 521.5,43.9 520.9,43.8 519.8,44.3 518.5,44.4 518.1,44.7 518.1,45 518.3,45.5 518.2,45.8 518,46 517.9,46.2
			517.7,46.6 517.8,46.9 517.8,47.2 517.6,47.5 517.3,47.6 517.1,47.5 516.8,47.1 516.6,47 516.3,47 516,47.2 515.8,47.2
			515.5,47.1 515.3,46.9 515.1,46.8 514.7,46.9 513.5,47.4 513.1,47.6 512.8,47.7 512.6,47.7 512.5,47.7 512.2,47.5 511.4,45.3
			511.3,45.1 511,45 511.1,44.6 511.4,44.3 511.9,44.1 513.6,44.3 514.1,44.1 514.6,44.3 515.2,44.3 515.9,44.1 516.3,43.9
			517.1,42.7 517.1,42.6 516.9,42.4 515.8,40.9 515.6,40.2 515.7,39.6 515.6,39.3 515.1,39 515.1,38.8 515.1,38.5 515,38.2
			514.1,37.2 513.7,37.1 513.5,37.2 513.4,37.4 512.9,37.6 511.9,38.8 511.2,39.3 510.8,39.7 510.6,40 510.4,40.2 509,40.5
			508.5,40.5 508.1,40.4 507.8,40.3 507.5,40.3 507.2,40.5 507.4,41.2 507.3,41.5 506.8,41.6 505.4,41.4 503.5,41.6 501.5,41.7
			500.8,41.8 499.2,42.5 498.7,42.6 499.4,41.9 503,40.7 503.9,40.1 504.3,39.7 504.5,39.2 504.3,38.6 503.9,38.4 503.5,38.3
			503.3,37.8 503.4,37.5 503.6,37.4 503.9,37.3 504.1,37 504.2,36.7 504.2,36.5 504.2,36.3 504.1,36 504,35.8 503.6,35.7
			503.2,34.6 502.6,33.9 502.4,33.4 502.7,32.9 503.5,32.2 504,31.9 504.5,31.7 505.4,31.9 505.8,31.8 		"/>
		<polygon fill="#CC0001" points="485.4,2.6 485.9,3.1 486.2,2.7 486.2,2 486.1,1.4 485.7,1 484.5,2.3 484.2,2.5 483.2,2.7
			482.8,2.9 481.5,5.4 481.8,5.5 482.2,5.6 482.6,5.5 482.8,5.4 483,5.1 482.8,5 482.6,4.8 482.4,4.5 485.1,3.9 484.8,3.4 485,2.8
					"/>
		<polygon fill="#CC0001" points="532.5,82.7 532.7,82.7 533.1,82.3 534.1,82.3 534.7,82.1 534.9,81.7 534.5,81.3 533.9,81.1
			532.5,81 532.1,81 532,81 531.7,81 531.6,81 531.7,81.3 531.8,81.5 532.1,81.8 532.3,81.9 532.3,82.5 532.3,82.6 		"/>
		<polygon fill="#CC0001" points="510.8,90.1 510.7,89.8 509.4,89.4 509,89.4 508.7,89.3 508.5,89.2 508.2,88.9 507.9,88.3
			507.6,88 507.3,87.9 506.8,87.8 505.8,87.4 505.2,87.4 504.8,87.5 504.2,87.8 503.7,88.2 503.5,88.5 503.6,88.9 505.1,90.2 		"/>
		<polygon fill="#CC0001" points="447,49.8 446.6,49.1 446,49.7 445.2,51.5 446,51.5 		"/>
		<polygon fill="#CC0001" points="490,11 489.8,10.9 489.6,10.9 489.4,11.1 490.2,11.1 		"/>
		<polygon fill="#CC0001" points="435.4,71.8 437.3,77.1 437.4,77.7 437.3,78.2 437.1,79.3 437.1,80.4 437.3,81.6 437.6,82.7
			438.3,83.6 439.3,84.5 439.7,85.1 439.7,85.7 439.3,86.1 438.7,86.1 438.1,85.8 437.6,85.5 437.3,85.4 436.8,85.4 436.5,85.3
			436,84.9 435.8,84.8 435,84.9 434.4,84.8 432.8,84.2 432.4,83.9 432.2,83.6 431.9,80.8 431.5,79.7 430.6,77.5 430.4,76.4
			430.3,74.2 430.5,71.9 430.4,71.8 428.3,71.8 428.2,72 427.7,72.3 427.3,72.3 426.7,72.2 426.2,72.2 425.6,72.3 425.1,72.6
			424.2,73.5 423.7,73.8 422.7,74.2 422.4,74.5 422.4,74.9 422.6,75.5 423.2,76.5 423.3,77.1 423.4,77.7 423.5,81 423.7,82
			424.2,82.8 424.8,83 425.2,82.9 425.4,83 425.3,83.8 425.1,84.9 424.9,85.4 424.6,85.8 423.7,86.7 423.5,86.9 423.6,87.5
			424.4,87.1 424.5,87.6 424.3,88.1 423.7,89.1 423.5,89.6 423.3,90.8 423.1,91.2 422.3,92 447.3,92 447.4,91.3 447.7,90.2
			448,89.9 448.6,89.7 448.7,89.6 448.9,89.3 450.1,88.2 450.4,88.3 450.5,88.5 450.8,88.7 451.2,88.6 451.3,88.3 451.4,87.9
			452.5,87 452.6,86.2 452.6,85.3 452.9,84.4 453.3,84 453.6,84 453.8,84.2 454,84.6 454.2,85 454.8,85.2 456,85.3 456.6,85.5
			457,85.7 457.2,85.9 457.3,86.4 457.4,86.8 457.7,87.2 458.2,87.3 458.5,87.1 459.9,85.8 460.4,85.5 460.7,85.2 460.9,84.9
			461.1,84.3 461.4,84.5 461.7,84.5 462.4,84.5 463.6,84.9 464,84.9 464.8,84.7 465.6,84.3 466.3,84.2 467.1,84.9 467.3,84.9
			467.5,84.9 467.6,85 467.7,85.1 467.8,85.4 468.6,86.7 468.8,86.8 469.1,86.8 469.4,86.7 470.1,86 470.4,86 470.7,86.2 471.2,86
			471.4,85.8 471.4,85.6 471.2,85.4 471.2,85.1 471.5,84.7 472,84.1 472.2,83.8 472.5,83.8 473.8,85.6 474.1,85.6 474.8,85.3
			475.6,85.6 476.1,85.5 476.6,85.4 477.5,84.6 478,84.7 479.1,85.4 480.1,85.7 482.3,85.2 483.5,85.2 485.1,85.7 490.2,85.6
			490.5,85.4 490.9,85 491.3,84.9 491.7,85 491.9,85.2 492.1,85.5 492.3,85.8 493.3,86.5 495.6,87.6 497.2,89.3 497.8,89.7
			498.6,89.9 499.5,90.1 500,90.1 500.8,90 501.2,90.2 501.5,90.4 502.6,90 502.9,89.9 503.2,90 503,89.7 502.5,89.3 502.4,89.1
			502.5,88.9 502.6,88.7 502.8,88.4 503,88.3 503.5,87.9 503.8,87.6 503.9,87.3 503.9,86.9 503.4,86.5 503.3,86.2 503.3,85.1
			503.2,84.8 502.7,84.5 502.6,84.2 502.8,83.9 503.4,83.4 504,83 504.4,83 504.8,83.5 505.1,84.1 505.4,84.6 506,85 506.3,85.1
			507,85.2 507.9,85.5 508.2,85.6 508.3,85.7 508.5,86.2 508.6,86.3 508.9,86.4 509.1,86.5 509.5,86.7 510.6,87.7 510.9,87.9
			511.4,87.9 513.1,88.4 513.7,88.4 517.4,86.5 518.1,86.3 520.4,86.1 522.9,85.4 523.1,85.3 523.5,84.8 523.9,85.1 524.6,85.2
			525.8,85.2 526.3,85.1 527.2,84.8 527.7,84.8 528.8,84.8 529.2,84.7 529.6,84.4 529.9,84.1 530.2,83.8 530.3,83.4 530.2,82.9
			530.6,83 530.9,83.1 531.1,83.2 531.4,83 531.7,82.7 531.6,82.5 530.5,81.3 530.2,80.8 530.4,80.4 530,80.2 529.3,80.2 529,80
			528.2,80.6 527.7,80.8 527.5,80.7 527.3,80.5 527,80.2 526.7,79.9 526.8,79.5 527.1,79.2 527.3,78.8 527.2,78.5 526.9,78.1
			526.5,77.8 526,77.7 525.6,77.8 525.6,78.3 525.1,78.1 524.9,77.9 524.7,77.8 524.6,77.6 524.4,77.1 524.2,76.9 524,76.8
			523.4,76.8 523.2,76.7 522.9,76.7 522.7,76.5 522.3,76.2 521.4,75.4 520.5,74.6 519.7,73.7 519,72.7 518.7,71.9 518.6,71.8 		"/>
		<polygon fill="#CC0001" points="447,51 446.8,51.3 446.8,51.5 447.6,51.5 		"/>
		<polygon fill="#CC0001" points="464.2,31.5 464.9,31.4 465.1,31.3 464.2,31.3 		"/>
		<polygon fill="#CC0001" points="479.8,11 479.5,10.3 479.4,10.2 479.1,10.3 478.8,10.4 478.5,10.7 478.4,11 478.3,11.1 480,11.1
					"/>
		<polygon fill="#CC0001" points="119.4,131.7 119.4,131.6 119.4,131.6 119.6,131.8 119.7,131.6 119.7,131.3 119.5,131.1 119.3,131
			119.2,131.3 119.3,131.8 		"/>
		<polygon fill="#CC0001" points="415,90.8 414.6,90.3 414.3,89.8 413.8,88 413.4,87.6 412.9,87.6 411.7,87.8 410.5,87.6
			409.6,87.5 409.4,87.2 409.4,86.8 409.5,86.6 409.9,86.3 410,86 409.8,84.8 409.4,84.2 409.4,83.4 409.2,82.6 409,82.3 408.7,82
			408.6,81.8 408.6,81.6 408.5,81.4 408.3,81.3 407.9,81.3 407.7,81.3 407.5,80.7 407.2,80.5 406.5,80.2 405.6,79.5 405,79.2
			403.5,78.9 401.6,78.1 401,78.3 400.8,78.7 401.4,81.3 401.4,82.7 401.2,83.9 400.6,84.8 400.8,85.9 400.2,87.2 396.5,92
			416.3,92 		"/>
		<polygon fill="#CC0001" points="125.5,130 125.7,130.3 126.3,130.9 126.7,131.1 127.2,131 127.8,130.9 128.1,130.6 128.2,130.3
			128.1,128.9 127.7,127.7 127.6,127.3 127.2,126.8 127.1,126.6 127.1,126.2 127.1,126.1 126.9,126 126.6,125.9 126.4,126.1
			126.2,126.4 126.2,126.7 126.2,127.1 126.3,127.6 126.3,128 126.1,128.4 125.9,128.5 125.5,128.7 125.4,128.9 125.4,129.1
			125.5,129.6 125.5,129.8 		"/>
		<polygon fill="#CC0001" points="105.6,170.1 105.7,170.2 105.7,170.2 106,170 106.1,169.7 105.8,169.2 105.5,169.4 		"/>
		<polygon fill="#CC0001" points="487.2,5.3 487.4,7.4 487.6,8.1 487.9,7.9 488.1,7.6 488.2,7.3 488.4,6.9 488.6,6.8 489.4,6.4
			489.5,6.3 489.9,6.1 491.5,5.8 492,5.6 492.5,5.8 493,5.3 493.3,4.5 493.5,2.3 493.5,1.7 493.2,1.2 492.5,1 490.4,1.4 490,1.4
			489.7,1.6 489.1,2 488.4,2.7 488.1,2.8 487.7,3 487.5,3.1 487.4,3.4 487.4,4.6 487.3,4.8 		"/>
		<polygon fill="#CC0001" points="328.1,130.2 327.5,129.3 326.6,128.9 326.1,129.8 326.1,131.2 326.2,132.5 328.4,132.5
			328.4,131.3 		"/>
		<polygon fill="#CC0001" points="85.1,154.2 85.5,154.8 86.1,155.1 86.6,155.2 88,154.9 88.4,154.8 89.3,155.2 90.1,155.7
			90.7,156.3 91.3,156.9 91.7,157.6 92,157.9 92.5,158 93.2,158.1 93.8,158.3 94.9,158.8 99.6,161.8 103,163 104.2,163.8
			104.9,164.7 105.5,165.8 106.4,168.8 106.6,169.3 107,169.9 108,170.7 108.3,171.3 108.7,170.3 109.2,169.6 109.3,169.3
			109.3,169 109.1,168.6 109.1,168.3 109.2,168.2 109.4,168.4 109.6,168.7 109.7,168.8 110.7,169 111.5,168.3 112.9,166.5
			113.4,166.2 113.8,166.2 114.9,166.3 115.5,166.2 116.7,165.6 117.4,165.5 119.8,166.8 121.1,167.1 122.1,166.3 122.2,165.9
			122.1,165.4 122,165 122,164.7 122.1,163.9 122.1,163.5 121,161.8 120.7,161.1 120.9,160.7 121.5,161.2 122.2,162.1 123.1,164
			123.2,164.5 123.3,164.7 123.6,164.6 124.5,163.9 125,163.6 125.5,163.5 126,163.6 125.3,164.4 124.3,164.8 123.5,165.3
			123.7,166.3 124,166.6 124.3,166.8 124.7,167.1 124.8,167.5 124.8,168.1 124.8,168.3 125,168.5 126.2,169 126.7,169.1 128,169.2
			128.1,169.1 128.4,168.7 128.6,168.6 129.6,168.6 129.8,168.1 129.7,166.9 129.9,166.7 130.1,166.4 130.1,165.6 129.8,164.4
			129.2,162.8 129,161.7 128.9,161.3 129,161 128.8,160.6 128.4,160.3 128.3,159.9 128.2,158.9 128.1,158.5 127.6,157.8
			127.3,156.5 126.5,155.1 126.4,155.1 126,155.4 125.6,155.1 125.3,154.5 125.2,153.9 125.3,152.7 125.3,152.7 84.2,152.7
			84.6,153.1 		"/>
		<polygon fill="#CC0001" points="530,77.2 530.4,77.1 530.4,76.9 529.8,76.6 529,76.3 528.3,76.3 527.9,76.7 527.4,76.4
			527.2,75.9 526.9,75.5 526.4,75.4 526.2,75.5 526,75.7 525.8,75.9 525.5,76 523.3,76 523.3,76.2 525.2,76.7 526.1,76.9 526.3,77
			526.5,77.3 526.6,77.3 527,77.3 527.5,77.4 527.9,77.7 528.4,78 528.6,78.1 528.7,77.9 528.8,77.6 528.9,77.5 529.1,77.6
			529.6,78.1 529.6,77.7 529.7,77.3 		"/>
		<polygon fill="#CC0001" points="113.2,132.4 113,132.3 112.5,132.3 112.1,132.2 111.7,132.1 108.4,128.8 107.1,127.1 106.2,125.1
			106,124 106.6,117.2 106.5,116.6 106.3,116.1 105.9,112.6 105.9,112.2 43.1,112.2 43.1,112.2 43.4,112.7 43.4,112.8 43.7,113
			43.9,113.1 44.5,113.3 44.7,113.5 44.8,113.7 44.9,113.9 45.8,114.7 46.2,115.2 46.4,115.8 47,119.4 47.1,119.8 47.9,120.4
			48.1,120.7 48.3,122.1 48.3,122.8 48,123.1 47.6,123.3 47.2,123.7 45.8,125.4 45.8,125.7 46.4,125.8 45.9,127.1 46.6,127.5
			47.8,127.7 49.1,127.9 49.9,128.7 51.3,130.8 52,131.6 53.1,132.4 53.3,132.5 113.2,132.5 		"/>
		<polygon fill="#CC0001" points="44.7,121.5 44.5,121.9 44.7,122.1 45.2,122 45.4,121.9 45.5,121.6 45.3,121.3 		"/>
		<polygon fill="#CC0001" points="47.3,121.1 47,120.9 46.5,121.1 46.1,121.7 45.4,123.4 45.4,123.7 45.4,123.9 45.6,123.8
			45.8,123.6 45.9,123.5 46.4,123.2 46.9,123 47.3,122.6 47.4,122 47.3,121.6 47.4,121.4 		"/>
		<polygon fill="#CC0001" points="44.4,124.8 44.4,125.3 44.7,125.5 45,125.3 45.1,123.8 44.9,123.7 44.6,124.1 44.4,124.6 		"/>
		<polygon fill="#CC0001" points="512.7,44.9 512.9,44.7 512.2,44.7 512,44.7 511.9,44.8 511.5,44.8 511.2,44.8 511.3,44.9
			511.7,45.1 512.3,45.1 512.4,45.6 512.7,46 513.7,46.1 513.8,45.8 514.1,45.6 514.1,45.2 514.1,45.2 513.9,45.2 513.9,45.2
			513.9,45.1 513.8,45 513.6,45.1 513.5,45 513.5,45.1 513.6,45.2 513.5,45.3 513.5,45.2 513.4,45.1 513.4,44.9 513.4,44.9
			513.3,44.9 513.2,45 513.2,45.1 513.1,45.1 513.1,45.1 513.3,44.9 513.1,44.8 513,44.9 512.9,44.8 512.8,44.9 512.7,44.9
			512.6,45 512.6,45 		"/>
		<polygon fill="#CC0001" points="515.2,34 515.1,34 515.2,34.1 		"/>
		<polygon fill="#CC0001" points="515.6,32.2 515.7,32.2 515.6,32.2 		"/>
		<polygon fill="#CC0001" points="533.7,51.1 532.3,49.5 531.8,49.1 531.2,49.1 530.5,49.6 530.3,49.9 530.4,50.7 530.3,50.9
			530.1,51.2 529.9,51.5 529.9,51.5 534.1,51.5 		"/>
		<polygon fill="#CC0001" points="516.5,34.3 516.6,34.3 516.6,34.3 516.6,34.3 516.6,34.3 516.6,34.3 516.6,34.3 516.6,34.2 		"/>
		<polygon fill="#CC0001" points="515,34.7 514.9,34.7 515,34.8 		"/>
		<polygon fill="#CC0001" points="514.2,35.3 514.2,35.4 514.2,35.4 514.2,35.4 		"/>
		<polygon fill="#CC0001" points="513.9,35.6 513.7,35.7 513.9,35.8 514.1,35.7 514.3,35.6 514.2,35.4 		"/>
		<polygon fill="#CC0001" points="519,43 518.7,43.1 518.3,43.3 518.2,43.6 518.2,43.8 518.4,43.9 518.7,44 518.9,44 519.1,44
			519.6,43.8 519.7,43.8 520.1,43.6 520.2,43.4 520.1,43.1 519.7,43 		"/>
		<polygon fill="#CC0001" points="504.3,40.3 504.2,40.5 504.6,40.6 504.8,40.2 505.1,40.1 505.4,39.7 505.4,39.7 505.6,39.5
			505.7,39.2 505.7,39.1 505.5,38.9 505.4,38.9 505.4,38.9 505.3,38.8 505.3,38.6 505.2,38.5 505.2,38.6 505,38.7 504.7,38.7
			504.7,38.9 504.9,39 504.9,39.1 504.8,39.3 504.9,39.5 504.8,40 		"/>
		<polygon fill="#CC0001" points="321.8,154 321.1,155 320.9,155.5 320.8,156 320.9,156.3 321.3,156.5 321.4,156.7 321.2,156.9
			320.5,157 320.4,157.2 320.5,157.6 320.6,158 321.3,159.1 321.4,159.2 321.5,159.3 322,159.4 322.1,159.5 322.2,159.6
			322.5,160.1 322.6,160.4 322.7,160.5 322.8,160.5 323.4,160.6 323.6,160.6 323.9,160.6 324.4,161 324.6,161.1 325.2,161.3
			324.6,161.5 324.1,161.2 323.7,160.9 323.4,161 322.7,161.3 322.3,160.9 321.9,160.3 321.6,159.8 321,159.6 320.4,159.6
			318.8,159.9 318.5,160.3 318.3,161.3 317.9,162.3 317.9,162.5 317.9,163.3 318,163.7 318.6,164.2 319.1,165.5 319.5,165.9
			320.8,166.4 321.3,166.8 321.7,167.2 322.1,167.5 322.7,167.6 323.3,167.6 324.3,167.2 324.6,167.1 325,167.1 325.8,167.4
			326.3,167.4 326.4,167.6 326.7,168.4 326.8,168.6 327.2,168.6 328,168.9 328.5,169 327.3,169.5 326.2,169 325.1,168.2
			324.2,167.8 323.7,168 322.7,168.5 322,168.6 321.7,168.4 320,167.6 319,166.9 316.8,164.8 315.6,164 313.2,163 311.9,162.8
			311.2,163.4 311.2,163.8 311.4,164.4 311.4,164.9 311.1,165.4 310.5,165.9 310,166.2 309.5,166.3 308.7,166.3 308.7,166.1
			309.8,165.4 310.3,164.9 310.4,164.2 310.1,163.5 309.4,163.1 307.8,162.6 306.6,162 306.2,161.9 305.9,161.9 305.3,162.2
			305.1,162.3 304.8,162.1 304.7,161.9 304.6,161.6 304.3,161.3 303.9,161.1 303.5,161.2 302.8,161.5 302.9,161.2 303.4,160.6
			303.5,160.4 303.6,159.9 303.7,159.4 304,159 304.3,158.6 304,158.1 303.5,158.2 303,158.4 302.2,158.7 301.8,159.3 301.5,159.4
			300.9,159.3 300.7,159.3 300.5,159.2 300.3,159.1 300.1,159 300,158.8 299.9,158.6 299.9,158.4 299.9,158 299.9,157.9
			299.8,157.7 299.6,157.3 299.3,156.5 299,156.4 298.5,156.7 298.2,157.3 298.1,157.5 298.2,158.4 298.2,158.5 298.3,158.8
			298.4,159 298.3,159.2 298,159.5 297.9,160 297.7,159.9 297,159.2 296.9,159.1 296.7,159.1 296.4,159.2 296.2,159.3 295.8,159.7
			295.7,159.8 295.4,159.7 294.8,159.3 294.4,159.2 290.9,159.2 290.3,159.3 289.8,159.5 289.5,159.5 288.1,159.6 287.7,159.5
			287.4,159 286.9,158.1 286.6,157.6 286.1,157.2 285,156.7 284,156.1 282.2,155.4 281.7,154.9 281.1,154.4 280.3,153.2
			280.1,152.7 277.4,152.7 276.8,153.2 276.6,153.5 276.5,153.9 276.7,154.9 276.7,155.2 276.7,155.4 276.9,155.7 277,156.1
			277.3,156.4 277.6,156.7 278,156.8 279.2,156.8 279.7,157 279.9,157.5 279.7,159.7 279.7,161 279.9,161.6 280.2,162.1
			280.7,162.8 283.2,164.9 283.4,165.2 283.5,166 283.6,166.1 284.2,165.8 284.4,166 284.9,167.2 285.3,167.6 285.9,167.6
			286.5,167.5 287,167.5 287.5,167.8 287.8,168.2 288.4,169.9 288.7,170.5 289.1,170.8 290.1,171.3 290.6,171.7 291.2,172.8
			291.3,172.9 349,172.9 350,170.3 350.8,168.5 350.9,168.2 351,167.9 350.8,167.6 350.1,167.6 350,167.4 350.2,166.7 350.7,166.3
			354,164.7 354.6,164.5 356.4,164.4 356.8,164.2 357.3,163.8 357.7,163.4 358.2,163.1 358.9,163 367.2,163.4 367.9,163.6
			368.1,163.6 368.5,163.5 368.7,163.2 368.8,163 369.1,162.7 369.6,162.5 370.1,162.6 370.5,162.8 371.1,162.9 372.4,162.8
			372.9,162.9 373.6,163.2 374.1,163.4 374.3,163.8 374.4,164.4 374.2,165.1 373.9,165.6 373.4,166.1 372.6,166.7 372.4,167
			372.5,167.2 372.9,167.2 374,166.9 375.1,166.7 376.2,166.8 377.2,167.3 378.1,168 378.5,168.1 379.8,168.2 381.4,168.5
			382.7,169 384.8,170.6 386.1,170.7 387.2,170.2 387.8,170 388.4,170.1 389,170.4 390.4,172.1 391.2,172.5 391.9,172.3
			396.3,169.3 398,167.2 398.6,166.7 399.1,166.5 403.2,165.8 404.3,165.8 405.3,166.1 405.6,166.4 405.9,166.7 406.1,167
			406.5,167.1 406.8,167 407.4,166.6 411.6,164.8 412.1,164.7 412.8,164.8 413.4,165.1 415.7,166.6 416.3,166.8 416.9,166.7
			417.4,166.2 417.6,165.7 417.5,165.1 417.4,164.5 417.4,163.8 417.7,163.4 418.7,162.6 419.1,162.1 419.9,160.9 420.4,159.4
			420.7,157.5 420.7,156.6 420.6,156.3 420.5,156.1 420.4,155.9 420.5,155.6 420.7,155.3 420.9,155.1 421.2,154.8 421.5,154.7
			423,154.5 424.6,153.9 424.9,153.6 425,153.1 424.9,152.7 322.4,152.7 		"/>
		<polygon fill="#CC0001" points="378.3,112.7 378.2,113 377.9,113.2 376.6,114.3 375.8,114.8 375.6,115.1 376,115.7 375.4,116.8
			373.9,118.4 373,118.8 368.1,120.4 367.8,120.4 366.1,121 361.8,121.9 354,124 346.1,126.1 341.8,126.2 336.5,127.3 335.6,127.7
			332.6,129.6 330.5,131.1 330.2,131.4 330,131.8 330,132.5 431.6,132.5 431.7,132.1 431.6,131.8 431.3,131.2 431.2,131
			431.4,130.6 431.7,130.5 432,130.4 432.3,130.2 432.6,129.6 432.4,129 431.7,128.1 431.5,127.7 431.6,127.6 431.8,127.5
			432.2,127.1 432.4,126.8 432.5,126.5 432.6,126.2 432.7,125.9 433.1,125.3 433.5,124.9 435.1,123.8 435.5,123.4 435.9,122.4
			436.4,121.7 436.8,121.8 437.5,122.9 438.3,123.3 439.2,123.1 441,122.3 442.2,122.2 442.6,122 442.9,121.5 443,120.3
			443.1,119.8 444.1,118.5 444,118.3 443.6,118.1 443.2,117.6 443.1,117.1 444.1,112.9 444.4,112.2 378.7,112.2 		"/>
		<polygon fill="#CC0001" points="528.3,9.7 527.9,9.6 527.5,9.7 527.2,9.8 526.9,9.9 526.4,9.8 525.9,10 525.7,10.2 525.5,10.4
			525.6,10.8 525.7,11.1 528.2,11.1 528.1,10.9 528.2,10.6 528.6,10.8 528.8,10.6 528.5,10 		"/>
		<polygon fill="#FFFFFF" points="291.8,173.3 292.3,173.5 294,173.7 294.5,174 294.9,174.5 295.5,175.7 296.9,177.7 297.1,178.4
			297.1,179 297.4,179.1 297.7,179 298.2,178.9 299.6,179.2 299.9,179.4 300.4,179.8 301.6,181.4 302.6,182.2 303.9,182.8
			305.2,183 306.4,182.4 306.7,182.1 306.8,181.9 306.9,181.8 307.2,181.8 307.4,182 307.6,182.2 307.9,182.4 308.2,182.4
			308.6,182.3 309.1,181.8 309.4,181.6 309.6,181.6 309.9,181.7 310,181.7 310.6,181.5 310.6,181.4 311,181.2 311,181.3
			311.3,181.5 311.5,181.5 311.7,181.4 311.7,181.2 311.8,180.7 312,180.3 313.6,178.9 314.4,178.5 315.2,178.4 317,178.3
			323.2,176.7 323.8,176.8 327.6,178.5 328.2,178.6 328.8,178.7 329.3,178.6 330.4,178.2 330.9,178.2 331.2,178.5 331.4,178.9
			331.5,179.4 331.8,180 332.1,179.8 332.8,178.9 335.1,178 335.5,177.9 336,178 336.8,178.2 338.3,178.8 339.1,179 340.7,178.6
			343.2,175.6 345,175.1 347.2,175.1 347.9,175 348.3,174.8 348.5,174.5 349,172.9 291.3,172.9 		"/>
		<polygon fill="#FFFFFF" points="125.2,152.2 125,151.5 124.8,151.2 124.2,150.6 124.1,150.3 123.7,149.6 123.2,148.9 122.5,147.1
			121.2,145.5 121,144.9 121.1,144.6 121.3,144 121.4,143.8 121.3,143.4 120.8,142.8 120.6,142.5 120.6,142.2 120.6,141.6
			120.4,141.4 120.2,141.2 119.6,140.7 119.4,140.5 117.3,137.9 117.1,137.4 117.1,136.8 117.4,136.2 116.7,134.6 116.3,134.2
			115.3,133.4 115.3,133.1 115.3,132.9 115.3,132.7 114.9,132.5 114.2,132.9 113.9,132.9 113.6,132.8 113.2,132.5 53.3,132.5
			53.7,132.6 54.6,132.8 55.2,133 56.8,133.3 57.2,133.7 57.5,134 57.9,134.2 59.2,134.3 59.6,134.4 59.8,134.8 60.4,136.4
			60.8,136.8 61.1,137 61.3,137.1 61.7,137.5 61.9,138.2 61.9,139.1 62.1,139.8 62.5,139.4 63.4,139.4 63.8,139 64.7,139.5
			65.1,139.7 65.6,139.8 65.5,140.3 65.9,140.7 66.4,141.1 67,141.2 67.3,141.3 69.4,143.7 70.2,144.3 71.2,144.8 75.6,146.7
			79.6,148.3 80.6,148.9 81.1,149.2 81.5,149.6 81.5,149.7 81.6,149.8 81.5,149.9 81.3,150 81.5,150.3 81.8,150.7 84.1,152.5
			84.2,152.7 125.3,152.7 		"/>
		<polygon fill="#FFFFFF" points="136.6,137.6 136.5,137.5 136.1,137.6 135.9,137.8 136,138 136,138.1 136.2,138.3 136.3,138.5
			136.5,138.8 136.9,138.6 137,138 136.7,137.8 		"/>
		<polygon fill="#FFFFFF" points="326.6,135.8 326.6,137 326.3,138.2 326.5,138.8 327,139 327.3,139.3 327.8,140.4 328.1,140.8
			328.2,140.5 328.4,140.3 328.7,140.2 328.9,140.3 329.2,140.4 329.3,140.3 329.3,140 329.2,139.9 328.6,138.3 328.4,136.2
			328.4,132.5 326.2,132.5 		"/>
		<polygon fill="#FFFFFF" points="124.7,142.5 125.1,142.7 125.5,142.8 125.7,142.7 125.8,142.2 125.4,141.9 125,141.8 124.9,141.9
			124.7,141.9 124.5,141.8 124.4,141.9 124.5,142 124.5,142.1 		"/>
		<polygon fill="#FFFFFF" points="131.1,134 130.9,133.9 130.6,134 130.6,134.3 130.8,134.4 131,134.7 131.3,134.9 131.6,134.6
			131.5,134.4 131.3,134.2 131.3,134.1 		"/>
		<polygon fill="#FFFFFF" points="280.1,152.6 280.1,152.2 280.2,151.8 280.3,151.3 280.3,150.8 280,149.6 279.9,149 279.8,148.5
			279.3,150 278.5,151.3 278.1,152 277.8,152.3 277.4,152.7 280.1,152.7 		"/>
		<polygon fill="#FFFFFF" points="329.9,132.9 329.4,134.6 329.4,135.3 329.6,135.8 329.8,136.1 330.2,136.4 330.6,136.6
			331.7,136.9 332.3,137.1 332.2,137.2 332.1,137.2 332.1,137.2 331.9,137.1 331.4,137.6 330.7,137.6 329.9,137.4 329,137.3
			329.3,137.7 329.6,138.9 329.8,139.3 330.7,140.1 331.3,140.7 331.5,141.2 331,140.9 330.5,140.5 330.3,140.4 329.3,140.6
			329.1,140.7 328.2,141.3 328,141.3 327.8,141.2 327.6,141.1 327.4,141 327.2,140.8 326.5,139.9 326.2,139.6 325.2,139.4
			324.9,139.1 324.6,138.7 323.9,139.2 323.6,140 323.3,141.9 322.9,143.3 322.9,143.8 323.1,144 323.6,144.1 324.1,144.3
			324.4,144.8 323.9,144.7 323.3,145 322.9,145.4 322.7,145.9 322.7,146.5 322.9,146.8 323.3,146.9 325.3,146.6 325.9,146.7
			326.6,147.1 326.9,147.3 327.2,147.2 327.4,146.5 327.7,146.2 328,146.1 328.3,146.3 328.2,146.6 327.7,147.3 327.5,147.5
			327.1,147.7 326.9,147.8 325.9,147.6 325.3,147.4 324.8,147.3 324.4,147.7 324.5,148.4 325.2,149 324.5,149 324,148.8
			323.6,148.8 323.5,148.9 323.4,149.6 322.6,152.2 322.4,152.7 424.9,152.7 424.9,152.5 424.9,152 425,151.5 425.2,150.9
			425.3,150.6 425.3,150.2 425.2,149.8 424.9,149.6 424.3,149.7 423.8,149.9 423.5,149.9 423.2,149.2 423.2,149 423.2,148.1
			423.1,147.8 422.8,147.3 422.7,147.1 422.7,146.6 423,145 423.5,143.9 424.3,143.5 426.5,143.2 427.2,142.9 427.4,142.6
			427.3,142.1 427.3,141.6 427.5,141 427.8,140.8 428.9,140.9 429.4,140.5 430.6,139.5 431.1,139.3 431.5,139 432.6,137.8
			433.2,137.4 434.4,137.3 435,137.1 435.4,136.6 435.3,136.1 435,135.4 434.6,134.8 434.2,134.3 433.9,134.2 433.5,134
			433.2,133.9 432.9,133.8 432.6,133.9 431.9,134.2 431.6,134.2 431.2,133.8 431.3,133.3 431.5,132.6 431.6,132.5 330,132.5 		"/>
		<polygon fill="#FFFFFF" points="420.5,93.7 419.2,94.4 418.1,94.3 417.9,94.1 417.7,93.4 417.6,93.1 417.4,92.9 416.8,92.5
			416.3,92 396.5,92 394.3,94.9 387.5,100.7 386.4,101.4 385.8,101.8 385.6,102.3 385.5,103 385.3,103.6 384.6,104.7 383.3,106.2
			383.1,106.5 383,106.7 382.3,107.2 382.2,107.5 382.1,108.1 382.1,108.3 382,108.6 381.5,109.3 379.3,111.3 378.7,112.2
			444.4,112.2 444.6,111.6 445.2,111 445.5,111 445.8,111.1 446,111.2 446.3,111.1 446.5,110.8 446.4,110.5 446.2,110 445.8,109.1
			445.7,108.8 445.7,108.5 445.7,107.9 445.7,107.6 445,105.9 444.9,105.3 444.9,104.2 445,103.1 446.1,99.8 446.1,98.9 445.7,98.5
			445.1,98.2 444.7,97.8 444.7,97.1 444.9,96.9 445.9,96.4 446.2,96.1 446.7,95 447,93.8 447.3,92 422.3,92 		"/>
		<polygon fill="#FFFFFF" points="544.9,54 544.4,54.3 544.8,54.7 545,54.6 545.3,54.5 545.7,54.3 545.9,54.2 545.9,54.1 545.4,54
					"/>
		<polygon fill="#FFFFFF" points="522.4,67.6 522.3,67.6 522.2,67.7 522.1,67.9 522,68.1 522.1,68.3 522.3,68.3 522.4,68.3
			522.6,68.3 524,67.7 524.2,67.5 524.1,67.4 523.7,67.5 523.6,67.4 523.5,67.3 523.5,67.3 523.3,67.4 523.2,67.5 523.1,67.4
			523.2,67.3 523.1,67.2 522.9,67.1 522.6,67.2 522.5,67.4 522.5,67.5 522.6,67.6 522.7,67.8 522.4,67.9 522.3,67.8 522.4,67.7
			"/>
		<polygon fill="#FFFFFF" points="452.5,52 451.8,52.2 451,52.3 448.5,52.1 447.9,51.9 447.6,51.5 446.8,51.5 446.7,52.1
			446.6,52.4 446,51.6 446,51.5 445.2,51.5 445,51.8 443.1,53.2 442.8,53.6 442.4,54.2 441,55.1 440.6,55.4 440.5,55.6 440.3,55.9
			440.1,56.2 440,57.1 439.8,57.6 439.7,58 439.9,58.3 440.4,57.8 440.5,57.8 440.8,57.8 440.9,58 440.8,58.3 440.9,58.5
			443.4,60.7 444.3,61.1 445.3,61.1 446.4,60.6 446.6,61 446.5,61.2 446.2,61.4 446,61.6 445.7,62.2 445.6,62.4 445.6,63.5
			445.4,64.6 445.2,65 445,65.4 444.5,65.7 444,65.9 443.4,66 443.1,66.2 442.2,67.3 441.1,68.3 440.9,68.5 440,69.4 439.7,69.6
			439.2,69.7 438.7,69.7 438.2,69.5 437.8,69 437.6,68.8 437.3,68.7 437.1,68.7 436.5,68.7 436.3,68.7 436.2,68.5 435.9,68.1
			435.5,68 435.2,68.3 434.9,69.2 434.6,69.4 434.2,69.5 433.7,69.5 433.7,70.1 434,70.4 434.4,70.6 434.7,70.8 435.4,71.8
			518.6,71.8 518.6,71.7 518.4,71.5 517.7,71 517.5,71 517.4,70.8 517.3,70.5 517.4,70.2 517.6,70 518.1,69.6 519.7,67.9
			520.7,67.3 521.7,67.5 521.7,67.2 521.8,66.9 521.9,66.8 522.1,67 523,66.2 523.6,65.8 523.9,65.9 524.1,65.8 524.7,65.9
			525.6,66.4 526.5,67.5 527,68.4 527.2,68.6 527.6,68.8 527.8,68.9 528.4,68.5 529.3,67.8 529.6,67.7 530,67.7 530.5,67.9
			531.3,68 532.2,68.4 532.7,68.5 533.2,68.4 533.9,68.2 534.6,67.9 535.6,67.3 540.8,65.8 545.9,64 547,63.3 548.4,61.8 549,61.3
			549.1,60.6 549,59.3 549,58.8 549.3,57.9 549.4,57.3 549.2,56.8 549,56.4 548.4,55.9 547.7,54.9 547.3,54.5 546.9,54.3
			546.2,54.4 544,55.5 543.1,55.4 541.8,54.7 541.1,54.7 540.8,54.9 540.8,55.2 541,55.5 540.9,55.9 540.6,56.1 540.1,56
			539.7,55.9 539.4,55.6 539.9,55.4 539.8,54.8 539.3,54.2 538.7,53.9 538.2,53.8 536.9,52.8 536.9,53.1 536.8,53.2 536.7,53.4
			536.5,53.5 536.3,52.9 536,52.3 535.4,51.9 534.7,51.8 534.2,51.6 534.1,51.5 529.9,51.5 529.6,52.2 529.4,52.2 529.2,51.6
			529.2,51.5 453.1,51.5 		"/>
		<polygon fill="#FFFFFF" points="436,56.3 435.2,57 434.9,57.3 434.2,59.5 434.1,59.9 434.8,59.4 435.4,59 435.6,58.9 436.1,59.3
			436.4,59.3 436.9,58.8 436.9,58.1 436.6,56.7 436.4,56.1 		"/>
		<polygon fill="#FFFFFF" points="430.3,70.9 430.3,69.8 430.1,69.3 429.9,69.5 429.7,69.7 429.4,69.9 429.1,70 428.5,70.7
			428.4,71.1 428.4,71.6 428.3,71.8 430.4,71.8 		"/>
		<polygon fill="#FFFFFF" points="513.7,30.4 513.8,30.4 513.8,30.3 513.8,30.3 513.7,30.3 		"/>
		<polygon fill="#FFFFFF" points="506.3,29.5 506,28.8 506.1,28.5 506.3,28.3 506.4,28 506.4,27.8 506.1,27.4 506,27.1 506,26.8
			506,26.5 506,26.3 505.8,26.1 505.7,26 505.5,26 505.4,26.1 505.3,26.3 505.1,26.3 504.8,25.7 504.5,25.3 503.8,24.5 503.5,24.3
			503.2,24.4 502.9,24.6 502.5,24.5 502.2,24.4 501.8,24 501.7,24 501.3,23.9 501.2,23.8 501.2,23.7 501.2,23.5 501.3,23.4
			501.4,23.4 500.8,22.8 500.7,22.8 500.6,22 500.5,21.6 500.3,21.6 499.9,22.1 499.2,23.2 498.9,23.5 498.4,23.6 498,23.5
			497.5,23.1 496.8,22.5 496.2,21.8 495.8,21.4 495.4,21.3 494.3,21.3 493.9,21.1 493.6,20.5 493.5,20.1 493.4,18.4 493.2,17.8
			492.2,16.5 492.1,16.1 492,15.5 492.1,15 492.5,14.8 492.6,14.5 492.8,13.2 492.8,12.7 492.7,12.5 492.5,12.3 491.1,11.5
			491,11.4 490.7,11.3 490.2,11.1 489.4,11.1 489.2,11.2 489,11.4 488.8,11.3 488.4,11.2 488.1,11.1 487.8,11.2 487.7,11.4
			487.6,11.7 487.7,12 487.9,12.1 488,12.2 487.9,12.4 487.8,12.6 487.5,12.7 487.2,12.6 486.9,12.5 486.7,12.6 486.5,12.9
			486.4,13.5 487.1,14.7 487.2,15.3 487.1,15.7 486.1,16.7 485.7,17.5 485.5,17.6 485.3,17.7 485.2,17.8 485.1,18.8 484.9,19.1
			484,19.8 482.7,21 482.3,21.1 482.1,21.4 481.7,21.9 481.3,22.4 480.7,22.7 479.6,22.4 479.4,21.4 479.8,20.2 480.3,19.2
			481.2,17.9 481.5,17.2 481.7,16.1 481.5,15.5 481.1,15.2 480.6,15.1 480.3,14.8 480.3,14.6 480.5,13.8 480.6,13.6 480.9,13.7
			481.5,14 481.1,12 480.9,11.7 480,11.1 478.3,11.1 478.1,11.4 477.9,11.5 477.7,11.6 477.7,11.9 477.6,12.5 477.4,13.6 477.1,14
			476.4,14.4 476.3,14.9 476.3,16 476.2,16.2 475.8,16.7 475.7,16.9 475.7,17.2 475.7,18.2 475.7,18.9 475.5,19.4 475.2,19.8
			474.8,20.2 473.1,22.5 472.6,22.9 472.2,23 472,23.4 471.9,24 471.9,24.5 471.7,25.1 471.3,25.4 470.8,25.6 470.3,26 469.8,26.4
			467.4,28.3 467.1,28.6 467,28.8 466.9,29 466.6,29.9 466.6,30.1 466.6,30.2 466.3,30.3 465.8,30.3 465.6,30.3 465.4,30.4
			465,30.9 464.2,31.3 464.2,31.3 465.1,31.3 465.5,31.1 465.8,31.2 465.8,31.3 506,31.3 		"/>
		<polygon fill="#FFFFFF" points="515.5,31.1 515.8,30.8 515.6,30.8 515.4,31 		"/>
		<polygon fill="#FFFFFF" points="525.8,11.3 526,11.5 526.9,11.5 527.7,11.8 528.1,11.8 528.4,11.5 528.2,11.1 525.7,11.1 		"/>
		<polygon fill="#FFFFFF" points="497.7,19.7 497.3,19.8 495.8,19.8 495.5,19.9 495.3,20.1 495.2,20.4 495.3,20.6 495.6,20.8
			496.3,21 497.1,21.2 498,21.1 498.7,20.9 499.8,20.1 499.9,19.2 499.4,18.4 498.7,17.5 498.3,17.8 497.1,17.9 496.8,18.3
			496.9,18.6 497.9,18.7 498.2,18.9 498,19.4 		"/>
		<polygon fill="#010066" points="25,87.9 25.2,88.1 25.1,88.4 25.1,88.6 25.2,88.7 25.3,88.8 25.7,89.3 26,89.4 26.2,89.4
			26.1,88.9 26.1,88.8 26,88.2 25.8,87.8 25.7,87.8 25.5,87.8 25.4,87.7 25.3,87.5 25.2,87.4 25.1,87.3 24.9,87.4 25.1,87.7 		"/>
		<polygon fill="#010066" points="2.7,31.8 2.9,31.7 3.2,31.6 3.7,31.5 4.2,31.3 4.7,30.4 5.1,30.2 5.5,30.4 6.1,30.7 6.5,30.8
			6.7,30.4 6.8,30.2 7.1,30 7.4,29.8 7.6,29.7 7.7,29.5 7.8,29.3 7.7,29.2 7.7,28.9 7.6,28.4 7.5,28 7.3,27.8 6.9,27.6 7.1,27.5
			6.5,27.2 6.2,26.9 6,26.5 5.8,25.9 5.6,25.6 5.6,25.5 5.3,25.8 5.3,26 5.4,26.2 5.4,26.5 5.2,26.6 4.4,26.9 4.4,27 4.4,27.1
			4.4,27.2 4.2,27.3 4,27.3 3.6,27.3 2.5,27.6 2.2,26.9 1.5,27 0.7,27.2 0,26.9 0,27.9 0.1,28.4 0.4,28.8 0.8,29.1 1.7,29.4
			2.1,29.8 2.2,30.1 2.3,31.1 2.5,31.5 		"/>
		<polygon fill="#010066" points="87.4,41.1 87.1,41.1 87,41.3 86.7,41.3 86.6,41.5 86.5,41.8 86.7,42.1 86.9,41.8 87.3,42 87.4,42
			87.5,41.8 87.5,41.5 87.5,41.4 		"/>
		<polygon fill="#010066" points="94.3,45.8 94.5,45.7 94.8,45.5 94.9,45.3 95,44.9 94.9,44.8 94.8,44.7 94.6,44.8 94.4,44.7
			94.3,44.3 94,44 93.8,44.2 93.7,44.9 93.9,45.7 		"/>
		<path fill="#010066" d="M106,111.5l1.4-2.9l-1,0.2l0.4-0.8l-0.7-0.9l-1-0.9l-0.5-0.7l-0.1-0.4l-1.1-2.4l-0.2-0.5v-0.6l0.1-0.4
			l0.2-0.5l0.3-0.4h0.5l0.1-0.5v-1l0.1-0.9l0.3-1.2l0.5-0.8l0.6,0.4l0.1-0.7l-1-2.6l-0.2-0.9v-0.2c-28.1-1.4-51.1-21.7-56.6-48.5
			l-0.4,0.3l-1.1,0.5l-1.1,0.2l-0.9,0.4l-0.3,1.3l-0.1,0.6l-0.2,0.6l-0.4,0.5l-0.4,0.4L42.1,49l-0.8,0.2L40.8,49l-0.3-0.7l-0.4-0.7
			L39.6,47L39,46.6l-0.3-0.1h-0.5l-0.3-0.1l-0.2-0.2l-0.3-0.7L37,45.1l-0.1-0.3l0.1-0.3l0.2-0.3l1.1-2.3l0.5-0.3l0.6-0.1l0.5-0.2
			l0.2-0.5v-0.5l0.2-0.9v-1.6l0.1-1.1L40.3,36l-0.5-0.4l-0.4-0.4v-0.6l0.4-0.5l0.4-0.2l0.3-0.2l0.1-0.7l-0.1-0.6L40.2,32l-0.4-0.1
			l-1.3,0.3L38.1,32l-0.9-0.7l-0.5,0.1L36,32.2l-0.5,0.1L34.2,32h-0.4l-0.3,0.1l-0.2,0.2h-0.1L33,31.9l-0.1-0.2v-0.8l0.1-0.2
			l0.1-0.3l0.1-0.3l-0.1-0.2l-0.3-0.6L32.6,29l-0.1-0.3l-0.1-1.3l-0.3-0.5l-0.6-0.4h-0.3h-0.3h-0.3l-0.2-0.2l-0.1-0.2v-0.6v-0.2
			h-0.5L28,26.6l-0.5,0.1L27,26.6l-1-0.4l-1.7-0.5l-0.5-0.2L23,24.6l-0.4-0.1l-0.7,0.1h-0.5l-0.6-0.2l-1.1-0.5l-0.5-0.5l-0.3-0.5
			l-1-3.1l-0.2-0.2l-0.3-0.1h-0.3h-0.3l-0.4,0.3v0.1H16l-0.2-0.1l-0.2-0.2l-0.3-0.2l-0.4,0.1l-0.2,0.2L14.6,20v0.6l-0.2,1.1v0.5
			l0.2,0.6l0.1,0.4l-0.2,0.2l-0.2,0.2L14,23.8v0.3l0.1,0.5v0.2L14,25.5l-0.2,0.6l-0.2,0.4l0.1,0.5l0.2,1.2l0.4,1.3l0.6,1.2l0.7,0.9
			l0.9,0.6l0.4,0.4l0.3,1.1l1,1.8l0.5,1.3l0.3,0.6l0.4,0.5l0.2,0.5l0.7,5.6L20,47.3l0.1,0.1l0.3,0.1l0.2,0.2V48l-0.2,0.2h-0.3
			l-0.3-0.1L19.5,48l0.2,2.4l0.1,0.6l0.6,1.1l0.2,0.7l-0.2,2.4v0.6l0.1,0.4l0.6,0.8l0.7,1.3l0.1,0.4l0.1,0.4l-0.3,0.5V60l0.1,0.2
			l0.3,0.6l0.1,0.3L22,61.6l-0.4,0.9l-0.2,0.9l-0.3,0.3L20.8,64l-0.3,0.3l-0.1,0.1h-0.1h-0.1v0.2l0.2,0.6l0.2,0.4l0.4,1l0.2,0.6
			l0.7,0.8l0.2,0.4l0.1,0.4l0.2,0.4l0.3,0.4l0.2-0.2l0.3-0.2l0.3-0.1l0.3,0.1l0.3,0.3l0.2,0.1l0.1,0.1v0.4h-0.2l-0.3,0.2l-0.1,0.2
			l0.3,0.1h0.7l0.3-0.1l0.3-0.2l0.1,0.4l0.2,0.1H26l0.2,0.1v0.3L26,71.7v0.4l0.2,0.4h0.1l0.2-0.1h0.3l0.5,0.2l0.1,0.2l-0.2,0.4
			l0.4,0.2h0.2v0.2L27,73.7l-0.3,0.4l0.1,1.4l0.2,0.8h0.5l0.6-0.2l0.7,0.1l-0.3,0.2L28,76.6l-0.2,0.3l-0.2,0.4L27.2,77l-0.4,0.2
			l-0.3,0.5l-0.1,0.6l0.2,0.5l0.4,0.4l0.5,0.1l0.4-0.2L27.6,80l-0.5,1.8L27,82.6L26.9,83l-0.5,0.4l-0.1,0.4v0.5l-0.1,0.4l-0.3,0.7
			L25.8,86l0.1,0.2l0.3,0.1l0.3,0.3l0.1,0.4v0.4l0.1,0.3l0.4,0.1L27,88.2l0.1,0.8l0.3,0.9l0.3,0.6l0.6-0.4l0.6,0.1l0.6,0.4L30,91
			l1.5,1l0.3,0.4v0.7l-0.1,0.7l0.1,0.4l0.7,0.1l0.3-0.2l0.7-0.3l0.7-0.1l0.3,0.6L34,94.2l-0.6,0.1l-0.5,0.2l-0.4,0.6l-0.6,0.1
			l-1.9,0l-0.4,0.2l-0.1,0.5v1.4l0.1,0.5l0.2,0.4l0.3,0.4l0.4,0.2l0.7,0.3l0.7,0.2l0.3-0.1l0.1-0.1l0.3-0.1l0.6-0.1l0.3,0.1
			l-0.1,0.2L33,99.7l-0.3,0.7v0.5l0.3,0.3l1.3,0.2l0.5,0.3l0.7,0.9l0.4,0.8l0.2,0.2l0.3,0.2l0.7,0.3l2,1.4l0.5,0.6l0.2,0.6l0.3,1.2
			l0.6,0.8l0.2,0.6l0.2,0.3l0.9,0.9l1.3,1.7h62.8L106,111.5z"/>
		<polygon fill="#010066" points="14.9,59.1 15,59.3 15.1,59.4 15.2,59.5 15.3,59.4 15.3,59.4 15.4,59.3 16.5,59.3 18,59.6
			18.1,59.1 18.8,57.8 18.9,57.3 19,56.2 19.5,55.2 19.3,55 18.8,54.7 18.6,54.3 18.1,54 17.6,53.8 17,53.8 16.5,53.9 16.3,54.1
			16.2,54.2 16,54.4 15.8,54.5 15.6,54.4 15.5,54.1 15.3,54 15,54.1 15.1,54.3 15.1,54.5 15,54.7 15,55 15,55.1 15.1,55.3
			15.3,55.5 15.3,55.7 15.3,57.1 15.4,58.5 15.3,58.9 		"/>
		<path fill="#010066" d="M106.8,82.7v-0.2l-0.3-1.3l0.2-0.6l0.3-0.5v-0.6l-0.5-4.2l-0.3-1.2v-0.6l0.2-0.8v-0.3l-0.2-0.3l-0.5-0.6
			l-0.1-0.2l-0.2-0.5l-1.6-3l-2.8-4.6l-1-2.4l-2.9-4.5l-2.6-2.9L93,52.1l-0.5-0.3l-1.2-0.2L90.1,51l-5-4l-0.8-0.3L84,46.3v-1
			l-0.6-0.7l-0.6-0.5l-1.5-0.9l-0.8-0.7l-0.6-0.7l-3.4-6.6L75.4,34l-0.6-0.4l-3.2-1.2H71l-0.3,0.4l0.5-0.1l0.2,0.2l-0.1,0.3
			l-0.7,0.2l-0.3-0.2l-0.8-0.5C69.9,56.1,85.4,75.9,106.8,82.7z"/>
		<polygon fill="#010066" points="5,31.3 4.6,31.7 4.4,32.2 3.8,33.2 3.7,33.7 4.3,34.1 4.5,34.3 4.7,34.5 5,34.4 5.1,34.2
			5.2,33.9 5.3,33.6 5.4,33.4 5.3,33.1 5,32.6 5,32.2 5,32.1 5.3,31.7 5.4,31.5 5.6,31.3 5.4,31.2 		"/>
		<path fill="#FFCC00" d="M104.9,91.9v-0.3l0.2-0.4l0.6-0.8l0.2-0.2l0.2-0.1l0.2-0.1l0.2-0.3l-0.2-0.7v-0.2l0.1-0.2l0.4-0.5l0.2-0.2
			l0.2-0.3l0.4-1l0.1-0.3l-0.1-0.8l-0.9-2.6v-0.2c-21.4-6.8-37-26.6-37.5-50l-0.7-0.5l-0.7-0.5l-0.2,1.5l0.1,2.2l-0.3,0.9L66.8,37
			l-2.1,1.6L64,39.4l-0.4,1.2v1.2l-0.2,1.1l-0.9,0.8l-0.3,0.2l-0.1,0.2L62,44.3l-0.2,0.2L61,45.1l-0.1,0.2l-0.2,0.6l-0.3,0.4
			l-0.5,0.1l-0.6-0.3L59,45.6l-0.2-0.3L58.6,45l-0.4-0.1L57.9,45l-0.5,0.5l-0.3,0.1l-0.6-0.1L56.1,45l-0.5-1.3v-0.3l0.1-0.3v-0.2
			l-0.3-0.1l-0.3-0.1l-0.2-0.1l-0.2-0.2l-0.1-0.3l-0.4-0.6l-0.6-0.1l-0.7,0.1l-4,1.5l-0.6,0.4C53.8,70.2,76.9,90.5,104.9,91.9z"/>
	</g>
	<path fill="none" stroke="#999999" stroke-width="0.25" stroke-linecap="round" stroke-linejoin="round" d="M513.8,30.4L513.8,30.4
		L513.8,30.4L513.8,30.4L513.8,30.4L513.8,30.4z M515.8,30.8h-0.2l-0.2,0.2l0,0L515.8,30.8z M515.6,32.2L515.6,32.2L515.6,32.2
		L515.6,32.2L515.6,32.2z M525.8,11.3l0.3,0.2l0.9,0.1l0.7,0.2h0.4l0.3-0.2l-0.3-0.7v-0.3l0.5,0.2l0.2-0.2l-0.3-0.6l-0.2-0.2
		l-0.4-0.1l-0.4,0.1l-0.3,0.1l-0.3,0.1l-0.5-0.1l-0.4,0.2l-0.3,0.2l-0.1,0.2v0.3L525.8,11.3z M86.9,41.8l0.4,0.3h0.1l0.1-0.3
		l-0.1-0.2v-0.1l-0.1-0.3H87v0.1h-0.3l-0.1,0.2l-0.1,0.3l0.2,0.4L86.9,41.8z M119.4,131.7v-0.1l0,0l0.2,0.2l0.1-0.2v-0.4l-0.2-0.1
		l-0.2-0.1l-0.1,0.3L119.4,131.7L119.4,131.7z M131.3,134.2v-0.1l-0.2-0.1l-0.2-0.1l-0.3,0.1v0.3l0.2,0.2l0.2,0.3l0.3,0.2l0.3-0.3
		l-0.1-0.2L131.3,134.2z M136.6,137.6l-0.1-0.1l-0.4,0.1l-0.2,0.2l0.1,0.2v0.1l0.2,0.1l0.1,0.2l0.2,0.3l0.4-0.2l0.1-0.6l-0.3-0.2
		L136.6,137.6z M124.5,142.1l0.2,0.3l0.4,0.3l0.4,0.1l0.1-0.2l0.1-0.4l-0.3-0.3l-0.4-0.1h-0.1h-0.2h-0.2l-0.1,0.1L124.5,142.1
		L124.5,142.1z M105.5,169.4l0.1,0.6l0.1,0.1h0.1l0.2-0.2l0.1-0.3l-0.3-0.5L105.5,169.4z M515.2,34L515.2,34L515.2,34L515.2,34z
		 M515,34.7L515,34.7L515,34.7L515,34.7z M514.2,35.4L514.2,35.4L514.2,35.4L514.2,35.4L514.2,35.4z M513.9,35.8l0.2-0.1l0.2-0.1
		l-0.1-0.2l-0.3,0.2l-0.2,0.1L513.9,35.8z M545,54.6l0.3-0.1l0.4-0.2l0.2-0.1v-0.1l-0.5-0.2h-0.5l-0.5,0.3l0.3,0.3L545,54.6z
		 M535.2,77.4l-0.3-0.2l-0.1,0.1l-0.2-0.1l-0.1-0.1l-0.1,0.1l-0.2,0.1l-0.4,0.3l-0.1,0.5l0.3-0.3l0.3-0.3l0.1-0.1l0.3,0.2l0.3,0.1
		h0.3l-0.1-0.1V77.4z M516.6,34.3L516.6,34.3L516.6,34.3L516.6,34.3L516.6,34.3L516.6,34.3L516.6,34.3L516.6,34.3L516.6,34.3z
		 M504.3,40.3v0.2l0.3,0.1l0.2-0.4l0.3-0.1l0.3-0.3l0.1-0.1l0.2-0.2l0.1-0.2l-0.1-0.2l-0.2-0.2l0,0h-0.1l0,0l-0.1-0.2v-0.1l-0.1,0.1
		l-0.2,0.1h-0.2v0.1l0.2,0.2v0.1l-0.1,0.2l0.1,0.2v0.5L504.3,40.3z M512.7,44.9l0.2-0.1h-0.6H512l-0.2,0.1h-0.3h-0.3V45l0.5,0.1h0.5
		l0.2,0.5l0.3,0.5l0.9,0.1l0.1-0.2l0.3-0.2l0.1-0.4H514h-0.2l0,0v-0.1h-0.1h-0.2h-0.1v0.1l0.1,0.1l-0.1,0.1v-0.1v-0.1v-0.2v-0.1
		h-0.1l-0.1,0.1v0.1l-0.1,0.1v-0.1l0.1-0.2L513,45l-0.1,0.1l-0.1-0.1L512.7,44.9L512.7,44.9L512.7,44.9L512.7,44.9L512.7,44.9z
		 M94.3,45.8l0.3-0.1l0.3-0.2l0.1-0.2l0.1-0.4L95,44.8h-0.2l-0.2,0.1l-0.1-0.1l-0.1-0.4L94,44l-0.3,0.2L93.6,45l0.2,0.7L94.3,45.8z
		 M522.4,67.6L522.4,67.6l-0.2,0.1l-0.1,0.1L522,68l0.1,0.2l0.2,0.1h0.1h0.2l1.4-0.6l0.2-0.2l-0.1-0.1h-0.4h-0.1l-0.1-0.1h-0.1h-0.1
		l-0.2,0.1v-0.1v-0.1v-0.1h-0.3l-0.2,0.1l-0.1,0.1v0.1v0.1l0.2,0.2l-0.4,0.1L522.4,67.6L522.4,67.6L522.4,67.6z M26.1,88.8L26,88.2
		l-0.1-0.4l-0.2-0.1h-0.2l-0.1-0.1l-0.1-0.2l-0.1-0.1L25,87.2h-0.1l0.2,0.3L25,87.9l0.1,0.2L25,88.4v0.1l0.1,0.1l0.1,0.1l0.4,0.5
		l0.3,0.1l0.1-0.1L26.1,88.8L26.1,88.8z M44.6,124.1l-0.2,0.5l0.1,0.2v0.5l0.3,0.2l0.3-0.1l0.1-1.5l-0.2-0.1L44.6,124.1z M5,31.3
		l-0.4,0.3l-0.2,0.5l-0.6,1l-0.2,0.6l0.6,0.4l0.1,0.2l0.2,0.2L5,34.4l0.1-0.2l0.1-0.3l0.1-0.3v-0.2l-0.1-0.3L5,32.6v-0.4V32l0.2-0.3
		l0.1-0.3l0.2-0.1l-0.2-0.1L5,31.3z M530,77.2h0.4V77l-0.6-0.3l-0.8-0.3h-0.7l-0.4,0.5l-0.5-0.4l-0.2-0.5l-0.3-0.4l-0.5-0.1
		l-0.2,0.1l-0.2,0.2l-0.2,0.2l-0.3,0.1h-2.2v0.2l1.9,0.6l0.9,0.2l0.1,0.1l0.3,0.2l0.1,0.1h0.4l0.4,0.1l0.5,0.2l0.4,0.3l0.2,0.1
		l0.1-0.2l0.1-0.3l0.1-0.1l0.1,0.1l0.5,0.5v-0.4l0.1-0.3L530,77.2z M533.9,81.1l-1.4-0.2h-0.4H532h-0.3l-0.1,0.1l0.1,0.3l0.1,0.1
		l0.3,0.3l0.1,0.1v0.6v0.1l0.2,0.1h0.2l0.4-0.4h1l0.6-0.2l0.1-0.4l-0.3-0.4L533.9,81.1z M495.6,20.8l0.7,0.2l0.9,0.1h0.9l0.7-0.2
		l1.1-0.8l0.1-0.9l-0.5-0.9l-0.7-0.9l-0.5,0.3l-1.1,0.2l-0.3,0.3l0.1,0.4l1,0.1l0.2,0.2l-0.1,0.5l-0.3,0.3l-0.4,0.1l-1.4,0.1
		l-0.3,0.1l-0.3,0.2l-0.1,0.2l0.1,0.2L495.6,20.8z M482.2,5.6h0.4l0.3-0.1l0.1-0.3L482.8,5l-0.2-0.1l-0.1-0.3l2.7-0.7l-0.3-0.5
		l0.1-0.5l0.4-0.2l0.5,0.5l0.3-0.4l0.1-0.7l-0.2-0.7L485.7,1l-1.1,1.3l-0.4,0.2l-0.9,0.2l-0.4,0.2l-1.4,2.5l0.3,0.1L482.2,5.6z
		 M435.4,59h0.2l0.6,0.3h0.3l0.5-0.5v-0.7l-0.3-1.4l-0.2-0.6l-0.4,0.2l-0.8,0.7l-0.2,0.3l-0.8,2.2v0.4l0.7-0.4L435.4,59z
		 M509.4,89.4H509l-0.3-0.1l-0.2-0.1l-0.3-0.3l-0.4-0.6l-0.3-0.3l-0.3-0.1l-0.5-0.1l-1-0.3h-0.5l-0.4,0.1l-0.6,0.3l-0.5,0.3
		l-0.2,0.4l0.1,0.3l1.5,1.3l5.7-0.1l-0.1-0.3L509.4,89.4z M326.6,137l-0.2,1.2l0.1,0.6l0.5,0.2l0.3,0.2l0.5,1.1l0.3,0.4l0.1-0.3
		l0.2-0.2l0.3-0.1l0.3,0.1l0.3,0.2l0.1-0.2v-0.3v-0.1l-0.6-1.6l-0.2-2.1v-4.9l-0.3-1.2l-0.6-0.9l-1-0.4l-0.4,0.9l-0.1,1.4l0.5,4.6
		L326.6,137z M518.4,43.9l0.3,0.1h0.2h0.2l0.5-0.2h0.2l0.3-0.1l0.1-0.3l-0.1-0.3l-0.4-0.1H519l-0.3,0.1l-0.3,0.2l-0.2,0.3v0.2
		L518.4,43.9z M45.5,121.6l-0.2-0.3l-0.5,0.2l-0.2,0.4l0.2,0.2l0.4-0.1l0.2-0.1L45.5,121.6z M45.9,123.5l0.4-0.3l0.5-0.2l0.4-0.4
		l0.1-0.6v-0.4v-0.2V121l-0.4-0.2l-0.5,0.2l-0.4,0.6l-0.7,1.7v0.3v0.2l0.2-0.1l0.2-0.1L45.9,123.5z M7.7,28.9v-0.5L7.5,28l-0.2-0.2
		l-0.4-0.2l0.2-0.2l-0.6-0.3l-0.3-0.3L6,26.5l-0.2-0.6l-0.2-0.3v-0.1l-0.3,0.2v0.2l0.1,0.2l-0.1,0.3l-0.2,0.1l-0.8,0.3L4.4,27v0.1
		v0.1l-0.1,0.1H4.1H3.7l-1.2,0.4L2.2,27H1.5l-0.8,0.2L0,26.9v1l0.1,0.5l0.2,0.4l0.4,0.3l0.9,0.3L2,29.8l0.1,0.4l0.1,0.9l0.2,0.4
		l0.2,0.3h0.2l0.3-0.2l0.5-0.1L4,31.3l0.5-0.9l0.4-0.2l0.4,0.2l0.5,0.3l0.5,0.1l0.2-0.4l0.1-0.3L7.1,30l0.3-0.2l0.2-0.2l0.2-0.2
		v-0.1v-0.1L7.7,28.9z M18.8,54.7l-0.2-0.4L18.1,54l-0.5-0.2H17l-0.5,0.1L16.3,54l-0.1,0.2L16,54.4l-0.2,0.1l-0.3-0.1l-0.1-0.2
		L15.3,54L15,54.1l0.2,0.2v0.2L15,54.7V55l0.1,0.1l0.1,0.2l0.1,0.2l0.1,0.3l-0.1,1.3l0.1,1.5L15.3,59l-0.4,0.2v0.1l0.1,0.1l0.2,0.1
		h0.1v-0.1v-0.1h1.1l1.5,0.3l0.1-0.5l0.7-1.3l0.1-0.5l0.1-1.1l0.5-1L19.3,55L18.8,54.7z M487.6,8.1l0.3-0.2l0.2-0.3l0.1-0.3l0.2-0.3
		l0.3-0.2l0.8-0.3l0.2-0.2l0.3-0.2l1.6-0.3l0.5-0.2l0.5,0.2l0.4-0.5l0.3-0.8l0.3-2.2V1.6l-0.3-0.5L492.5,1l-2.1,0.4H490l-0.4,0.1
		L489.1,2l-0.7,0.7l-0.3,0.2L487.7,3l-0.2,0.1l-0.1,0.3v1.2l-0.1,0.2l-0.1,0.5l0.2,2.1L487.6,8.1z M125.5,129.8v0.2l0.2,0.3l0.5,0.6
		l0.4,0.2h0.6l0.5-0.2l0.3-0.3l0.1-0.3l-0.1-1.4l-0.3-1.2l-0.2-0.4l-0.4-0.5l-0.1-0.2v-0.3l-0.1-0.2l-0.1-0.1h-0.3l-0.3,0.2
		l-0.2,0.3l-0.1,0.3l0.1,0.5l0.1,0.4v0.4l-0.3,0.4l-0.2,0.1l-0.4,0.2l-0.1,0.2v0.2l0.1,0.5L125.5,129.8z M129.8,164.4l-0.6-1.5
		l-0.2-1.2l-0.2-0.4l0.1-0.3l-0.2-0.4l-0.3-0.4l-0.2-0.4v-0.9l-0.1-0.4l-0.5-0.7l-0.2-1.3l-0.8-1.4h-0.2l-0.3,0.3l-0.4-0.3l-0.3-0.6
		l-0.1-0.6l0.1-1.2v-0.5l-0.2-0.6l-0.2-0.3l-0.6-0.7l-0.2-0.3l-0.3-0.7l-0.5-0.7l-0.7-1.8l-1.3-1.6l-0.2-0.6l0.1-0.3l0.3-0.6
		l0.1-0.3l-0.1-0.3l-0.5-0.6l-0.2-0.3l-0.1-0.3v-0.6l-0.1-0.3l-0.2-0.2l-0.6-0.5l-0.2-0.2l-2.1-2.6l-0.2-0.5v-0.5l0.2-0.7l-0.7-1.6
		l-0.3-0.4l-1-0.8l-0.1-0.3l0.1-0.2v-0.2l-0.4-0.2l-0.7,0.3h-0.3l-0.3-0.1l-0.4-0.4l-0.2-0.1h-0.5l-0.4-0.1l-0.4-0.2l-3.3-3.3
		l-1.3-1.7l-0.9-2L106,124l0.6-6.8l-0.1-0.6l-0.2-0.6l-0.5-3.5l0.1-1.2l1.4-2.9l-1,0.2l0.4-0.8l-0.7-0.9l-1-0.9l-0.5-0.7l-0.1-0.4
		l-1.1-2.4l-0.2-0.5v-0.6l0.1-0.4l0.2-0.5l0.3-0.4h0.5l0.1-0.5v-1l0.1-0.9l0.3-1.2l0.5-0.8l0.6,0.4l0.1-0.7l-1-2.6l-0.2-0.9v-0.5
		l0.2-0.4l0.6-0.8l0.2-0.2l0.2-0.1l0.2-0.1l0.2-0.3l-0.2-0.7v-0.2l0.1-0.2l0.4-0.5l0.2-0.2l0.2-0.3l0.4-1l0.1-0.3l-0.1-0.8l-0.9-2.6
		l0.1-0.4l-0.3-1.3l0.2-0.6l0.3-0.5v-0.6l-0.5-4.2l-0.3-1.2v-0.6l0.2-0.8v-0.3l-0.2-0.3l-0.5-0.6l-0.1-0.2l-0.2-0.5l-1.6-3l-2.8-4.6
		l-1-2.4l-2.9-4.5l-2.6-2.9l-1.5-1.3l-0.5-0.3l-1.2-0.2l-1.2-0.6l-5-4l-0.8-0.3l-0.3-0.4l0.2-0.8l-0.6-0.7l-0.6-0.5l-1.5-0.9
		l-0.8-0.7l-0.6-0.7l-3.4-6.6L75.4,34l-0.6-0.4l-3.2-1.2H71l-0.3,0.4l0.5-0.1l0.2,0.2l-0.1,0.3l-0.7,0.2l-0.3-0.2l-1.5-1l-0.7-0.5
		l-0.2,1.5l0.1,2.2l-0.3,0.9L66.8,37l-2.1,1.6L64,39.4l-0.4,1.2v1.2l-0.2,1.1l-0.9,0.8l-0.3,0.2l-0.1,0.2L62,44.3l-0.2,0.2L61,45.1
		l-0.1,0.2l-0.2,0.6l-0.3,0.4l-0.5,0.1l-0.6-0.3L59,45.6l-0.2-0.3L58.6,45l-0.4-0.1L57.9,45l-0.5,0.5l-0.3,0.1l-0.6-0.1L56.1,45
		l-0.5-1.3v-0.3l0.1-0.3v-0.2l-0.3-0.1l-0.3-0.1l-0.2-0.1l-0.2-0.2l-0.1-0.3l-0.4-0.6l-0.6-0.1l-0.7,0.1l-4,1.5l-1,0.6l-1.1,0.5
		l-1.1,0.2l-0.9,0.4L44.5,46l-0.1,0.6l-0.2,0.6l-0.4,0.5l-0.4,0.4L42.1,49l-0.8,0.2L40.8,49l-0.3-0.7l-0.4-0.7L39.6,47L39,46.6
		l-0.3-0.1h-0.5l-0.3-0.1l-0.2-0.2l-0.3-0.7L37,45.1l-0.1-0.3l0.1-0.3l0.2-0.3l1.1-2.3l0.5-0.3l0.6-0.1l0.5-0.2l0.2-0.5v-0.5
		l0.2-0.9v-1.6l0.1-1.1L40.3,36l-0.5-0.4l-0.4-0.4v-0.6l0.4-0.5l0.4-0.2l0.3-0.2l0.1-0.7l-0.1-0.6L40.2,32l-0.4-0.1l-1.3,0.3
		L38.1,32l-0.9-0.7l-0.5,0.1L36,32.2l-0.5,0.1L34.2,32h-0.4l-0.3,0.1l-0.2,0.2h-0.1L33,31.9l-0.1-0.2v-0.8l0.1-0.2l0.1-0.3l0.1-0.3
		l-0.1-0.2l-0.3-0.6L32.6,29l-0.1-0.3l-0.1-1.3l-0.3-0.5l-0.6-0.4h-0.3h-0.3h-0.3l-0.2-0.2l-0.1-0.2v-0.6v-0.2h-0.5L28,26.6
		l-0.5,0.1L27,26.6l-1-0.4l-1.7-0.5l-0.5-0.2L23,24.6l-0.4-0.1l-0.7,0.1h-0.5l-0.6-0.2l-1.1-0.5l-0.5-0.5l-0.3-0.5l-1-3.1l-0.2-0.2
		l-0.3-0.1h-0.3h-0.3l-0.4,0.3v0.1H16l-0.2-0.1l-0.2-0.2l-0.3-0.2l-0.4,0.1l-0.2,0.2L14.6,20v0.6l-0.2,1.1v0.5l0.2,0.6l0.1,0.4
		l-0.2,0.2l-0.2,0.2L14,23.8v0.3l0.1,0.5v0.2L14,25.5l-0.2,0.6l-0.2,0.4l0.1,0.5l0.2,1.2l0.4,1.3l0.6,1.2l0.7,0.9l0.9,0.6l0.4,0.4
		l0.3,1.1l1,1.8l0.5,1.3l0.3,0.6l0.4,0.5l0.2,0.5l0.7,5.6L20,47.3l0.1,0.1l0.3,0.1l0.2,0.2V48l-0.2,0.2h-0.3l-0.3-0.1L19.5,48
		l0.2,2.4l0.1,0.6l0.6,1.1l0.2,0.7l-0.2,2.4v0.6l0.1,0.4l0.6,0.8l0.7,1.3l0.1,0.4l0.1,0.4l-0.3,0.5V60l0.1,0.2l0.3,0.6l0.1,0.3
		L22,61.6l-0.4,0.9l-0.2,0.9l-0.3,0.3L20.8,64l-0.3,0.3l-0.1,0.1h-0.1h-0.1v0.2l0.2,0.6l0.2,0.4l0.4,1l0.2,0.6l0.7,0.8l0.2,0.4
		l0.1,0.4l0.2,0.4l0.3,0.4l0.2-0.2l0.3-0.2l0.3-0.1l0.3,0.1l0.3,0.3l0.2,0.1l0.1,0.1v0.4h-0.2l-0.3,0.2l-0.1,0.2l0.3,0.1h0.7
		l0.3-0.1l0.3-0.2l0.1,0.4l0.2,0.1H26l0.2,0.1v0.3L26,71.7v0.4l0.2,0.4h0.1l0.2-0.1h0.3l0.5,0.2l0.1,0.2l-0.2,0.4l0.4,0.2h0.2v0.2
		L27,73.7l-0.3,0.4l0.1,1.4l0.2,0.8h0.5l0.6-0.2l0.7,0.1l-0.3,0.2L28,76.6l-0.2,0.3l-0.2,0.4L27.2,77l-0.4,0.2l-0.3,0.5l-0.1,0.6
		l0.2,0.5l0.4,0.4l0.5,0.1l0.4-0.2L27.6,80l-0.5,1.8L27,82.6L26.9,83l-0.5,0.4l-0.1,0.4v0.5l-0.1,0.4l-0.3,0.7L25.8,86l0.1,0.2
		l0.3,0.1l0.3,0.3l0.1,0.4v0.4l0.1,0.3l0.4,0.1L27,88.2l0.1,0.8l0.3,0.9l0.3,0.6l0.6-0.4l0.6,0.1l0.6,0.4L30,91l1.5,1l0.3,0.4v0.7
		l-0.1,0.7l0.1,0.4l0.7,0.1l0.3-0.2l0.7-0.3l0.7-0.1l0.3,0.6L34,94.2l-0.6,0.1l-0.5,0.2l-0.4,0.6l-0.6,0.1l-1.9,0l-0.4,0.2l-0.1,0.5
		v1.4l0.1,0.5l0.2,0.4l0.3,0.4l0.4,0.2l0.7,0.3l0.7,0.2l0.3-0.1l0.1-0.1l0.3-0.1l0.6-0.1l0.3,0.1l-0.1,0.2L33,99.7l-0.3,0.7v0.5
		l0.3,0.3l1.3,0.2l0.5,0.3l0.7,0.9l0.4,0.8l0.2,0.2l0.3,0.2l0.7,0.3l2,1.4l0.5,0.6l0.2,0.6l0.3,1.2l0.6,0.8l0.2,0.6l0.2,0.3l0.9,0.9
		l1.3,1.8l0.2,0.5l0.1,0.1l0.2,0.2l0.3,0.1l0.6,0.1l0.2,0.2l0.1,0.3l0.1,0.2l1,0.8l0.4,0.5l0.2,0.6l0.6,3.6l0.2,0.4l0.8,0.6l0.2,0.4
		l0.2,1.3v0.7l-0.3,0.3l-0.4,0.2l-0.4,0.4l-1.4,1.7l-0.1,0.4l0.6,0.1l-0.5,1.3l0.7,0.5l1.3,0.1l1.2,0.3l0.9,0.7l1.4,2.1l0.6,0.8
		l1.1,0.8l0.6,0.3l0.9,0.2l0.6,0.3l1.5,0.3l0.5,0.3l0.3,0.3l0.4,0.2l1.3,0.1l0.4,0.2l0.2,0.3l0.6,1.6l0.4,0.4l0.3,0.2l0.2,0.1
		l0.5,0.3l0.1,0.8l0.1,0.9l0.2,0.7l0.3-0.4l0.9-0.1l0.5-0.3l0.8,0.5l0.4,0.2l0.5,0.1v0.5l0.3,0.4l0.6,0.3l0.6,0.1l0.3,0.1l2.1,2.3
		l0.8,0.6l0.9,0.5l4.5,1.9l3.9,1.6L81,149l0.5,0.4l0.4,0.4v0.1L82,150v0.1h-0.2l0.2,0.4l0.3,0.3l2.3,1.8l0.5,0.5l0.5,1.2l0.4,0.5
		l0.6,0.3h0.5l1.4-0.2l0.4-0.2l0.9,0.4l0.8,0.5l0.7,0.6l0.5,0.6l0.5,0.7l0.3,0.3l0.5,0.1l0.6,0.1l0.6,0.2l1.1,0.5l4.7,2.9l3.3,1.3
		l1.2,0.8l0.8,0.9l0.5,1.1l0.9,3l0.2,0.6l0.4,0.5l1,0.8l0.3,0.5l0.4-1l0.5-0.7l0.1-0.3v-0.2l-0.1-0.4v-0.3l0.1-0.1l0.2,0.2l0.2,0.3
		l0.1,0.1l1,0.2l0.8-0.7l1.4-1.8l0.5-0.2h0.4l1.1,0.1l0.6-0.1l1.1-0.6l0.7-0.1l2.4,1.3l1.3,0.3l1-0.8l0.1-0.4l-0.1-0.4L122,165
		l-0.1-0.4l0.1-0.8v-0.4l-1.1-1.7l-0.3-0.8l0.2-0.3l0.6,0.4l0.7,1l0.9,1.8l0.2,0.5l0.1,0.2l0.2-0.1l0.9-0.7l0.5-0.3l0.5-0.1l0.5,0.1
		l-0.7,0.8l-1,0.4l-0.8,0.5l0.2,1l0.3,0.3l0.4,0.3l0.3,0.3l0.1,0.4v0.5v0.3l0.2,0.2l1.1,0.4l0.6,0.1l1.3,0.1l0.1-0.1l0.3-0.4
		l0.1-0.1h1.1l0.1-0.4l-0.1-1.2l0.2-0.3l0.2-0.3v-0.7L129.8,164.4z M549.3,57.9l0.1-0.6l-0.1-0.5l-0.3-0.4l-0.6-0.6l-0.7-0.9
		l-0.4-0.4l-0.4-0.2l-0.7,0.1l-2.2,1h-0.8l-1.3-0.7h-0.7l-0.4,0.2l0.1,0.2l0.2,0.3l-0.1,0.4l-0.3,0.2h-0.5l-0.4-0.2l-0.3-0.3
		l0.5-0.3l-0.1-0.6l-0.5-0.6l-0.6-0.3l-0.5-0.2l-1.3-1v0.3V53l-0.1,0.1l-0.2,0.2l-0.2-0.7l-0.4-0.5l-0.5-0.4l-0.7-0.1l-0.5-0.2
		l-0.5-0.5l-1.3-1.6l-0.5-0.4h-0.6l-0.7,0.5l-0.1,0.3v0.7l-0.1,0.3l-0.2,0.2l-0.2,0.3l-0.3,0.7h-0.2l-0.2-0.6l0.1-0.6l0.2-0.6
		l0.3-1.6l0.1-0.1l0.2-0.1l0.2-0.2l0.1-0.3l-0.2-0.4l-0.4-0.3l-0.5-0.2l-0.4-0.2l-1-0.8l-2.9-1.7l-0.6-0.1l-0.2-0.1l-0.3-0.2
		l-0.3-0.1l-0.2,0.1l-0.3,0.3l-0.1,0.1h-0.1l-1.5-0.8l-0.6-0.1l-1.2,0.5l-1.3,0.1l-0.4,0.3v0.3l0.2,0.5l-0.1,0.2L518,46l-0.1,0.2
		l-0.2,0.5l0.1,0.3v0.3l-0.2,0.3l-0.3,0.1l-0.2-0.1l-0.3-0.4l-0.3-0.1l-0.3,0.1l-0.3,0.1h-0.2l-0.3-0.1l-0.2-0.2H515l-0.5,0.1
		l-1.1,0.5l-0.4,0.1l-0.3,0.1l-0.2,0.1h-0.1l-0.2-0.2l-0.8-2.2l-0.1-0.2L511,45l0.1-0.3l0.3-0.3l0.5-0.2l1.7,0.2l0.5-0.2l0.5,0.2
		h0.7l0.6-0.2l0.4-0.2l0.8-1.1v-0.2l-0.2-0.1l-1.2-1.6l-0.1-0.6v-0.6l-0.1-0.3l-0.5-0.3v-0.3v-0.3l-0.1-0.3l-1-1l-0.4-0.1l-0.2,0.1
		l-0.1,0.1l-0.5,0.3l-0.9,1.2l-0.8,0.5l-0.4,0.4l-0.2,0.4l-0.3,0.2l-1.3,0.3h-0.5l-0.4-0.1l-0.3-0.1h-0.3l-0.3,0.2l0.2,0.7l-0.2,0.3
		l-0.5,0.1l-1.4-0.2l-1.9,0.2h-2l-0.7,0.2l-1.6,0.7l-0.5,0.1l0.7-0.7l3.5-1.2l1-0.6l0.4-0.4l0.2-0.5l-0.2-0.7l-0.4-0.2l-0.4-0.1
		l-0.2-0.5l0.1-0.3l0.2-0.1l0.3-0.1l0.2-0.2l0.1-0.3v-0.2l-0.1-0.2v-0.3l-0.1-0.2l-0.4-0.2l-0.5-1.1l-0.6-0.7l-0.2-0.4l0.3-0.5
		l0.8-0.7l0.5-0.3l0.5-0.2l0.9,0.2h0.4l0.2-0.4l0.3-1.9l-0.3-0.7l0.1-0.3l0.2-0.3l0.1-0.3l-0.1-0.2l-0.3-0.5l-0.1-0.3v-0.3v-0.3
		v-0.2l-0.1-0.2l-0.2-0.1H505l-0.1,0.1l-0.1,0.2h-0.2l-0.3-0.6l-0.3-0.4l-0.7-0.8l-0.3-0.1l-0.3,0.1l-0.4,0.2l-0.4-0.1l-0.3-0.1
		l-0.4-0.4h-0.1l-0.4-0.1l-0.1-0.1v-0.1v-0.2l0.1-0.1h0.1l-0.6-0.6h-0.1v-0.8l-0.1-0.4h-0.2l-0.4,0.5l-0.7,1.1l-0.3,0.3l-0.5,0.1
		l-0.5-0.2l-0.5-0.4l-0.7-0.6l-0.6-0.7l-0.4-0.3l-0.4-0.1h-1.1l-0.4-0.2l-0.3-0.6l-0.1-0.5l-0.1-1.7l-0.2-0.5l-1-1.3l-0.2-0.5
		l-0.1-0.6l0.1-0.5l0.4-0.2l0.1-0.3l0.2-1.3v-0.5l-0.1-0.2l-0.2-0.1l-1.5-0.9l-0.1-0.1l-0.2-0.1l0-0.4l-0.2-0.1h-0.2l-0.4,0.4
		l-0.2,0.1h-0.2l-0.3-0.1l-0.3-0.1l-0.3,0.1l-0.1,0.2l-0.1,0.3l0.1,0.3l0.2,0.1l0.1,0.1l-0.1,0.2l-0.2,0.2l-0.2,0.1l-0.3-0.1
		l-0.3-0.1h-0.2l-0.2,0.3v0.6l0.6,1.2l0.2,0.6l-0.2,0.4l-1,1l-0.4,0.8l-0.2,0.2l-0.2,0.1l-0.1,0.1l-0.1,1l-0.2,0.3l-0.9,0.7
		l-1.2,1.2l-0.4,0.2l-0.3,0.2l-0.3,0.5l-0.4,0.5l-0.6,0.3l-1.1-0.3l-0.2-1l0.4-1.2l0.5-1l0.9-1.3l0.3-0.7l0.1-1.1l-0.2-0.6l-0.4-0.2
		l-0.4-0.2l-0.3-0.3v-0.2l0.2-0.9l0.1-0.1l0.3,0.1l0.5,0.3l-0.4-2l-0.2-0.3l-1.1-0.7l-0.3-0.6l-0.1-0.1h-0.3l-0.3,0.2l-0.2,0.2
		l-0.2,0.3l-0.3,0.4l-0.1,0.1l-0.2,0.1l-0.1,0.2v0.6l-0.3,1.1l-0.2,0.4l-0.8,0.4l-0.1,0.5V16l-0.1,0.3l-0.3,0.5l-0.1,0.2v0.3v0.9
		l-0.1,0.7l-0.2,0.5l-0.3,0.4l-0.4,0.4l-1.7,2.3l-0.5,0.4l-0.4,0.2l-0.2,0.4L472,24v0.5l-0.2,0.6l-0.4,0.3l-0.5,0.2l-0.5,0.4
		l-0.4,0.4l-2.5,1.9l-0.3,0.3l-0.1,0.2L467,29l-0.2,0.9v0.2l-0.1,0.1l-0.3,0.2h-0.6h-0.2l-0.1,0.1l-0.4,0.5l-0.8,0.4v0.2l0.7-0.1
		l0.5-0.3l0.3,0.1l0.1,0.9l-0.2,0.3l-0.3-0.1l-0.4-0.2l-0.3-0.1l-0.5,0.1l-0.4,0.2l-0.6,0.5l-1.3,2l-0.5,0.3l-0.9,0.3l-0.3,0.5
		l0.2,0.4l0.6-0.2l0.4,0.8l-0.4,1.2l-1.7,2.8l-0.2,0.5l-0.1,1.3l-0.2,0.6l-0.4,0.5l-2.5,1.4l-0.4,0.3l-0.3,0.5l-0.2,0.5l-0.2,1.2
		l-0.3,1.1l-0.6,1.2l-0.7,1.1l-0.9,0.7l-0.7,0.2h-0.8l-2.5-0.2l-0.6-0.3l-1-0.8l-0.1,0.3l-0.1,0.8l-0.1,0.3l-0.6-0.8l1-1.8l-0.4-0.6
		l-0.6,0.5l-1,2.1l-2,1.4l-0.3,0.4l-0.3,0.6l-1.5,0.9l-0.3,0.3l-0.1,0.2l-0.2,0.3l-0.2,0.4l-0.2,0.9l-0.2,0.4l-0.1,0.4l0.2,0.3
		l0.5-0.5l0.1-0.1l0.3,0.1v0.2l-0.1,0.2l0.1,0.3l2.5,2.2l1,0.4h1l1.1-0.5l0.2,0.4l-0.1,0.2l-0.2,0.2l-0.2,0.2l-0.3,0.6l-0.1,0.3v1
		l-0.2,1.1l-0.2,0.4l-0.3,0.3l-0.4,0.3l-0.5,0.2l-0.6,0.1l-0.4,0.2l-0.9,1.1l-1.1,1l-0.1,0.2l-0.9,0.9l-0.3,0.2l-0.5,0.1h-0.6
		l-0.5-0.2l-0.3-0.6l-0.2-0.2l-0.3-0.1h-0.3h-0.6l-0.1-0.1L436,68l-0.3-0.4h-0.4l-0.3,0.3l-0.3,0.9l-0.3,0.2l-0.4,0.1h-0.5v0.6
		l0.3,0.3l0.4,0.2l0.4,0.2l0.7,1l1.8,5.3l0.1,0.7v0.5L437,79v1.1l0.2,1.2l0.4,1.1l0.6,0.9l1,0.9l0.4,0.6l0.1,0.6l-0.4,0.4h-0.6
		l-0.6-0.3l-0.5-0.3l-0.2-0.1h-0.5l-0.3-0.1l-0.4-0.4l-0.2-0.1l-0.8,0.1l-0.6-0.1l-1.6-0.6l-0.4-0.2l-0.2-0.4l-0.3-2.8l-0.3-1.1
		l-0.9-2.2l-0.2-1.1l-0.1-2.3l0.2-2.2l-0.2-1v-1.1l-0.2-0.6l-0.2,0.3l-0.2,0.2l-0.3,0.2l-0.3,0.1l-0.6,0.6l-0.1,0.4v0.5l-0.2,0.4
		l-0.4,0.3h-0.5l-0.5-0.1h-0.5L426,72l-0.5,0.3l-0.9,0.9l-0.5,0.3l-1,0.4l-0.3,0.3v0.5l0.2,0.5l0.5,1l0.2,0.6l0.1,0.6l0.1,3.3l0.2,1
		l0.5,0.8l0.5,0.2l0.4-0.1l0.2,0.1l-0.1,0.8l-0.3,1.1l-0.2,0.5l-0.3,0.5l-0.9,0.8l-0.2,0.3v0.6l0.9-0.4l0.1,0.5l-0.2,0.5l-0.6,1
		l-0.2,0.5l-0.2,1.2l-0.2,0.4l-2.6,2.5l-1.3,0.8l-1.2-0.1l-0.1-0.2l-0.2-0.7l-0.1-0.3l-0.2-0.2l-0.6-0.4l-1.8-1.6l-0.4-0.5l-0.3-0.5
		l-0.6-1.8l-0.4-0.4H413l-1.1,0.2l-1.2-0.2l-1-0.1l-0.1-0.3l-0.1-0.4l0.1-0.2l0.4-0.3l0-0.3l-0.2-1.2l-0.4-0.6v-0.8l-0.2-0.8
		l-0.2-0.3l-0.3-0.3l-0.1-0.2v-0.2l-0.1-0.2l-0.2-0.1h-0.4l-0.2-0.1l-0.2-0.6l-0.3-0.2l-0.7-0.3l-0.9-0.7l-0.6-0.3l-1.5-0.2
		l-1.8-0.9l-0.6,0.2l-0.2,0.5l0.6,2.6v1.3l-0.3,1.2l-0.6,0.9l0.2,1.1l-0.6,1.4l-5.9,7.6l-6.8,5.8l-1.2,0.7l-0.5,0.4l-0.2,0.5
		l-0.1,0.7l-0.2,0.6l-0.7,1.1l-1.3,1.5l-0.2,0.3l-0.2,0.2l-0.7,0.5l-0.1,0.3v0.6l-0.1,0.2l-0.1,0.2l-0.5,0.8l-2.2,1.9l-0.9,1.5
		l-0.1,0.3l-0.3,0.2l-1.3,1.2l-0.7,0.5l-0.2,0.2l0.4,0.6l-0.6,1.1l-1.5,1.6l-0.9,0.5l-4.9,1.5h-0.3l-1.7,0.7l-4.3,0.9l-7.7,2l-8,2.1
		l-4.3,0.1l-5.3,1l-0.9,0.4l-3,1.9l-2,1.5l-0.3,0.3l-0.2,0.4l-0.1,1.1l-0.5,1.7v0.7l0.2,0.4l0.3,0.3l0.4,0.3l0.5,0.3l1.1,0.3
		l0.6,0.2l-0.2,0.1l0,0l0,0l-0.2-0.1l-0.6,0.5H331l-0.8-0.2h-0.9l0.2,0.4l0.3,1.2l0.2,0.3l0.9,0.8l0.6,0.6l0.2,0.5l-0.6-0.3
		l-0.5-0.4h-0.2l-0.9,0.1l-0.3,0.1l-0.9,0.6l-0.2,0.1l-0.2-0.1l-0.2-0.2l-0.2-0.1l-0.2-0.2l-0.7-0.9l-0.3-0.3l-0.9-0.3l-0.4-0.2
		l-0.2-0.5l-0.7,0.6l-0.4,0.8l-0.3,2l-0.3,1.3v0.5l0.2,0.2l0.5,0.1l0.5,0.2l0.3,0.5l-0.6-0.1l-0.6,0.3l-0.4,0.5l-0.2,0.4v0.6
		l0.1,0.3l0.4,0.1l2-0.3l0.6,0.1l0.8,0.5l0.3,0.1l0.3-0.1l0.2-0.7l0.3-0.3l0.3-0.1l0.3,0.2l-0.1,0.2l-0.5,0.7l-0.2,0.2l-0.4,0.2H327
		l-1-0.2l-0.6-0.2h-0.5l-0.4,0.4v0.7l0.7,0.6l-0.7,0.1l-0.6-0.2h-0.3l-0.1,0.1l-0.1,0.6l-0.8,2.6l-0.9,1.8l-0.6,1l-0.2,0.5l-0.1,0.6
		l0.1,0.2l0.4,0.3v0.2l-0.2,0.2l-0.6,0.2l-0.1,0.2v0.4l0.1,0.4l0.6,1.1l0.1,0.1l0.2,0.1l0.5,0.1l0.1,0.1l0.1,0.1l0.3,0.5v0.3
		l0.1,0.1h0.2l0.6,0.1h0.2h0.2l0.5,0.4l0.3,0.1l0.6,0.2l-0.6,0.2l-0.5-0.2l-0.4-0.3l-0.4,0.1l-0.6,0.3l-0.5-0.4l-0.4-0.6l-0.4-0.5
		l-0.5-0.2h-0.6l-1.6,0.3l-0.3,0.4l-0.2,1l-0.4,1v0.2v0.8l0.1,0.3l0.5,0.5l0.5,1.3l0.5,0.4l1.2,0.5l0.5,0.4l0.4,0.4l0.5,0.3l0.5,0.2
		h0.6l1-0.5l0.3-0.1h0.4l0.8,0.3l0.4,0.1l0.2,0.2l0.3,0.8l0.1,0.2l0.4,0.1l0.8,0.3h0.5l-1.2,0.6l-1.1-0.5l-1-0.8l-0.9-0.4l-0.6,0.2
		l-0.9,0.5l-0.7,0.1l-0.3-0.1l-1.7-0.8l-1.1-0.7l-2.1-2.1l-1.2-0.8l-2.4-1l-1.3-0.2l-0.7,0.6v0.4l0.1,0.5v0.5l-0.3,0.5l-0.6,0.5
		l-0.5,0.3l-0.6,0.1h-0.7v-0.2l1.1-0.7l0.5-0.5l0.2-0.7l-0.4-0.7l-0.7-0.4l-1.6-0.5l-1.1-0.6L306,162h-0.3l-0.6,0.3l-0.3,0.1
		l-0.3-0.1l-0.1-0.2l-0.1-0.3l-0.3-0.3l-0.4-0.2h-0.4l-0.8,0.3l0.2-0.3l0.5-0.5l0.1-0.2V160l0.1-0.4l0.2-0.4l0.3-0.4l-0.4-0.5
		l-0.5,0.1l-0.5,0.3l-0.8,0.3l-0.3,0.5l-0.3,0.1h-0.6l-0.3-0.1l-0.2-0.1l-0.2-0.1l-0.2-0.1l-0.1-0.2l-0.1-0.2v-0.2v-0.4V158
		l-0.1-0.2l-0.3-0.3l-0.2-0.8l-0.4-0.1l-0.4,0.3l-0.3,0.6v0.3v0.9v0.1l0.1,0.3v0.2l-0.1,0.2l-0.3,0.3l-0.1,0.5l-0.2-0.1l-0.7-0.7
		l-0.2-0.1h-0.2l-0.3,0.1l-0.2,0.1L295,160l-0.1,0.1l-0.3-0.1l-0.6-0.4l-0.4-0.1H290l-0.6,0.1l-0.4,0.2l-0.3,0.1h-1.4l-0.4-0.1
		l-0.3-0.5l-0.5-1l-0.3-0.5l-0.5-0.4l-1.1-0.5l-1-0.7l-1.7-0.7l-0.6-0.4l-0.5-0.5l-0.8-1.2l-0.2-0.6v-0.4l0.1-0.4l0.1-0.5V151
		l-0.3-1.1l-0.1-0.6l-0.1-0.5l-0.5,1.5l-0.7,1.3l-0.4,0.6l-0.3,0.3l-1,0.9l-0.2,0.3v0.4l0.2,1v0.2v0.2l0.1,0.3l0.2,0.3l0.3,0.3
		l0.3,0.3l0.4,0.1h1.2l0.5,0.2l0.2,0.5l-0.2,2.2v1.3l0.1,0.5l0.3,0.6l0.5,0.7l2.5,2.1l0.2,0.3l0.1,0.8h0.2l0.5-0.3l0.2,0.2l0.5,1.2
		l0.5,0.4l0.6,0.1l0.6-0.1h0.5l0.5,0.3l0.3,0.5l0.5,1.6l0.3,0.6l0.4,0.3l1,0.5l0.5,0.5l0.6,1.1l0.6,0.5l0.5,0.2l1.6,0.2l0.5,0.3
		l0.4,0.6l0.6,1.2l1.4,2l0.1,0.7v0.6l0.3,0.1l0.4-0.1l0.4-0.1l1.4,0.3l0.4,0.1l0.5,0.4l1.2,1.6l1.1,0.8l1.3,0.6l1.3,0.2l1.2-0.5
		l0.3-0.3l0.1-0.2l0.1-0.1h0.3l0.2,0.1l0.2,0.2l0.2,0.2l0.4,0.1l0.4-0.1l0.5-0.5l0.3-0.2h0.1l0.3,0.1h0.1l0.6-0.2v-0.1l0.4-0.2h0.1
		l0.3,0.2h0.2l0.2-0.1l0.1-0.2v-0.5l0.3-0.4l1.6-1.3l0.8-0.4l0.8-0.1l1.8-0.1l6.3-1.6l0.6,0.1l3.8,1.7l0.6,0.2h0.6l0.5-0.1l1.1-0.3
		h0.5l0.3,0.3l0.2,0.4l0.1,0.5l0.3,0.6l0.3-0.2l0.7-0.9l2.3-0.9l0.4-0.1h0.5l0.8,0.2l1.5,0.6l0.8,0.2l1.7-0.4l2.4-3l1.8-0.6h2.3
		l0.7-0.1l0.4-0.2l0.2-0.3l1.5-4.2l0.9-1.8l0.1-0.3V168l-0.2-0.2h-0.6l-0.1-0.2l0.2-0.7l0.5-0.4l3.2-1.5l0.7-0.2l1.7-0.2l0.5-0.2
		l0.5-0.4l0.4-0.4l0.5-0.3l0.7-0.2l8.3,0.4l0.7,0.2h0.2l0.3-0.2l0.2-0.2l0.2-0.3l0.3-0.2l0.5-0.2l0.5,0.1l0.5,0.2l0.5,0.1h1.4
		l0.5,0.1l0.7,0.3l0.5,0.3l0.3,0.4v0.6l-0.2,0.6l-0.3,0.5l-0.4,0.5l-0.9,0.6l-0.2,0.3l0.1,0.2h0.4l1.1-0.4l1.1-0.2l1.1,0.1l1,0.5
		l0.9,0.7l0.4,0.1l1.3,0.1l1.6,0.3l1.3,0.5l2.1,1.6h1.3l1.1-0.5l0.6-0.2h0.6l0.6,0.3l1.4,1.7l0.8,0.4l0.7-0.2l4.4-3l1.7-2.1l0.6-0.5
		l0.5-0.2l4-0.6h1.1l1,0.3l0.3,0.2l0.3,0.3l0.3,0.3l0.4,0.1l0.3-0.1l0.6-0.4l4.2-1.8l0.5-0.1l0.7,0.1l0.6,0.3l2.2,1.6l0.6,0.2
		l0.7-0.2l0.4-0.4l0.2-0.5v-0.6l-0.1-0.6v-0.7l0.3-0.5l1-0.8l0.4-0.5l0.7-1.2l0.5-1.5l0.3-1.9v-0.9l-0.1-0.3l-0.1-0.2v-0.2l0.1-0.3
		l0.2-0.2l0.3-0.3l0.3-0.2l0.3-0.1l1.5-0.2l1.6-0.6l0.4-0.3v-0.5l-0.1-0.6V152l0.1-0.5l0.2-0.6l0.1-0.4v-0.4l-0.1-0.4l-0.3-0.2
		l-0.6,0.1l-0.5,0.2h-0.3l-0.3-0.6V149v-0.9l-0.1-0.3l-0.3-0.4l-0.1-0.2v-0.5l0.3-1.5l0.4-1.1l0.8-0.5l2.2-0.3l0.8-0.3l0.2-0.3
		l-0.1-0.4v-0.6l0.2-0.6l0.3-0.2l1.1,0.1l0.5-0.3l1.2-1l0.5-0.2l0.4-0.3l1.1-1.2l0.6-0.4l1.3-0.1l0.6-0.2l0.4-0.5l-0.1-0.5l-0.3-0.7
		l-0.4-0.6l-0.4-0.5l-0.3-0.2l-0.3-0.2l-0.4-0.1H433l-0.3,0.1l-0.6,0.3h-0.3l-0.4-0.4l0.1-0.6l0.2-0.6l0.1-0.6l-0.1-0.3l-0.3-0.6
		V131l0.2-0.3l0.3-0.1l0.3-0.1l0.3-0.2l0.3-0.7l-0.2-0.5l-0.7-0.9l-0.1-0.4l0.1-0.1l0.2-0.1l0.4-0.3l0.2-0.3l0.1-0.3l0.1-0.3
		l0.1-0.3l0.4-0.6l0.5-0.4l1.6-1.1l0.3-0.4l0.5-1l0.5-0.7l0.4,0.1l0.7,1.1l0.8,0.4l0.9-0.1l1.8-0.8l1.1-0.1l0.5-0.2l0.2-0.6l0.1-1.2
		l0.2-0.5l1-1.3l-0.1-0.2l-0.4-0.1l-0.4-0.5v-0.5l1-4.2l0.5-1.3l0.6-0.6h0.3l0.2,0.1l0.3,0.1l0.3-0.1l0.2-0.3v-0.3l-0.2-0.6
		l-0.5-0.8l-0.1-0.3v-0.3l0.1-0.6v-0.3l-0.7-1.7l-0.1-0.7v-1.1l0.2-1.1l1.1-3.3v-0.9l-0.4-0.4l-0.6-0.3l-0.4-0.4v-0.6l0.2-0.2l1-0.5
		l0.3-0.3l0.5-1.1l0.4-1.2l0.3-2.5l0.4-1.1l0.3-0.3l0.6-0.2l0.2-0.2l0.2-0.3l1.2-1.1l0.2,0.1l0.2,0.2l0.3,0.2l0.4-0.1l0.1-0.3
		l0.1-0.4l1.1-0.9l0.1-0.8v-0.9l0.3-0.9l0.4-0.4h0.3l0.2,0.2l0.1,0.4l0.3,0.4l0.6,0.1l1.2,0.1l0.7,0.2l0.3,0.2l0.2,0.2l0.1,0.5
		l0.2,0.4l0.3,0.3l0.5,0.2l0.4-0.2l1.3-1.3l0.5-0.3l0.3-0.2l0.2-0.3l0.2-0.6l0.3,0.2l0.3,0.1h0.6l1.3,0.3h0.4l0.8-0.2l0.8-0.4
		l0.7-0.1l0.8,0.7h0.2h0.2l0.2,0.1l0.1,0.1l0.1,0.4l0.7,1.2l0.3,0.1h0.3l0.3-0.1l0.7-0.7h0.3l0.3,0.1l0.5-0.1l0.2-0.2l-0.1-0.2
		l-0.1-0.2v-0.3l0.2-0.4l0.6-0.6l0.2-0.4h0.3l1.2,1.8h0.4l0.7-0.4l0.7,0.3h0.5l0.5-0.2l0.9-0.8l0.5,0.1l1,0.7l1.1,0.2l2.2-0.4h1.2
		l1.6,0.4l5.2-0.1l0.3-0.1L492,85l0.3-0.1l0.4,0.1l0.2,0.2l0.2,0.3l0.2,0.3l1,0.7l2.3,1.2l1.6,1.7l0.7,0.4l0.8,0.2l1,0.1h0.5L502,90
		l0.5,0.2l0.3,0.2l1.2-0.5h0.2h0.3l-0.2-0.2l-0.5-0.5l-0.1-0.1l0.1-0.2l0.2-0.2l0.1-0.2l0.2-0.2l0.6-0.4l0.2-0.3l0.1-0.3v-0.4
		l-0.4-0.4l-0.1-0.3V85l-0.1-0.3l-0.5-0.3l-0.1-0.2l0.2-0.3l0.6-0.5L504,83l0.4-0.1l0.4,0.5l0.3,0.5l0.3,0.5L506,85l0.3,0.1l0.7,0.1
		l0.9,0.3h0.4l0.1,0.1l0.2,0.5l0.1,0.1h0.2l0.2,0.1l0.4,0.2l1.1,1l0.3,0.1l0.5,0.1l1.7,0.5h0.6l3.7-1.9l0.7-0.2l2.3-0.2l2.5-0.7
		l0.2-0.1l0.4-0.5l0.4,0.3l0.6,0.1h1.2l0.5-0.1l0.9-0.3l0.5-0.1h1.1l0.4-0.1l0.4-0.3l0.3-0.3l0.3-0.4l0.1-0.4l-0.1-0.5l0.4,0.1
		l0.3,0.1h0.2l0.3-0.2l0.2-0.3V82l-1.1-1.2l-0.3-0.5l0.2-0.4l-0.3-0.1l-0.7-0.1L529,80l-0.8,0.6l-0.5,0.3l-0.2-0.2l-0.2-0.2
		l-0.3-0.3l-0.2-0.3l0.1-0.4l0.3-0.4l0.1-0.3l-0.1-0.3l-0.3-0.4l-0.4-0.2l-0.5-0.1l-0.4,0.1l-0.1,0.5l-0.5-0.2l-0.2-0.1l-0.2-0.2
		l-0.1-0.2l-0.2-0.5l-0.1-0.2l-0.2-0.1l-0.6-0.1h-0.2l-0.3-0.1l-0.2-0.2l-0.4-0.3l-1-0.7l-0.9-0.8l-0.8-0.9l-0.7-1l-0.3-0.8
		l-0.2-0.2l-0.2-0.2l-0.7-0.5l-0.2-0.1l-0.1-0.1v-0.3l0.1-0.3l0.2-0.2l0.5-0.3l1.6-1.8l1-0.6l1.1,0.3v-0.4l0.1-0.3l0.1-0.1l0.2,0.2
		l0.9-0.7l0.6-0.4l0.3,0.1l0.3-0.1l0.6,0.2l0.9,0.4l1,1.1l0.5,0.9l0.2,0.2l0.4,0.3h0.3l0.6-0.4l0.8-0.6l0.3-0.1h0.4l0.6,0.2l0.8,0.1
		l0.9,0.4l0.4,0.1l0.6-0.1l0.7-0.2l0.7-0.3l1-0.6l5.2-1.5l5.1-1.9l1.1-0.6l1.4-1.5l0.6-0.6l0.1-0.7l-0.1-1.3l0.1-0.5L549.3,57.9z"/>
</g>
</svg>
