<?xml version="1.0" encoding="utf-8"?>

<svg version="1.2" baseProfile="tiny" xmlns="http://www.w3.org/2000/svg" xmlns:xlink="http://www.w3.org/1999/xlink" x="0px"
	 y="0px" viewBox="288.9 171.8 262.7 252.1" xml:space="preserve">

<g id="Namibia">
	<g>
		<polygon fill="#003580" points="468.5,226.1 468.5,223.5 468.5,221 468.5,218.4 468.5,215.9 468.5,213.3 468.5,212.5 468.5,211.7
			468.5,210.8 468.5,210 468.5,209.2 468.5,208.3 468.5,207.5 468.5,206.7 468.5,205.8 468.5,205 468.5,204.2 468.5,203.4
			468.5,202.5 468.5,201.7 468.5,200.9 468.5,200 468.5,199.5 469.4,199.4 470.5,199.4 471.6,199.3 472.7,199.3 473.8,199.2
			474.7,199.2 475.6,199.2 476.5,199.1 477.4,199.1 477.8,199.1 478.2,199.1 478.5,199 478.8,198.9 479.2,198.9 479.5,198.8
			481.1,198.5 482.8,198.2 484.4,197.8 486,197.5 487.7,197.2 489.3,196.9 491,196.6 492.6,196.3 494.2,195.9 495.9,195.6
			497.5,195.3 499.1,195 500.8,194.7 502.4,194.3 504,194 505.7,193.7 507.4,193.4 509.7,193.2 511.3,193 512.7,192.9 513.4,193
			513.7,193.1 513.8,193.2 513.8,193.3 513.8,193.6 513.9,193.7 514,193.8 514.1,193.8 514.2,193.9 514.2,194.3 514.2,194.5
			514.3,194.6 514.5,194.9 514.7,195.4 514.7,195.4 534.4,182.3 534.3,182.3 533.5,182.6 533.4,182.6 533.1,182.5 532.1,182.5
			531.8,182.4 531.4,182.4 530.8,182.6 530,182.7 529.2,182.9 528.3,183.1 527.5,183.2 526.7,183.4 525.9,183.6 525,183.8
			524.2,183.9 523.4,184.1 522.5,184.3 521.7,184.4 520.9,184.6 520,184.8 519.2,185 518.4,185.1 517.6,185.3 517,185.4
			516.6,185.4 515.9,185.6 515.1,185.7 513.5,186 509.6,186.8 505.6,187.6 501.6,188.4 497.7,189.2 492.8,190.1 487.9,191
			483.1,192 478.2,192.9 476.8,193.2 476.5,193.3 476.3,193.2 476,192.8 475.5,192.5 474.3,192.1 473.5,191.7 473.2,191.6
			472.4,191.6 472.1,191.6 471.7,191.6 471.4,191.8 471.1,191.9 470.8,191.7 469,192.2 467.2,192.7 466.9,193.2 466.3,193.4
			465.7,193.6 465.2,193.6 464.8,193.2 464.2,192.9 463.9,192.9 463.7,193 463.6,193.1 463.3,193.1 462.9,192.9 462.8,192.7
			462.5,192.6 461.8,192.5 461,192.5 460.5,192.7 460.3,192.6 459.7,192.1 459.1,191.8 458.9,191.7 458.5,191.2 458,190.8
			457.6,190.6 457.1,190.8 456.3,190.1 456.1,190 455.4,190.2 455.2,190.2 455,190 454.3,190.6 453.8,190.4 453.3,190.4
			452.8,190.5 452.6,190.8 452.4,190.6 452.1,190.7 451.9,190.8 451.4,190.8 450.2,190.9 450,190.8 449.4,190.6 448.6,190.2
			445.6,190.2 445.4,190.3 445.2,190.7 445.1,190.8 444.8,190.7 444.4,190.6 444,190.4 443.8,190.3 443.6,189.9 443.2,189.8
			442.8,189.8 441.7,190.1 438.3,190.1 435.3,189.2 434.9,189 434.1,189.1 433.5,189 433.3,188.9 432.9,189 432.2,189.3
			430.6,189.4 428,188.9 426.3,188.1 425.5,187.9 425.3,187.6 424.9,187.1 423.8,186 423.6,185.8 423.2,185.7 423.1,185.5
			423,185.3 422.9,184.9 422.8,184.8 421.8,183.9 421.5,183.8 421.5,183.6 420.8,182.3 420.3,182.1 420.3,182.1 420.2,181.9
			419.9,181.1 419.8,181 419.7,180.9 419.6,180.8 419.6,180.6 419.4,180.6 418.4,180.6 413.4,180.6 408.4,180.6 403.4,180.6
			398.5,180.6 393.5,180.6 388.5,180.6 383.5,180.6 378.6,180.6 373.6,180.6 368.6,180.6 363.6,180.6 358.7,180.6 353.7,180.6
			348.7,180.6 343.7,180.6 338.8,180.6 337.4,180.6 337.2,180.6 337.2,180.7 337,181.1 336.6,181.2 335.7,181 335.6,181.1
			335.3,181.3 335.1,181.3 334.8,181.3 334.5,181.2 334.1,181.2 333.8,181.1 333.5,181 333.4,181.1 333.1,181.3 332.8,181.3
			332.4,181.2 332.1,181 331.2,179.8 331,179.6 329.1,178.6 327.3,177.5 325.6,176.1 323.9,175.2 324.1,174.7 323.9,174.3
			323.6,174 323.4,173.3 323.1,173 322.7,172.8 322.2,172.7 321.9,172.6 321.2,172.2 320.9,172 320,172.3 319.9,172.3 319.8,172.2
			319.5,172.2 319,172.5 319,172.3 318.8,172.4 318.6,172.4 318.1,172.3 317.9,172.2 317.8,172 317.6,171.9 317.4,172 317,171.8
			316.6,171.8 316.2,172 314.1,172.3 313.1,172.9 312.5,173.1 312.1,173.2 311.6,173.4 311.5,173.6 311.5,173.8 311.4,174
			311.2,174.1 310.9,174.2 310.7,174.3 310.6,174.4 310.4,174.7 310.3,174.9 309.6,175.1 308.8,175.5 308.1,176.1 307.7,176.3
			307.2,176.3 306.7,176.5 305.9,177.3 305.4,177.5 305.2,177.5 304.5,177.4 303.3,177.3 303,177.1 302.5,176.9 302.3,176.9
			302,177.1 301.8,177.2 300.5,177.2 299.1,177.3 299.1,177.2 299,177 298.9,176.8 298.7,176.8 298.5,176.7 298.3,176.6
			298.1,176.5 298,176.3 297.9,176.2 297.9,176 297.8,175.9 297.7,175.8 297.5,175.7 297.4,175.8 297.3,175.9 297.1,175.9
			296.5,175.7 296.3,175.6 296.1,175.6 296,175.6 295.9,175.7 295,175.8 294.1,176 293.3,176.4 292.4,177.1 291.6,177.5
			291.2,177.7 291.1,177.9 291.1,178 291,178.1 290.7,178.1 290.5,178.1 290.1,177.9 289.9,177.9 289.7,178.2 289,182.2
			288.9,183.8 289.1,184.9 289.1,185.4 288.9,185.9 289.2,186.6 289.4,189.4 289.7,190.5 289.8,192.3 289.9,192.7 290.5,194
			290.6,194.4 290.7,194.7 290.9,195 291.3,195.5 293.1,197.6 293.2,197.7 294,199.7 294.4,200.3 294.4,200.5 294.4,200.7
			294.4,200.9 294.4,201.1 308.7,213 315.5,194.7 322.2,213 337.2,200.5 334,219.8 353.2,216.5 340.7,231.5 359,238.2 340.7,245
			353.2,260 334,256.7 337.2,275.7 338.9,277.9 338.9,278.1 338.9,278.6 339.3,279.2 340.6,280.7 340.7,280.8 341.3,282.1
			341.7,283.4 342.4,284.8 342.6,285.7 343.1,286.5 343.4,289.2 343.6,292.9 343.5,293.9 343.3,294.3 343.1,294.5 342.8,294.7
			342.4,295.6 342.1,295.8 342.3,295.2 342.4,295 342,295.2 341.8,295 341.9,294.5 342,294.1 341.9,294 341.8,293.8 341.7,293.7
			341.8,293.5 341.8,293.4 341.6,293.4 341.6,293.5 341.6,294.3 341.5,294.5 341.3,294.9 341.2,295.1 341.2,295.3 341.2,296.7
			341.4,297.4 341.6,298.1 341.8,298.7 342.2,299.2 342.4,300 342.7,302.4 342.8,303.2 342.7,303.7 342.6,303.8 342.5,303.6
			342.5,303.2 342.3,303.4 341.8,304.3 341.6,304.5 341.6,304.7 341.9,305.6 342.8,308.1 342.9,308.8 342.8,310.1 468.5,226.3 		"/>
		<polygon fill="#009543" points="449.2,343.9 449.2,342.7 449.2,341.5 449.2,340.3 449.2,339.1 449.2,337.9 449.2,336.7
			449.2,335.6 449.2,334.4 449.2,333.3 361,392.1 362.7,394.9 362.8,395.1 362.9,395.3 362.9,396.4 362.9,396.9 363.2,397.3
			365.1,399.3 365.7,400 365.9,400.7 365.9,400.9 365.8,401.3 365.8,401.6 365.9,401.7 366.5,402.4 367.1,403.4 367.4,403.7
			368.8,404.8 369.7,406.1 370.3,406.6 372.8,408.5 374.1,409.9 375.2,411.5 375.4,411.6 375.7,411.8 377.8,413.9 378.1,414.3
			378.7,415 379.9,416 380.1,416.1 380.6,416.2 380.9,416 381.1,415.7 381.4,415.4 381.8,415.2 382.3,414.9 382.8,414.6
			383.6,414.4 385,412.9 385.2,412.8 385.4,412.9 385.5,413.2 385.6,413.5 385.6,413.7 386,413.7 386.3,413.4 386.7,412.9
			386.9,412.5 387,412.2 387,411.7 387.1,411.2 387.4,411 387.6,410.9 387.4,410.4 387,409.8 386.9,409.5 386.8,409 386.9,408.6
			387.2,408.5 387.4,408.6 387.6,408.7 387.8,408.8 388,408.6 388,408.3 387.9,408.1 387.8,407.9 387.7,407.7 387.8,407.5
			387.9,407.4 388.3,407.4 388.6,407.4 388.6,407.2 388.2,406.8 388.2,406.6 388.2,406.5 388.3,406.4 388.4,406.4 388.5,406.5
			388.8,406.5 388.9,406.6 389,406.6 389.2,406.4 389.3,404.6 389.4,404.6 389.7,404.2 389.8,404.1 390,404.1 390.2,404.4
			390.4,404.4 390.6,404.3 390.9,404 391.1,404 391.6,404.1 392.3,403.6 392.5,403.5 392.9,403.4 393.1,403.4 393.3,403.5
			393.5,403.8 393.8,404.3 394,404.7 394.4,404.9 394.9,405 395.1,405.4 395.1,405.9 395,406.4 395.1,407.4 395.5,407.9 396.1,408
			397.4,407.7 397.9,407.7 398.1,407.8 398.2,408.1 398.2,408.3 398.3,408.5 398.4,408.8 398.5,409 398.5,409.3 398.6,409.5
			398.7,409.8 399,410.2 399.1,410.4 399.2,410.9 399.1,411.5 399,412 398.7,412.2 398.3,412.3 398,412.5 397.7,412.8 397.7,413.1
			397.8,413.5 398.3,414.2 398.5,414.7 398.6,415.1 399.3,415.4 399.5,415.8 399.4,416.7 399.2,417.6 399.2,418.3 399.9,418.4
			400.8,418.2 401.6,418.1 402,418 402.4,417.8 402.7,417.7 403,418 403.1,418.4 403.1,419 403.2,419.4 403.6,419.6 404.2,419.8
			404.4,419.8 404.6,419.7 405,419.4 405.2,419.3 405.9,419.3 409.1,420 409.8,420.3 410.4,420.7 411.6,421.7 412.4,422.1
			414,422.6 414.4,422.6 415.1,422.4 416.8,422.1 417.2,422.2 418,422.5 418.5,422.6 418.9,422.4 419,422.3 419.2,422.2
			419.6,422.2 419.7,422.1 419.9,422 420,422 420.1,422.1 420.3,422.3 420.4,422.3 420.8,422.2 421.5,421.8 425.2,421.3
			429.3,421.9 429.6,422.2 430.1,422.9 430.3,423.2 430.4,423.2 431.1,423.3 431.3,423.4 431.4,423.5 431.7,423.9 432.5,423.9
			433.3,423.6 434.4,423 434.6,422.8 434.8,422.5 434.9,422.4 435.5,422.4 435.8,422.2 435.8,421.9 435,420.7 434.9,420.2
			435,419.8 435.3,419.1 435.5,418.8 435.8,418.6 436.1,418.6 436.5,419 436.7,419 437,418.9 438.6,418.5 439,418.3 439.3,418
			439.5,417.7 440.1,415.9 440.2,415.7 440.4,415.7 440.5,415.6 440.7,415.2 440.8,415 441,414.8 441.1,414.6 441.2,414.5
			441.4,414.3 441.6,414.3 443.5,414.1 443.8,414 444.2,413.7 444.7,413.5 445.6,413.4 446.2,413.3 447,412.5 447.6,412.2
			447.8,412.2 448.4,412.3 448.6,412.2 449.2,412.1 449.2,411.4 449.2,410.6 449.2,409.3 449.2,408.1 449.2,406.9 449.2,405.7
			449.2,404.4 449.2,403.2 449.2,402 449.2,400.8 449.2,399.5 449.2,398.3 449.2,397.1 449.2,395.9 449.2,394.6 449.2,393.4
			449.2,392.2 449.2,391 449.2,389.8 449.2,388.5 449.2,387.3 449.2,386.1 449.2,384.9 449.2,383.7 449.2,382.5 449.2,381.3
			449.2,380 449.2,378.8 449.2,377.6 449.2,376.4 449.2,375.2 449.2,374 449.2,372.8 449.2,371.6 449.2,370.4 449.2,369.1
			449.2,367.9 449.2,366.7 449.2,365.5 449.2,364.3 449.2,363.1 449.2,361.9 449.2,360.7 449.2,359.5 449.2,358.3 449.2,357.1
			449.2,355.9 449.2,354.7 449.2,353.5 449.2,352.3 449.2,351.1 449.2,349.9 449.2,348.7 449.2,347.5 449.2,346.3 449.2,345.1 		"/>
		<polygon fill="#FFFFFF" points="468.6,241.5 468.5,238.9 468.5,236.3 468.5,233.8 468.5,231.2 468.5,228.7 468.5,226.3
			342.8,310.1 342.6,311.9 342.7,312.2 343,313.3 343,314.4 343.2,314.7 342.9,315.2 342.8,315.4 342.7,315.5 342.5,315.5
			342.4,315.6 342.2,315.9 342.1,316.4 342,316.7 342.1,317.2 342.2,317.9 342.2,318.6 342.1,319 342.3,319.4 342.4,320.3
			342.8,321 343.2,322.5 344.2,324.5 344.3,324.7 468.6,241.9 		"/>
		<polygon fill="#FFFFFF" points="515.3,196.1 515.4,196.3 515.4,196.4 515.4,196.8 515.4,196.9 515.5,196.9 515.7,197 515.9,197
			516.1,196.8 516.4,197.1 516.6,197.4 516.7,197.6 517,197.7 517.3,197.7 517.5,197.8 517.5,198 517.7,198.3 517.9,198.4
			518,198.6 517.8,198.9 518.4,199.6 518.6,200.1 518.3,200.5 518.5,200.8 518.8,201.6 519,202.5 519.2,202.7 519.6,202.7
			520.3,202.4 520.3,202.4 520.5,202.3 520.9,201.7 521.3,201.7 521.6,201.5 523.4,199.5 523.7,199.4 524,199.2 524.3,198.7
			524.6,198.4 525.1,198.1 525.4,197.8 525.5,197.1 526.2,196.6 526.3,196.6 526.4,196.6 526.5,196.6 526.6,196.7 526.6,196.6
			526.7,196.5 527,196.3 527.5,196.1 527.7,195.9 528.2,195.4 528.4,195.3 529.1,195.2 529.8,194.7 530.7,193.6 531.4,193.2
			531.8,193.2 532.2,193.2 532.4,193.3 532.7,193.5 532.9,193.5 533.1,193.4 533.6,192.4 533.9,192.1 534.2,192 534.9,192
			535.3,192.1 535.5,192.3 535.9,193 536,193.1 536.2,193.2 536.2,193.3 536.3,193.6 536.9,194.2 537.2,194.1 538.1,194 538.3,194
			538.3,193.9 538.6,193.6 538.7,193.4 538.7,193.4 539.7,192.2 540,192 540.7,191.5 541.2,190.9 541.3,190.8 541.4,190.7
			541.6,190.6 541.8,190.6 542,190.5 542.1,190.3 542.2,190.2 542.6,190.1 543,189.7 543.4,189.6 543.8,189.6 545.2,189.1
			545.3,189.1 545.5,188.9 545.5,188.8 545.6,188.7 545.8,188.7 545.7,188.9 545.9,189.1 546,189.3 546.2,189.3 546.5,189.2
			546.7,189.5 546.9,189.4 547.4,189.1 547.5,189.3 549.9,187.7 549.9,187.6 549.6,187.5 549.6,187.4 549.5,187.3 549.6,187
			549.5,186.9 549.2,186.6 549.1,186.6 548.9,186.9 548.9,186.7 548.8,186.6 548.6,186.5 548.4,186.4 548.4,186.3 548.2,185.8
			548.2,185.7 547.8,185.4 547.8,185.3 547.5,185.3 547.4,185.3 547.3,185.2 547.2,185.1 547.2,184.9 547.3,184.6 547.2,184.5
			547,184.5 546.7,184.7 546.5,184.6 546.2,184.4 546,184.1 545.7,183.9 545.3,184.1 545.1,183.7 544.6,183.5 543.2,183.2
			542.6,183.2 542.4,183.2 542.3,183.1 542.2,183 542.1,183 540.4,182.7 539.5,182.7 539.3,182.8 539.2,182.9 539.1,183
			538.9,183.2 538.6,183.4 538.4,183.5 538.2,183.5 538,183.5 537.7,183.4 537.6,183.3 537.4,183.1 537.3,183 536.8,182.9
			536.4,182.8 535.8,182.6 535,182.3 534.7,182.3 534.4,182.3 514.7,195.4 		"/>
		<polygon fill="#FFFFFF" points="449.2,333.2 449.2,332.9 449.2,329.3 449.2,325.6 449.2,322 449.2,318.3 449.2,317.6 356.4,379.5
			356.6,379.5 356.7,379.5 357,379.9 357.1,380.3 357.1,381.2 357.2,381.7 357.3,382.1 357.7,382.9 357.5,383.3 357.8,384.7
			357.7,385.5 357.7,385.8 357.8,386 358,386.1 358.1,386.4 358.3,388.1 358.5,388.3 359.2,389.3 359.8,390.5 360,390.7
			360.3,390.8 360.5,391.2 360.8,391.9 361,392.1 449.2,333.3 		"/>
		<polygon fill="#D21034" points="547.6,189.5 548.2,189.5 548.9,189.2 549.5,188.6 550.3,188.6 551.6,188.8 551.4,188.6
			551.2,188.3 551,188.2 550.7,188.1 550.4,188.1 550.2,188 550,187.7 549.9,187.7 547.5,189.3 		"/>
		<polygon fill="#D21034" points="449.2,314.7 449.2,311.1 449.2,307.5 449.2,303.8 449.2,300.2 449.2,296.6 449.2,293 449.2,289.4
			449.2,286.3 449.2,283.1 449.1,280 449.1,276.9 449.1,275.1 453.7,275.1 458.2,275.1 462.8,275.1 467.3,275.1 468.4,275.1
			468.7,274.3 468.7,273.5 468.7,272.3 468.6,271.1 468.6,269.9 468.6,268.7 468.6,267.5 468.6,266.3 468.6,265.1 468.6,263.9
			468.6,262.7 468.6,261.5 468.6,260.3 468.6,259.1 468.6,257.9 468.6,256.7 468.6,255.6 468.6,254.4 468.6,251.8 468.6,249.2
			468.6,246.6 468.6,244.1 468.6,241.9 344.3,324.7 344.6,325.6 345.1,326.4 345.2,326.8 345.2,327.7 345.1,327.8 344.8,328.1
			344.8,328.3 344.9,328.9 345.5,329.6 345.8,330.3 346.8,331.2 347.2,331.9 348.4,334 348.6,334.8 348.6,336.5 348.9,337.3
			349.6,338.7 349.8,339.5 349.7,340.4 349.3,341.9 349.3,342.2 348.7,343.8 348.8,344.2 349,345 349.1,346 349.6,347.3
			349.6,348.3 349.8,348.8 350.2,349.2 350.3,349.6 350.3,350.1 350.2,350.5 349.6,351.6 349.6,352 349.6,353.7 349.5,354
			349.5,354.2 349.6,354.5 349.9,355 350.9,356.2 351,356.2 350.7,357 350.8,357.7 351.7,359.2 352,359.9 352.2,360.8 352.2,361.7
			351.9,362.4 351.8,362.5 351.6,362.4 351.5,362.4 351.4,362.7 351.5,362.8 351.9,363.4 351.8,365.1 351.9,366.7 352.1,366.9
			353.3,367.4 354,367.9 354.6,368.6 355.1,369.4 355.4,370.7 355.7,372 355.9,372.3 355.9,372.5 355.5,373.6 355.4,374.1
			355.3,374.1 355.3,373.2 355.2,373 355.1,373 354.9,373.1 354.7,373.1 354.4,373.3 354.2,373.6 354.2,374 354.2,374.5
			354.4,374.9 354.7,375.3 354.9,375.7 354.8,376.3 354.9,376.7 355.5,378 355.6,378.4 355.7,378.9 355.7,378.9 355.9,379.1
			356,379.3 356.1,379.4 356.2,379.5 356.4,379.5 449.2,317.6 		"/>
		<path fill="#FFCE00" d="M353.2,260l-12.5-15l18.3-6.8l-18.3-6.8l12.5-15l-19.2,3.3l3.3-19.2l-15,12.5l-6.8-18.3l-6.8,18.3
			l-14.3-11.9l0,0.1l0.3,0.6l0.1,0.4l0.2,0.3l1.1,1.3l0.2,0.1l0.2,0.1l0.3,0.5l0.1,0.1l0.2,0.1l2.9,2.4l3.2,4.2l0.2,0.4l0.2,1.5
			l0.2,0.3l0.7,0.5l0.6,0.7l0.2,0.4c3.1-1.4,6.6-2.2,10.2-2.2c13.9,0,25.2,11.3,25.2,25.2c0,9.6-5.4,17.9-13.2,22.2l0.4,0.7l2,2.6
			l0.6,1.5l0.3,1.3l1.6,2.3l0.1,0.2l0.1,0.3l0,0.1l-0.1,0.5l-0.1,0.1l-0.1,0.2l0,0.2l0.4,0.2l1.6,1.5l0.2,0.3l1.5,1.4l1.4,1.8
			l-3.3-19L353.2,260z"/>
		<path fill="#FFCE00" d="M338.1,238.2c0-12.5-10.2-22.6-22.6-22.6c-3.3,0-6.4,0.7-9.2,2l0.1,0.2l0.4,0.7l0.6,0.8l0.2,0.4l0.1,0.9
			l0.1,0.4l0.3,0.7l0.9,1.5l0.2,0.2l0.5,1l0.2,0.3l0.2,0.5l1.4,2.6l0.8,1.1l0.2,0.6l1.5,2.9l0.8,2.3l0.3,0.6l1.3,1l0.5,0.6l0.4,0.7
			l0.7,1.7l0.4,1.7l0.1,0.9l0.5,1.8l1.7,3.3l0.5,1.8l0.2,1.7l0.2,0.7l0.4,0.7l0.5,0.4l0.3,0.3l0.2,0.8l0.8,1.1l1.7,3.1l0.5,0.6
			C333.2,254.5,338.1,246.9,338.1,238.2z"/>
		<path fill="#003580" d="M340.7,238.2c0-13.9-11.3-25.2-25.2-25.2c-3.6,0-7.1,0.8-10.2,2.2l0.2,0.2l0.9,2.2c2.8-1.3,5.9-2,9.2-2
			c12.5,0,22.6,10.2,22.6,22.6c0,8.7-4.9,16.2-12.1,20l0.7,0.9l0.8,1.3C335.4,256.2,340.7,247.8,340.7,238.2z"/>
	</g>
	<path vector-effect="none" fill="none" stroke="#999999" stroke-width="0.25" stroke-linecap="round" stroke-linejoin="round" d="
		M515.1,185.7l0.8-0.2l0.7-0.1l0.4,0l0.6-0.1l0.8-0.2l0.8-0.2l0.8-0.2l0.8-0.2l0.8-0.2l0.8-0.2l0.8-0.2l0.8-0.2l0.8-0.2l0.8-0.2
		l0.8-0.2l0.8-0.2l0.8-0.2l0.8-0.2l0.8-0.2l0.8-0.2l0.6-0.1l0.4,0l0.4,0.1l1,0l0.2,0.1l0.2-0.1l0.8-0.2l0.3,0l0.3,0.1l0.8,0.3
		l0.6,0.1l0.4,0.2l0.5,0.1l0.2,0.1l0.1,0.1l0.2,0.1l0.3,0.1l0.2,0l0.2,0l0.2-0.1l0.3-0.3l0.2-0.1l0.1-0.1l0.1-0.1l0.2-0.1h0.9
		l1.7,0.3l0.1,0.1l0.1,0.1l0.1,0.1l0.2,0l0.6,0l1.3,0.3l0.5,0.2l0.2,0.4l0.4-0.2l0.3,0.2l0.2,0.3l0.3,0.2l0.2,0l0.4-0.1l0.2,0
		l0.1,0.1l-0.1,0.3v0.1l0.1,0.2l0.1,0.1l0.1,0h0.2l0.1,0.1l0.3,0.3l0.1,0l0.2,0.6l0,0.1l0.2,0l0.1,0.1l0.1,0.1l0,0.1l0.2-0.2l0.1,0
		l0.3,0.3l0.1,0.1l0,0.2l0,0.1l0.1,0.1l0.2,0.1l0.1,0.1l0.2,0.3l0.1,0.1l0.3,0l0.3,0.1l0.3,0.2l0.2,0.2l0.1,0.3l-1.3-0.2l-0.8,0
		l-0.6,0.6l-0.6,0.3l-0.6,0l-0.2-0.4l-0.5,0.3l-0.2,0l-0.2-0.2l-0.3,0.1l-0.2-0.1l-0.1-0.2l-0.2-0.1l0.1-0.3l-0.2,0l-0.1,0.1
		l-0.1,0.1l-0.2,0.1l-0.1,0.1l-1.4,0.5l-0.4,0l-0.3,0.1l-0.5,0.4l-0.4,0.1l-0.1,0.1l-0.1,0.3l-0.2,0.1l-0.2,0l-0.2,0.1l-0.1,0.1
		l-0.1,0.1l-0.5,0.7L540,192l-0.3,0.3l-1,1.2l-0.1,0l-0.1,0.1l-0.3,0.3l-0.1,0.1l-0.2,0l-0.9,0.1l-0.2,0.1l-0.7-0.6l0-0.3l-0.1-0.1
		l-0.1-0.1l-0.1-0.1l-0.3-0.6l-0.2-0.2l-0.4-0.1l-0.7,0l-0.3,0.1l-0.3,0.3l-0.5,1l-0.2,0.1l-0.2,0l-0.3-0.2l-0.2-0.1l-0.4-0.1
		l-0.4,0.1l-0.7,0.3l-0.9,1.1l-0.7,0.5l-0.7,0.1l-0.2,0.1l-0.6,0.5l-0.2,0.1l-0.6,0.2l-0.2,0.2l-0.1,0.1l-0.1,0.1l-0.1-0.1l-0.1-0.1
		l-0.1,0l-0.1,0l-0.7,0.5l-0.1,0.7l-0.3,0.3l-0.6,0.4l-0.2,0.2l-0.3,0.5l-0.2,0.2l-0.3,0.1l-1.8,2l-0.3,0.2l-0.4,0.1l-0.5,0.5
		l-0.1,0.1l-0.1,0l-0.7,0.2l-0.3,0l-0.3-0.2l-0.2-0.8l-0.3-0.9l-0.2-0.3l0.3-0.4l-0.2-0.4l-0.6-0.7l0.2-0.3l-0.1-0.2l-0.2-0.2
		l-0.1-0.2l-0.1-0.2l-0.2-0.1l-0.3,0l-0.3-0.1l-0.1-0.2l-0.3-0.3l-0.3-0.3l-0.2,0.2l-0.2,0l-0.2-0.1l-0.1-0.1l0-0.1l0-0.3l0-0.1
		l-0.1-0.2l-0.6-0.7l-0.2-0.5l-0.2-0.3l-0.1-0.1l0-0.1l0-0.5l-0.1-0.1l-0.1,0l-0.1,0l-0.1-0.1v-0.3l0-0.1l-0.1-0.1l-0.3-0.1l-0.7,0
		l-1.3,0.1l-1.7,0.1l-2.3,0.2l-1.7,0.3L504,194l-1.6,0.3l-1.6,0.3l-1.6,0.3l-1.6,0.3l-1.6,0.3l-1.6,0.3l-1.6,0.3l-1.6,0.3l-1.6,0.3
		l-1.6,0.3l-1.6,0.3l-1.6,0.3l-1.6,0.3l-1.6,0.3l-1.6,0.3l-0.3,0.1l-0.3,0.1l-0.3,0.1l-0.3,0.1l-0.4,0l-0.4,0l-0.9,0l-0.9,0l-0.9,0
		l-0.9,0l-1.1,0l-1.1,0l-1.1,0l-1.1,0l-1,0v0.6v0.8v0.8v0.8v0.8v0.8v0.8v0.8v0.8v0.8v0.8v0.8v0.8v0.8v0.8v0.8v0.8l0,2.5l0,2.6l0,2.5
		l0,2.6l0,2.6l0,2.6l0,2.6l0,2.6l0,2.6l0,2.6l0,2.6l0,2.6l0,2.6l0,2.6l0,2.6l0,2.6l0,1.2l0,1.2v1.2v1.2l0,1.2l0,1.2v1.2l0,1.2v1.2
		l0,1.2l0,1.2v1.2l0,1.2v1.2l0,1.2l0,1.2v0.9l-0.2,0.8h-1.1h-4.5h-4.5h-4.5h-4.5v1.8l0,3.1l0,3.1v3.1v3.1l0,3.6l0,3.6v3.6v3.6l0,3.6
		l0,3.6v3.6l0,3.6v3.6l0,3.6l0,3.6v3.7l0,0.3v1.2v1.2v1.2v1.2v1.2v1.2v1.2v1.2v1.2v1.2v1.2l0,1.2v1.2v1.2v1.2v1.2v1.2v1.2v1.2v1.2
		v1.2v1.2v1.2v1.2v1.2v1.2v1.2v1.2v1.2v1.2v1.2l0,1.2v1.2v1.2v1.2v1.2v1.2v1.2v1.2v1.2v1.2v1.2v1.2l0,1.2v1.2v1.2v1.2v1.2v1.2v1.2
		v1.2v1.2v1.2v1.2v1.2v1.2v1.2v1.2v1.2l0,1.2v1.2v1.2v1.2v1.2v0.9l0,0.7l-0.6,0.2l-0.2,0l-0.6-0.1l-0.2,0l-0.5,0.3l-0.9,0.8
		l-0.6,0.2l-0.9,0.1l-0.4,0.2l-0.4,0.3l-0.3,0.2l-2,0.1l-0.2,0.1l-0.2,0.1l-0.1,0.1l-0.1,0.2l-0.2,0.2l-0.1,0.2l-0.2,0.4l-0.1,0.1
		l-0.2,0.1l-0.1,0.2l-0.6,1.8l-0.2,0.3l-0.3,0.3l-0.4,0.2l-1.6,0.4l-0.3,0.1l-0.2,0l-0.5-0.4l-0.3,0l-0.2,0.2l-0.2,0.3l-0.3,0.6
		l-0.1,0.5l0.1,0.5l0.7,1.2l0,0.3l-0.2,0.1l-0.6,0l-0.1,0.1l-0.2,0.4l-0.2,0.2l-1.1,0.6l-0.8,0.3l-0.7,0l-0.3-0.4l-0.1-0.1l-0.2-0.1
		l-0.7-0.1l-0.1,0l-0.2-0.2l-0.5-0.8l-0.3-0.3l-4.1-0.6l-3.7,0.5l-0.7,0.4l-0.4,0.1l-0.1,0l-0.2-0.2l-0.1,0l-0.1,0l-0.2,0.1l-0.1,0
		l-0.4,0.1l-0.2,0.1l-0.2,0.1l-0.4,0.2l-0.5-0.1l-0.8-0.3l-0.4,0l-1.7,0.2l-0.7,0.2l-0.4,0l-1.6-0.6l-0.7-0.4l-1.2-1l-0.7-0.4
		l-0.7-0.3l-3.2-0.7l-0.6,0.1l-0.2,0.1l-0.4,0.3l-0.2,0.1l-0.2,0l-0.6-0.2l-0.4-0.2l-0.1-0.4l0-0.5L403,418l-0.3-0.2l-0.3,0.1
		L402,418l-0.4,0.1l-0.8,0.1l-0.9,0.2l-0.7-0.1l0-0.7l0.2-0.9l0.1-0.9l-0.2-0.5l-0.7-0.3l-0.2-0.4l-0.1-0.5l-0.5-0.7l-0.2-0.4
		l0.1-0.3l0.3-0.3l0.3-0.2l0.3-0.1l0.3-0.2l0.2-0.5l0-0.6l0-0.5l-0.1-0.2l-0.3-0.4l-0.1-0.2l-0.1-0.3l0-0.2l-0.1-0.2l-0.2-0.3
		l-0.1-0.2l0-0.3l-0.1-0.2l-0.2-0.1l-0.5,0l-1.2,0.3l-0.6-0.1l-0.4-0.5l-0.1-1l0-0.5l0-0.5l-0.2-0.4l-0.5-0.2l-0.4-0.2l-0.3-0.4
		l-0.2-0.4l-0.3-0.3l-0.2-0.1h-0.2l-0.4,0.1l-0.2,0.1l-0.6,0.5l-0.5-0.1l-0.2,0.1l-0.3,0.3l-0.2,0.1l-0.2,0l-0.2-0.2l-0.2,0
		l-0.1,0.1l-0.3,0.4l-0.1,0.1l-0.1,1.7l-0.1,0.2l-0.1,0l-0.1-0.1l-0.3,0l-0.1-0.1l-0.1,0l-0.1,0.1l0,0.1l0.1,0.1l0.3,0.4l0,0.2
		l-0.3,0.1l-0.4,0l-0.1,0.1l-0.1,0.2l0.1,0.2l0.1,0.2l0.1,0.3l0,0.3l-0.2,0.1l-0.2-0.1l-0.2-0.1l-0.2-0.1l-0.3,0.2l-0.1,0.4l0.1,0.5
		l0.1,0.3l0.4,0.6l0.1,0.4l-0.2,0.2l-0.3,0.2l-0.1,0.4l0,0.5l0,0.4l-0.2,0.4l-0.3,0.5l-0.4,0.3l-0.3,0l-0.1-0.2l-0.1-0.3l-0.1-0.2
		l-0.2-0.1l-0.2,0.1l-1.5,1.5l-0.7,0.2l-0.5,0.3l-0.5,0.3l-0.3,0.2l-0.4,0.3l-0.2,0.3l-0.2,0.2l-0.5-0.1l-0.2-0.1l-1.2-1l-0.6-0.7
		l-0.3-0.4l-2.1-2.1l-0.3-0.1l-0.2-0.1l-1.2-1.6l-1.2-1.5l-2.6-1.9l-0.5-0.5l-1-1.3l-1.4-1.1l-0.3-0.3l-0.6-1l-0.6-0.7l-0.1-0.2
		l0-0.3l0.1-0.4l0-0.2l-0.2-0.7l-0.5-0.7l-1.9-1.9l-0.2-0.4l-0.1-0.5l0-1.1l0-0.2l-0.1-0.3l-1.9-3l-0.3-0.7l-0.2-0.3l-0.3-0.2
		l-0.2-0.2l-0.6-1.1l-0.8-1l-0.1-0.2l-0.3-1.7l-0.1-0.2l-0.1-0.2l-0.1-0.2l0-0.3l0.1-0.9l-0.3-1.4l0.1-0.3l-0.4-0.8l-0.1-0.4l0-0.5
		l0-0.9l-0.1-0.4l-0.3-0.4l-0.1-0.1l-0.4,0l-0.2-0.1l0-0.1l-0.1-0.2l-0.1-0.2l-0.1,0l-0.1-0.5l-0.1-0.4l-0.6-1.3l-0.1-0.4l0.1-0.6
		l-0.2-0.4l-0.3-0.4l-0.2-0.4l0-0.5l0.1-0.4l0.2-0.3l0.3-0.1l0.2,0l0.2-0.1l0.2,0l0.1,0.2v0.8h0.1l0.1-0.4l0.4-1.1l0-0.2l-0.1-0.3
		l-0.4-1.3l-0.3-1.3l-0.5-0.8l-0.6-0.7l-0.7-0.5l-1.2-0.5l-0.2-0.2l-0.1-1.7l0.1-1.6l-0.4-0.6l-0.1-0.1l0.1-0.3l0.1,0l0.2,0.1
		l0.2-0.1l0.3-0.7l0-0.9l-0.2-0.9l-0.3-0.7l-0.9-1.5l-0.1-0.7l0.3-0.8h-0.1l-1-1.2l-0.3-0.6l0-0.3V354l0-0.3V352l0.1-0.4l0.6-1.1
		l0.1-0.4l0-0.5l-0.1-0.4l-0.4-0.4l-0.1-0.5l-0.1-1l-0.5-1.3l-0.1-1l-0.2-0.8l0-0.4l0.6-1.6l-0.1-0.3l0.4-1.5l0.1-0.9l-0.2-0.8
		l-0.7-1.4l-0.2-0.8l-0.1-1.7l-0.2-0.8l-1.1-2.1l-0.5-0.6l-1-0.9l-0.3-0.6l-0.7-0.8l-0.1-0.5l0.1-0.2l0.3-0.3l0.1-0.1v-0.9l-0.1-0.4
		l-0.4-0.8l-0.4-1.1l-1.1-2l-0.4-1.5l-0.4-0.7l-0.1-1l-0.1-0.3l0.1-0.4l0-0.7l-0.1-0.7l-0.2-0.5l0.2-0.3l0.1-0.6l0.1-0.3l0.1-0.1
		l0.2,0l0.2-0.1l0.1-0.2l0.3-0.5l-0.2-0.3l0-1.2l-0.3-1l-0.1-0.4l0.3-3l-0.1-0.8l-0.9-2.5l-0.2-1l0-0.2l0.2-0.2l0.5-0.9l0.2-0.2
		l0,0.4l0.1,0.2l0.1-0.1l0.1-0.5l0-0.8l-0.4-2.4l-0.2-0.7l-0.3-0.5l-0.3-0.6l-0.2-0.7l-0.1-0.7l-0.1-1.4l0-0.2l0.1-0.2l0.3-0.4
		l0-0.2v-0.9l0.1,0h0.1l0.1,0.1l-0.1,0.2l0.1,0.1l0.1,0.2l0.1,0.1l-0.1,0.4l0,0.4l0.1,0.2l0.4-0.2l0,0.2l-0.2,0.6l0.3-0.3l0.4-0.8
		l0.3-0.2l0.2-0.2l0.1-0.5l0.1-1l-0.1-3.7l-0.4-2.7l-0.5-0.7l-0.2-0.9l-0.7-1.4l-0.4-1.2l-0.6-1.3l-0.1-0.2l-1.3-1.4l-0.4-0.7l0-0.5
		l0-0.2l-3-3.9l-1.5-1.4l-0.2-0.3l-1.6-1.5l-0.4-0.2l0-0.2l0.1-0.2l0.1-0.1l0.1-0.5l0-0.1l-0.1-0.3l-0.1-0.2l-1.6-2.3l-0.3-1.3
		l-0.6-1.5l-2-2.6l-1.2-2l-1.2-1.5l-1.7-3.1l-0.8-1.1l-0.2-0.8l-0.3-0.3l-0.5-0.4l-0.4-0.7l-0.2-0.7l-0.2-1.7l-0.5-1.8l-1.7-3.3
		l-0.5-1.8l-0.1-0.9l-0.4-1.7l-0.7-1.7l-0.4-0.7l-0.5-0.6l-1.3-1l-0.3-0.6l-0.8-2.3l-1.5-2.9l-0.2-0.6l-0.8-1.1l-1.4-2.6l-0.2-0.5
		l-0.2-0.3l-0.5-1l-0.2-0.2l-0.9-1.5l-0.3-0.7l-0.1-0.4l-0.1-0.9l-0.2-0.4l-0.6-0.8l-0.4-0.7l-0.9-2.3l-0.4-0.6l-0.6-0.7l-0.7-0.5
		l-0.2-0.3l-0.2-1.5l-0.2-0.4l-3.2-4.2l-2.9-2.4l-0.2-0.1l-0.1-0.1l-0.3-0.5l-0.2-0.1l-0.2-0.1l-1.1-1.3l-0.2-0.3l-0.1-0.4l-0.3-0.6
		l0-0.2l0-0.2l0-0.2l0-0.2l-0.5-0.7l-0.8-2l-0.1-0.1l-1.7-2.1l-0.5-0.4l-0.2-0.3l-0.1-0.3l-0.1-0.5l-0.6-1.3l-0.1-0.4l-0.1-1.8
		l-0.4-1.1l-0.1-2.7l-0.3-0.7l0.2-0.4l0-0.6l-0.2-1.1l0.1-1.6l0.6-4.1l0.2-0.3l0.2,0l0.3,0.2l0.2,0l0.3,0l0.1-0.1l0-0.1l0.1-0.2
		l0.4-0.2l0.8-0.4l0.9-0.7l0.8-0.4l0.9-0.3l0.9-0.1l0.1,0l0.1,0l0.1,0l0.2,0.1l0.7,0.2l0.2,0l0.1-0.1l0.1-0.1l0.2,0.1l0.1,0.1l0,0.1
		l0,0.2l0.1,0.2l0.1,0.1l0.2,0.1l0.2,0.1l0.2,0l0.2,0.1l0.1,0.2l0.1,0.2l0.1,0.1l1.4-0.1l1.3,0l0.3-0.1l0.3-0.2l0.2,0l0.5,0.3
		l0.4,0.1l1.1,0.1l0.7,0.2l0.2,0l0.5-0.2l0.9-0.8l0.5-0.2l0.5-0.1l0.4-0.2l0.7-0.6l0.9-0.4l0.7-0.2l0.1-0.2l0.2-0.3l0.2-0.2l0.1-0.1
		l0.3-0.1l0.2-0.1l0.1-0.2l0-0.2l0.1-0.2l0.5-0.1l0.4-0.2l0.6-0.1l1-0.6l2.1-0.4l0.4-0.2l0.4,0l0.4,0.3l0.3-0.1l0.1,0.1l0.1,0.2
		l0.2,0.1l0.4,0.1l0.2,0l0.2-0.1v0.2l0.5-0.2l0.3-0.1l0.1,0.1l0.1,0l0.8-0.2l0.4,0.1l0.7,0.5l0.3,0.1l0.5,0.1l0.4,0.2l0.3,0.3
		l0.3,0.8l0.3,0.3l0.2,0.3l-0.2,0.6l1.7,0.9l1.7,1.4l1.9,1l1.8,1l0.2,0.2l0.9,1.2l0.3,0.2l0.5,0.1l0.2,0l0.3-0.2l0.2-0.1l0.2,0
		l0.4,0.1l0.4,0.1l0.3,0.1h0.2l0.2-0.1l0.3-0.2l0.1-0.1l0.9,0.1l0.4-0.1l0.2-0.4l0-0.1h0.2h1.3h5l5,0h5h5h5l5,0h5h5h5h5h5h5h5l5,0h5
		h5h1l0.2,0l0,0.1l0.1,0.2l0.1,0.1l0.1,0.1l0.3,0.8l0,0.2l0.1,0l0.5,0.1l0.7,1.3l0.1,0.2l0.3,0.1l1,0.8l0.1,0.1l0.1,0.4l0.1,0.2
		l0.2,0.2l0.4,0.2l0.2,0.1l1.1,1.2l0.4,0.5l0.3,0.2l0.8,0.2l1.7,0.9l2.5,0.5l1.6-0.1l0.7-0.3l0.4-0.1l0.2,0l0.6,0.1l0.9-0.1l0.3,0.2
		l3.1,0.9l3.3,0l1.1-0.2l0.4,0l0.4,0.1l0.2,0.4l0.2,0.1l0.4,0.2l0.5,0.1l0.3,0l0.1-0.1l0.2-0.4l0.1-0.1h3.1l0.7,0.4l0.7,0.2l0.2,0
		l1.1-0.1l0.5,0l0.3,0l0.3-0.1l0.1,0.2l0.3-0.2l0.5-0.1l0.5,0l0.5,0.2l0.7-0.6l0.2,0.1l0.3,0l0.6-0.1l0.2,0.1l0.8,0.6l0.5-0.1
		l0.5,0.2l0.4,0.4l0.4,0.4l0.2,0.2l0.7,0.3l0.6,0.4l0.2,0.1l0.5-0.1l0.8,0l0.7,0.1l0.3,0.2l0.1,0.2l0.3,0.1l0.3,0.1l0.1-0.1l0.1-0.2
		l0.3,0.1l0.6,0.3l0.4,0.4l0.5,0l0.6-0.2l0.6-0.1l0.3-0.5l1.8-0.5l1.8-0.5l0.3,0.1l0.3-0.1l0.3-0.2l0.4-0.1l0.3,0.1l0.8-0.1l0.3,0.1
		l0.9,0.5l1.1,0.4l0.6,0.3l0.3,0.4l0.1,0l0.4-0.1l1.4-0.3l4.9-0.9l4.9-0.9l4.9-0.9l4.9-0.9l4-0.8l4-0.8l4-0.8l4-0.8L515.1,185.7"/>
</g>

</svg>
