<?xml version="1.0" encoding="utf-8"?>

<svg version="1.2" baseProfile="tiny" xmlns="http://www.w3.org/2000/svg" xmlns:xlink="http://www.w3.org/1999/xlink" x="0px"
	 y="0px" viewBox="200 139.3 440.1 315.3" xml:space="preserve">

<g id="New_Caledonia">
	<title>Flag of New Caledonia</title>
	<g>
		<path fill="#009543" d="M402.3,359.5l1.2-0.9l1-1.4l0.8-1.6h0.7v1.9l0.8,1.2l1,0.9l0.8,1.1l0.2,1.7l-0.1,1.5l0.3,1.1l1.6,0.6
			l-0.3-1.1l-0.1-1l0.4-0.7l1-0.2l0.9,0.3l-0.1,0.8l-0.4,1v0.8l2.8,2.6l0.6,1.1l-2-1l0.2,1.6l0.9,0.6h2.8l0.7-0.1l0.5-0.4l0.5-0.2
			l0.6,0.3l1.3,1.1l0.7,0.5l0.7,0.1l1.4,0.8l2,3.4l3,1.1l0.9,1l1.4,1.9l1.3,0.8l0.7-0.8l0-1.2l-0.3-0.5l0.7,0.1l1.1,0.2l1.1,0.1
			l0.4-0.6l0-2.6l0.5-1l1.5-0.9l-0.1,1.2l0.4,1l0.7,0.8l1.1,0.5l-1.1,1l-0.2,0.8l0.7,0.3l1.2-0.7l3.4,1l1.2,1l0.8,2.3l-0.3,0.4
			l-0.4,1.2l-0.1,1.4l0.5,0.7l1.1,0l0.8,0.3l0.4,0.6l0.1,1.1l-1-0.5l-1.1-0.2h-2.7l0.8,1.1l1.9,0.8l0.6,1v1.7l-0.8,0.4l-1.1-0.5
			l-0.8-1h-0.6v1.1l-0.1,0.8l-0.2,0.5l-0.4,0.5l1,0.8l1.1,0.6l1.5-2l1.2,0.2l1.1,1.1l1.2,0.7l1.4,0.4l1.3,1.1l0.9,1.5l0.1,2h1.7
			l1.5,0.8l1.6,0.7l1.9-0.8l-0.2-1l2.5,0.6l1-1h0.6l-0.1,0.9l-0.2,0.6l-0.4,0.3l-0.6,0.3v0.6l2.4,2.3l1,0.7l-0.8,1.1l-0.2,1.1
			l0.5,0.7l0.9-0.4l0.7-0.9l0.3-0.8l0.5-0.5l1.2-0.2l0.2-0.4l0.4-2l0.4-0.6l0.9-0.2l2.1,0.3l0.9-0.1l-0.3,3.4l0.6,0.9l1.8,0.1
			l-0.8,1.1l-1.3,0.4l-3.1-0.1l0.9,1.2l1.1,0.8l1.3,0.3l1.4-0.1v0.7l-0.7,1.1l-0.2,2.7l-0.3,0.9l0.2,0.9l1.3,0.5l1-0.5l-0.8-1.9
			l0.3-0.1l0.2-0.1l0.1-0.2v-0.5l2,0.5l0.9-1.6l0.7-2.3l1.1-1.5l1-0.1l2.8,0.4l0.9,0.3l1.1,1.1l-0.5,0.6l-0.6,0.6l0.3,1l0.8,0.6
			l2.4,1l0.8,0.2l1-0.3l2.2-1l0.4,0.2l0.9,1.5l2.1,1.5l2.3,0.8l1.5-0.5l0.7,0.7l-0.6,1.9l1.4,0.9l2.1,0.2l1.8-0.2v0.6l-1.9,1.1
			l-0.1,1.4l1.3,1.3l2.5,0.6l0.7-0.2l0.8-0.5l0.7-0.6l0.2-0.5l0.5,0.1l1.2,0.3l1.3,0.2l1.1-0.2l-1.8-1.3l-0.3-0.1l-0.3-1.2V421
			l0.2-0.5l0.4-3l0.7-1.4l0.9-0.3l0.9,1.3l-0.9,0.5l-0.5,0.1l0.6,1l0.5,1.2l0.5,0.9l0.8,0.4l0.2-0.7l0.6-1.4l0.6-0.8l0.3,1.2
			l0.4,0.4l0.8,1.5l0.5,1.4l0.8,0.9l0.7-0.2h1.5l-0.6,0.9l-0.8,0.5l-2,0.8l2.4,0.4l1.8-0.8l3.1-2.4l-0.4-1l-0.1-0.5l0.5-0.3l1.2-0.5
			l0.5-0.5l0.6-0.2l0.3,0.5l0.2,0.5l0.7-0.8l0.5-0.7l0.8-1.4l0.7-2.5l0.4-0.7l0.3-1l-0.5-0.8l-0.7-0.8l-0.2-0.7l0.5-0.6l0.7-0.1
			l0.6-0.1l0.2-1l-0.5-1.1l-3.4-2.8l-1.3-2.1l-0.8-1l-0.9-0.5l-1.4-0.2l0.1-0.6l0.6-0.7l0.4-0.6l0.1-2.7l-0.1-0.9l-1.1-1.9l-0.9-1.2
			l-4.9-3.9l-1.4-0.8l-5.7-1.4l-2.1-0.3l-1.5-0.4l-1.1-1.1l-0.7-1.9l-0.6,0.4l-0.8-0.2l-1.1-0.5l-1.2-0.3l-2.8,0.4l-0.8-0.4v-0.8
			l1-0.2l0.8-0.2l0.7-0.4l0.8-0.5v-0.8l-1.3-0.5l-3.3-2.4l-1,1.5l-2.3-1.7l-2.6-2.6l-1.8-1.4l-1.9-1l-4.3-4.9l-2.2-1.9l0.7-0.7
			l-1.8-0.7l-0.5-0.4l-0.7-0.9l-0.3-1.9l-0.4-0.8l-3.8-2.8l-1.1-2l-1.4-0.7l-3-0.8h-62.7C404.9,355.4,403.6,357.5,402.3,359.5z"/>
		<polygon fill="#009543" points="581.9,447.1 580.6,445.9 579.6,444.1 577.9,442.6 575.3,441.4 572.7,440.8 571,441.3 570.2,443.4
			570.2,449.4 569.7,452.1 575.2,454.3 578.3,454.7 579.6,452.4 579.1,449.8 579.1,448.5 579.6,447.7 580.6,447.9 581.7,450.5
			582.9,451.4 582.9,448.6 		"/>
		<polygon fill="#009543" points="511.2,430.1 511.7,429.7 512.4,429.1 513.1,429.8 513.5,429.7 513.8,429 513.8,427.7 512.9,426.6
			512.1,426 511.1,425.9 509.8,426.3 508.6,427.1 508.3,428 508.2,429 507.5,430.2 506.8,431.7 507.7,432.4 509.1,432.7 509.8,433
			510.4,432.9 511.5,432.3 511.6,431.5 509.8,431.2 509.8,430.6 		"/>
		<polygon fill="#ED4135" points="485.4,243.6 483.8,245.7 481.4,248.3 480,249.3 478.5,250 479.1,250.7 479.9,251.4 481.8,251.2
			484.1,250.5 486.3,249.5 487.8,248.5 489.4,246.4 491.4,242.7 485.9,242.7 		"/>
		<polygon fill="#ED4135" points="472.3,252 471.4,252.1 470.6,252.3 469.9,252.8 470.9,253 471.5,253.3 472,253.6 472.6,254.2
			475,253.5 476,253.1 476.5,252.1 474,252 473.2,252.1 		"/>
		<polygon fill="#ED4135" points="543.7,266.9 542,269.7 540.8,270.9 539,271.9 537,272.3 531,271.9 531.8,273.3 535.7,276.8
			535.1,278.2 535,279.6 535.6,280.6 537.6,281.4 538,282.2 538.1,283.2 538.4,283.9 540.7,286.4 543.2,288.5 546.1,289.5
			555,290.5 555.5,291 555.7,292.8 556.4,293.8 558,294.2 559.6,294.4 560.4,294.9 561.2,298 563.1,298.8 565.3,298.8 566.9,299.5
			568.4,298.5 569.5,297.6 570.1,296.3 570.3,294.2 570.3,290.2 571,288.8 574.2,287.6 573.6,286.2 572.2,284.8 571,283.9
			569.9,283.5 568.8,283.4 567.8,283 566.9,281.8 566.9,280.9 567.2,280 568.4,278.2 567.9,277.7 567.3,276.6 566.9,276.1
			566.4,275 565.7,274.7 564.8,274.7 563.6,274.6 561.2,273.8 560.4,273.2 559.3,272.2 558.4,271.6 557.4,271.3 556.6,270.9
			556.3,270.1 556.6,268.9 557.9,266.8 558.3,265.5 557,262.7 556.4,260 556.3,258.8 557,256.8 558.2,255 558.9,253.2 558.3,251.4
			556.9,251.2 549.7,247.2 546.3,248.2 546.2,249.3 545.7,250.3 545,251.1 544,251.4 542.9,251.3 542.1,251.2 541.4,250.9
			540.7,250.3 540,250.2 536.7,250.7 534.7,251.7 533.6,253.9 533.2,256.1 533.3,257.1 540.7,256.2 545.8,258.4 547,259.1
			547.6,261.4 546.6,263.4 		"/>
		<path fill="#ED4135" d="M467.2,353.2l-0.7-0.3l-0.3-0.5l-0.1-0.7l-0.2-0.6l-0.7-0.5v-0.7h2.7v-0.7l-7.7-2.4l-3.6-1.8l-3.4-2.2
			l-1-1.8l-0.5-0.4l-1.2-0.4l-0.7-0.3l-5-4.5l-1.6-0.9h-1.8l-2.3,1.1l-0.2-1.2l-0.2-2l-0.2-1.1l-0.8-0.1l-0.6-0.2l-0.4-0.4l0.2-0.5
			l0.9-0.2l0.7-0.3l-0.2-0.6l-1-0.5l-2.4-0.3l-1-0.3l-3-3.3l-1.9-1.2l-0.8,0.7l0.2,1.9l0.8,2.5l0.5,0.8l0.6,0.8l0.6,0.9l0.2,1.4
			l-0.7,0.3l-1.2,0.3l-0.8-0.1l0.6-0.9l-4-2.5l-0.7-1.1l2.1,0.5l0.5-0.9l-0.7-1.8l-3.3-6.3l-1.4-1.8L420,318l0.9,1l0.4,1.2l-0.1,1.1
			l-0.5,0.9l-0.6-1.3l-0.9-0.7h-0.4c-0.3,1.3-0.6,2.5-0.9,3.8l0.2,0.3l-0.2-0.2c-2.5,10.4-6.5,20.1-11.7,29.1h62.7l-0.3-0.1
			L467.2,353.2z"/>
		<polygon fill="#ED4135" points="636.7,327.1 633.3,328.2 629.9,328.6 626.8,327.9 625.8,327 624.5,325.5 623.4,323.6 622.8,321.9
			623.4,319.8 625.1,317.1 624.9,315.7 618.5,320.1 616.9,321.7 615.3,321.3 612.9,320.1 611.4,319.8 610.2,319.8 608.9,320
			607.5,320.8 610.2,324.8 610.9,326.5 611.3,328.2 611.6,331 612.2,332.9 612.9,333.9 615,336.2 615.6,337.1 615.3,338.9
			614.4,340.3 613.2,341.4 612.2,342.1 612.3,342.5 612.4,342.9 612.6,343.2 612.9,343.6 615,342.7 617.6,342.7 620.2,343.3
			622.2,344.2 622,347.1 625.4,348.9 629.5,349.3 632.3,347.6 636,346.6 637.2,346.4 638.4,345.5 638.6,343.3 638.1,338.5
			639.3,335.6 640,331.6 640.1,327.9 639.4,325.7 		"/>
		<polygon fill="#0035AD" points="494.9,222.5 493.8,221.7 493.1,220.5 492.5,219.2 491.7,218 490.6,217.4 489.2,217.6 487.7,218.3
			486.7,219.3 486.5,220.2 487,219.9 487.4,219.8 488.3,220.6 490.1,223.2 490.6,225.2 490.1,227 489.1,229.2 487.9,231.2
			486.8,232.7 486.3,234.1 486.5,240.4 486.2,242.3 485.9,242.7 491.4,242.7 493.1,239.4 490.3,239.7 489,239.7 488.4,239
			488.1,236.1 488.2,234.5 488.8,233.4 490.3,229.4 490.6,229.1 490.7,228.1 491.3,227.1 492.2,226.2 493.4,225.9 496.3,226.1
			497.4,225.7 497.8,224.5 497.3,223.8 		"/>
		<polygon fill="#0035AD" points="258.7,190.1 254.4,184.4 253.7,184.4 253.8,188.8 254.3,190.7 256.5,192.3 259.3,193.8
			261.2,194.3 259.6,192.2 		"/>
		<path fill="#0035AD" d="M248.4,194.9l-2.2-1l-0.9-0.6l-1-2.5l-1.5-1.7l-1.9-1.6l-1.8-1.1l-1.3,0.1l-0.8-0.1l-0.5,1.4l-0.1,1.3
			l0.5,1l1.4,0.5l-0.5,1.2l-0.3,0.5l-0.5,0.4v0.8l1.5-0.3l1.2-0.7l1.2-0.2l1.5,1.2l0.7,1.4l-0.1,1.4l-0.8,1l-1.1,0.5l1.9,2.4
			l0.4,1.3l-0.9,1.2l-2.9-0.8l-1.8,1.4l-0.3,2l1.4,1.1l0.8,0.4l0.2,1l0.5,0.9l1.5,0.4l0.9-0.4l0.9-0.9l0.5-1.2l-0.4-1l1.4-0.6
			l0.6,0.7l-0.1,1.4l-0.7,1.4l0.4,0.2c3-2.2,6.1-4.2,9.3-6L248.4,194.9z"/>
		<polygon fill="#0035AD" points="202.9,149.7 205.8,156.2 208.4,153.9 208.1,153.1 207.1,151.3 206.5,149.8 205.8,146.5
			203.8,141.7 202.7,140.2 201.2,139.4 200.6,140.7 202.2,141.7 202.7,143.2 202.5,147.4 		"/>
		<polygon fill="#0035AD" points="236.4,182.9 235.4,181.7 234.6,178.8 233.8,178 232.9,178.3 232.4,180.7 231.8,181.5 231.8,182.3
			232.7,184.8 233.6,185.5 235,185.1 235.7,186.6 236.2,185.7 236.4,184.9 236.5,183.9 		"/>
		<polygon fill="#FAE600" points="312.5,289.4 312.6,289.4 312.6,289.1 312.5,289.1 		"/>
		<path fill="#FAE600" d="M284.9,252.3c0,0,6.1,7.4,8.5,12.2c4.2,8.6,9.1,10.4,14.8,10.6V272c-7.1-1.1-12.5-7.2-12.5-14.6
			c0-7.4,5.4-13.5,12.5-14.6v-12.4c-4.9,3-8.5,3.6-9.7,4.6c-2.7,2.2-3.8,2-3.8,2c0.2-2,0.4-10.1,0.5-10.9c0.4-2.1,1.3-3.8,2.7-5.3
			l-0.2-0.1l-1.9-1.4l-1.4-1.3l-5.2-6.7l-3.1-2.7l-17.4-6.7h-0.9l-0.2,0.8l0.7,3.4l1.4,3.5l0.9,1.2l-1.8-0.2l-1-1.1l-1.3-2.8h-0.6
			l-2.2,0.8l-1.9-0.4l-4.1-2.3c-2.2,1.3-4.4,2.6-6.5,4l0.8,0.4l1.2,1.3l0.9,1.4l0.4,0.7v3.1l-0.4,1.8l-0.9,1.1l-2.6-0.9l-1.1,0.2
			l0.4,2.1l1,0.9l1.3,0.5l1.2,0.8l0.5,1.7l0.2,1.5l1.1,4.2l1.5,2.2l6.2,4.1l1,1.8l0.5-0.2l0.4-0.1l0.5-0.1l0.5-0.4l2.9,7.1l1.8,1.1
			l2.1,4.8l1.5,1.1l1.7,0.3l1.4,0.9l0.6,1.4l-0.8,1.6l-1.5,0.6l-1.4-0.2l-0.6,0.1l0.9,1.6l1.4,1.4l2.9,1.9l4.2,4.4l1.7,1.1l2.2,0.4
			l1.2,2.2l0.4,0.5c0-0.3-0.1-0.5-0.1-0.8C287.8,260.5,284.9,252.3,284.9,252.3z"/>
		<polygon fill="#FAE600" points="306.9,290.3 307.6,289.7 308.1,289.1 306.5,289.1 		"/>
		<path fill="#FAE600" d="M415.2,318.9l-0.1-0.6l-1.7,0.4l-0.7-2.4l-1.9-2.5l-2.6-1.4l-2.8,0.8l-1.8-1.8l-5.8-1.5l-2.2-1l-0.7-1.1
			l-0.7-1.7l-0.7-1.5l-1-0.7l-1.1-0.4l-1.2-1l-1-1.1l-0.4-1l1.4,0.9l1.3,0.7l1.5,0.4l1.6,0.1l-0.5-0.9l-0.2-0.3l-0.5-0.3l-0.4-1.1
			l-1.2-1.3l-3-2.5l-0.4,0.3l-0.1,0.1l-0.3,0.1l-0.5,0.2l0.4-1.1l-0.2-0.6l-0.7-0.3l-2.5-0.2l-0.7-0.3l-1.3-1.4l-1.2-1.1l-2.7-1.5
			l-3.2-2.4l-0.8-1.1l-0.3-1.8l-0.2-0.8l-0.4-0.7l-0.2-0.7l0.4-0.7l0.2-0.7l0.6-2.3l0.4-3.5l-0.5-0.5l-1.8-0.6l-5.1-0.7l-0.8-0.3
			l-0.5-1.6l-1.2-1l-1.5-0.9l-1.5-1.1l-1-1.5l-1-4.2l0.4-1.6l-0.7-1.4l-2.4-2l-0.8-0.8l-0.3-0.5l-0.4-0.3l-1.2-0.5l-0.6,0.1
			l-0.6,0.3l-0.5,0.4l-0.3,0.1l-0.6-0.3l-0.8-0.9l-0.3-0.2l-10.2-2.1l-3.6-2.9l-1.8-0.6l-1.7-1.5l-3.9-0.2l-1.7-1.2l0.5-1.4
			l-1.5-1.4l-2.9-1.8l-0.9-0.1l-5.1-4.5l-3.5-5l-0.8-0.7l-1.3-0.6v11.2c7.1,1.1,12.5,7.2,12.5,14.6c0,7.4-5.4,13.5-12.5,14.6v3.1
			c5.6-0.3,10.5-2,14.8-10.6c2.3-4.8,8.5-12.2,8.5-12.2s-2.9,8.3-3.3,16.6c-0.6,12.2-11.4,13.5-19.9,13.6v2.2h16.2v4.4h-14.1
			l0.5,0.2l0.5,0.2h0.6v0.8l-0.5,0.4l-0.1,0.4l-0.1,0.8c0.3,0.1,0.6,0.2,0.9,0.2l0.9-0.3l0.5,0.8c4.3,1.6,7.2,4.6,7.2,8
			c0,1.7-0.7,3.3-2,4.7l2.8,3.5l0.7,1.2l0.5,0.7l0.8,0.5l0.8,0.1l0.6,0.2l0.8,1l-0.6,0.8l-0.3,1l-0.1,0.9l-0.4,0.8l0.6,1.1l0.8,0.8
			l1,0.2l1.1-0.6l0.7-1.4l-0.3-2.2l0.9-1.3l2.3,1.6l0.5,1l-0.8,1.5l2.1-0.4l1.5,0.9l0.2,1.8l-1.9,2l1.1,0.5l0.9-0.1l0.7-0.5l0.8-0.6
			l0.4,1.4l0.9,0.5l0.9-0.5l0.3-1.4h-0.1l0.6-0.3l0.9-0.3h0.7l0.9,0.8l-0.1,0.4l-0.3,0.5l0.1,1l3.7,6.4l0.3,0.2l1.3,1.5l0.3,0.7
			l0.7,0.2h0.9l0.8,0.2l2.7,2.1l1.2,0.6l1.9,0.2l0.2,0.7l0.9,3.2l0.8,1.4l1.3,1.1l10.2,4.6l1.8,0.3l1.5-0.5l1.6-0.9l1.6-0.4l1.6,1.2
			l-1.4,0.4l-0.2,0.5l0.8,0.2l1.4-0.5v0.8l-1.2,2.2l2.9,2.7l13,6.4l0.5,0.1l0.6-0.3l0.1-0.5l0-0.5l0.1-0.2l1.8-0.2l0.1,0.1
			C407.3,345,412.5,332.4,415.2,318.9z"/>
		<path fill="#FAE600" d="M308.1,282.5c-1.7,0-3.6-0.1-5.4-0.3l-0.4,0.3l1.6,1l0.8,1.2h3.4V282.5z"/>
		<path d="M417.8,324.2l-1.8-1.6l-0.8-3.7c-2.7,13.5-7.9,26.1-15.2,37.3l0.6,0.4l0.1,1.2l-0.1,2.1l1.6-0.4l0.1,0
			c1.3-2,2.6-4,3.8-6.1C411.3,344.3,415.3,334.6,417.8,324.2z"/>
		<path d="M418.3,320.3l-1,0.5l-0.4,0.7l0.1,0.8l0.8,1.7c0.3-1.3,0.6-2.5,0.9-3.8H418.3z"/>
		<path d="M257,204.8l-1.5-1.3l-0.9-1c-3.2,1.9-6.3,3.9-9.3,6l0.7,0.3l4.5,0.2l0.3,0.2c2.1-1.4,4.3-2.8,6.5-4L257,204.8z"/>
		<path d="M328.8,284.7h-16.2v-2.2c-0.8,0-1.5,0-2.2,0s-1.5,0-2.2,0v2.2h-3.4l0.5,0.8l1.3,3.7h1.6l0.2-0.2l-0.6-1.1l0.8-0.6l1.2-0.2
			l0.6,0l0.4,1.6l0.9,0.8l1-0.2v-0.2h0.1l0.2-1l1.1-0.5h0.7l0.1,0.5l-0.5,0.8l0.5,0.2h14.1V284.7z"/>
		<path d="M308.1,272v3.1c0.7,0,1.5,0.1,2.2,0.1s1.5,0,2.2-0.1V272c-0.7,0.1-1.5,0.2-2.2,0.2C309.6,272.2,308.8,272.1,308.1,272z"/>
		<path d="M308.1,230.5v12.4c0.7-0.1,1.5-0.2,2.2-0.2c0.8,0,1.5,0.1,2.2,0.2v-11.2l-0.2-0.1l-1.9-2.6
			C309.6,229.5,308.9,230,308.1,230.5z"/>
		<path d="M315.5,292.4l1-0.3c-0.3-0.1-0.6-0.2-0.9-0.2L315.5,292.4z"/>
		<path d="M317.9,292.6l0.2,0.3l0.2,1.8l-0.1,1.6l0.2,2.2l0.5,1.4l4.3,5.3c1.2-1.4,2-3,2-4.7C325.1,297.2,322.2,294.2,317.9,292.6z"
			/>
		<path d="M308.1,242.9c-7.1,1.1-12.5,7.2-12.5,14.6c0,7.4,5.4,13.5,12.5,14.6c0.7,0.1,1.5,0.2,2.2,0.2c0.8,0,1.5-0.1,2.2-0.2
			c7.1-1.1,12.5-7.2,12.5-14.6c0-7.4-5.4-13.5-12.5-14.6c-0.7-0.1-1.5-0.2-2.2-0.2C309.6,242.7,308.8,242.7,308.1,242.9z"/>
		<path d="M294.6,237.1c0,0,1.1,0.2,3.8-2c1.2-1,4.8-1.6,9.7-4.6c0.7-0.4,1.5-1,2.3-1.5l-0.8-1l-1.4-1.3l-3-1l-1-0.5l-3-2.8
			l-1.6-0.4l-1.8-1c-1.3,1.4-2.3,3.1-2.7,5.3C295,227,294.8,235.1,294.6,237.1z"/>
		<path d="M310.3,282.5v-7.4c-0.7,0-1.5,0-2.2-0.1c-5.6-0.3-10.5-2-14.8-10.6c-2.3-4.8-8.5-12.2-8.5-12.2s2.9,8.3,3.3,16.6
			c0,0.3,0,0.5,0.1,0.8l0,0l1,0.5l2,0.1l1,0.3l2.3,2.3l1.5,0.8l1.5-1.1h0.6l0.1,1.6l0.8,0.4l1.2,0.2l1.2,0.6l0.5,1.1l-0.1,1
			l-0.8,0.7l-1.5,0.1l1.6,1.2l2.1,0.8l0.8,0.9l-1.4,1.1c1.8,0.2,3.7,0.3,5.4,0.3C308.9,282.5,309.6,282.5,310.3,282.5z"/>
		<path d="M310.3,282.5c0.7,0,1.5,0,2.2,0c8.5-0.1,19.3-1.4,19.9-13.6c0.4-8.3,3.3-16.6,3.3-16.6s-6.1,7.4-8.5,12.2
			c-4.2,8.6-9.1,10.4-14.8,10.6c-0.7,0-1.5,0.1-2.2,0.1V282.5z"/>
	</g>
	<path fill="none" stroke="#999999" stroke-width="0.25" stroke-linecap="round" stroke-linejoin="round" d="M236.4,182.9l-1-1.2
		l-0.8-2.8l-0.9-0.8l-0.8,0.2l-0.5,2.4l-0.7,0.8v0.8l0.9,2.5l1,0.8l1.4-0.5l0.7,1.5l0.5-0.8l0.2-0.9l0.1-1L236.4,182.9z
		 M254.3,190.7l2.2,1.6l2.8,1.5l1.9,0.5l-1.5-2.1l-1-2.1l-4.3-5.7h-0.7l0.1,4.4L254.3,190.7z M512.1,426l-1-0.1l-1.3,0.4l-1.2,0.8
		l-0.3,0.9l-0.1,1l-0.7,1.2l-0.7,1.5l0.9,0.7l1.4,0.3l0.7,0.3l0.7-0.1l1.1-0.7l0.2-0.8l-1.9-0.3v-0.6l1.4-0.5l0.5-0.4l0.7-0.7
		l0.6,0.7l0.5-0.1l0.3-0.7v-1.2l-0.9-1.1L512.1,426z M471.5,253.3l0.5,0.3l0.6,0.6l2.4-0.8l1-0.4l0.5-0.9L474,252l-0.8,0.1l-0.9-0.1
		l-0.9,0.1l-0.7,0.2l-0.7,0.5l0.9,0.2L471.5,253.3z M207.1,151.3l-0.5-1.5l-0.7-3.3l-2-4.8l-1.1-1.5l-1.5-0.8l-0.6,1.3l1.6,1
		l0.5,1.5l-0.2,4.2l0.4,2.2l2.9,6.5l2.5-2.3l-0.2-0.8L207.1,151.3z M581.9,447.1l-1.2-1.2l-1-1.8l-1.7-1.5l-2.6-1.2l-2.6-0.6
		l-1.8,0.5l-0.8,2.1v6.1l-0.5,2.6l5.5,2.2l3.1,0.4l1.3-2.3l-0.5-2.6l-0.1-1.4l0.5-0.8l1,0.2l1.2,2.6l1.2,0.9l-0.1-2.8L581.9,447.1z
		 M570.3,294.2v-4l0.7-1.5l3.2-1.2l-0.6-1.4l-1.4-1.4l-1.2-0.9l-1.1-0.4l-1.1-0.1l-1-0.4l-0.8-1.2l0-0.9l0.3-1l1.1-1.8l-0.5-0.5
		l-0.6-1.1l-0.4-0.5l-0.5-1.1l-0.7-0.3l-1,0.1l-1.1-0.1l-2.5-0.9l-0.8-0.6l-1-1l-0.9-0.6l-1-0.3l-0.8-0.4l-0.3-0.8l0.3-1.2l1.3-2.1
		l0.4-1.3l-1.3-2.8l-0.6-2.7l-0.1-1.2l0.6-2l1.2-1.8l0.8-1.8l-0.7-1.8l-1.4-0.2l-7.3-4.1l-3.4,1l-0.1,1.1l-0.5,1.1l-0.8,0.8
		l-0.9,0.3l-1.1-0.1l-0.8-0.1l-0.7-0.3l-0.7-0.6l-0.7-0.2l-3.3,0.5l-2,1l-1.1,2.2l-0.4,2.2l0.2,1l7.4-0.8l5.1,2.2l1.2,0.7l0.5,2.2
		l-1,2.1l-2.9,3.5l-1.6,2.8l-1.2,1.2l-1.8,1.1l-2,0.4l-6-0.4l0.7,1.4l3.9,3.5l-0.6,1.4l-0.1,1.4l0.6,1.1l2,0.8l0.4,0.8l0.1,0.9
		l0.3,0.7l2.3,2.5l2.5,2.2l2.8,1l8.9,1l0.5,0.5l0.2,1.8l0.7,1l1.6,0.4l1.6,0.2l0.8,0.5l0.8,3.1l1.9,0.8h2.2l1.6,0.7l1.5-1l1.1-1
		l0.6-1.3L570.3,294.2z M479.9,251.4l2-0.2l2.3-0.7l2.2-1l1.5-1l1.6-2.1l3.7-7.1l-2.8,0.3H489l-0.6-0.7l-0.3-2.9l0.1-1.6l0.6-1.2
		l1.5-4l0.2-0.3l0.2-1l0.6-1.1l0.9-0.8l1.2-0.3l2.9,0.1l1.1-0.3l0.4-1.2l-0.5-0.7l-2.4-1.3l-1.1-0.8l-0.7-1.2l-0.6-1.3l-0.8-1.2
		l-1.2-0.6l-1.4,0.2l-1.5,0.7l-1.1,1l-0.2,0.9l0.5-0.4l0.4-0.1l0.9,0.9l1.8,2.6l0.4,1.9l-0.5,1.8l-0.9,2.2l-1.2,2l-1.1,1.5l-0.5,1.5
		l0.2,6.3l-0.3,1.8l-0.8,1.3l-1.6,2.2l-2.5,2.6l-1.4,1l-1.5,0.7l0.6,0.7L479.9,251.4z M639.4,325.7l-2.7,1.4l-3.4,1.1l-3.5,0.4
		l-3-0.7l-1-0.9l-1.4-1.6l-1.1-1.9l-0.5-1.7l0.5-2l1.8-2.8l-0.2-1.4l-6.4,4.4l-1.7,1.5l-1.6-0.4l-2.4-1.2l-1.5-0.3h-1.2l-1.2,0.2
		l-1.4,0.8l2.7,4l0.8,1.7l0.4,1.7l0.3,2.8l0.5,1.9l0.7,1l2.2,2.4l0.5,0.9l-0.2,1.8l-0.9,1.4l-1.2,1.1l-1.1,0.7l0.1,0.5l0.1,0.4
		l0.2,0.3l0.2,0.3l2.1-0.9l2.6,0.1l2.6,0.6l2,0.9l-0.2,2.9l3.4,1.7l4.1,0.4l2.8-1.6l3.7-1.1l1.2-0.2l1.2-0.9l0.2-2.2l-0.5-4.8
		l1.2-2.9l0.7-4l0.1-3.8L639.4,325.7z M528.4,405.6l-1.3-2.1l-0.8-1l-0.9-0.5l-1.4-0.2l0.1-0.6l0.6-0.7l0.4-0.6l0.1-2.7l-0.1-0.9
		l-1.1-1.9l-0.9-1.2l-4.9-3.9l-1.4-0.8l-5.7-1.4l-2.1-0.3l-1.5-0.4l-1.1-1.1l-0.7-1.9l-0.6,0.4l-0.8-0.2l-1.1-0.5l-1.2-0.3l-2.8,0.4
		l-0.8-0.4v-0.8l1-0.2l0.8-0.2l0.7-0.4l0.8-0.5v-0.8l-1.3-0.5l-3.3-2.4l-1,1.5l-2.3-1.7l-2.6-2.6l-1.8-1.4l-1.9-1l-4.3-4.9l-2.2-1.9
		l0.7-0.7l-1.8-0.7l-0.5-0.4l-0.7-0.9l-0.3-1.9l-0.4-0.8l-3.8-2.8l-1.1-2l-1.4-0.7l-3.3-0.8l-1.4-0.1l-0.7-0.3l-0.3-0.5l-0.1-0.7
		l-0.2-0.6l-0.7-0.5v-0.7h2.7v-0.7l-7.7-2.4l-3.6-1.8l-3.4-2.2l-1-1.8l-0.5-0.4l-1.2-0.4l-0.7-0.3l-5-4.5l-1.6-0.9h-1.8l-2.3,1.1
		l-0.2-1.2l-0.2-2l-0.2-1.1l-0.8-0.1l-0.6-0.2l-0.4-0.4l0.2-0.5l0.9-0.2l0.7-0.3l-0.2-0.6l-1-0.5l-2.4-0.3l-1-0.3l-3-3.3l-1.9-1.2
		l-0.8,0.7l0.2,1.9l0.8,2.5l0.5,0.8l0.6,0.8l0.6,0.9l0.2,1.4l-0.7,0.3l-1.2,0.3l-0.8-0.1l0.6-0.9l-4-2.5l-0.7-1.1l2.1,0.5l0.5-0.9
		l-0.7-1.8l-3.3-6.3l-1.4-1.8L420,318l0.9,1l0.4,1.2l-0.1,1.1l-0.5,0.9l-0.6-1.3l-0.9-0.7h-0.9l-1,0.5l-0.4,0.7l0.1,0.8l1,2.1
		l-1.9-1.8l-1-4.3l-1.7,0.4l-0.7-2.4l-1.9-2.5l-2.6-1.4l-2.8,0.8l-1.8-1.8l-5.8-1.5l-2.2-1l-0.7-1.1l-0.7-1.7l-0.7-1.5l-1-0.7
		l-1.1-0.4l-1.2-1l-1-1.1l-0.4-1l1.4,0.9l1.3,0.7l1.5,0.4l1.6,0.1l-0.5-0.9l-0.2-0.3l-0.5-0.3l-0.4-1.1l-1.2-1.3l-3-2.5l-0.4,0.3
		l-0.1,0.1l-0.3,0.1l-0.5,0.2l0.4-1.1l-0.2-0.6l-0.7-0.3l-2.5-0.2l-0.7-0.3l-1.3-1.4l-1.2-1.1l-2.7-1.5l-3.2-2.4l-0.8-1.1l-0.3-1.8
		l-0.2-0.8l-0.4-0.7l-0.2-0.7l0.4-0.7l0.2-0.7l0.6-2.3l0.4-3.5l-0.5-0.5l-1.8-0.6l-5.1-0.7l-0.8-0.3l-0.5-1.6l-1.2-1l-1.5-0.9
		l-1.5-1.1l-1-1.5l-1-4.2l0.4-1.6l-0.7-1.4l-2.4-2l-0.8-0.8l-0.3-0.5l-0.4-0.3l-1.2-0.5l-0.6,0.1l-0.6,0.3l-0.5,0.4l-0.3,0.1
		l-0.6-0.3l-0.8-0.9l-0.3-0.2l-10.2-2.1l-3.6-2.9l-1.8-0.6l-1.7-1.5l-3.9-0.2l-1.7-1.2l0.5-1.4l-1.5-1.4l-2.9-1.8l-0.9-0.1l-5.1-4.5
		l-3.5-5l-0.8-0.7l-1.5-0.7l-2.7-3.7l-1.4-1.3l-3-1l-1-0.5l-3-2.8l-1.6-0.4l-2.1-1.1l-1.9-1.4l-1.4-1.3l-5.2-6.7l-3.1-2.7l-17.4-6.7
		h-0.9l-0.2,0.8l0.7,3.4l1.4,3.5l0.9,1.2l-1.8-0.2l-1-1.1l-1.3-2.8h-0.6l-2.2,0.8l-1.9-0.4l-4.5-2.5l-1.5-1.3l-7.1-8.5l-2.2-1
		l-0.9-0.6l-1-2.5l-1.5-1.7l-1.9-1.6l-1.8-1.1l-1.3,0.1l-0.8-0.1l-0.5,1.4l-0.1,1.3l0.5,1l1.4,0.5l-0.5,1.2l-0.3,0.5l-0.5,0.4v0.8
		l1.5-0.3l1.2-0.7l1.2-0.2l1.5,1.2l0.7,1.4l-0.1,1.4l-0.8,1l-1.1,0.5l1.9,2.4l0.4,1.3l-0.9,1.2l-2.9-0.8l-1.8,1.4l-0.3,2l1.4,1.1
		l0.8,0.4l0.2,1l0.5,0.9l1.5,0.4l0.9-0.4l0.9-0.9l0.5-1.2l-0.4-1l1.4-0.6l0.6,0.7l-0.1,1.4l-0.7,1.4l1.1,0.5l4.5,0.2l1.1,0.6
		l1.2,1.3l0.9,1.4l0.4,0.7v3.1l-0.4,1.8l-0.9,1.1l-2.6-0.9l-1.1,0.2l0.4,2.1l1,0.9l1.3,0.5l1.2,0.8l0.5,1.7l0.2,1.5l1.1,4.2l1.5,2.2
		l6.2,4.1l1,1.8l0.5-0.2l0.4-0.1l0.5-0.1l0.5-0.4l2.9,7.1l1.8,1.1l2.1,4.8l1.5,1.1l1.7,0.3l1.4,0.9l0.6,1.4l-0.8,1.6l-1.5,0.6
		l-1.4-0.2l-0.6,0.1l0.9,1.6l1.4,1.4l2.9,1.9l4.2,4.4l1.7,1.1l2.2,0.4l1.2,2.2l0.5,0.5l1,0.5l2,0.1l1,0.3l2.3,2.3l1.5,0.8l1.5-1.1
		h0.6l0.1,1.6l0.8,0.4l1.2,0.2l1.2,0.6l0.5,1.1l-0.1,1l-0.8,0.7l-1.5,0.1l1.6,1.2l2.1,0.8l0.8,0.9l-1.8,1.4l1.6,1l1.2,2l1.8,4.8
		l0.7-0.7l0.7-0.8l-0.6-1.1l0.8-0.6l1.2-0.2l0.6,0l0.4,1.6l0.9,0.8l1.1-0.2l0.2-1.2l1.1-0.5h0.7l0.1,0.5l-0.5,0.8l0.9,0.5l0.5,0.2
		h0.6v0.8l-0.5,0.4l-0.1,0.4l-0.2,1.4l1.9-0.7l0.8,1.1l0.2,1.8l-0.1,1.6l0.2,2.2l0.5,1.4l7.1,8.7l0.7,1.2l0.5,0.7l0.8,0.5l0.8,0.1
		l0.6,0.2l0.8,1l-0.6,0.8l-0.3,1l-0.1,0.9l-0.4,0.8l0.6,1.1l0.8,0.8l1,0.2l1.1-0.6l0.7-1.4l-0.3-2.2l0.9-1.3l2.3,1.6l0.5,1l-0.8,1.5
		l2.1-0.4l1.5,0.9l0.2,1.8l-1.9,2l1.1,0.5l0.9-0.1l0.7-0.5l0.8-0.6l0.4,1.4l0.9,0.5l0.9-0.5l0.3-1.4h-0.1l0.6-0.3l0.9-0.3h0.7
		l0.9,0.8l-0.1,0.4l-0.3,0.5l0.1,1l3.7,6.4l0.3,0.2l1.3,1.5l0.3,0.7l0.7,0.2h0.9l0.8,0.2l2.7,2.1l1.2,0.6l1.9,0.2l0.2,0.7l0.9,3.2
		l0.8,1.4l1.3,1.1l10.2,4.6l1.8,0.3l1.5-0.5l1.6-0.9l1.6-0.4l1.6,1.2l-1.4,0.4l-0.2,0.5l0.8,0.2l1.4-0.5v0.8l-1.2,2.2l2.9,2.7
		l13,6.4l0.5,0.1l0.6-0.3l0.1-0.5l0-0.5l0.1-0.2l1.8-0.2l0.7,0.5l0.1,1.2l-0.1,2.1l1.6-0.4l1.3-0.9l1-1.4l0.8-1.6h0.7v1.9l0.8,1.2
		l1,0.9l0.8,1.1l0.2,1.7l-0.1,1.5l0.3,1.1l1.6,0.6l-0.3-1.1l-0.1-1l0.4-0.7l1-0.2l0.9,0.3l-0.1,0.8l-0.4,1v0.8l2.8,2.6l0.6,1.1l-2-1
		l0.2,1.6l0.9,0.6h2.8l0.7-0.1l0.5-0.4l0.5-0.2l0.6,0.3l1.3,1.1l0.7,0.5l0.7,0.1l1.4,0.8l2,3.4l3,1.1l0.9,1l1.4,1.9l1.3,0.8l0.7-0.8
		l0-1.2l-0.3-0.5l0.7,0.1l1.1,0.2l1.1,0.1l0.4-0.6l0-2.6l0.5-1l1.5-0.9l-0.1,1.2l0.4,1l0.7,0.8l1.1,0.5l-1.1,1l-0.2,0.8l0.7,0.3
		l1.2-0.7l3.4,1l1.2,1l0.8,2.3l-0.3,0.4l-0.4,1.2l-0.1,1.4l0.5,0.7l1.1,0l0.8,0.3l0.4,0.6l0.1,1.1l-1-0.5l-1.1-0.2h-2.7l0.8,1.1
		l1.9,0.8l0.6,1v1.7l-0.8,0.4l-1.1-0.5l-0.8-1h-0.6v1.1l-0.1,0.8l-0.2,0.5l-0.4,0.5l1,0.8l1.1,0.6l1.5-2l1.2,0.2l1.1,1.1l1.2,0.7
		l1.4,0.4l1.3,1.1l0.9,1.5l0.1,2h1.7l1.5,0.8l1.6,0.7l1.9-0.8l-0.2-1l2.5,0.6l1-1h0.6l-0.1,0.9l-0.2,0.6l-0.4,0.3l-0.6,0.3v0.6
		l2.4,2.3l1,0.7l-0.8,1.1l-0.2,1.1l0.5,0.7l0.9-0.4l0.7-0.9l0.3-0.8l0.5-0.5l1.2-0.2l0.2-0.4l0.4-2l0.4-0.6l0.9-0.2l2.1,0.3l0.9-0.1
		l-0.3,3.4l0.6,0.9l1.8,0.1l-0.8,1.1l-1.3,0.4l-3.1-0.1l0.9,1.2l1.1,0.8l1.3,0.3l1.4-0.1v0.7l-0.7,1.1l-0.2,2.7l-0.3,0.9l0.2,0.9
		l1.3,0.5l1-0.5l-0.8-1.9l0.3-0.1l0.2-0.1l0.1-0.2v-0.5l2,0.5l0.9-1.6l0.7-2.3l1.1-1.5l1-0.1l2.8,0.4l0.9,0.3l1.1,1.1l-0.5,0.6
		l-0.6,0.6l0.3,1l0.8,0.6l2.4,1l0.8,0.2l1-0.3l2.2-1l0.4,0.2l0.9,1.5l2.1,1.5l2.3,0.8l1.5-0.5l0.7,0.7l-0.6,1.9l1.4,0.9l2.1,0.2
		l1.8-0.2v0.6l-1.9,1.1l-0.1,1.4l1.3,1.3l2.5,0.6l0.7-0.2l0.8-0.5l0.7-0.6l0.2-0.5l0.5,0.1l1.2,0.3l1.3,0.2l1.1-0.2l-1.8-1.3
		l-0.3-0.1l-0.3-1.2V421l0.2-0.5l0.4-3l0.7-1.4l0.9-0.3l0.9,1.3l-0.9,0.5l-0.5,0.1l0.6,1l0.5,1.2l0.5,0.9l0.8,0.4l0.2-0.7l0.6-1.4
		l0.6-0.8l0.3,1.2l0.4,0.4l0.8,1.5l0.5,1.4l0.8,0.9l0.7-0.2h1.5l-0.6,0.9l-0.8,0.5l-2,0.8l2.4,0.4l1.8-0.8l3.1-2.4l-0.4-1l-0.1-0.5
		l0.5-0.3l1.2-0.5l0.5-0.5l0.6-0.2l0.3,0.5l0.2,0.5l0.7-0.8l0.5-0.7l0.8-1.4l0.7-2.5l0.4-0.7l0.3-1l-0.5-0.8l-0.7-0.8l-0.2-0.7
		l0.5-0.6l0.7-0.1l0.6-0.1l0.2-1l-0.5-1.1L528.4,405.6z"/>
</g>

</svg>
