<?xml version="1.0" encoding="utf-8"?>

<svg version="1.2" baseProfile="tiny" xmlns="http://www.w3.org/2000/svg" xmlns:xlink="http://www.w3.org/1999/xlink" x="0px"
	 y="0px" viewBox="240.2 156.6 359.2 281.6" xml:space="preserve">

<g id="Niger">
	<g>
		<path fill="#0DB02B" d="M315.3,353l-0.4-0.1l-0.1,0c-3.1-0.5-6.2-1.1-9.4-1.6l-0.9,0l-0.4,0.1l-0.2,0.1l-0.1,0.2l0,0.4v0.9
			l-0.1,0.3c-4,0.1-8.1,0.3-12.1,0.4c-8.6,0.3-17.3,0.6-25.9,0.9l-0.8,0.2l-0.6,0.4c-2.3,2.1-4.5,4.2-6.8,6.3l-0.6,0.3l-0.6,0.1
			l-3.5,0.1c-0.4,0.2-0.9,0.3-1.3,0.5l-0.6,0.2l-0.3,0l-3.5-1.3l-0.7,0l-1.5,0.5l-0.7,0.2l-0.8,0l-3-0.8l-0.2,0.2l0,0.6
			c0.1,0.6,0.1,1.1,0.2,1.7l-0.2,0.3l-0.3,0.3l-0.3,0.4l0,0.7l0.7,1.4l0.2,0.7l-1.5,4.3l0.1,1.2l0.7,1.1l3.6,3.3l1,1.3l0.1,0.1
			l0,0.2l-0.2,0.3l-0.1,0.2l-0.1,0.7l-0.1,0.3l-0.5,0.8l-0.1,0.3l0.1,0.3l0.3,0.4l0.1,0.2l0.1,0.1l0.1,0.1l0.1,0.2l0,0.2l-0.2,0.4
			v0.2l0.2,0.2l0.3,0.2l0.2,0.2l0,0.4l0.2,0.4l0.4,0.3l0.4,0.2l0.2,0.3l0,0.2l-0.2,0.4l0,0.2l0.1,0.2l0.5,0.3l0.2,0.2l0.2,0.4
			l0.3,0.4l0.3,0.3l0.8,0.5l0.2,0.3l0.3,0.3l0.4,0.2l0.2,0.2l-0.1,0.4l-0.2,0.5l-0.1,0.4l0.3,0.6l0.6,0.2l3-0.1l0.2,0l0.1,0.2v0.2
			l0,0.1l0,0.1l-0.1,0.1l0,0.2l0.3,0.3l0.4,0.2l0.4,0l0.9-0.1l1.1,0.3l1.2,0.7l0.9,1l0.1,1l0.4,0.7l0.8,0.6l2.5,1.2l0.4,0.1l1,0.1
			l0.4,0.1l0.4,0.3l0.4,0.5l-0.6,0.3l-0.4-0.2l-0.4-0.3l-0.4-0.1l-0.1,0.1l-0.1,0.3l-0.2,0.8l-0.2,0l-0.5-0.2l-1.2-0.3l-1.8-0.7
			l-0.5-0.1l-0.3,0.9c0,2,0,4,0,6.1l0.1,0.4l0.2,0.4l0.7,0.4l1.6,0.1l0.7,0.3c3.2,2.7,6.4,5.4,9.6,8.1l0.6,0.4l0.8,0.2
			c1.7,0.2,3.5,0.3,5.2,0.4l0.4,0l0.4-0.3l0.3-0.4l0.2-0.5l0.4-0.6l0.2-0.3l0.1-0.1l0.2,0l0.2,0.1l0.2,0l0.2-0.2l0.4-0.4l0.2-0.1
			l2.2,0.2l0.9,0.2l0.6,0.7l0.1,0.5l0.1,0.1l0.2,0.2l0.2,0.2l0.4,0.3l0.2,0.3l0.2,0.3l0.1,0.3l0.2,1.4l0.1,0.3l0.2,0.4l0.1,0.2
			l0.3,0.3l0.1,0.2v0.1l-0.1,0.2v0.1l0,0.5l-0.2,0.3l-0.3,0.1l-1.4,0.1l-0.1,0l-0.2-0.1l-0.1,0l-0.1,0.1l-0.2,0.2l-0.1,0.1l-1.3,0.3
			l-0.3,0.3l-0.1,0.7l0.4,0.8c2,2.8,4.1,5.7,6.1,8.5l1.2,1l0-0.2l-0.3-0.4l0-0.3l0.1-0.3l0.2,0l0.2,0l0.2-0.1l0.2-0.2l0.2-0.3
			l0.2-0.2l0.2,0l0.2,0.1l0.2,0l0-0.4l0-0.3l-0.1-0.1l-0.2,0l-0.3-0.1l-0.2-0.2l-0.2-0.2l-0.1-0.2l-0.8-2.2l-0.2-1.3l0-0.5l0.2-0.4
			l0.6-0.3l0.3,0l0.5,0l0.3,0l0.1-0.1l0.2-0.3l0.1-0.1l0.2,0l0.1,0.1l0.1,0l0.1-0.2l0.1-0.3l0.2-0.1l0.2,0l0.3,0l0.1,0.1l0,0.1
			l0.1,0.1l0.2,0l0.1-0.1l0.2-0.2l0.1-0.1l0.8-0.2l0.1,0l0.2,0.1l0.1,0l0.1-0.1l0.3-0.2l0.2,0l0.8,0.2l0.2-0.1l0.3-0.5l0.1-0.2
			l0-0.2l0.1-0.2l0.1-0.1l0.3-0.1l0.2,0.2l0.2-0.1l0.2-0.2l0.4-0.4l0.3-0.2l0.2,0l0.5,0l0.2,0l0.5,0l0.3-0.4l1.1,1l0.5,0.3l0.2,0.3
			l0.2,0.3l0.1,0.5l0.2,0.2l0.2,0.1l0.3,0.1l0.8,0.1l0.2,0.1l0.1,0.1l0.2,0.4l0.9,1.4l3.9,3.6l0.1,0.1l0.3,0.2l0.1,0.1l0.1,0.5
			l0.1,0.5l0.2,0.4l0.5,0.9l0.3,0.4l0.2,0.2l0.3,0.2l0.3,0.1l0.3-0.1l0.3-0.2l0.3,0.1l0.2,0.1l0.3,0.1l1,0.6l0.8,0.3l0.2,0.2
			l0.2,0.2l0.8,1.1l0.2,0.1l0.1,0.1l0.1,0.1l0.1,0.2l0.1,0.4l0.1,0.2l0,0.2l0.1,0.2l0.2,0.1l0.2,0.4l0.2,0.1l1.2-0.7l0.3-0.3
			l0.2-0.5l-0.1-0.5l-0.3-0.4l-0.5-0.6l-0.1-0.1l-0.1-0.1l-0.1-0.2l-0.1-0.2l-0.1-1.3l0.1-0.4l0.3-0.3l0.4-0.4l0.4-0.8l-0.1-0.8
			l-0.6-1.7l0-1l0.6-3l-0.2-5.8l0.1-0.3l5-3.7l1.5-1.4l3.6-5.7l0.8-5.5l0.1-5.6l1.5,0l0.7-0.1l0.6-0.3l3.6-3.4l1.1-0.8l1.2-0.5
			l7.2-1.8l0.7-0.1l0.5,0.2l0.5,0.5l0.5,0.2l1.3,0.1l2.3-0.4l3.3,0.1l0.8-0.2l0.3-0.1l0.7-0.5l0.3-0.4l0.4-0.9l0.3-0.3l0.6-0.3
			l3.4-0.6l0.7,0.2l12.9,5.1l0.2,0.1l0.1,0.1l0.2,0.1l0.2-0.1l1.3-0.7l0.4-0.1l1.7,0.3l1.5,0.9l3.2,3l3.7,4.1l2.4,4.4l1.3,1.6
			l0.8,0.8l0.7,0.5l0.7,0.3l0.8,0.1l1.7,0l0.5-0.1l0.5-0.2l1.1-1l1.4-1.6l0.5-0.1l2.4,0.4h0.8l0.7-0.2l8.3-5l0.8-0.3l0.8-0.1
			l5.8,0.8l0.6,0.2l0.3,0.2l0.5,0.5l0.6,0.4l0.8,0.6l0.3,0.2l0.7,0.2l0.3,0.2l0.3,0.3l0.6,0.7l2.3,2.1l0.2,0.1l0.2,0.1l0.1,0
			l0.1-0.1l0.3-0.1l0.3-0.1l0.6-0.1h0.3l0.6,0.1l0.5,0.3l1,0.8l0.5,0.5l0.7,1.1l0.4,0.5l0.8,0.5l6,1.8l7.4,0.9h0.8l1.2-0.3l0.4,0
			l4.8,0.6l0.5,0l0.2-0.1l0.2-0.2l0.3-0.2l4.1-4.8l0.8-0.7l0.4-0.3l0.2-0.1l0.1,0l0.1,0l0.2-0.2l0.1-0.2l0.1-0.6l0.1-0.2l0.4-0.4
			l4.3-2.4l0.9-0.4l11.7-2.5l2.2-0.2l4.1,0.5l11.1-0.1l6.9,1.7l2.5,1l3.2,1.9l1,0.8l0.5,0.2l1.3,0.3l0.8-0.1l0.3-0.1l0.5-0.3
			l0.4-0.1l1.1,0.4l0.3,0.1l0.1,0.2l0,0.1l0,0.1l0.2,0l0.1-0.1l0.1-0.1l0.1-0.1l0.2,0l0.2,0.1l0.2,0.2l0.2,0.1l0.2-0.1l0.4,0.1
			l1.4,0l0.5,0.1l0.4,0.2l0.4,0.1l0.3-0.2l0.1-0.3l0.2-1.2l0.1-0.1l0.5-0.1l0.2-0.1l0.2-0.2l0.1-0.2l0.1-0.5l-0.4-0.1l0.2-0.3
			l0.3-0.4l0.1-0.4l0.8-0.8l0.1-0.1l0.1,0.1l0.2-0.1l0.2-0.1l0.2-0.2l0-0.1l0-0.4l0.2,0.2l0.2,0.2l0.2,0.2l0.3,0.1l0.2-0.1l0.2-0.5
			l0.3-0.1l0.5-0.1l0.4-0.3l0.6-0.7l0.2-0.4l0,0l0.1-0.1l0.1,0.1l0.1,0.2l0,0.1l0.3,0l0-0.1l-0.1-0.2l-0.1-0.3l0.1-0.1l0.3-0.1
			l0.1-0.1l0.1,0l0.2,0l0.1,0l0-0.1l0-0.2l0-0.1l0.6-0.7l0.3-0.3l-0.1-0.2l-0.1-0.1l-0.2-0.1l-0.2-0.1v-0.2l0.4,0.1l0.3,0.1l0.2,0
			l0.1-0.4l0.6,0.1l0.6-0.1l2.1-1l0.6-0.2l0.6-0.1v0.1l-0.1,0.2l0.3,0.1l0.4,0l0.4-0.1l0,0.1l0,0.3l0.2-0.2l0.2-0.4l0.1-0.1l0.2,0
			l0,0.2l0,0.2l-0.1,0.2l0.6-0.3l0.6-0.1l0.5-0.2l0.4-0.5l-0.3,0l0-0.1l0.2-0.3l0.1,0l0.2,0l0.1,0l0.1-0.2l0-0.1l-0.1-0.2l0-0.1
			l0.1-0.2l0.2-0.2l0.9-0.9l0.3-0.2l0-0.4l0.2-0.2l0.7-0.1l5.6,0.2c-0.8-3.7-1.6-7.4-2.5-11.2l-0.2-0.8l-0.2-1.1
			c-0.3-0.9-0.5-1.9-0.8-2.8l0-1.4l0.7-1l0.6-0.3l0.8-0.3l0.9-0.1l0.9-0.2l0.8-0.6l0.2-0.4l0-0.4l-0.2-0.9l-0.1-0.1l-0.2-0.2l0-0.1
			l0.1-0.1l0.5-0.3l0.7-0.8l0.2-0.2l0.5-0.1l0.4,0l0.3-0.2l0.2-0.6l0-0.5l-0.3-1l-0.1-0.5l0-0.5l0.1-0.5c0.6-1.2,1.1-2.4,1.7-3.6
			c2.4-3.4,4.9-6.8,7.3-10.2H315.5L315.3,353z"/>
		<path fill="#FFFFFF" d="M368.4,255l-1,0.7l-1,0.4c-3.1,0.6-6.2,1.2-9.2,1.9c-8.5,1.7-17,3.4-25.4,5.1c0,8.5,0.1,17.1,0.1,25.6
			c0,8.5,0.1,17,0.1,25.6l-0.3,0.2l-0.2,0l-0.2,0.1L331,315l0,0.4l0.1,2.3L331,318l-0.3,0.5l-0.1,0.2c0,3.1,0,6.2,0,9.3l-0.2,0.6
			l-0.3,0.3l-1,0.5l-0.5,0.4l-0.4,0.5l-0.3,0.5l-2,5l-0.1,0.7l0.1,0.7l0.3,0.7l0,0c0,0,0,0,0,0.1c0,0.1,0,0.1,0,0.2l0,0.1l0,0.1
			l-1.3,1.3l-0.3,0.5l-0.1,0.4l-0.2,2.3l-0.2,0.9l-0.3,0.8l-0.6,0.7l-0.9,0.5l-1.8,0.3l-0.8,0.5l-1.8,2l-2,1.2l-0.2,0.6l0,0.3h242.5
			c1.6-2.3,3.3-4.6,4.9-6.9c2.5-2.7,5-5.4,7.5-8.1c5.7-6.2,11.4-12.3,17.2-18.5l0.3-0.4l0.1-0.5c0.6-7.6,1.3-15.1,1.9-22.7
			c0.6-8.1,1.4-16.2,2-24.3c0.7-8.1,1.4-16.2,2-24.3l0.5-1.4H381.2C376.9,247.3,372.7,251.2,368.4,255z M465.6,297
			c0,25.2-20.4,45.6-45.6,45.6c-25.2,0-45.6-20.4-45.6-45.6s20.4-45.6,45.6-45.6C445.2,251.4,465.6,271.8,465.6,297z"/>
		<path fill="#E05206" d="M599,233.4c-2.2-2.4-4.3-4.8-6.5-7.2l-1.9-1.5l-0.4-0.5l-0.3-0.5l-0.3-0.6l-0.2-1.1l0.2-1.1l0.6-0.9
			l0.9-0.5c-0.3-0.4-0.5-0.8-0.8-1.2l-0.4-0.6c-1.9-3.1-3.9-6.1-5.9-9.2l-0.8-1l-0.4-0.3l-1.1-0.6l-0.4-0.4l-0.1-0.4
			c0-4-0.1-7.9-0.2-11.9c-1.4-8.1-2.9-16.2-4.3-24.3l-0.1-0.2l0,0l0,0c-5.7,3.1-11.3,6.2-17,9.3l-0.4,0l-0.3-0.2
			c-4.6-4-9.1-8.1-13.7-12.2l-2.7-1.5c-3.1-0.7-6.2-1.5-9.4-2.3c-8.4-2-16.8-4-25.1-6.1c-4.6,3-9.2,5.9-13.8,8.8
			c-7.3,4.7-14.6,9.3-21.9,13.9c-7.4,4.7-14.7,9.4-22.1,14c-7.5,4.7-14.9,9.4-22.4,14.1c-7.3,4.6-14.7,9.2-22.1,13.9
			c-6.2,5.4-12.4,10.8-18.4,16.3c-2.1,1.9-4.2,3.8-6.3,5.7h213.4l0.2-0.5c1.5-2.7,3-5.4,4.5-8.1l0.2-0.4l0-0.4L599,233.4z"/>
		<circle fill="#E05206" cx="420" cy="297" r="45.6"/>
	</g>
	<path vector-effect="none" fill="none" stroke="#999999" stroke-width="0.25" stroke-linecap="round" stroke-linejoin="round" d="
		M559,178.7l0.3,0.2l0.4,0c5.7-3.1,11.4-6.2,17-9.3l0,0l0,0l0,0l0.1,0.2c1.4,8.1,2.9,16.2,4.3,24.3c0.1,4,0.2,7.9,0.2,11.9l0.1,0.4
		l0.4,0.4l1.1,0.6l0.4,0.3l0.8,1c2,3.1,3.9,6.1,5.9,9.2l0.4,0.6c0.3,0.4,0.5,0.8,0.8,1.2l-0.9,0.5l-0.6,0.9l-0.2,1.1l0.2,1.1
		l0.3,0.6l0.3,0.5l0.4,0.5l1.9,1.5c2.2,2.4,4.3,4.8,6.5,7.2l0.3,0.5l0,0.4l-0.2,0.4c-1.5,2.7-3,5.4-4.5,8.1l-0.7,1.9
		c-0.7,8.1-1.4,16.2-2,24.3c-0.7,8.1-1.4,16.2-2,24.3c-0.6,7.6-1.3,15.1-1.9,22.7l-0.1,0.5l-0.3,0.4c-5.7,6.2-11.4,12.3-17.2,18.5
		c-2.5,2.7-5,5.4-7.5,8.1c-4.1,5.7-8.1,11.4-12.2,17.2c-0.6,1.2-1.1,2.4-1.7,3.6l-0.1,0.5l0,0.5l0.1,0.5l0.3,1l0,0.5l-0.2,0.6
		l-0.3,0.2l-0.4,0l-0.5,0.1l-0.2,0.2l-0.7,0.8l-0.5,0.3l-0.1,0.1l0,0.1l0.2,0.2l0.1,0.1l0.2,0.9l0,0.4l-0.2,0.4l-0.8,0.6l-0.9,0.2
		l-0.9,0.1l-0.8,0.3l-0.6,0.3l-0.7,1l0,1.4c0.3,0.9,0.5,1.9,0.8,2.8l0.2,1.1l0.2,0.8c0.8,3.7,1.7,7.4,2.5,11.2l-5.6-0.2l-0.7,0.1
		l-0.2,0.2l0,0.4l-0.3,0.2l-0.9,0.9l-0.2,0.2l-0.1,0.2l0,0.1l0.1,0.2l0,0.1l-0.1,0.2l-0.1,0l-0.2,0l-0.1,0l-0.2,0.3l0,0.1l0.3,0
		l-0.4,0.5l-0.5,0.2l-0.6,0.1l-0.6,0.3l0.1-0.2l0-0.2l0-0.2l-0.2,0l-0.1,0.1l-0.2,0.4l-0.2,0.2l0-0.3l0-0.1l-0.4,0.1l-0.4,0
		l-0.3-0.1l0.1-0.2v-0.1l-0.6,0.1l-0.6,0.2l-2.1,1l-0.6,0.1l-0.6-0.1l-0.1,0.4l-0.2,0l-0.3-0.1l-0.4-0.1v0.2l0.2,0.1l0.2,0.1
		l0.1,0.1l0.1,0.2l-0.3,0.3l-0.6,0.7l0,0.1l0,0.2l0,0.1l-0.1,0l-0.2,0l-0.1,0l-0.1,0.1l-0.3,0.1l-0.1,0.1l0.1,0.3l0.1,0.2l0,0.1
		l-0.3,0l0-0.1l-0.1-0.2l-0.1-0.1l-0.1,0.1l0,0l-0.2,0.4l-0.6,0.7l-0.4,0.3l-0.5,0.1l-0.3,0.1l-0.2,0.5l-0.2,0.1l-0.3-0.1l-0.2-0.2
		l-0.2-0.2l-0.2-0.2l0,0.4l0,0.1l-0.2,0.2l-0.2,0.1l-0.2,0.1l-0.1-0.1l-0.1,0.1l-0.8,0.8l-0.1,0.4l-0.3,0.4l-0.2,0.3l0.4,0.1
		l-0.1,0.5l-0.1,0.2l-0.2,0.2l-0.2,0.1l-0.5,0.1l-0.1,0.1l-0.2,1.2l-0.1,0.3l-0.3,0.2l-0.4-0.1l-0.4-0.2l-0.5-0.1l-1.4,0l-0.4-0.1
		l-0.2,0.1l-0.2-0.1l-0.2-0.2l-0.2-0.1l-0.2,0l-0.1,0.1l-0.1,0.1l-0.1,0.1l-0.2,0l0-0.1l0-0.1l-0.1-0.2l-0.3-0.1l-1.1-0.4l-0.4,0.1
		l-0.5,0.3l-0.3,0.1l-0.8,0.1l-1.3-0.3l-0.5-0.2l-1-0.8l-3.2-1.9l-2.5-1l-6.9-1.7l-11.1,0.1l-4.1-0.5l-2.2,0.2l-11.7,2.5l-0.9,0.4
		l-4.3,2.4l-0.4,0.4l-0.1,0.2l-0.1,0.6L461,406l-0.2,0.2l-0.1,0l-0.1,0l-0.2,0.1l-0.4,0.3l-0.8,0.7l-4.1,4.8l-0.3,0.2l-0.2,0.2
		l-0.2,0.1l-0.5,0l-4.8-0.6l-0.4,0l-1.2,0.3h-0.8l-7.4-0.9l-6-1.8l-0.8-0.5l-0.4-0.5l-0.7-1.1l-0.5-0.5l-1-0.8l-0.5-0.3l-0.6-0.1
		h-0.3l-0.6,0.1l-0.3,0.1l-0.3,0.1l-0.1,0.1l-0.1,0l-0.2-0.1l-0.2-0.1l-2.3-2.1l-0.6-0.7l-0.3-0.3l-0.3-0.2l-0.7-0.2l-0.3-0.2
		l-0.8-0.6l-0.6-0.4l-0.5-0.5l-0.3-0.2l-0.6-0.2l-5.8-0.8l-0.8,0.1l-0.8,0.3l-8.3,5l-0.7,0.2h-0.8l-2.4-0.4l-0.5,0.1l-1.4,1.6
		l-1.1,1l-0.5,0.2l-0.5,0.1l-1.7,0l-0.8-0.1l-0.7-0.3l-0.7-0.5l-0.8-0.8l-1.3-1.6l-2.4-4.4l-3.7-4.1l-3.2-3l-1.5-0.9l-1.7-0.3
		l-0.4,0.1l-1.3,0.7l-0.2,0.1l-0.2-0.1l-0.1-0.1l-0.2-0.1l-12.9-5.1l-0.7-0.2l-3.4,0.6l-0.6,0.3l-0.3,0.3l-0.4,0.9l-0.3,0.4
		l-0.7,0.5l-0.3,0.1l-0.8,0.2l-3.3-0.1l-2.3,0.4l-1.3-0.1l-0.5-0.2l-0.5-0.5L346,390l-0.7,0.1l-7.2,1.8l-1.2,0.5l-1.1,0.8l-3.6,3.4
		l-0.6,0.3l-0.7,0.1l-1.5,0l-0.1,5.6l-0.8,5.5l-3.6,5.7l-1.5,1.4l-5,3.7l-0.1,0.3l0.2,5.8l-0.6,3l0,1l0.6,1.7l0.1,0.8l-0.4,0.8
		l-0.4,0.4l-0.3,0.3l-0.1,0.4l0.1,1.3l0.1,0.2l0.1,0.2l0.1,0.1l0.1,0.1l0.5,0.6l0.3,0.4l0.1,0.5l-0.2,0.5l-0.3,0.3l-1.2,0.7
		l-0.2-0.1l-0.2-0.4l-0.2-0.1l-0.1-0.2l0-0.2l-0.1-0.2l-0.1-0.4l-0.1-0.2l-0.1-0.1l-0.1-0.1l-0.2-0.1l-0.8-1.1l-0.2-0.2l-0.2-0.2
		l-0.8-0.3l-1-0.6l-0.3-0.1l-0.2-0.1l-0.3-0.1l-0.3,0.2l-0.3,0.1l-0.3-0.1l-0.3-0.2l-0.2-0.2l-0.3-0.4l-0.5-0.9l-0.2-0.4l-0.1-0.5
		l-0.1-0.5l-0.1-0.1l-0.3-0.2l-0.1-0.1l-3.9-3.6l-0.9-1.4l-0.2-0.4l-0.1-0.1l-0.2-0.1l-0.8-0.1l-0.3-0.1l-0.2-0.1l-0.2-0.2l-0.1-0.5
		l-0.2-0.3l-0.2-0.3l-0.5-0.3l-1.1-1l-0.3,0.4l-0.5,0l-0.2,0l-0.5,0l-0.2,0l-0.3,0.2l-0.4,0.4l-0.2,0.2l-0.2,0.1l-0.2-0.2l-0.3,0.1
		l-0.1,0.1l-0.1,0.2l0,0.2l-0.1,0.2l-0.3,0.5l-0.2,0.1l-0.8-0.2l-0.2,0l-0.3,0.2l-0.1,0.1l-0.1,0l-0.2-0.1l-0.1,0l-0.8,0.2l-0.1,0.1
		l-0.2,0.2l-0.1,0.1l-0.2,0l-0.1-0.1l0-0.1l-0.1-0.1l-0.3,0l-0.2,0l-0.2,0.1l-0.1,0.3l-0.1,0.2l-0.1,0l-0.1-0.1l-0.2,0l-0.1,0.1
		l-0.2,0.3l-0.1,0.1l-0.3,0l-0.5,0l-0.3,0l-0.6,0.3l-0.2,0.4l0,0.5l0.2,1.3l0.8,2.2l0.1,0.2l0.2,0.2l0.2,0.2l0.3,0.1l0.2,0l0.1,0.1
		l0,0.3l0,0.4l-0.2,0l-0.2-0.1l-0.2,0l-0.2,0.2l-0.2,0.3l-0.2,0.2l-0.2,0.1l-0.2,0l-0.2,0l-0.1,0.3l0,0.3l0.3,0.4l0,0.2l-1.2-1
		c-2-2.8-4.1-5.7-6.1-8.5l-0.4-0.8l0.1-0.7l0.3-0.3l1.3-0.3l0.1-0.1l0.2-0.2l0.1-0.1l0.1,0l0.2,0.1l0.1,0l1.4-0.1l0.3-0.1l0.2-0.3
		l0-0.5v-0.1l0.1-0.2v-0.1l-0.1-0.2l-0.3-0.3l-0.1-0.2l-0.2-0.4l-0.1-0.3l-0.2-1.4l-0.1-0.3l-0.2-0.3l-0.2-0.3l-0.4-0.3l-0.2-0.2
		l-0.2-0.2l-0.1-0.1l-0.1-0.5l-0.6-0.7l-0.9-0.2l-2.2-0.2l-0.2,0.1l-0.4,0.4l-0.2,0.2l-0.2,0l-0.2-0.1l-0.2,0l-0.1,0.1l-0.2,0.3
		l-0.4,0.6l-0.2,0.5l-0.3,0.4l-0.4,0.3l-0.4,0c-1.7-0.1-3.5-0.3-5.2-0.4l-0.8-0.2l-0.6-0.4c-3.2-2.7-6.4-5.4-9.6-8.1l-0.7-0.3
		l-1.6-0.1l-0.7-0.4l-0.2-0.4l-0.1-0.4c0-2,0-4,0-6.1l0.3-0.9l0.5,0.1l1.8,0.7l1.2,0.3l0.5,0.2l0.2,0l0.2-0.8l0.1-0.3l0.1-0.1
		l0.4,0.1l0.4,0.3l0.4,0.2l0.6-0.3l-0.4-0.5l-0.4-0.3l-0.4-0.1l-1-0.1l-0.4-0.1l-2.5-1.2l-0.8-0.6l-0.4-0.7l-0.1-1l-0.9-1l-1.2-0.7
		l-1.1-0.3l-0.9,0.1l-0.4,0l-0.4-0.2l-0.3-0.3l0-0.2l0.1-0.1l0-0.1l0-0.1v-0.2l-0.1-0.2l-0.2,0l-3,0.1l-0.6-0.2l-0.3-0.6l0.1-0.4
		l0.2-0.5l0.1-0.4l-0.2-0.2l-0.4-0.2l-0.3-0.3l-0.2-0.3l-0.8-0.5l-0.3-0.3l-0.3-0.4l-0.2-0.4l-0.2-0.2l-0.5-0.3l-0.1-0.2l0-0.2
		l0.2-0.4l0-0.2l-0.2-0.3l-0.4-0.2l-0.4-0.3l-0.2-0.4l0-0.4l-0.2-0.2L244,384l-0.2-0.2v-0.2l0.2-0.4l0-0.2l-0.1-0.2l-0.1-0.1
		l-0.1-0.1l-0.1-0.2l-0.3-0.4l-0.1-0.3l0.1-0.3l0.5-0.8l0.1-0.3l0.1-0.7l0.1-0.2l0.2-0.3l0-0.2l-0.1-0.1l-1-1.3l-3.6-3.3l-0.7-1.1
		l-0.1-1.2l1.5-4.3l-0.2-0.7l-0.7-1.4l0-0.7l0.3-0.4l0.3-0.3l0.2-0.3c-0.1-0.6-0.1-1.1-0.2-1.7l0-0.6l0.2-0.2l3,0.8l0.8,0l0.7-0.2
		l1.5-0.5l0.7,0l3.5,1.3l0.3,0l0.6-0.2c0.4-0.2,0.9-0.3,1.3-0.5l3.5-0.1l0.6-0.1l0.6-0.3c2.3-2.1,4.5-4.2,6.8-6.3l0.6-0.4l0.8-0.2
		c8.6-0.3,17.3-0.6,25.9-0.9c4-0.1,8.1-0.3,12.1-0.4l0.1-0.3v-0.9l0-0.4l0.1-0.2l0.2-0.1l0.4-0.1l0.9,0c3.1,0.5,6.2,1.1,9.4,1.6
		l0.1,0l0.4,0.1l0.2-2.7l0.2-0.6l2-1.2l1.8-2l0.8-0.5l1.8-0.3l0.9-0.5l0.6-0.7l0.3-0.8l0.2-0.9l0.2-2.3l0.1-0.4l0.3-0.5l1.3-1.3
		l0-0.1l0-0.1c0-0.1,0-0.1,0-0.2c0,0,0,0,0-0.1l0,0l-0.3-0.7l-0.1-0.7l0.1-0.7l2-5l0.3-0.5l0.4-0.5l0.5-0.4l1-0.5l0.3-0.3l0.2-0.6
		c0-3.1,0-6.2,0-9.3l0.1-0.2l0.3-0.5l0.1-0.3l-0.1-2.3l0-0.4l0.1-0.4l0.2-0.1l0.2,0l0.3-0.2c0-8.5-0.1-17-0.1-25.6
		c0-8.5-0.1-17.1-0.1-25.6c8.5-1.7,17-3.4,25.4-5.1c3.1-0.6,6.2-1.2,9.2-1.9l1-0.4l1-0.7c6.4-5.8,12.7-11.5,19.1-17.3
		c6.1-5.5,12.2-10.9,18.4-16.3c7.4-4.6,14.7-9.2,22.1-13.9c7.5-4.7,14.9-9.4,22.4-14.1c7.4-4.6,14.8-9.4,22.1-14
		c7.3-4.6,14.6-9.3,21.9-13.9c4.6-2.9,9.2-5.8,13.8-8.8c8.4,2,16.8,4.1,25.1,6.1c3.1,0.7,6.2,1.5,9.4,2.3l2.7,1.5
		C549.9,170.5,554.5,174.6,559,178.7"/>
</g>

</svg>
