<?xml version="1.0" encoding="utf-8"?>

<svg version="1.2" baseProfile="tiny" xmlns="http://www.w3.org/2000/svg" xmlns:xlink="http://www.w3.org/1999/xlink" x="0px"
	 y="0px" viewBox="355.1 172 129.8 250" xml:space="preserve">

<g id="Norfolk_Island">
	<g>
		<polygon fill="#FFFFFF" points="424.4,184.8 424.5,183.2 424,182.5 423.2,183.3 423,184.8 423.6,185.6 		"/>
		<polygon fill="#FFFFFF" points="435.4,189.4 434.8,188.6 434.2,189.4 433.9,191 434.5,191.7 435.2,190.9 		"/>
		<polygon fill="#FFFFFF" points="467.4,216.3 468.1,215.5 467.6,214.7 466.4,214.7 465.6,215.5 466.1,216.3 		"/>
		<path fill="#FFFFFF" d="M357,250.9l1.9,0.7l1.5,3.8L357,260l3.1,0.8l1.5-1.5l0.9,3.1l3.2,0.7l-3.4,4.7l-2.4,7.6l1.5,2.2h4l1,1.6
			h2.5l4.8,3.1l2.5,5.6c3-1,6.1-0.1,8.7,2c0,0-0.8-3.6-0.8-3.9c0,0,0,0,0,0c0,0,0,0,0,0c0.7,0.1,7.2,3.4,7.7,3.5c0,0,0,0,0,0
			c0,0,0,0,0,0c0,0,0,0,0,0c0,0,0,0,0,0l0,0c0,0,0,0,0,0c-0.1-0.1-0.3-0.2-0.7-0.5c-3.6-2.2-2.8-3-2-5.2c-2.6-0.3-12.7-2.1-11-4.3
			c9.6-5.5,15.5,3.4,17.1,2.8c1.7-0.6,0-2.8,0-2.8s29.6,13.8,22.1,7.5c-7.5-6.3-35.6-12.1-35.6-13.3c0,0,0,0,0-0.1
			c0.2-1.1,5.8-1.6,6.4-2.7c0-0.1,0.1-0.1,0-0.2c0,0,0,0,0,0c-0.1-1.3-4.8-2.3-5.5-3c0,0,0,0,0,0c0,0,0,0,0,0c0,0,0,0,0,0
			c0,0,0,0,0,0c0,0,0,0,0,0c0,0,0,0,0,0c0,0,0,0,0,0c0,0,0,0,0,0c0,0,0,0,0,0c0.6-0.9,11.1-3.7,14.9-1.9c3.9,1.9,21.3,9,19.1,5.4
			c-2.3-3.6-24.5-8.2-24.5-8.2c-0.1-0.1-2.2-1.4-0.8-3.6c-13.4-0.3-0.8-4.9-0.8-4.9s31.4,11.5,26.8,7c-4.7-4.5-25.7-9.6-25.7-9.6
			s1.1-1.3,1-1.8c0,0,0,0,0-0.1c0,0,0,0,0,0c0,0,0,0,0,0c0,0,0,0,0,0c0,0,0,0,0,0c0,0,0,0,0,0c-0.1,0-0.2,0-0.5,0.1
			c-1.5,0.6-3-2.4-3-2.4s2.6-2.4,4.8-3.4c2.3-1,17.3,1,17.3,1c0,0,10.8,3.6,7.2,0.3c-3.6-3.3-25.7-1.7-20-4.3
			c5.5-2.6,19.8,1.6,20.2,0.6c0,0,0-0.1,0-0.1c-0.8-1.5-11.9-3.6-16.7-3.4c-4.8,0.1-7.6-3.4-8.1-4.2c0.1-1.7,17.8,1.8,23,0.6
			c-3.7-2.4-13.4-2.1-14.6-2.7c0,0-0.1,0-0.1,0c0,0,0,0,0,0c0,0,0,0,0,0c0,0,0,0,0,0c0-2.8,10.5-1.2,15.2,1c2.5-0.2,2.6-1.5,1.2-3.1
			c-4.9-1.7-16.4-0.5-15.3-2.5c-0.4-1.8,10.7-0.4,16.1-0.6c-1.1-1.9-15.6-4-16.1-4.8c0.5-2.8,14.4,1.7,14.6,0.6
			c-4.9-4.3-12-5.4-12.3-6.5c0-0.1,0-0.1,0-0.2c0.1-0.1,0.2-0.2,0.5-0.4c5-1.9,12.7,4.6,13.1,4.9c0-0.2,0.3-1.2,0-3
			c-0.3-1.9-5.1-5.4-5.1-5.4s4.3-0.2,5.3-1.1c0.1-0.1,0.1-0.1,0.1-0.2c0,0,0,0,0-0.1c0,0,0-0.1,0-0.1c0,0,0-0.1,0-0.1
			c-0.3-1.2-4.2-4.5-4.2-4.5s3,0.4,3.9-0.4c0.1-0.1,0.1-0.1,0.2-0.2c0.1-0.2,0.2-0.5,0.1-0.8c-0.6-1.9-4-3.9-4-3.9
			c1.7-0.2,3.3-0.5,5-0.7c0.4-3.8,0.7-7.7,1.1-11.5l-4.9-1.2l-2-3.1h-7.8l-2.4-1.5l-3.1,3.1l-3.4-3.1h-5.2l-1-1.5h-9.2l-1.6-2.3
			l1.8-3.1l-0.2-2.7l-4.6-0.8l-7.4,0.2l0.4,3.3l-4.8,6.1l-1,6.2l-5.9,4.6l4,3.8h2.7l1.5-1.5l3.1,0.8l-2.3,6.1l1.2,1.5l-3.1,3
			l0.8,3.1l-6.1,6.2l-0.4,3l1.1,1.6l-4.1,18.4l4.8,3l-1.8,3.1L357,250.9z"/>
		<polygon fill="#FFFFFF" points="411.8,181.8 411.2,180.9 409.8,181 409.1,181.7 409.6,182.4 410.9,182.4 		"/>
		<polygon fill="#FFFFFF" points="417.8,184.8 418.3,185.6 419.7,185.6 420.3,184.8 419.9,184 418.5,184 		"/>
		<polygon fill="#FFFFFF" points="473.5,215.5 472.8,214.8 472.1,215.5 471.9,217 472.5,217.7 473.1,217.1 		"/>
		<polygon fill="#FFFFFF" points="417.9,179.4 417.1,180.1 417.7,181 419,181 419.7,180.2 419.2,179.4 		"/>
		<path fill="#FFFFFF" d="M380,298.4l0.6,0.7l1.2,0.1l0.8-0.9c-0.7-0.3-1.4-0.5-2-0.7L380,298.4z"/>
		<path fill="#FFFFFF" d="M418.3,314.1l-0.1,0.7c0.1,0,0.1,0,0.2,0C418.4,314.6,418.4,314.4,418.3,314.1z"/>
		<path fill="#FFFFFF" d="M426.4,309.8v2.3l0.3,0.5c0.3,0,0.7-0.1,1.2-0.1l2.8-1.7l-1.7-1.4C427.6,309.5,426.5,309.7,426.4,309.8
			C426.4,309.8,426.4,309.8,426.4,309.8z"/>
		<polygon fill="#FFFFFF" points="392.4,382.8 394.1,385.2 395.3,385.2 396.2,384.3 394.4,382 393.2,382.1 		"/>
		<polygon fill="#FFFFFF" points="355.1,255.4 355.6,256.2 356.9,256.2 357.7,255.4 357.1,254.7 355.8,254.7 		"/>
		<polygon fill="#FFFFFF" points="482,224 482.7,223.1 483,221.7 482.4,220.8 481.1,220.9 480.4,221.6 480.1,223.2 480.6,223.9
			"/>
		<polygon fill="#FFFFFF" points="377.7,412 378,418.2 380.7,422 383.6,420.5 386.1,416.6 392,412.1 392.5,409 397.7,405.1
			401.6,405.1 404.4,403.5 409.9,398.2 410.2,395.2 407.6,391.3 403.7,391.3 402.5,389.7 397.1,391.2 393.9,386.7 387.4,386.6
			383.7,388.9 382.7,391.3 378.8,391.3 377.8,393.6 373.4,396.7 374.6,398.2 374,401.3 376.3,404.4 374.1,409 		"/>
		<path fill="#FFFFFF" d="M426.7,201.8C426.7,201.8,426.7,201.8,426.7,201.8c0.1,0.1,0.1,0.2,0.1,0.2c0,0,0,0.1,0,0.1
			c0,0.1,0,0.1,0,0.2c-0.3,1.3-3.2,1.7-3.2,1.7c0,1,0,2,0,3c0,0,3.3-1.1,4.1-0.7c0,0,0,0,0,0c0,0,0,0,0,0c0,0,0,0,0,0c0,0,0,0,0,0
			c0,0,0,0,0,0c0,0,0,0,0,0c0,0,0,0,0,0c0,0,0,0,0,0c0,0,0,0,0,0c0,0,0,0,0,0c0,0,0,0,0,0c0,0,0,0,0,0c0,0,0,0,0,0
			c-0.2,0.9-3.3,3.3-3.3,3.3s-0.3,3,0,3.4c0,0,0,0,0,0c0,0,0,0,0,0c0,0,0,0,0,0c0,0,0,0,0,0c0.4,0,3.1,0.9,3.5,1.3c0,0,0,0,0,0
			c0,0,0,0,0,0c0,0,0,0,0,0c0,0,0,0,0,0c0,0,0,0,0,0c-0.2,0.4-4.2,2.2-4.2,2.2s-0.6,1.9,0.1,2.8c0,0,0.1,0.1,0.1,0.1
			c0.2,0.2,0.5,0.2,0.8,0.2c2.1,0,13.2-5,12.6,0c0,0,0,0,0,0c-0.7,0.2-15.9,1.5-13.2,3.3c3.5-0.1,13.6-1.5,13.8,0.5
			c0.1,1.7-16.2,0.8-14.6,3c0,0,3.8,0.5,6.3-0.1c2.6-0.6,8.8-2.1,9.3,0.7c0.7,2.9-9,1.8-13.4,2.3c-1.9,1.1-2.1,3,0.9,3.4
			c0.4-0.1,17.2-4,14,0c-1.6,0.8-15.7,1.6-16.7,4.6c3.7,0.2,11.4-1.9,17.9-0.7c0.2,2.7,0,6,0.1,8.7c-5.2,0.2-10-0.1-15.2,0.1
			c-2.4,0.9-2.3,2.4-0.1,3.3c5.1,0,13.7-2.7,15.2,0c-0.9,1.5-14.8,1.9-13.4,3.7c3.7-0.1,6.2-2.4,14.1-1.2c8,1.2-1.6,4-1.6,4
			s-8.6-2.4-14-0.6c-5.4,1.8,0.5,3.9,0.5,3.9s5.5-3.1,14.6-2.2c7.8,0.8,11,6.3,10,7.1c-0.1,0.1-0.4,0.1-0.7,0
			c-2.6-0.9-19.5,2.5-24.4,3.7c-1.4,0.4-2,0.8-2.1,1.1c0,0,0,0.1,0,0.1c0,0,0,0.1,0,0.1c0,0,0,0.1,0,0.1c0.3,0.7,2.2,1.3,2.3,1.3
			c0,0,0,0,0,0c0.4,0,18.8-2.8,18.8-2.8s1.1-0.2,10.4-1.3c9.3-1.2,2.7,4,2.7,4c0.3,1,0.5,2.1,0.8,3.1c-3.8,1.4-7.5,2.8-11.3,4.2
			c0,0,3.5,2.2,10.1,2.2c1.7,0,3.3,0.4,4.5,0.9l0.8-1.9l-3.5-3.1l0.5-3.2l2.2-2.3l8.9,1.5l2.3-2.3l-0.3-6.2l1.5-1.5l-1.2-1.5
			l2.1-4.6l-1.1-1.6l0.7-4.6l3.1-3l0.2-1.6l-2.3-1.5l0.4-3.1l2.1-0.8l2.3-2.3l2.8-10.8l-0.5-0.8l-1.5,1.5l-2.6,0l-2.3-1.5l-1.7-6.2
			l-6.9,1.6l-3.4-3.1h-4l-1.5,1.5l-3.4-3.1l-5.5,1.6l-5.9-4.7l-3.5-7l0.5-2.9l-2.5-5.4l-1.3-0.1l-3.2-4.5l-2.6-0.1l-3.4-3.1
			l-1.6,1.5l-2-3l-1.5,1.5l-1-1.5l-1-0.2c0.4,4.1,0.8,8.3,1.2,12.4C423.4,200.8,426,201,426.7,201.8z"/>
		<path fill="#FFFFFF" d="M398.8,274.6L398.8,274.6c-2.2,0.1-1.9,1.4-1.9,1.5c0,0,21.3,7.5,22.1,7.7c0,0,0,0,0,0
			c0-0.2-0.1-2.2-0.1-2.2C406.7,275.7,401.2,274.4,398.8,274.6z"/>
		<path fill="#FFFFFF" d="M455.8,285.3l2.5,1.5l2.4-2.3c-2.1,0.1-4.2,0.4-6.1,0.8L455.8,285.3z"/>
		<path fill="#FFFFFF" d="M418.4,278l-0.1-2.4c-9.6-4-13.9-5-15.7-4.9l0,0c-1.8,0.1-1.3,1.2-1,1.6C402.1,273.1,418.4,278,418.4,278z
			"/>
		<path fill="#FFFFFF" d="M419.2,236.4C419.2,236.4,419.2,236.4,419.2,236.4C419.2,236.4,419.1,236.4,419.2,236.4
			C419.1,236.4,419.1,236.4,419.2,236.4c-0.5,0.1-2.8,0.1-3.9,0.9c0,0-0.1,0-0.1,0.1c0,0,0,0,0,0c0,0,0,0,0,0c0,0,0,0,0,0
			c0,0,0,0,0,0c0,0,0,0,0,0c0,0,0,0,0,0c0,0,0,0,0,0c0,0,0,0,0,0c0,0,0,0,0,0c0,0,0,0,0,0c0,0,0,0,0,0c0,0,0,0,0,0c0,0,0,0,0,0
			c0,0,0,0,0,0c0,0,0,0,0,0c0,0,0,0,0,0c0.6,0.5,4,0.7,4,0.7L419.2,236.4L419.2,236.4C419.2,236.4,419.2,236.4,419.2,236.4z"/>
		<path fill="#FFFFFF" d="M418,253.8C418,253.8,418,253.8,418,253.8C418,253.8,418,253.8,418,253.8c0.1-0.4-0.1-2.4-0.1-2.6
			c-8-2.2-12.3-2.7-14.5-2.6l0,0c-1.1,0.1-1.6,0.3-1.8,0.5c0,0-0.1,0.1-0.1,0.1c0,0,0,0,0,0.1c0,0,0,0,0,0c0,0,0,0,0,0c0,0,0,0,0,0
			c0,0,0,0,0,0c0,0,0,0,0,0c0,0,0,0,0,0c0,0,0,0,0,0c0,0,0.1,0.1,0.1,0.1c0,0,0,0,0,0c0,0,0,0,0,0c0,0,0.1,0,0.1,0c0,0,0.1,0,0.1,0
			c0,0,0.1,0,0.1,0C403.4,249.6,417.9,253.8,418,253.8C418,253.8,418,253.8,418,253.8z"/>
		<path fill="#FFFFFF" d="M411,254.7L411,254.7c-0.4,0-0.7,0.1-0.9,0.2c0,0,0,0,0,0c0,0,0,0,0,0c0,0,0,0.1,0,0.1c0,0,0,0,0,0.1
			c0.3,1.1,8.5,3.6,8.9,3.7c0,0,0,0,0,0c0,0,0,0,0,0c0,0,0,0,0,0c0,0,0,0,0,0c0,0,0,0,0,0c0,0,0,0,0,0c0,0,0,0,0,0
			c0.3-0.4,0-2.5,0-2.9C418.8,256,413.3,254.6,411,254.7z"/>
		<path fill="#FFFFFF" d="M435.4,274.5C435.4,274.5,435.4,274.5,435.4,274.5C435.4,274.5,435.4,274.4,435.4,274.5c0-0.1,0-0.1,0-0.1
			c-0.1-0.1-0.5-0.2-1-0.1l0,0c-2.4,0.1-8.4,1.7-8.7,1.7c0,0,0,0,0,0c0,0.1,0,2.2,0,2.2s8.1-1.7,9.6-3.4
			C435.3,274.7,435.4,274.6,435.4,274.5z"/>
		<path fill="#FFFFFF" d="M423.8,244.9C423.8,244.9,423.8,244.9,423.8,244.9C423.8,244.9,423.9,244.9,423.8,244.9
			c0.1,0,2.7-0.2,3.2-0.9c0,0,0,0,0,0c0,0,0,0,0,0c0,0,0,0,0,0c0,0,0,0,0,0c0,0,0,0,0,0c0,0,0,0,0,0c0,0,0,0,0,0c0,0,0,0,0,0
			c0,0,0,0,0,0c0,0,0,0,0,0c0,0,0,0,0,0c0,0,0,0,0,0c0,0,0,0,0,0c-0.3-0.5-3.1-0.5-3.5-0.6c0,0,0,0,0,0c0,0,0,0,0,0l0,0
			C423.6,243.2,423.7,244.7,423.8,244.9C423.8,244.9,423.8,244.9,423.8,244.9z"/>
		<path fill="#FFFFFF" d="M440.6,284.1C440.6,284.1,440.5,284.1,440.6,284.1c-0.1-0.2-0.5-0.3-1.1-0.2h0c-3.3,0.1-12.8,2.2-13.6,2.2
			c0,0,0,0,0,0c0,0,0,0,0,0c0,0,0,0,0,0c0,0,0,0,0,0c0,0.2-0.3,1.6-0.2,2c0,0,0,0,0,0c0,0,0,0,0,0c0,0,0,0,0,0c0,0,0,0,0,0
			c0,0,0,0,0,0c0,0,0,0,0,0c0.3,0,5.6-0.9,9.8-2l0.8-0.8l0.3,0.5c1.8-0.5,3.2-1,3.7-1.5C440.5,284.3,440.6,284.2,440.6,284.1z"/>
		<path fill="#FFFFFF" d="M424.4,264.5c0,0,10.9-1.5,12.4-3.3c0.6-0.7-1-0.9-3.2-0.8h0c-3.7,0.1-9.2,0.8-9.5,0.8L424.4,264.5z"/>
		<path fill="#FFFFFF" d="M425.8,294c0,0,2.8-0.6,5.7-1.2l1.9-1.9c-3.3,0.3-7.5,1-7.7,1C425.7,292.1,425.8,294,425.8,294z"/>
		<path fill="#FFFFFF" d="M431.3,240.2C431.3,240.2,431.3,240.2,431.3,240.2C431.3,240.2,431.3,240.1,431.3,240.2c0-0.1,0-0.1,0-0.1
			c0,0,0,0,0,0c0,0,0,0,0,0c-0.6-0.9-7.2-0.9-7.3-0.9l0,0l0.1,2.8C424.1,241.9,430.8,241.3,431.3,240.2z"/>
		<path fill="#007934" d="M415.5,200.5c0,0,3.4,1.9,4,3.9c0.1,0.3,0.1,0.6-0.1,0.8c0,0.1-0.1,0.1-0.2,0.2c-1,0.8-3.9,0.4-3.9,0.4
			s3.9,3.3,4.2,4.5c0,0,0,0.1,0,0.1c0,0,0,0.1,0,0.1c0,0,0,0,0,0.1c0,0.1-0.1,0.1-0.1,0.2c-0.9,0.8-5.3,1.1-5.3,1.1s4.8,3.4,5.1,5.4
			c0.3,1.8,0,2.8,0,3c-0.3-0.3-8.1-6.8-13.1-4.9c-0.2,0.1-0.4,0.3-0.5,0.4c0,0.1,0,0.1,0,0.2c0.4,1.1,7.4,2.2,12.3,6.5
			c-0.1,1.1-14.1-3.4-14.6-0.6c0.4,0.8,15,2.9,16.1,4.8c-5.4,0.2-16.4-1.2-16.1,0.6c-1.1,2,10.5,0.9,15.3,2.5c1.4,1.6,1.3,3-1.2,3.1
			c-4.7-2.2-15.2-3.9-15.2-1c0,0,0,0,0,0c0,0,0,0,0,0c0,0,0,0,0,0c0,0,0.1,0,0.1,0c1.2,0.6,10.9,0.3,14.6,2.7
			c-5.2,1.2-22.9-2.4-23-0.6c0.5,0.8,3.3,4.4,8.1,4.2c4.8-0.1,15.9,1.9,16.7,3.4c0,0,0,0.1,0,0.1c-0.3,1-14.7-3.2-20.2-0.6
			c-5.7,2.7,16.4,1.1,20,4.3c3.6,3.3-7.2-0.3-7.2-0.3c0,0-15-2.1-17.3-1c-2.3,1-4.8,3.4-4.8,3.4s1.5,3,3,2.4
			c0.2-0.1,0.4-0.1,0.5-0.1c0,0,0,0,0,0c0,0,0,0,0,0c0,0,0,0,0,0c0,0,0,0,0,0c0,0,0,0,0,0c0,0,0,0,0,0.1c0,0.4-1,1.8-1,1.8
			s21.1,5.1,25.7,9.6c4.7,4.5-26.8-7-26.8-7s-12.6,4.6,0.8,4.9c-1.5,2.2,0.6,3.5,0.8,3.6c0,0,22.2,4.6,24.5,8.2
			c2.3,3.6-15.2-3.4-19.1-5.4c-3.8-1.9-14.3,1-14.9,1.9c0,0,0,0,0,0c0,0,0,0,0,0c0,0,0,0,0,0c0,0,0,0,0,0c0,0,0,0,0,0c0,0,0,0,0,0
			c0,0,0,0,0,0c0,0,0,0,0,0c0,0,0,0,0,0c0.7,0.7,5.4,1.8,5.5,3c0,0,0,0,0,0c0,0.1,0,0.1,0,0.2c-0.6,1.1-6.2,1.6-6.4,2.7
			c0,0,0,0,0,0.1c0,1.2,28.1,7,35.6,13.3c7.5,6.3-22.1-7.5-22.1-7.5s1.7,2.2,0,2.8c-1.7,0.6-7.5-8.4-17.1-2.8
			c-1.8,2.3,8.4,4.1,11,4.3c-0.9,2.3-1.6,3,2,5.2c0.4,0.2,0.6,0.4,0.7,0.5c0,0,0,0,0,0l0,0c0,0,0,0,0,0c0,0,0,0,0,0c0,0,0,0,0,0
			c0,0,0,0,0,0c-0.6-0.1-7-3.4-7.7-3.5c0,0,0,0,0,0c0,0,0,0,0,0c0,0.3,0.8,3.9,0.8,3.9c-2.6-2.1-5.7-3.1-8.7-2l2,4.4l1.3,3.8l3-3
			l13.3-1.6l0.7-4.7l2.4,1.5l2.3,1.6l3.2-3.1h5.2l-0.5,3.1l2.9-1.5h5.1l2.4,1.5l1.1,1.6l2.8-1.6l1.9,0.8l-0.1,1.6l-4.5,3l3,2.3
			l5.7-3.1l1.8-1.8c-2.9,0.7-5.7,1.2-5.7,1.2s0-1.9,0-2.1c0.2,0,4.4-0.7,7.7-1l1.7-1.7l-1.1-1.5l1.5-1.5c-4.2,1.1-9.5,2-9.8,2
			c0,0,0,0,0,0c0,0,0,0,0,0c0,0,0,0,0,0c0,0,0,0,0,0c0,0,0,0,0,0c0,0,0,0,0,0c-0.1-0.4,0.2-1.8,0.2-2c0,0,0,0,0,0c0,0,0,0,0,0
			c0,0,0,0,0,0c0,0,0,0,0,0c0.8,0,10.2-2.1,13.6-2.2h0c0.6,0,1,0,1.1,0.2c0,0,0,0,0,0.1c0,0.1-0.1,0.1-0.2,0.2c-0.6,0.5-2,1-3.7,1.5
			l0.7,1l1.5-1.5l10.7-1.5l1,1.5l4,0c1.9-0.4,3.9-0.7,6.1-0.8l1.5-1.5l1.1-2.6c-1.2-0.5-2.7-0.9-4.5-0.9c-6.6,0-10.1-2.2-10.1-2.2
			c3.8-1.4,7.5-2.8,11.3-4.2c-0.3-1-0.5-2.1-0.8-3.1c0,0,6.6-5.2-2.7-4c-9.3,1.2-10.4,1.3-10.4,1.3s-18.3,2.8-18.8,2.8c0,0,0,0,0,0
			c-0.2,0-2-0.6-2.3-1.3c0,0,0-0.1,0-0.1c0,0,0-0.1,0-0.1c0,0,0-0.1,0-0.1c0.1-0.4,0.6-0.8,2.1-1.1c4.8-1.2,21.8-4.6,24.4-3.7
			c0.3,0.1,0.6,0.1,0.7,0c1-0.9-2.2-6.4-10-7.1c-9-0.9-14.6,2.2-14.6,2.2s-5.9-2.1-0.5-3.9c5.4-1.8,14,0.6,14,0.6s9.6-2.8,1.6-4
			c-8-1.2-10.5,1.1-14.1,1.2c-1.5-1.8,12.5-2.2,13.4-3.7c-1.5-2.7-10.1,0-15.2,0c-2.2-0.9-2.3-2.4,0.1-3.3c5.2-0.2,10,0.1,15.2-0.1
			c-0.2-2.7,0-6-0.1-8.7c-6.5-1.2-14.2,0.9-17.9,0.7c1-3,15.1-3.8,16.7-4.6c3.2-4-13.6-0.1-14,0c-3-0.4-2.8-2.3-0.9-3.4
			c4.4-0.5,14.1,0.6,13.4-2.3c-0.6-2.8-6.8-1.3-9.3-0.7c-2.6,0.6-6.3,0.1-6.3,0.1c-1.6-2.2,14.7-1.3,14.6-3
			c-0.2-1.9-10.4-0.6-13.8-0.5c-2.7-1.8,12.5-3,13.2-3.3c0,0,0,0,0,0c0.6-5-10.5,0-12.6,0c-0.4,0-0.6-0.1-0.8-0.2
			c0,0-0.1-0.1-0.1-0.1c-0.7-0.8-0.1-2.8-0.1-2.8s4-1.8,4.2-2.2c0,0,0,0,0,0c0,0,0,0,0,0c0,0,0,0,0,0c0,0,0,0,0,0c0,0,0,0,0,0
			c-0.5-0.4-3.2-1.3-3.5-1.3c0,0,0,0,0,0c0,0,0,0,0,0c0,0,0,0,0,0c0,0,0,0,0,0c-0.2-0.4,0-3.4,0-3.4s3.1-2.3,3.3-3.3c0,0,0,0,0,0
			c0,0,0,0,0,0c0,0,0,0,0,0c0,0,0,0,0,0c0,0,0,0,0,0c0,0,0,0,0,0c0,0,0,0,0,0c0,0,0,0,0,0c0,0,0,0,0,0c0,0,0,0,0,0c0,0,0,0,0,0
			c0,0,0,0,0,0c0,0,0,0,0,0c-0.8-0.4-4.1,0.7-4.1,0.7c0-1,0-2,0-3c0,0,2.9-0.3,3.2-1.7c0-0.1,0-0.2,0-0.2c0,0,0-0.1,0-0.1
			c0-0.1,0-0.1-0.1-0.2c0,0,0,0,0,0c-0.7-0.8-3.3-1-3.3-1c-0.4-4.1-0.8-8.3-1.2-12.4l-0.6-0.1c-0.4,3.8-0.7,7.7-1.1,11.5
			C418.9,200,417.2,200.3,415.5,200.5z M419.2,238.4c0,0-3.4-0.2-4-0.7c0,0,0,0,0,0c0,0,0,0,0,0c0,0,0,0,0,0c0,0,0,0,0,0
			c0,0,0,0,0,0c0,0,0,0,0,0c0,0,0,0,0,0c0,0,0,0,0,0c0,0,0,0,0,0c0,0,0,0,0,0c0,0,0,0,0,0c0,0,0,0,0,0c0,0,0,0,0,0c0,0,0,0,0,0
			c0,0,0,0,0,0c0,0,0,0,0,0c0,0,0.1,0,0.1-0.1c1.1-0.8,3.4-0.8,3.8-0.9c0,0,0,0,0,0c0,0,0,0,0,0c0,0,0,0,0,0c0,0,0,0,0,0l0,0V238.4z
			 M402,249.7C401.9,249.7,401.9,249.7,402,249.7c-0.1,0-0.2-0.1-0.2-0.1c0,0,0,0,0,0c0,0,0,0,0,0c0,0-0.1-0.1-0.1-0.1c0,0,0,0,0,0
			c0,0,0,0,0,0c0,0,0,0,0,0c0,0,0,0,0,0c0,0,0,0,0,0c0,0,0,0,0,0c0,0,0,0,0,0c0,0,0,0,0-0.1c0,0,0.1-0.1,0.1-0.1
			c0.2-0.2,0.8-0.4,1.8-0.5l0,0c2.2-0.1,6.4,0.4,14.5,2.6c0,0.2,0.2,2.2,0.1,2.6c0,0,0,0,0,0c0,0,0,0,0,0c0,0,0,0,0,0
			c-0.1-0.1-14.6-4.2-15.9-4.1C402,249.7,402,249.7,402,249.7z M402.6,270.7L402.6,270.7c1.8-0.1,6.2,0.9,15.7,4.9l0.1,2.4
			c0,0-16.2-4.9-16.8-5.7C401.3,271.9,400.8,270.8,402.6,270.7z M419,283.7C419,283.7,419,283.7,419,283.7
			c-0.7-0.2-22.1-7.7-22.1-7.7c0-0.1-0.3-1.4,1.9-1.5l0,0c2.4-0.1,7.9,1.2,20.2,6.9C418.9,281.5,419.1,283.5,419,283.7z
			 M419.1,258.8C419.1,258.8,419.1,258.8,419.1,258.8C419.1,258.8,419.1,258.9,419.1,258.8C419.1,258.9,419,258.9,419.1,258.8
			C419,258.9,419,258.9,419.1,258.8C419,258.9,419,258.9,419.1,258.8c-0.1,0.1-0.1,0.1-0.1,0.1c0,0,0,0,0,0
			c-0.5-0.1-8.6-2.7-8.9-3.7c0,0,0,0,0-0.1c0,0,0-0.1,0-0.1c0,0,0,0,0,0c0,0,0,0,0,0c0.2-0.1,0.5-0.2,0.9-0.2l0,0
			c2.3-0.1,7.8,1.2,8.1,1.2C419.1,256.3,419.4,258.4,419.1,258.8z M425.6,276C425.6,276,425.6,276,425.6,276c0.4,0,6.3-1.6,8.8-1.7
			l0,0c0.5,0,0.8,0,1,0.1c0,0,0,0,0,0c0,0,0,0,0,0c0,0,0,0,0,0c0,0.1-0.1,0.2-0.1,0.3c-1.5,1.7-9.6,3.4-9.6,3.4S425.6,276,425.6,276
			z M433.7,260.4L433.7,260.4c2.2,0,3.8,0.1,3.2,0.8c-1.6,1.8-12.4,3.3-12.4,3.3l-0.2-3.3C424.5,261.2,430,260.5,433.7,260.4z
			 M424,239.1c0.1,0,6.7,0.1,7.3,0.9c0,0,0,0,0,0c0,0,0,0,0,0c0,0,0,0,0,0c0,0,0,0,0,0c0,0,0,0,0,0c-0.5,1.1-7.2,1.7-7.2,1.7
			L424,239.1L424,239.1z M423.6,243.2C423.6,243.2,423.6,243.2,423.6,243.2C423.6,243.2,423.6,243.2,423.6,243.2
			c0.4,0.1,3.2,0.2,3.5,0.6c0,0,0,0,0,0c0,0,0,0,0,0c0,0,0,0,0,0c0,0,0,0,0,0c0,0,0,0,0,0c0,0,0,0,0,0c0,0,0,0,0,0c0,0,0,0,0,0
			c0,0,0,0,0,0c0,0,0,0,0,0c0,0,0,0,0,0c0,0,0,0,0,0c0,0,0,0,0,0c-0.6,0.7-3.1,0.9-3.2,0.9c0,0,0,0,0,0c0,0,0,0,0,0c0,0,0,0,0,0
			C423.7,244.7,423.6,243.2,423.6,243.2L423.6,243.2z"/>
		<path fill="#007934" d="M426.9,313l1-0.6c-0.5,0.1-1,0.1-1.2,0.1L426.9,313z"/>
		<polygon fill="#007934" points="420.7,320.6 419.8,321.5 420.4,322.2 421.7,322.2 422.5,321.4 421.9,320.7 		"/>
		<path fill="#007934" d="M382.4,296.1l-1.6,1.6c0.6,0.2,1.2,0.4,2,0.7l1.5-1.5l-0.5-0.7L382.4,296.1z"/>
		<path fill="#007934" d="M418.5,312.1l-0.3,2c0.1,0.3,0.2,0.5,0.1,0.6c0,0-0.1,0-0.2,0l-0.3,2l0.5,0.8l1.6-1.5l2.1,3.1l2.3-2.4
			l-0.8-3l2.3-2.4l0.4,0.7v-2.3c0,0,0,0,0,0c0.2,0,1.2-0.2,2.5-0.5l-1.1-0.9h-5.3L418.5,312.1z"/>
		<polygon fill="#007934" points="392.2,296.8 391.6,296.1 388.9,296.1 388.1,296.8 388.7,297.6 391.3,297.6 		"/>
	</g>
	<path fill="none" stroke="#999999" stroke-width="0.25" stroke-linecap="round" stroke-linejoin="round" d="M435.2,190.9l0.2-1.6
		l-0.6-0.7l-0.7,0.8l-0.2,1.6l0.5,0.7L435.2,190.9z M424.4,184.8l0.2-1.6l-0.5-0.7l-0.8,0.8l-0.2,1.6l0.5,0.7L424.4,184.8z
		 M410.9,182.4l0.8-0.6l-0.6-0.9l-1.4,0l-0.7,0.8l0.5,0.7L410.9,182.4z M419,181l0.7-0.8l-0.5-0.8h-1.3l-0.7,0.8l0.5,0.8H419z
		 M482,224l0.7-0.9l0.3-1.5l-0.6-0.8l-1.4,0l-0.7,0.7l-0.3,1.6l0.5,0.8L482,224z M473.1,217.1l0.3-1.6l-0.6-0.7l-0.7,0.7l-0.2,1.5
		l0.5,0.7L473.1,217.1z M467.4,216.3l0.7-0.8l-0.5-0.8l-1.2,0l-0.8,0.8l0.5,0.8L467.4,216.3z M417.8,184.8l0.5,0.8h1.3l0.7-0.8
		l-0.5-0.8h-1.3L417.8,184.8z M395.3,385.2l0.8-0.9l-1.7-2.2l-1.2,0l-0.8,0.7l1.7,2.4L395.3,385.2z M357.1,254.7h-1.3l-0.7,0.8
		l0.5,0.8l1.2,0l0.8-0.8L357.1,254.7z M422.5,308.3l-4,3.8l-0.7,4.7l0.5,0.8l1.6-1.5l2.1,3.1l2.3-2.4l-0.8-3l2.3-2.4l1,1.6l3.7-2.3
		l-2.9-2.4H422.5z M484.3,225.5l-1.5,1.5l-2.6,0l-2.3-1.5l-1.7-6.2l-6.9,1.6l-3.4-3.1h-4l-1.5,1.5l-3.4-3.1l-5.5,1.6l-5.9-4.7
		l-3.5-7l0.5-2.9l-2.5-5.4l-1.3-0.1l-3.2-4.5l-2.6-0.1l-3.4-3.1l-1.6,1.5l-2-3l-1.5,1.5l-1-1.5l-6.5-1.5l-2-3.1h-7.8l-2.4-1.5
		l-3.1,3.1l-3.4-3.1h-5.2l-1-1.5h-9.2l-1.6-2.3l1.8-3.1l-0.2-2.7l-4.6-0.8l-7.4,0.2l0.4,3.3l-4.8,6.1l-1,6.2l-5.9,4.6l4,3.8h2.7
		l1.5-1.5l3.1,0.8l-2.3,6.1l1.2,1.5l-3.1,3l0.8,3.1l-6.1,6.2l-0.4,3l1.1,1.6l-4.1,18.4l4.8,3l-1.8,3.1l-3.6,6.2l1.9,0.7l1.5,3.8
		L357,260l3.1,0.8l1.5-1.5l0.9,3.1l3.2,0.7l-3.4,4.7l-2.4,7.6l1.5,2.2h4l1,1.6h2.5l4.8,3.1l4.5,10l1.3,3.8l3-3l13.3-1.6l0.7-4.7
		l2.4,1.5l2.3,1.6l3.2-3.1h5.2l-0.5,3.1l2.9-1.5h5.1l2.4,1.5l1.1,1.6l2.8-1.6l1.9,0.8l-0.1,1.6l-4.5,3l3,2.3l5.7-3.1l5.4-5.3
		l-1.1-1.5l2.3-2.2l1,1.4l1.5-1.5l10.7-1.5l1,1.5l5.2,0l2.5,1.5l3.9-3.8l2-4.6l-3.5-3.1l0.5-3.2l2.2-2.3l8.9,1.5l2.3-2.3l-0.3-6.2
		l1.5-1.5l-1.2-1.5l2.1-4.6l-1.1-1.6l0.7-4.6l3.1-3l0.2-1.6l-2.3-1.5l0.4-3.1l2.1-0.8l2.3-2.3l2.8-10.8L484.3,225.5z M420.7,320.6
		l-0.9,0.9l0.6,0.7l1.3,0l0.7-0.8l-0.6-0.7L420.7,320.6z M403.7,391.3l-1.2-1.5l-5.4,1.5l-3.2-4.5l-6.5,0l-3.7,2.3l-1,2.4l-3.8,0
		l-1,2.3l-4.3,3.1l1.1,1.5l-0.6,3l2.3,3.1l-2.1,4.6l3.5,3.1l0.3,6.2l2.7,3.8l2.9-1.5l2.5-3.8l5.9-4.6l0.5-3.1l5.2-3.9h4l2.7-1.5
		l5.5-5.4l0.3-3l-2.7-3.9H403.7z M384.3,296.8l-0.5-0.7l-1.3,0l-2.4,2.4l0.6,0.7l1.2,0.1L384.3,296.8z M392.2,296.8l-0.6-0.7h-2.7
		l-0.8,0.7l0.5,0.8l2.7,0L392.2,296.8z"/>
</g>

</svg>
