<?xml version="1.0" encoding="utf-8"?>

<svg version="1.2" baseProfile="tiny" xmlns="http://www.w3.org/2000/svg" xmlns:xlink="http://www.w3.org/1999/xlink" x="0px"
	 y="0px" viewBox="245.4 155.8 350 282.3" xml:space="preserve">

<g id="Nigeria">
	<g>
		<polygon fill="#008751" points="324.2,156.5 323.4,156.9 323.1,157.4 322.6,158.5 322.2,158.9 321.3,159.6 321,159.7 320,159.9
			315.8,159.7 312.8,160.3 311.1,160.2 310.5,159.9 309.8,159.2 309.1,158.9 308.2,159 298.9,161.3 297.3,161.9 296,162.9
			291.4,167.3 290.6,167.7 289.7,167.9 287.8,167.9 287.8,175 286.7,182.1 282.1,189.4 280.2,191.2 273.8,196 273.7,196.3
			274,203.7 273.2,207.6 273.2,208.9 273.9,211.1 274,212.1 273.5,213.1 273.1,213.6 272.7,214 272.6,214.5 272.8,216.2
			272.9,216.5 273,216.8 273.1,216.9 273.2,216.9 273.9,217.7 274.3,218.2 274.4,218.8 274.2,219.4 273.9,219.8 272.4,220.7
			271.7,221.4 269.7,224.8 269.4,226.1 269.2,226.6 268.6,228.2 268.6,228.9 269.1,229.7 274.3,237 275,237.7 275.2,237.7
			275.5,237.7 275.8,237.7 276,237.9 275.7,239.1 275.7,239.7 275.9,240.3 276.1,240.9 276.4,241.4 277,244 276.9,244.9
			276.3,246.4 276.3,246.9 276.4,247.3 276.7,247.5 276.9,247.7 277.1,248 277.3,248.3 277.6,249.3 277.8,249.6 278.2,249.7
			278.6,249.8 279,250 279.3,250.6 279.4,251.4 279.4,253.1 279.2,253.9 278.4,255.3 278.2,256.1 278.2,257.6 278,258.2
			277.5,258.7 277.1,258.8 275.2,257.8 274.6,257.7 274,257.9 273.4,258.5 273.2,258.7 273.2,258.9 273.1,259.5 273,259.9
			272.3,261 271.7,262.3 271.7,262.9 272.1,263.5 274.1,265.6 274.4,266 274.5,266.4 274.4,267.1 274.1,267.8 273.7,268
			273.3,268.2 272.8,268.7 272.7,269.1 272.5,271.6 272.2,272.2 271.2,273.4 270.5,274.8 269.9,275.2 268.2,275 267.1,275.4
			265,276.2 264.5,276.6 264.2,277.1 264.2,277.8 264.3,278.4 264.6,279.3 264.9,280.2 264.7,281 263.7,281.5 263.2,281.5
			262.6,281.4 262.1,281.5 261.9,282.2 262,282.4 262.1,282.8 262.1,282.9 260.3,285.3 260.1,285.5 259.6,285.6 259.4,285.8
			258.8,286.7 258.7,287.5 258.9,288.3 259.3,289.2 259.4,289.7 259.4,291.6 259.2,292.2 258.6,293.4 257.6,296.4 257.2,297.3
			256.5,297.8 254.5,298.3 254.1,298.3 253.9,298.2 253.6,298 253.3,297.8 252.9,297.8 252,297.8 251.7,297.9 251.4,298.1
			251.2,298.4 250.9,298.6 250.5,298.6 248.2,298.4 248.3,299.2 248.3,301.1 248.1,301.9 248,302.1 247.7,302.5 247.6,302.6
			247.7,302.8 247.8,302.9 247.9,303 248.1,303.2 248,303.6 247.7,304.5 247.6,304.9 247.6,305.2 247.8,305.6 247.7,305.9
			247.6,306 247.1,306.3 246.9,306.5 246.9,306.8 247.5,314.8 247.3,315.8 247.1,316.2 246.5,316.8 246.3,317.2 246.3,317.4
			246.4,318 246.4,318.2 246.2,319.5 246.1,320 246.2,320.7 246.5,321.4 247.1,322.6 247.3,323.2 247.2,323.8 247,324.4
			246.7,324.9 246.5,325.4 246.4,325.9 246.3,327.7 246,329.5 245.9,331.3 245.8,331.6 245.5,332.2 245.4,332.4 245.4,332.6
			245.7,333 246,333.8 246.7,334.6 246.9,335 247,335.4 246.7,340.3 246.8,341.5 247.4,342.6 248.3,343.6 248.9,344.7 248.8,345.9
			248.8,346.2 248.8,346.3 248.7,346.4 248,346.3 247.7,346.3 247.5,346.4 247.4,346.7 248,353.9 248,354.3 247.9,354.6
			247.7,354.9 247.4,355.4 247.3,355.6 247.3,355.8 247.4,356.2 247.6,356.5 248.4,357.1 248.6,357.4 248.4,357.7 248.1,357.9
			247.8,358 247.4,358.2 246.7,359.2 246.8,360.3 247.2,361.4 247.3,362.6 247,363.8 246.9,364.5 247.1,365.1 247.3,365.3
			247.5,365.5 247.8,365.6 248.2,365.6 248.4,365.8 248.4,366.1 248.5,367.4 248.4,367.7 248,368 247.5,368.5 247.1,369.1
			247.1,369.7 247.4,370.9 247.3,371.5 246.7,373.4 246.4,375.3 246.3,377.1 252.9,376.5 257.4,376.7 261.2,376.2 264.5,376.4
			266.2,376.2 266.4,375.6 266.2,375.4 266.2,375.2 266.1,375.1 265.9,374.9 265.8,374.7 265.9,374.5 266.1,374.3 266.2,374.1
			266.3,373.8 266.7,373.2 266.8,372.8 266.8,372.6 266.7,372.1 266.6,371.9 266.7,371.7 267,371.6 267.3,371.6 267.5,371.5
			268.2,370.8 268.5,370.5 269,370.2 269,370.7 268.8,371.3 268.8,371.6 269,372 269,372.1 269.2,372.3 269.6,372.2 270,372.4
			270,372.4 270.4,372.4 270.7,372.3 271.1,372.2 272.1,371.7 272.4,371.6 272.9,371.6 274.4,371.2 275.9,370.3 277.6,369.7
			279.2,370 279.4,370 279.6,370 279.8,370.1 280,370.2 277.6,370.6 277.2,370.7 277.1,371.4 276.7,371.8 276.1,372.2 275.4,372.4
			275,372.3 273.7,372.7 273.1,372.8 271.9,372.8 271.6,372.9 271.6,373.2 271.7,373.5 271.6,373.8 271.2,374.3 270.8,374.5
			270.3,374.6 269.7,374.6 269.4,374.8 269.1,374.8 269,374.5 268.9,374.5 267.8,375.5 267.7,375 267.7,374.6 267.5,374.4
			267,374.8 266.9,374.7 266.7,374.6 266.5,374.7 266.2,374.8 266.6,375.1 266.9,375.5 267.3,375.7 267.9,375.8 280.4,375.2
			287.8,375.8 296,377.3 299,378.7 300.1,379.4 301.9,381 302.9,381.7 305.1,383 306,383.8 307,384.8 307.7,386 308.3,386.6
			309.4,387 310,387.6 313.6,392.2 314.6,394.6 314.9,394.6 316.4,393.2 316.8,392.9 319,391.8 320.2,391.4 321.2,390.5
			321.8,390.4 321.1,391.5 318.7,392.4 317.8,393.2 317.8,393.5 317.9,393.8 318,394 317.8,394.2 317.6,394.2 317,393.7
			316.7,393.6 316.3,393.8 316.1,394.4 315.9,395 315.8,395.6 315.9,396.3 316.2,396.8 316.5,397.2 316.7,398 317.1,398.6
			317.6,399.2 318,399.6 318.4,399.9 318.6,399.9 319.3,399.7 320,399.3 320.3,399.2 321,399.1 321.5,398.9 321.9,398.6 322.2,398
			323,395.8 323.2,395.8 323.2,396.4 323.2,396.8 322.6,398.4 322.6,398.9 322.8,399.3 323.4,399.6 323.9,399.6 324.4,399.5
			324.7,399.4 324.7,156.4 		"/>
		<polygon fill="#008751" points="595.2,206.1 594.8,205.9 594.6,206 594.2,206.2 593.8,206.4 593.6,206.2 593.4,205.6 593,205.2
			592.4,204.9 591.8,204.5 592.1,204.4 592.2,204.3 592.2,204.1 591.9,204 591,203.3 590.8,203.1 590.8,202.8 590.9,202.4
			590.8,202.1 590,201.7 588.2,201.2 582.2,201 581.7,200.9 581.3,200.7 581.1,200.2 581,199.9 581.2,199 581.2,198.4 581,197.8
			581,195.5 577.7,179.7 564.4,161 557.2,160.7 556.3,160.9 556,161.1 556,161.6 555.6,161.9 554.4,163 554.2,163.3 554.1,163.6
			554,163.7 554.2,163.9 554.2,164.1 554.2,164.3 554,164.3 553.8,164.3 553.6,164.4 553.4,164.8 553.4,164.9 553.8,165
			553.3,165.7 552.6,165.9 551.8,166.1 551,166.4 551.1,166.2 551.2,165.9 551.1,165.7 550.8,165.6 550.7,165.7 550.5,166.2
			550.3,166.4 550.3,166.1 550.3,166 549.8,166.2 549.2,166.2 548.9,166.1 549.1,165.8 549.1,165.6 548.2,165.7 547.5,165.9
			544.9,167.3 544.1,167.4 543.3,167.2 543.1,167.7 542.9,167.7 542.5,167.6 542,167.4 542,167.7 542.3,167.7 542.5,167.8
			542.7,168 542.9,168.3 542.5,168.6 541.7,169.5 541.6,169.6 541.7,169.8 541.7,169.9 541.6,169.9 541.3,169.9 541.3,169.9
			541.1,170 540.7,170.1 540.7,170.2 540.8,170.6 541,170.8 541,170.9 540.6,170.9 540.5,170.8 540.3,170.6 540.2,170.5
			540.1,170.6 540,170.6 539.8,171.1 539.1,172 538.6,172.4 537.9,172.6 537.6,172.7 537.4,173.4 537.2,173.6 536.7,173.5
			536.4,173.3 536.2,173 535.9,172.8 535.8,173.2 535.8,173.4 535.6,173.6 535.4,173.8 535.2,173.8 535.1,173.7 534.9,173.8
			533.8,174.8 533.8,175.3 533.4,175.8 533.2,176.2 533.6,176.4 533.5,177.1 533.3,177.4 533.1,177.7 532.8,177.7 532.2,177.8
			532.1,178 531.8,179.5 531.7,179.9 531.3,180.1 530.8,180 530.2,179.8 529.6,179.7 527.7,179.6 527.3,179.5 527,179.7
			526.8,179.5 526.5,179.2 526.3,179.1 526,179.1 525.8,179.3 525.7,179.4 525.6,179.5 525.3,179.4 525.3,179.3 525.3,179.2
			525.2,179 524.8,178.8 523.4,178.3 522.9,178.4 522.3,178.8 521.8,178.9 520.9,178.9 519.2,178.5 518.6,178.2 517.2,177.2
			515.3,176 515.3,344.7 516.5,343.6 517.3,342.4 517.7,342.1 518.1,341.8 518.2,341.2 517.8,339.5 517.7,338.9 517.8,338.2
			518,337.6 519.1,335.7 522,331.7 523.1,330.6 523.3,330.1 523.2,329.6 523,328.9 522.8,327.8 522.8,326.7 523,326 524.2,324.3
			524.4,323.6 524.4,323.1 524,320.7 523.9,319.4 524.1,318.1 524.8,317.1 525.4,316.9 526.5,317.1 527.1,317 527.5,316.7
			527.7,316.4 527.9,316 528.1,315.7 529,315.1 529.3,314.9 529.2,314.1 529.2,313.6 528.5,312 528.2,311.6 529,311.8 529.5,311.9
			529.9,311.8 530.3,311.6 530.7,311.4 531,311.2 531.6,311.2 531.9,311.3 532.9,311.7 533.3,311.8 533.8,311.7 536.7,310.1
			537.3,309.5 537.7,308.6 537.9,307.8 538.2,307.4 538.5,307.2 538.9,307.3 539.3,307.3 539.6,307.3 540,307.2 540.7,306.3
			541,305 541.6,299.5 541.4,298.4 541.5,297.3 542,295.9 543.4,293.5 543.6,293 543.7,292.4 543.7,291.2 543.5,290.4 543.2,289.8
			542.4,289.6 542.2,289.5 542.4,289 542.6,288.9 544.3,288.1 544.6,287.9 544.9,287.6 545.7,286.5 546.1,286.2 548.2,285.3
			550.4,284.9 552.4,284.2 553.2,282.1 553.3,280.2 553.7,278.2 554,277.5 554.2,277 554.3,276.6 554,275.9 553.1,275 552.8,274.6
			552.8,273.9 553,273.3 553.7,272.2 553.8,271.5 553.7,270.9 553.4,270 553.4,269.4 553.9,268.4 554.9,268 557.1,267.8
			557.7,267.5 558.4,267.1 559,266.7 559.3,266.2 559.8,265.2 559.9,264.8 559.8,264.5 559.6,263.9 559.6,263.5 560.3,261.7
			561.3,256.1 562.4,252.4 563.2,250.7 568.4,243.3 568.7,242.5 568.5,241.4 568.7,240.8 569,240.2 569.5,239.8 570.6,239.2
			570.9,238.7 571.4,237.6 572.1,236.3 573.1,235.1 574.2,234 575.3,233.1 576.2,233.1 577.3,233.4 579.4,234.3 580,234.4
			580.6,234.2 581.3,233.9 581.8,233.5 582.6,232.7 582.9,232.5 583.7,232.4 584,232.3 586.6,229.9 587.1,229.6 588.8,229.1
			589.4,228.7 590.5,227.8 591.1,227.4 592.6,226.9 593.1,226.6 593.5,226 593.8,225.3 594,224.6 594.1,224 594.1,223.2
			593.9,222.6 593.6,222.1 593.1,221.7 593,221.5 592.9,221.3 592.8,221.1 592.5,220.9 592,220.9 591.9,220.9 591.7,220.5
			591.6,220.3 591.8,220 592.8,218.6 593,218.1 593.7,215.1 594,214.2 594.1,213.2 594.1,213 594,212.6 593.5,211.3 593.4,210.8
			594,210.4 593.9,210.1 594.4,208 594.6,207.7 594.7,207.5 594.8,207.3 595.4,206.7 595.3,206.4 		"/>
		<polygon fill="#008751" points="324.6,400.6 324,400.2 322.9,400.1 320.1,399.9 319.8,400 319.6,400.2 319.1,400.7 318.9,400.8
			318.8,401.1 318.9,401.7 319.1,402.3 319.7,402.7 320.6,403.6 320.7,403.7 320.9,404 321,404.2 324.3,405.3 324.7,405.3
			324.7,400.6 		"/>
		<polygon fill="#008751" points="324.1,406.4 323.4,406.5 323.3,406.9 323.9,409.5 324,410.9 323.9,411.9 324,412.2 324.3,412.3
			324.7,412.2 324.7,406.4 		"/>
		<polygon fill="#008751" points="324.6,413.3 324.7,413.6 324.7,413.1 		"/>
		<polygon fill="#FFFFFF" points="379.6,434.3 380,434.2 380.4,433.9 380.6,433.6 380.8,433.2 380.8,432.7 380.8,432.3 381,432
			381.4,431.7 381,431.5 379.7,431.7 379.2,431.5 378.8,430.7 378.4,430.5 378.3,431 378.1,431.3 377.6,431.9 376.9,432.9
			376,433.9 375.7,434.4 376,434.8 377,434.9 		"/>
		<polygon fill="#FFFFFF" points="384.3,433.3 384.8,433.3 386.2,432.8 386.7,432.7 387.8,432.7 388.3,432.6 388.6,432.3
			388.7,431.9 388.4,431.8 387.4,431.9 387,432 385.9,432.2 385.4,432.3 384.9,432.1 383.8,431.6 383.5,431.5 382,431.9
			381.8,432.1 381.5,432.6 381.7,433 382.1,433.2 		"/>
		<polygon fill="#FFFFFF" points="513.2,174.7 510,173.4 501.1,171.1 486.9,171.2 481.6,170.6 478.8,170.8 463.9,174 462.6,174.6
			457.1,177.7 456.6,178.1 456.5,178.5 456.4,179.2 456.2,179.5 456,179.7 455.9,179.8 455.7,179.7 455.4,179.8 454.9,180.2
			453.9,181.1 448.7,187.3 448.3,187.6 448,187.8 447.8,187.9 447.2,187.9 441,187.2 440.5,187.2 438.9,187.7 437.8,187.7
			428.3,186.5 420.6,184.3 419.6,183.6 419.1,183 418.2,181.7 417.6,181 416.4,180.1 415.7,179.7 414.9,179.6 414.5,179.6
			413.8,179.7 413.5,179.8 413.2,179.9 413,180 412.9,180 412.6,179.9 412.4,179.8 409.5,177.1 408.8,176.2 408.4,175.9 408,175.7
			407.1,175.5 406.7,175.3 405.7,174.5 404.9,174 404.2,173.3 403.9,173.1 403.1,172.8 395.7,171.7 394.7,171.8 393.7,172.3
			383.1,178.7 382.2,178.9 381.1,178.9 378.1,178.4 377.4,178.5 375.7,180.6 374.3,181.8 373.7,182.1 373,182.2 370.8,182.2
			369.8,182.1 368.9,181.8 368,181.1 366.9,180.1 365.2,178.1 362.1,172.4 357.3,167.2 353.2,163.3 351.3,162.2 349.2,161.8
			348.6,161.9 346.9,162.8 346.6,162.9 346.4,162.8 346.3,162.7 346,162.5 329.5,156 328.5,155.8 324.7,156.4 324.7,399.4
			324.9,399.3 325.2,399 325.5,398.1 325.8,397.8 326.4,397.8 326.9,398 327.5,398.4 328,398.9 328.2,399.4 328.2,399.7
			328.2,399.9 328,400 327.7,400 327.6,399.9 327.5,399.2 327.4,399 327.1,398.8 326.6,398.6 326.2,398.6 325.8,398.8 325.6,399.1
			325.1,400.2 324.8,400.6 324.7,400.6 324.7,405.3 326,405.4 325.8,405.1 325.6,404.7 325.5,404.4 325.7,404.2 326,404.3
			326.2,404.4 326.2,404.6 326.4,404.8 327,405 327.5,404.9 327.9,404.5 328.2,403.8 328,403 328.4,402.4 329.1,402 329.8,402.2
			329.9,402 330.1,401.9 330.2,401.8 330.7,401.9 331.1,401.7 331.5,401.4 332,401.2 331.6,401.8 331.2,402.2 330.9,402.4
			329.9,402.4 329.5,402.5 329.1,402.7 328.9,403 328.8,403.5 328.9,404 329,404.4 329.3,404.8 330,405.4 330.2,405.8 330,405.8
			329.7,405.6 329.3,405.6 328.8,405.7 327.8,406.1 327.6,406.2 327.4,406.4 327.2,406.8 327,407 326.7,406.6 326.7,406.4
			326.6,406.2 326,406.3 324.7,406.4 324.7,412.2 325,412.2 325.4,412.3 325.8,412.2 326,412.2 326.3,412.2 326.4,412 326.4,411.5
			326.5,411.4 326.8,411.5 327.6,412.4 327.8,412.8 327.2,412.6 326.6,412.6 327.2,414.1 326.8,413.9 326.3,413.2 326,412.9
			325.5,412.8 325.1,412.8 324.7,412.9 324.7,413.1 324.7,413.6 324.7,413.7 324.9,414 325.1,414.2 325.2,414.4 325.2,414.9
			325.4,415.4 325.8,416.1 325.9,416.6 326.2,417.9 327,420.2 327.9,421.2 328.2,421.9 327.2,421.3 327.5,421.7 328.2,423
			328.4,423.4 328.7,424 330,424.8 330,425.3 329.8,425.2 329.7,425.1 329.6,425.1 329.9,426.3 330.7,427.5 333.4,430 333.6,430.1
			334.4,430.9 334.6,431.2 335.2,431.9 335.6,432.1 336,432.1 336.4,432.3 336.6,432.7 336.4,432.6 336,432.4 335.8,432.3
			336.1,432.7 337.3,433.4 337.8,433.9 338,433.9 338,433.6 338,433.3 338.3,433.3 338.6,433.3 338.3,434 338.6,434.7 339.3,435.2
			339.9,435.5 340.1,435.6 340.5,435.9 340.9,436.2 341.4,436.3 341.7,435.9 341.6,435.5 341.2,434.5 341.6,434.7 341.8,434.9
			342,433.9 342.2,433.9 342.1,434.4 342.2,434.9 342.2,435 342.6,435.5 342.5,435.6 342.4,435.7 342.4,436.7 342.6,436.8
			343.3,436.9 343.7,437.1 344.1,437.4 344.3,437.4 344.4,436.8 344.2,436.3 344,436 343.9,435.6 344,435.3 343.9,435 343.7,434.6
			343.7,434.2 343.8,433.9 344.1,433.8 344.5,433.9 344.8,434 345.1,434 345,434.8 345,435.3 345.1,435.2 345.4,435.1 345.6,435.1
			345.5,435.5 345.1,436.2 345,436.7 345,437.2 345.1,437.6 345.3,437.9 345.8,438.1 345.9,437.9 346.1,437.8 346.2,437.7
			346.9,437.9 348,437.8 348.8,437.5 349,437.2 348.6,437.1 348.4,437.1 348.2,437.2 348.2,436.8 348.4,436.7 348.6,436.6
			348.8,436.5 349,436 349.2,435.5 349.2,434.7 349,434.2 348.7,433.8 348.4,433.1 348.9,433.2 349.2,433.5 349.5,433.8
			349.8,434.1 349.6,433.5 349.4,432.8 349.4,432.1 349.4,431.5 349.6,431.5 350,432.9 350.2,434.5 351.2,433.3 351.4,433.2
			351.6,433.2 351.8,433.3 352.2,433.3 350.3,435.4 349.7,436.7 350.4,437.5 351,437.3 352.3,437.2 352.9,437 353.4,436.8
			354.1,436.8 354.6,436.6 354.4,436.1 354.8,435.9 355.2,435.9 356,436.4 357.7,436.6 359.1,436.2 359.2,435.3 359.6,434.1
			359.7,433 359.4,431.9 358.5,431.3 359.4,431.2 359.9,432 360,433 360,434.3 360,435.2 360.4,436.2 360.5,436.4 361.4,436.3
			362.3,436.3 362.6,436.2 362.8,435.9 362.8,435.5 362.5,434.5 362.2,434 361.9,433.3 361.8,432.9 361.7,431.5 361.6,431.1
			361.8,431 361.9,430.9 362.1,430.7 362.2,430.5 362.3,430.8 362.4,432.6 362.5,433 362.8,433.7 362.8,433.3 362.8,432.7
			363,432.5 362.8,431.5 363,430.2 363.4,429 364,428.3 364,429.2 363.9,429.5 363.3,431.2 363.2,431.7 363.2,432.7 363.2,432.8
			363.5,433 363.6,433.2 363.5,433.3 363.4,433.5 363.3,435.2 363.4,435.7 364,436 365.1,436.1 366.3,436 367.2,435.9 367.9,435.5
			367.5,435.1 366.9,434.5 367,433.9 366.6,433.4 366.3,432.6 365.7,429.7 365.8,429.3 365.9,429.1 366.6,428.5 366,427.6
			365.6,427.1 365.3,426.9 365,426.7 364.9,426.2 364.8,425.1 364.5,424.1 364.3,423.5 364.1,423.3 363.7,423.1 363.6,422.7
			363.5,422.2 363.4,421.7 363.6,421.8 363.9,421.9 364.1,421.8 364.4,421.7 364.4,422 364.5,422.2 364.8,422.5 365.1,422.2
			365.4,422.2 365.5,422.5 365.3,422.8 365,423.2 364.9,423.6 365,424.3 365.4,426.1 365.9,427.1 366.7,427.5 367.2,427.7
			367.2,428.1 367.1,428.6 367,428.9 366.8,429.2 366.6,429.4 366.4,429.7 366.4,430.2 366.5,430.9 366.8,431.8 367.3,432.6
			367.8,432.9 367.6,433.4 367.6,433.9 367.8,434.4 368.2,434.7 368.8,434.4 369.5,434.6 370.1,434.9 370.8,435.1 370.7,434.9
			370.6,434.8 370.6,434.6 371.2,434.9 371.5,435 371.9,435.1 372.1,435 372.3,434.7 372.4,434.4 372,433.9 370.9,431.9
			370.9,431.2 371.2,429.2 370.9,428.8 370.4,428.7 369.9,428.8 369.6,429.3 369.4,429 369.5,428.8 369.7,428.7 369.8,428.4
			369.7,428.2 369.6,428 369.4,427.7 369,427 368.8,426.6 368.8,426.1 369.6,427.1 369.9,427.5 370.2,428.1 370.5,428 370.6,427.9
			370.7,428.2 370.8,428.3 371.1,428.3 371.3,428.3 370.7,426.6 370.4,426.1 370.5,425.9 370.4,425.2 370.6,424.7 370.9,425.4
			371,425.8 371.2,425.9 371.8,425.1 371.9,425.4 372,426 372.2,426.3 372.8,427 372.9,427.3 372.8,427.2 372.5,427.2 372.4,427.1
			372.4,427.5 372.3,428.1 372.2,428.7 372.1,428.9 371.7,429.1 371.9,429.6 372.4,430.4 372.4,431.9 372.6,432.6 372.9,433.3
			373.2,433.3 374,433.1 373.6,432.6 373.5,432.1 373.6,431.6 374,431.3 373.8,431.9 374,432.3 374.4,432.6 375,432.9 374.9,432.7
			375,432.3 375.6,432.5 376.1,432.3 376.9,431.4 377,430.9 376.8,430.4 376.3,430 376,429.7 376.7,429.3 376.6,428.4 376,427.4
			375.1,426.9 374.5,426.7 374.2,426.3 374,425.3 373.8,425.1 373.6,425.1 373.4,425 373.3,424.7 373.4,424.7 373.6,424.5
			373.7,424.2 373.8,423.9 374.1,424.4 374.6,425.7 374.8,426 375.3,426.4 375.6,426.7 375.6,426.7 376.3,426.7 376.7,426.5
			376.9,426.5 377,426.8 377,427.6 377.2,428.2 379.1,430.2 379.7,431.1 379.9,431.3 381.2,431.1 381.3,430.8 381.4,430.6
			381.2,430.4 380.4,430.2 379.9,429.8 379.6,429.7 379.8,429.5 379.5,429.4 379.4,429.3 379.4,429.1 379.6,429 379.7,428.8
			379.8,428.6 379.9,428.5 380.4,428.5 380.6,428.4 380.8,428.3 381.1,428.8 381.8,429.1 382.5,429.3 383.3,429.3 384.3,429.8
			384.9,429.9 385.2,429.3 385.4,429.3 385.6,429.5 386,429.5 386.3,429.3 386.6,429.1 387.1,428.6 387.2,428.5 387.1,428.3
			386.7,427.8 386.7,427.6 386.9,427.2 386.9,427 386.8,426.6 386.8,426.2 386.8,425.9 387.1,425.7 387.6,425.3 387.7,425.3
			387.2,426.7 387.1,427.4 387.6,427.9 387.4,428.2 387.3,428.3 387.9,429 387.9,429.1 387.8,429.4 387.6,429.6 387.4,429.7
			387.3,429.9 387.4,430.2 387.6,430.2 388,430.2 388.3,430.3 388.2,430.4 388.1,430.5 388.1,430.6 387.9,430.7 390.5,430.9
			390.9,431 391.3,431.4 392.2,431.5 393.1,431.5 393.7,431.3 393.6,431.2 393.3,431.1 393.1,431.1 392.7,431.1 393,430.8
			393.3,430.7 393.7,430.7 394,430.9 398.9,430.3 400.2,430.3 400.8,430.2 401.8,429.7 402.3,429.7 403.5,429.9 406,429.9
			407.7,430.1 409,430.1 409.2,430 409.5,429.9 409.9,429 410.2,428.5 410.8,428.2 411.2,427.8 411.1,427.1 410.9,426.9
			410.5,426.8 410.3,426.6 410.2,426.2 410.2,425.9 410.4,425.3 410.5,425.1 410.2,424.6 409.7,423.4 409.4,423.1 409.1,423
			408.8,422.6 408.5,422.1 408.3,421.7 408.8,421.4 408.7,420.7 407.9,419.3 407.5,418.8 405.9,417.3 405.9,417.1 406.1,417.1
			406.3,417.4 406.6,417.7 406.9,418 407.2,418.1 407.6,418.2 407.8,418.5 408.1,419.1 408.3,419.6 408.3,419.6 409,420
			409.8,420.6 410.1,420.9 409.9,421.3 410.5,421.7 410.7,421.7 410.6,422 410.5,422.1 411.3,422.8 412.1,422.8 412.8,422.3
			413,421.3 413.1,421.3 413,422.4 412.7,423.4 412.8,424.2 413.6,424.5 414,424.4 414.6,424.2 414.8,424.1 415,424.2 414.9,424.5
			414.8,424.8 414.6,425 414.5,425.3 414.7,425.4 415,425.3 415.1,425.3 415.6,425.4 415.9,425.5 416.3,425.4 416.5,424.9
			416.6,424.6 416.4,424.2 416.3,423.9 416.4,423.6 416.7,423.1 416.7,422.8 416.9,422.6 417.1,422.3 417.4,422 417.6,421.9
			417.9,422 418.1,422.1 418.2,422.3 418.7,421.8 418.6,421.4 418.5,421 418.4,420.3 418.6,419.9 419.4,419.3 419.6,418.8
			420.8,417 420.8,417 421.2,416.4 421.5,415.8 421.9,414.5 422.1,414.1 422.6,413.3 422.9,413 423.3,412.8 423.6,412.8
			423.9,412.6 424.1,412.3 424.9,408.3 424.9,408 424.6,407.3 424.6,406.9 424.8,406.2 425.4,405 425.6,404.3 425.6,403.7
			425.5,403.1 425.4,402.6 425.6,401.9 426.1,401.4 426.6,400.9 427,400.3 427.2,399.6 426.9,398.8 426.3,398.2 425.7,397.7
			425.1,397.2 424.7,396.4 424.9,396 425.5,395.6 426,395 426.1,394.3 425.8,393.8 425.5,393.3 425.5,392.7 425.8,392.2
			426.8,391.5 427.2,391.1 427.7,390.6 428.3,390.7 429,390.9 429.5,390.8 429.6,390.4 429.6,389.6 429.8,389.4 430.3,389.2
			430.6,388.8 431.3,387.9 431.3,387.9 434,385.1 438,381.9 438.7,380.8 439.5,379.1 439.9,378.6 440.3,378.4 440.7,378.4
			441,378.4 441.5,378.4 442.3,377.9 443.2,376.2 444.1,375.7 445.4,375.2 446,374.9 446.5,374.4 447.1,373.1 447.6,372.8
			448.4,372.6 449.8,372.6 450.2,372.3 452.4,365.2 453,364.6 453.7,364.7 454.2,364.9 454.8,365.1 455.5,364.8 462.6,358.8
			463.3,358.4 463.7,358.5 464,359 464.4,361.1 464.7,361.7 465.3,362.2 466.1,362.4 473.6,362.3 473.6,361.6 473.8,361.2
			474,360.8 474.4,360.3 474.5,360.2 474.7,360.1 474.8,360 475,357.8 475.2,356.7 475.6,355.6 476,354.8 476.6,355.5 476.7,356.9
			477.2,357.3 478,357.6 480.1,358.7 482.5,359.6 483.4,360.2 483.9,361.4 484.2,362.7 484.7,364 485.7,364.9 488.4,365.4
			489.4,366.2 489.9,367.4 490,368.8 490,369.9 490.1,371.1 490.6,373.3 491.1,374.7 491.6,375.1 492.4,375.2 495.1,375 495.2,375
			495.6,375.2 495.8,375.3 495.9,375.2 496.3,374.9 496.4,374.8 496.7,374.9 497.3,375 497.6,375.1 498.4,374.9 499.1,374.5
			499.7,374 499.9,373.3 500,372.1 500.5,371.1 501.2,370.5 502.4,370.4 503.2,369.9 503.9,369 504.7,367 504.9,366.2 505,365.5
			504.8,364.9 504.2,364.2 504,363.8 504.2,363 504.7,362.3 506.5,360.6 508.2,359.5 508.3,359.4 508.4,359 508.5,358.9
			508.7,358.8 509,358.9 509.3,358.8 509.7,358.8 509.9,358.7 510.1,358.5 510.1,358.2 510.2,357.9 510.7,357.6 511.9,356.5
			512.2,356.3 512.6,356.2 513,356.2 513.2,356.4 513.5,356.4 513.8,356.3 514,355.7 513.7,354.9 512.5,353.7 511.1,351.6
			510.7,351.2 510,351.1 509.8,350.9 510,350.7 510.6,350.3 511.1,349.7 513,347.1 515.3,344.7 515.3,176 		"/>
	</g>
	<path fill="none" stroke="#999999" stroke-width="0.25" stroke-linecap="round" stroke-linejoin="round" d="M379.7,431.7l-0.5-0.2
		l-0.5-0.8l-0.4-0.2l-0.1,0.5l-0.1,0.3l-0.6,0.6l-0.7,1l-0.9,1l-0.3,0.5l0.3,0.3l1,0.1l2.6-0.5l0.4-0.2l0.4-0.3l0.3-0.3l0.1-0.5
		l0-0.5l0.1-0.4l0.2-0.3l0.4-0.3l-0.4-0.1L379.7,431.7z M387.4,431.9L387,432l-1.1,0.3l-0.5,0.1l-0.5-0.1l-1-0.5l-0.4-0.1l-1.4,0.4
		l-0.3,0.2l-0.3,0.5l0.2,0.4l0.4,0.2l2.1,0.1l0.5-0.1l1.5-0.5l0.5-0.1l1.1,0l0.5-0.1l0.3-0.4l0.2-0.4l-0.3-0.1L387.4,431.9z
		 M595.3,206.4l-0.1-0.3l-0.4-0.2l-0.2,0.1l-0.4,0.2l-0.4,0.1l-0.2-0.1l-0.2-0.6l-0.5-0.4l-0.6-0.3l-0.6-0.4l0.3-0.2l0.1,0v-0.2
		l-0.3-0.1l-0.9-0.6l-0.2-0.2l-0.1-0.3l0.2-0.4l-0.1-0.3l-0.8-0.4l-1.9-0.5l-6-0.2l-0.5-0.1l-0.4-0.2l-0.3-0.5l0-0.3l0.2-0.9l0-0.6
		l-0.2-0.6l0-2.3l-3.3-15.8L564.4,161l-7.2-0.3l-0.9,0.1l-0.3,0.2l0,0.5l-0.4,0.3l-1.2,1.1l-0.2,0.3l-0.2,0.3l0,0.1l0.1,0.2l0.1,0.2
		l-0.1,0.2l-0.2,0l-0.2,0l-0.1,0.1l-0.3,0.4l0.1,0.1l0.4,0l-0.5,0.7l-0.7,0.3l-0.8,0.1l-0.8,0.3l0.1-0.2l0.1-0.3l-0.1-0.2l-0.3-0.1
		l-0.2,0.1l-0.2,0.5l-0.2,0.2l0-0.3l0-0.1l-0.5,0.2l-0.5,0l-0.3-0.1l0.2-0.3v-0.2l-0.8,0.1l-0.7,0.3l-2.6,1.3l-0.8,0.2l-0.8-0.2
		l-0.1,0.5l-0.3,0l-0.4-0.2l-0.5-0.1v0.2l0.2,0.1l0.2,0.1l0.2,0.2l0.2,0.2l-0.4,0.3l-0.8,0.9l0,0.1l0,0.2l0,0.1l-0.1,0l-0.3,0
		l-0.1,0l-0.1,0.1l-0.4,0.1l-0.1,0.1l0.1,0.4l0.2,0.2l0,0.1l-0.4,0l-0.1-0.1l-0.2-0.2l-0.2-0.1l-0.1,0.1l0,0l-0.2,0.5l-0.8,0.9
		l-0.5,0.4l-0.7,0.2l-0.3,0.2l-0.2,0.7l-0.2,0.2l-0.4-0.1l-0.3-0.2l-0.2-0.3l-0.3-0.2l0,0.5l0,0.2l-0.2,0.2l-0.2,0.2l-0.2,0.1
		l-0.1-0.2l-0.2,0.1l-1.1,1l-0.1,0.5l-0.4,0.5l-0.2,0.4l0.5,0.2l-0.2,0.7l-0.2,0.3l-0.2,0.3l-0.2,0.1l-0.7,0.1l-0.1,0.1l-0.2,1.6
		l-0.1,0.3l-0.4,0.2l-0.5-0.1l-0.6-0.2l-0.7-0.1l-1.8-0.1l-0.5-0.1l-0.3,0.2l-0.2-0.2l-0.2-0.3l-0.3-0.2l-0.3,0l-0.2,0.1l-0.1,0.2
		l-0.1,0.1l-0.2,0l-0.1-0.1l0-0.2l-0.1-0.2l-0.3-0.2l-1.5-0.5l-0.5,0.1l-0.6,0.4l-0.4,0.1l-1,0.1l-1.7-0.4l-0.6-0.3l-1.3-1.1
		l-4.1-2.5l-3.2-1.3l-8.8-2.2l-14.2,0.1l-5.3-0.6l-2.8,0.2l-15,3.2l-1.2,0.5l-5.5,3.1l-0.5,0.5l-0.1,0.3l-0.1,0.7l-0.1,0.3l-0.2,0.2
		l-0.1,0l-0.1,0l-0.3,0.1l-0.6,0.4l-1,0.9l-5.2,6.1l-0.3,0.3l-0.3,0.2l-0.2,0.1l-0.6,0l-6.2-0.7l-0.5,0l-1.6,0.4h-1.1l-9.5-1.1
		l-7.7-2.3l-1.1-0.6l-0.5-0.6l-0.8-1.4l-0.6-0.6l-1.3-1l-0.7-0.3l-0.8-0.2h-0.4l-0.7,0.1l-0.3,0.1l-0.3,0.2L413,180l-0.1,0l-0.3-0.1
		l-0.2-0.1l-2.9-2.7l-0.7-0.9l-0.4-0.3l-0.4-0.2l-0.9-0.2l-0.4-0.2l-1-0.8l-0.8-0.5l-0.7-0.7l-0.3-0.2l-0.8-0.3l-7.4-1.1l-1,0.1
		l-1,0.4l-10.6,6.4l-0.9,0.3h-1.1l-3-0.6l-0.7,0.1l-1.8,2.1l-1.4,1.2l-0.6,0.3l-0.7,0.1l-2.2,0l-1-0.1l-0.9-0.3l-0.9-0.7l-1.1-1
		l-1.7-2l-3.1-5.7l-4.8-5.2l-4.1-3.9l-1.9-1.1l-2.1-0.5l-0.6,0.1l-1.7,0.9l-0.3,0.1l-0.2-0.1l-0.2-0.2l-0.3-0.1l-16.5-6.5l-0.9-0.2
		l-4.3,0.8l-0.8,0.4l-0.3,0.4l-0.5,1.1l-0.4,0.5l-0.9,0.6l-0.3,0.1l-1,0.2l-4.2-0.2l-3,0.5l-1.7-0.1l-0.7-0.3l-0.6-0.6l-0.7-0.3
		l-0.9,0.1l-9.3,2.3l-1.6,0.6l-1.4,1l-4.6,4.4l-0.8,0.4l-0.9,0.2l-1.9,0.1l-0.1,7.1l-1,7.1l-4.7,7.3l-1.9,1.8l-6.4,4.8l-0.1,0.3
		l0.3,7.4l-0.8,3.9l0,1.3l0.7,2.2l0.1,1l-0.5,1l-0.5,0.5l-0.3,0.4l-0.1,0.5l0.2,1.7l0.1,0.3l0.2,0.3l0.1,0.1l0.1,0.1l0.7,0.7
		l0.4,0.5l0.1,0.6l-0.2,0.6l-0.4,0.3l-1.5,0.9l-0.6,0.7l-2,3.4l-0.4,1.3l-0.2,0.4l-0.6,1.6l0,0.7l0.4,0.8l5.2,7.4l0.7,0.7l0.2,0
		l0.3,0l0.3,0l0.2,0.2l-0.3,1.2v0.6l0.1,0.6l0.2,0.5l0.3,0.5l0.6,2.6l0,0.9l-0.6,1.6l0,0.5l0.1,0.3l0.2,0.2l0.3,0.2l0.2,0.3l0.1,0.3
		l0.3,1l0.3,0.3l0.4,0.1l0.4,0.1l0.4,0.2l0.3,0.6l0.1,0.9l0,1.6l-0.2,0.8l-0.8,1.5l-0.3,0.8l0,1.5l-0.2,0.5l-0.4,0.6l-0.5,0.1
		l-1.9-1l-0.6-0.1l-0.6,0.2l-0.6,0.6l-0.2,0.3l-0.1,0.2l0,0.6l-0.1,0.4l-0.7,1.1l-0.6,1.3l0,0.5l0.4,0.7l2,2l0.3,0.4l0.1,0.5
		l-0.1,0.7l-0.3,0.6l-0.4,0.3l-0.4,0.2l-0.5,0.4l-0.2,0.5l-0.2,2.5l-0.3,0.6l-0.9,1.1l-0.8,1.4l-0.5,0.5l-1.8-0.2l-1.1,0.3l-2.1,0.9
		l-0.5,0.4l-0.3,0.6l-0.1,0.7l0.1,0.6l0.4,0.9l0.2,0.9l-0.2,0.8l-0.9,0.5l-0.5,0l-0.6-0.1l-0.5,0.1l-0.2,0.7l0,0.2l0.2,0.4l0,0.1
		l-1.8,2.3l-0.2,0.2l-0.5,0.2l-0.2,0.2l-0.6,0.9l-0.1,0.8l0.2,0.8l0.4,0.9l0.1,0.5v1.9l-0.2,0.6l-0.6,1.1l-1,3l-0.5,0.9l-0.7,0.5
		l-2,0.5h-0.3l-0.3-0.1l-0.3-0.2l-0.3-0.2l-0.3,0l-0.9,0l-0.3,0.1l-0.3,0.2l-0.2,0.3l-0.3,0.2l-0.4,0.1l-2.2-0.2l0.1,0.8l-0.1,1.9
		l-0.2,0.8l-0.1,0.2l-0.3,0.5l-0.1,0.1l0.1,0.2l0.1,0.1l0.1,0l0.1,0.2l0,0.4l-0.4,0.8l-0.1,0.4l0,0.3l0.1,0.4l0,0.3l-0.2,0.2
		l-0.5,0.2l-0.2,0.2l0,0.3l0.6,8l-0.2,1l-0.2,0.4l-0.6,0.6l-0.2,0.4l0,0.3l0.1,0.5v0.3l-0.2,1.2l0,0.6l0.1,0.7l0.2,0.6l0.6,1.2
		l0.2,0.6l0,0.6l-0.2,0.5l-0.3,0.5l-0.2,0.5l-0.1,0.5l-0.1,1.8l-0.4,1.9l-0.1,1.8l-0.1,0.3l-0.3,0.6l-0.1,0.2l0,0.2l0.2,0.4l0.3,0.8
		l0.7,0.8l0.3,0.4l0.1,0.4l-0.3,4.9l0.1,1.1l0.6,1.1l0.9,1l0.6,1.1l-0.1,1.2l-0.1,0.3l0,0.2l-0.1,0.1l-0.6-0.1h-0.3l-0.2,0.1
		l-0.1,0.3l0.6,7.2l0,0.4l-0.1,0.3l-0.2,0.3l-0.3,0.6l-0.1,0.2l0,0.2l0.1,0.4l0.2,0.3l0.8,0.6l0.2,0.3l-0.1,0.3l-0.3,0.2l-0.4,0.1
		l-0.3,0.2l-0.8,1l0.1,1.1l0.4,1.1l0.1,1.2l-0.3,1.2l-0.1,0.6l0.1,0.6l0.2,0.3l0.2,0.2l0.3,0.1l0.4,0l0.2,0.1l0.1,0.3l0.1,1.4
		l-0.2,0.3L248,368l-0.5,0.5l-0.3,0.6l0,0.6l0.3,1.2l-0.1,0.6l-0.6,1.9l-0.3,1.9l0,1.8l6.6-0.6l4.5,0.2l3.8-0.4l3.3,0.2l1.7-0.2
		l0.1-0.6l-0.2-0.1l0-0.2l-0.1-0.2l-0.1-0.2l-0.2-0.3l0.1-0.2l0.2-0.2l0.1-0.2l0.1-0.4l0.4-0.6l0.1-0.3l0-0.3l-0.2-0.4l0-0.2
		l0.1-0.2l0.3-0.1l0.3,0l0.2-0.1l0.6-0.7l0.4-0.3l0.5-0.3l0,0.4l-0.2,0.6l0,0.4l0.1,0.4l0.1,0.1l0.2,0.1l0.4,0l0.4,0.1l0.1,0.1
		l0.4,0l0.3-0.1l0.3-0.1l1-0.5l0.3,0l0.5,0l1.4-0.5l1.6-0.9l1.6-0.6l1.7,0.4l0.2-0.1h0.2l0.2,0.1l0.2,0.2l-2.4,0.3l-0.4,0.1
		l-0.2,0.6l-0.4,0.5l-0.6,0.3l-0.7,0.3l-0.4-0.1l-1.3,0.4l-0.6,0.1h-1.2l-0.3,0.1l0,0.2l0.1,0.3l-0.1,0.3l-0.4,0.5l-0.5,0.2
		l-0.5,0.1l-0.6,0l-0.4,0.1l-0.2,0l-0.1-0.2l-0.2,0l-1,0.9l-0.1-0.4l-0.1-0.4l-0.2-0.2l-0.5,0.4l-0.2-0.2l-0.2,0l-0.2,0.1l-0.3,0.1
		l0.4,0.3l0.3,0.3l0.4,0.3l0.6,0.1l12.4-0.6l7.5,0.6l8.2,1.5l3,1.3l1.1,0.7l1.8,1.7l1,0.6l2.2,1.4l0.9,0.7l1,1.1l0.7,1.1l0.5,0.6
		l1.2,0.5l0.6,0.6l3.6,4.6l1.1,2.4l0.3,0l1.5-1.4l0.4-0.3l2.2-1.2l1.2-0.3l1-0.9l0.6-0.1l-0.7,1.1l-2.4,0.9l-0.9,0.8l0,0.3l0.1,0.3
		l0.1,0.3l-0.2,0.2l-0.2,0l-0.6-0.5l-0.3-0.1l-0.4,0.2l-0.3,0.5l-0.2,0.7l-0.1,0.6l0.1,0.7l0.3,0.5l0.3,0.4l0.3,0.8l0.4,0.6l0.5,0.6
		l0.4,0.4l0.4,0.3l0.2,0.1l0.7-0.3l0.7-0.4l0.3-0.1l0.7-0.1l0.5-0.2l0.4-0.4l0.3-0.6l0.8-2.2h0.2l0,0.5l-0.1,0.4l-0.5,1.6l0,0.5
		l0.2,0.4l0.6,0.3l0.5,0l0.5-0.1l0.5-0.2l0.3-0.3l0.4-0.9l0.3-0.3l0.6,0l0.5,0.2l0.6,0.4l0.5,0.5l0.2,0.5v0.3l0,0.2L328,400l-0.3,0
		l-0.1-0.1l-0.2-0.6l-0.1-0.2l-0.3-0.2l-0.4-0.1l-0.5,0l-0.4,0.2l-0.2,0.3l-0.5,1l-0.3,0.4h-0.2l-0.6-0.3l-1.1-0.2l-2.8-0.1l-0.2,0
		l-0.2,0.2l-0.5,0.5l-0.2,0.1l-0.1,0.3l0.1,0.6l0.2,0.6l0.6,0.4l0.9,0.8l0.1,0.2l0.1,0.3l0.1,0.2l3.3,1.1l1.7,0.1l-0.2-0.2l-0.2-0.4
		l-0.1-0.4l0.1-0.2l0.4,0.1l0.1,0.1l0.1,0.2l0.2,0.2l0.6,0.3l0.5-0.1l0.4-0.4l0.3-0.7L328,403l0.4-0.6l0.7-0.4l0.7,0.1l0.1-0.1
		l0.2-0.1l0.1-0.1l0.5,0.2l0.4-0.2l0.4-0.3l0.5-0.2l-0.4,0.6l-0.3,0.4l-0.4,0.2l-1,0l-0.4,0.1l-0.4,0.2l-0.2,0.3l-0.1,0.5l0,0.5
		l0.1,0.4l0.3,0.4l0.7,0.6l0.2,0.4H330l-0.3-0.2l-0.5,0l-0.5,0.1l-1,0.4l-0.2,0.1l-0.2,0.2l-0.2,0.4L327,407l-0.2-0.4l-0.1-0.2
		l-0.1-0.3l-0.5,0.2l-1.9,0l-0.7,0.1l-0.2,0.4l0.6,2.6l0.1,1.3l0,1.1l0,0.2l0.3,0.2l0.7-0.1l0.4,0.2l0.4-0.2l0.2,0l0.3,0l0.1-0.1
		l0-0.5l0.1-0.1l0.3,0.2l0.8,0.9l0.2,0.4l-0.6-0.1l-0.6-0.1l0.6,1.6l-0.4-0.2l-0.5-0.7l-0.3-0.3l-0.4-0.1l-0.5,0l-0.4,0.1l-0.1,0.4
		l0.1,0.5l0.2,0.3l0.2,0.2l0.1,0.2l0.1,0.5l0.2,0.4l0.4,0.8l0.2,0.5l0.3,1.4l0.8,2.2l0.9,1l0.3,0.7l-1-0.6l0.3,0.4l0.7,1.2l0.1,0.5
		l0.3,0.6l1.3,0.8l0,0.5l-0.2-0.1l-0.1,0l-0.1,0l0.3,1.2l0.8,1.1l2.7,2.5l0.2,0.1l0.8,0.8l0.2,0.3l0.6,0.7l0.4,0.2l0.4,0.1l0.3,0.2
		l0.2,0.4l-0.2-0.1l-0.4-0.2l-0.2-0.1l0.3,0.4l1.2,0.7l0.5,0.5h0.2l0-0.3l0.1-0.2l0.2-0.1l0.3,0l-0.3,0.7l0.4,0.7l0.6,0.5l0.6,0.2
		l0.2,0.2l0.4,0.3l0.4,0.3l0.4,0.1l0.3-0.3l-0.1-0.5l-0.4-1l0.4,0.3l0.2,0.1l0.2-1h0.2l0,0.5l0,0.5l0.1,0.1l0.4,0.6l0,0.1l-0.2,0
		l0,1l0.2,0.2l0.6,0l0.5,0.2l0.3,0.3l0.2,0l0.1-0.6l-0.1-0.5L344,436l-0.2-0.3l0.1-0.4l-0.1-0.3l-0.1-0.4l-0.1-0.4l0.1-0.3l0.4-0.1
		l0.3,0.1l0.3,0.1l0.3,0l-0.1,0.8v0.5l0.1-0.1l0.3-0.1l0.1-0.1l-0.1,0.4l-0.4,0.7l-0.1,0.5l0,0.5l0.1,0.4l0.3,0.3l0.5,0.2l0.1-0.1
		l0.2-0.1l0.1-0.1l0.7,0.2l1.1-0.1l0.8-0.3l0.2-0.3l-0.4-0.1h-0.2l-0.2,0.1v-0.4l0.2-0.2l0.2-0.1l0.2-0.1l0.2-0.4l0.2-0.6l0-0.8
		l-0.2-0.5l-0.3-0.5l-0.3-0.7l0.5,0.1l0.3,0.3l0.2,0.3l0.3,0.3l-0.2-0.5l-0.1-0.7l0-0.7l0-0.6h0.2l0.5,1.4l0.1,1.6l1-1.2l0.2-0.1
		l0.2,0l0.2,0.1l0.4,0l-1.9,2.1l-0.6,1.2l0.7,0.8l0.6-0.2l1.3,0l0.6-0.2l0.5-0.1l0.7-0.1l0.5-0.2l-0.2-0.5l0.4-0.1l0.4-0.1l0.8,0.5
		l1.7,0.2l1.5-0.3l0-1l0.4-1.1l0.1-1.2l-0.3-1l-0.8-0.6l0.9-0.1l0.4,0.8l0.1,1.1l0,1.3l0.1,0.9l0.3,0.9l0.2,0.2l0.8-0.1l0.9,0
		l0.3-0.1l0.2-0.3l0-0.3l-0.3-1l-0.2-0.6l-0.4-0.6l-0.1-0.5l0-1.4l-0.2-0.4l0.2-0.1l0.2-0.1l0.1-0.2l0.1-0.2l0.2,0.4l0.1,1.8
		l0.1,0.4l0.3,0.7l0-0.4l0-0.6l0.1-0.2l-0.2-1l0.2-1.3l0.4-1.2l0.6-0.7l0,0.8l-0.1,0.3l-0.7,1.7l-0.1,0.5v1l0.1,0.1l0.3,0.2l0.1,0.1
		l0,0.1l-0.1,0.2l-0.1,1.7l0.1,0.4l0.6,0.4l1.1,0.1l1.2-0.1l0.9-0.2l0.7-0.4l-0.4-0.4l-0.6-0.5l0.1-0.7l-0.4-0.5l-0.3-0.9l-0.6-2.8
		l0.1-0.4l0.1-0.2l0.6-0.6l-0.5-0.9l-0.4-0.5l-0.4-0.2l-0.3-0.2l-0.1-0.5l-0.1-1.1l-0.2-1l-0.2-0.5l-0.3-0.2l-0.4-0.2l-0.1-0.4
		l-0.1-0.5l-0.1-0.5l0.3,0.1l0.2,0l0.2,0l0.2-0.1l0.1,0.3l0.1,0.2l0.3,0.3l0.4-0.3l0.3,0l0.1,0.2l-0.2,0.4l-0.3,0.4l-0.1,0.4
		l0.1,0.7l0.4,1.8l0.5,1l0.8,0.4l0.5,0.2l0.1,0.4l-0.1,0.5l-0.1,0.3l-0.2,0.3l-0.2,0.2l-0.1,0.3l0,0.5l0.1,0.7l0.3,0.9l0.4,0.8
		l0.5,0.3l-0.2,0.5l0,0.5l0.2,0.5l0.3,0.3l0.7-0.2l0.6,0.1l0.6,0.3l0.6,0.2l-0.1-0.2l0-0.1l0-0.1l0.5,0.2l0.3,0.1l0.4,0l0.3-0.1
		l0.2-0.3l0.1-0.3l-0.4-0.5l-1-2l-0.1-0.7l0.3-2l-0.2-0.4l-0.5-0.1l-0.5,0.1l-0.3,0.5l-0.2-0.3l0.1-0.2l0.2-0.1l0.1-0.3l0-0.2
		l-0.1-0.2l-0.2-0.3L369,427l-0.1-0.4l-0.1-0.5l0.8,0.9l0.3,0.5l0.3,0.6l0.3-0.1l0.1-0.1l0.1,0.2l0.2,0.1l0.2,0h0.3l-0.6-1.7
		l-0.3-0.5l0.1-0.2l-0.1-0.7l0.1-0.4l0.3,0.6l0.1,0.5l0.2,0l0.5-0.7l0.1,0.3l0.1,0.6l0.1,0.3l0.6,0.6l0.2,0.3l-0.2-0.1l-0.3-0.1
		l-0.1-0.1l0.1,0.4l-0.1,0.6l-0.1,0.5l-0.1,0.2l-0.3,0.2l0.1,0.5l0.5,0.8l0.1,1.5l0.2,0.7l0.4,0.7h0.2l0.8-0.2l-0.3-0.4l-0.2-0.5
		l0.1-0.5l0.4-0.3l-0.1,0.6l0.2,0.4l0.4,0.3l0.5,0.2l0-0.1l0-0.5l0.6,0.2l0.5-0.2l0.8-0.9l0.2-0.5l-0.3-0.5l-0.4-0.4l-0.4-0.3
		l0.8-0.4l-0.1-1l-0.7-1l-0.9-0.5l-0.5-0.2l-0.3-0.4l-0.3-1l-0.2-0.2l-0.2,0l-0.2-0.1l-0.1-0.3l0.1,0l0.2-0.2l0.1-0.3l0-0.3l0.3,0.5
		l0.5,1.3l0.2,0.3l0.5,0.4l0.2,0.3l0.1,0h0.6l0.4-0.2h0.2l0.1,0.3v0.8l0.3,0.6l1.8,2l0.7,0.9l0.1,0.2l1.3-0.2l0.2-0.3l0-0.3
		l-0.1-0.2l-0.8-0.2l-0.5-0.4l-0.4-0.1l0.2-0.2l-0.2-0.1l-0.2-0.1v-0.2l0.3-0.1l0.1-0.2l0-0.2l0.1-0.1l0.5,0l0.2-0.1l0.2-0.1
		l0.4,0.5l0.6,0.3l0.8,0.2l0.7,0l1,0.5l0.6,0.1l0.3-0.6h0.2l0.3,0.2l0.3,0l0.3-0.2l0.3-0.2l0.5-0.5l0.1-0.1l-0.1-0.2l-0.4-0.5l0-0.2
		l0.2-0.4l0-0.3l-0.1-0.3l-0.1-0.4l0.1-0.3l0.2-0.3l0.5-0.4h0.2l-0.5,1.3l-0.1,0.7l0.4,0.5l-0.1,0.3l-0.1,0.1l0.5,0.7l0.1,0.1
		l-0.1,0.3l-0.2,0.2l-0.2,0.1l-0.1,0.2l0.1,0.3l0.2,0l0.3,0l0.4,0.1l-0.2,0.1l-0.1,0.1l-0.1,0.1l-0.1,0.1l2.6,0.2l0.4,0.1l0.4,0.4
		l0.9,0.1l0.9,0l0.6-0.2l-0.2-0.1l-0.2-0.1l-0.3,0l-0.3,0l0.2-0.3l0.4-0.1l0.4,0l0.3,0.2l5-0.6h1.3l0.6-0.1l1-0.5l0.6,0l1.2,0.2h2.5
		l1.7,0.2h1.3l0.3-0.1l0.3-0.1l0.4-0.9l0.3-0.5l0.6-0.3l0.5-0.4l-0.1-0.7l-0.3-0.2l-0.3-0.1l-0.3-0.2l-0.1-0.4l0-0.3l0.2-0.6
		l0.1-0.2l-0.4-0.5l-0.4-1.3l-0.3-0.2l-0.3-0.2l-0.3-0.4l-0.3-0.5l-0.2-0.4l0.5-0.3l-0.1-0.7l-0.8-1.4l-0.4-0.5l-1.6-1.5v-0.2h0.2
		l0.2,0.2l0.3,0.3l0.4,0.3l0.3,0.1l0.4,0.1l0.2,0.3l0.3,0.6l0.2,0.5l0,0l0.7,0.4l0.8,0.6l0.2,0.3l-0.1,0.4l0.6,0.3l0.2,0.1l-0.1,0.3
		l-0.1,0.1l0.8,0.7l0.8,0l0.6-0.5l0.2-1h0.2l-0.1,1l-0.3,1l0.1,0.8l0.9,0.3l0.4-0.1l0.6-0.3l0.3-0.1l0.1,0.1l-0.1,0.3l-0.1,0.3
		l-0.1,0.2l-0.1,0.3l0.2,0.1l0.3,0l0.1,0l0.4,0.1l0.4,0.1l0.3-0.1l0.2-0.5l0-0.3l-0.2-0.4l0-0.3l0.1-0.3l0.3-0.6l0.1-0.3l0.1-0.2
		l0.3-0.3l0.3-0.3l0.2-0.1l0.3,0.1l0.2,0.1l0.1,0.1l0.5-0.5l-0.1-0.4l-0.1-0.4l-0.1-0.6l0.3-0.4l0.8-0.6l0.2-0.5l1.1-1.8v0l0.4-0.6
		l0.3-0.6l0.4-1.3l0.2-0.4l0.6-0.9l0.3-0.3l0.3-0.1l0.3-0.1l0.3-0.1l0.2-0.4l0.8-4l0-0.3l-0.2-0.7l0-0.4l0.2-0.7l0.6-1.2l0.2-0.7
		l0-0.6l-0.1-0.6l0-0.6l0.2-0.6l0.4-0.6l0.5-0.5l0.4-0.6l0.1-0.7l-0.3-0.8l-0.5-0.6l-0.7-0.5l-0.6-0.6l-0.4-0.7l0.2-0.4l0.5-0.4
		l0.5-0.6l0.1-0.7l-0.3-0.5l-0.3-0.5l0-0.6l0.3-0.5l1-0.7l0.4-0.5l0.5-0.5l0.6,0.1l0.6,0.2l0.5-0.1l0.1-0.4l0.1-0.8l0.2-0.2l0.5-0.2
		l0.4-0.4l0.6-0.9v0l2.7-2.8l4-3.2l0.7-1l0.8-1.8l0.4-0.4l0.4-0.2l0.3,0l0.4,0l0.5,0l0.8-0.5l0.9-1.7l0.9-0.5l1.3-0.5l0.6-0.3
		l0.5-0.5l0.7-1.3l0.4-0.4l0.9-0.2l1.4,0l0.4-0.3l2.2-7.1l0.5-0.6l0.7,0.1l0.6,0.3l0.6,0.2l0.7-0.3l7.1-6l0.7-0.4l0.4,0.1l0.2,0.5
		l0.4,2.1l0.3,0.6l0.6,0.5l0.8,0.2l7.5-0.1l0-0.6l0.1-0.5l0.2-0.4l0.4-0.5l0.2-0.1l0.2,0l0.1-0.1l0.2-2.2l0.3-1.1l0.4-1.1l0.4-0.8
		l0.5,0.7l0.2,1.4l0.5,0.4l0.8,0.3l2,1.1l2.4,0.9l1,0.7l0.5,1.2l0.3,1.3l0.6,1.3l0.9,0.9l2.7,0.5l1,0.8l0.6,1.2l0.1,1.4l0,1.2
		l0.1,1.1l0.5,2.3l0.6,1.4l0.5,0.4l0.8,0.1l2.7-0.3l0.2,0l0.3,0.2l0.2,0l0.2-0.1l0.3-0.3l0.1-0.1l0.3,0l0.6,0.2l0.3,0l0.7-0.2
		l0.8-0.4l0.6-0.5l0.2-0.7l0.2-1.2l0.4-1l0.8-0.6l1.2-0.1l0.8-0.4l0.7-1l0.8-2l0.2-0.8l0.1-0.8l-0.1-0.5l-0.6-0.7l-0.2-0.4l0.2-0.8
		l0.5-0.7l1.8-1.6l1.7-1.1l0.1-0.2l0.1-0.4l0.1-0.1l0.1,0l0.3,0l0.3-0.1l0.5,0l0.2-0.1l0.2-0.2l0.1-0.3l0.1-0.3l0.4-0.3l1.2-1.1
		l0.3-0.2l0.4-0.1l0.3,0l0.3,0.1l0.2,0.1l0.3-0.1l0.3-0.7l-0.4-0.7l-1.1-1.2l-1.5-2.1l-0.4-0.3l-0.7-0.1l-0.2-0.2l0.2-0.3l0.5-0.4
		l0.6-0.5l1.8-2.7l3.5-3.5l0.8-1.2l0.5-0.3l0.4-0.3l0.1-0.6l-0.4-1.7l-0.1-0.6l0.1-0.6l0.2-0.6l1-1.9l2.9-4l1.1-1.2l0.2-0.4
		l-0.1-0.5l-0.2-0.7l-0.2-1.1v-1.1l0.2-0.7l1.2-1.7l0.2-0.6l0-0.6l-0.5-2.4l-0.1-1.3l0.2-1.3l0.7-1l0.6-0.3l1.1,0.2l0.6-0.1l0.3-0.2
		l0.2-0.3l0.2-0.3l0.2-0.3l0.9-0.6l0.2-0.3l0-0.8l-0.1-0.4l-0.7-1.7l-0.2-0.4l0.8,0.3l0.4,0.1l0.4,0l0.5-0.2l0.3-0.2l0.4-0.2
		l0.5-0.1l0.4,0.1l0.9,0.4l0.4,0.1l0.5-0.1l3-1.6l0.5-0.6l0.4-0.9l0.3-0.8l0.2-0.4l0.3-0.2l0.4,0l0.4,0.1h0.4l0.4-0.2l0.6-0.9
		l0.3-1.3l0.6-5.5l-0.2-1.1l0-1.2l0.6-1.4l1.3-2.4l0.2-0.5l0.1-0.5l0-1.2l-0.2-0.9l-0.3-0.6l-0.8-0.1l-0.1-0.1l0.2-0.5l0.2-0.1
		l1.7-0.8l0.2-0.2l0.3-0.3l0.8-1.1l0.4-0.3l2-0.9l2.3-0.4l1.9-0.8l0.8-2.1l0.1-1.9l0.4-2l0.3-0.7l0.3-0.5l0.1-0.5l-0.3-0.7l-0.9-0.9
		l-0.3-0.5l0-0.7l0.2-0.6l0.7-1.1l0.1-0.7l-0.1-0.6l-0.4-1l0-0.6l0.5-1l1-0.4l2.3-0.2l0.5-0.2l0.7-0.4l0.6-0.5l0.3-0.4l0.5-1
		l0.1-0.4l0-0.3l-0.2-0.6l0-0.4l0.6-1.8l1-5.6l1.1-3.7l0.8-1.7l5.2-7.4l0.4-0.8l-0.2-1.1l0.1-0.6l0.3-0.5l0.5-0.4l1.1-0.6l0.4-0.5
		l0.5-1.2l0.7-1.2l1-1.2l1.1-1.1l1.1-0.9h0.9l1.1,0.3l2,0.9l0.6,0.1l0.6-0.2l0.6-0.3l0.5-0.4l0.8-0.8l0.4-0.2l0.8-0.1l0.2-0.1
		l2.6-2.4l0.5-0.3l1.7-0.5l0.6-0.4l1.1-1l0.6-0.4l1.5-0.5l0.5-0.3l0.4-0.5l0.3-0.7l0.2-0.7l0.1-0.6l0-0.7l-0.2-0.6l-0.3-0.5
		l-0.5-0.5l-0.2-0.2l-0.1-0.2l-0.1-0.2l-0.2-0.1l-0.5,0l-0.1,0l-0.3-0.4l0-0.3l0.1-0.3l1.1-1.4l0.2-0.5l0.6-3l0.3-0.9l0.1-1l0-0.2
		l0-0.3l-0.5-1.3l-0.1-0.6l0.5-0.3l-0.1-0.3l0.5-2.1l0.2-0.4l0.1-0.2l0.1-0.2l0.6-0.6L595.3,206.4z"/>
</g>

</svg>
