<?xml version="1.0" encoding="utf-8"?>

<svg version="1.2" baseProfile="tiny" xmlns="http://www.w3.org/2000/svg" xmlns:xlink="http://www.w3.org/1999/xlink" x="0px"
	 y="0px" viewBox="206.1 110.8 427.9 372.4" xml:space="preserve">

<g id="Nicaruaga">
	<g>
		<path fill="none" d="M357.5,379.1l1.6,0.3l0.8,0.8l0.9,2.6h-0.6l-0.5-1.8l-1.2,0.6l-0.8,1.5l1,0.8l1.5,0.9l0.6,2.1l0,4l0.6,1.6
			l0,1l-1.4,0.7l-0.7,0.7l-0.6,0.9l-0.3,0.8l0.6,1.1l2.9,3l1.2,0.9l-0.5-1.6l-0.1-0.9l0.1-1.1h0.6l0.3,0.5l0.2,0.4l-0.1,0.4
			l-0.4,0.4l0.7,1.4l1.1,5.1l-0.5-0.2l-0.8-0.2l-0.4-0.2l-0.1,0.9l0.2,0.8l0.4,0.7l0.7,0.6v-1.2l1.4,1.2l2.7,4.5l0.6,1.4l2.4,8.8
			l1.6,2.7l10.5,10.4l2.8,0.3l1.5,0.4l1.3,0.6l2.4,1.4l1,0.8l1,1l1.2,0.9l7.6,2.7l3.6,0.3l3,0.7l3.2,1.1l0.9,0.7l1.7,1.8l0.7,0.4
			l1.9-0.1l1,0.1l2,0.9l1.4-0.1l1.4-0.3l1.4,0l15.5,3.5l1.4,0.1l1.9,0.4l1.3,1.6l1.8,0.3l0.8-0.2l2.2-0.9l0.5-0.3l0.5-0.2l2.8-0.1
			l3.7-2.7l0.8-0.8l0.1-1.6l-1.1-2.8l-0.3-1.8v-6.8l-0.5-2l-0.8-1.2l-2.4-2.4l-0.8-0.5l-0.8,0l-1,0.2l-0.5-0.8l0.3-0.4l0.5-0.3
			l0.2-0.3l-0.9-1.4l-1.2-0.9l-1-1l-0.4-1.8l-0.1-1.7l-0.2-0.9l-0.3-0.7l-0.6-0.6l-0.5-0.1l-0.6-0.1l-0.7-0.4l-2.9-4.1l-2-1.2
			l-3.4-4.2l-2.2-1.6l-1-1l-0.7-2.3l-0.6-0.8L430,404l-0.2-0.1l-0.7-0.2l-0.3-0.2l-0.2-0.3l-0.2-0.6l-0.2-0.3l-3.2-3.8l-3.4-5.1
			l-0.7-0.2l-1.9-0.3l-0.7-0.4l-1.2-1.4l-0.7-0.4l-1-0.2l-1.3-0.5l-0.8-1.2l-0.6-1.4l-0.7-1.1l-2.3-1.6l-3.8-1.9l-3.7-0.7l-1.9,1.8
			l-4.1-4.1l-1-2.3l-1.7-2.5l-0.6-0.5l-3.9-4.6l-2.8-2.1l-2,1.4h-0.5v-0.6l-0.7,0.3l-1,0.1l-0.9-0.1l-0.4-0.5l-0.3-1l-0.7-0.5
			l-2-0.7l-5.7-3.1l-1.3-1l0-0.2l-1.7,0.9l-1.9,1.2l-2.3,0.6l-2.3-0.7l-1.6,2l-2.7,5.4l-1,2.7l-0.2,1.2l-0.2,1.8l0.1,1.6
			L357.5,379.1z M377.2,413.6l1.4-3.4l1.1-1.5l1.8-0.7l3.7,0l1-0.5l0.6,0.6l0.5,0.3l1.1,0.5l0.9,0.7l0.5,0.8l0.2,1.6l0,1.5l0.3,1.3
			l1.2,1.1l1-0.3l1,0.2l1.1,0.4l1.3,0.2l1,0.2l0.3,0.5l0.2,0.8l0.8,1.2l0.7,1.3l-0.3,1.2l-0.9,0.9l-1.2,0.4l-0.4,0.2l-1.1,0.8
			l-0.3,0.2l-0.7-0.1l-0.9-0.4l-0.8-0.1l-1.9-1.1l-1.6-4.8l-2.1-1.2l-1.5,0.1l-2.7,0.6l-1.7-0.1l-1.4-0.4l-3.3-2L377.2,413.6z
			 M362.9,396.1l-0.5-0.6l-0.1-0.6l0.2-0.8l2.4-1.8l0.8,0.7l1-0.1l2-0.6l0.6,0.7l0.5,1.5l0.4,2.8l-8.3,0.3l1.2-0.5l0.5-0.1
			L362.9,396.1z"/>
		<polygon fill="none" points="301.8,344.5 304.3,345.9 312,349.1 314.8,351 315.8,351 316.6,350.2 317.6,349.1 320,347.5
			322.8,347 325.3,347.9 326.5,350.8 326.5,352.6 326,354.1 325.1,355.1 323.9,355.5 323.6,355.8 323.5,356.3 323.4,356.9
			323.5,357.3 323.8,357.7 324,357.8 324.3,357.7 325.5,358 338.6,357.7 341.3,356.7 342.1,355.5 342.6,353.8 343.6,347.3
			343.7,345.4 343.1,343.7 340.8,342.6 338.4,344.1 336.1,346.7 334.2,348.4 334,346.1 332.5,339.7 331.5,338.4 330.8,337.8
			328.3,335.4 328,334.9 328.3,334.1 327.7,329.5 327.1,329.1 326.5,329 325.9,329.1 325.4,329.5 324,329.1 323,329.8 321.9,330.8
			320.3,331.3 318.8,331.5 316.9,332.3 315.6,332.5 313,333.3 311.5,335.1 310.2,337.1 308.2,338.4 306.5,338.5 304.5,338.3
			302.9,337.7 302.3,336.9 302.1,336.2 301.7,335.8 301.1,335.7 300.5,336 300.1,336.6 300,337.2 299.9,339 300.2,342.4 		"/>
		<polygon fill="none" points="583.1,171.9 583.1,173.4 582.9,173.7 582.5,174 582.2,174.5 581.9,175.2 582,175.9 582.1,176.5
			582.5,177.6 583.4,178.1 583.8,178.1 584.2,177.6 585.5,178.6 586.3,179.8 587.2,180.4 588.4,179.4 589,177.9 588.9,176.2
			588.3,174.6 587.2,173.4 587.2,172.9 587.8,171.8 587.4,170.6 586.6,169.4 585.1,167.8 584.5,167.3 583.9,167.3 583.7,168.4
			583.9,168.8 585,169.9 585.5,170.5 584.8,170.5 584.3,169.9 583.4,169.4 581.3,168.7 581.3,169.4 582.6,170.9 		"/>
		<path fill="#003876" d="M288.7,364.6l3.3,5.5l1.6,2l0.4,0.4l2.1,1.6l1,1l0.4,1.2l0.3,1.3l1.5,2.7l1.3,1.9l2.3,2.3l0.9,0.5l0.9,0.8
			l2.3,5.1l1.1,1.4l0.5,0.6l10.3,7.8l1,2.7l1.1,1.3l1.3,1l7.9,3.4l3.2,3.1l2.7,1.2l0.1,0.2l0.7,2.3l0.3,0.7l1.2,1.1l3.8,2.1l2.9,3.1
			l2.3,1.2l2.9,3.5l1.3,1.2l3,0.8l0.3,0.4l1.3,0.9l0.4,0.2l0.8,0.5l9.2,10.2l1.6,2.3l0.8,3.1l0.7,1.5l1.2,0.7l1.7,0.3l4.3,1.8
			l2.1-3.3l1.6-3.4l2.4-3.2l2.9-1.2l2.5,1.3l1.2,1.1l1.2,1.1l1.4,0.8l1.4,0.8l13.8,5l9.8,3.6l10.9,4l15.4,5.6l2,0.2l2-0.7l15.3-10
			l2.7-0.6l1.5,0.7l3.3,2.3l1.5,0.2l1.9-0.1l2,0.6l4.3,1.9l0.5,0.1l0.4,0.2l0.4,0.2l0.4,0.3l2,2.4l0.7,0.6l0.4,0.2l0.4,0.2l0.9,0.4
			l0.9,0.1l0.8-0.3l4.6-3l0.4-0.2l0.4-0.2l0.8,0.4l0.2,0.7l0,0.9l0.2,1.1l0.4,0.6l1.1,1.4l0.2,0.6l0.9,0.8l4,1.5l0.9,0.6l0.8,0.8
			l1.6,0.8l0.7,0.6l0.7,0.6l0.3,2.1l-1.2,0.6l-0.4,0.2l-0.4,0.7l0.2,0.5l0.4,0.4l0.2,0.3l1.9,1.5l0.5,0.6l1-0.7l1.3,0l1.4,0.2l1-0.2
			l1.6,1.5l1,0.4l1-0.7h0.6l1,1l2.1-1.4l1.5,0.3l0.5-0.5l0.5-0.5l1.2-0.2l1,0.6l0.4,1.5l5.2,4.1l0.6,0.3l0.8,0.1l0.4-0.1l0.4-0.1
			l1.2-0.8l0.6-0.2l2.4,0.5l0.3-0.2l1.8-2l5.7-2.1l6.1-1.4l3-1.5l0.2-2.3v0l-0.8-3.1l-0.1-3.7l0-0.4l-0.1-0.4l0.6-0.4l0.5,0.1l0.3,0
			l0.3,0l0.3,0l0.3,0l-1.4-0.7l-1.8-0.4l-1.3,0.2l0.3,0.9l-1.5,0.3l-0.7-1.8l-0.6-1.7l-1.6-1l-0.7-0.7l-2.1-3.2l-0.8-2.1l-2.6-3.9
			l-1.9-4.5l-2.6-11.3l0-8.7l0.4-1.5l0.8-1.3l2.7-3.4h0.5l1.8,0.3l1.2-3l0.8-4l0.9-2.7l0.7-0.6l0.7-0.3l0.8-0.1l1,0l0.8-0.3l0.9-1.3
			l0.7-0.3l0.1-0.2l1.2-0.4l1.2-0.2l0.2,0.2l0.7-0.6l0.3-0.5l0.1-0.7l0-1.1l-0.2-3l-4-15.7l-0.8-0.7l-1.4,0.1l-0.8,0.3l-0.5,0.9
			l-0.6,1.7l0.1,0.7l0.4,0.6l-0.1,0.4l-1.3,0.1l-0.9-0.1l-0.8-0.3l-0.6-0.5l-0.7-1.7l-1.2-1.3l-1.4-1.2l-1.1-0.8l0.4-0.7l0.7-0.8
			l0.8-0.6l0.7-0.3l0.5-0.3l1.6-2l0.3-0.2l0.4-0.2l0.5-0.2l0.5-0.5l0.1-0.6l-0.2-0.5l-0.3-0.5l-0.1-0.5l0.2-0.6l0.8-1.6l0.2-0.8
			l-0.1-1.1l-0.2-1.1l-0.4-0.9l-0.5-0.7l-2.1-0.9l-1.1-0.6l0.5-0.3l3.6,1.1l1.5,0l0.5-1.7l0.1-1.4l1.3-1.9l0.3-1.5l-0.3-1.1
			l-0.2-0.3H287L288.7,364.6z M357,375.1l0.2-1.2l1-2.7l2.7-5.4l1.6-2l2.3,0.7l2.3-0.6l1.9-1.2l1.7-0.9l0,0.2l1.3,1l5.7,3.1l2,0.7
			l0.7,0.5l0.3,1l0.4,0.5l0.9,0.1l1-0.1l0.7-0.3v0.6h0.5l2-1.4l2.8,2.1l3.9,4.6l0.6,0.5l1.7,2.5l1,2.3l4.1,4.1l1.9-1.8l3.7,0.7
			l3.8,1.9l2.3,1.6l0.7,1.1l0.6,1.4l0.8,1.2l1.3,0.5l1,0.2l0.7,0.4l1.2,1.4l0.7,0.4l1.9,0.3l0.7,0.2l3.4,5.1l3.2,3.8l0.2,0.3
			l0.2,0.6l0.2,0.3l0.3,0.2l0.7,0.2l0.2,0.1l1.5,1.4l0.6,0.8l0.7,2.3l1,1l2.2,1.6l3.4,4.2l2,1.2l2.9,4.1l0.7,0.4l0.6,0.1l0.5,0.1
			l0.6,0.6l0.3,0.7l0.2,0.9l0.1,1.7l0.4,1.8l1,1l1.2,0.9l0.9,1.4l-0.2,0.3l-0.5,0.3l-0.3,0.4l0.5,0.8l1-0.2l0.8,0l0.8,0.5l2.4,2.4
			l0.8,1.2l0.5,2v6.8l0.3,1.8l1.1,2.8l-0.1,1.6l-0.8,0.8l-3.7,2.7l-2.8,0.1l-0.5,0.2l-0.5,0.3l-2.2,0.9l-0.8,0.2l-1.8-0.3l-1.3-1.6
			l-1.9-0.4l-1.4-0.1l-15.5-3.5l-1.4,0l-1.4,0.3l-1.4,0.1l-2-0.9l-1-0.1l-1.9,0.1l-0.7-0.4l-1.7-1.8l-0.9-0.7l-3.2-1.1l-3-0.7
			l-3.6-0.3l-7.6-2.7l-1.2-0.9l-1-1l-1-0.8l-2.4-1.4l-1.3-0.6l-1.5-0.4l-2.8-0.3L373,426.1l-1.6-2.7l-2.4-8.8l-0.6-1.4l-2.7-4.5
			l-1.4-1.2v1.2l-0.7-0.6l-0.4-0.7l-0.2-0.8l0.1-0.9l0.4,0.2l0.8,0.2l0.5,0.2l-1.1-5.1l-0.7-1.4l0.4-0.4l0.1-0.4l-0.2-0.4l-0.3-0.5
			h-0.6l-0.1,1.1l0.1,0.9l0.5,1.6l-1.2-0.9l-2.9-3l-0.6-1.1l0.3-0.8l0.6-0.9l0.7-0.7l1.4-0.7l0-1l-0.6-1.6l0-4l-0.6-2.1l-1.5-0.9
			l-1-0.8l0.8-1.5l1.2-0.6l0.5,1.8h0.6l-0.9-2.6l-0.8-0.8l-1.6-0.3l-0.6-0.7l-0.1-1.6L357,375.1z"/>
		<polygon fill="#003876" points="627.2,168.2 627.2,168.2 626.8,168.1 		"/>
		<polygon fill="#003876" points="632.9,163.3 631.8,163.3 630.4,164 629.7,164.8 629.4,165.8 628.8,166.8 627.5,167.5 627.5,167.9
			627.4,168.1 627.2,168.2 631.8,168.5 633.3,167.8 633.9,165.4 633.7,164 		"/>
		<polygon fill="#003876" points="362,397.5 370.3,397.2 369.9,394.4 369.4,392.8 368.8,392.2 366.8,392.8 365.8,392.8 364.9,392.2
			362.6,394 362.4,394.8 362.5,395.4 362.9,396.1 363.8,396.9 363.2,397 		"/>
		<path fill="#003876" d="M567.7,222.3l3.3-10.9l2.1-8l1.2-2.7l1.7-2.4l4.1-2.8l0.6-1.1l0.4-1.4l3.1-3.7l7.2-11.2l2.3-5.4l0.4-3
			l-0.5-3.4l-4.2-11.8l-0.7-4.1l-0.8-1.6l-0.2-0.5l-3.4-15.1l-0.8-0.7l-0.6,0.6l0.1,2l-0.7-1.2l-0.9-0.8l-1-0.3l-1,0.5l0.7,0.3
			l1.6,1l0.6,0.5l-1.3,1.6l-1.3-0.4l-1.2-1.2l-1.1-0.7l-0.6-0.8l-0.9-3.5l-1.2-0.9l-0.3,0.4l-0.8,0.9l0.9-2l3.8-4.8l1.7-1.5l1-0.6
			l1.4-0.5l1.2,0.3l0.5,1.7l0.2,1.7l0.9,2.2l0.1,1.6l-0.7-0.8l-0.9-0.3l-1,0.1l-1,0.5v0.5l0.8,0.5l0.3-0.1l0.7-0.4l0,0.6l-0.1,0.4
			l-0.2,0.4l-0.3,0.5v-0.6l-0.7,0.8l-0.2,0.4l-0.2,0.5l3-1.2l1-0.8l0.7-1.1l0.2-0.8l0.2-1.8l0.2-0.8l0.4-0.6l1.1-1l0.2-0.4l0.3-1.2
			l0.8-1.5l1.1-1.2l1.1-0.5l0.6-1l0.8-1.8l1-1l1.3,1.5l0.8-0.8l1.6-0.7l0.6-0.9l-1.2,0.2l-2.9-0.2l-1.2,0.2l-1.1,0.5l-1.1,0.5
			l-1.9,0l-1.9,0l-0.2,0l-0.2,0l-1.1-0.4l-0.6-0.4l0-0.2l0-0.2l1-0.5l-3.8-0.4l-1.5,0.1l-1.3,0.8l-0.4-1.1l-0.5-0.3l-0.5-0.3
			l-0.6-0.2l-0.6-0.2l-1.1-0.8l-0.8,1.5l-1.3,1.4l-1.7,1l-2,0.2l-0.8-0.4l-1.1-1.6l-0.5-0.4l-1.1-0.2l-0.9,0.1l-0.3,0.4v0l0.6,0.8
			l-0.5,0.6l-0.1,0.5l0,1.3l-0.8-0.8l-0.5,0.4l-0.1,1l0.3,1.2l-0.5-0.2l-1.3-0.4l0.2,0.3l0.2,0.6l0.2,0.3l-1.2,0.4l-2.2,1.7
			l-2.1,0.8l-0.4,0.9l-0.2,1.2l-0.4,1.1h-0.6l-0.7-0.9l-1.6-0.5l-1.9-0.1l-1.7,0.2l-1.6,0.7l-0.2,0.5l-0.2,0.5v0l0.8,2.5h-0.6
			l-0.3-0.7l-0.6-0.4l-0.4-0.1l-0.4-0.1l-0.5,0l-0.5,0v0l0.2,1.3l-1.8,0.7l-4.8,0.3l0.6,1l0.4,0.4l0.7,0.4l0,0l-0.8,0l-0.8,0
			l-1.7,0.5l-0.8,0.4l-0.8,0.4l-1,0.9l-0.5-0.6l-0.3-0.2l-0.3-0.1l-0.6-0.2l0.4,0.8l0.1,0.4l-1.1-0.3l-0.7-0.7l-0.7-0.7l-0.5-0.3
			l-0.5-0.3l-0.2,1l-0.2,1l0,0.8l0.4,0.7l-8.5,0.4l-0.7-0.1l-0.7-0.1l-0.2-0.7l-0.4-0.2l-1.5,0l-0.9-0.1l-0.3-0.3l-0.2-0.4l-2-1.2
			l-0.6,0l-0.9,0.8l1,2l0.6,0.8l0.8,0.7v0.6l-0.6,0.4l-0.2,0l-0.2,0l-0.4-0.2l-0.7-0.1l-0.8,0.2l-0.4,0.4l-0.3,0.4l-0.5,0.3
			l-2.1,0.6l-1.3,0.1l-1-0.4l-2-2.1l-0.3-0.3l-0.3-0.3l-0.8-0.4l-1.2-0.4l-1.1,0.1l-0.5,1v0l0.4,4l-0.4,1.9l-1.8,0.9l-1-0.1
			l-2.1-0.5l-1.3-0.1l-0.7-0.5l-0.6-2.2l-0.8-0.8l-1.1,1.6l-0.6,1.1l-0.6,1.1l-1.6,1.9l-3.2,1.1l-2.2,1.2l-1,0.3l-1.3-0.4l-0.9-0.8
			l-0.9-0.5l-1.3,0.4l0.1-0.8l0.1-0.8l0.3-0.6l-6.3-0.2l-1.9-0.4l-3.3-1.4l-1.7-0.2l-1.6,0.9l-1.3-3l-0.9-1.4l-1.8-1.2v0l0.1-1.1v0
			l-0.2-1l-1.7-0.2l0,0l0-0.2l0.7-0.8l0.3-0.2l-1.3-2l-1.9-1.4l-1.1-0.3l-1.1-0.3l-2.3,0.1l-2.6,0.5l-2.6,0.5l-0.7,0.4l-0.7,0.4
			l-4,3.7l-1.5,1.1l-0.7,0.5l-0.8,0.5l-1.2,1.1l-0.8,1.3l-0.5,3.2l-0.3,0.5l-0.5,0.2l-1.4,0.4v0l0.5,0.8l2.4,1.7v0l-1.9,1.7
			l-0.5,0.7l2.2,0v0l-0.1,0.2l-0.1,0.1l-0.5,1.2l-3.1,3l-1.8,0.8l-1.5-1.1l-1.4-1.5l-1.6-0.4l-0.7,1.2l-0.4,2.4l-0.2,4.4l-0.3,0.6
			l-2,2.1l-0.1,0.5l0.2,1.3l-0.1,0.5l-2.4,1.8l0,0l1.4,0.9l1.5,1.4l1.1,1.7l0.1,2l-1,1.4l-1.8,1l-2.2,0.7l-2.1,0.4h-3.3l-0.9,0.2
			l-2,1l-0.8,0.2l-0.5,0.5l-0.4,0.6l-0.6,0.7l-0.2,0.6l-0.1,0.1l-0.1,0.1l-0.2,0l-0.2,0l-0.9-0.1l-0.2,0l-0.2,0l-0.4,0.4l-0.4,0.4
			l-0.5,0.6l-0.5,0.6l-0.8,1.4l-0.6,2.2l-0.7,1.6l-1,1.7l-1,1.2l-1.1,0.9l-1.1,0.9l-1.5,0.8l-3.1,0.8l-0.5,1.1l-0.2,1.4l-0.8,1.2
			l-1.6,0.5l-1.4,0.2l-0.3,0.1l-0.5,0.1l-1.9,0.6l-0.8,1.2l-0.8,0.8l-1.5,0.4l-1.5,0.4l0,0l0.3,0.9l-0.3,0.1l-0.2,0l-0.1,0.1l0,0
			l0,0.4h-0.5l-0.7-0.2l-1.8,1.5l-1.1,0.5l-1.5-0.1l-0.9-0.2l-0.4,0.5l-0.1,1.9l-0.9,2.6l-0.4,1.7l0.3,0.7l1.3,0.4l0.5,1v0l-0.2,1.3
			l-0.7,1.4l-0.8,0.7l-0.2-0.1l-1.1-1.3l-1.8-0.1l-2,0.1l-1.9-0.6l-1.4-1.6l-0.8-1.8l-1-1.5l-1.9-0.8l-1.2,0.1l-0.8,0.3l-0.8,0.2
			l-1.2-0.4l-0.6-0.5l-1.9-2.4L349,200l-0.2-2.3l0.9-1.9l0-1v0l-6.6,1l-1.2,0.6l-1,0.9l-0.5,0.7l-0.3,0.8l-0.6,1.1l-1,1l-1,0.5
			l-1,0.4l-0.9,0.6l-3,4.5l-2.8,3l-2.8,3l-1.4,2.1l-0.7,2.6l-0.3,0.7l-0.2,0.7l-1,1.1l-1.3,0.6l-1.6,0.4l-4.5,0.3l-0.6-0.1l-0.8-0.3
			l-0.5-0.4l-1.4-1.4l-1.3,0.2l-1.2,0.6l-1.3,0.4l-1.5-0.4l-2.9-1.5l-3.4,0.2l-7,1.3l-3.8-0.5l-1.8,0.2l-2,1l-1,0.7l-0.4,0.3
			l-0.1,0.5l-0.2,1.2l-0.3,6.1l0.2,0.8l0.3,0.4l0.4,0.3l0.1,0.1l0.6,0.5l0.3,0.6l0.1,1.4v0l-0.1,0.5h279.1l-0.1-1.8L567.7,222.3z
			 M581.3,168.7l2.1,0.7l0.9,0.5l0.5,0.6h0.7l-0.4-0.6l-1.2-1.1l-0.2-0.4l0.2-1.1l0.6-0.1l0.7,0.5l1.4,1.6l0.8,1.2l0.4,1.2l-0.5,1.1
			v0.5l1,1.2l0.6,1.6l0.1,1.7l-0.6,1.4l-1.3,1l-0.8-0.6l-0.8-1.2l-1.2-1l-0.4,0.4l-0.4,0l-1-0.5l-0.4-1.1l-0.1-0.6l0-0.7l0.2-0.7
			l0.4-0.5l0.4-0.3l0.2-0.3l0-1.5l-0.4-1l-1.3-1.6V168.7z"/>
		<polygon fill="#003876" points="550.1,360.6 550.5,362.1 549.8,364 548.6,364.9 547.8,365.8 548.8,368 550.9,370.6 551.5,372.1
			551.2,373.9 551.8,373.6 552.4,373.3 551.7,371.4 551.1,360.4 551.2,360 549.7,360 		"/>
		<polygon fill="#003876" points="380.9,417.1 382.6,417.2 385.3,416.5 386.8,416.4 388.9,417.6 390.5,422.4 392.4,423.5
			393.3,423.6 394.1,424 394.8,424.1 395.1,423.9 396.2,423.1 396.6,422.9 397.8,422.6 398.7,421.7 399,420.4 398.4,419.1
			397.5,417.9 397.3,417.1 397,416.6 396,416.4 394.7,416.2 393.6,415.8 392.6,415.5 391.5,415.9 390.3,414.8 390,413.6
			390.1,412.1 389.8,410.5 389.3,409.6 388.4,408.9 387.3,408.4 386.8,408.2 386.2,407.5 385.1,408 381.5,408 379.7,408.8
			378.6,410.2 377.2,413.6 376.2,414.6 379.5,416.6 		"/>
		<path fill="#FFFFFF" d="M286.4,234.9l-0.3,1.4v0l0,1.5l2.8,10.3l-0.1,1.3l-1.1,2.4l-0.1,1.2l0.3,0.9l0.5,0.3l0.6,0.1l0.6,0.5
			l0.3,0.6l0.3,0.5l0.1,0.3l0.1,0.3l0.5,2.5v0l-0.2,1.3l-0.7,1.1l-1.2,1.1l-0.6,0.4l-0.6,0.4l-0.8,0.2l-0.8-0.2l-5-2.4l-1.5-0.1
			l-1.4,0.4l-1.1,0.8l-4.1,3.5l-0.7,0.8l-0.6,1.2l-0.6,2.4l-0.1,0.2v0l0.2,0.5l0.7,1.4l0.2,0.2l-0.7,4.5l0.2,0.5l0.2,0.1l0.2,0.1
			l0.3,0.3l-0.2,0.8l-0.2,0.2l-0.2,0.2l-0.6,0.3l-0.6,0.3l-0.5,0.4l-2,3.1l-1,1l-2.2,1.4l-1.8,0.9l-0.5,1.4l-1-0.1l-2-1.2l-1.3-0.1
			l-19.7,1.2l-0.6,0.4l-4.2,2l-0.9,1.4l1,0.8l2.3,0.2l4.5-0.1v0.6l-8.9,0.5l-3.7-0.8l-2.8-2.8l-0.1-0.5l0.2-1.3l-0.1-0.6l-0.3-0.2
			l-1.1-0.7l-0.4-0.3l-1.6-2.1L221,284l-2.2-1.8l-0.4-0.3l-0.4-0.4l-1-0.3l-1.2-0.2l-1,0l0.3-0.5l0.2-1.9h-0.5l-0.4,3.3l-1.8,1.9
			l-2.5,1.5l-2.4,2.1l-1.6,3l0,2.5l1.3,2.1l2.1,1.8l10.1,5.9l1.9,1.8l1.3,1l0.9,0.1l0-1l-1.2-1.1l-2.3-1.5v-0.5l1.7,0.4l2,1l1.4,1.2
			l0.2,0.9v0.5l0.8,0.5l0.4,0.1v0.5l-1-0.5l-0.4-0.2l-0.4-0.4l1.1,2.3l9.5,10.8l0.3-0.4l0.7-0.8l0.2-0.5l0.5,1.5l0.4,0.9l0.7,0.7
			l5.4,4.1l1.1,0.4l1.7,1.6l2.3,2.8l1.4,1.2l-0.9-3.2h0.5l1.9,3.6l0.7,0.6l1.2,0.3l1.1,0.9l0.2,0.2l2,2.1l-1.9-0.4l-2-0.8l-1.7-1.1
			l-1-1.3l0.2,2l6,2.6l2.6,2.8l4.9,2.7l1.1,1.3l17.7,10.6l2.1,1.8l0.9,1.3l1.3,3.5h261.3l-0.4-0.6l-1.5-1.5h-0.6l-1.1,1.2l-1.4-0.8
			l-0.1-1.3l2.6-0.3l1.6,0.8l1.5,1.4l0.7,1.1h1.5l1.8-9.8l4-7.9l-0.4-0.7l-1.7-0.2l-0.8,0.5l-0.5,1.1l-1.4,4.4l-0.4,0.8l-0.2-0.5
			l0.1-1l0.4-1.7l0.1-0.9l-0.5-1.3l-2.7,0.6l-1.6-0.8l-0.6-1.6l0.3-1.7l0.6-1.7l0.3-1.8l-0.6-3.9l-0.7-0.8l-0.6-0.2l-0.7,0l-1-0.2
			l-0.7,0l-0.3,0.2l-0.1-0.1l0-4.5l0.6-1.1l1.6-0.5l3.7-0.4l2.8-1.1l4.6-3.8l2.7-1.5l-0.9-1.4l-0.3-0.4l0.4-0.7l0.2-0.6l0-1.5
			l-0.1-0.9l-0.3-0.3l-0.4-0.2l-0.4-0.6l-0.1-0.6l-0.2-1.5l0-0.3l-0.2-0.2l-1.9-1l-0.7-1.5l-0.1-1.8l0.8-1.6l1.8-1l2.2-0.2l2.3,0.5
			l1.7,1.4l0.3,2.3l-0.3,0.6l-0.4,0.4l-0.4,0.3l-0.2,0.2l-0.1,4.8l-0.3,1.2l-0.7,0.8v0.6l1.1,2.6l-0.7,3.9l-2.1,2.7l-3.1-1h-0.5
			l-0.2,0.3l-0.1,0.1l-0.1,0l-0.3,0.2l0.4,2.2l-0.2,5.6l1.9,1.7l0.6,1.2l0.3,1.4l-0.1,1l-0.5,0.6l-1.8,1.2l-0.7,0.6l1.7,0.9l2-0.3
			l2.2-0.8l2.1-0.4l2.8-0.1l1.8-0.6l0.9-1.4l0.2-2.6l-0.6-2.2l-2.4-3.3l-0.8-2.7l-1.3-2.5l-0.3-0.8v-5l2.9-22.8l-1.9-11.2l-2.9-17.1
			l-0.5-1.1l0.6-0.5l-0.6-1.2l-0.2-2.1l0.9-11.1l1.5-5.7l1.8-4.3l0-1.7l0.4-2.1l-0.1-2.4H286.5L286.4,234.9z M368.5,311
			c0-0.7,0.6-1.3,1.3-1.3c0.7,0,1.3,0.6,1.3,1.3c0,0.7-0.6,1.3-1.3,1.3C369.1,312.2,368.5,311.7,368.5,311z M373,327.8l1-1.2
			c0,0-0.4-0.6-0.8-1.2c-0.3-0.5-0.6-1-0.6-1l-1.5,0.4l-0.7-1.2l7.5-1.9l0.9,1.4l-5,5.9L373,327.8z M379.3,335.6l4.2-3.8l-5.1,2.8
			l-0.9-1l3.3-4.8l-4.2,3.8l-0.9-1l5.5-5l1.4,1.6l-3.3,4.7l5-2.9l1.4,1.6l-5.5,5L379.3,335.6z M380.6,319.2L420,252l39.4,67.1H380.6
			z M388.8,339.9l-2.6-2l-1.2,1.5l2.9,2.2l-0.7,0.9l-4.1-3.2l4.5-5.8l4.1,3.2l-0.8,1l-2.9-2.2l-1,1.3l2.6,2L388.8,339.9z
			 M395.5,343.6c0.4,0.2,0.6,1,0.2,1.8c-0.2,0.4-1,1.8-1,1.8l-1.2-0.7c0,0,0.4-0.7,0.8-1.5c0.4-0.8,0.2-1.2-0.5-1.5
			c-0.2-0.1-0.5-0.3-0.7-0.4c-0.3-0.2-0.6-0.3-0.6-0.3l-1.4,2.5l-1.3-0.7c0,0,3.6-6.5,3.6-6.4c0,0,2.6,1.5,3.5,2
			c0.9,0.5,0.9,1.7,0.4,2.6C396.9,343.6,395.8,343.8,395.5,343.6z M398.9,349.1l-1.4-0.6l2.8-6.8l1.4,0.6L398.9,349.1z M408.9,347.2
			l-1.2-0.3c0.1-0.4,0-1.3-1.1-1.6c-1.1-0.3-1.9,0.5-2.3,1.9c-0.4,1.4,0,2.5,1,2.8c0.9,0.3,1.7-0.3,1.8-0.9l1.2,0.3
			c-0.4,1.5-1.8,2.2-3.5,1.7c-1.6-0.5-2.4-2.2-1.8-4.3c0.6-2.2,2.1-3.3,3.9-2.8C408.6,344.5,409.2,346.1,408.9,347.2z M415.5,353.1
			l-0.3-1.5c0,0-0.8-0.1-1.5-0.1c-0.6-0.1-1.2-0.1-1.2-0.1l-0.6,1.5l-1.4-0.1l3.1-7.1l1.6,0.2l1.6,7.6L415.5,353.1z M428.5,352.6
			c-1.7,0.3-3.1-1-3.4-3.2c-0.3-2.2,0.6-3.8,2.4-4.1c1.8-0.3,3,0.9,3.1,2.1l-1.3,0.2c-0.1-0.4-0.5-1.2-1.7-1
			c-1.1,0.2-1.5,1.2-1.3,2.6c0.2,1.4,1.1,2.3,2,2.1c1-0.2,1.4-1,1.3-1.6l1.3-0.2C431.2,351.1,430.2,352.4,428.5,352.6z M434.3,351.5
			l-2.3-7l4.9-1.6l0.4,1.2l-3.5,1.1l0.5,1.6l3.1-1l0.4,1.3l-3.1,1l0.6,1.9l3.5-1.1l0.4,1.1L434.3,351.5z M446.2,346.8l-4.7-2.9
			l2.1,4.2l-1.3,0.7l-3.3-6.6l1.5-0.7l4.4,2.8l-2-4l1.3-0.7l3.3,6.6L446.2,346.8z M452.2,343.2l-3.6-5l-1.7,1.3l-0.7-1l4.6-3.3
			l0.7,1l-1.7,1.3l3.6,5L452.2,343.2z M460.4,336.2c0,0-0.6-0.6-1.2-1.2c-0.6-0.6-1.1-0.5-1.6,0c-0.2,0.2-0.4,0.4-0.5,0.5
			c-0.3,0.3-0.5,0.5-0.5,0.5l2,2l-1,1c0,0-5.2-5.2-5.2-5.2c0,0,2.1-2.1,2.8-2.9c0.7-0.7,1.9-0.4,2.6,0.3c0.8,0.8,0.7,1.8,0.4,2.1
			c0.4-0.4,1.1-0.4,1.8,0.3c0.3,0.3,1.5,1.5,1.5,1.5L460.4,336.2z M466.5,328.8l-1.5-0.5c0,0-0.4,0.6-0.9,1.2c-0.4,0.5-0.7,1-0.7,1
			l0.9,1.3l-0.8,1.1l-4.6-6.2l1-1.3l7.4,2.4L466.5,328.8z M468.9,325l-6.6-3.3l0.7-1.3l5.4,2.7l1.5-2.9l1.2,0.6L468.9,325z
			 M470.2,312.2c-0.7,0-1.3-0.6-1.3-1.3c0-0.7,0.6-1.3,1.3-1.3c0.7,0,1.3,0.6,1.3,1.3C471.5,311.7,470.9,312.2,470.2,312.2z
			 M476.2,297.8l-7.4,2.3l0-1.4l1.5-0.5c0,0,0-0.8,0-1.5c0-0.6,0-1.2,0-1.2l-1.5-0.5l0-1.4l7.4,2.4L476.2,297.8z M475.1,286.3
			c0,0-4.2,0.7-4.8,0.8c-0.6,0.1-1.2,0.5-1.1,1.5c0.2,1,0.9,1.2,1.5,1.1c0.6-0.1,4.8-0.8,4.8-0.8l0.2,1.4c0,0-3.8,0.6-4.8,0.8
			c-1.2,0.2-2.6-0.2-2.9-2.3c-0.3-2,0.9-2.9,2.1-3.1c1-0.2,4.8-0.8,4.8-0.8L475.1,286.3z M473,278.6c0.5,1.4,0,2.9-1.3,3.4l-0.4-1.1
			c0.6-0.5,0.8-1.2,0.6-1.9c-0.4-1-1.5-1.4-2.9-0.9c-1.4,0.5-2.1,1.5-1.8,2.6c0.3,0.9,1.1,1.3,2,1l-0.5-1.4l1.1-0.4l0.9,2.5
			l-3.6,1.2l-0.3-0.8c0.2-0.1,0.6-0.2,0.7-0.4c-0.7-0.2-1.3-0.7-1.6-1.5c-0.6-1.6,0.4-3.5,2.5-4.2C470.6,276,472.4,276.7,473,278.6z
			 M469.4,270.4L464,276l-0.7-1.2l1.1-1.1c0,0-0.4-0.7-0.7-1.3c-0.3-0.5-0.6-1-0.6-1l-1.5,0.3l-0.7-1.2l7.6-1.5L469.4,270.4z
			 M464.4,262.9c0.6,0.8,0.2,1.9-0.6,2.6c-0.8,0.7-1.9,0.5-2.1,0.2c0.3,0.4,0.2,1.2-0.5,1.7c-0.4,0.3-1.6,1.3-1.6,1.3l-0.9-1.1
			c0,0,0.6-0.5,1.4-1.1c0.7-0.6,0.6-1,0.2-1.6c-0.2-0.2-0.3-0.4-0.5-0.6c-0.2-0.3-0.4-0.5-0.4-0.5l-2.2,1.8l-0.9-1.2
			c0,0,5.8-4.6,5.8-4.6C461.9,259.7,463.8,262.1,464.4,262.9z M457.8,255.7l-3.2,7.1l-1-0.9l0.7-1.4c0,0-0.6-0.5-1.1-1
			c-0.5-0.4-0.9-0.8-0.9-0.8l-1.4,0.8l-1-0.9l6.7-3.9L457.8,255.7z M445.3,251.2c1.2-1.9,3-2.5,4.5-1.5c1.5,1,1.6,2.7,1,3.6
			l-1.1-0.7c0.2-0.4,0.4-1.3-0.6-1.9c-1-0.6-1.9-0.1-2.7,1.1c-0.8,1.2-0.7,2.4,0.1,3s1.7,0.1,2-0.3l1.1,0.7
			c-0.8,1.3-2.4,1.6-3.8,0.7C444.3,254.9,444.1,253,445.3,251.2z M442.7,245.9l1.3,0.6l-3.1,6.7l-1.3-0.6L442.7,245.9z M434,242.8
			l1.6,0.5l1.1,5l1.4-4.2l1.4,0.4l-2.3,7l-1.3-0.4l-1.3-5.3l-1.4,4.5l-1.4-0.4L434,242.8z M419.8,241.1l5.1,0.2l-0.1,1.2l-3.6-0.2
			l-0.1,1.6l3.3,0.2l-0.1,1.4l-3.3-0.2l-0.1,1.9l3.6,0.2l-0.1,1.2l-5.1-0.2L419.8,241.1z M412.9,241.7c0.9-0.1,2.9-0.1,3.3,3.1
			c0.2,2-0.5,4-2.2,4.2c-1.7,0.2-3,0.3-3,0.3s-0.2-1.9-0.4-3.8c-0.2-1.8-0.4-3.6-0.4-3.6C410.9,241.9,412,241.8,412.9,241.7z
			 M399.2,245.3l5,5.9l-1.3,0.5l-1-1.2c0,0-0.7,0.3-1.3,0.6c-0.6,0.2-1.1,0.5-1.1,0.5l0.1,1.6l-1.3,0.5l-0.6-7.7L399.2,245.3z
			 M390.3,249.9c1.5-1,3.1-0.3,3.7,0.7l-1.1,0.7c-0.2-0.4-1-0.9-1.9-0.3c-1,0.6-0.9,1.7-0.1,2.9c0.8,1.2,1.9,1.7,2.7,1.2
			c0.8-0.5,0.9-1.5,0.6-1.9l1.1-0.7c0.8,1.3,0.4,2.8-1.1,3.7c-1.4,0.9-3.2,0.3-4.4-1.6C388.5,252.7,388.7,250.8,390.3,249.9z
			 M384.9,253.7l4.7,5.7l-1.1,0.9l-4.7-5.7L384.9,253.7z M379.3,258.9l4.3,4.2l2.3-2.3l1,0.9l-3.3,3.4l-5.3-5.2L379.3,258.9z
			 M374.3,265c0.8-1.1,2-1.8,3.1-1.1c0.5,0.3,0.8,0.9,0.8,1.5c0.6-0.1,1.2-0.2,1.9,0.4c0.7,0.5,1.5,1.7,0.4,3.1
			c-0.7,1-1.9,2.6-1.9,2.6c0,0-0.8-0.6-1.9-1.4c-0.8-0.6-1.7-1.2-2.4-1.8c-0.9-0.7-1.6-1.2-1.6-1.2S373.1,266.7,374.3,265z
			 M369.2,274c0,0,3.8,1.9,4.4,2.2c0.6,0.3,1.3,0.3,1.7-0.6c0.5-0.9,0-1.4-0.6-1.7c-0.6-0.3-4.4-2.2-4.4-2.2l0.6-1.3
			c0,0,3.5,1.7,4.4,2.2c1.1,0.5,2,1.7,1.1,3.5c-0.9,1.9-2.4,1.8-3.5,1.3c-0.9-0.4-4.4-2.2-4.4-2.2L369.2,274z M366.7,280.4
			c0.4-1.2,1.6-1.7,2.8-1.3c1.1,0.4,2.1,1.5,1.7,2.7c-0.2,0.8-0.5,1.7-0.5,1.7l2.5,0.8l-0.4,1.3l-4.8-1.5l-2.2-0.7
			C365.8,283.4,366.2,282.1,366.7,280.4z M365.1,286.8l1.2,0.2l-0.5,3.6l1.6,0.2l0.5-3.2l1.3,0.2l-0.5,3.2l1.9,0.3l0.5-3.6l1.2,0.2
			l-0.8,5.1l-7.3-1.1L365.1,286.8z M366.3,295.2c1.1,0,1.8,0.8,1.8,1.2c0-0.5,0.5-1,1.5-1.1c0.5,0,2.1,0,2.1,0l0,1.4
			c0,0-0.8,0-1.7,0c-0.9,0-1.1,0.4-1.1,1.2c0,0.3,0,0.5,0,0.8c0,0.4,0,0.7,0,0.7l2.9,0l0,1.5c0,0-7.4,0-7.4,0c0,0,0-3,0-4
			C364.2,295.8,365.2,295.2,366.3,295.2z M300,337.2l0.1-0.6l0.4-0.6l0.6-0.3l0.6,0.1l0.4,0.4l0.2,0.7l0.7,0.8l1.6,0.6l1.9,0.3
			l1.7-0.2l2-1.3l1.3-2l1.5-1.8l2.6-0.8l1.3-0.2l2-0.8l1.5-0.2l1.6-0.5l1.1-1l1-0.7l1.4,0.4l0.5-0.4l0.6-0.1l0.6,0.1l0.6,0.4
			l0.6,4.6l-0.3,0.7l0.3,0.6l2.5,2.4l0.8,0.6l0.9,1.3l1.6,6.4l0.2,2.3l1.9-1.8l2.3-2.5l2.4-1.6l2.3,1.2l0.6,1.7l-0.1,1.9l-0.9,6.4
			l-0.6,1.7l-0.8,1.2l-2.7,1l-13.1,0.4l-1.3-0.3l-0.3,0l-0.2,0l-0.3-0.4l-0.1-0.5l0-0.6l0.2-0.5l0.2-0.2l1.2-0.4l0.9-1.1l0.5-1.5
			l0-1.8l-1.3-2.9l-2.5-1l-2.8,0.5l-2.4,1.6l-1,1.2l-0.8,0.8l-1,0l-2.8-1.9l-7.7-3.1l-2.5-1.4l-1.6-2.1l-0.3-3.5L300,337.2z"/>
		<path fill="#FFFFFF" d="M369.6,283.1c0,0,0.2-0.7,0.4-1.3c0.2-0.7-0.2-1.3-0.9-1.5c-0.7-0.2-1.2,0.2-1.4,0.8
			c-0.2,0.6-0.4,1.3-0.4,1.3c0,0,0.5,0.1,1,0.3C369,282.9,369.6,283.1,369.6,283.1z"/>
		<path fill="#FFFFFF" d="M367.4,299.3c0,0,0-0.2,0-0.5c0-0.5,0-1.2,0-1.4c0-0.5-0.4-0.8-1-0.8c-0.6,0-1,0.4-1,1c0,0.5,0,1.9,0,1.9
			L367.4,299.3z"/>
		<path fill="#FFFFFF" d="M395.8,340.8c-0.5-0.3-1.6-0.9-1.6-0.9l-1,1.7c0,0,0.2,0.1,0.5,0.3c0.4,0.2,1,0.6,1.3,0.7
			c0.4,0.2,0.9,0.1,1.2-0.5C396.5,341.6,396.3,341.1,395.8,340.8z"/>
		<path fill="#FFFFFF" d="M455.5,332.4c-0.4,0.4-1.3,1.3-1.3,1.3l1.4,1.4c0,0,0.2-0.2,0.4-0.4c0.3-0.3,0.8-0.8,1-1
			c0.3-0.3,0.3-0.9-0.1-1.3C456.4,332,455.9,332,455.5,332.4z"/>
		<path fill="#FFFFFF" d="M413.1,350.1c0,0,0.4,0,0.9,0.1c0.5,0.1,1,0.1,1,0.1l-0.6-3.1L413.1,350.1z"/>
		<path fill="#FFFFFF" d="M374.4,324.7c0.3,0.4,0.5,0.9,0.5,0.9l2.1-2.4l-3,0.8C373.9,324,374.2,324.4,374.4,324.7z"/>
		<path fill="#FFFFFF" d="M412.3,247.9c0,0,0.7-0.1,1.2-0.1c0.5-0.1,1.7-0.4,1.5-2.7c-0.2-2.1-1.5-2.2-2-2.1c-0.2,0-1.2,0.1-1.2,0.1
			s0.1,1.1,0.3,2.3C412.1,246.6,412.3,247.8,412.3,247.9z"/>
		<path fill="#FFFFFF" d="M400.2,249.9c0.5-0.2,0.9-0.4,0.9-0.4l-2-2.4l0.3,3.1C399.4,250.2,399.8,250.1,400.2,249.9z"/>
		<polygon fill="#FFFFFF" points="606.3,356.4 605.5,357.9 605.6,359.8 608.1,357.1 608.5,356.6 607.5,355.8 		"/>
		<path fill="#FFFFFF" d="M375.9,267.8c0,0,0.7-0.9,1.1-1.5c0.4-0.5,0-1-0.2-1.1c-0.3-0.2-0.8-0.3-1.2,0.2c-0.3,0.4-1.1,1.5-1.1,1.5
			c0,0,0.3,0.2,0.6,0.5C375.5,267.6,375.9,267.8,375.9,267.8z"/>
		<path fill="#FFFFFF" d="M377.6,269.1c0.4,0.3,0.8,0.6,0.8,0.6s0.8-1.2,1.1-1.6c0.3-0.4,0.2-0.9-0.3-1.2c-0.5-0.4-1-0.3-1.2,0.1
			c-0.3,0.4-1.1,1.6-1.1,1.6C376.9,268.6,377.3,268.8,377.6,269.1z"/>
		<path fill="#FFFFFF" d="M454.8,259.2l1.3-2.9l-2.7,1.6c0,0,0.3,0.3,0.6,0.6C454.4,258.9,454.8,259.2,454.8,259.2z"/>
		<path fill="#FFFFFF" d="M463.2,328.7c0.3-0.4,0.6-0.8,0.6-0.8l-3-1l1.9,2.5C462.7,329.4,462.9,329,463.2,328.7z"/>
		<path fill="#FFFFFF" d="M465.3,272.7l2.2-2.3l-3.1,0.6c0,0,0.2,0.4,0.4,0.7C465.1,272.3,465.3,272.7,465.3,272.7z"/>
		<path fill="#FFFFFF" d="M471.5,296.9c0,0.5,0,1,0,1l3-0.9l-3-0.9C471.5,296,471.5,296.4,471.5,296.9z"/>
		<path fill="#FFFFFF" d="M461.6,264.4c0.3,0.4,0.8,0.4,1.3,0c0.5-0.4,0.5-0.9,0.1-1.4c-0.3-0.4-1.2-1.5-1.2-1.5l-1.5,1.2
			c0,0,0.1,0.2,0.3,0.4C461,263.7,461.4,264.2,461.6,264.4z"/>
		<path fill="#003876" d="M420,252l-39.4,67.1h78.8L420,252z M420,253.6l38.1,64.7h-76.2L420,253.6z"/>
		<path fill="#FFCE46" d="M420,253.6l-38.1,64.7h76.2L420,253.6z M420,255.2l36.8,62.3h-73.7L420,255.2z"/>
		<path fill="#003876" d="M420,255.2l-36.8,62.3h73.7L420,255.2z M436.2,316.8h-6.6h-7.7h-0.8h-9.8h-26.9l3.1-5.2l0.1-0.2
			c0,0,0,0,0,0l0.7-1.2c0,0,0,0,0,0l2-3.4l1.1-1.8l0.1-0.3c0,0,0,0,0,0l0.4-0.7l0.1-0.1h0l0.4-0.7l0.3-0.5c0,0,0,0,0,0l0.7-1.1
			l0.1-0.1c0,0,0,0,0,0l0.9-1.5c0,0,0,0,0,0l0.4-0.7l0.1-0.2l0.8-1.3c0,0,0,0,0,0l0.5-0.8l0.1-0.2l0.8-1.3l0.2-0.4l0.6-1.1l0.4-0.6
			l-0.1,0l1.9-3.5l0.2,0l2.1-3.6l0,0l1-1.6l1.3-2.1l0,0l1.2-2l0,0l0.1-0.2l0.5-0.8l0.1-0.1l1-1.8l0,0l0.6-0.9l0.3-0.5l0.1-0.2l0,0
			l1.5-2.6l0,0l1-1.6l0,0l0.9-1.5l0,0l1.1-1.8l0,0l1.2-1.9l0,0l1.3-2.3l0,0l1.6-2.6l0,0l2-3.3l0,0l0.8-1.4l1.9,3.2l0,0l4.8,8.1l0,0
			l0.3,0.5l1.7,2.9l0,0l0.8,1.3l0,0l1.5,2.5l0,0l0,0l0.4,0.7l1.1,1.8l0,0l2.9,4.9l0,0l0.5,0.9l2.8,4.7l0.7,1.1h0l2.2,3.7l0,0
			l1.8,3.1l3.4,5.7c0,0,0,0,0,0l0.2,0.3l1,1.7c0,0,0,0,0,0l0.1,0.2l4.5,7.6l0,0l0,0l1.9,3.1h0l0.2,0.4c0,0,0,0,0,0l0.4,0.7
			c0,0,0,0,0,0l0.1,0.1l0.4,0.6h-11.3H436.2z"/>
		<path fill="#FFFFFF" d="M396.3,304.3c-1.3-0.3-3.3-0.3-4.5-0.1l0.2-0.3l-0.4,0.7c1,0,2.9,0.2,3.8,0.3
			C395.7,304.8,396,304.6,396.3,304.3z"/>
		<path fill="#FFFFFF" d="M418.3,302.8c0.5,0,1.8,0,2.4,0c0.2-0.2,0.3-0.5,0.4-0.7c-1.1,0-2.3,0.1-3.2,0.1
			C418,302.3,418.1,302.5,418.3,302.8z"/>
		<path fill="#FFFFFF" d="M396.9,303.9c0.3-0.3,0.6-0.6,0.9-0.9c-1.4-0.2-4,0-5.4,0.4l0.1-0.2l-0.4,0.7
			C393.2,303.7,395.8,303.6,396.9,303.9z"/>
		<path fill="#FFFFFF" d="M398.2,302.6c0.2-0.2,0.3-0.4,0.5-0.6c-2.4,0-4.7,0-5.5,0l0.3-0.5l-0.7,1.1
			C394,302.5,396.6,302.2,398.2,302.6z"/>
		<path fill="#FFFFFF" d="M407.3,302.9c0.6,0,2.1,0,2.4,0c0.4,0,0.8,0.4,0,0.4c-0.7,0-1.6,0-2,0c0.2,0.2,0.4,0.5,0.5,0.7
			c0.4,0,0.9-0.1,1.1,0c0.2,0,0.4,0.2,0,0.3c-0.3,0-0.6,0.1-0.9,0.1c0.3,0.4,0.6,0.7,0.9,1.1c0.5-0.9,1.1-2.2,1.8-3.4
			c-1.5,0-3.1,0-4.4,0C406.9,302.4,407.1,302.6,407.3,302.9z"/>
		<path fill="#FFFFFF" d="M394.4,305.5c-1-0.1-2.4-0.3-3.1-0.3l0.1-0.2l-1.1,1.8l0.2-0.3C391.7,306.3,393,306.1,394.4,305.5z"/>
		<path fill="#FFFFFF" d="M426,273.6c0.4,0.1,0.8,0.2,1.2,0.3l1.5-2.4l-1.7-2.9l0.8,1.3L426,273.6z"/>
		<path fill="#FFFFFF" d="M413.6,298.3c0.3,0,0.7-0.1,1.1-0.1c0,0,0,0,0,0C414.4,298.2,413.9,298.2,413.6,298.3z"/>
		<path fill="#FFFFFF" d="M394.5,300.9l-1,0.5l0.9-1.5c0,0,0,0,0,0l-0.9,1.5c0.3,0,0.6,0,1,0C394.6,301.2,394.6,301.1,394.5,300.9z"
			/>
		<path fill="#FFFFFF" d="M429.6,274.7l0.6-0.8l0.8,1.3l-0.1,0.1c0,0,0.1,0,0.1,0.1l-1.5-2.5l-1.1,1.5
			C428.8,274.5,429.2,274.6,429.6,274.7z"/>
		<polygon fill="#FFFFFF" points="431.4,276 431.5,276.1 431,275.4 431.4,276 		"/>
		<path fill="#FFFFFF" d="M455.2,316.1l0.2,0.3c-2.4,0.4-4,0.2-5.2,0c-1.3-0.2-3.9-0.5-5.8,0.3h11.3L455.2,316.1z"/>
		<path fill="#FFFFFF" d="M409.3,315.2c-0.5,0-1,0-1.5,0C408.3,315.2,408.8,315.2,409.3,315.2z"/>
		<polygon fill="#FFFFFF" points="395.8,297.6 395.8,297.6 395,298.9 395.3,298.4 		"/>
		<path fill="#FFFFFF" d="M397.6,297l16.9-6.3c0.1,0.2,0.1,0.3,0.2,0.5l-12.1,5.8c0.3,0,0.6,0,0.8-0.1c0.3,0.5,0.7,1.2,1.1,1.8
			l10.5-6.9c0.1,0.1,0.1,0.2,0.2,0.3l-9.8,8l-0.1-0.1c0.3,0.5,0.6,1,0.9,1.4c0,0,0,0,0,0l9.4-8.6c0.1,0.1,0.2,0.2,0.3,0.4l-7.5,8.3
			c1.2,0,2.1,0,2.8,0c0.7-1.3,1.3-2.6,1.6-3.2c0.1,0,0.2,0,0.4,0l3.2-4.5c0.2,0.1,0.3,0.3,0.5,0.4l-1.9,3.9c0.2,0,0.4,0,0.6,0
			c0.1,0.3,0.3,0.5,0.4,0.8l1.7-4.2c0.2,0.1,0.4,0.2,0.6,0.2l-1.4,5.7c0.2,0.3,0.3,0.6,0.5,0.9c0.5,0,1,0,1.5,0c0,0-0.1,0-0.1,0
			l0.6-6.3c0.2,0,0.4,0,0.5,0c0,0,0,0,0,0v6.3c0.5,0,0.9,0,1.4,0c0,0,0-0.1,0-0.1c0,0,0,0,0,0l-0.7-6.2c0.2,0,0.4-0.1,0.6-0.1l1.2,4
			c0-0.1,0-0.1,0.1-0.2c0.1,0,0.3,0,0.4,0c0.3,0,0.6,0,0.7,0c0,0,0,0,0,0c0,0,0,0,0,0l-1.9-3.9c0.2-0.1,0.4-0.2,0.6-0.3l2.8,4.1
			c0.2,0,0.5,0,0.7,0c0.4,0.6,1.1,1.7,1.9,2.7c0.7,0,1.5,0,2.5,0c0,0,0,0,0,0c-0.6,0-1.4,0-1.8,0l-5.2-7.3c0.1-0.1,0.2-0.2,0.3-0.3
			l7,6.8c0.1-0.3,0.2-0.6,0.3-0.8l-6.9-6.5c0.2-0.2,0.4-0.4,0.5-0.6l8.8,6.9c0.1,0,0.1,0,0.2,0c0,0.1,0.1,0.1,0.1,0.2l2,1.6
			c0.6,0,1.2,0,1.6,0c0.1-0.2,0.1-0.3,0.2-0.5l-12.5-8.8c0.1-0.2,0.3-0.5,0.4-0.7l17.1,9.2c0.1-0.7,0.1-1.4,0.1-2.1c0-0.3,0-0.7,0-1
			l-17-6.6c0.1-0.3,0.2-0.6,0.3-1l15.9,3.4l-2.2-3.7l-13.6-0.3c0.1-0.3,0.1-0.6,0.1-1l11.7-1.7l1.1,1.8l-2.8-4.7l0.8,1.3l-10.8,2.2
			c0-0.3,0-0.6-0.1-0.9l9.5-3.5l-2.9-4.9l0,0l0.3,0.5l0.5,0.9l0.6,1l0.7,1.1c-0.2-0.2-0.4-0.3-0.6-0.5l-8.2,4.5
			c-0.1-0.3-0.1-0.5-0.2-0.8l6.9-4.8c-0.4-0.3-0.9-0.6-1.3-0.8l-5.9,4.8c-0.1-0.3-0.2-0.5-0.4-0.7l4.5-4.9c-0.3-0.1-0.5-0.2-0.8-0.3
			l-4.1,4.6c-0.1-0.2-0.3-0.4-0.4-0.5l3.5-4.5c-0.4-0.1-0.7-0.2-1.1-0.3l-3,4.2c-0.2-0.1-0.3-0.3-0.5-0.4l2.5-4.1
			c-0.3-0.1-0.6-0.1-0.9-0.2l-1.9,4.1c-0.2-0.1-0.3-0.2-0.5-0.3l1.5-4c-0.4-0.1-0.8-0.1-1.2-0.2l-1,3.8c-0.2,0-0.3-0.1-0.5-0.1
			l0.7-3.8c-0.3,0-0.6,0-0.9,0l-0.3,3.7c-0.1,0-0.2,0-0.4,0c0,0-0.1,0-0.1,0l-0.1-3.7c-0.3,0-0.6,0-0.9,0l0.4,3.8
			c-0.2,0-0.3,0.1-0.5,0.1l-0.8-3.8c-0.3,0-0.7,0.1-1,0.1l1.1,3.9c-0.1,0-0.2,0.1-0.4,0.2l-1.5-4c-0.3,0.1-0.7,0.1-1,0.2l2,4
			c-0.1,0.1-0.2,0.1-0.3,0.2l-2.6-4c-0.4,0.1-0.9,0.2-1.3,0.4l3.2,4.2c-0.1,0.1-0.2,0.2-0.4,0.4l-4.9-3.9c-0.6,0.2-1.1,0.5-1.7,0.8
			l5.8,4.1c-0.1,0.2-0.2,0.4-0.3,0.5l-7.5-3.5c-0.3,0.2-0.7,0.5-1,0.7l7.8,4.6c-0.1,0.2-0.1,0.5-0.1,0.7l-9.3-3.6l-1.3,2.1l0.5-0.8
			l10,3.9c0,0.3,0,0.5,0,0.8l-11.4-2.3l-2.1,3.6l13.8-0.1c0,0.2,0.1,0.4,0.1,0.5l-16,3.1l-0.4,0.6l0,0
			C397.9,294.8,397.7,295.9,397.6,297z M417.2,289.4c0-1.4,0.1-2.6,0.6-3.1c0.5-0.5,1.1-0.6,1.6-0.6c0.4,0,0.6-0.4,0.1-0.6
			c-0.5-0.2-0.9-0.3-1.5-0.2c0-0.9,0.3-1.7,1.3-1.7c0.5,0,0.9,0,1.7,0c0.8,0,1.8,1.2,1.8,2.5c0,1.6,0,3.2,0,3.7
			c0,0.5-0.3,0.6-0.7,0.6c-0.5,0-0.8,0-1.1,0c-0.3,0-0.5,0-0.5,0.5c0,0.5-0.1,1-0.1,1.5c0,0.5-0.4,0.8-1.1,0.4
			c-0.7-0.3-1-0.9-1.5-2.6c-0.2,0-0.3,0-0.5,0C417.1,289.8,417.2,289.7,417.2,289.4z"/>
		<path fill="#FFFFFF" d="M405.3,314.7c-1-0.2-3.2-0.6-4.9,0.1c-0.4,0.2-0.8,0.4-0.5,0.5c0.4,0,0.8,0,1.1,0c0.9,0,2.9,0,4.9-0.1
			C406.2,315.2,406.4,315,405.3,314.7z"/>
		<path fill="#FFFFFF" d="M406.3,301.5C406.3,301.5,406.3,301.5,406.3,301.5c0.5,0,0.9,0,1.4,0C407.3,301.5,406.8,301.5,406.3,301.5
			z"/>
		<path fill="#FFFFFF" d="M407.5,315.2c-0.5,0-1,0-1.5,0C406.5,315.3,407,315.3,407.5,315.2z"/>
		<path fill="#FFFFFF" d="M398.3,315.1c-0.5-0.1-1-0.2-1.5-0.3C397.3,314.9,397.8,315,398.3,315.1z"/>
		<path fill="#FFFFFF" d="M399.9,315.3c-0.5,0-1-0.1-1.4-0.2C398.9,315.2,399.4,315.3,399.9,315.3z"/>
		<path fill="#FFFFFF" d="M444.1,300.7c0-0.3,0.1-0.5,0.1-0.8C444.2,300.2,444.1,300.4,444.1,300.7z"/>
		<polygon fill="#FFFFFF" points="408.1,276.8 408.3,276.6 407.7,277.5 407.7,277.5 		"/>
		<path fill="#FFFFFF" d="M414.1,315.2c-1.1,0.3-1.8,0.3-1.1,0.7c0.7,0.4,2,0.7,3.4,0.6c1.3-0.1,3.1-0.7,4.7,0.3h0.8
			C420,315.4,417.4,314.3,414.1,315.2z"/>
		<path fill="#FFFFFF" d="M444.7,298.5c0,0.9-0.1,1.7-0.1,2.5c0,0,0,0,0,0C444.6,300.2,444.7,299.3,444.7,298.5z"/>
		<path fill="#FFFFFF" d="M444.2,298.2c0,0.1,0,0.2,0,0.3C444.2,298.4,444.2,298.3,444.2,298.2L444.2,298.2z"/>
		<polygon fill="#FFFFFF" points="397.2,295.3 396.4,296.6 396.8,295.9 		"/>
		<path fill="#FFFFFF" d="M403.5,315.8c-2.3,0.6-5.7,0.2-7.9-0.3c-1.9-0.4-7.1-0.6-10.6,0.2l0.5-0.8c2.2-0.4,6.3-0.6,8-0.2
			c-1.4-0.8-4.8-1.3-7.5-0.7l0.3-0.6c2.9-0.3,6.8,0,8.3,0.6c0.6,0.2,1.3,0.5,2.1,0.7c1.1,0.2,2.1,0,2.9-0.3c1-0.3,4-0.7,6.3,0
			c1.6,0.5,2.5,0.7,3.3,0.7c1.3-0.1,2.4-0.1,2.9-0.3c3.7-1,5-0.8,8.5,0.2c3.5,1,6.4,0.8,8.7,0.5c2.3-0.3,4.8-0.1,6.7,0.6
			c1.9,0.6,5.4,0.7,7.9,0c2.4-0.7,4.7-0.4,6-0.2c1.3,0.1,4.2,0.1,5.1,0l-0.4-0.7c-1.9,0.3-3.1,0.1-4.6-0.1c-1.6-0.2-4.4-0.4-7,0.3
			c-2.6,0.7-4.8,0.6-7.1,0c-2.3-0.6-5.1-0.8-7-0.5c-2.8,0.4-7.2-0.1-9.7-0.8c-2.4-0.7-4.6-0.7-7.4,0c-1.3,0.3-4.8,0.6-7-0.5
			c-1-0.5-3.4-0.4-4.8-0.1c-1.4,0.3-4,0.6-6.3-0.3c-2-0.8-5.6-0.7-7-0.5l0.2-0.4c1.9-0.3,4.6-0.1,6.7,0.5c2.2,0.6,4.1,0.7,6.3,0.3
			c2.2-0.5,3.8-0.4,4.8,0.1c1.1,0.5,4.5,1.1,6.7,0.6c2.2-0.6,4.7-0.9,7.7-0.1c3,0.8,6.9,1.2,9.5,1c2.6-0.3,4.8-0.1,7.1,0.4
			c2.4,0.6,4,0.8,6.9,0.1c1.9-0.5,4.1-0.7,7-0.3c1.8,0.2,3.7,0.2,4.5,0.1l-1.9-3.1l0.3,0.5c-0.9,0-2.6-0.3-3.3-0.7
			c-0.8-0.5-0.3-0.4,0.3-0.1c0.5,0.2,1.8,0.4,2.7,0.4l-4.5-7.6l0.1,0.2c-0.8,0.1-2.6,0.2-3.2,0.2c-0.7,0-0.4-0.3,0-0.4
			c0.3,0,2-0.2,3-0.2l-1-1.7l0.1,0.2c-1,0-3.3,0-4,0c-0.9,0.1-0.5-0.3-0.1-0.3c0.3,0,2.4-0.1,3.9-0.2l-3.4-5.7l0.2,0.3l0,0.1
			l0.5,0.8c0,0,0,0,0,0l0,0c0,0,0,0,0,0l0.5,0.8l0.4,0.7l0.4,0.7c0,0.4-0.1,0.7-0.1,1.1c0.3,0,0.5,0,0.7,0l0.3,0.5
			c-1.7,0-3.5,0.1-5.2,0.1c1.7,2.6,3.9,4.9,8.2,4.9l2.8,4.8c-2.7-0.1-4.8-2-8.3-1c-2.9,0.8-6.9,0.8-10-0.2c-2-0.6-4.5-0.5-6.6-0.1
			c-0.1,0-0.2,0-0.4,0.1c-0.1,0-0.3,0.1-0.4,0.1c-0.3,0.1-0.5,0.1-0.8,0.2c-0.5,0.1-1.1,0.3-1.8,0.4c-0.1,0-0.3,0.1-0.4,0.1
			c0,0,0,0,0,0c-0.5,0.1-1,0.1-1.5,0.2c0,0,0,0,0,0c-0.1,0-0.1,0-0.2,0c-0.1,0-0.2,0-0.4,0c-0.1,0-0.2,0-0.2,0c-0.1,0-0.3,0-0.4,0
			c-0.1,0-0.2,0-0.3,0c-0.1,0-0.2,0-0.4,0c-0.1,0-0.2,0-0.4-0.1c-0.1,0-0.2,0-0.3-0.1c-0.2,0-0.3-0.1-0.5-0.1c-0.1,0-0.1,0-0.2,0
			c-0.2-0.1-0.4-0.1-0.7-0.2c0,0,0,0-0.1,0c-0.5-0.2-1.1-0.4-1.6-0.7c-0.5,0.2-0.9,0.4-1.4,0.6c-0.3,0.1-0.8,0.2-1.2,0.3
			c-0.1,0-0.1,0-0.2,0c-0.2,0-0.3,0.1-0.4,0.1c0,0,0,0,0,0c-0.8,0.2-1.6,0.2-2.4,0.3c0,0,0,0,0,0c-0.3,0-0.7,0-1,0
			c-0.1,0-0.1,0-0.2,0c0,0-0.1,0-0.1,0c0,0,0,0,0,0c-1.1,0-2.2-0.2-3-0.3c-2.4-0.5-4.8-0.6-7.1,0.2c-2.3,0.8-5.3,0.5-6.9,0
			c-1.4-0.4-3.3-0.6-4.5-0.7l-0.7,1.2c1.6-0.1,4.1-0.1,6.1,0.5c2.2,0.6,4.5,0.3,6.1-0.1c1.6-0.4,3.9-0.6,6.4,0.1
			c2.5,0.7,4.9,0.7,6.1,0.4c1.1-0.3,3.5-0.9,8,0.4c3.6,1.1,6.2,0.7,7.8,0.6c1.6-0.2,3.8-0.1,5.6,0.3c1.8,0.4,5.2,1.4,8.4,0.8
			c3.2-0.6,5.4-0.9,6.7-0.6c1.2,0.3,4.1,0.5,5.2,0.3l0.2,0.4c-1.9,0.3-4.1,0-5.3-0.2c-1.3-0.2-3.7-0.1-6.4,0.5
			c-2.7,0.6-5.9,0.1-8.2-0.6c-2.4-0.7-4-0.3-5.9-0.1c-1.9,0.1-5.5,0-8.1-0.8c-2.6-0.8-4.4-1.3-7.5-0.5c-1.9,0.5-4.9,0.4-6.5-0.1
			c-2.3-0.7-3.8-0.8-6.1-0.1c-1,0.3-4.1,0.7-6.4-0.2c-1.9-0.7-5-0.7-6.4-0.4l0.2-0.3l-3.1,5.2h26.9
			C409.2,315.9,405.7,315.3,403.5,315.8z M443.8,303.1c0.3-0.1,2.5-0.2,3.5-0.2l0.2,0.4c-1,0-3.2,0-3.7,0.2
			C443.3,303.7,443.5,303.2,443.8,303.1z M446.3,305.4c-0.6,0.1-0.5-0.3-0.1-0.4c0.3-0.1,1.5-0.2,2.3-0.2l0.2,0.4
			C448.1,305.3,446.8,305.4,446.3,305.4z M448.6,313.1c-2-0.5-3.7,0-6.2,0.3c-2.5,0.4-5.3,0.6-7.8-0.4c-2.4-1-5.3-0.6-7.6-0.3
			c-2.3,0.3-4.9,0.1-6.6-0.6c-1.7-0.8-3.7-0.8-4.4-0.7c-0.7,0.1-0.6-0.1-0.1-0.3c1.2-0.4,2.7-0.1,4.6,0.6c1.9,0.7,4,0.9,6.1,0.6
			c2.1-0.3,4.9-0.6,8,0.3c3.1,0.9,5.4,0.7,10.8,0c0.7-0.1,0.8-0.3,0-0.4c-0.8,0-2.2,0.1-4,0.3c-1.8,0.1-4.6,0-7.5-0.8
			c-2.9-0.8-6.3-0.4-7.8-0.1c-1.5,0.3-1.7,0.1-0.4-0.5c1.4-0.6,5.4-0.6,8.3,0c3,0.7,4.8,0.9,8.4,0.5c1.9-0.2,4.2-0.6,5.9,0.3
			c1.5,0.7,3.7,1.1,4.8,1l0.4,0.6C452.7,313.7,450.3,313.5,448.6,313.1z"/>
		<path fill="#FFFFFF" d="M436.7,302.5c0.1-0.2,0.1-0.4,0.2-0.6c0,0,0-0.1,0-0.1c-0.5,0-0.9,0-1.2,0.1c-0.2,0-0.6,0-1.2,0
			c0.1,0.2,0.2,0.4,0.4,0.6C435.5,302.4,436.2,302.4,436.7,302.5z"/>
		<path fill="#FFFFFF" d="M429.6,316.8h6.6c-0.8-0.1-1.4-0.2-1.6-0.3C433.5,316.1,431.6,315.4,429.6,316.8z"/>
		<path fill="#FFFFFF" d="M443.2,301c0.1-0.8,0.1-1.7,0.1-2.5C443.3,299.3,443.3,300.2,443.2,301L443.2,301z"/>
		<polygon fill="#FFFFFF" points="406,280.4 406.2,280.2 406,280.4 406,280.4 		"/>
		<path fill="#FFFFFF" d="M436.6,302.8c-0.5,0-1,0-1.3,0c0.3,0.4,0.6,0.8,1,1c0-0.1,0.1-0.2,0.1-0.3
			C436.4,303.3,436.5,303.1,436.6,302.8z"/>
		<path fill="#FFFFFF" d="M428.7,302.8c0.2,0.3,0.4,0.5,0.5,0.6l0.3-0.7C429.2,302.7,428.9,302.7,428.7,302.8z"/>
		<path fill="#FFFFFF" d="M397.8,301.4c0.4,0,0.9,0,1.3,0c0.7-1,1.3-2.2,1.9-3.6l-3.4,1.6C397.6,300.1,397.7,300.8,397.8,301.4z"/>
		<path fill="#FFFFFF" d="M419.7,272.9l-0.5-14.7l-2,3.3l1.3,11.4C418.9,272.9,419.3,272.9,419.7,272.9z"/>
		<path fill="#FFFFFF" d="M419.4,304.3c0.1-0.1,0.3-0.3,0.4-0.5c0.2-0.2,0.4-0.5,0.5-0.7c-0.6,0-1.4,0.1-1.8,0.1
			C418.9,303.7,419.2,304,419.4,304.3z"/>
		<path fill="#FFFFFF" d="M412.6,274l-1.5-2.2l-1,1.6l0.9,1.1C411.6,274.3,412.1,274.1,412.6,274z"/>
		<path fill="#FFFFFF" d="M417.4,273l-1.8-8.9l-1.3,2.3l1.9,6.8C416.6,273.1,417,273.1,417.4,273z"/>
		<path fill="#FFFFFF" d="M429.7,302.3c0.1-0.1,0.1-0.2,0.2-0.4c-0.6,0-1.3,0-1.8,0c0.1,0.1,0.2,0.3,0.3,0.4c0.4,0,0.9,0,1.3,0
			L429.7,302.3z"/>
		<path fill="#FFFFFF" d="M415.1,273.4l-2-5l-1.1,1.8l1.8,3.4C414.2,273.6,414.7,273.5,415.1,273.4z"/>
		<path fill="#FFFFFF" d="M422.1,273l1.7-9.7l1.5,2.5l-2,7.3c0.5,0.1,1,0.1,1.5,0.2l1.9-5.3l-4.8-8.1l-1,12.9
			C421.3,272.9,421.7,273,422.1,273z"/>
		<path fill="#EE3E42" d="M417.3,289.8c0.2,0,0.3,0,0.5,0c0.5,1.7,0.8,2.3,1.5,2.6c0.7,0.3,1.1,0.1,1.1-0.4c0-0.5,0.1-1,0.1-1.5
			c0-0.5,0.2-0.5,0.5-0.5c0.3,0,0.6,0,1.1,0c0.4,0,0.7-0.1,0.7-0.6c0-0.5,0-2.1,0-3.7c0-1.3-1-2.5-1.8-2.5c-0.8,0-1.2,0-1.7,0
			c-1,0-1.3,0.9-1.3,1.7c0.6-0.1,1,0,1.5,0.2c0.5,0.2,0.3,0.6-0.1,0.6c-0.4,0-1.1,0.1-1.6,0.6c-0.5,0.5-0.6,1.7-0.6,3.1
			C417.2,289.7,417.1,289.8,417.3,289.8z"/>
		<polygon fill="#FFCE46" points="372.4,287.9 371.2,287.7 370.7,291.3 368.8,291 369.3,287.8 367.9,287.6 367.4,290.8 365.8,290.6
			366.3,287 365.1,286.8 364.4,291.9 371.7,293 		"/>
		<path fill="#FFCE46" d="M372.9,285.6l0.4-1.3l-2.5-0.8c0,0,0.3-0.9,0.5-1.7c0.4-1.2-0.5-2.4-1.7-2.7c-1.3-0.4-2.5,0.2-2.8,1.3
			c-0.5,1.7-0.9,2.9-0.9,2.9l2.2,0.7L372.9,285.6z M367.4,282.5c0,0,0.2-0.8,0.4-1.3c0.2-0.6,0.7-1,1.4-0.8c0.7,0.2,1.1,0.8,0.9,1.5
			c-0.2,0.6-0.4,1.3-0.4,1.3s-0.7-0.2-1.3-0.4C367.9,282.6,367.4,282.5,367.4,282.5z"/>
		<path fill="#FFCE46" d="M376.4,276.2c0.9-1.9,0-3-1.1-3.5c-0.9-0.4-4.4-2.2-4.4-2.2l-0.6,1.3c0,0,3.8,1.9,4.4,2.2
			c0.6,0.3,1,0.8,0.6,1.7c-0.4,0.9-1.2,0.9-1.7,0.6c-0.6-0.3-4.4-2.2-4.4-2.2l-0.6,1.3c0,0,3.5,1.7,4.4,2.2
			C374,278,375.4,278,376.4,276.2z"/>
		<path fill="#FFCE46" d="M376.8,270.3c1.1,0.8,1.9,1.4,1.9,1.4c0,0,1.2-1.6,1.9-2.6c1.1-1.5,0.3-2.6-0.4-3.1
			c-0.7-0.5-1.3-0.5-1.9-0.4c-0.1-0.6-0.4-1.2-0.8-1.5c-1-0.7-2.3-0.1-3.1,1.1c-1.2,1.7-1.7,2.3-1.7,2.3s0.7,0.5,1.6,1.2
			C375.1,269.1,376,269.7,376.8,270.3z M378,267c0.3-0.4,0.8-0.4,1.2-0.1c0.5,0.4,0.6,0.8,0.3,1.2c-0.3,0.4-1.1,1.6-1.1,1.6
			s-0.4-0.3-0.8-0.6c-0.4-0.3-0.7-0.5-0.7-0.5C376.9,268.6,377.7,267.4,378,267z M375.6,265.4c0.3-0.4,0.9-0.4,1.2-0.2
			c0.2,0.1,0.6,0.6,0.2,1.1c-0.4,0.6-1.1,1.5-1.1,1.5s-0.3-0.2-0.7-0.5c-0.3-0.2-0.6-0.4-0.6-0.5
			C374.5,266.9,375.3,265.9,375.6,265.4z"/>
		<polygon fill="#FFCE46" points="386.9,261.7 385.9,260.8 383.6,263.1 379.3,258.9 378.3,260 383.5,265.1 		"/>

			<rect x="386" y="253.3" transform="matrix(0.7757 -0.631 0.631 0.7757 -75.4604 301.6596)" fill="#FFCE46" width="1.5" height="7.4"/>
		<path fill="#FFCE46" d="M394.1,256.2c1.4-0.9,1.9-2.4,1.1-3.7l-1.1,0.7c0.3,0.5,0.3,1.4-0.6,1.9c-0.8,0.5-1.9,0-2.7-1.2
			c-0.8-1.2-0.8-2.3,0.1-2.9c1-0.6,1.7-0.1,1.9,0.3l1.1-0.7c-0.6-1-2.2-1.6-3.7-0.7c-1.5,1-1.8,2.8-0.6,4.7
			C390.9,256.4,392.6,257.1,394.1,256.2z"/>
		<path fill="#FFCE46" d="M411,249.3c0,0,1.3-0.2,3-0.3c1.7-0.2,2.4-2.2,2.2-4.2c-0.4-3.2-2.4-3.2-3.3-3.1c-0.9,0.1-2,0.2-2.7,0.3
			c0,0,0.2,1.8,0.4,3.6C410.8,247.4,411,249.3,411,249.3z M412.9,242.9c0.5-0.1,1.7,0,2,2.1c0.3,2.3-1,2.7-1.5,2.7
			c-0.4,0.1-1.2,0.1-1.2,0.1c0,0-0.1-1.3-0.3-2.5c-0.1-1.2-0.3-2.3-0.3-2.3S412.7,242.9,412.9,242.9z"/>
		<polygon fill="#FFCE46" points="424.6,247.5 421,247.4 421.1,245.4 424.4,245.6 424.4,244.2 421.2,244.1 421.2,242.4 424.9,242.6
			424.9,241.4 419.8,241.1 419.4,248.5 424.6,248.7 		"/>
		<polygon fill="#FFCE46" points="434.6,245.8 435.9,251.2 437.2,251.6 439.5,244.6 438.1,244.1 436.7,248.4 435.6,243.3 434,242.8
			431.8,249.8 433.2,250.3 		"/>

			<rect x="438.1" y="248.8" transform="matrix(0.4237 -0.9058 0.9058 0.4237 28.5547 543.959)" fill="#FFCE46" width="7.4" height="1.5"/>
		<path fill="#FFCE46" d="M445.7,255.8c1.4,0.9,3,0.6,3.8-0.7l-1.1-0.7c-0.3,0.5-1.2,0.9-2,0.3s-0.9-1.7-0.1-3
			c0.8-1.2,1.7-1.8,2.7-1.1c1,0.6,0.8,1.5,0.6,1.9l1.1,0.7c0.6-1,0.5-2.7-1-3.6c-1.5-1-3.3-0.4-4.5,1.5
			C444.1,253,444.3,254.9,445.7,255.8z"/>
		<path fill="#FFCE46" d="M466,280.9c0.3,0.8,0.9,1.3,1.6,1.5c-0.2,0.2-0.5,0.3-0.7,0.4l0.3,0.8l3.6-1.2l-0.9-2.5l-1.1,0.4l0.5,1.4
			c-0.9,0.2-1.7-0.2-2-1c-0.4-1.1,0.4-2.1,1.8-2.6c1.4-0.5,2.6-0.1,2.9,0.9c0.2,0.7,0,1.4-0.6,1.9l0.4,1.1c1.3-0.4,1.8-1.9,1.3-3.4
			c-0.6-1.8-2.4-2.5-4.5-1.8C466.5,277.5,465.4,279.4,466,280.9z"/>
		<path fill="#FFCE46" d="M468.1,288.7c0.3,2.1,1.8,2.5,2.9,2.3c1-0.2,4.8-0.8,4.8-0.8l-0.2-1.4c0,0-4.2,0.7-4.8,0.8
			c-0.6,0.1-1.3-0.1-1.5-1.1c-0.2-1,0.5-1.4,1.1-1.5c0.6-0.1,4.8-0.8,4.8-0.8l-0.2-1.4c0,0-3.8,0.6-4.8,0.8
			C468.9,285.9,467.7,286.7,468.1,288.7z"/>
		<path fill="#FFCE46" d="M377.9,321.7l-7.5,1.9l0.7,1.2l1.5-0.4c0,0,0.3,0.5,0.6,1c0.4,0.6,0.8,1.2,0.8,1.2l-1,1.2l0.7,1.2l5-5.9
			L377.9,321.7z M374.9,325.6c0,0-0.3-0.4-0.5-0.9c-0.2-0.4-0.5-0.7-0.5-0.7l3-0.8L374.9,325.6z"/>
		<polygon fill="#FFCE46" points="384.2,330.1 379.2,333 382.5,328.2 381.1,326.7 375.6,331.6 376.5,332.6 380.7,328.9 377.4,333.6
			378.4,334.7 383.4,331.9 379.3,335.6 380.2,336.7 385.7,331.7 		"/>
		<polygon fill="#FFCE46" points="388.1,335.5 391,337.8 391.7,336.8 387.7,333.6 383.1,339.5 387.2,342.6 387.9,341.7 385,339.4
			386.2,337.9 388.8,339.9 389.7,338.9 387.1,336.8 		"/>
		<path fill="#FFCE46" d="M397,340c-0.9-0.5-3.5-2-3.5-2c0,0-3.6,6.4-3.6,6.4l1.3,0.7l1.4-2.5c0,0,0.2,0.1,0.6,0.3
			c0.2,0.1,0.4,0.2,0.7,0.4c0.6,0.4,0.9,0.8,0.5,1.5c-0.4,0.8-0.8,1.5-0.8,1.5l1.2,0.7c0,0,0.8-1.4,1-1.8c0.4-0.8,0.2-1.5-0.2-1.8
			c0.3,0.2,1.4,0,1.9-0.9C397.9,341.8,397.9,340.5,397,340z M396.2,342.1c-0.3,0.5-0.8,0.7-1.2,0.5c-0.2-0.1-0.8-0.5-1.3-0.7
			c-0.3-0.2-0.5-0.3-0.5-0.3l1-1.7c0,0,1.2,0.7,1.6,0.9C396.3,341.1,396.5,341.6,396.2,342.1z"/>

			<rect x="395.9" y="344.7" transform="matrix(0.3791 -0.9254 0.9254 0.3791 -71.4944 584.2368)" fill="#FFCE46" width="7.4" height="1.5"/>
		<path fill="#FFCE46" d="M406.9,344c-1.7-0.5-3.3,0.6-3.9,2.8c-0.6,2.1,0.2,3.9,1.8,4.3c1.6,0.5,3.1-0.3,3.5-1.7l-1.2-0.3
			c-0.1,0.5-0.9,1.2-1.8,0.9c-0.9-0.3-1.4-1.4-1-2.8c0.4-1.4,1.1-2.2,2.3-1.9c1.1,0.3,1.2,1.2,1.1,1.6l1.2,0.3
			C409.2,346.1,408.6,344.5,406.9,344z"/>
		<path fill="#FFCE46" d="M429.7,349.8c0.1,0.6-0.3,1.4-1.3,1.6c-1,0.2-1.8-0.7-2-2.1c-0.2-1.4,0.1-2.5,1.3-2.6
			c1.1-0.2,1.6,0.6,1.7,1l1.3-0.2c-0.2-1.1-1.3-2.4-3.1-2.1c-1.8,0.3-2.7,1.9-2.4,4.1c0.3,2.2,1.7,3.5,3.4,3.2
			c1.7-0.3,2.7-1.5,2.4-3L429.7,349.8z"/>
		<polygon fill="#FFCE46" points="435.4,349.9 434.8,348.1 437.9,347.1 437.5,345.8 434.4,346.8 433.9,345.2 437.3,344.1
			436.9,342.9 432.1,344.5 434.3,351.5 439.2,349.9 438.8,348.8 		"/>
		<polygon fill="#FFCE46" points="442.8,340.3 444.8,344.2 440.4,341.5 439,342.2 442.3,348.8 443.6,348.1 441.5,343.9 446.2,346.8
			447.4,346.2 444.1,339.6 		"/>
		<polygon fill="#FFCE46" points="451.4,336.2 450.6,335.2 446.1,338.5 446.8,339.5 448.5,338.2 452.2,343.2 453.2,342.4
			449.6,337.4 		"/>
		<polygon fill="#FFCE46" points="468.4,323 463,320.3 462.3,321.6 468.9,325 471.1,320.7 469.9,320.1 		"/>
		<path fill="#FFCE46" d="M413.7,345.5l-3.1,7.1l1.4,0.1l0.6-1.5c0,0,0.6,0.1,1.2,0.1c0.7,0.1,1.4,0.1,1.5,0.1l0.3,1.5l1.4,0.1
			l-1.6-7.6L413.7,345.5z M414,350.2c-0.4,0-0.9-0.1-0.9-0.1l1.2-2.9l0.6,3.1C415,350.3,414.5,350.2,414,350.2z"/>
		<path fill="#FFCE46" d="M459,326.6l4.6,6.2l0.8-1.1l-0.9-1.3c0,0,0.3-0.5,0.7-1c0.4-0.6,0.8-1.2,0.9-1.2l1.5,0.5l0.8-1.1l-7.4-2.4
			L459,326.6z M463.8,327.9c0,0-0.3,0.4-0.6,0.8c-0.3,0.4-0.5,0.7-0.5,0.7l-1.9-2.5L463.8,327.9z"/>
		<path fill="#FFCE46" d="M458.1,333.5c0.3-0.3,0.4-1.3-0.4-2.1c-0.7-0.7-1.9-1.1-2.6-0.3c-0.7,0.7-2.8,2.9-2.8,2.9
			c0,0,5.2,5.2,5.2,5.2l1-1l-2-2c0,0,0.2-0.2,0.5-0.5c0.2-0.2,0.4-0.4,0.5-0.5c0.5-0.5,1-0.6,1.6,0c0.6,0.6,1.2,1.2,1.2,1.2l1-1
			c0,0-1.1-1.1-1.5-1.5C459.3,333.1,458.5,333.1,458.1,333.5z M457,333.7c-0.2,0.2-0.7,0.7-1,1c-0.2,0.2-0.4,0.4-0.4,0.4l-1.4-1.4
			c0,0,0.9-0.9,1.3-1.3c0.4-0.4,0.9-0.4,1.4,0C457.3,332.8,457.3,333.4,457,333.7z"/>
		<path fill="#FFCE46" d="M468.8,295.2l1.5,0.5c0,0,0,0.6,0,1.2c0,0.7,0,1.5,0,1.5l-1.5,0.5l0,1.4l7.4-2.3l0-1.6l-7.4-2.4
			L468.8,295.2z M474.5,297l-3,0.9c0,0,0-0.5,0-1c0-0.4,0-0.9,0-0.9L474.5,297z"/>
		<path fill="#FFCE46" d="M461.6,271.7l1.5-0.3c0,0,0.3,0.5,0.6,1c0.3,0.6,0.7,1.3,0.7,1.3l-1.1,1.1l0.7,1.2l5.3-5.6l-0.8-1.4
			l-7.6,1.5L461.6,271.7z M467.5,270.5l-2.2,2.3c0,0-0.2-0.5-0.5-0.9c-0.2-0.4-0.4-0.7-0.4-0.7L467.5,270.5z"/>
		<path fill="#FFCE46" d="M450.9,259.5l1.4-0.8c0,0,0.4,0.4,0.9,0.8c0.5,0.5,1.1,1,1.1,1l-0.7,1.4l1,0.9l3.2-7.1l-1.2-1.1l-6.7,3.9
			L450.9,259.5z M456.1,256.4l-1.3,2.9c0,0-0.4-0.3-0.7-0.7c-0.3-0.3-0.6-0.6-0.6-0.6L456.1,256.4z"/>
		<path fill="#FFCE46" d="M399.6,253.1l-0.1-1.6c0,0,0.5-0.2,1.1-0.5c0.6-0.3,1.3-0.6,1.3-0.6l1,1.2l1.3-0.5l-5-5.9l-1.5,0.6
			l0.6,7.7L399.6,253.1z M401.1,249.5c0,0-0.5,0.2-0.9,0.4c-0.4,0.2-0.8,0.3-0.8,0.3l-0.3-3.1L401.1,249.5z"/>
		<path fill="#FFCE46" d="M371.6,300.8l0-1.5l-2.9,0c0,0,0-0.3,0-0.7c0-0.2,0-0.5,0-0.8c0-0.7,0.2-1.1,1.1-1.2c0.9,0,1.7,0,1.7,0
			l0-1.4c0,0-1.6,0-2.1,0c-0.9,0-1.5,0.5-1.5,1.1c0-0.4-0.7-1.2-1.8-1.2c-1.1,0-2.1,0.6-2.1,1.6c0,1,0,4,0,4
			C364.2,300.8,371.6,300.8,371.6,300.8z M366.4,296.5c0.6,0,1,0.4,1,0.8c0,0.3,0,1,0,1.4c0,0.3,0,0.5,0,0.5l-2,0c0,0,0-1.3,0-1.9
			C365.4,296.9,365.8,296.5,366.4,296.5z"/>
		<path fill="#FFCE46" d="M457.1,265.5l2.2-1.8c0,0,0.2,0.2,0.4,0.5c0.1,0.2,0.3,0.4,0.5,0.6c0.5,0.6,0.5,1-0.2,1.6
			c-0.7,0.6-1.4,1.1-1.4,1.1l0.9,1.1c0,0,1.3-1,1.6-1.3c0.7-0.6,0.8-1.3,0.5-1.7c0.2,0.3,1.3,0.5,2.1-0.2c0.8-0.7,1.3-1.8,0.6-2.6
			c-0.6-0.8-2.5-3.2-2.5-3.2c0,0-5.8,4.6-5.8,4.6L457.1,265.5z M461.9,261.6c0,0,0.8,1,1.2,1.5c0.3,0.4,0.3,1-0.1,1.4
			c-0.5,0.4-1,0.3-1.3,0c-0.2-0.2-0.6-0.8-0.9-1.1c-0.2-0.2-0.3-0.4-0.3-0.4L461.9,261.6z"/>
		<circle fill="#FFCE46" cx="369.8" cy="311" r="1.3"/>
		<circle fill="#FFCE46" cx="470.2" cy="311" r="1.3"/>
		<path fill="#B3D2EE" d="M414,287.6l-10-3.9l-0.5,0.8l-1,1.6l0,0l11.4,2.3C414,288.1,414,287.9,414,287.6z"/>
		<polygon fill="#B3D2EE" points="407.7,277.6 407.7,277.5 407.7,277.5 407.7,277.5 406.7,279.3 407.2,278.5 		"/>
		<path fill="#B3D2EE" d="M414.9,283.4c0.1-0.2,0.2-0.4,0.3-0.5l-5.8-4.1c-0.7,0.4-1.4,0.8-2,1.2L414.9,283.4z"/>
		<path fill="#B3D2EE" d="M414.3,285.2l-7.8-4.6c-0.4,0.3-0.7,0.6-1.1,0.9l0.7-1.1l0,0l0,0l-1.2,2l0,0l9.3,3.6
			C414.2,285.7,414.2,285.5,414.3,285.2z"/>
		<path fill="#B3D2EE" d="M443.2,301C443.2,301,443.2,301,443.2,301C443.2,301,443.2,301,443.2,301L443.2,301
			C443.2,301,443.2,301,443.2,301z"/>
		<path fill="#B3D2EE" d="M438.1,300.6c0,0,0.1,0,0.1,0c0,0,0,0,0,0c0.8,0,1.7-0.1,2.4-0.1c0.1,0.2,0.3,0.4,0.4,0.7
			c0.4,0,0.9,0,1.3-0.1c0-0.2,0-0.4,0-0.5l-17.1-9.2c-0.1,0.2-0.2,0.5-0.4,0.7l12.5,8.8c0-0.1,0.1-0.2,0.1-0.2
			C437.6,300.6,437.8,300.6,438.1,300.6z"/>
		<path fill="#B3D2EE" d="M420,295.1C420,295.1,420,295.1,420,295.1c-0.2,0-0.4,0-0.6,0l-0.6,6.3c0,0,0.1,0,0.1,0c0.4,0,0.7,0,1,0
			V295.1z"/>
		<path fill="#B3D2EE" d="M419.8,276.1l0.1,3.7c0,0,0.1,0,0.1,0c0.1,0,0.2,0,0.4,0l0.3-3.7c-0.2,0-0.4,0-0.6,0
			C419.9,276.1,419.8,276.1,419.8,276.1z"/>
		<path fill="#B3D2EE" d="M420,272.9c0.3,0,0.6,0,0.9,0l1-12.9l0,0l-1.9-3.2l-0.8,1.4l0,0l0.5,14.7
			C419.8,272.9,419.9,272.9,420,272.9z"/>
		<path fill="#B3D2EE" d="M444.2,298.2c0-0.2,0-0.4,0-0.5l0,0C444.2,297.8,444.2,298,444.2,298.2L444.2,298.2z"/>
		<path fill="#B3D2EE" d="M425.4,290.8l17,6.6c-0.1-1.3-0.2-2.5-0.5-3.7l0.7,1.1l0.6,1l0.5,0.8l-0.2-0.3l-1.8-3.1l0,0l-15.9-3.4
			C425.6,290.2,425.5,290.5,425.4,290.8z"/>
		<path fill="#B3D2EE" d="M425.9,288.4c0,0.3-0.1,0.6-0.1,1l13.6,0.3h0l-0.7-1.1l-1.1-1.8L425.9,288.4z"/>
		<path fill="#B3D2EE" d="M426,287.3l10.8-2.2l-0.8-1.3l-0.5-0.9l0,0l-9.5,3.5C426,286.7,426,287,426,287.3z"/>
		<path fill="#B3D2EE" d="M425.6,284.7c0.1,0.2,0.1,0.5,0.2,0.8l8.2-4.5c-0.5-0.4-1-0.7-1.5-1.1L425.6,284.7z"/>
		<path fill="#B3D2EE" d="M424.9,283.1c0.1,0.2,0.2,0.5,0.4,0.7l5.9-4.8c-0.6-0.3-1.1-0.6-1.7-0.9L424.9,283.1z"/>
		<polygon fill="#B3D2EE" points="431.4,276 431.4,276.1 431.9,276.8 432.3,277.6 432.5,278 432.5,277.9 432.5,277.9 431.5,276.1
			431.4,276 		"/>
		<path fill="#B3D2EE" d="M430.2,274l-0.6,0.8c0.4,0.2,0.9,0.4,1.3,0.6l0.1-0.1L430.2,274z"/>
		<path fill="#B3D2EE" d="M424.1,281.9c0.1,0.2,0.3,0.4,0.4,0.5l4.1-4.6c-0.4-0.2-0.7-0.3-1.1-0.4L424.1,281.9z"/>
		<path fill="#B3D2EE" d="M423,280.8c0.2,0.1,0.3,0.2,0.5,0.4l3-4.2c-0.3-0.1-0.6-0.2-1-0.3L423,280.8z"/>
		<path fill="#B3D2EE" d="M428.4,274.3l1.1-1.5l0,0l-0.8-1.3l0,0l-1.5,2.4C427.6,274.1,428,274.2,428.4,274.3z"/>
		<path fill="#B3D2EE" d="M422.2,280.3c0.2,0.1,0.4,0.2,0.5,0.3l1.9-4.1c-0.3-0.1-0.7-0.1-1-0.2L422.2,280.3z"/>
		<path fill="#B3D2EE" d="M426,273.6l1.8-3.7l-0.8-1.3l-0.3-0.5l0,0l-1.9,5.3C425.2,273.4,425.6,273.5,426,273.6z"/>
		<path fill="#B3D2EE" d="M420.9,279.9c0.2,0,0.3,0.1,0.5,0.1l1-3.8c-0.3,0-0.6-0.1-0.9-0.1L420.9,279.9z"/>
		<path fill="#B3D2EE" d="M423.8,263.3l-1.7,9.7c0.4,0,0.8,0.1,1.2,0.1l2-7.3L423.8,263.3z"/>
		<path fill="#B3D2EE" d="M418.8,280c0.2,0,0.3-0.1,0.5-0.1l-0.4-3.8c-0.3,0-0.5,0-0.8,0L418.8,280z"/>
		<path fill="#B3D2EE" d="M418.5,272.9l-1.3-11.4l0,0l-1.6,2.6l0,0l1.8,8.9C417.8,273,418.2,273,418.5,272.9z"/>
		<path fill="#B3D2EE" d="M417.8,280.3c0.1-0.1,0.2-0.1,0.4-0.2l-1.1-3.9c-0.3,0-0.5,0.1-0.8,0.1L417.8,280.3z"/>
		<path fill="#B3D2EE" d="M416.2,273.2l-1.9-6.8l0,0l-1.2,1.9l0,0l2,5C415.5,273.3,415.8,273.2,416.2,273.2z"/>
		<path fill="#B3D2EE" d="M413.8,273.7l-1.8-3.4l0,0l-0.9,1.5l0,0l1.5,2.2C413,273.9,413.4,273.8,413.8,273.7z"/>
		<path fill="#B3D2EE" d="M417,280.8c0.1-0.1,0.2-0.1,0.3-0.2l-2-4c-0.3,0.1-0.6,0.1-0.9,0.2L417,280.8z"/>
		<path fill="#B3D2EE" d="M411.1,274.5l-0.9-1.1l0,0l-1.5,2.6l0,0l0.3-0.6C409.7,275.1,410.4,274.8,411.1,274.5z"/>
		<path fill="#B3D2EE" d="M416,281.8c0.1-0.1,0.2-0.3,0.4-0.4l-3.2-4.2c-0.7,0.2-1.3,0.5-2,0.7L416,281.8z"/>
		<path fill="#B3D2EE" d="M414.3,289.6l-13.8,0.1l-0.2,0l-1.9,3.5l0.1,0l16-3.1C414.3,290,414.3,289.8,414.3,289.6z"/>
		<path fill="#B3D2EE" d="M414.8,291.2c-0.1-0.2-0.1-0.3-0.2-0.5l-16.9,6.3c0,0.5-0.1,1-0.1,1.5c0,0.3,0,0.6,0,0.9l3.4-1.6
			c0.1-0.2,0.2-0.5,0.3-0.7c0.4,0,0.9-0.1,1.5-0.1L414.8,291.2z"/>
		<path fill="#B3D2EE" d="M393.6,301.4l1-0.5c0-0.3-0.1-0.7-0.1-1L393.6,301.4z"/>
		<path fill="#B3D2EE" d="M405.5,300.2l9.8-8c-0.1-0.1-0.1-0.2-0.2-0.3l-10.5,6.9c0.3,0.4,0.5,0.9,0.8,1.3L405.5,300.2z"/>
		<path fill="#B3D2EE" d="M407.7,301.5c0.3,0,0.6,0,0.9,0l7.5-8.3c-0.1-0.1-0.2-0.2-0.3-0.4l-9.4,8.6c0,0,0,0,0,0
			C406.8,301.5,407.3,301.5,407.7,301.5z"/>
		<path fill="#B3D2EE" d="M414.7,298.1c0.2,0,0.3,0,0.5-0.1l1.9-3.9c-0.2-0.1-0.3-0.3-0.5-0.4l-3.2,4.5c0.1,0,0.1,0,0.2,0
			C413.9,298.2,414.4,298.2,414.7,298.1z"/>
		<path fill="#B3D2EE" d="M418.4,294.9c-0.2-0.1-0.4-0.1-0.6-0.2l-1.7,4.2c0.3,0.5,0.6,1.1,0.9,1.7L418.4,294.9z"/>
		<path fill="#B3D2EE" d="M421.7,300.7c0.1-0.2,0.2-0.3,0.2-0.5c0-0.1,0-0.1,0.1-0.2c0.1-0.2,0.2-0.4,0.2-0.6
			c0.1-0.2,0.1-0.3,0.2-0.5l-1.2-4c-0.2,0.1-0.4,0.1-0.6,0.1l0.7,6.2c0,0,0-0.1,0-0.1C421.6,301,421.7,300.9,421.7,300.7z"/>
		<path fill="#B3D2EE" d="M422.3,294.6c-0.2,0.1-0.4,0.2-0.6,0.3l1.9,3.9c0.5,0,1-0.1,1.5-0.1L422.3,294.6z"/>
		<path fill="#B3D2EE" d="M423.4,293.8c-0.1,0.1-0.2,0.2-0.3,0.3l5.2,7.3c0.4,0,1.2,0,1.8,0c0.1-0.3,0.2-0.5,0.3-0.7L423.4,293.8z"
			/>
		<path fill="#B3D2EE" d="M435.5,301.3l-2-1.6c0.2,0.5,0.5,1,0.8,1.6C434.7,301.3,435.1,301.3,435.5,301.3z"/>
		<path fill="#B3D2EE" d="M433.2,299.6l-8.8-6.9c-0.2,0.2-0.3,0.4-0.5,0.6l6.9,6.5c0.1-0.1,0.1-0.3,0.2-0.4
			C431.7,299.6,432.7,299.6,433.2,299.6z"/>
		<path fill="#4E2F90" d="M442.7,301.1c0.1-0.8,0.1-1.7,0.1-2.6c0-1.2-0.1-2.4-0.3-3.6l-0.7-1.1c0.3,1.2,0.4,2.4,0.5,3.7
			c0,0.3,0,0.7,0,1c0,0.7,0,1.4-0.1,2.1c0,0.2,0,0.4,0,0.5C442.4,301.1,442.6,301.1,442.7,301.1z"/>
		<path fill="#4E2F90" d="M420,275.6c-5.3,0-10.1,1.8-14,4.8l0,0l-0.7,1.1c0.3-0.3,0.7-0.6,1.1-0.9c0.3-0.2,0.6-0.5,1-0.7
			c0.7-0.4,1.3-0.8,2-1.2c0.5-0.3,1.1-0.6,1.7-0.8c0.6-0.3,1.3-0.5,2-0.7c0.4-0.1,0.9-0.3,1.3-0.4c0.3-0.1,0.6-0.1,0.9-0.2
			c0.3-0.1,0.6-0.1,1-0.2c0.3,0,0.5-0.1,0.8-0.1c0.3,0,0.7-0.1,1-0.1c0.3,0,0.5,0,0.8,0c0.3,0,0.6,0,0.9,0c0.1,0,0.2,0,0.2,0
			c0.2,0,0.4,0,0.6,0c0.3,0,0.6,0,0.9,0c0.3,0,0.6,0,0.9,0.1c0.4,0,0.8,0.1,1.2,0.2c0.3,0.1,0.7,0.1,1,0.2c0.3,0.1,0.6,0.1,0.9,0.2
			c0.3,0.1,0.7,0.2,1,0.3c0.4,0.1,0.7,0.2,1.1,0.3c0.4,0.1,0.7,0.3,1.1,0.4c0.3,0.1,0.5,0.2,0.8,0.3c0.6,0.3,1.2,0.6,1.7,0.9
			c0.5,0.3,0.9,0.6,1.3,0.8c0.5,0.3,1,0.7,1.5,1.1c0.2,0.2,0.4,0.3,0.6,0.5l-0.7-1.1C430.1,277.4,425.3,275.6,420,275.6z"/>
		<path fill="#4E2F90" d="M397.1,298.5c0,1,0.1,2,0.2,2.9c0.2,0,0.3,0,0.5,0c-0.1-0.7-0.1-1.3-0.2-2c0-0.3,0-0.6,0-0.9
			c0-0.5,0-1,0.1-1.5c0.1-1.1,0.2-2.2,0.4-3.2l0,0l-0.6,1.1C397.2,296.1,397.1,297.3,397.1,298.5z"/>
		<path fill="#003876" d="M442.9,298.5c0,0.9-0.1,1.7-0.1,2.6c0.2,0,0.3,0,0.5,0c0,0,0,0,0,0c0.1-0.8,0.1-1.7,0.1-2.5
			c0-0.9,0-1.7-0.1-2.6l-0.6-1C442.8,296.1,442.9,297.3,442.9,298.5z"/>
		<path fill="#003876" d="M420,275.6c5.3,0,10.1,1.8,14,4.8l-0.6-1c-3.8-2.7-8.4-4.2-13.4-4.2c-5,0-9.6,1.6-13.4,4.2l-0.5,0.8
			l-0.1,0.2C409.9,277.4,414.7,275.6,420,275.6z"/>
		<path fill="#003876" d="M396.7,298.5c0,1,0.1,2,0.2,2.9c0.1,0,0.3,0,0.5,0c-0.1-1-0.2-1.9-0.2-2.9c0-1.2,0.1-2.4,0.3-3.6l-0.2,0.4
			l-0.4,0.6C396.7,296.7,396.7,297.6,396.7,298.5z"/>
		<path fill="#009BDB" d="M443.3,298.5c0,0.9-0.1,1.7-0.1,2.5c0,0,0,0,0,0c0.2,0,0.3,0,0.5,0c0.1-0.8,0.1-1.7,0.1-2.5
			c0-0.6,0-1.1-0.1-1.7l0-0.1l-0.5-0.8C443.3,296.7,443.3,297.6,443.3,298.5z"/>
		<path fill="#009BDB" d="M420,275.2c5,0,9.6,1.6,13.4,4.2l-0.5-0.9c-3.7-2.4-8.1-3.8-12.8-3.8c-4.7,0-9.1,1.4-12.8,3.8l-0.5,0.8
			l-0.1,0.1C410.4,276.7,415,275.2,420,275.2z"/>
		<path fill="#009BDB" d="M396.2,298.5c0,1,0.1,2,0.2,2.9c0.1,0,0.3,0,0.5,0c-0.1-1-0.2-1.9-0.2-2.9c0-0.9,0-1.7,0.1-2.6l-0.4,0.7
			l-0.1,0.2C396.2,297.3,396.2,297.9,396.2,298.5z"/>
		<path fill="#00AC8D" d="M443.8,298.5c0,0.9-0.1,1.7-0.1,2.5c0.2,0,0.3,0,0.5,0c0-0.1,0-0.2,0-0.3c0-0.3,0.1-0.5,0.1-0.8
			c0-0.5,0-0.9,0-1.4c0-0.1,0-0.2,0-0.3c0-0.2,0-0.4,0-0.5c0,0,0,0,0,0l-0.5-0.8C443.8,297.3,443.8,297.9,443.8,298.5z"/>
		<path fill="#00AC8D" d="M420,274.3c-4.5,0-8.7,1.2-12.3,3.4l-0.5,0.8c3.7-2.4,8.1-3.8,12.8-3.8c4.7,0,9.1,1.4,12.8,3.8l-0.3-0.5
			l-0.2-0.3C428.7,275.5,424.5,274.3,420,274.3z"/>
		<path fill="#00AC8D" d="M395.8,297.6c0,0.3,0,0.6,0,0.8c0,1,0.1,2,0.2,2.9c0.1,0,0.3,0,0.5,0c-0.1-1-0.2-1.9-0.2-2.9
			c0-0.6,0-1.1,0.1-1.7L395.8,297.6C395.8,297.6,395.8,297.6,395.8,297.6C395.8,297.6,395.8,297.6,395.8,297.6L395.8,297.6z"/>
		<path fill="#FFF100" d="M444.2,298.5c0,0.5,0,1,0,1.4c0,0.3,0,0.5-0.1,0.8c0,0.1,0,0.2,0,0.3c0.2,0,0.3,0,0.5,0
			c0.1-0.8,0.1-1.7,0.1-2.5c0,0,0,0,0-0.1l-0.5-0.8c0,0,0,0,0,0c0,0.2,0,0.3,0,0.5C444.2,298.3,444.2,298.4,444.2,298.5z"/>
		<path fill="#FFF100" d="M420,274.3c4.5,0,8.7,1.2,12.3,3.4l-0.5-0.8c-3.5-1.9-7.6-3-11.9-3c-4.3,0-8.3,1.1-11.9,3l-0.4,0.7
			l-0.1,0.1C411.3,275.5,415.5,274.3,420,274.3z"/>
		<path fill="#FFF100" d="M395.8,298.5c0-0.3,0-0.6,0-0.8l0,0l-0.5,0.8c0,0,0,0,0,0.1c0,1,0.1,2,0.2,2.9c0.1,0,0.3,0,0.5,0
			C395.8,300.4,395.8,299.5,395.8,298.5z"/>
		<path fill="#F9AA53" d="M444.5,301c0.2,0,0.3,0,0.4,0c0.1-0.6,0.1-1.2,0.1-1.8l-0.4-0.7c0,0,0,0,0,0.1
			C444.7,299.3,444.6,300.2,444.5,301z"/>
		<path fill="#F9AA53" d="M420,273.8c4.3,0,8.4,1.1,11.9,3l-0.4-0.7c-3.4-1.8-7.3-2.7-11.4-2.7c-4.1,0-8,1-11.4,2.7l-0.3,0.5
			l-0.2,0.3C411.6,274.9,415.7,273.8,420,273.8z"/>
		<path fill="#F9AA53" d="M395,301.4c0.1,0,0.3,0,0.5,0c-0.1-1-0.2-1.9-0.2-2.9c0,0,0,0,0-0.1l-0.3,0.5l-0.1,0.2
			C394.9,299.9,395,300.7,395,301.4z"/>
		<path fill="#EC1B2E" d="M445.5,301c0-0.4,0.1-0.7,0.1-1.1l-0.4-0.7c0,0.6-0.1,1.2-0.1,1.8C445.2,301,445.3,301,445.5,301z"/>
		<path fill="#EC1B2E" d="M420,273.3c4.1,0,8,1,11.4,2.7l0-0.1l-0.4-0.6l0,0l0,0c0,0-0.1,0-0.1-0.1c-0.4-0.2-0.9-0.4-1.3-0.6
			c-0.4-0.1-0.7-0.3-1.1-0.4c-0.4-0.1-0.8-0.3-1.2-0.4c-0.4-0.1-0.8-0.2-1.2-0.3c-0.4-0.1-0.8-0.2-1.3-0.3c-0.5-0.1-1-0.2-1.5-0.2
			c-0.4,0-0.8-0.1-1.2-0.1c-0.4,0-0.8-0.1-1.2-0.1c-0.3,0-0.6,0-0.9,0c-0.1,0-0.2,0-0.3,0c-0.4,0-0.8,0-1.1,0
			c-0.4,0-0.7,0.1-1.1,0.1c-0.4,0-0.8,0.1-1.2,0.2c-0.4,0.1-0.7,0.1-1.1,0.2c-0.4,0.1-0.9,0.2-1.3,0.3c-0.4,0.1-0.8,0.2-1.2,0.3
			c-0.5,0.2-1,0.3-1.6,0.5c-0.7,0.3-1.4,0.5-2.1,0.9l-0.3,0.6l-0.1,0.2C412,274.3,415.9,273.3,420,273.3z"/>
		<path fill="#EC1B2E" d="M394.5,300.9c0,0.2,0,0.3,0,0.5c0.1,0,0.3,0,0.5,0c-0.1-0.7-0.1-1.5-0.2-2.2l-0.4,0.7c0,0,0,0,0,0
			c0,0,0,0,0,0C394.5,300.2,394.5,300.6,394.5,300.9z"/>
		<path fill="#003876" d="M409.7,302.9c-0.3,0-1.7,0-2.4,0c0.1,0.2,0.2,0.3,0.3,0.5c0.4,0,1.4,0,2,0
			C410.4,303.3,410,302.9,409.7,302.9z"/>
		<path fill="#003876" d="M409.3,304c-0.2,0-0.8,0-1.1,0c0.1,0.1,0.2,0.2,0.3,0.3c0.3,0,0.6-0.1,0.9-0.1
			C409.7,304.2,409.6,304.1,409.3,304z"/>
		<path fill="#003876" d="M418.3,302.8c0.1,0.2,0.2,0.3,0.3,0.5c0.4,0,1.2-0.1,1.8-0.1c0.1-0.1,0.2-0.3,0.3-0.4
			C420.1,302.7,418.8,302.8,418.3,302.8z"/>
		<path fill="#003876" d="M429.6,302.4c-0.4,0-0.9,0-1.3,0c0.1,0.2,0.2,0.3,0.3,0.4c0.2,0,0.5,0,0.8-0.1L429.6,302.4z"/>
		<path fill="#003876" d="M436.7,302.5c-0.5,0-1.3,0-1.7,0c0.1,0.1,0.2,0.3,0.3,0.4c0.3,0,0.8,0,1.3,0
			C436.6,302.7,436.7,302.6,436.7,302.5z"/>
		<path fill="#003876" d="M446.2,305.1c-0.4,0.1-0.5,0.5,0.1,0.4c0.5-0.1,1.8-0.1,2.4-0.2l-0.2-0.4
			C447.7,304.9,446.5,305,446.2,305.1z"/>
		<path fill="#003876" d="M394.4,305.5c0.3-0.1,0.6-0.3,1-0.5c-0.9-0.1-2.8-0.2-3.8-0.3c0,0,0,0,0,0l-0.1,0.3l-0.1,0.2
			C392,305.2,393.4,305.3,394.4,305.5z"/>
		<path fill="#003876" d="M396.3,304.3c0.2-0.1,0.3-0.3,0.5-0.4c-1-0.4-3.6-0.3-4.8-0.1h0L392,304l-0.2,0.3
			C393,304,395.1,304.1,396.3,304.3z"/>
		<path fill="#003876" d="M397.8,303c0.1-0.1,0.3-0.3,0.4-0.4c-1.6-0.4-4.2-0.1-5.4,0c0,0,0,0,0,0l-0.3,0.5l-0.1,0.2
			C393.8,303.1,396.3,302.8,397.8,303z"/>
		<path fill="#003876" d="M399.7,314.5c-0.8,0.3-1.8,0.4-2.9,0.3c0,0,0,0,0,0c0.5,0.1,1,0.3,1.5,0.3c0,0,0.1,0,0.1,0
			c0.5,0.1,1,0.2,1.4,0.2c0,0,0.1,0,0.1,0c-0.3-0.1,0.1-0.3,0.5-0.5c1.7-0.7,3.9-0.3,4.9-0.1c1,0.2,0.9,0.4,0.6,0.5c0,0,0,0,0,0
			c0.5,0,1,0,1.5,0c0.1,0,0.2,0,0.3,0c0.5,0,1,0,1.5,0c0,0,0,0,0,0c-0.8,0-1.7-0.2-3.3-0.7C403.8,313.7,400.8,314.1,399.7,314.5z"/>
		<path fill="#003876" d="M398.6,302.1c0.2-0.2,0.3-0.4,0.5-0.6c-0.4,0-0.9,0-1.3,0c-0.2,0-0.3,0-0.5,0c-0.2,0-0.3,0-0.5,0
			c-0.2,0-0.3,0-0.5,0c-0.2,0-0.3,0-0.5,0c-0.2,0-0.3,0-0.5,0c-0.2,0-0.3,0-0.5,0c-0.2,0-0.3,0-0.5,0c-0.4,0-0.8,0-1,0c0,0,0,0,0,0
			l-0.1,0.1l-0.3,0.5C394,302,396.2,302.1,398.6,302.1z"/>
		<path fill="#003876" d="M406.3,301.5c0.1,0.2,0.3,0.4,0.4,0.6c1.3,0,2.9,0,4.4,0c0.1-0.2,0.2-0.4,0.3-0.6c-0.7,0-1.7,0-2.8,0
			c-0.3,0-0.6,0-0.9,0C407.3,301.5,406.8,301.5,406.3,301.5z"/>
		<path fill="#003876" d="M429.8,301.9c0.1-0.2,0.2-0.4,0.2-0.5c-0.9,0-1.8,0-2.5,0c0.1,0.2,0.3,0.4,0.4,0.6
			C428.6,301.9,429.2,301.9,429.8,301.9z"/>
		<path fill="#003876" d="M421.1,302c0.1-0.2,0.2-0.4,0.3-0.6c-0.5,0-0.9,0-1.4,0c-0.3,0-0.7,0-1,0c-0.5,0-1,0-1.5,0
			c0.1,0.2,0.2,0.4,0.3,0.6C418.8,302,420,302,421.1,302z"/>
		<path fill="#003876" d="M434.6,301.9c0.5,0,0.9,0,1.2,0c0.3,0,0.7,0,1.2-0.1c0.1-0.2,0.1-0.3,0.2-0.5c-0.5,0-1,0-1.6,0
			c-0.4,0-0.8,0-1.2,0C434.4,301.5,434.5,301.7,434.6,301.9z"/>
		<path fill="#003876" d="M445,301c-0.1,0-0.3,0-0.4,0c0,0,0,0,0,0c-0.1,0-0.3,0-0.5,0c-0.1,0-0.3,0-0.5,0c-0.2,0-0.3,0-0.5,0
			c0,0,0,0,0,0c-0.2,0-0.3,0-0.5,0c-0.2,0-0.3,0-0.5,0c-0.4,0-0.9,0-1.3,0.1c0.1,0.2,0.2,0.3,0.3,0.5c1.7,0,3.5-0.1,5.2-0.1
			l-0.3-0.5c-0.2,0-0.5,0-0.7,0C445.3,301,445.2,301,445,301z"/>
		<path fill="#003876" d="M443.1,302.5c0.7-0.1,3-0.1,4,0l-0.1-0.2l-0.2-0.3c0,0,0,0,0,0c-1.4,0-3.5,0.1-3.9,0.2
			C442.6,302.3,442.2,302.6,443.1,302.5z"/>
		<path fill="#003876" d="M447.4,303c-1.1,0-3.2,0.1-3.5,0.2c-0.4,0.1-0.6,0.5,0.1,0.4c0.5-0.1,2.7-0.2,3.7-0.2L447.4,303z"/>
		<path fill="#003876" d="M445,304.6c0.6,0,2.4-0.2,3.2-0.2l-0.1-0.2L448,304c0,0,0,0,0,0c-1,0-2.7,0.2-3,0.2
			C444.6,304.3,444.3,304.7,445,304.6z"/>
		<path fill="#003876" d="M449.9,311.4c-0.6-0.2-1.1-0.3-0.3,0.1c0.7,0.4,2.4,0.7,3.3,0.7l-0.3-0.5l0,0l0,0
			C451.7,311.9,450.4,311.6,449.9,311.4z"/>
		<path fill="#003876" d="M448.5,311.9c-1.7-0.8-4-0.5-5.9-0.3c-3.6,0.5-5.5,0.2-8.4-0.5c-3-0.7-7-0.6-8.3,0
			c-1.4,0.6-1.1,0.7,0.4,0.5c1.5-0.3,4.8-0.7,7.8,0.1c2.9,0.8,5.7,0.9,7.5,0.8c1.8-0.1,3.2-0.3,4-0.3c0.8,0,0.7,0.3,0,0.4
			c-5.4,0.7-7.7,0.9-10.8,0c-3.1-0.9-6-0.6-8-0.3c-2.1,0.3-4.1,0.1-6.1-0.6c-1.9-0.7-3.4-1-4.6-0.6c-0.4,0.1-0.6,0.4,0.1,0.3
			c0.7-0.1,2.7-0.1,4.4,0.7c1.7,0.8,4.3,1,6.6,0.6c2.3-0.3,5.1-0.7,7.6,0.3c2.4,1,5.3,0.8,7.8,0.4c2.5-0.4,4.2-0.8,6.2-0.3
			c1.7,0.4,4.1,0.6,5.1,0.5l-0.4-0.6C452.2,313,450.1,312.6,448.5,311.9z"/>
		<path fill="#003876" d="M393.7,312.3c2.3,0.9,5.3,0.5,6.4,0.2c2.3-0.7,3.8-0.6,6.1,0.1c1.6,0.5,4.6,0.6,6.5,0.1
			c3.2-0.8,4.9-0.3,7.5,0.5c2.6,0.8,6.2,0.9,8.1,0.8c1.9-0.1,3.6-0.6,5.9,0.1c2.4,0.7,5.5,1.2,8.2,0.6c2.7-0.6,5.2-0.7,6.4-0.5
			c1.2,0.2,3.4,0.5,5.3,0.2L454,314c-1.1,0.2-4,0-5.2-0.3c-1.4-0.3-3.6,0-6.7,0.6c-3.2,0.6-6.6-0.4-8.4-0.8c-1.8-0.4-4-0.5-5.6-0.3
			c-1.6,0.2-4.1,0.5-7.8-0.6c-4.5-1.3-6.9-0.7-8-0.4c-1.1,0.3-3.5,0.3-6.1-0.4c-2.5-0.7-4.8-0.5-6.4-0.1c-1.6,0.4-3.9,0.7-6.1,0.1
			c-2-0.6-4.6-0.6-6.1-0.5c0,0,0,0,0,0l-0.1,0.2l-0.2,0.3C388.7,311.6,391.8,311.6,393.7,312.3z"/>
		<path fill="#003876" d="M449.9,314.8c-2.9-0.4-5.1-0.2-7,0.3c-2.9,0.7-4.6,0.5-6.9-0.1c-2.4-0.6-4.5-0.7-7.1-0.4
			c-2.6,0.3-6.5-0.2-9.5-1c-3-0.8-5.5-0.5-7.7,0.1c-2.2,0.6-5.6,0-6.7-0.6c-1.1-0.5-2.7-0.6-4.8-0.1c-2.2,0.5-4.1,0.3-6.3-0.3
			c-2.1-0.6-4.8-0.8-6.7-0.5l-0.2,0.4c1.4-0.2,4.9-0.3,7,0.5c2.4,0.9,5,0.6,6.3,0.3c1.4-0.3,3.7-0.4,4.8,0.1c2.2,1.1,5.7,0.9,7,0.5
			c2.9-0.8,5-0.8,7.4,0c2.4,0.7,6.9,1.2,9.7,0.8c1.9-0.2,4.7-0.1,7,0.5c2.3,0.6,4.6,0.7,7.1,0c2.6-0.7,5.4-0.5,7-0.3
			c1.5,0.2,2.7,0.4,4.6,0.1c0,0,0,0,0,0l-0.2-0.4h0C453.6,315,451.7,315.1,449.9,314.8z"/>
		<path fill="#003876" d="M450.1,316.5c1.2,0.2,2.9,0.4,5.2,0l-0.2-0.3l-0.1-0.1c0,0,0,0,0,0c-0.9,0.1-3.8,0.1-5.1,0
			c-1.4-0.1-3.6-0.5-6,0.2c-2.4,0.7-5.9,0.6-7.9,0c-1.9-0.6-4.4-0.9-6.7-0.6c-2.3,0.3-5.2,0.6-8.7-0.5c-3.5-1-4.8-1.2-8.5-0.2
			c-0.5,0.1-1.6,0.2-2.9,0.3c0,0,0,0,0,0c-0.5,0-1,0-1.5,0c-0.1,0-0.2,0-0.3,0c-0.5,0-1,0-1.5,0c0,0,0,0,0,0c-2,0-4,0-4.9,0.1
			c-0.4,0-0.7,0-1.1,0c0,0-0.1,0-0.1,0c-0.5,0-1-0.1-1.4-0.2c0,0-0.1,0-0.1,0c-0.5-0.1-1-0.2-1.5-0.3c0,0,0,0,0,0
			c-0.8-0.2-1.5-0.5-2.1-0.7c-1.5-0.6-5.5-0.9-8.3-0.6l-0.3,0.6c2.7-0.6,6.2-0.1,7.5,0.7c-1.7-0.4-5.8-0.2-8,0.2l-0.5,0.8
			c3.5-0.8,8.7-0.6,10.6-0.2c2.1,0.5,5.6,0.8,7.9,0.3c2.2-0.5,5.7,0.1,7.8,1h9.8c-1.5-0.9-3.3-0.4-4.7-0.3c-1.4,0.1-2.8-0.2-3.4-0.6
			c-0.7-0.4,0-0.4,1.1-0.7c3.3-0.9,5.8,0.2,7.7,1.6h7.7c2.1-1.4,3.9-0.7,5-0.3c0.3,0.1,0.9,0.2,1.6,0.3h8.1
			C446.3,316,448.9,316.3,450.1,316.5z"/>
		<path fill="#00AC8D" d="M427.1,310.1c-0.1,0-0.3,0.1-0.4,0.1C426.8,310.1,427,310.1,427.1,310.1z"/>
		<path fill="#00AC8D" d="M414.6,298.1c0.4-0.1,0.8-0.1,1.1-0.1c-0.2,0-0.4,0-0.6,0C415,298.1,414.8,298.1,414.6,298.1
			C414.7,298.1,414.7,298.1,414.6,298.1z"/>
		<path fill="#00AC8D" d="M425.9,310.3c-0.7,0.2-1.3,0.3-1.8,0.4C424.8,310.6,425.3,310.5,425.9,310.3z"/>
		<path fill="#00AC8D" d="M420.8,310.9c-0.1,0-0.2,0-0.4,0C420.6,310.9,420.7,310.9,420.8,310.9z"/>
		<path fill="#00AC8D" d="M404.7,302.6c0,0.2,0,0.6,0.1,0.9c1.2,1.9,4.8,5.8,6.4,7.4c0.8,0,1.6-0.1,2.4-0.3
			C410.4,309.3,408,306.4,404.7,302.6z"/>
		<path fill="#00AC8D" d="M421.5,311c-0.1,0-0.3,0-0.4,0C421.2,311,421.4,311,421.5,311z"/>
		<path fill="#00AC8D" d="M419.8,303.8c-0.1,0.2-0.3,0.3-0.4,0.5C419.5,304.2,419.7,304,419.8,303.8z"/>
		<path fill="#00AC8D" d="M416.1,303.2c-0.3,1.5-0.1,2.2,0.9,3.4c0.9,1.1,2.4,2.7,5.2,4.4c0.5,0,1-0.1,1.5-0.2
			C420.7,308.6,418.4,307.2,416.1,303.2z"/>
		<path fill="#00AC8D" d="M422.1,311c-0.1,0-0.2,0-0.4,0C421.8,311,422,311,422.1,311z"/>
		<path fill="#00AC8D" d="M429.7,302.3l1.2-2.8c0,0.1-0.1,0.2-0.2,0.4c-0.1,0.2-0.2,0.5-0.3,0.8c-0.1,0.2-0.2,0.5-0.3,0.7
			c0,0,0,0,0,0c-0.1,0.2-0.2,0.4-0.2,0.5C429.8,302,429.7,302.2,429.7,302.3z"/>
		<path fill="#00AC8D" d="M422.5,298.8c0.1,0,0.2,0,0.4,0C422.8,298.8,422.6,298.8,422.5,298.8z"/>
		<path fill="#00AC8D" d="M399.7,310.9c2.3-0.8,4.8-0.7,7.1-0.2c0.8,0.2,1.9,0.3,3,0.3c-6-5.3-8.4-9.7-8.6-13.9
			c-0.1,0.2-0.2,0.5-0.3,0.7c-0.6,1.4-1.2,2.6-1.9,3.6c-0.2,0.2-0.3,0.4-0.5,0.6c-0.2,0.2-0.3,0.4-0.5,0.6c-0.1,0.1-0.2,0.3-0.4,0.4
			c-0.3,0.3-0.6,0.6-0.9,0.9c-0.2,0.1-0.3,0.3-0.5,0.4c-0.3,0.2-0.6,0.4-1,0.6c-0.3,0.2-0.6,0.4-1,0.5c-1.4,0.6-2.8,0.8-3.8,1
			l-0.2,0.3l-2,3.4c0,0,0,0,0,0c1.1,0,3.1,0.2,4.5,0.7C394.4,311.3,397.4,311.7,399.7,310.9z"/>
		<path fill="#00AC8D" d="M420.1,310.8c-0.1,0-0.2,0-0.3-0.1C419.9,310.8,420,310.8,420.1,310.8z"/>
		<path fill="#00AC8D" d="M414.2,310.6c-0.1,0-0.1,0-0.2,0C414.1,310.6,414.1,310.6,414.2,310.6z"/>
		<path fill="#00AC8D" d="M418.5,310.4C418.5,310.4,418.4,310.4,418.5,310.4C418.4,310.4,418.5,310.4,418.5,310.4z"/>
		<path fill="#00AC8D" d="M410.2,311c-0.1,0-0.1,0-0.2,0C410.1,311,410.1,311,410.2,311z"/>
		<path fill="#00AC8D" d="M419.3,310.6c-0.1,0-0.1,0-0.2,0C419.2,310.6,419.3,310.6,419.3,310.6z"/>
		<path fill="#00AC8D" d="M438.1,300.6c-0.2,0-0.5,0-0.7,0C437.6,300.6,437.8,300.6,438.1,300.6z"/>
		<path fill="#00AC8D" d="M406.3,301.5c-0.3-0.5-0.6-1-0.9-1.4c-0.3-0.4-0.5-0.9-0.8-1.3c-0.4-0.6-0.7-1.2-1.1-1.8
			C404.5,298.6,405.4,300.1,406.3,301.5z"/>
		<path fill="#00AC8D" d="M422.3,299.4c-0.1,0.2-0.2,0.4-0.2,0.6C422.1,299.8,422.2,299.6,422.3,299.4z"/>
		<path fill="#00AC8D" d="M421.5,301.2C421.5,301.2,421.5,301.2,421.5,301.2c0,0.1-0.1,0.1-0.1,0.1
			C421.5,301.3,421.5,301.2,421.5,301.2z"/>
		<path fill="#00AC8D" d="M422,300.2c-0.1,0.2-0.1,0.3-0.2,0.5C421.8,300.5,421.9,300.4,422,300.2z"/>
		<path fill="#00AC8D" d="M436.6,302.8c-0.1,0.3-0.2,0.5-0.3,0.7c0.1-0.4,0.4-1,0.6-1.7c-0.1,0.2-0.1,0.4-0.2,0.6
			C436.7,302.6,436.6,302.7,436.6,302.8z"/>
		<path fill="#00AC8D" d="M413,298.3c-0.3,0.6-0.9,1.9-1.6,3.2c-0.1,0.2-0.2,0.4-0.3,0.6c-0.6,1.2-1.3,2.5-1.8,3.4
			c1.7,1.9,3.7,3.5,6.1,4.7c0,0,0,0,0,0c0.5-0.2,0.9-0.3,1.4-0.6C415.7,307.8,413.4,303.5,413,298.3z"/>
		<path fill="#00AC8D" d="M441,301.1c-0.1-0.2-0.3-0.4-0.4-0.7c-0.7,0-1.6,0.1-2.4,0.1c-0.1,0.9-0.7,2.5-1.2,3.8
			c-0.2-0.2-0.5-0.4-0.8-0.6c-0.3-0.2-0.7-0.6-1-1c-0.1-0.1-0.2-0.3-0.3-0.4c-0.1-0.2-0.2-0.4-0.4-0.6c-0.1-0.2-0.2-0.3-0.3-0.5
			c-0.3-0.6-0.6-1.1-0.8-1.6c0-0.1-0.1-0.1-0.1-0.2c0,0-0.1,0-0.2,0c-0.6,0-1.5,0-2.3,0c0.2,0,0.7,0.1,0.8,0.1
			c-0.3,1.4-1.2,3.5-1.9,4.6c-0.2-0.2-0.5-0.5-0.7-0.8c-0.1-0.1-0.3-0.4-0.5-0.6c-0.1-0.1-0.2-0.3-0.3-0.4c-0.1-0.1-0.2-0.3-0.3-0.4
			c-0.1-0.2-0.3-0.4-0.4-0.6c-0.7-1-1.5-2.1-1.9-2.7c-0.2,0-0.4,0-0.7,0c-0.5,0-1,0.1-1.5,0.1c0,0,0,0,0,0c-0.9,2.7-2,5.3-3.5,6.6
			c0.3,0.3,0.7,0.6,0.9,0.9c0.7-0.5,1.5-1.5,1.7-1.7c0.4,0.2,0.5,1-0.5,2.8c1.4,0.9,3.7,2.2,5.3,2.7c0,0,0,0,0,0
			c2.1-0.3,4.6-0.5,6.6,0.1c3.1,1,7.1,1,10,0.2c3.5-1,5.7,0.9,8.3,1l-2.8-4.8c-4.4-0.1-6.5-2.3-8.2-4.9
			C441.2,301.5,441.1,301.3,441,301.1z M431,305.7c-0.2-0.1-0.7-0.4-0.9-0.6c0.7-0.5,0.8-1.7,1.4-2.2
			C431.7,304.2,431.6,304.9,431,305.7z"/>
		<path fill="#FFE01A" d="M409.4,305.5c-0.3-0.3-0.6-0.7-0.9-1.1c-0.1-0.1-0.2-0.2-0.3-0.3c-0.2-0.2-0.4-0.5-0.5-0.7
			c-0.1-0.2-0.2-0.3-0.3-0.5c-0.2-0.3-0.4-0.5-0.6-0.8c-0.1-0.2-0.3-0.4-0.4-0.6c0,0,0,0,0,0c0,0,0,0,0,0c0,0,0,0,0,0
			c-0.9-1.4-1.8-2.9-2.8-4.5c-0.3,0-0.5,0-0.8,0.1c-0.5,0-1.1,0.1-1.5,0.1c0.2,4.2,2.6,8.6,8.6,13.9c0,0,0,0,0,0c0,0,0.1,0,0.1,0
			c0.1,0,0.1,0,0.2,0c0.3,0,0.7,0,1,0c0,0,0,0,0,0c-1.6-1.6-5.2-5.5-6.4-7.4c0-0.3-0.1-0.7-0.1-0.9c3.3,3.8,5.8,6.7,8.9,8.1
			c0,0,0,0,0,0c0.1,0,0.3-0.1,0.4-0.1c0.1,0,0.1,0,0.2,0c0.4-0.1,0.9-0.2,1.2-0.3c0,0,0,0,0,0C413,309,411.1,307.4,409.4,305.5z"/>
		<path fill="#FFE01A" d="M422.2,307.3c1.1-1.8,0.9-2.6,0.5-2.8c-0.2,0.2-1.1,1.2-1.7,1.7c-0.3-0.3-0.7-0.6-0.9-0.9
			c1.6-1.3,2.6-3.9,3.5-6.6c0,0,0,0,0,0c-0.1,0-0.4,0-0.7,0c-0.2,0-0.3,0-0.4,0c0,0.1,0,0.1-0.1,0.2c-0.1,0.2-0.1,0.3-0.2,0.5
			c-0.1,0.2-0.2,0.4-0.2,0.6c0,0.1,0,0.1-0.1,0.2c-0.1,0.2-0.1,0.3-0.2,0.5c-0.1,0.2-0.2,0.3-0.2,0.5c0,0,0,0.1-0.1,0.1
			c0,0,0,0.1,0,0.1c-0.1,0.2-0.2,0.4-0.3,0.6c-0.1,0.3-0.3,0.5-0.4,0.7c-0.1,0.1-0.2,0.3-0.3,0.4c-0.2,0.3-0.4,0.5-0.5,0.7
			c-0.1,0.2-0.3,0.3-0.4,0.5c-0.3-0.3-0.5-0.7-0.8-1.1c-0.1-0.1-0.2-0.3-0.3-0.5c-0.1-0.2-0.3-0.5-0.4-0.7c-0.1-0.2-0.2-0.4-0.3-0.6
			c-0.2-0.3-0.3-0.6-0.5-0.9c-0.3-0.6-0.6-1.2-0.9-1.7c-0.1-0.3-0.3-0.6-0.4-0.8c-0.3,0-0.7,0.1-1.1,0.1c-0.4,0-0.7,0.1-1.1,0.1
			c-0.1,0-0.1,0-0.2,0c-0.1,0-0.2,0-0.4,0c0.4,5.2,2.7,9.5,3.8,11.4c0.6,0.3,1.1,0.5,1.6,0.7c0,0,0,0,0.1,0c0.2,0.1,0.4,0.1,0.7,0.2
			c0.1,0,0.1,0,0.2,0c0.2,0,0.3,0.1,0.5,0.1c0.1,0,0.2,0,0.3,0.1c0.1,0,0.2,0,0.4,0.1c0.1,0,0.3,0,0.4,0c0.1,0,0.2,0,0.3,0
			c0.1,0,0.3,0,0.4,0c0.1,0,0.2,0,0.2,0c0.1,0,0.2,0,0.4,0c0.1,0,0.1,0,0.2,0c0,0,0,0,0,0c-2.8-1.6-4.3-3.3-5.2-4.4
			c-1-1.2-1.3-1.9-0.9-3.4c2.3,3.9,4.7,5.4,7.7,7.6c0,0,0,0,0,0c0.1,0,0.2,0,0.4-0.1c0.5-0.1,1.1-0.3,1.8-0.4
			c0.3-0.1,0.5-0.1,0.8-0.2c0.1,0,0.3-0.1,0.4-0.1c0.1,0,0.2,0,0.4-0.1c0,0,0,0,0,0C425.9,309.5,423.6,308.2,422.2,307.3z"/>
		<path fill="#FFE01A" d="M429.7,302.3l0,0.1l-0.1,0.3l-0.3,0.7c0.2,0.2,0.5,0.6,0.7,0.8c0.7-1.1,1.6-3.2,1.9-4.6
			c-0.2,0-0.6,0-0.8-0.1L429.7,302.3z"/>
		<path fill="#FFE01A" d="M430.1,305.1c0.3,0.1,0.7,0.5,0.9,0.6c0.5-0.8,0.7-1.5,0.5-2.7C430.9,303.5,430.8,304.6,430.1,305.1z"/>
		<path fill="#FFE01A" d="M436.9,301.9c-0.2,0.7-0.5,1.3-0.6,1.7c0,0.1-0.1,0.2-0.1,0.3c0.3,0.2,0.6,0.4,0.8,0.6
			c0.5-1.3,1-3,1.2-3.8c0,0,0,0,0,0c-0.1,0-0.1,0-0.1,0c-0.2,0-0.5,0-0.7,0c0,0.1-0.1,0.2-0.1,0.2c-0.1,0.2-0.1,0.3-0.2,0.5
			c-0.1,0.2-0.1,0.3-0.2,0.5C437,301.8,436.9,301.8,436.9,301.9z"/>
	</g>

		<path fill="none" stroke="#878787" stroke-width="0.25" stroke-linecap="round" stroke-linejoin="round" stroke-miterlimit="10" d="
		M397.5,417.9l-0.2-0.8l-0.3-0.5l-1-0.2l-1.3-0.2l-1.1-0.4l-1-0.2l-1,0.3l-1.2-1.1l-0.3-1.3l0-1.5l-0.2-1.6l-0.5-0.8l-0.9-0.7
		l-1.1-0.5l-0.5-0.3l-0.6-0.6l-1,0.5l-3.7,0l-1.8,0.7l-1.1,1.5l-1.4,3.4l-1,1.1l3.3,2l1.4,0.4l1.7,0.1l2.7-0.6l1.5-0.1l2.1,1.2
		l1.6,4.8l1.9,1.1l0.8,0.1l0.9,0.4l0.7,0.1l0.3-0.2l1.1-0.8l0.4-0.2l1.2-0.4l0.9-0.9l0.3-1.2l-0.7-1.3L397.5,417.9z M594.9,113.7
		l-1.2,0.2l-1.1,0.5l-1.1,0.5l-1.9,0l-1.9,0l-0.2,0l-0.2,0l-1.1-0.4l-0.6-0.4l0-0.2l0-0.2l1-0.5l-3.8-0.4l-1.5,0.1l-1.3,0.8
		l-0.4-1.1l-0.5-0.3l-0.5-0.3l-0.6-0.2l-0.6-0.2l-1.1-0.8l-0.8,1.5l-1.3,1.4l-1.7,1l-2,0.2l-0.8-0.4l-1.1-1.6l-0.5-0.4l-1.1-0.2
		l-0.9,0.1l-0.3,0.4v0l0.6,0.8l-0.5,0.6l-0.1,0.5l0,1.3l-0.8-0.8l-0.5,0.4l-0.1,1l0.3,1.2l-0.5-0.2l-1.3-0.4l0.2,0.3l0.2,0.6
		l0.2,0.3l-1.2,0.4l-2.2,1.7l-2.1,0.8l-0.4,0.9l-0.2,1.2l-0.4,1.1h-0.6l-0.7-0.9l-1.6-0.5l-1.9-0.1l-1.7,0.2l-1.6,0.7l-0.2,0.5
		l-0.2,0.5v0l0.8,2.5h-0.6l-0.3-0.7l-0.6-0.4l-0.4-0.1l-0.4-0.1l-0.5,0l-0.5,0v0l0.2,1.3l-1.8,0.7l-4.8,0.3l0.6,1l0.4,0.4l0.7,0.4
		l0,0l-0.8,0l-0.8,0l-1.7,0.5l-0.8,0.4l-0.8,0.4l-1,0.9l-0.5-0.6l-0.3-0.2l-0.3-0.1l-0.6-0.2l0.4,0.8l0.1,0.4l-1.1-0.3l-0.7-0.7
		l-0.7-0.7l-0.5-0.3l-0.5-0.3l-0.2,1l-0.2,1l0,0.8l0.4,0.7l-8.5,0.4l-0.7-0.1l-0.7-0.1l-0.2-0.7l-0.4-0.2l-1.5,0l-0.9-0.1l-0.3-0.3
		l-0.2-0.4l-2-1.2l-0.6,0l-0.9,0.8l1,2l0.6,0.8l0.8,0.7v0.6l-0.6,0.4l-0.2,0l-0.2,0l-0.4-0.2l-0.7-0.1l-0.8,0.2l-0.4,0.4l-0.3,0.4
		l-0.5,0.3l-2.1,0.6l-1.3,0.1l-1-0.4l-2-2.1l-0.3-0.3l-0.3-0.3l-0.8-0.4l-1.2-0.4l-1.1,0.1l-0.5,1v0l0.4,4l-0.4,1.9l-1.8,0.9l-1-0.1
		l-2.1-0.5l-1.3-0.1l-0.7-0.5l-0.6-2.2l-0.8-0.8l-1.1,1.6l-0.6,1.1l-0.6,1.1l-1.6,1.9l-3.2,1.1l-2.2,1.2l-1,0.3l-1.3-0.4l-0.9-0.8
		l-0.9-0.5l-1.3,0.4l0.1-0.8l0.1-0.8l0.3-0.6l-6.3-0.2l-1.9-0.4l-3.3-1.4l-1.7-0.2l-1.6,0.9l-1.3-3l-0.9-1.4l-1.8-1.2v0l0.1-1.1v0
		l-0.2-1l-1.7-0.2l0,0l0-0.2l0.7-0.8l0.3-0.2l-1.3-2l-1.9-1.4l-1.1-0.3l-1.1-0.3l-2.3,0.1l-2.6,0.5l-2.6,0.5l-0.7,0.4l-0.7,0.4
		l-4,3.7l-1.5,1.1l-0.7,0.5l-0.8,0.5l-1.2,1.1l-0.8,1.3l-0.5,3.2l-0.3,0.5l-0.5,0.2l-1.4,0.4v0l0.5,0.8l2.4,1.7v0l-1.9,1.7l-0.5,0.7
		l2.2,0v0l-0.1,0.2l-0.1,0.1l-0.5,1.2l-3.1,3l-1.8,0.8l-1.5-1.1l-1.4-1.5l-1.6-0.4l-0.7,1.2l-0.4,2.4l-0.2,4.4l-0.3,0.6l-2,2.1
		l-0.1,0.5l0.2,1.3l-0.1,0.5l-2.4,1.8l0,0l1.4,0.9l1.5,1.4l1.1,1.7l0.1,2l-1,1.4l-1.8,1l-2.2,0.7l-2.1,0.4h-3.3l-0.9,0.2l-2,1
		l-0.8,0.2l-0.5,0.5l-0.4,0.6l-0.6,0.7l-0.2,0.6l-0.1,0.1l-0.1,0.1l-0.2,0l-0.2,0l-0.9-0.1l-0.2,0l-0.2,0l-0.4,0.4l-0.4,0.4
		l-0.5,0.6l-0.5,0.6l-0.8,1.4l-0.6,2.2l-0.7,1.6l-1,1.7l-1,1.2l-1.1,0.9l-1.1,0.9l-1.5,0.8l-3.1,0.8l-0.5,1.1l-0.2,1.4l-0.8,1.2
		l-1.6,0.5l-1.4,0.2l-0.3,0.1l-0.5,0.1l-1.9,0.6l-0.8,1.2l-0.8,0.8l-1.5,0.4l-1.5,0.4l0,0l0.3,0.9l-0.3,0.1l-0.2,0l-0.1,0.1l0,0
		l0,0.4h-0.5l-0.7-0.2l-1.8,1.5l-1.1,0.5l-1.5-0.1l-0.9-0.2l-0.4,0.5l-0.1,1.9l-0.9,2.6l-0.4,1.7l0.3,0.7l1.3,0.4l0.5,1v0l-0.2,1.3
		l-0.7,1.4l-0.8,0.7l-0.2-0.1l-1.1-1.3l-1.8-0.1l-2,0.1l-1.9-0.6l-1.4-1.6l-0.8-1.8l-1-1.5l-1.9-0.8l-1.2,0.1l-0.8,0.3l-0.8,0.2
		l-1.2-0.4l-0.6-0.5l-1.9-2.4L349,200l-0.2-2.3l0.9-1.9l0-1v0l-6.6,1l-1.2,0.6l-1,0.9l-0.5,0.7l-0.3,0.8l-0.6,1.1l-1,1l-1,0.5
		l-1,0.4l-0.9,0.6l-3,4.5l-2.8,3l-2.8,3l-1.4,2.1l-0.7,2.6l-0.3,0.7l-0.2,0.7l-1,1.1l-1.3,0.6l-1.6,0.4l-4.5,0.3l-0.6-0.1l-0.8-0.3
		l-0.5-0.4l-1.4-1.4l-1.3,0.2l-1.2,0.6l-1.3,0.4l-1.5-0.4l-2.9-1.5l-3.4,0.2l-7,1.3l-3.8-0.5l-1.8,0.2l-2,1l-1,0.7l-0.4,0.3
		l-0.1,0.5l-0.2,1.2l-0.3,6.1l0.2,0.8l0.3,0.4l0.4,0.3l0.1,0.1l0.6,0.5l0.3,0.6l0.1,1.4v0l-0.3,1.4l-0.3,1.4v0l0,1.5l2.8,10.3
		l-0.1,1.3l-1.1,2.4l-0.1,1.2l0.3,0.9l0.5,0.3l0.6,0.1l0.6,0.5l0.3,0.6l0.3,0.5l0.1,0.3l0.1,0.3l0.5,2.5v0l-0.2,1.3l-0.7,1.1
		l-1.2,1.1l-0.6,0.4l-0.6,0.4l-0.8,0.2l-0.8-0.2l-5-2.4l-1.5-0.1l-1.4,0.4l-1.1,0.8l-4.1,3.5l-0.7,0.8l-0.6,1.2l-0.6,2.4l-0.1,0.2v0
		l0.2,0.5l0.7,1.4l0.2,0.2l-0.7,4.5l0.2,0.5l0.2,0.1l0.2,0.1l0.3,0.3l-0.2,0.8l-0.2,0.2l-0.2,0.2l-0.6,0.3l-0.6,0.3l-0.5,0.4l-2,3.1
		l-1,1l-2.2,1.4l-1.8,0.9l-0.5,1.4l-1-0.1l-2-1.2l-1.3-0.1l-19.7,1.2l-0.6,0.4l-4.2,2l-0.9,1.4l1,0.8l2.3,0.2l4.5-0.1v0.6l-8.9,0.5
		l-3.7-0.8l-2.8-2.8l-0.1-0.5l0.2-1.3l-0.1-0.6l-0.3-0.2l-1.1-0.7l-0.4-0.3l-1.6-2.1L221,284l-2.2-1.8l-0.4-0.3l-0.4-0.4l-1-0.3
		l-1.2-0.2l-1,0l0.3-0.5l0.2-1.9h-0.5l-0.4,3.3l-1.8,1.9l-2.5,1.5l-2.4,2.1l-1.6,3l0,2.5l1.3,2.1l2.1,1.8l10.1,5.9l1.9,1.8l1.3,1
		l0.9,0.1l0-1l-1.2-1.1l-2.3-1.5v-0.5l1.7,0.4l2,1l1.4,1.2l0.2,0.9v0.5l0.8,0.5l0.4,0.1v0.5l-1-0.5l-0.4-0.2l-0.4-0.4l1.1,2.3
		l9.5,10.8l0.3-0.4l0.7-0.8l0.2-0.5l0.5,1.5l0.4,0.9l0.7,0.7l5.4,4.1l1.1,0.4l1.7,1.6l2.3,2.8l1.4,1.2l-0.9-3.2h0.5l1.9,3.6l0.7,0.6
		l1.2,0.3l1.1,0.9l0.2,0.2l2,2.1l-1.9-0.4l-2-0.8l-1.7-1.1l-1-1.3l0.2,2l6,2.6l2.6,2.8l4.9,2.7l1.1,1.3l17.7,10.6l2.1,1.8l0.9,1.3
		l3,8.1l3.3,5.5l1.6,2l0.4,0.4l2.1,1.6l1,1l0.4,1.2l0.3,1.3l1.5,2.7l1.3,1.9l2.3,2.3l0.9,0.5l0.9,0.8l2.3,5.1l1.1,1.4l0.5,0.6
		l10.3,7.8l1,2.7l1.1,1.3l1.3,1l7.9,3.4l3.2,3.1l2.7,1.2l0.1,0.2l0.7,2.3l0.3,0.7l1.2,1.1l3.8,2.1l2.9,3.1l2.3,1.2l2.9,3.5l1.3,1.2
		l3,0.8l0.3,0.4l1.3,0.9l0.4,0.2l0.8,0.5l9.2,10.2l1.6,2.3l0.8,3.1l0.7,1.5l1.2,0.7l1.7,0.3l4.3,1.8l2.1-3.3l1.6-3.4l2.4-3.2
		l2.9-1.2l2.5,1.3l1.2,1.1l1.2,1.1l1.4,0.8l1.4,0.8l13.8,5l9.8,3.6l10.9,4l15.4,5.6l2,0.2l2-0.7l15.3-10l2.7-0.6l1.5,0.7l3.3,2.3
		l1.5,0.2l1.9-0.1l2,0.6l4.3,1.9l0.5,0.1l0.4,0.2l0.4,0.2l0.4,0.3l2,2.4l0.7,0.6l0.4,0.2l0.4,0.2l0.9,0.4l0.9,0.1l0.8-0.3l4.6-3
		l0.4-0.2l0.4-0.2l0.8,0.4l0.2,0.7l0,0.9l0.2,1.1l0.4,0.6l1.1,1.4l0.2,0.6l0.9,0.8l4,1.5l0.9,0.6l0.8,0.8l1.6,0.8l0.7,0.6l0.7,0.6
		l0.3,2.1l-1.2,0.6l-0.4,0.2l-0.4,0.7l0.2,0.5l0.4,0.4l0.2,0.3l1.9,1.5l0.5,0.6l1-0.7l1.3,0l1.4,0.2l1-0.2l1.6,1.5l1,0.4l1-0.7h0.6
		l1,1l2.1-1.4l1.5,0.3l0.5-0.5l0.5-0.5l1.2-0.2l1,0.6l0.4,1.5l5.2,4.1l0.6,0.3l0.8,0.1l0.4-0.1l0.4-0.1l1.2-0.8l0.6-0.2l2.4,0.5
		l0.3-0.2l1.8-2l5.7-2.1l6.1-1.4l3-1.5l0.2-2.3v0l-0.8-3.1l-0.1-3.7l0-0.4l-0.1-0.4l0.6-0.4l0.5,0.1l0.3,0l0.3,0l0.3,0l0.3,0
		l-1.4-0.7l-1.8-0.4l-1.3,0.2l0.3,0.9l-1.5,0.3l-0.7-1.8l-0.6-1.7l-1.6-1l-0.7-0.7l-2.1-3.2l-0.8-2.1l-2.6-3.9l-1.9-4.5l-2.6-11.3
		l0-8.7l0.4-1.5l0.8-1.3l2.7-3.4h0.5l1.8,0.3l1.2-3l0.8-4l0.9-2.7l0.7-0.6l0.7-0.3l0.8-0.1l1,0l0.8-0.3l0.9-1.3l0.7-0.3l0.1-0.2
		l1.2-0.4l1.2-0.2l0.2,0.2l0.7-0.6l0.3-0.5l0.1-0.7l0-1.1l-0.2-3l-4-15.7l-0.8-0.7l-1.4,0.1l-0.8,0.3l-0.5,0.9l-0.6,1.7l0.1,0.7
		l0.4,0.6l-0.1,0.4l-1.3,0.1l-0.9-0.1l-0.8-0.3l-0.6-0.5l-0.7-1.7l-1.2-1.3l-1.4-1.2l-1.1-0.8l0.4-0.7l0.7-0.8l0.8-0.6l0.7-0.3
		l0.5-0.3l1.6-2l0.3-0.2l0.4-0.2l0.5-0.2l0.5-0.5l0.1-0.6l-0.2-0.5l-0.3-0.5l-0.1-0.5l0.2-0.6l0.8-1.6l0.2-0.8l-0.1-1.1l-0.2-1.1
		l-0.4-0.9l-0.5-0.7l-2.1-0.9l-1.1-0.6l0.5-0.3l3.6,1.1l1.5,0l0.5-1.7l0.1-1.4l1.3-1.9l0.3-1.5l-0.3-1.1l-0.6-0.9l-1.5-1.5h-0.6
		l-1.1,1.2l-1.4-0.8l-0.1-1.3l2.6-0.3l1.6,0.8l1.5,1.4l1.1,1.7l0.4,1.5l-0.7,2l-1.3,0.9l-0.7,0.9l0.9,2.2l2.2,2.6l0.6,1.5l-0.4,1.8
		l0.6-0.2l0.6-0.3l-0.7-1.9l-0.6-11l1.9-10.2l4-7.9l-0.4-0.7l-1.7-0.2l-0.8,0.5l-0.5,1.1l-1.4,4.4l-0.4,0.8l-0.2-0.5l0.1-1l0.4-1.7
		l0.1-0.9l-0.5-1.3l-2.7,0.6l-1.6-0.8l-0.6-1.6l0.3-1.7l0.6-1.7l0.3-1.8l-0.6-3.9l-0.7-0.8l-0.6-0.2l-0.7,0l-1-0.2l-0.7,0l-0.3,0.2
		l-0.1-0.1l0-4.5l0.6-1.1l1.6-0.5l3.7-0.4l2.8-1.1l4.6-3.8l2.7-1.5l-0.9-1.4l-0.3-0.4l0.4-0.7l0.2-0.6l0-1.5l-0.1-0.9l-0.3-0.3
		l-0.4-0.2l-0.4-0.6l-0.1-0.6l-0.2-1.5l0-0.3l-0.2-0.2l-1.9-1l-0.7-1.5l-0.1-1.8l0.8-1.6l1.8-1l2.2-0.2l2.3,0.5l1.7,1.4l0.3,2.3
		l-0.3,0.6l-0.4,0.4l-0.4,0.3l-0.2,0.2l-0.1,4.8l-0.3,1.2l-0.7,0.8v0.6l1.1,2.6l-0.7,3.9l-2.1,2.7l-3.1-1h-0.5l-0.2,0.3l-0.1,0.1
		l-0.1,0l-0.3,0.2l0.4,2.2l-0.2,5.6l1.9,1.7l0.6,1.2l0.3,1.4l-0.1,1l-0.5,0.6l-1.8,1.2l-0.7,0.6l1.7,0.9l2-0.3l2.2-0.8l2.1-0.4
		l2.8-0.1l1.8-0.6l0.9-1.4l0.2-2.6l-0.6-2.2l-2.4-3.3l-0.8-2.7l-1.3-2.5l-0.3-0.8v-5l2.9-22.8l-1.9-11.2l-2.9-17.1l-0.5-1.1l0.6-0.5
		l-0.6-1.2l-0.2-2.1l0.9-11.1l1.5-5.7l1.8-4.3l0-1.7l0.4-2.1l-0.1-4.2l2-9.8l3.3-10.9l2.1-8l1.2-2.7l1.7-2.4l4.1-2.8l0.6-1.1
		l0.4-1.4l3.1-3.7l7.2-11.2l2.3-5.4l0.4-3l-0.5-3.4l-4.2-11.8l-0.7-4.1l-0.8-1.6l-0.2-0.5l-3.4-15.1l-0.8-0.7l-0.6,0.6l0.1,2
		l-0.7-1.2l-0.9-0.8l-1-0.3l-1,0.5l0.7,0.3l1.6,1l0.6,0.5l-1.3,1.6l-1.3-0.4l-1.2-1.2l-1.1-0.7l-0.6-0.8l-0.9-3.5l-1.2-0.9l-0.3,0.4
		l-0.8,0.9l0.9-2l3.8-4.8l1.7-1.5l1-0.6l1.4-0.5l1.2,0.3l0.5,1.7l0.2,1.7l0.9,2.2l0.1,1.6l-0.7-0.8l-0.9-0.3l-1,0.1l-1,0.5v0.5
		l0.8,0.5l0.3-0.1l0.7-0.4l0,0.6l-0.1,0.4l-0.2,0.4l-0.3,0.5v-0.6l-0.7,0.8l-0.2,0.4l-0.2,0.5l3-1.2l1-0.8l0.7-1.1l0.2-0.8l0.2-1.8
		l0.2-0.8l0.4-0.6l1.1-1l0.2-0.4l0.3-1.2l0.8-1.5l1.1-1.2l1.1-0.5l0.6-1l0.8-1.8l1-1l1.3,1.5l0.8-0.8l1.6-0.7l0.6-0.9l-1.2,0.2
		L594.9,113.7z M343.6,347.3l-0.9,6.4l-0.6,1.7l-0.8,1.2l-2.7,1l-13.1,0.4l-1.3-0.3l-0.3,0l-0.2,0l-0.3-0.4l-0.1-0.5l0-0.6l0.2-0.5
		l0.2-0.2l1.2-0.4l0.9-1.1l0.5-1.5l0-1.8l-1.3-2.9l-2.5-1l-2.8,0.5l-2.4,1.6l-1,1.2l-0.8,0.8l-1,0l-2.8-1.9l-7.7-3.1l-2.5-1.4
		l-1.6-2.1l-0.3-3.5l0.1-1.7l0.1-0.6l0.4-0.6l0.6-0.3l0.6,0.1l0.4,0.4l0.2,0.7l0.7,0.8l1.6,0.6l1.9,0.3l1.7-0.2l2-1.3l1.3-2l1.5-1.8
		l2.6-0.8l1.3-0.2l2-0.8l1.5-0.2l1.6-0.5l1.1-1l1-0.7l1.4,0.4l0.5-0.4l0.6-0.1l0.6,0.1l0.6,0.4l0.6,4.6l-0.3,0.7l0.3,0.6l2.5,2.4
		l0.8,0.6l0.9,1.3l1.6,6.4l0.2,2.3l1.9-1.8l2.3-2.5l2.4-1.6l2.3,1.2l0.6,1.7L343.6,347.3z M457.8,450.7l-0.8,0.8l-3.7,2.7l-2.8,0.1
		l-0.5,0.2l-0.5,0.3l-2.2,0.9l-0.8,0.2l-1.8-0.3l-1.3-1.6l-1.9-0.4l-1.4-0.1l-15.5-3.5l-1.4,0l-1.4,0.3l-1.4,0.1l-2-0.9l-1-0.1
		l-1.9,0.1l-0.7-0.4l-1.7-1.8l-0.9-0.7l-3.2-1.1l-3-0.7l-3.6-0.3l-7.6-2.7l-1.2-0.9l-1-1l-1-0.8l-2.4-1.4l-1.3-0.6l-1.5-0.4
		l-2.8-0.3L373,426.1l-1.6-2.7l-2.4-8.8l-0.6-1.4l-2.7-4.5l-1.4-1.2v1.2l-0.7-0.6l-0.4-0.7l-0.2-0.8l0.1-0.9l0.4,0.2l0.8,0.2
		l0.5,0.2l-1.1-5.1l-0.7-1.4l0.4-0.4l0.1-0.4l-0.2-0.4l-0.3-0.5h-0.6l-0.1,1.1l0.1,0.9l0.5,1.6l-1.2-0.9l-2.9-3l-0.6-1.1l0.3-0.8
		l0.6-0.9l0.7-0.7l1.4-0.7l0-1l-0.6-1.6l0-4l-0.6-2.1l-1.5-0.9l-1-0.8l0.8-1.5l1.2-0.6l0.5,1.8h0.6l-0.9-2.6l-0.8-0.8l-1.6-0.3
		l-0.6-0.7l-0.1-1.6l0.2-1.8l0.2-1.2l1-2.7l2.7-5.4l1.6-2l2.3,0.7l2.3-0.6l1.9-1.2l1.7-0.9l0,0.2l1.3,1l5.7,3.1l2,0.7l0.7,0.5l0.3,1
		l0.4,0.5l0.9,0.1l1-0.1l0.7-0.3v0.6h0.5l2-1.4l2.8,2.1l3.9,4.6l0.6,0.5l1.7,2.5l1,2.3l4.1,4.1l1.9-1.8l3.7,0.7l3.8,1.9l2.3,1.6
		l0.7,1.1l0.6,1.4l0.8,1.2l1.3,0.5l1,0.2l0.7,0.4l1.2,1.4l0.7,0.4l1.9,0.3l0.7,0.2l3.4,5.1l3.2,3.8l0.2,0.3l0.2,0.6l0.2,0.3l0.3,0.2
		l0.7,0.2l0.2,0.1l1.5,1.4l0.6,0.8l0.7,2.3l1,1l2.2,1.6l3.4,4.2l2,1.2l2.9,4.1l0.7,0.4l0.6,0.1l0.5,0.1l0.6,0.6l0.3,0.7l0.2,0.9
		l0.1,1.7l0.4,1.8l1,1l1.2,0.9l0.9,1.4l-0.2,0.3l-0.5,0.3l-0.3,0.4l0.5,0.8l1-0.2l0.8,0l0.8,0.5l2.4,2.4l0.8,1.2l0.5,2v6.8l0.3,1.8
		l1.1,2.8L457.8,450.7z M581.3,168.7l2.1,0.7l0.9,0.5l0.5,0.6h0.7l-0.4-0.6l-1.2-1.1l-0.2-0.4l0.2-1.1l0.6-0.1l0.7,0.5l1.4,1.6
		l0.8,1.2l0.4,1.2l-0.5,1.1v0.5l1,1.2l0.6,1.6l0.1,1.7l-0.6,1.4l-1.3,1l-0.8-0.6l-0.8-1.2l-1.2-1l-0.4,0.4l-0.4,0l-1-0.5l-0.4-1.1
		l-0.1-0.6l0-0.7l0.2-0.7l0.4-0.5l0.4-0.3l0.2-0.3l0-1.5l-0.4-1l-1.3-1.6V168.7z M369.4,392.8l-0.6-0.7l-2,0.6l-1,0.1l-0.8-0.7
		l-2.4,1.8l-0.2,0.8l0.1,0.6l0.5,0.6l0.8,0.9l-0.5,0.1l-1.2,0.5l8.3-0.3l-0.4-2.8L369.4,392.8z M633.7,164l-0.8-0.7l-1.1,0l-1.4,0.7
		l-0.6,0.8l-0.3,1l-0.6,1l-1.4,0.8l0,0.3l-0.1,0.2l-0.2,0.1l4.6,0.4l1.6-0.7l0.6-2.4L633.7,164z M606.3,356.4l-0.8,1.5l0.2,1.9
		l2.5-2.7l0.3-0.6l-1-0.8L606.3,356.4z M627.2,168.2L627.2,168.2l-0.3,0L627.2,168.2z"/>
</g>

</svg>
