<?xml version="1.0" encoding="utf-8"?>

<svg version="1.2" baseProfile="tiny" xmlns="http://www.w3.org/2000/svg" xmlns:xlink="http://www.w3.org/1999/xlink" x="0px"
	 y="0px" viewBox="163.4 155.9 500 250.2" xml:space="preserve">
<g id="Background">
	<polygon fill="#F4F4F4" stroke="#E2E2E2" stroke-width="0.25" stroke-linecap="round" points="759.3,213.7 759.3,213.8
		759.4,213.6 759.4,213.6 759.3,213.6 759.3,213.6 759.3,213.7 759.3,213.6 759.2,213.7 759.2,213.7 759.3,213.7 	"/>
	<polygon fill="#F4F4F4" stroke="#E2E2E2" stroke-width="0.25" stroke-linecap="round" points="759.1,213.9 759,213.8 759,213.9
		759.1,214 	"/>
	<polygon fill="#F4F4F4" stroke="#E2E2E2" stroke-width="0.25" stroke-linecap="round" points="758.8,215.1 758.8,215.1
		758.7,215.2 758.8,215.1 	"/>
	<polygon fill="#F4F4F4" stroke="#E2E2E2" stroke-width="0.25" stroke-linecap="round" points="760.5,215.8 760.4,215.8
		760.3,215.8 760.1,215.8 760.2,215.9 	"/>
	<polygon fill="#F4F4F4" stroke="#E2E2E2" stroke-width="0.25" stroke-linecap="round" points="760.1,216.7 760.1,216.7 760,216.7
		760.1,216.8 	"/>
	<polygon fill="#F4F4F4" stroke="#E2E2E2" stroke-width="0.25" stroke-linecap="round" points="759.9,217.3 759.9,217.4
		759.9,217.3 	"/>
	<polygon fill="#F4F4F4" stroke="#E2E2E2" stroke-width="0.25" stroke-linecap="round" points="760.2,219.3 760.3,219.4
		760.4,219.5 760.4,219.5 760.4,219.5 760.4,219.5 760.4,219.5 760.4,219.3 	"/>
	<polygon fill="#F4F4F4" stroke="#E2E2E2" stroke-width="0.25" stroke-linecap="round" points="757.6,209.6 757.7,209.6
		757.7,209.5 757.6,209.4 757.6,209.4 757.5,209.5 757.4,209.6 757.5,209.7 	"/>
	<polygon fill="#F4F4F4" stroke="#E2E2E2" stroke-width="0.25" stroke-linecap="round" points="759.9,213.2 760,213.3 760.1,213.3
		760.2,213.3 760.2,213.2 760.1,213.2 760,213.2 759.9,213.2 759.8,213.2 759.8,213.2 759.8,213.2 	"/>
	<polygon fill="#F4F4F4" stroke="#E2E2E2" stroke-width="0.25" stroke-linecap="round" points="760.4,213.6 760.4,213.7
		760.4,213.8 760.5,213.9 760.6,214 760.6,213.9 760.6,213.9 760.6,213.8 760.6,213.6 760.5,213.4 760.3,213.4 760.2,213.4
		760.4,213.5 	"/>
	<polygon fill="#F4F4F4" stroke="#E2E2E2" stroke-width="0.25" stroke-linecap="round" points="759.9,213.7 760.1,213.7
		760.2,213.7 760.2,213.7 760.1,213.6 760,213.6 759.9,213.6 759.8,213.6 759.7,213.7 759.7,213.7 	"/>
	<polygon fill="#F4F4F4" stroke="#E2E2E2" stroke-width="0.25" stroke-linecap="round" points="759.1,214.6 759.2,214.6
		759.3,214.6 759.3,214.6 759.4,214.6 759.5,214.6 759.4,214.5 759.3,214.5 759.1,214.5 759,214.6 	"/>
	<polygon fill="#F4F4F4" stroke="#E2E2E2" stroke-width="0.25" stroke-linecap="round" points="759.4,216.3 759.4,216.4
		759.4,216.4 759.5,216.3 759.5,216.3 759.4,216.3 	"/>
	<polygon fill="#F4F4F4" stroke="#E2E2E2" stroke-width="0.25" stroke-linecap="round" points="760.3,218 760.4,218 760.4,218
		760.4,217.9 760.4,217.8 760.1,217.8 760.1,217.9 760.1,217.9 760.3,218 	"/>
	<polygon fill="#F4F4F4" stroke="#E2E2E2" stroke-width="0.25" stroke-linecap="round" points="761.1,237.3 761.1,237.3 761,237.5
		761.3,237.3 761.2,237.3 	"/>
	<polygon fill="#F4F4F4" stroke="#E2E2E2" stroke-width="0.25" stroke-linecap="round" points="761.3,237.4 761.4,237.3
		761.3,237.3 	"/>
	<polygon fill="#F4F4F4" stroke="#E2E2E2" stroke-width="0.25" stroke-linecap="round" points="760.2,240 760.3,240.1 760.5,240.4
		761.3,241.2 761.6,241.4 761.5,241.1 760.8,240.4 760.4,239.7 760.2,239.6 759.9,239.4 760,239.7 	"/>
	<polygon fill="#F4F4F4" stroke="#E2E2E2" stroke-width="0.25" stroke-linecap="round" points="767.2,252 767.4,252.4 767.5,252
		767.5,251.6 767.4,251.2 767.2,250.8 767.2,250.6 767.1,250.7 767,250.8 767.2,251.1 	"/>
	<polygon fill="#F4F4F4" stroke="#E2E2E2" stroke-width="0.25" stroke-linecap="round" points="767.7,253.4 767.9,253.8
		768.1,254.2 768,253.8 767.8,253.1 767.7,252.7 767.6,252.6 767.6,252.6 767.5,252.6 	"/>
	<polygon fill="#F4F4F4" stroke="#E2E2E2" stroke-width="0.25" stroke-linecap="round" points="753.5,208.9 753.7,208.8
		753.6,208.8 753.5,208.7 753.4,208.6 753.3,208.5 753.1,208.6 753.1,208.9 753.3,209 	"/>
	<polygon fill="#F4F4F4" stroke="#E2E2E2" stroke-width="0.25" stroke-linecap="round" points="759.7,215.4 759.7,215.5
		759.6,215.6 759.6,215.6 759.7,215.6 759.9,215.6 760,215.5 760,215.3 759.9,215.2 759.8,215.1 759.7,215.1 759.6,215.2
		759.6,215.3 	"/>
	<polygon fill="#F4F4F4" stroke="#E2E2E2" stroke-width="0.25" stroke-linecap="round" points="759.9,216 759.8,216.1 759.8,216.1
		759.8,216.2 759.8,216.2 759.7,216.2 759.6,216.2 759.6,216.3 759.9,216.3 759.9,216.4 760,216.5 760,216.5 760.1,216.4
		760.2,216.3 760.2,216.1 760.1,216 760,216.1 	"/>
	<polygon fill="#F4F4F4" stroke="#E2E2E2" stroke-width="0.25" stroke-linecap="round" points="769.5,253.7 769.8,254.2
		769.7,254.7 769.9,255 770.2,255.9 770.4,256.3 770.7,256.4 770.7,256 770.6,255.1 770.4,254.9 770.1,254.5 769.9,254.1
		770.1,253.4 769.9,253 769.6,252.7 769.2,252.6 769,252.6 769.2,253.1 	"/>
	<polygon fill="#F4F4F4" stroke="#E2E2E2" stroke-width="0.25" stroke-linecap="round" points="768.7,256.4 768.8,256.7 769,256.9
		769.2,257 770.3,257.6 770.6,257.7 770.9,257.6 771.3,257.2 771.7,257.2 770.9,256.8 770.8,257 770.4,257 769.8,256.9 769.5,256.8
		769.2,256.6 769,256.3 768.8,255.9 768.8,255.7 768.7,255.6 768.6,255.4 768.5,255.3 768.5,255.9 	"/>
</g>
<g id="Nepal">
	<g>
		<polygon fill="#003893" points="572.9,401.6 574,401.8 574,401.8 574.7,401.3 575.1,400.6 575.5,400 575.5,400 576.4,399.9
			578.6,400.7 579.1,400.8 580.7,400.4 580.7,400.3 581.9,399.7 569.4,399.7 		"/>
		<polygon fill="#003893" points="172.7,235.5 171.6,235.4 169.7,236.2 169.7,236.2 168.5,238.5 168,241.3 168.2,243.3 168.2,243.3
			167.7,244.4 166.9,244.9 166.8,245 165.8,245.4 165.8,245.4 164.8,246.1 164.1,247.1 163.7,248.1 163.5,249.2 163.4,250.5
			163.8,253 164.9,253.8 166.6,254.1 168.6,255.1 170.6,257.5 171.5,258.1 172.7,258.5 173.6,258.6 173.6,235.5 		"/>
		<polygon fill="#003893" points="596.7,400.7 598.2,402.4 599.9,403 603.2,402.7 605.1,402.2 605.7,402.8 606.1,403.7 606.7,404.5
			607.5,405 610.1,406 610.9,406.1 610.9,406.1 611.7,405.6 612.8,403.3 613.5,402.5 615.2,401.5 615.2,401.5 617.2,401
			619.3,400.9 621.1,401.2 625.5,403.5 627.7,404 629.9,403.1 630,403.1 631.5,402.1 632.1,401.6 632.2,401.6 633.5,401.2
			634.5,401.7 635.3,402.3 636.3,402.5 637.2,402.1 637.2,402 637.7,401.1 638.1,399.8 638.1,399.8 638.5,399.7 596.2,399.7 		"/>
		<polygon fill="#003893" points="663.2,313.9 662.7,313.5 661.8,313.3 660.3,312.9 660.3,312.9 658.9,312.7 656.3,311.4
			654.9,310.9 654.2,311 652.6,311.6 651.7,311.7 651,311.6 649.7,311 649,310.8 644.2,310.6 643,310 642.4,310.1 641.6,311.1
			640.7,312.8 640.3,313.3 660.1,325.7 661.3,321.4 662.2,319.8 662.9,318.3 662.6,315.7 663.3,314.6 		"/>
		<polygon fill="#003893" points="639.9,399.9 641,400.4 642.1,400.4 642.1,400.4 643.1,399.7 639.2,399.7 		"/>
		<polygon fill="#003893" points="646.6,400.1 646.7,400 647,400.5 647.4,401.6 647.8,402.2 648.7,402.9 650.7,404 651.6,404.7
			653.5,404.5 653.5,404.5 655.8,402.3 657.4,399.7 646.1,399.7 		"/>
		<path fill="#DC143C" d="M273,292.3l-12.9-21.8l25.1,3.6l0,0l-3.6-25.1l21.8,12.9c0,0,0,0,0,0l6.3-24.5l15.2,20.3l15.2-20.3
			l6.3,24.5c0,0,0,0,0,0L368,249l-3.6,25.1c0,0,0,0,0,0l25.1-3.6l-12.9,21.8c0,0,0,0,0,0l24.6,6.3l-20.3,15.2l10.3,7.7
			c23.3-13.9,41.7-34.9,52.5-60.1l-2.4-0.4l-1.2-0.4l-1-0.5l-1.1-0.4l-1.4,0l-1.5-0.4l-0.8-1.2l-0.9-2.8l-0.5-0.6l-1.3-1l-1-1.5
			l-0.6-0.5l-0.8-0.3l-4.2-0.8l-3.1-1.6l-0.6-0.9l-1.2-1.6l1.5-5.2l-0.7-0.8l-1.4-0.4l-1.4-0.7l-0.4-1.9l-0.2-0.6l-0.4-0.4l-1.4-1.2
			l-0.3-1.2l0.6-1l0.8-1l0.4-1l-0.4-0.9l-0.8-0.1l-1,0.1l-0.8-0.2l-0.4-0.7l-0.4-1.7l-0.6-0.6l-1.1,0l-1.2,0.4l-1.1,0.2l-0.8-0.7
			l-0.6-0.6l-0.7-0.1l-0.8,0.2l-0.8,0.4l-0.2-0.8l-0.4-0.5l-0.6-0.3L404,225l-0.8,0l-1.1,0.1l-1.9,0.5l-0.4,0.3l-0.5,0.8l-0.4,0.2
			l-1.5,0.4l-2.7,1.2l-1.4,0.2l-1.6-0.1l-1.6,0.1l-1.5,0.5l-1.3,1.1l-0.5,1l-0.3,1.1l-0.5,0.9l-0.1,0l-1,0.3l-0.9,0l-2.5-0.4
			l-0.7-0.4l-0.7-0.5l-1.6-0.2l-0.7-0.3l-0.4-0.5l-0.2-0.6l-0.1-1.3l-0.6-2.3l-0.6-0.9l-1.1-0.7l-1.7-0.6l-0.7-0.5l-0.6-1.7
			l-0.6-0.5l-0.8-0.3l-0.7-0.6l-0.3-0.9l0.1-0.8l-0.1-0.7l-1.9-1.3l-0.1-0.8l0.2-0.9l-0.2-1.1l-1.7-1.5l-3.9,0.7l-1-1.3l0.1-0.7
			l0.3-0.4l0.4-0.3l0.2-0.5l-0.2-0.9l-0.5-0.8l-1.4-1.3l-0.5-0.2l-1-0.3l-0.5-0.3l-0.2-0.3l-0.2-0.8l-0.2-0.3l-0.8-0.6l-0.7-0.2
			l-0.8,0l-1.4,0.1l-1.6,0.4l-0.4,0.2l-0.3,0.7l-0.2,0.9l-0.4,0.7l-0.9,0.1l-0.6-0.4l-0.8-1.5l-0.5-0.6l-3.5-2.7l-0.7-0.1l-1.4,0.2
			l-0.6-0.1l-0.5-0.3l-0.9-0.9l-0.6-0.2l-1.2,0.5l-1.4,0.9l-1.3,0.4l-0.9-1.1l-0.4-0.8l-0.6-0.4l-0.7-0.2l-0.7-0.3l-0.7-0.6
			l-1.1-1.5l-3.7-2.5l-0.6-1l0.2-0.7l0.3-0.6l0-0.5l-0.7-0.4l-0.6,0l-1.3,0.3l-0.6,0l-1.1-0.7l-4.7-5.1l-1.1-0.6l-3-0.8l-1.2-0.5
			l-1.1-0.7l-1-0.9l-0.8-0.9l-0.9-0.5l-0.9,0l-1,0.1l-1-0.1l-0.5-0.4l-0.7-1l-0.5-0.4l-1.4-0.3l-1.3,0l-1.2-0.2l-2.8-1.5l-1.1,0.2
			l-1.1,0.4l-1.3-0.2l-0.6-0.7l-0.6-1.2l-0.4-1.3l-0.1-0.8l1.4-2.3l0.3-1.2l-0.9-0.8l-1.6-0.5l-1.1-0.7l-0.7-1.1l-0.2-1.6l0.7-3.5
			l-0.3-0.9l-1-0.4l-1.4-0.1l-2.6,0.1l-0.6,0.2l-0.6,0.3l-0.6,0.2l-0.6-0.1l-0.4-0.3l-0.7-0.9l-0.5-0.3l-1.2-0.2l-2.1,0.1l-2.6-1
			l-1.3,0.2l-1.3,0.4l-1.4,0.2l-1.3-0.3l-7.5-3l-1.3-0.4l-1.4,0.2l-0.4,0.4l-0.2,0.5l-0.3,0.5l-0.8,0.3l-1.2,0.2l-0.5,0.3l-0.3,0.5
			l-0.7,2.4l-0.7,0.2l-1.6-0.2l-1.2-0.6l-2.3-1.9l-1.2-0.4l-1.2,0.3l-0.2,0.8l0.1,1l-0.3,0.9l-0.7,0.9l-0.2,1l0.1,2.1l0.1,0.5l0.4,1
			l0.1,0.5l-0.2,0.6l-0.8,1.1l-0.3,1.9l-0.4,1l-0.7,0.8l-1,0.6l-0.8,0.1l-1,0l-1,0.1l-0.7,0.4l0,0.4l0.5,1l0.1,0.4l-0.2,1l-0.3,0.5
			l-0.1,0.1l-0.6,0.4l-1.1,0.3l-0.8,0.5l0.1,1.7l-0.6,0.9l-1.4,0.2l-2.9-1.2l-1.4,0l-1.7,0.4l-0.8-0.6l0-0.1l-0.6-2.7l-0.5-0.9
			l-1.4-2l-0.8-2l-0.7-1.2l-0.8-1l-0.4-0.3l-0.1,0l0,0l-0.2-0.2l-0.5,0l-4.1,1.2l-1.1-0.2l-0.6-1.1l-0.6-0.8l0,0l-1,0.6l-1.1,1.1
			l-0.9,0.7l0.8,1.6l-1.2,1.6l-3.7,2.4l-0.9,0.8l-1.8,2.6l-0.6,0.6l-2.1,1.3l-0.1,0l-1.6,1.3l0,0l-0.8,0.4l-1.2,0.3l-2.2,0.2
			l-0.9,0.4l0,0l-0.5,1.1l-0.8,2.2L194,190l-3.1,3.5l-1.3,1l0,0l-3.7,0.9l0,0l-1.6,1.1l-0.9,1.7l0,1.6l0.6,1.5l0.8,1.6l0.6,1.6
			l-0.1,1.4l-0.7,1.3l-1.4,1.4l-0.3,0.2l0,0L182,209l0,0l-0.3,0.2l-0.2,0.4l0.1,0.4l0.2,0.3l0,0.3l-0.4,0.6l-0.5,0.5l-1.2,0.8l0,0
			l-0.6,0.6l-0.6,0.3l-0.4,0.4l-0.2,0.8l-0.4,0.6l0,0l-1.8,0.5l0,0l-0.6,0.4l-0.2,1.1l0.5,1l1.3,2l0.5,2.5l0.3,0.6l0.5,0.1l0.6,0
			l0.5,0.3l0.2,1.2l-0.3,1.4l-1.3,4l0,0l-0.6-0.1l-0.8-0.5L175,230l0,0l-0.3,0.9l1,2.6l0.2,0.9l-0.8,0.8l0,0l-1.2,0.3l-0.3,0v23.1
			l1.3,0.2l1,0.6l0.3,0.4l0.6,1l0.5,0.5l0.5,0.2l1.1,0.2l0.5,0.3l1.7,3l0.7,0.8l1.2,0.4l1.2-0.1l1.2-0.3l1.2,0.1l1.1,0.6l2.6,2.8
			l1.2,0.6l0,0l0.3-0.8l-0.5-3.9l0.2-1.1l0.6-0.8l0,0l1.2-0.6l1,0l1.3,0l0.2,0.4l-0.1,0.5l0,0.6l0.4,0.5l1.1,0.5l1.1,0.3l2.3,0.4
			l0.8,0.5l1.2,2.1l0.6,0.7l1.1,0.4l0.6,0.2c-0.4-4-0.6-8-0.6-12c2.2,5.5,4.7,10.8,7.5,15.9l2.4,0l0.9,0.3l0.5,0.9l0.1,0.9l0.3,0.9
			l1.1,0.7l1,0.3l1.2,0.2l1.2,0l0.9-0.3l0.7,0.4l0.2,0.7l0.1,0.8l0.4,0.7l2.9,0.5l6.1,1l1.4,0.7l1.3,1.4l1.2,3.7l0.8,1.7l3.6,3.6
			l0.8,1.5l0,0l-0.9,0.3l0,0L240,295l0.4,0.5l1,0.2l-0.2,0.9l0.7,0.3l1-0.1l0.9-0.4l0,0l0.6-0.7l0.3-0.8l0.4-0.6l0,0l0.9-0.1
			l1.4,0.4l1.3,0.8l1.1,1.1l0.8,1.1l0.1,0.4L273,292.3C273,292.3,273,292.3,273,292.3z"/>
		<path fill="#DC143C" d="M639.5,314.3l-1.4,1.2l-1.8,0.8l-1.6,0.1l-1.3-0.5l-1.2-0.4l-1.5-0.2l-0.9,0.3l-1.9,0.9l-1,0l-0.5-0.4
			l-0.3-0.5l-0.2-0.5l-0.3-0.3l-1.2-0.3l-1,0.1l-2.4,0.5l-5.5,1.4l-1.1,0v-0.9l0.7-1l0.3-0.8l-1.3-0.4l-1.7,0.5l-1.3,1.1l-1.4,0.8
			l-3.5-0.8l-3.1,0.3l-1.6-0.1l-2.4-1.2l-3.4-3.9l-1.9-1.8l-1.5-0.8l-1-0.1l-0.4,0.1l-0.7,0.2l-1.8,0.3l-1.6-0.1l-1.3-0.6l-1-1
			l-0.5-1.5v0l-1.7-1.2l-4.3,0.2l-1.9-0.6l-0.5-0.8l0.2-1.8l-0.3-0.7l-0.9-0.7l-1.1-0.6l-1.2-0.4l-1.1-0.1l-0.8,0.4l-1.4,1.1
			l-0.9,0.2l-1-0.4l-0.8-0.7l-0.8-0.5l-1,0.1l-0.6,0.7l-0.2,0.9l0,1l-0.1,0.9l-0.5,0.8l-0.5,0.6l-0.4,0.7l0,1.1l0,1.4v0l-0.4,1.2
			l-0.8,0.9l-1.3,0.6l-2.3,1l-0.8,0.1l-1.2-0.4L553,308l-0.5-0.3l-0.6,0.1l-0.5,0.2l-0.5,0.2l-0.6-0.1l-0.6-0.4l-1.4-1.6l-1-0.7
			l-1.2-0.2l-1.3-0.1l-1.2-0.3l0,0h0l0,0l-0.9-0.5l-0.4-0.7l-0.4-1.8l-0.5-0.7l-0.5-0.5l-0.1-0.6l0.5-1l0.4-1.2l-0.1-1.5L541,295
			l-1.2-0.2l-5.4,4.9l0.1,0.6l0.7,0.9l0.2,0.5l0,0.3l-0.3,1v0.5L535,304l0.1,0.4l0.6,0.4l0,0l0,0v0l0.5,0.6l0,0.5l-0.2,0.5l0,0.7
			l0.3,0.5l0.4,0.4l0.3,0.4l0,0.6l-0.3,0.2l-1.9,1.7l-0.9,0.3l-0.4,0.1l-0.2,0l-1.5-0.1l-2.8,0.3l-1.1-0.4l-0.7-1.5l0-1.3l0.3-1.2
			l0-1.2l-0.8-1.1l-2.2-1.7l-0.7-0.8l-0.5-1.4l0-0.7l0.1-0.6l-0.1-0.6l-1.1-1.3l-0.3-1.4l-0.2-0.6l-0.9-1l-1.3-0.7l-2.7-1.1
			l-1.6-0.9l-1.4-1.1l-1.2-1.3l-1-1.6l-0.1-2.7l-0.3-1.3l-0.8,0.1l-0.2,0.5l0,0.6l-0.1,0.5l-0.4,0.4l-1.3,0.4l-0.5,0.4l-1.7,2.3
			l-0.8,0l-0.8-0.8l-1.2-0.7l-1.3-0.3l-1.4-0.2l-1.4,0l-1.3,0.2l-1.8-0.8l-0.9-0.3l-1,0l-0.9,0.5l-1.4,1.4l-0.9,0.4l-1.1-0.1
			l-0.6-0.5l-0.6-0.5L488,287l-0.7,0.1l-1.7,0.7l-0.8,0.2l-1-0.1l-1.2-0.2l-1.1-0.4l-2-1.6l-1.2,0.2l-1.3,0.5l-1.5,0l-1.3-0.7
			l-0.4-0.9l0.1-0.8l0.2-1.9l0-1.2l-0.5-3.4l0.4-0.6l1.6-0.8l0.4-0.8l0-1.2l0.1-0.4l0.4-0.4l1.1-0.4l0.4-0.3l0.4-0.6l0.2-0.5
			l0.7-3.1l-0.4-0.7l-3-0.9l-2.3-1.4l-1.2-0.4l-1.4,0.3l-0.4,0.3l-0.4,0.5l-0.6,1.1l-0.4,0.5l-0.5,0.2l-0.6,0.1l-1.8,0.9l-0.4,0.4
			l-0.8,1.4l-0.5,0.4l-0.6,0.2l-0.7-0.1l-1-0.3l-0.7-0.1l-3.4,0.2l-0.7-0.1l-0.8-0.3l-1.1-0.8l-1.6-1.6l-1.2-0.5l-2.8-0.1l-0.8-0.5
			l0.3-2.8l-0.7-0.5l-1.2-0.2l-1.2-0.4l-0.4-0.4l-0.6-1.1l-0.1,0c-0.9,28.4-11.8,54.4-29.1,74.5l0,0l1.5,0.5l0.6,0.6l0.7,1.5
			l0.6,0.2l1.9-0.3l0.8,0.6l0.6,1.1l1.2,1.5l1.3,0.8l17.7,2.9l1.8,1.1l1.6,2.1l1,2.2l0.6,2.3l0.1,2.4l-0.3,2.4l-0.6,1.3l-0.9,1.4
			l-0.5,1.4l0.4,1.3l0.8,0.5l7.4,1.8l0.7,0l0.8-0.6l0,0l1-0.3l1,0.2l0.7,1l0,0l1.4,0.8l3.1,0.9l1.4,0.7l0.9,1.2l0.4,1.3l0.5,1.1
			l1.4,0.7l0.8,0.2l0.8,0.1l1,0.5l-0.1,0.9l0.1,0.8l1.6,0.1l3.4-1.2l1.4-0.1l2.4,0.9l0.2,1.9l0,2.1l1.8,1.7l5.7,1.3l0.9,0l2.1-0.6
			l0.6-0.4l0.4-0.3l0.1-0.2l0.8-0.9l1-0.8l0,0l1.1,0.1l1.1,0.3l1.1-0.3l2.2-1.1l2.7-1.3l4.9-1.7l0.7,0.2l4.8,2.4l0.9,0.9l0.5,2.1
			l-0.4,4.5l0.7,2.2l0.9,1l3.3,2.4l0.6,0.1l0.6-0.2l0.6-0.1l0.5,0.4l0.1,0.5l0,0.5l0.1,0.5l0.4,0.3l1-0.1l0.9-0.5l0.4-0.2l4.2-3.3
			l0.2-0.1l0.9-0.5l1.4-0.1l2.2-0.6l1.9,0.6l4.2,2.4l0.3,0.3l0.4,0.1l1.4-0.1l0.1,0l0.4,0l0.9,0.3l0.4,0.2l0.3,0.3l0.4,0.3l0.6,0.1
			l0.4-0.1l1.4-0.8l2.3-0.7l1.3-0.2l1,0.2l0.4,0.4l0,0.9l0.4,0.4l0.4,0.1l1.3-0.2l0.5,0l1.8,0.6l3.8,1.8l1.9,0.7l1.2,0.3l1,0.5
			l0.8,0.7l0.8,0.9h0l1.2,0.7l4.1,1.7l0.8,0.4h12.5l0.3-0.2l1.2-1.2l0.6-1.4v0l1.9-1l1.7-0.5l2.3-0.7l0,0l0.4-0.2l0.4-0.3l0,0
			l1.9-1.7l0.9-0.7l0,0l0.7,0l0.2,1.2l0,1l0.7,3v0h0l0.6,1.8l0.5,1h42.3l0.4-0.1l0.4,0.1h3.8l0.9-0.7l0,0l1.1-0.2l0.1,0.2l0.9,0.7
			h11.4l0.2-0.3l0.5-2.5v0l-0.2-0.8l0-0.6l0.4-1.3l0.9-2.6l2.8-4.9l1-2.7l0.3-1.2l0.1-1.2l-0.1-1.2l-0.5-2.4l-0.2-2.6l-0.2-1.1
			l-0.5-1l-1.4-1.9l-0.5-0.9l-0.9-2.1l-1.2-2l-1.3-1.6l-0.8-0.7l-1-0.4l-1.1-0.6l-1.1-2.2l-1-0.8l-0.3-0.5l-0.1-0.5l0.1-0.5l0.9-1.8
			l0.2-4.3l0.9-1.9l1.5-3l0.4-1.5l-0.2-0.7l-0.8-1.2l-0.3-0.7l-0.1-0.9l0.1-0.7l0.5-1.4l0.2-0.4l0.3-0.3l0.3-0.4l0.1-0.5l-0.1-0.3
			l-0.6-0.5l-0.2-0.3l-0.3-1.2l-0.1-0.6l0.1-0.7l1.6-3.1l3.8-5.8l0.2-0.9l-19.8-12.4L639.5,314.3z"/>
		<path fill="#FFFFFF" d="M204.9,269.7l1.3,0.3l1,0.6l2.3,2.2l1,0.6l1.1,0.2l0.1,0c-2.8-5-5.3-10.3-7.5-15.9
			C204.3,261.7,204.5,265.7,204.9,269.7z"/>
		<path fill="#FFFFFF" d="M444.6,261.5l-1-0.1c-10.8,25.2-29.3,46.2-52.5,60.1l-10.3-7.7l20.3-15.2l-24.6-6.3c0,0,0,0,0,0l12.9-21.8
			l-25.1,3.6c0,0,0,0,0,0L368,249l-21.8,12.9c0,0,0,0,0,0l-6.3-24.5l-15.2,20.3l-15.2-20.3l-6.3,24.5c0,0,0,0,0,0L281.5,249
			l3.6,25.1l0,0l-25.1-3.6l12.9,21.8c0,0,0,0,0,0l-22.3,5.7l0.2,0.5l0.1,0.6l0.3,0.6l0.9,0.7l5.4,2.5l1.2,0.8l0.8,1.1v0l0,0v0
			l1.2,0.8l3.1,0.6l1.4,0.5l1.3,1l2.4,2.3l3.1,1.6l1.7,1.1l1.7,0.9l1.7,0.1l0,0l1.4-0.9l2.5-2.6l0,0l1.8-0.7l3.1,0.3l1.4,0.4l0.1,0
			l1.2,0.9l1.1,1.1l1.1,0.5l2.7,0.9l7.3,5.4l4.8,2.1l3.3,3l2.4,0.7l5.3-0.5l7.7-1.8l1.3,0.5l0.3,0.1l1.1,1.5l0.7,2.4l0.6,4.6
			l0.7,2.3l1.4,1.4l7.6,0.5l1.5,0.4l2.8,1.4l3.9,0.9l7.5-0.1l2.3,0.8l3.1,2.3l0.8,0.8l0.7,1.2l0.4,0.9l0.6,0.6l1.4,0.4l1.4-0.1l0,0
			l1.2-0.6l1-0.9l1.3-1.8l0.4-0.8l0.1-0.7l-0.9-1.1l-0.1-0.7l0.1-0.7l0.3-0.6v0l1.6-0.5l5.8,0l6.7,0.8l4.5,1.5l8.5,4.1l2.8,0.9
			l0.4,0.4l0,0l0.4-0.6l0.3-0.2l0,0l0.6-0.2l0,0l0-0.5l-0.2-0.6l-0.2-0.6l-1.8-1.8l-0.5-1l0,0l1.2-0.4l2.8-0.2l1.4-0.4l0.8,0.2
			l2.4,0.4l2-0.1h0l1.3-0.8l3.1-3.4l0,0l1.2-0.5l1.1,0.2l0.3,1.1l0.6,0.5l0.6,0.3c17.4-20.1,28.2-46.1,29.1-74.5L444.6,261.5z"/>
	</g>

		<polygon fill="none" stroke="#999999" stroke-width="0.25" stroke-linecap="round" stroke-linejoin="round" stroke-miterlimit="10" points="
		663.4,380.4 662.8,378 662.6,375.3 662.4,374.3 661.8,373.3 660.5,371.4 659.9,370.5 659,368.3 657.8,366.3 656.5,364.7
		655.7,364.1 654.7,363.7 653.6,363 652.5,360.8 651.6,360 651.3,359.5 651.2,359 651.3,358.5 652.2,356.7 652.4,352.4 653.3,350.5
		654.8,347.5 655.2,346 655.1,345.3 654.3,344.1 654,343.5 654,342.6 654.1,341.9 654.6,340.5 654.9,340.1 655.2,339.8 655.5,339.4
		655.6,338.9 655.5,338.7 655,338.1 654.8,337.9 654.5,336.7 654.4,336.1 654.5,335.4 656.1,332.3 659.9,326.5 661.3,321.4
		662.2,319.8 662.9,318.3 662.6,315.7 663.3,314.6 663.2,313.9 662.7,313.5 661.8,313.3 660.3,312.9 660.3,312.9 658.9,312.7
		656.3,311.4 654.9,310.9 654.2,311 652.6,311.6 651.7,311.7 651,311.6 649.7,311 649,310.8 644.2,310.6 643,310 642.4,310.1
		641.6,311.1 640.7,312.8 639.5,314.3 638.1,315.4 636.3,316.2 634.7,316.3 633.3,315.9 632.2,315.5 630.7,315.2 629.8,315.5
		627.9,316.4 626.8,316.4 626.3,316 626,315.5 625.8,315 625.5,314.7 624.3,314.4 623.2,314.5 620.8,315 615.4,316.4 614.3,316.4
		614.3,315.5 615,314.5 615.3,313.6 614,313.3 612.3,313.8 610.9,314.9 609.5,315.7 605.9,314.9 602.8,315.2 601.2,315.1
		598.8,313.9 595.4,310 593.5,308.2 592,307.4 590.9,307.3 590.5,307.4 589.8,307.6 588,307.9 586.4,307.8 585.1,307.2 584.1,306.2
		583.5,304.7 583.5,304.7 581.8,303.5 577.5,303.7 575.6,303.1 575.2,302.2 575.4,300.4 575.1,299.7 574.3,299 573.2,298.3
		572,297.9 570.9,297.8 570.1,298.2 568.7,299.3 567.8,299.5 566.9,299.1 566,298.4 565.2,297.8 564.2,298 563.6,298.7 563.4,299.6
		563.4,300.6 563.3,301.5 562.8,302.3 562.3,302.9 561.9,303.6 561.9,304.7 561.9,306.2 561.9,306.2 561.5,307.3 560.7,308.2
		559.4,308.8 557.1,309.9 556.3,309.9 555.1,309.5 553,308 552.5,307.7 551.9,307.8 551.4,308 550.9,308.2 550.3,308.1 549.7,307.7
		548.3,306.1 547.3,305.4 546.1,305.2 544.8,305 543.6,304.7 543.6,304.7 543.6,304.7 543.6,304.7 542.7,304.2 542.2,303.5
		541.8,301.7 541.4,301 540.9,300.6 540.8,300 541.3,298.9 541.7,297.7 541.6,296.2 541,295 539.8,294.8 534.4,299.7 534.5,300.3
		535.2,301.2 535.4,301.7 535.3,302 535.1,303.1 535.1,303.6 535,304 535.1,304.3 535.7,304.7 535.7,304.7 535.7,304.7 535.7,304.7
		536.2,305.3 536.2,305.8 536,306.3 536.1,307 536.4,307.4 536.8,307.8 537.1,308.2 537.1,308.9 536.8,309.1 534.8,310.9 534,311.2
		533.6,311.3 533.3,311.3 531.8,311.2 529,311.4 527.9,311.1 527.2,309.5 527.2,308.3 527.5,307 527.5,305.9 526.8,304.7 524.6,303
		523.9,302.2 523.5,300.8 523.4,300 523.5,299.4 523.4,298.8 522.3,297.6 522,296.2 521.8,295.6 520.9,294.6 519.6,293.9
		516.8,292.8 515.2,291.9 513.9,290.8 512.7,289.4 511.7,287.9 511.6,285.1 511.3,283.8 510.5,283.9 510.3,284.4 510.3,285
		510.2,285.6 509.8,285.9 508.5,286.4 508,286.7 506.3,289 505.6,289 504.7,288.2 503.5,287.5 502.2,287.2 500.7,287 499.3,287
		498,287.2 496.2,286.4 495.3,286.1 494.3,286.2 493.4,286.7 492,288.1 491,288.4 490,288.3 489.3,287.9 488.8,287.4 488,287
		487.3,287.1 485.5,287.8 484.7,288 483.7,287.9 482.5,287.7 481.4,287.3 479.4,285.7 478.2,285.9 477,286.5 475.5,286.4
		474.1,285.7 473.7,284.8 473.8,284 474,282.2 474,281 473.5,277.6 473.9,277 475.5,276.2 475.9,275.4 475.9,274.2 476,273.8
		476.3,273.4 477.4,273 477.8,272.7 478.2,272.1 478.4,271.6 479.1,268.6 478.6,267.8 475.6,267 473.4,265.6 472.1,265.2
		470.7,265.4 470.3,265.8 469.9,266.3 469.3,267.4 468.9,267.9 468.4,268.1 467.8,268.2 466,269.1 465.6,269.5 464.9,270.9
		464.4,271.3 463.8,271.5 463.1,271.4 462.1,271.1 461.3,271 457.9,271.2 457.2,271.1 456.4,270.8 455.4,270.1 453.7,268.4
		452.6,267.9 449.8,267.8 449,267.3 449.3,264.4 448.6,263.9 447.4,263.7 446.2,263.3 445.8,262.9 445.2,261.8 444.6,261.5
		441.2,261 440,260.6 439,260.1 437.9,259.7 436.6,259.7 435,259.3 434.2,258.1 433.3,255.3 432.8,254.7 431.5,253.8 430.5,252.2
		429.8,251.8 429.1,251.5 424.9,250.7 421.8,249.1 421.2,248.3 420,246.6 421.5,241.4 420.9,240.6 419.5,240.2 418.1,239.4
		417.7,237.5 417.5,236.9 417.2,236.5 415.8,235.3 415.4,234.1 416,233.1 416.9,232.2 417.3,231.1 416.9,230.3 416,230.2
		415.1,230.3 414.2,230.1 413.8,229.4 413.4,227.8 412.8,227.2 411.7,227.2 410.6,227.6 409.5,227.7 408.6,227 408.1,226.4
		407.4,226.2 406.6,226.4 405.8,226.8 405.7,225.9 405.3,225.5 404.7,225.2 404,225 403.2,225 402.1,225.2 400.2,225.6 399.8,226
		399.3,226.8 398.8,227 397.4,227.4 394.6,228.5 393.2,228.7 391.7,228.6 390.1,228.6 388.6,229.1 387.4,230.1 386.9,231.1
		386.6,232.2 386.2,233.1 386.1,233.1 385.2,233.5 384.2,233.4 381.8,233 381,232.6 380.4,232.1 378.8,232 378.1,231.7 377.6,231.2
		377.5,230.6 377.4,229.2 376.8,226.9 376.2,226 375.1,225.3 373.4,224.7 372.7,224.2 372.2,222.5 371.6,222 370.8,221.7 370,221.1
		369.7,220.2 369.8,219.5 369.7,218.8 367.8,217.4 367.7,216.7 367.9,215.8 367.7,214.7 366,213.2 362.1,213.9 361.1,212.6
		361.2,211.8 361.5,211.4 361.9,211.1 362.1,210.6 361.9,209.7 361.4,208.8 360,207.6 359.5,207.3 358.5,207 358,206.8 357.8,206.5
		357.6,205.7 357.4,205.4 356.5,204.8 355.9,204.6 355.1,204.5 353.7,204.7 352.1,205 351.6,205.2 351.3,205.8 351.1,206.7
		350.8,207.4 349.9,207.4 349.2,207 348.4,205.5 347.9,204.8 344.4,202.2 343.7,202.1 342.3,202.2 341.7,202.2 341.2,201.8
		340.3,200.9 339.7,200.7 338.5,201.1 337.1,202 335.8,202.4 335,201.3 334.6,200.6 333.9,200.2 333.2,200 332.4,199.6 331.8,199.1
		330.6,197.5 326.9,195 326.3,194 326.5,193.2 326.8,192.6 326.8,192.1 326.1,191.7 325.4,191.7 324.2,192 323.5,192 322.4,191.4
		317.7,186.2 316.7,185.7 313.7,184.9 312.5,184.3 311.4,183.6 310.4,182.8 309.6,181.9 308.7,181.3 307.7,181.3 306.8,181.5
		305.8,181.3 305.3,181 304.6,179.9 304,179.6 302.7,179.3 301.4,179.3 300.2,179.1 297.4,177.6 296.3,177.8 295.2,178.1 293.9,178
		293.3,177.3 292.8,176 292.4,174.7 292.3,173.9 293.7,171.6 294,170.4 293.1,169.6 291.5,169.1 290.3,168.4 289.7,167.3
		289.5,165.7 290.2,162.2 289.9,161.2 289,160.8 287.5,160.7 284.9,160.8 284.3,161 283.7,161.3 283.2,161.4 282.6,161.4 282.1,161
		281.4,160.1 280.8,159.8 279.6,159.6 277.5,159.7 274.9,158.7 273.6,158.9 272.3,159.3 270.9,159.5 269.5,159.2 262.1,156.3
		260.7,155.9 259.4,156.1 259,156.5 258.8,157 258.4,157.5 257.6,157.8 256.5,158 256,158.3 255.7,158.8 255,161.1 254.3,161.3
		252.7,161.1 251.5,160.6 249.2,158.6 248,158.2 246.8,158.6 246.7,159.4 246.8,160.3 246.5,161.2 245.8,162.1 245.6,163
		245.7,165.2 245.8,165.7 246.2,166.7 246.2,167.2 246,167.8 245.2,168.9 245,170.9 244.5,171.9 243.8,172.7 242.8,173.3 242,173.4
		241,173.4 240.1,173.4 239.4,173.8 239.4,174.3 239.9,175.2 240,175.7 239.7,176.6 239.5,177.1 239.4,177.2 238.8,177.6
		237.7,177.9 236.9,178.4 237,180.1 236.3,181 235,181.3 232.1,180.1 230.7,180.1 229,180.5 228.2,179.9 228.2,179.8 227.6,177.1
		227.1,176.2 225.7,174.1 224.9,172.1 224.2,170.9 223.4,169.9 223,169.6 223,169.6 223,169.6 222.8,169.4 222.3,169.4 218.2,170.7
		217.1,170.4 216.5,169.4 215.9,168.6 215.9,168.6 214.9,169.2 213.8,170.3 213,171.1 213.8,172.7 212.6,174.3 208.9,176.8
		208,177.6 206.2,180.1 205.6,180.7 203.4,182 203.4,182 201.8,183.3 201.8,183.3 201,183.8 199.8,184.1 197.6,184.3 196.7,184.8
		196.7,184.8 196.2,185.8 195.3,188.1 194,190 190.8,193.4 189.5,194.4 189.5,194.4 185.9,195.3 185.8,195.3 184.2,196.4
		183.3,198.1 183.4,199.7 183.9,201.2 184.8,202.8 185.3,204.5 185.2,205.8 184.5,207.1 183.1,208.4 182.8,208.7 182.8,208.7
		182,209 182,209 181.7,209.3 181.5,209.7 181.6,210.1 181.7,210.4 181.7,210.7 181.2,211.3 180.7,211.7 179.5,212.6 179.5,212.6
		178.9,213.2 178.4,213.6 177.9,214 177.8,214.7 177.4,215.3 177.4,215.3 175.6,215.8 175.6,215.8 175,216.3 174.7,217.3
		175.2,218.4 176.5,220.4 176.9,222.9 177.2,223.5 177.8,223.6 178.3,223.6 178.8,223.9 179,225.1 178.7,226.5 177.4,230.5
		177.4,230.5 176.9,230.4 176.1,229.9 175,230 175,230 174.7,230.9 175.7,233.5 175.9,234.4 175.1,235.2 175.1,235.2 174,235.5
		172.7,235.5 171.6,235.4 169.7,236.2 169.7,236.2 168.5,238.5 168,241.3 168.2,243.3 168.2,243.3 167.7,244.4 166.9,244.9
		166.8,245 165.8,245.4 165.8,245.4 164.8,246.1 164.1,247.1 163.7,248.1 163.5,249.2 163.4,250.5 163.8,253 164.9,253.8
		166.6,254.1 168.6,255.1 170.6,257.5 171.5,258.1 172.7,258.5 174.9,258.8 175.9,259.4 176.3,259.8 176.9,260.8 177.4,261.2
		177.9,261.4 179,261.7 179.5,262 181.1,265.1 181.8,265.8 183.1,266.3 184.3,266.1 185.4,265.9 186.7,265.9 187.8,266.5
		190.4,269.3 191.6,269.8 191.6,269.8 191.9,269 191.4,265.1 191.5,264.1 192.1,263.2 192.2,263.2 193.4,262.6 194.4,262.6
		195.7,262.7 195.9,263 195.8,263.6 195.8,264.2 196.2,264.6 197.3,265.1 198.4,265.5 200.6,265.8 201.4,266.3 202.6,268.4
		203.3,269.1 204.3,269.5 206.3,270 207.3,270.6 209.6,272.8 210.6,273.3 211.8,273.5 214.3,273.5 215.2,273.9 215.7,274.8
		215.8,275.7 216.1,276.6 217.2,277.3 218.2,277.6 219.4,277.8 220.6,277.8 221.5,277.6 222.3,277.9 222.5,278.6 222.6,279.3
		223,280 225.9,280.5 232,281.5 233.4,282.2 234.7,283.6 236,287.3 236.8,289 240.4,292.6 241.2,294.1 241.2,294.1 240.3,294.4
		240.3,294.5 240,295 240.4,295.4 241.4,295.6 241.2,296.5 241.9,296.8 242.9,296.6 243.8,296.2 243.8,296.2 244.4,295.5
		244.6,294.8 245,294.2 245,294.2 245.9,294.1 247.3,294.5 248.7,295.4 249.8,296.4 250.6,297.5 250.9,298.4 250.9,299.1
		251.2,299.6 252.1,300.3 257.5,302.8 258.8,303.6 259.6,304.7 259.6,304.7 259.6,304.7 259.6,304.7 260.8,305.5 263.9,306.2
		265.3,306.7 266.7,307.6 269.1,309.9 272.2,311.5 273.9,312.6 275.6,313.6 277.3,313.7 277.3,313.7 278.7,312.8 281.2,310.2
		281.2,310.2 283,309.5 286.1,309.8 287.6,310.2 287.6,310.2 288.9,311.2 290,312.2 291.1,312.8 293.7,313.7 301.1,319.1
		305.8,321.2 309.1,324.2 311.5,324.9 316.8,324.3 324.5,322.6 325.9,323 326.2,323.2 327.3,324.7 328,327.1 328.6,331.7 329.3,334
		330.7,335.4 338.3,335.9 339.8,336.3 342.6,337.7 346.5,338.6 354,338.5 356.3,339.3 359.4,341.6 360.1,342.4 360.8,343.6
		361.2,344.4 361.8,345.1 363.2,345.5 364.6,345.4 364.6,345.4 365.8,344.8 366.8,343.9 368.2,342.1 368.6,341.4 368.7,340.6
		367.7,339.5 367.6,338.8 367.7,338 368.1,337.4 368.1,337.4 369.7,336.9 375.4,337 382.2,337.8 386.6,339.3 395.2,343.4 398,344.3
		398.4,344.6 398.4,344.6 398.8,344.1 399.2,343.8 399.2,343.8 399.8,343.6 399.8,343.6 399.8,343.1 399.6,342.5 399.4,341.9
		397.7,340.1 397.1,339.2 397.1,339.2 398.3,338.7 401.2,338.6 402.6,338.2 403.4,338.4 405.8,338.8 407.8,338.7 407.8,338.7
		409.1,338 412.2,334.5 412.2,334.5 413.4,334.1 414.5,334.3 414.8,335.4 415.4,335.9 416,336.3 417.5,336.8 418.1,337.4
		418.7,338.9 419.3,339 421.2,338.8 422,339.3 422.6,340.5 423.8,342 425.1,342.7 442.8,345.6 444.6,346.8 446.1,348.8 447.1,351
		447.7,353.3 447.9,355.7 447.5,358.1 446.9,359.5 446,360.9 445.5,362.3 445.9,363.6 446.7,364.1 454,365.9 454.7,365.9
		455.6,365.3 455.6,365.3 456.6,365 457.5,365.2 458.2,366.1 458.2,366.1 459.6,366.9 462.7,367.8 464.1,368.5 465,369.7 465.3,371
		465.8,372.1 467.3,372.8 468,373 468.8,373.1 469.9,373.5 469.8,374.5 469.9,375.3 471.5,375.4 474.9,374.2 476.3,374.1 478.7,375
		478.9,376.8 478.9,379 480.7,380.6 486.4,382 487.3,382 489.5,381.4 490,381 490.5,380.7 490.6,380.6 491.4,379.7 492.4,378.8
		492.5,378.8 493.5,378.9 494.7,379.2 495.8,378.9 498,377.8 500.7,376.5 505.5,374.8 506.2,375 511,377.4 511.9,378.3 512.3,380.4
		511.9,385 512.6,387.1 513.4,388.1 516.7,390.5 517.3,390.6 517.9,390.4 518.5,390.2 519,390.6 519.1,391.1 519.1,391.7
		519.2,392.1 519.7,392.5 520.7,392.3 521.5,391.9 522,391.6 526.2,388.4 526.4,388.3 527.2,387.8 528.7,387.7 530.9,387.1
		532.8,387.6 537,390 537.3,390.2 537.7,390.4 539.1,390.3 539.2,390.3 539.6,390.4 540.5,390.6 540.9,390.8 541.2,391.1
		541.6,391.4 542.2,391.5 542.7,391.3 544,390.6 546.3,389.8 547.7,389.7 548.7,389.8 549.1,390.3 549.2,391.1 549.6,391.6
		550,391.6 551.4,391.5 551.9,391.5 553.8,392.1 557.5,393.9 559.4,394.6 560.6,394.8 561.6,395.3 562.4,396 563.2,396.9
		563.2,396.9 564.5,397.5 568.6,399.2 572.9,401.6 574,401.8 574,401.8 574.7,401.3 575.1,400.6 575.5,400 575.5,400 576.4,399.9
		578.6,400.7 579.1,400.8 580.7,400.4 580.7,400.3 582.2,399.5 583.4,398.2 584,396.9 584,396.9 585.9,395.8 587.7,395.3
		589.9,394.6 589.9,394.6 590.3,394.3 590.7,394.1 590.7,394 592.6,392.3 593.5,391.7 593.5,391.6 594.2,391.6 594.4,392.8
		594.4,393.8 595.1,396.9 595.1,396.9 595.1,396.9 595.7,398.7 596.7,400.7 598.2,402.4 599.9,403 603.2,402.7 605.1,402.2
		605.7,402.8 606.1,403.7 606.7,404.5 607.5,405 610.1,406 610.9,406.1 610.9,406.1 611.7,405.6 612.8,403.3 613.5,402.5
		615.2,401.5 615.2,401.5 617.2,401 619.3,400.9 621.1,401.2 625.5,403.5 627.7,404 629.9,403.1 630,403.1 631.5,402.1 632.1,401.6
		632.2,401.6 633.5,401.2 634.5,401.7 635.3,402.3 636.3,402.5 637.2,402.1 637.2,402 637.7,401.1 638.1,399.8 638.1,399.8
		638.9,399.5 639.9,399.9 641,400.4 642.1,400.4 642.1,400.4 644,399 644,399 645.1,398.7 645.1,399 646.6,400.1 646.7,400
		647,400.5 647.4,401.6 647.8,402.2 648.7,402.9 650.7,404 651.6,404.7 653.5,404.5 653.5,404.5 655.8,402.3 657.6,399.4
		658.1,396.9 658.1,396.9 657.9,396.1 658,395.5 658.4,394.2 659.3,391.5 662.1,386.6 663.1,383.9 663.3,382.7 663.4,381.6 	"/>
</g>

</svg>
