<?xml version="1.0" encoding="utf-8"?>

<svg version="1.2" baseProfile="tiny" xmlns="http://www.w3.org/2000/svg" xmlns:xlink="http://www.w3.org/1999/xlink" x="0px"
	 y="0px" viewBox="314.6 172 210.9 250" xml:space="preserve">

<g id="Nauru">
	<g>
		<polygon fill="#002B7F" points="314.6,331.4 314.6,335.2 315.8,335.6 		"/>
		<polygon fill="#002B7F" points="331,307.8 314.7,307.8 314.7,318.9 325.4,330 		"/>
		<polygon fill="#002B7F" points="336.6,330 352.5,313.5 346.2,335.6 368.2,329.3 351.8,345.2 374,350.8 351.8,356.3 368.2,372.3
			346.2,366 352.5,388 336.6,371.5 333.9,382.2 344.4,394.1 365.3,406.2 372.6,406.2 400.3,422 417.7,422 421.4,417.9 439,410
			456.6,394.1 470.8,394.1 477.7,382.3 481.4,382.3 490,372.2 486.3,364.5 486.4,332.6 490.1,328.8 490.1,317 493.5,313.1
			494.7,307.8 331,307.8 		"/>
		<polygon fill="#002B7F" points="511.7,205.6 495.8,187.8 467.8,172 418.9,172 411.7,175.8 381.9,205.7 374.7,221.6 366.1,231.4
			362.5,231.4 355.3,239.3 351.9,239.3 329,265.4 319.6,286.2 506.7,286.2 514.8,277 514.8,273.2 525.4,261.2 525.4,237.3
			511.6,209.7 		"/>
		<polygon fill="#002B7F" points="324.9,372 325.8,373 325.4,371.5 		"/>
		<polygon fill="#FFC61E" points="314.7,297 314.7,307.8 331,307.8 494.7,307.8 497.2,297 506.7,286.2 319.6,286.2 		"/>
		<polygon fill="#FFFFFF" points="352.5,388 346.2,366 368.2,372.3 351.8,356.3 374,350.8 351.8,345.2 368.2,329.3 346.2,335.6
			352.5,313.5 336.6,330 331,307.8 325.4,330 314.7,318.9 314.6,331.4 315.8,335.6 314.6,335.2 314.6,348.5 318.2,352.6
			321.8,368.4 324.9,372 325.4,371.5 325.8,373 333.9,382.2 336.6,371.5 		"/>
	</g>
	<polygon fill="none" stroke="#999999" stroke-width="0.25" stroke-linecap="round" stroke-linejoin="round" points="511.6,209.7
		511.7,205.6 495.8,187.8 467.8,172 418.9,172 411.7,175.8 381.9,205.7 374.7,221.6 366.1,231.4 362.5,231.4 355.3,239.3
		351.9,239.3 329,265.4 314.7,297 314.6,348.5 318.2,352.6 321.8,368.4 344.4,394.1 365.3,406.2 372.6,406.2 400.3,422 417.7,422
		421.4,417.9 439,410 456.6,394.1 470.8,394.1 477.7,382.3 481.4,382.3 490,372.2 486.3,364.5 486.4,332.6 490.1,328.8 490.1,317
		493.5,313.1 497.2,297 514.8,277 514.8,273.2 525.4,261.2 525.4,237.3 	"/>
</g>

</svg>
