<?xml version="1.0" encoding="utf-8"?>

<svg version="1.2" baseProfile="tiny" xmlns="http://www.w3.org/2000/svg" xmlns:xlink="http://www.w3.org/1999/xlink" x="0px"
	 y="0px" viewBox="326.3 172 187.4 250" xml:space="preserve">

<g id="Niue">
	<g>
		<polygon fill="#FFF100" points="510.2,294.5 507.1,290.5 506.8,285.3 503.2,278.2 502.9,273.2 501,267.1 498.7,264 499,262
			497.7,257.9 498,254.9 502.4,247.8 502.8,243.7 498.1,231.4 499.1,230.5 499.3,228.4 497.8,226.3 498.2,223.4 496.4,216.2
			496.2,210.2 497.2,209.1 498,194.9 497.2,193.9 497.4,191.8 493.9,184.7 491.2,181.1 489.4,181.1 488.7,180.2 485.2,179.1
			482.8,177.2 474.9,177.1 474.1,176.1 470.6,176.1 469.8,175.1 468,175.1 464.8,173.1 461.3,173 460.5,172.1 449.8,172
			449.8,173.3 449.8,203.1 449.8,212.8 449.8,240.3 449.8,250.1 449.8,279.9 449.8,285.8 449.8,297 449.8,297 359.6,297
			358.7,298.5 355.2,302.1 353.5,302.2 350.5,305.2 346.8,306.2 344.7,308.2 343,308.2 340.1,310.2 339,312.3 336.2,313.3
			331.3,317.3 330.5,317.3 327.9,319.9 326.8,322 326.3,327 329.9,333.2 329.8,334.1 335.6,341.7 340.4,344.8 344.3,349.9
			347.6,351.9 349.9,355 351.1,355.4 352.2,358 353.1,358 358.5,367.7 358.8,372.7 359.6,373.7 358.7,381.9 355.3,388 353.9,388.5
			351.9,390.5 349.2,391.5 345.6,395.1 345.4,397.1 353.2,401.7 355.9,401.7 356.9,400.7 364.9,400.6 365.6,401.7 369.9,402.7
			371.4,404.7 376.3,407.8 382.8,416.4 382.7,417.4 387,422 392.3,422 401.8,416.9 403.5,416.9 405.5,414.9 409.1,414.9
			411.9,412.9 414.6,412.9 415.6,411.8 425.2,411.1 428.9,410.8 432.5,407.3 432.7,405.2 435.9,399.5 437.2,397.1 444.3,388.9
			447,384.4 447.9,384.4 451,381.4 451.9,381.3 460.8,373.2 465.5,370.1 467.1,367.6 470.2,364.6 472.9,360 477.6,357 480.6,353.9
			481.6,353.9 489.1,346.2 490.4,342.3 494.4,338.2 494.6,337.1 501.7,329.1 506,322 509.2,317.9 509.4,315.8 512.7,310.8
			513.7,301.6 510.1,295.5 		"/>
		<polygon fill="#005A9A" points="449.8,297 415.3,297 364.3,271.5 364.5,272.2 364.2,274.2 365,275.2 363.3,289.4 362.3,290.4
			362.1,292.5 359.6,297 449.8,297 		"/>
		<polygon fill="#005A9A" points="449.8,279.9 449.8,250.1 389.9,250.1 		"/>
		<polygon fill="#005A9A" points="449.8,173.3 398.6,198.8 398.6,199 395.6,202 395.5,203.1 449.8,203.1 		"/>
		<polygon fill="#FFFFFF" points="449.8,172 449,172 448,173 445.4,173.1 443.3,175.1 441.6,175.1 440.6,176.1 438,176.1 437,177.1
			430.8,177.1 429.8,178.1 427.1,178.2 426.1,179.1 421.7,179.1 415,183.2 412.6,185.7 410.9,188.3 407.2,189.3 398.7,197.9
			398.6,198.8 449.8,173.3 		"/>
		<polygon fill="#FFFFFF" points="449.8,285.8 449.8,279.9 389.9,250.1 449.8,250.1 449.8,240.3 365.7,240.3 364.5,241.7
			364.2,243.7 362.1,246.7 361.7,250.1 378.6,250.1 		"/>
		<polygon fill="#FFFFFF" points="449.8,203.1 395.5,203.1 395.4,204 392.3,208.1 391.9,211.1 390.6,212.8 449.8,212.8 		"/>
		<polygon fill="#FFFFFF" points="449.8,297 362.3,253.2 361.9,255.9 362.7,256.9 362.3,259.9 363.1,261 363.2,268.1 364.3,271.5
			415.3,297 		"/>
		<polygon fill="#EC1B2E" points="449.8,297 449.8,297 449.8,285.8 378.6,250.1 361.7,250.1 361.5,251.9 362.3,252.8 362.3,253.2
			449.8,297 		"/>
		<path fill="#EC1B2E" d="M449.8,212.8h-59.3l-1.8,2.3l-1.2,3.1l-6.9,6.1l-0.1,1.1l-5.5,5.5l-1.4,0.5l-7.9,8.9h84.1V212.8z
			 M397.4,235.9l-6.1-4.4l-6.1,4.4l2.3-7.2l-6.1-4.3h7.5l2.3-7.2l2.3,7.1h7.5l-6.1,4.4L397.4,235.9z"/>
		<polygon fill="#FFF100" points="393.6,224.3 391.3,217.2 389,224.4 381.5,224.4 387.6,228.7 385.2,235.9 391.3,231.5 397.4,235.9
			395,228.8 401.1,224.3 		"/>
	</g>
	<polygon fill="none" stroke="#999999" stroke-width="0.25" stroke-linecap="round" stroke-linejoin="round" points="510.1,295.5
		510.2,294.5 507.1,290.5 506.8,285.3 503.2,278.2 502.9,273.2 501,267.1 498.7,264 499,262 497.7,257.9 498,254.9 502.4,247.8
		502.8,243.7 498.1,231.4 499.1,230.5 499.3,228.4 497.8,226.3 498.2,223.4 496.4,216.2 496.2,210.2 497.2,209.1 498,194.9
		497.2,193.9 497.4,191.8 493.9,184.7 491.2,181.1 489.4,181.1 488.7,180.2 485.2,179.1 482.8,177.2 474.9,177.1 474.1,176.1
		470.6,176.1 469.8,175.1 468,175.1 464.8,173.1 461.3,173 460.5,172.1 449,172 448,173 445.4,173.1 443.3,175.1 441.6,175.1
		440.6,176.1 438,176.1 437,177.1 430.8,177.1 429.8,178.1 427.1,178.2 426.1,179.1 421.7,179.1 415,183.2 412.6,185.7 410.9,188.3
		407.2,189.3 398.7,197.9 398.6,199 395.6,202 395.4,204 392.3,208.1 391.9,211.1 388.7,215.2 387.5,218.2 380.6,224.3 380.5,225.4
		375,230.9 373.6,231.4 364.5,241.7 364.2,243.7 362.1,246.7 361.5,251.9 362.3,252.8 361.9,255.9 362.7,256.9 362.3,259.9
		363.1,261 363.2,268.1 364.5,272.2 364.2,274.2 365,275.2 363.3,289.4 362.3,290.4 362.1,292.5 358.7,298.5 355.2,302.1
		353.5,302.2 350.5,305.2 346.8,306.2 344.7,308.2 343,308.2 340.1,310.2 339,312.3 336.2,313.3 331.3,317.3 330.5,317.3
		327.9,319.9 326.8,322 326.3,327 329.9,333.2 329.8,334.1 335.6,341.7 340.4,344.8 344.3,349.9 347.6,351.9 349.9,355 351.1,355.4
		352.2,358 353.1,358 358.5,367.7 358.8,372.7 359.6,373.7 358.7,381.9 355.3,388 353.9,388.5 351.9,390.5 349.2,391.5 345.6,395.1
		345.4,397.1 353.2,401.7 355.9,401.7 356.9,400.7 364.9,400.6 365.6,401.7 369.9,402.7 371.4,404.7 376.3,407.8 382.8,416.4
		382.7,417.4 387,422 392.3,422 401.8,416.9 403.5,416.9 405.5,414.9 409.1,414.9 411.9,412.9 414.6,412.9 415.6,411.8 425.2,411.1
		428.9,410.8 432.5,407.3 432.7,405.2 435.9,399.5 437.2,397.1 444.3,388.9 447,384.4 447.9,384.4 451,381.4 451.9,381.3
		460.8,373.2 465.5,370.1 467.1,367.6 470.2,364.6 472.9,360 477.6,357 480.6,353.9 481.6,353.9 489.1,346.2 490.4,342.3
		494.4,338.2 494.6,337.1 501.7,329.1 506,322 509.2,317.9 509.4,315.8 512.7,310.8 513.7,301.6 	"/>
</g>

</svg>
