<?xml version="1.0" encoding="utf-8"?>

<svg version="1.2" baseProfile="tiny" xmlns="http://www.w3.org/2000/svg" xmlns:xlink="http://www.w3.org/1999/xlink" x="0px"
	 y="0px" viewBox="0 0 328.8 350" xml:space="preserve">

<g id="New_Zealand">
	<g>
		<polygon fill="#00247D" points="253.6,60.1 253.5,60.2 253.5,60.3 253.6,60.4 253.9,60.6 254.1,60.6 254.2,60.6 254.4,60.6
			254.6,60.6 254.8,60.6 254.9,60.5 254.8,60.3 254.6,60.1 254.4,60 254.1,60 253.8,59.2 253.6,59 252.9,59.2 253,59.5 253.2,59.6
			253.4,59.7 253.6,59.8 253.7,59.9 253.7,60 253.6,60 		"/>
		<polygon fill="#00247D" points="3.9,319.1 4.2,319 4.9,318.5 5.1,318.3 5,318.1 4.6,317.9 4.2,318 3.8,318.3 3.8,318.7 3.9,319
			3.8,319.1 		"/>
		<polygon fill="#00247D" points="1.5,316.4 1.3,316.3 1.1,316.5 1.1,316.6 1.5,317 1.6,317.1 1.8,316.9 1.9,316.7 2,316.5
			1.9,316.5 1.7,316.4 		"/>
		<polygon fill="#00247D" points="2.1,316.2 2.1,316 2,315.8 1.8,315.8 1.7,315.8 1.7,315.9 1.7,316.1 2,316.2 		"/>
		<polygon fill="#00247D" points="25.6,346.5 25.7,346.4 25.6,346.4 25.6,346.3 25.5,346.3 25.4,346.4 25.4,346.5 25.5,346.7
			25.4,346.8 		"/>
		<polygon fill="#00247D" points="12.8,330.3 12.6,330.2 12.2,330.3 12.4,330.5 12.8,330.8 12.7,330.6 12.8,330.4 		"/>
		<polygon fill="#00247D" points="26.2,348.4 25.9,348.8 26.1,349.1 26.7,349 27.4,348.6 27.7,348.4 27.5,348 26.8,348.1 		"/>
		<polygon fill="#00247D" points="33.5,336.8 33.8,336.6 34.1,336.1 33.7,335.9 33.3,335.9 32.9,335.9 32.6,336.1 32.5,336.4
			32.7,336.8 33,336.9 		"/>
		<polygon fill="#00247D" points="37.6,327.8 37.7,327.7 37.7,327.6 37.6,327.4 37.5,327.5 37.2,327.5 37.1,327.6 37.4,327.6 		"/>
		<polygon fill="#00247D" points="48.4,340.1 48.4,340 48.2,339.8 48,339.9 47.9,340.1 48.2,340.2 		"/>
		<polygon fill="#00247D" points="11.6,294.7 11.9,295.1 12.1,295.4 12.6,295.6 13.2,295.8 13.7,296 14.2,296.3 14.5,296.4
			15.4,296.3 14.4,294.4 14,293.5 13.8,292.5 13.7,292.4 13.6,292.4 13.6,292.3 13.6,292.2 11.9,294 11.8,294.3 11.8,294.4
			11.5,294.5 		"/>
		<polygon fill="#00247D" points="9.4,308.6 10,308.6 11.1,308.3 11.3,308.2 11.2,308.1 11.1,308 9.5,307.8 9.1,308 8.9,308.2
			8.9,308.3 9.1,308.4 9,308.5 		"/>
		<polygon fill="#00247D" points="200,175.9 199.6,175.7 199.3,175.3 198.9,175 198.7,175.3 198.6,175.7 198.7,176 198.9,176.3
			198.9,176.2 199.2,176 199.4,176.3 199.4,176.5 199.2,176.8 198.9,176.9 198.8,177 198.8,177.1 198.8,177.2 198.7,177.3
			199,177.4 199.4,177.4 199.8,177.3 200.2,177.1 200.2,177 200.3,176.8 200.4,176.6 200.6,176.5 201.3,176.3 201.5,176.2
			201.8,175.9 201.9,175.8 202.5,175.8 202.6,175.8 202.8,175.5 202.9,174.8 202.9,174.5 203.1,174.3 203.5,174 203.6,173.9
			203.7,173.8 203.7,173.6 203.5,173.4 203.8,172.7 203.9,172.3 203.9,171.9 203.8,171.5 203.6,171.7 203.3,172.4 203.1,172.7
			202.8,173 202.2,173.4 203.1,173.4 202.7,173.7 201.9,173.9 201.7,174.1 201.5,173.7 201.6,173.2 201.6,172.8 201.2,172.6
			201,172.7 200.8,173 200.7,173.4 200.4,173.3 200.3,173.1 200.3,172.9 200.2,172.8 200,173.1 199.7,174.1 199.6,174.5
			199.7,174.9 199.9,175.3 200.2,175.6 200.5,175.8 200.5,176 		"/>
		<polygon fill="#00247D" points="1.6,308.5 1.1,308.5 0.6,308.7 0.5,308.9 0.5,309 0.6,309.1 1.1,309.1 1.6,308.9 2,308.8
			2.3,308.7 2.6,308.6 2.6,308.5 2.2,308.4 1.8,308.4 		"/>
		<polygon fill="#00247D" points="214.2,184.9 214.7,184.9 215.1,184.7 215.2,184.4 215.4,183.6 215.6,183.2 215.5,182.9
			215.6,182.6 215.5,182.4 215.1,182.3 214.7,182.4 214.4,182.6 214.1,182.8 213.6,182.9 213.7,183.2 214,183.3 214.3,183.4
			214.7,183.2 214.7,183.7 214.3,184.2 213.7,184.3 213.2,184 211.8,185.2 211.5,185.3 210.9,185.3 210.6,185.3 210.5,185.3
			210.2,185.5 210.1,185.7 210.1,185.7 210.1,185.7 210.1,185.7 211.5,185.7 211.9,185.7 212.2,185.5 212.8,185.1 213.2,184.9
			213.7,184.9 		"/>
		<polygon fill="#00247D" points="4.2,309.4 5,309.3 5.2,309.3 5.4,309.3 8.3,308.5 8.4,308.5 8.3,308.4 8.1,308.4 6.8,308.5
			5.8,308.8 5.1,308.8 4.7,309.1 4.1,309.1 4,309.2 4.1,309.3 4.1,309.3 		"/>
		<polygon fill="#00247D" points="7.5,305.7 7.2,305.1 6.7,304.9 6.4,304.8 5.9,304.8 3.7,305.4 3,305.4 2.7,305.4 2.5,305.8
			2.2,306.2 2.1,306.3 1.8,306.5 1.5,307 1.2,307.4 1.1,307.8 1.7,307.7 2.1,307.4 3.8,306 4.3,306 4.6,306.5 4.6,306.8 4.7,307.4
			4.8,307.9 5,308.2 5.2,308.2 5.4,308.2 5.7,308.1 5.9,307.6 6.1,307.8 6.3,308.1 6.3,308.2 6.9,308.1 7.4,307.9 7.7,307.5
			7.8,306.9 7.8,306.3 		"/>
		<polygon fill="#00247D" points="33.8,348.1 34,348 34,347.9 34.1,347.8 34.2,347.7 34.1,347.5 33.8,347.5 33.4,347.5 33.3,347.6
			33.4,347.7 33.5,347.8 33.5,348.1 		"/>
		<polygon fill="#00247D" points="2.6,315.5 3.1,315.1 3.2,314.9 3.1,314.8 2.9,314.8 2.8,314.8 2.7,314.8 2.2,315 2.2,315
			2.2,315.1 2,315.2 2,315.4 2,315.4 2.3,315.5 		"/>
		<polygon fill="#00247D" points="232.6,64.3 232.4,64.2 232.2,64.6 232.1,65 232.2,65.4 232.5,65.3 232.8,65 233.1,65.1
			233.7,65.5 233.5,65.7 234.6,66.1 235.2,66.1 235.7,66.1 236.3,65.9 236.5,65.9 236.9,66 237,65.9 237,65.7 237,65.4 236.8,64.9
			236.8,64.6 237.1,64.4 237.5,64.3 237.7,64.2 237.5,63.8 237.2,63.5 237.1,63.4 236.5,63.7 235.3,64.5 234.8,64.8 234.5,64.7
			234.3,64.4 234,64.2 		"/>
		<polygon fill="#00247D" points="241.5,49.7 240.8,49 241,49.6 241.6,50.2 242.3,50.4 243,50.3 243.2,50.5 243.3,50.6 243.3,50.8
			243.2,51 243.8,50.9 244.1,50.9 244.3,51 244.4,51.3 244.4,52 244.6,52.2 244.9,52.2 245.3,52 245.6,51.9 245.8,52.2 245.8,52.6
			245.9,52.9 246.1,53.1 246.5,53.1 246.7,52.9 247.3,52 247,51.8 246.5,51.2 246.5,51.1 246.5,51 246.5,50.9 246.4,50.8
			246.3,50.8 246.1,50.7 246,50.7 245.9,50.6 245.5,50.1 245.5,49.8 245.7,49.5 245.8,49.1 245.9,48.9 246.2,48.6 246.3,48.3
			246.1,48.2 245.8,48.2 245.1,47.9 244.4,47.6 244,47.3 244,47 244.5,46.7 243.7,46.3 243.6,46.1 243.5,45.8 243.3,45.5
			243.1,45.3 242.8,45.2 242.1,45.3 241.8,45.8 241.9,46.3 242.4,46.7 242.1,47 241.8,47.1 241,47.1 241.3,47.6 241.8,47.8
			242.2,48 242,48.5 241.9,48.8 241.9,49.2 241.9,49.5 241.7,49.7 		"/>
		<polygon fill="#00247D" points="229,176.4 230.1,175.5 230.5,174.8 230.5,174.7 230.2,174.6 230.1,174.6 229.9,174.6 229.7,174.7
			229.5,175.2 229.3,175.3 228.5,176 228.4,176.1 228.3,176.3 228.4,176.4 228.6,176.5 		"/>
		<polygon fill="#00247D" points="273.1,166.4 273.8,165.4 274.3,165.3 275,165.4 275.7,165.4 276.1,164.8 276.4,162.9 278.2,160.1
			277.9,160.2 277.7,160.3 277.4,160.5 277.3,160.7 277.3,160.1 277.6,159.7 278.3,158.9 278.6,158.8 278.8,158.9 279,159.1
			279.3,159.2 279.5,159.1 280.7,158.3 281.8,157.1 282.5,156.1 282.9,155.1 283,155 283.3,154.6 283.4,154.5 283.4,154.3
			283.4,153.6 283.4,153.2 283.5,153 283.9,152.5 284.5,151.4 285.4,149 285.7,148.5 285.9,148.4 286.3,148.3 286.4,148.2
			286.4,148.1 286.4,147.9 286.4,147.8 286.4,147.7 287,145.8 287.2,145.5 287.8,145.4 288.2,145.2 288.5,145 288.6,144.8
			288.9,144.1 289.4,143.6 289.5,143.2 288.6,143 287.7,143.1 287.2,143.1 286.8,142.9 286.7,142.8 285.9,142.4 285.5,142.2
			285.3,142 285.2,142 284.9,142.4 284.9,142.6 285.7,142.6 284.9,143.2 284.9,143.3 284.8,143.5 284.6,143.4 269.2,154.5 		"/>
		<polygon fill="#00247D" points="169,2 168.7,2.2 171,3.4 172.1,4.2 177.6,10.2 178.1,10.4 178.5,10.7 179.3,12.5 179.8,13.1
			181.4,14.4 181.8,14.9 182.7,16.6 183,17.9 182.9,19.3 182.4,20.6 181.5,21.6 181.1,21.4 180.5,21.3 180.1,21.5 180.1,22
			180.3,22.3 181.4,23.3 182,24 182.4,24.3 182.8,24.4 183.3,24.3 184.1,23.9 184.5,24 184.2,24.3 183.2,24.9 183,25.1 183.2,25.4
			184,26.2 184.3,26.4 184.6,25.7 184.9,25.1 185.4,24.7 186.2,24.6 186,24.9 185.8,25.2 185.3,25.7 185.4,25.7 185.8,25.7
			186,25.7 185.1,26.5 184.9,27 185.3,27.7 187.6,30.4 187.8,30.6 188.1,30.5 188.2,30.3 188.3,28.3 188.2,28.3 188.1,28.2
			188.1,28.1 188.1,27.9 188.3,27.7 188.7,27.6 188.8,27.4 188.6,27 189.1,26.7 189.4,26.5 189.6,26.5 190,26.9 190.1,27
			190.4,26.9 190.6,26.8 190.9,26.8 191.1,26.6 190.8,26.1 191,26 191.3,26 192,26.4 192.5,26.4 192.9,26.2 193.1,25.7 192.9,25.2
			192.5,24.7 192.4,24.2 192.9,23.8 193.3,25.1 193.6,25.5 193.7,24.5 193.7,24.4 194,24.4 194.2,24.5 194.2,24.7 194.2,25
			194.5,25.1 195.5,24.9 195.1,25.5 194.9,26.1 194.8,26.2 194.4,26.4 194.3,26.4 194.1,26.2 193.8,26.2 193.4,26.6 193.3,27.1
			193.2,27.7 193.1,28.1 192.4,27.2 192.3,27.5 192.3,28.5 192.3,28.7 191.9,28.6 191.6,28.3 191.3,28 191,27.7 191,27.9
			190.9,28.1 190.3,27.9 190,28.3 189.8,28.9 189.7,29.5 189.5,30 188.6,30.9 188.4,31.4 188.6,31.9 200.9,45.3 201.8,46.9
			205.4,50.8 206.2,53.4 206.9,54.4 208.2,54.4 209.5,53.9 210,53.6 210.2,53 209.9,52.4 209.4,51.9 209.1,51.6 209.7,51.4
			209.4,51.1 209,51 208.6,51.1 208.3,50.9 206.8,49.1 206.6,48.9 206.3,48.7 206.1,48.6 205.8,48 205.5,47.9 205.2,47.7
			204.9,47.6 204.7,47.3 204.4,46.7 204.2,46.5 204,45.9 203.8,45.2 203.6,44.6 203,44.3 202.9,44 201.5,42.4 201.6,42 202.6,41.6
			202.8,41 202.6,40.8 202.4,40.6 202.2,40.4 202.2,40 202.4,40 202.7,40.2 203,40.4 203.1,40.6 203.3,41.3 203,41.7 202,42.4
			202.9,42.9 203.2,43.3 203.5,44.1 204.3,44.7 204.5,45.2 204.5,46.2 204.7,46.7 205.1,46.9 205.5,47 205.9,47.3 206.3,47.7
			206.5,47.9 206.8,48.1 208.1,48.1 208.6,48.2 209,48.6 209.3,49 209.6,49.4 210.2,50.1 210.4,50.2 210.7,50.3 211,50.4
			211.3,50.7 211.5,50.8 211.8,50.8 212,50.8 212.2,50.6 212.2,50.4 212.4,50.3 213.4,50.1 212.9,49.5 212.6,49.3 212.4,49.3
			212.1,49.5 212,49.7 211.8,49.7 211.5,49.6 211.5,49.4 211.7,49 211.4,48.6 211.2,48.5 210.8,48.4 210.3,48.4 210,48.3 210,47.7
			209.7,47.5 210.9,46.7 211.3,46.7 211.2,47.5 211.7,46.9 212,46.8 212.5,46.7 212.2,47.3 212.1,47.6 212.1,47.9 212.1,48.2
			212.2,48.3 212.4,48.3 212.7,48.4 212.9,48.4 213.1,48.4 213.3,48.5 213.4,48.9 213.5,49.1 213.7,49.1 214,49.1 214.3,49.2
			214.2,49.3 213.8,49.7 214.5,49.4 215.2,48.7 215.6,47.8 215.4,46.9 216.5,47.2 216.7,47.3 217,47.7 217,48 216.6,48 216.2,47.8
			216,48.2 216,48.5 216,48.7 215.8,49 215.2,49.6 214.7,50.5 214.6,51.2 214.4,51.2 213.9,50.8 213.1,50.6 212.9,50.7 213,51.2
			213.2,51.4 213.6,51.5 214.3,51.6 214.8,51.4 215.3,51 215.8,50.7 216,51 216.3,50.9 216.9,50.4 217.2,50.3 217.6,50.2 218,50.1
			218.3,50 218.6,49.7 218.7,49.9 218.8,50 218.8,50 219,50.1 218.9,50.5 218.7,50.6 218.5,50.6 218.2,50.7 217.5,51.2 216.7,51.5
			216.3,51.7 215.9,52.1 215.5,52.3 214.9,52.4 213.8,52.5 213.3,52.4 213,52.2 212.7,52.2 212.5,52.9 212.1,52.7 212.3,53.6
			212.9,54 213.7,54.2 215.3,54.1 215.6,54 215.9,53.7 216.3,53.3 216.5,53.3 217.4,53.7 217.4,53.8 216.8,54.3 216.7,54.6
			216.9,54.9 217.3,55.2 217.5,55.5 217,55.9 216.9,56 216.9,56.1 216.9,57.5 217.1,57.7 217.3,57.3 217.5,57.7 217.2,58.9
			217.5,59.4 217.6,59.3 218.1,59.2 217.9,59.5 217.5,59.8 217.3,60 217.2,60.4 217.1,60.8 217,61.1 216.7,61.1 216.4,61.6
			216.2,61.3 215.9,60.7 215.6,60.3 215.6,60.5 215.6,60.9 215.6,61.1 215.1,60.8 214.8,60.7 214.5,60.7 214.6,60.4 214.7,60.2
			214.6,59.9 214.3,59.8 214.7,59.7 215.1,59.6 215.4,59.5 215.3,59.4 215,59.4 213.9,59 214.3,58.8 214.4,58.5 214.1,58.2
			213.7,58.1 213.3,57.9 212.7,57 212.1,56.6 211.7,55.7 211.3,55.5 210.9,55.6 210.7,55.9 210.2,56.6 210.1,56.2 210.1,55.9
			210.4,55.1 210.1,55.1 209.9,55.3 209.7,55.5 209.7,55.9 209.8,57.1 210.6,58.4 214.4,62.2 215.8,64.2 216.3,65.5 216.9,68
			218,71.1 218.3,71.6 218.9,71.8 219.5,71.6 220.1,71.2 220.5,70.7 221.1,71.2 221.3,71.2 221.6,70.9 221.7,70.6 221.9,70
			222.1,69.6 222.9,69.2 223.8,69 225.6,68.9 227.3,69.2 227.2,69.5 227,69.7 226.6,69.9 226.3,70 226,70.3 226.1,70.9 226.5,71.2
			227.2,70.5 227.4,70.9 227.6,71.5 227.8,71.8 228.3,71.7 228.8,72 230.2,72.5 230.1,72.8 230.4,73.1 230.5,73.5 230.4,73.8
			230,73.9 229.7,73.7 228.6,72.8 228,72.8 227.4,73.2 226.2,74.3 226.3,73.7 226.1,73.7 224.6,74.7 224.2,74.9 224.7,75 226,75.3
			226.6,75.2 226.2,75.5 225.8,75.5 225,75.4 224.7,75.6 224.8,76 225.1,76.7 224.8,77.4 224.4,77.1 224,76.4 223.9,75.5
			222.5,73.3 222.5,73.2 222.8,72.9 222.9,72.6 222.6,72.4 222.2,72.3 221.1,72.5 220.3,72.4 219.9,72.4 220.1,73.2 221.2,74.9
			221.4,75.5 221.5,75.7 222.1,76.7 222.4,77.6 223.5,79.7 223.9,80.2 224.5,80.6 224.9,80.4 225.7,79.3 225.9,79.1 226.4,78.9
			226.7,78.7 227.1,78.5 227.4,78.6 227.5,78.8 227.4,78.9 226.8,79.2 226.4,79.7 226.2,80.3 225.9,80.8 225.6,81 224.8,81.1
			224.5,81.3 224.2,81.6 224.2,81.9 224.5,83.2 226.1,86.2 227.8,91.5 228.3,91.9 229.1,91.6 229.3,91.7 229.5,91.8 229.6,91.8
			229.7,91.7 229.8,91.4 229.9,91.2 231.1,90.7 231.3,91.1 231.2,91.5 230.9,91.8 230.5,92 230.8,92 231,92.2 231.2,92.3
			231.3,92.6 229.8,92.7 228.3,92.8 227,93.1 226.2,94.4 226,97 226.1,97.5 226.9,97.9 227.2,97.6 227.5,96.9 227.9,96.5
			228.5,96.5 228.9,97 228.8,97.5 228.4,97.8 227.5,98.5 227.2,98.7 226.9,98.7 226.7,98.8 226.4,99.1 226.3,99.4 226.2,99.8
			226.2,100.2 226.5,100.4 226.9,100.3 227.1,100.1 227.2,99.8 227.4,99.5 228,99.4 228.7,99.6 229.3,100 229.2,100.5 229.4,100.7
			229.6,100.6 229.8,100.5 230.3,100.5 229.8,101.1 229.1,101.2 228.2,101.1 227.5,101.3 228.1,101.7 228.3,101.9 227.7,102.1
			227.3,101.9 227,101.5 226.6,101.3 226.6,101.7 226.4,101.7 226.2,101.5 226.1,101.3 225.9,101 225.9,100.7 225.4,100.9
			224.9,101 224.4,100.9 224,100.7 223.9,101.1 224,101.6 224.2,102.1 224.4,102.6 224.3,103.2 224.1,104.1 223.9,105.7
			223.7,106.8 223.4,107.7 222.4,109.5 222.2,110.5 222.1,115.2 222,115.6 221.9,116 221.8,116.4 222,116.9 221.5,117 221.4,117.3
			221.4,118.1 221.3,118.5 221.1,119.1 220.9,120.1 220.4,120.7 217.2,123.4 216,124.1 214.7,124.4 211.1,124.2 210.5,124.3
			203.5,127.7 200.7,128.7 199.5,129.5 198.7,130.7 198.3,132 198.2,133.3 198.3,134.5 198.9,135.8 199.7,136.8 200.7,137.7
			204.4,139.8 205.9,140.2 210.6,140.8 212,141.1 213.4,141.7 214.5,142.6 216.1,144.6 216.6,145.1 219.5,147.2 220.1,147.5
			220.8,147.7 222.5,147.8 224.7,148.4 226.9,148.4 227.6,148.5 229.1,149 231,150 233.5,152.1 234,152.9 236.1,154.6 236.5,155.2
			236.9,155.9 237.4,157.4 237.7,159.1 238.2,159.8 239.1,160 239.9,159.7 240.6,159.2 241.1,158.5 241.5,157.7 241.7,157.7
			241.7,158.4 241.4,159 241.1,159.4 240.6,159.8 240,160.1 239.6,160.3 239.3,160.3 238.8,160.3 238.5,160.2 238.4,160.3
			238.3,161.4 237.9,162.9 237.7,163.4 237.7,163.6 237.7,164 237.8,164.5 237.9,164.9 237.8,165 237.5,165 237.3,165 237.2,165.1
			237.2,165.2 237.2,165.4 237.2,165.5 237.1,166.2 237,167.7 236.8,168.2 236.5,168.7 235.7,170.6 234.5,172.7 232.9,174.7
			231.3,176 231.1,176.4 230.5,177.7 230.4,178.3 230.3,178.6 230.1,178.9 229.9,179.2 229.6,179.4 229.2,179.6 228.9,179.7
			228.6,179.8 228.1,180.3 227.8,180.4 227.6,180.6 227.8,181 228.1,181.3 228.3,181.4 228.4,181.7 228.4,182 228.3,182.2
			227.9,182.5 227.5,181.8 227.3,181.8 226.9,182.1 226.3,182.3 225.9,182.6 225.2,183.7 224.6,184.2 223.5,185.2 223.1,185.5
			221.8,185.7 221.3,185.9 221,186.4 221.3,187.3 222.3,188.1 223.6,188.6 224.8,188.8 225.2,188.7 225.5,188.5 225.8,188.3
			226.1,188.4 226.4,188.5 226.7,188.5 227,188.3 227.2,188.1 227.3,187.5 226.9,187.2 225.7,187 225.8,186.5 226.1,186.2
			226.4,185.9 226.8,185.7 227.4,185.5 228.2,185.4 228.9,185.5 229.2,186.1 229.1,186.8 228.5,187.9 228.3,188.5 228.3,189.1
			228.5,189.6 228.5,190.1 228.2,190.6 228.2,190.8 228.6,191.1 229.2,191.4 229.6,191.5 229.9,191.5 230.2,191.3 231.5,190.2
			232.1,189.9 232.8,189.8 233.6,189.8 236.8,190.8 237.1,191 237.3,191.2 236.8,193.3 236.8,193.7 237,194 237.3,194.3
			237.4,194.6 237.2,195 237.7,195.2 237.9,196.1 238.3,196.3 240.4,196.1 240.9,196 241.8,195.2 242.2,195 244.1,194.4
			250.1,190.9 251.7,190.3 253,189.5 254,188.7 258.2,186.1 260.9,183.2 261.5,182.2 262.4,179.7 262.7,179.1 263.1,178.5
			263.7,178 265.1,177.6 265.5,177.1 265.9,175.8 266.9,174 267.5,173.2 268.5,171.2 268.7,170.9 268.9,170.8 269.3,170.8
			269.5,170.7 270.1,169.9 259.1,161.9 242.6,173.9 242.6,173.9 242.6,173.9 242.6,173.9 242.6,173.9 248.9,154.5 232.4,142.6
			252.8,142.6 259.1,123.2 265.4,142.6 284.4,142.6 284.4,142.5 284.9,141 284.7,138.5 284.5,138 284.2,137.7 283.9,137.5
			283.7,137.2 283.6,136.8 283.6,136.3 283.7,135.9 283.9,135.6 284.2,135.3 284.5,134.5 284.6,134.5 285.3,134.1 286.2,133.2
			286.9,132.5 287.3,132 287.6,131.4 287.7,130.8 288,130.5 291.7,129.1 296.8,127.2 297.5,126.7 297.7,126.7 298,126.9 298.3,127
			302.7,127.1 307,127.3 307.4,127.4 308.2,127.8 308.5,127.9 308.9,127.5 309.4,127.5 309.8,127.7 309.8,128 309.5,128.3
			309.3,128.7 309.1,129.2 308.9,129.6 308.9,130.4 309.1,131.3 309.8,133 310.3,132.6 310.7,132.3 311,132 311.3,131.1
			311.9,129.8 313.4,128.6 313,127.9 312.1,127.5 310.2,127.4 310.4,126.8 310.8,126.4 311,126 310.8,125.5 311,125.1 311,124
			311.4,123.2 311.7,121.6 311.7,120.2 311.9,119.6 312.4,118.9 312.4,118.6 312.2,118.3 311.7,117.9 311.6,117.7 311.6,117.4
			311.5,117.3 311.6,117 311.7,117 311.8,117 312.1,116.9 312.7,116.6 313.3,116.5 314,116.6 315.1,117.4 315.6,117.2 318.4,115.2
			321.4,112.6 321.6,112.3 321.5,110.6 321.7,110.3 322.7,109.9 322.9,109.7 322.9,109.3 322.7,109 322.5,108.8 322.1,108.7
			322.3,108.4 322.4,107.8 322.5,107.4 322.9,107.1 323.2,106.8 323.3,106.5 323,106.1 322.4,105.7 322.1,105.1 322.2,104.5
			322.6,104.1 323,103.5 323,103 322.4,101.9 322.6,101.4 323.2,101.1 323.6,100.7 323.8,100 323.5,99.4 323.1,98.9 322.9,98.2
			323,97.9 323.2,97.7 323.6,97.2 323.9,96.8 324.7,95.1 325.1,94.5 326.1,93.9 326.4,93.3 327,92 328,91.1 328.5,90.5 328.7,90.2
			328.8,89.8 328.4,89.2 328.1,89 323.9,92.1 325.2,88 324.9,87.8 324.6,87.7 323.6,87.7 323.1,87.7 322.7,87.5 322.4,87.3
			321.9,86.9 321.6,86.8 321.6,86.6 321.9,86.3 321.6,86.1 321,85.9 314.3,85.7 313.2,85.5 313.5,85.9 313.6,86.2 313.6,86.5
			313.2,86.8 312.7,87 311.5,87.1 311.1,87.2 310.4,88 310.1,88.3 309.6,88.4 309,88.5 306.3,89.1 306.1,89.3 306,89.6 305.9,89.8
			305.5,90.2 305.2,90.7 304.8,91.7 304.4,92.2 303.3,92.7 303.1,92.8 303,93.1 302.6,93.8 302.6,94.5 302.5,94.7 302.2,95
			301.4,95.6 299.3,96.6 298.8,96.9 298.1,97.3 295.7,97.4 294.9,97.6 294.6,97.6 294.4,97.7 294.4,97.9 294.4,98.1 294.3,98.1
			294.1,98.2 294,98.3 293.9,98.3 293.7,98.2 293.4,97.8 293.4,97.8 291.6,97.8 291.2,97.6 291,97.4 290.7,97.3 290.3,97.4
			290.5,97.7 290.6,98.1 290.5,98.4 290.2,98.5 289.8,98.5 289.5,98.3 288.2,97.6 288,97.5 288.3,97.4 289.9,97.4 288.9,96.9
			286.4,96.7 284.9,95.9 283,95.7 281.4,95.2 279.7,95 278.6,94.6 273.2,91.4 272.8,91.6 272.6,91.5 272.5,91.3 272.4,91.2
			271.6,91.2 271.2,91.1 270.6,90.6 270.3,90.5 269.5,90.4 267.9,89.7 267.1,89.6 266.4,89.3 265.5,87.9 265,87.5 264.6,87.6
			264.7,88 265.3,88.8 265.7,90.1 265.3,90.2 264.9,90.3 264.5,90.3 264.4,90 264.4,89.6 264.4,89.2 264.2,89 263.9,88.8
			263.3,88.7 263.2,89 263,89.2 262.6,89.4 262.4,89.2 262.1,88.9 261.9,88.8 261.4,89 261.2,88.6 261,88.2 260.8,87.9 260.3,87.7
			260.2,87.8 260.1,87.9 260,88 259.7,88.1 259.3,88.1 259.1,88 259,87.9 258.9,87.8 258.8,87.1 258.9,87 259,86.9 259,86.7
			259,86.6 258.9,86.5 258.6,86.5 258.4,86.4 258.4,86.4 258.2,86.4 258.1,86.4 257.9,86.2 257.8,86 257.9,85.8 258,85.6
			258.1,85.5 257.9,85.4 257.7,85.1 257.5,84.9 258.8,84.7 259.5,84.7 260,85 260.4,85.3 260.9,85.7 261.8,86.2 261,86.5
			260.7,86.6 261.1,86.9 261.5,87 261.9,86.9 262.4,87 262.7,87.1 263.7,87.7 263.6,87.2 263.2,86.9 262.4,86.3 262.2,86
			261.8,85.2 261.5,84.8 261.1,84.5 260.7,84.2 260.2,84 259.7,83.8 258.6,83.7 258.4,83.5 258.6,83.1 258.8,83 259,83.2
			259.2,83.2 259.2,82.9 259.1,82.6 258.7,82.4 258.6,82.2 258.5,81.8 258,81 257.9,80.5 257.8,79.5 257.5,78.4 257.3,77.9
			256.9,77.6 256,77.3 256.4,77 256.3,76.5 256.1,75.9 256,75.2 256.2,75.2 256.3,75.5 256.5,75.8 256.7,76 257,76.2 256.8,75.8
			256.9,75 256.8,74.7 256.5,74.6 256.2,74.5 255.9,74.4 255.9,74.2 256.4,73.6 256.8,72.9 256.9,72.2 256.4,71.7 256.2,71.9
			255.9,72.2 255.6,72.4 255.5,72.2 255.6,71.9 255.8,71.6 256,71.3 255.9,71 255.9,70.9 256,70 255.8,68.7 255.7,68.3 255.6,68.1
			255.2,67.7 255.1,67.4 255.1,66.7 255,66.4 254.4,66 253.3,66.2 252.7,65.9 252.3,66.3 252.5,67.1 252.1,67.4 252.1,67.7
			251.9,67.7 251.6,67.6 251.3,67.3 251.2,67.1 251.3,66.9 251.3,66.7 251,66.5 251.4,65.9 251.8,65.5 252.2,65.2 252.9,65
			253.2,64.8 253.8,64 253.9,63.9 254.7,64 254.9,63.9 255.1,63.5 255,63.1 254.8,63.1 254.4,63.3 254.1,63.2 253.7,62.9
			253.4,62.8 253,62.8 252.5,62.9 251.8,63.4 251.4,63.5 251.1,63.4 250.8,63.2 250.4,63.2 250.1,63.3 249.9,63.5 250,63.5
			250.4,63.7 249.3,64.4 249,64.3 248.8,63.5 248.9,63.2 249,63 249.1,62.7 249,62.4 248.7,62.3 247.9,62.4 247.6,62.3 247.4,62
			247.5,61.7 247.8,61.7 248.1,61.9 248.4,62 248.5,61.7 248.4,61 248.2,60.3 247.7,60.1 247.1,60.1 246.5,59.8 247.1,59.2
			247.2,58.5 246.8,57.8 246.4,57.3 245.6,58 245.4,58 244.8,57.5 244.6,57.4 244.5,57.3 244.4,57.3 244.3,57 244.1,56.8 244,56.6
			243.9,56.4 243,56.6 242.3,56.5 241.7,56.5 241.5,56.9 241.6,57.9 241.7,58.4 242,58.7 242.4,59.1 243.4,59.4 243.9,59.6
			244.4,60.2 244.5,60.2 244.6,60.5 244.9,60.6 245.2,60.6 245.4,60.7 245.5,61.3 245.2,62 245,62.7 245.6,63.5 245.4,63.8
			245.5,64.1 245.6,64.3 245.8,64.6 245.9,64.5 246.4,64.2 246.5,64.9 246,65.2 244.7,65.5 244.8,65.6 245,65.7 245.2,65.7
			245.4,65.7 245.2,66 245,66.1 244.6,66.2 244.3,66.3 244.7,66.5 245.1,66.5 246,66.5 245.6,67 245,67 244.3,66.9 243.7,67
			244.1,67.3 244.2,67.6 244.3,67.9 244.5,68.1 244.8,68.4 245.5,68.8 245.8,69.1 246,69.4 246.2,69.7 246.9,71.4 247,71.6
			247.1,71.9 247.1,73.4 247.2,73.8 247.7,74.6 247.7,74.9 248,75.6 248.1,76.5 248.2,76.9 248.5,77.2 249,77.3 248.5,77.5
			248,77.5 247.6,77.2 247.5,76.6 247.5,76 247.4,75.7 247.2,75.6 246.8,75.7 246.7,75.8 246.6,76 246.4,76.2 245.3,76.6
			244.1,76.8 242.9,76.8 241.9,76.3 241.4,75.9 241,75.4 240.7,74.8 240.6,74.2 240.9,72.3 241,71.7 240.9,71.3 240.8,71
			240.6,70.7 239.6,69.7 239.4,69.6 239,69.5 238.4,69.1 238.2,69.1 237.9,69.1 237,69.4 236.9,69.4 236.7,69.3 236.6,69.2
			235.9,69.6 235.5,69.7 235.2,69.9 234.8,70 234.4,69.9 234.1,69.4 234.4,68.2 234.1,67.6 233.5,67.4 232.6,67.3 232,67.4
			232.1,67.9 232.5,68.5 232.2,68.8 231.5,68.8 230.9,68.9 230.9,68.2 230.7,67.6 230.1,66.3 229.9,66.3 229.2,69.3 228.9,69.6
			228.8,69.6 228.6,69.4 228.5,69.1 228.3,68.5 228.5,68.3 228.7,68.1 229,67.8 229.1,67 228.5,66.7 226.8,66.7 225.6,66.4
			225.1,66.5 224.8,66.6 224.5,66.9 224.2,67.1 224,67.4 223.8,67.2 223.8,67.5 223.8,67.9 223.8,68.2 223.5,68.4 223.2,68.2
			223.1,67.8 223.1,66.7 223.1,66.5 222.9,66.4 222.5,66.2 222.4,66 222.6,65.8 223,65.6 223.3,65.4 222.8,65.3 221.8,65.4
			221.6,65.4 221.6,65.2 222,64.8 222.5,64.5 223.4,64.2 223.8,64.2 224.2,64.9 224.7,65 224.6,65.2 224.6,65.4 224.7,65.6
			224.9,65.7 225.6,65.4 226,65.5 226.4,65.8 227,65.9 225.3,61.8 224.9,61.2 224.4,60.7 225.5,61 226,61.1 226.6,60.9 227.9,60.3
			228,60.1 227.7,60 227.4,60 226.2,60.3 225.5,60.3 225.1,60.2 224.8,60 224.5,59.8 224.4,59.7 224.4,59.1 224.3,58.8 224,58.3
			224,57.9 224.2,57.7 224.7,57.4 224.9,57.2 224.7,57 224.5,56.8 224.3,56.7 224,56.6 224,56.4 224.6,56.4 224.7,55.9 224.2,54.7
			224.9,55 225.3,55.5 225.9,56.8 226,56.3 226.1,55.9 226,55.4 225.6,54.7 225.2,53.6 225.1,53.2 225.6,53.1 227.8,53.2
			228.6,53.1 228,52.9 227.2,52.8 226.6,52.6 226.4,52.1 226.5,51.8 226.6,51.8 226.7,51.9 226.8,51.8 226.8,51.8 226.9,51.9
			227,51.9 227.1,51.9 227.1,51.7 227.1,51.7 227,51.7 227,51.6 227.1,51.2 227.1,51.1 226.4,50.8 225.3,50.2 224.4,49.4
			222.9,47.5 222.4,47.1 222,46.8 221.7,46.5 221.6,45.8 221.7,45.5 221.8,45.3 221.9,45 221.6,44.7 221.3,44.6 220.6,44.6
			220.3,44.5 219.8,44.3 218.6,43.5 218.2,43.2 218.2,42.7 218.2,42 218.1,41.3 217.7,41 218.3,40.5 218.7,39.9 218.9,39.4
			218.4,38.9 217.8,38.8 216,38.6 215.5,38.6 215.3,38.9 215.1,39.3 214.9,39.5 214.5,39.5 214.3,39.2 214.2,38.9 214.3,38.6
			214.4,38.3 214.5,37.8 214.4,36.3 214.5,35.7 214.8,36 215,36.3 215.1,36.7 215.2,37 215.2,37.5 215.1,37.8 215.2,37.8
			215.6,37.8 215.7,37.7 215.9,37.3 216.1,37.3 216.2,37.3 216.5,37.6 216.7,37.6 217.1,37.5 217.8,37.3 218.2,37.3 218.2,37.7
			219,37.9 218.8,38.4 219.4,38.7 219.9,39.2 220.5,39.5 221.2,39.3 220.6,38.3 220.5,38 220.7,37.4 220.7,37 220.4,36.8 218.8,36
			219.1,35.9 219.4,35.8 219.6,35.6 219.7,35.3 219.6,35.1 219.3,35 218.6,34.8 219,34.7 219.1,34.6 218.1,34.2 217.7,33.8
			218,33.7 218.4,33.7 219.7,33.9 220.1,34.1 220.4,33.2 220.2,32.5 218.9,31.4 217.5,30.4 217.3,30.1 218.4,30 218.3,29.7
			217.6,28.7 217.4,28.5 217.3,28.5 217.2,28.2 217.1,28.1 217,28.1 216.9,28.2 216.9,28.3 216.9,28.3 216.4,28.2 215.8,28.1
			215.2,27.7 214.2,25.9 213.8,25.3 214,25.5 214.9,26.1 215.6,26.7 215.8,26.8 216.2,26.5 215.4,25.7 215.6,25.3 215.6,25.1
			215,25.2 214.4,25.1 214,24.8 213.8,24.2 213.9,23.6 214.3,23 214.5,22.5 214.3,21.8 213.5,22.4 212.7,23 212.6,23.3 212.6,23.4
			212.6,23.5 212.2,23.6 212.2,23.6 212,23.5 211.6,23.4 211.3,23.5 211.4,23.6 211.5,23.8 210.1,23.7 209.5,23.7 209.1,24
			208.9,23.8 209.2,24.3 209.9,24.5 210.6,24.7 211.2,24.8 211.5,24.9 211.6,25.1 211.5,25.4 211.2,25.5 211,25.4 210.8,25.3
			210.6,25.1 210.2,25.1 210.3,25.3 210.4,25.6 210.4,25.7 210.1,25.6 209.8,25.6 209.3,25.3 209.2,25.7 209,26.1 208.8,26.4
			208.7,26.3 208.7,25.6 208.6,25.3 208.5,25 207.4,24.2 207.3,23.8 207.3,23.5 207.5,23.1 207.6,22.8 207.3,22.3 207,22.5
			206.7,22.6 206.4,22.5 206.1,22.3 205.5,22.5 205.1,22.3 205.2,21.9 206.1,21.8 205.6,21.1 205.4,21 205.6,20.8 206.3,20.5
			206.6,20.9 206.9,20.9 207.1,20.7 207.3,20.7 207.4,21 207.4,21.3 207.5,21.5 207.8,21.6 208.9,21.3 208.7,20.6 208.2,20.1
			207.5,19.7 206.9,19.6 205.3,19.7 204.4,19.6 204.1,19.1 203.9,18.4 203.5,18 202.4,17.3 201.9,16.8 201.7,16.5 201.8,16.4
			201,16.3 200.5,16.4 200.1,16.6 199.6,16.6 199.4,16.8 199.4,16.9 199.4,17.3 199.4,17.5 198.9,18.4 198.8,18.7 198.9,18.9
			198.8,19 198.2,19 197.3,18.3 197.2,18.1 197.5,17.9 198.1,17.5 198.2,17.2 198.3,17 198.5,16.7 198.9,16.6 198.5,16.4
			198.3,16.4 198.1,16.4 197.9,16.3 197.8,16.2 197.7,16 197.5,15.8 197.5,15.7 197.5,15.5 197.4,15.3 197.2,15.3 197,15.3
			196.9,15.5 196.8,15.6 196.7,15.6 195.9,15.6 195.5,15.5 195.2,14.9 194.9,14.8 194.5,14.8 194.2,15.1 193.9,14.7 193.5,14.4
			193.2,14.4 192.9,14.9 192.9,15.3 193.2,15.6 193.6,15.9 193.8,16.2 193.8,16.3 193.5,16.8 193,16.2 192.5,16.1 191.1,16.2
			190.5,16.1 190,15.9 189.5,15.5 189.2,15.1 188.9,14.7 188.7,14.3 188.5,13.7 188.7,13.3 189,13.2 190.1,13.2 191.2,12.8
			190.8,12.4 190.7,12.2 190.9,11.9 190.6,11.9 189.7,12.3 189.9,11.9 189.9,11.6 189.9,11.4 189.8,11 189.6,10.8 189.4,10.8
			189.1,11.1 189.1,11.3 189.2,11.5 189.3,11.8 189.1,12.2 188.5,12.5 187.8,12.6 187.3,12.8 187.1,13.4 187.5,14.7 187.6,15.5
			187.2,15.8 186.8,15.9 186.7,16.2 186.6,16.5 186.4,16.8 186.2,16.8 185.3,16.6 185,16.6 184.8,16.6 184.7,16.4 184.7,15.3
			184.8,15 185,14.8 185.6,14.2 185.6,13.9 182,12.1 180.9,11.2 180.8,10.2 181.3,10.6 182.7,11.9 182.4,10.8 181.5,9.8 180.4,9
			179.5,8.2 179.2,7.1 178.9,5.5 178.5,4.2 177.8,3.9 178.2,4.5 178.4,5.3 178.3,6.1 178,6.7 177.7,6.9 177.6,6.7 177.7,5.1
			177.6,4.8 177.5,4.5 177.3,4.7 177.1,4.9 176.8,4.8 176.5,4.7 176.6,4.5 176.7,4.3 176.9,3.9 176.6,4 176.4,4.1 176.2,4.4
			176.2,4.7 175.3,4.2 175,3.9 175.3,3.8 175.5,3.6 175.6,3.4 175.6,3.1 176,3.4 176.2,3.2 176.3,2.6 176.5,1.9 176.7,1.9 177.3,2
			177.2,2.2 177.1,2.5 177.1,2.6 177.5,2.7 177.7,3.1 177.8,3.4 177.9,3.5 178.3,3.5 178.6,3.4 178.7,3.2 178.8,2.8 178.7,1.3
			178.9,0.8 179.7,0.4 179.3,0 179,0.1 178.7,0.3 178.4,0.5 177.9,0.6 174.8,0.4 174,0.9 173.1,1 172.8,1.3 172.1,1 170.5,0.9
			169.9,0.6 169.5,0.4 169.3,0.7 169.4,1.1 169.4,1.3 169.1,1.8 		"/>
		<polygon fill="#00247D" points="235,49.7 235.4,49.7 235.9,49.6 236.1,49.3 236.1,49 235.9,48.7 235.7,48.5 235.5,48.3
			235.2,48.3 234.5,48.6 234.1,49.1 234.6,49.7 		"/>
		<polygon fill="#00247D" points="227.7,55.7 228,55.8 228.9,55.9 229.3,55.7 229.4,55.5 229.2,54.8 229.1,54.5 228.7,54.1
			228.3,54 227.9,54.2 227.8,54.5 228.1,55.2 228.1,55.5 		"/>
		<polygon fill="#00247D" points="47.5,343.6 47.8,343.7 48.1,343.7 48.4,343.6 48.5,343.4 48.6,342.7 48.8,342.4 48.6,342.4
			48.3,342.2 48.1,342 48,341.8 47.9,341.7 47.7,341.7 47.4,341.9 47,341.9 45.5,342.3 45.2,342.2 45.2,342.1 45.5,342 45.6,341.9
			45.7,341.7 45.8,341.5 44.7,341.2 44,341.1 43.3,340.7 43,340.6 42.4,340.8 41.5,341.7 40.8,341.7 42.1,340.4 42.2,340.1
			41.9,339.6 42.4,339.4 43.9,339.5 43.8,339.8 46.2,340 46.9,339.8 46.9,339.7 46.3,339.5 46.9,339.1 46.5,338.8 45.9,338.5
			45.6,338.4 45.4,338.1 45,337.8 44.6,337.6 44.2,337.3 41.8,335 41.3,334.6 40.8,334.3 39.5,333.8 39.2,333.9 38.8,334.2
			38.5,334.3 38.1,334.3 37.3,334.1 36.5,334.1 35.9,334.2 35.5,334.6 35.4,335.4 35.3,335.5 35.2,335.7 35.2,335.8 35.3,336
			35.4,336.2 35.5,336.3 35.5,336.4 35.5,336.6 35.4,336.8 35.2,337 35.1,337.2 35.3,337.5 36.2,338.5 36.5,339.1 36.7,339.7
			36.6,340 36.5,340.3 36,340.9 35.7,341.1 34.9,341.1 34.5,341.2 34.4,341.8 34.6,342.5 34.7,343.2 34.2,343.6 33.9,343.5
			33.6,343.4 33.2,343.3 32.8,343.5 32.1,343.8 31.8,343.9 31.6,344.2 31.3,344.6 31.3,344.9 31.4,345.2 31.5,345.6 31.3,346
			31.2,346.2 31.2,346.5 31.6,346.7 30.7,347 30.1,347.3 29.6,347.4 29.3,347.6 29,348 28.7,348.7 28.5,349.4 28.7,349.9 29.2,350
			30.1,350 31.1,349.8 31.6,349.6 31.9,349.2 32.4,348.9 32.8,348.9 32.8,349.5 33.6,348.9 33.9,348.6 34.2,348 32.6,348.5
			31.7,348.6 31.3,348.2 32,348 33.4,347.3 33.9,347.5 34,346.8 34.1,346.7 34.3,346.6 34.7,346.6 35.3,346.2 35.5,346.4
			35.7,346.8 35.9,347.1 36.3,347.1 37.3,347 37.7,347.2 38.1,347.4 38.5,347.6 39,347.6 39.4,347.4 39.9,346.9 41.6,345.8
			42.3,345.6 43.9,345.4 46,345.4 45.7,345 46.6,345.3 46.9,345.1 46.7,344.5 46.9,344.3 47.5,344.3 47.7,344.4 47.9,344.8
			48,344.9 48.2,344.9 48.5,344.8 48.7,344.8 48.7,344.6 48.3,344.3 47.1,343.8 47.1,343.6 		"/>
		<polygon fill="#00247D" points="57.2,336.8 57.8,336.3 58.1,335.8 57.7,335.2 57.5,335.5 57.2,335.8 56.8,335.9 56.4,335.9
			56.6,336.3 56.9,336.5 57.1,336.8 57,337.1 		"/>
		<polygon fill="#00247D" points="209.6,188.6 209.5,188.8 209.9,188.7 210.5,188.3 211.4,188.2 211.6,188 211.7,187.7 211.8,187.4
			212.1,187.2 212.6,186.8 212.8,186.6 213.2,186 213.6,185.3 212.4,185.9 211.9,186.1 211.1,186.2 210.9,186.3 210.5,186.5
			210.1,186.6 209.8,186.5 209.4,186.4 209,186.1 208.7,185.8 208.5,185.9 207.9,186 207.4,186.3 207.1,186.3 206.8,186.2
			206.5,186.2 206,186.5 205.6,186.7 205.2,186.8 204.6,186.7 204.4,186.8 203.6,187 203,187 203,186.7 203.4,186.4 203.9,186.2
			204.4,186.1 204.8,186.2 205,185.9 205.3,185.8 205.6,185.9 206,186 206.4,185.6 207.1,185.5 208.5,185.5 208.9,185.4
			209.1,185.3 209.3,185.1 209.5,184.9 210,184.7 210,184.7 210.1,184.7 210.5,184.6 210.6,184.5 210.4,184.1 210.2,183.9
			209.7,183.4 209.5,183.1 209.3,182.8 209.3,182.6 209.7,182.7 209.8,182.4 210,182.1 210.1,181.9 210.2,182 210.2,183.1
			210.3,183.4 210.6,183.4 210.9,183.3 211,183.2 210.9,183.2 211.2,183 211.6,182.8 211.7,182.9 211.8,182.6 211.8,182.1
			212,181.8 213.4,180.1 213.6,179.7 213.4,179.3 213,179.4 211.9,180.3 211.3,180.8 210.9,181.2 210.3,181.3 209.9,181
			209.7,180.8 209.7,180.6 209.9,180.5 210.4,180.4 210.6,180.3 210.6,180.1 210.6,179.8 210.5,179.4 210.1,179 209.7,178.7
			209.3,178.6 209.4,179.1 209.1,179.5 208.7,179.7 208.2,179.3 207.8,179.8 207.3,179.9 206.7,179.8 206.1,179.5 205.1,178.7
			204.7,178.6 204.6,179.1 204.2,179 204,179.1 204.1,179.4 204.3,179.7 203.3,179.7 203.5,180 204.4,180.7 204.7,180.9
			204.9,180.6 205,180.1 205.2,179.9 205.6,179.9 205.9,180.2 205.8,180.6 205.4,181.1 205.5,181.4 206,181.9 205.1,181.9
			204.8,182.2 204.5,182.8 204.1,183.4 203.9,182.6 204,182.2 204.3,181.7 203.3,181.6 203.4,181.8 203.3,182 203.2,182.1
			203,182.1 202.8,182.2 202.8,182.3 202.8,182.5 202.8,182.7 202.4,182.9 202.1,183.1 201.8,183.4 201.7,183.8 201.9,184.6
			202.6,184.6 204.1,184.2 203.9,184.5 204,184.6 204.1,184.7 204.3,184.7 204.5,184.7 204.7,184.7 204.8,184.6 204.8,184.4
			204.8,184.3 205.3,184.2 208.4,184.2 207.8,184.7 207,184.8 205.4,184.7 205.8,185 206,185.1 205.5,185.3 204.9,185.4
			204.2,185.5 203.8,185.4 203.4,185.2 202.8,185.2 201.7,185.3 201.9,185.5 202.2,185.6 202.5,185.6 202.9,185.7 202.9,185.8
			201.9,186.1 199,187.3 198.8,187.3 198.6,187.1 198.4,186.9 198.3,186.6 199.8,186.3 200.6,186 200.9,185.7 201,185.3
			201.2,184.7 201.3,184.4 201.1,184.1 200.7,183.8 200.2,183.6 199.8,183.6 200.1,183.2 200.5,183.1 200.9,182.9 201.1,182.3
			201.3,182.4 201.5,182.4 201.6,182.3 201.7,182 201.6,181.9 201.5,181.8 201.5,181.6 201.5,181.4 201.7,181.4 201.9,181.5
			202,181.6 202.2,181.6 202.5,181.7 202.7,181.7 202.8,181.5 202.8,181.2 203,181 203.2,181 203.5,181 202.8,180.7 201.9,180.8
			200.1,181 200.1,181.1 199.4,181.8 199.3,182.3 199,182.4 198.7,182.3 198.5,182.1 198.7,181.9 199,181.7 199.1,181.4 199.2,181
			198.8,180.9 198.8,180.7 199,180.5 199.4,180.3 198.8,179.7 199.2,179.5 199.9,179.4 200.4,179.4 200.7,179.7 201.6,179.7
			202.5,179.5 202.9,179.1 202.7,179.1 202.6,179 202.6,178.9 202.4,178.8 202.6,178.6 202.9,178.5 203.2,178.5 203.5,178.6
			203.6,178.2 203.9,178 204.1,177.8 203.9,177.4 205.2,177.7 205.7,177.6 205.4,176.9 205.1,176.7 204.8,176.7 204.5,176.7
			204.3,176.7 202.9,177.3 202.5,177.4 202.4,177.4 202.4,177.5 202.3,177.9 202.2,178 201.4,178.7 201.3,178.8 200.6,178.6
			200.7,177.4 200.1,177.7 199.5,178.5 199.3,178.6 197.9,178.8 197.6,178.9 197.4,179 196.8,179.3 196.5,179.4 196.1,179.8
			196.1,180 196.1,180.3 196.2,180.4 197.3,179.9 197.6,180 197.8,180.1 197.9,180.4 197.6,180.7 197,181 196.3,181.2 195.9,181.5
			196.3,182.1 195.9,182.3 195.7,182 195.6,182 195.5,182 195.3,182.3 195.2,182.3 195.1,181.8 194.8,181.3 194.4,180.9
			193.9,180.8 193.5,180.9 193.1,181.3 192.8,181.6 193.1,181.9 192.9,182.2 192.6,182.2 192.4,182.1 192.2,182.1 191.9,182.3
			191.5,183 191.1,183.3 190.7,183.5 189.7,183.8 189.8,183.6 189.9,183.3 189.9,183.1 189.7,183 189.5,183.1 189.1,183.5
			188.5,183.7 186.8,185 185.7,186.1 185.3,186.5 184.3,187 183.3,187.6 182.8,187.8 182.2,187.9 181,187.9 180.4,187.8
			179.9,187.5 179.7,187.1 179.8,186.9 180.3,186.8 180.4,186.6 180.4,186.4 180.1,185.7 179.8,184.6 179.6,184.2 179.3,184.5
			179.1,184.5 179.1,184.2 178.9,184 178.5,183.7 178.4,183.5 178.6,182.5 178.8,182.6 179,182.8 179.2,183 179.3,183.2
			179.4,182.8 179.2,182.4 178.9,182.1 178.8,181.6 178.7,181.2 178.4,179.9 178.1,180 177.9,180 177.7,180 177.5,179.9
			178.1,179.5 178.8,178.9 179.1,178.6 179.1,178.4 179.1,178.2 179,177.7 179.2,176.5 179.3,176.3 179,175.9 178.7,175.8
			178.3,175.9 177.8,175.8 178.1,175.5 178.2,175.3 178,175 178.2,174.5 178.2,174.2 178,173.9 177.6,173.5 177.3,173.5
			176.9,173.7 176.5,174.1 176.2,173.8 176,173.8 175.6,174.1 175.5,174.2 175.6,174.6 175.5,174.7 175.1,174.7 175,174.8
			174.3,175.2 174,175.3 173.6,175.2 171.3,173.8 170.4,173 170,172.3 169.4,172.5 169.2,172.6 169.1,172.2 169.4,171.4
			169.4,170.9 169.3,170.8 168.8,170.7 168.7,170.6 168.3,169.8 168.8,169.9 169.2,169.9 169.3,169.6 169.1,169.1 169.5,168.8
			169.7,168.3 170,167.2 170.3,166.7 170.5,166.4 171,166.3 176.8,166.7 177.5,166.5 176.6,166.4 174.9,166.1 173.2,165.9
			167.8,166.1 166.6,166.6 165.5,167.6 165.9,167.7 166.2,167.7 166.6,167.5 167,167.2 167.1,167.3 167.4,167.6 167.4,167.8
			166.5,168.1 166.6,168.5 166.5,168.7 166.2,168.8 166,168.9 165.6,168.7 165.4,168.9 165.2,169.1 165.1,169.3 164.7,169.1
			164.7,168.8 165.2,167.9 164.4,168.2 164.4,175 164.4,175 164.4,175 155,175 154.6,175.3 154.3,175.9 154.1,176 153.8,176.1
			153.5,176.1 153.3,176.3 153.3,176.8 153.4,177.7 153.4,180.6 153.6,182 153.5,182.3 153.3,182.9 153.2,183.2 153.5,186.2
			153.6,186.6 154.2,187.3 153.8,187.3 153.5,187.5 153.3,187.6 153.1,187.6 152.9,187.5 152.7,187.8 152.7,188.5 152.6,189
			152.6,189.4 152.2,189.9 152.2,190.2 152.2,190.4 152.3,190.7 151.7,190.8 150.9,191.2 150.2,191.7 149.9,192.1 149.9,192.4
			149.8,192.7 149.6,192.9 149.4,193.2 149.3,193.3 149.2,193.3 149.2,193.4 149.1,194 149,194.1 148.9,194.1 148.8,194.2
			147.8,195.9 147.4,196.4 147.1,196.6 146.8,196.7 146.6,196.9 146.4,197.5 146.2,197.6 145.8,197.5 145.4,197.6 145.2,197.7
			144.5,198.3 141.9,199.6 140.6,200 140.4,200 139.9,200 138,200.2 136.3,200 135.9,200.2 136,201.5 136,201.7 136.1,201.9
			136.3,201.7 136.5,202 135.9,203 135.7,203.9 135.3,204.4 134.8,206.1 134.6,206.8 134.2,207.2 133.2,208.1 133.1,208.3
			132.8,209 132.7,209.6 132.2,210.6 131.5,214.6 130.9,215.8 129.6,217.3 129.4,218 129.8,218.5 130.6,218.7 132.4,218.6
			133.1,218.5 133.7,218.2 132.6,219.1 129.6,219.1 129,219.2 128.5,219.7 126.5,222.7 126,222.9 125.4,223.9 124.9,224.4
			124.5,224.6 124.2,224.7 123.9,224.9 123.5,225.4 123.3,225.8 123.4,226 123.9,226.3 124.4,227 124.5,227.6 124.5,228.2
			124.6,228.9 124.6,229.1 124.8,229.3 125,229.5 125.3,229.8 125.8,230.1 126,230.2 126,230.5 124.8,229.8 124.6,229.5
			124.2,229.3 123.6,229.2 123.1,229.4 123.3,229.9 123.8,230.6 124.3,231.6 124.3,232.6 123.8,233.1 123.7,231.7 123.6,231.1
			122.7,229.6 123,229.2 123.7,228.9 124.2,228.5 124.2,227.9 123.9,227.1 123.5,226.5 123,226.2 122.3,226.2 122,226.3
			121.7,226.5 119.3,229.5 118.9,229.8 118.4,230 117.4,231.1 116.9,231.5 115.9,231.8 115.6,232 115.3,232.3 115.3,232.5
			115.4,232.7 115.6,233.7 116.3,234.6 116.4,235.4 115.8,234.7 115.1,233.5 114.3,232.6 113.5,232.7 112.4,233.3 110,233.9
			108.9,234.4 111.2,235.2 112.3,235.8 113,236.7 112.5,236.2 109.2,234.8 108.4,234.7 108.4,235.2 107.8,235 107.3,235.3
			107,235.6 106.5,235.9 106.7,236.2 107.2,236.2 107.4,236.5 106.6,236.7 103.9,236.7 103.9,236.9 106.4,237.6 107.1,238.2
			107.6,238.8 107.8,239.2 107.7,239.7 107.7,240.2 107.6,240.4 107.3,240.9 107.2,241.2 107.1,241.2 106.9,240.6 106.9,239.5
			106.9,238.9 106.6,238.4 106.3,238 105.8,237.7 105.2,237.5 104.1,237.3 102.9,237.7 102,238.5 101.5,239.6 102.1,239.3
			102.7,238.6 103.4,238 104.3,238.2 102.5,240.2 102.2,240.2 101.6,239.9 101.3,239.8 100.9,239.9 100.5,240 99.8,240.4
			99.1,240.6 98.9,240.8 98.7,241.2 98.6,241.6 98.7,241.8 98.9,241.9 99.3,242.2 99.7,242.7 99.9,243.2 99.7,243.4 99,243
			98,242.1 97.4,242 97.2,242.7 96.8,243.2 93.2,244.5 92.6,244.8 92.1,245.3 91.9,245.9 92.5,246.3 93.4,246.4 94.2,246.4
			94.9,246.2 95.2,246.2 95.5,246.4 94.3,246.7 93.8,246.8 93.1,246.8 91.5,246.6 90.8,246.7 90.3,247.1 91.4,247.6 91.9,247.9
			92.1,248.3 92.2,249.2 92,249.3 91.6,249 91.1,248 90.7,247.7 90.1,247.8 89.7,248.1 88.8,249.1 88.3,249.3 87.8,249.5
			86.4,250.3 85.8,250.3 84.7,250.1 83.8,250.7 82.7,250.9 82.3,251.2 82.1,251.8 82.3,252.3 82.6,252.8 83,253.2 82.9,253.2
			82.3,253.1 82,252.6 81.9,252.1 81.7,251.6 81.5,251.4 81.3,251.3 80.5,251.4 80.3,251.4 79.9,251.6 79.6,251.8 79.5,252
			79.2,252.4 78.4,252.7 77.1,253.1 75.1,254 74.6,254.2 74.1,254.4 73,255.3 72.5,255.5 72.3,255.6 71.5,255.9 71.3,256
			71.2,256.3 71.3,256.5 71.7,257 72.3,258 72.7,258.4 73.3,258.6 73.8,258.8 75.3,259.4 75.8,259.8 75.1,259.8 73.6,259
			72.9,258.8 72.6,258.8 72.2,258.7 71.8,258.5 71.1,257 70.6,257.1 68.9,257.7 68.4,258 67.9,258.4 66.6,259 65,260.2 63.5,260.9
			62,261.2 60.7,261.1 60.1,260.6 59.7,260.2 59.2,260 58.6,260.4 58.3,260.5 57.6,260.5 57.2,260.6 57,260.8 56.4,261.1
			55.5,261.4 54.5,261.6 52.8,261.7 52.3,261.8 51.8,262 52.3,262.3 52.5,262.4 52.2,262.5 51.9,262.6 51.6,262.8 51.3,263
			51.1,263.4 51,263.7 51,264 50.9,264.1 50,265 49,265.7 47.3,266.6 46.3,267.4 45.7,267.6 44.5,267.9 44.5,268.1 45.2,268.3
			45.5,268.7 45.5,269.1 45.1,269.5 44.9,269.6 42.4,269.6 42.6,270.5 41.9,271.2 40.9,271.6 40.1,272.1 37.9,274 37.2,274.7
			37.4,275 37.6,275.4 37.8,276.2 37.7,276.9 37.8,277.1 37.9,277.3 38.1,277.3 38.2,277.4 38.4,277.5 39.1,278 39.7,278.3
			39.8,278.4 40,278.7 40.1,279.2 40,279.6 39.8,279.9 39,278.7 38.6,278.4 37.7,278 36.5,277.2 35.7,277.1 34.9,277.3 34.1,277.9
			34,278 33.5,278.1 33.3,278.2 33.2,278.4 32.9,278.8 32.8,278.9 31.3,279.2 30.9,279.5 30.7,279.9 30.8,280.2 31.5,280.6
			32.5,281.5 33,281.7 32.3,281.6 31.8,281.4 31.3,281.1 30.8,280.5 30.5,280.4 30.2,280.5 29.9,280.7 29.4,280.9 29.5,281.1
			29.8,281.5 29.9,281.9 30.7,282.5 30.7,283 30.5,283.5 30.2,283.9 30,284.3 29.9,284.9 29.5,284.6 29.2,284.3 29.1,283.9
			29.2,283.4 29.5,283 29.7,282.8 29.8,282.7 29.6,282.3 28.7,281.7 27.7,281.8 26.9,282.4 26.6,283.3 26.7,283.6 27.1,284.5
			27.3,284.8 27.5,285.2 27.4,285.6 27.4,286 27.5,286.3 28,286.7 28.1,286.9 28.1,287.1 28.2,287.3 28.3,287.5 28.4,287.6
			28.5,287.9 28,288 27,287.9 27.2,287.4 27,287 26.7,286.8 26.4,286.4 26.5,286.1 26.7,285.6 26.8,285.4 26.7,285.1 26.5,284.9
			26.3,284.7 26.2,284.6 25.9,283.8 25,283.8 22.9,284.7 23,284.8 23.3,285.2 23.4,285.3 22.8,285.3 22.3,285.4 21.8,285.5
			20.5,286.4 20,286.7 19.9,287.1 20.2,287.4 23.5,288.7 24,288.8 23.6,289.1 23,288.9 22.3,288.5 21.8,288.3 21.1,288.1
			20.3,287.9 19.6,287.7 19,287.9 18.6,288.3 18.7,288.8 19,289.2 19.4,289.7 20,289.9 21.6,290.3 22,290.7 20.3,290.5 19.9,290.7
			19.8,290.9 19.9,291.4 19.7,291.8 19.4,291.6 19.4,291.3 19.4,290.9 19.3,290.5 18.3,289.3 17.7,289.2 17.1,289.6 16,290.9
			16.7,290.9 17.2,291.3 18.2,292.2 19.2,292.8 19.3,292.9 19.1,293.1 18.7,293.1 18.3,293 17.9,292.8 16.9,291.8 16.2,291.4
			15.4,291.4 14.8,291.7 14.6,292.2 14.7,293.4 14.8,293.7 15.3,294 15.5,294.5 15.7,295.1 15.8,295.4 16.3,295.6 18.5,295.5
			19.2,295.3 20.2,295 21.2,295 21.2,295 21,295.1 20.8,295.4 20.8,296 20.9,296.1 21.1,296.4 21.5,296.6 22.4,296.5 22.9,296.6
			22.6,297 22.1,297.1 21.5,297.1 21,297 20.7,296.8 20.2,296.1 19.9,295.9 19.4,295.8 16.6,296.4 16.2,296.6 15.8,297 18.5,298.9
			19.9,300.2 20.1,301.1 19.9,301 19.6,300.8 19.3,300.7 19.3,300.8 19.2,300.9 18.7,300 18.5,299.4 18.2,299.1 17.9,299
			17.1,298.5 16.9,298.6 16.8,299 16.7,299.3 16.3,299.6 16,299.8 15,299.8 14.8,299.7 15.1,299.4 15.8,299.1 16,298.7 16.1,298.4
			16,298.2 15.8,297.9 15,297.4 14.3,297.4 13.5,297.7 12.7,297.8 12.8,297.5 12.9,297.3 13.1,297.1 13.4,297 12.3,296.6
			11.8,296.3 11.5,295.8 11.3,295.7 10.7,296 9.8,296.7 9.4,297.2 9.2,297.5 9.3,297.8 9.7,298.1 10.1,298.4 11.2,298.8 11.7,299.1
			12.1,298.4 12.5,298.7 12.9,299.3 13.2,300 12,299.8 10.7,299.2 9.4,298.8 8.2,299.2 7.9,299.7 7.4,301.3 6.4,302.8 6.4,303.3
			6.7,303.8 7,303.9 7.4,303.9 7.8,303.9 8.3,303.8 8.6,303.7 10.1,303.1 12.4,302.8 16,301.5 15.8,302.2 15,302.6 13.2,303
			13.5,303.3 13.9,303.4 14.9,303.4 14.3,303.7 13.5,303.7 12.1,303.4 11.3,303.5 9.9,304 9.2,304.1 8.6,304.3 8.3,304.7 8.2,305.3
			8.5,306 8.9,306 11.5,305.8 11.1,306 9.7,306.3 9.2,306.6 8.9,306.8 8.4,307.6 9,307.8 11.5,307.3 13.5,307.4 13.9,307.4
			15.1,307.1 14.7,307.6 14.1,308 12.8,308.4 12.3,308.6 12,308.8 11.8,309 11.5,309.2 11.1,309.2 10.3,309.1 9.6,309.2 8.1,309.6
			7.4,309.7 5.7,309.7 4.9,309.9 4.3,310.3 4.1,310.1 4.3,309.9 2.4,309.9 0.6,310.1 0.2,310.3 0,310.9 0,313.4 0.1,313.9
			0.2,314.3 0.1,314.6 0.1,314.8 0.2,315.2 0.4,315.5 0.6,315.6 0.8,315.5 1.5,315 1.8,314.9 4.4,314.3 4.8,314 4.9,313.8
			5.7,312.9 5.8,312.8 6.3,312.6 6.4,312.4 6.4,312.2 6.6,312 6.7,311.9 6.9,311.7 7.2,311.5 7.5,311.5 7.8,311.7 7.8,311.9
			7.5,312.2 6,313.5 6.1,313.7 6.5,313.8 7,313.9 7.4,313.9 8.4,313.7 9.3,313.4 8.8,314 8.1,314.2 6.5,314.5 5.7,314.9 5.2,315.3
			4.9,315.9 4.8,316.8 4.4,316.6 4.2,316.8 4.1,317.2 4.1,317.7 6,317.4 6.9,317 7.3,316.2 7.6,316.4 7.6,316.6 7.4,316.8
			7.4,316.9 7.7,317.2 7.7,317.2 7.8,317.1 8.6,316.4 8.7,316.4 8.8,316.1 8.7,315.9 8.6,315.7 8.7,315.4 9.1,315.1 9.8,314.8
			11,314.5 12.6,313.8 13.2,313.8 13.2,313.9 12.5,314.2 11.3,314.9 10.5,315.1 9.9,315.3 9.5,315.9 8.7,317.1 7.8,318.1 6.8,318.9
			6.5,319 5.7,319.3 5.6,319.5 5.7,319.7 6.5,320.5 8,321.3 9.8,321.5 13.6,321.4 15.4,321.8 15.9,321.8 16.4,321.7 16.8,321.7
			18.6,322.3 18.9,322.3 19,322.4 19.1,322.6 19.3,322.7 19.4,322.6 19.6,322.5 19.8,322.4 20.3,322.3 20.9,322.4 22,322.7
			22.5,322.7 22.9,322.6 23.7,322.2 24.2,322.1 25.1,322.2 25.5,322.1 25.9,321.8 26,321.4 26.1,321 26.2,320.6 26.5,320.2
			26.6,320 26.6,319.6 26.8,319.4 27,319.3 30.1,319.5 30.5,319.6 31.8,320.2 32.4,320.3 33.5,320.4 33.9,320.7 33.9,321.2
			34.6,322 35.9,323.3 35.7,323.6 35.4,323.8 35,323.9 34.6,324 34.9,324.2 35.6,324.5 35.8,324.7 36.2,325.2 36.5,325.4
			36.8,325.5 37,325.8 37.3,326 37.6,326.1 37.8,326 38.2,325.8 38.4,325.7 38.6,325.7 39,325.9 39.2,325.9 39.6,326 39.9,325.9
			40,325.6 40.3,325.3 40.8,325.3 41.6,325.4 41.9,325.3 42.4,325.4 42.9,325.6 43.3,325.7 43.3,325.5 43.3,325.2 43.3,324.9
			43.7,324.8 46.3,324.4 47.1,324.6 47.5,324.9 49,326.8 49.6,327.9 49.9,328.3 50.4,328.3 51,327.9 51.2,327.3 51,326.6
			51.7,326.6 52.2,327.3 52.4,328.1 52.1,328.9 50.7,329.7 50.5,329.9 50.4,329.7 50.4,329.6 50.4,329.5 50.1,329.4 49.8,329.4
			49,329.6 49,329.9 49.1,330.1 49.3,330.3 50,330.5 50.2,330.7 50.3,331 50.3,331.1 51,331.3 51.9,332.1 52.7,332.2 52.4,331.7
			51.5,331 51.4,330.4 51.6,330 52.2,330 53.2,330.5 55.6,330.5 56.4,330.7 57,331.2 56.5,331.3 55.8,331.2 55.5,330.9 55.1,330.8
			54.2,330.8 53.8,330.9 53.6,331 53.4,331.2 53.1,331.6 57.7,332 59.2,331.6 59.1,331.6 58.9,331.4 58.8,331.3 59.2,331 59,330.8
			58.7,330.5 58.5,330.2 59.8,330.2 60.5,330.3 61,330.5 60.7,330.7 60.3,330.7 60,330.8 59.7,331.1 60.7,331.1 63.5,330.7
			64.3,330.5 64.6,330.5 64.8,330.8 64.8,331.1 65.5,332.8 65.8,333.1 66.3,333.2 67.2,333.1 68,333.3 68.9,333.6 69.8,333.8
			70.6,333.5 70.6,333.2 70.6,332.8 70.6,332.6 70.9,332.6 71.1,332.7 71.3,333 71.6,333.2 72.1,333.3 72.9,333.3 73.1,333.3
			73.1,333.1 73.2,333 73.5,332.8 73.5,332.2 73.7,332 74.1,332.1 74.2,332.4 74.1,332.9 74.5,333.2 74.8,333.2 75.8,333.1
			76.1,333.1 76.4,332.9 77,332.5 77.3,332.3 77.8,332.3 78.8,332.4 78.9,332.5 79.5,332.8 80,332.1 80.8,332.2 81.7,332.4
			82.5,332.2 82.3,332.1 82.1,331.8 81.9,331.6 83.3,331 83.7,330.8 84.2,330.6 85,330.8 85.7,331 86.1,331 87,330.5 88,330.2
			88.8,329.8 89.4,328.9 87.2,328.8 86.8,328.7 87.2,328.6 88,328.3 88.5,328.3 88.9,328.3 89.8,328.6 90.3,328.7 90.5,328.6
			91.1,328.2 91.9,328 92,327.7 92,327 92.3,325.6 93.3,324.7 97.1,322.8 97.6,322.4 98,321.9 98.6,321.4 99.3,321.1 100.7,320.7
			101.3,320.4 101.9,320 102.4,319.5 102.6,318.9 102.7,318.6 102.9,318.1 103,317.3 103.1,317 103.5,316.4 105.1,314.8
			107.1,313.7 109.4,313.2 115.1,312.8 115.1,312.6 115.1,312.4 115.3,312.3 115.5,312.1 115.6,312.1 116.2,312.1 116.8,312.1
			117.2,311.9 117.4,311.6 117.5,310.1 117.4,309.7 117.1,309.3 116.8,309.7 116.5,309.8 116.2,309.9 115.8,310.1 115.5,310.4
			115.1,311 114.7,311.2 113.5,311.6 112.6,312.1 111.7,312.3 111.2,312.5 111.4,312 112.4,311.5 112.8,310.8 113,310.7
			113.3,310.7 113.6,310.6 113.8,310.5 114.3,309.9 114.8,309.7 116.2,309.5 116.7,309.2 116.6,308.9 116.1,308.6 115.4,308.3
			114.9,308 114.5,308.3 114.2,308.3 113.8,308.1 113.4,308 113.2,308 113,307.9 113,307.8 113,307.5 113.1,307.3 113.2,307.3
			113.4,307.3 113.6,307.3 114.1,306.9 114.5,306.8 114.8,306.7 115,306.6 115.6,305.6 115,305.5 114.6,305.3 114.6,305
			115.2,304.8 116.1,304.9 116.5,304.8 116.9,304.4 116.7,303.9 116.6,303.7 116.6,303.4 117,303.6 117.4,303.6 117.7,303.5
			118.1,303.2 117.9,302.5 118.4,302.1 119.2,301.7 119.6,301.2 119.5,300.9 119.4,300.6 119.4,300.3 119.6,299.9 120.7,299.1
			120.7,298.4 120.2,298.1 119.8,297.8 120.2,297.1 120.5,296.5 121.2,294.6 122.7,292.3 125.7,290.1 127.5,287.7 127.5,287.3
			126.8,287 120,285.1 127,286.4 127.9,286.4 128.4,286.1 128.7,285.5 128.9,283.9 129,283 128.7,282.4 127.9,282.3 128.2,282
			128.6,281.8 128.9,281.6 129,281.1 129,280.6 128.7,279.3 128.7,277.3 128.5,276.3 127.9,275.8 128.7,275.5 128.9,275.4
			129.2,275.3 129.3,275 129.3,274.7 129.4,274.5 130.2,273.8 130.6,273.4 130.7,272.9 130.7,271.3 130.8,271 132.3,269.1
			132.4,268.8 132.2,268.6 131.6,268.3 130.9,268.2 128.7,268.1 129.4,267.8 131.6,267.9 132.1,268.1 132.5,268.2 132.9,268.3
			133.3,268.1 133.9,268.3 134.5,268 136.2,266.7 136.5,266.5 137.2,266.3 137,266.1 136.3,265.7 135.8,265.4 135.3,264.8
			135,264.2 134.8,263.6 134.6,263.1 134,262.6 133.4,262.2 133,261.8 133,261.5 133.6,261.6 134.4,261.9 135.2,262.5 135.9,262.7
			136.2,262.9 136.7,263.3 137.2,263.9 137.8,264.8 138.1,265.4 138.6,265.4 138.9,265.3 139.6,264.9 140.4,264.7 140.7,264.5
			141,264.3 141.3,264.1 141.7,263.9 142.8,263.8 144.8,262.8 145,262.3 144.7,259.6 145,259.9 145,260.2 145,260.5 145.1,260.9
			145.5,261.8 145.6,262.1 146,262.6 146.8,262.5 152,259.8 154.9,258.8 155.4,258.4 155.6,257.8 154.6,257.1 153.8,256
			153.1,254.9 152.6,254.4 152,254.2 151.3,254.1 149.8,253.6 148.3,252.6 147.7,252 154.1,254.3 155.6,255.4 157.3,257.3
			157.7,257.6 158,257.6 160.3,257.4 160.6,257.2 160.9,256.9 161,256.8 160.9,256.6 160.9,256.2 160.9,255.6 161,254.8
			161.3,254.1 161.7,253.8 162.5,253.7 163.2,253.5 163.9,253.4 164.6,253.6 164.8,253.8 165.2,254.2 165.3,254.4 165.8,254.5
			166.7,254.4 167,254.5 167.8,254.8 168,255 167.6,255.1 167.2,255.2 163.1,256.2 162.3,256.3 162,256.4 161.7,256.6 161.6,256.9
			161.9,257 163,256.9 165.3,256.2 166.9,256.1 167.7,255.8 169.9,255.6 170.6,255.3 171.1,255.3 170.6,255.8 170.6,256.2
			171.7,257 172.2,257.5 172.6,257.7 173.2,257.6 173.8,258.1 174.2,258.3 176,258.3 176.6,258.4 176.7,258.3 175.8,257.3
			175.5,256.6 175.6,255.8 176,255.1 175.6,254.9 175.5,254.6 175.7,254.3 176.2,254.2 176.5,254.3 176.5,254.6 176.5,255
			176.6,255.4 176.9,255.7 177,255.9 176.9,256.2 176.9,256.6 177,257 177.3,257.6 177.5,257.9 177.7,257.7 177.9,257.6
			178.2,257.7 178.4,257.9 178.4,257.7 178.6,257.2 179.1,257.2 179.7,256.6 180.1,257 180.4,256.3 180.6,255.5 180.7,254.7
			180.6,254 180.5,253.9 180.3,253.6 180.2,253.4 180.3,253.3 180.4,253.1 180.4,252.9 180.4,252.7 180.1,252.3 179.7,252.1
			179.4,251.8 179.3,251.4 179,251.5 178.2,252.1 178.1,251.8 177.8,251.5 177.4,251.4 177,251.4 176.6,251.5 176.4,251.8
			176.2,252.1 176,252.3 175.6,252.4 175.5,252.2 175.6,251.5 175.5,251 175.4,250.8 174.7,250.5 174.4,251.1 174.3,251.8
			174.2,251.9 173.9,251.7 173.7,251.3 173.5,250.9 173.1,250.9 172.1,250.8 171.1,251 170.6,251.6 170,251.4 169.2,251.3
			168.9,251.1 169.6,250.6 170.4,250.4 172.2,250.4 173,250.1 171.3,249.8 170.9,249.6 170.7,249.2 170.8,249 171.1,249
			171.5,249.3 171.5,248.9 170.8,247.3 170.3,245.6 170,245.1 168.7,245.8 167.5,246.2 164.6,246.8 160.9,246 164.5,246.1
			166.3,245.9 167.9,245.4 168.3,245.3 169.1,244.7 169.5,244.6 170.4,244.7 170.6,244.5 170.6,243 170.7,242.4 170.9,241.7
			167.7,241.9 163.9,241.1 169.5,241.4 170,241.3 170.4,241.2 170.6,241 170.8,240.8 171.4,240 172,238.9 172.4,238.4 174.5,237.2
			175.2,236.6 176.1,236.2 179.8,235.6 181.1,234.8 181.4,234.6 181.5,234.4 181.6,234.1 181.7,233.8 182.8,233.4 183.6,233.3
			183.9,233.2 185.1,232.7 185.3,232.5 185.5,232.3 185.5,231.9 185.7,231.8 185.9,231.7 186.2,231.5 186.4,231.1 186.4,231
			186.4,230.8 186.4,230.5 186.2,230 186.3,229.7 187.2,229.4 187.7,228.9 188.1,228.3 188.4,227.4 190.5,224 190.3,224
			190.2,223.9 190.1,223.8 189.9,223.8 189.9,223.6 191.1,223.2 191.8,222.2 192.2,221 192.7,219.9 194.1,218.6 194.5,218.4
			194.8,218.3 195.4,218 195.7,217.9 196.1,217.9 196.4,218.1 197,218.6 197.2,218.5 197.4,218.2 197.2,218 196.7,217.6
			196.6,217.3 196.7,216.9 196.9,216.6 197.2,216.5 197.5,216.3 197.6,216.1 197.8,215.7 198.2,215.7 198.4,215.6 198.6,215.5
			199.4,214.5 200,214.1 201.2,213.5 201.8,213.1 202.3,212.4 202.8,211.9 202.8,211.8 201.8,210.9 201.4,210.6 201,210.2
			200.9,209.4 201,209.1 201.2,209.2 201.4,209.4 201.5,209.8 201.5,210.2 201.7,210.5 202,210.6 203.1,211 203.5,210.9
			203.5,210.4 203.5,209.6 203.7,209 204,208.4 204.8,207.4 210.1,203.2 210.6,202.7 212.5,199.9 212.7,199.3 212.1,199.4
			211.5,199.3 210.9,199.1 210.6,198.6 210.5,198.4 209.9,196.9 209.9,196.6 209.3,196.6 208.7,197 207.8,197.7 207.5,197.8
			205.7,198.1 205.4,198.1 205.4,198 206,197.8 207.6,197.2 208.4,196.8 209.1,196.2 209.5,195.7 209.4,195.1 207.9,193.2
			207.5,192.9 207.6,193.4 207.8,193.9 208,194 207.9,194.6 207.6,194.7 207.3,194.5 207.2,194.4 207.3,194.2 207.1,193.9
			206.8,193.6 206.3,193.5 206.5,193 206.4,192.6 206.1,191.8 206.1,191.3 206.2,191 206.9,190.3 207.4,189.6 207.8,188.8
			208.3,188.1 209.1,187.7 208.9,188.1 209.3,188.2 209.9,187.7 210.1,187.8 210.1,188 		"/>
		<polygon fill="#FFFFFF" points="164.4,175 159.1,172.4 158.8,172.5 158.7,172.6 158.4,172.7 157.6,173.1 157.3,173.4 157.1,173.4
			156.7,173.4 156.5,173.4 156.4,173.6 156.3,173.8 156.2,173.9 156,174 155.8,174 155.7,174 155.5,174.1 155.4,174.2 155.4,174.5
			155.3,174.7 155,175 164.4,175 		"/>
		<polygon fill="#CC142B" points="164.4,175 164.4,168.2 164.1,168.3 163,169.1 160.2,171.7 159.1,172.4 164.4,175 		"/>
		<polygon fill="#FFFFFF" points="325.9,88.3 325.8,88.3 325.4,88.2 325.2,88 323.9,92.1 		"/>
		<polygon fill="#FFFFFF" points="328.1,89 327.8,88.7 327.3,88.4 326.9,88.3 326.6,88.2 325.9,88.3 323.9,92.1 		"/>
		<polygon fill="#FFFFFF" points="284.9,142.6 284.8,142.7 285.7,142.6 		"/>
		<polygon fill="#FFFFFF" points="266.3,145.5 268,145.5 284.3,142.8 284.4,142.6 265.4,142.6 		"/>
		<polygon fill="#FFFFFF" points="276.7,145.5 268.3,151.6 269.2,154.5 284.6,143.4 284.3,143.3 284.3,142.8 268,145.5 		"/>
		<polygon fill="#FFFFFF" points="284.8,142.7 284.8,142.8 284.9,143.2 285.7,142.6 		"/>
		<polygon fill="#FFFFFF" points="251.8,145.5 252.8,142.6 232.4,142.6 250.1,145.5 		"/>
		<polygon fill="#FFFFFF" points="241.5,145.5 250.1,145.5 232.4,142.6 248.9,154.5 249.8,151.6 		"/>
		<polygon fill="#FFFFFF" points="268.3,151.6 265.8,153.4 267.3,158 272.2,167.4 272.2,167.4 273.1,166.4 269.2,154.5 		"/>
		<polygon fill="#FFFFFF" points="269.9,166.2 261.6,160.1 259.1,161.9 270.1,169.9 270.1,169.9 270.2,169.6 270.3,169.3 270.4,169
			270.6,168.6 272.2,167.4 267.3,158 		"/>
		<polygon fill="#FFFFFF" points="254.9,145.5 256.4,140.9 259.1,123.2 252.8,142.6 251.8,145.5 		"/>
		<polygon fill="#FFFFFF" points="259.1,132.7 263.2,145.5 266.3,145.5 265.4,142.6 259.1,123.2 256.4,140.9 		"/>
		<polygon fill="#FFFFFF" points="252.3,153.4 249.8,151.6 248.9,154.5 242.6,173.9 250.9,158 		"/>
		<polygon fill="#FFFFFF" points="242.6,173.9 242.6,173.9 242.6,173.9 		"/>
		<polygon fill="#FFFFFF" points="259.1,158.3 248.2,166.2 250.9,158 242.6,173.9 242.6,173.9 242.6,173.9 242.6,173.9 259.1,161.9
			261.6,160.1 		"/>
		<polygon fill="#CC142B" points="263.9,147.6 276.7,145.5 268,145.5 266.3,145.5 263.2,145.5 		"/>
		<polygon fill="#CC142B" points="261.7,150.4 261.7,150.4 264.5,149.5 		"/>
		<polygon fill="#CC142B" points="263.9,147.6 264.5,149.5 265.8,153.4 268.3,151.6 276.7,145.5 		"/>
		<polygon fill="#CC142B" points="254.2,147.6 254.9,145.5 251.8,145.5 250.1,145.5 241.5,145.5 		"/>
		<polygon fill="#CC142B" points="253.6,149.5 254.2,147.6 241.5,145.5 249.8,151.6 252.3,153.4 		"/>
		<polygon fill="#CC142B" points="264.5,149.5 261.7,150.4 261.7,150.4 269.9,166.2 267.3,158 265.8,153.4 		"/>
		<polygon fill="#CC142B" points="261.7,150.4 262,152.2 260.7,153.5 262.4,155.9 259.1,158.3 261.6,160.1 269.9,166.2 		"/>
		<polygon fill="#CC142B" points="259.1,151.2 262,152.2 261.7,150.4 261.7,150.4 261.7,150.4 		"/>
		<polygon fill="#CC142B" points="254.2,147.6 253.6,149.5 256.4,150.4 259.1,132.7 256.4,140.9 254.9,145.5 		"/>
		<polygon fill="#CC142B" points="256.4,150.4 256.4,150.4 257.3,148.7 259.1,151.2 259.1,151.2 261.7,150.4 264.5,149.5
			263.9,147.6 263.2,145.5 259.1,132.7 		"/>
		<polygon fill="#CC142B" points="256.4,150.4 256.4,150.4 253.6,149.5 252.3,153.4 250.9,158 248.2,166.2 		"/>
		<polygon fill="#CC142B" points="259.1,151.2 259.1,151.2 260.7,153.5 262,152.2 		"/>
		<polygon fill="#CC142B" points="262.4,155.9 260.7,153.5 259.1,151.2 257.3,148.7 256.4,150.4 248.2,166.2 259.1,158.3 		"/>
	</g>
	<path fill="none" stroke="#999999" stroke-width="0.25" stroke-linecap="round" stroke-linejoin="round" d="M1.8,315.8L1.8,315.8
		l-0.1,0.2l0,0.1l0.3,0.1l0.1,0V316L2,315.8L1.8,315.8z M1.7,316.4l-0.2-0.1l-0.2,0l-0.2,0.1l0,0.2l0.4,0.4l0.1,0.1l0.1-0.2l0.1-0.3
		l0.1-0.2l-0.1,0L1.7,316.4z M25.6,346.3l-0.1,0l-0.1,0.1l0,0.1l0,0.2l0,0.1l0.2-0.3l0-0.1l0-0.1L25.6,346.3z M12.8,330.3l-0.2,0
		l-0.4,0l0.2,0.2l0.4,0.3l0-0.2l0-0.2L12.8,330.3z M4.6,317.9L4.2,318l-0.4,0.3l0,0.4l0.1,0.3l0,0.1l0.1,0.1l0.3-0.1l0.7-0.5
		l0.2-0.2L5,318.1L4.6,317.9z M1.1,309.1l0.4-0.1l0.4-0.2l0.3,0l0.3-0.1l0-0.1l-0.4-0.1l-0.4,0l-0.3,0.1H1.1l-0.6,0.1l-0.1,0.2
		l0,0.1l0.1,0.1L1.1,309.1z M3.2,314.9l-0.1-0.1l-0.2,0l-0.1,0H2.7L2.2,315L2.2,315l0,0.1L2,315.2L2,315.4l0.1,0.1l0.3,0.1l0.2,0
		l0.5-0.4L3.2,314.9z M235,49.7l0.5-0.1l0.4-0.1l0.2-0.2V49l-0.2-0.3l-0.2-0.2l-0.1-0.2l-0.4,0l-0.7,0.3l-0.4,0.5l0.5,0.6L235,49.7z
		 M253.2,59.6l0.2,0l0.2,0.1l0,0.1l0,0.1l0,0.1l0,0.1l-0.1,0.1l0,0.1l0.1,0.1l0.3,0.1l0.2,0l0.1,0l0.2,0l0.2,0l0.2,0l0.2-0.1
		l-0.1-0.3l-0.2-0.2l-0.2-0.1l-0.3,0l-0.3-0.7l-0.2-0.2l-0.7,0.2l0.1,0.3L253.2,59.6z M241.5,49.7l-0.7-0.7l0.2,0.6l0.6,0.6l0.8,0.3
		l0.6-0.2l0.2,0.2l0.1,0.2l0,0.2l-0.1,0.2l0.7-0.1l0.2,0l0.2,0.1l0.1,0.2l0.1,0.7l0.1,0.3l0.3,0l0.4-0.2l0.4-0.1l0.2,0.3l0,0.3
		l0.1,0.3l0.2,0.2l0.4,0l0.3-0.2l0.5-0.9l-0.2-0.1l-0.5-0.6l0-0.1l0-0.1l0-0.1l-0.1,0l-0.2,0l-0.2-0.1l-0.1-0.1l-0.1-0.1l-0.3-0.5
		l0-0.3l0.2-0.3l0.1-0.4l0.1-0.2l0.3-0.3l0.1-0.2l-0.2-0.1l-0.3,0l-0.7-0.2l-0.7-0.4l-0.4-0.3L244,47l0.5-0.2l-0.8-0.5l-0.1-0.2
		l-0.1-0.3l-0.2-0.3l-0.2-0.2l-0.3-0.1l-0.7,0.1l-0.3,0.4l0.1,0.5l0.5,0.4l-0.3,0.3l-0.4,0.1l-0.8,0l0.3,0.5l0.5,0.2l0.4,0.2
		l-0.2,0.5l-0.1,0.3l0.1,0.4l0,0.3l-0.2,0.2L241.5,49.7z M232.5,65.3l0.3-0.2l0.3,0l0.6,0.5l-0.2,0.2l1.1,0.3l0.6,0.1l0.6-0.1
		l0.5-0.2l0.2,0l0.4,0l0.1-0.1l0.1-0.2l0-0.3l-0.2-0.5l0-0.3l0.3-0.2l0.4-0.1l0.2-0.1l-0.2-0.4l-0.3-0.3l-0.1-0.1l-0.6,0.3l-1.2,0.8
		l-0.5,0.3l-0.3-0.1l-0.2-0.3l-0.3-0.1l-1.4,0l-0.2,0l-0.2,0.3l-0.1,0.5l0.1,0.3L232.5,65.3z M2.1,307.4l1.7-1.4l0.5,0l0.4,0.5
		l0,0.3l0.1,0.5l0.1,0.5l0.2,0.3l0.2,0.1l0.3,0l0.2-0.1l0.2-0.5l0.2,0.1l0.2,0.3l0.1,0.1l0.6-0.1l0.5-0.2l0.3-0.4l0.1-0.6l-0.1-0.6
		l-0.2-0.6l-0.4-0.5l-0.5-0.3l-0.3,0l-0.5,0l-2.2,0.5l-0.7,0l-0.3,0.1l-0.2,0.4l-0.3,0.4l-0.1,0.1l-0.3,0.2L1.5,307l-0.3,0.5
		l-0.1,0.4l0.6-0.1L2.1,307.4z M11.6,294.7l0.3,0.3l0.2,0.4l0.5,0.2l0.6,0.1l0.4,0.2l0.5,0.3l0.4,0.1l0.9-0.1l-1-1.8l-0.4-0.9
		l-0.3-1l-0.1-0.1l-0.1-0.1l-0.1-0.1l0-0.1l-1.6,1.9l-0.2,0.3l0.1,0.1l-0.3,0.1L11.6,294.7z M4.2,309.4l0.8-0.1l0.1,0l0.2,0.1
		l2.9-0.8l0.1-0.1l-0.1-0.1l-0.2,0l-1.3,0.1l-1,0.3l-0.7,0l-0.3,0.3l-0.6,0.1L4,309.2l0.1,0l0,0.1L4.2,309.4z M227.9,54.2l-0.1,0.3
		l0.3,0.7l0,0.3l-0.4,0.2l0.3,0.1l1,0l0.4-0.1l0.1-0.3l-0.2-0.7l-0.2-0.4l-0.4-0.3l-0.4-0.1L227.9,54.2z M33.8,348.1L34,348l0-0.1
		l0.1,0l0.1-0.1l-0.1-0.2l-0.3,0l-0.4-0.1l-0.1,0.2l0.1,0.1l0.1,0.1l0,0.2L33.8,348.1z M26.8,348.1l-0.6,0.3l-0.3,0.4l0.2,0.3
		l0.6-0.1l0.7-0.3l0.4-0.2l-0.3-0.4L26.8,348.1z M229,176.4l1-0.9l0.5-0.7l-0.1-0.1l-0.2-0.1l-0.2,0l-0.2,0l-0.1,0.1l-0.3,0.5
		l-0.1,0.2l-0.8,0.7l-0.1,0.1l-0.1,0.2l0.1,0.1l0.2,0.1L229,176.4z M327.8,88.7l-0.4-0.3l-0.4-0.1l-0.3-0.1l-0.8,0l-0.4-0.1
		l-0.5-0.4l-0.3-0.1l-1,0l-0.5-0.1l-0.4-0.1l-0.3-0.2l-0.5-0.4l-0.3-0.1v-0.2l0.4-0.3l-0.3-0.2l-0.6-0.2l-6.7-0.3l-1.1-0.2l0.3,0.4
		l0.1,0.3l-0.1,0.3l-0.4,0.3l-0.5,0.2l-1.2,0.1l-0.4,0.2l-0.6,0.8l-0.4,0.3l-0.5,0.1l-0.6,0l-2.7,0.6l-0.2,0.2l-0.1,0.3l-0.2,0.2
		l-0.4,0.4l-0.3,0.5l-0.3,1l-0.4,0.5l-1.1,0.5l-0.2,0.2l-0.1,0.3l-0.5,0.7l0,0.7l-0.1,0.2l-0.3,0.3l-0.8,0.6l-2.1,1l-0.5,0.3
		l-0.7,0.3l-2.4,0.1l-0.8,0.2l-0.3,0l-0.2,0.1l0,0.2l0,0.2l-0.1,0.1l-0.2,0.1l-0.1,0.1l-0.1,0l-0.2-0.1l-0.3-0.4l-0.1-0.1h-1.8
		l-0.3-0.1l-0.2-0.2l-0.3-0.1l-0.5,0.1l0.2,0.3l0.1,0.4l-0.1,0.3l-0.3,0.1l-0.4-0.1l-0.3-0.1l-1.3-0.7l-0.2-0.2l0.3-0.1h1.6l-1-0.4
		l-2.5-0.3l-1.5-0.8l-1.8-0.2l-1.6-0.5l-1.7-0.2l-1.1-0.4l-5.4-3.1l-0.3,0.2l-0.2-0.1l-0.1-0.2l-0.1-0.1h-0.8l-0.3-0.1l-0.7-0.5
		l-0.3-0.1l-0.8-0.1l-1.6-0.6l-0.7-0.1l-0.7-0.3l-1-1.4l-0.5-0.4l-0.4,0.1l0.1,0.4l0.6,0.8l0.4,1.3l-0.4,0l-0.4,0.1l-0.3,0l-0.1-0.2
		l0-0.5l0-0.3l-0.2-0.2l-0.4-0.2l-0.5-0.1l-0.2,0.2l-0.1,0.3l-0.4,0.1l-0.3-0.2l-0.2-0.3l-0.3-0.2l-0.4,0.2l-0.3-0.4l-0.2-0.4
		l-0.2-0.3l-0.5-0.2l-0.1,0.1l-0.1,0.1L260,88l-0.2,0.1l-0.5,0l-0.1-0.1l-0.1-0.1l0-0.1l-0.1-0.6l0-0.1l0.1-0.1l0.1-0.2l0-0.2
		l-0.1-0.1l-0.3,0l-0.1-0.1l-0.1,0l-0.1,0l-0.2,0l-0.2-0.2l0-0.2l0-0.2l0.1-0.2l0.1-0.2l-0.1-0.1l-0.2-0.3l-0.2-0.2l1.3-0.2l0.7,0
		L260,85l0.4,0.3l0.5,0.3l0.9,0.5l-0.9,0.2l-0.3,0.1l0.5,0.3l0.4,0.1l0.4-0.1l0.4,0l0.3,0.1l1,0.6l-0.1-0.5l-0.3-0.3l-0.8-0.6
		l-0.2-0.3l-0.4-0.8l-0.3-0.4l-0.4-0.3l-0.5-0.3l-0.5-0.2l-0.4-0.2l-1.1-0.1l-0.3-0.2l0.2-0.4l0.2,0l0.2,0.2l0.1,0.1l0-0.4l-0.1-0.2
		l-0.4-0.2l-0.1-0.2l-0.1-0.4L258,81l-0.1-0.4l-0.1-1.1l-0.3-1.1l-0.3-0.5l-0.3-0.3l-0.9-0.3l0.4-0.3l0-0.5l-0.2-0.6l-0.1-0.7h0.2
		l0.1,0.3l0.2,0.3l0.2,0.2l0.3,0.1l-0.1-0.4l0-0.8l-0.1-0.3l-0.2-0.1l-0.4,0l-0.3-0.1l0-0.2l0.5-0.6l0.4-0.7l0.1-0.7l-0.5-0.5
		l-0.2,0.2l-0.3,0.3l-0.3,0.2l-0.1-0.2l0.1-0.3l0.2-0.3l0.2-0.3l-0.1-0.3l0-0.2L256,70l-0.2-1.3l-0.1-0.4l-0.1-0.2l-0.4-0.4
		l-0.1-0.3l0-0.7l-0.1-0.3l-0.6-0.4l-1.1,0.2l-0.6-0.3l-0.4,0.4l0.2,0.9l-0.4,0.3l0,0.3l-0.2,0l-0.3-0.2l-0.3-0.2l-0.1-0.2l0.1-0.2
		l0-0.2l-0.3-0.2l0.4-0.6l0.4-0.5l0.3-0.2l0.7-0.2l0.4-0.2l0.5-0.8l0.1-0.1l0.8,0.1l0.3-0.1l0.2-0.4l-0.1-0.4l-0.3,0l-0.4,0.2
		l-0.3,0l-0.4-0.3l-0.3-0.1l-0.4,0l-0.5,0.1l-0.7,0.4l-0.4,0.2l-0.3-0.1l-0.3-0.2l-0.4-0.1l-0.3,0.1l-0.2,0.2l0.2,0l0.4,0.1
		l-1.1,0.7l-0.4-0.1l-0.2-0.8l0.1-0.3L249,63l0.1-0.3l-0.2-0.3l-0.3-0.1l-0.8,0.1l-0.3-0.1l-0.2-0.3l0.1-0.2l0.3-0.1l0.4,0.2
		l0.3,0.1l0.1-0.4l-0.1-0.7l-0.2-0.7l-0.5-0.1l-0.6,0l-0.6-0.4l0.6-0.5l0-0.7l-0.3-0.7l-0.5-0.5l-0.7,0.6l-0.3,0l-0.6-0.4l-0.2-0.1
		l-0.1-0.1l-0.1-0.1l-0.1-0.2l-0.2-0.2l-0.1-0.2l-0.2-0.1l-0.9,0.2l-0.7-0.1h-0.5l-0.2,0.4l0.1,1l0.1,0.4l0.2,0.4l0.5,0.3l1,0.3
		l0.5,0.2l0.5,0.6l0.1,0.1l0.1,0.2l0.3,0.1l0.3,0l0.2,0.1l0.1,0.6l-0.4,0.7l-0.2,0.7l0.6,0.8l-0.2,0.3l0,0.3l0.1,0.3l0.2,0.3
		l0.1-0.1l0.4-0.2l0.1,0.7l-0.5,0.3l-1.4,0.3l0.2,0.1l0.2,0.1l0.2,0.1l0.2,0l-0.2,0.3l-0.3,0.1l-0.3,0.1l-0.3,0.1l0.4,0.2l0.4,0.1
		l0.9,0l-0.4,0.5l-0.6,0l-0.6-0.1l-0.6,0.2l0.3,0.3l0.1,0.3l0.1,0.3l0.2,0.3l0.3,0.2l0.7,0.4l0.3,0.3l0.3,0.3l0.2,0.3l0.6,1.7
		l0.1,0.2l0.1,0.3l0,1.4l0.1,0.4l0.5,0.8l0.1,0.3l0.3,0.7l0.1,0.9l0.2,0.4l0.3,0.3l0.4,0.1l-0.5,0.3l-0.5-0.1l-0.4-0.3l-0.1-0.5
		l0-0.6l-0.1-0.3l-0.2-0.1l-0.4,0.1l-0.1,0.1l-0.1,0.2l-0.2,0.2l-1.1,0.4l-1.2,0.3l-1.2,0l-1-0.4l-0.4-0.4l-0.4-0.5l-0.3-0.6
		l-0.1-0.6l0.3-1.9l0-0.6l-0.1-0.4l-0.1-0.3l-0.2-0.3l-1-1l-0.2-0.1l-0.4-0.1l-0.6-0.4l-0.3-0.1l-0.2,0l-0.9,0.3l-0.1,0l-0.1-0.1
		l-0.2-0.1l-0.6,0.4l-0.5,0.1l-0.3,0.2l-0.3,0.1l-0.4-0.1l-0.4-0.5l0.3-1.2l-0.3-0.6l-0.6-0.2l-0.9-0.1l-0.6,0.1l0.1,0.5l0.4,0.7
		l-0.3,0.2l-0.7,0l-0.6,0.1l0-0.7l-0.2-0.6l-0.6-1.3h-0.2l-0.7,3l-0.3,0.3l-0.2,0l-0.1-0.2l-0.2-0.4l-0.1-0.5l0.1-0.2l0.3-0.2
		l0.3-0.3l0.1-0.8l-0.6-0.3l-1.7,0l-1.3-0.2l-0.4,0.1l-0.4,0.2l-0.3,0.2l-0.2,0.3l-0.2,0.3l-0.2-0.2l0,0.3l0,0.4l0,0.3l-0.2,0.1
		l-0.3-0.2l-0.1-0.4l0-1.2l0-0.2l-0.1-0.1l-0.4-0.2l-0.1-0.2l0.3-0.2l0.4-0.2l0.2-0.2l-0.5-0.1l-1,0.1l-0.2,0v-0.2l0.4-0.4l0.4-0.2
		l1-0.4h0.4l0.4,0.7l0.5,0.1l-0.1,0.2l0,0.2l0.1,0.2l0.2,0.1l0.7-0.3l0.4,0.1l0.4,0.3l0.6,0.1l-1.6-4.1l-0.4-0.7l-0.6-0.5l1.1,0.4
		l0.4,0l0.7-0.2l1.3-0.6l0.1-0.1l-0.3-0.2l-0.3,0l-1.2,0.4l-0.7,0l-0.4-0.1l-0.3-0.1l-0.3-0.3l-0.1-0.1l0-0.6l-0.1-0.4l-0.3-0.5
		l0-0.4l0.2-0.2l0.6-0.3l0.2-0.3l-0.2-0.2l-0.2-0.2l-0.2-0.1l-0.3-0.1v-0.2l0.6,0l0.1-0.5l-0.5-1.2l0.7,0.2l0.4,0.5l0.6,1.3l0.1-0.4
		l0.1-0.5l-0.1-0.5l-0.4-0.7l-0.4-1.1l-0.1-0.4l0.5-0.1l2.2,0.1l0.8-0.1l-0.7-0.2l-0.8-0.1l-0.6-0.2l-0.2-0.5l0.1-0.3l0.1,0l0.1,0
		l0.1-0.1l0,0l0.1,0.1l0.1,0l0.1,0l0.1-0.1l-0.1-0.1l-0.1,0l0-0.1l0.2-0.4l0-0.2l-0.7-0.2l-1.1-0.6l-0.9-0.8l-1.5-1.9l-0.5-0.4
		l-0.4-0.3l-0.3-0.3l-0.1-0.6l0.1-0.3l0.1-0.2l0-0.2l-0.3-0.4l-0.3-0.1h-0.7l-0.3,0l-0.5-0.2l-1.2-0.7l-0.3-0.3l0-0.5l0-0.7
		l-0.1-0.7l-0.4-0.4l0.6-0.5l0.5-0.5l0.1-0.5l-0.4-0.5l-0.6-0.2l-1.8-0.2l-0.5,0.1l-0.2,0.3l-0.2,0.4l-0.2,0.2l-0.4-0.1l-0.2-0.2
		l-0.1-0.3l0-0.4l0.1-0.3l0.1-0.5l-0.1-1.5l0.1-0.6l0.3,0.3l0.2,0.3l0.1,0.3l0.1,0.4l0,0.5l-0.1,0.2l0.1,0.1l0.4,0l0.1-0.1l0.1-0.4
		l0.2-0.1l0.2,0.1l0.3,0.2l0.2,0l0.4-0.1l0.7-0.2l0.4,0l0,0.4l0.8,0.2l-0.2,0.5l0.6,0.3l0.5,0.5l0.6,0.3l0.7-0.2l-0.7-1l-0.1-0.2
		l0.2-0.7l0-0.3l-0.3-0.3l-1.6-0.8l0.3-0.1l0.3-0.1l0.2-0.2l0.1-0.3l-0.1-0.2l-0.3-0.1l-0.7-0.1l0.4-0.2l0.1,0l-1-0.5l-0.4-0.3
		l0.3-0.1l0.5,0l1.2,0.2l0.4,0.2l0.4-0.9l-0.2-0.6l-1.3-1.1l-1.4-0.9l-0.1-0.3l1.1-0.1l-0.2-0.3l-0.6-1l-0.2-0.2l-0.1,0l-0.1-0.2
		l-0.1-0.1l-0.1,0l-0.1,0.1l0,0.1l0,0l-0.6-0.1l-0.6-0.1l-0.6-0.4l-1-1.8l-0.4-0.6l0.3,0.2l0.8,0.5l0.8,0.7l0.2,0.1l0.4-0.3
		l-0.8-0.8l0.3-0.4v-0.2l-0.6,0l-0.6-0.1l-0.5-0.3l-0.2-0.6l0.2-0.6l0.4-0.5l0.2-0.6l-0.2-0.7l-0.8,0.6l-0.7,0.7l-0.1,0.3l0,0.1
		l0,0.1l-0.3,0.1l0-0.1l-0.3-0.1l-0.4,0l-0.3,0l0.1,0.1l0.1,0.3l-1.4-0.2l-0.7,0l-0.4,0.3l-0.2-0.2l0.3,0.4l0.7,0.3l0.8,0.2l0.6,0.1
		l0.2,0.1l0.1,0.3l-0.1,0.3l-0.3,0.1l-0.2-0.1l-0.2-0.2l-0.2-0.1l-0.4,0l0,0.1l0.1,0.3l0.1,0.1l-0.3,0l-0.3-0.1l-0.5-0.2l-0.1,0.4
		l-0.2,0.4l-0.2,0.3l-0.1-0.1l-0.1-0.7l-0.1-0.3l-0.1-0.2l-1-0.9l-0.2-0.3l0.1-0.3l0.2-0.3l0-0.4l-0.3-0.4l-0.3,0.2l-0.3,0.1
		l-0.3-0.1l-0.3-0.2l-0.6,0.2l-0.4-0.3l0.1-0.4l0.9-0.1l-0.5-0.6l-0.3-0.2l0.3-0.2l0.7-0.3l0.3,0.4h0.3l0.2-0.1l0.1,0l0.1,0.3l0,0.3
		l0.1,0.2l0.3,0.1l1.1-0.3l-0.2-0.7l-0.5-0.6l-0.7-0.4l-0.7-0.1l-1.6,0.1l-0.9-0.1l-0.4-0.5l-0.2-0.7l-0.4-0.4l-1.1-0.7l-0.5-0.5
		l-0.2-0.3l0.1-0.1l-0.8,0l-0.4,0l-0.5,0.2l-0.5,0.1l-0.2,0.1l0,0.2l0.1,0.4l0,0.2l-0.6,0.9l0,0.3l0.1,0.2l-0.1,0.1l-0.6,0l-0.9-0.7
		l0-0.2l0.3-0.2l0.6-0.4l0.1-0.2l0.1-0.3l0.2-0.2l0.4-0.2l-0.4-0.1l-0.2,0l-0.2,0l-0.2-0.1l-0.1-0.1l-0.1-0.2l-0.1-0.2l-0.1-0.2
		l0-0.2l0-0.1l-0.3-0.1l-0.2,0.1l-0.1,0.1l-0.1,0.1l-0.1,0.1l-0.8,0l-0.4-0.1l-0.3-0.6l-0.3-0.1l-0.4,0l-0.3,0.3l-0.3-0.4l-0.4-0.3
		l-0.4,0l-0.3,0.5l0,0.4l0.3,0.3l0.4,0.3l0.3,0.3l-0.1,0.1l-0.3,0.4l-0.5-0.6l-0.5-0.1l-1.3,0.1l-0.6-0.1l-0.5-0.2l-0.5-0.4
		l-0.4-0.4l-0.3-0.4l-0.3-0.5l-0.1-0.5l0.2-0.4l0.3-0.1l1.1,0l1.1-0.4l-0.4-0.4l-0.1-0.2l0.1-0.3l-0.3,0l-0.8,0.3l0.2-0.4l0-0.3
		l0-0.2l-0.1-0.3l-0.2-0.2l-0.2,0l-0.3,0.2v0.2l0.1,0.3l0.1,0.3l-0.2,0.4l-0.6,0.3l-0.7,0.1l-0.5,0.2l-0.1,0.6l0.4,1.3l0.1,0.8
		l-0.3,0.3l-0.4,0.1l-0.1,0.3l-0.1,0.3l-0.2,0.2l-0.2,0l-0.9-0.2l-0.3,0l-0.2,0l-0.1-0.1l0-1.1l0.1-0.3l0.2-0.2l0.6-0.6l0.1-0.3
		l-3.6-1.8l-1.1-1l-0.1-1l0.6,0.4l1.3,1.3l-0.3-1.1l-0.9-0.9L180.4,9l-0.9-0.8l-0.3-1.1l-0.3-1.6l-0.4-1.3l-0.7-0.3l0.4,0.6l0.2,0.8
		l-0.1,0.8L178,6.7l-0.3,0.2l-0.1-0.2l0-1.6l0-0.4l-0.1-0.3l-0.1,0.3l-0.2,0.1l-0.3,0l-0.3-0.2l0.1-0.2l0.1-0.2l0.1-0.4L176.6,4
		l-0.2,0.2l-0.1,0.3l-0.1,0.3l-0.9-0.5L175,3.9l0.3-0.1l0.2-0.2l0.1-0.2l0-0.3l0.4,0.2l0.2-0.2l0.1-0.6l0.2-0.7l0.2-0.1l0.5,0.2
		l-0.1,0.1l-0.1,0.3l-0.1,0.1l0.4,0.1l0.2,0.3l0.1,0.3l0.1,0.1l0.4,0l0.2-0.1l0.1-0.2l0.1-0.4l-0.1-1.5l0.2-0.5l0.8-0.4L179.3,0
		L179,0.1l-0.3,0.3l-0.3,0.2l-0.5,0.1l-3.1-0.2L174,0.9L173.1,1l-0.3,0.3L172.1,1l-1.6-0.1l-0.6-0.3l-0.4-0.3l-0.1,0.3l0,0.4
		l0.1,0.2l-0.3,0.5L169,2l-0.3,0.2l2.3,1.1l1.1,0.8l5.5,6l0.5,0.2l0.4,0.3l0.8,1.8l0.5,0.6l1.6,1.4l0.4,0.5l0.9,1.7l0.4,1.4
		l-0.1,1.4l-0.5,1.3l-0.9,1l-0.5-0.2l-0.5-0.1l-0.4,0.2l-0.1,0.5l0.2,0.4l1.1,0.9L182,24l0.4,0.3l0.5,0.1l0.5-0.1l0.8-0.4l0.4,0.1
		l-0.3,0.3l-1,0.6l-0.2,0.2l0.2,0.3l0.8,0.8l0.3,0.2l0.2-0.7l0.3-0.6l0.5-0.4l0.8-0.1l-0.2,0.3l-0.2,0.3l-0.5,0.5l0.2,0l0.4,0l0.2,0
		l-0.9,0.9l-0.1,0.5l0.3,0.7l2.3,2.7l0.2,0.2l0.2,0l0.1-0.2l0.1-2l0,0l-0.1-0.1l-0.1-0.1l0-0.2l0.3-0.2l0.3-0.1l0.2-0.2l-0.2-0.4
		l0.5-0.3l0.3-0.1l0.2,0l0.3,0.4l0.2,0.1l0.3-0.1l0.2-0.1l0.3-0.1l0.2-0.1l-0.3-0.5L191,26l0.3,0l0.7,0.4l0.5,0l0.4-0.2l0.2-0.5
		l-0.2-0.4l-0.3-0.5l-0.1-0.5l0.5-0.4l0.4,1.3l0.3,0.4l0-1l0.1-0.1l0.3,0l0.1,0.1l0,0.2l0,0.3l0.3,0.1l1-0.2l-0.4,0.6l-0.2,0.6
		l-0.1,0.2l-0.3,0.2l-0.2-0.1l-0.1-0.1l-0.3,0l-0.5,0.4l-0.1,0.5l0,0.5l-0.2,0.5l-0.7-0.9l-0.1,0.3l0,0.9l-0.1,0.2l-0.4-0.1
		l-0.3-0.3l-0.3-0.3l-0.3-0.2l0,0.1l-0.2,0.3l-0.5-0.2l-0.4,0.4l-0.2,0.6l-0.1,0.6l-0.2,0.5l-0.9,1l-0.2,0.4l0.2,0.5l12.3,13.4
		l1,1.6l3.5,3.9l0.9,2.6l0.7,0.9l1.3,0l1.3-0.4l0.5-0.4l0.2-0.6l-0.3-0.6l-0.6-0.5l-0.3-0.3l0.6-0.2l-0.2-0.3l-0.4,0l-0.4,0
		l-0.3-0.2l-1.5-1.9l-0.2-0.2l-0.3-0.2l-0.2-0.2l-0.2-0.5l-0.3-0.2l-0.4-0.1l-0.3-0.1l-0.2-0.3l-0.3-0.6l-0.2-0.2l-0.2-0.5l-0.1-0.7
		l-0.2-0.6l-0.6-0.3l-0.2-0.3l-1.4-1.6l0.1-0.4l1-0.5l0.2-0.6l-0.1-0.1l-0.3-0.2l-0.2-0.3l0.1-0.4l0.2,0l0.3,0.2l0.3,0.2l0.2,0.2
		l0.1,0.7l-0.3,0.4l-1,0.8l0.8,0.5l0.3,0.3l0.3,0.8l0.8,0.7l0.2,0.4l0,1.1l0.2,0.5l0.4,0.2l0.4,0.1l0.5,0.3l0.4,0.3l0.2,0.3l0.3,0.2
		l1.3,0l0.5,0.1l0.5,0.3l0.3,0.4l0.2,0.4l0.7,0.8l0.2,0.1l0.3,0l0.3,0.1l0.4,0.4l0.2,0.1l0.3,0l0.2-0.1l0.2-0.1l0.1-0.3l0.2-0.1
		l1-0.2l-0.5-0.6l-0.3-0.2l-0.2,0l-0.2,0.3l-0.1,0.1l-0.2,0.1l-0.3-0.1l0-0.3l0.2-0.4l-0.3-0.3l-0.3-0.2l-0.4,0l-0.5,0l-0.4-0.1
		v-0.6l-0.3-0.2l1.2-0.8l0.4,0l-0.1,0.8l0.6-0.5l0.3-0.2l0.4,0l-0.2,0.5l-0.1,0.3l0,0.3l0,0.4l0.1,0.1l0.2,0l0.3,0.1l0.2,0l0.2-0.1
		l0.2,0.1l0.1,0.4l0.1,0.2l0.2,0l0.3,0l0.3,0.1l-0.1,0.1l-0.4,0.4l0.8-0.3l0.7-0.7l0.4-0.9l-0.1-0.8l1,0.2l0.3,0.1l0.3,0.4L217,48
		l-0.3,0l-0.5-0.2l-0.1,0.4l0,0.2l0,0.2l-0.2,0.3l-0.6,0.7l-0.4,0.9l-0.1,0.7l-0.2,0l-0.5-0.3l-0.8-0.2l-0.3,0.1l0.1,0.5l0.2,0.1
		l0.4,0.1l0.7,0.1l0.5-0.2l0.5-0.4l0.4-0.2L216,51l0.3-0.2l0.7-0.5l0.3-0.1l0.4,0l0.4-0.1l0.4-0.2l0.3-0.2l0.1,0.2l0,0l0.1,0
		l0.2,0.1l-0.1,0.4l-0.2,0.1l-0.2,0l-0.3,0.1l-0.7,0.6l-0.8,0.3l-0.3,0.2l-0.4,0.4l-0.4,0.3l-0.5,0.1l-1.2,0.1l-0.4-0.1l-0.4-0.2
		l-0.3,0.1l-0.2,0.6l-0.4-0.2l0.2,0.9l0.6,0.5l0.9,0.2l1.6-0.1l0.2-0.1l0.3-0.3l0.4-0.5l0.2,0l0.9,0.4l0,0.2l-0.6,0.4l-0.1,0.3
		l0.2,0.3l0.3,0.3l0.2,0.3l-0.4,0.4l-0.1,0.1l0,0.1l0,1.4l0.1,0.2l0.2-0.4l0.2,0.3l-0.3,1.2l0.2,0.5l0.1-0.1l0.4-0.1l-0.1,0.3
		l-0.4,0.3l-0.2,0.2l-0.1,0.4l-0.1,0.4l-0.1,0.3l-0.3,0l-0.3,0.5l-0.3-0.3l-0.3-0.6l-0.3-0.4l0,0.2l0,0.4l0,0.2l-0.5-0.3l-0.3-0.1
		l-0.3,0l0.1-0.3l0-0.3l-0.1-0.2l-0.3-0.2l0.4,0l0.4-0.1l0.3-0.1l0-0.1l-0.3,0l-1.1-0.3l0.4-0.3l0-0.3l-0.3-0.2l-0.5-0.1l-0.4-0.2
		l-0.6-0.9l-0.5-0.4l-0.4-0.9l-0.4-0.2l-0.4,0.1l-0.3,0.3l-0.4,0.7l-0.1-0.4l0-0.4l0.3-0.7l-0.3,0l-0.2,0.1l-0.1,0.2l-0.1,0.3
		l0.2,1.3l0.8,1.2l3.7,3.8l1.4,2.1l0.5,1.2l0.6,2.6l1.1,3.1l0.3,0.5l0.5,0.2l0.6-0.2l0.6-0.4l0.4-0.5l0.6,0.5l0.2,0l0.3-0.3l0.1-0.3
		l0.2-0.7l0.2-0.3l0.7-0.4l0.9-0.2l1.8-0.1l1.8,0.3l-0.1,0.3l-0.3,0.3l-0.3,0.2l-0.3,0.1l-0.3,0.3l0,0.6l0.4,0.3l0.7-0.7l0.2,0.4
		l0.2,0.5l0.3,0.3l0.4-0.1l0.5,0.4l1.4,0.4l0,0.3l0.2,0.3l0.1,0.4l-0.1,0.3l-0.4,0.1l-0.4-0.2l-1-1l-0.7,0.1l-0.6,0.4l-1.1,1.1
		l0-0.6l-0.2-0.1l-1.5,1l-0.4,0.2l0.5,0.2l1.4,0.2l0.5,0l-0.4,0.3l-0.4,0l-0.8-0.1l-0.3,0.2l0.1,0.4l0.3,0.7l-0.3,0.6l-0.5-0.3
		l-0.4-0.7l-0.1-0.9l-1.4-2.2l0-0.2l0.3-0.3l0.1-0.3l-0.3-0.2l-0.4-0.1l-1.1,0.3l-0.8-0.1l-0.4,0l0.2,0.8l1.1,1.7l0.2,0.6l0.1,0.2
		l0.6,1l0.3,0.9l1.1,2.1l0.4,0.5l0.6,0.4l0.4-0.2l0.8-1.1l0.2-0.2l0.5-0.3l0.3-0.2l0.4-0.1l0.3,0.1l0.1,0.2l-0.1,0.1l-0.7,0.2
		l-0.4,0.5l-0.2,0.6l-0.3,0.5l-0.3,0.2l-0.8,0.2l-0.3,0.1l-0.2,0.3l0,0.3l0.3,1.2l1.6,3l1.7,5.3l0.5,0.4l0.8-0.3l0.2,0.1l0.2,0.1
		l0.1,0l0.1-0.1l0.1-0.3l0.1-0.1l1.1-0.6l0.2,0.4l-0.1,0.4l-0.3,0.3l-0.4,0.2l0.3,0l0.2,0.1l0.2,0.2l0.1,0.2l-1.5,0.2l-1.5,0
		l-1.3,0.4l-0.7,1.3L226,97l0.1,0.5l0.7,0.4l0.3-0.3l0.2-0.6l0.4-0.5l0.6,0.1l0.3,0.5l0,0.5l-0.4,0.3l-0.9,0.8l-0.3,0.1l-0.3,0
		l-0.2,0.1l-0.2,0.3l-0.1,0.3l-0.1,0.4l0,0.4l0.3,0.2l0.4-0.1l0.2-0.2l0.1-0.3l0.2-0.3l0.5-0.1l0.8,0.2l0.5,0.4l-0.1,0.5l0.2,0.2
		l0.2-0.1l0.2-0.1h0.5l-0.5,0.6l-0.8,0l-0.8-0.1l-0.7,0.2l0.6,0.5l0.2,0.1l-0.6,0.2l-0.4-0.2l-0.3-0.4l-0.4-0.2v0.4h-0.2l-0.2-0.2
		l-0.2-0.2l-0.1-0.3l0-0.3l-0.4,0.1l-0.5,0.1l-0.5,0l-0.4-0.2l-0.1,0.4l0.1,0.5l0.2,0.5l0.1,0.5l0,0.6l-0.3,1l-0.1,1.6l-0.2,1
		l-0.4,1l-1,1.7l-0.2,1l-0.1,4.7l-0.1,0.5l-0.2,0.4l-0.1,0.4l0.2,0.5l-0.4,0.1l-0.2,0.3l0,0.8l-0.1,0.4l-0.3,0.6l-0.2,1l-0.4,0.6
		l-3.3,2.7l-1.2,0.7l-1.3,0.3l-3.6-0.2l-0.6,0.1l-6.9,3.4l-2.8,1l-1.2,0.8l-0.8,1.2l-0.4,1.3l-0.1,1.3l0.2,1.2l0.5,1.3l0.8,1.1
		l1,0.8l3.7,2.1l1.6,0.4l4.6,0.6l1.5,0.4l1.4,0.6l1.1,0.9l1.6,1.9l0.5,0.5l2.9,2.1l0.7,0.3l0.7,0.1l1.7,0.1l2.2,0.6l2.2,0l0.7,0.1
		l1.5,0.5l1.9,0.9l2.5,2.2l0.5,0.8l2.1,1.6l0.4,0.6l0.4,0.7l0.5,1.5l0.4,1.8l0.4,0.6l0.9,0.2l0.9-0.3l0.7-0.5l0.5-0.7l0.4-0.8h0.2
		l0,0.7l-0.2,0.6l-0.4,0.4l-0.5,0.4l-0.6,0.4l-0.3,0.1l-0.4,0.1l-0.4,0l-0.3-0.1l-0.2,0.1l-0.1,1.1l-0.3,1.6l-0.2,0.5l0,0.2l0,0.4
		l0.1,0.4l0.2,0.4l-0.2,0.1l-0.2,0l-0.2,0l-0.1,0.1l0,0.2l0,0.2l0,0.1l-0.2,0.6l-0.1,1.5l-0.2,0.6l-0.3,0.5l-0.7,1.9l-1.3,2.2
		l-1.5,1.9l-1.6,1.3l-0.2,0.4l-0.6,1.2l-0.1,0.7l-0.1,0.3l-0.2,0.3l-0.2,0.2l-0.3,0.2l-0.3,0.2l-0.3,0.1l-0.3,0.1l-0.5,0.5l-0.3,0.1
		l-0.2,0.2l0.2,0.4l0.3,0.3l0.1,0.1l0.1,0.4l0,0.3l-0.1,0.2l-0.4,0.2l-0.4-0.7l-0.3,0l-0.4,0.3l-0.6,0.2l-0.4,0.3l-0.7,1.2l-0.7,0.5
		l-1.1,1l-0.5,0.3l-1.2,0.2l-0.5,0.2l-0.3,0.5l0.3,0.9l1,0.8l1.3,0.5l1.2,0.2l0.4-0.1l0.3-0.2l0.3-0.2l0.3,0.1l0.3,0.2l0.3,0
		l0.3-0.2l0.2-0.2l0.2-0.6l-0.4-0.3l-1.3-0.2l0.2-0.4l0.2-0.3l0.3-0.3l0.4-0.3l0.6-0.2l0.8-0.1l0.7,0.2l0.3,0.6l-0.1,0.7l-0.6,1.1
		l-0.2,0.6l0,0.7l0.2,0.5l0.1,0.4l-0.4,0.5l0.1,0.2l0.4,0.3l0.6,0.3l0.4,0.1l0.3,0l0.3-0.2l1.3-1.1l0.6-0.3l0.7-0.1l0.7,0.1l3.2,0.9
		l0.3,0.2l0.1,0.3l-0.4,2l0,0.4l0.2,0.3l0.2,0.3l0.1,0.3l-0.1,0.4l0.4,0.3l0.3,0.8l0.4,0.2l2.1-0.2l0.4-0.1l0.9-0.8l0.5-0.2l1.9-0.6
		l6-3.5l1.6-0.6l1.4-0.7l1-0.8l4.1-2.6l2.8-2.9l0.6-1l0.9-2.5l0.3-0.6l0.5-0.6l0.6-0.5l1.3-0.4l0.4-0.5l0.4-1.3l0.9-1.8l0.6-0.8l1-2
		l0.2-0.2l0.2-0.1l0.4,0l0.2-0.1l0.5-0.8l0.1-0.3l0.1-0.3l0-0.3l0.2-0.3l1.6-1.2l1.6-2l0.5-0.1l0.7,0.1l0.7,0l0.5-0.6l0.3-1.9
		l1.7-2.7l-0.3,0l-0.3,0.1l-0.2,0.2l-0.2,0.2l0.1-0.5l0.2-0.5l0.7-0.8l0.3-0.2l0.2,0.1l0.2,0.2l0.3,0.1l0.2-0.1l1.2-0.8l1.1-1.2
		l0.7-1l0.4-0.9l0.1-0.1l0.3-0.4l0.1-0.1l0-0.2l0-0.7l0-0.4l0.1-0.3l0.4-0.5l0.6-1.1l0.9-2.4l0.4-0.5l0.1-0.1l0.4-0.1l0.1-0.1l0-0.2
		l0-0.2l0-0.1v-0.1l0.6-1.8l0.2-0.3l0.6-0.2l0.3-0.2l0.3-0.2l0.1-0.2l0.3-0.7l0.5-0.5l0.1-0.4l-0.9-0.2l-0.9,0.1l-0.5,0l-0.4-0.2
		l-0.2-0.1l-0.7-0.4l-0.4-0.2l-0.2-0.2l-0.2,0l-0.3,0.4l-0.1,0.3l0,0.6l-0.1,0.2l-0.5-0.3l0.1-0.8l0.5-1.4l-0.2-2.5l-0.2-0.6
		l-0.3-0.3l-0.3-0.2l-0.2-0.2l-0.1-0.5l0-0.5l0.1-0.4l0.2-0.3l0.3-0.3l0.3-0.8l0.1-0.1l0.6-0.4l1-0.8l0.7-0.7l0.4-0.5l0.3-0.6
		l0.1-0.6l0.3-0.3l3.7-1.4l5-1.9l0.7-0.5l0.3,0.1l0.2,0.2l0.3,0.1l4.4,0.1l4.3,0.2l0.4,0.1l0.8,0.4l0.3,0.1l0.4-0.4l0.5,0l0.4,0.2
		l0,0.3l-0.3,0.3l-0.2,0.4l-0.2,0.4l-0.1,0.4l0,0.8l0.2,0.9l0.7,1.7l0.4-0.4l0.4-0.3l0.3-0.3l0.2-0.9l0.6-1.4l1.5-1.2l-0.4-0.7
		l-0.9-0.4l-1.9-0.2l0.2-0.5l0.4-0.4l0.2-0.4l-0.2-0.5l0.2-0.5l0.1-1.1l0.4-0.8l0.3-1.6l0-1.4l0.2-0.6l0.5-0.7l0.1-0.3l-0.2-0.3
		l-0.5-0.4l-0.1-0.1l-0.1-0.3l0-0.1l0-0.3l0.1,0l0.2,0.1l0.2-0.1l0.6-0.3l0.7-0.1l0.7,0.1l1.1,0.8l0.5-0.2l2.8-1.9l3.1-2.7l0.2-0.2
		l0-1.8l0.1-0.2l1-0.4l0.2-0.2l0-0.4l-0.2-0.3l-0.3-0.2l-0.3-0.1l0.2-0.4l0.1-0.6l0.1-0.4l0.4-0.4l0.2-0.3l0.1-0.3l-0.3-0.4
		l-0.5-0.5l-0.4-0.5l0.2-0.6l0.4-0.5l0.3-0.5l0.1-0.5l-0.7-1.1l0.3-0.4l0.5-0.3l0.4-0.4l0.1-0.7l-0.3-0.6l-0.4-0.6l-0.2-0.6l0.1-0.3
		l0.2-0.3l0.5-0.5l0.3-0.4l0.8-1.7l0.4-0.6l1-0.5l0.4-0.7L327,92l1-0.9l0.5-0.7l0.2-0.2l0.1-0.5l-0.4-0.6L327.8,88.7z M33.5,336.8
		l0.3-0.2l0.3-0.5l-0.4-0.2l-0.4-0.1l-0.4,0l-0.3,0.2l-0.1,0.4l0.2,0.4l0.4,0.1L33.5,336.8z M37.6,327.8L37.6,327.8l0.1-0.2
		l-0.1-0.1l-0.1,0.1l-0.3,0l-0.1,0.1l0.3,0L37.6,327.8z M48.4,340.1l0-0.2l-0.2-0.2l-0.2,0.1l-0.1,0.2l0.3,0.1L48.4,340.1z
		 M47.5,343.6l0.3,0.1l0.3,0l0.3-0.1l0.1-0.2l0.2-0.7l0.1-0.3l-0.2-0.1l-0.2-0.2l-0.2-0.2l-0.1-0.2l-0.1-0.1l-0.2,0l-0.4,0.1l-0.4,0
		l-1.5,0.4l-0.3,0v-0.2l0.2-0.1l0.1-0.1l0.1-0.1l0.1-0.2l-1.1-0.3l-0.7-0.1l-0.7-0.4l-0.3-0.1l-0.6,0.2l-0.9,0.8l-0.7,0.1l1.3-1.3
		l0.1-0.3l-0.3-0.5l0.5-0.2l1.5,0l-0.2,0.4l2.5,0.2l0.7-0.2v-0.2l-0.6-0.2l0.5-0.4l-0.3-0.3l-0.6-0.3l-0.3-0.1l-0.2-0.4l-0.4-0.3
		l-0.5-0.2l-0.4-0.3l-2.4-2.4l-0.5-0.4l-0.5-0.3l-1.3-0.5l-0.3,0l-0.4,0.3l-0.4,0.1l-0.4,0l-0.7-0.2l-0.8,0l-0.6,0.1l-0.4,0.4
		l-0.1,0.8l-0.1,0.1l-0.1,0.1l0,0.2l0.1,0.2l0.1,0.1l0.1,0.1l0,0.1l0,0.2l-0.1,0.2l-0.2,0.2l-0.1,0.2l0.2,0.3l0.9,1l0.4,0.6l0.1,0.6
		l-0.1,0.4l-0.2,0.3l-0.5,0.5l-0.4,0.2h-0.8l-0.3,0.1l-0.1,0.6l0.2,0.7l0.1,0.7l-0.5,0.4l-0.4,0l-0.3-0.1l-0.4-0.1l-0.4,0.1
		l-0.6,0.3l-0.3,0.2l-0.3,0.3l-0.2,0.4l0,0.3l0.1,0.3l0,0.4l-0.1,0.3l-0.2,0.3l0,0.3l0.5,0.2l-0.9,0.3l-0.6,0.3l-0.5,0.1l-0.3,0.2
		L29,348l-0.3,0.7l-0.2,0.7l0.2,0.5l0.6,0.1l0.9,0l0.9-0.2l0.5-0.2l0.4-0.4l0.5-0.4l0.3,0l0,0.7l0.9-0.6l0.3-0.3l0.3-0.5l-1.7,0.4
		l-0.8,0.1l-0.5-0.4L32,348l1.4-0.8l0.4,0.2l0.2-0.7l0-0.1l0.2-0.1l0.5-0.1l0.6-0.4l0.2,0.2l0.2,0.4l0.3,0.3l0.3,0l1-0.1l0.4,0.2
		l0.4,0.2l0.5,0.1l0.5,0l0.4-0.2l0.5-0.5l1.7-1.1l0.7-0.2l1.7-0.2h2l-0.3-0.4l0.9,0.3l0.3-0.1l-0.2-0.7l0.1-0.2l0.6,0l0.2,0.1
		l0.2,0.3l0.1,0.1l0.2,0l0.3,0l0.2-0.1l0-0.2l-0.3-0.3l-1.2-0.6v-0.2L47.5,343.6z M57.5,335.5l-0.3,0.2l-0.4,0.1l-0.4,0l0.2,0.3
		l0.3,0.3l0.2,0.2l-0.1,0.3l0.3-0.3l0.6-0.4l0.3-0.6l-0.4-0.6L57.5,335.5z M9.4,308.6H10l1.1-0.3l0.1-0.1l0-0.2l-0.1-0.1l-1.6-0.1
		L9.1,308l-0.3,0.2v0.2l0.2,0.1L9,308.5L9.4,308.6z M200,175.9l-0.4-0.2l-0.3-0.3l-0.4-0.3l-0.2,0.3l0,0.3l0,0.3l0.2,0.3l0.1-0.1
		l0.3-0.3l0.1,0.3l0,0.3l-0.2,0.2l-0.3,0.1l0,0.1l0,0.1l0,0.1l-0.1,0.1l0.4,0.2l0.4,0l0.4-0.1l0.3-0.2l0.1-0.1l0.1-0.2l0.1-0.2
		l0.2-0.1l0.7-0.2l0.2-0.1l0.3-0.3l0.2-0.1l0.5,0l0.1,0l0.2-0.3l0.1-0.7l0.1-0.3l0.1-0.1l0.4-0.4l0.2-0.1l0.1-0.1l-0.1-0.2l-0.2-0.3
		l0.3-0.7l0.1-0.4l0-0.4l-0.1-0.4l-0.1,0.2l-0.3,0.8l-0.2,0.3l-0.3,0.2l-0.6,0.4h0.9l-0.4,0.3l-0.9,0.2l-0.2,0.3l-0.1-0.4l0.1-0.5
		l0-0.4l-0.4-0.2l-0.2,0.1l-0.1,0.3l-0.1,0.4l-0.3-0.1l-0.1-0.2l0-0.2l-0.2,0l-0.1,0.2l-0.3,1l-0.1,0.4l0.1,0.4l0.2,0.4l0.3,0.3
		l0.3,0.2v0.2L200,175.9z M211.9,186.1l-0.7,0.1l-0.3,0.1l-0.4,0.3l-0.3,0.1l-0.3-0.1l-0.4-0.2l-0.4-0.2l-0.3-0.3l-0.3,0.1l-0.6,0.1
		l-0.5,0.3l-0.3,0l-0.3-0.1l-0.3,0l-0.5,0.2l-0.4,0.3l-0.4,0.1l-0.6-0.1l-0.3,0.1l-0.8,0.2l-0.6,0l0.1-0.3l0.4-0.3l0.5-0.2l0.5-0.1
		l0.4,0.1l0.2-0.3l0.3-0.1l0.3,0l0.3,0.2l0.4-0.4l0.7-0.2l1.4,0l0.4-0.1l0.2-0.1l0.1-0.2l0.2-0.2l0.5-0.3l0,0.1l0.1,0l0.3-0.1l0.1,0
		l-0.2-0.4l-0.2-0.2l-0.6-0.5l-0.2-0.3l-0.2-0.4l0-0.2l0.4,0.1l0.1-0.3l0.2-0.3l0.2-0.2l0.1,0.1v1.1l0.1,0.3h0.3l0.3-0.1l0.1-0.1
		l-0.1-0.1l0.3-0.2l0.4-0.2l0.1,0.1l0.1-0.2l0-0.5l0.2-0.3l1.4-1.7l0.2-0.5l-0.2-0.3l-0.4,0.1l-1.1,0.8l-0.6,0.6l-0.5,0.4l-0.5,0.1
		l-0.5-0.3l-0.1-0.2l0-0.2l0.1-0.1l0.6-0.1l0.1-0.1l0-0.2l0-0.3l-0.1-0.4l-0.3-0.4l-0.4-0.3l-0.4-0.1l0.1,0.5l-0.3,0.4l-0.5,0.1
		l-0.5-0.3l-0.4,0.5l-0.5,0.1l-0.6-0.1l-0.6-0.3l-1-0.8l-0.5-0.2l0,0.6l-0.4-0.2l-0.2,0.1l0,0.3l0.2,0.3h-0.9l0.2,0.3l0.8,0.7
		l0.4,0.1l0.2-0.3l0.1-0.4l0.2-0.3l0.4,0l0.2,0.3l0,0.4l-0.5,0.6l0.1,0.3l0.5,0.5h-0.8l-0.4,0.3l-0.2,0.5l-0.5,0.7l-0.2-0.8l0.1-0.4
		l0.3-0.4l-0.9-0.2l0,0.3l0,0.2l-0.1,0.1l-0.2,0l-0.2,0.1l0,0.1l0.1,0.2l-0.1,0.2l-0.3,0.2l-0.4,0.2l-0.3,0.3l-0.1,0.4l0.2,0.8
		l0.7,0l1.5-0.5l-0.2,0.4l0.1,0.1l0.1,0.1l0.1,0l0.2,0l0.2,0l0.1-0.1v-0.1l0.1-0.1l0.5-0.1l3.1-0.1l-0.6,0.5l-0.8,0.2l-1.6-0.1
		l0.4,0.3l0.2,0.1l-0.4,0.2l-0.7,0.2l-0.7,0.1l-0.4-0.1l-0.4-0.2l-0.6,0l-1.1,0.1l0.2,0.2l0.3,0l0.4,0l0.4,0.1v0.2l-1,0.2l-2.9,1.3
		l-0.2-0.1l-0.2-0.1l-0.2-0.2l-0.1-0.3l1.5-0.3l0.8-0.3l0.3-0.3l0.1-0.3l0.3-0.6l0.1-0.3l-0.2-0.4l-0.4-0.3l-0.5-0.2l-0.4,0l0.3-0.4
		l0.4-0.1l0.4-0.2l0.2-0.6l0.2,0.1l0.2,0l0.1-0.1l0-0.3l0-0.1l-0.1-0.2l0-0.1l0.1-0.2l0.2,0l0.2,0.1l0.1,0l0.2,0l0.3,0.1l0.2,0
		l0.1-0.2l0.1-0.3l0.1-0.2l0.2-0.1l0.3,0l-0.7-0.3l-1,0l-1.8,0.3l0,0.1l-0.6,0.7l-0.1,0.4l-0.3,0.1l-0.3-0.1l-0.2-0.2l0.3-0.2
		l0.2-0.3l0.2-0.3l0.1-0.3l-0.5-0.1l0-0.2l0.3-0.2l0.4-0.2l-0.7-0.5l0.4-0.3l0.8-0.1l0.4,0l0.4,0.3l0.9,0l0.9-0.2l0.5-0.3l-0.2,0
		l-0.1-0.1l-0.1-0.1l-0.2-0.2l0.3-0.2l0.3-0.1l0.3,0l0.3,0.1l0.1-0.4l0.3-0.2l0.2-0.2l-0.2-0.4l1.3,0.3l0.5-0.1l-0.3-0.7l-0.2-0.1
		l-0.3-0.1h-0.3l-0.2,0l-1.3,0.6l-0.4,0.1l-0.1,0.1l0,0.1l-0.1,0.4l-0.1,0.1l-0.8,0.6l-0.1,0.1l-0.7-0.1l0.1-1.3l-0.7,0.3l-0.6,0.7
		l-0.1,0.1l-1.4,0.2l-0.3,0.1l-0.3,0.2l-0.6,0.2l-0.2,0.2l-0.4,0.4l0,0.1l0,0.4l0.2,0.1l1-0.6l0.3,0.1l0.2,0.2l0,0.3l-0.2,0.3
		L197,181l-0.7,0.2l-0.4,0.3l0.4,0.6l-0.4,0.2l-0.1-0.3l-0.1-0.1l-0.1,0.1l-0.1,0.3h-0.2l0-0.5l-0.3-0.5l-0.4-0.4l-0.5-0.1l-0.4,0.1
		l-0.5,0.3l-0.3,0.4l0.3,0.3l-0.2,0.3l-0.2,0l-0.2-0.1l-0.2,0l-0.2,0.2l-0.4,0.6l-0.4,0.3l-0.5,0.2l-0.9,0.3l0.1-0.2l0.1-0.2l0-0.2
		l-0.2-0.1l-0.3,0.1l-0.3,0.4l-0.7,0.2l-1.7,1.3l-1.1,1.1l-0.5,0.4l-0.9,0.4l-1,0.7l-0.5,0.2l-0.6,0.1l-1.3,0l-0.6-0.1l-0.5-0.2
		l-0.2-0.4l0.1-0.2l0.5-0.2l0.2-0.2l0-0.2l-0.3-0.7l-0.3-1.1l-0.2-0.3l-0.3,0.3h-0.2l-0.1-0.3l-0.2-0.2l-0.4-0.3l-0.1-0.2l0.2-1
		l0.3,0.1l0.2,0.2l0.2,0.2l0.1,0.3l0.1-0.4l-0.2-0.4l-0.3-0.4l-0.2-0.4l-0.1-0.4l-0.3-1.3l-0.3,0.1l-0.2,0l-0.2,0l-0.3-0.1l0.7-0.4
		l0.6-0.5l0.3-0.4l0.1-0.2l-0.1-0.2l-0.1-0.5l0.3-1.2l0.1-0.1l-0.3-0.4l-0.3-0.1l-0.4,0l-0.5-0.1l0.3-0.3l0-0.2L178,175l0.2-0.5
		l0-0.2l-0.1-0.3l-0.4-0.4l-0.4,0l-0.4,0.2l-0.4,0.4l-0.3-0.3l-0.2,0l-0.4,0.3l0,0.1l0.1,0.4l-0.1,0.1l-0.4,0l-0.1,0.1l-0.7,0.4
		l-0.4,0.1l-0.4-0.1l-2.3-1.4l-0.9-0.7l-0.4-0.8l-0.6,0.2l-0.2,0.1l-0.1-0.4l0.3-0.8l0-0.5l-0.1-0.1l-0.5-0.1l-0.2-0.1l-0.4-0.7
		l0.5,0l0.4,0l0.1-0.2l-0.2-0.6l0.4-0.3l0.2-0.5l0.3-1.1l0.3-0.6l0.3-0.3l0.4-0.1l5.9,0.4l0.6-0.2l-0.9-0.1l-1.6-0.4l-1.8-0.2
		l-5.4,0.2l-1.2,0.5l-1,1l0.3,0.1l0.4,0l0.4-0.2l0.4-0.3l0.1,0.1l0.3,0.3l0,0.2l-0.8,0.3l0.1,0.4l-0.2,0.1l-0.2,0.1l-0.2,0.1
		l-0.4-0.2l-0.2,0.2l-0.2,0.3l-0.1,0.1l-0.4-0.1l0-0.3l0.4-0.9l-1,0.3l-1.2,0.9l-2.7,2.6l-1.4,0.8l-0.1,0.1l-0.3,0.1l-0.8,0.4
		l-0.4,0.3l-0.2,0l-0.4,0l-0.2,0.1l-0.1,0.2l-0.1,0.2l-0.1,0.1L156,174l-0.2,0l-0.2,0l-0.2,0.1l-0.1,0.1l0,0.3l-0.1,0.2l-0.7,0.7
		l-0.4,0.5l-0.2,0.2l-0.2,0.1l-0.3,0l-0.2,0.2l0,0.5l0.2,0.9v3l0.2,1.4l0,0.3l-0.2,0.6l-0.1,0.3l0.2,3l0.2,0.3l0.5,0.8l-0.3,0
		l-0.3,0.1l-0.3,0.1l-0.1,0l-0.3-0.1l-0.1,0.3l-0.1,0.7l0,0.6l-0.1,0.3l-0.4,0.5l-0.1,0.3l0,0.3l0.1,0.3l-0.6,0.2l-0.8,0.4l-0.7,0.5
		l-0.3,0.4l0,0.3l-0.1,0.3l-0.1,0.3l-0.2,0.2l-0.1,0.1l-0.1,0l0,0.1l0,0.6l-0.1,0.1l-0.1,0l-0.1,0.1l-1,1.7l-0.4,0.5l-0.3,0.2
		l-0.3,0.1l-0.2,0.2l-0.2,0.6l-0.3,0.1l-0.4,0l-0.4,0.1l-0.2,0.2l-0.7,0.6l-2.6,1.2l-1.3,0.4l-0.2,0l-0.5,0l-1.9,0.2l-1.6-0.2
		l-0.4,0.2l0,1.3l0,0.2l0.1,0.2l0.2-0.2l0.2,0.3l-0.6,1l-0.3,0.9l-0.4,0.5l-0.5,1.7l-0.3,0.6l-0.4,0.5l-0.9,0.9l-0.1,0.2l-0.3,0.7
		l-0.1,0.6l-0.5,1l-0.7,4l-0.6,1.2l-1.3,1.5l-0.2,0.6l0.4,0.5l0.8,0.2l1.8-0.1l0.7-0.2l0.6-0.3l-1.1,0.9l-3,0l-0.6,0.1l-0.6,0.5
		l-1.9,3l-0.5,0.2l-0.7,1l-0.5,0.5l-0.4,0.2l-0.3,0.1l-0.3,0.2l-0.4,0.5l-0.2,0.4l0.1,0.2l0.5,0.4l0.5,0.6l0.1,0.6l0,0.6l0.1,0.7
		l0.1,0.3l0.1,0.2l0.2,0.2l0.3,0.3l0.5,0.3l0.2,0.2l0.1,0.3l-1.3-0.8l-0.2-0.2l-0.3-0.2l-0.7-0.1l-0.5,0.2l0.2,0.5l0.5,0.7l0.4,1
		l0.1,1l-0.5,0.6l-0.1-1.4l-0.1-0.7l-0.9-1.4l0.3-0.4l0.7-0.3l0.5-0.4l0-0.6l-0.3-0.7l-0.4-0.6l-0.5-0.3l-0.7-0.1l-0.3,0.1l-0.4,0.3
		l-2.3,3l-0.5,0.3l-0.5,0.2l-1,1.1l-0.5,0.4l-1,0.4l-0.3,0.2l-0.4,0.3l0,0.1l0.1,0.2l0.2,1l0.7,1l0.1,0.7l-0.6-0.7l-0.7-1.2
		l-0.7-0.9l-0.9,0.1l-1.1,0.6l-2.4,0.6l-1.1,0.5l2.3,0.7l1.1,0.6l0.7,0.9l-0.5-0.4l-3.4-1.4l-0.7-0.1l-0.1,0.5l-0.6-0.2l-0.4,0.2
		l-0.4,0.4l-0.5,0.3l0.2,0.3l0.5,0.1l0.2,0.2l-0.8,0.2h-2.7v0.2l2.5,0.8l0.7,0.5l0.5,0.7l0.2,0.4l-0.1,0.4l0,0.5l0,0.2l-0.3,0.5
		l-0.1,0.2h-0.2l-0.2-0.6l0-1.1l-0.1-0.6l-0.2-0.5l-0.3-0.4l-0.5-0.3l-0.6-0.2l-1.1-0.2l-1.2,0.4l-0.9,0.8l-0.5,1.2l0.6-0.3l0.6-0.7
		l0.7-0.6l0.9,0.1l-1.8,2.1l-0.3-0.1l-0.6-0.3l-0.3-0.1l-0.4,0.1l-0.4,0.1l-0.7,0.4l-0.7,0.2l-0.3,0.2l-0.2,0.4l-0.1,0.4l0.1,0.2
		l0.3,0.1l0.4,0.3l0.4,0.6l0.2,0.5l-0.2,0.2L99,243l-1.1-0.9l-0.5-0.1l-0.2,0.7l-0.4,0.4l-3.6,1.3l-0.6,0.3l-0.6,0.5l-0.2,0.6
		l0.6,0.3l0.9,0.1l0.8,0l0.7-0.1l0.3,0l0.3,0.1l-1.2,0.3l-0.5,0.1l-0.7,0l-1.5-0.2l-0.7,0.1l-0.6,0.5l1.1,0.4l0.5,0.3l0.2,0.4l0,0.9
		l-0.1,0.1l-0.4-0.3l-0.5-0.9l-0.4-0.4l-0.6,0.1l-0.4,0.3l-0.9,1l-0.4,0.2l-0.5,0.1l-1.4,0.8l-0.6,0l-1.1-0.2l-0.9,0.5l-1.1,0.2
		l-0.4,0.3l-0.2,0.6l0.2,0.5l0.4,0.5l0.4,0.4h-0.2l-0.6-0.1l-0.2-0.5l-0.1-0.6l-0.2-0.5l-0.2-0.2l-0.2,0l-0.7,0.1l-0.3,0.1l-0.3,0.2
		l-0.3,0.2l-0.1,0.2l-0.3,0.4l-0.7,0.3l-1.4,0.3l-2,1l-0.5,0.1l-0.5,0.2l-1,0.9l-0.5,0.2l-0.3,0.1l-0.7,0.3l-0.2,0.1l-0.1,0.2
		l0.1,0.2l0.4,0.5l0.6,1l0.4,0.5l0.5,0.2l0.6,0.1l1.4,0.7l0.5,0.3l-0.6,0l-1.5-0.8l-0.7-0.2l-0.3,0l-0.4-0.1l-0.3-0.2l-0.7-1.5
		l-0.5,0.1l-1.7,0.7l-0.5,0.3l-0.5,0.4l-1.3,0.6l-1.6,1.2l-1.5,0.7l-1.5,0.4l-1.3-0.1l-0.6-0.4l-0.4-0.5l-0.5-0.2l-0.7,0.5l-0.2,0.1
		l-0.7-0.1l-0.4,0.2l-0.3,0.2l-0.6,0.3l-0.9,0.3l-1,0.2l-1.7,0.1l-0.5,0.1l-0.5,0.2l0.6,0.3l0.2,0.1l-0.3,0.1l-0.3,0.1l-0.3,0.2
		l-0.3,0.2l-0.2,0.3l-0.1,0.3l0,0.3l0,0.2L50,265l-1.1,0.8l-1.7,0.8l-1,0.8l-0.5,0.2l-1.3,0.3v0.2l0.7,0.2l0.3,0.3l0,0.4l-0.3,0.5
		l-0.3,0.1h-2.4l0.1,0.9l-0.7,0.6l-1,0.5l-0.8,0.5l-2.3,1.8l-0.6,0.7l0.2,0.3l0.2,0.4l0.2,0.8l0,0.7l0,0.2l0.1,0.2l0.1,0.1l0.1,0
		l0.2,0.1l0.7,0.6l0.6,0.3l0.1,0.1l0.2,0.3l0.1,0.4l-0.1,0.4l-0.2,0.3l-0.8-1.2l-0.4-0.3l-0.9-0.4l-1.2-0.8l-0.8-0.1l-0.8,0.2
		l-0.8,0.6L34,278l-0.5,0.1l-0.2,0.1l-0.1,0.2l-0.2,0.4l-0.2,0.2l-1.4,0.3l-0.4,0.3l-0.2,0.4l0.1,0.3l0.7,0.5l1,0.9l0.5,0.2
		l-0.7-0.2l-0.5-0.2l-0.4-0.3l-0.5-0.5l-0.3-0.1l-0.3,0.1l-0.3,0.2l-0.5,0.2l0.1,0.2l0.3,0.4l0.2,0.5l0.7,0.6l0.1,0.6l-0.2,0.5
		l-0.3,0.4l-0.2,0.4l0,0.6l-0.5-0.3l-0.3-0.3l-0.1-0.4l0.1-0.5l0.2-0.4l0.2-0.2l0.1-0.2l-0.2-0.4l-0.9-0.6l-1,0.1l-0.8,0.6l-0.3,0.9
		l0.1,0.3l0.4,0.9l0.2,0.3l0.2,0.4l0,0.4l-0.1,0.4l0.1,0.3l0.6,0.4l0.1,0.2l0,0.2l0.1,0.2l0.1,0.2l0.1,0.1l0.1,0.3L28,288l-1-0.1
		l0.2-0.5L27,287l-0.3-0.3l-0.2-0.4l0-0.3l0.3-0.5l0.1-0.3l-0.1-0.3l-0.2-0.2l-0.2-0.2l-0.1-0.1l-0.4-0.8l-0.9,0l-2.1,0.9l0.1,0.1
		l0.3,0.3l0.2,0.1l-0.6,0l-0.5,0.1l-0.4,0.2l-1.4,0.8l-0.5,0.4l-0.1,0.4l0.3,0.2l3.3,1.4l0.5,0.1l-0.4,0.3l-0.6-0.2l-0.7-0.4
		l-0.6-0.2l-0.7-0.1l-0.7-0.3l-0.7-0.2l-0.7,0.2l-0.4,0.4l0,0.4l0.3,0.5l0.5,0.5l0.6,0.3l1.5,0.4l0.4,0.3l-1.7-0.1l-0.4,0.1
		l-0.1,0.2l0.1,0.5l-0.1,0.4l-0.3-0.2l0-0.3l0-0.4l-0.1-0.4l-1-1.2l-0.6-0.1l-0.7,0.5l-1.1,1.2l0.7,0l0.6,0.4l1,0.9l1,0.6l0.2,0.2
		l-0.2,0.2h-0.4l-0.5-0.1l-0.3-0.2l-1.1-1.1l-0.6-0.3l-0.8,0l-0.6,0.3l-0.2,0.5l0.1,1.2l0.1,0.3l0.5,0.3l0.2,0.5l0.2,0.5l0.1,0.4
		l0.5,0.2l2.2-0.2l0.7-0.1l1-0.3l1,0v0l-0.2,0.1l-0.2,0.3l0,0.5l0.1,0.1l0.3,0.3l0.4,0.2l1,0l0.4,0.1l-0.3,0.4l-0.5,0.1l-0.6,0
		L21,297l-0.4-0.2l-0.5-0.7l-0.3-0.2l-0.5,0l-2.8,0.6l-0.5,0.2l-0.4,0.4l2.7,1.9l1.4,1.3l0.2,0.9l-0.2-0.1l-0.4-0.1l-0.2-0.1
		l-0.1,0.1l-0.1,0.1l-0.5-0.9l-0.2-0.6l-0.3-0.2l-0.3-0.2l-0.7-0.5l-0.2,0.1l-0.1,0.4l-0.2,0.4l-0.3,0.3l-0.3,0.1l-0.9,0l-0.2-0.1
		l0.3-0.3l0.7-0.4l0.3-0.4l0-0.3l-0.1-0.2l-0.2-0.3l-0.8-0.6l-0.7,0l-0.8,0.3l-0.9,0.1l0.1-0.3l0.2-0.2l0.2-0.2l0.2-0.1l-1.1-0.4
		l-0.5-0.3l-0.2-0.5l-0.3-0.1l-0.6,0.3l-0.9,0.7l-0.4,0.4l-0.2,0.3l0.1,0.3l0.4,0.3l0.5,0.2l1.1,0.4l0.5,0.3l0.3-0.6l0.4,0.2
		l0.4,0.7l0.3,0.6l-1.2-0.2l-1.3-0.6l-1.3-0.4l-1.2,0.5l-0.3,0.4l-0.5,1.6l-1,1.6l0,0.4l0.3,0.5l0.2,0.1l0.5,0l0.3,0l0.6-0.1l0.3,0
		l1.5-0.6l2.2-0.3l3.6-1.4l-0.2,0.7l-0.8,0.4l-1.8,0.4l0.3,0.3l0.4,0.1l0.9,0l-0.6,0.4l-0.7,0l-1.4-0.4l-0.8,0.1L9.9,304l-0.7,0.1
		l-0.6,0.2l-0.3,0.4l0,0.6l0.2,0.7l0.5,0.1l2.6-0.3l-0.4,0.3l-1.4,0.3l-0.5,0.2l-0.3,0.3l-0.5,0.8l0.6,0.2l2.5-0.5l1.9,0.2l0.4,0
		l1.2-0.3l-0.3,0.6l-0.6,0.3l-1.3,0.4l-0.5,0.3l-0.3,0.2l-0.2,0.2l-0.3,0.2l-0.4,0l-0.8-0.1l-0.7,0.1l-1.4,0.4l-0.7,0.1l-1.7,0
		l-0.8,0.2l-0.7,0.4l-0.2-0.2l0.2-0.2H2.4l-1.8,0.2l-0.4,0.3L0,310.9l0,2.4l0.1,0.5l0,0.4l-0.1,0.3l0,0.2l0.1,0.3l0.2,0.3l0.2,0.1
		l0.2-0.1l0.6-0.5l0.4-0.2l2.6-0.5l0.4-0.3l0.1-0.3l0.7-0.8l0.2-0.1l0.5-0.3l0-0.2l0.1-0.2l0.1-0.2l0.1-0.1l0.2-0.2l0.3-0.2l0.3,0
		l0.3,0.2l-0.1,0.2l-0.2,0.3L6,313.5l0.1,0.2l0.4,0.1l0.5,0.1l0.4,0l0.9-0.2l0.9-0.3L8.8,314l-0.7,0.2l-1.6,0.3l-0.8,0.3l-0.5,0.4
		l-0.3,0.6l-0.1,0.9l-0.4-0.2l-0.2,0.2l-0.1,0.4l0,0.5l2-0.3l0.9-0.4l0.4-0.9l0.3,0.2v0.2l-0.1,0.2l0,0.1l0.2,0.2l0.1,0l0.1-0.1
		l0.8-0.7l0.1-0.1l0-0.3l-0.1-0.2l-0.1-0.2l0.1-0.3l0.4-0.3l0.6-0.3l1.2-0.3l1.6-0.7l0.6-0.1v0.2l-0.7,0.3l-1.2,0.7l-0.8,0.1
		l-0.6,0.2l-0.4,0.6l-0.8,1.3l-0.9,0.9l-1,0.8L6.5,319l-0.8,0.2l-0.2,0.2l0.1,0.3l0.8,0.8l1.5,0.8l1.8,0.2l3.7-0.1l1.9,0.4l0.5,0
		l0.5-0.1l0.5,0l1.7,0.6l0.3,0l0.1,0.1l0.1,0.2l0.2,0.1l0.2-0.1l0.2-0.1l0.2-0.1l0.4-0.1l0.6,0l1.1,0.3l0.5,0l0.4-0.1l0.8-0.4
		l0.4-0.1l0.9,0.1l0.4-0.1l0.4-0.3l0.2-0.4l0.1-0.4l0.1-0.4l0.3-0.4l0.1-0.2l0-0.4l0.2-0.2l0.2-0.1l3.1,0.2l0.4,0.1l1.3,0.6l0.5,0.1
		l1.1,0.1l0.4,0.3l0,0.5l0.7,0.8l1.4,1.3l-0.3,0.3l-0.3,0.2l-0.4,0.1l-0.4,0.2l0.3,0.2l0.6,0.3l0.3,0.2l0.4,0.5l0.2,0.2l0.3,0.1
		l0.2,0.3l0.3,0.2l0.3,0.1l0.2-0.1l0.4-0.3l0.2-0.1l0.2,0l0.4,0.1l0.3,0.1l0.3,0l0.3-0.1l0.1-0.3l0.2-0.3l0.5,0l0.8,0.1l0.3-0.1
		l0.5,0.1l0.5,0.2l0.4,0.1l0.1-0.1l-0.1-0.3l0-0.3l0.4-0.1l2.7-0.3l0.8,0.1l0.4,0.3l1.5,1.9l0.6,1.1l0.3,0.4l0.6,0l0.5-0.4l0.3-0.6
		l-0.2-0.7l0.7,0l0.5,0.6l0.2,0.9l-0.3,0.7l-1.4,0.8l-0.2,0.2l-0.1-0.2l0-0.1l0-0.1l-0.3-0.1l-0.3,0l-0.8,0.2l0.1,0.3l0.1,0.2
		l0.2,0.2l0.7,0.2l0.2,0.3l0,0.3l0.1,0.1l0.6,0.2l1,0.8l0.7,0.1l-0.3-0.5l-0.8-0.7l-0.2-0.6l0.2-0.5l0.6,0.1l1.1,0.5l2.4,0l0.8,0.2
		l0.6,0.5l-0.5,0.2l-0.8-0.1l-0.3-0.3l-0.3-0.1l-1,0l-0.4,0.1l-0.2,0.1l-0.2,0.1l-0.3,0.5l4.7,0.3l1.5-0.3l-0.1-0.1l-0.2-0.2
		l-0.1-0.1l0.4-0.3l-0.2-0.2l-0.4-0.2l-0.2-0.4l1.4,0l0.7,0.1l0.5,0.2l-0.4,0.1l-0.4,0l-0.3,0.1l-0.2,0.3l0.9,0l2.8-0.4l0.8-0.2h0.4
		l0.2,0.3l0,0.3l0.7,1.7l0.3,0.3l0.5,0.1l0.9,0l0.8,0.2l0.9,0.3l0.9,0.2l0.7-0.3l0.1-0.3l-0.1-0.3l0-0.2l0.4,0l0.2,0.1l0.2,0.3
		l0.3,0.2l0.5,0.1h0.8l0.2-0.1l0.1-0.1l0-0.1l0.3-0.2l0-0.6l0.2-0.2l0.4,0.1l0.1,0.3l-0.1,0.5l0.4,0.3l0.4,0l1-0.1l0.3-0.1l0.3-0.2
		l0.6-0.4l0.4-0.2l0.5,0l0.9,0.1l0.2,0.1l0.6,0.3l0.5-0.6l0.8,0l0.9,0.2l0.7-0.2l-0.1-0.1l-0.3-0.3l-0.2-0.1l1.4-0.6l0.3-0.2
		l0.6-0.2l0.8,0.1l0.7,0.2l0.4,0l0.9-0.5l1-0.3l0.9-0.4l0.5-0.9l-2.2-0.1l-0.4-0.1l0.4-0.1l0.8-0.2l0.5,0l0.5,0.1l0.9,0.3l0.5,0.1
		l0.2-0.1l0.6-0.4l0.8-0.2l0.1-0.3L92,327l0.4-1.4l0.9-0.9l3.8-1.9l0.5-0.4l0.5-0.5l0.6-0.5l0.7-0.3l1.4-0.4l0.6-0.3l0.6-0.4
		l0.5-0.5l0.2-0.6l0.1-0.3l0.2-0.5l0.1-0.8l0.1-0.3l0.4-0.6l1.6-1.6l2-1l2.3-0.6l5.6-0.4l0.1-0.1l0-0.2l0.1-0.2l0.3-0.2l0.1,0l0.6,0
		l0.6,0l0.4-0.1l0.2-0.4l0.1-1.5l-0.1-0.4l-0.3-0.3l-0.3,0.4l-0.3,0.1l-0.3,0.1l-0.4,0.2l-0.3,0.3l-0.4,0.6l-0.4,0.3l-1.2,0.3
		l-0.8,0.5l-1,0.2l-0.5,0.2l0.3-0.5l1-0.5l0.3-0.7l0.3-0.1l0.3,0l0.2-0.1l0.2-0.2l0.5-0.6l0.5-0.2l1.3-0.2l0.5-0.3l0-0.4l-0.5-0.3
		l-0.7-0.3l-0.5-0.3l-0.4,0.3l-0.3,0l-0.4-0.2l-0.4-0.1l-0.2,0l-0.1-0.1l0-0.1v-0.3l0-0.2l0.1,0l0.2,0l0.2-0.1l0.6-0.3l0.3-0.1
		l0.3-0.1l0.2-0.1l0.6-1l-0.6-0.1l-0.4-0.3l0-0.3l0.5-0.1l1,0l0.4-0.1l0.5-0.3l-0.2-0.5l-0.1-0.3l0-0.3l0.5,0.3l0.4,0l0.3-0.2
		l0.3-0.3l-0.2-0.7l0.6-0.4l0.8-0.4l0.4-0.5l-0.1-0.3l-0.1-0.3l0-0.3l0.2-0.4l1-0.8l0-0.6l-0.5-0.3l-0.4-0.3l0.3-0.7l0.4-0.6
		l0.6-1.9l1.5-2.3l3-2.2l1.8-2.5l0-0.3l-0.7-0.4l-6.8-1.8l7,1.3l0.9,0l0.5-0.3l0.3-0.5l0.2-1.6l0-0.9l-0.3-0.7l-0.8-0.1l0.3-0.3
		l0.4-0.1l0.3-0.2l0.1-0.5l0-0.5l-0.3-1.3v-2.1l-0.1-0.9l-0.6-0.5l0.8-0.3l0.2-0.1l0.3-0.1l0.1-0.3l0-0.3l0.1-0.2l0.8-0.7l0.4-0.4
		l0.2-0.5l0-1.6l0.1-0.3l1.5-2l0.1-0.3l-0.2-0.2l-0.5-0.2l-0.7-0.2l-2.3,0l0.7-0.3l2.3,0.1l0.4,0.1l0.4,0.2l0.4,0.1l0.4-0.2l0.5,0.1
		l0.7-0.3l1.7-1.3l0.3-0.2l0.7-0.2l-0.2-0.2l-0.7-0.4l-0.5-0.4l-0.5-0.6l-0.4-0.6l-0.1-0.6l-0.2-0.5l-0.5-0.4l-0.6-0.4l-0.5-0.4
		l0-0.3l0.6,0.1l0.8,0.3l0.8,0.5l0.7,0.2l0.3,0.2l0.5,0.5l0.5,0.6l0.6,0.9l0.3,0.6l0.6,0l0.3-0.1l0.7-0.4l0.8-0.2l0.3-0.2l0.3-0.2
		l0.3-0.2l0.4-0.1l1-0.2l2-1l0.2-0.4l-0.3-2.8l0.3,0.3l0.1,0.3l0,0.3l0,0.4l0.5,0.9l0.1,0.3l0.4,0.5l0.8-0.1l5.2-2.8l2.8-1l0.6-0.4
		l0.2-0.6l-1-0.8l-0.8-1l-0.7-1.1l-0.5-0.5l-0.6-0.2l-0.7-0.1l-1.5-0.5l-1.5-1l-0.6-0.6l6.3,2.3l1.5,1.1l1.8,2l0.4,0.2l0.3,0
		l2.3-0.3l0.3-0.1l0.3-0.3l0.1-0.1l-0.1-0.2l-0.1-0.4l0-0.7l0.1-0.8l0.3-0.7l0.5-0.3l0.8-0.1l0.7-0.2l0.7-0.1l0.7,0.3l0.2,0.2
		l0.3,0.4l0.2,0.2l0.5,0.1l0.9-0.1l0.3,0.1l0.7,0.4l0.2,0.2l-0.4,0.1l-0.4,0l-4.1,1l-0.7,0.1l-0.3,0.1l-0.3,0.2l-0.1,0.3l0.2,0.1
		l1.1-0.1l2.4-0.6l1.6-0.1l0.8-0.3l2.2-0.2l0.7-0.3l0.5,0l-0.5,0.5l0,0.4l1.1,0.8l0.6,0.6l0.3,0.2l0.6-0.1l0.6,0.5l0.4,0.2h1.8
		l0.6,0.1l0.1-0.1l-0.9-1l-0.3-0.7l0-0.7l0.4-0.7l-0.4-0.2l-0.1-0.3l0.2-0.3l0.4-0.1l0.3,0.1l0,0.3l0,0.4l0.1,0.4l0.3,0.4l0,0.2
		l-0.1,0.2v0.4l0.1,0.4l0.3,0.6l0.1,0.3l0.2-0.2l0.2-0.1l0.2,0l0.2,0.2l0-0.2l0.2-0.6l0.5,0.1l0.7-0.6l0.3,0.4l0.3-0.7l0.2-0.8
		l0.1-0.8l-0.1-0.7l-0.1-0.1l-0.2-0.3l-0.1-0.2l0-0.1l0.1-0.2l0.1-0.2l0-0.2l-0.3-0.3l-0.4-0.2l-0.3-0.3l-0.1-0.5l-0.3,0.1l-0.8,0.6
		l-0.1-0.4l-0.3-0.2l-0.4-0.1l-0.4,0l-0.4,0.1l-0.2,0.3l-0.2,0.3l-0.2,0.2l-0.4,0.1l-0.1-0.2l0.1-0.8l0-0.5l-0.2-0.2l-0.7-0.3
		l-0.2,0.7l-0.1,0.7l-0.1,0.1l-0.3-0.2l-0.3-0.4l-0.1-0.4l-0.4-0.1l-1,0l-1,0.2l-0.6,0.5l-0.6-0.1l-0.8-0.1l-0.3-0.2l0.7-0.5
		l0.8-0.2l1.8-0.1l0.8-0.3l-1.7-0.3l-0.4-0.2l-0.2-0.4l0.1-0.2l0.3,0l0.3,0.3l0-0.4l-0.8-1.6l-0.5-1.7l-0.3-0.6l-1.3,0.7l-1.3,0.5
		l-2.9,0.5l-3.7-0.7l3.6,0.1l1.8-0.2l1.6-0.4l0.3-0.2l0.8-0.6l0.4,0l0.9,0l0.2-0.2l0-1.4l0.1-0.7l0.2-0.7l-3.2,0.2l-3.7-0.8l5.6,0.3
		l0.5,0l0.4-0.1l0.2-0.2l0.1-0.2l0.6-0.7l0.6-1.1l0.4-0.5l2.1-1.1l0.7-0.7l0.9-0.3l3.7-0.7l1.3-0.8l0.2-0.2l0.1-0.2l0.1-0.3l0.2-0.3
		l1.1-0.4l0.8-0.1l0.3-0.1l1.2-0.5l0.3-0.2l0.1-0.2l0.1-0.4l0.2-0.1l0.2-0.1l0.3-0.2l0.2-0.3l0-0.2l0-0.1l0-0.3l-0.1-0.5l0.1-0.3
		l0.9-0.3l0.5-0.5l0.4-0.6l0.3-0.9l2.1-3.4l-0.1-0.1l-0.1-0.1l-0.1,0l-0.2,0v-0.2l1.2-0.5l0.6-1l0.4-1.2l0.5-1l1.4-1.3l0.3-0.2
		l0.3-0.1l0.6-0.4l0.4-0.1l0.4,0.1l0.3,0.1l0.6,0.6l0.2-0.2l0.2-0.2l-0.2-0.3l-0.5-0.4l-0.1-0.2l0-0.4l0.2-0.2l0.3-0.1l0.3-0.2
		l0.1-0.2l0.3-0.5l0.4,0l0.2,0l0.2-0.1l0.8-1l0.6-0.4l1.2-0.6l0.5-0.4l0.5-0.7l0.5-0.5l0.1-0.1l-1-0.9l-0.5-0.3l-0.3-0.4l-0.1-0.8
		l0.1-0.3l0.2,0l0.2,0.2l0.1,0.3l0,0.5l0.2,0.3l0.3,0.2l1.2,0.4l0.3-0.1l0.1-0.5l0-0.8l0.2-0.5l0.4-0.6l0.8-1l5.3-4.2l0.5-0.5
		l1.9-2.8l0.2-0.7l-0.5,0.1l-0.7-0.1l-0.6-0.3l-0.3-0.5l-0.1-0.2l-0.6-1.5l0-0.3l-0.5,0l-0.6,0.3l-0.9,0.7l-0.3,0.1l-1.8,0.3l-0.3,0
		l0-0.1l0.6-0.3l1.6-0.5l0.8-0.4l0.8-0.6l0.3-0.5l-0.1-0.6l-1.5-1.9l-0.4-0.2l0.1,0.4l0.2,0.5l0.1,0.1l-0.1,0.5l-0.3,0.1l-0.3-0.1
		l-0.1-0.1l0.1-0.2l-0.1-0.4l-0.3-0.3l-0.5-0.1l0.2-0.5l0-0.4l-0.3-0.8l0-0.5l0.1-0.3l0.6-0.7l0.5-0.7l0.4-0.8l0.5-0.7l0.8-0.4
		l-0.2,0.4l0.4,0.1l0.6-0.4l0.3,0.1l-0.1,0.2l-0.5,0.6l-0.1,0.3l0.4-0.1l0.6-0.4l0.9-0.2l0.2-0.2l0.1-0.3l0.1-0.3l0.3-0.3l0.5-0.4
		l0.2-0.2l0.4-0.6l0.3-0.7l-1.1,0.7L211.9,186.1z M215.6,182.6l-0.1-0.2l-0.4,0l-0.4,0.1l-0.3,0.2l-0.4,0.2l-0.5,0l0.2,0.3l0.3,0.2
		l0.3,0l0.3-0.1l0,0.5l-0.4,0.4l-0.6,0.2l-0.5-0.4l-1.4,1.2l-0.2,0.1l-0.7,0l-0.3,0l-0.1,0l-0.3,0.2l-0.1,0.1h0l0,0h0l1.4,0.1
		l0.4-0.1l0.3-0.1l0.7-0.5l0.4-0.1l0.5,0l0.5,0l0.5,0l0.4-0.2l0.2-0.3l0.2-0.8l0.2-0.4l-0.1-0.4L215.6,182.6z"/>
</g>

</svg>
