<?xml version="1.0" encoding="utf-8"?>

<svg version="1.2" baseProfile="tiny" xmlns="http://www.w3.org/2000/svg" xmlns:xlink="http://www.w3.org/1999/xlink" x="0px"
	 y="0px" viewBox="281.1 113.2 276.9 367.1" xml:space="preserve">

<g id="Oman">
	<title>Flag of Oman</title>
	<g>
		<polygon fill="#DB161B" points="433.8,116.9 433.8,117.5 433.5,119.2 433.5,119.6 433.9,119.7 433.9,116.9 		"/>
		<polygon fill="#DB161B" points="418.3,449 418.8,448.7 418.6,448.6 417.9,448.2 417.4,448.3 417,448.5 416.8,448.8 416.9,449.2
			417.3,449 		"/>
		<polygon fill="#DB161B" points="433.5,120.2 433.3,120.2 433.1,120.7 433,120 432.5,119.5 432.1,119.4 431.9,119.5 431.7,119.7
			430.8,119.8 430.4,120.1 430.2,120.1 430.3,119.6 430.4,119.4 430,118.7 430,118.2 430,118 429.4,118.3 429.1,118.6 428.2,120.4
			425.9,124.1 425.6,125.5 425.4,125.8 426.2,125.8 428,125.3 428.4,125.4 429,126.9 429.1,127.7 429,128.4 428.8,129.5 428.7,133
			428.4,133.6 427.8,134.5 427.6,135.1 427.7,135.8 428.6,136.9 428.7,137.4 428.5,137.9 428,138.2 427.6,138.6 427.6,139.3
			427.8,141 428,141.5 428.2,141.6 429,141.8 429.3,142 429.7,142.8 429.9,143.1 430.5,143.2 431,143.1 432.5,142.7 432.3,142.3
			432.1,141 432.3,139.5 432.8,138.3 433.3,137.5 433.3,138.3 433.8,138 433.9,137.9 433.9,120.4 		"/>
		<polygon fill="#DB161B" points="430.2,158.2 430.4,158.7 431,158.8 431.6,158.6 432.6,157.9 432.6,157.3 432.6,156.5 432.4,155.7
			432.2,155.3 432,155.2 431.6,155.3 431,155.6 430.6,155.9 430.7,156.1 431,156.3 431.2,156.5 430.4,157.6 		"/>
		<polygon fill="#DB161B" points="525.4,331.7 525.4,331.1 525,330.4 524.5,330.6 524.1,331 523.7,332.3 523.1,333.6 521.4,335.8
			521.1,336.4 520.9,337.1 520.7,338.5 520.5,339.1 520.1,339.6 519.5,340.1 518.9,340.2 518.3,340.2 517.7,340.4 517.7,340.6
			517.5,341.3 517.4,341.5 517.1,341.6 516.5,342 516.3,342.2 515.9,342.7 515.7,343.2 515.5,346.2 515.6,346.6 515.5,347.2
			515.5,348.3 515.7,349.5 516,350.1 516.4,350.1 516.8,349.8 517.1,349.4 517.2,349 517.4,348.7 517.8,348.6 518.3,348.6
			518.6,348.5 518.9,348.1 519.5,347.2 520.7,346.1 520.9,345.8 520.9,345.6 520.8,345.2 520.8,344.8 521.1,344.1 521.5,342.3
			521.9,341.5 522.8,340.2 523.4,339.6 524.9,338.8 526.2,337.8 526.5,337.5 526.7,337.1 525.3,334.6 525.1,333.9 525,333.1
			525.1,332.4 		"/>
		<polygon fill="#DB161B" points="423.8,449.2 424.3,449.1 424.9,448.9 426.1,448.2 425.5,448 425.1,447.7 424.7,447.2 424.6,446.7
			423.7,447.1 422.4,447.6 421.4,448.1 421.7,448.9 422.2,449.1 		"/>
		<polygon fill="#DB161B" points="433.9,169.1 433.7,170.7 433.5,171.1 432.5,171.8 431.2,173.1 430.5,173.4 429.2,173.6
			428.7,173.8 428.1,175.2 427.4,176.2 427.1,176.8 426.8,177.2 426.2,177.4 425.4,177.4 424.9,177.4 423.8,176.5 422.7,173.8
			421.4,172.6 421.2,172.1 421.3,171.6 421.9,171.4 422.4,171.5 422.9,171.8 423.7,172.4 423.3,169.8 422.9,168.7 421.9,168.1
			420.4,167.9 419,168.2 417.8,169 416.7,170.1 415.6,171.4 415.2,172.6 415.5,175.6 415.5,176.3 415.4,177.7 415.5,178.4
			416.2,180 416.3,180.8 415.3,181.7 415.1,183 414.6,183.5 414.2,184 414.3,184.8 414.7,186.5 414.6,188.5 414.7,189.1 415,189.4
			415.7,189.9 415.9,190.2 416,190.5 415.9,192.4 415.7,193 414.3,195.4 414,196.1 414.1,196.6 414.5,196.9 416.7,197.3
			417.3,197.4 419.3,196.6 420.3,197 420.9,198.4 421.3,200 422.6,202.4 422.2,203 420,203.5 415.9,205.2 415.2,205.1 414.3,204.4
			413.7,204.5 413.1,204.7 412.6,204.7 411.4,204.5 410.2,204.5 409.2,204.7 408.3,205.1 407.2,205.7 406.6,206 405.1,206.6
			403.5,206.9 403.4,207.4 403.7,208.1 404.3,208.7 405.6,209.4 406.2,210.3 406.3,211.4 406.4,214.3 406.3,214.8 404.6,217.2
			404.3,217.9 403.2,222.6 402.7,223.3 401.3,224.8 401.3,224.8 400.7,225.8 400.3,227 399.6,230.8 398.8,233.2 395.4,239
			394.3,242.7 394.2,243.8 394.2,243.8 394.4,249.4 394,254.9 396.3,258.6 399.1,263.3 402,268.1 404.8,272.8 407.7,277.5
			409.5,280.6 409.9,281.4 409.9,282.3 408.4,287.1 408.2,287.9 407.5,290 406.5,293.3 405.2,297.5 403.6,302.5 401.9,308.1
			400.1,314 398.1,320.2 396.2,326.3 394.4,332.3 392.6,337.8 391.1,342.8 389.7,347 388.7,350.2 388.1,352.3 387.8,353.1
			386.7,356.6 381.4,358.5 375.4,360.6 369.4,362.8 363.4,364.9 357.3,367 351.3,369.1 345.3,371.2 339.3,373.4 333.2,375.5
			327.2,377.6 321.2,379.7 315.2,381.8 309.1,383.9 303.1,386 297.1,388.2 291.1,390.3 281.1,393.8 282.4,396.7 283.9,400.3
			285.4,403.8 286.9,407.4 288.4,411 289.9,414.5 291.4,418.1 294.4,425.2 295.9,428.7 297.4,432.3 298.9,435.9 300.5,439.4
			302,442.9 303.5,446.5 305,450 306.5,453.6 307.6,456.2 307.5,456.2 307.3,456.2 307.3,456.3 307.8,456.6 309.1,456.7
			309.7,456.9 310.1,457.4 311.5,460.4 313.7,465.4 315.9,470.3 318.1,475.3 319.7,478.9 322.8,478.9 323.3,478.7 329,476.9
			332,476.4 337.6,476.3 338.8,476 340,475.5 340.7,475.1 340.9,474.7 341.3,474 342.1,473.2 343,472.4 343.6,472 344.3,472.2
			345,471.9 345.7,471.5 346.3,471.3 347,471.2 349.1,470.8 350.7,470.7 351.6,470.5 352,470.1 352.1,469.9 352.6,469.5
			352.7,469.1 352.7,468.9 352.6,468.6 352.6,468.3 352.7,468 353.1,467.7 354.7,466.9 355.3,466.8 358.1,466.8 364.6,466
			365,466.1 365.3,466.3 366,465.7 366.9,465.8 368.5,466.3 368.8,466.2 369.5,465.9 369.9,465.8 370.3,465.8 371.6,466 372,466
			372.7,465.8 373.1,465.8 373.6,465.8 374.6,466.2 376,466.4 376.4,466.9 376.6,467.6 376.9,468.3 377.1,468 378.3,468.8
			378.7,468.6 379.4,468.7 379.8,468.5 380.2,468.9 380.8,468.9 381.9,468.5 383.4,468.3 384,468.1 384.6,467.5 385.1,467.6
			385.6,467.5 386.1,467.4 386.6,467.3 387,467 387.5,466.4 387.9,466.2 388.2,466.8 388.4,466.8 390,465.6 391.5,464 391.9,463.8
			392.2,463.3 392.4,462.8 392.5,462.5 393.1,462.2 394.2,461.9 394.5,461.5 394.4,461.3 394.7,460.7 394.9,460.1 395,459.8
			395.2,459.5 395.5,459.3 396.5,458.8 396.6,458.6 396.8,458.1 396.8,457.8 396.5,457.7 396.3,457.5 396.3,457.1 396.3,456.6
			396.4,456.2 397.8,454.3 398.1,453.6 398.1,451.9 397.8,451.1 397.1,450.4 395.9,449.8 395.6,449.3 395.4,448.3 395.5,447.4
			395.8,446.7 396.7,444.9 400,442.2 400.5,441.6 400.6,441.4 401.2,439.9 401.3,439.6 401.9,439 402.2,438.4 402.7,436.9
			403.2,436.3 403.5,436.2 404.6,435.9 404.7,435.9 405.3,435.9 405.5,435.7 405.7,435.6 405.9,435.4 406.2,435.3 407,435.3
			410.5,434.3 419.5,433.9 420.8,433.6 423.1,432.7 423.8,432.6 426.8,432.8 427.6,432.7 428.6,432.2 429.3,432.1 433.9,432.6
			433.9,354.4 487,354.4 487.1,353.7 487.7,352.3 487.5,351.4 486.8,349.9 486.9,349 487.2,348.4 487.6,347.9 487.8,347.4
			488,346.8 488.5,346.2 489.1,345.7 489.7,345.3 491.3,344.7 491.9,344.2 492.2,343.4 492.1,343 491.6,342.4 491.4,342.1
			491.5,341.6 491.8,341.2 492.1,340.8 492.9,340 493.5,339.6 494.2,339.3 495,339.1 495.5,338.9 495.8,338.6 495.7,338.2
			495.4,337.8 495.5,337.4 496.1,335.7 496.3,335.3 496.7,335 498.2,334.7 499.3,333.9 500.3,333.6 501.4,333.5 502.1,333.8
			502.4,334.6 502.3,335.7 501.9,336.7 501.5,337.5 501.1,338.3 501.5,339.9 501.3,340.7 501,340.4 500.7,340 500.6,339.6
			500.6,339.1 500.1,340.7 500.2,341.4 501,341.7 501.7,341.8 502.9,342.1 503.1,342.2 502.9,342.4 502.8,342.7 503.3,342.6
			504.1,342.3 504.6,342.2 505.7,342.3 506.2,342.4 506.9,342.7 507.8,343.1 508.8,343.1 509.5,342.7 509.8,341.7 510.1,341.4
			510.6,341.2 511,341 511.3,340.9 511.4,340.7 511.6,339.4 511.8,339.1 511.8,338.5 512.3,337.2 513.2,335.4 513.2,334.5
			513.5,333.4 513.9,332.5 514.3,331.7 514.7,331.4 515.5,330.9 515.8,330.7 516.1,330.2 516.3,329.2 516.5,328.6 516.8,328.6
			517.1,329 517.7,328.8 518.3,328.4 518.7,327.9 518.7,327.1 518.3,327.3 517.8,327.9 517.2,328.1 516.9,328 516.6,327.7
			516.4,327.3 516.3,327 516.3,326.8 516.5,326.6 516.8,326.3 516.8,326.3 517.1,325.6 517,325.6 518.5,324.8 519.1,324.3
			518.9,323.5 521,321.9 521.2,321.5 521.3,321.1 521.4,319.8 521.5,319.5 522.6,317.5 523.1,316.7 523.6,316.3 524,316
			525.4,313.7 530.2,308.7 534.1,305.5 535.1,304.9 540.1,302.7 540.4,302.4 540.5,302.1 540.8,300.9 544.1,295.7 544.7,294.1
			545.8,290.7 548.6,286.9 549.2,285.6 549.6,284.9 551,284.3 551.3,283.6 551.5,281.7 552.1,279.9 552.2,279.1 552.5,278.4
			553.1,277.8 554.1,276.9 556.1,274 556.8,272.6 557.3,270.9 558,264.7 557.8,263.5 557.3,262.3 556.5,261.3 555.6,261.1
			554.9,261.2 554.5,261.2 554.4,261.7 554.9,262.3 555.1,262.7 555,262.9 554.8,262.8 554.5,262.8 554.3,262.7 554.1,262.6
			553.9,262.3 553.9,262.1 553.9,261.9 553.9,261.8 553.8,261.6 553.8,261.2 553.7,261.1 553.5,261 552.9,261.1 552.7,261.1
			551.3,260 550.3,259.6 547.6,260.5 547.1,260.6 546.7,260.5 546.4,260.3 546.4,259.8 546.6,259.9 546.9,260 547.2,259.9
			547.1,259.5 546.9,259.3 546.1,258.8 545.3,258.1 544.2,257.5 542.7,256.1 542.3,255.6 542.1,254.9 540.7,252.7 539.4,252
			538.7,251.5 538.5,250.8 538.3,250.2 537.1,247 536.4,245.8 535.6,244.8 534.4,243.9 532.5,242.8 531.5,242 531.4,241.8
			531.2,241.5 531,240.4 530.9,240.1 528.6,237.8 528.3,235.6 527.8,234.8 526.7,233.8 526.4,233.2 525.8,231.5 525.3,230.9
			524,230.3 523.5,229.8 433.9,229.8 		"/>
		<polygon fill="#FFFFFF" points="521.5,227.6 521.1,225.9 520.9,225.3 521,224.8 520.7,224.1 519.9,223 519.5,223.2 519.4,223.2
			519.2,223 519,223.4 518.9,223.5 518.7,223.5 518.7,223.2 518.6,223.1 518.5,222.9 518.4,222.7 518.2,223.3 518,223.3 517.8,223
			517.5,222.6 517,222.2 516.8,222.2 516.5,222.2 516.3,222.2 516.3,222.2 516.2,222.1 516,221.9 515.9,221.7 515.7,221.7
			515.4,221.3 514.7,219.8 514.3,219.3 513.6,219 512.8,218.8 511.3,218.8 510.7,218.6 510.4,218.6 510.1,219.3 509.8,219.6
			509,219.9 507.6,220.2 505.9,220.2 504.2,220 503,219.6 502.4,219.1 501.1,217.8 500.5,217.5 499.9,217.4 497.7,216.5
			496.1,216.1 494.6,216 490,216.3 489.1,216.2 488.1,215.7 487.3,215.4 486.9,215.1 485.9,213.8 485.2,213.7 482.9,213.8
			482.1,213.8 480.6,213.5 478.5,212.9 475.8,211.6 469.4,209.9 464.4,208 463.2,207.3 459.9,204.6 455.7,201 452.3,196.9
			452,195.8 451.7,195.1 450.9,193.9 447.1,189.2 445.1,187.4 444.2,186.4 440.1,178.6 439.8,177 439.6,176.1 439.2,175.7 437,171
			436.2,167.9 434.3,168.1 433.9,168.5 433.9,169.1 433.9,229.8 523.5,229.8 522,228.4 		"/>
		<polygon fill="#FFFFFF" points="434.8,117.7 433.9,116.9 433.9,119.7 433.9,119.7 434.3,119.5 434.7,119.2 434.9,118.9
			435.2,118.7 435.6,118.7 436.3,118.8 436.6,118.9 436.9,119.2 437,119.5 436.9,119.9 436.7,119.9 435.6,119.6 435.2,119.7
			434.3,120.4 433.9,120.4 433.9,120.4 433.9,137.9 434.2,137.5 434.8,136.4 435.5,135.7 435.5,134.8 435.5,134.5 435.9,133.7
			436.5,132.9 436.7,132 436.2,131.1 436.5,130.7 437,130.7 437.6,130.8 438.1,131.1 438.3,130.6 438.4,130.5 438.6,130.3
			437.9,130.1 437.5,129.9 437.4,129.6 436.9,129 436.8,128.6 437.6,128.1 437.6,127.3 437.1,126.9 436.2,127.4 436.1,126.8
			436.4,126.4 437.4,126 438.5,125.4 439,124.9 439.3,124.4 436.2,124.4 435.5,124.1 435.6,123.8 435.7,123.3 435.7,122.8
			435.5,122.6 435.1,122.7 434.8,123.1 434.5,123.9 434.4,123.4 434.3,122.9 434.3,122.4 434.5,122 434.3,121.5 434.8,120.8
			435.7,120.3 436.5,120.4 436.2,120.5 436,120.7 435.9,121 436,121.5 436.2,121.3 436.7,121.1 436.9,121 436.9,121.6 437.2,122.1
			437.6,122.2 438.1,122 438.4,122.3 438.8,122.5 439.2,122.5 439.6,122.6 439.3,121.8 438.9,121.4 438.3,121.1 437.9,120.7
			438,120.4 438.1,120.2 438,120 437.9,119.6 438.3,119.6 438.6,119.6 438.9,120.4 439.2,120.2 439.8,119.1 439.4,118.5
			439.1,118.6 438.7,118.9 438.4,119.1 437.9,118.9 437.5,118.6 436.7,117.8 437,117.3 437,117.1 437,117.1 437.6,116.8
			438.6,115.8 439.2,115.6 440.1,115.6 440.6,115.6 440.7,115.2 440.3,114.2 439.6,114.5 439.7,114.7 439.8,115.1 439.8,115.3
			439.4,115.3 439,115.3 438.1,115.1 437.9,114.9 437.7,114.6 437.5,114.5 437.2,114.8 437.1,114.5 437,114.4 437,114.3 437.2,114
			436.9,113.7 436.7,113.9 436.2,114.2 435.7,113.2 435.5,113.2 435.4,113.7 435.4,114.6 435.2,115.1 434.8,115.6 434.6,115.7
			434.4,115.7 434.2,115.8 434,116.2 434.4,116.3 434.9,116.6 435.3,117 435.5,117.3 435.3,117.9 		"/>
		<polygon fill="#008000" points="433.9,432.6 434.8,432.8 435.2,432.7 435.2,431.9 435.3,431.6 436.9,429.8 437.2,429.6
			437.7,429.5 437.9,429.3 439,427.4 439.7,426.9 441.3,426.3 442,425.7 442.4,425 442.5,424.2 442,423.5 443.8,419.2 444.1,417.7
			444.1,416.2 444.2,415.8 444.6,415 444.7,414.4 445.2,413.7 445.4,413.3 445.3,412.8 445.1,411.6 445.2,409.9 445.9,408.6
			449.7,404.8 450,404.4 450.3,403.6 451.1,403 452.6,402.3 454.9,400.6 460.8,398.2 465.2,396.9 475.5,395.3 482.9,395.7
			483.2,395.6 483.6,395.3 484,395 484.2,394.8 484.4,394.6 485.9,394.4 486.1,394.3 486.6,393.9 487.5,393 487.4,392.5
			486.1,390.1 486.1,389.3 486.5,387.8 486.2,387.2 485.4,386.2 485,385.6 484.3,383.7 484.2,382.8 484.4,382.1 484.9,380.4
			485.1,379.4 485.1,378.4 484.9,377.4 484.6,376.8 482.9,374 482.7,373.3 482.8,372.5 483,371.5 483.2,371.1 483.3,370.5
			483.2,369.4 483.1,368.9 482.9,368.5 482.5,368.2 482.3,367.7 482.1,366.6 482.5,365.6 484.7,362.3 485.1,361.4 485.7,359.3
			486.5,357.3 486.6,356.2 486.6,355.7 487,354.4 433.9,354.4 		"/>
	</g>
	<path fill="none" stroke="#999999" stroke-width="0.25" stroke-linecap="round" stroke-linejoin="round" d="M430.2,158.2l0.2,0.5
		l0.6,0.2l0.6-0.2l1-0.7l0-0.5l-0.1-0.8l-0.2-0.8l-0.2-0.4l-0.3-0.1l-0.3,0.1l-0.7,0.3l-0.4,0.3l0.1,0.2l0.3,0.2l0.1,0.2l-0.7,1.1
		L430.2,158.2z M425.1,447.7l-0.3-0.4l-0.1-0.6l-0.9,0.4l-1.4,0.5l-0.9,0.6l0.3,0.8l0.5,0.2l1.6,0.1l0.6-0.1l0.6-0.2l1.1-0.7
		l-0.5-0.2L425.1,447.7z M417.9,448.2l-0.5,0.1l-0.4,0.2l-0.2,0.3l0.2,0.4l0.3-0.2l1.1,0l0.5-0.3l-0.3-0.1L417.9,448.2z
		 M525.1,333.9l-0.1-0.8l0.1-0.7l0.2-0.7l0-0.6l-0.4-0.6l-0.5,0.1l-0.3,0.4l-0.4,1.2l-0.6,1.3l-1.7,2.2l-0.3,0.6l-0.2,0.7l-0.1,1.4
		l-0.2,0.6l-0.4,0.6l-0.6,0.4l-0.6,0.1l-0.6,0l-0.6,0.2l-0.1,0.2l-0.2,0.7l-0.1,0.2l-0.3,0.1l-0.6,0.5l-0.2,0.2l-0.4,0.5l-0.2,0.5
		l-0.3,2.9l0.1,0.4l-0.1,0.6l0,1.2l0.2,1.2l0.3,0.6l0.4,0l0.4-0.3l0.3-0.4l0.1-0.4l0.2-0.2l0.4-0.1l0.4-0.1l0.3-0.1l0.3-0.4l0.6-0.9
		l1.2-1.2l0.1-0.3l0-0.2l-0.1-0.4v-0.4l0.3-0.6l0.4-1.8l0.4-0.9l0.8-1.3l0.6-0.6l1.4-0.8l1.4-1l0.3-0.3l0.1-0.4l-1.4-2.5
		L525.1,333.9z M428,125.3l0.4,0l0.6,1.5l0.2,0.8l-0.1,0.7l-0.2,1.2l-0.2,3.5l-0.2,0.6l-0.7,1l-0.2,0.6l0.2,0.7l0.8,1.1l0.2,0.5
		l-0.2,0.5l-0.5,0.3l-0.4,0.4l0,0.7l0.2,1.7l0.2,0.5l0.2,0.1l0.8,0.2l0.3,0.3l0.3,0.8l0.2,0.3l0.6,0.1l0.6-0.1l1.5-0.4l-0.2-0.5
		l-0.3-1.3l0.3-1.4l0.5-1.3l0.5-0.8v0.8l0.5-0.3l0.4-0.5l0.6-1l0.7-0.7l0-0.9l0-0.3l0.4-0.8l0.6-0.8l0.3-0.8l-0.6-0.9l0.3-0.4
		l0.5-0.1l0.6,0.2l0.5,0.3l0.1-0.5l0.1-0.1l0.3-0.2l-0.8-0.2l-0.3-0.2l-0.1-0.3l-0.5-0.6l-0.2-0.4l0.8-0.6l0-0.7l-0.5-0.4l-0.9,0.5
		l-0.1-0.6l0.3-0.4l1-0.4l1.1-0.6l0.5-0.5l0.3-0.5l-3.2,0l-0.7-0.3l0.2-0.4l0.1-0.5l0-0.5l-0.2-0.2l-0.4,0.1l-0.3,0.4l-0.3,0.8
		l-0.1-0.5l-0.1-0.5l0-0.5l0.2-0.4l-0.2-0.5l0.5-0.7l0.9-0.5l0.8,0.1l-0.3,0.1l-0.2,0.2l-0.1,0.3l0,0.4l0.2-0.1l0.5-0.3l0.2-0.1
		l0,0.6l0.3,0.5l0.4,0.2l0.5-0.2l0.3,0.3l0.3,0.2l0.4,0.1l0.4,0l-0.2-0.7l-0.5-0.4l-0.5-0.3l-0.4-0.5l0.1-0.2l0.1-0.2l0-0.2
		l-0.1-0.4l0.4,0l0.4,0l0.2,0.8l0.3-0.1l0.6-1.2l-0.4-0.6l-0.4,0.1l-0.4,0.3l-0.3,0.2l-0.5-0.2l-0.4-0.3l-0.8-0.8l0.3-0.4l0-0.2h0
		l0.6-0.4l1.1-0.9l0.6-0.2l0.9,0l0.5,0l0.1-0.4l-0.4-1l-0.7,0.3l0.1,0.2l0.1,0.4l0.1,0.2l-0.5,0l-0.4,0l-0.8-0.2l-0.2-0.2l-0.2-0.3
		l-0.2-0.1l-0.3,0.3l-0.1-0.3l-0.1-0.1l0-0.1l0.2-0.3l-0.3-0.3l-0.2,0.2l-0.6,0.4l-0.5-1.1h-0.2l-0.1,0.6l0,0.9l-0.2,0.5l-0.4,0.5
		l-0.2,0.1h-0.2l-0.2,0.1l-0.1,0.4l0.4,0.1l0.5,0.3l0.4,0.4l0.2,0.3l-0.2,0.6l-0.5-0.2l-1-0.8v0.6l-0.3,1.6l0,0.4l0.4,0.1l0.4-0.2
		l0.3-0.3l0.2-0.2l0.3-0.2l0.4,0l0.7,0.1l0.3,0.1l0.3,0.3l0.2,0.3l-0.1,0.3l-0.2,0l-1.1-0.3l-0.4,0.1l-1,0.7l-0.4,0l-0.3-0.2l-0.2,0
		l-0.2,0.4L433,120l-0.4-0.4l-0.5-0.2l-0.2,0.1l-0.2,0.2l-0.9,0.1l-0.3,0.3h-0.3l0.2-0.6l0.1-0.2l-0.4-0.6l0-0.5l0-0.2l-0.6,0.3
		l-0.4,0.3l-0.8,1.8l-2.3,3.7l-0.3,1.4l-0.2,0.4l0.8-0.1L428,125.3z M557.8,263.5l-0.5-1.3l-0.8-1l-1-0.2l-0.7,0.1l-0.4,0l-0.2,0.5
		l0.5,0.6l0.2,0.4l-0.1,0.2l-0.2,0l-0.2-0.1l-0.2-0.1l-0.2-0.1l-0.2-0.3l0-0.2l0-0.2v-0.1l-0.1-0.2l-0.1-0.4l-0.1-0.2l-0.2-0.1
		l-0.5,0.1l-0.2,0l-1.4-1.1l-0.9-0.4l-2.7,0.9l-0.5,0.1l-0.4-0.1l-0.3-0.2v-0.5l0.2,0.1l0.3,0.1l0.2-0.1l0-0.4l-0.2-0.2l-0.8-0.5
		l-0.8-0.7l-1.1-0.6l-1.5-1.4l-0.5-0.6l-0.2-0.6l-1.4-2.2l-1.3-0.7l-0.6-0.5l-0.3-0.7l-0.1-0.5l-1.3-3.2l-0.6-1.2l-0.9-1l-1.2-0.9
		l-1.9-1.1l-1-0.8l-0.2-0.2l-0.1-0.3l-0.2-1.1l-0.1-0.3l-2.2-2.3l-0.3-2.2l-0.5-0.8l-1.1-1l-0.3-0.6l-0.6-1.6l-0.5-0.7l-1.3-0.6
		l-2.1-1.9l-0.5-0.7l-0.4-1.7l-0.3-0.5l0.1-0.6l-0.2-0.6l-0.8-1.1l-0.4,0.2l-0.1,0l-0.2-0.2l-0.2,0.4l0,0.2h-0.2l0-0.3l-0.1-0.1
		l-0.1-0.1l-0.1-0.2l-0.2,0.5H518l-0.2-0.3l-0.3-0.3l-0.5-0.4l-0.2-0.1l-0.2,0l-0.2,0l-0.1,0l-0.1-0.1l-0.2-0.2l-0.1-0.2l-0.2-0.1
		l-0.3-0.3l-0.7-1.5l-0.3-0.5l-0.7-0.4l-0.8-0.2l-1.5,0l-0.7-0.2l-0.3,0l-0.3,0.7l-0.3,0.3l-0.8,0.3l-1.4,0.3l-1.7,0l-1.6-0.2
		l-1.2-0.4l-0.6-0.5l-1.3-1.3l-0.6-0.3l-0.6-0.1l-2.2-0.9l-1.6-0.3l-1.5-0.1l-4.6,0.2l-0.9-0.1l-1-0.5l-0.9-0.2l-0.4-0.3l-1-1.3
		l-0.6-0.1l-2.4,0.1l-0.8,0l-1.5-0.3l-2.1-0.7l-2.7-1.2l-6.4-1.7l-5-1.9l-1.1-0.7l-3.3-2.7l-4.2-3.6l-3.5-4.1l-0.3-1.1l-0.3-0.7
		l-0.8-1.2l-3.8-4.7l-2-1.8l-0.9-1l-4.1-7.8l-0.2-1.6l-0.2-0.9l-0.4-0.4L437,171l-0.8-3.1l-1.9,0.2l-0.3,0.4l-0.2,2.2l-0.2,0.4
		l-1,0.7l-1.4,1.3l-0.6,0.3l-1.3,0.2l-0.5,0.2l-0.6,1.4l-0.8,0.9l-0.2,0.7l-0.3,0.4l-0.7,0.2l-0.7,0l-0.6-0.1l-1.1-0.9l-1-2.7
		l-1.3-1.2l-0.3-0.6l0.1-0.5l0.6-0.2l0.5,0.1l0.5,0.2l0.8,0.6l-0.4-2.5l-0.4-1.1l-1-0.6l-1.5-0.2l-1.4,0.4l-1.2,0.8l-1.1,1.1
		l-1.1,1.4l-0.4,1.2l0.3,3v0.7l-0.2,1.4l0.1,0.7l0.7,1.6l0.1,0.7l-1,0.9l-0.2,1.3l-0.5,0.5l-0.4,0.5l0,0.8l0.4,1.6l-0.1,2.1l0.1,0.6
		l0.2,0.3l0.7,0.5l0.3,0.3l0.1,0.3l-0.1,1.9l-0.2,0.6l-1.4,2.4l-0.3,0.7l0.1,0.6l0.4,0.2l2.2,0.5l0.6,0l2-0.8l1.1,0.4l0.6,1.4
		l0.4,1.6l1.3,2.3l-0.4,0.6l-2.2,0.5l-4.1,1.7l-0.7-0.1l-0.9-0.7l-0.6,0.1l-0.6,0.2l-0.5,0l-1.1-0.2l-1.2,0l-1,0.2l-1,0.4l-1,0.6
		l-0.7,0.4l-1.5,0.6l-1.5,0.3l-0.1,0.6l0.3,0.7l0.6,0.5l1.3,0.8l0.6,0.8l0.2,1.1l0.1,2.9l-0.1,0.5l-1.6,2.4l-0.3,0.6l-1.2,4.7
		l-0.5,0.7l-1.3,1.4l0,0l-0.6,1l-0.4,1.3l-0.7,3.8l-0.8,2.3l-3.3,5.9l-1.1,3.7l-0.1,1.1v0l0.2,5.5l-0.4,5.5l2.2,3.7l2.8,4.7l2.8,4.7
		l2.8,4.7l2.8,4.7l1.9,3.1l0.4,0.8l0,0.9l-1.5,4.8l-0.2,0.7l-0.7,2.1l-1,3.3l-1.3,4.2l-1.6,5l-1.7,5.6l-1.8,6l-1.9,6.1l-1.9,6.1
		l-1.9,6l-1.7,5.6l-1.6,5l-1.3,4.2l-1,3.2l-0.7,2.1l-0.2,0.7l-1.1,3.6l-5.3,1.9l-6,2.1l-6,2.1l-6,2.1l-6,2.1l-6,2.1l-6,2.1l-6,2.1
		l-6,2.1l-6,2.1l-6,2.1l-6,2.1l-6,2.1l-6,2.1l-6,2.1l-6,2.1l-9.9,3.5l1.2,2.9l1.5,3.6l1.5,3.6l1.5,3.6l1.5,3.6l1.5,3.6l1.5,3.6
		l3,7.1l1.5,3.6l1.5,3.6l1.5,3.6l1.5,3.5l1.5,3.5l1.5,3.5l1.5,3.5l1.5,3.5l1.1,2.6l-0.1,0l-0.2,0l-0.1,0l0.5,0.3l1.3,0.1l0.6,0.2
		l0.4,0.5l1.4,3.1l2.2,5l2.2,4.9l2.2,5l2.2,4.9l3-1.5l5.7-1.8l3-0.4l5.6-0.1l1.2-0.3l1.2-0.6l0.7-0.4l0.3-0.4l0.3-0.7l0.8-0.8
		l0.9-0.7l0.7-0.4l0.6,0.2l0.7-0.3l0.7-0.4l0.6-0.2l0.7-0.1l2.1-0.4l1.6-0.1l0.9-0.2l0.4-0.4l0.1-0.2l0.5-0.4l0.1-0.3l0-0.3
		l-0.1-0.3l0-0.3l0.1-0.3l0.4-0.3l1.6-0.8l0.6-0.2h2.8l6.6-0.8l0.3,0.1l0.3,0.2l0.7-0.5l0.9,0.1l1.7,0.5l0.2-0.1l0.7-0.3l0.4-0.1
		h0.5l1.2,0.2l0.4,0l0.7-0.2l0.4,0l0.4,0.1l1,0.3l1.4,0.3l0.4,0.5l0.2,0.6l0.3,0.7l0.3-0.3l1.2,0.8l0.4-0.1l0.6,0.1l0.4-0.2l0.4,0.5
		l0.6,0l1.2-0.5l1.5-0.2l0.6-0.2l0.5-0.6l0.5,0.1l0.5-0.1l0.5-0.2l0.6-0.1l0.4-0.3l0.4-0.5l0.4-0.2l0.3,0.6h0.2l1.6-1.1l1.4-1.6
		l0.4-0.2l0.3-0.5l0.2-0.5l0.2-0.3l0.5-0.3l1.1-0.3l0.3-0.4l-0.1-0.2l0.3-0.6l0.1-0.6l0.1-0.3l0.2-0.3l0.3-0.2l0.9-0.5l0.2-0.2
		l0.2-0.5l0-0.3l-0.3-0.1l-0.2-0.2l0-0.5l0.1-0.5l0.1-0.3l1.4-1.9l0.2-0.7l0-1.7l-0.3-0.8l-0.7-0.7l-1.2-0.6l-0.4-0.5l-0.1-1
		l0.1-0.9l0.2-0.7l1-1.8l3.3-2.7l0.5-0.5l0.1-0.3l0.5-1.5l0.2-0.3l0.5-0.6l0.3-0.6l0.5-1.4l0.5-0.6l0.3-0.2l1.1-0.3l0.1,0l0.6,0
		l0.2-0.1l0.2-0.2l0.2-0.2l0.3-0.1l0.8-0.1l3.5-0.9l9-0.4l1.3-0.3l2.3-0.9l0.7-0.1l3,0.3l0.8-0.1l1-0.5l0.7-0.1l5.5,0.7l0.4-0.1
		l0-0.8l0.1-0.3l1.6-1.8l0.2-0.1l0.5-0.2l0.2-0.2l1.1-1.9l0.8-0.4l1.5-0.7l0.7-0.5l0.5-0.7l0.1-0.8l-0.5-0.7l1.8-4.3l0.3-1.5v-1.5
		l0.1-0.4l0.3-0.7l0.2-0.6l0.5-0.7l0.1-0.5l0-0.4l-0.2-1.2l0.1-1.7l0.7-1.3l3.8-3.7l0.3-0.4l0.3-0.8l0.8-0.6l1.5-0.7l2.3-1.7
		l5.9-2.4l4.4-1.2l10.3-1.6l7.3,0.4l0.3-0.1l0.4-0.3l0.4-0.3l0.2-0.2l0.2-0.2l1.6-0.2l0.1-0.1l0.5-0.4l0.9-0.9l0-0.5l-1.3-2.4l0-0.8
		l0.3-1.5l-0.2-0.6l-0.9-1l-0.3-0.6l-0.7-1.9l-0.1-0.8l0.1-0.8l0.6-1.7l0.2-0.9v-1l-0.2-1l-0.3-0.6l-1.7-2.8l-0.3-0.7l0.1-0.7l0.3-1
		l0.2-0.5l0.1-0.6l0-1.1l-0.1-0.5l-0.3-0.4l-0.3-0.3l-0.2-0.4l-0.2-1.1l0.3-1l2.2-3.3l0.4-0.9l0.6-2.1l0.8-2l0.1-1.1l0-0.5l0.5-2
		l0.6-1.4l-0.2-0.9l-0.7-1.5l0-0.9l0.3-0.6l0.4-0.5l0.2-0.4l0.2-0.7l0.5-0.6l0.6-0.5l0.6-0.4l1.5-0.6l0.6-0.5l0.3-0.8l-0.1-0.4
		l-0.5-0.6l-0.1-0.4l0.1-0.5l0.2-0.4l0.3-0.4l0.8-0.8l0.6-0.4l0.6-0.3l0.9-0.2l0.4-0.2l0.3-0.3l-0.1-0.3l-0.2-0.4l0-0.4l0.6-1.8
		l0.2-0.3l0.5-0.3l1.4-0.4l1.1-0.7l1-0.3l1-0.1l0.7,0.2l0.3,0.8l-0.1,1.1l-0.4,1.1l-0.5,0.7l-0.3,0.8l0.4,1.7l-0.1,0.8l-0.3-0.3
		l-0.3-0.4l-0.1-0.4l0-0.5l-0.5,1.5l0.1,0.7l0.8,0.3l0.7,0.1l1.2,0.4l0.2,0.1l-0.2,0.2l-0.1,0.3l0.5-0.1l0.8-0.3l0.4-0.1l1.1,0
		l0.5,0.1l0.7,0.3l0.9,0.3l1,0l0.8-0.4l0.2-1l0.3-0.3l0.5-0.2l0.5-0.2l0.3-0.1l0.1-0.3l0.2-1.2l0.2-0.3l0-0.6l0.5-1.3l0.9-1.8l0.1-1
		l0.3-1l0.4-0.9l0.4-0.7l0.4-0.3l0.8-0.5l0.3-0.2l0.3-0.5l0.3-1l0.2-0.5h0.2l0.3,0.4l0.6-0.2l0.6-0.5l0.4-0.5l0-0.7l-0.4,0.2
		l-0.6,0.6l-0.5,0.2l-0.3-0.2l-0.3-0.3l-0.2-0.4l-0.1-0.3l0.1-0.2l0.2-0.2l0.2-0.2l0,0l0.3-0.7l0-0.1l1.5-0.7l0.6-0.5l-0.1-0.8
		l2-1.7l0.2-0.3l0.1-0.4l0.1-1.3l0.1-0.3l1.1-2l0.6-0.8l0.5-0.3l0.4-0.3l1.4-2.2l4.8-5l3.9-3.2l1-0.6l5-2.2l0.3-0.3l0.1-0.3l0.3-1.2
		l3.3-5.2l0.7-1.6l1.1-3.4l2.8-3.8l0.6-1.4l0.4-0.7l1.4-0.6l0.3-0.8l0.2-1.8l0.6-1.8l0.1-0.9l0.3-0.7l0.6-0.6l1-0.9l2-2.8l0.7-1.5
		l0.5-1.7l0.7-6.2L557.8,263.5z"/>
</g>

</svg>
