<?xml version="1.0" encoding="utf-8"?>

<svg version="1.2" baseProfile="tiny" xmlns="http://www.w3.org/2000/svg" xmlns:xlink="http://www.w3.org/1999/xlink" x="0px"
	 y="0px" viewBox="161.8 191.5 515.8 211.8" xml:space="preserve">

<g id="Panama">
	<g>
		<polygon fill="#FFFFFF" points="565.5,298.5 565,299.5 566,300.1 568,302.6 568.5,302.9 568.7,302.9 569.4,303.2 570,303.6
			570.4,304.4 572.8,299.3 572.4,297.8 571.4,297 565.4,297 		"/>
		<polygon fill="#FFFFFF" points="233.8,213.5 233.2,211.3 230.8,207.7 229.1,207.8 227.7,208.3 225.3,210.1 229.5,213.4
			231.4,215.3 232.6,217.3 232.9,216.6 233.1,216.3 232.9,216 232.6,215.6 232.6,214.9 		"/>
		<polygon fill="#FFFFFF" points="509.1,298.7 508.5,298.2 508,297.4 507.5,297.1 506.3,298.2 507.1,299.5 508.7,300.7 509.9,301.5
			510.3,300.7 510.4,299.8 510.3,299 510.1,298.1 		"/>
		<polygon fill="#FFFFFF" points="505.4,312.9 506.3,314.3 506.8,315.8 508.2,314.6 508.7,313 509.4,311.8 511.6,311.5 511.6,311
			510.8,310.4 508.6,306.8 508.5,306.5 508.5,306.2 508.4,306.1 508,306.2 507,307.5 506.4,308.7 506.3,310 506.8,311.5
			505.3,311.9 		"/>
		<polygon fill="#FFFFFF" points="595.6,297.8 596.1,297.8 596.5,297 595.1,297 		"/>
		<polygon fill="#FFFFFF" points="582.9,297.2 582.4,297.8 582.2,298.4 582.2,299.2 582.6,299.9 583.3,300.2 584.9,299.9
			586.5,299.3 587.8,298.2 588.3,297 583.3,297 		"/>
		<polygon fill="#FFFFFF" points="265.2,234.9 263.1,234.7 260.9,234.1 259.6,234.1 259.9,234.9 261.3,236.1 262.9,237.3
			264.1,237.8 264.3,238 265.4,234.7 		"/>
		<polygon fill="#FFFFFF" points="420,227 417.9,228.1 415,229.3 411.7,230.2 408.7,230.5 407.8,230.9 404.9,232.5 403.6,232.9
			396.3,234.1 385.1,237.4 381.3,239.1 373.1,242.8 372,243.1 370.8,243.6 367.5,246.7 364.6,247.8 364.3,247.9 363.5,248.2
			363,248.8 362.8,249.5 362.5,249.7 361.6,250.3 360.6,251.5 359.1,253.9 358.4,254.8 357.2,255.8 355.9,256.6 354.7,256.9
			353.8,257 351.3,257.1 339,262 337,261.7 336.3,262.6 335.5,263.1 334.7,263.3 334,262.9 330.8,264.1 327.6,264.7 322.8,264.7
			321.4,264.7 312.5,265.7 311.2,265.7 310.3,265 308.5,264.5 306.6,264.2 305,264.8 300,263.5 298.2,264.2 297.3,264.2
			296.7,263.9 296,263.1 295.2,262.9 294.5,262.6 293.4,261.7 292.5,260.7 292,259.9 290.2,258.8 286.7,255 281.5,247.6
			280.2,246.7 279.8,246.3 278.1,243.7 277.1,243 274.5,241.6 273.6,241.4 271.2,241.3 270.3,241.1 269.7,240.8 269.2,239.9
			269.1,239.5 266.7,241.3 267.9,243.1 273.9,246.4 274.2,249.9 273.7,251.4 272.2,252.2 267,249.8 266.1,250.1 265.7,250.6
			264.8,250.2 263.9,249.5 263.8,249.1 262.5,248.7 261.8,248.7 260.8,249.1 261,250.1 260.3,251.1 259,251.9 257.7,252.2
			256.3,251.9 255.4,251.3 254.3,250.8 253.5,250.9 252.3,251 248.2,252.3 246.5,252.2 245.5,252.3 245.2,252.2 244.9,251.9
			244.7,251.3 244.5,251 244.1,250.5 242.8,248.5 242.8,247.8 241.7,247.2 238.5,246.1 237,247 234.9,246.8 232.8,245.8
			231.3,244.4 231.7,244.6 231.9,244.8 232.2,244.9 232.6,245 233.2,239.2 232.7,238.3 230.6,237.2 230.1,236 231.4,236.3
			231.9,236.5 231.9,236 231.3,235 231,233.4 231.3,231.8 232.2,231.1 234.5,231.3 235.9,231.9 238.5,233.5 239.1,232.4 238.9,230
			239.1,228.7 238.5,228.7 238.5,229.3 237.9,229.3 237.5,228.8 237.2,228.3 236.9,227.7 236.7,226.9 236.3,226.9 236.2,227
			236.2,227.2 236.1,227.5 235.5,226.9 235.1,227.1 234.9,227.9 234.9,229 234.6,229.3 233.9,229.2 233.2,228.7 233.2,227.5
			232.6,227.5 232.7,228.9 232.4,229.8 231.7,230.2 230.8,229.9 230.2,229.2 229.9,228.1 229.5,227.2 228.3,226.9 229.4,228.5
			228.9,228.8 227.8,228.9 227.1,229.9 226.5,229.9 223.4,228 222.9,227.2 222.7,226.1 222.2,224.9 221.4,223.9 220.5,223.3
			220,223.4 219.6,223.2 219.5,222.8 219.9,222.1 220.1,221.1 222.3,221.3 223.5,220.4 223.6,219.4 222.9,218.7 221.9,218.1
			221.1,217.3 220.9,216.1 221.1,215.1 223.5,211 223.9,209.8 224.1,208.3 221.8,209.9 218.5,208.1 213.3,202.9 204.9,196.4
			203.8,195.7 203.8,195.7 204.7,199 204.7,199 204.1,199 202.7,198.3 201.4,198.1 201.4,198.1 200.8,199.1 200.4,202.4
			199.8,203.5 199.8,203.6 198.7,203.7 197,203.5 195.5,203 194.6,202.6 193.7,201.6 192.6,199.5 191.7,198.5 191,198.8
			190.1,198.5 186.5,195.4 181.4,193.4 179.8,193.6 179.8,193.6 179.7,193.7 178.2,194.9 178.2,194.9 177.2,196.3 177,197.1
			178.1,199 178.7,201.4 179.1,201.9 179.6,202.1 180,202.3 179.9,203 179.9,203 178.6,203.8 173.9,204.4 172.3,205 172.3,205
			171.6,206.2 171.3,207.9 171.7,239.9 171.8,241 172.6,240.6 174.4,239.9 175.2,239.9 175.6,240.2 175.8,240.3 176.1,241
			176.4,241.7 176.7,242.2 177.3,242.5 179.2,243.4 183.3,246.3 187.2,247.7 188.4,248.5 190.7,252.2 191,253.1 191,253.1
			189.8,255.1 189.8,255.1 187.1,256.7 178.1,260.4 177.1,261.1 177.1,261.1 176.2,262.2 176.6,262.6 177.3,263 177.3,264.2
			177.3,264.2 176.5,265.2 173.9,266.8 173.2,267.5 173.2,267.5 173.1,268.8 173.5,270.1 174.3,271.2 177.1,274.3 178.5,276.3
			179.6,278.6 180.3,281.3 180.8,287.4 180.6,290.4 179.7,293 177.8,295.4 177.8,295.4 175.5,296.5 173.9,297 420,297 		"/>
		<polygon fill="#FFFFFF" points="265.9,231.6 264.4,230.5 262.6,230.5 261.9,231.5 263.3,232.5 265.7,233.6 266.2,232 		"/>
		<polygon fill="#FFFFFF" points="240.8,223.4 240.6,223.5 240.6,223.6 241.5,224.6 241.9,224.7 242.7,222.7 244.1,221.4
			245.9,220.7 247.6,220.9 246.6,219.7 245.5,218.9 243.3,217.9 241.2,216 240.4,215.6 239.6,216 238.8,216.1 238.1,215.9
			237.3,215.6 236.9,215.1 236.5,215 236,215.2 235.5,215.6 235.5,216.1 237.2,217 238.8,217.3 240.1,217.9 240.9,219.7
			239.7,219.2 239.7,219.7 240.6,220.3 240.9,221 240.9,223 		"/>
		<polygon fill="#FFFFFF" points="423.5,381.8 424.3,381.7 426.6,381.6 427.7,381.3 428.4,380.6 429.7,377.3 429.8,375.6 428.7,373
			424.6,365.5 420,359.7 420,383.2 		"/>
		<polygon fill="#FFFFFF" points="519.9,297.2 520.6,299.3 520.9,299.9 521,300.5 520.6,301 520.1,301.5 519.9,301.9 520.4,302.9
			521.1,303.5 521.7,304.5 521.8,306.2 521.2,306.1 520.9,305.8 520.6,305 520.4,305.8 519.9,307.3 519.9,307.9 520.5,308.3
			522.4,308.9 523,309.2 523.6,310.6 524,312.4 524.8,314 526.6,314.6 526.6,314 525.6,313.2 525.1,311.8 524.2,308.5 524.9,308.4
			525.4,308.1 525.8,307.5 526,306.8 526.2,307.1 526.3,307.3 526.5,307.6 526.6,307.9 527.2,307.9 528,307.8 529.2,307.9
			530.2,307.7 530.2,306.8 531.6,304.9 531.4,303.1 530.7,301.5 530.7,300.2 531.4,300.8 531.4,299.2 530.7,298.5 529.9,297.9
			529.6,297 520.1,297 		"/>
		<polygon fill="#FFFFFF" points="420,302.3 422.2,301.2 425.7,298.9 428.6,297 420,297 		"/>
		<polygon fill="#FFFFFF" points="599.8,297.2 598.5,298.5 599.1,300.9 601,304.7 601.3,306.6 602.4,308.3 603.9,309.6 605.8,310.3
			613.5,311.7 614.8,312.5 615.7,313.1 620.2,318.8 621.7,318.5 625,322.4 627.4,322.4 626.6,323.6 625.2,324 623.8,323.6
			623.2,322.7 622.9,321.2 622.1,320 621.2,319.4 620.2,320 619.3,319.5 618.8,318.9 618.5,317.9 618.4,316.6 617.9,316
			615.9,314.9 614.4,313.2 612,312.4 607.7,311.5 608.2,312.6 609.2,313.6 610.4,314.3 611.8,314.6 611.8,315.1 610.6,315.1
			609.8,315 609.1,314.6 608.5,314.2 607.8,312.9 606.8,312.9 605.9,313.2 605.5,313.3 604.2,313 603.1,312.2 602.2,311
			600.7,306.9 599.9,305.5 598.9,305 597.7,304.7 596.1,304.1 594.7,303.3 593.8,302.6 593.6,301.8 593.1,298.7 592.8,298.3
			592,298.4 591.1,298.8 590.8,299.3 590.7,301 590.6,301.8 590.2,302.6 588.6,304.2 588.4,304.4 588.2,305.3 588.4,307.7
			588.1,307.9 587,309.4 586.9,309.7 585.6,309.9 585,310 584.2,309.7 583.6,309.4 582.6,308.4 581.8,307.9 581.5,308.8
			581.3,308.9 580.6,309.2 580.9,309.5 581.1,309.8 581.3,310.1 581.8,310.3 581.8,311 580.7,311.7 580,311.8 577.6,311.5
			577.6,312.2 578.6,312.8 581.2,315.8 582.2,316.6 583,317.4 583.4,318.5 583.6,320.3 582.3,323.5 579.3,326.7 575.9,328.4
			573.4,327.1 572.4,328 571,328.2 569.7,327.6 568.7,324.8 567.7,325.4 566.7,327 566.2,328.7 566.4,329.8 568,332.6 568.2,333.4
			568,334.5 568,335.5 568.7,338.3 569.8,341 571.5,343 573.6,345.1 575.5,347.5 576.4,350.3 576.8,351.3 579.4,355.3 580,356.8
			580.1,357.9 579.6,359.1 578.8,360.8 579.7,361 580.4,361.5 580.8,362.3 580.6,363.2 582.3,363.5 583.6,364.4 585.4,366.8
			586.5,367.7 586.8,368.2 587.2,369.2 587.2,370.1 586.8,370.9 586.7,371.4 587.3,371.4 587.4,371.3 588.2,370.6 589.1,370.9
			589.3,371.4 593.8,371.4 589.6,374.5 589.6,375.6 589.8,376.4 590.2,375.1 590.8,375.1 591.3,376.9 591.8,377.7 592.3,378.1
			593.2,378.5 593.6,379.3 593.8,380.2 594.1,380.6 595.1,381.1 596.5,382.4 598.6,384.8 599.2,384.8 600,384 600.6,384.4
			601.6,385.9 601.2,385.9 601,386.4 601.2,386.9 601.9,387.2 602.2,387 602.4,386.7 602.6,386.5 603.1,386.9 603.5,387.8
			603.4,388.7 603,389.6 602.8,390.5 603.1,391.5 603.8,392.2 605.2,393.2 609,397.9 611.5,400.2 613.4,400.7 620.1,379.6
			620.1,379.6 622.2,380.1 624.1,379.7 625.8,378.8 625.8,378.7 627.1,377.1 627.8,374.9 627.6,373 625.6,369.2 624.8,366.5
			624.4,362.7 625,359.5 625,359.5 627.1,358.4 628,358.9 632.3,362.6 633.2,363.5 633.2,363.8 632.8,364.5 632.8,364.9 633,365.1
			633.8,365.3 634,365.5 636.4,368.7 637.1,369.9 638.2,374.3 639.1,375.3 641.1,375 641.1,375 643.3,373.3 647.3,369.3
			659.6,361.7 662.1,359.4 662.1,359.4 661.6,357.8 659.8,356.1 658.6,353.5 658.9,352.4 661.5,349.2 663.7,344.2 663.7,344.2
			665.6,342.3 668.3,340.9 671.2,339.9 673.8,339.4 677.1,339.4 677.6,339.1 677.6,339.1 676.9,337.7 676.1,336.8 675.1,336.1
			674.3,335.3 673.7,334 673.5,331.9 671.7,325.1 669.1,320.3 668.3,319.1 666,315.8 664.1,311.8 663.5,310.9 662.4,310.4
			661.2,310.3 660.1,309.9 659.1,308.4 658.3,305.3 657.6,299.3 656.7,297 599.5,297 		"/>
		<polygon fill="#005293" points="233.7,315.8 235.5,316.3 234.8,315.2 233.2,314.4 231.4,313.9 230.1,313.3 227.3,314.1
			226.5,314.9 227.1,316.3 227.7,316.6 229.5,316.8 230.1,317 232.6,318.8 232,317.3 231.9,316.8 231.9,316 232.5,315.7 		"/>
		<polygon fill="#005293" points="264.7,376 264.4,376.1 265,378.4 265.2,378.8 265.9,379.4 267.9,383.6 271.6,386.7 273.3,387.7
			275.4,390 276.3,390.8 278,391.2 281.7,391.4 284.8,393.2 286.7,393.2 288.5,392.7 290.2,392 287.7,387.5 287.2,386.9
			284.5,387.1 283.5,386.5 282.9,386.5 282.3,387 281.7,386.7 281.3,386 281.2,385.1 280.8,384.2 279.3,382.8 278.7,381.7
			278.9,381.3 279.5,378.7 279.6,378.1 282.4,377.1 282.9,376.7 282.8,375.2 282.5,374.7 281.9,374.5 281.2,374 280.9,373.9
			280.2,374 279.9,374 279.8,373.8 279.9,373.1 279.9,372.8 279.2,371.8 279,371.6 278.9,370.6 277,364.9 276.6,365 276.4,365
			276.3,365.1 276.3,365.6 275.8,365.6 275.8,364.9 275.1,364.9 275.3,365.6 275.5,366.7 275.8,367.4 275.1,367.4 275.1,367
			274.2,367.5 271.8,369.3 270.1,369.6 269.5,370.1 269,370.9 268.9,371.6 268.8,372.4 268.6,373.4 268.4,373.5 267.3,375.4
			267.3,375.8 266.5,376 		"/>
		<polygon fill="#005293" points="173.9,297 173,297.3 170.5,298.5 168.1,300.8 166.7,302.2 166.6,302.2 162.7,304.4 161.9,305
			161.9,305.1 161.8,306.2 162.6,307 165,308.4 165.5,308.9 166.4,310.2 166.8,310.6 167.4,310.6 168.5,310.2 169.3,310.3
			170.8,311.1 171.4,312 171.8,314.8 176.4,324.8 176,328.7 175.5,330.7 175.5,330.7 177.3,331.7 178.1,330.9 178.6,329.5
			179.7,328.3 179.7,327.8 177.7,321.9 177,318.2 177.3,314.6 178.6,311.5 180.6,309.4 183.3,307.9 189.5,306 192.9,305.5
			196.4,305.5 199.6,306.2 205.7,308.6 209.3,309.6 211.5,309.2 212.3,309.5 212.9,309.5 214.5,309.2 214.3,308.5 214,307.8
			213.7,307.2 213.3,306.8 213.3,306.2 214.9,305.4 215.3,304.3 215.5,303.2 216.4,302.6 216.3,303.4 216.4,304.2 216.8,304.7
			217.6,305 217.6,305.5 216,306.1 216.1,307.1 217.4,308.1 219,308.5 220.2,308.2 222.7,307 224.1,306.8 223.9,306.2 223.7,304.9
			223.5,304.4 225,304.9 226.6,304.8 228.1,304.3 229.6,303.7 229.2,305.6 229.8,306.7 231.2,307.2 232.9,307.4 232.9,306.9
			234.3,304 234.8,303.7 235.9,303.6 237.9,303.7 236.5,304.1 235.8,304.7 235.7,305.6 236.1,306.8 235.7,306.8 235.6,306.6
			235.6,306.4 235.5,306.2 235.1,306.6 234.9,307.1 235,307.6 235.5,307.9 235.5,308.5 235,309.4 235.1,310.6 236.1,313.3
			235.7,313.5 235.3,313.9 234.9,314 234.9,314.6 235.8,314.9 236.9,316.1 237.6,316.3 238.8,316.1 240.3,315.2 241.5,315.1
			241.5,315.8 240.9,316 240.6,316.3 240.5,316.9 240.4,317.6 241.2,317.3 241.2,317.9 240.4,320 240.9,320 240.9,319.4 241,319.4
			241.4,319.6 241.6,319.7 243.8,314.9 244,313.3 244.5,313.3 245.9,314.5 248.8,315.3 251.6,315.5 252.9,314.6 254.8,316.2
			256,316.9 256.5,316.6 256.9,315.5 257.9,314.4 259.1,313.7 260.1,313.3 258.7,315.7 258.3,317 259.2,317.6 260.5,317.7
			264.1,318.6 264.9,319.1 271.8,321.8 273.3,323 273.9,323 274.5,322.1 275.8,320.7 276.3,320 275.3,319.7 275,318.9 275.3,318
			275.8,317 276.3,317 276.6,318.6 277.4,320 279.4,322.4 282.3,327.8 281.6,327.5 281.5,327.4 281.2,327.1 280.6,327.1
			280.1,327.6 279.5,327.8 278.9,327.6 278.1,327.1 278.1,327.8 279.5,328.5 279.6,329.7 279.6,331 280.6,331.9 280.5,331.1
			280.6,330.3 281.2,329 281.7,329.9 282.9,333.2 283.5,334 285.1,336.1 285.4,337.1 285.5,337.7 285.8,338.2 286.2,338.5
			286.9,338.6 287.1,338.3 287,337.7 286.6,336.5 286.6,335.4 286.7,335.3 287.3,335.4 288.3,335 288,336 288.1,337.3 287.7,338
			288.9,339 289.3,339.6 289.5,340.3 288,339.8 287.5,340.6 287.4,342.1 287.1,343.4 288.4,343.4 289.1,343.8 289.1,344.5
			288.3,345.1 288.3,345.8 289,346.4 289.5,346.4 290.1,345.9 290.7,345.8 291.3,346 292,346.4 292,347 290.7,348.5 290.3,349.5
			290.2,350.9 290.6,351.9 291.4,352.7 291.9,353.4 291.3,354.2 291.3,354.7 292.3,355.1 294.4,356.5 294.5,355 295.4,354.7
			298.9,355.7 297.9,356.7 296.2,357.5 295.5,357.7 295.6,359 297.6,359.9 300.2,360.1 302.2,359.6 302.9,360 303.6,360.7
			304.2,361.6 304.5,362.6 306.9,362.3 314.1,364.4 316.2,364.4 317.3,364.8 317.7,365.9 318.4,366 321.2,367.5 321.9,368
			322.6,368 323,367.4 324,366.6 324.4,366.2 324.6,365.4 324.5,364.8 324.4,363.8 324.7,360 324.4,359 323.1,359.5 321.9,360.1
			321.4,360.1 320.8,359.4 320.1,358.3 320.9,358.7 321.4,358.8 322.6,358.3 321.6,356.7 321,356.2 320.1,355.9 320.1,355.3
			321.3,355.2 322.6,355.3 322.6,355.9 322.3,356.3 322.1,356.6 322.2,357 322.6,357.7 324.4,356.4 326.4,354.5 327.2,352.2
			325.6,349.2 325.8,348.7 326,348.1 326.2,347.3 325.9,347.2 324.4,346.4 322.8,345.1 322.6,344.4 323.8,344 323.7,343.4
			323.4,343.1 322.6,342.7 324.2,343.1 324.4,344.4 324.8,345.7 327,346.4 328.1,346.6 329.2,347.4 330,347.6 334,347.6 334,347
			333.2,346.6 332.7,346.1 332.4,345.5 332.2,344.5 332.7,344.5 333.7,346.2 335.1,345 337,341.5 336.8,347 337.4,349.3
			339.4,348.2 339.9,348.2 339.8,349.3 339.2,349.8 338.4,350 337.3,350 336.3,350.2 335.8,350.6 335.3,351 334.8,351.2
			334.2,351.8 334.1,353.1 334.9,354.4 337,354.7 337,355.1 336.9,355.2 336.6,355.2 336.3,355.3 336.9,355.7 337.6,355.9
			338.4,356 339.4,355.9 337.7,358.6 337.9,359 338.6,359.2 339.7,359.8 340.7,360.6 341.2,361.3 340.1,361.1 339.2,361.2
			338.6,361.8 338.2,362.6 338,363.4 338.4,363.7 339,363.9 339.9,364.4 344.1,368.6 344.1,369.2 343.5,369.2 343.5,369.8
			344.4,370.4 345.5,371.5 346.4,372.7 346.2,373.7 345.9,374.4 345.8,375.3 345.6,376.1 344.6,376.7 345,377.3 345.6,377.9
			345.9,378.1 349.1,381.5 349.5,382.7 348.6,385.4 348.6,387 350.8,388.4 351.2,389.8 351.1,391.4 350.8,392.6 350.4,393
			349.4,393.8 349,394.4 348.9,395.1 349,397 348.7,397.4 348.2,397.6 347.8,398.3 347.8,398.9 348.7,399.2 349.5,399.3
			350.3,399.6 350.9,400 351.4,400.4 352.8,402.7 353.8,403.3 355,402.1 355.6,402.1 356,402.7 356.5,402.8 356.9,402.7
			357.4,402.1 358,402.1 359.8,402.6 366.8,402.4 376.3,400.6 377,400.5 387.7,399.2 388.6,399.3 390.3,399.8 390.9,399.8
			391.7,399.2 391.7,398.7 391.7,398.1 392.1,397.4 392.9,396.8 393.7,396.6 394.3,396.2 394.5,395.3 394.8,394.9 395.3,394.4
			396,393.9 396.6,393.8 398.8,393.5 399.1,392.7 397.6,390.2 397.9,387.9 400.2,386.2 406.5,384.2 405.9,383.6 405.2,384.1
			404.4,384.4 403.5,384.6 402.4,384.8 402.4,384.2 405.2,383.3 405.9,383 406.5,383 407.4,383.7 409.7,384.3 410.8,384.8
			411.9,384.1 417.4,384.2 420,383.2 420,359.7 416.6,355.4 411.3,350.6 403,344 401.8,341.5 400.5,337.8 398.7,334.7 396.4,334
			395.7,333.8 394.7,333.1 391.4,331.6 390.1,331.4 389.3,330.6 388.9,328.9 388.2,327.2 386.8,326.5 387.3,325.8 387.5,325.5
			387.7,324.4 387.4,316 388.1,314.4 393.6,309 395.2,307.9 395.5,307.4 395.4,306.9 395.5,306.5 396.3,306.2 395.9,306.6
			396.4,307.2 397.6,307.9 400,308.5 400.7,308.3 402.2,307.6 403,307.4 403.5,307.5 404.6,307.9 405.4,307.9 409.5,307.4
			412.1,306.4 418.2,303.2 420,302.3 420,297 		"/>
		<polygon fill="#005293" points="273.4,397 274.5,396.2 273.3,396.1 272.5,395.9 271.8,395.8 270.9,396.2 271,395.8 270.9,395.6
			270.7,395.6 270.3,395.6 269.9,396.1 270,396.3 270.3,396.8 270.2,397.6 271.5,401.5 272.2,401.5 271.9,400.9 271.5,400.4
			272.3,399.3 		"/>
		<polygon fill="#005293" points="225.4,310.7 226.3,310.3 226.4,309.5 225.3,308.5 223.4,308 218.9,311.2 216.9,311 216.4,311
			216.9,312.2 218,313.5 219.2,314.7 220.2,315.1 221.7,314.8 224.8,313.2 226.5,312.7 224.1,311 224.1,310.3 		"/>
		<polygon fill="#005293" points="226,322.4 225,322.4 224,323 223.2,324 222.6,325.1 222.4,326.2 223.7,326 224.6,325.7 226.2,325
			226.1,323.9 226.2,322.9 		"/>
		<polygon fill="#005293" points="322.8,377.7 323.4,377.9 324.2,378.1 325,378.1 325.5,377.8 326.7,376.4 329.1,375.1 329.6,374.6
			329.9,374.1 330.3,373.6 331.2,373.4 332,373.4 332.6,373.6 333.1,373.8 333.7,374.3 334.4,374.6 335.1,374.5 336,374 337,373.6
			337.7,372.8 338.8,370.9 336.3,370.9 335.1,370.8 334,370.4 331.3,371 329.8,371.6 328.6,372.2 327.9,373 327.3,374 326.4,374.8
			323.2,375.3 322.2,375.7 321.3,376.4 320.4,377.3 319.6,378.4 320.2,378.4 322.6,377.6 		"/>
		<polygon fill="#005293" points="241.7,319.8 241.6,319.7 241.5,320 		"/>
		<polygon fill="#D21034" points="658.2,275.1 657.7,274.8 657.4,274.4 655.8,275.4 653.1,275.6 650.2,275.1 648.1,274.1
			646.2,272.2 645.7,271.3 645.4,270.2 645.5,269 645.7,268.1 645.5,267.2 644.2,266.5 644.2,267.8 642.8,266.7 640.7,263.1
			639.1,262.3 638.8,261.8 637.8,260.6 636.9,259.8 636.4,260.2 636.6,261.1 637.1,261.7 637.7,262.2 638.2,262.9 636.5,262.2
			634.2,260.4 632.3,258.3 631.6,256.3 631.3,256.5 630.7,256.7 630.4,256.9 627.6,252.9 626.8,251 627.4,249.1 626.5,248.6
			625.5,247.8 624.8,246.9 624.5,245.8 622.6,244.4 622.4,244 622.2,243 622,242.6 617.7,238.3 616.6,236.5 616,236.5 615.9,238
			616.2,239.2 617.2,241.4 612.7,236.7 611.5,236 610.1,234.8 607.1,230.4 605.2,230.5 604.5,229.5 602.6,227.5 602.2,226.4
			601.1,225.9 599.5,225.5 596.5,225.2 594.4,224 592.3,223.4 591.7,223.3 590.9,223.1 589.6,222.3 588.7,222.1 586.9,222.3
			586,222.1 585,221.7 582.6,220.1 581.8,219.7 581,219.7 580,219.8 579.4,219.7 577.3,218.5 576.5,218.3 574.2,217 572.5,216.7
			570.2,215.4 569.8,215.3 567.4,213.7 564.6,212.7 563.5,212.1 563.8,211.4 563.8,210.8 562.7,210.4 559.6,210.1 558.3,209.6
			556.3,208.5 555.1,208.3 554.1,208.6 552.9,209.7 551.8,210.1 550.7,210 548.8,209.1 547.9,208.9 543.7,208.9 543.1,208.7
			541.5,207.5 540.4,207.1 539.9,207.4 539.2,207.9 538.3,208.1 537.1,207.4 536.4,207.6 533.2,209.6 532.5,208.2 531.3,208.7
			529,210.8 528.1,210.1 526.9,209.8 525.8,209.8 525.4,209.8 525.3,209.2 524.9,208.5 524.2,207.9 523.3,207.7 522.1,207.6
			520,207.1 518.8,207.1 518.3,207.4 516.9,208.5 516.3,208.9 515.8,208.9 514.7,208.1 513.3,208.2 512.1,208.2 511.6,206.8
			511.6,202.1 512.1,201.1 513.4,200.5 516.3,199.9 516.6,200.1 517.2,200.3 517.9,200.3 518.2,199.6 520.6,198.8 518.5,198.1
			515.5,197.8 512.4,198.1 510.4,198.8 510.3,198.8 509.2,198.6 507.7,198.8 506.1,198.9 505,198.1 504.3,198.1 502.6,199.5
			499.2,199.8 495.5,199.3 492.7,197.9 489.7,196.9 481,196.2 479.2,194.6 478.5,195 477.9,195.1 477.3,194.8 476.8,194
			476.2,195.6 476.2,196.4 474.4,195.8 473.7,195.5 473.2,195.1 472.6,195.1 472.3,195.6 472.1,195.9 471.8,196.1 471.3,196.4
			471,195.7 471,195.5 470.1,195.1 470.1,194.6 471.1,194.1 471,193.4 470.6,192.6 470.1,191.5 466.6,193.5 465.4,194 465,193.8
			463.7,193.6 462.4,193.7 461.8,194.3 461.3,194.9 459.2,195.9 458.8,196.6 458.5,196.9 458,197 457.6,197.3 457.6,198.1
			458,198.2 458.8,198 460,197.6 459.6,198.5 456.3,202.9 454.5,204.7 454.2,204.9 453.6,205.1 453.3,205.3 453.2,205.6
			452.9,206.3 452.8,206.5 451.3,207.4 448.7,208.4 447.4,209.6 446.5,211.1 446.6,212.3 447,213.7 447.4,215.6 446.7,214.6
			446,214 444.4,213.2 443.1,212.9 441.6,212.3 440.5,212.2 440.8,213.2 440.2,213.7 439.8,213.3 439.6,213.2 439.8,213.9
			440,215.4 440.2,216.1 438.5,215 438,215.8 437.9,217.6 437.2,219.2 436.3,219.6 435.4,219.6 434.7,219.1 434.2,218.5 434,217.7
			434.2,214.4 431.7,215.6 429.1,217.8 426.9,220.2 425.2,222.8 420.4,226.7 420,227 420,297 428.6,297 431.8,294.9 433.7,293.3
			433.9,292.9 434.3,292.6 435.2,290.9 435.7,290.6 436.4,290.4 437.1,289.9 438.4,288.7 438.8,288.6 439.7,288.3 440.2,288.2
			440.5,287.9 440.6,287.2 440.8,287 445.9,284.9 446.8,284.8 447.5,284.1 448.9,283.3 451.6,282.2 451.6,281.7 451.5,281.6
			451.3,281.7 451,281.5 451.5,281 451.6,280.8 451.6,280.3 449.3,280.1 443.7,278.5 443.7,277.9 446.5,277.1 447.4,276.7
			447.6,276.4 447.5,276 447.5,275.7 448.6,275.5 449.7,274.9 450.1,274.7 450.6,274.1 451.1,273.4 451.4,272.6 451.6,272
			451.9,271.5 452.1,271 452.2,270.5 452,270.2 451.6,270 451.1,269.8 451,269.2 450.6,264 451,262.3 451.7,261.1 452.9,259.8
			454.3,259.1 455.8,259.4 455.6,258.9 455.4,258.5 455.2,258.2 455.2,257.6 455.8,257.7 456,257.7 456.1,257.9 456.3,258.2
			457.2,257.8 457.8,258 458.4,258.4 459.4,258.7 459.4,258.2 458.9,257.1 460.2,256.5 464.2,255.8 466.1,256.5 467.4,255.6
			467.8,253.7 467.2,251.5 467.8,251.5 467.8,251 467.5,250.6 467.3,250.2 467.2,249.7 467.8,249.7 468.2,251.3 469.4,252.9
			470.8,254.3 472,255.1 471.7,254.1 470.1,251.5 471.1,251.3 471.2,250.7 471.2,249.9 471.3,249.1 473.8,247.6 474.1,247.3
			474.4,247.2 474.4,246.7 474.6,246.3 475.3,246.1 475.9,246.1 477,245.6 478.5,245.4 479.4,245 480.2,245 481,245.5 482.9,244.5
			487.9,245 490,244.4 490,245 490.6,245 492.9,244.5 499.9,245.7 501.4,245.3 501.6,244.2 502.1,244.5 502.5,245.2 502.6,245.5
			504.7,246.1 505.3,246.4 506.6,246.7 507.9,245.7 508.8,244.2 509.2,243.1 508.9,241.2 507.9,240.5 506.8,240.2 506.2,239.6
			506.4,238.9 506.8,238.5 507.5,238.4 508.3,238.3 509.1,238.1 509.6,237.7 509.9,237.3 510.1,237.1 510.6,236.8 511.7,235.2
			512.2,234.7 513.1,234.7 513.3,235.2 513.6,235.7 514.3,236 514.6,235.7 515.8,234.5 516.3,234.1 517.1,233.9 518.2,233.8
			518.8,233.5 518.4,234.2 517.6,234.7 515.8,235.3 514.4,236.5 513.5,236.5 512.8,235.3 512.2,235.3 511.7,236.8 510.7,238
			509.3,238.8 507.4,238.9 507.4,239.6 509,239.7 509.7,240.7 509.9,242.2 509.8,244 509.6,244.9 509.3,245.3 509.1,245.8
			509.2,246.7 509.5,247.2 511.8,248.7 516.3,249.7 527.9,255.7 528.3,257.2 528.7,258.8 529.3,260.2 531,262.2 531.9,262.6
			533.2,262.3 534.6,261.6 535.2,260.8 535,259.6 534.3,258.2 535.2,259 535.9,260 536.7,260.8 538,261.2 538,261.7 537.4,261.7
			537.4,262.3 538.8,263.6 540.5,267.3 542.2,268.3 544.6,268.3 547.3,271.8 548.8,270.2 550.1,270.4 550.2,269.2 549.8,267.3
			549.9,265.9 550.6,265.9 551,267.6 551.1,269.4 550.6,271 549.4,272 550.2,274.1 550.7,275.1 551.5,275.6 552.1,275.4
			552.8,275.1 553.5,275.1 554.2,275.6 554.6,275.1 554.9,274.9 555.4,275 555.2,275.4 554.8,276.7 560.2,278.2 560.1,281.3
			560.6,282.2 562,283.3 561,283.8 560.1,283.7 559.1,283.4 557.8,283.3 558.8,284.4 561.4,287.8 562,289.4 561.3,292.3
			561.4,293.5 561.8,294.5 562.7,295.8 563.1,296.6 563.2,295.9 563.4,295.2 563.8,294.7 564.4,294.2 565,295.3 565.4,296.9
			565.4,297 571.4,297 570.7,296.5 569.9,292.3 568.3,287.9 568.6,285.8 569.2,285.8 569.2,287.6 569.8,287.6 569.8,287 570.4,287
			570.2,287.6 569.8,288.2 570.5,289.9 571.4,295.1 572.2,296.6 573.5,296.2 575.1,294.7 576.3,292.9 576.4,291.8 577,291.2
			577.8,294 578.6,294.9 580,294.7 581.2,292.3 581.6,291.9 582.1,291.6 582.3,291.1 581.8,290 583.2,290.4 583.3,291.3
			582.4,292.9 582.1,293.4 581.7,293.3 581.6,293.4 581.8,294.2 582.2,294.5 582.7,294.8 583.2,295.2 583.6,295.9 584.3,295.7
			584.6,295.6 584.8,295.4 584.8,294.7 584.2,293.8 584.6,292.8 585.3,291.5 585.4,290 584.8,289.1 584,288.4 583.6,287.6
			584.2,286.3 584.8,286.3 586.3,291.1 586.7,293.7 586.6,296.6 586,296.4 585.8,296.2 585.4,295.9 583.3,297 588.3,297
			588.4,296.9 588.7,295.1 589.5,293.7 590.6,292.9 592,292.9 592.9,293.7 593.9,295 595.1,297 596.5,297 596.5,296.9 596.4,296
			595.2,293.2 595.1,292.4 595.1,289.5 595.1,289.3 594.6,289.2 593.5,288.4 593,287.6 593,285.4 592.6,284.6 593.6,285.1
			593.9,285.8 594,286.6 594.4,287.6 595.4,288.4 596.2,288.6 596.7,288.9 596.8,290 596.5,290.7 596,291.3 595.8,292.1
			596.1,293.5 596.9,294.7 597.8,295.7 598.9,296.6 599.5,297 656.7,297 656.4,296.2 654.9,293.8 654,293 652.5,292.5 649.9,292.8
			649.1,292.3 649.1,290.3 649.8,287.7 650.4,287 650.8,286.6 653.3,284 653.3,284 654.3,281.8 654.2,280.3 653.8,279.4
			653.9,278.7 653.9,278.7 655.3,277.8 656.7,277.5 658.1,277.4 659,276.7 659.1,276.7 659.2,275.6 658.7,275.4 		"/>
		<polygon fill="#D21034" points="529.6,297 529.6,296.9 529.5,296 529.2,295 528.8,294 528.3,293.3 527.6,293 527.1,293.1
			526.8,293.5 526.6,294.2 526,294.2 525.8,293.8 525.6,293.3 525.4,292.9 521.5,294.2 519.9,295.2 520.6,296.6 520.1,297 		"/>
		<polygon fill="#005293" points="268.7,238 267.9,237.1 267.9,236.5 268.6,236.8 269.5,237 270.2,236.7 270.3,236 270,235.6
			267.9,234.1 266.2,232 265.7,233.6 266.1,233.8 265.4,234.7 264.3,238 264.9,238.6 266.7,241.3 269.1,239.5 		"/>
		<polygon fill="#D21034" points="586.7,371.7 587.2,372.8 587.3,371.4 586.7,371.4 		"/>
		<polygon fill="#D21034" points="589.3,371.4 589.6,372.5 589.6,374.5 593.8,371.4 		"/>
	</g>

		<path fill="none" stroke="#878787" stroke-width="0.25" stroke-linecap="round" stroke-linejoin="round" stroke-miterlimit="10" d="
		M226.2,322.9l-0.2-0.6l-1,0.1L224,323l-0.8,1l-0.6,1.1l-0.3,1.1l1.3-0.1l1-0.3l1.6-0.7l-0.1-1.2L226.2,322.9z M241.7,319.8
		L241.7,319.8l-0.2,0.1L241.7,319.8z M233.2,314.4l-1.8-0.6l-1.2-0.6l-2.9,0.8l-0.8,0.8l0.7,1.4l0.6,0.3l1.8,0.2l0.7,0.2l2.4,1.8
		l-0.6-1.5l-0.1-0.4l0-0.8l0.6-0.4l1.2,0.1l1.9,0.5l-0.7-1.1L233.2,314.4z M226.5,312.7l-2.4-1.7v-0.7l1.4,0.4l0.9-0.4l0.1-0.9
		l-1-0.9l-1.9-0.5l-4.5,3.2l-2-0.3h-0.5l0.5,1.2l1.1,1.4l1.2,1.1l1,0.5l1.5-0.3l3-1.6L226.5,312.7z M508.6,306.8l-0.1-0.3l0-0.2
		l-0.1-0.1l-0.4,0l-1,1.4l-0.6,1.2l-0.1,1.3l0.5,1.6l-1.5,0.3l0.2,1l0.8,1.4l0.5,1.5l1.5-1.2l0.5-1.6l0.7-1.3l2.2-0.2V311l-0.8-0.6
		L508.6,306.8z M508.7,300.7l1.2,0.8l0.3-0.8l0.1-0.9l-0.1-0.9l-0.2-0.9l-1,0.6l-0.6-0.5l-0.5-0.8l-0.6-0.3l-1.2,1.1l0.8,1.3
		L508.7,300.7z M530.7,301.5l0.1-1.3l0.7,0.6l0-1.5l-0.7-0.7l-0.8-0.6l-0.4-1.1l-0.1-0.9l-0.2-1l-0.4-0.9l-0.6-0.7l-0.7-0.3
		l-0.5,0.1l-0.3,0.4l-0.2,0.7H526l-0.1-0.4l-0.2-0.4l-0.2-0.4l-3.9,1.2l-1.6,1.1l0.6,1.3l-0.7,0.6l0.6,2.1l0.3,0.6l0.1,0.6l-0.4,0.5
		l-0.5,0.5l-0.2,0.4l0.5,0.9l0.7,0.7l0.6,0.9l0.1,1.7l-0.6-0.1l-0.3-0.3l-0.3-0.9l-0.2,0.9l-0.6,1.5l0.1,0.6l0.6,0.4l1.9,0.5
		l0.6,0.3l0.6,1.4l0.4,1.9l0.8,1.6l1.8,0.5V314l-1-0.7l-0.6-1.4l-0.9-3.3l0.7-0.2l0.5-0.3l0.4-0.5l0.2-0.8l0.2,0.3l0.2,0.2l0.2,0.3
		l0.1,0.4h0.5l0.8-0.2l1.2,0.1l1-0.2l0-0.9l1.4-1.8l-0.2-1.8L530.7,301.5z M272.5,395.9l-0.7-0.1l-0.8,0.3l0-0.4l-0.1-0.2l-0.2-0.1
		l-0.3,0l-0.4,0.5l0,0.3l0.4,0.5l-0.1,0.8l1.3,4h0.7l-0.3-0.7l-0.3-0.4l0.7-1.1l1.2-2.3l1.1-0.9l-1.2,0L272.5,395.9z M335.1,370.8
		l-1.1-0.4l-2.7,0.6l-1.5,0.6l-1.2,0.6l-0.7,0.8l-0.6,1l-0.9,0.8l-3.2,0.5l-1.1,0.4l-0.9,0.7l-0.8,0.9l-0.8,1.1l0.6,0l2.4-0.8
		l0.2,0.1l0.6,0.2l0.8,0.2h0.7l0.5-0.3l1.2-1.4l2.4-1.3l0.4-0.5l0.3-0.6l0.5-0.5l0.9-0.2l0.8,0l0.6,0.1l0.5,0.3l0.6,0.4l0.8,0.3
		l0.7-0.1l1-0.5l1-0.3l0.7-0.8l1-1.9l-2.5,0L335.1,370.8z M287.2,386.9l-2.7,0.2l-1-0.5h-0.5l-0.6,0.5l-0.6-0.3l-0.4-0.8l-0.2-0.9
		l-0.3-0.9l-1.6-1.4l-0.6-1.1l0.2-0.4l0.7-2.6l0.1-0.6l2.8-1.1l0.5-0.4l-0.1-1.4l-0.3-0.5l-0.6-0.2l-0.8-0.5l-0.2-0.1l-0.7,0.1
		l-0.3,0l-0.1-0.2l0.1-0.7l0-0.2l-0.7-1.1l-0.2-0.2l-0.1-1l-2-5.7l-0.3,0.1l-0.3,0l-0.1,0.1l0,0.4h-0.5v-0.7h-0.7l0.2,0.7l0.2,1.1
		l0.2,0.7h-0.7l0-0.3l-0.9,0.5l-2.5,1.8l-1.6,0.3l-0.7,0.4l-0.5,0.8l-0.1,0.7l0,0.8l-0.2,1l-0.2,0.1l-1.1,2l0,0.3l-0.8,0.2l-1.8,0
		l-0.3,0.1l0.7,2.3l0.2,0.4l0.7,0.7l2,4.2l3.7,3.1l1.7,1l2.1,2.3l0.9,0.8l1.7,0.4l3.7,0.3l3.1,1.7l1.9,0l1.9-0.5l1.6-0.7l-2.4-4.5
		L287.2,386.9z M676.9,337.7l-0.9-0.9l-0.9-0.7l-0.8-0.8l-0.6-1.3l-0.2-2.1l-1.9-6.8l-2.5-4.8l-0.8-1.2l-2.3-3.3l-1.9-4l-0.6-0.9
		l-1.1-0.5l-1.2-0.1l-1.1-0.4l-1-1.5l-0.8-3.1l-0.7-6l-1.3-3.1l-1.5-2.4L654,293l-1.5-0.5l-2.6,0.3l-0.8-0.5l0-2l0.7-2.6l0.6-0.7
		l0.4-0.4l2.4-2.6l0,0l1.1-2.2l-0.1-1.6l-0.4-0.9l0.1-0.7l0,0l1.4-0.9l1.4-0.3l1.4-0.1l0.9-0.6l0,0l0.2-1.2l-0.6-0.2l-0.5-0.3
		l-0.4-0.3l-0.3-0.4l-1.6,1l-2.7,0.2l-2.9-0.5l-2.1-1l-1.9-1.9l-0.5-0.9l-0.3-1.1l0.1-1.2l0.2-1l-0.2-0.8l-1.3-0.7v1.3l-1.4-1
		l-2.1-3.6l-1.6-0.8l-0.3-0.6l-0.9-1.1l-1-0.8l-0.5,0.4l0.2,0.9l0.5,0.6l0.6,0.5l0.4,0.7l-1.7-0.8l-2.2-1.8l-1.9-2.2l-0.7-1.9
		l-0.3,0.2l-0.7,0.2l-0.3,0.2l-2.8-4l-0.8-1.9l0.6-1.9l-0.9-0.5l-1-0.8l-0.8-0.9l-0.3-1l-1.9-1.5l-0.1-0.3l-0.2-1.1l-0.2-0.4
		l-4.3-4.2l-1.1-1.8H616l0,1.5l0.2,1.1l1,2.2l-4.5-4.7l-1.2-0.7l-1.4-1.2l-3-4.4l-1.9,0.1l-0.8-1l-1.9-2l-0.3-1.1l-1.1-0.5l-1.6-0.4
		l-3-0.3l-2.1-1.2l-2.1-0.6l-0.6-0.1l-0.8-0.2l-1.3-0.8l-0.9-0.2l-1.8,0.2l-0.9-0.2l-1-0.5l-2.3-1.5l-0.8-0.4l-0.8-0.1l-1,0.1
		l-0.6-0.1l-2.1-1.2l-0.8-0.3l-2.3-1.2l-1.7-0.3l-2.3-1.4l-0.4-0.1l-2.4-1.6l-2.8-1l-1.1-0.6l0.3-0.8v-0.6l-1.1-0.4l-3.2-0.3
		l-1.3-0.5l-2-1.1l-1.2-0.2l-1,0.2l-1.2,1.2l-1.1,0.4l-1.1-0.1l-1.9-0.9l-1-0.2h-4.2l-0.6-0.2l-1.6-1.2l-1.1-0.4l-0.5,0.3l-0.7,0.5
		l-0.9,0.2l-1.2-0.7l-0.7,0.2l-3.2,2l-0.7-1.3l-1.2,0.5l-2.3,2.1l-1-0.7l-1.2-0.3l-1,0l-0.4,0l-0.1-0.7l-0.4-0.7l-0.7-0.5l-0.9-0.2
		l-1.2-0.1l-2.1-0.5l-1.2,0l-0.5,0.3l-1.4,1.2l-0.6,0.4h-0.5l-1.1-0.8l-1.4,0.1l-1.2-0.1l-0.5-1.3v-4.8l0.5-0.9l1.3-0.6l2.9-0.6
		l0.2,0.2l0.6,0.2l0.7,0l0.3-0.7l2.4-0.8l-2.1-0.7l-3-0.2l-3,0.2l-2.1,0.7l-0.1,0l-1-0.2l-1.6,0.2l-1.6,0.1l-1.1-0.7h-0.7l-1.7,1.3
		l-3.4,0.4l-3.8-0.6l-2.8-1.4l-3-0.9l-8.7-0.7l-1.8-1.7l-0.6,0.4l-0.6,0.1l-0.6-0.3l-0.5-0.8l-0.6,1.6l0,0.8l-1.7-0.5l-0.7-0.3
		l-0.5-0.4h-0.6l-0.3,0.5l-0.3,0.3l-0.3,0.2l-0.4,0.3l-0.3-0.7l0-0.2l-0.9-0.4v-0.5l0.9-0.5l0-0.7l-0.5-0.8l-0.4-1l-3.5,1.9
		l-1.3,0.5l-0.4-0.2l-1.3-0.2l-1.3,0.1l-0.6,0.5l-0.5,0.6l-2.1,1.1l-0.5,0.7l-0.3,0.3L458,197l-0.4,0.3l0,0.9l0.4,0.1l0.8-0.2
		l1.2-0.5l-0.4,1l-3.3,4.4l-1.8,1.8l-0.3,0.2l-0.6,0.2l-0.3,0.2l-0.2,0.3l-0.2,0.7l-0.2,0.3l-1.5,0.9l-2.6,1l-1.3,1.2l-0.9,1.6
		l0.1,1.2l0.5,1.3l0.3,1.9l-0.6-1L446,214l-1.6-0.9l-1.3-0.3l-1.5-0.5l-1-0.1l0.3,1l-0.6,0.5l-0.4-0.4l-0.2-0.2l0.2,0.7l0.2,1.5
		l0.2,0.7l-1.7-1.2l-0.5,0.8l-0.1,1.8l-0.7,1.6l-0.9,0.5l-0.9-0.1l-0.8-0.4l-0.5-0.6l-0.2-0.9l0.2-3.3l-2.4,1.2l-2.6,2.2l-2.2,2.4
		l-1.8,2.6l-4.8,4l-2.5,1.4l-2.9,1.2l-3.2,0.9l-3.1,0.3l-0.9,0.4l-2.9,1.6l-1.3,0.4l-7.3,1.1l-11.2,3.4l-3.7,1.7l-8.2,3.7l-1.1,0.3
		l-1.2,0.5l-3.3,3.1l-2.9,1.1l-0.3,0.2l-0.8,0.3l-0.5,0.6l-0.3,0.6l-0.3,0.3l-0.9,0.5l-1,1.2l-1.5,2.4l-0.8,0.9l-1.2,1l-1.3,0.8
		l-1.2,0.3l-0.9,0.1l-2.5,0.2L339,262l-2-0.3l-0.7,0.8l-0.8,0.6l-0.8,0.2l-0.7-0.3l-3.2,1.1l-3.2,0.6l-4.8,0l-1.4,0l-8.9,1l-1.3-0.1
		l-0.8-0.6l-1.8-0.5l-1.9-0.2l-1.6,0.5l-5-1.2l-1.8,0.6l-0.9,0l-0.6-0.3l-0.7-0.8l-0.8-0.2l-0.8-0.4l-1-0.9l-0.9-1l-0.5-0.8
		l-1.7-1.1l-3.5-3.7l-5.3-7.5l-1.2-0.9l-0.4-0.4l-1.7-2.6l-1-0.7l-2.6-1.4l-0.9-0.2l-2.4-0.1l-0.9-0.2l-0.6-0.3l-0.5-0.8l-0.6-1.9
		l-0.7-0.9v-0.6l0.7,0.3l0.9,0.1l0.7-0.2l0.1-0.8l-0.4-0.4l-2-1.5l-2.1-2.5l-1.5-1.1l-1.8,0l-0.6,1l1.4,1l2.8,1.3l-0.9,1.1l-2.1-0.2
		l-2.2-0.6l-1.3,0l0.4,0.8l1.4,1.2l1.6,1.1l1.1,0.5l0.8,0.8l3.1,4.6l5.9,3.3l0.3,3.5l-0.4,1.5l-1.6,0.8l-5.2-2.3l-0.9,0.2l-0.4,0.6
		l-0.9-0.4l-0.8-0.7l-0.2-0.3l-1.2-0.4l-0.8,0l-1,0.4l0.3,1l-0.8,1l-1.3,0.8l-1.3,0.3l-1.4-0.3l-0.9-0.6l-1.1-0.5l-0.8,0.1l-1.2,0.1
		l-4.2,1.3l-1.7-0.1l-1,0.1l-0.4-0.1l-0.3-0.3l-0.1-0.6l-0.2-0.3l-0.4-0.5l-1.3-2l0-0.7l-1.1-0.7l-3.1-1L237,247l-2.1-0.2l-2.1-1
		l-1.5-1.4l0.3,0.3l0.2,0.1l0.3,0.1l0.4,0.1l0.6-5.7l-0.5-0.9l-2.1-1.1l-0.5-1.2l1.3,0.3l0.5,0.2V236l-0.6-1l-0.3-1.6l0.3-1.5l1-0.7
		l2.2,0.2l1.4,0.5l2.7,1.6l0.5-1.1l-0.2-2.4l0.2-1.3h-0.6v0.6h-0.6l-0.5-0.5l-0.3-0.5l-0.2-0.6l-0.2-0.8l-0.4,0l-0.1,0.1l0,0.2
		l-0.1,0.3l-0.7-0.6l-0.4,0.2l-0.2,0.8l0,1.1l-0.3,0.3l-0.7-0.1l-0.6-0.6l-0.1-1.2h-0.6l0.1,1.4l-0.3,0.9l-0.7,0.4l-1-0.2l-0.6-0.8
		l-0.3-1l-0.4-0.9l-1.2-0.3l1,1.6l-0.5,0.3l-1.1,0.1l-0.7,1h-0.6l-3.1-1.9l-0.5-0.8l-0.2-1.1l-0.5-1.2l-0.8-1l-0.9-0.6l-0.5,0.1
		l-0.4-0.2l-0.1-0.4l0.4-0.7l0.2-1l2.2,0.2l1.2-0.9l0.1-1l-0.7-0.7l-1-0.6l-0.7-0.8l-0.3-1.2l0.2-1l2.4-4.1l0.4-1.2l0.2-1.5
		l-2.3,1.5l-3.3-1.8l-5.2-5.1l-8.4-6.6l-1.1-0.7l0,0l1,3.3l0,0l-0.7,0l-1.3-0.7l-1.3-0.2l0,0l-0.6,0.9l-0.4,3.4l-0.6,1.1l0,0
		l-1.2,0.2l-1.6-0.3l-1.5-0.5l-0.9-0.4l-0.9-1l-1.1-2.1l-0.9-1l-0.7,0.3l-0.8-0.3l-3.7-3.1l-5.1-2l-1.6,0.2h0l-0.2,0.1l-1.5,1.2l0,0
		l-1,1.4l-0.2,0.8l1.1,1.9l0.6,2.4l0.4,0.5l0.6,0.2l0.4,0.2l-0.1,0.7l0,0l-1.3,0.7l-4.7,0.6l-1.6,0.6l0,0l-0.7,1.2l-0.2,1.7l0.4,32
		l0,1l0.8-0.3l1.8-0.8l0.8,0l0.4,0.3l0.2,0.2l0.3,0.7l0.2,0.7l0.4,0.5l0.5,0.3l2,0.9l4,3l4,1.3l1.2,0.8l2.3,3.8l0.3,0.8l-0.1,0.1
		l-1.2,2l0,0l-2.6,1.6l-9,3.7l-1,0.7l0,0l-0.9,1.1l0.4,0.4l0.7,0.4l0,1.2v0l-0.8,0.9l-2.6,1.6l-0.7,0.7l0,0l-0.1,1.3l0.4,1.2
		l0.8,1.2l2.8,3l1.5,2l1.1,2.3l0.7,2.7l0.5,6.1l-0.3,3.1l-0.8,2.6l-1.9,2.4l0,0l-2.3,1.1l-2.5,0.8l-2.5,1.3l-2.4,2.3l-1.4,1.4l0,0
		l-4,2.2l-0.8,0.6l0,0l-0.1,1.1l0.8,0.9l2.4,1.4l0.5,0.5l0.8,1.2l0.5,0.4l0.6,0l1.1-0.4l0.8,0.1l1.5,0.8l0.6,0.9l0.4,2.8l4.6,10
		l-0.4,3.9l-0.5,2l0,0l1.8,0.9l0.8-0.7l0.5-1.4l1.1-1.1v-0.6l-2.1-5.9l-0.6-3.7l0.2-3.6l1.3-3.1l2.1-2.1l2.7-1.5l6.2-1.9l3.5-0.5
		l3.5,0l3.2,0.7l6.1,2.5l3.6,0.9l2.2-0.4l0.7,0.3l0.6,0l1.7-0.3l-0.2-0.6l-0.3-0.7l-0.3-0.6l-0.4-0.5v-0.6l1.6-0.7l0.4-1.1l0.1-1.1
		l0.9-0.7l-0.1,0.9l0.1,0.7l0.4,0.5l0.7,0.3v0.5l-1.6,0.6l0.2,1l1.3,1l1.6,0.4l1.1-0.3l2.5-1.3l1.4-0.2l-0.2-0.6l-0.2-1.2l-0.2-0.6
		l1.5,0.5l1.6-0.1l1.5-0.5l1.4-0.6l-0.4,1.8l0.6,1.1l1.3,0.6l1.7,0.2l0.1-0.5l1.4-2.9l0.5-0.3l1.1-0.1l2.1,0.1l-1.4,0.3l-0.7,0.6
		l-0.1,0.9l0.4,1.2l-0.4,0l-0.1-0.2l0-0.2l-0.1-0.2l-0.4,0.5l-0.2,0.5l0.1,0.4l0.5,0.4v0.6l-0.5,0.9l0.1,1.2l1,2.7l-0.4,0.2
		l-0.4,0.3l-0.5,0.1v0.6l0.9,0.3l1.1,1.2l0.8,0.3l1.2-0.2l1.5-0.9l1.2-0.1v0.7l-0.6,0.2l-0.3,0.4l-0.1,0.5l-0.1,0.7l0.8-0.3l0,0.6
		l-0.8,2h0.5v-0.6l0.1,0l0.4,0.2l0.2,0.2l2.2-4.8l0.2-1.6h0.5l1.4,1.1l2.9,0.9l2.8,0.2l1.3-1l1.8,1.6l1.2,0.8l0.5-0.3l0.4-1.2l1-1
		l1.2-0.8l1.1-0.3l-1.5,2.4l-0.3,1.3l0.9,0.6l1.2,0.2l3.6,0.9l0.8,0.5l6.9,2.7l1.6,1.2h0.5l0.6-0.8l1.3-1.4l0.5-0.8l-1-0.3l-0.3-0.7
		l0.2-1l0.5-1h0.5l0.2,1.6l0.9,1.4l1.9,2.4l3,5.4l-0.7-0.3l-0.2-0.1l-0.3-0.3h-0.6l-0.4,0.5l-0.6,0.1l-0.7-0.2l-0.8-0.4v0.7l1.4,0.7
		l0.2,1.2l0,1.3l0.9,0.9l0-0.9l0.1-0.7l0.5-1.3l0.5,0.9l1.2,3.3l0.6,0.8l1.5,2.1l0.3,1l0.1,0.7l0.3,0.5l0.5,0.3l0.6,0.1l0.3-0.3
		l-0.1-0.7l-0.4-1.2l0-1.1l0.1-0.1l0.5,0.1l1.1-0.4L288,336l0.1,1.3l-0.4,0.6l1.2,1.1l0.4,0.5l0.2,0.8l-1.5-0.6l-0.5,0.8l-0.1,1.5
		l-0.3,1.3l1.3,0l0.7,0.4l0,0.6l-0.8,0.7v0.7l0.7,0.6h0.5l0.6-0.5l0.6-0.1l0.6,0.2l0.6,0.4v0.6l-1.2,1.5l-0.4,0.9l-0.1,1.4l0.4,1
		l0.8,0.8l0.5,0.7l-0.6,0.8v0.6l1,0.4l2,1.4l0.1-1.5l1-0.3l3.4,1l-1,0.9l-1.6,0.9l-0.7,0.2l0.1,1.3l2,0.8l2.6,0.2l2-0.5l0.7,0.4
		l0.7,0.7l0.6,0.9l0.4,1l2.4-0.2l7.2,2l2,0l1.1,0.4l0.5,1.1l0.6,0.1l2.8,1.5l0.7,0.6h0.7l0.4-0.6l1.1-0.9l0.3-0.4l0.2-0.8l0-0.6
		l-0.2-1l0.4-3.8l-0.4-1l-1.3,0.5l-1.2,0.6h-0.5l-0.6-0.8l-0.6-1l0.8,0.4l0.5,0.1l1.2-0.4l-1-1.6l-0.5-0.5l-0.9-0.3v-0.7l1.2-0.1
		l1.2,0.1v0.7l-0.3,0.4l-0.2,0.3l0.1,0.4l0.4,0.7l1.9-1.4l1.9-1.9l0.9-2.3l-1.6-3l0.1-0.5l0.3-0.6l0.1-0.8l-0.3-0.1l-1.5-0.8
		l-1.5-1.3l-0.2-0.7l1.2-0.4l-0.1-0.6l-0.3-0.3l-0.9-0.4l1.6,0.3l0.2,1.3l0.4,1.4l2.2,0.6l1.1,0.2l1.1,0.8l0.8,0.2h4V347l-0.8-0.3
		l-0.5-0.5l-0.3-0.7l-0.2-0.9h0.5l1,1.7l1.3-1.2l1.9-3.5l-0.2,5.4l0.6,2.3l2-1.1h0.5l-0.1,1.1l-0.6,0.5l-0.9,0.2h-1.1l-0.9,0.2
		l-0.6,0.4l-0.4,0.4l-0.5,0.2l-0.6,0.6l-0.1,1.3l0.8,1.3l2,0.4l0,0.4l-0.1,0.1l-0.2,0l-0.3,0.1l0.5,0.4l0.7,0.3l0.8,0.1l1-0.1
		l-1.6,2.6l0.1,0.4l0.8,0.2l1.1,0.6l1,0.8l0.4,0.8l-1.1-0.3l-0.9,0.2l-0.7,0.5l-0.4,0.8l-0.1,0.8l0.3,0.3l0.7,0.2l0.9,0.5l4.2,4.2
		v0.6h-0.7v0.6l0.9,0.6l1.2,1.1l0.8,1.2l-0.1,1l-0.3,0.7l-0.1,0.9l-0.2,0.7l-1.1,0.6l0.4,0.7l0.7,0.6l0.3,0.2l3.2,3.4l0.4,1.1
		l-0.9,2.7l0,1.6l2.2,1.4l0.4,1.4l-0.1,1.6l-0.3,1.2l-0.4,0.4l-1,0.7l-0.5,0.6l-0.1,0.7l0.1,1.9l-0.4,0.4l-0.5,0.3l-0.4,0.6l0,0.6
		l0.8,0.3l0.8,0.1l0.8,0.3l0.6,0.4l0.5,0.4l1.4,2.3l1,0.6l1.2-1.2h0.6l0.4,0.5l0.5,0.2l0.4-0.2l0.5-0.5h0.6l1.8,0.5l7-0.3l9.6-1.8
		l0.6-0.1l10.7-1.3l0.9,0.1l1.7,0.5l0.7-0.1l0.7-0.5l0.1-0.5l0-0.6l0.4-0.7l0.9-0.6l0.8-0.2l0.6-0.3l0.2-1l0.2-0.4l0.6-0.5l0.7-0.4
		l0.6-0.2l2.2-0.3l0.3-0.8l-1.5-2.5l0.3-2.3l2.3-1.7l6.3-2.1l-0.6-0.5l-0.8,0.4l-0.8,0.3l-0.9,0.2l-1.1,0.1v-0.6l2.8-0.8l0.8-0.4
		h0.6l0.8,0.8l2.3,0.5l1.1,0.5l1.1-0.6l5.5,0l6.2-2.3l0.7-0.1l2.3-0.1l1.1-0.2l0.7-0.7l1.3-3.3l0.1-1.7l-1.1-2.6l-4.1-7.4l-8-10.1
		l-5.3-4.8L403,344l-1.2-2.5l-1.3-3.7l-1.9-3.1l-2.3-0.7l-0.6-0.2l-1-0.7l-3.3-1.5l-1.3-0.3l-0.8-0.8l-0.4-1.7l-0.6-1.7l-1.4-0.7
		l0.5-0.8l0.2-0.3l0.1-1l-0.3-8.4l0.7-1.6l5.5-5.5l1.6-1l0.4-0.6l-0.1-0.5l0-0.4l0.9-0.3l-0.4,0.4l0.5,0.6l1.2,0.7l2.4,0.6l0.7-0.2
		l1.5-0.7l0.8-0.2l0.5,0.1l1.1,0.4l0.8,0.1l4.2-0.5l2.6-1l6.1-3.1l3.9-2l3.5-2.3l6.2-4l1.9-1.6l0.2-0.3l0.4-0.4l0.8-1.6l0.5-0.4
		l0.8-0.2l0.6-0.4l1.3-1.2l0.4-0.1l1-0.2l0.4-0.2l0.3-0.3l0.2-0.7l0.2-0.2l5.1-2l1-0.1l0.6-0.8l1.4-0.8l2.7-1.1l0-0.5l-0.1-0.1
		l-0.2,0l-0.3-0.1l0.5-0.5l0.1-0.2l0-0.4l-2.3-0.2l-5.6-1.6v-0.6l2.7-0.8l0.9-0.4l0.2-0.3l-0.1-0.4l0.1-0.3l1.1-0.2l1.1-0.5l0.3-0.2
		l0.5-0.6l0.5-0.7l0.4-0.7l0.2-0.7l0.3-0.5l0.2-0.5l0.1-0.5l-0.2-0.3l-0.4-0.2l-0.4-0.3l-0.2-0.5l-0.4-5.2l0.4-1.7l0.7-1.3l1.2-1.2
		l1.4-0.7l1.5,0.3l-0.2-0.4l-0.1-0.4l-0.2-0.3v-0.6l0.6,0.1l0.2,0.1l0.1,0.1l0.3,0.3l0.9-0.4l0.6,0.2l0.6,0.4l1,0.3v-0.5l-0.5-1
		l1.3-0.6l4-0.7l2,0.7l1.3-0.9l0.4-1.9l-0.6-2.2h0.5V251l-0.3-0.4l-0.2-0.3l-0.1-0.5h0.5l0.5,1.5l1.2,1.6l1.4,1.4l1.2,0.8l-0.3-1
		l-1.5-2.5l0.9-0.3l0.2-0.6l-0.1-0.7l0.2-0.8l2.5-1.5l0.3-0.3l0.3-0.2l0.1-0.4l0.2-0.4l0.7-0.2l0.7-0.1l1.1-0.4l1.5-0.3l0.8-0.3
		l0.8-0.1l0.8,0.6l2-1l5,0.5l2.2-0.7v0.6h0.5l2.3-0.4l7,1.2l1.5-0.5l0.2-1l0.5,0.2l0.4,0.7l0.1,0.4l2.1,0.6l0.6,0.3l1.4,0.3l1.2-1
		l0.9-1.5l0.4-1.1l-0.2-1.9l-1-0.7l-1.1-0.3l-0.5-0.6l0.1-0.7l0.4-0.4l0.7-0.2l0.8,0l0.8-0.2l0.5-0.4l0.3-0.4l0.2-0.2l0.5-0.3
		l1.1-1.6l0.5-0.5l0.9,0l0.3,0.5l0.2,0.5l0.7,0.3l0.4-0.2l1.1-1.2l0.6-0.5l0.7-0.2l1.2-0.1l0.6-0.3l-0.4,0.8l-0.8,0.5l-1.8,0.6
		l-1.4,1.1l-0.8,0l-0.8-1.2h-0.5l-0.5,1.5l-1,1.2l-1.4,0.8l-1.9,0.1v0.7l1.7,0.2l0.7,1l0.1,1.5l0,1.8l-0.2,0.8l-0.3,0.5l-0.2,0.5
		l0.1,0.9l0.4,0.5l2.2,1.6l4.6,1l11.5,6l0.5,1.4l0.3,1.7l0.6,1.4l1.7,2l0.9,0.3l1.3-0.2l1.4-0.7l0.6-0.9l-0.2-1.1l-0.7-1.5l0.9,0.8
		l0.7,1l0.8,0.8l1.3,0.4v0.6h-0.7v0.6l1.4,1.2l1.7,3.7l1.7,1.1l2.4,0l2.7,3.5l1.5-1.6l1.3,0.2l0.1-1.3l-0.3-1.8l0.1-1.4h0.7l0.4,1.6
		l0.1,1.8l-0.5,1.6l-1.2,1l0.8,2.1l0.6,1l0.8,0.4l0.6-0.2l0.6-0.3l0.7-0.1l0.7,0.5l0.4-0.5l0.3-0.1l0.6,0.1l-0.2,0.4l-0.5,1.3
		l5.4,1.5l-0.1,3.1l0.5,0.9l1.4,1.1l-1,0.5l-0.9-0.1l-1-0.3l-1.3-0.1l1,1.1l2.6,3.4l0.6,1.5l-0.7,2.9l0.1,1.2l0.4,1l1,1.2l0.4,0.8
		l0.1-0.7l0.2-0.6l0.4-0.5l0.6-0.5l0.6,1.1l0.4,1.6l0.1,1.6l-0.5,1.1l1,0.6l2,2.5l0.5,0.3l0.2,0.1l0.7,0.3l0.6,0.4l0.3,0.8l2.4-5.1
		l-0.4-1.5l-1.6-1.3l-0.8-4.2l-1.6-4.3l0.3-2.2h0.5v1.8h0.7V287h0.5l-0.2,0.6l-0.3,0.6l0.7,1.8l0.9,5.2l0.8,1.5l1.2-0.4l1.6-1.5
		l1.2-1.8l0.1-1.1l0.7-0.7l0.8,2.8l0.8,1l1.4-0.2l1.2-2.4l0.4-0.5l0.5-0.3l0.2-0.5l-0.4-1.1l1.4,0.5l0.1,0.8l-0.9,1.7l-0.3,0.4
		l-0.4,0l-0.2,0.1l0.3,0.8l0.3,0.4l0.5,0.3l0.5,0.4l0.4,0.7l0.7-0.2l0.3-0.1l0.3-0.2v-0.7l-0.6-0.9l0.4-1l0.7-1.2l0.1-1.6l-0.6-0.9
		l-0.8-0.7l-0.4-0.8l0.6-1.3h0.7l1.4,4.7l0.5,2.7l-0.1,2.9l-0.6-0.2l-0.2-0.1l-0.3-0.3l-2.5,1.3l-0.5,0.6l-0.2,0.6l0,0.8l0.3,0.7
		l0.7,0.3l1.6-0.2l1.6-0.7l1.3-1l0.5-1.3l0.3-1.8l0.8-1.4l1.2-0.8l1.4,0l0.9,0.7l1.1,1.4l1.7,2.8h0.5l0.4-0.8l-0.1-0.9l-1.2-2.9
		l-0.2-0.8l0.1-2.9l0-0.3l-0.4-0.1l-1.2-0.8l-0.4-0.8l-0.1-2.2l-0.4-0.8l1,0.5l0.3,0.7l0.1,0.8l0.4,1l1,0.8l0.8,0.2l0.5,0.3l0.1,1.1
		l-0.3,0.7l-0.5,0.6l-0.3,0.8l0.4,1.4l0.7,1.1l1,1l1.1,0.9l0.9,0.6l-1.3,1.3l0.6,2.4l1.9,3.8l0.4,2l1,1.7l1.5,1.3l1.9,0.7l7.8,1.4
		l1.3,0.7l0.9,0.7l4.5,5.7l1.5-0.3l3.2,3.9l2.4,0l-0.8,1.2l-1.4,0.4l-1.4-0.3l-0.6-1l-0.3-1.5l-0.8-1.2l-1-0.5l-0.9,0.5l-0.9-0.5
		l-0.5-0.6l-0.3-0.9l-0.1-1.3l-0.5-0.6l-2.1-1.1l-1.5-1.7l-2.3-0.8l-4.4-0.8l0.6,1.1l1,1l1.2,0.7l1.3,0.3v0.5h-1.2l-0.8-0.1
		l-0.8-0.3l-0.6-0.5l-0.7-1.2l-0.9,0l-0.9,0.3l-0.4,0.2l-1.3-0.3l-1.1-0.8l-0.8-1.2l-1.5-4.2l-0.8-1.3l-1-0.6l-1.2-0.3l-1.6-0.6
		l-1.4-0.8l-0.9-0.7l-0.2-0.7l-0.4-3.2l-0.4-0.4l-0.8,0.1l-0.8,0.4l-0.4,0.5l0,1.7l-0.2,0.8l-0.4,0.8l-1.6,1.6l-0.2,0.2l-0.1,0.9
		l0.1,2.4l-0.3,0.2l-1.1,1.5l-0.1,0.4l-1.3,0.2l-0.7,0l-0.8-0.2l-0.6-0.4l-1-0.9l-0.7-0.5l-0.3,0.9l-0.2,0l-0.7,0.3l0.3,0.4l0.2,0.3
		l0.3,0.3l0.5,0.3v0.7l-1.1,0.7l-0.8,0.1l-2.4-0.3v0.7l1,0.6l2.6,3l1,0.8l0.8,0.8l0.5,1.1l0.2,1.8l-1.3,3.2l-3,3.2l-3.4,1.7
		l-2.5-1.3l-1,0.8l-1.4,0.2l-1.3-0.5l-1-2.8l-1,0.6l-1,1.6l-0.5,1.6l0.2,1.1l1.6,2.8l0.2,0.9l-0.2,1l0,1.1l0.7,2.8l1.1,2.7l1.6,2
		l2.2,2.1l1.9,2.4l0.8,2.8l0.4,1l2.6,4l0.6,1.5l0,1.1l-0.4,1.2l-0.8,1.7l0.9,0.3l0.8,0.5l0.4,0.7l-0.2,1l1.7,0.2l1.3,1l1.9,2.4
		l1,0.9l0.4,0.5l0.3,0.9l0,1l-0.3,0.8l-0.2,0.8l0.5,1.1l0.2-1.5l0.8-0.7l0.9,0.3l0.4,1.6l0.1,3.1l0.2,0.8l0.4-1.3h0.5l0.6,1.7
		l0.4,0.9l0.5,0.4l0.9,0.4l0.4,0.8l0.2,0.8l0.3,0.4l1,0.5l1.4,1.2l2.1,2.4h0.5l0.8-0.7l0.6,0.3l1.1,1.6l-0.4,0l-0.2,0.5l0.2,0.6
		l0.7,0.3l0.3-0.2l0.2-0.3l0.2-0.2l0.5,0.4l0.4,0.9l-0.2,0.9l-0.4,0.9l-0.2,0.9l0.3,1l0.7,0.7l1.4,1l3.7,4.7l2.5,2.3l1.9,0.6
		l6.6-21.1l0,0l2.1,0.5l1.9-0.3l1.7-1l0,0l1.3-1.6l0.8-2.3l-0.3-1.9l-2-3.8l-0.8-2.7l-0.4-3.7l0.6-3.2l0,0l2.1-1.1l0.9,0.5l4.4,3.7
		l0.9,1l0,0.2l-0.4,0.8l0,0.3l0.3,0.2l0.7,0.2l0.2,0.2l2.4,3.3l0.7,1.2l1.1,4.4l0.9,1l2-0.2l0,0l2.2-1.7l4-4l12.3-7.6l2.6-2.3l0,0
		l-0.5-1.6l-1.8-1.7l-1.2-2.6l0.3-1.1l2.6-3.3l2.2-5l0,0l1.9-1.8l2.7-1.4l2.9-1l2.6-0.5l3.2,0l0.5-0.4v0L676.9,337.7z M238.8,217.3
		l1.3,0.6l0.8,1.8l-1.2-0.5v0.5l0.9,0.5l0.3,0.8l0,2l-0.1,0.4l-0.2,0.1l0,0.1l0.9,1l0.4,0.2l0.8-2l1.4-1.3l1.8-0.7l1.7,0.2l-0.9-1.2
		l-1.1-0.7l-2.2-1l-2.1-1.9l-0.9-0.4l-0.8,0.4l-0.7,0.1l-0.7-0.2l-0.8-0.3l-0.4-0.5l-0.4-0.1l-0.5,0.2l-0.5,0.4v0.5l1.7,0.8
		L238.8,217.3z M231.4,215.3l1.2,2l0.4-0.7l0.1-0.3l-0.1-0.2l-0.4-0.4v-0.7l1.2-1.4l-0.6-2.2l-2.4-3.6l-1.7,0l-1.4,0.6l-2.3,1.8
		l4.2,3.3L231.4,215.3z"/>
</g>

</svg>
