<?xml version="1.0" encoding="utf-8"?>

<svg version="1.2" baseProfile="tiny" xmlns="http://www.w3.org/2000/svg" xmlns:xlink="http://www.w3.org/1999/xlink" x="0px"
	 y="0px" viewBox="287.3 103.5 265 387.3" xml:space="preserve">

<g id="Peru">
	<g>
		<polygon fill="#D91023" points="354.1,175.1 353.8,175.3 353.4,175.4 353.1,175.6 352.8,175.7 352.6,175.4 352.3,174 352.1,173.7
			351.9,173.5 351,173.3 350.5,173.2 350.2,173.3 349.9,173.7 350,173.8 350.1,174.2 350.1,174.5 349.9,175.4 349.6,176.3
			349.2,177.1 349.1,177.6 349,178 349.1,178.7 349.1,179.2 349.1,179.4 349,179.5 348.7,179.5 348.6,179.5 348.6,179.7
			348.6,179.9 348.8,181.3 348.7,181.7 348.2,182.2 348,182.3 347.8,182.4 347.7,182.5 347.5,182.9 347.3,183.3 347.1,184.8
			347.1,185 347,185 346.7,185.2 346.4,185.3 346.2,185.3 346,185.4 345.7,185.6 345.6,185.9 345.7,187.2 345.4,188.1 344.2,190.8
			344,191.7 343.8,192.1 343.4,192.4 343.2,192.8 343.3,193.6 343.4,194.4 343.7,194.8 344.2,195.1 344.1,195.4 343.8,195.8
			343.5,196.3 343.4,196.7 343.5,197.1 343.4,197.5 343.2,197.8 342.4,198.4 340.5,199.1 339.7,199.6 338.7,200.5 338.3,201
			338.1,201.6 338.1,202.2 338.6,203.1 338.7,203.6 338.5,204 338,204.1 337.4,204.1 337,204.2 336.8,204.6 336.5,205.6 336.4,206
			335.9,206.6 335.2,207.1 334.9,206.7 334.6,206.6 334.4,206.4 334.2,206.4 333.9,206.5 333.6,206.5 333.3,206.4 332.6,206.2
			332.2,206.1 330.7,206.2 330.2,206 330,205.7 329.7,205.3 329.5,204.9 329.3,204.7 328.9,204.6 328.7,204.5 328.6,204.3
			328.4,203.9 328.3,203.7 328,203.4 327.5,203.2 327.2,202.9 327,202.5 326.9,202 326.4,201 326.2,199.8 325.6,198.9 325.6,198.4
			326,197.6 326.1,197.3 326,197.1 325.6,196.8 325,196.8 324.9,196.8 324.6,196.6 324.5,196.5 323.4,195.4 322.8,195.2
			322.1,195.3 321.3,195.7 319.9,196.1 319.2,196 318.6,195.5 318.2,194.8 317.7,194.3 317.1,194.2 316.6,194.2 316,194.1
			315.5,193.8 315.1,193.5 314.4,192.8 314,192.4 313.6,192.3 313.2,192.2 312.9,192.1 312.7,191.9 312.7,191.9 311.8,192
			311.6,192.1 311.4,192.2 311.2,192.4 311,192.7 310.8,193.4 310.7,193.7 310.3,194.1 308.7,195.3 307.9,195.8 307.7,195.9
			307.5,196 307.1,196 306.8,195.8 305.8,195.3 305.6,195.1 305.4,194.6 305.5,194.3 308.2,190.6 308.5,190.2 307.5,190.3
			306.6,190.5 305.8,190.5 305.4,189.5 305.4,189.3 305.5,188.9 305.5,188.8 305.4,188.5 305,188 304.9,187.8 305,187.4
			305.1,186.8 305.4,186.3 305.6,186 305.9,185.8 306.3,185.7 306.7,185.6 307.2,185.7 307.6,185.8 308.5,186.3 308.9,186.3
			309.3,186.1 309.6,185.7 310,185.2 310.3,184.8 311.9,184.1 312.2,183.7 312.2,183.5 312.1,183.4 311.9,183.3 311.7,183.1
			311.7,182.9 311.7,182.5 311.6,182.3 311.5,181.9 311,181.2 310.9,180.8 311,180.6 311.1,180.5 311.1,180.3 311.1,180.1
			311,179.7 311,179.6 311,179.4 311,179.2 311.1,178.8 311.2,178.6 311.1,178.3 311,177.9 311,177.7 311,177.5 310.8,177.4
			310.6,177.4 310.4,177.2 310.4,177.1 310.6,176.5 310.7,176.1 310.7,175.9 310.6,175.7 310.5,175.6 310.1,175.4 310,175.3
			309.9,174.9 310.1,174.4 310.1,174.1 309.8,173.8 309,173.6 308.7,173.5 308.6,173.4 308.6,173.6 308.5,173.8 308.2,174.3
			308.1,174.5 308,174.9 307.6,175.2 307.2,175.3 306.8,175.4 305.4,175.4 305,175.5 304.8,175.6 304.6,175.6 304.5,175.7
			304.4,176.2 303.5,177.4 302.9,178 299.5,180 298.8,180.6 298.2,181.3 297.9,182 297.7,182.5 297.7,182.9 297.5,183.4
			297.2,183.7 296.4,184.1 295.6,184.8 294.9,185.4 293.8,187.1 293.5,187.8 293.2,188 292.9,188.1 292.5,188.3 292.2,188.6
			291.8,189.3 291.3,189.8 289.5,191 289.2,191.3 289,191.7 288.7,192.2 288.6,192.6 288.9,193.8 288.9,194.3 288.6,195
			288.5,195.2 288.3,195.3 288.2,195.4 288,195.6 287.9,195.9 288,196.3 288.2,196.8 288.3,197.1 288.3,197.5 288.2,198.5
			288,198.9 287.9,199.1 287.8,199.6 287.7,199.7 287.5,199.8 287.4,199.9 287.3,200.2 287.3,200.4 287.5,200.7 288.2,201.3
			288.5,201.7 290.2,203.4 290.3,203.8 290.5,204.2 290.8,204.6 291.6,205.3 292.3,206 292.9,206.9 292.9,207.7 292.1,208.2
			291.2,208.2 291.1,208.4 291.1,208.9 291,209.1 290.8,209.5 290.8,209.8 290.8,209.9 290.9,210.1 290.9,210.2 290.9,210.3
			290.6,210.6 290.5,210.7 290.6,211.2 291,211.8 291.6,212.4 292.1,212.9 293.3,213.5 293.6,213.9 295.4,215.8 295.8,216.4
			296.9,218.8 297.3,220.6 297.4,222.3 296.8,223.9 296,224.6 295.2,224.9 294.3,224.7 293.4,224.1 293.1,223.7 292.9,223.6
			292.6,223.6 292.1,224.5 292,224.6 291.6,224.6 291.2,225.3 291,226 291,226.8 291.1,227.7 291.5,228.6 292.1,229.4 292.7,230
			293.4,230.5 294.4,231 294.9,231.1 295.1,231.2 295.8,231.7 296.4,231.9 297.2,232.7 297.9,233 298.4,233.3 298.6,233.9
			299,234.1 300.4,234.6 302.5,235.8 305.9,237.4 309.6,239.4 312.8,240.9 313.2,241.1 315.6,243.2 315.7,243.4 315.8,243.5
			316.2,244 316.2,244.1 316.3,244.2 316.4,244.9 316.7,245.6 317.1,246.2 318.2,247.4 319.5,248.3 319.7,248.6 319.9,249
			321.3,250.6 321.6,251.1 321.7,251.5 321.7,252 321.9,252.5 322.2,252.9 323,253.7 323.5,254.4 323.9,255.3 324.2,256.2
			324.3,257.1 324.3,257.3 324.2,257.6 324.2,257.8 324.2,258 324.4,258.4 324.5,258.7 326.8,261.7 327.2,262.6 327.2,262.9
			327.2,263.1 327.1,263.2 327.1,263.4 327,263.7 327.1,263.9 327.3,264 329.2,267.1 330.3,268.3 332.8,270.1 333.1,270.5
			333.8,271.5 334.2,271.7 336.2,273.6 336.7,274.2 336.9,274.8 337.1,275.3 338.2,277.3 338.3,277.9 338.2,278.3 337.6,278.4
			337.6,278.5 338.1,279.1 338.4,279.3 339.1,279.6 339.5,279.9 340.4,280.7 341,281.5 341.5,282.4 341.8,283.2 341.8,284.1
			341.5,285 341.3,285.5 341.4,285.9 342.5,287.2 342.8,287.8 343.2,288.2 343.2,288.3 343.3,288.5 343.5,288.8 343.7,289.1
			343.7,289.6 343.5,289.9 343.4,290 343.2,290.2 343.2,290.5 343.7,290.4 343.9,290.7 343.9,291.5 344.1,291.9 344.4,292.1
			344.6,292.2 345,292.4 345.2,292.6 345.4,292.8 345.6,293.1 345.5,293.5 345.4,293.7 345.3,293.8 345.1,293.9 344.7,294
			344.5,294.1 344.4,294.2 344.5,294.2 344.7,294.3 344.9,294.6 345.1,294.9 345.1,295.3 345.2,295.5 345.4,295.3 345.6,294.8
			345.7,294.5 345.8,294.2 346.2,294.1 346.6,294.2 346.8,294.6 346.8,295.2 346.8,295.4 346.7,295.6 346.4,295.9 346.2,296.1
			346.5,296.3 346.6,296.6 346.7,296.9 346.8,297 346.9,297.1 347.4,297.6 347.6,297.5 347.9,297.4 348.1,297.5 348.2,297.8
			348.2,298.6 348.2,298.9 348.6,299.3 349,299.6 349.2,299.9 348.8,300.3 349,300.7 349.2,301.2 349.3,302.5 349.7,303.8
			350.2,304.6 352.1,306.9 352.4,307.5 352.3,307.9 352.1,308.3 352,308.8 352.1,309 352.4,309.7 352.5,310.1 352.5,310.2
			352.5,310.3 352.4,310.4 352.4,310.6 352.5,310.7 352.6,310.8 352.6,310.8 352.7,310.9 352.8,311 353,311.2 353.1,311.4
			353.1,311.7 353.3,312.1 353.8,313 353.9,313.5 353.8,313.7 353.6,313.7 353.5,313.9 353.5,314.2 353.6,314.4 353.7,314.6
			353.9,314.8 354.1,315 354.1,175.1 		"/>
		<polygon fill="#D91023" points="487,196.5 487.2,196.5 487.2,196.4 487.3,196.2 487.3,196.1 487.5,196 487.7,196 488.2,196.3
			488.4,196.3 488.8,196.3 489.1,196.1 489.3,196 489.6,196.3 489.8,196.5 490,196.6 490.2,196.6 490.4,196.5 490.9,196.1
			491.1,196 491,196.4 492,196 492.2,196 492.8,196.1 492.9,196.1 493,196 493.2,195.5 493.3,195.4 493.6,195.2 493.9,195.2
			494.6,195.2 495.5,195 495.8,195.1 496,195.2 496.1,195.5 496.3,195.6 496.6,195.5 496.7,195.4 496.9,195.1 497,195.1
			497.1,195.1 497.2,195.2 497.3,195.2 497.5,194.9 497.5,194.7 497.5,194.5 497.5,194.2 497.9,194 498.4,193.8 498.9,193.9
			499.4,194.6 499.7,194.3 500,193.8 500.3,193.6 500.5,193.7 500.7,194.2 500.9,194.3 501.2,194.4 501.4,194.3 501.7,193.8
			502.2,193.6 503.3,194.1 503.7,193.7 503.8,193.3 504.1,193.6 504.6,194 505,193.6 505.2,193.2 505.4,192.9 506.1,192.3
			506.3,191.9 506.4,191.5 506.6,191.2 506.9,191.1 507.2,191 507.3,190.8 507.1,190.3 507.1,190 507.4,189.8 508.4,189.3
			508.6,189.2 509.9,189.6 510.3,189.6 510.5,189.4 510.8,188.8 511,188.6 511.3,188.4 511.6,188.5 511.6,188.8 511.6,189.2
			511.6,189.5 512.6,190.1 512.8,189.8 512.9,189.5 513,189.1 513.3,188.9 513.7,189.1 513.7,189.4 513.8,189.7 514,189.8
			514.3,189.7 515.2,189 515.5,188.9 515.8,188.8 516.1,188.8 516.5,189 517,189.4 517.3,189.5 517.6,188.9 517.9,189 518.1,189.3
			518.3,189.6 518.4,190 518.2,190.8 518.2,191.2 518.4,191.4 519.4,192.2 519.6,192.3 519.8,192.3 520,192.3 520.1,192.5
			520.3,192.9 520.5,193.2 520.9,192.8 521.3,192 521.5,191.6 521.9,191.4 522.4,191.4 522.8,191.5 523,191.9 523.1,192.4
			523.2,192.6 523.5,192.9 523.8,193 524,193.1 524.3,193.1 525,192.6 525.4,192.1 525.6,191.5 525.6,190.9 525,189.8 524.6,189.2
			524.2,188.8 523.6,188.2 521.4,187.2 520.9,186.6 520.7,185.9 520.5,185.2 520.3,184.4 519.8,183.7 519.1,183 518.3,182.5
			517.5,182.2 516.9,182.2 516.5,182.5 515.6,183.3 515.1,183.5 514.6,183.5 513.4,183.2 513.2,183.1 510.4,181.6 509.5,181.5
			510.2,180.4 511.8,177.8 513.4,175.3 515.1,172.7 516.7,170.2 518.4,167.7 520,165.1 521.7,162.6 523.3,160 523.8,159.3
			523.8,159.3 523.7,159.2 523.4,159 523.2,158.8 523.1,158.5 522.8,157.6 522.6,157.4 522.2,157.7 522.1,157.9 522,158.1
			521.9,158.3 521.7,158.3 521.5,158.2 521.4,158 521.5,157.8 521.4,157.6 521,157.3 520.6,157.4 520.3,157.5 519.9,157.4
			519.6,157 519.4,156.1 519.1,155.8 518.6,155.5 518.2,155.7 517.8,155.9 517.3,156.1 517.2,156 517.1,155.8 517,155.6
			516.9,155.5 517,155.4 517.4,155.2 517.5,155.2 517.6,154.7 517.3,154.5 516.9,154.5 516.5,154.5 516.2,154.5 515.7,154.7
			515.5,154.8 515.3,154.6 515.1,154.5 515.1,154.3 514.9,154 514.7,153.8 514.3,153.6 513.9,153.5 513.6,153.5 513.2,153.3
			513,153 512.7,152.8 512.4,153.1 512.3,153.3 512.3,153.5 512.3,153.7 512.1,153.8 511.3,153.8 511.1,153.7 511.1,153.4
			511.1,153.1 511.1,152.9 510.9,152.7 510.3,152.1 510.2,152.1 510.2,151.5 510.1,151.3 510,151.2 509.5,151.2 509.1,151.1
			508.3,150.8 507.6,150.3 506.5,149.2 505.9,148.8 505.5,149 504.9,148.9 504.1,148.5 503.5,148.5 503.2,148.8 503.3,149.3
			503.5,149.8 503.3,149.9 503,149.9 502.8,149.9 502.2,149.6 502,149.5 501.4,149.6 500.9,149.9 500.5,150.9 499.9,151.2
			499.5,151.5 499.3,151.5 499.1,151.4 498.8,151.2 498.6,151.2 498.3,151.3 497.9,151.5 497.5,151.6 497.3,151.3 495.8,152.1
			495.1,152.2 494.9,151.8 495,151.6 495.2,151.4 495.3,151.2 495.2,151 494.7,150.4 494.4,149.7 494.1,149.6 493.8,149.9
			493.6,150.7 493.5,151 493.2,150.8 493,150.5 493,149.6 492.9,149.2 492.6,149 491.4,148.8 491,148.6 490.6,148.3 490.2,148
			489.7,147.9 489,148.3 488.6,148.3 488.4,148 488.5,147.3 488.3,147.2 487.8,147.4 486.6,148.1 486.4,148.1 486.3,148.4
			485.9,149 485.9,196.7 		"/>
		<polygon fill="#D91023" points="549.5,359.7 547.4,355.9 545.2,352 543,348.2 540.8,344.4 538.6,340.5 536.4,336.7 534.3,332.8
			533.7,331.8 533.3,331.8 530.7,332.1 530,331.9 529.2,331.4 528.8,331.3 528.3,331.2 527.4,331.3 527,331.3 526.6,331.1
			525.7,331.1 520.7,333.7 519.8,334 518.8,334.2 517.7,334.2 516.6,334.1 515.7,333.6 515.2,333.1 514.2,332 513.7,331.5
			513.2,331.6 511.4,333 511.4,331.3 511.4,328.6 511.4,325.9 511.4,323.3 511.4,320.6 511.4,317.9 511.5,315.2 511.5,312.5
			511.5,309.8 511.5,308.5 511.7,307.7 511.8,307.5 511.9,307.3 512.2,307.1 512.4,307 512.5,307 512.7,307.2 512.8,307.1
			512.9,307 513,306.8 513,306.6 513.3,306.3 513.4,305.9 513.5,305.5 513.4,305.1 513.1,304.8 512.5,304.3 512.3,304 512.1,303.6
			512,302.9 511.8,302.5 511.9,302.5 512.4,302.5 512.5,302.5 512.8,302.6 513,302.5 512.7,302 512.8,301.7 512.9,301.5
			513.2,301.5 513.2,301.4 513.1,301.2 513.1,301.2 513.5,301 513.6,300.7 513.6,300.4 513.8,300 513.9,300 513.8,299.7 513,299.8
			512.5,299.9 512.1,300.1 511.7,300.4 511,301.3 510.6,301.7 509.2,302.5 508.8,302.8 508,303.6 507.6,303.9 506.5,304.5
			506.2,304.9 505.6,305.8 505.3,306 504.8,306.3 504.6,306.5 504.4,306.8 504.1,307.3 504,307.5 503.6,307.8 502.3,308.2
			500.9,308.8 500.5,309 500.3,309.5 500.1,310 499.8,310.4 498.8,310.8 498,311.3 497.6,311.5 497.4,311.6 497.2,311.5 497,311.3
			496.8,311.2 496.5,311.3 496.4,311.4 496.3,311.6 496.1,311.7 495.7,311.8 494.9,311.8 491.2,311.8 487.5,311.8 485.9,311.8
			485.9,464.9 486.2,465.2 487,465.6 490.5,466.4 490.6,466.5 491,466.7 491.3,467 491.5,467.2 492,467.3 492.8,467.5 493.2,467.6
			493.5,467.9 493.8,468.5 493.8,468.6 494.6,469.1 495.2,469.9 495.3,470 495.5,470 495.6,470.1 495.6,470.8 495.9,471.7
			496,472.1 496.2,474.3 496.3,474.7 496.4,475.2 496.3,475.7 496,476.1 495.9,476.4 495.9,476.6 496,476.5 496.7,476.4
			497.1,476.5 497.6,476.8 498.3,477.3 499.3,477.8 499.7,478 500.3,478.7 500.6,479 501,479.3 502.1,480.3 502.5,480.4
			503.8,480.8 504.2,481 505.1,481.7 505.4,481.8 505.7,482 505.9,482.5 506.2,483.3 506.5,483.5 507.2,483.8 507.6,484
			508.8,485.1 508.9,485.2 509.1,485.2 509.2,485.2 509.3,485.4 509.4,485.6 509.5,485.7 511.1,487.2 511.7,487.6 512.3,487.9
			513,488 513.5,488.2 514.7,489.5 515.9,490.4 516.3,490.7 517.1,490.3 518.2,490.2 520.4,490.4 521.5,490.3 522,490.2
			523.5,489.3 524,489.2 524.6,489.1 525.1,489 525.4,488.7 526.4,487.5 527.3,486.8 527.6,486.3 528.1,485.7 529.4,482.8
			529.4,482.4 529.4,482 529.2,481.5 528.7,480.7 528.6,480.4 528.6,479.8 528.4,478.9 528,478.1 527.8,477.4 528,476.4
			528.6,475.7 529.5,475.7 530.5,475.8 531.4,475.7 532.4,475 535.1,472.4 535.1,472.4 535.1,470.8 535,470.1 534.8,469.4
			534.5,469 534.1,468.6 533.2,467.9 532.9,467.8 531.8,467.7 532.1,467.1 532.5,465.9 532.7,465.4 532.8,465.4 533.2,465.3
			533.3,465.3 534.4,464.3 535.1,463.8 535.6,463.6 536.2,463.5 536.8,463.3 537.2,462.8 537.3,462.4 537.2,462.3 537.1,462.2
			537,462.1 537.1,461.9 537.2,461.7 538.1,461.2 538.4,460.9 538.9,459.7 541,457.4 541.3,457 541.7,455.8 541.9,455.5
			542.3,455.3 543,455.2 543.4,455.1 544.6,454.5 545,454.2 545.3,453.8 545.6,453.4 545,452.7 544.9,452.3 545,451.6 544.9,450.4
			545,449.9 545.2,449.5 545.7,448.9 546.4,448.5 548.8,447.6 549.2,446.8 549,446.2 548.5,445.9 547.4,445.5 546.6,444.5
			546.1,444.3 545.5,444.4 544.8,444.2 544.6,444.2 544.4,444.3 544,444.6 543.7,444.7 543.2,444.7 542.7,444.6 542.3,444.3
			541.9,443.9 541.1,443 540.7,441.8 539.8,439.6 538.9,437.4 538,435.1 537.1,432.9 536.9,432.3 536.7,431.6 536.9,431
			538.3,428.9 538.4,428.5 538.5,428.1 538.6,427.7 538.8,427.3 539,427.2 539.6,427 539.8,426.9 539.8,426.7 539.5,426
			539.6,425.7 540,425.3 540.4,424.9 541.1,424.6 541.4,423.8 541.8,423.8 542.3,423.8 542.6,423.6 542.6,423.2 542.1,422.7
			541.6,421.9 541.3,421.6 540,420.7 539.7,420.3 538.5,418.5 538.1,418.2 537.7,417.7 537.6,417.4 537.7,417 538,416.2 538,416
			538,414.2 538,413.9 538.2,413.6 538.6,413.3 539.8,413 540.1,412.8 540.4,412.2 540.6,409.4 540.8,409 541.2,408.9 541.7,409
			542.2,409.1 542.3,408.8 542.2,407.8 542.3,407.5 542.4,407.4 542.8,407.3 542.9,407.2 543.8,406.2 544.2,405.9 545.5,405.2
			545.9,404.8 545.8,404.4 545.6,403.9 545.4,403.6 545.4,402.7 545.4,402.3 545.5,401.9 546,401.6 546.8,401.4 548.2,401.2
			548.6,400.8 548.5,400 548,398.6 547.8,397.8 547.7,397.5 547.5,397.2 546.4,396.5 546.1,396.1 546,395.4 546,394.6 545.9,393.9
			545.5,393.3 545.3,392.5 545.2,392.2 545.3,391.9 545.4,391.6 545.4,391.4 545.2,391.1 544,390.2 543.6,389.5 543.9,389.1
			544.2,389 544.8,389.1 545.1,389.1 545.2,388.9 545.2,388.6 545.2,388.3 545.2,388.1 545.4,387.8 545.9,387.3 546,387
			546.2,386.5 546.3,386 546.3,385.5 546.5,381.4 546.2,379.7 546.2,378.8 546.3,376.3 546,373.9 546,373 546.1,372.5 546.8,372
			547,371.5 547.3,371.1 547.7,371.1 548,370.5 548.3,370.1 548.7,369.8 550.5,369.3 550.6,369.1 551.1,368.2 550.9,367.9
			550.2,367.7 550,367.6 550.1,367.2 550.3,366.9 550.5,366.7 551.2,366.3 551.5,366 551.7,365.7 551.9,365.4 552,365 552.1,364.8
			552.3,364.7 551.7,363.6 		"/>
		<polygon fill="#D91023" points="353.6,172.5 353.4,172.8 353.4,173.2 353.6,173.6 354,173.8 354.1,174 354.1,172.1 		"/>
		<polygon fill="#FFFFFF" points="483.8,311.8 478.9,311.8 479.1,311.4 479.2,311 479.1,310.6 479.1,310.2 479.3,310 479.6,309.6
			479.6,309.3 479.6,309.1 479.4,308.7 479.4,308.4 478.9,307.6 477.4,306.7 477.2,305.9 477.4,305.1 477.5,304.7 477.4,304.3
			476.8,303.6 476.6,303.3 476.6,302.8 476.6,302.2 476.6,302 476.4,301.8 476.2,301.8 476,301.8 475.8,301.8 475.4,301.6
			474.8,301.1 474.4,300.8 474,300.8 472.7,300.8 471.8,300.7 471.4,300.6 470.5,300.2 469.7,299.9 469.3,299.9 469.2,299.9
			469,300 468.9,300 468.8,300 468.6,299.8 468.5,299.8 466,299.3 457.6,299.2 458,298.5 459.1,297.4 459.6,296.8 460,296.1
			460.2,295.7 460.4,295.6 460.7,295.5 461.1,295.5 461.4,295.3 461.5,295 461.5,294.5 462.4,293.7 462.7,293.4 462.8,293
			462.9,292.4 462.7,290.6 462.6,290.3 462,289.4 461.7,289.1 461,288.6 460.6,288.4 459,286 458.7,285.1 458.4,284.7 458.1,284.4
			457.7,284.2 456.5,283.9 456,283.7 455.6,283.3 454.7,282.2 454.6,281.8 454.6,281.4 454.8,280.5 454.8,280 454.6,279.7
			454.3,279.4 454.1,279.3 453.7,279.2 453.5,279.2 453.3,279 452.9,278.5 452.7,278.3 451.1,277.4 450.8,277.1 450.6,276.7
			450.5,275.9 450.3,275.3 449.7,274.5 449.5,274 449.4,273.6 449.5,272.9 449.5,272.5 449.3,272 448.6,271 448.5,270.6
			448.1,269.9 447.3,269.5 446.4,269.1 445.8,268.6 445.7,268.4 445.4,267.3 445.4,267 445.8,267 446.5,267.2 447.2,266.8
			447.4,266 447.2,265.1 446.6,264.7 445.8,264.4 445.1,264.1 444.5,263.7 441.8,260.9 441,260.4 440.8,260 441.8,259.6 442,259.2
			442,258.7 442.2,258.4 442.3,258 442.2,257.5 441.6,256.5 441.5,256.1 442,256.1 442.8,256.4 443.2,256.5 443.7,256.3
			444.4,255.8 444.8,255.7 445.3,255.7 446.2,255.7 446.6,255.6 446.9,255.4 447.2,255 447.1,254.6 446.9,254.2 446.7,253.3
			445.3,251.3 445.1,250.8 445.2,250.3 445.5,249.7 446,247.8 446.1,246.6 446.2,246.3 446.4,246 447.3,245.5 447.5,245.2
			447.8,244.7 448,244.5 448.6,244.1 449.7,243.3 451.3,242.3 452.8,241.1 453.6,240.6 454.3,239.9 454.8,239.8 456.3,239.8
			457.2,239.5 457.9,239.1 458.5,238.5 459,237.7 459.3,236.8 459.4,236.4 459.4,235.9 459.3,235.4 458.8,234.5 458.7,234
			458.5,232.3 458.4,232 457.4,230.8 457.2,230.3 457.2,229.4 457.5,228.6 458,227.8 459.1,225.2 459.9,224.5 462,221.6
			462.3,221.1 462.6,220.5 462.9,218.5 462.9,217.9 462.7,217.3 462.6,216.6 462.8,215.9 463.4,214.6 463.5,214.3 463.7,213.4
			463.8,213.1 464.1,212.8 464.2,212.5 464.3,212.2 464.2,210.9 464.1,210.6 463.9,210.3 463.7,209.9 463.8,209.6 464.3,209.5
			464.6,209.5 464.7,209.4 465,209.3 465.1,209.2 465.1,208.9 465.1,208.8 465.2,208.8 465.5,208.9 465.6,208.9 466.5,208.7
			466.8,208.5 467.1,208.2 467.4,208 467.7,208 468.2,208.2 469.3,208.2 469.5,208.1 469.7,207.9 469.8,207.7 469.8,207.5
			469.9,207.3 470.1,207.1 470.7,206.8 471.2,206.2 471.6,206 471.9,205.8 472.3,205.8 472.6,205.8 472.8,205.6 472.8,205.4
			472.9,205.3 473,205.2 473,205.1 473,204.9 473,204.8 473.1,204.8 473.4,204.8 473.5,204.7 474,204.5 474.3,204.3 474.5,203.9
			474.7,202.8 474.9,202.6 475.8,202.3 475.9,202.2 476,202.1 476.1,201.9 476.3,201.9 477.1,202 477.4,202 477.7,201.8
			478.1,201.6 479.2,200.8 480.3,200.2 480.7,199.9 481,199.6 481.4,198.8 481.5,198.6 481.7,198.6 481.9,198.7 482.1,198.8
			482.3,198.8 482.4,198.6 482.8,198.3 483.4,198.1 484.4,197.2 484.9,196.8 485.3,196.7 485.9,196.7 485.9,149 485.6,149.5
			484.6,150.3 484.4,150.4 484.3,150.9 484.1,151.1 483.7,151.2 482.4,151.1 481.7,151.1 481.1,151.3 480.5,151.8 479.6,152.8
			479.3,152.9 477.9,152.6 477.7,152.6 477.2,152.8 477.1,152.8 477.1,153.3 477.1,153.4 476.9,153.5 476.4,153.5 475.6,153.7
			475.1,153.8 474.7,153.7 474.3,153.5 474,153.2 473.9,153 473.8,152.8 471.6,152.5 471.2,152.4 470.3,151.6 469.9,151.4
			469.5,151.3 469.3,151.7 468.7,152.8 468.4,153.1 468.1,153.2 468,153.1 467.9,152.6 467.8,152.4 467.7,152.2 467.6,152
			467.4,152.2 467.2,152.3 467.1,152.5 467.1,152.8 466.5,152.4 466.2,152.3 465.6,152.5 465,152.7 464.8,153 464.5,153.1
			463.6,153.3 463.4,153.3 463.3,153.1 463.1,152.8 462.7,151.8 462.4,151.5 462.3,151.4 460.9,150.6 460.8,150.9 460.6,151.3
			460.3,151.6 460.2,151.1 460,151 459.1,150.7 458.8,150.5 458.7,150.3 458.6,149.7 458.5,149.6 458.2,149.4 458.2,149.3
			458.1,149.2 457.9,148.8 457.9,148.6 457.9,148.4 458,148.3 458.2,148.1 458.9,147.4 459.1,146.9 459.8,145.9 459.5,145.7
			459.3,145.2 459.2,144.8 459.1,144.4 458.7,143.8 458.5,143.6 458.5,143.2 458.5,142.9 458.7,142.4 458.8,142.2 458.6,141.9
			458.1,141.3 458,141 458.2,140.2 458,140 457.9,139.9 457.7,139.8 457.5,139.7 456.9,139 456.7,139 456.6,139.6 456.5,139.7
			455.8,139.5 455.4,139.5 455.1,139.9 455,140.1 454.7,140.1 454.2,139.6 454,139.4 453.7,139.4 453.5,139.4 453.2,139.4
			453,139.4 452.9,139.4 452.8,139.3 452.8,139 452.7,139 451.4,138.1 451,137.6 451,136.8 451.3,136.1 451.4,135.8 451.9,135.5
			452,135.1 451.7,134.3 451.7,134 451.7,133.8 451.7,133.6 451.5,133.3 451.1,133 450.8,132.6 450.1,132.3 449.9,132 450.2,131.6
			450.3,131.4 450,131.2 449.9,131.1 449.8,130.9 449.7,130.8 449.7,130.3 449.7,130.1 449.6,130 449.5,130 449.2,130 449.1,130
			449.1,129.9 449.1,129.7 448.9,129.3 448.9,129.1 448.8,128.9 448.3,128.8 447.9,128.5 447.6,128.4 447.2,128.3 446.8,128.1
			446.5,127.8 446.3,127.4 446,127.6 445.6,128.1 445.3,128.3 445,128.3 444.7,128.2 444.1,128 443.9,127.8 443.6,127.6 443.3,127
			443,126.2 442.8,126 442.5,125.9 441.8,126 441.6,125.9 441.5,125.7 441.7,125.3 441.7,125.2 441.5,125 441.4,125.1 441.3,125.2
			441.3,125.3 441,125.4 440.9,125.5 440.8,125.5 440.5,125.4 440.4,125.3 440.3,125.1 439.8,123.7 439.6,123.4 439.2,124
			438.7,124.1 437.4,123.6 436.1,123.3 435.6,123 435.1,122.4 434.8,121.5 434.6,121.2 434.1,120.9 434,120.7 434.1,120.4
			434.4,120.4 434.7,120.5 435,120.5 435.1,120.2 435,120 434.8,119.7 434.7,119.5 434.8,119.2 434.7,119.1 434.3,119.1 434.1,119
			434,118.9 433.2,118.2 433.1,117.8 433.1,117.5 433.2,117.3 433.5,117 433.5,116.9 432.5,114.7 432.5,114.6 432.5,114.3
			432.4,114.1 432.3,114 432,114 431.9,114 431.7,113.7 431.5,113.4 431.2,113.2 429.9,112.4 429.4,112 428.5,111.1 427.9,110.1
			427.7,109.9 427.5,109.9 427.3,110 427.2,110.2 427.1,110.2 426.8,110.2 426.7,110.1 426.6,110 426.5,109.9 426.4,109.8
			426.3,109.7 426.1,109.6 425.6,109.6 425.2,109.5 425,109.5 424.6,109.3 424.8,109.1 425.4,108.6 424.6,107.2 424.4,106.8
			423.9,106.4 423.7,106.4 423.1,107.3 422.9,107.5 422.7,107.5 422.3,107.4 421.6,107.2 421.2,107 420.9,106.8 420.1,105.9
			419.9,105.8 419.7,105.7 419.4,105.7 419.2,105.6 418.9,105.4 418.1,104.3 417.7,104 417.3,103.7 416.3,103.5 415.9,103.5
			415.6,103.5 415.4,103.7 415.3,104.1 415.2,104.4 415,104.7 414.6,105 414.3,105.1 414.1,105.4 413.6,105.7 413.3,105.9
			413,105.9 412.7,106 412,105.9 411.8,105.9 411.3,106.3 410.7,106.2 409.2,105.4 409,105.3 408.7,105.3 408.3,105.4 408,105.3
			407.6,105.2 407.2,105.1 406.9,105.2 406.8,105.5 406.9,106 407.1,106.4 407.3,106.6 407.5,106.6 407.9,106.6 408.1,106.6
			408.4,106.8 408.8,107.2 409.1,107.3 409.5,107.5 409.9,107.7 410.1,108 410.8,110.3 411.2,111.2 411.8,112 412.1,112.4
			412.4,112.5 412.6,112.6 412.9,112.6 413,112.6 413.1,112.8 413.9,113.4 414,113.5 414.1,113.7 414.2,113.8 414.3,113.8
			414.5,113.7 414.6,113.8 414.8,114.1 414.9,114.5 414.8,115.3 414.8,115.5 414.9,115.7 414.9,115.8 414.9,116 414.7,116.2
			414.4,116.3 414.2,116.5 414.1,116.7 414.1,116.9 414.2,117.3 414.2,117.5 414.2,117.7 414,118.1 414,118.4 415,121.5 415,121.7
			414.9,122.1 415,122.2 415.1,122.5 415.3,122.6 415.5,122.9 415.5,123 415.3,123 414.3,123 413.4,123.1 412.9,123.1 412.7,122.9
			412.6,122.7 412.3,122.4 411.8,121.9 411.6,122 411.4,123.1 410.7,125.5 410.1,128 409.5,130.4 408.8,132.9 408.5,134.1
			408.3,134.8 407.8,135.4 406.6,136.4 405.8,137.4 404.7,138.6 403.7,139.8 402.6,141 401.6,142.2 400.6,143.5 399.5,144.7
			398.5,145.9 397.4,147.1 396.2,148 394.9,149 393.7,149.9 392.4,150.9 391.2,151.8 389.9,152.8 388.7,153.7 387.4,154.7
			386.3,155.6 385,156.3 383.1,157 380.5,157.9 377.8,158.8 375.2,159.7 372.6,160.7 369.9,161.6 367.3,162.5 364.7,163.4
			362,164.3 360.7,164.8 360.3,165 358.7,166.3 356.6,169.2 355.6,170 355.3,170.3 354.7,171.5 354.4,171.9 354.1,172.1 354.1,174
			354.2,174.1 354.3,174.7 354.1,175.1 354.1,315 354.5,315.4 354.8,315.8 355.3,316.8 355.4,317 355.8,317.5 355.9,317.7
			356,318.2 356.1,318.4 356.9,319.2 357.1,319.5 357.2,319.7 357.2,320.2 357.3,320.4 357.8,321.1 357.8,321.3 357.9,321.8
			358.2,322.1 358.7,322.6 360.4,325.6 360.7,325.9 361.1,326.3 361.3,326.5 361.4,326.7 361.6,327.2 361.7,327.3 361.9,327.2
			362.1,327.5 362.4,328.7 363.1,329.3 363.3,329.6 363.3,330 363.9,330.8 364.1,331.3 364,331.7 364.4,332.1 364.5,332.2
			364.4,332.5 364.2,332.9 364.2,333.1 364.3,333.3 364.6,333.5 364.9,333.8 364.7,334.2 365,334.4 365.1,335.3 365.4,336
			365.6,336.5 365.7,337 365.6,337.4 365.2,337.5 364.9,337.5 364.6,337.6 364.5,338 364.5,338.4 364.7,338.7 365.2,339.2
			365.7,339.6 368.9,341.4 369.6,341.9 370.5,342.3 370.9,342.6 371.2,342.9 371.3,343.1 371.5,343.2 371.7,343.3 371.9,343.5
			372.2,344 372.5,344.5 372.6,344.6 372.6,344.8 372.5,345 372.5,345.2 372.9,345.6 373.1,345.8 373.4,345.9 373.7,346.1
			374,346.5 374.3,347 374.3,347.5 374.7,348.4 374.7,348.8 374.2,349 374.4,349.4 374.5,350.3 374.6,350.7 374.9,351.3 375,351.5
			375.2,352.1 375.4,352.6 375.5,354 375.4,354.5 375.2,354.8 374.9,355.1 374.8,355.5 375.6,355.6 376.6,355.9 377.3,356.4
			377.6,357.3 377.6,357.5 377.5,357.7 377.5,357.9 377.5,358.2 377.6,358.4 378,358.7 378.1,358.8 378.3,358.8 379.5,359.3
			381,360.4 382.1,361.5 382.4,362.1 382.7,362.9 382.8,363.7 382.4,364.3 382.6,364.6 383,364.9 383.3,365.1 383.5,365.2
			383.6,365.5 384.4,366.6 384.9,367 385.1,367.2 385.1,367.4 385.1,368 385.3,368.2 386.2,370 386.6,370.5 388,371.7 388.2,372
			388.3,372.3 388.4,373.3 388.8,375.1 389.1,375.8 389.1,376.3 389.3,376.7 391.6,379 392.8,380.8 393.1,381.1 393.3,381.2
			393.6,381.4 394.5,382.7 395.3,384.4 395.4,385.2 395.6,386.8 395.2,388.6 395,389.3 394.7,390 394.6,390.5 394.5,391
			394.4,391.5 394,392.4 393.8,393.3 393.7,393.5 393.5,393.4 393.2,393.2 393.1,393 393,392.7 393.1,392.4 393.1,392.3
			392.9,392.2 392.5,392.2 392.3,392.2 392.3,392.3 391.8,392.5 391.5,392.7 391.3,393.5 391.2,393.9 391.1,394.1 391.3,394.5
			391.6,394.7 391.9,394.7 392.2,394.7 392.5,394.7 392.7,394.6 392.8,394.5 392.9,394.4 393.1,394.4 393.2,394.5 393.2,394.7
			393.1,394.9 393.1,395 393.4,396.5 393.4,396.5 393.4,397.1 393.5,397.2 393.5,397.4 393.5,397.5 393.4,397.7 393.5,397.9
			393.4,398.2 393.2,398.4 393,398.5 393,398.7 393.3,400.3 393.6,400.5 393.8,400.3 393.7,399.8 394.8,400.1 395.1,400.3
			395.3,400.6 395.4,400.9 395.6,401.2 395.9,401.3 396.2,401.5 396.5,401.9 396.6,402.3 396.7,402.9 396.9,403.1 396.9,403.2
			396.8,403.4 396.7,403.5 396.1,403.7 396.6,404.4 396.7,404.5 396.9,404.6 397.4,404.7 397.6,404.8 397.9,405.1 398.3,405.6
			398.6,405.9 399.3,406.3 399.6,406.6 399.7,407.1 399.5,407.5 399.4,407.8 399.5,407.9 399.6,408 399.8,408.1 400.3,408.6
			400.4,408.9 400.5,409.3 400.6,410.2 400.8,410.6 401.1,410.9 402,411.4 402.1,411.5 402.3,411.6 402.4,411.8 402.6,412.1
			402.7,412.3 402.9,412.3 403.1,412.4 403.3,412.5 403.5,412.6 403.6,412.7 403.6,412.9 403.8,413.1 404.3,413.2 405.5,414
			405.9,414.3 406.2,414.6 407,414.8 408.7,415.7 409.7,416.4 409.7,416.5 409.7,417.2 409.7,417.4 410,417.6 410.7,418.1
			410.9,418.3 411,418.7 412,420.2 412.2,420.7 412.4,421 412.7,421.3 413.8,421.4 414.2,421.6 415.2,422.6 415.4,422.8 415.5,423
			415.5,423.2 415.4,423.4 415.2,423.6 414.8,423.5 415.3,424.1 416.2,424.5 416.8,424.9 416.6,425.5 416.5,425.6 416.2,425.7
			416.1,425.8 416,425.9 416.2,426 416.7,426.2 416.8,426.3 416.9,426.6 417.2,426.8 417.6,426.8 418,426.9 418.3,427.1
			418.9,427.8 419.2,428.1 419.4,428.1 419.5,428 419.8,428 420.1,428.1 420.7,428.5 424.2,430.5 425.6,431 425.9,431.3 426.9,432
			430.8,433.5 431,433.6 431.1,433.8 431.3,434.3 431.4,434.3 431.6,434.4 431.7,434.6 431.8,434.8 431.8,435.2 431.9,435.3
			433.3,436.1 433.6,436.3 434,436.5 435,436.4 435.5,436.6 435.9,436.9 436.2,437.1 436.6,437.4 437.5,437.5 437.8,437.6
			439.8,438.5 440.2,438.9 440.3,439 440.3,439.3 440.3,439.8 440.3,439.9 440.5,440 440.8,440.1 442.5,441.3 443.9,442.5
			444.5,442.9 446.1,443.5 446.7,443.8 446.9,444 447.1,444.2 447.2,444.4 447.3,444.7 448.5,444.4 449.7,444.8 452,445.7
			453.3,446.1 454.5,446.6 455.1,446.8 455.3,446.9 455.4,447.1 455.7,448 455.9,448.3 456.2,448.1 456.5,448.2 456.9,448.4
			457.2,448.5 458.1,448.5 458.4,448.7 459.2,449.2 460.1,449.7 460.5,450 464.4,451.7 466.7,453.3 467.5,453.6 470.7,454
			471.9,454.5 472.8,454.7 473,454.8 473.5,455.1 473.6,455.1 473.8,455.2 473.9,455.3 474.2,455.6 474.3,455.8 474.5,455.8
			474.7,455.8 474.9,455.9 475.4,456.2 476.6,457.6 476.8,458 476.8,458.4 476.9,458.8 477.4,459.1 478.4,459.3 478.9,459.6
			479.1,459.9 479.3,460.1 480.1,460.6 480.4,460.9 480.5,461.1 480.4,461.6 480.5,461.8 480.7,461.9 482,462 482.5,462.1
			482.9,462.3 484.1,463 484.6,463.5 485.6,464.6 485.9,464.9 485.9,311.8 		"/>
	</g>
	<polygon fill="none" stroke="#878787" stroke-width="0.25" stroke-linecap="round" stroke-linejoin="round" points="551.7,363.6
		549.5,359.7 547.4,355.9 545.2,352 543,348.2 540.8,344.4 538.6,340.5 536.4,336.7 534.3,332.8 533.7,331.8 533.3,331.8
		530.7,332.1 530,331.9 529.2,331.4 528.8,331.3 528.3,331.2 527.4,331.3 527,331.3 526.6,331.1 525.7,331.1 520.7,333.7 519.8,334
		518.8,334.2 517.7,334.2 516.6,334.1 515.7,333.6 515.2,333.1 514.2,332 513.7,331.5 513.2,331.6 511.4,333 511.4,331.3
		511.4,328.6 511.4,325.9 511.4,323.3 511.4,320.6 511.4,317.9 511.5,315.2 511.5,312.5 511.5,309.8 511.5,308.5 511.7,307.7
		511.8,307.5 511.9,307.3 512.2,307.1 512.4,307 512.5,307 512.7,307.2 512.8,307.1 512.9,307 513,306.8 513,306.6 513.3,306.3
		513.4,305.9 513.5,305.5 513.4,305.1 513.1,304.8 512.5,304.3 512.3,304 512.1,303.6 512,302.9 511.8,302.5 511.9,302.5
		512.4,302.5 512.5,302.5 512.8,302.6 513,302.5 512.7,302 512.8,301.7 512.9,301.5 513.2,301.5 513.2,301.4 513.1,301.2
		513.1,301.2 513.5,301 513.6,300.7 513.6,300.4 513.8,300 513.9,300 513.8,299.7 513,299.8 512.5,299.9 512.1,300.1 511.7,300.4
		511,301.3 510.6,301.7 509.2,302.5 508.8,302.8 508,303.6 507.6,303.9 506.5,304.5 506.2,304.9 505.6,305.8 505.3,306 504.8,306.3
		504.6,306.5 504.4,306.8 504.1,307.3 504,307.5 503.6,307.8 502.3,308.2 500.9,308.8 500.5,309 500.3,309.5 500.1,310 499.8,310.4
		498.8,310.8 498,311.3 497.6,311.5 497.4,311.6 497.2,311.5 497,311.3 496.8,311.2 496.5,311.3 496.4,311.4 496.3,311.6
		496.1,311.7 495.7,311.8 494.9,311.8 491.2,311.8 487.5,311.8 483.8,311.8 478.9,311.8 479.1,311.4 479.2,311 479.1,310.6
		479.1,310.2 479.3,310 479.6,309.6 479.6,309.3 479.6,309.1 479.4,308.7 479.4,308.4 478.9,307.6 477.4,306.7 477.2,305.9
		477.4,305.1 477.5,304.7 477.4,304.3 476.8,303.6 476.6,303.3 476.6,302.8 476.6,302.2 476.6,302 476.4,301.8 476.2,301.8
		476,301.8 475.8,301.8 475.4,301.6 474.8,301.1 474.4,300.8 474,300.8 472.7,300.8 471.8,300.7 471.4,300.6 470.5,300.2
		469.7,299.9 469.3,299.9 469.2,299.9 469,300 468.9,300 468.8,300 468.6,299.8 468.5,299.8 466,299.3 457.6,299.2 458,298.5
		459.1,297.4 459.6,296.8 460,296.1 460.2,295.7 460.4,295.6 460.7,295.5 461.1,295.5 461.4,295.3 461.5,295 461.5,294.5
		462.4,293.7 462.7,293.4 462.8,293 462.9,292.4 462.7,290.6 462.6,290.3 462,289.4 461.7,289.1 461,288.6 460.6,288.4 459,286
		458.7,285.1 458.4,284.7 458.1,284.4 457.7,284.2 456.5,283.9 456,283.7 455.6,283.3 454.7,282.2 454.6,281.8 454.6,281.4
		454.8,280.5 454.8,280 454.6,279.7 454.3,279.4 454.1,279.3 453.7,279.2 453.5,279.2 453.3,279 452.9,278.5 452.7,278.3
		451.1,277.4 450.8,277.1 450.6,276.7 450.5,275.9 450.3,275.3 449.7,274.5 449.5,274 449.4,273.6 449.5,272.9 449.5,272.5
		449.3,272 448.6,271 448.5,270.6 448.1,269.9 447.3,269.5 446.4,269.1 445.8,268.6 445.7,268.4 445.4,267.3 445.4,267 445.8,267
		446.5,267.2 447.2,266.8 447.4,266 447.2,265.1 446.6,264.7 445.8,264.4 445.1,264.1 444.5,263.7 441.8,260.9 441,260.4 440.8,260
		441.8,259.6 442,259.2 442,258.7 442.2,258.4 442.3,258 442.2,257.5 441.6,256.5 441.5,256.1 442,256.1 442.8,256.4 443.2,256.5
		443.7,256.3 444.4,255.8 444.8,255.7 445.3,255.7 446.2,255.7 446.6,255.6 446.9,255.4 447.2,255 447.1,254.6 446.9,254.2
		446.7,253.3 445.3,251.3 445.1,250.8 445.2,250.3 445.5,249.7 446,247.8 446.1,246.6 446.2,246.3 446.4,246 447.3,245.5
		447.5,245.2 447.8,244.7 448,244.5 448.6,244.1 449.7,243.3 451.3,242.3 452.8,241.1 453.6,240.6 454.3,239.9 454.8,239.8
		456.3,239.8 457.2,239.5 457.9,239.1 458.5,238.5 459,237.7 459.3,236.8 459.4,236.4 459.4,235.9 459.3,235.4 458.8,234.5
		458.7,234 458.5,232.3 458.4,232 457.4,230.8 457.2,230.3 457.2,229.4 457.5,228.6 458,227.8 459.1,225.2 459.9,224.5 462,221.6
		462.3,221.1 462.6,220.5 462.9,218.5 462.9,217.9 462.7,217.3 462.6,216.6 462.8,215.9 463.4,214.6 463.5,214.3 463.7,213.4
		463.8,213.1 464.1,212.8 464.2,212.5 464.3,212.2 464.2,210.9 464.1,210.6 463.9,210.3 463.7,209.9 463.8,209.6 464.3,209.5
		464.6,209.5 464.7,209.4 465,209.3 465.1,209.2 465.1,208.9 465.1,208.8 465.2,208.8 465.5,208.9 465.6,208.9 466.5,208.7
		466.8,208.5 467.1,208.2 467.4,208 467.7,208 468.2,208.2 469.3,208.2 469.5,208.1 469.7,207.9 469.8,207.7 469.8,207.5
		469.9,207.3 470.1,207.1 470.7,206.8 471.2,206.2 471.6,206 471.9,205.8 472.3,205.8 472.6,205.8 472.8,205.6 472.8,205.4
		472.9,205.3 473,205.2 473,205.1 473,204.9 473,204.8 473.1,204.8 473.4,204.8 473.5,204.7 474,204.5 474.3,204.3 474.5,203.9
		474.7,202.8 474.9,202.6 475.8,202.3 475.9,202.2 476,202.1 476.1,201.9 476.3,201.9 477.1,202 477.4,202 477.7,201.8 478.1,201.6
		479.2,200.8 480.3,200.2 480.7,199.9 481,199.6 481.4,198.8 481.5,198.6 481.7,198.6 481.9,198.7 482.1,198.8 482.3,198.8
		482.4,198.6 482.8,198.3 483.4,198.1 484.4,197.2 484.9,196.8 485.3,196.7 487,196.5 487.2,196.5 487.2,196.4 487.3,196.2
		487.3,196.1 487.5,196 487.7,196 488.2,196.3 488.4,196.3 488.8,196.3 489.1,196.1 489.3,196 489.6,196.3 489.8,196.5 490,196.6
		490.2,196.6 490.4,196.5 490.9,196.1 491.1,196 491,196.4 492,196 492.2,196 492.8,196.1 492.9,196.1 493,196 493.2,195.5
		493.3,195.4 493.6,195.2 493.9,195.2 494.6,195.2 495.5,195 495.8,195.1 496,195.2 496.1,195.5 496.3,195.6 496.6,195.5
		496.7,195.4 496.9,195.1 497,195.1 497.1,195.1 497.2,195.2 497.3,195.2 497.5,194.9 497.5,194.7 497.5,194.5 497.5,194.2
		497.9,194 498.4,193.8 498.9,193.9 499.4,194.6 499.7,194.3 500,193.8 500.3,193.6 500.5,193.7 500.7,194.2 500.9,194.3
		501.2,194.4 501.4,194.3 501.7,193.8 502.2,193.6 503.3,194.1 503.7,193.7 503.8,193.3 504.1,193.6 504.6,194 505,193.6
		505.2,193.2 505.4,192.9 506.1,192.3 506.3,191.9 506.4,191.5 506.6,191.2 506.9,191.1 507.2,191 507.3,190.8 507.1,190.3
		507.1,190 507.4,189.8 508.4,189.3 508.6,189.2 509.9,189.6 510.3,189.6 510.5,189.4 510.8,188.8 511,188.6 511.3,188.4
		511.6,188.5 511.6,188.8 511.6,189.2 511.6,189.5 512.6,190.1 512.8,189.8 512.9,189.5 513,189.1 513.3,188.9 513.7,189.1
		513.7,189.4 513.8,189.7 514,189.8 514.3,189.7 515.2,189 515.5,188.9 515.8,188.8 516.1,188.8 516.5,189 517,189.4 517.3,189.5
		517.6,188.9 517.9,189 518.1,189.3 518.3,189.6 518.4,190 518.2,190.8 518.2,191.2 518.4,191.4 519.4,192.2 519.6,192.3
		519.8,192.3 520,192.3 520.1,192.5 520.3,192.9 520.5,193.2 520.9,192.8 521.3,192 521.5,191.6 521.9,191.4 522.4,191.4
		522.8,191.5 523,191.9 523.1,192.4 523.2,192.6 523.5,192.9 523.8,193 524,193.1 524.3,193.1 525,192.6 525.4,192.1 525.6,191.5
		525.6,190.9 525,189.8 524.6,189.2 524.2,188.8 523.6,188.2 521.4,187.2 520.9,186.6 520.7,185.9 520.5,185.2 520.3,184.4
		519.8,183.7 519.1,183 518.3,182.5 517.5,182.2 516.9,182.2 516.5,182.5 515.6,183.3 515.1,183.5 514.6,183.5 513.4,183.2
		513.2,183.1 510.4,181.6 509.5,181.5 510.2,180.4 511.8,177.8 513.4,175.3 515.1,172.7 516.7,170.2 518.4,167.7 520,165.1
		521.7,162.6 523.3,160 523.8,159.3 523.8,159.3 523.7,159.2 523.4,159 523.2,158.8 523.1,158.5 522.8,157.6 522.6,157.4
		522.2,157.7 522.1,157.9 522,158.1 521.9,158.3 521.7,158.3 521.5,158.2 521.4,158 521.5,157.8 521.4,157.6 521,157.3 520.6,157.4
		520.3,157.5 519.9,157.4 519.6,157 519.4,156.1 519.1,155.8 518.6,155.5 518.2,155.7 517.8,155.9 517.3,156.1 517.2,156
		517.1,155.8 517,155.6 516.9,155.5 517,155.4 517.4,155.2 517.5,155.2 517.6,154.7 517.3,154.5 516.9,154.5 516.5,154.5
		516.2,154.5 515.7,154.7 515.5,154.8 515.3,154.6 515.1,154.5 515.1,154.3 514.9,154 514.7,153.8 514.3,153.6 513.9,153.5
		513.6,153.5 513.2,153.3 513,153 512.7,152.8 512.4,153.1 512.3,153.3 512.3,153.5 512.3,153.7 512.1,153.8 511.3,153.8
		511.1,153.7 511.1,153.4 511.1,153.1 511.1,152.9 510.9,152.7 510.3,152.1 510.2,152.1 510.2,151.5 510.1,151.3 510,151.2
		509.5,151.2 509.1,151.1 508.3,150.8 507.6,150.3 506.5,149.2 505.9,148.8 505.5,149 504.9,148.9 504.1,148.5 503.5,148.5
		503.2,148.8 503.3,149.3 503.5,149.8 503.3,149.9 503,149.9 502.8,149.9 502.2,149.6 502,149.5 501.4,149.6 500.9,149.9
		500.5,150.9 499.9,151.2 499.5,151.5 499.3,151.5 499.1,151.4 498.8,151.2 498.6,151.2 498.3,151.3 497.9,151.5 497.5,151.6
		497.3,151.3 495.8,152.1 495.1,152.2 494.9,151.8 495,151.6 495.2,151.4 495.3,151.2 495.2,151 494.7,150.4 494.4,149.7
		494.1,149.6 493.8,149.9 493.6,150.7 493.5,151 493.2,150.8 493,150.5 493,149.6 492.9,149.2 492.6,149 491.4,148.8 491,148.6
		490.6,148.3 490.2,148 489.7,147.9 489,148.3 488.6,148.3 488.4,148 488.5,147.3 488.3,147.2 487.8,147.4 486.6,148.1 486.4,148.1
		486.3,148.4 485.6,149.5 484.6,150.3 484.4,150.4 484.3,150.9 484.1,151.1 483.7,151.2 482.4,151.1 481.7,151.1 481.1,151.3
		480.5,151.8 479.6,152.8 479.3,152.9 477.9,152.6 477.7,152.6 477.2,152.8 477.1,152.8 477.1,153.3 477.1,153.4 476.9,153.5
		476.4,153.5 475.6,153.7 475.1,153.8 474.7,153.7 474.3,153.5 474,153.2 473.9,153 473.8,152.8 471.6,152.5 471.2,152.4
		470.3,151.6 469.9,151.4 469.5,151.3 469.3,151.7 468.7,152.8 468.4,153.1 468.1,153.2 468,153.1 467.9,152.6 467.8,152.4
		467.7,152.2 467.6,152 467.4,152.2 467.2,152.3 467.1,152.5 467.1,152.8 466.5,152.4 466.2,152.3 465.6,152.5 465,152.7 464.8,153
		464.5,153.1 463.6,153.3 463.4,153.3 463.3,153.1 463.1,152.8 462.7,151.8 462.4,151.5 462.3,151.4 460.9,150.6 460.8,150.9
		460.6,151.3 460.3,151.6 460.2,151.1 460,151 459.1,150.7 458.8,150.5 458.7,150.3 458.6,149.7 458.5,149.6 458.2,149.4
		458.2,149.3 458.1,149.2 457.9,148.8 457.9,148.6 457.9,148.4 458,148.3 458.2,148.1 458.9,147.4 459.1,146.9 459.8,145.9
		459.5,145.7 459.3,145.2 459.2,144.8 459.1,144.4 458.7,143.8 458.5,143.6 458.5,143.2 458.5,142.9 458.7,142.4 458.8,142.2
		458.6,141.9 458.1,141.3 458,141 458.2,140.2 458,140 457.9,139.9 457.7,139.8 457.5,139.7 456.9,139 456.7,139 456.6,139.6
		456.5,139.7 455.8,139.5 455.4,139.5 455.1,139.9 455,140.1 454.7,140.1 454.2,139.6 454,139.4 453.7,139.4 453.5,139.4
		453.2,139.4 453,139.4 452.9,139.4 452.8,139.3 452.8,139 452.7,139 451.4,138.1 451,137.6 451,136.8 451.3,136.1 451.4,135.8
		451.9,135.5 452,135.1 451.7,134.3 451.7,134 451.7,133.8 451.7,133.6 451.5,133.3 451.1,133 450.8,132.6 450.1,132.3 449.9,132
		450.2,131.6 450.3,131.4 450,131.2 449.9,131.1 449.8,130.9 449.7,130.8 449.7,130.3 449.7,130.1 449.6,130 449.5,130 449.2,130
		449.1,130 449.1,129.9 449.1,129.7 448.9,129.3 448.9,129.1 448.8,128.9 448.3,128.8 447.9,128.5 447.6,128.4 447.2,128.3
		446.8,128.1 446.5,127.8 446.3,127.4 446,127.6 445.6,128.1 445.3,128.3 445,128.3 444.7,128.2 444.1,128 443.9,127.8 443.6,127.6
		443.3,127 443,126.2 442.8,126 442.5,125.9 441.8,126 441.6,125.9 441.5,125.7 441.7,125.3 441.7,125.2 441.5,125 441.4,125.1
		441.3,125.2 441.3,125.3 441,125.4 440.9,125.5 440.8,125.5 440.5,125.4 440.4,125.3 440.3,125.1 439.8,123.7 439.6,123.4
		439.2,124 438.7,124.1 437.4,123.6 436.1,123.3 435.6,123 435.1,122.4 434.8,121.5 434.6,121.2 434.1,120.9 434,120.7 434.1,120.4
		434.4,120.4 434.7,120.5 435,120.5 435.1,120.2 435,120 434.8,119.7 434.7,119.5 434.8,119.2 434.7,119.1 434.3,119.1 434.1,119
		434,118.9 433.2,118.2 433.1,117.8 433.1,117.5 433.2,117.3 433.5,117 433.5,116.9 432.5,114.7 432.5,114.6 432.5,114.3
		432.4,114.1 432.3,114 432,114 431.9,114 431.7,113.7 431.5,113.4 431.2,113.2 429.9,112.4 429.4,112 428.5,111.1 427.9,110.1
		427.7,109.9 427.5,109.9 427.3,110 427.2,110.2 427.1,110.2 426.8,110.2 426.7,110.1 426.6,110 426.5,109.9 426.4,109.8
		426.3,109.7 426.1,109.6 425.6,109.6 425.2,109.5 425,109.5 424.6,109.3 424.8,109.1 425.4,108.6 424.6,107.2 424.4,106.8
		423.9,106.4 423.7,106.4 423.1,107.3 422.9,107.5 422.7,107.5 422.3,107.4 421.6,107.2 421.2,107 420.9,106.8 420.1,105.9
		419.9,105.8 419.7,105.7 419.4,105.7 419.2,105.6 418.9,105.4 418.1,104.3 417.7,104 417.3,103.7 416.3,103.5 415.9,103.5
		415.6,103.5 415.4,103.7 415.3,104.1 415.2,104.4 415,104.7 414.6,105 414.3,105.1 414.1,105.4 413.6,105.7 413.3,105.9 413,105.9
		412.7,106 412,105.9 411.8,105.9 411.3,106.3 410.7,106.2 409.2,105.4 409,105.3 408.7,105.3 408.3,105.4 408,105.3 407.6,105.2
		407.2,105.1 406.9,105.2 406.8,105.5 406.9,106 407.1,106.4 407.3,106.6 407.5,106.6 407.9,106.6 408.1,106.6 408.4,106.8
		408.8,107.2 409.1,107.3 409.5,107.5 409.9,107.7 410.1,108 410.8,110.3 411.2,111.2 411.8,112 412.1,112.4 412.4,112.5
		412.6,112.6 412.9,112.6 413,112.6 413.1,112.8 413.9,113.4 414,113.5 414.1,113.7 414.2,113.8 414.3,113.8 414.5,113.7
		414.6,113.8 414.8,114.1 414.9,114.5 414.8,115.3 414.8,115.5 414.9,115.7 414.9,115.8 414.9,116 414.7,116.2 414.4,116.3
		414.2,116.5 414.1,116.7 414.1,116.9 414.2,117.3 414.2,117.5 414.2,117.7 414,118.1 414,118.4 415,121.5 415,121.7 414.9,122.1
		415,122.2 415.1,122.5 415.3,122.6 415.5,122.9 415.5,123 415.3,123 414.3,123 413.4,123.1 412.9,123.1 412.7,122.9 412.6,122.7
		412.3,122.4 411.8,121.9 411.6,122 411.4,123.1 410.7,125.5 410.1,128 409.5,130.4 408.8,132.9 408.5,134.1 408.3,134.8
		407.8,135.4 406.6,136.4 405.8,137.4 404.7,138.6 403.7,139.8 402.6,141 401.6,142.2 400.6,143.5 399.5,144.7 398.5,145.9
		397.4,147.1 396.2,148 394.9,149 393.7,149.9 392.4,150.9 391.2,151.8 389.9,152.8 388.7,153.7 387.4,154.7 386.3,155.6 385,156.3
		383.1,157 380.5,157.9 377.8,158.8 375.2,159.7 372.6,160.7 369.9,161.6 367.3,162.5 364.7,163.4 362,164.3 360.7,164.8 360.3,165
		358.7,166.3 356.6,169.2 355.6,170 355.3,170.3 354.7,171.5 354.4,171.9 353.6,172.5 353.4,172.8 353.4,173.2 353.6,173.6
		354,173.8 354.2,174.1 354.3,174.7 354.1,175.1 353.8,175.3 353.4,175.4 353.1,175.6 352.8,175.7 352.6,175.4 352.3,174
		352.1,173.7 351.9,173.5 351,173.3 350.5,173.2 350.2,173.3 349.9,173.7 350,173.8 350.1,174.2 350.1,174.5 349.9,175.4
		349.6,176.3 349.2,177.1 349.1,177.6 349,178 349.1,178.7 349.1,179.2 349.1,179.4 349,179.5 348.7,179.5 348.6,179.5 348.6,179.7
		348.6,179.9 348.8,181.3 348.7,181.7 348.2,182.2 348,182.3 347.8,182.4 347.7,182.5 347.5,182.9 347.3,183.3 347.1,184.8
		347.1,185 347,185 346.7,185.2 346.4,185.3 346.2,185.3 346,185.4 345.7,185.6 345.6,185.9 345.7,187.2 345.4,188.1 344.2,190.8
		344,191.7 343.8,192.1 343.4,192.4 343.2,192.8 343.3,193.6 343.4,194.4 343.7,194.8 344.2,195.1 344.1,195.4 343.8,195.8
		343.5,196.3 343.4,196.7 343.5,197.1 343.4,197.5 343.2,197.8 342.4,198.4 340.5,199.1 339.7,199.6 338.7,200.5 338.3,201
		338.1,201.6 338.1,202.2 338.6,203.1 338.7,203.6 338.5,204 338,204.1 337.4,204.1 337,204.2 336.8,204.6 336.5,205.6 336.4,206
		335.9,206.6 335.2,207.1 334.9,206.7 334.6,206.6 334.4,206.4 334.2,206.4 333.9,206.5 333.6,206.5 333.3,206.4 332.6,206.2
		332.2,206.1 330.7,206.2 330.2,206 330,205.7 329.7,205.3 329.5,204.9 329.3,204.7 328.9,204.6 328.7,204.5 328.6,204.3
		328.4,203.9 328.3,203.7 328,203.4 327.5,203.2 327.2,202.9 327,202.5 326.9,202 326.4,201 326.2,199.8 325.6,198.9 325.6,198.4
		326,197.6 326.1,197.3 326,197.1 325.6,196.8 325,196.8 324.9,196.8 324.6,196.6 324.5,196.5 323.4,195.4 322.8,195.2 322.1,195.3
		321.3,195.7 319.9,196.1 319.2,196 318.6,195.5 318.2,194.8 317.7,194.3 317.1,194.2 316.6,194.2 316,194.1 315.5,193.8
		315.1,193.5 314.4,192.8 314,192.4 313.6,192.3 313.2,192.2 312.9,192.1 312.7,191.9 312.7,191.9 311.8,192 311.6,192.1
		311.4,192.2 311.2,192.4 311,192.7 310.8,193.4 310.7,193.7 310.3,194.1 308.7,195.3 307.9,195.8 307.7,195.9 307.5,196 307.1,196
		306.8,195.8 305.8,195.3 305.6,195.1 305.4,194.6 305.5,194.3 308.2,190.6 308.5,190.2 307.5,190.3 306.6,190.5 305.8,190.5
		305.4,189.5 305.4,189.3 305.5,188.9 305.5,188.8 305.4,188.5 305,188 304.9,187.8 305,187.4 305.1,186.8 305.4,186.3 305.6,186
		305.9,185.8 306.3,185.7 306.7,185.6 307.2,185.7 307.6,185.8 308.5,186.3 308.9,186.3 309.3,186.1 309.6,185.7 310,185.2
		310.3,184.8 311.9,184.1 312.2,183.7 312.2,183.5 312.1,183.4 311.9,183.3 311.7,183.1 311.7,182.9 311.7,182.5 311.6,182.3
		311.5,181.9 311,181.2 310.9,180.8 311,180.6 311.1,180.5 311.1,180.3 311.1,180.1 311,179.7 311,179.6 311,179.4 311,179.2
		311.1,178.8 311.2,178.6 311.1,178.3 311,177.9 311,177.7 311,177.5 310.8,177.4 310.6,177.4 310.4,177.2 310.4,177.1 310.6,176.5
		310.7,176.1 310.7,175.9 310.6,175.7 310.5,175.6 310.1,175.4 310,175.3 309.9,174.9 310.1,174.4 310.1,174.1 309.8,173.8
		309,173.6 308.7,173.5 308.6,173.4 308.6,173.6 308.5,173.8 308.2,174.3 308.1,174.5 308,174.9 307.6,175.2 307.2,175.3
		306.8,175.4 305.4,175.4 305,175.5 304.8,175.6 304.6,175.6 304.5,175.7 304.4,176.2 303.5,177.4 302.9,178 299.5,180 298.8,180.6
		298.2,181.3 297.9,182 297.7,182.5 297.7,182.9 297.5,183.4 297.2,183.7 296.4,184.1 295.6,184.8 294.9,185.4 293.8,187.1
		293.5,187.8 293.2,188 292.9,188.1 292.5,188.3 292.2,188.6 291.8,189.3 291.3,189.8 289.5,191 289.2,191.3 289,191.7 288.7,192.2
		288.6,192.6 288.9,193.8 288.9,194.3 288.6,195 288.5,195.2 288.3,195.3 288.2,195.4 288,195.6 287.9,195.9 288,196.3 288.2,196.8
		288.3,197.1 288.3,197.5 288.2,198.5 288,198.9 287.9,199.1 287.8,199.6 287.7,199.7 287.5,199.8 287.4,199.9 287.3,200.2
		287.3,200.4 287.5,200.7 288.2,201.3 288.5,201.7 290.2,203.4 290.3,203.8 290.5,204.2 290.8,204.6 291.6,205.3 292.3,206
		292.9,206.9 292.9,207.7 292.1,208.2 291.2,208.2 291.1,208.4 291.1,208.9 291,209.1 290.8,209.5 290.8,209.8 290.8,209.9
		290.9,210.1 290.9,210.2 290.9,210.3 290.6,210.6 290.5,210.7 290.6,211.2 291,211.8 291.6,212.4 292.1,212.9 293.3,213.5
		293.6,213.9 295.4,215.8 295.8,216.4 296.9,218.8 297.3,220.6 297.4,222.3 296.8,223.9 296,224.6 295.2,224.9 294.3,224.7
		293.4,224.1 293.1,223.7 292.9,223.6 292.6,223.6 292.1,224.5 292,224.6 291.6,224.6 291.2,225.3 291,226 291,226.8 291.1,227.7
		291.5,228.6 292.1,229.4 292.7,230 293.4,230.5 294.4,231 294.9,231.1 295.1,231.2 295.8,231.7 296.4,231.9 297.2,232.7 297.9,233
		298.4,233.3 298.6,233.9 299,234.1 300.4,234.6 302.5,235.8 305.9,237.4 309.6,239.4 312.8,240.9 313.2,241.1 315.6,243.2
		315.7,243.4 315.8,243.5 316.2,244 316.2,244.1 316.3,244.2 316.4,244.9 316.7,245.6 317.1,246.2 318.2,247.4 319.5,248.3
		319.7,248.6 319.9,249 321.3,250.6 321.6,251.1 321.7,251.5 321.7,252 321.9,252.5 322.2,252.9 323,253.7 323.5,254.4 323.9,255.3
		324.2,256.2 324.3,257.1 324.3,257.3 324.2,257.6 324.2,257.8 324.2,258 324.4,258.4 324.5,258.7 326.8,261.7 327.2,262.6
		327.2,262.9 327.2,263.1 327.1,263.2 327.1,263.4 327,263.7 327.1,263.9 327.3,264 329.2,267.1 330.3,268.3 332.8,270.1
		333.1,270.5 333.8,271.5 334.2,271.7 336.2,273.6 336.7,274.2 336.9,274.8 337.1,275.3 338.2,277.3 338.3,277.9 338.2,278.3
		337.6,278.4 337.6,278.5 338.1,279.1 338.4,279.3 339.1,279.6 339.5,279.9 340.4,280.7 341,281.5 341.5,282.4 341.8,283.2
		341.8,284.1 341.5,285 341.3,285.5 341.4,285.9 342.5,287.2 342.8,287.8 343.2,288.2 343.2,288.3 343.3,288.5 343.5,288.8
		343.7,289.1 343.7,289.6 343.5,289.9 343.4,290 343.2,290.2 343.2,290.5 343.7,290.4 343.9,290.7 343.9,291.5 344.1,291.9
		344.4,292.1 344.6,292.2 345,292.4 345.2,292.6 345.4,292.8 345.6,293.1 345.5,293.5 345.4,293.7 345.3,293.8 345.1,293.9
		344.7,294 344.5,294.1 344.4,294.2 344.5,294.2 344.7,294.3 344.9,294.6 345.1,294.9 345.1,295.3 345.2,295.5 345.4,295.3
		345.6,294.8 345.7,294.5 345.8,294.2 346.2,294.1 346.6,294.2 346.8,294.6 346.8,295.2 346.8,295.4 346.7,295.6 346.4,295.9
		346.2,296.1 346.5,296.3 346.6,296.6 346.7,296.9 346.8,297 346.9,297.1 347.4,297.6 347.6,297.5 347.9,297.4 348.1,297.5
		348.2,297.8 348.2,298.6 348.2,298.9 348.6,299.3 349,299.6 349.2,299.9 348.8,300.3 349,300.7 349.2,301.2 349.3,302.5
		349.7,303.8 350.2,304.6 352.1,306.9 352.4,307.5 352.3,307.9 352.1,308.3 352,308.8 352.1,309 352.4,309.7 352.5,310.1
		352.5,310.2 352.5,310.3 352.4,310.4 352.4,310.6 352.5,310.7 352.6,310.8 352.6,310.8 352.7,310.9 352.8,311 353,311.2
		353.1,311.4 353.1,311.7 353.3,312.1 353.8,313 353.9,313.5 353.8,313.7 353.6,313.7 353.5,313.9 353.5,314.2 353.6,314.4
		353.7,314.6 353.9,314.8 354.5,315.4 354.8,315.8 355.3,316.8 355.4,317 355.8,317.5 355.9,317.7 356,318.2 356.1,318.4
		356.9,319.2 357.1,319.5 357.2,319.7 357.2,320.2 357.3,320.4 357.8,321.1 357.8,321.3 357.9,321.8 358.2,322.1 358.7,322.6
		360.4,325.6 360.7,325.9 361.1,326.3 361.3,326.5 361.4,326.7 361.6,327.2 361.7,327.3 361.9,327.2 362.1,327.5 362.4,328.7
		363.1,329.3 363.3,329.6 363.3,330 363.9,330.8 364.1,331.3 364,331.7 364.4,332.1 364.5,332.2 364.4,332.5 364.2,332.9
		364.2,333.1 364.3,333.3 364.6,333.5 364.9,333.8 364.7,334.2 365,334.4 365.1,335.3 365.4,336 365.6,336.5 365.7,337 365.6,337.4
		365.2,337.5 364.9,337.5 364.6,337.6 364.5,338 364.5,338.4 364.7,338.7 365.2,339.2 365.7,339.6 368.9,341.4 369.6,341.9
		370.5,342.3 370.9,342.6 371.2,342.9 371.3,343.1 371.5,343.2 371.7,343.3 371.9,343.5 372.2,344 372.5,344.5 372.6,344.6
		372.6,344.8 372.5,345 372.5,345.2 372.9,345.6 373.1,345.8 373.4,345.9 373.7,346.1 374,346.5 374.3,347 374.3,347.5 374.7,348.4
		374.7,348.8 374.2,349 374.4,349.4 374.5,350.3 374.6,350.7 374.9,351.3 375,351.5 375.2,352.1 375.4,352.6 375.5,354 375.4,354.5
		375.2,354.8 374.9,355.1 374.8,355.5 375.6,355.6 376.6,355.9 377.3,356.4 377.6,357.3 377.6,357.5 377.5,357.7 377.5,357.9
		377.5,358.2 377.6,358.4 378,358.7 378.1,358.8 378.3,358.8 379.5,359.3 381,360.4 382.1,361.5 382.4,362.1 382.7,362.9
		382.8,363.7 382.4,364.3 382.6,364.6 383,364.9 383.3,365.1 383.5,365.2 383.6,365.5 384.4,366.6 384.9,367 385.1,367.2
		385.1,367.4 385.1,368 385.3,368.2 386.2,370 386.6,370.5 388,371.7 388.2,372 388.3,372.3 388.4,373.3 388.8,375.1 389.1,375.8
		389.1,376.3 389.3,376.7 391.6,379 392.8,380.8 393.1,381.1 393.3,381.2 393.6,381.4 394.5,382.7 395.3,384.4 395.4,385.2
		395.6,386.8 395.2,388.6 395,389.3 394.7,390 394.6,390.5 394.5,391 394.4,391.5 394,392.4 393.8,393.3 393.7,393.5 393.5,393.4
		393.2,393.2 393.1,393 393,392.7 393.1,392.4 393.1,392.3 392.9,392.2 392.5,392.2 392.3,392.2 392.3,392.3 391.8,392.5
		391.5,392.7 391.3,393.5 391.2,393.9 391.1,394.1 391.3,394.5 391.6,394.7 391.9,394.7 392.2,394.7 392.5,394.7 392.7,394.6
		392.8,394.5 392.9,394.4 393.1,394.4 393.2,394.5 393.2,394.7 393.1,394.9 393.1,395 393.4,396.5 393.4,396.5 393.4,397.1
		393.5,397.2 393.5,397.4 393.5,397.5 393.4,397.7 393.5,397.9 393.4,398.2 393.2,398.4 393,398.5 393,398.7 393.3,400.3
		393.6,400.5 393.8,400.3 393.7,399.8 394.8,400.1 395.1,400.3 395.3,400.6 395.4,400.9 395.6,401.2 395.9,401.3 396.2,401.5
		396.5,401.9 396.6,402.3 396.7,402.9 396.9,403.1 396.9,403.2 396.8,403.4 396.7,403.5 396.1,403.7 396.6,404.4 396.7,404.5
		396.9,404.6 397.4,404.7 397.6,404.8 397.9,405.1 398.3,405.6 398.6,405.9 399.3,406.3 399.6,406.6 399.7,407.1 399.5,407.5
		399.4,407.8 399.5,407.9 399.6,408 399.8,408.1 400.3,408.6 400.4,408.9 400.5,409.3 400.6,410.2 400.8,410.6 401.1,410.9
		402,411.4 402.1,411.5 402.3,411.6 402.4,411.8 402.6,412.1 402.7,412.3 402.9,412.3 403.1,412.4 403.3,412.5 403.5,412.6
		403.6,412.7 403.6,412.9 403.8,413.1 404.3,413.2 405.5,414 405.9,414.3 406.2,414.6 407,414.8 408.7,415.7 409.7,416.4
		409.7,416.5 409.7,417.2 409.7,417.4 410,417.6 410.7,418.1 410.9,418.3 411,418.7 412,420.2 412.2,420.7 412.4,421 412.7,421.3
		413.8,421.4 414.2,421.6 415.2,422.6 415.4,422.8 415.5,423 415.5,423.2 415.4,423.4 415.2,423.6 414.8,423.5 415.3,424.1
		416.2,424.5 416.8,424.9 416.6,425.5 416.5,425.6 416.2,425.7 416.1,425.8 416,425.9 416.2,426 416.7,426.2 416.8,426.3
		416.9,426.6 417.2,426.8 417.6,426.8 418,426.9 418.3,427.1 418.9,427.8 419.2,428.1 419.4,428.1 419.5,428 419.8,428 420.1,428.1
		420.7,428.5 424.2,430.5 425.6,431 425.9,431.3 426.9,432 430.8,433.5 431,433.6 431.1,433.8 431.3,434.3 431.4,434.3 431.6,434.4
		431.7,434.6 431.8,434.8 431.8,435.2 431.9,435.3 433.3,436.1 433.6,436.3 434,436.5 435,436.4 435.5,436.6 435.9,436.9
		436.2,437.1 436.6,437.4 437.5,437.5 437.8,437.6 439.8,438.5 440.2,438.9 440.3,439 440.3,439.3 440.3,439.8 440.3,439.9
		440.5,440 440.8,440.1 442.5,441.3 443.9,442.5 444.5,442.9 446.1,443.5 446.7,443.8 446.9,444 447.1,444.2 447.2,444.4
		447.3,444.7 448.5,444.4 449.7,444.8 452,445.7 453.3,446.1 454.5,446.6 455.1,446.8 455.3,446.9 455.4,447.1 455.7,448
		455.9,448.3 456.2,448.1 456.5,448.2 456.9,448.4 457.2,448.5 458.1,448.5 458.4,448.7 459.2,449.2 460.1,449.7 460.5,450
		464.4,451.7 466.7,453.3 467.5,453.6 470.7,454 471.9,454.5 472.8,454.7 473,454.8 473.5,455.1 473.6,455.1 473.8,455.2
		473.9,455.3 474.2,455.6 474.3,455.8 474.5,455.8 474.7,455.8 474.9,455.9 475.4,456.2 476.6,457.6 476.8,458 476.8,458.4
		476.9,458.8 477.4,459.1 478.4,459.3 478.9,459.6 479.1,459.9 479.3,460.1 480.1,460.6 480.4,460.9 480.5,461.1 480.4,461.6
		480.5,461.8 480.7,461.9 482,462 482.5,462.1 482.9,462.3 484.1,463 484.6,463.5 485.6,464.6 486.2,465.2 487,465.6 490.5,466.4
		490.6,466.5 491,466.7 491.3,467 491.5,467.2 492,467.3 492.8,467.5 493.2,467.6 493.5,467.9 493.8,468.5 493.8,468.6 494.6,469.1
		495.2,469.9 495.3,470 495.5,470 495.6,470.1 495.6,470.8 495.9,471.7 496,472.1 496.2,474.3 496.3,474.7 496.4,475.2 496.3,475.7
		496,476.1 495.9,476.4 495.9,476.6 496,476.5 496.7,476.4 497.1,476.5 497.6,476.8 498.3,477.3 499.3,477.8 499.7,478 500.3,478.7
		500.6,479 501,479.3 502.1,480.3 502.5,480.4 503.8,480.8 504.2,481 505.1,481.7 505.4,481.8 505.7,482 505.9,482.5 506.2,483.3
		506.5,483.5 507.2,483.8 507.6,484 508.8,485.1 508.9,485.2 509.1,485.2 509.2,485.2 509.3,485.4 509.4,485.6 509.5,485.7
		511.1,487.2 511.7,487.6 512.3,487.9 513,488 513.5,488.2 514.7,489.5 515.9,490.4 516.3,490.7 517.1,490.3 518.2,490.2
		520.4,490.4 521.5,490.3 522,490.2 523.5,489.3 524,489.2 524.6,489.1 525.1,489 525.4,488.7 526.4,487.5 527.3,486.8 527.6,486.3
		528.1,485.7 529.4,482.8 529.4,482.4 529.4,482 529.2,481.5 528.7,480.7 528.6,480.4 528.6,479.8 528.4,478.9 528,478.1
		527.8,477.4 528,476.4 528.6,475.7 529.5,475.7 530.5,475.8 531.4,475.7 532.4,475 535.1,472.4 535.1,472.4 535.1,470.8 535,470.1
		534.8,469.4 534.5,469 534.1,468.6 533.2,467.9 532.9,467.8 531.8,467.7 532.1,467.1 532.5,465.9 532.7,465.4 532.8,465.4
		533.2,465.3 533.3,465.3 534.4,464.3 535.1,463.8 535.6,463.6 536.2,463.5 536.8,463.3 537.2,462.8 537.3,462.4 537.2,462.3
		537.1,462.2 537,462.1 537.1,461.9 537.2,461.7 538.1,461.2 538.4,460.9 538.9,459.7 541,457.4 541.3,457 541.7,455.8 541.9,455.5
		542.3,455.3 543,455.2 543.4,455.1 544.6,454.5 545,454.2 545.3,453.8 545.6,453.4 545,452.7 544.9,452.3 545,451.6 544.9,450.4
		545,449.9 545.2,449.5 545.7,448.9 546.4,448.5 548.8,447.6 549.2,446.8 549,446.2 548.5,445.9 547.4,445.5 546.6,444.5
		546.1,444.3 545.5,444.4 544.8,444.2 544.6,444.2 544.4,444.3 544,444.6 543.7,444.7 543.2,444.7 542.7,444.6 542.3,444.3
		541.9,443.9 541.1,443 540.7,441.8 539.8,439.6 538.9,437.4 538,435.1 537.1,432.9 536.9,432.3 536.7,431.6 536.9,431 538.3,428.9
		538.4,428.5 538.5,428.1 538.6,427.7 538.8,427.3 539,427.2 539.6,427 539.8,426.9 539.8,426.7 539.5,426 539.6,425.7 540,425.3
		540.4,424.9 541.1,424.6 541.4,423.8 541.8,423.8 542.3,423.8 542.6,423.6 542.6,423.2 542.1,422.7 541.6,421.9 541.3,421.6
		540,420.7 539.7,420.3 538.5,418.5 538.1,418.2 537.7,417.7 537.6,417.4 537.7,417 538,416.2 538,416 538,414.2 538,413.9
		538.2,413.6 538.6,413.3 539.8,413 540.1,412.8 540.4,412.2 540.6,409.4 540.8,409 541.2,408.9 541.7,409 542.2,409.1 542.3,408.8
		542.2,407.8 542.3,407.5 542.4,407.4 542.8,407.3 542.9,407.2 543.8,406.2 544.2,405.9 545.5,405.2 545.9,404.8 545.8,404.4
		545.6,403.9 545.4,403.6 545.4,402.7 545.4,402.3 545.5,401.9 546,401.6 546.8,401.4 548.2,401.2 548.6,400.8 548.5,400 548,398.6
		547.8,397.8 547.7,397.5 547.5,397.2 546.4,396.5 546.1,396.1 546,395.4 546,394.6 545.9,393.9 545.5,393.3 545.3,392.5
		545.2,392.2 545.3,391.9 545.4,391.6 545.4,391.4 545.2,391.1 544,390.2 543.6,389.5 543.9,389.1 544.2,389 544.8,389.1
		545.1,389.1 545.2,388.9 545.2,388.6 545.2,388.3 545.2,388.1 545.4,387.8 545.9,387.3 546,387 546.2,386.5 546.3,386 546.3,385.5
		546.5,381.4 546.2,379.7 546.2,378.8 546.3,376.3 546,373.9 546,373 546.1,372.5 546.8,372 547,371.5 547.3,371.1 547.7,371.1
		548,370.5 548.3,370.1 548.7,369.8 550.5,369.3 550.6,369.1 551.1,368.2 550.9,367.9 550.2,367.7 550,367.6 550.1,367.2
		550.3,366.9 550.5,366.7 551.2,366.3 551.5,366 551.7,365.7 551.9,365.4 552,365 552.1,364.8 552.3,364.7 	"/>
</g>

</svg>
