<?xml version="1.0" encoding="utf-8"?>

<svg version="1.2" baseProfile="tiny" xmlns="http://www.w3.org/2000/svg" xmlns:xlink="http://www.w3.org/1999/xlink" x="0px"
	 y="0px" viewBox="266.9 151 306.2 292.3" xml:space="preserve">

<g id="Pakistan">
	<g>
		<polygon fill="#FFFFFF" points="308.2,382.2 307.5,382.1 305.8,382.1 304.3,382 303,382 302.8,382 302.7,382.2 302.5,382.6
			302.3,382.7 302.2,382.8 302,382.8 301.5,383 301.3,382.9 301.1,382.8 300.9,382.8 300.7,382.9 300.6,383.1 300.4,383.2
			300,383.3 296.9,383.7 296.7,383.7 296.5,383.8 296.4,384.1 296.3,384.2 296.1,384.2 295.7,384.2 295.5,384.2 295.3,384.3
			295.1,384.5 294.9,384.6 294.6,384.7 294.4,384.8 294.3,385 294.3,385.2 294.3,385.3 294.4,385.4 294.4,385.6 294.2,385.9
			293.6,386.5 293.5,386.8 293.6,387.2 293.8,387.6 293.8,387.9 293.4,388.1 292.7,388.1 291.8,387.8 291.1,387.7 290.8,388.2
			290.7,388.7 290.6,388.9 289.8,389 289.4,389.2 289,389.3 288.4,389.8 286.1,390.4 285.6,390.8 285.3,391.3 285.2,392 285,393.3
			284.9,394.4 284.7,395.7 284.4,397.4 284.2,398.9 284.1,399.3 283.9,399.6 283.5,399.7 283.2,399.7 282.8,399.8 282.4,400.3
			282.5,401.1 282.7,401.9 282.6,402.6 282.5,402.8 282.2,403.1 282.1,403.3 282,403.6 282,404.8 281.8,406.6 281.7,408.6
			281.6,410.4 281,412.1 281.5,412.2 281.7,412.1 281.9,412.1 282.2,412.2 282.8,412.1 283,412.2 283.2,412.2 283.3,412.3
			283.4,412.4 283.6,412.5 283.7,412.5 284,412.7 284.1,412.7 284.2,412.7 284.3,412.5 284.4,412.5 284.5,412.4 284.6,412.4
			284.7,412.4 284.7,412.7 284.6,412.9 284.4,413.3 284.3,413.5 284.3,413.8 284.2,413.9 284.1,414.2 283.7,414.4 283.7,414.6
			283.8,414.9 283.6,415.1 283.7,415.3 283.9,415.5 284.1,415.6 284.4,415.5 284.9,415.3 285.2,415.3 285.7,415.5 285.9,415.5
			286.1,414.9 286.3,414.8 286.3,414.6 286.1,414.3 286.5,414.2 287.3,413.8 287.7,413.7 289.4,413.9 290.2,414.1 290.6,414.1
			290.8,413.9 290.3,413.3 290.2,413.2 290.1,412.9 290.2,412.7 290.3,412.5 290.7,412.1 291.5,411.8 292.4,411.6 293.1,411.6
			293.6,411.7 294,411.9 294.4,412.2 294.7,412.5 294.8,412.7 294.8,412.9 294.8,413.4 294.7,413.6 294.6,413.7 294.4,413.6
			294.3,413.7 294.2,413.8 294.2,413.8 294.1,413.9 294,414 294.5,414.2 295.2,414.3 295.9,414.3 296.2,414 296,413.9 295.4,413.8
			295.2,413.7 295.1,413.4 295.3,413.1 295.5,412.8 295.7,412.6 296.1,412.3 296.6,412 297.2,411.9 297.7,412 298,411.9
			297.6,411.7 297.6,411.4 297.8,411.1 298.2,411 300.7,410.8 303.3,410.9 306.6,411.6 308.2,411.7 308.6,411.7 308.8,411.6
			308.8,382.2 		"/>
		<polygon fill="#FFFFFF" points="308.1,322.2 307.2,322.2 306.3,322.3 305.3,322.4 304.4,322.5 303.5,322.6 302.6,322.7
			301.6,322.8 300.7,322.9 297.8,323.1 295.9,322.8 294.1,322.2 292.5,321.7 290.9,321.2 289.3,320.7 287.8,320.2 286.2,319.7
			284.6,319.2 283,318.6 281.5,318.1 279.9,317.6 278.3,317.1 276.8,316.6 275.2,316.1 273.6,315.6 272,315.1 270.5,314.6
			268.9,314.1 267.5,313.7 266.9,313.4 268.5,315.2 269.5,316.4 270.7,317.8 272.1,319.5 273.6,321.3 275.2,323.2 275.5,323.5
			275.9,323.6 276.3,323.8 276.4,324.4 276.4,324.8 276.2,325.6 276.2,326 276.3,326.4 277,327.1 277.2,327.5 277.3,327.7
			277.3,328.2 277.4,328.5 277.6,328.7 277.8,328.8 277.9,328.8 278.2,328.9 278.3,329.2 278.4,329.6 278.6,329.9 278.9,330
			279.1,330.2 279.2,330.4 279.1,330.6 278.9,330.7 278.8,330.9 278.7,331 278.8,331.1 278.9,331.3 279.2,331.4 279.4,331.5
			279.5,331.8 280.3,333.6 280.4,334 280.5,334.4 280.6,334.7 281.1,335.3 281.7,336.5 282.2,337.1 284.2,338.9 285,339.9
			286.2,341 286.8,341.7 287.1,341.9 288.2,342.2 289.1,342.7 289.7,342.9 291,343 291.6,343.2 293.1,343.9 295.6,344.4
			296.2,344.6 296.4,344.9 296.5,345.2 296.7,345.4 297,345.6 297.4,345.7 297.5,345.8 297.7,346.1 297.8,346.4 298.1,346.9
			299.3,348.2 299.7,348.4 302.7,347.8 303.2,348 303.3,348.8 303,351 302.7,353.4 303,354.9 303.5,356.9 303.6,358.2 303.8,359.9
			303.9,361 304.1,362.9 304.2,364 304.1,364.9 303.1,367.1 303.4,367.6 303.5,367.8 303.5,368.2 303.4,368.5 303.3,368.7
			303.1,368.8 302.8,368.9 303.6,369.6 303.9,369.7 304.1,369.7 304.3,369.6 304.4,369.6 304.6,369.6 305,369.9 305.6,370
			306.2,370 307.3,369.7 307.7,369.7 308.7,369.4 308.8,369.4 308.8,322.1 		"/>
		<polygon fill="#01411C" points="537.8,263.9 538.1,263.6 538.7,263.3 539.1,263.1 539.4,263.1 540,263.1 540.1,262.9 540.2,262.1
			540.4,261.8 541,261.1 541.2,260.6 541.1,260.1 540.6,259.5 538.8,258 538.1,257.6 536.8,257.3 536.2,256.9 535.5,256.3
			534.9,256.1 534.3,256.1 533.5,256.5 532.7,256.5 531.5,255.9 531.2,256.5 		"/>
		<path fill="#01411C" d="M567.7,183.8l-0.3-0.2l-0.2-0.3l-0.5-0.6l-0.6-0.5l-1.4-0.5l-0.6-0.4l-0.4-0.8l0.3-1.9l-0.2-0.8l-0.3-0.1
			l-0.7,0.7l-0.4,0.1l-0.4,0l-0.2,0l-0.2,0.1l-0.2,0.1l-0.2,0.4l-0.1,0.1l-0.4,0.1l-0.3-0.1l-0.3,0l-0.7,0.5l-0.3,0l-0.3-0.1
			l-0.4-0.1l-0.4,0.1l-0.9,0.2l-0.5,0l-0.5-0.5l-0.2-0.8l-0.1-1l-0.2-0.9l-0.5-0.8l-0.5-0.3l-1.5-0.1l-0.6-0.3l-0.6-0.6l-0.4-0.7
			l-0.1-0.8l0.1-0.4l0.2-0.2l0.9-0.6l0.1-0.1l0.1-0.2l0-0.3l-0.2-0.4l0-0.2l0.3-0.3l0.3-0.2l0.2-0.2l0-0.4l-0.2-0.3l-0.5-0.6
			l-0.1-0.3l0-0.9l0.4-1.9l-0.2-1l-1.9-3.7l-0.5-0.6l-1.1-1l-1.2-0.8l-1.5-0.7l-1.5-0.3l-1.2,0.4l-0.1,0.2l-0.1,0.2l-0.1,0.2
			l-1.2-0.1l-0.4-0.6l-0.1-0.9l0-1l-0.1-0.9l-0.3-0.7l-0.5-0.5l-0.7-0.3l-2.2-0.5l-0.6-0.4l-0.5-0.5l-0.3-0.2l-0.3-0.1l-1.6,0.2
			l-0.7,0l-0.7,0.2l-0.3,0.1l-0.3,0.2l-0.2,0.3l-0.2,0.7l-0.1,0.2l-0.3,0.1l-0.1-0.2l-0.1-0.7l-0.1-0.3l-0.5-0.8l-0.6-0.5l-1.4,0
			l-0.5-0.5l-0.3-0.4L528,151l-0.7,0.3l-1.2,0.3l-0.4,0.2l0.1,0.1l0,0.2l0,0.2l-0.1,0.2l-0.1,0.7l-0.3,0.1l-0.4-0.3l-0.3-0.5
			l-0.1-0.1l-0.1-0.1l-0.4-0.1l-0.4,0l-0.8,0.2l-0.5,0.4l-1.6,1l-0.9,0.8l-0.5,0.2l-1.2-0.2l-0.3,0.1l-0.3,0.2l-0.1,0.3l-0.1,0.8
			l-0.2,0.2l-1.1,0.4l-0.6,0l-0.6-0.2l-0.6-0.1l-1.5-1l-0.6-0.2l-1.2-0.2l-2.5-0.1l-2.5,0.4l-0.6-0.1l-0.6-0.1l-1.2,0.2l-0.9-0.1
			l-0.9,0.3l-0.3,0l-0.3,0l-0.6-0.1l-0.6-0.1l-2.8,0.3l-0.3,0.1l-0.5,0.3l-0.2,0.1l-0.3,0l-0.6-0.2l-0.5,0.1l-0.5,0.2l-0.5,0.2
			l-1.7,0.1l-1.6-0.2l-1.3,0.1l-1.2,0.3l-0.9,0.5l-1.2,1l-0.4,0.1l-0.9-0.1l-0.8,0.3l-0.8,0.1l-1.7,0.4l-0.8,0.4l-0.3,0.2l-0.1,0.3
			l0.3,0.5l0.1,0.4l-0.3,0.2l-1.1,0.2l-0.5,0.2l-0.2,0.1l-0.2,0.2l0,0.2l0.1,0.2l0,0.2l-0.3,0.3l-0.8,0.2l-0.4,0.2l-0.3,0.3
			l-0.9,0.5l-0.3,0.2l-0.2,0.2l-0.2,0.2l-0.3,0.1l-1.2,0.1l-0.4,0.3l0,0.7l0.3,0.6l0.1,0.3l-0.2,0.3l-0.3,0.1l-0.3,0l-0.3-0.1
			l-0.6-0.6l-1.1-0.7l-0.4-0.2l-0.4,0l-0.2,0.2l-0.2,0.7l-0.2,0.4l-0.2,0.2l-0.5,0.5l-0.1,0.4l0.2,0.4l0.1,0.3l-0.4,0.2l-0.5,0.1
			l-0.4,0.1l-0.3,0.2l-1.4,1.6l-0.4,0.3l-1.2,0.4l-0.1,0.2l-0.1,0.5l-0.1,0.2l-0.2,0.1l-0.6,0.3l-0.7,0.5l-0.1,0.2l-0.1,0.5
			l-0.1,0.2l-0.6,0.6l-0.2,0.4l0.1,0.4l0.2,0.2l0.7,0.4l0.3,0.2l0.5,0.5l0.5,0.2l0.5,0.1l0.5,0.2l0.3,0.3l0.1,0.8l0.2,0.4l0.9,0.6
			l0.3,0.4l0.6,1.1l0.1,0.3l0,0.2l0,0.2v0.2l0.1,0.3l0.1,0.2l0.3,0.2l0.1,0.1l0.2,0.4l0.1,0.4l-0.1,0.4l-0.3,0.4l-0.2,0.5l0.2,0.4
			l0.4,0.3l1,0.5l0.3,0.2l0.2,0.3l0,0.4l-0.1,0.4l-0.1,0.4l0.1,0.5l0.2,0.4l0.3,0.3l0.2,0.3l0,0.4l-0.2,0.3l-0.9,0.8l-0.6,0.8l0,0.6
			l0.3,0.6l1,1.2l0.6,0.5l0.1,0.3l-0.2,0.5l-0.5,0.7l-1.3,0.9l-0.5,0.6l0,1l0.1,0.2l0,0.2l-0.1,0.2l-0.2,0.1v0h0v0l-0.1,0.2
			l-0.2,0.5l-0.1,0.2l-0.2,0.2l-2.5,1l-0.7,0.5l-0.4,0.7l-0.3,0.8l-1,1.4l-0.3,0.3l-0.7,0.4l-1.3,1.1l-0.2,0.3l0,0.3l0.1,0.5
			l0.1,0.5l-0.1,0.6l-0.2,0.5l-0.3,0.2l-0.8-0.1l-0.4,0l-0.3,0.1l-0.2,0.4l0,0.5l0.1,0.5l0.2,0.4l0.4,0.6l0.5,0.7l0.6,0.6l1.3,0.8
			l0.1,0.6l-0.6,1.6l0,0.4l0.2,0.8l0.1,0.5l0,0.5l-0.1,0.3l-0.5,0.6l-0.2,0.5l0,0.4l0.1,0.4l-0.1,0.4l-0.3,0.3l-0.9,0.2l-0.4,0.1
			l-0.2,0.3l-0.2,0.2l-0.3,0.1l-0.3,0l-0.5-0.2l-0.2,0.1l-0.1,0.3l-0.3,0.7l-1.3,0.3l-2.6,0l-2.5,0.4l-0.6,0l-1.6-0.3l-1.5-0.1
			l-0.3-0.1l-0.7-0.3l-1.1-0.1l-4.1-1.4l-0.6,0l0,0c-0.8,0.8-1.6,1.7-2.3,2.5l0,0.1l0.6,0.6l0.2,0.3l0.3,0.9l0.2,0.4l0.5,0.7
			l0.2,0.3l0.1,0.4l0.2,0.4l0.3,0.2l0.7,0.1l1,0.4l0.8-0.1l0.2,0.2l0.2,0.9l0.1,0.4l0.1,0.1l0.2,0.1l0.3,0.1l0.1,0.1l0.1,0.1l0,0.5
			l-0.4,1.4l0,0.4l0.1,0.4l0.2,0.4l0.3,0.3l0.1,0.1l0.5,0.2l0.1,0.1l0.1,0.4l0.1,0.2l1,1.1l0.3,0.7l-0.1,0.7l-3.2,2.7l-0.4,0.2
			l-0.4,0l-0.5-0.2l-0.2,0.1l-0.6,1.2l-0.1,0.2l-0.2,0.1l-0.5,0l-0.2,0l-1.4,0.9l-0.8,0.1l-1.3-0.6l-0.7,0.1l-0.9,0.6l-0.3,0.1
			l-0.2,0l-0.2-0.1l-0.2-0.1l-0.6,0.1l-0.4,0l-0.8,0.1l-0.6,0.4l-0.5,0.6l-0.4,0.8l0.3,2.4l-0.2,0.6l-0.1,0.1l-0.5,0.4l-0.5,0.6
			l-0.6,0.5l-0.2,0.3l0,0.4l0.1,0.2l0.1,0.1l0.2,0.1l0.2,0.1l0.1,0.1l0,0.2l0,0.4l0.2,0.7l-0.1,0.3l-0.2,0.4l-1,1.5l-0.3,0.3
			l-0.8,0.3l-0.4,0.2l-0.6,0.7l-0.4,0.8l-0.1,0.9l0.2,1l0.5,1.2l0.1,0.5l0,0.5l-0.1,1l0,0.9l-0.1,0.9l0,0.5l0.4,2.1l0.6,1.7l0.1,0.3
			l-0.1,0.2l-0.9,0.7l-0.5,0.6l-2.1,3.2l-0.3,0.3l-0.3,0.2l-0.3,0.4l-0.6,0.5l-0.7,0.5l-0.5,0.2l-0.7,0l-0.6,0.2l-1.2,0.6l-0.8,0.1
			l-0.5-0.4l0,0c-0.5,19.9,6.3,40,20.6,56.1c10.2,11.5,23,19.5,36.8,23.7l1-0.3l0.3-0.2l0.1-0.3l0.2-2.6l0.1-0.4l0.2-0.4l1.5-2
			l2.3-1.9l0.7-0.8l0.5-0.9l0.4-1l1.1-4.3l0.5-0.9l1.4-1.7l0.5-0.4l2.7-1.4l2.5-1.3l2.2-1.1l2.4-1.3l0.3-0.2l0.2-0.3l0.6-1.5
			l0.5-0.8l1.2-1.6l1.5-2.8l0.9-1.8l1-2l1-3.2l0.8-2.6l0.8-2.6l0.3-0.3l3.3-1.5l3.4-0.8l0.7-0.4l3.1-2.6l0.1-0.6l-0.3-1l-0.4-0.9
			l-0.4-0.6l-0.9-0.5l0.1-0.1l0.1-0.3l0.3-0.3l0.4-0.2l0.4,0l0-0.1l0-0.3l0-0.1l0.3,0.1l0.2,0l0.2-0.2l1-1.3l0.1-0.3l0.2-0.2
			l0.7-0.2l0.3-0.3l0.1-0.5l-0.1-0.4l0-0.4l0.2-0.4l0.3-0.3l0.3-0.2l0.3-0.2l0.4-0.2l0.4-0.1l0.1-0.1l0.1-0.3l0.1-0.2l0.3-0.2
			l0.1-0.4l0.1-0.2l0.3-0.3l0.4-0.6l0.2-0.2l0.3-0.2l0.1-0.2l0-0.2l-0.2-0.4l0.1-0.1l0.4-0.1l0.4-0.3l0.2-0.4l-0.1-0.4l0.1-0.2
			l0.2-0.2l0.2-0.1l0.2-0.1l0.2,0l0.5,0.1l0.4,0l0.1-0.2l0.1-0.3l0.2-0.4l0.3-0.3l0.3-0.2l0.4-0.1l0.4,0l0.4-0.1l0.3-0.3l0.3-0.3
			l0.3-0.3l0-0.5l0.3-0.4l0.4-0.3l1.1-0.6l-0.2-0.2l-0.3-0.3l-0.3-0.2l-0.4,0l-0.8,0.1l-0.3-0.1l-0.3-0.3l-0.2-0.3l-0.1-0.3
			l-0.1-0.4l0.1-0.4l0.3-0.9l0-1l0.1-0.5l0.7-1.9l0.2-0.4l0.3-0.4l0.2-0.4l0.1-0.4l0-0.4l-0.6-0.9L526,275l-1.1-1.9l-0.2-0.2
			l0.1-0.1l0.2-0.4l0,0l0.1-0.1l0.1,0l0-0.1l0.1-0.3l0-0.1l0.1-0.2l0.1-0.1l0-0.1l0-0.3l0.1-0.5l0.2-0.4l0.3-0.3l1.4-1.1l0.3-0.1
			l-3.5-0.8l-10.9,18.6l-2.1-21.4l-21-4.6l19.7-8.6l-2.1-21.4l7.3,8.3l0-0.3l0.2-0.4l0.3-0.2l0.7-0.3l0.3-0.2l0.2-0.3l0.2-0.3
			l0.2-0.4l0.6-1.6l0.4-1.7l-0.3-1.2l-1-0.8l-1.2-0.7l-0.9-0.8l-0.2-0.3l-0.1-0.3l0-0.3l0-0.7l0.1-0.3l0.1-0.3l0.1-0.3l0.6-1.2
			l0.4-0.4l2-0.4l0.7-0.3l0.7-0.5l0.5-0.5l0.4-0.7l0.2-0.7l-0.2-0.7l-0.6-0.4l-0.7,0l-0.7,0.2l-0.7,0l-1-0.4l-0.4,0l-1.3,0.3
			l-0.6-0.1l-0.6-0.4l-0.4-0.6l-0.2-0.7l0.2-0.7l0.4-0.5l1.1-0.6l0.4-0.3l0.1-0.5l-0.1-0.5l-0.3-0.4l-0.4-1.1l-0.3-0.4l-0.6-0.1
			l-0.5,0.1l-0.5-0.1l-0.5-0.2l-0.5-0.3l-0.4-0.4l-0.1-0.5l0.1-0.6l0.3-0.5l0.2-0.2l0.5-0.3l0.2-0.2l0.1-0.3l0-0.9v0l0.3-0.5
			l0.9-0.6l0.3-0.5l0-0.6l-0.2-0.6l0-0.5l0.6-0.5l0.3-0.1l3-0.5l0.5-0.3l1.4-1l1.2-0.5l1.2-0.1l1.2,0.2l4.8,1.7l6.7,1.3l1.8-0.1
			l1.2-0.3l0.7,0l0.5,0.3l0.3,0.4l0.3,0.3l0.8,0.6l0.8,0.4l5,1.3l0.8,0l1.1-0.3l0.4,0l0.8,0.1l0.4-0.1l0.4-0.3l1.1-1.1l1.2-0.9
			l0.5-0.2l0.1-0.1l0.3-0.3l0.4-0.7l0.3-0.3l0.7-0.1l1.2,0.5l0.6,0l2-0.5l2.6-1.5l0.7-0.3l0.7,0.1l0.8,0.6l0.3,0.1l0.3,0l1.6-0.4
			l0.2-0.1l1.7-1.7l0.2-0.4l-0.1-1.2l0.2-0.5l0.5-0.4l0.7-0.2l0.7-0.1l0.5,0.1l0.5,0.3l0.3,0.1l0.2-0.2l0.4-0.4l1.1-0.9l0.3-0.4
			l0.1-0.7l-0.2-0.6l-0.1-0.6l0.4-0.5l0.1-0.1l-5.1-12.4L567.7,183.8z"/>
		<path fill="#01411C" d="M386.7,297c0-4.5,0.3-8.8,1-13.1l0,0l-0.3,0l-0.4-0.1l-0.7-0.4l-0.4-0.1l-0.4,0l-0.7,0.2l-0.4,0l-0.4-0.1
			l-0.2-0.1l-0.1-0.1l0-0.2l0.1-0.1l0.1-0.1l0-0.2l0-0.5l-0.1-0.3l-0.3-0.1l-1.1,0l-0.7,0.2l-1.3,0.6l-0.6,0.5l-0.4,0.5l-0.5,0.4
			l-0.7,0.1l-0.5,0.3l-0.6,2.5l-0.4,0.5l-1.8,1.8l-0.4,0.2l-2.6,0.5l-0.3,0.2l-0.2,0.3l-1.9,7l-0.1,1l0.3,0.9l0.5,0.6l0.1,0.3
			l0.1,0.4l0,0.4l-0.4,2.9l0,1.3l-0.1,0.4l-1.2,2.5l-0.3,0.8l0,0.3l0.1,0.3l0.7,0.5l0.8,0.8l0.6,0.4l0.2,0.2l-0.1,0.1l-0.2,0.1
			l-0.1,0.1l-0.4,0.7l-0.5,0.7l-1.5,1.1l-1.6,0.5l-1.1,0.3l-1.1,0.3l-1.1,0.3l-1.1,0.3L361,316l-1.1,0.3l-1.1,0.3l-1.1,0.3l-1.1,0.3
			l-1.1,0.3l-1.1,0.3l-1.1,0.3l-1.1,0.3l-2.2,0.6l-1.1,0.3l-2.7,0.8l-0.9,0l-3.1-0.6l-2.6,0l-3.9,0l-5.1,1.5l-0.7,0.3l-0.4,0.6
			l-0.7,1.3l-0.5,0.2l-2.2-0.9l-3.5-0.7l-4.1-0.8l-2.9,0.3l-0.9,0.1l-0.9,0.1l-0.9,0.1l-0.9,0.1l-0.9,0.1L310,322l-0.9,0.1l-0.2,0
			v47.3l0.4,0l0.3,0l0.2,0l1-0.3l0.2,0l0.2,0.1l0.5,0.4l0.2,0.1l0.5,0.2l0.2,0.1l0.2,0.2l0.3,0.4l0.6,1.4l-0.3-0.1l-0.4,0l-0.4,0.2
			l-0.2,0.3l-0.1,0.2l-0.2,0.3l-0.1,0.2l0,0.2l0.1,2.4l0.2,0.4l0.2,0.3l0.2,0.3l-0.1,0.4l-0.3,0.3l-0.8,0.1l-0.3,0.2l-0.1,0.3
			l-0.2,3.1l-0.2,0.8l-0.4,0.4l-0.2,0l-0.1-0.1l-0.1-0.1l-0.2-0.1l-0.2,0l-0.6,0.1l-0.1,0v29.3l1-0.5l0.6-0.1l0.6,0.1l1.2,0.3
			l0.9,0.4l0.3,0.1l1.3-0.2l0.6,0.1l1.1,0.5l0.6,0.1l0.1,0l0.1-0.1l0.1-0.1l0-0.2l0-0.1l0-0.1l-0.1-0.1l-0.6-0.7l-0.1-0.3l-0.1-0.3
			l0.3,0.1l0.2-0.1l0.3-0.5l0.5-0.6l0.3-0.2l0.3-0.2l0.6-0.2l1.2-0.2l1.3,0l1.3,0.2l1.9,0.7l0.7,0.1l0.5-0.2l0.3,0.1l0.3,0l0.7-0.1
			h0.3l0.1,0l0.2-0.4l-0.3-0.7l-0.2-0.4l-0.3,0L327,408l-0.2,0.1l-0.1-0.1l-0.1-0.4l-0.1,0.1l-0.3,0.1l0.2-0.3l1.1-0.5l0.2,0.2
			l0.5,0l0.9-0.2l0.3,0l0.2,0l0.1,0.1l-0.1,0.3l-0.2,0.1l-0.4-0.1h-0.2l-0.2,0l-0.2,0.1l-0.1,0.2l0.1,0.3l0.2,0.2l0.2,0.1l0.1,0.1
			l-0.1,0.4l-0.2,0.4l0,0.3l1.7,0.4l1.1,0l0.2,0.1l0.2,0.3l0.2,0.1l0.8,0.1l0.8,0.2l0.4,0.2l0.7,0.6l0.4,0.1l0.2,0l0.4-0.1l0.2,0
			l0.2-0.1l0.3-0.4l0.2-0.2l0.4,0l0.5,0.1l0.5,0.2l0.3,0.2l0.3,0.5l0,0.4l-0.5,0.8h0.3l0.5,0.1l0.3,0l0.9-0.3l0.2,0l0-0.2l-0.2-0.1
			l-0.3-0.1l-0.2-0.1l-0.1-0.2l0-0.3l0.1-0.5l0.2-0.5l0.3-0.4l0.4-0.3l0.5-0.2l1.2-0.1l0.6,0.1l0.4,0.2l0.5-0.2l0.6,0l1.1,0.2h1.2
			l0.3,0l0.6,0.2l0.5,0.1l0.5,0.1l0.2,0l0.3-0.1l0.2-0.1l0.1-0.2l0.4-0.8l0.4-0.5l0.5-0.2l0.6,0.3l0.4-0.2l0.4-0.2l0.5-0.1l0.6,0
			l-0.2,0.3l-0.1,0.1l0.3,0.1l0.4-0.1l0.4-0.2l0.4-0.1l0.4,0l2.7,0.8l0.4,0.1l0.4-0.1l1-0.5l0.8-0.1l0.7-0.4l0.4-0.1l0.7-0.3l0.4,0
			l0.8,0l1.5-0.2l1.2-0.3l1.7,0l0.5-0.1l0.6-0.2l0.6-0.2l0.5,0.1l0.6-0.2l0.9,0.2l1.5,0.7l0.5,0.5l0.3,0.2l0.3,0l0.2-0.3l-0.3-0.3
			l-0.8-0.5l0.7-0.6l-0.3-0.3L373,406l-0.4,0.1l-0.3,0.2l-0.2-0.2l-0.3-0.5l-0.2-0.2l-0.2-0.1l-0.3-0.1l-0.2-0.1l-0.1-0.2l-0.2-0.1
			l-0.5,0l-0.6,0.1l-0.4,0.1l0,0.1l0,0.1l0,0.1l-0.1,0.1l-0.1,0l-0.1,0l-0.1,0l-0.1,0.1l-0.3,0.3l-0.2,0.2l-0.2,0.1l-1.5,0.3l-0.5,0
			l0.1-0.2l0.2-0.2l0.2-0.2l0.2-0.1l0.1-0.1l0.3-0.7l0.2-0.3l0.3-0.3l0.4-0.2l0.7-0.1l0.2-0.1l0.1-0.1l0.1,0l0.2,0l0.4,0.1l0.2,0
			l0.7-0.1l0.4-0.1l0.3-0.2l-0.1,0.5l0.3,0.2l0.5,0l0.5-0.1l0.1,0.3l0.6,0.7l0.1,0.2l0.1,0.3l0.1,0.2l0.2-0.1l0,0.1l0.1,0.1l0,0.1
			l0.3-0.2l0.2,0.5l0.2,0.7l0.3,0.4l0.4,0.3l0.1,0.6l-0.2,0.4l-0.5-0.1l-0.1,0.4l0.2,0.3l0.7,0.4l1,1l0.2,0.2l0.3,0.1l0.7,0.6
			l0.1,0.2l0.1,0.4l0.3,0.7l0,0.4l-0.1,0.3l-0.4,0.5l-0.2,0.3l-0.1,0.4l0,1.2l-0.3,1.6l0,0.8l0.4,0.2v0.1l-0.5,0.3l-0.4,0.4l0,0.4
			l0.5,0.2l0.2,0l0.5-0.2l1-0.1l0.2-0.1l0.4,0.2l0.5-0.1l0.5-0.2l0.5,0l0.4,0.2l0.3,0.3l0.4,0.2l0.5,0.1l-0.1-0.2l0-0.2l0-0.4h0.1
			l0.1,0.2l0.3,0.2l0.3,0.2l0.3,0.1l0.8,0.6l0.4,0.2l-0.2-0.4l0.1-0.2l0.4,0.1l0.2,0l0.2-0.1l0.3,0l0.2,0.1l0.1,0.2l0.1,0.2l0.1,0.4
			l0.2,0l0.7-0.1l0.2-0.1l0.2,0l0.2,0.2l0.2,0.3l0,0.2l-0.5,0.3l-0.5,0.3l-0.5,0.5l-0.4,0.5l-0.1,0.6l0.1,0.4l0.1,0.1l0.2-0.1l0.3,0
			l0.4,0.1l0.3,0.1l0.5,0.3l-0.3,0.1l-0.4,0l-0.4-0.1l-0.3-0.1l0,0.3l0.1,0.3l0.1,0.3l0.2,0.3l0.4,0.1l0.1,0.1l-0.4,0.3l0.4,0.4
			l0.3,0.4l0.2,0.5l0,0.5l0.3-0.2l0.1-0.1l0.1-0.1l-0.2,0.9l0,0.5l0.2,0.2l0.8,0l0.3,0.1l0.4,0.2l-0.5-0.1l-0.6,0.1l-0.4,0.3
			l0.1,0.5l-0.1,0.1l-0.1,0.2l-0.1,0.1l0.2,0.2l0.1,0.2l0,1l0,0.3l0.1,0.3l0.5,0.9l0.2,0.5l0.1,0.7l0.2,0.3l0.6,0.1l1.1-0.1l0.5,0.1
			l0.4,0.2l0.4,0l0.4-0.4l-0.1,0.3l-0.2,0.2l-0.5,0.3l-0.3-0.1l-0.2,0.2l-0.3,0.7l0.2,0.1l0.8,0.2l-0.1,0.5l-0.1,0.3l0,0.2l0.2,0
			l0.2-0.1l0.2-0.1l0.2-0.1l-0.2,0.2l-0.2,0.5l-0.1,0.2l-0.2,0.1l-0.1,0l-0.1,0l-0.2,0l0.2,0.2l1.1,0.3l-0.2-0.2l-0.1-0.2l0-0.2
			l0.3,0l0.2,0.2l0.1,0.3l0.2,0.1l0.3-0.3l0,0.4l0.2,0.3l0.3,0.1l0.3-0.1l0.2-0.4l0-0.9l0.2-0.4l0,0.1l0,0.1l0,0l0.1,0v0.1l-0.1,0.3
			l-0.2,1.2l-0.1,0.2l-0.1,0.2l-0.1,0.2l0,0.3l0,0.2l0.1,0l0.2,0l0.2,0l0.7,0.2l0.4,0l0.3-0.1l0.2-0.3l-0.1-0.3l-0.2-0.3l-0.2-0.2
			l1,0.5l0.6,0.2l0.5,0.1l0.1-0.3l0.2-1.4l0.1-0.5l0.2,0.2l0,0.8l0.1,0.3l0.3-0.3l0.2-0.1l0.1,0l0.1,0.2l0,0.3l0.1,0.2l0.1,0.1
			l0.2,0l0.2,0l0.1,0.1l0.1,0.2l0.2,0.1l0.2,0.1l0.2,0.1l0-0.1l0.2-0.1l0.2,0l0.1,0.1l0,0.2l0.1,0.2l0.1,0.2l0.1,0.1l0.2-0.1
			l0.2-0.4l0.3-0.8l-0.2-0.5l-0.5-1.8l0.2,0.1l0.4,0.3l0.3,0l0,0.2l-0.1,0.5l0.1,0.5l0.3,0.4l0.3,0.3l0.3,0.2v0.1h-0.3l-0.1,0.1
			l-0.1,0.4l0,0.1l0,0.4l-0.1,0.1l-0.3,0.2l-0.1,0.1l0.2,0.4l0.4,0.3l0.3,0l0.1-0.5l0.5,0.5l0.3,0.3l0.2,0l-0.1-0.4l-0.2-0.6l0-0.4
			l0.1-0.4l0.3-0.8l0.1-0.4l0-0.1l-0.2-0.3l-0.1-0.1l0-0.2l0-0.6l0.5,1.3l0.4-0.7l0.1-0.1l0.3-0.1l0.1-0.1l0.1,0l0.2,0l0.1,0
			l0.1-0.1l0-0.1l-0.1-0.1l0,0l0-0.1l0-0.2l0-0.2l0.2-0.1l0.2,0l0.1,0.1l0,0.2l0.1,0.2l0.3,0.1l0.3-0.1l0.2-0.2l0.2-0.3l0-0.1
			l-0.1-0.2l0-0.2l0.2,0l0.1,0.1l0.1,0.2l0,0.2v0.2l0.6-0.4l0.9-0.1l2.2,0l1.9,0l1.5,0l0-2.9l0-2.2l0-1.7l0.4-0.9l1,0l0.3,0.4
			l0.1,1.2l0.4,0.3l0.2-0.2l0.6-1.1l0.1-0.2l0-0.2l0.1-0.1l0.3,0l0.2,0.1l0.2,0.1l0.1,0.2l0.4,0.7l0.3,0.3l0.3,0l0.5-0.2l0.8-0.4
			l0.4-0.1l0.5,0.1l1.1,0.5l0.3,0.1l0.7-0.1l1.4-0.5l5.3,0.1l0.6,0.3l1.5,1.6l0.8,0.4l1,0.1l3.8-0.1l0.8-0.2l0.7-0.6l0.2-0.4
			l0.5-1.3l0.2-0.3l0.2-0.1l0.7-0.1l1.1-0.4l0.4,0l0.4-0.1l0.7-0.5l0.4-0.2l1-0.1l0.3-0.1l0.9-0.6l2-0.5l0.8,0l0.2,0.5l-0.1,0.2
			l-0.3,0.2l-0.1,0.1l0,0.2l0.2,0.7l0.1,0.8l0.1,0.3l0.3,0.3l0.7,0.3l2.5,0.2l0.4-0.1l0.7-0.4l0.4-0.1l0.3-0.1l0.1-0.1l-0.3-0.3
			l-0.1-0.4l0.3-0.4l1.2-0.8l0.4-0.1l0.4,0l0.4,0.2l0.4,0l0.2-0.2l0.1-0.2l0.2-0.2l0.9-0.3l0.2-0.2l-0.1-0.5l-0.7-0.2l-0.8-0.1
			l-0.4-0.2l-0.1-0.1l0-0.2l0-0.2l0-0.2l0-0.4l0.1-0.1l0-0.1l0-0.1l-0.1-0.1l-0.4-0.3l-0.1-0.6l0.1-0.6l0.3-0.5l1.2-0.6l0.4-0.3
			l-0.5-0.8l-0.6-1.8l-1.1-1.8l-0.5-1.1l-0.4-1.1l-0.6-2.9l-0.2-0.5l-0.3-0.4l-1.2-1l-0.6-0.7l-0.2-0.4l-0.1-0.5l-0.1-0.5l-0.8-0.8
			l-0.3-0.4l-0.1-0.7l0.1-2.4l0.1-1.8l-0.1-0.8l-0.4-0.6l-0.8-0.2l-0.7,0.2l-0.7,0.3l-0.7,0.2l-2.2,0.1l-1.1-0.2l-0.7-0.3l-0.3-0.2
			l-0.3-0.5L444,400l-0.3-0.4l-0.8-0.7l-0.7-0.9l-0.6-1l-0.4-1.1l0-0.3l0.2-1.1l0-0.7l0.1-0.3l1-1.7l0.3-0.8l0.1-0.8l-0.1-0.8l0-0.4
			l0.1-0.4l0.2-0.4l0.1-0.4l-0.1-0.8l0.1-1.7l-0.1-0.8l-0.5-0.7l-0.7-0.4l-0.7-0.2l-4.5,0.2l-0.8-0.3l-1.4-1.2l-0.8-0.5l-2.9-1.2
			l-0.6-0.7l-0.1-0.9l0.4-2.5l0.4-2.3C404.3,358.3,386.7,329.7,386.7,297z"/>
		<polygon fill="#01411C" points="391,436.7 391.3,436.8 391.8,436.7 392,436.4 392.1,436.1 392.4,436 392.3,435.9 391.9,435.7
			391.1,436 390.6,436 390.4,435.7 390.5,436 390.7,436.4 		"/>
		<polygon fill="#01411C" points="521.6,244.8 521.4,244.3 520.9,243.9 519.8,243.8 521.7,245.8 		"/>
		<path fill="#FFFFFF" d="M438.4,220.7l-0.5,0.2l-0.3,0.3l0,0.4l0.1,0.3l0,0.3l-0.3,0.3l-0.2,0.3l0.1,0.2c0.8-0.9,1.5-1.7,2.3-2.5
			L438.4,220.7z"/>
		<path fill="#FFFFFF" d="M437.4,331c-14.3-16.1-21-36.2-20.6-56.1l-0.9-1.2l-0.5-0.6l-0.1-0.3l-0.1-0.9l-0.1-0.3l-0.2-0.1l-1.1-0.2
			l-1.1-0.6l-0.6-0.2l-0.4,0l-0.4,0.2l-0.8,0.4l-0.4,0.3l0.1,0.2l0.3,0.1l0.4,0.1l1.1,0l0.4,0.1l0.2,0.2l-0.2,0.3l-0.4,0.2l-0.3,0.1
			l-0.7-0.1l-2-0.7l-0.7-0.1l-0.7,0l-0.4-0.1l-0.2-0.2l-0.2-0.3l-0.5-0.4l-0.4-0.2l-0.5-0.2l-0.4,0l-0.2,0.3l-0.4,0.9l-0.2,0.4
			l-0.6,0.6l-0.1,0.2l-0.1,0.5l-0.1,0.2l-1,0.6l-0.3,0.3l-0.2,0.3l-0.2,0.1l-0.8,0l-0.6-0.1l-0.3,0l-0.5,0.3l-1.2,1.3l-1,0.7
			l-0.6,0.2l-0.6,0.1l-1.2-0.3l-0.6,0l-0.2,0.4l0.1,0.3l0.3,0.3l0.2,0.4l0.1,0.9l0.3,0.3l0.4,0.2l0.4,0.1l1.6-0.2l0.7,0.2l0.1,0.9
			l-0.2,0.4l-0.3,0.1l-0.8,0l-0.3,0.1l-0.3,0.2l-0.2,0.2l-1.2,0.8l-0.3,0.1l-1,0.2l-0.7,0.3l-1.1,0.2l-1.3,0.6l-0.3,0.1l-1.2-0.1
			l-1,0c-0.6,4.3-1,8.7-1,13.1c0,32.7,17.7,61.3,43.9,76.7l0-0.3l0.5-1.6l0.8-1.3l1.7-1.7l1.2-0.9l2.2-2.1l1.1-1.8l1.6-1.6l0.4-0.6
			l1.4-4.1l0.2-0.4l1.8-1.9l1.3-0.9l1.1-1.2l0.3-0.2l0.3-0.1l0.7-0.1l0.7-0.3l0.4-0.1l0.4,0.1l0.6,0.2l0.5,0.3l0.5,0.4l0.6,0.7
			l0.5,0.4l0.2,0.3l0.2,0.4L452,356l0.1,0.4l0.6,1.4l0.7,1.1l1,0.7l1.3,0.2l1.5-0.3l2.2-1.1l2.3-1.2l1.4-0.5l1.6-0.3l1.6-0.1
			l1.5,0.1l1.6-0.1l2.7-0.8l2-0.6C460.4,350.4,447.6,342.5,437.4,331z"/>
		<polygon fill="#FFFFFF" points="510.1,251.9 490.4,260.5 511.4,265.1 513.5,286.6 524.4,268 527.9,268.8 527.9,268.7 528.2,268.6
			528.7,267.5 529.9,267.8 530.3,267.7 530.7,267.1 530.9,266.3 531.2,265.9 532,266.2 532.3,265.8 532.7,265.7 533.1,265.8
			533.6,265.7 533.8,265.6 533.9,265.4 534,265.2 534.2,265 534.3,264.9 534.8,265 535,265 534.9,264.3 535.2,264.3 536.4,264.7
			536.5,264.7 536.7,264.6 536.9,264.4 537,264.4 537.5,264.5 537.7,264.5 537.7,264 537.8,263.9 531.2,256.5 531.5,255.9
			531.4,255.9 530.6,255.9 530,256.1 529.2,256.2 528.6,256 528,255.4 527.5,253.8 527.4,253.4 527.6,252.9 527.8,252.6
			527.9,252.2 527.9,251.7 527.8,250.8 527.8,250.3 527.9,249.8 528.4,248.9 528.5,248.4 528.5,247.9 528.2,247.7 527.9,247.8
			527.5,248.1 527.4,248.6 527.3,248.9 527.1,249.3 526.7,249.6 526.4,249.7 525.4,249.8 525,249.8 524.7,249.7 524.1,249.1
			523.8,248.9 523.4,249 522.8,249.3 522.5,249.4 522.1,249.4 521.7,249.1 521.5,248.8 521.3,248.4 521.6,247.9 521.8,247.5
			521.9,247 521.7,245.9 521.7,245.8 519.8,243.8 519.1,243.6 518.4,243.2 517.4,241.8 516.8,241.2 516.1,240.7 515.6,240.1
			515.3,239.4 515.4,238.7 508,230.5 		"/>
	</g>
	<path fill="none" stroke="#999999" stroke-width="0.25" stroke-linecap="round" stroke-linejoin="round" d="M392,436.4l0.1-0.3
		l0.4-0.2l-0.1-0.1l-0.4-0.2l-0.8,0.3l-0.4,0l-0.3-0.3l0.1,0.3l0.2,0.4l0.3,0.3l0.3,0.1l0.5-0.1L392,436.4z M573.1,196.2l-5.1-12.4
		l-0.3,0l-0.3-0.2l-0.2-0.3l-0.5-0.6l-0.6-0.5l-1.4-0.5l-0.6-0.4l-0.4-0.8l0.3-1.9l-0.2-0.8l-0.3-0.1l-0.7,0.7l-0.4,0.1l-0.4,0
		l-0.2,0l-0.2,0.1l-0.2,0.1l-0.2,0.4l-0.1,0.1l-0.4,0.1l-0.3-0.1l-0.3,0l-0.7,0.5l-0.3,0l-0.3-0.1l-0.4-0.1l-0.4,0.1l-0.9,0.2
		l-0.5,0l-0.5-0.5l-0.2-0.8l-0.1-1l-0.2-0.9l-0.5-0.8l-0.5-0.3l-1.5-0.1l-0.6-0.3l-0.6-0.6l-0.4-0.7l-0.1-0.8l0.1-0.4l0.2-0.2
		l0.9-0.6l0.1-0.1l0.1-0.2l0-0.3l-0.2-0.4l0-0.2l0.3-0.3l0.3-0.2l0.2-0.2l0-0.4l-0.2-0.3l-0.5-0.6l-0.1-0.3l0-0.9l0.4-1.9l-0.2-1
		l-1.9-3.7l-0.5-0.6l-1.1-1l-1.2-0.8l-1.5-0.7l-1.5-0.3l-1.2,0.4l-0.1,0.2l-0.1,0.2l-0.1,0.2l-1.2-0.1l-0.4-0.6l-0.1-0.9l0-1
		l-0.1-0.9l-0.3-0.7l-0.5-0.5l-0.7-0.3l-2.2-0.5l-0.6-0.4l-0.5-0.5l-0.3-0.2l-0.3-0.1l-1.6,0.2l-0.7,0l-0.7,0.2l-0.3,0.1l-0.3,0.2
		l-0.2,0.3l-0.2,0.7l-0.1,0.2l-0.3,0.1l-0.1-0.2l-0.1-0.7l-0.1-0.3l-0.5-0.8l-0.6-0.5l-1.4,0l-0.5-0.5l-0.3-0.4L528,151l-0.7,0.3
		l-1.2,0.3l-0.4,0.2l0.1,0.1l0,0.2l0,0.2l-0.1,0.2l-0.1,0.7l-0.3,0.1l-0.4-0.3l-0.3-0.5l-0.1-0.1l-0.1-0.1l-0.4-0.1l-0.4,0l-0.8,0.2
		l-0.5,0.4l-1.6,1l-0.9,0.8l-0.5,0.2l-1.2-0.2l-0.3,0.1l-0.3,0.2l-0.1,0.3l-0.1,0.8l-0.2,0.2l-1.1,0.4l-0.6,0l-0.6-0.2l-0.6-0.1
		l-1.5-1l-0.6-0.2l-1.2-0.2l-2.5-0.1l-2.5,0.4l-0.6-0.1l-0.6-0.1l-1.2,0.2l-0.9-0.1l-0.9,0.3l-0.3,0l-0.3,0l-0.6-0.1l-0.6-0.1
		l-2.8,0.3l-0.3,0.1l-0.5,0.3l-0.2,0.1l-0.3,0l-0.6-0.2l-0.5,0.1l-0.5,0.2l-0.5,0.2l-1.7,0.1l-1.6-0.2l-1.3,0.1l-1.2,0.3l-0.9,0.5
		l-1.2,1l-0.4,0.1l-0.9-0.1l-0.8,0.3l-0.8,0.1l-1.7,0.4l-0.8,0.4l-0.3,0.2l-0.1,0.3l0.3,0.5l0.1,0.4l-0.3,0.2l-1.1,0.2l-0.5,0.2
		l-0.2,0.1l-0.2,0.2l0,0.2l0.1,0.2l0,0.2l-0.3,0.3l-0.8,0.2l-0.4,0.2l-0.3,0.3l-0.9,0.5l-0.3,0.2l-0.2,0.2l-0.2,0.2l-0.3,0.1
		l-1.2,0.1l-0.4,0.3l0,0.7l0.3,0.6l0.1,0.3l-0.2,0.3l-0.3,0.1l-0.3,0l-0.3-0.1l-0.6-0.6l-1.1-0.7l-0.4-0.2l-0.4,0l-0.2,0.2l-0.2,0.7
		l-0.2,0.4l-0.2,0.2l-0.5,0.5l-0.1,0.4l0.2,0.4l0.1,0.3l-0.4,0.2l-0.5,0.1l-0.4,0.1l-0.3,0.2l-1.4,1.6l-0.4,0.3l-1.2,0.4l-0.1,0.2
		l-0.1,0.5l-0.1,0.2l-0.2,0.1l-0.6,0.3l-0.7,0.5l-0.1,0.2l-0.1,0.5l-0.1,0.2l-0.6,0.6l-0.2,0.4l0.1,0.4l0.2,0.2l0.7,0.4l0.3,0.2
		l0.5,0.5l0.5,0.2l0.5,0.1l0.5,0.2l0.3,0.3l0.1,0.8l0.2,0.4l0.9,0.6l0.3,0.4l0.6,1.1l0.1,0.3l0,0.2l0,0.2v0.2l0.1,0.3l0.1,0.2
		l0.3,0.2l0.1,0.1l0.2,0.4l0.1,0.4l-0.1,0.4l-0.3,0.4l-0.2,0.5l0.2,0.4l0.4,0.3l1,0.5l0.3,0.2l0.2,0.3l0,0.4l-0.1,0.4l-0.1,0.4
		l0.1,0.5l0.2,0.4l0.3,0.3l0.2,0.3l0,0.4l-0.2,0.3l-0.9,0.8l-0.6,0.8l0,0.6l0.3,0.6l1,1.2l0.6,0.5l0.1,0.3l-0.2,0.5l-0.5,0.7
		l-1.3,0.9l-0.5,0.6l0,1l0.1,0.2l0,0.2l-0.1,0.2l-0.2,0.1v0h0v0l-0.1,0.2l-0.2,0.5l-0.1,0.2l-0.2,0.2l-2.5,1l-0.7,0.5l-0.4,0.7
		l-0.3,0.8l-1,1.4l-0.3,0.3l-0.7,0.4l-1.3,1.1l-0.2,0.3l0,0.3l0.1,0.5l0.1,0.5l-0.1,0.6l-0.2,0.5l-0.3,0.2l-0.8-0.1l-0.4,0l-0.3,0.1
		l-0.2,0.4l0,0.5l0.1,0.5l0.2,0.4l0.4,0.6l0.5,0.7l0.6,0.6l1.3,0.8l0.1,0.6l-0.6,1.6l0,0.4l0.2,0.8l0.1,0.5l0,0.5l-0.1,0.3l-0.5,0.6
		l-0.2,0.5l0,0.4l0.1,0.4l-0.1,0.4l-0.3,0.3l-0.9,0.2l-0.4,0.1l-0.2,0.3l-0.2,0.2l-0.3,0.1l-0.3,0l-0.5-0.2l-0.2,0.1l-0.1,0.3
		l-0.3,0.7l-1.3,0.3l-2.6,0l-2.5,0.4l-0.6,0l-1.6-0.3l-1.5-0.1l-0.3-0.1l-0.7-0.3l-1.1-0.1l-4.1-1.4l-0.6,0l-1,0.2l-0.5,0.2
		l-0.3,0.3l0,0.4l0.1,0.3l0,0.3l-0.3,0.3l-0.2,0.3l0.1,0.3l0.6,0.6l0.2,0.3l0.3,0.9l0.2,0.4l0.5,0.7l0.2,0.3l0.1,0.4l0.2,0.4
		l0.3,0.2l0.7,0.1l1,0.4l0.8-0.1l0.2,0.2l0.2,0.9l0.1,0.4l0.1,0.1l0.2,0.1l0.3,0.1l0.1,0.1l0.1,0.1l0,0.5l-0.4,1.4l0,0.4l0.1,0.4
		l0.2,0.4l0.3,0.3l0.1,0.1l0.5,0.2l0.1,0.1l0.1,0.4l0.1,0.2l1,1.1l0.3,0.7l-0.1,0.7l-3.2,2.7l-0.4,0.2l-0.4,0l-0.5-0.2l-0.2,0.1
		l-0.6,1.2l-0.1,0.2l-0.2,0.1l-0.5,0l-0.2,0l-1.4,0.9l-0.8,0.1l-1.3-0.6l-0.7,0.1l-0.9,0.6l-0.3,0.1l-0.2,0l-0.2-0.1l-0.2-0.1
		l-0.6,0.1l-0.4,0l-0.8,0.1l-0.6,0.4l-0.5,0.6l-0.4,0.8l0.3,2.4l-0.2,0.6l-0.1,0.1l-0.5,0.4l-0.5,0.6l-0.6,0.5l-0.2,0.3l0,0.4
		l0.1,0.2l0.1,0.1l0.2,0.1l0.2,0.1l0.1,0.1l0,0.2l0,0.4l0.2,0.7l-0.1,0.3l-0.2,0.4l-1,1.5l-0.3,0.3l-0.8,0.3l-0.4,0.2l-0.6,0.7
		l-0.4,0.8l-0.1,0.9l0.2,1l0.5,1.2l0.1,0.5l0,0.5l-0.1,1l0,0.9l-0.1,0.9l0,0.5l0.4,2.1l0.6,1.7l0.1,0.3l-0.1,0.2l-0.9,0.7l-0.5,0.6
		l-2.1,3.2l-0.3,0.3l-0.3,0.2l-0.3,0.4l-0.6,0.5l-0.7,0.5l-0.5,0.2l-0.7,0l-0.6,0.2l-1.2,0.6l-0.8,0.1l-0.5-0.4l-0.9-1.3l-0.5-0.6
		l-0.1-0.3l-0.1-0.9l-0.1-0.3l-0.2-0.1l-1.1-0.2l-1.1-0.6l-0.6-0.2l-0.4,0l-0.4,0.2l-0.8,0.4l-0.4,0.3l0.1,0.2l0.3,0.1l0.4,0.1
		l1.1,0l0.4,0.1l0.2,0.2l-0.2,0.3l-0.4,0.2l-0.3,0.1l-0.7-0.1l-2-0.7l-0.7-0.1l-0.7,0l-0.4-0.1l-0.2-0.2l-0.2-0.3l-0.5-0.4l-0.4-0.2
		l-0.5-0.2l-0.4,0l-0.2,0.3l-0.4,0.9l-0.2,0.4l-0.6,0.6l-0.1,0.2l-0.1,0.5l-0.1,0.2l-1,0.6l-0.3,0.3l-0.2,0.3l-0.2,0.1l-0.8,0
		l-0.6-0.1l-0.3,0l-0.5,0.3l-1.2,1.3l-1,0.7l-0.6,0.2l-0.6,0.1l-1.2-0.3l-0.6,0l-0.2,0.4l0.1,0.3l0.3,0.3l0.2,0.4l0.1,0.9l0.3,0.3
		l0.4,0.2l0.4,0.1l1.6-0.2l0.7,0.2l0.1,0.9l-0.2,0.4l-0.3,0.1l-0.8,0l-0.3,0.1l-0.3,0.2l-0.2,0.2l-1.2,0.8l-0.3,0.1l-1,0.2l-0.7,0.3
		l-1.1,0.2l-1.3,0.6l-0.3,0.1l-1.2-0.1l-1,0l-0.3,0l-0.4-0.1l-0.7-0.4l-0.4-0.1l-0.4,0l-0.7,0.2l-0.4,0l-0.4-0.1l-0.2-0.1l-0.1-0.1
		l0-0.2l0.1-0.1l0.1-0.1l0-0.2l0-0.5l-0.1-0.3l-0.3-0.1l-1.1,0l-0.7,0.2l-1.3,0.6l-0.6,0.5l-0.4,0.5l-0.5,0.4l-0.7,0.1l-0.5,0.3
		l-0.6,2.5l-0.4,0.5l-1.8,1.8l-0.4,0.2l-2.6,0.5l-0.3,0.2l-0.2,0.3l-1.9,7l-0.1,1l0.3,0.9l0.5,0.6l0.1,0.3l0.1,0.4l0,0.4l-0.4,2.9
		l0,1.3l-0.1,0.4l-1.2,2.5l-0.3,0.8l0,0.3l0.1,0.3l0.7,0.5l0.8,0.8l0.6,0.4l0.2,0.2l-0.1,0.1l-0.2,0.1l-0.1,0.1l-0.4,0.7l-0.5,0.7
		l-1.5,1.1l-1.6,0.5l-1.1,0.3l-1.1,0.3l-1.1,0.3l-1.1,0.3L361,316l-1.1,0.3l-1.1,0.3l-1.1,0.3l-1.1,0.3l-1.1,0.3l-1.1,0.3l-1.1,0.3
		l-1.1,0.3l-2.2,0.6l-1.1,0.3l-2.7,0.8l-0.9,0l-3.1-0.6l-2.6,0l-3.9,0l-5.1,1.5l-0.7,0.3l-0.4,0.6l-0.7,1.3l-0.5,0.2l-2.2-0.9
		l-3.5-0.7l-4.1-0.8l-2.9,0.3l-0.9,0.1l-0.9,0.1l-0.9,0.1l-0.9,0.1l-0.9,0.1L310,322l-0.9,0.1l-0.9,0.1l-0.9,0.1l-0.9,0.1l-0.9,0.1
		l-0.9,0.1l-0.9,0.1l-0.9,0.1l-0.9,0.1l-0.9,0.1l-2.9,0.3l-1.9-0.4l-1.8-0.6l-1.6-0.5l-1.6-0.5l-1.6-0.5l-1.6-0.5l-1.6-0.5l-1.6-0.5
		l-1.6-0.5l-1.6-0.5l-1.6-0.5l-1.6-0.5l-1.6-0.5l-1.6-0.5l-1.6-0.5l-1.6-0.5l-1.6-0.5l-1.6-0.5l-1.3-0.4l-0.6-0.3l1.5,1.8l1,1.2
		l1.2,1.5l1.4,1.7l1.5,1.8l1.6,1.9l0.4,0.3l0.4,0.2l0.3,0.2l0.2,0.5l0,0.4l-0.2,0.8v0.4l0.2,0.4l0.6,0.7l0.2,0.4l0.1,0.2l0.1,0.5
		l0.1,0.2l0.2,0.2l0.2,0.1l0.2,0l0.2,0.1l0.2,0.3l0.1,0.4l0.1,0.3l0.3,0.1l0.2,0.1l0.1,0.2l-0.1,0.2l-0.2,0.2l-0.1,0.1l-0.1,0.1
		l0,0.1l0.1,0.1l0.2,0.1l0.2,0.2l0.2,0.2l0.8,1.8l0.1,0.4l0,0.4l0.1,0.3l0.5,0.6l0.5,1.2l0.5,0.7l1.9,1.8l0.8,1l1.2,1.1l0.6,0.7
		l0.3,0.2l1.1,0.3l0.9,0.5l0.6,0.2l1.3,0.1l0.6,0.1l1.6,0.7l2.5,0.5l0.5,0.3l0.2,0.3l0.2,0.3l0.2,0.3l0.3,0.2l0.3,0.1l0.2,0.1
		l0.1,0.2l0.1,0.4l0.3,0.5l1.2,1.3l0.4,0.2l3.1-0.6l0.4,0.3l0.1,0.7L303,351l-0.3,2.4l0.3,1.5l0.5,2l0.1,1.3l0.2,1.7l0.1,1.1l0.2,2
		l0.1,1.1l-0.1,0.9l-1,2.2l0.4,0.4l0.1,0.2l0,0.3l-0.1,0.3l-0.1,0.2l-0.2,0.1l-0.3,0l0.8,0.7l0.3,0.2l0.1,0l0.3-0.2l0.1,0l0.2,0.1
		l0.4,0.2l0.6,0.1l0.5,0l1.1-0.2l0.5-0.1l1-0.3l0.5,0l0.3,0l0.2,0l1-0.3l0.2,0l0.2,0.1l0.5,0.4l0.2,0.1l0.5,0.2l0.2,0.1l0.2,0.2
		l0.3,0.4l0.6,1.4l-0.3-0.1l-0.4,0l-0.4,0.2l-0.2,0.3l-0.1,0.2l-0.2,0.3l-0.1,0.2l0,0.2l0.1,2.4l0.2,0.4l0.2,0.3l0.2,0.3l-0.1,0.4
		l-0.3,0.3l-0.8,0.1l-0.3,0.2l-0.1,0.3l-0.2,3.1l-0.2,0.8l-0.4,0.4l-0.2,0l-0.1-0.1l-0.1-0.1l-0.2-0.1l-0.2,0l-0.6,0.1l-0.7,0
		l-0.7-0.1l-1.7,0l-1.5,0l-1.3,0l-0.2,0.1l-0.1,0.2l-0.2,0.4l-0.1,0.1l-0.1,0.1l-0.2,0.1l-0.6,0.1l-0.2,0l-0.2-0.1l-0.2,0l-0.2,0.1
		l-0.1,0.2l-0.2,0.1l-0.4,0.1l-3.2,0.3l-0.2,0.1l-0.1,0.1l-0.2,0.3l-0.1,0.1l-0.2,0.1l-0.4,0l-0.2,0l-0.2,0.1l-0.2,0.2l-0.2,0.1
		l-0.4,0.1l-0.2,0.1l-0.1,0.2l0,0.2l0.1,0.1l0.1,0.1l0,0.1l-0.2,0.4l-0.6,0.6l-0.1,0.3l0.1,0.5l0.2,0.4l0,0.3l-0.4,0.2l-0.7-0.1
		l-0.8-0.3l-0.7-0.1l-0.3,0.5l-0.1,0.5l-0.2,0.2l-0.8,0.1l-0.4,0.1l-0.4,0.2l-0.7,0.5l-2.3,0.6l-0.5,0.4l-0.3,0.6l-0.2,0.6l-0.2,1.3
		l-0.2,1.1l-0.2,1.3l-0.2,1.7l-0.2,1.5l-0.1,0.4l-0.3,0.3l-0.3,0.1l-0.4,0l-0.4,0.1l-0.4,0.5l0.1,0.8l0.2,0.8l-0.1,0.7l-0.1,0.2
		l-0.3,0.3l-0.1,0.2l-0.1,0.3l-0.1,1.2l-0.1,1.8l-0.1,2.1l-0.1,1.8l-0.6,1.7l0.5,0l0.2-0.1l0.2,0l0.3,0.1l0.6,0l0.2,0l0.2,0.1
		l0.1,0.1l0.1,0.1l0.2,0l0.1,0l0.3,0.2l0.1,0l0.1,0l0.2-0.2l0.1,0l0.1,0l0.1-0.1l0.1,0.1l0,0.3l-0.1,0.2l-0.3,0.4l-0.1,0.2l0,0.3
		l-0.1,0.1l-0.2,0.2l-0.3,0.3l-0.1,0.2l0.1,0.3l-0.2,0.2l0.1,0.2l0.2,0.2l0.2,0.1l0.3-0.1l0.5-0.2l0.3,0l0.4,0.2l0.2,0l0.2-0.6
		l0.2-0.2l0.1-0.2l-0.2-0.3l0.4-0.1l0.8-0.4l0.4-0.1l1.6,0.1l0.8,0.2l0.4,0l0.2-0.2l-0.5-0.6l-0.2-0.1l0-0.3l0.1-0.3l0.1-0.2
		l0.5-0.4l0.8-0.3l0.9-0.2l0.7,0l0.4,0.1l0.4,0.2l0.4,0.3l0.4,0.3l0.1,0.2l0,0.2l0,0.4l-0.1,0.2l-0.1,0l-0.2,0l-0.2,0.1l-0.1,0.1
		l-0.1,0l-0.1,0.1L294,414l0.5,0.2l0.7,0.1l0.7,0l0.3-0.3l-0.2-0.1l-0.6-0.1l-0.2-0.1l-0.1-0.3l0.1-0.3l0.2-0.3l0.2-0.2l0.4-0.3
		l0.5-0.3l0.6-0.2l0.5,0.1l0.4-0.2l-0.4-0.2l-0.1-0.3l0.2-0.3l0.4-0.1l2.4-0.2l2.7,0.1l3.2,0.7l1.6,0.2l0.4-0.1l1.2-0.6l0.6-0.1
		l0.6,0.1l1.2,0.3l0.9,0.4l0.3,0.1l1.3-0.2l0.6,0.1l1.1,0.5l0.6,0.1l0.1,0l0.1-0.1l0.1-0.1l0-0.2l0-0.1l0-0.1l-0.1-0.1l-0.6-0.7
		l-0.1-0.3l-0.1-0.3l0.3,0.1l0.2-0.1l0.3-0.5l0.5-0.6l0.3-0.2l0.3-0.2l0.6-0.2l1.2-0.2l1.3,0l1.3,0.2l1.9,0.7l0.7,0.1l0.5-0.2
		l0.3,0.1l0.3,0l0.7-0.1h0.3l0.1,0l0.2-0.4l-0.3-0.7l-0.2-0.4l-0.3,0L327,408l-0.2,0.1l-0.1-0.1l-0.1-0.4l-0.1,0.1l-0.3,0.1l0.2-0.3
		l1.1-0.5l0.2,0.2l0.5,0l0.9-0.2l0.3,0l0.2,0l0.1,0.1l-0.1,0.3l-0.2,0.1l-0.4-0.1h-0.2l-0.2,0l-0.2,0.1l-0.1,0.2l0.1,0.3l0.2,0.2
		l0.2,0.1l0.1,0.1l-0.1,0.4l-0.2,0.4l0,0.3l1.7,0.4l1.1,0l0.2,0.1l0.2,0.3l0.2,0.1l0.8,0.1l0.8,0.2l0.4,0.2l0.7,0.6l0.4,0.1l0.2,0
		l0.4-0.1l0.2,0l0.2-0.1l0.3-0.4l0.2-0.2l0.4,0l0.5,0.1l0.5,0.2l0.3,0.2l0.3,0.5l0,0.4l-0.5,0.8h0.3l0.5,0.1l0.3,0l0.9-0.3l0.2,0
		l0-0.2l-0.2-0.1l-0.3-0.1l-0.2-0.1l-0.1-0.2l0-0.3l0.1-0.5l0.2-0.5l0.3-0.4l0.4-0.3l0.5-0.2l1.2-0.1l0.6,0.1l0.4,0.2l0.5-0.2l0.6,0
		l1.1,0.2h1.2l0.3,0l0.6,0.2l0.5,0.1l0.5,0.1l0.2,0l0.3-0.1l0.2-0.1l0.1-0.2l0.4-0.8l0.4-0.5l0.5-0.2l0.6,0.3l0.4-0.2l0.4-0.2
		l0.5-0.1l0.6,0l-0.2,0.3l-0.1,0.1l0.3,0.1l0.4-0.1l0.4-0.2l0.4-0.1l0.4,0l2.7,0.8l0.4,0.1l0.4-0.1l1-0.5l0.8-0.1l0.7-0.4l0.4-0.1
		l0.7-0.3l0.4,0l0.8,0l1.5-0.2l1.2-0.3l1.7,0l0.5-0.1l0.6-0.2l0.6-0.2l0.5,0.1l0.6-0.2l0.9,0.2l1.5,0.7l0.5,0.5l0.3,0.2l0.3,0
		l0.2-0.3l-0.3-0.3l-0.8-0.5l0.7-0.6l-0.3-0.3L373,406l-0.4,0.1l-0.3,0.2l-0.2-0.2l-0.3-0.5l-0.2-0.2l-0.2-0.1l-0.3-0.1l-0.2-0.1
		l-0.1-0.2l-0.2-0.1l-0.5,0l-0.6,0.1l-0.4,0.1l0,0.1l0,0.1l0,0.1l-0.1,0.1l-0.1,0l-0.1,0l-0.1,0l-0.1,0.1l-0.3,0.3l-0.2,0.2
		l-0.2,0.1l-1.5,0.3l-0.5,0l0.1-0.2l0.2-0.2l0.2-0.2l0.2-0.1l0.1-0.1l0.3-0.7l0.2-0.3l0.3-0.3l0.4-0.2l0.7-0.1l0.2-0.1l0.1-0.1
		l0.1,0l0.2,0l0.4,0.1l0.2,0l0.7-0.1l0.4-0.1l0.3-0.2l-0.1,0.5l0.3,0.2l0.5,0l0.5-0.1l0.1,0.3l0.6,0.7l0.1,0.2l0.1,0.3l0.1,0.2
		l0.2-0.1l0,0.1l0.1,0.1l0,0.1l0.3-0.2l0.2,0.5l0.2,0.7l0.3,0.4l0.4,0.3l0.1,0.6l-0.2,0.4l-0.5-0.1l-0.1,0.4l0.2,0.3l0.7,0.4l1,1
		l0.2,0.2l0.3,0.1l0.7,0.6l0.1,0.2l0.1,0.4l0.3,0.7l0,0.4l-0.1,0.3l-0.4,0.5l-0.2,0.3l-0.1,0.4l0,1.2l-0.3,1.6l0,0.8l0.4,0.2v0.1
		l-0.5,0.3l-0.4,0.4l0,0.4l0.5,0.2l0.2,0l0.5-0.2l1-0.1l0.2-0.1l0.4,0.2l0.5-0.1l0.5-0.2l0.5,0l0.4,0.2l0.3,0.3l0.4,0.2l0.5,0.1
		l-0.1-0.2l0-0.2l0-0.4h0.1l0.1,0.2l0.3,0.2l0.3,0.2l0.3,0.1l0.8,0.6l0.4,0.2l-0.2-0.4l0.1-0.2l0.4,0.1l0.2,0l0.2-0.1l0.3,0l0.2,0.1
		l0.1,0.2l0.1,0.2l0.1,0.4l0.2,0l0.7-0.1l0.2-0.1l0.2,0l0.2,0.2l0.2,0.3l0,0.2l-0.5,0.3l-0.5,0.3l-0.5,0.5l-0.4,0.5l-0.1,0.6
		l0.1,0.4l0.1,0.1l0.2-0.1l0.3,0l0.4,0.1l0.3,0.1l0.5,0.3l-0.3,0.1l-0.4,0l-0.4-0.1l-0.3-0.1l0,0.3l0.1,0.3l0.1,0.3l0.2,0.3l0.4,0.1
		l0.1,0.1l-0.4,0.3l0.4,0.4l0.3,0.4l0.2,0.5l0,0.5l0.3-0.2l0.1-0.1l0.1-0.1l-0.2,0.9l0,0.5l0.2,0.2l0.8,0l0.3,0.1l0.4,0.2l-0.5-0.1
		l-0.6,0.1l-0.4,0.3l0.1,0.5l-0.1,0.1l-0.1,0.2l-0.1,0.1l0.2,0.2l0.1,0.2l0,1l0,0.3l0.1,0.3l0.5,0.9l0.2,0.5l0.1,0.7l0.2,0.3
		l0.6,0.1l1.1-0.1l0.5,0.1l0.4,0.2l0.4,0l0.4-0.4l-0.1,0.3l-0.2,0.2l-0.5,0.3l-0.3-0.1l-0.2,0.2l-0.3,0.7l0.2,0.1l0.8,0.2l-0.1,0.5
		l-0.1,0.3l0,0.2l0.2,0l0.2-0.1l0.2-0.1l0.2-0.1l-0.2,0.2l-0.2,0.5l-0.1,0.2l-0.2,0.1l-0.1,0l-0.1,0l-0.2,0l0.2,0.2l1.1,0.3
		l-0.2-0.2l-0.1-0.2l0-0.2l0.3,0l0.2,0.2l0.1,0.3l0.2,0.1l0.3-0.3l0,0.4l0.2,0.3l0.3,0.1l0.3-0.1l0.2-0.4l0-0.9l0.2-0.4l0,0.1l0,0.1
		l0,0l0.1,0v0.1l-0.1,0.3l-0.2,1.2l-0.1,0.2l-0.1,0.2l-0.1,0.2l0,0.3l0,0.2l0.1,0l0.2,0l0.2,0l0.7,0.2l0.4,0l0.3-0.1l0.2-0.3
		l-0.1-0.3l-0.2-0.3l-0.2-0.2l1,0.5l0.6,0.2l0.5,0.1l0.1-0.3l0.2-1.4l0.1-0.5l0.2,0.2l0,0.8l0.1,0.3l0.3-0.3l0.2-0.1l0.1,0l0.1,0.2
		l0,0.3l0.1,0.2l0.1,0.1l0.2,0l0.2,0l0.1,0.1l0.1,0.2l0.2,0.1l0.2,0.1l0.2,0.1l0-0.1l0.2-0.1l0.2,0l0.1,0.1l0,0.2l0.1,0.2l0.1,0.2
		l0.1,0.1l0.2-0.1l0.2-0.4l0.3-0.8l-0.2-0.5l-0.5-1.8l0.2,0.1l0.4,0.3l0.3,0l0,0.2l-0.1,0.5l0.1,0.5l0.3,0.4l0.3,0.3l0.3,0.2v0.1
		h-0.3l-0.1,0.1l-0.1,0.4l0,0.1l0,0.4l-0.1,0.1l-0.3,0.2l-0.1,0.1l0.2,0.4l0.4,0.3l0.3,0l0.1-0.5l0.5,0.5l0.3,0.3l0.2,0l-0.1-0.4
		l-0.2-0.6l0-0.4l0.1-0.4l0.3-0.8l0.1-0.4l0-0.1l-0.2-0.3l-0.1-0.1l0-0.2l0-0.6l0.5,1.3l0.4-0.7l0.1-0.1l0.3-0.1l0.1-0.1l0.1,0
		l0.2,0l0.1,0l0.1-0.1l0-0.1l-0.1-0.1l0,0l0-0.1l0-0.2l0-0.2l0.2-0.1l0.2,0l0.1,0.1l0,0.2l0.1,0.2l0.3,0.1l0.3-0.1l0.2-0.2l0.2-0.3
		l0-0.1l-0.1-0.2l0-0.2l0.2,0l0.1,0.1l0.1,0.2l0,0.2v0.2l0.6-0.4l0.9-0.1l2.2,0l1.9,0l1.5,0l0-2.9l0-2.2l0-1.7l0.4-0.9l1,0l0.3,0.4
		l0.1,1.2l0.4,0.3l0.2-0.2l0.6-1.1l0.1-0.2l0-0.2l0.1-0.1l0.3,0l0.2,0.1l0.2,0.1l0.1,0.2l0.4,0.7l0.3,0.3l0.3,0l0.5-0.2l0.8-0.4
		l0.4-0.1l0.5,0.1l1.1,0.5l0.3,0.1l0.7-0.1l1.4-0.5l5.3,0.1l0.6,0.3l1.5,1.6l0.8,0.4l1,0.1l3.8-0.1l0.8-0.2l0.7-0.6l0.2-0.4l0.5-1.3
		l0.2-0.3l0.2-0.1l0.7-0.1l1.1-0.4l0.4,0l0.4-0.1l0.7-0.5l0.4-0.2l1-0.1l0.3-0.1l0.9-0.6l2-0.5l0.8,0l0.2,0.5l-0.1,0.2l-0.3,0.2
		l-0.1,0.1l0,0.2l0.2,0.7l0.1,0.8l0.1,0.3l0.3,0.3l0.7,0.3l2.5,0.2l0.4-0.1l0.7-0.4l0.4-0.1l0.3-0.1l0.1-0.1l-0.3-0.3l-0.1-0.4
		l0.3-0.4l1.2-0.8l0.4-0.1l0.4,0l0.4,0.2l0.4,0l0.2-0.2l0.1-0.2l0.2-0.2l0.9-0.3l0.2-0.2l-0.1-0.5l-0.7-0.2l-0.8-0.1l-0.4-0.2
		l-0.1-0.1l0-0.2l0-0.2l0-0.2l0-0.4l0.1-0.1l0-0.1l0-0.1l-0.1-0.1l-0.4-0.3l-0.1-0.6l0.1-0.6l0.3-0.5l1.2-0.6l0.4-0.3l-0.5-0.8
		l-0.6-1.8l-1.1-1.8l-0.5-1.1l-0.4-1.1l-0.6-2.9l-0.2-0.5l-0.3-0.4l-1.2-1l-0.6-0.7l-0.2-0.4l-0.1-0.5l-0.1-0.5l-0.8-0.8l-0.3-0.4
		l-0.1-0.7l0.1-2.4l0.1-1.8l-0.1-0.8l-0.4-0.6l-0.8-0.2l-0.7,0.2l-0.7,0.3l-0.7,0.2l-2.2,0.1l-1.1-0.2l-0.7-0.3l-0.3-0.2l-0.3-0.5
		L444,400l-0.3-0.4l-0.8-0.7l-0.7-0.9l-0.6-1l-0.4-1.1l0-0.3l0.2-1.1l0-0.7l0.1-0.3l1-1.7l0.3-0.8l0.1-0.8l-0.1-0.8l0-0.4l0.1-0.4
		l0.2-0.4l0.1-0.4l-0.1-0.8l0.1-1.7l-0.1-0.8l-0.5-0.7l-0.7-0.4l-0.7-0.2l-4.5,0.2l-0.8-0.3l-1.4-1.2l-0.8-0.5l-2.9-1.2l-0.6-0.7
		l-0.1-0.9l0.4-2.5l0.4-2.6l0.5-1.6l0.8-1.3l1.7-1.7l1.2-0.9l2.2-2.1l1.1-1.8l1.6-1.6l0.4-0.6l1.4-4.1l0.2-0.4l1.8-1.9l1.3-0.9
		l1.1-1.2l0.3-0.2l0.3-0.1l0.7-0.1l0.7-0.3l0.4-0.1l0.4,0.1l0.6,0.2l0.5,0.3l0.5,0.4l0.6,0.7l0.5,0.4l0.2,0.3l0.2,0.4L452,356
		l0.1,0.4l0.6,1.4l0.7,1.1l1,0.7l1.3,0.2l1.5-0.3l2.2-1.1l2.3-1.2l1.4-0.5l1.6-0.3l1.6-0.1l1.5,0.1l1.6-0.1l2.7-0.8l3-0.9l0.3-0.2
		l0.1-0.3l0.2-2.6l0.1-0.4l0.2-0.4l1.5-2l2.3-1.9l0.7-0.8l0.5-0.9l0.4-1l1.1-4.3l0.5-0.9l1.4-1.7l0.5-0.4l2.7-1.4l2.5-1.3l2.2-1.1
		l2.4-1.3l0.3-0.2l0.2-0.3l0.6-1.5l0.5-0.8l1.2-1.6l1.5-2.8l0.9-1.8l1-2l1-3.2l0.8-2.6l0.8-2.6l0.3-0.3l3.3-1.5l3.4-0.8l0.7-0.4
		l3.1-2.6l0.1-0.6l-0.3-1l-0.4-0.9l-0.4-0.6l-0.9-0.5l0.1-0.1l0.1-0.3l0.3-0.3l0.4-0.2l0.4,0l0-0.1l0-0.3l0-0.1l0.3,0.1l0.2,0
		l0.2-0.2l1-1.3l0.1-0.3l0.2-0.2l0.7-0.2l0.3-0.3l0.1-0.5l-0.1-0.4l0-0.4l0.2-0.4l0.3-0.3l0.3-0.2l0.3-0.2l0.4-0.2l0.4-0.1l0.1-0.1
		l0.1-0.3l0.1-0.2l0.3-0.2l0.1-0.4l0.1-0.2l0.3-0.3l0.4-0.6l0.2-0.2l0.3-0.2l0.1-0.2l0-0.2l-0.2-0.4l0.1-0.1l0.4-0.1l0.4-0.3
		l0.2-0.4l-0.1-0.4l0.1-0.2l0.2-0.2l0.2-0.1l0.2-0.1l0.2,0l0.5,0.1l0.4,0l0.1-0.2l0.1-0.3l0.2-0.4l0.3-0.3l0.3-0.2l0.4-0.1l0.4,0
		l0.4-0.1l0.3-0.3l0.3-0.3l0.3-0.3l0-0.5l0.3-0.4l0.4-0.3l1.1-0.6l-0.2-0.2l-0.3-0.3l-0.3-0.2l-0.4,0l-0.8,0.1l-0.3-0.1l-0.3-0.3
		l-0.2-0.3l-0.1-0.3l-0.1-0.4l0.1-0.4l0.3-0.9l0-1l0.1-0.5l0.7-1.9l0.2-0.4l0.3-0.4l0.2-0.4l0.1-0.4l0-0.4l-0.6-0.9L526,275
		l-1.1-1.9l-0.2-0.2l0.1-0.1l0.2-0.4l0,0l0.1-0.1l0.1,0l0-0.1l0.1-0.3l0-0.1l0.1-0.2l0.1-0.1l0-0.1l0-0.3l0.1-0.5l0.2-0.4l0.3-0.3
		l1.4-1.1l0.3-0.1l0.2-0.2l0.5-1l1.2,0.3l0.4-0.1l0.4-0.6l0.2-0.8l0.3-0.5l0.8,0.3l0.3-0.4l0.4-0.1l0.4,0l0.5-0.1l0.2-0.1l0.1-0.2
		l0.1-0.2l0.1-0.2l0.2-0.1l0.5,0l0.2,0l-0.1-0.6l0.3-0.1l1.2,0.4l0.2,0l0.2-0.1l0.2-0.2l0.2-0.1l0.4,0.1l0.2,0l0-0.5l0.4-0.4
		l0.6-0.3l0.4-0.2l0.3,0l0.6,0l0.1-0.2l0.2-0.8l0.2-0.4l0.6-0.7l0.2-0.4l-0.1-0.5l-0.5-0.6l-1.8-1.5l-0.6-0.4l-1.3-0.3l-0.6-0.4
		l-0.7-0.6l-0.6-0.2l-0.6,0.1l-0.8,0.3l-0.8,0.1l-1.3-0.7l-0.7,0l-0.7,0.2l-0.7,0l-0.7-0.2l-0.5-0.6l-0.6-1.6l-0.1-0.4l0.1-0.4
		l0.2-0.4l0.2-0.4l0-0.4l-0.1-0.9l0-0.5l0.1-0.5l0.5-0.9l0.1-0.5l-0.1-0.5l-0.3-0.2l-0.3,0.1l-0.3,0.3l-0.2,0.4l-0.1,0.4l-0.1,0.3
		l-0.4,0.3l-0.4,0.1l-1,0.2l-0.4,0l-0.3-0.2l-0.5-0.6l-0.3-0.2l-0.4,0l-0.6,0.4l-0.4,0.1l-0.4-0.1l-0.3-0.2l-0.2-0.3l-0.2-0.4
		l0.3-0.5l0.2-0.4l0.1-0.5l-0.2-1.1l0-1.1l-0.2-0.5l-0.5-0.3l-1.8-0.3l-0.7-0.4l-1-1.4l-0.6-0.6l-0.7-0.5l-0.5-0.5l-0.3-0.7l0.1-1
		l0.2-0.4l0.3-0.2l0.7-0.3l0.3-0.2l0.2-0.3l0.2-0.3l0.2-0.4l0.6-1.6l0.4-1.7l-0.3-1.2l-1-0.8l-1.2-0.7l-0.9-0.8l-0.2-0.3l-0.1-0.3
		l0-0.3l0-0.7l0.1-0.3l0.1-0.3l0.1-0.3l0.6-1.2l0.4-0.4l2-0.4l0.7-0.3l0.7-0.5l0.5-0.5l0.4-0.7l0.2-0.7l-0.2-0.7l-0.6-0.4l-0.7,0
		l-0.7,0.2l-0.7,0l-1-0.4l-0.4,0l-1.3,0.3l-0.6-0.1l-0.6-0.4l-0.4-0.6l-0.2-0.7l0.2-0.7l0.4-0.5l1.1-0.6l0.4-0.3l0.1-0.5l-0.1-0.5
		l-0.3-0.4l-0.4-1.1l-0.3-0.4l-0.6-0.1l-0.5,0.1l-0.5-0.1l-0.5-0.2l-0.5-0.3l-0.4-0.4l-0.1-0.5l0.1-0.6l0.3-0.5l0.2-0.2l0.5-0.3
		l0.2-0.2l0.1-0.3l0-0.9v0l0.3-0.5l0.9-0.6l0.3-0.5l0-0.6l-0.2-0.6l0-0.5l0.6-0.5l0.3-0.1l3-0.5l0.5-0.3l1.4-1l1.2-0.5l1.2-0.1
		l1.2,0.2l4.8,1.7l6.7,1.3l1.8-0.1l1.2-0.3l0.7,0l0.5,0.3l0.3,0.4l0.3,0.3l0.8,0.6l0.8,0.4l5,1.3l0.8,0l1.1-0.3l0.4,0l0.8,0.1
		l0.4-0.1l0.4-0.3l1.1-1.1l1.2-0.9l0.5-0.2l0.1-0.1l0.3-0.3l0.4-0.7l0.3-0.3l0.7-0.1l1.2,0.5l0.6,0l2-0.5l2.6-1.5l0.7-0.3l0.7,0.1
		l0.8,0.6l0.3,0.1l0.3,0l1.6-0.4l0.2-0.1l1.7-1.7l0.2-0.4l-0.1-1.2l0.2-0.5l0.5-0.4l0.7-0.2l0.7-0.1l0.5,0.1l0.5,0.3l0.3,0.1
		l0.2-0.2l0.4-0.4l1.1-0.9l0.3-0.4l0.1-0.7l-0.2-0.6l-0.1-0.6l0.4-0.5L573.1,196.2z"/>
</g>

</svg>
