<?xml version="1.0" encoding="utf-8"?>

<svg version="1.2" baseProfile="tiny" xmlns="http://www.w3.org/2000/svg" xmlns:xlink="http://www.w3.org/1999/xlink" x="0px"
	 y="0px" viewBox="288.2 172.1 264.2 250" xml:space="preserve">

<g id="Poland">
	<g>
		<polygon fill="#FFFFFF" points="546.4,258.6 546.3,258.4 546.2,258.1 546.1,257.6 546.2,257.3 546.5,256.7 546.6,256.4
			546.6,256.1 546.3,254.8 546.3,254.6 546.4,254 546.4,253.7 546.1,253.1 545.3,252.1 545,251.3 545.1,250.5 545.3,249.9
			545.7,249.3 545.9,248.7 546,247.6 545.7,247.1 545.2,246.7 544.8,246.2 544.4,245.5 544.2,244.9 544,244.3 543.5,243.6
			543,242.4 542,238.2 541.4,236.8 540.2,234.2 538,227.3 537.3,224.3 537.3,221.5 536.6,220.6 536.4,219.7 536.1,217.3
			535.9,216.2 535.5,215.2 535.2,214.1 535.2,212.8 535.3,212.5 535.3,212.3 535.2,212 535.1,211.8 534.8,211.6 534.6,211.3
			534.5,210.9 534.5,210.4 534.6,210.2 534.7,209.9 535,209.7 535.4,209 535.4,208 535,205.9 534.8,204.9 534.5,203.9 534.2,203
			533.8,202.4 533.5,202.3 533,202.1 532.7,201.9 532.5,201.6 532,200.7 531.7,200.3 530.7,199.4 528.6,198.6 527.6,198 526,196.6
			525.5,196.3 525,196.5 524.3,196.7 523.7,196.7 523.3,196.1 523.3,195.6 523.4,195.1 523.5,194.7 523.4,194.5 522.5,194.4
			522.2,194.2 522,193.9 521.9,193.5 521.7,193.1 521.5,192.8 521.2,192.8 520.6,192.9 520.3,192.9 518.7,192 518.1,192
			517.5,192.3 516.8,193.6 516.3,194 514.5,194.6 509.5,194.3 503.3,194 488.6,193.2 477.2,192.6 467.7,192.1 452.5,191.3
			442.3,190.8 434.8,190.4 433.5,189.9 432.9,189.5 432.3,189.6 430.7,191.3 429.9,191.7 428.9,191.9 426.7,193 416.8,194.5
			416,194.2 415.7,194.1 415.5,193.8 414.7,194.3 413.7,194.2 409.2,192.8 408.8,192.2 408.6,191.8 408.3,191.5 407.8,191.4
			407.5,191.3 407.1,191.2 406.3,190.6 405.9,190.5 405.5,189.7 405.4,188 405.3,186.2 405.4,185.2 405.2,184.8 404.6,182.7
			404.2,182.2 404,181.6 404.2,180.9 403.8,181.4 403.3,181.5 403,181.2 403.1,180.3 402.8,179.9 402.8,179.6 402.9,179.3
			402.9,179 402.6,178.1 402.2,177.6 402.1,177.4 401.5,177.1 401.4,176.9 401.4,176.3 401.4,176 401.8,174.7 401.9,174.5
			402.2,174.3 402.5,174.4 403.3,175.1 403.6,175.5 405.1,176.2 406.7,177.3 407.5,177.5 407.7,178 408,178.1 408.9,178.3
			409.1,178.4 410.4,180.5 410.8,181.1 411.2,181.9 411.6,182.3 411.8,182.6 411.9,182.9 412.1,183.1 412.5,182.9 412.5,182.2
			412.2,181.5 412,181.1 410.3,178.9 401.3,173.5 400.7,173.4 400.4,173.2 399.4,172.3 398.8,172.1 394.5,172.1 387.4,172.8
			382.9,174.3 372.9,176.2 365,179.9 362.5,182.7 361.5,183.1 360.3,183.3 358.2,184.1 352.7,184.9 350.9,186.1 349.9,187
			349.4,188.1 349.8,187.7 350.2,187.5 350.3,187.7 350.2,188.3 349.8,188.7 349.4,188.9 349.1,188.8 349.3,188.3 349.3,188
			346.3,192 345.1,193.9 345.5,193.5 345.8,193.3 346.3,193.3 346.6,193.9 346.3,194.3 345.4,194.7 345,195.2 344.6,195.3
			344.1,195.4 343.9,195.5 344.1,195.2 344.7,194.6 345,193.9 343.4,195.8 342.3,196.5 341.4,197 342.8,196.5 343.4,196.6
			343.4,197.3 343.5,197.4 343.5,197.4 343.6,197.4 343.6,197.6 342.3,197.6 342.3,198 342.5,198 342.5,198.3 340.2,198.7
			339.6,198.3 340.9,197.7 341.2,197.3 338.3,198.3 334,198.9 328.9,201.2 323.7,202.6 319,203.9 311.7,206.9 305.6,208.5
			298.7,211.7 296.8,213 295.8,213.6 294.7,213.8 292.1,213.6 291.3,213.3 291,213.1 290.6,212.9 290.1,214.1 289.9,214.2
			289.6,214.3 290.1,214.9 290.3,215.6 290.4,215.6 291,215.9 292.2,217.7 292.7,218 293,218 293.4,218.2 293.6,218.2 294,218.2
			294,218.1 293.6,218 293.6,217.7 294,217.6 294.4,217.5 295.1,217 295.3,217.2 295.7,217.1 295.9,216.7 296.1,216.1 295.8,215.8
			295.4,215.6 294.6,215.5 294.8,215.2 295,214.9 295.2,214.6 295.4,214.5 295.7,214.6 295.9,214.7 296.1,214.7 296.4,214.2
			296.5,214.4 296.5,214.4 296.6,214.5 296.2,215.4 296.6,215.9 299.5,216.2 300.2,216.5 300.5,217.3 300.4,217.5 300.1,217.8
			300,217.9 300.1,218.2 300.3,218.3 300.5,218.5 300.7,218.6 300.5,218.3 301.2,217.6 301.4,217.3 301.4,216.7 301.6,216.7
			301.5,217.6 301.3,218.4 301.2,219.3 301.4,220.4 301,220.4 300.7,220.5 300.5,220.6 300.2,220.3 299.5,222.3 299.3,223.3
			300.2,225.3 300.5,225.4 301.2,225.5 301.4,225.5 301.4,225.8 301.4,226 301.4,226.1 301,226.4 300.8,226.7 300.7,227.1
			300.6,227.8 300.5,227.9 300.2,227.5 299.3,225.9 298.9,225.3 298.4,224.9 297,224.4 295.9,224.2 295.6,224 295,223.4
			294.3,223.1 293.9,222.8 293.6,221.9 293.3,221.7 292.9,221.5 292.7,221.3 292.5,221.6 292.8,221.8 292.9,221.9 292.8,222.1
			292.5,222.2 293,222.6 293,222.9 292.6,223.3 292.1,223.5 291.9,223.5 291.9,224.7 291.8,225.4 292.2,226.3 292.8,228
			292.8,228.4 292.7,230.1 292.8,231.1 293,232 293.6,233 293.9,233.9 294.4,234.8 294.7,237.1 295.4,240.5 295.5,240.9
			295.5,241.7 295.5,242.1 295.7,242.4 296.1,242.7 296.2,243 296.6,243.3 295.9,244.6 295.7,244.9 295.4,245.1 295.1,245.5
			294.9,246 294.9,246.6 295,247.3 295.1,248 295.2,248.6 294.4,251.1 294.3,251.5 294,252.2 293.2,253.1 291.6,254.3 290,255.1
			288.7,256.1 288.7,256.4 288.9,256.8 289.2,258.3 289.3,258.9 289.2,259.7 288.9,260.2 288.2,260.9 288.5,261.5 289,261.9
			289.5,262 290.1,262.1 290.7,262.3 291.5,263.3 292.3,263.7 295,265.8 295.4,266.2 296.3,268 296.6,268.3 297.1,268.5
			297.9,269.6 299.4,270.2 301,272 301.8,272.7 301.1,274.3 300.9,275.3 301.4,275.7 301.5,276.2 301.1,277.2 300.5,278.2
			299.1,279.4 299.3,281.2 299.9,283 300.5,284.3 300.3,285.1 300.9,285.8 301.8,286.2 302.6,286.4 303.3,286.7 303.7,287.5
			303.7,288.3 303.2,289 303.2,289.3 303.6,289.9 303.5,290.5 303.2,291.3 303,292.4 303.3,293 305,294.3 304.5,294.9 304.3,295.3
			304.3,295.6 304.2,296 304.1,296.4 303.8,297 539.8,297 539.5,295.5 539.3,295 539.2,294.5 539.1,294 538.8,293.7 538.6,293.6
			538.4,293.4 538.3,293 538.1,292.7 537.6,292.4 536.3,292.4 535.8,292.2 535.1,290.8 535.2,290.6 535.3,290.1 535.2,289.7
			534.8,290.2 534.6,290 534.3,289.7 534.2,289.5 533.9,290 533.6,289.9 533.4,289.7 533,289.6 532.7,289.7 532.6,289.6
			532.8,289.2 532.8,289 532.2,288.9 530.6,288.3 530.2,288 529.8,288.1 528,287.6 527.4,287.2 527.6,286.5 527.5,285.9
			527.2,285.5 526.8,285.1 526.7,285.1 527.9,282.6 528.4,281.9 529.5,280.6 532.7,275.6 535,273.7 537.3,272.3 541.7,271.1
			545.3,268.7 546.3,267.4 546.7,265.5 546.4,258.9 		"/>
		<polygon fill="#DC143C" points="303.6,297.5 303.4,297.9 303.3,300.5 303.1,301.3 302.7,302.1 302.2,302.7 300.7,304.3 300.3,305
			300.4,305.9 300.8,306.6 301.3,306.9 301.7,307.4 301.8,308.5 302,309.6 302.6,310.3 303.9,311.4 304.3,312.1 304.5,313.2
			304.6,314.3 304.3,315.1 303.7,315.9 303.5,316.8 303.6,317.5 304.2,318.1 306,318.7 306.5,319.1 307.1,319.5 308.3,319.8
			308.9,320.1 309.3,320.4 309.8,320.9 310.1,321.5 309.9,322.1 310.1,325 310.1,325 310.2,325.8 310.3,326.1 310.8,326.9
			311.4,327.6 311.8,328.5 311.6,329.7 311.7,329.8 311.8,329.9 311.4,330.8 311,332 310.8,333.1 310.8,334.2 310.7,334.7
			310.6,335 310.4,335.2 310.2,335.5 310.2,335.9 310.2,336.7 310.1,337.1 308.9,340.1 307.6,343.3 306.7,344.4 306.3,344.9
			306.3,345.7 306.9,345.7 307.8,345.5 310.9,345.7 310.9,345.3 310.9,343.9 310.9,343.8 310.9,343.6 310.9,343.4 311,343.2
			311.2,342.9 311.3,342.7 311.3,341.5 310.9,340.9 310.4,340.6 310.3,340.1 310.4,340 310.6,339.9 310.7,339.8 310.9,339.8
			311.3,339.5 311.4,339.3 311.5,339 312,339.4 313.3,339.7 313.5,340.1 313.8,340.4 314.2,340.6 314.5,340.6 314.6,340.1
			314.8,339.6 315.2,339.3 315.5,339.5 315.6,340.1 315.8,340.8 317.5,340.7 318.1,341 318.6,341.7 318.5,342.1 318.3,342.5
			318.1,343.3 318.2,343.9 318.4,344.6 318.7,345.3 319,345.8 319.5,346.2 320,346.4 320.4,346.8 320.7,347.6 320.7,348
			320.6,348.4 320.6,348.8 320.8,349.1 321.1,349.3 321.4,349 321.7,348.5 321.9,348.2 323,348.1 328.3,350 328.6,350.2 329,350.7
			329.2,350.9 329.4,351 331.6,350.5 332.3,350.6 332.3,350.8 332.4,351.1 333.7,353.4 333.9,353.4 334.6,353.4 336.2,352.8
			336.6,352.9 337,353.2 337.3,353.9 337.5,354.5 337.7,355 337.6,355.5 337.2,355.8 337.2,356 337.2,356.1 337.2,356.2
			337.2,356.3 338.4,356.1 340,354.6 341.1,354.7 341.9,355.3 342.3,355.5 342.8,355.4 343.1,355 343.3,354.5 343.5,354 343.8,354
			344.8,354 345.7,354.2 346.5,354.7 348.7,357 348.9,357.8 348.1,358.2 348.2,358.5 348.2,358.6 348.1,358.7 348,359 348,359.2
			348,359.5 348,359.7 348,359.7 347.8,360.1 347.3,360.7 347,361 346.6,361.1 345.7,360.9 345.3,361 345.1,361.5 344.7,361.8
			344.2,362.1 343.8,362.4 343.7,362.5 343.5,362.7 343.3,362.7 343.4,363.1 343.5,363.3 342.9,363.1 342.7,363.8 343,364.5
			343.8,364.7 344.2,365.8 344.3,366 344.6,366.3 344.8,366.2 345,366.1 345.3,366 346.7,366 347,366 347.1,366.4 347.2,366.8
			347.1,367.2 347.2,367.6 347.6,368.2 348.8,368.6 349.4,369 349.8,369.5 350.4,370.8 350.8,371.3 351.1,371.9 351.9,372.7
			352.2,373.5 352.5,374.9 352.8,375.4 353.2,376 354.1,376.8 355.2,377.4 356.3,377.4 357.1,376.2 357.7,375.8 358,375.3
			358.3,374.8 358.8,374.1 359.4,373.6 359.9,373.5 360.4,373.5 361,373.4 361.3,373.1 361.7,372.5 362,372.3 362.3,372.3
			362.8,372.5 363,372.5 363.1,372.3 363.1,371.8 363.1,371.7 363.5,371.7 363.7,371.8 363.8,372 364.1,372.5 364.4,372.6
			364.5,372.2 364.5,371.7 364.1,371.2 364.1,370.2 363.9,369.5 363.4,369 362.7,368.6 362.2,368.1 362,367.3 361.8,366.5
			361.5,365.7 360.6,364.4 360.6,363.9 361.3,363.4 361.9,363.5 363.1,364.2 363.6,364.1 366.4,364.9 366.7,365.1 367.3,365.6
			367.6,365.8 368,365.8 368.8,365.6 369.1,365.7 369,365.8 369.1,366.3 369.3,366.8 369.5,367.2 369.7,367.4 370.6,368
			371.3,368.2 372.5,368.2 373.1,368.4 372.6,368.6 372.6,368.8 372.7,368.9 372.8,369 373,369.1 372.9,369.6 373,370.2
			373.2,370.6 373.5,370.9 373.8,370.1 374.4,370.1 375,370.5 375.2,371.3 375.4,371.4 375.5,371.4 375.6,371.4 375.8,371.3
			376.5,370.4 377.8,370.2 380.1,370.7 380.7,370.5 381.2,370.1 382,369 382.1,368.7 382.2,368.4 382.4,368.3 382.8,368.5
			382.9,368.6 383.4,369.3 383.5,369.4 383.5,369.5 383.5,369.6 383.4,369.7 383.1,370.5 383.1,370.9 383.1,371.3 383.4,371.6
			383.8,372.3 383.6,373 383.1,373.4 381.9,374.1 381.2,374.4 380,374.4 379.7,374.5 379.5,374.9 379.5,375.2 380.8,376.8
			381.2,377 381.5,377 381.7,376.8 382,376.8 382.4,376.9 383.1,377.2 383.5,377.3 383.5,377.3 383.5,377.4 383.5,377.4
			383.5,377.4 383.2,377.6 383.2,377.9 383.2,378.1 383.5,378.3 383.7,378.7 383.9,379.2 384.1,379.7 384.3,380.2 384.6,380.6
			386.3,382.2 387.3,382.4 388.2,382.2 389,381.5 389.5,381.3 390.5,381.3 391.4,381 391.5,380.9 391.5,380.5 391.3,380.2
			391,380.2 390.8,380.2 390.7,380.2 390.6,379.2 391.4,379.4 392.9,380.5 392.7,381.2 393.1,381.6 394.8,381.9 395.2,382.2
			396,382.9 396.4,383 397,383.1 397.3,383.3 397.4,383.6 397.5,384.2 397.7,384.5 398.2,384.9 398.6,384.8 399.3,384.2
			399.3,384.1 399.3,384.1 399.2,384.1 399.2,384.1 400.2,383.9 401.3,384.3 403.2,385.4 403.8,385.4 404.8,384.7 405.2,385
			405.4,385.7 405.3,386.4 405.4,386.9 406.1,387.3 405.4,388.1 405.4,389.2 405.9,390.4 406.5,391.7 406.8,392.9 406.9,393.2
			407.3,393.4 408.1,393.5 408.5,393.6 408.8,393.9 409.3,394.5 409.6,394.7 410,394.7 410.4,394.5 410.8,394.4 411.2,394.7
			411.3,395 411.5,396.4 411.6,396.8 411.9,397.5 412.1,397.9 412.4,399.6 412.5,400.4 412.4,401.1 415,401.3 415.8,401.8
			415.6,402.5 415.6,403.1 415.7,403.6 415.8,404.2 415.7,405.6 415.8,406 416.3,406.1 417,406.1 418,405.5 418.6,405.3
			418.8,405.4 419.4,405.8 419.6,405.9 419.9,406 420.6,405.8 421.4,405.5 421.6,405.2 421.6,404.7 421.8,403.9 421.9,403.9
			422.2,403.9 422.3,403.8 422.4,403.5 422.4,403.3 422.3,403.2 422.2,403.1 422.7,401.8 423,401.2 423.4,400.8 423.9,400.6
			424.4,400.5 425.2,400.5 425.4,400.5 425.8,400.4 426,400.2 428.3,397.7 428.4,397.5 428.5,397.4 428.8,397.6 429.3,398.4
			429.5,398.6 430.1,399 430.4,399.8 430.9,401.8 431.4,403.1 431.5,403.4 432,403.8 432.5,403.9 433.6,403.9 433.4,404.2
			433.4,404.4 433.4,405 433.4,405.5 434.9,406.1 435.5,406.1 436,406.1 436.9,405.7 437.2,405.9 437.4,406.7 437.5,407.3
			437.7,409.3 437.7,409.5 437.5,409.8 437.5,409.9 437.6,410.1 437.9,410.3 438,410.4 438.2,410.7 438.2,410.8 438.1,411.1
			438,411.2 437.8,411.2 437.7,411.3 436.7,412.9 436.6,413.4 436.9,413.9 437.6,414.1 438.8,414.2 439.4,414 440.3,413.1
			440.7,412.7 441.5,412.6 442.3,413 443.6,414.3 444.5,414.7 445,414.3 445.3,413.3 445.4,411.9 445.8,411.5 446,411.1
			446.1,410.6 446.6,409.5 446.8,409.3 446.9,409.4 447.5,409.4 447.7,409.2 448.3,408.5 448.7,408.3 450.7,408.1 450.9,407.9
			451.1,407.4 451.2,406.8 451.3,406.4 451.4,406.2 451.6,406 451.9,406 453,406.4 454.4,406.3 454.4,405.7 454.8,405.6 457,406.7
			457.6,406.8 458.2,406.6 458.5,406.3 458.9,405.8 459.2,405.6 459.4,405.6 460,405.7 461,405.5 461.4,405.6 463.8,408.4
			464.2,408.7 464.8,408.8 465.2,408.7 465.6,408.8 466.1,409.2 466.6,409.6 467,409.9 467.5,410 468.1,409.8 468.7,409.3
			469.6,408 470.1,407.5 470.5,407.4 471.1,407.4 471.6,407.3 471.8,406.9 471.5,406.3 470.9,406 470.5,405.6 471,405 471.4,404.8
			472.5,404.6 472.9,404.7 473.4,405 473.7,405.4 474.1,405.6 474.7,405.6 475.2,405.1 476,403.9 476.5,403.6 476.8,403.7
			478.3,404.5 480.9,405.2 481.3,405.2 482.3,405 482.7,405.1 483.6,404.8 485.4,404.6 485.9,404.7 486.2,404.9 486.7,405.3
			487,405.5 487.2,405.6 487.6,405.5 487.8,405.5 488.3,406 489.2,407.3 489.6,407.7 489.8,407.5 490.2,407 490.7,406.6
			491.2,406.5 491.7,406.8 492.6,407.7 494.1,408.4 495,409.3 495.8,410.5 496.1,411.9 496.3,413.2 497.1,413.8 498.9,414.1
			499.8,414.7 500.1,414.8 500.3,414.8 501,414.8 501.2,414.8 501.5,415.1 501.5,415.4 501.4,415.7 501.5,415.9 501.5,416.3
			502.8,416.6 504.2,416.6 504.8,416.8 506.1,418.2 507.1,418.5 509.1,418.5 510.1,419 510.6,418.5 511.1,418.6 512.1,419.7
			512.8,420.1 513.4,420.2 513.9,420.1 514.9,420.2 515.5,420 515.8,420 516,420.3 516.5,421 516.8,421.1 517.3,421.3 517.9,421.9
			518.4,422.1 518.7,421.5 518.6,421.3 518.2,420.5 518.1,420.2 518.1,419.6 518.4,418.9 518.4,418.5 518,418.1 516.8,417.5
			516.3,417.1 515.6,416.1 514.7,415.5 514.8,415.4 514.9,415.4 514.5,415.1 514.1,415.6 514,415.7 513.8,415.5 513.9,415
			514.4,414.1 514.7,412.7 515.1,411.5 515.2,410.9 514.9,407.1 514.8,406.5 514.6,406.2 514.1,405.6 513.7,405.1 513.7,404.8
			513.6,404.4 513.4,402.6 513.2,402 512.7,400.6 513.4,399 515.4,396.3 515.8,395 516,394.7 516.3,394.4 516.9,394.3 517.2,394.1
			517.6,393.7 519.2,390.7 519.5,390.4 519.8,390.3 520.2,390.1 520.4,389.9 520.6,389.6 520.8,388.7 520.9,388.4 522,387.3
			524.9,383.1 525.9,381.9 526.9,381.1 527.7,379.9 533.7,373.4 534.9,372.5 536.3,371.4 537.1,370.7 539.2,368.5 539.5,367.9
			539.9,366.8 540.2,366.2 540.6,365.8 541,365.6 541.9,365.3 546.7,365.2 548.1,364.6 548.7,363.3 548.8,362.8 548.9,362.3
			548.8,361.5 548.9,361 550.6,360.1 551.1,359.6 551.4,359.1 551.4,359 551.3,358.9 551.1,358.3 550.9,356.4 551.5,355.3
			550.8,353.7 550.6,352.8 550.8,351.9 550.1,351.7 549.4,351.3 549,350.6 549.3,349.9 549.3,349.7 548.6,349.6 548,349.3
			547.6,348.7 547.5,347.9 547.9,347.2 548.5,346.7 549.2,346.6 549.9,347 550.4,346.8 551.3,346.8 552.1,346.6 552.4,345.9
			552.1,345.4 549.9,344.2 548.1,342.5 547.7,341.8 547.6,341.3 547.5,340.9 547.5,340.6 547.2,340.2 546.8,339.9 546.5,339.8
			546.3,339.6 546.4,339.3 546.4,339 546.1,337.3 545.9,336.7 545.2,335.7 544.8,334.8 544.9,334.4 545.3,334.2 545,333.7
			543.8,332.4 542.4,331.6 541.8,330.9 540.4,327.6 539.9,327.3 539.4,327.3 539,327.1 538.9,326.2 539,325.6 539.4,325
			539.8,324.5 540.3,324.3 540.2,323.8 540.2,323.3 540.4,323 540.7,322.9 540.5,322.4 539.4,320.8 539.4,320.5 539.8,319.7
			539.4,319.4 539,319.2 538.6,319 538.4,318.4 538.4,318.1 538.3,317.5 537.9,317.3 537.5,317.1 537.2,316.5 537.3,316.5
			537.5,316.5 536.9,315.5 536.7,314.9 536.6,314.3 536.8,313.1 536.7,312.8 536.5,312.4 536.5,312.1 536.7,312.1 536.8,312
			537.2,311.5 537,311.4 536.9,311.1 536.8,310.8 536.9,310.7 537.1,310.5 537,310.3 536.9,310 536.8,309.8 536.9,308.8 537,308.3
			537.1,308 537.6,307.5 538.1,307.2 538.6,306.7 538.9,305.7 538.4,305 538,304.2 538.3,303.9 538.4,302.9 538.7,302.8
			538.7,302.6 538.7,302.5 538.7,302.5 538.6,302.5 538.7,302 538.7,300.7 538.9,299.9 539.4,298.7 539.7,298.1 540.1,297.8
			539.8,297.1 539.8,297 303.8,297 		"/>
	</g>
	<path vector-effect="none" fill="none" stroke="#999999" stroke-width="0.25" stroke-linecap="round" stroke-linejoin="round" d="
		M432.9,189.5l0.6,0.4l1.3,0.4l7.5,0.4l10.2,0.5l15.3,0.8l9.5,0.5l11.4,0.6l14.7,0.8l6.2,0.3l5,0.3l1.8-0.6l0.5-0.4l0.7-1.3l0.7-0.3
		l0.6,0.1l1.6,0.8l0.3,0l0.6-0.1l0.3,0.1l0.3,0.3l0.2,0.4l0.1,0.4l0.2,0.3l0.3,0.2l0.9,0.1l0.2,0.2l-0.1,0.4l-0.2,0.5v0.5l0.5,0.7
		h0.6l0.6-0.3l0.5-0.1l0.5,0.2l1.6,1.4l1,0.6l2.1,0.8l1,0.9l0.3,0.4l0.5,0.9l0.2,0.4l0.3,0.2l0.6,0.2l0.2,0.1l0.4,0.6l0.4,0.9l0.3,1
		l0.2,1l0.4,2.1v1l-0.4,0.7l-0.3,0.3l-0.1,0.3l-0.1,0.2v0.5l0.1,0.4l0.2,0.3l0.3,0.2l0.2,0.2l0.1,0.2v0.2l-0.1,0.3l0,1.3l0.3,1.1
		l0.4,1l0.3,1.1l0.2,2.4l0.3,0.9l0.6,0.9l0,0l0,0l0.1,2.7l0.6,3.1l2.2,6.9l1.3,2.6l0.5,1.4l1.1,4.1l0.5,1.3l0.5,0.6l0.3,0.6l0.2,0.6
		l0.3,0.7l0.5,0.5l0.5,0.4l0.3,0.5l-0.1,1.1l-0.2,0.6l-0.3,0.5l-0.3,0.6l0,0.9l0.2,0.7l0.8,1l0.3,0.6l0,0.3l-0.1,0.5v0.3l0.2,1.2
		v0.4l-0.1,0.3l-0.3,0.6l-0.1,0.3l0,0.5l0.1,0.3l0.1,0.2l0.1,0.3l0.3,6.6l-0.4,1.9l-1.1,1.3l-3.5,2.4l-4.4,1.3l-2.3,1.4l-2.3,2
		l-3.2,4.9l-1.1,1.3l-0.5,0.8l-1.2,2.5h0.1l0.4,0.3l0.3,0.4l0.1,0.6l-0.2,0.8l0.6,0.4l1.9,0.5l0.4-0.2l0.4,0.4l1.6,0.6l0.6,0.1v0.3
		l-0.2,0.4l0.1,0.1l0.4-0.1l0.3,0.1l0.2,0.2l0.3,0l0.4-0.4l0.1,0.2l0.3,0.2l0.2,0.2l0.4-0.4l0.1,0.3l-0.1,0.5l-0.1,0.2l0.7,1.5
		l0.5,0.2l1.3,0l0.5,0.3l0.2,0.3l0.1,0.4l0.2,0.3l0.2,0.1l0.3,0.2l0.1,0.5l0,0.5l0.2,0.5l0.4,1.6l0.3,0.7l-0.4,0.3l-0.3,0.5
		l-0.5,1.2l-0.2,0.8v1.4l-0.2,0.5l0.1,0h0l0,0v0.2l-0.3,0.2l-0.1,0.9l-0.3,0.4l0.4,0.8l0.5,0.7l-0.3,1l-0.5,0.5l-0.6,0.3l-0.4,0.5
		l-0.1,0.3l-0.1,0.5l-0.2,1l0.1,0.2l0.2,0.3l0.1,0.3l-0.2,0.1l-0.1,0.1l0.1,0.3l0.2,0.3l0.1,0.2l-0.3,0.4l-0.2,0.1l-0.2,0v0.3
		l0.3,0.3l0,0.4l-0.2,1.1l0.1,0.6l0.2,0.6l0.6,1h-0.2h-0.2l0.3,0.7l0.4,0.2l0.4,0.2l0.1,0.6l0,0.3l0.2,0.6l0.4,0.3l0.5,0.2l0.4,0.3
		l-0.4,0.9l0,0.3l1.1,1.6l0.2,0.5l-0.3,0.1l-0.2,0.3l0,0.4l0.2,0.6l-0.5,0.2l-0.5,0.5l-0.4,0.6l-0.1,0.6l0.2,0.9l0.4,0.2h0.5
		l0.4,0.3l1.5,3.2l0.6,0.7l1.3,0.9l1.3,1.3l0.3,0.5l-0.4,0.2l-0.1,0.4l0.4,0.8l0.7,1.1l0.2,0.6l0.3,1.8v0.3l-0.1,0.3l0.2,0.2
		l0.3,0.1l0.3,0.2l0.3,0.4l0.1,0.3l0,0.4l0.1,0.5l0.4,0.7l1.8,1.7l2.2,1.2l0.3,0.5l-0.3,0.7l-0.8,0.2h-0.9l-0.5,0.2l-0.7-0.4
		l-0.7,0.1l-0.6,0.5l-0.3,0.7l0,0.8l0.4,0.5l0.6,0.3l0.7,0.1v0.3l-0.3,0.7l0.4,0.6l0.7,0.4l0.7,0.2l-0.2,1l0.2,0.9l0.7,1.6l-0.6,1.1
		l0.3,2l0.2,0.6l0.1,0.1l0,0.1l-0.3,0.5l-0.5,0.5l-1.7,0.9l-0.1,0.5l0,0.8l0,0.5l-0.1,0.4l-0.6,1.4l-1.4,0.6l-4.8,0.1l-0.9,0.3
		l-0.5,0.2l-0.4,0.4l-0.3,0.6l-0.4,1.2l-0.4,0.5l-2.1,2.3l-0.8,0.6l0,0l0,0l0,0l-1.4,1.1l-1.2,0.9l-6,6.5l-0.8,1.2l-1,0.8l-1.1,1.2
		l-2.9,4.2l-1.1,1.1l-0.1,0.3l-0.2,0.8l-0.1,0.3l-0.2,0.2l-0.5,0.2l-0.2,0.2l-0.3,0.3l-1.6,3l-0.4,0.5l-0.3,0.1l-0.6,0.1l-0.3,0.3
		l-0.2,0.4l-0.5,1.3l-2,2.7l-0.7,1.6l0.5,1.5l0.2,0.6l0.2,1.7l0.1,0.5l0.1,0.2l0.3,0.6l0.6,0.6l0.2,0.3l0.1,0.6l0.4,3.7l-0.1,0.6
		l-0.4,1.2l-0.4,1.4l-0.4,0.9l-0.1,0.5l0.2,0.2l0.1-0.1l0.4-0.4l0.4,0.3h0l-0.1,0l0.9,0.6l0.8,1l0.5,0.4l1.2,0.7l0.3,0.4v0.3
		l-0.2,0.8l0,0.5l0.1,0.4l0.4,0.7l0.1,0.2l-0.3,0.6l-0.5-0.2l-0.6-0.5l-0.5-0.2l-0.3-0.1l-0.5-0.7l-0.3-0.3l-0.3,0l-0.6,0.2l-1-0.1
		l-0.6,0.1l-0.6-0.1l-0.7-0.4l-1-1.1l-0.5-0.2l-0.6,0.5l-0.9-0.4l-2.1-0.1l-1-0.3l-1.3-1.4l-0.6-0.2l-1.5,0.1l-1.2-0.4l0-0.3
		l-0.1-0.3l0.1-0.3v-0.3l-0.3-0.3l-0.2,0l-0.6,0.1h-0.3l-0.3-0.1l-0.9-0.6l-1.9-0.4l-0.8-0.5l-0.2-1.3l-0.3-1.4l-0.8-1.2l-1-0.9
		l-1.4-0.7l-1-0.9l-0.5-0.3l-0.5,0.1l-0.5,0.4l-0.4,0.4l-0.3,0.2l-0.4-0.3l-0.9-1.4l-0.4-0.5l-0.3-0.1l-0.4,0.1l-0.2,0l-0.3-0.2
		l-0.5-0.5l-0.3-0.2l-0.5-0.1l-1.9,0.2l-0.9,0.4l-0.4-0.1l-1,0.2h-0.4l-2.6-0.7l-1.5-0.8l-0.4-0.1l-0.5,0.3l-0.8,1.2l-0.5,0.4
		l-0.6,0.1l-0.4-0.3l-0.4-0.4l-0.5-0.3l-0.4,0l-1.1,0.2L471,405l-0.5,0.6l0.3,0.4l0.6,0.4l0.3,0.6l-0.2,0.4l-0.5,0.1h-0.6l-0.4,0.1
		l-0.6,0.5l-0.9,1.3l-0.6,0.5l-0.6,0.2l-0.5-0.1l-0.4-0.3l-0.4-0.5l-0.5-0.4l-0.4-0.1l-0.5,0l-0.6-0.1l-0.4-0.3l-2.4-2.8l-0.4-0.1
		l-1,0.2l-0.6-0.1h-0.2l-0.3,0.2l-0.4,0.5l-0.3,0.3l-0.6,0.2l-0.6-0.1l-2.2-1.1l-0.4,0.1v0.7l-1.4,0.1l-1.1-0.4h-0.3l-0.3,0.2
		l-0.1,0.2l-0.1,0.4l-0.1,0.6l-0.2,0.6l-0.1,0.2l-2,0.2l-0.4,0.2l-0.6,0.7l-0.3,0.2l-0.6-0.1l-0.1-0.1l-0.2,0.2l-0.5,1.1l-0.2,0.5
		l-0.2,0.4l-0.3,0.4l-0.2,1.4l-0.3,1l-0.5,0.4l-0.9-0.4l-1.4-1.3l-0.7-0.4l-0.8,0.1l-0.5,0.4l-0.9,0.9l-0.6,0.2l-1.2-0.1l-0.7-0.2
		l-0.3-0.5l0.1-0.5l1-1.6l0.1-0.1l0.2,0l0.2-0.1l0.1-0.2l0-0.2l-0.2-0.2l0-0.1l-0.4-0.3l-0.1-0.1v-0.2l0.2-0.3l0-0.2l-0.2-2
		l-0.1-0.7l-0.2-0.8l-0.2-0.2l-0.9,0.4l-0.6,0l-0.6-0.1l-1.5-0.5l0.1-0.5l0-0.6l0-0.2l0.1-0.3h-1.1l-0.6-0.1l-0.5-0.4l-0.1-0.3
		l-0.4-1.3l-0.5-2.1l-0.3-0.8l-0.6-0.4l-0.2-0.2l-0.4-0.8l-0.3-0.1l-0.2,0.1l-0.1,0.2l-2.3,2.5l-0.2,0.2l-0.4,0.1l-0.3,0h-0.8
		l-0.5,0.1l-0.4,0.2l-0.4,0.4l-0.4,0.6l-0.4,1.3l0,0l0.1,0.1l0,0.2l-0.1,0.3l-0.1,0.1h-0.3h-0.1l-0.2,0.8l-0.1,0.5l-0.2,0.3
		l-0.8,0.3l-0.7,0.1l-0.3,0l-0.3-0.1l-0.5-0.4l-0.2-0.1l-0.6,0.1l-1,0.6l-0.7,0.1l-0.5-0.1l-0.1-0.5l0.1-1.3l-0.1-0.6l-0.1-0.6
		l0-0.6l0.2-0.7l-0.8-0.5l-2.6-0.2l0.1-0.7l-0.1-0.8l-0.4-1.7l-0.1-0.4l-0.3-0.7l-0.1-0.4l-0.2-1.4l-0.1-0.3l-0.4-0.3l-0.4,0.1
		l-0.4,0.2l-0.4,0l-0.3-0.2l-0.5-0.6l-0.3-0.3l-0.4-0.1l-0.8-0.1l-0.4-0.2l-0.2-0.3l-0.3-1.2l-0.6-1.3l-0.5-1.2v-1.1l0.7-0.8
		l-0.7-0.4l-0.1-0.5l0.1-0.6l-0.2-0.8l-0.4-0.2l-1,0.7h-0.6l-2-1.1l-1-0.4l-1.1,0.1h0.1l0,0l0,0l0,0.1l-0.7,0.6l-0.4,0.1l-0.5-0.4
		l-0.2-0.3l-0.2-0.6l-0.1-0.2l-0.3-0.2l-0.6-0.1l-0.4-0.1l-0.8-0.7l-0.4-0.2l-1.7-0.3l-0.3-0.4l0.2-0.8l-1.5-1l-0.8-0.2l0.1,0.9
		l0.1,0.1l0.2-0.1h0.2l0.2,0.3l0,0.4l-0.1,0.2l-0.9,0.3l-1.1,0l-0.5,0.1l-0.8,0.7l-1,0.3l-1-0.2l-1.7-1.7l-0.3-0.4l-0.2-0.5
		l-0.2-0.5l-0.2-0.5l-0.3-0.4l-0.2-0.2l-0.1-0.2l0.1-0.2l0.2-0.2v0v0v0v0l-0.4-0.1l-0.7-0.4l-0.3-0.1l-0.3,0.1l-0.2,0.1l-0.3,0
		l-0.4-0.2l-1.3-1.6l-0.1-0.3l0.2-0.4l0.3-0.1l1.3,0l0.7-0.3l1.1-0.7l0.5-0.5l0.2-0.6l-0.4-0.8l-0.3-0.3l-0.1-0.4l0.1-0.4l0.3-0.8
		l0.1-0.1v-0.1v-0.1l-0.1-0.1l-0.5-0.7l-0.2-0.1l-0.4-0.2l-0.2,0.1l-0.1,0.3L382,369l-0.8,1.1l-0.5,0.4l-0.6,0.2l-2.4-0.4l-1.3,0.1
		l-0.8,0.9l-0.1,0.1l-0.1,0l-0.1,0l-0.1-0.1l-0.2-0.8l-0.6-0.5l-0.6,0l-0.3,0.8l-0.4-0.3l-0.2-0.4l0-0.5l0-0.5l-0.1-0.1l-0.1-0.1
		l-0.1-0.1l-0.1-0.2l0.5-0.2l-0.6-0.2l-1.2,0l-0.6-0.2l-0.9-0.6l-0.3-0.3l-0.2-0.4l-0.2-0.5l-0.1-0.5l0.1-0.1l-0.3-0.1l-0.8,0.2
		h-0.4l-0.3-0.2l-0.6-0.5l-0.3-0.2l-2.7-0.8l-0.6,0.1l-1.1-0.7l-0.6-0.1l-0.7,0.4v0.6l0.9,1.3l0.3,0.8l0.2,0.9l0.3,0.8l0.5,0.5
		l0.6,0.4l0.5,0.5l0.3,0.7l0,1l0.4,0.5l0,0.5l-0.2,0.4l-0.3-0.1l-0.3-0.4l-0.1-0.2l-0.2-0.1h-0.4l-0.1,0.1v0.5l-0.1,0.2h-0.2
		l-0.5-0.2H362l-0.3,0.2l-0.4,0.6l-0.3,0.2l-0.6,0.2l-0.5,0l-0.5,0.1l-0.6,0.5l-0.5,0.7l-0.3,0.6l-0.3,0.5l-0.6,0.4l-0.8,1.1
		l-1.1,0.1l-1.1-0.6l-0.9-0.8l-0.5-0.6l-0.2-0.5l-0.3-1.4l-0.3-0.8l-0.8-0.8l-0.3-0.6l-0.4-0.5l-0.7-1.2l-0.4-0.5l-0.6-0.4l-1.2-0.4
		l-0.5-0.6l-0.1-0.4l0-0.4l0-0.4L347,366l-0.2-0.1h-1.4l-0.3,0.1l-0.2,0.2l-0.2,0l-0.3-0.3l-0.1-0.2l-0.3-1.1l-0.9-0.2l-0.2-0.7
		l0.2-0.7l0.5,0.1l0-0.1l-0.1-0.5h0.2l0.2-0.2l0.1-0.1l0.4-0.3l0.5-0.3l0.4-0.3l0.2-0.5l0.4-0.1l0.9,0.2l0.5-0.1l0.2-0.3l0.5-0.5
		l0.2-0.4l-0.1,0v-0.2l0-0.3l0-0.2l0.1-0.2l0.1-0.1v-0.1l-0.1-0.3l0.8-0.3l-0.2-0.8l-2.3-2.4l-0.8-0.5l-0.9-0.2l-1,0l-0.3,0.1
		l-0.2,0.4l-0.2,0.5l-0.3,0.4l-0.4,0.1l-0.4-0.2l-0.8-0.6l-1.1-0.1l-1.6,1.6l-1.1,0.2l-0.1-0.1v-0.1V356l0.1-0.1l0.4-0.3l0.1-0.5
		l-0.1-0.6l-0.2-0.6l-0.3-0.7l-0.4-0.3l-0.4-0.1l-1.6,0.6h-0.7l-0.2-0.1l-1.3-2.3l-0.1-0.3l-0.1-0.3l-0.7-0.1l-2.2,0.5l-0.3-0.1
		l-0.2-0.2l-0.4-0.5l-0.3-0.2l-5.3-1.9l-1.1,0.1l-0.2,0.3l-0.3,0.4l-0.3,0.3l-0.4-0.1l-0.2-0.3l0-0.4l0.1-0.4v-0.4l-0.3-0.8
		l-0.4-0.3l-0.5-0.2l-0.5-0.4l-0.3-0.5l-0.3-0.7l-0.2-0.7l-0.1-0.6l0.2-0.8l0.2-0.4l0-0.4l-0.4-0.7l-0.7-0.3l-1.6,0.1l-0.2-0.6
		l-0.1-0.6l-0.3-0.2l-0.3,0.2l-0.2,0.6l0,0l-0.1,0.4l-0.3,0.1l-0.4-0.2l-0.3-0.3l-0.2-0.4l-1.3-0.3l-0.5-0.5l-0.1,0.3l-0.1,0.2
		l-0.4,0.3l-0.1,0l-0.2,0.1l-0.1,0.1l-0.1,0.1l0,0l0.1,0.5l0.4,0.3l0.4,0.6l0,1.2l-0.1,0.2l-0.3,0.3l-0.1,0.1l0,0.2v0.2l0,0.1l0,1.5
		l-0.1,0.4l-3-0.2l-1,0.3l-0.6,0v-0.8l0.4-0.6l0.9-1.1l1.3-3.2l1.2-3l0.1-0.5v-0.8l0-0.4l0.1-0.3l0.2-0.2l0.2-0.3l0-0.5l0-1.1
		l0.2-1.2l0.4-1.1l0.5-0.9l-0.1-0.1l-0.1-0.1l0.1-1.2l-0.4-0.8l-0.6-0.7l-0.5-0.9l-0.1-0.3l-0.1-0.8v0l-0.3-2.9l0.2-0.5l-0.3-0.6
		l-0.5-0.5l-0.4-0.3l-0.6-0.3l-1.2-0.4l-0.6-0.3l0,0l-0.6-0.4l-1.7-0.6l-0.6-0.6l-0.1-0.7l0.2-0.8l0.5-0.8l0.3-0.9l0-1.1l-0.3-1.1
		l-0.3-0.7l-1.3-1.1l-0.6-0.7l-0.3-1.1l-0.1-1.1l-0.4-0.5l-0.5-0.3l-0.4-0.7l-0.1-0.9l0.3-0.7l1.5-1.5l0.5-0.7l0.4-0.8l0.2-0.8
		l0.1-2.6l0.1-0.4l0.6-1l0.1-0.4l0-0.4l0.1-0.4l0.2-0.4l0.5-0.6l-1.7-1.3l-0.3-0.6l0.2-1.1l0.3-0.8l0.1-0.6l-0.4-0.6V289l0.5-0.7
		v-0.9l-0.4-0.8l-0.7-0.3l-0.8-0.2l-0.9-0.5l-0.6-0.7l0.2-0.8l-0.6-1.3l-0.6-1.9l-0.2-1.7l1.4-1.2l0.6-1l0.4-1l-0.1-0.5l-0.5-0.5
		l0.2-1l0.7-1.6L301,272l-1.6-1.9l-1.6-0.6l-0.8-1l-0.5-0.2l-0.3-0.3l-0.9-1.8l-0.4-0.5l-2.8-2.1l-0.7-0.4l-0.9-1l-0.5-0.2l-0.6,0
		l-0.6-0.2l-0.5-0.4l-0.3-0.6l0.7-0.7l0.3-0.5l0.1-0.8l-0.1-0.6l-0.3-1.5l-0.2-0.4v-0.3l1.3-1l1.6-0.8l1.6-1.2l0.8-0.8l0.4-0.8
		l0.1-0.4l0.8-2.5l-0.1-0.6l-0.2-0.6l-0.1-0.7l0.1-0.6l0.2-0.5l0.3-0.4l0.3-0.2l0.2-0.3l0.7-1.4l-0.4-0.3l-0.1-0.2l-0.4-0.3
		l-0.2-0.3l-0.1-0.4v-0.8l0-0.4l-0.7-3.4l-0.3-2.3l-0.6-0.9l-0.3-0.9l-0.6-1l-0.2-0.9l0-1l0.1-1.6l0-0.4l-0.6-1.7l-0.4-0.9l0.1-0.7
		l0-1.2l0.3,0l0.5-0.2l0.4-0.3l0-0.4l-0.5-0.3l0.3-0.2l0.1-0.1l-0.1-0.2l-0.3-0.2l0.1-0.3l0.3,0.2l0.4,0.2l0.3,0.2l0.3,0.9l0.4,0.3
		l0.7,0.3l0.5,0.6l0.3,0.2l1.2,0.2l1.4,0.5l0.5,0.4l0.4,0.6l0.9,1.7l0.3,0.4l0.1-0.1l0-0.7l0.1-0.4l0.2-0.3l0.4-0.3V226v-0.2l0-0.3
		l-0.3-0.1l-0.7-0.1l-0.3-0.2l-0.8-2l0.2-1l0.7-1.9l0.3,0.3l0.3-0.1l0.3-0.2h0.4l-0.2-1.1l0.1-0.9l0.2-0.8l0.1-0.8h-0.2l-0.1,0.5
		l-0.2,0.4l-0.6,0.6l0.2,0.3l-0.2-0.1l-0.2-0.1l-0.1-0.2l-0.1-0.2l0.1-0.1l0.2-0.3l0.2-0.2l-0.4-0.8l-0.6-0.4l-2.9-0.3l-0.4-0.5
		l0.3-0.9l-0.1-0.1l0,0v0l-0.1-0.2l-0.3,0.4l-0.2,0.1l-0.2-0.1l-0.3-0.1l-0.2,0.1l-0.2,0.2l-0.2,0.3l-0.2,0.3l0.8,0.2l0.4,0.2
		l0.2,0.3l-0.1,0.5l-0.3,0.4l-0.3,0.1l-0.2-0.2l-0.7,0.5l-0.4,0.1l-0.4,0v0.3l0.4,0.1l0,0.1l-0.3,0.1l-0.3,0L293,218l-0.3,0
		l-0.4-0.3l-1.3-1.8l-0.6-0.3h-0.1l-0.2-0.7l-0.5-0.6l0.3-0.1l0.2-0.2l0.5-1.2l0.4,0.2l0.3,0.2l0.8,0.3l2.6,0.2l1.1-0.2l1-0.6
		l1.9-1.4l7-3.1l6-1.6l7.3-3.1l4.7-1.3l5.2-1.4l5.1-2.3l4.2-0.5l2.9-1l-0.3,0.3l-1.3,0.6l0.6,0.4l2.3-0.4V198h-0.2v-0.3h1.3v-0.2
		l0,0h-0.1l-0.1-0.1l0-0.7l-0.6,0l-1.4,0.5l0.9-0.5l1.1-0.7l1.6-1.9l-0.3,0.7l-0.6,0.6l-0.2,0.3l0.2-0.1l0.5-0.1l0.4-0.2l0.4-0.4
		l0.9-0.4l0.3-0.4l-0.3-0.7h-0.5l-0.2,0.3l-0.4,0.4l1.1-1.9l3-3.9v0.3l-0.2,0.4l0.3,0.1l0.4-0.2l0.3-0.4l0.2-0.6l-0.2-0.2l-0.4,0.2
		l-0.4,0.4l0.5-1.1l0.9-0.9l1.8-1.1l5.5-0.8l2.2-0.9l1.1-0.2l1-0.4l2.5-2.8l8-3.7l10-1.9l4.5-1.5l7.1-0.7h4.3l0.6,0.2l1,0.8l0.4,0.2
		l0.6,0.1l9,5.4l1.7,2.2l0.3,0.5l0.3,0.7l0,0.6l-0.5,0.2l-0.1-0.2l-0.1-0.3l-0.2-0.3l-0.5-0.3l-0.3-0.9l-0.4-0.6l-1.3-2.1l-0.3-0.1
		l-0.9-0.2l-0.2-0.1l-0.3-0.4l-0.7-0.3l-1.6-1.1l-1.6-0.8l-0.2-0.4l-0.9-0.7l-0.2-0.1l-0.3,0.1l-0.2,0.2l-0.4,1.3l0,0.3v0.7l0.1,0.2
		l0.6,0.3l0.1,0.2l0.3,0.6l0.4,0.9v0.3l-0.1,0.3v0.3l0.3,0.3l-0.2,0.9l0.3,0.4l0.5-0.1l0.4-0.6l-0.2,0.8l0.2,0.6l0.3,0.5l0.7,2.1
		l0.2,0.4l-0.1,1l0,1.8l0.2,1.7l0.4,0.8l0.4,0.1l0.8,0.6l0.4,0.1l0.4,0l0.4,0.1l0.4,0.3l0.2,0.4l0.4,0.6l4.4,1.4l1,0.1l0.8-0.5
		l0.2,0.2l0.3,0.2l0.7,0.2l9.9-1.5l2.2-1.1l1-0.2l0.8-0.4l1.6-1.7L432.9,189.5"/>
</g>

</svg>
