<?xml version="1.0" encoding="utf-8"?>

<svg version="1.2" baseProfile="tiny" xmlns="http://www.w3.org/2000/svg" xmlns:xlink="http://www.w3.org/1999/xlink" x="0px"
	 y="0px" viewBox="278.3 170.1 225.9 256.8" xml:space="preserve">

<g id="Palestine">
	<g>
		<polygon points="502.7,227.4 503.3,226.9 504.1,226.5 502.8,224.2 502.2,220.5 502.3,216.8 503,214.6 501.5,211.7 501.6,205.9
			500.8,204 500.8,202.6 502,202.6 502,204 503,204 502.7,202.2 502.2,200.7 488.9,197.3 485,196.3 481.2,196.2 476.9,194.9
			476,190 476.1,184 474.6,179.4 469.7,176.4 464.8,175.8 454.4,176.3 451.4,175.3 446.7,171.4 444.2,170.1 441.3,170.3 439,172
			434.9,176.8 429.8,180 424.8,182.4 420.5,185.5 417.3,191.1 414.6,204.5 413.4,208.5 412.8,209 410.7,209.8 410,210.2
			409.3,212.7 408.7,218.8 408.2,221.3 410.3,222 411.5,223.4 411.7,225.5 411.2,227.9 409.9,230.3 403.5,236.2 401.4,239
			401,240.9 403.7,246.9 404.5,250.2 405,254.7 497.9,254.7 498,253.8 500.8,249.1 499.9,247.9 499.9,246.8 500.7,245.9 502,245.2
			502,243.7 501.3,241.5 504.1,229.3 502,229.3 502.3,228.1 		"/>
		<polygon fill="#FFFFFF" points="406.6,268.4 406.6,270.6 444.4,299 429.1,310.5 439.7,313 442.6,314.7 443.8,317.1 444.1,320.3
			443.9,324.5 443.3,325.5 442.5,325.8 441.7,325.4 440.8,324.5 430.6,326.7 427.5,328.2 424.6,330.6 418.8,336.5 409.7,343.3
			489.4,343.3 496.7,326.3 502,320.5 498.5,310.1 498.5,308.7 500.3,306.2 496.3,290.8 496.7,289.2 497.7,288.6 498.9,288.3
			499.7,287.4 499.8,285.9 498.8,283.7 498.5,282.1 498.4,279.5 498,277.5 496.3,273 496,264 496.9,260.7 499.7,258.4 497.9,256
			497.9,254.7 405,254.7 		"/>
		<polygon fill="#007A3D" points="286.1,426.8 288.8,424.4 297.3,418.1 303.1,411.9 303.5,408.7 302.8,405.2 283.8,419.5
			286.1,426.9 		"/>
		<polygon fill="#007A3D" points="405.6,346.4 402.5,350 399.6,355.7 398.8,361 398.8,366.3 397.8,372.6 390.5,385 388,391.4
			390,397.8 393.6,400.6 397.9,401.3 402.5,400.6 406.7,399.1 416.5,397.7 437.1,398 446.7,394.4 464.6,379.4 474.1,374
			485.3,373.1 485.4,373.1 485.5,373.1 485.5,372.9 485.4,372.6 486.3,358.4 488.9,344.4 489.4,343.3 409.7,343.3 		"/>
		<polygon fill="#CE1126" points="406.6,270.6 406.7,272 406.4,276.3 406.4,276.4 406.5,276.5 406.6,276.6 406.7,276.7 406.8,277.3
			406.9,278 406.8,278.8 406.7,279.4 406,285.2 409.2,292.7 411.2,299.2 406.7,301.7 402.2,303.3 400.9,306.7 402.5,309.9
			407.9,310.9 410.5,311 411.6,310.7 413.3,309.7 416.2,306.6 417.4,305.8 419.7,306.2 428.3,310.3 429.1,310.5 444.4,299 		"/>
		<polygon fill="#CE1126" points="302.2,402.1 302.2,398.8 305.7,392.1 324.4,374.3 326.9,372.6 326.9,372.6 332.3,367.6
			332.6,363.6 329.5,359.7 324.6,355.6 324.2,356.5 318.3,364.9 306,377.7 302.7,383.6 295,389.3 291.7,395.2 284.3,401.8
			282,404.8 278.3,407.2 282.3,414.6 283.2,417.7 283.8,419.5 302.8,405.2 		"/>
	</g>
	<path fill="none" stroke="#999999" stroke-width="0.25" stroke-linecap="round" stroke-linejoin="round" d="M502,229.3l0.3-1.1
		l0.4-0.7l0.7-0.5l0.8-0.5l-1.3-2.3l-0.6-3.7l0.1-3.7l0.7-2.3l-1.5-2.9l0.1-5.8l-0.8-1.9v-1.3h1.2v1.3h1l-0.2-1.7l-0.5-1.5
		l-13.3-3.4l-3.9-1l-3.9-0.1l-4.3-1.3L476,190l0.1-6l-1.5-4.6l-4.9-3l-4.9-0.6l-10.4,0.5l-3-1.1l-4.7-3.9l-2.5-1.3l-2.9,0.2L439,172
		l-4.1,4.9l-5.1,3.2l-4.9,2.4l-4.3,3.1l-3.2,5.6l-2.6,13.4l-1.2,4l-0.6,0.5l-2.2,0.8l-0.7,0.5l-0.7,2.5l-0.6,6.1l-0.5,2.5l2.1,0.7
		l1.2,1.4l0.3,2.1l-0.6,2.5l-1.2,2.4l-6.4,5.9l-2.2,2.8l-0.4,1.9l2.7,6l0.9,3.3l2.1,18.2l0.1,3.6l-0.2,4.3v0.2l0.1,0.1l0.1,0.1
		l0.1,0.1l0.2,0.6l0.1,0.7l-0.1,0.7l-0.2,0.6l-0.7,5.8l3.2,7.6l2,6.5l-4.5,2.5l-4.4,1.6l-1.3,3.4l1.6,3.2l5.4,1l2.6,0l1.2-0.3l1.7-1
		l2.9-3.1l1.2-0.8l2.4,0.4l8.6,4.1l11.4,2.7l2.8,1.7l1.3,2.4l0.3,3.2l-0.3,4.1l-0.6,1l-0.8,0.3l-0.9-0.4l-0.9-0.9l-10.1,2.2
		l-3.1,1.5l-2.9,2.4l-5.8,5.8l-13.2,10l-3,3.6l-2.9,5.7l-0.7,5.3l-0.1,5.4l-1,6.2l-7.4,12.4l-2.4,6.4l1.9,6.5l3.6,2.7l4.3,0.7
		l4.6-0.7l4.2-1.5l9.9-1.4l20.6,0.2l9.6-3.6l17.9-15l9.5-5.4l11.2-0.9l0.1,0.1l0-0.1v-0.2l0-0.3l0.9-14.2l2.6-14l7.8-18.1l5.2-5.8
		l-3.5-10.4v-1.4l1.8-2.4l-4.1-15.5l0.5-1.6l1-0.6l1.1-0.4l0.8-0.9l0.1-1.6l-1-2.1l-0.3-1.6l-0.1-2.6l-0.3-2l-1.8-4.5L496,264
		l0.9-3.3l2.8-2.3l-1.8-2.4l0.1-2.2l2.8-4.8l-0.9-1.2v-1.1l0.8-0.9l1.3-0.7v-1.5l-0.7-2.3l2.9-12.2H502z M324.6,355.6l-0.4,1
		l-5.9,8.4L306,377.7l-3.3,5.9l-7.7,5.7l-3.4,6l-7.3,6.6l-2.3,3l-3.7,2.4l4,7.3l1,3.1l2.9,9.2v-0.1l2.7-2.4l8.4-6.3l5.8-6.2l0.5-3.3
		l-1.4-6.6l0-3.3l3.5-6.7l18.6-17.8l2.5-1.7h0.1l5.4-4.9l0.3-4.1l-3.1-3.9L324.6,355.6z"/>
</g>

</svg>
