<?xml version="1.0" encoding="utf-8"?>

<svg version="1.2" baseProfile="tiny" xmlns="http://www.w3.org/2000/svg" xmlns:xlink="http://www.w3.org/1999/xlink" x="0px"
	 y="0px" viewBox="345.5 99.7 177.9 361" xml:space="preserve">

<g id="Portugal">
	<g>
		<path fill="#FF0000" d="M440.4,381.2c0,0.1,0,0.1-0.1,0.2c-0.1,0.1-0.1,0.1-0.2,0.1h-2.2c-0.2,0-0.3-0.1-0.3-0.3l0-0.9h-2.9v79.8
			l0.6,0.3h0.7l1.8-1.6l8.2-5.6l0.4-0.6l3.1-2l0.9-0.3l2.2-1.5l1.2-0.5l1.2-0.1l1.2,0.1l1.2,0.3l0.9,0.7l0.4-0.5v-0.4l-0.3-0.1
			l-0.1-0.2l-0.1-0.3l-0.1-0.3l-0.8-3l-0.3-1.5l0.3-1l-0.5-2.2l-0.4-5.4l-1-2.1l0.1-0.7l-0.1-1.5l-0.3-1.6l-0.4-1.2l-0.3-0.4
			l-0.9-0.7l-0.4-0.4l-0.5-0.7l-0.1-0.4l-0.1-0.5l-0.3-1h-0.2l-0.1-0.1V422l0.2-0.3l0.5-0.7l0.1-0.3l0.1-0.3l0.1-0.3l-0.1-0.4
			l0.5-0.3l1.4-1.6l0.3-0.5l0.3-1l0.5-3.3l0.7-2l1-1.4l5-4.1l1.5-2.7l0.6-2.3l1.2-3.2l0.3-1.2v-0.7l-0.1-0.7V394l0.3-0.4l1.7-0.3
			l0.6-0.4l0.7,0.1l0.7,0.2l0.7,0.1l0.7-0.3l0.7-0.2l0.4-0.3l0.5-0.7l0.5-1.4l0.5-0.5l1,0.1l3.1,1.2l1.4-0.1l0.5-1.6l0.3-1l0.5-2
			l1-2.1l0.7-2.3l0.4-1l0.5-2l-0.9-0.7l-1.5,0.1l-1.4,0.4H479l-0.3-0.1l-0.7,1l-1.3,0.6l-1.4,0.3h-0.8l-1.3-1.2l-2.2-5.6l-0.3-0.3
			l-0.3-0.2c-9.4,3.7-19.6,5.9-30.2,6.5L440.4,381.2z"/>
		<path fill="#FF0000" d="M440.4,182.5c17.9,1.1,34.6,6.9,48.8,16.3v-0.1C475,189.3,458.3,183.4,440.4,182.5L440.4,182.5z"/>
		<path fill="#FF0000" d="M437.6,181.3l0-0.8c0-0.1,0-0.1,0.1-0.2c0.1-0.1,0.1-0.1,0.2-0.1h2.2c0.2,0,0.3,0.1,0.3,0.3l0,1.4
			c18,1,34.7,6.8,48.8,16.2l0-0.2l0.1-0.4l0.1-0.4l-0.2-0.7l-0.1-0.5l0.1-1.8l0.9-0.3l0.2-0.9l-0.3-1l-0.6-0.4l-0.8-0.2l-0.5-0.6
			l-0.5-1.5l-1.2-2.9l-0.7-1.3l-1.7-1.8l-0.5-0.8l-0.1-0.9l0.6-1l0.2-1.4l1.2-0.5l3.3,0.3l1.5-0.1l0.7-0.7l2.2-3.2l0.5-1.3l-0.1-1.8
			l0.2-0.5l0.7-0.9l1.9-1.6l0.3-0.5l0.4-1.1l1.9-2.9l0.6-0.7l1-0.2l3.5-0.1l0.5-0.3l3.2-1.4l1.8-1.4l1.8-1.8l1.7-2.8l0.2-0.1
			l0.7,0.1l0.2-0.1l0.1-0.4l0.1-0.5v-0.4H514l0.7-0.5l0.7-0.3l1.7-0.1v-0.6l2-3.3v-0.5l-0.1-0.5l-0.1-0.5l0.3-0.7l1.4-1.5l2.6-3.8
			l-0.5-0.7l-0.7-1.1l-2.3-2.5l-2.4-1.6l-2.7-1l-4.4-0.9h-0.7l-0.4,0.3l-0.3,0.4l-0.7,0.5l-0.8,0.4l-0.5,0.1l-1.5-0.5l-0.7-1.2
			l-0.3-1.4l-0.1-1.4l-0.3-0.7l-0.3-0.6l-0.1-0.6l0.3-0.7l0.4-0.6l0.2-0.7l1.3-5.9l0.6-1.4l-1.4-0.5l-0.9-0.1l-0.4-0.5l0.4-3.1
			l-0.2-1.2l-0.7-0.9l-1.3-0.5l-0.7,1.6l-1.8,0.5l-3.9,0.1l-1.6-0.5l-2-3.1l-1.6-0.3l-0.3,2.2l-1.3,0.8l-3.3,0.3l-1.5-0.3l-1.3-1
			l-1.2-0.6l-1.3,0.9l-1.9,0.8l-1.7-0.7l-1.6-1.4l-1.8-1.1l-0.7,0.1l-1,0.5l-0.8,0.6l-0.4,0.4l-0.1,1l0.3,2.4l-0.1,1.2l-1.1,1.6
			l-1.8,1.1l-3.9,1.3l-1,0.1l-2-0.1l-0.8,0.1l-0.7,0.5l-1.3,1.5l-0.7,0.6l-0.2-1.2l-0.5-1.2l-0.7-1l-0.7-0.3l-0.5-0.1l-0.8-0.5h-0.4
			L452,121l-0.1,0.4l-0.1,0.5l-0.3,0.5l-0.8,0.6l-1.1,0.4l-1.2,0.1l-1-0.1l-0.9-0.5l-0.1-0.7l0.8-2.2l-2.9-0.1l-0.9-0.5l-1.5-1.1
			l-0.8-0.2l-1.5,0.8l-3.3,0.8l-1.5-0.1l-0.1,0v61.5H437.6z"/>
		<path fill="#FF0000" d="M440.4,379c10.4-0.6,20.3-2.8,29.6-6.4l-0.1-0.1C460.6,376.2,450.7,378.4,440.4,379L440.4,379z"/>
		<polygon fill="#006600" points="432.5,460.4 432.6,460.2 432.2,460.2 431.7,460.3 431.3,460.3 431.3,460.5 431.5,460.6 431.9,461
			432.8,460.8 432.4,460.6 432.2,460.5 432.3,460.4 		"/>
		<path fill="#006600" d="M351.2,336.4c-0.1,0-0.1-0.1-0.1-0.1l-1.2-2c0,0,0,0,0,0l0,0c0,0,0,0,0-0.1c0,0,0,0,0-0.1c0,0,0,0,0-0.1
			c0.1-0.3,0.2-0.7,0.5-1.1l-2.1-3.6l0,0c0,0-0.1,0-0.1,0l-1.6,4.7l-0.2,1.4l-0.7,0.8l-0.3,0.7v1.5l0.7,3l-0.3,1.2v1.4l1.1,0.3
			l2.3-0.3l1.3,0.2l2.4,1l1.3,0.2l1.5-0.8l0.7-0.1l2.5,0c-1.9-2.3-3.7-4.6-5.4-7C352.7,337,351.9,336.7,351.2,336.4z"/>
		<path fill="#006600" d="M429.2,180.4C429.2,180.4,429.2,180.4,429.2,180.4c0-0.2,0.1-0.3,0.3-0.3c0,0,0,0,0,0h2.2
			c0.2,0,0.3,0.1,0.3,0.3v0.8h2.8v-61.5l-0.5,0.2l-0.3,0.4l-0.2,0.5l-0.3,0.4h-1.7l-0.3-2.1l-0.1-2l-1.1,0.4l-0.3,0.8l-0.3,1.2
			l-0.5,1h-1l-0.9-0.1l-0.7,0.3l-0.7,0.7l-0.5,0.9l-1.8,1.8l-2.4,0.7l-4.7-0.3l0.2-1.9l-0.1-1l-0.4-0.5l-1.9-0.7l-0.6-1.3l0.1-1.4
			l0.5-1.3l2.1-3.1l1.6-1.6l1.6-1l0.9-0.7l0.5-0.9l0.1-1.3l-0.4-1.1l-0.8-0.8l-1-0.4l-1.2,0.1l-1,0.5l-0.8,0.2l-0.7-0.5l-0.2-1.2
			l0.1-3.1l-0.5-1.1l-0.5-0.7l-1.6,1.2l-1,0.4l-1,0.1l-0.4,0.1l-0.5,0.3l-1.4,1.3l-0.9,0.5l-8.4,1.4l-1,0.4l-1.8,1.3l-1,0.4l-2,0.1
			l-1,0.2l-1,0.7l-0.5,0.8l-0.5,1.6l-0.4,0.7l-1.1,0.7l-1.4,0.4l-1.2,0.6l-0.5,0.5l-0.7,2.6l-1.8,2l-3.8,3.2l-0.4,0.7l-0.2,0.7
			l-0.2,2.6l-0.2,0.9l-0.3,0.7l-0.3,0.3l-0.2,0.8l0.6,1.8l1.2,2.8l1.4,0.4l0.7,0.1l1.2-0.1l6-1.8l-0.7,0.7l-0.9,0.6l-1,0.5l-3.3,0.5
			l-1.2,0.5l-0.7,0.6l-0.1,1.7l0.5,1.5l0.6,1.3l0.3,1.2l0.3,1.6l1.1,2.4l0.2,1.2h-0.3l-0.2-0.2l-0.1-0.1l-0.1-0.1l-0.3-0.2v0.5
			l0.7,1.2l0.3,1.8l0.1,5.4l0.1,0.9l0.3,1l0.7,1.3l0.2,0.7l-0.3,0.9l0.9,0.1l0.3,0.7v2.2l0.3,0.9l0.3,0.7l0.1,0.8l-0.3,0.9l1,2
			l0.7,2.4l1,2l2,0.5v0.4l-1,1l-0.1,2.5l0.7,4.8v2.7l-2.1,9.8c12.2-6.5,26-10.4,40.6-11.2V180.4z"/>
		<polygon fill="#006600" points="431.1,461.9 431.3,461.9 431.3,461.3 431.1,461.1 		"/>
		<polygon fill="#006600" points="42.2,526.2 42.3,526.5 42.4,526.7 42.7,526.7 43.3,526.6 44.2,526.9 44.8,526.9 45,526.6
			44.9,526.2 44.7,525.8 44.4,525.4 44.1,525.2 43.6,525.1 43,525.1 42.4,525.3 42.1,525.6 41.9,525.8 42,526 		"/>
		<polygon fill="#006600" points="11.8,491 12.2,490.9 12.3,490.8 12.2,490.6 12.1,490.5 11.9,490.4 12,490.2 11.9,489.7
			11.4,489.3 10.7,488.9 10.2,488.7 7.7,488.5 7.2,488.6 6.6,488.9 6.2,489.4 6.3,490.1 6.5,490.5 6.8,491 7.3,491.4 7.6,491.5
			8,491.5 8.5,491.6 8.9,491.9 9.1,491.9 9.3,491.6 9.6,491.9 10.7,491.9 11.1,492.1 11.6,491.9 11.7,491.8 11.8,491.6 11.7,491.3
			11.7,491.1 		"/>
		<polygon fill="#006600" points="180.4,609.4 180.2,609.5 180,609.4 179.7,609.3 179.1,609.3 178.9,609.2 178.7,609.1 177.9,608.5
			177.7,608.4 177.2,608 176.9,607.9 176.3,608 175.9,608.1 175.7,608.2 175.3,608.4 174.9,608.5 174.5,608.5 174.1,608.2
			173.7,608.1 173.6,608.1 173.4,608 173,607.6 172.9,607.4 172.7,607.3 172.6,607.3 172.5,607.3 172.3,607.4 171.9,608
			171.8,608.1 171.6,608.2 171.5,608.5 171.5,608.8 171.7,609.1 172.1,609.7 172.6,610.2 173.3,610.6 176,611.7 177.3,611.8
			178.1,611.7 178.7,611.5 179,610.9 179.1,610.7 179.7,610.1 179.9,609.9 180.1,609.9 180.6,609.6 180.9,609.5 180.8,609.4
			180.6,609.4 		"/>
		<polygon fill="#006600" points="43,509.5 43,508.8 42.6,508.2 42,507.9 39.7,508 38,508.5 37.7,508.7 37.5,508.6 37.2,508.3
			37.1,508.2 36.8,508.3 36.4,508.6 36.2,508.7 34.1,508.4 34,508.3 33.9,508.2 33.8,508 33.8,507.7 33.7,507.6 33.1,507.1
			32.7,507 31.5,507.1 31.2,508.2 31.7,509 33.7,510.4 35.2,510.5 36.1,510.7 36.5,510.9 36.9,511.2 37.2,511 37.6,511 38.3,511
			39.1,511 39.8,510.8 42,510.5 42.6,510.2 		"/>
		<path fill="#006600" d="M359.6,345.2l-3,0.5v0.5l1.7,2.2l1.6,2.7l1.2,3.2l0.3,3.6l-0.2,0.9l-1.1,2.8l-0.4,0.6l-0.2,0.2l-0.1,0.5
			v0.5l0.2,0.3h0.2l0.6-0.4l0.3-0.1l0.4-0.1l1.2-0.8l6.5-1.5l4.5-2.3C368.4,354.6,363.8,350.1,359.6,345.2z"/>
		<polygon fill="#006600" points="-57.2,476.1 -57.1,476.5 -57,476.8 -56.8,476.9 -56.4,477 -56.1,476.9 -55.8,476.8 -55.5,477
			-55.2,476.6 -54.9,476 -54.7,475.5 -54.8,474.7 -54.9,474.3 -55.2,473.9 -55.4,474 -55.6,474 -55.8,473.9 -56,473.7 -55.9,473.5
			-56.2,473.5 -56.5,473.6 -56.8,473.8 -56.9,474.1 -57,474.5 -57.1,474.8 -57.2,475.1 -57.1,475.5 -57.2,475.7 		"/>
		<polygon fill="#006600" points="187.1,602.9 186.7,602.7 186.3,602.8 186,603.1 185.8,603.7 185.7,603.9 185.6,603.9 185.4,604
			185.4,604.1 185.7,604.2 185.9,604.2 186.1,604 186.3,603.8 186.6,603.6 186.8,603.6 187.4,603.7 187.2,603.6 187.2,603.3
			187.2,602.8 		"/>
		<polygon fill="#006600" points="183.3,613.2 183,613 183.1,613.2 183.1,613.4 183.2,613.6 183.4,613.8 183.9,614.7 183.9,614.2
			183.6,613.7 		"/>
		<polygon fill="#006600" points="-4,492.8 -3.8,493 -3.3,492.9 -3.1,493 -2.9,493.2 -2.6,493.4 -2.3,493.5 -1.8,493.6 -1.3,493.8
			-1,493.9 -0.4,494 -0.1,493.9 0.2,493.8 -0.1,493.4 -0.7,493.1 -1.9,492.6 -4.3,491.4 -7.5,490.1 -7.8,490.1 -8,490 -8.5,489.6
			-8.8,489.5 -8.8,489.8 -8.8,489.9 -8,490.6 -7.9,490.7 -7.8,490.7 -7.8,490.8 -7.8,490.9 -7.7,490.9 -7.6,491 -7.5,491 -7.5,491
			-7.3,490.9 -7.2,491 -6.9,491.6 -6.6,491.8 -4.9,492.4 -4.7,492.5 -4.4,492.9 -4.3,492.9 		"/>
		<polygon fill="#006600" points="-13.5,493.7 -13.4,493.7 -13.6,492.8 -14,492.4 -15.4,491.8 -15.6,491.9 -15.8,492.3 -16,492.5
			-16.2,492.6 -16.4,492.6 -16.9,492.7 -17.4,492.8 -17.4,492.9 -16.7,493.4 -16.3,493.7 -15.9,494.3 -15.6,494.5 -15.3,494.5
			-14.8,494.4 -14.7,494.4 -14.3,494.5 -14.1,494.5 -13.9,494.4 -14,494.3 -14.1,494.3 -14.1,494.2 -14.2,494.1 -14.1,494 		"/>
		<path fill="#006600" d="M417.1,183.8c4-0.7,8-1.2,12.1-1.4v0C425.1,182.6,421.1,183.1,417.1,183.8z"/>
		<polygon fill="#006600" points="-4.1,484 -3.8,484.1 -3.4,484.1 -3.2,484 -2.8,483.9 -2.7,483.7 -2.8,483.3 -3,483 -3.6,482.6
			-3.8,482.2 -3.9,482.4 -4.1,482.3 -4.3,482.2 -4.4,482.3 -4.6,482.4 -4.9,483 -4.9,483.3 -4.7,483.7 -4.4,483.9 		"/>
		<polygon fill="#006600" points="-54.7,469.1 -54.9,469.3 -55,469.5 -55.1,469.7 -55,469.8 -54.8,470.4 -54.7,470.6 -54.2,470.5
			-53.9,469.9 -53.9,469.2 -54.5,469.1 		"/>
		<polygon fill="#006600" points="-4.7,496 -5.5,495.9 -6.5,495.5 -6.9,495.5 -7.1,495.4 -7.4,495.1 -7.6,495.1 -7.6,495
			-8.2,494.8 -9.8,493.8 -10.5,493.6 -11.6,493.6 -12.2,493.8 -12.6,494.2 -12.6,495.1 -12.3,495.8 -11.2,496.8 -10.9,496.6
			-8.5,496.7 -8.2,496.8 -8,497 -7.8,497.2 -7.6,497.4 -7,496.9 -6.7,496.8 -6.4,496.7 -5.1,496.9 -4.6,496.9 -4.4,496.7
			-4.5,496.2 		"/>
		<path fill="#006600" d="M434.8,380.3H432v0.9c0,0.1,0,0.1-0.1,0.2c-0.1,0.1-0.1,0.1-0.2,0.1h-2.2c-0.2,0-0.3-0.1-0.3-0.3v-1.5
			c-18-1-34.8-6.8-49-16.2l0.2,0.2l0.7,1.7l1.7,9.2l0.3,6.3l-0.3,1.1l-0.4,1l-0.8,2.9l-0.3,2l-2,6.6l-0.4,0.4l-0.4,0.2l-0.3,0.2
			l-0.3,0.6l2.2,1.4l1.1,1l1,1.1l0.3,1.4l0.1,1.8l-0.3,7.5l0.5,1.2l1.3,0.2l1.2-0.5l0.5-0.5v0.3l-0.3,1.6l-1.4-0.4l-0.9,1l-0.5,1.8
			l-0.3,1.8l-0.7,3l0.1,0.9l0.5,1.2l0.1,0.7l0.2,6.4l-0.4,3.2l-1,2.2l-1,1.4l-0.8,1.6l-0.5,1.8l-0.3,3.9l-0.4,1.6l-0.7,1.4l-0.9,0.9
			l0.5,2l-0.7,1.6l-1.1,1.4l-1.8,3.8l-0.3,0.4l-0.3,1l-0.3,1.9l0.8-0.3l0.6,0.3l0.6,0.6l0.8,0.3l0.5-0.2l1.1-0.9l0.5-0.2l0.4-0.3
			l1.4-1.6l0.5-0.5l0.8-0.1l1.7,0.2l0.8-0.1l0.7-0.3l1.4-0.9l0.7-0.2h3.3l1.7-1.8l0.7-0.5l0.8-0.3l2.5-0.2l2.3,0.4l3.8,1.7l6.7,0.2
			l0.9,0.1l1.8,0.7h7.9l2.2,0.6l3.9,2.2l2,1.6l1.2,1.8l-0.1-0.5l-0.2-0.4l-0.5-0.8l0.5,0.3l0.7,0.4l0.6,0.1l0.5-0.8l1,0.3l3.3,0.1
			l1.2,0.2l0.2,0.1V380.3z"/>
		<path fill="#FFFF00" d="M352.1,335.3c-0.2,0.2-0.3,0.5-0.4,0.7c0.4,0.2,0.9,0.4,1.3,0.5C352.6,336.1,352.3,335.7,352.1,335.3z"/>
		<path d="M348.2,329.3L348.2,329.3c0,0.1,0,0.1,0.1,0.1L348.2,329.3z"/>
		<path d="M349.9,334.2C349.9,334.2,349.9,334.2,349.9,334.2C349.9,334.2,349.9,334.2,349.9,334.2z"/>
		<path d="M351.1,336.3c0,0.1,0.1,0.1,0.1,0.1c0.7,0.3,1.5,0.6,2.3,0.9c-0.2-0.3-0.4-0.5-0.6-0.8c-0.4-0.2-0.9-0.4-1.3-0.5
			c0,0,0,0.1-0.1,0.1c0,0.1-0.1,0.2-0.2,0.2c0,0,0,0,0,0c-0.1,0-0.2,0-0.2-0.1l-1.2-1.9c0,0,0,0,0,0L351.1,336.3z"/>
		<path fill="#FFFF00" d="M476.8,333.7L476.8,333.7l0.5-0.3l0-0.2C477.1,333.4,477,333.5,476.8,333.7
			C476.8,333.7,476.8,333.7,476.8,333.7z"/>
		<path fill="#FFFF00" d="M440.4,379c10.3-0.6,20.3-2.8,29.5-6.4l0,0l-0.3-0.4l-0.2-0.4l-0.2-0.5c-9.1,3.5-18.8,5.6-28.8,6.2
			L440.4,379z"/>
		<path fill="#FFFF00" d="M440.4,370.6c8.5-0.5,16.7-2.2,24.6-5l-1-1.3c-7.5,2.7-15.5,4.3-23.6,4.8L440.4,370.6z"/>
		<path fill="#FFFF00" d="M440.4,376.9c9.9-0.6,19.5-2.7,28.5-6.1l-0.1-0.2l-3.5-4.4c-8,2.9-16.4,4.6-25,5.1L440.4,376.9z"/>
		<path fill="#FFFF00" d="M440.4,184c17.6,1,34.4,6.8,48.9,16.8l-0.1-0.9v-1.1c-14.2-9.4-30.9-15.3-48.8-16.3L440.4,184z"/>
		<path fill="#FFFF00" d="M440.4,192.2c17.8,1.1,34.7,7.6,48.7,18.6l0.8-1.4c-14.3-11.1-31.4-17.6-49.5-18.8L440.4,192.2z"/>
		<path fill="#FFFF00" d="M440.4,190.1c18.2,1.1,35.3,7.6,49.7,18.8l0.4-1.1v-0.9l-0.1-1.2l-0.4-2.4l-0.5-1.6
			c-14.5-10.1-31.4-16-49.1-17.1L440.4,190.1z"/>
		<path fill="#FFFF00" d="M440.4,212.3l48.1,0.1l0.3-0.8l0.1-0.1c-14-11-30.7-17.4-48.4-18.5L440.4,212.3z"/>
		<path fill="#FFFF00" d="M429.2,182.4c-4.1,0.2-8.2,0.7-12.1,1.4c-10.1,1.8-19.8,5.2-28.6,9.9l-0.5,2.1c0.9-0.5,1.9-1,2.8-1.5
			l0-0.5l0.1,0.4c11.8-6,24.8-9.6,38.2-10.3V182.4z"/>
		<path fill="#FFFF00" d="M361.8,329.7c1.5,2.2,3.1,4.4,4.8,6.5l0.2-0.8l0.5-0.9l1.6-1.9l3-6l0.2-0.3c-1,0.3-2.1,0.6-3.1,0.9
			C366.9,327.8,364.3,328.7,361.8,329.7z"/>
		<polygon fill="#FFFF00" points="380.8,359 380.3,359 380.3,359.3 380.3,359.5 380.8,359.9 381,359.3 		"/>
		<path fill="#FFFF00" d="M386.3,204c0.5-0.3,0.9-0.6,1.4-0.9l0.1-0.7l0.1-1.8l0.5-2l0.6-1.8l0.6-1.1c-0.6,0.3-1.2,0.6-1.7,1
			L386.3,204z"/>
		<path fill="#FFFF00" d="M385.7,207c0.2-0.1,0.4-0.3,0.6-0.4l0.7-1.4l0.5-1.3c-0.4,0.3-0.9,0.6-1.3,0.8L385.7,207z"/>
		<path fill="#FFFF00" d="M390.1,196.3l0.4-0.3l0.3-1l0,0c-0.3,0.2-0.6,0.3-1,0.5L390.1,196.3z"/>
		<polygon fill="#FFFF00" points="344.4,295 344.9,294.4 344.6,294.2 		"/>
		<path fill="#FFFF00" d="M429.2,377.4c-16.2-0.9-31.6-5.8-45.3-14.3l-1,0l-0.1-0.7c-0.5-0.3-1-0.6-1.4-0.9l-2.2-0.7l-2-1.8
			l-1.2-0.5l-0.7,0.7c0.1,0.1,0.3,0.2,0.4,0.3l1,0.4l2,1.6l0.2,0.2c14.5,10,31.7,16.2,50.3,17.2V377.4z"/>
		<path fill="#FFFF00" d="M429.2,371.2c-15.4-0.9-30.2-5.8-43.1-14.1l-0.4,0.3l-0.3,0.7l-0.1,0.9l0.1,1l0.3,0.9l0.5,0.6l3.9,1.9
			l1.4,0.3l1.6,0.1l-2.7,0.9l-5.4-1.5l-0.2,0c13.4,8.1,28.5,12.9,44.2,13.8V371.2z"/>
		<path fill="#FFFF00" d="M362.1,344.6l-0.8,0.4l-1.1,0.2c4.2,4.8,8.8,9.2,13.8,13.1l1-0.5l0.9-0.2c-3.3-2.6-6.5-5.4-9.6-8.4
			C364.9,347.7,363.4,346.1,362.1,344.6z"/>
		<path fill="#FFFF00" d="M429.2,369c-15.9-1-31-6.2-44.1-15.2l-0.3,0.7l0.1,1l0.2,0.4c13.1,8.7,28.2,13.8,44,14.8V369z"/>
		<path fill="#FFFF00" d="M355.4,319.9c-1.3-2.7-2.5-5.4-3.6-8.1l0,0l-1,1.7c0.9,2.4,2,4.7,3.1,7
			C354.4,320.3,354.9,320.1,355.4,319.9z"/>
		<path fill="#FFFF00" d="M356,319.6c4-1.6,8-2.8,10.1-3.4c4.2-1.2,8.6-2.3,13.2-3.2c-2.6-6.6-4-13.8-4-21.1h0l0-19.2
			c-1.8,0.3-3.5,0.6-5.2,1c-0.4,0.1-0.9,0.2-1.3,0.3l-1.6,3.8l-0.4,1.4l-0.1,1.6l0.1,1.1l-0.1,0.6l-0.3,1l-1.2,2.4l-0.5,0.7
			l-0.7,0.8l-0.8,0.6l-0.7,0.3l-0.7,0.5l-1.6,2.4l-0.7,0.8v0.8l0.7,0.5l0.9,0.8l0.4,0.9l-0.6,0.7l-0.5-0.1l-0.3-0.7l-0.5-0.7
			l-1.1-0.3l-1,0.4l-2.6,2.9l-3.8,0.5l-0.6,0.2l0.4,0.7l2,2l0.6,1.4l0.3,2.9l-0.3,2.6l-0.6,2.4l-0.5,1.3
			C353.3,313.9,354.5,316.8,356,319.6z"/>
		<path fill="#FFFF00" d="M429.2,184.6c-13.4,0.8-26.3,4.3-38,10.3l0.2,0.6l-2,2.9l0.4,2l0.4,0.6l0.7,0.3
			c11.7-6.5,24.7-10.4,38.3-11.2V184.6z"/>
		<path fill="#FFFF00" d="M369,342.9l-0.2,0.5l0.5,1v0.5l-0.8,0.1l-1.7,0.5l-0.8,0.4l0.3,1.4h-0.3l-0.5-0.8l-2.8-2
			c1.3,1.5,2.7,3,4.1,4.4c3.1,3.1,6.4,6,9.9,8.7l0.4-0.1l2.1,0.7l1.9,1l1.1,0.3l1.3,0.1l0.5-0.5v-1.2l-0.5-1l-1.2-0.2v-0.4l1.1-0.3
			l0.2-0.4c-4.5-3.1-8.7-6.6-12.7-10.6C370.1,344.1,369.6,343.5,369,342.9z"/>
		<path fill="#FFFF00" d="M429.2,192.8c-13.6,0.9-26.6,4.8-38.2,11.6l0.6,0.4L391,206l-0.5,0.5l-0.5,0.2l-0.3-0.2l-0.2-0.4l-0.3-0.2
			l-0.5,0.3l-0.1,0.4l0.1,0.5l0.2,0.4l0.1,0.2v0.4h-0.3l-0.7-0.5l-0.7,0.6l-1.1,1.8v-2l-0.3,0.2l-0.1,0.2l-1.4,3.1l-0.1,0.6
			l45.2,0.1V192.8z"/>
		<path fill="#FFFF00" d="M429.2,190.6c-13.2,0.8-25.8,4.5-37.3,10.7l1.1-0.3l1.4-0.7l0.9-0.1l-0.9,0.8l-0.8,0.6l-0.9,0.4l-1.2,0.1
			l-1,0.3l-0.1,0.7l0.3,0.6c11.8-6.8,24.9-10.9,38.6-11.7V190.6z"/>
		<path fill="#FFFF00" d="M372.3,343.2c-0.7-0.7-1.3-1.4-2-2.1l-0.5,0.5l-0.6,0.7c0.6,0.7,1.3,1.4,1.9,2c3.9,3.9,8.1,7.4,12.5,10.5
			l0.6-1.2l0.6,0.1C380.4,350.6,376.2,347.1,372.3,343.2z"/>
		<polygon fill="#FFFF00" points="371,329.1 370.6,330.1 370.6,331.2 371,330.9 371.3,329.5 		"/>
		<path fill="#FFFF00" d="M350.5,314.1l-0.3,0.7l-1,5.8l-0.4,1.1l0.3,1.2c1.3-0.8,2.7-1.5,4.3-2.2
			C352.4,318.5,351.4,316.4,350.5,314.1z"/>
		<path fill="#FFFF00" d="M375.2,257.3l-1.5,4.4c0.5-0.1,1-0.2,1.5-0.3L375.2,257.3z"/>
		<polygon fill="#FFFF00" points="369.1,335.1 369.9,333.9 370.3,332.9 370.2,332.5 369.9,332.7 369.7,332.8 369.4,333.1
			368.8,333.8 368.2,334.8 367.8,336 368.1,336.1 		"/>
		<path fill="#FFFF00" d="M372.7,342.8c15.4,15.3,35.3,24.3,56.6,25.7v-17.6c-13.6-1.3-26.4-7.3-36.5-17.4c-3.1-3.1-5.8-6.4-8-9.9
			c-3.9,0.7-7.7,1.6-11.4,2.5l-1.7,3.6l0.5,1.6l0.3,1.7l0.5,1.1l1.2-0.1l-0.4,1.1l0.3,1.4l0.6,1.4l0.5,0.9v0.4l-0.3,0.1l-0.3,0.3
			l-0.2,0.1l-0.3-0.5l-0.5,0.3l-2.6,1l-0.3,0.3C371.4,341.4,372,342.1,372.7,342.8z"/>
		<path fill="#FFFF00" d="M353.7,333.7c-0.5,0.4-0.9,0.7-1.3,1.1c2.2,3.3,4.6,6.5,7.1,9.5l0.6,0l1.3-0.4
			C358.7,340.7,356.1,337.3,353.7,333.7z"/>
		<path fill="#FFFF00" d="M440.4,350.8l0,17.6c8-0.5,15.8-2.1,23.2-4.7l-0.5-0.6l-1.6-1.2l-0.8-0.4l0.8-0.8l0.5-0.7l0.1-0.8
			l-0.6-0.9l0.5-0.8l1-3.5l2.2-3.3l0.3-1l-0.1-0.5l-0.3-0.3l-0.3-0.2l-0.3-0.5l-0.1-0.5v-0.7l0.1-1.6l0.3-2.4l0.2-0.4
			C457.5,347.3,449.1,350,440.4,350.8z"/>
		<path fill="#FFFF00" d="M361.3,329.9c-0.5,0.2-1,0.4-1.5,0.6c2,2.9,4.1,5.8,6.5,8.5l0.1-1.3l0.1-0.8
			C364.6,334.6,362.9,332.3,361.3,329.9z"/>
		<polygon fill="#FFFF00" points="370.7,332.9 371.2,333.5 371.9,333.2 372,332.5 371.8,332 371.4,331.7 371,332 		"/>
		<path fill="#FFFF00" d="M359.2,330.7c-1.9,0.9-3.7,1.8-5,2.7c2.4,3.6,5,7.1,7.9,10.4l2.4-0.7l0.8-0.5l0.6-0.9l0.2-1.4l0-0.5
			C363.7,336.9,361.3,333.9,359.2,330.7z"/>
		<path d="M440.4,182.4c18,1,34.6,6.9,48.8,16.3v-0.1l0.1-0.5c-14.2-9.4-30.9-15.2-48.8-16.2L440.4,182.4z"/>
		<path d="M440.4,379.6c10.6-0.6,20.7-2.9,30.2-6.5l-0.6-0.4c-9.3,3.6-19.2,5.8-29.6,6.4L440.4,379.6z"/>
		<path d="M429.2,379.1c-18.6-1-35.9-7.2-50.3-17.2l1.3,1.6c14.2,9.4,31,15.2,49,16.2V379.1z"/>
		<path d="M429.2,182.4v-0.6c-14.6,0.8-28.3,4.8-40.6,11.2l-0.2,0.7c8.8-4.7,18.4-8.1,28.6-9.9C421.1,183.1,425.1,182.6,429.2,182.4
			z"/>
		<path d="M440.4,377.4c9.9-0.6,19.6-2.7,28.8-6.2l-0.1-0.3l-0.1-0.2c-9.1,3.5-18.7,5.6-28.5,6.1L440.4,377.4z"/>
		<path d="M440.4,184.6c17.7,1,34.6,6.9,49.1,17.1l-0.2-0.7l0-0.2c-14.5-10-31.3-15.8-48.9-16.8L440.4,184.6z"/>
		<path d="M382.9,362.3l-1.2-0.7l-0.3-0.1c0.5,0.3,1,0.6,1.4,0.9L382.9,362.3z"/>
		<path d="M375.2,359.4l0.5,0.2c-0.1-0.1-0.3-0.2-0.4-0.3L375.2,359.4z"/>
		<path d="M360.3,345.1l-0.7,0.1c4.2,4.9,8.8,9.3,13.9,13.3l0.6-0.3C369,354.3,364.4,349.9,360.3,345.1z"/>
		<path d="M429.2,376.9c-15.8-0.9-30.9-5.6-44.2-13.8l-1,0c13.6,8.5,29.1,13.4,45.3,14.3V376.9z"/>
		<path d="M362.6,344.3L362.6,344.3l-0.5,0.2c1.4,1.6,2.8,3.1,4.3,4.6c3,3,6.2,5.8,9.6,8.4l0.7-0.2c-3.5-2.6-6.8-5.5-9.9-8.7
			C365.3,347.3,363.9,345.8,362.6,344.3z"/>
		<path d="M387.9,196.6c0.6-0.3,1.2-0.6,1.7-1l0.2-0.3l0.1,0.2c0.3-0.2,0.6-0.3,1-0.5l0-0.7c-0.9,0.5-1.9,1-2.8,1.5L387.9,196.6z"/>
		<path d="M429.2,184c-13.4,0.8-26.4,4.3-38.2,10.3l0.2,0.5c11.7-6,24.6-9.5,38-10.3V184z"/>
		<path d="M352.5,334.8c-0.1,0.2-0.3,0.3-0.4,0.5c0.3,0.4,0.6,0.8,0.8,1.3c0.2,0.3,0.4,0.5,0.6,0.8c1.7,2.4,3.5,4.7,5.4,7l0.7,0
			C357,341.3,354.6,338.1,352.5,334.8z"/>
		<path d="M354.2,333.4c-0.2,0.1-0.3,0.2-0.5,0.3c2.3,3.6,4.9,7,7.8,10.2l0.6-0.2C359.2,340.5,356.6,337,354.2,333.4z"/>
		<path d="M440.4,192.2l0,0.6c17.7,1.1,34.5,7.5,48.4,18.5l0.3-0.5C475,199.8,458.2,193.3,440.4,192.2z"/>
		<path d="M440.4,371.2c8.6-0.5,17-2.3,25-5.1l-0.4-0.5c-7.9,2.8-16.1,4.5-24.6,5L440.4,371.2z"/>
		<path d="M440.4,369c8.1-0.5,16-2.1,23.6-4.8l-0.4-0.5c-7.4,2.6-15.2,4.2-23.2,4.7L440.4,369z"/>
		<path d="M440.4,190.6c18.1,1.1,35.2,7.6,49.5,18.8l0.1-0.2l0.1-0.3c-14.4-11.2-31.6-17.7-49.7-18.8L440.4,190.6z"/>
		<path d="M353.9,320.5c-1.1-2.3-2.2-4.6-3.1-7l-0.2,0.3l-0.2,0.3c0.9,2.2,1.9,4.4,2.9,6.6C353.6,320.6,353.8,320.5,353.9,320.5z"/>
		<path d="M386.2,204.8c0.4-0.3,0.9-0.6,1.3-0.8l0.1-0.4l0.1-0.4c-0.5,0.3-0.9,0.6-1.4,0.9L386.2,204.8z"/>
		<path d="M369.2,342.3l-0.1,0.1l-0.2,0.4c0.6,0.6,1.2,1.3,1.8,1.9c3.9,3.9,8.2,7.5,12.7,10.6l0.3-0.5c-4.4-3.1-8.6-6.6-12.5-10.5
			C370.5,343.7,369.9,343,369.2,342.3z"/>
		<path d="M429.2,190c-13.6,0.8-26.6,4.7-38.3,11.2l0.5,0.2h0.3l0.2-0.1l0.1,0c11.4-6.2,24.1-9.9,37.3-10.7V190z"/>
		<path d="M429.2,192.2c-13.7,0.9-26.9,4.9-38.6,11.7l0.1,0.3l0.3,0.2c11.6-6.7,24.6-10.7,38.2-11.6V192.2z"/>
		<path d="M356,319.6c-1.4-2.8-2.7-5.7-3.8-8.7l-0.3,0.8c1,2.8,2.2,5.5,3.6,8.1C355.6,319.8,355.8,319.7,356,319.6z"/>
		<path d="M429.2,368.5c-21.3-1.3-41.2-10.3-56.6-25.7c-0.7-0.7-1.3-1.4-2-2.1l-0.4,0.4c0.7,0.7,1.3,1.4,2,2.1
			c3.9,3.9,8.1,7.4,12.6,10.5l0.3,0l-0.1,0.1c13.1,9,28.2,14.2,44.1,15.2V368.5z"/>
		<path d="M429.2,370.6c-15.8-1-30.9-6.1-44-14.8l0.3,0.4l0.7,0.3v0.5l-0.1,0.1c12.9,8.3,27.6,13.1,43.1,14.1V370.6z"/>
		<path d="M385.6,207.5l0.7-0.8l0.1-0.1c-0.2,0.1-0.4,0.3-0.6,0.4L385.6,207.5z"/>
		<path d="M359.8,330.5c-0.2,0.1-0.4,0.2-0.5,0.2c2.1,3.1,4.4,6.2,6.9,9.1l0.1-0.8C363.9,336.3,361.7,333.4,359.8,330.5z"/>
		<path d="M361.8,329.7c-0.2,0.1-0.4,0.1-0.5,0.2c1.6,2.4,3.4,4.7,5.2,7l0.1-0.3l0.1-0.4C364.9,334,363.3,331.9,361.8,329.7z"/>
		<path fill="#FFFF00" d="M438.2,380.9h1.6l0-30c-0.5,0-1.1,0.1-1.6,0.1L438.2,380.9z"/>
		<rect x="438.2" y="180.7" fill="#FFFF00" width="1.6" height="31.6"/>
		<rect x="432" y="181.8" fill="#FFFF00" width="5.7" height="30.4"/>
		<path fill="#FFFF00" d="M432,379.7h5.7l0-28.7c-1,0-2,0.1-3,0.1c-0.9,0-1.8,0-2.7-0.1L432,379.7z"/>
		<path fill="#FFFF00" d="M429.8,380.9h1.6l0-29.9c-0.5,0-1.1-0.1-1.6-0.1V380.9z"/>
		<rect x="429.8" y="180.7" fill="#FFFF00" width="1.6" height="31.6"/>
		<polygon points="432,181.8 437.6,181.8 437.6,181.3 434.8,181.3 432,181.3 		"/>
		<polygon points="437.6,379.7 432,379.7 432,380.3 434.8,380.3 437.6,380.3 		"/>
		<path d="M440.4,192.2l0-1.6l0-0.6l0-5.5l0-0.6l0-1.5v-0.1l0-0.6l0-1.4c0-0.2-0.1-0.3-0.3-0.3h-2.2c-0.1,0-0.1,0-0.2,0.1
			c-0.1,0.1-0.1,0.1-0.1,0.2l0,0.8l0,0.6l0,30.4l0.6,0l0-31.6h1.6l0,31.6l0.6,0l0-19.5L440.4,192.2z"/>
		<path d="M437.6,379.7l0,0.6l0,0.9c0,0.2,0.1,0.3,0.3,0.3h2.2c0.1,0,0.1,0,0.2-0.1c0.1-0.1,0.1-0.1,0.1-0.2l0-1.6l0-0.6v0l0-1.6
			l0-0.6l0-5.7l0-0.6l0-1.6l0-0.6l0-17.6c-0.2,0-0.4,0-0.6,0l0,30h-1.6l0-29.9c-0.2,0-0.4,0-0.6,0L437.6,379.7z"/>
		<path d="M432,181.8v-0.6v-0.8c0-0.2-0.1-0.3-0.3-0.3h-2.2c0,0,0,0,0,0c-0.2,0-0.3,0.1-0.3,0.3c0,0,0,0,0,0v1.4v0.6v0v1.6v0.6v5.5
			v0.6v1.6v0.6v19.4l0.6,0v-31.5h1.6l0,31.6l0.6,0L432,181.8z"/>
		<path d="M432,379.7l0-28.7c-0.2,0-0.4,0-0.6,0l0,29.9h-1.6v-30c-0.2,0-0.4,0-0.6,0v17.6v0.6v1.6v0.6v5.7v0.6v1.6v0.6v1.5
			c0,0.2,0.1,0.3,0.3,0.3h2.2c0.1,0,0.1,0,0.2-0.1c0.1-0.1,0.1-0.1,0.1-0.2v-0.9V379.7z"/>
		<path fill="#FFFF00" d="M375.2,269.9l0-5.6c-0.9,0.1-1.7,0.3-2.6,0.5l-2.6,6.1C371.7,270.5,373.4,270.2,375.2,269.9z"/>
		<path fill="#FFFF00" d="M375.2,272.2l0-1.7c-1.8,0.3-3.7,0.6-5.4,1l-0.8,1.9c0.3-0.1,0.6-0.1,0.9-0.2
			C371.6,272.8,373.4,272.5,375.2,272.2z"/>
		<path fill="#FFFF00" d="M375.2,262c-0.6,0.1-1.1,0.2-1.7,0.3l-0.6,1.9c0.8-0.1,1.6-0.3,2.3-0.4L375.2,262z"/>
		<path d="M375.2,272.8l0-0.6c-1.8,0.3-3.6,0.6-5.3,1c-0.3,0.1-0.6,0.1-0.9,0.2l-0.3,0.6c0.4-0.1,0.9-0.2,1.3-0.3
			C371.7,273.4,373.4,273.1,375.2,272.8z"/>
		<path d="M375.2,263.7c-0.8,0.1-1.6,0.3-2.3,0.4l-0.2,0.6l0,0.1c0.8-0.2,1.7-0.3,2.6-0.5L375.2,263.7z"/>
		<path d="M375.2,261.4c-0.5,0.1-1,0.2-1.5,0.3l-0.2,0.6c0.6-0.1,1.1-0.2,1.7-0.3L375.2,261.4z"/>
		<path d="M375.2,270.5l0-0.6c-1.8,0.3-3.5,0.6-5.2,0.9l-0.3,0.6C371.5,271.1,373.3,270.8,375.2,270.5z"/>
		<polygon fill="#FFFF00" points="348.3,329.4 348.2,329.3 348.2,329.3 348.3,329.4 		"/>
		<path fill="#FFFF00" d="M382.4,319.7l-0.7,0.6l-1,0.4l-2.3,0.2l-1.1,0.3l-1.9,1.4l-0.1,0.1c2.6-0.6,5.3-1.2,7.9-1.7
			C382.8,320.6,382.6,320.1,382.4,319.7z"/>
		<path fill="#FFFF00" d="M366.7,318.9c-6.9,2-14.3,4.9-17.6,7.5l-0.1,0.9l-0.4,1.3l2.3,4c2.2-2.3,8.3-5.5,17.6-8.1
			c2.1-0.6,4.2-1.1,6.3-1.7l1-2l0.7-0.6l4.7-0.5l0.9-0.7c-0.6-1.1-1.1-2.3-1.7-3.4C375.6,316.6,371.1,317.7,366.7,318.9z"/>
		<path d="M348.3,329.4l2.1,3.6c0.1-0.1,0.2-0.3,0.4-0.5l-2.3-4l-0.2,0.7L348.3,329.4z"/>
		<path fill="#FFFF00" d="M383.4,321.5c-2.9,0.6-5.7,1.2-8.6,1.9l-0.9,1.4l-0.3,0.7c3.5-0.9,7.1-1.7,10.8-2.4
			C384,322.5,383.7,322,383.4,321.5z"/>
		<path fill="#FFFF00" d="M350.4,334.1l0.8,1.4c1.9-3.3,11.7-7.1,17.7-8.8c1.2-0.4,2.5-0.7,3.7-1l1.5-2.1c-1.9,0.5-3.7,1-5.6,1.5
			C356.9,328.3,350.9,332.3,350.4,334.1z"/>
		<path fill="#FFFF00" d="M366.6,318.4c4.3-1.3,8.8-2.4,13.6-3.3c-0.2-0.5-0.4-1.1-0.7-1.6c-4.6,0.9-9,2-13.2,3.3
			c-7.6,2.2-13.6,4.6-17,6.7l0.2,0.8l-0.2,1.4C354.2,322.1,365,318.9,366.6,318.4z"/>
		<path d="M384.3,323c-3.7,0.7-7.3,1.5-10.8,2.4l-0.3,0.6c3.7-0.9,7.5-1.8,11.4-2.5C384.6,323.4,384.5,323.2,384.3,323z"/>
		<path d="M350.8,332.6c-0.2,0.2-0.3,0.3-0.4,0.5c-0.3,0.4-0.5,0.7-0.5,1.1c0,0,0,0,0,0.1c0,0,0,0,0,0.1c0,0,0,0,0,0.1l0,0l1.2,1.9
			c0,0.1,0.1,0.1,0.2,0.1c0,0,0,0,0,0c0.1,0,0.2-0.1,0.2-0.2c0,0,0-0.1,0.1-0.1c0.1-0.2,0.2-0.5,0.4-0.7c0.1-0.1,0.2-0.3,0.4-0.5
			c0.3-0.4,0.8-0.7,1.3-1.1c0.1-0.1,0.3-0.2,0.5-0.3c1.4-0.9,3.1-1.8,5-2.7c0.2-0.1,0.4-0.2,0.5-0.2c0.5-0.2,1-0.4,1.5-0.6
			c0.2-0.1,0.4-0.1,0.5-0.2c2.5-1,5.1-1.8,7.3-2.5c1-0.3,2.1-0.6,3.1-0.9l0.5-0.7c-1.3,0.3-2.5,0.7-3.7,1c-6,1.7-15.8,5.5-17.7,8.8
			l-0.8-1.4c0.5-1.8,6.5-5.8,18.2-9.1c1.9-0.5,3.8-1,5.6-1.5l0.5-0.7l0,0c-2.1,0.5-4.2,1.1-6.3,1.7
			C359.2,327.1,353.1,330.3,350.8,332.6z"/>
		<path d="M366.7,318.9c4.4-1.3,8.9-2.4,13.6-3.3c-0.1-0.2-0.2-0.3-0.2-0.5c-4.7,1-9.2,2.1-13.6,3.3c-1.5,0.4-12.4,3.7-17.4,7.2
			l-0.1,0.8C352.4,323.8,359.8,321,366.7,318.9z"/>
		<path d="M366.2,316.8c4.2-1.2,8.7-2.3,13.2-3.3c-0.1-0.2-0.1-0.3-0.2-0.5c-4.6,0.9-9,2-13.2,3.2c-2,0.6-6.1,1.8-10.1,3.4
			c-0.2,0.1-0.4,0.1-0.5,0.2c-0.5,0.2-1,0.4-1.5,0.6c-0.2,0.1-0.4,0.2-0.5,0.2c-1.6,0.7-3.1,1.4-4.3,2.2l0.1,0.6
			C352.6,321.4,358.6,319,366.2,316.8z"/>
		<path d="M383.1,321c-2.6,0.5-5.2,1.1-7.9,1.7l-0.4,0.7c2.9-0.7,5.7-1.4,8.6-1.9C383.3,321.3,383.2,321.1,383.1,321z"/>
		<path fill="#FFFFFF" d="M477,329.8l0.9-0.7l1.2-1.7l0.1-0.1C478.4,328.1,477.7,328.9,477,329.8z"/>
		<path fill="#FFFFFF" d="M468.3,238.3l-67.3-0.1l0,53.6c0,8.8,3.6,17.4,9.9,23.7c6.5,6.5,14.9,10,23.6,10c9,0,17.4-3.5,23.8-9.8
			c3.4-3.4,6-7.4,7.7-11.7l-2-2.5l-1-0.8l-0.4-0.8l-0.3-1.5v-1.6l0.3-1l0.4-1l0.3-1.6v-1.5l-0.4-0.7l-2.2-0.6l-1.1-0.5
			c-1.1,0.7-2.4,1.2-3.9,1.2c-2.1,0-3.9-0.9-5.3-2.4c-1.4-1.5-2.2-3.5-2.2-5.7v0l0-10.7l15,0v3.9l0.3-0.1l1-0.2l2.2,0.1l0.9-0.3
			l0.7,0.5L468.3,238.3z M442.4,283c0,2.2-0.8,4.2-2.2,5.7c-1.4,1.5-3.2,2.4-5.3,2.4c-2.1,0-3.9-0.9-5.3-2.4
			c-1.4-1.5-2.2-3.5-2.2-5.7v0h0l0-10.7l15,0V283z M406.7,283.1l0-10.7l15,0v10.7c0,2.2-0.8,4.2-2.2,5.7c-1.4,1.5-3.2,2.4-5.3,2.4
			c-2.1,0-3.9-0.9-5.3-2.4C407.5,287.3,406.7,285.3,406.7,283.1L406.7,283.1z M427.4,257.1L427.4,257.1L427.4,257.1l0-10.7l15,0
			v10.7c0,2.2-0.8,4.2-2.2,5.7c-1.4,1.5-3.2,2.4-5.3,2.4c-2.1,0-3.9-0.9-5.3-2.4C428.3,261.3,427.4,259.3,427.4,257.1z M442.4,308.7
			c0,2.2-0.8,4.2-2.2,5.7c-1.4,1.5-3.2,2.4-5.3,2.4c-2.1,0-3.9-0.9-5.3-2.4c-1.4-1.5-2.2-3.5-2.2-5.7v0h0l0-10.7l15,0V308.7z"/>
		<polygon fill="#FFFFFF" points="489.4,214.9 489,214.5 488.5,213.8 488.4,213 383.9,212.9 383.6,214.4 383.6,214.9 		"/>
		<path fill="#FFFFFF" d="M377.5,291.8l0.3,0v0l0,0L377.5,291.8l0-41.4l-1.7,4.9l0,36l0,0.3c0,9.6,2.3,18.8,6.7,27l1.3-1
			C379.7,309.7,377.5,300.9,377.5,291.8z"/>
		<path fill="#FFFFFF" d="M393.2,333c11.3,11.2,26,17.4,41.5,17.4c11.1,0,21.7-3.1,30.9-8.8l0-0.1l3.2-2.6l0.8-0.3l0.9-0.7l0.7-0.9
			l0.3-0.7l0.5-0.5l1.9-0.4c0.8-0.7,1.6-1.5,2.4-2.2c0.3-0.3,0.6-0.6,0.9-0.9l0.2-0.9l-0.7-1.3c-0.6,0.6-1.2,1.3-1.8,1.9
			c-10.8,10.7-25.1,16.7-40.3,16.7c-15.1,0-29.4-5.9-40.3-16.7c-4.1-4.1-7.5-8.7-10.2-13.6l-0.5,0.6l-0.7,0.5
			C385.6,324.3,389.1,328.9,393.2,333z"/>
		<polygon fill="#FFFFFF" points="377.5,238.3 377.1,239.6 377.2,241.1 377.5,241.7 		"/>
		<path d="M383.4,321.5c0.3,0.5,0.6,1,1,1.6c0.1,0.2,0.2,0.3,0.3,0.5c2.3,3.5,5,6.9,8,9.9c10.1,10,22.9,16.1,36.5,17.4
			c0.2,0,0.4,0,0.6,0c0.5,0,1.1,0.1,1.6,0.1c0.2,0,0.4,0,0.6,0c0.9,0,1.8,0.1,2.7,0.1c1,0,2,0,3-0.1c0.2,0,0.4,0,0.6,0
			c0.5,0,1.1-0.1,1.6-0.1c0.2,0,0.4,0,0.6,0c8.8-0.8,17.2-3.6,24.6-8l0-0.1l0.5-0.9l0-0.1c-9.2,5.7-19.8,8.8-30.9,8.8
			c-15.5,0-30.2-6.2-41.5-17.4c-4.1-4.1-7.6-8.7-10.3-13.7l-0.5,0.4c0.2,0.4,0.5,0.8,0.7,1.3C383.2,321.1,383.3,321.3,383.4,321.5z"
			/>
		<path d="M474,335.4l0.6-0.1l0.9-0.4l0.7-0.7l0.6-0.5c0,0,0,0,0,0c0.1-0.1,0.3-0.3,0.4-0.4l-0.1-0.8l0-0.2
			c-0.3,0.3-0.6,0.6-0.9,0.9C475.6,334,474.8,334.7,474,335.4z"/>
		<polygon points="488.4,213 488.4,212.6 488.5,212.3 440.4,212.3 439.8,212.3 438.2,212.3 437.6,212.3 432,212.2 431.4,212.2
			429.8,212.2 429.2,212.2 384,212.2 383.9,212.9 		"/>
		<path d="M375.9,291.6l0-0.3l0-36l-0.7,2l0,4.2l0,0.6l0,1.7l0,0.6l0,5.6l0,0.6l0,1.7l0,0.6l0,19.2h0c0,7.3,1.4,14.4,4,21.1
			c0.1,0.2,0.1,0.3,0.2,0.5c0.2,0.5,0.4,1.1,0.7,1.6c0.1,0.2,0.2,0.3,0.2,0.5c0.5,1.2,1.1,2.3,1.7,3.4l0.5-0.4
			C378.2,310.4,375.9,301.1,375.9,291.6z"/>
		<path fill="#FF0000" d="M482,265.6L482,265.6l0.3,0c-0.1,0-0.1,0-0.2,0H482z"/>
		<path fill="#FF0000" d="M487.4,222.5l0.1,3h0.5c0.5,0,0.9,0.4,0.9,1c0,0.4-0.2,0.7-0.6,0.9c0.1,0.2,0.2,0.3,0.2,0.5
			c0,0.5-0.4,0.9-0.8,0.9l0.4,3.1l1.9-1.4l0.5-0.5l0.7-1.3v-0.7l-1.6-1.5l-1.2-2l-0.3-2.3l0.1-0.3
			C488,222.4,487.7,222.5,487.4,222.5z"/>
		<polygon fill="#FF0000" points="383,219.8 383,220.3 383,220.4 383,220.4 		"/>
		<path fill="#FF0000" d="M470.6,315.7c-0.2,0-0.4-0.1-0.5-0.2l-2,2.2l0.4,0.4l2.7-2.5l0,0l0-0.2l0,0
			C471,315.7,470.8,315.7,470.6,315.7z"/>
		<polygon fill="#FF0000" points="469.4,311.8 470,311.2 471.3,312.4 470.6,313 470.9,313.3 471.5,312.7 471.9,313 471.9,313
			471.2,311.7 469.9,311.1 469.7,311 469.1,311.6 		"/>
		<path fill="#FF0000" d="M394.7,331.5c10.8,10.7,24.9,16.6,39.9,16.6c15.1,0,29.3-5.9,39.9-16.5c2.2-2.2,4.2-4.5,5.9-6.9l0.4-0.8
			l0.5-0.7l0.3-0.7l-0.1-0.6l-0.6-0.5l0.3-1.2l-0.3-1.4l-0.7-1.2l-0.9-0.8l-1.1-0.8l-1.1,1.1c-0.1,0.1-0.3,0.2-0.5,0.2c0,0,0,0,0,0
			c-0.2,0-0.4-0.1-0.6-0.2L476,317l-4.2,4.5l0.4,0.4l2.2-2.1c-0.1-0.1-0.2-0.3-0.2-0.5c0-0.2,0.1-0.4,0.2-0.6l1.6-1.6l1.2,1.2
			l-0.6,0.6l0.3,0.3l0.6-0.6l1.2,1.2l-0.6,0.6l0.3,0.3l0.6-0.6l1.2,1.2l-1.6,1.6c-0.2,0.1-0.3,0.2-0.5,0.2c-0.2,0-0.4-0.1-0.5-0.2
			l-2,2.2l0.4,0.4c0.3,0.3,0.3,0.9-0.1,1.3c-0.2,0.2-0.5,0.3-0.7,0.3c-0.1,0-0.2,0-0.3-0.1c0,0.2-0.1,0.3-0.3,0.5
			c-0.2,0.2-0.4,0.3-0.6,0.3c0,0,0,0-0.1,0c-0.2,0-0.4-0.1-0.5-0.2l-3.5,4.5c0.1,0.2,0.2,0.4,0.2,0.6c0,0.3-0.1,0.6-0.3,0.8
			c-0.2,0.2-0.5,0.3-0.8,0.3c0,0,0,0,0,0c-0.2,0-0.4-0.1-0.6-0.2l-12-12c-0.3-0.3-0.3-1,0.1-1.4c0.4-0.4,1-0.4,1.4-0.1l0,0l4.4-3.6
			c-0.3-0.3-0.3-0.9,0.1-1.2c0.1-0.1,0.3-0.2,0.5-0.3c-0.1-0.3,0-0.7,0.2-1c0.2-0.2,0.4-0.3,0.6-0.3c0.2,0,0.5,0.1,0.6,0.2l0.3,0.3
			l2.2-2.1c-0.1-0.1-0.2-0.3-0.2-0.5c0-0.2,0.1-0.4,0.2-0.6l0.9-0.9l-0.9-0.5l-0.7-1.1l-0.4-1.4l0.1-1.4l0.8-1.3l-0.2-0.3
			c-1.7,4.3-4.3,8.2-7.7,11.6c-6.5,6.4-15.1,10-24.2,10c-8.9,0-17.4-3.6-23.9-10.1c-6.4-6.4-10.1-15.1-10.1-24.1l0-54.1h0.3
			l67.9,0.1l0.1,0.1l0,0.1l0,38.3l1.6,0.1l1.5-0.2l0.1-1.2c-0.4,0-0.8-0.4-0.8-0.9c0-0.2,0.1-0.4,0.2-0.5c-0.3-0.1-0.5-0.5-0.5-0.9
			c0-0.5,0.4-1,0.9-1h0.5l0.1-3c-0.4,0-0.7-0.4-0.8-0.8l0-2.1l0.1-0.1l0.1,0l1.4,0v0.9h0.4v-0.9l1.7,0v0.9h0.4v-0.9l1.7,0l0,2.3
			c0,0.4-0.3,0.7-0.8,0.8l0.1,3h0.6l0.3-6.1h-0.1c-0.4,0-0.8-0.4-0.8-0.8l0-2.2l0.3-0.1l1.5,0v0.9h0.4v-0.9l1.8,0v0.9h0.4v-0.9h1.8
			l0,2.3c0,0.2-0.1,0.4-0.2,0.5l0.3-0.2l1.4-2l0.2-0.7l0.1-1.2l0.1-0.6v-0.3l-0.2-0.7v-0.4l0.1-0.3l0.5-0.4l0.1-0.3l0.3-1.8l0.2-0.6
			l-0.1-0.7l0.3-0.8l1-1.6l-2.2-3.9l-1.2-1.5l-0.8-1.2l-0.6-0.5l-0.6-0.2l-1.4-0.2l-0.7-0.2l-0.6-1l-0.4-2.4l-0.5-1l0.5-0.8l0.5-1.6
			l0.5-0.7l1-0.5l0.8-0.5h-9.7c-0.5,0-0.9-0.5-0.9-1c0-0.6,0.4-1,0.9-1h0.1l0.6-5.7c-0.5,0-0.8-0.4-0.8-0.9c0-0.2,0.1-0.4,0.2-0.5
			c-0.3-0.1-0.5-0.5-0.5-0.9c0-0.5,0.4-1,0.9-1h0.5l0.1-3c-0.4,0-0.8-0.4-0.8-0.8l0-2.1l0.3-0.1l1.4,0v0.9h0.4v-0.9l1.7,0v0.9h0.4
			v-0.9l1.7,0l0,2.3c0,0.4-0.3,0.8-0.8,0.8l0.1,3h0.6l0.3-6.1h-0.1c-0.4,0-0.8-0.4-0.8-0.8l0-2.1l0.1-0.1l0.1,0l1.5,0v0.9h0.4v-0.9
			l1.8,0v0.9h0.4v-0.9h1.8l0,2.3c0,0.4-0.3,0.8-0.8,0.8H482l0.3,6.1h0.6l0.1-3c-0.4,0-0.7-0.4-0.8-0.8l0-2.1l0.3-0.1l1.4,0v0.9h0.4
			v-0.9l1.7,0v0.9h0.4v-0.9l1.7,0l0,2.3c0,0.1,0,0.2-0.1,0.3l0.9-2.2l1.3-1.8l0.1-0.8l-0.3-1.2l-0.4-0.7l-106.3,0l-0.4,4.1l1.7,0
			v0.9h0.4v-0.9l1.7,0l0,2.3c0,0.4-0.3,0.8-0.8,0.8l0.1,3h0.6l0.3-6.1h-0.1c-0.4,0-0.8-0.4-0.8-0.8l0-2.1l0.1-0.1l0.1,0l1.5,0v0.9
			h0.4v-0.9l1.8,0v0.9h0.4v-0.9h1.8l0,2.3c0,0.4-0.3,0.8-0.8,0.8h-0.1l0.3,6.1h0.6l0.1-3c-0.4,0-0.7-0.4-0.8-0.8l0-2.1l0.3-0.1
			l1.4,0v0.9h0.4v-0.9l1.7,0v0.9h0.4v-0.9l1.7,0l0,2.3c0,0.4-0.3,0.8-0.8,0.8l0.1,3h0.5c0.5,0,0.9,0.4,0.9,1c0,0.4-0.2,0.7-0.6,0.9
			c0.1,0.2,0.2,0.3,0.2,0.5c0,0.5-0.4,0.9-0.8,0.9l0.7,5.7c0.5,0,0.9,0.5,0.9,1c0,0.6-0.4,1-0.9,1h-16.9c-0.5,0-0.9-0.5-0.9-1
			c0-0.6,0.4-1,0.9-1h0.1l0.6-5.7c-0.2,0-0.4-0.1-0.6-0.3l-1.5,5.8l-1.3,2.7l0,5.2l0.7,0.4l2.4,0.3l1,0.3l0.8,0.6l0.9,0.8v0.5
			l-2.2-0.1l-0.9-0.4l-0.6-0.9l-0.8,1l-1.4,4l0,42.8h-0.3l0,0v0l0.3,0v0c0,9,2.2,17.8,6.3,25.6l0.7-0.5l-0.5,0.9
			C387.1,322.8,390.5,327.4,394.7,331.5z M427.3,222.6c-0.4,0-0.7-0.4-0.8-0.8l0-2.1l0.1-0.1l0.1,0l1.4,0v0.9h0.4v-0.9l1.7,0v0.9
			h0.4v-0.9l1.7,0l0,2.3c0,0.4-0.3,0.8-0.8,0.8l0.1,3h0.6l0.3-6.1h-0.1c-0.4,0-0.8-0.4-0.8-0.8l0-2.1l0.3-0.1l1.5,0v0.9h0.4v-0.9
			l1.8,0v0.9h0.4v-0.9h1.8l0,2.3c0,0.4-0.3,0.8-0.8,0.8h-0.1l0.3,6.1h0.6l0.1-3c-0.4,0-0.7-0.4-0.8-0.8l0-2.1l0.3-0.1l1.4,0v0.9h0.4
			v-0.9l1.7,0v0.9h0.4v-0.9l1.7,0l0,2.3c0,0.4-0.3,0.8-0.8,0.8l0.1,3h0.5c0.5,0,0.9,0.4,0.9,1c0,0.4-0.2,0.7-0.6,0.9
			c0.1,0.2,0.2,0.3,0.2,0.5c0,0.5-0.4,0.9-0.8,0.9l0.7,5.7c0.5,0,0.9,0.5,0.9,1c0,0.6-0.4,1-0.9,1h-16.9c-0.5,0-0.9-0.5-0.9-1
			c0-0.6,0.4-1,0.9-1h0.1l0.6-5.7c-0.5,0-0.8-0.4-0.8-0.9c0-0.2,0.1-0.4,0.2-0.5c-0.3-0.1-0.5-0.5-0.5-0.9c0-0.5,0.4-1,0.9-1h0.5
			L427.3,222.6z M380.6,274.1c0-0.2,0.1-0.4,0.2-0.5c-0.3-0.1-0.5-0.5-0.5-0.9c0-0.5,0.4-1,0.9-1h0.5l0.1-3c-0.4,0-0.7-0.4-0.7-0.8
			l0-2.1l0.3-0.1l1.4,0v0.9h0.4v-0.9l1.7,0v0.9h0.4v-0.9l1.7,0l0,2.3c0,0.4-0.3,0.8-0.8,0.8l0.1,3h0.6l0.3-6.1h-0.1
			c-0.4,0-0.8-0.4-0.8-0.8l0-2.2l1.7,0v0.9h0.4v-0.9l1.8,0v0.9h0.4v-0.9h1.8l0,2.3c0,0.4-0.3,0.8-0.8,0.8h-0.1l0.3,6.1h0.6l0.1-3
			c-0.4,0-0.7-0.4-0.8-0.8l0-2.1l0.3-0.1l1.4,0v0.9h0.4v-0.9l1.7,0v0.9h0.4v-0.9l1.7,0l0,2.3c0,0.4-0.3,0.8-0.8,0.8l0.1,3h0.5
			c0.5,0,0.9,0.4,0.9,1c0,0.4-0.2,0.7-0.6,0.9c0.1,0.2,0.2,0.3,0.2,0.5c0,0.5-0.4,0.9-0.8,0.9l0.7,5.7c0.5,0,0.9,0.5,0.9,1
			c0,0.6-0.4,1-0.9,1h-16.9c-0.5,0-0.9-0.5-0.9-1c0-0.6,0.4-1,0.9-1h0.1l0.6-5.7C381,275.1,380.6,274.6,380.6,274.1z M393.4,312.7
			l0.6,0.6l0.3-0.3l-0.6-0.6l1.2-1.2l1.6,1.6c0.2,0.2,0.2,0.4,0.2,0.6c0,0.2-0.1,0.4-0.2,0.5l-0.1,0.1l4.5,4.2l0.4-0.4l-2.1-2.2
			c-0.2,0.1-0.3,0.2-0.5,0.2c-0.2,0-0.4-0.1-0.5-0.2l-1.6-1.6l1.2-1.2l0.6,0.6l0.3-0.3l-0.6-0.6l1.2-1.2l0.6,0.6l0.3-0.3l-0.6-0.6
			l1.2-1.2l1.6,1.6c0.3,0.3,0.3,0.8,0,1.1l2.2,2l0.4-0.4c0.3-0.3,0.9-0.3,1.3,0.1c0.3,0.3,0.4,0.7,0.2,1c0.2,0,0.3,0.1,0.5,0.3
			c0.2,0.2,0.3,0.4,0.3,0.7c0,0.2-0.1,0.4-0.2,0.5l4.5,3.6c0.4-0.3,1-0.3,1.4,0.1c0.4,0.4,0.4,1,0.1,1.4l-12,12
			c-0.2,0.2-0.4,0.2-0.6,0.2c-0.3,0-0.5-0.1-0.8-0.3c-0.4-0.4-0.4-1-0.1-1.4l0,0l0,0l-3.6-4.5c-0.1,0.1-0.3,0.2-0.5,0.2
			c-0.2,0-0.5-0.1-0.7-0.3c-0.1-0.1-0.2-0.3-0.3-0.5c-0.1,0-0.2,0.1-0.3,0.1c-0.2,0-0.5-0.1-0.7-0.3c-0.4-0.4-0.4-0.9-0.1-1.3
			l0.4-0.4l-2.1-2.2c-0.2,0.1-0.3,0.2-0.5,0.2c-0.2,0-0.4-0.1-0.5-0.2l-1.6-1.6l1.2-1.2l0.6,0.6l0.3-0.3l-0.6-0.6l1.2-1.2l0.6,0.6
			l0.3-0.3l-0.6-0.6l1.2-1.2l1.6,1.6c0.1,0.1,0.2,0.3,0.2,0.5c0,0.2-0.1,0.4-0.2,0.5l2.2,2l0.4-0.4l-4.1-4.5l0,0
			c-0.2,0.2-0.4,0.2-0.6,0.2c-0.2,0-0.4-0.1-0.5-0.2l-1.6-1.6l1.2-1.2l0.6,0.6l0.3-0.3l-0.6-0.6L393.4,312.7z"/>
		<polygon fill="#FF0000" points="380.8,243.4 380.5,243.5 380.3,243.4 380.5,243.8 380.7,244.2 381.4,245 382,245 383.1,244.5
			381.4,243.6 		"/>
		<path d="M394.3,331.8c10.9,10.8,25.2,16.7,40.3,16.7c15.2,0,29.5-5.9,40.3-16.7c0.6-0.6,1.2-1.3,1.8-1.9l0,0l0.3-0.2
			c0.7-0.8,1.5-1.7,2.2-2.5l1.3-2.6c-1.8,2.4-3.7,4.8-5.9,6.9c-10.7,10.6-24.9,16.5-39.9,16.5c-15,0-29.2-5.9-39.9-16.6
			c-4.1-4.1-7.5-8.7-10.2-13.7l-0.1,0.1l-0.3,0.3C386.8,323.2,390.2,327.7,394.3,331.8z"/>
		<polygon points="377.5,291.7 377.7,291.7 378,291.7 378,248.9 377.5,250.4 		"/>
		<polygon points="491.4,228.4 491.1,228.2 491.1,228.9 		"/>
		<path d="M468.8,238.1l0-0.1l-0.1-0.1l-67.9-0.1h-0.3l0,54.1c0,8.9,3.7,17.7,10.1,24.1c6.6,6.5,15.1,10.1,23.9,10.1
			c9.1,0,17.7-3.5,24.2-10c3.4-3.4,6-7.3,7.7-11.6l-0.4-0.5c-1.7,4.3-4.3,8.3-7.7,11.7c-6.4,6.3-14.8,9.8-23.8,9.8
			c-8.7,0-17.1-3.6-23.6-10c-6.3-6.3-9.9-14.9-9.9-23.7l0-53.6l67.3,0.1l0,37.8l0.4,0.3l0.1,0L468.8,238.1z"/>
		<polygon points="489.8,215.4 489.6,215.1 489.4,214.9 383.6,214.9 383.5,215.4 		"/>
		<path d="M378,291.8L378,291.8l-0.3,0l-0.3,0c0,9.1,2.2,18,6.4,25.9l0.4-0.3C380.2,309.5,378,300.8,378,291.8z"/>
		<polygon points="378.1,237.1 377.8,237.7 377.5,238.3 377.5,241.7 377.8,242.1 378,242.3 		"/>
		<path fill="#003399" d="M448.2,272.3l0,10.7v0c0,2.2,0.8,4.2,2.2,5.7c1.4,1.5,3.2,2.4,5.3,2.4c1.4,0,2.7-0.4,3.9-1.2l0,0l-0.8-0.7
			l-0.5-1.6l-0.5-0.6l-1.8-0.9l-0.9-0.9l-1.6-2.2l-1-0.9l-1.8-4.9c-0.2-0.2-0.3-0.5-0.3-0.7l-0.2-0.4l0.2,0c0.1-0.7,0.7-1.2,1.5-1.2
			c0.8,0,1.4,0.6,1.5,1.4l5.2,0.2c0,0,0-0.1,0-0.1c0-0.8,0.7-1.5,1.5-1.5c0.8,0,1.5,0.7,1.5,1.5c0,0.1,0,0.2,0,0.2l0.5,0l0.7-0.2
			l0.6-0.3v-3.9L448.2,272.3z M451.8,283.1c0.8,0,1.5,0.7,1.5,1.5s-0.7,1.5-1.5,1.5c-0.8,0-1.5-0.7-1.5-1.5
			C450.3,283.7,451,283.1,451.8,283.1z"/>
		<path fill="#003399" d="M414.2,291.1c2.1,0,3.9-0.9,5.3-2.4c1.4-1.5,2.2-3.5,2.2-5.7v-10.7l-15,0l0,10.7v0c0,2.2,0.8,4.2,2.2,5.7
			C410.3,290.2,412.1,291.1,414.2,291.1z M416.9,276.4c0-0.8,0.7-1.5,1.5-1.5c0.8,0,1.5,0.7,1.5,1.5c0,0.8-0.7,1.5-1.5,1.5
			C417.6,277.9,416.9,277.2,416.9,276.4z M414.3,281.9c-0.8,0-1.5-0.7-1.5-1.5c0-0.8,0.7-1.5,1.5-1.5c0.8,0,1.5,0.7,1.5,1.5
			C415.8,281.2,415.1,281.9,414.3,281.9z M418.4,286c-0.8,0-1.5-0.7-1.5-1.5c0-0.8,0.7-1.5,1.5-1.5c0.8,0,1.5,0.7,1.5,1.5
			S419.2,286,418.4,286z M410.3,274.9c0.2,0,0.4,0,0.6,0.1c0.5,0.2,0.9,0.8,0.9,1.4c0,0.8-0.7,1.5-1.5,1.5c-0.2,0-0.4,0-0.6-0.1
			c-0.5-0.2-0.9-0.8-0.9-1.4C408.8,275.6,409.5,274.9,410.3,274.9z M410.3,283.1c0.8,0,1.5,0.7,1.5,1.5c0,0.8-0.7,1.5-1.5,1.5
			c-0.8,0-1.5-0.7-1.5-1.5C408.8,283.8,409.5,283.1,410.3,283.1z"/>
		<path fill="#003399" d="M442.4,298l-15,0l0,10.7h0v0c0,2.2,0.8,4.2,2.2,5.7c1.4,1.5,3.2,2.4,5.3,2.4c2.1,0,3.9-0.9,5.3-2.4
			c1.4-1.5,2.2-3.5,2.2-5.7V298z M440.6,302.1c0,0.8-0.7,1.5-1.5,1.5c-0.8,0-1.5-0.7-1.5-1.5c0-0.8,0.7-1.5,1.5-1.5
			C439.9,300.6,440.6,301.3,440.6,302.1z M434.9,304.6c0.8,0,1.5,0.7,1.5,1.5c0,0.8-0.7,1.5-1.5,1.5c-0.8,0-1.5-0.7-1.5-1.5
			C433.5,305.3,434.1,304.6,434.9,304.6z M429.4,302.1c0-0.8,0.7-1.5,1.5-1.5c0.8,0,1.5,0.7,1.5,1.5c0,0.8-0.7,1.5-1.5,1.5
			C430.1,303.6,429.4,302.9,429.4,302.1z M430.9,311.7c-0.8,0-1.5-0.7-1.5-1.5c0-0.8,0.7-1.5,1.5-1.5c0.8,0,1.5,0.7,1.5,1.5
			S431.7,311.7,430.9,311.7z M440.6,310.2c0,0.8-0.7,1.5-1.5,1.5c-0.8,0-1.5-0.7-1.5-1.5c0-0.8,0.7-1.5,1.5-1.5
			C439.9,308.8,440.6,309.4,440.6,310.2z"/>
		<path fill="#003399" d="M427.5,272.3l0,10.7h0v0c0,2.2,0.8,4.2,2.2,5.7c1.4,1.5,3.2,2.4,5.3,2.4c2.1,0,3.9-0.9,5.3-2.4
			c1.4-1.5,2.2-3.5,2.2-5.7v-10.7L427.5,272.3z M429.4,284.5c0-0.8,0.7-1.5,1.5-1.5s1.5,0.7,1.5,1.5c0,0.8-0.7,1.5-1.5,1.5
			S429.4,285.3,429.4,284.5z M435,278.9c0.8,0,1.5,0.7,1.5,1.5c0,0.8-0.7,1.5-1.5,1.5c-0.8,0-1.5-0.7-1.5-1.5
			C433.5,279.5,434.2,278.9,435,278.9z M430.9,274.9c0.8,0,1.5,0.7,1.5,1.5c0,0.8-0.7,1.5-1.5,1.5s-1.5-0.7-1.5-1.5
			C429.4,275.5,430.1,274.9,430.9,274.9z M440.6,284.5c0,0.8-0.7,1.5-1.5,1.5c-0.8,0-1.5-0.7-1.5-1.5c0-0.8,0.7-1.5,1.5-1.5
			C440,283,440.6,283.7,440.6,284.5z M439.2,277.8c-0.8,0-1.5-0.7-1.5-1.5c0-0.8,0.7-1.5,1.5-1.5c0.8,0,1.5,0.7,1.5,1.5
			C440.7,277.2,440,277.8,439.2,277.8z"/>
		<path fill="#003399" d="M429.6,262.7c1.4,1.5,3.2,2.4,5.3,2.4c2.1,0,3.9-0.9,5.3-2.4c1.4-1.5,2.2-3.5,2.2-5.7v-10.7l-15,0l0,10.7
			l0,0v0C427.4,259.3,428.3,261.3,429.6,262.7z M429.4,250.4c0-0.8,0.7-1.5,1.5-1.5c0.8,0,1.5,0.7,1.5,1.5c0,0.8-0.7,1.5-1.5,1.5
			C430.1,251.9,429.4,251.2,429.4,250.4z M429.4,258.6c0-0.8,0.7-1.5,1.5-1.5c0.8,0,1.5,0.7,1.5,1.5c0,0.8-0.7,1.5-1.5,1.5
			C430.1,260.1,429.4,259.4,429.4,258.6z M434.8,252.9c0.8,0,1.5,0.7,1.5,1.5c0,0.8-0.7,1.5-1.5,1.5c-0.8,0-1.5-0.7-1.5-1.5
			C433.4,253.6,434,252.9,434.8,252.9z M439,260c-0.8,0-1.5-0.7-1.5-1.5c0-0.8,0.7-1.5,1.5-1.5c0.8,0,1.5,0.7,1.5,1.5
			C440.5,259.4,439.8,260,439,260z M440.5,250.4c0,0.8-0.7,1.5-1.5,1.5c-0.8,0-1.5-0.7-1.5-1.5c0-0.8,0.7-1.5,1.5-1.5
			C439.8,248.9,440.5,249.6,440.5,250.4z"/>
		<path fill="#FFFF00" d="M392.7,225.5l3.6,0l-0.1-3h-3.4L392.7,225.5z M394.9,223.6v1.2h-0.8v-1.2C394.1,223,394.9,223,394.9,223.6
			z"/>
		<path fill="#FFFF00" d="M386.7,234.5c0.1-2,0.9-3.1,1.6-3.8c0,0,0.7-0.5,0.9-0.5h0c0.2,0,2.4,1.1,2.5,4.3h1.3
			c-0.2-4.6-3.8-5.6-3.9-5.6c0,0-3.6,0.7-3.8,5.6H386.7z"/>
		<path fill="#FFFF00" d="M393.6,234.5h3.6l-0.7-5.7h-6.2c0.4,0.2,0.8,0.5,1.2,0.9C392.4,230.6,393.4,232.1,393.6,234.5z"/>
		<path fill="#FFFF00" d="M381.3,234.5l3.6,0c0.1-2.8,1.3-4.3,2.2-5.1c0.3-0.2,0.6-0.4,0.9-0.6h-6.1L381.3,234.5z"/>
		<path d="M396.5,228.9l0.7,5.7h-3.6c-0.1-2.5-1.2-4-2.1-4.8c-0.4-0.4-0.8-0.7-1.2-0.9h-2.2c-0.3,0.2-0.6,0.3-0.9,0.6
			c-1,0.8-2.1,2.3-2.2,5.1l-3.6,0l0.6-5.6h-0.5c0,0,0,0,0,0l-0.6,5.7h4.6c0.2-4.9,3.8-5.6,3.8-5.6c0,0,3.6,1,3.9,5.6h4.6
			c0,0,0,0,0,0l-0.7-5.7c0,0,0,0-0.1,0H396.5z"/>
		<path fill="#FFFF00" d="M380.8,235c-0.2,0-0.4,0.2-0.4,0.5c0,0.3,0.2,0.5,0.4,0.5h16.9c0.2,0,0.4-0.2,0.4-0.5
			c0-0.3-0.2-0.5-0.4-0.5H380.8z"/>
		<path d="M393.1,234.5h-1.3c0,0.1,0,0.1,0,0.2l0,0.2h-5.1l0-0.2c0-0.1,0-0.1,0-0.2h-1.2h-4.6h-0.1c-0.5,0-0.9,0.5-0.9,1
			c0,0.6,0.4,1,0.9,1h16.9c0.5,0,0.9-0.5,0.9-1c0-0.6-0.4-1-0.9-1c0,0,0,0,0,0H393.1z M397.7,235c0.2,0,0.4,0.2,0.4,0.5
			c0,0.3-0.2,0.5-0.4,0.5h-16.9c-0.2,0-0.4-0.2-0.4-0.5c0-0.3,0.2-0.5,0.4-0.5H397.7z"/>
		<path fill="#FFFF00" d="M389.2,230.8c-0.4,0.2-1.9,1.2-2,3.7h4.1C391.2,232,389.6,231,389.2,230.8z"/>
		<path d="M389.2,230.3L389.2,230.3c-0.2,0-0.9,0.5-0.9,0.5c-0.7,0.6-1.6,1.8-1.6,3.8c0,0.1,0,0.1,0,0.2l0,0.2h5.1l0-0.2
			c0-0.1,0-0.1,0-0.2C391.6,231.4,389.4,230.3,389.2,230.3z M387.2,234.5c0.1-2.6,1.6-3.5,2-3.7c0.4,0.2,2,1.2,2.1,3.7H387.2z"/>
		<path fill="#FFFF00" d="M397.3,227c0.2,0,0.4-0.2,0.4-0.5c0-0.2-0.2-0.5-0.4-0.5h-15.8l-0.2,0.9H397.3z"/>
		<path d="M397,227c0.3,0,0.5,0.2,0.7,0.4c0.3-0.1,0.6-0.5,0.6-0.9c0-0.5-0.4-1-0.9-1h-0.5l0,0.5l-4.6,0l0-0.5h-0.6l0,0.5l-4.8,0
			l0-0.5h-0.6l0,0.5l-4.6,0l0-0.3l-0.1,0.4h15.8c0.2,0,0.4,0.2,0.4,0.5c0,0.2-0.2,0.5-0.4,0.5h-16l0,0.1c0.1,0,0.1,0,0.2,0H397z"/>
		<path fill="#FFFF00" d="M381.5,228.4H397c0.2,0,0.3-0.2,0.3-0.5c0-0.2-0.2-0.5-0.3-0.5h-15.5c-0.2,0-0.3,0.2-0.3,0.5
			C381.1,228.2,381.3,228.4,381.5,228.4z"/>
		<path d="M381.5,228.9h0.5h6.1h2.2h6.2h0.5c0,0,0,0,0.1,0c0.4,0,0.8-0.4,0.8-0.9c0-0.2-0.1-0.4-0.2-0.5c-0.2-0.2-0.4-0.4-0.7-0.4
			h-15.5c-0.1,0-0.1,0-0.2,0l-0.4,1.6C381,228.8,381.2,228.9,381.5,228.9C381.5,228.9,381.5,228.9,381.5,228.9z M381.5,227.5H397
			c0.2,0,0.3,0.2,0.3,0.5c0,0.2-0.2,0.5-0.3,0.5h-15.5c-0.2,0-0.3-0.2-0.3-0.5C381.1,227.7,381.3,227.5,381.5,227.5z"/>
		<path fill="#FFFF00" d="M391.7,218.6l0-1.8H391v0.9h-1.4v-0.9l-0.8,0v0.9h-1.4v-0.9l-0.7,0l0,1.7c0,0.1,0.2,0.3,0.3,0.3h4.4
			C391.6,218.9,391.7,218.8,391.7,218.6z"/>
		<path d="M387.1,219.1l4.2,0l0,0.3h0.1c0.5,0,0.8-0.3,0.8-0.8l0-2.3h-1.8v0.9h-0.4v-0.9l-1.8,0v0.9H388v-0.9l-1.5,0l-0.1,0
			l-0.1,0.1l0,2.1c0,0.4,0.4,0.8,0.8,0.8h0.1L387.1,219.1z M387.1,218.9c-0.2,0-0.3-0.1-0.3-0.3l0-1.7l0.7,0v0.9h1.4v-0.9l0.8,0v0.9
			h1.4v-0.9h0.8l0,1.8c0,0.2-0.2,0.3-0.3,0.3H387.1z"/>
		<path fill="#FFFF00" d="M391.1,225.5l-0.3-5.9l-3.3,0l-0.3,5.9L391.1,225.5z M388.8,221.4c0-0.6,0.9-0.6,0.9,0v1.5h-0.9V221.4z"/>
		<path d="M386.8,226l4.8,0l0-0.5l-0.3-6.1l0-0.3l-4.2,0l0,0.3l-0.3,6.1L386.8,226z M387.6,219.6l3.3,0l0.3,5.9l-3.8,0L387.6,219.6z
			"/>
		<path fill="#FFFF00" d="M396.7,222.1c0.1,0,0.3-0.1,0.3-0.3l0-1.8l-0.7,0v0.9h-1.4V220l-0.7,0v0.9h-1.4V220l-0.7,0l0,1.7
			c0,0.1,0.1,0.3,0.3,0.3H396.7z"/>
		<path d="M392.2,226l4.6,0l0-0.5l-0.1-3c0,0,0,0,0,0h-4.3c0,0,0,0-0.1,0l-0.1,3L392.2,226z M396.2,222.6l0.1,3l-3.6,0l0.1-3H396.2z
			"/>
		<path d="M396.7,222.6C396.7,222.6,396.7,222.5,396.7,222.6c0.5,0,0.8-0.3,0.8-0.8l0-2.3l-1.7,0v0.9h-0.4v-0.9l-1.7,0v0.9h-0.4
			v-0.9l-1.4,0l-0.3,0.1l0,2.1c0,0.4,0.3,0.7,0.8,0.8c0,0,0,0,0.1,0H396.7z M392.1,221.8l0-1.7l0.7,0v0.9h1.4V220l0.7,0v0.9h1.4V220
			l0.7,0l0,1.8c0,0.2-0.1,0.3-0.3,0.3h-4.3C392.2,222.1,392.1,221.9,392.1,221.8z"/>
		<path fill="#FFFF00" d="M386.4,221.8l0-1.8l-0.7,0v0.9h-1.4V220l-0.7,0v0.9h-0.7l-0.3,1.1h3.5C386.2,222.1,386.4,222,386.4,221.8z
			"/>
		<path d="M386.1,222.6c0.4,0,0.8-0.3,0.8-0.8l0-2.3l-1.7,0v0.9h-0.4v-0.9l-1.7,0l0,0.3v0.6H383l-0.1,0.5h0.7V220l0.7,0v0.9h1.4V220
			l0.7,0l0,1.8c0,0.2-0.1,0.3-0.3,0.3h-3.5l0,0h3.5L386.1,222.6z"/>
		<path fill="#FFFF00" d="M382.1,225.5l3.6,0l-0.1-3h-3.2l-0.2,0.9L382.1,225.5z M384.3,223.6v1.2h-0.8v-1.2
			C383.5,223,384.3,223,384.3,223.6z"/>
		<polygon points="381.6,226 386.2,226 386.2,225.6 386.1,222.6 386.1,222.1 382.5,222.1 382.4,222.6 385.6,222.6 385.7,225.5
			382.1,225.5 382.2,223.4 381.6,225.7 		"/>
		<path d="M389.7,221.4c0-0.6-0.9-0.6-0.9,0v1.5h0.9V221.4z"/>
		<path d="M394.1,223.6v1.2h0.8v-1.2C394.9,223,394.1,223,394.1,223.6z"/>
		<path d="M383.5,224.8h0.8v-1.2c0-0.6-0.8-0.6-0.8,0V224.8z"/>
		<path fill="#FFFF00" d="M438.3,225.5l3.6,0l-0.1-3h-3.4L438.3,225.5z M440.5,223.6v1.2h-0.8v-1.2C439.7,223,440.5,223,440.5,223.6
			z"/>
		<path fill="#FFFF00" d="M432.3,234.5c0.1-2,0.9-3.1,1.6-3.8c0,0,0.7-0.5,0.9-0.5h0c0.2,0,2.4,1.1,2.5,4.3h1.3
			c-0.2-4.6-3.8-5.6-3.9-5.6c0,0-3.6,0.7-3.8,5.6H432.3z"/>
		<path fill="#FFFF00" d="M430.5,234.5c0.1-2.8,1.3-4.3,2.2-5.1c0.3-0.2,0.6-0.4,0.9-0.6h-6.1l-0.6,5.6L430.5,234.5z"/>
		<path fill="#FFFF00" d="M439.2,234.5h3.6l-0.7-5.7h-6.2c0.4,0.2,0.8,0.5,1.2,0.9C438,230.6,439.1,232.1,439.2,234.5z"/>
		<path d="M442.1,228.9l0.7,5.7h-3.6c-0.1-2.5-1.2-4-2.1-4.8c-0.4-0.4-0.8-0.7-1.2-0.9h-2.2c-0.3,0.2-0.6,0.3-0.9,0.6
			c-1,0.8-2.1,2.3-2.2,5.1l-3.6,0l0.6-5.6h-0.5c0,0,0,0,0,0l-0.6,5.7h4.6c0.2-4.9,3.8-5.6,3.8-5.6c0,0,3.6,1,3.9,5.6h4.6
			c0,0,0,0,0,0l-0.7-5.7c0,0,0,0-0.1,0H442.1z"/>
		<path fill="#FFFF00" d="M426.4,235c-0.2,0-0.4,0.2-0.4,0.5c0,0.3,0.2,0.5,0.4,0.5h16.9c0.2,0,0.4-0.2,0.4-0.5
			c0-0.3-0.2-0.5-0.4-0.5H426.4z"/>
		<path d="M438.7,234.5h-1.3c0,0.1,0,0.1,0,0.2l0,0.2h-5.1l0-0.2c0-0.1,0-0.1,0-0.2H431h-4.6h-0.1c-0.5,0-0.9,0.5-0.9,1
			c0,0.6,0.4,1,0.9,1h16.9c0.5,0,0.9-0.5,0.9-1c0-0.6-0.4-1-0.9-1c0,0,0,0,0,0H438.7z M443.3,235c0.2,0,0.4,0.2,0.4,0.5
			c0,0.3-0.2,0.5-0.4,0.5h-16.9c-0.2,0-0.4-0.2-0.4-0.5c0-0.3,0.2-0.5,0.4-0.5H443.3z"/>
		<path fill="#FFFF00" d="M434.8,230.8c-0.4,0.2-1.9,1.2-2,3.7h4.1C436.8,232,435.2,231,434.8,230.8z"/>
		<path d="M434.8,230.3L434.8,230.3c-0.2,0-0.9,0.5-0.9,0.5c-0.7,0.6-1.6,1.8-1.6,3.8c0,0.1,0,0.1,0,0.2l0,0.2h5.1l0-0.2
			c0-0.1,0-0.1,0-0.2C437.2,231.4,435,230.3,434.8,230.3z M432.8,234.5c0.1-2.6,1.6-3.5,2-3.7c0.4,0.2,2,1.2,2.1,3.7H432.8z"/>
		<path fill="#FFFF00" d="M426.7,226c-0.2,0-0.4,0.2-0.4,0.5c0,0.2,0.2,0.5,0.4,0.5h16.2c0.2,0,0.4-0.2,0.4-0.5
			c0-0.2-0.2-0.5-0.4-0.5H426.7z"/>
		<path d="M431.8,226l-4.6,0l0-0.5h-0.5c-0.5,0-0.9,0.4-0.9,1c0,0.4,0.2,0.7,0.5,0.9c0.2-0.2,0.4-0.4,0.7-0.4h15.5
			c0.3,0,0.5,0.2,0.7,0.4c0.3-0.1,0.6-0.5,0.6-0.9c0-0.5-0.4-1-0.9-1h-0.5l0,0.5l-4.6,0l0-0.5h-0.6l0,0.5l-4.8,0l0-0.5h-0.6
			L431.8,226z M442.9,226c0.2,0,0.4,0.2,0.4,0.5c0,0.2-0.2,0.5-0.4,0.5h-16.2c-0.2,0-0.4-0.2-0.4-0.5c0-0.2,0.2-0.5,0.4-0.5H442.9z"
			/>
		<path fill="#FFFF00" d="M442.9,227.9c0-0.2-0.2-0.5-0.3-0.5h-15.5c-0.2,0-0.3,0.2-0.3,0.5c0,0.2,0.2,0.5,0.3,0.5h15.5
			C442.8,228.4,442.9,228.2,442.9,227.9z"/>
		<path d="M442.6,227h-15.5c-0.3,0-0.5,0.2-0.7,0.4c-0.1,0.2-0.2,0.3-0.2,0.5c0,0.5,0.4,0.9,0.8,0.9c0,0,0,0,0,0h0.5h6.1h2.2h6.2
			h0.5c0,0,0,0,0.1,0c0.4,0,0.8-0.4,0.8-0.9c0-0.2-0.1-0.4-0.2-0.5C443.1,227.1,442.9,227,442.6,227z M427.1,228.4
			c-0.2,0-0.3-0.2-0.3-0.5c0-0.2,0.2-0.5,0.3-0.5h15.5c0.2,0,0.3,0.2,0.3,0.5c0,0.2-0.2,0.5-0.3,0.5H427.1z"/>
		<path fill="#FFFF00" d="M437.4,218.6l0-1.8h-0.8v0.9h-1.4v-0.9l-0.8,0v0.9h-1.4v-0.9l-0.7,0l0,1.7c0,0.1,0.2,0.3,0.3,0.3h4.4
			C437.2,218.9,437.4,218.8,437.4,218.6z"/>
		<path d="M432.7,219.1l4.2,0l0,0.3h0.1c0.5,0,0.8-0.3,0.8-0.8l0-2.3h-1.8v0.9h-0.4v-0.9l-1.8,0v0.9h-0.4v-0.9l-1.5,0l-0.3,0.1
			l0,2.1c0,0.4,0.4,0.8,0.8,0.8h0.1L432.7,219.1z M432.7,218.9c-0.2,0-0.3-0.1-0.3-0.3l0-1.7l0.7,0v0.9h1.4v-0.9l0.8,0v0.9h1.4v-0.9
			h0.8l0,1.8c0,0.2-0.2,0.3-0.3,0.3H432.7z"/>
		<path fill="#FFFF00" d="M436.7,225.5l-0.3-5.9l-3.3,0l-0.3,5.9L436.7,225.5z M434.4,221.4c0-0.6,0.9-0.6,0.9,0v1.5h-0.9V221.4z"/>
		<path d="M432.4,226l4.8,0l0-0.5l-0.3-6.1l0-0.3l-4.2,0l0,0.3l-0.3,6.1L432.4,226z M433.2,219.6l3.3,0l0.3,5.9l-3.8,0L433.2,219.6z
			"/>
		<path fill="#FFFF00" d="M442.3,222.1c0.1,0,0.3-0.1,0.3-0.3l0-1.8l-0.7,0v0.9h-1.4V220l-0.7,0v0.9h-1.4V220l-0.7,0l0,1.7
			c0,0.1,0.1,0.3,0.3,0.3H442.3z"/>
		<path d="M437.8,226l4.6,0l0-0.5l-0.1-3c0,0,0,0,0,0H438c0,0,0,0-0.1,0l-0.1,3L437.8,226z M441.8,222.6l0.1,3l-3.6,0l0.1-3H441.8z"
			/>
		<path d="M442.3,222.6C442.3,222.6,442.3,222.5,442.3,222.6c0.5,0,0.8-0.3,0.8-0.8l0-2.3l-1.7,0v0.9H441v-0.9l-1.7,0v0.9h-0.4v-0.9
			l-1.4,0l-0.3,0.1l0,2.1c0,0.4,0.3,0.7,0.8,0.8c0,0,0,0,0.1,0H442.3z M437.7,221.8l0-1.7l0.7,0v0.9h1.4V220l0.7,0v0.9h1.4V220
			l0.7,0l0,1.8c0,0.2-0.1,0.3-0.3,0.3H438C437.8,222.1,437.7,221.9,437.7,221.8z"/>
		<path fill="#FFFF00" d="M432,221.8l0-1.8l-0.7,0v0.9h-1.4V220l-0.7,0v0.9h-1.4v-0.9l-0.7,0l0,1.7c0,0.1,0.1,0.3,0.3,0.3h4.3
			C431.8,222.1,432,222,432,221.8z"/>
		<path d="M427.3,222.1h4.4l0,0.5c0.4,0,0.8-0.3,0.8-0.8l0-2.3l-1.7,0v0.9h-0.4v-0.9l-1.7,0v0.9h-0.4v-0.9l-1.4,0l-0.1,0l-0.1,0.1
			l0,2.1c0,0.4,0.3,0.7,0.8,0.8L427.3,222.1z M431.7,222.1h-4.3c-0.2,0-0.3-0.1-0.3-0.3l0-1.7l0.7,0v0.9h1.4V220l0.7,0v0.9h1.4V220
			l0.7,0l0,1.8C432,222,431.8,222.1,431.7,222.1z"/>
		<path fill="#FFFF00" d="M431.3,225.5l-0.1-3h-3.4l-0.1,3L431.3,225.5z M429.1,223.6c0-0.6,0.8-0.6,0.8,0v1.2h-0.8V223.6z"/>
		<path d="M427.2,226l4.6,0l0-0.5l-0.1-3l0-0.5h-4.4l0,0.5l-0.1,3L427.2,226z M427.8,222.6h3.4l0.1,3l-3.6,0L427.8,222.6z"/>
		<path d="M434.4,222.9h0.9v-1.5c0-0.6-0.9-0.6-0.9,0V222.9z"/>
		<path d="M439.7,223.6v1.2h0.8v-1.2C440.5,223,439.7,223,439.7,223.6z"/>
		<path d="M429.9,224.8v-1.2c0-0.6-0.8-0.6-0.8,0v1.2H429.9z"/>
		<path fill="#FFFF00" d="M483.4,225.5l3.6,0l-0.1-3h-3.4L483.4,225.5z M485.6,223.6v1.2h-0.8v-1.2C484.8,223,485.6,223,485.6,223.6
			z"/>
		<path fill="#FFFF00" d="M479,230.8c0,0,0.7-0.5,0.9-0.5h0c0.2,0,2.4,1.1,2.5,4.3h1.3c-0.2-4.6-3.8-5.6-3.9-5.6
			c0,0-3.6,0.7-3.8,5.6h1.2C477.5,232.5,478.3,231.4,479,230.8z"/>
		<path fill="#FFFF00" d="M472,234.5l3.6,0c0.1-2.8,1.3-4.3,2.2-5.1c0.3-0.2,0.6-0.4,0.9-0.6h-6.1L472,234.5z"/>
		<path fill="#FFFF00" d="M481,228.9c0.4,0.2,0.8,0.5,1.2,0.9c0.9,0.8,2,2.3,2.1,4.8h2.7l0-0.1l0.1-1.2l0.2-0.5l0.3-0.4l-0.4-3.4
			H481z"/>
		<path d="M487.7,228.9h-0.5l0.4,3.4l0,0l0.4-0.3L487.7,228.9C487.7,228.9,487.7,228.9,487.7,228.9z"/>
		<path d="M482.2,229.7c-0.4-0.4-0.8-0.7-1.2-0.9h-2.2c-0.3,0.2-0.6,0.3-0.9,0.6c-1,0.8-2.1,2.3-2.2,5.1l-3.6,0l0.6-5.6h-0.5
			c0,0,0,0,0,0l-0.6,5.7h4.6c0.2-4.9,3.8-5.6,3.8-5.6c0,0,3.6,1,3.9,5.6h3.2l0,0h-2.7C484.1,232.1,483.1,230.6,482.2,229.7z"/>
		<path fill="#FFFF00" d="M471.5,235c-0.2,0-0.4,0.2-0.4,0.5c0,0.3,0.2,0.5,0.4,0.5H482l0.8-0.5l1-0.1l1.1,0.1l1-0.1l0.7-0.4H471.5z
			"/>
		<path d="M483.8,234.5h-1.3c0,0.1,0,0.1,0,0.2l0,0.2h-5.1l0-0.2c0-0.1,0-0.1,0-0.2h-1.2h-4.6h-0.1c-0.5,0-0.9,0.5-0.9,1
			c0,0.6,0.4,1,0.9,1h9.7l0.8-0.5h-10.5c-0.2,0-0.4-0.2-0.4-0.5c0-0.3,0.2-0.5,0.4-0.5h15.1l0.4-0.2l0.1-0.3H483.8z"/>
		<path fill="#FFFF00" d="M479.9,230.8c-0.4,0.2-1.9,1.2-2,3.7h4.1C481.9,232,480.3,231,479.9,230.8z"/>
		<path d="M479.9,230.3L479.9,230.3c-0.2,0-0.9,0.5-0.9,0.5c-0.7,0.6-1.6,1.8-1.6,3.8c0,0.1,0,0.1,0,0.2l0,0.2h5.1l0-0.2
			c0-0.1,0-0.1,0-0.2C482.3,231.4,480.1,230.3,479.9,230.3z M477.9,234.5c0.1-2.6,1.6-3.5,2-3.7c0.4,0.2,2,1.2,2.1,3.7H477.9z"/>
		<path fill="#FFFF00" d="M471.5,226.5c0,0.2,0.2,0.5,0.4,0.5H488c0.2,0,0.4-0.2,0.4-0.5c0-0.2-0.2-0.5-0.4-0.5h-16.2
			C471.6,226,471.5,226.3,471.5,226.5z"/>
		<path d="M472.2,227h15.5c0.3,0,0.5,0.2,0.7,0.4c0.3-0.1,0.6-0.5,0.6-0.9c0-0.5-0.4-1-0.9-1h-0.5l0,0.5l-4.6,0l0-0.5h-0.6l0,0.5
			l-4.8,0l0-0.5h-0.6l0,0.5l-4.6,0l0-0.5h-0.5c-0.5,0-0.9,0.4-0.9,1c0,0.4,0.2,0.7,0.5,0.9C471.6,227.1,471.9,227,472.2,227z
			 M488,226c0.2,0,0.4,0.2,0.4,0.5c0,0.2-0.2,0.5-0.4,0.5h-16.2c-0.2,0-0.4-0.2-0.4-0.5c0-0.2,0.2-0.5,0.4-0.5H488z"/>
		<path fill="#FFFF00" d="M487.7,228.4c0.2,0,0.3-0.2,0.3-0.5c0-0.2-0.2-0.5-0.3-0.5h-15.5c-0.2,0-0.3,0.2-0.3,0.5
			c0,0.2,0.2,0.5,0.3,0.5H487.7z"/>
		<path d="M472.6,228.9h6.1h2.2h6.2h0.5c0,0,0,0,0.1,0c0.4,0,0.8-0.4,0.8-0.9c0-0.2-0.1-0.4-0.2-0.5c-0.2-0.2-0.4-0.4-0.7-0.4h-15.5
			c-0.3,0-0.5,0.2-0.7,0.4c-0.1,0.2-0.2,0.3-0.2,0.5c0,0.5,0.4,0.9,0.8,0.9c0,0,0,0,0,0H472.6z M472.2,228.4c-0.2,0-0.3-0.2-0.3-0.5
			c0-0.2,0.2-0.5,0.3-0.5h15.5c0.2,0,0.3,0.2,0.3,0.5c0,0.2-0.2,0.5-0.3,0.5H472.2z"/>
		<path fill="#FFFF00" d="M482.4,218.6l0-1.8h-0.8v0.9h-1.4v-0.9l-0.8,0v0.9h-1.4v-0.9l-0.7,0l0,1.7c0,0.1,0.2,0.3,0.3,0.3h4.4
			C482.3,218.9,482.4,218.8,482.4,218.6z"/>
		<path d="M477.8,219.1l4.2,0l0,0.3h0.1c0.5,0,0.8-0.3,0.8-0.8l0-2.3h-1.8v0.9h-0.4v-0.9l-1.8,0v0.9h-0.4v-0.9l-1.5,0l-0.1,0
			l-0.1,0.1l0,2.1c0,0.4,0.4,0.8,0.8,0.8h0.1L477.8,219.1z M477.7,218.9c-0.2,0-0.3-0.1-0.3-0.3l0-1.7l0.7,0v0.9h1.4v-0.9l0.8,0v0.9
			h1.4v-0.9h0.8l0,1.8c0,0.2-0.2,0.3-0.3,0.3H477.7z"/>
		<path fill="#FFFF00" d="M481.8,225.5l-0.3-5.9l-3.3,0l-0.3,5.9L481.8,225.5z M479.5,221.4c0-0.6,0.9-0.6,0.9,0v1.5h-0.9V221.4z"/>
		<path d="M477.5,226l4.8,0l0-0.5l-0.3-6.1l0-0.3l-4.2,0l0,0.3l-0.3,6.1L477.5,226z M478.3,219.6l3.3,0l0.3,5.9l-3.8,0L478.3,219.6z
			"/>
		<path fill="#FFFF00" d="M486.9,220.9h-1.4V220l-0.7,0v0.9h-1.4V220l-0.7,0l0,1.7c0,0.1,0.1,0.3,0.3,0.3h4.3c0.1,0,0.3-0.1,0.3-0.3
			l0-1.8l-0.7,0V220.9z"/>
		<path d="M482.9,226l4.6,0l0-0.5l-0.1-3c0,0,0,0,0,0h-4.3c0,0,0,0-0.1,0l-0.1,3L482.9,226z M486.9,222.6l0.1,3l-3.6,0l0.1-3H486.9z
			"/>
		<path d="M488.2,219.5l-1.7,0v0.9h-0.4v-0.9l-1.7,0v0.9h-0.4v-0.9l-1.4,0l-0.3,0.1l0,2.1c0,0.4,0.3,0.7,0.8,0.8c0,0,0,0,0.1,0h4.3
			c0,0,0,0,0,0c0.3,0,0.6-0.2,0.7-0.5l0,0c0-0.1,0.1-0.2,0.1-0.3L488.2,219.5z M487.7,221.8c0,0.2-0.1,0.3-0.3,0.3h-4.3
			c-0.2,0-0.3-0.1-0.3-0.3l0-1.7l0.7,0v0.9h1.4V220l0.7,0v0.9h1.4V220l0.7,0L487.7,221.8z"/>
		<path fill="#FFFF00" d="M477.1,221.8l0-1.8l-0.7,0v0.9H475V220l-0.7,0v0.9h-1.4v-0.9l-0.7,0l0,1.7c0,0.1,0.1,0.3,0.3,0.3h4.3
			C476.9,222.1,477.1,222,477.1,221.8z"/>
		<path d="M472.4,222.1h4.4l0,0.5c0.4,0,0.8-0.3,0.8-0.8l0-2.3l-1.7,0v0.9h-0.4v-0.9l-1.7,0v0.9h-0.4v-0.9l-1.4,0l-0.3,0.1l0,2.1
			c0,0.4,0.3,0.7,0.8,0.8L472.4,222.1z M476.8,222.1h-4.3c-0.2,0-0.3-0.1-0.3-0.3l0-1.7l0.7,0v0.9h1.4V220l0.7,0v0.9h1.4V220l0.7,0
			l0,1.8C477.1,222,476.9,222.1,476.8,222.1z"/>
		<path fill="#FFFF00" d="M476.4,225.5l-0.1-3h-3.4l-0.1,3L476.4,225.5z M474.2,223.6c0-0.6,0.8-0.6,0.8,0v1.2h-0.8V223.6z"/>
		<path d="M472.3,226l4.6,0l0-0.5l-0.1-3l0-0.5h-4.4l0,0.5l-0.1,3L472.3,226z M472.9,222.6h3.4l0.1,3l-3.6,0L472.9,222.6z"/>
		<path d="M480.4,221.4c0-0.6-0.9-0.6-0.9,0v1.5h0.9V221.4z"/>
		<path d="M484.8,224.8h0.8v-1.2c0-0.6-0.8-0.6-0.8,0V224.8z"/>
		<path d="M475,224.8v-1.2c0-0.6-0.8-0.6-0.8,0v1.2H475z"/>
		<path fill="#FFFF00" d="M392.7,271.7l3.6,0l-0.1-3l-3.4,0L392.7,271.7z M394.9,269.8v1.2h-0.8v-1.2
			C394.1,269.2,394.9,269.2,394.9,269.8z"/>
		<path fill="#FFFF00" d="M388.3,277c0.3-0.2,0.8-0.6,1-0.6h0c0.2,0,2.4,1.1,2.6,4.3h1.3c-0.2-4.6-3.8-5.6-3.9-5.6
			c0,0-3.6,0.7-3.8,5.6h1.2C386.8,278.8,387.6,277.7,388.3,277z"/>
		<path fill="#FFFF00" d="M391.5,275.9c0.9,0.8,2,2.3,2.1,4.8h3.6l-0.7-5.7h-6.2C390.7,275.3,391.1,275.6,391.5,275.9z"/>
		<path fill="#FFFF00" d="M381.9,275.1l-0.6,5.6l3.6,0c0.1-2.8,1.3-4.3,2.2-5.1c0.3-0.2,0.6-0.4,0.9-0.6H381.9z"/>
		<path d="M380.8,280.7h4.6c0.2-4.9,3.8-5.6,3.8-5.6c0,0,3.6,1,3.9,5.6h4.6c0,0,0,0,0,0l-0.7-5.7c0,0,0,0-0.1,0h-0.5l0.7,5.7h-3.6
			c-0.1-2.5-1.2-4-2.1-4.8c-0.4-0.4-0.8-0.6-1.2-0.8h-2.2c-0.3,0.2-0.6,0.3-0.9,0.6c-1,0.8-2.2,2.3-2.2,5.1l-3.6,0l0.6-5.6h-0.5
			c0,0,0,0,0,0L380.8,280.7z"/>
		<path fill="#FFFF00" d="M380.8,281.2c-0.2,0-0.4,0.2-0.4,0.5c0,0.3,0.2,0.5,0.4,0.5h16.9c0.2,0,0.4-0.2,0.4-0.5
			c0-0.3-0.2-0.5-0.4-0.5H380.8z"/>
		<path d="M393.1,280.7h-1.3c0,0.1,0,0.1,0,0.2l0,0.2h-5.1l0-0.2c0-0.1,0-0.1,0-0.2h-1.2h-4.6h-0.1c-0.5,0-0.9,0.5-0.9,1
			c0,0.6,0.4,1,0.9,1h16.9c0.5,0,0.9-0.5,0.9-1c0-0.6-0.4-1-0.9-1c0,0,0,0,0,0H393.1z M397.7,281.2c0.2,0,0.4,0.2,0.4,0.5
			c0,0.3-0.2,0.5-0.4,0.5h-16.9c-0.2,0-0.4-0.2-0.4-0.5c0-0.3,0.2-0.5,0.4-0.5H397.7z"/>
		<path fill="#FFFF00" d="M387.2,280.7h4.1c-0.1-2.5-1.7-3.5-2.1-3.7C388.8,277.2,387.3,278.1,387.2,280.7z"/>
		<path d="M389.2,276.5L389.2,276.5c-0.2,0-0.7,0.3-1,0.6c-0.7,0.6-1.5,1.7-1.6,3.7c0,0.1,0,0.1,0,0.2l0,0.2h5.1l0-0.2
			c0-0.1,0-0.1,0-0.2C391.6,277.6,389.4,276.5,389.2,276.5z M391.3,280.7h-4.1c0.1-2.6,1.6-3.5,2-3.7
			C389.6,277.2,391.2,278.2,391.3,280.7z"/>
		<path fill="#FFFF00" d="M381.1,272.3c-0.2,0-0.4,0.2-0.4,0.5c0,0.2,0.2,0.5,0.4,0.5h16.2c0.2,0,0.4-0.2,0.4-0.5
			c0-0.2-0.2-0.5-0.4-0.5H381.1z"/>
		<path d="M381.5,273.2H397c0.3,0,0.5,0.2,0.7,0.4c0.3-0.1,0.6-0.5,0.6-0.9c0-0.5-0.4-1-0.9-1h-0.5l0,0.5l-4.6,0l0-0.5h-0.6l0,0.5
			l-4.8,0l0-0.5h-0.6l0,0.5l-4.6,0l0-0.5h-0.5c-0.5,0-0.9,0.4-0.9,1c0,0.4,0.2,0.7,0.5,0.9C380.9,273.3,381.2,273.2,381.5,273.2z
			 M397.3,272.3c0.2,0,0.4,0.2,0.4,0.5c0,0.2-0.2,0.5-0.4,0.5h-16.2c-0.2,0-0.4-0.2-0.4-0.5c0-0.2,0.2-0.5,0.4-0.5H397.3z"/>
		<path fill="#FFFF00" d="M381.5,274.6H397c0.2,0,0.3-0.2,0.3-0.5c0-0.2-0.2-0.5-0.3-0.5h-15.5c-0.2,0-0.3,0.2-0.3,0.5
			C381.1,274.4,381.3,274.6,381.5,274.6z"/>
		<path d="M381.9,275.1h6.1h2.2h6.2h0.5c0,0,0,0,0.1,0c0.4,0,0.8-0.4,0.8-0.9c0-0.2-0.1-0.4-0.2-0.5c-0.2-0.2-0.4-0.4-0.7-0.4h-15.5
			c-0.3,0-0.5,0.2-0.7,0.4c-0.1,0.2-0.2,0.3-0.2,0.5c0,0.5,0.4,0.9,0.8,0.9c0,0,0,0,0,0H381.9z M381.1,274.1c0-0.2,0.2-0.5,0.3-0.5
			H397c0.2,0,0.3,0.2,0.3,0.5c0,0.2-0.2,0.5-0.3,0.5h-15.5C381.3,274.6,381.1,274.4,381.1,274.1z"/>
		<path fill="#FFFF00" d="M391.7,264.8l0-1.8H391v0.9h-1.4v-0.9l-0.8,0v0.9h-1.4v-0.9l-0.7,0l0,1.7c0,0.1,0.2,0.3,0.3,0.3h4.4
			C391.6,265.1,391.7,265,391.7,264.8z"/>
		<path d="M387.1,265.3l4.2,0l0,0.3h0.1c0.5,0,0.8-0.3,0.8-0.8l0-2.3h-1.8v0.9h-0.4v-0.9l-1.8,0v0.9H388v-0.9l-1.7,0l0,2.2
			c0,0.4,0.4,0.8,0.8,0.8h0.1L387.1,265.3z M387.1,265.1c-0.2,0-0.3-0.1-0.3-0.3l0-1.7l0.7,0v0.9h1.4v-0.9l0.8,0v0.9h1.4v-0.9h0.8
			l0,1.8c0,0.2-0.2,0.3-0.3,0.3H387.1z"/>
		<path fill="#FFFF00" d="M390.8,265.8l-3.3,0l-0.3,5.9l3.8,0L390.8,265.8z M388.8,269.1v-1.5c0-0.6,0.9-0.6,0.9,0v1.5H388.8z"/>
		<path d="M386.8,272.2l4.8,0l0-0.5l-0.3-6.1l0-0.3l-4.2,0l0,0.3l-0.3,6.1L386.8,272.2z M387.6,265.8l3.3,0l0.3,5.9l-3.8,0
			L387.6,265.8z"/>
		<path fill="#FFFF00" d="M392.4,268.3h4.3c0.1,0,0.3-0.1,0.3-0.3l0-1.8l-0.7,0v0.9h-1.4v-0.9l-0.7,0v0.9h-1.4v-0.9l-0.7,0l0,1.7
			C392.1,268.1,392.2,268.3,392.4,268.3z"/>
		<path d="M392.2,272.2l4.6,0l0-0.5l-0.1-3c0,0,0,0,0,0h-4.3c0,0,0,0-0.1,0l-0.1,3L392.2,272.2z M396.2,268.8l0.1,3l-3.6,0l0.1-3
			L396.2,268.8z"/>
		<path d="M396.7,268.8C396.7,268.8,396.7,268.8,396.7,268.8c0.5,0,0.8-0.3,0.8-0.8l0-2.3l-1.7,0v0.9h-0.4v-0.9l-1.7,0v0.9h-0.4
			v-0.9l-1.4,0l-0.3,0.1l0,2.1c0,0.4,0.3,0.7,0.8,0.8c0,0,0,0,0.1,0H396.7z M392.1,268l0-1.7l0.7,0v0.9h1.4v-0.9l0.7,0v0.9h1.4v-0.9
			l0.7,0l0,1.8c0,0.2-0.1,0.3-0.3,0.3h-4.3C392.2,268.3,392.1,268.1,392.1,268z"/>
		<path fill="#FFFF00" d="M386.4,268l0-1.8l-0.7,0v0.9h-1.4v-0.9l-0.7,0v0.9h-1.4v-0.9l-0.7,0l0,1.7c0,0.1,0.1,0.3,0.3,0.3h4.3
			C386.2,268.3,386.4,268.2,386.4,268z"/>
		<path d="M381.7,268.3h4.4l0,0.5c0.4,0,0.8-0.3,0.8-0.8l0-2.3l-1.7,0v0.9h-0.4v-0.9l-1.7,0v0.9h-0.4v-0.9l-1.4,0l-0.3,0.1l0,2.1
			c0,0.4,0.3,0.7,0.7,0.8L381.7,268.3z M386.1,268.3h-4.3c-0.2,0-0.3-0.1-0.3-0.3l0-1.7l0.7,0v0.9h1.4v-0.9l0.7,0v0.9h1.4v-0.9
			l0.7,0l0,1.8C386.4,268.2,386.2,268.3,386.1,268.3z"/>
		<path fill="#FFFF00" d="M385.6,268.8l-3.4,0l-0.1,3l3.6,0L385.6,268.8z M383.5,269.8c0-0.6,0.8-0.6,0.8,0v1.2h-0.8V269.8z"/>
		<path d="M381.6,272.2l4.6,0l0-0.5l-0.1-3l0-0.5h-4.4l0,0.5l-0.1,3L381.6,272.2z M382.2,268.8l3.4,0l0.1,3l-3.6,0L382.2,268.8z"/>
		<path d="M389.7,267.6c0-0.6-0.9-0.6-0.9,0v1.5h0.9V267.6z"/>
		<path d="M394.1,269.8v1.2h0.8v-1.2C394.9,269.2,394.1,269.2,394.1,269.8z"/>
		<path d="M384.3,271v-1.2c0-0.6-0.8-0.6-0.8,0v1.2H384.3z"/>
		<path fill="#FFFF00" d="M472.6,322.3l2.5,2.5l2-2.2l-2.4-2.4L472.6,322.3z M475.6,322.5l-0.8,0.8l-0.6-0.6l0.8-0.8
			C475.4,321.5,476,322,475.6,322.5z"/>
		<path fill="#FFFF00" d="M465.8,322.9c0,0,0.5,0.1,0.8,0.2h0.1l0.1,0.2c0,0,1,2.4-1.2,4.8l0.9,0.9c3.1-3.4,1.3-6.7,1.2-6.7
			c0,0-3.1-2-6.6,1.3l0.9,0.9C463.5,323,464.9,322.8,465.8,322.9z"/>
		<path fill="#FFFF00" d="M468.8,324.4c0,1.2-0.3,3-1.9,4.9l2.6,2.6l3.5-4.5l-4.4-4.4C468.7,323.3,468.8,323.8,468.8,324.4z"/>
		<path fill="#FFFF00" d="M458.2,320.6l2.5,2.6c2-1.9,3.9-2.1,5.2-2c0.4,0,0.7,0.1,1,0.2l-4.3-4.3L458.2,320.6z"/>
		<path d="M473,327.3l-3.5,4.5l-2.6-2.6c1.7-1.8,2-3.6,1.9-4.9c0-0.6-0.1-1-0.2-1.5l-1.6-1.6c-0.3-0.1-0.6-0.2-1-0.2
			c-1.3-0.1-3.2,0.1-5.2,2l-2.5-2.6l4.4-3.6l-0.3-0.3c0,0,0,0,0,0l-4.4,3.6l3.3,3.3c3.5-3.3,6.6-1.3,6.6-1.3c0,0,1.8,3.3-1.2,6.7
			l3.3,3.3c0,0,0,0,0,0l3.5-4.5c0,0,0,0,0,0L473,327.3z"/>
		<path fill="#FFFF00" d="M457.5,320.6c-0.1-0.1-0.1-0.1-0.2-0.1c-0.1,0-0.3,0.1-0.4,0.2c-0.2,0.2-0.2,0.5-0.1,0.7l12,12
			c0.1,0.1,0.2,0.1,0.2,0.1c0.1,0,0.3-0.1,0.4-0.2c0.1-0.1,0.2-0.3,0.2-0.4c0-0.1,0-0.2-0.1-0.2L457.5,320.6z"/>
		<path d="M466.5,328.9l-0.9-0.9c-0.1,0.1-0.1,0.1-0.1,0.2l-0.2,0.2l-3.6-3.6l0.2-0.2c0.1-0.1,0.1-0.1,0.2-0.1l-0.9-0.9l-3.3-3.3
			l0,0c-0.4-0.3-1-0.3-1.4,0.1c-0.4,0.4-0.4,1-0.1,1.4l12,12c0.2,0.2,0.4,0.2,0.6,0.2c0,0,0,0,0,0c0.3,0,0.6-0.1,0.8-0.3
			c0.2-0.2,0.3-0.5,0.3-0.8c0-0.2-0.1-0.4-0.2-0.6c0,0,0,0,0,0L466.5,328.9z M469.4,332.5c0.1,0.1,0.1,0.2,0.1,0.2
			c0,0.1-0.1,0.3-0.2,0.4c-0.1,0.1-0.3,0.2-0.4,0.2c0,0-0.2,0-0.2-0.1l-12-12c-0.2-0.2-0.1-0.5,0.1-0.7c0.1-0.1,0.3-0.2,0.4-0.2
			c0.1,0,0.2,0,0.2,0.1L469.4,332.5z"/>
		<path fill="#FFFF00" d="M466.4,323.5c-0.4-0.1-2.2-0.5-4.1,1.2l2.9,2.9C467,325.8,466.6,323.9,466.4,323.5z"/>
		<path d="M466.9,323.2l-0.1-0.2h-0.1c-0.3-0.1-0.8-0.2-0.8-0.2c-0.9-0.1-2.4,0.1-3.8,1.5c-0.1,0.1-0.1,0.1-0.2,0.1l-0.2,0.2
			l3.6,3.6l0.2-0.2c0.1-0.1,0.1-0.1,0.1-0.2C467.8,325.6,466.9,323.2,466.9,323.2z M462.4,324.7c1.9-1.7,3.6-1.3,4.1-1.2
			c0.1,0.4,0.6,2.3-1.1,4.1L462.4,324.7z"/>
		<path fill="#FFFF00" d="M464.1,314.5c-0.1-0.1-0.1-0.1-0.2-0.1c0,0,0,0,0,0c-0.1,0-0.2,0.1-0.3,0.1c-0.1,0.1-0.1,0.2-0.1,0.3
			c0,0.1,0,0.2,0.1,0.3l11.5,11.5c0.1,0.1,0.4,0.1,0.6-0.1c0.2-0.2,0.2-0.4,0.1-0.6L464.1,314.5z"/>
		<path d="M471.5,321.9l-3.4-3.4l0.3-0.3l-0.4-0.4l-0.3,0.4l-3.3-3.3l0.4-0.3l-0.3-0.3c-0.2-0.2-0.4-0.3-0.6-0.2
			c-0.2,0-0.5,0.1-0.6,0.3c-0.3,0.3-0.4,0.7-0.2,1c0.3-0.1,0.6,0,0.8,0.2l11,11c0.2,0.2,0.3,0.5,0.2,0.8c0.1,0,0.2,0.1,0.3,0.1
			c0.2,0,0.5-0.1,0.7-0.3c0.4-0.4,0.4-0.9,0.1-1.3l-0.4-0.4l-0.3,0.4l-3.3-3.3l0.4-0.3l-0.4-0.4L471.5,321.9z M475.5,325.9
			c0.1,0.1,0.1,0.4-0.1,0.6c-0.2,0.2-0.4,0.2-0.6,0.1l-11.5-11.5c-0.1-0.1-0.1-0.2-0.1-0.3c0-0.1,0.1-0.2,0.1-0.3
			c0.1-0.1,0.2-0.1,0.3-0.1c0,0,0,0,0,0c0.1,0,0.2,0,0.2,0.1L475.5,325.9z"/>
		<path fill="#FFFF00" d="M463.3,315.7c-0.1-0.1-0.1-0.1-0.2-0.1c-0.1,0-0.2,0.1-0.4,0.2c-0.2,0.2-0.2,0.4-0.1,0.6l11,11
			c0.1,0.1,0.2,0.1,0.2,0.1c0.1,0,0.2-0.1,0.3-0.2c0.2-0.2,0.2-0.4,0.1-0.6L463.3,315.7z"/>
		<path d="M474.6,326.3l-11-11c-0.2-0.2-0.5-0.3-0.8-0.2c-0.2,0-0.4,0.1-0.5,0.3c-0.4,0.4-0.4,0.9-0.1,1.2c0,0,0,0,0,0l0.3,0.3
			l4.3,4.3l1.6,1.6l4.4,4.4l0.3,0.3c0,0,0,0,0,0c0.1,0.1,0.3,0.2,0.5,0.2c0,0,0,0,0.1,0c0.2,0,0.5-0.1,0.6-0.3
			c0.1-0.1,0.2-0.3,0.3-0.5C474.9,326.8,474.8,326.5,474.6,326.3z M474.2,327.2c-0.1,0.1-0.2,0.1-0.3,0.2c-0.1,0-0.2,0-0.2-0.1
			l-11-11c-0.1-0.1-0.1-0.4,0.1-0.6c0.1-0.1,0.2-0.2,0.4-0.2c0.1,0,0.2,0,0.2,0.1l11,11C474.4,326.8,474.4,327,474.2,327.2z"/>
		<path fill="#FFFF00" d="M476.7,316.8C476.7,316.8,476.7,316.8,476.7,316.8c0.1,0,0.1,0,0.2-0.1l0.9-0.9l-0.8-0.2l0,0l0,0l-0.1,0
			l-1.4,0.1l1.1,1.1C476.5,316.8,476.6,316.8,476.7,316.8z"/>
		<polygon points="476.9,315.6 476.9,315.5 476.9,315.6 		"/>
		<path d="M476,317L476,317c0.2,0.2,0.4,0.3,0.7,0.3c0,0,0,0,0,0c0.2,0,0.4-0.1,0.5-0.2l1.1-1.1l-0.1-0.1l-0.4-0.1l-0.9,0.9
			c-0.1,0.1-0.1,0.1-0.2,0.1c0,0,0,0,0,0c-0.1,0-0.2,0-0.2-0.1l-1.1-1.1l0,0l-0.1,0.1l1,1L476,317z"/>
		<path fill="#FFFF00" d="M471.5,321.1l4-4.4l-0.8-0.8l-0.7,0.5l-0.5,0.2c0.1,0.2,0.1,0.4-0.1,0.5l-1.1,1.1l-0.6-0.6l1-1l-0.2,0
			l-0.8-0.4l-0.2-0.2l-2.7,2.5L471.5,321.1z"/>
		<polygon points="468.1,318.4 471.5,321.9 471.8,321.5 476,317 476.2,316.7 475.2,315.7 474.8,316 475.5,316.8 471.5,321.1
			468.9,318.5 471.5,316 471.2,315.6 468.5,318.1 		"/>
		<path fill="#FFFF00" d="M477.9,322.6c0.1,0.1,0.3,0.1,0.4,0l1.2-1.2l-0.5-0.5l-0.6,0.6l-1-1l0.6-0.6l-0.5-0.5l-0.6,0.6l-1-1
			l0.6-0.6l-0.5-0.5l-1.2,1.2c-0.1,0.1-0.1,0.2-0.1,0.2c0,0.1,0,0.2,0.1,0.2L477.9,322.6z"/>
		<path d="M471.9,322.3l3.3,3.3l0.3-0.4l2-2.2c0,0,0,0,0,0l-3-3c0,0,0,0,0,0l-2.2,2.1L471.9,322.3z M477.2,322.6l-2,2.2l-2.5-2.5
			l2.2-2L477.2,322.6z"/>
		<path d="M477.5,323C477.6,323,477.6,323,477.5,323c0.2,0.2,0.4,0.2,0.6,0.2c0.2,0,0.4-0.1,0.5-0.2l1.6-1.6l-1.2-1.2l-0.6,0.6
			l-0.3-0.3l0.6-0.6l-1.2-1.2l-0.6,0.6l-0.3-0.3l0.6-0.6l-1.2-1.2l-1.6,1.6c-0.1,0.1-0.2,0.3-0.2,0.6c0,0.2,0.1,0.4,0.2,0.5
			c0,0,0,0,0,0L477.5,323z M474.8,319.4c0,0,0-0.1,0.1-0.2l1.2-1.2l0.5,0.5l-0.6,0.6l1,1l0.6-0.6l0.5,0.5l-0.6,0.6l1,1l0.6-0.6
			l0.5,0.5l-1.2,1.2c-0.1,0.1-0.3,0.1-0.4,0l-3-3C474.8,319.5,474.8,319.4,474.8,319.4z"/>
		<path fill="#FFFF00" d="M467.3,311.7c-0.1,0.1-0.1,0.2-0.1,0.2c0,0.1,0,0.2,0.1,0.2l3,3c0.1,0.1,0.3,0.1,0.4,0l0.5-0.5l0.5-1
			l0-0.1l-0.2-0.2l-0.6,0.6l-1-1l0.6-0.6l-0.5-0.5l-0.6,0.6l-1-1l0.6-0.6l-0.1-0.1l-0.5-0.1l0,0L467.3,311.7z"/>
		<path d="M466.8,311.9c0,0.2,0.1,0.4,0.2,0.5l0.4-0.3l3.1,3.1l-0.3,0.4c0.2,0.1,0.3,0.2,0.5,0.2c0.2,0,0.4-0.1,0.5-0.2l0,0
			l-0.1-0.5l0.2-0.4l-0.5,0.5c-0.1,0.1-0.3,0.1-0.4,0l-3-3c-0.1-0.1-0.1-0.1-0.1-0.2c0,0,0-0.1,0.1-0.2l1-1l-0.5-0.3l-0.9,0.9
			C466.8,311.5,466.8,311.7,466.8,311.9z"/>
		<polygon points="468.4,311.6 469.4,312.5 470,311.9 470.6,312.4 469.9,313 470.9,314 471.5,313.4 471.7,313.6 471.9,313
			471.5,312.7 470.9,313.3 470.6,313 471.3,312.4 470,311.2 469.4,311.8 469.1,311.6 469.7,311 468.9,310.8 469.1,310.9 		"/>
		<path fill="#FFFF00" d="M469.7,315.2l-2.4-2.4l-2.2,2l2.5,2.5L469.7,315.2z M466.7,315.2l0.8-0.8c0.4-0.4,1,0.2,0.6,0.6l-0.8,0.8
			L466.7,315.2z"/>
		<path d="M464.4,314.8l3.3,3.3l0.3-0.4l2-2.2l0.3-0.4l-3.1-3.1l-0.4,0.3l-2.2,2.1L464.4,314.8z M467.3,312.8l2.4,2.4l-2,2.2
			l-2.5-2.5L467.3,312.8z"/>
		<path d="M472.3,318.3l1.1-1.1c0.2-0.2,0.2-0.4,0.1-0.5l-0.2,0.1l-0.6-0.1l-1,1L472.3,318.3z"/>
		<path d="M475,321.9l-0.8,0.8l0.6,0.6l0.8-0.8C476,322,475.4,321.5,475,321.9z"/>
		<path d="M467.5,314.4l-0.8,0.8l0.6,0.6l0.8-0.8C468.5,314.5,467.9,314,467.5,314.4z"/>
		<path fill="#FFFF00" d="M472.6,275.1l-0.1,1.1l5.6-0.7c0.2-0.2,0.5-0.3,0.7-0.4H472.6z"/>
		<path d="M472.1,275.1C472.1,275.1,472.1,275.1,472.1,275.1l-0.2,1.2l0.5-0.1l0.1-1.1H472.1z"/>
		<path d="M478.7,275.1c-0.2,0.1-0.4,0.3-0.7,0.4l0.4,0l0.8-0.3l0,0H478.7z"/>
		<path fill="#FFFF00" d="M471.4,272.7c0,0.2,0.2,0.5,0.4,0.5h8l0-0.1l-0.1-0.5v-0.3h-7.9C471.6,272.3,471.4,272.5,471.4,272.7z"/>
		<path d="M477.5,271.8h-0.6l0,0.5l-4.6,0l0-0.5h-0.5c-0.5,0-0.9,0.4-0.9,1c0,0.4,0.2,0.7,0.5,0.9c0.2-0.2,0.4-0.4,0.7-0.4h7.7l0,0
			h-8c-0.2,0-0.4-0.2-0.4-0.5c0-0.2,0.2-0.5,0.4-0.5h7.9v0l-2.2,0L477.5,271.8z"/>
		<path fill="#FFFF00" d="M471.8,274.1c0,0.2,0.2,0.5,0.3,0.5h7.3l0.4-0.9h-7.7C471.9,273.7,471.8,273.9,471.8,274.1z"/>
		<path d="M471.4,273.6c-0.1,0.2-0.2,0.3-0.2,0.5c0,0.5,0.3,0.9,0.8,0.9c0,0,0,0,0.1,0h0.5h6.1h0.5l0.2-0.5h-7.3
			c-0.2,0-0.3-0.2-0.3-0.5c0-0.2,0.2-0.5,0.3-0.5h7.7l0-0.1l-0.1-0.4h-7.7C471.8,273.2,471.6,273.3,471.4,273.6z"/>
		<path fill="#FFFF00" d="M482.4,264.8l0-1.8h-0.8v0.9h-1.4v-0.9l-0.8,0v0.9h-1.4v-0.9l-0.7,0l0,1.7c0,0.1,0.2,0.3,0.3,0.3h4.4
			C482.2,265.1,482.4,265,482.4,264.8z"/>
		<path d="M482.9,262.6h-1.8v0.9h-0.4v-0.9l-1.8,0v0.9h-0.4v-0.9l-1.5,0l-0.3,0.1l0,2.2c0,0.4,0.4,0.8,0.8,0.8h0.1l0-0.3l4.2,0
			l0,0.3h0.1c0.1,0,0.1,0,0.2,0l0.1-0.1l0.3-0.2c0.1-0.1,0.2-0.3,0.2-0.5L482.9,262.6z M477.7,265.1c-0.2,0-0.3-0.1-0.3-0.3l0-1.7
			l0.7,0v0.9h1.4v-0.9l0.8,0v0.9h1.4v-0.9h0.8l0,1.8c0,0.2-0.2,0.3-0.3,0.3H477.7z"/>
		<path fill="#FFFF00" d="M478.2,265.8l-0.3,5.9l1.7,0l0.2-0.5l0.6-1.2l0.2-0.7l-0.1-0.6l-0.2-0.7l-0.1-0.7l0.4-1l0.4-0.3l0.3-0.1
			l0-0.1L478.2,265.8z M480.3,269.1h-0.9v-1.5c0-0.6,0.9-0.6,0.9,0V269.1z"/>
		<polygon points="482,265.3 477.7,265.3 477.7,265.6 477.5,271.8 477.4,272.2 479.6,272.2 479.6,271.9 479.7,271.7 478,271.7
			478.2,265.8 481.5,265.8 481.5,265.9 482,265.7 482,265.6 		"/>
		<path fill="#FFFF00" d="M477,268l0-1.8l-0.7,0v0.9h-1.4v-0.9l-0.7,0v0.9h-1.4v-0.9l-0.7,0l0,1.7c0,0.1,0.1,0.3,0.3,0.3h4.3
			C476.9,268.3,477,268.2,477,268z"/>
		<path d="M472.4,268.3h4.4l0,0.5c0.4,0,0.8-0.3,0.8-0.8l0-2.3l-1.7,0v0.9h-0.4v-0.9l-1.7,0v0.9h-0.4v-0.9l-1.4,0l-0.1,0l-0.1,0.1
			l0,2.1c0,0.4,0.3,0.7,0.8,0.8L472.4,268.3z M476.7,268.3h-4.3c-0.2,0-0.3-0.1-0.3-0.3l0-1.7l0.7,0v0.9h1.4v-0.9l0.7,0v0.9h1.4
			v-0.9l0.7,0l0,1.8C477,268.2,476.9,268.3,476.7,268.3z"/>
		<path fill="#FFFF00" d="M476.2,268.8l-3.4,0l-0.1,3l3.6,0L476.2,268.8z M474.1,269.8c0-0.6,0.8-0.6,0.8,0v1.2h-0.8V269.8z"/>
		<path d="M472.2,272.2l4.6,0l0-0.5l-0.1-3l0-0.5h-4.4l0,0.5l-0.1,3L472.2,272.2z M472.9,268.8l3.4,0l0.1,3l-3.6,0L472.9,268.8z"/>
		<path d="M479.4,267.6v1.5h0.9v-1.5C480.3,266.9,479.4,267,479.4,267.6z"/>
		<path d="M474.9,269.8c0-0.6-0.8-0.6-0.8,0v1.2h0.8V269.8z"/>
		<path fill="#FFFF00" d="M404.2,314.7l-2.2-2l-2.4,2.4l2,2.2L404.2,314.7z M401.9,314.4l0.8,0.8l-0.6,0.6l-0.8-0.8
			C400.8,314.5,401.4,313.9,401.9,314.4z"/>
		<path fill="#FFFF00" d="M402.3,324c0,0,0.1-0.6,0.2-0.8l0,0c0,0,0,0,0-0.1c0,0,0,0,0,0l0,0c0.1-0.1,0.3-0.1,0.7-0.2
			c0.8-0.1,2.5-0.1,4.1,1.4l0.9-0.9c-3.4-3.1-6.7-1.3-6.7-1.2c0,0-2,3.1,1.3,6.6l0.9-0.9C402.3,326.3,402.2,324.8,402.3,324z"/>
		<path fill="#FFFF00" d="M402.5,329.1c-1.9-2-2.1-3.9-2-5.2c0-0.4,0.1-0.7,0.2-1.1l-4.3,4.3l3.6,4.4L402.5,329.1z"/>
		<path fill="#FFFF00" d="M404,321.1c1.2,0,2.9,0.4,4.6,1.9l2.6-2.6l-4.5-3.5l-4.4,4.4c0.4-0.1,0.9-0.2,1.4-0.2
			C403.8,321.1,403.9,321.1,404,321.1z"/>
		<path d="M406.7,316.9l4.5,3.5l-2.6,2.6c-1.7-1.6-3.4-1.9-4.6-1.9c-0.1,0-0.2,0-0.2,0c-0.5,0-1,0.1-1.4,0.2l-1.6,1.6
			c-0.1,0.3-0.2,0.7-0.2,1.1c-0.1,1.3,0.1,3.2,2,5.2l-2.6,2.5l-3.6-4.4l-0.3,0.3c0,0,0,0,0,0l3.6,4.5l3.3-3.3
			c-3.3-3.6-1.3-6.6-1.3-6.6c0,0,3.3-1.8,6.7,1.2l3.3-3.3c0,0,0,0,0,0l-4.5-3.6c0,0,0,0,0,0L406.7,316.9z"/>
		<path fill="#FFFF00" d="M399.9,332.4c-0.2,0.2-0.1,0.5,0.1,0.7c0.2,0.2,0.5,0.2,0.7,0.1l12-12c0.2-0.2,0.1-0.5-0.1-0.7
			c-0.2-0.2-0.5-0.2-0.7-0.1L399.9,332.4z"/>
		<path d="M408.3,323.4l-0.9,0.9c0.1,0,0.1,0.1,0.2,0.1l0.2,0.2l-3.6,3.6l-0.2-0.2c-0.1-0.1-0.1-0.1-0.1-0.2l-0.9,0.9l-3.3,3.3l0,0
			l0,0c-0.3,0.4-0.3,1,0.1,1.4c0.2,0.2,0.5,0.3,0.8,0.3c0.2,0,0.4-0.1,0.6-0.2l12-12c0.3-0.3,0.3-1-0.1-1.4c-0.4-0.4-1-0.4-1.4-0.1
			c0,0,0,0,0,0L408.3,323.4z M411.9,320.5c0.2-0.2,0.5-0.1,0.7,0.1c0.2,0.2,0.2,0.5,0.1,0.7l-12,12c-0.2,0.2-0.5,0.1-0.7-0.1
			c-0.2-0.2-0.2-0.5-0.1-0.7L411.9,320.5z"/>
		<path fill="#FFFF00" d="M402.9,323.5c-0.1,0.4-0.5,2.2,1.2,4.1l2.9-2.9C405.1,322.9,403.3,323.4,402.9,323.5z"/>
		<path d="M403.2,322.9c-0.4,0.1-0.6,0.1-0.7,0.2l0,0c0,0,0,0,0,0c0,0,0,0,0,0.1l0,0c-0.1,0.3-0.2,0.8-0.2,0.8
			c-0.1,0.8,0,2.3,1.5,3.9c0,0.1,0.1,0.1,0.1,0.2l0.2,0.2l3.6-3.6l-0.2-0.2c-0.1-0.1-0.1-0.1-0.2-0.1
			C405.7,322.8,404.1,322.8,403.2,322.9z M404.1,327.5c-1.7-1.9-1.3-3.6-1.2-4.1c0.4-0.1,2.2-0.6,4.1,1.1L404.1,327.5z"/>
		<path fill="#FFFF00" d="M405.7,315.3C405.7,315.3,405.7,315.3,405.7,315.3l0.3-0.3c0.1-0.1,0.1-0.4-0.1-0.6
			c-0.1-0.1-0.2-0.1-0.3-0.1c-0.1,0-0.2,0-0.2,0.1l-11.5,11.5c-0.1,0.1-0.1,0.4,0.1,0.6c0.2,0.2,0.4,0.2,0.6,0.1l0.2-0.2
			c0,0,0,0,0,0L405.7,315.3z"/>
		<path d="M401.2,318.4l-3.4,3.4l-0.3-0.3l-0.4,0.4l0.4,0.3l-3.3,3.3l-0.3-0.4l-0.4,0.4c-0.3,0.3-0.3,0.9,0.1,1.3
			c0.2,0.2,0.5,0.3,0.7,0.3c0.1,0,0.2,0,0.3-0.1c0-0.1,0-0.1,0-0.2c0-0.2,0.1-0.4,0.2-0.6l-0.2,0.2c-0.1,0.1-0.4,0.1-0.6-0.1
			c-0.2-0.2-0.2-0.4-0.1-0.6l11.5-11.5c0.1-0.1,0.1-0.1,0.2-0.1c0.1,0,0.2,0.1,0.3,0.1c0.2,0.2,0.2,0.4,0.1,0.6l-0.2,0.2
			c0.2-0.2,0.5-0.2,0.8-0.2c0.1-0.3,0-0.7-0.2-1c-0.4-0.4-0.9-0.4-1.3-0.1l-0.4,0.4l0.4,0.3l-3.3,3.3l-0.3-0.4l-0.4,0.4L401.2,318.4
			z"/>
		<path fill="#FFFF00" d="M406,315.6l-11,11c-0.1,0.1-0.1,0.2-0.1,0.2c0,0.1,0.1,0.3,0.2,0.4c0.2,0.2,0.4,0.2,0.6,0.1l11-11
			c0.1-0.1,0.1-0.2,0.1-0.2c0-0.1-0.1-0.3-0.2-0.4c-0.1-0.1-0.2-0.2-0.4-0.2C406.2,315.5,406.1,315.6,406,315.6z"/>
		<path d="M405.7,315.3C405.7,315.3,405.7,315.3,405.7,315.3l-11,11c0,0,0,0,0,0c-0.1,0.1-0.2,0.3-0.2,0.6c0,0.1,0,0.1,0,0.2
			c0,0.2,0.1,0.4,0.3,0.5c0.2,0.2,0.5,0.3,0.7,0.3c0.2,0,0.4-0.1,0.5-0.2c0,0,0,0,0,0l0.3-0.3l4.3-4.3l1.6-1.6l4.4-4.4l0.3-0.3
			c0,0,0,0,0,0c0.1-0.1,0.2-0.3,0.2-0.5c0-0.3-0.1-0.5-0.3-0.7c-0.1-0.1-0.3-0.2-0.5-0.3C406.2,315,405.9,315.1,405.7,315.3z
			 M406.8,316.1c0,0.1,0,0.1-0.1,0.2l-11,11c-0.1,0.1-0.4,0.1-0.6-0.1c-0.1-0.1-0.2-0.2-0.2-0.4c0-0.1,0-0.1,0.1-0.2l11-11
			c0.1-0.1,0.1-0.1,0.2-0.1c0.1,0,0.3,0.1,0.4,0.2C406.7,315.8,406.8,315.9,406.8,316.1z"/>
		<path fill="#FFFF00" d="M396.1,313.1l-1.2-1.2l-0.5,0.5l0.6,0.6l-1,1l-0.6-0.6l-0.5,0.5l0.6,0.6l-1,1l-0.6-0.6l-0.5,0.5l1.2,1.2
			c0.1,0.1,0.3,0.1,0.4,0l3.1-3.1C396.2,313.4,396.2,313.2,396.1,313.1z"/>
		<path d="M392.7,314.5l-0.3,0.3l-0.6-0.6l-1.2,1.2l1.6,1.6c0.1,0.1,0.3,0.2,0.5,0.2c0.2,0,0.4-0.1,0.6-0.2l0,0l-0.2-0.2l3-3
			l0.2,0.2l0.1-0.1c0.1-0.1,0.2-0.3,0.2-0.5c0-0.2-0.1-0.4-0.2-0.6l-1.6-1.6l-1.2,1.2l0.6,0.6l-0.3,0.3l-0.6-0.6l-1.2,1.2
			L392.7,314.5z M396.1,313.5l-3.1,3.1c-0.1,0.1-0.3,0.1-0.4,0l-1.2-1.2l0.5-0.5l0.6,0.6l1-1l-0.6-0.6l0.5-0.5l0.6,0.6l1-1l-0.6-0.6
			l0.5-0.5l1.2,1.2C396.2,313.2,396.2,313.4,396.1,313.5z"/>
		<path fill="#FFFF00" d="M393.8,316.7l4,4.4l2.7-2.7l-4.4-4L393.8,316.7z M396.6,316.5l1.1,1.1l-0.6,0.6l-1.1-1.1
			C395.5,316.7,396.1,316,396.6,316.5z"/>
		<path d="M396.1,313.7l-3,3l0.2,0.2l4.1,4.5l0.3,0.3l3.4-3.4l-0.3-0.3l-4.5-4.2L396.1,313.7z M400.5,318.4l-2.7,2.7l-4-4.4l2.3-2.3
			L400.5,318.4z"/>
		<path fill="#FFFF00" d="M402,312c0.1-0.1,0.1-0.3,0-0.4l-1.2-1.2l-0.5,0.5l0.6,0.6l-1,1l-0.6-0.6l-0.5,0.5l0.6,0.6l-1,1l-0.6-0.6
			l-0.5,0.5l1.2,1.2c0.1,0.1,0.3,0.1,0.4,0L402,312z"/>
		<path d="M401.7,318l3.3-3.3l-0.4-0.3l-2.2-2c0,0,0,0,0,0l-3,3c0,0,0,0,0,0l2.1,2.2L401.7,318z M402,312.7l2.2,2l-2.5,2.5l-2-2.2
			L402,312.7z"/>
		<path d="M402.4,312.4C402.4,312.4,402.4,312.4,402.4,312.4c0.3-0.3,0.3-0.8,0-1.1l-1.6-1.6l-1.2,1.2l0.6,0.6l-0.3,0.3l-0.6-0.6
			l-1.2,1.2l0.6,0.6l-0.3,0.3l-0.6-0.6l-1.2,1.2l1.6,1.6c0.1,0.1,0.3,0.2,0.5,0.2c0.2,0,0.4-0.1,0.5-0.2c0,0,0,0,0,0L402.4,312.4z
			 M398.5,315.1l-1.2-1.2l0.5-0.5l0.6,0.6l1-1l-0.6-0.6l0.5-0.5l0.6,0.6l1-1l-0.6-0.6l0.5-0.5l1.2,1.2c0.1,0.1,0.1,0.3,0,0.4l-3,3
			C398.8,315.2,398.6,315.2,398.5,315.1z"/>
		<path fill="#FFFF00" d="M394.6,319.3c0-0.1,0-0.1-0.1-0.2l-1.2-1.2l-0.5,0.5l0.6,0.6l-1,1l-0.6-0.6l-0.5,0.5l0.6,0.6l-1,1
			l-0.6-0.6l-0.5,0.5l1.2,1.2c0.1,0.1,0.3,0.1,0.4,0l3-3C394.6,319.5,394.6,319.4,394.6,319.3z"/>
		<path d="M391.5,322.6l3.1-3.1l0.4,0.3c0.1-0.2,0.2-0.3,0.2-0.5c0-0.2-0.1-0.4-0.2-0.5l-1.6-1.6l-1.2,1.2l0.6,0.6l-0.3,0.3
			l-0.6-0.6l-1.2,1.2l0.6,0.6l-0.3,0.3l-0.6-0.6l-1.2,1.2l1.6,1.6c0.1,0.1,0.3,0.2,0.5,0.2c0.2,0,0.4-0.1,0.5-0.2L391.5,322.6z
			 M394.5,319.5l-3,3c-0.1,0.1-0.3,0.1-0.4,0l-1.2-1.2l0.5-0.5l0.6,0.6l1-1l-0.6-0.6l0.5-0.5l0.6,0.6l1-1l-0.6-0.6l0.5-0.5l1.2,1.2
			c0.1,0.1,0.1,0.1,0.1,0.2C394.6,319.4,394.6,319.5,394.5,319.5z"/>
		<path fill="#FFFF00" d="M396.7,322.2l-2.2-2l-2.4,2.4l2,2.2L396.7,322.2z M394.4,321.9l0.8,0.8l-0.6,0.6l-0.8-0.8
			C393.3,322,393.9,321.4,394.4,321.9z"/>
		<path d="M394.2,325.5l3.3-3.3l-0.4-0.3l-2.2-2l-0.4-0.3l-3.1,3.1l0.3,0.4l2.1,2.2L394.2,325.5z M394.5,320.2l2.2,2l-2.5,2.5
			l-2-2.2L394.5,320.2z"/>
		<path d="M396,317.1l1.1,1.1l0.6-0.6l-1.1-1.1C396.1,316,395.5,316.7,396,317.1z"/>
		<path d="M402.7,315.2l-0.8-0.8c-0.4-0.4-1,0.2-0.6,0.6l0.8,0.8L402.7,315.2z"/>
		<path d="M395.2,322.7l-0.8-0.8c-0.4-0.4-1,0.2-0.6,0.6l0.8,0.8L395.2,322.7z"/>
		<circle fill="#FFFFFF" cx="439.1" cy="310.2" r="1.5"/>
		<circle fill="#FFFFFF" cx="430.9" cy="310.2" r="1.5"/>
		<circle fill="#FFFFFF" cx="434.9" cy="306.1" r="1.5"/>
		<circle fill="#FFFFFF" cx="439.1" cy="302.1" r="1.5"/>
		<circle fill="#FFFFFF" cx="451.8" cy="284.6" r="1.5"/>
		<path fill="#FFFFFF" d="M459.9,274.9c-0.8,0-1.5,0.7-1.5,1.5c0,0,0,0.1,0,0.1l2.9,0.1c0-0.1,0-0.2,0-0.2
			C461.4,275.6,460.7,274.9,459.9,274.9z"/>
		<path fill="#FFFFFF" d="M451.7,274.9c-0.7,0-1.3,0.5-1.5,1.2l2.9,0.1C453.2,275.5,452.5,274.9,451.7,274.9z"/>
		<path fill="#FFFFFF" d="M450.6,277.3l-0.3-0.7C450.3,276.8,450.4,277.1,450.6,277.3L450.6,277.3z"/>
		<circle fill="#FFFFFF" cx="439.2" cy="284.5" r="1.5"/>
		<circle fill="#FFFFFF" cx="430.9" cy="284.5" r="1.5"/>
		<circle fill="#FFFFFF" cx="435" cy="280.4" r="1.5"/>
		<circle fill="#FFFFFF" cx="439.2" cy="276.4" r="1.5"/>
		<circle fill="#FFFFFF" cx="430.9" cy="276.4" r="1.5"/>
		<circle fill="#FFFFFF" cx="418.4" cy="284.6" r="1.5"/>
		<circle fill="#FFFFFF" cx="410.3" cy="284.6" r="1.5"/>
		<circle fill="#FFFFFF" cx="414.3" cy="280.4" r="1.5"/>
		<circle fill="#FFFFFF" cx="418.4" cy="276.4" r="1.5"/>
		<circle fill="#FFFFFF" cx="430.9" cy="302.1" r="1.5"/>
		<path fill="#FFFF00" d="M409.7,277.8c-0.5-0.2-0.9-0.8-0.9-1.4c0-0.8,0.7-1.5,1.5-1.5c0.2,0,0.4,0,0.6,0.1
			c-0.2-0.1-0.4-0.1-0.6-0.1c-0.8,0-1.5,0.7-1.5,1.5C408.8,277,409.2,277.6,409.7,277.8z"/>
		<circle fill="#FFFFFF" cx="430.9" cy="250.4" r="1.5"/>
		<circle fill="#FFFFFF" cx="439" cy="250.4" r="1.5"/>
		<circle fill="#FFFFFF" cx="434.8" cy="254.4" r="1.5"/>
		<circle fill="#FFFFFF" cx="439" cy="258.6" r="1.5"/>
		<circle fill="#FFFFFF" cx="430.9" cy="258.6" r="1.5"/>
		<path fill="#FFFFFF" d="M408.8,276.4c0,0.6,0.4,1.1,0.9,1.4c0.2,0.1,0.4,0.1,0.6,0.1c0.8,0,1.5-0.7,1.5-1.5c0-0.6-0.4-1.1-0.9-1.4
			c-0.2-0.1-0.4-0.1-0.6-0.1C409.5,274.9,408.8,275.6,408.8,276.4z"/>
	</g>
	<path fill="none" stroke="#999999" stroke-width="0.25" stroke-linecap="round" stroke-linejoin="round" d="M131.6,440.4
		L131.6,440.4l-0.1-0.2l-0.1-0.3l-0.4-0.3l-0.5-0.3l-0.3-0.1l-1.7-0.1l-0.4,0.1l-0.4,0.2l-0.3,0.3l0.1,0.4l0.1,0.3l0.2,0.3l0.3,0.3
		l0.3,0.1l0.3,0l0.3,0.1l0.3,0.2l0.1,0l0.1-0.2l0.3,0.2l0.8,0l0.3,0.1l0.3-0.1l0.1-0.1l0-0.1l-0.1-0.2l0-0.1l0.1-0.1l0.2-0.1
		l0.1-0.1l0-0.1L131.6,440.4z M122.8,442.2l-0.8-0.3l-1.6-0.9l-2.2-0.8l-0.2,0l-0.2-0.1l-0.4-0.3l-0.2-0.1l0,0.2l0,0.1l0.5,0.5
		l0.1,0l0.1,0l0,0.1l0,0.1l0,0.1l0.1,0l0,0l0,0l0.1,0l0.1,0.1l0.2,0.4l0.2,0.2l1.2,0.4l0.1,0.1l0.2,0.3l0.1,0.1l0.2-0.1l0.2,0.1
		l0.3-0.1l0.2,0.1l0.2,0.1l0.2,0.1l0.2,0.1l0.3,0.1l0.4,0.2l0.2,0.1l0.4,0l0.2,0l0.2-0.1l-0.2-0.3L122.8,442.2z M153.9,464.5
		l-0.2-0.3l-0.2-0.1l-0.3,0l-0.4,0l-0.4,0.1l-0.2,0.2l-0.1,0.1l0.1,0.1l0.1,0.2l0.1,0.2l0.1,0.1l0.2,0l0.4-0.1l0.6,0.2l0.4,0
		l0.2-0.2l-0.1-0.3L153.9,464.5z M120.1,444.2l-0.5-0.1l-0.7-0.3l-0.2,0l-0.1,0l-0.2-0.2l-0.1,0l0,0l-0.4-0.2l-1.1-0.7l-0.4-0.1
		l-0.8,0l-0.4,0.1l-0.3,0.3v0.6l0.3,0.4l0.7,0.7l0.2-0.1l1.6,0l0.2,0.1l0.1,0.2l0.1,0.2l0.1,0.1l0.4-0.3l0.2-0.1l0.3,0l0.9,0.1
		l0.3,0l0.2-0.1l-0.1-0.3L120.1,444.2z M152.5,453.9l0.3-0.4l0-0.5l-0.3-0.4l-0.4-0.2l-1.6,0l-1.1,0.3l-0.2,0.1l-0.1-0.1l-0.2-0.2
		l-0.1,0l-0.2,0l-0.3,0.2l-0.2,0l-1.4-0.2l-0.1,0l-0.1-0.1l0-0.1l0-0.2l-0.1-0.1l-0.4-0.3l-0.3-0.1l-0.9,0.1l-0.2,0.7l0.4,0.5l1.3,1
		l1,0l0.6,0.2l0.3,0.1l0.3,0.2l0.2-0.1l0.3,0l0.5,0l0.5-0.1l0.5-0.1l1.5-0.2L152.5,453.9z M246.7,521.7l-0.1,0l-0.1,0.1l-0.2-0.1
		l-0.2-0.1l-0.4,0l-0.1,0l-0.1-0.1l-0.6-0.4l-0.1-0.1l-0.3-0.2l-0.2-0.1l-0.4,0l-0.2,0.1l-0.2,0.1l-0.2,0.1l-0.3,0.1l-0.3,0
		l-0.3-0.2l-0.2-0.1l-0.1,0l-0.1-0.1l-0.3-0.3l-0.1-0.1l-0.1-0.1l-0.1,0l-0.1,0l-0.1,0.1l-0.3,0.4l-0.1,0.1l-0.2,0.1l-0.1,0.2l0,0.2
		l0.1,0.2l0.3,0.4l0.4,0.3l0.4,0.3l1.9,0.8l0.9,0.1l0.5,0l0.5-0.2l0.2-0.4l0.1-0.1l0.4-0.5l0.1-0.1l0.1,0l0.4-0.2l0.2-0.1l-0.1-0.1
		L246.7,521.7z M85.8,429.3l-0.2-0.3l-0.1,0.1l-0.2,0l-0.1-0.1l-0.1-0.1l0.1-0.2l-0.2,0l-0.2,0.1l-0.2,0.1l-0.1,0.2l0,0.3l-0.1,0.2
		l-0.1,0.2l0.1,0.2l-0.1,0.1l0,0.3l0.1,0.3l0.1,0.2l0.2,0.1l0.2,0l0.2,0l0.2-0.1l0.2,0.1l0.2-0.2l0.2-0.4l0.1-0.3l0-0.6L85.8,429.3z
		 M120.3,435.9l0.2,0.1l0.2,0l0.2,0l0.2,0l0.2-0.1l0.1-0.2l-0.1-0.2l-0.2-0.2l-0.4-0.3l-0.2-0.2l-0.1,0.1l-0.1-0.1l-0.1,0l-0.1,0
		l-0.1,0.1l-0.2,0.4l0,0.2l0.1,0.2L120.3,435.9z M248.8,524.6l-0.2-0.3l-0.2-0.2l0,0.2l0,0.1l0.1,0.1l0.1,0.1l0.4,0.6l-0.1-0.3
		L248.8,524.6z M113.8,441.8l-1-0.4l-0.1,0.1l-0.2,0.3l-0.1,0.1l-0.1,0.1l-0.1,0l-0.3,0l-0.4,0.1l0,0.1l0.5,0.3l0.2,0.2l0.3,0.4
		l0.3,0.1l0.1,0l0.3-0.1l0.1,0l0.3,0.1l0.1,0l0.1-0.1l-0.1,0l0,0l0-0.1l-0.1-0.1l0.1-0.1l0.4-0.2l0.1,0L114,442L113.8,441.8z
		 M86.1,425.8l-0.1,0l-0.1,0.1l-0.1,0.1l0,0.2l0,0.1l0.2,0.4l0,0.1l0.4-0.1l0.2-0.4l0-0.4L86.1,425.8z M376.1,333.4l0.2-0.7l0-0.3
		l-0.2,0.1l-0.1,0.1l-0.2,0.2l-0.4,0.5L375,334l-0.3,0.8l0.2,0.1l0.7-0.7L376.1,333.4z M480.6,201.7l-0.5-0.7l-1.6-1.7l-1.7-1.1
		l-1.8-0.6l-3-0.6h-0.5l-0.3,0.2l-0.2,0.3l-0.5,0.3l-0.6,0.3l-0.4,0.1l-1-0.4L468,197l-0.2-1l-0.1-0.9l-0.2-0.5l-0.2-0.4l-0.1-0.4
		l0.2-0.5l0.3-0.4l0.1-0.5l0.9-4l0.4-0.9l-1-0.3l-0.6-0.1l-0.3-0.3l0.3-2.1l-0.1-0.8l-0.5-0.6l-0.9-0.4l-0.5,1.1l-1.3,0.4l-2.7,0.1
		l-1.1-0.3l-1.3-2.1l-1.1-0.2l-0.2,1.5l-0.9,0.6l-2.3,0.2l-1-0.2l-0.9-0.7l-0.8-0.4l-0.9,0.6l-1.3,0.6l-1.2-0.5l-1.1-1l-1.2-0.7
		l-0.5,0.1l-0.7,0.4l-0.6,0.4l-0.3,0.3l-0.1,0.7l0.2,1.6l-0.1,0.8l-0.7,1.1l-1.2,0.7l-2.6,0.9l-0.7,0.1l-1.3,0l-0.6,0.1l-0.5,0.3
		l-0.9,1l-0.5,0.4l-0.1-0.8l-0.4-0.8l-0.5-0.6l-0.5-0.2l-0.4,0l-0.6-0.4h-0.3l-0.3,0.2l-0.1,0.3l0,0.3l-0.2,0.4l-0.6,0.4l-0.7,0.3
		l-0.8,0.1l-0.7,0l-0.6-0.3l0-0.5l0.6-1.5l-2-0.1l-0.6-0.3l-1-0.7l-0.6-0.1l-1,0.6l-2.3,0.6l-1-0.1l-0.4,0.1l-0.2,0.3l-0.1,0.3
		l-0.2,0.3h-1.2l-0.2-1.4l-0.1-1.3l-0.7,0.3l-0.2,0.6L417,187l-0.3,0.7h-0.7l-0.6-0.1l-0.5,0.2l-0.5,0.5l-0.4,0.6l-1.2,1.3l-1.7,0.5
		l-3.2-0.2l0.1-1.3l0-0.6l-0.3-0.4l-1.3-0.5l-0.4-0.9l0-0.9l0.4-0.9l1.4-2.1l1.1-1.1l1.1-0.7l0.6-0.5l0.4-0.6l0.1-0.9l-0.3-0.7
		l-0.6-0.6l-0.7-0.3l-0.8,0l-0.6,0.3l-0.6,0.1l-0.5-0.4l-0.1-0.8l0.1-2.1l-0.3-0.7l-0.3-0.5l-1.1,0.8l-0.7,0.3l-0.7,0l-0.3,0
		l-0.3,0.2l-0.9,0.9l-0.6,0.3l-5.7,0.9l-0.7,0.3l-1.3,0.9l-0.7,0.3l-1.3,0l-0.6,0.1l-0.7,0.5l-0.3,0.5l-0.4,1.1l-0.3,0.5l-0.7,0.5
		l-1,0.3l-0.8,0.4l-0.4,0.3l-0.5,1.8l-1.3,1.4l-2.6,2.2l-0.3,0.5l-0.1,0.5l-0.1,1.8l-0.1,0.6l-0.2,0.5l-0.2,0.2l-0.1,0.6l0.4,1.3
		l0.8,1.9l0.9,0.3l0.5,0l0.8-0.1l4.1-1.3l-0.5,0.5l-0.6,0.4l-0.6,0.3l-2.3,0.4l-0.8,0.3l-0.5,0.4l-0.1,1.2l0.4,1l0.4,0.9l0.2,0.8
		l0.2,1.1l0.7,1.7l0.1,0.8h-0.2l-0.1-0.1l-0.1,0l-0.1,0l-0.2-0.1v0.4l0.5,0.8l0.2,1.3l0,3.7l0.1,0.6l0.2,0.7l0.5,0.9l0.1,0.5
		l-0.2,0.6l0.6,0l0.2,0.5v1.5l0.2,0.6l0.2,0.5l0.1,0.6l-0.2,0.6l0.7,1.4l0.5,1.7l0.7,1.3l1.4,0.3v0.3l-0.7,0.6l0,1.7l0.5,3.3v1.8
		l-3.5,16.6l0.5-0.6l0.5-1l0.4-1.1l0.1-0.8l0.1-1.2l0.3-1.4l0.4-1.3l0.5-1l0.2,0.7l0.3-0.2l0.2-0.6l0-0.8l0.4,1l-1.4,2l0.3,1.3
		l0.3,0.4l0.8,0.4h0.2l0.1-0.1l0.8-0.2l0.9-0.5l0.6,0l-0.6,0.6l-0.6,0.4l-0.6,0.3l-0.8,0.1l-0.7,0.2l-0.1,0.5l0.3,0.6l0.6,0.4
		l-0.5,0.8l-0.3,0.4l-0.4,0.1l-0.2-0.1l-0.1-0.3l-0.2-0.1l-0.4,0.2l-0.1,0.3l0.1,0.3l0.1,0.3l0.1,0.1v0.3h-0.2l-0.5-0.3l-0.5,0.4
		l-0.7,1.3v-1.3l-0.2,0.1l-0.1,0.1l-0.9,2.1l-0.4,1.9l-0.4,4l-2.5,9.6l-1.1,2.2L381,269l0.1,1l0.4,0.7l0.6,0.4l1.7,0.2l0.7,0.2
		l0.6,0.4l0.6,0.6v0.4l-1.5,0l-0.6-0.3l-0.4-0.6l-0.6,0.7l-4.6,13.5l-3.9,8.9l-0.3,0.9l-0.1,1.1l0,0.7l0,0.4l-0.2,0.7l-0.8,1.6
		l-0.3,0.5l-0.5,0.6l-0.6,0.4l-0.5,0.2l-0.5,0.4l-1.1,1.7l-0.5,0.6v0.6l0.5,0.3l0.6,0.6l0.3,0.6l-0.4,0.5l-0.4-0.1l-0.2-0.5
		l-0.3-0.5l-0.7-0.2l-0.6,0.3l-1.8,2l-2.6,0.3l-0.4,0.1l0.3,0.5l1.3,1.4l0.4,0.9l0.2,2l-0.2,1.8l-0.4,1.6l-0.6,1.4l-0.8,1.4
		l-0.3,0.7l-0.7,4l-0.3,0.7l0.4,1.8l-0.3,2l-1.6,4.6l-0.1,0.9l-0.5,0.6l-0.2,0.5v1l0.5,2l-0.2,0.8v0.9l0.7,0.2l1.6-0.2l0.9,0.1
		l1.6,0.7l0.9,0.1l1-0.6l0.5-0.1l2.6,0l2.9-0.8l0.6-0.3l0.4-0.6l0.1-1l0.1-1.8l0.1-0.8l0.2-0.8l0.4-0.6l1.1-1.3l2-4.1l1.8-2.6
		l0.7-1.3l0.5-0.4l3.2-0.4l2.6-2l-0.4,0.7l-0.6,0.6l-1.3,1l-0.7,0.3l-1.6,0.1l-0.7,0.2l-1.3,1l-1,1.5l-1.6,3.3l0.3,1.1l0.2,1.2
		l0.4,0.7l0.8,0l-0.3,0.7l0.2,1l0.4,0.9l0.4,0.6v0.3l-0.2,0l-0.2,0.2l-0.1,0.1L379,337l-0.4,0.2l-1.8,0.7l-0.8,0.8l-0.5,0.6
		l-0.2,0.6l0.3,0.7v0.3l-0.6,0l-1.2,0.3l-0.6,0.3l0.2,1h-0.2l-0.4-0.6l-1.9-1.4l-0.9,0.4l-3.2,0.6v0.3l1.2,1.5l1.1,1.9l0.8,2.2
		l0.2,2.5l-0.1,0.6l-0.7,1.9l-0.3,0.4l-0.1,0.1l-0.1,0.3v0.3l0.1,0.2h0.1l0.4-0.3l0.2-0.1l0.3,0l0.8-0.6l4.5-1l4.2-2.1l1.3-0.3
		l1.4,0.5l1.3,0.7l0.7,0.2l0.9,0l0.3-0.4v-0.8l-0.4-0.7l-0.8-0.1v-0.3l0.7-0.2l0.7-1.5l0.6,0.1l-0.2,0.6l0.1,0.7l0.4,0.6l0.5,0.2
		v0.3l-0.3,0.2l-0.2,0.5l0,0.6l0,0.7l0.2,0.6l0.3,0.4l2.7,1.3l1,0.2l1.1,0l-1.9,0.6l-3.7-1l-1.5,0l0-0.6l-0.8-0.5l-1.7-0.6l-1.3-1.2
		l-0.8-0.3l-0.6,0.6l1,0.4l1.3,1.1l1.2,1.4l0.5,1.2l1.2,6.3l0.2,4.3l-0.2,0.7l-0.3,0.7l-0.6,2l-0.2,1.3l-1.4,4.5l-0.3,0.3l-0.3,0.1
		l-0.2,0.1l-0.2,0.4l1.5,0.9l0.7,0.7l0.7,0.7l0.2,1l0.1,1.3l-0.2,5.2l0.3,0.8l0.9,0.1l0.8-0.4l0.4-0.3v0.2l-0.2,1.1l-0.9-0.3
		l-0.6,0.7l-0.3,1.2l-0.2,1.3l-0.5,2l0.1,0.6l0.3,0.8l0.1,0.5l0.1,4.4l-0.3,2.2l-0.7,1.5l-0.7,0.9l-0.6,1.1l-0.4,1.3l-0.2,2.6
		l-0.3,1.1l-0.5,0.9l-0.6,0.6l0.3,1.4l-0.5,1.1l-0.7,0.9l-1.3,2.6l-0.2,0.3l-0.2,0.7l-0.2,1.3l0.6-0.2l0.4,0.2l0.4,0.4l0.6,0.2
		l0.4-0.1l0.7-0.6l0.4-0.1l0.3-0.2l1-1.1l0.4-0.3l0.6-0.1l1.2,0.1l0.6,0l0.5-0.2l1-0.6l0.5-0.1h2.3l1.2-1.3l0.5-0.3l0.6-0.2l1.7-0.1
		l1.6,0.3l2.6,1.2l4.6,0.1l0.6,0.1l1.3,0.5h5.4l1.5,0.4l2.7,1.5l1.3,1.1l0.8,1.2l0-0.4l-0.1-0.3l-0.4-0.6l0.4,0.2l0.5,0.3l0.4,0
		l0.3-0.5l0.7,0.2l2.3,0l0.8,0.1l0.6,0.2h0.5l1.2-1.1l5.6-3.8l0.3-0.4l2.1-1.4l0.6-0.2l1.5-1l0.8-0.3l0.8-0.1l0.8,0l0.8,0.2l0.6,0.5
		l0.3-0.3v-0.3l-0.2-0.1l-0.1-0.1l-0.1-0.2l-0.1-0.2l-0.6-2l-0.2-1l0.2-0.7l-0.4-1.5l-0.3-3.7l-0.7-1.4l0-0.5l-0.1-1l-0.2-1.1
		l-0.3-0.8l-0.2-0.3l-0.6-0.5l-0.3-0.3l-0.3-0.5l-0.1-0.3l0-0.3l-0.2-0.7H432l0,0v-0.5l0.1-0.2l0.4-0.5l0-0.2l0.1-0.2l0-0.2
		l-0.1-0.3l0.4-0.2l1-1.1l0.2-0.4l0.2-0.7l0.3-2.2l0.5-1.4l0.7-1l3.4-2.8l1-1.8l0.4-1.6l0.8-2.2l0.2-0.8v-0.5l-0.1-0.5v-0.4l0.2-0.3
		l1.2-0.2l0.4-0.3l0.5,0l0.5,0.1l0.5,0l0.5-0.2l0.5-0.1l0.3-0.2l0.4-0.5l0.4-1l0.3-0.4l0.7,0l2.1,0.8l0.9-0.1l0.3-1.1l0.2-0.7
		l0.3-1.4l0.7-1.4l0.5-1.6l0.3-0.7l0.4-1.3l-0.6-0.5l-1,0.1l-1,0.3h-0.1l-0.2,0l-0.5,0.7l-0.9,0.4l-0.9,0.2h-0.6l-0.9-0.8l-1.5-3.8
		l-0.2-0.2l-0.7-0.5l-0.2-0.3l-0.1-0.3l-0.2-0.6l-0.1-0.3l-3.9-5l-1.1-0.8l-0.5-0.3l0.5-0.6l0.4-0.5l0-0.6l-0.4-0.6l0.4-0.6l0.7-2.4
		l1.5-2.2l0.2-0.7l-0.1-0.4l-0.2-0.2l-0.2-0.1l-0.2-0.3l0-0.4v-0.5l0.1-1.1l0.2-1.6l0.1-0.3l0.3-0.6l0-0.2l2.2-1.8l0.6-0.2l0.6-0.5
		l0.5-0.6l0.2-0.5l0.4-0.3l1.7-0.4l0.6-0.3l0.5-0.5l0.5-0.4l0.3-0.2l-0.1-0.6l0.2-0.7l-0.5-0.9l0.8-0.6l0.8-1.2l1.3-2.4l0.4-0.5
		l0.2-0.5l0-0.4l-0.4-0.3l0.2-0.8l-0.2-0.9l-0.5-0.8l-0.6-0.6l-0.8-0.6l-1-0.3l-1,0.1l-0.9,0.6l-0.5,0.2l-0.6-0.1l-0.6-0.3l-0.4-0.4
		l0-0.4l0.4-0.9l0.1-0.5l-0.5-0.9l-0.9-0.4l-1-0.3l-0.9-0.5l-0.5-0.7l-0.3-0.9l0-1l0.5-0.9l-1.8-2.2l-0.7-0.6l-0.3-0.6l-0.2-1v-1.1
		l0.2-0.7l0.3-0.7l0.2-1.1v-1l-0.3-0.5l-1.5-0.4l-0.8-0.4l-0.6-0.5l-0.4-1.1l-0.3-0.4l-1.3-0.6l-0.6-0.6l-1.1-1.5l-0.7-0.6l-1.2-3.3
		l-0.3-0.8l8,0.4l0.5-0.1l0.6-0.3l0.7-0.1l1.5,0l0.6-0.2l0.8,0.5l1.2,0l5.4-0.7l0.6-0.2l0.4-1l0-0.4l-0.1-0.3v-0.5l0.2-0.5l0.4-0.8
		l0.1-0.5l0-0.4l-0.1-0.5l0-0.5l0.3-0.7l0.3-0.2l0.8-0.4l0.4-0.2l0.9-1.4l0.1-0.5l0-0.8l0-0.4v-0.2l-0.1-0.5v-0.3l0.1-0.2l0.4-0.3
		l0.1-0.2l0.2-1.2l0.1-0.4l0-0.5l0.2-0.5l0.7-1.1l-1.5-2.7l-0.8-1l-0.5-0.8l-0.4-0.4l-0.4-0.1l-1-0.1l-0.5-0.1l-0.4-0.6l-0.3-1.6
		l-0.3-0.7l0.3-0.6l0.4-1.1l0.3-0.5l0.7-0.3l1.6-1l0.7-0.1l0.7,0l0.7,0l0.7-0.5l0.1-0.3l0-0.8l0.1-0.4l0.2-0.3l1.6-1.2l0.3-0.3
		l0.7-1.2l-1.3-1.2l-0.8-1.4l-0.2-1.6l0.7-1.7l0.9-1.2l0.1-0.6l-0.2-0.8l-0.4-0.7l-0.4-0.4l-0.3-0.5l-0.1-0.8l0.2-0.7l0.8-1.6l0.4-1
		v-0.6l-0.1-0.8l-0.3-1.6l-0.5-1.6l-0.1-0.7v-0.9l0-0.5l0.1-0.3l0-0.3l-0.1-0.5l0-0.3l0-1.2l0.6-0.2l0.1-0.6l-0.2-0.7l-0.4-0.3
		l-0.6-0.1l-0.3-0.4l-0.3-1l-0.8-2l-0.5-0.9l-1.2-1.3l-0.4-0.6l-0.1-0.6l0.4-0.6l0.1-0.9l0.8-0.4l2.3,0.2l1-0.1l0.5-0.5l1.5-2.2
		l0.3-0.9l-0.1-1.2l0.1-0.3l0.5-0.6l1.3-1.1l0.2-0.4l0.3-0.7l1.3-2l0.4-0.5l0.7-0.1l2.4,0l0.3-0.2l2.2-0.9l1.2-0.9l1.2-1.2l1.2-1.9
		l0.1,0l0.5,0.1l0.1,0l0.1-0.3l0-0.4v-0.3h-0.1l0.5-0.4l0.5-0.2l1.2-0.1v-0.4l1.4-2.3V207l-0.1-0.3l0-0.4l0.2-0.5l1-1l1.8-2.6
		L480.6,201.7z M383.5,350.5l-0.3,0l0,0.2v0.1l0.3,0.3l0.2-0.4L383.5,350.5z M376.6,330.8l0,0.7l0.3-0.2l0.2-0.9l-0.2-0.3
		L376.6,330.8z M384,272.7h0.4l0.7-0.4l-1.2-0.6l-0.4-0.1l-0.2,0.1l-0.1-0.1l0.1,0.3l0.1,0.3L384,272.7z M251.2,517.5l0-0.4
		l-0.1,0.1l-0.2-0.1l-0.3,0.1l-0.2,0.2l-0.1,0.4l-0.1,0.1l-0.1,0.1l-0.1,0v0.1l0.2,0.1l0.2,0l0.1-0.1l0.1-0.2l0.2-0.1l0.2,0l0.4,0.1
		l-0.1-0.1L251.2,517.5z M377,333.1l0.5-0.2l0.1-0.5l-0.2-0.4l-0.2-0.2l-0.3,0.2l-0.2,0.6L377,333.1z M255.9,555.6l-0.1,0.1l0,0v0
		l0,0l0.1,0l0.1,0l0,0l0.1-0.1l0-0.1L255.9,555.6z M254.1,557.2L254.1,557.2L254.1,557.2L254.1,557.2L254.1,557.2z M358.7,306.8
		l0.4-0.4l-0.2-0.1L358.7,306.8z M417.9,420.9h0.2v-0.4l-0.2-0.1V420.9z M418.7,419.9L418.7,419.9l0.2-0.1l0-0.1h-0.2l-0.3,0.1h-0.3
		l0,0.1l0.2,0l0.2,0.3l0.6-0.1l-0.2-0.1L418.7,419.9z"/>
</g>

</svg>
