<?xml version="1.0" encoding="utf-8"?>

<svg version="1.2" baseProfile="tiny" xmlns="http://www.w3.org/2000/svg" xmlns:xlink="http://www.w3.org/1999/xlink" x="0px"
	 y="0px" viewBox="346.6 146.9 147.5 300" xml:space="preserve">

<g id="Qatar">
	<g>
		<polygon fill="#8D1B3D" points="493.7,323.7 492.5,317.1 491.1,313.4 489.6,311.7 479.6,310.1 477.4,309.2 476.5,307.1 476.2,303
			477.4,285 477.1,282.4 476.1,279.7 469.8,268.9 469.4,267.2 470.4,265.3 471.8,263.6 472.7,261.9 473.1,258.8 472.7,249
			473.9,249.4 475.1,250.2 477.4,248.9 480.4,248.2 482.7,246.5 483.2,242.4 482.2,240.5 480.2,238.6 477.6,237 475.1,236
			480.9,232.9 483.2,232.2 483.9,237 487.3,235.7 489.6,231.3 486.8,227.1 486.2,228.4 485.1,229.5 483.6,229.7 482.1,228.3
			481.8,226.6 482.4,224.4 483.6,222.6 485,221.8 486.5,222.4 487.5,225.1 488.5,225.8 489.8,224.8 490.3,222.7 490.3,220.1
			487.4,199.6 486.2,196.3 484.3,193.4 482.1,191.1 479.2,188.9 476.3,187.3 472.8,186.2 468.7,185.8 461.3,186.4 457.8,185.8
			455.2,183.3 454.4,179.8 454.2,175.9 453.2,172.8 449.9,171.5 448.2,169.8 448.1,165.7 448.4,161 448.1,157.3 445.4,154.3
			431.8,146.9 425.6,150.8 423.8,151.4 446.2,157.5 393.8,171.9 393.7,172 391.8,177.5 446.2,192.4 384.1,209.4 384.4,210.4
			446.2,227.3 385.1,244 384.4,245.2 446.2,262.1 382.4,279.6 446.2,297 382.4,314.4 446.2,331.9 382.4,349.3 446.2,366.7
			382.4,384.2 446.2,401.6 382.4,419 426.8,431.2 429.4,430.1 432.4,429.8 434.7,429 436.4,427.7 437.5,427.8 437.7,431.1
			443.8,430.5 446.8,430.9 448.1,433 447.2,436.7 445.7,439.7 445.1,442.3 447.1,445.1 448.6,442.5 451,440.2 453.1,437.2
			454.1,433 455.5,431.6 462.4,427.5 464.6,424.6 465.7,416.8 466.7,413.3 468.7,411.8 469.6,409.7 474.2,391.9 475.1,390.2
			476.2,389.5 477.8,389 479.1,388.3 480.9,383.7 486.8,377.1 489,373.5 491.6,362.2 493.1,360.7 492.2,358.4 494.1,339.2 		"/>
		<polygon fill="#8D1B3D" points="383.1,210 383.6,209.5 382.4,209.8 		"/>
		<polygon fill="#8D1B3D" points="382.6,244.7 383.3,244.5 382.4,244.7 		"/>
		<polygon fill="#FFFFFF" points="423.8,151.4 422.1,151.9 419,150.8 418.1,153.6 414.1,157.7 413.2,160.6 411.7,161.6 404.6,164.5
			401.9,165.1 397.1,167.1 393.8,171.9 446.2,157.5 		"/>
		<polygon fill="#FFFFFF" points="446.2,401.6 382.4,384.2 446.2,366.7 382.4,349.3 446.2,331.9 382.4,314.4 446.2,297 382.4,279.6
			446.2,262.1 384.4,245.2 383.9,246 381.6,251.5 380.5,252.8 378.1,252.7 376.7,251.4 375.5,250.8 373.6,252.8 372.8,254.8
			372.7,259.3 372,263.7 372.1,264.7 371.8,265.1 370.1,265.6 368.9,264.6 368,263.6 366.7,260 366.5,258.6 366.5,254.7
			367.6,249.6 367.9,246.4 367.1,245 365.8,244.6 364.7,242.8 363.6,242.4 362.9,243 361.8,245.9 361.3,247 359,248.2 356.6,248.5
			354.3,249.2 352.4,251.5 354.4,252.5 358.1,253.2 359.5,254.1 360.5,256.4 360.4,258.7 359.8,261 359.5,263.1 359.7,266.5
			360.3,269.7 363,277.3 358.5,276.4 354.9,270.1 351.2,266.1 346.6,272.2 348.8,274.5 348.6,278.2 346.6,286.2 349,300.3
			349.1,304.3 347.8,314.4 348,318.5 348.7,322.7 349,326.6 347.8,330 349.3,334.4 349.6,341.3 350.8,347.7 355.4,350.4
			356.4,351.9 356.6,355.2 356.2,358.9 354.4,364.2 354.9,366.9 362.3,380.5 363.7,385.2 365.1,403 363.9,407.8 359.5,411.8
			356.3,412.2 368.7,432.6 376.8,441.8 385.4,445.4 395.6,446.9 405.2,446.9 414.1,443.9 425.6,434.4 425.3,433.2 426.7,431.2
			426.8,431.2 382.4,419 		"/>
		<polygon fill="#FFFFFF" points="391.8,177.5 389.9,183.3 388.8,183.3 388.3,182.3 387.8,181.7 386.4,180.6 385.9,189.2
			385.2,192.8 380.7,203.6 380.4,207.6 382.9,210.3 383.1,210 382.4,209.8 383.6,209.5 384,209 384.1,209.4 446.2,192.4 		"/>
		<polygon fill="#FFFFFF" points="384.4,210.4 385,212.2 384.4,215.2 382.9,217.8 380.5,219.4 380.4,217.2 379.8,215.1 378.7,213.4
			377.6,212.8 376,213.8 375.4,215.9 374.7,217.3 372.3,216.8 372.3,222.4 372.5,223.2 373.4,224.3 373.6,225.1 373.2,226.1
			371.6,227.5 371.1,228.3 369.9,237.2 370.1,239.9 372.5,244.8 376.1,246.3 380.5,245.5 382.6,244.7 382.4,244.7 383.3,244.5
			385.2,243.7 385.1,244 446.2,227.3 		"/>
	</g>
	<path vector-effect="none" fill="none" stroke="#999999" stroke-width="0.25" stroke-linecap="round" stroke-linejoin="round" d="
		M425.6,434.4l-11.6,9.5l-8.8,3l-9.7,0.1l-10.2-1.5l-8.6-3.6l-8.1-9.2l-12.4-20.5l3.2-0.4l4.4-4l1.2-4.8l-1.5-17.8l-1.4-4.7
		l-7.3-13.6l-0.6-2.8l1.8-5.2l0.4-3.7l-0.2-3.3l-1-1.5l-4.6-2.8l-1.3-6.4l-0.3-6.8l-1.5-4.4l1.2-3.3l-0.3-4l-0.7-4.1l-0.2-4.1
		l1.3-10.1l-0.1-3.9l-2.4-14.1l2-8.1l0.2-3.7l-2.2-2.3l4.6-6.1l3.6,4l3.6,6.3l4.5,0.9l-2.7-7.6l-0.6-3.2l-0.2-3.4l0.3-2.1l0.6-2.2
		l0.1-2.3l-1-2.4l-1.4-0.9l-3.8-0.7l-2-0.9l1.9-2.3l2.3-0.6l2.4-0.3l2.3-1.2l0.5-1l1.1-2.9l0.7-0.6l1.2,0.4l1,1.8l1.3,0.4l0.8,1.4
		l-0.3,3.2l-1.1,5.1v3.9l0.1,1.4l1.4,3.6l0.8,1l1.2,1l1.7-0.5l0.4-0.5l-0.2-1l0.7-4.4l0.1-4.5l0.8-2l1.9-2l1.2,0.6l1.3,1.3l2.4,0.1
		l1.1-1.3l2.4-5.5l1.3-2.3l-4.7,1.8l-4.4,0.8l-3.6-1.5l-2.4-5l-0.2-2.7l1.2-8.9l0.5-0.8l1.6-1.4l0.4-0.9l-0.1-0.8l-0.9-1.2l-0.2-0.8
		v-5.7l2.3,0.6l0.8-1.5l0.6-2.1l1.6-1l1.2,0.6l1,1.7l0.6,2.1l0,2.2l2.4-1.6l1.6-2.6l0.5-3L384,209l-1.2,1.3l-2.5-2.7l0.3-4l4.5-10.8
		l0.7-3.6l0.5-8.6l1.4,1l0.5,0.6l0.5,1h1.1l3.8-11.3l3.4-4.9l4.9-2l2.6-0.6l7.2-2.9l1.5-1l0.9-2.9l4-4.1l0.9-2.8l3.1,1.2l3.5-1.1
		l6.2-3.9l13.6,7.3l2.7,3.1l0.3,3.7l-0.4,4.7l0.1,4.1l1.8,1.7l3.3,1.3l0.9,3.1l0.2,3.9l0.8,3.5l2.6,2.5l3.5,0.6l7.4-0.6l4.1,0.4
		l3.5,1.1l3,1.6l2.8,2.1l2.3,2.3l1.9,2.9l1.2,3.3l2.9,20.5l-0.1,2.6l-0.5,2.1l-1.3,1l-1-0.6l-1-2.7l-1.5-0.6l-1.3,0.8l-1.2,1.8
		l-0.6,2.2l0.3,1.7l1.5,1.4l1.5-0.2l1.2-1.1l0.6-1.4l2.8,4.3l-2.3,4.4l-3.4,1.3l-0.7-4.9l-2.3,0.7l-5.9,3.1l2.5,1l2.6,1.6l2.1,1.9
		l1,1.9l-0.6,4.1l-2.3,1.6l-2.9,0.7l-2.4,1.3l-1.2-0.8l-1.2-0.4l0.4,9.9l-0.4,3.1l-0.9,1.6l-1.4,1.8l-1,1.8l0.4,1.7l6.2,10.9
		l1.1,2.6l0.3,2.7l-1.2,18l0.3,4.1l1,2.1l2.1,0.9l10,1.6l1.6,1.6l1.4,3.8l1.3,6.6l0.4,15.5l-1.9,19.2l0.9,2.2l-1.5,1.6l-2.6,11.3
		l-2.2,3.6l-5.9,6.6l-1.8,4.6l-1.4,0.7l-1.6,0.5l-1.2,0.7l-0.8,1.7l-4.7,17.9l-0.9,2.1l-2,1.5l-0.9,3.5l-1.1,7.8l-2.3,2.9l-6.9,4.1
		l-1.4,1.4l-0.9,4.3l-2.1,2.9l-2.3,2.3l-1.6,2.6l-1.9-2.8l0.6-2.6l1.5-3l0.9-3.8l-1.3-2.1l-3-0.4l-6,0.6l-0.2-3.2l-1.1-0.1l-1.7,1.2
		l-2.3,0.8l-3,0.3l-2.7,1.1l-1.4,2L425.6,434.4"/>
</g>

</svg>
