<?xml version="1.0" encoding="utf-8"?>

<svg version="1.2" baseProfile="tiny" xmlns="http://www.w3.org/2000/svg" xmlns:xlink="http://www.w3.org/1999/xlink" x="0px"
	 y="0px" viewBox="275.5 172 288.8 250" xml:space="preserve">

<g id="Rwanda">
	<title>Flag of Rwanda</title>
	<g>
		<polygon fill="#00A1DE" points="532.3,217.3 530.5,216.6 532.9,220.2 		"/>
		<polygon fill="#00A1DE" points="555.8,262.4 557.2,254.3 557.2,252.9 552,248.3 550.6,247.2 550.6,247 546.1,243 		"/>
		<polygon fill="#00A1DE" points="551.4,295.1 552.1,293.9 552.9,293 555.3,291.2 554.2,288.7 555,286.5 556.4,284.4 557.2,282
			556.1,276.3 555.6,274.8 557.2,270.9 556.9,269.6 555.6,267.7 555.3,267 555.3,265.5 555.6,263.8 543.1,244.8 549.1,273.9
			539.7,245.7 538,275.4 536.3,245.7 526.9,273.9 532.9,244.8 516.6,269.6 529.9,243 507.7,262.8 527.5,240.6 500.9,253.9
			525.7,237.6 496.6,243.6 524.8,234.2 495.1,232.5 524.8,230.8 496.6,221.4 525.7,227.4 500.9,211 527.5,224.4 507.7,202.2
			529.9,221.9 526.1,214.3 524.6,212.9 523,211.8 518.9,210.1 517,208.7 516.3,206.5 516.4,205.4 516.8,204.6 517.1,203.9
			517.3,203.5 516.9,202.3 515.6,200.6 514.8,197.8 512.2,193.5 511.4,191.4 510.8,187.8 510.2,186.9 508.4,185.6 507.8,185.8
			506.9,186.3 505.8,186.5 504.5,185.6 504.3,184.8 504.7,183.9 505.2,183.2 505.5,182.3 505,180.4 503,179 502.5,177.5 503,175.9
			504,174.3 505.1,173.2 505,173.1 501.4,172 499.5,172.2 497.6,173.1 495.3,173.6 493,173.3 490.5,172.6 488.2,172.2 486,173
			484.8,175 483.9,180.9 483.2,183 482.3,183.7 479.9,184.8 478.9,185.6 478.5,186.5 478.1,188.5 477.9,189.4 476.4,192
			474.5,194.3 468.2,200.3 466,201.6 464.9,201.9 463.8,202 462.7,202.2 461.5,202.9 460.5,204.8 459.7,210.3 458.9,212.4
			457.4,213.9 451.6,216.1 446.7,218.7 444.8,220.6 443.5,223.7 442.1,224 432.4,229.3 429.2,230.5 426.3,230.8 423.5,230
			421.1,227.7 419.6,224.8 419.3,218.9 418.7,216 414.7,210.2 413.1,209.4 411.9,209.2 410.6,209.6 409.3,210.4 408,211.9
			407.2,214.7 406,215.4 405,215.1 402,213.2 400.3,212.9 396.8,213.5 394.4,214.7 392.2,216.3 389.3,217.9 386.7,218.6
			383.7,218.8 378,218.5 372.4,220.5 366.8,224.6 361.8,229.6 358.6,234.7 358.3,235 358,235.2 357.6,235.3 346.8,235.7
			344.6,236.7 342.9,238.8 339,246.7 337.6,248.6 330.7,254.3 329,256.8 327.3,259.9 330.9,261.3 332.1,262.1 332.3,263 332,263.8
			331.4,264.6 331.1,265.5 331.5,265.9 333.4,266.4 334.1,266.9 334.5,268.4 334.7,270.3 334.3,272.1 333,273.8 335.3,276.6
			335.7,283.6 336.9,286.3 335.1,289.1 336.4,292 339.9,295.5 340.2,294.5 340.9,295.6 341.1,296 555.7,296 555.7,295.8 		"/>
		<polygon fill="#00A1DE" points="556.2,247.7 555.2,248.1 557.1,250.2 		"/>
		<polygon fill="#00A1DE" points="536.3,218.7 536,218.6 536.3,219.3 		"/>
		<polygon fill="#FAD201" points="341.6,297.3 341.7,297.9 343,300.9 343.9,301.7 345.6,300.8 345.2,303.5 346,305.8 347.1,308
			347.6,310.1 347.3,312.3 346.4,312.3 345.7,311.3 345.6,310.5 344.2,311.4 343.3,312.3 342.2,313 340.7,313.4 341.4,314.9
			341.7,316.4 341.5,317.9 340.7,319.3 339.1,316.3 338.1,315.3 336.8,315.4 335.9,316.7 335.2,318.9 334.9,323.1 334,323.1
			333.2,321.8 333.3,320.2 334,316.3 332,317.4 331.2,319.1 331.1,323.6 331.7,324.4 333.2,325.2 334.5,326.6 334.9,328.9
			331.7,325.9 327.7,326.2 325.1,328.8 326.2,332.9 323.3,332.5 321.9,334.1 321.5,336.7 322.2,339.6 323.3,339.3 324.2,338.6
			323.8,340.6 322.2,341.2 320.2,340.8 318.4,339.6 312.4,351.1 312.7,349.5 313.4,347.2 313.5,345.4 312.4,345.4 312,347.1
			311.3,348.3 309.5,350.3 309.7,349.7 309.1,349.2 308.2,349.1 307.6,349.3 307.3,350 307.4,351.9 307.1,352.7 305.8,355
			305.1,357.3 304,359.4 301.7,360.9 303.4,358.1 304.7,355.2 303.3,353.1 303.1,349.5 302.5,346.3 299.8,345.4 298.6,346.1
			297.8,347.4 295.9,354.1 295.3,355 294.9,355.3 294.5,355.5 293.9,356 291.2,358 285.1,360.4 282.6,362.5 427.3,362.5 427,359.2
			427.9,351.9 427.9,350.6 428.3,349.9 429.8,349.8 430.9,350.5 434.6,353.7 435.7,353.8 436.9,353.7 438.3,353.7 439.9,354.3
			441.7,355.6 446.1,360.8 448,362.5 461.7,362.5 466.7,356.3 467,355.3 467.1,354 467.5,353 469.2,353.2 473.7,355.3 475.4,355.7
			477.7,355.6 480.4,355.1 483.1,354.2 485.1,353.1 487,351.5 488.2,349.8 489.6,348.6 491.9,347.9 492.6,348.2 497,349.3
			497.5,349.1 498.2,349.9 498.9,351.9 499.8,353 507.5,359.3 512.2,361.5 516.9,361.7 519.7,360.1 522.7,360.4 525.8,361.3
			528.7,361.1 530.3,359.8 532.4,356 534,354.8 535.8,354.5 537.4,355 544.8,358.6 546,358.9 547.3,358.6 548.3,358 550.3,357.5
			552.4,356.2 554.9,355.2 556.7,353.9 558.2,351.2 558.8,348.4 558.2,338.7 559.4,332.5 564.3,316.7 563.1,312.6 561.6,310.6
			559.4,308.4 556.8,307.1 554.2,307.7 556,299.5 555.7,296 341.1,296 		"/>
		<polygon fill="#20603D" points="448.4,362.9 451.3,364.8 454.6,366.1 457.9,366 460.3,364.3 461.7,362.5 448,362.5 		"/>
		<polygon fill="#20603D" points="282.3,362.8 280.8,366.5 279.8,370.3 277.9,372.5 278,372.5 278.5,374.3 276,376.5 275.5,378.3
			276,380.1 277.3,381 278.9,381.8 280.3,383.2 281.3,386.5 280.3,397.3 281.4,398.4 286.8,401.9 288.7,402.6 292.9,403.1
			295.8,404.5 298,406.9 300.4,392.8 303.6,389.6 311.9,389.1 314.2,389.4 322.9,393.2 326.1,394.2 332.1,394.9 335.1,395.6
			337.7,397.1 339.4,398.4 339.5,399 339.3,400.7 339.8,402.8 343,405.6 343.8,407.4 343.5,409 341.6,411.4 341.1,412.9
			341.4,414.5 342.7,417.5 342.9,419.2 344.1,421.9 347.6,421.6 353.8,418.9 356.3,418.7 364.2,420.1 367.5,422 370.2,421.1
			372.9,419.4 376,419 377.5,419 378.6,418.6 379.7,418 383.9,416.4 384.9,416.5 392.3,418.9 395,419.3 398.2,418.9 399.6,418.1
			400.2,416.8 400.6,413.8 401.7,412.5 403.4,412.5 406.6,413.5 410.1,413.6 413,413 415.6,411.5 418.5,408.5 420.4,406 422.1,403
			423.5,400 424.2,396.8 425,380.7 428,370.1 427.3,362.5 282.6,362.5 		"/>
		<polygon fill="#E5BE01" points="557.3,250.7 557.1,250.2 555.2,248.1 552.8,249 552,248.3 557.2,252.9 		"/>
		<path fill="#E5BE01" d="M538.3,245.8l-0.3,29.6l1.7-29.7l9.4,28.2l-6-29.1l12.5,19l0.2-1.4l-9.7-19.4l4.4,4l-1.3-3l-0.9-3.2
			C546,243.8,542.3,245.7,538.3,245.8z"/>
		<path fill="#E5BE01" d="M538,245.8c-7.2,0-13.2-5.8-13.3-13l-29.6-0.3l29.7,1.7l-28.2,9.4l29.1-6l-24.9,16.4l26.6-13.3l-19.8,22.2
			l22.2-19.8l-13.3,26.6l16.4-24.9l-6,29.1l9.4-28.2l1.7,29.7l0.3-29.6C538.2,245.8,538.1,245.8,538,245.8z"/>
		<path fill="#E5BE01" d="M507.7,202.2l19.8,22.2L500.9,211l24.9,16.4l-29.1-6l28.2,9.4l-29.7,1.7l29.6,0.3c0-0.1,0-0.2,0-0.3
			c0-7.3,5.9-13.2,13.2-13.3l-0.5-0.1l-1.1-0.4l0,0.6l-0.2-0.7l-3.7-1.4l0.6,3l-2.4-3.6l-2.5-0.9l-1.3-0.8l-0.6-0.6l3.9,7.7
			L507.7,202.2z"/>
		<path fill="#E5BE01" d="M538,220.4c-6.6,0-12,5.4-12,12c0,6.6,5.4,12,12,12c4.1,0,7.8-2.1,10-5.3l-0.1-0.3l-0.6-1.1l-1.8-1.9
			l-2.4-3.1l-0.8-1.8l0.7-0.8l0.4-1.7l0.3-3.7l-0.7-3.3C541.5,220.9,539.8,220.4,538,220.4z"/>
		<path fill="#00A1DE" d="M524.7,232.5c0,0.1,0,0.2,0,0.3c0.1,7.2,6,13,13.3,13c0.1,0,0.2,0,0.3,0c4.1-0.1,7.7-2,10.1-5l-0.4-1.5
			c-2.2,3.2-5.8,5.3-10,5.3c-6.6,0-12-5.4-12-12c0-6.6,5.4-12,12-12c1.8,0,3.5,0.4,5,1.1l-0.1-0.4l-2.8-1.7l-2.2-0.3
			C530.6,219.3,524.7,225.2,524.7,232.5z"/>
	</g>
	<polygon fill="none" stroke="#999999" stroke-width="0.25" stroke-linecap="round" stroke-linejoin="round" points="561.6,310.6
		559.4,308.4 556.8,307.1 554.2,307.7 556,299.5 555.7,295.8 551.4,295.1 552.1,293.9 552.9,293 555.3,291.2 554.2,288.7 555,286.5
		556.4,284.4 557.2,282 556.1,276.3 555.6,274.8 557.2,270.9 556.9,269.6 555.6,267.7 555.3,267 555.3,265.5 557.2,254.3
		557.3,250.7 556.2,247.7 552.8,249 550.6,247.2 549.2,244 547.9,238.9 547.2,237.9 545.5,236 543.1,232.9 542.3,231 543.1,230.2
		543.5,228.5 543.8,224.9 543,221.2 540.1,219.5 537.4,219.1 528,215.7 526.7,214.9 524.6,212.9 523,211.8 518.9,210.1 517,208.7
		516.3,206.5 516.4,205.4 516.8,204.6 517.1,203.9 517.3,203.5 516.9,202.3 515.6,200.6 514.8,197.8 512.2,193.5 511.4,191.4
		510.8,187.8 510.2,186.9 508.4,185.6 507.8,185.8 506.9,186.3 505.8,186.5 504.5,185.6 504.3,184.8 504.7,183.9 505.2,183.2
		505.5,182.3 505,180.4 503,179 502.5,177.5 503,175.9 504,174.3 505.1,173.2 505,173.1 501.4,172 499.5,172.2 497.6,173.1
		495.3,173.6 493,173.3 490.5,172.6 488.2,172.2 486,173 484.8,175 483.9,180.9 483.2,183 482.3,183.7 479.9,184.8 478.9,185.6
		478.5,186.5 478.1,188.5 477.9,189.4 476.4,192 474.5,194.3 468.2,200.3 466,201.6 464.9,201.9 463.8,202 462.7,202.2 461.5,202.9
		460.5,204.8 459.7,210.3 458.9,212.4 457.4,213.9 451.6,216.1 446.7,218.7 444.8,220.6 443.5,223.7 442.1,224 432.4,229.3
		429.2,230.5 426.3,230.8 423.5,230 421.1,227.7 419.6,224.8 419.3,218.9 418.7,216 414.7,210.2 413.1,209.4 411.9,209.2
		410.6,209.6 409.3,210.4 408,211.9 407.2,214.7 406,215.4 405,215.1 402,213.2 400.3,212.9 396.8,213.5 394.4,214.7 392.2,216.3
		389.3,217.9 386.7,218.6 383.7,218.8 378,218.5 372.4,220.5 366.8,224.6 361.8,229.6 358.6,234.7 358.3,235 358,235.2 357.6,235.3
		346.8,235.7 344.6,236.7 342.9,238.8 339,246.7 337.6,248.6 330.7,254.3 329,256.8 327.3,259.9 330.9,261.3 332.1,262.1 332.3,263
		332,263.8 331.4,264.6 331.1,265.5 331.5,265.9 333.4,266.4 334.1,266.9 334.5,268.4 334.7,270.3 334.3,272.1 333,273.8
		335.3,276.6 335.7,283.6 336.9,286.3 335.1,289.1 336.4,292 339.9,295.5 340.2,294.5 340.9,295.6 341.6,297.3 341.7,297.9
		343,300.9 343.9,301.7 345.6,300.8 345.2,303.5 346,305.8 347.1,308 347.6,310.1 347.3,312.3 346.4,312.3 345.7,311.3 345.6,310.5
		344.2,311.4 343.3,312.3 342.2,313 340.7,313.4 341.4,314.9 341.7,316.4 341.5,317.9 340.7,319.3 339.1,316.3 338.1,315.3
		336.8,315.4 335.9,316.7 335.2,318.9 334.9,323.1 334,323.1 333.2,321.8 333.3,320.2 334,316.3 332,317.4 331.2,319.1 331.1,323.6
		331.7,324.4 333.2,325.2 334.5,326.6 334.9,328.9 331.7,325.9 327.7,326.2 325.1,328.8 326.2,332.9 323.3,332.5 321.9,334.1
		321.5,336.7 322.2,339.6 323.3,339.3 324.2,338.6 323.8,340.6 322.2,341.2 320.2,340.8 318.4,339.6 312.4,351.1 312.7,349.5
		313.4,347.2 313.5,345.4 312.4,345.4 312,347.1 311.3,348.3 309.5,350.3 309.7,349.7 309.1,349.2 308.2,349.1 307.6,349.3
		307.3,350 307.4,351.9 307.1,352.7 305.8,355 305.1,357.3 304,359.4 301.7,360.9 303.4,358.1 304.7,355.2 303.3,353.1 303.1,349.5
		302.5,346.3 299.8,345.4 298.6,346.1 297.8,347.4 295.9,354.1 295.3,355 294.9,355.3 294.5,355.5 293.9,356 291.2,358 285.1,360.4
		282.3,362.8 280.8,366.5 279.8,370.3 277.9,372.5 278,372.5 278.5,374.3 276,376.5 275.5,378.3 276,380.1 277.3,381 278.9,381.8
		280.3,383.2 281.3,386.5 280.3,397.3 281.4,398.4 286.8,401.9 288.7,402.6 292.9,403.1 295.8,404.5 298,406.9 300.4,392.8
		303.6,389.6 311.9,389.1 314.2,389.4 322.9,393.2 326.1,394.2 332.1,394.9 335.1,395.6 337.7,397.1 339.4,398.4 339.5,399
		339.3,400.7 339.8,402.8 343,405.6 343.8,407.4 343.5,409 341.6,411.4 341.1,412.9 341.4,414.5 342.7,417.5 342.9,419.2
		344.1,421.9 347.6,421.6 353.8,418.9 356.3,418.7 364.2,420.1 367.5,422 370.2,421.1 372.9,419.4 376,419 377.5,419 378.6,418.6
		379.7,417.9 383.9,416.4 384.9,416.5 392.3,418.9 395,419.3 398.2,418.9 399.6,418.1 400.2,416.8 400.6,413.8 401.7,412.5
		403.4,412.5 406.6,413.5 410.1,413.6 413,413 415.6,411.5 418.5,408.5 420.4,406 422.1,403 423.5,400 424.2,396.8 425,380.7
		428,370.1 427,359.2 427.9,351.9 427.9,350.6 428.3,349.9 429.8,349.8 430.9,350.5 434.6,353.7 435.7,353.8 436.9,353.7
		438.3,353.7 439.9,354.3 441.7,355.6 446.1,360.8 448.4,362.9 451.3,364.8 454.6,366.1 457.9,366 460.3,364.3 466.7,356.3
		467,355.3 467.1,354 467.5,353 469.2,353.2 473.7,355.3 475.4,355.7 477.7,355.6 480.4,355.1 483.1,354.2 485.1,353.1 487,351.5
		488.2,349.8 489.6,348.6 491.9,347.9 492.6,348.2 497,349.3 497.5,349.1 498.2,349.9 498.9,351.9 499.8,353 507.5,359.3
		512.2,361.5 516.9,361.7 519.7,360.1 522.7,360.4 525.8,361.3 528.7,361.1 530.3,359.8 532.4,356 534,354.8 535.8,354.5 537.4,355
		544.8,358.6 546,358.9 547.3,358.6 548.3,358 550.3,357.5 552.4,356.2 554.9,355.2 556.7,353.9 558.2,351.2 558.8,348.4
		558.2,338.7 559.4,332.5 564.3,316.7 563.1,312.6 	"/>
</g>

</svg>
