<?xml version="1.0" encoding="utf-8"?>

<svg version="1.2" baseProfile="tiny" xmlns="http://www.w3.org/2000/svg" xmlns:xlink="http://www.w3.org/1999/xlink" x="0px"
	 y="0px" viewBox="226.5 132.4 411.1 335.4" xml:space="preserve">

<g id="Saudi_Arabia">
	<g>
		<polygon fill="#006C35" points="276,280.6 276,280.6 276.1,280.6 276,280.5 275.8,280.3 275.7,279.6 275.6,279.5 275.6,279.7
			275.4,279.7 275.3,279.3 275,279.1 274.8,279.1 274.5,279.1 274.3,279.3 274.2,279.7 274.2,279.9 274.4,279.7 274.6,279.7
			274.7,280 274.9,280.2 275.1,280.1 275.3,280.1 275.2,280.3 275.3,280.5 275.7,280.8 275.9,280.8 275.8,280.6 275.8,280.6 		"/>
		<polygon fill="#006C35" points="272.9,280 272.2,279.7 271.8,279.5 271.7,279.4 271.3,278.9 271.1,278.7 270.9,278.7 270.9,278.9
			271.1,279.2 271.3,279.4 271.4,279.5 271.3,279.6 271.3,279.5 271.3,279.6 271.4,279.7 271.4,279.8 272.2,280.6 272.5,280.9
			272.9,281.3 273.3,281.6 273.6,281.4 273.8,281 274,280.8 274.2,280.6 274.5,280.5 274.5,280.4 274.1,280.4 273.9,280.6
			273.6,280.8 273.4,280.9 273.3,280.6 273.3,280.4 273.7,280.3 273.6,280.2 273.4,280.1 273.2,280.1 		"/>
		<polygon fill="#006C35" points="272.3,277.9 272.5,277.8 272.7,277.6 272.7,277.4 272.5,277.2 272.2,277.1 271.9,277.3
			271.9,277.6 272.2,277.9 		"/>
		<polygon fill="#006C35" points="273.7,277 273.8,277 273.9,276.8 273.9,276.6 273.8,276.4 273.6,276.3 273.4,276.4 273.3,276.6
			273.3,276.8 273.3,277 273.3,277.6 273.4,277.8 273.6,277.9 273.8,278.2 273.9,278 273.7,277.4 273.6,277.1 273.6,277.2
			273.6,277.1 273.6,276.9 273.6,276.9 		"/>
		<polygon fill="#006C35" points="368.1,457.7 367.7,457.5 367.7,457.9 367.9,458.2 368.1,458.4 368.2,458.7 368.2,458.9 368,459.2
			367.9,459.3 368.1,459.5 368.2,459.6 368.4,459.6 368.6,459.7 369.1,460.2 369.6,460.8 370.1,461.3 370.9,461.6 371.5,462.1
			371.9,462.2 372.2,462.1 372.6,461.7 372.9,461.6 373.8,461.7 374.2,461.8 374.3,462 374.6,462.5 374.5,462.7 374.1,462.7
			374.5,463.2 375.1,463.6 375.7,463.8 375.9,463.5 375.9,463.2 375.6,462.6 375.5,462.3 375.6,462 375.8,461.6 375.8,461.3
			375.5,461.1 375.8,460.9 375.2,460.7 374.9,460.5 374.7,460.3 374.6,460.4 374.2,459.5 374.1,459.2 374,459 373.7,458.8
			373.4,458.9 373.3,459.1 373.1,459.7 372.9,460 372.9,460.3 373.4,460.7 373.5,460.5 373.5,460.5 373.4,460.4 373.4,460.4
			373.6,460.5 373.8,460.6 373.9,460.8 373.9,460.9 373.1,461 372.9,460.9 372.6,460.8 372.4,460.6 372.2,460.6 372,460.7
			371.6,460.9 371.1,460.7 370.6,460.5 370.3,460.3 370.2,460.1 370.1,459.9 369.8,459.4 369.7,459.1 369.7,459 369.4,458.7
			369.4,458.7 369.2,458.4 		"/>
		<polygon fill="#006C35" points="277,290.3 277.2,290.4 277.4,290.5 277.5,290.2 277.3,290 277.1,289.8 276.9,289.7 276.7,289.7
			276.6,289.9 276.6,290.3 276.7,290.3 276.9,290.3 		"/>
		<polygon fill="#006C35" points="370.7,456.4 370.5,456.7 370.3,456.9 369.9,457.1 369.5,457.1 369.3,457.3 369.4,457.7
			369.8,458.5 370.3,459.1 370.5,459.3 370.8,459.4 370.9,459.5 371,459.7 371.1,459.8 371.2,459.9 371.3,459.7 371.4,459.7
			371.6,459.8 372,460 372.1,460.1 372.3,459.8 372.2,459.4 372,459 371.7,458.9 371.3,458.7 371.2,458.3 371.4,458.1 371.9,458
			371.7,457.6 371.5,457.2 371.4,456.8 371.4,456.3 371.3,455.6 370.9,455.2 370.4,455 369.8,455 369.8,454.8 369.6,454.9
			369.4,455 369.5,455.1 369.7,455.2 370.2,455.3 370.4,455.3 370.9,455.5 371.1,456 371,456.4 		"/>
		<polygon fill="#006C35" points="251.5,244 251.4,243.9 251.2,243.6 251.1,243.3 250.9,243.3 251,243.6 251,243.8 251.3,244.1
			251.6,244.6 251.5,244.3 251.5,244.2 		"/>
		<polygon fill="#006C35" points="227,224.7 227.5,224.6 227.5,224.4 227.4,224.3 227,224.1 226.9,224.2 226.8,224.3 226.7,224.4
			226.6,224.6 226.6,224.5 226.5,224.5 226.5,224.6 226.6,224.7 226.6,225.2 226.6,225.5 227,226 227.6,226.3 228.3,226.3
			229,226.2 229,226.1 228.3,225.5 228.3,225.4 228.2,225.2 228.1,225.1 228.1,225.1 228.1,225.1 227.8,225.1 227.2,225.2
			226.9,225.2 226.7,225 226.8,224.8 		"/>
		<polygon fill="#006C35" points="266,274.6 265.5,275.1 265.4,275.5 265.5,276 265.8,276.3 266.1,276.6 266.3,276.7 266.4,276.4
			266.9,276.5 268.4,277.3 268.7,277.5 268.8,277.6 269,277.4 269.1,277.2 269.1,277.1 268.8,276.9 268.6,276.9 268.6,277
			268.5,277 268.6,277.1 268.6,277.1 268.4,277.1 268.2,277 268.2,276.8 268.2,276.7 268.1,276.6 267.9,276.7 267.7,276.7
			267.4,276.5 266.9,276 266.8,275.9 266.6,275.8 266.5,275.7 266.4,275.6 266.3,275.6 266.2,275.5 266,275.3 266,275.1
			266.3,274.7 266.4,274.4 266.4,274.3 266.2,274.4 		"/>
		<polygon fill="#006C35" points="271.4,278.5 271.1,278.3 271,278 270.9,277.9 269.9,277.2 269.6,277.1 269.3,277.2 269.1,277.5
			269.1,277.7 269.2,277.6 269.3,277.5 269.5,277.5 269.8,277.4 270.1,277.6 270.3,277.9 270.3,277.9 270.2,277.9 270.3,278
			270.5,278 270.7,278.1 270.7,278.3 270.8,278.5 270.9,278.5 271,278.5 271.2,278.7 271.4,278.9 271.6,278.9 271.7,278.9
			271.9,279 272,279.2 272.1,279.3 272.3,279.4 272.5,279.5 272.8,279.8 272.9,279.8 272.9,279.7 273,279.7 273,279.6 272.8,279.4
			272.1,278.8 271.7,278.6 		"/>
		<polygon fill="#006C35" points="266.8,271.5 267.1,271.1 267.3,270.9 267.2,270.9 266.7,271.4 266.4,272.1 266.3,273 266.4,273.5
			266.4,273.7 266.6,273.9 266.8,274.1 267.2,274.4 267.4,274.4 267.6,274.3 267.7,274.1 267.6,274.1 267.4,274.1 267.3,274
			267.2,273.9 267.2,273.8 267.3,273.5 267.4,273.2 267.4,273.1 267.3,273.1 267.2,273 266.8,272.6 266.6,272.3 266.7,271.9 		"/>
		<polygon fill="#006C35" points="366,457 366.1,457.1 366.4,457.1 366.6,457 366.7,456.8 366.8,456.6 367,456.4 367,456.3
			366.7,456 366.5,455.8 366.3,455.8 366,455.9 365.7,456.3 365.6,456.5 365.7,456.6 365.8,456.8 		"/>
		<path fill="#006C35" d="M386.3,244.5c0.4-0.1,0.6-0.7,0.3-1.3c-0.3-0.6-0.8-1-1.2-0.9c0,0-0.1,0-0.1,0c-0.4,0.1-0.6,0.7-0.3,1.3
			C385.3,244.3,385.9,244.7,386.3,244.5z"/>
		<path fill="#006C35" d="M362.7,269.7c-0.1,0-0.1,0-0.2,0c-0.3,0-0.6,0.2-0.8,0.3c0,0-0.1,0.1-0.1,0.1c0,0,0,0,0,0
			c-0.2,0.4-0.7,0.9-0.5,1.4c0.3,0.5,0.6,0.5,1.2,0.6c0.5,0,1.1,0.1,1.3-0.1c0,0,0,0,0,0c0,0,0,0,0,0c0.3-0.3,0.5-0.9,0.3-1.4
			C363.6,269.9,363.1,269.7,362.7,269.7z"/>
		<polygon fill="#006C35" points="519,239.4 519,239.5 519.1,239.6 519.3,239.7 519.4,239.7 519.4,239.6 519.5,239.8 519.8,239.6
			520,239.4 520.3,239.3 520.7,239.2 521,239.3 521.3,239.5 521.6,239.5 521.9,239.4 519.9,238.8 519.5,238.6 519.3,238.5
			519.1,238.4 518.9,238.3 518.3,238.5 517.7,238.9 517.4,239.4 517.4,240 517.6,239.6 517.8,239.3 518,239 518.3,238.9
			518.4,238.9 518.6,238.8 518.9,238.8 519.1,238.9 519.2,239 519.3,239.2 519.3,239.3 		"/>
		<path fill="#006C35" d="M433.7,250c-0.2-0.8-0.3-1.5-0.5-2.3c-0.1-0.4-0.1-0.7-0.2-1.1c-0.7,0.2-2.3-0.4-0.8,1.4
			C432.5,248.3,433,249,433.7,250z"/>
		<path fill="#006C35" d="M637.3,352.1l-1-1.7l-1.6-2.6l-1.6-2.6l-1.6-2.6l-1.6-2.6l-1.2-2.1l-1.3,1.7l-0.3,0.1l-2.7-0.4l-2.7-0.4
			l-2.7-0.4l-2.7-0.4l-2.7-0.4l-2.7-0.4l-2.7-0.4l-2.7-0.4l-2.7-0.4l-2.7-0.4l-2.7-0.4l-2.7-0.4l-2.7-0.4l-2.7-0.4l-2.7-0.4
			l-2.7-0.4l-2.7-0.4l-3.1-0.4l-0.5-0.2l-0.4-0.3l-1-1.3l-1-1.3l-1-1.3l-1-1.3l-1-1.3l-1-1.3l-1-1.3l-1-1.3l-1-1.3l-1-1.3l-1-1.3
			l-1-1.3l-1-1.3l-1-1.3l-1-1.3l-1-1.3l-1-1.3l-1.1-1.4l-0.3-0.5l-0.1-0.5l0-1.4l0-0.5l-0.1-0.8l-0.8-0.3l-0.6-0.6l-0.3-0.3
			l-1.3-0.3l-0.3,0l-0.2,0.1l-0.2,0.1l-0.2,0.2l-0.4,0.1l-1.2-0.1l-0.1-0.1l0-0.2l0-0.5l0-0.1l0.1,0l0.2,0l0.1-0.1l0-0.1l0-0.1
			l0-0.1l0-0.2l0-0.5l0-0.2l0.1-0.2l0.3-0.3l0.1-0.1l0.2-0.3l1.1-0.8l0.1-0.1l0.1-0.3l0.1-0.2l0.4-0.5h0.1l0.1-0.3l0.3-0.2l0.4-0.1
			l0.3-0.1v-0.2l-0.3-0.2h-0.3l-0.2,0l-0.1-0.3l-0.1-0.3l-0.3-0.1l-0.4,0l-0.1,0.1l-0.1,0.3l-0.2,0.2l-0.2,0.2l-0.3,0.3l-0.5,0.9
			l-0.3,0.2l-0.3,0.1l-0.1-0.1l0.1-0.7l-0.1,0l-0.1-0.2l0-0.2l0.1-0.1l0.1-0.1l0.1-0.2l0-0.2l0-0.2l-0.2,0.2l-0.2-0.1l-0.2-0.2
			l-0.2-0.1l-1,0.1l-0.1-0.2l-1.3,1.1l-1,0.3l-1.1,0l-1.2-0.2l-1-0.4l-0.9-1.1l-1.4-2.3l-0.4,0.4l-0.3,0l-0.2-0.2l-0.2-0.4l-0.2-0.4
			l-0.1-0.2l0-1.3l-0.2-0.8l-0.4-0.4l-0.5-0.3l-0.4-1.4l-0.3-0.3l-0.2-0.3l-0.5-0.7l-0.5-0.4l-0.2,0.4l-0.2-0.3l-0.2-0.5l-0.2-0.9
			l0.1-0.9l-0.1-0.3l-0.3-0.5l-0.1-0.4l-0.1-0.1l-0.1-0.2l0-0.3l0-0.3l0.1-0.5l0-0.3l-0.1-0.5l-0.2-0.6l-0.3-0.6l-0.2-0.3l0.1-0.2
			l-0.4-1l-0.2-0.2l-0.7-0.2l-0.4-0.2l-0.2-0.3l0-0.1l-0.1-0.1l-0.1-0.1l-0.1-0.5l-0.1,0l-0.2,0.1l-0.2,0.1l0.1,0.3l0.1,0.3l0.1,0.3
			l-0.5-0.4l-2.2-2.9l-0.7-1.5h-0.1l0,0.1l-0.1,0.2l-0.2-0.2l-0.5-0.4l-0.1-0.3l0.1-0.4l0.3,0l0.3,0.2l0.2,0.4l0.2,0.2l0.3,0.1
			l0.2,0.1l0.1,0.2l0.3,1h0.1l-0.2-1l-0.5-0.8l-1.2-1.4l-0.4-0.7l-0.5-1.1l-0.2-1l0.4-0.4v-0.1l-0.2-0.4l-0.1-0.4l-0.2-0.3l-0.5-0.1
			l-0.1,0l-0.1,0l0-0.1l0-0.1l0-0.2l-0.1,0l-0.1,0l-0.1,0l-0.2-0.3l-0.1-0.1l-0.2-0.1l0.1,0.4l-0.1,0.3l-0.3,0.2l-0.3-0.1l0.1-0.3
			l0-0.3l-0.1-0.3l0-0.3l0.1-0.2l0.1-0.1l0.1,0l0.1-0.1l0-0.2l-0.2-0.3l0-0.2l-0.1-0.1l-0.2-0.3l-0.1-0.3l0.2-0.1l0.2-0.1l0.5-1
			l0.2-0.1l0.3,0.1l0.2,0.2l0.2,0.2l0.1,0.2l0,0.1l0,0.6l0.1,0.1h0.1l0.1,0.1l0.2,0.2l0.2,0.1l0.2,0.2l0.1,0.3l0,0.3l0,0.3l0.1,0.3
			l0.3,0.2l0.2-0.6l0.2-0.8l0.1-0.8l-0.1-0.5l0.2-0.2l0.2-0.1l0.2,0.1l0,0.3l0.4-0.2l0.2-0.4l0.1-0.5l0-2.3l-0.1-1l-0.3-0.7
			l-0.6-0.5l-1.7-0.6l-0.4-0.2l-0.3-0.3l-0.2-0.3l-0.5-1.6l0-0.4l0.1-1.3l-0.1-0.1l-0.2-0.2l-0.1-0.2l-0.1-0.2l0-0.3l0-0.3l0.1-0.4
			l0.2-0.4l0.2-0.1l0.1,0.8l0.2,0.2l0.3,0.1l1.1,0.1l0.5,0.3l0.9,0.8l-0.1-0.6l-0.3-0.4l-1.4-1l-0.3-0.6l-1-1.3l-0.6-0.5l-0.6-0.4
			l-0.5-0.1l-0.5,0l-0.4,0l-0.8-0.5l-1.2-0.6l-0.2-0.2l-0.3-0.3l-0.2-0.1l-0.6-0.2l-0.2-0.1l-0.6-0.7l-1.1-1.8l-0.4-0.4l-0.4-0.2
			l-0.1-0.1l-0.1-0.3l-0.1-0.5l0-0.3l0.2-0.5l0.1-0.3l-0.4,0.4l-0.1,0.1l-0.2-0.1l-0.2-0.1l-0.2-0.1l-0.2,0l-0.3,0.3l0.2,0.3
			l0.5,0.6l-0.3,0l-0.5-0.2l-0.3-0.1l-0.5,0.2l-0.2-0.1l0.2-0.4l-0.1,0l0,0l0,0l0-0.1l-0.2,0.4l-0.1,0.2l-0.2,0.1l-0.2-0.3l-0.5-0.1
			l-0.2-0.3l0.2,0l0.2,0l0.2-0.1l0.1-0.2l0.1-0.3l0.1-0.2l0.1-0.2l-0.1-0.2l-0.1,0.2l-0.3-0.3l-0.3,0l-0.2,0.2l0.1,0.3l-0.2,0.2
			l-0.2,0l-0.1-0.1l0-0.4l-0.3,0l-0.1-0.4l0-0.9l-0.1-0.4l-0.1-0.4l-0.1-0.4l0.2-0.4l-0.4-0.2l-0.3-0.1l-0.2,0.1l-0.2,0.2l-0.2,0.2
			l-0.2,0.1l-0.2,0.1l0.1-0.3l0-0.6l0.1-0.2l0.2-0.2l0.2-0.1l0.2-0.1l0.1-0.3l-0.2-0.1l-0.1-0.1l-0.1-0.1l-0.1,0.1l0,0.1l-0.1,0.1v0
			l-0.3,0.3l-0.1,0l-0.1-0.1l-0.1-0.2l-0.2-0.1l-0.1-0.1l-0.1-0.1l-0.2-0.1l-0.2-0.1l-0.4-0.1l-0.2-0.1l0.7-0.4h0.3l0.1,0.4h0.1
			l0.4-0.4l1.1,0.1l0.4-0.5h0.1l0,0.3l0.1,0.2l0.1,0.1l0.2,0l-0.1-0.2l0-0.4l0-0.2l-0.1-0.2l-0.1-0.1l-0.1-0.1l-0.1-0.1l-0.4-0.6
			l-0.3-0.3l-0.4-0.1l-0.2,0l-0.4-0.1l-0.2,0l-0.1,0l-0.3,0.2l-0.2,0l-0.7-0.1l-0.3-0.1l-0.3-0.1l0.1,0.2l-0.1,0.2l-0.2,0l-0.3-0.1
			l0.4-0.3l-0.2-0.3l-0.7-0.4l-0.7-0.6l-0.3-0.1l-0.4,0l-0.4,0.1l-0.2,0.1l-0.2,0.2l0,0.1l0.1,0.1l0.1,0.2l-0.1,0.2l-0.3,0l-0.1-0.4
			l0.1-0.4l0.2-0.2l-0.1-0.3h-0.1l-0.2,0.4l-0.3,0.2l-0.4,0l-0.4-0.2l0.1-0.2l0.2,0l0.5,0.2l-0.1-0.1l-0.2-0.5l0.2,0l0.1-0.1l0-0.1
			l-0.1-0.2l0.1-0.1l0-0.1l0-0.4l-0.1,0.2l-0.1,0.2l-0.2,0.1l-0.3-0.1l0-0.4l0-0.3l-0.1-0.2l-0.1,0.2l-0.2,0.2l-0.2,0l-0.1-0.2v-1
			l-0.1,0.1l-0.1,0.4l-0.1,0.1l-0.2,0l0-0.1l0.1-0.1l0-0.1l0-0.4l0.4-1.5l0.2-0.3l0.2,0l0.1,0.4l0,0.3l-0.4,0.9l0.3-0.2l0.3-0.8
			l0.3-0.3l0.1,0.3l-0.1,0.2l-0.1,0.2l-0.1,0.3l0,0.5l0,0.2l-0.1,0.3l0.3-0.2l0.2-0.4l0.2-0.3l0-0.2l-0.1-0.1l0-0.3l0-0.3l0.2-0.4
			l-0.1-0.2l-0.8-0.8l-0.4-0.7l0-0.1l-0.4-0.2l-0.4-0.4l-0.4-0.4l-0.2-0.3l0-0.3l0.1-0.1l0.3-0.2l0.1,0l0.1,0l0.1-0.1l0.1-0.1
			l0.1-0.1l0-0.1l-0.1-0.1l-0.2-0.1l-0.4-0.2l-0.2-0.1l-0.7,0l-0.2,0l-0.7-0.3l-0.3-0.2l0-0.1l0-0.3l-0.1-0.2l-0.6-0.8l-0.2-0.3
			l-0.1-0.5l0-0.4l0.1-0.4l0.3-0.4l-0.1-0.3l-1.6-1.8l-0.3-0.4l-0.1-0.5l0-0.3l0.1-0.6l0.2-0.4l0-0.2l-0.2-0.1l-0.1,0.3l-0.2,0.2
			l-0.3,0.1l-0.4,0l0-0.1l0-0.1l0.1-0.1l0.4,0.2l0.2-0.5l0-0.7l-0.2-1l-0.1-0.2l-0.5-0.2l-0.2-0.2l-0.5-0.5l-3.5,0l-3.5,0l-3.5,0
			l-3.5,0l-1,0l-0.2-0.6l-0.4-0.4l-0.4-0.3l-0.4-0.4l-0.3-0.5l-0.3-0.7l-0.2-0.7l-0.1-1.2l-0.1-0.6l-1.1-2.9l-1.2-2h0l-1.1-0.1
			l-1.9-0.3l-1.9-0.2l-1.9-0.3l-1.9-0.3l-2.2-0.3l-2.2-0.3l-2.2-0.3l-2.2-0.3l-0.9,0.2l-0.9,0.2l-0.8,0.2l-0.9,0.2l-2-0.2l-1.5-0.1
			l-1.5-0.1l-1.5-0.1l-1.5-0.1l-2-0.2l-2-0.2l-2-0.2l-2-0.2l-2-0.2l-2-0.2l-2-0.2l-2-0.2l-1.5-0.1l-1.5-0.1l-1.5-0.1l-1.5-0.1
			l-1.8-0.2l-0.1,0l-0.1,0l-0.1-0.1l-0.1,0l-1.5-1.2l-1.8-1.5l-1.9-1.5l-1.9-1.5l-1.8-1.5l-2.2-1.8l-2.2-1.8l-2.2-1.8l-2.2-1.8
			l-2.2-1.8l-2.2-1.8l-2.2-1.8l-2.2-1.8l-1.7-1.4l-1.7-1.4l-1.7-1.4l-1.7-1.4l-2.1-1.7l0,0l-1.8-1.6l-1.8-1.6l-1.8-1.6l-1.8-1.6
			l-1.6-1.4l-1.6-1.4l-1.6-1.4l-1.6-1.4l-1.3-1.1l-1.7-1l-1.7-1l-1.7-1l-1.7-1l-1.7-1l-1.7-1l-1.7-1l-1.7-1l-1.7-1l-1.7-1l-1.7-1
			l-3.4-2l-1.7-1l-1.7-1l-1.7-1l-1.7-1l-2-1.2l-1.1-0.6l-1-0.4l-6.6-1.3h0l-1.6-0.3l-3.8-0.7l-3.8-0.7l-3.8-0.7l-3.8-0.7l-0.2,0.1
			l-0.2,0.1l-0.4,0.3l-2.3,2.2l-0.7,0.3l-2.2,0.6l-4.4,1.3l-4.4,1.3l-4.4,1.3l-4.4,1.3l-4.8,1.4l-4.8,1.4l-4.8,1.4l-4.8,1.4l2.5,2.7
			l2.5,2.7l2.5,2.7l2.5,2.7l0.1,0.1l0.1,0.1l0.1,0.1l0.1,0.1l2.1,2.5l2.1,2.5l2.1,2.5l2.1,2.5l1,1.1l0,0l0,0l0,0l-0.1,0.1l-1.4,0.8
			l-2.3,1.3l-2.1,1.2l-0.4,0.4l-0.3,0.4l-0.6,1.4l-0.7,1.7l-0.6,1.6l-0.9,2.1l-0.4,0.4l-2.3,0.5l-2.6,0.5l-2.8,0.6l-2.8,0.6
			l-1.7,0.4l-1.7,0.4l-0.5,0.3l-0.5,0.5l-1.1,1.8l-0.9,1.5l-1.2,2l-1.2,2.1l-1.5,1.2l-2.3,1.9l-2.1,1.7l-2.1,1.7l-0.5,0.2l-0.5,0
			l-2-0.4l-2.2-0.4l-3.4-0.6l-2.9-0.5l-2.7-0.5l-3-0.5l-2.3-0.4l-2.1-0.4l-0.1,0.3l0.1,0.4l0.1,0.3l-0.1,0l0,0l0,0.1l0,0.1l-0.2-0.1
			l-0.1,0.3l0,0.5l0.1,0.4l-0.4,0.3l-0.2,0.2l0,0.3l0,0.1l-0.2,0.5l-0.1,0.3l-0.4,2l-0.2,0.5l-0.2,0.4v0.3l0.2,0.6l-0.1,0.9
			l-0.3,0.9l-0.3,0.5v0.1l0.3,0.1l0,0.3l-0.2,0.7v0.1l0.1,0.2l-0.1,0.3l-0.3,0.6h0.1v0.1l-0.3,0.6l-0.3,0.7l-0.1,0.8l0.3,3.6
			l-0.2,0.5l-0.2,0.1l-0.2,0.3l-0.1,0.4l-0.1,0.7l-0.4,0.6l-0.2,1l-0.3,0.8l-0.4,0.7l-0.4,0.4l0.1,0.1l0.1,0l0.1-0.1l0,0.2l0,0.1
			l-0.1-0.1l-0.1-0.1l-0.1,0l-0.2,1l0.1,0.2v0.2l-0.2,0.1l-0.2,0.1l0,0.1l0.1,0.1v0.2h0.1l-0.1,0.2l-0.1,0.1l-0.2-0.1l-0.2-0.1l0,0
			l0.1,0l0,0v-0.1l-0.1,0l-0.1,0.1l-0.1,0.1l-0.1,0.1l0.1,0.2L229,221l-0.2,0.2l-0.1,0.1l0,0.1l-0.2,0.1l-0.2,0.2l-0.3,0.4l0.1,0.2
			l-0.1,0.3l0.5-0.2l0.1,0.2l0,0.5l0,0.3l0.1,0.3l0.1,0.2l-0.1,0l0,0l0,0l0,0.1l0.4-0.1l0.1-0.2l0-0.3l0.1-0.4l0.2,0.1l0,0l0,0
			l0.1,0l0.1,0v-0.2l-0.4-0.3v-0.1l0.1-0.1l0.3-0.1l0.1-0.1l0.1-0.2l0-0.2l0.1-0.1l0.2,0.2l0.1-0.1l0.1-0.1l0.1-0.1l0.1-0.1l0.1,0.3
			l0.1,0.1l0.1,0.2l0,0.1l0.2,0.1l0.1-0.1l0.1,0l0.1,0.1l0.1,0.2h0.2v-0.1h0.1l0,0.1l0,0.1v0.1l0.1,0l0,0l0,0l0.1,0.1l0-0.3l0.1-0.1
			l0.2,0l0.3,0l0,0.1v0.1l0,0.1l-0.2,0.1l-0.2,0.1l-0.1,0.1l-0.1,0.1l0.1,0l0.1,0l0.1,0l0.1,0.1l0.2-0.4l0.1-0.1l0.2-0.1v-0.1H233
			V222l0.2-0.1l0.2,0l0.2,0l0.2,0.1l-0.2,0.1l-0.2,0.1l-0.1,0.1l0.1,0.2v0.2h-0.1v0.1l0.1,0h0l0,0.1l0.3-0.3l0.4,0l0.4,0.1l0.2-0.1
			h0.1v0.1h0.1l0.1-0.2l0.1-0.1l0.2-0.1l0.6-0.2l0.2-0.1l0.2-0.1l0.2,0.1l0.2,0.1l0.2,0.1l-0.1-0.1l-0.1-0.1l-0.1-0.1h0.2l0.2,0
			l0.2-0.1l0.9,0.7l0.2,0.2l0.2,0l0.4,0l0.2,0l0.1,0.1l0.1,0.1l0.1,0.1h0.1v-0.1h0.1l0.2,0.1l0.5,0.1l0.1,0l0.2,0.3l0,0.1l-0.2-0.1
			l-0.3,0.2l-0.4,0.2l-0.3,0.2l0.2,0.3h0.1v-0.1l0.9,0.7l0.3,0.1l0.2,0.2l0.3,0.5l1,1.1l0.2,0.3l0.1,0.6l0.2,0.4l0.1,0.3l0.1,0.2
			l0.2,0.1l0.4,0.2l0.2,0.1l0.4,0.6l0.5,1.3l0.4,0.6l0.6,0.7l0.2,0.3l0.1,0.4l0,0.8l0.1,0.4l0.2,0.6l0.7,1.4l0.6,0.6l0.5,0.9
			l0.5,0.6l0.2,0.2l0.9,0.6l1.6,1.9l0.5,0.7l0.1,0.3l0,0.2l-0.2,0.3l0,0.2l0,0.2l0.1,0.2l0.6,1.1l1.6,2l1.3,1.1l0.5,0.7l0.3,0.2
			l0.4-0.1l0.4,1.3l0.6,1l0.3,0.9l0.5,0.6l1.1,1l0.9,1.2l1.5,2.8l1.4,3.5l0.8,1.1l0.4,0.8l1.2,2.9l0.5,0.6l0.7,0.3l0.6,0.1l0.7,0.2
			l0.6,0.3l0.5,0.5l0.2,0.5l0.1,0.6l-0.1,0.6l-0.3,0.4l-0.4,0.5l-0.2,0.5l0,0.5l0.2,0.5l0.1,0.1l0.2,0.1l0,0.1l0,0.5l0,0.1l0.1,0.2
			l0.4,0.6l0.2,0.1l0.3,0.1l0.6,0.4l0.2,0.1l0.2-0.1l-0.1-0.2l-0.1-0.3l0-0.2l0.4,0l0.5,0.6l0.8,1.2l0.2,0.2l0.6,0.2l0.3,0.2
			l0.2,0.2l0.3,0.6l0.2,0.3l0.1,0.1l0,0.3l0,0.1l0.1,0.1l0.3,0.2l0.1,0.1l0.3,0.9l0.1,0.3l0.9,0.9l0.3,0.5l-0.3,0.2l0.1,0.2l0.3,0.3
			l0.1,0.2l0,0.2l0,0.5l0,0.2l0.2,0.5l0.3,0.5l0.4,0.4l0.4,0.3l0.2,0.2l0.2,0.4l0.2,0.2l0.2,0.1l0.2,0.2l0.4,0.4l0.2,0.4l0.2,0.4
			l0.1,0.5l0,0.5l-0.1,1.3l0.1,0.5l0.4,0.9l0.1,0.5l-0.4,0.9l0,1.1l-0.2,0.4l-0.5,0.2l-0.4,0l-0.4-0.1l-0.5,0l0.3,0.8l0.3,0.3
			l0.3,0.2l0.2,0l0.3-0.2l0.1,0.1l0.1,0.1l0,0.2l0,0.2l-0.1,0.2l0,0.6l0.6,0.8l1.2,1.2l3.1,5.1l-0.1,0l-0.2,0l-0.1-0.1l-0.2,0.5
			l0,0.2l0.2,0.1l0.3,0.3l0.6,1l0.2,0.3l0.3,0.3l0.2,0.2l0.3,0.1l1.1,0.4l0.4,0l-0.1-0.3l0-0.2l0.3-0.2l0.4-0.2l0.3-0.1l0.3,0.1
			l0.6,0.6l0.3,0.1l0.3,0.1l0.2,0.2l0.2,0.3l0.8,1l0.3,0.2l0.7,0l0.5,0.1l0.3,0l0.1-0.1l-0.1-0.3l-0.1-0.3l0.2-0.1l0.1-0.1l0.2-0.1
			l0.2-0.1l0.1,0l0.1,0.2l-0.1,0.2l-0.2,0.2l-0.1,0.3l0.2-0.1l0.2,0l0.2,0l0.2,0.1l-0.5,0.3l-0.2,0l0.9,0.6l0.8,0.9l0.3,0.2l0.3,0.1
			l0.1,0l0.2-0.2l0.1,0l0.2,0.1l1,0.9l0.3,0.1l0.2,0.1l0.6,0.8l0.2,0.2l0.3,0.2l0.3,0.2l0.4,0.1l0.4,0.2l0.3,0.4l0.2,0.4l0.2,0.3
			l0.2,0.1l0.4,0.1l0.2,0.1l0.2,0.2l0.3,0.5l0.1,0.1l0.1,0.1l0.2,0.5l0.1,0.1l0.5,0l0.2,0l0.2,0.1l0.3,0.4l0.1,0.5l0.1,0.5l0.1,0.5
			l0.7,1.2l0.6,1.9l0.5,0.9l0.6,0.1v-0.1l-0.5-0.2l-0.2-0.2l0-0.4h0.2l0.2,0.1l0.4-0.1l0.1,0.2l0.1,0.3l0.1,0.2l0.3,0.3l0.2,0.4
			l0.2,0.5l0.1,0.5l0,0.5l0.1-0.1l0.1-0.1l0.1-0.1l0.2,0.5l0.1,0.7l0.1,0.6l0.3,0.2l-0.1,0.2l-0.1,0.3l0,0.3l0,0.2l0.2,0.2l0.1,0.2
			l0,0.3l0.2,0.5l0.3,0.4l0.4,0.2l0.3,0l-0.1,0.2l0,0.2l0,0.2l0.1,0.2l0.3-0.3l0.2,0.3l0.1,0.5l-0.2,0.2l0,0.1l0.4,0.8l0,0.3
			l-0.1,0.3l-0.2,0.3l-0.2,0.2l0.4,0.9l0.3,0.3l0.4-0.1l0.3,0.2l0.4,0.1l0.4,0.2l0.2,0.3l0.1,0.2l0.1,0.2l0.2,0.2l0.1,0.1l0.2,0.1
			l0.3,0.6l0.2,0.2l-0.1,0.2l-0.2,0.2l-0.2,0l-0.2-0.1l-0.3-0.1l-0.7-1.2l-0.6-0.1l0.4,0.3l0.7,1.4l1.1,1.6l0.2,0.4l0.1-0.1
			l-0.1-0.2l0-0.2l0-0.2l-0.1-0.2l-0.1-0.2l-0.3-0.4l-0.1-0.1l0.2-0.1l0.4,0.3l0.9,1l0,0.2l-0.5,0.5l0,0.3l0.1,0.3l0.4,0.6l0.5,1.2
			l0.5,0.7l0.1,0.3l0,2.6l0.1,0.9l0.3,0.8l0.1-0.2l0.1-0.6l0.1-0.2l0.3-0.1l0.2,0.1l0.1,0.2v0.3l-0.1,0.1l-0.3,0.3l-0.3,0.6
			l-0.2,0.2l-0.2,0.2l-0.1,0.2l-0.2,0.9l-0.6,0.7l-0.1,0.6v0.9l-0.1,0.3l-0.1,0.2l-0.1,0.2l0.1,0.3l0.3-0.7h0.1l0,0.4l-0.2,0.8
			l0,0.4l-0.1,0.1l-0.3,0.2l-0.1,0.1l0,0.2v0.4l-0.1,0.2l0.1,0.3l0.2,3l0.1,0l0.1,0.3l0,0.2l-0.2-0.1l-0.1-0.2l-0.3-0.6l-0.1-0.5
			l-0.2-0.2l-0.8-0.2l0.2,0.4l0.2,0.6l0.3,0.4l0.7,0.6l0,0.1l0.1,0.2l0,0.1l0.2,0.1l0,0l0.1,0.2l0,0.3l0.1,0.2l0.1,0.2l0.1,0.1
			l0.1,0.1l0.1,0.1l0.1,0.2v0.2l0.1,0.1l0.3,0l0.2-0.1l0.1-0.2l0.1-0.4l0.2,0.3l0,0.3l-0.1,0.3l-0.1,0.1l-0.4,0.1l0,0.3l0.2,0.6
			l0,0.6l0,0.6l0.1,0.6l0.3,0.5l-0.1,0.1l0.2,0.4l0.2,0.2l0.2-0.1l0.2-0.4l0.3,0.7l0,0.3l-0.2,0.2v0.1l0.3,0.3l0.1,0.6l0,0.7
			l-0.2,0.5l-1.5,1.3l0.6,1l0.3,0.2l0.7,1.1l0.1,0.3l0,0.1l-0.2,0.3l0,0.1l0,0.2l0.2,0.4l0.1,0.6l0.2,0.2l0.8,0.6l0.1,0l0.1,0.1
			l0,0.2l0.1,0.2l0.3,0.2l0.1,0.2l0,0.5l0.1,0.3l0.1,0.3l0.5,0.8l0,0.1l0.2,0l0.2-0.1l0.2,0l0.2,0.1l0.2,0.1l0.1,0l0.1,0.1l0.1,0.2
			l0,0.1l-0.1,0l-0.1-0.1l-0.1-0.1l0,0.5l0.4,0.5l0.6,0.4l0.4,0.3l0-0.4l0.1,0l0.3,0.4l0.1,0.1l0.1,0l0.1,0l0,0.2l0,0.1l0,0.1
			l0.1,0.3l-0.2-0.1l-0.2-0.1l-0.2-0.1l-0.1-0.2l-0.1,0.2l0,0.2l0.1,0.1l0.2,0.1l-0.1,0.3l0.3,0.3l0.4,0.2l0.4,0.1l-0.1-0.1
			l-0.1-0.1l-0.1-0.1l0-0.2l0.3,0l0.7,0.2l-0.3,0.5l0.1,0.3l0.7,0.7l0.1,0.2l0.1,0.6l0.1,0.2l0.4,0.4l0.3,0.1l0.3,0.1l-0.1,0.2
			l-0.1,0.1l-0.2,0l-0.2,0v0.2l0.4,0.3l1.2,1.9l0.5,0.5l1,0.8l0.3,0.3l0.3,0.6l0.4,0.2l0.4,0.1l0.3,0.1l0.3,0.2l1.9,1.2l0.3,0.1
			l0.1-0.1l-0.1-0.1l-0.2-0.1l-0.1,0l-0.2-0.1l-0.2-0.1l-0.1-0.1l0-0.3l0.4,0.2l0.8,0.5l0.5,0.2l0.2-0.2l0.4-0.1l0.5-0.1l0.4,0
			l0.3,0.2l0.6,0.6l0.2,0.1l0,0.1l0.2,0.2l0.3,0.3l0.2,0.3l0.1,0.1l0.6,0.1l0.5,0.1l0.3,0.2l-0.1,0.3l0.7,0.8l0.9,0.7l0.4,0.2
			l0.4,0.1l0.2,0l0.5,0.1l0.2,0.1l0.5,0.7l0.2,0.1l0.2,0.1l0.2,0.3l0.2,0.1l0.7,0.4l0.6,0.3l0.2,0.2l0.1,0.4l-0.2,0.5l0,0.1l0.1,0.1
			l0.6,0.4l0.8,1.2l0.3,0.2l0,0.2l0.2,0.4l0.3,0.4l0.3,0.2l-0.2-0.5l0.2-0.2l0.4,0l1,0.1l0.4,0.3l0.9,1.3l0.1,0.4l0.1,1l-0.1,0.8
			l-0.5-0.2l-0.2,0v0.1l0.5,0.3l1,1l0.5,0.2l1.7,0.6l0,0.2l0.1,0.2l0,0.2l0,0.2l0.1,0.2l-0.1,0.1l-0.2,0.2l-0.1,0.2l0,0.2l0.1,0.3
			l0,0.2l0,0.2l0.2,0.3l0,0.2l0,0.2l0,0.1l0.5,0.4l0.3,0.2l0.2,0.2l0.1,0.4l0.1,0.2l0.4,0.2l0.1,0.2l0,0.2l0.1,0.4l0,0.2l-0.1,0.5
			l0,0.2l0.1,0.2l0.3,0.4l0.2,0.6l0.3,0.2l0.8,0.3l0.4,0.2l0.4,0.2l0.2,0.3l-0.3,0.5l-0.1,0.4l0,0.4l-0.1,0.2l-0.1,0.2l-0.1,0.2
			l-0.1,0.4l0,0.2l0,0.2l0.1,0.1l0.4,0.5l0,0.1l0.2,0.6l0.8,0.2l0,0l0.4,0.2l0.1,0l0.2,0.3l0,0.1l-0.1,0.1l-0.1,0.2l-0.1,0.4
			l-0.5,1.3l-0.1,0.4l0,0.3l0.1,0.2l0.2,0.3l0.2,0.3l0.5,1.2l0.2,0.2l0.2,0.2l0.2,0.1l0.2,0.1l0.1,0l0.2-0.2l0.1,0l0,0l0.1,0.1
			l0.1,0.1l0.3,0.1l0.1,0.2l0.1,0.3l0,0.2l0.1,0.1l0.7,0.5l0,0.1l0,0.2l0,0.2l0.1,0.1l0.1,0l0.1,0.1l0.1,0.1l0,0.1l0,1.1l0,0.2
			l0.1,0.2l0.1,0.8l0.1,0.2l0.2,0.3l0.1,0.4l0.1,0.4l-0.1,0.3l0.3,0l0.3,0l0.1,0.1l-0.1,0.3l0.1,0.1l0,0.2l-0.1,0.2l-0.1,0.2
			l0.3-0.1l0.2,0l0.2,0.1l0.1,0.2l-0.1,0.1l0,0.1l0,0.1l-0.1,0.1l0.4,0.1l0.4,0l-0.1,0.3l0.1,0.1l0.2,0.1l0.1,0.1l0.1,0.3l0.1,0.2
			l0.3,0.4l-0.2,0.4l0.3,0.4l0.8,0.7l0,0.2l0,0.2l0,0.1l0.1,0.1l0.2,0.1l0,0.2l-0.1,0.2l0,0.3l0.1,0.3l0.8,1l0.4,0.4l0.4,0.3
			l0.3,0.3l0.2,0.5l0.4-0.1l0.7,0.5l0.4-0.2l1.2,1.1l0.2,0.1l0.6,0.9l0.2,0.2h0.1l0.1,0l0.1-0.1l0,0l0.8,0.9l0.1,0.2l0.1,0.3l0.2,0
			l0.4-0.1l0.1,0.1l0.1,0.2l0.1,0.3l0.4,0.5l0.2,0.4l0.1,0.2l0.1-0.1l0.2,0.1l2.1,1.8l0.1,0.2l0,0.2l0.1,0.1l0.1,0l0.2,0l0.2,0.1
			l0.1,0.2l0.1,0.5l0,0.4l-0.1,1l0.1,0.4l0.1,0.5l0.3,2.7l0.3,0.8l0.1,0.4l0,1.4l0.1,0.4l0.2-0.4l-0.2-1.3l0.4-0.3l-0.3-0.6
			l-0.1-0.3l-0.1-0.3l0.9,0.4l0.2,0.2l0.1,0.3l0.1,0.7l0.1,0.3l0.2,0.6l0.2,0.3l0.2,0.2l0.3,0l0.4,0l0.4,0l0.2,0.2l0.1,0.3l0.2,0.1
			l0.2,0.1l0.1,0.3v1l0.1,0.3l-0.3,0.9l0.7,0.9l0.2-0.1l0.2,0l0.6,0.3l0.1,0.1l0.5,0.5l0.2,0.4l0.1,0.1l0.5,0.5l0.1,0.2l-0.2,0.1
			l0,0.3l0.2,0.3l0.2,0.2l-0.1,0.2l0.4,0.1l0,0.4l-0.2,0.9l0,0.9l0.1,0.4l0.2,0.5l0.9,1.1l0.1,0.4l-0.3,0.7l0.1,0.2l0,0.7l0,0
			l0.9-0.3l0.7-0.3l0.5-0.3l0.2-0.3l0-0.3l-0.1-0.3l0.1-0.3l0.2-0.1l0.8-0.1l0.3-0.1l0.8-0.5l0.4-0.3l0.2-0.3l0.5-1.3l0.1-0.4l0-0.4
			l0.1-0.3l0.3-0.1l0.5,0.1l0.8,0.2l0.3-0.1l0.1-0.4l-0.1-0.5l-0.2-0.3l0-0.3l0.3-0.4l0.2-0.1l0.2-0.1l0.1-0.1l0.1-0.2l0-0.3
			l-0.1-0.2l-0.2-0.2l-0.7-0.2l-0.2-0.2l-0.2-0.7l-0.4-0.8l-0.1-0.3l0.1-0.5l0.3-0.8l0.1-0.4l0-0.4l-0.1-0.4l-0.2-0.3l-0.1-0.3
			l0.1-0.4l0.4-0.8l0.1-0.4l0-0.5l0.1-0.4l0.4-0.3l0.5-0.2l0.4-0.1l0.4-0.2l0.1-0.4l-0.2-0.4l-0.4-0.3l-1.1-0.4l0.1-0.1l0.9-1.1
			l1.7-1.5l1.7-1.1l0.4-0.2l0.4-0.1l0.4,0.1l0.7,0l0.3,0.1l1.4,0.6l0.8,0.5l1.4,1.5l0.8,0.6l0.4,0.1h0.4l0.7-0.1l0.8,0.1l0.3,0
			l0.5-0.1l0.1,0.1v0.2l0,0.4l0.1,0.2l0.1,0.1l0.1,0.1l0.2,0l0.5-0.1l0.3-0.3l0.3-0.4l0.3-0.3l0.4-0.2l0.3,0l0.7,0.4l0.5,0.1
			l0.4-0.2l0.3-0.4l0.3-0.5l0.3-0.2l0.4,0l0.8,0.2l0.4,0l1.5-0.3l1.9-0.2l1.2,0l1.3,0.3l0.5,0l1.2-0.5l0.4-0.1l3.9,0l2.9,0l3.3,0
			l1.1,0.2l3.2,1.8l0.9,0.3l4.1,0.4l4.8,0.5l3.7,0.4l4.7,0.5l3.2-0.4l4.3-0.6l0.7,0.4l1.3,1.8l1.4,2l1.6,2.3l0.2,0.2l2.8,0.1
			l0.6-0.1l0.6-0.2l2.4-1.4l2.2-1.3l0.6-0.8l1.3-3.6l0.9-2.5l0.3-0.6l1.9-2.4l2.9-3.6l3.1-3.8l1.8-2.2l1.5-1.9l0.4-0.3l2.5-1.3
			l3.3-1.7l3.7-1.9l3.3-1.7l2.8-1.4l0.9-0.4l1.8-0.7l2.5-0.4l3.1-0.4l3.1-0.4l3.1-0.4l3.1-0.4l3.1-0.4l3.1-0.4l3.1-0.4l3.1-0.4
			l3.1-0.4l3.1-0.4l3.1-0.4l3.1-0.4l3.1-0.4l3.1-0.4l3.1-0.4l3.1-0.4l3.1-0.4l5.5-1.9l3.3-1.2l3.3-1.2l3.3-1.2l3.3-1.2l3.3-1.2
			l3.3-1.2l3.3-1.2l3.3-1.2l3.3-1.2l3.3-1.2l3.3-1.2l3.3-1.2l3.3-1.2l3.3-1.2l3.3-1.2l2.9-1l0.6-2l0.1-0.4l0.4-1.2l0.6-1.8l0.7-2.3
			l0.9-2.7l1-3.1l1-3.3l2.1-6.8l1-3.3l1-3.1l0.9-2.8l0.7-2.3l0.6-1.8l0.4-1.2l0.1-0.4l0.8-2.7l0-0.5L637.3,352.1z M491.9,245.1
			c0.1,0,0.2,0,0.4,0.1c1.5,0.7,2.4,5,2.2,6.1c-0.3,2.2-1.1,4.6-1.7,4.2c-0.6-0.3,0.1-3.3-0.2-4.2c-0.3-1.3-2.4-3.7-2.2-4.4
			C490.1,245.7,491,245.1,491.9,245.1z M466,257.3c0.6-0.4,1.6-0.9,2.3-0.4c0,0,0.7,1.1,0.6,1.2c0.9,0.4,1.3,0.2,1.4-0.2
			c0.1-0.7-0.3-1.1-0.3-1.8c0.2-1.2,1.2-1.8,2.1-1.8c0.5,0,1.1,0.3,1.4,0.8c0.6,0.8,0.8,2.4,0.9,3.5c0,0.6-0.9-0.1-1.4,0
			c-0.5,0.1-0.6,0.7-0.7,1.3c-0.1,1.4-0.3,3.7-0.3,5.5c-1.7,0-5.3-3.3-6.3-5.2C465.4,259,465.6,257.9,466,257.3z M475.5,277.9
			c-0.3-1.3-1.6-3.7-1.4-4.4c-0.3-1.2,0.4-1.9,1.2-2v0c0.2,0,0.4,0,0.5,0c1.5,0.7,2.1,5.2,1.9,6.4c0.1,2.3-1.5,4.2-2,3.9
			C475.1,281.4,475.7,278.8,475.5,277.9z M477,268.4c0.2,0.7-8.4,6.5-9,6.3c-0.4,0.3-0.8-2.3,0-3.1c0.2-0.2,8.8-6.3,8.8-6.3
			c0.1,0,0.1,0,0.2,0h0C477.6,265.4,477.4,268.4,477,268.4z M469.3,281.2c0.9-0.9,1.8-1.2,3.1,0c0,0,2.6,4,3.2,4.3
			c0.9,0.8,2.2,0.1,2.2,0.1c0.9-0.4,1.8-4.3,1.9-7.3c-0.5-7-0.7-13.3-1.2-20.3c-2.6-3.4-5.1-6.7-7.6-9.7c-0.7-0.8-1.5-2.3-1.5-3.1
			c-0.1-1.4,0-3.3,0.1-4.9c0.3-1.9,0.8-0.8,1.7-0.2c1.8,1.4,2.4,2.1,4.4,4.3c2.4,3-3-0.3,0.7,3.7c0.1,0.1,0.3,0.3,0.5,0.6
			c0-0.3-0.1-0.5-0.1-0.8c-0.1-1.9-0.5-3.9-0.6-5.8c0-1.1,0.6-1.9,1.1-2.4c0.3-0.4,0.5-0.5,0.8-0.5c0.2,0,0.4,0.2,0.6,0.4
			c1.5,2.7,2.9,5.4,4.4,8.1c0.3,0.7-0.1,1.5-0.6,1.5c-0.3-0.1-0.4-0.2-0.8-0.5c-0.4-0.1-0.3,0.1-0.3,0.5c0.2,1,0.4,5.4,0.4,5.5
			c0,0,0.2,0.9,0.2,1.1c1.6,2.4,3.3,4.8,4.7,6.9c-0.7-5.5-1.7-11.1-2.7-16.6c-0.4-2.1-0.8-4.4,0.3-5.4c1.1-1.5,2.1-1.8,2.6-0.9
			c1.4,2.1,4.2,9.3,3.6,9.9c-0.4,0.7-1.3,0.1-1.5,0.7c-0.1,0.3,0.3,3.1,0.5,4c0.5,2.3,0.9,5.1,1.3,7.1c0.2,1.2,0.7,5.2,1.1,8.6
			c1.9,2.7,4.4,6.2,6.3,9.4c0.7,0.9,1.1,7.3,0,7.9c-1.8-3.3-3.8-6.5-5.8-9.7c0,1.6,0,3.3,0,5.2c0,2.2-4.1,6.7-4,5.6
			c0.2-5.8-0.1-11.8-0.6-17.8c-1.3-1.9-2.6-3.9-3.9-5.7c0.2,6.9,0.6,19.4-0.3,21.8c-0.8,2-1.7,3.1-3.2,3.9c-2.1,1.4-4.2,1.1-5.9-0.4
			c-1.1-0.6-2-1.3-2.7-2.3c-0.8-0.8-2.3-1.1-2.9,0.7c-0.9,1-0.9,6-2.8,8c-0.8,1-2.3,1.8-4.1,0.4c-2.1-1-2.9-2.4-4-4.5
			c-0.7-1.3-2.1-7.3,1.1-10.9c0-0.1,0-0.1,0-0.2c0-0.1,0-0.1,0,0c-0.2,0.8-1,6.3,1.9,10.3c1.4,1.4,2.7,0.8,3.2,0.1
			C465.5,288.4,466.7,283.7,469.3,281.2z M456.6,240.4c0.4-0.6,0.7-0.8,0.8-0.8l0,0c0.3,0,0.3,0.5,0.6,1.1c0.8,2.2,3.5,5.8,4.6,8.2
			c0.3,2-2.8-1-2.2,2.4c0.5,1.8,3.1,20.9,3.2,23.3c0.1,2.4,0.7,4.8,0.3,8.8c-0.6,2.9-2.1,5.9-3.4,5.9c0.4-13.5-2.3-26.3-5-40.5
			C455.2,246.7,455.5,243.8,456.6,240.4z M449.7,240.9c0.3-0.7,0.6-1,0.8-1v0c0.2,0,0.4,0.4,0.7,0.9c1.3,2.1,3.7,7.6,3.1,8.2
			c-0.4,0.7-1.3,0.4-1.5,0.7c-0.2,0.3-0.2,1.3-0.1,2.2c1.9,9.2,2.8,19,2.5,31.7c0,2.2-1.5,4.9-2.3,6.2c-3.1,5.6-6.4,7.7-10.2,8.1
			c-2.3,0-4-2.4-3.5-3c4.7-1.8,8.9-5.6,11.9-8.7c0.8-0.7,1-2.5,0.9-3.7c-1.2-12.5-1.7-23.4-3.5-35.8
			C448.3,244.7,448.8,242.3,449.7,240.9z M442.8,240.3c0.1,0,0.3,0,0.4,0c1.7,0.7,2.8,4,2.4,5.7c-0.3,2-1.2,4.2-1.8,3.9
			c-0.7-0.3,0.5-2-0.2-3.9c-0.4-1.2-2.6-3.4-2.4-4C440.8,240.9,441.9,240.3,442.8,240.3z M442.1,253.4c0.2,0,0.3,0.1,0.4,0.2
			c0.1,0.1,0.1,0.5,0.1,0.7c0,0.2,0.1,0.3,0.3,0.4c0.2,0.1,0.2,0.1,0.4,0.1c0.2,0,0.3-0.1,0.4-0.4c0-0.2,0.1-0.5,0.1-0.7
			c0.1-0.2,0.1-0.3,0.4-0.3c0.2,0,0.3,0,0.4,0.1c0.1,0.2,0.3,0.5,0.3,0.7c0,0.8,0.6,0.9,0.7,0.8c0.3-0.1,0.1-0.6,0.1-0.9
			c0.1-0.5,0.4-0.7,0.8-0.8c0.3-0.1,0.7,0.1,0.9,0.5c0,0.2,0.1,1.1,0.1,1.4c0.1,3-3.3,3.4-5.2,2.5c-1.4-0.6-1.3-2.6-1.2-2.7
			C441.1,254.5,441.1,253.4,442.1,253.4z M424.1,239.7c0.1-0.7,0.5-1,1-1l0,0c0.8-0.1,1.8,0.5,2.3,0.9c1.7,1.4,1.8,1.5,3.9,3.3
			c0.6,0.7,0.9,1.2,1.2,1.7c-0.2-1.3-0.2-2.6,0.5-4.2c1.2-1.6,1.2-1.4,1.9-0.3c2.4,3.3,4.4,5.8,5,9.5c0.3,2.1-1.7-1.9-1.2,1.7
			c0.2,0.9,0.5,3.8,0.8,7.3c1.6,2.4,3,4.5,3.4,5.3c1.1,2.1,4.6,7.5,7.2,13c0.7,0.9,0.9,7.4-0.2,8c-3.2-6.4-6.4-12.1-9.8-17.6
			c0.1,1.3,0.1,2.6,0.2,3.6c0,2.5,0.7,11.3,0.2,15.6c-0.7,3.1-2.8,5.2-4.1,5.2c0.4-7.2,0.3-15.7-0.2-22.6c-0.2-3.1-0.5-6.3-1-9.5
			c-2.9-4.3-5.8-8.5-8.9-12.6c-0.6-0.9-2-2.4-2.2-3.3C424,242.2,423.9,241.3,424.1,239.7z M405.9,239.9c0.4-1,0.9-1.6,1.4-1.6
			c0.5,0,0.9,0.4,1,1.3c-0.1,1.2-0.1,2.4-1.1,5.3c-0.7,1.6-2.3,1-2-0.2C405.1,244.8,405.5,240.7,405.9,239.9z M393.5,242.4
			c0-1.9,1.7-3.6,2.5-4.2c0.4-0.2,0.6-0.3,0.8-0.3v0c0.4,0,0.4,0.5,0.4,1.1c-0.9,1.2-1.9,1.8-1.6,3.1c0.2,1.4,1.8-0.4,1.5,0.8
			c-0.2,0.7-0.4,1-1,1.5c-1,0.5-1.6,0.6-2.1-0.1C393.3,243.5,393.5,243.5,393.5,242.4z M390.5,244.2c1.7-1.7,1.8,8.7,3.2,10
			c0.6,1,1.4,1.7,2.2-0.8c0.8-3.4,2.2-7.8,5-10.3c0.6-0.5,1.9-1.1,2.8,0.6c0.6,1.1,0.4,6.1,0.3,9.2c0.4,1.9,1.1,2.2,2,2.8
			c1,0.5,2.2,0.8,3.4-0.5c0.8-1,1-1.3,1.6-2.3c0.4-3.4,0-6.4-0.9-8.3c-1.1-2.9,0.4-4.4,0.8-5.3c0.5-0.9,0.9-1.3,1.1-1.3
			c0.5-0.1,0.8,0.8,1.1,1.7c1.5,2.3,0.9,7.3,1.4,10.9c0.6,4.7,1.8,5,2.6,5.2c1.8,0.2,2.8-1.4,2.8-1.4c0.6-3.4-1.2-5.8-2.1-7.6
			c-1.1-1.4-1.1-2.7-0.9-3.8c0.2-0.9,0-1.9,1-2.8c1.4-1.1,2.8-1,3.8,0.1c1.2,1.3,2.9,3.9,2.3,4.8c-0.2,0.9-1.3,0.6-1.8,0.5
			c-1,0.1,0.1,2.4,0.1,2.5c0.6,1.5,0.6,3.6,1.5,5.2c0.8,1.3,2.5,0.7,3.3,0.6c0.7-0.4,0.7-0.5,1.4-1c0.5-0.3,1.3-0.4,1.2,1
			c0,0-1.3,3.8-3,4.6c-0.5,0.1-0.7,0.5-1.5-0.1c-0.5-0.9,0.2-1.4,0.3-2c0-0.3-1.2-0.7-1.9,0.2c-0.5,0.6-0.7,1.2-1.7,2.9
			c-0.7,1.3-3.9,1.7-5.3,1.1c-1.7-0.9-1.6-2.2-2.5-2.9c-0.8-0.5-1.6-0.5-2.2,0.1c0,0-2.4,2.4-2.7,2.7c-0.2,0.2-3.1,2.5-6.5-0.1
			c-1.5-1.8-2-3.1-2-9.1c-0.3-0.6-0.8-0.5-1.4,0.8c-0.9,4.5-2.2,8.6-4.4,7.7C392.1,260.5,387.8,252,390.5,244.2z M410.6,262.8
			c0.2,0,0.4,0.1,0.5,0.2c0.1,0.1,0.1,0.5,0.1,0.7c0,0.2,0.2,0.3,0.3,0.4c0.2,0.1,0.1,0.1,0.4,0.1c0.2,0,0.3-0.1,0.4-0.4
			c0-0.2,0.1-0.5,0.1-0.7c0.1-0.2,0.1-0.3,0.4-0.3c0.2,0,0.3,0,0.4,0.1c0.1,0.2,0.3,0.5,0.3,0.7c0,0.8,0.6,0.9,0.7,0.8
			c0.3-0.1,0.1-0.6,0.1-0.9c0.1-0.5,0.4-0.7,0.8-0.8c0.3-0.1,0.7,0.1,0.9,0.5c0,0.2,0.1,1.1,0.1,1.4c1.1,2.8-3.3,3.4-5.2,2.5
			c-1.4-0.6-1.3-2.6-1.2-2.7C409.6,264,409.6,262.8,410.6,262.8z M393.6,276.4c0.6-0.9,0.2-3,0.2-3.2c0,0,0,0,0,0
			c-1.2-3.1-2.9-3.4-3.6-5c-0.6-2.1-0.3-4.5,0.9-5.1c1.1-1,2.3-0.8,3.5,0.2c1.3,1.2,2.5,3.5,2.8,5.2c-0.2,0.7-1.6-0.4-2.2-0.1
			c0,0,0,0,0,0c0.9,0.9,1.3,2.1,1.7,3.4c0.8,3.6,0.6,5-0.3,7.3c-2.9,6.1-6.6,7.9-9.8,10.2c0,0,0,0,0,0c0,0,0,0,0,0
			c-0.1,0.2,0,1.6,1.1,2.3c0,0,0,0,0,0c0.5,0.4,2.1,0.6,4.1,0c3.8-2.1,7.8-5.9,9.8-10.2c0.6-3.2-0.2-6.7-1.1-9.7
			c-1.3-2.9-2.7-7-2.8-7.2c0-1.8,0.1-2.5,0.9-3.4c0.5-0.3,0.7-0.6,0.9-0.8c0,0,0,0,0,0c0,0,0,0,0.1,0l0,0c0,0,0,0,0,0c0,0,0,0,0,0
			c0,0,0,0,0,0c0,0,0,0,0,0c0,0,0,0,0,0c0.2,0,0.6,0.4,1.4,1.2c2.3,4,3.8,9.1,4,13.7c-0.1,0.9,0.4,1.5,0.8,1.6c0,0,0,0,0.1,0
			c0,0,0,0,0,0c0,0,0,0,0,0c0,0,0,0,0,0c0,0,0,0,0,0c0,0,0,0,0,0c0,0,0,0,0,0c0,0,0,0,0,0c0,0,0,0,0,0c0,0,0,0,0,0
			c0.2-2.6,6.6-6.3,12.5-6.9c0.9-0.2,0.5-1.9,0.6-2.8c-0.4-3.3,1.8-6.2,4.9-6.5c4.2,0.6,5.6,2.8,5.6,6.2c-0.5,6.5-7.2,7.6-11.1,8.2
			c-0.2,0.1-0.4,0.2-0.5,0.3c0,0,0,0,0,0c0,0,0,0,0,0c0,0,0,0,0,0c0,0,0,0,0,0c0,0,0,0,0,0c0,0,0,0,0,0c0,0,0,0,0,0c0,0,0,0,0,0
			s0,0,0,0c0,0,0,0,0,0c0,0,0,0,0,0c0,0,0,0,0,0c0,0,0,0,0,0c0,0,0,0,0,0c0,0,0,0,0,0c0,0,0,0,0,0c0,0,0,0,0,0
			c0.1,0.1,0.2,0.1,0.4,0.2l16,0.1l0.8,0.5c0,0.1,0,0.1,0,0.1c0,0,0,0,0,0c0,0,0,0,0,0c0,0,0,0,0,0c0,0,0,0,0,0
			c-0.1,0.1-0.4,0.2-0.8,0.9c-0.6,1-1.6,3.4-1.6,5c-4.8,1.5-9.7,2.2-14.7,2.8c-1.7,0.9-2.6,2.1-2.3,3.4c0.6,1.4,4.2,2.8,4.5,3
			c0.7,0.5,1.6,1.5-0.2,3.7c-7.8-0.3-13.9-3.7-16-8.4c-0.6-0.5-1.3,0-1.8,0.6c-3.1,3.9-6,7.5-11.2,9.4c-3.1,0.8-6.3-0.5-7.8-2.5
			c-1-1.1-1-2.3-1.3-2.7c0,0,0,0,0,0c-1.7,0.7-16.1,6.9-14.3,4c3.5-3.8,9.6-6.5,15-10.2c0.4-1.2,1.1-5.4,3.2-6.8c0,0,0,0,0,0
			c0,0,0,0,0,0c0,0,0,0,0,0c0,0,0,0,0,0c0,0.4-0.4,2.5-0.3,3.5c0,0.5,0,0.8,0,1c0,0,0,0,0,0c0,0,0,0,0,0c0,0,0,0,0,0c0,0,0,0,0,0
			c0,0,0,0,0,0c0,0,0,0,0,0c0,0,0,0,0,0c0,0,0,0,0,0c0,0,0,0,0,0C386.7,283,393.1,278,393.6,276.4z M426.1,291.6
			c-0.6,0.3-1.1,0.5-1.3-0.1c-0.1-0.5-0.2-0.7,0.2-1c0.6-0.9,2.4-2.1,2.5-2.1c0.2-0.1,0.4-0.1,0.6-0.1c0.6,0,1,0.4,1,0.4
			c0.1,0.8-0.5,1.6-0.3,2.8c0.2,0.5,0.3,1,1.2,0.8c1.4-1.1,2.6-1.1,4-1.2c1,0.1,1.1,1.8,0.4,1.8c-2.5,0.5-3.6,1.2-5.4,1.9
			c-0.8,0.5-1.6-0.1-1.6-0.2c0-0.1-0.5-0.5-0.2-1.6C427.2,292,426.9,291.5,426.1,291.6z M380.7,280.4c-0.1-1.6-2.1-2.5-2.1-3.2
			c-0.3-1,0.3-1.4,1-1.4c0.2,0,0.5,0,0.7,0.1c1.4,0.5,2.3,3.6,2.1,4.5c-0.3,1.6-1,3.3-1.6,3.1C380.3,283.2,381,281.1,380.7,280.4z
			 M374.9,254.9C374.9,254.9,374.9,254.9,374.9,254.9C374.9,254.9,374.9,254.9,374.9,254.9c0.4-0.9,7.3-5.6,9.9-8.5
			c0.6-0.5-0.3-1.5-1.2-1.9c-1-1.2-0.7-3,0.5-4.2c0.5-0.2,1-0.4,1.7-0.5v0c0.6,0,1.3,0.1,2.1,0.4c0.9,1,1.5,3.2-0.3,4.3
			c-0.4,0.3-0.4,0.7,0,1c0.4,0.3,0.7,0.5,1.1,0.9c0,0-7,8-8.5,8.6c0,0,0,0,0,0c0,0,0,0,0,0c0,0,0,0,0,0
			C379.6,255.2,375.3,255.2,374.9,254.9C375,255,374.9,255,374.9,254.9C374.9,255,374.9,255,374.9,254.9
			C374.9,255,374.9,255,374.9,254.9C374.9,255,374.9,255,374.9,254.9C374.9,255,374.9,255,374.9,254.9
			C374.9,255,374.9,254.9,374.9,254.9C374.9,254.9,374.9,254.9,374.9,254.9z M384.8,257.2c0.2,0.4,0.3,0.7,1.1,0.6
			c1.9-1.7,1.8-0.8,1.8-0.8s-1,3.2-2.5,3c-0.2,0-1.7,0.5-2.6-0.9c-1-1.5-0.4-4.1,1.2-5c0.3-0.2,0.6-0.3,0.9-0.3
			c0.4,0,0.6,0.4,0.4,0.9C384.7,255.5,384.6,256.4,384.8,257.2z M356.6,239.9c0.2,0,0.3,0.1,0.4,0.3c0.1,0.1,0.1,0.5,0.1,0.7
			c0,0.2,0.1,0.3,0.3,0.4c0.2,0.1,0.1,0.1,0.4,0.1c0.2,0,0.3-0.1,0.4-0.4c0-0.3,0.1-0.5,0.1-0.7c0.1-0.2,0.1-0.3,0.4-0.3
			c0.2,0,0.3,0,0.4,0.1c0.1,0.2,0.3,0.4,0.3,0.7c0,0.8,0.6,0.9,0.7,0.8c0.3-0.1,0.1-0.6,0.1-0.9c0.1-0.5,0.4-0.7,0.8-0.8l0,0
			c0.3-0.1,0.7,0.1,0.9,0.5c0,0.2,0.1,1.1,0.1,1.4c0.1,3-3.3,3.3-5.2,2.5c-1.4-0.6-1.3-2.6-1.3-2.7
			C355.5,241.1,355.6,239.9,356.6,239.9z M341.5,239.3L341.5,239.3c0.1,0,0.2,0,0.3,0c2.1,0.6,2.2,3.8,2.1,4.7
			c-0.3,1.7-1,3.5-1.6,3.2c-0.6-0.2,0-2.5-0.3-3.2c-0.3-1-2.1-2.8-1.9-3.3C339.8,239.8,340.7,239.3,341.5,239.3z M336.6,248.5
			c1.4-1.6,1.9,5.1,2.7,7.9c0.9,3.7,2.3,2.3,2.6,0.3c0.2-1.8,0.7-3.8,0.7-3.8c0.6-3.9,2.8-6.3,3.6-6.2c1.1-0.2,1.6,0.1,2,1.2
			c0.6,1.1,0.7,5.6,0.1,8.5c-0.1,2.2,2.6,4.7,2.4,0.3c-0.4-3.3-0.7-6.2-1.6-9.4c-0.2-1.8-0.2-3.8-0.1-5.8c0.2-0.6,0.7-1,1.2-1.1v0
			c0.4,0,0.8,0.1,1.2,0.6c1.3,1.1,1.6,5.4,1.8,7.4c0,1.6,0.2,5.2,0.9,7.6c0.5,1.2,1.3,1.4,1.7,0.4c0.4,0-0.5-1.1-1.1-2.9
			c-0.8-2-1.4-6.3-0.2-8.3c0.4-0.7,1.3-0.7,2,0c0.7,1.2,1.5,1.7,1.8,3.4c0.4,1.2,0.9,1.8,0.2,6.3c0,0.4,2.6,2.4,2.6,2.4
			c0.8,0.9,1.8,1.1,2.7,0.5c0.2-1.4-0.3-3-0.7-3.9c-1.8-2.4-3-5.4-2.7-7.9c0.6-2.2,2.4-2.4,3.5-1.3c1.4,0.8,2.3,2.6,2.9,4.4
			c-0.2,0.9-1.1,0.9-1.7,0c-0.1,0.4,0.6,1.6,0.5,2c1.1,2.4,1.3,4.9,1.5,7.3c0,2.6-2.1,4.2-5.4,5.1c-2.2,0.5-2.8-0.7-4.2-1.7
			c-0.9-0.5-2.2-0.4-2.2,0.6c-0.7,1,0.5,5.4,0.3,10.6c-0.2,8.9-3.4,7.9-3.4,7.9c-0.2-4.7-0.5-9.4-0.7-14.1c-0.6-1.4-1.5-1.4-2.9-1.3
			c-1.4-0.5-3.1-1.3-3.1-4v-8.2c-0.1-1.1-0.7-1.1-1.1-0.2c-1.9,1.7,1,11.4-4.4,10.8C335.8,262.9,336.2,253.7,336.6,248.5z
			 M339.3,296.7c-0.9,0.3-2.2-0.1-3-1c-1.5-1.9-1.2-8.1,1.4-12.3c0.3-0.4,0.5-0.7,0.6-0.7v0c0.1,0,0.1,0.3,0,1.3
			c-0.3,1.8-0.5,4.1-0.3,6.6c0.1,1.3,0.6,2.9,1.8,0.6c0.6-0.7,1-0.6,1.5,0.3C341.7,292.7,340.9,296,339.3,296.7z M337.2,276.7
			c0.2-3.2,6.7-8.9,11.1-9c2.9,0.1,2.2,1.1,2.9,2.3C346.5,272.3,341.9,274.4,337.2,276.7z M344.1,288.7c0-2-0.1-2.5,0.2-4.6
			c0.2-2.6,1.2-4,2-3.5c0.3,0.3,0.6,0.9,0.8,2c0.1,1.9,0.3,5,1.1,6.4c3.1,6,21.7,4.7,22.2-14.3c-0.1-0.4-0.2-0.7-0.4-0.7
			c-0.4-0.1-0.9,0.4-1.1,1c-2.8,20.9-27.4,18.3-20.1-0.8c2.5-1.7,1.4,5.7,2.4,7.7c1.6,3.1,4.7,2.7,8.5,1c6.2-3.3,6.5-7.6,6.2-8.1
			c0,0,0,0,0,0c0,0,0,0,0,0c-0.5-0.3-1.6,1-2.9,1.5c-1.6,0.4-3.5,0.6-5-1.2c-0.5-1.6-0.4-3.6,0-5.4c0.3-2.3,2.8-4.7,5-4.7
			c3-0.1,3.5,2.3,5.2,3.5c1,0.1,1.8-1.1,1.6-2.1c-1.4-8.2-2.2-14.5-3.6-22.7c-0.3-1.9,0.7-2.9,1.9-3.3c0.3-0.1,0.6-0.2,0.9-0.3l0,0
			c0.1,0,0.2,0,0.3,0c0,0,0.1,0,0.1,0.1c0,0,0.1,0,0.1,0c0,0,0,0,0.1,0.1c0,0,0.1,0.1,0.2,0.2c0,0,0,0,0,0c1.1,0.5,3,6.2,3.9,9
			c-0.8,1-1.7,0.4-2.6,0.4c0.7,5.4,1.4,10.5,2.1,15.8c2.2-1.3,3.3-0.9,3,1.8c0.2,1.2,1.9,1,2.9,0.2c1.4-4,3.8-3.7,4.4-1.1
			c0,0.6,0.8,0.8,1.2,0.5c0.1-0.1,0.2-0.1,0.2-0.2c0,0,0-0.1,0.1-0.2c0.1-0.7,0.2-1.4,0.3-2c0-0.1,0.1-0.2,0.2-0.3
			c0.4-0.4,1.4-0.7,2.6-1.1c-0.1,2.4-0.4,4.8-0.8,7.1c-0.7,2.3-3.9,3-5.8,1.6c-0.5-0.6-1.3-0.3-1.6,0.2c-0.7,0.9-4,3.1-6.4,0.6
			c0,0-0.1,0-0.1,0c0,0,0,0,0,0c0,0,0,0,0,0c0,0,0,0,0,0c-0.6,0.6,1.3,5.4-0.6,11.8C368.9,297.2,345,303.7,344.1,288.7z
			 M478.5,355.2c-1.2,0.1-1.8-0.7-2.4-1.6c0,0,0,0,0,0c-0.9,0.3-10.8,0.2-12.6,0c-0.4,0.6-0.8,1.4-1.9,1.1c0,0,0,0,0,0
			c0,0-0.1,0-0.1,0c0,0-0.1,0-0.1,0c-0.9-0.6-2.2-3.9-1-6c-16.4,0-74.2,0.2-86.6,0.2c-6.6-0.1-11.7-1.1-15.2-6.3
			c0.3,0,16.7,0.6,21.8,0.6c9.2,0,52.3,0.5,80.3,0.5c-1.7-1.2-1.8-4,0.9-4.7c0,0,0,0,0,0h0l0,0c0,0,0,0,0,0c0,0,0,0,0,0c0,0,0,0,0,0
			c0,0,0,0,0,0c0,0,0,0,0,0c0,0,0,0,0,0c0.1,0.2,0.2,0.9,0.4,1.2c0,0,0,0,0,0c0,0,0,0.1,0.1,0.1c0,0,0,0,0,0c0,0,0,0,0,0
			c0,0,0,0,0,0c0,0,0,0,0,0c0.4,0,0.7,0.1,1,0.2c0.8,0.7,0.1,2.6-0.2,3.1c4,0.1,6.6,0.2,10.2,0.6c0,0,3.1-0.3,4.2-0.5
			c4.7-0.4,4.9,6.6,4.9,6.6C482.2,354.6,480.6,354.8,478.5,355.2z M483.5,297.3c-0.9-0.2-0.7-1-0.4-1.5c0.6-0.5,1-0.9,1.6-1.4
			c0.6-0.8,0.4-1.2,0-1.7c-0.6-0.4-1.2-0.3-1.3-1.4c0.1-0.7,0.3-0.9,0.8-1c0.5,0,0.9-0.1,1.2-0.1v0c0.3,0,0.6,0,1.1,0.1
			c0.9,0.3,1.1,0.7,0.9,1.2c-0.2,0.6-0.3,0.8-0.7,1.3c-0.4,0.7,0.4,0.9,0.7,0.9c0.5,0.1,1.3-0.2,1.7,0.2c0,0,0.2,0.9-0.4,1.3
			C488.8,295.4,485.1,297.8,483.5,297.3z M502.7,286c0,2.2-1,5.7-1.8,7c-3.1,4.6-7.5,5-11.3,5.4c-2.2-0.1-2.2-1.9,0.5-3.4
			c0.9-0.7,3.5-1.6,4.7-2.5c1.2-0.9,2.5-2.8,3.7-4.3c0.5-1.4,0.6-2,0.8-3.2c-0.3-12-1.8-25.1-3.8-38.6c-0.3-2.2,0-4.6,0.8-6
			c0.3-0.7,0.6-1,0.8-1.1c0,0,0,0,0,0h0c0,0,0,0,0,0c0.2,0,0.4,0.4,0.7,0.9c1.3,2.1,5.2,7,4.5,7.7c-0.4,0.7-1.7,0-1.9,0.7
			c-0.2,0.3,0.2,2.3,0.4,3.2C502.5,261,503,273.4,502.7,286z"/>
		<path fill="#006C35" d="M463.4,349.1C463.4,349.1,463.4,349.1,463.4,349.1c-0.6,0.3-0.7,1.5-0.2,2.1c1.8,0.1,3.4,0.3,5.2,0.1
			c0,0,0-0.1,0-0.1c0,0,0-0.1,0-0.1c0,0,0-0.1,0-0.1c0,0,0,0,0-0.1c0,0,0,0,0,0c0.5-0.7,2.8-0.8,3.1,0.1c0,0.1,0,0.1,0,0.2
			c1.3,0,2.1,0.1,3.4,0.1c0,0,0,0,0.1,0c0,0,0,0,0.1,0c0,0,0.1,0,0.1,0c0.4-0.2,0.7-1.5,0.1-2C471.4,349.1,467.5,349.3,463.4,349.1z
			"/>
		<path fill="#006C35" d="M411,288c0.4,0.2,1,0.6,1.4,0.6c0,0,0.1,0,0.1,0c0,0,0.1,0,0.1,0c0,0,0,0,0,0l0,0c0,0,0,0,0,0c0,0,0,0,0,0
			c0,0,0,0,0,0c0,0,0,0,0.1-0.1c0.2-0.3,0.2-0.9,0-2.2c0-2.5,1.7-2.9,3.4-3.5c1.7-0.6,0.8-2.1-1-2.2c-2.3-0.2-4.9-0.3-6.7-0.8
			c0,0,0,0,0,0c-0.1,0-0.1,0-0.2,0l0,0c-1.1,0.1-1.7,0.8-1.7,1.7C407,285.4,410,287.2,411,288z"/>
		<path fill="#006C35" d="M423.5,268c0.7,0.4,1.4,0.4,1.7,0.1c0,0,0.1-0.1,0.1-0.1c0,0,0,0,0,0c0,0,0,0,0,0c0,0,0,0,0,0c0,0,0,0,0,0
			c0,0,0,0,0,0c0.1-0.4-0.3-1-1-1.3c-0.4-0.3-0.9-0.4-1.2-0.3c-0.2,0-0.3,0.1-0.4,0.2c0,0-0.1,0-0.1,0.1c0,0,0,0,0,0c0,0,0,0,0,0.1
			c0,0,0,0.1-0.1,0.1c0,0,0,0,0,0C422.5,267,422.9,267.6,423.5,268z"/>
		<path fill="#FFFFFF" d="M372.8,284.9c1.9-6.4,0-11.2,0.6-11.8c0,0,0,0,0,0c0,0,0,0,0,0c0,0,0,0,0,0c0,0,0.1,0,0.1,0
			c2.4,2.5,5.7,0.3,6.4-0.6c0.3-0.4,1.1-0.7,1.6-0.2c1.8,1.3,5.1,0.7,5.8-1.6c0.4-2.3,0.7-4.6,0.8-7.1c-1.2,0.4-2.2,0.7-2.6,1.1
			c-0.1,0.1-0.2,0.2-0.2,0.3c-0.1,0.7-0.2,1.4-0.3,2c0,0.1,0,0.1-0.1,0.2c-0.1,0.1-0.1,0.2-0.2,0.2c-0.4,0.2-1.2,0.1-1.2-0.5
			c-0.6-2.6-2.9-2.9-4.4,1.1c-1,0.8-2.7,0.9-2.9-0.2c0.2-2.7-0.9-3.1-3-1.8c-0.7-5.4-1.4-10.5-2.1-15.8c0.9,0,1.7,0.6,2.6-0.4
			c-0.9-2.8-2.8-8.5-3.9-9c0,0,0,0,0,0c0-0.1-0.1-0.1-0.2-0.2c0,0-0.1,0-0.1-0.1c0,0-0.1,0-0.1,0c0,0-0.1,0-0.1-0.1
			c-0.1,0-0.2,0-0.3,0l0,0c-0.3,0-0.6,0.2-0.9,0.3c-1.1,0.4-2.2,1.4-1.9,3.3c1.4,8.2,2.2,14.5,3.6,22.7c0.2,1-0.6,2.2-1.6,2.1
			c-1.8-1.2-2.2-3.6-5.2-3.5c-2.2,0-4.7,2.4-5,4.7c-0.4,1.8-0.5,3.8,0,5.4c1.5,1.8,3.4,1.6,5,1.2c1.3-0.5,2.4-1.9,2.9-1.5
			c0,0,0,0,0,0c0,0,0,0,0,0c0.3,0.5,0,4.8-6.2,8.1c-3.8,1.7-6.9,2.1-8.5-1c-1-2,0.1-9.4-2.4-7.7c-7.4,19,17.3,21.7,20.1,0.8
			c0.2-0.6,0.7-1.2,1.1-1c0.2,0.1,0.3,0.3,0.4,0.7c-0.6,18.9-19.1,20.2-22.2,14.3c-0.8-1.4-1-4.5-1.1-6.4c-0.1-1.1-0.4-1.8-0.8-2
			c-0.8-0.6-1.8,0.9-2,3.5c-0.3,2.1-0.2,2.6-0.2,4.6C345,303.7,368.9,297.2,372.8,284.9z M363.5,271.9
			C363.5,271.9,363.5,271.9,363.5,271.9C363.5,272,363.5,272,363.5,271.9c-0.2,0.3-0.9,0.2-1.3,0.2c-0.6,0-0.8-0.1-1.2-0.6
			c-0.2-0.5,0.3-1,0.5-1.4c0,0,0,0,0,0c0,0,0.1-0.1,0.1-0.1c0.2-0.2,0.5-0.3,0.8-0.3c0.1,0,0.1,0,0.2,0c0.4,0,0.9,0.2,1.1,0.8
			C364,271.1,363.8,271.6,363.5,271.9z"/>
		<polygon fill="#FFFFFF" points="461.5,338.9 461.5,338.9 461.5,338.9 		"/>
		<path fill="#FFFFFF" d="M386.2,283.4C386.2,283.4,386.2,283.4,386.2,283.4C386.2,283.4,386.2,283.4,386.2,283.4
			C386.2,283.4,386.2,283.4,386.2,283.4C386.2,283.4,386.2,283.4,386.2,283.4C386.2,283.4,386.1,283.4,386.2,283.4
			C386.1,283.4,386.1,283.4,386.2,283.4C386.1,283.4,386.1,283.4,386.2,283.4C386.1,283.4,386.1,283.4,386.2,283.4
			c-0.1-0.1-0.1-0.5-0.1-1c0-0.9,0.4-3.1,0.3-3.5c0,0,0,0,0,0c0,0,0,0,0,0c0,0,0,0,0,0c0,0,0,0,0,0c-2.1,1.4-2.8,5.6-3.2,6.8
			c-5.4,3.7-11.5,6.5-15,10.2c-1.8,2.9,12.6-3.3,14.3-4c0,0,0,0,0,0c0.3,0.4,0.3,1.6,1.3,2.7c1.5,2,4.7,3.3,7.8,2.5
			c5.2-1.9,8.2-5.4,11.2-9.4c0.4-0.6,1.1-1.1,1.8-0.6c2.1,4.7,8.1,8,16,8.4c1.8-2.2,0.9-3.3,0.2-3.7c-0.2-0.2-3.9-1.6-4.5-3
			c-0.4-1.3,0.5-2.5,2.3-3.4c5-0.6,9.9-1.3,14.7-2.8c0-1.6,1-4,1.6-5c0.4-0.7,0.7-0.8,0.8-0.9c0,0,0,0,0,0c0,0,0,0,0,0c0,0,0,0,0,0
			c0,0,0,0,0,0c0,0,0-0.1,0-0.1L435,276l-16-0.1c-0.2-0.1-0.3-0.2-0.4-0.2c0,0,0,0,0,0c0,0,0,0,0,0c0,0,0,0,0,0c0,0,0,0,0,0
			c0,0,0,0,0,0c0,0,0,0,0,0c0,0,0,0,0,0c0,0,0,0,0,0c0,0,0,0,0,0s0,0,0,0c0,0,0,0,0,0c0,0,0,0,0,0c0,0,0,0,0,0c0,0,0,0,0,0
			c0,0,0,0,0,0c0,0,0,0,0,0c0,0,0,0,0,0c0.1-0.1,0.3-0.2,0.5-0.3c3.8-0.5,10.6-1.6,11.1-8.2c-0.1-3.4-1.5-5.6-5.6-6.2
			c-3.1,0.2-5.3,3.2-4.9,6.5c-0.1,0.9,0.3,2.6-0.6,2.8c-5.9,0.5-12.3,4.2-12.5,6.9c0,0,0,0,0,0c0,0,0,0,0,0c0,0,0,0,0,0c0,0,0,0,0,0
			c0,0,0,0,0,0c0,0,0,0,0,0c0,0,0,0,0,0c0,0,0,0,0,0c0,0,0,0,0,0c0,0,0,0-0.1,0c-0.4-0.1-0.9-0.7-0.8-1.6c-0.2-4.6-1.7-9.7-4-13.7
			c-0.8-0.8-1.2-1.2-1.4-1.2c0,0,0,0,0,0c0,0,0,0,0,0c0,0,0,0,0,0c0,0,0,0,0,0c0,0,0,0,0,0l0,0c0,0,0,0-0.1,0c0,0,0,0,0,0
			c-0.2,0.1-0.4,0.4-0.9,0.8c-0.8,0.9-0.9,1.5-0.9,3.4c0,0.2,1.5,4.3,2.8,7.2c0.8,3,1.6,6.4,1.1,9.7c-2,4.3-5.9,8.1-9.8,10.2
			c-2,0.6-3.6,0.4-4.1,0c0,0,0,0,0,0c-1.1-0.8-1.1-2.1-1.1-2.3c0,0,0,0,0,0c0,0,0,0,0,0c3.2-2.3,6.9-4.1,9.8-10.2
			c0.9-2.3,1.1-3.7,0.3-7.3c-0.3-1.3-0.7-2.4-1.7-3.4c0,0,0,0,0,0c0.6-0.3,2,0.8,2.2,0.1c-0.3-1.7-1.5-4-2.8-5.2
			c-1.2-1-2.4-1.2-3.5-0.2c-1.2,0.7-1.4,3-0.9,5.1c0.6,1.6,2.4,1.8,3.6,5c0,0,0,0,0,0c0,0.2,0.4,2.3-0.2,3.2
			C393.1,278,386.7,283,386.2,283.4C386.2,283.4,386.2,283.4,386.2,283.4z M422.6,266.6c0,0,0-0.1,0.1-0.1c0,0,0,0,0-0.1
			c0,0,0,0,0,0c0,0,0-0.1,0.1-0.1c0.1-0.1,0.2-0.1,0.4-0.2c0.3,0,0.8,0.1,1.2,0.3c0.6,0.4,1,0.9,1,1.3c0,0,0,0,0,0c0,0,0,0,0,0
			c0,0,0,0,0,0c0,0,0,0,0,0c0,0,0,0,0,0c0,0-0.1,0.1-0.1,0.1c-0.3,0.3-1,0.2-1.7-0.1C422.9,267.6,422.5,267,422.6,266.6
			C422.5,266.6,422.6,266.6,422.6,266.6z M408.2,279.7L408.2,279.7c0.1,0,0.1,0,0.2,0c0,0,0,0,0,0c1.8,0.5,4.4,0.5,6.7,0.8
			c1.9,0.1,2.8,1.6,1,2.2c-1.7,0.6-3.4,1-3.4,3.5c0.2,1.2,0.2,1.9,0,2.2c0,0,0,0.1-0.1,0.1c0,0,0,0,0,0c0,0,0,0,0,0c0,0,0,0,0,0l0,0
			c0,0,0,0,0,0c0,0-0.1,0-0.1,0c0,0-0.1,0-0.1,0c-0.4,0.1-1-0.3-1.4-0.6c-1.1-0.8-4-2.6-4.5-6.6
			C406.5,280.5,407.2,279.7,408.2,279.7z"/>
		<path fill="#FFFFFF" d="M410.9,267.1c1.8,0.9,6.2,0.4,5.2-2.5c0-0.3-0.1-1.1-0.1-1.4c-0.2-0.4-0.5-0.6-0.9-0.5
			c-0.3,0.1-0.7,0.3-0.8,0.8c-0.1,0.3,0.1,0.8-0.1,0.9c-0.2,0.2-0.8,0.1-0.7-0.8c0-0.3-0.2-0.5-0.3-0.7c-0.1-0.1-0.2-0.1-0.4-0.1
			c-0.3,0-0.3,0.1-0.4,0.3c-0.1,0.2-0.1,0.4-0.1,0.7c0,0.3-0.1,0.4-0.4,0.4c-0.2,0-0.2,0-0.4-0.1c-0.1-0.1-0.3-0.2-0.3-0.4
			c0-0.2,0-0.6-0.1-0.7c-0.1-0.1-0.3-0.2-0.5-0.2c-1,0-1.1,1.1-1,1.6C409.5,264.5,409.5,266.6,410.9,267.1z"/>
		<path fill="#FFFFFF" d="M427.3,294.5c0,0.1,0.7,0.7,1.6,0.2c1.8-0.7,2.9-1.3,5.4-1.9c0.7,0,0.6-1.8-0.4-1.8
			c-1.4,0.1-2.6,0.1-4,1.2c-0.8,0.2-1-0.3-1.2-0.8c-0.2-1.1,0.5-1.9,0.3-2.8c0,0-0.4-0.4-1-0.4c-0.2,0-0.4,0-0.6,0.1
			c0,0-1.9,1.2-2.5,2.1c-0.4,0.3-0.3,0.5-0.2,1c0.3,0.6,0.8,0.4,1.3,0.1c0.7-0.1,1.1,0.4,1.1,1.3C426.8,294,427.3,294.4,427.3,294.5
			z"/>
		<path fill="#FFFFFF" d="M348.3,267.7c-4.4,0.1-10.9,5.8-11.1,9c4.7-2.2,9.3-4.4,14-6.7C350.5,268.8,351.2,267.8,348.3,267.7z"/>
		<path fill="#FFFFFF" d="M339.7,291.2c-1.2,2.4-1.6,0.7-1.8-0.6c-0.2-2.5,0.1-4.8,0.3-6.6c0.1-0.9,0.1-1.3,0-1.3v0
			c-0.1,0-0.3,0.3-0.6,0.7c-2.6,4.2-2.9,10.5-1.4,12.3c0.8,0.9,2,1.3,3,1c1.7-0.7,2.4-4.1,2-5.3
			C340.7,290.6,340.3,290.4,339.7,291.2z"/>
		<path fill="#FFFFFF" d="M380.8,283.4c0.5,0.2,1.3-1.5,1.6-3.1c0.2-0.9-0.7-4-2.1-4.5c-0.2,0-0.5-0.1-0.7-0.1c-0.7,0-1.3,0.4-1,1.4
			c0,0.7,2,1.6,2.1,3.2C381,281.1,380.3,283.2,380.8,283.4z"/>
		<path fill="#FFFFFF" d="M374.9,255C374.9,255,374.9,255,374.9,255C374.9,255,374.9,255,374.9,255C374.9,255,374.9,255,374.9,255
			C374.9,255,375,255,374.9,255c0.4,0.3,4.7,0.3,5.2,0c0,0,0,0,0,0c0,0,0,0,0,0c0,0,0,0,0,0c1.5-0.5,8.5-8.6,8.5-8.6
			c-0.4-0.3-0.7-0.5-1.1-0.9c-0.4-0.3-0.4-0.7,0-1c1.7-1,1.2-3.2,0.3-4.3c-0.8-0.3-1.5-0.5-2.1-0.4v0c-0.6,0-1.2,0.2-1.7,0.5
			c-1.2,1.2-1.5,3-0.5,4.2c0.9,0.4,1.9,1.4,1.2,1.9c-2.6,2.8-9.5,7.6-9.9,8.4C374.9,254.9,374.9,254.9,374.9,255
			C374.9,254.9,374.9,254.9,374.9,255C374.9,254.9,374.9,254.9,374.9,255C374.9,254.9,374.9,255,374.9,255
			C374.9,255,374.9,255,374.9,255z M385.3,242.4C385.4,242.4,385.4,242.4,385.3,242.4c0.5-0.1,1,0.3,1.3,0.9
			c0.3,0.6,0.1,1.2-0.3,1.3c-0.4,0.1-1-0.3-1.3-0.9C384.8,243.1,384.9,242.5,385.3,242.4z"/>
		<path fill="#FFFFFF" d="M384.7,253.9c-0.2,0-0.5,0.1-0.9,0.3c-1.6,0.9-2.3,3.5-1.2,5c0.9,1.3,2.4,0.9,2.6,0.9c1.6,0.2,2.5-3,2.5-3
			s0-0.9-1.8,0.8c-0.8,0.1-0.9-0.1-1.1-0.6c-0.2-0.8-0.1-1.7,0.3-2.5C385.2,254.2,385,253.9,384.7,253.9z"/>
		<path fill="#FFFFFF" d="M395.1,259.7c2.2,0.9,3.5-3.2,4.4-7.7c0.6-1.3,1.1-1.4,1.4-0.8c-0.1,6,0.4,7.3,2,9.1
			c3.4,2.6,6.2,0.3,6.5,0.1c0.2-0.2,2.7-2.7,2.7-2.7c0.6-0.6,1.4-0.7,2.2-0.1c0.8,0.7,0.7,2,2.5,2.9c1.5,0.6,4.6,0.1,5.3-1.1
			c1-1.7,1.2-2.3,1.7-2.9c0.7-0.9,1.9-0.5,1.9-0.2c-0.1,0.5-0.8,1-0.3,2c0.8,0.6,1,0.2,1.5,0.1c1.7-0.8,3-4.6,3-4.6
			c0.1-1.4-0.7-1.3-1.2-1c-0.7,0.4-0.7,0.5-1.4,1c-0.8,0.1-2.5,0.7-3.3-0.6c-0.8-1.5-0.8-3.6-1.5-5.2c0-0.1-1.1-2.4-0.1-2.5
			c0.5,0.1,1.6,0.4,1.8-0.5c0.5-0.9-1.2-3.5-2.3-4.8c-1-1.1-2.4-1.2-3.8-0.1c-0.9,0.9-0.8,1.8-1,2.8c-0.2,1.1-0.2,2.4,0.9,3.8
			c0.9,1.9,2.7,4.3,2.1,7.6c0,0-1,1.6-2.8,1.4c-0.7-0.2-1.9-0.5-2.6-5.2c-0.5-3.6,0.1-8.5-1.4-10.9c-0.3-0.9-0.6-1.7-1.1-1.7
			c-0.3,0-0.7,0.4-1.1,1.3c-0.4,0.9-1.9,2.4-0.8,5.3c0.9,1.9,1.3,4.9,0.9,8.3c-0.6,1-0.8,1.3-1.6,2.3c-1.2,1.2-2.4,0.9-3.4,0.5
			c-0.9-0.6-1.6-0.9-2-2.8c0.1-3.1,0.3-8.1-0.3-9.2c-0.8-1.7-2.2-1.1-2.8-0.6c-2.8,2.6-4.2,6.9-5,10.3c-0.8,2.5-1.6,1.8-2.2,0.8
			c-1.4-1.3-1.5-11.7-3.2-10C387.8,252,392.1,260.5,395.1,259.7z"/>
		<path fill="#FFFFFF" d="M489.2,294c-0.3-0.4-1.1-0.2-1.7-0.2c-0.3,0-1.1-0.1-0.7-0.9c0.3-0.5,0.4-0.7,0.7-1.3
			c0.2-0.5,0-0.9-0.9-1.2c-0.5-0.1-0.8-0.1-1.1-0.1v0c-0.3,0-0.7,0.1-1.2,0.1c-0.5,0.1-0.7,0.4-0.8,1c0,1,0.7,1,1.3,1.4
			c0.4,0.5,0.6,0.9,0,1.7c-0.6,0.5-1,0.9-1.6,1.4c-0.3,0.5-0.5,1.2,0.4,1.5c1.6,0.4,5.3-2,5.3-2C489.4,294.9,489.2,294,489.2,294z"
			/>
		<path fill="#FFFFFF" d="M477.4,343.8c-1.1,0.2-4.2,0.5-4.2,0.5c-3.6-0.4-6.2-0.5-10.2-0.6c0.4-0.5,1-2.4,0.2-3.1
			c-0.2-0.2-0.5-0.3-1-0.2c0,0,0,0,0,0c0,0,0,0,0,0c0,0,0,0,0,0c0,0,0,0,0,0c0,0-0.1,0-0.1-0.1c0,0,0,0,0,0c-0.2-0.3-0.3-1-0.4-1.2
			c0,0,0,0,0,0c0,0,0,0,0,0c0,0,0,0,0,0c0,0,0,0,0,0c0,0,0,0,0,0c0,0,0,0,0,0c-2.7,0.7-2.6,3.4-0.9,4.7c-28.1,0-71.1-0.5-80.3-0.5
			c-5.2,0-21.5-0.6-21.8-0.6c3.5,5.1,8.6,6.2,15.2,6.3c12.5,0,70.2-0.2,86.6-0.2c-1.2,2.1,0.1,5.4,1,6c0,0,0.1,0,0.1,0
			c0,0,0.1,0,0.1,0c0,0,0,0,0,0c1.1,0.3,1.6-0.5,1.9-1.1c1.8,0.2,11.7,0.3,12.6,0c0,0,0,0,0,0c0.6,0.9,1.2,1.8,2.4,1.6
			c2-0.4,3.7-0.7,3.7-4.8C482.2,350.4,482,343.3,477.4,343.8z M475.4,351.4C475.3,351.4,475.3,351.4,475.4,351.4c-0.1,0-0.1,0-0.1,0
			c0,0,0,0-0.1,0c-1.3,0-2.1-0.1-3.4-0.1c0-0.1,0-0.1,0-0.2c-0.3-0.9-2.6-0.9-3.1-0.1c0,0,0,0,0,0c0,0,0,0,0,0.1c0,0,0,0.1,0,0.1
			c0,0,0,0.1,0,0.1c0,0,0,0.1,0,0.1c-1.8,0.2-3.4-0.1-5.2-0.1c-0.5-0.7-0.5-1.8,0.2-2.1c0,0,0,0,0,0c4.1,0.2,7.9,0,12,0.2
			C476.1,349.9,475.8,351.1,475.4,351.4z"/>
		<path fill="#FFFFFF" d="M500.3,248.6c0.2-0.6,1.5,0.1,1.9-0.7c0.6-0.7-3.2-5.6-4.5-7.7c-0.3-0.5-0.4-1-0.7-0.9
			c-0.2,0-0.4,0.3-0.8,1.1c-0.8,1.4-1.1,3.8-0.8,6c2,13.5,3.5,26.6,3.8,38.6c-0.2,1.1-0.2,1.7-0.8,3.2c-1.2,1.5-2.5,3.4-3.7,4.3
			c-1.2,0.9-3.8,1.8-4.7,2.5c-2.7,1.6-2.7,3.4-0.5,3.4c3.8-0.4,8.2-0.7,11.3-5.4c0.8-1.3,1.8-4.8,1.8-7c0.3-12.7-0.2-25-2.1-34.2
			C500.5,251,500.1,248.9,500.3,248.6z"/>
		<polygon fill="#FFFFFF" points="497,239.4 497,239.4 497,239.4 		"/>
		<path fill="#FFFFFF" d="M396.1,244.3c0.6-0.4,0.8-0.7,1-1.5c0.3-1.2-1.3,0.6-1.5-0.8c-0.3-1.3,0.6-1.8,1.6-3.1
			c0-0.6,0-1.1-0.4-1.1v0c-0.2,0-0.4,0.1-0.8,0.3c-0.8,0.5-2.4,2.2-2.5,4.2c0,1.1-0.3,1.1,0.5,1.8
			C394.5,244.9,395,244.8,396.1,244.3z"/>
		<path fill="#FFFFFF" d="M475.7,281.7c0.6,0.3,2.1-1.6,2-3.9c0.2-1.2-0.4-5.6-1.9-6.4c-0.2,0-0.4-0.1-0.5,0v0
			c-0.8,0.1-1.5,0.8-1.2,2c-0.2,0.7,1.1,3.1,1.4,4.4C475.7,278.8,475.1,281.4,475.7,281.7z"/>
		<path fill="#FFFFFF" d="M458.7,281.3C458.8,281.1,458.8,281.1,458.7,281.3L458.7,281.3z"/>
		<path fill="#FFFFFF" d="M472.1,265.3c0-1.7,0.2-4,0.3-5.5c0-0.5,0.2-1.1,0.7-1.3c0.5-0.1,1.4,0.5,1.4,0c-0.1-1.1-0.3-2.7-0.9-3.5
			c-0.3-0.5-0.8-0.7-1.4-0.8c-0.9,0-1.9,0.5-2.1,1.8c0,0.7,0.3,1.1,0.3,1.8c-0.1,0.4-0.5,0.6-1.4,0.2c0.1-0.1-0.6-1.2-0.6-1.2
			c-0.7-0.4-1.7,0-2.3,0.4c-0.3,0.6-0.6,1.7-0.2,2.8C466.8,262,470.4,265.3,472.1,265.3z"/>
		<path fill="#FFFFFF" d="M476.9,265.3L476.9,265.3c0,0-0.1,0-0.2,0c0,0-8.5,6.1-8.8,6.3c-0.8,0.8-0.4,3.4,0,3.1
			c0.6,0.2,9.2-5.6,9-6.3C477.4,268.4,477.6,265.4,476.9,265.3z"/>
		<path fill="#FFFFFF" d="M340.2,263.9c5.4,0.5,2.4-9.1,4.4-10.8c0.4-0.9,1.1-0.9,1.1,0.2v8.2c0,2.7,1.7,3.4,3.1,4
			c1.4-0.1,2.3-0.1,2.9,1.3c0.2,4.7,0.5,9.4,0.7,14.1c0,0,3.3,0.9,3.4-7.9c0.2-5.2-1-9.6-0.3-10.6c0-1,1.3-1,2.2-0.6
			c1.4,1,2,2.2,4.2,1.7c3.3-0.9,5.3-2.5,5.4-5.1c-0.2-2.4-0.5-4.9-1.5-7.3c0.1-0.4-0.6-1.6-0.5-2c0.6,0.9,1.5,0.9,1.7,0
			c-0.6-1.9-1.4-3.7-2.9-4.4c-1.2-1-2.9-0.8-3.5,1.3c-0.3,2.5,0.9,5.4,2.7,7.9c0.4,0.9,0.9,2.5,0.7,3.9c-1,0.6-1.9,0.3-2.7-0.5
			c0,0-2.6-2-2.6-2.4c0.7-4.5,0.2-5-0.2-6.3c-0.3-1.7-1.1-2.3-1.8-3.4c-0.7-0.7-1.6-0.7-2,0c-1.2,2-0.6,6.4,0.2,8.3
			c0.6,1.8,1.5,2.9,1.1,2.9c-0.4,1-1.1,0.8-1.7-0.4c-0.8-2.4-0.9-6-0.9-7.6c-0.2-2-0.5-6.3-1.8-7.4c-0.4-0.5-0.8-0.6-1.2-0.6v0
			c-0.5,0.1-1,0.5-1.2,1.1c-0.1,2-0.1,4,0.1,5.8c0.9,3.2,1.2,6.1,1.6,9.4c0.1,4.4-2.6,1.9-2.4-0.3c0.6-2.9,0.5-7.3-0.1-8.5
			c-0.4-1.1-0.9-1.4-2-1.2c-0.8-0.1-3,2.3-3.6,6.2c0,0-0.5,2-0.7,3.8c-0.3,2-1.6,3.5-2.6-0.3c-0.8-2.7-1.3-9.4-2.7-7.9
			C336.2,253.7,335.8,262.9,340.2,263.9z"/>
		<path fill="#FFFFFF" d="M342,244.1c0.3,0.7-0.3,3,0.3,3.2c0.5,0.2,1.3-1.6,1.6-3.2c0.2-0.9,0-4-2.1-4.7c-0.1,0-0.2,0-0.3,0v0
			c-0.8,0-1.7,0.5-1.4,1.5C339.9,241.3,341.7,243.1,342,244.1z"/>
		<path fill="#FFFFFF" d="M492.6,251.4c0.3,0.9-0.5,3.9,0.2,4.2c0.6,0.3,1.4-2.1,1.7-4.2c0.2-1.2-0.7-5.4-2.2-6.1
			c-0.1,0-0.2-0.1-0.4-0.1c-0.9,0-1.8,0.6-1.4,1.9C490.2,247.7,492.3,250.1,492.6,251.4z"/>
		<path fill="#FFFFFF" d="M460.6,291.6c-3-4-2.1-9.5-1.9-10.3c0,0,0,0.1,0,0.2c-3.2,3.6-1.8,9.6-1.1,10.9c1.1,2.1,1.9,3.5,4,4.5
			c1.9,1.4,3.3,0.5,4.1-0.4c1.9-2,1.9-7,2.8-8c0.6-1.8,2.2-1.5,2.9-0.7c0.7,1.1,1.6,1.7,2.7,2.3c1.8,1.6,3.9,1.8,5.9,0.4
			c1.4-0.8,2.3-1.8,3.2-3.9c0.9-2.4,0.4-14.9,0.3-21.8c1.3,1.9,2.6,3.8,3.9,5.7c0.6,6.1,0.8,12.1,0.6,17.8c-0.1,1.1,4-3.4,4-5.6
			c0-1.9,0-3.6,0-5.2c2,3.2,3.9,6.4,5.8,9.7c1.1-0.6,0.7-7,0-7.9c-1.9-3.2-4.4-6.7-6.3-9.4c-0.4-3.4-0.9-7.4-1.1-8.6
			c-0.4-1.9-0.7-4.8-1.3-7.1c-0.2-0.9-0.6-3.7-0.5-4c0.2-0.6,1.1,0,1.5-0.7c0.6-0.7-2.2-7.9-3.6-9.9c-0.5-0.9-1.4-0.6-2.6,0.9
			c-1.1,1-0.7,3.2-0.3,5.4c1,5.5,2,11,2.7,16.6c-1.4-2-3-4.5-4.7-6.9c0-0.2-0.2-1.1-0.2-1.1c0-0.1-0.2-4.5-0.4-5.5
			c0-0.4-0.1-0.5,0.3-0.5c0.5,0.4,0.5,0.4,0.8,0.5c0.5,0.1,0.9-0.7,0.6-1.5c-1.5-2.7-2.9-5.4-4.4-8.1c-0.2-0.2-0.4-0.4-0.6-0.4
			c-0.2,0-0.5,0.1-0.8,0.5c-0.5,0.5-1.1,1.3-1.1,2.4c0.1,1.9,0.5,3.9,0.6,5.8c0,0.3,0.1,0.5,0.1,0.8c-0.2-0.3-0.4-0.5-0.5-0.6
			c-3.7-3.9,1.7-0.6-0.7-3.7c-2.1-2.3-2.7-3-4.4-4.3c-0.9-0.6-1.4-1.7-1.7,0.2c-0.1,1.6-0.2,3.5-0.1,4.9c0,0.8,0.8,2.2,1.5,3.1
			c2.5,3.1,5.1,6.3,7.6,9.7c0.5,7,0.7,13.3,1.2,20.3c-0.1,3-1,6.9-1.9,7.3c0,0-1.3,0.8-2.2-0.1c-0.6-0.3-3.2-4.3-3.2-4.3
			c-1.3-1.2-2.2-0.9-3.1,0c-2.6,2.5-3.8,7.2-5.5,10.4C463.3,292.3,462.1,293,460.6,291.6z"/>
		<path fill="#FFFFFF" d="M442.4,257.7c1.8,0.9,5.3,0.5,5.2-2.5c0-0.3-0.1-1.1-0.1-1.4c-0.2-0.4-0.5-0.6-0.9-0.5
			c-0.3,0.1-0.7,0.3-0.8,0.8c-0.1,0.3,0.1,0.8-0.1,0.9c-0.2,0.2-0.8,0.1-0.7-0.8c0-0.3-0.2-0.5-0.3-0.7c-0.1-0.1-0.2-0.1-0.4-0.1
			c-0.3,0-0.3,0.1-0.4,0.3c-0.1,0.2-0.1,0.4-0.1,0.7c0,0.3-0.1,0.4-0.4,0.4c-0.2,0-0.2,0-0.4-0.1c-0.1-0.1-0.3-0.2-0.3-0.4
			c0-0.2-0.1-0.6-0.1-0.7c-0.1-0.1-0.3-0.2-0.4-0.2c-1,0-1.1,1.1-1,1.6C441,255,441,257.1,442.4,257.7z"/>
		<path fill="#FFFFFF" d="M426.5,246.8c3.1,4.2,6.1,8.3,8.9,12.6c0.5,3.2,0.8,6.3,1,9.5c0.5,6.9,0.6,15.4,0.2,22.6
			c1.3,0.1,3.3-2.1,4.1-5.2c0.5-4.3-0.2-13.1-0.2-15.6c0-1.1-0.1-2.3-0.2-3.6c3.3,5.5,6.6,11.2,9.8,17.6c1.2-0.6,0.9-7.1,0.2-8
			c-2.5-5.5-6.1-10.9-7.2-13c-0.4-0.8-1.8-2.8-3.4-5.3c-0.3-3.5-0.6-6.4-0.8-7.3c-0.5-3.6,1.5,0.4,1.2-1.7c-0.7-3.6-2.7-6.1-5-9.5
			c-0.8-1.1-0.8-1.3-1.9,0.3c-0.7,1.6-0.7,2.9-0.5,4.2c-0.3-0.5-0.7-1-1.2-1.7c-2.1-1.8-2.2-1.9-3.9-3.3c-0.5-0.4-1.6-1-2.3-0.9l0,0
			c-0.5,0-0.8,0.3-1,1c-0.2,1.6-0.1,2.5,0.2,3.9C424.5,244.4,425.8,245.9,426.5,246.8z M433,246.6c0.1,0.4,0.2,0.7,0.2,1.1
			c0.2,0.8,0.3,1.5,0.5,2.3c-0.7-0.9-1.2-1.7-1.5-2C430.7,246.2,432.3,246.8,433,246.6z"/>
		<path fill="#FFFFFF" d="M407.1,245c1.1-2.9,1.1-4.1,1.1-5.3c-0.2-0.9-0.6-1.4-1-1.3c-0.5,0-1,0.6-1.4,1.6
			c-0.4,0.8-0.8,4.9-0.7,4.9C404.9,246,406.4,246.5,407.1,245z"/>
		<path fill="#FFFFFF" d="M443.6,246.1c0.7,1.8-0.5,3.6,0.2,3.9c0.6,0.3,1.5-1.9,1.8-3.9c0.4-1.6-0.8-5-2.4-5.7c-0.1,0-0.3,0-0.4,0
			c-0.9,0-2,0.6-1.6,1.8C441,242.7,443.3,244.9,443.6,246.1z"/>
		<path fill="#FFFFFF" d="M356.8,244.2c1.8,0.9,5.3,0.5,5.2-2.5c0-0.3-0.1-1.1-0.1-1.4c-0.2-0.4-0.5-0.6-0.9-0.5l0,0
			c-0.3,0.1-0.7,0.3-0.8,0.8c-0.1,0.3,0.1,0.8-0.1,0.9c-0.2,0.2-0.7,0.1-0.7-0.8c0-0.3-0.2-0.5-0.3-0.7c-0.1-0.1-0.2-0.1-0.4-0.1
			c-0.3,0-0.3,0.1-0.4,0.3c-0.1,0.2-0.1,0.4-0.1,0.7c0,0.3-0.1,0.4-0.4,0.4c-0.2,0-0.2,0-0.4-0.1c-0.1-0.1-0.3-0.2-0.3-0.4
			c0-0.2-0.1-0.6-0.1-0.7c-0.1-0.1-0.3-0.2-0.4-0.3c-1,0-1.1,1.2-1,1.6C355.5,241.6,355.4,243.7,356.8,244.2z"/>
		<path fill="#FFFFFF" d="M460.6,289.3c1.3,0,2.8-2.9,3.4-5.9c0.3-4-0.2-6.5-0.3-8.8c-0.1-2.4-2.7-21.5-3.2-23.3
			c-0.6-3.4,2.5-0.4,2.2-2.4c-1.1-2.5-3.8-6.1-4.6-8.2c-0.3-0.6-0.4-1.1-0.6-1.1l0,0c-0.2,0-0.4,0.3-0.8,0.8c-1.1,3.4-1.4,6.3-1,8.4
			C458.3,262.9,461,275.8,460.6,289.3z"/>
		<path fill="#FFFFFF" d="M451,286.4c-3,3.1-7.2,6.9-11.9,8.7c-0.5,0.6,1.2,3,3.5,3c3.8-0.4,7.1-2.6,10.2-8.1
			c0.8-1.3,2.3-4.1,2.3-6.2c0.3-12.7-0.6-22.5-2.5-31.7c-0.1-0.9,0-1.9,0.1-2.2c0.2-0.3,1.1,0,1.5-0.7c0.6-0.7-1.7-6.1-3.1-8.2
			c-0.3-0.5-0.4-0.9-0.7-0.9v0c-0.2,0-0.4,0.3-0.8,1c-0.8,1.4-1.4,3.7-1.3,6c1.8,12.5,2.4,23.4,3.5,35.8
			C452,283.9,451.8,285.7,451,286.4z"/>
	</g>
	<path fill="none" stroke="#999999" stroke-width="0.25" stroke-linecap="round" stroke-linejoin="round" d="M251.5,244.2l-0.1-0.2
		l0-0.1l-0.2-0.3l-0.2-0.3l-0.1,0l0.1,0.2v0.3l0.3,0.3l0.4,0.4l-0.1-0.2L251.5,244.2z M277.1,289.8l-0.2-0.1l-0.2,0l-0.1,0.3v0.4
		l0.1,0h0.2l0.1,0l0.2,0.1l0.3,0.1l0.1-0.2l-0.2-0.2L277.1,289.8z M366.5,455.8l-0.3,0l-0.3,0.1l-0.3,0.4l-0.1,0.2l0.1,0.1l0.2,0.1
		l0.2,0.2l0.1,0.1l0.3,0l0.2-0.1l0.1-0.2l0.1-0.2l0.3-0.2v-0.1l-0.3-0.3L366.5,455.8z M266.8,271.5l0.2-0.3l0.3-0.3l-0.1,0.1
		l-0.5,0.5l-0.3,0.7l0,0.9l0.1,0.5l0,0.2l0.1,0.3l0.2,0.1l0.4,0.3l0.2,0l0.2-0.1l0.1-0.2l-0.1,0l-0.2,0l-0.1-0.1l0-0.1l0-0.1
		l0.1-0.3l0.2-0.3l0-0.1l-0.1,0l-0.2-0.1l-0.4-0.4l-0.2-0.4l0.1-0.4L266.8,271.5z M273.7,277L273.7,277l0.1-0.2l0-0.2l-0.1-0.2
		l-0.2-0.1l-0.2,0.1l-0.1,0.2v0.2l0,0.1l0,0.6l0.1,0.2l0.1,0.1l0.2,0.3l0.1-0.2l-0.1-0.6l-0.1-0.3l0,0l0-0.1l0-0.2l0,0L273.7,277z
		 M271.2,278.7l0.2,0.2l0.2,0.1l0.1-0.1l0.2,0.1l0.1,0.2l0.1,0.1l0.2,0l0.3,0.2l0.3,0.2l0.1,0.1l0-0.1l0.1-0.1l0-0.1l-0.2-0.2
		l-0.7-0.6l-0.4-0.3l-0.3-0.1l-0.3-0.2L271,278l-0.1-0.2l-1-0.6l-0.4-0.1l-0.3,0.1l-0.2,0.3l0,0.2l0.1,0l0.1-0.1l0.2-0.1l0.3,0
		l0.3,0.2l0.2,0.2l0,0.1l-0.1,0l0.1,0.1l0.3,0l0.2,0.1l0,0.2l0.1,0.2l0.1,0l0.1,0L271.2,278.7z M272.3,277.9l0.1-0.1l0.2-0.2l0-0.2
		l-0.2-0.2l-0.3,0l-0.2,0.2l0,0.3l0.2,0.2L272.3,277.9z M275.8,280.3l-0.1-0.7l-0.1-0.1l0,0.2l-0.1,0l-0.2-0.4l-0.2-0.1l-0.3,0h-0.2
		l-0.2,0.2l-0.1,0.4l0,0.2l0.2-0.2h0.2l0.1,0.3l0.1,0.2l0.2-0.1l0.2,0l0,0.1l0.1,0.2l0.4,0.3l0.2,0l-0.1-0.1l0-0.1l0.1,0l0.1,0l0,0
		l-0.1-0.1L275.8,280.3z M517.6,239.6l0.2-0.3l0.2-0.3l0.2-0.1l0.2,0l0.2-0.1l0.2,0l0.2,0.1l0.2,0.2l0.1,0.1l-0.1,0.1l-0.3,0.1v0.1
		l0.1,0l0.2,0.1l0.1,0l0,0l0.2,0.2l0.2-0.2l0.3-0.2l0.3-0.1l0.3,0l0.3,0.1l0.3,0.1l0.3,0.1l0.4-0.1l-2-0.6l-0.4-0.2l-0.3-0.2
		l-0.2-0.1l-0.2,0l-0.6,0.1l-0.6,0.4l-0.4,0.6l0,0.6L517.6,239.6z M375.6,462.6l-0.1-0.3l0.1-0.4l0.1-0.3l0-0.3l-0.2-0.2l0.3-0.1
		l-0.6-0.2l-0.3-0.2l-0.2-0.3l-0.1,0.1l-0.4-0.9l-0.1-0.2L374,459l-0.3-0.1l-0.3,0l-0.1,0.2l-0.1,0.6l-0.2,0.4l0,0.3l0.5,0.4l0-0.1
		l0-0.1l0,0l0,0l0.2,0.1l0.2,0.1l0.1,0.2l0.1,0.2l-0.8,0l-0.2,0l-0.2-0.1l-0.2-0.2l-0.2-0.1l-0.2,0.2l-0.4,0.2l-0.5-0.1l-0.5-0.3
		l-0.3-0.2l-0.2-0.1l-0.1-0.2l-0.2-0.5l-0.1-0.3l0-0.1l-0.2-0.3l0-0.1l-0.2-0.3l-1.1-0.7l-0.4-0.2l0.1,0.4l0.2,0.3l0.2,0.2l0.1,0.3
		l0,0.1l-0.2,0.3l0,0.1l0.1,0.3l0.2,0.1l0.2,0l0.2,0.1l0.5,0.5l0.5,0.6l0.5,0.5l0.8,0.3l0.6,0.5l0.4,0.1l0.3-0.1l0.4-0.4l0.3-0.1
		l0.8,0l0.4,0.1l0.2,0.2l0.2,0.5l0,0.2l-0.4,0l0.4,0.5l0.6,0.4l0.6,0.2l0.3-0.3l-0.1-0.3L375.6,462.6z M370.7,456.4l-0.2,0.4
		l-0.3,0.2l-0.3,0.1l-0.5,0l-0.2,0.2l0.1,0.4l0.4,0.8l0.5,0.6l0.3,0.2l0.3,0.1l0.1,0.1l0.2,0.3l0.1,0.1l0.1,0l0.1-0.1l0.1,0l0.2,0.1
		l0.4,0.2l0.1,0.1l0.2-0.3l0-0.4L372,459l-0.3-0.2l-0.5-0.2l-0.1-0.3l0.2-0.3l0.6,0l-0.3-0.4l-0.2-0.4l-0.1-0.4l0-0.5l-0.1-0.6
		l-0.3-0.4l-0.5-0.2l-0.6-0.1l0-0.2l-0.2,0.1l-0.2,0.2l0,0.1l0.2,0l0.4,0.1l0.3,0l0.5,0.2l0.1,0.5l-0.1,0.4L370.7,456.4z
		 M228.3,225.4l-0.1-0.2l-0.1-0.1h0l0,0l-0.2,0.1l-0.6,0.1l-0.3,0l-0.2-0.2l0.1-0.2l0.2-0.1l0.5-0.1l-0.1-0.2l-0.1-0.1l-0.3-0.2
		l-0.1,0.1l-0.1,0.1l-0.1,0.1l-0.1,0.2l0-0.1l0,0l-0.1,0.1l0.1,0.2l0.1,0.4l0,0.3l0.4,0.5l0.6,0.2l0.7,0l0.7-0.1v-0.2L228.3,225.4
		L228.3,225.4z M269.1,277.1l-0.3-0.2l-0.2,0l-0.1,0.1l0,0.1l0.1,0l0,0l-0.2,0l-0.2-0.1l-0.1-0.2l0-0.2l-0.1-0.1l-0.2,0l-0.3,0
		l-0.3-0.2l-0.5-0.5l-0.2-0.1l-0.2-0.1l-0.1-0.1l-0.1,0h-0.1l-0.1-0.1l-0.1-0.2l0-0.2l0.3-0.5l0.1-0.2l0-0.1l-0.2,0.1l-0.2,0.3
		l-0.5,0.5l-0.2,0.4l0.1,0.5l0.2,0.3l0.4,0.4l0.2,0.1l0.1-0.3l0.4,0.1l1.6,0.8l0.3,0.2l0.1,0.1l0.2-0.1l0.1-0.2L269.1,277.1z
		 M274.1,280.4l-0.3,0.2l-0.2,0.3l-0.2,0.1l-0.2-0.3l0.1-0.3l0.4,0l-0.1-0.2l-0.2-0.1l-0.2,0l-0.3-0.1l-0.7-0.3l-0.4-0.2l-0.2-0.1
		l-0.4-0.4l-0.2-0.2l-0.2,0l0,0.2l0.2,0.3l0.2,0.2l0,0.1l0,0l0,0v0.1l0.1,0.1l0.1,0.1l0.8,0.8l0.4,0.3l0.4,0.4l0.4,0.3l0.3-0.2
		l0.2-0.4l0.2-0.2l0.1-0.1l0.4-0.2l-0.1-0.1L274.1,280.4z M637.5,352.5l-0.2-0.5l-1-1.7l-1.6-2.6l-1.6-2.6l-1.6-2.6l-1.6-2.6
		l-1.2-2.1l-1.3,1.7l-0.3,0.1l-2.7-0.4l-2.7-0.4l-2.7-0.4l-2.7-0.4l-2.7-0.4l-2.7-0.4l-2.7-0.4l-2.7-0.4l-2.7-0.4l-2.7-0.4l-2.7-0.4
		l-2.7-0.4l-2.7-0.4l-2.7-0.4l-2.7-0.4l-2.7-0.4l-2.7-0.4l-3.1-0.4l-0.5-0.2l-0.4-0.3l-1-1.3l-1-1.3l-1-1.3l-1-1.3l-1-1.3l-1-1.3
		l-1-1.3l-1-1.3l-1-1.3l-1-1.3l-1-1.3l-1-1.3l-1-1.3l-1-1.3l-1-1.3l-1-1.3l-1-1.3l-1.1-1.4l-0.3-0.5l-0.1-0.5l0-1.4l0-0.5l-0.1-0.8
		l-0.8-0.3l-0.6-0.6l-0.3-0.3l-1.3-0.3l-0.3,0l-0.2,0.1l-0.2,0.1l-0.2,0.2l-0.4,0.1l-1.2-0.1l-0.1-0.1l0-0.2l0-0.5l0-0.1l0.1,0
		l0.2,0l0.1-0.1l0-0.1l0-0.1l0-0.1l0-0.2l0-0.5l0-0.2l0.1-0.2l0.3-0.3l0.1-0.1l0.2-0.3l1.1-0.8l0.1-0.1l0.1-0.3l0.1-0.2l0.4-0.5h0.1
		l0.1-0.3l0.3-0.2l0.4-0.1l0.3-0.1v-0.2l-0.3-0.2h-0.3l-0.2,0l-0.1-0.3l-0.1-0.3l-0.3-0.1l-0.4,0l-0.1,0.1l-0.1,0.3l-0.2,0.2
		l-0.2,0.2l-0.3,0.3l-0.5,0.9l-0.3,0.2l-0.3,0.1l-0.1-0.1l0.1-0.7l-0.1,0l-0.1-0.2l0-0.2l0.1-0.1l0.1-0.1l0.1-0.2l0-0.2l0-0.2
		l-0.2,0.2l-0.2-0.1l-0.2-0.2l-0.2-0.1l-1,0.1l-0.1-0.2l-1.3,1.1l-1,0.3l-1.1,0l-1.2-0.2l-1-0.4l-0.9-1.1l-1.4-2.3l-0.4,0.4l-0.3,0
		l-0.2-0.2l-0.2-0.4l-0.2-0.4l-0.1-0.2l0-1.3l-0.2-0.8l-0.4-0.4l-0.5-0.3l-0.4-1.4l-0.3-0.3l-0.2-0.3l-0.5-0.7l-0.5-0.4l-0.2,0.4
		l-0.2-0.3l-0.2-0.5l-0.2-0.9l0.1-0.9l-0.1-0.3l-0.3-0.5l-0.1-0.4l-0.1-0.1l-0.1-0.2l0-0.3l0-0.3l0.1-0.5l0-0.3l-0.1-0.5l-0.2-0.6
		l-0.3-0.6l-0.2-0.3l0.1-0.2l-0.4-1l-0.2-0.2l-0.7-0.2l-0.4-0.2l-0.2-0.3l0-0.1l-0.1-0.1l-0.1-0.1l-0.1-0.5l-0.1,0l-0.2,0.1
		l-0.2,0.1l0.1,0.3l0.1,0.3l0.1,0.3l-0.5-0.4l-2.2-2.9l-0.7-1.5h-0.1l0,0.1l-0.1,0.2l-0.2-0.2l-0.5-0.4l-0.1-0.3l0.1-0.4l0.3,0
		l0.3,0.2l0.2,0.4l0.2,0.2l0.3,0.1l0.2,0.1l0.1,0.2l0.3,1h0.1l-0.2-1l-0.5-0.8l-1.2-1.4l-0.4-0.7l-0.5-1.1l-0.2-1l0.4-0.4v-0.1
		l-0.2-0.4l-0.1-0.4l-0.2-0.3l-0.5-0.1l-0.1,0l-0.1,0l0-0.1l0-0.1l0-0.2l-0.1,0l-0.1,0l-0.1,0l-0.2-0.3l-0.1-0.1l-0.2-0.1l0.1,0.4
		l-0.1,0.3l-0.3,0.2l-0.3-0.1l0.1-0.3l0-0.3l-0.1-0.3l0-0.3l0.1-0.2l0.1-0.1l0.1,0l0.1-0.1l0-0.2l-0.2-0.3l0-0.2l-0.1-0.1l-0.2-0.3
		l-0.1-0.3l0.2-0.1l0.2-0.1l0.5-1l0.2-0.1l0.3,0.1l0.2,0.2l0.2,0.2l0.1,0.2l0,0.1l0,0.6l0.1,0.1h0.1l0.1,0.1l0.2,0.2l0.2,0.1
		l0.2,0.2l0.1,0.3l0,0.3l0,0.3l0.1,0.3l0.3,0.2l0.2-0.6l0.2-0.8l0.1-0.8l-0.1-0.5l0.2-0.2l0.2-0.1l0.2,0.1l0,0.3l0.4-0.2l0.2-0.4
		l0.1-0.5l0-2.3l-0.1-1l-0.3-0.7l-0.6-0.5l-1.7-0.6l-0.4-0.2l-0.3-0.3l-0.2-0.3l-0.5-1.6l0-0.4l0.1-1.3l-0.1-0.1l-0.2-0.2l-0.1-0.2
		l-0.1-0.2l0-0.3l0-0.3l0.1-0.4l0.2-0.4l0.2-0.1l0.1,0.8l0.2,0.2l0.3,0.1l1.1,0.1l0.5,0.3l0.9,0.8l-0.1-0.6l-0.3-0.4l-1.4-1
		l-0.3-0.6l-1-1.3l-0.6-0.5l-0.6-0.4l-0.5-0.1l-0.5,0l-0.4,0l-0.8-0.5l-1.2-0.6l-0.2-0.2l-0.3-0.3l-0.2-0.1l-0.6-0.2l-0.2-0.1
		l-0.6-0.7l-1.1-1.8l-0.4-0.4l-0.4-0.2l-0.1-0.1l-0.1-0.3l-0.1-0.5l0-0.3l0.2-0.5l0.1-0.3l-0.4,0.4l-0.1,0.1l-0.2-0.1l-0.2-0.1
		l-0.2-0.1l-0.2,0l-0.3,0.3l0.2,0.3l0.5,0.6l-0.3,0l-0.5-0.2l-0.3-0.1l-0.5,0.2l-0.2-0.1l0.2-0.4l-0.1,0l0,0l0,0l0-0.1l-0.2,0.4
		l-0.1,0.2l-0.2,0.1l-0.2-0.3l-0.5-0.1l-0.2-0.3l0.2,0l0.2,0l0.2-0.1l0.1-0.2l0.1-0.3l0.1-0.2l0.1-0.2l-0.1-0.2l-0.1,0.2l-0.3-0.3
		l-0.3,0l-0.2,0.2l0.1,0.3l-0.2,0.2l-0.2,0l-0.1-0.1l0-0.4l-0.3,0l-0.1-0.4l0-0.9l-0.1-0.4l-0.1-0.4l-0.1-0.4l0.2-0.4l-0.4-0.2
		l-0.3-0.1l-0.2,0.1l-0.2,0.2l-0.2,0.2l-0.2,0.1l-0.2,0.1l0.1-0.3l0-0.6l0.1-0.2l0.2-0.2l0.2-0.1l0.2-0.1l0.1-0.3l-0.2-0.1l-0.1-0.1
		l-0.1-0.1l-0.1,0.1l0,0.1l-0.1,0.1v0l-0.3,0.3l-0.1,0l-0.1-0.1l-0.1-0.2l-0.2-0.1l-0.1-0.1l-0.1-0.1l-0.2-0.1l-0.2-0.1l-0.4-0.1
		l-0.2-0.1l0.7-0.4h0.3l0.1,0.4h0.1l0.4-0.4l1.1,0.1l0.4-0.5h0.1l0,0.3l0.1,0.2l0.1,0.1l0.2,0l-0.1-0.2l0-0.4l0-0.2l-0.1-0.2
		l-0.1-0.1l-0.1-0.1l-0.1-0.1l-0.4-0.6l-0.3-0.3l-0.4-0.1l-0.2,0l-0.4-0.1l-0.2,0l-0.1,0l-0.3,0.2l-0.2,0l-0.7-0.1l-0.3-0.1
		l-0.3-0.1l0.1,0.2l-0.1,0.2l-0.2,0l-0.3-0.1l0.4-0.3l-0.2-0.3l-0.7-0.4l-0.7-0.6l-0.3-0.1l-0.4,0l-0.4,0.1l-0.2,0.1l-0.2,0.2l0,0.1
		l0.1,0.1l0.1,0.2l-0.1,0.2l-0.3,0l-0.1-0.4l0.1-0.4l0.2-0.2l-0.1-0.3h-0.1l-0.2,0.4l-0.3,0.2l-0.4,0l-0.4-0.2l0.1-0.2l0.2,0
		l0.5,0.2l-0.1-0.1l-0.2-0.5l0.2,0l0.1-0.1l0-0.1l-0.1-0.2l0.1-0.1l0-0.1l0-0.4l-0.1,0.2l-0.1,0.2l-0.2,0.1l-0.3-0.1l0-0.4l0-0.3
		l-0.1-0.2l-0.1,0.2l-0.2,0.2l-0.2,0l-0.1-0.2v-1l-0.1,0.1l-0.1,0.4l-0.1,0.1l-0.2,0l0-0.1l0.1-0.1l0-0.1l0-0.4l0.4-1.5l0.2-0.3
		l0.2,0l0.1,0.4l0,0.3l-0.4,0.9l0.3-0.2l0.3-0.8l0.3-0.3l0.1,0.3l-0.1,0.2l-0.1,0.2l-0.1,0.3l0,0.5l0,0.2l-0.1,0.3l0.3-0.2l0.2-0.4
		l0.2-0.3l0-0.2l-0.1-0.1l0-0.3l0-0.3l0.2-0.4l-0.1-0.2l-0.8-0.8l-0.4-0.7l0-0.1l-0.4-0.2l-0.4-0.4l-0.4-0.4l-0.2-0.3l0-0.3l0.1-0.1
		l0.3-0.2l0.1,0l0.1,0l0.1-0.1l0.1-0.1l0.1-0.1l0-0.1l-0.1-0.1l-0.2-0.1l-0.4-0.2l-0.2-0.1l-0.7,0l-0.2,0l-0.7-0.3l-0.3-0.2l0-0.1
		l0-0.3l-0.1-0.2l-0.6-0.8l-0.2-0.3l-0.1-0.5l0-0.4l0.1-0.4l0.3-0.4l-0.1-0.3l-1.6-1.8l-0.3-0.4l-0.1-0.5l0-0.3l0.1-0.6l0.2-0.4
		l0-0.2l-0.2-0.1l-0.1,0.3l-0.2,0.2l-0.3,0.1l-0.4,0l0-0.1l0-0.1l0.1-0.1l0.4,0.2l0.2-0.5l0-0.7l-0.2-1l-0.1-0.2l-0.5-0.2l-0.2-0.2
		l-0.5-0.5l-3.5,0l-3.5,0l-3.5,0l-3.5,0l-1,0l-0.2-0.6l-0.4-0.4l-0.4-0.3l-0.4-0.4l-0.3-0.5l-0.3-0.7l-0.2-0.7l-0.1-1.2l-0.1-0.6
		l-1.1-2.9l-1.2-2h0l-1.1-0.1l-1.9-0.3l-1.9-0.2l-1.9-0.3l-1.9-0.3l-2.2-0.3l-2.2-0.3l-2.2-0.3l-2.2-0.3l-0.9,0.2l-0.9,0.2l-0.8,0.2
		l-0.9,0.2l-2-0.2l-1.5-0.1l-1.5-0.1l-1.5-0.1l-1.5-0.1l-2-0.2l-2-0.2l-2-0.2l-2-0.2l-2-0.2l-2-0.2l-2-0.2l-2-0.2l-1.5-0.1l-1.5-0.1
		l-1.5-0.1l-1.5-0.1l-1.8-0.2l-0.1,0l-0.1,0l-0.1-0.1l-0.1,0l-1.5-1.2l-1.8-1.5l-1.9-1.5l-1.9-1.5l-1.8-1.5l-2.2-1.8l-2.2-1.8
		l-2.2-1.8l-2.2-1.8l-2.2-1.8l-2.2-1.8l-2.2-1.8l-2.2-1.8l-1.7-1.4l-1.7-1.4l-1.7-1.4l-1.7-1.4l-2.1-1.7l0,0l-1.8-1.6l-1.8-1.6
		l-1.8-1.6l-1.8-1.6l-1.6-1.4l-1.6-1.4l-1.6-1.4l-1.6-1.4l-1.3-1.1l-1.7-1l-1.7-1l-1.7-1l-1.7-1l-1.7-1l-1.7-1l-1.7-1l-1.7-1l-1.7-1
		l-1.7-1l-1.7-1l-3.4-2l-1.7-1l-1.7-1l-1.7-1l-1.7-1l-2-1.2l-1.1-0.6l-1-0.4l-6.6-1.3h0l-1.6-0.3l-3.8-0.7l-3.8-0.7l-3.8-0.7
		l-3.8-0.7l-0.2,0.1l-0.2,0.1l-0.4,0.3l-2.3,2.2l-0.7,0.3l-2.2,0.6l-4.4,1.3l-4.4,1.3l-4.4,1.3l-4.4,1.3l-4.8,1.4l-4.8,1.4l-4.8,1.4
		l-4.8,1.4l2.5,2.7l2.5,2.7l2.5,2.7l2.5,2.7l0.1,0.1l0.1,0.1l0.1,0.1l0.1,0.1l2.1,2.5l2.1,2.5l2.1,2.5l2.1,2.5l1,1.1l0,0l0,0l0,0
		l-0.1,0.1l-1.4,0.8l-2.3,1.3l-2.1,1.2l-0.4,0.4l-0.3,0.4l-0.6,1.4l-0.7,1.7l-0.6,1.6l-0.9,2.1l-0.4,0.4l-2.3,0.5l-2.6,0.5l-2.8,0.6
		l-2.8,0.6l-1.7,0.4l-1.7,0.4l-0.5,0.3l-0.5,0.5l-1.1,1.8l-0.9,1.5l-1.2,2l-1.2,2.1l-1.5,1.2l-2.3,1.9l-2.1,1.7l-2.1,1.7l-0.5,0.2
		l-0.5,0l-2-0.4l-2.2-0.4l-3.4-0.6l-2.9-0.5l-2.7-0.5l-3-0.5l-2.3-0.4l-2.1-0.4l-0.1,0.3l0.1,0.4l0.1,0.3l-0.1,0l0,0l0,0.1l0,0.1
		l-0.2-0.1l-0.1,0.3l0,0.5l0.1,0.4l-0.4,0.3l-0.2,0.2l0,0.3l0,0.1l-0.2,0.5l-0.1,0.3l-0.4,2l-0.2,0.5l-0.2,0.4v0.3l0.2,0.6l-0.1,0.9
		l-0.3,0.9l-0.3,0.5v0.1l0.3,0.1l0,0.3l-0.2,0.7v0.1l0.1,0.2l-0.1,0.3l-0.3,0.6h0.1v0.1l-0.3,0.6l-0.3,0.7l-0.1,0.8l0.3,3.6
		l-0.2,0.5l-0.2,0.1l-0.2,0.3l-0.1,0.4l-0.1,0.7l-0.4,0.6l-0.2,1l-0.3,0.8l-0.4,0.7l-0.4,0.4l0.1,0.1l0.1,0l0.1-0.1l0,0.2l0,0.1
		l-0.1-0.1l-0.1-0.1l-0.1,0l-0.2,1l0.1,0.2v0.2l-0.2,0.1l-0.2,0.1l0,0.1l0.1,0.1v0.2h0.1l-0.1,0.2l-0.1,0.1l-0.2-0.1l-0.2-0.1l0,0
		l0.1,0l0,0v-0.1l-0.1,0l-0.1,0.1l-0.1,0.1l-0.1,0.1l0.1,0.2L229,221l-0.2,0.2l-0.1,0.1l0,0.1l-0.2,0.1l-0.2,0.2l-0.3,0.4l0.1,0.2
		l-0.1,0.3l0.5-0.2l0.1,0.2l0,0.5l0,0.3l0.1,0.3l0.1,0.2l-0.1,0l0,0l0,0l0,0.1l0.4-0.1l0.1-0.2l0-0.3l0.1-0.4l0.2,0.1l0,0l0,0l0.1,0
		l0.1,0v-0.2l-0.4-0.3v-0.1l0.1-0.1l0.3-0.1l0.1-0.1l0.1-0.2l0-0.2l0.1-0.1l0.2,0.2l0.1-0.1l0.1-0.1l0.1-0.1l0.1-0.1l0.1,0.3
		l0.1,0.1l0.1,0.2l0,0.1l0.2,0.1l0.1-0.1l0.1,0l0.1,0.1l0.1,0.2h0.2v-0.1h0.1l0,0.1l0,0.1v0.1l0.1,0l0,0l0,0l0.1,0.1l0-0.3l0.1-0.1
		l0.2,0l0.3,0l0,0.1v0.1l0,0.1l-0.2,0.1l-0.2,0.1l-0.1,0.1l-0.1,0.1l0.1,0l0.1,0l0.1,0l0.1,0.1l0.2-0.4l0.1-0.1l0.2-0.1v-0.1H233
		V222l0.2-0.1l0.2,0l0.2,0l0.2,0.1l-0.2,0.1l-0.2,0.1l-0.1,0.1l0.1,0.2v0.2h-0.1v0.1l0.1,0h0l0,0.1l0.3-0.3l0.4,0l0.4,0.1l0.2-0.1
		h0.1v0.1h0.1l0.1-0.2l0.1-0.1l0.2-0.1l0.6-0.2l0.2-0.1l0.2-0.1l0.2,0.1l0.2,0.1l0.2,0.1l-0.1-0.1l-0.1-0.1l-0.1-0.1h0.2l0.2,0
		l0.2-0.1l0.9,0.7l0.2,0.2l0.2,0l0.4,0l0.2,0l0.1,0.1l0.1,0.1l0.1,0.1h0.1v-0.1h0.1l0.2,0.1l0.5,0.1l0.1,0l0.2,0.3l0,0.1l-0.2-0.1
		l-0.3,0.2l-0.4,0.2l-0.3,0.2l0.2,0.3h0.1v-0.1l0.9,0.7l0.3,0.1l0.2,0.2l0.3,0.5l1,1.1l0.2,0.3l0.1,0.6l0.2,0.4l0.1,0.3l0.1,0.2
		l0.2,0.1l0.4,0.2l0.2,0.1l0.4,0.6l0.5,1.3l0.4,0.6l0.6,0.7l0.2,0.3l0.1,0.4l0,0.8l0.1,0.4l0.2,0.6l0.7,1.4l0.6,0.6l0.5,0.9l0.5,0.6
		l0.2,0.2l0.9,0.6l1.6,1.9l0.5,0.7l0.1,0.3l0,0.2l-0.2,0.3l0,0.2l0,0.2l0.1,0.2l0.6,1.1l1.6,2l1.3,1.1l0.5,0.7l0.3,0.2l0.4-0.1
		l0.4,1.3l0.6,1l0.3,0.9l0.5,0.6l1.1,1l0.9,1.2l1.5,2.8l1.4,3.5l0.8,1.1l0.4,0.8l1.2,2.9l0.5,0.6l0.7,0.3l0.6,0.1l0.7,0.2l0.6,0.3
		l0.5,0.5l0.2,0.5l0.1,0.6l-0.1,0.6l-0.3,0.4l-0.4,0.5l-0.2,0.5l0,0.5l0.2,0.5l0.1,0.1l0.2,0.1l0,0.1l0,0.5l0,0.1l0.1,0.2l0.4,0.6
		l0.2,0.1l0.3,0.1l0.6,0.4l0.2,0.1l0.2-0.1l-0.1-0.2l-0.1-0.3l0-0.2l0.4,0l0.5,0.6l0.8,1.2l0.2,0.2l0.6,0.2l0.3,0.2l0.2,0.2l0.3,0.6
		l0.2,0.3l0.1,0.1l0,0.3l0,0.1l0.1,0.1l0.3,0.2l0.1,0.1l0.3,0.9l0.1,0.3l0.9,0.9l0.3,0.5l-0.3,0.2l0.1,0.2l0.3,0.3l0.1,0.2l0,0.2
		l0,0.5l0,0.2l0.2,0.5l0.3,0.5l0.4,0.4l0.4,0.3l0.2,0.2l0.2,0.4l0.2,0.2l0.2,0.1l0.2,0.2l0.4,0.4l0.2,0.4l0.2,0.4l0.1,0.5l0,0.5
		l-0.1,1.3l0.1,0.5l0.4,0.9l0.1,0.5l-0.4,0.9l0,1.1l-0.2,0.4l-0.5,0.2l-0.4,0l-0.4-0.1l-0.5,0l0.3,0.8l0.3,0.3l0.3,0.2l0.2,0
		l0.3-0.2l0.1,0.1l0.1,0.1l0,0.2l0,0.2l-0.1,0.2l0,0.6l0.6,0.8l1.2,1.2l3.1,5.1l-0.1,0l-0.2,0l-0.1-0.1l-0.2,0.5l0,0.2l0.2,0.1
		l0.3,0.3l0.6,1l0.2,0.3l0.3,0.3l0.2,0.2l0.3,0.1l1.1,0.4l0.4,0l-0.1-0.3l0-0.2l0.3-0.2l0.4-0.2l0.3-0.1l0.3,0.1l0.6,0.6l0.3,0.1
		l0.3,0.1l0.2,0.2l0.2,0.3l0.8,1l0.3,0.2l0.7,0l0.5,0.1l0.3,0l0.1-0.1l-0.1-0.3l-0.1-0.3l0.2-0.1l0.1-0.1l0.2-0.1l0.2-0.1l0.1,0
		l0.1,0.2l-0.1,0.2l-0.2,0.2l-0.1,0.3l0.2-0.1l0.2,0l0.2,0l0.2,0.1l-0.5,0.3l-0.2,0l0.9,0.6l0.8,0.9l0.3,0.2l0.3,0.1l0.1,0l0.2-0.2
		l0.1,0l0.2,0.1l1,0.9l0.3,0.1l0.2,0.1l0.6,0.8l0.2,0.2l0.3,0.2l0.3,0.2l0.4,0.1l0.4,0.2l0.3,0.4l0.2,0.4l0.2,0.3l0.2,0.1l0.4,0.1
		l0.2,0.1l0.2,0.2l0.3,0.5l0.1,0.1l0.1,0.1l0.2,0.5l0.1,0.1l0.5,0l0.2,0l0.2,0.1l0.3,0.4l0.1,0.5l0.1,0.5l0.1,0.5l0.7,1.2l0.6,1.9
		l0.5,0.9l0.6,0.1v-0.1l-0.5-0.2l-0.2-0.2l0-0.4h0.2l0.2,0.1l0.4-0.1l0.1,0.2l0.1,0.3l0.1,0.2l0.3,0.3l0.2,0.4l0.2,0.5l0.1,0.5
		l0,0.5l0.1-0.1l0.1-0.1l0.1-0.1l0.2,0.5l0.1,0.7l0.1,0.6l0.3,0.2l-0.1,0.2l-0.1,0.3l0,0.3l0,0.2l0.2,0.2l0.1,0.2l0,0.3l0.2,0.5
		l0.3,0.4l0.4,0.2l0.3,0l-0.1,0.2l0,0.2l0,0.2l0.1,0.2l0.3-0.3l0.2,0.3l0.1,0.5l-0.2,0.2l0,0.1l0.4,0.8l0,0.3l-0.1,0.3l-0.2,0.3
		l-0.2,0.2l0.4,0.9l0.3,0.3l0.4-0.1l0.3,0.2l0.4,0.1l0.4,0.2l0.2,0.3l0.1,0.2l0.1,0.2l0.2,0.2l0.1,0.1l0.2,0.1l0.3,0.6l0.2,0.2
		l-0.1,0.2l-0.2,0.2l-0.2,0l-0.2-0.1l-0.3-0.1l-0.7-1.2l-0.6-0.1l0.4,0.3l0.7,1.4l1.1,1.6l0.2,0.4l0.1-0.1l-0.1-0.2l0-0.2l0-0.2
		l-0.1-0.2l-0.1-0.2l-0.3-0.4l-0.1-0.1l0.2-0.1l0.4,0.3l0.9,1l0,0.2l-0.5,0.5l0,0.3l0.1,0.3l0.4,0.6l0.5,1.2l0.5,0.7l0.1,0.3l0,2.6
		l0.1,0.9l0.3,0.8l0.1-0.2l0.1-0.6l0.1-0.2l0.3-0.1l0.2,0.1l0.1,0.2v0.3l-0.1,0.1l-0.3,0.3l-0.3,0.6l-0.2,0.2l-0.2,0.2l-0.1,0.2
		l-0.2,0.9l-0.6,0.7l-0.1,0.6v0.9l-0.1,0.3l-0.1,0.2l-0.1,0.2l0.1,0.3l0.3-0.7h0.1l0,0.4l-0.2,0.8l0,0.4l-0.1,0.1l-0.3,0.2l-0.1,0.1
		l0,0.2v0.4l-0.1,0.2l0.1,0.3l0.2,3l0.1,0l0.1,0.3l0,0.2l-0.2-0.1l-0.1-0.2l-0.3-0.6l-0.1-0.5l-0.2-0.2l-0.8-0.2l0.2,0.4l0.2,0.6
		l0.3,0.4l0.7,0.6l0,0.1l0.1,0.2l0,0.1l0.2,0.1l0,0l0.1,0.2l0,0.3l0.1,0.2l0.1,0.2l0.1,0.1l0.1,0.1l0.1,0.1l0.1,0.2v0.2l0.1,0.1
		l0.3,0l0.2-0.1l0.1-0.2l0.1-0.4l0.2,0.3l0,0.3l-0.1,0.3l-0.1,0.1l-0.4,0.1l0,0.3l0.2,0.6l0,0.6l0,0.6l0.1,0.6l0.3,0.5l-0.1,0.1
		l0.2,0.4l0.2,0.2l0.2-0.1l0.2-0.4l0.3,0.7l0,0.3l-0.2,0.2v0.1l0.3,0.3l0.1,0.6l0,0.7l-0.2,0.5l-1.5,1.3l0.6,1l0.3,0.2l0.7,1.1
		l0.1,0.3l0,0.1l-0.2,0.3l0,0.1l0,0.2l0.2,0.4l0.1,0.6l0.2,0.2l0.8,0.6l0.1,0l0.1,0.1l0,0.2l0.1,0.2l0.3,0.2l0.1,0.2l0,0.5l0.1,0.3
		l0.1,0.3l0.5,0.8l0,0.1l0.2,0l0.2-0.1l0.2,0l0.2,0.1l0.2,0.1l0.1,0l0.1,0.1l0.1,0.2l0,0.1l-0.1,0l-0.1-0.1l-0.1-0.1l0,0.5l0.4,0.5
		l0.6,0.4l0.4,0.3l0-0.4l0.1,0l0.3,0.4l0.1,0.1l0.1,0l0.1,0l0,0.2l0,0.1l0,0.1l0.1,0.3l-0.2-0.1l-0.2-0.1l-0.2-0.1l-0.1-0.2
		l-0.1,0.2l0,0.2l0.1,0.1l0.2,0.1l-0.1,0.3l0.3,0.3l0.4,0.2l0.4,0.1l-0.1-0.1l-0.1-0.1l-0.1-0.1l0-0.2l0.3,0l0.7,0.2l-0.3,0.5
		l0.1,0.3l0.7,0.7l0.1,0.2l0.1,0.6l0.1,0.2l0.4,0.4l0.3,0.1l0.3,0.1l-0.1,0.2l-0.1,0.1l-0.2,0l-0.2,0v0.2l0.4,0.3l1.2,1.9l0.5,0.5
		l1,0.8l0.3,0.3l0.3,0.6l0.4,0.2l0.4,0.1l0.3,0.1l0.3,0.2l1.9,1.2l0.3,0.1l0.1-0.1l-0.1-0.1l-0.2-0.1l-0.1,0l-0.2-0.1l-0.2-0.1
		l-0.1-0.1l0-0.3l0.4,0.2l0.8,0.5l0.5,0.2l0.2-0.2l0.4-0.1l0.5-0.1l0.4,0l0.3,0.2l0.6,0.6l0.2,0.1l0,0.1l0.2,0.2l0.3,0.3l0.2,0.3
		l0.1,0.1l0.6,0.1l0.5,0.1l0.3,0.2l-0.1,0.3l0.7,0.8l0.9,0.7l0.4,0.2l0.4,0.1l0.2,0l0.5,0.1l0.2,0.1l0.5,0.7l0.2,0.1l0.2,0.1
		l0.2,0.3l0.2,0.1l0.7,0.4l0.6,0.3l0.2,0.2l0.1,0.4l-0.2,0.5l0,0.1l0.1,0.1l0.6,0.4l0.8,1.2l0.3,0.2l0,0.2l0.2,0.4l0.3,0.4l0.3,0.2
		l-0.2-0.5l0.2-0.2l0.4,0l1,0.1l0.4,0.3l0.9,1.3l0.1,0.4l0.1,1l-0.1,0.8l-0.5-0.2l-0.2,0v0.1l0.5,0.3l1,1l0.5,0.2l1.7,0.6l0,0.2
		l0.1,0.2l0,0.2l0,0.2l0.1,0.2l-0.1,0.1l-0.2,0.2l-0.1,0.2l0,0.2l0.1,0.3l0,0.2l0,0.2l0.2,0.3l0,0.2l0,0.2l0,0.1l0.5,0.4l0.3,0.2
		l0.2,0.2l0.1,0.4l0.1,0.2l0.4,0.2l0.1,0.2l0,0.2l0.1,0.4l0,0.2l-0.1,0.5l0,0.2l0.1,0.2l0.3,0.4l0.2,0.6l0.3,0.2l0.8,0.3l0.4,0.2
		l0.4,0.2l0.2,0.3l-0.3,0.5l-0.1,0.4l0,0.4l-0.1,0.2l-0.1,0.2l-0.1,0.2l-0.1,0.4l0,0.2l0,0.2l0.1,0.1l0.4,0.5l0,0.1l0.2,0.6l0.8,0.2
		l0,0l0.4,0.2l0.1,0l0.2,0.3l0,0.1l-0.1,0.1l-0.1,0.2l-0.1,0.4l-0.5,1.3l-0.1,0.4l0,0.3l0.1,0.2l0.2,0.3l0.2,0.3l0.5,1.2l0.2,0.2
		l0.2,0.2l0.2,0.1l0.2,0.1l0.1,0l0.2-0.2l0.1,0l0,0l0.1,0.1l0.1,0.1l0.3,0.1l0.1,0.2l0.1,0.3l0,0.2l0.1,0.1l0.7,0.5l0,0.1l0,0.2
		l0,0.2l0.1,0.1l0.1,0l0.1,0.1l0.1,0.1l0,0.1l0,1.1l0,0.2l0.1,0.2l0.1,0.8l0.1,0.2l0.2,0.3l0.1,0.4l0.1,0.4l-0.1,0.3l0.3,0l0.3,0
		l0.1,0.1l-0.1,0.3l0.1,0.1l0,0.2l-0.1,0.2l-0.1,0.2l0.3-0.1l0.2,0l0.2,0.1l0.1,0.2l-0.1,0.1l0,0.1l0,0.1l-0.1,0.1l0.4,0.1l0.4,0
		l-0.1,0.3l0.1,0.1l0.2,0.1l0.1,0.1l0.1,0.3l0.1,0.2l0.3,0.4l-0.2,0.4l0.3,0.4l0.8,0.7l0,0.2l0,0.2l0,0.1l0.1,0.1l0.2,0.1l0,0.2
		l-0.1,0.2l0,0.3l0.1,0.3l0.8,1l0.4,0.4l0.4,0.3l0.3,0.3l0.2,0.5l0.4-0.1l0.7,0.5l0.4-0.2l1.2,1.1l0.2,0.1l0.6,0.9l0.2,0.2h0.1
		l0.1,0l0.1-0.1l0,0l0.8,0.9l0.1,0.2l0.1,0.3l0.2,0l0.4-0.1l0.1,0.1l0.1,0.2l0.1,0.3l0.4,0.5l0.2,0.4l0.1,0.2l0.1-0.1l0.2,0.1
		l2.1,1.8l0.1,0.2l0,0.2l0.1,0.1l0.1,0l0.2,0l0.2,0.1l0.1,0.2l0.1,0.5l0,0.4l-0.1,1l0.1,0.4l0.1,0.5l0.3,2.7l0.3,0.8l0.1,0.4l0,1.4
		l0.1,0.4l0.2-0.4l-0.2-1.3l0.4-0.3l-0.3-0.6l-0.1-0.3l-0.1-0.3l0.9,0.4l0.2,0.2l0.1,0.3l0.1,0.7l0.1,0.3l0.2,0.6l0.2,0.3l0.2,0.2
		l0.3,0l0.4,0l0.4,0l0.2,0.2l0.1,0.3l0.2,0.1l0.2,0.1l0.1,0.3v1l0.1,0.3l-0.3,0.9l0.7,0.9l0.2-0.1l0.2,0l0.6,0.3l0.1,0.1l0.5,0.5
		l0.2,0.4l0.1,0.1l0.5,0.5l0.1,0.2l-0.2,0.1l0,0.3l0.2,0.3l0.2,0.2l-0.1,0.2l0.4,0.1l0,0.4l-0.2,0.9l0,0.9l0.1,0.4l0.2,0.5l0.9,1.1
		l0.1,0.4l-0.3,0.7l0.1,0.2l0,0.7l0,0l0.9-0.3l0.7-0.3l0.5-0.3l0.2-0.3l0-0.3l-0.1-0.3l0.1-0.3l0.2-0.1l0.8-0.1l0.3-0.1l0.8-0.5
		l0.4-0.3l0.2-0.3l0.5-1.3l0.1-0.4l0-0.4l0.1-0.3l0.3-0.1l0.5,0.1l0.8,0.2l0.3-0.1l0.1-0.4l-0.1-0.5l-0.2-0.3l0-0.3l0.3-0.4l0.2-0.1
		l0.2-0.1l0.1-0.1l0.1-0.2l0-0.3l-0.1-0.2l-0.2-0.2l-0.7-0.2l-0.2-0.2l-0.2-0.7l-0.4-0.8l-0.1-0.3l0.1-0.5l0.3-0.8l0.1-0.4l0-0.4
		l-0.1-0.4l-0.2-0.3l-0.1-0.3l0.1-0.4l0.4-0.8l0.1-0.4l0-0.5l0.1-0.4l0.4-0.3l0.5-0.2l0.4-0.1l0.4-0.2l0.1-0.4l-0.2-0.4l-0.4-0.3
		l-1.1-0.4l0.1-0.1l0.9-1.1l1.7-1.5l1.7-1.1l0.4-0.2l0.4-0.1l0.4,0.1l0.7,0l0.3,0.1l1.4,0.6l0.8,0.5l1.4,1.5l0.8,0.6l0.4,0.1h0.4
		l0.7-0.1l0.8,0.1l0.3,0l0.5-0.1l0.1,0.1v0.2l0,0.4l0.1,0.2l0.1,0.1l0.1,0.1l0.2,0l0.5-0.1l0.3-0.3l0.3-0.4l0.3-0.3l0.4-0.2l0.3,0
		l0.7,0.4l0.5,0.1l0.4-0.2l0.3-0.4l0.3-0.5l0.3-0.2l0.4,0l0.8,0.2l0.4,0l1.5-0.3l1.9-0.2l1.2,0l1.3,0.3l0.5,0l1.2-0.5l0.4-0.1l3.9,0
		l2.9,0l3.3,0l1.1,0.2l3.2,1.8l0.9,0.3l4.1,0.4l4.8,0.5l3.7,0.4l4.7,0.5l3.2-0.4l4.3-0.6l0.7,0.4l1.3,1.8l1.4,2l1.6,2.3l0.2,0.2
		l2.8,0.1l0.6-0.1l0.6-0.2l2.4-1.4l2.2-1.3l0.6-0.8l1.3-3.6l0.9-2.5l0.3-0.6l1.9-2.4l2.9-3.6l3.1-3.8l1.8-2.2l1.5-1.9l0.4-0.3
		l2.5-1.3l3.3-1.7l3.7-1.9l3.3-1.7l2.8-1.4l0.9-0.4l1.8-0.7l2.5-0.4l3.1-0.4l3.1-0.4l3.1-0.4l3.1-0.4l3.1-0.4l3.1-0.4l3.1-0.4
		l3.1-0.4l3.1-0.4l3.1-0.4l3.1-0.4l3.1-0.4l3.1-0.4l3.1-0.4l3.1-0.4l3.1-0.4l3.1-0.4l5.5-1.9l3.3-1.2l3.3-1.2l3.3-1.2l3.3-1.2
		l3.3-1.2l3.3-1.2l3.3-1.2l3.3-1.2l3.3-1.2l3.3-1.2l3.3-1.2l3.3-1.2l3.3-1.2l3.3-1.2l3.3-1.2l2.9-1l0.6-2l0.1-0.4l0.4-1.2l0.6-1.8
		l0.7-2.3l0.9-2.7l1-3.1l1-3.3l2.1-6.8l1-3.3l1-3.1l0.9-2.8l0.7-2.3l0.6-1.8l0.4-1.2l0.1-0.4l0.8-2.7L637.5,352.5z"/>
</g>

</svg>
