<?xml version="1.0" encoding="utf-8"?>

<svg version="1.2" baseProfile="tiny" xmlns="http://www.w3.org/2000/svg" xmlns:xlink="http://www.w3.org/1999/xlink" x="0px"
	 y="0px" viewBox="105.5 133.9 629.1 326.3" xml:space="preserve">

<g id="Solomon_Islands">
	<g>
		<polygon fill="#0051BA" points="236.2,229.6 236.2,229.1 236.3,228.6 236.4,228.1 236.5,227.7 236.4,227.8 236.1,227.9 235.9,228
			235.9,226.7 235,226.9 233.8,228 233.3,228 233,228 232.3,228.6 232.3,228.9 233.4,228.9 233.9,229.5 234.3,230.1 234.9,230.6
			235.3,228.9 235.5,229.2 		"/>
		<polygon fill="#0051BA" points="236.1,231.6 236.7,231.7 237.7,232.4 239.1,232.7 239.7,233.2 240,233.7 240.4,234.1 241,234.3
			243.1,234.7 242.8,234.2 242.9,233.7 243.3,233.4 243.7,233.2 242.8,232.6 241.8,232.1 240.7,232 240.1,232.5 239.1,231.6
			238.5,231.4 237.9,231.6 237.6,231 237.2,230.8 236.7,230.5 236.3,230.2 235.9,230.3 235.7,230.8 235.7,231.3 		"/>
		<polygon fill="#0051BA" points="293.1,136.1 293.3,136.4 293.8,136.5 		"/>
		<polygon fill="#0051BA" points="231.1,293.8 232,295.2 232.8,294.9 233.8,294.1 234.8,293.9 235.1,293.6 235.2,293.2 235.3,292.8
			234,292.3 234.2,291.6 234,290.5 233.7,289.4 233.3,288.7 233.3,287.7 233,287.7 233,288.4 232.8,289 232.6,289.6 232.4,290
			231,291.1 230.7,291.5 230.4,292.7 230.4,293.3 230.9,293.6 		"/>
		<polygon fill="#0051BA" points="288,134.6 287.8,134.2 287.2,133.9 287,134 287.3,134.5 287.8,134.8 		"/>
		<polygon fill="#0051BA" points="296,137.9 296.4,138 296.3,137.6 		"/>
		<polygon fill="#0051BA" points="131.5,206.7 130.7,207.3 131.2,207.3 131.6,207.2 132,207 132.3,206.6 132.4,206.8 132.5,207
			132.6,207.2 132.7,207.5 133.3,207 133.6,206.4 133.9,205.7 134,204.9 134.4,205.2 134.9,205.3 135.5,205.2 135.9,204.9
			135.6,204.8 134.7,204.5 134.3,204.3 134,204.1 133.3,203 133.5,202.4 132.9,202.1 132.1,201.9 131.7,201.5 131.8,200.9
			132.2,200.3 132.7,199.9 133.3,199.8 133.3,199.5 132.3,199.5 131,200.2 130.9,201.2 131.4,202.1 132,203 132.2,203 132.6,203.3
			132.8,203.6 132.5,203.7 132.1,203.8 131.9,204 131.7,204.6 131.8,205 132.1,205.4 132.3,205.7 132.2,206.1 		"/>
		<polygon fill="#0051BA" points="176.1,259.6 178.5,261.7 180.9,261.5 181.3,261.6 181.5,261.6 181.9,261.5 182.9,262.6
			183.8,261.9 184.6,260.6 185.4,258.6 185.5,257.8 185.4,255.6 185,253.3 184,251.3 182.4,249.6 180.2,248.5 179.1,248.6
			177.5,249 176,249.6 175.4,250.2 175.2,250.6 174.1,252.3 173.7,253.4 173.5,254 173.4,254.6 174.1,256.8 		"/>
		<polygon fill="#0051BA" points="114.9,213.1 115.2,213.3 115.8,213.8 116.2,214.1 117,213.7 117.8,213.7 118.6,213.8 119.4,213.1
			120,213.2 120.9,213.1 121.7,212.9 122,212.6 122.2,211.8 122.5,211.1 122.5,210.5 121.8,209.7 121.5,209.5 120.1,209.2
			118.4,208.2 116.8,206.8 116.2,206.6 116,206.9 116,207.2 116.2,207.5 115.4,207.8 115.1,208.7 114.9,209.4 114.6,209.2
			113.3,211.8 113.3,212.4 113.5,212.6 		"/>
		<polygon fill="#0051BA" points="173.9,218.9 175,219.1 175.9,219.5 176.6,220.1 177,220.9 176.9,221.2 178.1,221.2 178.2,221.1
			178.6,220.9 179.2,221.2 191.1,221.2 190.9,221.1 190.2,220.8 190,220.4 189.9,219.7 189.6,218.9 189.1,218.2 188.5,217.9
			187.6,217.8 186.8,217.4 186.1,216.8 185.8,216 185.5,216.2 184.8,216.7 184.5,215.8 184.1,215.2 183.6,214.7 183.1,214.1
			182.4,212.2 181.9,210.1 181.8,208.1 181.6,207.3 181.2,206.6 179.4,205.1 178.4,203.7 178,203.3 177.5,203.2 176.9,203.3
			176.5,203.2 176.3,202.9 176.1,202.3 175.6,202 175,201.8 174.2,201.4 172.5,201.1 170.5,200.1 167.6,198.1 165.6,197.6
			163.4,196.2 162.8,195.6 160.3,192.8 159.1,191.9 157.4,191.4 160.9,202.3 150.1,194.4 150.2,194.9 150.5,195.6 151.5,196.4
			151.6,196.5 156.9,201.1 157.4,201.4 158.2,201.6 160.4,202.8 161.1,203.3 162.8,206.1 163.3,206.6 163.8,207 165.7,209.5
			166.2,210.6 166.5,211 167.2,211.1 167.6,211.4 167.8,211.9 167.9,212.5 168.1,212.9 172.5,218.1 173.3,218.7 		"/>
		<polygon fill="#0051BA" points="335,322.7 334.9,322.6 334.7,322.7 334.2,322.9 334,322.9 330.4,322.9 330.2,322.9 329.8,322.6
			329.5,322.6 329.2,322.7 328.9,323.2 328.5,323.2 327.6,323.1 326.1,322.7 325.1,322.6 324.6,322.7 323.8,323.4 323.4,323.6
			322.8,323.6 322.4,323.5 321.4,323.2 320.3,322.8 319.7,322.7 319.3,322.8 319,323 318.6,323.3 318.1,323.5 317.6,323.6
			315.8,323.6 314.8,323.6 313.9,323.2 313.3,322.7 312.7,322 312.2,321.2 312,320.5 311.7,320.1 309.8,318.7 307.2,316.4
			305.5,315.3 303.9,314.8 301,316.5 300.2,316.7 299.5,317 299.2,317.7 299.1,319.3 298.6,319.8 298.4,320.1 298.6,320.3
			299.1,320.8 299.1,321.3 299.3,321.9 299.4,322.4 299.1,323.7 299.1,324.3 299.3,324.7 299.9,325.7 300,326.2 299.8,326.7
			299.3,327 298.7,327.3 298.9,327.8 299.2,328.1 299.9,328.6 300.6,329.4 301.3,330.3 301.9,331.3 302.3,332.3 302.3,332.8
			302.2,333.3 302.3,333.5 303.1,333.7 303.4,333.8 303.5,334.2 303.6,334.7 303.8,335.1 304,335.3 304.4,335.4 304.6,335.6
			304.6,335.8 304.5,336.4 304.6,336.6 305.9,337.3 306.1,337.4 335.2,322.9 		"/>
		<polygon fill="#0051BA" points="238.5,236.3 238.7,236.4 239.6,236.7 240.1,237.4 240.4,238 240.3,238.4 241.4,238.4 242.6,238.6
			243.1,238.6 242.5,237.5 242.4,237.1 244.2,238.2 245.1,238.4 245.6,237.7 245.9,238.3 246.5,239 247.1,239.4 247.9,239.3
			248,238.8 247.6,238 246.8,237.3 246.1,237.1 245.4,237 244.5,236.7 243.7,236.3 243.1,235.6 242,235.4 241.4,235.1 241.1,234.8
			240.6,234.8 240.3,235 240.3,235.3 240.6,235.8 240.3,235.9 239.9,235.8 239.8,235.7 239.6,235.7 238.8,235.5 238.3,235.5
			238.1,235.6 238.3,235.9 		"/>
		<polygon fill="#0051BA" points="130,197.6 129.7,197.5 128.5,197.9 128.3,198.3 128.2,198.8 128.3,199.2 128.5,199.5 128.7,199.6
			129,199.4 129.8,199.1 130.6,198.1 130.5,197.7 130.2,197.6 		"/>
		<polygon fill="#0051BA" points="108.7,226.5 109.7,226.3 110.7,225.4 110.1,224.9 109.7,224.4 109.1,223.9 108.4,223.5
			107.7,223.6 107.4,223.6 107.1,223.5 105.8,225.1 105.5,226 106.3,226.3 		"/>
		<polygon fill="#0051BA" points="373.2,303.5 372.6,302.9 372,302.7 371.6,302.4 371.8,301.9 372.2,301.5 372.9,301.8 372,300.6
			370.9,299.5 369.8,298.7 368.7,298.2 368.6,298.2 368.4,298.4 368.1,298.4 367.7,298.2 367.4,297.7 367.5,297.4 367.7,297.2
			367.7,296.9 367.3,296.4 366,295.4 365.6,295.2 364.4,295.7 363.8,295.8 363.5,295.4 363.3,295 362.4,294.1 362.2,293.4
			362.1,292.8 361.9,292.1 361.9,291.5 362.7,290.2 362.7,289.6 362.5,289 362.2,288.4 363.1,287.9 364.1,287.5 365,286.9
			365.4,286 365.2,285.1 364.8,284.1 363.6,282.7 361.7,281.1 359.3,278.5 357.7,276 357.5,275.9 356.8,275.5 356.7,275.3
			356.7,274.8 356.6,274.4 356.4,273.8 355.9,272.9 355.5,272.5 355,272.3 354.4,271.8 353.5,270.5 352.9,270.2 351.8,270.2
			351.8,269.9 351.4,269.8 351,270 350.7,270.4 350.5,270.7 352,271.7 352.1,272.1 351.8,272.4 351.3,272.7 350.9,272.8
			350.5,272.7 349.6,271.8 347.8,271.2 346.1,270.9 345.1,271.7 345.7,273.8 346.2,274.5 347.8,276.1 348.4,276.4 348.7,276.8
			350.5,279.3 351.7,281.8 351.7,282.2 350.8,282.4 349.4,283.6 348.6,284.2 350.1,287.5 350.2,287.9 350.2,290.5 350.4,291.1
			352.3,295.1 353,296.1 353.7,298.5 353.7,299.2 354,299.5 354.1,299.8 354,300.1 353.7,300.4 354.4,301.6 355.2,303.9
			358.6,310.2 359.3,310.8 373.3,303.8 		"/>
		<polygon fill="#0051BA" points="304.1,136.4 303.9,136 303.8,136.2 303.8,137.3 304,137.1 		"/>
		<polygon fill="#0051BA" points="274,307.5 274.4,307.8 274.7,308.3 275.1,308.6 277.4,307.9 278.1,307.2 279.1,305.1 278,304.3
			277.9,304.3 277.7,304.4 277.3,304 277.1,303.6 276.2,303 275.9,302.9 275.4,302.7 274.8,302.7 275.2,303.1 275.5,303.4
			275.7,303.9 275.7,304.4 275,304.1 274.8,304.1 274.8,304.7 274.1,304.4 273.7,304.6 273.5,305 273.8,305.7 272.3,305.7
			272.3,306.2 273.5,307.9 		"/>
		<polygon fill="#0051BA" points="300.1,280.3 300.5,280.6 301,280.9 301.6,281.1 302.1,281.2 302.5,281.1 303,280.9 303.4,280.4
			303.5,280.1 303,279.6 301.5,278.4 301.1,277.8 299.1,279.2 299.4,279.6 		"/>
		<polygon fill="#0051BA" points="281.4,307.8 281.6,306.9 281.3,306.7 280.9,306.8 280.7,306.6 280.8,306.3 279.9,305.6
			279.6,305.7 278.8,307.4 278.7,308.3 278.6,309.6 280.8,308.6 		"/>
		<polygon fill="#0051BA" points="300.7,276.7 300.8,274.5 300.5,273.7 299.1,273.4 297.7,273.6 296.8,274 296.2,274.8 295.8,276
			295.8,276.7 300.7,276.7 		"/>
		<polygon fill="#0051BA" points="183.9,267.9 184.1,268.3 184.5,268.5 185,268.4 185.3,268.5 185.4,269.2 185.8,269.2 185.8,267.9
			185.6,266.6 185.2,265.3 184.8,264.3 183.8,263.5 182.8,263.4 181.7,263.5 180.6,263.1 180.5,263.3 180.5,263.5 180.7,263.7
			181.2,263.7 180.9,264 181.8,264.5 182.5,265 183,265.8 183.5,266.6 		"/>
		<polygon fill="#0051BA" points="309.8,307.9 309.5,308.1 309.3,308.2 309,308.2 308.8,308.2 308.4,309.2 308.5,310.1 308.9,310.9
			309.6,311.2 310.2,310.8 310.3,309.9 310.1,308.8 		"/>
		<polygon fill="#0051BA" points="227.3,283.8 227.5,283.7 227.7,283.3 228.1,283.3 228.7,283.3 229.1,283.2 229.5,282.7
			229.6,282.4 229.4,281.4 229,280.7 228,280.4 226.8,280.4 225.9,280.6 225.4,280.9 224.9,281.4 224.4,281.7 223.8,281.4
			223.5,281 223.4,280.6 223.6,280.2 224,279.9 224,279.6 223.6,279.3 223.5,279.5 223.3,279.5 223,279.6 221.3,280.2 221,280.6
			221,281.3 221.3,281.8 221.4,282.3 221,282.9 220.9,282.4 220.7,282.2 220.4,282.2 220.2,283 219.7,283 218.4,282.2 218.5,282.9
			218.3,283.3 218,283.5 217.8,283.8 217.5,285.5 217.5,287.9 217.7,288.2 219.1,289.4 219.3,289.6 219.6,290.1 219.8,290.4
			220.3,290.6 220.6,290.8 220.7,291.2 221.1,291.4 222.1,291.7 223.1,291.9 223.8,291.8 224.2,291.6 225,291.4 225.4,291.2
			225.7,290.9 226.2,290 228.2,288.3 228.6,287.2 227.5,286.1 227.9,285.9 228.2,285.6 228.8,284.8 228.3,284.9 228.1,285
			227.8,285.2 227.4,284.9 226.5,284.8 226.2,284.5 226.4,284.2 		"/>
		<polygon fill="#0051BA" points="311.9,282.1 312.3,282.2 312.9,281.7 312.4,280.8 311,279.8 311,278.8 310.8,278.1 310.5,277.4
			309,275.5 308.6,275 308.2,275.5 307.8,275.7 307.3,275.7 306.9,274.9 306.2,274.4 306.2,274.1 306.6,273.8 307.1,273.7
			307.6,273.8 308,274.1 308.4,273.8 309.4,272.5 310.4,271.4 310.2,270.9 301.1,264.1 296.7,261.5 294.5,259.8 294.4,259.6
			294.3,259.3 294.2,259.1 293.7,258.9 293.5,258.8 292.9,258.3 291.6,257.6 290.8,257 290.3,256.2 289.9,255.2 289.4,254.7
			288.7,255.2 288.3,254.9 287.9,254.7 287.1,254.2 286.8,254.8 286.2,255 284.6,254.9 284.2,254.5 283.8,253.8 283.3,253.3
			282.5,253.9 282.3,253.4 282,253 281.6,252.7 280.8,252.6 280.3,252.5 279.8,252 279.7,251.6 280.3,251.3 279.2,251.1 278.3,251
			277.5,251.2 276.4,251.7 275.1,250.7 274.5,251 274.1,250.5 274,249.9 273.7,249.3 273.1,248.9 271.2,248.1 270.5,248.4
			269.8,247.9 269.4,247.1 269.9,246.2 268.9,245.6 267.5,244.4 266.7,243.9 265,243.3 264.4,242.9 264,242.5 263.3,241.5
			262.4,241 261.6,239.6 261.4,239.3 260.9,239.2 260.3,238.7 259.4,237.9 259.1,237.3 258.9,236.7 258.7,236.3 258.1,236.1
			257.8,236.2 257.4,236.5 257.1,236.8 256.9,237.1 255.1,236.3 254.4,235.7 254.1,234.7 253.8,234.8 253.7,234.9 253.6,234.9
			253.4,235.1 252.7,234.9 252.2,235.4 251.8,235.9 251.3,235.9 250.9,235.7 246.3,234 245.3,233.5 244.5,233.4 244.2,233.9
			244.3,234.7 244.7,235.5 247.1,236.7 250.8,239.8 250.8,241.8 250.7,242.3 250.6,242.7 250.6,243.2 250.8,243.9 251.5,244.5
			253.6,245.7 254.1,246.5 254.9,246.3 255.7,246.6 256.4,247.1 256.9,247.8 257.6,249.5 258.1,250 258.6,249.4 258.9,249.4
			259.4,249.8 259.9,250.4 259.5,251.1 260.2,251.5 261.7,251.8 262.5,251.6 262.9,252.4 263.1,254.2 265.9,255.6 266.8,255.7
			267.5,256.2 267.9,256.9 267.9,257.9 269,257.4 269.3,257.2 269.4,257.9 269.6,258.1 270,258.2 271.3,254 273.3,260 273.5,260.1
			273.8,260.1 273.9,259.9 274.1,259.7 274.5,259.8 274.6,260 274.5,260.4 274.6,260.8 274.8,261.1 275.1,261.1 275.8,261
			276.1,261.1 280.5,264.3 281.5,264.8 282.5,265 283.5,264.7 283.6,265.3 284,265.7 284.6,265.9 285.3,266 285.8,266.2
			286.3,266.8 286.7,267.9 287.5,267.7 288.4,267.9 290,268.9 290.6,268.7 291.4,268.8 292.2,269.3 293.3,270.1 294.4,270.6
			296.1,271.6 300,272.5 302.2,274.4 302.8,274.7 303.5,274.8 303.6,275.2 303.5,275.6 303.6,276 304.1,276.5 305.6,277.7
			306.2,278.5 306.5,278.9 307.5,279.2 308.1,280 308.9,280.4 309,280.6 309.2,281 309.4,281.2 309.6,281.2 310.2,281.2
			310.4,281.2 		"/>
		<polygon fill="#0051BA" points="204.7,290.1 204.3,289.7 203.8,289.3 203.1,289 202.8,288.9 202.6,288.7 202.3,288.4 201.9,288.4
			201.6,288.5 201.4,288.8 201,289.4 200.7,289 200,289.3 199.2,289.3 197.5,289 197.3,289.8 198.5,290.6 201,291.7 203.2,292.3
			204.9,293.1 205.3,293.3 206.6,292.8 206.6,291.8 206,290.8 205,290.4 		"/>
		<polygon fill="#0051BA" points="214.9,282 217.8,283.2 217.6,282.8 217.5,282.4 217.5,282 217.5,281.5 217.6,281 217.7,280.8
			218.6,279.2 218.8,278.8 218.8,278.3 218.6,278 218.3,277.9 218,277.8 217.8,277.7 217.5,276.9 217.2,275.2 216.8,274.4
			216.5,274.1 215.8,273.6 215.5,273.1 215.5,272.7 215.5,271.5 215,270.8 213.8,270 213.2,269.2 213.1,268.2 213,267.9
			212.7,267.5 212.5,267.3 211.2,266.4 210.4,266.1 209.7,266.1 208.7,266.3 208.3,266.4 207.7,266.8 207.4,266.9 207,266.9
			206.8,266.7 206.5,266.6 206.2,266.9 206,266.4 206.2,265.8 206.4,265.2 206,264.5 204.9,263.5 204.7,262.9 205.2,262.1
			204.9,261.3 204.8,260.4 204.8,258.7 204.7,257.9 204.3,257.4 204.2,256.7 204.5,255.9 203.3,255.8 200,253.9 199.8,253.9
			199.7,253.9 199.6,253.8 199.7,253.6 199,253.9 197.5,254.3 196.8,254.6 196,255 194,257 193.6,257.6 192.9,259.2 192.4,259.9
			191.4,261.2 191.1,261.8 191.3,262.4 191.1,262.9 191,263.9 190.9,264.3 190.6,264.7 190.2,264.8 189.9,264.6 189.7,264
			189.2,264.4 188.7,264.6 188.2,264.7 187.5,264.7 187.2,264.9 186.6,265.8 186.4,266.1 186.7,270.5 187,270.5 187.5,270.4
			189.1,271.3 190,271.5 191,271 191.5,270.1 191.8,269.2 192.2,268.6 192.8,268.4 194.5,268.6 196.1,268.6 196.3,268.5
			196.7,268.3 196.8,268.3 197.5,268 197.9,268 198.4,268.3 198.7,267.7 199,267.7 199.4,268.1 199.7,268.3 200.4,268.1
			200.9,267.9 201.3,267.8 201.9,267.9 202.7,268.6 203.5,269.7 204,270.9 204.4,272.4 205.6,273.4 205.8,273.9 205.6,274.5
			205.3,275 205,275.1 204.8,274.6 204.6,274.2 203.5,273.8 203.2,273.3 203.1,272 203,271.4 202.6,270.9 202.6,273.8 202.8,274.4
			203.1,275.5 203.2,276.2 203.4,276.4 204.5,277.7 206.6,279.1 207.8,279.7 210.4,279.9 211.6,280.6 212.7,281.7 213.1,282.3
			213.2,283 213.4,283.2 213.8,283.5 214.1,284 214.2,284.8 214.6,284.8 214.8,283.9 214.7,283.2 214.2,282.6 213.6,282.2
			213.6,281.9 		"/>
		<polygon fill="#0051BA" points="317.9,297.6 318,297.7 318.3,297.8 318.8,298.4 319,298.6 319.2,298.6 319.6,298.5 319.3,297.4
			318.9,296.9 318.4,297.1 318.1,297.2 317.8,297 317.5,297.2 317.4,297.2 317.2,297.5 317,297.7 316.8,298.4 317.1,298.8
			317.2,299 317.3,298.5 317.5,297.8 317.6,298 317.7,298.3 317.8,298.2 317.8,297.7 317.6,297.6 317.5,297.6 317.6,297.5
			317.7,297.5 317.8,297.5 317.8,297.5 		"/>
		<polygon fill="#0051BA" points="336.4,308.7 335.9,308.6 335.1,308.6 334.6,308.2 333.3,306 332.5,305.9 332,306.9 331.4,309.2
			331.2,309.6 330.7,310 330.2,310.4 329.7,310.5 328.5,310.5 328.1,310.7 327.9,311.2 328.4,311.3 328.8,311.5 328.8,311.8
			328.5,312.1 329.5,312.1 330.6,311.8 331.3,311.4 331.1,310.9 332,310.6 333,310.9 333.9,311.5 334.9,311.8 335.3,311.5
			335.9,311.1 336.6,309.8 337.2,309.2 336.8,308.9 		"/>
		<polygon fill="#0051BA" points="154.9,246.9 155.1,246.2 154.6,245.8 154.5,245.6 154,245.6 153.5,246 153.2,246.5 153.1,246.9
			153.9,247.3 		"/>
		<polygon fill="#0051BA" points="321.6,305.4 321.9,305.6 322.2,305.7 322.5,305.8 322.6,306.2 322.6,306.7 322.7,307 323.3,307.3
			324.2,307.5 325,307.4 325.8,307.1 326.5,306.9 327.1,307.3 327.9,308.6 328.2,308.6 328,307.9 327.9,307.6 328.4,307.6
			328.9,307.9 329.1,308.3 329.2,308.9 329.6,308.7 329.8,308.7 330,308.9 330.2,309.2 330.9,308.5 331.6,307.2 331.9,305.9
			331.6,304.9 330.8,304.1 329.8,303.4 329,303.3 328.5,304.1 328.2,304.1 327.5,303.1 326.7,303 325.8,303.1 325,302.7
			324.6,302.5 324.5,302.5 324.3,302.7 324.6,303.1 324.6,303.4 324.5,303.7 324.3,304.1 324,303.7 323.5,304.4 322.6,304.6
			321.8,304.7 321.4,304.9 321.4,305.2 		"/>
		<polygon fill="#0051BA" points="320.9,303.1 320.8,303.6 321.4,304.1 322,302.8 322.4,302.4 323,302.7 323,301.8 322.8,301.1
			322,300.1 321.3,300.3 321.2,300.7 321.4,301.9 321.2,302.6 		"/>
		<polygon fill="#0051BA" points="192.2,282.7 192.5,282.7 192.7,282.9 193,282.9 193.2,282.9 193.4,282.9 193.7,282.7 193.8,282.5
			193.9,282.2 194,282 194.1,281.8 194.6,280.2 195.3,279.4 195.5,279.1 195.3,277.7 194.8,276.6 194.1,275.7 193.2,275.1
			192.4,275.1 190.9,276 189.6,277.3 188.7,279.1 188,279.6 186.7,280.2 186.3,280.6 185.9,281.1 185.6,281.7 185.4,282.4
			185.8,283 186.7,283.7 187.8,284.3 188.5,284.5 189.1,284.9 190.3,286.6 190.6,287.1 190.7,287.6 190.6,288.1 190.7,288.5
			191.1,288.7 191.5,288.8 191.8,289 192.4,289.5 193,289.9 193.9,290.1 194.8,290.2 195.5,290 195.5,289.7 194.4,289.4
			193.4,288.8 191.8,286.9 191.5,286.3 191.5,285.5 191.9,284.2 191.8,283.1 191.9,282.9 		"/>
		<polygon fill="#0051BA" points="347.1,249.6 346.6,249.7 346.3,250.3 346.6,250.8 347.5,252.1 347.9,252.1 348.3,252 347.7,250.4
			347.4,249.8 		"/>
		<polygon fill="#0051BA" points="166,258.2 165.8,259.6 167.2,260.8 168.5,260.9 167.6,258.8 167.2,258.9 167,258.2 		"/>
		<polygon fill="#0051BA" points="154.1,259.9 154.8,260.9 156,264.4 156.4,265 157.3,264.6 157.8,263.6 158,262.5 157.6,261.5
			157.8,260.9 157.8,260.2 157.6,259 157.5,258.3 157.3,257.4 157.1,256.6 156.5,255.6 156.2,254.4 155.9,253.9 155.4,253.2
			154.7,252.6 153.8,253.1 153.8,254.1 154.3,256.5 154,258.8 		"/>
		<polygon fill="#0051BA" points="158.5,236.4 158,235.9 157.7,235.5 157.6,235.1 157.1,235.5 156.7,235.5 156.3,235.3 155.7,235.1
			153.8,236.2 152.5,238 152.2,240.1 153,242.3 153.7,241.9 154,242.1 154.5,243.2 154.4,243.4 154.5,243.5 154.8,243.5
			154.9,243.6 155.7,243.9 156,244.2 156.6,245.5 156.9,245.7 157.3,246 157.8,246.3 157.9,246.6 157.4,248.6 157.6,249.4
			159.8,250 160,250.7 159.8,251.7 159.8,252.6 160.2,252.6 160.7,252.3 161.3,252.4 161.7,252.8 161.8,252.9 162.4,252.7
			162.7,252.3 162.7,251.8 162.3,251.2 161.9,250.1 162.7,248.7 163.8,247.6 164.7,246.8 166.5,244.5 167.2,242.9 166.8,242.3
			165.9,241.9 164.9,241.3 163.8,240.9 162.8,241.3 162.1,240.7 162.5,240.3 161.5,240 161.1,239.7 160.6,238.6 160.2,238.2
			159.7,238.1 159.5,237.9 159.6,237.5 159.5,237.2 159.4,237.1 158.6,237 158.6,236.9 158.6,236.7 		"/>
		<polygon fill="#0051BA" points="178.5,266.8 178.3,266.9 180.2,267.3 181.1,268.9 181.8,270.7 183.1,271.5 183.1,271.2
			182.5,270.8 182.1,270.1 181.9,268.6 181.3,266.8 181.2,266.1 180.7,265.2 179.5,264.9 178.3,264.8 177.7,264.3 177,264.7
			177.3,265.3 178.2,266 179,266.3 178.8,266.4 		"/>
		<polygon fill="#215B33" points="411.3,362.4 410.6,361.5 410.3,361 410,361.3 410.3,361.8 410.7,362.1 410.7,362.1 410.7,362.3
			410.5,362.4 410.5,362.5 410.6,362.6 410.8,362.6 410.8,362.4 411.1,362.7 411,363.4 		"/>
		<polygon fill="#215B33" points="410.7,337 410.8,336.6 411,336.3 411.1,336 411.1,335.6 410.5,335.9 409.9,335.8 409.3,335.9
			408.8,336.6 408.7,337.2 409.3,340.5 409.8,341.8 410.4,342.9 411.1,343.5 411.3,342.6 411.3,341.9 410.7,337.9 410.4,337.3
			410.6,337.1 		"/>
		<polygon fill="#215B33" points="627.7,411.7 626.9,411.3 626,411.6 625.8,411.3 625.5,411.2 625.1,411.4 624.7,411.6 624,412.8
			624.6,413.1 625,413.1 625.5,412.8 626,412.5 626,412.9 626,413.4 625.9,413.7 625.7,414.1 625.1,413.9 624.6,414.4 624.5,415.1
			625.2,415.5 627.6,415.1 627.4,414.9 627.4,414.7 627.2,414.6 627,414.5 627.3,414.2 627.7,414.1 628.1,413.9 628.6,413.8
			628.2,413.3 628,413 627.6,412.8 628.1,412.3 		"/>
		<polygon fill="#215B33" points="611.9,363.7 612,364 612.3,364.1 612.2,364.7 612.3,365.4 613,365.3 613.8,364.5 614.3,363.6
			613.7,363.2 613,363.2 612.8,363.3 612.5,363.4 612.5,361.1 612.4,360.8 612.4,361.7 612.2,362.7 		"/>
		<polygon fill="#215B33" points="399.7,363.9 399.7,364.1 399.9,364.3 400.2,364.4 401.3,363.8 401.2,362.6 400.5,361.2
			399.4,360.4 398.7,361 398.8,361.6 399.4,362.8 399.6,362.8 400,362.9 400.1,363.1 399.9,363.5 		"/>
		<polygon fill="#215B33" points="607.4,385.1 608.2,384.3 609.2,383.7 608.8,383.2 608.2,382.9 607.7,382.8 605.4,382.7
			605.1,382.6 604.9,382.4 604.8,382.2 604.6,382.1 603.8,382 602.3,382.3 597.4,382.5 596.1,382.9 595,383.6 594.3,384.4
			593.9,385.6 593.6,387.1 593.4,387.3 593,386.8 592.6,386.1 592.3,385.6 592,385.6 591.9,385.9 591.8,386 591.6,386.1
			591.4,386.3 590.5,387.8 591.4,390 592.9,391.2 594.3,389.6 594.6,389.6 595,390.1 595.2,390.7 595.3,392.2 596.4,391.3
			599,387.7 599.6,387.3 600.2,387.5 600.7,387.8 601.4,387.9 602.4,387.2 602.7,387.1 602.4,387.9 603.7,388.2 605.6,387.8
			607.2,387 607.9,385.9 606.2,386.9 606.6,386.1 		"/>
		<polygon fill="#215B33" points="588.4,369.2 588.1,369.4 588,369.7 588,370.2 588.2,370.7 588.6,370.8 589,370.7 589.4,370.4
			589.5,370 589.1,369.3 		"/>
		<polygon fill="#215B33" points="331,430.9 331.2,431.2 331.7,431.5 332.2,431.7 333.2,431.7 333.7,431.9 334.7,432.6 335.1,433.5
			335.6,435.5 335.9,435.8 337.6,437 337.9,437.1 338.2,437.1 338.9,436.8 339.4,437.3 339.9,438.1 340.5,438.8 341.1,438.8
			341.5,438.4 341.9,437.5 342.1,437.1 342.7,436.9 343.1,437 343.5,437.1 344,437.1 345.2,436.3 344.3,435.3 341.4,433.5
			336.3,429.8 334.3,428.9 332.2,428.3 331.2,427.8 329.9,426.8 328.2,426 326.8,424.9 324.1,423.6 323.2,423 322.2,422.2
			321.8,422 320.7,422 320.1,422 319.6,421.8 319.2,421.4 318.5,420.7 318.3,420.7 318.1,420.6 318,420.5 317.8,420.3 317.5,420.9
			316.5,421.8 316.2,422.4 315.9,423.2 316,423.4 316.4,423.8 316.6,424.2 316.8,424.8 318.2,426.5 318.8,427 319.6,427.3
			320.1,427.1 320.8,426.7 321.5,426.6 322.4,427.3 322.3,427.5 322,427.9 323,428.3 324.8,429.3 325.6,429.6 326.6,429.7
			327.1,429.6 327.6,429.6 327.9,429.3 328.3,428.5 328.5,428.3 329,428.2 329.6,428.3 330,428.4 330.4,428.6 331,429 331.1,429.4
			331.1,429.8 331.1,430.2 331.1,430.6 		"/>
		<polygon fill="#215B33" points="432.2,392.9 432.1,393.2 432.5,393.5 433.4,393.5 433.1,392.7 		"/>
		<polygon fill="#215B33" points="589,382.8 588.8,383.2 588.6,383.8 588.3,384.2 588.3,384.5 588.5,384.7 588.9,384.5 589.1,384.7
			589.3,384.7 589.5,384.5 589.5,384.4 589.7,384.2 589.9,383.9 589.6,383.2 589.2,382.7 		"/>
		<polygon fill="#215B33" points="433.3,390.6 433.4,391.1 434,391.3 434.5,391.2 435.2,390.4 434.8,389.6 434.2,389 433.5,389.4
			433.6,390.2 433.4,390.4 		"/>
		<polygon fill="#215B33" points="309.3,412.3 308.4,412.2 308.1,412 307.8,411.9 307.5,411.8 307.1,411.8 307.9,412.8 308.7,413.1
			309.6,413.4 310.7,413.8 310.6,413 310.1,412.5 		"/>
		<polygon fill="#215B33" points="397.3,367.6 396.5,368 393.7,365.7 388.6,362.5 383.6,360.3 381,360.8 380.8,360.5 380.5,360.3
			380.2,360.3 380,360.1 379.1,360.4 378.7,361.3 378.7,362.4 379,363.1 378.8,363.2 378.7,363.3 378.6,363.5 378.4,363.7
			378.6,364.2 378.2,365.3 378.4,366 378.7,366.3 379.2,366.5 380.5,366.7 380.8,366.9 381.1,367 381.5,366.9 381.7,366.7
			382,366.5 382.3,366.3 383.3,366.3 383.9,366.3 384.2,366.5 384.4,366.9 385,367 386.3,367 386.9,367.1 387.2,367.4 387.4,367.7
			387.7,368 388,368 388.8,367.9 389,368 389.4,368.3 389.5,368.5 389.2,368.6 388.9,368.8 388.5,369.4 388.1,370.6 388.8,370.8
			388.9,371.5 388.5,372.3 388.1,372.9 388.6,372.9 389.6,372.7 389.9,372.7 390.1,373.2 390.1,373.7 390.1,374.2 390.6,374.5
			389.7,377.5 390.3,377.7 391,377.7 391.6,377.6 392,377.1 392.4,377.4 392.6,377.7 392.7,378.1 392.6,378.5 393,378.6
			393.4,378.8 393.6,379.1 393.6,379.5 394.4,380.3 395,380.7 395.2,380.2 395.5,380.1 396.1,380.5 396.7,381.1 397,381.4
			397.7,381.6 398,382 398.1,382.6 398.4,383 399.1,383.2 399.7,383.1 400.3,383.1 400.7,383.7 400.6,384 400.8,384.5 401.2,384.8
			401.7,384.7 401.9,384.9 402.2,385.3 402.3,385.6 403,385.4 403.6,385.5 404.6,386.3 404.6,386 404.9,385.3 405.3,386.1
			405.6,386.5 406,386.6 406.2,386.7 406.7,387.2 407,387.3 407.6,387.1 407.9,387 407.8,386.9 409.8,387.5 410.3,387.7
			410.7,387.8 412.1,387.4 412.7,387.3 413.1,387.5 413.8,388.1 415.9,388.9 416.3,389.2 416.6,389.5 416.9,389.8 417.4,389.9
			418.6,389.8 419.2,389.9 419.8,390.2 420.8,389.3 421.9,389.1 425.3,390.4 426,390.6 426.7,390.6 427.2,390.6 427.6,390.9
			428.3,390.6 428.8,390.6 429.4,390.8 430,390.9 430.6,390.6 430.7,390 430.3,389.6 429.9,389.9 428.4,389.6 426.5,389.7
			425,389.4 424.7,388.2 424.8,387.9 425.1,387.6 425.5,387.4 425.8,387.3 425.9,387 425.9,384.3 425.7,383.6 425.2,383
			423.5,381.9 422.9,381.3 422.5,380.6 422.3,379 422.1,378.8 421.7,378.7 421.4,378.5 421.2,378.1 420.2,375.6 419.8,374.8
			419.3,374.5 418.7,374.1 417.5,372.3 416.6,371.9 416.1,371.9 415.7,372 415.4,372.3 415.2,373.3 414.9,373.4 414.1,373.2
			412.6,373.4 412,373.2 411.5,372.8 410.8,371.9 410.4,371.6 409.7,371.9 408.9,371.8 407.2,371.2 406.5,371.7 405.4,371.9
			404.4,371.9 403.9,371.4 403.7,371 402.2,370.2 401.7,370 401.1,369.9 400.4,370 399.6,369.9 398.9,369.4 398,368 		"/>
		<polygon fill="#215B33" points="733.9,459 733.6,459.3 733.3,459.7 733.5,460.1 734.2,459.9 734.5,459.7 734.4,459 		"/>
		<polygon fill="#215B33" points="383.5,333.8 383.8,334.8 384.5,336 385.3,337.1 386.1,337.9 386.6,337.1 386.9,335.8 387.4,335.6
			388,335.9 388.2,336.4 388.7,337.6 390.6,339.7 390.8,340.7 391.3,340.5 391.7,339.7 392,338.6 391.8,337.5 391.1,335.9
			391,335.1 391,333.4 390.9,332.6 390.6,331.7 390,330.6 389.7,330.1 389.2,329.6 388.8,329.1 383.5,331.8 		"/>
		<polygon fill="#215B33" points="657.1,344.1 656.9,343.9 656.8,343.9 656.7,343.7 656.2,343.6 655.9,343.9 656.1,344.2
			656.1,344.6 656.3,344.8 656.5,345.1 656.5,345.1 656.6,345.2 656.7,345.4 657.1,345.8 657.2,345.5 657.5,345.5 657.6,345.1
			657.4,344.5 657.3,344.4 657.3,344.3 		"/>
		<polygon fill="#215B33" points="382.6,332.7 383.1,332.5 383.4,331.9 383.4,331.8 382.2,332.4 		"/>
		<polygon fill="#215B33" points="642.2,426.5 641.9,426.2 641.3,425.9 640.6,425.7 640.1,425.6 637.5,425.6 637.1,425.8
			636.4,426.7 636,426.9 637.5,428.6 639,430.7 639.6,430.9 640.2,430.2 640.2,431 640.6,431.4 641.2,431.5 641.9,431.5
			644.5,430.9 645.1,430 644.6,429.3 643.5,429 642.4,428.9 642,428.6 642,427.9 		"/>
		<polygon fill="#215B33" points="653.3,341.1 652.7,341.2 653.2,341.4 653.4,341.2 		"/>
		<polygon fill="#215B33" points="647.4,428.9 647.6,428.1 647.6,427.7 647.2,427.5 646.3,427.6 645.7,428.2 645.4,429 645.7,429.5
			646.6,429.4 		"/>
		<polygon fill="#FFFFFF" points="157.4,191.4 157.3,191.4 157.1,191.5 156.6,191.6 156.2,191.6 155.9,191.2 155.8,190.8
			155.5,190.6 155.1,190.4 154.6,189.8 153.6,189.4 152.6,189.3 151.7,189.4 150.1,190.7 149.8,191.4 149.8,192.4 150.1,194.4
			160.9,202.3 		"/>
		<polygon fill="#FFFFFF" points="281.6,306.6 281.3,306.7 281.6,306.9 		"/>
		<polygon fill="#FFFFFF" points="301,277.7 300.7,276.7 295.8,276.7 295.9,277.3 296.4,277.8 297.1,278.2 297.8,279 298.4,278.5
			298.8,278.7 299.1,279.2 301.1,277.8 		"/>
		<polygon fill="#FFFFFF" points="279.6,304.1 278.7,303.8 278.3,303.8 278,304.3 279.1,305.1 		"/>
		<polygon fill="#FFFFFF" points="277.1,303.6 277,303.1 276.7,302.4 276.6,302.8 276.3,303 276.2,303 277.1,303.6 		"/>
		<polygon fill="#FFFFFF" points="280.8,306.1 281.2,305.7 281.1,305.3 281.2,305.1 281.2,304.7 281.4,304.5 281.5,304.4
			281.6,304.3 281.6,304.1 281.1,304.5 280.1,305.6 279.9,305.6 280.8,306.3 		"/>
		<polygon fill="#FFFFFF" points="270,258.2 270,258.2 270.6,258.5 270.7,258.7 270.9,259.3 270.9,259.5 271.2,259.5 271.9,259.4
			272.2,259.5 273.3,260 271.3,254 		"/>
		<polygon fill="#FFFFFF" points="205.2,227.7 204.8,227.3 204.5,227.7 203.7,226.8 202.6,226.7 201.2,226.9 200,226.7 199.2,227.1
			198.4,227.7 198.9,227.8 200.1,227.7 200.5,227.8 201,228.1 202.9,228.6 202.6,228.8 202.2,229.1 201.9,229.3 201.9,229.6
			203.3,229.6 203.8,229.3 203.9,228.6 205.2,229.6 204.9,229.1 204.8,228.5 204.9,228 		"/>
		<polygon fill="#FFFFFF" points="176.6,221.5 177.3,221.5 178.1,221.2 176.9,221.2 		"/>
		<polygon fill="#FFFFFF" points="179.2,221.2 179.8,221.8 180.4,222.5 180.8,223.9 181.5,224.4 182.2,224.4 182.5,224 182.9,223.9
			185.4,224.1 186.4,224.6 188.1,225.2 189,225.7 189.1,225 189.3,224.9 189.7,225.1 190.2,224.5 190.5,224.2 190.9,224.1
			190.5,225.2 190.7,226.1 191.3,226.7 192.2,227 194.4,227.2 195.5,227.5 196.1,228 196.5,227.7 196.8,227.8 197,228.1
			197.1,228.6 198.3,226.4 198.9,226 200.2,226 200.8,225.7 201,225.1 201,224 200.7,222.9 200.1,222.4 199.2,222.4 197.5,223.1
			197,223.2 196,223.2 195.5,222.9 195,222.7 194.6,222.7 194.5,223.5 194.2,223.5 193.8,222.9 193.3,222.3 192.8,221.8
			192.2,221.5 191.1,221.2 179.2,221.2 		"/>
		<polygon fill="#FFFFFF" points="209.5,230.5 209.9,230.6 210.2,230.5 210.5,230.3 210.9,230.3 211.6,230.6 212.3,230.6
			213.6,230.6 213.2,229.9 212.7,228.2 212.6,227.5 212.3,227.1 210,226.3 208.5,228.2 208,229.4 208.9,229.9 209.2,230 		"/>
		<polygon fill="#FCD116" points="308.9,340 309.9,340.7 310.6,340.7 311.4,340.3 312.3,340.2 313.1,340.5 314.7,341.3 315.7,341.5
			316.8,341.6 317.8,341.8 318.8,342 319.1,342.2 319.6,342 320.1,342 321.4,342.2 323.5,342.1 327.5,341.5 332.8,341.8 333.5,342
			333.9,342.2 335.3,342.8 335.5,343 335.8,343.7 335.9,343.8 336.2,343.8 336.7,343.8 336.9,343.8 337.4,344.3 337.7,344.9
			338.1,345.3 338.7,345.4 340.7,345.1 341.7,345.3 344.7,346.7 348.1,347.5 349,346.9 350,346.3 351.8,345.8 355.4,345
			356.6,344.2 356.7,342.8 356.4,342.4 356.1,342.1 355.8,341.8 355.7,341.3 355.7,340.3 355.7,339.8 355.5,339.5 354.9,339.3
			354.8,338.7 354.9,338.1 354.7,337.6 354.4,337.4 352.8,336.9 351.8,336.3 351.3,336 350.7,336 349.9,336.2 349.4,336.2
			349.2,335.8 349.1,333.8 348.9,332.8 348.6,332 347.3,330.7 345.4,329.2 343.2,328.2 341.4,328.5 340.1,326.4 339.4,325.5
			337.5,324.9 336.5,323.5 335.5,323.1 335.2,322.9 335.2,322.9 306.1,337.4 306.7,337.8 		"/>
		<polygon fill="#FCD116" points="447.3,273.9 447.6,273.8 447.8,273.6 447.9,273.5 447.4,273.3 446.8,273.2 446.6,273.4 447,273.9
					"/>
		<polygon fill="#FCD116" points="388.5,328 388.2,327.6 387.6,327 386.5,324.5 385,322.5 384.8,321.8 384.5,321.3 382.9,320.3
			382.3,319.7 381.9,319.1 381.6,319.1 381.3,319.3 382.3,321 382.6,321.9 382.6,322.9 382.8,322.8 383.3,322.7 383.5,322.6
			383.7,323.6 384.1,324.4 384.2,325.1 383.5,326.5 383.4,327.1 383.5,328.2 383.5,330.9 383.5,331.8 388.8,329.1 388.8,329.1 		"/>
		<polygon fill="#FCD116" points="382,325.5 381.3,324.7 380.8,324.3 380.4,323.8 378.9,320.1 378.4,319.3 376.5,317.4 376.1,316.8
			376,316.3 376.5,316.1 376.9,316.3 377.1,316.8 377.4,317.1 378.1,316.7 377.5,316.2 377.2,314.5 376.9,314.1 376.7,313.8
			376.5,313.3 376.4,312.7 376.6,312.5 377.1,312.4 378.4,312.1 378.4,311.8 377.5,311.5 377.1,311.5 377.3,310.9 377,310.4
			376.4,310.3 375.8,310.5 375.6,310.2 375.3,309.9 374.4,309.6 375.7,308.6 375.8,308.4 375.7,307.9 375.4,307.6 375.1,307.4
			374.8,307.2 374.5,307.1 374.2,307.1 373.9,306.9 373.9,306.4 373.9,305.9 373.8,305.5 373.6,305.2 373.2,305 373.4,304.3
			373.3,303.8 359.3,310.8 359.7,311.3 362.4,312.5 363.5,313.4 363.6,313.8 363.5,314.6 363.6,314.9 363.9,315.1 364.7,315
			365.1,315.1 365.7,315.6 367,317.1 366.8,317.9 369,318.2 370.1,319.5 373.4,321.1 375.6,323.4 376.1,324.3 376.3,324.8
			376.3,325.7 376.5,326.2 376.7,326.6 378.6,329.1 378.9,329.8 379,330.6 379.5,330.6 381.9,332.3 382.2,332.4 383.4,331.8
			383.5,330.9 382.9,327.2 		"/>
	</g>

		<path fill="none" stroke="#999999" stroke-width="0.25" stroke-linecap="round" stroke-linejoin="round" stroke-miterlimit="10" d="
		M734.4,459l-0.5-0.1l-0.3,0.4l-0.3,0.4l0.2,0.4l0.8-0.3l0.3-0.2L734.4,459z M317.2,299l0.1-0.5l0.2-0.6l0.1,0.2l0.1,0.3l0.2-0.1
		l-0.1-0.5l-0.2-0.1h0l0.1-0.1l0.1,0h0.1v0l0.1,0.1l0.1,0.1l0.3,0l0.5,0.6l0.2,0.3l0.2,0l0.4-0.1l-0.3-1.1l-0.4-0.4l-0.5,0.1
		l-0.3,0.1l-0.3-0.2l-0.3,0.2l-0.1,0l-0.1,0.3l-0.2,0.2l-0.3,0.7l0.4,0.4L317.2,299z M411.3,362.4l-0.7-0.9l-0.3-0.6l-0.3,0.3
		l0.3,0.6l0.5,0.2v0.1l0,0.1l-0.2,0.1l0,0.1l0.1,0.2l0.1-0.1l0-0.2l0.3,0.3l-0.1,0.7L411.3,362.4z M434.2,389l-0.7,0.3l0,0.8
		l-0.2,0.3l-0.1,0.1l0.1,0.6l0.6,0.2l0.5-0.1l0.7-0.7l-0.3-0.9L434.2,389z M432.2,392.9l-0.1,0.2l0.4,0.3l0.9,0l-0.3-0.8
		L432.2,392.9z M293.8,136.5l-0.6-0.4l0.1,0.3L293.8,136.5z M296.3,137.6l-0.2,0.3l0.4,0.1L296.3,137.6z M287.8,134.8l0.3-0.1
		l-0.3-0.4l-0.6-0.4L287,134l0.3,0.5L287.8,134.8z M304,137.1l0.1-0.8l-0.2-0.4l-0.1,0.2l0.1,1.1L304,137.1z M130.2,197.6H130
		l-0.3-0.1l-1.2,0.4l-0.2,0.3l0,0.5l0.1,0.4l0.2,0.4l0.3,0.1l0.3-0.2l0.7-0.3l0.9-1l-0.1-0.4L130.2,197.6z M589.2,382.7l-0.3,0.1
		l-0.2,0.4l-0.2,0.6l-0.3,0.4l-0.1,0.3l0.2,0.2l0.5-0.2l0.2,0.2l0.2,0l0.1-0.2l0.1-0.2l0.2-0.1l0.2-0.3l-0.3-0.8L589.2,382.7z
		 M321.9,302.8l0.4-0.3l0.7,0.3l0-0.9l-0.3-0.6l-0.7-1l-0.7,0.1l-0.1,0.4l0.2,1.2l-0.2,0.7l-0.3,0.6l-0.1,0.5l0.6,0.4L321.9,302.8z
		 M310.1,412.5l-0.8-0.3l-0.8-0.1l-0.3-0.2l-0.3-0.1l-0.3-0.1l-0.4,0l0.8,0.9l0.8,0.4l0.9,0.2l1.1,0.5l-0.1-0.8L310.1,412.5z
		 M239.7,233.2l0.4,0.5l0.4,0.4l0.5,0.2l2.1,0.4l-0.2-0.6l0.1-0.4l0.3-0.3l0.5-0.2l-0.9-0.6l-1.1-0.4l-1-0.1l-0.6,0.5l-1.1-0.9
		l-0.6-0.2l-0.6,0.2l-0.3-0.5l-0.4-0.3l-0.5-0.2l-0.5-0.3l-0.4,0.1l-0.2,0.5l0.1,0.5l0.3,0.3l0.6,0.1l1,0.7l1.4,0.3L239.7,233.2z
		 M236.2,229.1l0.1-0.5l0.1-0.5l0.2-0.4l-0.1,0.1l-0.3,0.1l-0.2,0.1v-1.3l-0.9,0.2l-1.2,1.1l-0.5-0.1H233l-0.7,0.7v0.3l1,0l0.5,0.5
		l0.4,0.7l0.6,0.5l0.3-1.7l0.2,0.3l0.7,0.4L236.2,229.1z M652.7,341.2l0.6,0.2l0.2-0.1l-0.2-0.1L652.7,341.2z M657.3,344.4l0-0.1
		l-0.3-0.1l-0.2-0.2h-0.1l-0.1-0.2l-0.5-0.1l-0.3,0.3l0.2,0.3l0,0.4l0.3,0.2l0.1,0.2l0,0.1l0.1,0l0.1,0.2l0.4,0.4l0.1-0.3l0.2,0
		l0.1-0.4l-0.2-0.6L657.3,344.4z M446.8,273.2l-0.2,0.2l0.4,0.5l0.3-0.1l0.3-0.1l0.2-0.1l0.2-0.2l-0.6-0.2L446.8,273.2z M589,370.7
		l0.4-0.2l0.1-0.5l-0.4-0.6l-0.7-0.2l-0.3,0.2l-0.1,0.3l-0.1,0.5l0.3,0.5l0.3,0.1L589,370.7z M347.5,252.1l0.4,0.1l0.3-0.1l-0.6-1.7
		l-0.3-0.5l-0.3-0.3l-0.5,0.1l-0.2,0.6l0.3,0.6L347.5,252.1z M154.9,246.9l0.2-0.7l-0.5-0.4l-0.2-0.1l-0.4,0l-0.5,0.4l-0.4,0.5
		l-0.1,0.4l0.8,0.4L154.9,246.9z M647.2,427.5l-0.8,0.1l-0.6,0.6l-0.3,0.8l0.3,0.5l0.8-0.1l0.8-0.5l0.3-0.8l0-0.4L647.2,427.5z
		 M134.7,204.5l-0.4-0.2l-0.3-0.3l-0.7-1l0.2-0.6l-0.6-0.3l-0.8-0.2l-0.4-0.4l0.1-0.7l0.3-0.5l0.5-0.4l0.7-0.2v-0.3h-1l-1.3,0.8
		l-0.1,0.9l0.5,1l0.6,0.9l0.1,0l0.4,0.3l0.3,0.3l-0.3,0.1l-0.4,0.1l-0.2,0.2l-0.2,0.7l0.1,0.4l0.3,0.3l0.2,0.3l-0.2,0.4l-0.7,0.6
		l-0.8,0.5l0.5,0l0.4-0.1l0.4-0.2l0.3-0.4l0.1,0.2l0.1,0.2l0.1,0.2l0.1,0.3l0.6-0.5l0.4-0.6l0.2-0.7l0.1-0.7l0.5,0.3l0.5,0.1
		l0.5-0.1l0.5-0.3l-0.3-0.1L134.7,204.5z M167.2,258.9l-0.2-0.8h-1l-0.2,1.5l1.4,1.2l1.2,0.1l-0.8-2.1L167.2,258.9z M182.1,270.1
		l-0.3-1.6l-0.5-1.8l-0.1-0.6l-0.5-0.9l-1.2-0.3l-1.2-0.1l-0.6-0.5l-0.7,0.3l0.3,0.6l0.8,0.7l0.8,0.3l-0.2,0.1l-0.3,0.3l-0.2,0.1
		l1.9,0.4l0.9,1.6l0.7,1.8l1.4,0.8v-0.3l-0.7-0.3L182.1,270.1z M298.8,278.7l0.6,0.9l0.7,0.7l0.4,0.3l0.6,0.3l0.6,0.2l0.5,0.1
		l0.5-0.1l0.4-0.2l0.5-0.5l0.1-0.3l-0.5-0.5l-1.4-1.2l-0.5-0.7l-0.3-1l0.1-2.2l-0.4-0.8l-1.4-0.3l-1.3,0.1l-0.9,0.4l-0.6,0.8
		l-0.3,1.2l0.1,1.3l0.5,0.5l0.7,0.4l0.7,0.8l0.6-0.5L298.8,278.7z M309.8,307.9l-0.3,0.2l-0.2,0.1H309l-0.3,0.1l-0.3,0.9l0.1,0.9
		l0.4,0.8l0.7,0.3l0.6-0.4l0.1-0.9l-0.2-1.1L309.8,307.9z M281.2,304.7l0.1-0.2l0.1-0.1l0.1-0.1l0-0.2l-0.5,0.4l-1,1.1l-0.5,0.1
		l-0.8,1.7l-0.1,0.9l-0.1,1.3l2.1-1l0.7-0.8l0.1-1.1l-0.7,0.1l-0.2-0.2l0.1-0.4l0.5-0.5l-0.1-0.4l0.1-0.1V304.7z M399.4,362.8
		l0.2,0.1l0.3,0.1l0.2,0.2l-0.2,0.4l-0.2,0.3v0.3l0.2,0.2l0.3,0.1l1.1-0.5l-0.1-1.2l-0.8-1.3l-1-0.8l-0.7,0.5l0,0.6L399.4,362.8z
		 M409.8,341.8l0.6,1.1l0.7,0.6l0.2-0.8v-0.8l-0.6-3.9l-0.3-0.7l0.2-0.1l0.1-0.1l0.1-0.4l0.3-0.3l0.1-0.3l0-0.4l-0.6,0.3l-0.6,0
		l-0.6,0.1l-0.5,0.7l-0.1,0.6l0.6,3.3L409.8,341.8z M199.2,227.1l-0.8,0.5l0.5,0.1l1.2-0.1l0.4,0.1l0.5,0.3l1.9,0.5l-0.3,0.2
		l-0.4,0.3l-0.3,0.2v0.3l1.5,0l0.5-0.3l0-0.7l1.3,0.9l-0.3-0.5l-0.1-0.5l0.1-0.5l0.3-0.4l-0.3-0.3l-0.3,0.3l-0.8-0.9l-1.2-0.1
		l-1.4,0.2l-1.2-0.2L199.2,227.1z M246.8,237.3l-0.7-0.3l-0.7-0.1l-0.9-0.3l-0.8-0.4l-0.5-0.7l-1.2-0.2l-0.5-0.3l-0.4-0.3l-0.5,0
		l-0.3,0.2l0,0.3l0.3,0.5l-0.3,0.1l-0.4-0.1l-0.1-0.1l-0.3,0l-0.8-0.2l-0.5,0l-0.2,0.1l0.1,0.3l0.2,0.3l0.2,0.1l0.9,0.3l0.5,0.7
		l0.2,0.7l-0.1,0.3h1.1l1.2,0.3h0.5l-0.6-1.1l-0.1-0.5l1.8,1.1l0.9,0.2l0.5-0.6l0.3,0.6l0.5,0.7l0.7,0.4l0.8-0.1l0.1-0.5l-0.5-0.7
		L246.8,237.3z M613,363.2l-0.1,0.1l-0.3,0.1v-2.3l-0.2-0.3l0,0.9l-0.2,1l-0.3,1l0.1,0.3l0.3,0l-0.1,0.6l0.1,0.7l0.7-0.1l0.9-0.8
		l0.5-0.9l-0.6-0.4L613,363.2z M121.5,209.5l-1.4-0.3l-1.6-0.9l-1.7-1.4l-0.6-0.2l-0.1,0.3l0,0.3l0.2,0.4l-0.8,0.3l-0.3,0.9
		l-0.1,0.7l-0.4-0.2l-1.3,2.6l-0.1,0.6l0.3,0.2l1.4,0.4l0.3,0.2l0.6,0.5l0.4,0.2l0.9-0.4l0.8,0.1l0.8,0l0.8-0.7l0.6,0.1l0.9-0.1
		l0.8-0.2l0.3-0.3l0.2-0.8l0.3-0.6v-0.7l-0.6-0.8L121.5,209.5z M109.7,224.4l-0.5-0.5l-0.7-0.4l-0.7,0.1h-0.3l-0.3-0.1l-1.3,1.6
		l-0.3,0.9l0.8,0.4l2.4,0.2l1-0.2l1-0.9l-0.5-0.5L109.7,224.4z M180.9,261.5l0.4,0.2l0.2,0l0.4-0.1l1,1.1l1-0.6l0.8-1.3l0.7-2
		l0.1-0.8l-0.1-2.2l-0.5-2.3l-1-2l-1.6-1.7l-2.2-1.1l-1.1,0.1l-1.6,0.4l-1.5,0.6l-0.6,0.6l-0.2,0.4l-1.1,1.7l-0.4,1.1l-0.2,0.6
		l-0.1,0.6l0.7,2.3l1.9,2.8l2.4,2L180.9,261.5z M157.8,260.9l0-0.7l-0.2-1.2l-0.1-0.7l-0.2-0.9l-0.3-0.8l-0.6-1.1l-0.3-1.1l-0.2-0.5
		l-0.6-0.7l-0.7-0.6l-0.8,0.5l0,1l0.5,2.4l-0.3,2.3l0.1,1.1l0.7,1.1l1.2,3.5l0.4,0.6l0.8-0.4l0.5-1l0.2-1.1l-0.4-1L157.8,260.9z
		 M167.2,242.9l-0.4-0.7l-0.9-0.3l-1-0.6l-1.1-0.4l-1.1,0.4l-0.7-0.7l0.3-0.3l-0.9-0.3l-0.5-0.3l-0.4-1.1l-0.5-0.3l-0.5-0.2
		l-0.2-0.2l0-0.4l0-0.3l-0.1-0.1l-0.8-0.1l-0.1-0.1l0.1-0.2l-0.1-0.3l-0.6-0.5l-0.2-0.3l-0.1-0.4l-0.5,0.4l-0.4,0l-0.4-0.2l-0.6-0.1
		l-1.9,1.1l-1.3,1.8l-0.3,2.2l0.9,2.1l0.6-0.3l0.3,0.1l0.5,1.1l-0.1,0.2l0.1,0.1l0.4,0l0.1,0.1l0.8,0.3l0.3,0.3l0.6,1.3l0.3,0.2
		l0.5,0.3l0.4,0.3l0.2,0.3l-0.5,2l0.2,0.8l2.2,0.6l0.1,0.7l-0.2,0.9l0.1,0.9h0.3l0.5-0.3l0.5,0.1l0.4,0.3l0.1,0.2l0.6-0.2l0.3-0.4
		v-0.5l-0.5-0.6l-0.3-1.1l0.7-1.4l1.1-1.2l0.9-0.7l1.8-2.4L167.2,242.9z M185.8,269.2l0-1.3l-0.2-1.4l-0.3-1.2l-0.5-1l-0.9-0.9
		l-1-0.1l-1.1,0.1l-1.1-0.4l-0.1,0.3l0.1,0.2l0.2,0.1l0.5,0.1l-0.3,0.3l0.9,0.5l0.7,0.6l0.5,0.7l0.5,0.8l0.4,1.3l0.2,0.4l0.4,0.2
		l0.5-0.1l0.3,0.1l0.1,0.7H185.8z M192.2,282.7l0.3,0.1l0.2,0.1h0.3l0.2,0.1h0.2l0.3-0.3l0.1-0.2l0.1-0.3l0.1-0.2l0.1-0.2l0.5-1.6
		l0.7-0.8l0.1-0.3l-0.2-1.4l-0.5-1.2l-0.7-0.9l-0.9-0.6l-0.9,0l-1.4,0.9l-1.3,1.3l-0.9,1.8l-0.7,0.5l-1.3,0.7l-0.5,0.4l-0.4,0.5
		l-0.3,0.6l-0.1,0.7l0.4,0.6l0.9,0.7l1,0.6l0.7,0.2l0.5,0.4l1.3,1.7l0.3,0.5l0.1,0.4l-0.1,0.5l0.1,0.5l0.4,0.2l0.4,0.1l0.3,0.2
		l0.5,0.5l0.6,0.4l0.9,0.2l0.9,0l0.7-0.2v-0.3l-1.1-0.3l-1-0.7l-1.7-1.8l-0.3-0.6l0-0.8l0.3-1.4l0-1.1l0-0.2L192.2,282.7z
		 M229,280.7l-1-0.3h-1.2l-1,0.2l-0.5,0.3l-0.5,0.5l-0.5,0.3l-0.6-0.3l-0.3-0.4l-0.1-0.4l0.2-0.4l0.4-0.3v-0.3l-0.3-0.3l-0.1,0.2
		l-0.1,0.1l-0.3,0.1l-1.7,0.6l-0.3,0.3v0.7l0.3,0.5l0.1,0.5l-0.4,0.6l-0.1-0.5l-0.2-0.2l-0.3,0l-0.2,0.8l-0.5,0l-1.3-0.8l0,0.7
		l-0.2,0.4l-0.3,0.3l-0.2,0.3l-0.3,1.7v2.4l0.2,0.3l1.4,1.2l0.2,0.2l0.3,0.5l0.2,0.3l0.6,0.3l0.3,0.2l0.1,0.3l0.4,0.2l0.9,0.3
		l1.1,0.2l0.7-0.1l0.4-0.2l0.8-0.2l0.4-0.3l0.3-0.3l0.6-0.9l1.9-1.7l0.4-1.1l-1.1-1.1l0.4-0.2l0.3-0.3l0.6-0.8l-0.5,0.1l-0.2,0.1
		l-0.3,0.2l-0.4-0.2l-0.9-0.1l-0.3-0.3l0.1-0.3l0.9-0.4l0.2-0.2l0.2-0.4l0.4,0l0.5,0l0.4-0.1l0.4-0.4l0.1-0.3l-0.1-1L229,280.7z
		 M234.2,291.6l-0.1-1.1l-0.3-1.1l-0.4-0.7v-1H233l-0.1,0.7l-0.1,0.6l-0.2,0.6l-0.2,0.4l-1.4,1.1l-0.2,0.4l-0.3,1.2v0.6l0.5,0.2
		l0.2,0.3l0.9,1.4l0.8-0.3l1-0.8l1.1-0.3l0.2-0.3l0.2-0.3l0.1-0.5l-1.3-0.5L234.2,291.6z M205,290.4l-0.3-0.2l-0.3-0.5l-0.5-0.4
		l-0.8-0.2l-0.2-0.1l-0.2-0.2l-0.3-0.3l-0.4-0.1l-0.3,0.1l-0.3,0.3l-0.4,0.6l-0.3-0.4l-0.7,0.3l-0.8,0l-1.7-0.3l-0.2,0.8l1.2,0.8
		l2.5,1.1l2.3,0.6l1.7,0.9l0.4,0.1l1.3-0.5l0.1-1l-0.7-1L205,290.4z M214.9,282l2.9,1.1l-0.2-0.4l-0.1-0.4l-0.1-0.4l0-0.5l0.1-0.5
		l0.1-0.3l0.9-1.6l0.2-0.4l0-0.5l-0.2-0.4l-0.3-0.1l-0.3,0l-0.2-0.1l-0.3-0.8l-0.3-1.6l-0.4-0.8l-0.3-0.3l-0.7-0.6l-0.3-0.4
		l-0.1-0.4l0.1-1.2l-0.5-0.7l-1.2-0.8l-0.6-0.8l-0.2-1l-0.1-0.3l-0.3-0.4l-0.2-0.2l-1.3-1l-0.8-0.3l-0.8,0l-0.9,0.2l-0.4,0.1
		l-0.6,0.4l-0.3,0.1l-0.4-0.1l-0.3-0.2l-0.3-0.1l-0.3,0.3l-0.1-0.5l0.2-0.5l0.1-0.6l-0.4-0.8l-1.1-0.9l-0.1-0.6l0.4-0.9l-0.3-0.7
		l-0.1-0.9l0.1-1.8l-0.2-0.8l-0.3-0.5l-0.1-0.6l0.3-0.8l-1.3-0.1l-3.3-1.8l-0.2,0h-0.1l-0.1-0.1l0-0.2l-0.7,0.3l-1.4,0.4l-0.8,0.3
		L196,255l-2,2l-0.5,0.6l-0.7,1.6l-0.5,0.7l-1,1.3l-0.3,0.6l0.2,0.6l-0.2,0.5l0,1l-0.1,0.4l-0.3,0.3l-0.4,0.1l-0.3-0.2l-0.2-0.6
		l-0.4,0.4l-0.5,0.2l-0.5,0.1h-0.7l-0.3,0.2l-0.7,0.9l-0.1,0.3l0.3,4.4h0.3l0.5-0.2l1.6,0.9l0.8,0.2l1-0.5l0.5-0.9l0.3-0.9l0.4-0.7
		l0.5-0.1l1.7,0.2l1.6,0l0.2-0.1l0.4-0.2l0.1,0l0.7-0.3h0.4l0.5,0.3l0.3-0.6l0.3,0.1l0.3,0.3l0.3,0.2l0.7-0.1l0.5-0.2l0.4-0.1
		l0.6,0.1l0.8,0.7l0.7,1.1l0.5,1.2l0.5,1.5l1.1,1.1l0.3,0.5l-0.2,0.6l-0.3,0.5l-0.3,0.1l-0.1-0.5l-0.3-0.4l-1.1-0.3l-0.2-0.6
		l-0.1-1.3l-0.2-0.5l-0.3-0.5v2.9l0.1,0.6l0.4,1.1l0.1,0.7l0.2,0.2l1.1,1.3l2.1,1.4l1.2,0.5l2.6,0.2l1.2,0.7l1.1,1.1l0.4,0.7
		l0.2,0.7l0.2,0.2l0.4,0.3l0.3,0.5l0.1,0.8h0.3l0.3-0.9l-0.1-0.8l-0.5-0.6l-0.6-0.4v-0.3L214.9,282z M321.8,304.7l-0.4,0.1l0.1,0.3
		l0.2,0.3l0.3,0.2l0.4,0.1l0.3,0.2l0.1,0.4l0,0.4l0.1,0.3l0.7,0.3l0.9,0.2l0.9,0l0.7-0.3l0.7-0.2l0.6,0.5l0.8,1.3h0.3l-0.2-0.7
		l-0.1-0.3l0.6,0l0.4,0.3l0.3,0.4l0.1,0.6l0.4-0.1l0.2,0l0.2,0.2l0.2,0.3l0.7-0.7l0.7-1.2l0.3-1.3l-0.3-1l-0.8-0.8l-0.9-0.7
		l-0.8-0.1l-0.5,0.8h-0.3l-0.7-0.9l-0.8-0.1l-0.9,0.1l-0.8-0.4l-0.3-0.2l-0.1,0l-0.2,0.2l0.2,0.4l0.1,0.3l-0.1,0.3l-0.2,0.4
		l-0.3-0.3l-0.5,0.7l-0.9,0.3L321.8,304.7z M331.2,309.6l-0.4,0.4l-0.5,0.4l-0.5,0.2l-1.1,0l-0.4,0.2l-0.3,0.5l0.6,0.1l0.3,0.2
		l0,0.3l-0.2,0.4l1-0.1l1.1-0.2l0.7-0.4l-0.2-0.6l0.9-0.3l1,0.3l0.9,0.6l1,0.3l0.4-0.3l0.6-0.4l0.7-1.3l0.6-0.6l-0.4-0.3l-0.4-0.2
		l-0.5-0.1h-0.7l-0.5-0.3l-1.3-2.3l-0.8-0.1l-0.5,1l-0.6,2.3L331.2,309.6z M278.7,303.8l-0.4,0.1l-0.4,0.5l-0.2,0l-0.5-0.4l-0.1-0.4
		l-0.1-0.5l-0.3-0.6l-0.2,0.4l-0.3,0.2l-0.4,0l-0.5-0.2h-0.7l0.4,0.3l0.3,0.4l0.2,0.4l0.1,0.5l-0.8-0.2l-0.2-0.1v0.6l-0.6-0.3
		l-0.5,0.1l-0.1,0.5l0.3,0.6l-1.5,0l0,0.6l1.2,1.7l0.5-0.4l0.4,0.3l0.3,0.5l0.4,0.3l2.2-0.7l0.7-0.7l1.6-3.2L278.7,303.8z
		 M383.8,334.8l0.7,1.2l0.8,1.1l0.8,0.8l0.5-0.8l0.3-1.3l0.5-0.2l0.5,0.3l0.3,0.5l0.5,1.2l1.9,2.1l0.2,1l0.4-0.2l0.5-0.8l0.2-1.1
		l-0.1-1.1l-0.7-1.6l-0.2-0.8l0.1-1.7l-0.1-0.8l-0.3-0.9l-0.6-1.1l-0.4-0.5l-0.5-0.5l-0.4-0.5l-0.3-1.1l-0.3-0.4l-0.6-0.7l-1.2-2.4
		l-1.4-2l-0.2-0.7l-0.3-0.5l-1.6-1l-0.6-0.7l-0.4-0.6l-0.2,0l-0.3,0.3l1,1.7l0.3,0.9v1l0.2-0.1l0.5-0.1l0.2-0.1l0.1,1l0.4,0.8
		l0.1,0.7l-0.7,1.4l-0.1,0.6l0.1,1.1v2.8v2.9L383.8,334.8z M341.4,433.5l-5.2-3.8l-1.9-0.9l-2.1-0.6l-1-0.5l-1.4-1l-1.7-0.8l-1.4-1
		l-2.6-1.3l-0.9-0.6l-0.9-0.8l-0.5-0.2l-1.1,0.1l-0.5-0.1l-0.5-0.2l-0.5-0.3l-0.7-0.7l-0.2,0l-0.2,0l-0.2-0.1l-0.1-0.2l-0.3,0.6
		l-0.9,0.9l-0.3,0.6l-0.3,0.8l0.1,0.2l0.4,0.4l0.2,0.3l0.2,0.7l1.4,1.7l0.6,0.5l0.8,0.2l0.5-0.2l0.7-0.3l0.7-0.1l0.9,0.6l-0.1,0.2
		l-0.2,0.5l0.9,0.3l1.8,1l0.8,0.3l1,0.1l0.5,0l0.4-0.1l0.3-0.3l0.5-0.8l0.2-0.2l0.5-0.1l0.5,0.1l0.5,0.1l0.4,0.2l0.5,0.4l0.1,0.4
		l0,0.4l0.1,0.5v0.3l-0.1,0.3l0.1,0.3l0.6,0.3l0.5,0.1l1,0.1l0.5,0.1l1,0.7l0.4,0.9l0.5,2l0.3,0.3l1.8,1.2l0.3,0.1h0.3l0.7-0.3
		l0.5,0.5l0.5,0.8l0.6,0.6l0.7,0l0.3-0.3l0.4-1l0.3-0.3l0.5-0.2l0.4,0.1l0.4,0.1h0.5l1.1-0.8l-0.8-1.1L341.4,433.5z M209.2,230
		l0.3,0.4l0.3,0.1l0.4-0.1l0.3-0.1l0.3-0.1l0.8,0.3l0.7,0l1.3-0.1l-0.4-0.7l-0.5-1.7l-0.1-0.7l-0.3-0.3l-2.3-0.8l-1.5,1.9l-0.5,1.2
		l0.9,0.5L209.2,230z M608.2,382.9l-0.6-0.1l-2.2,0l-0.3-0.1l-0.2-0.2l-0.1-0.2l-0.2-0.1l-0.8-0.1l-1.5,0.3l-4.9,0.2l-1.4,0.4
		l-1.1,0.6l-0.7,0.8l-0.4,1.3l-0.3,1.5l-0.2,0.1l-0.4-0.5l-0.5-0.7l-0.2-0.5H592l-0.1,0.3l-0.2,0.1l-0.2,0.1l-0.2,0.2l-0.9,1.5
		l0.8,2.2l1.6,1.2l1.4-1.6h0.3l0.4,0.6l0.2,0.6l0.1,1.5l1.2-0.9l2.6-3.6l0.7-0.4l0.5,0.1l0.5,0.3l0.7,0.1l1-0.8l0.3-0.1l-0.4,0.8
		l1.4,0.3l1.9-0.3l1.6-0.8l0.7-1.1l-1.6,1l0.4-0.9l0.8-0.9l0.9-0.8l0.9-0.6l-0.4-0.5L608.2,382.9z M628,413l-0.3-0.2l0.5-0.5
		l-0.4-0.6l-0.8-0.4l-0.9,0.2l-0.2-0.3l-0.3-0.1l-0.3,0.1l-0.4,0.2l-0.7,1.2l0.5,0.3l0.5,0l0.5-0.2l0.5-0.3l0.1,0.5l-0.1,0.4
		l-0.1,0.4l-0.2,0.4l-0.6-0.2l-0.5,0.5l-0.1,0.7l0.7,0.3l2.4-0.4l-0.2-0.2l-0.1-0.2l-0.1-0.1l-0.3-0.1l0.4-0.2l0.4-0.2l0.4-0.1
		l0.4-0.1l-0.4-0.6L628,413z M643.5,429l-1.1-0.1l-0.3-0.3v-0.7l0.2-1.5l-0.3-0.3l-0.6-0.3l-0.7-0.2l-0.5-0.1h-2.6l-0.4,0.2
		l-0.7,0.9l-0.4,0.3l1.5,1.7l1.4,2.1l0.7,0.3l0.6-0.7v0.7l0.3,0.4l0.6,0.1h0.7l2.6-0.7l0.7-0.9l-0.5-0.6L643.5,429z M356.1,342.1
		l-0.3-0.3l-0.1-0.5l0-1l0-0.5l-0.2-0.2l-0.6-0.2l-0.1-0.6l0-0.7l-0.1-0.5l-0.4-0.2l-1.6-0.4l-1-0.7l-0.5-0.2l-0.6-0.1l-0.8,0.2
		l-0.5,0l-0.2-0.4l-0.1-2l-0.2-1l-0.3-0.8l-1.2-1.4l-2-1.5l-2.2-0.9l-1.8,0.2l-1.3-2l-0.8-0.9l-1.9-0.7l-1-1.3l-0.9-0.4l-0.3-0.2
		l-0.2-0.2l-0.1-0.1l-0.3,0.1l-0.5,0.2l-0.2,0.1h-3.6l-0.3-0.1l-0.4-0.3l-0.3,0l-0.3,0.1l-0.4,0.4l-0.3,0.1l-0.9-0.1l-1.5-0.4
		l-1-0.1l-0.5,0.1l-0.8,0.7l-0.5,0.2l-0.5,0l-0.5-0.1l-1-0.3l-1.1-0.4l-0.6-0.1l-0.4,0.1L319,323l-0.4,0.3l-0.5,0.2l-0.5,0l-1.8,0.1
		l-1-0.1l-0.9-0.3l-0.6-0.5l-0.6-0.8l-0.5-0.8l-0.2-0.7l-0.3-0.4l-1.9-1.4l-2.6-2.3l-1.7-1.1l-1.6-0.5l-3,1.8l-0.8,0.2l-0.7,0.3
		l-0.3,0.7l-0.1,1.6l-0.5,0.5l-0.2,0.3l0.2,0.1l0.5,0.5l0,0.5l0.2,0.6l0.1,0.5l-0.3,1.2l0,0.6l0.2,0.5l0.7,1l0.1,0.5l-0.3,0.5
		l-0.4,0.3l-0.6,0.3l0.1,0.4l0.3,0.3l0.7,0.5l0.8,0.8l0.7,0.9l0.6,1l0.4,1.1v0.5l-0.1,0.4l0.2,0.3l0.8,0.1l0.3,0.2l0.1,0.4l0.1,0.5
		l0.2,0.4l0.3,0.2l0.4,0.1l0.2,0.2l0,0.2l-0.1,0.6l0.1,0.2l1.3,0.7l0.8,0.5l2.2,2.2l0.9,0.7l0.8,0l0.8-0.3l0.9-0.1l0.7,0.3l1.6,0.8
		l1,0.2l1,0.1l1.1,0.3l1,0.1l0.3,0.2l0.4-0.1h0.5l1.3,0.1l2.1,0l4-0.6l5.3,0.3l0.7,0.2l0.4,0.3l1.4,0.6l0.2,0.2l0.3,0.6l0.1,0.2
		l0.2,0l0.5-0.1l0.2,0.1l0.4,0.5l0.3,0.5l0.4,0.4l0.6,0.1l1.9-0.3l1,0.2l3,1.4l3.4,0.8l0.9-0.7l1-0.5l1.8-0.6l3.6-0.7l1.2-0.8
		l0.1-1.4l-0.3-0.5L356.1,342.1z M429.9,389.9l-1.5-0.3l-1.9,0.1l-1.5-0.3l-0.3-1.2l0.2-0.3l0.3-0.3l0.4-0.3l0.3-0.1l0.1-0.3l0-2.7
		l-0.2-0.8l-0.5-0.6l-1.7-1.1l-0.6-0.5l-0.4-0.7l-0.2-1.6l-0.2-0.2l-0.3-0.1l-0.3-0.3l-0.2-0.3l-0.9-2.6l-0.4-0.8l-0.5-0.3l-0.5-0.4
		l-1.3-1.8l-0.9-0.4h-0.5l-0.4,0.1l-0.3,0.3l-0.2,1l-0.3,0.1l-0.8-0.2l-1.5,0.2l-0.6-0.2l-0.5-0.4l-0.7-0.9l-0.4-0.4l-0.7,0.3
		l-0.8,0l-1.8-0.6l-0.7,0.4l-1.1,0.2l-1,0l-0.5-0.5l-0.3-0.4l-1.4-0.9l-0.6-0.2l-0.6-0.1l-0.7,0.1l-0.7-0.1l-0.7-0.4L398,368
		l-0.6-0.4l-0.9,0.3l-2.8-2.3l-5.1-3.2l-5-2.2l-2.6,0.5l-0.2-0.3l-0.3-0.1l-0.3-0.1l-0.3-0.1l-0.9,0.3l-0.4,0.9l0,1l0.3,0.7
		l-0.2,0.1l-0.1,0.1l-0.1,0.2l-0.2,0.2l0.2,0.5l-0.4,1l0.2,0.7l0.4,0.3l0.5,0.2l1.2,0.2l0.3,0.2l0.3,0.1l0.4-0.1l0.2-0.2l0.2-0.2
		l0.3-0.1l1-0.1l0.7,0l0.3,0.2l0.2,0.4l0.6,0.1h1.3l0.6,0.1l0.3,0.3l0.2,0.3l0.3,0.3l0.3,0l0.8-0.1l0.3,0.1l0.3,0.3l0.1,0.2
		l-0.3,0.1l-0.3,0.2l-0.3,0.5l-0.5,1.2l0.8,0.3l0,0.7l-0.4,0.8l-0.4,0.6l0.5,0l1-0.2l0.3,0l0.2,0.5l0,0.5l0.1,0.5l0.5,0.3l-0.9,3
		l0.7,0.2l0.7,0.1l0.6-0.1l0.4-0.5l0.4,0.3l0.3,0.3l0.1,0.3l-0.1,0.4l0.4,0.1l0.3,0.2l0.2,0.3v0.4l0.9,0.9l0.5,0.3l0.2-0.4l0.3-0.2
		l0.6,0.4l0.6,0.6l0.2,0.3l0.7,0.2l0.3,0.4l0.1,0.5l0.3,0.5l0.6,0.2l0.6-0.1l0.6,0.1l0.4,0.6l-0.1,0.3l0.2,0.5l0.4,0.3l0.5-0.2
		l0.2,0.3l0.3,0.4l0.1,0.3l0.7-0.2l0.5,0.1l1,0.8l0-0.3l0.3-0.7l0.4,0.8l0.3,0.3l0.5,0.1l0.2,0.1l0.5,0.5l0.3,0.1l0.6-0.1l0.3-0.1
		l-0.1-0.1l2,0.6l0.5,0.3l0.4,0.1l1.4-0.5l0.6-0.1l0.4,0.2l0.7,0.6l2.1,0.8l0.3,0.3l0.3,0.3l0.3,0.3l0.5,0.1l1.3,0l0.6,0.1l0.6,0.3
		l1-0.9l1.1-0.1l3.4,1.3l0.7,0.1h0.8l0.5,0.1l0.3,0.2l0.7-0.3l0.6,0l0.5,0.2l0.6,0.1l0.6-0.3l0-0.6l-0.3-0.4L429.9,389.9z
		 M378.9,329.8l0.1,0.8l0.5,0l2.4,1.7l0.7,0.3l0.5-0.1l0.3-0.6l0.1-1l-0.6-3.8l-0.9-1.6l-0.7-0.9l-0.5-0.4l-0.4-0.4l-1.5-3.7
		l-0.5-0.7l-1.9-1.9l-0.4-0.6l-0.1-0.5l0.5-0.3l0.4,0.2l0.2,0.5l0.3,0.3l0.7-0.3l-0.6-0.5l-0.3-1.7l-0.3-0.4l-0.3-0.3l-0.2-0.5
		l0-0.6l0.2-0.3l0.5,0l1.3-0.3v-0.3l-0.9-0.3l-0.4,0l0.2-0.7l-0.3-0.4l-0.5-0.1l-0.6,0.3l-0.2-0.3l-0.3-0.3l-0.9-0.4l1.2-0.9
		l0.1-0.2l-0.1-0.5l-0.3-0.3l-0.3-0.2l-0.3-0.2l-0.3-0.2h-0.3l-0.2-0.1l-0.1-0.5v-0.5l-0.1-0.4l-0.2-0.3l-0.4-0.2l0.2-0.7l-0.3-0.7
		l-0.5-0.6l-0.6-0.2l-0.4-0.3l0.1-0.5l0.5-0.4l0.6,0.2l-0.8-1.2l-1.1-1.1l-1.2-0.8l-1.1-0.5l-0.1,0.1l-0.2,0.1h-0.3l-0.4-0.2
		l-0.3-0.4l0.1-0.3l0.2-0.3l0-0.3l-0.4-0.5l-1.3-1l-0.4-0.2l-1.1,0.5l-0.7,0.1l-0.3-0.5l-0.2-0.4l-0.9-0.8l-0.2-0.7l-0.1-0.7
		l-0.1-0.6v-0.6l0.8-1.3l0-0.6l-0.2-0.6l-0.3-0.6l0.9-0.5l1.1-0.4l0.9-0.6l0.4-1l-0.2-0.9l-0.5-0.9l-1.1-1.5l-1.9-1.6l-2.4-2.6
		l-1.6-2.4l-0.2-0.1l-0.6-0.4l-0.1-0.2l0-0.5l-0.1-0.4l-0.2-0.6l-0.5-0.9l-0.5-0.4l-0.5-0.3l-0.6-0.5l-0.9-1.3l-0.6-0.3l-1.1,0v-0.3
		l-0.4-0.1L351,270l-0.3,0.3l-0.1,0.3l1.5,1l0.1,0.4l-0.3,0.4l-0.5,0.3l-0.5,0.1l-0.4-0.1l-0.9-0.9l-1.8-0.7l-1.7-0.2l-1,0.7
		l0.6,2.1l0.5,0.7l1.6,1.6l0.6,0.3l0.2,0.5l1.9,2.4l1.1,2.5v0.4l-0.9,0.2l-1.4,1.2l-0.8,0.6l1.5,3.4l0.1,0.4l0,2.6l0.2,0.6l1.9,3.9
		l0.7,1l0.7,2.4v0.7l0.3,0.3l0.1,0.3l-0.1,0.3l-0.3,0.4l0.7,1.1l0.8,2.3l3.4,6.3l1,1.1l2.7,1.2l1.1,0.9l0.1,0.3l-0.1,0.8l0.1,0.3
		l0.3,0.2l0.8,0l0.4,0l0.7,0.5l1.3,1.5l-0.2,0.8l2.2,0.3l1.1,1.3l3.2,1.6l2.2,2.3l0.5,0.8l0.2,0.5l0.1,0.9l0.1,0.5l0.2,0.4l1.9,2.5
		L378.9,329.8z M175,219.1l0.9,0.4l0.7,0.6l0.4,0.8l-0.4,0.7l0.7-0.1l0.9-0.4l0.4-0.2l0.6,0.3l0.6,0.6l0.5,0.7l0.5,1.4l0.7,0.5
		l0.7,0l0.3-0.5l0.4-0.1l2.5,0.2l1,0.5l1.7,0.6l0.9,0.5l0.1-0.7l0.2-0.1l0.4,0.2l0.6-0.6l0.3-0.2l0.4-0.1l-0.4,1.1l0.2,0.9l0.7,0.6
		l0.9,0.3l2.1,0.2l1.1,0.3l0.6,0.5l0.4-0.2l0.3,0l0.2,0.3l0.1,0.5l1.2-2.2l0.6-0.3l1.3-0.1l0.6-0.3l0.2-0.6V224l-0.2-1.1l-0.6-0.5
		l-0.9,0.1l-1.7,0.6l-0.5,0.1h-1l-0.5-0.2l-0.5-0.3l-0.4,0l-0.1,0.8h-0.3l-0.3-0.6l-0.5-0.6l-0.6-0.5l-0.5-0.3l-1.4-0.4l-0.6-0.3
		l-0.3-0.4l-0.1-0.6l-0.3-0.8l-0.5-0.7l-0.6-0.3l-0.9-0.1l-0.8-0.4l-0.6-0.6l-0.4-0.8l-0.3,0.2l-0.7,0.5l-0.3-0.9l-0.4-0.6l-0.5-0.5
		l-0.5-0.6l-0.8-1.8l-0.5-2.1l-0.1-2l-0.1-0.8l-0.4-0.7l-1.8-1.5l-1-1.4l-0.5-0.4l-0.5-0.1l-0.6,0l-0.4-0.1l-0.2-0.3l-0.2-0.6
		l-0.5-0.3l-0.6-0.2l-0.8-0.4l-1.7-0.3l-2-0.9l-3-2l-2-0.5l-2.1-1.4l-0.7-0.6l-2.4-2.8l-1.3-0.9l-1.8-0.5l-0.2,0.1l-0.5,0.2l-0.4,0
		l-0.2-0.4l-0.1-0.4l-0.3-0.2l-0.3-0.2l-0.6-0.6l-0.9-0.3l-1.1-0.1l-0.8,0.1l-1.6,1.3l-0.3,0.7v1l0.4,2.6l0.3,0.7l1,0.8l0.1,0.2
		l5.3,4.6l0.6,0.3l0.7,0.2l2.2,1.2l0.8,0.5l1.7,2.8l0.5,0.5l0.6,0.4l1.9,2.6l0.5,1l0.4,0.4l0.6,0.2l0.4,0.2l0.2,0.5l0.1,0.6l0.2,0.4
		l4.4,5.2l0.7,0.6l0.7,0.2L175,219.1z M300,272.5l2.2,1.9l0.5,0.3l0.7,0.1l0.1,0.3l-0.1,0.4l0.1,0.5l0.5,0.5l1.5,1.1l0.7,0.9
		l0.3,0.3l1,0.3l0.6,0.9l0.8,0.3l0.1,0.3l0.1,0.3l0.2,0.2l0.2,0l0.5-0.1l0.2,0l1.5,0.9l0.4,0.1l0.6-0.5l-0.5-0.8l-1.4-1.1l0-0.9
		l-0.1-0.7l-0.4-0.7l-1.4-1.9l-0.4-0.4l-0.4,0.4l-0.4,0.2h-0.4l-0.4-0.8l-0.7-0.5l0-0.3l0.4-0.3l0.5-0.1l0.5,0.1l0.4,0.3l0.4-0.3
		l1-1.4l1-1l-0.2-0.5l-9.1-6.8l-4.4-2.6l-2.2-1.8l-0.1-0.1l-0.1-0.4l-0.1-0.1l-0.5-0.2l-0.1-0.1l-0.6-0.5l-1.3-0.7l-0.8-0.6
		l-0.5-0.8l-0.4-1l-0.5-0.5l-0.7,0.5l-0.4-0.3l-0.4-0.2l-0.9-0.4l-0.3,0.6l-0.6,0.2l-1.6-0.1l-0.5-0.4l-0.4-0.7l-0.5-0.4l-0.8,0.6
		l-0.2-0.6L282,253l-0.4-0.2l-0.8-0.1l-0.5-0.2l-0.5-0.4l-0.1-0.4l0.6-0.3l-1-0.3l-0.9-0.1l-0.9,0.2l-1.1,0.5l-1.3-1l-0.7,0.3
		l-0.3-0.4l-0.2-0.7l-0.3-0.6l-0.6-0.4l-1.9-0.8l-0.7,0.3l-0.8-0.4l-0.3-0.9l0.5-0.9l-1-0.5l-1.4-1.2l-0.8-0.5l-1.7-0.6l-0.6-0.3
		l-0.4-0.4l-0.7-1l-0.9-0.5l-0.8-1.4l-0.3-0.3l-0.5-0.2l-0.6-0.4l-0.9-0.9l-0.3-0.5l-0.1-0.6l-0.3-0.5l-0.6-0.2l-0.3,0.1l-0.3,0.3
		l-0.3,0.3l-0.2,0.3l-1.8-0.8l-0.7-0.6l-0.3-0.9l-0.2,0.1l-0.1,0.1l-0.1,0.1l-0.2,0.2l-0.7-0.2l-0.5,0.5l-0.4,0.5h-0.5l-0.4-0.3
		l-4.7-1.6l-1-0.6l-0.8-0.1l-0.3,0.5l0,0.8l0.4,0.8l2.4,1.3l3.7,3.1v1.9l-0.1,0.5l-0.1,0.5l0,0.5l0.2,0.7l0.7,0.6l2.1,1.1l0.5,0.8
		l0.8-0.2l0.8,0.3l0.7,0.6l0.5,0.6l0.7,1.7l0.5,0.6l0.5-0.6h0.3l0.5,0.4l0.5,0.6l-0.3,0.7l0.7,0.4l1.4,0.3l0.8-0.2l0.4,0.8l0.3,1.8
		l2.8,1.3l0.9,0.1l0.7,0.5l0.4,0.7l0.1,0.9l1-0.5l0.3-0.2l0.1,0.7l0.3,0.3l0.4,0.1l0.5,0.3l0.1,0.2l0.2,0.6l0,0.1l0.3,0l0.7-0.1
		l0.3,0l1.3,0.6l0.3,0l0.2-0.2l0.2-0.2l0.4,0l0.1,0.2l0,0.4l0,0.4l0.2,0.3l0.3,0.1l0.7-0.1l0.3,0l4.4,3.2l1,0.5l1,0.2l1-0.3l0.1,0.7
		l0.4,0.4l0.6,0.2l0.7,0.1l0.5,0.3l0.4,0.6l0.5,1.1l0.8-0.2l0.9,0.3l1.6,0.9l0.6-0.2l0.8,0.2l0.8,0.4l1.1,0.9l1.2,0.5l1.7,1
		L300,272.5z"/>
</g>

</svg>
