<?xml version="1.0" encoding="utf-8"?>

<svg version="1.2" baseProfile="tiny" xmlns="http://www.w3.org/2000/svg" xmlns:xlink="http://www.w3.org/1999/xlink" x="0px"
	 y="0px" viewBox="229.3 172 381.2 250" xml:space="preserve">

<g id="Slovenia">
	<g>
		<polygon fill="#EC2227" points="254.2,346.1 253.8,352 255.6,355.7 258.9,357.5 263.2,358 265.2,358.6 271.1,363.1 279.4,366.9
			289,383.2 290.2,384.5 292.1,385.6 293.1,385.6 293.3,386 292.4,388.3 287.6,394.3 282,394.9 277.3,392.3 271.4,392.9 273.2,395
			275,397 276.3,398.8 276.3,399.9 256.5,402.8 253.9,402.1 254.4,403.7 255.1,404.7 256.1,405.5 257.3,405.6 257.3,406.7
			256.5,408.5 256.8,410.1 256.5,410.8 261.2,416 277,415.2 282.8,418.9 284.5,420.5 286.3,421.1 292.8,422 294.2,421.1
			295.2,419.5 297.1,417.8 302.7,415.4 304.2,413.2 301.6,410.2 301.6,408.4 302.1,407.2 303,406.6 308.2,407.6 309.8,408.5
			311.5,410.2 314.5,412.3 317.7,413.4 320.9,413.5 324.1,412.9 329.9,410.2 332.9,409.3 335.6,409.9 340.5,412.5 346.1,413.5
			351.6,413.1 356.3,410.4 358.6,408.2 363.3,404.7 365,401.8 365.6,399.4 366.2,394.9 366.9,392.6 368,390.9 371,387.4
			372.2,385.6 373.8,382.1 374.7,381 376.7,380.1 378,380.9 378.3,383.5 378.2,386.7 378.3,388.9 379.4,391.1 380.9,392.7
			385,396.1 385.9,396.4 386.7,396.8 387.4,397.7 387.6,399.1 387.1,402.1 387.1,403.1 389.6,405 400.8,410.1 402.6,414.7
			407.6,415.8 412.8,414 415.1,410.1 415.5,406.4 417.7,406.4 420.4,408.2 422.5,410.2 425.4,410.5 426.8,411.1 428,412.2
			433.9,412.3 443.9,420.8 449.4,421.6 461.1,417.2 465,417.2 466.4,416.9 467.5,416 469.6,412.9 470.8,411.9 464.7,407.8
			463.1,404.9 462.2,401.2 461.4,396.7 460.6,394.5 459.7,392.7 459.6,391.4 461.1,390.6 461.8,389.9 462.3,388.5 463.1,387.3
			466.6,386.2 468.1,385.4 469.8,384.8 472.2,384.8 471.6,383.3 469.6,380 467.5,377.4 467.2,377.1 466.7,377.2 465.2,377.7
			464.6,378.2 464.4,378.9 464,379.2 462.5,378.6 461.4,377.8 460.8,376.9 459.6,374.7 458.4,373.4 457.5,373 457.2,372.2
			457.9,370.3 459,369 463.8,366.3 479,361.3 480.5,360.1 480.4,358.4 479.9,356.6 480.5,354.9 481.9,354.3 483.3,354.5
			484.6,354.9 486,355.2 487.2,354.8 489.5,352.9 490.7,352.3 498.5,353.7 502.9,354 505.1,353.4 507.6,352 508.8,350.2
			508.8,347.8 507.4,344.3 507,342.2 507.4,340 507.4,340 256.9,340 		"/>
		<path fill="#005EA5" d="M374.1,255.9l-2.1,0.9l-1.7-1.7l-0.5-1.1h-47.7l-0.3,4.5c-1.2,18-13.4,33.3-30.7,38.5
			c-17.2-5.2-29.5-20.5-30.7-38.5l-0.3-4.5h-9.7l-0.9,1l-5.6,3l-2.9,2.1l-1.5,0.8l-1.7,0.1l-1.4,1.5l-1.7,3.6l-2.3,3.8l-3.2,2
			l0.9,1.7l0.8,2.1l0.8,4.4l1.7,2.1l0.4,2.4l1.1,1.5l3.3-0.5l-1.7-3l1.8,0.6l3.6,0.3l1.7,0.9l3.3,0.8l2.3,1.7l3.7,3.6l3,0.5l3.5-0.3
			l2.9,0.6l0.9,3.2l-3.5,6.4l-13.5,10.2l-2.7,3.6l0.9,1.1l0.3,1.1l-0.3,1.2l-0.9,1.2l-0.6,0.4l-1.8,1.7l1.5,1.8l0.6,0.5l0.2,0.1
			l0.2,0.2v0.3l3.3,3.8l3.6-0.3l3.9-1.8l4.1-0.9l2.1,3.3l-1.8,6.8l-2,4.7h250.5l0.9-2.1l0.6-2.1l0.1-2.9l-0.3-9l0.9-3.5l1.4-2.1
			l0.5-1.8l-1.7-2.6l-1.5-1.1l-3.3-1.4l-1.5-0.9l-3.3-3.5l-1.7-4v-4.4l1.7-5l2.3-4.2l2-2.9l2.6-1.4l10.8,0.8l2.3-1.5l2.4-4.1
			l1.7-1.2l1.8-0.9l2-0.5l5.9-0.2l7.9-4.3l4.1-0.8l2-0.6l2.6-1.2l2.4-1.7l1.7-1.8l0.9-2.4v-2.3l-0.3-2.4v-3.2l4.4,0.9l1.4-0.3
			l1.2-0.9l0.9-1.4l1.1-1.1l1.1-0.2H374.8L374.1,255.9z"/>
		<polygon fill="#005EA5" points="566.8,254.5 569.7,257.3 571.4,258.3 573.3,258.8 574.4,258.8 578.8,257.7 581.5,257.7
			582.1,257.1 582,255.1 581.4,254.4 580.8,254 565.8,254 		"/>
		<polygon fill="#FFFFFF" points="259.6,245.3 258,245.6 255,248.3 252.4,251.9 250.4,254 260.2,254 		"/>
		<polygon fill="#FFFFFF" points="605.4,224.4 601,217.5 596.7,214.9 594.4,213.2 593.5,210.8 594.6,209.1 596.9,208 598.6,206.4
			597.8,203 596,201.8 593.7,201.7 592,200.9 592,198 590.3,198.3 589.3,197 588.2,195 586.9,193.3 585.2,188.3 584.9,187.7
			585.3,185.7 586.9,183 587.6,181 588.4,178.9 588.7,177.4 588.1,176.5 586.2,176.3 585.2,175.7 582.7,172.8 581.5,172 565,173.4
			560,172.2 552.5,176.6 547.1,178 546.3,178.4 545.1,179.6 545.2,180.1 545.7,180.5 545.8,181.8 545.1,187.2 544.9,190.3
			545.1,193.3 546.4,197.6 549,199.2 550.4,202 550.7,206.1 548.4,203.2 547.1,202.3 542.2,201.4 534,197.3 530.7,196.5
			527.3,196.8 519.1,200.1 515.9,200.3 506.7,198.9 504.7,197.7 504.4,200.4 504.4,202.7 503.6,204.3 502.4,205.2 500.9,205.6
			499.1,205.2 496.5,205.2 493.9,205.9 492.1,207.3 490.9,209.7 490.4,211.7 489.6,213.4 487.4,215.2 483.7,215.8 481,214.1
			478.3,211.7 474.8,210.3 452.6,211.4 435.3,209.6 428.3,211.8 423.7,218.2 421.5,214.9 419.8,214.6 415.4,217.3 412.8,217.6
			411.1,217.5 409.6,218.1 407.6,221 406.3,223.8 404.4,229.3 402.2,234.5 401.4,235.1 398.7,236.3 395.6,236.9 394.6,236.1
			392.6,237.1 391.8,238 391.2,239.2 389.9,240.9 388.9,243 387.3,242.7 386.7,242.8 384.2,245.4 383,246.2 381.8,246.5
			379.2,246.6 378,247.1 376.2,249.7 375.1,253 374.8,254 565.2,254 565.6,253.9 565.8,254 580.8,254 579.4,253 578.7,252.1
			578.4,250.6 578.5,247.7 578.4,246.3 577,241.5 576.5,239 576.7,236.4 580.2,232.5 584,231 585.8,229.9 588.2,229.2 589.9,227.2
			590.8,228.5 591.6,227.2 592.9,228.2 594.4,228.4 596,228.2 597.3,228.4 598.4,229.2 600.4,231.3 601.4,232 602.5,232.2
			605.2,231.9 606.4,232 607.7,232.8 610.5,235.1 609.5,227.9 		"/>
		<polygon fill="#FFFFFF" points="369.8,254 368.9,252.1 367.2,249.8 363.1,250.7 361.2,250.4 357.5,248.8 356.8,248 356.4,247.1
			355.8,246.3 354.6,246 350.5,246.9 324.9,246.2 323.3,245.7 322.7,245.2 322.1,254 		"/>
		<path fill="#005EA5" d="M291.1,291.9c-7.1-2.4-13.2-6.8-17.7-12.5c-1.5-0.2-3-0.8-4.2-1.7c5,7.8,12.6,13.8,21.8,16.8
			c9.2-3,16.8-9,21.8-16.8c-1.2,1-2.7,1.5-4.2,1.7C304.3,285.1,298.2,289.5,291.1,291.9z"/>
		<path fill="#005EA5" d="M262.9,258.3c0.4,5.6,1.9,10.9,4.3,15.8v-1.2c1,1.7,2.5,2.9,4.2,3.6c-0.8-1.2-1.4-2.4-2.1-3.6
			c-0.8-0.6-1.5-1.4-2.1-2.4v-2.4c0,0.1,0.1,0.2,0.2,0.2c-0.5-1.4-0.9-2.9-1.3-4.4l12.5-16.7l5,6.7l7.5-15l7.5,15l5-6.7l12.5,16.7
			c-0.3,1.5-0.8,3-1.3,4.4c0-0.1,0.1-0.2,0.2-0.2v2.4c-0.6,1-1.3,1.8-2.1,2.4c-0.6,1.2-1.3,2.4-2.1,3.6c1.7-0.7,3.2-1.9,4.2-3.6
			c0,0,0,0,0,0s0,0,0,0v1.2c2.4-4.8,4-10.2,4.3-15.8l1-15.1l-3.9-3.4l-1.8-0.9l-2-0.6h-2.1l-4.1,0.8l-2-0.3l-11.1-5.2l-2.1-0.4
			l-0.1,0.5l-0.2-0.5l-1.2-0.2l-7.9,1.4h-1.7l-8.1-2l-1.8-0.2v1.4l-0.2,1.2l-0.5,1.1l-0.8,0.9l-0.2,4.4l-1.4,2.7l-2.3,1.2l-3-0.2
			l-0.2,0L262.9,258.3z"/>
		<path fill="#005EA5" d="M321.8,258.5c-1.2,18-13.4,33.3-30.7,38.5C308.4,291.8,320.6,276.5,321.8,258.5l0.3-4.5l0.6-8.8l0,0
			L321.8,258.5z"/>
		<path fill="#005EA5" d="M260.5,258.5c1.2,18,13.4,33.3,30.7,38.5C273.9,291.8,261.7,276.5,260.5,258.5l-0.9-13.2l0,0l0.6,8.7
			L260.5,258.5z"/>
		<path fill="#FFFFFF" d="M278.6,271.1c2.6-1.5,5.8-1.5,8.3,0c2.6,1.5,5.8,1.5,8.3,0c2.6-1.5,5.8-1.5,8.3,0c3.9,2.3,8.9,1,11.2-2.8
			c0.5-1.4,0.9-2.9,1.3-4.4l-12.5-16.7l-5,6.7l-7.5-15l-7.5,15l-5-6.7l-12.5,16.7c0.3,1.5,0.8,3,1.3,4.4
			C269.7,272.1,274.7,273.4,278.6,271.1z"/>
		<path fill="#FFFFFF" d="M291.1,291.9c7.1-2.4,13.2-6.8,17.7-12.5c-1.7,0.2-3.5-0.1-5.1-1.1c-2.6-1.5-5.8-1.5-8.3,0
			c-2.6,1.5-5.8,1.5-8.3,0c-2.6-1.5-5.8-1.5-8.3,0c-1.6,0.9-3.4,1.3-5.1,1.1C278,285.1,284.1,289.5,291.1,291.9z"/>
		<path fill="#FFFFFF" d="M278.6,276c2.6-1.5,5.8-1.5,8.3,0c2.6,1.5,5.8,1.5,8.3,0c2.6-1.5,5.8-1.5,8.3,0c2.3,1.3,4.9,1.4,7.2,0.5
			c0.8-1.2,1.4-2.3,2.1-3.6c-2.6,2-6.3,2.4-9.3,0.6c-2.6-1.5-5.8-1.5-8.3,0c-2.6,1.5-5.8,1.5-8.3,0c-2.6-1.5-5.8-1.5-8.3,0
			c-3,1.7-6.7,1.4-9.3-0.6c0.6,1.2,1.3,2.4,2.1,3.6C273.7,277.4,276.3,277.3,278.6,276z"/>
		<path fill="#005EA5" d="M278.6,273.5c2.6-1.5,5.8-1.5,8.3,0c2.6,1.5,5.8,1.5,8.3,0c2.6-1.5,5.8-1.5,8.3,0c3,1.7,6.7,1.4,9.3-0.6
			c0.8-0.6,1.5-1.4,2.1-2.4v-2.4c0,0.1-0.1,0.2-0.2,0.2c-2.4,3.8-7.3,5.1-11.2,2.8c-2.6-1.5-5.8-1.5-8.3,0c-2.6,1.5-5.8,1.5-8.3,0
			c-2.6-1.5-5.8-1.5-8.3,0c-3.9,2.3-8.9,1-11.2-2.8c0-0.1-0.1-0.2-0.2-0.2v2.4c0.6,1,1.3,1.8,2.1,2.4
			C271.9,274.9,275.6,275.3,278.6,273.5z"/>

			<line fill="none" stroke="#005EA5" stroke-width="0" stroke-linecap="round" stroke-linejoin="round" x1="315" y1="272.9" x2="315" y2="272.9"/>
		<path fill="#005EA5" d="M310.9,276.5c-2.3,0.9-4.9,0.8-7.2-0.5c-2.6-1.5-5.8-1.5-8.3,0c-2.6,1.5-5.8,1.5-8.3,0
			c-2.6-1.5-5.8-1.5-8.3,0c-2.3,1.3-4.9,1.4-7.2,0.5c-1.7-0.7-3.2-1.9-4.2-3.6v1.2c0.6,1.2,1.3,2.4,2.1,3.6c1.2,1,2.7,1.5,4.2,1.7
			c1.7,0.2,3.5-0.1,5.1-1.1c2.6-1.5,5.8-1.5,8.3,0c2.6,1.5,5.8,1.5,8.3,0c2.6-1.5,5.8-1.5,8.3,0c1.6,0.9,3.4,1.3,5.1,1.1
			c1.5-0.2,3-0.8,4.2-1.7c0.8-1.2,1.4-2.4,2.1-3.6v-1.2C314.1,274.6,312.6,275.8,310.9,276.5z"/>
		<polygon fill="#FDDB00" points="291.3,233.2 291,233.2 291.1,233.7 		"/>
		<path fill="#EC2227" d="M260.5,258.5c1.2,18,13.4,33.3,30.7,38.5c17.2-5.2,29.5-20.5,30.7-38.5l0.9-13.3l-2.3-2l-1,15.1
			c-0.4,5.6-1.9,10.9-4.3,15.8c-0.6,1.2-1.3,2.4-2.1,3.6c-5,7.8-12.6,13.8-21.8,16.8c-9.2-3-16.8-9-21.8-16.8
			c-0.7-1.2-1.4-2.4-2.1-3.6c-2.4-4.8-4-10.2-4.3-15.8L262,245l-2.4,0.4L260.5,258.5z"/>
	</g>
	<polygon fill="none" stroke="#999999" stroke-width="0.25" stroke-linecap="round" stroke-linejoin="round" points="605.4,224.4
		601,217.5 596.7,214.9 594.4,213.2 593.5,210.8 594.6,209.1 596.9,208 598.6,206.4 597.8,203 596,201.8 593.7,201.7 592,200.9
		592,198 590.3,198.3 589.3,197 588.2,195 586.9,193.3 585.2,188.3 584.9,187.7 585.3,185.7 586.9,183 587.6,181 588.4,178.9
		588.7,177.4 588.1,176.5 586.2,176.3 585.2,175.7 582.7,172.8 581.5,172 565,173.4 560,172.2 552.5,176.6 547.1,178 546.3,178.4
		545.1,179.6 545.2,180.1 545.7,180.5 545.8,181.8 545.1,187.2 544.9,190.3 545.1,193.3 546.4,197.6 549,199.2 550.4,202
		550.7,206.1 548.4,203.2 547.1,202.3 542.2,201.4 534,197.3 530.7,196.5 527.3,196.8 519.1,200.1 515.9,200.3 506.7,198.9
		504.7,197.7 504.4,200.4 504.4,202.7 503.6,204.3 502.4,205.2 500.9,205.6 499.1,205.2 496.5,205.2 493.9,205.9 492.1,207.3
		490.9,209.7 490.4,211.7 489.6,213.4 487.4,215.2 483.7,215.8 481,214.1 478.3,211.7 474.8,210.3 452.6,211.4 435.3,209.6
		428.3,211.8 423.7,218.2 421.5,214.9 419.8,214.6 415.4,217.3 412.8,217.6 411.1,217.5 409.6,218.1 407.6,221 406.3,223.8
		404.4,229.3 402.2,234.5 401.4,235.1 398.7,236.3 395.6,236.9 394.6,236.1 392.6,237.1 391.8,238 391.2,239.2 389.9,240.9
		388.9,243 387.3,242.7 386.7,242.8 384.2,245.4 383,246.2 381.8,246.5 379.2,246.6 378,247.1 376.2,249.7 375.1,253 374.1,255.9
		371.9,256.8 370.3,255.1 368.9,252.1 367.2,249.8 363.1,250.7 361.2,250.4 357.5,248.8 356.8,248 356.4,247.1 355.8,246.3
		354.6,246 350.5,246.9 324.9,246.2 323.3,245.7 316.5,239.8 314.7,238.9 312.7,238.3 310.6,238.3 306.5,239 304.5,238.7
		293.4,233.6 289.8,233 281.9,234.3 280.2,234.3 272.2,232.4 270.3,232.2 270.3,233.6 270.2,234.8 269.7,235.8 269,236.7
		268.8,241.2 267.4,243.9 265.2,245.1 262.1,245 258,245.6 255,248.3 252.4,251.9 249.5,255 243.9,258 241,260.1 239.5,260.9
		237.8,261.1 236.5,262.6 234.8,266.2 232.5,270 229.3,272 230.2,273.7 231,275.8 231.8,280.2 233.4,282.3 233.9,284.7 234.9,286.3
		238.3,285.8 236.6,282.8 238.4,283.4 242.1,283.7 243.8,284.6 247.1,285.4 249.4,287 253,290.7 256.1,291.1 259.5,290.8
		262.4,291.4 263.4,294.6 259.9,301 246.3,311.2 243.6,314.8 244.5,315.9 244.8,316.9 244.5,318.2 243.6,319.4 243,319.8
		241.2,321.5 242.7,323.3 243.3,323.8 243.5,323.9 243.6,324.1 243.6,324.4 246.9,328.2 250.6,327.9 254.5,326.1 258.6,325.2
		260.8,328.5 258.9,335.3 254.2,346.1 253.8,352 255.6,355.7 258.9,357.5 263.2,358 265.2,358.6 271.1,363.1 279.4,366.9 289,383.2
		290.2,384.5 292.1,385.6 293.1,385.6 293.3,386 292.4,388.3 287.6,394.3 282,394.9 277.3,392.3 271.4,392.9 273.2,395 275,397
		276.3,398.8 276.3,399.9 256.5,402.8 253.9,402.1 254.4,403.7 255.1,404.7 256.1,405.5 257.3,405.6 257.3,406.7 256.5,408.5
		256.8,410.1 256.5,410.8 261.2,416 277,415.2 282.8,418.9 284.5,420.5 286.3,421.1 292.8,422 294.2,421.1 295.2,419.5 297.1,417.8
		302.7,415.4 304.2,413.2 301.6,410.2 301.6,408.4 302.1,407.2 303,406.6 308.2,407.6 309.8,408.5 311.5,410.2 314.5,412.3
		317.7,413.4 320.9,413.5 324.1,412.9 329.9,410.2 332.9,409.3 335.6,409.9 340.5,412.5 346.1,413.5 351.6,413.1 356.3,410.4
		358.6,408.2 363.3,404.7 365,401.8 365.6,399.4 366.2,394.9 366.9,392.6 368,390.9 371,387.4 372.2,385.6 373.8,382.1 374.7,381
		376.7,380.1 378,380.9 378.3,383.5 378.2,386.7 378.3,388.9 379.4,391.1 380.9,392.7 385,396.1 385.9,396.4 386.7,396.8
		387.4,397.7 387.6,399.1 387.1,402.1 387.1,403.1 389.6,405 400.8,410.1 402.6,414.7 407.6,415.8 412.8,414 415.1,410.1
		415.5,406.4 417.7,406.4 420.4,408.2 422.5,410.2 425.4,410.5 426.8,411.1 428,412.2 433.9,412.3 443.9,420.8 449.4,421.6
		461.1,417.2 465,417.2 466.4,416.9 467.5,416 469.6,412.9 470.8,411.9 464.7,407.8 463.1,404.9 462.2,401.2 461.4,396.7
		460.6,394.5 459.7,392.7 459.6,391.4 461.1,390.6 461.8,389.9 462.3,388.5 463.1,387.3 466.6,386.2 468.1,385.4 469.8,384.8
		472.2,384.8 471.6,383.3 469.6,380 467.5,377.4 467.2,377.1 466.7,377.2 465.2,377.7 464.6,378.2 464.4,378.9 464,379.2
		462.5,378.6 461.4,377.8 460.8,376.9 459.6,374.7 458.4,373.4 457.5,373 457.2,372.2 457.9,370.3 459,369 463.8,366.3 479,361.3
		480.5,360.1 480.4,358.4 479.9,356.6 480.5,354.9 481.9,354.3 483.3,354.5 484.6,354.9 486,355.2 487.2,354.8 489.5,352.9
		490.7,352.3 498.5,353.7 502.9,354 505.1,353.4 507.6,352 508.8,350.2 508.8,347.8 507.4,344.3 507,342.2 507.4,340 508.3,337.9
		508.9,335.8 509.1,332.9 508.8,323.9 509.7,320.4 511.1,318.3 511.5,316.5 509.8,313.9 508.3,312.8 505,311.5 503.5,310.6
		500.1,307.1 498.5,303.1 498.5,298.7 500.1,293.7 502.4,289.5 504.4,286.6 507,285.2 517.7,286 520,284.4 522.5,280.3 524.1,279.1
		525.9,278.2 527.9,277.8 533.8,277.6 541.7,273.4 545.8,272.6 547.8,272 550.4,270.8 552.8,269.1 554.5,267.3 555.4,264.8
		555.4,262.6 555.1,260.1 555.1,256.9 559.5,257.9 560.9,257.6 562.1,256.6 563,255.3 564.1,254.2 565.6,253.9 566.8,254.5
		569.7,257.3 571.4,258.3 573.3,258.8 574.4,258.8 578.8,257.7 581.5,257.7 582.1,257.1 582,255.1 581.4,254.4 579.4,253
		578.7,252.1 578.4,250.6 578.5,247.7 578.4,246.3 577,241.5 576.5,239 576.7,236.4 580.2,232.5 584,231 585.8,229.9 588.2,229.2
		589.9,227.2 590.8,228.5 591.6,227.2 592.9,228.2 594.4,228.4 596,228.2 597.3,228.4 598.4,229.2 600.4,231.3 601.4,232
		602.5,232.2 605.2,231.9 606.4,232 607.7,232.8 610.5,235.1 609.5,227.9 	"/>
</g>

</svg>
