<?xml version="1.0" encoding="utf-8"?>

<svg version="1.2" baseProfile="tiny" xmlns="http://www.w3.org/2000/svg" xmlns:xlink="http://www.w3.org/1999/xlink" x="0px"
	 y="0px" viewBox="220 198.6 400 196.3" xml:space="preserve">

<g id="Slovakia">
	<title  id="title4">Flag of Slovakia</title>
	<g>
		<path fill="#EE1C25" d="M398.4,343.9c-6.1,7-13.1,12.9-20.2,17.8l0.3,0l8.7,1.1l0.8-0.2l4.2-2.7l9.5,0.2l3.8-2.6l0.1-0.5v-1.1
			l-0.1-0.6v-0.3l0.8-1.7l0.6-4.1l0.8-1.5l1.2-0.7l6.4-1.7h0.7l0.7,0.2l0.8,0.7l1.5,1.9l0.7,0.4l3.3-0.6l1.7,0.3l1.7,1.7v1l-0.4,0.9
			l-0.2,0.9l0.6,1l0.7,0.1l2.6-1l1.7,0.5l2.6,2.5l1.5,0.5l1.7-0.6l3.2-3l1.6-1l2.6-0.9l3-1.9l1.3-0.5l0.6-0.4l0.5-1l0.4-1.9l0.3-0.7
			l0.2-0.2H398.4z"/>
		<path fill="#EE1C25" d="M316.2,343.9h-87.8l0.6,2.2l0.4,1.9v2.3l0.5,1.7l1.8,1.9l1,0.6l1.1,0.2l0.7,0.5l1.4,2.6l0.9,1l-0.7,0.9
			l-0.3,1.1l-0.4,1.9l0.3,0.2l0.9,0.7l-0.4,1.7l1.6,0.9l2.3,0.8l1.7,1.5l2.6-1.6l2.6,0.5l3.6,1l4.6,0.7l2.2,1.9l7.2,9.6l0.7,0.6
			l0.7,0.3l1.8,0.4l0.6,0.4l2.4,3.5l0.9,0.9h0.7l0.7-0.4l0.8-0.1l1.1,0.5l1.5,1.1l1.3,1.2l0.5,1.1l0.7,0.8l4.6,2.5l5.9,1.6l20.1-1.3
			l8.6,0.9l2.6-0.3l5.3-2.1l14.4-1.7l3.2,0.3l2.6,1.1l2.1,0.4l2-0.2l1.7-1.1l2.3-2.6l1.2-0.9l1.6-0.4l1.9-0.6l-2.7-1.9l-2-2
			l-0.4-1.9l0.2-2.2l0.7-4.3l-0.3-1.2l-0.5-0.4l-0.1-0.4l0.1-0.1C341.5,365.6,327.4,356.7,316.2,343.9z"/>
		<path fill="#0B4EA2" d="M418.6,289.7c0,23.2-8.5,40.8-20.2,54.2h52.5l0.7-0.9l0.6-0.1l0.7,0.3l1.2,0.1l1.1-0.5l2.1-1.9l0.8-0.4
			l1.4,0.7l0.8,0.9l0.9,0.4l1.6-0.8l2-2l1.8-2.6l1.5-3l2.7-8.4l0.8-1.7l1.1-1.4l2.3-2.5l1-1.4l0.1-0.4v-1.1l-0.2-1.9v-0.9l0.1-0.8
			l2-0.8l4.3-0.3l14.8-3.4h1.1l1.1,0.5l2,1.9l1,0.3l2.2,0.3l3.9,2.4l2.5,0.2l1.8-0.1l2,0.4l1.9,0.9l1.4,1.4l1.8,0.4l5.5-2.6l2.3-0.5
			l1.2,0.5l0.9,0.7l0.8,0.4l1.1-0.6l0.8-1.2l0.4-1.1l0.6-1l1.4-0.8l1.1-0.3l2.4-0.1l3.6-1.1l1,0.3l2.4,1.4l1.2,0.5l0.6,0.5l0.4,0.9
			l0.6,2l0.4,0.7l1.1,0.5h2.6l1.2,0.3l0.5,1.1l0.9,4.3l0.5,1.1l4,6.1l1.7,1.9l1.9,1.4l2.2,0.7l2.1-0.2l3.6-1.9l3-0.4l2.1-1.2
			l1.1-0.4l3.7-0.2l1.3-0.4l1.2-0.1l4.2,0.4l1.3-0.4l1.2-1l1.3-1.7l0.1-7.6l0.8-1.8l-0.1-1.9l-0.8-4.2l0.2-2.1l1.1-1.7l4.6-3.7
			l0.4-0.8l0.7-1.7l0.5-0.7l0.9-0.6l1.8-0.6l0.9-0.5l1.2-1.5l0.9-1.9l0.4-2.2l-0.1-2.3l0.3-1.4l0.5-0.7l0.6-0.5l0.6-0.9l0.5-1.2
			l0.2-0.7l-0.2-3.6l-0.1-0.9v-0.8l0.4-1.3l0.7-1l1.7-1.4l0.6-1l0.2-0.6v-1.4l0.1-0.5l0.9-1.9l1.5-4.5l1.2-1l2.7-0.4l1.1-1v-1.8
			l0.4-2.5l0.5-2.5l0.5-1.8l-2.5-1.1l-5.5-0.3l-2.6-0.8l-3-3.1H418C418.3,260.5,418.6,273.6,418.6,289.7z"/>
		<path fill="#0B4EA2" d="M316.2,343.9c-11.7-13.4-20.2-31-20.2-54.2c0-10.7,0.1-20.1,0.3-28.3l-1.5,0.6l-1,1.9l-0.4,1.6l-0.5,3.3
			l-0.5,1.5l-1.3,1.2l-1.3,0.1l-1.5-0.3l-1.7,0.3l-1.2,1l-2.4,4.2l-1.2,1l-13.5,5.3l-2.6-0.4l-2.1-2.3l-1-0.5l-1.7,0.5l-2.6,1.8
			l-1.2,0.3l-8-4.1l-3.4-0.9l-3.2,0.6l-3.8,2.7l-0.6,1l-0.4,2l-1,1.3l-2.4,2.1l-1.8,2.9l-3.5,10.2l-0.8,1.5l-1.1,1.3l-0.2,2l0.6,4.9
			l-0.5,1.8l-1.1,1.2l-1.2,1l-0.5,1l-0.4,1.4l-1.9,2.7l-0.7,1.4L221,322l-0.6,5.6l-0.2,0.6l-0.2,0.4l-0.1,0.4v1.1l0.3,0.6l0.5,0.4
			l1.4,0.2l0.4,0.3l0.7,0.6l0.7,0.8l0.4,0.9l-0.2,0.4L224,335l-0.1,0.5l0.4,0.2l0.2,0.3l0.3,0.5l0.3,0.6l0.1,0.5l0.3,0.6l0.5,0.4
			l0.6,0.3l0.8,0.7l0.4,0.2l0.3,0.4l0.1,0.4l-0.1,1.2v0.5l0.4,1.6H316.2z"/>
		<path fill="#FFFFFF" d="M604.5,249l-3.9,0.2l-3.3-1l-0.5-0.4l-0.2-0.7l0.2-0.7v-0.7l-0.8-0.9l-0.6-0.1l-1.7,0.2H593l-0.8-0.3
			l-2.3-1.5l-4.9-1l-2-1.4l-0.4-3.4l-0.9-3.8l-2-3.3l-2.6-2.4l-3.8-1.9l-2.6-2.4l-1.3-0.7l-1.4,0.3l-1.2,1.1l-1,1.2l-0.7,0.5
			l-1.1-0.9l-2.4-3.6l-1.1-1.2l-0.7-0.2l-1.1,0.3l-0.5-0.1l-0.7-0.4l-1.3-1.2l-0.7-0.5l-1.3-0.4l-5,0.5l-2.3,1l-1.1-0.4l-2.6,0.5
			h-1.1l-6.8-1.9l-4-2.1l-1-0.3l-1.2,0.9l-2.2,3.3l-1.2,1.1l-1.5,0.3l-1.1-0.7l-1-1.1l-1.2-0.9l-1.1-0.1l-2.8,0.5l-1.1,0.5l-1.4,1.6
			l0.9,1l1.7,1l0.9,1.6l-0.6,1l-1.3,0.3h-1.5l-1.1,0.3l-1.5,1.4l-2.3,3.3l-1.5,1.3l-1.7,0.6l-1.3-0.3l-1.1-0.8l-1.1-1.2l-1.3-1
			l-1.1-0.2l-1.2,0.1l-1.6-0.3l-1.1-0.8l-6.3-7.4l-1.1-0.2l-2.6,0.4l-1.5-0.3h-0.6l-0.7,0.4l-1.1,1.4l-0.8,0.8l-1.7,0.6l-1.6-0.3
			l-5.9-3l-1.1,0.3v1.9l-3.6,0.2l-2.9-1.1h-0.8l-0.7,0.5l-0.3,0.6l-0.2,1l-0.4,1.5l-0.5,1.5l-0.4,0.4l-5.4,0.5l-1.1,0.6l-1.5,1.9
			l-0.7,0.6l-1.6-0.2l-0.2-0.2l-0.4,0.5l-1.3,3l-0.4,1.2l-0.5,1.1l-0.9,1.1l-0.4,3.8l-0.7,2.6l-1.4,1.1l-2.3-1.1l-3.6-3.4l-1.9-1
			l-2.2,0.3l-1.2,1l-2.4,2.5l-1.6,0.5l-3.3-0.3l-1.8-0.6l-0.9-1.2l0.3-1.4l2.6-4.3l0.4-0.3l0.4-0.1l0.4-0.3l0.2-0.6l-0.1-0.4
			l-0.5-0.6l-0.1-0.3l-1-0.7l-0.3-0.4v-0.4l0.5-0.8l0.1-0.4l-0.4-5.2l-0.4-1.8l-0.6-2l-0.6-0.5l-2.4,1l-1.4,0.2l-1.5-0.2l-3.3-1.2
			c0.1,1.2,1,10.7,1.7,29.6h188.5l-0.5-0.5L604.5,249z"/>
		<polygon fill="#FFFFFF" points="376.8,219.9 376.2,219.6 374.7,219.9 374.1,220.3 377.5,220.3 		"/>
		<polygon fill="#FFFFFF" points="368.5,220.3 368.5,220.2 368.7,216.7 368.6,215.1 368.2,213.6 368.1,212 368.7,210.2 366.7,209
			359.7,208.4 356.9,208.5 355.6,208.9 352.7,211.6 350.7,211.7 348.7,211 346.4,209.9 345.9,209.8 345.4,209.9 343.4,211
			340.3,210.5 338.9,211.4 338.6,212.3 338.4,214.3 338,215.3 337.5,215.9 335.2,217.1 332.6,220.3 357.3,220.3 		"/>
		<polygon fill="#FFFFFF" points="415.6,220.2 415.9,218.9 415.8,217.2 415.9,216.7 416.3,216 413.5,216 412,215.6 410.7,214.7
			410.4,213.9 409.2,210.4 407.9,205 407,202.8 405.3,201.7 404.8,201.2 403.7,199 402.7,198.6 402.3,198.8 402,199.3 395.9,206
			395.4,206.5 394.4,206.8 393.7,206.9 391.6,206.9 390.3,207.2 389.1,207.7 388.1,208.7 387.1,210.2 385.9,213.8 386,213.9
			386.3,214.2 386.4,214.8 386.2,215.5 385.8,215.7 384.8,215.7 384.3,217.8 384.1,219.2 383.6,220 382.8,220.3 415.9,220.3 		"/>
		<path fill="#FFFFFF" d="M398.4,343.9c11.7-13.4,20.2-31,20.2-54.2c0-16.1-0.3-29.3-0.6-39.6c-0.6-18.9-1.5-28.5-1.7-29.6l-0.4-0.1
			h-33.1l-1.4,0.6l-1.8,0.3l-0.7-0.1l-0.7-0.4l-0.7-0.5h-3.5l-2.1,1.2l-1.8,0.2l-1.4-0.3l-0.3-1.1h-11.2h-24.7l-0.4,0.5l-1.6,1.1
			l-2-0.4l-0.2,5.1l-0.1,0.1h29h54.1c0,0,2.1,19.9,2.1,63.7c0,16-4.4,29.1-11.2,39.8c-10,15.9-25.1,26.6-38.4,33.8l6.3-1.4l1.1-0.4
			l2.9,0.2l3.9-0.6C385.2,356.8,392.2,350.9,398.4,343.9z"/>
		<path fill="#FFFFFF" d="M312.2,330.2c-6.7-10.7-11.2-23.8-11.2-39.8c0-11.3,0.1-21,0.3-29.1l-2.9-0.2l-1.7,0.3l-0.5,0.2
			c-0.2,8.1-0.3,17.5-0.3,28.3c0,23.2,8.5,40.8,20.2,54.2c11.2,12.8,25.2,21.8,37.4,28l0.8-1l0.6-0.4l1.3-0.3l0.7-0.5l1.4-2.9
			c-0.4,0.2-0.8,0.4-1.2,0.6C342.6,360.3,323.9,348.8,312.2,330.2z"/>
		<path fill="#EE1C25" d="M312.2,330.2c3-5.3,7.8-11,14.2-11c9.5,0,13,7.7,13,7.7s4.5-11.6,12.9-15.1v-22.6
			c-7.1-0.1-19.4,0-29.4,3.3c0,0,0.3-3.9,0.3-8.4c0-4.5-0.3-8.4-0.3-8.4c10.9,3.6,23.1,3.4,29.4,3.3v-15.2
			c-5.7-0.1-13.9,0.2-23.2,3.3c0,0,0.3-3.9,0.3-8.4c0-4.5-0.3-8.4-0.3-8.4c9.3,3.1,17.5,3.4,23.2,3.3c-0.3-9.6-3.1-21.7-3.1-21.7
			s5.8,0.4,8.1,0.4c2.3,0,8.1-0.4,8.1-0.4s-2.8,12.1-3.1,21.7c5.7,0,13.9-0.2,23.2-3.3c0,0-0.3,3.9-0.3,8.4c0,4.5,0.3,8.4,0.3,8.4
			c-9.3-3.1-17.5-3.4-23.2-3.3v15.2c6.3,0.1,18.5,0.3,29.4-3.3c0,0-0.3,3.9-0.3,8.4c0,4.5,0.3,8.4,0.3,8.4
			c-10-3.3-22.3-3.4-29.4-3.3v22.6c8.5,3.5,12.9,15.1,12.9,15.1s3.5-7.7,13-7.7c6.4,0,11.2,5.7,14.2,11
			c6.7-10.7,11.2-23.8,11.2-39.8c0-43.8-2.1-63.7-2.1-63.7h-54.1h-29l-4.1,3.3l-9.4,3.7l-2,1.9l-1.7,2.7l-1.3,3.3l-0.9,3.5l-0.3,2.8
			l0.1,5.5l-0.4,2.4l-1.5,2.5l-2.1,1.9l-2.3,1.1l-0.9-0.1c-0.2,8.2-0.3,17.9-0.3,29.1C301.1,306.3,305.5,319.4,312.2,330.2z"/>
		<path fill="#FFFFFF" d="M391.6,292.4c0,0-0.3-3.9-0.3-8.4c0-4.5,0.3-8.4,0.3-8.4c-10.9,3.6-23.1,3.4-29.4,3.3v-15.2
			c5.7-0.1,13.9,0.2,23.2,3.3c0,0-0.3-3.9-0.3-8.4c0-4.5,0.3-8.4,0.3-8.4c-9.3,3.1-17.5,3.4-23.2,3.3c0.3-9.6,3.1-21.7,3.1-21.7
			s-5.8,0.4-8.1,0.4c-2.3,0-8.1-0.4-8.1-0.4s2.8,12.1,3.1,21.7c-5.7,0-13.9-0.2-23.2-3.3c0,0,0.3,3.9,0.3,8.4c0,4.5-0.3,8.4-0.3,8.4
			c9.3-3.1,17.5-3.4,23.2-3.3v15.2c-6.3,0.1-18.5,0.3-29.4-3.3c0,0,0.3,3.9,0.3,8.4c0,4.5-0.3,8.4-0.3,8.4c10-3.3,22.3-3.4,29.4-3.3
			v22.6c1.5-0.6,3.2-1,4.9-1c1.8,0,3.4,0.4,4.9,1v-22.6C369.3,289,381.6,289.1,391.6,292.4z"/>
		<path fill="#0B4EA2" d="M402.3,330.2c-3-5.3-7.8-11-14.2-11c-9.5,0-13,7.7-13,7.7s-4.5-11.6-12.9-15.1c-1.5-0.6-3.2-1-4.9-1
			c-1.8,0-3.4,0.4-4.9,1c-8.5,3.5-12.9,15.1-12.9,15.1s-3.5-7.7-13-7.7c-6.4,0-11.2,5.7-14.2,11c11.7,18.6,30.4,30.1,45,37.2
			c0.4-0.2,0.8-0.4,1.2-0.6l0.5-1l1.2-1l3.7-0.9C377.2,356.8,392.3,346.1,402.3,330.2z"/>
	</g>
	<polygon fill="none" stroke="#999999" stroke-width="0.25" stroke-linecap="round" stroke-linejoin="round" points="612.1,254
		609.5,253.2 606,249.6 604.5,249 600.6,249.1 597.3,248.2 596.8,247.7 596.6,247 596.8,246.3 596.8,245.6 596,244.7 595.4,244.7
		593.7,244.8 593,244.8 592.2,244.5 589.9,243 585,242 582.9,240.6 582.5,237.2 581.6,233.4 579.6,230.1 577,227.7 573.2,225.9
		570.7,223.5 569.4,222.8 567.9,223 566.7,224.1 565.7,225.2 565,225.8 564,224.9 561.6,221.3 560.4,220 559.7,219.9 558.7,220.1
		558.1,220 557.4,219.6 556.1,218.4 555.4,217.8 554.1,217.5 549.1,218 546.8,219 545.7,218.6 543.1,219.2 541.9,219.2 535.1,217.2
		531.2,215.1 530.2,214.8 528.9,215.7 526.7,219 525.5,220.1 524,220.4 523,219.7 522,218.6 520.7,217.7 519.7,217.7 516.9,218.2
		515.8,218.7 514.4,220.3 515.3,221.3 517,222.2 517.8,223.8 517.2,224.8 515.9,225.1 514.4,225.1 513.3,225.3 511.8,226.7
		509.5,230.1 508,231.4 506.4,232 505,231.8 503.9,231 502.7,229.7 501.4,228.8 500.4,228.6 499.1,228.7 497.5,228.4 496.4,227.6
		490.1,220.2 489.1,220 486.4,220.5 484.9,220.2 484.3,220.2 483.6,220.7 482.5,222.1 481.7,222.9 480,223.5 478.4,223.1
		472.5,220.1 471.4,220.4 471.4,222.2 467.8,222.4 464.9,221.4 464.1,221.4 463.4,221.9 463.1,222.5 463,223.5 462.6,225
		462.1,226.5 461.7,226.9 456.3,227.4 455.3,228.1 453.8,229.9 453.1,230.5 451.5,230.4 451.3,230.2 450.9,230.7 449.5,233.7
		449.1,234.9 448.6,236.1 447.7,237.2 447.2,240.9 446.6,243.6 445.1,244.7 442.8,243.5 439.2,240.1 437.3,239.1 435.1,239.4
		433.8,240.3 431.5,242.8 429.9,243.3 426.6,243.1 424.8,242.5 424,241.2 424.2,239.8 426.9,235.5 427.2,235.2 427.7,235.1
		428.1,234.9 428.3,234.2 428.2,233.8 427.7,233.2 427.6,232.9 426.6,232.2 426.3,231.9 426.3,231.4 426.9,230.6 427,230.2
		426.5,225 426.2,223.2 425.6,221.2 424.9,220.7 422.6,221.6 421.1,221.8 419.6,221.6 415.6,220.2 415.9,218.9 415.8,217.2
		415.9,216.7 416.3,216 413.5,216 412,215.6 410.7,214.7 410.4,213.9 409.2,210.4 407.9,205 407,202.8 405.3,201.7 404.8,201.2
		403.7,199 402.7,198.6 402.3,198.8 402,199.3 395.9,206 395.4,206.5 394.4,206.8 393.7,206.9 391.6,206.9 390.3,207.2 389.1,207.7
		388.1,208.7 387.1,210.2 385.9,213.8 386,213.9 386.3,214.2 386.4,214.8 386.2,215.5 385.8,215.7 384.8,215.7 384.3,217.8
		384.1,219.2 383.6,220 381.4,220.9 379.7,221.3 379,221.2 378.3,220.8 376.8,219.9 376.2,219.6 374.7,219.9 372,221.5 370.2,221.7
		368.8,221.5 368.5,220.2 368.7,216.7 368.6,215.1 368.2,213.6 368.1,212 368.7,210.2 366.7,209 359.7,208.4 356.9,208.5
		355.6,208.9 352.7,211.6 350.7,211.7 348.7,211 346.4,209.9 345.9,209.8 345.4,209.9 343.4,211 340.3,210.5 338.9,211.4
		338.6,212.3 338.4,214.3 338,215.3 337.5,215.9 335.2,217.1 332.2,220.8 330.6,221.9 328.6,221.5 328.4,226.6 324.2,229.9
		314.7,233.6 312.7,235.6 311,238.3 309.7,241.6 308.8,245.1 308.6,247.9 308.7,253.4 308.2,255.8 306.7,258.2 304.6,260.2
		302.3,261.2 298.5,261 296.8,261.2 294.8,262 293.8,263.9 293.4,265.5 292.9,268.7 292.3,270.2 291,271.5 289.7,271.6 288.2,271.3
		286.5,271.6 285.4,272.5 283,276.7 281.7,277.6 268.2,282.9 265.7,282.5 263.6,280.2 262.6,279.7 260.9,280.2 258.3,282 257,282.2
		249,278.2 245.7,277.3 242.5,277.9 238.7,280.7 238.1,281.6 237.6,283.6 236.7,285 234.3,287.1 232.5,290 229,300.2 228.2,301.7
		227.1,303.1 227,305.1 227.6,310 227,311.9 225.9,313.1 224.7,314.1 224.2,315.1 223.9,316.5 222,319.1 221.3,320.5 221,322
		220.4,327.7 220.3,328.3 220.1,328.6 220,329.1 220,330.2 220.3,330.9 220.8,331.2 222.2,331.4 222.6,331.6 223.3,332.3 224,333.1
		224.4,333.9 224.2,334.4 224,335 223.9,335.5 224.2,335.7 224.4,336 224.7,336.5 224.9,337.1 225,337.6 225.3,338.3 225.8,338.6
		226.4,338.9 227.2,339.6 227.7,339.8 227.9,340.1 228,340.6 227.9,341.8 227.9,342.3 229,346.1 229.3,348.1 229.3,350.4 229.9,352
		231.6,354 232.6,354.6 233.8,354.8 234.5,355.3 235.9,357.9 236.8,358.8 236,359.7 235.7,360.8 235.2,362.7 235.5,362.9
		236.4,363.6 236,365.3 237.6,366.1 239.9,366.9 241.6,368.4 244.2,366.8 246.7,367.4 250.3,368.3 254.9,369 257.1,370.9
		264.3,380.5 265,381.1 265.7,381.4 267.5,381.8 268.1,382.2 270.5,385.7 271.3,386.6 272,386.6 272.7,386.3 273.5,386.2
		274.6,386.7 276.1,387.8 277.4,389 278,390 278.7,390.8 283.2,393.3 289.2,394.9 309.3,393.6 317.9,394.5 320.6,394.2 325.9,392.1
		340.2,390.4 343.4,390.7 346,391.8 348.1,392.3 350.1,392.1 351.8,391 354.1,388.4 355.3,387.5 356.9,387.1 358.8,386.4 356,384.5
		354,382.5 353.6,380.5 353.7,378.3 354.4,374 354.2,372.8 353.6,372.3 353.6,372 354.4,370.8 355.1,370.5 356.4,370.2 357.1,369.7
		358.9,365.8 360.2,364.8 370.2,362.5 371.3,362.1 374.2,362.3 378.4,361.6 387.2,362.7 388,362.5 392.2,359.8 401.7,360
		405.5,357.3 405.6,356.8 405.6,355.7 405.5,355.1 405.5,354.8 406.3,353.2 406.9,349.1 407.7,347.6 409,346.9 415.4,345.2
		416.1,345.2 416.8,345.4 417.6,346.1 419.1,348 419.8,348.3 423.1,347.7 424.8,348 426.4,349.6 426.4,350.6 426,351.5 425.8,352.4
		426.4,353.3 427.1,353.4 429.7,352.5 431.4,353 434,355.5 435.5,356 437.2,355.4 440.4,352.4 442,351.4 444.6,350.5 447.6,348.7
		448.9,348.1 449.5,347.7 450.1,346.7 450.4,344.8 450.7,344.1 451.6,343 452.2,342.9 452.9,343.2 454.1,343.3 455.3,342.8
		457.4,340.8 458.2,340.5 459.6,341.2 460.4,342.1 461.3,342.4 462.9,341.6 464.9,339.6 466.7,336.9 468.2,333.9 470.9,325.6
		471.7,323.9 472.8,322.5 475,320 476,318.6 476.1,318.2 476.1,317.2 475.9,315.3 475.9,314.4 476,313.6 478,312.9 482.4,312.6
		497.2,309.1 498.3,309.1 499.4,309.7 501.4,311.6 502.4,311.9 504.6,312.1 508.5,314.5 510.9,314.7 512.7,314.6 514.7,315
		516.7,315.9 518.1,317.3 519.9,317.7 525.3,315.1 527.6,314.5 528.9,315.1 529.7,315.8 530.5,316.1 531.6,315.5 532.4,314.3
		532.8,313.2 533.5,312.2 534.9,311.4 536,311.2 538.4,311.1 542,309.9 543,310.2 545.4,311.6 546.6,312.1 547.2,312.7 547.6,313.6
		548.3,315.6 548.7,316.3 549.8,316.8 552.4,316.8 553.6,317.1 554.1,318.2 555,322.6 555.5,323.7 559.5,329.8 561.1,331.7
		563,333.1 565.2,333.8 567.3,333.7 570.9,331.8 573.9,331.4 576.1,330.1 577.1,329.7 580.8,329.5 582.1,329.1 583.4,329
		587.6,329.4 588.9,329.1 590.2,328.1 591.5,326.4 591.6,318.9 592.4,317.1 592.3,315.2 591.5,311 591.7,308.9 592.7,307.2
		597.3,303.5 597.8,302.7 598.5,301 599,300.3 599.9,299.7 601.7,299.1 602.6,298.6 603.8,297.1 604.6,295.1 605.1,292.9 605,290.6
		605.3,289.2 605.8,288.5 606.4,288 607,287.1 607.6,285.8 607.7,285.1 607.6,281.5 607.5,280.7 607.5,279.9 607.9,278.5
		608.6,277.6 610.3,276.1 610.9,275.2 611.1,274.6 611.1,273.2 611.2,272.6 612.1,270.8 613.6,266.3 614.8,265.3 617.5,264.9
		618.6,263.9 618.6,262.1 618.9,259.7 619.5,257.2 620,255.4 617.5,254.3 	"/>
</g>

</svg>
