<?xml version="1.0" encoding="utf-8"?>

<svg version="1.2" baseProfile="tiny" xmlns="http://www.w3.org/2000/svg" xmlns:xlink="http://www.w3.org/1999/xlink" x="0px"
	 y="0px" viewBox="298.8 173 242.2 247.8" xml:space="preserve">

<g id="Sierra_Leone">
	<g>
		<polygon fill="#1EB53A" points="515.1,248.2 513.2,247.6 510,247.3 506.7,247.5 503.8,246.6 503.2,243.7 504.1,240.1 505.5,237.6
			506.3,237.1 507.2,236.7 508.1,236.1 508.7,235.2 508.8,234.5 508.5,233.1 508.5,232.4 508.8,231.4 509.3,230.5 509.6,229.6
			509.5,228.6 506.1,225.6 505.3,225.2 504.2,224.5 503.2,223.7 502.3,222.2 501.5,222.1 500.7,222.1 499.9,222 499.4,222.1
			497.9,222 496.9,221.7 497.7,221 498.6,220.4 498.4,219.9 497.2,219.1 496,217.8 495.1,216.6 494.8,215.1 495.2,213.1 495.3,212
			494.7,211.4 493.8,211 493.3,210.3 492.9,208.1 492.6,207.4 491.8,206.6 489.7,205.2 489.1,204.4 488.6,202.3 488.2,201.7
			487.7,201.2 486.4,200.8 486,200.5 485.5,199.7 484.5,197 482.6,193.3 479.8,189.7 476.5,186.6 470.6,182.8 470,181.9
			468.9,176.5 468.3,174.7 467.4,174 466.3,173.8 463.6,173 461.6,172.8 410.4,173.1 410,178 409.5,178.8 391.8,182.6 390.5,182.6
			389.2,182.3 387.7,181.7 385.7,180.6 384.3,179.2 382.8,178.3 381,178.2 368.9,180.8 365.3,182.1 362.4,183.8 361.9,184.5
			361.9,185 362,185.6 362,186.4 360.9,192.4 360.9,192.7 361.2,193.6 361.3,194 361,194.2 360.6,194.1 360.2,194.1 360,194.5
			360.1,195.5 360,195.8 359.7,195.9 357.2,197.4 356.5,198.1 355.2,200.4 354.9,200.7 354.8,204.1 354.5,204.8 353.9,204.9
			353.1,204.8 352.3,205 351.9,205.7 351.2,208.4 351,208.8 350.9,209 350.6,209.1 350.1,209.2 349.5,209.5 349.5,209.9
			349.6,210.2 349.6,210.6 346.9,219.4 346.5,219.9 346,220.4 345.7,220.7 345.5,221.2 345.2,221.7 344.8,221.6 344.4,221.3
			344,221.2 342.7,222 342.2,222.4 341.6,223.3 341.6,223.9 341.9,224.6 341.9,225.3 340.8,225.6 339.4,226.3 337.5,229.5
			336.1,230.6 334.4,230.9 332.9,230.7 331.3,230.9 329.6,231.8 328,230.2 326.3,231.3 325,233.8 324.7,236.1 325,237 326.1,238.3
			326.2,239 325.9,239.1 324.7,239.2 324.2,239.4 323.4,240.5 322.8,241.7 321.7,244.3 320.6,245.6 319.2,246.5 316.1,248
			313.6,249.8 312.4,250 310.6,249.4 307.5,247.5 306.3,247.1 304.2,247.5 300.7,248.6 298.8,250 298.8,250.5 300.1,252
			299.9,254.7 515,254.7 516.2,250.2 516,249 		"/>
		<polygon fill="#FFFFFF" points="333.3,339.1 332.1,338.9 330.6,339.3 330.5,339.3 334.2,339.3 		"/>
		<polygon fill="#FFFFFF" points="299.8,255.8 301.6,257.2 301.8,256.7 301.9,256.5 302.1,256.2 302.5,256.1 303.7,257.2
			303.7,256.6 303.8,256.5 304,256.4 304.3,256.1 304.9,258 306.4,259.1 308.5,259.6 310.3,259.4 313.7,258.1 315.6,257.8
			317,258.3 317,258.9 315.1,259 313.1,259.3 311.5,260.1 310.7,261.7 310.5,261.8 310.3,262 310.3,262.7 310.6,262.8 311.2,262.8
			311.8,262.9 312,263.5 312.5,264.3 313.7,264.5 315,264.2 315.9,263.8 316.8,264.3 318.3,264.6 319.7,264.6 320.3,264.1
			320.8,263.9 324.1,264.9 319.5,264.8 317.2,265 315.6,265.7 314.3,266 308.1,266 307.5,265.5 307.2,265 306.9,264.7 306,264.9
			303.7,267.4 304.1,276 303.7,276 303.6,278.5 303.6,279.8 304,280.7 304.8,281.6 305.6,283 306.2,284.5 306.7,286.8 307.3,288.1
			309.5,291.7 310,292.3 310.6,292.5 311.4,292.3 311.8,291.7 311.8,291 311.5,290.3 313.2,288.9 314.4,287.2 314.2,285.4
			312,283.7 313.1,283.1 311.8,282.7 310.6,282.2 309.9,281.3 310.3,279.9 310.6,280.8 311.1,281.3 311.7,281.4 312.5,281
			314,282.9 315.1,283.9 316.4,284.3 317.3,283.9 317.9,282.9 318.6,280.4 319.2,280.4 319.4,280.9 319.7,281.3 320.1,281.4
			320.8,281.5 320.8,282 319.4,282.9 318.6,284.1 317.7,285.1 315.9,285.4 316.7,286.5 318,287 319.5,286.9 321.5,285.6
			322.6,285.6 323.8,285.8 325.2,285.9 328.1,285.1 329.7,283.4 330.9,281.2 332.9,278.8 330.1,285.1 328.5,287 328.6,287
			328.8,287.9 330.3,288 332,287.8 333.4,288.1 332.7,288.5 331.1,289.6 330.4,289.8 329.5,289.7 328,289.3 322.7,288.9
			321.9,288.7 321.5,289.4 321.1,290.2 320.8,291.1 320.8,292 319.8,291.5 319.2,292 318.7,292.9 318.1,293.7 317,294.2
			314.6,295.2 313.7,295.9 312.9,297.8 314.1,299 316.3,299.8 318.6,300.3 318.6,300.9 317.6,300.9 317.9,301.8 318.5,302.4
			319.3,302.8 320.3,303.1 320.3,303.6 318.1,303.9 316.1,302.5 314.2,300.7 311.4,299.2 309.8,296.5 308.7,295.4 307.5,294.7
			306.1,294.2 304.6,294.2 303.3,294.8 302.9,294.1 302.7,293.9 302.2,294.2 301.7,293.9 300,293.7 300.3,294.4 301.3,295.9
			301.6,296.7 301.4,297.7 301.1,298.4 300,299.8 301,300.1 301.5,300.8 301.8,301.6 302.4,302 304.4,304.7 304.9,305.5 305,306.1
			305.4,306.3 305.8,306.3 306,306.6 306.1,306.7 308.9,311.1 309.8,311.9 309.4,312.8 309.5,313.8 309.8,315.5 310,318.9
			309.8,320.2 310.3,320.2 311.5,318.7 313.5,317.2 315.7,315.9 317.6,315.2 321.1,314.6 321.8,314.7 322.1,314.7 322.5,314.7
			323,314.6 323.6,314.3 324,314 324.5,313.7 325.2,313.5 324.7,314.5 324.4,315.5 324.2,316.5 324.1,317.7 324.5,319 325.4,319.6
			326.5,320.1 327.4,320.7 328.6,322.8 329.3,324.3 330.4,325.3 332.9,325.7 332.1,326.5 331.4,327.6 330.9,328.7 330.7,329.8
			330.2,330.9 330.1,331.5 330.4,331.8 330.6,332 331.9,336 333.7,337.6 335.7,339 336.1,339.3 514.2,339.3 514.1,333.1
			514.2,332.1 514.6,331.4 515.3,330.8 517.3,329.7 518.2,328.9 520,325.4 521.2,324 523.1,323 524.7,322.8 531.2,322.7
			532.8,322.5 534.4,322 536,321.1 537.9,319.2 538.2,317.7 537.5,316.1 536.9,313.8 537.1,312 538.5,309 541,299.1 541,294.9
			540.1,295.1 539.4,294.8 538.8,294.5 536.6,293.8 536.1,293.8 533.6,294.1 532.4,294.5 531.4,295.2 530.5,296.1 529.7,297.2
			527.7,301.1 526.8,302.4 522,307 519.2,308.8 517.7,309.4 516.9,309.2 514.6,307.7 513.4,307.3 510.7,307.1 508.5,307.9
			506.9,309.5 506.3,312.3 504.7,310.8 505.5,308.2 507.4,305.5 508.8,303.7 510,301.8 511.2,294.9 512,294.7 512.2,294.1
			512.2,293.1 512.4,292.1 513,291.1 514.2,289.9 515.5,287.6 516.8,285.9 518.3,284.6 519.9,284.3 521.8,284.1 523.3,283.1
			524.4,281.5 525,279.8 521.6,275.2 521.1,274.4 519.9,273.5 516.6,269.2 516.4,269 515.8,268.6 515.6,268.3 515.5,267.9
			515.6,267.1 515.6,266.7 514.9,264.5 514.7,263.7 514.6,257.8 515,255 515,254.7 299.9,254.7 		"/>
		<polygon fill="#0072C6" points="337.3,340.6 334.7,339.5 334.2,339.3 330.5,339.3 327.8,340.8 326.3,341.1 328,343.1 329,344
			329.9,344.4 331.1,344.8 331.9,345.7 332.9,347.8 336.7,350.2 340.8,348.5 342.3,348.3 340.8,349 340,349.7 339.8,350.7
			340.1,352.2 340.8,353.6 341.8,354.4 343,354.9 346.1,357.2 347,357.5 347.5,357.6 348,357.6 353.1,358.5 353.8,358.5
			354.9,359.4 357.5,358.5 361.5,356 363.9,352.3 365.3,351.1 367,352.2 365.8,352.4 365.4,353.3 365.4,354.4 365.9,355.5
			365.4,356 365,355.6 363.7,354.9 360.6,359.1 359.6,361.9 361.5,363.7 361.5,362.6 362.1,362.6 362.6,363.1 363.1,363
			363.7,362.6 364.3,362.1 364.4,362.9 364.3,363.5 364.1,364 363.7,364.3 363.7,364.8 365,366 365.4,367.7 366,369.2 367.8,369.9
			368.7,370 370.3,370.3 370.8,370.4 371.8,370.1 373.5,369.4 375.3,369.1 376.9,368.3 377.7,368.1 379.3,368.1 380.2,367.6
			381.6,367.2 382.2,366.9 382.4,366.2 382.7,365.7 383.4,365.6 384.4,365.6 385.2,365.4 385.3,365.7 385.7,366.5 386.3,366.2
			386.8,366.1 387.4,366.1 387.9,365.9 388.5,365.9 388.1,367.5 387,368.1 385.6,368.3 384.1,368.7 384.3,369 384.4,369.6
			384.6,369.9 382.5,370 380.9,370.7 379.6,371.5 378,372 377.6,371.8 376.6,371.1 376.1,370.9 375.5,371 374.5,371.3 374.1,371.4
			372.1,371.4 371.2,371.5 370.3,372 368.9,371.5 367.8,372.4 367,373.6 365.5,374.9 364.4,376.4 363.7,377.9 364,378.6
			364.6,378.9 365.3,379.5 366,379.9 367.4,379.1 368.3,379.2 369.8,379.8 370.4,380.2 371.1,381.2 371.7,381.4 372.5,381.5
			373.1,381.8 373.5,382.3 373.6,383.1 371,381.9 368,380.9 365,381 362.6,383.1 378,388 397.3,395.6 416.1,402.4 427.5,409
			431.7,412.6 432.8,413.7 433.6,415.5 434.1,415.5 434.7,415.1 435.7,414.9 437.9,415 437.7,415.5 437.4,415.8 437,416
			436.3,416.1 437.5,417.1 439,418.2 440.6,419 443.9,419.8 445.3,420.9 447.8,419.7 448.4,419.3 448.2,417.3 448.6,415.9
			450.8,414.7 451.5,413.3 452,411.8 452.2,410.6 451.9,409 452.2,408.5 453.9,408.3 454.5,408 454.9,407.6 455.1,406.9
			454.8,405.9 453.7,404 453.5,403.2 453.7,402.9 455.2,401.6 458,397.2 459.3,396.9 466,394 466.6,393.3 473.3,384.8 485.2,375.4
			488.5,373.6 491.5,372.9 492.6,372.4 493.5,371.7 505.1,357.7 508.1,355.1 511.9,353 512.5,352.8 514.3,352.5 514.2,339.3
			336.1,339.3 		"/>
		<polygon fill="#0072C6" points="355,363.1 353.4,363 348.6,363.4 345.5,364.2 344.2,364.3 335.4,364.4 332.4,364.8 331.2,365.3
			330.2,366.3 329.9,367.4 326.9,368.1 326.9,368.7 335.1,370.9 341.9,371.9 344.5,373.3 351.8,375.2 353,375.3 354.7,375.9
			356.2,377.4 357.7,379.4 358.8,381.4 357.1,381.4 357.8,382.6 359.1,383.1 360.5,382.9 361.5,381.9 361.6,380.9 360.9,378.2
			361,377 361.7,375.7 362.4,374.9 363,374 363.2,372.6 362.7,370.2 362.8,369.3 363.7,368.7 362.8,367.6 361.9,366.6 360.7,365.9
			359.3,365.4 356.2,365.5 355.4,365.1 356.6,363.7 		"/>
	</g>
	<path fill="none" stroke="#999999" stroke-width="0.25" stroke-linecap="round" stroke-linejoin="round" d="M363.2,372.6l-0.5-2.4
		l0.1-0.9l0.9-0.5l-0.8-1.2l-1-1l-1.1-0.7l-1.4-0.4l-3.1,0.1l-0.8-0.4l1.2-1.4l-1.6-0.7l-1.7-0.1l-4.8,0.4l-3,0.8l-1.3,0.2l-8.8,0
		l-3.1,0.5l-1.2,0.4l-1,1l-0.3,1.1l-3,0.7v0.6l8.2,2.2l6.8,1l2.6,1.3l7.3,1.9l1.2,0.1l1.7,0.6l1.6,1.5l1.4,2l1.1,2h-1.7l0.7,1.2
		l1.3,0.5l1.4-0.2l1-0.9l0.1-1l-0.7-2.7l0.1-1.3l0.7-1.3l0.7-0.8l0.6-0.8L363.2,372.6z M540.1,295.1l-0.7-0.2l-0.6-0.4l-2.2-0.7
		l-0.5,0l-2.4,0.3l-1.2,0.4l-1,0.7l-0.9,0.9l-0.8,1.1l-1.9,3.9l-1,1.3L522,307l-2.8,1.9l-1.5,0.6l-0.8-0.2l-2.3-1.5l-1.2-0.5
		l-2.7-0.1l-2.3,0.7l-1.6,1.7l-0.6,2.7l-1.6-1.4l0.8-2.6l1.8-2.7l1.5-1.7l1.2-1.9l1.2-6.9l0.9-0.1l0.2-0.6l0-1l0.2-1.1l0.6-1
		l1.2-1.2l1.3-2.3l1.3-1.7l1.5-1.3l1.6-0.3l1.9-0.1l1.5-1l1.1-1.6l0.6-1.7l-3.4-4.6l-0.4-0.8l-1.2-0.9l-3.3-4.4l-0.2-0.2l-0.6-0.4
		l-0.3-0.3l0-0.3l0.1-0.8l0-0.3l-0.7-2.3l-0.1-0.8l-0.1-5.9l0.4-2.8l1.2-4.8L516,249l-1-0.8l-1.9-0.5l-3.2-0.3l-3.3,0.1l-2.9-0.9
		l-0.6-2.9l0.9-3.5l1.4-2.5l0.8-0.5l0.9-0.4l0.9-0.5l0.6-0.9l0.1-0.7l-0.3-1.4l0-0.7l0.4-1l0.5-0.9l0.3-0.9l-0.1-1l-3.4-3l-0.8-0.4
		l-1.1-0.7l-1-0.8l-1-1.4l-0.7-0.2h-0.9l-0.8-0.1l-0.5,0.1l-1.4-0.1l-1-0.3l0.8-0.7l0.9-0.6l-0.1-0.5l-1.3-0.8l-1.2-1.3l-0.9-1.2
		l-0.3-1.4l0.4-2l0.1-1.1l-0.6-0.5l-0.8-0.4l-0.6-0.7l-0.4-2.2l-0.3-0.7l-0.8-0.8l-2.1-1.4l-0.6-0.8l-0.5-2.1l-0.3-0.6l-0.5-0.4
		l-1.3-0.5l-0.5-0.3l-0.5-0.8l-0.9-2.7l-1.9-3.7l-2.8-3.6l-3.3-3.2l-6-3.8l-0.6-0.9l-1.1-5.4l-0.6-1.8l-0.9-0.8l-1.1-0.1l-2.7-0.8
		l-2-0.2l-51.2,0.3L410,178l-0.6,0.8l-17.6,3.8l-1.4-0.1l-1.3-0.3l-1.5-0.6l-1.9-1.2l-1.5-1.3l-1.4-0.9l-1.9-0.1l-12.1,2.6l-3.6,1.3
		l-2.9,1.7l-0.5,0.7l-0.1,0.5l0.1,0.5l0,0.9l-1.1,6l0,0.3l0.3,0.9l0,0.4l-0.3,0.2l-0.4-0.1h-0.4l-0.2,0.4l0,1l-0.1,0.3l-0.3,0
		l-2.5,1.5l-0.7,0.7l-1.3,2.3l-0.2,0.3l-0.1,3.4l-0.3,0.7l-0.6,0.1l-0.8-0.1l-0.7,0.3l-0.4,0.7l-0.7,2.7l-0.2,0.4l-0.2,0.2l-0.3,0.1
		l-0.5,0.1l-0.6,0.3l-0.1,0.3l0.2,0.4l0,0.4l-2.7,8.8l-0.4,0.5l-0.6,0.5l-0.3,0.3l-0.2,0.5l-0.3,0.5l-0.4-0.1l-0.4-0.3l-0.3-0.1
		l-1.4,0.8l-0.5,0.4l-0.6,0.8l0,0.6l0.3,0.7l0,0.6l-1.1,0.3l-1.4,0.7l-1.9,3.2l-1.3,1.1l-1.7,0.3l-1.5-0.1l-1.6,0.1l-1.8,0.9
		l-1.6-1.6l-1.7,1.2l-1.3,2.5l-0.4,2.3l0.4,0.8l1.1,1.4l0.1,0.7l-0.3,0.1l-1.3,0.1l-0.5,0.2l-0.8,1.1l-0.7,1.2l-1.1,2.6l-1.1,1.3
		l-1.5,0.9l-3.1,1.5l-2.4,1.8l-1.2,0.2l-1.8-0.7l-3-1.9l-1.3-0.3l-2.1,0.4l-3.5,1.1l-1.8,1.4v0.5l1.3,1.5l-0.3,3.8l1.7,1.4l0.2-0.5
		l0.2-0.3l0.2-0.3l0.5-0.1l1.2,1.2l0-0.6l0.1-0.1l0.2,0l0.3-0.4l0.6,1.9l1.6,1.1l2,0.5l1.9-0.2l3.4-1.3l1.8-0.3l1.4,0.5v0.6
		l-1.8,0.1l-2,0.4l-1.6,0.7l-0.8,1.6l-0.3,0.1l-0.2,0.3l0.1,0.6l0.3,0.1l0.6,0l0.6,0.2l0.3,0.6l0.5,0.8l1.2,0.1l1.3-0.2l0.9-0.4
		l1,0.5l1.5,0.3h1.4l0.6-0.5l0.5-0.3l3.3,1l-4.6-0.1l-2.3,0.2l-1.6,0.7l-1.3,0.2l-6.2,0l-0.7-0.5l-0.3-0.5l-0.4-0.3l-0.9,0.2
		l-2.2,2.5l0.4,8.6l-0.4,0.1l-0.1,2.5l0.1,1.3l0.4,0.9l0.8,0.9l0.8,1.4l0.7,1.4l0.5,2.4l0.6,1.3l2.1,3.5l0.5,0.6l0.7,0.3l0.8-0.3
		l0.4-0.6V291l-0.3-0.7l1.7-1.4l1.2-1.7l-0.1-1.8l-2.2-1.7l1.1-0.6l-1.3-0.4l-1.2-0.6l-0.7-0.9l0.4-1.4l0.3,0.9l0.4,0.5l0.6,0.1
		l0.8-0.5l1.5,1.9l1.1,1l1.3,0.4l0.9-0.4l0.6-1l0.8-2.5h0.5l0.3,0.5l0.3,0.3l0.4,0.1l0.7,0.1v0.5l-1.4,0.9l-0.8,1.2l-1,1l-1.8,0.3
		l0.8,1.1l1.3,0.4l1.4-0.1l2.1-1.3h1.1l1.2,0.2l1.4,0.1l2.9-0.8l1.6-1.7l1.3-2.2l2-2.4l-2.9,6.3l-1.5,1.9l0.1,0l0.2,0.9l1.5,0.1
		l1.7-0.2l1.5,0.3l-0.7,0.3l-1.6,1.1l-0.7,0.2l-0.9-0.1l-1.5-0.4l-5.3-0.4l-0.8-0.2l-0.5,0.7l-0.4,0.8l-0.2,0.9l0,0.9l-1.1-0.5
		l-0.6,0.5l-0.5,0.9l-0.6,0.8l-1,0.6l-2.4,0.9l-0.9,0.7l-0.8,1.9l1.2,1.2l2.2,0.8l2.3,0.5v0.5h-1.1l0.3,1l0.6,0.6l0.8,0.4l1,0.2v0.6
		l-2.2,0.3l-2-1.4l-2-1.8l-2.8-1.4l-1.6-2.8l-1-1.1l-1.2-0.7l-1.4-0.4l-1.5,0l-1.4,0.6l-0.4-0.7l-0.2-0.2l-0.5,0.3l-0.5-0.3
		l-1.7-0.3l0.3,0.8l1,1.5l0.2,0.8l-0.1,1l-0.4,0.6l-1.1,1.4l1,0.3l0.5,0.8l0.3,0.8l0.6,0.3l2,2.7l0.4,0.9l0.2,0.6l0.4,0.1l0.4,0.1
		l0.2,0.3l0.2,0.1l2.8,4.4l0.9,0.8l-0.4,0.9l0,1l0.4,1.7l0.2,3.4l-0.2,1.3h0.5l1.2-1.5l2-1.5l2.2-1.3l1.8-0.7l3.5-0.5l0.7,0l0.4,0.1
		h0.4l0.5-0.1l0.6-0.3l0.4-0.3l0.5-0.3l0.7-0.1l-0.5,1l-0.3,1l-0.2,1.1l-0.1,1.1l0.4,1.3l0.9,0.7l1.1,0.5l0.9,0.6l1.2,2l0.6,1.6
		l1.1,1l2.6,0.4l-0.8,0.9l-0.7,1l-0.5,1.1l-0.2,1.1l-0.5,1.1l-0.1,0.6l0.4,0.3l0.2,0.3l1.3,3.9l1.7,1.6l2,1.4l1.6,1.6l-2.7-1.1
		l-1.3-0.4l-1.3-0.2l-1.5,0.4l-2.7,1.5l-1.6,0.3l1.7,2l1.1,0.9l0.9,0.4l1.2,0.4l0.8,0.9l1.1,2.1l3.8,2.5l4.1-1.7l1.5-0.2l-1.4,0.7
		l-0.8,0.7l-0.3,1l0.3,1.5l0.7,1.5l1,0.7l1.2,0.5l3.2,2.3l0.8,0.3l0.5,0.1h0.5l5.2,1l0.6-0.1l1.2,0.9l2.6-1l4-2.5l2.4-3.7l1.4-1.3
		l1.6,1.1l-1.1,0.3l-0.5,0.8l0.1,1.1l0.5,1l-0.5,0.5l-0.4-0.4l-1.3-0.7l-3.1,4.2l-1,2.7l1.9,1.9v-1.1h0.6l0.5,0.5l0.5,0l0.6-0.4
		l0.6-0.5l0.1,0.8l0,0.6l-0.2,0.5l-0.4,0.3v0.5l1.3,1.1l0.4,1.7l0.6,1.5l1.8,0.7l0.9,0.1l1.6,0.4l0.5,0.1l1-0.3l1.7-0.7l1.8-0.3
		l1.6-0.8l0.8-0.2l1.5,0l0.9-0.5l1.4-0.4l0.5-0.3l0.2-0.7l0.3-0.4l0.8-0.1h0.9l0.8-0.2l0.1,0.3l0.5,0.7l0.5-0.3l0.6-0.1l0.5,0
		l0.5-0.1h0.6l-0.3,1.6l-1.1,0.6l-1.5,0.2l-1.5,0.4l0.2,0.3l0.2,0.6l0.2,0.3l-2.1,0.1l-1.5,0.7l-1.4,0.8L378,372l-0.4-0.2l-1-0.7
		l-0.6-0.2l-0.5,0.1l-1,0.3l-0.4,0.1l-2,0l-0.9,0.1l-0.9,0.4l-1.4-0.5l-1.1,0.9l-0.8,1.2l-1.5,1.3l-1,1.5l-0.7,1.5l0.3,0.7l0.7,0.3
		l0.7,0.6l0.7,0.3l1.4-0.8l0.9,0.1l1.5,0.6l0.6,0.5l0.6,1l0.6,0.2l0.8,0.1l0.6,0.3l0.4,0.5l0.1,0.7l-2.6-1.2l-3-1L365,381l-2.4,2
		L378,388l19.4,7.6l18.8,6.8l11.4,6.6l4.3,3.5l1.1,1.2l0.7,1.8h0.5l0.7-0.4l1-0.1l2.2,0.1l-0.3,0.5l-0.2,0.3L437,416l-0.7,0.1
		l1.2,1.1l1.5,1l1.6,0.8l3.3,0.7l1.3,1.1l2.5-1.2l0.6-0.4l-0.2-2l0.3-1.4l2.2-1.3l0.8-1.3l0.5-1.5l0.2-1.2l-0.3-1.6l0.3-0.5l1.8-0.2
		l0.6-0.2l0.4-0.4l0.2-0.7l-0.3-1l-1.1-1.9l-0.2-0.8l0.2-0.3l1.5-1.3l2.8-4.4l1.4-0.3l6.6-3l0.7-0.7l6.7-8.5l11.9-9.4l3.3-1.8
		l3.1-0.7l1.1-0.4l0.9-0.7l11.6-14l3-2.6l3.8-2.1l0.6-0.2l1.8-0.3l-0.2-19.5l0.1-0.9l0.3-0.7l0.7-0.6l2-1.1l0.9-0.8l1.9-3.4l1.2-1.5
		l1.9-0.9l1.6-0.3l6.5,0l1.7-0.2l1.6-0.5l1.6-0.9l2-1.9l0.2-1.5l-0.6-1.6l-0.6-2.3l0.2-1.8l1.4-3.1l2.5-9.9l0.1-4.2L540.1,295.1z"/>
</g>

</svg>
