<?xml version="1.0" encoding="utf-8"?>

<svg version="1.2" baseProfile="tiny" xmlns="http://www.w3.org/2000/svg" xmlns:xlink="http://www.w3.org/1999/xlink" x="0px"
	 y="0px" viewBox="258.7 179 322.6 235.9" xml:space="preserve">

<g id="Senegal">
	<g>
		<polygon fill="none" points="492,244.1 491.9,244 491.9,244 		"/>
		<polygon fill="#00853F" points="360.4,188.2 359.6,188.3 359,188.7 357.8,189.7 357.1,190.2 356.3,190.4 355.5,190.5 354.7,190.3
			353.4,189.7 353,189.6 351.3,189.5 348.9,188.7 348.1,188.6 346.8,188.9 346.4,188.9 344.5,188.4 343.8,188.5 341.7,189.4
			341.3,189.5 341,189.5 340.3,189.2 339.9,189.1 339.5,189.2 339.1,189.4 338.8,189.6 337.5,189.8 336.3,189.7 335.3,189.2
			334.4,188.2 333.7,187.3 333.3,186.9 332.9,186.6 332.2,186.5 331.6,186.6 331,186.9 329.4,187.9 328.9,188.2 328.3,188.3
			327.7,188.3 326,187.9 324.8,188.2 323.7,188.9 322.7,189.8 322,190.8 321.6,191.8 321.3,194 319.2,203.2 318.9,203.8
			318.6,204.4 317.8,204.9 315.9,205.4 315.1,206 314.7,207.1 314.5,210.8 313.6,213 312.9,215.4 312.5,216 312.4,221.9
			311.9,224.9 310.8,227 311.1,227.7 311.2,228.2 310.9,228.8 304.1,240.3 300.4,245.1 293.2,258 289.5,262.1 287.8,264.6
			279.5,274.5 277.7,275.9 269.9,279.3 267.3,281.4 258.7,283.7 259.5,284.4 263,288.8 263.7,289.2 263.9,288.9 264.1,288.9
			264.4,288.1 264.2,287.9 263.9,287.6 263.7,287.4 264.4,287.1 264.8,286.3 264.2,286.1 263.7,285.6 264.9,284.7 266.2,284.6
			267.7,284.8 269.5,284.8 269.8,285.2 272,286.4 272.9,286.6 274,286.8 275,287.3 275.9,287.9 277.4,289.3 279.5,292.2
			280.9,295.9 282.8,298.7 283.1,299.4 283.7,300 287.4,301.8 289.1,303.4 289.7,304.4 289.9,305.3 289.9,305.9 289.6,306.9
			289.5,307.5 289.6,308.2 289.9,308.4 290.2,308.5 290.7,308.7 291.7,309.8 292.1,310.4 292.4,311.3 292.9,314.2 293.1,315
			293.6,315.5 295,315.8 295.7,316.1 296.2,316.7 297.1,318.6 298,321.2 298.2,322.7 298.6,333 298.9,333 298.6,327.9 298.9,326.4
			299.1,326 300.1,324.8 300.4,324.3 300.6,323.6 300.7,323.1 301.6,322.1 301.6,321.6 301,320.9 301.4,320.7 301.9,320.6
			303,320.5 303.6,320.3 304.3,319.2 305,319 303.5,320.7 302.7,320.9 302.6,321.3 301.4,323.5 302.6,323.6 303.8,324 304.9,324.2
			306.1,323.8 306.6,323.3 307.3,322.1 307.7,321.5 308.3,321.1 309.5,320.8 310,320.5 310.5,320 311.8,317.6 312,317.2
			312.1,316.7 312.3,316.3 312.7,316.1 313.3,316.2 313.9,316.4 314.4,316.5 315,316.1 314.5,315.6 314.3,314.7 314.6,314
			315.4,313.5 315.3,314.7 316.8,315.2 320.1,315.4 319.6,315.7 318.8,316.1 318.5,316.3 318,316.6 317.5,316.3 317.1,316
			316.7,315.7 316,316 315.2,317 313.5,317.5 312.8,318.1 311.4,319.8 310.6,320.6 308.2,322 308.7,322.6 309.4,322.7 310.1,322.6
			310.8,322.4 310,322.9 309.4,323.3 308.9,323.8 309,325 307.8,324.6 307.1,325 306.5,325.8 305.7,326.4 305.8,325.7 305.3,325.3
			304.6,325.1 303,324.9 302.4,324.9 301.7,325.1 300.5,326.1 300.2,326.5 300,327 300,327.9 300.2,329.6 300.4,330.5 300.7,331.2
			300.3,331.9 300.3,333 300.5,334.1 301.2,334.5 301.7,334.8 301.8,335.3 301.8,336 302,336.5 302.5,336.8 302.9,336.4
			303.4,335.4 303.8,335.1 304.3,334.8 304.6,334.5 304.9,334 305,333.6 305.2,333.1 305.7,332.7 306.8,332.3 307.8,332.2
			308.8,331.9 309.3,331.2 309.7,331.2 310.4,331.4 311.1,330.5 311.6,329.2 312,327 312.5,325.9 313.6,324.2 313.6,325.1
			312.4,330.1 312.2,330.8 312.9,331.2 313.2,332.3 313.3,333.6 313.6,334.9 312.9,335 312.3,334.4 311.9,333.4 311.8,332.3
			310,332.7 310.3,333.5 310.4,333.8 310.1,333.6 309.3,333.2 309,333 308.6,333.8 306.8,336 306.3,336.7 306.2,337.2 306.1,338.6
			305.6,340.7 305.9,341.6 306.8,342.6 307.8,342.9 308.8,342.6 309.6,341.9 310,340.7 310.8,340.8 311.3,340.1 311.6,339
			311.4,338.2 312.5,338.3 312.6,339 312.1,339.8 311.4,340.4 311.7,340.6 312.3,341 312.5,341.1 311.2,342.1 309.9,342.8
			309,343.7 309,345.2 309.2,345.7 309.7,346.5 313,346.5 316.3,346.5 319.5,346.5 322.8,346.6 326,346.6 329.3,346.6 332.5,346.6
			335.8,346.6 339,346.6 342.3,346.6 345.5,346.6 348.8,346.7 352.1,346.7 355.3,346.7 358.6,346.7 360.6,346.7 360.6,188.2 		"/>
		<polygon fill="#00853F" points="358.4,402.5 357.8,402.6 357.1,402.6 356.7,402.5 356.3,402.2 356,401.9 355.7,401.5 355.3,400.6
			354.9,400.1 354.6,400.1 354.4,400.2 354.1,400.2 353.3,399.7 353,399.7 352.7,399.9 352.4,400.1 351.3,399.7 350.5,400.1
			350,400.8 349.4,401.2 348,401.5 347.6,401.6 347.3,401.4 346.6,400.7 346.3,400.5 342.9,400.4 342.3,400.3 341.9,399.8
			339.7,398.1 338.8,397.6 337.6,397.5 336.8,397.9 336.1,398.4 335.3,398.7 334.1,398.7 333.1,399 329.1,400.5 328.8,400.1
			328.5,399.4 328,398.9 327.4,399.2 326.2,399.9 325.2,399.8 324.2,399.4 323,399.4 322,399.9 320.8,401.4 319.7,401.9
			318.8,401.9 317.1,401 315.5,400.6 313.8,399.6 312.7,399.4 311.8,399.7 311.3,400.3 311.2,401.1 310.5,400.7 309.8,398.7
			308.8,397.5 306.8,399 306.4,399.5 306.2,399.9 305.9,400.4 305.4,400.8 303.6,401.9 302,401.8 300.8,401.8 298.2,403.4
			297.8,403.9 297.7,404.4 297.2,404.9 297.1,405.4 297.1,407.6 297.3,408.3 297.9,409 299.1,410.2 299.8,410.7 300.2,411.1
			300.4,412.2 300.7,412.9 301,413.5 302.2,412.7 304.1,412.2 311.2,412.7 312.2,412.7 314.9,412 317.5,412 319.1,411.3
			323.3,409.1 326.9,407.1 327.5,407 328,407.1 329.2,407.6 329.6,407.6 329.9,407.5 330.1,407.3 330.4,407.2 334.4,406.5
			336.3,406.7 339.5,407.8 340.5,407.9 344.7,407.6 354.2,408.2 356.1,407.8 360.6,405.7 360.6,401.6 		"/>
		<polygon fill="#00853F" points="360.3,358.9 359.4,359 355.9,358.6 355.2,358.6 352.9,359.4 349.2,359.7 348.6,360.1 348.4,360.8
			348.3,365.5 348.2,369.3 347.9,369.5 345.9,369.5 341.1,369.5 334.3,369.4 322.7,369.3 314.8,369.2 306.1,369.2 303.8,369.1
			302,369.5 301.2,370.9 301.1,371.4 300.2,372.2 299.9,372.6 299.7,373.2 299.7,374.4 299.9,374.9 300,375.8 299.9,377.2
			299.4,379.4 299.2,380.5 299.3,381.1 299.5,382.4 299.6,383.1 299.4,383.8 297.5,386.5 297.2,387.2 297.1,387.8 297.2,388.7
			297.6,388.9 297.9,388.6 298.2,388 298.6,388 298.8,389 298.6,389.8 297.5,391.3 297.8,391.8 297.9,392.2 297.8,392.7
			297.5,393.1 298.1,393.3 298.7,392.8 299.8,391.5 300.7,391.2 301.8,391.4 302.5,392 302.5,392.8 300.6,392.2 299.3,393.2
			298.5,395.1 298.2,397 298.3,398.8 298.7,400.2 299.6,400.8 301.4,400.1 303.7,398.2 305.3,397.6 305.4,396.7 305,394.8
			305.1,393.7 305.3,393 305.7,392.4 306.8,391.5 307,391.3 307.3,391.1 307.5,390.6 307.7,390.2 307.9,388.7 308.2,390.6
			307.5,391.8 306.5,392.9 305.7,394.3 305.7,395 305.9,395.6 306.3,395.9 307,396.1 307.8,395.9 308.3,395.4 308.7,394.8
			309.3,394.3 309.5,395.3 311.5,397 312.2,397.9 312.5,397.9 312.9,393.5 313.1,394.3 313.4,394.9 313.9,395.3 314.7,395.3
			314.7,395.7 314.2,395.9 313.7,396.2 313.3,396.7 313.3,397.2 313.5,397.6 314,397.8 314.5,398 314.7,398.1 315,398.8
			315.8,399.5 317.6,400.5 319.7,401.2 320.2,400.8 320.6,400.2 320.8,399.6 321,399.4 321.5,399.3 322.2,398.8 322.8,398.7
			324.5,399 325.1,399 325.7,398.8 326.7,398.4 327.2,398.2 329.2,398.2 330.5,398.6 331,398.7 331.4,398.5 332.4,397.8 333,397.6
			335.1,397.2 336.6,396.3 336.8,394.4 337,394.1 337.6,393 337.7,392.8 337.7,392.4 338,392.4 338.3,393 338.5,394.1 338.7,394.3
			338.9,394.4 339.1,394.6 339.8,396 340.2,396.5 340.4,396.6 340.8,396.7 341.5,396.8 341.6,396.9 341.6,397.3 341.6,397.7
			341.6,397.9 342.9,398.8 343.7,399.2 344.3,399.4 345,399.3 345.8,398.8 346.5,398.7 347.1,398.8 347.5,399.2 347.7,399.6
			347.9,399.7 348.8,399.5 351.3,397.9 355.1,398.5 356.6,399.2 356.3,400.8 356.8,401.2 357.4,401.5 358,401.4 358.7,401
			360.6,399.3 360.6,358.8 		"/>
		<path fill="#FDEF42" d="M478.1,218.9l-0.5-0.5l-0.4-0.5l-0.3-0.6l-0.7-1.8l-0.1-0.4l-0.1-1l-0.1-0.4l-0.3-0.4l-1.4-1l-0.3-0.3
			l-0.4-0.7l-0.3-0.3l-0.8,0l-1.9,0.7l-0.5-0.4l0.1-0.9l0.9-1.6l-0.1-0.8l-0.3-0.1h-0.3l-0.3,0.1l-0.7,0.3l-2.8,0.6l-1.6,0.7
			l-0.4,0.1l-0.2,0h-1L463,210l-1.4,0.8l-0.3,0.1l-0.4-0.1l-0.1-0.1l-0.3-0.3l-0.1-0.1l-0.3-0.1l-0.1-0.1l-0.1-0.1l-0.1-0.2
			l-0.1-0.1l-0.2-0.2l-0.5-0.2l-0.2-0.2l-0.2-0.6l0.5-1.6l0.1-0.7l-0.5-0.1l-0.5,0l-0.5,0.1l-0.4,0.3l-0.4,0.4l-0.9,1.4l-0.4,0.4
			l-0.8,0.6l-0.9,0.5l-0.4,0.2l-0.4,0l-0.4-0.1l-0.5-0.3l-0.4-0.4l-0.3-0.5l-0.3-0.5l-0.4-1.5l-0.3-0.4l-0.3-0.4l-0.8-0.6l-0.4-0.3
			l-2.1-0.6l-0.9-0.5l-0.2-0.9l0.3-1l0-0.5l-0.2-0.5l-0.5-0.7l-0.1-0.4l0.1-0.5l0.3-0.8l0-0.4l-0.3-0.4l-0.5-0.3l-1-0.4l-0.5-0.3
			l-0.9-1.1l-0.4-0.3l-1.7-1L437,192l-1.8-2.1l-1.2-0.9l-0.4-0.4l-0.9-1.2l-0.4-0.3l-0.6-0.1l-1.3-0.1l-0.5-0.3l-0.3-0.4l-0.1-1
			l-0.2-0.4l-0.5-0.2l-2,0.2l-0.5-0.2l-0.1-0.4l0.3-1l0-0.6l-0.2-0.4l-0.4-0.3l-3.3-1.3l-1,0.1l-0.5,0.2l-1.4,0.8l-0.5,0.2l-0.5,0.2
			l-0.6,0.1h-0.6l-2.1-0.4l-0.6,0l-2.2,0.6l-0.6,0l-0.6-0.1l-1.5-0.7l-0.5-0.1l-0.5,0l-1.8,0.5l-0.6,0.1l-8.9-0.6l-1.6,0.4l-1-0.2
			l-0.5-0.7l-0.4-0.9l-0.7-0.7l-0.6-0.3l-1.2,0.5l-0.5,0.4l-0.3,0.5l-0.2,0.8l-0.1,0.3l-0.3,0.3l-0.3,0.3l-0.4,0.1l-0.4,0l-0.4-0.1
			l-0.5-0.5l-0.4-0.6l-0.5-0.5l-0.8-0.2l-0.7,0.2l-0.5,0.5l-0.1,0.7l0.3,0.7l0.8,0.8l0.2,0.3l0,0.4l-0.2,0.3l-0.3,0.2L385,185
			l-5.6,0.9l-0.8,0l-2.5-0.4l-1.7,0.1l-0.8,0.2l-2.2,0.9l-0.7,0.2l-0.8,0l-0.6-0.3l-0.4-0.5l-0.3-0.6l-0.5-0.4l-0.8-0.1l-0.8,0.3
			l-0.6,0.6l-1.3,1.8l-0.5,0.5l-0.6,0.3l-0.8,0.1l-2.1-0.4v158.5l1.2,0h2.6l0.8-0.3l0.1-2.1l0.2-1.1l0.4-1.2l0.5-1.1l0.6-0.9
			l1.6-1.8l2.2-1.6l2.4-0.9l2.3,0.4l0.5,0.5l1,1.4l0.4,0.3l1.1-0.3l3.9-2.5l3.8-1.4l1.1,0.1l3.1,1.2l5.3,0.2l1.9,0.6l1.9,1.5
			l0.7,0.9l0.5,1l1,3.5l0.4,0.4l2.2,1.3l0.7,0.3l0.6-0.2l3.2-1.8l2.1-0.6l2.2,0.2l2.3,1.1l1,0.8l0.7,0.9l0.5,1l0.7,2.3l0.3,0.7
			l0.5,0.6l4.2,3l1.3,0.6l1,0.1l0.9-0.2l3.1-1.1l2.9-1.8l1-0.4l3-0.7l2.4-1.3l1.1-0.3l0.6,0l0.9,0.1l0.5-0.1l0.6-0.3l1.1-0.6
			l0.7-0.1l1.1,0.2l1.3,0.5l1.3,0.6l0.9,0.7l0.3,0.5l0.3,1l0.3,0.5l0.5,0.4l1.2,0.7l0.5,0.4l1.3,2.5l-0.2,2.7l-1.5,2.3l-2.6,1.1
			l-4,0.3l-2.1,0.6l-2.1,0l-2.3,0.8l-0.9,0l-0.8,0.4l-2.5,1.9l-1.1,0.6l-1.5,0.1l-2.8-0.5l-3,0.3l-1.4-0.1l-1.4-0.4l-1.9-1l-0.6-0.4
			l-0.5-0.5l-0.4-0.5l-0.6-0.6l-0.7-0.2l-1.6-0.1l-0.8-0.2l-0.7-0.4l-2-1.8l-0.6-0.2l-1.7,0.4l-1.9,0.2l-1.9-0.2l-1.8-0.7l-1.5-1.3
			l-1.1-1.5l-0.6-0.4l-1.1-0.2l-1-0.3l-1.7-1.1l-0.8-0.2l-2-0.2l-1.8-0.5l-3.4-1.8h0l0,0h0l-2.6-1.9l-2.4-2.2l-1.4-0.9l-1.2,0.5
			l-2.3,2.4l-0.7,1.2l-0.2,3.3l-0.3,1.5l-1.1,1.4l-1.5,1l-1.7,0.7l-1.7,0.3h-1.9l-5.7-1.2l-1.6-0.1l-1.2,0.5l-1.2,0.7l-1.3,0.4v40.5
			l0.7-0.7l0.4-0.5l1.3-1.1l0.2-0.4l0-0.4l0-0.9l-0.1-0.6l-0.6-2v-3.1l0.3-0.8l0.7-0.4l0.8-0.1h0.5l0.9-0.2l1.3-0.9l0.8-0.4l0.8,0.1
			l0.8,0.4l0.8,0l0.8-0.9l-0.1,1.5l-0.7,0.6l-1-0.3l-1.1-1l-0.2,0.6l-0.3,0.5l-0.5,0.4l-0.7,0.3l-0.7,0.1l-0.8-0.1l-0.7,0l-0.6,0.4
			l-0.4,1.3l0.2,1.7l0.5,1.6l0.5,1.2l-0.4,0.4l0.3,0.3l0.6,0.3l0.3,0.3l-0.1,0.7l-0.4,0.4l-0.5,0.3l-0.6,0.4l-1.6,2.1l-1,1l-0.2,0.1
			v4.1l8.7-4.1l2.9-2.1l3.2-1.5l3-2.2l1.4-0.6l1.5-0.2l2.6,0l18.6,0.1l18.6,0.1l18.6,0.1l18.6,0.1l17,0.6l2.5,0.7l0.2,0.1l0.5,0.3
			l0.3,0.1l0.3,0l0.1-0.1l0.1-0.1l0.3-0.1l0,0V219.9L478.1,218.9z M434.4,301.7l8.9,27.4L420,312.1L396.7,329l8.9-27.4l-23.3-16.9
			h28.8l8.9-27.4l8.9,27.4h28.8L434.4,301.7z"/>
		<polygon fill="#E31B23" points="580.5,405 580.1,405.7 580,405.2 579.7,404.3 579.6,403.9 579.3,403 578.9,403.2 578.6,403.8
			578.6,404.1 578.2,403.8 577.6,402.7 577.2,402.5 576.6,402.3 577,401.9 578.1,401.4 578.2,400.8 578.1,400.5 578,400.1
			578,399.5 578.2,397.8 578.2,397.3 578,396.7 577.6,396.4 577.2,396.3 577,396.2 576.9,395.4 577.2,395 577.6,394.7 578.2,393.3
			578.9,393 579.6,392.9 580,392.2 579.9,391.7 579.4,390.7 579.4,390.5 579.8,390.1 579.9,389.5 579.8,388.9 579.7,388.4
			579.5,387.9 579.3,387.5 579.1,387.3 579,387.2 578.9,387.2 578.7,387.1 578.5,387 578.4,386.7 578.6,386.4 578.7,386.2
			578.8,385.9 578.7,385.1 578.8,384.5 579.1,384 579.4,383.4 579.2,383.2 578.9,382.9 578.7,382.6 578.7,382.3 579.1,382.1
			579.4,382.2 579.8,382.4 580,382.4 580.5,382 580.8,381.8 581,381.5 580.9,380.1 580.7,379.5 580.5,378.9 580.1,378.5
			579.9,379.4 579.5,380 578.9,380.3 578.1,380.1 578.3,379.6 578.4,378.5 578.4,378.1 578.6,377.9 578.9,377.6 578.9,377.4
			578.5,377.2 578.3,377 578.1,376.7 577.8,376 577.1,375 577.2,374.7 577.5,374.3 577.5,373.9 577,373.7 576.1,373.5 575.4,373.1
			574.8,372.6 574.1,372.1 573.2,371.9 572.9,371.1 572.9,369.2 572.4,368.5 571.8,367.9 571.3,367.3 571.1,366.3 571.3,365.7
			572,364.8 572.1,364.2 571.8,363.7 570.7,362.6 569.4,360.8 569,359.8 569,358.6 568.6,358.8 567.9,359 567.4,358.9 567.2,358.4
			567.3,357.6 567.1,357.4 565.7,357.4 564.7,357.6 564.2,357.6 563.7,357.2 563.4,356.6 563,356.2 562.3,356.1 561.5,356.5
			560.9,357.4 560.6,358.5 560.5,359.5 558.3,361.2 558,361.5 557.7,361.5 557.1,361 556.9,360.6 556.5,359.6 556.3,359.2
			555.9,358.9 554.5,358.2 554.1,358.1 554,357.5 554.7,354.6 554.8,353.7 554.5,353 554,352.9 553.5,352.8 553,352.5 552.7,352.2
			552.2,351.4 551.9,351 548.9,348.8 547.9,347.7 546.8,345.9 546.1,344 545,341.9 544.3,340.8 543.6,340.2 548.1,337.7
			549.8,335.9 550.7,333.5 551,331.3 551,330.3 550.7,329.3 549.7,328.1 548.8,327.4 547.9,326.5 547.4,325.2 547.4,322.9
			548.6,318.8 549,316.6 548.8,315.5 546.9,310.9 546.4,310.1 545.7,309.6 543.6,308.9 542.9,308.4 542.4,307.7 542,307
			542.8,306.7 543,306 542.7,305.3 537.8,303.5 537.1,303.4 537.2,301 537.1,299.9 536.4,297.6 536.3,296.5 536.6,295.5
			537.6,294.9 538,294.6 538.2,294 538.2,293.3 538.3,292.8 538.7,292.2 539.7,291.2 540,290.8 540.1,289.9 539.7,289.6
			539.1,289.4 538.8,289.1 538.6,288.5 538.7,288.2 539,287.8 539.3,287.1 538.7,287.1 537.8,286.9 537,286.6 536.6,286
			536.3,285.2 535.3,284.3 534.9,282.7 532,280.4 528.7,278.9 527.7,278.1 526,276 525.3,275.6 525.2,275 524,270.7 523.8,270.2
			523.3,269.7 522.7,269.4 521.5,269.1 521,268.7 520,268 517.2,266.3 516.5,265.5 516.1,265.1 515.6,264.9 514.8,265 513.1,265.5
			512.5,265.6 511.1,265 509.2,263.1 507.9,262.7 507.8,262.6 507.6,262.1 507.6,261.6 507.9,260.3 507.9,259.8 507.7,259.4
			507.5,259 507,258.7 506.5,258.6 505.9,258.6 504.8,258.8 504.3,258.8 503.8,258.6 503.4,258.3 502.2,257.1 501.9,256.4
			502.4,256 504.2,256.2 505,256 505.3,255.3 505,254.4 504.3,253.7 501.2,251.6 500.6,250.9 500.1,250 499.9,249.2 499.9,247.4
			499.8,246.9 499.6,246.5 499.1,245.8 498.9,245.5 498.7,244 498.5,243.5 498.2,243.1 497.4,242.7 496.5,242.8 495.8,243.3
			495.1,243.8 494.3,244.3 493.5,244.4 491.9,244 492,244.1 491.9,244 491.9,244 491.6,243.8 491.4,243.3 491.3,242.8 491.3,242.3
			491.6,240.3 491.5,239.5 491.1,238.9 490.6,238.4 489.9,238 488.7,237.7 488.3,237.5 487.4,236.8 487,236.7 486.2,236.6
			484.6,236.9 483.9,236.9 483.4,235.6 483.3,235.1 483.3,234.7 483.5,234.2 484.3,233 484.4,232.6 484.4,232.2 484.1,231.7
			483.5,230.9 483.2,230.5 482.8,230.2 482,229.7 481.6,229.4 481.3,229 481.3,228.6 481.4,228.1 481.5,227.6 481.7,227.2
			481.7,226.1 481.4,225.2 480.9,224.4 480,223.3 479.8,223 479.6,222.6 479.6,222.2 479.8,221.2 479.9,220.8 479.8,220.3
			479.5,219.9 479.4,219.9 479.4,396.8 481,396.5 481.4,396.4 481.9,396.5 482.5,397 483,397 483.4,397 484.3,396.7 484.7,396.7
			485,396.8 485.5,397.4 485.7,397.5 485.9,397.5 486.6,397.2 487.1,397.2 487.5,397.2 487.8,397.2 488.2,397.5 488.7,396.9
			489.6,397.4 490.6,397.4 491.5,397.2 492.3,397.4 493,398.1 493.2,399.1 493.2,400.2 493,401.1 492.2,402.9 492,403.8
			492.2,404.8 492.8,405.7 493.6,406.1 494.5,406.2 495.5,406.1 496.5,406.4 497.3,406.4 497.9,405.8 498.1,404.8 499,402.7
			500.9,402.7 502.9,403.7 504.2,404.9 504.2,405.1 504.1,405.4 504.2,405.9 504.8,406.4 505.3,406.6 506.8,406.7 507.7,407.1
			507.9,407.6 508.2,408.1 509.3,408.2 512.7,408 513.7,408.1 514.8,408.6 515.6,409.3 517.1,410.9 517.4,411.4 517.4,411.8
			517.6,412 518.4,412 518.8,411.9 520.3,411 521.4,410.6 522.2,410.5 523.2,410.5 524.3,410.8 526.5,411.6 527.5,412.2 529,414.5
			529.8,415 538.6,412.7 540.6,411.6 542.3,410 543.3,409.5 544.6,409.5 547.7,410.5 548.8,410.7 549.5,410.5 551.5,409.4
			552.1,409 552.3,408.9 552.7,408.9 552.8,409 552.9,409.1 556,410.4 557.1,410.6 561.4,410.8 563.4,410.5 567.4,409 569.6,408.6
			574.1,408.2 575.9,408.4 579.3,409.7 580.8,409.7 580.9,408.3 581.2,406.9 581.3,405.6 580.6,404.7 		"/>
		<polygon fill="#00853F" points="420,257.4 411.1,284.8 382.3,284.8 405.6,301.7 396.7,329 420,312.1 443.3,329 434.4,301.7
			457.7,284.8 428.9,284.8 		"/>
	</g>
	<path vector-effect="none" fill="none" stroke="#999999" stroke-width="0.25" stroke-linecap="round" stroke-linejoin="round" d="
		M491.9,244L491.9,244L491.9,244L491.9,244l1.6,0.4l0.8-0.1l0.8-0.5l0.7-0.6l0.8-0.4l0.8-0.1l0.8,0.4l0.3,0.4l0.2,0.5l0.2,1.5
		l0.2,0.4l0.5,0.7l0.2,0.4l0.1,0.4l0,1.8l0.2,0.9l0.4,0.8l0.6,0.7l3.1,2.1l0.7,0.7l0.3,0.9L505,256l-0.9,0.1l-1.8-0.2l-0.5,0.4
		l0.3,0.7l1.2,1.2l0.5,0.4l0.5,0.2l0.5,0l1.1-0.2h0.6l0.5,0.1l0.5,0.3l0.3,0.4l0.1,0.4l0,0.4l-0.3,1.4l0,0.4l0.2,0.5l0.1,0.1
		l1.3,0.4l2,1.9l1.4,0.6l0.6-0.1l1.7-0.5l0.8-0.1l0.5,0.2l0.4,0.4l0.7,0.9l2.9,1.7l0.9,0.7l0.6,0.3l1.2,0.3l0.6,0.3l0.5,0.5l0.2,0.5
		l1.2,4.3l0,0.6l0.7,0.4l1.8,2.1l0.9,0.8l3.3,1.6l2.9,2.3l0.4,1.6l1,0.9l0.3,0.8l0.4,0.6l0.8,0.3l0.9,0.2l0.6,0l-0.3,0.6l-0.2,0.4
		l-0.1,0.4l0.1,0.6l0.4,0.3l0.5,0.1l0.4,0.3l0,0.9l-0.3,0.5l-1,1l-0.4,0.6l-0.1,0.6l-0.1,0.7l-0.1,0.6l-0.4,0.4l-1,0.6l-0.3,0.9
		l0.1,1.1l0.6,2.3l0.1,1.1l-0.1,2.3l0.7,0.1l4.9,1.8l0.4,0.7l-0.2,0.7L542,307l0.4,0.7l0.5,0.7l0.6,0.5l2.1,0.7l0.7,0.5l0.5,0.8
		l1.9,4.5l0.1,1.2l-0.4,2.2l-1.2,4.1l0,2.2l0.5,1.4l0.9,0.9l1,0.7l0.9,1.1l0.3,1l0,1.1l-0.3,2.2l-0.8,2.4l-1.8,1.8l-4.5,2.5l0.7,0.6
		l0.7,1.1l1.1,2.1l0.7,1.9l1.2,1.8l1,1.1l3,2.2l0.3,0.4l0.5,0.8l0.3,0.4l0.5,0.3l0.5,0.1l0.4,0.2l0.4,0.6l-0.1,1l-0.8,2.9l0.1,0.6
		l0.5,0.1l1.4,0.7l0.4,0.3l0.2,0.4l0.3,1l0.2,0.4l0.6,0.5l0.3,0l0.3-0.3l2.2-1.7l0.1-1l0.3-1.1l0.5-0.9l0.8-0.4l0.7,0.1l0.4,0.4
		l0.3,0.5l0.5,0.4l0.5,0.1l1-0.2l1.3-0.1l0.2,0.2l-0.1,0.8l0.1,0.5l0.6,0.1l0.7-0.2l0.4-0.2l0,1.2l0.4,1l1.3,1.8l1.2,1l0.2,0.5
		l-0.1,0.6l-0.7,1l-0.2,0.6l0.2,1l0.5,0.7l0.6,0.6l0.5,0.7l0,1.9l0.3,0.9l0.9,0.2l0.7,0.4l0.6,0.5l0.7,0.4l0.9,0.2l0.6,0.2l-0.1,0.4
		l-0.3,0.4l-0.1,0.3l0.7,1l0.3,0.7l0.2,0.3l0.2,0.2l0.5,0.2l-0.1,0.2l-0.3,0.2l-0.2,0.2l0,0.5l-0.1,1.1l-0.1,0.5l0.8,0.2l0.6-0.3
		l0.4-0.6l0.1-0.9l0.4,0.5l0.2,0.6l0.1,0.6l0.1,1.4l-0.2,0.3l-0.3,0.2l-0.5,0.4h-0.2l-0.3-0.2l-0.4-0.1l-0.3,0.2l0,0.3l0.3,0.3
		l0.3,0.3l0.1,0.3l-0.2,0.5l-0.3,0.6l-0.2,0.6l0.2,0.9l-0.1,0.2l-0.2,0.2l-0.1,0.3l0,0.3l0.2,0.1l0.2,0l0.1,0l0.1,0.1l0.2,0.2
		l0.2,0.4l0.2,0.4l0.1,0.6l0,0.6l-0.1,0.6l-0.4,0.4v0.2l0.6,1l0.1,0.5l-0.4,0.7l-0.7,0.1l-0.7,0.2l-0.6,1.4l-0.4,0.3l-0.3,0.4l0,0.8
		l0.2,0.1l0.4,0.1l0.4,0.3l0.3,0.6l0,0.6l-0.3,1.7l0,0.6l0.1,0.4l0.1,0.4l-0.1,0.6l-1.1,0.5l-0.4,0.3l0.6,0.2l0.4,0.2l0.6,1l0.4,0.4
		l0-0.4l0.3-0.6l0.4-0.1l0.3,0.8l0.1,0.4l0.3,0.9l0.1,0.5l0.4-0.7l0.1-0.3l0.7,0.9l-0.1,1.3l-0.4,1.4l-0.1,1.4l-1.4-0.1l-3.4-1.2
		l-1.8-0.2l-4.5,0.4l-2.2,0.4l-4,1.5l-2,0.3l-4.3-0.2l-1.1-0.2l-3.2-1.3l-0.1-0.1l-0.1,0h-0.4l-0.2,0.1l-0.6,0.4l-2,1.1l-0.7,0.2
		l-1.1-0.1l-3.2-1l-1.3,0l-0.9,0.5l-1.7,1.6l-1.9,1.1l-8.8,2.3l-0.8-0.4l-1.5-2.3l-0.9-0.7l-2.3-0.8l-1.1-0.3l-0.9,0l-0.9,0.2
		l-1,0.4l-1.5,0.8l-0.5,0.1l-0.7,0l-0.2-0.2l0-0.4l-0.3-0.5l-1.5-1.6l-0.9-0.7l-1-0.4l-1.1-0.1l-3.4,0.2l-1.1-0.1l-0.3-0.4l-0.2-0.5
		l-0.8-0.4l-1.5-0.1l-0.5-0.2l-0.6-0.5l-0.1-0.4l0.1-0.4l0-0.2l-1.3-1.1l-2-1l-1.9,0l-0.9,2.1l-0.2,1l-0.6,0.5l-0.9,0.1l-0.9-0.4
		l-1,0.1l-0.9-0.1l-0.8-0.4l-0.6-0.9l-0.2-1l0.2-0.9l0.8-1.8l0.2-0.9l0.1-1.1l-0.2-1l-0.7-0.7l-0.8-0.1l-0.9,0.1l-1,0l-0.9-0.5
		l-0.5,0.6l-0.4-0.3l-0.3,0l-0.4,0.1h-0.5l-0.7,0.2l-0.2,0l-0.2-0.1l-0.5-0.5l-0.3-0.1l-0.4,0l-0.9,0.3L483,397l-0.5-0.1l-0.6-0.4
		l-0.4-0.1l-0.5,0l-1.6,0.3l-0.3,0.1L479,397l-0.1,0.1l-0.3,0l-0.3-0.1l-0.5-0.3l-0.2-0.1l-2.5-0.7l-17-0.6l-18.6-0.1l-18.6-0.1
		l-18.6-0.1l-18.6-0.1l-2.6,0l-1.5,0.2l-1.4,0.6l-3,2.2l-3.2,1.5l-2.9,2.1l-13.2,6.2l-1.8,0.4l-9.6-0.6l-4.2,0.3l-1-0.2l-3.3-1.1
		l-1.9-0.2l-4,0.7l-0.4,0.2l-0.2,0.2l-0.2,0.1l-0.4-0.1l-1.1-0.4l-0.6-0.1l-0.5,0.1l-3.6,2l-4.2,2.3l-1.6,0.7l-2.6,0l-2.7,0.7l-1,0
		l-7.1-0.5l-1.9,0.5l-1.2,0.8l-0.3-0.7l-0.3-0.7l-0.2-1.1l-0.3-0.4l-0.8-0.6l-1.2-1.2l-0.5-0.7l-0.2-0.7v-2.2l0.1-0.5l0.5-0.5
		l0.1-0.5l0.4-0.6l2.6-1.6l1.1,0l1.6,0.1l1.8-1.1l0.6-0.5l0.3-0.4l0.2-0.4l0.3-0.5l2-1.5l1,1.1l0.7,2l0.7,0.5l0-0.8l0.5-0.6l0.9-0.3
		l1,0.2l1.8,1l1.6,0.4l1.7,0.8l0.9,0.1l1-0.5l1.3-1.6l0.9-0.5l1.2,0.1l1,0.4l1,0.1l1.2-0.7l0.6-0.2l0.4,0.5l0.3,0.7l0.3,0.4l4.1-1.5
		l0.9-0.2l1.3-0.1l0.8-0.2l0.7-0.5l0.8-0.4l1.1,0l0.9,0.5l2.2,1.8l0.4,0.5l0.6,0.1l3.4,0.1l0.3,0.2l0.7,0.7l0.3,0.1l0.5-0.1l1.3-0.3
		l0.6-0.4l0.6-0.7l0.7-0.4l1.1,0.5l0.3-0.2l0.3-0.2l0.3,0l0.7,0.5l0.3-0.1l0.3-0.1l0.3,0.1l0.4,0.5l0.4,0.9l0.3,0.4l0.3,0.3l0.4,0.2
		l0.5,0.1l0.6,0l0.6-0.1l2.4-1l1-1l1.6-2.1l0.6-0.4l0.5-0.3l0.4-0.4l0.1-0.7l-0.3-0.3l-0.6-0.3l-0.3-0.3l0.4-0.4l-0.5-1.2l-0.5-1.6
		l-0.2-1.7l0.4-1.3l0.6-0.4l0.7,0l0.8,0.1l0.7-0.1l0.7-0.3l0.5-0.4l0.3-0.5l0.2-0.6l1.1,1l1,0.3l0.7-0.6l0.1-1.5l-0.8,0.9l-0.8,0
		l-0.8-0.4l-0.8-0.1l-0.8,0.4l-1.3,0.9l-0.9,0.2h-0.5l-0.8,0.1l-0.7,0.4l-0.3,0.8v3.1l0.6,2l0.1,0.6l0,0.9l0,0.4L363,397l-1.3,1.1
		l-0.4,0.5l-2.6,2.4l-0.7,0.4l-0.6,0l-0.5-0.2l-0.5-0.4l0.3-1.6l-1.6-0.7l-3.7-0.6l-2.5,1.6l-0.9,0.2l-0.2-0.2l-0.2-0.4l-0.4-0.4
		l-0.6-0.2l-0.6,0.1l-0.9,0.5l-0.6,0.1l-0.6-0.2l-0.8-0.4l-1.3-0.9l-0.1-0.3l0.1-0.4l0-0.3l-0.2-0.1l-0.7-0.1l-0.4-0.1l-0.2-0.1
		l-0.3-0.4l-0.7-1.4l-0.2-0.2l-0.2-0.1l-0.2-0.2l-0.2-1.1l-0.3-0.6h-0.3v0.4l-0.1,0.2l-0.6,1.1l-0.2,0.3l-0.2,1.8l-1.5,0.9l-2.1,0.4
		l-0.6,0.2l-1.1,0.7l-0.3,0.1l-0.6-0.1l-1.3-0.4h-2l-0.6,0.2l-1,0.4l-0.6,0.1h-0.6l-1.7-0.3l-0.6,0.1l-0.7,0.5l-0.5,0.1l-0.2,0.3
		l-0.3,0.6l-0.4,0.6l-0.5,0.4l-2.1-0.7l-1.7-1l-0.8-0.7l-0.3-0.7l-0.2-0.1l-0.5-0.1l-0.5-0.2l-0.3-0.4l0.1-0.5l0.3-0.5l0.5-0.3
		l0.5-0.1v-0.4l-0.8,0l-0.5-0.4l-0.3-0.6l-0.2-0.8l-0.4,4.4h-0.4l-0.7-0.9l-1.9-1.7l-0.2-1l-0.6,0.5l-0.4,0.6l-0.5,0.5l-0.8,0.2
		l-0.6-0.1l-0.4-0.4l-0.2-0.6l0-0.7l0.7-1.4l1-1l0.7-1.2l-0.3-1.9l-0.2,1.5l-0.1,0.4l-0.3,0.5l-0.2,0.2l-0.3,0.1l-1,1l-0.4,0.6
		l-0.2,0.7l-0.1,1.1l0.4,1.9l-0.1,0.9l-1.6,0.7l-2.3,1.9l-1.8,0.6l-1-0.6l-0.4-1.4l-0.1-1.8l0.3-1.9l0.8-1.9l1.3-1.1l1.8,0.6
		l0.1-0.8l-0.8-0.6l-1.1-0.2l-0.9,0.3l-1.1,1.3l-0.6,0.4l-0.7-0.1l0.3-0.4l0.1-0.4l-0.1-0.5l-0.3-0.4l1.1-1.6l0.2-0.8l-0.3-0.9h-0.4
		l-0.2,0.6l-0.4,0.3l-0.3-0.2l-0.1-0.8l0.1-0.6l0.3-0.7l1.9-2.8l0.2-0.7l-0.1-0.7l-0.2-1.3l-0.1-0.6l0.1-1.1l0.5-2.2l0.1-1.4
		l-0.1-0.9l-0.2-0.4l0-1.2l0.2-0.6l0.3-0.4l0.8-0.8l0.2-0.5l0.8-1.3l1.8-0.4l2.3,0l8.6,0.1l8,0.1l11.6,0.1l6.8,0.1l4.8,0.1h2
		l0.4-0.3l0.1-3.8l0.1-4.6l0.2-0.7l0.6-0.4l3.7-0.3l2.4-0.8l0.7,0l3.5,0.4l0.9-0.1l1.6-0.5l1.2-0.7l1.2-0.5l1.6,0.1l5.7,1.2h1.9
		l1.7-0.3l1.7-0.7l1.5-1l1.1-1.4l0.3-1.5l0.2-3.3l0.7-1.2l2.3-2.4l1.2-0.5l1.4,0.9l2.4,2.2l2.6,1.9h0l0,0h0l3.4,1.8l1.8,0.5l2,0.2
		l0.8,0.2l1.7,1.1l1,0.3l1.1,0.2l0.6,0.4l1.1,1.5l1.5,1.3l1.8,0.7l1.9,0.2l1.9-0.2l1.7-0.4l0.6,0.2l2,1.8l0.7,0.4l0.8,0.2l1.6,0.1
		l0.7,0.2l0.6,0.6l0.4,0.5l0.5,0.5l0.6,0.4l1.9,1l1.4,0.4l1.4,0.1l3-0.3l2.8,0.5l1.5-0.1l1.1-0.6l2.5-1.9l0.8-0.4l0.9,0l2.3-0.8
		l2.1,0l2.1-0.6l4-0.3l2.6-1.1l1.5-2.3l0.2-2.7l-1.3-2.5l-0.5-0.4l-1.2-0.7l-0.5-0.4l-0.3-0.5l-0.3-1l-0.3-0.5l-0.9-0.7l-1.3-0.6
		l-1.3-0.5l-1.1-0.2l-0.7,0.1l-1.1,0.6l-0.6,0.3l-0.5,0.1l-0.9-0.1l-0.6,0l-1.1,0.3l-2.4,1.3l-3,0.7l-1,0.4l-2.9,1.8l-3.1,1.1
		l-0.9,0.2l-1-0.1l-1.3-0.6l-4.2-3l-0.5-0.6l-0.3-0.7l-0.7-2.3l-0.5-1l-0.7-0.9l-1-0.8l-2.3-1.1l-2.2-0.2L409,343l-3.2,1.8l-0.6,0.2
		l-0.7-0.3l-2.2-1.3l-0.4-0.4l-1-3.5l-0.5-1l-0.7-0.9l-1.9-1.5l-1.9-0.6l-5.3-0.2l-3.1-1.2l-1.1-0.1l-3.8,1.4l-3.9,2.5l-1.1,0.3
		l-0.4-0.3l-1-1.4l-0.5-0.5l-2.3-0.4l-2.4,0.9l-2.2,1.6L367,340l-0.6,0.9l-0.5,1.1l-0.4,1.2l-0.2,1.1l-0.1,2.1l-0.8,0.3h-2.6l-3.2,0
		h-3.3l-3.3,0l-3.3,0l-3.3,0h-3.3l-3.3,0l-3.3,0h-3.3l-3.3,0H326l-3.3,0l-3.3,0h-3.3l-3.3,0l-3.3,0l-0.5-0.8l-0.3-0.6l0-1.5l0.9-0.8
		l1.3-0.7l1.3-1l-0.3-0.1l-0.5-0.4l-0.3-0.1l0.7-0.6l0.5-0.8l-0.1-0.7l-1.1-0.1l0.1,0.8l-0.3,1l-0.6,0.7l-0.8-0.1l-0.4,1.1l-0.8,0.8
		l-1,0.3l-1-0.3l-0.9-1l-0.2-1l0.4-2.1l0.1-1.3l0.1-0.5l0.5-0.7l1.9-2.2l0.3-0.8l0.3,0.2l0.8,0.4l0.3,0.2l-0.1-0.2l-0.3-0.9l1.8-0.3
		l0.1,1.1l0.4,1l0.6,0.6l0.8-0.2l-0.4-1.2l-0.1-1.4l-0.2-1.1l-0.8-0.4l0.3-0.7l1.1-5l0.1-0.9l-1.2,1.7l-0.5,1l-0.4,2.2l-0.5,1.3
		l-0.7,0.9l-0.7-0.2h-0.4l-0.5,0.7l-0.9,0.3l-1.1,0.2l-1,0.3l-0.6,0.5l-0.2,0.4l-0.1,0.4l-0.3,0.5l-0.3,0.3l-0.6,0.3l-0.4,0.3
		l-0.5,1l-0.4,0.3l-0.5-0.2l-0.2-0.5v-0.7l-0.1-0.6l-0.5-0.2l-0.7-0.5l-0.3-1.1l0.1-1.1l0.4-0.7l-0.3-0.7l-0.2-0.8l-0.2-1.7l0.1-0.9
		l0.2-0.5l0.3-0.4l1.2-1l0.6-0.2l0.7,0l1.5,0.2l0.7,0.2l0.5,0.4l-0.1,0.7l0.7-0.7l0.6-0.8l0.7-0.4l1.2,0.4l0-1.2l0.4-0.5l0.7-0.3
		l0.7-0.6l-0.7,0.2l-0.7,0.1l-0.7-0.1l-0.5-0.6l2.4-1.5l0.9-0.8l1.4-1.7l0.8-0.6l1.7-0.5l0.8-1l0.6-0.2l0.4,0.2l0.4,0.4l0.4,0.2
		l0.5-0.3l0.3-0.2l0.9-0.4l0.4-0.3l-3.3-0.1l-1.4-0.5l0.1-1.2l-0.8,0.4l-0.3,0.8l0.2,0.8l0.6,0.5l-0.7,0.4l-0.5,0l-0.5-0.2l-0.6-0.1
		l-0.4,0.2l-0.2,0.4l-0.1,0.5l-0.2,0.4l-1.3,2.4l-0.5,0.6l-0.5,0.2l-1.1,0.3l-0.6,0.4l-0.5,0.6l-0.7,1.3l-0.5,0.5l-1.2,0.4l-1.1-0.2
		l-1.1-0.4l-1.3-0.1l1.2-2.2l0-0.4l0.9-0.3l1.5-1.6l-0.7,0.2l-0.7,1l-0.6,0.2l-1.2,0l-0.5,0.1l-0.4,0.2l0.6,0.7l-0.1,0.5l-0.9,1
		l-0.1,0.4l-0.1,0.8l-0.3,0.5l-1,1.2l-0.2,0.5l-0.2,1.5l0.2,5.1h-0.3l-0.3-10.3l-0.3-1.6l-0.9-2.6l-1-1.9l-0.5-0.6l-0.7-0.3
		l-1.4-0.3l-0.5-0.5l-0.3-0.8l-0.4-2.9l-0.3-0.9l-0.4-0.7l-1-1l-0.5-0.2l-0.3-0.1l-0.2-0.2l-0.1-0.7l0.1-0.5l0.3-1.1l0.1-0.6
		l-0.3-0.9l-0.6-1l-1.6-1.7l-3.7-1.8l-0.6-0.6l-0.3-0.7l-1.9-2.8l-1.4-3.7l-2.1-2.9l-1.5-1.4l-0.9-0.6l-1-0.5l-1.1-0.2l-0.9-0.2
		l-2.2-1.2l-0.3-0.4l-1.7,0l-1.5-0.2l-1.3,0.1l-1.2,0.9l0.4,0.5l0.6,0.2l-0.4,0.8l-0.7,0.3l0.2,0.2l0.3,0.4l0.2,0.2l-0.3,0.8
		l-0.2,0.1l-0.2,0.3l-0.7-0.4l-3.5-4.4l-0.8-0.8l8.6-2.3l2.6-2.1l7.8-3.3l1.8-1.4l8.3-9.9l1.7-2.5l3.7-4l7.3-12.9l3.6-4.8l6.9-11.5
		l0.2-0.5l-0.1-0.6l-0.3-0.7l1.1-2.1l0.5-3l0.1-5.9l0.3-0.6l0.7-2.4l0.9-2.2l0.2-3.7l0.4-1.1l0.8-0.7l1.9-0.5l0.8-0.5l0.3-0.6
		l0.2-0.6l2.1-9.2l0.3-2.2l0.4-1l0.7-1l1-0.9l1.1-0.7l1.2-0.2l1.7,0.3l0.6,0l0.6-0.1l0.5-0.3l1.5-1.1l0.6-0.3l0.6-0.1l0.7,0.1
		l0.5,0.3l0.4,0.4l0.6,0.9l0.9,0.9l1.1,0.5l1.2,0.1l1.3-0.2l0.4-0.3l0.4-0.2l0.4-0.1l0.4,0.1l0.7,0.3l0.3,0l0.4-0.1l2.1-0.9l0.7-0.1
		l1.8,0.4h0.4l1.3-0.2l0.8,0l2.4,0.8l1.7,0.1l0.4,0.1l1.2,0.6l0.8,0.2l0.8-0.1l0.8-0.3l0.7-0.5l1.2-1.1l0.6-0.4l0.8-0.1l2.3,0.5
		l0.8-0.1l0.6-0.3l0.5-0.5l1.3-1.8l0.6-0.6l0.8-0.3l0.8,0.1l0.5,0.4l0.3,0.6l0.4,0.5l0.6,0.3l0.8,0l0.7-0.2l2.2-0.9l0.8-0.2l1.7-0.1
		l2.5,0.4l0.8,0l5.6-0.9l1.1-0.4l0.3-0.2l0.2-0.3l0-0.4l-0.2-0.3l-0.8-0.8l-0.3-0.7l0.1-0.7l0.5-0.5l0.7-0.2l0.8,0.2l0.5,0.5
		l0.4,0.6l0.5,0.5l0.4,0.1l0.4,0l0.4-0.1l0.3-0.3l0.3-0.3l0.1-0.3l0.2-0.8l0.3-0.5l0.5-0.4l1.2-0.5l0.6,0.3l0.7,0.7l0.4,0.9l0.5,0.7
		l1,0.2l1.6-0.4l8.9,0.6l0.6-0.1l1.8-0.5l0.5,0l0.5,0.1l1.5,0.7l0.6,0.1l0.6,0l2.2-0.6l0.6,0l2.1,0.4h0.6l0.6-0.1l0.5-0.2l0.5-0.2
		l1.4-0.8l0.5-0.2l1-0.1l3.3,1.3l0.4,0.3l0.2,0.4l0,0.6l-0.3,1l0.1,0.4l0.5,0.2l2-0.2l0.5,0.2l0.2,0.4l0.1,1l0.3,0.4l0.5,0.3
		l1.3,0.1l0.6,0.1l0.4,0.3l0.9,1.2l0.4,0.4l1.2,0.9l1.8,2.1l3.1,2.8l1.7,1l0.4,0.3l0.9,1.1l0.5,0.3l1,0.4l0.5,0.3l0.3,0.4l0,0.4
		l-0.3,0.8l-0.1,0.5l0.1,0.4l0.5,0.7l0.2,0.5l0,0.5l-0.3,1l0.2,0.9l0.9,0.5l2.1,0.6l0.4,0.3l0.8,0.6l0.3,0.4l0.3,0.4l0.4,1.5
		l0.3,0.5l0.3,0.5l0.4,0.4l0.5,0.3l0.4,0.1l0.4,0l0.4-0.2l0.9-0.5l0.8-0.6l0.4-0.4l0.9-1.4l0.4-0.4l0.4-0.3l0.5-0.1l0.5,0l0.5,0.1
		L459,207l-0.5,1.6l0.2,0.6l0.2,0.2l0.5,0.2l0.2,0.2l0.1,0.1l0.1,0.2l0.1,0.1l0.1,0.1l0.3,0.1l0.1,0.1l0.3,0.3l0.1,0.1l0.4,0.1
		l0.3-0.1l1.4-0.8l0.3-0.1h1l0.2,0l0.4-0.1l1.6-0.7l2.8-0.6l0.7-0.3l0.3-0.1h0.3l0.3,0.1l0.1,0.8l-0.9,1.6l-0.1,0.9l0.5,0.4l1.9-0.7
		l0.8,0l0.3,0.3l0.4,0.7l0.3,0.3l1.4,1l0.3,0.4l0.1,0.4l0.1,1l0.1,0.4l0.7,1.8l0.3,0.6l0.4,0.5l0.5,0.5l1.3,1l0.3,0.4l0.1,0.4l0,0.5
		l-0.2,0.9v0.4l0.1,0.4l0.2,0.3l0.9,1.1l0.5,0.8l0.3,0.9l0,1l-0.1,0.4l-0.2,0.5l-0.1,0.5l0.1,0.5l0.3,0.4l0.4,0.3l0.8,0.5l0.4,0.3
		l0.4,0.4l0.6,0.9l0.2,0.4l0.1,0.4l-0.1,0.4l-0.8,1.2l-0.2,0.4l-0.1,0.5l0.1,0.5l0.5,1.3l0.8,0l1.6-0.3l0.8,0l0.4,0.2l1,0.7l0.4,0.2
		l1.2,0.3l0.7,0.4l0.6,0.5l0.4,0.6l0.1,0.8l-0.3,2l0,0.5l0.1,0.5l0.2,0.5L491.9,244"/>
</g>

</svg>
