<?xml version="1.0" encoding="utf-8"?>

<svg version="1.2" baseProfile="tiny" xmlns="http://www.w3.org/2000/svg" xmlns:xlink="http://www.w3.org/1999/xlink" x="0px"
	 y="0px" viewBox="305.6 146.9 229.1 300" xml:space="preserve">

<g id="Somalia">
	<g>
		<polygon fill="#4189DD" points="358.3,157 358.2,157.1 358.1,157.6 358.1,157.8 358,157.9 358,158.1 357.8,158.3 357.5,158.5
			357.5,158.6 357.6,158.5 358,158.3 358.1,158.3 358.2,158 358.3,157.5 358.2,157.3 358.3,157.1 		"/>
		<polygon fill="#4189DD" points="451.7,320.1 458.7,312.7 461,309.3 464.2,302.9 467,299.1 469.6,296.3 471.8,292.7 473.4,291.2
			474,290.4 475.1,288 478.2,283.2 447.1,305.8 		"/>
		<polygon fill="#4189DD" points="360.4,158.9 360.5,158.7 360.3,158.4 360.1,158.5 360,158.7 360.1,159 360.2,159.1 		"/>
		<polygon fill="#4189DD" points="534.1,180.4 533.8,180.2 533.4,180 533.2,180.1 533,180.2 532.8,180.3 532.5,180.3 532.3,180.2
			532.2,180.1 531.2,179.7 531.1,179.6 530.9,179.4 530.8,179.3 530.5,179.1 530.1,179 529.8,178.8 529.4,178.5 529.7,179
			529.8,179.5 529.9,179.9 529.9,180.4 530,180.6 530.2,180.7 530.4,180.8 530.5,181 530.4,181.2 530.2,181.2 530,181.1
			529.8,181.1 526.4,181.8 526,181.7 525.8,181.4 526,181 526.4,180.6 526.8,180.5 527.3,180.5 527.6,180.3 527.8,180 527.9,179.6
			527.8,178.6 527.9,178.2 528.5,178.1 529,178 529.1,177.7 528.6,176 528.3,172.1 528.1,169 528.2,168.5 528.3,168 528.5,167.7
			528.7,167.3 529.2,166.2 529.3,165.9 528.9,165.2 528.2,165 527.5,164.7 527.2,163.6 527.3,162.7 527.4,161.3 527.5,160.9
			528.2,159.4 528.3,158.9 528.4,158.4 528.4,158.2 528.3,157.9 528.2,157.6 528.3,157.5 528.8,156.9 529.5,155.6 529.8,155.2
			530.4,154.5 530.7,154.2 530.8,153.9 530.9,152.3 531.1,151.8 531.7,151 531.7,150.5 531.4,150.2 531,150 530.5,149.9 530,149.9
			529.6,149.8 528.8,149.4 528.4,149.3 526.7,149.3 526.2,149.2 524.9,148.2 520.8,146.9 520.6,146.9 520.4,147.1 519.6,147.3
			518.6,147.6 518.2,147.8 518,147.8 517.9,147.6 517.7,147.6 517.6,147.7 517.5,147.8 517.4,147.9 516.9,148.2 516.6,148.2
			516.3,148.4 516,148.7 515.5,149.3 515.3,149.7 515.1,150.2 515,150.7 515,151.2 514.9,151.7 514.6,152.1 514,152.7 513.2,153.5
			512.8,153.8 511.8,154 510,155.5 509.6,155.8 508.6,156 508.4,156.1 508.2,156.2 508,156.3 507.2,156.3 507,156.4 506.5,156.9
			505.3,157.5 504.8,157.5 502.8,157.5 502.8,157.5 502.7,157.5 502.6,157.4 502.4,157.4 502.2,157.4 501.9,157.6 501.9,157.7
			501.6,157.8 501.2,158 501,158 500.4,158.5 499.4,158.7 497.4,158.5 496.8,158.3 496.5,158.3 496.3,158.4 496,158.6 495.9,158.6
			494.9,158.6 494.4,158.6 494,158.8 493.7,159.1 493.2,160.1 492.9,160.3 492.5,160.4 491.3,161 490.9,161.2 490.5,161.3
			489.1,161.4 488.9,161.4 488.7,161.3 488.4,161.2 488.2,161.3 487.8,161.8 487,162.2 484.1,162.7 481.2,163.3 480.4,163.3
			480,163.3 479.6,163.3 479.3,163.3 477.4,162.6 476.5,162.2 475.7,161.8 474.2,161.5 473.8,161.5 472.7,161.8 471.3,161.8
			470.9,161.9 470.3,162.3 469.6,162.4 468,162.6 467.3,162.7 467.1,162.9 466.8,163.2 466.7,163.3 466.7,163.5 466.6,163.6
			466.5,163.8 466.3,163.9 465.8,163.9 465.4,164.1 465.2,164.1 464.8,164.1 464.6,164.1 464.6,164.3 464.5,164.5 464.1,164.7
			463.6,165.3 463.3,165.6 462.7,165.8 458.7,166.1 457.5,165.9 454.7,166 453.5,166.6 452.7,166.4 449.3,164.7 448.6,164.6
			447.5,164.8 446.8,164.7 446.4,164.8 445.9,165 443.7,166.2 443.1,166.6 442.9,166.8 441.8,167.1 441.6,167.2 440.8,168
			439.7,168.9 438.1,170.2 436,170.9 435.9,171 435.6,171 435.4,171.1 435.3,171.2 435.1,171.5 435,171.7 434,172.1 433.1,172.8
			431.2,173.7 430.4,174.3 430.1,174.4 429.8,174.5 428.9,174.5 428.3,174.8 427.5,174.9 426.9,175.3 426.5,175.5 425.8,175.6
			424.9,175.7 424.1,175.6 423.3,175.3 422.7,174.8 421.7,173.8 421.2,173.4 420.5,173.4 419,173.8 418.2,173.9 417.4,173.7
			417,173.6 416.2,173.4 415.5,173.3 413.4,172.4 413.1,172.4 413.2,172.8 412.8,172.7 412.6,172.6 412.5,172.3 412.3,172
			412,171.7 411.6,171.6 411.3,171.5 410.9,171.5 410.6,171.7 410.2,172.3 409.9,172.5 409.5,172.5 409.3,172.8 409.1,173.1
			408.8,173.4 408.6,173.5 406.9,174 406.6,174.2 405.9,175 405.4,175.4 404.7,175.8 403.8,176.2 403,176.4 402.6,176.4
			402.2,176.3 401.8,176.2 401.4,176.1 401.1,176.3 399.6,177.7 397.5,179 396.8,179.2 396.5,179.4 394.1,180.8 393.8,180.8
			393.9,181.2 393.2,181.4 391.7,181.6 390.9,181.5 389.5,181 388.7,180.8 387.9,180.8 387.1,180.9 386.3,181.1 385.7,181.5
			385.1,181.8 384.2,181.8 382.5,181.6 382.1,181.6 380.5,181.7 380.2,181.7 380.1,181.6 379.7,181.4 378.8,181.3 378.1,180.9
			375.4,178.6 374.3,177.9 372.7,176.6 370.4,175 368.4,173.2 366.8,171.2 364.6,169.1 363.7,167.3 363.2,166.5 363,165.8
			362.6,165.4 362.5,165.1 362.4,164.9 362.3,164.8 361.9,164.8 361.8,164.7 361.3,164.2 360.9,163.5 360.7,162.8 361,160.7
			360.9,160.4 360.7,160.4 360.4,160.7 360.3,161 359.9,160.9 359.3,160.4 358.8,160.3 358.4,160.1 357.9,159.5 357.6,159.4
			357.2,158.9 356.7,158.1 356.4,157.8 356.5,158.6 356,158.6 355.7,158.3 355.5,158 348.5,168.9 348.2,169.3 348,170.2
			347.8,170.6 347.5,170.9 346.6,171.3 346.2,171.7 346.1,172.1 346,172.5 345.8,172.8 345.5,173.2 344.7,173.8 344.4,174.2
			344.2,174.7 344,175.6 343.9,176 343.6,176.4 343.2,176.7 342.7,176.8 342.4,177 342.5,177.5 342.9,178.5 343.5,179.4
			344.7,180.6 345,181 345.3,181.6 345.6,183.6 346,185 346.6,186.4 347.2,187.1 349.3,188.4 349.8,189 350.2,189.6 350.5,190.3
			350.6,191.1 351.1,192.1 351.7,192.7 352.5,193 353.5,193.2 354.3,193.6 354.7,194.3 355.3,197.8 355.6,198.7 356.1,199.2
			356.7,199.4 356.9,199.4 357.1,199.7 357.3,200.1 357.5,200.4 357.7,200.6 358.1,200.9 358.3,201.1 358.8,202.1 358.9,202.5
			359,203.2 359.1,203.6 359.4,204 360.5,204.6 362.2,205.7 362.6,205.7 363.1,205.5 363.5,205.5 363.8,205.6 365.5,207.2
			367.4,209 370.2,211.5 371.8,212.9 372.6,213.4 374.4,214 376.3,214.6 378.3,215.3 380.2,215.9 382.1,216.5 384.1,217.2
			386,217.8 387.9,218.4 389.8,219.1 391.8,219.7 393.7,220.3 395.6,221 397.6,221.6 399.5,222.3 401.4,222.9 403.4,223.5
			405.3,224.2 409,225.4 410.8,226 412.7,226.6 414.5,227.3 416.3,227.9 418,228.5 420,222.4 422.4,229.9 423.7,230.4 425.6,231
			427.4,231.6 429.2,232.2 431.1,232.8 432.9,233.4 434.7,234.1 436.1,234.5 437.4,235.2 459.3,235.2 458.3,236.2 457.2,237.2
			456.1,238.3 455.1,239.3 454,240.3 453,241.4 451.9,242.4 450.8,243.4 449.8,244.4 448.7,245.5 447.6,246.5 446.6,247.5
			445.5,248.6 444.4,249.6 443.4,250.6 442.3,251.7 441.2,252.7 440.2,253.7 439.1,254.7 438,255.8 437,256.8 435.9,257.8
			434.8,258.9 433.8,259.9 432.7,260.9 432.6,261.1 436.7,274 483.3,274 483.6,272.3 483.6,271.8 483.4,270.9 483.3,270.4
			483.4,269.9 486.1,264.2 487.2,261.2 488.2,259.7 489.8,256.5 493.2,251.8 494.6,250.2 498.1,244.1 498.1,243.8 498.2,242.8
			498.4,242.4 499.1,241.7 499.7,240.8 499.8,240.4 499.9,239.9 499.8,239.4 499.5,239.2 499.3,238.9 499.6,237.4 499.8,236.6
			500.2,235.9 502.1,234 504.9,232.2 505.7,231.6 506.1,230.7 506.8,228.8 507.1,228 508.7,225.9 508.9,225.5 509.1,225.1
			509.3,224.7 509.7,224.6 510,224.4 510.3,224 510.7,223.2 510.7,222.8 510.7,221.4 510.8,221 511.9,219.7 512.2,219 512.6,217.1
			512.9,216.2 513.3,215.5 513.8,214.8 514.5,214.1 516.9,212.2 517.6,211.5 517.9,210.6 517.9,210.2 517.7,208.7 517.9,208.4
			518.5,207.4 518.8,207 519.1,206.8 520.1,206.4 520.5,206 521.9,203.8 522,203.4 522.1,203 522,202.5 521.5,201.1 521.3,200
			521.3,199.3 521.7,198.7 521.9,197.4 522,196.9 522,196.7 521.9,196.1 522.1,195.9 522.4,195.1 522.6,194 522.7,193.5 523,193.1
			522.9,192.8 523.2,191.3 523.4,191 523.4,190.7 523.4,190.5 523.1,189.8 523,188.8 523.4,186.9 523.4,185.8 523.3,183.9
			523.5,183.6 525.8,182.4 527.5,181.9 530.9,181.6 531.2,181.7 531.4,182 531.4,182.2 531.5,182.3 532.4,182.5 532.6,182.6
			532.8,182.5 532.9,182.5 533.1,182.5 533.4,182.5 533.3,182.5 533.4,182.6 533.5,182.6 533.7,182.6 533.8,182.6 533.9,182.4
			534,182.3 534.2,182.1 534.6,181.2 534.7,181 534.4,180.7 		"/>
		<polygon fill="#4189DD" points="376.2,357.3 392.9,305.8 388.9,302.9 388.7,302.9 387.5,302.8 386.4,302.7 385.2,302.7
			384.1,302.6 383,302.5 381.8,302.5 380.7,302.4 379.6,302.3 378.4,302.3 377.3,302.2 376.2,302.1 375,302.1 373.9,302 372.7,302
			371.4,301.9 370.6,302.1 368.7,302.7 368,302.9 365.9,303.4 364.2,303.8 361.8,304.3 360.2,305 357.8,306.2 355.3,307.4
			352.8,308.6 351,310.1 349.3,311.4 349.1,311.6 349,311.9 348.7,312.6 348.3,314.1 348,314.8 347.3,315.6 346.5,316.1
			345.6,316.5 344,316.7 340.7,317.3 337.4,317.9 334.8,318.3 333.1,318.3 331.2,318.3 330.5,318.5 329.8,318.9 328.5,319.9
			327,320.8 326.6,321.2 326.4,321.6 326.4,322.3 326.3,322.5 326,322.8 325.7,323.2 323.9,325.8 322.1,328.5 320.2,331.1
			318.4,333.7 317.3,335.3 316.1,336.9 315,338.5 313.8,340.1 312.1,341.9 310.2,343.7 308.4,345.5 306.6,347.2 305.9,348
			305.6,348.6 305.6,349.8 305.6,352.6 305.6,355.5 305.6,410 305.7,411.7 305.7,413.2 305.7,414.7 305.7,417.1 305.8,419.4
			305.8,421.8 305.8,424.1 305.8,425.7 305.9,427.2 305.9,428.9 306.4,429.6 307,430.3 307.6,431 308.1,431.7 309.2,433.1
			310.3,434.6 311.5,436.1 312.5,437.4 313.6,438.8 314.7,440.2 315.8,441.7 317,443.1 317.8,444.2 318.1,444.6 318.1,445
			318.1,446.9 318.6,446.3 318.5,446.3 319,445.9 319.7,444.6 320.2,444.3 320.6,444 321.5,442.3 321.9,441.7 322.4,441.1
			324.7,437.4 324.8,437 324.8,436.6 324.5,435.8 324.5,435.4 324.7,435.4 324.8,436 325.3,436.3 325.8,436.2 326,435.7
			325.9,435.8 325.7,435.9 325.5,435.9 325.4,435.7 325.5,435.5 326.3,434.5 326.5,434.3 326.6,434.1 326.6,433.8 326.7,433.6
			327.3,433.2 327.4,432.9 327.4,432.6 327.6,432.2 327.7,431.9 327.6,431.8 327.4,431.7 327.3,431.5 327.2,431.3 327.2,431
			327.1,430.7 327.1,430.4 327.1,430.2 327.2,430 327.3,429.7 327.2,429.4 327.4,429.4 327.5,429.8 327.5,430.6 327.6,431.5
			327.7,431.7 327.9,431.6 328.6,431 328.7,430.8 328.8,430.4 329.1,429.9 329.4,429.5 329.7,429.4 329.8,429.2 330,428.7
			330.1,428.3 329.6,428.2 329.8,427.9 330.2,427.9 330.8,427.9 331.2,427.8 331.6,427.6 331.9,427.4 332.5,426.8 333.4,425.4
			333.5,425.4 333.6,425.3 333.7,425.2 333.7,425 333.8,424.8 335.9,422.2 336.7,421.6 337,421.2 337.1,420.8 337.3,420.6
			338.5,419.7 338.6,419.8 338.6,419.9 338.6,420 338.6,420.1 338.7,420.1 338.9,419.7 338.7,419.4 338.8,419.1 339.7,417.9
			339.8,417.8 340.3,417.7 340.4,417.6 340.4,417.4 340.5,417.1 341,416.4 342.5,414.9 343.9,413.7 345.2,412.7 347.8,409.8
			352.2,405 356.4,400.9 360.4,396.4 364.6,392.4 365.6,391.6 365.9,391.5 366.3,391.3 367.3,389.8 368.2,389.2 370.6,387.9
			371.7,386.6 371.9,386.4 372.4,386.3 372.8,386 374.4,384.5 374.5,384.2 374.6,384.2 375,384 375.1,383.9 375.2,383.5
			375.2,383.3 375.3,383.1 375.6,382.9 376.5,382.3 377,382.1 379.4,379.6 384.2,375.9 386.9,374.2 389.9,372.1 390.2,372
			390.4,371.8 394.1,369.2 398.4,367.2 398.7,367.1 399.1,367 409.7,361 412.2,359.6 416.6,356.8 417,356.4 417.3,355.8
			418.3,355.2 418.5,354.9 418.8,354.3 419.1,353.9 421.1,351.8 422,351.4 422.3,351.2 422.5,350.7 422.7,350.3 422.9,349.9
			423.3,349.8 423.4,349.7 423.5,349.5 423.6,349.3 423.7,349.1 425,348.2 426.7,346.5 429.7,344 431.3,342.1 434.3,339.5
			436.2,337.2 420,325.5 		"/>
		<polygon fill="#FFFFFF" points="418,228.5 418.2,228.5 420,229.1 421.9,229.7 422.4,229.9 420,222.4 		"/>
		<polygon fill="#FFFFFF" points="432.6,261.1 431.6,261.9 430.6,263 429.5,264 429.1,264.4 428.1,265.4 427.1,266.3 426.7,266.7
			425.3,268.1 423.9,269.5 422.6,270.8 421.2,272.2 419.9,273.6 418.6,275 417.2,276.3 415.9,277.7 414.5,279.1 412.2,281.6
			409.8,284.2 407.5,286.8 405.1,289.3 402.8,291.9 400.4,294.5 398.1,297 395.7,299.6 394.5,300.9 392.7,302.8 392.1,303.1
			390.9,303 389.8,302.9 388.9,302.9 392.9,305.8 376.2,357.3 420,325.5 436.2,337.2 438.2,334.9 442.4,330.5 445.2,327.5
			448.6,324.1 450.6,321.4 451.7,320.1 447.1,305.8 478.2,283.2 478.5,282.8 482.5,275.8 483.3,274.2 483.3,274 436.7,274 		"/>
	</g>
	<path fill="none" stroke="#999999" stroke-width="0.25" stroke-linecap="round" stroke-linejoin="round" d="M357.6,158.5l0.3-0.2
		l0.1,0l0.1-0.3l0.1-0.5l0-0.2l0.1-0.2l0-0.1l-0.1,0.1l-0.1,0.5l0,0.2l-0.1,0.1l0,0.2l-0.1,0.2l-0.3,0.2l0,0.1L357.6,158.5z
		 M360.2,159.1l0.2-0.2l0.1-0.2l-0.3-0.3l-0.2,0.1l-0.1,0.2l0.1,0.3L360.2,159.1z M534.4,180.7l-0.3-0.3l-0.3-0.3l-0.5-0.1l-0.2,0
		l-0.2,0.1l-0.2,0.2l-0.3,0l-0.2-0.1l-0.1-0.1l-1-0.4l-0.2-0.1l-0.2-0.3l-0.1-0.1l-0.3-0.1l-0.3-0.1l-0.3-0.2l-0.3-0.3l0.2,0.5
		l0.1,0.4l0.1,0.5l0,0.5l0.1,0.1l0.2,0.1l0.2,0.1l0.1,0.2l-0.1,0.2l-0.2,0l-0.2-0.1l-0.2,0l-3.3,0.7l-0.4-0.1l-0.2-0.3l0.2-0.4
		l0.4-0.3l0.4-0.1l0.5,0l0.3-0.1l0.2-0.3l0.1-0.4l-0.1-1l0.1-0.4l0.5-0.2l0.5-0.1l0.1-0.2l-0.5-1.7l-0.3-3.9l-0.2-3.1l0.1-0.5
		l0.1-0.5l0.2-0.3l0.2-0.3l0.5-1.1l0.1-0.3l-0.3-0.7l-0.7-0.2l-0.7-0.3l-0.3-1l0.1-0.9l0-1.5l0.1-0.3l0.7-1.5l0.1-0.5l0.1-0.5l0-0.2
		l-0.1-0.3l0-0.2l0.1-0.1l0.5-0.5l0.7-1.3l0.3-0.4l0.6-0.6l0.2-0.3l0.1-0.4l0.2-1.6l0.1-0.5l0.6-0.8l0-0.5l-0.2-0.3L531,150
		l-0.5-0.1l-0.5,0l-0.4-0.1l-0.7-0.4l-0.4-0.1h-1.7l-0.4-0.1l-1.3-0.9l-4.1-1.4l-0.2,0.1l-0.2,0.2l-0.8,0.2l-0.9,0.4l-0.5,0.1
		l-0.1,0l-0.2-0.1l-0.1,0l-0.1,0.1l-0.1,0.1l-0.1,0.1l-0.6,0.3l-0.3,0l-0.3,0.1l-0.3,0.3l-0.5,0.7l-0.2,0.4l-0.1,0.5l-0.1,0.5l0,0.5
		l-0.1,0.5l-0.3,0.4l-0.7,0.6l-0.7,0.8l-0.4,0.3l-1,0.2l-1.8,1.5l-0.4,0.3l-0.9,0.2l-0.2,0.1l-0.2,0.1l-0.2,0.1l-0.8,0l-0.2,0.1
		l-0.4,0.4l-1.3,0.7l-0.4-0.1l-2,0.1l0,0l-0.1-0.1l-0.2-0.1l-0.2,0l-0.2,0.1l-0.3,0.2l-0.1,0l-0.3,0.1l-0.4,0.3l-0.2,0l-0.6,0.5
		l-1,0.1l-1.9-0.2l-0.6-0.1l-0.3,0l-0.2,0.1l-0.3,0.2l-0.1,0l-1,0l-0.5,0l-0.4,0.1l-0.3,0.4l-0.5,1l-0.3,0.2l-0.4,0.1l-1.2,0.7
		l-0.3,0.1l-0.4,0.1l-1.4,0.1l-0.2,0l-0.2-0.1l-0.3-0.1l-0.2,0.2l-0.3,0.5l-0.8,0.4l-2.9,0.5l-2.9,0.6l-0.8,0l-0.4,0l-0.4,0
		l-0.3-0.1l-1.9-0.6l-0.8-0.5l-0.8-0.3l-1.5-0.3l-0.4,0l-1.1,0.3l-1.4-0.1l-0.3,0.1l-0.6,0.4l-0.8,0.2l-1.6,0.2l-0.7,0.1l-0.2,0.1
		l-0.3,0.3l-0.1,0.1l0,0.2l-0.1,0.2l-0.1,0.2l-0.2,0.1l-0.5,0l-0.4,0.1l-0.2,0h-0.4l-0.2,0.1l-0.1,0.2l0,0.2l-0.4,0.2l-0.5,0.7
		l-0.3,0.3l-0.7,0.2l-4,0.3l-1.2-0.2l-2.8,0.1l-1.2,0.6l-0.7-0.2l-3.4-1.7l-0.7-0.1l-1.1,0.3l-0.7-0.1l-0.4,0.1l-0.4,0.2l-2.3,1.2
		l-0.5,0.4l-0.3,0.2l-1,0.3l-0.3,0.2l-0.8,0.8l-1.1,0.9l-1.6,1.2l-2.1,0.7l-0.1,0l-0.3,0l-0.2,0.1l-0.1,0.1l-0.2,0.3l-0.1,0.1
		l-1,0.4l-0.9,0.7l-1.9,0.9l-0.8,0.6l-0.3,0.1l-0.4,0.1l-0.9,0l-0.6,0.3l-0.7,0.1l-0.6,0.4l-0.4,0.2l-0.8,0.2l-0.8,0l-0.9-0.1
		l-0.8-0.3l-0.6-0.5l-1-1l-0.6-0.3l-0.7-0.1l-1.5,0.4l-0.8,0.1l-0.8-0.2l-0.4-0.1l-0.8-0.2l-0.8-0.1l-2-0.9h-0.4l0.1,0.4l-0.4,0
		l-0.2-0.2l-0.1-0.3l-0.2-0.3l-0.3-0.3l-0.3-0.1l-0.3-0.1l-0.4,0l-0.3,0.1l-0.3,0.6l-0.3,0.1l-0.4,0.1l-0.3,0.2l-0.2,0.3l-0.3,0.3
		l-0.2,0.1l-1.7,0.6l-0.3,0.2l-0.7,0.8l-0.6,0.4l-0.6,0.4l-0.9,0.4l-0.8,0.2l-0.4,0l-0.4-0.1l-0.4-0.1l-0.4,0l-0.4,0.2l-1.5,1.4
		l-2.1,1.3l-0.7,0.2l-0.3,0.1l-2.4,1.4h-0.3l0.1,0.4l-0.7,0.2l-1.6,0.1l-0.7-0.1l-1.5-0.5l-0.8-0.2h-0.7l-0.8,0.1l-0.8,0.2l-0.6,0.4
		l-0.7,0.3l-0.9,0l-1.7-0.3h-0.4l-1.6,0.2l-0.2,0l-0.2-0.1l-0.3-0.2l-0.9-0.2l-0.6-0.4l-2.7-2.3l-1.1-0.7l-1.5-1.4l-2.3-1.6l-2-1.7
		l-1.6-2l-2.1-2.1l-0.9-1.8l-0.6-0.8l-0.2-0.6l-0.3-0.4l-0.1-0.3l-0.1-0.1l-0.2-0.1l-0.3-0.1l-0.1-0.1l-0.5-0.5l-0.4-0.7l-0.2-0.7
		l0.3-2.1l-0.1-0.4l-0.2,0l-0.3,0.3l-0.1,0.4l-0.4-0.2l-0.6-0.5l-0.4-0.1l-0.4-0.1l-0.5-0.6l-0.3-0.1l-0.4-0.4l-0.5-0.8l-0.3-0.4
		l0.1,0.9l-0.5,0l-0.3-0.2l-0.3-0.3l-7,10.9l-0.3,0.5l-0.2,0.9l-0.2,0.4l-0.4,0.3l-0.9,0.4l-0.3,0.4l-0.2,0.4l-0.1,0.4l-0.1,0.3
		l-0.3,0.4l-0.8,0.6l-0.3,0.4l-0.2,0.5l-0.2,0.9l-0.2,0.4l-0.3,0.4l-0.4,0.2l-0.4,0.1l-0.3,0.2l0,0.5l0.4,1l0.6,0.9l1.2,1.2l0.3,0.4
		l0.2,0.6l0.3,2l0.4,1.4l0.6,1.4l0.6,0.7l2.1,1.4l0.5,0.5l0.4,0.7l0.3,0.7l0.2,0.7l0.4,1l0.6,0.6l0.8,0.3l1,0.2l0.8,0.4l0.4,0.7
		l0.6,3.5l0.3,0.9l0.5,0.5l0.6,0.1l0.2,0.1l0.2,0.2l0.2,0.5l0.1,0.2l0.2,0.2l0.4,0.3l0.2,0.2l0.5,1l0.1,0.4l0.1,0.7l0.1,0.4l0.3,0.3
		l1.1,0.7l1.7,1l0.4,0l0.5-0.2l0.4,0l0.3,0.2l1.7,1.5l1.9,1.8l2.8,2.5l1.5,1.4l0.9,0.5l1.8,0.6l1.9,0.6l1.9,0.6l1.9,0.6l1.9,0.6
		l1.9,0.6l1.9,0.6l1.9,0.6l1.9,0.6l1.9,0.6l1.9,0.6l1.9,0.6l1.9,0.6l1.9,0.6l1.9,0.6l1.9,0.6l1.9,0.6l3.7,1.2l1.8,0.6l1.8,0.6
		l1.8,0.6l1.8,0.6l1.8,0.6l1.8,0.6l1.8,0.6l1.8,0.6l1.8,0.6l1.8,0.6l1.8,0.6l1.8,0.6l1.8,0.6l1.8,0.6l1.4,0.5l1.3,0.6h21.9l-1.1,1
		l-1.1,1l-1.1,1l-1.1,1l-1.1,1l-1.1,1l-1.1,1l-1.1,1l-1.1,1l-1.1,1l-1.1,1l-1.1,1l-1.1,1l-1.1,1l-1.1,1l-1.1,1l-1.1,1l-1.1,1l-1.1,1
		l-1.1,1l-1.1,1l-1.1,1l-1.1,1l-1.1,1l-1.1,1l-1.1,1l-1.1,1l-1.1,1l-0.4,0.4l-1,0.9l-1,0.9l-0.4,0.4l-1.4,1.4l-1.3,1.4l-1.3,1.4
		l-1.3,1.4l-1.3,1.4l-1.3,1.4l-1.3,1.4l-1.3,1.4l-1.3,1.4l-2.3,2.6l-2.4,2.6l-2.4,2.6l-2.4,2.6l-2.4,2.6l-2.4,2.6l-2.4,2.6l-2.4,2.6
		l-1.2,1.4l-1.7,1.9l-0.6,0.3l-1.2-0.1l-1.1-0.1l-1.1-0.1l-1.1-0.1l-1.1-0.1l-1.1-0.1l-1.1-0.1l-1.1-0.1l-1.1-0.1l-1.1-0.1l-1.1-0.1
		l-1.1-0.1l-1.1-0.1l-1.1-0.1l-1.1-0.1l-1.1-0.1l-1.1-0.1l-1.3-0.1l-0.8,0.2l-1.9,0.7l-0.7,0.1l-2.2,0.5l-1.7,0.4l-2.5,0.6l-1.5,0.7
		l-2.5,1.2l-2.5,1.2l-2.5,1.2l-1.8,1.5l-1.6,1.3l-0.2,0.2l-0.1,0.2l-0.3,0.7l-0.4,1.5l-0.3,0.7l-0.7,0.8l-0.8,0.5l-0.9,0.4l-1.6,0.3
		l-3.3,0.6l-3.4,0.6l-2.6,0.4l-1.7,0l-1.9,0l-0.7,0.2l-0.8,0.4l-1.2,1l-1.5,0.9l-0.4,0.3l-0.1,0.4l0,0.7l-0.1,0.3l-0.3,0.2l-0.3,0.4
		l-1.8,2.6l-1.8,2.6l-1.8,2.6l-1.8,2.6l-1.1,1.6l-1.1,1.6l-1.1,1.6l-1.1,1.6l-1.8,1.8l-1.8,1.8l-1.8,1.8l-1.8,1.8l-0.8,0.7l-0.3,0.6
		l0,1.2l0,2.8l0,2.9V410l0,1.8l0,1.5l0,1.5l0,2.4l0,2.4l0,2.4l0,2.4l0,1.5l0,1.5l0,1.7l0.6,0.7l0.6,0.7l0.6,0.7l0.6,0.7l1.1,1.4
		l1.1,1.4l1.2,1.5l1,1.3l1.1,1.4l1.1,1.5l1.1,1.4l1.1,1.4l0.8,1.1l0.3,0.5l0.1,0.4l-0.1,1.8l0.6-0.6h-0.1l0.4-0.4l0.8-1.3l0.5-0.3
		l0.4-0.3l0.8-1.6l0.4-0.6l0.5-0.6l2.3-3.7l0.1-0.4l0-0.4l-0.3-0.8l0-0.4h0.1l0.1,0.6l0.5,0.3l0.5-0.1l0.3-0.6l-0.2,0.1l-0.2,0.1
		l-0.2,0l-0.1-0.2l0.1-0.2l0.8-1l0.1-0.2l0.1-0.2l0-0.3l0.1-0.2l0.5-0.5l0.1-0.3l0.1-0.3l0.2-0.4l0-0.3l-0.1-0.2l-0.2-0.1l-0.1-0.1
		l-0.1-0.3l0-0.2l-0.1-0.3l0-0.3l0.1-0.3l0.1-0.2l0.1-0.2l-0.1-0.3h0.1l0.1,0.4l0,0.9l0.1,0.9l0.1,0.2l0.2-0.1l0.7-0.6l0.1-0.2
		l0.1-0.4l0.3-0.5l0.3-0.4l0.3-0.2l0.1-0.2l0.2-0.5l0-0.4l-0.4-0.1l0.2-0.2l0.3-0.1l0.7,0l0.4-0.1l0.4-0.2l0.3-0.2l0.6-0.6l0.9-1.4
		l0.1-0.1l0.2,0l0-0.1V425l0.1-0.2l2.2-2.6l0.7-0.7l0.3-0.4l0.1-0.4l0.2-0.2l1.2-0.9l0.1,0.1l0,0.1l0,0.1l0,0.1l0.1-0.1l0.2-0.4
		l-0.3-0.2l0.1-0.4l0.9-1.2l0.2-0.1l0.5-0.1l0.1-0.1l0-0.2l0.1-0.2l0.5-0.8l1.5-1.5l1.4-1.1l1.3-1l2.6-2.9l4.4-4.8l4.3-4.2l4-4.5
		l4.2-4l1-0.8l0.3-0.1l0.4-0.2l1-1.5l0.8-0.6l2.5-1.3l1-1.3l0.3-0.2l0.5-0.1l0.4-0.3l1.6-1.5l0.2-0.2l0.1-0.1l0.4-0.1l0.1-0.1l0-0.4
		l0-0.2l0.1-0.2l0.3-0.2l0.9-0.5l0.5-0.2l2.4-2.5l4.8-3.7l2.8-1.7l3-2.1l0.3-0.1l0.2-0.2l3.7-2.5l4.3-2l0.2-0.1l0.5-0.1l10.5-6
		l2.5-1.4l4.4-2.8l0.4-0.4l0.3-0.6l0.9-0.6l0.2-0.3l0.4-0.7l0.2-0.3l2.1-2.1l0.9-0.4l0.3-0.2l0.2-0.4l0.2-0.4l0.2-0.3l0.4-0.1
		l0.1-0.1l0.1-0.2l0.1-0.2l0-0.2l1.4-1l1.6-1.6l3-2.5l1.6-1.9l2.9-2.6l3.9-4.6l4.2-4.4l2.8-2.9l3.4-3.4l1.9-2.7l8.1-8.7l2.4-3.4
		l3.2-6.5l2.8-3.7l2.6-2.8l2.2-3.6l1.6-1.5l0.6-0.8l1.1-2.3l3.4-5.2l4.1-7l0.8-1.7l0.3-1.9l0-0.5l-0.2-0.9l-0.1-0.5l0.1-0.5l2.7-5.7
		l1.1-3l1-1.5l1.6-3.2l3.4-4.7l1.4-1.6l3.5-6l0.1-0.4l0.1-1l0.2-0.4l0.7-0.7l0.6-0.9l0.1-0.4l0.1-0.6l-0.1-0.5l-0.3-0.2l-0.1-0.3
		l0.2-1.5l0.3-0.8l0.4-0.6l1.9-2l2.8-1.7l0.7-0.7l0.5-0.8l0.6-1.9l0.3-0.7l1.6-2.1l0.2-0.4l0.2-0.4l0.2-0.4l0.4-0.1l0.3-0.2l0.3-0.4
		l0.4-0.8l0.1-0.4l-0.1-1.3l0.2-0.5l1-1.3l0.4-0.8l0.4-1.8l0.3-0.9l0.4-0.7l0.5-0.7l0.7-0.7l2.4-1.9l0.6-0.8l0.3-0.8l0-0.5l-0.2-1.4
		l0.1-0.3l0.7-1.1l0.3-0.3l0.4-0.2l0.9-0.4l0.4-0.3l1.4-2.2l0.2-0.4l0.1-0.4l-0.1-0.5l-0.5-1.4l-0.2-1.2l0-0.7l0.4-0.6l0.2-1.3
		l0.1-0.4l0-0.2l-0.1-0.6l0.2-0.2l0.3-0.8l0.2-1.1l0.1-0.4l0.3-0.5l-0.1-0.2l0.3-1.5l0.2-0.3l0-0.2l0-0.3l-0.3-0.7l-0.1-1l0.3-1.9
		l0.1-1l-0.2-1.9l0.2-0.3l2.3-1.3l1.7-0.5l3.4-0.3l0.3,0.1l0.1,0.3l0,0.3l0.1,0.1l0.9,0.2l0.2,0.1l0.1-0.1l0.2,0l0.2,0l0.2,0l0,0
		l0.1,0.1l0.1,0h0.1l0.1-0.1l0.1-0.2l0.1,0l0.1-0.2l0.4-0.9l0.1-0.2L534.4,180.7z"/>
</g>

</svg>
