<?xml version="1.0" encoding="utf-8"?>

<svg version="1.2" baseProfile="tiny" xmlns="http://www.w3.org/2000/svg" xmlns:xlink="http://www.w3.org/1999/xlink" x="0px"
	 y="0px" viewBox="277.3 151.2 286.4 291.8" xml:space="preserve">

<g id="Suriname">
	<g>
		<polygon fill="#377E3F" points="350.7,387.8 350.3,388.7 350.4,389.9 350.8,390.6 352.5,392.6 352.6,393.1 352.3,395.4
			352.7,396.1 353.7,395.8 355.2,394.7 355.8,395.4 355.6,396.1 355.3,396.9 355.2,397.6 355.4,398.5 355.7,399.2 356.9,400.2
			357.2,400.9 357.1,401.6 356.6,402.6 357.2,403.9 359.7,406.1 360.5,407.6 360.5,410.1 360.7,410.8 361.4,411.1 363,411.4
			363.6,411.7 364.5,413.1 365.2,416.1 365.7,417.7 366.2,419.8 373,429.3 374.9,430 381.8,430.2 384.5,431.5 384.9,432.1
			385.4,432.6 386,433 387.4,433.5 388,433.9 388.5,434.6 388.7,435.4 392.3,436.7 393.4,437 394.7,436.8 396.7,436.3 398.1,436.5
			399.5,437 402,438.7 403.3,439.2 404.4,439.3 407.8,439.1 412.3,440.3 416.7,442.1 421.2,443 425.8,441.6 428,439.3 428.4,436.8
			428,434 427.9,430.9 428.1,430 428.4,429.4 428.5,428.7 428.3,427.8 427.7,427.1 425.4,425 422.8,421.8 422.2,421.2 420.3,419.9
			419.4,418.4 418.7,415.7 417.4,414.5 416.1,414.2 413,414 412.2,413.5 412.4,412.2 413.3,410.1 414.4,408.1 415.2,407
			416.1,406.8 416.7,407.1 417.4,407.4 418.2,407.5 419,407.1 419.6,406.5 421.6,403.5 421.9,402.3 422,399.2 422.8,396.2
			423.3,395 423.7,394.6 424.6,394.3 426.2,394.5 427.8,395.3 431.6,398.5 432.8,399 437.8,400.3 438.4,400.6 439,401.3
			439.8,402.8 440.5,403.3 441.9,403.6 447.5,402.3 450,401 451.5,401 452.9,401.3 456.9,400.9 459.4,400.9 462.2,401.3
			464.7,401.3 466.7,400.4 467.3,399.4 467.5,398.1 467.9,396.8 469,395.7 470.3,395.2 471.5,395.1 472.6,395.4 473.4,396.5
			475.1,396.6 480.7,392.3 483.1,392.1 483.4,392.8 483.1,394.1 483.7,394.6 484.3,394.7 484.8,394.5 487.4,393.3 490.1,391
			491.5,390.1 494.4,389 495.6,388.9 496,389.5 495.6,390.5 494.2,391.8 494,392.8 494.3,393.5 501.1,400.1 503.9,401.1
			507.3,400.1 509.6,398.8 510.8,398.8 512.3,399.4 513.3,399.9 513.6,400.2 513.7,401.6 513.8,402 514.1,402.8 514.1,403.2
			514,403.6 513.7,403.7 513.3,403.7 513.1,403.8 512.7,405.1 513.3,406.7 513.4,407.4 513.4,408.1 513.6,408.7 514.4,409.1
			515.7,409.3 517.1,409.3 518.5,409 519.8,408.6 520.9,407.2 521.9,407 524.3,407.7 525.7,407.6 526.4,407 528.3,402.2 529,401.8
			529.8,401.4 531.3,401.4 532.4,401.3 533.3,400.9 536.6,397.6 537.7,395.9 540.5,389 541.5,387 350.9,387 		"/>
		<polygon fill="#377E3F" points="561.6,165.6 561.4,164.9 561.3,164.4 561.1,164 560.7,163.7 560,163.7 558.2,163.7 557.8,163.5
			557.1,163.5 551.1,160.9 543.8,159.6 538,158 529.2,157 512.1,153.9 510,153 508.7,152.6 491.8,152.1 490.6,151.5 489.5,151.2
			487.7,151.6 484.6,152.6 482.3,152.8 481.7,153.1 481.3,153.9 481.5,154.5 482,155 482.3,155.8 482.8,156.5 484,157.3 485.4,158
			489.5,159.1 490.6,159.7 491.6,160.6 497.6,160.8 498.6,160.4 499.1,160 499.6,159.6 500.5,159.8 501.1,160.1 501.7,160.6
			502.1,161.2 502.4,161.7 501.2,160.8 500.5,160.5 499.8,160.3 499,160.5 498.5,160.9 498.2,161.4 497.6,161.7 496.9,162
			496.3,162.1 495.7,162 494.1,161.1 493.6,161.2 493,161.5 492.1,161.7 490.7,161.4 488.2,160.1 486.8,159.8 486.1,160.5
			485.7,162 485,163.5 483.7,164.2 485.1,161.3 485,160 483,159.2 481.6,158.5 481.3,158.2 480.9,157.8 480.1,157.9 478.8,158.4
			477.8,158.6 477.3,158.6 476.5,158.4 475.8,157.9 474.3,156.7 473.8,156.5 472.4,156.4 471.3,156 468.8,155 466.3,154.3
			448,152.6 445.2,152.6 441.7,153.4 435.2,154.1 434.1,154.5 433.4,154.6 432.7,154.8 432.3,155.3 432.1,155.8 431.9,156
			428.1,158.9 427.9,159.2 427.9,159.8 428,160.6 428.4,160.8 428.9,160.9 429.3,161.3 429.6,162.3 429.3,165.8 430.5,168.5
			430.7,169.7 430.8,172.1 430.7,173.2 430.3,174.3 429.8,174.3 429.8,168.2 429.4,167.3 428.4,166.7 426,166.1 420.9,164
			419.9,164 418.7,164.2 416.9,163.7 413.9,162.2 409.2,161.2 406.7,159.8 405,159.2 395.3,157.1 384.8,155 380.7,155.7
			379.2,155.5 375,153.9 355.7,151.7 354.1,151.8 353.5,151.9 352.8,152.1 352.3,152.4 351.5,153.4 351.1,153.6 350.8,153.8
			350.4,154.1 349.9,154.4 348.3,154.7 347.7,155.1 347.3,155.7 347,156.5 346.2,160.8 345.6,162.6 344.4,164.4 343.4,166.1
			342.9,168.4 342.6,175.1 340.9,182.6 340.4,183.7 339.8,184.5 338.8,185.3 336.6,186.1 335.9,186.7 335,187.7 334.3,189.2
			334,190.3 334,191.8 333.7,193.4 333,194.5 329.6,197.9 329,198.7 328.8,199.5 329,200.1 329.6,200.1 330.7,199.7 331.4,199.9
			331.8,199.9 332,200.1 332.1,204.9 332.3,205.5 332.6,205.9 333.2,206.1 333.8,206 334.3,205.7 334.5,205.2 333.8,204.4
			333.4,203.7 333.5,203 334.1,202.7 334.9,202.6 335.6,202.9 335.9,203.3 336.5,204.6 338.4,207 540.3,207 541.1,205.8
			544.1,202.8 549.6,198.8 551,197.3 551.1,197.3 551,197.3 554,192.7 554.4,191.3 554.7,190.7 555.4,190 556.6,188.9 557.9,187.4
			558.8,185.7 559.5,183 559.6,177.5 560.2,174.8 561.3,172.8 563.3,170.2 563.6,169.7 563.4,168.6 		"/>
		<polygon fill="#FFFFFF" points="338.8,207.5 339.3,208.9 339,209.8 338.1,210.6 337,211.3 335.9,211.7 335.5,210.3 334.9,209.6
			334,209.3 332.8,209.3 332,209.7 331.6,210.7 331.1,212.7 330,215.1 329.8,215.8 329.7,216.8 330.1,217.5 332.6,219.8
			331.9,220.3 331.4,220.2 330.8,220 330.2,219.8 329.2,220 328.6,220.2 328.1,220.5 327.3,220.8 325.5,221.3 320,221.8
			318.8,222.2 317.9,222.3 317.4,222 316.3,221 316,220.8 314.2,220.9 312.5,221.2 309.5,222.3 306.7,221.1 304.1,221.2
			301.7,222.4 299.8,224.2 298.8,226.2 298,226.8 296.3,227.1 295.4,226.9 294.7,226.6 294,226.4 293.1,226.6 292.6,227.1
			291.2,229.5 290.2,230.6 289,232 287.8,233.6 287.4,235.9 287.9,236.9 288.1,237 529.4,237 529.4,230.1 528.9,229.2 528.8,228.5
			529.1,227.8 531,226.5 531.3,226.1 531.5,225.1 530.8,222.3 531.1,221.1 531.5,220 532.8,217.9 536.6,213.6 536.8,213.2
			537,212.4 537.3,211.9 538.4,211.2 538.8,210.7 539.7,207.9 540.3,207 338.4,207 		"/>
		<polygon fill="#FFFFFF" points="337.4,357.6 337.5,358.1 337.8,359 337.8,359.5 337.6,359.8 336.6,359.8 336.4,360.1 336.5,360.9
			336.7,361.5 336.8,362.1 336.4,362.7 335.8,363.6 336.7,364.1 339.1,364.4 339.4,365.4 338.6,366.4 337.5,367.2 336.9,368
			337.8,371.5 338.1,372.3 338.7,372.6 338.9,373.2 339.2,373.9 340.1,374.2 340.7,374 342.1,373.4 343,373.2 343.4,373.7
			342.2,376.2 342.7,377.5 342.9,377.3 345.3,377 346,377.3 345.9,378 345.3,378.9 345.1,379.6 345.5,380.6 347.3,382.5
			347.9,383.8 348.4,386.5 348.9,386.9 350.4,386.1 350.9,387 350.9,387 541.5,387 542.9,384 548.1,377.2 548.6,376.1 549.7,372.8
			550.2,372.3 551,371.8 550.1,371 549.7,370.6 549.6,370.1 549.6,369.3 549.8,368.5 550.8,367.1 551,366.7 551.6,364.6
			551.5,363.6 551.1,363.5 550.4,362.7 550,361.7 550.8,361.2 551.1,360.8 551,359.8 550.5,358.1 550.4,357.9 549.7,357.5
			549.6,357.4 549.8,357 549.8,357 337.1,357 		"/>
		<path fill="#B40A2D" d="M289.1,237.5l1.1,0.8l0.9,2.9l1.9,2.4l0.6,1.2l-0.1,1.3l-0.6,1.2l-1.2,1.8l-1.1,3.6l-1.2,2l-1.3,3.1
			l-0.5,2.3l-0.7,0.9l-0.8,0.9l-0.7,1.1l-0.3,1.3l0.3,1.1l0.4,1.1l0.2,1.1l-0.1,1.7l-0.5,1.4l-0.8,1.1l-6.1,6.2l-1,1.5l-0.1,1.4
			l0.9,3l0.9,5.9l0.7,2.5l1.7,2.1l4.6,3.6l1.1,1.3l3.6,5.2l1.5,3.1l0.3,1.4l0.2,3.2l0.4,1.5l0.8,1.3l1.2,0.8l3.4,1.4l2.7,1.7
			l0.2,0.5l0.3,1.2l0.6,1l0.1,0.3l0.1,0.3l0.3,0.4l0.3,0.2l0.8,0.1l0.1,0.2l0.3,0.1l1.5,0.9l1.1,1.3l-0.1,1.2l-1.1,2.1v0.5l0.1,0.9
			v0.5l-0.4,1.3l-0.1,0.5l0.2,0.8l0.3,0.8l0.2,0.3l0.3,0.3l0.6,0.3l2,0.4l3.4,1.9l0.8,0.2l0.6-0.1l0.7-1.4l0.9,0.2l0.9,0.6l0.4,0.3
			h0.6l0.5,0.1l0.4,0.2l0.2,0.3l0.2,0.3l0.6-0.3l0.5-0.5l0.2-0.2l2-0.5l0.5-0.6l0-1.2l2.2,0.9l1.9,0.6l1.9-0.3l2.2-1.7l1.7,3.5
			l0.2,1l-0.2,2.4l-0.1,0.4l-0.5,0.9l0.1,0.6l0.5,0.6l0.3,0.9l-0.1,0.8l-0.4,1.5l-0.1,0.9l0.2,0.8l0.8,1.6l-0.2,0.8l-0.4,0.5
			l-0.2,0.5l0.8,0.6l0.7,0.1l0.7-0.2l0.6-0.4l0.5-0.4l0.1,0.2l0.1,0.1h0l0.2,0.1l-1.1,2l0.6,1.3l1.2,1.1l0.4,1h212.7l0.3-0.2
			l0.3-0.2l0.2-0.2l0.2-1.5l-0.2-1.6l-0.8-1l-1.6,0.3l1.5-3.5l1-1.6l2.6-3.1l1.9-2.8l2.4-1.7l0.7-1.2l0.5-1.4l0.2-1.2l0.3-0.9
			l2.6-2.6l1.1-2.8l-0.2-5.2l0.6-3l0.6-1.6l0.1-1.1l-0.4-0.8l-1-1l-0.6-0.2l-0.7,0.1l-0.8,0.3l-0.8,0.1l0-0.4l-1.6-2.5l-1.5-5
			l-0.7-0.8l-1.5-2.1l-0.7-0.5l-2.4-0.7l-0.8-0.3l-0.4-0.3l-0.7-0.9l-0.7-1.4l-0.5-0.9l-0.3,0l-0.3-0.6l-1.3-0.7l-1.7-3.2l-0.5-0.5
			l-1-0.8l-0.5-0.6l-0.7-2.4l-0.5-0.7l-2.4-2.1l-0.7-1.2L538,287l0.3-1.1l0.9-2.4l0.2-1.1l-0.3-1.5l-0.7-0.5l-2.4-0.6l-0.9-0.6
			l-0.9-0.9l-0.3-1.2l0.8-1.3l0.5-1.2l-0.1-1.8l-0.6-3l-2.1-4.4l-1.2-7.5l0.2-1.8l1.4-2.6l0.3-1.2v-2.9l-0.1-0.8l-0.9-2.3l0-1.7
			l0.2-1.4V242l-0.9-1.3l-0.7-0.4l-0.7-0.2l-0.6-0.4l-0.2-0.9V237H288.1L289.1,237.5z M406.5,284.2l13.5-41.5l13.5,41.5h43.6
			l-35.3,25.6l13.5,41.5L420,325.6l-35.3,25.6l13.5-41.5l-35.3-25.6H406.5z"/>
		<polygon fill="#ECC81D" points="384.7,351.3 420,325.6 455.3,351.3 441.8,309.8 477.1,284.2 433.5,284.2 420,242.7 406.5,284.2
			362.9,284.2 398.2,309.8 		"/>
	</g>
	<polygon fill="none" stroke="#878787" stroke-width="0.25" stroke-linecap="round" stroke-linejoin="round" points="563.3,318
		562.4,316.9 561.7,316.7 561,316.8 560.2,317.1 559.4,317.2 559.4,316.8 557.8,314.3 556.3,309.3 555.6,308.5 554.2,306.4
		553.4,305.9 551,305.2 550.2,304.9 549.8,304.6 549.1,303.8 548.5,302.4 547.9,301.5 547.7,301.6 547.4,301 546.1,300.3
		544.3,297.1 543.8,296.6 542.9,295.8 542.4,295.1 541.7,292.7 541.2,292 538.8,289.9 538.1,288.7 538,287 538.3,285.9 539.3,283.5
		539.5,282.4 539.2,281 538.5,280.4 536.1,279.8 535.3,279.2 534.4,278.3 534.2,277.1 534.9,275.7 535.4,274.5 535.3,272.7
		534.7,269.8 532.5,265.3 531.3,257.8 531.5,256 532.9,253.4 533.3,252.2 533.3,249.4 533.1,248.5 532.2,246.3 532.2,244.6
		532.4,243.2 532.4,242 531.6,240.7 530.9,240.3 530.1,240.1 529.6,239.7 529.4,238.8 529.4,230.1 528.9,229.2 528.8,228.5
		529.1,227.8 531,226.5 531.3,226.1 531.5,225.1 530.8,222.3 531.1,221.1 531.5,220 532.8,217.9 536.6,213.6 536.8,213.2 537,212.4
		537.3,211.9 538.4,211.2 538.8,210.7 539.7,207.9 541.1,205.8 544.1,202.8 549.6,198.8 551,197.3 551.1,197.3 551,197.3 554,192.7
		554.4,191.3 554.7,190.7 555.4,190 556.6,188.9 557.9,187.4 558.8,185.7 559.5,183 559.6,177.5 560.2,174.8 561.3,172.8
		563.3,170.2 563.6,169.7 563.4,168.6 561.6,165.6 561.4,164.9 561.3,164.4 561.1,164 560.7,163.7 560,163.7 558.2,163.7
		557.8,163.5 557.1,163.5 551.1,160.9 543.8,159.6 538,158 529.2,157 512.1,153.9 510,153 508.7,152.6 491.8,152.1 490.6,151.5
		489.5,151.2 487.7,151.6 484.6,152.6 482.3,152.8 481.7,153.1 481.3,153.9 481.5,154.5 482,155 482.3,155.8 482.8,156.5 484,157.3
		485.4,158 489.5,159.1 490.6,159.7 491.6,160.6 497.6,160.8 498.6,160.4 499.1,160 499.6,159.6 500.5,159.8 501.1,160.1
		501.7,160.6 502.1,161.2 502.4,161.7 501.2,160.8 500.5,160.5 499.8,160.3 499,160.5 498.5,160.9 498.2,161.4 497.6,161.7
		496.9,162 496.3,162.1 495.7,162 494.1,161.1 493.6,161.2 493,161.5 492.1,161.7 490.7,161.4 488.2,160.1 486.8,159.8 486.1,160.5
		485.7,162 485,163.5 483.7,164.2 485.1,161.3 485,160 483,159.2 481.6,158.5 481.3,158.2 480.9,157.8 480.1,157.9 478.8,158.4
		477.8,158.6 477.3,158.6 476.5,158.4 475.8,157.9 474.3,156.7 473.8,156.5 472.4,156.4 471.3,156 468.8,155 466.3,154.3 448,152.6
		445.2,152.6 441.7,153.4 435.2,154.1 434.1,154.5 433.4,154.6 432.7,154.8 432.3,155.3 432.1,155.8 431.9,156 428.1,158.9
		427.9,159.2 427.9,159.8 428,160.6 428.4,160.8 428.9,160.9 429.3,161.3 429.6,162.3 429.3,165.8 430.5,168.5 430.7,169.7
		430.8,172.1 430.7,173.2 430.3,174.3 429.8,174.3 429.8,168.2 429.4,167.3 428.4,166.7 426,166.1 420.9,164 419.9,164 418.7,164.2
		416.9,163.7 413.9,162.2 409.2,161.2 406.7,159.8 405,159.2 395.3,157.1 384.8,155 380.7,155.7 379.2,155.5 375,153.9 355.7,151.7
		354.1,151.8 353.5,151.9 352.8,152.1 352.3,152.4 351.5,153.4 351.1,153.6 350.8,153.8 350.4,154.1 349.9,154.4 348.3,154.7
		347.7,155.1 347.3,155.7 347,156.5 346.2,160.8 345.6,162.6 344.4,164.4 343.4,166.1 342.9,168.4 342.6,175.1 340.9,182.6
		340.4,183.7 339.8,184.5 338.8,185.3 336.6,186.1 335.9,186.7 335,187.7 334.3,189.2 334,190.3 334,191.8 333.7,193.4 333,194.5
		329.6,197.9 329,198.7 328.8,199.5 329,200.1 329.6,200.1 330.7,199.7 331.4,199.9 331.8,199.9 332,200.1 332.1,204.9 332.3,205.5
		332.6,205.9 333.2,206.1 333.8,206 334.3,205.7 334.5,205.2 333.8,204.4 333.4,203.7 333.5,203 334.1,202.7 334.9,202.6
		335.6,202.9 335.9,203.3 336.5,204.6 338.8,207.5 339.3,208.9 339,209.8 338.1,210.6 337,211.3 335.9,211.7 335.5,210.3
		334.9,209.6 334,209.3 332.8,209.3 332,209.7 331.6,210.7 331.1,212.7 330,215.1 329.8,215.8 329.7,216.8 330.1,217.5 332.6,219.8
		331.9,220.3 331.4,220.2 330.8,220 330.2,219.8 329.2,220 328.6,220.2 328.1,220.5 327.3,220.8 325.5,221.3 320,221.8 318.8,222.2
		317.9,222.3 317.4,222 316.3,221 316,220.8 314.2,220.9 312.5,221.2 309.5,222.3 306.7,221.1 304.1,221.2 301.7,222.4 299.8,224.2
		298.8,226.2 298,226.8 296.3,227.1 295.4,226.9 294.7,226.6 294,226.4 293.1,226.6 292.6,227.1 291.2,229.5 290.2,230.6 289,232
		287.8,233.6 287.4,235.9 287.9,236.9 289.1,237.5 290.2,238.3 291.1,241.1 293,243.5 293.6,244.8 293.5,246.1 292.9,247.3
		291.7,249.1 290.6,252.7 289.4,254.7 288.1,257.8 287.6,260.1 286.9,261 286.1,261.9 285.4,263 285.1,264.3 285.4,265.4
		285.7,266.4 285.9,267.6 285.8,269.3 285.3,270.8 284.6,271.9 278.4,278.1 277.4,279.6 277.3,281.1 278.2,284.1 279.2,290
		279.8,292.5 281.5,294.6 286.1,298.3 287.3,299.6 290.9,304.8 292.4,307.9 292.7,309.3 292.8,312.5 293.3,314 294,315.2 295.2,316
		298.6,317.4 301.3,319.1 301.6,319.6 301.9,320.8 302.5,321.9 302.6,322.1 302.7,322.4 303,322.7 303.3,322.9 304.1,323
		304.2,323.2 304.5,323.3 305.9,324.1 307.1,325.4 307,326.7 305.9,328.7 305.9,329.2 306.1,330 306.1,330.5 305.7,331.8
		305.6,332.3 305.8,333.1 306.1,333.9 306.3,334.3 306.7,334.5 307.3,334.8 309.3,335.2 312.6,337.1 313.4,337.3 314,337.2
		314.7,335.8 315.6,336 316.5,336.6 317,336.9 317.5,336.9 318.1,337 318.5,337.2 318.7,337.5 318.9,337.8 319.4,337.5 319.9,337.1
		320.1,336.9 322.1,336.3 322.5,335.7 322.5,334.5 324.7,335.4 326.6,336 328.5,335.7 330.7,334 332.4,337.5 332.6,338.5
		332.5,340.9 332.3,341.3 331.8,342.2 331.9,342.8 332.4,343.4 332.6,344.2 332.6,345 332.2,346.5 332.1,347.3 332.3,348.1
		333,349.7 332.8,350.6 332.4,351.1 332.2,351.6 333,352.2 333.7,352.3 334.4,352 335,351.6 335.5,351.2 335.6,351.4 335.7,351.5
		335.7,351.5 335.9,351.6 334.9,353.7 335.5,354.9 336.7,356 337.4,357.6 337.5,358.1 337.8,359 337.8,359.5 337.6,359.8
		336.6,359.8 336.4,360.1 336.5,360.9 336.7,361.5 336.8,362.1 336.4,362.7 335.8,363.6 336.7,364.1 339.1,364.4 339.4,365.4
		338.6,366.4 337.5,367.2 336.9,368 337.8,371.5 338.1,372.3 338.7,372.6 338.9,373.2 339.2,373.9 340.1,374.2 340.7,374
		342.1,373.4 343,373.2 343.4,373.7 342.2,376.2 342.7,377.5 342.9,377.3 345.3,377 346,377.3 345.9,378 345.3,378.9 345.1,379.6
		345.5,380.6 347.3,382.5 347.9,383.8 348.4,386.5 348.9,386.9 350.4,386.1 350.9,387 350.7,387.8 350.3,388.7 350.4,389.9
		350.8,390.6 352.5,392.6 352.6,393.1 352.3,395.4 352.7,396.1 353.7,395.8 355.2,394.7 355.8,395.4 355.6,396.1 355.3,396.9
		355.2,397.6 355.4,398.5 355.7,399.2 356.9,400.2 357.2,400.9 357.1,401.6 356.6,402.6 357.2,403.9 359.7,406.1 360.5,407.6
		360.5,410.1 360.7,410.8 361.4,411.1 363,411.4 363.6,411.7 364.5,413.1 365.2,416.1 365.7,417.7 366.2,419.8 373,429.3 374.9,430
		381.8,430.2 384.5,431.5 384.9,432.1 385.4,432.6 386,433 387.4,433.5 388,433.9 388.5,434.6 388.7,435.4 392.3,436.7 393.4,437
		394.7,436.8 396.7,436.3 398.1,436.5 399.5,437 402,438.7 403.3,439.2 404.4,439.3 407.8,439.1 412.3,440.3 416.7,442.1 421.2,443
		425.8,441.6 428,439.3 428.4,436.8 428,434 427.9,430.9 428.1,430 428.4,429.4 428.5,428.7 428.3,427.8 427.7,427.1 425.4,425
		422.8,421.8 422.2,421.2 420.3,419.9 419.4,418.4 418.7,415.7 417.4,414.5 416.1,414.2 413,414 412.2,413.5 412.4,412.2
		413.3,410.1 414.4,408.1 415.2,407 416.1,406.8 416.7,407.1 417.4,407.4 418.2,407.5 419,407.1 419.6,406.5 421.6,403.5
		421.9,402.3 422,399.2 422.8,396.2 423.3,395 423.7,394.6 424.6,394.3 426.2,394.5 427.8,395.3 431.6,398.5 432.8,399 437.8,400.3
		438.4,400.6 439,401.3 439.8,402.8 440.5,403.3 441.9,403.6 447.5,402.3 450,401 451.5,401 452.9,401.3 456.9,400.9 459.4,400.9
		462.2,401.3 464.7,401.3 466.7,400.4 467.3,399.4 467.5,398.1 467.9,396.8 469,395.7 470.3,395.2 471.5,395.1 472.6,395.4
		473.4,396.5 475.1,396.6 480.7,392.3 483.1,392.1 483.4,392.8 483.1,394.1 483.7,394.6 484.3,394.7 484.8,394.5 487.4,393.3
		490.1,391 491.5,390.1 494.4,389 495.6,388.9 496,389.5 495.6,390.5 494.2,391.8 494,392.8 494.3,393.5 501.1,400.1 503.9,401.1
		507.3,400.1 509.6,398.8 510.8,398.8 512.3,399.4 513.3,399.9 513.6,400.2 513.7,401.6 513.8,402 514.1,402.8 514.1,403.2
		514,403.6 513.7,403.7 513.3,403.7 513.1,403.8 512.7,405.1 513.3,406.7 513.4,407.4 513.4,408.1 513.6,408.7 514.4,409.1
		515.7,409.3 517.1,409.3 518.5,409 519.8,408.6 520.9,407.2 521.9,407 524.3,407.7 525.7,407.6 526.4,407 528.3,402.2 529,401.8
		529.8,401.4 531.3,401.4 532.4,401.3 533.3,400.9 536.6,397.6 537.7,395.9 540.5,389 542.9,384 548.1,377.2 548.6,376.1
		549.7,372.8 550.2,372.3 551,371.8 550.1,371 549.7,370.6 549.6,370.1 549.6,369.3 549.8,368.5 550.8,367.1 551,366.7 551.6,364.6
		551.5,363.6 551.1,363.5 550.4,362.7 550,361.7 550.8,361.2 551.1,360.8 551,359.8 550.5,358.1 550.4,357.9 549.7,357.5
		549.6,357.4 549.8,357 550.1,356.8 550.4,356.6 550.5,356.4 550.7,355 550.5,353.4 549.8,352.4 548.1,352.6 549.6,349.1
		550.6,347.5 553.1,344.4 555,341.6 557.4,339.9 558.1,338.7 558.6,337.3 558.8,336.1 559.1,335.2 561.6,332.5 562.8,329.7
		562.6,324.5 563.1,321.5 563.7,319.9 563.8,318.8 	"/>
</g>

</svg>
