<?xml version="1.0" encoding="utf-8"?>

<svg version="1.2" baseProfile="tiny" xmlns="http://www.w3.org/2000/svg" xmlns:xlink="http://www.w3.org/1999/xlink" x="0px"
	 y="0px" viewBox="260.9 172.2 318.2 250" xml:space="preserve">

<g id="South_Sudan">
	<title>Flag of South Sudan</title>
	<g>
		<polygon fill="#078930" points="350.4,363.8 349.3,366.7 349.2,367.2 349.3,367.5 349.5,368.2 349.7,369.6 349.8,370.1
			350.6,371.9 351,372.7 351.6,373.4 353.3,374.5 354,375.2 354.5,376.3 354.9,376.6 355.3,376.9 355.6,377.3 355.7,377.6
			355.5,378.9 355.6,379.1 355.8,379.2 356,379.3 356.2,379.4 357.1,380 357.3,380.3 357.4,380.6 357.6,381.2 357.7,381.5
			358.2,381.9 358.6,382 358.8,382.1 361.3,382.4 361.8,382.7 362.2,383.4 362.4,384.6 362.6,385 363,385.3 363.2,385.3
			363.7,385.2 364,385.2 364.3,385.3 364.5,385.6 364.7,385.9 364.8,386.2 364.9,386.8 364.7,388.5 364.7,389.6 364.9,390.3
			365.1,390.8 365.2,390.8 365.6,390.9 365.9,390.9 366.1,391 366.4,391.2 366.9,391.8 367.3,392 367.5,392 368.3,391.9
			368.5,391.9 368.9,392.1 369.1,392.1 369.2,392 369.2,391.8 369.2,391.8 369.2,391.7 369.3,391.6 369.5,391.5 369.7,391.6
			370,391.9 370.2,391.9 370.5,391.9 372,392.1 372.1,392.4 371.9,392.9 371.8,393.5 371.8,393.8 371.9,394.1 372,394.3
			372.1,394.6 373,395.8 373.3,395.8 373.7,395.3 374,395.1 374.2,395.1 374.5,395.1 374.6,395.4 374.8,395.9 375.6,396.9
			376.1,397.5 376.6,397.8 377.8,398 379,397.8 380.2,397.7 381.2,398.4 381.4,399 381.5,399.4 381.8,399.7 382.4,399.9
			383.1,399.8 383.7,399.4 384.2,398.9 385.3,397.5 385.7,397.2 386.4,397.1 386.6,397.1 386.9,397.1 387.2,397.2 387.5,397.1
			387.7,396.8 387.7,396.5 387.8,396.2 388.2,396 389.4,395.7 389.8,395.4 390.2,394.8 391.4,392.6 391.7,392.5 392.2,392.5
			392.6,392.3 392.9,392.1 393.1,392 393.3,392 393.5,392.1 393.9,392.6 394,393.3 394.1,393.8 394.8,394.1 395.1,394.1 396,394
			397.3,394.1 398,394 399.7,393.6 399.8,393.7 399.9,393.9 401.3,394.8 401.6,394.9 401.7,395.3 401.8,395.3 402.9,395.8
			403.2,396 405.1,397.8 405.7,398.1 406.4,398 406.6,397.6 406.7,397 407,396.7 407.7,396.7 408.3,396.8 408.8,396.7 409.2,396
			409.5,395.3 409.8,394.9 411.2,393.7 411.6,393.2 411.8,392.6 412,391.9 412.2,391.6 412.7,391.1 412.8,390.8 412.8,390.5
			412.9,390 412.9,389 413.2,388.7 413.6,388.6 414.2,388.7 414.3,388.8 414.6,389.1 414.7,389.2 415.2,388.9 415.4,388.9
			415.6,389 415.7,389 416.6,389.4 417.4,389.4 417.8,389.5 418.9,390 419.3,390.3 420.1,391 420.5,391.2 420.7,391.3 421.4,391.1
			421.5,391.2 422.2,391.6 422.5,391.7 422.8,391.9 422.7,392.2 422.5,392.5 422.3,392.8 422.3,393.1 422.5,393.5 422.6,393.8
			422.5,394.1 422.3,394.9 422.3,396.2 422.6,397.2 423.4,397.9 424.7,397.8 425.3,397.9 426,398.4 426.6,398.9 426.9,399.5
			426.8,399.8 426.6,400.1 426.4,400.4 426.5,400.7 426.7,401 427,401.1 427.3,401.1 427.7,401.1 428.3,401.5 428.8,402
			429.4,403.3 429.9,403.9 430.3,404.2 431.5,404.4 432.1,404.8 432.4,405.4 432.6,406 432.8,406.7 433.5,407.5 433.7,407.8
			433.8,408.1 433.8,408.4 433.8,408.7 434,409 434.5,409.1 436.4,409.2 438.3,409.8 439.4,410.5 440.6,411.1 441.7,411.5
			441.9,411.5 442.5,411.5 442.8,411.5 443.1,411.4 443.4,411.4 443.6,411.5 443.8,411.8 444,412.2 444.7,416.4 444.7,416.9
			444.5,418 444.3,418.4 444.2,418.6 444.1,418.7 444.4,419 444.7,419 445,419 445.5,419 445.9,418.9 446.8,418.4 447.3,418.2
			447.6,418.2 448.4,418.2 449,417.8 449.5,417.3 450,416.9 450.5,417.3 450.5,417.5 450.6,417.6 450.7,418.6 450.9,419
			451.2,419.3 452.1,419.6 452.5,420.1 452.3,421.6 452.6,422.2 452.7,421.8 453.3,420.5 455.2,417.8 455.4,417.5 455.4,417.1
			455.6,416.8 455.9,416.5 456.2,416.4 456.8,416.5 457.1,416.4 457.4,416.2 458.3,415.5 458.6,415.4 459.1,415.3 459.4,415.2
			461.2,413.8 462,413.6 463.3,413.6 464.5,413.8 465.6,414.1 468,415.4 471.6,417.4 472.1,417.5 472.5,417.2 472.8,416.8
			473.3,416.5 476.3,416.1 476.8,415.9 477,415.6 479.3,413.1 479.4,412.9 479.5,412.9 480.2,413.3 480.9,413.9 482.9,416.1
			483.3,416.8 483.4,417.3 483.5,418.6 483.7,419.1 484.1,419.3 486.6,419.5 486.9,419.7 487.5,420.5 487.9,421 488.4,421.2
			490.2,421.6 490.5,421.6 490.7,421.3 490.8,420.7 490.8,420.3 490.7,419.3 490.7,418.9 491.1,418.5 496.3,415.4 497.6,415.1
			502.8,414.6 507.3,414.3 509.7,413.6 511.9,412.4 513.7,411.1 514.2,411 514.8,411.2 518.4,414.1 519,414.5 519.8,414.6
			522.4,414.7 527,415 528.3,414.8 529.5,414.1 531.6,412 534.3,409.3 537.5,406.1 539.8,403.8 542.1,401.5 545,398.6 547.9,395.8
			550.8,392.9 553.7,390.1 555.3,388.5 556.8,387 558.4,385.4 560,383.9 561.6,382.3 563.2,380.8 564.8,379.2 566.3,377.7
			567.9,376.1 569.5,374.6 571.1,373 572.7,371.5 574.3,369.9 575.9,368.4 577.4,366.8 579,365.3 578.8,364.7 577.7,363.8
			575.4,362.5 574.2,361.6 573.9,361 573.6,359.3 573.2,358.6 570.9,355.3 570.6,354.7 570.6,354.3 570.6,354 570.7,353.7
			570.8,353.3 570.7,353 570.2,352.5 570.1,352.1 570.1,351.8 570.2,351.5 570.5,350.9 570.3,349.8 374.6,349.8 		"/>
		<polygon fill="#FFFFFF" points="400.4,247.7 399.8,248.1 397.6,249.8 395.8,251.6 395.2,252.7 395.2,253.9 395.3,255 395.6,255.7
			391,255.6 397,259.1 545.2,259.1 544.8,251.9 540,251.9 539.9,251.9 539.8,251.8 539.7,251.7 539.6,251.5 539.4,250.7
			539.3,249.4 539.5,247.2 539.7,246.2 403.2,246.2 		"/>
		<polygon fill="#FFFFFF" points="374.6,349.8 570.3,349.8 570.2,349 570,348.5 569.5,347.9 568.9,347.4 568.5,346.8 567.9,345.4
			566.9,343.7 566.8,343.1 566.7,341.5 566.6,340.7 565.4,338.8 565.2,338.2 565,336.9 397,336.9 		"/>
		<polygon points="541.7,239 541.5,238.1 541.9,236.2 541.9,235.6 541.9,234.9 541.7,234.4 540.4,231.2 540,230.7 527.6,220.6
			525.4,217.8 525.1,217.6 524.8,217.5 518.6,215.2 518.3,214.9 518.3,214.6 518.5,214.2 519.2,212.8 519.3,212.5 519.5,211.9
			516.6,190.5 516.6,190.1 516.8,189.8 516.9,189.6 517.2,189.2 517.6,188.7 517.9,187.9 518,187.6 518.4,183.7 518.4,180.4
			520,174.8 520.2,172.4 506.6,172.2 506.5,172.3 506.5,172.5 506.5,172.6 506.6,172.8 506.6,173.2 506.4,173.9 506.4,174.3
			506.4,174.6 506.6,176 507,177 507.1,177.3 507.1,177.7 507,178.4 488.1,178.5 495.6,186.9 495.7,187.1 495.8,187.5 495.8,187.9
			496,190.8 495.6,195.5 495.7,198.5 496.1,200.5 498.1,204.3 498,205 497.5,205.9 484.1,217.4 483.7,217.9 481.8,222.6
			480.1,225.4 479.3,226.2 476.2,230.1 463.9,242.2 461.9,243 455.8,243.4 452.5,243.5 452.2,243.6 451.6,243.8 451.3,244.1
			450.9,244.3 450.5,244.2 450,243.8 442.5,237.1 429,228.5 427.7,229.2 420.1,232.9 418.5,233.9 417.7,234.6 417.6,238.7
			416.3,240.8 413.9,243.1 407.3,244.6 403.9,245.8 403.2,246.2 539.7,246.2 540.1,244.6 541.9,240.9 542,240.6 542,240.4
			542,240.2 541.9,239.6 		"/>
		<polygon fill="#DA121A" points="464.3,298 397,336.9 565,336.9 564.9,336.6 564.3,334.9 564,333.8 563.7,332.6 563.5,332.5
			563.2,332.1 563.1,331.6 562.9,331.3 560.9,330 560.5,329.8 559.8,329.7 558.6,329.7 558.1,329.6 557.8,329.3 557.6,328.2
			557.5,328 557.4,327.7 557.4,327.6 557.4,327.5 557.7,327.3 557.8,327.3 557.7,326.7 557.6,326.2 557.4,325.8 557.2,325.4
			555.3,324.1 551.3,323.2 551.2,323.1 551,323 550.8,322.8 550.7,322.3 550.5,322.2 549.4,321.3 549.1,320.9 548.9,320.8
			548.7,320.7 548.5,320.4 548.4,319.8 548.4,318.6 548.2,318 548,317.5 547.6,317.3 547.1,317.5 546.6,317.6 546,317.2
			545.2,316.2 543.9,315.2 543.8,315.1 543.7,315 543.7,312.3 543.5,311.3 543,310.6 539.4,306.9 538.6,306.4 538.3,306.4
			537.7,306.3 537.4,306.2 536,305.2 535.1,303.9 534.7,303.5 534.4,303.3 533.5,303.1 532.7,302.6 532.4,302.5 530.6,302.7
			530,302.5 529.7,302.3 529.3,301.8 529,301.5 528.7,301.4 528.2,301.2 527.9,301 527.5,300.8 526.7,300.9 525.5,301.1
			525.2,301.2 524.5,301.7 524.2,301.7 522.6,301.3 522.1,300.8 521.6,300.3 521.2,299.9 520.9,299.9 520,299.7 519.2,299.4
			519,299.4 518,299.6 517.9,299.6 517.7,299.9 517.3,299.8 516.7,299.5 515.9,299.4 515.7,299.4 515.6,299.2 515.5,298.9
			515.4,298.7 514.9,298.4 514.7,297.9 514,296 514.1,295.7 514.4,295.3 514.6,295 514.7,294.9 514.9,294.7 515,294.1 515.1,293.8
			515.5,293.3 517.1,291.6 517.3,291.4 517.4,291.1 517.5,290.8 517.6,290.7 518.5,290.5 519,290.3 519.3,290 519.5,289.6
			519.6,289.1 519.5,288.9 519.1,288.6 519.1,288.5 519.1,288.1 519.1,287.8 519.2,287.5 519.4,287.2 519.7,287 520,286.9
			520.2,286.8 520.2,286.4 519.8,286.2 519.6,286.1 519.4,285.8 519.2,285.6 519,285.3 518.9,284.9 518.9,284.7 519.2,284.2
			519.2,283.8 519.2,283.7 518.9,283.6 518.9,283.5 518.9,283.3 519,283.1 519.1,283 519.1,282.5 519.1,282.3 519.2,282.1
			519.6,281.9 520,281.8 520.3,281.6 520.2,281.4 520.1,281.3 521,280.6 521.5,280.5 524.6,281.2 524.8,281.1 525.2,280.8
			525.5,280.7 525.7,280.7 526,280.8 528,280.6 528.2,280.4 528.3,280.3 528.1,280.1 528.7,280.1 529.2,280.3 529.6,280.7
			530,280.9 530.6,280.8 531,280.5 531.4,280.4 532,280.5 532.9,281.2 533.4,282.2 534.1,283 535.4,283.1 535.7,283.1 535.8,283.1
			537,282 537.3,281.8 537.8,281.6 538.3,281.5 539.2,281.4 540.8,281.4 541.4,281.2 542,280.9 544.8,278.4 545.4,277.7
			545.7,277.1 546,275.7 545.2,259.1 397,259.1 		"/>
		<polygon fill="#0F47AF" points="397,336.9 464.3,298 397,259.1 391,255.6 372.8,255.5 371.5,253.9 368.6,247.9 368.3,248
			367.8,248.1 365,248.2 361.3,247.7 361.2,247.7 360.6,247.9 360.4,247.9 358.1,247.6 354,247.6 352.7,247.4 345.3,247.6
			334.3,251.3 334,251.3 332.3,251.2 331.6,250.9 330.4,250 319.6,237.4 317.4,236.6 317,236.2 316.7,235.7 315,232.9 314.8,232.7
			314.7,232.6 314.5,232.5 314.4,232.4 313.7,232.2 313.2,232 312.2,231.4 312,231.2 311.8,231 311.7,230.9 311.7,230.7
			311.5,226.3 311.4,226.1 311.4,226 311.2,225.8 310,224.2 309.9,224.1 309.6,224.2 308.3,224.5 307.7,224.8 307.5,224.9
			307.2,224.9 306.1,224.8 305.9,224.9 305.5,225 304.8,225.1 303.9,225.1 303.7,225.1 302.5,225.4 300.4,226.2 300.3,226.2
			299.9,226.3 299.6,226.3 298.5,226.3 298.1,226.3 297.8,226.4 297.4,226.5 297.1,226.7 296.8,226.8 296.5,226.8 296.3,226.8
			296,226.8 295.8,226.9 295.3,227.1 295.1,227.2 295,227.2 294.7,227.1 294.5,227.1 294.2,227.2 294.1,227.3 293.9,227.3
			293.7,227.2 293.6,227.2 293.3,227.1 293.1,227 292.8,226.9 292.6,227 292.4,227 292.1,227.1 291.9,227.1 291.6,227.1
			291.4,227.1 290.7,227.4 290.4,227.4 289.7,227.4 289.4,227.4 289,227.6 288.5,227.7 288.3,227.8 288.1,228 287.9,228.3
			286.4,231.4 286.4,231.7 286.3,232 286.4,232.3 286.4,232.4 286.7,233 286.8,233.3 286.8,233.4 286.8,233.6 286.7,233.8
			286.4,234.6 285.7,236.2 285.5,236.7 285.3,237.2 285,237.5 284.6,237.9 283.9,239 283.5,239.4 282.5,240 281.5,240.8
			281.3,240.9 281,241.1 280.7,241.1 280.4,241.1 280.3,241.2 280.2,241.3 280.1,241.5 280,242.1 280.1,249.7 280,250 279.8,250.7
			278.1,252.7 277.2,253.4 277,253.8 276.8,254.3 276.3,259.8 276.2,259.9 276.1,260.2 273.5,264.6 273.4,265 273.3,265.2
			273.3,268.2 273.2,268.4 272.9,268.6 271.5,269.1 268.9,269.3 268.3,269.5 265.1,271.4 264.3,271.8 262.6,273.1 262.5,273.3
			262.4,273.7 262.3,273.9 262.6,273.9 263.6,273.8 264.1,274.1 264.1,274.5 263.5,275.3 263.4,275.7 263.6,276.1 264.4,276.7
			264.6,277.1 264.4,277.3 263.2,278.1 262.9,278.4 261.3,281.1 261,282.1 260.9,283 261.2,283.8 261.8,284.6 262.5,285.1
			263.3,285.6 263.8,285.7 264.7,286 265.4,286 265.8,286 266,286.1 266.3,286.2 266.7,286.5 266.9,286.6 268.7,286 269.7,285.9
			270.4,286.5 270.5,286.8 270.7,287 270.9,287.1 271.1,287.2 272,287.7 272.9,287.8 274.9,287.4 276.6,287.7 277.1,287.7
			277.7,287.8 278.6,288.3 280.2,288.5 281.2,288.9 283.6,291.2 283.9,291.6 283.9,292.6 284.5,293.3 284.6,293.8 284.7,294
			284.9,294.2 285,294.2 301.9,288.7 301.9,258.6 319.6,282.9 348.3,273.6 330.6,298 348.3,322.4 319.6,313.1 313.4,321.6
			313.5,321.8 313.5,322 313.6,322.2 313.9,322.2 315.2,322.4 315.4,323 315.5,324.5 315.8,325.1 315.9,325.2 316.1,325.2
			316.3,325.1 316.5,325.1 316.6,325.3 316.6,325.4 316.5,325.6 316.5,325.8 316.6,326.1 316.7,326.5 316.8,326.8 317.1,327.1
			317.7,327.5 318.2,327.6 318.7,327.8 319.6,328.9 320.7,329.8 321.2,330.3 322.2,330.8 323.9,331.4 325.3,332.2 325.3,333.1
			325.1,333.4 324.6,334.3 324.2,334.9 323.7,335.5 323.2,336.6 322.9,336.8 322.7,337 322.4,337.2 322.2,337.5 322.7,337.7
			322.8,338.1 322.6,338.7 322.6,339.2 322.7,339.7 323.1,340 323.5,340.2 324,340.5 324.5,341 325.2,341.9 325.6,342.1
			325.7,342.2 326.9,342.5 327.4,342.8 327.5,343.5 327.5,344.2 327.8,344.4 328.2,344.4 328.6,344.5 329,344.9 329,345.5
			328.9,345.7 328.8,346 328.3,346.4 328,346.5 327.8,346.7 327.2,347.1 326.7,347.6 326.5,348.1 326.6,348.4 326.6,348.7
			327.1,348.6 328.2,347.8 328.7,348 329,348.4 329.3,349 329.5,349.6 330,349.9 331.7,350.5 332.6,350.6 334.6,350.5 336.6,351.3
			337.2,351.6 337.5,352 337.6,353.3 337.9,353.8 338.5,354.1 339.2,354 339.7,353.9 340,353.9 340.3,354.6 340.6,355.1
			341.2,355.1 342.5,354.8 342.8,355.1 343.1,355.9 343.6,356.4 343.9,356.8 344,356.9 344.3,356.9 344.8,356.8 345.1,356.7
			346.3,357.2 346.6,357.4 346.8,357.9 346.8,358.2 346.9,358.4 347.5,358.6 347.9,358.8 348.2,359.1 348.5,359.6 348.6,360
			348.6,360.3 348.6,360.4 348.8,360.6 349.3,360.9 349.3,361.1 349.2,361.2 349.2,361.7 349,362.1 349.1,362.3 349.2,362.6
			349.4,362.6 349.5,362.6 349.6,362.6 349.7,362.5 349.9,362.4 350.1,362.4 350.4,362.6 350.5,362.8 350.4,363.3 350.5,363.6
			350.4,363.8 374.6,349.8 		"/>
		<polygon fill="#0F47AF" points="293.1,304.5 291.3,305.1 290.7,305.7 290.6,306 290.8,306.5 291.4,307.9 293.1,308.8 293.5,309.1
			293.6,309.3 293.9,309.7 294.1,309.9 294.3,310.1 294.8,310.2 295,310.3 295.2,310.8 295.4,311.6 295.5,312 295.8,312.4
			296.2,312.7 297.8,313.5 298.9,314.3 299.7,314.6 300.2,314.5 300.7,314.5 301.1,314.8 301.9,315.5 301.9,307.3 		"/>
		<polygon fill="#FCDD09" points="348.3,322.4 330.6,298 348.3,273.6 319.6,282.9 301.9,258.6 301.9,288.7 285,294.2 285.2,294.3
			285.4,294.5 286.8,296 287.6,296.6 288.5,297 288.9,296.9 289.8,296.7 290.2,296.7 290.9,296.9 291.1,297 291.2,297.2
			291.4,297.3 292.1,297.6 292.5,297.9 292.8,298.4 293.1,299.3 293.5,300 293.6,300.5 293.7,300.9 293.6,302.2 293.7,302.6
			293.8,303 293.9,303.4 293.8,303.9 293.1,304.5 293.1,304.5 301.9,307.3 301.9,315.5 302.4,316 302.8,316.2 304.6,316.7
			305.1,316.9 305.8,317.4 306.1,317.5 306.6,317.5 306.9,317.6 307.4,318.1 307.7,318.2 308.4,318.2 308.5,318.4 308.5,318.8
			308.8,319.3 309.2,319.4 310.5,319.5 311,319.7 311.1,320 311.2,320.5 311.3,320.8 312.2,321.3 312.5,321.4 313.1,321.4
			313.4,321.6 313.4,321.6 319.6,313.1 		"/>
	</g>
	<polygon fill="none" stroke="#999999" stroke-width="0.25" stroke-linecap="round" stroke-linejoin="round" points="578.8,364.7
		577.7,363.8 575.4,362.5 574.2,361.6 573.9,361 573.6,359.3 573.2,358.6 570.9,355.3 570.6,354.7 570.6,354.3 570.6,354
		570.7,353.7 570.8,353.3 570.7,353 570.2,352.5 570.1,352.1 570.1,351.8 570.2,351.5 570.5,350.9 570.2,349 570,348.5 569.5,347.9
		568.9,347.4 568.5,346.8 567.9,345.4 566.9,343.7 566.8,343.1 566.7,341.5 566.6,340.7 565.4,338.8 565.2,338.2 564.9,336.6
		564.3,334.9 564,333.8 563.7,332.6 563.5,332.5 563.2,332.1 563.1,331.6 562.9,331.3 560.9,330 560.5,329.8 559.8,329.7
		558.6,329.7 558.1,329.6 557.8,329.3 557.6,328.2 557.5,328 557.4,327.7 557.4,327.6 557.4,327.5 557.7,327.3 557.8,327.3
		557.7,326.7 557.6,326.2 557.4,325.8 557.2,325.4 555.3,324.1 551.3,323.2 551.2,323.1 551,323 550.8,322.8 550.7,322.3
		550.5,322.2 549.4,321.3 549.1,320.9 548.9,320.8 548.7,320.7 548.5,320.4 548.4,319.8 548.4,318.6 548.2,318 548,317.5
		547.6,317.3 547.1,317.5 546.6,317.6 546,317.2 545.2,316.2 543.9,315.2 543.8,315.1 543.7,315 543.7,312.3 543.5,311.3 543,310.6
		539.4,306.9 538.6,306.4 538.3,306.4 537.7,306.3 537.4,306.2 536,305.2 535.1,303.9 534.7,303.5 534.4,303.3 533.5,303.1
		532.7,302.6 532.4,302.5 530.6,302.7 530,302.5 529.7,302.3 529.3,301.8 529,301.5 528.7,301.4 528.2,301.2 527.9,301 527.5,300.8
		526.7,300.9 525.5,301.1 525.2,301.2 524.5,301.7 524.2,301.7 522.6,301.3 522.1,300.8 521.6,300.3 521.2,299.9 520.9,299.9
		520,299.7 519.2,299.4 519,299.4 518,299.6 517.9,299.6 517.7,299.9 517.3,299.8 516.7,299.5 515.9,299.4 515.7,299.4 515.6,299.2
		515.5,298.9 515.4,298.7 514.9,298.4 514.7,297.9 514,296 514.1,295.7 514.4,295.3 514.6,295 514.7,294.9 514.9,294.7 515,294.1
		515.1,293.8 515.5,293.3 517.1,291.6 517.3,291.4 517.4,291.1 517.5,290.8 517.6,290.7 518.5,290.5 519,290.3 519.3,290
		519.5,289.6 519.6,289.1 519.5,288.9 519.1,288.6 519.1,288.5 519.1,288.1 519.1,287.8 519.2,287.5 519.4,287.2 519.7,287
		520,286.9 520.2,286.8 520.2,286.4 519.8,286.2 519.6,286.1 519.4,285.8 519.2,285.6 519,285.3 518.9,284.9 518.9,284.7
		519.2,284.2 519.2,283.8 519.2,283.7 518.9,283.6 518.9,283.5 518.9,283.3 519,283.1 519.1,283 519.1,282.5 519.1,282.3
		519.2,282.1 519.6,281.9 520,281.8 520.3,281.6 520.2,281.4 520.1,281.3 521,280.6 521.5,280.5 524.6,281.2 524.8,281.1
		525.2,280.8 525.5,280.7 525.7,280.7 526,280.8 528,280.6 528.2,280.4 528.3,280.3 528.1,280.1 528.7,280.1 529.2,280.3
		529.6,280.7 530,280.9 530.6,280.8 531,280.5 531.4,280.4 532,280.5 532.9,281.2 533.4,282.2 534.1,283 535.4,283.1 535.7,283.1
		535.8,283.1 537,282 537.3,281.8 537.8,281.6 538.3,281.5 539.2,281.4 540.8,281.4 541.4,281.2 542,280.9 544.8,278.4 545.4,277.7
		545.7,277.1 546,275.7 544.8,251.9 540,251.9 539.9,251.9 539.8,251.8 539.7,251.7 539.6,251.5 539.4,250.7 539.3,249.4
		539.5,247.2 540.1,244.6 541.9,240.9 542,240.6 542,240.4 542,240.2 541.9,239.6 541.7,239 541.5,238.1 541.9,236.2 541.9,235.6
		541.9,234.9 541.7,234.4 540.4,231.2 540,230.7 527.6,220.6 525.4,217.8 525.1,217.6 524.8,217.5 518.6,215.2 518.3,214.9
		518.3,214.6 518.5,214.2 519.2,212.8 519.3,212.5 519.5,211.9 516.6,190.5 516.6,190.1 516.8,189.8 516.9,189.6 517.2,189.2
		517.6,188.7 517.9,187.9 518,187.6 518.4,183.7 518.4,180.4 520,174.8 520.2,172.4 506.6,172.2 506.5,172.3 506.5,172.5
		506.5,172.6 506.6,172.8 506.6,173.2 506.4,173.9 506.4,174.3 506.4,174.6 506.6,176 507,177 507.1,177.3 507.1,177.7 507,178.4
		488.1,178.5 495.6,186.9 495.7,187.1 495.8,187.5 495.8,187.9 496,190.8 495.6,195.5 495.7,198.5 496.1,200.5 498.1,204.3 498,205
		497.5,205.9 484.1,217.4 483.7,217.9 481.8,222.6 480.1,225.4 479.3,226.2 476.2,230.1 463.9,242.2 461.9,243 455.8,243.4
		452.5,243.5 452.2,243.6 451.6,243.8 451.3,244.1 450.9,244.3 450.5,244.2 450,243.8 442.5,237.1 429,228.5 427.7,229.2
		420.1,232.9 418.5,233.9 417.7,234.6 417.6,238.7 416.3,240.8 413.9,243.1 407.3,244.6 403.9,245.8 400.4,247.7 399.8,248.1
		397.6,249.8 395.8,251.6 395.2,252.7 395.2,253.9 395.3,255 395.6,255.7 372.8,255.5 371.5,253.9 368.6,247.9 368.3,248
		367.8,248.1 365,248.2 361.3,247.7 361.2,247.7 360.6,247.9 360.4,247.9 358.1,247.6 354,247.6 352.7,247.4 345.3,247.6
		334.3,251.3 334,251.3 332.3,251.2 331.6,250.9 330.4,250 319.6,237.4 317.4,236.6 317,236.2 316.7,235.7 315,232.9 314.8,232.7
		314.7,232.6 314.5,232.5 314.4,232.4 313.7,232.2 313.2,232 312.2,231.4 312,231.2 311.8,231 311.7,230.9 311.7,230.7 311.5,226.3
		311.4,226.1 311.4,226 311.2,225.8 310,224.2 309.9,224.1 309.6,224.2 308.3,224.5 307.7,224.8 307.5,224.9 307.2,224.9
		306.1,224.8 305.9,224.9 305.5,225 304.8,225.1 303.9,225.1 303.7,225.1 302.5,225.4 300.4,226.2 300.3,226.2 299.9,226.3
		299.6,226.3 298.5,226.3 298.1,226.3 297.8,226.4 297.4,226.5 297.1,226.7 296.8,226.8 296.5,226.8 296.3,226.8 296,226.8
		295.8,226.9 295.3,227.1 295.1,227.2 295,227.2 294.7,227.1 294.5,227.1 294.2,227.2 294.1,227.3 293.9,227.3 293.7,227.2
		293.6,227.2 293.3,227.1 293.1,227 292.8,226.9 292.6,227 292.4,227 292.1,227.1 291.9,227.1 291.6,227.1 291.4,227.1 290.7,227.4
		290.4,227.4 289.7,227.4 289.4,227.4 289,227.6 288.5,227.7 288.3,227.8 288.1,228 287.9,228.3 286.4,231.4 286.4,231.7 286.3,232
		286.4,232.3 286.4,232.4 286.7,233 286.8,233.3 286.8,233.4 286.8,233.6 286.7,233.8 286.4,234.6 285.7,236.2 285.5,236.7
		285.3,237.2 285,237.5 284.6,237.9 283.9,239 283.5,239.4 282.5,240 281.5,240.8 281.3,240.9 281,241.1 280.7,241.1 280.4,241.1
		280.3,241.2 280.2,241.3 280.1,241.5 280,242.1 280.1,249.7 280,250 279.8,250.7 278.1,252.7 277.2,253.4 277,253.8 276.8,254.3
		276.3,259.8 276.2,259.9 276.1,260.2 273.5,264.6 273.4,265 273.3,265.2 273.3,268.2 273.2,268.4 272.9,268.6 271.5,269.1
		268.9,269.3 268.3,269.5 265.1,271.4 264.3,271.8 262.6,273.1 262.5,273.3 262.4,273.7 262.3,273.9 262.6,273.9 263.6,273.8
		264.1,274.1 264.1,274.5 263.5,275.3 263.4,275.7 263.6,276.1 264.4,276.7 264.6,277.1 264.4,277.3 263.2,278.1 262.9,278.4
		261.3,281.1 261,282.1 260.9,283 261.2,283.8 261.8,284.6 262.5,285.1 263.3,285.6 263.8,285.7 264.7,286 265.4,286 265.8,286
		266,286.1 266.3,286.2 266.7,286.5 266.9,286.6 268.7,286 269.7,285.9 270.4,286.5 270.5,286.8 270.7,287 270.9,287.1 271.1,287.2
		272,287.7 272.9,287.8 274.9,287.4 276.6,287.7 277.1,287.7 277.7,287.8 278.6,288.3 280.2,288.5 281.2,288.9 283.6,291.2
		283.9,291.6 283.9,292.6 284.5,293.3 284.6,293.8 284.7,294 284.9,294.2 285.2,294.3 285.4,294.5 286.8,296 287.6,296.6 288.5,297
		288.9,296.9 289.8,296.7 290.2,296.7 290.9,296.9 291.1,297 291.2,297.2 291.4,297.3 292.1,297.6 292.5,297.9 292.8,298.4
		293.1,299.3 293.5,300 293.6,300.5 293.7,300.9 293.6,302.2 293.7,302.6 293.8,303 293.9,303.4 293.8,303.9 293.1,304.5
		291.3,305.1 290.7,305.7 290.6,306 290.8,306.5 291.4,307.9 293.1,308.8 293.5,309.1 293.6,309.3 293.9,309.7 294.1,309.9
		294.3,310.1 294.8,310.2 295,310.3 295.2,310.8 295.4,311.6 295.5,312 295.8,312.4 296.2,312.7 297.8,313.5 298.9,314.3
		299.7,314.6 300.2,314.5 300.7,314.5 301.1,314.8 302.4,316 302.8,316.2 304.6,316.7 305.1,316.9 305.8,317.4 306.1,317.5
		306.6,317.5 306.9,317.6 307.4,318.1 307.7,318.2 308.4,318.2 308.5,318.4 308.5,318.8 308.8,319.3 309.2,319.4 310.5,319.5
		311,319.7 311.1,320 311.2,320.5 311.3,320.8 312.2,321.3 312.5,321.4 313.1,321.4 313.4,321.6 313.5,321.8 313.5,322 313.6,322.2
		313.9,322.2 315.2,322.4 315.4,323 315.5,324.5 315.8,325.1 315.9,325.2 316.1,325.2 316.3,325.1 316.5,325.1 316.6,325.3
		316.6,325.4 316.5,325.6 316.5,325.8 316.6,326.1 316.7,326.5 316.8,326.8 317.1,327.1 317.7,327.5 318.2,327.6 318.7,327.8
		319.6,328.9 320.7,329.8 321.2,330.3 322.2,330.8 323.9,331.4 325.3,332.2 325.3,333.1 325.1,333.4 324.6,334.3 324.2,334.9
		323.7,335.5 323.2,336.6 322.9,336.8 322.7,337 322.4,337.2 322.2,337.5 322.7,337.7 322.8,338.1 322.6,338.7 322.6,339.2
		322.7,339.7 323.1,340 323.5,340.2 324,340.5 324.5,341 325.2,341.9 325.6,342.1 325.7,342.2 326.9,342.5 327.4,342.8 327.5,343.5
		327.5,344.2 327.8,344.4 328.2,344.4 328.6,344.5 329,344.9 329,345.5 328.9,345.7 328.8,346 328.3,346.4 328,346.5 327.8,346.7
		327.2,347.1 326.7,347.6 326.5,348.1 326.6,348.4 326.6,348.7 327.1,348.6 328.2,347.8 328.7,348 329,348.4 329.3,349 329.5,349.6
		330,349.9 331.7,350.5 332.6,350.6 334.6,350.5 336.6,351.3 337.2,351.6 337.5,352 337.6,353.3 337.9,353.8 338.5,354.1 339.2,354
		339.7,353.9 340,353.9 340.3,354.6 340.6,355.1 341.2,355.1 342.5,354.8 342.8,355.1 343.1,355.9 343.6,356.4 343.9,356.8
		344,356.9 344.3,356.9 344.8,356.8 345.1,356.7 346.3,357.2 346.6,357.4 346.8,357.9 346.8,358.2 346.9,358.4 347.5,358.6
		347.9,358.8 348.2,359.1 348.5,359.6 348.6,360 348.6,360.3 348.6,360.4 348.8,360.6 349.3,360.9 349.3,361.1 349.2,361.2
		349.2,361.7 349,362.1 349.1,362.3 349.2,362.6 349.4,362.6 349.5,362.6 349.6,362.6 349.7,362.5 349.9,362.4 350.1,362.4
		350.4,362.6 350.5,362.8 350.4,363.3 350.5,363.6 349.3,366.7 349.2,367.2 349.3,367.5 349.5,368.2 349.7,369.6 349.8,370.1
		350.6,371.9 351,372.7 351.6,373.4 353.3,374.5 354,375.2 354.5,376.3 354.9,376.6 355.3,376.9 355.6,377.3 355.7,377.6
		355.5,378.9 355.6,379.1 355.8,379.2 356,379.3 356.2,379.4 357.1,380 357.3,380.3 357.4,380.6 357.6,381.2 357.7,381.5
		358.2,381.9 358.6,382 358.8,382.1 361.3,382.4 361.8,382.7 362.2,383.4 362.4,384.6 362.6,385 363,385.3 363.2,385.3 363.7,385.2
		364,385.2 364.3,385.3 364.5,385.6 364.7,385.9 364.8,386.2 364.9,386.8 364.7,388.5 364.7,389.6 364.9,390.3 365.1,390.8
		365.2,390.8 365.6,390.9 365.9,390.9 366.1,391 366.4,391.2 366.9,391.8 367.3,392 367.5,392 368.3,391.9 368.5,391.9 368.9,392.1
		369.1,392.1 369.2,392 369.2,391.8 369.2,391.8 369.2,391.7 369.3,391.6 369.5,391.5 369.7,391.6 370,391.9 370.2,391.9
		370.5,391.9 372,392.1 372.1,392.4 371.9,392.9 371.8,393.5 371.8,393.8 371.9,394.1 372,394.3 372.1,394.6 373,395.8 373.3,395.8
		373.7,395.3 374,395.1 374.2,395.1 374.5,395.1 374.6,395.4 374.8,395.9 375.6,396.9 376.1,397.5 376.6,397.8 377.8,398 379,397.8
		380.2,397.7 381.2,398.4 381.4,399 381.5,399.4 381.8,399.7 382.4,399.9 383.1,399.8 383.7,399.4 384.2,398.9 385.3,397.5
		385.7,397.2 386.4,397.1 386.6,397.1 386.9,397.1 387.2,397.2 387.5,397.1 387.7,396.8 387.7,396.5 387.8,396.2 388.2,396
		389.4,395.7 389.8,395.4 390.2,394.8 391.4,392.6 391.7,392.5 392.2,392.5 392.6,392.3 392.9,392.1 393.1,392 393.3,392
		393.5,392.1 393.9,392.6 394,393.3 394.1,393.8 394.8,394.1 395.1,394.1 396,394 397.3,394.1 398,394 399.7,393.6 399.8,393.7
		399.9,393.9 401.3,394.8 401.6,394.9 401.7,395.3 401.8,395.3 402.9,395.8 403.2,396 405.1,397.8 405.7,398.1 406.4,398
		406.6,397.6 406.7,397 407,396.7 407.7,396.7 408.3,396.8 408.8,396.7 409.2,396 409.5,395.3 409.8,394.9 411.2,393.7 411.6,393.2
		411.8,392.6 412,391.9 412.2,391.6 412.7,391.1 412.8,390.8 412.8,390.5 412.9,390 412.9,389 413.2,388.7 413.6,388.6 414.2,388.7
		414.3,388.8 414.6,389.1 414.7,389.2 415.2,388.9 415.4,388.9 415.6,389 415.7,389 416.6,389.4 417.4,389.4 417.8,389.5 418.9,390
		419.3,390.3 420.1,391 420.5,391.2 420.7,391.3 421.4,391.1 421.6,391.2 422.2,391.6 422.5,391.7 422.8,391.9 422.7,392.2
		422.5,392.5 422.3,392.8 422.3,393.1 422.5,393.5 422.6,393.8 422.5,394.1 422.3,394.9 422.3,396.2 422.6,397.2 423.4,397.9
		424.7,397.8 425.3,397.9 426,398.4 426.6,398.9 426.9,399.5 426.8,399.8 426.6,400.1 426.4,400.4 426.5,400.7 426.7,401 427,401.1
		427.3,401.1 427.7,401.1 428.3,401.5 428.8,402 429.4,403.3 429.9,403.9 430.3,404.2 431.5,404.4 432.1,404.8 432.4,405.4
		432.6,406 432.8,406.7 433.5,407.5 433.7,407.8 433.8,408.1 433.8,408.4 433.8,408.7 434,409 434.5,409.1 436.4,409.2 438.3,409.8
		439.4,410.5 440.6,411.1 441.7,411.5 441.9,411.5 442.5,411.5 442.8,411.5 443.1,411.4 443.4,411.4 443.6,411.5 443.8,411.8
		444,412.2 444.7,416.4 444.7,416.9 444.5,418 444.3,418.4 444.2,418.6 444.1,418.7 444.4,419 444.7,419 445,419 445.5,419
		445.9,418.9 446.8,418.4 447.3,418.2 447.6,418.2 448.4,418.2 449,417.8 449.5,417.3 450,416.9 450.5,417.3 450.5,417.5
		450.6,417.6 450.7,418.6 450.9,419 451.2,419.3 452.1,419.6 452.5,420.1 452.3,421.6 452.6,422.2 452.7,421.8 453.3,420.5
		455.2,417.8 455.4,417.5 455.4,417.1 455.6,416.8 455.9,416.5 456.2,416.4 456.8,416.5 457.1,416.4 457.4,416.2 458.3,415.5
		458.6,415.4 459.1,415.3 459.4,415.2 461.2,413.8 462,413.6 463.3,413.6 464.5,413.8 465.6,414.1 468,415.4 471.6,417.4
		472.1,417.5 472.5,417.2 472.8,416.8 473.3,416.5 476.3,416.1 476.8,415.9 477,415.6 479.3,413.1 479.4,412.9 479.5,412.9
		480.2,413.3 480.9,413.9 482.9,416.1 483.3,416.8 483.4,417.3 483.5,418.6 483.7,419.1 484.1,419.3 486.6,419.5 486.9,419.7
		487.5,420.5 487.9,421 488.4,421.2 490.2,421.6 490.5,421.6 490.7,421.3 490.8,420.7 490.8,420.3 490.7,419.3 490.7,418.9
		491.1,418.5 496.3,415.4 497.6,415.1 502.8,414.6 507.3,414.3 509.7,413.6 511.9,412.4 513.7,411.1 514.2,411 514.8,411.2
		518.4,414.1 519,414.5 519.8,414.6 522.4,414.7 527,415 528.3,414.8 529.5,414.1 531.6,412 534.3,409.3 537.5,406.1 539.8,403.8
		542.1,401.5 545,398.6 547.9,395.8 550.8,392.9 553.7,390.1 555.3,388.5 556.8,387 558.4,385.4 560,383.9 561.6,382.3 563.2,380.8
		564.8,379.2 566.3,377.7 567.9,376.1 569.5,374.6 571.1,373 572.7,371.5 574.3,369.9 575.9,368.4 577.4,366.8 579,365.3 	"/>
</g>

</svg>
