<?xml version="1.0" encoding="utf-8"?>

<svg version="1.2" baseProfile="tiny" xmlns="http://www.w3.org/2000/svg" xmlns:xlink="http://www.w3.org/1999/xlink" x="0px"
	 y="0px" viewBox="355.5 190.7 128.6 213.7" xml:space="preserve">

<g id="São_Tomé_and_Príncipe">
	<g>
		<polygon fill="#12AD2B" points="391.9,364 389.4,360.5 386.4,357.3 383.6,355.4 378.5,355 374.3,357.6 370.4,361 365.7,362.5
			364.7,363.1 360.2,367.6 359.8,368.4 359.6,369.1 359.1,370.3 356.6,373.3 356.2,374.2 356.2,376.9 356,378 355.5,379.1
			356.2,380.5 360.8,395 361.1,395.4 361.7,395.8 362.3,396.3 362.6,397.6 362.6,398.6 361.9,400.9 361.7,401.1 362.5,403.3
			363.8,404.4 365.1,404.1 366,401.8 367.7,403.9 369.1,402.2 370.4,397.6 375.3,397.6 375.5,396.9 377.6,394.6 378.5,394.2
			379.8,394.1 380.8,393.5 379.8,391.2 380.6,390.7 381.7,390.5 382.5,390.1 386.1,384.1 387.8,382.2 391,379.1 392.1,377.6
			393.2,375.2 393.8,372.9 393.8,370.8 393.2,367.4 		"/>
		<polygon fill="#12AD2B" points="481.8,195.1 483.3,194.5 484,193.9 483.7,192.2 482.3,191.7 478.8,191.3 476.5,190.7 474.2,191.7
			472.5,193.6 471.8,196 471.8,198.1 471.4,199.6 470.3,200.7 468.2,201.7 467,201.5 467,203.8 467.4,207.7 468.9,208.5
			470.8,208.7 472.5,209.2 473.7,211.3 474.6,210.7 475.4,210.4 475.5,210.7 475.9,211.7 476.3,212.2 476.5,210.9 476.5,209.8
			476.9,209 478.4,208.9 479.3,208.3 479.9,207 480.5,204.5 480.3,201.7 480.8,200.4 482.7,200 483.8,199.6 483.1,198.5
			481.4,197.5 479.5,197.1 480.3,195.8 		"/>
	</g>
	<path fill="none" stroke="#999999" stroke-width="0.25" stroke-linecap="round" stroke-linejoin="round" d="M391.9,364l-2.5-3.6
		l-3-3.2l-2.8-1.9l-5.1-0.4l-4.2,2.7l-4,3.4l-4.7,1.5l-1,0.6l-4.5,4.5l-0.4,0.8l-0.2,0.7l-0.6,1.1l-2.5,3l-0.4,1v2.6L356,378
		l-0.6,1.1l0.7,1.3l4.5,14.5l0.4,0.4l0.6,0.4l0.6,0.6l0.4,1.3v1l-0.7,2.3l-0.2,0.2l0.7,2.3l1.3,1.1l1.3-0.4l0.9-2.3l1.7,2.1l1.3-1.7
		l1.3-4.5h4.9l0.2-0.8l2.1-2.3l0.9-0.4l1.3-0.2l0.9-0.6l-0.9-2.3l0.8-0.6l1.1-0.2l0.7-0.4l3.6-6l1.7-1.9l3.2-3l1.1-1.5l1.1-2.5
		l0.6-2.3v-2.1l-0.6-3.4L391.9,364z M481.4,197.5l-1.9-0.4l0.8-1.3l1.5-0.7l1.5-0.6l0.8-0.6l-0.4-1.7l-1.3-0.6l-3.6-0.4l-2.3-0.6
		l-2.3,0.9l-1.7,1.9l-0.8,2.5v2.1l-0.4,1.5l-1.1,1.1l-2.1,0.9l-1.1-0.2v2.3l0.4,4l1.5,0.8l1.9,0.2l1.7,0.6l1.1,2.1l1-0.6l0.8-0.4
		l0.2,0.4l0.4,0.9l0.4,0.6l0.2-1.3v-1.1l0.4-0.8l1.5-0.2l0.9-0.6l0.6-1.3l0.6-2.5l-0.2-2.8l0.6-1.3l1.9-0.4l1.1-0.4l-0.7-1.1
		L481.4,197.5z"/>
</g>

</svg>
