<?xml version="1.0" encoding="utf-8"?>

<svg version="1.2" baseProfile="tiny" xmlns="http://www.w3.org/2000/svg" xmlns:xlink="http://www.w3.org/1999/xlink" x="0px"
	 y="0px" viewBox="270 224.5 300 145" xml:space="preserve">

<g id="Sint_Maarten">
	<g>
		<polygon fill="#012A87" points="551.4,338.8 554.4,342 556.3,342 559.3,338.8 552.2,337.7 		"/>
		<polygon fill="#012A87" points="372.8,319.4 376.4,324 403.5,325.1 407.7,337.8 449.8,337.8 457.7,352.7 463.8,327.3 490.1,327.3
			491.1,368.4 506.1,369.5 553.2,307.2 548.5,297 402.7,297 		"/>
		<polygon fill="#DC171D" points="567.1,250.9 566.3,251.3 565.2,252.8 564.5,253.8 563.2,253.9 561.6,253.7 557.7,248.4
			556.1,246.1 556.4,245.3 556.9,244.2 557,244.1 552.7,243.5 545.8,241.2 536.3,248 533.2,249 529.9,248.2 513.8,240.6 505.9,246
			496.1,238.7 493.4,234.9 485,227.8 472.5,224.5 467.6,227.2 459.1,227.3 451.5,225.5 448.7,225.2 446.6,230.4 446.4,232
			443.8,236.3 441.7,240.6 439,242.3 427.7,243.8 422.6,248.1 420.4,254.4 419.3,258.6 417,261.7 413.1,263 410.4,264.7
			402.4,265.2 389.6,269.2 374.1,269.9 369.9,269 365.3,266.9 357.9,263.4 402.7,297 548.5,297 546.5,292.8 545.3,290.2 557,276.8
			558.7,276.1 561.3,275.5 563,274.5 565,271.8 564.9,269.2 564.3,268.3 564.2,268.1 563.5,267.9 562.7,266.4 562.8,262.9
			563,261.2 563.1,260.3 563.8,258.4 564.3,256.8 565.3,255.7 566,255.8 568.6,252.4 569.9,251.6 570,250.6 568.9,250.3 		"/>
		<path fill="#FFFFFF" d="M357.9,263.4L331.7,251l-50.1-1.6l-4.7,0.2l-5.6,2.5l-1.3,1.2l0.2,1.4l25.9,14.4l0.5,0.7
			c0.6,0,1.1,0,1.7,0l0.3,0c0.4-0.1,0.8-0.1,1.2-0.1c0.2-0.5,0.4-1.5-0.3-2.5l0-0.1l0.1,0c0,0,1.9-1,1.6-2.6c-0.2,0-0.3-0.1-0.4-0.1
			c0,0-5.1,1.1-4.8,0.2l0,0c0.3-0.7,2.1-2.1,6.9-2.8c0,0,0-0.1,0-0.1l0-0.1l0.1,0c0,0,2-0.2,2.2-1.9l0-0.1l0.1,0c0,0,2,0.3,2.9-1.4
			l0,0l0,0c0,0,2,0.4,2.5-1l0-0.1l0.1,0c0,0,2,0.7,3.1-1l0,0l0,0c0,0,2,0.8,2.9-0.7l0.1-0.1l0.1,0.1c0.8,1.5,2.9,0.7,2.9,0.7l0,0
			l0,0c1.1,1.6,3.1,1,3.1,1l0.1,0l0,0.1c0.5,1.4,2.5,1,2.5,1l0,0l0,0c0.9,1.7,2.9,1.4,2.9,1.4l0.1,0l0,0.1c0.1,0.7,0.5,1.2,1.2,1.6
			c0.5,0.3,1,0.3,1,0.3l0.1,0l0,0.1c0,0.2,0,0.4,0,0.6c3.1,0,6.3,0.6,9.6,3c0.8,0.6-1.9,0.6-4-0.2c0,0-1.8,0.1-3.8,0.1
			c0.2,1.2,1.6,2,1.6,2l0.1,0l0,0.1c-0.8,1.2-0.4,2.2-0.2,2.6c1.8,0.1,3.9,0.2,5.7,0c2.3-0.6,4.6-1.1,6.7-2.2
			c-1,6-2.5,12.3-2.9,18.6l11.8-1l19.1,17.9l-6.1,10.6l4.5,5.9l29.8-22.4L357.9,263.4z"/>
		<path fill="#F9D90F" d="M328.4,259.7c-0.4,0-2.1,0.1-3-1.4c-0.3,0-2,0.3-2.6-1c-0.3,0.1-2.1,0.5-3.1-1c-0.3,0.1-2.1,0.7-2.9-0.7
			c-0.8,1.4-2.6,0.8-2.9,0.7c-1.1,1.5-2.8,1.1-3.1,1c-0.5,1.3-2.3,1.1-2.6,1c-0.8,1.5-2.6,1.4-3,1.4c-0.2,1.6-1.9,1.9-2.3,1.9
			c0,0,0,0,0,0c2.7-0.3,6.3-0.4,11.2,0c0,0,2.3,1.4,3.7,1.2c0.8-0.1-0.5,0-1.5-0.8c-1-0.8-1.2-2.6,1.1-2.5
			c2.3,0.1,11.1,0.6,11.2,1.3c0.2,0.8-4.6,1.1-6.4,1.1c-1.8,0-1.6,0.9,0.2,0.8c2.7-0.1,5.4-0.6,8.3-0.6c0-0.2,0-0.4,0-0.6
			C330.4,261.5,328.7,261.2,328.4,259.7z"/>
		<path fill="#F9D90F" d="M334.1,267c-0.3-0.2-1.4-0.9-1.6-2.1c-1.5,0-3.1,0-4.1-0.2c0,0-1.9,1.5-4.3,1.4c0.3,0.8-0.9,3.7-8.6,1.5
			c-1.3,0.4-5.9,1.2-5.4-0.2c-1.2,0-3.3,0.4-3.7-0.3c-0.3-0.7,3.8-1.7,4.5-2.4c0,0-7.3,0.1-9.7-0.4c0.2,1.5-1.3,2.5-1.6,2.7
			c0.7,1,0.5,2,0.3,2.5c1.8-0.2,3.7-0.3,5.4-0.6c3.8-0.4,8.3-0.5,11.5,1.4c4.8-2.7,11-1.4,16.4-0.9h0l0.7,0.2
			C333.7,269.2,333.4,268.2,334.1,267z"/>
		<path d="M299.9,269.5c0.2-0.5,0.4-1.5-0.3-2.5c0.3-0.2,1.9-1.2,1.6-2.7c0,0-0.1,0-0.1,0c0.3,1.6-1.6,2.6-1.6,2.6l-0.1,0l0,0.1
			c0.7,1,0.5,2,0.3,2.5C299.8,269.5,299.8,269.5,299.9,269.5z"/>
		<path d="M302.9,261.6C302.9,261.6,302.9,261.6,302.9,261.6c0.3-0.1,2-0.4,2.3-1.9c0.4,0,2.1,0.1,3-1.4c0.3,0,2,0.3,2.6-1
			c0.3,0.1,2.1,0.5,3.1-1c0.3,0.1,2.1,0.7,2.9-0.7c0.8,1.4,2.6,0.8,2.9,0.7c1.1,1.5,2.8,1.1,3.1,1c0.6,1.3,2.3,1.1,2.6,1
			c0.8,1.5,2.6,1.4,3,1.4c0.2,1.6,1.9,1.9,2.3,1.9c0,0.2,0,0.4,0,0.6c0,0,0.1,0,0.1,0c0-0.2,0-0.4,0-0.6l0-0.1l-0.1,0
			c0,0-0.5,0-1-0.3c-0.7-0.3-1.1-0.9-1.2-1.6l0-0.1l-0.1,0c0,0-2,0.3-2.9-1.4l0,0l0,0c0,0-2,0.4-2.5-1l0-0.1l-0.1,0
			c0,0-1.9,0.6-3.1-1l0,0l0,0c0,0-2,0.8-2.9-0.7l-0.1-0.1l-0.1,0.1c-0.8,1.5-2.8,0.7-2.9,0.7l0,0l0,0c-1.1,1.6-3.1,1-3.1,1l-0.1,0
			l0,0.1c-0.5,1.4-2.5,1-2.5,1l0,0l0,0c-0.9,1.7-2.9,1.4-2.9,1.4l-0.1,0l0,0.1c-0.2,1.7-2.2,1.9-2.2,1.9l-0.1,0l0,0.1
			c0,0,0,0.1,0,0.1C302.8,261.6,302.9,261.6,302.9,261.6z"/>
		<path d="M332.5,265c0.2,1.1,1.4,1.9,1.6,2.1c-0.7,1.1-0.4,2.2-0.2,2.6l0.1,0c0,0,0,0,0.1,0c-0.2-0.4-0.6-1.5,0.2-2.6l0-0.1l-0.1,0
			c0,0-1.4-0.8-1.6-2C332.6,265,332.5,265,332.5,265z"/>
		<path fill="#DC171D" d="M339.7,269.7c-1.8,0.2-3.8,0.1-5.7,0c0,0,0,0-0.1,0l-0.1,0l-0.7-0.2h0c-5.4-0.5-11.6-1.8-16.4,0.9
			c-3.2-1.9-7.7-1.8-11.5-1.4c-1.7,0.3-3.6,0.4-5.4,0.6c0,0-0.1,0-0.1,0c-0.4,0-0.8,0.1-1.2,0.1l-0.3,0c-0.6,0-1.1,0-1.7,0l2.9,4.4
			c2.1,0.1,4.2-0.1,6.3-0.5c3.6-0.5,7.8-0.5,11.2,1c1.9-0.8,4-1.2,6.1-1.4c3.8,0.4,7.9,1.1,11.9,1c2.6-0.1,5-0.9,7.3-1.9
			c-0.7,4.6-1.7,9.2-2.1,13.9l3.6-0.3c0.4-6.3,1.9-12.6,2.9-18.6C344.3,268.6,342,269.1,339.7,269.7z"/>
		<path fill="#62AFE1" d="M334.8,274.3c-3.9,0-8-0.7-11.9-1c-2,0.2-4.2,0.6-6.1,1.4c-3.4-1.5-7.6-1.5-11.2-1
			c-2.1,0.4-4.2,0.6-6.3,0.5l1.7,2.6c0.2,0,0.4-0.1,0.7-0.3c0.4-0.1,0.5,0.4,0.8,0.5c0.2,0.9,0.9-0.2,1.4-0.1
			c1.1-0.5,2.5-0.6,3.8-0.4c0,0.8-0.6,1.8-1.5,2.3c0,0.9,0.8,1.4,0.8,2.3c-0.1,0.3,0,0.8-0.5,0.9c-0.6-0.1-1.2-0.2-1.7-0.5
			c-0.1-0.1-0.1-0.2-0.2-0.1c-0.1,0.3,0.4,0.6,0.6,0.9c-0.1,0.2-0.3,0.3-0.5,0.2l2.9,4.5l3.8-2.4l0-3.8h-1.8l7.1-5.1l7.2,5.1h-1.8
			l0,3.8l7.4,4.8l1.7-2.1l8.7-0.8c0.4-4.7,1.4-9.3,2.1-13.9C339.8,273.4,337.4,274.2,334.8,274.3z M327.4,285.7l0.3-0.4
			c1-1.3,3.1-2.6,4.2-3c0-1.4,0.1-6.1,1.2-7.2c0.2-0.2,0.4-0.2,0.6-0.2l0,0c0,0,0,0,0,0c0.2,0,0.4,0.1,0.5,0.2
			c1.1,1.1,1.2,6,1.2,7.2c1.1,0.4,3.2,1.7,4.2,3l0.3,0.4L327.4,285.7z"/>
		<polygon fill="#FFFFFF" points="319,294.8 319.3,294.8 319.3,294.5 321.8,294.5 321.8,297.5 322.6,297.5 322.5,293.8 318.2,293.8
			318.2,297.5 319,297.5 		"/>
		<polygon fill="#FFFFFF" points="312.4,286.2 308.9,288.8 310.7,291.5 327.6,291.5 327.9,291.1 321.2,286.2 		"/>
		<polygon fill="#FFFFFF" points="311.8,293.2 316.3,293.2 316.3,297.5 317.7,297.5 317.7,293.2 323.1,293.2 323.1,296.9
			325.9,293.5 325.9,293.2 326.1,293.2 327.1,292 311,292 		"/>
		<polygon fill="#FFFFFF" points="315,297.5 315.7,297.5 315.7,293.8 312.2,293.8 312.6,294.5 314.9,294.5 		"/>
		<polygon fill="#FFFFFF" points="314.4,295.1 313,295.1 314.4,297.3 		"/>
		<polygon fill="#FFFFFF" points="316.7,277.1 316.9,276.9 321.6,280.2 321.6,280.1 322.2,280.1 316.7,276.1 311.3,280.1
			311.9,280.1 311.9,280.2 316.6,276.9 		"/>
		<path fill="#FFFFFF" d="M321.6,280.3l-9.6,0l0,4.4l-4,2.6l0.7,1l3.6-2.7l9.1,0l6.9,5l0.9-1.1l-7.6-4.9L321.6,280.3z M320.8,284.9
			l-8.1,0l0-4.1h0l0,0l8.1,0L320.8,284.9L320.8,284.9L320.8,284.9z"/>
		<path fill="#FFFFFF" d="M320.3,284.4l0-3l-7,0l0,3L320.3,284.4z M318.8,281.7l0,2.3h-4l0-2.3H318.8z"/>
		<polygon fill="#FFFFFF" points="313.4,279.8 320.1,279.8 316.7,277.4 		"/>
		<polygon fill="#FFFFFF" points="318.2,283.5 318.2,282.3 315.3,282.3 315.3,283.5 		"/>
		<polygon fill="#FFFFFF" points="321.2,295.1 319.5,295.1 319.5,297.5 321.2,297.5 		"/>
		<polygon points="322.1,280.6 323.9,280.6 316.7,275.5 309.6,280.6 311.4,280.6 311.4,284.4 307.7,286.9 308,287.3 312,284.7
			311.9,280.3 311.7,280.3 311.7,280.3 311.7,280.3 311.7,280.3 311.7,280.3 311.7,280.3 311.7,280.3 311.7,280.3 311.7,280.3
			311.9,280.2 311.9,280.1 311.3,280.1 316.7,276.1 322.2,280.1 321.6,280.1 321.6,280.2 321.8,280.3 321.8,280.3 321.8,280.3
			321.8,280.3 321.8,280.3 321.8,280.3 321.8,280.3 321.8,280.3 321.8,280.3 321.6,280.3 321.6,284.7 329.1,289.6 329.5,289.2
			322.1,284.4 		"/>
		<polygon points="314.9,294.5 312.6,294.5 313,295.1 314.4,295.1 314.4,297.3 314.6,297.5 315,297.5 		"/>
		<polygon points="321.8,294.5 319.3,294.5 319.3,294.8 319,294.8 319,297.5 319.5,297.5 319.5,295.1 321.2,295.1 321.2,297.5
			321.8,297.5 		"/>
		<polygon points="315.7,297.5 316.3,297.5 316.3,293.2 311.8,293.2 312.2,293.8 315.7,293.8 		"/>
		<polygon points="325.9,293.5 326.1,293.2 325.9,293.2 		"/>
		<polygon points="317.7,293.2 317.7,297.5 318.2,297.5 318.2,293.8 322.5,293.8 322.6,297.5 322.6,297.5 323.1,296.9 323.1,293.2
					"/>
		<path fill="#FFFFFF" d="M315.5,298.9l0.1,0.1C315.5,298.9,315.5,298.9,315.5,298.9L315.5,298.9z"/>
		<polygon fill="#FFFFFF" points="318,300.3 318.1,300.3 318.1,300.2 		"/>
		<polygon fill="#FFFFFF" points="315.5,298.5 315.5,298.4 315.4,298.4 		"/>
		<polygon fill="#FFFFFF" points="318.1,302.9 318.8,302 317.5,302 		"/>
		<polygon fill="#FFFFFF" points="318.1,298.4 318,298.4 318.1,298.5 		"/>
		<path fill="#FFFFFF" d="M318.1,298.9L318.1,298.9c-0.3,0.4-0.1,0.9,0,1.1l0,0C318.4,299.4,318.1,298.9,318.1,298.9z"/>
		<path fill="#FFFFFF" d="M321.7,298l-0.5,0l-0.4,0.7c0.1,0.2,0.2,0.4,0.2,0.7l0.9-1L321.7,298z"/>
		<polygon fill="#FFFFFF" points="320.3,298.4 320.4,298.5 320.4,298.4 		"/>
		<path fill="#FFFFFF" d="M320.4,298.9L320.4,298.9c-0.4,0.4-0.1,0.9,0,1.1l0,0C320.7,299.4,320.4,299,320.4,298.9z"/>
		<path fill="#FFFFFF" d="M319.8,300.1c-0.1-0.3-0.3-0.9,0-1.4l-0.2-0.4l0.2-0.1V298l-0.9,0l-0.4,0.7c0.2,0.3,0.3,0.8,0,1.4l0.4,0.8
			h-1.9l0.4-0.8c-0.1-0.3-0.3-0.9,0-1.4l-0.2-0.4l0.2-0.1V298l-1.2,0l-0.4,0.7c0.1,0.3,0.2,0.7,0.1,1.1l1.1,1.7l2.1,0l0.5-0.6h-0.4
			L319.8,300.1z"/>
		<polygon points="321.8,297.5 321.2,297.5 319.5,297.5 319,297.5 318.2,297.5 317.7,297.5 316.3,297.5 315.7,297.5 315,297.5
			314.6,297.5 314.8,297.9 316.4,297.9 316.4,298 317.5,298 317.5,297.9 319,297.9 319,298 319.8,298 319.8,297.9 321.3,297.9
			321.3,298 321.7,298 321.7,297.9 322.3,297.9 322.6,297.5 322.6,297.5 		"/>
		<polygon points="311,292 327.1,292 327.6,291.5 310.7,291.5 		"/>
		<polygon points="320.3,284.4 320.3,284.4 313.3,284.4 313.3,281.4 313.3,281.4 313.3,284.4 		"/>
		<polygon points="312.2,285.7 308.6,288.3 308.9,288.8 312.4,286.2 321.2,286.2 327.9,291.1 328.2,290.7 321.3,285.7 		"/>
		<polygon points="320.8,280.9 312.7,280.9 312.7,280.9 320.8,280.9 320.8,284.9 320.8,284.9 		"/>
		<polygon points="317.5,302 318.8,302 319.3,301.5 317.2,301.5 		"/>
		<path d="M312.7,280.9L312.7,280.9l0,4.1l8.1,0l0,0l0-4.1L312.7,280.9z M313.3,281.4l7,0l0,3l0,0l-7,0L313.3,281.4L313.3,281.4z"/>
		<path d="M318.8,284l0-2.3h-4l0,2.3H318.8z M318.2,282.3l0,1.2h-2.9l0-1.2H318.2z"/>
		<path d="M321.8,280.3L321.8,280.3L321.8,280.3L321.8,280.3L321.8,280.3L321.8,280.3L321.8,280.3L321.8,280.3L321.8,280.3l-0.2-0.1
			l-4.7-3.3l-0.2,0.2l-0.2-0.2l-4.6,3.3l-0.2,0.1h0l0,0h0l0,0h0l0,0h0l0,0l0.2,0l9.6,0L321.8,280.3z M313.4,279.8l3.3-2.3l3.3,2.4
			L313.4,279.8z"/>
		<path fill="#FFFFFF" d="M338.8,285.1c-1.1-1.1-2.9-2.2-3.8-2.5l-0.2-0.1l0-0.2c0-3-0.4-6.3-1.1-7c-0.1-0.1-0.2-0.1-0.2-0.1l0-0.3
			l0,0.2c0,0-0.1,0-0.2,0.1c-0.7,0.7-1,4.1-1,7v0.2l-0.2,0.1c-0.8,0.2-2.7,1.4-3.7,2.5L338.8,285.1z"/>
		<path d="M339.6,285.3c-1-1.3-3.1-2.6-4.2-3c0-1.2-0.1-6.1-1.2-7.2c-0.2-0.2-0.3-0.2-0.5-0.2c0,0,0,0,0,0l0,0c-0.1,0-0.4,0-0.6,0.2
			c-1.1,1-1.2,5.8-1.2,7.2c-1.1,0.4-3.2,1.7-4.2,3l-0.3,0.4l12.6,0L339.6,285.3z M332.5,282.6v-0.2c0-2.9,0.3-6.3,1-7
			c0.1-0.1,0.1-0.1,0.2-0.1l0-0.2l0,0.3c0,0,0.1,0,0.2,0.1c0.7,0.7,1.1,4,1.1,7l0,0.2l0.2,0.1c0.8,0.2,2.7,1.3,3.8,2.5l-10.3,0
			c1.1-1.1,2.9-2.2,3.7-2.5L332.5,282.6z"/>
		<path d="M317.3,298.3l0.2,0.4c-0.3,0.5-0.1,1.1,0,1.4l-0.4,0.8h1.9l-0.4-0.8c0.3-0.5,0.2-1.1,0-1.4l0.4-0.7l0.1-0.1h-1.5v0.1v0.1
			L317.3,298.3z M318.1,298.4l-0.1,0.1l-0.1-0.1H318.1z M318,300.3L318,300.3L318,300.3L318,300.3z M318.1,299.9L318.1,299.9
			c-0.1-0.1-0.3-0.7,0-1l0,0C318.1,298.9,318.4,299.4,318.1,299.9z"/>
		<path d="M320.9,298.7l0.4-0.7l0.1-0.1h-1.5v0.1v0.1l-0.2,0.1l0.2,0.4c-0.4,0.5-0.1,1.1,0,1.4l-0.4,0.8h0.4l1.2-1.5
			C321,299.1,321,298.9,320.9,298.7z M320.3,298.4h0.1l-0.1,0.1L320.3,298.4z M320.3,299.9L320.3,299.9c-0.1-0.1-0.3-0.7,0-1l0,0
			C320.4,299,320.7,299.4,320.3,299.9z"/>
		<path d="M316,298.7l0.4-0.7l0.1-0.1l-1.6,0l0.6,1l0,0c0,0,0,0.1,0.1,0.1l0.5,0.8C316.2,299.4,316.1,298.9,316,298.7z M315.5,298.5
			l-0.1-0.1h0.1L315.5,298.5z"/>
		<polygon points="321.7,297.9 321.7,298 321.9,298.3 322.3,297.9 		"/>
		<path fill="#BC715F" d="M301.2,264.3c2.4,0.5,9.7,0.4,9.7,0.4c-0.7,0.7-4.8,1.8-4.5,2.4c0.3,0.7,2.4,0.3,3.7,0.3
			c-0.5,1.4,4.1,0.6,5.4,0.2c7.7,2.2,8.9-0.7,8.6-1.5c2.4,0.2,4.3-1.4,4.3-1.4c1,0.2,2.6,0.2,4.1,0.2c0,0,0.1,0,0.1,0
			c2,0,3.8-0.1,3.8-0.1c2.1,0.9,4.8,0.8,4,0.2c-3.3-2.3-6.5-2.9-9.6-3c0,0-0.1,0-0.1,0c-2.9,0-5.6,0.5-8.3,0.6
			c-1.8,0.1-2-0.8-0.2-0.8c1.8,0,6.5-0.3,6.4-1.1c-0.2-0.8-8.9-1.3-11.2-1.3c-2.3,0-2.1,1.7-1.1,2.5c1,0.8,2.2,0.7,1.5,0.8
			c-1.4,0.2-3.7-1.2-3.7-1.2c-4.9-0.5-8.5-0.4-11.2,0c0,0-0.1,0-0.1,0c-4.8,0.6-6.6,2.1-6.9,2.8l0,0c-0.3,1,4.8-0.2,4.8-0.2
			c0.1,0,0.2,0.1,0.4,0.1C301.1,264.3,301.2,264.3,301.2,264.3z"/>
		<path fill="#008830" d="M305.2,282.1c-0.2-0.3-0.6-0.6-0.6-0.9c0.1,0,0.2,0.1,0.2,0.1c0.5,0.3,1.1,0.4,1.7,0.5
			c0.5-0.1,0.4-0.6,0.5-0.9c0-0.9-0.8-1.4-0.8-2.3c0.8-0.5,1.5-1.4,1.5-2.3c-1.3-0.2-2.7-0.1-3.8,0.4c-0.5-0.1-1.2,1-1.4,0.1
			c-0.3-0.1-0.4-0.6-0.8-0.5c-0.3,0.2-0.5,0.3-0.7,0.3l0.3,0.5c0.2-0.5,0.3-0.9,0.9-0.2h0c0,0.2-0.1,0.4,0.1,0.6
			c0.3-0.2,0.6,0,0.8,0.3c0,0.2,0,0.4-0.2,0.5l-0.5-0.1c0-0.1-0.1-0.2-0.2-0.2c-0.2-0.1-0.3,0.1-0.4,0.2l0.5,0.8l0.1-0.1
			c0.2,0.2,0.3,0.6,0.5,0.9l0,0c0,0,0,0,0,0l0.3,0.5c0.1,0.1,0.3,0.2,0.4,0.3c0.1,0.1,0.1,0.3,0,0.3l0.9,1.4
			C304.9,282.4,305.1,282.3,305.2,282.1z"/>
		<path fill="#F9D90F" d="M302.4,278c0.1,0.1,0.2,0.2,0.2,0.2l0.5,0.1c0.2-0.1,0.2-0.3,0.2-0.5c-0.2-0.3-0.5-0.4-0.8-0.3
			c-0.2-0.1-0.1-0.4-0.1-0.6h0c-0.5-0.7-0.7-0.2-0.9,0.2l0.6,0.9C302.1,278,302.2,277.9,302.4,278z"/>
		<path fill="#FFFFFF" d="M303,279.8c-0.2-0.3-0.3-0.7-0.5-0.9l-0.1,0.1L303,279.8C303,279.8,303,279.8,303,279.8L303,279.8z"/>
		<path fill="#F9D90F" d="M303.8,280.6c-0.1-0.1-0.2-0.2-0.4-0.3l0.4,0.6C303.8,280.8,303.8,280.7,303.8,280.6z"/>
	</g>

		<path fill="none" stroke="#999999" stroke-width="0.25" stroke-linecap="round" stroke-linejoin="round" stroke-miterlimit="10" d="
		M551.4,338.8l3.1,3.2h1.9l3-3.2l-7.1-1.1L551.4,338.8z M568.9,250.3l-1.8,0.6l-0.8,0.4l-1.1,1.4l-0.7,1l-1.2,0.1l-1.7-0.3l-3.9-5.3
		l-1.7-2.3l0.4-0.8l0.5-1l0-0.2l-4.3-0.6l-6.9-2.3l-9.5,6.8l-3.1,1l-3.3-0.9l-16.1-7.5l-7.9,5.4l-9.8-7.3l-2.7-3.8l-8.4-7.1
		l-12.6-3.3l-4.9,2.7l-8.5,0.1l-7.6-1.9l-2.8-0.2l-2.1,5.1l-0.2,1.6l-2.6,4.3l-2.1,4.4l-2.7,1.6l-11.3,1.5l-5.1,4.3l-2.2,6.3
		l-1.1,4.1l-2.3,3.1l-3.9,1.3l-2.8,1.6l-8,0.5l-12.8,3.9l-15.4,0.7l-4.3-0.9l-4.6-2L331.7,251l-50.1-1.6l-4.7,0.2l-5.6,2.5l-1.3,1.2
		l0.2,1.4l25.9,14.4l22,33.9l13.1-15.9l24.1-2.1l19.1,17.9l-6.1,10.6l8.1,10.5l27.1,1.1l4.2,12.7h42.1l8,14.9l6.1-25.4h26.2l1,41.1
		l15,1.1l47.2-62.3l-6.7-14.4l-1.2-2.6l11.6-13.4l1.7-0.6l2.6-0.6l1.6-1l2.1-2.8l-0.1-2.6l-0.6-0.9l-0.1-0.1l-0.7-0.3l-0.8-1.4
		l0.1-3.5l0.2-1.8l0.1-0.8l0.7-1.9l0.6-1.6l1-1.2l0.7,0.1l2.6-3.5l1.2-0.7l0.1-1L568.9,250.3z"/>
</g>

</svg>
