<?xml version="1.0" encoding="utf-8"?>

<svg version="1.2" baseProfile="tiny" xmlns="http://www.w3.org/2000/svg" xmlns:xlink="http://www.w3.org/1999/xlink" x="0px"
	 y="0px" viewBox="283.1 137.4 334.3 305.5" xml:space="preserve">

<g id="Syria">
	<g>
		<polygon points="312.2,344.3 311.5,345.4 310.4,347.5 310.5,347.8 310.8,348.3 311.2,348.7 312.6,349.9 314.6,350.2 315.5,350.7
			315.6,352 315,352.8 314,352.9 312.1,352.5 309.5,351.2 308.7,351 307.9,351.3 307.2,351.9 306.4,352.4 305.3,352.4 304.9,352.1
			304.3,351.3 304,351.1 302.2,352.2 301.3,352.6 300.3,352.9 299.5,353.2 299,353.9 298.4,355.1 296.7,356.6 296,357.6
			295.7,358.3 294.8,359.1 294.4,359.7 294.3,360.2 294.5,361.2 294.4,361.8 294.1,362.1 293.5,362.3 293.3,362.5 293.1,363.8
			293.7,364.2 294.8,364.4 296,365.1 296.7,365.3 297.7,365.7 298.5,366.4 298.9,367 298.8,368.1 298,369.1 297,369.7 296,370.2
			294.8,370.2 293.7,370.5 293.1,371.3 293.8,372.6 293,374.5 291.4,375.8 290.5,376.3 290.5,376.3 290.4,376.4 290.6,377.3
			290.4,377.8 290.1,378.3 289.2,378.8 288.7,379.5 288.5,380.4 288.5,381.1 288.7,381.9 289.1,382.9 289.3,383.4 289.2,384
			289,384.5 288.6,384.8 288.2,384.9 287.9,385.1 288,385.4 288.2,385.4 288.8,385.4 289.2,385.4 289.5,385.6 289.7,385.8
			289.7,386.1 290.1,387.9 290.3,388.6 290.7,389.2 291.5,390.2 291.2,390.8 291.1,391.1 291.2,391.4 291.4,391.6 291.5,391.6
			291.8,391.3 292.3,391.6 292.6,392.2 292.6,393.9 291.6,394.7 291.7,395 291.9,395.2 292.1,395.2 292.2,395.6 290.4,395.7
			290.2,397.2 290.8,402.5 291.9,402.9 293.2,404.1 292.6,405.3 291.5,406.4 290,409.3 289.5,410.9 289.3,411.8 289.3,412.2
			289.1,412.7 287.7,414.8 287.3,415.1 286.5,415.6 285.4,417.1 285.4,417.1 285.4,417.1 285.7,417.2 285.9,417.3 285.9,417.3
			285.9,417.3 285.9,417.3 286.4,417.9 291.8,419.2 292.2,419.5 293.1,420.3 293.4,420.4 294,420.4 294.2,420.5 294.3,420.9
			294.2,421.3 294.1,421.5 293.9,421.5 294.3,422.1 294.8,422.5 295.3,422.7 296,422.5 297.2,422.6 297.4,423.3 297.3,424.3
			297.3,425.4 297.8,426.4 300.1,429.9 300.3,430.6 300.3,430.8 300.5,430.9 301.8,430.9 303.7,430.7 304,430.7 304.5,430.9
			304.8,430.9 305.1,430.8 305.7,430.3 305.9,430.2 306.5,430.5 308.1,432.2 311.3,434.4 315.8,438.6 316.5,439 317.5,439.3
			320.3,439.6 321.1,440.1 329.8,441.1 331.7,442.5 332.5,442 333.6,442 336.8,442.9 337.5,442.9 338.2,442.7 346.3,437.2
			353.9,432.2 354,432.2 354,432.2 359.5,428.6 368.1,423.1 376.7,417.6 385.3,412.1 394,406.6 400.3,402.5 409.1,397 424.1,387.5
			436.4,379.9 442,376.6 447.5,373.3 453.1,369.9 458.6,366.6 464.2,363.3 469.8,360 475.3,356.6 480.9,353.3 486.4,350 492,346.6
			496,344.2 312.3,344.2 		"/>
		<path fill="#FFFFFF" d="M285.8,240.1l-0.3,0.5l0.1,0.8l0.4,0.8l0.1,0.7l-0.3,1.1l-0.8,0.9l-1,0.6l-1,0.4v0.4l0.7-0.4h0.3l-0.1,0.3
			l-0.1,0.6l-0.1,0.3l1.8,0.9l0.3,0.3l0,0.7l-0.3,0.8l-0.1,0.7l0.5,0.3l0.3-0.2l0.8-0.3l0.8-0.1l0.4,0.3l0.2,0.6l0.5,0.4l1,0.5
			l2.4,3.3l0.5,0.5l-0.1,0.9l0.4,4l0.2,1l-0.7,2.1l1.9,3.9l0.5,1.6l-1.1,1.1l-2.4,3.6l-0.3,0.7v2.9l0.2,0.7l0.3,0.8l0.2,0.9
			l-0.3,0.9l-0.4,0.4l-0.3,0.4l-0.4,0.9l0.2,0.4l0.1,0.1l0,0l-0.2,0.3v0.4l0.3,0.4l0.1,0.4l-0.1,0.4l-0.3,0.4l0,0.3l-0.3,0.2
			l1.6,4.4l0.3,1.3l0.2,0.6l0.9,1.5l0.1,0.4v2.5l0.1,0.5l0.5,0.9l0.3,1.6l0.9,1.9l0.2,1.1l0.6,0l0.4,0.1l0.4,0.2l0.9,0.7l1.1,0.3
			l1.1,0l1.3-0.2l3.4,0.2l0.2-0.1l0.6-0.4l0.3-0.1l0.3,0.1l0.6,0.4l0.3,0.1l3-0.2l0.5-0.2l0.5-0.5l0.2-0.6l0-1.2l0.2-0.5l1-0.7
			l0.7,0.5l1.2,2.1l1,0.9l1.2,0.4l1.2,0l1.2-0.4l-0.2,1.9l-0.4,0.3l-0.5-0.4l-0.7-0.2l-0.7,0.5l-0.1,0.7l0.1,0.9l-0.2,1l-1,0.8
			l-1.4,0.7l-0.8,0.9l0.6,1.2l0.1,0l0.1,0l0.1,0l0.1,0l1-0.3l1.5-0.1l1.4,0.1l0.7,0.2v0l0.3,1l0.5,0.8l0.7,0.6l0.9,0.4l0.7,0.9
			l0.4,0.2l0.4-0.1l0.8,0.6l0.3,0.5l0,0.7l-0.2,1l-0.1,0.4l-0.2,0.3l-0.2,0.3l0,0.5l0.1,0.5l0.2,0.5l1.1,1.5l0.5,0.6l0.4,0.2l0.4,0
			l0.3,0.1l0.3,0.5l-0.1,0.8l-0.5,0.7l-0.4,0.8l0.2,1.1l0.3,0.9l1.2,1.2l0.3,0.6l-1.4,1.6l-1.2,1.9l-2.2,1.9l-1,1.2l-0.3,0.9
			l-0.1,0.7l-0.3,0.6l-0.8,0.4l-0.7,0l-1.1-0.4l-0.6-0.1l-1.1,0.5l-1.7,2.1l-2,1.8l-0.7,0.9H496l1.6-0.9l5.6-3.3l5.6-3.3l5.6-3.3
			l5.6-3.3l5.6-3.4l7.4-4.4l12.3-3.3l1.5-1l1.1-1.6l1.8-4v0l1-1.9L543,305l-19.9,14.5l0,0l0,0l0,0l0,0l7.6-23.4l-20-14.5h24.7
			l7.6-23.5l7.6,23.5h7.6l-0.3-11.2l0.5-3.7l2.1-7.6l0.4-6l0.5-1.8h0h0v0l4.1-6.1l0.8-1.9l0.3-1.9l0-1.5H286.7L285.8,240.1z
			 M347.4,281.5l7.6-23.5l7.6,23.5h24.7l-20,14.5l7.6,23.5L355,305l-20,14.5l7.6-23.5l-20-14.5H347.4z"/>
		<polygon fill="#FFFFFF" points="556.3,299 558.1,295.6 558.5,294.1 558.5,293.7 555.3,296 		"/>
		<polygon fill="#CE1126" points="617.1,152.3 616.7,151.6 616.4,150.9 616.4,149.1 616.3,148.2 615.9,147.8 615.3,147 616.2,143.5
			615.9,142.7 615.6,142.5 613.8,141.2 613.6,140.8 613.4,140.2 613.1,139.9 612.8,139.8 612.5,140.1 612.2,140.4 611.9,140.5
			610.4,139.8 609.7,139.7 609.6,139.4 609.7,138.8 609.7,138.1 609.1,137.4 608.2,138.1 607.4,138.5 604.9,141.9 601.1,145.4
			598.9,146.8 572.3,153 558.3,153.7 557.3,153.4 555,152.5 543,150.1 533.6,151.5 531.1,152.4 524.4,156.2 522.1,156.8
			520.9,156.9 519.9,157.1 518.8,157.5 517.8,158.1 507.5,165 505.7,165.9 503.8,166.2 502,166.9 497,169.9 486.2,173.9
			459.8,178.9 457.1,179.1 449.4,176.5 446.7,176.6 445.6,177 437.5,177.4 433.9,176.9 430.9,175.3 424.1,168.2 421.6,166.8
			412.1,163.9 408.8,163.5 407.1,163.7 403.7,165 397.9,168.7 396.5,169.1 388.4,172.7 380.1,174.5 377.1,175.9 369.7,180.6
			367.6,180.6 359.4,179.1 358.3,179.2 355.1,180 354.2,179.9 353.3,179.7 352.5,179.6 351.6,180 350.8,180.8 350.4,181.4
			349.9,181.5 348.9,181 348,180.1 347.8,179.4 348.2,177.4 348.2,176.1 347.8,175.3 346.3,173.9 345.5,173.2 344.5,172.6
			343.5,172.2 342.6,172 339.4,171.8 330.1,168.6 329.6,168.5 329.2,168.5 329.3,170.1 328.8,171.3 327.9,172.4 327.3,173.6
			327.1,175 327.1,176.2 326.9,177.4 326.3,178.9 325.6,181.5 325.6,184.3 325.4,187 323.9,189.4 323.7,190.3 323.8,191.3
			324.8,194.7 325,195.2 325.4,195.5 326.2,195.8 326.4,196 326.7,196.4 326.8,196.9 326.9,197.3 326.9,197.9 326.5,198.8
			326.3,199.4 326,199.4 326.5,199.9 328.2,200.1 329,200.4 329.6,201.1 330.1,202 330.5,203 330.6,203.9 330.7,205.3 330.4,205.8
			326.8,206.5 325.9,206.5 322.1,205.9 321.1,206 320.6,206.2 320.4,206.6 320.3,207.1 320.1,207.4 319.7,207.6 319.4,207.6
			319.1,207.5 317.7,207.3 317,207.1 316.4,206.7 315.8,205.9 315.2,206.5 315.9,207.3 315.8,207.9 315.4,208.3 315.1,208.8
			315,209.7 314.9,218.6 315,220.4 313.9,220.7 312,220 311,220.4 311,220.4 310.9,220.4 310.9,220.4 310.5,222.6 309.7,222.7
			308.5,222.4 306.9,223 305.8,224.8 305.5,229.1 304.9,231 304,231.1 301,229 299.6,228.3 298,228.3 297.2,228.1 296.6,227.6
			296.5,226.8 296.7,226 296.6,225.2 296,224.5 295,224.7 294,225.1 293,225.3 292.6,225.1 291.3,227.1 291.1,228.3 290.5,229.2
			289.3,229.5 286.9,229.3 287.6,230.2 288.3,231.5 288.8,233 289,234.2 289,235.6 288.9,235.9 287,239.7 286.7,239.8 566.5,239.8
			566.3,232.8 566,230.8 565.5,228.8 561.6,220.4 561.6,220.4 561.6,220.4 560.3,217.3 560.1,216.3 560.1,215.2 561.7,199.7
			562.2,198 566.6,189.4 566.6,189.4 566.6,189.4 566.6,189.4 567.6,188 569.1,187.3 572.3,186.7 587.9,183.4 589.3,182.8
			590.6,181.6 597.4,174.4 607.4,163.7 612.6,158.1 612.6,158.1 612.6,158.1 612.6,158.1 615.9,155.1 617.4,153.9 617.4,153 		"/>
		<polygon fill="#007A3D" points="335,319.5 355,305 375,319.5 367.3,296 387.3,281.5 362.6,281.5 355,258.1 347.4,281.5
			322.7,281.5 342.7,296 		"/>
		<polygon fill="#007A3D" points="543,258.1 535.4,281.5 510.7,281.5 530.7,296 523,319.5 523,319.5 523,319.5 523,319.5
			523.1,319.5 543,305 550.4,310.4 556.3,299 555.3,296 558.5,293.7 558.6,292.5 558.2,281.8 558.2,281.5 550.6,281.5 		"/>
	</g>
	<polygon fill="none" stroke="#999999" stroke-width="0.25" stroke-linecap="round" stroke-linejoin="round" points="617.1,152.3
		616.7,151.6 616.4,150.9 616.4,149.1 616.3,148.2 615.9,147.8 615.3,147 616.2,143.5 615.9,142.7 615.6,142.5 613.8,141.2
		613.6,140.8 613.4,140.2 613.1,139.9 612.8,139.8 612.5,140.1 612.2,140.4 611.9,140.5 610.4,139.8 609.7,139.7 609.6,139.4
		609.7,138.8 609.7,138.1 609.1,137.4 608.2,138.1 607.4,138.5 604.9,141.9 601.1,145.4 598.9,146.8 572.3,153 558.3,153.7
		557.3,153.4 555,152.5 543,150.1 533.6,151.5 531.1,152.4 524.4,156.2 522.1,156.8 520.9,156.9 519.9,157.1 518.8,157.5
		517.8,158.1 507.5,165 505.7,165.9 503.8,166.2 502,166.9 497,169.9 486.2,173.9 459.8,178.9 457.1,179.1 449.4,176.5 446.7,176.6
		445.6,177 437.5,177.4 433.9,176.9 430.9,175.3 424.1,168.2 421.6,166.8 412.1,163.9 408.8,163.5 407.1,163.7 403.7,165
		397.9,168.7 396.5,169.1 388.4,172.7 380.1,174.5 377.1,175.9 369.7,180.6 367.6,180.6 359.4,179.1 358.3,179.2 355.1,180
		354.2,179.9 353.3,179.7 352.5,179.6 351.6,180 350.8,180.8 350.4,181.4 349.9,181.5 348.9,181 348,180.1 347.8,179.4 348.2,177.4
		348.2,176.1 347.8,175.3 346.3,173.9 345.5,173.2 344.5,172.6 343.5,172.2 342.6,172 339.4,171.8 330.1,168.6 329.6,168.5
		329.2,168.5 329.3,170.1 328.8,171.3 327.9,172.4 327.3,173.6 327.1,175 327.1,176.2 326.9,177.4 326.3,178.9 325.6,181.5
		325.6,184.3 325.4,187 323.9,189.4 323.7,190.3 323.8,191.3 324.8,194.7 325,195.2 325.4,195.5 326.2,195.8 326.4,196 326.7,196.4
		326.8,196.9 326.9,197.3 326.9,197.9 326.5,198.8 326.3,199.4 326,199.4 326.5,199.9 328.2,200.1 329,200.4 329.6,201.1 330.1,202
		330.5,203 330.6,203.9 330.7,205.3 330.4,205.8 326.8,206.5 325.9,206.5 322.1,205.9 321.1,206 320.6,206.2 320.4,206.6
		320.3,207.1 320.1,207.4 319.7,207.6 319.4,207.6 319.1,207.5 317.7,207.3 317,207.1 316.4,206.7 315.8,205.9 315.2,206.5
		315.9,207.3 315.8,207.9 315.4,208.3 315.1,208.8 315,209.7 314.9,218.6 315,220.4 313.9,220.7 312,220 311,220.4 311,220.4
		310.9,220.4 310.9,220.4 310.5,222.6 309.7,222.7 308.5,222.4 306.9,223 305.8,224.8 305.5,229.1 304.9,231 304,231.1 301,229
		299.6,228.3 298,228.3 297.2,228.1 296.6,227.6 296.5,226.8 296.7,226 296.6,225.2 296,224.5 295,224.7 294,225.1 293,225.3
		292.6,225.1 291.3,227.1 291.1,228.3 290.5,229.2 289.3,229.5 286.9,229.3 287.6,230.2 288.3,231.5 288.8,233 289,234.2 289,235.6
		288.9,235.9 287,239.7 285.8,240.1 285.5,240.5 285.6,241.3 286.1,242.1 286.2,242.8 285.9,243.9 285.1,244.8 284.1,245.4
		283.1,245.8 283.1,246.2 283.8,245.8 284.1,245.8 284,246.1 283.9,246.7 283.8,247 285.6,248 285.9,248.3 285.8,249.1 285.6,249.9
		285.5,250.6 286,250.9 286.3,250.7 287.1,250.4 287.9,250.3 288.3,250.6 288.5,251.2 289,251.6 290,252.1 292.5,255.4 293,255.9
		292.8,256.8 293.2,260.8 293.5,261.8 292.8,263.9 294.7,267.7 295.1,269.4 294.1,270.4 291.7,274.1 291.4,274.8 291.4,277.7
		291.6,278.4 291.9,279.2 292,280.1 291.8,281.1 291.4,281.5 291.1,281.9 290.7,282.8 290.8,283.2 291,283.3 290.9,283.3
		290.7,283.6 290.7,284 291,284.4 291.1,284.8 291,285.2 290.7,285.6 290.7,285.9 290.3,286.1 292,290.4 292.2,291.7 292.4,292.3
		293.3,293.8 293.5,294.2 293.5,296.7 293.6,297.3 294.1,298.2 294.4,299.8 295.3,301.7 295.5,302.8 296.1,302.8 296.6,302.9
		296.9,303.1 297.8,303.8 298.9,304.1 300.1,304.1 301.4,303.9 304.8,304.2 305.1,304.1 305.7,303.7 306,303.7 306.2,303.8
		306.8,304.2 307.1,304.3 310.2,304.2 310.7,303.9 311.1,303.4 311.3,302.9 311.3,301.7 311.5,301.2 312.5,300.5 313.3,301
		314.5,303.1 315.5,304 316.7,304.4 317.9,304.4 319.1,304 318.9,305.9 318.6,306.2 318,305.8 317.3,305.6 316.6,306 316.5,306.8
		316.5,307.7 316.3,308.6 315.3,309.4 313.9,310.1 313.1,311 313.7,312.2 313.9,312.3 314,312.3 314.1,312.3 314.3,312.2
		315.3,311.9 316.7,311.9 318.1,312 318.8,312.2 318.8,312.2 319.1,313.3 319.6,314 320.3,314.6 321.1,315 321.9,315.9 322.2,316.1
		322.6,316 323.4,316.6 323.7,317.1 323.6,317.8 323.5,318.8 323.3,319.2 323.1,319.5 323,319.8 322.9,320.3 323.1,320.8
		323.3,321.2 324.4,322.8 324.9,323.3 325.3,323.5 325.7,323.5 326,323.5 326.3,324 326.2,324.8 325.7,325.5 325.3,326.3
		325.5,327.4 325.9,328.3 327.1,329.5 327.4,330.1 325.9,331.7 324.8,333.6 322.5,335.5 321.6,336.8 321.3,337.6 321.2,338.4
		320.9,338.9 320.1,339.3 319.4,339.4 318.3,339 317.7,338.9 316.7,339.4 315,341.6 313,343.3 312.2,344.3 311.5,345.4 310.4,347.5
		310.5,347.8 310.8,348.3 311.2,348.7 312.6,349.9 314.6,350.2 315.5,350.7 315.6,352 315,352.8 314,352.9 312.1,352.5 309.5,351.2
		308.7,351 307.9,351.3 307.2,351.9 306.4,352.4 305.3,352.4 304.9,352.1 304.3,351.3 304,351.1 302.2,352.2 301.3,352.6
		300.3,352.9 299.5,353.2 299,353.9 298.4,355.1 296.7,356.6 296,357.6 295.7,358.3 294.8,359.1 294.4,359.7 294.3,360.2
		294.5,361.2 294.4,361.8 294.1,362.1 293.5,362.3 293.3,362.5 293.1,363.8 293.7,364.2 294.8,364.4 296,365.1 296.7,365.3
		297.7,365.7 298.5,366.4 298.9,367 298.8,368.1 298,369.1 297,369.7 296,370.2 294.8,370.2 293.7,370.5 293.1,371.3 293.8,372.6
		293,374.5 291.4,375.8 290.5,376.3 290.5,376.3 290.4,376.4 290.6,377.3 290.4,377.8 290.1,378.3 289.2,378.8 288.7,379.5
		288.5,380.4 288.5,381.1 288.7,381.9 289.1,382.9 289.3,383.4 289.2,384 289,384.5 288.6,384.8 288.2,384.9 287.9,385.1 288,385.4
		288.2,385.4 288.8,385.4 289.2,385.4 289.5,385.6 289.7,385.8 289.7,386.1 290.1,387.9 290.3,388.6 290.7,389.2 291.5,390.2
		291.2,390.8 291.1,391.1 291.2,391.4 291.4,391.6 291.5,391.6 291.8,391.3 292.3,391.6 292.6,392.2 292.6,393.9 291.6,394.7
		291.7,395 291.9,395.2 292.1,395.2 292.2,395.6 290.4,395.7 290.2,397.2 290.8,402.5 291.9,402.9 293.2,404.1 292.6,405.3
		291.5,406.4 290,409.3 289.5,410.9 289.3,411.8 289.3,412.2 289.1,412.7 287.7,414.8 287.3,415.1 286.5,415.6 285.4,417.1
		285.4,417.1 285.4,417.1 285.7,417.2 285.9,417.3 285.9,417.3 285.9,417.3 285.9,417.3 286.4,417.9 291.8,419.2 292.2,419.5
		293.1,420.3 293.4,420.4 294,420.4 294.2,420.5 294.3,420.9 294.2,421.3 294.1,421.5 293.9,421.5 294.3,422.1 294.8,422.5
		295.3,422.7 296,422.5 297.2,422.6 297.4,423.3 297.3,424.3 297.3,425.4 297.8,426.4 300.1,429.9 300.3,430.6 300.3,430.8
		300.5,430.9 301.8,430.9 303.7,430.7 304,430.7 304.5,430.9 304.8,430.9 305.1,430.8 305.7,430.3 305.9,430.2 306.5,430.5
		308.1,432.2 311.3,434.4 315.8,438.6 316.5,439 317.5,439.3 320.3,439.6 321.1,440.1 329.8,441.1 331.7,442.5 332.5,442 333.6,442
		336.8,442.9 337.5,442.9 338.2,442.7 346.3,437.2 353.9,432.2 354,432.2 354,432.2 359.5,428.6 368.1,423.1 376.7,417.6
		385.3,412.1 394,406.6 400.3,402.5 409.1,397 424.1,387.5 436.4,379.9 442,376.6 447.5,373.3 453.1,369.9 458.6,366.6 464.2,363.3
		469.8,360 475.3,356.6 480.9,353.3 486.4,350 492,346.6 497.5,343.3 503.1,339.9 508.6,336.6 514.2,333.3 519.8,329.9 525.3,326.6
		532.7,322.1 545,318.8 546.5,317.8 547.6,316.2 549.4,312.2 549.4,312.2 558.1,295.6 558.5,294.1 558.6,292.5 558.2,281.8
		557.9,270.3 558.3,266.6 560.4,259 560.9,253 561.3,251.2 561.4,251.2 561.4,251.2 561.4,251.2 565.4,245.1 566.2,243.2
		566.5,241.3 566.3,232.8 566,230.8 565.5,228.8 561.6,220.4 561.6,220.4 561.6,220.4 560.3,217.3 560.1,216.3 560.1,215.2
		561.7,199.7 562.2,198 566.6,189.4 566.6,189.4 566.6,189.4 566.6,189.4 567.6,188 569.1,187.3 572.3,186.7 587.9,183.4
		589.3,182.8 590.6,181.6 597.4,174.4 607.4,163.7 612.6,158.1 612.6,158.1 612.6,158.1 612.6,158.1 615.9,155.1 617.4,153.9
		617.4,153 	"/>
</g>

</svg>
