<?xml version="1.0" encoding="utf-8"?>

<svg version="1.2" baseProfile="tiny" xmlns="http://www.w3.org/2000/svg" xmlns:xlink="http://www.w3.org/1999/xlink" x="0px"
	 y="0px" viewBox="306.1 147.4 227.8 300" xml:space="preserve">

<g id="Swaziland">
	<title>Flag of Swaziland</title>
	<g>
		<path fill="#3E5EB9" d="M482.2,191.6c-10.7-6.9-21.4-13.9-32.2-20.8c-11.4-7.3-22.7-14.6-34-22l-4.3-1.4l-5,0.1l-5.9,1.6l-4.8,2.4
			c-0.6,0.6-1.3,1.1-1.9,1.7c-10.2,9-20.3,18.1-30.5,27.1l-2.2,3.9l-2.5,9.2h126.1C484.1,192.9,483.2,192.2,482.2,191.6z"/>
		<polygon fill="#3E5EB9" points="496.9,193.5 509.5,193.5 505.2,189.3 		"/>
		<path fill="#3E5EB9" d="M356.6,409.6l8.1,12.3l2.6,2.6l2.6,1.7l17,5.9c11.5,4,23.1,8,34.6,11.9l11.5,2.3
			c13.1,0.2,26.2,0.4,39.2,0.6c12.1,0.2,24.1,0.3,36.2,0.5l-0.1-2.5l-0.5-2.2l-0.9-2.1l-1.2-2.1l-1-2.8c-0.3-9.8-0.6-19.7-0.9-29.5
			l1.3-7.7h-161L356.6,409.6z"/>
		<path fill="#FFD900" d="M495.4,194.2l-4.9,1.2l-4.9-1.5c-0.2-0.1-0.4-0.3-0.6-0.4H358.9l-0.2,0.7l-9.2,22l0,0.1h176.3l-1.3-4.4
			l-0.9-6.8l2.2-5.9l-11.3-2.9l-4.9-2.7l-0.1-0.1h-12.6L495.4,194.2z"/>
		<path fill="#FFD900" d="M334.5,382.4l0.7,4.8l3.8,6.6l5.3,4.8h161l1-5.7c1-5.7,1.9-11.4,2.9-17.1H336.1L334.5,382.4z"/>
		<path fill="#B10C0C" d="M312.8,282.8h-5.8l-1,3.9c0,1,0,2,0,3.1c0.7-0.7,1.3-1.4,2-2.1C309.6,286.1,311.2,284.5,312.8,282.8z"/>
		<path fill="#B10C0C" d="M518.3,283.5c2.7,3,5.4,5.9,7.9,8.5h6l0,0l-4.6-9.2h-9.9C517.9,283.1,518.1,283.3,518.3,283.5z"/>
		<path fill="#B10C0C" d="M326.7,269.2h-14.3c-0.9,1.1-1.7,2.2-2.6,3.3l-1.2,4.8h9.8C321,274.6,323.8,271.9,326.7,269.2z"/>
		<path fill="#B10C0C" d="M512.6,277.3h12.2l-0.7-1.5l-1.3-5.3l-0.1-1.3h-17.8C507.6,271.9,510.1,274.6,512.6,277.3z"/>
		<path fill="#B10C0C" d="M338,236.9c-1.1,1.4-2.3,2.9-3.4,4.3c-5.9,7.5-11.9,15-17.8,22.4h16c21.5-19,48.8-36.7,82.2-36.7
			c38.1,0,64.3,17.8,84.2,36.7H522l-1.4-12.7l0.9-5.5l5.6-15l0.6-5.1l-1.2-6.5l-0.8-2.6H349.5L338,236.9z"/>
		<path fill="#B10C0C" d="M518.3,308.5c-21.8,23.9-51.6,56.7-103.3,56.7c-48,0-83.4-36.6-106.9-60.8c-0.6-0.6-1.2-1.3-1.9-1.9
			c0.1,10.3,0.2,20.5,0.3,30.8l1.7,13l1.2,4.5l3-0.2l2.8-0.5l2.9-1.6l2.6-2.2l2-2.4l3.8,11.3l2.3,3.4l4.9,5.2l1.8,2.8l1,3.8
			l-0.2,4.8l-0.2,0.9h173.1c1.1-6.5,2.2-13,3.3-19.4l-0.4-5.8l11.4,0.1l2.8,0.5l4.2,4.2l2.8,1.2l0.6-49L533,300h-6.9
			C523.7,302.6,521,305.5,518.3,308.5z"/>
		<path fill="#FFD900" d="M529.5,295.4l0.6,0.6l-0.6,0.6c-0.7,0.7-1.5,1.5-2.3,2.3h5.7l-0.6-5.8h-5.1
			C528,293.9,528.7,294.7,529.5,295.4z"/>
		<path d="M527.2,293.1h5.1l-0.1-1.1h-6C526.5,292.4,526.9,292.8,527.2,293.1z"/>
		<path d="M526.2,300h6.9l-0.1-1.1h-5.7C526.9,299.2,526.5,299.6,526.2,300z"/>
		<path fill="#FFD900" d="M503.9,268.2h18.7l-0.4-3.6h-21.9C501.5,265.8,502.7,267,503.9,268.2z"/>
		<path fill="#FFD900" d="M331.7,264.6H316c-0.9,1.2-1.9,2.4-2.8,3.6h14.6C329,267,330.3,265.8,331.7,264.6z"/>
		<path d="M327.7,268.2h-14.6c-0.3,0.3-0.5,0.7-0.8,1h14.3C327,268.8,327.4,268.5,327.7,268.2z"/>
		<path d="M500.3,264.6h21.9l-0.1-1h-22.8C499.6,263.9,499.9,264.3,500.3,264.6z"/>
		<path d="M504.9,269.2h17.8l-0.1-1h-18.7C504.2,268.5,504.5,268.8,504.9,269.2z"/>
		<path d="M332.8,263.6h-16c-0.3,0.3-0.5,0.7-0.8,1h15.7C332,264.3,332.4,263.9,332.8,263.6z"/>
		<path fill="#FFD900" d="M317.3,278.3h-9.1l-0.9,3.6h6.5C315,280.7,316.1,279.5,317.3,278.3z"/>
		<path fill="#FFD900" d="M516.8,281.8h10.3l-1.8-3.6h-11.8C514.6,279.5,515.7,280.7,516.8,281.8z"/>
		<path d="M313.8,281.8h-6.5l-0.3,1h5.8C313.1,282.5,313.5,282.2,313.8,281.8z"/>
		<path d="M513.5,278.3h11.8l-0.5-1h-12.2C512.9,277.6,513.2,277.9,513.5,278.3z"/>
		<path d="M318.3,277.3h-9.8l-0.3,1h9.1C317.6,277.9,318,277.6,318.3,277.3z"/>
		<path d="M517.7,282.8h9.9l-0.5-1h-10.3C517.1,282.2,517.4,282.5,517.7,282.8z"/>
		<path fill="#FFFFFF" d="M407.1,251.4L407.1,251.4c6.1,6.8,1,9.6,7.4,10c6.8,0.5,2.9,7.2,8.6,7.4c4,0.2-0.4,16.1,3.4,21.3
			c3.9,5.5,7.2,1.6,7.2,5.6c0.1,4.1-10.6,3.7-10.8,16.3c-0.3,7.3-9,7.7-9.4,12.4c-0.5,4.4,17.2,6.9,16.9,10.8
			c-0.2,3.9-19.1,3.3-19.9,7.8c-0.4,3.9,24.8,7.2,27.8,18.2c37.1-8,60.7-33.9,78.8-53.7c3.7-4.1,7.3-8,10.7-11.4
			c-3.4-3.4-6.9-7.3-10.7-11.4c-21.6-23.7-51.1-56.1-102.1-56.1c-0.3,0-0.6,0-0.8,0C411,231.6,400.3,243.4,407.1,251.4z
			 M432.7,320.3h-5.5v-18.2h5.5V320.3z M443.7,320.3h-5.5v-18.2h5.5V320.3z M454.8,320.3h-5.5v-18.2h5.5V320.3z M465.8,320.3h-5.5
			v-18.2h5.5V320.3z M476.9,320.3h-5.5v-18.2h5.5V320.3z M487.9,320.3h-5.5v-18.2h5.5V320.3z M476.9,289.9h-5.5v-18.2h5.5V289.9z
			 M438.2,271.7h5.5v18.2h-5.5V271.7z M449.2,271.7h5.5v18.2h-5.5V271.7z M460.3,271.7h5.5v18.2h-5.5V271.7z M427.2,289.9v-18.2h5.5
			v18.2H427.2z M487.9,289.9h-5.5v-18.2h5.5V289.9z"/>
		<path d="M415,365.1c51.7,0,81.5-32.7,103.3-56.7c2.7-3,5.4-5.9,7.9-8.5c0.3-0.4,0.7-0.7,1-1.1c0.8-0.8,1.5-1.6,2.3-2.3l0.6-0.6
			l-0.6-0.6c-0.7-0.7-1.5-1.5-2.3-2.3c-0.3-0.4-0.7-0.7-1-1.1c-2.5-2.7-5.1-5.5-7.9-8.5c-0.2-0.2-0.4-0.5-0.6-0.7
			c-0.3-0.3-0.6-0.7-0.9-1c-1.1-1.2-2.2-2.4-3.3-3.6c-0.3-0.3-0.6-0.7-0.9-1c-2.5-2.7-5-5.4-7.7-8.1c-0.3-0.3-0.7-0.7-1-1
			c-1.2-1.2-2.4-2.4-3.6-3.6c-0.3-0.3-0.7-0.7-1-1c-19.9-18.9-46.1-36.7-84.2-36.7c-33.4,0-60.8,17.8-82.2,36.7
			c-0.4,0.3-0.7,0.7-1.1,1c-1.3,1.2-2.6,2.4-3.9,3.6c-0.4,0.3-0.7,0.7-1.1,1c-2.9,2.7-5.7,5.5-8.4,8.1c-0.3,0.3-0.7,0.7-1,1
			c-1.2,1.2-2.4,2.4-3.5,3.6c-0.3,0.3-0.7,0.7-1,1c-1.6,1.7-3.2,3.3-4.7,4.9c-0.7,0.7-1.3,1.4-2,2.1c0,0.4,0,0.7,0,1.1
			c23.2-23.8,59.5-63.2,108.9-63.2c0,0-0.3,0.3-0.8,0.8c0.3,0,0.6,0,0.8,0c51,0,80.6,32.4,102.1,56.1c3.7,4.1,7.3,8,10.7,11.4
			c-3.4,3.4-6.9,7.3-10.7,11.4c-18,19.8-41.7,45.8-78.8,53.7c0.1,0.2,0.1,0.5,0.2,0.7c-3.9,1.3-15.1,2.5-23.5,2.5
			c-49.3,0-85.6-39.2-108.8-63.1c0,0.4,0,0.8,0,1.2c0.6,0.6,1.2,1.3,1.9,1.9C331.6,328.5,367,365.1,415,365.1z"/>
		<path d="M415,364.4c8.4,0,19.6-1.2,23.5-2.5c0-0.2-0.1-0.5-0.2-0.7c-3.1-11-28.2-14.3-27.8-18.2c0.8-4.5,19.7-3.9,19.9-7.8
			c0.2-3.9-17.4-6.4-16.9-10.8c0.4-4.7,9.1-5.1,9.4-12.4c0.2-12.6,10.9-12.2,10.8-16.3c-0.1-4-3.3-0.1-7.2-5.6
			c-3.8-5.2,0.5-21.1-3.4-21.3c-5.7-0.2-1.9-6.9-8.6-7.4c-6.4-0.4-1.4-3.2-7.4-10l0,0c-6.7-8,4-19.8,7.1-23c0.5-0.5,0.8-0.8,0.8-0.8
			c-49.4,0-85.7,39.4-108.9,63.2c0,0.9,0,1.8,0,2.6c0,2.6,0.1,5.2,0.1,7.7C329.4,325.1,365.7,364.4,415,364.4z M343.6,271.7h5.5
			v18.2h-5.5V271.7z M360.2,289.9h-5.5v-18.2h5.5V289.9z M401.8,270.4v0.7l-0.6-0.4c-0.7-0.4-1.3-0.7-1.8-0.9
			c-0.4-0.2-0.8-0.4-1.2-0.6c0.1,0.4,0.3,0.7,0.5,1.1c0.2,0.5,0.4,1,0.6,1.5h5.1v18.2h-5.5v-15.1c-0.9-0.7-1.8-1.3-2.8-1.9
			c0.3,1.7-0.3,3.7-1,5.7c-0.8,2.4-1.5,4.6-0.3,5.6l1.2,0.9l-1.5-0.2c-0.4-0.1-0.7-0.1-1.1-0.2v5.3h-5.5v-7.4
			c-2.3-1.3-4.3-3-5.5-4.9c0,0,0,0,0,0.1v12.2h-5.5v-13.1c-1.2-1.2-2.2-2.4-2.6-3.5c-0.5,0.9-0.6,1.6-0.8,2.8l-0.1,0.8l-0.6-0.6
			c-0.5-0.5-1-1-1.4-1.5v15h-5.5v-18.2h2.8c-0.9-1.2-1.6-2.5-2.1-4c-0.3,0.4-0.6,0.7-0.8,1c-0.3,0.4-0.7,0.8-1.3,1.6l-0.6,0.7
			l-0.2-1.1c-0.8-5.1-0.9-5.5,0.5-9.2c-0.9,0.6-1.7,1.3-2.7,2.1l-0.8,0.7l0.2-1c1.4-9.1,8.5-18.6,17.2-23.1l1.1-0.6l-0.6,1.1
			c-0.7,1.3-0.6,1.7-0.6,1.8c0.2,0.2,1.1,0.2,2.2,0.2c3.3-0.1,9.6-0.2,17.4,5.7c2.6,2,6.3,9.6,6.3,13.2v0.5l-0.5-0.1
			c-1.8-0.4-4.5-1.6-6.2-2.5C398.9,261,401.8,265.4,401.8,270.4z M343.6,320.3v-18.2h5.5v18.2H343.6z M354.7,320.3v-18.2h5.5v18.2
			H354.7z M365.7,320.3v-18.2h5.5v18.2H365.7z M376.7,320.3v-18.2h5.5v18.2H376.7z M387.8,320.3v-18.2h5.5v18.2H387.8z M398.8,320.3
			v-18.2h5.5v18.2H398.8z"/>
		<rect x="343.6" y="271.7" fill="#FFFFFF" width="5.5" height="18.2"/>
		<rect x="343.6" y="302.1" fill="#FFFFFF" width="5.5" height="18.2"/>
		<rect x="354.7" y="271.7" fill="#FFFFFF" width="5.5" height="18.2"/>
		<rect x="354.7" y="302.1" fill="#FFFFFF" width="5.5" height="18.2"/>
		<path fill="#FFFFFF" d="M365.7,271.7v18.2h5.5v-15c-1-1-1.9-2.1-2.7-3.2H365.7z"/>
		<rect x="365.7" y="302.1" fill="#FFFFFF" width="5.5" height="18.2"/>
		<path fill="#FFFFFF" d="M381.6,280l0.1,0.1l-0.4,0.6l-0.3-0.1c0,0,0,0-0.1-0.1l0,0l-0.1-0.1c-0.5-0.4-2.5-1.9-4.1-3.6v13.1h5.5
			v-12.2C381.8,278.3,381.6,279.1,381.6,280z"/>
		<rect x="376.7" y="302.1" fill="#FFFFFF" width="5.5" height="18.2"/>
		<path fill="#FFFFFF" d="M387.8,282.6v7.4h5.5v-5.3C391.4,284.3,389.5,283.5,387.8,282.6z"/>
		<rect x="387.8" y="302.1" fill="#FFFFFF" width="5.5" height="18.2"/>
		<path fill="#FFFFFF" d="M399.8,275.6l-0.6-0.5c-0.1-0.1-0.2-0.2-0.3-0.2v15.1h5.5v-18.2h-5.1c0.3,0.8,0.5,1.8,0.5,3.1V275.6z"/>
		<rect x="398.8" y="302.1" fill="#FFFFFF" width="5.5" height="18.2"/>
		<rect x="427.2" y="271.7" width="5.5" height="18.2"/>
		<rect x="427.2" y="302.1" width="5.5" height="18.2"/>
		<rect x="438.2" y="271.7" width="5.5" height="18.2"/>
		<rect x="438.2" y="302.1" width="5.5" height="18.2"/>
		<rect x="449.2" y="271.7" width="5.5" height="18.2"/>
		<rect x="449.2" y="302.1" width="5.5" height="18.2"/>
		<rect x="460.3" y="271.7" width="5.5" height="18.2"/>
		<rect x="460.3" y="302.1" width="5.5" height="18.2"/>
		<rect x="471.3" y="271.7" width="5.5" height="18.2"/>
		<rect x="471.3" y="302.1" width="5.5" height="18.2"/>
		<rect x="482.4" y="271.7" width="5.5" height="18.2"/>
		<rect x="482.4" y="302.1" width="5.5" height="18.2"/>
		<path fill="#3D5DA7" d="M395.1,257.7l0.5-0.6c0,0,4.5,2.5,7.4,3.3c-0.3-3.5-3.6-10.3-6-12c-7.6-5.7-13.7-5.6-16.9-5.5
			c-1.5,0-2.5,0-2.9-0.6c-0.2-0.4-0.2-0.9,0-1.5c-7.7,4.4-13.9,12.8-15.6,20.9c1-0.8,1.9-1.5,3-2.2l1-0.7l-0.6,1.5
			c-1.6,4.2-1.7,4.4-0.9,9c0.3-0.4,0.5-0.7,0.7-0.9c0.3-0.4,0.7-0.8,1.3-1.6l0.5-0.6l0.2,0.8c0.9,3.3,3.2,5.9,5.7,8.5
			c0.2-1.2,0.5-2,1.4-3.3l0.7,0.4c-0.5,1.5,4.1,5.5,6.1,7.1c0.1-1,0.4-1.9,1.4-2.6l0.4-0.2l0.2,0.4c1.8,3.2,6.3,6,10.7,7
			c-0.6-1.4,0-3.4,0.8-5.5c0.8-2.3,1.6-4.6,0.7-6.1l-0.7-1.2l1.3,0.7c1.3,0.7,2.4,1.4,3.5,2.3c-0.1-1.4-0.6-2.4-1-3.4
			c-0.4-1-0.8-1.9-0.8-2.9l0.8-0.2c0.4,0.9,0.9,1.2,1.9,1.6c0.4,0.2,0.8,0.4,1.3,0.6C400.6,263.2,395.2,257.7,395.1,257.7z
			 M381.7,249.4c0.9-1.4,3.4,1.1,7.7,3.4c2.5,1.3,4.4,1.3,8.2,3.3c-5.4,0.3-6.7,0.2-11.2-1.9C382,252.2,380.9,250.8,381.7,249.4z
			 M372.3,261.1c0.6-4.8-0.1-8.2,1.6-8.2c1.7,0.1,2.2,1.8,1.3,6.6c-0.8,4.8-1.5,5.9-4.9,10.1C370.9,265.4,372,263.8,372.3,261.1z
			 M392.9,283.6c-3.7-2.3-4.6-3-6.5-6.4c-1.9-3.4-2-4.9-0.7-5.4c1.3-0.5,1.7,2.3,3.4,5.8C390.2,279.6,391.5,280.5,392.9,283.6z
			 M379.2,277.3c-0.3-3.5,0.3-5.1,0.1-7.3c-0.4-4-1.6-6.7-0.1-7c1.5-0.3,2.2,1.1,2.4,5.2C381.7,272.2,381.3,273.3,379.2,277.3z
			 M390.1,264.2c-3.3-2.5-4-3.8-3-4.9c1.1-1,2.6,1.5,5.8,4.1c1.8,1.5,3.4,1.8,6.2,4.1C394.5,266.9,393.4,266.6,390.1,264.2z"/>
		<path d="M403.4,261.2l0.5,0.1v-0.5c0-3.6-3.6-11.2-6.3-13.2c-7.8-5.9-14.1-5.8-17.4-5.7c-1,0-2,0-2.2-0.2
			c-0.1-0.1-0.1-0.5,0.6-1.8l0.6-1.1l-1.1,0.6c-8.8,4.5-15.8,14-17.2,23.1l-0.2,1l0.8-0.7c1-0.8,1.8-1.5,2.7-2.1
			c-1.4,3.7-1.4,4.1-0.5,9.2l0.2,1.1l0.6-0.7c0.6-0.8,1-1.2,1.3-1.6c0.2-0.3,0.5-0.6,0.8-1c0.5,1.4,1.2,2.7,2.1,4
			c0.8,1.1,1.7,2.2,2.7,3.2c0.5,0.5,1,1,1.4,1.5l0.6,0.6l0.1-0.8c0.2-1.2,0.3-1.9,0.8-2.8c0.4,1.1,1.5,2.3,2.6,3.5
			c1.7,1.7,3.6,3.2,4.1,3.6l0.1,0.1l0,0c0.1,0,0.1,0.1,0.1,0.1l0.3,0.1l0.4-0.6l-0.1-0.1c0-0.9,0.1-1.6,0.7-2.2c0,0,0,0,0-0.1
			c1.2,1.9,3.2,3.6,5.5,4.9c1.7,1,3.6,1.7,5.5,2.1c0.4,0.1,0.7,0.1,1.1,0.2l1.5,0.2l-1.2-0.9c-1.2-1-0.5-3.2,0.3-5.6
			c0.7-2,1.4-4,1-5.7c1,0.6,1.9,1.2,2.8,1.9c0.1,0.1,0.2,0.2,0.3,0.2l0.6,0.5v-0.8c0-1.2-0.2-2.2-0.5-3.1c-0.2-0.5-0.4-1-0.6-1.5
			c-0.2-0.4-0.3-0.7-0.5-1.1c0.3,0.2,0.7,0.4,1.2,0.6c0.5,0.2,1.1,0.5,1.8,0.9l0.6,0.4v-0.7c0-4.9-2.9-9.4-4.7-11.6
			C398.9,259.6,401.5,260.8,403.4,261.2z M401,269.6c-0.5-0.3-0.9-0.5-1.3-0.6c-0.9-0.4-1.5-0.7-1.9-1.6l-0.8,0.2
			c0,1.1,0.4,2,0.8,2.9c0.4,0.9,0.9,2,1,3.4c-1.1-0.8-2.2-1.6-3.5-2.3l-1.3-0.7l0.7,1.2c0.9,1.5,0.1,3.9-0.7,6.1
			c-0.7,2.1-1.4,4.1-0.8,5.5c-4.4-0.9-8.9-3.8-10.7-7l-0.2-0.4l-0.4,0.2c-1,0.7-1.3,1.6-1.4,2.6c-2-1.6-6.6-5.6-6.1-7.1L374,272
			c-0.9,1.3-1.2,2.1-1.4,3.3c-2.6-2.6-4.8-5.2-5.7-8.5l-0.2-0.8l-0.5,0.6c-0.6,0.8-1,1.2-1.3,1.6c-0.2,0.3-0.4,0.5-0.7,0.9
			c-0.8-4.6-0.7-4.8,0.9-9l0.6-1.5l-1,0.7c-1.1,0.7-2,1.4-3,2.2c1.6-8.1,7.8-16.5,15.6-20.9c-0.2,0.6-0.3,1.1,0,1.5
			c0.4,0.6,1.3,0.6,2.9,0.6c3.2-0.1,9.3-0.2,16.9,5.5c2.3,1.8,5.6,8.5,6,12c-2.9-0.8-7.4-3.3-7.4-3.3l-0.5,0.6
			C395.2,257.7,400.6,263.2,401,269.6z"/>
		<path fill="#A70000" d="M375.2,259.6c0.8-4.8,0.3-6.5-1.3-6.6c-1.7-0.1-1,3.4-1.6,8.2c-0.3,2.7-1.4,4.3-1.9,8.5
			C373.7,265.5,374.4,264.3,375.2,259.6z"/>
		<path fill="#A70000" d="M379.1,263c-1.5,0.3-0.2,3,0.1,7c0.2,2.3-0.4,3.8-0.1,7.3c2.1-4,2.5-5.1,2.3-9.2
			C381.4,264.1,380.6,262.7,379.1,263z"/>
		<path fill="#A70000" d="M389.2,277.6c-1.7-3.5-2.1-6.3-3.4-5.8c-1.3,0.5-1.2,2,0.7,5.4c1.9,3.4,2.8,4.1,6.5,6.4
			C391.5,280.5,390.2,279.6,389.2,277.6z"/>
		<path fill="#A70000" d="M386.5,254.2c4.5,2.1,5.8,2.2,11.2,1.9c-3.8-2-5.8-2-8.2-3.3c-4.3-2.3-6.8-4.8-7.7-3.4
			C380.9,250.8,382,252.2,386.5,254.2z"/>
		<path fill="#A70000" d="M392.9,263.4c-3.2-2.6-4.7-5.2-5.8-4.1c-1.1,1-0.3,2.4,3,4.9c3.3,2.5,4.4,2.8,9,3.4
			C396.3,265.3,394.7,264.9,392.9,263.4z"/>
	</g>
	<path fill="none" stroke="#999999" stroke-width="0.25" stroke-linejoin="round" d="M524.1,275.8l-1.3-5.3l-2.2-19.5l0.9-5.5
		l5.6-15l0.6-5.1l-1.2-6.5l-2-7l-0.9-6.8l2.2-5.9l-11.3-2.9l-4.9-2.7l-4.4-4.2l-9.8,4.8l-4.9,1.2l-4.9-1.5c-1.1-0.7-2.3-1.5-3.4-2.2
		c-10.7-6.9-21.4-13.9-32.2-20.8c-11.4-7.3-22.7-14.6-34-22l-4.3-1.4l-5,0.1l-5.9,1.6l-4.8,2.4c-0.6,0.6-1.3,1.1-1.9,1.7
		c-10.2,9-20.3,18.1-30.5,27.1l-2.2,3.9l-2.7,10l-9.2,22L338,236.9c-1.1,1.4-2.3,2.9-3.4,4.3c-8.3,10.4-16.6,20.9-24.8,31.3
		l-3.7,14.2c0,2.3,0.1,4.6,0.1,6.8c0.2,13.2,0.3,26.4,0.4,39.6l1.7,13l1.2,4.5l3-0.2l2.8-0.5l2.9-1.6l2.6-2.2l2-2.4l3.8,11.3
		l2.3,3.4l4.9,5.2l1.8,2.8l1,3.8l-0.2,4.8l-1.7,7.5l0.7,4.8l3.8,6.6l17.6,15.9l8.1,12.3l2.6,2.6l2.6,1.7l17,5.9
		c11.5,4,23.1,8,34.6,11.9l11.5,2.3c13.1,0.2,26.2,0.4,39.2,0.6c12.1,0.2,24.1,0.3,36.2,0.5l-0.1-2.5l-0.5-2.2l-0.9-2.1l-1.2-2.1
		l-1-2.8c-0.3-9.8-0.6-19.7-0.9-29.5l2.3-13.4c2-12.2,4.1-24.4,6.2-36.5l-0.4-5.8l11.4,0.1l2.8,0.5l4.2,4.2l2.8,1.2l0.6-49
		l-1.7-15.6L524.1,275.8z"/>
</g>

</svg>
