<?xml version="1.0" encoding="utf-8"?>

<svg version="1.2" baseProfile="tiny" xmlns="http://www.w3.org/2000/svg" xmlns:xlink="http://www.w3.org/1999/xlink" x="0px"
	 y="0px" viewBox="220.2 181.6 400 230.9" xml:space="preserve">

<g id="Turks_and_Caicos_Islands">
	<g>
		<polygon fill="#00247D" points="400.3,211.8 400.2,211 399.6,210.6 399.1,211.1 398.8,210.6 396.9,210.9 396.2,211.8 396.8,212.4
			397.4,212.5 397.2,213.2 397.5,213.5 397.5,214.2 398,214.7 398.4,214.4 398.5,213.8 399.3,213 399.8,212.8 		"/>
		<polygon fill="#00247D" points="402,210.4 402.6,209.4 402.9,209.3 402.9,208.9 401.9,207.5 401.5,207.3 400,209.8 400.3,210.1
			401,210.4 		"/>
		<polygon fill="#00247D" points="335.7,205.9 333.9,205.5 333.5,205.1 333.3,203.2 332.9,202.9 331.7,202.9 330.8,203.8
			330.5,203.8 330.2,204.4 330.2,205.4 330.4,205.9 330.2,206.6 329.5,207.8 327.3,209.9 327.3,210.1 327.4,210.2 335.6,206.1 		"/>
		<polygon fill="#00247D" points="337.3,197.5 337.3,197.8 340.3,197.9 340.8,198.6 342.2,198.6 342.5,198.8 343,198.2 343.3,197.3
			343.9,197.2 344.5,196.3 343.8,195.4 343.8,194.9 342.8,193 343.3,191.8 343.1,190.9 344,189.7 344,189.2 344.2,189 344.1,188.4
			343.4,188.4 342.7,189.1 340.6,189.8 339.6,190.3 339.1,190.3 338.8,190.6 338.5,192.5 338.3,192.8 338.3,193.2 338.5,193.5
			338.5,194 338.3,194.2 338.3,195.4 338.5,195.9 338.1,196.8 		"/>
		<polygon fill="#00247D" points="224.6,260.3 224.5,260.4 224.5,261.6 227.3,260.3 		"/>
		<polygon fill="#00247D" points="377.3,184.9 377.1,184.7 374.3,184.4 372.3,183.3 370.5,183.3 370.2,183.5 369.7,183.5
			369.3,183.3 368.3,183.2 366.5,182.6 364.6,182.3 362.5,181.6 360.8,181.6 360.1,182 358.4,182.1 358.2,182.6 357.9,182.4
			353.2,182.4 352.7,182.2 351,183.1 350.1,183.4 349.6,183.8 348.2,183.8 347.7,184.1 346.6,185.9 346.4,186.8 344.7,188.2
			344.7,189.9 344,190.6 343.8,191.1 343.8,192.3 344.1,192.4 344.6,191.9 345,192.1 345,192.8 345.4,193.7 345.4,194.4
			345.7,194.7 345.7,196.3 345.9,196.6 345.9,197.1 346.5,197.7 347.7,198.1 348.2,197.9 348.7,197.9 348.9,197.6 349.7,197.8
			349.1,197.9 348.8,198.2 348.8,198.7 349.2,199.3 377.9,185 377.9,184.9 		"/>
		<polygon fill="#00247D" points="326.8,210.5 326.1,210.5 325.3,211.3 		"/>
		<polygon fill="#00247D" points="391.4,207.7 391.5,208 391.8,208.9 392.1,209.1 393.5,209.5 393.7,210.2 394.4,210.9 395.4,210.6
			396.1,210.2 396.5,209.6 396.5,208.9 395.2,206.8 394.3,205.8 394.1,205 390.5,206.8 		"/>
		<polygon fill="#00247D" points="335.3,205.5 336.5,205.5 337.6,204.2 337.6,203.5 336.5,203.4 336.3,203.1 335.6,203.1
			335.4,203.7 335.7,204 334.7,204.4 334.5,205.1 335.1,205.3 		"/>
		<polygon fill="#00247D" points="340.9,203 340.9,202.8 340.6,202.4 340.1,202.4 340,202.5 340,202.8 340.3,203.1 340.8,203.1
			"/>
		<polygon fill="#00247D" points="335,203.7 334.8,203.6 334.6,203.6 334.2,204 334.2,204.4 334.4,204.6 335,204 		"/>
		<polygon fill="#00247D" points="336.3,198.1 335.7,198.5 335.4,199.2 335.2,199.7 334.5,200.2 334.2,200.9 336,201.2 336.3,201.5
			337.7,201.2 337.9,201.9 338.4,202.2 339.1,201.7 340.8,201.7 341.6,201.1 341.6,200.2 341.3,199.8 340.1,199.8 339.5,199.2
			339.5,198.7 339.1,198.4 336.5,198.4 		"/>
		<polygon fill="#00247D" points="389.4,208 389.5,208.2 390.3,208.3 391,207.8 391.1,207.6 390.3,206.9 389.4,207.3 		"/>
		<polygon fill="#00247D" points="331.5,201 331,201 330.7,201.6 330.9,201.8 331.1,202.6 331.5,202.6 331.8,202.4 333.4,202.4
			333.6,202.7 334.5,202.5 334.4,201.9 333.4,201.9 		"/>
		<polygon fill="#00247D" points="397.7,217.2 397,216.1 396.2,216.3 395.4,216.1 394.5,215.8 394.1,216.1 394.8,217.7 395.1,217.6
			395.2,217.8 395,218 394.1,218.2 394,218.3 397.6,218.3 		"/>
		<polygon fill="#00247D" points="413.4,218.1 412.9,218 411.7,217.1 410.8,217.1 409.5,216.4 409.1,216.3 408,215.2 407.6,215.1
			407.1,214.3 406.3,214 405.3,212.1 404.4,211.2 404.1,211.1 403.7,211.5 403.4,212.2 403.2,212.8 402.6,213 400.9,213
			399.9,213.3 399.6,214.2 399.8,214.4 400.4,214.6 400.4,215.3 400.5,215.5 400.1,215.9 400.1,216.9 400.5,217.3 400.3,217.6
			400.3,218.3 413.7,218.3 		"/>
		<polygon fill="#00247D" points="392.2,218.3 392.5,218.2 393.6,218.2 394.3,217.8 393.7,216.2 392.9,215.1 391.9,214.5
			391.5,214.8 392,215.4 392,215.8 391.5,215.8 390.8,215.4 390.4,215.4 389.6,214.9 387,212.6 386.9,212.2 386.6,212.1
			386.5,211.8 385.6,211 385.5,210.6 384.7,209.7 367.4,218.3 		"/>
		<polygon fill="#00247D" points="423.1,217.7 422.6,217.8 421.7,218.3 423.1,218.3 		"/>
		<polygon fill="#FFFFFF" points="348.9,213.8 349.1,213.6 350.3,213.6 351,214.1 351.5,214.1 351.7,213.8 352.7,213.8 354.4,214.5
			355.1,214.6 355.3,215 355.5,215 356.4,215.9 356.4,216.8 357,217.2 357.7,217.2 358.4,217.8 359,218.3 367.4,218.3 384.7,209.7
			384.2,209 382.7,205.4 381.7,201.8 381.2,200.3 381.2,199.6 381.5,199 381.2,198.4 381.2,197.4 348.3,213.8 		"/>
		<polygon fill="#FFFFFF" points="329.1,211 330.1,210.3 331,210 332,209.1 332.5,208.8 333.2,208.8 333.7,208.4 333.9,208.4
			335.2,207.1 335.6,206.1 327.4,210.2 328.7,211 		"/>
		<polygon fill="#FFFFFF" points="350.4,201.3 350.4,201.6 350.9,202 350.8,202.4 350.3,201.9 349.6,201.7 349,202.3 348.9,202.9
			347.7,202.9 347.6,203.5 348.1,204.2 348.1,204.6 381.5,187.8 381.5,187.8 380.6,186.9 382.2,187.5 383.1,187 382.7,186.6
			382,186.3 381.3,185.9 380.1,185.9 379.4,185.4 378.2,185.2 377.9,185 349.2,199.3 		"/>
		<polygon fill="#FFFFFF" points="347.2,214.6 348,214 346.8,214.5 		"/>
		<polygon fill="#FFFFFF" points="392,199.4 391.6,196.2 391.2,195.9 390.4,196 390.5,198.2 391.3,200 391.3,200.8 391.5,201.7
			390.3,204.6 390.6,205.4 388.9,206.3 388.8,206.5 389.4,207.2 389.4,207.3 390.3,206.9 390.3,206.8 390.3,206.6 390.5,206.8
			394.1,205 393.8,203.9 393.4,203.2 393,201.4 392.7,201.1 392.6,200.6 		"/>
		<polygon fill="#FFFFFF" points="333.9,211.5 333.4,211.5 333.1,211.8 333.1,212 334,211.6 		"/>
		<polygon fill="#FFFFFF" points="381.6,197.7 382,197.8 382.4,197.3 382.2,196.9 381.5,197.2 		"/>
		<polygon fill="#FFFFFF" points="332.7,210.5 332.1,210.8 332,211.2 331.6,211.3 331.6,211.8 332.2,211.9 334,210.9 333.4,210.5
			"/>
		<polygon fill="#FFFFFF" points="261.7,218.3 273.4,218.3 271.3,216.2 270.3,215.7 269.4,215.3 268.9,215.3 268.2,214.8
			267.7,214.8 267.1,214 266.7,212.5 265.7,211.8 265.7,211.6 265.1,211 264.9,211 263.4,210 263.2,209.6 263,209.5 261.9,211.1
			261.9,211.8 262.1,212.1 262.1,213 261.9,213.2 261.9,214 262.6,214.7 262.6,215.6 262.4,215.9 262.6,216.8 262.4,217 		"/>
		<polygon fill="#FFFFFF" points="220.5,277.7 229.6,273.2 230.2,272.5 230.9,268.7 231.2,268.5 231.2,267.5 231.4,267.3
			231.4,265.1 231.7,264.9 231.7,263.9 231.9,263.7 231.9,263 232.1,262.8 232.4,261.1 232.8,260.3 227.3,260.3 224.5,261.6
			224.5,261.8 224.8,262 224.8,263 224.5,263.2 224.5,265.8 224.3,266.1 224,268.7 223.6,269.6 223.1,271.8 222.4,273.2
			222.1,274.4 220.7,276.3 220.7,277 220.5,277.3 		"/>
		<polygon fill="#FFFFFF" points="324.6,211.9 323.9,212.2 322.5,213.4 322,213.4 321.3,213.8 320.8,213.8 319.2,214.9 319.3,215.4
			321,216.2 321.5,216.2 322.5,215.5 322.8,215.9 322.6,216.1 322.7,216.2 323.4,216.2 324.1,215.7 324.9,215.7 325.1,215.5
			326.2,215.5 328.1,214.6 328.1,213.5 327.8,213.2 327.8,212.8 328.3,211.8 328.3,211.3 327.5,210.8 327,210.5 326.8,210.5
			325.3,211.3 		"/>
		<polygon fill="#FFFFFF" points="385.1,196.4 385.9,196.8 386.3,196.8 385.7,197.8 385.8,198.2 386.2,199.4 385.3,199.7
			384.8,200.1 384.9,200.9 385.3,201.1 385.3,201.9 384.8,202.7 384.8,203.2 385.3,203.8 385.6,204.8 386.4,205.5 387.3,205.1
			387.7,204.7 387.6,203.7 387,202.8 387.1,202.6 387.6,203.2 388.4,203.2 388.6,203.7 389.5,204.4 390.2,204.3 390.7,202.7
			390.8,200.6 390.3,198.8 390.1,196.6 389.4,196.1 390.2,195.4 390.6,195.6 391.3,195.6 393.5,195.6 393.9,195.9 394.5,195.6
			394.6,195.1 394.5,194.8 394.1,194.5 393.6,194.5 393.2,193.8 392.3,193.7 391.8,192.1 385.3,195.3 		"/>
		<polygon fill="#CF142B" points="327.7,215.5 328.1,215.1 328.1,214.6 326.2,215.5 		"/>
		<polygon fill="#CF142B" points="348.1,205.6 348.4,206 349.1,206 349.7,206.6 349.7,207.3 349.5,207.5 349.6,207.9 351.3,207.9
			351.8,207.6 352,207.4 352.7,207.4 352.9,207.2 353.2,207.6 353.6,207.6 353.9,207.9 355.3,207.9 355.6,208.1 355.9,208.2
			355.8,208.4 355.1,208.4 354.8,208.1 353.2,208.1 352.7,207.9 352.6,208.2 352.2,208.4 351.5,209.3 350.8,209.3 350.2,209.7
			350.2,210.6 349.1,211.9 348.4,211.9 347,211 346,211 344.7,212.1 345.1,212.6 345.8,212.6 346.1,213 346.3,214.5 346.8,214.5
			348,214 348.2,213.8 348.3,213.8 381.2,197.4 381.2,194.5 382.2,193.3 382.3,192.2 382.7,191.8 383.5,191.6 384,191.2
			384.6,189.6 384.3,188.7 383.8,188.2 383,187.8 382.2,187.8 382,188 382.2,188.8 382,189.8 381.6,190.4 381.3,190.4 381.7,190
			381.7,188.3 381.5,187.8 348.1,204.6 		"/>
		<polygon fill="#CF142B" points="220.5,278 220.2,278.2 220.2,278.5 220.6,278.8 221.3,278.8 222,278.3 223,278.4 223.9,277.9
			224.1,277.6 224.9,277.6 225.3,277.4 226.1,276.7 226.3,276.7 226.8,276 227,276 229.6,273.2 220.5,277.7 		"/>
		<polygon fill="#CF142B" points="381.7,196.6 381.5,196.9 381.5,197.2 382.2,196.9 382.1,196.7 		"/>
		<polygon fill="#CF142B" points="333.7,214.3 334.1,214.3 334.4,214.6 335.2,214.2 335.2,213.5 334.7,212.8 334.7,212.3 334,211.6
			333.1,212 333.3,213.5 333,213.7 		"/>
		<polygon fill="#CF142B" points="390.3,190.9 389.3,190.6 388.2,190 385.6,187.6 385.1,187.6 384.9,187.3 384.3,187.4 384.1,187.7
			384.9,189.3 384.6,191.1 385.7,191.7 384.7,192 384.6,192.9 384.1,193.2 384.1,193.7 384.4,194 385.1,194 385.3,194.3
			385.3,194.7 385.1,195 385.3,195.3 385.3,195.3 391.8,192.1 391.6,191.7 		"/>
		<polygon fill="#CF142B" points="382.3,187.6 383.2,187.5 383.4,187.3 383.1,187 382.2,187.5 		"/>
		<polygon fill="#FFFFFF" points="398.6,221.8 398.4,222 398.4,222.7 398.7,223 399.3,222.4 399.2,222.1 398.9,221.8 		"/>
		<polygon fill="#FFFFFF" points="423.1,218.3 421.7,218.3 421.4,218.5 420.5,218.5 420.2,218.7 417.6,218.8 414.5,218.6
			413.9,218.5 413.7,218.3 400.3,218.3 400.3,219 400.6,219.5 400.3,219.9 401,220.3 401,220.9 400.7,221.1 400.1,220.8 399.7,221
			399.6,221.8 399.9,222.4 399.5,222.6 399.1,223.1 399.4,224 398.9,224 398.2,224.8 397.8,224.4 397.2,224.4 396.6,225.1
			395.8,225.4 392.2,226.4 391.6,226.1 390.8,226.4 390.4,226.7 423.1,226.7 		"/>
		<polygon fill="#FFFFFF" points="404.2,252.3 404.6,252.2 405.2,251.9 403.5,251.9 		"/>
		<polygon fill="#FFFFFF" points="403.5,252.1 402.9,252.3 402.5,253.5 402.7,253.7 403.2,253.7 403.6,253.2 403.9,252.4
			403.7,252.2 		"/>
		<polygon fill="#FFFFFF" points="261.2,219.4 261.2,220.1 260.9,220.4 260.9,221.3 260.5,221.8 260,222.8 259.8,224.2 259.5,224.4
			259.8,225.1 259.5,225.6 258.4,226.7 280.3,226.7 279,225.4 278.8,224.7 277.6,223.5 277.6,223.2 276.9,222.5 276.2,221.3
			275.5,220.6 275.5,220.4 275,220.1 275,219.9 274,219.2 274,218.9 273.4,218.3 261.7,218.3 		"/>
		<polygon fill="#FFFFFF" points="359,218.3 359.8,219.1 361.4,220 362.1,219.9 363.3,220.4 364,220.3 365,220.7 365.4,221.5
			366.1,221.8 366.9,221.1 368.2,220.8 368.6,220.5 368.4,221.3 367.6,221.8 366.8,221.8 366.2,222.2 366.2,222.5 366.7,223
			368.1,223.3 370.1,224.5 371.8,225.6 372.9,225.6 373.2,225.4 373.8,225.9 373.8,226.1 372.2,226.3 371.9,226.3 371.2,225.7
			370,225.6 369.5,225.1 368.9,225.3 368.8,225.6 369.9,226.6 369.8,226.7 390.1,226.7 390.1,226.7 390.8,225.8 390.9,225.6
			391.6,225.9 392.9,225.8 393.1,225.6 393,225.4 393.3,225.2 393.2,224.9 393.8,225.2 394.6,225.1 395.5,224.6 396.3,223.8
			396.9,223.7 397.7,223 397.4,221.5 396.3,221.1 396,220.4 396.5,219.9 396.5,219.2 396.7,218.7 397.3,218.7 397.6,218.4
			397.6,218.3 394,218.3 393.6,218.9 393.4,218.7 391.8,218.7 391.9,218.5 392.2,218.3 367.4,218.3 		"/>
		<polygon fill="#FFFFFF" points="317.8,218.7 319.4,220 320.1,220 320.9,219 320.9,218.5 318.2,218.4 		"/>
		<polygon fill="#FFFFFF" points="317,216.2 316,216.7 315.6,217.2 314.5,217.8 314.3,218.5 314.6,219.1 315.1,219.3 316.1,218.4
			316.5,218.4 318.1,216.8 318.1,216.3 		"/>
		<polygon fill="#FFFFFF" points="232.8,260.3 233.3,259.2 233.8,257.3 234.5,255.6 235.1,255 235.8,254.8 236.3,255 237.2,254.3
			237.5,254.5 238.1,254.2 238,253.8 236.5,253.8 236.3,254.1 235.1,254.1 234.9,254.3 234.6,254.1 234.4,254.3 233.7,254.3
			233.4,254.5 233.2,254.3 232,254.3 231.5,254.1 230.6,254.5 230,255.1 229.8,255.9 229.4,256.2 228.2,256.4 228,256.7
			226.5,256.7 225.5,257.3 225.5,258 224.6,260.3 227.3,260.3 		"/>
		<polygon fill="#FFFFFF" points="320.1,226.5 320.3,226.7 320.7,226.3 320.9,225.9 320.9,225.1 320.6,224.8 319.4,224.8
			318.9,224.5 318.7,224.1 318.2,224.1 317.9,223.8 317,223.8 315.7,222.5 315.7,221.8 315.2,221.1 315.2,220.6 314.4,220.3
			312.6,221.6 312.6,222.3 311.2,223.9 311.2,224.2 310.4,225.1 310.2,226.3 310,226.7 319.8,226.7 		"/>
		<polygon fill="#FFFFFF" points="318.9,220 317.9,219.5 317.7,219.3 316.9,219.9 316.9,220.4 316.2,221.3 316.2,222.1 316.7,223.1
			317.2,223.1 317.5,223.4 319,222.7 319,221.6 319.5,220.9 		"/>
		<polygon fill="#CF142B" points="385.3,229 385.2,229.3 385.5,229.6 386.2,229.3 386.3,229.1 386.2,228.7 385.8,228.6 		"/>
		<polygon fill="#CF142B" points="381.7,231.6 380.6,231.5 379.8,232 380,232.5 381.3,233 382.1,233 382.4,232.8 382.1,231.9 		"/>
		<polygon fill="#CF142B" points="369.6,227.1 369.1,227.2 369.5,227.7 372,227.8 372.2,228 373.1,228 373.7,228.7 374.7,228.7
			375.2,229 375.8,229 376.7,229.4 378.4,229.7 379.1,230.1 379.5,230.8 380.6,230.8 381.1,229.6 382,229.6 382.3,229.4
			382.7,229.9 383,229.9 383.3,229.6 383.6,228.9 384.4,228.7 384.4,229.1 384.8,229.2 385.7,228.4 387.1,228 387.7,228
			388.6,227.7 389.3,227.1 390.1,226.7 369.8,226.7 		"/>
		<polygon fill="#CF142B" points="423.1,226.7 390.4,226.7 390.3,226.8 390.1,228 388.7,228 388.3,228.2 387.8,228.2 387,228.8
			386.4,229.5 385.5,230.2 385,230.5 384,231.7 382.7,232.5 382.9,233.7 383.4,233.7 384,233.2 384.1,232.4 384.5,232 385.6,231.1
			387.1,230.2 387.4,230.5 387,230.5 384.5,232.4 384.1,233.3 384.5,233.5 384.8,233.5 385.4,232.8 385.8,232.7 384.9,233.8
			385.3,234 386.2,233.5 386.9,233.1 388.4,231.3 388.6,231.4 387.8,232.4 387.9,232.7 388.6,232.8 388.3,233 387.9,233
			386.9,233.9 386.3,234.1 386.1,234.7 386.4,235 385.8,235.3 385.7,235.7 386,236.1 386.5,236.2 387.2,236.1 388,235.1
			388.6,234.6 390.5,234.7 390.5,235.1 390.9,235.4 391.7,234.4 391.6,235.1 390.9,236 390.5,235.6 390.1,235.6 388.1,237.3
			388.4,237.8 389.1,237.7 389.5,237.3 390,237.3 390.1,237.7 390.5,238.2 391.8,238.3 392.3,238.1 392.4,237.8 392.2,237.5
			392.6,237.2 393.1,237.8 392.1,238.7 392.8,239.2 394.4,238.6 395.1,237.5 396,236.8 396,237.2 394.9,238.2 394.1,239.6
			394.2,239.9 394.8,239.9 396.1,238.4 396.2,238.8 395.8,239.2 395.8,239.7 396,239.9 396.5,239.9 397,239.4 400.1,239.4
			399.9,239.6 399.2,239.7 398.6,239.9 397.9,240 397.1,240.4 396,240.4 394.8,241.5 395.8,242.5 396,242.6 396.6,242.9
			396.5,243.2 395.3,243.7 393.9,243.7 393.1,244.4 393.2,245.3 395.4,246.4 395.8,246.6 399.2,246.6 400.3,247.2 400.4,247.6
			400.8,248 401.3,247.9 402.1,247 403.2,247.1 403.8,247.4 402.9,248.3 403.1,249.4 402.4,250.1 402.5,250.5 403.4,251.2
			403.4,251.8 403.5,251.9 405.2,251.9 405.3,251.9 406.2,249.8 406.9,247.7 406.9,247.1 407.4,246.3 407.8,245.2 408.2,244.9
			409.1,244.9 409.9,244.6 410.3,244.1 410.3,243.1 410.6,242.6 410.7,241.9 411.1,241.5 412.8,240.7 414.1,239.4 414.2,239.5
			413.9,240.2 412.4,241.6 412.2,242.3 411.9,242.5 411.7,242.3 411.2,242.3 411,242.8 410.7,243.1 410.7,244.2 410.3,244.9
			410.3,245.8 411,246.3 411.6,246.3 413.3,246.6 414,246.2 414.6,245.6 414.9,245.6 414.3,247.3 414.5,247.7 415.1,247.8
			416,248.2 417.1,248.2 418,247.5 418.7,247.8 419.1,248 420.1,247.9 420.5,247.5 420.5,246.9 420.8,246.3 421.5,245.3
			421.5,244.8 422.4,245.9 423,247.7 423.1,247.7 		"/>
		<polygon fill="#CF142B" points="261.6,234.7 261.6,234.2 261.5,234.1 261.3,234.1 260.9,234.4 260.9,234.7 261.1,234.8
			261.5,234.8 		"/>
		<polygon fill="#CF142B" points="285.6,244.8 285.7,244.7 285.7,244.4 285.3,244.3 285.1,244.1 284.6,244.1 284.5,244.4
			285.1,244.8 		"/>
		<polygon fill="#CF142B" points="285.6,246.2 285.3,246.4 285.1,246.2 284.8,246.2 284.7,246.8 284.9,246.9 285.8,246.9
			286.2,246.6 285.8,246.2 		"/>
		<polygon fill="#CF142B" points="258.4,226.7 257.8,227.3 257.9,227.5 257.1,228 257.1,228.5 257.6,229.2 257.6,230.9 257.8,231.1
			257.8,232.8 258.3,233.5 258.3,234.4 258.1,234.9 258.9,235 260.1,233.8 261.3,233.8 261.7,233.5 261.8,231.2 262.1,231.6
			261.9,231.8 261.9,232.5 262.4,233 262.4,233.5 262.6,233.7 262.6,234.7 261.9,234.9 261.8,235.5 261.1,235.5 260.3,234.8
			259.6,234.8 258.1,236.3 258.1,236.6 257.6,237.5 257.7,238.3 258.1,238.2 258.3,237.3 259.2,236.7 259.7,237 259.7,237.5
			259.3,238.2 259.3,238.7 258.3,239.9 258.3,240.1 258.2,240.3 257.7,239.8 257.2,239.8 257.1,240.1 256.8,240.5 256.5,240.5
			256.4,240.6 256.4,240.8 256.8,241 257.8,242.1 258.1,242.5 257.8,242.8 258.4,243.1 260.1,241.9 261.1,241.5 262.7,241.2
			263.9,240.7 265.6,240.5 265.8,240.3 268.4,240.3 268.9,239.5 269,240.4 269.4,240.5 269.9,240 270.8,240 271.4,240.6
			271.4,240.8 272.1,241.3 272,241.4 271.3,241.2 271.1,240.7 270.6,240.7 270.3,240.5 270.1,240.5 270,240.9 271.5,242.4
			273.7,242.4 274,242.8 274,243.5 274.4,243.8 275.1,243.8 275.3,243.6 275.8,243.6 276.2,243.9 276.6,244.9 276.6,245.4
			277,245.7 278.7,245.7 279.2,245.5 279.4,245.3 281.3,245.5 281.5,245.3 282,245.7 282.8,243.5 283.3,242.8 282.5,242.4
			282.4,241.8 283,241.7 283.2,241.9 283.3,241.8 283.1,240.4 283.6,239.7 284.9,238.3 286,237.9 286.8,237.9 286.9,237.3
			287.2,237.2 287.7,236.9 287.8,237.3 287.6,237.8 289.7,239.2 289.5,240.6 290.1,241.5 290.6,241.5 292.2,240 292.7,240
			292.9,239.8 293.4,239.8 293.6,240.4 293.9,240.7 294.6,240.7 294.8,240.3 295.1,240.3 296.5,239.1 297.2,239.1 297.5,238.8
			298.4,238.8 298.7,238.6 299.8,238.6 300.3,239.3 301,239.3 302,238.8 302.2,239.1 302.5,238.8 303.4,239.5 303.9,239.5
			304,239.9 304.3,240.1 304,240.4 304.4,240.7 306.5,240.7 307.7,239.8 309.1,239.5 309.9,239.1 310.9,237.8 311.4,236.8
			312.3,235.6 312.4,235.1 312.8,234.7 312.8,234.2 313.8,233 313.8,232.5 314.3,232 314.5,231.1 315,230.6 315.4,229.2
			315.8,228.6 316.3,228.6 316.5,228.8 317.5,228.8 318.9,227.4 319.1,227.4 319.8,226.7 310,226.7 309.7,227.3 308.9,228.1
			307.9,228.6 307,228.6 306.8,228.8 306.3,228.6 305.8,228.6 305.6,228.8 304.6,228.8 303.7,229.8 302.5,230.5 299.1,232.9
			298.7,232.9 298.4,233.1 297.7,233.1 297.5,232.9 296,232.9 294.8,232.2 293.9,231.4 292.9,231.4 291.8,232.4 291.5,232.2
			289.9,231.9 289.6,231.7 287.7,231.2 287.5,231 286.1,231 285.8,230.7 285.1,230.7 284.6,230.5 283.7,229.6 282,228.6
			281.8,228.1 281.5,228.1 280.3,226.7 		"/>
		<polygon fill="#CF142B" points="282.7,246.9 282.8,246.8 282.8,246.6 282.5,246.2 282.2,246.2 282.1,246.3 282.1,246.6
			282.5,246.9 		"/>
		<polygon fill="#00247D" points="619.2,349.1 618.2,349.2 617.8,350.1 618.1,350.7 618.8,351.1 619.1,350.4 619.1,350 619.5,349.6
					"/>
		<polygon fill="#00247D" points="599.5,328.9 599.7,329.8 600.7,332.3 601.6,333.4 602.5,336 603.2,336.4 603.7,335.6 604,335.1
			606.4,333.9 607.6,332.7 607.8,332.2 607.8,330.8 606.4,330.2 607,330.1 607.5,329.7 607.6,328.9 607.8,328.5 607.5,327.6
			607.5,326.9 607.7,326.5 607.6,326.3 607.1,324.8 607.1,323.7 606.6,322.7 606.9,319.9 606.6,319.6 606.6,317.8 606.9,317.5
			606.9,316.8 607.1,316.5 607.1,314.6 606.8,314.4 606.9,312.5 606.9,310.4 606.4,309.9 606,309.9 605.4,310.2 604,311.5
			603,311.8 601.7,313.1 600.9,314.9 600.9,315.7 600.7,316.1 600.7,318.7 601.2,319.5 600.9,320.6 601.2,322.3 601.4,322.5
			601.4,324.6 600.9,326 		"/>
		<polygon fill="#00247D" points="460.9,325.5 460.6,325.7 460.7,326 462.7,326.1 463.4,325.8 463.9,325.3 463.6,324.9 462.2,324.9
					"/>
		<polygon fill="#00247D" points="466.2,324.4 465.9,324.1 465,324.2 464.4,324.4 464,324.9 464.3,325.4 464.6,325.1 465.5,325.1
			466.1,324.8 		"/>
		<polygon fill="#00247D" points="417.5,405.9 417.7,406.4 418.8,406.5 419.3,406.1 418.6,405.1 418.1,404.9 		"/>
		<polygon fill="#00247D" points="454.3,268.2 454.8,268.3 455.4,268.7 456.2,268.5 456.8,267.9 457,266.8 456.9,265.8 456.3,265.6
			456,266.1 455.5,266.3 453.7,266.7 453.6,267.6 		"/>
		<polygon fill="#00247D" points="597.1,353.5 597.1,354.2 597.4,354.5 599.3,354.4 599.5,354.2 600,354.1 600.7,353.4 601.6,353.2
			602.6,352.3 603.1,352.2 603.6,351.6 603.1,351.1 602.2,351 601.3,351.5 599.9,351.5 598.5,351.8 		"/>
		<polygon fill="#00247D" points="609.3,350.6 609.8,350.6 610,350.3 609.5,349.7 609.5,348.7 609.2,348.4 608.7,348.4 608.5,348.8
			608.5,349.6 608.8,350.2 		"/>
		<polygon fill="#00247D" points="614.5,338.3 616.3,339.1 616.9,339.9 617.7,339.8 617.6,338.9 615,337.3 614.5,336.8 613.8,336.5
			613.5,336.8 613.5,337.1 		"/>
		<polygon fill="#00247D" points="611.8,329.6 611.6,329.9 611.4,330.7 611.7,331.1 612.1,330.9 612.8,329.9 612.4,329.6 		"/>
		<polygon fill="#00247D" points="613,331.5 612.8,331.3 612.5,331.8 612.8,332.2 613.3,332.2 613.5,332.1 613.5,331.6 		"/>
		<polygon fill="#00247D" points="619.7,355.8 619.5,355.1 619.7,354.3 619.5,353.5 619.2,353.7 618,353.7 617.5,354.5 618.1,355.6
			619.9,357.3 620.1,357.2 620.2,356.8 620.2,356.3 		"/>
		<polygon fill="#00247D" points="449.7,406.5 449.5,406.9 449.6,407.6 449.9,407.8 450.6,407.7 450.7,407.5 450.6,406.7
			450.5,406.5 		"/>
		<path fill="#00247D" d="M503.1,289.2l-0.5,0l-0.5,1.6l-0.5,0.2l-0.1,0.6l1.4,0.8l0.3-0.2l0.1-1.2l0.1-1.2c0-0.1,0-0.2,0-0.2
			L503.1,289.2z"/>
		<polygon fill="#00247D" points="574,399.4 574.1,399.1 573.9,398.8 573.5,398.7 573.2,399.1 573.5,399.7 573.8,399.6 		"/>
		<polygon fill="#00247D" points="475.6,277.5 475,278 475.6,278.6 476.4,278.9 477,278.4 476.7,278 		"/>
		<polygon fill="#00247D" points="476.7,318.4 477.4,319.1 478.1,318.5 478,318 477.6,317.7 		"/>
		<path fill="#00247D" d="M502.4,286.6l0,1.4l0.6,0.7l0.4-0.3c-0.1-1.4-0.1-2.7-0.1-4.1l-0.3,0.1l-0.7-0.3l-0.4,0.4l0.1,0.4
			l-0.2,0.3L502.4,286.6z"/>
		<polygon fill="#00247D" points="571.9,401.7 571.9,403.4 573.1,404.9 573.6,404.7 573.6,404.3 573.3,403.9 573.3,400.8
			573.5,400.1 573.1,399.7 572.8,398.8 572.9,398.2 572.6,398 572.2,398 571.9,398.3 571.9,399.2 572.1,399.7 572.1,401.3 		"/>
		<polygon fill="#00247D" points="472.3,374.7 472.4,375.3 473,376 473.6,376.1 473.9,375.6 473.8,375 472.7,374.4 		"/>
		<polygon fill="#00247D" points="467.3,371.8 468.1,371.8 468.3,371.6 467.8,371 467.4,371 466.9,371.6 		"/>
		<polygon fill="#00247D" points="471,386.3 471,385.8 470.6,385.5 470,385.5 469.7,386.1 469.8,386.6 470,386.8 470.8,386.7 		"/>
		<polygon fill="#00247D" points="469.5,392.5 469.8,392.5 470,392.2 470,391.8 469.8,391.5 469.3,391.5 469,391.8 469,392 		"/>
		<polygon fill="#00247D" points="467.9,353 468.4,351.4 468.4,351.1 467.9,350.8 467.2,351.6 466.9,352.4 467,352.8 467.4,353.2
			"/>
		<polygon fill="#00247D" points="469,354.9 469.3,354.7 469.3,354.2 468.7,353.7 468.3,354 468.4,354.4 		"/>
		<polygon fill="#00247D" points="500.8,293.2 501.3,292.8 501.1,292.4 500.3,292.3 500,292.7 500.3,293 		"/>
		<polygon fill="#00247D" points="472.5,239.7 473.4,239.2 473.4,239 473.4,238.7 473.2,238.5 472.4,238.5 472.2,238.8 472.2,239.3
			472.2,239.5 		"/>
		<polygon fill="#00247D" points="467.1,238.3 466.2,238.2 465.8,238 464.6,238.2 464.8,238.7 464.3,239.2 464.6,239.8 463.9,240.1
			463.9,241.3 464.2,241.6 464.9,241.4 465.3,241.8 466,241.6 467,242.1 466.7,242.3 464.9,242.3 464.6,242.5 464.8,243
			466.2,243.1 465.8,243.5 465.5,244.3 465.9,244.8 466.3,245 466.4,246.2 465.8,247.7 466.2,248.8 466.1,250.2 466.3,250.4
			466.3,252.6 467.3,253.4 466.4,253.5 466.2,253.9 466.7,254.4 467.4,254.7 466.9,255.2 466.9,255.8 466.3,254.7 465.7,254.2
			464.9,253.9 464.1,254 463,254.4 462.4,254.5 462,254.8 462.5,255.6 462.4,255.9 461.5,255.9 461.1,255.6 460.6,255.7
			460.3,256.1 459.6,256.8 459.7,257.2 461,257.6 461.3,258 462.3,258.1 462.1,258.3 460.7,258.3 460.5,258.6 460.8,259.2
			459.5,259.7 459.2,259.4 458.8,259.5 457.9,260.1 456.6,260.4 456,261.2 455.8,261.6 456.1,262 457,262.5 458.1,262.6 457.9,263
			457.7,263 457.1,263.3 456.9,263.8 458.8,265.1 459.6,266.9 460.6,266.9 461.7,266.3 462.3,265.2 463.3,265.2 463.7,265.4
			464.3,265.4 465.4,264.6 465.6,264.2 466,264.2 466.7,263.7 467,263.4 466.9,262.6 467.4,262 467.4,261.3 467.9,260.3
			468.8,259.9 469.5,260.2 470,261.1 471,262.1 471.1,262.6 471.7,262.9 472.2,263.8 473.3,264.6 473.7,266 474,266.2 473.6,267.1
			473.9,267.8 475.5,267.8 476.2,267.5 477.4,268 478,267.7 478.6,268.3 481.2,268.3 480.7,268.9 481.2,269.3 480.7,269.8
			480.2,270.8 480.3,271.1 480.6,271.3 482.2,271.4 482.4,271.5 484.9,272.1 486,273 485.9,273.2 485.3,272.8 484.9,272.8
			483.9,272.1 481.7,272.1 480.1,273.4 480,273.6 480.3,274 481,274 481.6,274.5 482,274.1 482.7,274.2 482.7,274.4 482,274.5
			481.4,274.9 480.8,275.1 480.5,276.4 480.7,276.8 481.5,276.8 483.2,275.4 483.7,275.1 484,275.2 483.6,275.6 483.1,275.7
			482.5,276.3 480.7,278.1 481,278.5 481.6,278.6 481.4,278.7 480.2,278.7 479.9,278.5 479.5,278.5 479,278.9 478,279.3
			477.2,280.1 477.1,281.1 477.4,281.5 476.7,282.1 476.8,282.5 477.1,282.8 477.2,283.8 477.9,284.2 479.4,284.1 480.4,283.7
			480.5,283.9 479.9,284.2 478.8,284.4 478.7,284.8 479,285.2 478.3,285.8 478.7,286.1 480.4,286.1 480.9,286.4 481,286.7
			480.5,287.1 481.2,287.8 481.7,287.8 482,287.5 485.3,287.5 485.8,287.1 486,287.3 486.4,287.3 486.4,288.2 487.1,288.8
			487.9,288.7 488.7,288.3 489.5,288.1 490,287.6 490.7,287.5 492.3,286.8 494.6,286.3 495.4,285.8 496,285.1 496.9,283.1
			497.6,282.7 497.7,281.4 497.9,281.1 497.9,280.2 498.5,279.6 498.1,278.4 498.7,278.5 499.1,278.8 499.6,278.7 500.1,278.5
			500.3,278 500.7,277.7 501.3,276.9 502.2,276.4 503.2,274.7 503.2,250.6 503.1,250.6 502,250.6 501.3,250.9 500.9,250.6
			499.1,250.4 497.2,249.7 496.7,249.2 496,249 495.5,249.2 495.5,250.2 493.4,250.2 493.1,249.9 492.5,249.9 492,249.7
			490.9,248.8 490,248.4 488.9,248 487.7,247.1 486.8,246.8 486.4,246.5 484.6,245.4 483.2,244.2 482.9,243.7 482.7,243.7
			481.3,242.8 480.3,242.5 478.9,240.9 478.1,239.7 477.6,239.2 477.2,239.5 476.8,240.1 476.2,240.2 475.7,240.6 475,240.7
			474.2,240.9 473.7,241.3 473.3,241.3 472.9,242.5 472.8,243.5 473,243.7 473.7,243.2 473.8,243.6 472.6,244.4 472.3,244.5
			472.2,245.1 471.3,245.9 470.8,245.4 469.6,245.4 469.3,244.8 469.3,244.7 470.5,244.9 471,244.2 471.8,244.2 472.5,243.9
			472.6,243.4 472.2,242.3 471.3,241.4 470.9,240.3 470.4,239.9 470.1,239.3 470.3,238.3 469.6,237 469.5,236.5 468.9,236.1
			467.9,236.3 468.4,236.9 468.4,237.3 467.9,237.7 468.2,238 467.9,238.2 		"/>
		<polygon fill="#00247D" points="465.8,365.6 465.9,365.3 465.3,364.7 464.3,364.4 463.1,363 462.4,363.2 462.7,364.4 462.9,364.7
			462.6,365.1 462.6,365.8 462.9,366.4 462.2,367.7 462.2,368.6 461.8,369.3 461.3,370.1 460,370.6 459.7,370.9 460.1,372.1
			460.5,372.5 461.9,371.8 461.9,373.1 461.7,373.5 461.7,375.5 461.9,376.3 462.4,376.8 463.2,376.7 463.6,375.8 464.8,372.9
			465.8,372 465.8,371.4 465.3,370.9 465.1,370.5 464.6,369.2 464.5,366.6 464.9,366 		"/>
		<polygon fill="#00247D" points="428.2,217.5 424.7,217.3 423.1,217.7 423.1,218.3 423.1,226.7 423.1,247.7 424.1,247.8
			424.1,248.2 423.8,248.3 423.3,248.8 423.6,249.4 424.1,249.6 424.3,249.8 424.4,250.3 425,250.4 425.5,250.2 425.6,249.7
			426.2,249.4 426.4,249 427,248.9 427.3,248.3 427.9,248.9 429.1,250.1 429.1,250.7 429.5,251.1 430.9,250.8 431.5,250.5
			430.8,251.4 430.7,252.1 431,252.3 431,252.8 431.4,253.4 431.5,254 431.2,254.5 431.2,255.4 431.4,255.6 432.1,255.5
			432.5,254.7 434.1,253.3 434.4,252.5 434.8,252 435.6,251.8 435.8,252.3 436,252.4 436.8,251.8 436.8,251.5 437.2,251.3
			437.3,251.6 437,251.7 437,252.1 437.8,252.3 437.9,252.9 437.2,253.5 436.3,254.9 435,255.1 434.5,255.7 435,256.3 436.9,256.8
			437.1,257.2 437.7,257.3 438.2,257.8 438.7,257.8 439.5,256.8 440,256.6 440.1,256 441,256.6 441.4,256.3 443.1,256.3
			443.3,256.1 443.4,255.2 443.1,254.6 443.2,254.2 443.6,254.7 444,255.8 444.6,256.1 444.9,256.1 445.4,257 446,257.3
			446.4,257.3 447.5,256.8 447.7,256.1 448.3,256.1 449,255.4 449.6,255.1 451.9,255.4 452.1,255.1 453.1,255.1 453.6,255.4
			455,255.1 455.8,254.9 456.4,254 456.9,253.7 457.7,253.7 459,253.3 460,253.2 461,252.5 461.4,252.3 461.4,251.4 461.7,250.9
			462.4,250.1 462.4,248.7 461.7,247.8 461.9,247.1 461.2,246.1 461,246 461.2,245.5 461.2,244.5 460.7,243.9 461.1,243.3
			462.4,244.6 462.4,245.3 462.6,245.6 462.9,245.6 463.3,245.2 463.3,244.2 463.7,244.2 463.9,243.9 463.6,242.7 462.6,242.5
			461.7,241.6 460.5,241.8 460.1,241.6 459.5,241.5 458.9,241 457.4,239.3 456.9,238.2 456.8,237.5 456.7,237.2 456.9,236.6
			456.8,235.8 457.5,235.5 457,233.9 457.2,233.9 457.8,235.4 458.1,235.6 457.8,236.8 458.1,237.3 458.3,237.9 458.3,239.3
			459.3,241.1 460.8,241.1 461,240.7 460.9,239.4 461.7,238.1 461.9,236.2 460.4,235 459.9,234.9 459.8,234.5 459.6,234
			458.4,232.8 458.1,231.8 457.4,230.7 456.7,228.9 456.4,226.9 456.2,226.6 456.2,225.1 455.5,223.6 455.6,223.2 455.8,222.8
			455.6,222.3 454.9,222.1 453.2,220.4 452.4,220.2 452,219.5 451.7,218.6 451.4,218.5 450.2,218.8 449.5,218.4 449.1,218.9
			448.3,219.2 445.7,218.5 444.6,217.6 443.9,217.1 443.4,217.1 443.1,217.4 443.1,218.2 442.8,218.9 442.1,219.2 441.2,219.2
			440.8,219.6 440.3,219.9 438.3,219.9 438,219.7 437.2,219.7 436.3,219.9 435.9,219.7 433.7,219.7 431.8,219.1 431.1,218.9
			429.3,217.8 		"/>
		<polygon fill="#00247D" points="503.1,276.8 502.7,276.8 501.8,277.8 500.9,278.4 500.4,279.4 500.7,279.9 499.7,280 498.8,280.6
			498.6,282.1 498.8,282.3 499.4,282.3 501.5,281.5 502.1,280.8 502.3,279.7 502.4,280.9 501.8,281.5 501.9,281.9 502,282.5
			503.2,283.6 503.2,276.9 		"/>
		<polygon fill="#00247D" points="584.2,366.2 585.3,366.3 586,366 586.6,365.4 586.7,364.8 587.8,363.7 588.3,362.7 589.5,362.2
			589.8,361.5 590.4,361.3 590.8,360.9 590.9,360.7 592.4,358.9 592,358.4 589.3,358.7 589,358.9 587.4,358.9 585.5,359.4
			585.2,359.7 584.5,359.6 583.9,359.2 583.1,359.2 582.6,359.5 582.3,362.3 582.1,362.7 582.1,363 581.9,363.4 581.6,364
			581.6,364.5 581.9,364.7 581.6,365.2 581.4,367 580.9,368.2 580.7,370.3 580.8,370.6 581.4,370.6 582.2,369.4 583.4,368.8
			583.6,367.9 584.5,367.2 584.4,366.5 584,366.5 583.6,367 583.4,366.9 583.8,366.5 		"/>
		<polygon fill="#00247D" points="492,288.9 491.9,288.5 491.3,287.8 491,287.7 490.8,288.2 490.7,288.9 491.2,289.9 		"/>
		<polygon fill="#00247D" points="494.8,288.4 494.8,287.7 494.1,286.8 492.3,287.1 492.2,288 492.4,288.5 492.7,288.9 492.7,289.5
			493.1,289.7 493.2,290.9 493.2,291.2 493.6,292.3 494.3,292.2 494.4,291.6 495,291.8 495.5,291.4 495.4,290.9 495.2,290.4
			495.1,290.2 495.3,288.8 		"/>
		<polygon fill="#00247D" points="494.1,318.2 494.7,317.4 495.7,317 496.4,316.6 497.3,316.6 497.5,317.1 498.2,317.3 498.7,317.8
			499.3,317.6 499.5,317.3 499.8,317.2 500.3,316.9 500.6,317 500.9,316.8 501.5,316.8 502.9,314.2 503.4,313.5 503.4,313.2
			503.4,312.6 502.9,311.8 502.9,310.4 502.9,308.9 502.1,307 502.4,306.6 502.7,305.3 502.4,304.8 502.5,303.4 502.2,302.9
			502.2,300.6 502.7,299.1 503.3,298.1 503.1,297.3 503.1,295.3 503.2,294.1 502.9,293.8 502.8,292.6 502,292.5 500.3,294
			500.7,294.4 501.9,293.9 500.5,295.4 500.3,296.2 500,296.5 500.3,296.9 500.3,297.2 499.9,297.5 499.3,297.6 498.8,298
			498.8,299.2 498.2,299.9 498.3,300.3 498.9,300.5 498.4,301.1 498.4,301.9 498.9,302.3 500.4,302.6 500.6,303.3 500,304.2
			500.3,306.7 500.2,308.5 499.9,309.6 499,309.6 498.2,308.8 498.1,307.1 498,306.6 497.4,306.1 497,306.3 496.4,307.1
			495.5,307.1 495.1,307.3 494.5,307.1 493.3,307 492.3,306.1 491.1,305.4 490.8,305.5 490.8,306.4 490.1,307.5 488.9,308.1
			488.9,308.5 487.9,309.6 487.6,311.2 488.1,311.6 488.1,312.1 488.6,312.6 488.9,313.4 489.8,314 490.1,314.4 490.1,315.2
			491.9,317.2 492.7,317.7 		"/>
		<polygon fill="#00247D" points="481,326.3 480.9,326.8 481.2,327 481.7,327.1 483,326.2 484.6,324.3 485.7,323 485.8,322.6
			487.2,321.3 487.2,321 488.9,319.6 491,319.2 491.3,318.7 491,318.4 490.1,318.4 489.8,318.7 488.1,318.9 485.6,321.5
			484.3,322.1 483.6,322.7 482.8,322.8 482.4,323.2 482.7,323.6 482.7,324.1 482.2,325.1 		"/>
		<polygon fill="#00247D" points="491.8,318.5 492.1,318.7 492.5,318.7 492.7,318.5 492.3,318.2 492,318.2 		"/>
		<polygon fill="#00247D" points="441.8,374.3 441.7,374.6 441.8,374.8 442.5,374.9 442.8,374.4 442.5,374.1 442.2,373.9 		"/>
		<polygon fill="#00247D" points="436,409.1 435.5,409.7 435.5,410.3 436.2,410.8 436.5,410.8 437.2,410 437.1,409.8 436.7,409.1
			"/>
		<polygon fill="#00247D" points="463.6,399.1 463.6,399.6 463.9,399.9 464.7,400.1 465.2,399.8 465.2,399.1 465,398.6 464.3,398.4
					"/>
		<polygon fill="#00247D" points="445.9,369.2 445.7,369.6 444.5,369.9 444.1,370.4 445.1,370.8 446.7,370.5 447.6,369.8
			447.1,369.1 		"/>
		<polygon fill="#00247D" points="414,407 414.1,407.2 414.3,407.5 415,407.5 415.7,406.8 415.7,406.5 415.3,406.1 414.5,406 		"/>
		<polygon fill="#00247D" points="443.5,371.1 443.9,370.9 443.9,370.5 443.3,370.3 442.9,370.8 441.9,370.8 441.7,371.3
			441.2,371.8 440.3,372 439.7,372.4 439.9,373.3 441.5,374.1 442.5,373.3 442.2,372.9 442.4,372.3 442.9,372 		"/>
		<polygon fill="#00247D" points="446.4,371.8 445.8,372.6 446.7,372.7 447.5,372.4 447.7,371.6 448.2,371.5 448.4,371.1
			448.2,370.6 447.6,370.6 446.8,371.7 		"/>
		<polygon fill="#00247D" points="443.8,372.2 444,372.3 444.8,372.2 445.2,371.9 445.5,371.3 445.4,371.1 444.6,370.9 443.8,371.3
					"/>
		<polygon fill="#00247D" points="439.2,373 439.3,371.7 438.5,371.3 437.6,371.3 436.2,371.7 436.3,372.4 437.7,373 		"/>
		<polygon fill="#00247D" points="420.8,405.8 420.5,406.2 420.6,406.7 421.3,406.7 421.5,406.5 421.4,406.4 421.2,406.1 		"/>
		<polygon fill="#00247D" points="453.1,370.8 454.2,370.3 454.3,369.9 453.9,369.2 453.1,368.9 450.9,368.9 450.7,369.2
			448.8,369.1 448.2,369.6 448.3,370.1 449.1,370.2 449.3,370.8 449.8,371 450.5,370.6 451.4,370.7 449.1,371.6 448.2,372.4
			447.7,372.6 447.2,372.8 445.7,372.9 445.3,373.4 445,373.4 444.4,373.2 443.8,373.2 443.7,373.4 444.1,374.1 443.6,373.7
			443.1,373.7 442.9,374.8 443.1,375.2 443.4,375.4 444.5,375.3 445.3,375.8 445.7,375.7 446.4,375 447,373.8 449,373 451.4,371.6
			451.9,371.6 452.8,370.7 		"/>
		<polygon fill="#00247D" points="314.6,349.3 314.3,349.9 315.1,350.9 315.3,350.9 315.9,350.1 315.4,349.6 315.3,349.3 		"/>
		<polygon fill="#00247D" points="454.5,407.2 455,408 455.8,408.1 456.4,406.4 455.8,405.8 455.1,406.2 		"/>
		<polygon fill="#00247D" points="451.7,405.8 451.5,406 451.4,406.5 451.6,406.8 452.1,407 452.6,406.6 452.6,406 452.3,405.8
			"/>
		<polygon fill="#00247D" points="462.2,402.5 461.2,403.4 460.7,404.7 461.2,405.3 462,405.3 462.9,404.6 463.4,403.8 463.3,403.4
			462.7,402.7 		"/>
		<polygon fill="#00247D" points="444.5,411 444.2,412.2 444.5,412.5 445.3,412.5 445.5,412.2 445.9,411 445.3,410.6 		"/>
		<polygon fill="#00247D" points="447.6,405.6 447.1,406.4 447.2,406.8 447.6,407.3 448.7,407.2 449,406.8 449,406 448.5,405.6
			"/>
		<polygon fill="#00247D" points="450.9,259.1 451,258.5 450.7,258.2 450.2,258.3 449.8,258.8 449.9,259.3 450.3,259.5 		"/>
		<polygon fill="#00247D" points="454.7,257.9 455.1,257.3 454.6,256.8 453.2,256.8 452.9,256.6 452.1,256.6 451.7,257.5
			451.4,257.6 451,258 451.4,258.5 453,258 		"/>
		<polygon fill="#00247D" points="463.4,250.4 463.3,251.4 462.9,252.2 462.9,252.8 463.2,253 464.1,252.9 464.6,252 463.8,250.1
			"/>
		<polygon fill="#00247D" points="292.8,315.6 292.8,316.3 294.1,316.4 294.5,316.1 294.5,315.8 293.7,315.2 293.2,315.2 		"/>
		<polygon fill="#00247D" points="462.9,241.3 463.6,240.6 463.9,239.1 464.3,238.8 464.2,238.2 463.6,237.5 462.7,237.5
			462.3,237.3 462.2,237.3 462,237.6 461.7,239.4 462.4,241.2 		"/>
		<polygon fill="#FFFFFF" points="503.6,274 503.7,276.4 504.5,278 503.6,277.6 503.2,276.9 503.2,283.6 503.3,283.7 504.7,284.2
			505.5,283.5 505.5,281.9 505.7,281.6 505.7,277.4 505.9,277 505.7,276 506,275.5 505.9,274.7 506.3,273.8 506.3,251.8
			509.8,251.8 509.1,249.7 508.6,249.9 508.1,251.3 506.4,251.3 505.5,250.9 505.1,251.1 504,251.1 503.2,250.6 503.2,274.7 		"/>
		<path fill="#FFFFFF" d="M503.4,288.3l0.2-3.1l0.5-0.5l-0.2-0.5l-0.5,0l-0.2,0.1C503.2,285.7,503.3,287,503.4,288.3L503.4,288.3z"
			/>
		<path fill="#FFFFFF" d="M503.4,289.5c0,0.1,0,0.2,0,0.2L503.4,289.5L503.4,289.5z"/>
		<polygon fill="#FDC300" points="506.3,273.8 507,272.2 506.3,271.1 507,271.7 507.5,271.7 508.5,270.7 510.5,270.4 511.2,269.7
			511.3,269.1 511.7,268.3 511.7,267.3 511.9,267 511.9,265.5 511.7,262.9 511.5,262.5 511.5,261.4 511.2,261.1 511.2,259.7
			511.5,257.5 512.2,256.9 512,255.5 510.3,253.3 509.8,251.8 506.3,251.8 		"/>
	</g>

		<path fill="none" stroke="#999999" stroke-width="0.25" stroke-linecap="round" stroke-linejoin="round" stroke-miterlimit="10" d="
		M340.1,199.8l-0.6-0.6l0-0.5l-0.4-0.4h-2.6l-0.2-0.2l-0.6,0.4l-0.2,0.7l-0.2,0.5l-0.7,0.5l-0.2,0.7l1.8,0.4l0.2,0.2l1.4-0.2
		l0.2,0.7l0.5,0.2l0.7-0.5l1.7,0l0.8-0.6l0-0.9l-0.3-0.4H340.1z M343.8,194.9l-1-1.9l0.5-1.2l-0.2-1l1-1.2l0-0.5l0.2-0.2l-0.1-0.6
		l-0.7,0l-0.7,0.7l-2.1,0.7l-0.9,0.5l-0.5,0l-0.4,0.3l-0.2,1.9l-0.2,0.2l0,0.5l0.2,0.2l0,0.5l-0.2,0.2l0,1.2l0.2,0.5l-0.5,0.9
		l-0.7,0.7v0.2l3,0.1l0.5,0.7l1.4,0l0.2,0.2l0.6-0.6l0.2-0.9l0.6-0.1l0.6-0.8l-0.7-0.9L343.8,194.9z M385.3,229l-0.1,0.3l0.2,0.3
		l0.7-0.4l0.1-0.2l-0.1-0.4l-0.4,0L385.3,229z M327,210.5h-0.9l-1.4,1.4l-0.7,0.2l-1.4,1.2l-0.5,0l-0.7,0.5l-0.5,0l-1.5,1.1l0,0.5
		l1.8,0.8l0.5,0l1-0.7l0.4,0.4l-0.3,0.2l0.1,0.1l0.7,0l0.7-0.5h0.7l0.2-0.2l2.6,0l0.4-0.4v-1.7l-0.2-0.3l0-0.5l0.5-1v-0.5l-0.8-0.6
		L327,210.5z M381.7,196.6l-0.2,0.3l0.1,0.8l0.4,0.1l0.5-0.5l-0.3-0.6L381.7,196.6z M381.1,229.6h0.9l0.2-0.2l0.4,0.4l0.2,0l0.3-0.3
		l0.3-0.7l0.7-0.2l0.1,0.4l0.4,0.1l0.9-0.8l1.4-0.4l0.6,0l0.9-0.3l0.7-0.6l0.8-0.3l0.7-0.9l0.2-0.2l0.6,0.3l1.4-0.1l0.2-0.2
		l-0.2-0.2l0.3-0.2l-0.1-0.3l0.6,0.3l0.8,0l1-0.5l0.8-0.8l0.6-0.1l0.7-0.7l-0.3-1.5l-1.1-0.4l-0.3-0.8l0.4-0.4l0-0.7l0.2-0.5l0.6,0
		l0.3-0.3l0.1-1.2l-0.7-1.1l-0.8,0.2l-0.9-0.2l-0.9-0.2l-0.5,0.3l0.7,1.6l0.3-0.1l0.2,0.2L395,218l-0.9,0.2l-0.5,0.7l-0.2-0.2
		l-1.6,0l0-0.2l0.6-0.3l1.1,0l0.7-0.4l-0.6-1.6l-0.8-1l-1-0.6l-0.4,0.4l0.5,0.6l0,0.4l-0.5,0l-0.7-0.5l-0.4,0l-0.8-0.5l-2.6-2.4
		l-0.1-0.3l-0.3-0.1l-0.1-0.3l-0.9-0.8l-0.1-0.4l-1.4-1.6l-1.5-3.6l-1-3.6l-0.5-1.5v-0.7l0.3-0.6l-0.3-0.7l0-3.9l1-1.2l0.1-1.1
		l0.4-0.4l0.8-0.2l0.5-0.4l0.6-1.6l-0.3-0.9l-0.5-0.5l-0.8-0.4l-0.8,0L382,188l0.2,0.9l-0.3,1l-0.4,0.5l-0.3,0l0.4-0.4l0-1.7
		l-0.3-0.6l-0.9-0.8l1.7,0.6l0.9,0l0.2-0.3l-0.7-0.7l-0.7-0.3l-0.7-0.4l-1.2,0l-0.7-0.4l-1.2-0.3l-0.3-0.2h-0.6l-0.2-0.2l-2.7-0.3
		l-2-1.2l-1.8,0l-0.3,0.3l-0.5,0l-0.5-0.3l-1,0l-1.8-0.7l-1.9-0.3l-2.1-0.7l-1.7,0l-0.7,0.5l-1.7,0.1l-0.3,0.6l-0.2-0.2l-4.8,0
		l-0.5-0.2l-1.7,1l-1,0.2l-0.5,0.5l-1.4,0l-0.5,0.2l-1.1,1.8l-0.2,1l-1.7,1.4v1.7l-0.7,0.7l-0.2,0.5l0,1.2l0.3,0.1l0.5-0.5l0.4,0.1
		l0,0.7l0.5,1v0.7l0.2,0.2l0,1.7l0.2,0.2l0,0.5l0.6,0.6l1.2,0.5l0.5-0.3l0.5,0l0.2-0.2l0.8,0.1l-0.6,0.1l-0.4,0.4l0,0.5l1.7,2.6
		l0,0.2l0.5,0.5l-0.1,0.4l-0.5-0.5l-0.7-0.2l-0.6,0.6l-0.1,0.6l-1.2,0l-0.1,0.6l0.5,0.7l0,1.4l0.4,0.4h0.7l0.6,0.6v0.7l-0.2,0.2
		l0.1,0.4h1.7l0.5-0.2l0.2-0.2l0.7,0l0.2-0.2l0.2,0.5l0.5,0l0.2,0.2h1.4l0.2,0.2l0.3,0.1l-0.1,0.1l-0.7,0l-0.2-0.3l-1.7,0l-0.5-0.2
		l-0.1,0.4l-0.3,0.1l-0.7,1h-0.7l-0.6,0.3v1l-1.1,1.3h-0.7L347,211h-1l-1.3,1.1l0.4,0.6h0.7l0.4,0.3l0.1,1.5l0.9,0l1-0.7l0.7,0
		l0.2-0.2l1.2,0l0.7,0.5l0.5,0l0.2-0.2h1l1.7,0.7l0.7,0l0.2,0.5l0.2,0l0.8,0.8l0,1l0.6,0.4h0.7l0.7,0.6l1.3,1.4l1.6,0.8l0.7-0.1
		l1.2,0.5l0.7-0.1l1,0.4l0.5,0.8l0.7,0.3l0.8-0.8l1.3-0.2l0.4-0.3l-0.2,0.8l-0.8,0.5h-0.8l-0.5,0.4l-0.1,0.2l0.6,0.6l1.4,0.2l2,1.2
		l1.7,1.1l1.1,0l0.3-0.2l0.6,0.4l0,0.3l-1.5,0.2l-0.4-0.1l-0.7-0.6l-1.2-0.1l-0.5-0.5l-0.6,0.2l-0.1,0.3l1,1.1l-0.3,0.4l-0.4,0.2
		l0.4,0.5l2.5,0l0.2,0.2l0.9,0l0.6,0.7l1-0.1l0.4,0.3l0.7,0l0.8,0.4l1.7,0.3l0.7,0.4l0.4,0.7l1.2,0L381.1,229.6z M334.7,212.3
		l-0.8-0.8l-0.5,0l-0.4,0.4l0.2,1.7l-0.3,0.2l0.6,0.6l0.5,0l0.2,0.2l0.8-0.4v-0.7l-0.5-0.7L334.7,212.3z M336.5,203.4l-0.2-0.3
		l-0.7,0l-0.1,0.6l0.2,0.2l-0.9,0.5l-0.2,0.7l0.6,0.1l0.2,0.3h1.2l1.1-1.3l0-0.7L336.5,203.4z M333.4,210.5l-0.7,0l-0.6,0.3
		l-0.1,0.4l-0.4,0.1v0.5l0.6,0.1l1.8-1.1L333.4,210.5z M333.5,205.1l-0.2-1.9l-0.4-0.3h-1.2l-0.9,0.9h-0.2l-0.3,0.6v1l0.2,0.5
		l-0.2,0.7l-0.7,1.2l-2.1,2.2v0.2l1.3,0.8l0.5,0l0.9-0.7l1-0.2l1-1l0.5-0.2h0.7l0.5-0.5h0.2l1.3-1.3l0.5-1.2l-1.8-0.3L333.5,205.1z
		 M340.6,202.4l-0.5,0l-0.1,0.1l0,0.2l0.4,0.3l0.5,0l0.1-0.1l0-0.2L340.6,202.4z M449.8,258.8l0.1,0.5l0.4,0.2l0.7-0.4l0-0.5
		l-0.2-0.3l-0.5,0.1L449.8,258.8z M381.7,231.6l-1.1,0l-0.8,0.5l0.2,0.4l1.4,0.5l0.8,0l0.3-0.3l-0.3-0.8L381.7,231.6z M453.2,256.8
		l-0.3-0.2l-0.8-0.1l-0.4,0.9l-0.3,0.1L451,258l0.4,0.5l1.6-0.5l1.7-0.1l0.4-0.6l-0.5-0.5L453.2,256.8z M436.7,409.1l-0.7,0
		l-0.5,0.6l0,0.6l0.7,0.5l0.2,0l0.7-0.8l-0.1-0.2L436.7,409.1z M463.3,251.4l-0.4,0.8l0,0.7l0.3,0.2l0.8-0.1l0.5-0.9l-0.8-1.9
		l-0.5,0.3L463.3,251.4z M437.6,371.3l-1.4,0.4l0.1,0.7l1.4,0.6l1.5,0l0.1-1.3l-0.8-0.4L437.6,371.3z M421.2,406.1l-0.5-0.2
		l-0.3,0.3l0.1,0.5l0.7,0l0.2-0.3l0-0.1L421.2,406.1z M414.5,406L414,407l0.1,0.3l0.3,0.3l0.6,0l0.7-0.7l0-0.3l-0.4-0.5L414.5,406z
		 M403.5,252.1l-0.6,0.2l-0.4,1.2l0.3,0.3l0.5,0l0.4-0.4l0.2-0.8l-0.1-0.2L403.5,252.1z M418.1,404.9l-0.7,1l0.2,0.5l1.2,0.1
		l0.5-0.4l-0.7-1L418.1,404.9z M440.1,256l0.9,0.5l0.5-0.3l1.7,0l0.2-0.2l0.1-0.9l-0.3-0.6l0.1-0.3l0.4,0.5l0.4,1.1l0.7,0.3l0.2,0
		l0.6,0.9l0.6,0.3l0.4,0l1-0.5l0.2-0.7l0.6,0l0.7-0.7l0.6-0.3l2.3,0.2l0.2-0.2h1l0.5,0.2l1.4-0.3l0.8-0.2l0.6-0.8l0.5-0.3h0.9
		l1.3-0.5l1,0l1-0.7l0.4-0.2v-0.8l0.2-0.6l0.8-0.8l0-1.3l-0.7-1l0.2-0.7l-0.7-1L461,246l0.3-0.5l0-1l-0.5-0.6l0.3-0.7l1.3,1.4l0,0.7
		l0.2,0.3h0.3l0.5-0.5l0-1l0.4-0.1l0.2-0.3l-0.3-1.2l-0.9-0.2l-0.9-0.9l-1.2,0.2l-0.4-0.2l-0.6,0l-0.6-0.5l-1.4-1.7l-0.5-1l-0.1-0.7
		l-0.2-0.3l0.3-0.6l-0.2-0.9l0.7-0.3l-0.5-1.6l0.2,0l0.6,1.5l0.3,0.2l-0.3,1.2l0.3,0.5l0.3,0.6l0,1.4l1,1.7l1.5,0l0.2-0.4l0-1.3
		l0.8-1.3l0.2-1.9l-1.4-1.2l-0.5-0.2l-0.2-0.4l-0.2-0.5l-1.1-1.2l-0.3-1l-0.7-1.2l-0.7-1.8l-0.3-2l-0.2-0.3l0-1.4l-0.7-1.6l0.1-0.3
		l0.2-0.4l-0.3-0.6l-0.7-0.2l-1.7-1.7l-0.8-0.2l-0.4-0.7l-0.4-0.9l-0.3-0.2l-1.2,0.3l-0.8-0.3l-0.3,0.4l-0.9,0.4l-2.5-0.7l-1.2-0.9
		l-0.6-0.5l-0.5,0l-0.3,0.4l0,0.8l-0.3,0.6l-0.7,0.3l-0.9,0l-0.4,0.4l-0.5,0.3l-1.9,0l-0.4-0.2l-0.8,0l-1,0.2l-0.4-0.2h-2.2
		l-1.9-0.6l-0.7-0.2l-1.8-1.1l-1.1-0.3l-3.6-0.3l-2.1,0.6l-1.2,0.7l-0.9,0l-0.3,0.2l-2.6,0l-3.1-0.2l-0.6-0.1l-0.5-0.4l-0.5,0
		l-1.1-0.9l-1,0l-1.3-0.7l-0.3,0l-1.2-1.2l-0.4-0.1l-0.5-0.8l-0.8-0.3l-1-2l-0.9-0.9l-0.3,0l-0.4,0.3l-0.3,0.7l-0.2,0.6l-0.6,0.2
		l-1.7,0l-0.9,0.3l-0.4,0.9l0.2,0.3l0.6,0.1l0,0.7l0.1,0.2l-0.4,0.4l0.1,1l0.4,0.4l-0.2,0.3l0,1.3l0.3,0.6l-0.2,0.3l0.6,0.4l0,0.6
		l-0.3,0.2l-0.5-0.3l-0.5,0.2l-0.1,0.8l0.2,0.6l-0.3,0.2l-0.4,0.4l0.2,0.9l-0.5,0l-0.7,0.8l-0.4-0.4l-0.6,0l-0.7,0.7l-0.8,0.4
		l-3.6,0.9l-0.6-0.2l-0.9,0.2l-0.5,0.5l-0.3,1.1l-1.4,0l-0.4,0.2l-0.5,0l-0.8,0.5l-0.6,0.8l-0.9,0.7l-0.5,0.3l-1,1.2l-1.3,0.8
		l0.2,1.2l0.5,0l0.6-0.5l0.1-0.8l0.4-0.5l1-0.9l1.5-0.9l0.3,0.3l-0.4,0l-2.5,2l-0.3,0.8l0.3,0.3l0.3-0.1l0.6-0.7l0.3-0.1l-0.9,1.1
		l0.4,0.2l1-0.5l0.7-0.4l1.5-1.8l0.2,0.1l-0.8,1l0.1,0.3l0.7,0l-0.2,0.2l-0.4,0l-1,0.9l-0.6,0.2l-0.3,0.6l0.3,0.3l-0.6,0.2l-0.1,0.5
		l0.3,0.3l0.5,0.2l0.7-0.2l0.8-1l0.7-0.4l1.8,0.1l0,0.4l0.4,0.3l0.9-1l-0.1,0.7l-0.7,0.9l-0.4-0.4l-0.4,0l-2,1.7l0.3,0.5l0.7-0.1
		l0.4-0.4l0.5,0l0.1,0.5l0.5,0.5l1.2,0l0.5-0.2l0.2-0.3l-0.2-0.4l0.4-0.3l0.5,0.6l-0.9,0.9l0.6,0.5l1.6-0.6l0.7-1.1l0.9-0.7l0,0.4
		l-1.1,1l-0.8,1.4l0.1,0.3l0.6,0l1.3-1.5l0.1,0.3l-0.4,0.4l0,0.5l0.2,0.3l0.5,0l0.6-0.5l3.1,0l-0.2,0.2l-0.7,0l-0.6,0.3l-0.7,0
		l-0.7,0.5l-1.2-0.1l-1.1,1.2l0.9,1l0.2,0l0.6,0.3l-0.2,0.3l-1.2,0.5l-1.5,0.1l-0.7,0.7l0.1,0.9l2.2,1.1l0.4,0.2l3.3,0l1.1,0.6
		l0.1,0.5l0.5,0.4l0.5-0.1l0.8-0.9l1.1,0.1l0.5,0.3l-0.9,0.9l0.3,1.1l-0.7,0.7l0.1,0.4l0.9,0.7l0,0.6l0.8,0.4l0.5-0.1l0.6-0.4l1-2
		l0.7-2.2l0-0.5l0.5-0.8l0.4-1.1l0.4-0.3h0.9l0.8-0.3l0.4-0.5l0-1l0.3-0.6l0.2-0.7l0.4-0.4l1.8-0.8l1.3-1.3l0.1,0.1l-0.3,0.7
		l-1.5,1.5l-0.2,0.7l-0.3,0.2l-0.2-0.2l-0.5,0l-0.2,0.4l-0.3,0.4l0,1.1l-0.4,0.6l0,1l0.7,0.4l0.6,0l1.7,0.3l0.7-0.3l0.6-0.6h0.4
		l-0.6,1.6l0.2,0.5l0.6,0.1l0.9,0.4l1.2,0l0.9-0.7l0.7,0.3l0.4,0.2l1.1-0.1l0.4-0.4l0-0.6l0.3-0.6l0.8-1.1l0-0.5l0.9,1.1l0.6,1.8
		l1.1,0.2l0,0.4l-0.3,0.1l-0.4,0.5l0.2,0.6l0.5,0.2l0.2,0.1l0.1,0.6l0.6,0.1l0.4-0.2l0.1-0.5l0.6-0.3l0.1-0.4l0.7-0.1l0.3-0.5
		l0.6,0.6l1.1,1.2l0,0.6l0.4,0.4l1.4-0.2l0.6-0.4l-0.7,0.9l0,0.7l0.3,0.2l0,0.5l0.4,0.7l0.1,0.6l-0.3,0.5l0,0.9l0.2,0.2l0.7-0.1
		l0.4-0.8l1.6-1.4l0.3-0.8l0.4-0.4l0.8-0.2l0.2,0.5l0.2,0l0.7-0.6l0-0.3l0.4-0.2l0.1,0.2l-0.3,0.2l0,0.3l0.8,0.3l0.1,0.5l-0.7,0.6
		l-1,1.4l-1.3,0.3l-0.5,0.6l0.5,0.6l1.9,0.5l0.2,0.4l0.6,0.1l0.5,0.5l0.5,0l0.9-1l0.4-0.2L440.1,256z M393.8,203.9l-0.4-0.7
		l-0.4-1.7l-0.3-0.3l0-0.5l-0.6-1.2l-0.4-3.2l-0.4-0.3l-0.8,0.1l0.2,2.2l0.8,1.8l0,0.8l0.2,0.8l-1.2,2.9l0.3,0.8l-1.7,0.9l-0.1,0.3
		l0.6,0.7l0,0.8l0.1,0.2l0.8,0l0.8-0.5l0-0.2l-0.8-0.7l0-0.2l1.1,1.1l0.1,0.4l0.3,0.8l0.3,0.3l1.4,0.4l0.2,0.7l0.7,0.7l1-0.3
		l0.7-0.4l0.5-0.6l-0.1-0.6l-1.2-2.2l-0.9-0.9L393.8,203.9z M398.9,221.8l-0.2,0l-0.2,0.2l0,0.7l0.3,0.3l0.6-0.6l-0.1-0.3
		L398.9,221.8z M331.1,202.6l0.5,0l0.2-0.2l1.7,0l0.2,0.3l0.8-0.1l-0.1-0.6h-1l-1.9-1l-0.5,0l-0.3,0.6l0.2,0.3L331.1,202.6z
		 M396.8,212.4l0.5,0.1l-0.2,0.7l0.3,0.2l0,0.8l0.5,0.5l0.4-0.3l0.1-0.6l0.8-0.8l0.5-0.2l0.5-1l-0.1-0.8l-0.6-0.3l-0.5,0.4l-0.3-0.5
		l-1.9,0.3l-0.7,1L396.8,212.4z M384.6,191.1l1,0.6l-1,0.3l-0.1,0.9l-0.5,0.3l0,0.6l0.3,0.2l0.8,0l0.2,0.3l0,0.4l-0.2,0.3l0.2,0.3
		l-0.2,1.1l0.7,0.4l0.4-0.1l-0.5,1l0,0.5l0.4,1.1l-0.9,0.3l-0.4,0.5l0,0.8l0.4,0.2l0,0.7l-0.6,0.8l0,0.5l0.5,0.6l0.3,1l0.8,0.7
		l0.9-0.4l0.3-0.4l0-0.9l-0.6-0.9l0.1-0.2l0.5,0.6l0.9,0l0.2,0.5l0.9,0.7l0.7-0.1l0.6-1.6l0.1-2.1l-0.5-1.8l-0.2-2.2l-0.7-0.6
		l0.7-0.7l0.4,0.3l0.7-0.1l2.2,0.1l0.3,0.3l0.6-0.3l0.2-0.5l-0.2-0.3l-0.4-0.3l-0.5,0l-0.4-0.7l-0.9-0.1l-0.7-2l-1.3-0.8l-1-0.3
		l-1.1-0.6l-2.7-2.5l-0.4,0l-0.2-0.2l-0.6,0l-0.2,0.3l0.8,1.6L384.6,191.1z M618.8,351.1l0.4-0.6l-0.1-0.4l0.4-0.5l-0.3-0.4
		l-0.9,0.1l-0.4,0.9l0.3,0.7L618.8,351.1z M401,210.4h0.9l0.6-1l0.3-0.2l0-0.4l-1-1.4l-0.4-0.2l-1.5,2.5l0.3,0.3L401,210.4z
		 M334.4,204.6l0.6-0.6l0-0.2l-0.1-0.1l-0.2,0l-0.4,0.3l0,0.5L334.4,204.6z M472.5,239.7l0.9-0.5l0-0.2l0-0.4l-0.2-0.2l-0.8,0
		l-0.3,0.3l0,0.5l0.1,0.3L472.5,239.7z M462.4,241.2l0.5,0.2l0.7-0.8l0.3-1.4l0.3-0.4l0-0.6l-0.7-0.7l-0.9,0l-0.4-0.2l-0.1,0.1
		l-0.2,0.3l-0.3,1.8L462.4,241.2z M285.6,246.2l-0.2,0.2l-0.2-0.2h-0.2l-0.1,0.6l0.1,0.1h0.9l0.4-0.4l-0.4-0.3L285.6,246.2z
		 M293.2,315.2l-0.4,0.3l0,0.7l1.3,0.1l0.4-0.3v-0.2l-0.8-0.6L293.2,315.2z M285.6,244.8l0.1-0.1v-0.2l-0.4-0.1l-0.2-0.2l-0.5,0
		l-0.1,0.4l0.6,0.4L285.6,244.8z M315.3,349.3l-0.7,0l-0.4,0.6l0.8,1.1l0.2,0l0.6-0.8l-0.5-0.5L315.3,349.3z M261.5,234.8l0.1-0.1
		l0-0.5l-0.1-0.1l-0.2,0l-0.4,0.4l0,0.2l0.1,0.1L261.5,234.8z M315.1,219.3l1-1l0.5,0l1.5-1.5l0-0.5l-1.1-0.1l-1,0.5l-0.5,0.5
		l-1.1,0.6l-0.2,0.7l0.4,0.6L315.1,219.3z M319.4,224.8l-0.5-0.2l-0.2-0.5l-0.5,0l-0.2-0.2H317l-1.3-1.3v-0.7l-0.5-0.7l0-0.5
		l-0.8-0.4l-1.8,1.3v0.7l-1.4,1.7l0,0.2l-0.7,1l-0.2,1.2l-0.5,1l-0.8,0.8l-1,0.5h-1l-0.2,0.2l-0.5-0.2l-0.5,0l-0.2,0.2l-1,0l-0.9,1
		l-1.2,0.7l-3.3,2.4l-0.5,0l-0.2,0.2h-0.7l-0.2-0.2l-1.4,0l-1.2-0.7l-0.9-0.7h-1l-1.2,1l-0.2-0.2l-1.7-0.2l-0.2-0.2l-1.9-0.5
		l-0.2-0.2l-1.4,0l-0.2-0.2l-0.7,0l-0.5-0.2l-1-0.9l-1.7-1l-0.2-0.5h-0.2l-2.5-2.7l-0.2-0.7l-1.2-1.2v-0.2l-0.7-0.7l-0.7-1.2
		l-0.7-0.7l0-0.2l-0.5-0.2v-0.2l-1-0.7l0-0.2l-2.7-2.7l-1-0.5l-0.9-0.5l-0.5,0l-0.7-0.5l-0.5,0l-0.6-0.8l-0.5-1.4l-1-0.7v-0.2
		l-0.6-0.6h-0.2l-1.4-0.9l-0.2-0.5l-0.2,0l-1.1,1.5v0.7l0.2,0.2l0,1l-0.2,0.2l0,0.7l0.7,0.7v1l-0.2,0.2l0.2,1l-0.2,0.2l-1.2,2.4
		l0,0.7l-0.2,0.2v1l-0.5,0.5l-0.5,1l-0.2,1.4l-0.3,0.2l0.3,0.7l-0.2,0.5l-1.7,1.7l0,0.2l-0.7,0.5l0,0.5l0.5,0.7l0,1.7l0.2,0.2l0,1.7
		l0.5,0.7v1l-0.2,0.5l0.8,0.1l1.2-1.2l1.2,0l0.4-0.3l0.1-2.3l0.4,0.4l-0.2,0.2l0,0.7l0.5,0.5l0,0.5l0.2,0.2v0.9l-0.7,0.2l-0.1,0.6
		l-0.7,0l-0.7-0.7l-0.7,0l-1.6,1.5l0,0.2l-0.5,1l0.1,0.8l0.4-0.1l0.2-1l0.8-0.6l0.6,0.4l0,0.5l-0.5,0.7l0,0.5l-1,1.2l0,0.2l-0.1,0.1
		l-0.5-0.5l-0.5,0l-0.1,0.4l-0.4,0.4l-0.2,0l-0.1,0.1l0,0.2l0.4,0.1l1.1,1.1l0.2,0.5l-0.2,0.2l0.6,0.4l1.7-1.2l0.9-0.5l1.7-0.2
		l1.2-0.5l1.6-0.2l0.2-0.2h2.6l0.5-0.7l0.1,0.8l0.4,0.1l0.5-0.5l1,0l0.6,0.6l0,0.2l0.7,0.5l-0.1,0.1l-0.7-0.2l-0.2-0.5l-0.5,0
		l-0.2-0.2h-0.2l-0.1,0.4l1.5,1.5h2.1l0.4,0.3l0,0.7l0.4,0.4h0.7l0.2-0.2l0.5,0l0.4,0.3l0.5,1l0,0.5l0.3,0.4l1.7,0l0.5-0.2l0.2-0.2
		l1.9,0.2l0.2-0.2l0.5,0.5l0.8-2.3l0.5-0.7l-0.8-0.4l-0.1-0.6l0.6-0.1l0.2,0.2l0.1-0.1l-0.2-1.4l0.5-0.7l1.3-1.3l1.2-0.5l0.7,0
		l0.1-0.6l0.3-0.1l0.5-0.2l0.1,0.4l-0.2,0.5l2.1,1.4l-0.2,1.4l0.6,0.8l0.5,0l1.7-1.4l0.5,0l0.2-0.2l0.5,0l0.1,0.6l0.4,0.3l0.7,0
		l0.2-0.5h0.2l1.4-1.2l0.7,0l0.2-0.2l0.9,0l0.3-0.2l1.2,0l0.5,0.7l0.7,0l1-0.5l0.2,0.2l0.2-0.2l1,0.7l0.5,0l0.1,0.4l0.2,0.2
		l-0.3,0.2l0.4,0.3l2.1,0l1.2-1l1.4-0.2l0.7-0.5l1.1-1.3l0.5-1l1-1.2l0-0.5l0.5-0.5l0-0.5l1-1.2v-0.5l0.5-0.5l0.2-1l0.5-0.5l0.5-1.4
		l0.4-0.6l0.5,0l0.2,0.2h0.9l1.4-1.4l0.2,0l1-1l0.2,0.2l0.4-0.3l0.2-0.5v-0.7l-0.3-0.4L319.4,224.8z M318.9,220l-1-0.5l-0.2-0.2
		l-0.8,0.6l0,0.5l-0.7,0.9l0,0.7l0.6,1.1l0.5,0l0.2,0.3l1.5-0.6l0-1.2l0.5-0.7L318.9,220z M236.5,253.8l-0.2,0.2l-1.2,0l-0.2,0.2
		l-0.3-0.2l-0.2,0.2l-0.7,0l-0.2,0.2l-0.2-0.2H232l-0.5-0.2l-1,0.5l-0.6,0.6l-0.2,0.7l-0.4,0.3l-1.2,0.2l-0.2,0.2l-1.4,0l-1.1,0.6
		l0,0.7l-0.9,2.4l0,1.4l0.2,0.2v1l-0.2,0.2l0,2.6l-0.2,0.2l-0.2,2.6l-0.5,0.9l-0.5,2.1l-0.7,1.5l-0.2,1.2l-1.4,1.9l0,0.7l-0.2,0.2
		l0,0.7l-0.2,0.2v0.2l0.4,0.4h0.7l0.7-0.5l1,0l1-0.5l0.2-0.2l0.7,0l0.5-0.2l0.7-0.7l0.2,0l0.5-0.7l0.2,0l3.2-3.4l0.7-3.8l0.2-0.2
		v-0.9l0.2-0.2l0-2.1l0.3-0.2v-1l0.2-0.2l0-0.7l0.3-0.2l0.2-1.7l0.9-1.9l0.5-1.9l0.7-1.7l0.6-0.6l0.7-0.2l0.5,0.3l0.9-0.7l0.2,0.2
		l0.6-0.3l-0.1-0.4H236.5z M282.2,246.2l-0.1,0.1l0,0.2l0.3,0.3h0.2l0.1-0.1l0-0.2l-0.4-0.4L282.2,246.2z M317.8,218.7l1.5,1.3
		l0.7,0l0.8-1.1l0-0.5l-2.8-0.1L317.8,218.7z M612.4,329.6l-0.6,0.1l-0.2,0.3l-0.2,0.8l0.4,0.4l0.4-0.2l0.7-1L612.4,329.6z
		 M492,288.9l0-0.4l-0.7-0.8l-0.3,0l-0.3,0.4l0,0.7l0.5,1L492,288.9z M494.8,288.4l0-0.7l-0.7-0.9l-1.8,0.3l-0.2,0.9l0.3,0.5
		l0.3,0.3l0,0.6l0.4,0.2l0,1.3l0,0.2l0.4,1.1l0.7-0.1l0.2-0.6l0.6,0.3l0.5-0.4l-0.1-0.5l-0.2-0.6l-0.1-0.2l0.2-1.3L494.8,288.4z
		 M503.4,284.2l-0.4,0.2l-0.7-0.3l-0.4,0.4l0.1,0.4l-0.2,0.3l0.7,1.3l0,1.4l0.6,0.7l0.5-0.4l0.2-3.1l0.5-0.5l-0.2-0.5L503.4,284.2z
		 M500.8,293.2l0.6-0.4l-0.2-0.4l-0.8-0.1l-0.3,0.4l0.3,0.3L500.8,293.2z M472.7,374.4l-0.3,0.3l0,0.6l0.6,0.7l0.5,0.1l0.3-0.4
		l-0.1-0.7L472.7,374.4z M502.9,311.8l0-1.4l0-1.5l-0.8-1.9l0.2-0.4l0.3-1.3l-0.2-0.5l0-1.4l-0.3-0.5l0-2.2l0.5-1.5l0.6-1.1
		l-0.2-0.8v-2l0-1.2l-0.3-0.3l-0.1-1.2l-0.9,0l-1.6,1.4l0.4,0.4l1.2-0.5l-1.4,1.5l-0.3,0.7l-0.2,0.3l0.3,0.5l-0.1,0.2l-0.4,0.3
		l-0.6,0l-0.5,0.5l0,1.1l-0.6,0.8l0.1,0.4l0.6,0.2l-0.5,0.6l0,0.8l0.5,0.4l1.4,0.3l0.2,0.7l-0.5,0.9l0.3,2.5l-0.1,1.8l-0.3,1.1
		l-0.9,0l-0.8-0.8l0-1.7l-0.2-0.6l-0.5-0.5l-0.4,0.1l-0.6,0.8l-0.8,0l-0.4,0.2l-0.6-0.3l-1.2,0l-1-0.9l-1.2-0.7l-0.3,0.1l-0.1,0.9
		l-0.6,1.1l-1.2,0.6l-0.1,0.4l-0.9,1.1l-0.3,1.5l0.5,0.4l0,0.5l0.4,0.4l0.3,0.8l0.9,0.6l0.3,0.4l0,0.7l1.8,2.1l0.8,0.5l1.4,0.5
		l0.6-0.9l1-0.4l0.7-0.4l0.9,0l0.1,0.5l0.7,0.1l0.5,0.5l0.6-0.2l0.2-0.3l0.4,0l0.4-0.4l0.3,0.2l0.3-0.2l0.6,0l1.5-2.7l0.5-0.7l0-0.3
		l0-0.6L502.9,311.8z M492,318.2l-0.2,0.3l0.3,0.2l0.4-0.1l0.2-0.2l-0.3-0.3L492,318.2z M476.7,278l-1.1-0.5L475,278l0.6,0.7
		l0.8,0.2l0.6-0.5L476.7,278z M477.6,317.7l-0.8,0.8l0.7,0.7l0.7-0.7L478,318L477.6,317.7z M490.1,318.4l-0.3,0.3l-1.6,0.2l-2.6,2.6
		l-1.3,0.5l-0.7,0.7l-0.7,0l-0.4,0.5l0.3,0.4l0,0.5l-0.5,1l-1.2,1.2l0,0.5l0.2,0.2l0.5,0l1.3-0.8l1.6-2l1.1-1.2l0.1-0.4l1.4-1.3
		l0.1-0.3l1.7-1.3l2.1-0.5l0.3-0.5l-0.3-0.3H490.1z M503.1,292.1l0.1-1.2l0.2-1.4l-0.3-0.4l-0.5,0l-0.5,1.6l-0.5,0.2l-0.1,0.6
		l1.4,0.8L503.1,292.1z M613.5,331.6l-0.5-0.2l-0.2-0.2l-0.3,0.5l0.2,0.4h0.6l0.2-0.1L613.5,331.6z M609.5,348.7l-0.3-0.3l-0.4,0
		l-0.2,0.4l0,0.8l0.3,0.6l0.5,0.4l0.5,0l0.1-0.2l-0.5-0.7L609.5,348.7z M617.6,338.9l-2.6-1.6l-0.6-0.6l-0.7-0.2l-0.3,0.2l0,0.3
		l1,1.2l1.8,0.8l0.6,0.8l0.9-0.1L617.6,338.9z M607.5,329.7l0.1-0.9l0.2-0.3l-0.3-1l0-0.7l0.2-0.4l-0.2-0.2l-0.5-1.5l0-1.1l-0.5-1
		l0.3-2.8l-0.2-0.3l0-1.8l0.3-0.3l0-0.7l0.2-0.3v-1.9l-0.3-0.3l0.1-1.9l0-2.1l-0.5-0.5l-0.4,0l-0.6,0.3l-1.4,1.4l-1,0.3l-1.3,1.3
		l-0.8,1.8l0,0.9l-0.3,0.4l0,2.6l0.5,0.8l-0.3,1.1l0.3,1.7l0.3,0.3l0,2l-0.5,1.4l-1.4,2.9l0.2,0.9l1,2.5l0.8,1.2l0.9,2.6l0.7,0.3
		l0.5-0.7l0.3-0.5l2.4-1.2l1.2-1.2l0.2-0.5l0-1.4l-1.4-0.7l0.5-0.1L607.5,329.7z M620.2,356.3l-0.5-0.5l-0.2-0.7l0.2-0.8l-0.2-0.8
		l-0.3,0.2H618l-0.4,0.9l0.5,1.1l1.8,1.6l0.2-0.1l0.1-0.4L620.2,356.3z M573.5,398.7l-0.4,0.4l0.3,0.6l0.3-0.1l0.2-0.2l0-0.3
		l-0.1-0.4L573.5,398.7z M573.3,403.9l0-3.1l0.2-0.7l-0.4-0.4l-0.3-0.9l0-0.5l-0.3-0.3l-0.4,0l-0.3,0.3l0,0.9l0.3,0.5l0,1.6
		l-0.3,0.4l0,1.8l1.2,1.4l0.5-0.2l0-0.4L573.3,403.9z M512.2,256.9l-0.2-1.4l-1.7-2.3l-1.1-3.6l-0.5,0.2l-0.6,1.3l-1.6,0.1l-0.9-0.4
		l-0.4,0.2l-1.1,0l-0.8-0.5l-1.1,0l-0.7,0.2l-0.4-0.3l-1.7-0.2l-2-0.7l-0.4-0.4L496,249l-0.5,0.2l0,1l-2.1,0l-0.3-0.2l-0.7,0
		l-0.5-0.2l-1.1-0.9l-0.9-0.4l-1.1-0.4l-1.2-0.9l-0.9-0.2l-0.4-0.4l-1.8-1.1l-1.4-1.2l-0.3-0.5h-0.2l-1.4-0.9l-1-0.3l-1.4-1.6
		l-0.7-1.3l-0.5-0.5l-0.4,0.3l-0.4,0.7l-0.6,0.1l-0.5,0.4l-0.7,0l-0.8,0.3l-0.5,0.4l-0.4,0l-0.5,1.1l0,1l0.2,0.3l0.7-0.5l0.1,0.4
		l-1.2,0.8l-0.3,0.1l-0.2,0.6l-0.8,0.8l-0.5-0.4l-1.2,0l-0.4-0.6l0-0.2l1.2,0.2l0.5-0.7l0.9,0l0.6-0.3l0.1-0.6l-0.4-1l-0.9-0.9
		l-0.4-1.1l-0.5-0.5l-0.3-0.6l0.2-1l-0.7-1.4l0-0.5l-0.6-0.4l-1,0.2l0.5,0.6l0,0.4l-0.5,0.5l0.2,0.3l-0.3,0.2l-0.8,0l-0.9,0
		l-0.4-0.2l-1.2,0.2l0.2,0.5l-0.5,0.5l0.2,0.6l-0.6,0.3l-0.1,1.2l0.3,0.3l0.7-0.2l0.3,0.4l0.8-0.2l0.9,0.4l-0.2,0.2l-1.9,0l-0.3,0.3
		l0.2,0.5l1.4,0.1l-0.4,0.4l-0.3,0.8l0.3,0.6l0.4,0.2l0.1,1.1l-0.7,1.5l0.5,1.1l-0.2,1.5l0.2,0.2l0,2.2l1,0.8l-0.9,0.1l-0.2,0.4
		l0.5,0.5l0.7,0.3l-0.5,0.5l0,0.6l-0.6-1.2l-0.5-0.5l-0.8-0.3l-0.8,0l-1.1,0.5l-0.6,0l-0.4,0.3l0.5,0.7l-0.1,0.3h-0.9l-0.4-0.3
		l-0.5,0.1l-0.4,0.4l-0.7,0.8l0.2,0.4l1.3,0.3l0.3,0.4l1,0.1l-0.2,0.2l-1.4,0l-0.2,0.4l0.3,0.6l-1.3,0.4l-0.3-0.3l-0.4,0.1l-0.9,0.7
		l-1.3,0.3l-0.7,0.7l-0.2,0.5l0.3,0.3l0.9,0.5l1.1,0l-0.2,0.5l-0.2,0l-0.6,0.3l-0.1,0.5l1.9,1.3l0.8,1.7l0.9,0l1.2-0.6l0.6-1.1
		l0.9,0l0.5,0.3l0.6,0l1-0.8l0.2-0.4l0.4,0l0.7-0.4l0.2-0.3l0-0.8l0.5-0.6v-0.7l0.5-1l0.9-0.4l0.7,0.3l0.5,0.9l1,1l0.1,0.5l0.6,0.3
		l0.5,0.8l1.1,0.8l0.4,1.4l0.3,0.3l-0.4,0.9l0.3,0.7l1.6,0l0.7-0.2l1.2,0.5l0.6-0.3l0.6,0.6l2.6,0l-0.5,0.7l0.5,0.3l-0.6,0.5l-0.5,1
		l0.1,0.4l0.4,0.2l1.5,0l0.3,0.2l2.4,0.6l1.2,0.9l-0.1,0.2l-0.6-0.4l-0.4,0l-1-0.7l-2.2,0l-1.6,1.3l-0.1,0.2l0.3,0.4l0.7,0l0.6,0.5
		l0.4-0.3l0.7,0.1l0,0.2l-0.7,0l-0.6,0.4l-0.7,0.2l-0.3,1.3l0.2,0.4l0.8,0l1.7-1.4l0.6-0.2l0.3,0.1l-0.4,0.4l-0.6,0.1l-0.6,0.7
		l-1.7,1.8l0.2,0.4l0.6,0.1l-0.2,0.2l-1.2,0l-0.3-0.2l-0.4,0l-0.5,0.4l-1.1,0.3l-0.8,0.8l0,1.1l0.3,0.4l-0.8,0.6l0.1,0.4l0.4,0.3
		l0.1,1l0.7,0.4l1.5-0.1l1-0.4l0.1,0.2l-0.6,0.3l-1.1,0.1l-0.1,0.4l0.3,0.4l-0.7,0.6l0.3,0.4l1.7,0l0.6,0.2l0.1,0.4l-0.5,0.4
		l0.7,0.6l0.5,0l0.2-0.2h3.3l0.5-0.4l0.2,0.2l0.4,0l0,0.9l0.6,0.6l0.8-0.1l0.7-0.5l0.8-0.2l0.5-0.5l0.7,0l1.6-0.7l2.3-0.5l0.8-0.5
		l0.5-0.7l1-2.1l0.6-0.4l0.1-1.3l0.2-0.3v-0.8l0.7-0.7l-0.4-1.1l0.6,0l0.4,0.3l0.5-0.1l0.4-0.2l0.2-0.5l0.4-0.3l0.6-0.7l0.8-0.5
		l1.4-2.4l0.1,2.4l0.8,1.6l-0.8-0.4l-0.5-0.8l-0.5,0l-0.8,1l-0.9,0.6l-0.6,1l0.3,0.5l-1,0l-0.9,0.7l-0.2,1.5l0.2,0.2l0.5-0.1
		l2.1-0.8l0.6-0.7l0.1-1.2l0.1,1.2l-0.6,0.5l0.1,0.4l0.1,0.6l1.3,1.2l1.4,0.5l0.8-0.7l0-1.6l0.2-0.3l0-4.2l0.2-0.4l-0.2-1l0.3-0.5
		l-0.1-0.8l1-2.5l-0.6-1.1l0.7,0.7l0.5,0l1-1l2-0.3l0.7-0.7l0.1-0.6l0.4-0.8l0-0.9l0.3-0.3l0-1.6l-0.3-2.5l-0.2-0.4v-1.1l-0.3-0.3
		l0-1.4l0.3-2.2L512.2,256.9z M589.3,358.7l-0.4,0.3h-1.6l-1.8,0.5l-0.3,0.2l-0.7,0l-0.6-0.4l-0.8-0.1l-0.5,0.4l-0.3,2.7l-0.3,0.4
		l0,0.3l-0.2,0.4l-0.3,0.6l0,0.5l0.2,0.3l-0.3,0.5l-0.2,1.8l-0.5,1.2l-0.2,2.1l0.1,0.3l0.6,0l0.8-1.2l1.3-0.5l0.1-0.9l0.9-0.7
		l-0.1-0.8l-0.5,0.1l-0.4,0.4l-0.1-0.1l0.4-0.4l0.4-0.3l1.1,0.1l0.8-0.3l0.6-0.6l0.1-0.6l1.1-1.1l0.5-1l1.2-0.5l0.3-0.8l0.6-0.2
		l0.4-0.4l0-0.3l1.5-1.7l-0.4-0.5L589.3,358.7z M602.2,351l-0.9,0.5h-1.4l-1.4,0.2l-1.5,1.7l0,0.7l0.4,0.3l1.9-0.1l0.2-0.2l0.5,0
		l0.7-0.7l0.9-0.2l1-0.9l0.5,0l0.5-0.6l-0.5-0.5L602.2,351z M469.8,391.5l-0.5,0l-0.3,0.3l0,0.2l0.5,0.5h0.2l0.2-0.3l0-0.4
		L469.8,391.5z M447.6,405.6l-0.5,0.8l0,0.4l0.4,0.5l1.2-0.1l0.3-0.4l0-0.8l-0.5-0.5L447.6,405.6z M444.5,411l-0.3,1.2l0.3,0.3
		l0.8,0l0.1-0.2l0.4-1.2l-0.6-0.4L444.5,411z M450.5,406.5l-0.7,0l-0.2,0.3l0.1,0.7l0.3,0.2l0.7,0l0.2-0.2l-0.1-0.9L450.5,406.5z
		 M452.3,405.8l-0.6,0l-0.2,0.2l-0.1,0.5l0.2,0.3l0.4,0.2l0.5-0.5l0-0.6L452.3,405.8z M455.1,406.2l-0.6,1l0.5,0.9l0.9,0.1l0.5-1.7
		l-0.5-0.7L455.1,406.2z M453.1,368.9h-2.2l-0.3,0.3l-1.9,0l-0.6,0.4l0.1,0.5l0.8,0.1l0.3,0.6l0.5,0.2l0.6-0.4l0.9,0.1l-2.3,0.9
		l-0.9,0.9l-0.5,0.2l-0.5,0.2l-1.5,0.1l-0.4,0.5l-0.3,0.1l-0.6-0.3l-0.6,0l-0.2,0.2l0.4,0.7l-0.5-0.4l-0.5,0l-0.1,1.1l0.2,0.4
		l0.3,0.2l1.1,0l0.8,0.5l0.4-0.1l0.7-0.7l0.6-1.2l2-0.8l2.4-1.4l0.5,0l0.9-0.9l0.3,0.1l1.1-0.5l0.1-0.4l-0.4-0.7L453.1,368.9z
		 M447.5,372.4l0.2-0.8l0.4-0.1l0.2-0.4l-0.2-0.5l-0.6,0l-0.8,1.2l-0.4,0.1l-0.5,0.7l0.8,0.1L447.5,372.4z M443.9,370.9l0-0.3
		l-0.6-0.2l-0.5,0.4l-1,0l-0.2,0.5l-0.4,0.5l-0.9,0.2l-0.6,0.4l0.2,0.9l1.7,0.8l0.9-0.8l-0.3-0.4l0.2-0.6l0.5-0.3l0.6-0.9
		L443.9,370.9z M443.8,371.3l0,0.9l0.2,0.1l0.8-0.1l0.4-0.4l0.3-0.6l-0.1-0.2l-0.8-0.2L443.8,371.3z M442.2,373.9l-0.4,0.4l-0.1,0.2
		l0.1,0.2l0.6,0.1l0.3-0.5l-0.2-0.3L442.2,373.9z M463.4,325.8l0.5-0.5l-0.3-0.4l-1.4,0l-1.3,0.6l-0.3,0.3l0.1,0.3l2.1,0.1
		L463.4,325.8z M467.4,371l-0.5,0.5l0.4,0.2l0.8,0l0.2-0.2l-0.5-0.5L467.4,371z M465,324.2l-0.7,0.3l-0.3,0.5l0.3,0.4l0.3-0.2l0.9,0
		l0.6-0.3l0.1-0.4l-0.4-0.2L465,324.2z M467.9,353l0.5-1.6l0-0.3l-0.5-0.3l-0.7,0.8l-0.3,0.9l0,0.4l0.5,0.4L467.9,353z M447.6,369.8
		l-0.6-0.6l-1.2,0.1l-0.2,0.4l-1.2,0.3l-0.4,0.5l1,0.4l1.6-0.2L447.6,369.8z M469.3,354.2l-0.6-0.5l-0.4,0.4l0.1,0.4l0.6,0.5
		l0.3-0.2L469.3,354.2z M470.6,385.5l-0.6,0l-0.3,0.6l0.1,0.4l0.2,0.2l0.8-0.1l0.2-0.4l-0.1-0.5L470.6,385.5z M462.7,402.7l-0.5-0.2
		l-1,0.9l-0.5,1.3l0.5,0.6l0.8,0l0.9-0.7l0.4-0.8l-0.1-0.4L462.7,402.7z M456.3,265.6l-0.3,0.5l-0.5,0.3l-1.8,0.4l-0.1,0.9l0.7,0.6
		l0.6,0.1l0.6,0.4l0.8-0.2l0.6-0.6l0.2-1.1l-0.1-1L456.3,265.6z M464.3,398.4l-0.7,0.6l-0.1,0.5l0.3,0.3l0.8,0.2l0.5-0.3l0-0.6
		l-0.3-0.6L464.3,398.4z M465.8,365.6l0.2-0.3l-0.6-0.6l-1.1-0.3l-1.2-1.4l-0.7,0.3l0.3,1.2l0.3,0.3l-0.3,0.4l0,0.7l0.3,0.6
		l-0.8,1.3v0.9l-0.4,0.7l-0.5,0.7l-1.3,0.5l-0.3,0.3l0.3,1.1l0.4,0.4l1.5-0.7l0,1.3l-0.2,0.3l0,2l0.2,0.8l0.5,0.5l0.8,0l0.4-0.9
		l1.2-2.9l1-0.9l0-0.6l-0.4-0.5l-0.2-0.4l-0.6-1.3l0-2.6l0.3-0.7L465.8,365.6z"/>
</g>

</svg>
