<?xml version="1.0" encoding="utf-8"?>

<svg version="1.2" baseProfile="tiny" xmlns="http://www.w3.org/2000/svg" xmlns:xlink="http://www.w3.org/1999/xlink" x="0px"
	 y="0px" viewBox="309.8 123.9 220.3 346.4" xml:space="preserve">

<g id="Chad">
	<g>
		<path fill="#002664" d="M329,294c-3.7,5.3-7.5,10.5-11.2,15.8c-0.5,1.1-1,2.2-1.5,3.3l-0.1,0.4l0,0.5l0.1,0.4l0.3,0.9l0,0.4
			l-0.2,0.5l-0.3,0.2l-0.4,0l-0.4,0.1l-0.2,0.2l-0.7,0.7l-0.4,0.3l-0.1,0.1l0,0.1l0.2,0.2l0.1,0.1l0.1,0.8l0,0.4l-0.2,0.4l-0.7,0.6
			l-0.8,0.2l-0.9,0.1L311,321l-0.5,0.3l-0.7,1l0,1.3c0.2,0.9,0.5,1.7,0.7,2.6l0.2,1l0.1,0.7c0.8,3.4,1.5,6.8,2.3,10.2l9.6,13.4
			l7.4-0.1l0.4,0.2l0.3,0.5v-59.9C330.1,292.8,329.6,293.4,329,294z"/>
		<polygon fill="#002664" points="330.5,416.9 325.1,417.2 324.9,417.3 324.9,417.4 324.9,417.7 324.8,417.9 323.8,419.9
			323.1,420.8 321.4,422.3 320.2,424.1 320.2,424.4 322.1,425.9 328,432.7 328.2,433.6 328.6,434.3 330.7,436 330.7,416.9 		"/>
		<path fill="#FECB00" d="M503.6,198.3c-7.9-4.1-15.8-8.2-23.6-12.4c-7.9-4.1-15.8-8.3-23.6-12.4c-7.9-4.2-15.7-8.3-23.6-12.5
			c-7.9-4.2-15.7-8.3-23.6-12.5c-7.8-4.2-15.7-8.3-23.5-12.5c-7.6-4.1-15.2-8.1-22.8-12.2l-0.4,0.1c-6.9,3.4-13.7,6.8-20.6,10.1h0
			l0,0l0,0v0c1.4,7.5,2.7,15,4,22.6c0.1,3.6,0.1,7.3,0.2,10.9l0.1,0.4l0.3,0.3l1,0.5l0.4,0.3l0.7,0.9c1.8,2.8,3.6,5.6,5.4,8.4
			l0.4,0.5c0.2,0.4,0.5,0.7,0.7,1.1l-0.8,0.5l-0.5,0.9l-0.2,1l0.2,1l0.2,0.6l0.3,0.5l0.4,0.4l1.7,1.4c2,2.2,4,4.4,6,6.6l0.3,0.5
			l0,0.4l-0.1,0.4c-1.4,2.5-2.7,5-4.1,7.5l-0.7,1.7c-0.4,5.2-0.9,10.5-1.3,15.7c-0.7,8.3-1.4,16.7-2.1,25
			c-0.7,8.2-1.4,16.5-2.1,24.8l-0.1,0.5l-0.3,0.4c-1.5,1.7-3.1,3.3-4.6,5c-5.4,5.9-10.9,11.7-16.4,17.6v59.9l0.7,1l0.3,0.3l0.2,0.3
			l0.1,0.4l0,0.4l-0.3,1l0,0.3l0.2,0.3l0.6,0.5l0.4,0.4v0.8l0,0.2l0.1,0.1l0.1,0l0.2-0.1v0.2l0,0.2l0.1,0.1l0.2,0l0.4-0.3l0.1,0
			l0.2,0.1l0,0.1l0,0.1l0.1,0.1l0.4,0.2l0.1,0.1l0.3,0.2l0.6-0.2l0.3,0.1l0.1,0.3l-0.3,0.7l0.2,0.4l0.3-0.5l0.1-0.1l0.2,0.1l0.2,0.2
			l0.1,0.2l0.1,0.2l0.2,0.3l0.4,0l0.7-0.2l0.2,0.4l0.7,2.6l-0.1,0.1l-0.2,0.3l0,0.1l0,0.2l0,0l0.1,0l0.2,0.2l0-0.1l0.1,0l0.1,0
			l0.1,0.1l0,0.1l0,0.2l0,0.1l0.3,0.5l0.4,1.6l0,0.2l0,1.5l0,0.3l-0.1,0.4v0.3l0.1,0.2l0.1,0.1l0.1,0.1l0,0.2l-0.1,0.1l-0.2,0
			l-0.1,0.1l0.1,0.3l0.1,0.1l0.5,0.4l0.5,0.5l0.3,0.2l0.3,0l0.4-0.3l0.4,0l0.4,0.2l0.4,0.3l-0.1,0.1l-0.1,0.2l0,0.3l0.1,0.2l0.1,0.2
			l0,0.1l-0.1,0.2l0,0.3l0.2,0.3l0.4,0.3l0.1,0.2l-0.6,0.1l-0.1,0.1l0,0.2l0.1,0.2l0.1,0.1l0.1,0.2l-0.1,0.2l-0.2,0.2l-0.1,0.2
			l0,0.5l0.1,0.3l0.3,0.2l0.4,0l0.1,0.2l0.5,1.2l-0.1,0.2l-0.3,0.3l-0.1,0.2l0,0.1l0.2,0.2l0,0.1l-0.1,0.1l-0.1,0l-0.1,0l-0.1,0
			l-0.2,0.5l0,0.4l0.1,0.4l0.3,1l0.2,0.4l0.6,0.7l0.2,0.7l-0.3,0.6l-1,1.1l-0.2,0.4l-0.1,0.4l-0.1,1.1l-0.1,0.3v0.2l0.1,0.2l0.1,0.1
			l0.1,0.1l0,0.2l-0.1,0.4l-0.5,0.7l-0.1,0.3l-0.1,1.3l0.3,4l0.6,1.4l0.2,0.3l0.1,0.4l-0.1,0.5l-0.3,0.9l0.1,0.8l1.6,3.1l0.2,0.5
			l0,0.3l-0.2,0.4l-0.1,0.5l0,0.5l0.1,0.4l0.1,0.1l0.2,0.1l0.2,0.1l0.2,0l0.2,0l0.1,0.1l0.1,0.1l0.4,0.2l0.2,0.4l0.3,0.8l0.3,0.3
			l0.3,0.2l0.2,0.3l0.1,0.4l0,0.5l0.1,0.4l0.2,0.4l2.9,2.7l0.8,1.1l0.3,0.2l0,0.1l1,0.8l1.4,0.8l0.7,0.2l0.9,0.8l-0.4,0.1l-4.7,1.2
			l-1.2,0l-3.5-1.1l-1.3-0.1l-1,0.1l-0.2,0.1l-0.2,0.1l-0.4,0.3l-0.2,0.1l-0.6,0.1l-0.6,0l-1.2-0.3l-1,0l-2.6,0.8l-0.8,0l-5.9-1.5
			V436l7.2,5.8l0.3,0.1l0.2-0.1l0.2,0h0.2l0.2,0l0.3,0.2l0.8,0.6l0.2,0.2l0.1,0.3l0.1,0.1l0.2,0.1l0.1,0.1l0.1,0.2l0.2,0.5l0.1,0.3
			v0.2l0.1,0.1l0.3,0.1l0.8,0.1l0.5,0.2l0.4,0.3l0.3,0.4l0.9,1.4l1.2,1.2l0.3,0.4l3.4,7.2l1.3,4.5l0.7,1.7l1,0.7l0.5,0
			c0.4,0.1,0.7,0.2,1.1,0.2l0,2.1l-0.3,1.3l-0.6,1.1l-0.9,1.1l0.7,0.2l0.8,0.1l1.5-0.2l0.9,0.1l1.1,1l0.8,0.3l0.7-0.1l2.8-0.6
			l0.4-0.2l0.7-0.4l0.3-0.3l0.5-0.6l0.3-0.3l0.3-0.2l0.5-0.2l1.3-0.2l0.7-0.2l0.5,0l0.5-0.1l0.4-0.3l0.7-0.6l0.4-0.2l1.8-0.3
			l0.3-0.2l0.1-0.3v-1.4l0.1-0.4l0.3-0.3l0.2,0l0.2,0.1l0.2,0.1l0.3-0.1l0.1-0.2l0.3-0.5l0.1-0.2l0.3-0.3l0.4-0.2l0.8-0.3l0,0.2
			l0,0.2l0,0.2l-0.1,0.6l0.1,0.4l0.2,0.3l0.3,0.3l0.2,0.1l0.2,0.1l0.2,0.1l0.2,0.2l0.1,0.3l0,0.2l-0.1,0.2l0,0.3l0.1,0.5l0.2,0.2
			l0.8,0.2l0.5,0.2l0.5,0.4l0.8,0.9l0.5,0.8l0.3,0.2l0.5-0.1l0.2-0.1l0.5-0.4c0.1,0,0.2,0,0.3,0l0.1,0l0-0.2l-0.1-0.1l-0.1-0.1
			l0-0.1l0.2-0.4l0.2-0.3l0.3-0.2l0.8-0.2l0.9-0.1l0.4,0l0.1-0.3l0.2-0.1l0.2,0l0.6,0.1l0.1-0.1l0-0.2l0.1-0.2l0.3-0.3l0.4,0.1
			l0.2,0.1l0.1,0.1l0.1,0l0.3-0.2l0.4-0.4l0.7-0.9l0.4-0.3l0.2,0l0.2,0l0.1-0.1l0.1-0.4l0.1-0.2l0.3-0.3l0.3-0.2l2.8-1l0.4-0.3
			l0.3-0.3l1,0.3l0.2-0.2l0.2-0.5l0.3-0.2l0.4-0.1l0.8-0.1l0.4-0.1l0.4-0.2l0.4-0.6l0.4-0.1l0.5,0l0.4,0l2.9,0.5l0.9,0l0.8-0.1
			l1.7-0.6l2-0.5l9.2-0.2l1.7-0.4l0.6-0.9l0-1l0.4-0.8l0.7-0.6l0.9-0.4l1.2-0.4l0.4-0.2l0.5-0.4l0.9-1.3l0.7-0.7l0.3-0.4l0.2-0.5
			l0.2-0.4l2.1-2.4l0.9-1.7l0.4-0.2l0.2-0.3l0.7-0.5l-0.4-0.5l-0.6-0.5l-0.3-0.2l-0.2-0.3l-2.5-1.1l-0.2-0.2l-0.1-0.3l-0.1-0.4
			l-0.1-0.2l-0.3,0.2l-0.4-0.3v-0.3l0.5-0.7l0.2,0.1l0.2,0l0.1-0.1l0.1-0.2l0-0.2l0.1-0.1l0.2,0l0.3-0.2l0.4-0.1l0.1-0.1l0.1-0.2
			l0.1-0.1l0.3-0.3l0.5-0.3l0.8-0.4l0.8-0.2l0.5,0.2h0.1l0.2,0l0.6,0.1l0.1,0l0.1-0.2l0.3-0.1l0.9,0l0.4-0.1l0.2,0l0.2,0.1l0.2,0.2
			l0.2,0.1l0.2-0.2l0.2,0.2l0.4,0.1l0.4,0.1l0.4,0l0.3-0.1l0.8-0.3l0.2,0.1l1.6,0l0.1,0l0.1,0.1l0.1,0l0.2-0.1l0.5,0l0.6-0.3
			l0.6-0.1l0.6,0.4l0.3-0.2l0.9,0l0.2-0.1l0.1-0.1l0.5-0.2l0.2,0l0.2,0l0.6-0.1l0.4-0.1l1.8,0.1l0.3-0.1l0.3-0.4l0.3,0.1l0.3-0.1
			l0.5-0.4l0.2,0l0.2,0l0.2,0l0.1-0.2l0-0.1l0.1-0.1l0.1-0.1l0.1,0l0.2,0.1l0.1,0.3l0.1,0l0.1-0.1l0-0.1l0-0.1l0.1-0.1l0.6-0.5
			l0.2-0.1l0.2,0l0.3,0.1l0.2,0l0-0.1l0-0.1l0-0.1l0.2-0.1l0.2,0.1l0.2,0.3l0.2,0.3l0.4,0.1l0.3-0.1l0.6-0.4l0.3-0.1l0.2,0.1
			l0.2,0.2l0.5,0.4l0.4-0.1l1.7,0.1l0.4-0.1l0.1-0.1l0.4-0.3l0.2-0.1l0.2,0l0.2,0.1l0.4-0.4l0.3-0.5l0.3-0.4l0.5-0.2l0.1-0.2
			l-0.2-0.5l-0.1-0.5l0.4-0.2l0.3,0l0.1-0.1l0.1-0.2l0-0.3l0.1-0.2l0.2,0l0.5,0.3l0,0l0.4,0l0,0l0.4,0.1l0.1,0h1.1l-0.3-0.9l0.9-0.4
			l0.9-0.3l0.2-0.2l0.2,0.2l0.2-0.2l0.1-0.2l0.1-0.2l0.2-0.1l0.1,0l0.1-0.2l0.1,0l0.1,0l0.1,0.1l0.1,0.1l0.1,0l0.1-0.4l0-0.5
			l0.1-0.5l0.5-0.2l0.2-0.2l0.8-0.9l0.2-0.3l0.1-0.2l0.2-0.2l0.5-0.3l0.1-0.2l0-0.2l0.1-0.1l0.3,0.1l0-0.3l0-0.1l-0.1-0.1v-0.1
			l0.3-0.1l0.1-0.3l0-0.7l0.1-0.3l0.3-0.6l0.1-0.4l0.1-0.1l0.1-0.1l0.1-0.1l0.1-0.1l0,0l0-0.1l0.1-0.1l0.1,0l0.1,0l0.2,0.2l0.1,0
			l0.1-0.1l0.1-0.1l0.3-0.3l0.1,0l0.1,0l0.1,0l0-0.1l0-0.3l0-0.1l0.3-0.8l0.2-0.4l1.2-0.8l0.2,0l0.1-0.3l0.2-0.3l1.1-1.2l0.3-0.2
			l0.3,0.2l0.9,0.3l0.3,0.1l0.7-0.3l0.7-0.7l0.6-0.9l1.1-2.5l0.6-0.8l0.7-0.4l0.2,0l0.3,0.1l0.3,0.1l0.2-0.1l0.1,0l0.7-0.2l0.1-0.1
			l0.5-0.1l0.3-0.3l0.2-0.4l0.2-0.4l0.2-0.1l0.2,0l0.2-0.1l0.1-0.2l0-0.2l-0.1-0.3l0-0.2l0.1-0.4l0.6-1.1l-0.2-0.1l0-0.1l0-0.1
			l0-0.1l-0.1-0.2l-0.4-0.4l-0.1-0.2l-0.1-0.3l-0.2-0.8l0-0.4l0-0.4l0.2-0.6l0.1-0.4l0.1-0.3l0.3-0.2l0.4-0.1l0.3,0l0.1-0.1l0.1-0.1
			l0.1-0.1l0.2-0.1l0.2,0l0.4-0.1l0.2,0l0.4,0.2l0.2,0l0.1-0.2l0.1,0l0.5-0.5l0.6-0.4l0.4-0.2l1.3-0.3l0.2-0.2l-0.2-0.4l0.1-0.3
			l0.1-0.4l0.2-0.4l0.4-0.2l1.8,0.2l0.3-0.1l0.6,0.3l0.3-0.4l0.2-0.7l0.6-0.5l0.2-0.3l0.3-0.2l0.3,0.1l0.2,0l0.2-0.2l0.4-0.3
			l0.3-0.1l0.4-0.2l0.5-0.1l0.6-0.1l0.3-0.1l0.3-0.2l0.4-0.4l0.2-0.1l0.3-0.1l0.3,0.1l0.3,0.1l0.3,0l0.2-0.2l0.5,0.4l0.4,0l0.4-0.1
			l0.5-0.1l0.2,0.1l0.4,0.2l0.2,0l0.7,0l0.2,0l0.8,0.2l0.5,0.4l1.3,0.4l1.2,0.1l0.8-3l0.1-0.2l0.3-0.4l0.1-0.2l0-0.4l0.1-0.4
			l0.1-0.4l0.4-0.7l0.1-0.4l-0.1-0.9l-0.5-1.6l-0.3-1.5l-0.3-0.3l-0.5,0l-2,0.2l-0.2-0.1l0-0.6l-0.1-0.2l-0.5-0.5l-1.7-0.6l-0.7-0.4
			l-0.8-0.7l-0.6-0.9l-0.4-1l-0.1-1l1.2-6.6l0.4-1.1l0.1-0.4l0-0.3l-0.1-0.1l-0.2,0.3l-0.3-0.2l-0.8,0.1l-1.4,0.4l-0.2,0.2l-0.1,0.1
			l-0.1,0.1l0.5-2.3l0-0.3l0-0.3l-0.1-0.3l-1.5-4.8l-0.7-1.1l0-0.3l0.5-0.7l1-2.5l-0.3-0.3l-2.1-0.8l-2.6-1.7l-0.6,0.9l-0.7,0.6
			l-0.8,0.4l-1,0.3l-0.8,0.1l-0.9,0l-0.9-0.2l-0.7-0.4l-0.4-0.4l-0.8-1.6l-0.6-0.7l-0.1-0.2l0.1-0.1l0.3-0.7l0.5-1.6l1.7-3.3
			l0.6-0.8l0.7-0.7l0.4-0.2l2.2-0.9l0.3-0.2l1.9-2l0.7-1l0.2-0.9l-0.3-0.5l-0.7-0.9l-0.3-0.5l-0.1-0.4l0-1.2l-0.3-0.8l-1.3-1.3
			l-0.4-0.8v-0.5l0-0.3l-0.1-0.3l-0.3-0.4l-0.5-0.5l0-0.2l0.5-0.8l1.9-2.4l0.5-0.5l0.6-0.4l3.3-1.6l0.4-0.3l0.8-0.7l0.5-0.3l0.6-0.1
			l0.5-0.2l0.3-0.4l0-0.6l-0.1-0.7l-0.2-0.4l-0.4-0.2l-1.2-0.2l-0.3-0.2l-0.3-0.3l-0.2-0.5l-0.1-0.3l0-0.2l0.2-0.4l0.1-0.1l0.3-0.1
			l0.1-0.1l0-0.2l-0.1-0.1L498,324l-0.1-0.1l-0.3-2.3l-0.2-0.3l-0.6-0.5l-0.5-0.8l0.4-0.8l0.8-0.6l0.9-0.4l4.2-1.1l0.2-0.2l0.1-0.3
			l0-0.2l-0.3-0.7l-0.1-0.4l-0.2-1.2v-0.6l0.2-0.3l0.8-0.5l0.4-0.4l0.1-0.4l0-0.4l0.1-0.5l0.2-0.4l1.9-2l0.4-0.3l0.5-0.3l0.7-0.3
			l0.2-0.2l0.9-1.7l0.2-0.5l0.3-2.5l0-0.7l-0.2-0.7l-0.5-0.6l-0.4-0.5l-0.4-0.6l-0.2-0.6l0.2-0.7l0.4-0.5l1.1-0.7v-96
			C507.4,200.3,505.5,199.3,503.6,198.3z"/>
		<path fill="#C60C30" d="M530.3,238c0-8.6,0-17.2,0-25.8c-1-0.5-2-1.1-3.1-1.6c-6-3.1-11.9-6.2-17.9-9.3v96l0.5-0.3l1.3-1.6
			l0.5-0.4l1.5-0.2l3.2,0.7l1.6-0.2l2.7-1l1.4-0.3h2.4l2.5,0.4l2.4,0.8l0.6,0l0.2-0.7v-1.3c0-0.7,0-1.4,0-2.1c0-9,0-18.1,0-27.1
			C530.3,255.4,530.3,246.7,530.3,238z"/>
	</g>

		<path vector-effect="none" fill="none" stroke="#999999" stroke-width="0.25" stroke-linecap="round" stroke-linejoin="round" stroke-miterlimit="10" d="
		M530.3,293.4v1.3l-0.2,0.7l-0.6,0l-2.4-0.8l-2.5-0.4h-2.4l-1.4,0.3l-2.7,1l-1.6,0.2l-3.2-0.7l-1.5,0.2l-0.5,0.4l-1.3,1.6l-1.7,1
		l-0.4,0.5l-0.2,0.7l0.2,0.6l0.4,0.6l0.4,0.5l0.5,0.6l0.2,0.7l0,0.7l-0.3,2.5l-0.2,0.5l-0.9,1.7l-0.2,0.2L507,308l-0.5,0.3l-0.4,0.3
		l-1.9,2l-0.2,0.4l-0.1,0.5l0,0.4l-0.1,0.4l-0.4,0.4l-0.8,0.5l-0.2,0.3v0.6l0.2,1.2l0.1,0.4l0.3,0.7l0,0.2l-0.1,0.3l-0.2,0.2
		l-4.2,1.1l-0.9,0.4l-0.8,0.6l-0.4,0.8l0.5,0.8l0.6,0.5l0.2,0.3l0.3,2.3l0.1,0.1l0.1,0.1l0.1,0.1l0,0.2l-0.1,0.1l-0.3,0.1l-0.1,0.1
		l-0.2,0.4l0,0.2l0.1,0.3l0.2,0.5l0.3,0.3l0.3,0.2l1.2,0.2l0.4,0.2l0.2,0.4l0.1,0.7l0,0.6l-0.3,0.4l-0.5,0.2l-0.6,0.1l-0.5,0.3
		l-0.8,0.7l-0.4,0.3l-3.3,1.6l-0.6,0.4l-0.5,0.5l-1.9,2.4l-0.5,0.8l0,0.2l0.5,0.5l0.3,0.4l0.1,0.3l0,0.3v0.5l0.4,0.8l1.3,1.3
		l0.3,0.8l0,1.2l0.1,0.4l0.3,0.5l0.7,0.9l0.3,0.5l-0.2,0.9l-0.7,1l-1.9,2l-0.3,0.2l-2.2,0.9l-0.4,0.2L488,351l-0.6,0.8l-1.7,3.3
		l-0.5,1.6l-0.3,0.7l-0.1,0.1l0.1,0.2l0.6,0.7l0.8,1.6l0.4,0.4l0.7,0.4l0.9,0.2l0.9,0l0.8-0.1l1-0.3l0.8-0.4l0.7-0.6l0.6-0.9
		l2.6,1.7l2.1,0.8l0.3,0.3l-1,2.5l-0.5,0.7l0,0.3l0.7,1.1l1.5,4.8l0.1,0.3l0,0.3l0,0.3l-0.5,2.3l0.1-0.1l0.1-0.1l0.2-0.2l1.4-0.4
		l0.8-0.1l0.3,0.2l0.2-0.3l0.1,0.1l0,0.3l-0.1,0.4l-0.4,1.1l-1.2,6.6l0.1,1l0.4,1l0.6,0.9l0.8,0.7l0.7,0.4l1.7,0.6l0.5,0.5l0.1,0.2
		l0,0.6l0.2,0.1l2-0.2l0.5,0l0.3,0.3l0.3,1.5l0.5,1.6l0.1,0.9l-0.1,0.4l-0.4,0.7l-0.1,0.4l-0.1,0.4l0,0.4l-0.1,0.2l-0.3,0.4
		l-0.1,0.2l-0.8,3l-1.2-0.1l-1.3-0.4l-0.5-0.4l-0.8-0.2l-0.2,0l-0.7,0l-0.2,0l-0.4-0.2l-0.2-0.1l-0.5,0.1l-0.4,0.1l-0.4,0l-0.5-0.4
		l-0.2,0.2l-0.3,0l-0.3-0.1l-0.3-0.1l-0.3,0.1l-0.2,0.1l-0.4,0.4l-0.3,0.2l-0.3,0.1l-0.6,0.1l-0.5,0.1l-0.4,0.2l-0.3,0.1l-0.4,0.3
		l-0.2,0.2l-0.2,0l-0.3-0.1l-0.3,0.2l-0.2,0.3l-0.6,0.5l-0.2,0.7l-0.3,0.4l-0.6-0.3l-0.3,0.1l-1.8-0.2l-0.4,0.2l-0.2,0.4l-0.1,0.4
		l-0.1,0.3l0.2,0.4l-0.2,0.2l-1.3,0.3l-0.4,0.2l-0.6,0.4l-0.5,0.5l-0.1,0l-0.1,0.2l-0.2,0l-0.4-0.2l-0.2,0l-0.4,0.1l-0.2,0l-0.2,0.1
		l-0.1,0.1l-0.1,0.1l-0.1,0.1l-0.3,0l-0.4,0.1l-0.3,0.2l-0.1,0.3l-0.1,0.4l-0.2,0.6l0,0.4l0,0.4l0.2,0.8l0.1,0.3l0.1,0.2l0.4,0.4
		l0.1,0.2l0,0.1l0,0.1l0,0.1l0.2,0.1l-0.6,1.1l-0.1,0.4l0,0.2l0.1,0.3l0,0.2l-0.1,0.2l-0.2,0.1l-0.2,0l-0.2,0.1l-0.2,0.4l-0.2,0.4
		l-0.3,0.3L481,412l-0.1,0.1l-0.7,0.2l-0.1,0l-0.2,0.1l-0.3-0.1l-0.3-0.1l-0.2,0l-0.7,0.4l-0.6,0.8l-1.1,2.5l-0.6,0.9l-0.7,0.7
		l-0.7,0.3l-0.3-0.1l-0.9-0.3l-0.3-0.2l-0.3,0.2l-1.1,1.2l-0.2,0.3l-0.1,0.3l-0.2,0l-1.2,0.8l-0.2,0.4l-0.3,0.8l0,0.1l0,0.3l0,0.1
		l-0.1,0l-0.1,0l-0.1,0l-0.3,0.3l-0.1,0.1l-0.1,0.1l-0.1,0l-0.2-0.2l-0.1,0l-0.1,0l-0.1,0.1l0,0.1l0,0l-0.1,0.1l-0.1,0.1l-0.1,0.1
		l-0.1,0.1l-0.1,0.4l-0.3,0.6l-0.1,0.3l0,0.7l-0.1,0.3l-0.3,0.1v0.1l0.1,0.1l0,0.1l0,0.3l-0.3-0.1l-0.1,0.1l0,0.2l-0.1,0.2l-0.5,0.3
		l-0.2,0.2l-0.1,0.2l-0.2,0.3l-0.8,0.9l-0.2,0.2l-0.5,0.2l-0.1,0.5l0,0.5l-0.1,0.4l-0.1,0l-0.1-0.1l-0.1-0.1l-0.1,0l-0.1,0l-0.1,0.2
		l-0.1,0l-0.2,0.1l-0.1,0.2l-0.1,0.2l-0.2,0.2l-0.2-0.2l-0.2,0.2l-0.9,0.3l-0.9,0.4l0.3,0.9h-1.1l-0.1,0l-0.4-0.1l0,0l-0.4,0l0,0
		l-0.5-0.3l-0.2,0l-0.1,0.2l0,0.3l-0.1,0.2l-0.1,0.1l-0.3,0l-0.4,0.2l0.1,0.5l0.2,0.5l-0.1,0.2l-0.5,0.2l-0.3,0.4l-0.3,0.5l-0.4,0.4
		l-0.2-0.1l-0.2,0l-0.2,0.1l-0.4,0.3l-0.1,0.1l-0.4,0.1l-1.7-0.1l-0.4,0.1l-0.5-0.4l-0.2-0.2l-0.2-0.1l-0.3,0.1l-0.6,0.4l-0.3,0.1
		l-0.4-0.1l-0.2-0.3l-0.2-0.3l-0.2-0.1l-0.2,0.1l0,0.1l0,0.1l0,0.1l-0.2,0l-0.3-0.1l-0.2,0l-0.2,0.1l-0.6,0.5l-0.1,0.1l0,0.1l0,0.1
		l-0.1,0.1l-0.1,0l-0.1-0.3l-0.2-0.1l-0.1,0l-0.1,0.1l-0.1,0.1l0,0.1l-0.1,0.2l-0.2,0l-0.2,0l-0.2,0l-0.5,0.4l-0.3,0.1l-0.3-0.1
		l-0.3,0.4l-0.3,0.1l-1.8-0.1l-0.4,0.1l-0.6,0.1l-0.2,0l-0.2,0l-0.5,0.2l-0.1,0.1l-0.2,0.1l-0.9,0l-0.3,0.2l-0.6-0.4l-0.6,0.1
		l-0.6,0.3l-0.5,0l-0.2,0.1l-0.1,0l-0.1-0.1l-0.1,0l-1.6,0l-0.2-0.1l-0.8,0.3l-0.3,0.1l-0.4,0l-0.4-0.1l-0.4-0.1l-0.2-0.2l-0.2,0.2
		l-0.2-0.1l-0.2-0.2l-0.2-0.1l-0.2,0l-0.4,0.1l-0.9,0l-0.3,0.1l-0.1,0.2l-0.1,0l-0.6-0.1l-0.2,0h-0.1l-0.5-0.2l-0.8,0.2l-0.8,0.4
		l-0.5,0.3l-0.3,0.3l-0.1,0.1l-0.1,0.2l-0.1,0.1l-0.4,0.1l-0.3,0.2l-0.2,0l-0.1,0.1l0,0.2l-0.1,0.2l-0.1,0.1l-0.2,0l-0.2-0.1
		l-0.5,0.7v0.3l0.4,0.3l0.3-0.2l0.1,0.2l0.1,0.4l0.1,0.3l0.2,0.2l2.5,1.1l0.2,0.3l0.3,0.2l0.6,0.5l0.4,0.5l-0.7,0.5l-0.2,0.3
		l-0.4,0.2l-0.9,1.7l-2.1,2.4l-0.2,0.4l-0.2,0.5l-0.3,0.4l-0.7,0.7l-0.9,1.3l-0.5,0.4l-0.4,0.2l-1.2,0.4l-0.9,0.4l-0.7,0.6L418,456
		l0,1l-0.6,0.9l-1.7,0.4l-9.2,0.2l-2,0.5l-1.7,0.6l-0.8,0.1l-0.9,0l-2.9-0.5l-0.4,0l-0.5,0l-0.4,0.1l-0.4,0.6l-0.4,0.2l-0.4,0.1
		l-0.8,0.1l-0.4,0.1l-0.3,0.2l-0.2,0.5l-0.2,0.2l-1-0.3l-0.3,0.3l-0.4,0.3l-2.8,1l-0.3,0.2l-0.3,0.3l-0.1,0.2l-0.1,0.4l-0.1,0.1
		l-0.2,0l-0.2,0l-0.4,0.3l-0.7,0.9l-0.4,0.4l-0.3,0.2l-0.1,0l-0.1-0.1l-0.2-0.1l-0.4-0.1l-0.3,0.3l-0.1,0.2l0,0.2l-0.1,0.1l-0.6-0.1
		l-0.2,0l-0.2,0.1l-0.1,0.3l-0.4,0l-0.9,0.1l-0.8,0.2l-0.3,0.2l-0.2,0.3l-0.2,0.4l0,0.1l0.1,0.1l0.1,0.1l0,0.2l-0.1,0
		c-0.1,0-0.2,0-0.3,0l-0.5,0.4l-0.2,0.1l-0.5,0.1l-0.3-0.2l-0.5-0.8l-0.8-0.9l-0.5-0.4l-0.5-0.2l-0.8-0.2l-0.2-0.2l-0.1-0.5l0-0.3
		l0.1-0.2l0-0.2l-0.1-0.3l-0.2-0.2l-0.2-0.1l-0.2-0.1l-0.2-0.1l-0.3-0.3l-0.2-0.3l-0.1-0.4l0.1-0.6l0-0.2l0-0.2l0-0.2l-0.8,0.3
		l-0.4,0.2l-0.3,0.3l-0.1,0.2l-0.3,0.5l-0.1,0.2l-0.3,0.1l-0.2-0.1l-0.2-0.1l-0.2,0l-0.3,0.3l-0.1,0.4v1.4l-0.1,0.3l-0.3,0.2
		l-1.8,0.3l-0.4,0.2l-0.7,0.6l-0.4,0.3l-0.5,0.1l-0.5,0l-0.7,0.2l-1.3,0.2l-0.5,0.2l-0.3,0.2l-0.3,0.3l-0.5,0.6l-0.3,0.3l-0.7,0.4
		l-0.4,0.2l-2.8,0.6l-0.7,0.1l-0.8-0.3l-1.1-1l-0.9-0.1l-1.5,0.2l-0.8-0.1l-0.7-0.2l0.9-1.1l0.6-1.1l0.3-1.3l0-2.1
		c-0.4-0.1-0.7-0.2-1.1-0.2l-0.5,0l-1-0.7l-0.7-1.7l-1.3-4.5l-3.4-7.2l-0.3-0.4l-1.2-1.2l-0.9-1.4l-0.3-0.4l-0.4-0.3l-0.5-0.2
		l-0.8-0.1l-0.3-0.1l-0.1-0.1v-0.2l-0.1-0.3l-0.2-0.5l-0.1-0.2l-0.1-0.1l-0.2-0.1l-0.1-0.1l-0.1-0.3l-0.2-0.2l-0.8-0.6l-0.3-0.2
		l-0.2,0h-0.2l-0.2,0l-0.2,0.1l-0.3-0.1l-9.3-7.5l-0.4-0.7l-0.2-0.9l-6-6.9l-1.9-1.5l0-0.3l1.3-1.8l1.7-1.5l0.7-0.9l1-2l0.1-0.2
		l0-0.2l0.1-0.2l0.2-0.1l5.4-0.4l6.1,1.5l0.8,0l2.6-0.8l1,0l1.2,0.3l0.6,0l0.6-0.1l0.2-0.1l0.4-0.3l0.2-0.1l0.2-0.1l1-0.1l1.3,0.1
		l3.5,1.1l1.2,0l4.7-1.2l0.4-0.1l-0.9-0.8l-0.7-0.2l-1.4-0.8l-1-0.8l0-0.1l-0.3-0.2l-0.8-1.1l-2.9-2.7l-0.2-0.4l-0.1-0.4l0-0.5
		l-0.1-0.4l-0.2-0.3l-0.3-0.2l-0.3-0.3l-0.3-0.8l-0.2-0.4l-0.4-0.2l-0.1-0.1l-0.1-0.1l-0.2,0l-0.2,0l-0.2-0.1l-0.2-0.1l-0.1-0.1
		l-0.1-0.4l0-0.5l0.1-0.5l0.2-0.4l0-0.3l-0.2-0.5l-1.6-3.1l-0.1-0.8l0.3-0.9l0.1-0.5l-0.1-0.4l-0.2-0.3l-0.6-1.4l-0.3-4l0.1-1.3
		l0.1-0.3l0.5-0.7l0.1-0.4l0-0.2l-0.1-0.1l-0.1-0.1l-0.1-0.2v-0.2l0.1-0.3l0.1-1.1l0.1-0.4l0.2-0.4l1-1.1l0.3-0.6l-0.2-0.7l-0.6-0.7
		l-0.2-0.4l-0.3-1l-0.1-0.4l0-0.4l0.2-0.5l0.1,0l0.1,0l0.1,0l0.1-0.1l0-0.1l-0.2-0.2l0-0.1l0.1-0.2l0.3-0.3l0.1-0.2l-0.5-1.2
		l-0.1-0.2l-0.4,0l-0.3-0.2l-0.1-0.3l0-0.5l0.1-0.2l0.2-0.2l0.1-0.2l-0.1-0.2l-0.1-0.1l-0.1-0.2l0-0.2l0.1-0.1l0.6-0.1l-0.1-0.2
		l-0.4-0.3l-0.2-0.3l0-0.3l0.1-0.2l0-0.1l-0.1-0.2l-0.1-0.2l0-0.3l0.1-0.2l0.1-0.1l-0.4-0.3l-0.4-0.2l-0.4,0l-0.4,0.3l-0.3,0
		l-0.3-0.2l-0.5-0.5l-0.5-0.4l-0.1-0.1l-0.1-0.3l0.1-0.1l0.2,0l0.1-0.1l0-0.2l-0.1-0.1l-0.1-0.1l-0.1-0.2v-0.3l0.1-0.4l0-0.3l0-1.5
		l0-0.2l-0.4-1.6l-0.3-0.5l0-0.1l0-0.2l0-0.1l-0.1-0.1l-0.1,0l-0.1,0l0,0.1l-0.2-0.2l-0.1,0l0,0l0-0.2l0-0.1l0.2-0.3l0.1-0.1
		l-0.7-2.6l-0.2-0.4l-0.7,0.2l-0.4,0l-0.2-0.3l-0.1-0.2l-0.1-0.2l-0.2-0.2l-0.2-0.1l-0.1,0.1l-0.3,0.5l-0.2-0.4l0.3-0.7l-0.1-0.3
		l-0.3-0.1l-0.6,0.2l-0.3-0.2l-0.1-0.1l-0.4-0.2l-0.1-0.1l0-0.1l0-0.1l-0.2-0.1l-0.1,0l-0.4,0.3l-0.2,0l-0.1-0.1l0-0.2V358l-0.2,0.1
		l-0.1,0l-0.1-0.1l0-0.2V357l-0.4-0.4l-0.6-0.5l-0.2-0.3l0-0.3l0.3-1l0-0.4l-0.1-0.4l-0.2-0.3l-0.3-0.3l-1-1.5l-0.4-0.2l-7.4,0.1
		l-9.6-13.4c-0.7-3.4-1.5-6.8-2.3-10.2l-0.1-0.7l-0.2-1c-0.2-0.9-0.5-1.7-0.7-2.6l0-1.3l0.7-1l0.5-0.3l0.8-0.3l0.9-0.1l0.8-0.2
		l0.7-0.6l0.2-0.4l0-0.4l-0.1-0.8l-0.1-0.1l-0.2-0.2l0-0.1l0.1-0.1l0.4-0.3l0.7-0.7l0.2-0.2l0.4-0.1l0.4,0l0.3-0.2l0.2-0.5l0-0.4
		l-0.3-0.9l-0.1-0.4l0-0.5l0.1-0.4c0.5-1.1,1-2.2,1.5-3.3c3.7-5.2,7.5-10.5,11.2-15.8c6-6.5,12.1-12.9,18.1-19.4
		c1.5-1.7,3.1-3.3,4.6-5l0.3-0.4l0.1-0.5c0.6-8.3,1.4-16.5,2.1-24.8c0.7-8.3,1.4-16.7,2.1-25c0.4-5.2,0.9-10.5,1.3-15.7l0.7-1.7
		c1.4-2.5,2.7-5,4.1-7.5l0.1-0.4l0-0.4l-0.3-0.5c-2-2.2-4-4.4-6-6.6l-1.7-1.4l-0.4-0.4l-0.3-0.5l-0.2-0.6l-0.2-1l0.2-1l0.5-0.9
		l0.8-0.5c-0.2-0.4-0.5-0.7-0.7-1.1l-0.4-0.5c-1.8-2.8-3.6-5.6-5.4-8.4l-0.7-0.9l-0.4-0.3l-1-0.5l-0.3-0.3l-0.1-0.4
		c0-3.6-0.1-7.3-0.2-10.9c-1.3-7.5-2.6-15.1-4-22.6v0l0,0l0,0l0,0h0c6.9-3.3,13.7-6.7,20.6-10.1l0.4-0.1c7.6,4.1,15.2,8.1,22.8,12.2
		c7.8,4.2,15.7,8.3,23.5,12.5c7.9,4.2,15.7,8.3,23.6,12.5c7.9,4.2,15.7,8.3,23.6,12.5c7.9,4.2,15.7,8.3,23.6,12.4
		c7.9,4.1,15.7,8.2,23.6,12.4c7.9,4.1,15.7,8.2,23.6,12.3c1,0.5,2,1.1,3.1,1.6c0,8.6,0,17.2,0,25.8c0,8.7,0,17.4,0,26.2
		c0,9,0,18.1,0,27.1C530.3,292,530.3,292.7,530.3,293.4"/>
</g>

</svg>
