<?xml version="1.0" encoding="utf-8"?>

<svg version="1.2" baseProfile="tiny" xmlns="http://www.w3.org/2000/svg" xmlns:xlink="http://www.w3.org/1999/xlink" x="0px"
	 y="0px" viewBox="324.9 122.3 191.2 349.2" xml:space="preserve">

<g id="Thailand">
	<g>
		<polygon fill="#ED1C24" points="363.5,425.1 363.5,425.2 363.4,425.2 363.4,425.2 363.3,425.2 363.5,425.6 363.5,426 363.5,426.7
			363.6,427 364.2,428.3 364.6,428.9 365.2,429.2 365.6,428.9 365.2,428.3 364.8,427.6 364.6,426.7 364.6,425.9 364.4,425.7
			363.7,425.1 		"/>
		<polygon fill="#ED1C24" points="367.1,450.1 366.9,450.3 366.5,450.2 366.9,450.6 367.4,450.7 367.9,450.6 368.6,450.1
			368.8,450.1 368.9,449.9 368.6,449.7 368.4,449.7 367.6,449.7 367.8,449.7 367.4,449.8 		"/>
		<polygon fill="#ED1C24" points="364.6,425.7 364.7,425.7 364.9,425.8 364.9,426 365,426.1 365.2,426.2 365.4,426.2 365.6,426.2
			365.7,425.9 365.8,425.5 365.8,425.1 365.7,424.8 365.3,424.5 364.4,424.4 363.9,424.6 364.5,425.6 		"/>
		<polygon fill="#ED1C24" points="478.5,174.4 478,173.9 477.5,173.6 476.9,173.6 476.4,173.7 476,174 475.6,174.4 475.5,174.6
			475.4,174.7 475.3,174.8 475.1,174.8 474.8,174.7 474.5,174.5 474.4,174.2 474.2,173.9 473.8,173.6 473.5,173.5 473.1,173.3
			472.7,173.3 471.3,173.2 471,173.1 469.7,172.5 469.5,172.4 469.3,172.2 469,172 467.6,171.6 467,171.5 466.5,171.4 466.3,171.4
			465.9,171.4 465.8,171.4 465.4,171.4 464.1,171 463.9,171 462.1,171.3 461.5,171.6 461,172 460.6,172.4 460.4,173 460.4,173.2
			460.4,173.3 460.5,173.4 460.5,173.5 460.7,173.6 461.7,174.3 461.8,174.5 461.8,174.7 461.6,174.9 461.3,175 460.4,175.1
			459.9,175.3 459.3,175.4 459.1,175.5 458.9,175.6 458.6,175.9 458.5,176.3 458.4,177 479.8,177 479.6,176.4 		"/>
		<polygon fill="#ED1C24" points="348.3,425.8 348.2,425.8 348.1,426 348.1,426.4 348.2,426.4 348.4,426.2 348.5,426.1 348.6,426
			348.5,425.7 348.5,425.8 		"/>
		<polygon fill="#ED1C24" points="346.2,418.7 346.3,418.8 346.4,419.1 346.3,419.2 346.1,419.3 346,419.4 346,419.7 346.1,419.8
			346.2,420 346.3,420.2 346.4,421.7 346.5,422 346.9,422.2 347.3,422.1 347.5,421.8 347.6,421.2 347.7,420.7 348.2,420.7
			349,421.1 348.9,420.3 349,420 349.8,419.7 350,419.5 349.9,419.1 349.8,418.8 349.7,418.9 349.5,419 349.5,419.1 349.2,418.8
			349.1,418.3 349,417.9 349,417.5 349.1,417.3 349.2,417.2 349.4,417.1 349.4,417 346.2,417 346,417.2 345.9,417.5 346.1,417.7
			346.1,417.9 346,418.1 345.8,418.3 345.7,418.5 345.8,418.6 		"/>
		<polygon fill="#ED1C24" points="352.8,417.2 352.8,417.4 352.9,417.7 353,418.3 353.1,418.7 353.4,419 353.7,419.1 353.9,418.6
			353.9,417 352.9,417 		"/>
		<polygon fill="#ED1C24" points="362.6,421.1 362.7,421.1 362.8,421 362.8,420.7 362.7,420.7 362.6,420.6 362.5,420.7 362.4,420.6
			362.3,420.5 362.1,420.3 361.7,420.2 361.6,420.3 361.6,420.3 361.5,420.4 361.4,420.5 361.4,420.6 361.5,420.6 361.6,420.7
			362.5,421.8 362.6,421.8 362.6,421.5 362.5,421.4 362.5,421.2 		"/>
		<polygon fill="#ED1C24" points="435.9,176.8 435.5,176.5 433.8,176.5 433.6,176.6 433.2,177 436,177 		"/>
		<polygon fill="#ED1C24" points="362,417.2 361.9,417.4 362.1,417.9 362.5,418.1 362.9,418.2 363,418.4 363.4,418.9 363.5,419.1
			363.8,419.1 364,419 364.5,418.6 364.5,419 364.3,419.7 364.3,420.1 364.2,420.4 363.2,421.1 363.5,421.7 363.6,423.3
			364.2,423.8 365,424 365.4,423.7 365.7,423 365.7,422.2 365.9,422.2 366,422.8 366.4,423.1 366.8,423.3 367.3,423.7 367.6,424.1
			367.8,424.2 368.2,424.3 368.5,424.4 368.8,424.8 368.9,425.1 368.8,425.2 368.5,425.3 368.6,425.5 368.8,425.6 369,425.7
			369.2,425.7 369.4,425.6 369.6,425.6 369.8,426.7 369.9,427.2 370,427.8 369.7,428.2 369.8,428.3 370.3,428.3 370.5,428.3
			370.5,428.6 370.7,429 370.8,429.1 370.9,430.2 370.8,430.7 370.6,431.1 371.3,432.2 371.6,432.5 371.9,432.7 372.6,432.8
			372.7,432.9 372.8,433.1 373.1,433.3 373.5,433.4 373.7,433.5 374.1,433.3 374.2,433 374.1,432.2 374.2,431.8 374.3,431.4
			374.6,431.1 374.9,431.1 375,431.4 374.9,432.4 374.9,432.8 375.5,433 376,432.5 376.6,431.3 376.8,431.3 376.6,432 376.3,432.9
			375.9,433.5 375.4,433.8 375.3,434.3 375.7,435.4 376.3,436.3 376.8,436.5 376.9,436.5 377,436.8 377.2,436.8 377.5,436.5
			378.4,436 378.3,436.8 378.5,437.1 378.8,437.3 379.1,437.1 379.5,436.9 379.9,436.8 380.1,437 379.4,437.9 379.4,438
			379.1,438.2 378.9,438.6 378.5,439.3 378.7,439.6 378.6,440.1 378.5,440.5 378.9,440.7 379.1,440.8 379.3,441.1 379.3,441.3
			379.2,441.4 378.9,441.4 378.8,441.4 378.7,441.8 378.7,442.8 379.2,443.3 381.2,444 381.3,444.1 381.5,444.4 381.7,444.9
			381.9,445.3 382.1,445.2 382.5,445.1 382.8,445.4 383.4,446.3 384,446.7 384.2,447 384.4,447.4 384.5,447.7 384.7,447.7
			384.9,447.7 385,447.8 385,448 385.2,448.4 385.3,448.6 385.3,448.7 385,449 385,449.2 385.1,449.3 385.2,449.3 385.5,449.1
			385.7,449.2 385.8,449.4 385.8,449.7 385.9,449.9 386.6,450.7 387.4,451.3 387.6,450.8 387.7,450.6 388.1,450.5 388.3,450.7
			388.3,451.1 388,451.8 388.4,451.9 388.7,452.3 388.8,452.8 389,452.4 389.2,451.9 389.3,451.3 389.3,451.1 389.2,450.7
			389.2,450.5 389.4,450.3 389.6,450.1 389.7,449.9 389.7,449.6 389.5,449.1 389.5,448.7 389.6,447.7 389.7,447.2 389.7,447
			389.9,446.8 390.2,446.7 390.4,446.8 390.6,447 390.8,447.1 391.1,447.1 391.1,447.1 391.5,446.8 391.7,446.8 392,446.8
			392.2,446.9 392.4,447.1 393.2,449.7 393.5,450.1 393.9,450.5 394.8,450.9 395.3,451.1 395.7,451.1 396.3,451.1 396.6,451.1
			397.4,451.7 397.8,451.9 399.2,452.3 400,452.6 400.4,452.7 400.8,452.7 402.3,451.6 402.7,451.6 402.7,451.8 402.7,452.3
			402.8,452.5 403,452.6 403.2,452.6 403.4,452.6 403.7,452.7 404.2,453 404.4,453.4 404.5,454.5 404.6,454.8 404.7,455
			404.9,455.5 405,455.7 404.9,455.9 404.9,456.1 404.8,456.3 404.8,457 404.9,457.2 405.1,457.5 405.2,457.5 405.3,457.4
			405.6,457.3 405.9,457.3 406.9,457.5 407.3,457.4 407.9,456.8 408.3,456.7 409.1,457.3 409.5,457.4 410.5,457.2 410.8,457.3
			411,457.6 411,458.1 411,458.6 410.8,458.8 410.5,459 410.2,459.3 410.1,459.9 410.5,460.2 410.9,460.5 411.1,461 411,461.9
			410.9,463.2 410.8,464 410.7,464.4 410.6,464.8 410.1,465 409.7,465.1 409.3,465.3 408.3,467.2 408.2,467.5 408.1,467.7
			408.2,468 408.5,468.5 408.7,469 408.9,469.2 409.1,469.3 409.6,469.3 409.8,469.3 410.3,469.6 410.7,470.1 411.1,470.7
			411.4,471.3 411.7,471.5 412.4,471.3 413.5,470.6 413.8,470.3 414.1,469.9 414.3,469.4 414.4,468.9 414.7,467.9 415.4,467.5
			416.3,467.3 417.2,466.9 418,466.4 421.2,465.1 421.8,465 422.3,465.1 422.6,465.6 422.7,465.9 422.9,466 423,466.2 423.3,466.2
			423.5,466.3 423.5,466.5 423.5,466.7 423.5,466.9 423.9,468 424.3,468.4 424.7,468.5 425,468.3 425.4,468 425.7,467.9 426,468
			426.1,468.2 426.3,468.5 426.5,468.7 427,469 427.4,468.9 427.6,468.7 427.8,468.2 427.9,468 428.6,467.6 428.8,467.4
			428.8,467.2 428.9,467 429.2,466.9 430,466.2 430.1,465.3 430.1,464.3 430.5,463.4 431,462.7 432.7,461.4 433.3,460.8 433.6,460
			433.5,458.3 433.6,457 432.4,456.2 429.9,453.7 427.5,452.3 426.7,451.4 424.3,447.8 422,443.8 421.8,443.6 421,443.1
			420.3,442.9 420.2,442.7 419.8,442.6 419.3,442.5 419,442.5 418.6,442.4 417.8,441.9 416.9,441.6 416.3,441.1 415.7,440.8
			415,441.2 416.5,441.8 417.2,442.3 417,442.8 416.9,442.8 416.3,442.7 416.2,442.8 416.1,442.7 415.7,442.4 415.7,442.3
			415.2,442.4 414.2,443 413.3,443.1 409.5,443.2 408.7,442.9 407.1,441.8 406.1,441.1 405.8,440.9 405.5,440.8 404.9,440.9
			404.6,440.9 404,440.7 403.5,440.3 400,435.5 399.7,434.9 399.5,435.2 399.5,435.8 399.3,436.1 398.3,436.9 398.1,436.9
			397.9,436.9 397.3,436.8 396.9,436.9 396.8,436.7 396.8,436.3 396.3,436.5 395.8,436.3 395.5,436 395.4,435.4 395.2,435.3
			395,435.1 394.9,434.8 395,434.7 395.2,434.5 395.4,434.5 395.5,434.4 395.4,434.2 395.2,434.1 395,434 394.8,433.8 394.7,433.6
			394.6,433.3 394.6,432.8 394.4,432.3 394,432.1 393.4,432.1 392.9,432 392.3,431.6 391.9,430.9 391.1,429 391.1,428.9 391,428.7
			390.5,428.3 390.4,428.2 390.2,428.1 390,427.7 389.9,426.8 389.5,425.7 389.2,423.8 389.2,423.3 389.5,423 390.7,421.9
			391.2,421.8 391.7,421.7 392.1,421.6 392.5,421.7 393,422.4 393.3,423.6 393.4,424.8 393.3,425.7 393,426.1 392.2,426.6
			392.1,427.1 392.1,427.4 392.1,427.5 392.2,427.7 392.3,427.8 392.6,428 392.7,427.9 392.9,427.5 393.6,426.9 394.2,426.8
			394.8,427 395.2,427.8 395.3,429.4 395.6,430.1 396,432.6 396,433.2 395.7,433.8 395.9,433.9 396.8,434 397,434.1 397.1,434.2
			398.2,435.1 398.7,435.4 399.1,435.4 399.3,435 399.2,434.6 399,434.2 397.3,432.2 396,428.9 394.4,420.9 393.5,417 362,417 		"/>
		<polygon fill="#ED1C24" points="382.7,446.2 382.6,446 382.3,446.2 382.2,446.6 382.5,446.7 382.8,446.6 		"/>
		<polygon fill="#ED1C24" points="377,449 376.8,449.2 376.7,449.5 377.3,450.4 377.8,451.2 378,451.6 378.2,451.5 378.3,451.4
			378.3,451.3 378.4,451.1 378.4,450.9 378.6,450.8 378.8,450.8 379,450.7 379.1,450.4 379.1,450.1 379.1,449.8 378.5,447.5
			378,446.3 377.8,446.4 377.8,446.9 377.7,447.3 377.7,447.5 377.5,447.6 377.4,447.7 377.2,447.8 377.2,448 377.3,448.4
			377.2,448.6 		"/>
		<polygon fill="#ED1C24" points="376.7,437.5 376.6,437.5 376.5,437.5 376.3,437.4 376.1,437.3 375.9,437.2 375.7,437.2
			375.8,437.4 375.9,437.6 376.1,437.8 376.4,437.9 376.9,438.1 377,438 376.8,437.7 		"/>
		<polygon fill="#ED1C24" points="370,451.2 370.1,451.1 370.3,450.9 370.3,450.6 370.3,450.3 370.3,450.1 370.1,450.1 370.1,450
			370.1,449.9 369.5,449.8 369.3,449.8 369.2,449.9 369.4,451.1 369.7,451.3 		"/>
		<polygon fill="#ED1C24" points="412.7,176.9 412.6,176.7 412.4,176.6 412.3,176.5 412.1,176.3 412,175.9 411.9,175.7 411.9,174.8
			411.9,174.6 412,174.4 412.4,174 412.5,173.8 412.3,173.5 410.8,172.8 410.1,172.1 409.8,171.7 409.6,171.3 409.7,170.8
			410.4,170.1 410.6,169.7 410.6,169.4 410.7,169.3 412.2,168.5 412.5,168.2 412.6,167.9 412.6,167.4 412.6,167.1 412.8,167
			413.2,166.8 413.4,166.7 414,166.1 414.3,165.7 414.5,165.4 414.3,165 413.8,164.4 413.7,164 413.7,163.6 414.1,162.8
			414.2,162.4 414.1,161 414.1,160.5 414.3,160.1 414.8,159.4 415.1,159.1 415.3,158.3 415.5,157.9 416.4,157 416.2,156.2
			415.6,155.5 414.6,154.7 414.4,154.4 414.2,154 414.1,153.4 414.2,152 413.7,150 413.7,149.8 413.8,149.7 413.8,149.6
			413.7,149.3 413.6,149.3 413.2,149.2 413,149.1 412.9,148.3 413,147.3 413.4,146.5 413.9,146.2 414.4,146 414.7,145.5
			414.8,144.8 414.8,144.2 414.7,143.9 414.6,143.6 414.4,143.4 414.1,143.3 413.7,143.2 413.5,143.2 413.3,143.4 413,143.5
			412.4,143.7 411.8,143.8 411.1,143.7 410.5,143.5 409.5,142.8 409,142.6 408.3,142.6 406.3,142.6 406.2,142.6 406,142.6
			405.8,142.7 405.7,142.8 405.4,143.3 404.5,144.4 403.5,145.4 403.2,145.8 403.1,145.7 402.9,145.5 402.7,145.2 402.4,145
			400.5,144.3 399.9,144.3 399.4,144.7 398.9,145.4 398.5,145.5 397.9,145.3 397.2,145 396.8,144.7 396.5,144.4 396.5,144.1
			396.5,143.7 396.4,143.3 396.2,143 395.7,142.4 395.5,142.1 395.4,141.7 395.3,140.9 395.3,140.5 395.1,140.2 394.7,139.7
			394.6,139.4 394.7,138.9 395.6,137.8 395.8,137.1 396,136.9 396.2,136.8 396.6,136.6 396.8,136.5 397,136.1 397.1,135.7
			397.2,134.8 397.8,133.3 397.8,133.3 398.4,131.5 398.6,130.6 398.5,129.3 398.5,129.1 398.4,129.1 398.2,129.4 398.1,129.5
			397.7,129.4 397.3,129.2 397.1,128.9 397.1,128.8 396.7,128.6 396.5,128.5 396.4,128.4 396.3,128 396.2,127.9 395.6,127.1
			394.3,124.2 393.8,123.7 392.9,123.4 392.1,123.6 391.4,124.1 391,124.7 390.7,125.5 390.7,125.6 390.5,125.6 390,125.8
			390,125.8 389.7,126 389.8,127 389.4,127.3 389,127.3 388.6,127.1 388.3,126.7 388.1,126.3 388.2,125.4 387.2,124.8 387,124.5
			386.9,124.3 386.7,124.1 386.4,123.9 386.1,123.8 385.8,123.8 385.6,123.7 385.3,123.4 385.1,123.2 385,123 384.9,122.7
			384.8,122.5 384.6,122.3 384.4,122.3 384.3,122.4 383.1,122.6 382.6,122.7 382.1,123 381.9,123.4 381.6,124.3 381.4,124.7
			381,125 380.6,125.2 379.6,125.2 379.2,125.2 378.3,125.6 377.9,125.7 377.6,125.6 377.3,125.4 377.1,125.3 376.8,125.3
			376.4,125.3 376.2,125.3 374.4,124.8 373.3,124 373,123.8 372.5,124 372.7,124.4 373.6,125.3 373.8,125.8 374.1,127.2 374.8,128
			375,128.4 374.8,129 374.6,129.4 374.4,129.6 374.1,129.7 373.8,130 373,130.7 370.3,131.6 369.7,131.6 369.2,131.4 368.3,130.7
			367.9,130.5 366.9,130.2 366.5,130.2 365.6,130.3 364.5,130.7 363.7,131.3 363.2,132.2 363,133.8 363,134.1 363.1,134.5
			363.2,134.8 363.1,134.9 363,135 362.9,135.2 362.8,135.4 362.9,136 363,136.5 363.1,136.9 362.9,137.5 362.6,138.1 362.2,138.3
			361.4,138.7 360.5,139.3 360.2,139.4 359.7,138.7 359.4,138.4 359.1,138.2 358.4,137.9 357.1,138.9 356.6,139.1 354.6,139.4
			354.2,139.6 354,139.8 353.6,140.3 353.4,140.4 352.9,140.5 352.4,140.7 352.2,140.9 352.2,141 352.1,141.1 351.7,140.9
			351.5,140.7 351.3,140.5 351.1,140.3 350.7,140.3 349.9,140.8 348.9,140.8 347.8,140.7 346.9,140.7 345.9,141.2 345.3,141.3
			344.9,141 344.8,140.8 344.8,140.3 344.7,140 344.6,140 343.8,139.7 342.9,138.9 342.4,138.6 341.8,138.7 341.5,138.6
			341.2,138.2 340.9,137.9 340.4,138 340.2,138.3 339.9,139.9 339.9,140.3 340.1,141.2 340.1,141.6 340,142 339.8,142 339.6,142
			339.3,142.1 339.1,142.3 338.8,142.7 338.6,142.8 337.2,143.6 336.3,143.7 336.1,144 336.1,144.4 336.2,144.9 336.2,145.2
			336.3,145.3 336.3,145.5 336.2,145.8 336,146.1 335.2,146.8 334.5,147.8 334.5,148 334.6,148.5 334.7,148.7 334.8,149.3
			335.1,149.7 335.4,150.2 335.2,150.6 334.9,150.7 334.7,150.7 334.5,150.7 334.4,151 334.5,151.2 335.1,151.7 335.3,152
			335.5,152.4 335.6,152.8 335.5,154.7 335.3,155.1 335,155.5 333.5,156.6 333.3,157 333.1,157.9 333,158.3 332.7,158.7 332.2,159
			331.9,159.3 332,159.6 332.5,160.1 333.1,160.5 333.3,160.7 333.4,161 333.4,161.7 333.4,161.9 333.7,162.8 333.7,163.2
			333.7,163.7 333.9,164.6 334.1,165.6 334.3,166.6 334.1,167.6 334,167.8 333.9,167.9 333.8,167.9 332.7,168.2 331.5,168.1
			331,168.3 329.4,169.3 328.5,169.8 327.4,169.7 326.9,169.8 326.6,169.8 326.4,169.6 326.3,169.5 326.2,169.3 325.7,168.5
			325.5,168.4 324.9,168.3 325,168.6 325.5,169.1 325.8,169.5 325.9,169.9 326.4,171 327,171.9 327.1,172.4 327.1,173 327.2,173.6
			327.5,174.1 328,174.6 328.5,174.9 329,175.2 329.2,175 329.3,174.9 329.7,173.7 329.7,173.6 330,173.6 331.2,174.1 331.5,174.2
			331.6,174.6 331.6,175 331.4,175.4 331.1,175.6 331,175.8 331.3,176.3 331.8,177 412.7,177 		"/>
		<polygon fill="#ED1C24" points="371.9,435.2 372.3,434.6 372.5,434.5 372.7,434.4 373,434.4 373.3,434.4 373.1,434.2 372.5,434
			372.2,433.8 371.7,433.6 371.6,434.1 371.6,435.3 371.7,435.5 		"/>
		<polygon fill="#FFFFFF" points="353,414.1 353.2,414.4 353.4,414.5 354.1,414.8 354.1,414.5 354.5,412.9 354.5,412.7 354.5,412.6
			354.4,412.5 354.2,412.4 354,412.8 353.7,413.1 353.5,413.5 353.6,413.8 353.1,414 		"/>
		<polygon fill="#FFFFFF" points="378.6,381.8 379.1,381.6 379,381.1 378.3,381.7 		"/>
		<polygon fill="#FFFFFF" points="381.7,368.8 381.8,369 381.9,369 382,369 382,369.2 382.1,369.1 382.2,369.1 382.3,369
			382.4,368.8 382.4,368.7 382.5,368.6 382.5,368.5 382.6,368.5 382.6,368.4 382.5,368.3 382.6,368.2 382.5,368.2 382.4,368.1
			382.5,367.9 382.4,367.8 382.4,367.8 382.4,367.7 382.3,367.6 382.2,367.7 381.9,367.6 381.8,367.9 381.8,368.1 381.9,368.1
			382,368.3 381.8,368.6 		"/>
		<polygon fill="#FFFFFF" points="353.1,417 352.9,417 352.9,417 353.9,417 353.9,416.1 353.7,415.4 353.3,415 352.3,414.4
			352.3,414.4 352.2,414.2 352.1,414.1 352,414 352,414.4 352.1,414.8 352.2,415.2 352.5,415.7 352.5,415.9 352.6,416 352.9,416.1
			353.1,416.1 353.2,416.3 353.2,416.5 353.3,416.7 353.2,416.9 		"/>
		<polygon fill="#FFFFFF" points="378.5,379.5 378.6,379.3 378.6,379.3 378.5,379.3 378.5,379.2 378.4,379.2 378.4,379.5
			378.5,379.6 		"/>
		<polygon fill="#FFFFFF" points="458.3,177.1 458.2,177.6 457.9,178 457.5,178.2 457,178.4 457.1,178.3 457.1,178.2 456.8,178.4
			456.6,178.6 456.5,178.9 456.5,179.3 456.7,180.8 456.6,181 456.3,181.1 456.1,181.5 455.9,181.8 455.5,182 455.1,181.9
			454.4,181.4 454,181.3 453.6,181.4 451.6,182.3 451.3,182.5 451.1,182.7 449.8,183.5 448.9,184.2 448.6,184.5 447.8,184.7
			447.5,184.8 447.3,185.2 447.5,185.7 447.7,186 447.7,186.2 447.2,186.1 446,185.5 445.7,185.4 445.7,185.2 446.1,183.6
			445.8,182.7 445,182.3 443.1,182.3 442.2,182.1 441.5,181.7 440.8,181.2 440.4,180.7 439.7,180.7 439,180.4 437.9,179.3
			437.3,178.6 437.2,178.5 437.1,178.4 436.4,177.9 436.2,177.5 436.1,177.1 436,177 433.2,177 429.8,180.7 429.3,180.9
			428.4,180.4 427.5,180.1 427.3,179.8 427.1,179.8 426.7,180.2 426.6,180.6 426.4,181.7 425.8,183.2 425.7,183.7 423.6,184.1
			423.2,184.4 423,184.8 422.8,185.1 422.2,184.8 422.2,185.1 422.2,185.5 422.1,185.7 421.9,185.9 421.2,186.2 421.7,186.6
			421.3,186.9 420.5,187.3 420,187.7 420,187.9 419.8,188.1 419.8,188.3 419.7,188.3 419.5,187.9 419.5,187.7 419.4,187.6
			419.4,187.6 419.3,187.6 419.2,187.7 418.9,188 418.5,188 418.2,188 417.9,188.1 417.7,188.3 417.9,188.4 418.1,188.4
			418.2,188.5 418.2,188.6 418.2,188.7 417.8,189.2 417.6,189.2 417.4,189.2 417.2,189.3 414.6,191.4 414.2,192 413.7,192.9
			413.6,193.1 413.3,193.2 413,193.2 412.8,193.4 412.7,193.7 412.7,193.7 412.3,194.3 412.2,194.4 412,194.5 411.9,194.6
			411.8,194.5 411.1,194.2 410.4,193.8 410.1,193.7 409.7,193.3 409.4,193 408.9,192.7 408.5,192.5 406.7,192.1 406.3,191.9
			406.3,191.3 406.6,190.8 407.4,189.9 407.9,188.8 408,188.2 408,187.7 407.9,187.5 408,187.3 408.1,187.1 408.3,187 408.4,187
			408.4,186.9 408.4,186.9 408.3,186.8 408.2,186.6 408.1,186.5 408.2,186.3 408.3,186.2 408.8,186 408.9,185.7 408.9,184.9
			408.9,184.4 409.1,184.1 409.8,183.7 410.4,183.2 410.8,182.6 411.1,182 411.5,181.3 411.8,181.1 412.6,180.6 412.7,180.3
			412.7,180 412.3,179.1 412.2,178.6 412.3,178.2 412.6,177.3 412.7,177 331.8,177 332.5,177.9 332.5,178.1 332.6,178.2
			332.6,178.4 332.6,178.7 332.8,179.2 332.9,179.4 332.9,179.6 332.8,179.8 332.7,179.9 332.8,180.1 332.9,180.1 333,180.1
			333.1,180.2 333.4,180.3 333.4,180.4 333.5,180.7 333.8,181.5 333.9,181.7 334,181.8 334.1,182.1 334.2,182.4 334.1,182.5
			334,182.5 333.4,183 332.7,184.1 332.6,184.5 332.9,185.6 332.4,185.7 332.5,186 332.8,186.3 333.1,186.5 333.2,186.9
			333.3,187.1 333.9,187.6 334,187.9 334.1,188.1 334.1,188.4 334.1,188.7 334.3,189 334.5,189.3 338.3,192.9 338.6,193.1
			339.2,193.3 339.4,193.5 339.6,193.7 339.7,194.1 340.2,194.9 340.5,195.6 340.6,195.9 340.9,196.2 341.2,196.4 341.6,196.5
			341.9,196.7 342,197 342,197.3 341.9,197.8 342,198.1 342.1,198.4 344.1,200.2 344.5,200.4 344.9,200.8 345.7,202 346.2,202.3
			346.1,202.6 345.9,202.8 346,203 346.6,203 346.6,203.2 346.5,203.4 346.4,203.5 346.7,204.1 347,204.4 347.4,204.5 348.6,204.5
			349,204.7 349.4,204.9 349.9,205.3 350.1,205.7 350.5,206.5 350.7,206.8 350.9,207.1 350.9,207.5 351,207.9 351.3,208
			351.6,208.2 351.7,208.5 351.9,209.2 351.6,209 351.3,208.9 351.2,209 351.1,209.4 351.2,209.7 351.4,209.8 351.6,209.9
			351.8,210.1 351.7,210.3 351.5,210.6 351.1,210.9 350.7,211 350.5,211.4 350.3,211.8 350.3,212.2 351,212.8 351.1,213
			351.3,213.7 351.6,214.1 352.4,214.7 352.8,215.1 352.8,215.4 352.9,215.6 352.9,215.8 352.8,216.1 352.8,216.3 353,216.6
			354.4,218.4 354.6,218.9 354.5,219.1 354.3,219.6 354.3,219.9 354.6,220.6 355,222.3 355.1,222.7 355.5,223 355.9,222.7
			356.6,221.7 358,220.6 358.3,220 358.5,219 358.7,218.6 359.2,218.2 359.2,219 359.7,219.5 360.2,219.8 360.6,220.4 360.6,220.8
			360.4,221.9 360.3,222.9 360.2,223.3 359.5,224.1 359.2,224.5 359.1,225 359,225.5 359.1,226 359,226.3 358.4,226.9 358.2,227
			357.9,227.1 357.7,226.9 357.6,226.8 357.3,226.7 355.9,226.5 355.5,226.5 355,226.7 354.8,227.1 354.7,227.6 354.3,228.1
			354.1,228.3 353.9,228.4 353.7,228.4 353.4,228.4 353.2,228.3 352.9,228.2 352.6,228.2 352.4,228.4 352.5,228.7 353.1,229.6
			353.3,230 353.2,230.5 352.9,231.4 352.9,232 353.1,233 353,233.4 352.3,235.8 352.3,236.3 352.3,237 515.8,237 515.2,236.1
			514.2,235.5 513.2,235.1 512.7,235.1 511.7,235.1 511.4,235.1 511.1,234.9 510.8,234.6 510.6,234.3 509.6,232.3 509.4,231.4
			509.4,230.6 510,229.9 510.4,229.8 510.7,229.6 510.8,229.4 510.8,229.3 510.6,229.1 510.4,229 507.7,228.4 506.8,228.3
			506.5,228.3 502.9,227 502.4,226.6 502,226.1 501.8,225.6 501.7,224.9 501.7,223.9 501.7,223.4 501.4,222.9 501.2,222.7
			500.6,222.4 500.4,222.2 500,221.8 499.8,221.6 499.2,221.3 498.9,221.1 498.8,220.9 498.7,220.6 498.5,219.9 498.3,219.4
			498,219 497.7,218.7 497.4,218.3 496.1,217.6 495.7,217.3 495.4,216.9 495.3,216.4 495.3,215.9 495.4,214.8 495.6,213.8
			495.9,212.9 496,212.7 496,212.4 495.5,210.4 495.5,210.2 495.5,209.9 495.7,209.3 495.7,209.1 495.7,208.8 495.6,208.5
			495.4,208 495.3,207.7 495.1,205.6 495.2,205 496.7,201.5 496.8,201 496.9,199.9 496.8,198.4 496.9,197.3 496.9,197 496.8,196.7
			496.3,195.5 496.2,195.3 496,195.2 495.6,195 495.5,194.8 495.3,194.6 494.9,193.9 494.5,193.3 494.2,193 493.1,192.3
			492.7,192.1 489.1,190.3 488.4,189.6 487.8,188.8 487.7,188.6 487.5,188.2 487.4,188 487.4,187.9 487,187.5 486.5,186.4
			486.2,186 484.7,185.1 484.4,184.9 484.3,184.6 484.1,184.4 483.9,183.7 482.9,181.4 482.6,181 481.2,179.7 480.8,179.3
			480.6,178.9 479.8,177 458.4,177 		"/>
		<polygon fill="#FFFFFF" points="385.9,377.2 387.1,377.8 387.7,378.1 388,378.3 387.7,376.5 387.4,375.7 386.7,375.3 386.5,375.2
			386.1,375.2 385.8,375.2 385.6,375.1 385.5,375.3 385.2,375.8 385.2,376 385.7,376.5 385.7,376.7 385.6,377 		"/>
		<polygon fill="#FFFFFF" points="358,358.4 358,358.9 357.7,359.8 357.5,360.9 357,362.4 357,362.9 356.7,363.7 356.6,364.2
			356.5,364.7 356.4,365.2 356.2,365.7 355.7,366.7 355.1,368.5 354.8,368.9 353.7,370.7 353.6,371 353.6,371.1 353.9,371.4
			353.9,371.3 354.2,371.3 354.4,371.4 354.4,371.6 354.2,371.7 353.6,371.7 353.5,371.8 353.3,372.1 353,372.4 353,372.5
			353.2,372.6 353.3,372.6 353.4,372.7 353.3,373 353,373.2 353.1,373.4 352.9,373.5 352.7,373.5 352.6,373.4 352.5,373.2
			352.2,373.5 351.8,373.9 351.6,374.3 352,374.6 352.1,374.7 352.3,374.9 352.5,374.9 352.7,374.8 353.1,374.3 353.3,374.2
			353.1,374.6 352.9,374.9 352.6,375.2 352.3,375.4 352.1,375.5 351.9,375.5 351.7,375.6 351.5,375.8 351.5,375.8 351.6,376.4
			351.5,376.5 351.7,376.5 351.7,376.4 351.7,376.4 351.8,376.2 352,376.3 352.2,376.4 352.7,376.4 352.9,376.5 352.8,376.7
			352.6,376.9 352.5,376.9 352.4,377.3 352.1,377.4 351.7,377.2 351.4,377 351.2,377.2 351.5,377.4 351.6,377.6 351.6,377.8
			351.2,377.8 351.6,378.4 351.7,378.5 351.6,378.6 351.4,378.9 351.4,379 351.1,379 350.7,379.3 350.5,379.7 351,379.9 351,379.9
			351.1,380.3 351.2,380.4 351.4,380.4 351.8,380.3 352,380.4 352.1,380.6 351.8,380.9 351,381.5 350.4,381 350,381.6 349.6,383.7
			349.2,384.5 349,384.9 348.7,386.4 348.5,386.8 348.2,387.2 348.1,387.5 347.9,387.9 347.9,388.3 348.4,388.5 348,388.9
			347.8,389 347.6,389.1 347.4,389 347.2,388.9 347.3,389.3 347.4,389.9 347.7,390.4 348.4,391.3 348.6,392 348.3,392.2
			347.7,392.3 347.4,392.5 347.5,393.1 347.7,393.3 348.1,393.2 348.8,392.9 348.3,393.5 348.1,393.8 348.1,394.1 348.2,394.3
			347.9,394.3 347.6,394.2 347.5,394.2 347.3,394.3 347,394.8 346.6,395.5 346.4,396.4 345.9,397.2 345.7,397.7 345.6,399.1
			345.6,399.3 345.5,399.4 345.3,399.6 345.2,399.7 345,399.8 344.9,400.1 345,400.4 345.3,401.3 345.4,401.8 345.3,402 345,402.7
			345,402.9 345,403.2 345,403.3 344.9,403.4 344.9,403.5 344.9,403.7 345.1,404 345.5,404.2 345.7,404.5 345.5,405 345,404.4
			344.8,404.1 344.7,403.6 344.7,403.4 344.5,403.6 344.4,404 344.4,404.5 345.4,407.5 345.9,409.6 346.1,410 346.2,410.3
			346.2,411.3 346.3,411.6 346.4,411.8 346.6,411.9 346.8,411.9 347,411.9 347.3,412 347.4,412.2 347.5,412.3 348,412.6
			348.5,413.4 348.8,413.7 349.1,413.4 349.1,413.3 349.2,413.1 349.3,413.1 349.6,413.4 350.1,412.8 350.5,411.9 350.5,411.2
			350.3,410.9 350.3,410.4 350.3,410.1 349.5,409.8 349.7,409.5 350.1,409.3 350.6,409.4 350.6,409.1 350.7,409.1 350.9,409.3
			351,409.3 351.2,409.2 351.2,408.9 351.4,408.9 351.6,409.2 351.9,409.1 352.3,408.8 352.5,408.5 352.9,408.4 353.3,408.3
			353.6,408.2 353.7,407.7 354.1,407.8 354.6,407.9 354.9,408.1 354.8,408.4 354.4,408.7 354.2,408.9 354.2,410.1 354.2,410.4
			354.4,410.4 354.4,410.2 354.5,410.2 354.8,410.3 355.4,409.8 355.9,409.7 356,410 356.1,411.6 356.2,411.6 356.6,411 357,411.9
			357,412.3 357,412.6 357,413.4 357,413.7 357,414.8 357,415.3 357.2,415.5 357.5,415.8 357.5,416 357.6,416.3 357.7,416.3
			358,416.1 358.1,415.9 358.1,415.7 358.3,415.6 358.5,415.8 358.7,416 358.8,416.5 358.9,416.7 359.3,416.8 359.6,416.7
			359.9,416.5 360.3,416.4 360.4,416.3 360.5,415.9 360.7,415.7 361,415.7 361.1,415.7 361.1,415.9 361.2,416.1 361.4,416.3
			361.8,416.5 361.9,416.7 362,416.9 362,417 362,417 393.5,417 392.9,414.1 392.1,409.5 391,406.5 390.7,406 390.1,405.3
			389.4,404.8 388.9,405 389.7,405.3 389.9,406.1 390,407 390.2,407.7 389.9,407.9 389.5,407.9 389.2,407.9 389.1,407.6 389,407.5
			388.5,407.3 388.3,407.2 388.2,407 388,406.5 387.6,406 387.1,405 387,404.6 386.8,404.2 385.5,403.5 385.1,402.8 385,402.1
			384.5,397.6 384.2,396.9 384.3,396.5 384,394.7 384,394.2 384.1,394 384.2,393.8 384.3,393.7 384.4,393.7 384.3,393.4
			384.1,393.1 384,392.8 384,391.7 384,391.4 383.8,391.1 383.6,390.8 383.4,390.5 383.3,390.1 383.3,388.3 383.1,388.5
			382.7,387.7 382.5,387.4 382.5,387.1 382.5,386.9 381.6,386.5 381.4,386.2 381.2,386.3 381,386.5 380.9,386.6 380.2,386.3
			379.9,386.3 379.8,386.5 379.6,386.4 378.7,386.4 378.7,386.4 378.4,386.7 377.6,386.9 377.5,387 377.2,387.1 376.9,387.3
			376.5,387.3 375.5,387.2 375.2,387.2 374.9,387.5 374.7,387.8 374.6,388.3 374.4,388.6 373.8,389.1 373.1,389.2 372.3,389.2
			371.6,389.2 370.9,388.6 369.8,388.6 368.7,388.3 368.3,387.3 368.2,386.3 368.3,385.9 368.7,385.4 368.9,385.3 369.5,385
			369.6,384.9 369.5,384.8 369.6,384.7 369.7,384.6 369.9,384.7 370,384.7 370.1,384.7 370.3,384.6 369,382.9 368,381.1
			367.9,380.8 367.9,380.2 367.7,379.9 367,378.8 366.8,378.3 366.7,377.8 366.6,376.9 366.3,375.9 366.2,375.4 366.2,374.9
			366.3,374.7 366.4,374.5 366.5,374.4 366.7,374.1 366.8,374 366.8,373.8 366.8,373.7 366.7,373.7 366.7,373.6 366.7,371.8
			366.5,370.7 366.6,370.4 366.9,370.2 367,369.9 366.9,369.5 366.6,369.2 366.4,368.8 366.4,368.1 366.5,367.5 367.2,366.5
			367.3,365.9 367.5,365.6 368.4,365.5 368.7,365.1 368.3,365.2 368,365.1 367.6,364.6 366.8,363.8 366.5,363.5 366.3,362.5
			366.4,362.2 366.6,362 366.8,361.9 367.1,361.9 367.5,361.7 367.8,361.9 368,362 368.2,362.2 368.3,362.5 368.8,362.2
			368.9,362.2 369.3,362.2 369.4,362 369.5,361.7 369.6,361.2 369.5,360.9 369.3,360.7 368.5,360.2 368.4,359.9 368.5,359.5
			368.7,359.3 368.9,359 369,358.7 368.8,358.7 368.6,358.7 368.5,358.5 368.4,358.4 368.5,358.1 368.7,358 369,357.9 369.3,357.8
			369.5,357.4 369.6,357 357.7,357 		"/>
		<polygon fill="#FFFFFF" points="384.4,382.7 384.5,383.6 384.7,384 384.9,383.9 386,383.8 386.2,383.9 386.3,383.8 386.5,383.8
			386.6,383.6 386.6,383.4 386.6,383.3 387.3,383 387.5,382.4 387.5,381.6 387.7,381 388,380.7 387.9,380.4 387.6,380.2
			387.5,380.1 387.3,380.6 386.9,380.6 385.5,380.3 385,380.2 384.4,380.3 384.2,380.6 384.3,381 384.5,381.4 384.5,381.9
			384.2,382.3 		"/>
		<polygon fill="#FFFFFF" points="337.2,383.6 337.4,383.5 337.5,383.4 337.5,383.2 337.5,383 337.4,382.9 336.9,382.8 336.4,383
			336.4,383.5 336.8,383.9 336.8,383.5 337,383.5 		"/>
		<polygon fill="#FFFFFF" points="349.1,376.2 348.8,376.5 348.7,376.8 349,377.3 349.4,376.7 349.5,376.4 349.3,375.9 349.3,375.8
					"/>
		<polygon fill="#FFFFFF" points="345.6,395.6 345.6,396.1 345.8,396.5 346,396.6 346.6,395.2 346.9,394.7 347,394.2 346.7,393.8
			346.5,393.6 346.3,393.5 345.8,393.4 345.6,393.8 345.7,394.5 345.7,395.1 		"/>
		<polygon fill="#FFFFFF" points="347.3,391.4 347.1,391 346.9,390.6 346.6,390.3 346.3,390.1 346.1,390 345.8,390 345.6,390.1
			345.5,390.2 345.5,390.4 345.4,392.3 345.4,392.6 345.7,392.9 346.1,392.9 346.6,392.8 347,392.6 346.8,392.4 347.3,392 		"/>
		<polygon fill="#FFFFFF" points="350.6,373.8 350.5,373.8 350.2,373.5 350.1,373.7 350.1,373.7 349.9,373.9 350,374 350.1,374.2
			350,374.4 349.9,374.5 349.9,374.5 349.8,374.6 349.8,374.8 349.9,375.1 350,375.3 350.2,375.2 350.3,375.5 350.4,374.8
			350.5,374.9 350.6,374.7 350.6,374.5 350.5,374.3 350.7,373.8 		"/>
		<polygon fill="#FFFFFF" points="331.7,402.6 331.6,402 331.6,401.6 331.6,401.5 331.4,401.7 331.3,401.7 331.3,402.1 		"/>
		<polygon fill="#FFFFFF" points="336.5,383.8 336.4,383.8 336.2,383.9 336.1,384 336,384.2 336.1,384.3 336.9,384.9 337,384.7
			336.9,384.3 336.8,384 		"/>
		<polygon fill="#FFFFFF" points="346.9,387.7 346.1,389 345.9,389.2 345.9,389.6 346,389.8 346.3,389.6 346.6,389.3 346.7,389.1
			346.6,389 346.6,388.9 346.6,388.7 346.9,388.4 347.1,387.9 347,387.7 		"/>
		<polygon fill="#FFFFFF" points="349.5,417 349.5,416.8 349.5,416.4 349.5,416.2 349.8,415.7 349.9,415.3 349.9,415 349.8,414.6
			349.6,414.6 349.3,414.7 349.2,415 348.8,414.7 348.4,414.3 348.1,414.1 347.9,414.3 347.7,414.3 347.6,413.2 347.4,412.9
			347.2,412.7 347,412.6 346.8,412.5 346.6,412.6 346.5,412.5 346.4,412.4 346.3,412.4 346.5,413.3 346.5,413.9 346.5,414.3
			346.4,414.6 346.2,414.9 346.2,415.1 346.1,415.3 346.2,416.1 346.3,416.5 346.3,416.8 346.2,417 346.2,417 349.4,417 		"/>
		<polygon fill="#241D4F" points="442.5,328.2 442.3,328.1 442.2,328.3 442.2,328.4 442.3,328.4 442.4,328.4 442.7,328.3
			442.9,328.4 443,328.6 443.2,328.7 443.2,328.8 443.2,328.9 443.3,328.7 443.2,328.4 443.6,328.3 443.7,328.3 443.7,328.2
			443.8,327.9 443.6,327.9 443.2,327.9 442.9,327.7 442.8,327.8 442.8,328 442.5,328.2 		"/>
		<polygon fill="#241D4F" points="440.9,322.5 440.7,322.2 440.4,321.6 440.1,321.3 439.9,321 439.1,320.5 438.7,320.5 438.1,320.3
			437.7,320.3 437.9,320.4 438,320.5 438.1,320.6 438.2,320.8 437.9,320.8 438.5,322.3 438.7,322.6 438.7,324 438.7,324.3
			438.7,324.5 438.9,324.5 439,324.6 439.2,324.7 439.3,324.8 439.2,324.5 439.1,324.5 439.1,324.3 440,324.6 440.3,324.6
			440.6,324.6 440.7,324.4 440.6,324.1 440.7,323.8 441.4,324.5 441.8,324.8 442.1,324.6 442.2,324.3 441.9,323.9 441.6,323.5
			441.3,323 441.2,322.9 441.2,322.7 		"/>
		<polygon fill="#241D4F" points="403.9,308.2 404.1,308.1 404.3,307.8 404.5,307.6 404.4,307.5 404.4,307.1 404.1,307.1
			403.9,307.1 403.7,307.2 403.7,307.4 403.6,307.2 403.5,307.4 403.8,307.8 403.8,308.1 		"/>
		<polygon fill="#241D4F" points="444.4,332.9 444.2,333.1 444.9,333.3 445.1,333.4 445.3,333.6 445.4,334 445.6,334.1 445.7,334.1
			445.7,333.5 445.7,333.3 445.9,333 445.6,333 445.6,332.8 446,332.1 445.9,331.3 445.5,330.7 445,330.7 445.1,330.4 445.1,330.1
			445.1,329.9 445,329.6 444.8,329.5 444.6,329.7 444.2,331.4 444.2,331.6 444.4,332.1 444.5,332.3 444.5,332.6 444.5,332.7 		"/>
		<polygon fill="#241D4F" points="352.4,237.6 352.3,239 352.9,242.5 352.9,243.7 352.7,244.8 352.1,245.5 352,245 351.7,244.6
			351.2,244.4 350.7,244.2 350.3,244.4 349.9,244.5 349.1,244.7 349,244.8 348.9,245 349,245.4 349,245.6 348.9,245.7 348.7,245.9
			348.7,245.9 348.6,246 348.5,246.1 348.5,246.2 348.6,246.3 348.7,246.4 348.8,246.5 348.9,246.6 348.9,247 348.9,247.1
			348.7,247.2 348.3,247 347.6,246.6 347.1,246.4 346.6,246.3 346.3,246.4 345.5,247.5 345.2,247.9 344.8,248.1 343.9,248
			343.9,248.3 344.2,249 344.1,249.4 343.6,250.3 343.5,250.7 343.7,251.3 344.4,252 344.5,252.5 344.4,252.8 344.3,253
			344.2,253.2 344.2,253.5 344.3,253.8 344.8,254.6 344.9,255.1 344.9,256 344.9,256.5 345,256.6 345.3,256.8 345.3,256.9
			345.3,257.1 345.2,257.4 345.4,257.9 346.7,259.9 349.5,262.5 349.8,263 350,263.5 350.1,264.1 350.2,264.4 350.5,264.5
			350.8,264.7 352.4,268 353.5,269.3 353.7,269.5 354,269.7 354.1,269.8 354.5,269.8 354.7,269.9 354.8,270.1 355.1,270.5
			355.3,270.6 355.6,270.6 355.9,270.5 356.1,270.5 356.7,271.6 357.2,272.2 359.9,274.2 360.4,274.5 361,274.6 361.4,274.9
			361.6,275.3 361.6,275.8 361.8,276.2 362.5,277.1 362.8,277.6 363,278.1 363.2,278.4 363.9,278.9 364.1,279 364.2,279.4
			364.3,279.5 364.4,279.6 364.7,279.7 364.8,279.8 364.9,280 365,280.1 365,280.3 364.9,280.6 364.9,281 365.2,282.1 365.4,282.5
			366.1,283.2 366.4,283.6 366.4,284.2 366.3,284.8 366.4,286.7 367.2,290.4 367.2,290.8 367.1,292 367.2,292.5 367.2,292.7
			367.1,292.9 366.9,293.1 366.8,293.4 366.8,293.7 367.1,294.6 367.2,295 367.2,295.4 366.8,295.7 365.9,295.8 365.5,296
			365.2,296.4 365.2,296.9 365.3,297.4 365.2,298 365,298.5 364.9,299.1 365,299.5 365.5,299.9 365.9,300.2 366.3,300.6 366.6,301
			366.7,301.5 366.6,301.7 366.5,301.9 366.4,302.2 366.4,302.5 366.4,302.7 366.7,303.4 366.8,304.1 366.9,304.3 367.1,304.6
			367.5,305 367.7,305.3 367.8,305.8 367.8,306.2 367.8,306.7 368,307.1 368.2,307.2 368.8,307.3 369,307.4 369.1,307.6
			369.2,308.1 369.2,308.3 369.4,308.4 370,308.6 370.2,308.7 370.3,309 370.5,309.2 370.8,309.4 371.9,310.1 372.1,310.4
			372.2,311 372.2,311.5 372.2,312 372.1,312.2 371.8,312.7 371.8,313 371.9,313.4 372.4,314.4 372.5,314.9 372.6,316.2
			372.7,316.7 372.8,316.9 373.2,317.4 373.3,317.6 373.4,317.9 373.3,318.3 373.3,318.5 373.4,318.8 373.7,319.3 373.8,319.5
			373.7,319.8 373.5,320 373.3,320.2 373.2,320.4 373.3,320.9 373.6,320.9 374.9,320.5 375.1,320.5 375.3,320.6 375.4,320.8
			375.4,321 375.3,321.2 375.2,321.5 374.9,322.6 374.8,323.3 375.2,323.6 375.6,323.7 375.9,324 376.1,324.4 376,324.9
			375.7,325.9 375.6,326.3 375.8,326.9 376.1,327.2 376.5,327.6 376.9,327.9 377.3,328 377.4,328.2 377,329.7 376.8,330.3
			375.4,332.3 375.1,332.5 374.1,332.6 373.6,332.7 373.2,332.9 373,333.3 373,333.8 373,334.8 372.9,335.2 372.7,335.6 372.4,336
			371.8,336.7 371.5,337.1 371.4,337.6 371.4,338.1 371.2,338.4 370.4,339.4 370.1,339.7 369.8,340.7 369.5,341.2 368.8,342.1
			368.5,342.6 367.8,344.7 367.6,344.9 367.1,345.1 366.9,345.2 366.7,345.4 366.5,345.9 366.3,346.1 365.9,346.5 365,346.9
			364.6,347.3 364.5,347.5 364.3,348.2 364.1,348.5 363.9,348.5 363.7,348.4 363.4,348.3 363.1,348.3 363,348.2 362.9,348.2
			362.7,348.4 362.5,348.6 362.5,348.9 362.4,349.1 362.4,349.4 362.4,349.7 362.6,350.1 362.6,350.5 362.5,351 362.4,351.1
			362.3,351.3 362.2,351.4 361.3,351.7 361.1,351.7 360.9,351.6 360.7,351.6 360.4,351.7 360.2,351.9 360,352.4 359.8,352.6
			359.6,352.6 359.2,352.7 358.9,352.7 358.5,353.1 357.5,354.5 357.2,355 357,356 357.1,356.3 357.6,356.7 357.7,356.9 357.7,357
			369.6,357 369.7,356.3 369.8,355.8 370.1,355.5 370.4,355.1 370.8,354.8 371.2,354.7 371.5,354.7 371.5,354.6 371.5,354.4
			371.4,354.2 371.5,353.9 372.9,351.9 373,351.4 373,350.5 373.1,350.3 373.3,350.1 373.5,350.1 373.8,350.1 374.2,350.1
			374.3,350.2 374.5,350.3 374.6,350.4 374.7,350 374.6,349.5 374.3,348.5 374.2,348 374.3,347.6 374.7,346.8 374.7,346.3
			374.7,345.9 374.3,345.1 374.2,344.6 374.3,344.1 374.4,343.8 374.6,343.5 374.7,343.2 375,342.9 375.4,342.6 375.8,342.6
			376,343.1 376.4,342.7 376.4,342.2 376,341.3 375.9,340.8 376,339.4 376.1,339.2 376.5,338.7 376.6,338.5 376.7,338.3 377.3,337
			377.4,336.5 377.5,336 377.5,335.4 377.6,335 378.1,334.4 378.2,334 378.3,333.8 380.2,330.7 380.8,330 381.7,329.9 381.5,329.7
			381.6,329.4 381.6,329.3 381.7,329.1 381.5,328.2 381.5,328 381.6,327.8 381.7,327.7 382.1,327.7 382.1,327.5 381.8,326.7
			382,325.6 382.6,324.6 384.9,322.2 385.4,321.3 385.5,321.1 385.6,320.3 385.8,320.1 386.1,319.8 386.3,319.7 386.4,319.4
			386.3,319.1 386.3,319 386.2,318.5 386.1,318.2 385.9,318 385.7,317.8 385.5,317.5 385.5,317.3 386,315.6 386.2,315.2
			386.1,314.9 385.5,313.2 385.4,312.7 385.5,311.2 385.4,310.7 385,309.2 385,308.2 385.1,307.2 385.3,306.3 385.6,305.4
			386.4,304 386.6,303.7 386.9,302 387.1,301.2 387.3,300.9 388,299.9 388.2,299.5 388.3,299.1 387.9,298.2 387.7,297.3
			387.7,297.1 387.6,296.8 387.4,296.7 387.3,296.5 387.2,296.4 385.9,295.3 385.1,294.3 385,293.6 385,293.2 385.4,293
			385.7,292.9 386,292.6 386.2,292.2 386.3,291.8 385.9,291.7 386.4,291.8 386.6,291.5 386.8,291 387.1,290.7 387.5,290.6
			388.5,290.2 389.4,290 391.4,289.2 391.7,289 392,288.7 392.2,288.3 392.6,288.6 393.7,289.1 394.1,288.9 394.7,288.9
			395.8,288.9 398.7,288.4 399.2,288.2 399.3,287.9 399.3,286.9 399.4,286.5 399.7,286 399.7,286.4 399.6,286.7 399.5,287
			399.5,287.2 399.5,287.4 400,287.6 400.9,288.2 401.6,288.5 403.2,288.7 403.7,288.9 404.6,289 405.8,289.3 406.4,289.4
			407.8,289.4 408.1,289.4 408.3,289.2 408.6,289 408.8,288.8 408.8,288.9 408.4,289.6 408.3,290.2 408.6,290.6 408.6,291.1
			408.6,291.7 408.5,292 408.1,292.2 407.7,292.3 407.4,292.5 407.2,293 407.1,293.1 407,293.3 406.9,293.5 407,293.7 407.3,294.2
			407.4,294.4 407.6,295.3 407.7,295.7 407.5,296.1 407,296.8 406.6,297.5 406.1,298.1 406.2,298.4 406.4,298.5 406.7,298.5
			406.8,298.7 406.9,299.1 407.2,299.4 407.4,299.8 407.4,300.4 407.3,300.6 407.1,300.9 406.8,301 406.6,300.9 406.5,301
			406.5,301.5 406.4,301.7 406.3,301.8 406.1,302 405.9,302.1 405.8,302.3 405.9,302.6 406.8,303.9 406.9,304.2 407.1,304.5
			407.1,304.9 407,305.3 406.8,305.5 406.6,305.8 406.4,306 406.3,306 405.9,305.8 405.6,306.3 405.2,307.3 405.6,307.4
			405.8,307.5 405.7,307.6 405.6,308 405.5,308.1 406,308.1 405.9,308.3 405.9,308.4 405.8,308.5 405.7,308.6 405.9,308.5
			406.2,308.5 406.4,308.4 406.6,308.6 407,308.4 407.4,308.6 407.6,309 407.2,309.2 407.2,309.4 408.3,309.9 408.3,309.3
			408.4,308.9 408.7,308.7 409.7,308.5 410.5,308 411,307.9 414.7,308.4 416.4,308.8 418,309.6 418.6,309.9 418.8,309.9
			418.9,309.5 419.1,309.2 419.6,309.1 420.7,308.9 421.3,309.1 421.7,309.1 422,309.1 422.1,309.1 422.1,309 422.1,308.8
			422.1,308.7 422.3,308.6 423.3,308.7 423.7,308.6 424.1,308.4 424.3,308.1 424.5,307.7 424.7,307.4 425.2,307.3 426.6,307.3
			427,307.5 427.5,307.8 428.1,308.1 428.5,308.5 428.9,309.1 429,309.3 429.1,309.5 429.1,309.7 429.3,309.9 429.5,309.9
			429.7,309.9 429.9,310 430,310.4 429.5,310.2 429.7,310.5 430,310.9 430.8,311.5 430.8,311.2 430.4,310.2 430.5,310.1
			430.7,309.9 430.8,309.8 430.8,309.7 430.9,309.8 431,310 431.1,310.3 431.1,311.3 431.4,311.2 431.8,311.2 432.2,311.4
			432.5,311.7 433.3,312.9 433.3,312.2 433.3,311.9 433.5,311.6 433,311.6 432.7,311.4 432.5,311.1 432.2,310.8 432.2,310.7
			432.5,310.6 433.5,310.5 433,311 433.1,311.2 434.2,311.2 434.1,311.2 434,311.3 433.8,311.5 433.9,311.6 434.1,311.6
			434.3,311.5 434.4,311.3 434.6,311.3 434.4,311.6 434.1,311.9 433.9,312.1 434.2,312.3 434.1,312.2 433.9,312.2 433.8,312.1
			433.8,312 433.6,312.4 434,313 434.5,313.6 434.9,314 434.8,314.3 435.1,314.5 435.8,314.8 437.2,316.3 438.1,316.7 438.3,316.2
			438,315.5 437.6,315.2 437.7,314.9 437.7,314.7 437.5,314.4 437.4,314.2 436.9,314.5 436.8,314.5 436.9,314.3 436.9,314.1
			436.8,313.9 436.6,313.7 436.7,313.7 437.1,313.6 437.2,313.9 437.5,313.9 437.9,313.8 438.2,313.6 438.1,313.8 438,314.1
			438.1,314.4 438.2,314.7 438.3,314.7 438.7,314.1 438.8,313.9 439,313.9 438.7,314.4 438.6,314.8 438.5,315.9 438.7,316.4
			439.1,316.5 439.6,316.2 439.9,315.8 439.9,315.7 439.8,315.5 439.6,315.4 439.4,315.3 439.7,315.1 440.1,315.3 440.3,315.8
			440.1,316.3 439.7,316.7 439.2,317.1 438.6,317.3 438,317.1 438.1,317.5 438.5,318.2 438.7,318.7 438.6,318.8 438.6,319
			438.6,319.1 438.7,319.3 438.8,319.4 439.3,319.7 439.4,319.7 439.7,319.3 440,319.3 440.4,319.5 442.9,320.4 443.6,320.8
			444.2,321.2 444.6,321.8 444.7,321.9 444.6,322.4 444.7,322.6 444.9,322.6 445.2,322.7 445.4,322.7 445.5,322.5 445.4,322.3
			445.1,321.8 444.8,319.6 444.9,319.1 445.2,319 445.5,318.9 445.9,318.7 445.9,318.9 445.9,319.1 446.7,319.8 447,320.2
			446.5,320.1 446.5,320.3 449.2,322.9 449.6,323.6 449.9,324.6 449.9,326.2 450,326.4 451,327.2 452.5,329.3 452.9,329.9
			452.9,330.5 452.8,331.7 453,332.2 453.4,331.6 453.3,330.3 453,329.4 452.3,328.4 451.4,327 450.3,325 450.1,323.8 449.7,323
			449.3,322.4 448.1,320.6 447.9,319.7 448.4,315.9 448.5,315.4 448.8,315 449.4,314.5 449.6,314.1 449.5,313.7 449.2,313.4
			448.5,313 448.2,312.6 448.1,312.4 448.1,312.1 448,311.9 447.8,311.7 447.3,311.4 445.5,309.6 444.8,309.1 443.5,308.7
			443.2,308.4 443,308 442.9,307.5 443,307 443.1,306.6 443.4,306.4 443.6,305.6 443.6,305.4 443.6,305.1 443.5,305 443.4,304.8
			443.2,304.6 443.1,304.1 443,303.2 442.9,302.7 442.7,302.4 442.7,302.1 442.7,301.9 443,301.6 443,301.5 443,301.4 442.8,301.2
			442.7,301.1 442.8,301.1 442.9,301 443,300.9 443.2,300.8 443.2,300.7 443.2,300.5 442.9,300.3 442.6,300 442.3,299.2 441.2,298
			440.8,297.2 439.5,294 439.5,292.3 439.6,290.9 439.5,289.1 439.6,288.8 439.5,288.6 439.5,288.4 439.2,288 439.2,287.7
			439.6,287.2 440.5,287.1 442.4,287.2 443.8,287.1 444.2,286.9 445.3,286.3 445.7,286.2 444.9,285.7 444.4,285.2 444.5,284.7
			445.2,284.1 447.5,283 448.1,282.5 448.1,282.3 448.2,281.8 448.2,281.6 448.3,281.4 448.8,280.9 448.9,280.4 449.3,279.2
			449.8,278.4 450.3,277.8 451.7,276.8 452,276.4 452.1,276.1 452.1,275.8 452.1,275.2 452.3,274.8 452.8,274.2 452.9,273.8
			453,273.3 453,272.9 453.1,272.5 453.5,272.1 453.9,272 454.7,271.7 455.1,271.5 456.9,269.9 457.7,269.5 458.2,269.3
			459.6,269.1 461.3,268.6 462.9,268.6 463.4,268.5 463.8,268.4 464.4,267.9 464.7,267.8 464.8,267.9 464.9,268 465.1,268.1
			465.4,268.1 465.5,268.1 466.4,267.4 467.3,267 467.7,266.9 468.1,267.1 468.4,267.3 468.7,267.3 469.2,267.1 469.3,266.9
			469.4,266.7 469.4,266.6 469.7,266.4 469.9,266.4 470.1,266.5 470.3,266.6 470.5,266.7 470.5,267 470.5,267.6 470.5,267.8
			470.7,267.8 471.5,267.9 472.8,268.2 473.3,268.3 473.6,268.3 473.8,268.2 474,268.2 474.3,268.3 474.6,268.5 474.8,268.6
			475,268.8 475.4,268.9 475.8,268.8 475.9,268.7 476,268.5 476.2,268.3 477.4,268.2 478.1,268.7 478.9,268.6 479.7,268.1
			480.6,267.9 480.7,268 480.8,268.1 481,268.2 481.3,268.3 481.4,268.2 482,267.5 482.1,267.4 482.1,267.3 482.3,267.4
			482.2,267.4 482.3,267.7 482.4,267.9 482.7,268 483.1,267.9 483.4,267.6 483.7,267.4 484.3,267.5 485.5,268 488.1,268.4
			488.3,268.4 488.5,268.5 488.7,268.5 488.8,268.4 488.9,268.3 489.1,268.1 489.4,268.1 489.8,268.1 490.2,268.3 490.5,268.4
			491,268.2 491.2,267.9 491.5,267.5 491.7,267.2 492.1,267 492.5,267 493,267.2 493.4,267.2 493.6,267.1 493.8,266.7 494,266.6
			494.2,266.7 494.3,267.2 494.4,267.3 494.8,267.2 495.5,266.7 495.8,266.5 496.2,266.5 496.5,266.7 496.8,267 497.2,267.2
			497.3,267.2 497.8,267.1 498,267.1 498.2,267.2 498.5,267.4 498.7,267.5 500,267.8 500.5,267.9 500.6,268.2 500.6,268.5
			500.5,269.6 500.5,269.8 501.2,271.1 501.6,271.6 502.1,271.8 503.4,271.5 504.1,270.3 504.6,269.1 505.3,268.7 505.6,268.7
			506.8,268.5 507.3,268.3 507.4,268.1 507.7,267.6 507.9,267.5 508.1,267.5 508.5,267.8 508.8,267.8 508.9,267.7 509.3,267.3
			509.5,267.1 509.8,267 510.4,266.9 510.6,266.8 510.7,266.6 510.9,266.1 511.1,265.8 511.2,265.7 511.7,265.2 512.5,264.2
			512.8,263.6 512.8,262.9 512.5,261.3 512.5,260.6 512.7,259.5 512.6,259.3 512.4,258.8 512.3,258.3 512.4,257.8 512.6,257.3
			512.7,257.3 513,257.2 513.1,257.1 513.1,257 513,256.6 512.9,256.3 513,256.1 513.1,256.1 513.4,256.1 513.6,256.1 513.7,255.6
			513.4,254.8 513.6,254.4 514.5,253.8 514.7,253.5 514.1,253.3 514.1,253.3 514.1,253.3 513.8,253.1 513.1,252.2 513.1,252.1
			513.1,251.8 513.1,251.7 513,251.7 512.7,251.7 512.5,251.7 512,251.1 511.5,251 511.3,250.6 511.3,250.1 511.4,249.6
			511.5,249.1 511.7,248.8 512.7,247.8 513.3,247.2 514,246.8 514.1,246.8 514.1,246.1 514,245.6 513.9,245.5 513.5,245.6
			513,245.6 512.6,245.5 512.2,245.3 512.1,244.9 512.3,244.4 512.7,244.1 513.8,243.7 514.6,243.2 515,242.8 515.1,242.4
			515.2,241.4 515.3,240.9 515.8,239.4 516.1,238.2 515.8,237.1 515.8,237 352.3,237 		"/>
	</g>
	<path fill="none" stroke="#999999" stroke-width="0.25" stroke-linecap="round" stroke-linejoin="round" d="M404.1,307.1l-0.2,0
		l-0.1,0.1l-0.1,0.2l-0.1-0.1l-0.1,0.2l0.3,0.4l0.1,0.2l0,0.1l0.3-0.2l0.1-0.3l0.2-0.2l-0.1-0.2l0-0.4H404.1z M443.2,327.9l-0.2-0.2
		l-0.1,0l0,0.2l-0.3,0.2l-0.1,0l-0.1,0l-0.1,0.1l0,0.1l0.1,0l0-0.1l0.3-0.1l0.2,0.1l0.2,0.2l0.2,0.2l0,0.1l0,0.1l0.1-0.2l-0.1-0.2
		l0.4-0.1l0.1,0l0-0.1l0-0.3l-0.2,0L443.2,327.9z M381.7,368.8l0.1,0.2l0.1,0l0.1-0.1l0.1,0.2l0-0.1l0.1-0.1l0.1-0.1l0.1-0.1
		l0.1-0.1l0-0.2l0.1-0.1l0.1,0l0-0.1l-0.1-0.1l0-0.1l0,0l-0.1-0.1l0-0.2l-0.1-0.1l0-0.1l0-0.1l-0.1-0.1l-0.1,0.1l-0.3-0.1l-0.1,0.3
		l0,0.1l0.1,0.1l0,0.1l-0.1,0.4L381.7,368.8z M349.9,374.5L349.9,374.5L349.9,374.5l-0.1,0.3l0.1,0.3l0.1,0.1l0.2,0l0.2,0.2l0.1-0.7
		l0.1,0.1l0.1-0.2l0-0.2l-0.1-0.3l0.2-0.5l-0.2,0l-0.1,0l-0.2-0.2l-0.1,0.2l-0.1,0l-0.1,0.2l0.1,0.1l0.1,0.2l0,0.3L349.9,374.5z
		 M377,438l-0.2-0.3l-0.2-0.2l-0.1,0l0-0.1l-0.2-0.1l-0.2,0l-0.2-0.2l-0.2,0l0.1,0.2l0.2,0.2l0.2,0.2l0.3,0.1l0.5,0.2L377,438z
		 M382.6,446l-0.3,0.2l-0.1,0.4l0.2,0.1l0.4-0.1l-0.1-0.4L382.6,446z M331.6,401.6L331.6,401.6l-0.2,0.1l-0.1,0.1l0.1,0.3l0.3,0.6
		l-0.1-0.6L331.6,401.6z M348.5,425.8h-0.2l-0.1,0l-0.1,0.1l0,0.5h0.1l0.2-0.2l0.1-0.1l0.1-0.1L348.5,425.8L348.5,425.8z
		 M346.9,388.4l0.2-0.4l-0.1-0.2h-0.2l-0.8,1.3l-0.1,0.1l0,0.5l0.1,0.2l0.3-0.2l0.3-0.4l0.1-0.1l-0.1-0.1l0-0.1l0.1-0.2L346.9,388.4
		z M362.6,420.6l-0.2,0l-0.1,0l0-0.2l-0.3-0.2l-0.3-0.1l-0.1,0l-0.1,0l-0.1,0.1l-0.1,0.1l0,0.1l0.1,0l0.1,0l0.9,1.2l0.1-0.1l0-0.2
		l-0.1-0.2v-0.1l0.1-0.1l0.1,0l0.1-0.1l0-0.3l0-0.1L362.6,420.6z M370.3,450.1l-0.1-0.1l0-0.1l0-0.1l-0.6-0.2l-0.2,0l-0.1,0.2
		l0.3,1.1l0.2,0.2l0.3-0.1l0.2-0.1l0.2-0.3l0.1-0.3l0-0.3L370.3,450.1z M365.3,424.5l-0.9-0.1l-0.5,0.3l0.6,0.9l0.1,0.1l0.2,0.1
		l0.1,0.1l0.1,0.1l0.1,0.1l0.2,0.1l0.2,0.1l0.2,0l0.1-0.3l0.1-0.4v-0.4l-0.1-0.3L365.3,424.5z M349.1,376.2l-0.3,0.3l-0.1,0.3
		l0.3,0.5l0.4-0.6l0-0.3l-0.1-0.5v-0.1L349.1,376.2z M354.5,412.6L354.5,412.6l-0.3-0.1l-0.2,0.4l-0.3,0.3l-0.2,0.3l0.1,0.4
		l-0.5,0.1l-0.1,0.1l0.2,0.3l0.2,0.1l0.8,0.3l0-0.3l0.4-1.6l0-0.2L354.5,412.6z M372.5,434l-0.3-0.2l-0.5-0.2l-0.2,0.5l0,1.2
		l0.1,0.2l0.3-0.3l0.3-0.6l0.2-0.1l0.2-0.1l0.3,0l0.3,0l-0.2-0.3L372.5,434z M336.8,384l-0.3-0.2l-0.1,0l-0.2,0.1l-0.1,0.1l-0.1,0.2
		l0.1,0.2l0.7,0.6l0.1-0.3l0-0.4L336.8,384z M378.5,379.5l0.1-0.2l-0.1,0l0,0l0,0l-0.1,0L378.5,379.5L378.5,379.5L378.5,379.5z
		 M378.6,381.8l0.5-0.2l-0.1-0.5l-0.7,0.5L378.6,381.8z M337.4,382.9l-0.5-0.1l-0.4,0.3l-0.1,0.5l0.5,0.4l0-0.4l0.2,0l0.2,0.1l0.2,0
		l0.1-0.1l0-0.2l0-0.2L337.4,382.9z M345.6,395.6l0,0.5l0.2,0.4l0.2,0l0.5-1.3l0.3-0.5l0.1-0.5l-0.3-0.4l-0.2-0.2l-0.2-0.1l-0.4-0.1
		l-0.2,0.4l0.1,0.7l0,0.6L345.6,395.6z M364.8,427.6l-0.2-0.8v-0.8l-0.2-0.1l-0.7-0.7h-0.2l-0.1,0.1l0,0l0,0l-0.1,0.1l0.1,0.3l0,0.4
		l0,0.8l0.1,0.2l0.6,1.3l0.5,0.6l0.5,0.3l0.4-0.3l-0.4-0.6L364.8,427.6z M345.4,392.6l0.3,0.3l0.5,0l0.5-0.1l0.3-0.2l-0.2-0.1
		l0.5-0.5l0-0.5l-0.1-0.4l-0.2-0.4l-0.3-0.3l-0.3-0.3l-0.2-0.1l-0.3,0l-0.2,0.1l-0.1,0.1l0,0.2l-0.2,1.9L345.4,392.6z M353.7,415.4
		l-0.4-0.4l-1.1-0.6l0,0l-0.1-0.2l-0.1-0.1L352,414l0,0.4l0.1,0.4l0.1,0.4l0.3,0.5l0,0.2l0.1,0.1l0.3,0l0.2,0.1l0.1,0.2l0.1,0.2
		l0,0.2l-0.1,0.2l-0.1,0l-0.2,0l-0.1,0.2l0,0.2l0.1,0.3l0.1,0.6l0.2,0.5l0.2,0.3l0.4,0l0.2-0.5l0-2.5L353.7,415.4z M368.4,449.7
		l-0.8,0h0.2l-0.4,0.1l-0.2,0.3l-0.2,0.2l-0.4-0.1l0.4,0.4l0.5,0.1l0.5-0.1l0.7-0.5l0.2-0.1l0.1-0.1l-0.3-0.2L368.4,449.7z
		 M384.4,382.7l0.1,0.9l0.1,0.4l0.2-0.1l1.1-0.1l0.2,0l0.2,0l0.2-0.1l0.1-0.2l0-0.2l0.1-0.2l0.7-0.3l0.2-0.6l0.1-0.7l0.2-0.7
		l0.2-0.3l-0.1-0.3l-0.2-0.2l-0.1,0l-0.2,0.4l-0.4,0.1l-1.4-0.3l-0.6,0l-0.5,0.1l-0.2,0.3l0.1,0.4l0.2,0.4l0,0.4l-0.3,0.4
		L384.4,382.7z M385.9,377.2l1.3,0.5l0.6,0.3l0.3,0.2l-0.3-1.8l-0.3-0.8l-0.7-0.5l-0.2-0.1l-0.4,0l-0.2,0l-0.2-0.1l-0.1,0.2
		l-0.3,0.5l0,0.2l0.4,0.5l0.1,0.3l-0.1,0.3L385.9,377.2z M378.5,447.5l-0.5-1.2l-0.1,0.1l-0.1,0.4l0,0.4l-0.1,0.2l-0.1,0.1l-0.2,0.1
		l-0.1,0.1l0,0.1l0.1,0.4l0,0.2L377,449l-0.3,0.3l-0.1,0.3l0.6,0.8l0.4,0.9l0.3,0.4l0.2-0.1l0.1-0.1l0-0.1l0-0.2l0.1-0.2l0.2-0.1
		l0.2,0l0.2-0.1l0.1-0.3l0-0.3l0-0.4L378.5,447.5z M441.6,323.5l-0.2-0.4l-0.2-0.2v-0.1l-0.3-0.2l-0.2-0.3l-0.3-0.6l-0.2-0.3
		l-0.3-0.3l-0.7-0.5l-0.4,0l-0.6-0.2l-0.4,0l0.2,0.1l0.1,0.1l0.1,0.1l0.1,0.2h-0.3l0.7,1.5l0.2,0.2l0,1.5l-0.1,0.3v0.1l0.2,0.1
		l0.2,0.1l0.1,0.1l0.1,0.1l-0.1-0.2l-0.1-0.1v-0.1l0.9,0.3l0.3,0l0.3-0.1l0-0.2l0-0.3l0.1-0.3l0.7,0.7l0.4,0.2l0.3-0.1l0-0.4
		l-0.3-0.4L441.6,323.5z M446,332.1l-0.1-0.8l-0.4-0.6l-0.6,0l0.1-0.3l0-0.3l-0.1-0.3l-0.1-0.3l-0.2-0.1l-0.1,0.2l-0.5,1.7l0,0.2
		l0.2,0.5l0.1,0.2l0,0.3l0,0.1l-0.1,0.1l-0.2,0.3l0.7,0.2l0.2,0.1l0.1,0.1l0.2,0.4l0.2,0.1h0.2l-0.1-0.6l0.1-0.2l0.2-0.3h-0.3v-0.2
		L446,332.1z M349.8,418.8L349.8,418.8l-0.2,0.2l-0.1,0.1l-0.2-0.3l-0.2-0.4l-0.1-0.4l0-0.4l0.1-0.2l0.1-0.1l0.1-0.1l0.1-0.1l0-0.2
		l0-0.4l0-0.2l0.3-0.5l0.2-0.4l0-0.4l-0.2-0.3l-0.2-0.1l-0.2,0.1l-0.2,0.3l-0.4-0.3l-0.4-0.4l-0.3-0.2l-0.2,0.2h-0.1l-0.2-1.1
		l-0.1-0.3l-0.2-0.2l-0.2-0.1l-0.2-0.1l-0.2,0.1l-0.2-0.1l-0.1,0l-0.1,0l0.2,0.9l0,0.5l0,0.5l-0.1,0.2l-0.2,0.4l-0.1,0.2l0,0.1
		l0,0.8l0.1,0.5l0,0.3l-0.1,0.2l-0.2,0.2l-0.1,0.2l0.1,0.3l0.1,0.2l-0.2,0.2l-0.2,0.2l-0.1,0.2l0.1,0l0.4,0.1l0.1,0.1l0.1,0.3
		l-0.1,0.2l-0.2,0.1l-0.1,0.1l0,0.3l0.1,0.2l0.1,0.2l0.1,0.2l0.1,1.5l0.1,0.3l0.4,0.2l0.3-0.1l0.2-0.3l0.1-0.6l0.2-0.5l0.4,0
		l0.8,0.4l-0.1-0.8l0.1-0.3l0.7-0.2l0.2-0.3l0-0.4L349.8,418.8z M515.8,237.1l-0.6-0.9l-1-0.7l-1-0.3l-0.5-0.1l-0.9,0.1l-0.3,0
		l-0.3-0.2l-0.3-0.3l-0.3-0.4l-0.9-2l-0.3-0.9l0-0.8l0.5-0.6l0.5-0.2l0.3-0.1l0.1-0.2l0-0.2l-0.2-0.1l-0.2-0.1l-2.7-0.7l-0.9,0
		l-0.2,0l-3.6-1.3l-0.5-0.4l-0.4-0.5l-0.2-0.6l-0.1-0.6l0-1.1l-0.1-0.5l-0.3-0.5l-0.2-0.2l-0.6-0.4l-0.2-0.1l-0.4-0.5l-0.2-0.2
		l-0.6-0.4l-0.2-0.2l-0.1-0.2l-0.1-0.2l-0.2-0.7l-0.2-0.4L498,219l-0.3-0.4l-0.4-0.3l-1.3-0.7l-0.4-0.3l-0.2-0.4l-0.1-0.5l0-0.5
		l0.1-1l0.2-1l0.3-0.9l0-0.3l0-0.3l-0.5-2l0-0.3l0-0.3l0.2-0.5l0-0.3l0-0.3l-0.1-0.3l-0.2-0.5l-0.1-0.3l-0.2-2.2l0.1-0.5l1.5-3.5
		l0.1-0.5l0.1-1.1l0-1.4l0.1-1.2l0-0.3l-0.1-0.3l-0.5-1.2l-0.1-0.1l-0.2-0.2l-0.4-0.2l-0.2-0.1l-0.2-0.2l-0.4-0.7l-0.5-0.7l-0.3-0.3
		l-1.1-0.7l-0.4-0.2l-3.6-1.9l-0.7-0.6l-0.7-0.8l-0.1-0.2l-0.1-0.5l-0.1-0.2l-0.1-0.2l-0.3-0.4l-0.5-1l-0.3-0.5l-1.5-0.9l-0.2-0.2
		l-0.2-0.2l-0.1-0.3l-0.2-0.7l-1-2.3l-0.3-0.4l-1.4-1.3l-0.3-0.4l-0.3-0.5l-1-2.4l-1.1-2l-0.4-0.5l-0.6-0.3l-0.6-0.1l-0.5,0.1
		L476,174l-0.4,0.4l-0.1,0.1l-0.1,0.1l-0.1,0.1l-0.2,0l-0.4-0.1l-0.2-0.2l-0.2-0.3l-0.2-0.3l-0.3-0.2l-0.4-0.2l-0.4-0.1l-0.4-0.1
		l-1.3-0.1l-0.3-0.1l-1.3-0.6l-0.2-0.1l-0.2-0.2L469,172l-1.3-0.4l-0.6-0.1l-0.6-0.1l-0.2,0l-0.3,0.1l-0.1,0l-0.4-0.1l-1.3-0.4
		l-0.2,0l-1.8,0.4l-0.6,0.2L461,172l-0.4,0.5l-0.2,0.6l0,0.2l0,0.1l0.1,0.1l0.1,0.1l0.2,0.1l1,0.7l0.1,0.2l0,0.2l-0.2,0.2l-0.3,0.1
		l-0.8,0.1l-0.5,0.2l-0.7,0.1l-0.2,0.1l-0.2,0.1l-0.3,0.3l-0.1,0.4l-0.1,0.8l-0.2,0.5l-0.3,0.4l-0.4,0.2l-0.5,0.2l0-0.1l0-0.1
		l-0.3,0.2l-0.2,0.2l-0.1,0.3l0,0.4l0.2,1.4l-0.1,0.2l-0.2,0.2l-0.2,0.3l-0.3,0.3l-0.4,0.2l-0.4-0.1l-0.7-0.5l-0.4-0.1l-0.4,0.1
		l-2,0.9l-0.3,0.2l-0.1,0.3l-1.3,0.7l-0.8,0.8l-0.3,0.2l-0.8,0.2l-0.3,0.2l-0.1,0.4l0.1,0.4l0.2,0.3v0.2l-0.5-0.1l-1.2-0.6l-0.3-0.1
		l0-0.2l0.4-1.6l-0.3-1l-0.7-0.4l-2,0l-0.8-0.2l-0.8-0.4l-0.6-0.5l-0.4-0.5l-0.7,0l-0.7-0.3l-1.2-1l-0.5-0.7l-0.2-0.1l-0.1-0.1
		l-0.7-0.5l-0.2-0.4l-0.1-0.4l-0.2-0.3l-0.4-0.2l-1.7-0.1l-0.2,0.1l-3.8,4.1l-0.5,0.2l-0.9-0.5l-0.9-0.2l-0.2-0.3h-0.1l-0.4,0.4
		l-0.2,0.4l-0.2,1l-0.6,1.6l-0.1,0.5l-2.1,0.4l-0.4,0.2l-0.2,0.5l-0.2,0.3l-0.5-0.3v0.4l-0.1,0.3l-0.1,0.3l-0.2,0.2l-0.7,0.3
		l0.5,0.4l-0.5,0.3l-0.8,0.3l-0.5,0.5l-0.1,0.2l-0.1,0.2l-0.1,0.2l0,0.1l-0.2-0.5l0-0.2l0-0.1l-0.1,0l-0.1,0l-0.1,0.1l-0.3,0.3
		l-0.3,0l-0.3,0l-0.3,0.1l-0.1,0.2l0.1,0.1l0.2,0l0.1,0l0,0.1l0,0.1l-0.4,0.5l-0.1,0.1l-0.2,0l-0.3,0.1l-2.5,2.1l-0.4,0.6l-0.5,0.9
		l-0.1,0.2l-0.3,0.1l-0.3,0.1l-0.2,0.1l-0.1,0.4v0l-0.4,0.6l-0.1,0.1l-0.2,0.1l-0.1,0l-0.1-0.1l-0.7-0.3l-0.7-0.4l-0.4-0.1l-0.3-0.4
		l-0.4-0.3l-0.4-0.3l-0.4-0.2l-1.8-0.3l-0.4-0.3l0-0.5l0.3-0.5l0.8-0.9l0.5-1.1l0.2-0.6l0-0.5l-0.1-0.2l0-0.2l0.1-0.2l0.2-0.1l0-0.1
		l0-0.1l0-0.1l0,0l-0.2-0.2l-0.1-0.2l0-0.1l0.2-0.1l0.5-0.2l0.1-0.3l-0.1-0.8l0.1-0.5l0.2-0.2l0.7-0.4l0.6-0.5l0.4-0.6l0.3-0.6
		l0.4-0.6l0.3-0.2l0.7-0.5l0.2-0.3l-0.1-0.3l-0.4-0.9l-0.1-0.5l0.1-0.4l0.3-0.9l0.1-0.4l-0.1-0.2l-0.1-0.1l-0.2-0.1l-0.1-0.1
		l-0.2-0.5l-0.1-0.2l0-0.8l0.1-0.2l0.1-0.2l0.4-0.4l0.1-0.2l-0.2-0.3l-1.5-0.7l-0.7-0.7l-0.3-0.4l-0.2-0.4l0.1-0.5l0.7-0.7l0.2-0.5
		l0-0.2l0.1-0.1l1.5-0.8l0.3-0.3l0.1-0.3l0-0.5l0.1-0.2l0.2-0.2l0.4-0.1l0.2-0.1l0.6-0.6l0.3-0.4l0.1-0.4l-0.1-0.4l-0.5-0.5
		l-0.1-0.4l0.1-0.4l0.3-0.8l0.1-0.4l-0.1-1.4l0-0.5l0.2-0.4l0.6-0.6l0.2-0.4l0.2-0.8l0.2-0.3l1-0.9l-0.2-0.7l-0.6-0.7l-1-0.9
		l-0.3-0.3l-0.2-0.4l-0.1-0.6l0.1-1.4l-0.5-2l0-0.1l0-0.1l0-0.1l-0.1-0.2l-0.1-0.1l-0.4-0.1l-0.2-0.1l-0.1-0.7l0.1-1l0.3-0.9
		l0.5-0.3l0.5-0.1l0.3-0.5l0.1-0.7l0-0.6l-0.1-0.3l-0.1-0.2l-0.2-0.2l-0.3-0.2l-0.4-0.1l-0.2,0.1l-0.2,0.1l-0.3,0.1l-0.6,0.2
		l-0.6,0.1l-0.7-0.1l-0.6-0.2l-1-0.6l-0.5-0.2l-0.7-0.1l-2,0l-0.1,0l-0.1,0l-0.2,0.1l-0.1,0.1l-0.3,0.5l-0.9,1.1l-1.1,1l-0.2,0.3
		l-0.2-0.1l-0.2-0.2l-0.2-0.2l-0.3-0.2l-1.9-0.7l-0.6,0l-0.5,0.4l-0.4,0.7l-0.4,0l-0.7-0.2l-0.7-0.3l-0.4-0.3l-0.3-0.3l-0.1-0.4
		v-0.4l-0.1-0.4l-0.2-0.3l-0.5-0.6l-0.2-0.3l-0.1-0.4l-0.1-0.8l-0.1-0.4l-0.2-0.3l-0.4-0.5l-0.1-0.3l0.1-0.4l0.9-1.1l0.3-0.7
		l0.2-0.2l0.2-0.1l0.4-0.2l0.2-0.1l0.2-0.4l0.1-0.4l0.1-0.8l0.6-1.6v0l0.6-1.7l0.2-1l0-1.3l-0.1-0.2l-0.1,0l-0.1,0.3l-0.2,0.1
		l-0.4-0.1l-0.4-0.2l-0.2-0.2l-0.1-0.1l-0.4-0.2l-0.2-0.1l-0.1-0.1l-0.1-0.3l-0.1-0.2l-0.6-0.8l-1.3-2.9l-0.5-0.5l-0.9-0.2l-0.8,0.2
		l-0.7,0.5l-0.5,0.6l-0.3,0.9l0,0l-0.1,0l-0.5,0.2l-0.1,0l-0.2,0.2l0,1l-0.4,0.4H389l-0.4-0.2l-0.3-0.4l-0.1-0.5l0-0.8l-1-0.6
		l-0.2-0.3l-0.1-0.2l-0.1-0.2l-0.3-0.2l-0.3-0.1l-0.3,0l-0.2-0.1l-0.3-0.3l-0.2-0.2L385,123l-0.1-0.2l-0.1-0.2l-0.2-0.2l-0.1,0
		l-0.1,0.1l-1.3,0.2l-0.5,0.2l-0.4,0.3l-0.3,0.4l-0.3,0.9l-0.2,0.4L381,125l-0.4,0.1l-0.9,0l-0.5,0.1l-0.9,0.4l-0.4,0.1l-0.2,0
		l-0.4-0.2l-0.2-0.1l-0.2,0l-0.4,0.1l-0.2,0l-1.8-0.6l-1.1-0.8l-0.3-0.1l-0.4,0.2l0.2,0.4l0.8,0.9l0.2,0.5l0.3,1.4l0.8,0.8l0.2,0.4
		l-0.1,0.6l-0.2,0.4l-0.3,0.2l-0.3,0.1l-0.3,0.3l-0.8,0.6l-2.8,0.9l-0.6,0.1l-0.5-0.2l-0.9-0.7l-0.4-0.2l-0.9-0.3l-0.4,0l-0.9,0.1
		l-1,0.4l-0.9,0.6l-0.5,0.8l-0.3,1.7l0,0.2l0.1,0.4l0,0.2l-0.1,0.1L363,135l-0.1,0.2l0,0.2l0.1,0.6l0.1,0.5l0,0.5l-0.2,0.6l-0.3,0.5
		l-0.3,0.3l-0.9,0.4l-0.8,0.6l-0.4,0.1l-0.4-0.7l-0.3-0.3l-0.3-0.2l-0.7-0.3l-1.4,1l-0.4,0.2l-2,0.3l-0.4,0.2l-0.2,0.2l-0.4,0.5
		l-0.2,0.1l-0.5,0.1l-0.5,0.2l-0.2,0.2l0,0.2l-0.1,0l-0.4-0.2l-0.2-0.2l-0.2-0.2l-0.2-0.1l-0.3,0l-0.8,0.4l-1,0l-1.1-0.1l-0.9,0
		l-1,0.5l-0.6,0.1l-0.4-0.3l-0.1-0.3l0-0.5l-0.1-0.2l-0.2-0.1l-0.8-0.2l-0.9-0.8l-0.5-0.3l-0.6,0.1l-0.3-0.1l-0.3-0.4l-0.3-0.3
		l-0.5,0.1l-0.2,0.3l-0.3,1.6l0,0.4l0.2,0.9l0,0.4L340,142l-0.2,0.1l-0.2,0l-0.3,0.1l-0.2,0.2l-0.3,0.4l-0.2,0.2l-1.4,0.7l-0.9,0.1
		l-0.2,0.3l0,0.4l0,0.5l0.1,0.3l0.1,0.1l0,0.1l-0.2,0.4l-0.2,0.3l-0.8,0.7l-0.8,1.1l0,0.2l0.2,0.5l0,0.2l0.1,0.6l0.3,0.5l0.2,0.4
		l-0.2,0.5l-0.2,0.1l-0.3,0l-0.2,0l-0.1,0.3l0.1,0.2l0.6,0.5l0.2,0.2l0.2,0.5l0.1,0.4l-0.1,1.9l-0.2,0.3l-0.3,0.4l-1.4,1.1l-0.2,0.5
		l-0.2,0.9l-0.2,0.4l-0.3,0.4l-0.5,0.3l-0.2,0.2l0.1,0.3l0.5,0.5l0.6,0.4l0.2,0.3l0.1,0.3l-0.1,0.6l0,0.2l0.3,0.9l0.1,0.4l0,0.5
		l0.1,0.9l0.3,1l0.2,1l-0.2,1l-0.1,0.3l-0.1,0l-0.1,0l-1.1,0.3l-1.2,0l-0.4,0.1l-1.6,1.1l-0.9,0.4l-1.1,0l-0.6,0.1l-0.2,0l-0.3-0.2
		l-0.1-0.2l-0.1-0.2l-0.5-0.7l-0.2-0.1l-0.7-0.1l0.1,0.3l0.5,0.5l0.3,0.5l0.1,0.4l0.5,1.1l0.6,0.9l0.1,0.5l0,0.6l0.1,0.6l0.3,0.5
		l0.5,0.5l0.5,0.4l0.5,0.3l0.2-0.2l0.1-0.2l0.4-1.2l0-0.1l0.3-0.1l1.2,0.5l0.3,0.2l0.1,0.4l0,0.4l-0.2,0.4l-0.3,0.2l-0.1,0.2
		l0.3,0.5l1.2,1.6l0.1,0.2l0,0.1v0.2l0,0.3l0.2,0.4l0.1,0.3l0,0.1l-0.1,0.2l0,0.1l0,0.2l0.1,0l0.1,0l0.1,0.1l0.3,0.1l0,0.1l0.1,0.3
		l0.3,0.8l0.1,0.1l0.1,0.1l0.1,0.3l0.1,0.3l-0.1,0.1l-0.1,0.1l-0.6,0.4l-0.6,1.1l-0.1,0.4l0.3,1.1l-0.5,0.1l0.2,0.3l0.3,0.2l0.2,0.3
		l0.1,0.3l0.1,0.3l0.6,0.5l0.2,0.2l0,0.2l0,0.3l0,0.3l0.1,0.3l0.2,0.3l3.8,3.5l0.3,0.2l0.5,0.3l0.2,0.1l0.2,0.2l0.1,0.4l0.5,0.8
		l0.2,0.7l0.2,0.3l0.3,0.3l0.3,0.2l0.3,0.1l0.3,0.2l0.1,0.3l0,0.3l-0.1,0.5l0,0.3l0.2,0.2l2,1.9l0.4,0.2l0.4,0.4l0.8,1.2l0.5,0.4
		l-0.2,0.2l-0.1,0.3l0,0.2l0.6,0l0,0.2l-0.1,0.2l-0.1,0.1l0.3,0.5l0.3,0.3l0.4,0.1l1.1,0l0.5,0.1l0.4,0.3l0.4,0.4l0.2,0.4l0.4,0.8
		l0.2,0.3l0.1,0.3l0,0.4l0.1,0.4l0.4,0.2l0.2,0.1l0.1,0.3l0.2,0.7l-0.3-0.2l-0.3-0.1l-0.2,0.1l-0.1,0.3l0.1,0.3l0.2,0.1l0.2,0.1
		l0.2,0.2l-0.1,0.3l-0.3,0.3l-0.4,0.2l-0.3,0.1l-0.3,0.4l-0.2,0.5l0,0.4l0.7,0.5l0.1,0.3l0.2,0.7l0.3,0.5l0.8,0.6l0.3,0.4l0.1,0.2
		l0,0.2l0,0.2l-0.1,0.3l0,0.3l0.1,0.2l1.4,1.9l0.2,0.4l0,0.3l-0.2,0.5l0,0.3l0.3,0.7l0.3,1.7l0.1,0.4l0.4,0.3l0.4-0.3l0.7-1l1.4-1.1
		l0.3-0.6l0.2-1l0.2-0.4l0.5-0.4l0.1,0.8l0.4,0.4l0.5,0.3l0.4,0.6l0,0.4l-0.2,1l-0.1,1.1l-0.1,0.4l-0.6,0.8l-0.3,0.4l-0.1,0.5l0,0.5
		l0,0.6l-0.1,0.2l-0.5,0.6l-0.2,0.1l-0.4,0l-0.2-0.1l-0.1-0.2l-0.3-0.1l-1.4-0.2l-0.4,0l-0.5,0.2l-0.2,0.4l-0.1,0.5l-0.3,0.5
		l-0.3,0.2l-0.2,0.1l-0.2,0l-0.3,0l-0.2-0.1l-0.3-0.1l-0.3,0l-0.2,0.2l0.1,0.3l0.6,0.9l0.2,0.5l-0.1,0.4l-0.3,0.9l0,0.6l0.2,1
		l-0.1,0.4l-0.7,2.4l-0.1,0.6l0.1,1.3l0,1.4l0.5,3.5l0,1.2l-0.2,1.1l-0.6,0.7L352,245l-0.3-0.4l-0.5-0.3l-0.5-0.2l-0.4,0.2l-0.4,0.1
		l-0.8,0.2l-0.2,0.1l0,0.2l0.1,0.4l0,0.2l-0.1,0.1l-0.2,0.1l0,0l-0.1,0.1l-0.1,0.1l0,0.1l0.1,0.1l0.1,0.1l0.1,0.1l0.1,0.1v0.4
		l-0.1,0.2l-0.2,0l-0.3-0.1l-0.8-0.5l-0.4-0.2l-0.5-0.1l-0.3,0.1l-0.8,1.2l-0.3,0.3l-0.4,0.2l-0.9,0l0,0.3l0.3,0.7l-0.1,0.4
		l-0.5,0.8l-0.1,0.5l0.2,0.6l0.7,0.7l0.1,0.5l-0.1,0.2l-0.1,0.2l-0.1,0.2l0,0.3l0.1,0.3l0.5,0.8l0.2,0.5l0,0.9l0,0.5l0.1,0.1
		l0.2,0.2l0.1,0.2l0,0.1l-0.1,0.3l0.2,0.5l1.2,2l2.8,2.7l0.3,0.5l0.2,0.5l0.1,0.6l0.2,0.3l0.3,0.1l0.3,0.2l1.6,3.3l1,1.3l0.2,0.2
		l0.3,0.2l0.2,0.1l0.4,0.1l0.2,0.1l0.1,0.1l0.3,0.4l0.2,0.1l0.4,0l0.3-0.1l0.2,0l0.6,1.1l0.5,0.6l2.7,2.1l0.5,0.2l0.6,0.2l0.4,0.3
		l0.2,0.4l0.1,0.5l0.1,0.4l0.7,0.9l0.3,0.4l0.2,0.5l0.2,0.3l0.7,0.5l0.1,0.1l0.1,0.4l0.1,0.1l0.1,0.1l0.3,0.1l0.1,0.1l0.1,0.2
		l0.1,0.2l0,0.2l-0.1,0.3l0,0.4l0.3,1.1l0.2,0.4l0.7,0.7l0.3,0.4l0,0.6l-0.1,0.5l0.1,2l0.8,3.6l0,0.5l-0.1,1.2l0.1,0.5v0.2l-0.1,0.2
		l-0.1,0.2l-0.1,0.2l0,0.3l0.3,0.9l0.1,0.5l-0.1,0.4l-0.3,0.3l-0.9,0.1l-0.4,0.2l-0.3,0.4l0,0.5l0.1,0.5l-0.1,0.6l-0.2,0.6l-0.1,0.5
		l0.1,0.5l0.5,0.4l0.4,0.2l0.4,0.4l0.3,0.5l0.1,0.5l-0.1,0.3l-0.1,0.2l-0.1,0.2l0,0.3l0,0.2l0.3,0.7l0.1,0.7l0.1,0.2l0.2,0.3
		l0.5,0.4l0.2,0.3l0.1,0.5l0,0.4l0,0.4l0.2,0.4l0.2,0.1l0.5,0.1l0.2,0.2l0.1,0.2l0.1,0.5l0.1,0.2l0.2,0.1l0.5,0.2l0.2,0.2l0.1,0.2
		l0.2,0.2l0.3,0.2l1.1,0.6l0.2,0.3l0.1,0.6l0,0.5l-0.1,0.5l-0.1,0.3l-0.2,0.5l-0.1,0.2l0.1,0.5l0.5,0.9l0.2,0.5l0.1,1.3l0.1,0.4
		l0.1,0.3l0.4,0.4l0.2,0.3l0.1,0.3l-0.1,0.4l0,0.2l0.1,0.2l0.2,0.5l0.1,0.2l0,0.3l-0.2,0.2l-0.2,0.2l-0.1,0.2l0.1,0.4l0.3,0.1
		l1.3-0.4l0.2,0l0.2,0.1l0.1,0.2l-0.1,0.2l-0.1,0.2l0,0.3l-0.4,1.1l-0.1,0.7l0.4,0.3l0.4,0.1l0.3,0.3l0.2,0.4l0,0.5l-0.4,0.9
		l-0.1,0.5l0.2,0.5l0.3,0.4l0.4,0.4l0.4,0.3l0.4,0.1l0,0.2l-0.3,1.6l-0.2,0.6l-1.5,2l-0.3,0.2l-1,0.1l-0.5,0.1l-0.4,0.2l-0.2,0.4
		l0,0.5l0,0.9l-0.1,0.4l-0.2,0.5l-0.3,0.4l-0.7,0.7l-0.2,0.4l-0.1,0.6l0,0.4l-0.1,0.4l-0.9,0.9l-0.2,0.4l-0.3,0.9l-0.3,0.5l-0.7,0.9
		l-0.3,0.5l-0.7,2.1l-0.2,0.2l-0.5,0.2l-0.2,0.1l-0.2,0.2l-0.2,0.5l-0.1,0.2l-0.4,0.3l-0.9,0.5l-0.4,0.4l-0.1,0.2l-0.2,0.7l-0.2,0.3
		l-0.2,0l-0.2-0.1l-0.3-0.1l-0.3,0l-0.1-0.1l-0.1,0l-0.2,0.2l-0.1,0.2l-0.1,0.2l-0.1,0.3l0,0.2l0,0.3l0.2,0.5l0,0.3l-0.1,0.5
		l-0.1,0.2l-0.2,0.2l-0.1,0l-0.8,0.4l-0.2,0l-0.2-0.1l-0.2,0l-0.3,0.1l-0.2,0.2l-0.2,0.5l-0.2,0.2l-0.2,0.1l-0.5,0l-0.2,0.1
		l-0.4,0.4l-1,1.3l-0.2,0.5l-0.2,1l0.1,0.3l0.4,0.4l0.2,0.3l0.3,1.5l0,0.5l-0.3,0.9l-0.2,1.2l-0.4,1.4l0,0.5l-0.4,0.9l-0.1,0.5
		l0,0.5l-0.1,0.5l-0.2,0.5l-0.5,1l-0.6,1.8l-0.3,0.4l-1,1.8l-0.1,0.3l0,0.2l0.2,0.3l0-0.1l0.3,0l0.2,0.1l-0.1,0.2l-0.2,0.1l-0.5,0
		l-0.2,0.1l-0.2,0.3l-0.2,0.2l0,0.1l0.2,0.1l0.2,0l0.1,0.1l-0.1,0.2l-0.3,0.3l0.1,0.2l-0.2,0.1l-0.2,0l-0.1-0.1l-0.1-0.2l-0.3,0.3
		l-0.4,0.4l-0.2,0.4l0.4,0.3l0.1,0.2l0.1,0.2l0.2,0l0.2-0.1l0.4-0.5l0.2-0.2l-0.2,0.4l-0.2,0.3l-0.2,0.3l-0.3,0.2l-0.2,0.1l-0.2,0
		l-0.2,0l-0.2,0.2l0,0.1l0,0.5l0,0.2h0.1l0-0.1l0-0.1l0.1-0.2l0.2,0.1l0.2,0l0.5,0l0.2,0.1l-0.1,0.2l-0.2,0.2l-0.1,0l-0.1,0.4
		l-0.3,0.1l-0.4-0.1l-0.3-0.2l-0.2,0.1l0.3,0.2l0.2,0.3l-0.1,0.2l-0.4,0l0.4,0.6l0.1,0.2l-0.1,0.1l-0.2,0.3l-0.1,0.1l-0.2,0
		l-0.4,0.3l-0.2,0.4l0.5,0.2l0,0.1l0.1,0.3l0.1,0.1l0.2,0l0.4-0.1l0.2,0l0.1,0.2l-0.3,0.3l-0.8,0.6l-0.7-0.5l-0.3,0.6l-0.4,2.1
		l-0.5,0.8l-0.2,0.4l-0.3,1.4l-0.2,0.4l-0.3,0.4l-0.1,0.3l-0.2,0.4l0,0.4l0.4,0.2l-0.3,0.4l-0.2,0.2l-0.2,0.1l-0.3-0.1l-0.1-0.1
		l0,0.5l0.1,0.6l0.3,0.5l0.7,0.9l0.3,0.7l-0.4,0.2l-0.5,0l-0.3,0.2l0.1,0.6l0.2,0.2l0.4-0.1l0.7-0.3l-0.5,0.6l-0.2,0.3l0.1,0.3
		l0.1,0.2h-0.3l-0.3-0.1l-0.1-0.1l-0.2,0.1l-0.3,0.6l-0.4,0.6l-0.2,0.9l-0.5,0.8l-0.1,0.5l-0.1,1.4l0,0.2l-0.1,0.1l-0.2,0.2
		l-0.2,0.1l-0.2,0.1l-0.1,0.2l0.1,0.3l0.4,0.9l0,0.5l-0.1,0.2l-0.3,0.7l0,0.1l0,0.4l0,0.1l-0.1,0.1l-0.1,0.1l0,0.2l0.2,0.3l0.3,0.2
		l0.2,0.3l-0.1,0.5l-0.6-0.6l-0.2-0.3l-0.1-0.4l-0.1-0.2l-0.2,0.2l-0.1,0.4l0,0.5l1,3l0.5,2.2l0.2,0.3l0.1,0.3l0,1l0.1,0.3l0.1,0.1
		l0.1,0.1l0.2,0.1l0.3,0l0.3,0.1l0.1,0.2l0.1,0.2l0.6,0.2l0.4,0.8l0.4,0.3l0.2-0.3l0.1-0.1l0-0.2h0.1l0.3,0.4l0.5-0.6l0.4-0.9l0-0.6
		l-0.1-0.3l0-0.4l-0.1-0.4l-0.7-0.3l0.1-0.2l0.4-0.2l0.5,0.1v-0.3h0.2l0.2,0.2l0.2,0l0.1-0.2l0-0.3h0.2l0.2,0.3l0.4-0.1l0.4-0.3
		l0.2-0.3l0.4-0.2l0.4,0l0.3-0.1l0.1-0.5l0.4,0.2l0.5,0.1l0.3,0.1l-0.2,0.3l-0.4,0.3l-0.1,0.2l-0.1,1.2l0,0.3h0.2v-0.2h0.2l0.2,0.1
		l0.7-0.4l0.4-0.1l0.2,0.2l0.1,1.7h0.1l0.3-0.6l0.4,0.9l0.1,0.4v0.4l-0.1,0.7l0.1,0.3l-0.1,1.1l0.1,0.4l0.1,0.2l0.3,0.3l0.1,0.2
		l0.1,0.3h0.1l0.3-0.3l0.1-0.1l0.1-0.2l0.1-0.1l0.3,0.2l0.1,0.2l0.2,0.5l0.1,0.2l0.3,0.1l0.3-0.1l0.3-0.2l0.4-0.1l0.1-0.1l0.2-0.4
		l0.1-0.1l0.3-0.1l0.1,0.1l0,0.2l0.1,0.2l0.2,0.2l0.4,0.2l0.2,0.2l0.1,0.2l0,0.1l0,0.1l0,0.2l0.2,0.5l0.4,0.2l0.4,0.1l0.2,0.2
		l0.4,0.6l0.1,0.1l0.3,0l0.2-0.1l0.4-0.4l0,0.4l-0.1,0.7l0,0.4l-0.1,0.3l-1,0.7l0.3,0.6l0.1,1.5l0.5,0.6l0.8,0.2l0.5-0.3l0.2-0.6
		l0.1-0.8h0.1l0.2,0.5l0.4,0.3l0.5,0.3l0.5,0.3l0.3,0.4l0.2,0.1l0.4,0.1l0.3,0.1l0.3,0.3l0.1,0.3l-0.1,0.1l-0.3,0.1l0.1,0.2l0.2,0.2
		l0.2,0.1l0.2,0l0.2-0.1l0.2,0l0.2,1l0.2,0.6l0,0.5l-0.3,0.5l0.2,0.1l0.5,0l0.1,0l0,0.3l0.2,0.4l0.1,0.2l0.1,1.1l0,0.5l-0.2,0.4
		l0.7,1.1l0.3,0.4l0.3,0.2l0.7,0.1l0.1,0.1l0.1,0.2l0.3,0.2l0.3,0.2l0.2,0.1l0.4-0.1l0.1-0.3l-0.1-0.8l0.1-0.4l0.2-0.5l0.2-0.3
		l0.3,0l0.1,0.3l-0.1,1l0.1,0.4l0.6,0.2l0.4-0.5l0.7-1.2h0.1l-0.1,0.8l-0.3,0.8l-0.4,0.7l-0.5,0.3l-0.1,0.5l0.4,1.1l0.6,0.9l0.5,0.1
		h0.2l0.1,0.3l0.2,0l0.4-0.3l0.8-0.5l0,0.8l0.1,0.3l0.3,0.2l0.3-0.1l0.4-0.2l0.4-0.1l0.2,0.3l-0.6,0.9l-0.1,0.2l-0.3,0.1l-0.2,0.4
		l-0.4,0.8l0.2,0.3l-0.1,0.5l0,0.4l0.4,0.2l0.3,0.1l0.1,0.2l0,0.2l-0.1,0.1l-0.3,0l-0.1,0.1l-0.1,0.4l0,0.9l0.6,0.5l2,0.8l0.1,0.1
		l0.2,0.2l0.2,0.6l0.2,0.3l0.2,0l0.4-0.1l0.4,0.3l0.6,0.9l0.6,0.5l0.3,0.3l0.1,0.4l0.1,0.2l0.2,0l0.2,0l0.1,0.1l0,0.3l0.2,0.4
		l0.1,0.2l0,0.1L385,449l0,0.2l0.1,0.1l0.2,0l0.3-0.2l0.2,0.1l0.1,0.2l0.1,0.3l0.1,0.2l0.7,0.8l0.8,0.7l0.2-0.5l0.2-0.2l0.3-0.1
		l0.2,0.2l0,0.4l-0.3,0.7l0.4,0.1l0.3,0.4l0.2,0.5l0.2-0.4l0.2-0.5l0.1-0.6l0-0.2l-0.1-0.4l0-0.2l0.2-0.2l0.2-0.2l0.1-0.2l0-0.3
		l-0.2-0.5l0-0.4l0.2-0.9l0-0.5l0.1-0.3l0.1-0.2l0.3-0.1l0.2,0.1l0.2,0.2l0.2,0.1l0.3,0v0l0.4-0.2l0.2,0l0.3,0l0.2,0.1l0.2,0.2
		l0.9,2.6l0.3,0.4l0.4,0.4l0.9,0.4l0.5,0.2l0.4,0l0.6-0.1l0.3,0.1l0.7,0.5l0.4,0.2l1.4,0.4l0.8,0.3l0.4,0.1l0.4-0.1l1.5-1.1h0.4
		l0,0.1l0,0.5l0.1,0.2l0.2,0.1l0.2,0h0.2l0.3,0l0.5,0.3l0.2,0.4l0.1,1.1l0.1,0.3l0.1,0.3l0.3,0.5l0,0.2l0,0.2l-0.1,0.2l0,0.2l0,0.7
		l0.1,0.2l0.2,0.3l0.1,0l0.1-0.2l0.3-0.1l0.3,0l1,0.2l0.4-0.1l0.6-0.6l0.4-0.1l0.7,0.6l0.4,0.1l1.1-0.2l0.3,0.1l0.2,0.3l0.1,0.5
		l0,0.6l-0.2,0.2l-0.3,0.1l-0.3,0.4l0,0.5l0.4,0.3l0.4,0.3l0.2,0.5l-0.1,0.9l0,1.3l-0.2,0.8l0,0.4l-0.2,0.4l-0.4,0.2l-0.5,0.1
		l-0.4,0.2l-0.9,1.9l-0.2,0.3l-0.1,0.3l0,0.3l0.3,0.5l0.3,0.5l0.2,0.2l0.2,0.1l0.4,0l0.2,0l0.5,0.3l0.4,0.5l0.3,0.6l0.3,0.6l0.4,0.2
		l0.6-0.2l1.1-0.6l0.4-0.3l0.3-0.4l0.2-0.5l0.1-0.5l0.3-1l0.7-0.4l0.9-0.2l0.9-0.4l0.8-0.5l3.3-1.3l0.5-0.1l0.5,0.1l0.4,0.5l0.1,0.3
		l0.1,0.2l0.2,0.1l0.3,0l0.2,0.1l0,0.2l-0.1,0.2l0,0.2l0.5,1.1l0.4,0.4l0.5,0.1l0.2-0.1l0.4-0.4l0.3-0.1l0.3,0.1l0.2,0.2l0.1,0.3
		l0.2,0.3l0.5,0.3l0.4,0l0.3-0.3l0.2-0.5l0.1-0.1l0.7-0.4l0.1-0.2l0.1-0.2l0.1-0.2l0.3-0.2l0.8-0.6l0.1-0.9l0-1l0.3-0.9l0.6-0.7
		l1.7-1.3l0.6-0.6l0.3-0.7l-0.1-1.8l0.1-1.2l-1.2-0.9l-2.6-2.4l-2.3-1.4l-0.8-0.8l-2.4-3.6l-2.4-4l-0.2-0.2l-0.8-0.4l-0.6-0.3
		l-0.2-0.1l-0.4-0.1l-0.4-0.1l-0.3,0l-0.4-0.1l-0.8-0.4l-0.9-0.4l-0.6-0.5l-0.6-0.3l-0.7,0.4l1.5,0.6l0.7,0.5l-0.1,0.5l-0.1,0
		l-0.6,0l0,0l-0.2-0.1l-0.3-0.3l0-0.1l-0.5,0.1l-1,0.6l-0.8,0.2l-3.8,0.1l-0.8-0.3l-1.6-1.1l-0.9-0.8l-0.3-0.2l-0.3-0.1l-0.6,0.1
		h-0.3l-0.6-0.2l-0.4-0.4l-3.5-4.8l-0.3-0.6l-0.1,0.3l-0.1,0.6l-0.2,0.3l-0.9,0.8l-0.2,0.1l-0.3,0l-0.6-0.1l-0.4,0.1l-0.1-0.1l0-0.4
		l-0.5,0.2l-0.5-0.1l-0.3-0.4l-0.1-0.5l-0.2-0.2l-0.2-0.2l-0.1-0.3l0.1-0.1l0.2-0.1l0.2-0.1l0.2-0.1l-0.1-0.2l-0.2-0.1L395,434
		l-0.2-0.2l-0.1-0.2l0-0.3l0-0.5l-0.2-0.5l-0.5-0.2l-0.6,0l-0.5-0.1l-0.6-0.4l-0.4-0.7l-0.8-1.9l-0.1-0.1l-0.1-0.1l-0.5-0.4
		l-0.1-0.1l-0.3-0.2l-0.1-0.4l-0.2-0.9l-0.4-1.1l-0.3-1.9l0-0.4l0.3-0.3l1.2-1.1l0.5-0.1l0.5-0.2l0.4-0.1l0.4,0.2l0.4,0.7l0.3,1.2
		l0.1,1.2l-0.1,0.9l-0.3,0.4l-0.8,0.5l-0.2,0.4v0.3l0,0.2l0.1,0.2l0.1,0.2l0.2,0.1l0.1-0.1l0.2-0.4l0.7-0.6l0.7-0.2l0.6,0.3l0.4,0.7
		l0.1,1.6l0.3,0.7l0.4,2.5l0,0.5l-0.3,0.6l0.2,0.1l0.9,0.1l0.2,0.1l0.1,0.2l1.1,0.9l0.5,0.3l0.4,0l0.2-0.4l-0.1-0.4l-0.2-0.4l-1.7-2
		l-1.2-3.3l-1.7-8.1l-1.5-6.8l-0.7-4.6l-1.2-3l-0.3-0.5l-0.6-0.7l-0.7-0.5l-0.4,0.2l0.8,0.3l0.2,0.8l0,0.9l0.2,0.7l-0.3,0.2
		l-0.4,0.1l-0.3-0.1l-0.1-0.3l-0.1-0.1l-0.5-0.2l-0.2-0.1l-0.1-0.2l-0.1-0.5l-0.4-0.6l-0.5-1l-0.1-0.4l-0.2-0.3l-1.3-0.8l-0.4-0.6
		l-0.2-0.7l-0.5-4.5l-0.3-0.7l0.1-0.4l-0.3-1.8v-0.6l0.1-0.2l0.1-0.2l0.1-0.1l0,0l0-0.3l-0.2-0.4l0-0.2v-1.1l-0.1-0.4l-0.2-0.3
		l-0.2-0.3l-0.2-0.3l-0.1-0.5l0-1.8l-0.2,0.2l-0.4-0.7l-0.2-0.4l0-0.3l0-0.2l-0.9-0.4l-0.3-0.3l-0.1,0.1l-0.2,0.1l-0.1,0.1l-0.7-0.3
		l-0.3,0l-0.1,0.2l-0.2,0l-0.9,0l0,0l-0.4,0.3l-0.7,0.2l-0.2,0.1l-0.2,0.2l-0.3,0.2l-0.4,0.1l-1-0.2l-0.3,0l-0.3,0.3l-0.2,0.4
		l-0.1,0.4l-0.2,0.4l-0.6,0.4l-0.7,0.1l-0.8,0l-0.8,0.1l-0.6-0.6l-1.1-0.1l-1.1-0.2l-0.5-1.1l-0.1-1l0.1-0.4l0.4-0.5l0.2-0.2
		l0.6-0.3l0.1-0.1l0-0.1l0-0.1l0.2,0l0.2,0l0.1,0h0.1l0.2,0l-1.3-1.7l-1-1.8l-0.1-0.4l-0.1-0.5l-0.1-0.4l-0.7-1.1l-0.2-0.5l-0.1-0.5
		l-0.1-0.9l-0.3-0.9l-0.1-0.5l0-0.5l0-0.2l0.1-0.2l0.1-0.1l0.3-0.2l0.1-0.1l0-0.2l-0.1-0.1l-0.1-0.1l0-0.1v-1.8l-0.2-1l0.1-0.3
		l0.3-0.2l0.1-0.3l-0.1-0.4l-0.2-0.3l-0.2-0.4l0-0.6l0.2-0.6l0.6-1l0.1-0.6l0.2-0.3l0.9-0.1l0.3-0.5l-0.4,0.1l-0.3-0.1l-0.4-0.5
		l-0.9-0.8l-0.2-0.3l-0.2-1l0-0.3l0.2-0.2l0.3-0.1l0.3,0l0.4-0.2l0.3,0.1l0.2,0.2l0.2,0.2l0.1,0.3l0.5-0.3l0.2,0l0.3,0l0.2-0.2
		l0.1-0.4l0-0.4l0-0.3l-0.3-0.3l-0.7-0.5l-0.1-0.3l0.1-0.4l0.2-0.3l0.2-0.3l0.2-0.3l-0.2,0l-0.2,0l-0.1-0.1l-0.1-0.2l0.1-0.3
		l0.2-0.1l0.3,0l0.3-0.1l0.2-0.4l0.2-1.1l0.1-0.5l0.2-0.4l0.3-0.4l0.4-0.3l0.4-0.1l0.3,0l0.1-0.1l-0.1-0.2l-0.1-0.2l0.1-0.2l1.4-2.1
		l0.1-0.4v-1l0.1-0.2l0.2-0.1l0.2,0l0.3,0l0.4,0l0,0.1l0.2,0.2l0.2,0l0.1-0.4l-0.1-0.5l-0.4-1l0-0.5l0.1-0.4l0.3-0.8l0.1-0.5
		l-0.1-0.4l-0.3-0.8l-0.1-0.5l0-0.4l0.1-0.4l0.2-0.3l0.2-0.3l0.3-0.3l0.4-0.3l0.4,0l0.2,0.5l0.4-0.4v-0.4l-0.4-1l-0.1-0.5l0.1-1.3
		l0.1-0.2l0.4-0.5l0.1-0.3l0.1-0.2l0.6-1.3l0.1-0.5l0.1-0.5l0-0.6l0.1-0.4l0.4-0.6l0.1-0.4l0.1-0.3l1.9-3.1l0.7-0.6l0.8-0.1
		l-0.1-0.3l0-0.2l0.1-0.2l0-0.1l-0.2-0.9l0-0.3l0.1-0.2l0.2-0.1l0.3,0l0.1-0.1l-0.3-0.8l0.2-1.1l0.6-1l2.3-2.4l0.5-0.8l0.1-0.2
		l0.1-0.8l0.1-0.2l0.4-0.3l0.1-0.1l0.1-0.3l0-0.2l-0.1-0.2l-0.1-0.5l-0.1-0.2l-0.2-0.2l-0.2-0.2l-0.2-0.3l0-0.2l0.5-1.7l0.2-0.3
		l0-0.3l-0.7-1.7l-0.1-0.5l0.1-1.5l-0.1-0.5l-0.4-1.5l0-1l0.1-1l0.2-1l0.3-0.9l0.8-1.3l0.1-0.3l0.3-1.7l0.2-0.8l0.2-0.3l0.8-1
		l0.2-0.4l0.1-0.4l-0.4-0.9l-0.2-0.9l0-0.2l-0.1-0.2l-0.2-0.2l-0.2-0.1l-0.1-0.1l-1.3-1.1l-0.7-1l-0.1-0.8l0-0.4l0.3-0.2l0.4-0.1
		l0.3-0.3l0.2-0.4l0-0.4l-0.3-0.1l0.5,0.1l0.2-0.4l0.2-0.5l0.3-0.2l0.4-0.1l1-0.5l0.9-0.2l2-0.8l0.4-0.2l0.3-0.3l0.2-0.4l0.3,0.3
		l1.1,0.5l0.4-0.2l0.6,0l1.1,0.1l2.9-0.5l0.5-0.2l0.2-0.3l0-1l0.1-0.4l0.3-0.5l0,0.4l-0.1,0.3l-0.1,0.3l0,0.2l0.1,0.2l0.4,0.2
		l0.9,0.6l0.7,0.3l1.6,0.2l0.5,0.2l1,0.1l1.2,0.3l0.6,0.1h1.4l0.3-0.1l0.2-0.2l0.2-0.2l0.3-0.2v0.2l-0.4,0.7l-0.2,0.5l0.3,0.5l0,0.5
		l0,0.5l-0.1,0.3l-0.4,0.2l-0.4,0.1l-0.3,0.1l-0.2,0.5l-0.1,0.1l-0.1,0.2l-0.1,0.2l0.1,0.2l0.3,0.5l0.1,0.2l0.2,0.8l0,0.5l-0.2,0.4
		l-0.5,0.7l-0.4,0.7l-0.5,0.6l0.1,0.2l0.2,0.1l0.2,0.1l0.1,0.1l0.1,0.4l0.3,0.3l0.2,0.4l0,0.6l-0.1,0.2l-0.2,0.2l-0.2,0.1l-0.2-0.1
		l-0.1,0.2l0,0.4l-0.1,0.2l-0.2,0.2l-0.2,0.1l-0.2,0.1l-0.1,0.2l0.1,0.3l0.9,1.2l0.2,0.3l0.1,0.3l0,0.4l-0.1,0.4l-0.2,0.3l-0.2,0.2
		l-0.2,0.3h-0.1l-0.4-0.2l-0.3,0.4l-0.4,1l0.4,0.2l0.2,0l-0.1,0.1l-0.2,0.4l-0.1,0.1h0.5l0,0.2l-0.1,0.1l-0.1,0.1l-0.1,0.1l0.3,0
		l0.2-0.1l0.2,0l0.2,0.1l0.4-0.2l0.4,0.2l0.1,0.4l-0.3,0.3v0.1l1.1,0.5v-0.6l0.1-0.4l0.3-0.2l1-0.2l0.8-0.5l0.5-0.1l3.7,0.5l1.7,0.4
		l1.6,0.7l0.6,0.4l0.2,0l0.1-0.4l0.2-0.2l0.5-0.2l1-0.2l0.7,0.2l0.4,0l0.3,0l0.1,0l0-0.1l0-0.2l0-0.2l0.2-0.1l1,0.1l0.5,0l0.4-0.2
		l0.2-0.3l0.2-0.4l0.2-0.3l0.4-0.1l1.4,0l0.4,0.1l0.6,0.3l0.5,0.4l0.4,0.4l0.4,0.5l0.1,0.2l0.1,0.2l0.1,0.2l0.2,0.2l0.2,0l0.2,0
		l0.2,0.1l0.1,0.4l-0.5-0.1l0.2,0.3l0.3,0.3l0.8,0.6l0-0.3l-0.3-1l0.1-0.1l0.2-0.2l0-0.1l0-0.1l0.1,0.1l0.1,0.2l0,0.2v1l0.3-0.1
		l0.4,0l0.4,0.1l0.3,0.3l0.8,1.2l0-0.7l0-0.3l0.1-0.3l-0.5,0l-0.3-0.3l-0.2-0.3l-0.3-0.2v-0.2l0.3-0.1l1-0.1L433,311l0.1,0.2l1.2,0
		l-0.1,0l-0.1,0.1l-0.2,0.2l0.2,0.1l0.2,0l0.2-0.1l0.1-0.2h0.2l-0.2,0.3l-0.3,0.2l-0.2,0.2l0.3,0.2l-0.2,0l-0.1,0l-0.1-0.1l-0.1-0.2
		l-0.1,0.5l0.4,0.6l0.5,0.6l0.4,0.5l0,0.2l0.3,0.2l0.7,0.4l1.4,1.5l0.8,0.4l0.2-0.5l-0.2-0.7l-0.5-0.4l0.1-0.3l0-0.2l-0.1-0.2
		l-0.2-0.3l-0.5,0.3h-0.1l0.1-0.2l0-0.2l-0.1-0.2l-0.2-0.1l0.1-0.1l0.4-0.1l0.1,0.3l0.3,0l0.4-0.1l0.3-0.2l-0.1,0.3l0,0.3l0.1,0.3
		l0.1,0.3h0.2l0.3-0.6l0.1-0.2h0.1l-0.3,0.5l-0.1,0.5l-0.1,1l0.2,0.6l0.4,0l0.5-0.3l0.3-0.4l-0.1-0.2l-0.1-0.1l-0.1-0.1l-0.2-0.1
		l0.3-0.3l0.3,0.2l0.2,0.5l-0.2,0.5l-0.4,0.4l-0.5,0.4l-0.6,0.2l-0.6-0.2l0,0.4l0.4,0.7l0.2,0.5l0,0.1l-0.1,0.1l0,0.2l0.1,0.2
		l0.1,0.1l0.5,0.2h0.1l0.3-0.4l0.3,0l0.4,0.2l2.5,0.9l0.7,0.4l0.6,0.5l0.4,0.5l0,0.2l0,0.5l0.1,0.1l0.2,0.1l0.2,0.1h0.2l0.1-0.3
		l0-0.2l-0.3-0.6l-0.3-2.2l0.1-0.4l0.3-0.2l0.4-0.1l0.4-0.2v0.2l0,0.2l0.8,0.7l0.3,0.4l-0.5-0.1l0,0.2l2.7,2.6l0.4,0.7l0.2,1v1.5
		l0.1,0.2l1,0.8l1.6,2.1l0.3,0.7l0,0.5l-0.1,1.2l0.2,0.5l0.3-0.5l-0.1-1.3l-0.3-0.9l-0.7-1l-1-1.4l-1.1-2l-0.2-1.2l-0.4-0.8
		l-0.5-0.6l-1.2-1.8l-0.2-0.9l0.5-3.8l0.1-0.4l0.2-0.4l0.6-0.5l0.2-0.3l-0.1-0.5l-0.3-0.3l-0.7-0.4l-0.3-0.3l-0.1-0.2l0-0.4
		l-0.1-0.2l-0.2-0.2l-0.6-0.3l-1.8-1.8l-0.7-0.5l-1.3-0.4l-0.4-0.3L443,308l-0.1-0.5l0-0.5l0.1-0.4l0.3-0.3l0.2-0.7l0-0.2l-0.1-0.3
		l-0.1-0.2l-0.1-0.1l-0.1-0.2l-0.1-0.5l-0.1-0.9l-0.1-0.5l-0.1-0.3l-0.1-0.3l0-0.2l0.3-0.3l0-0.1l0-0.1l-0.2-0.2l0-0.1l0-0.1
		l0.1-0.1l0.2-0.1l0.1-0.1l0.1-0.1l0-0.1l-0.4-0.2l-0.2-0.3l-0.4-0.7l-1-1.2l-0.5-0.8l-1.2-3.3l0-1.7l0.2-1.4l-0.1-1.8l0-0.3l0-0.2
		l-0.1-0.2l-0.2-0.4l0-0.3l0.4-0.6l0.9-0.1l1.9,0.2l1.4-0.1l0.4-0.2l1.1-0.6l0.4-0.1l-0.8-0.5l-0.5-0.5l0-0.5l0.7-0.6l2.3-1.1
		l0.5-0.5l0.1-0.2l0-0.5l0.1-0.2l0.1-0.2l0.4-0.5l0.2-0.4l0.4-1.3l0.4-0.8l0.6-0.6l1.3-1l0.3-0.4l0.1-0.3l0-0.4l0.1-0.5l0.2-0.4
		l0.5-0.7l0.2-0.4l0.1-0.5l0-0.4l0.1-0.4l0.4-0.4l0.4-0.2l0.8-0.2l0.4-0.2l1.8-1.6l0.8-0.4l0.5-0.2l1.4-0.2l1.7-0.5l1.6,0l0.5-0.1
		l0.4-0.2l0.6-0.5l0.3-0.1l0.1,0.1l0.1,0.1l0.2,0.1l0.2,0l0.2-0.1l0.9-0.6l0.9-0.5l0.4-0.1l0.4,0.1l0.3,0.2l0.3,0.1l0.5-0.2l0.1-0.2
		l0-0.2l0.1-0.2l0.2-0.1l0.2,0l0.2,0.1l0.2,0.1l0.1,0.1l0.1,0.2l0,0.6l0.1,0.2l0.2,0.1l0.8,0.1l1.4,0.3l0.4,0.1l0.3,0l0.2,0l0.2,0
		l0.3,0.1l0.2,0.1l0.2,0.2l0.3,0.1l0.3,0.1l0.4,0l0.1-0.1l0.1-0.2l0.2-0.2l1.2-0.1l0.6,0.5l0.8-0.2l0.9-0.4l0.8-0.2l0.1,0.1l0.1,0.1
		l0.2,0.1l0.3,0l0.2-0.1l0.6-0.6l0-0.1l0-0.1l0.2,0l-0.1,0.1l0,0.2l0.1,0.2l0.3,0.1l0.4-0.1l0.3-0.2l0.3-0.2l0.5,0l1.2,0.5l2.6,0.4
		l0.2,0.1l0.2,0l0.2,0l0.1-0.1l0.1-0.1l0.2-0.1l0.2-0.1l0.4,0.1l0.4,0.2l0.4,0.1l0.5-0.2l0.3-0.3l0.2-0.4l0.3-0.3l0.4-0.2l0.4,0
		l0.6,0.2l0.4,0l0.1-0.1l0.2-0.4l0.2-0.1l0.2,0.1l0.1,0.4l0.2,0.1l0.3-0.1l0.7-0.5l0.3-0.2l0.4,0l0.3,0.2l0.3,0.2l0.4,0.2l0.2,0
		l0.4-0.1l0.2,0l0.2,0.1l0.4,0.2l0.2,0.1l1.3,0.2l0.4,0.1l0.1,0.3l0,0.3l-0.1,1.1l0,0.2l0.7,1.4l0.4,0.5l0.5,0.2l1.2-0.4l0.7-1.2
		l0.5-1.2l0.7-0.4l0.3,0l1.2-0.3l0.4-0.2l0.2-0.2l0.3-0.5l0.2-0.1l0.2,0l0.4,0.3l0.3,0l0.1-0.1l0.4-0.4l0.2-0.1l0.3-0.1l0.6-0.1
		l0.2-0.1l0.1-0.2l0.2-0.5l0.1-0.2l0.1-0.2l0.5-0.5l0.7-1l0.3-0.6l0.1-0.7l-0.3-1.6l0-0.7l0.2-1.1l-0.1-0.2l-0.3-0.4l0-0.5l0.1-0.5
		l0.2-0.4l0.1-0.1l0.3-0.1l0.1-0.1l0-0.1l-0.2-0.3l0-0.4l0-0.1l0.1,0l0.4,0l0.1,0l0.2-0.5l-0.4-0.8l0.2-0.5l0.9-0.6l0.2-0.3
		l-0.6-0.1h0v0l-0.3-0.2l-0.7-1l0-0.1l0-0.3l-0.1-0.1l-0.1,0l-0.3,0.1l-0.1,0l-0.6-0.6l-0.5-0.1l-0.2-0.4v-0.5l0.1-0.5l0.2-0.5
		l0.2-0.3l0.9-1l0.6-0.5l0.7-0.4l0.1,0l0-0.6l-0.1-0.5l-0.1-0.1l-0.4,0.1l-0.4,0l-0.5-0.1l-0.4-0.2l-0.1-0.4l0.2-0.5l0.5-0.3
		l1.1-0.3l0.8-0.5l0.4-0.4l0.1-0.4l0-1l0.1-0.5l0.6-1.5l0.2-1.2L515.8,237.1z"/>
</g>

</svg>
