<?xml version="1.0" encoding="utf-8"?>

<svg version="1.2" baseProfile="tiny" xmlns="http://www.w3.org/2000/svg" xmlns:xlink="http://www.w3.org/1999/xlink" x="0px"
	 y="0px" viewBox="232.5 164.1 373.2 266.3" xml:space="preserve">

<g id="Tajikistan">
	<g>
		<polygon fill="#006600" points="270.5,356.1 269.7,357 267.6,363.1 266.2,365.9 262.8,370.7 260.2,373.2 257.7,376.3 255.7,379.8
			254.4,383.5 254.2,386 255.1,390.7 255.3,393.3 255,395.4 254.5,397.5 253.6,399.2 253.4,400.1 253,403.9 253,404.8 253.6,405.6
			254.7,406.4 255.9,407 258,407.5 258.7,408.3 259.2,409.3 259.9,410.5 260.5,411 261.6,411.6 262,412 263.7,414 263.9,414.5
			264.1,415 264.4,415.5 264.8,415.8 265.4,415.8 266,415.6 266.5,415.3 269.6,412.5 270.2,412.1 271.1,411.8 271.9,411
			272.7,410.3 274,410.1 275.9,410.7 277.1,410.7 277.6,409.9 277.3,407.4 277.2,406.2 277.6,405.2 278.5,404.6 279.4,404.6
			280.4,405 281.3,405.2 282.5,405.1 283.5,404.6 283.8,403.7 283.1,402.3 286.1,402.1 288.3,401.6 288.8,401.6 289.3,401.3
			289.9,400.2 290.2,399.9 291.1,399.8 292.9,399.2 293.8,399.1 293.9,398.6 294.2,397.7 294.8,396.8 295.9,396.6 295.6,395.9
			295.5,395.6 295.2,395.4 295.8,394.8 296.6,394.7 298.5,395 299.5,394.9 300.1,395 300.6,395.2 302.4,396.4 303,396.4
			303.2,395.8 303.1,394.6 302.5,392.8 302.7,392.1 303.7,391.7 304.7,392 305.3,392.8 305.7,393.7 306.3,394.6 307,394.9
			307.5,394.7 307.8,394.2 307.6,393.3 307.4,393.1 306.6,392.5 306.3,392.1 306.1,391.4 306.2,391.2 306.5,391.3 306.6,391.3
			309.9,391.7 310.9,392.3 311.8,393.2 312.6,394.2 313.3,396.4 314.2,397.2 315.3,397.9 316.2,398.7 317,400.8 317.5,401.3
			318.5,402 318.8,402.1 323.3,405.2 324.2,405.1 325.2,404.6 326.5,404.4 327,404.1 327.5,403.7 328.3,402.8 330.2,401.6
			331,400.8 332.7,398 332.8,397.3 331.9,397.1 331.1,396.7 331.5,395.4 331.1,394.9 330.8,392.8 330.4,391.9 330.1,391.5 330,391
			329.9,390.4 329.9,389.9 330,389.7 330.1,389.6 330.2,389.6 330.2,389.3 330.1,389 329.6,388.9 329.6,388.7 329.5,386.4
			329.6,385.3 329.9,384.3 330.2,384 330.8,383.5 331.2,383.2 331.4,382.9 331.7,382.1 331.9,381.9 334,380.3 335,379.3
			335.8,376.8 336.8,376.3 343.3,377 344.4,376.7 346.4,375.9 347.6,375.7 347.9,375.8 349,376.1 349.3,376.3 349.8,376.6
			350.3,376.3 350.8,375.9 351.3,375.7 352.3,375.4 354.3,374.4 355.4,374.5 356.2,375.2 356.6,376.1 357.1,377 358.2,377.4
			358.8,377.5 359,377.8 359.2,378.2 359.6,378.6 360.1,378.8 361.6,379 361.3,378.6 362.6,378.8 364,379.3 365.4,379.6 366.8,379
			368.5,377 368.8,376.7 368.9,376.2 369.6,374.5 369.7,374.5 370.6,374.4 370.8,374.5 371,374.3 371.1,374.1 371.4,373.7
			371.5,373.3 371.4,372.7 371.4,372.2 371.6,372 371.8,371.9 372.4,371 372.5,370.2 372.7,369.7 372.8,369.2 372.7,368.3
			372.2,366.6 372.1,365.8 372.4,365.1 372,364.6 371.5,364 371.2,363.2 371.1,362.4 370.7,361.8 369.2,361.4 368.6,361.1
			367.8,359.9 367.2,358.1 366.9,356.2 367.2,355.6 271.9,355.6 		"/>
		<polygon fill="#006600" points="434.1,355.8 435.5,357.6 435.2,358 435.3,358.7 435.4,360 435.4,361.5 435.2,362.6 434.4,363.6
			432.7,364.8 432.3,365.9 432.3,366.4 432.8,367.7 432.9,368.3 432.8,368.9 432.3,370.8 432,372.6 431.9,373.2 431.7,373.8
			431.1,374.6 430.9,374.9 430.7,377.5 431.4,382.3 430.9,384.8 430.4,386.1 430.2,386.9 430.6,389.3 430.7,391.8 430.6,393
			430.3,393.8 430.2,395.4 428.5,398.4 428.7,399.9 428.3,400.4 428,401.3 427.7,403.8 427.6,407.4 427.7,408.1 428,408.7
			428.8,410 428.9,410.7 428.9,413.2 429.1,414.5 429.5,415.5 432.2,419.9 432.7,421.1 433,423.8 433.4,425.1 433.9,426.2
			434.6,427.2 436.2,428.9 438.2,430 440.4,430.4 442.7,430.4 445.1,430 446.9,429.2 460.8,418.9 462,417.6 463.6,416.6
			464.1,416.2 464.8,415.1 465.2,414.6 467.1,413.3 471.9,411.4 474.1,410.9 477.4,411.5 479,410.7 486.1,409.6 486.5,409.1
			486.8,407.9 488.8,404.8 491,400.2 492.4,398.2 494.4,397.1 496.6,396.7 497.8,396.2 498.8,395 502.2,392.9 505.7,392.6
			506.6,391.9 507.2,391.1 508,389.4 508.7,388.4 510.6,387 511,386.9 512,387.3 512.5,387 514.9,384.5 515.6,383.9 516.6,383.6
			517.8,383.5 518.9,383.6 519.7,384.1 520.5,384.4 523.5,382.7 525.6,382.7 531.3,384.8 534.6,385.6 536.7,385.6 538.4,385.8
			538.1,387.3 538,387.8 538,390.3 537.7,391.2 536.9,392.1 536.1,392.8 535.4,393.2 533.5,393.3 532.5,393.7 531.5,394.6
			530.9,395.7 531.1,397 531.9,397.5 533.9,396.8 534.9,396.9 535.3,397.2 536,398.2 536.3,398.4 536.8,398.4 537.6,397.8
			538,397.6 539.1,397.7 539.8,397.9 540.5,397.7 542.3,396 543.3,395.8 545.3,395.5 548,394.3 549,394.1 552.6,392.7 557.9,391.7
			559.1,391.2 560,390.1 560.1,388.1 560.8,387.3 562.1,387.3 563.5,387.6 564.7,387.5 565.2,385.9 565.5,386.7 566,386.3
			566.6,386.3 567,386.5 567.7,387.7 568.2,387.9 568.7,387.9 570.1,388.1 571,387.9 571.9,387.9 572.9,388.3 574.6,388.9 575,389
			575.4,389 580.3,388.6 581.7,387.9 587.8,391.6 589.1,393.1 591.3,396.8 592.5,397.5 592.5,397.5 593.7,397.1 594.2,396.1
			594.7,395.1 595.6,394.6 596.7,394.4 601.1,392.8 601.6,392 601.7,389.8 602.3,388.8 603.4,388.2 605.7,387.5 604.2,386.4
			602.8,385.1 600.4,381.9 599.6,381.1 595.3,378.6 593.8,377.3 592.7,375.6 592.3,373.5 592.4,372.3 593,371.5 593.6,370.7
			594.2,369.8 594.4,369.3 594.5,368.8 594.6,368.2 594.9,367.6 595.7,366.6 596.1,366 596.2,365.5 596,364.4 595.5,363.8
			593,362.4 592.7,362.1 592.4,361.7 592.3,360.9 592.5,360.6 592.8,360.4 593.7,359.1 593.8,358.6 593.4,358.3 592.8,357.9
			592.7,357.6 592.7,357.2 592.6,355.6 433.8,355.6 		"/>
		<polygon fill="#006600" points="369.5,355.7 370,355.6 369.2,355.6 		"/>
		<polygon fill="#006600" points="419.3,355.9 419.6,356 419.9,355.9 420.4,356 422.3,357.5 423.3,357.9 424.2,357.4 425.1,356.7
			428.2,355.6 419.3,355.6 		"/>
		<path fill="#FFFFFF" d="M392.5,326.3l2.2-0.2l0.6-1l0.3-0.4l0.8-0.2h0.2c-0.9-0.9-1.7-2-2.4-3.2
			C394,323.1,393.4,324.8,392.5,326.3z"/>
		<polygon fill="#FFFFFF" points="390.5,238.5 388.9,238.4 388.8,238.4 382.6,238.4 382.7,238.4 383.3,239.3 384.9,240.5
			385.4,241.1 386.8,243.4 387,243.6 389.5,241.6 390.9,240.9 392.4,240.6 392.9,240.2 393,239.1 392.8,238.4 390.7,238.4 		"/>
		<path fill="#FFFFFF" d="M299.6,238.9L299.6,238.9l0,0.4l-0.1,0.6l-0.3,0.4l-0.6-0.3l-1-1.6h-2.2l-0.5,0.4l-0.6-0.3l-0.6,0
			l-0.5,1.3l-0.5,10l-0.3,1.5l-0.6,1.2l-1.1,1.2l-2,1.3l-0.6,0.9l0.5,1.2l-0.9,0.4l-2.9,0.8l-2.4,0.2l-2.3-0.2l-3.9-1.4l-7.1-0.2
			l-16.3-4.2l-2.2,0l-1.8,0.6l-4.4,3.2l-3.8,0.6l-0.9,0.9l0.3,2.7l-0.2,0.2l-0.2,0.2l-0.2,0.1l-0.2,0l-1.2-0.2l-0.7,0.1l-0.4,0.6
			l-0.6,2.4l-0.3,2.5l0,2.3l-0.6,2.1l-0.4,2l-0.3,0.1l-0.4-0.1l-0.5,0.2l-0.5,0.4l-0.2,0.3l-0.1,0.4l-0.1,0.9l0.4,2.4l1.3,1.2
			l5.8,2.1l3.9,0.1l1.9,0.8l0.2,0.2l0.4,0.7l0.3,0.3l0.3,0.1l0.8-0.2l0.3,0.1l0.4,0.7l0.1,0.8L248,289l0.2,1.5l0.9,0.9l6.1,1l1.3,0
			l3.6-1.2h0v0h0l0.6-0.3l0.7-0.2h0.7l0.8,0.3l0.4,0.2l0.7,0.7l0.8,0.2l0.8-0.3l0.8-0.6l0.4-0.1l0.4,0l0.4,0l0.4,0.1h0l0,0h0
			l0.7,0.9l1.6,3.6l1.4,2l0.5,1.2l-0.1,1.3l-0.4,1l-0.6,0.8l-0.7,0.6l-0.8,0.5l-1.1,0.2l-0.8,0l-0.5,0.3l-0.2,1.3l0.2,0.6l0.3,0.5
			l0.2,0.6l0,0.7l-0.2,0.4l-1.2,0.9l-0.4,0.9l0.1,1.1l0.6,2.3l0.1,1.2l-0.2,3.5l0.1,1.3l0.4,0.8l1.2,1.8l0.3,0.9l0.1,1.9l0.2,0.9
			l0.5,0.8l1.9,1.8l1.8,3.2l0.8,0.8l2.5,1.4l3.8,3.4l1.2,1.8l0.2,2.4l-0.8,3.5l-1.2,3.4l-1.9,2.8l-0.6,1.2h0l-0.4,1l-0.2,0.9
			l-0.4,0.8l-0.7,0.5l-0.7,0.2l-2.2,0.3l-0.1,0h95.2l0.3-0.9l1,0.8l0.7,0.1h0.8l0.6-0.1l1.1-0.4l-0.4-0.5l-0.2-0.5l0-0.5l0.2-0.5
			l0.3-0.2l0.6-0.1l0.5-0.2l0.2-0.5l0.2-0.3l1.2-0.6l0.4-0.3l2.1-2.8l2.1-2.2l0.5-0.4l1.6-0.7l0.1-0.1l-0.3-1
			c0.4-0.1,0.8-0.2,1.3-0.4l0,0l1.2-3.4l1.4-2.7l0.4-1.5l0.6-0.3l0.7-0.2l0.5-0.3l0.6-2.1l0-0.5l-0.1-0.6l0-0.6
			c-6.9,4.1-16.9,2.3-17.9-7.3c1,0.7,2.1,1.3,3.3,1.8c7.9,3.2,16.9-0.7,20.1-8.6c2.4,2.3,5.5,3.7,8.8,4c8.2,0.7,15.4-5.3,16.1-13.5
			v-11.7c-0.1-1.7-1-3.2-2.4-4.1c-2.3-1.4-5.3-0.6-6.7,1.8c-0.8-2.4-0.8-4.9,0-7.3c2-6,8.5-9.3,14.6-7.3c6,2,9.3,8.5,7.3,14.6
			c-0.8-1.5-2.4-2.4-4.1-2.4c-2.7-0.1-5,2-5,4.7v11.7c0.7,8.2,8,14.2,16.1,13.5c3.3-0.3,6.4-1.7,8.8-4c3.2,7.9,12.1,11.8,20.1,8.6
			c1.2-0.5,2.3-1.1,3.3-1.8c-1.4,14.2-22.8,11.3-24.4-2.5c-6.7,11.8-21.4,8.4-25.8-6h0c-1.7,5.6-4.9,9.5-8.6,11.5l1.2,0.6l1.8,1.4
			l2.1,2.2c0.3,0,0.6-0.1,0.9-0.1c-0.1-1.8,1.1-4.1,2.5-5.3c1.1,1.1,2.6,3.1,2.7,5.2c3.2,0.1,4.5,1.2,4.5,1.3c0,0,0,0,0,0v0l0,0
			c-1.1,1.6-2.3,2.7-3.6,3.5l0.5,0.8l0.2,1.7c11.7,0.4,23.3,2.2,34.7,5.6l-2.1,7c-11.2-3.3-22.7-5.1-34.2-5.3l-0.6,1.2l-0.6,2.5
			l-1.4,2.7l-0.3,1.6l-0.5,1.3l-0.1,0.6l0.1,0.5h8.9l2.7-0.9l1.7,0.1l1.2,0.8h158.7l0,0l0.2-3.8l-0.6-1.7l-3.4-1.9l-0.9-1.7
			l-0.9-6.9l0-5.8l0.2-1.1l0.5-1l2-2.3l0.6-1l0.3-1.1l0-1.2l-0.3-1.7l-0.1-0.6l-0.1-0.5l-0.3-0.4l-0.8-0.5l-0.3-0.3l-0.4-0.7h0
			l-0.8-1l-0.8-0.6l-0.9-0.2l-1.1,0.1l-1.1-0.2l-0.8-0.7l-0.7-0.8l-0.9-0.7l-8.1-3.1l-6.8-3.3l-1-0.1l-3.3,1.2l-1.1,0l-0.9-0.1
			l-2.9-1l-0.8,0l-0.7,0.5l-0.7,1l-0.1,0.5l0,0.5l-0.1,0.5l-0.3,0.4l-1.9,0.6l-0.4,0.3l0,1.2l0.6,1l0.4,0.9l-0.6,1l-0.8,0.2
			l-4.6-0.2l-0.7-0.5l-1.4-1.3l-0.8-0.5l-1.7-0.7l-0.8-0.5l-0.9-1l-0.4-1l-0.5-2.5l-0.3-0.9l-1.7-2.9l-0.2-0.9l0.3-2.7l-0.2-1.2
			l-0.5-0.8l-1.4-1.6l-0.6-0.9l-0.1-1.1l0.4-1.1l0.7-1l0.7-0.7l1.1-0.5h2.3l1-0.3l0.7-0.8l0.2-0.9l-0.1-1l-0.5-1l-0.7-0.5l-1.6-1.7
			l-2.8-2.2l-0.5-0.8l-0.3-1l-0.4-2.1l-0.4-0.9l-2-2l-1.1-2l-0.3-1.7l0.4-1.8l1.5-4.3l0.1-1l-0.1-1.3l-0.5-3.5l0-1.2l-1.4-0.7
			l-4.4-0.5l-1.7,0.2l-5.2,1.3l-1.2,0.8l-0.4,1l-0.1,0.9l-0.3,0.6l-2.7,0.5l-4.8,1.7l-1.5,0.1l-1.7-0.5l-0.8-0.4l-0.6-0.2l-0.6,0.1
			l-2.3,1.2l-0.7,0.1l-0.8-0.3l-3-0.6l-1-0.1l-2.1,0.4l-0.7,0l-8.8-2.3l-0.8,0l-0.8,0.2l-0.5,0.4l-0.9,1.2l-0.5,0.3l-0.8,0l-1.2-0.8
			l-0.7-0.2l-0.5,0.2l-1.5,1.6l-0.8,0.1l-0.8,0l-1.6-0.4l-0.8,0l-1.8,0.9l-1,0.1l-0.9,0.3l-0.6,0.9l-0.9,2.8l1.3,4h7.1l-5.7,4.2
			l2.2,6.8l-5.7-4.2l-5.7,4.2l2.2-6.8l-5.7-4.2h7l-0.4-0.9l-0.1-0.6l0-0.5l-0.2-0.4l-1-0.5l-0.7-0.6l-0.4-0.3l-2.1-0.3l-1-0.4
			l-0.4-0.9l-0.1-1.3l-0.3-1.6l-0.5-1.3l-0.8-0.7l-0.9,0.1l-1.7,0.9l-1.8,0.4l-0.8,0.4l-4.7,3.3l-1.7,0.7l-1.7,0.2l-0.9-0.3
			l-0.9-0.7l-0.7-1l-0.4-1.2l0.1-1.3l0.5-0.8l0.3-0.3l1-3.2l-0.1-0.9l-0.4-1.4l-0.8-0.7l-0.9,0l-4.9,1l-2.3-0.1l-2-0.9l-1-2.1l0.4-1
			l1.2-1.8l0.3-0.9l-0.3-1l-0.7-0.9l-0.9-0.7l-1.6-1l-0.9,0.1l-1.6,0.8l-1.4,0.3l-0.5,0.2l-0.3,0.2l-0.6,0.7l2.1,6.6l-5.5-4
			l-0.8,0.9l-0.5,0.4h-0.6l-0.2,0l-3.8,2.8l1.1-3.3l-1.8,0.1l-2,0.5l-1.6,1l-1,1.7l-0.7,2l-0.9,1.7l-1.5,0.8l-1.3-0.4l-1.2-0.8
			l-1-0.5l-0.9,0.4l-0.6,0.7l-0.4,0.1l-0.4-0.1l-0.7,0l-0.6,0.2l-1.2,0.7l0.7,2.3l-2.8-2l-1-0.2l-1.3-0.7l-0.7-1.2l-5.7,4.2l2.2-6.8
			l-5.7-4.2h6.6l-0.3-0.9l-0.7-1.3l-1.2-0.9l-0.8-0.1l-1.8,0.3l-0.8-0.1l-0.6-0.4l-1.1-0.9l-0.7-0.3l-0.8,0.1l-1.5,0.6l-0.8,0.2
			l-0.5,0.2l-0.3,0.3l-0.2,0.3l-0.3,0.2h-0.5l-1-0.3l-0.5,0l-0.6,0.2l-4.3,3.1l-0.8,0.2l-0.8-0.3l-0.1-0.9l0.5-2.2l0-1l-0.2-1.2
			l-0.5-0.6l-0.7,0.6l-1.3,2.9l-0.4,0.6l-0.8,0.3l-0.8-0.3l-1.6-0.9l-1-0.2l-1,0l-1,0.3l-0.8,0.7l-0.7,1.1l-0.4,0.3l-1.4-0.6l-2-0.2
			l-3.7,0.8l-1.9-0.6l-2-1.1l-1.9-0.6l-2-0.2l-4.2,0.3l-0.8,0.3l-1.6,1.4l-0.8,0.5l-0.9,0.3l-0.9,0.1h-1.1l-2.1,0.3l-1-0.3l-1.2-1.2
			l-0.3-0.2l-0.5,0.2l-0.2,0.4l-0.1,0.5l-0.3,0.5l-1.9,0.8l-0.7-1.5l0.2-7.4l-0.2-1.2l-0.4-1l-0.7-0.8l-0.8-0.7l-0.7-0.8l-0.3-1.1
			l0.2-2.4l0.5-2.4l0.5-1.4h-23.7L299.6,238.9z M450.3,335L450.3,335c-4.9,5.1-10.9,4.3-14.1-2.3c0,0,2.5-0.7,4.7-0.4
			c0.2-1.8,1.8-3.9,3.4-4.8c0.9,1.2,2,3.5,1.8,5.5C449.2,333.7,450.3,335,450.3,335C450.3,335,450.3,335,450.3,335L450.3,335z
			 M472.5,305.7l2.2-6.8l2.2,6.8h7.1l-5.7,4.2l2.2,6.8l-5.7-4.2l-5.7,4.2l2.2-6.8l-5.7-4.2H472.5z M370.4,278.3l2.2-6.8l2.2,6.8h7.1
			l-5.7,4.2l2.2,6.8l-5.7-4.2l-5.7,4.2l2.2-6.8l-5.7-4.2H370.4z M363.1,305.7l2.2-6.8l2.2,6.8h7.1l-5.7,4.2l2.2,6.8l-5.7-4.2
			l-5.7,4.2l2.2-6.8l-5.7-4.2H363.1z"/>
		<path fill="#FFFFFF" d="M388.9,330.3l0.5,0l0.4-0.3l1.7-1.3l0.4-0.7l-0.4-0.3C390.8,328.7,389.9,329.6,388.9,330.3z"/>
		<polygon fill="#CC0000" points="383.1,236.5 382.4,236.4 382.3,237.4 382.6,238.4 388.8,238.4 		"/>
		<polygon fill="#CC0000" points="392,237.8 390.7,238.4 392.8,238.4 392.6,237.9 		"/>
		<polygon fill="#CC0000" points="297.3,237.9 296.5,237.3 295.4,238.4 297.6,238.4 		"/>
		<polygon fill="#CC0000" points="404.1,214.2 399.8,214.6 393,216.7 391,216.9 389,216.7 387,215.4 386.2,212.7 385.6,209.8
			384.3,207.8 383.2,207.3 382.3,207.4 381.4,207.7 380.4,207.8 379.4,207.5 377,206.4 377.6,204.3 377.5,204 377.1,203.5
			377,203.4 376.4,202.5 376.3,202.4 376.2,202.1 376.2,200.7 376.9,199.5 378.3,198.6 381.6,197.8 382.1,197.7 382.6,197
			383.7,195.1 384.4,194.4 385,194.1 385.7,193.9 386.4,193.6 387.1,193.1 388.7,191 391.6,188.6 392.3,188 393,187.4 393.4,187.2
			394.2,187 394.4,186.8 394.5,186.5 394.6,186.2 395.4,185.8 395.5,185.2 395.9,183.1 394.1,182.1 389.7,181 388.9,180.1
			388.8,179 389.3,178.2 390.2,178.1 391.9,179.5 392.8,179.9 392.9,178.7 392.5,178.2 383.8,168.4 382.3,167 382.2,166.8
			382.1,166.6 380.5,165 378.4,164.1 376.6,164.6 375.3,171.2 372.7,174.3 369.2,176.4 364.3,178.4 359.7,181.8 350.9,184.6
			349.9,185.1 348.9,185.9 346.9,188.5 345.8,189.5 344.5,189.9 343.1,189.3 342.5,188.8 342,188.1 341.1,186.6 340.6,186
			339.4,185.2 338.8,184.7 336.9,181.8 335.9,180.8 334.3,180.6 333.6,180.2 333,179.6 332.4,179 331.5,178.9 329.9,179.4
			329.2,179.9 328.5,180.4 327.3,182 326.6,183.6 326.2,185.5 326.2,187.8 326.5,191.2 326.3,192 325.6,192.4 322.7,192.7
			321,193.8 321,195.1 322.9,198.4 322.9,198.4 324,201.9 324.4,203 325.7,205.2 326.2,206.4 326.5,207.8 326.1,210.9 324.6,211.1
			322.8,210.4 321.5,210.6 321.7,212.4 325.2,215.5 325.2,217 323.4,217.8 321,217.8 316.7,216.5 313.6,214.9 312.5,214.7
			304.7,215.9 303.8,216.3 302.1,217.3 301,217.4 298.2,216.9 297.2,217 292.6,218.2 291.6,218.9 292.8,220.3 294.9,221.6
			296.6,222.3 308.2,220 310.5,221.6 310.8,222.5 310.9,223.4 310.9,224.3 310.5,225.1 309.4,225.3 305.9,224.7 305,225
			303.3,226.5 302.6,226.7 301.6,224.8 300.8,224.2 300.2,225.3 300.3,225.9 301.1,226.6 301.3,227 301.2,228.3 301.3,228.9
			301.5,229.5 305.7,235.3 305.9,236.7 303.8,237.5 302.7,235.8 302,233.2 301,231 300.1,230.3 299.7,230.8 299.9,232 300.4,233.3
			301.4,235.6 301.4,236.5 300.8,237.7 300.6,237.8 300.2,237.9 300,238 299.8,238.4 323.5,238.4 325.2,233.1 326.1,231.1
			326.4,230.5 326.4,230.1 326.5,229.9 327.2,230.1 328.6,231.7 330.9,235.6 335.5,233.9 335.4,233.1 334.3,231.1 334.4,230.7
			334.3,230.3 334.2,229.9 334,229.5 333.7,227.6 334,226 334.7,224.6 335.7,223.1 335.9,222.7 336.1,221.6 336.3,221.4
			336.7,221.5 337.2,222.4 337.5,222.7 338.2,222.8 339,222.7 357.8,216 359.5,216.2 366.3,220.6 367.3,221 369.7,220.8
			370.8,220.9 371.9,221.4 372.5,222.2 373.1,223 373.9,223.9 374.8,224.3 376.4,224.5 378.2,225.3 382.1,225.9 383.2,226.3
			384.4,227 384.8,228.2 384.1,229.5 383.4,230.1 382.6,230.5 381.9,231 381.2,231.9 380.8,233 380.7,234.1 381,234.9 382.1,235.3
			382.5,234.7 382.9,233.4 383.2,232.8 383.7,232.5 385.8,232.5 386.8,232.1 387.7,231.5 388.6,230.6 389.2,229.5 389.6,227.4
			389.6,225.4 389.8,223.9 391.1,222.7 394.1,221.6 394.8,221.2 396.6,219.7 396.9,219.3 397.1,219.1 397.3,219.1 397.6,219.2
			397.7,219.3 397.8,219.4 398.6,219 399,218.7 399.6,218.5 402.2,219 403.6,218.5 405.2,217.4 406,215.8 405,214.3 		"/>
		<polygon fill="#CC0000" points="386.9,167.8 388.3,169.7 389.1,170.5 390.1,170.7 390,169.6 389.4,168.1 388.7,167 387.6,166
			386.3,165.5 385.5,165.7 386.1,167 386.1,167 		"/>
		<polygon fill="#F8C300" points="389.1,262.5 386.9,269.2 392.6,265.1 392.6,265 392.6,264.3 392.8,263.5 392.9,262.6 392.7,261.8
			392.2,261.3 391.1,260.9 390.6,260.4 390.6,260.4 389.9,258.3 383.3,258.3 		"/>
		<polygon fill="#F8C300" points="418.1,259.1 415.6,258.6 415.3,258.6 414.3,261.9 		"/>
		<polygon fill="#F8C300" points="397.6,266.9 397.3,267.1 396,267.3 395.6,267.2 398.4,269.2 		"/>
		<polygon fill="#F8C300" points="450.3,335 450.3,335 450.3,335 		"/>
		<polygon fill="#F8C300" points="359.5,316.6 365.3,312.5 371,316.6 368.8,309.9 374.6,305.7 367.5,305.7 365.3,299 363.1,305.7
			356,305.7 361.7,309.9 		"/>
		<path fill="#F8C300" d="M446.1,333.1c0.2-2.1-0.9-4.3-1.8-5.5c-1.6,0.9-3.2,2.9-3.4,4.8c-2.3-0.3-4.7,0.4-4.7,0.4
			c3.3,6.6,9.3,7.5,14.1,2.3C450.3,335,449.2,333.7,446.1,333.1z"/>
		<polygon fill="#F8C300" points="366.9,289.3 372.6,285.1 378.3,289.3 376.1,282.5 381.9,278.3 374.8,278.3 372.6,271.6
			370.4,278.3 363.3,278.3 369,282.5 		"/>
		<polygon fill="#F8C300" points="469,316.6 474.7,312.5 480.5,316.6 478.3,309.9 484,305.7 476.9,305.7 474.7,299 472.5,305.7
			465.4,305.7 471.2,309.9 		"/>
		<path fill="#F8C300" d="M381.3,344.6l0.4-0.4l0.6-1c-0.4,0.1-0.8,0.2-1.3,0.4L381.3,344.6z"/>
		<polygon fill="#F8C300" points="423.6,255.3 423.6,255.4 423.3,255.6 421.6,256.5 420.9,257 420.2,257.9 425.7,261.9 		"/>
		<polygon fill="#F8C300" points="442.1,268.4 442.7,267.5 442.9,266.2 442.8,265.5 441.8,268.8 		"/>
		<polygon fill="#F8C300" points="427.2,332 427.2,332 427.2,332 		"/>
		<path fill="#F8C300" d="M420,315.2L420,315.2c4.4,14.4,19.1,17.8,25.8,6c1.6,13.8,22.9,16.8,24.4,2.5c-1,0.7-2.1,1.3-3.3,1.8
			c-7.9,3.2-16.9-0.7-20.1-8.6c-2.4,2.3-5.5,3.7-8.8,4c-8.2,0.7-15.4-5.3-16.1-13.5v-11.7c0.1-2.7,2.3-4.8,5-4.7
			c1.7,0.1,3.2,1,4.1,2.4c2-6-1.3-12.6-7.3-14.6c-6-2-12.6,1.3-14.6,7.3c-0.8,2.4-0.8,4.9,0,7.3c1.4-2.3,4.3-3.1,6.7-1.8
			c1.5,0.8,2.4,2.4,2.4,4.1v11.7c-0.7,8.2-8,14.2-16.1,13.5c-3.3-0.3-6.4-1.7-8.8-4c-3.2,7.9-12.1,11.8-20.1,8.6
			c-1.2-0.5-2.3-1.1-3.3-1.8c1,9.6,10.9,11.4,17.9,7.3l0,0l0.2-0.6l0.4-0.2l0.6,0c1-0.7,1.9-1.6,2.6-2.5l-0.5-0.4V327l0.9-0.6
			l0.6-0.1c0.9-1.5,1.5-3.2,1.7-5.1c0.7,1.2,1.5,2.3,2.4,3.2h1.3l0.4,0.1l0.8,0.2l0.4,0l0.3-0.2l0.2-0.3l0.3-0.3l0.6-0.1l2,0.9
			l1.1,0.3l0.5-0.6l-0.2-1.4l0.3-0.4l1.1,0l0.6,0.1l0.5,0.3l0.5,0.5l0.5,0.5l0.3,0.5l0.4,1.1l0.3,0.5l0.5,0.4l0.4,0l0.4-0.2l0.6,0
			l0.6,0.1l0.1,0.1C415.1,324.7,418.3,320.8,420,315.2z"/>
		<path fill="#F8C300" d="M427.2,332c0,0-1.3-1.1-4.5-1.3c-0.1-2.1-1.6-4.1-2.7-5.2c-1.4,1.1-2.7,3.4-2.5,5.3c-0.3,0-0.6,0-0.9,0.1
			l0.8,0.9l3.9,1.6l1.6,1.1l0.6,1C424.9,334.7,426.1,333.6,427.2,332z"/>
		<polygon fill="#F8C300" points="463.8,282.5 461.7,289.3 467.4,285.1 473.1,289.3 471,282.5 476.7,278.3 469.6,278.3 468.3,274.4
			468.1,274.8 466.2,279.1 465.6,279.1 465.1,278.4 465.1,278.3 458.1,278.3 		"/>
		<path fill="#F8C300" d="M459,343.5c-11.4-3.4-23-5.2-34.7-5.6l0.1,1.1l-0.3,1.4l-0.9,2.6l-0.3,1.8l-0.2,0.5
			c11.5,0.2,23,2,34.2,5.3L459,343.5z"/>
	</g>
	<path fill="none" stroke="#999999" stroke-width="0.25" stroke-linecap="round" stroke-linejoin="round" d="M604.2,386.4l-1.4-1.3
		l-2.4-3.2l-0.8-0.8l-4.3-2.5l-1.4-1.3l-1.1-1.7l-0.5-2.1l0.2-1.2l0.5-0.9l0.7-0.8l0.6-0.9l0.2-0.5l0.1-0.5l0.1-0.5l0.3-0.6l0.8-1
		l0.3-0.6l0.2-0.6l-0.2-1.1l-0.6-0.6l-2.4-1.3l-0.3-0.3l-0.2-0.5l-0.1-0.8l0.2-0.3l0.3-0.2l0.8-1.3l0.1-0.4l-0.4-0.4l-0.5-0.3
		l-0.2-0.3l0-0.4l-0.1-1.6l0.2-3.8l-0.6-1.7l-3.4-1.9l-0.9-1.7l-0.9-6.9l0-5.8l0.2-1.1l0.5-1l2-2.3l0.6-1l0.3-1.1l0-1.2l-0.3-1.7
		l-0.1-0.6l-0.1-0.5l-0.3-0.4l-0.8-0.5l-0.3-0.3l-0.4-0.7h0l-0.8-1l-0.8-0.6l-0.9-0.2l-1.1,0.1l-1.1-0.2l-0.8-0.7l-0.7-0.8l-0.9-0.7
		l-8.1-3.1l-6.8-3.3l-1-0.1l-3.3,1.2l-1.1,0l-0.9-0.1l-2.9-1l-0.8,0l-0.7,0.5l-0.7,1l-0.1,0.5l0,0.5l-0.1,0.5l-0.3,0.4l-1.9,0.6
		l-0.4,0.3l0,1.2l0.6,1l0.4,0.9l-0.6,1l-0.8,0.2l-4.6-0.2l-0.7-0.5l-1.4-1.3l-0.8-0.5l-1.7-0.7l-0.8-0.5l-0.9-1l-0.4-1l-0.5-2.5
		l-0.3-0.9l-1.7-2.9l-0.2-0.9l0.3-2.7l-0.2-1.2l-0.5-0.8l-1.4-1.6l-0.6-0.9l-0.1-1.1l0.4-1.1l0.7-1l0.7-0.7l1.1-0.5h2.3l1-0.3
		l0.7-0.8l0.2-0.9l-0.1-1l-0.5-1l-0.7-0.5l-1.6-1.7l-2.8-2.2l-0.5-0.8l-0.3-1l-0.4-2.1l-0.4-0.9l-2-2l-1.1-2l-0.3-1.7l0.4-1.8
		l1.5-4.3l0.1-1l-0.1-1.3l-0.5-3.5l0-1.2l-1.4-0.7l-4.4-0.5l-1.7,0.2l-5.2,1.3l-1.2,0.8l-0.4,1l-0.1,0.9l-0.3,0.6l-2.7,0.5l-4.8,1.7
		l-1.5,0.1l-1.7-0.5l-0.8-0.4l-0.6-0.2l-0.6,0.1l-2.3,1.2l-0.7,0.1l-0.8-0.3l-3-0.6l-1-0.1l-2.1,0.4l-0.7,0l-8.8-2.3l-0.8,0
		l-0.8,0.2l-0.5,0.4l-0.9,1.2l-0.5,0.3l-0.8,0l-1.2-0.8l-0.7-0.2l-0.5,0.2l-1.5,1.6l-0.8,0.1l-0.8,0l-1.6-0.4l-0.8,0l-1.8,0.9
		l-1,0.1l-0.9,0.3l-0.6,0.9l-1.1,3.3l-2,4.3l-0.5,0l-0.5-0.7l-0.4-1l-0.1-0.6l0-0.5l-0.2-0.4l-1-0.5l-0.7-0.6l-0.4-0.3l-2.1-0.3
		l-1-0.4l-0.4-0.9l-0.1-1.3l-0.3-1.6l-0.5-1.3l-0.8-0.7l-0.9,0.1l-1.7,0.9l-1.8,0.4l-0.8,0.4l-4.7,3.3l-1.7,0.7l-1.7,0.2l-0.9-0.3
		l-0.9-0.7l-0.7-1l-0.4-1.2l0.1-1.3l0.5-0.8l0.6-0.6l0.6-0.9l0.2-1.2l-0.1-1.6l-0.4-1.4l-0.8-0.7l-0.9,0l-4.9,1l-2.3-0.1l-2-0.9
		l-1-2.1l0.4-1l1.2-1.8l0.3-0.9l-0.3-1l-0.7-0.9l-0.9-0.7l-1.6-1l-0.9,0.1l-1.6,0.8l-1.4,0.3l-0.5,0.2l-0.3,0.2l-0.7,0.7l-0.3,0.3
		l-1.7,0.9l-0.7,0.5l-1.5,1.7l-0.5,0.4h-0.6l-2.7-0.5l-2,0.1l-2,0.5l-1.6,1l-1,1.7l-0.7,2l-0.9,1.7l-1.5,0.8l-1.3-0.4l-1.2-0.8
		l-1-0.5l-0.9,0.4l-0.6,0.7l-0.4,0.1l-0.4-0.1l-0.7,0l-0.6,0.2l-1.5,0.8l-1.3,0.2l-1.4-0.3l-1.3-0.7l-0.7-1.3l0-0.8l0.2-0.8l0.1-0.9
		l-0.3-0.8l-0.5-0.4l-1.1-0.5l-0.5-0.4v0l-0.9-3l-0.7-1.3l-1.2-0.9l-0.8-0.1l-1.8,0.3l-0.8-0.1l-0.6-0.4l-1.1-0.9l-0.7-0.3l-0.8,0.1
		l-1.5,0.6l-0.8,0.2l-0.5,0.2l-0.3,0.3l-0.2,0.3l-0.3,0.2h-0.5l-1-0.3l-0.5,0l-0.6,0.2l-4.3,3.1l-0.8,0.2l-0.8-0.3l-0.1-0.9l0.5-2.2
		l0-1l-0.2-1.2l-0.5-0.6l-0.7,0.6l-1.3,2.9l-0.4,0.6l-0.8,0.3l-0.8-0.3l-1.6-0.9l-1-0.2l-1,0l-1,0.3l-0.8,0.7l-0.7,1.1l-0.4,0.3
		l-1.4-0.6l-2-0.2l-3.7,0.8l-1.9-0.6l-2-1.1l-1.9-0.6l-2-0.2l-4.2,0.3l-0.8,0.3l-1.6,1.4l-0.8,0.5l-0.9,0.3l-0.9,0.1h-1.1l-2.1,0.3
		l-1-0.3l-1.2-1.2l-0.3-0.2l-0.5,0.2l-0.2,0.4l-0.1,0.5l-0.3,0.5l-1.9,0.8l-0.7-1.5l0.2-7.4l-0.2-1.2l-0.4-1l-0.7-0.8l-0.8-0.7
		l-0.7-0.8l-0.3-1.1l0.2-2.4l0.5-2.4l2.2-6.6l0.9-2l0.2-0.6l0-0.4l0.2-0.1l0.7,0.1l1.4,1.6l2.3,3.9l4.6-1.6l-0.1-0.8l-1.1-2l0-0.4
		l0-0.4l-0.1-0.4l-0.2-0.4l-0.4-2l0.3-1.6l0.8-1.4l1-1.4l0.1-0.4l0.2-1.1l0.2-0.3l0.4,0.1l0.5,1l0.3,0.3l0.8,0.1l0.8-0.1l18.8-6.7
		l1.7,0.2l6.8,4.5l1,0.3l2.4-0.1l1.1,0.1l1.1,0.5l0.7,0.8l0.6,0.9l0.8,0.8l0.9,0.5l1.7,0.2l1.8,0.8l3.8,0.6l1.2,0.4l1.1,0.8l0.5,1.1
		l-0.7,1.4l-0.8,0.5l-0.8,0.4l-0.7,0.5l-0.6,0.9l-0.4,1.2l-0.1,1.1l0.4,0.8l1,0.4l0.4-0.5l0.4-1.4l0.3-0.6l0.6-0.3l2-0.1l1-0.4
		l1-0.6l0.8-0.9l0.6-1.1l0.4-2.2l-0.1-1.9l0.2-1.6l1.3-1.2l3-1l0.6-0.4l1.9-1.6l0.3-0.4l0.2-0.1l0.3,0l0.2,0.1l0.2,0.1l0,0.1
		l0.9-0.5l0.3-0.3l0.6-0.2l2.5,0.6l1.5-0.5l1.6-1.2l0.8-1.5l-1-1.5l-1-0.1l-4.2,0.4l-6.8,2.1l-2,0.2l-2-0.1l-1.9-1.4l-0.9-2.6
		l-0.6-2.9l-1.3-2.1l-1.1-0.5l-0.9,0.1l-0.9,0.3l-1,0.1l-1-0.3l-2.4-1.1l0.7-2.2l-0.1-0.3l-0.4-0.5l-0.1-0.1l-0.6-0.9l-0.1-0.2
		l-0.1-0.3l-0.1-1.3l0.8-1.2l1.4-0.9l3.3-0.8l0.5-0.2l0.5-0.6l1.1-2l0.6-0.6l0.7-0.3l0.7-0.2l0.7-0.3l0.6-0.5l1.7-2.1l2.9-2.4
		l0.7-0.6l0.7-0.5l0.4-0.2l0.8-0.2l0.2-0.2l0.1-0.3l0.2-0.3l0.7-0.5l0.1-0.5l0.4-2.1l-1.8-1.1l-4.4-1l-0.7-1l-0.1-1.1l0.4-0.8l1-0.1
		l1.7,1.4l0.9,0.4l0.1-1.2l-0.4-0.5l-8.7-9.8l-1.5-1.3l-0.2-0.2l-0.1-0.2l-1.5-1.6l-2.1-0.9l-1.8,0.5l-1.3,6.6l-2.6,3.1l-3.5,2.1
		l-5,2l-4.5,3.5l-8.8,2.8l-1.1,0.5l-0.9,0.8l-2,2.5l-1.1,1l-1.3,0.4l-1.5-0.5l-0.6-0.5l-0.5-0.7l-0.9-1.5l-0.5-0.6l-1.2-0.8
		l-0.6-0.5l-1.9-2.9l-1.1-1l-1.5-0.1l-0.8-0.5l-0.6-0.6l-0.6-0.5l-0.9-0.1l-1.5,0.5l-0.8,0.4l-0.7,0.6l-1.2,1.6l-0.7,1.6l-0.3,1.9
		l0,2.3l0.3,3.3l-0.2,0.8l-0.7,0.4l-2.9,0.2l-1.7,1.2l0,1.3l1.9,3.2h0l1,3.5l0.5,1.1l1.2,2.2l0.5,1.2l0.3,1.4l-0.4,3.1l-1.5,0.3
		l-1.8-0.7l-1.3,0.2l0.2,1.8l3.5,3.1v1.5l-1.8,0.8l-2.4-0.1l-4.3-1.3l-3.2-1.6l-1.1-0.2l-7.8,1.2l-0.9,0.4l-1.7,1l-1.1,0.1l-2.8-0.5
		l-1.1,0.1l-4.6,1.2l-1,0.7l1.2,1.4l2.1,1.3l1.7,0.6l11.6-2.3l2.2,1.6l0.3,0.9l0.2,0.9l-0.1,0.9l-0.4,0.8l-1.1,0.2l-3.5-0.5l-1,0.3
		l-1.7,1.5l-0.6,0.2l-1.1-2l-0.7-0.6l-0.6,1.1l0.1,0.6l0.9,0.7l0.2,0.5l-0.1,1.3l0.1,0.6l0.2,0.6l4.2,5.8l0.2,1.4l-2,0.9l-1.1-1.7
		l-0.7-2.7l-1-2.1l-1-0.7l-0.3,0.5l0.2,1.2l0.5,1.3l1.1,2.3l0,0.9l-0.6,1.2l-0.2,0.1l-0.5,0.1L300,238l-0.3,0.9l0,0.1l0,0.3
		l-0.1,0.6l-0.3,0.4l-0.6-0.3l-1.3-2.1l-0.8-0.6l-1.6,1.4l-0.6-0.3l-0.6,0l-0.5,1.3l-0.5,10l-0.3,1.5l-0.6,1.2l-1.1,1.2l-2,1.3
		l-0.6,0.9l0.5,1.2l-0.9,0.4l-2.9,0.8l-2.4,0.2l-2.3-0.2l-3.9-1.4l-7.1-0.2l-16.3-4.2l-2.2,0l-1.8,0.6l-4.4,3.2l-3.8,0.6l-0.9,0.9
		l0.3,2.7l-0.2,0.2l-0.2,0.2l-0.2,0.1l-0.2,0l-1.2-0.2l-0.7,0.1l-0.4,0.6l-0.6,2.4l-0.3,2.5l0,2.3l-0.6,2.1l-0.4,2l-0.3,0.1
		l-0.4-0.1l-0.5,0.2l-0.5,0.4l-0.2,0.3l-0.1,0.4l-0.1,0.9l0.4,2.4l1.3,1.2l5.8,2.1l3.9,0.1l1.9,0.8l0.2,0.2l0.4,0.7l0.3,0.3l0.3,0.1
		l0.8-0.2l0.3,0.1l0.4,0.7l0.1,0.8L248,289l0.2,1.5l0.9,0.9l6.1,1l1.3,0l3.6-1.2h0v0h0l0.6-0.3l0.7-0.2h0.7l0.8,0.3l0.4,0.2l0.7,0.7
		l0.8,0.2l0.8-0.3l0.8-0.6l0.4-0.1l0.4,0l0.4,0l0.4,0.1h0l0,0h0l0.7,0.9l1.6,3.6l1.4,2l0.5,1.2l-0.1,1.3l-0.4,1l-0.6,0.8l-0.7,0.6
		l-0.8,0.5l-1.1,0.2l-0.8,0l-0.5,0.3l-0.2,1.3l0.2,0.6l0.3,0.5l0.2,0.6l0,0.7l-0.2,0.4l-1.2,0.9l-0.4,0.9l0.1,1.1l0.6,2.3l0.1,1.2
		l-0.2,3.5l0.1,1.3l0.4,0.8l1.2,1.8l0.3,0.9l0.1,1.9l0.2,0.9l0.5,0.8l1.9,1.8l1.8,3.2l0.8,0.8l2.5,1.4l3.8,3.4l1.2,1.8l0.2,2.4
		l-0.8,3.5l-1.2,3.4l-1.9,2.8l-0.6,1.2h0l-0.4,1l-0.2,0.9l-0.4,0.8l-0.7,0.5l-0.7,0.2l-2.2,0.3l-1.5,0.5l-0.8,0.9l-2,6.1l-1.4,2.8
		l-3.5,4.8l-2.6,2.5l-2.5,3.1l-2,3.5l-1.3,3.7l-0.2,2.5l0.9,4.7l0.2,2.5l-0.2,2.2l-0.5,2l-0.9,1.8l-0.2,0.9l-0.4,3.8l0.1,0.9
		l0.6,0.8l1.1,0.8l1.2,0.6l2.2,0.5l0.7,0.7l0.5,1.1l0.8,1.2l0.5,0.5l1.1,0.6l0.4,0.4l1.6,2l0.3,0.5l0.2,0.5l0.2,0.5l0.4,0.3l0.6,0
		l0.6-0.3l0.5-0.3l3.2-2.7l0.6-0.4l0.9-0.4l0.8-0.8l0.9-0.7l1.2-0.2l2,0.6h1.1l0.5-0.9l-0.3-2.5l0-1.2l0.4-1l0.9-0.6l0.9,0.1
		l0.9,0.4l0.9,0.2l1.2-0.1l0.9-0.5l0.3-0.9l-0.7-1.4l3-0.2l2.3-0.5l0.5,0l0.4-0.3l0.7-1.1l0.2-0.3l1-0.1l1.8-0.5l0.9-0.1l0.2-0.4
		l0.3-1l0.6-0.9l1.1-0.2l-0.3-0.7l-0.1-0.3l-0.2-0.2l0.5-0.6l0.9,0l1.9,0.3l1-0.1l0.6,0.1l0.6,0.3l1.8,1.1l0.6,0.1l0.2-0.6l-0.1-1.3
		l-0.6-1.8l0.2-0.7l1.1-0.4l1,0.3l0.5,0.8l0.4,0.9l0.6,0.9l0.7,0.3l0.5-0.1l0.3-0.5l-0.2-0.8l-0.2-0.3l-0.8-0.6l-0.3-0.4l-0.2-0.7
		l0.1-0.2l0.3,0.1l0.2,0.1l3.3,0.4l0.9,0.5l1,0.9l0.7,1l0.7,2.2l1,0.9l1.1,0.7l0.9,0.7l0.8,2.1l0.4,0.5l1.1,0.7l0.3,0.1l4.5,3l1-0.1
		l0.9-0.5l1.3-0.3l0.6-0.2l0.5-0.5l0.8-0.9l1.9-1.2l0.8-0.8l1.6-2.8l0.1-0.8l-0.9-0.2l-0.8-0.4l0.4-1.3l-0.4-0.5l-0.3-2l-0.4-0.9
		l-0.2-0.4L330,391l-0.1-0.5l0-0.6l0.1-0.2l0.1-0.1l0.1-0.1l0-0.3l-0.1-0.3l-0.4-0.1l-0.1-0.2l0-2.3l0.1-1.1l0.3-1l0.2-0.3l0.7-0.5
		l0.4-0.3l0.2-0.3l0.3-0.7l0.2-0.3l2.1-1.6l1-1l0.8-2.5l1-0.4l6.5,0.6l1.1-0.2l2-0.9l1.2-0.1l0.4,0.1l1.1,0.3l0.3,0.3l0.5,0.3
		l0.5-0.3l0.5-0.4l0.5-0.2l1-0.3l2-1l1.1,0.1l0.8,0.7l0.4,1l0.5,0.9l1,0.4l0.6,0.1l0.2,0.3l0.2,0.4l0.4,0.4l0.4,0.2l1.5,0.3
		l-0.3-0.5l1.3,0.2l1.4,0.5l1.4,0.3l1.4-0.5l1.7-2.1l0.3-0.2l0.1-0.5l0.7-1.7l0.1,0l0.9,0l0.2,0.1l0.3-0.3l0.1-0.1l0.3-0.5l0.1-0.4
		l-0.1-0.6l0-0.5l0.2-0.2l0.2-0.1l0.6-0.9l0.1-0.8l0.2-0.5l0.1-0.5l-0.1-0.9l-0.5-1.8l-0.1-0.8l0.3-0.7l-0.5-0.4l-0.4-0.6l-0.3-0.8
		l-0.1-0.9l-0.3-0.5l-1.6-0.5l-0.5-0.3l-0.8-1.2l-0.7-1.8l-0.2-1.9l0.6-1.5l1,0.8l1.1,0.2l1.1-0.2l1.1-0.4l-0.4-0.5l-0.2-0.5l0-0.5
		l0.2-0.5l0.3-0.2l0.6-0.1l0.5-0.2l0.2-0.5l0.2-0.3l1.2-0.6l0.4-0.3l2.1-2.8l2.1-2.2l0.5-0.4l1.6-0.7l0.5-0.5l0.6-1l1.2-3.4l1.4-2.7
		l0.4-1.5l0.6-0.3l0.7-0.2l0.5-0.3l0.6-2.1l0-0.5l-0.1-0.6l0-0.6l0.2-0.6l0.4-0.2l1.1,0.1l0.4-0.3l1.7-1.3l0.4-0.7l-0.9-0.7V327
		l0.9-0.6l2.8-0.3l0.6-1l0.3-0.4l0.8-0.2h1.5l0.4,0.1l0.8,0.2l0.4,0l0.3-0.2l0.2-0.3l0.3-0.3l0.6-0.1l2,0.9l1.1,0.3l0.5-0.6
		l-0.2-1.4l0.3-0.4l1.1,0l0.6,0.1l0.5,0.3l0.5,0.5l0.5,0.5l0.3,0.5l0.4,1.1l0.3,0.5l0.5,0.4l0.4,0l0.4-0.2l0.6,0l0.6,0.1l1.3,0.7
		l1.8,1.4l2.9,3l3.9,1.6l1.6,1.1l1.1,1.8l0.3,2.7l-0.3,1.4l-0.9,2.6l-0.3,1.8l-0.9,1.7l-0.6,2.5l-1.4,2.7l-0.3,1.6l-0.5,1.3
		l-0.1,0.6l0.2,0.8l0.3,0.1l0.4-0.1l0.5,0.1l1.8,1.5l1,0.4l0.9-0.5l0.9-0.7l5.8-2l1.7,0.1l1.4,1l1.4,1.8l-0.4,0.4l0.2,0.7l0.1,1.3
		l0,1.4l-0.2,1.1l-0.7,1.1l-1.8,1.1l-0.4,1.1l0.1,0.6l0.4,1.3l0.1,0.7l-0.1,0.6l-0.5,1.9l-0.2,1.8l-0.1,0.6l-0.2,0.5l-0.6,0.8
		l-0.2,0.3l-0.2,2.6l0.7,4.8l-0.5,2.4l-0.5,1.3l-0.1,0.8l0.4,2.3l0.1,2.5l-0.1,1.2l-0.3,0.7l0,1.7l-1.8,3l0.2,1.4l-0.3,0.5l-0.3,0.9
		l-0.4,2.4l-0.1,3.6l0.1,0.7l0.3,0.6l0.8,1.3l0.2,0.7v2.4l0.1,1.3l0.4,1.1l2.7,4.4l0.5,1.2l0.3,2.7l0.4,1.2l0.5,1.1l0.6,1l1.6,1.7
		l2,1.1l2.2,0.5h2.3l2.3-0.4l1.9-0.8l13.8-10.3l1.2-1.4l1.6-0.9l0.4-0.5l0.7-1l0.5-0.5l1.9-1.3l4.8-2l2.1-0.5l3.3,0.6l1.6-0.8l7.1-1
		l0.4-0.6l0.3-1.2l2-3.1l2.2-4.6l1.4-1.9l1.9-1.2l2.2-0.4l1.2-0.4l1.1-1.3l3.4-2.1l3.4-0.3l1-0.7l0.5-0.8l0.8-1.7l0.7-0.9l1.8-1.4
		l0.4-0.1l1,0.4l0.5-0.3l2.3-2.5l0.8-0.6l1-0.3l1.2-0.1l1.1,0.1l0.8,0.5l0.8,0.3l3-1.6l2.1-0.1l5.7,2.1l3.3,0.9l2.1,0l1.7,0.2
		l-0.3,1.5l-0.1,0.5l0,2.5l-0.3,0.9l-0.8,0.9l-0.8,0.7l-0.7,0.3l-1.8,0.2l-1,0.4l-1,0.9l-0.6,1.2l0.2,1.2l0.8,0.5l2-0.6l1,0.1
		l0.4,0.3l0.7,0.9l0.3,0.2l0.5,0l0.8-0.6l0.5-0.2l1.1,0.1l0.7,0.2l0.7-0.2l1.8-1.7l1-0.3l2-0.3l2.7-1.3l1-0.2l3.6-1.3l5.3-1.1
		l1.2-0.5l0.9-1l0.1-2l0.8-0.8l1.3,0l1.4,0.4l1.2-0.2l0.6-1.6l0.3,0.8l0.6-0.4l0.5,0l0.5,0.3l0.7,1.2l0.5,0.2l0.5,0l1.4,0.3l0.8-0.2
		l0.9-0.1l1,0.4l1.7,0.5l0.4,0.1h0.4l4.8-0.3l1.4-0.8l6.1,3.7l1.3,1.5l2.2,3.7l1.2,0.7h0l1.2-0.3l0.5-1l0.4-1l0.9-0.5l1.1-0.2
		l4.4-1.7l0.4-0.7l0.1-2.2l0.6-1l1.1-0.5l2.3-0.8L604.2,386.4z M386.1,167l0.8,0.8l1.4,1.9l0.8,0.8l1,0.2l-0.1-1.1l-0.6-1.5
		l-0.7-1.1l-1.1-1l-1.3-0.6l-0.8,0.2L386.1,167L386.1,167z M390.5,238.5l-1.7-0.1l-5.8-1.9l-0.7,0l-0.1,1l0.4,1l0.6,0.9l1.6,1.1
		l0.5,0.6l1.4,2.3l0.3,0.2l2.4-2l1.4-0.7l1.6-0.3l0.5-0.5l0.1-1.1l-0.4-1.1l-0.6-0.1L390.5,238.5z"/>
</g>

</svg>
