<?xml version="1.0" encoding="utf-8"?>

<svg version="1.2" baseProfile="tiny" xmlns="http://www.w3.org/2000/svg" xmlns:xlink="http://www.w3.org/1999/xlink" x="0px"
	 y="0px" viewBox="338.7 122.2 162.6 349.5" xml:space="preserve">

<g id="Tunisia">
	<g>
		<polygon fill="#E70013" points="471,143.4 471,143.4 471.1,143.4 471.5,143.4 471.8,143.4 471.4,142.8 471.2,142.5 471.1,142.3
			470.9,142.4 470.8,142.6 470.6,142.7 470.5,142.9 470.7,143.4 		"/>
		<path fill="#E70013" d="M372.7,222.7C386.4,214,402.6,209,420,209c24.9,0,47.5,10.4,63.5,27.1l0.3-0.3l1-0.1v-0.3l-0.6-0.1
			l-0.5-0.3l-0.8-0.6l-2.2-2.1l-0.8-1.4l-0.3-1.8l0.1-0.9l0.4-1.6l0.2-1.7l0.6-1.7l0.4-0.8l-0.8-0.2l-0.6-0.8l-0.4-1l-0.1-1.2
			l0.2-1.1l0.3-1l0.1-0.9l-0.6-0.8l-1.6-0.7l-3.6-0.6l-1.6-0.8l-0.5-0.7l-0.5-1.2l-0.2-1.2l0.5-0.5l0.1-0.1l-0.2-0.2l-0.4-0.2
			L471,209l-2.8,0.5l-0.8-0.1l-0.8-0.4l-2.8-2.7l-0.5-0.6l-1-3.2l-0.5-0.4l-0.5-0.3l-0.6-0.7l-0.9-1.3l-0.2-0.5l-0.2-1.1l-0.2-0.5
			l-0.2-0.3l-0.8-0.8l-0.5-0.9l-0.3-1.1l-0.2-4.5l0.2-2.2l0.4-2.1l0.6-1.9l0.7-1.8l0.9-1.4l1.2-1.1l5.9-3l3.4-1l1-1.1l2-5.3l3.1-4.9
			l1-2.4l0.5-0.8l2.3-2.6l2.4-1.6l0.3-0.6l0.2-0.1l0.3-0.5l0.2-0.6l-0.2-0.3l-0.2-0.1l-0.3-0.4l-0.3-0.5l-0.2-0.4l-0.1-0.5l-0.1-1.1
			l-0.1-0.5l-0.3-0.5l-0.7-1l-0.1-0.3l-0.1-0.4l-0.4-0.7l-0.1-0.6l0.1-0.5l0.4-0.6l0.1-0.4l-0.4-0.9l-0.7-0.4l-0.8,0.1l-1.5,1.2
			l-2,0.2l-0.9,0.4l-0.4,0.5l0.1,0.3l0.2,0.3l-0.1,0.6l-0.3,0.4l-2.3,1.9l-0.1,0.2l-0.1,0.5l-0.4,0.2l-0.4,0.1l-0.4,0.1l-2.6,2.3
			l-1.4,0.8l-1.7,0.3l-1.8-0.1l-0.8,0.2l-0.7,0.6l-0.8,1.7l-0.4,1.1l-0.2,0.7l-0.6,1.1l-1.5,1l-1.7,0.8l-1.3,0.3l-1.9-0.2l-1.4-0.9
			l-1.1-1.4l-0.9-1.9l-0.6,1.1l-0.4,0.4l-0.5-0.3l-1.2,0l-0.6-0.2l0.2-0.8l0.7-0.9l0.4-0.3l1.3-0.4l0.7-0.1l0.4,0.2l-0.3,0.8
			l0.5,0.5l0.5-0.1l0.4-0.4l0.4-1l0.9-0.9l0.2-0.6l-1.3-1.9l-0.4-0.3l-1.5-0.7l-1.8-1.9l-1.5-2.5l-0.3-2.4l1.7-1.7l0.3,0.7l0.2-0.6
			l-0.1-0.5l-0.6-1l-0.8,0.2l-1.2-0.1l-1-0.4l-0.3-0.8l0.7-0.6l1.3-0.3l1.1,0.1l0.2,0.8l0.6-0.4l0.6-0.3l1.3-0.3l-0.8-0.6l-3-1.1
			l-1.3-1.2l-2.8-0.4l-0.6-1l-0.3-0.1l-2.1,1l-0.7,0.1l-3.9-0.9l-0.6,0.1l-0.1,0.1l-0.2,0.3l-0.2,0.2l-0.4,0.1l-1,0.7v0.3h0.5
			l0.8-0.3l0.4-0.1l2.5,1l0,0.8l-0.4,0.9l-0.5,0.7l-0.9,0.7l-0.8,0.2l-1.8-0.2l-0.3-0.2l-0.3-0.7l-0.2-0.1l-0.2-0.3l-0.6-1.3
			l-0.1-0.4l0.8-1.2l1.5-0.6l1.2-1l0-2.2l-0.1-0.5l0-0.1l-3.4-0.1l-0.4-0.2l-0.3-0.3l-0.4-0.3l-0.5,0.1l-0.9,0.4l-1.8,0l-0.7,0.2
			l-0.8,0.4l-1.5,1l-0.7,0.1l-0.8-0.5l-0.6,0.6l-0.8,0.6l-0.9,0.4l-1.2,0.3l-0.4,0.2l-0.4,0.1l-0.4-0.2l-0.5-0.2l-0.6,0.4l-1,1
			l-1.5,0.6l-5.2,0.1l-0.7,0.4l-0.8,1.3l-0.5,0.3l-4.4,1.8l-0.4,0.3l-1.1,1.2l-0.4,0.2l-0.5,0.4l-1.2,2.3l-1.2,1.5l-0.9,0.8
			l-1.5,0.7l-1.6,1.4l-0.9,0.3H388l-1,0.2c-1.2,0.5-2.4,1-3.6,1.5l0.1,1.3l0,0.6l0.1,0.5l1.4,2.1l0,0.6l-0.7,0.5l-2.8,1.1l-1.4,0.3
			l-1.5-0.1l-1.5,0.2l-1.2,0.6l-0.3,0.8l1.4,0.7l0.8,1l-0.3,1.8l-0.9,1.7l-0.9,1l-4.8,2.9l-2.6,1l-1.1,0.7l-0.9,1.2l-0.1,1.7
			l1.6,0.7l3.5,0.4l0.8,0.4l0.8,0.2l0.6,0.4l0.3,0.9l0.1,0.9l-0.1,2l-0.1,0.9l-1.9,5.3l-0.2,2l0.2,1l0.3,0.9l0.1,0.9l-0.4,0.9
			l-0.4,0.8l-0.8,3.6l-0.1,2.7l-1,3.6L369,207l0.2,2.1l0.5,1.7l1.9,3.2l0.7,1.6l0.5,5.6l0,1.4L372.7,222.7z"/>
		<polygon fill="#E70013" points="397.2,122.3 397.1,122.2 396.8,122.6 396.2,122.8 395.7,123.1 395.3,123.5 395.9,123.7
			396.3,123.5 396.7,123.3 397.2,123.5 397.6,123.4 397.5,122.8 397.4,122.6 397.4,122.4 		"/>
		<path fill="#E70013" d="M420,385c-8.6,0-16.9-1.2-24.8-3.5c1.6,1.1,3.2,2.3,4.8,3.4l0.6,0.7l0.4,0.9c1.8,8.4,3.7,16.8,5.5,25.2
			c1.9,8.5,3.8,17.1,5.7,25.6c1.9,8.7,3.9,17.4,5.8,26.1c0.6,2.8,1.3,5.6,1.9,8.4l8.9-4.7l1.2-0.3l2.9-0.2l1-0.6l4.9-6.4l4.2-6.8
			l3.6-4.1l2.5-5.1l0.6-1.9l0-1.5l-1-3.2l-0.2-1.6l0.2-1.8l-0.1-0.9l-1.3-2.6l-1.2-4.9l-3-7.9l-0.1-0.8l0.4-3l0.6-1.1l2.5-2.8
			l2.7-4.8l2-1.6l4.5,0.1l2.2-0.9l0.6-0.5l0.6-0.6l0.5-0.7l0.7-1.6l1.7-1.5l0.5-1.6l0.3-3.7l0.9-1l0.8,0.1l0.7,0.4l0.7,0.3l0.8-0.3
			l1.3-1.1l1.4-0.9l1.3-1.3l1.6-3.7l1.1-1.2l22.7-10.8l2.8-1.9l1.3-1.2l0.7-1.4l-0.1-2l-0.9-1.7l-2.7-2.6l-0.8-1.8l0-2.6l0.6-4.9
			l-0.3-4.9l0.7-3.2l0-2.6l0.1-0.7l1.1-4.5l0-0.5C484.6,365,454.6,385,420,385z"/>
		<polygon fill="#FFFFFF" points="489.8,257.3 489.9,257 490.8,256.9 490.4,256.4 489.6,256.1 488.6,255.7 488.4,255.7 487.2,257
			487.3,257.8 487.2,258.3 487,258.8 486.4,259.2 486.1,259.2 485.9,259.1 485.7,258.9 485.5,258.9 485.3,259 484.8,260.2
			484,261.2 483.6,261.9 483.4,262.7 483.7,263.1 484.4,262.7 485.5,261.8 490,259.5 490.2,259 490,258.7 489.7,258.5 489.4,258.2
			489.5,257.6 		"/>
		<path fill="#FFFFFF" d="M420,209c-17.4,0-33.6,5-47.3,13.8l-1.4,3.3l-0.4,1.7l-0.1,1.8l0.3,2l0.9,1.7l1.5,0.7l1.7,0.5l1.4,1.1
			l-0.4,0.9l-2.4,3.7l-1.9,2.1l-0.5,1.7l-0.7,3.5l-0.9,2.6l-0.4,1.9l0.1,1.8l0.1,0.7c12.1-14.4,30.2-23.5,50.5-23.5
			c21.3,0,40.3,10.1,52.4,25.8h0.3l0.3-0.1l0.1-0.6l0.1-0.6l0.2-0.3l0.3-0.2l0.3-0.4l1.1-1.9l0.5-1.2l-0.2-0.5l-0.2-0.5l0.4-1.1
			l1-1.7l1.4-1.3l0.9-1.3l0.5-1.6l0.2-2.3l0.3-0.9l0.7-0.8l1.6-1.3l0.9-1.7l0.3-0.4C467.5,219.4,444.9,209,420,209z"/>
		<polygon fill="#FFFFFF" points="466.6,315.5 467.2,315.3 467.5,314.9 467.8,310.1 467.6,309.3 466.8,308.8 462.8,310.8
			466.4,315.8 		"/>
		<polygon fill="#FFFFFF" points="482.7,263.7 482.9,263.2 478.3,263.1 477.7,263.3 477.4,263.8 477.8,264.3 479.5,265 479.9,265.3
			480.3,265.2 482.6,263.8 		"/>
		<polygon fill="#FFFFFF" points="476.9,309.8 477.1,309.8 477.5,308.2 477.7,307.8 478,307.6 478.6,307.3 481.3,304.9 480.8,304.2
			480.1,303.7 479.3,303.4 478.5,302.9 477.3,301.7 476.1,300.3 474.8,301.1 473.1,301 469.8,300.3 468.3,300.8 467.9,302.1
			467.9,305.8 467.6,307.6 467.7,308.5 468.2,309.1 468.8,309.2 469.5,308.9 470.6,308.1 471.3,308 471.9,308.2 472.6,308.8
			473.1,309.8 473.1,310.3 473.1,311.1 473.2,311.9 473.6,312.4 473.7,311.6 474,311 475.9,308.9 476.5,308.3 477.1,308.1
			477,308.5 		"/>
		<path fill="#FFFFFF" d="M384.8,297c0,29.2,23.6,52.8,52.8,52.8c13.8,0,26.4-5.3,35.8-14c-12,16.5-31.4,27.2-53.4,27.2
			c-36.5,0-66-29.6-66-66c0-8.9,1.8-17.3,4.9-25l-1.2,0.9l-3.5,1.5l-1.6,1.1l-0.8,1.7l-1.5,5.7l-0.4,0.8l-0.5,0.6l-0.8,0.4l-2.5,0.4
			l-1.5,0.8l-1.1,1.1l-1,1.3l-2.5,2.6l-0.5,1.3l-0.1,3.5l-0.8,4.8l0.2,1.8l0.5,2.6l0.3,0.8l1.1,2.2l0.4,2.5l0.3,1.2
			c1.9,3.2,3.7,6.5,5.6,9.7l0.6,1.9l0.1,6.5l0.6,2.2l1,1.1l1.5,0.4l1.9,0.2l1.5,0.5l4.4,3.2l0.8,0.4l0.8,0.3l0.8,0l0.8-0.2l0.9,0.6
			c2.6,4.1,5.2,8.1,7.8,12.2l0.5,1.5c0.3,3.8,0.6,7.7,0.9,11.5l0.5,1.5l1.1,1.2l4.9,3.1c5.5,4,11.1,8,16.6,12
			c7.9,2.3,16.2,3.5,24.8,3.5c34.6,0,64.6-20,79-49.1l0-1.6l-0.3-0.1l-2.2-1l-3.6-2.6l0.6,0.6l0.6,0.7l0.5,0.3l0.7,0.2l0.7,0.6
			l0.2,0.6l-0.7,0.5h-1.8l-3.3-1.2l-1.7-0.4l-1.7,0.3H486l-0.4-0.5l-0.3-1l-0.6-0.7l-0.6-0.5l-0.4-0.6l0.5-1.5l1.9,0.2l3.9,1.3
			l0.2,0l0.1,0l0.3-0.2l-1-0.3l-2-1l-1-0.2l-0.9-0.5l-0.8-1l-0.8-0.8l-0.9,0.2l0-6.9l0.2-1.2l-0.1-0.5l-1.4-2.1l-0.5-0.7l-0.7-0.5
			l-1.7-0.8l-0.6-0.4H478l-0.3,0.5l-0.4,0.2l-0.5-0.1l-0.5-0.3l-1.2,0.9l0.1,0.4l0.7,0.8l0.3,0.8l-0.3,0.9l-0.6,0.7l-0.7,0.3
			l-1.4,0.4l-3,1.8l-0.7,0.1l0.2,0.3l-0.6-0.2l-0.6,0.1l-0.8-0.3l-0.4-0.5l-24.9-8.1l-16.9,23.3v-28.8L398,297l27.4-8.9v-28.8
			l16.7,22.9l0.4-0.7l0.9-1.2l0.8-0.6l1.6-0.6l0.8-0.6l1.9-0.8l0.5-0.1l0.4-0.3l0.8-1.1l0.2-0.3l0.2-0.2l0.5-0.2l0.4,0l0.4,0.2
			l0.4,0l0.5-0.4l3.5-3.6l1.3-0.7l3.6-1.2l0.4-0.2l0.3-0.3l0.2-0.3l0.1-0.5l0-0.5l0.1-0.5l0.8-0.4l0.3-0.5l0.2-0.6l0.1-0.5l0.1-0.3
			l0.4-0.2l2.7-0.9l0.6-0.4l0.7-0.8l0.4-0.9l0.3-1.9l0.3-0.7l0.6-0.5l1.3-0.9l0.7-0.7l0.1-0.1c-9.2-7.9-21.3-12.8-34.4-12.8
			C408.4,244.2,384.8,267.8,384.8,297z"/>
		<path fill="#E70013" d="M420,231c-20.3,0-38.4,9.1-50.5,23.5l0.6,4.1l-0.1,0.6l-0.4,0.5l-1.3,1.4l-0.5,0.7l-0.1,0.8l1,1.6
			l-0.3,0.5l-1.4,0.9l-0.3,0.4l-0.3,0.8l-0.2,0.3l-0.3,0.3l-0.9,0.6l-2,1.8l-3.8,1.7l-0.5,0.3c-3.2,7.7-4.9,16.2-4.9,25
			c0,36.5,29.6,66,66,66c21.9,0,41.4-10.7,53.4-27.2c-9.4,8.7-22,14-35.8,14c-29.2,0-52.8-23.6-52.8-52.8
			c0-29.2,23.6-52.8,52.8-52.8c13.1,0,25.2,4.8,34.4,12.8l0.2-0.1h0.1C460.3,241.1,441.3,231,420,231z"/>
		<polygon fill="#E70013" points="425.4,288.1 398,297 425.4,305.9 425.4,334.7 442.3,311.4 467.2,319.5 467.1,319.4 466.1,317.7
			465.9,317 466.1,316.2 466.4,315.8 462.8,310.8 460.3,312 458.5,312.2 456.8,311.8 453.7,310.4 452.2,309.5 446.5,303.8
			445.9,303.5 445.5,303.2 441.9,297.9 441,296.1 440.6,294.6 440.5,293.7 439.9,291.8 439.8,291 439.8,289 439.6,288 439.3,287.2
			439.5,287.1 439.8,286.7 440.1,286.5 440.3,285.4 442,282.3 425.4,259.3 		"/>
		<polygon fill="#E70013" points="469.4,320 469,320.1 469.6,320.3 		"/>
	</g>

		<path fill="none" stroke="#999999" stroke-width="0.25" stroke-linecap="round" stroke-linejoin="round" stroke-miterlimit="10" d="
		M396.3,123.5l0.4-0.2l0.5,0.2l0.4-0.1l0-0.6l-0.2-0.2v-0.2l-0.1-0.1l-0.2-0.1l-0.3,0.3l-0.6,0.2l-0.5,0.3l-0.4,0.4l0.6,0.3
		L396.3,123.5 M471,143.4L471,143.4h0.1l0.4,0h0.3l-0.4-0.6l-0.2-0.3l-0.1-0.2l-0.2,0.1l-0.1,0.2l-0.2,0.1l-0.1,0.2l0.2,0.5
		L471,143.4 M482.7,263.7l0.2-0.5l-4.5-0.1l-0.7,0.2l-0.3,0.5l0.4,0.5l1.7,0.7l0.4,0.3l0.4-0.1l2.3-1.4L482.7,263.7 M476.9,309.8
		h0.2l0.4-1.5l0.2-0.4l0.3-0.2l0.7-0.3l2.6-2.4l-0.5-0.7l-0.7-0.4l-0.8-0.4l-0.8-0.5l-1.3-1.2l-1.2-1.5l-1.3,0.8l-1.7-0.1l-3.2-0.7
		l-1.5,0.6l-0.5,1.3l0,3.7l-0.3,1.7l0.1,0.9l0.5,0.6l0.7,0.1l0.6-0.3l1.1-0.8l0.6-0.1l0.7,0.2l0.6,0.5l0.5,1l0,0.6l0,0.8l0.1,0.8
		l0.4,0.5l0.1-0.7l0.3-0.6l1.9-2.2l0.6-0.6l0.6-0.2l-0.1,0.4L476.9,309.8 M484,261.2l-0.4,0.7l-0.2,0.8l0.3,0.4l0.7-0.4l1-0.9
		l4.5-2.3l0.2-0.5l-0.2-0.3l-0.4-0.2l-0.2-0.3l0.1-0.5l0.2-0.3l0.2-0.3l0.9-0.1l-0.4-0.5l-0.7-0.4l-1-0.3l-0.2,0l-1.2,1.4l0,0.7
		l-0.1,0.5l-0.2,0.4l-0.5,0.4l-0.3,0.1l-0.2-0.1l-0.2-0.2l-0.3-0.1l-0.2,0.2l-0.5,1.1L484,261.2 M501.2,366l-0.9-1.7l-2.7-2.6
		l-0.8-1.8l0-2.6l0.6-4.9l-0.3-4.9l0.7-3.2l0-2.6l0.1-0.7l1.1-4.5l0-2.1l-0.3-0.1l-2.2-1l-3.6-2.6l0.6,0.6l0.6,0.7l0.5,0.3l0.7,0.2
		l0.7,0.6l0.2,0.6l-0.7,0.5h-1.8l-3.3-1.2l-1.7-0.4l-1.7,0.3H486l-0.4-0.5l-0.3-1l-0.6-0.7l-0.6-0.5l-0.4-0.6l0.5-1.5l1.9,0.2
		l3.9,1.3l0.2,0l0.1,0l0.3-0.2l-1-0.3l-2-1l-1-0.2l-0.9-0.5l-0.8-1l-0.8-0.8l-0.9,0.2l0-6.9l0.2-1.2l-0.1-0.5l-1.4-2.1l-0.5-0.7
		l-0.7-0.5l-1.7-0.8l-0.6-0.4H478l-0.3,0.5l-0.4,0.2l-0.5-0.1l-0.5-0.3l-1.2,0.9l0.1,0.4l0.7,0.8l0.3,0.8l-0.3,0.9l-0.6,0.7
		l-0.7,0.3l-1.4,0.4l-3,1.8l-1.7,0.4l-0.8-0.3l-0.5-0.6l-0.9-1.6l-0.2-0.8l0.2-0.8l0.5-0.6l0.6-0.3l0.2-0.4l0.4-4.8l-0.2-0.7
		l-0.8-0.5l-6.5,3.2l-1.7,0.1l-1.7-0.4l-3.1-1.4l-1.5-0.9l-5.7-5.7l-0.6-0.3l-0.4-0.4l-3.7-5.2l-0.9-1.8l-0.4-1.6l-0.1-0.9l-0.6-1.9
		l-0.1-0.9l0-2l-0.1-0.9l-0.4-0.8l0.2-0.1l0.3-0.4l0.3-0.2l0.2-1.1l2.2-3.9l0.9-1.2l0.8-0.6l1.6-0.6l0.8-0.6l1.9-0.8l0.5-0.1
		l0.4-0.3l0.8-1.1l0.2-0.3l0.2-0.2l0.5-0.2l0.4,0l0.4,0.2l0.4,0l0.5-0.4l3.5-3.6l1.3-0.7l3.6-1.2l0.4-0.2l0.3-0.3l0.2-0.3l0.1-0.5
		l0-0.5l0.1-0.5l0.8-0.4l0.3-0.5l0.2-0.6l0.1-0.5l0.1-0.3l0.4-0.2l2.7-0.9l0.6-0.4l0.7-0.8l0.4-0.9l0.3-1.9l0.3-0.7l0.6-0.5l1.3-0.9
		l0.7-0.7l0.4-0.2h0.4l0.3-0.1l0.1-0.6l0.1-0.6l0.2-0.3l0.3-0.2l0.3-0.4l1.1-1.9l0.5-1.2l-0.2-0.5l-0.2-0.5l0.4-1.1l1-1.7l1.4-1.3
		l0.9-1.3l0.5-1.6l0.2-2.3l0.3-0.9l0.7-0.8l1.6-1.3l0.9-1.7l0.6-0.7l1-0.1v-0.3l-0.6-0.1l-0.5-0.3l-0.8-0.6l-2.2-2.1l-0.8-1.4
		l-0.3-1.8l0.1-0.9l0.4-1.6l0.2-1.7l0.6-1.7l0.4-0.8l-0.8-0.2l-0.6-0.8l-0.4-1l-0.1-1.2l0.2-1.1l0.3-1l0.1-0.9l-0.6-0.8l-1.6-0.7
		l-3.6-0.6l-1.6-0.8l-0.5-0.7l-0.5-1.2l-0.2-1.2l0.5-0.5l0.1-0.1l-0.2-0.2l-0.4-0.2L471,209l-2.8,0.5l-0.8-0.1l-0.8-0.4l-2.8-2.7
		l-0.5-0.6l-1-3.2l-0.5-0.4l-0.5-0.3l-0.6-0.7l-0.9-1.3l-0.2-0.5l-0.2-1.1l-0.2-0.5l-0.2-0.3l-0.8-0.8l-0.5-0.9l-0.3-1.1l-0.2-4.5
		l0.2-2.2l0.4-2.1l0.6-1.9l0.7-1.8l0.9-1.4l1.2-1.1l5.9-3l3.4-1l1-1.1l2-5.3l3.1-4.9l1-2.4l0.5-0.8l2.3-2.6l2.4-1.6l0.3-0.6l0.2-0.1
		l0.3-0.5l0.2-0.6l-0.2-0.3l-0.2-0.1l-0.3-0.4l-0.3-0.5l-0.2-0.4l-0.1-0.5l-0.1-1.1l-0.1-0.5l-0.3-0.5l-0.7-1l-0.1-0.3l-0.1-0.4
		l-0.4-0.7l-0.1-0.6l0.1-0.5l0.4-0.6l0.1-0.4l-0.4-0.9l-0.7-0.4l-0.8,0.1l-1.5,1.2l-2,0.2l-0.9,0.4l-0.4,0.5l0.1,0.3l0.2,0.3
		l-0.1,0.6l-0.3,0.4l-2.3,1.9l-0.1,0.2l-0.1,0.5l-0.4,0.2l-0.4,0.1l-0.4,0.1l-2.6,2.3l-1.4,0.8l-1.7,0.3l-1.8-0.1l-0.8,0.2l-0.7,0.6
		l-0.8,1.7l-0.4,1.1l-0.2,0.7l-0.6,1.1l-1.5,1l-1.7,0.8l-1.3,0.3l-1.9-0.2l-1.4-0.9l-1.1-1.4l-0.9-1.9l-0.6,1.1l-0.4,0.4l-0.5-0.3
		l-1.2,0l-0.6-0.2l0.2-0.8l0.7-0.9l0.4-0.3l1.3-0.4l0.7-0.1l0.4,0.2l-0.3,0.8l0.5,0.5l0.5-0.1l0.4-0.4l0.4-1l0.9-0.9l0.2-0.6
		l-1.3-1.9l-0.4-0.3l-1.5-0.7l-1.8-1.9l-1.5-2.5l-0.3-2.4l1.7-1.7l0.3,0.7l0.2-0.6l-0.1-0.5l-0.6-1l-0.8,0.2l-1.2-0.1l-1-0.4
		l-0.3-0.8l0.7-0.6l1.3-0.3l1.1,0.1l0.2,0.8l0.6-0.4l0.6-0.3l1.3-0.3l-0.8-0.6l-3-1.1l-1.3-1.2l-2.8-0.4l-0.6-1l-0.3-0.1l-2.1,1
		l-0.7,0.1l-3.9-0.9l-0.6,0.1l-0.1,0.1l-0.2,0.3l-0.2,0.2l-0.4,0.1l-1,0.7v0.3h0.5l0.8-0.3l0.4-0.1l2.5,1l0,0.8l-0.4,0.9l-0.5,0.7
		l-0.9,0.7l-0.8,0.2l-1.8-0.2l-0.3-0.2l-0.3-0.7l-0.2-0.1l-0.2-0.3l-0.6-1.3l-0.1-0.4l0.8-1.2l1.5-0.6l1.2-1l0-2.2l-0.1-0.5l0-0.1
		l-3.4-0.1l-0.4-0.2l-0.3-0.3l-0.4-0.3l-0.5,0.1l-0.9,0.4l-1.8,0l-0.7,0.2l-0.8,0.4l-1.5,1l-0.7,0.1l-0.8-0.5l-0.6,0.6l-0.8,0.6
		l-0.9,0.4l-1.2,0.3l-0.4,0.2l-0.4,0.1l-0.4-0.2l-0.5-0.2l-0.6,0.4l-1,1l-1.5,0.6l-5.2,0.1l-0.7,0.4l-0.8,1.3l-0.5,0.3l-4.4,1.8
		l-0.4,0.3l-1.1,1.2l-0.4,0.2l-0.5,0.4l-1.2,2.3l-1.2,1.5l-0.9,0.8l-1.5,0.7l-1.6,1.4l-0.9,0.3H388l-1,0.2c-1.2,0.5-2.4,1-3.6,1.5
		l0.1,1.3l0,0.6l0.1,0.5l1.4,2.1l0,0.6l-0.7,0.5l-2.8,1.1l-1.4,0.3l-1.5-0.1l-1.5,0.2l-1.2,0.6l-0.3,0.8l1.4,0.7l0.8,1l-0.3,1.8
		l-0.9,1.7l-0.9,1l-4.8,2.9l-2.6,1l-1.1,0.7l-0.9,1.2l-0.1,1.7l1.6,0.7l3.5,0.4l0.8,0.4l0.8,0.2l0.6,0.4l0.3,0.9l0.1,0.9l-0.1,2
		l-0.1,0.9l-1.9,5.3l-0.2,2l0.2,1l0.3,0.9l0.1,0.9l-0.4,0.9l-0.4,0.8l-0.8,3.6l-0.1,2.7l-1,3.6L369,207l0.2,2.1l0.5,1.7l1.9,3.2
		l0.7,1.6l0.5,5.6l0,1.4l-1.4,3.4l-0.4,1.7l-0.1,1.8l0.3,2l0.9,1.7l1.5,0.7l1.7,0.5l1.4,1.1l-0.4,0.9l-2.4,3.7l-1.9,2.1l-0.5,1.7
		l-0.7,3.5l-0.9,2.6l-0.4,1.9l0.1,1.8l0.7,4.9l-0.1,0.6l-0.4,0.5l-1.3,1.4l-0.5,0.7l-0.1,0.8l1,1.6l-0.3,0.5l-1.4,0.9l-0.3,0.4
		l-0.3,0.8l-0.2,0.3l-0.3,0.3l-0.9,0.6l-2,1.8l-3.8,1.7l-1.7,1.2l-3.5,1.5l-1.6,1.1l-0.8,1.7l-1.5,5.7l-0.4,0.8l-0.5,0.6l-0.8,0.4
		l-2.5,0.4l-1.5,0.8l-1.1,1.1l-1,1.3l-2.5,2.6l-0.5,1.3l-0.1,3.5l-0.8,4.8l0.2,1.8l0.5,2.6l0.3,0.8l1.1,2.2l0.4,2.5l0.3,1.2
		c1.9,3.2,3.7,6.5,5.6,9.7l0.6,1.9l0.1,6.5l0.6,2.2l1,1.1l1.5,0.4l1.9,0.2l1.5,0.5l4.4,3.2l0.8,0.4l0.8,0.3l0.8,0l0.8-0.2l0.9,0.6
		c2.6,4.1,5.2,8.1,7.8,12.2l0.5,1.5c0.3,3.8,0.6,7.7,0.9,11.5l0.5,1.5l1.1,1.2l4.9,3.1c7.1,5.2,14.3,10.3,21.4,15.5l0.6,0.7l0.4,0.9
		c1.8,8.4,3.7,16.8,5.5,25.2c1.9,8.5,3.8,17.1,5.7,25.6c1.9,8.7,3.9,17.4,5.8,26.1c0.6,2.8,1.3,5.6,1.9,8.4l8.9-4.7l1.2-0.3l2.9-0.2
		l1-0.6l4.9-6.4l4.2-6.8l3.6-4.1l2.5-5.1l0.6-1.9l0-1.5l-1-3.2l-0.2-1.6l0.2-1.8l-0.1-0.9l-1.3-2.6l-1.2-4.9l-3-7.9l-0.1-0.8l0.4-3
		l0.6-1.1l2.5-2.8l2.7-4.8l2-1.6l4.5,0.1l2.2-0.9l0.6-0.5l0.6-0.6l0.5-0.7l0.7-1.6l1.7-1.5l0.5-1.6l0.3-3.7l0.9-1l0.8,0.1l0.7,0.4
		l0.7,0.3l0.8-0.3l1.3-1.1l1.4-0.9l1.3-1.3l1.6-3.7l1.1-1.2l22.7-10.8l2.8-1.9l1.3-1.2l0.7-1.4L501.2,366"/>
</g>

</svg>
