<?xml version="1.0" encoding="utf-8"?>

<svg version="1.2" baseProfile="tiny" xmlns="http://www.w3.org/2000/svg" xmlns:xlink="http://www.w3.org/1999/xlink" x="0px"
	 y="0px" viewBox="298 147 244 300" xml:space="preserve">

<g id="Tonga">
	<g>
		<polygon fill="#C10000" points="510.7,147.8 510.1,147 509.2,147.9 509.1,149 509.7,149.8 510.5,149.5 		"/>
		<polygon fill="#C10000" points="431.9,190.5 430.3,189.1 429.1,189.4 430.6,190.8 		"/>
		<polygon fill="#C10000" points="444.8,194.8 447.4,193.1 448.2,192.2 448.4,191.1 447.7,190.2 445.3,190.2 445.1,190.5
			445.7,191.4 446.8,192.2 443.6,194.5 		"/>
		<polygon fill="#C10000" points="456.7,195 456.6,194.2 453.4,194.5 454.6,194.8 455,195.3 		"/>
		<polygon fill="#C10000" points="422.8,247.5 422.4,247 421.6,247.8 421.7,248.1 423.2,248.1 423.5,247.9 423.3,247.5 		"/>
		<polygon fill="#C10000" points="424.5,202.1 425.3,201.2 425.4,200.7 425.2,200.4 424.2,200.4 423.4,201.2 424.1,201.5 		"/>
		<polygon fill="#C10000" points="469.8,195 468.7,194.2 466.9,195 468,195.9 		"/>
		<polygon fill="#C10000" points="516.6,213.9 517.6,213.9 519.6,211.3 520.3,204.6 519.3,203.2 515.1,205.4 513.2,207.4 513,209.1
			515.7,213.3 		"/>
		<polygon fill="#C10000" points="501.6,446.2 501.8,444.5 501.2,443.6 500.7,443.6 499.3,445.1 499.2,446.2 499.8,447 500.8,447
			"/>
		<polygon fill="#C10000" points="507.5,172 507.5,171.4 506.9,170.6 505.9,170.6 505.1,171.4 505,172 505.7,172.8 506.6,172.8
			"/>
		<polygon fill="#C10000" points="386.2,297.8 385.9,300.1 386.6,301 390.7,303.2 392,304.8 392.5,304.9 392.9,305.4 393.9,305.4
			394.3,306 396.6,306.5 398.5,307.7 399.9,307.7 401.7,308.8 402.7,308.8 404,309.9 407.3,311 407.7,311.6 408.7,311.6
			409.1,312.2 410.1,312.1 410.6,312.7 412.9,313.3 413.3,313.9 417.2,313.8 417.8,313.3 420.3,312.7 421.4,311.6 422.9,311
			427.7,307.1 429.8,306 431.5,303.7 432.3,303.4 432.4,302.3 433.5,301.2 433.6,300.1 434.7,299.5 435.4,297.3 435.9,296.7
			436.4,288.8 436.9,288.3 437.1,286.6 436.4,284.4 435.5,283.3 434.9,280.4 434,279.3 434.3,277.1 435.4,275.4 436.4,270.9
			437,270.3 437.1,269.2 439,267.2 440,267.2 441.4,265.8 441.5,264.7 442.6,263.6 442.7,263 444.1,261.6 444.6,261.6 448.2,257.4
			450.2,252.9 452,250.1 453.9,248.1 454.9,247.6 456.8,247.5 457.4,247 460.9,246.4 461.4,245.9 462.9,245.9 465,244.8
			466.4,244.8 468,243.6 469,243.6 473.1,241.4 474.1,241.4 475.2,240.3 475.7,240.3 478.5,236.9 479,236.8 480.9,234.9
			481.6,233.2 482.8,231.5 482.9,230.4 480.1,224.8 479.5,224 478.1,223.4 476.9,221.1 474.5,220.6 474.1,219.5 472.7,219.5
			471.4,218.3 469.9,218.3 469.5,217.8 468.5,217.8 467.6,216.7 466.7,216.6 461.1,213.9 459.2,213.8 458.7,214.4 456.7,214.4
			451.7,211.6 449.2,211.6 447.7,212.7 443.6,213.9 442,215 440.1,215 439.6,215.5 436.6,215.5 436.1,216.1 435.1,216.1 433,217.2
			431.6,217.2 430.7,218.6 430.5,220.3 429.9,220.9 429.7,223.1 429.2,223.7 428.9,225.9 428.3,226.5 428.1,228.7 427.5,229.3
			426.7,232.7 425.4,234.9 423.8,236.6 423.7,237.7 424.3,238.6 427.3,238 428.3,239.4 428.6,241.6 429,242.2 428.7,244.5
			428.2,245 428,246.7 425.5,249.8 424.5,249.8 423.7,250.6 423.5,251.8 421.2,253.5 421.2,297 385.7,297 385.8,297.3 		"/>
		<polygon fill="#C10000" points="493.4,188.8 493.2,188.6 492.7,188.6 491.3,190 491.6,190.2 492,190.2 		"/>
		<polygon fill="#C10000" points="476.4,194.7 476,194.2 474.1,194.2 473.2,195 477.6,195 		"/>
		<polygon fill="#C10000" points="487.4,194.5 485.7,194.2 484.4,195 486.5,195.9 487.4,195 		"/>
		<polygon fill="#C10000" points="540.4,358 540,356.8 540.4,354 540.9,353.4 541.4,349.5 541,349 541.1,347.8 540.4,345.6
			538.1,340 539.1,334.9 538.4,332.7 538.7,330.4 539.9,328.2 541.6,326.5 540.9,324.2 541.3,319.7 540.7,318.9 538.3,318.9
			536.5,321.2 535,321.7 534.1,323.1 531.3,326.5 530,329.3 527.9,331 527.8,332.1 526,334.9 525.9,336.1 524.6,338.3 524.3,341.1
			520.9,345 519.6,349 518.7,349.8 518.2,349.8 516.3,351.8 516.1,352.9 514.7,354.9 511.2,356 509.8,357.4 509.8,357.9
			508.6,359.7 508.4,361.3 507.3,362.5 507,364.7 505.8,366.9 505.7,368.1 503.5,370.3 502.9,371.4 502.7,373.1 501.5,374.8
			501.4,375.9 499.7,378.2 499,379.9 498.7,382.1 498.2,382.7 497.3,390.5 497.7,391.1 496.6,400.7 497.6,402.6 501.2,404.8
			502.6,408 505.5,412.4 505.4,413 506.7,414.7 506.6,415.3 507.7,416.7 508.2,416.7 512.7,419.5 515.1,420.1 517,422.6
			516.8,423.7 517.9,425.1 519.3,425.7 521.2,428.2 521.1,428.7 523.6,432.1 524.6,434.6 525.5,435.2 527,435.2 527.4,435.7
			528.9,435.7 530.2,436.9 531.6,436.9 533.6,434.4 534.5,431 535.7,429.3 536.4,422.6 535.7,420.3 536.2,416.4 535.8,415.8
			536.7,407.4 537.2,406.8 537.7,402.9 538.3,402.3 539.3,397.8 538.9,397.3 538.8,393.3 538,391.7 538.4,388.3 538,387.7
			538.2,385.5 537.8,384.9 538,383.2 538.6,382.7 538.7,381.5 539.9,379.3 540.2,377 540.7,376.5 541,373.7 541.6,373.1 542,369.8
			541.5,369.2 541.7,367.5 541.3,366.9 542,361.3 		"/>
		<polygon fill="#FFFFFF" points="408.5,214.4 408.2,214.7 408.1,215.8 408.3,216.1 409.3,216.1 410.1,215.2 409.5,214.4 		"/>
		<polygon fill="#FFFFFF" points="357.7,177.3 356.9,178.2 356.8,178.7 357,179 358.4,177.6 358.2,177.3 		"/>
		<polygon fill="#FFFFFF" points="417.4,217.8 417.7,217.5 417.7,216.9 417.5,216.7 417,216.7 416.7,216.9 416.7,217.5 416.9,217.8
					"/>
		<polygon fill="#FFFFFF" points="362,191.4 362.4,192 362.9,192 363.7,191.1 363.9,190 363.1,189.7 361.3,191.1 361.5,191.4 		"/>
		<polygon fill="#FFFFFF" points="360.6,167 363.3,164.2 363.1,161.9 362.5,161 361,161 359.9,161.6 358.5,163.6 358.4,164.7
			359.2,166.4 359,168.1 358.4,169.2 359.1,169.5 		"/>
		<polygon fill="#FFFFFF" points="416.7,215 415.8,215 415.5,215.3 415.7,215.5 416.7,215.5 416.9,215.3 		"/>
		<polygon fill="#FFFFFF" points="337.8,170.9 337.8,170.3 337.6,170 336.6,170 335.8,170.9 336.4,171.7 336.9,171.7 		"/>
		<polygon fill="#FFFFFF" points="411.4,193.6 411.6,193.3 411.7,192.8 411.5,192.5 410,192.5 409.8,192.8 410.4,193.6 		"/>
		<polygon fill="#FFFFFF" points="412.7,205.7 412.5,206.8 412.7,207.1 413.8,207.1 414,206.8 414.1,206.3 413.4,205.4 413,205.4
			"/>
		<polygon fill="#FFFFFF" points="421.2,253.5 420.1,254.3 418.6,254.3 417.3,253.2 416.3,253.2 415.5,254 416.8,255.7 416.5,257.9
			415.1,259.3 413.1,259.9 410.6,257.1 409.6,257.1 409,257.7 407.6,257.1 407.2,256.5 406.4,256.8 406.4,257.4 407.6,259.1
			407,260.2 407.4,260.8 406.6,261.6 404.5,262.7 402.3,261 399.7,262.7 398.2,262.7 396.4,261.6 394.6,257.9 395.9,254.6
			397.3,253.7 397.8,253.2 399.3,253.2 401.3,252.1 402.3,252.1 403.2,253.2 404.6,253.2 405.2,252.6 406.2,252.6 406.7,252
			408.6,252.1 411.3,250.4 412.9,248.7 413.9,248.7 415.2,247.8 414.7,246.4 412.3,245.9 408.6,243.6 407.7,243.6 407.3,243.1
			405.3,243.1 404.8,242.5 401.1,241.4 399.9,239.1 398.4,239.1 395.8,240.8 394.9,240.8 394.1,239.1 393.5,239.1 391.7,240.5
			391.6,241.1 389.2,243.6 388.1,244.2 386.2,244.2 385.6,244.7 384.2,244.8 383.7,244.2 382.3,244.2 381.4,243.6 379,241.1
			378.8,238.8 378.1,238 376.2,238 374.7,240 373.4,243.3 370.4,245.9 369.9,245.9 369.1,246.7 371.3,249 371.2,250.1 369.8,251.5
			367.7,252.6 366.8,252.6 363.5,250.9 361.8,249.2 357.9,248.7 356.2,247 353.8,246.4 353.2,245.6 353.4,243.9 354.2,242.5
			355,242.2 357.4,238.3 360,235.2 360.4,235.2 363.2,232.4 365.8,231.3 367.2,231.3 368.8,230.1 369.8,230.1 370.3,229.5
			371.8,229.6 372.9,228.4 373.4,228.4 374.5,227.3 375.9,227.3 377.5,228.7 378,230.2 379.9,231.3 383.3,231.3 383.7,231.8
			385.6,231.8 386.1,232.4 388.5,232.4 390.3,233.5 391.6,235.2 393.6,234.6 395.2,233.5 399.1,233.5 399.5,234.1 400.9,234
			401.4,234.6 402.8,234.6 403.9,234.1 406.7,230.7 407.9,231 407.9,232.4 412.4,231.8 415.5,230.1 417.5,227.6 418.3,220.9
			417.6,220 416.7,220 411.7,225.1 410.2,225.7 408.6,226.8 407.6,226.8 405.4,225.1 403.4,225.1 402.9,225.6 401.4,225.7
			400.9,226.2 395.5,226.2 395.1,225.7 393.2,225.1 391.1,222.3 389.2,221.7 387.5,219.5 386.1,218.9 385.3,217.8 381.9,217.2
			381.5,216.6 380.5,216.6 380.1,216.1 379.1,216.1 374.5,213.9 373.2,212.7 371.7,212.7 369.9,211.6 368.3,210.2 368.4,209.7
			364.9,204.3 362.1,202.6 358.3,202.6 357.2,203.2 355.3,205.1 355.2,206.3 355.6,206.8 355.3,207.1 353.4,207.1 349.9,209.2
			349.9,238.7 311.1,238.7 311.1,241.5 311.5,241.9 313,241.9 313.9,242.5 318.1,248.1 319.7,249 320.7,250.9 322.1,251.5
			322.9,252.6 324.8,253.7 327.2,253.7 328.1,254.3 328.2,255.2 329.6,256.3 329.5,256.8 331,258.8 332.8,259.9 334.5,262.7
			335,262.7 336.7,264.4 341.1,264.4 341.6,263.8 348.5,263.3 348.9,263.8 356.5,266.1 358.2,267.8 360.7,267.8 361.1,268.3
			363,268.3 363.4,268.9 364.9,268.9 365.7,270 370.2,273.4 371.1,274.5 374.7,276.8 375.1,277.9 376.4,278.4 377.3,279.6
			378.3,279.6 380.3,281.6 381,287.7 381.9,288.3 381.9,288.8 383.2,290 382.9,292.2 383.3,293.3 385.5,295.6 385.7,297 421.2,297
					"/>
		<polygon fill="#FFFFFF" points="403.8,236.6 403.8,237.1 404.4,238 405.4,238 405.7,237.7 405.7,237.1 405.1,236.3 404.1,236.3
			"/>
		<polygon fill="#FFFFFF" points="312.8,184.4 312.9,183.8 320.6,175.9 320.7,175.3 322.5,172 322.7,170.3 321.7,168.3 320.3,168.3
			317.3,171.4 314.9,174.8 311.1,178.7 311.1,187.7 		"/>
		<polygon fill="#FFFFFF" points="366.7,244.2 367.5,243.9 368,239.4 367.4,238.6 366.9,238.6 366.1,239.4 365.8,241.7 366.2,242.2
			366.1,243.3 		"/>
		<polygon fill="#FFFFFF" points="397.9,259.1 398.5,259.9 399,259.9 399.3,259.6 399.3,259.1 398.7,258.2 		"/>
		<polygon fill="#C10000" points="305.7,238.7 306,239.1 308.3,239.7 308.8,240.2 309.7,240.2 311.1,241.5 311.1,238.7 		"/>
		<polygon fill="#C10000" points="309.3,198.9 308.9,198.4 309.4,193.9 309.9,193.3 311,187.7 311.1,187.7 311.1,178.7 310,179.9
			309.9,180.4 306.3,184.1 305.9,184.1 303.1,186.9 302.6,186.9 299.6,189.9 298.3,192.2 298.1,194.5 298.6,195 298.4,199.8
			309.2,199.8 		"/>
		<polygon fill="#C10000" points="349.9,238.7 349.9,209.2 349.7,209.4 346.4,212.7 345.5,212.7 345,212.2 342.6,212.2 342,212.7
			339.6,212.7 339.1,213.3 337.1,213.3 336.6,213.9 329.7,213.9 329.3,213.3 327.9,213.3 325.6,212.2 323.6,212.1 323.2,211.6
			318.4,211 318,210.5 315.5,210.5 312.8,208.8 310.9,206.3 309.5,201.8 309,201.2 309.2,199.8 298.4,199.8 298.4,200.6
			298.8,201.2 298.5,204 298.9,204.5 298.7,206.8 299.1,207.4 298.8,210.2 299.2,210.8 298.7,215.3 298.1,215.8 298,216.9
			299.3,218.7 298.5,221.4 299.6,224.2 299.4,226 299.8,226.5 299.7,228.2 300.1,228.8 300.5,233.2 301.3,235.5 301.2,236.6
			303.1,238.6 305.6,238.5 305.7,238.7 311.1,238.7 		"/>
	</g>

		<path fill="none" stroke="#CCCCCC" stroke-width="0.25" stroke-linecap="round" stroke-linejoin="round" stroke-miterlimit="10" d="
		M423.2,248.1l0.2-0.3l-0.2-0.3h-0.5l-0.4-0.6l-0.8,0.9l0.2,0.3L423.2,248.1z M431.9,190.5l-1.6-1.4l-1.2,0.3l1.5,1.4L431.9,190.5z
		 M424.5,202.1l0.8-0.9l0.1-0.5l-0.2-0.3l-1,0l-0.8,0.9l0.7,0.3L424.5,202.1z M413.8,207.1l0.2-0.3l0.1-0.5l-0.6-0.9l-0.5,0
		l-0.3,0.3l-0.2,1.1l0.2,0.3H413.8z M416.7,217.5l0.2,0.3l0.5,0l0.3-0.3l0.1-0.6l-0.2-0.3H417l-0.3,0.3L416.7,217.5z M416.7,215.5
		l0.2-0.3l-0.2-0.3l-1,0l-0.3,0.3l0.2,0.3L416.7,215.5z M469.8,195l-1.1-0.8l-1.8,0.9l1.1,0.8L469.8,195z M506.6,172.8l0.8-0.9
		l0.1-0.5l-0.6-0.8l-1,0l-0.8,0.8l0,0.6l0.6,0.8L506.6,172.8z M510.5,149.5l0.2-1.7l-0.6-0.8l-0.8,0.9l-0.1,1.1l0.6,0.8L510.5,149.5
		z M516.6,213.9h1l2-2.5l0.7-6.7l-1.1-1.4l-4.2,2.2l-1.9,2l-0.2,1.7l2.7,4.2L516.6,213.9z M411.4,193.6l0.2-0.3l0.1-0.5l-0.2-0.3
		l-1.5,0l-0.3,0.3l0.6,0.8H411.4z M476.4,194.7l-0.4-0.6l-2,0l-0.8,0.8l4.4,0L476.4,194.7z M455,195.3l1.7-0.3l-0.1-0.8l-3.2,0.3
		l1.2,0.3L455,195.3z M444.8,194.8l2.6-1.7l0.8-0.9l0.1-1.1l-0.6-0.8h-2.4l-0.2,0.3l0.6,0.9l1.1,0.8l-3.2,2.2L444.8,194.8z
		 M366.7,244.2l0.7-0.3l0.5-4.5l-0.6-0.8l-0.5,0l-0.8,0.9l-0.3,2.2l0.4,0.6l-0.1,1.1L366.7,244.2z M397.9,259.1l0.6,0.8h0.5l0.3-0.3
		l0.1-0.5l-0.6-0.8L397.9,259.1z M492.7,188.6l-1.4,1.4l0.2,0.3h0.4l1.4-1.4l-0.2-0.3H492.7z M484.4,195l2.1,0.8l0.8-0.9l0.1-0.5
		l-1.7-0.3L484.4,195z M500.7,443.6l-1.4,1.4l-0.1,1.1l0.6,0.8h1l0.8-0.8l0.2-1.7l-0.6-0.8H500.7z M541.7,367.5l-0.4-0.6l0.6-5.6
		l-1.6-3.3l-0.3-1.2l0.3-2.8l0.5-0.6l0.5-4L541,349l0.1-1.1l-0.7-2.3l-2.3-5.6l1.1-5.1l-0.7-2.2l0.3-2.2l1.2-2.2l1.7-1.7l-0.7-2.3
		l0.5-4.5l-0.6-0.8l-2.4,0l-1.8,2.3l-1.5,0.6l-0.9,1.4l-2.8,3.4l-1.3,2.8l-2.1,1.7l-0.1,1.1l-1.8,2.8l-0.1,1.2l-1.3,2.2l-0.3,2.8
		l-3.4,3.9l-1.4,3.9l-0.9,0.9l-0.5,0l-1.9,2l-0.2,1.1l-1.4,2l-3.5,1.1l-1.4,1.4l-0.1,0.5l-1.2,1.7l-0.2,1.6l-1.1,1.1l-0.2,2.2
		l-1.2,2.2l-0.1,1.1l-2.2,2.2l-0.6,1.1l-0.2,1.7l-1.2,1.7l-0.1,1.1l-1.7,2.2l-0.7,1.7l-0.2,2.2l-0.6,0.6l-0.9,7.9l0.4,0.6l-1.1,9.5
		l1,2l3.6,2.2l1.4,3.1l2.9,4.5l0,0.6l1.3,1.7l-0.1,0.6l1.1,1.4l0.5,0l4.5,2.8l2.4,0.6l1.9,2.5l-0.1,1.1l1.1,1.4l1.4,0.6l1.9,2.5
		l-0.1,0.5l2.5,3.4l1,2.5l0.9,0.6l1.5,0l0.4,0.5l1.5,0l1.3,1.1l1.5,0l2-2.5l0.9-3.4l1.2-1.7l0.8-6.8l-0.7-2.2l0.4-4l-0.4-0.6l1-8.4
		l0.5-0.5l0.5-3.9l0.6-0.6l1-4.5l-0.4-0.5l-0.1-3.9l-0.8-1.7l0.4-3.4l-0.4-0.6l0.2-2.2l-0.5-0.6l0.2-1.7l0.6-0.6l0.1-1.1l1.3-2.2
		l0.2-2.3l0.5-0.5l0.3-2.8l0.6-0.5l0.4-3.4l-0.4-0.6L541.7,367.5z M409.3,216.1l0.8-0.9l-0.6-0.8l-1,0l-0.3,0.3l-0.1,1.1l0.2,0.3
		L409.3,216.1z M403.8,236.6l-0.1,0.5l0.6,0.9h1l0.3-0.3l0-0.6l-0.6-0.8l-1,0L403.8,236.6z M358.4,169.2l0.7,0.3l1.5-2.5l2.7-2.8
		l-0.2-2.3l-0.6-0.8l-1.4,0l-1.1,0.6l-1.4,1.9l-0.1,1.2l0.8,1.7l-0.2,1.7L358.4,169.2z M358.4,177.6l-0.2-0.3h-0.5l-0.8,0.8
		l-0.1,0.6l0.2,0.3L358.4,177.6z M361.3,191.1l0.2,0.3l0.5,0l0.4,0.6h0.5l0.8-0.9l0.2-1.1l-0.7-0.3L361.3,191.1z M336.9,171.7
		l0.8-0.9l0-0.6l-0.2-0.3h-1l-0.8,0.9l0.6,0.8H336.9z M479.5,224l-1.4-0.6l-1.2-2.3l-2.4-0.5l-0.4-1.1l-1.5,0l-1.3-1.1l-1.5,0
		l-0.4-0.6h-1l-0.9-1.1l-1,0l-5.5-2.8l-1.9,0l-0.6,0.6l-2,0l-5-2.8l-2.4,0l-1.6,1.1l-4,1.1L442,215l-1.9,0l-0.5,0.5h-2.9l-0.5,0.6
		l-1,0l-2,1.1l-1.5,0l-0.9,1.4l-0.2,1.7l-0.6,0.5l-0.2,2.2l-0.5,0.6l-0.3,2.2l-0.6,0.5l-0.3,2.2l-0.5,0.6l-0.9,3.4l-1.2,2.2
		l-1.6,1.7l-0.2,1.1l0.7,0.8l3-0.6l1.1,1.4l0.3,2.2l0.4,0.6l-0.2,2.2l-0.5,0.5l-0.2,1.7l-2.5,3.1l-1,0l-0.8,0.8l-0.1,1.2l-3.5,2.5
		l-1.4,0l-1.4-1.1l-0.9,0l-0.8,0.9l1.3,1.7l-0.3,2.2l-1.4,1.4l-2,0.6l-2.6-2.8h-1l-0.6,0.6l-1.4-0.6l-0.4-0.5l-0.7,0.3l-0.1,0.5
		l1.3,1.7l-0.6,1.1l0.4,0.6l-0.9,0.9l-2,1.1l-2.2-1.7l-2.6,1.7l-1.5,0l-1.8-1.1l-1.8-3.7l1.4-3.4l1.3-0.8l0.5-0.6l1.5,0l2-1.1l1,0
		l0.9,1.1l1.5,0l0.6-0.6l1,0l0.5-0.6l1.9,0l2.6-1.7l1.7-1.7l1,0l1.3-0.8l-0.6-1.4l-2.4-0.5l-3.7-2.2l-1,0l-0.4-0.5l-2,0l-0.4-0.6
		l-3.7-1.1l-1.2-2.3l-1.4,0l-2.6,1.7l-1,0l-0.8-1.7h-0.5l-1.9,1.4l0,0.6l-2.5,2.5l-1,0.5l-2,0l-0.6,0.5l-1.5,0l-0.4-0.6l-1.4,0
		l-0.9-0.6l-2.4-2.5l-0.2-2.3l-0.6-0.8l-2,0l-1.4,2l-1.3,3.4l-2.9,2.5l-0.5,0l-0.8,0.9l2.2,2.2l-0.1,1.1l-1.4,1.4l-2.1,1.1l-1,0
		l-3.2-1.7l-1.8-1.7l-3.8-0.6l-1.8-1.7l-2.4-0.5l-0.6-0.8l0.2-1.7l0.9-1.4l0.7-0.3l2.4-3.9l2.5-3.1h0.5l2.7-2.8l2.6-1.1l1.5,0
		l1.5-1.1h1l0.5-0.6l1.5,0l1.1-1.1h0.5l1.1-1.1l1.4,0l1.6,1.4l0.6,1.4l1.8,1.1h3.4l0.4,0.6l1.9,0l0.4,0.6h2.4l1.8,1.1l1.3,1.7l2-0.6
		l1.6-1.1l3.9,0l0.5,0.6l1.4,0l0.4,0.6l1.5,0l1.1-0.6l2.8-3.4l1.2,0.3l0.1,1.4l4.5-0.6l3.1-1.7l2-2.5l0.8-6.8l-0.6-0.8l-1,0l-5,5
		l-1.5,0.6l-1.6,1.1h-1l-2.3-1.7l-1.9,0l-0.6,0.5l-1.4,0l-0.6,0.6l-5.3,0l-0.4-0.5l-1.9-0.6l-2.1-2.8l-1.9-0.6l-1.7-2.3l-1.4-0.6
		l-0.8-1.1l-3.4-0.6l-0.4-0.6h-1l-0.4-0.6h-1l-4.6-2.2l-1.3-1.1l-1.5,0l-1.8-1.1l-1.6-1.4l0.1-0.5l-3.5-5.4l-2.7-1.7l-3.9,0
		l-1.1,0.6l-1.9,2l-0.1,1.1l0.4,0.6l-0.3,0.3l-1.9,0l-3.7,2.2l-3.3,3.3l-1,0l-0.5-0.5h-2.4l-0.5,0.5l-2.4,0l-0.5,0.6l-2,0l-0.5,0.6
		h-6.8l-0.4-0.6l-1.4,0l-2.3-1.1l-2,0l-0.4-0.6l-4.8-0.5l-0.4-0.6l-2.4,0l-2.7-1.7l-1.9-2.5l-1.4-4.5l-0.5-0.6l0.3-2.2l-0.4-0.5
		l0.5-4.5l0.5-0.5l1.2-5.6l1.8-3.4l0.1-0.6l7.7-7.9l0-0.6l1.8-3.3l0.2-1.7l-1-1.9h-1.5l-3,3.1l-2.4,3.4l-4.9,5.1l-0.1,0.5l-3.6,3.7
		h-0.5l-2.7,2.8l-0.5,0l-3,3.1l-1.3,2.3l-0.2,2.2l0.5,0.5l-0.2,5.6l0.4,0.6l-0.3,2.8l0.5,0.5l-0.3,2.3l0.4,0.6l-0.3,2.8l0.4,0.6
		l-0.5,4.5l-0.6,0.5l-0.1,1.1l1.2,1.7l-0.7,2.8l1.1,2.8l-0.2,1.7l0.4,0.5l-0.2,1.7l0.5,0.6l0.4,4.5l0.7,2.2l-0.1,1.1l1.9,2l2.5,0
		l0.4,0.6l2.4,0.5l0.4,0.6l1,0l1.8,1.7l1.5,0l0.9,0.6l4.3,5.6l1.6,0.8l1,2l1.4,0.6l0.8,1.1l1.8,1.1l2.5,0l0.9,0.6l0.1,0.9l1.4,1.1
		l-0.1,0.5l1.5,2l1.8,1.1l1.6,2.8h0.5l1.7,1.7l4.4,0l0.5-0.6l6.9-0.5l0.4,0.5l7.5,2.3l1.8,1.7l2.4,0l0.4,0.6l2,0l0.4,0.6l1.5,0
		l0.9,1.1l4.5,3.4l0.8,1.1l3.7,2.2l0.4,1.1l1.4,0.6l0.9,1.1h1l2,2l0.7,6.2l0.9,0.5l-0.1,0.6l1.3,1.1l-0.2,2.2l0.3,1.1l2.2,2.3
		l0.3,1.7l0.4,0.5l-0.3,2.3l0.6,0.8l4.1,2.2l1.3,1.7l0.5,0l0.4,0.5l1,0l0.4,0.6l2.4,0.5l1.8,1.1l1.4,0l1.8,1.1l1,0l1.3,1.1l3.3,1.1
		l0.4,0.6l1,0l0.4,0.6l1,0l0.4,0.6l2.4,0.5l0.4,0.6l3.9,0l0.5-0.5l2.5-0.6l1.1-1.1l1.5-0.6l4.8-3.9l2.1-1.1l1.7-2.3l0.7-0.3l0.1-1.1
		l1.1-1.1l0.1-1.1l1.1-0.5l0.7-2.2l0.6-0.6l0.4-7.9l0.6-0.5l0.2-1.7l-0.7-2.2l-0.9-1.1l-0.7-2.9l-0.8-1.1l0.3-2.2l1.1-1.7l1-4.5
		l0.5-0.6l0.1-1.1l1.9-2l1,0l1.3-1.4l0.2-1.1l1.1-1.1l0-0.6l1.4-1.4l0.5,0l3.6-4.2l2-4.5l1.8-2.8l1.9-1.9l1-0.6l1.9,0l0.6-0.6
		l3.4-0.5l0.6-0.6l1.5,0l2.1-1.1l1.5,0l1.6-1.1l1,0l4.2-2.2l1,0l1.1-1.1h0.6l2.8-3.4l0.5,0l1.9-1.9l0.7-1.7l1.2-1.7l0.1-1.1
		l-2.8-5.6L479.5,224z"/>
</g>

</svg>
