<?xml version="1.0" encoding="utf-8"?>

<svg version="1.2" baseProfile="tiny" id="Layer_1" xmlns="http://www.w3.org/2000/svg" xmlns:xlink="http://www.w3.org/1999/xlink"
	 x="0px" y="0px" viewBox="0 0 464.5 195.4" xml:space="preserve">
<g id="Turkey">
	<g>
		<polygon fill="#E30A17" points="93.1,185.5 93.2,185.5 93.3,185.4 93.1,185.3 92.9,185.2 92.7,185.4 92.9,185.5 93,185.6 		"/>
		<polygon fill="#E30A17" points="101.8,184.9 102.1,184.8 102.3,184.8 102.4,184.9 102.6,184.6 102.6,184.5 102.7,184.5
			102.8,184.4 103,184.2 103.1,184.1 102.6,184.3 102.1,184.5 101.8,184.6 101.7,184.7 101.5,184.9 101.3,184.9 101.4,185
			101.6,185 		"/>
		<polygon fill="#E30A17" points="196.9,184.8 197.1,184.6 197,184.7 		"/>
		<polygon fill="#E30A17" points="99.3,186.1 99.5,186 99.4,185.9 99.2,185.9 99,186.1 98.9,186.4 98.9,186.4 99.1,186.3 		"/>
		<polygon fill="#E30A17" points="96.8,186 96.9,186.1 97,186.1 		"/>
		<path fill="#E30A17" d="M84,97.6c0-27.9,14.5-52.4,36.3-66.4l-6-1.5l-0.8-0.6l-1-0.2l-0.4-0.3l-0.3,0.1l-0.3,0.5l-0.3,0.3
			l-0.2-0.2l-0.2,0.3l-0.2,0.4l-0.2,0.2l-0.3,0.1l-0.6,0.4l-0.4,0.2l-0.7,0.1l-6.1-0.2l-6.5-1L91,28.7l-4.6-0.8H86l-0.2,0.3h-0.2
			l-0.7-0.1l-1,0.7l-0.9,1l-0.6,0.9l0.5,0.4l-0.1,0.4L82.5,32l-0.3,1.2l-0.4,0.7l-0.5,0.5l-0.2,0.2l0.2,0.4l0.1,0.4l0.1,0.3l0.3,0.1
			v0.1l0,0l0,0L81.7,36l1.3,0.7l0.5,0.4l0.5,0.6l0.5,0.4l1.4,0.6l0.5,0.5l0.5-0.1l0.6,0.4l0.5,0.6l0.3,0.4h-0.1h-0.1v0.1v0.1
			L88,40.6l-0.2-0.2v0.3l-0.1,0.2L87.5,41h-0.2v0.2l0.7-0.1l0.3-0.1l0.2-0.2l0.2,0.2l0.1-0.2l0.2,0.1l0.2,0.2l0.1,0.2l0.1,0.3h-0.1
			l-0.1,0.1l-0.1,0.1L89,41.9l0.3,0.1l0.1,0.2l0.1,0.3l0.2,0.3l0.5,0.2l0.4-0.2l0.4-0.3l0.5-0.2l5.8-0.2l0.5,0.1l0.9,0.3l0.4,0.1
			l0.2,0.1l0.5,0.4l0.3,0.1h0.3l0.2-0.1l0.2-0.1l0.2-0.1l2-0.3l0.9,0.2l0.2,0.7l-0.4,0.6h-0.5l-0.9-0.4l-2.8,0.1l-4.7,1.1h-0.3
			l-0.2-0.6l-0.4-0.4l-0.4-0.2h-0.2L93,43.8l-0.3,0.1l-0.2,0.2l-0.1,0.2l-0.1,0.2L92,44.7l-0.3,0.1l-0.2,0.1L91.2,45L91,44.8
			l-0.2-0.3l-0.2-0.2h-0.2l-0.5,0.4l-1,0.6l-1,0.3l-7.2,0.7l-0.4,0.2l-1,1L78.6,48l-1.7,0.7l-0.8,0.6l-0.4,1l1.3,0.3l2.1,1.3
			l1.3,0.3l0.3-0.1l0.5-0.5l0.2-0.1h1.3l0.5,0.1l0.6,0.4l0.5,0.5l0.4,0.5l-0.4,0.2l-0.4,0.1h-0.4l-0.3-0.1L83,53.6l-0.2,0.9
			l-0.2,0.4l-0.3,0.3l-0.4,0.1H80l-0.4-0.1L79.2,55l-0.6-0.4l-0.3-0.2l-0.7-0.2h-0.7l-0.8-0.3l-0.5-0.1L75.2,54l-0.4,0.3l-1.4,0.2
			l-0.2,0.1l-0.3,0.3L72.7,55h-0.2l-0.1-0.1h-0.1l-0.2,0.2L71,54.6l-1.1-0.3h-1.1l-1,0.4l0.1-0.3l0.1-0.2l0.2-0.1l0.3-0.1l-2.1,0.1
			l-1.3-0.2l-5.7,0.3l-2,0.8l-2,0.2l-0.9-0.3l-0.1-0.8l0.6-0.5l2.1-1.1l0.4-0.7L57,51.3l-1.1-0.4l-4-0.6l-0.2,0.1l-0.1,0.1l-0.1,0.1
			h-0.2v-0.1l-0.5-0.6l-0.2,0.4l-0.2-0.1l-0.2-0.1l-0.3,0.1l-0.4,0.5l-0.2,0.2L49,51v0.2l0.2,0.3l0.8,0.8l0.2,0.1h0.2h0.2l0.1,0.2
			V53l0.1,0.2l0.1,0.1l0.2,0.3l0.1,0.1h0.2l0.1,0.1l0.1,0.3l0.1,0.3h0.2l0.4-0.2l1.2,0.4h0.4l-0.4,0.6l-1.3,0.7l-0.6,0.8l-0.7,0.2
			l-0.7-0.1l-0.5-0.2l-0.6,0.3l-0.6-0.1l-0.6-0.3l-0.7-0.2l-0.4,0.1L45.9,57l-0.3,0.1h-0.7l-1.7-0.4l-1.4-0.6l-1.3-0.9l-1-1.1
			l0.2-0.1v-0.1l0,0l0.1,0.1H40l0.3-0.2l-0.4-1l-0.3-0.5L39.2,52h-0.4L38,52.5l-0.5,0.1h-0.9l-0.8-0.2l-1.1,0.1L34,53.1l-0.6,0.8
			l-0.7,0.5l-0.5,0.1l-1.4-0.1L30.2,54l-0.3-0.1l-0.8,0.2L27,53.9L26,54l-0.5,0.4l-2.6,3.2l-0.3,0.3l-0.3,0.2l-0.2,0.5l-0.2,0.1
			l-1.1,1.4l-0.5,0.4l-0.8,0.2L18.9,61l-0.3,0.1h-0.3h-0.2L18,61.3l-0.2,0.5l0.2,0.5v0.6l-0.1,0.6l-0.2,0.4L17.6,64h-0.1h-0.3
			l-0.1,0.1v0.1v0.1v0.1L17,64.6V65l-0.1,0.3l-0.2,0.4l-1,1l-0.3,0.2l-0.8,0.4l-0.4,0.3l-1.3-0.4l-0.2,0.2l-0.5,0.9l-0.1,0.3v0.3
			l-0.2,0.4l-0.1,0.3v0.3l0.1,0.6v0.2l-0.4,1.6l-0.1,0.4l0.4,0.1l0.1,0.3l-0.1,0.8v0.8l-0.1,0.2L11.6,75l-0.1,0.1v0.3l0.1,0.4
			l0.5,0.9l0.1,0.3L12,78.7l-0.2,0.7l-0.9,0.9l-0.4,1.5l-0.6,1.6l0.1,0.7l0.9,0.5h1l1.9-0.5l0.3,0.2l0.2,0.1l0.1-0.2v-0.1l0.2-0.3
			h0.3l0.3-0.2h0.3l1.3,0.2h0.3l0.2-0.1l1.1-0.6h0.2l0.2-0.3l0.5-0.2l8.5-1.5l0.6,0.4l0.5-0.2l0.4-0.4l0.6-0.2l0.7,0.1L31,81
			l0.2,0.4v0.7l-0.3,1.2v0.3v0.1l-0.1,0.1l-1.4,0.5L29,84.6l0.3,0.5L29,85.3l-0.3,0.1l-0.9,0.1v0.3V86v0.2v0.2h0.1l0.2,0.2l-2.6,2
			l-0.4,0.6l-0.2,0.2l-0.3,0.1l-0.1,0.2l0.1,0.5L24.4,90l-0.2-0.2L24,89.7h-0.3v-0.2l0.4-0.1v-0.2l-0.2-0.1l-0.3,0.1l-0.2,0.3
			l-0.1,0.6l-0.2,0.2l0.5,0.2h0.6l1.2-0.1l0.4,0.2l0.2,0.5l0.1,0.6l0.2,0.6v0.3l0.3,0.4l0.5,0.4l0.9,0.5l0.3,0.3l0.7,0.9l0.6,0.9
			l0.2,0.6l-0.2,0.3L29.1,97l-0.6,0.3l-0.6,0.4l-0.3,0.4H28h0.1v0.2l-0.4,0.5v0.8l0.2,0.7l0.5,0.3l0.4,0.1l0.4,0.6l0.3,0.1l0.3-0.1
			l0.8-0.5l0.3-0.3l0.2,0.3h0.2l0.2-0.2l0.3-0.1l0.1,0.1l0.2,0.4l0.1,0.1h0.4l0.3-0.1l0.3-0.2l0.4-0.4l0.4,0.3v0.3l-0.4,0.8l0.5,0.2
			l-0.2,0.5l-0.5,0.3l-0.5-0.3l-0.2,0.3l-0.3,0.2l-0.4,0.2l-0.4,0.1l0.3,0.8l-0.3,0.4l-0.5,0.1l-0.2-0.7l-1,0.4l0.2,0.2l0.5,0.9
			l0.2-0.2l0.1,0.3v0.3v0.2l-0.1,0.2l-0.2-0.2l-0.2,0.1l-0.2,0.2l-0.2,0.2l0.2,0.4h-0.4l-0.3-0.1l-0.6-0.3h-0.2h-0.3l0,0v-0.1
			l-0.1-0.1l-0.1-0.1l-0.7,0.5l-1.3,0.3l-0.4,0.3l0.2,0.6l0.2,0.4l0.5,0.7h-0.3l-0.2,0.1l-0.2,0.1l-0.2,0.2l0.4,0.3l0.2,0.1h0.3v0.1
			l-0.1,0.3v0.1h0.3h0.3l0.5,0.2l-0.1,0.1l-0.1,0.3H28l0.3-0.2l0.2-0.1l0.4,0.3l-0.1,0.4l-0.1,0.8l-0.1,0.4l0.4,0.2l0.3,0.2l0.3,0.3
			l0.3,0.4v0.2h-0.4l-0.7-0.4l-0.4-0.3l-0.4-0.4l0.3,0.5l0.5,0.4l0.2,0.2l0.6,0.2l0.3,0.2l0.7,1.2l0.4,0.3l-0.2,0.4h0.1l0.5-0.2
			l1.5-0.6h0.6l0.6,0.3l0.2-0.1l0.8,0.1l0.5-0.2l0.2,0.2l0.2-0.2h0.1l0.2,0.2v0.2l-0.7,0.4l-0.6,0.6l-0.6,0.4l-0.7-0.3l-0.1,0.1
			v-0.1l-0.3,0.1h-0.2l-0.2-0.1h-0.3l-0.1,0.1l-0.3,0.3l-0.1,0.1l-0.4,0.1l-1.2,0.6l-1.9,0.2l-0.4,0.1l-0.4,0.2h-0.4l-0.2-0.4
			l-0.1,0.1l-0.3,0.1l-0.1,0.1l-0.5-1.3l-0.3-0.6l-0.3-0.3h-0.2v0.2l-0.4-0.1l-0.4,0.3l-0.3,0.5l-0.1,0.5l0.2,1.3l0.4,0.3l0.2,0.3
			l-0.1,0.4l-0.5,0.2l-0.4-0.7l-0.4-1.4l-0.3-0.5l-0.2-0.5l-0.3-0.3l-0.6-0.1l0.2-0.4l0.2-0.4v-0.3l-0.4-0.2l0.3-0.2l0.3-0.1
			l0.3,0.1l0.2,0.2h0.1h0.1l0.2-0.1l-0.1-0.3v-0.3v-0.3l-0.1-0.3l-0.1-0.3l-0.1-0.2l-0.2-0.1l-0.2-0.2l-0.6-0.8l-0.6-0.9l-0.1-0.5
			l-0.4-0.6l-0.8-0.9l-0.4-0.4l-0.5-0.3l-0.6-0.2l-0.6-0.1l-0.3,0.1l-0.5,0.3l-0.4,0.1l-0.2,0.1l-0.1,0.4v0.5v0.4l0.3,1.2v0.2v0.2
			l0.3,0.9l0.1,0.4l-0.2-0.2l0.7,1.1l0.1,0.4l-0.2,0.6l-0.2,0.3v0.1h0.5l0.2-0.1l0.2-0.4l0.2-0.1H19l0.3,0.3l0.5,0.2l0.6,0.5
			l0.3,0.2l-0.4,0.8h-0.2l-0.3-0.3l-0.6-0.3v0.2l0.4,0.3l0.2,0.6v0.6l-0.3,0.3l-0.2,0.1l-0.6,0.4l-0.3,0.1h-0.3h-0.2l-0.4-0.2v0.2
			l0.2,0.4l-0.2,0.2l-0.4,0.1h-0.4l-0.2-0.1v-0.1v-0.1l-0.2-0.1h-0.2H16l-0.1-0.1l-0.1-0.1l0.2-0.3l0.1-0.3v-0.3l-0.1-0.4l-0.1,0.1
			l-0.1,0.1l-0.1,0.1v0.3l-0.3-0.4l-0.2,0.3l0.1,0.6l0.5,0.3v0.2l-0.5,0.1l-0.2,0.6l-0.3,0.4l-0.6-0.3l-0.1,0.5v0.2l1.3,0.4l0.2,0.1
			l0.8,0.7l0.6,0.2l0.5-0.2l0.2-0.8h0.2l0.1,0.3v0.3l-0.1,0.3v0.3l0.5,0.5l0.1,0.2h0.2l-0.1-0.1l-0.1-0.5l0.6,0.3l0.6,0.7l0.6,0.5
			L21,124l-0.1,0.4v0.3l0.2,0.3l0.5,0.5l0.3,0.3l0.3-0.1v-0.6l0.2,0.4l0.3,0.8l0.2,0.1l0.3-0.1l0.1-0.3v-0.4l-0.1-0.4h0.2l0.1,0.1
			l0,0l0.1,0.1l0.3-2l0.2-0.1h1.5l0.5-0.1l0.4-0.2h0.4l0.3,0.3l-0.1,0.9l0.1,0.4l0.4-0.2l0.2,0.3l0.5,0.5l0.2,0.4l0.2,0.4l0.1,0.5
			v0.5l-0.1,0.4l0.6,1.1l0.2,0.2l0.2-0.1l0.1-0.2l0.1-0.2l0.1-0.1h0.2l0.4-0.2l0.8-0.2l0.6,0.1l1.2,0.5l0.7,0.1l0.2,0.2l0.1,0.5
			l0.1,0.2l0.1,0.1h0.2h0.2l0.2,0.1l0.1,0.2l0.1,0.2l0.1,0.2l0.6,0.3l0.9,0.2h0.9l0.6-0.2l0.7,1.1l0.2,0.7l-0.3,0.3l0.1,0.3v0.3v0.3
			l-0.1,0.3l-0.1,0.2l-0.3,0.3l-0.1,0.1v0.6l0.2,0.4l0.2,0.3l0.2,0.3v0.4v0.7l-0.1,0.7l-0.2,0.5l-0.6,0.7l-0.3,0.2l-2.1,0.8
			l-0.5,0.1l-1.6-0.1l-0.4,0.1l-0.2,0.6l0.9,0.5l2.1,0.6l1.4,0.9l0.4,0.1l0.1,0.3l-0.1,0.7l-0.2,0.5l-0.4-0.3l-0.1,0.3l0.1,0.2
			l0.1,0.1l-0.1,0.2l0.1,0.5l-0.1,0.4l-0.1,0.5l-0.1,0.5l0.2-0.2l0.2-0.1h0.2l0.1,0.2l0.4-0.1l-0.1,1.4l0.2,0.6v0.2h-0.1l-0.4,0.2
			l0.1,0.3v0.3l-0.2,0.3l-0.2,0.3l0.2,0.1l0.1,0.1h0.1l0.2-0.1l0.1,0.1v0.1v0.2l0.2-0.1h0.2l0.2,0.1l0.2,0.2l0.3-0.3l0.3-0.1
			l1.4-0.1l0.1-0.1l-0.4-0.2v-0.2h0.6l0.2-0.3l0.1-0.4l0.2-0.4l0.4-0.2h0.5l0.5,0.2l0.3,0.5l-0.6,0.3l-0.4,0.5l-0.2,0.6l0.2,0.7
			l0.5,0.4l0.7,0.1l0.5-0.3l0.1-0.9h0.2l0.3,0.5v0.4l-0.1,0.3v0.2l-0.4,0.6l-0.2,0.3l-0.1,0.3l0.1,0.2l0.2-0.1l0.2-0.2l0.1-0.1h0.6
			l0.3,0.3l-0.1,0.4l-0.4,0.4l0.4,0.1l0.4-0.2l0.3-0.4l0.1-0.5l0.1-0.2l0.3-0.1h0.6l0.1-0.1v-0.1l0.1-0.1l0.2,0.1l0,0l0.3,0.2v0.2
			v0.4l-0.1,0.2l-0.6-0.9l-0.3,0.2l-0.1,0.1v0.6l0.1,0.2l0.4,0.1l-0.4,0.4l-0.2,0.1l-0.3,0.1l0.3-0.6l-0.3-0.1l-1.1,0.3v0.2l0.3,0.2
			l0.2,0.5l0.2,1l0.1-0.1h0.1l0.3-0.1v0.2l-0.3,0.1h-0.6l-0.3,0.2l-0.2,0.2l-0.5,0.2l-0.6,0.5l-0.4,0.1l-0.3-0.2l-0.4-0.6l0.1-0.1
			l0,0l0,0l0.1-0.1l-0.3,0.1h-0.2l-0.1-0.1l-0.2-0.1h-0.3h-0.2l-0.1-0.1v-0.5l-0.1,0.1l0,0l0,0l-0.1,0.1l-0.2-0.2l-0.2,0.1l-0.2,0.2
			l-0.1,0.3h-0.2v-0.4l-0.1-0.3l-0.2-0.2l-0.3-0.1l0.1,0.3v0.3l-0.1,0.2v0.2l-0.5,0.1l-0.8-0.3l-0.3,0.3l-0.2-0.2v0.2v0.1l0.1,0.1
			l0.2-0.2h0.2l0.2,0.1l0.2,0.2l-0.3,0.4l-0.4,0.3l-0.4,0.2h-0.2l-0.3,0.6l0.1,0.4l0.2,0.4l0.1,0.5v0.5l0.1,0.7l0.3,0.4l0.4-0.1
			l0.1,0.2l0.2-0.1H39l0.2,0.1l-0.1-0.1l-0.1-0.3l0.3-0.1l0.3-0.3l0.1-0.3l-0.1-0.3v0l0.3-0.1l0.6-0.1l0.2-0.1l0.1,0.2v0.1l0,0
			l-0.1,0.1v0.1l0,0l0,0l0,0l-0.1,0.2v0.1v0.1l0.1,0.2l0.3-0.8v-0.3h0.2l-0.1,0.1l0.1,0.2l0.4-0.3H42l0.2,0.2l0.4,0.6l0.2,0.2
			l0.3,0.1l0.7-0.1l0.3,0.1l0.3,0.1l0.6,0.4l0.1-0.7l0.6-0.1l0.7,0.3l0.4,0.3l0.5-0.5l0.8-0.3h0.8l0.5,0.3l0.3-0.1H50h0.2l0.2,0.1
			l0.1-0.3v-0.1h0.2l0.3,0.1l2-0.7h0.6l0.7,0.2h0.3l0.3-0.1l0.3-0.3l0.3-0.1l2.6,0.4l0.4,0.2v-0.2l-0.1-0.3l0.5-0.1h1.2l3.2-0.5
			l0.2,0.1l0.2,0.2l0.2,0.2v0.2l-0.7,0.2l-1.3,0.5l0.2,0.4l-0.2,0.2l-0.4-0.1l-0.4-0.3l-0.1,0.3l-0.2,0.3h0.3v0.2l-0.2,0.2l-0.5,0.8
			l-0.1-0.1l-0.2-0.1h-0.2h-0.2v0.2l0.2,0.1L60,162v0.1l-0.1,0.1v0.1v0.1v0.1l-0.1,0.2l-0.1-0.4v-0.2h-0.1l-0.2,0.1l-0.5-0.3
			l-0.2,0.2h-0.2l-0.1-0.1l-0.1-0.1h-0.1L58,162l-0.2-0.2l-0.2-0.1H57v0.2h0.5v0.2h-0.2h-0.4h-0.2l0.1,0.1v0.1l0.1,0.1l0.1,0.1
			l-0.2,0.2l-0.3-0.2l0.1,0.3l0.2,0.3l0.5,0.5v0.2l-0.3,0.1l-0.2,0.1l-0.2,0.1l-0.2-0.1l-0.1,0.1l-0.1,0.1h-0.1H56l0.3,0.3l0.1,0.3
			v0.2l-0.2-0.1l-0.2,0.2h0.5l0.3,0.1l0.2,0.2l0.2,0.4l-0.4,0.3l-0.1,0.2l-0.1,0.3l-0.4-0.4l-0.4-0.1l-0.8,0.1h-0.5l-0.5-0.1
			l-0.4-0.2l-0.2-0.2l-0.3,0.1l-2.1,0.1l-0.3,0.2l-0.6,0.6l-0.3-0.1l-0.3,0.1h-0.3l-0.4-0.2l-0.3,0.1l-1.1-0.7l-0.5,0.1l-0.1,0.4
			v0.4l-0.1,0.3l-0.5,0.1l-0.9-0.1l-1.8,0.3l-0.6-0.1l-0.2,0.1l0.4,0.2l-0.3,0.3l-0.1,0.5l-0.2,0.3l-0.3,0.1h-0.4l-0.4-0.1l-0.3-0.1
			v0.2l0.2,0.1l0.1,0.2v0.2l-0.1,0.2h0.1h0.1l0,0v0.1l0.3-0.2h0.3l0.2,0.2l0.1,0.4l0.3-0.1h0.2l0.6,0.1l0.2,0.1l0.3,0.3l0.1,0.1
			l0.1-0.1l0.1-0.1l0.1-0.2l1.7-0.6l0.1,0.3h0.3l0.4-0.1l0.4-0.1l0.4,0.1l0.4,0.2l0.8,0.4v-0.7l0.3-1l-0.1-0.3v-0.2l0.3-0.2l0.5-0.7
			l0.4-0.1l0.4,0.1l0.3,0.1h0.3l0.3-0.1v0.2l0.5-0.2l0.5,0.1l0.4,0.3l0.3,0.3h0.2l0.2-0.4l0.2,0.1l0.2,0.2l0.2,0.1l0.2-0.1l0.2-0.2
			h0.2L55,168l0.4-0.2l0.3-0.3l0.2-0.1l0.1,0.4h0.2l0.4-0.2l0.9-0.3l0.4-0.4l0.1,0.3h0.2l0.5-0.4l0.4-0.7l0.2-0.1l0.3-0.1l0.3,0.1
			l0.1,0.3v0.6l0.1,0.5l-0.3-0.3l-0.1-0.1l-0.1-0.2l-0.2,0.2l-0.3,0.3l-0.2,0.2v0.2l0.1,0.2h0.5l0.2,0.2v0.4l-0.4,0.3h-0.4l0.1-0.5
			l-0.2,0.1l-0.9,0.1l0,0l-0.1,0.1l-0.1,0.1l-0.1,0.1h-0.1H57l0.2,0.2l-0.9,0.2l-0.1,0.1l0.1,0.3l0.2,0.1h0.3l0.2-0.1l0.2,0.1
			l0.3,0.1h0.3l0.1-0.1v-0.4l0.1-0.1l0.2,0.2l0.2,0.3l0.1,0.4l-0.1,0.4l-0.2,0.3v0.2l0.2-0.1l0.5-0.4l0.3,0.4l-0.3,0.4l-0.2,0.4
			l-0.3,0.3l-0.5,0.2h-1.8l0.1,0.2l0.1,0.1l0.1,0.1v0.1l-0.1,0.2l-0.1,0.1l0.3,0.3l0.3,0.2l0.3-0.1l0.2-0.4l0.1,0.3l0.2,0.1h0.2
			l0.3-0.1v-0.1L58,173l-0.1-0.1l0.2-0.1l0.1-0.1l0.1-0.1l0.1-0.2l0.6,0.2l0.6-0.5l0.5-0.7l0.3-0.7l0.4-0.7l0.5-0.4l1.3-0.4V169l0,0
			h-0.1l0.1-0.1l0.1-0.1v-0.1v-0.2l0.2,0.1l0.2,0.1l0.2-0.5l0.3-0.1l0.4,0.1l0.3,0.2l-0.2-0.7l-1-0.7l0.1-0.7l-0.3-0.3l-0.1-0.4
			l0.2-0.5l0.3-0.5l0.4-0.2l0.4,0.2l0.3,0.3l0.3,0.2v0.2l-0.6,0.1l-0.3,0.1l-0.1,0.3l0.1,0.3l0.3,0.1h0.6l-0.1-0.2l-0.1-0.5h0.1
			l0.2,0.2l1.3,0.6h0.5l0.3-0.3l0.2-0.4l0.3-0.4l-0.2-0.2H67l-0.2,0.1h-0.1l-0.2-0.2l-0.2-0.2v-0.2l0.3-0.1l0.7-0.1l0.5-0.1l0.2-0.3
			l0.1-0.3h0.1l0.1,0.2l0.1,0.3v0.1l0.1,0.1l0.1,0.1v0.2l-0.1,0.1h-0.1h-0.2l0.1,0.6l0.2,0.3l0.3,0.1h0.5v0.2l-0.3,0.2l0.3,0.1h0.2
			l0.2,0.1l0.2,0.2l-0.1-0.7l0.5-0.3l0.7,0.1l0.3,0.3l0.1,0.2l0,0l0.1,0.1V166v-0.1l0.1-0.3h0.2l-0.1,0.2v0.1l0.1,0.1v0.1h-0.1h-0.1
			l0,0v0.1l0.3,0.3l0.1,0.6l-0.1,0.6l-0.2,0.4l0.3,0.8l0.2,0.2l0.3-0.5l0.3-0.1l0.3,0.2l0.1,0.6h0.2l0.7-0.4l1.1,0.2l0.9,0.6
			l0.1,0.8l0.4-0.1l0.2,0.1l0.2,0.2l0.4,0.2v0.2l-0.4,0.1l-0.2,0.2v0.3L77,172l0.3,0.1h0.4l0.3-0.2l-0.1-0.3l0.4-0.3l0.4-0.5
			l0.2-0.5l-0.4-0.4l0.1,0.4l-0.1,0.3l-0.1,0.2l-0.1,0.3h-0.2L78,171l-0.2-0.3l0.2-0.2l-0.1-0.1l-0.1-0.1l-0.1-0.3l0.3-0.1v-0.2
			l-0.1-0.3l0.1-0.2l0.2-0.1l0.2-0.1h0.5v-0.2h-0.2v-0.2l0.3-0.3l0.5-0.6l0.4-0.3l0.2,0.4l0.2,0.3l1.9,0.8l1.5,1.1l0.1,0.2l0.2,0.2
			l0.1,0.3l0.1,0.3l-0.2,0.2l-0.3,0.1l-0.2-0.1l0.1-0.3v-0.2l-0.4,0.2l-0.3,0.4l-0.3,0.3l-0.3-0.3l-0.2,0.3l-0.2,0.6l-0.1,0.2
			l0.3,0.4l0.1,0.4l-0.1,0.3l-0.4,0.1l0.5,0.1l1.2-0.5l0.3,0.4h0.2l0.3-0.1l0.1,0.5l0.1,1.1v0.2l-0.2,0.1l-0.2,0.1l-0.3,0.3v0.2
			l0.4,0.2l0.3,0.4l0.1,0.5l-0.1,0.6h0.1l0,0l0,0v0.1h-0.3l-0.2,0.1l-0.2,0.2l-0.1,0.3h0.2h0.2l0.3,0.2l-0.2,0.2h0.7v0.2l-0.1,0.1
			v0.1l0.1,0.4l0.3-0.2l0.4,0.5l1.5,0.5l0.3,0.4l0.2,0.4l1.6,1.5l0.2-0.2l0.1,0.2l0.1,0.3l0.2,0.1L90,183l0.1-0.2l0.1-0.2l0.1-0.2
			l0.1-0.1l0.1-0.1l0.1-0.1l0.2-0.1H91l0.1,0.1h0.1l0.1-0.2l0.1,0.8l0.1,0.3l0.3-0.3l1.5,0.9l0.7,0.1h2l0.5,0.2h-0.3h-0.3l-0.2,0.1
			l-0.2,0.1v0.2l1.2-0.2l0.2,0.1v0.3l-0.1,0.2l-0.3-0.2l0.2,0.6l0.8,0.4l0.1,0.6l0.4-0.5v-0.1h0.3l0.1-0.1v-0.1l0.1-0.1l0.3-0.1h0.3
			l0.3,0.1l0.3,0.3l0.1-0.1h0.1h0.3l-0.1,0.1v0.1l-0.1,0.1l-0.1,0.1v0.2l0.4-0.1l0.4-0.2l0.3-0.3l0.3-0.3h-0.5v-0.2l0.6-0.2h0.2
			v-0.1l0,0h-0.1h-0.1l0.3-0.2l0.9-0.2l0.4-0.2l0.3-0.3l0.1-0.1h0.2l0.3,0.1l0.3,0.1h0.3l0.3-0.2l0.4,0.1l1.6-0.9v-0.2h-0.7l0.3-0.1
			l0.2,0.1l0.2,0.2l0.2,0.1l0.9,0.2v-0.2v-0.2l0.3,0.2v-0.2l0.2-0.6l0.1,0.4v0.2h0.1v-0.6l0.1-0.4l0.2-0.3l1.8-0.3h0.5l2.6,1.2
			l0.6-0.2l0.3,0.3l0.1,0.5v1.3l0.7-0.6l0.3-0.4l0.3-0.7l0.3-0.3l0.3-0.3l0.2-0.2l-0.2-0.1v-0.1l0,0l-0.1,0.1h-0.2l0.3-0.6l0.7-0.6
			l0.3-0.4l-0.6-0.2l0.2-0.4l-0.3-0.2l-0.3-0.4v-0.5l0.3-0.5v-0.3l0.5-0.8l0.3-1.1l0.4-0.5l0.8-0.7l-0.1-0.3l0.3-1.1l0.1-0.6
			l-0.2,0.2l-0.1-0.4l-0.2-0.2l-0.1-0.3v-0.6l0.1-0.4l0.1-0.3l0.2-0.2l0.2-0.2v-0.2l-0.3-0.4v-0.5l0.1-1v-1.3l0.1-0.2l0.3-0.5
			l0.3-0.9l0.7-0.6l0,0C98.6,150.2,84,125.6,84,97.6z"/>
		<polygon fill="#E30A17" points="83.9,40.2 84,40.2 84.1,40.1 84.1,39.7 83.7,39.8 83.6,39.8 83.6,40 83.5,40.1 83.5,40.2
			83.5,40.4 83.5,40.7 83.8,40.9 83.9,40.4 		"/>
		<polygon fill="#E30A17" points="95.4,185.1 95.2,185 95,185.2 94.8,185.5 94.7,185.7 94.6,186.1 94.5,186.2 94.5,186.4
			94.5,186.4 94.9,186.3 95,186.3 95.1,186.2 95.1,186.2 95.1,186 95.6,185.8 95.6,185.6 95.5,185.6 95.3,185.5 95.4,185.3 		"/>
		<polygon fill="#E30A17" points="7.5,60.6 7.5,60.3 7.1,60.3 7,60.1 6.8,59.8 6.7,59.7 6.4,59.6 6.1,59.7 4,60.5 2.3,60.8
			1.3,61.4 0.5,62.2 0,63.1 0,63.3 1,63.7 1.1,63.9 1.4,64 2,64.2 2.5,64.3 4.7,63.9 5.7,63.4 7.4,63.2 7.9,63 8.5,62.7 8.5,62.1
			8.3,62.1 7.9,62.4 7.5,62.5 7.3,62.4 7.5,61.9 7.4,61.6 7.4,61.2 7.4,60.8 		"/>
		<polygon fill="#E30A17" points="16.1,116.5 16.2,116.5 16.3,116.5 16.5,116.4 16.6,116.5 16.7,116.4 16.8,116.1 16.9,115.9
			16.8,115.6 16.5,115.7 16.3,115.8 16,116 16.1,116.2 		"/>
		<polygon fill="#E30A17" points="43,160.4 43.1,160.6 43.2,160.9 43.4,161 43.6,161 43.7,161.1 43.9,161.2 44,161.3 44.1,161.1
			44.3,161 44.3,160.8 44.1,160.6 43.9,160.5 43.6,160.5 43.4,160.4 43.1,160.2 42.9,160.1 42.7,160.2 42.8,160.3 		"/>
		<path fill="#E30A17" d="M458.6,74.7l0.6-0.2l0.4,0.3l0.7,1l0.3,0.4l1.5,0.7l0.5,0.4l2,1.4l-0.3-0.4l-0.3-1.2l-0.2-0.4l-0.4-0.6
			l-1.5-2l-0.1-0.2l-0.1-0.1h-0.1h-0.3h-0.1l-0.4-0.3l-0.9-1l-0.3,0.2l-0.1-0.2v-0.4l-0.1-0.3l-0.4-0.3l-0.2-0.2l-0.1-0.3l-0.1-0.5
			l-0.3-0.5l-0.6-0.7l-1.4-1.2l-3.4-2l-0.9-0.3h-0.9l-1.5,0.4l-0.7,0.1l-0.5,0.1h-0.3l-0.2-0.1l-0.3-0.3l-0.2-0.1l-0.5,0.1l-0.8,0.6
			l-0.4,0.1l-2.9-0.5l-2.6-1.5l-2.2-0.6l-1.1-0.6l-0.3-0.9l0.3-0.3l1.1-0.2l0.2-0.4l-0.2-0.4l-0.8-0.9l-0.3-0.6l0.4-0.3l-0.4-0.9
			l-1.1-1.4l-0.7-0.6l-0.2-0.5l0.2-0.5l0.2-0.4l0.4-1.3v-0.2l-1-0.8l-0.5-0.6l-0.1-0.4l0.8-1l0.5-0.4l0.6-0.1l-0.1-0.2v-0.1
			l-0.1-0.1l0.1,0.1h0.1h0.1l0.1,0.1v-0.8l0.3-0.7l1-1.2l-0.2-0.7l0.1-0.2l0.5-0.9l0.1-0.3l-0.1-2.2l-0.1-0.5l-0.2-0.6l-1-1.6
			l-0.2-0.6l-0.1-0.7l-0.1-0.6l-0.1-0.6l-0.3-0.6l-0.8-1l-1-0.8l-1-0.5l-1-0.1l-0.5-0.4l-0.4-0.9l-0.2-1L431,32l0.3-0.8l-0.3-0.8
			l-0.7-0.6l-0.7-0.4l-0.8-0.2h-0.7l-2.2,0.6l-0.3-0.3l-0.6-1.4l-0.5-0.6l-0.5-0.1l-0.5,0.1l-0.7-0.2l1.3-0.7l0.3-0.3l0.3-0.5v-0.2
			l-0.7-0.1l-0.8-0.4l-1.2-1l-1.8-1.2l-0.3-0.4l-0.7-1.4l-0.2-0.2l-0.2-0.1l-0.1-0.1l-0.1-0.1l-0.1-0.1l-0.7-0.2l-0.2-0.1l-0.2-0.4
			l-0.1-0.4l-0.2-0.2l-0.3,0.2l-0.6,0.7l-0.5-0.2l-0.5-0.5l-0.6-0.4l0.2-0.3l0.5-0.4l0.2-0.2l0.1-0.3v-0.3l0.1-0.3l0.2-0.3l-0.5-0.2
			l-3.4-0.3l-1.2,0.1l-0.6,0.2l-0.5,0.4l-0.2,0.5l-0.2,1.3l-0.2,0.5l-0.5,0.6l-0.7,1.1l-0.5,0.3h-0.6l-4.3-1.7l-1.2,0.1h-0.6
			l-0.4-0.4l-0.3-0.2h-0.4l-0.8,0.2l-0.4-0.2l-0.3-0.1l-0.3,0.1l-0.3,0.2l-0.9,0.3l-1.7-0.7l-1,0.4l-0.3,0.3l-0.8,1.1l-1,0.8
			l-0.2,0.1l-0.3-0.1l-1-0.9l-0.3-0.1l-0.7-0.1l-0.3-0.1l-0.1-0.2v-0.3v-0.2v-0.1h-0.2l-0.6,0.3l-0.7,0.1l-0.3-0.1l-2.6-1.1
			l-0.3,0.6l-1.4,1.3l-0.3,0.2l-0.1,0.7l-0.3,0.7l-0.4,0.6l-0.4,0.4l-0.3,0.1l-0.8,0.1l-0.3,0.1l-0.5,0.3l-0.6,0.2l-2.3,1.9
			l-0.4,0.1h-0.6l-0.6,0.1l-0.5,0.4l-1,1l-0.5,0.3l-0.5,0.3l-0.3,0.4l-0.5,0.1l-0.4,0.2l-0.9,0.6l-0.6,0.1l-1-0.4l-0.4-0.1l-0.3,0.1
			l-1.7,1.3l-1.4,1.9l-0.3,0.2l-0.4,0.1l-0.8,0.1l-0.3,0.1l-0.9,0.8l-0.8,0.5l-0.7,0.2l-0.7-0.1l-0.8-0.4l-4,2.6l-1.1,0.3l-0.6,0.4
			l-0.9,0.3l-0.6,0.1l-0.7,0.3l-0.4,0.1l-1-0.2l-0.7-0.5l-1.4-1.3l-0.6,0.1l-1.5,0.5l-0.4,0.3l-0.5-0.1l-0.4-0.2l-1.4-1.2l-0.2-0.1
			h-0.5H342l-0.7-0.5l-0.5,0.1l-0.5,0.2l-0.5,0.2l-1-0.2l-0.9-0.5l-1.4-1.3l-0.6-0.8l-0.4-0.4l-1.5-0.4l-0.3,0.1l-0.1,0.1l-0.1,0.1
			l-0.1,0.1l-1.3,0.8l-0.3,0.1l-0.5,0.1l-0.7,0.4l-0.4,0.1l-0.5-0.1l-0.8-0.6l-0.5-0.2l-0.8-0.1l-0.3,0.1l-0.6,0.5l-0.2,0.1l-2,0.4
			h-2.8l-0.5,0.2l-0.4,0.3l-0.4,0.3l-1.7,0.4l-0.5,0.2l-0.1,0.1l-0.1,0.2l-0.5,0.6l-0.3,0.1l-0.1,0.5l-0.2,0.2l-0.2,0.1l-0.3,0.1
			h-0.5l-0.2,0.1l-0.2-0.2l-0.4-0.5l-0.1-0.1h-0.3l-0.8,0.2l-0.3,0.2l-0.9,0.9l-0.4,0.3l-1.8,0.1l-0.3,0.2l-0.6-0.1l-0.9-0.3
			l-0.9,0.3h-0.5l-1.1-0.9l-0.5-0.1l-1.1,0.3H304l-1-0.3l-1.4-0.2l-2.9-1l-1.1-0.2l-0.9,0.4l-0.4-0.8L296,35l-0.3-0.3l-1.3-0.6
			l-0.3-0.5v-2l-0.6,0.1l-0.2-0.2l-0.4,0.4h-0.5l-0.4-0.3l-0.2-0.5l-0.4,0.3l-0.4,0.4l-0.4,0.5l-0.3,0.5l-0.3,0.9l-0.2,0.3l-0.2,0.1
			l-0.3,0.1l-0.1,0.2l-0.4-0.1l-1,0.1l-0.5-0.2l-0.6-0.6l-0.1-0.2l-1-0.3l-0.4-0.3l-0.6-0.7l-0.4-0.1l-0.6-0.1l-0.5-0.2l-0.3-0.2
			l-0.6-0.5l-0.9-0.2h-3.1l-0.5-0.2l-0.9-0.6l-0.5-0.1l-0.4-0.2l-0.1-0.6v-1.4l-0.4-1l-0.7-0.6l-3.6-1.8l-1.9-0.5h-2.1l-0.5-0.1
			l-0.4-0.2h-0.3l-0.3,0.3l0,0l-0.2,0.7v0.1l-0.1,0.2l-0.3,0.6l-0.1,0.3l-0.2,0.3l-1.3,1.1l-1,0.6l-0.6,0.1l-0.5-0.2l-0.2-0.2
			l-0.5-0.1l-0.2-0.1l-0.1-0.1l-0.2-0.4l-0.1-0.2l-0.3-0.1l-0.3-0.1l-0.2-0.2l-0.1-0.4v-0.3l-0.1-0.2l-0.1-0.1l-0.7-0.2l-1.2-0.7
			l-0.4-0.3l-0.8-1.5l-0.6-0.4l-1.1-1.3l-0.3-0.6l-0.1-0.5v-1.1v-0.2l0.2-0.5l0.1-0.3v-1.3l-0.3-0.9l-1.8-2.4h-0.2v0.4l-1.5-1.4
			h-0.1l-0.3,0.2l-0.3,0.4l-0.3,0.6l-0.2,0.7l-0.1,0.8h-0.2l-0.1-0.5l0.5-1v-0.5l0.2-0.1l0.2-0.2l0.1-0.2l0.1-0.2v-0.2l-0.5,0.1
			l-1,0.8l-0.6,0.2l-0.6,0.1l-2.6,1.1l-1.5,0.3l-0.9,0.6l-0.5,0.2l-1.1,0.1l-1.1-0.1l-1.1-0.3l-0.9-0.5l-0.8-0.7l-0.4-0.3l-1.1-0.2
			l-1.4-0.6l-0.4-0.3l-0.7-0.9l-0.7-0.4l-0.3-0.4l-0.2-0.5l-0.1-0.4h0.3V9.4l-1.3-1.1l-0.7-1l-0.7-1.2l-0.2-0.5V5l0.1-0.8l0.2-0.7
			l0.2-0.5l0.5-0.4l0.6-0.1l1.3,0.2V2.5L231,2l-0.2-0.1l-0.4-0.1l-0.3,0.1l-0.4,0.4l-0.3,0.2l-0.3,0.1l-0.6-0.2l-0.9-0.7V1.5
			l0.1-0.2l-0.2-0.2l-0.3-0.3L227,0.4h-0.2h-0.1h-0.1l-0.1,0.2l-0.3-0.2l-0.7-0.1l-0.3-0.1l-0.2,1l-0.6,1.1l-0.7,0.9l-0.9,0.5
			l-0.9,0.7l-0.4,0.2L220.2,5l-1.3,0.1l-3.2-0.2l-0.8-0.3l-0.7-0.4l-0.4-0.1l-0.9,0.1L210.1,5l-8-1.1l-3.2,0.3l-0.7-0.3l-0.4,0.2
			l-5.2-0.5l-1.2-0.5L190.8,3h-2.6l-1.8-0.3l-0.9,0.1l-3.9,2l-3.8,1.3l-1.1,0.8l-0.9,0.4l-1.7,0.4l-0.3-0.2l-0.4,0.3L172.7,8
			L172,8.1h-0.4l-0.4,0.2l-1.5,0.5h-0.4l-0.6-0.3L168,8.6L167.4,9l-0.3,0.5l-0.4-0.2h-0.3l-0.3,0.2l-0.3,0.2l-1.7,0.9l-0.4,0.3
			l-0.5,0.6l-0.4,0.2l-0.1-0.1l-0.2-0.3l-0.1-0.1l-0.1,0.1l-0.1,0.1l-0.1,0.2l-0.3,0.1l-0.2,0.1V12l-1.3,0.1l-0.8,0.2l-0.4,0.7
			l-0.1,0.2l-1.6,1.8l-0.4,0.8l-0.7,0.4L154,17l-0.2,0.1l-0.9,0.7l-3,1.5l-0.5,0.3c4.2-0.7,8.5-1.1,12.8-1.1
			c28.1,0,52.7,14.7,66.7,36.7c-11.6-12.8-28.3-20.9-47-20.9c-34.9,0-63.2,28.3-63.2,63.2s28.3,63.2,63.2,63.2
			c18.6,0,35.4-8.1,47-20.9c-14,22.1-38.6,36.7-66.7,36.7c-2.1,0-4.2-0.1-6.3-0.3l0.3,0.6h0.1l0.3,0.1l0.1,0.1l0.3,0.5l0.3,0.4
			l0.1,0.2v0.2l0.3,0.9l1.5,1.3l0.6,0.8l0.1,0.3l0.1,0.9l0.1,0.2l0.5,0.3l0.1,0.2h0.2l1.1,1.5l0.4,0.2l0.5,0.1l0.4,0.2l0.2,0.4
			l0.3,0.3l1.8,1.1l0.4,0.1l0.9,0.1l1.6,1l0.9,0.5l2.2,0.5l1,0.1l1.3-1l0.2-0.3l0.3-0.1l1.6-0.8h0.5l1.6,0.4h0.8h0.3l0.2,0.1
			l0.1,0.1h0.1l0.3-0.2l0.3-0.4l0.2-0.5l0.3-0.4l0.6-0.2l0.3,0.1l0.5,0.3l0.3,0.1h0.3l0.7-0.2h1.1l0.5-0.1l0.4-0.5l0.5,0.1l0.9,0.3
			l0.4-0.1l0.9-0.4l0.5-0.1l0.5,0.1l1,0.3l0.6,0.1v0.2l-0.3,0.2l0.5,0.1l0.5-0.5l0.5-0.7l0.6-0.5l0.3-0.1l0.3-0.1l0.2,0.1l0.1,0.4
			l0.6,1l0.1,0.2l0.1-0.2l0.2-0.8l0.1-0.3l0.7-0.8l0.2-0.1l0.8-0.4h0.2l0.3-0.1l0.3-0.6l0.3-0.2l-0.1-0.1l-0.1-0.1l-0.2-0.1l0.4-0.1
			l0.2-0.3l0.4-0.7l0.4-0.3l0.3,0.1l0.3,0.2l0.4,0.1l0.5,0.3l0.4,0.8l0.1,0.8l-0.2,0.5v0.2h0.4l0.1-0.2v-0.4l0.1-0.4l0.2-0.4
			l0.5-0.6l0.1-0.2l-0.1,0.1l-0.1,0.1l0.3-0.6l0.7-0.2l0.7-0.1l0.5-0.4V180l-0.1-1l0.1-0.8l0.8-0.5l0.9-0.9l0.5-0.2l0.2-0.2l0.1-0.3
			l0.2-0.5l2.1-2.7l0.8-0.6l2.6-1.6l2.1-1.9l0.8-0.4l0.1-0.1l0.2-0.6l0.1-0.1l0.7-0.4l0.3-0.1l0.7-0.1l1.6-0.8l1-0.2l0.7,0.4
			l0.1-0.2l2,1.1l1,1.1l0.3,0.2l-0.1,0.5l-0.1,0.1l0.3-0.1l0.4-0.1h0.4h0.4l0.5,0.2l0.8,0.5l0.7,0.2l6.1,3.7l0.3,0.1l0.3,0.1
			l0.4,0.6l0.2,0.1l0.1-0.1l0.6-0.5l0.5-0.2l0.2-0.1l0.1-0.2l0.1-0.1l0.6-0.3l0.2-0.1l1.1,0.1l1,0.3l-0.8-0.4l-0.2-0.1h-0.2l0.1-0.3
			l0.2-0.2l0.3-0.1l0.2,0.1l0.8,0.7l0.3,0.1l0.8-0.1l0.2-0.1l0.4-0.3l0.2-0.1l0.2-0.1v-0.3v-0.4l0.1-0.3l0.1-0.2l0.2-0.5l0.1-0.3
			l0.9-0.9l-0.4,0.1l-0.3,0.2l-1.1,1.3l-0.3,0.2V171l0.4-0.7l0.7-0.5l1.4-0.7l-0.3-0.1l-0.3,0.1l-0.2,0.2l-0.3,0.1l-0.2-0.2
			l-0.1-0.3l-0.1-0.2l-0.3,0.2l0.1,0.2v0.2v0.2l-0.1,0.2l-0.1-0.1l-0.1-0.1l-0.1-0.1h-0.1l-0.1,0.5l-0.5-0.2l-0.4,0.5l-0.2-0.5
			l0.2-0.4l0.3-0.4l0.2-0.5l0.2,0.1l0.1,0.1v0.2l-0.1,0.2l0.3-0.2l0.3-0.6l0.3-0.3l0.9-0.3l2-0.1l0.9-0.2l0.4-0.3l0.8-0.9l0.2-0.2
			l0.4-0.1l0.3-0.3l1.4-1.7l0.8-0.7l0.9-0.3l0.9,0.2l0.9,0.6l0.8,0.8l1.4,2l0.2,0.5l0.1,0.5v1.9v0.2l0.1,0.3l0.1,0.3l0.1,0.3v0.4
			l-0.1,0.5l-0.2,0.6l-0.3,0.5l-0.3,0.2l-0.4,0.1l-2.6,1.7h-0.3l-0.2,0.3l-1.1,1.4l-0.2,0.1l-1,0.3l-0.2,0.1l-0.1,0.2l-0.3,0.2
			l-0.1,0.6l-0.1,0.3l-0.2,0.2l-0.4,0.2l-0.2,0.2l-0.3,0.7l-0.1,0.1h-0.3l-0.3,0.1l-0.2,0.2l-0.2,0.2l-0.7,1v0.5l0.3,0.7l0.3,0.4
			l0.4,0.4l0.3,0.4l0.3,0.9l0.3,0.5l0.3,0.4l1.7,2.8l0.7,2.1v0.5l-0.3,0.2l-1,1.9l-0.3,0.4l0.2,0.1l0.5-0.1l0.5-0.2l0.5-0.1l0.3,0.3
			v0.4l-0.1,0.4l0.1,0.4l0.3,0.2l0.4,0.1h0.8l0.7,0.3l1.4,1l0.5-0.1l0.3-0.9l0.1-2.1l0.5-0.9l0.8-0.3l0.6,0.2l0.4-0.1l0.2-1.1l0,0
			l0,0l0.5-0.2l1,0.4l0.5-0.2l-0.1-0.8l0.1-4.3v-0.4l0.1-0.2l0.2-0.2v-0.3l-0.3-0.4l0.3-0.3l0.3,0.4l0.3,0.2l0.3,0.1l0.7,0.1h0.1
			h0.1l0.2-0.1l0.1-0.2v-0.2l0.1-0.2l0.3-0.1l0.4-0.1l1.8,0.3h0.5l1.7-0.3l0.1-0.3v-0.7l-0.1-0.4l-0.2-0.5l-0.2-0.5l-0.3-0.3
			l-0.4-0.2l-0.8-0.1l-0.2-0.2h0.1l0.1-0.3l0.2-0.4v-0.3V179l1.2-0.4l-0.1-0.2l-0.1-0.1l-0.4-0.2l-0.2-0.2l-0.1-0.2l-0.5-1.6
			l-0.1-0.5l0.1-0.4l0.7-1.2l0.1-1.3v-1.3l0.3-1.3l0.3-0.7l0.1-0.6v-0.6l0.1-0.7l0.3-0.6l0.4-0.5l0.3-0.6l-0.1-0.7h0.2h0.2l4.5,1.6
			l1.5,0.1l0.5,0.1l0.5,0.2l0.5,0.3l0.4,0.3l0.7,0.7l0.2,0.4v0.6l-0.2,1l0.1,0.3l0.5,0.4l0.5,0.3l0.2-0.1l0.2-0.3l0.4-0.4l0.5-0.2
			h0.4l0.4,0.1l0.5,0.1l1.5-0.4h0.5l3.9,0.7h1l3.6-2.3l1.5-0.7l4-0.9l3.9-1.8l0.7-0.2l2.8-1.8l1.6-0.6l0.8-0.1l1.6,0.2l4.6,1.4
			l1.2,0.7l3.3,3.4l1.5,0.8l1.7,0.2l3.9-0.2l0.5-0.2l1.3-0.1l3.7,1.2l1.3-0.1l12.8-2.4l5.2-2l2.4-1.4l0.9-0.3l0.9-0.2l0.9-0.4
			l4.9-3.3l0.5-0.3l0.5-0.2l0.5-0.1h0.6l1.1-0.3l3.2-1.8l1.2-0.5l4.5-0.7l5.8,1.2l1.1,0.4l0.5,0.1l6.8-0.3l12.8-3l1.1-0.6l1.8-1.7
			l1.2-1.6l0.4-0.2l0.4-0.4l0.3,0.3v0.4v0.3v0.1l0.3,0.1l0.7,0.4l0.1-0.1l0.1-0.2l0.2-0.1h0.1l0.1,0.2l0.1,0.3l0.1,0.2l0.8,0.7
			l0.2,0.1l0.2,0.4l-0.4,1.7l0.3,0.4l0.2,0.2v0.4v0.9l1.1-0.1l1.4-0.5l2.1-0.3l0.4-0.2l0.1-0.2l0.3-0.8l3-4.4l0.1-0.2v-0.2v-0.2
			l0.2-0.2l0.2-0.1l1.2-0.5h0.2h0.3l0.2,0.2l0.1,0.5l0.2,0.2l2,0.7l1,0.1l1-0.4l0.6-0.5l0.9-0.4l1-0.3l0.8-0.1l0.4,0.1l3.2,1.7
			l0.2,0.1h0.2h0.2l0.2-0.2l0.2-0.1l0.5-0.1l0.3,0.1l1,0.8l1,0.5l1.1,0.9l0.4,0.2h0.3l0.6-0.2l0.3-0.1l0.3,0.1l0.2,0.1l0.4,0.3
			l0.6,0.3l0.6,0.1l2.5-0.2l0.6,0.1l0.6,0.1l0.2,0.2l0.5,0.5l0.2,0.1l0.3-0.1l0.4-0.4l1.3-0.2l0.7-0.9l0.7-1l0.9-0.8l1.1-0.2
			l1.3,0.2l2.3,1l0.6,0.4l0.4,0.4l0.3,0.5l0.2,0.7l0.1,0.7v0.4v0.3l-0.2,0.3l-0.2,0.1l-0.3,0.1l-0.3,0.2l-0.4,0.5l-0.2,0.6v0.6
			l0.2,0.6l1,2.2l0.2,0.3l0.2,0.2l1,0.3h0.3l0.2-0.2l0.2-0.5l0,0l0.4-0.6l0.1-0.5l0.2-0.3l2.1-0.7l0.6-0.3l0.6-0.5l0.6-0.7l0.9-0.8
			l0.9-0.7l0.8-0.4h0.5l2.5,0.4l0.5,0.2l0.3,0.5l0.1-0.6l-0.1-0.5l-0.2-0.5l-0.1-0.6l0.2-0.5l0.3-0.3l0.3-0.2l0.3-0.4l0.1-1
			l-0.6-0.6l-1.4-0.9l-0.2-0.4l-0.1-0.4l-0.2-0.3l-0.9,0.1l-0.2-0.3l-0.3-0.9l-0.4-0.3l-0.9-0.1l-0.3-0.2l-0.1-0.5l0.3-0.9l-0.1-0.5
			l0,0l-0.1-0.6v-0.8l0.2-0.8l0.2-0.6l-0.1-0.5l-0.5-0.4l-0.5-0.5l0.1-0.9l0.2-0.3l0.8-0.7l0.2-0.4l-0.1-0.3l-0.9-1.1l-0.6-0.5
			l-0.7-0.3l-0.7,0.1l-0.3,0.2l-0.4,0.1h-0.3l-0.2-0.3v-0.2l0.1-0.5v-0.2l-0.2-0.1h-0.2l-0.2,0.1l-0.2-0.1l-0.3-0.3l-0.1-0.4
			l-0.1-0.4l-0.1-0.3l-0.3-0.2l-0.9-0.4l-0.3-0.1l-1.6,0.2l-0.8-0.1l-0.4-0.7l0.1-0.3l0.3-0.3l0.2-0.3v-0.4l-0.1-0.4v-0.4l0.2-0.4
			l0.2-0.4l0,0l0.2-0.4l0.6-0.7l0.2-0.5l0.2-0.6l0.2-0.4l0.3-0.3l0.5-0.2l0.1-0.2l-0.2-0.6v-0.3l0.2-0.2l0.4-0.2l0.2-0.2l0.2-0.5
			l0.1-0.6l0.1-0.6l-0.1-1.5l0.7-0.8l0.9-0.7l0.5-0.8v-0.5l-0.2-0.5l-0.3-0.4l-0.3-0.3l-0.4-0.1l-0.3,0.1l-0.8,0.5l-1.2-0.2
			l-0.4-0.2l-0.2-0.2l-0.1-0.3l0.1-0.5v-0.3l-0.1-0.8v-0.3l0.3-1.2v-0.5l-0.2-1.6l0.1-1.2v-0.6l-0.2-0.5l-0.2-0.2l-0.2-0.1l-0.4-0.1
			l-0.3-0.2l0.1-0.2l0.2-0.2l0.1-0.2l-0.1-0.6l-0.1-0.4v-0.4l0.1-0.6l0.7-2.2l-0.1-0.9l-1.3-0.6l-0.4-0.4l-0.3-0.5l-0.2-0.7
			l-0.1-0.2l-0.1-0.2v-0.3v-0.3l-0.2-0.2l-0.2-0.2l-0.1-0.2l-0.1-0.5l-0.1-0.2L448,99l0,0l0.3-0.6l0.4-0.3l0.2-0.4l-0.2-1.2l0.1-0.5
			l0.5-0.9l-0.2-0.8l-0.9-0.7l-1.1-0.6l-0.6-0.5v-0.3l0.2-0.6v-0.3l-0.3-0.6l-0.1-0.3v-0.3l0.1-0.2v-0.2l-0.3-0.6l-0.1-0.7l-0.1-0.3
			l-0.6-0.8l-0.1-0.4l0.3-0.4l0.5-0.3l0.4-0.1h0.4l0.5,0.1l0.6-0.1l1.3-0.3l0.6,0.1l1.7,0.8l0.6,0.1l0.5-0.1l1.3-0.6l0.5-0.3
			l0.4-0.6v-0.6l-0.1-0.6l0.1-0.7l0,0l0.2-0.4v-0.4l-0.1-0.4l-0.1-0.4l0.1-0.5l0.1-0.4l0.8-1.6l0.1-0.4l0.1-0.5l-0.1-1l0.1-0.4
			L458.6,74.7z M297,120.8l-27.3-8.9l-16.9,23.2v-28.7l-27.3-8.9l27.3-8.9V59.9l16.9,23.2l27.3-8.9l-16.9,23.4L297,120.8z"/>
		<polygon fill="#E30A17" points="25,113.8 25,114.7 25.1,114.8 25.7,115.1 25.7,115.3 25.9,115.4 26.2,115.3 26.3,114.9
			26.2,114.7 25.9,114.3 25.9,113.5 25.7,113.1 25.4,112.9 25.2,112.8 25.1,112.8 25.1,113.1 25.1,113.5 		"/>
		<polygon fill="#E30A17" points="7.8,72.3 7.6,72.6 7.8,72.9 8.1,73.2 8.8,73.5 9.6,74.1 10,74.1 10.1,73.6 10.2,72.5 10,72.2
			9.6,72.4 9.5,72.3 9.4,72.2 9.3,72.2 9.1,72.2 8.3,72.2 		"/>
		<polygon fill="#E30A17" points="48.8,48 49.8,47.8 50.2,47.5 50.1,47 49.5,46.6 48.8,46.5 48.4,46.6 47.7,46.3 47.1,46.3
			46.5,46.5 45.9,46.8 45.8,46.5 45.7,46.4 45.5,46.5 45.3,46.7 45.2,47.1 45.3,47.3 45.5,47.6 45.4,48.2 45.8,48.6 46.3,48.8
			46.6,48.8 47.1,49.1 47.6,48.9 48.4,48.1 		"/>
		<polygon fill="#E30A17" points="48,51.9 48,51.7 47.2,51.3 47,51.6 46.7,52 46.5,52.2 46.5,52.6 46.9,52.8 47.3,52.9 47.7,53
			48.1,53.1 48.3,53.1 48.4,52.8 48.3,52.7 48.1,52.8 47.8,52.5 47.9,52.2 		"/>
		<polygon fill="#E30A17" points="69.3,51.2 69.6,51 69.8,49.8 70,49.7 70,49.6 69.8,49.4 69.7,49.4 69.3,49.5 69.4,50.1 69.2,50.9
					"/>
		<polygon fill="#E30A17" points="11.6,42.1 11.4,43 10.9,43.6 10.1,44 9.2,43.9 9.2,44 9,44 9.3,44.5 9.6,45.2 9.6,45.9 9.5,46.4
			9.7,46.9 9.8,47.4 10,47.9 10.4,48.1 11,48.2 15.5,48.3 16.8,47.9 17.2,47.9 17.9,48.2 18.2,48 18.6,47.8 19,47.7 19.4,47.8
			19.7,47.9 20.4,48.4 22.3,47.3 22.9,47.1 24.6,47.1 24.9,47 25.5,46.7 27.3,46.4 27.5,46.7 28.3,48.2 28,48.9 27.3,49.5
			26.5,49.7 25.9,49.5 25.6,49.9 25.1,50.7 24.7,51 24.4,51.2 23.3,51 22.6,51.2 21.9,51.5 21.2,52 20.1,52.9 18.7,53.4 17.5,54.4
			16.3,55.1 16,55.8 15.5,55.8 14.2,56.3 14,56.5 13.8,56.6 13.5,56.8 13.3,57.1 13.4,57.3 13.7,57.4 13.8,57.5 13.7,57.7
			13.5,57.9 14.2,58.5 14.6,59.2 14.8,60 14.5,61.2 13.4,62.7 13.2,63 13.1,63.7 12.8,64.4 12.4,64.7 12.2,64.8 12,65.2 12,65.6
			12.2,65.8 12.5,65.7 13.8,65.3 14.1,65.1 14.8,64.4 15.8,63.9 16.1,63.6 17.3,62.5 16.9,62.2 16.6,61.6 16.5,61 16.9,60.8
			17.4,60.7 18,60.4 18.5,60.1 19,59.7 19.6,58.9 19.7,58.8 19.7,58.7 20.2,58.2 20.5,57.9 21.3,57.7 21.4,57.6 22.8,56.4 23.1,56
			23.3,55.4 23.3,54.9 23.5,54.7 24.3,54.2 24.5,53.9 24.7,52.9 25,52.7 25.4,52.6 26.1,51.9 26.6,51.6 28.1,51.4 28.5,51.1
			28.9,50.8 30.3,49.9 31.2,49.6 32.2,49.5 32.5,49.3 33.2,48.3 33.6,47.9 34.1,47.9 35.2,47.9 35.9,47.4 36.5,47.4 36.7,47.3
			36.9,47.2 37.1,46.8 37.2,46.6 39.4,45 40.5,43.2 42.7,40.9 43.3,40 43.9,37.4 44.4,36.3 45.1,35.9 50.3,35.1 51.3,35.2
			52.2,35.5 52.6,35.7 52.9,36 53.3,36.2 55.3,36.5 55.7,36.3 55.7,36.1 55.8,35.7 56.4,34.8 56.6,34.5 57,34.2 57.4,34 57.8,33.9
			59.1,33.4 59.4,33.4 59.5,33.3 60.7,32.8 61.1,33 61.5,33 62.4,32.8 62.6,32.9 62.9,33.2 63.1,33.3 63.9,33.3 64.8,33.4 66.5,34
			67.3,34.2 67.9,34.5 69.1,35.8 69.8,35.9 70.1,35.6 70.3,35.1 70.3,34.7 70.3,34.4 70.1,33.8 69.6,33.3 69.5,32.8 70.1,33
			70.6,33.4 70.8,34.1 70.7,34.8 70.9,34.8 71.1,34.9 71.3,35.2 71.1,36.2 71.9,36.6 74.8,36.2 75.4,36.2 75.6,36.4 75.8,36.6
			76,36.7 76.6,36.8 76.9,36.7 77.1,36.6 77.2,36.4 77.3,36.3 77.5,36.2 78.5,36 79,35.7 79.2,35.7 79.3,35.6 79.5,35.3 79.6,35.2
			79.8,35.3 80,35.4 80.5,35.5 80.6,35.5 80.8,35.3 80.8,35.1 80.7,35 80.7,34.8 80.7,34.7 80.7,34.5 80.9,34.3 81.1,34.1 81.5,34
			81.7,33.8 82,33.4 82.2,32.9 82.4,32.3 82.5,31.7 82.5,31.7 82.6,31.5 82.7,31.4 82.5,31.3 82.5,31.2 82.3,31 82.2,30.7 82,30.5
			81.9,30.3 82.2,30.2 82.6,29.9 83.1,29.4 83.4,28.8 83.6,28 83.2,27.6 82.6,27.4 82.1,27.3 81.9,27.4 81.7,27.7 81.5,27.7
			81.4,27.7 81.3,27.7 81.3,27.6 81.1,27.5 78.7,27 71.3,23.4 66,21.2 62.3,18.9 61,17.6 60.5,16.7 60.1,16.3 59.4,15.9 59,15.4
			58.7,14.8 58.5,14.3 58.6,14.1 58.7,14.1 58.8,14.1 58.9,13.9 58.8,13.7 58.8,13.7 58.7,13.6 58.6,13.3 58.4,13 57.9,12.6
			57.7,12.2 57.2,10.7 56.8,10.1 56.4,9.6 56,9 55.9,8.2 55.9,7.4 56.1,6.9 56.5,6.7 56.9,6.7 57.3,6.9 57.6,7 57.8,6.8 57.8,6.6
			57.7,6.4 57.6,6.2 57.4,6.1 57.4,5.7 57.1,4.2 56.2,4 55.9,3.8 54.7,4 54.3,3.9 53.7,3.6 53.1,3.4 52.9,3.4 52.4,3.5 52.3,3.4
			52.2,3.4 52.1,3.4 52,3.5 51.9,3.8 51.9,4.2 51.9,4.6 52.3,4.8 52.2,5 51.9,5.1 51.6,5.1 51.2,5 50,4.3 49.1,4.3 47.2,4.8
			47.1,5.1 47.1,5.3 46.9,5.3 46.7,5.1 46.5,5.4 46.3,5.5 45.8,5.7 45.8,5.8 45.9,5.8 46,5.9 46,5.9 45.9,6 45.8,6.1 45.7,6.2
			46.1,6.3 45.7,6.5 45.4,6.2 44.8,5.4 44.4,5.1 42.6,4.1 42,3.6 41.5,3 40.5,1.4 39.8,0.7 39,0.3 38.2,0.1 37.7,0.1 37.4,0.4
			36.8,1.1 36.8,1.2 36.7,1.4 36.6,1.4 36,1.2 35.5,1.2 35.2,1.2 34.9,0.9 34.4,0.7 34,0.6 33.5,0.6 33,0.9 32.4,1.9 32,2.2
			31.6,2.3 31.4,2.7 31.2,3.1 30.9,3.4 30.7,3.4 30.3,3.4 30,3.5 29.8,3.7 29.5,3.7 29.3,3.6 29,3.6 28.8,3.8 28.2,4.3 28,4.4
			27.8,4.3 27.3,3.9 27.1,3.8 26.8,3.9 26.3,4.4 26,4.6 25.6,4.6 23.3,4.3 22.8,4.3 22.5,4.6 21.8,5.3 21.6,5.5 21.4,5.6 21.3,5.8
			21.4,6 21.7,6.2 21.7,6.3 21.7,6.4 21.6,6.7 21.6,6.9 21.5,7.3 21.4,7.9 21.2,8.5 20.9,9 19.8,9.3 17.3,9.2 16.3,10.1 15.9,10.9
			15.8,11.6 16,12.2 16.2,12.6 16.9,12.5 17.3,12.6 18,13.3 18.9,13.5 19.3,13.7 19.7,13.8 19.6,14.2 19.4,14.7 20.8,15.7
			21.9,16.3 22.1,16.5 22.6,15.8 22.6,16.1 22.6,16.3 22.7,16.5 22.8,16.7 22.7,17.1 22.7,17.9 22.6,18.2 22.9,18.7 23,19.3
			23.1,20.5 23.5,22 23.6,22.7 23.6,23.4 23.5,24 23.3,24.6 22.9,24.9 22.5,25 22,24.8 21.5,24.6 21.3,24.2 20,25.6 19.8,25.6
			19.7,25.7 19.6,25.8 19.5,26 18.8,26.4 18.1,27 17.7,27.2 16.2,27.4 15.9,27.6 16.3,28.2 16,28.9 15.9,29.5 16,30.1 16.3,30.6
			15.9,31.4 15.9,31.6 16.2,31.7 16.4,31.9 16,32.7 16,33.2 16.4,33.9 16.6,34.2 17.2,34.5 17.2,34.9 17.1,35.3 16.9,35.5
			16.5,35.5 16.3,35.6 16.2,35.8 16.3,36.1 16.6,36.4 16.8,36.6 16.9,36.7 16.6,37 16.3,37.3 15.6,37.6 15.3,37.9 15.4,38
			15.5,38.2 15.5,38.4 15.2,38.5 15,38.5 14.8,38.4 14.7,38.3 14.6,38.1 14.5,38.1 14.3,38.7 14.1,39 14,39.2 13.8,39.2 13.8,39.1
			13.6,38.8 13.6,39.1 13.6,39.3 13.5,39.3 13.3,39.4 13.3,39.5 13.3,39.6 13.4,39.6 13.5,39.6 13.2,39.7 13.1,39.9 13.1,40.1
			13.3,40.4 12,41.5 		"/>
		<polygon fill="#E30A17" points="89.6,183.5 89.5,183.6 89.3,183.6 89.4,183.8 89.6,183.7 		"/>
		<polygon fill="#E30A17" points="91.7,183.5 91.7,183.7 91.8,183.6 91.9,183.4 		"/>
		<polygon fill="#E30A17" points="79.2,170 79.2,170 79.4,169.9 79.4,169.8 79.1,169.7 79,169.7 78.9,169.6 78.8,169.6 78.7,170
			78.9,170.4 79,170.3 		"/>
		<polygon fill="#E30A17" points="36.3,141.8 36,141.9 36.2,142.1 36.5,142.8 36.6,142.8 36.5,142.7 36.6,142.7 36.7,142.9
			36.9,143 36.6,142.6 36.4,142.2 36.3,142.1 36.4,141.9 		"/>
		<polygon fill="#E30A17" points="59.7,172 59.7,172.1 59.7,172.1 59.8,172.1 		"/>
		<polygon fill="#FFFFFF" points="269.7,83.3 252.8,60 252.8,88.7 225.5,97.6 252.8,106.5 252.8,135.2 269.7,111.9 297,120.8
			280.1,97.6 297,74.4 		"/>
		<path fill="#FFFFFF" d="M229.7,139.9c-11.6,12.8-28.3,20.9-47,20.9c-34.9,0-63.2-28.3-63.2-63.2s28.3-63.2,63.2-63.2
			c18.6,0,35.4,8.1,47,20.9c-14-22.1-38.6-36.7-66.7-36.7c-4.4,0-8.7,0.4-12.8,1.1l-4.7,3.1l-3.7,1.4l-0.2,0.1l-0.1,0.1l-0.4,0.6
			l-0.1,0.1l-1.1,0.1l-0.5,0.2l-0.3,0.4l0.1,0.3l0.5,0.3l0.1,0.2l-0.1,0.4l-0.2,0.6l-0.1,0.3v0.7l-0.1,0.5l-0.2,0.4l-0.3,0.4
			l-1.3,1.3l-0.8,0.5l-1,0.4l-0.1,0.1v0.1l-0.1,0.1l-0.4,0.2H135l-0.2-0.1h-0.1l-1,0.2h-0.3l-0.5-0.1h-0.3l-0.2,0.1l-0.6,0.4
			l-6.2,0.2l-2.1-0.4l-0.4-0.2l-0.8-0.7l-2-0.5C98.5,45.6,84,70,84,97.9c0,28,14.6,52.6,36.5,66.6l1.4-0.9l1,0.8l0.5,0.3l0.7,0.2
			l4-0.2l9.7,1.5l0.9,0.5l0.1,0.7l0.7,0.1l4.6,2l0.4,0.4l0.4,0.3l1.8,0.8l0.5,0.1h0.3l0.3,0.3l0.5,0.7l0.9,0.4l0.2,0.2l0.4-0.1
			l0.7,0.1l0.6,0.2l0.3,0.3l0.2,0.3l0.5,0.1h1l0.1,0.1l0.1,0.1l0.2,0.1l0.3,0.1h0.3h0.2l0.2,0.1l1.5,1.5l0.4,0.2l0.3,0.5l0.2,0.4
			c2.1,0.2,4.2,0.3,6.3,0.3C191.1,176.6,215.7,161.9,229.7,139.9z"/>
	</g>
	<path fill="none" stroke="#999999" stroke-width="0.25" stroke-linecap="round" stroke-linejoin="round" d="M16.1,116.5L16.1,116.5
		l0.2-0.1l0.2-0.1l0.1,0.1h0.1v-0.3l0.1-0.2l-0.1-0.3l-0.3,0.1l-0.2,0.1l-0.3,0.1v0.2L16.1,116.5z M36.6,142.6l-0.2-0.3l-0.1-0.1
		l0.1-0.2l-0.1-0.1l-0.2,0.1l0.1,0.3l0.3,0.7v-0.1l-0.1-0.1l0.1,0.1l0.1,0.2l0.2,0.1L36.6,142.6z M43,160.4l0.2,0.2l0.1,0.3l0.2,0.1
		l0.2,0.1h0.2l0.2,0.2h0.1l0.1-0.1l0.2-0.1v-0.2l-0.4-0.3l-0.2-0.1l-0.3-0.1l-0.2-0.1l-0.3-0.2l-0.2-0.1l-0.2,0.2l0.1,0.1L43,160.4z
		 M79,169.7l-0.1-0.1l-0.1,0.1l-0.1,0.4l0.2,0.3l0.1-0.1l0.2-0.2l0.1-0.1l0.2-0.1l0.1-0.1l-0.3-0.1L79,169.7z M91.7,183.7l0.1-0.1
		l0.1-0.1l-0.2,0.1V183.7z M89.3,183.6l0.1,0.2l0.2-0.2v-0.1l-0.1,0.1H89.3z M102.1,184.5l-0.3,0.2l-0.2,0.1l-0.2,0.2l-0.2,0.1
		l0.1,0.1l0.2-0.1h0.2l0.3-0.1h0.2l0.2,0.1l0.2-0.3v-0.1h0.1l0.1-0.1l0.2-0.1l0.1-0.2l-0.5,0.3L102.1,184.5z M92.9,185.2l-0.2,0.2
		l0.1,0.1l0.2,0.1v-0.1h0.1l0.1-0.1l-0.1-0.1L92.9,185.2z M99.2,185.9l-0.2,0.2l-0.1,0.3l0,0l0.2-0.1l0.3-0.2l0.2-0.1l-0.1-0.1
		L99.2,185.9z M96.9,186.1L96.9,186.1V186V186.1z M83.9,40.2L83.9,40.2l0.1-0.1v-0.4l-0.4,0.1l-0.1,0.1V40l-0.1,0.1l-0.1,0.1v0.2
		v0.2l0.3,0.2l0.1-0.5L83.9,40.2z M95.5,185.6l-0.1-0.1v-0.2v-0.2h-0.2l-0.2,0.2l-0.2,0.3l-0.1,0.2l-0.1,0.4l-0.1,0.2v0.2l0,0
		l0.4-0.1H95l0.1-0.1h0.1v-0.1l0.4-0.2L95.5,185.6L95.5,185.6z M69.3,51.2l0.3-0.1l0.2-1.2l0.2-0.1v-0.2l-0.1-0.1h-0.1l-0.4,0.1
		l0.1,0.5L69.3,51V51.2z M25,113.8v0.9l0.1,0.2l0.6,0.2l0.1,0.2l0.2,0.2l0.3-0.2l0.1-0.4l-0.1-0.2l-0.3-0.4v-0.8l-0.2-0.4l-0.3-0.2
		l-0.2-0.1h-0.1v0.3l-0.1,0.4L25,113.8z M59.7,172.1L59.7,172.1h0.2H59.7L59.7,172.1z M196.9,184.8l0.2-0.2l-0.2,0.1V184.8z
		 M10.1,73.6v-1.1L10,72.2l-0.4,0.2l-0.1-0.2H9.4H9.3H9.1H8.2l-0.4,0.1l-0.2,0.3L7.7,73L8,73.3l0.7,0.3l0.8,0.5h0.4L10.1,73.6z
		 M48,51.9v-0.2l-0.8-0.4L47,51.6L46.8,52l-0.3,0.2v0.4l0.3,0.2h0.5l0.4,0.1l0.3,0.2l0.3-0.1v-0.3l-0.1-0.1H48l-0.2-0.2V52L48,51.9z
		 M48.8,48l0.9-0.1l0.4-0.3L50,47l-0.6-0.3l-0.7-0.1l-0.4,0.1l-0.6-0.3h-0.6l-0.6,0.2l-0.6,0.3l-0.1-0.3l-0.1-0.1l-0.2,0.1l-0.2,0.2
		l-0.1,0.3l0.1,0.3l0.2,0.2l-0.1,0.7l0.4,0.3l0.5,0.2h0.3l0.5,0.2l0.5-0.2l0.8-0.7L48.8,48z M8.5,62.7v-0.6H8.3l-0.4,0.3l-0.4,0.1
		l-0.2-0.1l0.2-0.5l-0.1-0.3v-0.4v-0.4l0.1-0.3v-0.2l-0.3-0.1L7,60l-0.1-0.2l-0.2-0.1H6.4l-0.3,0.1L4,60.6l-1.6,0.3l-1,0.6l-0.8,0.8
		L0,63.2v0.2l1,0.3l0.1,0.2l0.3,0.2L2,64.3h0.5L4.7,64l1.1-0.5l1.6-0.3L7.9,63L8.5,62.7z M462.4,149.6l-0.2-0.4l-0.1-0.4l-0.2-0.3
		l-0.9,0.1l-0.2-0.3l-0.3-0.9l-0.4-0.3l-0.9-0.1l-0.3-0.2l-0.1-0.5l0.3-0.9l-0.1-0.5l0,0l-0.1-0.6v-0.8l0.2-0.8l0.2-0.6l-0.1-0.5
		l-0.5-0.4l-0.5-0.5l0.1-0.9l0.2-0.3l0.8-0.7l0.2-0.4l-0.1-0.3l-0.9-1.1l-0.6-0.5l-0.7-0.3l-0.7,0.1l-0.3,0.2l-0.4,0.1h-0.3
		l-0.2-0.3v-0.2l0.1-0.5v-0.2l-0.2-0.1H455l-0.2,0.1l-0.2-0.1l-0.3-0.3l-0.1-0.4l-0.1-0.4l-0.1-0.3l-0.3-0.2l-0.9-0.4l-0.3-0.1
		l-1.6,0.2l-0.8-0.1l-0.4-0.7l0.1-0.3l0.3-0.3l0.2-0.3v-0.4l-0.1-0.4v-0.4l0.2-0.4l0.2-0.4l0,0l0.2-0.4l0.6-0.7l0.2-0.5l0.2-0.6
		l0.2-0.4l0.3-0.3l0.5-0.2l0.1-0.2l-0.2-0.6v-0.3l0.2-0.2l0.4-0.2l0.2-0.2l0.2-0.5l0.1-0.6l0.1-0.6l-0.1-1.5l0.7-0.8l0.9-0.7
		l0.5-0.8v-0.5l-0.2-0.5l-0.3-0.4l-0.3-0.3l-0.4-0.1l-0.3,0.1l-0.8,0.5l-1.2-0.2l-0.4-0.2l-0.2-0.2l-0.1-0.3l0.1-0.5v-0.3l-0.1-0.8
		v-0.1l0.3-1.2v-0.5l-0.2-1.6l0.1-1.2v-0.6l-0.2-0.5l-0.2-0.2l-0.2-0.1l-0.4-0.1l-0.3-0.2l0.1-0.2l0.2-0.2l0.1-0.2l-0.1-0.6
		l-0.1-0.4v-0.4l0.1-0.6l0.7-2.2l-0.1-0.9l-1.3-0.6l-0.4-0.4l-0.3-0.5l-0.2-0.7l-0.1-0.2l-0.1-0.2v-0.3v-0.3l-0.2-0.2l-0.2-0.2
		l-0.1-0.2l-0.1-0.5l-0.1-0.2l-0.1-0.2l0,0l0.3-0.6l0.4-0.3l0.2-0.4l-0.2-1.2l0.1-0.5l0.5-0.9l-0.2-0.8l-0.9-0.7l-1.1-0.6l-0.6-0.5
		v-0.3l0.2-0.6v-0.3l-0.3-0.6l-0.1-0.3v-0.3l0.1-0.2v-0.2l-0.3-0.6l-0.1-0.7l-0.1-0.3l-0.6-0.8l-0.1-0.4l0.3-0.4l0.5-0.3l0.4-0.1
		h0.4l0.5,0.1l0.6-0.1l1.3-0.3l0.6,0.1l1.7,0.8l0.6,0.1l0.5-0.1l1.3-0.6l0.5-0.3l0.4-0.6v-0.6L455,84l0.1-0.7l0,0l0.2-0.4v-0.4
		l-0.1-0.4l-0.1-0.4l0.1-0.5l0.1-0.4l0.8-1.6l0.1-0.4l0.1-0.5l-0.1-1l0.1-0.4l2.6-2.1l0.6-0.2l0.4,0.3l0.7,1l0.3,0.4l1.5,0.7
		l0.5,0.4l2,1.4l-0.3-0.4l-0.3-1.2l-0.2-0.4l-0.4-0.6l-1.5-2l-0.1-0.2l-0.1-0.1h-0.1h-0.3h-0.1l-0.4-0.3l-0.9-1l-0.3,0.2l-0.1-0.2
		v-0.4l-0.1-0.3l-0.4-0.3l-0.2-0.2l-0.1-0.3l-0.1-0.5l-0.3-0.5l-0.6-0.7l-1.4-1.2l-3.4-2l-0.9-0.3h-1.2l-1.5,0.4l-0.7,0.1l-0.5,0.1
		h-0.3l-0.2-0.1l-0.3-0.3l-0.2-0.1l-0.5,0.1l-0.8,0.6l-0.4,0.1l-2.9-0.5l-2.6-1.5l-2.2-0.6l-1.1-0.6l-0.3-0.9l0.3-0.3l1.1-0.2
		l0.2-0.4l-0.2-0.4l-0.8-0.9l-0.3-0.6l0.4-0.3l-0.4-0.9l-1.1-1.4l-0.7-0.6l-0.2-0.5l0.2-0.5l0.2-0.4l0.4-1.3v-0.2l-1-0.8l-0.5-0.6
		l-0.1-0.4l0.8-1l0.5-0.4l0.6-0.1l-0.1-0.2v-0.1l-0.1-0.1l0.1,0.1h0.1h0.1l0.1,0.1v-0.8l0.3-0.7l1-1.2l-0.2-0.7l0.1-0.2l0.5-0.9
		l0.1-0.3l-0.1-2.2l-0.1-0.5l-0.2-0.6l-1-1.6l-0.2-0.6l-0.1-0.7l-0.1-0.6l-0.1-0.6l-0.3-0.6l-0.8-1l-1-0.8l-1-0.5l-1-0.1l-0.5-0.4
		l-0.4-0.9l-0.2-1l0.1-0.7l0.3-0.8l-0.3-0.8l-0.7-0.6l-0.7-0.4l-0.8-0.2h-0.7l-2.2,0.6l-0.3-0.3l-0.6-1.4l-0.5-0.6l-0.5-0.1
		l-0.5,0.1l-0.7-0.2l1.3-0.7l0.3-0.3l0.3-0.5v-0.2l-0.7-0.1l-0.8-0.4l-1.2-1l-1.8-1.2l-0.3-0.4l-0.7-1.4L419,21l-0.2-0.1l-0.1-0.1
		l-0.1-0.1l-0.1-0.1l-0.7-0.2l-0.2-0.1l-0.2-0.4l-0.1-0.4l-0.2-0.2l-0.3,0.2l-0.6,0.7l-0.5-0.2l-0.5-0.5l-0.6-0.4l0.2-0.3l0.5-0.4
		l0.2-0.2l0.1-0.3v-0.3l0.1-0.3l0.2-0.3l-0.5-0.2l-3.4-0.3l-1.2,0.1l-0.6,0.2l-0.5,0.4l-0.2,0.5l-0.2,1.3l-0.2,0.5l-0.5,0.6
		l-0.7,1.1l-0.5,0.3h-0.6l-4.3-1.7l-1.2,0.1h-0.6l-0.4-0.4l-0.3-0.2h-0.4l-0.8,0.2l-0.4-0.2l-0.3-0.1l-0.3,0.1l-0.3,0.2l-0.9,0.3
		l-1.7-0.7l-1,0.4l-0.3,0.3l-0.8,1.1l-1,0.8l-0.2,0.1l-0.3-0.1l-1-0.9l-0.3-0.1l-0.7-0.1l-0.3-0.1l-0.1-0.2V20v-0.2v-0.1h-0.2
		l-0.6,0.3l-0.7,0.1l-0.3-0.1l-2.6-1.1l-0.3,0.6l-1.4,1.3l-0.3,0.2l-0.1,0.7l-0.3,0.7l-0.4,0.6l-0.4,0.4l-0.3,0.1l-0.8,0.1l-0.3,0.1
		l-0.5,0.3l-0.6,0.2l-2.3,1.9l-0.4,0.1h-0.6l-0.6,0.1l-0.5,0.4l-1,1l-0.5,0.3l-0.5,0.3l-0.3,0.3l-0.5,0.1l-0.4,0.2l-0.9,0.6
		l-0.6,0.1l-1-0.4l-0.4-0.1l-0.3,0.1l-1.7,1.3l-1.4,1.9l-0.3,0.2l-0.4,0.1l-0.8,0.1l-0.3,0.1l-0.9,0.8l-0.8,0.5l-0.7,0.2l-0.7-0.1
		l-0.8-0.4l-4,2.6l-1.1,0.3l-0.6,0.4l-0.9,0.3l-0.6,0.1l-0.7,0.3l-0.4,0.1l-1-0.2l-0.7-0.5l-1.4-1.3l-0.6,0.1l-1.5,0.5l-0.4,0.3
		l-0.5-0.1l-0.4-0.2l-1.4-1.2l-0.2-0.1h-0.5H342l-0.7-0.5l-0.5,0.1l-0.5,0.2l-0.5,0.2l-1-0.2l-0.9-0.5l-1.4-1.3l-0.6-0.8l-0.4-0.4
		l-1.5-0.4l-0.3,0.1l-0.1,0.1l-0.1,0.1l-0.1,0.1l-1.3,0.8l-0.3,0.1l-0.5,0.1l-0.7,0.4l-0.4,0.1l-0.5-0.1l-0.8-0.6l-0.5-0.2l-0.8-0.1
		l-0.3,0.1l-0.6,0.5l-0.2,0.1l-2,0.4h-2.8l-0.5,0.2l-0.4,0.3l-0.4,0.3l-1.7,0.4l-0.5,0.2l-0.1,0.1l-0.1,0.2l-0.5,0.6l-0.3,0.1
		l-0.1,0.5l-0.2,0.2l-0.2,0.1l-0.3,0.1h-0.5l-0.2,0.1l-0.2-0.2l-0.4-0.5l-0.1-0.1h-0.3l-0.8,0.2l-0.3,0.2l-0.9,0.9l-0.4,0.3
		l-1.8,0.1l-0.3,0.2l-0.6-0.1l-0.9-0.3l-0.9,0.3h-0.5l-1.1-0.9l-0.5-0.1l-1.1,0.3H304l-1-0.3l-1.4-0.2l-2.9-1l-1.1-0.2l-0.9,0.4
		l-0.4-0.8L296,35l-0.3-0.3l-1.3-0.6l-0.3-0.5v-2l-0.6,0.1l-0.2-0.2l-0.4,0.4h-0.5l-0.4-0.3l-0.2-0.5l-0.4,0.3l-0.4,0.4l-0.4,0.5
		l-0.3,0.5l-0.3,0.9l-0.2,0.3l-0.2,0.1l-0.3,0.1l-0.1,0.2l-0.4-0.1l-1,0.1l-0.5-0.2l-0.6-0.6l-0.1-0.2l-1-0.3l-0.4-0.3l-0.6-0.7
		l-0.4-0.1l-0.6-0.1l-0.5-0.2l-0.3-0.2l-0.6-0.5l-0.9-0.2h-3.1l-0.5-0.2l-0.9-0.6l-0.5-0.1l-0.4-0.2l-0.1-0.6v-1.4l-0.4-1l-0.7-0.6
		l-3.6-1.8l-1.9-0.5h-2.1l-0.5-0.1l-0.4-0.2h-0.3l-0.3,0.3l0,0l-0.2,0.7v0.1l-0.1,0.2l-0.3,0.6l-0.1,0.3l-0.2,0.3l-1.3,1.1l-1,0.6
		l-0.6,0.1l-0.5-0.2l-0.2-0.2l-0.5-0.1l-0.2-0.1l-0.1-0.1l-0.2-0.4l-0.1-0.2l-0.3-0.1l-0.3-0.1l-0.2-0.2l-0.1-0.4v-0.3l-0.1-0.2
		l-0.1-0.1l-0.7-0.2l-1.2-0.7l-0.4-0.3l-0.8-1.5l-0.6-0.4l-1.1-1.3l-0.3-0.6l-0.1-0.5v-1.1v-0.2l0.2-0.5l0.1-0.3v-1.3l-0.3-0.9
		l-1.8-2.4h-0.2v0.4l-1.5-1.4h-0.1l-0.3,0.2l-0.3,0.4l-0.3,0.6l-0.2,0.7l-0.1,0.8h-0.2l-0.1-0.5l0.5-1v-0.5l0.2-0.1l0.2-0.2l0.1-0.2
		l0.1-0.2v-0.2l-0.5,0.1l-1,0.8l-0.6,0.2l-0.6,0.1l-2.6,1.1l-1.5,0.3l-0.9,0.6l-0.5,0.2l-1.1,0.1l-1.1-0.1l-1.1-0.3l-0.9-0.5
		l-0.8-0.7l-0.4-0.3l-1.1-0.2l-1.4-0.6l-0.4-0.3l-0.7-0.9l-0.7-0.4l-0.3-0.4l-0.2-0.5l-0.1-0.4h0.3V9.4l-1.3-1.1l-0.7-1l-0.7-1.2
		l-0.2-0.5V5l0.1-0.8l0.2-0.7l0.2-0.5l0.5-0.4l0.6-0.1l1.3,0.2V2.5L231,2l-0.2-0.1l-0.4-0.1l-0.3,0.1l-0.4,0.4l-0.3,0.2l-0.3,0.1
		l-0.6-0.2l-0.9-0.7V1.5l0.1-0.2l-0.2-0.2l-0.3-0.3L227,0.4h-0.2h-0.1h-0.1l-0.1,0.2l-0.3-0.2l-0.7-0.1l-0.3-0.1l-0.2,1l-0.6,1.1
		l-0.7,0.9l-0.9,0.5l-0.9,0.7l-0.4,0.2L220.2,5l-1.3,0.1l-3.2-0.2l-0.8-0.3l-0.7-0.4l-0.4-0.1l-0.9,0.1L210.1,5l-8-1.1l-3.2,0.3
		l-0.7-0.3l-0.4,0.2l-5.2-0.5l-1.2-0.5L190.8,3h-2.6l-1.8-0.3l-0.9,0.1l-3.9,2l-3.8,1.3l-1.1,0.8l-0.9,0.4l-1.7,0.4l-0.3-0.2
		l-0.4,0.3L172.7,8L172,8.1h-0.4l-0.4,0.2l-1.5,0.5h-0.4l-0.6-0.3L168,8.6L167.4,9l-0.3,0.5l-0.4-0.2h-0.3l-0.3,0.2l-0.3,0.2
		l-1.7,0.9l-0.4,0.3l-0.5,0.6l-0.4,0.2l-0.1-0.1l-0.2-0.3l-0.1-0.1l-0.1,0.1l-0.1,0.1l-0.1,0.2l-0.3,0.1l-0.2,0.1V12l-1.3,0.1
		l-0.8,0.2l-0.4,0.7l-0.1,0.2l-1.6,1.8l-0.4,0.8l-0.7,0.4L154,17l-0.2,0.1l-0.9,0.7l-3,1.5l-5.2,3.4l-3.7,1.4l-0.2,0.1l-0.1,0.1
		l-0.4,0.6l-0.1,0.1l-1.1,0.1l-0.5,0.2l-0.3,0.4l0.1,0.3l0.5,0.3l0.1,0.2l-0.1,0.4l-0.2,0.6l-0.1,0.3v0.7l-0.1,0.5l-0.2,0.4
		l-0.3,0.4l-1.3,1.3l-0.8,0.5l-1,0.4l-0.1,0.1v0.1l-0.1,0.1l0.4,0.3H135l-0.2-0.1h-0.1l-1,0.2h-0.3l-0.5-0.1h-0.3l-0.2,0.1l-0.6,0.4
		l-6.2,0.2l-2.1-0.4l-0.4-0.2l-0.8-0.7l-8-1.9l-0.8-0.6l-1-0.2l-0.4-0.7l-0.3,0.1l-0.3,0.5l-0.3,0.3l-0.2-0.2l-0.2,0.3l-0.2,0.4
		l-0.2,0.2l-0.3,0.1l-0.6,0.4l-0.4,0.2l-0.7,0.1l-6.1-0.2l-6.5-1L91,28.7l-4.6-0.8H86l-0.2,0.3h-0.2l-0.7-0.1l-1,0.7l-0.9,1
		l-0.6,0.9l0.5,0.4l-0.1,0.4L82.5,32l-0.3,1.2l-0.4,0.7l-0.5,0.5l-0.2,0.2l0.2,0.4l0.1,0.4l0.1,0.3l0.3,0.1v0.1l0,0l0,0L81.7,36
		l1.3,0.7l0.5,0.4l0.5,0.6l0.5,0.4l1.4,0.6l0.5,0.5l0.5-0.1l0.6,0.4l0.5,0.6l0.3,0.4h-0.1h-0.1v0.1v0.1L88,40.6l-0.2-0.2v0.3
		l-0.1,0.2L87.5,41h-0.2v0.2l0.7-0.1l0.3-0.1l0.2-0.2l0.2,0.2l0.1-0.2l0.2,0.1l0.2,0.2l0.1,0.2l0.1,0.3h-0.1l-0.1,0.1l-0.1,0.1
		L89,41.9l0.3,0.1l0.1,0.2l0.1,0.3l0.2,0.3l0.5,0.2l0.4-0.2l0.4-0.3l0.5-0.2l5.8-0.2l0.5,0.1l0.9,0.3l0.4,0.1l0.2,0.1l0.5,0.4
		l0.3,0.1h0.3l0.2-0.1l0.2-0.1l0.2-0.1l2-0.3l0.9,0.2l0.2,0.7l-0.4,0.6h-0.5l-0.9-0.4l-2.8,0.1l-4.7,1.1h-0.3l-0.2-0.6l-0.4-0.4
		l-0.4-0.2h-0.2L93,43.8l-0.3,0.1l-0.2,0.2l-0.1,0.2l-0.1,0.2L92,44.7l-0.3,0.1l-0.2,0.1L91.2,45L91,44.8l-0.2-0.3l-0.2-0.2h-0.2
		l-0.5,0.4l-1,0.6l-1,0.3l-7.2,0.7l-0.4,0.2l-1,1L78.6,48l-1.7,0.7l-0.8,0.6l-0.4,1l1.3,0.3l2.1,1.3l1.3,0.3l0.3-0.1l0.5-0.5
		l0.2-0.1h1.3l0.5,0.1l0.6,0.4l0.5,0.5l0.4,0.5l-0.4,0.2l-0.4,0.1h-0.4l-0.3-0.1L83,53.6l-0.2,0.9l-0.2,0.4l-0.3,0.3l-0.4,0.1H80
		l-0.4-0.1L79.2,55l-0.6-0.4l-0.3-0.2l-0.7-0.2h-0.7l-0.8-0.3l-0.5-0.1L75.2,54l-0.4,0.3l-1.4,0.2l-0.2,0.1l-0.3,0.3L72.7,55h-0.2
		l-0.1-0.1h-0.1l-0.2,0.2L71,54.6l-1.1-0.3h-1.1l-1,0.4l0.1-0.3l0.1-0.2l0.2-0.1l0.3-0.1l-2.1,0.1l-1.3-0.2l-5.7,0.3l-2,0.8l-2,0.2
		l-0.9-0.3l-0.1-0.8l0.6-0.5l2.1-1.1l0.4-0.7L57,51.3l-1.1-0.4l-4-0.6l-0.2,0.1l-0.1,0.1l-0.1,0.1h-0.2v-0.1l-0.5-0.6l-0.2,0.4
		l-0.2-0.1l-0.2-0.1l-0.3,0.1l-0.4,0.5l-0.2,0.2L49,51v0.2l0.2,0.3l0.8,0.8l0.2,0.1h0.2h0.2l0.1,0.2V53l0.1,0.2l0.1,0.1l0.2,0.3
		l0.1,0.1h0.2l0.1,0.1l0.1,0.3l0.1,0.3h0.2l0.4-0.2l1.2,0.4h0.4l-0.4,0.6l-1.3,0.7l-0.6,0.8l-0.7,0.2l-0.7-0.1l-0.5-0.2l-0.6,0.3
		l-0.6-0.1l-0.6-0.3l-0.7-0.2l-0.4,0.1L45.9,57l-0.3,0.1h-0.7l-1.7-0.4l-1.4-0.6l-1.3-0.9l-1-1.1l0.2-0.1v-0.1l0,0l0.1,0.1H40
		l0.3-0.2l-0.4-1l-0.3-0.5L39.2,52h-0.4L38,52.5l-0.5,0.1h-0.9l-0.8-0.2l-1.1,0.1L34,53.1l-0.6,0.8l-0.7,0.5l-0.5,0.1l-1.4-0.1
		L30.2,54l-0.3-0.1l-0.8,0.2L27,53.9L26,54l-0.5,0.4l-2.6,3.2l-0.3,0.3l-0.3,0.2l-0.2,0.5l-0.2,0.1l-1.1,1.4l-0.5,0.4l-0.8,0.2
		L18.9,61l-0.3,0.1h-0.3h-0.2L18,61.3l-0.2,0.5l0.2,0.5v0.6l-0.1,0.6l-0.2,0.4L17.6,64h-0.1h-0.3l-0.1,0.1v0.1v0.1v0.1L17,64.6V65
		l-0.1,0.3l-0.2,0.4l-1,1l-0.3,0.2l-0.8,0.4l-0.4,0.3l-1.3-0.4l-0.2,0.2l-0.5,0.9l-0.1,0.3v0.3l-0.2,0.4l-0.1,0.3v0.3l0.1,0.6v0.2
		l-0.4,1.6l-0.1,0.4l0.4,0.1l0.1,0.3l-0.1,0.8v0.8l-0.1,0.2L11.6,75l-0.1,0.1v0.3l0.1,0.4l0.5,0.9l0.1,0.3L12,78.7l-0.2,0.7
		l-0.9,0.9l-0.4,1.5l-0.6,1.6l0.1,0.7l0.9,0.5h1l1.9-0.5l0.3,0.2l0.2,0.1l0.1-0.2v-0.1l0.2-0.3h0.3l0.3-0.2h0.3l1.3,0.2h0.3l0.2-0.1
		l1.1-0.6h0.2l0.2-0.3l0.5-0.2l8.5-1.5l0.6,0.4l0.5-0.2l0.4-0.4l0.6-0.2l0.7,0.1L31,81l0.2,0.4v0.7l-0.3,1.2v0.3v0.1l-0.1,0.1
		l-1.4,0.5L29,84.6l0.3,0.5L29,85.3l-0.3,0.1l-0.9,0.1v0.3V86v0.2v0.2h0.1l0.2,0.2l-2.6,2l-0.4,0.6l-0.2,0.2l-0.3,0.1l-0.1,0.2
		l0.1,0.5L24.4,90l-0.2-0.2L24,89.7h-0.3v-0.2l0.4-0.1v-0.2l-0.2-0.1l-0.3,0.1l-0.2,0.3l-0.1,0.6l-0.2,0.2l0.5,0.2h0.6l1.2-0.1
		l0.4,0.2l0.2,0.5l0.1,0.6l0.2,0.6v0.3l0.3,0.4l0.5,0.4l0.9,0.5l0.3,0.3l0.7,0.9l0.6,0.9l0.2,0.6l-0.2,0.3L29.1,97l-0.6,0.3
		l-0.6,0.4l-0.3,0.4H28h0.1v0.2l-0.4,0.5v0.8l0.2,0.7l0.5,0.3l0.4,0.1l0.4,0.6l0.3,0.1l0.3-0.1l0.8-0.5l0.3-0.3l0.2,0.3h0.2l0.2-0.2
		l0.3-0.1l0.1,0.1l0.2,0.4l0.1,0.1h0.4l0.3-0.1l0.3-0.2l0.4-0.4l0.4,0.3v0.3l-0.4,0.8l0.5,0.2l-0.2,0.5l-0.5,0.3l-0.5-0.3l-0.2,0.3
		l-0.3,0.2l-0.4,0.2l-0.4,0.1l0.3,0.8l-0.3,0.4l-0.5,0.1l-0.2-0.7l-1,0.4l0.2,0.2l0.5,0.9l0.2-0.2l0.1,0.3v0.3v0.2l-0.1,0.2
		l-0.2-0.2l-0.2,0.1l-0.2,0.2l-0.2,0.2l0.2,0.4h-0.4l-0.3-0.1l-0.6-0.3h-0.2h-0.3l0,0v-0.1l-0.1-0.1l-0.1-0.1l-0.7,0.5l-1.3,0.3
		l-0.4,0.3l0.2,0.6l0.2,0.4l0.5,0.7h-0.3l-0.2,0.1l-0.2,0.1l-0.2,0.2l0.4,0.3l0.2,0.1h0.3v0.1l-0.1,0.3v0.1h0.3h0.3l0.5,0.2
		l-0.1,0.1l-0.1,0.3H28l0.3-0.2l0.2-0.1l0.4,0.3l-0.1,0.4l-0.1,0.8l-0.1,0.4l0.4,0.2l0.3,0.2l0.3,0.3l0.3,0.4v0.2h-0.4l-0.7-0.4
		l-0.4-0.3l-0.4-0.4l0.3,0.5l0.5,0.4l0.2,0.2l0.6,0.2l0.3,0.2l0.7,1.2l0.4,0.3l-0.2,0.4h0.1l0.5-0.2l1.5-0.6h0.6l0.6,0.3l0.2-0.1
		l0.8,0.1l0.5-0.2l0.2,0.2l0.2-0.2h0.1l0.2,0.2v0.2l-0.7,0.4l-0.6,0.6l-0.6,0.4l-0.7-0.3l-0.1,0.1v-0.1l-0.3,0.1h-0.2l-0.2-0.1h-0.3
		l-0.1,0.1l-0.3,0.3l-0.1,0.1l-0.4,0.1l-1.2,0.6l-1.9,0.2l-0.4,0.1l-0.4,0.2h-0.4l-0.2-0.4l-0.1,0.1l-0.3,0.1l-0.1,0.1l-0.5-1.3
		l-0.3-0.6l-0.3-0.3h-0.2v0.2l-0.4-0.1l-0.4,0.3l-0.3,0.5l-0.1,0.5l0.2,1.3l0.4,0.3l0.2,0.3l-0.1,0.4l-0.5,0.2l-0.4-0.7l-0.4-1.4
		l-0.3-0.5l-0.2-0.5l-0.3-0.3l-0.6-0.1l0.2-0.4l0.2-0.4v-0.3l-0.4-0.2l0.3-0.2l0.3-0.1l0.3,0.1l0.2,0.2h0.1h0.1l0.2-0.1l-0.1-0.3
		v-0.3v-0.3l-0.1-0.3l-0.1-0.3l-0.1-0.2l-0.2-0.1l-0.2-0.2l-0.6-0.8l-0.6-0.9l-0.1-0.5l-0.4-0.6l-0.8-0.9l-0.4-0.4l-0.5-0.3
		l-0.6-0.2l-0.6-0.1l-0.3,0.1l-0.5,0.3l-0.4,0.1l-0.2,0.1l-0.1,0.4v0.5v0.4l0.3,1.2v0.2v0.2l0.3,0.9l0.1,0.4l-0.2-0.2l0.7,1.1
		l0.1,0.4l-0.2,0.6l-0.2,0.3v0.1h0.5l0.2-0.1l0.2-0.4l0.2-0.1H19l0.3,0.3l0.5,0.2l0.6,0.5l0.3,0.2l-0.4,0.8h-0.2l-0.3-0.3l-0.6-0.3
		v0.2l0.4,0.3l0.2,0.6v0.6l-0.3,0.3l-0.2,0.1l-0.6,0.4l-0.3,0.1h-0.3h-0.2l-0.4-0.2v0.2l0.2,0.4l-0.2,0.2l-0.4,0.1h-0.4l-0.2-0.1
		v-0.1v-0.1l-0.2-0.1h-0.2H16l-0.1-0.1l-0.1-0.1l0.2-0.3l0.1-0.3v-0.3l-0.1-0.4l-0.1,0.1l-0.1,0.1l-0.1,0.1v0.3l-0.3-0.4l-0.2,0.3
		l0.1,0.6l0.5,0.3v0.2l-0.5,0.1l-0.2,0.6l-0.3,0.4l-0.6-0.3l-0.1,0.5v0.2l1.3,0.4l0.2,0.1l0.8,0.7l0.6,0.2l0.5-0.2l0.2-0.8h0.2
		l0.1,0.3v0.3l-0.1,0.3v0.3l0.5,0.5l0.1,0.2h0.2l-0.1-0.1l-0.1-0.5l0.6,0.3l0.6,0.7l0.6,0.5L21,124l-0.1,0.4v0.3l0.2,0.3l0.5,0.5
		l0.3,0.3l0.3-0.1v-0.6l0.2,0.4l0.3,0.8l0.2,0.1l0.3-0.1l0.1-0.3v-0.4l-0.1-0.4h0.2l0.1,0.1l0,0l0.1,0.1l0.3-2l0.2-0.1h1.5l0.5-0.1
		l0.4-0.2h0.4l0.3,0.3l-0.1,0.9l0.1,0.4l0.4-0.2l0.2,0.3l0.5,0.5l0.2,0.4l0.2,0.4l0.1,0.5v0.5l-0.1,0.4l0.6,1.1l0.2,0.2l0.2-0.1
		l0.1-0.2l0.1-0.2l0.1-0.1h0.2l0.4-0.2l0.8-0.2l0.6,0.1l1.2,0.5l0.7,0.1l0.2,0.2l0.1,0.5l0.1,0.2l0.1,0.1h0.2h0.2l0.2,0.1l0.1,0.2
		l0.1,0.2l0.1,0.2l0.6,0.3l0.9,0.2h0.9l0.6-0.2l0.7,1.1l0.2,0.7l-0.3,0.3l0.1,0.3v0.3v0.3l-0.1,0.3l-0.1,0.2l-0.3,0.3l-0.1,0.1v0.6
		l0.2,0.4l0.2,0.3l0.2,0.3v0.4v0.7l-0.1,0.7l-0.2,0.5l-0.6,0.7l-0.3,0.2l-2.1,0.8l-0.5,0.1l-1.6-0.1l-0.4,0.1l-0.2,0.6l0.9,0.5
		l2.1,0.6l1.4,0.9l0.4,0.1l0.1,0.3l-0.1,0.7l-0.2,0.5l-0.4-0.3l-0.1,0.3l0.1,0.2l0.1,0.1l-0.1,0.2l0.1,0.5l-0.1,0.4l-0.1,0.5
		l-0.1,0.5l0.2-0.2l0.2-0.1h0.2l0.1,0.2l0.4-0.1l-0.1,1.4l0.2,0.6v0.2h-0.1l-0.4,0.2l0.1,0.3v0.3l-0.2,0.3l-0.2,0.3l0.2,0.1l0.1,0.1
		h0.1l0.2-0.1l0.1,0.1v0.1v0.2l0.2-0.1h0.2l0.2,0.1l0.2,0.2l0.3-0.3l0.3-0.1l1.4-0.1l0.1-0.1l-0.4-0.2v-0.2h0.6l0.2-0.3l0.1-0.4
		l0.2-0.4l0.4-0.2h0.5l0.5,0.2l0.3,0.5l-0.6,0.3l-0.4,0.5l-0.2,0.6l0.2,0.7l0.5,0.4l0.7,0.1l0.5-0.3l0.1-0.9h0.2l0.3,0.5v0.4
		l-0.1,0.3v0.2l-0.4,0.6l-0.2,0.3l-0.1,0.3l0.1,0.2l0.2-0.1l0.2-0.2l0.1-0.1h0.6l0.3,0.3l-0.1,0.4l-0.4,0.4l0.4,0.1l0.4-0.2l0.3-0.4
		l0.1-0.5l0.1-0.2l0.3-0.1h0.6l0.1-0.1v-0.1l0.1-0.1l0.2,0.1l0,0l0.3,0.2v0.2v0.4l-0.1,0.2l-0.6-0.9l-0.3,0.2l-0.1,0.1v0.6l0.1,0.2
		l0.4,0.1l-0.4,0.4l-0.2,0.1l-0.3,0.1l0.3-0.6l-0.3-0.1l-1.1,0.3v0.2l0.3,0.2l0.2,0.5l0.2,1l0.1-0.1h0.1l0.3-0.1v0.2l-0.3,0.1h-0.6
		l-0.3,0.2l-0.2,0.2l-0.5,0.2l-0.6,0.5l-0.4,0.1l-0.3-0.2l-0.4-0.6l0.1-0.1l0,0l0,0l0.1-0.1l-0.3,0.1h-0.2l-0.1-0.1l-0.2-0.1h-0.3
		h-0.2l-0.1-0.1v-0.5l-0.1,0.1l0,0l0,0l-0.1,0.1l-0.2-0.2l-0.2,0.1l-0.2,0.2l-0.1,0.3h-0.2v-0.4l-0.1-0.3l-0.2-0.2l-0.3-0.1l0.1,0.3
		v0.3l-0.1,0.2v0.2l-0.5,0.1l-0.8-0.3l-0.3,0.3l-0.2-0.2v0.2v0.1l0.1,0.1l0.2-0.2h0.2l0.2,0.1l0.2,0.2l-0.3,0.4l-0.4,0.3l-0.4,0.2
		h-0.2l-0.3,0.6l0.1,0.4l0.2,0.4l0.1,0.5v0.5l0.1,0.7l0.3,0.4l0.4-0.1l0.1,0.2l0.2-0.1H39l0.2,0.1l-0.1-0.1l-0.1-0.3l0.3-0.1
		l0.3-0.3l0.1-0.3l-0.1-0.3v0l0.3-0.1l0.6-0.1l0.2-0.1l0.1,0.2v0.1l0,0l-0.1,0.1v0.1l0,0l0,0l0,0l-0.1,0.2v0.1v0.1l0.1,0.2l0.3-0.8
		v-0.3h0.2l-0.1,0.1l0.1,0.2l0.4-0.3H42l0.2,0.2l0.4,0.6l0.2,0.2l0.3,0.1l0.7-0.1l0.3,0.1l0.3,0.1l0.6,0.4l0.1-0.7l0.6-0.1l0.7,0.3
		l0.4,0.3l0.5-0.5l0.8-0.3h0.8l0.5,0.3l0.3-0.1H50h0.2l0.2,0.1l0.1-0.3v-0.1h0.2l0.3,0.1l2-0.7h0.6l0.7,0.2h0.3l0.3-0.1l0.3-0.3
		l0.3-0.1l2.6,0.4l0.4,0.2v-0.2l-0.1-0.3l0.5-0.1h1.2l3.2-0.5l0.2,0.1l0.2,0.2l0.2,0.2v0.2l-0.7,0.2l-1.3,0.5l0.2,0.4l-0.2,0.2
		l-0.4-0.1l-0.4-0.3l-0.1,0.3l-0.2,0.3h0.3v0.2l-0.2,0.2l-0.5,0.8l-0.1-0.1l-0.2-0.1h-0.2h-0.2v0.2l0.2,0.1L60,162v0.1l-0.1,0.1v0.1
		v0.1v0.1l-0.1,0.2l-0.1-0.4v-0.2h-0.1l-0.2,0.1l-0.5-0.3l-0.2,0.2h-0.2l-0.1-0.1l-0.1-0.1h-0.1L58,162l-0.2-0.2l-0.2-0.1H57v0.2
		h0.5v0.2h-0.2h-0.4h-0.2l0.1,0.1v0.1l0.1,0.1l0.1,0.1l-0.2,0.2l-0.3-0.2l0.1,0.3l0.2,0.3l0.5,0.5v0.2l-0.3,0.1l-0.2,0.1l-0.2,0.1
		l-0.2-0.1l-0.1,0.1l-0.1,0.1h-0.1H56l0.3,0.3l0.1,0.3v0.2l-0.2-0.1l-0.2,0.2h0.5l0.3,0.1l0.2,0.2l0.2,0.4l-0.4,0.3l-0.1,0.2
		l-0.1,0.3l-0.4-0.4l-0.4-0.1l-0.8,0.1h-0.5l-0.5-0.1l-0.4-0.2l-0.2-0.2l-0.3,0.1l-2.1,0.1l-0.3,0.2l-0.6,0.6l-0.3-0.1l-0.3,0.1
		h-0.3l-0.4-0.2l-0.3,0.1l-1.1-0.7l-0.5,0.1l-0.1,0.4v0.4l-0.1,0.3l-0.5,0.1l-0.9-0.1l-1.8,0.3l-0.6-0.1l-0.2,0.1l0.4,0.2l-0.3,0.3
		l-0.1,0.5l-0.2,0.3l-0.3,0.1h-0.4l-0.4-0.1l-0.3-0.1v0.2l0.2,0.1l0.1,0.2v0.2l-0.1,0.2h0.1h0.1l0,0v0.1l0.3-0.2h0.3l0.2,0.2
		l0.1,0.4l0.3-0.1h0.2l0.6,0.1l0.2,0.1l0.3,0.3l0.1,0.1l0.1-0.1l0.1-0.1l0.1-0.2l1.7-0.6l0.1,0.3h0.3l0.4-0.1l0.4-0.1l0.4,0.1
		l0.4,0.2l0.8,0.4v-0.7l0.3-1l-0.1-0.3v-0.2l0.3-0.2l0.5-0.7l0.4-0.1l0.4,0.1l0.3,0.1h0.3l0.3-0.1v0.2l0.5-0.2l0.5,0.1l0.4,0.3
		l0.3,0.3h0.2l0.2-0.4l0.2,0.1l0.2,0.2l0.2,0.1l0.2-0.1l0.2-0.2h0.2L55,168l0.4-0.2l0.3-0.3l0.2-0.1l0.1,0.4h0.2l0.4-0.2l0.9-0.3
		l0.4-0.4l0.1,0.3h0.2l0.5-0.4l0.4-0.7l0.2-0.1l0.3-0.1l0.3,0.1l0.1,0.3v0.6l0.1,0.5l-0.3-0.3l-0.1-0.1l-0.1-0.2l-0.2,0.2l-0.3,0.3
		l-0.2,0.2v0.2l0.1,0.2h0.5l0.2,0.2v0.4l-0.4,0.3h-0.4l0.1-0.5l-0.2,0.1l-0.9,0.1l0,0l-0.1,0.1l-0.1,0.1l-0.1,0.1h-0.1H57l0.2,0.2
		l-0.9,0.2l-0.1,0.1l0.1,0.3l0.2,0.1h0.3l0.2-0.1l0.2,0.1l0.3,0.1h0.3l0.1-0.1v-0.4l0.1-0.1l0.2,0.2l0.2,0.3l0.1,0.4l-0.1,0.4
		l-0.2,0.3v0.2l0.2-0.1l0.5-0.4l0.3,0.4l-0.3,0.4l-0.2,0.4l-0.3,0.3l-0.5,0.2h-1.8l0.1,0.2l0.1,0.1l0.1,0.1v0.1l-0.1,0.2l-0.1,0.1
		l0.3,0.3l0.3,0.2l0.3-0.1l0.2-0.4l0.1,0.3l0.2,0.1h0.2l0.3-0.1v-0.1L58,173l-0.1-0.1l0.2-0.1l0.1-0.1l0.1-0.1l0.1-0.2l0.6,0.2
		l0.6-0.5l0.5-0.7l0.3-0.7l0.4-0.7l0.5-0.4l1.3-0.4V169l0,0h-0.1l0.1-0.1l0.1-0.1v-0.1v-0.2l0.2,0.1l0.2,0.1l0.2-0.5l0.3-0.1
		l0.4,0.1l0.3,0.2l-0.2-0.7l-1-0.7l0.1-0.7l-0.3-0.3l-0.1-0.4l0.2-0.5l0.3-0.5l0.4-0.2l0.4,0.2l0.3,0.3l0.3,0.2v0.2l-0.6,0.1
		l-0.3,0.1l-0.1,0.3l0.1,0.3l0.3,0.1h0.6l-0.1-0.2l-0.1-0.5h0.1l0.2,0.2l1.3,0.6h0.5l0.3-0.3l0.2-0.4l0.3-0.4l-0.2-0.2H67l-0.2,0.1
		h-0.1l-0.2-0.2l-0.2-0.2v-0.2l0.3-0.1l0.7-0.1l0.5-0.1l0.2-0.3l0.1-0.3h0.1l0.1,0.2l0.1,0.3v0.1l0.1,0.1l0.1,0.1v0.2l-0.1,0.1h-0.1
		h-0.2l0.1,0.6l0.2,0.3l0.3,0.1h0.5v0.2l-0.3,0.2l0.3,0.1h0.2l0.2,0.1l0.2,0.2l-0.1-0.7l0.5-0.3l0.7,0.1l0.3,0.3l0.1,0.2l0,0
		l0.1,0.1V166v-0.1l0.1-0.3h0.2l-0.1,0.2v0.1l0.1,0.1v0.1h-0.1h-0.1l0,0v0.1l0.3,0.3l0.1,0.6l-0.1,0.6l-0.2,0.4l0.3,0.8l0.2,0.2
		l0.3-0.5l0.3-0.1l0.3,0.2l0.1,0.6h0.2l0.7-0.4l1.1,0.2l0.9,0.6l0.1,0.8l0.4-0.1l0.2,0.1l0.2,0.2l0.4,0.2v0.2l-0.4,0.1l-0.2,0.2v0.3
		L77,172l0.3,0.1h0.4l0.3-0.2l-0.1-0.3l0.4-0.3l0.4-0.5l0.2-0.5l-0.4-0.4l0.1,0.4l-0.1,0.3l-0.1,0.2l-0.1,0.3h-0.2L78,171l-0.2-0.3
		l0.2-0.2l-0.1-0.1l-0.1-0.1l-0.1-0.3l0.3-0.1v-0.2l-0.1-0.3l0.1-0.2l0.2-0.1l0.2-0.1h0.5v-0.2h-0.2v-0.2l0.3-0.3l0.5-0.6l0.4-0.3
		l0.2,0.4l0.2,0.3l1.9,0.8l1.5,1.1l0.1,0.2l0.2,0.2l0.1,0.3l0.1,0.3l-0.2,0.2l-0.3,0.1l-0.2-0.1l0.1-0.3v-0.2l-0.4,0.2l-0.3,0.4
		l-0.3,0.3l-0.3-0.3l-0.2,0.3l-0.2,0.6l-0.1,0.2l0.3,0.4l0.1,0.4l-0.1,0.3l-0.4,0.1l0.5,0.1l1.2-0.5l0.3,0.4h0.2l0.3-0.1l0.1,0.5
		l0.1,1.1v0.2l-0.2,0.1l-0.2,0.1l-0.3,0.3v0.2l0.4,0.2l0.3,0.4l0.1,0.5l-0.1,0.6h0.1l0,0l0,0v0.1h-0.3l-0.2,0.1l-0.2,0.2l-0.1,0.3
		h0.2h0.2l0.3,0.2l-0.2,0.2h0.7v0.2l-0.1,0.1v0.1l0.1,0.4l0.3-0.2l0.4,0.5l1.5,0.5l0.3,0.4l0.2,0.4l1.6,1.5l0.2-0.2l0.1,0.2l0.1,0.3
		l0.2,0.1L90,183l0.1-0.2l0.1-0.2l0.1-0.2l0.1-0.1l0.1-0.1l0.1-0.1l0.2-0.1H91l0.1,0.1h0.1l0.1-0.2l0.1,0.8l0.1,0.3l0.3-0.3l1.5,0.9
		l0.7,0.1h2l0.5,0.2h-0.3h-0.3l-0.2,0.1l-0.2,0.1v0.2l1.2-0.2l0.2,0.1v0.3l-0.1,0.2l-0.3-0.2l0.2,0.6l0.8,0.4l0.1,0.6l0.4-0.5v-0.1
		h0.3l0.1-0.1v-0.1l0.1-0.1l0.3-0.1h0.3l0.3,0.1l0.3,0.3l0.1-0.1h0.1h0.3l-0.1,0.1v0.1l-0.1,0.1l-0.1,0.1v0.2l0.4-0.1l0.4-0.2
		l0.3-0.3l0.3-0.3h-0.5v-0.2l0.6-0.2h0.2v-0.1l0,0h-0.1h-0.1l0.3-0.2l0.9-0.2l0.4-0.2l0.3-0.3l0.1-0.1h0.2l0.3,0.1l0.3,0.1h0.3
		l0.3-0.2l0.4,0.1l1.6-0.9v-0.2h-0.7l0.3-0.1l0.2,0.1l0.2,0.2l0.2,0.1l0.9,0.2v-0.2v-0.2l0.3,0.2v-0.2l0.2-0.6l0.1,0.4v0.2h0.1v-0.6
		l0.1-0.4l0.2-0.3l1.8-0.3h0.5l2.6,1.2l0.6-0.2l0.3,0.3l0.1,0.5v1.3l0.7-0.6l0.3-0.4l0.3-0.7l0.3-0.3l0.3-0.3l0.2-0.2l-0.2-0.1v-0.1
		l0,0l-0.1,0.1h-0.2l0.3-0.6l0.7-0.6l0.3-0.4l-0.6-0.2l0.2-0.4l-0.3-0.2l-0.3-0.4v-0.5l0.3-0.5v-0.3l0.5-0.8l0.3-1.1l0.4-0.5
		l0.8-0.7l-0.1-0.3l0.3-1.1l0.1-0.6l-0.2,0.2l-0.1-0.4l-0.2-0.2l-0.1-0.3v-0.6l0.1-0.4l0.1-0.3l0.2-0.2l0.2-0.2v-0.2l-0.3-0.4v-0.5
		l0.1-1v-1.3l0.1-0.2l0.3-0.5l0.3-0.9l0.7-0.6l1.4-1l1,0.8l0.5,0.3l0.7,0.2l4-0.2l9.7,1.5l0.9,0.5l0.1,0.7l0.7,0.1l4.6,2l0.4,0.4
		l0.4,0.3l1.8,0.8l0.5,0.1h0.3l0.3,0.3l0.5,0.7l0.9,0.4l0.2,0.2l0.4-0.1l0.7,0.1l0.6,0.2l0.3,0.3l0.2,0.3l0.5,0.1h1l0.1,0.1l0.1,0.1
		l0.2,0.1l0.3,0.1h0.3h0.2l0.2,0.1l1.5,1.5l0.4,0.2l0.3,0.5l0.4,0.9h0.1l0.3,0.1l0.1,0.1l0.3,0.5l0.3,0.4l0.1,0.2v0.2l0.3,0.9
		l1.5,1.3l0.6,0.8l0.1,0.3l0.1,0.9l0.1,0.2l0.5,0.3l0.1,0.2h0.2l1.1,1.5l0.4,0.2l0.5,0.1l0.4,0.2l0.2,0.4l0.3,0.3l1.8,1.1l0.4,0.1
		l0.9,0.1l1.6,1l0.9,0.5l2.2,0.5l1,0.1l1.3-1l0.2-0.3l0.3-0.1l1.6-0.8h0.5l1.6,0.4h0.8h0.3l0.2,0.1l0.1,0.1h0.1l0.3-0.2l0.3-0.4
		l0.2-0.5l0.3-0.4l0.6-0.2l0.3,0.1l0.5,0.3l0.3,0.1h0.3l0.7-0.2h1.1l0.5-0.1l0.4-0.5l0.5,0.1l0.9,0.3l0.4-0.1l0.9-0.4l0.5-0.1
		l0.5,0.1l1,0.3l0.6,0.1v0.2l-0.3,0.2l0.5,0.1l0.5-0.5l0.5-0.7l0.6-0.5l0.3-0.1l0.3-0.1l0.2,0.1l0.1,0.4l0.6,1l0.1,0.2l0.1-0.2
		l0.2-0.8l0.1-0.3l0.7-0.8l0.2-0.1l0.8-0.4h0.2l0.3-0.1l0.3-0.6l0.3-0.2l-0.1-0.1l-0.1-0.1l-0.2-0.1l0.4-0.1l0.2-0.3l0.4-0.7
		l0.4-0.3l0.3,0.1l0.3,0.2l0.4,0.1l0.5,0.3l0.4,0.8l0.1,0.8l-0.2,0.5v0.2h0.4l0.1-0.2v-0.4l0.1-0.4l0.2-0.4l0.5-0.6l0.1-0.2
		l-0.1,0.1l-0.1,0.1l0.3-0.6l0.7-0.2l0.7-0.1l0.5-0.4v-0.8l-0.1-1l0.1-0.8l0.8-0.5l0.9-0.9l0.5-0.2l0.2-0.2l0.1-0.3l0.2-0.5l2.1-2.7
		l0.8-0.6l2.6-1.6l2.1-1.9l0.8-0.4l0.1-0.1l0.2-0.6l0.1-0.1l0.7-0.4l0.3-0.1l0.7-0.1l1.6-0.8l1-0.2l0.7,0.4l0.1-0.2l2,1.1l1,1.1
		l0.3,0.2l-0.1,0.5l-0.1,0.1l0.3-0.1l0.4-0.1h0.4h0.4l0.5,0.2l0.8,0.5l0.7,0.2l6.1,3.7l0.3,0.1l0.3,0.1l0.4,0.6l0.2,0.1l0.1-0.1
		l0.6-0.5l0.5-0.2l0.2-0.1l0.1-0.2l0.1-0.1l0.6-0.3l0.2-0.1l1.1,0.1l1,0.3l-0.8-0.4l-0.2-0.1h-0.2l0.1-0.3l0.2-0.2l0.3-0.1l0.2,0.1
		l0.8,0.7l0.3,0.1l0.8-0.1l0.2-0.1l0.4-0.3l0.2-0.1l0.2-0.1v-0.3v-0.4l0.1-0.3l0.1-0.2l0.2-0.5l0.1-0.3l0.9-0.9l-0.4,0.1l-0.3,0.2
		l-1.1,1.3l-0.3,0.2v-0.3l0.4-0.7l0.7-0.5l1.4-0.7l-0.3-0.1l-0.3,0.1l-0.2,0.2l-0.3,0.1l-0.2-0.2l-0.1-0.3l-0.1-0.2l-0.3,0.2
		l0.1,0.2v0.2v0.2l-0.1,0.2l-0.1-0.1l-0.1-0.1l-0.1-0.1h-0.1l-0.1,0.5l-0.5-0.2l-0.4,0.5l-0.2-0.5l0.2-0.4l0.3-0.4l0.2-0.5l0.2,0.1
		l0.1,0.1v0.2l-0.1,0.2l0.3-0.2l0.3-0.6l0.3-0.3l0.9-0.3l2-0.1l0.9-0.2l0.4-0.3l0.8-0.9l0.2-0.2l0.4-0.1l0.3-0.3l1.4-1.7l0.8-0.7
		l0.9-0.3l0.9,0.2l0.9,0.6l0.8,0.8l1.4,2l0.2,0.5l0.1,0.5v1.9v0.2l0.1,0.3l0.1,0.3l0.1,0.3v0.4l-0.1,0.5l-0.2,0.6l-0.3,0.5l-0.3,0.2
		l-0.4,0.1l-2.6,1.7h-0.3l-0.2,0.3l-1.1,1.4l-0.2,0.1l-1,0.3l-0.2,0.1l-0.1,0.2l-0.3,0.2l-0.1,0.6l-0.1,0.3l-0.2,0.2l-0.4,0.2
		l-0.2,0.2l-0.3,0.7l-0.1,0.1h-0.3l-0.3,0.1l-0.2,0.2L246,180l-0.7,1v0.5l0.3,0.7l0.3,0.4l0.4,0.4l0.3,0.4l0.3,0.9l0.3,0.5l0.3,0.4
		l1.7,2.8l0.7,2.1v0.5l-0.3,0.2l-1,1.9l-0.3,0.4l0.2,0.1l0.5-0.1l0.5-0.2l0.5-0.1l0.3,0.3v0.4l-0.1,0.4l0.1,0.4l0.3,0.2l0.4,0.1h0.8
		l0.7,0.3l1.4,1l0.5-0.1l0.3-0.9l0.1-2.1l0.5-0.9l0.8-0.3l0.6,0.2l0.4-0.1l0.2-1.1l0,0l0,0l0.5-0.2l1,0.4l0.5-0.2l-0.1-0.8l0.1-4.3
		v-0.4l0.1-0.2l0.2-0.2v-0.3l-0.3-0.4l0.3-0.3l0.3,0.4l0.3,0.2l0.3,0.1l0.7,0.1h0.1h0.1l0.2-0.1l0.1-0.2V184l0.1-0.2l0.3-0.1
		l0.4-0.1l1.8,0.3h0.5l1.7-0.3l0.1-0.3v-0.7l-0.1-0.4l-0.2-0.5l-0.2-0.5l-0.3-0.3l-0.4-0.2l-0.8-0.1l-0.2-0.2h0.1l0.1-0.3l0.2-0.4
		v-0.3v-0.2l0.3-0.6l-0.1-0.2l-0.1-0.1l-0.4-0.2l-0.2-0.2l-0.1-0.2l-0.5-1.6l-0.1-0.5l0.1-0.4l0.7-1.2l0.1-1.3v-1.3l0.3-1.3l0.3-0.7
		l0.1-0.6v-0.6l0.1-0.7l0.3-0.6l0.4-0.5l0.3-0.6l-0.1-0.7h0.2h0.2l4.5,1.6l1.5,0.1l0.5,0.1l0.5,0.2l0.5,0.3l0.4,0.3l0.7,0.7l0.2,0.4
		v0.6l-0.2,1l0.1,0.3l0.5,0.4l0.5,0.3l0.2-0.1l0.2-0.3l0.4-0.4l0.5-0.2h0.4l0.4,0.1l0.5,0.1l1.5-0.4h0.5l3.9,0.7h1l3.6-2.3l1.5-0.7
		l4-0.9l3.9-1.8l0.7-0.2l2.8-1.8l1.6-0.6l0.8-0.1l1.6,0.2l4.6,1.4l1.2,0.7l3.3,3.4l1.5,0.8l1.7,0.2l3.9-0.2l0.5-0.2l1.3-0.1l3.7,1.2
		l1.3-0.1l12.8-2.4l5.2-2l2.4-1.4l0.9-0.3l0.9-0.2l0.9-0.4l4.9-3.3l0.5-0.3l0.5-0.2l0.5-0.1h0.6l1.1-0.3l3.2-1.8l1.2-0.5l4.5-0.7
		l5.8,1.2l1.1,0.4l0.5,0.1l6.8-0.3l12.8-3l1.1-0.6l1.8-1.7l1.2-1.6l0.4-0.2l0.4-0.4l0.3,0.3v0.4v0.3v0.1l0.3,0.1l0.7,0.4l0.1-0.1
		l0.1-0.2l0.2-0.1h0.1l0.1,0.2l0.1,0.3l0.1,0.2l0.8,0.7l0.2,0.1l0.2,0.4l-0.4,1.7l0.3,0.4l0.2,0.2v0.4v0.9l1.1-0.1l1.4-0.5l2.1-0.3
		l0.4-0.2l0.1-0.2l0.3-0.8l3-4.4l0.1-0.2v-0.2v-0.2l0.2-0.2l0.2-0.1l1.2-0.5h0.2h0.3l0.2,0.2l0.1,0.5l0.2,0.2l2,0.7l1,0.1l1-0.4
		l0.6-0.5l0.9-0.4l1-0.3l0.8-0.1l0.4,0.1l3.2,1.7l0.2,0.1h0.2h0.2l0.2-0.2l0.2-0.1l0.5-0.1l0.3,0.1l1,0.8l1,0.5l1.1,0.9l0.4,0.2h0.3
		l0.6-0.2l0.3-0.1l0.3,0.1l0.2,0.1l0.4,0.3l0.6,0.3l0.6,0.1l2.5-0.2l0.6,0.1l0.6,0.1l0.2,0.2l0.5,0.5l0.2,0.1l0.3-0.1l0.4-0.4
		l1.3-0.2l0.7-0.9l0.7-1l0.9-0.8l1.1-0.2l1.3,0.2l2.3,1l0.6,0.4l0.4,0.4l0.3,0.5l0.2,0.7l0.1,0.7v0.4v0.3l-0.2,0.3l-0.2,0.1
		l-0.3,0.1l-0.3,0.2l-0.4,0.5l-0.2,0.6v0.6l0.2,0.6l1,2.2l0.2,0.3l0.2,0.2l1,0.3h0.3l0.2-0.2l0.2-0.5l0,0l0.4-0.6l0.1-0.5l0.2-0.3
		l2.1-0.7l0.6-0.3l0.6-0.5l0.6-0.7l0.9-0.8l0.9-0.7l0.8-0.4h0.5l2.5,0.4l0.5,0.2l0.3,0.5l0.1-0.6l-0.1-0.5l-0.2-0.5l-0.1-0.6
		l0.2-0.5l0.3-0.3l0.3-0.2l0.3-0.4l0.1-1l-0.6-0.6L462.4,149.6z M9.6,45.2l0.1,0.7l-0.2,0.5l0.2,0.5l0.2,0.6l0.2,0.5l0.4,0.2
		l0.6,0.1h4.5l1.3-0.4h0.4l0.6,0.3l0.4-0.1l0.4-0.2l0.3-0.1h0.4l0.4,0.1l0.7,0.5l1.9-1.1l0.7-0.2h1.7l0.3-0.1l0.6-0.3l1.8-0.3
		l0.2,0.3l0.7,1.6L28.1,49l-0.7,0.6l-0.8,0.3L26,49.6L25.6,50l-0.5,0.8l-0.3,0.4l-0.3,0.1l-1.1-0.1l-0.7,0.2l-0.8,0.3l-0.7,0.4
		L20.1,53l-1.4,0.5l-1.1,0.9l-1.2,0.8L16,55.8h-0.5l-1.2,0.5L14,56.5l-0.2,0.1l-0.3,0.3l-0.2,0.3l0.1,0.1l0.3,0.1l0.1,0.2l-0.1,0.2
		L13.4,58l0.7,0.6l0.5,0.7l0.1,0.9l-0.3,1.1l-1.1,1.5l-0.1,0.3L13,63.8l-0.3,0.7l-0.4,0.3L12.2,65L12,65.4l-0.1,0.4l0.2,0.2h0.3
		l1.3-0.4l0.3-0.2l0.7-0.7l1-0.6l0.4-0.3l1.2-1.1l-0.4-0.3l-0.3-0.6l-0.1-0.6l0.3-0.3l0.5-0.1l0.6-0.3l0.6-0.3l0.4-0.4l0.6-0.8
		l0.1-0.1v-0.1l0.5-0.5l0.3-0.3l0.7-0.2l0.2-0.1l1.3-1.2l0.4-0.4l0.1-0.5v-0.5l0.2-0.2l0.8-0.4l0.3-0.4l0.2-0.9l0.3-0.2l0.3-0.1
		l0.8-0.7l0.5-0.3l1.5-0.2l0.4-0.3l0.4-0.3l1.4-0.9l0.9-0.3l1-0.1l0.3-0.2l0.7-1l0.4-0.3l0.5-0.1h1.1l0.7-0.4l0.6-0.1l0.3-0.1
		l0.1-0.1l0.3-0.4l0.1-0.2l2.2-1.6l1-1.8l2.3-2.2l0.5-1l0.6-2.6l0.5-1.1l0.8-0.4l5.2-0.8l0.9,0.1l0.9,0.3l0.4,0.2l0.3,0.3l0.4,0.2
		l2,0.2l0.4-0.1v-0.3l0.2-0.4l0.5-0.9l0.3-0.3l0.4-0.3l0.4-0.2l0.4-0.1l1.3-0.6h0.2l0.2-0.1l1.2-0.4l0.4,0.2h0.4l0.9-0.2l0.2,0.1
		l0.3,0.3l0.2,0.1h0.8l0.8,0.1l1.7,0.6l0.8,0.1l0.6,0.3l1.3,1.3l0.7,0.1l0.3-0.3l0.2-0.4l0.1-0.5v-0.3L70.2,34l-0.5-0.5L69.6,33
		l0.6,0.1l0.5,0.5l0.2,0.6l-0.2,0.7l0.2,0.1l0.2,0.1l0.3,0.3l-0.2,1l0.7,0.3l2.9-0.4h0.6l0.3,0.2l0.1,0.2l0.3,0.1h0.6l0.3-0.1
		l0.2-0.1l0.1-0.1l0.1-0.1l0.2-0.1l1-0.2l0.4-0.3l0.3-0.1l0.1-0.1l0.2-0.3l0.1-0.1h0.1l0.2,0.2h0.5h0.1l0.1-0.2V35l-0.1-0.1v-0.1
		v-0.1v-0.2l0.2-0.3l0.2-0.1l0.4-0.1l0.2-0.2l0.3-0.4l0.2-0.5l0.2-0.6l0.1-0.6h0.1l0.1-0.2v-0.2l-0.1-0.1l0,0L82.3,31l-0.1-0.3
		L82,30.4l-0.1-0.2l0.3-0.1l0.4-0.2l0.4-0.6l0.3-0.6l0.2-0.8l-0.4-0.4l-0.6-0.2l-0.6-0.1l-0.2,0.1l-0.1,0.3l-0.2,0.1h-0.2l-0.1-0.1
		L81,27.5l-0.1-0.1l-2.4-0.5L71,23.3L65.7,21L62,18.7l-1.3-1.3l-0.5-0.8l-0.4-0.5l-0.7-0.4l-0.4-0.5l-0.3-0.6l-0.2-0.5v-0.2h0.1h0.1
		l0.1-0.1v-0.2l-0.1-0.1l-0.1-0.1l-0.1-0.3L58,12.9l-0.4-0.4l-0.3-0.4l-0.5-1.5L56.4,10L56,9.5l-0.4-0.6L55.5,8l0.1-0.8l0.2-0.4
		l0.3-0.2h0.4L57,6.8h0.2l0.2-0.1V6.5l-0.1-0.3L57.1,6L57,5.9V5.6L56.7,4l-0.9-0.2l-0.4-0.1l-1.2,0.1l-0.3-0.1l-0.6-0.3l-0.6-0.2
		h-0.2L52,3.3h-0.1h-0.1h-0.1h-0.1l-0.1,0.3V4l-0.1,0.3l0.4,0.2l-0.1,0.2l-0.3,0.1h-0.3l-0.3-0.1L49.5,4h-0.9l-1.9,0.5l-0.1,0.3
		L46.5,5h-0.1l-0.2-0.1L46,5.2l-0.2,0.2l-0.5,0.2v0.1h0.1h0.1h0.1l-0.1,0.1l-0.2,0.1L45.2,6l0.3,0.1l-0.4,0.2l-0.3-0.2l-0.6-0.8
		L43.8,5L42,4l-0.6-0.5l-0.5-0.6l-1-1.6l-0.7-0.7l-0.8-0.5l-0.9-0.2L37,0l-0.3,0.2l-0.5,0.7L36.1,1v0.1H36l-0.6-0.2h-0.5h-0.3
		l-0.4-0.3l-0.4-0.2l-0.4-0.1h-0.5l-0.6,0.3l-0.5,1l-0.5,0.3L31,2l-0.2,0.3l-0.2,0.4L30.3,3l-0.2,0.1L29.6,3l-0.3,0.1L29,3.4h-0.2
		l-0.2-0.1h-0.3L28,3.5L27.5,4l-0.2,0.1L27,4l-0.4-0.4l-0.2-0.1l-0.3,0.1l-0.5,0.5l-0.2,0.2l-0.5,0.1L22.6,4l-0.4,0.1l-0.4,0.3
		l-0.7,0.7l-0.2,0.1l-0.2,0.2l-0.1,0.2v0.1l0.3,0.2L21,6v0.2l-0.1,0.3v0.2v0.4l-0.1,0.6l-0.2,0.6l-0.3,0.4l-1.2,0.4L16.6,9l-1,0.9
		l-0.3,0.8l-0.1,0.7l0.2,0.6l0.2,0.3l0.6-0.1l0.4,0.1l0.7,0.6l0.9,0.2l0.4,0.2l0.4,0.1l-0.1,0.5l-0.2,0.4l1.4,1l1.1,0.6l0.2,0.3
		l0.5-0.7v0.2v0.2l0.1,0.2l0.1,0.2L22,16.7l0.1,0.8l-0.2,0.3l0.3,0.5l0.1,0.6l0.1,1.2l0.4,1.6l0.1,0.6V23l-0.1,0.7l-0.2,0.6
		l-0.3,0.3h-0.5l-0.5-0.1l-0.5-0.3l-0.3-0.3l-1.2,1.3H19l-0.1,0.1l-0.1,0.1l-0.1,0.2L18,26l-0.6,0.6L17,26.8L15.5,27l-0.3,0.3
		l0.4,0.6l-0.3,0.7l-0.1,0.6l0.1,0.6l0.3,0.6l-0.5,0.7v0.3l0.4,0.1l0.2,0.1l-0.4,0.8l0.1,0.5l0.3,0.7l0.2,0.3l0.6,0.3v0.4L16.3,35
		l-0.2,0.2h-0.4l-0.2,0.1l-0.1,0.2l0.1,0.3l0.3,0.3l0.2,0.1l0.1,0.1l-0.2,0.3l-0.3,0.3l-0.7,0.3l-0.3,0.3l0.1,0.1l0.1,0.2V38
		l-0.3,0.1h-0.2L14.1,38L14,37.9l-0.1-0.2h-0.1l-0.2,0.6l-0.1,0.3l-0.2,0.2h-0.2v-0.1L13,38.4v0.3v0.2L12.9,39l-0.2,0.1v0.2v0.1h0.1
		h0.1l-0.2,0.1l-0.1,0.1v0.2l0.2,0.3l-1.3,1.1l-0.4,0.6l-0.2,0.9l-0.5,0.6l-0.7,0.4l-0.9-0.1l-0.1,0.1H8.5l0.4,0.5L9.6,45.2z"/>
</g>
</svg>
