<?xml version="1.0" encoding="utf-8"?>

<svg version="1.2" baseProfile="tiny" xmlns="http://www.w3.org/2000/svg" xmlns:xlink="http://www.w3.org/1999/xlink" x="0px"
	 y="0px" viewBox="284 172 272.1 250" xml:space="preserve">

<g id="Trinidad_and_Tobago">
	<g>
		<polygon fill="#CE1126" points="549.1,173.2 549.1,173.5 549.4,173.9 550.4,173.9 551.4,173.4 551.5,172.8 551.2,172.6 551,172.8
			550.7,172.8 550.4,173.1 550.1,173.2 549.9,173 549.3,173 		"/>
		<polygon fill="#CE1126" points="548.7,173.9 548.8,173.8 548.8,173.5 548.7,173.3 548.5,173.3 548.4,173.5 548.4,173.8
			548.5,173.9 		"/>
		<polygon fill="#CE1126" points="541,179.1 541.1,179 541.1,178.8 541,178.6 540.8,178.6 540.6,178.8 540.6,179 540.8,179.1 		"/>
		<polygon fill="#CE1126" points="550.1,172.3 549.8,172 549.6,172 549.3,172.3 549.3,172.5 549.4,172.7 549.8,172.7 		"/>
		<polygon fill="#CE1126" points="533.1,179.4 533.2,179.2 533.3,179.1 533.1,178.9 532.9,178.9 532.7,179.2 532.7,179.3
			532.9,179.5 		"/>
		<polygon fill="#CE1126" points="490.2,211.2 489.8,211.3 489.3,211.5 489.3,212 489.1,212.3 489.3,213 490.2,213.5 492.7,212.6
			493.3,212.6 493.5,212.5 494.1,212.8 495.2,212.8 495.6,213.1 497.1,213.3 497.7,213.5 497.8,213.6 497.8,215.1 498,215.2
			499.6,215.2 499.8,215.4 500.1,215.4 500.3,215.2 500.8,215.2 501.4,214.4 501.3,214.1 501.3,213.8 501.4,213.6 501.3,213.4
			501.3,213.1 501.7,213.3 501.7,213.6 502,213.9 503.2,213.9 503.3,213.8 503.6,210.8 504.1,210.3 504.1,210.1 504.7,209.6
			505.3,209.3 505.7,209.5 506.3,209.5 506.7,209.3 506.8,209.1 507.2,208.6 507.3,208.4 508.5,207.1 508.5,207 509.3,206.3
			510.1,206.3 510.6,207.3 511.3,208.1 511.7,208.2 512.1,208.3 512.6,208.6 513.1,208.6 513.2,208.4 513.4,208.7 514.1,208.7
			514.2,208.6 514.4,207.8 514.6,207.7 515,207.3 515.6,207.1 516.1,207.8 516.4,207.8 516.7,207.4 516.7,206.8 516.6,206.7
			516.8,206.7 517,206.5 517,206.2 517.3,205.9 517.4,205.2 517.9,204.6 518,204.3 518.6,204.3 518.8,204.1 519.3,204.1 520,204.6
			520.8,204.6 521,204.5 522.3,204.3 522.5,204.1 523.5,204.3 523.6,204.6 523.8,204.6 523.9,204.8 524.1,205.1 524,205.5
			524.1,205.6 524.4,205.6 525.2,204.9 526,204.9 526.1,205.1 526.6,205 527.4,204.5 527.7,204.4 528.2,204 529.1,203.4
			529.4,202.7 530.2,202.4 530.3,202 530.6,201.7 530.6,201.5 531,200.8 531.5,200.8 531.8,200.5 531.8,200.2 532.1,200.2
			532.4,199.8 532.9,199.7 533.4,199.3 534,199.1 534.3,198.8 535.1,198.8 535.6,198.3 535.9,198.3 535.9,198.7 536.1,198.8
			536.7,198.6 536.9,198.5 536.9,198.2 536.5,198 536.9,197.8 536.6,197.2 536.2,197 536.2,196.9 536.7,196.5 536.9,195.8
			537.3,195.3 537.8,195.3 538.7,194.7 538.9,194.1 539.2,193.9 539.7,193.9 540.2,193.6 540.9,193.7 541.1,194.1 542.7,194
			542.8,194.2 542.8,194.6 543,194.7 544.4,194.7 544.9,194.2 544.9,193.6 544.6,193.3 545,193 545,192.5 544.7,191.7 544.4,191.5
			544.4,190.7 544.7,190.7 545,190.4 545.3,190.4 545.5,190.3 546.2,191 546.2,191.7 546.3,191.8 546.6,191.8 547.6,192.5
			547.9,192.5 548.3,191.8 548.2,191.5 548.8,191.1 548.8,190.8 548.6,190.6 549,190.1 549,189.9 549.4,190.2 549.8,189.8
			549.7,189.5 549.8,189.3 549.8,188.8 550,188.4 549.3,187.9 549.8,187.6 549.8,187.3 549.5,187 550,187 550.4,186.4 550.5,185.9
			550.2,185.5 549.5,185.1 548.7,185.1 548.5,184.9 548.5,184.2 548.4,184 548.5,183.5 548.8,183.2 549.1,183.2 550,182.6
			549.6,181.9 549.6,181.4 550.6,181.9 550.7,181.8 550.7,181.5 550.6,181.3 550.6,180.8 550.7,180.5 551.1,180.4 551.4,179.9
			551.3,179.5 550.9,179.2 550.9,178.6 551.2,178.3 551.1,178 550.6,178 550.6,177.6 550.9,177.2 550.6,176.8 549.5,176.7
			549.5,176.3 549.1,175.9 549.3,175.6 549.1,175.3 549.5,175.2 549.1,174.8 548.5,175 548.2,175.3 548,176 547.7,176.1
			547.6,176.1 547.1,175.7 546.6,176.1 545.7,176.1 545.5,176.4 545,176.3 544.9,176.4 545,176.6 544.9,176.8 544.3,176.7
			543.8,176.1 543.6,176.3 543.5,176.8 544.1,177.8 545.2,178.2 545,178.8 545.2,179 545.2,179.6 544.9,179.9 544.2,179.9
			544.1,179.8 543.8,179.9 543.6,180.2 543.3,180.4 542.8,180.4 542.5,180.8 541.5,180.6 541.6,180.2 541.5,180 541,180.2
			540.6,179.5 540.6,179.2 539.8,178.4 539.5,178.4 539.3,178.3 538.1,178.3 538,178.4 537.3,178.4 535.9,179.6 535.6,179.6
			535.4,179.7 535.3,179.6 534.4,179.6 534.2,179.4 533.6,179.4 533.2,179.8 533.2,179.9 532.9,179.9 532.8,180 532.8,180.5
			532,180.5 530.7,181 529.9,181.6 529.9,181.9 529.6,181.9 529.3,182.2 529.6,182.9 529.9,183.1 529.7,183.2 528.6,183.2
			528.5,182.9 528.2,182.9 528.4,182.7 528.1,182.4 527.7,182.7 526.6,182.7 526.5,183 526.1,183 525.8,183.4 526,183.8 524.5,184
			524.2,183.8 523.5,183.8 522.8,184.3 522,184.3 521.9,184.4 522,184.9 521.9,185.3 522.1,185.6 521.6,185.6 521.2,185.2
			521,185.2 520.5,185.7 520.5,185.4 520.3,185.2 519.6,185.2 519.2,185.6 519.2,185.7 518.9,185.9 518.4,185.9 518.3,185.7
			518.1,185.7 518,186 517.3,186.1 516.9,186.5 517,186.8 516.9,187.1 517.4,187.6 517,188.1 517,188.4 516.7,188.4 515.4,189
			514.8,189.7 514.6,189.7 514,189.8 513.6,190.1 513.4,190.3 513.4,191.1 513.3,191.2 513.1,191 512.4,191.1 512.2,191.4 512,192
			511.5,192 511.3,192.2 511.3,192.5 509.8,192.7 509.3,193 509.1,193.3 508.5,193.3 508,193.6 507.7,193.6 507.6,193.7
			507.6,194.1 507.2,194.2 506.8,194.7 506.6,195.2 506.3,195.3 506,196 505.6,196 505.3,196.4 505,196.4 504.4,197.1 504.4,197.4
			504,197.4 503.3,197.8 503,197.9 502.7,197.7 502.5,198 502,198 501.6,198.2 501.3,198.6 501.3,199 501.4,199.1 502.1,199.1
			502.1,199.9 501.6,200.5 501.4,200.6 500.5,201.3 500.5,201.5 500.8,201.7 500.8,201.8 500.6,201.8 500.2,202.2 499.3,202.4
			499,202.7 498.4,202.9 498.3,203 498.4,203.5 498.6,203.7 498.6,204.3 498.4,204.5 498.4,204.9 498.1,205.1 498,205.3
			497.6,205.3 497.5,205.4 496.7,205.4 496.5,205.6 496,205.6 495.8,205.9 496.2,206.5 496.4,206.5 496.4,207 495.9,207.5
			495.6,207.5 495.3,207.8 493.4,207.8 493.1,208.1 493.1,208.3 493.3,208.4 493.9,208.4 494.2,208.3 494.7,208.6 494.7,208.9
			494.5,208.9 494,208.7 493.7,208.9 493.5,208.7 493.2,208.9 492,208.9 491.8,208.7 491.2,208.7 491,207.9 490.7,207.6
			490.4,207.8 489.9,208.6 489.9,209.2 490.1,209.4 490.6,210.6 490.2,211 		"/>
		<polygon fill="#CE1126" points="527.9,177.7 527.7,177.5 527.6,177.5 527.4,177.4 527.1,177.7 527.1,177.9 527.3,178 527.6,178
			"/>
		<polygon fill="#CE1126" points="552.9,185.2 552.6,185.2 552.4,185.4 552.4,185.6 552.6,185.7 552.9,185.7 553.1,185.6
			553.1,185.4 		"/>
		<polygon fill="#CE1126" points="540.4,178.5 540.2,178.4 540.1,178.6 540.3,178.8 540.5,178.6 		"/>
		<polygon fill="#CE1126" points="346.4,305.2 346.4,305.3 346.4,305.5 346.4,305.6 346.6,305.6 346.7,305.5 346.7,305.3
			346.6,305.3 		"/>
		<polygon fill="#CE1126" points="536.6,199.1 536.4,199.3 536.5,199.6 537.2,199.6 537.4,199.4 537.4,199.3 537.2,199.1 		"/>
		<polygon fill="#CE1126" points="526.1,205.6 525.8,205.9 526,206 526.3,206 526.5,205.9 526.5,205.7 526.2,205.5 		"/>
		<polygon fill="#CE1126" points="543,195.8 543.3,195.5 543.6,195.7 544,195.2 543.7,194.8 542.9,194.8 542.7,195 543,195.2
			542.7,195.5 		"/>
		<polygon fill="#CE1126" points="555.1,184.1 555.4,183.7 555.3,183.4 554.8,183.1 554.5,183 554.2,183.4 554,182.9 553.6,182.4
			553.3,182.4 553.1,182.6 552.9,183.1 553.1,183.2 553.1,183.5 553.4,183.7 553.4,183.8 553.1,184.1 553.1,184.5 552.9,184.7
			553.2,184.9 553.9,184.9 554,185.2 554.2,185.4 554.3,185.2 554.4,184.9 554.7,184.9 555.1,185.2 555.6,185.2 556,184.6
			555.7,184.3 		"/>
		<polygon fill="#CE1126" points="543.6,196 543.6,196.2 543.8,196.3 544,196.3 544.1,196.2 544.1,196 544,195.8 543.8,195.8 		"/>
		<polygon fill="#CE1126" points="551.2,183.1 551,183.4 550.9,183.4 550.6,183.7 550.4,184.3 550.6,184.5 550.9,184.5 551.2,184
			551.5,184 551.7,183.8 551.5,183.2 		"/>
		<polygon fill="#CE1126" points="551.2,181.6 551,181.8 551,182 551.2,182.1 551.3,182.1 551.6,181.8 551.5,181.6 		"/>
		<polygon fill="#CE1126" points="552.1,172.5 552,172.7 551.8,172.7 551.6,172.9 551.6,173.2 551.7,173.3 552,173.3 552.4,172.8
			552.3,172.5 		"/>
		<polygon fill="#CE1126" points="544.4,195.6 544.4,195.5 544.2,195.3 544.1,195.3 543.8,195.6 544,195.8 544.3,195.8 		"/>
		<polygon fill="#CE1126" points="552.8,187 552.8,187.2 552.9,187.3 553.1,187.3 553.4,187 553.2,186.8 552.9,186.8 		"/>
		<polygon fill="#CE1126" points="319.7,301 320.1,301.2 320.4,301.5 321.1,301.5 321.4,301.8 321.8,301.5 321.6,301.1 321.4,301
			321.1,300.8 321.1,300.3 320.9,300 320.7,300 320,299.3 318.9,298.6 318.2,298 317.3,298 317.1,298.2 316.7,298.2 316.4,298.4
			316.6,299.8 316.1,300.3 316.1,300.6 316.3,300.8 316.6,300.9 316.6,301.4 316.3,302 316.3,302.3 316,302.6 315.5,302.7
			315.2,303.3 315.4,303.5 316.2,303.5 316.8,302.9 317.3,302.9 317.4,303 318.4,303 318.5,303.2 319.7,303.4 319.7,303.1
			319.6,302.8 319,302.4 318.9,302.4 318.4,301.9 317.4,301.8 317.2,301.5 317.4,301.1 317.2,300.9 317.6,300.8 317.9,300.5
			318.5,300.5 318.9,300.1 319.4,300.4 319.4,300.8 		"/>
		<polygon fill="#CE1126" points="317.2,297.9 317.2,297.6 317.1,297.5 316.8,297.5 316.7,297.6 316.7,297.9 316.8,298 317.1,298
			"/>
		<polygon fill="#CE1126" points="323.8,299.7 323.8,300.3 323.5,300.8 323.9,300.8 324.2,300.7 324.3,300.3 324.7,299.9
			324.8,300.1 325.7,299.5 325.2,298.9 325.4,298.7 325.2,298.4 325,298.2 324.7,298.2 324.5,297.8 324.1,297.8 324,297.4
			323.7,297.2 323.6,297.2 323.3,296.9 323,296.9 322.6,296.6 322,296.7 321.8,297.1 322,297.4 323.1,297.4 323.6,298 324,298.1
			324,298.4 324.1,298.6 324.1,299 		"/>
		<polygon fill="#CE1126" points="333.6,298.2 333.6,298.1 333.5,298 333.4,298 333.3,298.1 333.3,298.2 333.4,298.3 333.5,298.3
			"/>
		<polygon fill="#CE1126" points="343.6,289.2 343.5,289.4 342.8,290.1 342.6,290.2 342.7,290.7 342.5,290.9 342,290.9 341.7,290.8
			341.3,291 341.2,291.4 340.8,291.5 340.4,291.9 340.1,291.9 340,292 339.7,291.9 339.4,292.1 339.4,292.4 339.2,292.5 338.6,293
			338.3,293.8 337.9,294.2 337,294.4 336.7,294.8 336.5,294.7 335.4,294.7 334.6,295.3 333.7,295.3 333.1,295.7 333,296.2
			333.3,296.8 333.4,297.1 333.4,297.6 333.7,297.8 334.3,297.7 334.6,297.2 334.7,297.3 334.7,297.9 334.2,298.4 334.2,298.7
			333.6,299.3 333.6,299.7 334,300 334.9,300.4 334.9,300.8 334.5,301 334.2,301.4 334.6,301.5 334.8,301.6 335.7,301.6
			336.3,302.1 336.8,302.1 337,301.8 337.4,301.8 337.6,301.6 337.8,301.8 340.3,301.8 340.4,301.9 340.2,302 340.2,302.5
			339.7,303 339.7,303.3 339.9,303.4 339.6,303.8 339.8,304 340.1,304 340.6,304.5 341.2,304.5 342.3,303.7 343,303.7 343.1,303.5
			343.6,303.4 344,303 344,302.6 343.6,302.6 343.4,302.7 343.4,302.3 343,301.9 342.5,301.9 342.2,302.1 342.1,301.7 342.5,301.3
			342.8,301.5 343.4,301.5 344.1,301 344.3,300.9 344.7,300.2 345.2,300.2 345.6,299.7 346,300 346.2,300.4 346.6,300.8 346.9,301
			349,301.2 349.1,301.3 350.1,301.5 350.2,301.6 351.2,301.8 351.9,302.3 352.1,302.1 353.5,302.1 353.7,301.3 354,301.3
			354.2,301.5 354.3,301.9 355.3,302.1 355.4,302.3 356.7,302.6 357.5,303.2 357.6,303.2 358.2,303.7 358.2,304.5 358.5,304.9
			358.5,305.2 358.9,305.7 359,305.7 359.4,306.2 360,306.2 360.8,306.7 361.1,306.7 361.4,307 362.3,307.4 362.7,307.8
			362.8,308.1 363.9,308.1 364,308.3 363.7,308.6 364.2,309.3 364.5,309.5 364.9,309.2 365.2,309.2 365.7,308.9 366.2,309.6
			366.1,310.2 364.9,311.6 364.9,312.3 365.3,312.7 365.7,312.7 366.8,313.1 367.3,313.7 367.5,314 367.5,315.1 368.3,316.5
			368.3,316.8 368.7,317.5 368.9,317.9 369.2,318.2 369.7,319.3 369.7,320.3 369.8,320.5 370,321.4 370.3,321.9 370.3,322.3
			370.6,323 370.9,323.1 370.9,324.4 371.4,325.2 371.6,326.1 371.7,326.3 371.7,326.8 372.2,327.7 372,328 372.2,328.7 372,328.8
			371.9,330.5 371.6,331.2 371.4,331.6 370.1,332.9 370.1,333.5 370.3,333.7 370.6,334.3 370.6,334.8 370.8,334.9 370.8,335.6
			371.1,336.2 370.9,336.5 370.9,337.2 370.8,337.3 370.8,337.8 370.6,337.9 370.6,338.6 370.8,338.7 370.1,339.4 370,340
			369.5,340.8 369.5,341.3 369,341.9 369.2,342 369.2,342.4 369,342.5 368.9,343.3 368.4,343.8 368.1,345 367.9,345.2 367.9,345.7
			368.3,346 368.1,346.1 367.9,346.5 367.9,347.7 367.7,348 367.2,348.1 367,348.3 367,348.7 366.5,349.6 366.5,350.1 366.3,350.3
			365.5,350.3 365.3,350.5 365.5,350.9 367.5,351 367.5,351.6 367.2,352.1 367.1,352.8 366.7,353.4 366.7,353.5 367.3,354.2
			367.3,354.8 367.1,355 367.2,355.2 367.7,355.4 368,355.2 368.8,355.5 369,355.7 369.2,356.1 369.2,356.7 368.7,357.8
			368.7,358.3 368.6,358.4 368.6,359.2 368.9,359.8 369.1,359.9 369.7,360.5 369.7,360.6 370.1,361 370.4,361 371,361.3 371.7,362
			371.7,362.4 371.9,362.5 371.9,363.1 372.2,363.6 372.3,364.6 372.7,365.2 372.7,365.7 372.5,365.8 372.5,367.1 372.8,367.7
			372,368.9 371.4,369.1 371.4,369.4 371.6,369.7 372.1,369.7 372.8,370.1 372,370.4 372,370.9 372.4,371.3 372.8,371.3
			372.8,371.8 372.7,372.1 373.1,372.4 373.5,373.1 373.5,373.9 373.1,374.2 372.8,374.8 371.2,376.2 371.1,376.7 370.8,377.2
			370.8,377.6 370.6,377.8 370.8,378.1 370.8,378.9 370.5,379.2 370.5,379.4 370,379.8 369.8,380.8 369.4,381.2 368.6,381.3
			368.3,381.7 368.2,381.7 366.8,382.8 366.4,382.9 366,382.9 365.6,383.2 365.2,383.4 364.9,383.7 364.5,383.7 363.9,384
			363.4,384.5 363.3,384.5 362.7,385 362.3,385 361.9,385.3 361.6,385.3 360.8,385.8 359.8,386.4 359.5,386.4 359.3,386.5
			358.3,386.5 358.1,386.7 357.5,386.7 357.3,386.9 356.4,386.9 356.2,387 356,386.9 353.5,386.7 353.4,386.5 352.6,386.5
			352.4,386.4 351.9,386.4 351.8,386.2 351.3,386.2 351,386.1 350.4,385.6 349.6,385.3 349.3,385 348.5,384.8 348.3,384.7
			347.2,384.5 346.7,384.2 346,384.2 344.1,383.2 343.4,383.1 343,382.8 342.5,382.8 342.3,383.1 341.5,383.2 341.4,383.4
			340.6,383.4 339.8,384 339.7,384 339.3,384.4 339.3,385.2 339.1,385.4 339.1,385.8 339.6,386.2 339.6,387.1 339.4,387.4
			339.6,387.7 339.8,387.8 340.4,388.5 340.4,388.7 340.1,389 339.6,389.8 337.9,391.4 337.8,391.4 336.3,392.7 335.1,393.3
			334.8,393.3 334.3,393.6 334,393.6 333.1,394 333.3,394.8 333,395 332.6,395 331.9,394.4 331.5,394.4 331.3,394.6 330.2,394.7
			330,394.9 329.2,395 329,395.3 329.5,396.2 329.5,396.7 328.8,397.3 328.1,397.5 328.1,398.4 327.7,398.8 327.2,398.8
			326.7,399.2 326.4,399.2 325.9,399.5 325.3,399.6 323.9,400.4 323,400.6 322.8,400.7 322.2,400.7 321.4,401 320.3,401.2
			319.6,401.5 319,401.5 318.9,401.7 317.8,401.7 317.6,401.8 315.7,401.8 315.6,402 313.5,402 313.3,402.1 311,402.1 310.2,402.9
			309.9,402.9 308.9,403.4 308.5,403.4 308.4,404 308,404.4 307.7,404.5 307.2,404.5 307,404.7 306.1,404.7 305.9,404.8
			303.7,404.9 303.7,405.7 303.8,405.8 303.8,407.4 303.7,407.7 302.7,408.7 302.2,409.9 301.1,410.8 300.4,411 299.6,411.4
			299.3,411.4 298.7,412.1 298.2,412.1 297.4,412.4 296.8,412.4 296.6,412.5 293,412.5 292.2,413.2 291.9,413.3 291.8,413.2
			291.5,413.3 289.9,413.3 289.7,413.5 288.1,413.5 287.9,413.7 288.2,414.2 288.2,414.5 287.7,415.3 287,416 286.9,416
			285.1,417.7 284.5,417.9 284.1,418.3 284.1,419.4 284,419.5 284,420.3 284.4,420.9 285.3,421.5 285.8,421.5 286.2,421.8
			286.7,421.8 286.9,422 290.2,422 290.3,421.8 290.7,421.8 291,421.5 291.6,421.4 292.9,420.6 295.4,418.5 296.3,418.4
			296.5,418.2 297.7,418.1 297.9,417.9 298.4,417.9 299.5,417.1 300,417.1 300.1,417 300.6,417 301.8,415.9 302.3,415.7
			302.6,415.4 303.9,414.7 304.5,414.4 304.8,414.4 305.3,414.1 305.9,414.1 306.1,414 307.2,414 307.4,413.8 309.6,413.8
			311,414.6 311.3,415.1 311.5,415.1 311.7,415.6 312.1,416 312.4,416.2 312.7,416.2 313.8,415.5 314.3,415.2 314.6,415.2
			315.5,414.7 316.3,414.6 316.5,414.4 317.6,414.4 317.8,414.3 318.4,414.3 318.7,414.4 318.9,414.3 321.4,414.1 321.5,414
			323.6,414 323.7,414.1 326.6,414.1 326.7,414 328.8,414 329.3,414.4 329.6,414.4 330.2,414.7 331.1,414.7 331.3,414.9
			332.1,414.9 332.6,415.2 333,415.2 333.4,415.5 334.3,416 335,416.7 335.2,417.3 335.4,417.6 335.9,417.7 336.4,418.3
			336.4,418.6 336.8,419 337.4,419 337.9,419.3 338.4,419.3 338.6,419.2 339,419.2 339.2,419 340,419 340.3,419.3 340.9,419.5
			341.1,419.6 341.5,419.6 342.5,419.2 342.8,418.8 343.4,418.7 343.8,418.4 344.1,418.4 344.5,418.1 346,417.9 346.1,417.7
			346.4,417.9 347.2,417.9 348.5,417.3 349.4,416.8 350.2,416.8 350.4,416.6 350.8,416.6 351,416.5 353.7,416.5 353.8,416.6
			354.3,416.6 354.5,416.8 355.1,416.8 355.3,416.6 356.8,416.6 357,416.5 357.5,416.5 357.6,416.3 360.5,416.3 361.2,417
			361.9,417.1 362,417 362.5,417 363.1,416.6 364.2,416.6 364.4,416.8 364.9,416.8 365.8,417.6 366.8,417.6 366.9,417.4
			369.6,417.4 369.7,417.3 371.2,417.3 371.8,417 373.2,416.8 373.8,416.5 375.6,416.5 375.7,416.6 377.3,416.6 377.5,416.5
			377.6,416.6 377.8,416.5 377.9,416.7 378.6,416.6 379.5,416.2 380.8,416.2 380.9,416 381.7,416 381.9,415.9 382.7,415.9
			383.3,416.3 384.7,416.3 385.3,416.6 386.5,416.6 386.9,417.1 387.6,417.1 388.2,416.8 390.9,416.8 391,417 391.6,417
			391.8,416.8 393.1,416.8 393.2,416.6 395.6,416.5 395.7,416.3 397,416.3 397.9,415.9 398.4,415.5 398.9,415.5 399.1,415.4
			399.8,415.4 400,415.2 400.3,415.2 400.5,415.4 401.7,415.2 403,414.6 403.3,414.4 403.8,414.4 403.9,414.3 404.6,414.3
			404.7,414.1 404.9,414.3 405,414.1 405.5,414.1 405.7,414 407.7,414 408.2,414.3 409.3,414.3 409.5,414.7 410.1,415.1 411,415.1
			411.2,414.9 411.5,414.9 412,414.6 412.4,414.6 412.6,414.4 414,415.2 414.8,415.4 415.3,415.7 416.4,415.9 416.5,416 417,416
			417.2,416.2 418,416.2 418.3,416.5 419.1,416.5 419.2,416.6 420.6,416.6 421.4,416.2 421.9,416.2 423.5,415.4 423.9,415.4
			424.4,415.9 424.7,415.9 424.9,416 425.4,416 425.5,415.9 426.3,415.9 426.6,416.2 426.9,416.2 427.1,416.3 427.4,416.2
			428.4,416.2 428.5,416 429.3,416 429.5,416.2 430.1,416.2 430.9,415.5 432.1,414.9 432.5,414.9 432.6,414.8 433.1,414.8
			433.9,414.3 434.2,414.3 434.8,414 435.4,413.8 435.6,413.6 436.1,413.7 437.3,412.4 437.7,412.2 438.3,412.2 438.4,412.1
			439.2,412.1 440.2,411.6 440.3,411.3 440.8,411.1 441.3,410.7 442.1,410.2 443,410.2 443.6,409.7 444,409.6 445.5,409.6
			445.7,409.4 446.2,409.4 446.3,409.2 447.4,409.1 448.4,408.6 448.6,408.2 448.6,407.9 448.9,407.6 449.2,407 449.2,406.6
			450.2,405.7 450.3,405.5 450.4,405.5 450.9,405 451.4,404.8 452.3,403.9 452.9,403.6 454.7,402.1 455.9,401.5 457,401.4
			457.2,401.2 458.5,401.2 459.1,401.5 459.4,401.5 459.6,401.8 459.6,402.1 459.8,402.2 459.8,403.2 460.1,403.8 460.1,404.3
			460.5,404.4 461,404.7 461.6,404.6 462.3,403.9 461.5,403.6 461.4,403 461.2,402.8 461.2,402.2 460.9,401.6 460.5,399.1
			460.4,398.5 460.3,398.3 460.3,397.7 460.1,397.5 460.1,396.9 459.9,396.7 459.9,395.3 459.8,395.1 459.8,394.5 459.6,394.4
			459.6,393.4 459.5,393.2 459.5,392.8 459.3,392.6 459.3,390.4 459.2,390.3 459.2,389.1 343.6,289.2 		"/>
		<polygon fill="#CE1126" points="332.4,298.9 332.5,297.9 331.8,296.9 331.5,296.9 331.1,297.4 330.8,297.4 330.7,297.2
			329.9,297.2 329.4,297.7 328.7,297.8 328.2,298.7 328.2,299.8 328.1,300.1 327.3,300.9 327.3,301.1 326.8,301.4 326.8,301.5
			327.5,301.6 328,301.1 328.2,301.4 328.2,301.5 328.5,301.6 328.8,301.3 329.1,301.8 330.1,301.8 330.2,301.9 330.5,301.9
			330.8,301.7 330.1,301.2 330,300.9 330,300.4 330,300.4 330.5,300.8 331.1,300.5 331.5,301 331.6,301 331.9,300.7 332.3,300.7
			332.3,300.4 331.9,299.3 331.9,299 331.5,298.7 331.5,298.5 331.8,298.3 332.2,298.7 332.2,298.9 		"/>
		<polygon fill="#CE1126" points="470.5,282 470.5,281.5 470.3,281.4 470.5,281.2 470.5,280.9 471.1,280.3 471.1,280 471.4,279.6
			471.4,279.3 471.6,279.2 471.6,278.7 472,278.3 472.5,278.3 472.6,278.1 473.3,278.3 473.4,278.1 473.9,278.1 474.1,277.9
			474.2,277.4 474.7,277.3 474.8,277.2 475,277.2 475.5,276.6 475.6,276.6 475.9,276.3 476.4,276.2 476.6,276 476.6,275.5
			476.3,275.2 476.2,274.8 475.9,274.3 476,274 476.9,273.2 477.1,272.5 476.9,272.3 474.7,272.3 474.5,272.1 474.2,272.1
			473.9,271.8 472.9,271.7 472.2,271.1 472,271 471.7,270.7 471.4,270.7 471,271.2 470.7,271.2 470.2,271.6 470.2,272.1
			469.8,272.5 467.1,272.5 466.6,272.2 465.5,272.2 465.2,272.3 465.1,272.2 462.5,272.1 462.4,272.3 461,272.3 460.5,272.1
			459.6,271.7 459.3,271.5 459.2,271.1 458.6,270.7 458.1,270.8 458,271.1 457.2,271 470.3,282.3 		"/>
		<polygon fill="#CE1126" points="341.8,305.5 341.9,305.7 342,305.7 342.4,305.5 342.4,305 342.3,304.9 341.9,304.9 341.8,305
			341.8,305.2 341.6,305.3 		"/>
		<polygon fill="#CE1126" points="335.7,303.7 334.9,303.7 334.8,304.1 334.1,304.3 333.9,304.7 334.1,304.9 336,305.1 336.2,304.9
			336.3,305 336.2,305.4 337.1,305.6 337.4,305.3 337.4,304.9 337.8,304.7 338,304.1 337.8,303.7 337.3,303.7 337.1,303.8
			335.9,303.8 		"/>
		<polygon fill="#CE1126" points="346.6,305.7 346.5,305.8 346.5,306.1 346.6,306.2 346.9,306.2 347,306.1 347,306 346.7,305.7
			"/>
		<polygon fill="#CE1126" points="347.3,305.6 347.3,305.5 347.4,305.3 347.2,304.9 346.8,305.2 346.8,305.5 347.2,305.7 		"/>
		<polygon fill="#CE1126" points="341.1,306.2 341.1,306.1 341.2,305.7 341.1,305.6 340.9,305.6 340.5,306 340.5,306.1 340.6,306.2
					"/>
		<polygon fill="#CE1126" points="336.9,302.5 336.7,302.3 336.1,302.7 336.2,302.7 336.8,302.7 		"/>
		<polygon fill="#FFFFFF" points="457.2,271 456.7,270.9 456.6,270.8 455.6,270.8 455.5,270.9 454.7,270.9 454.4,271.1 454.2,271.2
			454,271.1 453.9,271.2 453.2,271.2 452.9,271.6 452.6,271.2 451.8,271.2 451.6,271.5 451.6,271.8 451.3,272.3 451.3,272.6
			450.6,273.2 450.7,273.4 449.8,273.4 448.5,272.8 447.9,272.8 447.7,273 447.1,273 446.9,273.1 446.6,273.1 446.3,273.4
			445.2,273.4 444.7,273.8 444.3,273.8 443.2,274.2 442.7,274.2 442.5,274.4 441.1,274.4 440.8,274.7 440.5,274.7 440.3,274.9
			439.4,274.8 439.3,274.9 461.7,294.3 461.7,294.2 462.1,294.2 462.2,294.1 462.5,294.5 462.9,294.3 462.8,294 462.8,293.2
			463.3,292.4 463.3,292.2 463.5,292.2 463.7,291.8 463.7,291.1 464.3,290.9 464.9,290.3 465.4,290.1 465.6,289.9 465.6,289.6
			465.8,289.4 465.8,288.9 466.5,288.3 466.6,288 467.3,287.4 467.9,287.3 468.2,286.8 468.5,286.8 468.8,286.3 469.1,286.3
			469.2,286 469.3,286 469.7,285.6 469.7,285 469.9,284.8 470,284 470.3,283.6 470.3,282.8 470.2,282.5 470.3,282.3 		"/>
		<polygon fill="#FFFFFF" points="362.6,286.9 362.4,287.5 362.2,287.8 361.7,287.8 361.4,288.1 360.8,288.2 360.6,288.1
			360.1,288.1 359.7,287.8 359,287.8 358.9,287.9 358.4,287.9 357,288.7 356.7,289 356.3,289 356,288.7 355.7,288.7 355.4,288.4
			355.1,288.6 354.6,288.5 354.5,288.7 354.1,288.4 353.8,288.4 353.7,288.2 353.1,288.2 352.1,289 351.5,289.2 350.7,289.5
			350.2,289.2 349.4,289.2 349.1,289 349,289.2 346.3,289.2 346.1,289 345.5,289 345.3,288.9 344.4,288.9 344.2,289 343.9,289
			343.6,289.2 459.2,389.1 459.3,387.9 459.5,387.7 459.6,385.8 459.8,385.7 459.8,383.8 459.9,383.6 459.9,382.7 460.1,382.5
			460.1,380.2 460.3,380 460.3,374.7 460.4,374.5 460.5,373.9 460.6,372.9 461,372 461,371.6 461.2,371.4 362.9,286.5 		"/>
		<polygon points="363.1,285.1 363.3,285.2 363.5,285.2 363.4,284.5 362.7,284.4 362.4,284.7 362.4,284.8 362.7,285.1 		"/>
		<polygon points="439.2,275 438.6,275 438.4,275.2 437.8,275.2 437.7,275 436.5,275 436.1,274.7 435.5,274.9 435.3,275
			434.3,274.9 434.2,275 433.6,275 433.4,274.9 432.9,274.9 431.8,275.6 431.5,275.6 431.1,276 431.1,276.4 430.9,276.6
			430.6,276.6 429.9,276.9 429.8,276.7 429.6,276.9 428.2,276.9 427.7,277.4 426.9,277.2 426.6,277.5 426.1,277.7 425.8,278.2
			425.5,278.2 424.7,279.1 424.3,279.1 423.6,279.4 422.4,279.3 422.1,279.6 421.3,279.6 421.1,279.7 420.6,279.7 420.5,279.9
			419.4,279.9 418.6,279.3 418.4,279.7 417.8,280 416.1,280.1 415.6,279.6 415.4,279.8 415.4,280 415,280.2 413.9,280.2 413.7,280
			412.6,279.9 412.6,279.6 412.1,279.7 412.1,280 412.4,280.1 412.3,280.2 411.4,280.2 410.9,279.9 410.2,280.1 410.1,279.9
			408.8,279.9 408.7,280.1 408.4,279.9 408.2,280 407.9,280 407.4,279.7 407.1,279.7 406.6,279.3 406.3,279.3 406.2,279.4
			406,279.3 405.4,279.3 405.2,279.6 404.7,279.4 404.6,279.6 402.7,279.6 402.5,279.4 402,279.4 401.9,279.3 401.3,279.3
			401.1,279.1 399.8,279.1 399.7,279 398.7,278.9 398.6,278.8 398.1,278.8 398,278.6 397.5,278.6 396.8,278.2 395.9,278.2
			395.4,277.9 395,277.9 394,277.4 393.7,276.9 393.1,276.7 392.9,276.6 390.7,276.6 390.5,277 390.9,277.8 390.8,277.9
			390.8,278.5 389.1,280.4 388.5,280.7 387.2,281.1 386,281.1 385.4,281.5 385.4,282 385.7,282.2 385.4,282.7 385,282.9
			384.2,282.9 384.1,283 383.3,282.9 382.8,282.6 382.8,282.2 382.4,281.6 381.6,281.6 380.9,282.3 380.9,282.5 380.2,283
			380.2,283.1 380.5,283.3 380.5,283.4 380,283.5 379.5,284 379.2,284 379,284.2 379,284.5 379.1,284.7 379.1,285.2 379.4,285.5
			379.6,285.9 379.2,286.3 378.6,286.5 378.4,286.7 377,286.7 376.3,286.1 376.5,285.7 376.8,285.6 376.8,285.3 376.4,285.2
			376.1,285 376.1,284.5 376.8,284.1 376.8,283.9 376.2,283.4 375.9,283.7 375.3,284 374.8,284 374.6,284.4 374.6,284.7
			374.7,284.8 374.6,285.1 374.5,285.1 374,285.7 372.9,285.7 372.3,285 372.3,284.8 372.7,284.5 372.8,283.9 372.1,283.8
			371.6,283.5 370.4,283.5 369.9,283 369.7,283.3 370,284.1 369.8,284.2 369.8,284.5 370.3,284.8 370.5,285.2 370.6,285.5
			370.3,285.8 370,286.4 369.8,286.7 369.3,286.8 368.6,287.6 368.2,287.6 367.9,287.8 367.3,287.4 367.3,286.7 367.2,286.4
			366.9,286.3 366.4,285.7 366.1,285.8 366.5,286.6 366.4,286.7 366.3,287 365.5,287.4 365,287.4 364.6,286.7 363.8,286.1
			364,285.8 363.9,285.6 363.5,285.6 363.2,285.8 363.2,286.1 362.9,286.5 461.2,371.4 461.5,370.9 461.5,370.5 462.6,368.5
			462.9,368.2 463.5,368.3 464,368.6 464.7,368.7 465.1,368.4 465.5,368.3 465.4,367.6 466.1,366.3 466.1,366 465.7,365.7
			465.4,366.1 464.7,366 464.6,366.2 464.3,366 463.6,366.1 463.2,366.8 462.4,366.8 462.2,366.7 461.6,366.7 461.5,366.3
			461.1,365.7 460.5,365.4 459.5,363.6 459.5,363.3 458.2,361 458.1,360.3 457.6,359.5 457.4,358.6 457.3,358.4 456.8,356.5
			456.3,355.9 456,355.6 456,355.1 455.8,355 455.9,354.6 455.5,354 455.5,353.4 454.9,352 454.9,351.3 454.7,351.2 454.7,350.7
			454.3,349.8 454.1,349 454,348.8 454,348.5 453.8,348.4 453.8,348 453.3,346.9 453.3,346.3 453.2,346.1 453.2,345.4 452.9,344.7
			452.9,344.1 452.7,343.9 452.7,343.1 452.5,343 452.5,342.4 452.4,342.2 452.4,341.4 452.2,341.3 452.2,339.7 452.1,339.5
			451.9,337 451.8,336.8 451.8,334.8 451.9,334.6 451.9,334.2 452.2,333.5 452.8,333.1 453.3,333.3 453.4,333.1 454.4,333.2
			455.3,331.9 455.9,331.7 456.1,331.6 457.2,331.9 457.6,331.5 457.6,330.2 457.3,329.8 457.3,328.8 457,328 456.8,326.8
			456.6,326.6 456.5,325 456.2,324.2 456.2,321.4 456,321.2 456,320.5 455.9,320.3 455.9,319.8 455.7,319.7 455.7,318.9
			455.5,318.7 455.5,317.9 455.4,317.8 455.4,316.5 455.2,316.4 455.2,315.4 455.1,315.3 455.1,314.5 454.9,314.3 454.9,313.9
			454.5,313.5 454.3,313.5 453.7,313.9 453.2,313.9 452.8,314.2 452.7,314.2 452.9,313.8 453.9,313.5 454.6,312.7 454.6,312.1
			454.3,311.6 454.1,310.8 454,310.7 454,310.1 453.8,309.9 453.6,308.3 453.5,308.2 453.5,307.2 453.3,307.1 453.3,306
			453.2,305.8 453.2,305.2 453,305 453,303.9 452.9,303.8 452.9,302.8 452.7,302.7 452.7,302 452.9,301.9 452.8,300.6 453.1,300.4
			453.7,300.2 454,300 454,299.5 454.1,299.4 454.3,298.4 454.6,298.1 454.6,297.9 455.5,297.4 455.8,297.4 456.1,297.1
			456.7,296.9 457,297.2 457.3,297.4 457.8,297.4 458,297.5 459.1,297.5 459.2,297.4 459.7,297.4 460.5,297 460.7,295.9
			460.9,295.7 460.9,295.2 461.2,294.9 461.2,294.8 461.7,294.3 439.3,274.9 		"/>
		<polygon points="457,297.7 457,297.8 457.2,298 457.3,298 457.4,297.9 457.4,297.8 457.3,297.7 		"/>
	</g>

		<path fill="none" stroke="#999999" stroke-width="0.25" stroke-linecap="round" stroke-linejoin="round" stroke-miterlimit="10" d="
		M316.2,303.5l0.6-0.6h0.5l0.2,0.2l0.9,0l0.2,0.2l1.1,0.2l0.1-0.2l-0.2-0.3l-0.5-0.4l-0.2,0l-0.5-0.5l-0.9-0.2l-0.2-0.2l0.2-0.5
		l-0.2-0.2l0.4-0.1l0.3-0.3l0.6,0l0.3-0.5l0.5,0.4v0.3l0.2,0.2l0.5,0.2l0.3,0.3h0.6l0.3,0.3l0.4-0.2l-0.2-0.5l-0.2-0.1l-0.2-0.2
		v-0.5l-0.2-0.2h-0.2l-0.8-0.8l-1.1-0.6l-0.6-0.6l-0.9,0l-0.2,0.2l-0.5,0l-0.2,0.2l0.2,1.4l-0.5,0.5l0,0.3l0.2,0.2l0.2,0.1v0.5
		l-0.3,0.6l0,0.3l-0.2,0.2l-0.5,0.2l-0.4,0.6l0.2,0.2L316.2,303.5z M317.1,298L317.1,298l0.1-0.4l-0.1-0.1h-0.3l-0.1,0.1v0.3
		l0.1,0.1H317.1z M363.1,285.1l0.2,0.2l0.2-0.1l-0.1-0.7l-0.8,0l-0.2,0.2v0.2l0.2,0.2H363.1z M323.1,297.4l0.5,0.6l0.4,0.1v0.3
		l0.2,0.2v0.5l-0.3,0.6l0,0.6l-0.3,0.5l0.4,0.1l0.3-0.1l0.1-0.4l0.4-0.4l0.2,0.2l0.9-0.5l-0.5-0.6l0.2-0.2l-0.2-0.3l-0.2-0.2l-0.3,0
		l-0.2-0.3l-0.5,0l-0.1-0.4l-0.2-0.2h-0.2l-0.3-0.3l-0.3,0l-0.3-0.3l-0.6,0.2l-0.2,0.4l0.2,0.2H323.1z M333.6,298.2v-0.2l-0.1-0.1
		h-0.2l-0.1,0.1v0.2l0.1,0.1L333.6,298.2L333.6,298.2z M474.7,272.3l-0.2-0.2h-0.3l-0.3-0.3l-0.9-0.2l-0.8-0.6l-0.2,0l-0.3-0.3h-0.3
		l-0.3,0.5l-0.3,0l-0.6,0.4l0,0.5l-0.4,0.4l-2.7,0l-0.5-0.3h-1.1l-0.3,0.2l-0.2-0.2l-2.5,0l-0.2,0.2l-1.4,0l-0.5-0.2l-0.9-0.4
		l-0.2-0.2l-0.1-0.4l-0.6-0.3l-0.5,0l-0.2,0.3l-1.3-0.2l-0.2-0.2l-0.9,0l-0.2,0.2l-0.8,0l-0.3,0.1l-0.2,0.2l-0.2-0.2l-0.2,0.2
		l-0.6,0l-0.3,0.3l-0.3-0.3l-0.8,0l-0.2,0.2l0,0.3l-0.3,0.5l0,0.3l-0.6,0.6l0,0.2l-0.9,0.1l-1.3-0.6l-0.6,0l-0.2,0.2l-0.6,0
		l-0.2,0.2h-0.3l-0.3,0.3l-1.1,0l-0.5,0.3l-0.5,0l-1.1,0.5l-0.5,0l-0.2,0.2h-1.4l-0.3,0.3l-0.3,0l-0.2,0.2l-0.9,0l-0.2,0.2l-0.6,0
		l-0.1,0.2l-0.6,0l-0.2-0.2l-1.1,0l-0.5-0.3l-0.6,0.2l-0.2,0.2l-0.9-0.2l-0.2,0.2h-0.6l-0.2-0.2l-0.5,0l-1.1,0.8l-0.3,0l-0.4,0.4
		v0.3l-0.2,0.2h-0.3l-0.6,0.3l-0.2-0.2l-0.2,0.2l-1.4,0l-0.5,0.5l-0.8-0.2l-0.3,0.3l-0.5,0.2l-0.3,0.5l-0.3,0l-0.8,0.9h-0.5
		l-0.6,0.3l-1.3-0.2l-0.3,0.3l-0.8,0l-0.2,0.2h-0.5l-0.2,0.2l-1.1,0l-0.8-0.6l-0.2,0.4l-0.6,0.4l-1.7,0l-0.5-0.5l-0.2,0.2l0,0.2
		l-0.4,0.2l-1.1,0l-0.2-0.2l-1.1-0.1v-0.3l-0.5,0.1v0.3l0.3,0.2l-0.1,0.1l-0.9,0l-0.5-0.3l-0.6,0.2l-0.2-0.2l-1.2,0l-0.2,0.2
		l-0.3-0.2l-0.2,0.2h-0.3l-0.5-0.3l-0.3,0l-0.5-0.5h-0.3l-0.1,0.2l-0.2-0.2l-0.6,0l-0.2,0.3l-0.5-0.2l-0.2,0.2l-1.9,0l-0.2-0.2
		l-0.5,0l-0.2-0.2h-0.6l-0.2-0.2l-1.3,0l-0.2-0.2l-0.9,0l-0.2-0.2l-0.5,0l-0.2-0.2l-0.5,0l-0.6-0.5l-0.9,0l-0.5-0.3H395l-1-0.5
		l-0.3-0.5l-0.6-0.2l-0.2-0.2h-2.2l-0.2,0.4l0.5,0.8l-0.2,0.2l0,0.6l-1.7,1.8l-0.6,0.3l-1.3,0.5l-1.3,0l-0.6,0.4v0.5l0.3,0.2
		l-0.4,0.6l-0.3,0.2l-0.8,0l-0.2,0.2l-0.8-0.2l-0.5-0.3l-0.1-0.4l-0.4-0.6l-0.8,0l-0.7,0.7v0.2l-0.6,0.5v0.2l0.3,0.2v0.2l-0.6,0.1
		l-0.5,0.5h-0.3l-0.2,0.2v0.3l0.2,0.2v0.5l0.3,0.3l0.2,0.5l-0.4,0.4l-0.6,0.2l-0.2,0.2l-1.4,0l-0.7-0.5l0.2-0.4l0.2-0.1l0-0.3
		l-0.4-0.1l-0.2-0.2l0-0.5l0.6-0.5v-0.2l-0.6-0.5l-0.3,0.3l-0.6,0.3l-0.5,0l-0.2,0.4v0.3l0.2,0.2l-0.1,0.2h-0.2l-0.5,0.6l-1.1,0
		l-0.6-0.7v-0.2l0.3-0.3l0.2-0.6l-0.7-0.1l-0.5-0.3l-1.3,0l-0.5-0.5l-0.2,0.2l0.3,0.8l-0.2,0.2v0.3l0.5,0.3l0.2,0.3l0.2,0.3
		l-0.3,0.3l-0.3,0.6l-0.2,0.2l-0.5,0.2l-0.6,0.8l-0.5,0l-0.3,0.2l-0.5-0.4l0-0.6l-0.2-0.3l-0.2-0.1l-0.5-0.6l-0.4,0.1l0.5,0.8
		l-0.2,0.1l-0.1,0.2l-0.8,0.5H365l-0.4-0.7l-0.8-0.6l0.2-0.3l-0.1-0.2h-0.5l-0.2,0.2l0,0.3l-0.6,0.8l-0.2,0.6l-0.2,0.2l-0.5,0
		l-0.3,0.3l-0.6,0.2l-0.2-0.2l-0.5,0l-0.5-0.3l-0.6,0l-0.2,0.2h-0.5l-1.4,0.8l-0.3,0.3h-0.3l-0.3-0.3l-0.3,0l-0.3-0.3l-0.3,0.2
		l-0.5,0l-0.2,0.2l-0.3-0.3h-0.3l-0.2-0.2l-0.6,0l-1,0.8l-0.6,0.2l-0.8,0.3l-0.5-0.3h-0.8l-0.3-0.2l-0.2,0.2h-2.7l-0.2-0.2l-0.6,0
		l-0.2-0.2h-0.9l-0.2,0.2l-0.3,0l-0.3,0.2l-0.1,0.2l-0.7,0.7l-0.2,0.1l0.2,0.5l-0.2,0.2l-0.5,0l-0.3-0.2l-0.4,0.2l-0.1,0.4l-0.5,0.2
		l-0.3,0.3h-0.3L340,292l-0.3-0.2l-0.2,0.2l0,0.3l-0.2,0.1l-0.5,0.6l-0.3,0.8l-0.4,0.4l-0.9,0.2l-0.3,0.5l-0.2-0.2l-1.1,0l-0.8,0.6
		l-0.9,0l-0.6,0.4l-0.2,0.5l0.3,0.6l0.2,0.3v0.5l0.2,0.2l0.6-0.2l0.3-0.5l0.1,0.1l0,0.6l-0.5,0.5v0.3l-0.6,0.6v0.3l0.4,0.4l0.9,0.4
		v0.3l-0.4,0.2l-0.2,0.4l0.4,0.1l0.2,0.2h0.9l0.6,0.5l0.5,0l0.2-0.3l0.5,0l0.2-0.2l0.2,0.2l2.5,0l0.1,0.1l-0.2,0.1v0.5l-0.5,0.5v0.3
		l0.2,0.2l-0.3,0.3l0.2,0.2l0.3,0l0.5,0.5l0.6,0l1.1-0.8l0.6,0l0.2-0.2l0.5-0.2l0.4-0.4l0-0.3l-0.4-0.1l-0.2,0.1l-0.1-0.4l-0.4-0.4
		h-0.5l-0.3,0.2l-0.1-0.4l0.4-0.4l0.3,0.2l0.6,0l0.6-0.5l0.2-0.1l0.4-0.7h0.5l0.5-0.5l0.4,0.2l0.2,0.5l0.4,0.4l0.3,0.2l2,0.2
		l0.2,0.2l1,0.2l0.2,0.2l0.9,0.2l0.8,0.5l0.2-0.2l1.4,0l0.2-0.8h0.3l0.2,0.2l0.1,0.4l0.9,0.2l0.2,0.2l1.3,0.3l0.8,0.6h0.2l0.5,0.5
		l0,0.8l0.3,0.3v0.3l0.4,0.6h0.2l0.3,0.5l0.6,0l0.8,0.5h0.3l0.3,0.3l0.9,0.5l0.4,0.4l0.1,0.3l1.1,0l0.1,0.2l-0.3,0.3l0.5,0.7
		l0.3,0.2l0.3-0.3l0.3,0l0.5-0.3l0.6,0.7l-0.2,0.6l-1.1,1.4l0,0.6l0.4,0.4h0.3l1.1,0.5l0.5,0.6l0.2,0.3l0,1.1l0.8,1.4v0.3l0.5,0.6
		l0.2,0.5l0.3,0.3l0.5,1.1l0,1l0.2,0.2l0.2,0.9l0.3,0.5v0.5l0.3,0.6l0.3,0.2l0,1.3l0.5,0.8l0.2,0.9l0.2,0.2l0,0.5l0.5,0.9L372,328
		l0.2,0.6l-0.2,0.1l-0.2,1.7l-0.3,0.6l-0.1,0.5l-1.3,1.3l0,0.6l0.2,0.2l0.3,0.6v0.5l0.2,0.2v0.6l0.3,0.6l-0.2,0.3l0,0.6l-0.2,0.2
		v0.5l-0.2,0.1v0.6l0.2,0.2l-0.6,0.6L370,340l-0.5,0.8l0,0.5l-0.5,0.6l0.2,0.2v0.3l-0.2,0.2l-0.2,0.8l-0.5,0.5l-0.3,1.3l-0.2,0.2
		l0,0.5l0.3,0.3l-0.2,0.2l-0.2,0.3l0,1.3l-0.2,0.2l-0.5,0.1l-0.2,0.2v0.3l-0.5,0.9l0,0.5l-0.2,0.2l-0.8,0l-0.2,0.2l0.2,0.4l2,0.1
		v0.6l-0.3,0.5l0,0.6l-0.5,0.6v0.2l0.6,0.6l0,0.6l-0.2,0.2l0.1,0.2l0.5,0.2l0.3-0.2l0.8,0.3l0.2,0.2l0.2,0.3l0,0.6l-0.5,1.1v0.5
		l-0.2,0.2l0,0.8l0.3,0.6l0.2,0.1l0.5,0.5l0,0.2l0.4,0.4h0.3l0.6,0.3l0.7,0.7l0,0.3l0.2,0.2v0.6l0.3,0.5l0.1,0.9l0.3,0.6l0,0.5
		l-0.2,0.2l0,1.3l0.3,0.6l-0.9,1.2l-0.6,0.2l0,0.3l0.2,0.2h0.5l0.7,0.4l-0.8,0.3l0,0.5l0.4,0.4l0.4,0.1v0.5l-0.2,0.3l0.5,0.3
		l0.3,0.6l0,0.8l-0.3,0.3l-0.3,0.6l-1.6,1.4l-0.2,0.5l-0.3,0.5l0,0.5l-0.2,0.2l0.2,0.3l0,0.8l-0.3,0.3v0.2l-0.5,0.5l-0.2,0.9
		l-0.4,0.4l-0.8,0.1l-0.3,0.3h-0.2l-1.4,1.1l-0.3,0.2l-0.5,0l-0.3,0.3l-0.5,0.2l-0.3,0.3h-0.3l-0.6,0.3l-0.5,0.5h-0.2l-0.6,0.5h-0.3
		l-0.5,0.3l-0.3,0l-0.8,0.5l-0.9,0.6h-0.3l-0.2,0.1l-1.1,0l-0.2,0.2l-0.6,0l-0.2,0.2l-0.9,0l-0.2,0.2l-0.2-0.2l-2.5-0.2l-0.2-0.2
		l-0.8,0l-0.2-0.2l-0.5,0l-0.2-0.2h-0.5l-0.3-0.2l-0.6-0.5l-0.8-0.3l-0.3-0.3l-0.8-0.2l-0.2-0.2l-1.1-0.2l-0.5-0.3l-0.8,0l-1.9-0.9
		l-0.6-0.2l-0.5-0.3l-0.5,0l-0.2,0.3l-0.8,0.2l-0.2,0.2h-0.8l-0.8,0.6h-0.2l-0.4,0.4l0,0.8l-0.2,0.2v0.5l0.5,0.3l0,0.9l-0.2,0.3
		l0.2,0.3l0.2,0.1l0.5,0.7l0,0.2l-0.3,0.3l-0.5,0.8l-1.6,1.7h-0.2l-1.4,1.3l-1.2,0.6h-0.3l-0.5,0.3H334l-0.9,0.4l0.2,0.8L333,395
		h-0.5l-0.6-0.6h-0.5l-0.2,0.2l-1.1,0.2l-0.2,0.2l-0.9,0.1l-0.2,0.3l0.5,0.9l0,0.5l-0.7,0.6l-0.7,0.2l0,0.9l-0.4,0.4l-0.5,0
		l-0.5,0.3h-0.3l-0.5,0.3l-0.6,0.2l-1.4,0.8l-1,0.2l-0.2,0.2l-0.6,0l-0.8,0.3l-1.1,0.2l-0.6,0.3H319l-0.2,0.2l-1.1,0l-0.2,0.2
		l-1.9,0l-0.2,0.2l-2,0l-0.2,0.2H311l-0.8,0.8l-0.3,0l-0.9,0.5l-0.5,0l-0.1,0.6l-0.4,0.4l-0.3,0.2l-0.5,0l-0.2,0.2h-0.9l-0.2,0.1
		l-2.3,0.1l0,0.8l0.2,0.2l0,1.6l-0.2,0.3l-0.9,0.9l-0.5,1.3l-1.2,0.9l-0.6,0.2l-0.8,0.5h-0.3l-0.6,0.6l-0.5,0l-0.8,0.3l-0.6,0
		l-0.2,0.2H293l-0.8,0.6l-0.3,0.2l-0.2-0.2l-0.3,0.2l-1.6,0l-0.2,0.2l-1.6,0l-0.2,0.2l0.3,0.5l0,0.3l-0.5,0.8L287,416h-0.2l-1.7,1.7
		l-0.6,0.2l-0.4,0.4l0,1.1l-0.2,0.2l0,0.8l0.4,0.6l0.9,0.6h0.5l0.5,0.3l0.5,0l0.2,0.2l3.3,0l0.2-0.2h0.3l0.3-0.3l0.6-0.2l1.3-0.8
		l2.5-2.1l0.9-0.1l0.2-0.2l1.3-0.1l0.2-0.2h0.5l1.1-0.8l0.5,0l0.2-0.1h0.5l1.2-1.1l0.5-0.2l0.3-0.3l1.3-0.6l0.6-0.3l0.3,0l0.5-0.3
		l0.6,0l0.2-0.2l1.1,0l0.2-0.2l2.2,0l1.4,0.8l0.3,0.5l0.2,0.1l0.2,0.5l0.4,0.4l0.3,0.2h0.3l1.1-0.6l0.5-0.3l0.3,0l0.9-0.5l0.8-0.2
		l0.2-0.2l1.1,0l0.2-0.2h0.6l0.3,0.2l0.2-0.2l2.5-0.2l0.1-0.2l2.1,0l0.2,0.2h2.8l0.2-0.2h2l0.5,0.5h0.3l0.6,0.3h0.9l0.2,0.2l0.8,0
		l0.5,0.3l0.5,0l0.3,0.3l0.9,0.5l0.7,0.7l0.1,0.6l0.2,0.2l0.5,0.2l0.5,0.6l0,0.3l0.4,0.4h0.6l0.5,0.3h0.5l0.2-0.2h0.5l0.2-0.2h0.8
		l0.3,0.3l0.6,0.2l0.2,0.2h0.5l1-0.5l0.3-0.3l0.6-0.1l0.3-0.3h0.3l0.5-0.3l1.4-0.2l0.2-0.2l0.3,0.2l0.8,0l1.3-0.6l0.9-0.5l0.8,0
		l0.2-0.2h0.5l0.2-0.2h2.7l0.2,0.2l0.5,0l0.2,0.2h0.6l0.2-0.2l1.6,0l0.2-0.2h0.5l0.2-0.2h2.8l0.8,0.6l0.6,0.2l0.2-0.2h0.5l0.6-0.3
		l1.1,0l0.2,0.2h0.5l1,0.8l0.9,0l0.2-0.2l2.7,0l0.2-0.2h1.4l0.6-0.3l1.4-0.2l0.6-0.3h1.7l0.2,0.2l1.6,0l0.2-0.2l0.2,0.2l0.2-0.2
		l0.2,0.2l0.6,0l1-0.5l1.3,0l0.2-0.2l0.8,0l0.2-0.2l0.8,0l0.6,0.5h1.4l0.6,0.3l1.1,0l0.5,0.5l0.6,0l0.6-0.3h2.7l0.2,0.2l0.6,0
		l0.2-0.2l1.3,0l0.2-0.2l2.4-0.2l0.2-0.2l1.3,0l0.9-0.5l0.5-0.3l0.5,0l0.2-0.2l0.8,0l0.2-0.2h0.3l0.2,0.2l1.2-0.2l1.3-0.6l0.3-0.2
		l0.5,0l0.2-0.2l0.6,0l0.2-0.1l0.2,0.2l0.2-0.2h0.5l0.2-0.2h2l0.5,0.3l1.1,0l0.2,0.4l0.6,0.4l0.9,0l0.2-0.1h0.3l0.5-0.3l0.5,0
		l0.2-0.2l1.4,0.8l0.8,0.2l0.5,0.3l1.1,0.2l0.2,0.2h0.5l0.2,0.2l0.8,0l0.3,0.3l0.8,0l0.2,0.2h1.4l0.8-0.5l0.5,0l1.6-0.8h0.5l0.5,0.5
		l0.3,0l0.2,0.2h0.5l0.2-0.2h0.8l0.3,0.3h0.3l0.2,0.2l0.3-0.2l0.9,0l0.2-0.1l0.8,0l0.2,0.2l0.6,0l0.8-0.6l1.3-0.6h0.3l0.2-0.2l0.5,0
		l0.8-0.5l0.3,0l0.6-0.3l0.6-0.2l0.2-0.2l0.5,0l1.3-1.3l0.3-0.2l0.6,0l0.2-0.2l0.8,0l0.9-0.5l0.2-0.3l0.5-0.2l0.5-0.5l0.8-0.5l0.9,0
		l0.6-0.5l0.3-0.2h1.6l0.2-0.2l0.5,0l0.2-0.2l1.1-0.2l0.9-0.5l0.2-0.4v-0.3l0.3-0.3l0.3-0.6v-0.3l1-1l0.1-0.2h0.2l0.5-0.5l0.5-0.2
		l0.9-1l0.6-0.3l1.7-1.4l1.3-0.6l1.1-0.2l0.2-0.2h1.3l0.6,0.3l0.3,0l0.2,0.2v0.3l0.2,0.2l0,0.9l0.3,0.6l0,0.5l0.4,0.1l0.5,0.3l0.6,0
		l0.7-0.7l-0.8-0.3l-0.2-0.6l-0.2-0.2l0-0.6l-0.3-0.6l-0.4-2.5l-0.1-0.6l-0.2-0.2v-0.6l-0.2-0.2l0-0.6l-0.2-0.2l0-1.4l-0.2-0.2v-0.6
		l-0.2-0.2l0-0.9l-0.2-0.2l0-0.5l-0.2-0.2v-2.2l-0.2-0.2l0.2-2.4l0.2-0.1l0.2-1.9l0.2-0.2l0-1.9l0.2-0.2l0-1l0.2-0.1v-2.4l0.2-0.2
		v-5.3l0.2-0.2l0.1-0.6l0.1-1l0.5-0.9v-0.3l0.5-0.8l0-0.3l1.1-2l0.2-0.3l0.6,0l0.5,0.3l0.8,0.2l0.3-0.3l0.4-0.1l0-0.8l0.6-1.3l0-0.3
		l-0.4-0.2l-0.3,0.3l-0.6,0l-0.2,0.2l-0.3-0.2l-0.6,0l-0.5,0.8l-0.8,0l-0.2-0.2l-0.6,0l-0.1-0.4l-0.4-0.6l-0.6-0.3l-1-1.8l0-0.3
		l-1.3-2.4l-0.2-0.6l-0.5-0.8l-0.2-0.9l-0.2-0.2l-0.5-1.9l-0.5-0.6l-0.3-0.3v-0.5l-0.2-0.2l0-0.3l-0.3-0.6l0-0.6l-0.6-1.4l0-0.6
		l-0.2-0.2v-0.5l-0.5-1l-0.1-0.8l-0.2-0.2l0-0.3l-0.2-0.2V348l-0.5-1.1l0-0.6l-0.2-0.2l0-0.8l-0.3-0.6l0-0.6l-0.2-0.2l0-0.8
		l-0.2-0.2v-0.6l-0.2-0.2l0-0.8l-0.2-0.2v-1.6l-0.2-0.2l-0.1-2.5l-0.2-0.2l0-2.1l0.2-0.2l0-0.5l0.3-0.6l0.6-0.4l0.5,0.2l0.2-0.2
		l0.9,0l1-1.3l0.6-0.2l0.2-0.2l1.1,0.3l0.4-0.4l0-1.3l-0.3-0.5l0-1L457,328l-0.2-1.3l-0.2-0.2l-0.2-1.6l-0.3-0.8v-2.8l-0.2-0.2
		l0-0.8l-0.2-0.2v-0.5l-0.2-0.2l0-0.8l-0.2-0.2l0-0.8l-0.2-0.2l0-1.3l-0.2-0.2l0-0.9l-0.2-0.2l0-0.8l-0.2-0.2v-0.5l-0.4-0.4l-0.2,0
		l-0.6,0.5l-0.5,0l-0.5,0.3l-0.1-0.1l0.2-0.4l0.9-0.3l0.7-0.7l0-0.6l-0.3-0.5l-0.1-0.8l-0.2-0.2l0-0.6l-0.2-0.2l-0.2-1.6l-0.2-0.2
		l0-0.9l-0.2-0.2l0-1.1l-0.2-0.2l0-0.6L453,305l0-1.1l-0.2-0.2l0-0.9l-0.2-0.2V302l0.2-0.2l0-1.3l0.2-0.2l0.6-0.2l0.2-0.2l0-0.5
		l0.2-0.2l0.1-1l0.3-0.3l0-0.2l0.9-0.6l0.3,0l0.3-0.3l0.6-0.2l0.3,0.3l0.3,0.2h0.5l0.2,0.2l1.1,0l0.2-0.2h0.5l0.8-0.4l0.2-1.1
		l0.2-0.2l0-0.5l0.3-0.3v-0.2l0.6-0.6l0.3,0l0.2-0.2l0.3,0.5l0.4-0.2l-0.2-0.3l0-0.8l0.5-0.8v-0.2l0.2-0.1l0.2-0.4l0-0.6l0.6-0.2
		l0.6-0.6l0.5-0.2l0.2-0.2v-0.3l0.2-0.2l0-0.5l0.8-0.6l0-0.3l0.7-0.5l0.6-0.2l0.3-0.5h0.3l0.3-0.5l0.2-0.1l0.1-0.2h0.2l0.4-0.4
		l0-0.6l0.2-0.2l0.2-0.8l0.3-0.5l0-0.8l-0.2-0.3l0.3-0.5l0-0.5l-0.2-0.2l0.2-0.1l0-0.3l0.6-0.6V280l0.3-0.3v-0.3l0.2-0.2v-0.5
		l0.4-0.4h0.5l0.2-0.2l0.6,0.2l0.1-0.2l0.5,0l0.2-0.2l0.1-0.6l0.5,0l0.2-0.2l0.2,0l0.5-0.6l0.2,0l0.3-0.3l0.5,0l0.2-0.2l0-0.5
		l-0.3-0.3l-0.2-0.5l-0.3-0.5l0.2-0.3l0.9-0.8l0.2-0.6l-0.2-0.2L474.7,272.3z M335.7,303.7l-0.8,0l-0.2,0.5l-0.6,0.2l-0.2,0.4
		l0.2,0.2l1.9,0.2l0.2-0.2l0.1,0.1l-0.1,0.4l0.9,0.2l0.2-0.2l0-0.5l0.5-0.2l0.2-0.6l-0.2-0.4l-0.5,0l-0.2,0.2l-1.3,0L335.7,303.7z
		 M457,297.7L457,297.7l0.2,0.3h0.2l0.1-0.1l0-0.2l-0.1-0.1L457,297.7z M548.7,173.9l0.2-0.2l0-0.3l-0.2-0.2l-0.2,0l-0.1,0.2l0,0.3
		l0.2,0.2H548.7z M549.4,173.9l1,0l1-0.5l0.1-0.6l-0.3-0.2l-0.2,0.2l-0.3,0l-0.3,0.3l-0.3,0l-0.2-0.2l-0.7,0l-0.2,0.2l0,0.3
		L549.4,173.9z M551,181.8l0,0.2l0.1,0.1h0.2l0.3-0.3l-0.1-0.2l-0.3,0L551,181.8z M527.6,178l0.3-0.3l-0.2-0.2h-0.1l-0.2-0.2
		l-0.3,0.3v0.2l0.2,0.1H527.6z M549.8,172.7l0.3-0.3l-0.3-0.3h-0.1l-0.3,0.3v0.2l0.2,0.1L549.8,172.7z M532.9,179.5l0.2,0l0.1-0.2
		l0-0.1l-0.2-0.2h-0.1l-0.2,0.2l0,0.2L532.9,179.5z M541,179.1l0.1-0.2l0-0.2l-0.2-0.2l-0.2,0l-0.2,0.2v0.1l0.2,0.2L541,179.1z
		 M540.5,178.6l-0.1-0.1l-0.2-0.1l-0.1,0.1l0.3,0.2L540.5,178.6z M328,301.1l0.2,0.2v0.2l0.2,0.1l0.3-0.3l0.3,0.5l1,0l0.2,0.2l0.3,0
		l0.2-0.2l-0.6-0.5l-0.2-0.3v-0.5l0.1-0.1l0.5,0.5l0.6-0.3l0.3,0.5h0.2l0.3-0.3h0.3l0.1-0.2l-0.5-1.1V299l-0.3-0.3v-0.2l0.2-0.2
		l0.4,0.4v0.2l0.2,0.1l0.1-1l-0.7-1h-0.3l-0.3,0.5l-0.3,0l-0.2-0.2h-0.8l-0.5,0.5l-0.7,0.1l-0.5,0.9l0,1.1l-0.2,0.3l-0.8,0.8v0.2
		l-0.5,0.3v0.2l0.7,0.1L328,301.1z M549.5,185.1l-0.8,0l-0.1-0.2l0-0.8l-0.2-0.2l0.2-0.5l0.3-0.3l0.3,0l0.8-0.6l-0.3-0.6l0-0.5
		l0.9,0.5l0.2-0.1l0-0.3l-0.2-0.2l0-0.5l0.2-0.3l0.3-0.1l0.3-0.5l-0.1-0.4l-0.4-0.3l0-0.6l0.4-0.3l-0.2-0.3l-0.5,0l0-0.4l0.4-0.4
		l-0.3-0.4l-1.1,0l0-0.4l-0.3-0.4l0.1-0.3l-0.1-0.3l0.3-0.1l-0.3-0.3l-0.6,0.2l-0.3,0.3L548,176l-0.3,0.1l-0.1,0l-0.5-0.5l-0.5,0.4
		l-1,0l-0.2,0.3l-0.5-0.2l-0.1,0.2l0.1,0.2l-0.1,0.2l-0.6,0l-0.5-0.6l-0.2,0.2l-0.2,0.5l0.6,1.1l1.1,0.3l-0.2,0.6l0.2,0.2l0,0.6
		l-0.3,0.3l-0.6,0l-0.1-0.1l-0.4,0.1l-0.1,0.3l-0.3,0.2l-0.5,0l-0.3,0.5l-1-0.2l0.1-0.5l-0.1-0.1l-0.5,0.1l-0.3-0.7l0-0.3l-0.8-0.8
		l-0.3,0l-0.2-0.2l-1.2,0l-0.2,0.2l-0.6,0l-1.4,1.1h-0.3l-0.2,0.2l-0.2-0.1l-0.9,0l-0.2-0.2l-0.6,0l-0.4,0.3l0,0.1l-0.3,0l-0.2,0.1
		l0,0.5l-0.8,0l-1.3,0.5l-0.8,0.6l0,0.4h-0.3l-0.3,0.3l0.3,0.7l0.2,0.1l-0.2,0.1l-1.1,0l-0.1-0.3l-0.3,0l0.1-0.1l-0.3-0.3l-0.3,0.3
		l-1.1,0l-0.2,0.3l-0.3,0l-0.3,0.3l0.2,0.5l-1.5,0.2l-0.3-0.2l-0.7,0l-0.7,0.5l-0.8,0l-0.1,0.1l0.1,0.5l-0.1,0.3l0.1,0.3l-0.5,0
		l-0.4-0.3l-0.3,0l-0.5,0.5l0-0.3l-0.2-0.2l-0.8,0l-0.3,0.3v0.2l-0.3,0.2h-0.5l-0.1-0.2l-0.2,0L518,186l-0.7,0l-0.4,0.5l0.1,0.3
		l-0.1,0.3l0.5,0.5l-0.4,0.5l0,0.3l-0.3,0l-1.3,0.6l-0.6,0.6l-0.2,0.1l-0.6,0.1l-0.4,0.3l-0.2,0.2l0,0.8l-0.2,0.1l-0.2-0.2l-0.6,0
		l-0.3,0.3L512,192l-0.5,0l-0.2,0.2l0,0.3l-1.6,0.2l-0.5,0.3l-0.2,0.3l-0.6,0l-0.5,0.3l-0.3,0l-0.1,0.1l0,0.3l-0.3,0.1l-0.4,0.5
		l-0.2,0.5l-0.3,0.1L506,196l-0.4,0l-0.3,0.5l-0.3,0l-0.6,0.6l0,0.3l-0.5,0l-0.7,0.5l-0.3,0l-0.3-0.2l-0.2,0.3l-0.5,0l-0.5,0.2
		l-0.3,0.5l0,0.3l0.1,0.2l0.7,0l0,0.7l-0.5,0.7l-0.2,0l-0.9,0.7v0.2l0.3,0.2l0,0.2h-0.2l-0.5,0.4l-0.8,0.2l-0.3,0.3l-0.6,0.1
		l-0.2,0.2l0.2,0.5l0.2,0.2l0,0.6l-0.2,0.2v0.5l-0.3,0.1l-0.2,0.2l-0.3,0l-0.1,0.2l-0.8,0l-0.2,0.2l-0.5,0l-0.3,0.3l0.5,0.7l0.2,0
		l0,0.5l-0.5,0.5l-0.3,0l-0.3,0.3l-1.9,0l-0.3,0.3l0,0.2l0.2,0.2l0.6,0l0.3-0.2l0.5,0.4l0,0.3l-0.1,0l-0.5-0.2l-0.3,0.2l-0.2-0.2
		l-0.3,0.2H492l-0.3-0.2l-0.6,0l-0.2-0.8l-0.3-0.4l-0.3,0.2l-0.5,0.8l0,0.6l0.2,0.2l0.4,1.3l-0.3,0.4v0.3l-0.5,0l-0.5,0.3v0.5
		l-0.2,0.3l0.3,0.7l0.9,0.4l2.5-0.8h0.6l0.2-0.2l0.6,0.3l1.1,0l0.4,0.3l1.5,0.2l0.6,0.1l0.1,0.1l0,1.5l0.2,0.1l1.6,0l0.2,0.2l0.3,0
		l0.2-0.2l0.5,0l0.6-0.8l-0.2-0.3l0-0.3l0.1-0.2l-0.1-0.2l0-0.3l0.5,0.1l0,0.4l0.3,0.3h1.2l0.1-0.1l0.3-3l0.5-0.5l0-0.2l0.6-0.5
		l0.6-0.3l0.3,0.2l0.6,0l0.4-0.2l0.1-0.3l0.5-0.4l0-0.2l1.2-1.3V207l0.8-0.6l0.8,0l0.5,1l0.7,0.7l0.4,0.2l0.4,0l0.5,0.3l0.5,0
		l0.1-0.2l0.2,0.3l0.7,0l0.1-0.1l0.2-0.8l0.2,0l0.4-0.5l0.6-0.2l0.5,0.6l0.4,0l0.3-0.3l0-0.6l-0.2-0.2l0.2,0l0.2-0.2l0-0.3l0.3-0.3
		l0-0.7l0.6-0.6l0-0.3l0.6,0l0.2-0.1l0.6,0l0.7,0.5l0.8,0l0.2-0.2l1.3-0.2l0.2-0.2l1,0.2l0.1,0.3l0.2,0l0.1,0.2l0.2,0.3l-0.1,0.4
		l0.2,0.1l0.3,0l0.8-0.6l0.8,0l0.2,0.1l0.5-0.1l0.8-0.5l0.3,0l0.5-0.5l0.9-0.6l0.3-0.6l0.7-0.3l0.1-0.4l0.3-0.3l0-0.2l0.5-0.6h0.5
		l0.3-0.3l0-0.3l0.3,0l0.3-0.5l0.5,0l0.5-0.4l0.6-0.2l0.3-0.3l0.8,0l0.5-0.5l0.3,0l0,0.4l0.2,0.1l0.6-0.2l0.2-0.2l0-0.3l-0.3-0.2
		l0.3-0.1l-0.3-0.6l-0.4-0.2l0-0.2l0.5-0.4l0.2-0.7l0.5-0.5l0.4,0l1-0.7l0.1-0.6l0.3-0.2l0.5,0l0.5-0.3l0.8,0.1l0.2,0.3l1.6,0
		l0.1,0.2l0,0.4l0.2,0.1l1.4,0l0.5-0.5l0-0.6l-0.3-0.4l0.4-0.3l0-0.5l-0.3-0.8l-0.3-0.1l0-0.8h0.3l0.3-0.3l0.3,0l0.2-0.1l0.6,0.8
		l0,0.7l0.2,0.1l0.3,0l1,0.7h0.3l0.4-0.6l-0.1-0.3l0.6-0.5l0-0.2l-0.2-0.2l0.3-0.5l0-0.3l0.4,0.3l0.4-0.3l-0.1-0.3l0.1-0.2l0-0.6
		l0.2-0.4l-0.6-0.5l0.5-0.3l0-0.3l-0.3-0.3l0.5,0l0.5-0.6l0-0.5l-0.2-0.4L549.5,185.1z M552.3,172.5l-0.2,0l-0.2,0.2h-0.1l-0.3,0.2
		l0,0.3l0.1,0.1l0.3,0l0.5-0.5L552.3,172.5z M551.2,183.1l-0.2,0.3l-0.2,0l-0.3,0.3l-0.1,0.6l0.2,0.2l0.3,0l0.3-0.5l0.3,0l0.2-0.2
		l-0.1-0.6L551.2,183.1z M544.1,195.3l-0.3,0.3l0.2,0.2l0.2,0l0.1-0.2l0-0.1l-0.2-0.2H544.1z M555.7,184.3l-0.6-0.2l0.3-0.4
		l-0.2-0.3l-0.5-0.3l-0.3,0l-0.3,0.3l-0.2-0.5l-0.4-0.5h-0.3l-0.2,0.2l-0.2,0.5l0.2,0.2l0,0.3l0.3,0.2v0.1l-0.4,0.3v0.3l-0.2,0.3
		l0.3,0.2l0.7,0l0.1,0.3l0.2,0.2l0.2-0.1l0-0.3l0.3,0l0.4,0.3h0.5l0.4-0.7L555.7,184.3z M543.6,196l0,0.2l0.2,0.1h0.1l0.1-0.1l0-0.2
		l-0.1-0.1l-0.3,0L543.6,196z M552.9,186.8l-0.2,0.2v0.1l0.2,0.1h0.2l0.3-0.3l-0.2-0.2H552.9z M553.1,185.6l0-0.2l-0.2-0.2l-0.3,0
		l-0.2,0.2l0,0.2l0.2,0.2l0.3,0L553.1,185.6z M346.6,305.7L346.6,305.7l-0.1,0.4l0.1,0.1l0.3,0l0.1-0.1V306l-0.2-0.2L346.6,305.7z
		 M341.8,305.5l0.1,0.2l0.2,0l0.4-0.2l0-0.5l-0.1-0.1h-0.5l-0.1,0.1l0,0.2l-0.2,0.2L341.8,305.5z M336.9,302.5l-0.2-0.2l-0.6,0.4
		l0.1,0.1h0.6L336.9,302.5z M341.1,306.2L341.1,306.2l0.1-0.6l-0.1-0.1h-0.2l-0.4,0.4v0.2l0.1,0.1H341.1z M347.3,305.6v-0.2l0.2-0.2
		l-0.2-0.4l-0.4,0.2l0,0.3L347.3,305.6L347.3,305.6z M536.6,199.1l-0.2,0.2l0.2,0.3l0.7,0l0.2-0.2v-0.1l-0.2-0.2L536.6,199.1z
		 M544,195.2l-0.3-0.3l-0.7-0.1l-0.2,0.2l0.3,0.2l-0.3,0.3l0.3,0.3l0.3-0.3l0.3,0.1L544,195.2z M346.4,305.2L346.4,305.2l-0.1,0.2
		l0.1,0.1h0.2l0.1-0.1v-0.2l-0.1-0.1L346.4,305.2z M526.2,205.5L526.2,205.5l-0.4,0.4l0.2,0.1l0.3,0l0.2-0.2l0-0.1L526.2,205.5z"/>
</g>

</svg>
