<?xml version="1.0" encoding="utf-8"?>

<svg version="1.2" baseProfile="tiny" id="Layer_1" xmlns="http://www.w3.org/2000/svg" xmlns:xlink="http://www.w3.org/1999/xlink"
	 x="0px" y="0px" viewBox="0 0 342 338.9" xml:space="preserve">
<g id="Tanzania">
	<g>
		<polygon fill="#1EB53A" points="92.6,41.9 92.7,41.3 92.6,40.6 92.3,40.5 92,40.7 91.6,40.7 91.4,40.7 91.5,41.5 91.6,41.7
			90.8,41.9 90.5,41.5 90.6,40.2 90.4,40.2 90.2,40.6 89.9,40.6 89.6,40.4 89.5,40 88.7,42.4 88.7,42.8 89.3,43 89.4,43.6
			89.5,44.2 89.7,44.7 90.1,44.9 90.4,44.8 90.7,44.6 91,44.3 91.3,44.4 91.8,44.1 92.2,43.7 92.3,43.2 92.2,43.3 92.2,43.3
			92.2,43.4 92.1,43.4 92,42.9 92.2,42.5 		"/>
		<polygon fill="#1EB53A" points="71.1,24.8 71.1,24.1 71,24 70.9,23.9 70.7,23.9 70.7,24.7 70.4,25.1 70,25.5 69.9,26 70.8,25.3
			"/>
		<polygon fill="#1EB53A" points="112.9,36.3 113,36.4 113.2,36 113.2,35.8 113.2,35.6 113.2,35.4 113.1,35.3 113,35.4 112.8,35.3
			111.9,34.5 111.6,34 112,33.8 112,33.6 110.8,33.3 110.5,33.1 111.1,32.1 111,31.6 110.8,31.1 110.6,30.7 110.4,30.6 108.8,31
			108.7,30.9 108.5,30.9 108.2,30.9 108.1,31.1 107.9,31.1 107.1,31.4 105.5,30.5 105.2,30.1 105.3,29.7 105.6,29.4 105.7,28.9
			105.5,28.7 105,28.5 104.8,28.4 104.6,28.5 104.4,28.6 104.2,28.9 103.6,29.4 103.2,29.7 102.7,29.9 102.5,29.7 102.3,29.5
			102.1,29.5 101.8,29.5 102,29.9 102.5,30.4 102.7,30.8 102.9,30.8 103,30.8 103.9,30.9 104.2,31 104.1,31.4 103.8,31.8 102.6,33
			102.5,33.3 102.4,33.5 102.7,33.9 103,33.9 103.3,33.8 103.6,33.9 104.3,34.4 105.1,34.6 106.7,34.6 107.2,34.8 108.7,35.9
			109.1,36.1 109.4,36.1 109.7,35.9 109.8,35.5 110.6,35.9 111.1,36.5 111.8,36.9 112.8,37 112.5,36.5 112.6,36.3 		"/>
		<polygon fill="#1EB53A" points="68.8,34.2 68.5,34.6 68.4,35.1 68.4,35.5 68.6,35.9 68.7,36.1 69.1,36.3 69.5,36.4 69.6,36.3
			70.2,36 70.3,35.8 69.8,35.7 69.3,35.6 69.1,35.3 69,34.9 69,34.4 		"/>
		<polygon fill="#1EB53A" points="70.7,45 70.8,45.5 71.1,45.9 71.4,46.1 71.9,45.9 73.1,45 73.3,44.7 73.3,44.2 73.1,43.7
			72.8,43.3 72.7,42.8 72.7,42.2 72.9,41.9 72.9,41.8 72.6,41.7 71.7,41.4 71.4,40.6 71.3,39.6 70.9,38.7 70.8,38.5 70.4,38.3
			70.1,38.1 70.1,37.4 69.9,37.4 69.2,39 69.2,39.8 69.9,39.6 69.8,40.1 69.6,40.5 69.2,40.7 68.8,40.7 69,41.7 69.6,41.6
			70.2,41.6 70.5,41.8 70.1,42.2 70.3,42.6 70.9,43.1 71.1,43.4 71.1,43.9 70.8,44.6 		"/>
		<polygon fill="#1EB53A" points="230.8,51.8 224,48 217.3,44.3 210.5,40.5 205,37.4 205.1,37.5 202,36 202.1,35.8 197,33
			190.2,29.2 183.5,25.5 176.7,21.7 169.9,18 163.2,14.2 156.4,10.5 149.6,6.7 142.9,3 141.2,2 141.1,2.3 140.1,2.9 139.9,3
			139.8,3.2 139.7,3.4 139.6,3.6 139.3,3.6 138.6,3.6 138.1,3.7 138.2,4 138.5,4.4 138.6,4.7 137.7,5.8 137.2,6.1 136.2,6.6
			135.7,6.9 135.2,7.4 134.8,8.4 135.2,9.1 136,9.4 136.6,9.1 136.8,9.1 136.7,9.3 136.6,9.5 136.6,9.6 136.6,9.8 137.1,9.9
			137.8,10.3 138.3,10.8 138.5,11.4 138.5,11.7 138.4,12 138.2,12.2 137.8,12.1 137.8,12 137.9,11.7 138,11.5 138.1,11.5
			137.6,11.1 137.4,11 136.7,10.9 136.2,10.5 135.8,10.5 135.1,10.4 133.2,10.6 132.7,10.4 132.3,10.9 132.5,11.3 133.3,12.1
			133.2,12.2 133.2,12.3 133.2,12.4 133.1,12.6 133.5,12.4 133.9,12.5 134.2,12.8 134.4,13.2 132.5,12.5 131.9,12.8 131.9,13.2
			132.3,13.6 132.7,13.8 132.9,13.9 133.5,13.8 133.7,13.8 134,14 134.1,14.1 134.2,14.2 134.4,14.5 134.7,15.2 134.8,15.1
			134.9,15.1 135,15.1 135.4,15.4 135.5,15.6 135.5,16 136,15.7 136.3,15.6 136.5,15.6 136.8,15.7 136.9,16 137,16.3 137.1,16.4
			137.4,16.5 137.4,16.6 137.4,16.8 137.1,16.9 136.9,16.8 136.7,16.6 136.6,16.6 136.5,16.7 136.4,16.8 136.3,17 136.1,17.1
			135.8,17 135.3,16.7 135,16.6 134.8,16.6 133.9,16.6 133.3,16.4 133.1,16 132.9,15.5 132.5,15.1 132.3,15.5 132,15.5 131.6,15.4
			131.1,15.3 130.9,15.4 130.5,15.7 130.2,15.8 129.9,15.7 129.7,15.6 129.6,15.4 129.5,15.3 128.8,15 128.4,14.9 128,15.1
			127.7,15.5 127.9,15.8 128.2,16.1 128.4,16.4 128.8,16.3 129,16.7 128.8,17.2 128.5,17.6 128.1,17.8 127.6,17.8 127.1,17.8
			126.6,18.1 126.9,18.3 127.1,18.3 127.4,18.3 127.7,18.1 127.8,18.5 127.9,18.7 128.2,18.7 128.6,18.6 129,19.1 129,19.3
			129,19.7 128.9,19.7 128.7,19.8 128.4,20.1 128.6,20.2 128.9,20.3 129.2,20.2 129.4,20.1 129.7,20.3 129.8,20.7 129.7,21.1
			129.4,21.4 129.2,21.5 129,21.6 125.8,21.6 124.6,21.5 124.4,21.6 124.7,22 124.9,22.2 125.6,22.6 125.7,22.8 125.9,23
			126.2,23.5 126.4,23.3 126.7,23.5 127.5,24.1 127.7,24.3 127.5,24.7 127.2,24.8 126.8,24.7 126.6,24.5 125.6,24.2 125.6,24.1
			125.2,24.4 125.2,24.6 125.3,24.8 125.1,25.2 124.9,25.6 124.7,25.7 124.4,25.8 123.9,25.9 123.8,26 123.6,26.3 123.3,26.6
			122.8,26.7 122.2,26.7 121.5,26.6 121.2,26.3 121.4,25.4 119.6,25.4 118.8,25.6 118,26.3 117.8,26.6 117.5,27.5 117.1,28.1
			117.1,28.3 117.1,28.8 117,28.8 116.2,29.3 117.2,30 118.5,29.4 119.7,28.5 120.8,28.4 120.9,28.1 121.1,28 121.5,27.9 121.9,28
			121.7,28.4 121.8,28.6 122.5,29.1 122.8,29.4 122.7,29.6 121.9,30.1 123.2,30.3 124.5,30.6 124.4,30.7 124.4,30.7 124.4,30.7
			124.2,30.8 124.5,30.9 124.6,30.9 124.7,30.9 124.9,30.8 125.4,31.3 125.3,31.8 124.9,32.2 124.7,32.6 124.4,32.5 123,32.5
			120.9,31.1 119.9,30.8 119.1,31.7 119.9,32.9 119.5,33.1 119.4,33.2 119.3,33.4 118.1,32.3 117.5,32.2 117.6,33.2 117.3,33.2
			117.1,32.7 116.7,32.1 116.2,31.7 115.8,32.1 116.3,32.3 116.5,32.7 116.6,33.1 116.3,33.5 116.2,33.4 115.4,33.2 115.4,33.2
			114.5,33.2 114.4,33.1 114.3,33 114.2,33.1 114.1,33.4 114.2,33.4 114.2,33.7 114.3,34 114.3,34.2 114.2,34.5 113.9,35
			113.9,35.3 114,35.6 114.1,35.8 114.3,36.2 114.9,35.5 115.5,35.2 116.2,35.2 117.1,35.5 117.9,36 118.3,36.3 118.4,36.7
			118.6,37 119.1,36.9 119.9,36.6 121.5,36.4 123.4,36.5 125.2,36.8 126.4,37.4 127.1,36.7 127.6,36.3 128,36.2 128.3,36 129.8,35
			130.9,34.4 132.1,34.7 133,35.6 133.5,36.8 133.5,37.1 133.3,37.6 133.3,37.9 133.4,38 133.5,38.1 133.7,38.3 133.7,38.6
			131.9,39.8 131.6,39.9 131.3,40.2 129.9,40.5 129.5,40.7 128.4,41.5 127.8,41.4 127.3,41.7 126.6,42.6 126.2,42.9 124.9,43.4
			124.4,43.4 124.1,43.6 123.8,43.8 123.5,44.2 123.4,44.4 123.4,44.7 123.6,44.8 123.7,44.9 123.9,45 124,45.5 123.6,45.8
			122.9,45.7 122.3,45.4 122,45.6 121.3,45.9 120.5,46.3 120.2,46.3 120.2,46.4 120.6,46.6 121.7,47.2 121.9,47.4 121.8,47.9
			121.5,48.2 121.2,48.3 120.8,48.1 120.6,48.4 120.6,48.6 120.7,48.8 120.8,49 120.3,49.1 119.9,49 119.8,48.7 119.7,48.3
			119.5,48.3 119.1,48.4 118.6,48.3 118.2,48.1 118.3,48.1 118.4,47.8 118.5,47.5 118.4,47.3 118.2,47.2 118,47.3 117.9,47.4
			117.7,47.9 117.5,47.8 117.3,47.6 117.1,47.5 116.4,47.7 114.7,47.9 114.3,47.9 113.9,47.8 113.2,47.2 112.9,47.1 112.8,47
			112.8,46.5 112.7,46.4 112.7,46.4 112.1,46.2 112,46.2 111.7,45.9 111.3,45.1 111.1,44.7 111.1,44.2 109.9,43.9 107.3,43.6
			106.2,43.9 105,44.5 104.3,45.4 104.4,46.4 103.9,46.3 103.6,46.3 103.4,46.6 103.3,47.2 103.5,47.6 104.2,48.4 104.4,48.9
			104.2,49.1 103.5,50.1 103.4,50.3 103.1,50.5 103.1,51 103.2,51.6 103.4,51.9 104,52.3 104.2,52.5 104.4,52.9 104.5,53
			104.4,53.1 104.2,53.3 104,53.3 103.8,53.2 103.6,53.3 103.5,53.8 103.6,53.9 104.2,54.4 104.4,54.6 104.5,54.8 104.7,55.3
			104.8,55.5 105,55.6 105.5,55.8 105.7,55.9 105.9,56.3 105.7,56.6 105.3,56.8 105,57.4 106.1,57.3 106.3,57.4 106.4,57.5
			106.3,57.9 106.3,58 106.8,58.3 107.1,58.3 107.3,58.2 107.6,58.2 108.1,58.5 108.2,58.7 108.2,58.9 108.2,59.1 108.1,59.3
			107.7,59.4 107.1,59.2 105.2,58.4 104.7,58 104.4,57.5 104.4,56.8 104.1,56.8 103.9,57.4 103.5,57.8 102.9,58 102.3,58.4
			102,58.8 101.8,59.5 101.7,60.2 101.8,60.6 101.3,61.8 101.1,62.1 100.1,63 99.8,63.4 99.6,63.4 99.4,63 99.3,62.6 99.4,62.1
			99.7,61.6 99.8,61.2 99.8,60.8 100,60.5 100.9,60.4 100.9,60.2 99.9,59.5 99.3,59.2 98.8,59.3 98.5,58.9 98.7,58.7 99.4,58.5
			100.4,57.9 100.8,57.8 101.2,57.8 102.5,57.5 102.5,57.3 102.4,56.9 102.4,56.5 103.1,55.3 103.3,54.5 103,54.2 102.1,54.1
			101.7,53.8 101.9,53.4 102.4,52.9 101.8,52.5 101.6,52.5 101.3,52.7 101.2,52.4 101.1,52.1 100.9,51.6 101.4,51.7 101.6,51.8
			101.7,51.2 101.5,50.6 101.5,50.2 102.2,50.1 102.1,49.7 101.9,49.5 101.7,49.4 101.3,49.4 101.4,48.9 101.7,48.6 102,48.3
			102.2,47.9 102.2,47.7 101.9,47.7 101.8,47.5 101.7,47.3 101.4,47 101.2,46.9 100.6,47.2 100.3,47.1 99.8,47.4 99.3,48.1 99,48.4
			99,48 98.9,47.3 99,47.1 98.8,46.9 97.5,47.7 97,47.9 97.2,47.5 97.6,47 97.7,46.5 97.4,45.9 96.9,45.3 96.8,44.8 96.8,44.3
			96.6,43.6 96.3,43.9 96,44.4 95.8,44.9 95.7,45.3 95.7,45.9 95.5,46.3 93.1,48.6 92.3,49 91.6,48.8 92.1,47.9 92.3,47.7
			92.8,47.2 93.1,46.8 93.2,46.3 93.2,45.8 93.2,45.4 92.9,45.4 92.8,45.7 92.1,46.1 91.9,46.4 91.6,46.2 91.3,46 91,46 90.8,46.2
			90.5,46.1 90.2,46 89.8,46 89.5,46 89.6,45.9 89.6,45.5 89.7,45.3 88.3,45.4 87.5,45.2 87.1,44.7 87.2,44.3 86.5,43.6 85.9,42.8
			86,42.2 86.2,42.1 86.5,42.2 86.7,42.3 86.7,42.4 87,42.2 87.2,42 87,41.9 86.5,41.8 86.2,41.6 85.6,40.2 85.4,40.2 85,40.2
			84.6,40.3 84.3,40.5 83.9,40.6 83.4,40.4 83.3,40.3 83.1,39.7 83,39.6 82.7,39.6 82.5,39.7 82.5,39.9 82.7,40 82.9,40.2
			82.9,40.7 82.8,41.7 82.2,41.8 81.4,43.3 80.8,43.9 80.4,43.9 80,43.9 79.7,43.6 79.6,43.3 78.4,43.3 78.2,43.2 78,43.4
			77.9,43.8 77.8,44.2 77.8,44.6 77.9,45 78.2,45.1 78.6,45.2 78.9,45.3 79,45.5 79.1,45.9 79.2,46.1 79.4,46.2 79.9,46.4
			80.4,46.8 80.8,47 81.1,47.2 81.3,47.7 80.9,48 80.9,48.5 80.8,48.9 80.2,49.2 80.2,49 80,48.4 79.6,48.5 79.2,48.3 79,48
			79.1,47.7 78.8,47.6 78.5,47.5 78.3,47.4 78,47.5 78.1,47.8 78.2,47.8 78.1,47.9 78,48.1 77.7,47.6 76.9,46.8 76.7,46.4
			76.6,46.7 76.5,46.9 76.5,47.2 76.5,47.5 76.3,47.5 76,46.9 75.6,47.1 75.4,47.6 75.6,48.2 75.6,48.5 75.4,49.3 75.6,49.4
			75.7,49.5 75.7,49.7 75.6,49.8 75.5,50 75.3,50.2 75.1,50.2 75,50.1 74.8,50.1 74.4,50.1 74.2,50.1 73.9,50.1 73.7,50.3
			73.7,50.5 73.8,50.7 74,50.9 74.3,51 74.5,51.1 74.7,51.3 74.9,51.7 75.1,52.3 75.3,52.6 75.5,52.7 75.6,52.9 75.7,53.1
			75.6,53.7 75.6,54 75.8,54.2 76.4,54.6 76.5,54.9 76.3,55.5 75.8,55.8 75.2,55.7 74.8,55.3 74.7,54.6 74.7,53.9 74.5,53.5
			73.8,53.3 73.8,53 73.9,52.4 73.7,52 72.9,52.3 72.9,51.8 72.8,51.6 72.6,51.6 72.5,51.8 72.5,51.9 72.6,52 72.6,52.3 72.6,52.6
			72.7,53.6 72.8,54 72.3,54 71.8,54.2 71.9,53.7 71.7,53.2 71.3,52.9 71,53 70.8,53.2 70.5,53.4 70.3,53.5 70.3,53.9 70.4,54.3
			70.5,54.5 70.4,54.6 70.4,54.8 70.8,55.9 70.9,56.3 70.7,56.8 70.3,57.2 69.8,57.6 69.4,57.8 69,57.2 68.9,56.5 69.2,54.9
			69.2,54.4 69.1,54.2 68.9,54.2 68.3,54.2 68.2,54.1 68.3,54 68.4,53.4 68.8,52.7 68.7,52.5 68.7,52.4 68.7,52.2 68.9,51.9
			69,51.8 69.4,51.9 69.8,51.8 69.9,51.8 70,51.8 70,51.5 70,51.2 70.1,51.1 70.1,51.1 70.3,51 70.6,51 71,51.1 71.3,51 71.3,50.5
			71,50.7 70.4,50.7 69.5,50.8 68.5,51.1 68.1,51.1 67.9,50.9 67.9,49.2 67.7,48.8 67.4,48.8 67,48.6 66.8,48 66.9,47.6 67.2,47.5
			67.6,47.6 68.1,47.5 68.6,47.3 69,47 69.2,46.6 69.4,46.2 69.4,46 69.2,45.7 69.2,45.5 69.4,45 69.2,44.9 68.7,44.8 68.2,44
			68.1,43.6 68.1,43 68.6,43.1 68.6,42.9 68.4,42.6 67.9,42.4 68,42.3 68.1,41.9 67.1,41.7 66.5,42.1 65.9,42.6 65.1,43 64.5,43
			64.3,42.9 64.2,42.5 64.2,41.8 64.3,41.6 64.4,41.4 64.7,41 64.9,40.7 64.9,39.8 65.5,38 65.4,37.7 65.6,37.4 66.2,36.2
			66.1,35.9 65.8,35.6 65.7,35.3 65.8,35 66.3,34.5 66.4,34.1 66.3,34 66,33.7 65.9,33.6 66,33.4 66.1,33.2 66.2,32.8 66.6,31.9
			66,31.9 65.7,32.1 65.5,32.3 65.3,32.5 65,32.6 64.8,32.6 64.6,32.5 64.3,32.5 64.1,32.6 64,32.8 63.9,33 63.5,32.9 63.6,31.8
			63.8,30.9 64.2,30.1 65.5,28.4 65.9,27.6 66.1,25.4 66.3,25 66.7,24.1 67,21.6 67.5,20.6 68,19.8 68.3,19.1 67.7,18.1 68,17.2
			67.9,15.9 68.1,15 69.4,15.6 69.5,15.1 69.6,14.7 69.6,13.7 69.7,13.3 70,12.6 70.2,11.3 70.8,10 71.1,9.1 71.3,6.1 71.7,5.4
			71.7,5.1 71.5,4.7 71.3,4.4 71.1,4 71.1,3.5 71.1,3.2 71.1,2.8 70.9,2.3 71.2,2 71.6,1.6 71.8,1.2 71.4,1 71.2,1.1 70.9,1.2
			70.8,1.2 70.7,0.9 70.7,0.5 70.7,0.5 70.3,0.5 70.2,1.1 69.9,1.7 69.6,1.8 68.9,2.1 68.5,1.9 68.5,1.3 69,0.5 38.9,0.5 38.4,0.2
			37.4,0 36.2,0.6 35,1 34.5,1.2 33.4,2.4 33,2.7 32.2,2.5 31.5,2.4 30,2.5 29.4,2.7 29,2.7 28.8,2.6 28.6,2.4 28.4,2.3 28,2.3
			27.8,2.5 27.7,2.5 27.5,2.8 27.2,3.1 27.1,3.5 27.2,3.8 27.7,4.1 27.8,4.5 27.7,4.7 27.6,4.9 27.5,5.1 27.6,5.3 27.9,5.4
			28.1,5.4 28.3,5.3 28.4,5.3 28.8,5.5 29,5.7 29.1,6.5 29.3,7 29.9,7.9 30,8.6 30.3,9 30.4,9.2 30.4,9.3 30.3,9.4 30.2,9.6
			30.2,9.9 30.3,10.4 30.8,10.7 31.7,11.1 32,11.3 32.5,11.7 32.8,11.9 34.9,12.7 35.5,12.8 36.1,13.1 36.3,13.9 36.2,14.8
			36.1,15.1 35.9,15.3 36.1,15.7 36.6,16.4 37,16.8 37.2,17.1 37.5,18.2 37.8,18.9 38.3,19.3 39,19 39.3,19.7 39.2,20.5 38.8,22.9
			38.8,23.3 38.9,23.4 39.2,23.9 39.3,24.2 38.9,25 39,25.3 39.3,26.6 39.1,27.1 38.7,27.6 38.6,28.1 38.8,28.6 38.3,29 38.1,29.3
			38,29.5 38.9,29.7 39,30.5 38.6,32.3 39.2,32.2 39.7,32.5 40.2,32.9 40.5,33.4 40.8,34.3 39.7,37.8 39.5,39.2 39.6,41.3
			39.5,41.9 39.1,42.5 38.7,42.8 38.2,43.1 37.7,43.3 37.3,43.4 37,43.6 36.8,43.6 36.5,43.6 34.9,42.8 34.5,42.7 34.1,42.7
			33.7,43 33.3,43.8 32.9,44.1 32.3,44.2 31.6,44 30.9,43.9 30.3,44.3 29.3,45.6 28.9,46.2 27.7,49.1 27.4,50.1 27.3,50.4 27,50.8
			26.2,51.5 26,51.9 25.8,52.7 26.2,53 26.8,53 27.5,52.8 28.6,52.3 29.3,52.1 29.1,52.6 27.3,54.5 27.1,54.9 26.9,55.4 26.9,56.2
			26.3,57.2 25.9,57.9 26,58.4 26.7,59.4 27.2,59.9 27.8,60 27.7,60.4 27.8,60.6 28.1,60.9 28.2,61.3 28.4,61.2 29,60.3 29.4,60
			29.8,59.9 30.1,59.9 32.1,61.1 32.5,61.3 32.7,61.4 32.8,61.6 32.8,62.1 32.9,62.2 33.4,62.3 33.7,62.2 34,62.1 34.4,62.1
			34.8,62.2 35.5,62.7 35.9,62.8 36.6,62.8 38.1,62.4 38.9,62.4 38.6,62.9 37.6,64 37.4,64.5 37.5,65 38.3,65.7 38.6,66.1
			38.6,66.3 38.5,66.7 38.4,66.9 38.5,67.1 39,67.4 39.1,67.7 39.1,68.1 39.1,68.5 38.8,69.2 38.3,69.8 38.4,70.1 38.5,70.6
			38.5,70.8 38,71.6 37.3,72.2 36.4,72.3 35.6,71.8 35.5,72.2 35.3,72.5 35,72.7 34.6,72.7 33.7,73 33,73.5 32.4,74 31.9,74.7
			33,75.4 33,76.2 32.2,77 30.7,77.7 30.3,78.2 30,78.4 29.8,78.4 29,78.6 28.9,78.7 28.9,79 28.8,79.1 28.2,79.1 28.2,79 28.1,79
			27.6,79.1 27.5,79.2 27.4,79.6 27.3,79.7 26.5,80.3 26.3,80.7 26.4,81.3 26.4,81.9 26.1,82.5 24.8,84.5 24.6,85.1 24.6,85.7
			24.7,86.2 24.9,86.7 25,87.2 24.9,87.8 23.5,87.3 22.7,87.8 21.5,89.9 19.8,91.6 19.4,92.2 18.9,94.5 18.3,95.9 17.6,97.1
			16.6,98.3 14.5,100 14.1,100.5 13.3,102.4 12.9,102.9 12.2,103.3 11.9,103.6 10.8,104.2 9.7,105.2 8,106 7.8,106.1 7.2,106
			6.9,105.9 6.5,105.8 6,106.1 6,106.2 5.9,106.7 5.7,107 5.2,107.3 5,107.5 4.9,107.9 4.9,108.3 4.8,108.7 4.4,108.9 4.3,108.9
			3,108.8 1.9,108.5 1.8,110.4 0.3,118.3 0.3,120.5 0.3,120.8 0.5,121.1 0.7,121.3 0.9,121.6 0.9,121.8 0,122.5 0,122.8 0.6,123
			1.5,123.1 1.8,123.2 2.2,123.4 2.4,123.6 2.6,123.8 2.8,124.2 3,124.3 3.9,124.6 4.5,124.8 4.8,125.1 5.3,125.7 5.4,125.8
			5.6,125.8 5.8,125.8 5.9,126 5.9,126.2 5.9,126.4 5.7,126.6 5.9,127.2 6.7,128.2 7,128.8 7.2,129.6 7.2,130.3 7.2,130.6 7,130.8
			6.9,130.9 6.8,131.1 6.7,131.2 6.6,131.2 6.5,131.2 6.4,131.3 6.4,131.5 6.5,131.6 6.7,131.6 6.8,131.7 6.9,132 7,132.3
			6.9,132.5 6.7,132.7 6.5,133.1 6.7,133.7 6.6,134.2 6.4,134 6.3,134 6.2,134.1 5.9,134.1 6,134.5 6.1,135.3 6,136.1 5.8,136.6
			5.4,137.2 5,137.9 4.8,138.6 4.7,139.3 4.9,140.3 5.6,141.2 7,142.6 7.7,143.4 11,150.8 11.3,152.2 11.3,152.9 11.1,154
			11.1,154.6 10.4,154.8 9.7,155.2 7.6,157.1 7.3,157.2 7,157.1 6.5,156.8 6.2,156.8 5.6,157.1 5,157.8 4.4,158.6 4.2,159.3
			4.2,161.3 4.4,163.4 4.3,164.1 3.9,164.7 3.7,165 3.9,165.3 4.2,165.5 4.9,165.8 5.2,166 5.5,166.7 8.3,170.2 9.8,171.5 10.9,172
			11.3,172.5 11.3,173.2 13.7,171.9 15.1,171.5 16.5,171.5 17.2,171.6 17.8,172 18.3,172.5 18.5,173.1 18.8,173.7 22,176.8
			22.6,177.1 23.1,177.3 23.4,177.6 24.1,179.2 25.3,180.7 25.2,181.1 25.5,181.9 26,183.1 28.1,185.4 28.8,185.9 29,186.3
			29.5,186.6 231.4,52.1 		"/>
		<polygon fill="#1EB53A" points="73.9,20.8 73.7,20.6 73.3,20.1 72.6,19.7 72.4,19.5 72.3,19.5 71.4,19.8 71.7,20.3 71.8,20.9
			71.8,22 71.6,22 71.6,22 71.6,21.9 71.6,21.8 71.6,22.3 71.4,23.7 72.3,22 72.6,21.2 72.7,20.3 73.9,21.1 		"/>
		<polygon fill="#1EB53A" points="107.3,26.3 107.4,26.6 107.4,27 107.3,27.1 107.2,27.3 107.5,27.6 108.1,28.2 108.2,28.2
			108.3,28.3 108.4,28.3 108.5,28.4 109.5,27.6 110,27.2 110.1,27.1 110.2,27 110.2,26.6 110.1,26.5 109.9,26.1 109.8,25.9
			110,25.9 110.3,26 110.4,25.9 110.4,25.7 110.2,25.4 109.9,25.3 109.6,25.3 108.9,25.4 107.8,25.5 107.5,25.6 107.6,26 107.2,26
					"/>
		<polygon fill="#1EB53A" points="76.5,42.9 77,42.7 77.4,42.4 78,40.9 78.1,40.4 78,40.1 77.7,40 77.4,40.4 77.2,40.4 77.3,40.2
			77.4,39.9 77.5,39.6 77.6,39.4 77.4,39.6 77.3,39.4 77.2,39.3 77.2,39 76.6,39 76.1,39.3 75.6,39.7 75,40 74.6,40.2 74.3,40.4
			74.2,40.7 74.3,40.9 75,40.8 75.2,40.9 75.4,41.4 75,41.8 74.6,42.2 74.4,42.6 74.8,42.4 74.9,42.5 74.9,42.7 75,42.8 75.1,42.9
			75,43 75,43.2 75.1,43.2 75.3,43.2 75.4,43.1 75.5,43.1 75.5,43 75.9,43 		"/>
		<polygon fill="#00A3DD" points="316.8,217.5 316.7,217.6 316.5,217.5 316.3,217.6 316.2,217.8 316.2,217.9 316.1,218.1 316,218.3
			316,218.4 315.7,218.5 315.2,218.5 314.9,218.6 315.4,219 316.2,219.8 316.8,220.1 317.4,220.1 318,219.9 319.2,219.5 319.6,219
			319.8,218.3 320.2,217.6 321.1,217.3 321.9,217.6 322.3,217.6 322.5,217.2 322.5,217 322.8,216.6 322.9,216.4 323.1,215.8
			323.1,215.6 323.1,215.4 323.2,215.1 323.6,214.6 324.5,212.5 325,210.4 325.1,209.4 324.6,208.8 324.5,209.2 324.2,210
			324.1,210.1 323.8,210.3 323.5,210.7 323.2,211.2 323,212 322.7,212.2 322,212.5 321.5,212.9 321.1,213.1 320.7,213.2
			320.7,213.4 321.6,213.3 321.9,213.3 322,213.6 321.5,213.7 320.5,214.2 320,214.3 319.4,214.3 318.9,214.3 318.6,214.6
			318.4,215.1 318.7,215.5 318.2,216.2 		"/>
		<polygon fill="#00A3DD" points="305.5,151.3 305.2,152.3 304.7,152.9 303.6,153.8 303,154.6 302.9,154.5 302.7,154.1 302.6,154
			302.5,154.2 302.4,154.5 302.4,154.9 302.4,155.3 302.3,157.1 302.8,159 303.1,160.8 302,162.2 302.2,162.8 302.6,164.2
			302.9,164.7 304.5,166.5 304.6,166.6 304.7,166.8 305,166.9 305.3,167.1 305.4,167.1 305.5,167 305.5,166.9 305.2,166.6
			305.1,165.9 305.2,165.4 305.6,165.7 305.6,165.5 305.6,165.3 305.6,165.3 305.4,165.2 305.4,165 305.8,164.8 306.4,165.2
			307.4,166.7 308.2,167.6 308.4,168.1 308.2,168.7 309.1,169 309.2,168.8 309.3,168.1 309.1,167.7 308.8,167.3 308.8,166.9
			309.5,166.7 309.4,167.2 310.1,169.9 310.4,170.5 310.8,171 311.3,171.5 312.4,171.8 313.5,171.4 314.3,170.5 314.5,169.1
			313.6,167.6 313.5,167.3 312.9,162.7 312.6,161.8 312.1,161.1 312,161.8 312.2,162.7 312.2,163.4 311.7,163.3 311.6,163.4
			311.6,163.4 311.6,163.5 311.4,163.5 311.3,163.1 311,163.1 310.8,163.4 310.8,163.9 310.5,163.6 310.2,163.3 310,163.1
			309.5,163.3 309.6,162.9 309.8,162.7 310.1,162.2 309.9,161.8 309.8,161.4 309.7,161.1 309.7,160.6 309.8,160.1 309.9,159.7
			310,159.4 309.9,158.9 309.3,158.8 309.1,158.7 308.7,157.3 308.1,156.3 308,155.8 307.9,155.3 307.6,154.5 307.6,154
			307.6,153.5 307.8,152.2 307.6,151.1 307,150.1 305.5,151.1 		"/>
		<polygon fill="#00A3DD" points="341.6,293.8 341.5,293.5 341.3,293.2 341,293.1 340.6,293.2 340.3,293.3 340.2,293.6 340.4,294
			341,293.9 341.3,294.4 341.2,295 340.2,295.3 340,295.2 338.9,295 338.9,295.1 338.6,294.8 337.5,292.5 337.4,292.2 337,291.9
			336.3,291.6 336.1,291.4 335.9,291 335.8,290.5 335.6,290.2 335.2,290 334.1,291.4 335.8,292.1 336.3,292.2 336,292.4
			335.8,292.4 335.7,292.4 335.4,292.2 335.3,292.4 335.2,292.6 335.2,292.8 335.2,293.1 334.8,292.8 334.1,292.2 333.7,291.9
			333.3,291.8 333.2,291.8 333.1,292 333,292.3 332.9,292.6 332.7,292.5 332.2,292.2 332,292.2 331.8,292.3 331.7,292.3 331.5,292
			331.6,291.8 331.9,291.7 332.2,291.5 332.1,291.3 331.8,290.7 331.9,290.3 332.1,289.8 332.2,289.4 332.1,289.1 332,289
			331.8,289.1 330.6,288.6 329.9,288.5 329,288 328.5,287.9 327.9,287.8 327.5,287.8 327.5,288.1 327.7,288.8 327.9,289.2
			327.9,289.8 327.7,290.3 327.4,290.7 327.2,289.7 327.1,287.9 325.2,284.8 324.4,284.1 324,284.1 323.5,284.1 323.1,284
			322.4,283.4 321.5,283.4 321.1,283.2 320.4,283.1 319,284.9 318.2,285.1 318.6,284.7 319,284.4 319.2,283.9 319.3,283.3
			318.9,282.5 318.9,282.2 319.9,281.9 320.9,281.4 321.3,281.2 321.3,280.9 320.4,280.3 320.1,279.8 321,279.9 321.6,279.6
			321.8,279 321.6,278.1 321.4,277.7 321.2,277.5 320.6,277.1 320.4,276.8 320.2,275.9 320.1,275.7 319.8,275.7 318.6,275.7
			318.3,275.6 318.5,275.3 319,274.8 319.7,274.6 319.9,274.3 319.6,273.7 319.7,273.1 319.5,272.7 319.1,272.3 319,272.1
			318.8,271.8 318.9,271.5 319.1,271.3 319.2,271.1 318.8,270.8 318.5,270.3 318.1,268.6 317.8,267.9 317.1,267.3 316.9,267
			316.9,266.7 316.9,266.4 316.9,266 316.5,265.9 316.4,265.8 316.3,265.8 316.1,265.6 315.8,265.4 315.6,265.5 315.6,265.9
			314.9,265.9 314.5,266 314.3,266.1 314.2,265.5 314.2,265.1 314.3,264.8 314.7,264.6 315.2,264.5 315.5,264.6 315.8,264.5
			316.2,264.2 316.6,263.6 316.7,263.2 316.6,262.2 316.7,261.9 316.9,261.2 316.9,260.9 316.7,260.6 316.5,260.4 316.3,260.1
			316.3,259.9 316.8,258.9 316.7,257.9 316.1,257 314.8,255.3 314.3,254.9 313.9,254.9 313.6,255.2 313.1,255.5 312.5,255.8
			312.1,255.9 312.2,255.5 312.2,255.3 312,254.8 311.9,254.4 312,254.2 312.2,254 312.3,253.7 312.2,253.5 312.1,253.4 312,253.4
			311.9,253.3 311.9,253.2 312.1,252.9 312.1,252.8 312.1,252.2 312,252.1 311.7,251.9 311.6,251.8 311.7,251 311.9,250.4
			311.9,250 311.3,249.8 310.7,249.7 310.5,249.6 310.6,249.2 311,248.7 309.1,248.9 308.6,248.7 309.3,247.8 309.4,247.7
			309.6,247.7 309.9,247.5 310.5,247.5 311,247.7 311.6,248.5 312.2,249.1 312.3,249.1 312.8,249.5 313,249.6 313.4,249.6
			313.8,249.5 313.6,249.2 312.7,248.5 312.4,248 312,246.9 311.8,246.4 311.4,246.2 311,246 310.6,245.8 310.4,245.2 310.2,244.6
			310.2,244.2 310,244 309.4,243.9 309,243.9 308.9,243.6 308.8,243.4 308.6,243.2 307.5,242.9 307.7,242.2 307.8,239.6
			307.6,238.9 307.4,238.1 307,237.3 305.9,236.3 305.8,235.4 306,233.5 306,232.6 305.8,231.7 305.6,230.9 305.2,230.1
			305.7,229.9 305.9,229.6 305.9,229.2 305.6,228.8 305.9,228.9 306.2,229.1 306.7,229.6 306.9,229 306.9,228.8 307.3,229
			307.3,228.4 307.3,227.3 307.1,226.8 307.4,226.8 307.5,226.7 307.6,226.7 307.8,226.8 308.2,226 309.3,223.1 310.3,221.5
			310.7,220.6 310.8,219.6 310.6,219.8 310.1,220.1 310,219.5 310,218.3 309.6,217.2 309.7,216.8 310.1,215.8 310.3,215
			310.2,214.5 309.4,213.7 308.8,213.3 308.3,213.3 307.1,213.4 307.6,212.9 307.6,212.5 307.2,212 306.7,211.6 306.4,212.6
			306,213.7 305.3,214.5 304.3,214.7 305.7,213.1 305.9,212.5 305.4,211.4 305.5,210.9 305.7,210.4 305.6,209.8 305.2,208.8
			305.1,208.2 305,207.5 305.6,204 305.9,202.9 306.8,202.1 307.1,201.5 307.4,200.9 307.5,200.4 307.5,199.7 307.3,199.3 307,199
			306.7,198.5 307.1,198.4 307.6,198.5 308,198.4 308.2,198 308.1,197.8 308,197.5 307.9,197.3 308.2,197.2 308.4,197.2
			308.7,197.1 309.1,196.8 309.4,196.3 309.6,195.9 309.6,195.3 309.8,194.8 310.1,194.4 311.4,193.5 311.5,194 311.8,194.3
			312.1,194.3 312.4,194 312.6,193.7 312.8,192.8 313.2,192.4 313.6,192.4 313.7,191.6 313.4,189.6 313.5,189.4 313.6,189.2
			313.8,189 313.8,188.7 313.7,188.5 312.2,186.5 312,185.6 311.4,184.8 311.2,184.4 311,184.2 309.9,184.2 309.4,184.1 309,183.9
			308,183.8 307.6,183.6 306.7,183.1 306.2,182.9 305.6,182.9 305.8,183.1 305.8,183.4 305.8,184 305.2,183.4 305.2,182.3
			305.3,181 305.2,180.1 304.7,180.7 304.1,180.2 303.7,179.4 303.5,178.6 303.4,178.2 303.3,177.8 303.1,177.4 302.8,177.2
			302.3,176.9 302,176.6 301.5,175.8 301.3,175.5 300.4,174.9 299.4,173.7 297.7,172 297,171.7 296.1,171.5 296.7,171.9
			297.2,172.1 297.5,172.2 297.5,172.4 297.2,172.5 296.9,172.4 296.5,172.2 295.7,172.2 295.3,172.1 295.1,172 295,171.7
			294.9,171.5 294.7,171.5 294.3,171.4 294.1,171.4 294,171.2 293.7,171 293.5,170.6 293.4,170.3 293.3,169.9 293.2,169.6
			292.9,169.4 292.5,169.2 292.1,169 291.7,168.2 291.6,166.4 291.4,165.6 291.7,165.2 292,164.5 292.1,163.7 291.9,162.6
			291.9,162.4 291.4,162 290.7,161.5 290.5,161.3 290.4,161.1 125.9,270.8 126,270.9 127,271.2 127.8,271.3 128.6,271.2
			129.5,270.7 130.5,270.5 131.3,271 132.1,271.8 133,272.3 133.7,272.6 134.6,273.2 135.3,273.8 135.7,274.4 136,274.7
			136.5,274.1 136.5,273.9 137,273.6 137.3,273.3 137.4,272.9 137.4,272.3 137.6,271.3 137.7,270.8 137.1,269.4 137.6,268.6
			138.3,268 138.7,267.5 139.2,267.1 139.2,267.1 139.2,267.1 140.3,267.5 141.4,268.1 141.6,268.5 142.1,268.7 143.1,270
			143.4,270.2 143.9,270.8 144.8,271.2 147.9,274.4 148.8,274.7 149,275.2 149.1,275.7 149.3,276.3 149.5,276.6 150.2,277.3
			150.3,277.4 150.9,277.9 150.9,278.1 154.1,282 154.4,282.6 155.4,283.9 155.7,285 155.8,285.4 155.7,285.7 155.4,286.4
			155.4,286.7 155.6,287.8 156.7,290.1 157,291.8 157.2,292.5 157.3,292.9 157.3,293.2 156.6,296.7 156.8,297.4 157.4,298.4
			157.5,299 157.4,299.3 157.2,300 157.1,300.4 157.1,300.8 157.3,301.3 157.5,301.7 157.7,302 158,302.2 158.3,302.2 158.5,302.2
			158.6,302.6 158.6,303.2 158.6,303.4 159.3,304.2 159.6,304.8 159.7,305.5 159.2,306.2 159.4,306.5 159.5,306.6 159.6,306.8
			159.8,307 160,307.2 160.1,307.6 159.7,307.9 159.5,308.2 159.7,309 159.2,311 159.2,312.4 159.2,312.7 158.6,314 157.7,315.2
			157.5,316 157.7,316.7 158.1,318 158.2,318.7 158.4,319.3 159.9,320.6 160.1,320.9 160.2,321.2 160.3,321.4 160.9,321.5
			161.1,321.7 161.3,322 161.4,322.2 161.5,323 161.8,323.6 162.2,324.1 162.7,324.3 162.7,324.5 162.5,324.6 162.2,324.9
			162.1,325 162.8,326.3 163,326.5 163.1,326.5 163.1,326.5 163.5,326.1 163.8,326 163.8,326.1 163.8,326 164.1,326.1 165.4,326.5
			166.2,326.9 166.8,327.5 167,328.1 167.1,328.4 167.7,328.9 168,329.7 168.3,330.1 168.6,330.3 168.7,330.6 168.8,330.7
			168.9,331 169.1,331.4 169.2,331.9 169.2,333.5 169.2,333.8 182.4,333.9 183.7,333.9 183.8,334.1 184,334.3 184.2,334.4
			185,334.4 185.2,334.4 185.6,334.2 185.6,334.2 185.8,334.1 185.9,334.1 186.1,334.1 186.3,334.3 186.5,334.5 186.6,334.8
			186.7,334.9 187.1,335.1 187.1,334.5 187.5,334.5 188,334.7 188.5,334.8 189.2,334.4 189.3,334.4 191,333.9 191.3,333.7
			191.5,333.1 191.8,332.7 192.1,332.2 192.5,332 192.3,331.3 192.8,330.9 194.4,330.7 195,330.2 196,329 196.4,328.7 197.7,328.9
			198.6,329.3 198.8,329.4 200,329.4 200.4,329.6 200.9,330.2 200.6,330.9 200.9,331.5 201.5,331.8 202.1,331.7 202.5,331.6
			203.2,331.9 204.4,332.6 204.7,332.8 205.4,333 205.7,333.1 205.9,333.3 206.1,333.5 206.3,333.7 206.6,333.7 207.1,334
			207.3,334.6 207.4,335.3 207.6,335.9 207.4,336.4 207.5,337.1 207.8,337.7 208.1,337.9 209.4,337.7 209.8,337.8 210.3,338
			210.6,338.1 211.1,338.1 212.2,337.8 213.2,337.6 213.4,337.5 213.6,337.3 213.8,337.2 217.4,337.2 217.7,337.4 217.9,338.2
			218.1,338.3 218.3,338.4 219,338.8 219.6,338.9 221.6,338.5 222,338.4 222.9,338.3 223.1,338.1 223.3,337.9 223.6,337.7
			224.7,337.2 225.1,337 225.4,336.8 226.3,335.5 227.7,333.8 228.2,333.6 228.5,333.8 229.1,333.8 229.9,334.3 230.4,334.4
			233.3,334.2 233.6,334 233.9,333.8 234.4,333.5 234.8,334.5 235.6,335.6 236.7,336.5 237.8,337 240.5,337.7 241.9,337.8
			243,337.7 243.3,337.5 243.6,337.4 243.8,337.3 244.1,337.2 244.5,337.4 245,338 245.3,338.1 246.8,338.6 247.6,338.6
			248.2,338.5 248.4,338.4 248.6,338.1 248.8,337.8 249,337.4 249.2,337 249.6,336.8 250.3,336.7 251.4,336.1 252.1,335.9
			253.1,335.9 253.8,335.8 254.4,335.5 255.8,334.4 258.1,333.3 258.7,332.9 259.1,332.5 259.3,332.1 259.3,331.7 259.1,331.3
			259,330.9 259.1,330.2 259.9,328.8 259.8,328.3 260.1,327.9 260.6,326.4 260.7,326 260.9,325.7 262.9,324.6 263.4,324.4
			264.7,324.4 265,324.3 265.3,324 267.1,323.7 268,323.7 268,323.6 268.1,323.5 268.3,323.5 268.5,323.5 268.5,323.5 268.7,323.8
			268.8,323.9 269.1,324 269.7,324.5 270.1,324.6 270.5,324.5 271.2,324.2 271.5,324.1 272.9,324.4 274.1,325.1 275.8,327
			276.9,327.5 279.4,328.2 280.4,328.7 281.1,327.7 284.2,325.6 285,324.7 285.5,324.3 286.4,324.1 287,323.8 287.4,323.7
			287.8,323.7 288.4,323.9 288.8,323.9 289.4,323.6 290.6,322.4 291,322.1 291.7,322 292.2,321.6 293.1,320.9 294.2,320.6
			298.3,320.6 299.4,320.4 300.3,320 301.1,320.1 302.4,320.8 303,321.1 303.9,321.1 304.7,320.8 305.4,320.4 311.6,315.5
			312.1,315.2 312.6,315 315,314.8 320.3,313.7 321.1,313.4 324.3,311.2 327.5,309.8 328.1,309.5 332.1,306.4 332.9,306.1
			333.3,305.7 333.9,305 335.8,303.1 336.9,302.2 339,301.5 340.1,300.7 341.1,299.7 341.6,298.8 341.7,298.4 341.5,298.1
			341.3,297.8 341.3,297.6 341.3,297.2 341.6,296.2 341.4,296.2 341,296.1 340.8,296.2 341.2,295.7 341.7,295.2 342,294.7
			341.8,294.1 		"/>
		<polygon fill="#FCD116" points="244.3,59.3 237.6,55.5 231.4,52.1 29.5,186.6 30.6,187.3 31,188 31,189.3 30.9,189.4 30.5,189.8
			30.3,190 30.4,190.6 30.5,191.3 30.5,191.9 30,192.2 29.1,192.2 28.9,192.1 28.8,191.8 28.6,191.8 28.4,192.2 28.8,192.4
			29.2,192.9 29.6,193.5 29.7,194 29.6,194.2 29.5,194.5 29.6,194.9 30,195 30.2,195.2 30.5,196.3 31.8,199.2 32,200.4 32,201
			31.5,202.5 31.5,202.8 31.9,203 31.7,203.6 31.2,204.7 32,206.2 248.7,61.7 		"/>
		<polygon fill="#FCD116" points="323.7,126 324,125.4 323.7,124.2 323.8,123.5 323.8,122.8 323.4,122.6 323.4,123 323.3,123.6
			323.2,124.2 322.9,124.7 322.8,124.5 322.7,124.3 322.7,124.1 322.3,124.4 322.3,124.8 322.4,125.1 322.5,125.3 322.3,125.6
			322.1,125.5 322.1,125.2 322,124.8 321.8,124.5 320.3,123.7 320.2,123.6 319.7,123.1 319.5,123 319.3,123.1 319.3,123.3
			319.2,123.6 318.8,123.6 318.8,123.5 318.7,123.2 318.5,122.9 318.3,122.7 318.2,122.7 318.1,122.6 318,122.5 317.9,122.3
			317.9,122.8 317.7,123.7 317.7,124 318.1,124.5 318.6,124.7 318.9,125 318.8,125.5 318.3,125.2 317.8,125.4 317.7,125.8
			317.9,126.4 318.4,126.2 318.2,126.5 317.8,126.9 317.7,127.2 318.7,127.5 319,127.7 319.2,128 319.2,128.3 319.1,128.4
			318.7,128.2 318.5,128.2 318.3,128.6 318.3,129 318.4,129.4 318.3,129.6 318.2,129.7 318.1,130.1 318.5,129.9 318.8,129.9
			319.1,130 319.3,130.3 319.2,130.5 319,131.1 319.4,130.7 319.8,130.8 319.9,131.4 319.7,132 319.9,132.2 319.3,132.2
			318.2,132.1 317.9,132 317.6,132.1 317.4,132.1 317.2,131.9 316.8,131.8 317.1,132.2 317.5,132.5 317.8,132.6 318.1,132.4
			319.6,133.3 320.4,133.5 321,133.3 320.8,133.9 320.5,134 319.9,133.7 319.4,133.7 318.6,133.9 318.1,133.9 318.3,134.2
			318.6,134.4 318.9,134.5 319.2,134.6 319,134.9 318.4,135 317.8,134.9 317.3,134.8 317.5,135.3 318.1,136.1 318.4,136.5
			317.3,136.3 316.9,136.4 317.1,136.7 316.8,137.2 316.7,137.7 316.6,138.8 316.8,139.2 317.3,139.4 318.4,139.3 318.6,139.7
			318.9,139.6 319.2,139.4 319.7,139.3 319.7,139.6 319.4,139.7 319.3,139.9 319.3,140 319.7,140 320.1,139.7 320.5,139.4
			320.6,139 320.5,138.7 320.7,138.5 320.8,138.3 321,137.8 321.2,137.8 321,138.4 321.2,138.6 321.5,138.6 321.6,138.1
			321.6,137.6 321.7,137.4 321.8,137.3 322,136.9 323,134.2 323.4,133.7 323.1,133.5 323.3,133 323.4,131.1 323.6,129.9
			323.5,129.4 323.1,129.2 323.1,129.4 323.1,129.7 323.1,130 322.8,130.1 322.8,129.9 322.5,129 322.6,128.4 322.8,127.8
			322.9,127.2 322.7,126.6 323.1,126.4 		"/>
		<polygon fill="#FCD116" points="306.3,148.4 305.7,148.9 305.5,151.1 307,150.1 306.6,149.3 		"/>
		<polygon fill="#FCD116" points="290.4,161 290.1,159.8 289.9,159.6 289.5,159.2 289.4,158.9 289.4,158.2 289.6,157.5 289.9,156.9
			290.1,156 290.2,155.7 290.4,155.4 290.6,155.2 290.8,154.9 290.8,152.8 290.9,152.1 291.1,151.4 291.8,150.4 292.4,149.2
			292.8,148.7 293.1,148.1 293.1,146.6 293.3,146 292.9,145.8 293.9,145.1 295,143.5 295.9,141.6 296.3,140.4 296.3,139.9
			296.1,139.7 295.8,139.6 295.7,139.3 295.8,138.9 296.1,138.6 296.4,138.5 296.8,138.3 297.3,137.7 297.6,137 298.5,134.6
			103.8,264.3 104.4,264.6 104.8,264.9 105.3,264.3 105.9,264 106.5,264 107.1,264.3 108.7,265.9 110.6,267.4 110.9,267.5
			111.7,267.7 112.7,268.1 112.8,268.1 113.1,268 113.5,267.7 113.7,267.6 114.1,267.6 114.8,267.8 115.2,267.8 115.4,267.7
			115.9,267.4 116.2,267.3 116.8,267.5 118.6,268.8 119.1,269.3 119.7,270.5 120.1,271.1 120.6,271.5 121.2,271.6 122.5,271.7
			123.4,271.5 124.2,271.1 125,270.7 125.9,270.8 290.4,161.1 		"/>
		<polygon points="299,133.1 298.8,132.7 298.3,133.3 298,133.5 297.7,133.3 297.8,133.1 298.8,131.7 299.4,130.4 299.6,130.1
			300.8,129 301,128.8 300.9,128.5 300.5,127.8 300.5,127.3 299.5,127.7 299.1,127.7 299.1,127.3 299.4,126.7 299.5,126.5
			299.8,126.4 300.3,126.6 300.5,126.4 300.6,126.1 300.5,124.3 300.4,124 299.9,123.2 300.6,123.2 301,122.7 301.6,121
			301.8,121.6 301.7,122.2 301.5,122.8 301.4,123.4 301.6,123.9 302,123.5 303,121.8 303.2,121.3 303.3,120.7 303.3,120.1
			303.3,119.4 303,119.2 302.5,119.2 301.8,118.9 302.7,118.5 303.3,117.9 303.4,116.9 303.2,116 302.7,115.9 302.5,115.7
			299.8,113.7 297.1,111.8 294.4,109.9 291.7,108 289,106 286.3,104.1 283.6,102.2 280.9,100.2 278.2,98.3 275.6,96.4 272.9,94.5
			270.2,92.5 267.5,90.6 264.8,88.7 262.1,86.7 259.4,84.8 257.7,83.6 257.3,83 256.9,82.4 256.4,80.4 256.2,80 255.7,79.6
			255.1,79.3 254.5,79.1 253.8,79 252.3,79.1 252.2,78.7 252.4,78.1 252.6,77.6 252.4,77.3 251.9,77.3 251.7,77 251.6,76.7
			251.7,76.3 251.8,76 252,75.7 252.5,75.2 253.2,74.6 253.9,74.2 254.5,74.2 254.5,73.6 254.6,73.2 254.9,72.9 255.5,72.9
			254.7,68.6 254.2,65.2 253.7,64.5 251.1,63 248.7,61.7 32,206.2 32.5,206.9 32.6,207.3 33.1,207.5 33.4,208 33.6,208.6 33.8,209
			34.1,209.3 35,209.6 35.3,209.9 35.5,210.3 35.7,210.8 35.9,211.2 36.3,211.4 38,216.3 38.8,217 39.1,217.4 39.3,218.5
			39.6,218.9 40.3,219.4 40.6,219.9 41.3,220.9 41.4,221.3 41.5,222.6 41.7,223.2 42,223.8 42.1,223.6 42.6,223.3 42.9,223.8
			43.1,224.4 43.2,225 43.1,225.5 42.9,225.2 42.9,225.1 42.6,225.1 42.5,225.5 42.6,225.8 42.8,226.1 42.9,226.8 43.1,227
			43.2,227.1 43.3,227.2 43.3,227.5 43.3,227.6 43.3,227.7 43.3,228 43.4,228.6 43.7,228.8 44.1,229 44.6,229.2 44.9,229.6
			45.3,230.5 45.7,230.9 45.7,230.8 45.7,230.8 45.8,230.8 45.9,230.7 46.4,231.5 48.3,232.7 48.9,233.7 48.6,235.7 48.6,236.9
			49.2,237.4 49.5,237.5 49.6,237.9 49.5,238.8 49.6,238.9 50.1,238.6 50.9,238.6 51.2,238.9 51.8,239.7 52.2,240 52.6,240
			52.8,239.9 53.1,239.8 54.7,239.2 55.1,239.1 55.3,239 55.4,238.9 55.5,238.9 55.7,239 55.9,239.2 56,239.8 56.1,240 56.5,240.3
			56.9,240.3 57.3,240.3 57.8,240.3 58.3,240.6 59,241.4 59.5,241.7 60.7,242 61.3,242.5 61.5,243.3 61.5,244.5 61.8,245.9
			62.5,246.9 65.5,249.2 66.1,249.4 66.7,249.4 67.3,249.2 68.4,248.6 69.1,248.5 73.8,249.8 73.3,251.1 73.2,252.6 73.9,253.9
			75.2,254.2 75.9,253.9 76.3,253.6 76.8,253.4 77.6,253.5 78.5,254 78.9,254.1 79.2,254.1 79.8,253.9 80.1,254 80.7,254.3
			81.9,255.5 82.5,255.9 83.1,256.2 83.8,256.3 87.9,256.2 89.2,256.5 90.3,257.3 90.7,257.7 91.3,259.1 91.7,259.8 92.2,260.1
			93.3,260.2 96,260.8 98.3,261 98.7,261.2 99.1,261.7 99.2,261.9 99.3,262.4 99.5,262.6 99.8,262.7 100.3,262.6 100.5,262.7
			102,263.7 103.8,264.3 298.5,134.6 		"/>
	</g>

		<path fill="none" stroke="#999999" stroke-width="0.25" stroke-linecap="round" stroke-linejoin="round" stroke-miterlimit="10" d="
		M302.9,154.5l-0.3-0.3l-0.1-0.2l-0.1,0.2l-0.1,0.3v0.4v0.4l-0.1,1.8l0.6,2l0.3,1.8l-1.1,1.4l0.3,0.6l0.4,1.4l0.3,0.5l1.6,1.8
		l0.1,0.1l0.1,0.1l0.3,0.2l0.3,0.1h0.1l0.1-0.1h0.1l-0.3-0.4l-0.1-0.7l0.1-0.5l0.4,0.3v-0.2v-0.1v-0.1h-0.2v-0.2l0.4-0.2l0.5,0.4
		l1,1.5l0.8,0.9l0.2,0.5l-0.1,0.6l0.9,0.3l0.2-0.2v-0.7l-0.2-0.4l-0.3-0.4v-0.3l0.7-0.2l-0.1,0.5l0.6,2.7l0.3,0.6l0.4,0.6l0.5,0.4
		l1.1,0.3l1.1-0.4l0.8-0.9l0.1-1.4l-0.9-1.5l-0.1-0.3l-0.6-4.6l-0.3-0.9l-0.5-0.7L312,162l0.1,0.9v0.7l-0.5-0.1v0.1v0.1l0,0h-0.1
		l-0.2-0.4H311l-0.2,0.3v0.5l-0.3-0.3l-0.2-0.3l-0.3-0.2l-0.5,0.2l0.1-0.4l0.2-0.3l0.4-0.5l-0.2-0.4l-0.1-0.3l-0.1-0.4v-0.5l0.1-0.4
		l0.1-0.4l0.1-0.4l-0.1-0.4l-0.7-0.1l-0.2-0.1l-0.3-1.4l-0.6-1l-0.1-0.5l-0.1-0.5l-0.3-0.9l-0.1-0.5v-0.5l0.2-1.3l-0.2-1.1l-1-1.7
		l-0.4-1l-0.6,0.6l-0.2,2.3l-0.3,1l-0.5,0.6l-1.1,0.9l-0.5,0.9L302.9,154.5z M102.5,30.4l0.2,0.3h0.2l0.1,0.1l0.9,0.1l0.2,0.1
		l-0.1,0.4l-0.3,0.4l-1.2,1.2l-0.2,0.3v0.3l0.3,0.4h0.3l0.3-0.1l0.3,0.1l0.7,0.5l0.8,0.2h1.6l0.5,0.2l1.5,1.1l0.4,0.2h0.3l0.3-0.2
		l0.1-0.4l0.7,0.4l0.6,0.6l0.7,0.5l1,0.1l-0.3-0.5l0.1-0.2h0.3l0.1,0.1l0.1-0.4V36v-0.2v-0.3h-0.1h-0.1l-0.2-0.1l-0.9-0.8l-0.3-0.4
		l0.4-0.2v-0.2l-1.2-0.2l-0.3-0.3l0.6-1l-0.1-0.5l-0.2-0.5l-0.1-0.5h-0.3l-1.6,0.4l-0.1-0.1l-0.3-0.1h-0.3l-0.1,0.2h-0.1l-0.8,0.3
		l-1.6-0.9l-0.3-0.5l0.1-0.3l0.3-0.4l0.1-0.5l-0.1-0.1l-0.6-0.3h-0.1h-0.3l-0.1,0.1l-0.3,0.3l-0.6,0.6l-0.4,0.2l-0.5,0.3l-0.2-0.3
		l-0.2-0.1h-0.2h-0.3l0.2,0.4L102.5,30.4z M89.3,43l0.2,0.5l0.1,0.6l0.2,0.5l0.3,0.1l0.3-0.1l0.3-0.2l0.3-0.3l0.3,0.1l0.5-0.2
		l0.4-0.4l0.1-0.5l-0.1,0.1l0,0l0,0l-0.1,0.1L92,42.8l0.2-0.5l0.3-0.5l0.2-0.6l-0.1-0.7h-0.3L92,40.7l-0.3-0.1h-0.2l0.1,0.8l0.1,0.3
		l-0.9,0.1l-0.3-0.3l0.1-1.3h-0.2l-0.2,0.4h-0.3l-0.3-0.2L89.5,40l-0.8,2.4l0.1,0.4L89.3,43z M317.3,139.4h1.1l0.2,0.4l0.3-0.1
		l0.3-0.2l0.5-0.1v0.2l-0.3,0.2l-0.1,0.2l0.1,0.1l0.3-0.1l0.4-0.3l0.4-0.3l0.2-0.3l-0.1-0.3l0.1-0.2l0.1-0.2l0.2-0.5h0.2l-0.2,0.6
		l0.2,0.3l0.3-0.1l0.2-0.4v-0.5l0.1-0.2l0.1-0.1l0.3-0.3l0.9-2.8l0.4-0.4l-0.2-0.2l0.2-0.5v-1.9l0.2-1.2v-0.6l-0.4-0.2l-0.1,0.2
		l0.1,0.3v0.3l-0.3,0.1v-0.2l-0.3-0.9l0.1-0.6l0.2-0.6l0.1-0.6l-0.2-0.6l0.4-0.2l0.6-0.4l0.4-0.6l-0.4-1.2l0.1-0.7v-0.6l-0.4-0.3
		l0.1,0.4l-0.1,0.6l-0.2,0.6l-0.3,0.5v-0.2l-0.1-0.2v-0.2l-0.4,0.4v0.3l0.1,0.3v0.3l-0.2,0.2l-0.1-0.1l-0.1-0.3V125l-0.3-0.2
		l-1.4-0.8l-0.1-0.1l-0.5-0.5l-0.2-0.1l-0.2,0.1l-0.1,0.3l-0.1,0.2L319,124v-0.1l-0.1-0.3l-0.2-0.3l-0.2-0.1h-0.1l-0.1-0.1l-0.1-0.1
		l-0.1-0.2v0.5l-0.2,0.9v0.4l0.4,0.4l0.5,0.3l0.3,0.3l-0.1,0.5l-0.5-0.3l-0.4,0.2l-0.2,0.5l0.3,0.6l0.4-0.2l-0.1,0.3l-0.4,0.3
		l-0.1,0.3l1,0.4l0.3,0.2l0.2,0.3v0.3l-0.2,0.1l-0.4-0.2h-0.2l-0.2,0.3v0.5l0.1,0.4l-0.1,0.2l-0.1,0.1l-0.1,0.3l0.4-0.2h0.3l0.2,0.2
		l0.2,0.2l-0.1,0.2l-0.2,0.6l0.4-0.4l0.3,0.2l0.1,0.5l-0.2,0.6l0.2,0.2h-0.6l-1.1-0.2l-0.3-0.1l-0.3,0.1l-0.2-0.1l-0.2-0.2l-0.3-0.1
		l0.2,0.4l0.4,0.3l0.4,0.1l0.3-0.2l1.4,0.9l0.8,0.2l0.6-0.2l-0.2,0.6l-0.3,0.1l-0.6-0.3h-0.5l-0.7,0.2h-0.5l0.2,0.3l0.3,0.2l0.3,0.1
		l0.4,0.1l-0.3,0.3l-0.6,0.1h-0.6l-0.5-0.1l0.2,0.5l0.7,0.8l0.2,0.4l-1.1-0.2l-0.4,0.1l0.2,0.3l-0.3,0.4l-0.1,0.5v1.1l0.2,0.4
		L317.3,139.4z M316.2,219.8l0.6,0.3h0.5l0.6-0.1l1.2-0.5l0.3-0.4l0.2-0.7l0.4-0.7l0.9-0.3l0.9,0.3h0.4l0.2-0.4l0.1-0.2l0.3-0.4
		l0.1-0.2l0.2-0.6v-0.2v-0.3l0.1-0.2l0.4-0.6l0.9-2.1l0.5-2.1l0.1-1l-0.5-0.5l-0.1,0.3l-0.3,0.8l-0.2,0.2l-0.3,0.2l-0.3,0.4
		l-0.3,0.5l-0.2,0.8l-0.3,0.2l-0.7,0.3l-0.6,0.4l-0.3,0.2l-0.4,0.1v0.2l0.8-0.1h0.3l0.2,0.3l-0.5,0.1l-1,0.5l-0.5,0.1h-0.6l-0.5,0.1
		l-0.4,0.2l-0.2,0.5l0.3,0.4l-0.5,0.7l-1.4,1.3l-0.2,0.1h-0.2l-0.2,0.1l-0.1,0.2l0,0l-0.1,0.2l-0.1,0.2v0.1l-0.3,0.1h-0.5l-0.3,0.1
		l0.5,0.4L316.2,219.8z M107.3,26.3l0.1,0.4V27l-0.1,0.2l-0.1,0.2l0.3,0.3l0.6,0.6h0.1h0.1h0.1l0.1,0.1l1.1-0.8l0.4-0.4l0.1-0.1
		l0.1-0.2v-0.4l-0.1-0.1l-0.3-0.4l-0.1-0.2h0.2l0.2,0.1l0.1-0.1v-0.2l-0.2-0.3l-0.3-0.1h-0.3l-0.7,0.1h-1.1l-0.3,0.2l0.1,0.4H107
		L107.3,26.3z M68.8,34.2l-0.2,0.4L68.5,35v0.4l0.2,0.4l0.2,0.2l0.4,0.2l0.4,0.1l0.2-0.2l0.6-0.3l0.1-0.2L70,35.5l-0.4-0.1l-0.3-0.3
		l-0.1-0.4v-0.5L68.8,34.2z M71.1,24.8l0.1-0.7L71,23.9h-0.1h-0.2v0.7L70.4,25l-0.3,0.4L69.9,26l0.9-0.8L71.1,24.8z M341.7,295.2
		l0.3-0.5l-0.3-0.6l-0.2-0.3l-0.1-0.3l-0.1-0.3l-0.3-0.1l-0.4,0.1l-0.3,0.2l-0.1,0.3l0.1,0.4l0.6-0.1l0.4,0.5l-0.1,0.6l-1,0.3
		l-0.2-0.1l-1.1-0.2l-0.1,0.1l-0.3-0.3l-1-2.3l-0.2-0.3L337,292l-0.7-0.3l-0.3-0.2l-0.2-0.4l-0.1-0.4l-0.2-0.4l-0.4-0.1l-1.1,1.3
		l1.6,0.7l0.5,0.2l-0.3,0.2l-0.2,0.1h-0.2l-0.2-0.2l-0.1,0.2l-0.1,0.2l-0.1,0.2v0.3l-0.4-0.3l-0.7-0.6l-0.4-0.3l-0.3-0.1h-0.2
		l-0.1,0.2v0.3l-0.1,0.3l-0.3-0.1l-0.5-0.3h-0.2l-0.2,0.1h-0.2l-0.2-0.3l0.1-0.2l0.3-0.1l0.2-0.2l-0.1-0.3l-0.3-0.5l0.1-0.5l0.2-0.4
		l0.1-0.4l-0.1-0.3l-0.1-0.1h-0.2l-1.3-0.4l-0.6-0.1l-1-0.4l-0.5-0.1l-0.6-0.1h-0.4l-0.1,0.3l0.3,0.6l0.2,0.5v0.6l-0.2,0.5l-0.3,0.4
		l-0.2-1l-0.1-1.8l-1.9-3.2l-0.8-0.6l-0.4-0.1h-0.5l-0.4-0.1l-0.7-0.7l-0.9,0.1l-0.4-0.2l-0.6-0.1l-1.5,1.8l-0.8,0.2l0.5-0.3
		l0.4-0.4l0.2-0.4l0.1-0.6l-0.4-0.8v-0.4l1-0.2l1.1-0.5l0.3-0.2v-0.3l-0.9-0.7l-0.3-0.4l0.9,0.1l0.6-0.3l0.2-0.6l-0.2-0.9l-0.2-0.4
		l-0.2-0.2l-0.5-0.4l-0.2-0.3l-0.2-0.8l-0.1-0.2h-0.2h-1.2l-0.3-0.1l0.1-0.3l0.5-0.5l0.6-0.2l0.3-0.2l-0.3-0.6l0.1-0.6l-0.2-0.3
		l-0.4-0.4l-0.2-0.2l-0.2-0.3l0.1-0.3l0.3-0.2l0.1-0.2l-0.4-0.3l-0.3-0.5l-0.4-1.7l-0.3-0.6l-0.7-0.7l-0.2-0.3v-0.2l0.1-0.4v-0.3
		l-0.4-0.2h-0.1l-0.1-0.1l-0.2-0.2l-0.3-0.2l-0.2,0.1l-0.1,0.3h-0.7l-0.4,0.1l-0.3,0.1l-0.1-0.6v-0.4l0.2-0.3l0.4-0.2h0.5h0.3
		l0.3-0.1l0.4-0.4l0.4-0.5l0.1-0.4l-0.1-1.1l0.1-0.3l0.2-0.6v-0.4l-0.1-0.2l-0.2-0.3l-0.2-0.3v-0.2l0.5-1l-0.2-1l-0.5-0.9l-1.3-1.7
		l-0.5-0.4h-0.4l-0.3,0.3l-0.5,0.3l-0.5,0.3l-0.4,0.1l0.1-0.3v-0.2l-0.2-0.5l-0.1-0.4l0.1-0.2l0.2-0.2l0.1-0.3l-0.1-0.2l-0.1-0.1
		l-0.1-0.1l-0.1-0.1v-0.1l0.2-0.3v-0.1v-0.6l-0.1-0.1l-0.3-0.2l-0.1-0.1v-0.7l0.2-0.6v-0.4l-0.5-0.2l-0.6-0.1l-0.2-0.2l0.1-0.3
		l0.4-0.5l-1.9,0.2l-0.5-0.2l0.6-0.9l0.1-0.1h0.2l0.4-0.1l0.6-0.1l0.5,0.3l0.6,0.8l0.6,0.6l0.1,0.1l0.5,0.4l0.2,0.1h0.4l0.4-0.1
		l-0.2-0.3l-0.9-0.7l-0.3-0.5l-0.4-1.1l-0.3-0.4l-0.4-0.3l-0.4-0.2l-0.3-0.2l-0.3-0.5l-0.1-0.7V245l-0.2-0.2h-0.6l-0.3-0.1l-0.1-0.2
		l-0.1-0.3l-0.2-0.2l-1.1-0.3l0.2-0.6l0.1-2.6l-0.1-0.7l-0.3-0.8l-0.4-0.7l-1-1.1l-0.1-0.9l0.2-1.8v-1l-0.1-0.9l-0.3-0.8l-0.4-0.8
		l0.5-0.2l0.2-0.3v-0.4l-0.3-0.5l0.3,0.1l0.3,0.2l0.5,0.6l0.2-0.6v-0.2l0.5,0.2l-0.1-0.6l0.1-1.1l-0.2-0.5h0.3l0.1-0.1h0.1l0.2,0.1
		l0.5-0.9l1-2.8l1-1.6l0.4-0.9l0.1-1l-0.2,0.2l-0.5,0.3l-0.1-0.6v-1.2l-0.3-1.1v-0.4l0.5-1l0.2-0.8l-0.1-0.4l-0.9-0.8l-0.5-0.4
		l-0.5-0.1l-1.2,0.1l0.5-0.5l-0.1-0.5l-0.4-0.4l-0.5-0.4l-0.3,1l-0.5,1.1l-0.7,0.8l-1,0.2l1.4-1.6l0.2-0.6l-0.5-1.2l0.1-0.4l0.2-0.5
		l-0.1-0.6l-0.4-1l-0.1-0.7v-0.6l0.6-3.5l0.4-1.2l0.8-0.8l0.3-0.6l0.3-0.6l0.1-0.5v-0.7l-0.2-0.4l-0.3-0.3l-0.3-0.5h0.4h0.5l0.4-0.1
		l0.2-0.4l-0.1-0.2l-0.1-0.3v-0.2l0.3-0.1h0.3l0.2-0.1l0.4-0.3l0.4-0.4l0.1-0.5l0.1-0.5l0.2-0.6l0.3-0.4l1.3-0.9l0.1,0.5l0.2,0.3
		h0.3l0.3-0.3l0.2-0.4l0.2-0.9l0.3-0.4h0.5v-0.8l-0.3-2l0.1-0.2l0.2-0.2l0.2-0.2v-0.3l-0.1-0.2l-1.5-2l-0.2-0.9l-0.6-0.8l-0.1-0.4
		l-0.2-0.2h-1.1l-0.5-0.2l-0.4-0.2l-1-0.1l-0.5-0.1l-0.9-0.5l-0.5-0.2h-0.6l0.1,0.3v0.2v0.6l-0.6-0.6V183l0.1-1.2l-0.1-0.9l-0.5,0.5
		l-0.6-0.4l-0.5-1.6l-0.2-0.8v-0.4l-0.1-0.4l-0.2-0.4l-0.3-0.2l-0.5-0.3l-0.3-0.3l-0.5-0.8l-0.2-0.3l-0.8-0.6l-1-1.2l-1.7-1.6
		l-0.7-0.3l-0.9-0.3l0.6,0.4l0.5,0.2l0.3,0.1v0.3l-0.3,0.1l-0.3-0.1l-0.3-0.2h-0.9l-0.4-0.1l-0.1-0.1l-0.1-0.2l-0.1-0.2l-0.2-0.1
		h-0.4l-0.2-0.1l-0.2-0.1l-0.3-0.3l-0.2-0.3l-0.1-0.4v-0.3l-0.1-0.3l-0.3-0.2l-0.4-0.2l-0.3-0.2l-0.4-0.8l-0.1-1.8l-0.2-0.8l0.4-0.5
		l0.2-0.7l0.1-0.8l-0.1-1.2l-0.1-0.2l-0.5-0.4l-0.7-0.4l-0.2-0.2l-0.1-0.3l-0.3-1.2l-0.1-0.2l-0.4-0.4l-0.1-0.2v-0.8l0.2-0.7
		l0.3-0.6l0.2-0.9l0.1-0.3l0.2-0.3l0.2-0.2l0.1-0.3v-2l0.1-0.7l0.2-0.7l0.7-1.1l0.6-1.2l0.4-0.5l0.3-0.6v-1.5l0.2-0.6l-0.4-0.2
		l1-0.7l1.1-1.7l0.9-1.8l0.4-1.2V140l-0.2-0.2l-0.2-0.1l-0.1-0.3l0.1-0.4l0.3-0.2l0.4-0.2l0.3-0.2l0.5-0.6l0.3-0.7l1.4-3.9l-0.2-0.4
		l-0.5,0.6l-0.3,0.3l-0.2-0.2l0.1-0.2l1-1.4l0.6-1.3l0.2-0.3l1.2-1l0.1-0.2l-0.1-0.3l-0.3-0.8v-0.5l-1,0.4h-0.5l0.1-0.4l0.3-0.6
		l0.1-0.2l0.3-0.1l0.5,0.2l0.2-0.1l0.1-0.3l-0.1-1.8l-0.1-0.3l-0.5-0.8l0.7,0.1l0.5-0.6l0.6-1.6l0.2,0.6l-0.1,0.6l-0.2,0.6l-0.1,0.6
		l0.2,0.5l0.4-0.4l1-1.7l0.2-0.5l0.1-0.5v-0.7l-0.1-0.7l-0.3-0.2h-0.5l-0.7-0.3l0.9-0.4l0.6-0.5l0.2-1l-0.2-0.9l-0.6-0.1l-0.2-0.2
		l-2.7-1.9l-2.7-1.9l-2.7-1.9l-2.7-1.9l-2.7-1.9l-2.7-1.9l-2.7-1.9l-2.7-1.9l-2.7-1.9l-2.7-1.9l-2.7-1.9l-2.7-1.9l-2.7-1.9l-2.7-1.9
		l-2.7-1.9l-2.7-1.9l-1.7-1.2l-0.4-0.6l-0.3-0.6l-0.5-1.9l-0.2-0.5l-0.4-0.4l-0.6-0.3l-0.7-0.2l-0.7-0.1l-1.5,0.1l-0.1-0.4l0.2-0.6
		l0.1-0.5l-0.2-0.2l-0.5-0.1l-0.2-0.2v-0.3l0.1-0.4l0.2-0.3l0.2-0.3l0.5-0.5l0.7-0.6l0.7-0.4h0.6v-0.6l0.1-0.4l0.3-0.3h0.6l-0.7-4.2
		l-0.6-3.4l-0.5-0.8l-2.6-1.4l-6.8-3.8l-6.8-3.8l-6.8-3.8l-6.8-3.8l-6.8-3.8l-6.8-3.8l-5.6-3.1l0.1,0.1l-3.1-1.6l0.1-0.1l-5.1-2.8
		l-6.8-3.8l-6.8-3.8l-6.8-3.8l-6.8-3.8l-6.8-3.7l-6.8-3.8l-6.8-3.7L143,3.7l-1.7-0.9L141.2,3l-1,0.6L140,3.7l-0.1,0.2l-0.2-0.5
		l-0.1,0.1h-0.2h-0.7l-0.5,0.1l0.1,0.3l0.3,0.4l0.1,0.3l-0.9,1.1L137.3,6l-1,0.5l-0.5,0.3l-0.5,0.5l-0.4,1l0.4,0.7l0.7,0.3l0.6-0.2
		h0.2l-0.1,0.1l-0.1,0.2l-0.1,0.1v0.2l0.6,0.2l0.6,0.4l0.5,0.5l0.2,0.5v0.3l-0.1,0.3l-0.2,0.2l-0.3-0.1v-0.1v-0.2l0.1-0.2l0.1-0.1
		l-0.4-0.4l-0.2-0.1l-0.6-0.1l-0.6-0.3l-0.3-0.1h-0.7l-1.9,0.2l-0.6-0.2l-0.4,0.5l0.2,0.5l0.8,0.8l-0.1,0.1v0.1v0.1l-0.1,0.2
		l0.4-0.2l0.4,0.1l0.3,0.3l0.2,0.3l-1.9-0.6l-0.5,0.3v0.4l0.3,0.4l0.4,0.2h0.3l0.6-0.1h0.3l0.3,0.1l0.1,0.1l0.1,0.2l0.2,0.2l0.3,0.7
		h0.1h0.1h0.1l0.4,0.3l0.1,0.2V16l0.5-0.3l0.3-0.1h0.3l0.3,0.2l0.1,0.3l0.1,0.3l0.1,0.1l0.3,0.1l0.1,0.2l-0.1,0.2l-0.3,0.1h-0.1
		l-0.2-0.2h-0.2V17l-0.1,0.2l-0.2,0.1l-0.1,0.1l-0.3-0.1l-0.5-0.3l-0.3-0.1h-0.3h-0.9l-0.5-0.2l-0.3-0.4l-0.2-0.5l-0.4-0.4l-0.1,0.3
		h-0.3l-0.4-0.1h-0.5l-0.3,0.1l-0.4,0.3l-0.3,0.1l-0.3-0.1l-0.2-0.1l-0.1-0.2l-0.1-0.1l-0.7-0.3l-0.4-0.1l-0.4,0.2l-0.2,0.4l0.2,0.3
		l0.3,0.3l0.2,0.3l0.5-0.1l0.1,0.3l-0.1,0.5l-0.3,0.4l-0.4,0.2h-0.5h-0.5l-0.4,0.3l0.2,0.2h0.3h0.3l0.3-0.2v0.4l0.2,0.2h0.3l0.4-0.1
		l0.4,0.5l0.1,0.2v0.3l-0.1,0.1l-0.2,0.1l-0.4,0.3l0.3,0.1l0.3,0.1h0.3l0.3-0.2l0.2,0.3l0.1,0.4l-0.1,0.4l-0.2,0.3l-0.2,0.1
		l-0.2,0.1h-3.2l-1.1-0.1l-0.2,0.1l0.2,0.5l0.2,0.2l0.7,0.4l0.2,0.2l0.2,0.2l0.3,0.5l0.2-0.2l0.3,0.3l0.8,0.6l0.2,0.2l-0.2,0.4
		l-0.4,0.1l-0.4-0.1l-0.2-0.2l-1-0.2l-0.1-0.1l-0.3,0.2v0.2l0.1,0.3l-0.1,0.4l-0.2,0.3l-0.2,0.2l-0.3,0.1h-0.4l-0.1,0.1l-0.2,0.3
		l-0.3,0.3l-0.4,0.1h-0.7l-0.6-0.1l-0.3-0.4l0.2-0.8h-1.9l-0.7,0.2l-0.8,0.7l-0.2,0.4l-0.3,0.9l-0.3,0.6v0.2v0.5l-0.1,0.1l-0.8,0.5
		l1,0.7l1.2-0.6l1.2-0.9l1.1-0.1l0.1-0.3l0.2-0.1h0.4l0.4,0.1l-1.3-0.4l0.2,0.2l0.7,0.4l0.3,0.4l-0.1,0.2l-0.8,0.5l1.3,0.1l1.2,0.3
		l-0.1,0.1l0,0l0,0l-0.1,0.1l0.2,0.1l0.1,0.1h0.1l0.2-0.1l0.5,0.5l-0.1,0.5l-0.4,0.4l-0.2,0.4l-0.2-0.1H123l-2-1.4l-1-0.3l-0.9,0.8
		l0.9,1.3l-0.4,0.1l-0.1,0.1l-0.1,0.2l-1.2-1.1l-0.5-0.1V33h-0.2l-0.2-0.5l-0.4-0.6l-0.5-0.3l-0.4,0.3l0.5,0.2l0.2,0.4v0.4l-0.2,0.3
		l-0.2-0.1l-0.8-0.2l0,0h-0.9h-0.2l-0.1-0.1h-0.1l-0.1,0.3h0.1l0.1,0.3l0.1,0.3v0.2l-0.1,0.3l-0.3,0.4v0.3l0.1,0.3l0.1,0.2l0.2,0.4
		l0.6-0.6l0.6-0.3h0.7l0.9,0.3l0.8,0.5l0.3,0.3l0.1,0.4l0.2,0.3l0.4-0.1l0.9-0.3l1.6-0.1l1.9,0.1l1.8,0.3l1.2,0.6l0.7-0.8l0.4-0.4
		l0.5-0.1l0.3-0.1l1.4-1l1.2-0.6l1.2,0.3l0.9,0.9l0.5,1.2v0.3l-0.2,0.5v0.3l0.1,0.1l0.1,0.1l0.1,0.2l0.1,0.3l-1.8,1.2l-0.3,0.1
		l-0.3,0.3l-1.4,0.3l-0.4,0.2l-1.1,0.8l-0.6-0.2l-0.5,0.3l-0.7,0.9l-0.5,0.3l-1.3,0.5l-0.5,0.1l-0.3,0.1l-0.3,0.3l-0.3,0.3l-0.1,0.3
		v0.3l0.1,0.1l0.2,0.1l0.2,0.2l0.1,0.4l-0.5,0.3h-0.7l-0.6-0.4l-0.3,0.3l-0.7,0.2l-0.8,0.5H120l0,0l0.4,0.3l1.1,0.5l0.2,0.2
		l-0.1,0.4l-0.2,0.3l-0.3,0.1l-0.4-0.2l-0.2,0.2v0.2l0.1,0.2l0.1,0.2h-0.5l-0.3-0.1l-0.2-0.2l-0.1-0.5l-0.2,0.1L119,48h-0.5
		l-0.4-0.2l0.1-0.1l0.1-0.3l0.1-0.3v-0.2l-0.2-0.1l-0.2,0.1l-0.1,0.2l-0.1,0.4l-0.2-0.1l-0.2-0.2l-0.2-0.1l-0.8,0.2l-1.7,0.2h-0.4
		l-0.4-0.2l-0.7-0.6l-0.3-0.1l-0.1-0.1V46l-0.1,0.4l0,0l-0.6-0.2H112l-0.3-0.3l-0.4-0.7l-0.3-0.4v-0.5l-1.2-0.4l-2.6-0.3l-1.1,0.3
		l-1.1,0.7l-0.7,0.9l0.1,1l-0.5-0.2l-0.3,0.1l-0.2,0.3l-0.1,0.6l0.2,0.4l0.7,0.8l0.2,0.5l-0.2,0.1l-0.7,1v0.2l-0.3,0.2V51l0.2,0.5
		l0.2,0.4l0.6,0.4l0.1,0.1l0.3,0.4l0.1,0.1l-0.1,0.1l-0.2,0.3l-0.1-0.1h-0.2l-0.2,0.1l-0.1,0.4l0.1,0.1l0.5,0.5l0.2,0.2l0.1,0.2
		l0.2,0.5l0.1,0.2l0.2,0.1l0.5,0.2l0.2,0.1l0.2,0.4l-0.2,0.2l-0.4,0.3l-0.3,0.6l1-0.1l0.3,0.1v0.1v0.4v0.1l0.4,0.2h0.3l0.3-0.1h0.3
		l0.4,0.3l0.1,0.2l0.1,0.2v0.2l-0.1,0.2h-0.4l-0.6-0.2l-1.8-0.8l-0.5-0.3l-0.3-0.5v-0.8h-0.2l-0.3,0.7l-0.4,0.3l-0.5,0.2l-0.6,0.4
		l-0.3,0.5l-0.2,0.7l-0.1,0.7l0.1,0.4l-0.5,1.2l-0.2,0.3l-1.1,0.9l-0.2,0.4H100l-0.2-0.4l-0.1-0.5l0.1-0.5l0.3-0.5l0.1-0.4v-0.4
		l0.2-0.3h0.9V60l-1-0.7L99.7,59l-0.5,0.2L99,58.8l0.1-0.2l0.7-0.2l1-0.6l0.4-0.1h0.4l1.3-0.3v-0.2l-0.1-0.3v-0.4l0.7-1.2l0.2-0.8
		l-0.3-0.4l-0.9-0.1l-0.4-0.3l0.1-0.4l0.6-0.5l-0.6-0.3H102l-0.2,0.1l-0.1-0.2l-0.1-0.3l-0.2-0.6l0.5,0.1l0.2,0.1l0.1-0.6l-0.2-0.6
		v-0.4l0.7-0.1l-0.1-0.4l-0.2-0.3l-0.7,0.1l-0.4,0.1l0.1-0.5l0.3-0.3l0.3-0.3l0.2-0.4v-0.2l-0.3-0.1l-0.1-0.2l-0.1-0.2l-0.2-0.3
		l-0.3-0.1l-0.5,0.3l-0.4-0.1l-0.4,0.3l-0.5,0.7L99,48.4V48l-0.1-0.7l0.1-0.2l-0.2-0.2l-1.3,0.8l-0.4,0.2l0.2-0.4l0.3-0.5l0.1-0.5
		l-0.3-0.6l-0.5-0.6l-0.1-0.5v-0.5l-0.2-0.7l-0.3,0.3L96,44.4l-0.2,0.5l-0.1,0.3l-0.1,0.7l-0.2,0.4L93,48.5L92.2,49l-0.7-0.2
		l0.5-0.9l0.2-0.3l0.5-0.5l0.3-0.4l0.1-0.5v-0.5L93,45.2h-0.2l-0.2,0.3l-0.7,0.4l-0.2,0.3l-0.3-0.3l-0.3-0.2h-0.3l-0.2,0.2l-0.3-0.1
		L90,45.7h-0.3h-0.4l0.1-0.1l0.1-0.4l0.1-0.1h-1.4L87.4,45L87,44.5l0.1-0.4l-0.7-0.8l-0.6-0.8l0.1-0.6h0.2h0.3l0.2,0.1v0.1l0.4-0.2
		l0.1-0.2l-0.2-0.1l-0.5-0.1l-0.3-0.2l-0.6-1.4h-0.1H85L84.6,40l-0.3,0.2l-0.4,0.1l-0.5-0.1L83.2,40L83,39.5l-0.1-0.1h-0.3l-0.1,0.2
		v0.2l0.1,0.1l0.2,0.2v0.5l-0.1,1h-0.6l-0.8,1.5l-0.6,0.6l-0.4,0.1l-0.4-0.1l-0.3-0.2l-0.1-0.3l-1.2-0.1L78.2,43L78,43.2l-0.1,0.3
		l-0.1,0.4v0.4l0.1,0.4l0.3,0.2l0.4,0.1l0.3,0.1l0.1,0.2l0.1,0.4l0.1,0.2l0.2,0.1l0.5,0.2l0.5,0.4l0.3,0.2l0.3,0.3l0.2,0.5l-0.4,0.3
		l-0.1,0.5l-0.1,0.5L80,49.2v-0.3l-0.2-0.6l-0.4,0.1L79,48.2l-0.2-0.3l0.1-0.3l-0.3-0.2l-0.3-0.1H78l-0.2,0.1l0.1,0.2v0.1l-0.1,0.1
		L77.7,48l-0.4-0.5l-0.7-0.8l0.1-0.3l-0.1,0.3l-0.1,0.2v0.3v0.3h-0.2L76,46.9L75.6,47l-0.3,0.5l0.2,0.7v0.3l-0.1,0.8l0.1,0.2
		l0.1,0.1v0.2V50l-0.1,0.1l-0.3,0.2H75l-0.1-0.1h-0.2l-0.4,0.1H74h-0.2l-0.2,0.2l-0.1,0.2l0.1,0.2l0.2,0.2l0.3,0.1l0.2,0.1l0.2,0.3
		l0.2,0.3l0.2,0.7l0.2,0.2l0.2,0.1l0.1,0.1v0.2v0.6V54l0.2,0.2l0.6,0.5l0.1,0.3l-0.2,0.6l-0.5,0.2L75,55.7l-0.4-0.4l-0.1-0.7V54
		l-0.2-0.4l-0.7-0.2v-0.3l0.1-0.6l-0.2-0.4l-0.8,0.2v-0.5l-0.1-0.2h-0.2l-0.2,0.2v0.1l0.1,0.1l0.1,0.2v0.4l0.1,1l0.1,0.3L72,54
		l-0.5,0.2l0.1-0.5l-0.2-0.5l-0.3-0.3L70.8,53l-0.3,0.2l-0.2,0.1l-0.2,0.2L70,53.8l0.2,0.4v0.2l-0.1,0.1v0.2l0.4,1.1l0.1,0.4
		l-0.2,0.4L70,57.1l-0.5,0.4l-0.4,0.2l-0.4-0.6v-0.8l0.2-1.5v-0.5l-0.1-0.2h-0.2H68h-0.1v-0.2l0.1-0.6l0.4-0.7v-0.1l0.3-0.1v-0.2
		l0.2-0.3l0.2-0.1h0.4l0.4-0.1H70h0.1v-0.3v-0.2v-0.1l0.1-0.1l0.2-0.1h0.3l0.4,0.1h0.3l0.1-0.5l-0.4,0.2l-0.5,0.1h-0.9l-1,0.3
		l-0.5,0.1L68,50.9v-1.7l-0.2-0.3l-0.4-0.1L67,48.6l-0.2-0.5l0.1-0.4l0.3-0.1h0.4h0.5l0.5-0.2l0.4-0.3l0.3-0.4l0.2-0.4v-0.2
		l-0.1-0.2l-0.1-0.2l0.2-0.5l-0.2-0.1L68.9,45l-0.5-0.7l-0.1-0.4v-0.6l0.5,0.1v-0.2l-0.3-0.3L68,42.7l0.1-0.1l0.1-0.3l-1-0.2
		l-0.7,0.4L65.9,43l-0.8,0.4h-0.6l-0.2-0.2l-0.1-0.4v-0.6l0.1-0.2l0.2-0.2l0.3-0.4l0.1-0.2v-0.9l0.6-1.9l-0.1-0.3l0.2-0.2l0.6-1.3
		l-0.1-0.2l-0.3-0.3v-0.3l0.1-0.3l0.4-0.5l0.1-0.4l-0.1-0.2L66,34.2l-0.1-0.1v-0.2l0.2-0.2l0.1-0.4l0.3-0.9H66l-0.3,0.2l-0.2,0.2
		L65.2,33l-0.3,0.1h-0.2h-0.2h-0.3L64,33.2l-0.1,0.2l-0.1,0.2l-0.3-0.1v-1.1l0.2-0.9l0.4-0.8l1.4-1.7l0.3-0.9l0.3-2.1l0.1-0.5
		l0.4-0.9l0.3-2.5l0.5-1l0.6-0.7l0.2-0.7l-0.6-1l0.3-0.9l-0.1-1.4l0.2-0.9l1.3,0.6l0.1-0.4l0.1-0.5v-1l0.1-0.4l0.3-0.7l0.2-1.3
		l0.7-1.3l0.3-0.9l0.2-3l0.3-0.7V5.6l-0.2-0.4l-0.3-0.4l-0.2-0.4V4V3.6V3.2l-0.2-0.5L71,2.5l0.4-0.4l0.2-0.4l-0.4-0.2l-0.3,0.1
		l-0.2,0.1h-0.2l-0.1-0.3V1.1V1H70l-0.1,0.6l-0.2,0.6l-0.3,0.2l-0.7,0.3l-0.4-0.2l-0.1-0.6L68.7,1H38.6l-0.5-0.2L37,0.5l-1.2,0.6
		l-1.2,0.4l-0.5,0.2L33,2.9l-0.4,0.3L31.8,3l-0.7-0.1L29.5,3l-0.6,0.1h-0.4L28.3,3l-0.2-0.2l-0.2-0.2h-0.4l-0.3,0.2l0,0L27,3.1
		l-0.2,0.3l-0.1,0.4l0.1,0.3l0.5,0.3l0.1,0.4L27.3,5l-0.1,0.2l-0.1,0.2l0.1,0.2l0.3,0.2h0.2l0.2-0.1H28L28.4,6l0.1,0.2L28.6,7
		l0.2,0.5l0.6,0.9L29.6,9l0.3,0.4L30,9.7v0.1l-0.1,0.1l-0.1,0.2v0.2l0.2,0.5l0.4,0.3l0.9,0.4l0.3,0.2l0.5,0.4l0.3,0.2l2.1,0.8
		l0.6,0.1l0.6,0.4l0.2,0.8l-0.1,0.8l-0.1,0.4l-0.2,0.2l0.2,0.4l0.5,0.7l0.4,0.4l0.1,0.2l0.3,1.1l0.3,0.7l0.5,0.4l0.7-0.3l0.2,0.7
		v0.8l-0.4,2.5v0.3l0.1,0.2l0.3,0.4l0.1,0.3l-0.4,0.9l0.1,0.3l0.3,1.3l-0.2,0.5l-0.3,0.5l-0.2,0.5l0.2,0.6l-0.5,0.4l-0.2,0.2
		L37.4,30l0.9,0.2l0.1,0.8L38,32.8l0.6-0.1l0.6,0.3l0.5,0.5L40,34l0.3,0.9l-1.1,3.5l-0.3,1.4l0.1,2.1l-0.1,0.6l-0.3,0.6l-0.4,0.3
		l-0.5,0.2l-0.5,0.3L36.8,44l-0.2,0.1l-0.3,0.1L36,44.1l-1.6-0.8l-0.3-0.1l-0.4,0.1l-0.4,0.3l-0.4,0.8l-0.4,0.3h-0.7l-0.7-0.2
		l-0.7-0.1l-0.6,0.4l-1,1.3l-0.4,0.7l-1.2,2.9l-0.3,1L26.8,51l-0.3,0.4l-0.8,0.7l-0.3,0.4l-0.1,0.8l0.3,0.3h0.6l0.7-0.2l1.1-0.5
		l0.7-0.3l-0.2,0.6l-1.8,1.9l-0.2,0.4L26.4,56v0.8l-0.7,0.9l-0.4,0.7l0.1,0.5l0.8,1l0.5,0.4l0.6,0.2l0.4-0.1l0.2,0.2l0.3,0.3
		l0.1,0.4l0.2-0.1l0.6-0.9l0.4-0.3l0.4-0.2h0.2l2,1.2l0.4,0.2l0.1,0.1l0.1,0.2l0.1,0.5l0.1,0.1l0.4,0.1l0.3-0.1l0.3-0.1h0.4l0.4,0.1
		l0.7,0.5l0.4,0.1l0.7-0.1l1.5-0.4h0.7l-0.3,0.5l-1,1.1l-0.2,0.5l0.2,0.5l0.8,0.7l0.3,0.4v0.2l-0.1,0.4v0.2l0.1,0.2l0.4,0.3l0.1,0.2
		v0.4l-0.1,0.4l-0.3,0.7l-0.4,0.6v0.2l0.1,0.6v0.2l-0.5,0.8L37,71.8l-0.9,0.1l-0.8-0.4l-0.1,0.4L35,72.2l-0.3,0.2h-0.4l-0.9,0.3
		l-0.7,0.4l-0.6,0.6l-0.6,0.7l1.2,0.6v0.8l-0.8,0.8l-1.5,0.7L30,77.8L29.7,78l-0.2,0.1l-0.9,0.2v0.1l-0.1,0.3v0.1h-0.6v-0.1h-0.1
		l-0.5,0.1l-0.1,0.1l-0.1,0.4L27,79.4L26.1,80l-0.2,0.4L26,81v0.6l-0.2,0.6l-1.3,2l-0.2,0.6v0.6l0.1,0.5l0.2,0.5l0.1,0.5l-0.1,0.6
		L23.2,87l-0.8,0.5l-1.2,2.1l-1.7,1.7l-0.4,0.6l-0.5,2.3L18,95.6l-0.7,1.3l-1,1.1l-2.1,1.8l-0.3,0.5l-0.8,1.9l-0.4,0.5l-0.7,0.4
		l-0.3,0.3l-1.1,0.6l-1.1,1.1l-1.7,0.8L7.5,106L7,105.9l-0.3-0.2H6.4L5.9,106l-0.1,0.1l-0.1,0.5l-0.2,0.3L5,107.1l-0.2,0.2l-0.1,0.4
		v0.4l-0.1,0.4l-0.4,0.3l-0.1-0.1l-1.3-0.1l-1.1-0.3l-0.1,1.8L0.1,118v2.2v0.3l0.2,0.3l0.2,0.3l0.2,0.2v0.2l-0.9,0.8v0.2l0.6,0.2
		l1,0.1l0.3,0.1l0.4,0.2l0.2,0.2l0.1,0.2l0.2,0.3l0.2,0.1l0.8,0.3l0.6,0.2l0.3,0.3l0.5,0.7l0.1,0.1h0.2h0.2l0.2,0.2v0.2l-0.1,0.2
		l-0.1,0.2l0.2,0.6l0.8,1l0.3,0.7l0.2,0.7v0.7l-0.1,0.4l-0.1,0.2l-0.1,0.1l-0.1,0.2H6.5H6.4H6.3L6.2,131v0.2h0.2h0.2l0.1,0.1
		l0.1,0.4l0.1,0.2v0.2l-0.2,0.3l-0.2,0.4l0.2,0.6l-0.1,0.4l-0.2-0.1H6.3l-0.1,0.1L6,133.9l0.1,0.4v0.8v0.8l-0.2,0.5l-0.4,0.5
		l-0.4,0.7l-0.3,0.7L4.7,139l0.3,1l0.6,0.9l1.4,1.3l0.6,0.8l3.4,7.4l0.3,1.4v0.6l-0.2,1.2v0.6l-0.8,0.2l-0.7,0.4l-2.1,1.9l-0.2,0.1
		L7,156.7l-0.5-0.3H6.2l-0.6,0.4L5,157.5l-0.5,0.8l-0.2,0.6l-0.1,2l0.2,2.1l-0.1,0.7l-0.4,0.6l-0.2,0.3l0.2,0.3l0.3,0.2l0.7,0.2
		l0.2,0.3l0.3,0.7l2.8,3.5l1.5,1.3l1.1,0.6l0.4,0.4v0.7l2.4-1.3l1.3-0.4h1.4l0.7,0.2l0.6,0.3l0.5,0.5l0.2,0.6l0.3,0.6l3.2,3.1
		l0.5,0.4l0.6,0.2l0.3,0.3l0.7,1.7l1.2,1.5v0.3l0.2,0.8l0.5,1.2l2.1,2.3l0.8,0.5l0.2,0.4l1.6,1l0.4,0.6v1.3l-0.1,0.2l-0.4,0.4
		l-0.1,0.2v0.6l0.1,0.7v0.6l-0.4,0.3h-0.9l-0.2-0.1l-0.2-0.2h-0.2l-0.2,0.4l0.4,0.3l0.4,0.5l0.3,0.6l0.1,0.6l-0.1,0.2l-0.1,0.3
		l0.1,0.3l0.4,0.1l0.2,0.2l0.3,1.1l1.3,2.9l0.2,1.2l-0.1,0.6l-0.4,1.5v0.3l0.4,0.3l-0.2,0.6l-0.5,1.1l1.3,2.2l0.2,0.4l0.5,0.2
		l0.3,0.5l0.2,0.6l0.2,0.5l0.3,0.2l0.9,0.4l0.3,0.3l0.2,0.4l0.2,0.5l0.2,0.4l0.4,0.2l1.7,4.9l0.8,0.7l0.3,0.4l0.2,1.1l0.3,0.3
		l0.7,0.6l0.3,0.4l0.6,1l0.1,0.4l0.1,1.3l0.2,0.6l0.3,0.5l0.1-0.1l0.5-0.3l0.3,0.5l0.2,0.6L43,225l-0.2,0.5l-0.1-0.3v-0.1h-0.2
		l-0.1,0.5l0.1,0.3l0.2,0.3l0.1,0.6l0.1,0.2l0.1,0.2l0.1,0.1l0.1,0.2v0.1v0.1v0.3l0.1,0.6l0.3,0.3l0.4,0.2l0.4,0.2l0.3,0.4l0.4,0.9
		l0.4,0.4l0.1-0.1l0,0l0,0l0.1-0.1l0.6,0.9l1.9,1.2l0.6,1l-0.3,2v1.2l0.6,0.5l0.3,0.1l0.1,0.4l-0.1,0.9v0.1l0.5-0.3h0.8l0.4,0.3
		l0.6,0.8l0.3,0.2l0.4,0.1l0.3-0.1l0.2-0.2l1.6-0.6l0.4-0.1l0.2-0.1l0.1-0.1h0.1l0.3,0.2l0.1,0.2l0.1,0.6l0.1,0.2l0.4,0.3h0.4h0.4
		h0.5l0.5,0.3l0.7,0.8l0.5,0.3l1.2,0.3l0.6,0.5l0.2,0.8v1.2l0.2,1.4l0.7,1l3,2.3l0.5,0.2h0.6l0.6-0.2l1.1-0.6l0.7-0.1l4.7,1.3
		l-0.6,1.3v1.6l0.6,1.2l1.3,0.3l0.7-0.3l0.5-0.3l0.5-0.2l0.8,0.1l0.9,0.5l0.3,0.1h0.3l0.6-0.1h0.3l0.7,0.4l1.2,1.2l0.6,0.5l0.6,0.2
		l0.7,0.1l4.1-0.1l1.3,0.3l1.1,0.8l0.3,0.4l0.6,1.4l0.4,0.7l0.4,0.3l1.2,0.1l2.7,0.6l2.3,0.2l0.4,0.2l0.4,0.5l0.1,0.2l0.1,0.5
		l0.2,0.2l0.2,0.1l0.5-0.1h0.2l1.5,1l2.3,0.9l0.5,0.3l0.5-0.5l0.6-0.3h0.6l0.6,0.3l1.6,1.6l1.9,1.5l0.3,0.1l0.8,0.2l0.9,0.4l0.1,0.1
		l0.3-0.1l0.4-0.4l0.2-0.1h0.4l0.7,0.2h0.4l0.3-0.1l0.5-0.3h0.3l0.6,0.2l1.8,1.3l0.6,0.6l0.5,1.2l0.4,0.6l0.5,0.3l0.6,0.2l1.3,0.1
		l1-0.2l0.7-0.4l0.8-0.3l1.1,0.1l1,0.3l0.8,0.2l0.8-0.1l0.8-0.5l1-0.3l0.9,0.5l0.8,0.8l0.8,0.5l0.7,0.3l0.9,0.5l0.8,0.6l0.3,0.6
		l0.3,0.3l0.5-0.6v-0.2l0.5-0.3l0.3-0.3l0.1-0.4v-0.6l0.2-1l0.1-0.6l-0.6-1.4l0.5-0.8l0.7-0.6l0.4-0.4l0.5-0.5l0,0l0,0l1.1,0.4
		l1,0.7l0.3,0.4l0.4,0.2l1.1,1.3l0.2,0.1l0.6,0.6l0.9,0.4l3.1,3.2l0.9,0.3l0.2,0.4l0.1,0.6l0.2,0.6l0.2,0.2l0.7,0.7l0.1,0.1l0.6,0.5
		v0.1l3.1,3.9l0.4,0.7l0.9,1.3l0.4,1.1v0.3l-0.1,0.4l-0.3,0.6l-0.1,0.3l0.2,1.1l1,2.3l0.3,1.7l0.3,0.7l0.1,0.4v0.3l-0.6,3.5l0.1,0.7
		l0.6,1l0.1,0.6l-0.1,0.3l-0.3,0.7l-0.1,0.4v0.4l0.2,0.4l0.2,0.4l0.3,0.4l0.3,0.1h0.3l0.2,0.1l0.1,0.4v0.6l0.1,0.2l0.7,0.8l0.3,0.6
		v0.7l-0.4,0.7l0.2,0.3l0.1,0.1l0.1,0.2l0.2,0.1l0.2,0.2l0.1,0.4l-0.4,0.3l-0.2,0.3l0.1,0.8l-0.4,2v1.4l-0.1,0.3l-0.6,1.3l-0.9,1.2
		l-0.2,0.8l0.1,0.7l0.4,1.3l0.1,0.8l0.2,0.6l1.5,1.3l0.2,0.3l0.1,0.3l0.2,0.2l0.6,0.1l0.3,0.2l0.2,0.3l0.1,0.3l0.1,0.7l0.3,0.6
		l0.4,0.5l0.5,0.3v0.2l-0.2,0.1l-0.3,0.2l-0.2,0.1l0.7,1.3l0.2,0.2h0.1l0,0l0.4-0.4l0.2-0.1l0,0l0,0h0.2l1.4,0.5l0.8,0.4l0.6,0.5
		l0.2,0.7l0.1,0.2l0.6,0.5l0.3,0.9l0.3,0.3l0.3,0.3l0.1,0.2l0.1,0.2l0.2,0.3l0.2,0.4l0.1,0.5v1.7l0.1,0.3l13.1,0.1h1.3l0.1,0.2
		l0.2,0.2l0.3,0.1h0.8h0.1l0.4-0.2l0,0l0.2-0.1l0.1-0.1h0.1l0.3,0.2l0.2,0.2l0.1,0.2l0.1,0.2l0.4,0.1v-0.6h0.3l0.5,0.2l0.5,0.1
		l0.7-0.4l0,0l1.7-0.4l0.3-0.2l0.2-0.7l0.3-0.4l0.3-0.4l0.4-0.2l-0.2-0.7l0.6-0.3l1.6-0.3l0.6-0.4l1-1.2l0.4-0.3l1.3,0.2l0.9,0.4
		l0.2,0.1h1.2l0.4,0.2l0.5,0.7l-0.3,0.7l0.3,0.6l0.6,0.3l0.6-0.2h0.4l0.7,0.3l1.1,0.7l0.3,0.1l0.7,0.2l0.3,0.1l0.3,0.2l0.2,0.2
		l0.2,0.2l0.3,0.1l0.5,0.2l0.2,0.6l0.1,0.7l0.2,0.6l-0.2,0.5l0.1,0.7l0.3,0.6l0.4,0.3l1.3-0.2l0.4,0.1l0.5,0.3l0.3,0.1h0.5l1.1-0.3
		l1-0.1l0.2-0.1l0.2-0.1l0.1-0.1h3.7l0.2,0.2l0.2,0.8l0.2,0.2l0.2,0.1l0.8,0.4l0.5,0.1l2-0.3l0.5-0.2l0.8-0.1l0.2-0.1l0.2-0.2
		l0.3-0.2l1.2-0.4l0.4-0.2l0.3-0.3l0.9-1.3l1.4-1.7l0.5-0.2l0.3,0.2h0.6l0.8,0.5l0.5,0.1l2.9-0.3l0.3-0.1l0.3-0.2l0.5-0.3l0.4,1
		l0.9,1.1l1.1,0.9l1.1,0.5l2.7,0.6l1.4,0.1l1.1-0.1l0.3-0.1l0.2-0.2l0.2-0.1h0.3l0.4,0.2l0.6,0.6l0.3,0.1l1.6,0.4h0.7l0.6-0.1
		l0.2-0.1l0.3-0.2l0.2-0.3l0.2-0.4l0.2-0.4l0.4-0.2l0.7-0.1l1.1-0.6l0.7-0.1h1l0.7-0.1l0.6-0.3l1.4-1.1l2.3-1l0.7-0.5l0.4-0.3
		l0.2-0.4l-0.1-0.4l-0.2-0.4l-0.1-0.4l0.2-0.7l0.8-1.3v-0.6l0.3-0.4l0.5-1.4l0.1-0.5l0.2-0.3l2-1.1l0.5-0.1l1.3-0.1l0.3-0.1l0.3-0.3
		l1.8-0.3h1v-0.1l0.1-0.1l0.2-0.1h0.2l0.1,0.1l0.2,0.3l0.1,0.1l0.3,0.1l0.6,0.5l0.4,0.1l0.4-0.1l0.7-0.3l0.3-0.1l1.4,0.2l1.1,0.8
		l1.7,1.8l1.1,0.6l2.5,0.6l0.9,0.5l0.8-1l3.1-2.1l0.7-0.9l0.5-0.4l0.9-0.3l0.6-0.3l0.3-0.1h0.4l0.7,0.2h0.3l0.6-0.3l1.3-1.2l0.4-0.3
		l0.7-0.2l0.5-0.4l0.9-0.7l1.1-0.2h4.1l1.1-0.2l1-0.4l0.7,0.2l1.3,0.7l0.7,0.2h0.8l0.8-0.2l0.7-0.4l6.2-4.9l0.5-0.3l0.5-0.2l2.4-0.2
		l5.3-1.2l0.8-0.3l3.2-2.2l3.2-1.4l0.6-0.3l3.9-3.1l0.9-0.3l0.4-0.4l0.6-0.8l1.9-1.8l1.2-0.9l2-0.7l1.1-0.8l1-1l0.5-0.9v-0.4
		l-0.1-0.3l-0.2-0.2l-0.1-0.2v-0.4l0.3-1.1h-0.2h-0.4h-0.2l0.4-0.5L341.7,295.2z M75,40.8l0.3,0.1l0.1,0.5l-0.3,0.4l-0.4,0.4
		l-0.2,0.4l0.4-0.2l0.1,0.1v0.2l0.1,0.2V43v0.1v0.1l0.1,0.1h0.1l0.2-0.1l0.1-0.1l0,0h0.5l0.5-0.1l0.5-0.2l0.4-0.3l0.6-1.5v-0.5
		L78,40.2h-0.2l-0.3,0.4h-0.2l0.1-0.3l0.1-0.3l0.1-0.3l0.2-0.2l-0.2,0.2l-0.1-0.2v-0.1V39l-0.6,0.1l-0.5,0.3l-0.5,0.4l-0.6,0.3
		l-0.5,0.2l-0.3,0.2l-0.1,0.3l0.1,0.2L75,40.8z M70.7,45l0.1,0.5l0.3,0.4l0.4,0.2l0.5-0.2l1.2-0.9l0.2-0.2v-0.6l-0.2-0.5l-0.3-0.4
		l-0.2-0.5l0.1-0.6l0.2-0.3v-0.1h-0.4l-0.9-0.4l-0.3-0.8l-0.1-1l-0.4-0.9l-0.1-0.3l-0.4-0.2L70.1,38v-0.6h-0.2L69.3,39l-0.1,0.8
		l0.7-0.2l-0.1,0.5l-0.2,0.4l-0.3,0.2l-0.4-0.1l0.2,1.1l0.6-0.2h0.6l0.3,0.2L70.2,42l0.2,0.4l0.6,0.5l0.2,0.3v0.4l-0.3,0.7L70.7,45z
		 M71.7,20.3l0.1,0.5V22h-0.2v-0.1v-0.1v-0.1v0.5l-0.2,1.4l1-1.7l0.3-0.9l0.1-0.9l1.3,0.9L74,20.7l-0.1-0.2L73.5,20l-0.7-0.4
		l-0.1-0.1h-0.1l-1,0.3L71.7,20.3z"/>
</g>
</svg>
