<?xml version="1.0" encoding="utf-8"?>

<svg version="1.2" baseProfile="tiny" xmlns="http://www.w3.org/2000/svg" xmlns:xlink="http://www.w3.org/1999/xlink" x="0px"
	 y="0px" viewBox="205 153.6 430.2 287" xml:space="preserve">

<g id="Ukraine">
	<g>
		<polygon fill="#005BBB" points="633.7,266.1 632.8,264.6 632.3,263.5 632.1,262.3 632.6,261.1 633,260.8 634,260.2 634.3,259.7
			634.4,259 634.1,258.6 631.7,257.9 631.3,257.9 630.7,258.1 629.3,259.6 628.7,260 628,260.2 627.2,260.4 626.6,260.3
			626.1,260.1 624.9,258.9 623.9,258.5 623.1,258.2 622.3,257.7 621.7,256.5 621.4,254.9 621.1,254 620.8,253.6 619.4,253.5
			619,253.3 618.1,252.7 617.2,252.9 616.3,253.3 615.3,253.6 614.4,253.3 613.7,252.9 613.2,252.2 611.9,248.7 611.2,248.2
			610.3,248.5 609.9,249 609.1,250.1 608.7,250.5 608.3,250.6 606.1,250.8 605.4,250.1 604.8,249.2 604,248.5 601.5,247.8
			600.1,246.7 599.9,246.6 599.8,246.2 599.8,245.6 599.5,244.9 599.5,244.8 599.5,244.9 598.9,245.1 598.7,245.3 598.5,245.4
			597.3,245.2 595.6,245.5 594.7,245.2 594.1,244.8 593.7,244.6 592.7,244.5 592.2,244.3 591.9,243.8 591.2,241.7 590.9,241.3
			590.4,241.2 589.8,241.3 588.2,241.2 587.8,241.3 587.6,242.4 587.8,244.1 587.7,245.8 586.5,246.5 586.3,246.5 585.9,246.2
			585.6,246.1 585.3,246.2 583.7,247.2 583.6,247 583.6,246.4 583.2,245.8 583.2,245.7 582.4,244.4 581.7,243.4 580.9,242.7
			580,242.1 578.1,241.3 577.2,240.7 574.9,237.1 574.1,236.3 573.9,236 573.9,235.6 574,235.3 574.2,234.4 574.1,232.8 573.4,232
			571.3,231 570.9,230 570.6,228.7 570.2,227.8 569.7,227.5 567.3,227.9 566.6,228.1 565.2,229.6 564.5,230.1 561.1,231.2
			559.3,230.9 557.8,231 556.2,231.6 552.2,233.9 551.9,234.2 551.7,234.5 551.3,235.3 551.1,235.6 550.7,235.9 550.1,236
			549.6,235.9 549.1,235.7 548.7,235.4 548.7,235.1 548.7,234.7 548.7,233.9 548.8,233.8 548.7,233.7 548.3,233.5 548.1,233.4
			547.4,233.2 546.7,232.7 546.2,232.6 545.7,232.3 545.5,232.2 545.2,232.2 545,232.3 544.5,232.8 544,233.1 543.4,233.4
			542.8,233.4 542.3,233.1 539.9,229.3 539.2,229 539,228.3 538.4,227.9 534.2,227.6 532,227.9 531.6,228 531.2,228.3 530.8,229
			530.5,229.2 530.3,229.3 529.8,229.3 529.6,229.4 529.2,229.9 529,230.4 528.6,230.8 528.1,230.9 527.5,230.9 527.1,230.8
			526.6,230.5 526.1,230.2 525.6,229.6 525.5,229 525.4,228.4 525.3,227.5 524.9,226.9 524.5,226.5 524,226.3 523.5,226.2
			522.7,225.9 522.2,225 521,220.4 521,220 521.4,219.5 523.2,218.7 522.7,218 522.6,217.1 522.7,216.2 522.5,215.2 522.3,214.8
			522,214.6 521.4,214.2 521.1,213.9 521.1,213.5 521.1,213 521.1,212.5 520.9,212 520.4,211.4 520.2,210.9 520.2,210.3
			520.2,209.8 520.2,209.4 519.9,208.9 519.6,208.7 519,208.6 518.8,208.3 518.8,208 518.8,206.9 518.7,206.5 520,206.3
			520.3,205.9 520.5,205.3 520.3,204.8 519.9,204.6 519.4,204.5 518.6,204.4 517,204.8 516.2,204.7 515.5,204 515,202.8
			514.4,199.3 514.3,198.8 514,198.4 513.5,198.2 513,198.3 512.5,198.5 512.1,198.6 511.6,198.3 511.2,198.1 510.8,198.1
			509.7,198.8 507.7,199.6 506.1,200 504.4,199.9 503.9,199.7 503.6,199.4 503.4,198.8 503.2,198.2 503.1,197.7 502.8,197.4
			502,197.3 500.5,197.6 499.7,197.3 498,196.6 497.1,196.5 496.3,196.7 495.4,197.5 495,197.6 494.4,197.5 492.7,196.8
			494.1,195.8 495,194.8 495.6,193.5 495.4,192.2 494.9,192.5 494.5,192.5 494.1,192.4 493.7,192.2 493.4,192 492.9,191.5
			492.7,191.2 492.6,190.9 492.7,190.7 493.2,190.5 493.4,190.2 493.4,189.8 493.4,189.5 493.3,189.2 493.3,188.8 493.3,188.4
			493.5,187.7 493.6,187.3 493.5,186.5 493.3,185.8 493,185.3 492,184.1 491.8,183.8 491.8,183.5 491.6,182.7 491.5,182.4
			491.2,182.2 490.4,182 490.1,181.6 490.3,180.7 491.3,180.2 495.3,179.2 496.7,179.2 497.2,179.1 498.1,178 498.1,176.4
			497.4,174.9 496.5,174 496,173.6 495.2,172.7 494.8,172.4 494.5,172.4 494.1,172.7 493.8,172.5 493.8,172.4 493.7,171.9
			493.6,171.7 493.5,171.6 493.2,171.4 493,171.2 492.1,170.1 491.6,169.7 490.4,169.7 490.4,169.4 490.6,168.8 490.5,168.2
			490,167.3 489.7,166.7 489.6,165.9 489.5,164.7 489.4,164 489.4,163.8 489.8,162.9 489.8,162.5 489.8,162.1 489.6,161.8
			489.4,161.3 489,160.7 488.6,160.2 487.1,159.2 486.7,158.8 486.1,157.4 485.7,156.8 484.7,156.2 484.2,155.7 483.9,155
			483.7,154.5 483.4,154.1 482.8,153.9 481.7,153.9 480.7,154.1 478.6,155.1 476.9,156.8 476.4,156.8 476,156.2 476.1,154.7
			475.7,154.1 475.3,154.3 475,154.6 474.7,154.8 474.2,154.8 473.9,154.7 473.2,154.2 472.8,154.1 471.3,154.1 468.9,153.6
			468.6,153.7 468.2,154 467.6,154.7 467.3,155 466.9,155.2 466.6,155.4 466.3,155.9 466.2,156.1 466,156.2 465.7,156 465.4,156
			465,156.2 462.6,158.4 462.1,158.6 461.7,158.6 461,158 460.6,157.8 459.9,157.8 458.5,158.1 457.8,158.1 453.1,155.6 451.9,156
			449.9,155.2 448.9,155.4 448.6,156.8 448.7,157.2 449.2,158 449.2,158.3 449.1,158.8 448.8,159 448.5,159.2 448.3,159.4
			448.1,160.1 447.8,162.5 447.1,164 446,164.8 442.7,166.4 442.3,166.4 440.8,166 440,166.1 438.7,166.7 438.3,166.8 437.9,166.5
			437.8,165.9 437.8,165.2 437.7,164.6 437.1,164 436.3,163.9 434.9,164 432.1,164.2 428,163.4 425.8,163.4 423.9,164.1
			423.4,164.7 423,165.5 422.6,166.2 422.1,166.4 421.5,166.2 420.4,165.3 419.8,164.9 418.9,164.8 415.6,165 415,165.2
			414.7,165.6 414.8,166.3 414.7,166.5 414.7,166.7 414.6,166.8 414.5,167 415.2,167.1 415.5,167.7 415.3,168.2 414.6,168.2
			414.5,168 414.3,167.9 414.2,168 414,168.2 413.8,168.4 413.7,168.6 413.7,168.9 413.5,169.3 413.2,169.6 412.9,169.8 412.6,170
			412,170.3 412,170.4 412,170.6 412.1,170.8 412.1,171.1 411.8,171.5 411.6,171.8 411.4,171.8 410.7,171.8 410.5,171.8
			410.4,172.1 410.4,172.4 410.3,172.8 409.9,173 409.7,173.3 409.6,173.6 409.5,173.7 409.4,173.8 408.9,174.5 408.7,174.8
			408.7,174.9 408.7,175 408.8,175.4 408.9,176 408.4,176.4 407.9,176.8 407.6,177.1 408.1,177.4 408.3,177.4 408.3,177.7 408,178
			407.9,178.4 407.9,178.9 407.7,179.3 407.5,179.4 406.7,179.4 406.4,179.5 406.6,180 406.3,180.8 406.4,181.4 406.3,181.5
			406.1,181.8 406,181.9 406,182.1 406.1,182.4 405.8,182.6 405.1,183.2 405.1,183.5 405.6,183.8 405.8,184 405.8,184.2
			405.6,184.3 405.5,184.3 405.4,184.4 405.3,184.5 405.3,184.7 405.6,185.1 406.3,185.3 406.7,185.5 406.6,186 406.4,186.2
			406.2,186.3 406.5,186.5 406.8,186.8 406.9,187.1 406.7,187.4 406.8,187.8 407,188.1 407.2,188.3 407.5,188.4 407.5,188.7
			407.1,188.6 406.9,188.7 406.7,189 406.6,189.5 406.7,189.9 406.9,190 407.1,190 407.4,190.2 407.5,190.4 407.8,191.5
			407.9,191.7 408.1,192 408.1,192.2 407.8,192.3 408,193.4 407.3,194 406.6,194.6 406.5,195.2 406.1,195.9 406,196 406,196.9
			405.9,197.1 405.6,197.2 405.4,196.8 405.2,196.5 404.9,196.3 404.5,196.2 404.2,196.3 403.9,196.1 403.3,195.3 403,195
			402.6,194.9 401.9,194.9 401.5,194.8 401.2,194.5 400.5,193.6 400.3,193.2 400.4,193.1 400.6,192.4 400.6,192.1 400.6,191.7
			400.6,191.4 400.5,191.1 400.3,191 400,190.7 398.8,190.1 398.5,189.7 397.6,188.5 396.9,188 396.2,187.8 392.9,187.9 392.3,188
			390.9,188.8 390.6,188.8 390.2,188.5 390,188.5 389.7,188.7 389.3,189.4 389,189.7 388.6,189.8 386.5,189.5 386.2,189
			385.9,188.5 385.6,187.8 385.1,187.5 384.6,187.4 384.1,187.5 383.6,187.7 383.1,188.1 382.9,188.6 382.5,189 382,189.2
			381.3,189.2 381,189.4 380.8,189.9 380.4,190.8 380.1,191.4 379.6,191.4 378.5,191 378,191.2 377.1,192 376.6,192.2 376,191.9
			375.7,191.2 375.5,190.4 375.3,189.6 374.8,189 374.4,188.7 374.2,188.3 374.5,187.3 374.4,186.3 374.1,185.7 373.3,184.5
			372.8,183.1 372.5,182.6 371.9,182.3 370.9,182 370.5,182.1 370,182.3 369.5,182.7 368.9,183.9 368.5,184.4 367.9,184.7
			366.4,184.7 365.7,184.8 364.9,185.3 364.2,185.9 363.5,186.7 363.1,187.7 363,188.3 363.1,189.8 362.9,190.4 362.5,190.8
			362.3,190.4 362.1,189.7 361.9,189.2 361.6,189.2 361.3,189.4 361,189.6 360.6,189.4 360.3,189 360.2,188.5 359.8,186.3
			359.8,185.5 359.5,185 358.9,184.8 356.8,184.4 356.1,184.4 355.5,184.6 354.3,185.4 353.7,186 353.4,186.2 353.1,186
			352.9,185.7 352.6,184.7 352.5,184.3 352.2,184 351.5,183.5 351.2,183.2 351,182.8 351,182.5 351,182.1 350.9,181.7 350.5,181.4
			350,181.3 349.5,181.6 349,182 348.5,182.8 347.7,184.2 347.2,184.7 346.7,184.9 344.4,184.9 343.9,184.8 343.5,184.6 342,183
			341.5,182.7 341,182.8 340.5,183.2 340.2,183.9 340.1,184.7 340.1,185.1 340.1,185.6 340.1,186 340,186.5 339.9,186.8
			338.8,188.3 338.5,188.5 338.2,188.6 337.8,188.4 337.4,188.1 337.1,187.7 337,187.4 337.7,185.5 337.9,184.6 337.6,183.8
			337.2,183.5 335.9,183.5 333.3,182.5 332.5,182.4 332,182.7 331.3,183.4 330.8,183.7 330.4,183.7 328.9,183.5 328,183.8
			327.5,183.8 327.2,183.5 327.3,182.9 327.7,182 327.7,181.4 327,181.2 326.5,181.2 326,181.2 325.6,180.8 325.5,180.1
			325.5,179.1 325.5,178.3 325.4,177.7 324.7,177.3 323.8,177.1 321.7,177 319.3,177.8 317.7,177.6 313.1,175.6 307.9,175.4
			307.6,175.2 307.3,174.8 307.2,174.4 307.3,174.1 307.3,173.8 307,173.6 301.4,173.4 300.7,173.1 299.2,171.7 298.5,171.5
			296.8,171.6 291.7,170.6 289.7,171 281.8,170.9 277.8,169.8 276.7,169.9 275.6,170.2 273.5,171.4 266.8,172.4 266.3,172.4
			264.8,172.1 258.9,172.5 258.4,172.7 257.9,173.3 257,174.5 256.6,175.3 256.1,177.8 255.4,178.8 252.7,180.6 249.1,183.8
			248.2,184 247.5,183.4 246.8,182.6 245.9,182.2 245.3,182.1 243.6,181.6 243,181.6 240.7,182.2 240.4,182.3 240.2,182.6
			239.9,183.1 239.8,183.4 240,183.7 240.6,185.5 240.7,185.9 240.6,186.5 240.4,186.6 240.2,186.5 240.2,186.7 240.3,187.2
			241,187.5 241.4,187.6 241.7,187.9 241.4,188.6 241.4,188.9 242.3,190.3 242.5,190.8 242.3,190.9 242.1,191.2 242,191.6
			242.2,192.1 241.7,192.2 241.3,192.7 241,193.3 240.9,193.8 241,194.6 241.4,194.8 241.8,194.8 242.2,195.1 243.5,198
			244.1,198.6 245.3,199.4 246.4,200.6 246.7,201 246.3,201.2 246.2,201.6 246.6,202.3 247.2,203.3 247.4,203.8 247.7,205.4
			247.7,205.6 247.6,205.9 247.8,206.1 248.1,206.2 248.4,206.4 248.6,206.8 248.7,207.1 248.7,207.4 248.9,207.9 249.2,208.5
			250.8,210 252.8,211.1 253.1,211.6 252.8,212.3 252.1,212.4 251.3,212.4 250.8,212.6 250.2,212.3 249.5,212.3 249,212.8
			248.7,213.4 248.7,214.1 249.1,214.6 249.7,214.9 250.3,215 250.3,215.2 250,215.9 250.4,216.5 251,216.8 251.6,217 251.5,217.9
			251.7,218.6 252.3,220.1 251.7,221.1 252,222.8 252.1,223.4 252.2,223.5 252.2,223.6 251.9,224 251.5,224.5 249.9,225.3
			249.9,225.7 249.9,226.4 249.9,226.9 249.7,227.3 249.2,228.5 248,229.1 243.6,229.1 242.8,229.4 242.4,229.6 242.1,230
			241.8,230.5 241.5,231.5 241.1,232 239.3,234.1 238.6,234.6 237.3,235.6 236.2,236.5 230.7,242.4 230,243.5 229.1,244.2
			228.2,245.2 225.6,249 224.6,250.1 224.5,250.3 224.3,251.1 224.2,251.4 224,251.6 223.6,251.7 223.4,251.9 223.1,252.2
			221.6,254.8 221.3,255.2 221,255.4 220.5,255.5 220.2,255.7 220,256.1 219.6,257.2 217.8,259.6 217.2,261.1 217.7,262.4
			217.8,262.9 218,264.5 218,264.9 218.1,265.1 218.4,265.6 218.9,266.2 219.1,266.4 219.2,267 219.5,270.4 219.4,270.9 219,272
			218.7,273.3 218.3,274.1 218.2,274.5 218.3,274.7 218.4,274.6 218.8,274.2 219.1,274.5 219.1,274.5 219,274.5 219.8,275.1
			220.5,276 220.9,276.3 222,276.9 222.3,277.3 222.3,277.6 222.1,278.3 222.1,278.8 222.2,279.1 222.5,279.8 222.6,280
			222.4,280.5 221.9,280.3 221.3,279.8 220.9,279.6 220.7,279.5 220.2,278.9 220,278.7 219.7,278.6 219.2,278.8 218.3,278.8
			217.8,278.8 217.3,278.8 216.7,278.4 215.8,277.4 215.3,277.2 214.8,277.7 214.6,278.3 214.4,279.1 214.3,280 214.3,280.6
			213.9,280.9 213,281.1 212.6,281.4 212.1,282.9 211.8,283.6 211.7,283.7 211.7,284.2 211.7,284.4 211.5,284.8 210.9,285.2
			210.7,285.6 210.5,286 210.5,286.3 210.5,286.6 210.6,287.8 210.5,288.1 210.4,288.5 210.2,288.8 209.9,289 209.8,289.2
			209.7,289.7 209.7,290.5 209.6,291.2 209.3,291.9 208.9,292.4 208.6,292.6 207.9,292.8 207.6,293 207.5,293.2 207.2,293.8
			207.1,294.1 205.5,295.3 205.1,295.9 205.1,296.6 205.2,297 628.2,297 628,296.3 627.6,295.7 626.9,295.3 624.1,295 623.6,295.1
			622.7,295.2 622.9,294.3 624.4,289.4 624.6,289.1 625.2,288.9 625.4,288.6 625.5,288.1 625.7,287.8 626.2,287.2 626.7,286.9
			627.3,286.9 629.9,288 630.9,287.8 631.9,287 632.4,286.4 632.7,285.7 632.7,285 632.2,284.4 631.6,284.3 631.2,284.8
			630.7,285.3 630.2,285.6 629.9,285.5 629.5,284.9 629.2,284.6 629,284.6 628.1,284.7 626.2,284.3 625.7,284 625.4,283.7
			625.2,283.2 624.9,282.5 624.5,282.1 624,281.8 623.7,281.3 623.8,279.5 624.3,279.2 625.5,279.3 627.4,278.6 628.2,278.6
			628.9,278.7 629.2,278.7 629.5,278.5 629.6,278.1 629.6,277 629.7,276.4 630.2,275.6 630.9,275 632.3,274 632.7,273.5
			633.5,272.2 634,271.8 634.5,271.5 634.7,271.2 634.7,269.9 635.1,268.6 635.1,268 634.8,267.4 		"/>
		<polygon fill="#FFD500" points="465.7,385.1 465.4,384.7 464.3,384.7 464.1,384.5 463.9,384.1 463.3,384.2 462.3,384.7
			461.5,384.1 460.8,384.1 459.2,384.4 455.8,383.9 455.5,383.7 455.4,383.7 455.2,383.9 465.3,385.5 		"/>
		<polygon fill="#FFD500" points="390.8,396.5 390.4,396.8 389.7,397.6 389.3,397.9 389,398 388.6,398.1 388.3,398.2 388.2,398.5
			388,398.8 387.5,399.2 386.3,399.9 388.2,399.1 390.6,397.3 396.1,392.1 394.5,393 		"/>
		<polygon fill="#FFD500" points="429.7,376.3 430.5,376.9 434.2,378.4 442.9,380.2 443.9,380.7 444.4,380.8 444.1,380.6
			442.2,379.8 439,379 431.4,377.1 430.4,376.6 429.8,375.8 429.5,374.8 429.1,373.3 428.7,373.2 428.7,373.8 428.9,374.7
			429.1,375.2 		"/>
		<polygon fill="#FFD500" points="205.4,298 205.3,298.6 205,299.2 205,301.8 205.5,301.9 205.6,301.9 205.8,301.6 206.6,301.3
			207.4,301.4 208.3,301.8 207.9,302.9 207.9,303.5 208.6,303.4 208.7,303.5 208.9,303.8 208.9,304.1 208.9,304.6 208.9,305.1
			209.2,305.8 210.3,307.6 210.5,307.7 210.7,307.8 210.8,307.7 211,307.6 211.1,307.5 211.3,307.5 211.8,307.7 212.2,307.8
			212.5,307.8 213,307.5 213.1,307.5 213.2,307.6 213.2,307.6 215,309.9 215.3,310.6 215.6,311.8 216.1,312.6 216.2,312.8
			216.2,312.8 216.6,312.6 218.3,312.6 218.7,312.4 219.1,312.2 219.5,312.1 219.9,312.3 220,312.5 220.9,313 221.6,313.6
			221.9,314 222.2,314.5 222.4,315.1 222.3,315.5 222.1,315.8 222.1,316.4 221.7,316.9 221.9,317.3 222.8,318.1 223.2,317.9
			223.7,317.6 223.8,317.1 223.6,316.4 223.8,316 224.2,315.9 224.6,316.1 224.9,316.4 225.3,316.6 225.7,316.8 226.1,316.7
			227.1,315.9 227.5,315.3 228,313.6 228.5,312.9 229,312.7 229.5,312.8 231.2,313.3 231.6,313.6 232.6,314.8 233.7,315.8
			234.2,316.4 234.4,316.5 234.6,316.5 234.8,316.5 235,316.4 235.1,316.4 236.6,317.2 237.1,317.2 237.3,317.1 237.5,316.9
			237.6,316.7 237.7,316.4 237.9,316.2 238.2,316.1 239.1,316 239.6,316.1 241.1,316.3 242.1,316.6 242.6,316.7 244.3,316.6
			244.7,316.8 245.9,317.9 246.1,318.5 246.6,318.5 249,317.5 249.7,317.5 250.1,317.8 251.3,318.1 251.8,318.4 252.7,319.2
			253.1,319.3 253.1,319.3 254.5,319.8 255,319.8 256.7,319 257.9,318.9 258.8,318.1 259.4,317.8 259.8,317.8 261.1,318.1
			262.5,318.1 263,318.2 264.1,318.9 264.7,319.4 265,319.9 265.2,320.4 265.2,320.9 265.3,321.4 265.7,321.8 266.6,322.3
			268.5,323.1 268.8,323.4 269.1,323.8 269.9,325.3 270.5,326.1 270.9,326.4 273.8,325.9 275.2,325.3 276.2,324.3 278.6,320.5
			279.6,319.8 291.3,318.5 292.9,317.9 294.1,317.7 294.8,317.4 295.2,317.3 296.4,317.4 297.9,317 300.2,316.9 301.4,316.4
			301.6,316.1 302.1,314.8 302.4,314.5 303.1,313.9 303.4,313.6 303.7,312.8 304.1,311.7 304.3,310.6 304.3,309.8 304.5,308.6
			304.7,308.7 305.1,308.7 305.6,308.6 306.4,308.2 306.7,308.1 307.9,308 308.3,307.9 311.3,307.3 312,306.9 312,306.6
			312.1,306.2 312.4,305.8 313.2,305.2 313.3,304.8 313.4,304.5 313.9,304.6 314.2,305 314.5,305.5 314.8,305.9 315.3,306.1
			315.8,306 316,305.8 316.1,305.3 316.1,304.6 316,303.9 315.8,303.5 315.8,303.2 316,302.8 316.2,302.8 316.6,303 316.8,303
			317,302.8 317,302.5 317.1,302.3 317.4,302.2 318.2,302.6 319,303.2 319.8,303.7 320.7,303.6 320.9,303.3 321.1,303.4
			321.3,303.4 321.5,303.4 321.8,303.5 322,303.4 321.9,303.2 321.8,303 321.8,302.8 321.8,302.6 321.7,302.3 321.8,302 322,301.9
			322.3,302 322.8,302.3 325.3,303.3 326.1,303.3 327,302.8 328.5,301 329.3,300.6 329.8,300.7 330.5,301.3 330.8,301.5
			331.2,301.3 332.6,300 333.2,299.3 334.2,299.3 334.4,299.2 335.1,298.8 335.6,298.9 335.6,299.8 336.1,300 339.1,300
			339.9,300.4 341.4,301.5 341.8,301.8 342.5,303 342.7,303.1 343.3,304 344.2,304.3 346.3,304.6 346.8,304.9 347.2,305.3
			347.3,305.9 346.9,307.3 347.2,307.6 347.7,307.6 348.1,307.6 348.8,306.9 349.2,306.9 349.4,307.5 349.5,308.2 349.7,308.6
			350.1,308.7 350.7,308.6 351.2,308.3 351.6,307.9 352,307.7 353.1,307.6 353.5,307.6 353.8,307.9 353.8,308.6 353.6,309.3
			353.4,309.7 353,309.9 352.7,310.3 352.5,310.8 352.6,311.3 352.9,311.6 353.4,311.5 353.7,311.1 353.9,310.6 354.2,310.2
			354.8,310.1 355.1,310.3 355.4,310.8 355.3,311.4 355,311.8 355.6,313.2 355.9,313.5 356.4,313.9 356.7,313.8 356.8,313.5
			356.8,312.9 356.9,312.1 357.4,310.9 357.9,310.6 358.7,310.6 360.9,311.5 362.5,311.6 363.4,311.7 364.1,312.2 364.2,312.4
			364.3,312.7 364.3,313 364.4,313.2 364.8,314.1 364.9,315.1 365,315.3 365.1,315.5 365.5,315.9 366.1,317 366.9,317.8
			367.8,318.5 368.5,318.8 369.4,318.6 370.4,317.2 371.2,316.9 371.6,316.9 371.9,317 372.2,317.3 372.5,317.7 372.7,318.3
			372.9,319.5 373,320 373.4,320.3 374.3,320.6 374.5,320.8 374.5,321.2 374.1,321.7 373.6,322.2 373.3,322.6 373.1,323.2
			373.1,323.6 373.4,323.9 374.2,324.2 374.5,324.4 374.6,324.8 374.3,325.3 373.6,326.2 373.5,327.3 373.5,328.6 373.3,329.9
			372.6,331 372,331.8 371.7,332.7 372,334.1 372.2,334.6 372.6,335.6 372.8,336 373.2,336.3 373.4,336.1 373.6,335.8 374,335.6
			374.4,335.8 374.8,336.5 375.5,337 375.7,337.3 375.8,337.8 376,338.1 376.4,338.3 376.8,338.4 377.1,338.6 377.4,339
			377.5,339.6 377.5,340.1 377.6,340.6 377.9,341.1 378.3,341.4 378.6,341.6 379,341.6 379.4,341.5 379.8,341.1 380.2,340.7
			380.3,340.1 380.5,339.6 381,339.5 381.5,339.6 381.9,339.7 382.3,340.1 382.6,340.7 382.9,341.5 382.9,342.3 382.6,342.9
			382,343.2 381.9,344 382.2,345.8 382,346.7 381.7,347.1 381.2,347.2 380.5,347.3 380.5,347.4 380.5,347.6 380.5,347.8
			381.2,349.1 381.4,349.3 381.7,349.1 381.9,348.7 382.2,348.3 382.6,348.3 383,348.5 383.2,348.8 383.4,349.3 383.5,349.9
			383.3,350.3 383,350.7 382.7,351.1 382.5,352.3 382.4,352.9 382.4,353.3 382.6,353.7 382.7,353.8 383.3,353.7 383.5,353.8
			383.9,354.2 384.1,354.4 384.5,354.6 385.3,354.6 385.6,354.8 386,355.2 386.6,356.1 387,356.4 387.8,356.5 388.5,356.5
			389.2,356.5 389.8,357.1 390,357.4 390.1,358 390.3,358.2 390.5,358.2 390.7,358 390.9,358 391.2,358.1 391.3,358.3 391.3,359.1
			391.3,359.4 391.4,359.7 391.6,360.2 391.8,360.4 391.8,361.1 391.6,363.2 391.5,363.6 391.4,364 391.3,364.3 391.3,364.7
			391.4,365.1 391.7,365.8 391.7,366.1 391.5,366.9 390.9,367 390.5,367 390.6,367.8 390.9,368.2 392,368.7 392,368.8 392.1,369.1
			392.2,369.1 392.4,369.1 392.7,368.9 392.8,368.9 393,369.1 393.1,369.3 393.4,369.9 393.3,370.2 394.3,371 394.7,371.5
			395,371.3 395.3,371.2 395.7,371.3 396.1,371.5 395.5,372.6 394.9,373.2 393.8,373.3 391,373.2 390.6,373.3 390.2,373.5
			389.3,374.3 388.8,374.3 388.3,373.8 388.3,373.6 388.3,372.9 388.2,372.6 388.1,372.3 387.6,371.5 386.3,370.3 386,369.7
			386,370.7 385.8,371.2 385.3,371.4 384.6,371.4 384.5,371.6 384.6,372.4 384.4,373 384.1,373.3 383.7,373.5 383.3,373.5
			382.9,373.3 382.6,372.8 382.3,372.1 381.9,371.8 381.6,371.6 380.8,371.5 380.5,371.3 380.3,371.1 380.3,370.8 380.3,370.6
			380.5,370.3 380.6,370 380.6,369.8 380.6,369.6 380.5,369.4 379.9,369.3 379.4,369.5 379,370 377.9,371.6 377.6,371.6 377.2,371
			376.6,369.8 376.3,369.7 375.9,370.4 375.8,370.8 375.9,371.5 375.9,371.8 375.7,372.3 375.6,372.3 375.4,372.3 375.1,372.4
			374.2,373.3 373.7,373.6 373.3,373.3 373.3,373 373.4,372.6 373.6,372.3 373.8,372 373.9,371.5 373.8,368.6 373.7,367.9
			373.3,367.4 372.8,367.4 370.7,368.6 369.4,369.1 367.6,370.3 367.1,371 367,372 367.2,373.3 367.6,374.9 367.6,375.4
			367.5,376.1 367.3,376.6 367.3,377.1 367.7,377.6 369.1,378.9 369.2,379.7 369,380.5 368.4,381.4 367.6,382.3 367.4,382.9
			367.5,383.7 367.9,385.2 367.9,385.9 367.3,386.2 363.1,387.3 362.7,387.5 362.4,388 362.4,388.6 362.7,389.8 362.8,390.4
			362.8,391.1 362.6,391.6 362.3,391.9 361.9,392.2 361.2,392.3 361,392.5 361,392.7 361.1,393 361.1,393.3 361,393.7 360.4,394
			358.8,394.2 358.4,394.8 358.6,395.4 358.4,395.7 357.7,395.9 357.3,396.2 357.1,396.4 356.5,397.3 356.3,397.7 356.5,397.9
			356.9,398.1 357.2,398.5 357.4,398.9 357.4,399.4 357.5,399.9 357.8,400.3 357.2,400.6 357,400.8 356.9,401.1 356.9,401.2
			356.9,401.2 357.1,402.4 357,402.7 356.5,403 354.9,402.9 353.1,402.4 351.4,402.3 350.2,403.3 349.9,403.7 349.8,404.1
			349.7,404.3 350,404.7 350.6,404.7 351.3,405.1 351.8,405.7 351.7,406.3 352.4,408.2 352.8,409 353.4,409.4 353.8,409.5
			354.6,410 356.7,410.5 358.7,411.6 361.9,412.3 362.8,412.2 363.5,412.1 363.8,412 364.1,411.7 363.4,411.4 363.3,411.3
			363.1,411 363.1,410.7 363.1,410.5 363.8,410.1 363.8,409.6 363.8,409.1 364.5,409 364.8,409.1 365.5,409.6 366,409.6
			366.3,409.9 366.7,410.3 367.2,410.5 367.7,410.3 367.8,410.1 367.9,409.4 368,409.1 368.2,409 368.4,409 369,408.9 369.3,408.7
			370.5,407.7 371.5,407.4 372,407.2 372.3,406.9 372.5,406.8 373,406.8 373.2,406.7 373.3,406.4 373.5,406.2 373.8,405.9
			374.3,405.6 374.7,405.6 375.1,405.7 375.6,405.7 375.8,405.6 376,405.4 376.2,405.3 376.4,405.1 376.6,404.9 376.9,405
			377.1,405.1 377.4,405.2 379.2,405.4 382.5,406.6 383.6,407.6 383.9,407.7 384.4,408.2 384.8,409.4 385,410.7 384.7,411.7
			384.8,411.9 384.8,412.1 384.8,412.4 384.7,412.6 385,412.7 385.4,412.6 385.8,412.4 386.3,411.9 386.3,411.9 386.3,411.8
			386.2,411.6 386.3,411.2 386.6,410.4 386.6,410.1 386.8,409.6 386.9,409.3 386.9,409 386.8,407.6 386.8,406.9 386.6,406.3
			386.2,405.9 386.7,405.9 387,405.5 386.9,404.8 386.8,404.3 386.4,403.9 386.2,404.2 386.1,404.7 385.9,405.2 385.8,404.7
			385.7,404.5 385.5,404.6 385.3,404.5 385.3,404.6 385.2,404.8 385,404.8 385,404.6 385,403.9 384.6,403.9 384.5,404.3
			384.6,404.7 384.5,405 384.2,405 383.9,404.8 383.7,404.6 383.4,403.8 383.4,403.5 383.7,403.3 383.9,403.2 384,402.9
			384.1,402.5 384.4,402.4 384.7,402.1 385.5,400.9 385.8,400.5 385.2,401.1 384.8,401.4 384.4,401.5 383.9,401.4 383.6,401.3
			383,401 383.2,399.5 383.1,397.8 383.3,396.5 384.1,395.8 383.9,395.5 383.8,395.2 383.7,394.9 383.8,394.4 383.9,394
			384.3,393.4 384.4,393.1 384.3,393 384,392.5 383.9,392.3 384,392 384.1,391.9 384.2,391.8 384.3,392.1 384.5,392.3 385,392.7
			385.1,392.7 385.1,392.8 385.3,393 385.5,393.4 385.4,393.6 385.3,393.9 385.1,394.4 385.3,396 385.2,396.3 385.8,396.6
			386.2,397.3 386.5,398.2 386.5,399.1 386.8,398.8 387.4,398.6 387.8,398.4 387.7,398.1 387.7,398 387.7,398 387.8,397.8
			388.3,398 388.7,397.8 389,397.5 389.5,397.3 389.6,397.2 389.4,396.9 389,396.6 388.4,396.3 388.1,396.1 387.9,395.7 388,395
			388.6,394.6 389.2,394.5 389.8,394.5 389.8,394.4 389.9,394.3 389.9,394.1 390.1,394.1 390.3,394.1 390.3,394.3 390.3,394.4
			390.4,394.5 390.9,394.9 391,395.1 391.2,395.5 391.3,394.5 391.1,394.3 390.9,393.9 390.8,393.4 390.8,392.9 391,392.4
			391.2,392.3 391.3,392.5 391.2,392.9 391.2,393.1 391.4,393.4 391.6,393.8 391.8,393 391.8,392.2 392,391.5 392.5,391.2
			393.1,391.5 394.2,392.4 394.4,392.2 394.5,392.1 394.6,392.2 394.8,392.3 394.9,392.3 395,392.3 395.1,392.2 395.1,392
			395.2,391.8 395.2,391.6 395.3,390.7 395.4,390.3 395.6,389.9 395.8,389.7 396,389.8 396.1,391.7 396.1,392.1 397.6,390.9
			399,389.5 401.6,386 404.5,383.2 404.8,382.7 405.2,381.4 405.4,381.1 405.8,380.9 406.2,380.4 406.7,379.4 408.4,377 409,375.7
			409.2,375.3 409.2,374.9 409,374.7 408.4,374.3 408.3,374.1 408.6,373.7 409.9,373.8 410.3,373.4 411.3,372.1 411.4,371.9
			411.6,370.9 411.7,370.7 411.7,370.5 411.8,370.5 411.9,370.4 411.8,370.2 411.6,370 411.5,370 411.4,369.3 411,368.4 410.9,368
			411,367.7 411.7,366.7 412,366.4 412.3,366.4 413.3,366.7 413.6,366.6 415,365.6 415.3,365.5 415.6,365.6 415.8,365.6
			416.4,365.1 416.6,365 417.1,364.9 418.1,364.6 419.4,364.4 420.6,364 421.3,364 422.9,364.5 423.4,364.8 423.6,364.5
			423.9,364.7 424.5,364.8 424.9,365 425.2,364.7 426.2,364.2 426.7,364 427,363.7 427.8,362.5 428.2,362.2 428.2,362 428.7,361.3
			428.8,360.9 428.8,360.7 428,360.1 427.8,359.9 427.6,359.7 427.6,359.2 427.6,359 427.3,358.1 427.6,358.3 427.9,358.7
			428.3,359.6 428.6,359.9 428.9,360.1 429.2,360 429.3,359.9 429.3,359.8 429.7,359.1 429.9,358.9 430.1,358.8 430.5,358.6
			430.7,358.4 430.9,358 431,357.5 431.2,357.3 431.5,357.7 430.4,359.4 430.1,359.7 430.1,360 429.8,360.7 428.5,363 428.2,363.6
			428.3,364 428.5,364.2 428.8,364.2 429.3,364.2 429.5,364.2 429.8,364.6 430,364.7 430.6,364.6 430.8,364.2 431,363.7
			431.4,363.5 432.8,363.4 435.1,364.3 436.2,364.4 437.2,364.2 437.5,364 438,363.7 438.2,363.5 438.4,363 438.4,362.8
			438.3,362.5 438.2,361.9 438.4,360.4 438.3,360.2 437.4,359 437.4,358 437.7,357.3 438.2,356.8 438.8,356.6 439.3,356.2
			439.7,355.3 439.9,354.3 439.9,353.5 439.3,353.8 438.8,354 438.4,353.9 438.2,353.3 438.3,352.7 438.6,352.2 439.3,351.4
			438.5,351.2 437.5,351.4 436.7,351 436.9,349.4 437.1,349.2 437.4,348.6 437.6,348.1 437.3,347.8 437.2,347.7 437,347.6
			436.9,347.4 436.3,347.2 436.1,347.1 436.2,345 435.9,344.6 434.9,344.3 434.4,344 434,343.6 433.9,343.3 433.9,343.1
			434.3,342.4 434.4,342.3 434.6,342.4 434.6,342.7 434.5,343.4 434.7,343.8 436.2,344.5 436.5,344.9 436.6,345.2 436.6,345.5
			436.7,346.2 436.9,346.7 437.1,346.9 437.4,347 437.7,347.3 438.1,348.2 438,349 437.3,350.5 437.7,350.9 438.1,350.9
			439.2,350.8 439.9,350.8 440,351.1 439.8,351.4 439.1,352.5 439,353 439.3,353.3 440.5,353.5 440.7,353.8 440.7,354.4 440.6,355
			440.1,356.3 439.5,357.3 439,358.4 439.1,359.8 439.3,360.4 439.6,360.9 439.8,361.4 439.9,362.1 440,362.6 440.3,363.3
			440.7,363.9 441.1,364.3 441.4,364.5 442.9,364.8 443.3,365.1 443.6,366.3 444,366.7 444.5,366 444.8,365.9 445.3,365.8
			445.5,365.7 445.8,365.6 446.2,365.1 446.4,365 446.5,365.1 446.9,365.7 448.5,366.6 450.2,366.4 453.4,364.5 454,364.6
			454.7,364.3 455.3,363.8 455.9,363.6 455.6,364.1 455.3,364.5 454.9,364.7 454.6,365.1 454.1,365.4 453,365.5 452.6,365.8
			450.9,367.2 450.2,368.1 450.7,368.8 450,369.4 449.1,369.8 448.1,369.9 447.1,369.7 445.8,368.8 443.2,368.2 442.7,368.2
			441.3,368.5 439.3,368 437.2,368 436.9,367.9 435.5,367.1 434.7,366.8 430.6,367.2 430.2,367 429.6,366.3 428.8,365.7
			429.2,366.5 432,369.4 432.3,369.5 432.5,369.7 433,371.1 433,370 433,369.7 433.1,369.4 433.3,369.3 433.6,368.9 434,368.7
			434.5,368.7 435.1,368.9 438.4,370.3 439.5,370.4 440.4,370.3 440.8,370.5 441.8,372 442,372.4 441.9,372.5 441.5,372.5
			441.2,372.6 440,373.7 439.8,373.9 438,374.2 436.6,373.9 436.1,374 435.7,374.2 435.3,374.5 435,375 435.1,375.5 435.4,375.9
			435.8,376.1 436.2,376.3 437.7,376.3 437.9,376.2 437.8,375.8 437.7,375.4 437.8,374.9 439.8,376.5 441,377.1 441.8,376.8
			442.4,377.4 443.3,378.6 443.6,378.7 444,378.8 445,379.2 445.6,379.3 446.3,379.3 447,378.9 446.9,379.3 446.8,379.5
			446.3,379.9 446.5,380.1 446.5,380.6 446.6,380.8 446.7,381 446.7,381.4 446.8,381.5 446.9,381.6 447.2,381.6 447.7,381.9
			452.5,383.3 453.5,383.2 453.7,383 454,382.6 454.3,382.4 454.5,382.3 457.5,381.8 458.4,381.4 458.8,381.3 459.4,381.3
			460.6,381.8 460.9,381.8 461.4,381.8 461.6,381.8 461.8,382 462,382 462.3,382 464.8,381.6 465.1,381.1 464.9,380.1 466.3,380.8
			466.9,381.2 467.1,381.3 467.3,381.3 467.6,381.1 467.8,381.1 468.6,380.7 469,379.8 469.4,378.9 470,378.3 469.7,380.7
			469.6,381.1 469.5,381.5 471.4,381.3 471.9,381.4 472,381.8 471.7,382.3 471.3,382.7 471.4,382.7 471.6,382.7 471.7,382.8
			471.8,382.9 472.3,382.3 472.9,382.4 473.5,382.9 474.3,384 474.5,384.1 475.9,384.1 476.5,384.4 476.7,384.4 476.2,383.6
			476.5,383.2 477.1,383 477.7,383 477.7,382.7 477.1,382.3 477.1,381.8 477.5,381.3 478,380.8 478.6,380.6 479,381 479.7,382.4
			479.8,382.9 479.6,383.3 479.4,383.7 479.4,384.1 479.7,385.2 479.7,385.5 479.5,385.8 479.4,386.1 479.5,386.4 479.7,386.5
			479.7,386.6 479.5,387 479,387.6 479.3,387.8 479.5,387.7 479.7,387.5 479.9,387.4 480.5,387.4 481.9,387.7 482.3,388
			482.8,388.3 482.3,388.6 481.5,388.8 481.1,389 480.8,388.9 480.7,389.5 480.8,390.3 480.7,390.7 480.2,390.8 480,390.7
			479.8,390.6 479.8,390.4 479.5,390.2 479.3,390.1 479,390 478.8,390 478.5,390.1 478,390.5 477.5,391.2 476.9,391.4 476.7,391.4
			476.4,391.3 475.9,391 475.7,391 475.4,391.1 474.4,391.8 474,391.9 473.3,392.7 473.2,392.9 472.3,393.3 470.6,394.4
			469.7,394.5 468.9,394 468.5,393.5 468.3,393.3 468.1,393.5 468.1,393.8 468.2,394 468.5,394.2 468.6,394.3 468.5,394.7
			468.2,394.9 462.7,397.5 461.1,398.6 460.4,399.3 460.2,399.6 460.1,399.7 460.1,400 460.1,400.3 460.2,400.6 460.2,400.9
			459.8,401 459.6,401 459.1,400.8 458.9,400.8 458.5,400.9 458.3,401 458.2,401.3 458,401.5 457.6,401.8 457.3,402 456.8,402.1
			456.3,402.2 455.8,402.3 453,404.5 452.3,405.2 451.9,406.1 452,406.6 452.7,408.4 453.2,408.5 454.1,409 454.6,409.1
			456.3,409.1 456.7,408.9 457.5,408 457.9,407.8 458.4,407.7 462,408 463,408.4 463.8,408.9 465.4,410.3 465.6,410.4 466,410.6
			466.2,410.7 466.5,411.2 466.7,411.5 467.3,411.9 468.1,412.9 468.5,413.3 469.6,413.6 470.1,413.8 470.3,414.3 470.5,414.7
			471.1,414.5 471.9,414 472.8,413.7 473.8,413.5 474.2,413.7 475.5,414.9 477.2,415.9 477.8,416.7 478.2,418.1 478.3,419
			478.3,419.3 478.8,420.1 478.8,420.3 478.9,420.9 479.2,422.2 479.2,423 479.1,423.6 478.9,424.2 478.7,424.6 477.7,424.9
			477.4,425.4 477.2,426 477.1,426.7 477,426.8 476.9,427 476.7,427.1 476.9,427.5 477.1,428 477.2,429 477.4,429.7 477.5,430
			477.4,430.6 477.2,430.9 476.9,431.3 476.7,431.7 476.7,432.2 476.9,432.4 477.7,432.5 478,432.7 477.5,432.9 476.3,432.9
			476,433 475.8,433.1 475.5,433.2 475,433.1 474.8,433.2 474.3,433.6 474.1,433.7 473.3,433.8 473.2,433.7 473.3,434.1
			473.5,434.5 476,436.3 476.3,436.6 476.7,437 477.2,436.9 477.7,436.8 478.2,436.8 478.4,437 479.2,437.9 479.3,438.2
			479.5,438.9 479.8,439.2 481.6,440 482.1,440.1 483.7,440.2 483.9,440.1 484.4,440 484.7,440 486.2,440.6 486.7,440.7
			487.2,440.6 489.8,439.4 490.3,439.3 490.7,439.2 491.5,438.6 491.8,438.3 492.1,437.8 492.3,437.2 492.6,436.9 493.7,436.6
			494,436.4 494.5,435.6 494.6,435.5 494.6,435.3 494.7,435.1 494.8,435.1 495,435.1 495.4,435.1 495.9,435.1 496.1,435.1
			496.3,434.7 497.3,432.2 498.1,430.8 498.3,430.5 498.4,430.3 499.4,428.9 499.5,428.9 499.5,429 499.5,429.1 499.6,429.1
			500.2,428.5 500.9,428.2 502.9,427.8 503.8,427.4 505.4,426.2 506.3,425.9 508,426.2 508.3,426 508.7,425.8 509.5,426
			509.9,425.9 510.1,425.7 510.2,425.5 510.4,425.3 510.7,425.2 510.9,425.2 511.7,425.2 512.2,425.4 512.5,425.8 512.7,426.2
			512.9,426.6 514,426.7 514.6,425.7 515.1,424.2 515.7,423.1 516.1,422.9 517.2,422.7 517.6,422.3 518.1,421.2 518.5,420.9
			519.1,421.3 519.3,421.1 519.5,420.9 519.6,420.8 520.8,421.7 520.6,420.7 520.6,420.2 520.9,419.8 521.3,419.7 522.1,419.7
			522.4,419.6 522.4,419.4 521.7,419.1 521.5,418.9 521.5,418.6 521.5,418.3 521.6,418 521.7,417.7 521.9,417.4 523.2,416.4
			524,415.9 525,415.7 526.1,415.7 527.1,415.9 528.8,416.6 530.4,417.6 530.7,417.9 531.4,418.7 531.5,419.1 531.7,419.8
			532.2,420.1 533.9,419.8 535.7,419.9 536.1,419.5 536.5,418.7 537,418.2 537.8,418.5 537.8,418.3 539.1,419.1 541.3,419.6
			541.7,419.5 541.8,419.3 542,418.7 542.1,418.5 542.3,418.3 542.6,418.3 544.7,418.2 546.4,417.6 546.7,417.3 546.8,416.8
			546.5,416.2 545.8,415.5 545.7,414.8 545.7,414.1 545.9,412.1 546.1,411.4 546.4,410.7 546.7,410.2 546.9,410.2 547.4,410.1
			547.6,410 547.8,409.7 547.7,409.6 547.6,409.4 547.5,409.2 547.6,408.5 547.9,408.1 548.4,408 548.9,408.1 549.7,408.5
			549.9,408.6 550.2,408.6 551,408.4 551.2,408 551,407.2 550.6,406 550.2,405.6 549.9,405.4 549.5,405.5 549.1,406 548.7,406.1
			548.3,405.7 547.7,404.9 547.2,404.8 545.8,405.2 545.3,405.1 544.6,404.5 544.1,404.5 543.9,404.5 543.7,404.8 543.4,404.9
			543.1,404.9 543.4,404.3 543.2,403.9 542.8,403.8 542.4,404.1 542.1,404.4 539.4,404.4 538.9,404.6 538.4,405.1 537.7,405.5
			537.6,405.7 537.3,406.7 536.6,407.6 535.7,407.8 534.8,407.5 533,406.4 532.6,406 532.4,405.6 532.5,405 532.7,404.5
			532.6,404.2 532,404.1 531.7,404.3 531.3,404.8 531.1,405.5 531,406.1 531,406.3 530.6,406.8 530.5,406.9 530.2,407 530,407.2
			530,407.5 529.9,407.8 529.3,408.5 528.7,408.8 524.5,410 523.6,409.9 520.1,407.4 513.2,397.3 511.1,393.2 509.9,389.8
			509.6,389.4 509.4,389 509.2,388.6 508.3,384.4 508.1,383.8 508,383.3 507.8,381.1 507.7,380.6 507.7,380.3 507.7,379.9
			507.8,379.6 508.2,379 508.3,378.9 509.3,378.4 509.4,378.1 509.4,377.7 509.6,377.4 509.9,377.2 509.9,377.4 510,377.6
			510.1,377.8 510.4,377.9 510.7,377.9 512.9,377.4 514,376.7 514.8,375.8 516.2,373.6 517,372.7 517.2,372.4 517.3,371.8
			517.2,371.5 517.1,371.2 517,370.8 516.7,370.3 516.3,369.7 516.1,369 516.7,368.3 516.7,368.9 517,369.6 517.3,370 517.6,370.3
			517.9,370.6 518.1,370.7 518.3,370.8 518.7,370.8 518.9,370.9 518.4,372.1 518.3,373.1 518.5,373.9 519.1,374.4 519.5,374.3
			520,374 520.4,373.5 520.3,374.4 520,375 519.1,375.9 518.4,377.1 518.2,377.7 517.6,378.3 516.9,379.6 515.7,380.3 513.2,381.1
			513.3,381.4 513.4,381.5 512.5,382.1 511.8,382.9 511.7,383.3 512.1,383.4 513,383 513.6,382.6 514.4,382.4 515,381.9
			515.9,381.6 516.5,381 517.1,380.1 518.4,377.5 518.9,376.9 521.2,373.2 521.5,372.8 522.4,372.3 522.7,371.9 523.4,370.9
			523.8,370.5 524.2,370.1 527.1,368.7 527.8,368 529.8,365.7 530.5,365.2 531.8,364.4 533.6,363.4 534.1,363.4 537.4,362.8
			539.1,363 540,362.8 540.4,362.8 541,363 541.1,363.2 541.2,363.3 541.4,363.7 541.5,363.8 541.8,364 541.8,364.2 541.7,364.4
			541.7,364.5 541.8,364.9 541.8,364.8 541.9,364.6 542.1,364.5 542.3,364.3 542.4,364.5 542.4,365 542.6,365 542.8,364
			543.2,363.2 544.8,361.5 545.5,360.9 546.3,360.6 547.5,360.3 548.5,359.7 550,359.7 550.2,359.6 550.4,359.4 550.7,359.1
			551.1,359 551.8,359.2 552.2,359.2 552.6,359 552.9,359.2 553.7,359.5 554,359.7 554.9,360.7 555.1,360.9 555.1,361.5
			554.8,362.8 554.4,363.7 553.9,363.5 553.7,363.5 553.7,363.8 554.3,364 554.9,363.4 555.4,362.5 555.5,361.5 555.8,360.7
			556.2,359.9 556.6,359.1 556.3,358.3 557.1,358.2 558.4,357 559.2,356.7 559.5,356.5 560.3,355.9 560.5,355.7 561,355.6
			563.7,354.6 564.8,353.7 565.3,353.6 566.1,353.7 566.9,354.1 567.5,354.8 567.4,355.7 567.9,355.5 568.3,354.9 568.9,353.7
			571.5,350.1 573,348.5 573.8,348.2 576.9,348.8 577.9,348.7 580.5,347.8 582.6,348.2 582.9,348 583.5,348.2 584.4,348.5
			584.6,348.4 585.2,348.1 585.4,348 585.5,347.9 586.3,348.5 586.9,348.8 586.9,349.3 586.3,350.5 587.1,350.1 588.4,348.3
			588.9,347.8 588.5,346.9 588.4,345.8 588.5,344.7 589,343.9 589.4,343.6 590,343.3 590.5,343 590.8,342.5 590.9,341.8
			590.7,341.4 590.3,341.2 589.9,341.2 589,341.3 588.5,341.3 588.2,340.9 588.3,340.3 588.6,339.7 589.3,338.7 589.9,337.6
			590,336.7 589.9,334.1 590.3,332.9 590.7,331.7 591.3,330.7 592.1,330.1 597.1,329.4 597.7,329.1 598.2,328.7 599.1,327.7
			599.5,327.4 599.9,327.3 600.7,327.7 601.3,327.6 601.5,327 601.7,325.6 602.1,323.9 602.7,322.6 603.5,321.5 604.6,321.1
			608.5,321.2 609.8,322.1 610.3,322.2 610.8,322.2 611.7,321.9 615.3,321.8 615.8,321.9 616.6,322.4 617,322.6 617.5,322.6
			618.6,322.3 619.1,322.5 619.8,322.6 621.2,322.3 622,322.4 624.4,323 625.1,322.9 625.7,322.3 626.1,321.4 626.3,320.3
			626.3,320.1 626.2,319.6 626.2,319.4 626.2,319 626.5,318.5 626.5,318.2 626.6,317.7 626.6,317.3 626.2,316.6 626,316.2
			625.8,316 625.8,315.8 626,315.4 626.2,315.3 627.6,315 627.7,315.1 627.8,315 627.8,314.7 627.4,313.6 627.5,312.7 627.8,312
			629,309.8 629.5,309.2 630.6,308.4 631,307.9 631.3,307.2 631.4,306.5 631,305.9 630.5,305.8 629.2,306.3 628.8,306.3
			627.1,305.3 628.7,303.9 629.2,303.4 629.7,302.8 629.5,302.5 629.3,302 629,301.1 628.3,299.5 628,299.3 627.8,298.9
			627.7,298.4 627.9,298.3 628.1,298.4 628.3,298.3 628.4,298 628.4,297.9 628.3,297.7 628.3,297.5 628.2,297.2 628.2,297
			205.2,297 		"/>
	</g>
	<path fill="none" stroke="#999999" stroke-width="0.25" stroke-linecap="round" stroke-linejoin="round" d="M390.8,396.5l-0.4,0.3
		l-0.7,0.7l-0.4,0.3L389,398l-0.4,0.1l-0.3,0.1l-0.1,0.3l-0.2,0.3l-0.5,0.4l-1.2,0.7l1.8-0.8l2.4-1.8l5.5-5.2l-1.5,0.9L390.8,396.5z
		 M465.7,385.1l-0.3-0.4l-1.1,0.1l-0.2-0.2l-0.2-0.4l-0.6,0.1l-1,0.5l-0.8-0.6l-0.7,0l-1.6,0.3l-3.4-0.5l-0.2-0.2h-0.1l-0.2,0.2
		l10.1,1.7L465.7,385.1z M442.2,379.8L439,379l-7.7-1.9l-1-0.6l-0.6-0.7l-0.4-1l-0.4-1.5l-0.4-0.2v0.6l0.2,0.9l0.2,0.5l0.7,1
		l0.8,0.7l3.8,1.4l8.7,1.9l1,0.5l0.5,0.1l-0.3-0.2L442.2,379.8z M634.8,267.4l-1.1-1.3l-0.9-1.5l-0.5-1.1l-0.2-1.2l0.5-1.2l0.4-0.4
		l0.9-0.5l0.4-0.5l0.1-0.7l-0.4-0.4l-2.3-0.6h-0.5l-0.6,0.2l-1.4,1.4l-0.6,0.4l-0.7,0.3l-0.7,0.1l-0.7,0l-0.5-0.2l-1.2-1.2l-1-0.4
		l-0.8-0.2l-0.7-0.5l-0.6-1.3l-0.4-1.6l-0.3-0.8l-0.3-0.4l-1.4-0.1l-0.5-0.2l-0.9-0.6l-0.9,0.2l-0.9,0.4l-0.9,0.2l-0.9-0.2l-0.7-0.4
		l-0.5-0.7l-1.3-3.5l-0.6-0.5l-0.9,0.3l-0.4,0.5l-0.8,1.1l-0.4,0.4l-0.4,0.1l-2.3,0.2l-0.6-0.6l-0.6-0.9l-0.8-0.7l-2.5-0.7l-1.4-1
		l-0.2-0.2l-0.1-0.3l-0.1-0.6l-0.2-0.7v-0.1l-0.1,0.1l-0.6,0.2l-0.2,0.1l-0.2,0.1l-1.2-0.2l-1.7,0.3l-0.9-0.3l-0.6-0.4l-0.4-0.2
		l-1-0.1l-0.5-0.2l-0.3-0.4l-0.7-2.1l-0.3-0.4l-0.5-0.1l-0.7,0.1l-1.5-0.1l-0.4,0.1l-0.2,1.1l0.2,1.7l-0.1,1.6l-1.1,0.8l-0.2-0.1
		l-0.4-0.3l-0.3-0.1l-0.3,0.1l-1.6,1l-0.1-0.2v-0.6l-0.4-0.7l0-0.1l-0.8-1.4l-0.7-0.9l-0.8-0.7l-0.9-0.6l-1.9-0.9l-0.8-0.6l-2.3-3.5
		l-0.8-0.8l-0.2-0.2l0-0.4l0.1-0.4l0.2-0.9l-0.1-1.6l-0.8-0.8l-2.1-1l-0.4-1l-0.3-1.2l-0.4-1l-0.5-0.3l-2.4,0.3l-0.7,0.3l-1.4,1.4
		l-0.7,0.5l-3.4,1l-1.7-0.3l-1.6,0.1l-1.6,0.6l-4,2.3l-0.3,0.3l-0.2,0.3l-0.4,0.8l-0.2,0.3l-0.4,0.3l-0.5,0.1l-0.5-0.1l-0.5-0.2
		l-0.4-0.3l-0.1-0.3l0.1-0.4l0-0.8l0.1-0.1l-0.1-0.1l-0.4-0.2l-0.2-0.1l-0.7-0.2l-0.7-0.5l-0.5-0.1l-0.5-0.3l-0.2-0.1h-0.3l-0.2,0.1
		l-0.5,0.5l-0.5,0.4l-0.6,0.2l-0.6,0l-0.5-0.3l-2.4-3.8l-0.7-0.3l-0.2-0.7l-0.7-0.4l-4.1-0.3l-2.3,0.3l-0.4,0.1l-0.3,0.3l-0.5,0.7
		l-0.3,0.3l-0.2,0.1h-0.5l-0.2,0.1l-0.4,0.5l-0.3,0.5l-0.3,0.4l-0.6,0.2l-0.5,0l-0.5-0.2l-0.5-0.2l-0.4-0.3l-0.5-0.6l-0.2-0.6l0-0.7
		l-0.2-0.9l-0.3-0.6l-0.4-0.4l-0.5-0.2l-0.5-0.1l-0.8-0.3l-0.5-0.9l-1.1-4.5l0-0.5l0.4-0.5l1.9-0.8l-0.6-0.7l0-0.8l0.1-0.9l-0.2-1
		l-0.2-0.4l-0.3-0.2l-0.6-0.4l-0.3-0.3l0-0.4l0.1-0.5l-0.1-0.5l-0.2-0.5l-0.5-0.7l-0.2-0.5l0-0.6l0.1-0.5l0-0.4l-0.3-0.5l-0.3-0.2
		l-0.6-0.1l-0.2-0.2l-0.1-0.4v-1l-0.1-0.4l1.3-0.3l0.3-0.3l0.2-0.7l-0.2-0.4l-0.4-0.2l-0.5-0.1l-0.8-0.1l-1.6,0.4l-0.8-0.1l-0.7-0.7
		l-0.5-1.3l-0.6-3.5l-0.2-0.5l-0.3-0.4l-0.4-0.2l-0.5,0.1l-0.5,0.2l-0.5,0.1l-0.4-0.3l-0.4-0.2l-0.4,0l-1.1,0.7l-1.9,0.8l-1.7,0.4
		l-1.7-0.1l-0.4-0.1l-0.3-0.3l-0.2-0.6l-0.1-0.6l-0.2-0.5l-0.3-0.4l-0.7-0.1l-1.5,0.3l-0.8-0.3l-1.7-0.6l-0.9-0.1l-0.8,0.2l-0.9,0.8
		l-0.4,0.2l-0.6-0.1l-1.7-0.7l1.4-1l1-1l0.6-1.3l-0.2-1.3l-0.5,0.3h-0.4l-0.4-0.1l-0.4-0.2l-0.4-0.2l-0.5-0.4l-0.2-0.3l-0.1-0.3
		l0.1-0.2l0.5-0.1l0.1-0.3l0.1-0.4l-0.1-0.3l-0.1-0.3l0-0.4l0.1-0.4l0.2-0.7l0.1-0.4l-0.1-0.8l-0.2-0.7l-0.3-0.5l-1-1.1l-0.2-0.3
		l-0.1-0.4l-0.1-0.8l-0.1-0.3l-0.3-0.2l-0.8-0.2l-0.3-0.4l0.2-0.9l0.9-0.5l4-1l1.4,0l0.4-0.1l0.9-1.1l0-1.6l-0.7-1.5l-0.9-0.9
		l-0.5-0.3l-0.8-0.9l-0.4-0.3h-0.3l-0.4,0.2l-0.3-0.1v-0.1l-0.1-0.5l-0.1-0.2l-0.1-0.1l-0.3-0.2l-0.2-0.1l-0.9-1.2l-0.5-0.4h-1.2
		v-0.3l0.2-0.6l-0.1-0.7l-0.5-0.8l-0.3-0.7l-0.1-0.7l-0.1-1.3l-0.1-0.7v-0.2l0.4-0.9v-0.5l-0.1-0.4l-0.2-0.4l-0.2-0.4l-0.4-0.6
		l-0.4-0.4l-1.5-1.1l-0.3-0.4l-0.6-1.3l-0.4-0.6l-1-0.6l-0.5-0.4l-0.4-0.7l-0.2-0.5l-0.3-0.4l-0.6-0.2l-1.1,0l-1.1,0.2l-2.1,1
		l-1.7,1.6l-0.5,0.1l-0.4-0.6l0.2-1.5l-0.4-0.7l-0.4,0.2l-0.3,0.3l-0.3,0.2l-0.4,0l-0.4-0.2l-0.7-0.5l-0.4-0.1h-1.5l-2.3-0.4
		l-0.3,0.1l-0.4,0.3l-0.6,0.8l-0.3,0.3l-0.4,0.2l-0.2,0.1l-0.3,0.5l-0.2,0.2l-0.2,0.1l-0.3-0.2l-0.2,0l-0.4,0.2l-2.5,2.2l-0.4,0.2
		l-0.4-0.1L461,158l-0.4-0.2h-0.7l-1.4,0.4h-0.7l-4.7-2.5l-1.1,0.4l-2.1-0.8l-1,0.2l-0.3,1.3l0.1,0.4l0.5,0.8l0.1,0.3l-0.2,0.4
		l-0.3,0.2l-0.3,0.2l-0.2,0.2l-0.2,0.7l-0.3,2.3l-0.7,1.5l-1.1,0.8l-3.3,1.6l-0.4,0l-1.4-0.4l-0.9,0.1l-1.3,0.6l-0.4,0.1l-0.5-0.3
		l-0.1-0.6v-0.7l-0.1-0.6l-0.5-0.5l-0.8-0.2l-1.5,0.1l-2.7,0.2l-4.2-0.8h-2.2l-1.9,0.8l-0.5,0.6l-0.4,0.8l-0.4,0.7l-0.5,0.2
		l-0.6-0.2l-1.1-0.9l-0.6-0.3l-0.9-0.1l-3.3,0.2l-0.6,0.2l-0.4,0.4l0.1,0.7l-0.1,0.2l-0.1,0.2l-0.1,0.2l-0.1,0.2l0.7,0.1l0.3,0.5
		l-0.2,0.5l-0.6,0l-0.1-0.2l-0.2-0.1l-0.1,0.1l-0.2,0.2l-0.2,0.2l-0.1,0.2v0.3l-0.2,0.3l-0.3,0.3l-0.3,0.2l-0.3,0.2l-0.7,0.3v0.1
		l0.1,0.2l0.1,0.2v0.3l-0.3,0.5l-0.2,0.2l-0.2,0.1l-0.7-0.1l-0.2,0.1l-0.1,0.2v0.4l-0.1,0.3l-0.5,0.3l-0.2,0.2l-0.1,0.3l-0.1,0.1
		l-0.1,0.1l-0.5,0.7l-0.1,0.3l-0.1,0.1v0.1l0.2,0.4l0,0.6l-0.4,0.4l-0.5,0.4l-0.3,0.3l0.5,0.2l0.2,0v0.3L408,178l-0.1,0.4l0,0.5
		l-0.2,0.4l-0.3,0.1l-0.8,0l-0.3,0.1l0.2,0.5l-0.3,0.8l0.2,0.5l-0.2,0.1l-0.2,0.3l-0.1,0.1l0.1,0.1l0.1,0.4l-0.3,0.1l-0.7,0.6v0.3
		l0.5,0.4l0.2,0.1v0.2l-0.2,0.1l-0.1,0.1l-0.1,0.1l-0.1,0.1v0.2l0.3,0.4l0.8,0.2l0.4,0.2l-0.2,0.4l-0.1,0.2l-0.2,0.2l0.3,0.2
		l0.2,0.2l0.1,0.3l-0.2,0.3l0.1,0.5l0.2,0.3l0.2,0.2l0.2,0.1v0.3l-0.3-0.1l-0.3,0.1l-0.2,0.3l-0.1,0.5l0.1,0.5l0.2,0.1h0.2l0.3,0.2
		l0.1,0.2l0.2,1.1l0.1,0.2l0.2,0.2l0,0.2l-0.3,0.1l0.1,1.1l-0.7,0.7l-0.7,0.5l-0.1,0.6l-0.4,0.7L406,196l0,0.9l-0.1,0.2l-0.3,0.1
		l-0.2-0.4l-0.3-0.3l-0.3-0.2l-0.3-0.1l-0.3,0l-0.4-0.1l-0.5-0.8L403,195l-0.3-0.1h-0.7l-0.4-0.1l-0.3-0.3l-0.7-0.9l-0.2-0.4l0.1,0
		l0.2-0.8l0-0.3v-0.4l0-0.3l-0.1-0.2l-0.2-0.2l-0.3-0.3l-1.2-0.6l-0.3-0.4l-0.9-1.2l-0.7-0.5l-0.7-0.2l-3.3,0.1l-0.5,0.2l-1.4,0.7
		h-0.3l-0.4-0.3l-0.2,0l-0.3,0.2l-0.4,0.7l-0.2,0.3l-0.4,0.1l-2.2-0.4l-0.3-0.4l-0.2-0.6l-0.4-0.7l-0.4-0.3l-0.5-0.1l-0.5,0.1
		l-0.5,0.2l-0.5,0.4l-0.2,0.4l-0.4,0.4l-0.6,0.2l-0.6,0.1l-0.3,0.2l-0.2,0.5l-0.3,0.9l-0.4,0.6h-0.5l-1-0.4l-0.5,0.2l-0.9,0.8
		l-0.5,0.2l-0.5-0.3l-0.3-0.7l-0.2-0.8l-0.3-0.7l-0.5-0.6l-0.4-0.3l-0.2-0.4l0.2-1l-0.1-1l-0.3-0.6l-0.8-1.2l-0.5-1.4l-0.3-0.5
		l-0.6-0.4l-1-0.2l-0.5,0l-0.5,0.2l-0.5,0.5l-0.6,1.2l-0.4,0.5l-0.6,0.2h-1.5l-0.7,0.1l-0.7,0.4l-0.7,0.6l-0.7,0.8l-0.5,1l-0.1,0.6
		l0.1,1.4l-0.1,0.6l-0.4,0.5l-0.2-0.4l-0.2-0.7l-0.2-0.5l-0.3,0l-0.3,0.2l-0.3,0.2l-0.4-0.2l-0.2-0.4l-0.2-0.5l-0.4-2.1l-0.1-0.8
		l-0.2-0.5l-0.6-0.2l-2.1-0.4h-0.7l-0.6,0.2l-1.2,0.8l-0.6,0.6l-0.3,0.2l-0.3-0.1l-0.2-0.3l-0.3-1l-0.1-0.4l-0.3-0.3l-0.7-0.4
		l-0.3-0.3l-0.2-0.4l0-0.4v-0.3l-0.1-0.4l-0.4-0.4l-0.5,0l-0.5,0.3L349,182l-0.5,0.7l-0.8,1.5l-0.6,0.5l-0.5,0.2h-2.3l-0.4-0.1
		l-0.5-0.2L342,183l-0.5-0.3l-0.5,0.1l-0.5,0.4l-0.3,0.6l-0.2,0.8v0.5l0,0.4l0,0.4l-0.1,0.5l-0.1,0.2l-1.1,1.5l-0.2,0.2l-0.4,0.1
		l-0.3-0.1l-0.4-0.3l-0.3-0.4l-0.2-0.3l0.8-1.9l0.2-1l-0.3-0.8l-0.4-0.2l-1.3,0l-2.6-1l-0.8,0l-0.5,0.2l-0.7,0.7l-0.5,0.3l-0.5,0
		l-1.4-0.2l-1,0.3l-0.5,0.1l-0.3-0.3l0.1-0.7l0.4-0.8l0.1-0.7l-0.7-0.2l-0.6,0.1l-0.5-0.1l-0.3-0.3l-0.2-0.7v-1l0.1-0.8l-0.2-0.6
		l-0.6-0.4l-1-0.2l-2.1-0.1l-2.4,0.8l-1.6-0.3l-4.5-2l-5.2-0.2l-0.3-0.2l-0.3-0.4l-0.1-0.4l0.1-0.4v-0.3l-0.3-0.2l-5.5-0.2l-0.7-0.3
		l-1.5-1.4l-0.7-0.1l-1.6,0.1l-5.1-1l-2,0.4l-7.9-0.1l-4-1.1l-1.1,0l-1.1,0.4l-2.1,1.1l-6.7,1.1l-0.5,0l-1.5-0.4l-5.9,0.5l-0.5,0.2
		l-0.5,0.5l-0.9,1.3l-0.4,0.8l-0.6,2.5l-0.7,1l-2.7,1.9l-3.6,3.2l-1,0.1l-0.7-0.6l-0.7-0.8l-1-0.4l-0.6-0.1l-1.7-0.5H243l-2.3,0.6
		l-0.3,0.2l-0.2,0.3l-0.3,0.5l0,0.3l0.2,0.3l0.7,1.8l0.1,0.4l-0.1,0.6l-0.2,0.1l-0.2-0.2l0,0.2l0.2,0.5l0.6,0.2l0.4,0.2l0.3,0.2
		l-0.4,0.8l0,0.2l1,1.4l0.2,0.4l-0.3,0.1l-0.2,0.3l0,0.4l0.2,0.5l-0.5,0.2l-0.4,0.4l-0.3,0.6l-0.1,0.5l0.1,0.8l0.4,0.2h0.4l0.4,0.3
		l1.3,2.9l0.5,0.7l1.2,0.8l1.1,1.1l0.3,0.5l-0.4,0.2l-0.1,0.4l0.4,0.7l0.6,1l0.2,0.5l0.3,1.6v0.2l-0.1,0.3l0.2,0.1l0.3,0.1l0.3,0.2
		l0.3,0.4l0.1,0.3l0,0.3l0.1,0.5l0.4,0.6l1.6,1.5l2,1.1l0.3,0.5l-0.3,0.7l-0.7,0.1h-0.8l-0.5,0.2l-0.6-0.4l-0.7,0.1l-0.5,0.4
		l-0.3,0.7l0,0.7l0.4,0.5l0.6,0.3l0.7,0.1v0.2l-0.3,0.7l0.3,0.6l0.7,0.4l0.6,0.1l-0.1,0.9l0.2,0.8l0.6,1.5l-0.5,1l0.2,1.8l0.2,0.5
		l0.1,0.1l0,0.1l-0.3,0.4l-0.4,0.5l-1.5,0.8l-0.1,0.4l0,0.7l0,0.5l-0.1,0.4l-0.5,1.2l-1.3,0.5l-4.3,0.1l-0.8,0.3l-0.4,0.2l-0.3,0.3
		l-0.3,0.5l-0.3,1l-0.3,0.5l-1.9,2l-0.7,0.6l-1.3,1l-1.1,0.8l-5.5,5.9l-0.7,1.1l-0.9,0.7l-1,1l-2.6,3.8l-1,1l-0.1,0.3l-0.2,0.7
		l-0.1,0.3l-0.2,0.2l-0.4,0.1l-0.2,0.2l-0.2,0.3l-1.5,2.7l-0.4,0.4l-0.3,0.1l-0.5,0.1l-0.3,0.2l-0.2,0.3l-0.4,1.2l-1.8,2.4l-0.6,1.4
		l0.4,1.3l0.2,0.5l0.1,1.6l0.1,0.4l0.1,0.2l0.3,0.5l0.5,0.5l0.2,0.3l0.1,0.6l0.3,3.4l-0.1,0.5L219,272l-0.3,1.3l-0.4,0.8l-0.1,0.5
		l0.1,0.2l0.1-0.1l0.3-0.4l0.4,0.3h0l-0.1,0l0.8,0.5l0.7,0.9l0.4,0.3l1.1,0.6l0.3,0.4v0.3l-0.2,0.7l0,0.5l0.1,0.3l0.4,0.7l0.1,0.2
		l-0.3,0.6l-0.5-0.2l-0.5-0.5l-0.4-0.2l-0.3-0.1l-0.5-0.6l-0.2-0.2l-0.3,0l-0.5,0.2l-0.9-0.1l-0.5,0.1l-0.5-0.1l-0.6-0.4l-0.9-1
		l-0.5-0.2l-0.5,0.5l-0.2,0.6l-0.2,0.8l-0.1,0.8v0.6l-0.4,0.3l-0.9,0.1l-0.4,0.3l-0.5,1.5l-0.3,0.6l0,0.2v0.5l-0.1,0.2l-0.2,0.3
		l-0.6,0.5l-0.2,0.3l-0.1,0.4v0.3l0,0.3l0.1,1.2l-0.1,0.2l-0.2,0.4l-0.2,0.3l-0.2,0.2l-0.2,0.2l-0.1,0.5l0,0.8l-0.1,0.8l-0.3,0.7
		l-0.4,0.5l-0.3,0.2l-0.6,0.2l-0.3,0.2l-0.2,0.2l-0.2,0.6l-0.2,0.3l-1.6,1.3l-0.4,0.6l-0.1,0.7l0.3,1.4l-0.1,0.6l-0.3,0.6l0,2.6
		l0.6,0.1h0.1l0.2-0.3l0.8-0.3l0.8,0.1l0.8,0.4l-0.4,1.1v0.6l0.7,0l0.2,0l0.2,0.3v0.4l-0.1,0.4l0,0.5l0.3,0.7l1.2,1.8l0.2,0.1l0.2,0
		l0.2-0.1l0.2-0.1l0.1,0h0.2l0.5,0.2l0.4,0.1l0.4,0l0.4-0.2h0.1l0.1,0l0.1,0l1.8,2.3l0.3,0.7l0.3,1.1l0.4,0.8l0.1,0.2h0.1l0.3-0.2
		h1.7l0.4-0.1l0.4-0.3l0.4-0.1l0.4,0.2l0.1,0.2l0.9,0.5l0.7,0.7l0.3,0.4l0.2,0.5l0.2,0.7l-0.1,0.4l-0.2,0.3l0,0.6l-0.4,0.5l0.2,0.4
		l0.9,0.7l0.5-0.2l0.4-0.3l0.2-0.5l-0.2-0.7l0.2-0.4l0.4,0l0.4,0.2l0.4,0.3l0.4,0.2l0.4,0.1l0.4-0.1l1-0.8l0.3-0.6l0.5-1.6l0.5-0.7
		l0.5-0.2l0.5,0.1l1.6,0.6l0.4,0.3l1,1.2l1.1,1l0.5,0.6l0.2,0.1l0.2,0h0.2l0.2-0.1h0.1l1.6,0.8l0.5,0l0.2-0.1l0.1-0.2l0.1-0.2
		l0.1-0.2l0.2-0.2l0.3-0.1l0.9-0.2l0.4,0.2l1.5,0.2l1,0.3l0.6,0.1l1.6-0.1l0.4,0.2l1.2,1.1l0.1,0.5h0.5l2.4-1l0.7,0l0.4,0.3l1.2,0.3
		l0.5,0.2l0.9,0.8l0.4,0.1l0,0l1.4,0.5l0.5,0l1.7-0.9l1.2,0l0.9-0.8l0.5-0.3h0.4l1.3,0.3l1.3,0l0.5,0.1l1.1,0.7l0.6,0.5l0.4,0.5
		l0.2,0.6l0,0.5l0.1,0.4l0.4,0.5l0.8,0.5l1.9,0.8l0.3,0.3l0.3,0.4l0.8,1.4l0.6,0.9l0.4,0.3l2.8-0.5l1.5-0.7l1-1l2.3-3.8l1-0.7
		l11.7-1.3l1.6-0.6l1.3-0.1l0.7-0.3l0.4-0.1l1.1,0.1l1.5-0.4l2.3,0l1.1-0.5l0.2-0.4l0.5-1.2l0.3-0.4l0.6-0.5l0.3-0.3l0.4-0.8
		l0.4-1.1l0.2-1.1l0-0.8l0.2-1.2l0.2,0.1l0.4,0l0.5-0.1l0.8-0.4l0.4-0.1l1.1-0.1l0.4-0.1l3-0.7l0.7-0.4l0-0.3l0.1-0.4l0.3-0.4
		l0.8-0.5l0.1-0.5l0.2-0.3l0.5,0.2l0.3,0.4l0.3,0.4l0.3,0.4l0.4,0.2l0.5,0l0.3-0.2l0.1-0.5v-0.7l-0.1-0.7l-0.2-0.4l0-0.3l0.2-0.4
		h0.1l0.4,0.2h0.2l0.2-0.2l0.1-0.3l0.1-0.2l0.3-0.1l0.8,0.4l0.8,0.7l0.8,0.5l0.9-0.1l0.2-0.2l0.2,0l0.2,0.1l0.3,0l0.3,0.1l0.1-0.1
		l0-0.2l-0.1-0.2l0-0.2v-0.2l-0.1-0.3l0-0.3l0.3-0.1l0.2,0.1l0.5,0.3l2.6,1l0.8,0l0.9-0.5l1.4-1.8l0.9-0.4l0.5,0.1l0.7,0.6l0.3,0.1
		l0.4-0.2l1.4-1.2l0.5-0.7h1l0.3-0.1l0.6-0.4l0.5,0.1l0.1,0.9l0.5,0.2l3,0l0.8,0.4l1.5,1.1l0.4,0.3l0.7,1.1l0.2,0.2l0.5,0.8l1,0.4
		l2.1,0.3l0.5,0.2l0.4,0.4l0.1,0.6l-0.5,1.4l0.3,0.3l0.5,0l0.4-0.1l0.7-0.6l0.4-0.1l0.2,0.6l0.1,0.7l0.2,0.4l0.4,0.1l0.6-0.1
		l0.5-0.3l0.4-0.3l0.4-0.3l1.1-0.1l0.4,0.1l0.2,0.3l0.1,0.7l-0.2,0.7l-0.3,0.3l-0.3,0.2l-0.4,0.4l-0.1,0.5l0.1,0.5l0.3,0.3l0.5-0.1
		l0.4-0.4l0.2-0.5l0.3-0.4l0.5-0.1l0.4,0.3l0.2,0.5l0,0.5l-0.4,0.5l0.7,1.4l0.3,0.3l0.5,0.3l0.2,0l0.1-0.3v-0.6l0.2-0.7l0.5-1.3
		l0.5-0.2l0.8,0l2.2,0.9l1.6,0l0.9,0.2l0.7,0.4l0.2,0.3l0.1,0.3l0,0.2l0.1,0.2l0.4,0.9l0.2,1l0,0.2l0.1,0.2l0.4,0.4l0.6,1.1l0.8,0.8
		l0.8,0.7l0.7,0.3l0.9-0.2l1.1-1.4l0.7-0.4h0.4l0.3,0.1l0.3,0.3l0.3,0.4l0.2,0.5l0.2,1.2l0.2,0.5l0.3,0.3l0.9,0.3l0.2,0.2l-0.1,0.5
		l-0.4,0.5l-0.5,0.5l-0.3,0.4l-0.2,0.6v0.4l0.2,0.2l0.8,0.3l0.3,0.3l0.1,0.4l-0.3,0.4l-0.7,0.9l-0.1,1.1l0,1.3l-0.2,1.3l-0.6,1.1
		l-0.6,0.8l-0.3,0.9l0.3,1.4l0.2,0.4l0.4,1l0.2,0.4l0.4,0.3l0.2-0.2l0.2-0.4l0.4-0.2l0.4,0.2l0.4,0.7l0.7,0.5l0.2,0.4l0.1,0.4
		l0.2,0.4l0.4,0.2l0.4,0.1l0.4,0.1l0.3,0.5l0.1,0.5v0.5l0.1,0.5l0.3,0.5l0.3,0.3l0.4,0.2l0.4,0l0.4-0.1l0.4-0.4l0.3-0.4l0.1-0.5
		l0.2-0.5l0.5-0.1l0.5,0l0.5,0.2l0.4,0.4l0.3,0.6l0.2,0.8l0,0.8l-0.3,0.6l-0.6,0.3l-0.1,0.8l0.2,1.8l-0.1,0.9l-0.3,0.4l-0.5,0.2
		l-0.7,0.1l-0.1,0.1v0.2l0.1,0.1l0.7,1.4l0.2,0.2l0.3-0.2l0.2-0.4l0.3-0.4l0.5,0l0.3,0.2l0.3,0.4l0.2,0.5l0,0.5l-0.2,0.5l-0.3,0.3
		l-0.3,0.4l-0.2,1.3l-0.1,0.5l0,0.4l0.2,0.4l0.1,0l0.6-0.1l0.2,0.1l0.4,0.4l0.2,0.2l0.4,0.1l0.8,0.1l0.4,0.2l0.4,0.4l0.5,0.9
		l0.4,0.3l0.8,0.1l0.7-0.1l0.7,0.1l0.7,0.6l0.1,0.2l0.2,0.6l0.1,0.2l0.2,0l0.2-0.1l0.2-0.1l0.3,0.2l0.1,0.2v0.7l0,0.3l0.1,0.2
		l0.3,0.5l0.1,0.3l0,0.6l-0.2,2.2l-0.1,0.4l-0.1,0.3l-0.1,0.3v0.4l0.1,0.4l0.3,0.7l0.1,0.3l-0.3,0.8l-0.5,0.1l-0.4,0l0.1,0.8
		l0.3,0.4l1,0.4l0,0.1l0.1,0.3l0.1,0.1l0.2-0.1l0.3-0.2h0.2l0.2,0.1l0.1,0.2l0.3,0.6l-0.2,0.3l1.1,0.9l0.4,0.5l0.2-0.2l0.4-0.1
		l0.4,0.1l0.3,0.2l-0.6,1l-0.6,0.6l-1,0.2l-2.8-0.2l-0.4,0.1l-0.4,0.2l-0.9,0.8l-0.5,0.1l-0.5-0.5l-0.1-0.2v-0.7l0-0.3l-0.1-0.3
		l-0.5-0.8l-1.3-1.2l-0.3-0.5v1l-0.3,0.5l-0.5,0.2h-0.7l-0.1,0.2l0.1,0.8l-0.2,0.6l-0.3,0.3l-0.4,0.1l-0.4,0l-0.4-0.2l-0.3-0.4
		l-0.3-0.7l-0.4-0.3l-0.3-0.1l-0.7-0.1l-0.4-0.2l-0.1-0.2l0-0.3l0-0.3l0.1-0.3l0.1-0.2l0.1-0.2l0-0.2l-0.1-0.2l-0.6-0.1l-0.5,0.3
		L379,370l-1.1,1.6h-0.3l-0.4-0.6l-0.6-1.2l-0.3-0.1l-0.4,0.7l-0.1,0.4l0.1,0.7v0.3l-0.2,0.4l-0.1,0.1l-0.2-0.1l-0.3,0.1l-0.9,1
		l-0.5,0.3l-0.4-0.3V373l0.2-0.3l0.2-0.3l0.2-0.3l0.1-0.4l0-2.9l-0.2-0.8l-0.4-0.5h-0.5l-2.1,1.2l-1.3,0.5l-1.8,1.2l-0.5,0.7l-0.2,1
		l0.2,1.3l0.4,1.7l0,0.5l-0.1,0.6l-0.2,0.5v0.5l0.4,0.5l1.4,1.3l0.1,0.8l-0.3,0.8l-0.5,0.9l-0.8,0.9l-0.2,0.5l0.1,0.8l0.4,1.5
		l-0.1,0.7l-0.6,0.3l-4.2,1.1l-0.4,0.3l-0.3,0.5v0.6l0.3,1.2l0.1,0.6l0,0.7l-0.1,0.4l-0.3,0.3l-0.4,0.3l-0.7,0.1l-0.2,0.2v0.2
		l0.1,0.3l0,0.4l-0.1,0.3l-0.6,0.4l-1.6,0.1l-0.4,0.6l0.2,0.6l-0.2,0.3l-0.7,0.2l-0.4,0.3l-0.3,0.3l-0.5,0.8l-0.2,0.4l0.2,0.2
		l0.4,0.2l0.3,0.3l0.2,0.5l0,0.5l0.1,0.5l0.3,0.5l-0.6,0.3l-0.1,0.1l-0.2,0.3v0.1l0.1,0.1l0.1,1.1l-0.1,0.4l-0.5,0.2l-1.5-0.1
		l-1.8-0.5l-1.7-0.1l-1.3,1l-0.2,0.4l-0.2,0.4l-0.1,0.2l0.3,0.4l0.6-0.1l0.7,0.4l0.5,0.6l-0.1,0.7l0.7,1.8l0.5,0.8l0.5,0.4l0.4,0.1
		l0.8,0.5l2.1,0.5l2,1l3.2,0.7l0.9-0.1l0.8,0l0.3-0.1l0.3-0.3l-0.7-0.3l-0.2-0.1l-0.1-0.2l-0.1-0.3l0.1-0.3l0.7-0.3l0-0.5l0-0.5
		l0.6-0.1l0.4,0.1l0.6,0.5l0.5,0.1l0.3,0.2l0.4,0.4l0.5,0.3l0.5-0.2l0.1-0.2l0.1-0.7l0.1-0.3l0.2-0.1l0.2-0.1l0.5,0l0.3-0.2l1.2-1
		l1-0.3l0.4-0.2l0.3-0.4l0.2-0.1l0.6,0l0.1-0.1l0.1-0.2l0.2-0.2l0.4-0.3l0.5-0.3l0.4,0l0.4,0.1h0.5l0.2-0.1l0.2-0.2l0.2-0.2l0.2-0.2
		l0.2-0.1l0.3,0.1l0.3,0.1l0.2,0.1l1.8,0.2l3.3,1.2l1.1,1l0.3,0.1l0.5,0.5l0.4,1.2l0.1,1.3l-0.3,1l0.1,0.2l0,0.2l-0.1,0.2l-0.1,0.2
		l0.4,0.1l0.4-0.1l0.4-0.2l0.4-0.4l0,0l0-0.1l0-0.3l0.1-0.4l0.3-0.8l0-0.3l0.2-0.5l0.1-0.3l0-0.3l-0.1-1.4l-0.1-0.7l-0.2-0.6
		l-0.3-0.4l0.5,0l0.2-0.4l0-0.7l-0.2-0.5l-0.4-0.4l-0.2,0.3l-0.1,0.6l-0.1,0.5l-0.1-0.6l-0.2-0.1l-0.2,0l-0.2-0.1v0.1l-0.1,0.1
		l-0.2,0l-0.1-0.1v-0.8l-0.4,0.1l-0.1,0.3l0,0.4l-0.1,0.3l-0.3,0l-0.3-0.2l-0.2-0.3l-0.4-0.8v-0.3l0.4-0.1l0.2-0.2l0.1-0.3l0.1-0.3
		l0.2-0.1l0.3-0.3l0.8-1.2l0.3-0.4l-0.6,0.6l-0.4,0.2l-0.4,0.1l-0.4,0l-0.3-0.1L383,401l0.2-1.5l-0.1-1.6l0.2-1.4l0.8-0.6l-0.2-0.4
		l-0.1-0.2l-0.1-0.3l0-0.5l0.1-0.4l0.4-0.6l0.1-0.3l-0.1-0.2l-0.3-0.4l-0.1-0.2l0.1-0.3l0.1-0.2l0.1,0l0.1,0.3l0.2,0.1l0.5,0.4
		l0.1,0l0.1,0.1l0.1,0.2l0.2,0.4l0,0.2l-0.1,0.3l-0.1,0.5l0.1,1.6l-0.1,0.2l0.5,0.3l0.4,0.7l0.3,0.9l0,0.9l0.3-0.3l0.7-0.2l0.4-0.2
		l-0.1-0.3V398l0.1-0.1l0.1-0.2l0.5,0.2l0.4-0.2l0.4-0.3l0.4-0.2l0.1-0.1l-0.2-0.2l-0.4-0.4l-0.6-0.2l-0.3-0.2l-0.2-0.5l0.1-0.7
		l0.5-0.4l0.7-0.1h0.5l0.1-0.1l0.1-0.2l0.1-0.1l0.2-0.1l0.2,0.1l0,0.1l0,0.2l0.1,0.1l0.5,0.4l0.2,0.2l0.1,0.3l0.1-0.9l-0.2-0.3
		l-0.2-0.4l-0.1-0.4l0-0.6l0.2-0.5l0.2-0.1l0.1,0.2l-0.1,0.4v0.2l0.2,0.3l0.2,0.4l0.1-0.8l0.1-0.8l0.2-0.7l0.5-0.3l0.6,0.2l1.1,0.9
		l0.2-0.1l0.1-0.1l0.1,0.1l0.2,0.1l0.1,0.1l0.2,0l0-0.1V392l0.1-0.2l0-0.2l0.1-0.9l0.1-0.4l0.2-0.3l0.2-0.2l0.2,0.1l0.2,1.9
		l-0.1,0.5l1.6-1.3l1.3-1.3l2.6-3.5l2.9-2.8l0.2-0.5l0.5-1.3l0.2-0.3l0.4-0.2l0.3-0.5l0.5-1l1.7-2.4l0.7-1.4l0.1-0.3v-0.4l-0.2-0.3
		l-0.5-0.4l-0.1-0.2l0.3-0.5l1.3,0.1l0.4-0.4l1-1.3l0.1-0.2l0.2-1l0.1-0.2l0.1-0.1l0.1-0.1l0.1-0.1l-0.1-0.2l-0.2-0.2h-0.1l-0.2-0.7
		l-0.4-0.9l-0.1-0.4l0.1-0.3l0.7-1l0.3-0.3h0.2l1,0.2l0.3-0.1l1.4-1l0.3-0.1l0.3,0.1l0.2,0l0.6-0.5l0.2-0.1l0.5-0.1l1-0.3l1.3-0.2
		l1.2-0.4h0.7l1.7,0.4l0.4,0.3l0.2-0.3l0.3,0.2l0.7,0.1l0.3,0.2l0.3-0.3l1-0.6l0.5-0.1l0.3-0.3l0.8-1.3l0.4-0.3l0-0.1l0.4-0.7
		l0.2-0.4l-0.1-0.2l-0.8-0.6l-0.2-0.1l-0.2-0.2l-0.1-0.5l0-0.2l-0.3-0.9l0.4,0.2l0.3,0.4l0.4,0.9l0.3,0.3l0.3,0.2l0.3-0.1l0.1-0.1
		l0-0.1l0.5-0.7l0.1-0.2l0.2-0.1l0.5-0.2l0.2-0.1l0.2-0.4l0.1-0.5l0.2-0.2l0.3,0.4l-1.1,1.7l-0.3,0.3v0.3l-0.3,0.8l-1.3,2.2
		l-0.2,0.6l0.1,0.5l0.2,0.1l0.3,0l0.5,0l0.2,0.1l0.3,0.3l0.2,0.1l0.5-0.1l0.2-0.4l0.2-0.5l0.4-0.2l1.4-0.1l2.3,0.9l1,0.1l1-0.2
		l0.3-0.2l0.5-0.4l0.2-0.2l0.2-0.4l0-0.2l-0.1-0.3l-0.1-0.6l0.2-1.5l-0.1-0.2l-0.9-1.2V358l0.3-0.8l0.5-0.5l0.6-0.2l0.5-0.4l0.4-0.9
		l0.2-1l-0.1-0.7l-0.5,0.3l-0.5,0.2l-0.4-0.1l-0.2-0.6l0.1-0.6l0.3-0.5l0.7-0.8l-0.8-0.1l-1.1,0.1l-0.8-0.3l0.2-1.6l0.2-0.2l0.3-0.6
		l0.2-0.6l-0.3-0.3l-0.1-0.1l-0.1-0.1l-0.2-0.2l-0.6-0.1l-0.1-0.2l0-2l-0.2-0.4l-1-0.3l-0.5-0.3l-0.4-0.4l-0.2-0.4l0.1-0.2l0.3-0.6
		l0.1-0.1l0.2,0.1l0,0.3l-0.1,0.7l0.2,0.4l1.5,0.7l0.3,0.4l0.1,0.3v0.4l0.1,0.7l0.2,0.5l0.2,0.2l0.3,0.1l0.3,0.3l0.4,0.9L438,349
		l-0.7,1.5l0.4,0.4l0.4,0.1l1-0.2l0.7,0.1l0.2,0.2l-0.2,0.4l-0.7,1.1L439,353l0.2,0.3l1.2,0.2l0.2,0.4l0,0.5l-0.1,0.7l-0.5,1.2
		l-0.6,1l-0.4,1.1l0.1,1.4l0.2,0.6l0.3,0.5l0.2,0.5l0.1,0.7l0.1,0.6l0.3,0.7l0.4,0.6l0.3,0.4l0.4,0.2l1.5,0.3l0.4,0.3l0.3,1.3
		l0.3,0.4l0.6-0.7l0.2,0l0.5-0.2l0.3,0l0.2-0.1l0.4-0.5l0.3-0.1l0.1,0.1l0.4,0.6l1.6,0.9l1.7-0.2l3.2-1.8l0.6,0.1l0.7-0.3l0.6-0.5
		l0.6-0.3l-0.3,0.6l-0.3,0.3l-0.4,0.3l-0.4,0.4l-0.4,0.3l-1.1,0.1l-0.4,0.3l-1.7,1.4l-0.7,0.9l0.5,0.6l-0.7,0.7l-0.9,0.4l-1,0.1
		l-1-0.2l-1.3-0.8l-2.6-0.6h-0.5l-1.4,0.2l-2-0.5h-2l-0.3-0.1l-1.4-0.8l-0.8-0.2l-4.2,0.3l-0.4-0.2l-0.6-0.7l-0.8-0.6l0.4,0.8
		l2.8,2.9l0.3,0.1l0.2,0.2l0.5,1.4l0-1.1l0-0.3l0.1-0.3l0.1-0.2l0.3-0.4l0.4-0.2l0.5,0l0.5,0.2l3.3,1.4l1,0.2l0.9-0.1l0.4,0.2
		l1.1,1.5l0.2,0.4l-0.2,0.1h-0.3l-0.3,0.1l-1.3,1.2l-0.2,0.1l-1.8,0.3l-1.3-0.3l-0.5,0.1l-0.4,0.2l-0.5,0.4L435,375l0.1,0.5l0.3,0.4
		l0.4,0.2l0.4,0.1l1.5,0.1l0.2-0.2l-0.1-0.4l-0.1-0.4l0.1-0.4l2,1.5l1.2,0.6l0.7-0.3l0.7,0.6l0.9,1.2l0.3,0.2l0.3,0.1l1.1,0.4
		l0.6,0.1l0.6-0.1l0.7-0.3l-0.1,0.3l-0.1,0.2l-0.5,0.4l0.1,0.2l0.1,0.5l0.1,0.3l0,0.2l0.1,0.4l0,0.1l0.1,0.1l0.3,0l0.5,0.4l4.8,1.4
		l1-0.2l0.2-0.1l0.4-0.4l0.2-0.2l0.2-0.1l3-0.5l0.9-0.4l0.4-0.1l0.6,0.1l1.3,0.4l0.2,0l0.5,0l0.2,0l0.2,0.2l0.2,0h0.3l2.5-0.4
		l0.3-0.4l-0.2-1l1.4,0.7l0.5,0.4l0.2,0.1h0.2l0.3-0.1l0.2,0l0.8-0.4l0.5-0.9l0.4-1l0.5-0.6l-0.2,2.4l-0.1,0.4l-0.2,0.4l1.9-0.3
		l0.5,0.2l0.1,0.4l-0.3,0.5l-0.4,0.4l0.2,0h0.1l0.1,0l0.1,0.2l0.5-0.7l0.6,0.1l0.6,0.6l0.7,1l0.2,0.2h1.5l0.5,0.2h0.2l-0.5-0.7
		l0.2-0.4l0.6-0.2l0.6,0v-0.3l-0.6-0.4l0-0.5l0.4-0.5l0.5-0.5l0.6-0.2l0.4,0.4l0.7,1.4l0.1,0.5l-0.2,0.4l-0.3,0.4l0,0.4l0.3,1.2
		l0,0.2l-0.2,0.3l-0.1,0.3l0,0.3l0.3,0.1l-0.1,0.2l-0.2,0.4l-0.4,0.6l0.3,0.2l0.2-0.1l0.2-0.2l0.3-0.1l0.6-0.1l1.4,0.4l0.4,0.2
		l0.4,0.4l-0.4,0.2l-0.8,0.2l-0.4,0.2l-0.4-0.1l-0.1,0.6l0.1,0.8l0,0.4l-0.5,0.1l-0.3,0l-0.1-0.2l-0.1-0.2l-0.2-0.2l-0.3-0.1
		L479,390l-0.2,0l-0.3,0.1l-0.5,0.3l-0.6,0.7l-0.6,0.2l-0.2,0l-0.3-0.1l-0.5-0.3l-0.2-0.1l-0.4,0.2l-1,0.7l-0.4,0.1l-0.7,0.8
		l-0.1,0.2l-0.9,0.4l-1.7,1.1l-0.8,0.1l-0.8-0.5l-0.4-0.5l-0.2-0.2l-0.2,0.2l0,0.3l0.2,0.2l0.2,0.1l0.1,0.1l-0.1,0.4l-0.3,0.2
		l-5.4,2.5l-1.6,1.1l-0.7,0.8l-0.2,0.2l-0.1,0.2l-0.1,0.3l0,0.3l0.1,0.3l0,0.3l-0.3,0.1l-0.3,0l-0.5-0.2l-0.2,0l-0.4,0.1l-0.2,0.2
		l-0.2,0.2l-0.2,0.2l-0.3,0.3l-0.4,0.2l-0.5,0.1l-0.6,0.1l-0.4,0.1l-2.8,2.2l-0.7,0.8l-0.3,0.9l0.1,0.5l0.7,1.8l0.5,0.1l0.8,0.4
		l0.5,0.2h1.7l0.4-0.2l0.8-0.9l0.4-0.3l0.5-0.1l3.6,0.3l1,0.4l0.9,0.6l1.5,1.3l0.2,0.1l0.4,0.2l0.2,0.1l0.3,0.5l0.2,0.3l0.6,0.4
		l0.8,1l0.4,0.3l1.1,0.3l0.5,0.3l0.2,0.5l0.2,0.3l0.5-0.1l0.8-0.5l0.9-0.3l1-0.1l0.4,0.2l1.3,1.2l1.7,1l0.6,0.8l0.4,1.4l0.1,0.9
		l0.1,0.3l0.4,0.8l0.1,0.2l0.1,0.5l0.3,1.3v0.8l-0.1,0.7l-0.1,0.6l-0.3,0.4l-0.9,0.3l-0.3,0.4l-0.2,0.6l-0.1,0.7l-0.1,0.2l-0.1,0.1
		l-0.2,0.1l0.2,0.4l0.1,0.5l0.1,0.9l0.2,0.7l0,0.4l-0.1,0.5l-0.2,0.4l-0.3,0.4l-0.2,0.4l0,0.5l0.2,0.2l0.8,0.2l0.3,0.1l-0.5,0.2
		l-1.2,0L476,433l-0.2,0.1l-0.3,0l-0.5,0l-0.2,0.1l-0.5,0.4l-0.2,0.1l-0.7,0.2l-0.1-0.1l0,0.4l0.2,0.4l2.5,1.8l0.3,0.3l0.4,0.3
		l0.5,0l0.5-0.1l0.4,0l0.3,0.2l0.7,0.9l0.2,0.3l0.1,0.6l0.3,0.3l1.8,0.8l0.5,0.1l1.6,0l0.3,0l0.5-0.1h0.3l1.5,0.6l0.5,0.1l0.5-0.1
		l2.6-1.2l0.5-0.1l0.3-0.1l0.8-0.6l0.3-0.3l0.3-0.6l0.2-0.5l0.3-0.4l1.1-0.2l0.3-0.2l0.5-0.8l0.1-0.1v-0.2l0.1-0.1l0-0.1l0.3,0h0.3
		l0.5,0.1l0.2-0.1l0.2-0.4l0.9-2.4l0.8-1.4l0.2-0.3l0.1-0.2l1-1.3h0.1l0,0v0.1l0,0.1l0.6-0.6l0.8-0.3l1.9-0.4l0.9-0.4l1.7-1.1
		l0.9-0.3l1.7,0.3l0.4-0.2l0.3-0.2l0.8,0.2l0.4-0.1l0.2-0.2l0.1-0.2l0.2-0.2l0.3-0.2l0.2,0l0.8,0l0.5,0.2l0.3,0.4l0.2,0.5l0.2,0.4
		l1,0.1l0.7-1l0.5-1.5l0.6-1.1l0.4-0.2l1-0.2l0.4-0.4l0.5-1.1l0.4-0.3l0.6,0.4l0.2-0.1l0.2-0.2l0.1-0.1l1.1,0.9l-0.1-1l0-0.5
		l0.3-0.4l0.4-0.2l0.8,0.1l0.3-0.2v-0.2l-0.7-0.3l-0.1-0.2l-0.1-0.3l0.1-0.3l0.1-0.3l0.1-0.4l0.2-0.3l1.3-1l0.9-0.4l1-0.2h1l1,0.2
		l1.7,0.7l1.6,1l0.3,0.3l0.7,0.9l0.1,0.3l0.2,0.8l0.5,0.2l1.7-0.3l1.8,0.1l0.4-0.4l0.4-0.8l0.5-0.5l0.8,0.3v-0.2l1.3,0.8l2.1,0.5
		l0.5-0.1l0.1-0.2l0.2-0.6l0.1-0.2l0.2-0.2l0.3-0.1l2.1-0.1l1.7-0.6l0.3-0.3l0.1-0.5l-0.3-0.5l-0.7-0.7l-0.2-0.7v-0.7l0.2-2l0.2-0.7
		l0.3-0.7l0.3-0.4l0.2-0.1l0.5,0l0.2-0.1l0.1-0.3l-0.1-0.2l-0.1-0.1l-0.1-0.2l0.1-0.7l0.3-0.4l0.4-0.1l0.6,0.1l0.7,0.4l0.3,0.1h0.3
		l0.8-0.2l0.2-0.4l-0.2-0.8l-0.4-1.2l-0.4-0.4l-0.4-0.2l-0.4,0.1l-0.4,0.4l-0.4,0.1l-0.4-0.4l-0.6-0.8l-0.5-0.1l-1.4,0.3l-0.5-0.1
		l-0.7-0.5l-0.5-0.1l-0.3,0.1l-0.2,0.2l-0.2,0.2h-0.3l0.2-0.6l-0.2-0.4l-0.4-0.1l-0.4,0.3l-0.3,0.3l-2.7,0l-0.5,0.2l-0.5,0.5
		l-0.7,0.4l-0.1,0.1l-0.3,1l-0.7,0.9l-0.9,0.2l-0.9-0.3l-1.8-1.1l-0.4-0.3l-0.2-0.4l0.1-0.6l0.2-0.5l-0.1-0.3l-0.6-0.1l-0.4,0.2
		l-0.3,0.5l-0.2,0.6l-0.1,0.6l-0.1,0.2l-0.4,0.5l-0.1,0.1l-0.3,0.1l-0.1,0.2l0,0.3l-0.1,0.3l-0.7,0.7l-0.5,0.3l-4.2,1.2l-0.9-0.1
		l-3.5-2.5l-6.9-10.1l-2.1-4.1l-1.3-3.4l-0.2-0.4l-0.3-0.4l-0.2-0.4l-0.9-4.2l-0.2-0.5l-0.1-0.5l-0.1-2.2l-0.2-0.6l0-0.3l0-0.4
		l0.1-0.3l0.4-0.6l0.1-0.2l1-0.5l0.1-0.3l0-0.4l0.2-0.3l0.3-0.2l0.1,0.2l0,0.2l0.2,0.2l0.3,0.1h0.2l2.3-0.6l1-0.7l0.8-0.9l1.4-2.2
		l0.8-0.8l0.2-0.4l0.1-0.5l-0.1-0.3l-0.1-0.3l-0.1-0.4l-0.2-0.5l-0.4-0.6l-0.2-0.7l0.5-0.7l0.1,0.6l0.2,0.6l0.3,0.5l0.4,0.2l0.3,0.3
		l0.2,0.1l0.2,0.1l0.4,0l0.2,0.1l-0.5,1.3l-0.2,0.9l0.2,0.8l0.6,0.5l0.5,0l0.4-0.4l0.4-0.4l-0.1,0.9L520,375l-0.9,0.9l-0.7,1.2
		l-0.2,0.6l-0.6,0.6l-0.7,1.3l-1.2,0.7l-2.5,0.7l0.1,0.3l0.1,0.1l-0.8,0.5l-0.8,0.9l-0.1,0.3l0.4,0.1l0.9-0.4l0.6-0.4l0.8-0.2
		l0.6-0.5l1-0.3l0.6-0.6l0.6-0.8l1.3-2.6l0.5-0.6l2.3-3.7l0.4-0.4l0.8-0.6l0.4-0.4l0.7-1l0.4-0.4l0.5-0.3l2.8-1.4l0.8-0.7l1.9-2.3
		l0.7-0.6l1.3-0.7l1.8-1l0.6,0l3.3-0.6l1.7,0.2l0.9-0.2h0.4l0.5,0.2l0.1,0.1l0.1,0.2l0.2,0.4l0.1,0.1l0.3,0.2v0.2l0,0.2l-0.1,0.1
		l0.1,0.3l0-0.1l0-0.2l0.2-0.1l0.2-0.1l0.1,0.1v0.5h0.2l0.1-1l0.5-0.8l1.6-1.7l0.7-0.5l0.8-0.4l1.2-0.2l1-0.6h1.6l0.2-0.1l0.2-0.2
		l0.3-0.2l0.4-0.1l0.7,0.2l0.4,0l0.4-0.2l0.3,0.2l0.8,0.3l0.4,0.2l0.9,1l0.2,0.1v0.6l-0.3,1.2l-0.4,1l-0.5-0.2h-0.2v0.3l0.6,0.2
		l0.6-0.6l0.5-0.9l0.2-0.9l0.2-0.8l0.4-0.8l0.3-0.8l-0.2-0.8l0.8-0.1l1.3-1.2l0.8-0.3l0.3-0.2l0.8-0.7l0.3-0.1l0.4-0.1l2.8-1.1
		l1.1-0.9l0.4-0.1l0.8,0.2l0.8,0.4l0.5,0.7l-0.1,0.9l0.5-0.2l0.4-0.6l0.6-1.2l2.5-3.6l1.5-1.6l0.8-0.3l3.1,0.6l1,0l2.6-0.9l2.1,0.4
		l0.3-0.2l0.6,0.2l0.9,0.4l0.2-0.1l0.6-0.4l0.1-0.1l0.1-0.1l0.8,0.6l0.6,0.2v0.6l-0.5,1.1l0.8-0.4l1.3-1.8l0.5-0.5l-0.4-0.9
		l-0.1-1.1l0.2-1l0.4-0.8l0.4-0.3l0.5-0.3l0.5-0.3l0.3-0.5l0.1-0.7l-0.2-0.4l-0.4-0.2l-0.4,0l-0.9,0.2l-0.4-0.1l-0.3-0.4l0.1-0.6
		l0.3-0.6l0.7-1l0.6-1.1l0.1-1l-0.1-2.5l0.3-1.2l0.4-1.2l0.6-1l0.8-0.6l5-0.7l0.6-0.3l0.4-0.4l0.9-1l0.4-0.3l0.4-0.1l0.8,0.3
		l0.5-0.1l0.2-0.6l0.2-1.5l0.4-1.6l0.6-1.4l0.8-1l1.1-0.4l3.9,0.1l1.3,0.9l0.5,0.1l0.5,0l1-0.3l3.6-0.1l0.5,0.1l0.8,0.5l0.4,0.2
		l0.5,0l1-0.3l0.5,0.2l0.7,0.1l1.4-0.3l0.7,0.1l2.4,0.6l0.8-0.2l0.6-0.6l0.4-0.9l0.2-1l0-0.2l-0.1-0.5v-0.2l0.1-0.3l0.2-0.5l0.1-0.3
		l0.1-0.5l0-0.4l-0.3-0.8l-0.2-0.4l-0.2-0.2l-0.1-0.2l0.2-0.3l0.3-0.2l1.3-0.2l0.1,0l0.1-0.1l0-0.3l-0.4-1.1l0.1-0.8l0.3-0.7
		l1.2-2.2l0.5-0.5l1.1-0.9l0.4-0.5l0.3-0.7l0.1-0.7l-0.4-0.6l-0.5-0.1l-1.3,0.5l-0.5,0.1l-1.7-1l1.6-1.4l0.4-0.5l0.5-0.5l-0.2-0.3
		l-0.2-0.5l-0.2-0.9l-0.7-1.7l-0.2-0.2l-0.2-0.3l-0.1-0.6l0.1,0l0.2,0l0.2-0.1l0.1-0.3l0-0.1l-0.1-0.1l-0.1-0.2l0-0.3l-0.2-0.9
		l-0.5-0.6l-0.6-0.4l-2.9-0.4l-0.5,0.2l-0.9,0.1l0.2-0.9l1.5-4.9l0.2-0.3l0.6-0.2l0.2-0.3l0.2-0.4l0.2-0.4l0.5-0.5l0.5-0.3l0.6,0
		l2.6,1l1-0.1l1-0.8l0.4-0.6l0.3-0.7l-0.1-0.7l-0.4-0.6l-0.6-0.1l-0.4,0.4l-0.4,0.5l-0.5,0.3l-0.3-0.1l-0.4-0.6l-0.2-0.2l-0.3-0.1
		l-0.8,0.1l-1.9-0.4l-0.6-0.2l-0.3-0.4l-0.2-0.5l-0.3-0.7l-0.4-0.4l-0.5-0.3l-0.3-0.5l0.2-1.8l0.4-0.3l1.2,0.1l2-0.7h0.7l0.7,0.1
		l0.4,0l0.3-0.2l0.1-0.4l-0.1-1.2l0.1-0.5l0.5-0.9l0.7-0.6l1.4-1l0.5-0.5l0.8-1.3l0.5-0.4l0.6-0.3l0.2-0.3l0-1.3l0.3-1.2l0.1-0.7
		L634.8,267.4z"/>
</g>

</svg>
