<?xml version="1.0" encoding="utf-8"?>

<svg version="1.2" baseProfile="tiny" xmlns="http://www.w3.org/2000/svg" xmlns:xlink="http://www.w3.org/1999/xlink" x="0px"
	 y="0px" viewBox="275.6 147.1 289.3 300" xml:space="preserve">

<g id="Uganda">
	<g>
		<polygon fill="none" points="291.1,433.5 291.2,433.2 292.3,434.1 293.8,435.8 294.8,436.4 294.1,437 294.1,438.2 294.4,439.6
			294.5,440.7 294.9,440.3 295,439.5 294.8,437.5 295.2,437.5 295.2,438.1 295.2,438.2 295.4,438.1 296,438 296.3,437.8
			296.5,438.6 297.4,440.4 297.7,440 297.2,439 296.5,436.6 295.9,435.7 295.5,435.4 294.3,434.9 293.7,434.6 293.2,434.1
			292.8,433.5 292.4,433 290.9,432.7 290.6,433 290.5,433.6 290.8,434.3 		"/>
		<path d="M420,344.7c-26.4,0-47.7-21.4-47.7-47.7h-27.8l-6.3,7.2l-0.5,0.9l-0.1,0.8v0.9l-0.2,0.9l-5.8,6.2l0.2,0.3v0.2l-0.3,0.2
			l-0.5,0.1l0.5,0.3l0.2,0.1v0.3l-0.7,0.2h-0.7l-0.6-0.3l-0.5-0.5l-0.5,0.4l-0.2,0.4l-0.2,0.5l-0.4,0.2l-0.2-0.5l0.1-0.5l0.2-0.5
			l0.1-0.6l-0.9,0.9l-0.6,0.4h-0.5l-0.3-0.5l0.2-0.5l0.4-0.5l0.2-0.5l0.1-1.2l-0.2-0.7l-0.5-0.7l-0.5-1l0.3-1l-0.3-1.1l-0.1-0.9
			l1.2-0.5v-0.4l-0.8-0.4l-0.8-0.8l-1,0.9l-0.7,0.5l-0.7,0.3l-1,0.3l-0.7,0.1l-1.2-0.1l-0.6,0.1l-0.9,0.7l-0.7,1.1l-0.6,0.7
			l-0.9-0.4l-0.6-0.5l-0.5-0.1l-0.5,0.1l-0.5,0.2l-1.6,1.6L312,310l-0.1,1.1l-0.1,0.5l-0.2,0.5l-0.7,0.6l0,1l0.3,2.1l-0.4,1
			l-1.2,1.3l-0.2,0.8l-0.2,0.2l-1,1.8l-0.6,0.7l-0.5,0.3l-5.7,1.3l-2.2,1l-1.9,1.5l-0.7,0.4l-1,2.1l-0.1,0.5l0.3,2.7l-0.7,4.4l0,1.1
			l1,4.3l0.1,2.1l-0.9,2L293,348h175.7l-0.3-1.1l1.3,0.3l1.3-0.2l0.8-0.7l-0.5-1.1l1.7-0.8l0.5-0.3l0.4,2.3l1.5,0.1l1.4-1l0.3-1
			l0.7-1.1l1,0.3l0.2,0.3l-0.9,1.2l-1.2,2.1l0.3,0.3l0.4,0.2l0.2,0.2l0,0h37.7l0-0.8l0.2-0.5l0.9-1.1l0.4-0.6l0.2-0.4l1.3-5.4
			l0.9-1.6l1.6-1.1l2.1-0.8l1.7-0.9l1.3-1.4l0.8-2.3l0.3-1.9l0.4-0.5l3.4-1.7l0.9-0.8l0.7-2.1l1.5-2l1.4-3.4l0.3-1.1l0-2.4l0.3-1.1
			l0.4-1.1l0.5-0.9l1.1-1.1l0.9,0.2l0.9,0.5l1.1-0.2l0.6-1l0.1-1.2l0.4-1l2.6-0.6l1.8-1.7l1.1-0.7l4.4-0.4l1.7-0.8l0.7-2.1l-0.5-2.1
			l-0.9-2.1l-0.1-1.2h-85.1C467.7,323.4,446.4,344.7,420,344.7z"/>
		<polygon points="534,175.8 533,175.5 532,174.9 530.3,173.1 529.3,172.7 527.9,173.2 527.4,173.7 527.1,174.2 526.9,174.4
			526.3,174.1 525.5,171.9 524.3,170.4 524.3,170.2 523.7,170.2 522.6,170.5 521.6,170.6 520.7,170.8 520.2,170.8 519.6,170.6
			519.9,170.2 521,169.5 520.3,168.7 519.5,168.4 519.4,168.1 521.9,166.8 522.5,166.1 522.3,165.3 521.2,164.7 520.1,164.7
			518,165.5 517.2,165.6 516,165.2 516.1,164.3 516.7,163 517.3,161.7 517.2,160.8 516.5,160.2 515.8,159.7 515.1,159.1
			514.7,158.3 514.7,157.8 515,157.3 515.2,156.5 515.3,155.3 515.3,154.7 515.1,154.1 514.7,153.5 514.1,152.9 513.6,152.4
			513.6,151.6 513.7,150 513,148.8 511.8,147.8 510.3,147.1 506,151.4 501.6,155.7 495.7,161.7 490.6,166.7 486.7,170.6
			484.5,171.9 482.2,172.2 473.7,171.8 468.9,171.5 467.2,171.2 466.1,170.6 459.4,165.2 458.3,164.7 457.4,165.1 454.2,167.5
			450,169.6 445.6,170.9 437.2,171.6 427.5,172.4 425.2,172.9 415.4,178.8 414.8,179.5 414.8,180.2 415,182.1 415,182.9 414.7,184
			414.4,184.4 413.7,184.5 410.4,183.8 409.5,183.3 408.7,182.5 407.7,180.9 407.1,180.6 402.5,180.3 401.8,179.9 401.4,179
			401.2,176.6 401,175.6 400.3,174.3 396.5,170.1 395.3,169.1 393.9,168.4 393.7,168.4 393.6,168.7 389.4,173.4 388.9,173.9
			387.9,174.3 382.4,175.1 381.5,175.5 380.9,176.3 380.2,176.9 379.3,176.7 372.5,173 368.1,170.6 366,170 363.9,169.7
			361.4,169.7 360,170 356.6,172.7 356.1,172.9 355.1,173.1 354.6,173.3 353,174.6 352.3,174.9 351.7,175 350.7,174.9 350.1,175.1
			349.6,175.6 349.3,176.2 349.1,176.8 348.9,177.4 345.4,182.5 344.2,184.8 344,185.6 345.1,185.2 346.2,184.3 347,184.1
			347.7,185.3 347.7,185.8 347.4,187.3 347.4,187.9 348,189 348.1,189.6 347.7,190.7 347,191.7 345.5,193.4 344.6,194.9
			533.8,194.9 533.3,193.3 532.9,192.8 532.4,192.2 532,191.6 531.8,191 532,190.4 532.5,189.1 532.6,188.6 532.4,188 531.7,186.9
			531.7,186.3 532,185.9 532.5,185.7 533,185.5 533.5,185.3 534.5,183.7 535,181.6 535.1,177.4 534.8,176.3 		"/>
		<polygon fill="#FCDC04" points="344.5,195.1 344.4,195.4 344.3,196 344.1,196.2 343.9,196.4 343.3,196.5 343.1,196.6 342.1,198.5
			339.1,207.4 338.9,208.5 339,209.6 339.6,210.3 342.1,212 343,212.9 344.2,215 344.8,217.1 344.7,219.2 343.4,222.7 343.1,223.3
			342.8,223.4 342.2,223.5 342,223.6 341.9,223.9 341.8,224.5 341.8,224.7 340,229.5 339.8,230.4 339.7,230.8 338.7,232.4
			338.5,232.9 338.4,233.9 338.6,235.8 338.6,236.8 338.1,237.6 337.5,238.7 337,239.8 337.1,240.7 337.9,240.9 341.6,241
			342.1,241.3 342.3,241.9 342.3,242.7 342.4,243.5 342.9,244.4 343.8,245.4 344.4,246 347.2,246 347.2,245.9 347.9,244.2
			348.8,242.8 350.8,242.8 351.7,243.4 354,246 376.2,246 376.5,245.8 377,245.1 377.3,244.5 377.5,243.1 377.8,242.6 377.8,245.1
			377.6,246 557.4,246 557.4,245.9 557,243.8 557.5,242.5 558.4,241.8 559.5,241.2 560.3,240.2 560.4,239 560,238.1 558.5,236.7
			558.2,235.7 557.9,233 557.4,232.3 556.9,232.4 556.5,232.8 556.1,233.2 555.4,233.2 554.9,232.7 552.6,228.1 551.8,223.5
			550.8,220.2 550.6,219.7 550.2,219.2 549.9,219.2 548.4,218.4 548.3,218.3 548.2,218.2 548.1,218 548,217.9 547.8,217.8
			547.7,217.8 547.4,218.3 547.3,218.4 547.1,218.5 546.5,218.9 546.1,219.1 545.4,218.9 544.9,218.4 544.2,217.1 542.5,215.2
			541.9,214.3 540.4,206.4 539.8,205.2 538.7,204.5 536.2,203.8 535.1,203.1 534.5,201.9 534,195.4 533.8,194.9 344.6,194.9 		"/>
		<polygon fill="#D90000" points="344.8,246.3 345.7,246.7 347.2,246 344.4,246 		"/>
		<path fill="#D90000" d="M377.5,246.4l-0.9,0.5l-0.9,0.2l-1.1,0.6l-1.8,1.3l-0.3,0.3l-0.5,0.5l-0.3,0.5l-0.1,0.5l0.1,2.4l0.1,0.5
			l0.7,0.8l0.8,1.2l0.3,1.2l-0.9,0.9l1.3,3.3l0.1,1.8l-1,1.5l0.9,2.3l0.2,0.8v1.3l-0.1,0.3l-0.2,0.2l-0.1,0.2l-0.3,2l-0.7,1.3
			l-1.2,0.7L370,273l-0.5,1.1l-0.3,2.7l-0.3,1.2l-0.7,1.3l-0.8,0.9l-2.1,1.5l-3,2.9l-3.2,1.7l-0.6,0.2l-0.7-0.1l-0.6-0.2l-0.5-0.1
			l-0.6,0.4l-0.4-0.2l-0.4-0.2l-0.7,1.6l-1.5,0.8l-1.9,0.3l-1.5,0.8l-0.9,1.3l-1.6,3.1l-2.6,3h27.8c0-26.4,21.4-47.7,47.7-47.7
			c26.4,0,47.7,21.4,47.7,47.7h85.1l-0.1-0.6l3.2-2.6l1.1-4.2l1.2-1.8l0.5-0.3l1.1-0.2l0.5-0.2l0.5-0.5l0.4-0.6l1.7-3.5l0.3-1.1
			l0.1-10.2l0.2-0.6l1-1.2l0.2-0.6l-0.3-0.6l-1.2-1.2l-0.5-0.5l-0.4-0.9l-0.2-1.1l-0.1-1.1l0.1-1l0.5-2.3v-1l-2.4-5.7l-3-7.1H377.6
			L377.5,246.4z"/>
		<polygon fill="#D90000" points="354.7,246.7 354.8,246.9 354.9,247.3 354.8,247.6 354.5,247.8 354.4,248 354.6,248.5 355.4,248.9
			357.7,249.3 358.4,249.3 359.3,249.2 361.9,248.2 362,250.5 362.2,251.6 362.6,252.5 363.7,253.3 366.7,255 366.8,255.2
			368.2,254.1 368.7,253.3 368.8,252.2 369.2,251.2 369.8,250.3 372,247.8 373.1,247.2 375.9,246.1 376.2,246 354,246 		"/>
		<polygon fill="#FCDC04" points="445.2,370.9 445.4,371.6 445.9,372.2 447,371.4 448.1,370 448.5,368.5 447.3,367.5 447.3,368.6
			447,368.6 446.5,368.4 446.1,368.9 446,369.7 446.3,370.4 445.4,370.4 		"/>
		<polygon fill="#FCDC04" points="473.7,366.3 473.9,366.1 472.5,366.5 471.7,366.9 471.6,367.6 472.1,368.9 473.5,368.3
			474.2,367.9 474.6,367.2 473.5,367.2 473.6,366.9 		"/>
		<polygon fill="#FCDC04" points="291.6,349.6 291,350.6 290.6,351.7 288.9,360.4 288.7,360.8 288.2,361.1 287.8,361 287.5,360.6
			286.8,360.4 286.5,361 284.2,364.2 283.7,365.7 283.7,366.6 284.3,368.9 284.3,369.9 284.1,370.8 283.3,372.8 283,374.4
			283.3,373.9 284,373.3 285.3,373.1 286.5,373.5 287.3,374.4 287.6,375.6 287.8,376.1 288.5,376.2 289.1,376.1 289.4,376.3
			289.4,377 289.5,377.4 289.7,377.8 290.1,378 290.8,378.1 291.3,377.9 291.7,377.5 292.2,377.2 293.6,376.9 294.3,376.8
			294.2,377.3 293.6,379.5 293.1,382.9 292.4,384.9 291.5,386.8 290.5,388.4 289.7,389.2 287.9,390 286.1,391.6 285,391.9 284,392
			282.8,392.4 282.1,393 280.9,394.6 280.5,394.7 280.7,395.2 280.9,396 281.1,399.1 394.8,399.1 396.3,397 396.7,396.3
			396.8,395.5 397.3,394.3 398.5,393.5 400.8,392.4 401.5,391.7 403.4,389.4 403.7,388.6 404.2,387.3 405.3,386.1 406.4,385.6
			407,386.7 407.4,386.7 407.3,385.9 407,385 406.5,384.2 406.1,383.6 405.9,383.2 405.9,382.8 405.8,382.5 405.4,382.3
			404.9,382.4 404.6,382.3 404.3,382.1 404.1,381.6 404.4,380.3 404.4,379.4 403.9,379.1 403.4,379.1 401.5,379.8 402,377.7
			402.3,376.9 402,376.8 401.2,376.5 402.2,376 405.1,374 406.1,374.4 408.2,374.5 409.1,374.7 408.7,373.5 406.8,373 406.3,371.8
			407.1,372 407.4,372.2 409.5,371.4 411,371.9 412.4,372.8 414.4,373.3 415.4,373.1 416,372.5 416.4,371.7 416.4,370.8
			416.3,370.3 415.8,369.3 415.7,368.8 415.8,368.5 416.4,367.5 416.4,367.8 416.4,368.1 416.3,368.3 416,368.6 416.8,369.6
			418.2,370.6 419.7,371 420.8,370.4 420.9,369.4 420.2,368.5 418.6,367.2 419,366.8 420.6,367.5 422.7,368.1 424.2,369
			424.1,370.8 425.3,370.8 425.6,370.8 425,369.7 425.4,366.6 424.9,365 425.9,364.6 426.7,365.4 427.8,365.1 428.8,364.3
			429.2,363.2 429.8,363.8 429.8,364.5 429.3,365.2 428.9,365.7 427.7,366.6 427.8,366.9 428.7,367.7 429.5,367.9 430,367.3
			430.5,366.5 431,365.9 431.2,365.5 431.4,365.1 431.8,365 432,365.2 432.5,366.8 433,366.5 433.3,365.6 433.6,365.4 434.1,365.5
			434.5,366 435,367.2 435.7,366.3 434.3,364.1 434.7,363.2 435.2,363.5 436.1,363.9 436.7,363.8 435.8,362.4 436.8,362.1
			437.2,362.1 437.2,361.7 436.8,361.6 435.8,361 436,360.3 435.3,359.5 435.6,359 436.2,358.9 436.7,359.1 437,359.1 437.2,358.5
			438.1,358.3 438.7,356.8 439.1,355.1 439.7,354.1 440.6,354.2 440.9,354.9 440.7,355.6 439.8,356.4 439.8,357.3 440.3,357.8
			441.2,357 441.6,357.8 440.3,359.8 440.5,360.4 442.1,360.6 442.6,360.3 443,359.6 443.4,358.5 443.9,358.6 444.3,359.1
			444.5,359.8 444.8,360.3 444.1,360.7 443.2,361.8 442.8,362.1 441.8,362 441.6,362.1 441,362.4 440.6,362.5 440.1,362.4
			440.5,363.2 440.6,364.3 440.8,364.6 441.7,364.8 442.3,364.5 442.8,364.1 443.2,363.9 443.6,363.8 444.3,363.6 444.9,363.4
			445.2,363 445.6,362.8 446.4,363.1 447.8,363.9 447.8,362.9 447.9,362.2 448.1,361.6 448.5,361 448.8,361 449.1,361.6
			449.6,361.6 450.3,361.5 451,361.7 450.8,361.3 450.7,360.9 450.6,359.9 451,359.9 451.3,360.6 452,359.4 452.8,359.2
			452.7,359.4 452.6,359.5 452.4,359.9 453,359.9 453.2,359.9 452.7,360.4 452.5,361 452.6,361.4 453.2,361.7 452.6,361.9
			452,362.3 451.7,362.8 451.9,363.4 452.6,363.8 452.8,363.8 452.9,363.9 452.8,364.8 453.3,365.4 454.3,365.4 457.8,364.1
			458.9,363.5 462.6,360.7 463,360.3 463.4,359.7 464.1,357.8 462.3,357.7 460.8,357.4 462.3,356.5 462.7,356.3 462.7,355.9
			462.3,355.9 462.3,355.6 462.8,355.8 463.7,356.2 465.1,356.5 465.1,356.8 464.5,357.6 464.7,358.2 465.2,358 465.7,357.6
			465.9,357.4 466,357.1 465.9,356.8 465.9,356.4 466.1,356.3 466.5,356.2 466.8,356.1 467.4,355.6 466.8,354.9 466.5,353.8
			466.7,352.8 467.5,352.4 468.5,352.1 470.2,351.2 471.1,350.9 471.3,350.8 472.5,350.1 472.8,349.8 472.8,349.1 472.6,348.9
			472.2,348.9 470.7,348.6 469.6,348.5 468.7,348.1 468.7,348 293,348 		"/>
		<polygon fill="#FCDC04" points="501.9,366.1 502.5,366.1 503.2,365.9 503.7,365.6 504.2,365.6 505.1,366.1 505.3,365.3
			504.4,364.7 503.2,364.4 502.2,364.6 501.5,363.4 500.1,363.4 499,364.2 499.3,365.4 499.9,365.6 		"/>
		<polygon fill="#FCDC04" points="470.8,354 469.7,355.5 469.3,356 469.6,356.3 470.2,356.7 472,358.5 472.2,358.9 472.4,359
			472.4,359.4 472.1,359.8 471.5,360 471,359.9 469.5,359.6 470.6,361.4 470.9,361.4 471.6,360.8 472.5,361.4 473.3,362.6
			473.5,363.9 474.1,363.7 474.4,363.3 474.6,362.8 474.6,362.1 474.9,362.1 474.9,364.2 475.2,365 476.1,365.4 476.5,365.3
			476.6,365.2 476.7,365 475.7,364.4 475.4,363.2 475.7,362 476.4,361.4 475.7,361 475.3,360.5 475.3,359.8 475.7,359.2
			475.4,358.4 475.7,358 476.3,358.1 476.7,358.9 477.1,358.4 477.5,358.1 477.9,358 478.2,358.1 478.6,357.5 478.7,356.8
			479,356.2 479.7,355.9 479.1,355.1 478.7,354.3 478.1,353.8 477.1,353.8 477.1,354.2 477.5,354.3 477.9,354.5 478.1,354.8
			478.2,355.3 477.9,355.3 477.4,355 477,355.4 476.9,356.1 477.1,356.7 476.7,356.5 476.6,356.5 476.4,356.3 475.9,356.9
			475.4,356.8 475.2,356.4 475.3,356 475.3,355.6 474.2,355.6 474.1,355 474.6,354.3 475.3,353.8 474.3,353.4 473.2,353.5
			471.1,353.8 		"/>
		<polygon fill="#FCDC04" points="495,377.2 495.3,378 495.7,377.6 496.4,378.3 496.9,376.3 497.1,375.2 496.6,374.7 495.8,375
			494.1,376.1 493.2,376.5 493.2,376.9 494,376.8 494.6,376.8 		"/>
		<polygon fill="#FCDC04" points="477,348.8 475.7,349 474.9,349.3 475.3,350.9 475.9,350.5 477.9,349.8 478.1,350.3 478,350.8
			477.8,351.2 477.5,351.6 478.5,351.4 479.4,351.5 480.3,351.8 481.2,352.4 481.1,351.9 481,351.6 480.8,351.4 480.4,351.3
			481.9,350.7 482.6,350.6 483.4,350.9 482.6,351.3 483.2,352.1 484.1,352.4 484.7,352.7 484.4,353.4 485.4,353.7 485.4,354.5
			484.7,355.2 483.7,354.9 484,354.7 484.4,354.5 483.7,354.2 482.8,354 482,353.9 481.5,354.1 481.1,353.9 480.7,353.8
			479.7,353.8 480,354.3 480.4,354.5 481.5,354.9 480.8,355.2 481.5,355.7 481.8,355.8 482.3,355.9 481.1,356.6 481.8,357.5
			483.2,358.5 484.1,359.6 484.4,359.6 484.3,358.1 484.4,357.3 484.6,357 485.1,357.2 485.2,357.8 485.2,359.2 485.6,358.8
			486.2,358 486.6,357.7 486.6,358.3 486.4,358.9 485.9,359.9 486.3,359.8 486.7,359.7 486.8,359.3 486.9,358.8 487.3,358.8
			487.4,359.7 488,360 488.5,359.8 488.8,359 489.2,358.5 490.2,358.1 491.2,357.5 491.7,356.5 491.3,353.7 491.4,353.1
			491.9,352.6 492.5,352.4 493.2,352.6 493.9,353.1 494.8,352.3 495.3,352.1 496.1,352 496.7,352 497.5,352.3 498.2,352.6
			498.6,353.1 497.4,353.3 496.4,353.8 495.7,354.5 495.3,355.6 495.9,355.3 496.6,355.3 497.2,355.4 497.9,355.6 497.9,355.9
			497.4,356.3 496.7,357.2 496.1,358.1 496.1,358.8 496.8,359.3 499,359.4 499.7,359.5 500.2,359 500.3,358.5 500.2,357.8
			500.4,357 501.1,357.8 501.3,358.9 501.4,360.1 501.8,361.4 502.1,360.7 502.3,359.3 502.6,358.5 504.2,359.5 505.9,360.3
			505.9,359.3 506.5,359 507,358.7 507.3,357.9 509.7,356 510,355.6 510.4,355.5 510.5,355.5 510.6,355.5 510.9,355.9 511.1,356.2
			511.3,356.5 513.7,353.4 515.5,351.9 516,351.2 516.2,350.1 515.6,348.2 515.5,348 477.9,348 		"/>
		<polygon fill="#FCDC04" points="468.2,361.6 468.8,361 467.9,361 467.3,361.7 467.2,362.9 467.7,363.9 468.1,363.3 		"/>
		<polygon fill="#FCDC04" points="424.5,388.6 424.1,388.4 424.2,388.9 424.4,389.2 424.6,389.2 426.1,388.8 426.7,388.7
			427.4,388.8 427.4,388.4 426.7,388.3 426.4,387.8 426.2,387.3 425.6,386.9 425.1,387.1 425,387.6 425.3,388.3 425.6,388.8
			425.2,388.7 		"/>
		<polygon fill="#FCDC04" points="408.2,383 408.2,383.4 409.6,383.8 410.4,384.2 410.7,384.6 410.8,385.1 410.9,385.2 411.2,385.3
			411.4,385.6 411.4,385.8 411.1,386.1 411,386.4 411.7,386.8 413.1,387.3 414.6,387.4 415.4,387 415.7,387 416.2,387.5 417,387.9
			417.6,388.4 417.2,389.2 417.7,389.4 418.3,389.8 418.6,390.4 418.6,391 418.3,391.2 417.8,391.2 417.4,391 417,390.5 416.4,391
			415.9,391.7 415.9,392 415.3,392.1 414.9,392.2 414.5,392.4 414.3,392.8 414.3,393.1 414.6,393.6 414.4,394.3 413.6,395.7
			412.7,396.6 412.5,397.1 412.8,397.8 414.3,397.8 414.3,397.5 414.3,397 414.7,396.1 415,396.2 415.5,396.3 415.8,396.4
			415.6,395.7 415.6,394.7 415.4,394.2 417.5,393.8 418.3,393.9 418.3,394.2 418,394.6 418.1,394.9 418.6,395.2 419.2,395.3
			419.4,395.1 419.6,394.7 419.9,394.3 420.5,394.2 420.1,392.3 419.9,389.8 420.5,388.1 422.6,388.1 422.4,387.2 421.2,386
			420.8,385.2 420.4,385.4 420.2,385.7 420.2,386.1 420.5,386.6 420,386.9 419.5,386.9 419,386.7 418.6,386.2 419,385.6
			416.7,386.4 415.4,386.7 414.3,386.6 413.6,385.9 413.8,384.8 414.7,383 414.6,382.1 413.8,381.8 411.4,382 410.1,381.7
			409.4,381.6 408.9,381.8 409,382.4 408.9,382.9 		"/>
		<polygon fill="#FCDC04" points="442.5,375.1 442.1,374.6 441.7,374.4 441.2,375.1 440.4,374.7 440.7,375.3 441.2,375.7
			441.8,375.8 442.6,375.8 443.6,376.1 444.7,375.5 445.5,375.8 444.8,376.2 444.8,376.5 446.1,376.4 447.1,375.9 448.1,375.1
			448.8,374 448.1,373.7 447.5,373.7 447.1,374 447,374.7 446.5,374.6 445.9,374.4 446.1,373.5 445.7,372.6 445,371.9 444.4,371.5
			444.5,372.1 444.8,372.6 445.5,373.6 445.5,374 445,373.8 444.6,373.5 444.5,373.1 444.4,372.6 444.2,373 443.8,373.3
			443.4,373.2 443,372.9 443.1,373.5 443.3,374.1 443.3,374.6 443,375.1 		"/>
		<polygon fill="#FCDC04" points="424.2,382.2 423.7,381.4 423.5,380.8 422.9,380.2 422,379.9 421.2,380.2 421.7,380.3 422.2,380.6
			422.6,381 423,381.6 422.5,381.9 422.4,382.2 422.6,382.6 423,383 423.1,382.7 423.2,382.7 423.4,382.6 423.5,383 423.6,383.2
			423.9,383.5 424.1,383.8 425.1,383.7 424.8,383.1 		"/>
		<polygon fill="#FCDC04" points="429.6,394.7 428.9,395.3 429,395.7 429.2,395.9 429.5,396 429.9,396.1 430.4,395.8 431,395.4
			431.3,394.8 431,394.2 431.6,394 432,393.6 433.1,391.6 433.2,391 433.2,390.3 433.6,390.3 433.9,391 434,390.5 434,390
			434.3,389.1 433.5,389.4 433.2,389.5 432.8,389.9 432.4,389.7 432.2,389.7 432.1,390.1 432.1,390.8 432.1,391 431.4,391.5
			430.4,391.6 429.5,392 430.8,392.7 430.5,393.7 		"/>
		<polygon fill="#D90000" points="396.6,421.5 396.1,421.3 396.2,422.2 396.1,422.2 396.8,422.2 396.8,421.9 		"/>
		<path fill="#D90000" d="M281.1,399.2L281,400l-0.4,0.3l-0.6,0l-0.5,0.1l-0.2,0.6l0.1,0.3l0.4,0.6l0.1,0.3l-0.1,0.4l-0.2,0.3
			l-0.3,0.2l-0.2,0.3l-0.7,4.1l0,1.1l0.5,2l0.1,1.1l-0.1,3.2l-0.2,0.8l-0.6,0.7l-1.6,0.5l-0.6,0.9l-0.1,0.5l0,0.5l0.2,1l0.1,0.8
			l-0.2,0.5l-0.3,0.5l-0.2,0.6l0.1,0.9l0.8,2l0.2,1l-0.1,1l-0.7,3.3l0,1.3l0.4,0.8l0.5,0.8l0.3,1.1l-0.1,0.4l-0.5,1.3l0,0.6l0.6,1.1
			l0.2,0.6l0,1l-0.5,3.1l2.1,0.1l1.1-0.1l1-0.3l1.1-0.6l0.8-0.6l0.9-0.5l1.3-0.2l0.6,0.1l1.1,0.7l0.4,0.1l0.4-0.3l0.3-1l0.5-0.6
			l0.5-0.3l0.5-0.1l0.5,0.1l0.6,0.3l1.5,2.2l0.2,1.1l0.1,2.2l0.5,1.1l0.9,0.9l1,0.3l1.1-0.1l1.2-0.4l3.6-2l0.5-0.1l0.5-1.1l0.7-0.7
			l1.8-1l2.2-0.8l0.6-0.5l0.3-0.8l0.3-2l0.4-0.7l0.4-0.2l0.4-0.1l0.4,0l0.4-0.1l0.8-0.5l2.4-2.2l0.7-0.9l0.6-1l0.1-0.4l0.1-0.8
			l0.1-0.3l0.4-0.3l0.9-0.4l0.3-0.3l0.3-0.8l0.3-2.2l0.5-0.8l0.8-0.3l0.9,0.1l0.9,0.3l0.9,0.1l0.8-0.2l0.7-0.3l0.7-0.1l1.3,0.4l0,0
			l0.1-0.1l0.4-0.3l0.7,0.1l0.4,0.3l0.3,0.3l0.3,0.1l0.6,0l1-0.2l2.7-0.2l1.2,0.1l1.3,0.4l0.7-0.6l1.9-2l0.8-0.4l2-0.6l2-1l1.9,0.5
			l0.8,0.4h50.6l0.1-0.2l0.1-0.5l-0.1-0.4l-0.7-0.4l-0.1-0.5l-0.2-2.3l0.1-3l-0.4-0.9l-1-0.2l-1.2,0l-0.9-0.2l-0.2-0.8l0.1-1.3
			l0.4-1.3l0.6-0.6l0-0.4l2-2.1l1.2-2.5l0.4-0.4l0.5-0.1l0.2-0.3l-0.1-0.4l-0.6-1L394,402l0.4-2.1l0.2-0.5l0.2-0.2H281.1
			L281.1,399.2z M290.6,433l0.4-0.3l1.4,0.4l0.5,0.5l0.4,0.6l0.5,0.5l0.6,0.3l1.2,0.5l0.4,0.3l0.6,0.9l0.7,2.4l0.5,1.1l-0.4,0.3
			l-0.9-1.8l-0.2-0.8L296,438l-0.6,0.2l-0.2,0.1l0-0.2l0-0.5h-0.4l0.2,1.9l-0.1,0.8l-0.5,0.5l-0.1-1.2l-0.3-1.4V437l0.7-0.6l-1-0.6
			l-1.5-1.7l-1.1-0.9l-0.1,0.3l-0.3,0.8l-0.3-0.7L290.6,433z"/>
		<path fill="#FFFFFF" d="M420,344.7c26.4,0,47.7-21.4,47.7-47.7s-21.4-47.7-47.7-47.7c-26.4,0-47.7,21.4-47.7,47.7
			S393.6,344.7,420,344.7z M402.1,290c0.2-8.1,7.3-15,8.1-15.8l0-0.2c-0.8-0.3-1.3-0.8-1.4-1.5c-0.2-1.2,0.8-2.5,1.5-3.3
			c-2,0.3-5.6,0.8-6.7,0.4c0,0-0.1,0-0.1,0l0-0.1c0,0-0.1,0-0.1-0.1c-0.1-0.1-0.2-0.3-0.1-0.4c0.3-1.2,5.3-2.7,7-3.1
			c-0.4-0.8-1.1-2.9,1-5.5l-3.1-5.7l0.1-0.1c1.4-1.4,3.7-2.2,6.6-2.2h0.1c0.3,0,6.6-0.3,10.1,3.9c0,0,0.1,0.1,0,0.2
			c2,2.2,2.8,3.7,3.1,6l0.1,0.1l-0.1,0.2c-0.1,0.2-3.7,1-4.9,1.2c0.2,0.8,0.2,4.6-4.2,8.3c-3.6,4.1-2,12.5-1.9,13.4
			c0.6-0.2,1.5,0,2.6,0.5c0.7,0.3,1.9,0.9,3.4,1.6c4.9,2.4,13.2,6.5,14.6,6.7c0.3,0,0.5,0.3,0.7,0.8c6,2.3,12.8,6.7,12.2,15.3
			c-0.3,3.5-1.9,7.3-4.3,10.5c-2.2,2.9-4.9,4.7-7,5c0,0,0,0-0.1,0c0,0,0,0-0.1,0l-0.2,0l0-0.4l0.1,0c0.4-0.7,1-1.6,1.7-2.5
			c-0.8,0.5-1.4,0.7-1.8,0.6c-0.3-0.1-0.4-0.3-0.4-0.3l0-0.1l0-0.1c0-0.1,0.1-0.5,0.5-1.1c-3.1,1.4-3.4,1.1-3.5,1
			c-0.1-0.1-0.1-0.3,0-0.4l0,0l0.9-0.9c-0.3-0.1-0.6-0.2-1-0.6l-0.3-0.2l0.3-0.2c4.7-2.5,5.2-6.5,5-9.2c-0.2,1.4-0.9,3.2-2.8,4.4
			l-0.4-0.3c0.5-0.8,0.8-1.7,0.7-2.9c-0.1,0.2-0.1,0.4-0.2,0.4l-0.2,0.1l-0.2-0.2c0,0-0.4-1-1.3-2.3l-0.3-0.1
			c-2.7-0.6-7-1.3-7.8-0.6c-0.1,0.1-0.2,0.2-0.2,0.4c-0.2,1.5,2.1,5.3,3.1,6.5c0.5,0.7,0.6,1.6,0.1,2.6c-0.3,0.6-0.8,1.2-1.4,1.2
			c-1.6-0.2-5.9-0.6-7-0.1c-0.7,0.3-0.3,7.2,0.5,13.4c1.1,0,5.7,0,7.3,2.6l0.3,0.5l-0.5-0.1c-5.9-0.7-10.2,0.7-12.9,2.1
			c-2.8,1.5-4.3,3.1-4.3,3.2l-0.2,0.3l-0.2-0.3c-1-1.7,1.3-4.2,2.2-5.1c-0.9-0.1-2.9-0.4-6.1-0.2l-0.3,0l0.1-0.3
			c0.6-2.2,8.3-3.1,11.6-2.5c0.2-1.5-0.5-8.6-1.1-13.4c-0.8,0-3.8,0.1-7.6-0.4c-2.9-0.3-3.8,2.4-4.4,4.1c-0.3,0.8-0.4,1.2-0.7,1.3
			c-0.1,0-0.2,0-0.4-0.1c-0.7-0.4-1-2.4-1.1-3.6c-0.4,0.9-1,2.6-0.8,4.7l0,0.6l-0.5-0.4c-0.9-0.8-1.1-2.3-1.2-3.4
			c-0.4,0.8-0.9,2.1-1.5,3.4l-0.4,0.8l-0.1-0.9c-1.2-8,3-8.8,5-9.2c0.3,0,0.5-0.1,0.6-0.1c1.6-0.6,11.2-0.2,13.1,0.1
			c0.5-1.3,0.1-5.7-0.1-7.5c-0.4-0.3-1.3-1.2-3.6-3.5c-3.9-1-7.5-5-8.4-6.1c-0.2,0.3-0.3,0.3-0.3,0.3l-0.2,0.1l-0.1-0.1
			C403.5,297.6,402,294,402.1,290z"/>
		<path fill="#D90000" d="M408.8,254.8l2.9,5.3c0.8-0.7,1.7-1.1,2.7-1.4c0.1-2.1,0.3-4.9,0.3-5.8
			C412.1,252.9,410.1,253.6,408.8,254.8z"/>
		<path d="M411.7,260.1l-2.9-5.3c1.3-1.2,3.3-1.9,5.8-1.9c0,0.9-0.2,3.7-0.3,5.8c0,0,0,0,0,0l0.4-6.3l0.2,0c0,0,0,0,0,0h-0.1
			c-2.9,0-5.2,0.8-6.6,2.2l-0.1,0.1l3.1,5.7c0,0,0,0,0.1-0.1C411.4,260.2,411.6,260.2,411.7,260.1z"/>
		<path fill="#FCDC04" d="M424.5,256.3c-3-3.3-8.1-3.5-9.2-3.5l-0.4,5.7c1.3-0.3,2.6-0.2,3.9,0.3c1.1,0.4,2.1,1,2.8,1.8
			c0.2-0.2,0.3-0.5,0.5-0.7L424.5,256.3z"/>
		<path d="M414.8,252.4l-0.4,6.3c0.2,0,0.3-0.1,0.5-0.1l0.4-5.7c1.1,0,6.2,0.1,9.2,3.5l0.2-0.4l0.2,0.2c0.1,0.1,0.1,0.2,0.2,0.2
			c0-0.1,0-0.1,0-0.2c-3.5-4.2-9.8-3.9-10.1-3.9c0,0,0,0,0,0L414.8,252.4z"/>
		<path d="M421.6,260.7C421.6,260.7,421.6,260.7,421.6,260.7l0.5-0.7C422,260.2,421.8,260.4,421.6,260.7z"/>
		<path fill="#D90000" d="M424.8,256.8l-2.8,4.3c0.6,0.7,1,1.5,1.2,2.4c0.8-0.2,3.7-0.9,4.5-1.1
			C427.4,260.3,426.7,258.8,424.8,256.8z"/>
		<path d="M424.7,256l-0.2,0.4l-2.3,3.6l-0.5,0.8c0.1,0.1,0.2,0.3,0.4,0.4l2.8-4.3c1.9,2,2.7,3.5,3,5.6c-0.8,0.2-3.7,0.9-4.5,1.1
			c0,0.1,0.1,0.2,0.1,0.3l0,0c0,0,0,0.1,0,0.1c1.2-0.2,4.7-1,4.9-1.2l0.1-0.2l-0.1-0.1c-0.3-2.3-1.1-3.9-3.1-6
			c-0.1-0.1-0.1-0.2-0.2-0.2L424.7,256z"/>
		<path d="M415.7,293c-0.6-2.7-0.2-5.3,0.3-5.9c0-0.1,0.1-0.1,0.1-0.2c0.2-0.4,0.4-0.8,0.8-1.1l0,0l0-0.1c-0.1-0.4-1.9-9.4,2-13.9
			c3.9-3.2,4.2-6.7,4.1-7.6l0,0l0-0.3c-0.3-2-2-3.8-4.2-4.6c-2.5-0.9-5-0.4-6.9,1.3c-2.4,2.9-0.8,5.2-0.8,5.2l0.2,0.3l-0.4,0.1
			c-3.2,0.9-6.5,2.1-6.9,2.8c1.6-0.4,6.1-1.4,6.8-1.2l-0.1,0.5c-0.4-0.1-2.9,0.4-5.5,1c1.4,0,3.8-0.3,6-0.7l0.1-0.1l0,0.1
			c0,0,0,0,0,0l0.3-0.1l-0.1,0.4c0.2,0.2,0.5,0.4,0.7,0.6c0.7,0.5,1.5,1.1,1.5,2.2l0,0.1l-0.1,0.1c-0.2,0.2-0.2,0.3-0.3,0.5
			c-0.2,0.6-0.6,1.1-2.6,1.7l-0.1,0.5l-0.1,0.1c-0.1,0.1-7.8,7.2-8,15.5c-0.1,3.8,1.3,7.2,4.2,10.3c0.1-0.1,0.1-0.2,0.2-0.3l0.2-0.3
			l0.2,0.3c0,0.1,4.2,5.1,8.4,6.2l0.1,0l0,0.1c3,3.1,3.6,3.5,3.7,3.6l-0.1,0.1l0.2-0.1l0.1,0.2l-0.1,0.1c0.1,1.2,0.7,6.7,0,8
			l-0.1,0.2l-0.2-0.1c-1-0.3-11.5-0.7-13-0.1c-0.2,0.1-0.4,0.1-0.7,0.2c-1.9,0.4-5.4,1-4.7,7.7c0.9-2,1.6-3.7,1.6-3.7l0.5,0.1
			c0,0-0.1,2.3,0.6,3.6c0-3,1.3-4.9,1.3-5l0.4-0.6l0.1,0.8c0.1,1.4,0.5,3.5,0.9,4c0.1-0.2,0.2-0.6,0.4-1c0.6-1.7,1.6-4.9,4.9-4.5
			c4.4,0.5,7.7,0.4,7.7,0.4l0.2,0l0,0.2c0.2,1.3,1.5,12.9,1,14.1l-0.1,0.2l-0.2,0c-3.1-0.7-9.8,0.2-11,1.8c0.7,0,1.4-0.1,2-0.1
			c2.8,0,4.2,0.3,4.3,0.4l0.5,0.1l-0.4,0.3c-0.9,0.8-3,3.1-2.6,4.5c0.6-0.6,2-1.8,4.2-3c2.6-1.4,6.9-2.8,12.6-2.2
			c-1.9-2.2-6.7-1.9-6.8-1.9l-0.2,0l0-0.2c-0.4-3.1-1.7-13.4-0.2-14.1c1.4-0.7,7,0,7.3,0c0.2,0,0.6-0.4,0.9-0.9
			c0.1-0.3,0.5-1.3-0.1-2c-0.7-0.9-3.4-5-3.2-6.9c0-0.3,0.2-0.6,0.4-0.7c1.1-0.9,5.7,0,7.6,0.3l-3.3-4.2c-2.1-1.9-4.8-3.6-8.3-4.4
			C418.4,299.9,416.4,296,415.7,293z M420.9,265.7c-0.4,2-2,3.9-3.5,4.2l-0.1,0c-0.3,0.1-0.6,0.1-0.9,0.1c-0.2,0-0.4,0-0.6-0.1
			c-0.3-0.2-0.5-0.5-0.6-1c-0.2-0.9,0.8-1.4,1.4-1.7c0.1-0.1,0.3-0.1,0.3-0.2c2.2-1.2,1.6-5.3,1.6-5.3l-0.1-0.5l0.5,0.3
			C420.6,262.4,421.2,263.9,420.9,265.7z M413,265.4c0-0.5,0.4-0.9,0.9-0.9c0.5,0,0.9,0.4,0.9,0.9c0,0.5-0.4,0.9-0.9,0.9
			C413.4,266.3,413,265.9,413,265.4z M414.8,272.2l0.4,0.2c-0.3,1.1-0.7,2.1-1,3.1c-1.4,4-2.8,7.9-0.3,12.4l0.2,0.4l-0.5,0
			c-0.3,0-1.1-0.1-1.5-0.1c0.1,0.3,0.3,1.1,0.5,1.7l0.1,0.4l-2.1-0.2l0.9,1.7l-1.6-0.4c0.2,0.5,0.4,1.3,0.4,1.7l0.1,0.1l-0.2,0.2
			c-0.2,0.2-0.9-0.3-1.3-0.7c0,0,0,0,0,0.1c0,0.4-0.1,0.9-0.2,1.6l-0.1,0.7l-0.3-0.7C403.4,284.9,414.7,272.3,414.8,272.2z
			 M418.1,305.3l-0.2,0.1l-0.1-0.2c-1-2-0.4-4.4-0.2-5.4l0.2-0.7l0.3,0.4c1.9,2.5,2.8,3.3,5,5.1l-0.3,0.4
			C422,304.5,420.8,304.1,418.1,305.3z M426.5,317.5c0,0.6-0.3,0.8-0.5,0.9c-0.4,0.1-0.8,0.2-1.3,0.2c-0.9,0-1.8-0.2-1.9-0.2l-0.2,0
			l-0.2-6.7l0.4,0.2C425.3,313.3,426.6,316.1,426.5,317.5z"/>
		<path d="M406.8,301l0.2-0.1c0,0,0.1-0.1,0.3-0.3c0.9,1.1,4.5,5.1,8.4,6.1c2.3,2.4,3.2,3.3,3.6,3.5c0.2,1.9,0.6,6.2,0.1,7.5
			c-1.8-0.3-11.5-0.7-13.1-0.1c-0.2,0-0.4,0.1-0.6,0.1c-2,0.4-6.2,1.1-5,9.2l0.1,0.9l0.4-0.8c0.6-1.3,1.1-2.6,1.5-3.4
			c0.1,1.1,0.3,2.6,1.2,3.4l0.5,0.4l0-0.6c-0.1-2.1,0.4-3.8,0.8-4.7c0.1,1.2,0.5,3.1,1.1,3.6c0.1,0.1,0.2,0.1,0.4,0.1
			c0.3-0.1,0.5-0.5,0.7-1.3c0.6-1.7,1.5-4.5,4.4-4.1c3.8,0.5,6.7,0.4,7.6,0.4c0.6,4.8,1.3,11.9,1.1,13.4c-3.2-0.6-11,0.3-11.6,2.5
			l-0.1,0.3l0.3,0c3.3-0.2,5.3,0,6.1,0.2c-0.9,0.9-3.2,3.4-2.2,5.1l0.2,0.3l0.2-0.3c0,0,1.5-1.7,4.3-3.2c2.6-1.4,7-2.8,12.9-2.1
			l0.5,0.1l-0.3-0.5c-1.6-2.6-6.2-2.7-7.3-2.6c-0.8-6.2-1.2-13-0.5-13.4c1.1-0.5,5.4-0.1,7,0.1c0.5,0,1.1-0.6,1.4-1.2
			c0.5-0.9,0.4-1.9-0.1-2.6c-1-1.2-3.2-5-3.1-6.5c0-0.2,0.1-0.3,0.2-0.4c0.8-0.7,5.1,0,7.8,0.6l0.3,0.1c-0.9-1.4-2.3-3.2-4.2-4.9
			l3.3,4.2c-1.8-0.4-6.5-1.2-7.6-0.3c-0.2,0.2-0.3,0.4-0.4,0.7c-0.2,1.9,2.5,6,3.2,6.9c0.6,0.8,0.2,1.7,0.1,2
			c-0.3,0.6-0.7,0.9-0.9,0.9c-0.2,0-5.8-0.7-7.3,0c-1.4,0.7-0.2,11,0.2,14.1l0,0.2l0.2,0c0.1,0,4.8-0.3,6.8,1.9
			c-5.7-0.6-10,0.9-12.6,2.2c-2.2,1.2-3.6,2.4-4.2,3c-0.4-1.4,1.7-3.7,2.6-4.5l0.4-0.3l-0.5-0.1c-0.1,0-1.4-0.4-4.3-0.4
			c-0.6,0-1.3,0-2,0.1c1.2-1.5,7.9-2.5,11-1.8l0.2,0l0.1-0.2c0.5-1.2-0.9-12.8-1-14.1l0-0.2l-0.2,0c0,0-3.3,0.2-7.7-0.4
			c-3.3-0.4-4.3,2.8-4.9,4.5c-0.1,0.4-0.3,0.8-0.4,1c-0.5-0.5-0.8-2.6-0.9-4l-0.1-0.8l-0.4,0.6c-0.1,0.1-1.3,2-1.3,5
			c-0.7-1.3-0.6-3.5-0.6-3.6l-0.5-0.1c0,0-0.7,1.6-1.6,3.7c-0.7-6.7,2.8-7.3,4.7-7.7c0.3-0.1,0.5-0.1,0.7-0.2
			c1.5-0.6,11.9-0.2,13,0.1l0.2,0.1l0.1-0.2c0.7-1.3,0.1-6.8,0-8l0.1-0.1l-0.1-0.2l-0.2,0.1l0.1-0.1c-0.1,0-0.6-0.4-3.7-3.6l0-0.1
			l-0.1,0c-4.3-1.1-8.4-6.2-8.4-6.2l-0.2-0.3L407,300c-0.1,0.1-0.1,0.2-0.2,0.3c-2.9-3.1-4.3-6.5-4.2-10.3c0.3-8.3,8-15.4,8-15.5
			l0.1-0.1l0.1-0.5c-0.1,0-0.2,0.1-0.3,0.1l-0.1,0l-0.1,0c0,0,0,0-0.1,0l0,0.2c-0.8,0.7-7.9,7.7-8.1,15.8c-0.1,4,1.4,7.6,4.5,10.9
			L406.8,301z"/>
		<path d="M403.8,269.1c0.4-0.7,3.7-1.9,6.9-2.8l0.4-0.1l-0.2-0.3c0,0-1.6-2.3,0.8-5.2c1.9-1.7,4.4-2.2,6.9-1.3
			c2.3,0.8,3.9,2.6,4.2,4.6l0,0.3l0,0c0.1,0.9-0.2,4.4-4.1,7.6c-3.9,4.5-2.1,13.5-2,13.9l0,0.1l0,0c0.1-0.1,0.2-0.2,0.4-0.2
			c0,0,0.1,0,0.1,0c-0.2-0.8-1.7-9.3,1.9-13.4c4.4-3.7,4.4-7.5,4.2-8.3c0-0.1,0-0.1,0-0.1l0,0c0-0.1-0.1-0.2-0.1-0.3
			c-0.2-0.9-0.6-1.7-1.2-2.4c-0.1-0.1-0.2-0.3-0.4-0.4c0,0,0,0,0,0c-0.8-0.8-1.7-1.4-2.8-1.8c-1.3-0.5-2.7-0.6-3.9-0.3
			c-0.2,0-0.3,0.1-0.5,0.1c0,0,0,0,0,0c-0.9,0.3-1.8,0.7-2.7,1.4c-0.1,0.1-0.2,0.2-0.3,0.3c0,0,0,0-0.1,0.1c-2.1,2.6-1.4,4.7-1,5.5
			c-1.7,0.5-6.7,2-7,3.1c0,0.2,0,0.3,0.1,0.4c0,0,0.1,0,0.1,0.1l-0.1-0.4C403.5,269.1,403.7,269.1,403.8,269.1z"/>
		<path d="M411.2,268.6C411.2,268.6,411.2,268.6,411.2,268.6l0.1,0.1c0.1,0.1,0.1,0.1,0.2,0.2l0.1-0.4L411.2,268.6z"/>
		<path d="M410.9,268.7L410.9,268.7c-2.1,0.3-4.5,0.6-5.9,0.6c-0.4,0.1-0.9,0.2-1.3,0.3c1.1,0.5,4.7,0,6.7-0.4
			C410.6,269,410.8,268.8,410.9,268.7z"/>
		<path fill="#9CA69C" d="M408.5,292.7c0-0.2,0-0.4,0-0.5l0,0l0.3-0.4l0.2,0.1l-0.1,0.1l0.1-0.1c0.1,0.1,0.5,0.4,0.8,0.6
			c-0.1-0.6-0.3-1.3-0.5-1.6l-0.2-0.5l1.4,0.4l-0.9-1.6l2.2,0.3c-0.6-1.6-0.4-1.8-0.4-1.9l0.1-0.1l0.2,0c0.2,0,0.9,0.1,1.3,0.1
			c-2.3-4.5-0.9-8.5,0.5-12.4c0.2-0.6,0.4-1.3,0.6-1.9c-2.4,3-9.1,12.3-5.9,20C408.5,293.2,408.5,292.9,408.5,292.7z"/>
		<path fill="#9CA69C" d="M408.7,295.1l0.1-0.7c0.1-0.7,0.2-1.2,0.2-1.6c0,0,0,0,0-0.1c0.4,0.3,1.1,0.8,1.3,0.7l0.2-0.2l-0.1-0.1
			c0-0.5-0.2-1.3-0.4-1.7l1.6,0.4l-0.9-1.7l2.1,0.2l-0.1-0.4c-0.2-0.6-0.5-1.3-0.5-1.7c0.4,0,1.2,0.1,1.5,0.1l0.5,0l-0.2-0.4
			c-2.5-4.5-1.2-8.3,0.3-12.4c0.4-1,0.7-2.1,1-3.1l-0.4-0.2c-0.1,0.1-11.4,12.7-6.5,22.3L408.7,295.1z M414.4,273.5
			c-0.2,0.6-0.4,1.3-0.6,1.9c-1.4,3.9-2.8,7.8-0.5,12.4c-0.5,0-1.2-0.1-1.3-0.1l-0.2,0l-0.1,0.1c-0.1,0.1-0.2,0.3,0.4,1.9l-2.2-0.3
			l0.9,1.6l-1.4-0.4l0.2,0.5c0.1,0.3,0.4,1.1,0.5,1.6c-0.3-0.2-0.8-0.6-0.8-0.6l-0.1,0.1l0.1-0.1l-0.2-0.1l-0.3,0.4l0,0
			c0,0.1,0,0.3,0,0.5c0,0.2,0,0.4-0.1,0.7C405.3,285.8,412,276.4,414.4,273.5z"/>
		<path fill="#9CA69C" d="M419.2,262.2c0.1,1.2,0,4.2-1.9,5.2c-0.1,0-0.2,0.1-0.4,0.2c-0.6,0.3-1.2,0.7-1.1,1.1
			c0.1,0.4,0.2,0.6,0.3,0.7c0.2,0.1,0.6,0,1.1-0.1l0.1,0c1.3-0.2,2.7-2,3.1-3.7C420.6,264.7,420.6,263.3,419.2,262.2z"/>
		<path fill="#9CA69C" d="M419.1,261.4l-0.5-0.3l0.1,0.5c0,0,0.5,4.1-1.6,5.3c-0.1,0.1-0.2,0.1-0.3,0.2c-0.6,0.3-1.6,0.8-1.4,1.7
			c0.1,0.5,0.3,0.8,0.6,1c0.2,0.1,0.4,0.1,0.6,0.1c0.3,0,0.6-0.1,0.9-0.1l0.1,0c1.5-0.3,3.1-2.2,3.5-4.2
			C421.2,263.9,420.6,262.4,419.1,261.4z M420.4,265.6c-0.3,1.8-1.8,3.5-3.1,3.7l-0.1,0c-0.5,0.1-0.8,0.2-1.1,0.1
			c-0.2-0.1-0.3-0.3-0.3-0.7c-0.1-0.4,0.5-0.8,1.1-1.1c0.2-0.1,0.3-0.2,0.4-0.2c2-1.1,2-4,1.9-5.2
			C420.6,263.3,420.6,264.7,420.4,265.6z"/>
		<circle fill="#FFFFFF" cx="413.9" cy="265.4" r="0.9"/>
		<path fill="#D90000" d="M410.5,273.6c2.1-0.6,2.3-1,2.4-1.4c0.1-0.2,0.1-0.4,0.3-0.6c0-0.8-0.6-1.2-1.3-1.7
			c-0.3-0.2-0.6-0.4-0.8-0.7c-0.6,0.6-1.9,2.1-1.7,3.2C409.5,273,409.8,273.3,410.5,273.6z"/>
		<path d="M410.4,274.1L410.4,274.1c0.2-0.1,0.3-0.1,0.4-0.1c2-0.6,2.3-1.1,2.6-1.7c0.1-0.2,0.1-0.3,0.3-0.5l0.1-0.1l0-0.1
			c0-1.1-0.8-1.7-1.5-2.2c-0.3-0.2-0.5-0.4-0.7-0.6c-0.1-0.1-0.2-0.1-0.2-0.2l-0.1-0.1l0-0.1l-0.1,0.1l-0.1,0.1
			c-0.1,0.1-0.3,0.3-0.6,0.6c-0.7,0.8-1.7,2.1-1.5,3.3c0.1,0.7,0.6,1.2,1.4,1.5C410.3,274.1,410.3,274.1,410.4,274.1L410.4,274.1z
			 M411.1,269.3c0.3,0.2,0.6,0.5,0.8,0.7c0.7,0.5,1.3,0.9,1.3,1.7c-0.2,0.2-0.3,0.4-0.3,0.6c-0.2,0.4-0.3,0.8-2.4,1.4
			c-0.7-0.3-1-0.6-1.1-1.1C409.2,271.4,410.4,269.9,411.1,269.3z"/>
		<path fill="#9CA69C" d="M418.1,300.3c-0.2,1-0.5,2.9,0.1,4.4c1.5-0.6,2.6-0.8,3.4-0.7C420.3,302.9,419.4,302.1,418.1,300.3z"/>
		<path fill="#9CA69C" d="M423.1,304.6c-2.2-1.8-3.1-2.5-5-5.1l-0.3-0.4l-0.2,0.7c-0.2,0.9-0.8,3.4,0.2,5.4l0.1,0.2l0.2-0.1
			c2.7-1.1,3.8-0.8,4.6-0.2L423.1,304.6z M418.2,304.7c-0.6-1.5-0.3-3.4-0.1-4.4c1.4,1.8,2.2,2.6,3.5,3.7
			C420.8,303.9,419.7,304.1,418.2,304.7z"/>
		<path fill="#FFFFFF" d="M423,317.9c0.5,0.1,2,0.3,2.8,0c0.1,0,0.2-0.2,0.2-0.4c0.1-1.2-1-3.5-3.1-4.9L423,317.9z"/>
		<path fill="#FFFFFF" d="M422.3,311.6l0.2,6.7l0.2,0c0.1,0,1,0.2,1.9,0.2c0.5,0,1,0,1.3-0.2c0.2-0.1,0.5-0.3,0.5-0.9
			c0.1-1.4-1.2-4.2-3.7-5.7L422.3,311.6z M426,317.4c0,0.2-0.1,0.4-0.2,0.4c-0.7,0.3-2.2,0.1-2.8,0l-0.1-5.4
			C425,313.9,426.1,316.3,426,317.4z"/>
		<path fill="#9CA69C" d="M430.1,299c0.1,0.1,0.2,0.1,0.2,0.2l0.1-0.1C430.4,299.1,430.3,299,430.1,299z"/>
		<path fill="#9CA69C" d="M428.9,301.5c-0.7-0.5-0.7-0.5-0.7-0.6l0-0.1l0,0c-1.4-1.3-3.6-3.3-4-3.5c-0.6-0.1-2.7-1.4-3.4-1.8
			c-0.9-0.5-1.7-2.4-1.2-3.6c0.3-0.7,1.1-1.8,3.9-1c5.3,2.5,6.1,2.8,6.1,2.8l5.2,1.6c-0.2-0.2-0.4-0.4-0.8-0.8l-0.6-0.6l0.9,0.2
			c0.9,0.2,1.8,0.5,2.8,0.8c-2.4-0.8-9.3-4.2-14.1-6.6c-1.5-0.7-2.7-1.3-3.4-1.6c-0.8-0.4-1.4-0.5-1.9-0.5c-0.2,0-0.3,0-0.5,0.1
			c-0.5,0.2-0.7,0.6-0.9,1.1c0,0.1-0.1,0.2-0.1,0.2l0,0.1l0,0c-0.3,0.2-0.8,2.8-0.1,5.7c0.7,2.7,2.6,6.2,7.8,7.5
			c8.4,2,12.5,9,13.7,11.2c0-0.2,0.1-0.5,0.1-0.8C437.1,308.7,434.6,305.5,428.9,301.5z"/>
		<path fill="#9CA69C" d="M437.8,294.9c-0.1,0-0.2,0-0.3-0.1C437.6,294.9,437.8,294.9,437.8,294.9
			C437.9,294.9,437.8,294.9,437.8,294.9z"/>
		<path d="M416.8,285.8c-0.4,0.3-0.6,0.7-0.8,1.1c0,0.1-0.1,0.1-0.1,0.2c-0.5,0.6-0.9,3.2-0.3,5.9c0.7,3,2.7,6.8,8.3,8.2
			c3.5,0.8,6.2,2.5,8.3,4.4c1.9,1.7,3.3,3.5,4.2,4.9c0.9,1.4,1.3,2.3,1.3,2.3l0.2,0.2l0.2-0.1c0.1,0,0.1-0.2,0.2-0.4
			c0-0.5-0.1-1-0.3-1.5c0,0.3-0.1,0.6-0.1,0.8c-1.2-2.3-5.4-9.2-13.7-11.2c-5.2-1.3-7.2-4.8-7.8-7.5c-0.7-2.9-0.2-5.5,0.1-5.7l0,0
			l0-0.1c0-0.1,0.1-0.2,0.1-0.2c0.2-0.4,0.4-0.9,0.9-1.1c0.1-0.1,0.3-0.1,0.5-0.1c0.5,0,1.1,0.2,1.9,0.5c0.7,0.3,1.9,0.9,3.4,1.6
			c4.7,2.3,11.7,5.7,14.1,6.6c0.1,0,0.2,0.1,0.3,0.1c0.1,0,0.2,0.1,0.3,0.1c0,0,0,0,0.1,0.1c0.2,0.1,0.5,0.2,0.7,0.3
			c-0.2-0.5-0.4-0.8-0.7-0.8c-1.4-0.2-9.7-4.3-14.6-6.7c-1.5-0.7-2.7-1.3-3.4-1.6c-1.1-0.5-2-0.7-2.6-0.5c0,0-0.1,0-0.1,0
			C417.1,285.6,417,285.7,416.8,285.8z"/>
		<path fill="#D90000" d="M439.9,299.7l-0.3,0.4c-1.8-0.9-4.3-2.1-5.9-2.8l-0.1,0.1c1.1,1.2,1.8,2.5,1.8,2.5l0.3,0.5l-1-0.3
			c-1.2-0.4-2.3-0.7-3.5-0.9l-0.4,0.3c0.7,0.6,1.1,0.9,1.2,1.4l0.1,0.4l-0.4-0.1c-1.2-0.3-2.3-0.3-2.8-0.3c0.1,0.1,0.2,0.1,0.3,0.2
			c5.3,3.7,11,8.9,9.3,13.7c2.6-2.4,1.7-5.9,1.7-6.1l0.5-0.2c0,0.1,3,8.2-4.3,12.3c0.5,0.3,0.8,0.3,0.8,0.3l0.9-0.2l-1.7,1.7
			c0.5-0.1,1.5-0.5,4-1.7l0.3,0.4c-1,0.8-1.3,1.4-1.4,1.7c0,0,0,0,0.1,0c0.2,0,1.1-0.1,3.2-2l0.4,0.4c-1.3,1.4-2.4,2.8-3,3.9
			c3.8-0.9,9.8-7.6,10.4-14.9c0.6-7.5-4.8-13.1-15.1-15.9c0.2,0.2,0.4,0.4,0.5,0.5l0,0l0.2,0.2l0,0c0,0,0,0,0,0.1l0.3,0.1
			L439.9,299.7z"/>
		<path d="M437.9,295c-0.1,0-0.3-0.1-0.4-0.1c-0.1,0-0.2-0.1-0.3-0.1c-1-0.3-1.9-0.6-2.8-0.8l-0.9-0.2l0.6,0.6
			c0.3,0.3,0.6,0.6,0.8,0.8l0.9,0.3c0,0,0,0,0-0.1l0,0l-0.2-0.2l0,0c-0.1-0.1-0.3-0.3-0.5-0.5c10.3,2.8,15.7,8.4,15.1,15.9
			c-0.6,7.3-6.6,14-10.4,14.9c0.6-1.1,1.7-2.4,3-3.9l-0.4-0.4c-2.2,1.9-3,2-3.2,2c0,0,0,0-0.1,0c0.1-0.2,0.4-0.9,1.4-1.7l-0.3-0.4
			c-2.5,1.2-3.5,1.6-4,1.7l1.7-1.7l-0.9,0.2c0,0-0.3,0.1-0.8-0.3c7.3-4.1,4.3-12.3,4.3-12.3l-0.5,0.2c0,0.2,1,3.6-1.7,6.1
			c1.7-4.8-4-10-9.3-13.7c-0.1-0.1-0.2-0.1-0.3-0.2c-0.2,0-0.3,0-0.3,0l-0.1,0l-0.1-0.1c0,0-0.1-0.1-0.1-0.1l0,0l0,0.1
			c0,0.2,0,0.2,0.7,0.6c5.7,4,8.2,7.1,9,9.6c0.2,0.5,0.3,1,0.3,1.5c0.1,1.1-0.2,2.1-0.7,2.9l0.4,0.3c1.9-1.3,2.6-3,2.8-4.4
			c0.3,2.7-0.3,6.7-5,9.2l-0.3,0.2l0.3,0.2c0.4,0.3,0.7,0.5,1,0.6l-0.9,0.9l0,0c-0.1,0.1-0.1,0.3,0,0.4c0.1,0.2,0.4,0.5,3.5-1
			c-0.5,0.6-0.5,1-0.5,1.1l0,0.1l0,0.1c0,0,0.1,0.3,0.4,0.3c0.4,0.1,1-0.1,1.8-0.6c-0.7,0.9-1.3,1.7-1.7,2.5l-0.1,0l0,0.4l0.2,0
			c0,0,0,0,0.1,0c0,0,0,0,0.1,0c2-0.2,4.7-2.1,7-5c2.5-3.1,4.1-7,4.3-10.5c0.7-8.6-6.1-13.1-12.2-15.3
			C438.4,295.1,438.1,295,437.9,295z"/>
		<path d="M430.5,299.1l-0.1,0.1c0.2,0.1,0.3,0.2,0.4,0.3l0.4-0.3C430.9,299.2,430.7,299.1,430.5,299.1z"/>
		<path d="M433.4,297.2c0.1,0.1,0.1,0.1,0.2,0.2l0.1-0.1C433.6,297.3,433.5,297.2,433.4,297.2z"/>
		<path fill="#FFFFFF" d="M438.6,299.1l-2.8-3.1l-6.3-2c0,0-0.8-0.3-6.2-2.8c-1.8-0.5-2.9-0.2-3.3,0.7c-0.4,1.1,0.3,2.7,1,3
			c1.3,0.8,2.9,1.7,3.2,1.8l0.1,0c0.6,0.3,3.7,3.1,4.3,3.7c0.1,0,0.3,0,0.4,0c0.5,0,1.3,0,2.2,0.2c-0.3-0.4-1-0.8-2.1-1.6l-0.3-0.2
			l0.2-0.5c2,0.3,3.6,0.8,5.5,1.3c-0.4-0.7-1.3-1.9-2.4-2.9l-0.6-0.5l0.8,0.1C433,296.3,436.7,298.1,438.6,299.1z"/>
		<path d="M423.5,290.7c-2.8-0.8-3.7,0.3-3.9,1c-0.5,1.3,0.3,3.2,1.2,3.6c0.6,0.4,2.8,1.7,3.4,1.8c0.5,0.2,2.7,2.2,4,3.5
			c0,0,0.1,0.1,0.1,0.1l0.1,0.1l0.1,0c0,0,0.1,0,0.3,0c0.5,0,1.6,0,2.8,0.3l0.4,0.1l-0.1-0.4c-0.2-0.5-0.5-0.8-1.2-1.4
			c-0.1-0.1-0.3-0.2-0.4-0.3c-0.1-0.1-0.1-0.1-0.2-0.2c0.1,0,0.2,0,0.3,0.1c0.2,0,0.4,0.1,0.7,0.1c1.2,0.3,2.3,0.6,3.5,0.9l1,0.3
			l-0.3-0.5c0-0.1-0.7-1.3-1.8-2.5c-0.1-0.1-0.1-0.1-0.2-0.2c0.1,0,0.2,0.1,0.3,0.1c1.6,0.7,4.2,1.9,5.9,2.8l0.3-0.4l-3.7-4.2
			l-0.3-0.1l-0.9-0.3l-5.2-1.6C429.7,293.5,428.8,293.2,423.5,290.7z M432.3,296.3l-0.8-0.1l0.6,0.5c1.2,1,2,2.2,2.4,2.9
			c-1.9-0.5-3.5-1-5.5-1.3l-0.2,0.5l0.3,0.2c1.1,0.8,1.8,1.3,2.1,1.6c-0.9-0.2-1.7-0.2-2.2-0.2c-0.2,0-0.4,0-0.4,0
			c-0.6-0.6-3.6-3.5-4.3-3.7l-0.1,0c-0.3,0-1.9-0.9-3.2-1.8c-0.7-0.3-1.4-1.9-1-3c0.4-0.9,1.5-1.2,3.3-0.7c5.3,2.5,6.1,2.8,6.2,2.8
			l6.3,2l2.8,3.1C436.7,298.1,433,296.3,432.3,296.3z"/>
		<path fill="#FFFFFF" d="M405,269.3c2.6-0.6,5.1-1.1,5.5-1l0.1-0.5c-0.7-0.2-5.2,0.8-6.8,1.2c-0.2,0-0.3,0.1-0.4,0.1l0.1,0.4l0,0.1
			c0,0,0.1,0,0.1,0C404.1,269.5,404.6,269.4,405,269.3z"/>
	</g>
	<path fill="none" stroke="#999999" stroke-width="0.25" stroke-linecap="round" stroke-linejoin="round" d="M426.4,387.8l-0.2-0.5
		l-0.6-0.4l-0.5,0.1l0,0.5l0.2,0.7l0.3,0.5l-0.4-0.1l-0.8-0.1l-0.4-0.1l0.1,0.5l0.1,0.3l0.2,0l1.5-0.4l0.6-0.1l0.7,0v-0.4l-0.7-0.2
		L426.4,387.8z M396.6,421.5l-0.5-0.2l0,0.9l0,0h0.7l0-0.4L396.6,421.5z M433.2,389.5l-0.4,0.3l-0.4-0.2l-0.2,0l-0.1,0.4l0,0.8
		l0,0.2l-0.7,0.5l-1,0.1l-0.8,0.4l1.2,0.7l-0.2,1l-0.9,1l-0.8,0.6l0.2,0.4l0.2,0.2l0.3,0.1l0.4,0l0.5-0.3l0.5-0.4l0.3-0.5l-0.2-0.6
		l0.6-0.2l0.4-0.4l1.1-2l0.1-0.6l0-0.8h0.4l0.4,0.7l0-0.5l0.1-0.4l0.3-0.9l-0.8,0.2L433.2,389.5z M447.5,373.7l-0.4,0.4l-0.1,0.7
		l-0.5-0.1l-0.6-0.2l0.2-0.9l-0.4-0.9l-0.7-0.7l-0.6-0.4l0.1,0.6l0.3,0.6l0.7,1v0.3l-0.5-0.1l-0.3-0.3l-0.2-0.4l-0.1-0.6l-0.3,0.5
		l-0.3,0.2l-0.4,0l-0.5-0.3l0.1,0.6l0.2,0.6l0,0.5l-0.4,0.5l-0.4,0l-0.4-0.4l-0.4-0.2l-0.6,0.7l-0.7-0.4l0.3,0.6l0.5,0.4l0.6,0.1
		l0.8,0l1,0.3l1.2-0.6l0.8,0.3l-0.7,0.4v0.4l1.3-0.2l1.1-0.5l0.9-0.8l0.7-1.1l-0.7-0.3L447.5,373.7z M422.6,388.1l-0.3-0.9l-1.2-1.2
		l-0.4-0.8l-0.5,0.2l-0.2,0.3l0.1,0.4l0.3,0.5l-0.5,0.2l-0.5,0l-0.5-0.2l-0.4-0.4l0.4-0.7l-2.3,0.8l-1.3,0.3l-1.1-0.1l-0.7-0.8
		l0.2-1l0.9-1.8l-0.1-0.9l-0.8-0.3l-2.4,0.1l-1.4-0.3l-0.6-0.1l-0.5,0.2l0.1,0.5l0,0.5l-0.8,0.2v0.3l1.4,0.5l0.8,0.4l0.3,0.4
		l0.1,0.4l0.2,0.1l0.2,0.1l0.3,0.3v0.2l-0.3,0.4l-0.1,0.3l0.6,0.4l1.5,0.4l1.5,0.1l0.8-0.5h0.3l0.5,0.5l0.8,0.5l0.5,0.5l-0.4,0.7
		l0.5,0.2l0.5,0.4l0.4,0.6v0.6l-0.3,0.3l-0.5,0l-0.4-0.2l-0.4-0.5l-0.6,0.5l-0.5,0.7v0.4l-0.6,0l-0.5,0.1l-0.3,0.2l-0.2,0.3v0.4
		l0.3,0.5l-0.2,0.7l-0.8,1.4l-0.9,1l-0.2,0.5l0.3,0.7h1.5l0-0.4l0.1-0.4l0.4-1l0.2,0.1l0.6,0.1l0.2,0.1l-0.2-0.7l0-1l-0.1-0.4l2-0.4
		l0.9,0.1v0.3l-0.3,0.4l0.1,0.3l0.5,0.3l0.6,0.1l0.2-0.2l0.2-0.4l0.3-0.4l0.6-0.1l-0.4-2l-0.2-2.4l0.6-1.8L422.6,388.1z
		 M424.8,383.1l-0.7-0.9l-0.4-0.8l-0.2-0.6l-0.6-0.6l-0.8-0.3l-0.8,0.3l0.5,0.2l0.5,0.3l0.4,0.4l0.4,0.6l-0.5,0.3l-0.1,0.3l0.2,0.4
		l0.5,0.4l0.1-0.3h0.1l0.2-0.1l0.1,0.4l0.2,0.2l0.2,0.2l0.2,0.3l1-0.1L424.8,383.1z M478.7,354.3l-0.5-0.5h-1v0.4l0.4,0.1l0.3,0.2
		l0.2,0.3l0.1,0.5h-0.3l-0.5-0.2l-0.4,0.4l-0.1,0.7l0.3,0.6l-0.4-0.2l-0.1-0.1l-0.2-0.2l-0.5,0.6l-0.5-0.1l-0.3-0.4l0.2-0.5v-0.3
		l-1.2,0l-0.1-0.6l0.5-0.7l0.7-0.5l-1-0.4l-1.1,0l-2.1,0.3l-0.3,0.2l-1.2,1.5l-0.3,0.6l0.2,0.3l0.7,0.4l1.8,1.8l0.2,0.3l0.2,0.2
		l-0.1,0.4l-0.3,0.4l-0.6,0.2l-0.5,0l-1.5-0.3l1.1,1.8h0.4l0.6-0.6l0.9,0.6l0.8,1.2l0.2,1.3l0.6-0.2l0.4-0.4l0.2-0.5l0-0.6h0.4
		l0,2.1l0.3,0.8l0.9,0.4l0.4-0.1l0.1-0.1l0.1-0.2l-1.1-0.6l-0.3-1.2l0.3-1.2l0.7-0.6l-0.7-0.3l-0.4-0.6l0-0.7l0.4-0.6l-0.3-0.8
		l0.3-0.4l0.6,0.1l0.4,0.8l0.4-0.5l0.4-0.3l0.4-0.1l0.3,0.2l0.3-0.6l0.2-0.7l0.3-0.6l0.7-0.3l-0.6-0.8L478.7,354.3z M503.2,364.4
		l-1,0.2l-0.7-1.2l-1.4,0l-1.1,0.8l0.2,1.2l0.6,0.3l2.1,0.4l0.6,0.1l0.6-0.2l0.5-0.3l0.6,0l0.8,0.5l0.2-0.8l-0.8-0.6L503.2,364.4z
		 M564.6,268l-1.2-1.2l-0.5-0.5l-0.4-0.9l-0.2-1.1l-0.1-1.1l0.1-1l0.5-2.3v-1l-2.4-5.7l-3-7.2l-0.3-2.1l0.5-1.3l1-0.7l1.1-0.6
		l0.8-0.9l0.1-1.2l-0.5-0.9l-1.5-1.5l-0.3-1l-0.3-2.6l-0.5-0.7l-0.5,0.1l-0.4,0.4l-0.4,0.4l-0.7-0.1l-0.5-0.5l-2.2-4.6l-0.8-4.6
		l-1.1-3.3l-0.2-0.5l-0.4-0.5l-0.3-0.1l-1.5-0.7l-0.1-0.1l-0.1-0.1l-0.1-0.2l-0.1-0.2l-0.2-0.1l-0.1,0.1l-0.2,0.4l-0.1,0.1l-0.2,0.1
		l-0.6,0.5l-0.3,0.1l-0.7-0.2l-0.5-0.5l-0.8-1.3l-1.7-1.9l-0.5-0.9l-1.5-8l-0.6-1.1l-1.1-0.7l-2.5-0.7l-1.1-0.7l-0.6-1.2l-0.5-6.5
		l-0.7-2.1l-0.4-0.6l-0.5-0.5l-0.4-0.6l-0.1-0.6l0.2-0.6l0.5-1.3l0.1-0.5l-0.2-0.6l-0.7-1.1l0-0.6l0.3-0.5l0.5-0.2l0.5-0.1l0.5-0.3
		l1-1.5l0.5-2.1l0.1-4.2l-0.4-1.1l-0.8-0.5l-1-0.3l-1-0.5l-1.7-1.8l-1-0.4l-1.4,0.4l-0.5,0.5l-0.2,0.5l-0.2,0.2l-0.6-0.3l-0.8-2.1
		l-1.2-1.5l0-0.3l-0.6,0l-1.1,0.3l-1,0.1l-0.9,0.2l-0.4,0l-0.7-0.3l0.4-0.4l1.1-0.7l-0.7-0.8l-0.8-0.3l-0.1-0.3l2.5-1.3l0.6-0.7
		l-0.1-0.7l-1.2-0.6h-1l-2.1,0.7l-0.8,0.2l-1.2-0.4l0.1-1l0.7-1.2l0.6-1.4l-0.1-0.9l-0.6-0.6l-0.8-0.5l-0.6-0.6l-0.4-0.8l0-0.5
		l0.2-0.5l0.2-0.7l0.1-1.2l0-0.6l-0.2-0.6l-0.4-0.6l-0.6-0.5l-0.5-0.6l-0.1-0.7l0.1-1.6l-0.7-1.2l-1.2-0.9l-1.5-0.7l-4.3,4.3
		l-4.4,4.3l-5.9,5.9l-5.1,5.1l-3.9,3.9l-2.2,1.3l-2.3,0.3l-8.5-0.4l-4.8-0.2l-1.6-0.3l-1.1-0.6l-6.7-5.4l-1.1-0.4l-0.9,0.3l-3.2,2.4
		l-4.2,2.1l-4.5,1.3l-8.3,0.7l-9.7,0.8l-2.3,0.5l-9.8,5.9l-0.6,0.7l-0.1,0.7l0.2,1.9l0,0.8l-0.2,1.1l-0.4,0.5l-0.6,0l-3.3-0.7
		l-0.9-0.5l-0.8-0.8l-1-1.6l-0.6-0.3l-4.6-0.3l-0.7-0.4l-0.4-0.9l-0.2-2.4l-0.2-1l-0.7-1.3l-3.8-4.2l-1.2-1l-1.4-0.6l-0.2,0
		l-0.1,0.3l-4.2,4.7l-0.5,0.4l-1,0.4l-5.5,0.8l-0.9,0.5l-0.6,0.8l-0.6,0.5l-1-0.2l-6.8-3.7l-4.4-2.4L366,170l-2.2-0.3h-2.5L360,170
		l-3.4,2.6l-0.5,0.2l-1,0.2l-0.5,0.2l-1.6,1.3l-0.7,0.3l-0.5,0.1l-1.1,0l-0.6,0.2l-0.6,0.5l-0.3,0.6l-0.2,0.6l-0.2,0.6l-3.5,5.1
		l-1.2,2.3l-0.2,0.8l1.2-0.4l1-0.9l0.8-0.3l0.7,1.3l0,0.5l-0.4,1.5l0.1,0.6l0.5,1.1l0.1,0.6l-0.3,1.1l-0.7,1l-1.5,1.7l-1,1.8
		l-0.1,0.3l-0.1,0.6l-0.2,0.3l-0.2,0.1l-0.7,0.1l-0.2,0.1l-1,1.9l-3,8.9l-0.2,1.1l0.1,1l0.6,0.8l2.5,1.7l0.9,0.8l1.2,2.1l0.6,2.1
		l-0.1,2.1l-1.3,3.5l-0.4,0.5l-0.2,0.1l-0.6,0.1l-0.2,0.1l-0.1,0.3l0,0.5l-0.1,0.3l-1.8,4.7l-0.1,0.9l-0.1,0.4l-1,1.6l-0.2,0.5
		l-0.1,1l0.2,1.9l0,0.9l-0.4,0.8l-0.7,1.1l-0.5,1.1l0.1,0.9l0.8,0.2l3.7,0l0.5,0.3l0.1,0.6l0,0.8l0.1,0.8l0.5,0.9l0.9,1l1,0.9
		l0.9,0.4l1.5-0.7l0.7-1.7l0.9-1.4l2,0l0.9,0.6l3,3.3l0.1,0.2l0.1,0.4l-0.1,0.3l-0.3,0.2l-0.2,0.2l0.3,0.5l0.8,0.4l2.3,0.4l0.7,0
		l0.9-0.1l2.6-1l0.1,2.3l0.2,1.1l0.4,0.9l1.1,0.9l3,1.7l0.1,0.2l1.4-1.1l0.5-0.8l0.2-1.1l0.4-1l0.5-0.9l2.3-2.5l1-0.6l2.8-1l0.6-0.4
		l0.5-0.6l0.2-0.6l0.2-1.4l0.3-0.5v2.6l-0.3,1.3l-0.9,0.5l-0.9,0.2l-1.1,0.6l-1.8,1.3l-0.3,0.3l-0.5,0.5l-0.3,0.5l-0.1,0.5l0.1,2.4
		l0.1,0.5l0.7,0.8l0.8,1.2l0.3,1.2l-0.9,0.9l1.3,3.3l0.1,1.8l-1,1.5l0.9,2.3l0.2,0.8v1.3l-0.1,0.3l-0.2,0.2l-0.1,0.2l-0.3,2
		l-0.7,1.3l-1.2,0.7L370,273l-0.5,1.1l-0.3,2.7l-0.3,1.2l-0.7,1.3l-0.8,0.9l-2.1,1.5l-3,2.9l-3.2,1.7l-0.6,0.2l-0.7-0.1l-0.6-0.2
		l-0.5-0.1l-0.6,0.4l-0.4-0.2l-0.4-0.2l-0.7,1.6l-1.5,0.8l-1.9,0.3l-1.5,0.8l-0.9,1.3l-1.6,3.1l-8.9,10.2l-0.5,0.9l-0.1,0.8v0.9
		l-0.2,0.9l-5.8,6.2l0.2,0.3v0.2l-0.3,0.2l-0.5,0.1l0.5,0.3l0.2,0.1v0.3l-0.7,0.2h-0.7l-0.6-0.3l-0.5-0.5l-0.5,0.4l-0.2,0.4
		l-0.2,0.5l-0.4,0.2l-0.2-0.5l0.1-0.5l0.2-0.5l0.1-0.6l-0.9,0.9l-0.6,0.4h-0.5l-0.3-0.5l0.2-0.5l0.4-0.5l0.2-0.5l0.1-1.2l-0.2-0.7
		l-0.5-0.7l-0.5-1l0.3-1l-0.3-1.1l-0.1-0.9l1.2-0.5v-0.4l-0.8-0.4l-0.8-0.8l-1,0.9l-0.7,0.5l-0.7,0.3l-1,0.3l-0.7,0.1l-1.2-0.1
		l-0.6,0.1l-0.9,0.7l-0.7,1.1l-0.6,0.7l-0.9-0.4l-0.6-0.5l-0.5-0.1l-0.5,0.1l-0.5,0.2l-1.6,1.6L312,310l-0.1,1.1l-0.1,0.5l-0.2,0.5
		l-0.7,0.6l0,1l0.3,2.1l-0.4,1l-1.2,1.3l-0.2,0.8l-0.2,0.2l-1,1.8l-0.6,0.7l-0.5,0.3l-5.7,1.3l-2.2,1l-1.9,1.5l-0.7,0.4l-1,2.1
		l-0.1,0.5l0.3,2.7l-0.7,4.4l0,1.1l1,4.3l0.1,2.1l-0.9,2l-3.8,4.4l-0.6,1l-0.4,1.1l-1.7,8.7l-0.2,0.4l-0.5,0.3l-0.4-0.1l-0.4-0.3
		l-0.6-0.2l-0.3,0.6l-2.3,3.2l-0.5,1.4l-0.1,0.9l0.6,2.3l0,1l-0.3,1l-0.8,1.9l-0.3,1.6l0.3-0.5l0.7-0.6l1.3-0.2l1.2,0.4l0.8,0.9
		l0.3,1.2l0.3,0.5l0.6,0.1l0.6,0l0.3,0.2l0,0.6l0.1,0.5l0.2,0.3l0.4,0.2l0.7,0.1l0.5-0.2l0.4-0.3l0.5-0.3l1.4-0.4l0.7,0l0,0.4
		l-0.7,2.2l-0.5,3.4l-0.6,2.1l-0.9,1.8l-1.1,1.6l-0.8,0.8l-1.7,0.8l-1.9,1.6l-1,0.3l-1,0.2l-1.1,0.3l-0.7,0.6l-1.2,1.6l-0.4,0.2
		l0.2,0.5l0.2,0.8l0.2,3.2L281,400l-0.4,0.3l-0.6,0l-0.5,0.1l-0.2,0.6l0.1,0.3l0.4,0.6l0.1,0.3l-0.1,0.4l-0.2,0.3l-0.3,0.2l-0.2,0.3
		l-0.7,4.1l0,1.1l0.5,2l0.1,1.1l-0.1,3.2l-0.2,0.8l-0.6,0.7l-1.6,0.5l-0.6,0.9l-0.1,0.5l0,0.5l0.2,1l0.1,0.8l-0.2,0.5l-0.3,0.5
		l-0.2,0.6l0.1,0.9l0.8,2l0.2,1l-0.1,1l-0.7,3.3l0,1.3l0.4,0.8l0.5,0.8l0.3,1.1l-0.1,0.4l-0.5,1.3l0,0.6l0.6,1.1l0.2,0.6l0,1
		l-0.5,3.1l2.1,0.1l1.1-0.1l1-0.3l1.1-0.6l0.8-0.6l0.9-0.5l1.3-0.2l0.6,0.1l1.1,0.7l0.4,0.1l0.4-0.3l0.3-1l0.5-0.6l0.5-0.3l0.5-0.1
		l0.5,0.1l0.6,0.3l1.5,2.2l0.2,1.1l0.1,2.2l0.5,1.1l0.9,0.9l1,0.3l1.1-0.1l1.2-0.4l3.6-2l0.5-0.1l0.5-1.1l0.7-0.7l1.8-1l2.2-0.8
		l0.6-0.5l0.3-0.8l0.3-2l0.4-0.7l0.4-0.2l0.4-0.1l0.4,0l0.4-0.1l0.8-0.5l2.4-2.2l0.7-0.9l0.6-1l0.1-0.4l0.1-0.8l0.1-0.3l0.4-0.3
		l0.9-0.4l0.3-0.3l0.3-0.8l0.3-2.2l0.5-0.8l0.8-0.3l0.9,0.1l0.9,0.3l0.9,0.1l0.8-0.2l0.7-0.3l0.7-0.1l1.3,0.4l0,0l0.1-0.1l0.4-0.3
		l0.7,0.1l0.4,0.3l0.3,0.3l0.3,0.1l0.6,0l1-0.2l2.7-0.2l1.2,0.1l1.3,0.4l0.7-0.6l1.9-2l0.8-0.4l2-0.6l2-1l1.9,0.5l0.8,0.4h50.6
		l0.1-0.2l0.1-0.5l-0.1-0.4l-0.7-0.4l-0.1-0.5l-0.2-2.3l0.1-3l-0.4-0.9l-1-0.2l-1.2,0l-0.9-0.2l-0.2-0.8l0.1-1.3l0.4-1.3l0.6-0.6
		l0-0.4l2-2.1l1.2-2.5l0.4-0.4l0.5-0.1l0.2-0.3l-0.1-0.4l-0.6-1L394,402l0.4-2.1l0.2-0.5l1.6-2.3l0.4-0.7l0.1-0.8l0.5-1.2l1.1-0.8
		l2.4-1.1l0.7-0.7l1.9-2.3l0.4-0.8l0.5-1.3l1.1-1.2l1.1-0.5l0.6,1.1h0.4l-0.1-0.8L407,385l-0.5-0.8l-0.4-0.6l-0.2-0.3l-0.1-0.4
		l-0.1-0.3l-0.4-0.1l-0.4,0l-0.3,0l-0.3-0.2l-0.3-0.5l0.3-1.3l0-0.8l-0.5-0.4l-0.5,0.1l-1.8,0.6l0.5-2.1l0.2-0.8l-0.3-0.1l-0.8-0.3
		l1.1-0.5l2.9-2.1l0.9,0.4l2.1,0.1l1,0.2l-0.4-1.2l-1.9-0.4l-0.5-1.2l0.8,0.2l0.3,0.2l2.1-0.8l1.5,0.5l1.5,0.9l2,0.5l1-0.2l0.6-0.6
		l0.3-0.8l0.1-0.9l-0.1-0.4l-0.5-1l-0.1-0.6l0.1-0.2l0.7-1l0,0.3l0,0.3l-0.1,0.2l-0.3,0.3l0.8,1.1l1.4,1l1.5,0.4l1.1-0.6l0.1-1
		l-0.6-0.9l-1.7-1.3l0.4-0.4l1.6,0.7l2,0.6l1.5,0.9l0,1.8l1.1,0l0.3,0l-0.6-1.1l0.3-3l-0.5-1.7l1.1-0.3l0.8,0.7l1.1-0.3l1-0.9
		l0.4-1.1l0.6,0.6l-0.1,0.7l-0.4,0.7l-0.5,0.5l-1.1,0.9l0.1,0.3l0.8,0.8l0.8,0.2l0.6-0.6l0.5-0.8l0.5-0.6l0.1-0.4l0.2-0.4l0.4-0.1
		l0.2,0.3l0.5,1.5l0.5-0.3l0.3-0.9l0.3-0.2l0.5,0.2l0.4,0.5l0.5,1.1l0.7-0.9l-1.4-2.2l0.4-0.9l0.5,0.3l1,0.4l0.5-0.1l-0.9-1.3l1-0.3
		l0.4,0v-0.4l-0.4-0.2l-1-0.6l0.2-0.7l-0.7-0.8l0.2-0.5l0.6-0.2l0.5,0.2l0.4,0.1l0.2-0.6l0.9-0.2l0.6-1.5l0.4-1.8l0.6-0.9l0.9,0.1
		l0.2,0.6l-0.2,0.7l-0.8,0.8l0,0.9l0.5,0.5l0.9-0.8l0.4,0.7l-1.2,2.1l0.2,0.6l1.5,0.2l0.5-0.3l0.4-0.7l0.4-1.1l0.5,0.1l0.3,0.5
		l0.2,0.7l0.3,0.5l-0.7,0.4l-0.9,1.1l-0.4,0.2l-1,0l-0.3,0l-0.5,0.3l-0.4,0.1l-0.5,0l0.4,0.7l0,1.1l0.3,0.4l0.8,0.1l0.7-0.3l0.5-0.4
		l0.4-0.2l0.5-0.1l0.7-0.2l0.6-0.3l0.3-0.4l0.4-0.2l0.8,0.3l1.3,0.7l0-1l0.1-0.7l0.2-0.6l0.4-0.6h0.4l0.3,0.6l0.5,0l0.7-0.1l0.7,0.3
		l-0.2-0.4l-0.1-0.4l-0.1-0.9h0.4l0.3,0.7l0.7-1.2l0.8-0.3l-0.1,0.2l-0.1,0.2l-0.1,0.4l0.5,0l0.2,0l-0.4,0.5l-0.3,0.5l0.1,0.5
		l0.6,0.3l-0.6,0.2l-0.6,0.4l-0.3,0.5l0.2,0.6l0.6,0.4h0.3l0,0.1l0,0.9l0.4,0.6l1-0.1l3.5-1.2l1.2-0.6l3.7-2.8l0.4-0.4l0.4-0.7
		l0.7-1.9l-1.8-0.1l-1.5-0.3l1.5-0.9l0.4-0.2v-0.4h-0.4v-0.3l0.5,0.1l0.9,0.5l1.3,0.3l0,0.4l-0.6,0.7l0.2,0.6l0.5-0.1l0.5-0.4
		l0.2-0.2l0.1-0.3l-0.1-0.4l0-0.3l0.2-0.1l0.4-0.1l0.3-0.2l0.6-0.5l-0.6-0.7l-0.3-1.1l0.2-1l0.9-0.4l1-0.2l1.6-1l1-0.2l0.2-0.1
		l1.2-0.7l0.3-0.3l0.1-0.7l-0.2-0.2l-0.4,0l-1.5-0.3l-1.1-0.1l-0.9-0.4l-0.3-1.2l1.3,0.3l1.3-0.2l0.8-0.7l-0.5-1.1l1.7-0.8l0.5-0.3
		l0.4,2.3l1.5,0.1l1.4-1l0.3-1l0.7-1.1l1,0.3l0.2,0.3l-0.9,1.2l-1.2,2.1l0.3,0.3l0.4,0.2l0.2,0.2l-0.9,0.8l-1.3,0.1l-0.8,0.4
		l0.4,1.6l0.6-0.4l2-0.7l0.2,0.5l0,0.5l-0.2,0.4l-0.3,0.4l0.9-0.2l0.9,0.1l0.9,0.4l0.8,0.5l-0.1-0.5l-0.1-0.3l-0.2-0.2l-0.4-0.1
		l1.5-0.6l0.7-0.1l0.7,0.3l-0.8,0.3l0.6,0.8l0.9,0.3l0.6,0.3l-0.3,0.7l1,0.2l0,0.9l-0.7,0.7l-1-0.4l0.3-0.2l0.4-0.1l-0.7-0.3
		l-0.9-0.3l-0.8-0.1l-0.5,0.2l-0.4-0.2l-0.4-0.1l-1,0l0.3,0.5l0.4,0.3l1.1,0.3l-0.7,0.4l0.7,0.5l0.3,0.1l0.5,0.1l-1.1,0.7l0.7,0.8
		l1.4,1l0.9,1.1h0.4l-0.2-1.5l0.1-0.7l0.3-0.3l0.5,0.2l0.1,0.6l-0.1,1.4l0.4-0.4l0.6-0.8l0.5-0.2l-0.1,0.6l-0.2,0.5l-0.5,1l0.5-0.1
		l0.3-0.2l0.2-0.3l0.1-0.5h0.4l0.1,0.8l0.5,0.3l0.6-0.2l0.3-0.8l0.4-0.5l1-0.4l1-0.6l0.4-1l-0.4-2.8l0.1-0.6l0.5-0.5l0.7-0.1
		l0.7,0.2l0.6,0.5l1-0.8l0.5-0.2l0.7-0.1l0.6,0.1l0.8,0.2l0.7,0.4l0.4,0.4l-1.2,0.2l-1,0.5l-0.7,0.7l-0.4,1.1l0.6-0.3l0.6,0l0.7,0.1
		l0.6,0.2v0.3l-0.5,0.4l-0.7,0.8l-0.5,0.9l-0.1,0.7l0.7,0.4l2.2,0.1l0.7,0.1l0.6-0.5l0-0.6l-0.1-0.6l0.2-0.8l0.8,0.8l0.2,1.1
		l0.1,1.2l0.5,1.2l0.3-0.7l0.2-1.4l0.2-0.8l1.6,1l1.7,0.8l0.1-1l0.5-0.4l0.6-0.3l0.3-0.8l2.4-2l0.3-0.4l0.4-0.1l0.1-0.1l0.1,0.1
		l0.3,0.4l0.2,0.3l0.1,0.3l2.4-3.2l1.9-1.5l0.5-0.7l0.1-1.1l-0.6-1.9l-0.1-1l0.2-0.5l0.9-1.1l0.4-0.6l0.2-0.4l1.3-5.4l0.9-1.6
		l1.6-1.1l2.1-0.8l1.7-0.9l1.3-1.4l0.8-2.3l0.3-1.9l0.4-0.5l3.4-1.7l0.9-0.8l0.7-2.1l1.5-2l1.4-3.4l0.3-1.1l0-2.4l0.3-1.1l0.4-1.1
		l0.5-0.9l1.1-1.1l0.9,0.2l0.9,0.5l1.1-0.2l0.6-1l0.1-1.2l0.4-1l2.6-0.6l1.8-1.7l1.1-0.7l4.4-0.4l1.7-0.8l0.7-2.1l-0.5-2.1l-0.9-2.1
		l-0.2-1.9l3.2-2.6l1.1-4.2l1.2-1.8l0.5-0.3l1.1-0.2l0.5-0.2l0.5-0.5l0.4-0.6l1.7-3.5l0.3-1.1l0.1-10.2l0.2-0.6l1-1.2l0.2-0.6
		L564.6,268z M297.4,440.4l-0.9-1.8l-0.2-0.8L296,438l-0.6,0.2l-0.2,0.1l0-0.2l0-0.5h-0.4l0.2,1.9l-0.1,0.8l-0.5,0.5l-0.1-1.2
		l-0.3-1.4V437l0.7-0.6l-1-0.6l-1.5-1.7l-1.1-0.9l-0.1,0.3l-0.3,0.8l-0.3-0.7l0.1-0.6l0.4-0.3l1.4,0.4l0.5,0.5l0.4,0.6l0.5,0.5
		l0.6,0.3l1.2,0.5l0.4,0.3l0.6,0.9l0.7,2.4l0.5,1.1L297.4,440.4z M445.2,370.9l0.2,0.7l0.5,0.6l1-0.8l1.1-1.5l0.4-1.5l-1.1-1v1.1
		H447l-0.5-0.2l-0.3,0.5l-0.1,0.8l0.2,0.7l-0.8,0L445.2,370.9z M495.8,375l-1.8,1.2l-0.9,0.4v0.3l0.9-0.1l0.6,0.1l0.4,0.4l0.3,0.8
		l0.4-0.4l0.7,0.7l0.5-2l0.1-1.1l-0.5-0.5L495.8,375z M473.6,366.9l0.2-0.6l0.1-0.2l-1.4,0.3l-0.7,0.4l-0.1,0.7l0.5,1.3l1.5-0.6
		l0.6-0.5l0.4-0.7h-1.1L473.6,366.9z M467.3,361.7l-0.1,1.1l0.5,1l0.4-0.6l0.2-1.7l0.6-0.6l-1,0L467.3,361.7z"/>
</g>

</svg>
