<?xml version="1.0" encoding="utf-8"?>

<svg version="1.2" baseProfile="tiny" xmlns="http://www.w3.org/2000/svg" xmlns:xlink="http://www.w3.org/1999/xlink" x="0px"
	 y="0px" viewBox="317.1 185.4 205.7 222.4" xml:space="preserve">

<g id="Uruguay">
	<g>
		<path fill="#FFFFFF" d="M424.7,222.1l0,0.8l-0.5,0.4l-0.9,0l-0.9-0.2l-0.8,0.1l-0.5,0.6l-0.4,1.5l-0.3,0.7l-0.6,0.5l-2.1,1.4
			l-0.2,0.3l-0.1,0.3l-0.2,0.2l-0.3,0.2l-0.4,0.1h-0.9l-1.2,0.3l-2.6-0.2l-1,0.1l-0.4-0.7v-1l0.2-2l0-2.9l0.2-1l0.7-1.2l0.2-1.3
			l-0.2-1.3l-0.6-1.2l-2.5-2l-0.6-0.7l-1.3-2.5l-0.3-0.4l-0.3-0.3l-0.7-0.5l-0.4-0.4l-0.2-0.4l-0.1-0.5l-0.2-0.5l-1.2-1.5l-0.8-0.8
			l-1.3-0.6l-2.3-1.9l-1.8-1l-0.5-0.4l-0.5-0.8l-0.9-1.6l-0.7-0.7l-2-1.3l-0.6-0.6L391,197l-1.4-1.6l-0.3-0.6l-0.2-0.2l-0.4-0.3
			l-0.4,0h-0.4l-0.4-0.1l-0.6-0.4l0-0.3l0.1-0.5l-0.1-0.9l-0.3-0.6l-0.6-0.6l-0.6-0.4l-1.2-0.6l-2.4-1.7l-0.4-0.4l-0.7-1.2l-1.4-1
			l-1.5,0l-1.4,0.2l-1.9-0.5l-0.8,0l-1.4,0.3l-0.3,0.1l-0.7,0.4h-0.4l-0.7-0.4l-0.4,0l-1,0.7l-1.1,1.3l-0.8,1.4l-0.3,1.2l-0.2,1.4
			l-0.8,1.3l-1.1,0.9l-1.2,0.3l-0.2-0.1l-0.5-0.5l-0.3-0.2l-0.2,0.1l-0.5,0.6l-0.3,0.1l-0.6-0.2l-0.4-0.4l-0.5-0.3l-0.8,0l-0.5,0.2
			l-0.9,0.8l-0.4,0.2l-0.6-0.2l-0.6-0.9l-0.5-0.3l-0.9,0l-1.7,0.3l-1-0.1l-1.2-0.8l-0.8-2.3l-1-0.9l-0.8,0l-0.3,0.4l0.2,1l0.5,1.9
			l-0.3,1.7l-0.8,1.4l-7.6,7l-1.1,1.3l-0.5,1.6l0.2,1.7l0.9,1.7l0.6,0.9l0.9,1.9l0.3,1l0.6,2.7l0.2,1.9l0,1.9l0,0.5l-0.2,1.1
			l-0.2,0.7l-0.5,0.2l4.9,3.4c-0.1-6.1-2-9.4-3.6-12.2c-1.9-3.3-3.3-5.7-0.5-11.3l0.2-0.4l0,0.4c-0.1,5.4,1.6,6.6,4.1,8.4
			c2.5,1.8,5.9,4.3,9.2,12.3l0,0.1l-0.2,0.1l-1.3,7.3c0,0.2,0.1,0.4,0.1,0.5l6-32.8l0.1,0.5l4.2,23c4.3-4.4,5.2-8.1,6-11.2
			c1-3.7,1.7-6.4,7.6-8.4l0.4-0.1l-0.3,0.3c-3.8,3.8-3.5,5.8-3.1,8.8c0.5,3,1.1,7.2-2.2,15.2l0,0.1l-0.2-0.1l-6.1,4.2
			c-0.1,0.2-0.2,0.3-0.3,0.5l27.4-19l-13.6,19.7c6.1-0.1,9.4-2,12.2-3.6c3.3-1.9,5.7-3.3,11.3-0.5l0.4,0.2l-0.4,0
			c-0.1,0-0.2,0-0.3,0c-5.1,0-6.3,1.6-8.1,4.1c-1.8,2.5-4.3,5.9-12.3,9.2l-0.1,0l-0.1-0.2l-7.3-1.3c-0.2,0-0.4,0.1-0.5,0.1l32.8,6
			l-0.5,0.1l-23,4.2c4.4,4.3,8.1,5.2,11.2,6c3.7,1,6.4,1.7,8.4,7.6l0.1,0.4l-0.3-0.3c-3.8-3.8-5.8-3.5-8.8-3.1
			c-3,0.5-7.2,1.1-15.2-2.2l-0.1,0l0.1-0.2l-4.2-6.1c-0.2-0.1-0.3-0.2-0.5-0.3l19,27.4l-19.7-13.6c0.1,6.1,2,9.4,3.6,12.2
			c1.9,3.3,3.3,5.7,0.5,11.3l-0.2,0.4l0-0.4c0.1-5.4-1.6-6.6-4.1-8.4c-2.5-1.8-5.9-4.3-9.2-12.3l0-0.1l0.2-0.1l1.3-7.3
			c0-0.2-0.1-0.4-0.1-0.5l-6,32.8l-0.1-0.5l-4.2-23c-4.3,4.4-5.2,8.1-6,11.2c-1,3.7-1.7,6.4-7.6,8.4l-0.4,0.1l0.3-0.3
			c3.8-3.8,3.5-5.8,3.1-8.8c-0.5-3-1.1-7.2,2.2-15.2l0-0.1l0.2,0.1l6.1-4.2c0.1-0.2,0.2-0.3,0.3-0.5L327,278.2l0.2,0.4l2.7,3.5
			l0.4,1.3l-0.2,1.4l-2.5,3.5l-1,2l-0.4,0.5l0.1,1.1l0.8,3.4l0.3,0.7l0.4,0.7l0.4,3.2l0.3,1.2l-0.3,0.3l0.3,0.8l0.1,1.1l-0.1,2.1
			l0.1,0.9l0.2,0.8l0.4,0.8l1.7,1.8l0.1,0.2h185.6l2.5-1.8l1.6-2l1.4-1.1l0.5-0.7l0.1-0.9l-0.4-0.7l-2.6-2.8l-0.6-0.4l-1.2-0.6
			l-1.3-0.8h-1.2l-0.7-0.2l-1.7-1l-2.2-0.8l-2.3-2.5l-2.4-1.7l-0.9-0.9l-0.8-1.1l-0.7-1.2l-0.4-0.5l-1-0.9l-0.3-0.6l-0.2-0.7
			l-0.1-2.1h-77.2v-25.9h48.5l-0.3-0.3l-1.3-0.9l-1.1-1l-0.5-1.3l-0.1-1.8l-0.2-0.8l-0.4-0.8l-0.6-0.6l-2-1.6l-0.5-0.6l-0.7-1.4
			l-0.5-0.5l-0.6-0.2l-1.3,0l-6.4-0.9l-1.2-0.4l-0.5-0.4l-0.5-0.5l-0.5-0.6l-0.5-0.5l-1.6-0.7L451,241l-1-1.3l-0.6-1.1l-0.7-0.8
			l-0.5,0.2l-0.7,1.5l-0.5,0.7l-0.5,0.3l-0.6-0.1l-0.8-0.5l-1.8-1.7l-0.7-0.4l-1.5-0.6l-0.7-0.4l-0.6-0.7l-0.3-0.8l-0.5-1.9
			l-0.4-0.7l-0.6-0.4h-13.3V222.1z"/>
		<path fill="#FFFFFF" d="M353.6,230.5L353.6,230.5c0.1,0,0.1-0.1,0-0.2L353.6,230.5z"/>
		<path fill="#FFFFFF" d="M345.1,239.2l0.1,0c-0.1,0-0.1-0.1-0.2-0.1L345.1,239.2z"/>
		<polygon fill="#FFFFFF" points="371.1,388 371.4,388.3 371.8,388.4 372.6,389.1 373.4,389.3 374.4,390.5 375.7,391.4 376.3,392
			376.9,393.1 377.5,393.6 380.4,395 383.9,396 386.2,396.3 387,396.5 387.6,396.8 389.1,397.7 389.7,398 390.3,398.1 392.8,398.1
			393.4,398.2 394.8,398.7 396.5,399.1 397.2,399.4 395.5,400.4 395,401 395.1,401.7 395.7,402.2 398,403.6 399.2,404.7 400,405
			400.9,404.9 401.3,404.7 402,404.1 402.4,403.9 402.8,403.9 403.2,404 403.3,404.3 403,404.9 404.2,405.7 404.4,405.9
			404.8,405.8 405.4,405.3 405.8,405.2 406.5,405.1 411.6,402.9 412.4,402.6 413,402.4 414.3,401.1 414.9,400.7 421.3,398.8
			424.7,398.5 428.1,399.1 430.8,400 431.6,400.1 434.3,399.7 435.3,399.7 436.8,400.6 438.8,403.3 439.8,404.3 441.3,404.5
			444.8,403.7 446.7,403.6 447.5,403.8 447.9,404 448.3,404.3 448.5,404.7 448.5,405 448.6,405.2 450.1,405.3 450.8,405.7
			451.3,406.2 451.7,406.8 451.7,407 451.6,407.3 451.5,407.8 452.2,407.6 453.2,406.5 454,406.2 454.8,406 461.5,402.8
			463.1,402.3 463.9,402 465.1,400.9 467.6,400.2 476.6,395.4 477.3,394.8 477.7,394.2 477.3,393.1 476.6,392.5 476,392.4
			476.1,392.8 475.4,392.9 475.2,392.4 475.2,391.8 475.4,391.4 476,391.2 476.7,390.7 477.3,390.1 477.7,389.5 476.2,388.9
			475.8,388.5 476.5,388.6 477.7,388.8 478.7,389.3 479.3,389.8 479.2,390.1 478.8,391.2 478.7,391.8 478.8,392.2 479,392.5
			479.2,392.8 479.5,393 478.8,393.6 478.6,393.9 478.4,394.3 479.3,394.3 482.8,393.5 483.1,393 483,392.2 483.2,391.4
			483.7,390.8 486.8,387.7 371,387.7 		"/>
		<path fill="#FFFFFF" d="M345.2,251.4L345.2,251.4c0-0.1-0.1-0.1-0.2,0L345.2,251.4z"/>
		<path fill="#FFFFFF" d="M332.5,260.4l-0.4,1.2l-0.4,0.7l-0.9,0.4l-1.8,0.4l-0.9,0.4l-0.6,0.5l-1,1.2l-0.3,0.9l0.5,0.9l1.2,1.4
			l0.4,1.4l0.1,1.9l-0.1,2l-0.4,1.7l-0.8,1.4l-0.2,0.9l0.1,0.2l13-18.7C336.8,259.2,334.4,259.7,332.5,260.4z"/>
		<polygon fill="#FFFFFF" points="424.6,220.3 424.7,222 424.7,219.8 		"/>
		<path fill="#FFFFFF" d="M353.9,259.9l0-0.1c0,0.1-0.1,0.1-0.1,0.2L353.9,259.9z"/>
		<path fill="#FFFFFF" d="M374.6,251.1l-0.1,0c0.1,0,0.1,0.1,0.2,0.1L374.6,251.1z"/>
		<path fill="#FFFFFF" d="M335.1,240.2l-0.2,0.5l0,0.3l0.9-0.2C335.6,240.6,335.3,240.4,335.1,240.2z"/>
		<path fill="#FFFFFF" d="M366.1,259.8L366.1,259.8c-0.1,0-0.1,0.1,0,0.2L366.1,259.8z"/>
		<path fill="#FFFFFF" d="M340.5,232.4l-0.1,0.2l4.2,6.1c0.2,0.1,0.3,0.2,0.5,0.3l-6.3-9.1l0,0l-1,1.5l0,0.1
			C338.7,231.7,339.5,232,340.5,232.4L340.5,232.4z"/>
		<polygon fill="#FFFFFF" points="319.1,336 319.4,336.9 319.1,337.9 317.8,339.7 317.3,340.6 317.1,341.7 317.2,342.6 317.4,343.5
			317.6,344.5 317.1,348.4 317.2,352.5 318.2,357.9 318.5,358.8 319,359.7 319.6,360.3 321.1,361.2 321.8,361.8 321.8,361.8
			507.1,361.8 507.6,360.2 508.3,356.3 508.8,354.7 509.7,353.2 511.1,351.5 511.8,350.9 512.5,350.4 511.2,350.5 510.7,349.9
			510.4,349.1 510,348.4 509.4,348 508.8,347.9 508.1,348.1 507.3,348.1 506.2,346.2 506.3,342 507,335.9 319,335.9 		"/>
		<path fill="#FFFFFF" d="M365.8,230.4l0,0.1c0-0.1,0.1-0.1,0.1-0.2L365.8,230.4z"/>
		<path fill="#FFFFFF" d="M374.5,238.9L374.5,238.9c0,0.1,0.1,0.1,0.2,0L374.5,238.9z"/>
		<path fill="#FFFFFF" d="M337.2,249.8l0.1,0.2l7.3,1.3c0.2,0,0.4-0.1,0.5-0.1l-12.1-2.2l0.5,0.4l1,1.3l0.1,0.4
			C335.3,250.6,336.2,250.2,337.2,249.8L337.2,249.8z"/>
		<polygon fill="#0038A8" points="436.8,231.3 436.5,230.5 436.4,228.9 436.2,228.2 435.6,227.4 432.7,224.1 430.9,222.5
			430.1,221.5 429.5,221 428,220.1 427,218.9 426.2,218.7 425.3,218.8 424.7,219.5 424.7,219.8 424.7,222 424.7,222.1 424.7,222.1
			424.7,232.2 437.9,232.2 437.2,231.7 		"/>
		<polygon fill="#0038A8" points="424.7,284 501.9,284 501.9,283.8 501.6,282.3 501.2,281 499.2,278.1 498.1,275.5 498,273.9
			497.8,273.2 497.3,272.9 495,272.4 493.9,271.7 493.4,271.3 493,270.8 492.8,270.3 492.7,269.8 492.5,269.4 492.1,268.9
			491,268.1 490.4,267.9 489.8,267.7 488.5,267.6 488.1,267.4 487.8,267.1 487.4,266.4 487.2,266.1 486.5,265.6 485.8,265.3
			485,265.2 484.3,265.5 483.6,266.1 483.2,266.6 482.8,266.7 481.9,266 480,264.2 477.8,262.7 475.2,260.3 474,258.9 473.1,258.1
			424.7,258.1 		"/>
		<polygon fill="#0038A8" points="331.8,310.9 332.1,312.3 331.8,314.1 331.3,315.8 331.1,316.7 331.1,317.7 330.8,318.5
			330.1,319.3 328.7,320.7 327.3,321.4 325.6,321.5 322,321.3 320.4,321.9 319.8,323.4 319.9,325.3 320.5,329.3 320.4,330.4
			320.1,331.3 318.7,332.6 318.1,333.4 317.8,334.2 318.1,335.1 319,335.9 507,335.9 507.2,334.4 506.4,327.5 506.3,324.1
			507.3,320.9 508.4,319.4 509.7,318.2 514.4,315.1 514.8,314.6 515.1,313.8 515.2,312.1 515.5,311.2 516.6,310.1 516.7,310
			331.2,310 		"/>
		<polygon fill="#0038A8" points="325,366.5 325.5,367.5 326,369.2 326.4,369.8 327.5,370 328.4,370.1 329.4,370.2 330.3,370.7
			331.1,371.3 331.6,372.8 332.1,373.6 333.3,374.1 336.2,377.6 337,378.8 338.5,382.1 339.9,384.4 340.1,385.2 340.5,385.2
			344.2,384.1 347.6,383.6 349.2,382.9 350.1,382.8 351,382.9 352.1,383.6 352.9,383.7 353.3,383.6 354.1,383.2 354.5,383.1
			359.3,383.3 362.6,383.2 364.9,383.5 367.2,383.6 368,383.9 368.7,384.5 369.4,385.4 369.7,385.6 370.2,386 370.5,386.3
			370.8,387.4 371,387.7 486.8,387.7 489.6,385.1 492.4,383 496,381 497.5,380.5 497.6,379.7 497,378 497.8,375.3 497.9,374.8
			498.2,374.4 499.6,371.6 500.3,370.8 502.4,369.2 504.3,366.8 504.9,366.2 506.2,365.3 506.6,364.6 506.8,362.5 507.1,361.8
			321.8,361.8 		"/>
		<path fill="#FCD116" d="M347.3,264.6c-3.3,7.9-2.6,12-2.2,15c0.4,3,0.7,5-2.7,8.6c3.8-2.1,4.3-5.3,5-10c0.7-4.4,1.6-10.4,6-18
			l-6.1,4.2L347.3,264.6L347.3,264.6z"/>
		<path fill="#FCD116" d="M347.6,278.3c-0.7,4.5-1.1,7.7-4.6,9.8c4.8-1.9,5.4-4.4,6.3-7.8c0.8-3.1,1.8-6.9,6.2-11.4l-1.6-9l-0.1,0.1
			C349.2,267.7,348.3,273.6,347.6,278.3z"/>
		<path d="M355.5,268.9c-4.4,4.5-5.4,8.2-6.2,11.4c-0.9,3.4-1.6,5.9-6.3,7.8c-0.3,0.2-0.7,0.4-1.1,0.6l-0.1-0.2
			c0.2-0.1,0.4-0.2,0.6-0.3c3.4-3.5,3.1-5.6,2.7-8.6c-0.5-3-1.1-7.2,2.2-15l0-0.1l0,0l-0.2-0.1l0,0.1c-3.3,7.9-2.7,12.1-2.2,15.2
			c0.5,3.1,0.8,5.1-3.1,8.8l-0.3,0.3l0.4-0.1c6-1.9,6.7-4.6,7.6-8.4c0.8-3.1,1.8-6.7,6-11.2L355.5,268.9z"/>
		<path d="M342.4,288.2c-0.2,0.1-0.4,0.2-0.6,0.3l0.1,0.2c0.4-0.2,0.8-0.4,1.1-0.6c3.4-2.1,3.9-5.3,4.6-9.8
			c0.7-4.7,1.6-10.6,6.1-18.3c0-0.1,0.1-0.1,0.1-0.2l0-0.1c0,0,0,0-0.1,0l-0.1,0.1c-0.1,0.2-0.2,0.3-0.3,0.5c-4.4,7.5-5.3,13.5-6,18
			C346.7,283,346.2,286.1,342.4,288.2z"/>
		<path fill="#FCD116" d="M360,291.1l5.7-31.3c-1.8,0.7-3.7,1.1-5.7,1.1V291.1z"/>
		<path fill="#FCD116" d="M354.1,259.8l5.7,31.3v-30.2C357.7,260.9,355.8,260.5,354.1,259.8z"/>
		<path d="M365.6,259.8l-5.7,31.3v-30.2c0,0-0.1,0-0.1,0s-0.1,0-0.1,0v30.2l-5.7-31.3c-0.1,0-0.1-0.1-0.2-0.1l0,0.1l0,0.1l1.6,9
			l0,0.2l4.2,23l0.1,0.5l6-32.8c0-0.1,0-0.1,0-0.1C365.7,259.8,365.7,259.8,365.6,259.8z"/>
		<path fill="#FCD116" d="M337.3,249.9L337.3,249.9L337.3,249.9c-1,0.5-1.9,0.9-2.7,1.2l0.2,1.4l-0.4,2l-0.3,0.8
			c2.7-1.5,6.1-3,10.4-4.1L337.3,249.9z"/>
		<path fill="#FCD116" d="M340,258.9l5.2-7.5l-0.2,0c-4.6,1.2-8.1,2.7-10.9,4.3l-1.5,4.5C334.5,259.4,336.9,259,340,258.9z"/>
		<path d="M340,258.9c-3.1,0-5.5,0.5-7.4,1.2l-0.1,0.2c1.9-0.7,4.3-1.2,7.3-1.3L340,258.9z"/>
		<path d="M337.3,250L337.3,250l-0.1-0.2l-0.1,0c-0.9,0.4-1.8,0.8-2.6,1.2l0,0.2C335.4,250.8,336.2,250.4,337.3,250L337.3,250z"/>
		<path d="M345.2,251.3L345.2,251.3c0-0.1,0-0.1,0-0.1l-0.2,0c-0.2,0-0.4,0.1-0.5,0.1c-4.3,1.1-7.6,2.6-10.4,4.1l-0.1,0.3
			c2.8-1.6,6.3-3.2,10.9-4.3C345.1,251.3,345.2,251.3,345.2,251.3z"/>
		<path fill="#FCD116" d="M327.4,277.7l26.1-18.1c-1.8-0.8-3.4-1.9-4.8-3.2L327.4,277.7z"/>
		<path fill="#FCD116" d="M345.4,251.4l-18.1,26.1l21.3-21.3C347.3,254.9,346.2,253.2,345.4,251.4z"/>
		<path d="M353.8,259.7c-0.1,0-0.1-0.1-0.2-0.1l-26.1,18.1l21.3-21.3c0,0-0.1-0.1-0.1-0.1l-21.3,21.3l18.1-26.1
			c0-0.1-0.1-0.1-0.1-0.2l0,0.1l-0.1,0.1l-5.2,7.5l-0.1,0.2l-13,18.7l0.2,0.4l26.6-18.4L353.8,259.7z"/>
		<path fill="#FCD116" d="M340.5,232.6L340.5,232.6l-0.1,0c-0.9-0.4-1.8-0.7-2.6-1l-0.4,1.7l0.3,1.9c2.2,0.8,4.5,1.9,7.1,3.4
			L340.5,232.6z"/>
		<path fill="#FCD116" d="M336.1,240.8l9-1.6L345,239c-2.6-1.6-5.1-2.7-7.3-3.6v1l-0.4,0.5l-0.8,1.7l-0.3,0.3l-0.6,0.5l-0.3,0.3
			l-0.1,0.2C335.5,240.3,335.8,240.5,336.1,240.8z"/>
		<path d="M336.1,240.8c-0.3-0.3-0.6-0.5-0.9-0.8l-0.1,0.2c0.2,0.2,0.5,0.4,0.7,0.7L336.1,240.8z"/>
		<path d="M340.5,232.6L340.5,232.6l0.1-0.2l-0.1,0c-0.9-0.4-1.8-0.7-2.6-1l0,0.2C338.6,231.9,339.5,232.2,340.5,232.6L340.5,232.6z
			"/>
		<path d="M345.2,239.2L345.2,239.2c0.1,0,0.1-0.1,0.1-0.1l-0.1-0.1c-0.2-0.1-0.3-0.2-0.5-0.3c-2.5-1.5-4.9-2.6-7.1-3.4l0,0.1v0.1
			c2.2,0.8,4.7,2,7.3,3.6C345,239.1,345.1,239.1,345.2,239.2z"/>
		<path fill="#FCD116" d="M344.1,245.2H332l-0.5,0.4l-0.5,1.4l0.9,1.1l0.6,0.5l12.6,2.3C344.5,249.2,344.1,247.3,344.1,245.2z"/>
		<path fill="#FCD116" d="M344.1,245c0-2,0.4-3.9,1.1-5.7l-10.3,1.9l-0.1,1.5l-0.4,0.8l-0.6,0.5l-1.5,0.9l0,0H344.1z"/>
		<path d="M345.3,251.2c0-0.1-0.1-0.1-0.1-0.2l-12.6-2.3l0.3,0.3l12.1,2.2L345.3,251.2z"/>
		<path d="M344.1,245.2c0,0,0-0.1,0-0.1s0-0.1,0-0.1h-11.8l-0.2,0.2H344.1z"/>
		<path d="M345.2,239.4c0-0.1,0.1-0.1,0.1-0.2l-0.1,0l-0.1,0l-9,1.6l-0.2,0l-0.9,0.2l0,0.2L345.2,239.4z"/>
		<path fill="#FCD116" d="M355,222.5c-3.3-7.9-6.6-10.4-9.1-12.2c-2.4-1.8-4.1-3-4.1-8c-1.2,4.2,0.7,6.8,3.5,10.6
			c2.7,3.6,6.3,8.5,8.5,16.9L355,222.5L355,222.5L355,222.5z"/>
		<path fill="#FCD116" d="M345.1,213c-2.7-3.7-4.6-6.2-3.7-10.2c-2,4.7-0.7,6.9,1,10c1.6,2.8,3.6,6.1,3.7,12.4l7.5,5.2l0-0.2
			C351.5,221.7,347.9,216.9,345.1,213z"/>
		<path d="M346.1,225.3c-0.1-6.3-2-9.6-3.7-12.4c-1.8-3-3.1-5.3-1-10c0.1-0.4,0.2-0.8,0.4-1.2l0.2,0.1c-0.1,0.2-0.1,0.4-0.2,0.6
			c0.1,4.9,1.7,6.2,4.1,8c2.5,1.8,5.8,4.3,9.1,12.2l0,0.1l0,0l0.2-0.1l0-0.1c-3.3-7.9-6.7-10.4-9.2-12.3c-2.5-1.8-4.1-3.1-4.1-8.4
			l0-0.4l-0.2,0.4c-2.8,5.6-1.4,8,0.5,11.3c1.6,2.8,3.5,6,3.6,12.2L346.1,225.3z"/>
		<path d="M341.8,202.3c0.1-0.2,0.1-0.4,0.2-0.6l-0.2-0.1c-0.2,0.4-0.3,0.8-0.4,1.2c-0.9,3.9,1,6.5,3.7,10.2
			c2.8,3.8,6.4,8.6,8.6,17.3c0,0.1,0,0.2,0.1,0.2l0.1,0c0,0,0,0,0.1,0l0-0.2c0-0.2-0.1-0.4-0.1-0.5c-2.2-8.4-5.8-13.3-8.5-16.9
			C342.4,209.1,340.5,206.5,341.8,202.3z"/>
		<path fill="#FCD116" d="M348.6,234.1L337.5,223l-0.1,0.4l0.3,0.5l1.6,2.4l0.3,2.1l-0.6,1.3l6.4,9.3
			C346.2,237.1,347.3,235.4,348.6,234.1z"/>
		<path fill="#FCD116" d="M348.8,233.9c1.4-1.4,3-2.5,4.8-3.2l-13-9l-0.5,0l-1.6,0.4l-0.7,0.5l-0.1,0.2L348.8,233.9z"/>
		<path d="M345.3,239.1c0-0.1,0.1-0.1,0.1-0.2l-6.4-9.3l-0.1,0.2l6.3,9.1L345.3,239.1z"/>
		<path d="M353.6,230.7c0.1,0,0.1-0.1,0.2-0.1l-0.1,0l-0.1-0.1l-7.5-5.2l-0.2-0.1l-4.9-3.4l0,0l-0.4,0L353.6,230.7z"/>
		<path d="M348.6,234.1c0,0,0.1-0.1,0.1-0.1l-11.2-11.2l-0.1,0.2L348.6,234.1z"/>
		<path fill="#FCD116" d="M372.4,225.7c3.3-7.9,2.6-12,2.2-15c-0.4-3-0.7-5,2.7-8.6c-3.8,2.1-4.3,5.3-5,10c-0.7,4.4-1.6,10.4-6,18
			l6.1-4.2L372.4,225.7L372.4,225.7z"/>
		<path fill="#FCD116" d="M372.1,212c0.7-4.5,1.1-7.7,4.6-9.8c-4.8,1.9-5.4,4.4-6.3,7.8c-0.8,3.1-1.8,6.9-6.2,11.4l1.6,9l0.1-0.1
			C370.5,222.6,371.4,216.7,372.1,212z"/>
		<path d="M364.2,221.4c4.4-4.5,5.4-8.2,6.2-11.4c0.9-3.4,1.6-5.9,6.3-7.8c0.3-0.2,0.7-0.4,1.1-0.6l0.1,0.2
			c-0.2,0.1-0.4,0.2-0.6,0.3c-3.4,3.5-3.1,5.6-2.7,8.6c0.5,3,1.1,7.2-2.2,15l0,0.1l0,0l0.2,0.1l0-0.1c3.3-7.9,2.7-12.1,2.2-15.2
			c-0.5-3.1-0.8-5.1,3.1-8.8l0.3-0.3l-0.4,0.1c-6,1.9-6.7,4.6-7.6,8.4c-0.8,3.1-1.8,6.7-6,11.2L364.2,221.4z"/>
		<path d="M377.3,202.1c0.2-0.1,0.4-0.2,0.6-0.3l-0.1-0.2c-0.4,0.2-0.8,0.4-1.1,0.6c-3.4,2.1-3.9,5.3-4.6,9.8
			c-0.7,4.7-1.6,10.6-6.1,18.3c0,0.1-0.1,0.1-0.1,0.2l0,0.1c0,0,0,0,0.1,0l0.1-0.1c0.1-0.2,0.2-0.3,0.3-0.5c4.4-7.5,5.3-13.5,6-18
			C373,207.3,373.5,204.2,377.3,202.1z"/>
		<path fill="#FCD116" d="M359.8,199.2l-5.7,31.3c1.8-0.7,3.7-1.1,5.7-1.1V199.2z"/>
		<path fill="#FCD116" d="M365.6,230.5l-5.7-31.3v30.2C362,229.4,363.9,229.8,365.6,230.5z"/>
		<path d="M354.1,230.5l5.7-31.3v30.2c0,0,0.1,0,0.1,0s0.1,0,0.1,0v-30.2l5.7,31.3c0.1,0,0.1,0.1,0.2,0.1l0-0.1l0-0.1l-1.6-9l0-0.2
			l-4.2-23l-0.1-0.5l-6,32.8l0,0.2C353.9,230.5,354,230.5,354.1,230.5z"/>
		<path fill="#FCD116" d="M382.5,240.3c7.9-3.3,10.4-6.6,12.2-9.1c1.8-2.4,3-4.1,8-4.1c-4.2-1.2-6.8,0.7-10.6,3.5
			c-3.6,2.7-8.5,6.3-16.9,8.5L382.5,240.3L382.5,240.3L382.5,240.3z"/>
		<path fill="#FCD116" d="M392,230.4c3.7-2.7,6.2-4.6,10.2-3.7c-4.7-2-6.9-0.7-10,1c-2.8,1.6-6.1,3.6-12.4,3.7l-5.2,7.5l0.2,0
			C383.3,236.8,388.1,233.2,392,230.4z"/>
		<path d="M379.7,231.4c6.3-0.1,9.6-2,12.4-3.7c3-1.8,5.3-3.1,10-1c0.4,0.1,0.8,0.2,1.2,0.4l-0.1,0.2c-0.2-0.1-0.4-0.1-0.6-0.2
			c-4.9,0.1-6.2,1.7-8,4.1c-1.8,2.5-4.3,5.8-12.2,9.1l-0.1,0l0,0l0.1,0.2l0.1,0c7.9-3.3,10.4-6.7,12.3-9.2c1.8-2.4,3-4.1,8.1-4.1
			c0.1,0,0.2,0,0.3,0l0.4,0l-0.4-0.2c-5.6-2.8-8-1.4-11.3,0.5c-2.8,1.6-6,3.5-12.2,3.6L379.7,231.4z"/>
		<path d="M402.7,227c0.2,0.1,0.4,0.1,0.6,0.2l0.1-0.2c-0.4-0.2-0.8-0.3-1.2-0.4c-3.9-0.9-6.5,1-10.2,3.7c-3.8,2.8-8.6,6.4-17.3,8.6
			c-0.1,0-0.2,0-0.2,0.1l0,0.1c0,0,0,0,0,0.1l0.2,0c0.2,0,0.4-0.1,0.5-0.1c8.4-2.2,13.3-5.8,16.9-8.5
			C395.9,227.7,398.5,225.8,402.7,227z"/>
		<path fill="#FCD116" d="M392.3,212.6l-26.1,18.1c1.8,0.8,3.4,1.9,4.8,3.2L392.3,212.6z"/>
		<path fill="#FCD116" d="M374.3,238.9l18.1-26.1l-21.3,21.3C372.4,235.4,373.5,237.1,374.3,238.9z"/>
		<path d="M366.1,230.7l26.1-18.1l-21.3,21.3c0,0,0.1,0.1,0.1,0.1l21.3-21.3l-18.1,26.1c0,0.1,0.1,0.1,0.1,0.2l0-0.1l0.1-0.1
			l5.2-7.5l0.1-0.2l13.6-19.7l-27.4,19l-0.1,0.1C366,230.6,366.1,230.6,366.1,230.7z"/>
		<path fill="#FCD116" d="M379.3,257.7c7.9,3.3,12,2.6,15,2.2c3-0.4,5-0.7,8.6,2.7c-2.1-3.8-5.3-4.3-10-5c-4.4-0.7-10.4-1.6-18-6
			l4.2,6.1L379.3,257.7L379.3,257.7z"/>
		<path fill="#FCD116" d="M393,257.4c4.5,0.7,7.7,1.1,9.8,4.6c-1.9-4.8-4.4-5.4-7.8-6.3c-3.1-0.8-6.9-1.8-11.4-6.2l-9,1.6l0.1,0.1
			C382.4,255.8,388.3,256.7,393,257.4z"/>
		<path d="M383.6,249.5c4.5,4.4,8.2,5.4,11.4,6.2c3.4,0.9,5.9,1.6,7.8,6.3c0.2,0.3,0.4,0.7,0.6,1.1l-0.2,0.1
			c-0.1-0.2-0.2-0.4-0.3-0.6c-3.5-3.4-5.6-3.1-8.6-2.7c-3,0.5-7.2,1.1-15-2.2l-0.1,0l0,0l-0.1,0.2l0.1,0c7.9,3.3,12.1,2.7,15.2,2.2
			c3.1-0.5,5.1-0.8,8.8,3.1l0.3,0.3l-0.1-0.4c-1.9-6-4.6-6.7-8.4-7.6c-3.1-0.8-6.7-1.8-11.2-6L383.6,249.5z"/>
		<path d="M402.9,262.6c0.1,0.2,0.2,0.4,0.3,0.6l0.2-0.1c-0.2-0.4-0.4-0.8-0.6-1.1c-2.1-3.4-5.3-3.9-9.8-4.6
			c-4.7-0.7-10.6-1.6-18.3-6.1c-0.1,0-0.1-0.1-0.2-0.1l-0.1,0c0,0,0,0,0,0.1l0.1,0.1c0.2,0.1,0.3,0.2,0.5,0.3c7.5,4.4,13.5,5.3,18,6
			C397.7,258.3,400.8,258.8,402.9,262.6z"/>
		<path fill="#FCD116" d="M405.8,245l-31.3-5.7c0.7,1.8,1.1,3.7,1.1,5.7H405.8z"/>
		<path fill="#FCD116" d="M374.5,250.9l31.3-5.7h-30.2C375.6,247.3,375.2,249.2,374.5,250.9z"/>
		<path d="M374.5,239.4l31.3,5.7h-30.2c0,0,0,0.1,0,0.1s0,0.1,0,0.1h30.2l-31.3,5.7c0,0.1-0.1,0.1-0.1,0.2l0.1,0l0.1,0l9-1.6l0.2,0
			l23-4.2l0.5-0.1l-32.8-6l-0.2,0C374.5,239.2,374.5,239.3,374.5,239.4z"/>
		<path fill="#FCD116" d="M364.7,267.8c3.3,7.9,6.6,10.4,9.1,12.2c2.4,1.8,4.1,3,4.1,8c1.2-4.2-0.7-6.8-3.5-10.6
			c-2.7-3.6-6.3-8.5-8.5-16.9L364.7,267.8L364.7,267.8L364.7,267.8z"/>
		<path fill="#FCD116" d="M374.6,277.3c2.7,3.7,4.6,6.2,3.7,10.2c2-4.7,0.7-6.9-1-10c-1.6-2.8-3.6-6.1-3.7-12.4l-7.5-5.2l0,0.2
			C368.2,268.6,371.8,273.4,374.6,277.3z"/>
		<path d="M373.6,265c0.1,6.3,2,9.6,3.7,12.4c1.8,3,3.1,5.3,1,10c-0.1,0.4-0.2,0.8-0.4,1.2l-0.2-0.1c0.1-0.2,0.1-0.4,0.2-0.6
			c-0.1-4.9-1.7-6.2-4.1-8c-2.5-1.8-5.8-4.3-9.1-12.2l0-0.1l0,0l-0.2,0.1l0,0.1c3.3,7.9,6.7,10.4,9.2,12.3c2.5,1.8,4.1,3.1,4.1,8.4
			l0,0.4l0.2-0.4c2.8-5.6,1.4-8-0.5-11.3c-1.6-2.8-3.5-6-3.6-12.2L373.6,265z"/>
		<path d="M378,288c-0.1,0.2-0.1,0.4-0.2,0.6l0.2,0.1c0.2-0.4,0.3-0.8,0.4-1.2c0.9-3.9-1-6.5-3.7-10.2c-2.8-3.8-6.4-8.6-8.6-17.3
			c0-0.1,0-0.2-0.1-0.2l-0.1,0c0,0-0.1,0-0.1,0.1c0,0.1,0,0.1,0,0.1c0,0.2,0.1,0.4,0.1,0.5c2.2,8.4,5.8,13.3,8.5,16.9
			C377.3,281.2,379.2,283.8,378,288z"/>
		<path fill="#FCD116" d="M392.4,277.6l-18.1-26.1c-0.8,1.8-1.9,3.4-3.2,4.8L392.4,277.6z"/>
		<path fill="#FCD116" d="M366.1,259.6l26.1,18.1l-21.3-21.3C369.6,257.7,367.9,258.8,366.1,259.6z"/>
		<path d="M374.3,251.4l18.1,26.1l-21.3-21.3c0,0-0.1,0.1-0.1,0.1l21.3,21.3l-26.1-18.1c-0.1,0-0.1,0.1-0.2,0.1l0.1,0l0.1,0.1
			l7.5,5.2l0.2,0.1l19.7,13.6l-19-27.4l-0.1-0.1C374.4,251.3,374.4,251.4,374.3,251.4z"/>
		<path fill="#FCD116" d="M359.9,260.7c8.6,0,15.6-7,15.6-15.6s-7-15.6-15.6-15.6s-15.6,7-15.6,15.6S351.3,260.7,359.9,260.7z
			 M353.2,251c-0.4,0.5-0.6,0.8-0.8,1c0.2,0,0.4,0.1,0.5,0.1c1.6,0,3.7-1.1,4.7-1.1c1.1,0,1.4,0.3,2.3,0.3c0.9,0,1.1-0.3,2.3-0.3
			c1,0,3.1,1.1,4.7,1.1c0.2,0,0.3-0.1,0.5-0.1c-0.2-0.2-0.4-0.5-0.8-1c1.1,0.9,1.4,1.3,1.6,2.3c-0.4-0.7-0.4-0.8-0.8-1.2
			c-4.5,1.9-4,2.6-7.5,2.6c-3.5,0-3-0.7-7.5-2.6c-0.3,0.4-0.4,0.5-0.8,1.2C351.7,252.3,352,251.9,353.2,251z M353.3,239.4
			c2.3,0,3.7,0.3,3.9,2v0.1c-0.8-0.7-1.2-1.1-1.7-1.3c0.3,0.9-0.7,2-1.6,2.4c1.6,0,2.3-1.7,2.9-0.9c0.4,0.6-1.7,1.4-3.3,1.4
			c-1.6,0-4-2.4-3-1.7c0.2,0.1,0.4,0.3,0.6,0.4c-0.3-0.5-0.1-0.9,0.1-1.3c-0.8,0.4-1.4,0.9-1.9,0.9C350,241.2,351,239.4,353.3,239.4
			z M365.8,242.7c-0.9-0.4-1.9-1.5-1.6-2.4c-0.5,0.2-0.9,0.5-1.7,1.3v-0.1c0.1-1.7,1.6-2,3.9-2c2.3,0,3.3,1.7,4.1,2.1
			c-0.6,0-1.1-0.5-1.9-0.9c0.2,0.4,0.3,0.8,0.1,1.3c0.2-0.1,0.4-0.2,0.6-0.4c1-0.7-1.4,1.7-3,1.7c-1.6,0-3.7-0.9-3.3-1.4
			C363.6,241,364.3,242.7,365.8,242.7z M354,249.7c-0.1,0.1,0.4-1.1,1.6-1.3c1.1-0.1,0.7-2,2-2.3c0,0.6-0.4,0.4-0.6,1.3
			c0,0.7,1.3,0.7,1.6,0c-0.3,1.1,0.6,1.1,1.3,1.1c0.7,0,1.6,0,1.3-1.1c0.3,0.7,1.6,0.7,1.6,0c-0.1-0.9-0.6-0.7-0.6-1.3
			c1.3,0.3,0.9,2.1,2,2.3c1.1,0.1,1.7,1.4,1.6,1.3c-0.7-0.6-2.3-1-3.4-1c-1.1,0-1.4,0.7-2.4,0.7c-1,0-1.3-0.7-2.4-0.7
			C356.3,248.7,354.7,249.1,354,249.7z M359.9,256.4c-2.6,0-0.7-0.4,0-0.4C360.6,256,362.4,256.4,359.9,256.4z M371.4,238.9
			c-1,1.1-1.6-0.9-5.1-0.9c-3.6,0-4.1,2.1-4.7,1.7c-0.6-0.4,3-3,4.1-3.1C366.8,236.5,370.1,237.6,371.4,238.9z M354,236.6
			c1.1,0.1,4.7,2.7,4.1,3.1c-0.6,0.4-1.1-1.7-4.7-1.7c-3.6,0-4.1,2-5.1,0.9C349.6,237.6,352.9,236.5,354,236.6z"/>
		<path fill="#FCD116" d="M352.4,252C352.4,252,352.4,252,352.4,252c-0.1,0-0.1,0-0.2,0C352.2,252,352.3,252,352.4,252z"/>
		<path fill="#FCD116" d="M352.2,252c0.1,0,0.1,0.1,0.2,0.1c0,0,0,0,0,0C352.3,252,352.2,252,352.2,252z"/>
		<path fill="#FCD116" d="M352.4,252C352.4,252,352.4,252.1,352.4,252c1.5,0.6,2,0.7,2.8,0.6c-0.6-0.2-1.4-0.4-2.3-0.6
			C352.7,252.1,352.6,252.1,352.4,252z"/>
		<path fill="#FCD116" d="M359.9,253.6c2.2,0,3.3-0.4,4.7-0.9c-0.8-0.1-1.9-0.3-4.7-0.3c-2.8,0-3.9,0.2-4.7,0.3
			C356.5,253.1,357.6,253.6,359.9,253.6z"/>
		<path fill="#FCD116" d="M351.3,242.1c0.4,0.2,0.8,0.4,1.4,0.5c-0.6-0.5-1-1.7-0.3-2.4c-0.3,0.1-0.6,0.2-0.9,0.3
			C351.2,240.9,351,241.6,351.3,242.1z"/>
		<path fill="#FCD116" d="M368.2,240.5c-0.3-0.1-0.5-0.2-0.9-0.3c0.7,0.7,0.3,1.9-0.3,2.4c0.5-0.1,0.9-0.3,1.4-0.5
			C368.7,241.6,368.5,240.9,368.2,240.5z"/>
		<path fill="#FCD116" d="M367.6,252c-0.1,0-0.2,0-0.2,0c0,0,0,0,0,0C367.4,252,367.5,252,367.6,252z"/>
		<path fill="#FCD116" d="M367.4,252.1C367.4,252.1,367.4,252.1,367.4,252.1c0.1,0,0.1,0,0.2-0.1C367.5,252,367.4,252,367.4,252.1z"
			/>
		<path fill="#FCD116" d="M364.5,252.7c0.8,0.1,1.3,0,2.8-0.6c0,0,0,0,0,0c-0.2,0-0.3,0.1-0.5,0.1
			C365.9,252.3,365.2,252.5,364.5,252.7z"/>
		<path d="M354.1,259.8c1.8,0.7,3.7,1.1,5.7,1.1c0,0,0.1,0,0.1,0s0.1,0,0.1,0c2,0,3.9-0.4,5.7-1.1c0,0,0.1,0,0.1-0.1
			c0,0,0.1,0,0.1-0.1c0.1,0,0.1-0.1,0.2-0.1c1.8-0.8,3.4-1.9,4.8-3.2c0,0,0.1-0.1,0.1-0.1c1.4-1.4,2.5-3,3.2-4.8
			c0-0.1,0.1-0.1,0.1-0.2c0,0,0,0,0-0.1c0-0.1,0.1-0.1,0.1-0.2c0.7-1.8,1.1-3.7,1.1-5.7c0,0,0-0.1,0-0.1s0-0.1,0-0.1
			c0-2-0.4-3.9-1.1-5.7c0-0.1-0.1-0.1-0.1-0.2c0,0,0,0,0-0.1c0-0.1-0.1-0.1-0.1-0.2c-0.8-1.8-1.9-3.4-3.2-4.8c0,0-0.1-0.1-0.1-0.1
			c-1.4-1.4-3-2.5-4.8-3.2c-0.1,0-0.1-0.1-0.2-0.1c0,0,0,0-0.1,0c-0.1,0-0.1-0.1-0.2-0.1c-1.8-0.7-3.7-1.1-5.7-1.1c0,0-0.1,0-0.1,0
			s-0.1,0-0.1,0c-2,0-3.9,0.4-5.7,1.1c-0.1,0-0.1,0.1-0.2,0.1c0,0,0,0-0.1,0c-0.1,0-0.1,0.1-0.2,0.1c-1.8,0.8-3.4,1.9-4.8,3.2
			c0,0-0.1,0.1-0.1,0.1c-1.4,1.4-2.5,3-3.2,4.8c0,0.1-0.1,0.1-0.1,0.2c0,0,0,0,0,0.1c0,0.1-0.1,0.1-0.1,0.2
			c-0.7,1.8-1.1,3.7-1.1,5.7c0,0,0,0.1,0,0.1s0,0.1,0,0.1c0,2,0.4,3.9,1.1,5.7c0,0.1,0.1,0.1,0.1,0.2c0,0,0,0,0,0.1
			c0,0.1,0.1,0.1,0.1,0.2c0.8,1.8,1.9,3.4,3.2,4.8c0,0,0.1,0.1,0.1,0.1c1.4,1.4,3,2.5,4.8,3.2c0.1,0,0.1,0.1,0.2,0.1c0,0,0,0,0.1,0
			C353.9,259.8,354,259.8,354.1,259.8z M344.3,245.1c0-8.6,7-15.6,15.6-15.6s15.6,7,15.6,15.6s-7,15.6-15.6,15.6
			S344.3,253.7,344.3,245.1z"/>
		<path d="M365.7,236.6c-1.1,0.1-4.7,2.7-4.1,3.1c0.6,0.4,1.1-1.7,4.7-1.7c3.6,0,4.1,2,5.1,0.9C370.1,237.6,366.8,236.5,365.7,236.6
			z"/>
		<path d="M367,242.6c0.6-0.5,1-1.7,0.3-2.4c-0.3-0.1-0.6-0.1-0.9-0.1c-1.1,0-1.7,0-2.2,0.2c-0.3,0.9,0.7,2,1.6,2.4c0,0,0,0,0,0
			C366.3,242.7,366.7,242.7,367,242.6z"/>
		<path d="M363,241.9c-0.4,0.6,1.7,1.4,3.3,1.4c1.6,0,4-2.4,3-1.7c-0.2,0.1-0.4,0.3-0.6,0.4c-0.1,0.3-0.4,0.5-0.9,0.8
			c0.3-0.2,0.4-0.4,0.5-0.6c-0.4,0.2-0.8,0.4-1.4,0.5c-0.4,0.1-0.7,0.1-1.2,0.1c0,0,0,0,0,0C364.3,242.7,363.6,241,363,241.9z"/>
		<path d="M366.4,240.2c0.3,0,0.6,0,0.9,0.1c0.3,0.1,0.6,0.2,0.9,0.3c-0.1-0.2-0.3-0.4-0.4-0.5c0.3,0.1,0.6,0.3,0.8,0.7
			c0.8,0.4,1.4,0.9,1.9,0.9c-0.9-0.4-1.9-2.1-4.1-2.1c-2.3,0-3.7,0.3-3.9,2v0.1c0.8-0.7,1.2-1.1,1.7-1.3
			C364.7,240.2,365.3,240.2,366.4,240.2z"/>
		<path d="M364.5,252.7c-1.4,0.4-2.5,0.9-4.7,0.9h0.7l-0.7,1.1c3.5,0,3-0.7,7.5-2.6c0,0,0,0,0,0
			C365.8,252.7,365.3,252.7,364.5,252.7z"/>
		<path d="M367.3,252C367.3,252,367.3,252.1,367.3,252c0.1,0,0.2,0,0.2,0C367.5,252,367.4,252,367.3,252z"/>
		<path d="M367.4,252.1c0.3,0.4,0.4,0.5,0.8,1.2c-0.1-1-0.4-1.4-1.6-2.3C366.9,251.5,367.1,251.8,367.4,252.1c0-0.1,0.1-0.1,0.2-0.1
			C367.5,252,367.4,252.1,367.4,252.1z"/>
		<path d="M360.6,252.4h-0.7c2.8,0,3.9,0.2,4.7,0.3c0.6-0.2,1.4-0.4,2.3-0.6c-1.6,0-3.7-1.1-4.7-1.1c-1.1,0-1.4,0.3-2.3,0.3
			L360.6,252.4z"/>
		<path d="M362.3,248.7c1.1,0,2.7,0.4,3.4,1c0.1,0.1-0.4-1.1-1.6-1.3c-1.1-0.1-0.7-2-2-2.3c0,0.6,0.4,0.4,0.6,1.3
			c0,0.7-1.3,0.7-1.6,0c0.3,1.1-0.6,1.1-1.3,1.1v0.9C360.9,249.4,361.1,248.7,362.3,248.7z"/>
		<path d="M367.3,252C367.3,252,367.3,252,367.3,252c-0.2,0-0.4,0-0.5,0.1C367,252.1,367.2,252.1,367.3,252z"/>
		<path d="M367.8,240c0.1,0.1,0.2,0.3,0.4,0.5c0.3,0.4,0.5,1,0.2,1.6c-0.1,0.2-0.3,0.4-0.5,0.6c0.4-0.2,0.7-0.5,0.9-0.8
			c0.3-0.5,0.1-0.9-0.1-1.3C368.4,240.4,368.1,240.1,367.8,240z"/>
		<path d="M348.3,238.9c1,1.1,1.6-0.9,5.1-0.9c3.6,0,4.1,2.1,4.7,1.7c0.6-0.4-3-3-4.1-3.1C352.9,236.5,349.6,237.6,348.3,238.9z"/>
		<path d="M353.3,240.2c-0.3,0-0.6,0-0.9,0.1c-0.7,0.7-0.3,1.9,0.3,2.4c0.4,0.1,0.7,0.1,1.2,0.1c0,0,0,0,0,0
			c0.9-0.4,1.9-1.5,1.6-2.4C355,240.2,354.4,240.2,353.3,240.2z"/>
		<path d="M349.2,241.6c0.6,0,1.1-0.5,1.9-0.9c0.2-0.3,0.5-0.6,0.8-0.7c-0.1,0.1-0.2,0.3-0.4,0.5c0.3-0.1,0.5-0.2,0.9-0.3
			c0.3-0.1,0.6-0.1,0.9-0.1c1.1,0,1.7,0,2.2,0.2c0.5,0.2,0.9,0.5,1.7,1.3v-0.1c-0.1-1.7-1.6-2-3.9-2
			C351,239.4,350,241.2,349.2,241.6z"/>
		<path d="M352.7,242.6c-0.5-0.1-0.9-0.3-1.4-0.5c0.1,0.2,0.3,0.4,0.5,0.6c-0.4-0.2-0.7-0.5-0.9-0.8c-0.2-0.1-0.4-0.2-0.6-0.4
			c-1-0.7,1.4,1.7,3,1.7c1.6,0,3.7-0.9,3.3-1.4c-0.6-0.9-1.3,0.9-2.9,0.9c0,0,0,0,0,0C353.4,242.7,353,242.7,352.7,242.6z"/>
		<path d="M352.4,252c-0.1,0-0.2,0-0.2,0C352.2,252,352.3,252,352.4,252C352.4,252.1,352.4,252,352.4,252z"/>
		<path d="M352.9,252.1c-0.2,0-0.3-0.1-0.5-0.1c0,0,0,0,0,0C352.6,252.1,352.7,252.1,352.9,252.1z"/>
		<path d="M355.2,252.7c0.8-0.1,1.9-0.3,4.7-0.3h0.7l-0.7-1.1c-0.9,0-1.1-0.3-2.3-0.3c-1,0-3.1,1.1-4.7,1.1
			C353.8,252.3,354.5,252.5,355.2,252.7z"/>
		<path d="M352.4,252.1c-0.1,0-0.1-0.1-0.2-0.1C352.2,252,352.3,252,352.4,252.1c0.2-0.3,0.4-0.6,0.8-1.1c-1.1,0.9-1.4,1.3-1.6,2.3
			C352,252.6,352,252.5,352.4,252.1z"/>
		<path d="M359.9,249.4v-0.9c-0.7,0-1.6,0-1.3-1.1c-0.3,0.7-1.6,0.7-1.6,0c0.1-0.9,0.6-0.7,0.6-1.3c-1.3,0.3-0.9,2.1-2,2.3
			c-1.1,0.1-1.7,1.4-1.6,1.3c0.7-0.6,2.3-1,3.4-1C358.6,248.7,358.9,249.4,359.9,249.4z"/>
		<path d="M360.6,253.6h-0.7c-2.2,0-3.3-0.4-4.7-0.9c-0.8,0.1-1.3,0-2.8-0.6c0,0,0,0,0,0c4.5,1.9,4,2.6,7.5,2.6L360.6,253.6z"/>
		<path d="M351.9,242.7c-0.3-0.2-0.4-0.4-0.5-0.6c-0.3-0.6-0.1-1.2,0.2-1.6c0.1-0.2,0.3-0.4,0.4-0.5c-0.3,0.1-0.6,0.3-0.8,0.7
			c-0.2,0.4-0.3,0.8-0.1,1.3C351.2,242.2,351.4,242.5,351.9,242.7z"/>
		<path d="M359.9,256c-0.7,0-2.6,0.4,0,0.4C362.4,256.4,360.6,256,359.9,256z"/>
	</g>

		<polygon fill="none" stroke="#878787" stroke-width="0.25" stroke-linecap="round" stroke-linejoin="round" stroke-miterlimit="10" points="
		522.4,302.9 519.9,300.2 519.3,299.7 518,299.1 516.8,298.3 515.5,298.3 514.8,298.1 513.2,297.1 511,296.4 508.7,293.8
		506.3,292.1 505.4,291.2 504.6,290.1 503.9,288.9 503.5,288.4 502.5,287.5 502.2,286.9 502,286.1 501.9,283.8 501.6,282.3
		501.2,281 499.2,278.1 498.1,275.5 498,273.9 497.8,273.2 497.3,272.9 495,272.4 493.9,271.7 493.4,271.3 493,270.8 492.8,270.3
		492.7,269.8 492.5,269.4 492.1,268.9 491,268.1 490.4,267.9 489.8,267.7 488.5,267.6 488.1,267.4 487.8,267.1 487.4,266.4
		487.2,266.1 486.5,265.6 485.8,265.3 485,265.2 484.3,265.5 483.6,266.1 483.2,266.6 482.8,266.7 481.9,266 480,264.2 477.8,262.7
		475.2,260.3 474,258.9 472.8,257.8 471.6,256.9 470.5,255.9 470,254.6 469.9,252.7 469.8,251.9 469.3,251.1 468.8,250.5
		466.7,248.9 466.3,248.2 465.6,246.8 465.1,246.3 464.5,246.1 463.2,246.2 456.8,245.2 455.6,244.8 455.1,244.4 454.6,243.9
		454.2,243.3 453.7,242.8 452.1,242.1 451,241 450,239.7 449.4,238.6 448.7,237.7 448.2,237.9 447.5,239.4 447,240.1 446.5,240.4
		445.9,240.2 445.1,239.8 443.3,238.1 442.5,237.6 441,237.1 440.4,236.6 439.8,235.9 439.4,235.1 438.9,233.3 438.5,232.6
		437.2,231.7 436.8,231.3 436.5,230.5 436.4,228.9 436.2,228.2 435.6,227.4 432.7,224.1 430.9,222.5 430.1,221.5 429.5,221
		428,220.1 427,218.9 426.2,218.7 425.3,218.8 424.7,219.5 424.6,220.3 424.7,222.1 424.6,222.9 424.1,223.4 423.2,223.3
		422.3,223.1 421.6,223.2 421.1,223.8 420.6,225.4 420.3,226 419.8,226.6 417.7,228 417.4,228.3 417.3,228.6 417.1,228.8 416.8,229
		416.4,229.1 415.5,229.1 414.3,229.4 411.8,229.2 410.8,229.3 410.3,228.7 410.3,227.7 410.6,225.7 410.6,222.7 410.8,221.7
		411.5,220.6 411.6,219.2 411.4,217.9 410.8,216.6 408.2,214.6 407.7,213.9 406.4,211.4 406.1,211 405.8,210.7 405,210.2
		404.6,209.8 404.4,209.4 404.3,208.9 404.1,208.4 402.9,207 402.1,206.2 400.9,205.6 398.6,203.7 396.8,202.7 396.3,202.2
		395.8,201.5 394.8,199.9 394.2,199.3 392.1,197.9 391.5,197.4 391,197 389.6,195.3 389.2,194.8 389,194.5 388.6,194.3 388.2,194.2
		387.8,194.2 387.5,194.1 386.8,193.7 386.8,193.4 386.9,193 386.8,192.1 386.4,191.5 385.8,190.9 385.2,190.5 384,189.9
		381.6,188.2 381.2,187.8 380.5,186.6 379.1,185.6 377.7,185.7 376.2,185.9 374.3,185.4 373.6,185.4 372.2,185.7 371.9,185.8
		371.1,186.2 370.7,186.2 370,185.8 369.6,185.8 368.6,186.5 367.6,187.7 366.8,189.2 366.5,190.3 366.3,191.7 365.5,193
		364.4,193.8 363.1,194.1 362.9,194 362.5,193.5 362.2,193.3 361.9,193.4 361.4,194 361.1,194.1 360.6,193.9 360.2,193.5
		359.7,193.2 358.9,193.2 358.4,193.4 357.6,194.2 357.2,194.4 356.6,194.2 356,193.3 355.5,193 354.6,193.1 352.9,193.4
		351.9,193.3 350.7,192.5 349.9,190.1 349,189.2 348.1,189.2 347.8,189.7 348,190.6 348.5,192.5 348.2,194.3 347.4,195.7
		339.8,202.7 338.7,204 338.2,205.6 338.4,207.3 339.3,209.1 339.8,209.9 340.7,211.8 341,212.8 341.6,215.5 341.9,217.4
		341.9,219.3 341.9,219.8 341.6,220.9 341.4,221.5 340.9,221.7 340.1,221.6 338.4,222 337.7,222.5 337.4,223.3 337.6,223.8
		339.3,226.2 339.6,228.3 338.9,229.8 337.9,231.3 337.4,233.3 337.6,235.3 337.6,236.5 337.3,237 336.5,238.7 336.2,239
		335.6,239.5 335.3,239.8 334.9,240.7 334.7,242.8 334.4,243.6 333.8,244.1 332.3,245 331.6,245.6 331.1,247 332,248.2 333.5,249.3
		334.5,250.6 334.8,252.6 334.4,254.6 332.1,261.5 331.7,262.2 330.8,262.6 328.9,263 328.1,263.3 327.5,263.8 326.4,265
		326.2,265.9 326.6,266.8 327.8,268.2 328.2,269.6 328.4,271.6 328.3,273.6 327.8,275.3 327,276.7 326.8,277.7 327.2,278.6
		329.9,282.2 330.3,283.5 330.1,284.9 327.6,288.4 326.6,290.4 326.3,291 326.4,292.1 327.2,295.5 327.5,296.2 327.9,296.9
		328.4,300.1 328.7,301.3 328.4,301.6 328.7,302.4 328.8,303.4 328.7,305.5 328.8,306.4 329,307.3 329.4,308 331,309.8 331.8,310.9
		332.1,312.3 331.8,314.1 331.3,315.8 331.1,316.7 331.1,317.7 330.8,318.5 330.1,319.3 328.7,320.7 327.3,321.4 325.6,321.5
		322,321.3 320.4,321.9 319.8,323.4 319.9,325.3 320.5,329.3 320.4,330.4 320.1,331.3 318.7,332.6 318.1,333.4 317.8,334.2
		318.1,335.1 319.1,336 319.4,336.9 319.1,337.9 317.8,339.7 317.3,340.6 317.1,341.7 317.2,342.6 317.4,343.5 317.6,344.5
		317.1,348.4 317.2,352.5 318.2,357.9 318.5,358.8 319,359.7 319.6,360.3 321.1,361.2 321.8,361.8 325,366.5 325.5,367.5 326,369.2
		326.4,369.8 327.5,370 328.4,370.1 329.4,370.2 330.3,370.7 331.1,371.3 331.6,372.8 332.1,373.6 333.3,374.1 336.2,377.6
		337,378.8 338.5,382.1 339.9,384.4 340.1,385.2 340.5,385.2 344.2,384.1 347.6,383.6 349.2,382.9 350.1,382.8 351,382.9
		352.1,383.6 352.9,383.7 353.3,383.6 354.1,383.2 354.5,383.1 359.3,383.3 362.6,383.2 364.9,383.5 367.2,383.6 368,383.9
		368.7,384.5 369.4,385.4 369.7,385.6 370.2,386 370.5,386.3 370.8,387.4 371.1,388 371.4,388.3 371.8,388.4 372.6,389.1
		373.4,389.3 374.4,390.5 375.7,391.4 376.3,392 376.9,393.1 377.5,393.6 380.4,395 383.9,396 386.2,396.3 387,396.5 387.6,396.8
		389.1,397.7 389.7,398 390.3,398.1 392.8,398.1 393.4,398.2 394.8,398.7 396.5,399.1 397.2,399.4 395.5,400.4 395,401 395.1,401.7
		395.7,402.2 398,403.6 399.2,404.7 400,405 400.9,404.9 401.3,404.7 402,404.1 402.4,403.9 402.8,403.9 403.2,404 403.3,404.3
		403,404.9 404.2,405.7 404.4,405.9 404.8,405.8 405.4,405.3 405.8,405.2 406.5,405.1 411.6,402.9 412.4,402.6 413,402.4
		414.3,401.1 414.9,400.7 421.3,398.8 424.7,398.5 428.1,399.1 430.8,400 431.6,400.1 434.3,399.7 435.3,399.7 436.8,400.6
		438.8,403.3 439.8,404.3 441.3,404.5 444.8,403.7 446.7,403.6 447.5,403.8 447.9,404 448.3,404.3 448.5,404.7 448.5,405
		448.6,405.2 450.1,405.3 450.8,405.7 451.3,406.2 451.7,406.8 451.7,407 451.6,407.3 451.5,407.8 452.2,407.6 453.2,406.5
		454,406.2 454.8,406 461.5,402.8 463.1,402.3 463.9,402 465.1,400.9 467.6,400.2 476.6,395.4 477.3,394.8 477.7,394.2 477.3,393.1
		476.6,392.5 476,392.4 476.1,392.8 475.4,392.9 475.2,392.4 475.2,391.8 475.4,391.4 476,391.2 476.7,390.7 477.3,390.1
		477.7,389.5 476.2,388.9 475.8,388.5 476.5,388.6 477.7,388.8 478.7,389.3 479.3,389.8 479.2,390.1 478.8,391.2 478.7,391.8
		478.8,392.2 479,392.5 479.2,392.8 479.5,393 478.8,393.6 478.6,393.9 478.4,394.3 479.3,394.3 482.8,393.5 483.1,393 483,392.2
		483.2,391.4 483.7,390.8 489.6,385.1 492.4,383 496,381 497.5,380.5 497.6,379.7 497,378 497.8,375.3 497.9,374.8 498.2,374.4
		499.6,371.6 500.3,370.8 502.4,369.2 504.3,366.8 504.9,366.2 506.2,365.3 506.6,364.6 506.8,362.5 507.6,360.2 508.3,356.3
		508.8,354.7 509.7,353.2 511.1,351.5 511.8,350.9 512.5,350.4 511.2,350.5 510.7,349.9 510.4,349.1 510,348.4 509.4,348
		508.8,347.9 508.1,348.1 507.3,348.1 506.2,346.2 506.3,342 507.2,334.4 506.4,327.5 506.3,324.1 507.3,320.9 508.4,319.4
		509.7,318.2 514.4,315.1 514.8,314.6 515.1,313.8 515.2,312.1 515.5,311.2 516.6,310.1 519.2,308.2 520.8,306.2 522.2,305.1
		522.7,304.4 522.8,303.6 	"/>
</g>

</svg>
