<?xml version="1.0" encoding="utf-8"?>

<svg version="1.2" baseProfile="tiny" xmlns="http://www.w3.org/2000/svg" xmlns:xlink="http://www.w3.org/1999/xlink" x="0px"
	 y="0px" viewBox="206.8 158.6 426.7 276.8" xml:space="preserve">

<g id="Uzbekistan">
	<g>
		<polygon fill="none" points="569.2,314 569.6,314.4 570.4,315.4 570.8,315.8 571.3,315.9 571.2,315.3 570.9,314.5 570.6,314
			570,313.5 569.3,313.2 568.9,313.3 569.2,313.9 		"/>
		<path fill="#0099B5" d="M446,241.4l-2.1-4.4l-0.5-0.4l-0.5-0.4l-2.6-1.6l-2.6-1.6l-1.2-1.3l-1.2-1.3l-2.7-3.5l-2.7-3.5l-0.4-0.4
			l-0.4-0.4l-0.8-0.1l-0.4,0.2l-0.5,0.2l-2.4,1.3l-2.5,1.4l-2.4,1.3l-2.5,1.4l-0.4,0.1l-0.4,0.1l-1.4-0.1l-3.4-0.3l-3.4-0.3
			l-3.4-0.3l-3.4-0.3l-3.8-0.3l-3.8-0.3l-3.8-0.3l-3.8-0.3l-2.3,0.4l-2.3,0.4l-2.3,0.4l-2.3,0.4l-2.3,0.4l-2.3,0.4l-2.3,0.4
			l-2.3,0.4L367,229l-1.4,0.3l-1.4,0.3l-1.4,0.3l-0.9,0.2l-0.9,0.2l-0.9,0.2l-0.9,0.2l-2.1,0.4l-0.5-0.2l-0.5-0.2l-1.9-2.1l-1.4-1.6
			l-1.4-1.6l-1.4-1.6l-1.4-1.6l-1.4-1.6l-1.4-1.6l-1.4-1.6l-1.4-1.7l-1.7-2l-1.4-1.5l-1.4-1.5l-2.9-3.1l-1.5-2.3l-0.2-0.8l-0.2-1.8
			l-0.2-0.8l-0.5-0.9l-0.6-0.7l-1.5-1l-2.2-1.4l-3-2l-3.6-2.4l-4.1-2.8l-4.6-3l-4.8-3.2l-5-3.3l-5-3.3l-4.9-3.3l-3.2-2.1l-1.2,0.9
			l1.6,4.8l-4.1-3l-4.1,3l1.6-4.8l-4.1-3h5l0.4-1.2l-0.9-0.6l-3.8-2.6l-3.2-2.1l-2.4-1.6l-1.5-1l-0.5-0.4l-1.9-1.3l-0.7-0.3
			l-0.6-0.1l-2,0.6l-1.5,0.4l-1.5,0.4l-1.5,0.4l-1.5,0.4l-1.4,0.4l-1.4,0.4l-1.4,0.4l-1.4,0.4l-3.1,1l-3.1,0.9l-3.1,1l-3.1,1
			l-2.3,0.8l-2.3,0.7l-2.3,0.7l-2.3,0.8l-2.3,0.7l-2.3,0.7l-2.3,0.7l-2.3,0.8l-2.3,0.7l-2.3,0.8l-2.3,0.7l-2.3,0.7l-2.3,0.7
			l-2.3,0.7l-2.3,0.7l-2.3,0.7h0v0h0v0h0l0,0h0v0h0l0,0h0l0,0v0h0v0h0v0l0,8l0,8l0,8l0,7.9l0,7.9l0,7.9l0,4.5c3,1.5,6.3,2.6,9.7,3.2
			c-1.9,0.3-3.8,0.5-5.8,0.5c-1.3,0-2.7-0.1-4-0.2l0,7.6l0,4.2h241.3l-0.9-1.8L446,241.4z M235.7,233.1l-4.1-3l-4.1,3l1.6-4.8
			l-4.1-3h5l1.6-4.8l1.6,4.8h5l-4.1,3L235.7,233.1z M263.5,233.1l-4.1-3l-4.1,3l1.6-4.8l-4.1-3h5l1.6-4.8l1.6,4.8h5l-4.1,3
			L263.5,233.1z M262.2,200.5l1.6,4.8l-4.1-3l-4.1,3l1.6-4.8l-4.1-3h5l1.6-4.8l1.6,4.8h5L262.2,200.5z M291.2,233.1l-4.1-3l-4.1,3
			l1.6-4.8l-4.1-3h5l1.6-4.8l1.6,4.8h5l-4.1,3L291.2,233.1z M290,200.5l1.6,4.8l-4.1-3l-4.1,3l1.6-4.8l-4.1-3h5l1.6-4.8l1.6,4.8h5
			L290,200.5z M319,233.1l-4.1-3l-4.1,3l1.6-4.8l-4.1-3h5l1.6-4.8l1.6,4.8h5l-4.1,3L319,233.1z M317.8,200.5l1.6,4.8l-4.1-3l-4.1,3
			l1.6-4.8l-4.1-3h5l1.6-4.8l1.6,4.8h5L317.8,200.5z M346.7,233.1l-4.1-3l-4.1,3l1.6-4.8l-4.1-3h5l1.6-4.8l1.6,4.8h5l-4.1,3
			L346.7,233.1z"/>
		<polygon fill="#CE1126" points="367.5,345.2 367.7,346 369.5,348.3 369.8,348.4 371.2,349.9 371.5,350.1 525.1,350.1 525.1,349.7
			524.6,348.5 524.3,347.8 524.2,347.2 524.4,346.9 524.9,347.3 525.4,348.4 525.8,349.8 526,350.1 527.4,350.1 527.4,349.5
			525.2,346.5 525,346.2 525,345.9 525.1,345.2 525,345 524.5,344.6 524.5,344.3 524.5,344.3 367.3,344.3 		"/>
		<polygon fill="#CE1126" points="206.8,249.6 206.8,251.7 458.1,251.7 458.4,247.5 454.8,249.4 451.2,251.3 451,251.3 450.8,251.3
			449.2,248 448.2,246 206.8,246 		"/>
		<polygon fill="#CE1126" points="579.1,344.3 579.7,345.6 580,346 580.3,346.2 581,346.3 581.2,346.6 581.4,347.5 580.3,349.2
			580.3,350 580.4,350.1 580.8,350.1 581,349.9 581.3,349.6 581.6,349.4 582.1,349.4 582.2,349.7 582.3,350.1 584.3,350.1
			584.9,350 585.3,349.9 585.5,349.5 585.6,348.5 584.5,347.3 584.4,346.5 584.8,346.1 586,345.3 586.2,344.8 586,344.5
			585.7,344.4 585,344.6 584.9,344.7 584.6,344.9 584.5,345 584.3,344.9 584.2,344.9 584.1,344.8 582.8,344.3 579.1,344.3 		"/>
		<polygon fill="#CE1126" points="599,346.8 598.1,347.5 597.7,347.7 597,347.8 596.6,348.3 596.9,348.7 597.4,349.1 597.9,349.3
			598.5,349.5 598.9,349.4 599.2,349 599.7,347 599.6,346.6 		"/>
		<polygon fill="#CE1126" points="525.8,345.1 526.1,345 526.9,344.3 525.3,344.3 		"/>
		<polygon fill="#CE1126" points="529.3,344.3 529.5,344.3 529,344.3 		"/>
		<polygon fill="#FFFFFF" points="582.1,343.8 581.6,343.2 581.3,342.4 580.9,341.6 580.3,341.2 579.5,341.6 579.1,342.6 579,343.2
			578.9,343.8 579.1,344.3 582.8,344.3 582.7,344.2 		"/>
		<path fill="#FFFFFF" d="M206.8,257.3l0,7.7l0,7.7l0,7.7l0,7.6l0,7.6l0,7.6l4,0.2l4.6,0.3l6,0.3l5.6,0.3l2.3,0.5l3,0.6l0.5-0.3
			l0.8-1.4l0.5-0.6l1.2-0.6l0.5-0.4l0.3-0.3l0.1-0.2l-0.2-0.1l-1.2-0.3l-0.4-0.2l-0.4-0.3l-0.5-0.6l-0.5-0.8l-0.3-0.9l-0.1-0.9
			l0-1.2l-0.1-1l-0.3-0.9l-0.6-0.9l-0.4-1.2l0-1l0.2-1.1l0.1-1.2l-0.5-2.6l0-1.3l0.7-1l2.4-1.1l1-0.8l0.9-1.4v0l1.4-2.6l2-2l2.3-1.1
			l2.4-0.1l3.5,0.6l1.2-0.2l1.4-0.7l0.5-0.1l1.7,0.1l0.5-0.1l0.5-0.4l-0.1-0.3l-0.3-0.4l-0.2-0.5l0.2-0.4l1-0.3l0.4-0.4l1-2.3
			l0.2-0.8l0-0.5l-0.5-1.1l-0.1-0.9l0.4-0.4l0.7-0.3l0.6-0.7l0.2-0.4l0.3-0.3l0.5-0.2l0.6-0.1l0.6,0l0.5,0.2l0.4,0.4l0.6,0.8
			l0.4,0.2l0.4,0l0.9-0.4l0.5-0.1l0.5,0.1l2.5,1.2l0.8,0.6l0.6,0.9l0.3,1.2l-0.1,0.6l-0.1,0.6l0,0.5l0.3,0.5l0.4,0.1l1.6-0.2
			l0.3-0.2l0.1-0.3l-0.1-0.3L269,270l-1-1.2l-1.8-3l-0.7-1.6l-0.8-1.2l-0.9-0.7l-3.1-1.5l-0.5-0.4l-0.1-0.6l0.2-0.5l0.5-0.3l0.9-0.4
			l1.3-0.8l0.5-0.1l0.6,0l2.7,1.1l1.3,0.3l1.3,0.1l1-0.3l0.5-1l0.3-2.9l0.5-0.8l0.6,0.3l5.3,6.3l1.7,1.5l1.7,0.8l1.1,0.2l0.7,0
			l0.7-0.2l0.7-0.3l0.6-0.1l0.6,0.4l1.6,1.6l0.4,0.6l0.2,0.6l0.3,2.6l0.3,0.6l0.7,0.4l1.3,0.1l0.6,0.2l1,1.1l0.6,0.2l1.3,0l5.3-0.8
			l2.2,0.2l1.1-0.1l1.1,0.1l0.8,0.9l0.7,1.1l0.9,0.8l1.1,0.4l0.6,0.3l0.3,0.4l-0.1,0.6l-0.4,0.3l-0.5,0.2l-0.4,0.3l-0.2,1.5l0.5,1.6
			l0.1,1.3l-1.5,0.6h0l0,0l-0.4,0.1l-0.3,0.3l0,0.4l0.3,0.5l0.4,0.2l1.3,0l2.6,1l0.7,0.6l0.9,1.3l0.4,0.4l1.2,0.7l0.3,0.3l0.3,0.4
			l0.2,0.5l0,0.5l-0.3,0.4l-0.4,0.1l-0.5-0.2l-0.9-0.5l-0.9-0.3l-0.8,0.1l-0.7,0.5l-0.6,0.9l0.2,1.2l0.8,1.5l1.7,2.3l0.2,0.6
			l-0.3,0.4l-1,0.5l-0.4,0.4l-0.3,0.5l-0.2,0.6l-0.3,2.6l0.2,0.8l0.7,0.7l2.7,1.4l2.4,1.2l1.5,1.1l1.3,1.4l0.7,0.5l0.9,0.3l1.5,0
			l3-1l5-0.3l1.7,0.4l1.2,1.2l0.2-0.1l0.2-0.2l0.5-0.8l0.1,0.1l0.1,0.3l0.1,0.3l1.5-0.3l0.4,0l2.6,1.8l1,0.4l0.9,0l0.9-0.4l0.7-0.8
			l0.5-1l0.6-0.3l0.2-1.2l0.3-0.7l0.6-0.3l0.9,0.1l2.4,0.6l2.2,0.9l5.6,4.1l0.5,0.5l1.8,3.1l0.2,0.5l0.1,0.7l0.1,2.3l0.1,0.5
			l-0.2,0.2l0.3,0.6l0.8,2.7l0.3,1.5l0.2,0.7l0.3,0.4l0.8,0.9l0.3,0.5l0.5,2l0.3,0.7l0.9,1.2l0.1,0.3l0.2,0.7l0.2,0.3l0.5,0.4
			l1.2,0.3l2.1,1.2l0.2,0.3l0.1,1.4l0.2,0.6l0.6,1.3l0.2,0.6l0.1,0.6l0,0.9l0.1,0.7l0.8,1.7l0.1,0.7l-0.1,0.6l-0.2,0.6l-0.1,0.7
			l0.1,0.7l0.2,0.9h157.3l0.3-0.5l0.4,0.3l0.1,0.2h1.6l0.1-0.1l0.5-0.2l1.5,0.2h0.5l0.3,0l0.2-0.4l0-0.5l-0.1-0.5l-0.2-0.5l-1.2-0.8
			l-6.1,1.2l-0.9-0.3l-1.1-0.7L520,341l0.5-0.4l2.4-0.6l0.6,0l1.4,0.3l0.6-0.1l0.9-0.5l0.5-0.2l4-0.6l0.6,0.1l1.6,0.8l2.2,0.7l1.2,0
			l0.9-0.4v-0.8l-1.8-1.6l-0.1-1l0.7-0.1l1,0.4l0.8-0.1l0.2-1.6l-0.2-0.7l-0.3-0.6l-0.6-1.2l-0.2-0.6l-0.5-1.8h0l-1-1.7l0-0.7
			l0.9-0.6l1.5-0.1l0.4-0.2l0.1-0.4l-0.2-1.7l0-1.2l0.2-1l0.4-0.9l0.6-0.8l0.4-0.3l0.4-0.2l0.8-0.3l0.4,0l0.3,0.3l0.3,0.3l0.4,0.2
			l0.8,0.1l0.6,0.5l1,1.5l0.3,0.3l0.6,0.4l0.3,0.3l0.5,0.8l0.3,0.3l0.3,0.3l0.8,0.3l0.7-0.2l0.6-0.5l1-1.3l0.5-0.4l0.5-0.3l4.6-1.4
			l2.3-1.8l2.6-1l1.8-1.1l1.4-1.6l0.7-3.5l0.9-0.2l1.1,0.5l0.8,0.9l0.1,0.1l0.1,0.1l0.8,0.7l4.5,5.1l0.2,0.3l0,0.6l-0.5-0.2
			l-0.9-0.8l-0.5,0.1l-0.2,0.4l0.1,0.6l0.4,0.5l2.3,0.5l1,0.6l-0.2,1.1l-0.1,0.3l-0.4,0.2l-0.1,0.1l0,0.2l-0.1,0.1l-0.4,0.1
			l-0.2,0.1l-0.4,0.3l-0.4,0.3l-1.5,1.2l-0.9,1.1l-0.3,0.3L569,328l-0.4,0.1l-0.3,0.2l-0.3,0.3l-0.6,1l-0.3,0.3l-0.2,0.1l-1.7,0.4
			l-0.7,0.5l-0.4,0.6l0,0.7l0,0.2l0,0.1l0.3,0.5l0,0l0.2,0.3l0.1,0.1l-0.3,1.1l1.2,0.6l0.5,0.2l0.5-0.1l0.5-0.1l0.5-0.1l0.5,0.2
			l0.7,1.1l0.3,1.5l0.4,1.4l1,0.7l1,0.1l1.1-0.1l3.5-1.1l2.2-0.2l0.5,0l0.9-0.9l1.4-0.3l2.9,0.4l0.8-0.1l0.3-0.5l0.2-0.7l0.4-0.6
			l0.4-0.1l0.3,0.2l0.2,0.3l0.3,0.3l0.3,0.2l0.4,0l0.8-0.1l0.5,0l0.8,0.7l1.1,0.3l0.2,0.4l0.2,0.5l0.5,0.4l0.5,0.3l0.6,0.2l1.2,0.2
			l0.6-0.1l0.2-0.4l0.1-0.6l0.2-0.6l0.5-0.4l0.4,0.4l0.4,0.7l0.2,0.7l0,1.3l0.2,0.5l0.5,0.2l0.3-0.1l1.3-0.8l0.4-0.4l0.3-0.4l0.5-1
			l0.8-0.8l0.9,0l1,0.2l1,0.1l0.3-0.1l0.1,0l0.2,0l0.3,0.1l0.4,0.1l0.4-0.1l0.2-0.4l-0.1-0.3l-0.3-0.2l-0.7-0.3l-0.5-0.3l-0.2-0.5
			l0.1-0.5l2.1-1.1l0.7-0.7l0.4-0.9l0.2-0.6l0.2-0.3l1.7-0.9l0.4-0.1l1.3-0.1l0.5,0l0.2,0.2l-0.1,0.3l-0.4,0.1l-0.4,0l-0.3,0.1
			l-0.1,0.3l0.3,0.1l1.1,0l0.4,0.1l1.5,0.9l0.7,0.3l0.6-0.1l0.5-0.7l0.3-0.8l0-0.8l-0.3-0.6l-1.1-0.8l-0.2-0.3l0-0.4l0.2-0.5l0-0.6
			l-0.5-0.9l0.1-0.5l0.7-0.3l0.8,0.7l0.8,1l0.7,0.4l1,0.1l1.8,1.2l1-0.1l0.4-0.3l0.2-0.4l0.1-0.5l0-0.5l0.2-0.5l0.5,0l0.9,0.4
			l0.7-0.3l0.3-2.2l0.6-0.9l0.9-0.4l1.8-0.5l2.1-1.3l2.3-0.9l1.2-0.7l0.8-1l-0.1-0.7l-0.8-0.2l-1.5,0.1l-0.5-0.4l-0.3-0.5l-0.4-0.3
			l-1.8,0.9l-1.2,0.8l-0.3,0l0.1-0.5l-0.1-1l-1-0.3l-3.2,0.3l-1.1-0.1l-1-0.4l-0.8-0.8l-1.1-1.7L618,315l-0.6,0l-0.4-0.2l0-0.8
			l0-0.2l0-0.2l-0.1-0.1l-0.1-0.1l-1.3-0.1l-0.7-0.2l-0.5-0.3l-0.7-1.1l-0.3-0.2l-0.5,0.4l-0.1,0.2l-0.3,0.9l-0.2,0.2l-0.9,0.1
			l-2.2,0.7l0.3-0.8l0.2-0.6v-0.6l-0.2-1.7l0-0.9l-0.1-0.9l-0.3-0.6l-0.6-0.4l-0.6,0.1l-0.6,0.4l-0.5,0.5l-0.7,0.4l-0.4-0.2
			l-0.4-0.5l-0.6-0.5l-2,0.3l-0.7-0.3l-0.1-1.4l0.1-1.4l-0.1-1.1l-0.4-1l-2.3-3.5l-0.2-0.2l-0.2-0.1l-0.2,0.1l0,0.7l-0.2,0.2
			l-0.2-0.1l-0.1-0.5l-0.3-0.1l-0.1,0.2l-0.1,0.4l-0.1,0.3l-0.2-0.1l0-0.4l0.5-1.9l0-0.7l-0.1-0.6l-0.3-0.4l-0.5-0.1l-0.5,0.2
			l-0.3,0.4l-0.5,1.3l0,0v0l0.3,0.6l0.7,0.9l0.1,0.6l-0.1,0.7l-0.4,1.1l-0.8,1.8l-0.7,0.7l-0.8,0.2l-1.1-0.5l-1.2-1.1l-0.3-0.1
			l-0.2,0.4l0.2,5.7l-0.1,1.1l-0.6,0.5l-1.7-1.5l-0.6,0.8l-0.3,0.6l-0.3,0l-0.3-0.3l-0.2-0.5l-0.3-1.2l-0.3-0.4l-0.6,0l-0.5,0.3
			l-0.1,0.5l0.1,0.6l0.1,0.7l-0.2,0.6l-0.4-0.3l-0.6-1.1l-0.4-0.3l-0.9-0.1l-0.4-0.3l-0.5-0.4l-0.6-0.3l-1.2-0.2l-1.1,0.2l-0.5-0.1
			l-0.5-0.4l-0.3-0.5l-0.4-0.4l-0.4-0.3l-0.5-0.2l-0.6,0.1l-0.5,0.2l-0.4,0.1l-0.3-0.4l0-0.6l0.4-2l0-0.7l-0.2-0.7l-1.4-2.4
			l-0.4-0.6l-0.5-0.3l-0.8,0.1l-3,1.7l-0.8,0.3l-0.6,0l-0.4-0.3l-0.6-1.1l-0.4-0.5l-0.4-0.4l-0.9-0.6l0,0h0l0,0l-3.5-0.4l-0.9-0.5
			l-0.5-1.1l0.5-0.9l4-2.4l1.5-1.2l0.8-0.4l0.8-0.5l0.6-0.9l0.7-1.6l1.1-1.3l2.5-2.1l0.8-0.5l2.5-0.3l0.9-0.3l0.3-0.6l0.1-1.9
			l0.4-1.2l1-0.3l1.2,0.1l1-0.2l3.5-2.6l2.1-0.6l0.9-0.7l0.4-1.2l-0.9-0.3l-3.5-2.5l-0.8-0.3l-0.8,0.1l-1.1,0.8l-0.5,0.5l-0.8,0.7
			l-0.8,0.7l-0.5,0.2l-0.5,0.2l-0.5,0.1l-0.5,0.1l-0.6-0.2l-0.6-0.2l-0.3,0l-0.3,0l-0.2,0.2l-0.2,0.2l-0.1,0.3l-0.1,0.3l-0.1,0.2
			l-0.1,0.2l-0.3,0.4l-0.3,0.4l-0.3,0.5l-0.3,0.5l-0.5,1.2l-0.3,0.5l-0.3,0.5L570,280l-0.4,0.2l-0.3,0l-0.3,0l-0.3-0.1l-0.3-0.1
			l-0.2-0.2l-0.2-0.2l-0.1-0.3l-0.1-0.3l-0.1-0.2l-0.1-0.2l-0.2-0.2l-0.2-0.2l-0.2-0.2l-0.2-0.2l-0.2,0l-0.2,0l-1.2,0.5l-1.2,0.5
			l-0.5,0.5l-0.5,0.5l-0.3,0.7l-0.3,0.7l-0.1,0.3l-0.1,0.3l-0.2,0.2l-0.2,0.2l-0.2,0.1l-0.2,0.1l-0.2,0.1l-0.2,0.1l-0.2,0.1
			l-0.2,0.1l-0.2,0.2l-0.2,0.2l-0.8,1.5l-0.8,1.5l-0.3,0.4l-0.3,0.4l-1,0.8l-1,0.8l-0.7,0.3l-0.7,0.3l-0.2,0.2l-0.2,0.2l-0.2,0.3
			l-0.2,0.3l-0.4,0.4l-0.4,0.4l-0.5,0.2l-0.5,0.2l-1.4,0l-1.4,0.1l-1.7,0.5l-1.7,0.5l-0.2,0.2l-0.2,0.2l-0.4,0.4l-0.4,0.4l-1.3,1
			l-1.3,1l-0.7,0.2l-0.7,0.2l-0.3,0.2l-0.3,0.2l-0.2,0.4l-0.2,0.4l0,0.2l0,0.2l0.2,0.4l0.2,0.4l0,0.2l0,0.2l-0.1,0.1l-0.1,0.1
			l-0.7-0.1l-0.7-0.1l-0.2,0.1l-0.2,0l-0.5,0.3l-0.5,0.3l-0.2,0l-0.2,0l-0.4-0.1l-0.4-0.1l-0.2,0l-0.2,0l-0.7,0.4l-0.7,0.4l-0.3,0.3
			l-0.3,0.3l-0.1,0.3l-0.1,0.3l-0.2-0.1l-0.2-0.1l-0.2,0.1l-0.2,0.1l-0.6,0.3l-0.6,0.3l-0.1,0.1l-0.1,0.1l-0.1,0.1l-0.1,0.1l0,0.1
			l0,0.1l0.1,0.1l0.1,0.1l0.1,0l0.1,0l0,0.1l0,0.1l0,0.2l0,0.2l0,0.3l0,0.3l-0.2,1.6l-0.2,1.6l-0.1,0.2l-0.1,0.2l-0.2,0.2l-0.2,0.2
			l-0.4,0.3l-0.4,0.3l-0.4,0.2l-0.4,0.2l-0.5,0.1l-0.5,0.1l-0.3,0.1l-0.3,0.1l-0.2,0.2l-0.2,0.2l-0.3,0.5l-0.3,0.5l-0.8,0.4
			l-0.9,0.4l-0.3,0.4l-0.3,0.4l-0.5,1.3l-0.5,1.3l-0.2,0.3l-0.3,0.3l-0.8,0.3l-0.8,0.3l-0.3,0.2l-0.3,0.2l-0.1,0.4l-0.1,0.4l-0.1,0
			l-0.1,0l-0.1,0l-0.1,0l-0.1,0l-0.1,0l0,0.2v0.2l0,0.4l0,0.4l0,0.2l0,0.2l-0.1,0.2l-0.1,0.2l-0.1,0.1l-0.1,0.1l-0.1,0.1l-0.1,0.1
			l0,0.3l0,0.3l0.1,1.4l0.1,1.4l0.1,0.3l0.1,0.3l0.1,0.1l0.1,0.1l0.1,0.1l0.1,0.1l0.3,0.1l0.3,0.1l0,0.2l0,0.2l0,0.2l0,0.2l0.1,0.2
			l0.1,0.2l0.1,0.2l0.1,0.2l0,0.1l0,0.1l-0.3,0.5l-0.3,0.5l0.2,0.1l0.2,0.1l-0.1,0.2l-0.1,0.2l-0.3,0.2l-0.3,0.2l-0.3,0l-0.3,0
			l-0.5-0.2l-0.5-0.2l-0.1,0l-0.1,0l-0.1,0.1l-0.1,0.1l-0.1,0.1l-0.1,0.1l-0.1,0.1l-0.1,0.1l-0.2,0l-0.2,0l-0.2,0.2l-0.2,0.2l0,0.1
			l0,0.1l-2.9-1.5l-2.9-1.5l-0.8-0.7l-0.8-0.7l-1.1-1.1l-1.1-1.1l-0.4-0.2l-0.4-0.2l-0.5-0.1l-0.5-0.1l-0.1-0.1l-0.1-0.1l0-0.1
			l0-0.1l0.1-0.1l0.1-0.1l0.4-0.2l0.4-0.2l0.2-0.2l0.2-0.2l0.2-0.2l0.2-0.2l0.3-0.4l0.2-0.4l0.2-0.4l0.2-0.5l0.2-0.5l0.1-0.6
			l0.1-0.5l0-0.5l0-0.5l-0.1-0.2l-0.1-0.2l-0.1-0.1l-0.1-0.1l-0.1-0.1l-0.1-0.1l0.1-0.1l0.1-0.1l0.3-0.2l0.3-0.2l0,0l0,0l-0.1,0
			l-0.1,0l0-0.2l0-0.2l0,0l0,0l0-0.3l0-0.3l-0.3,0l-0.3,0l-0.2,0.4l-0.2,0.4l-0.1-0.2l-0.1-0.2l-0.2,0l-0.2,0l-0.2,0.1l-0.2,0.1
			l-0.1,0.1l-0.1,0.1l-0.2-0.3l-0.2-0.3l-0.1-0.6l-0.1-0.6l-0.1-0.3l-0.1-0.3l-0.5-0.7l-0.5-0.7l-0.1-0.2l-0.1-0.2l0,0l0,0l-0.1-0.5
			l-0.2-0.5l-0.3,0.2l-0.3,0.2l-0.7,0.5l-0.7,0.5l-0.2,0l-0.2,0l-0.3-0.1l-0.3-0.1l-0.5-0.3l-0.5-0.3l-0.3-0.1l-0.3-0.1l-3.2,0.2
			l-3.2,0.2l-2,0.1l-3.2,0.2l-2.7,0.2l-3.6,0.2l-2.4,0.1l-2.9,0.2l-1-0.3l-1-0.3l-0.6-0.7l-0.6-0.7l-1.1-4.8l-1.1-4.9l-0.8-4.1
			l-0.8-4.1l-0.4-4.2l-0.4-4.2l-0.1,0l-0.1,0l-0.1,0l-0.1,0H468l-0.1,0l-0.1,0l-0.1,0l-3,0l-2.7,0l-2.7,0l-3,0l-0.1-0.1l-0.1-0.1
			l0-0.2l0-0.2l0.1-6.5l0.1-6.5l0.1-0.2l0.1-0.2l0.3-0.1l0.3-0.1l0.1-0.3l0.1-0.3l0.1-0.9l0.1-0.9l0.5-8.4l0.3-4.1H206.8
			L206.8,257.3z M569.3,313.2l0.7,0.3l0.6,0.5l0.3,0.6l0.3,0.8l0,0.6l-0.5-0.1l-0.4-0.4l-0.7-1l-0.4-0.4l0,0l-0.3-0.7L569.3,313.2z"
			/>
		<polygon fill="#1EB53A" points="580.6,350.2 580.8,350.1 580.4,350.1 		"/>
		<polygon fill="#1EB53A" points="374.1,351.9 377.5,354.4 381.6,357.2 389.7,363.1 393.2,365.5 394.8,367 397.4,370.7 399,372.3
			401.7,374.3 405.2,376.8 409.2,379.6 409.9,380 410.7,380.1 411.3,380 413.2,379 414,378.9 414.6,379.3 416.7,382.1 422,386.5
			425.1,388.4 428.8,389.7 430.5,390.7 433.8,393.7 436.1,395.8 439.5,398.1 441.9,399.8 446,402.5 447.7,403.1 449.4,403
			450.1,402.6 451.3,401.6 452,401.4 452.8,401.4 455.3,402.6 456.9,402.9 457.6,403.3 459.2,404.5 460.8,405 461.6,405.3
			462.3,406 463.5,407.5 466,408.7 466.8,408.9 468.7,408.9 469.6,409.2 470.5,409.6 471.4,410.2 471.4,410.2 471.9,411.7
			471,413.5 469.6,415.3 468.8,416.8 468.7,418.1 468.9,420.5 468.8,421.7 468.2,423.8 468.1,425 468.5,425.8 469,426.3
			469.4,426.7 469.5,427.2 469.1,427.8 468.6,428.3 468.2,428.8 468.2,429.4 468.8,429.9 469.3,429.7 469.9,429.7 470.5,429.7
			472.1,430.4 472.4,430.5 473.1,430.5 473.4,430.4 473.9,430 474.1,429.9 477.4,429.8 479.7,429.2 480.9,429.3 481.3,429.5
			482.3,430.2 482.8,430.3 483.1,430.6 483.5,432 483.8,432.4 484.3,432.8 485.4,433.2 485.9,433.6 486.1,434.2 486.3,434.8
			486.6,435.2 487.2,435.5 487.7,435.3 488.7,434.7 489.3,434.6 489.9,434.5 490.4,434.4 490.9,434.1 491.4,433.8 492.2,432.9
			492.7,432.6 493.2,432.4 493.8,432.7 494.3,434 494.7,434.4 494.9,434.3 495.1,434 495.3,433.7 495.4,433.5 495.7,433.5
			496.2,433.3 496.4,433.3 496.7,433.4 497.3,433.8 497.5,434 497.9,434 498.7,434 499.3,434.1 499.7,434.3 500,434.8 500.1,435.3
			500.2,434.9 500.7,434 501,432.9 501.1,431.8 501,430.5 500.5,428 500.6,426.7 501.3,424.8 502.4,423 503.7,421.3 505,420
			506.8,417.5 507.5,416.1 508.6,412.9 509,412.4 509.8,412.2 511,412 511.4,411.9 511.7,411.6 511.9,411.2 512,410.7 512.2,410.2
			512.2,410.2 512.5,409.6 513.5,408.1 514.1,406.4 514.5,404.5 514.4,403.3 513.8,402.4 511.8,400.6 510.6,399.9 510.1,399.5
			509.2,397.8 508.2,396.8 508,396.4 507.9,395.9 507.9,394.9 507.7,394.4 507.1,393.5 506.9,393.1 506.9,392.4 507,390.6
			506.9,390 506.6,388.8 506.5,388.2 506.7,387.7 507.3,387.3 507.4,387.1 507.5,386.7 507.4,386.4 507.2,386.1 507.1,385.8
			507.2,385.1 507.5,384.9 507.9,385 508.5,384.9 508.9,384.6 509.3,384.3 509.6,383.8 509.8,383.3 509.9,382.6 509.6,382
			508.9,380.9 508.1,379.1 507.7,378.6 507.7,378.6 507.7,378.6 507.7,378.6 507.5,378.5 507.3,378.5 507.1,378.5 506.9,378.6
			506.5,378.9 506.1,379 505.6,379 505.3,378.6 505.1,378.5 504.6,378.3 504.3,378.3 503.9,378.4 503.6,378.6 503.6,378.6
			503.6,378.6 503.6,378.6 501.7,379.2 501.1,379.2 497.9,378.7 497.4,378.3 497.3,377.5 497.6,375 497.5,374.6 497.3,374.2
			497.1,374.1 496.7,374.2 496.6,374.2 496.4,374 496.2,373.7 496.1,373.6 495.1,373.2 493.1,373.1 490.1,372 489.4,371.4
			489.2,370.1 489.3,369.7 489.3,369.4 489.4,369.3 489.7,369.1 489.9,369 490.2,369.1 490.3,369 490.5,367.9 490.8,366.9
			490.9,365.7 491,364.4 491.3,363.2 491.6,362.9 491.9,362.8 492.6,362.9 492.7,362.9 492.8,362.8 492.9,362.7 493,362.6
			492.8,361.2 493.3,360.7 495.3,360.4 497.6,358.7 498.5,358.5 499.7,358.5 508.2,360.7 511.9,360.8 513.9,361.5 515.2,361.6
			516.4,361.5 517.9,361.1 518.4,360.9 518.2,360.2 518.5,359.8 519.5,359.1 520.1,358.5 520.5,357.8 520.6,357.1 520.9,351.9
			521.1,351.2 521.4,351.2 521.7,351.3 522.6,350.6 523,350.9 523.7,352 524,352.1 524.2,351.9 524.2,351.6 524.2,351.4
			524.2,351.4 524.4,350.9 524.5,350.9 524.7,350.8 524.8,350.8 525.1,350.1 525.1,350.1 371.5,350.1 		"/>
		<polygon fill="#1EB53A" points="526.4,350.7 527.4,350.2 527.4,350.1 526,350.1 		"/>
		<polygon fill="#1EB53A" points="582.3,350.1 582.6,350.3 582.9,350.4 584.1,350.1 584.3,350.1 582.3,350.1 		"/>
		<path fill="#FFFFFF" d="M216.6,233.9c-3.5-0.6-6.7-1.7-9.7-3.2l0,3.3l0,0.2c1.3,0.1,2.6,0.2,4,0.2
			C212.8,234.4,214.7,234.2,216.6,233.9z"/>
		<polygon fill="#FFFFFF" points="233.2,225.3 231.6,220.5 230.1,225.3 225,225.3 229.1,228.3 227.5,233.1 231.6,230.1 235.7,233.1
			234.1,228.3 238.2,225.3 		"/>
		<polygon fill="#FFFFFF" points="260.9,225.3 259.4,220.5 257.8,225.3 252.8,225.3 256.9,228.3 255.3,233.1 259.4,230.1
			263.5,233.1 261.9,228.3 266,225.3 		"/>
		<polygon fill="#FFFFFF" points="288.7,225.3 287.1,220.5 285.6,225.3 280.5,225.3 284.6,228.3 283.1,233.1 287.1,230.1
			291.2,233.1 289.7,228.3 293.7,225.3 		"/>
		<polygon fill="#FFFFFF" points="316.5,225.3 314.9,220.5 313.3,225.3 308.3,225.3 312.4,228.3 310.8,233.1 314.9,230.1 319,233.1
			317.4,228.3 321.5,225.3 		"/>
		<polygon fill="#FFFFFF" points="344.2,225.3 342.7,220.5 341.1,225.3 336.1,225.3 340.1,228.3 338.6,233.1 342.7,230.1
			346.7,233.1 345.2,228.3 349.3,225.3 		"/>
		<polygon fill="#FFFFFF" points="259.7,192.7 258.2,197.5 253.1,197.5 257.2,200.5 255.6,205.3 259.7,202.3 263.8,205.3
			262.2,200.5 266.3,197.5 261.3,197.5 		"/>
		<polygon fill="#FFFFFF" points="287.5,192.7 285.9,197.5 280.9,197.5 285,200.5 283.4,205.3 287.5,202.3 291.6,205.3 290,200.5
			294.1,197.5 289,197.5 		"/>
		<polygon fill="#FFFFFF" points="315.2,192.7 313.7,197.5 308.6,197.5 312.7,200.5 311.2,205.3 315.2,202.3 319.3,205.3
			317.8,200.5 321.8,197.5 316.8,197.5 		"/>
		<polygon fill="#FFFFFF" points="280.4,169.8 284.5,172.7 282.9,177.5 287,174.6 291.1,177.5 289.5,172.7 290.7,171.9 289.2,170.9
			285.8,168.6 285.4,169.8 		"/>
	</g>
	<path fill="none" stroke="#999999" stroke-width="0.25" stroke-linecap="round" stroke-linejoin="round" d="M599,346.8l-0.9,0.7
		l-0.4,0.2l-0.6,0l-0.4,0.5l0.2,0.5l0.5,0.4l0.5,0.2l0.6,0.2l0.4-0.1l0.2-0.4l0.6-2.1l-0.1-0.3L599,346.8z M585.7,344.4l-0.6,0.2
		l-0.1,0.1l-0.3,0.2l-0.1,0l-0.2,0l-0.1-0.1l-0.1-0.1l-1.4-0.6l-0.7-0.4l-0.4-0.5l-0.3-0.9l-0.4-0.8l-0.6-0.4l-0.8,0.4l-0.4,1
		l-0.1,0.6l0,0.5l0.1,0.5l0.6,1.3l0.3,0.4l0.3,0.2l0.7,0.1l0.3,0.2l0.1,0.9l-1.1,1.7l0,0.8l0.3,0.2l0.4-0.2l0.3-0.3l0.3-0.2l0.5,0
		l0.1,0.3l0.1,0.3l0.3,0.3l0.4,0l1.2-0.3l0.8,0l0.3-0.1l0.3-0.4l0-1l-1.1-1.2l-0.1-0.8l0.4-0.4l1.1-0.8l0.2-0.5l-0.2-0.3
		L585.7,344.4z M633.4,319.2l-0.8-0.2l-1.5,0.1l-0.5-0.4l-0.3-0.5l-0.4-0.3l-1.8,0.9l-1.2,0.8l-0.3,0l0.1-0.5l-0.1-1l-1-0.3
		l-3.2,0.3l-1.1-0.1l-1-0.4l-0.8-0.8l-1.1-1.7L618,315l-0.6,0l-0.4-0.2l0-0.8l0-0.2l0-0.2l-0.1-0.1l-0.1-0.1l-1.3-0.1l-0.7-0.2
		l-0.5-0.3l-0.7-1.1l-0.3-0.2l-0.5,0.4l-0.1,0.2l-0.3,0.9l-0.2,0.2l-0.9,0.1l-2.2,0.7l0.3-0.8l0.2-0.6v-0.6l-0.2-1.7l0-0.9l-0.1-0.9
		l-0.3-0.6l-0.6-0.4l-0.6,0.1l-0.6,0.4l-0.5,0.5l-0.7,0.4l-0.4-0.2l-0.4-0.5l-0.6-0.5l-2,0.3l-0.7-0.3l-0.1-1.4l0.1-1.4l-0.1-1.1
		l-0.4-1l-2.3-3.5l-0.2-0.2l-0.2-0.1l-0.2,0.1l0,0.7l-0.2,0.2l-0.2-0.1l-0.1-0.5l-0.3-0.1l-0.1,0.2l-0.1,0.4l-0.1,0.3l-0.2-0.1
		l0-0.4l0.5-1.9l0-0.7l-0.1-0.6l-0.3-0.4l-0.5-0.1l-0.5,0.2l-0.3,0.4l-0.5,1.3l0,0v0l0.3,0.6l0.7,0.9l0.1,0.6l-0.1,0.7l-0.4,1.1
		l-0.8,1.8l-0.7,0.7l-0.8,0.2l-1.1-0.5l-1.2-1.1l-0.3-0.1l-0.2,0.4l0.2,5.7l-0.1,1.1l-0.6,0.5l-1.7-1.5l-0.6,0.8l-0.3,0.6l-0.3,0
		l-0.3-0.3l-0.2-0.5l-0.3-1.2l-0.3-0.4l-0.6,0l-0.5,0.3l-0.1,0.5l0.1,0.6l0.1,0.7l-0.2,0.6l-0.4-0.3l-0.6-1.1l-0.4-0.3l-0.9-0.1
		l-0.4-0.3l-0.5-0.4l-0.6-0.3l-1.2-0.2l-1.1,0.2l-0.5-0.1l-0.5-0.4l-0.3-0.5l-0.4-0.4l-0.4-0.3l-0.5-0.2l-0.6,0.1l-0.5,0.2l-0.4,0.1
		l-0.3-0.4l0-0.6l0.4-2l0-0.7l-0.2-0.7l-1.4-2.4l-0.4-0.6l-0.5-0.3l-0.8,0.1l-3,1.7l-0.8,0.3l-0.6,0l-0.4-0.3l-0.6-1.1l-0.4-0.5
		l-0.4-0.4l-0.9-0.6l0,0h0l0,0l-3.5-0.4l-0.9-0.5l-0.5-1.1l0.5-0.9l4-2.4l1.5-1.2l0.8-0.4l0.8-0.5l0.6-0.9l0.7-1.6l1.1-1.3l2.5-2.1
		l0.8-0.5l2.5-0.3l0.9-0.3l0.3-0.6l0.1-1.9l0.4-1.2l1-0.3l1.2,0.1l1-0.2l3.5-2.6l2.1-0.6l0.9-0.7l0.4-1.2l-0.9-0.3l-3.5-2.5
		l-0.8-0.3l-0.8,0.1l-1.1,0.8l-0.5,0.5l-0.8,0.7l-0.8,0.7l-0.5,0.2l-0.5,0.2l-0.5,0.1l-0.5,0.1l-0.6-0.2l-0.6-0.2l-0.3,0l-0.3,0
		l-0.2,0.2l-0.2,0.2l-0.1,0.3l-0.1,0.3l-0.1,0.2l-0.1,0.2l-0.3,0.4l-0.3,0.4l-0.3,0.5l-0.3,0.5l-0.5,1.2l-0.3,0.5l-0.3,0.5L570,280
		l-0.4,0.2l-0.3,0l-0.3,0l-0.3-0.1l-0.3-0.1l-0.2-0.2l-0.2-0.2l-0.1-0.3l-0.1-0.3l-0.1-0.2l-0.1-0.2l-0.2-0.2l-0.2-0.2l-0.2-0.2
		l-0.2-0.2l-0.2,0l-0.2,0l-1.2,0.5l-1.2,0.5l-0.5,0.5l-0.5,0.5l-0.3,0.7l-0.3,0.7l-0.1,0.3l-0.1,0.3l-0.2,0.2l-0.2,0.2l-0.2,0.1
		l-0.2,0.1l-0.2,0.1l-0.2,0.1l-0.2,0.1l-0.2,0.1l-0.2,0.2l-0.2,0.2l-0.8,1.5l-0.8,1.5l-0.3,0.4l-0.3,0.4l-1,0.8l-1,0.8l-0.7,0.3
		l-0.7,0.3l-0.2,0.2l-0.2,0.2l-0.2,0.3l-0.2,0.3l-0.4,0.4l-0.4,0.4l-0.5,0.2l-0.5,0.2l-1.4,0l-1.4,0.1l-1.7,0.5l-1.7,0.5l-0.2,0.2
		l-0.2,0.2l-0.4,0.4l-0.4,0.4l-1.3,1l-1.3,1l-0.7,0.2l-0.7,0.2l-0.3,0.2l-0.3,0.2l-0.2,0.4l-0.2,0.4l0,0.2l0,0.2l0.2,0.4l0.2,0.4
		l0,0.2l0,0.2l-0.1,0.1l-0.1,0.1l-0.7-0.1l-0.7-0.1l-0.2,0.1l-0.2,0l-0.5,0.3l-0.5,0.3l-0.2,0l-0.2,0l-0.4-0.1l-0.4-0.1l-0.2,0
		l-0.2,0l-0.7,0.4l-0.7,0.4l-0.3,0.3l-0.3,0.3l-0.1,0.3l-0.1,0.3l-0.2-0.1l-0.2-0.1l-0.2,0.1l-0.2,0.1l-0.6,0.3l-0.6,0.3l-0.1,0.1
		l-0.1,0.1l-0.1,0.1l-0.1,0.1l0,0.1l0,0.1l0.1,0.1l0.1,0.1l0.1,0l0.1,0l0,0.1l0,0.1l0,0.2l0,0.2l0,0.3l0,0.3l-0.2,1.6l-0.2,1.6
		l-0.1,0.2l-0.1,0.2l-0.2,0.2l-0.2,0.2l-0.4,0.3l-0.4,0.3l-0.4,0.2l-0.4,0.2l-0.5,0.1l-0.5,0.1l-0.3,0.1l-0.3,0.1l-0.2,0.2l-0.2,0.2
		l-0.3,0.5l-0.3,0.5l-0.8,0.4l-0.9,0.4l-0.3,0.4l-0.3,0.4l-0.5,1.3l-0.5,1.3l-0.2,0.3l-0.3,0.3l-0.8,0.3l-0.8,0.3l-0.3,0.2l-0.3,0.2
		l-0.1,0.4l-0.1,0.4l-0.1,0l-0.1,0l-0.1,0l-0.1,0l-0.1,0l-0.1,0l0,0.2v0.2l0,0.4l0,0.4l0,0.2l0,0.2l-0.1,0.2l-0.1,0.2l-0.1,0.1
		l-0.1,0.1l-0.1,0.1l-0.1,0.1l0,0.3l0,0.3l0.1,1.4l0.1,1.4l0.1,0.3l0.1,0.3l0.1,0.1l0.1,0.1l0.1,0.1l0.1,0.1l0.3,0.1l0.3,0.1l0,0.2
		l0,0.2l0,0.2l0,0.2l0.1,0.2l0.1,0.2l0.1,0.2l0.1,0.2l0,0.1l0,0.1l-0.3,0.5l-0.3,0.5l0.2,0.1l0.2,0.1l-0.1,0.2l-0.1,0.2l-0.3,0.2
		l-0.3,0.2l-0.3,0l-0.3,0l-0.5-0.2l-0.5-0.2l-0.1,0l-0.1,0l-0.1,0.1l-0.1,0.1l-0.1,0.1l-0.1,0.1l-0.1,0.1l-0.1,0.1l-0.2,0l-0.2,0
		l-0.2,0.2l-0.2,0.2l0,0.1l0,0.1l-2.9-1.5l-2.9-1.5l-0.8-0.7l-0.8-0.7l-1.1-1.1l-1.1-1.1l-0.4-0.2l-0.4-0.2l-0.5-0.1l-0.5-0.1
		l-0.1-0.1l-0.1-0.1l0-0.1l0-0.1l0.1-0.1l0.1-0.1l0.4-0.2l0.4-0.2l0.2-0.2l0.2-0.2l0.2-0.2l0.2-0.2l0.3-0.4l0.2-0.4l0.2-0.4l0.2-0.5
		l0.2-0.5l0.1-0.6l0.1-0.5l0-0.5l0-0.5l-0.1-0.2l-0.1-0.2l-0.1-0.1l-0.1-0.1l-0.1-0.1l-0.1-0.1l0.1-0.1l0.1-0.1l0.3-0.2l0.3-0.2l0,0
		l0,0l-0.1,0l-0.1,0l0-0.2l0-0.2l0,0l0,0l0-0.3l0-0.3l-0.3,0l-0.3,0l-0.2,0.4l-0.2,0.4l-0.1-0.2l-0.1-0.2l-0.2,0l-0.2,0l-0.2,0.1
		l-0.2,0.1l-0.1,0.1l-0.1,0.1l-0.2-0.3l-0.2-0.3l-0.1-0.6l-0.1-0.6l-0.1-0.3l-0.1-0.3l-0.5-0.7l-0.5-0.7l-0.1-0.2l-0.1-0.2l0,0l0,0
		l-0.1-0.5l-0.2-0.5l-0.3,0.2l-0.3,0.2l-0.7,0.5l-0.7,0.5l-0.2,0l-0.2,0l-0.3-0.1l-0.3-0.1l-0.5-0.3l-0.5-0.3l-0.3-0.1l-0.3-0.1
		l-3.2,0.2l-3.2,0.2l-2,0.1l-3.2,0.2l-2.7,0.2l-3.6,0.2l-2.4,0.1l-2.9,0.2l-1-0.3l-1-0.3l-0.6-0.7l-0.6-0.7l-1.1-4.8l-1.1-4.9
		l-0.8-4.1l-0.8-4.1l-0.4-4.2l-0.4-4.2l-0.1,0l-0.1,0l-0.1,0l-0.1,0H468l-0.1,0l-0.1,0l-0.1,0l-3,0l-2.7,0l-2.7,0l-3,0l-0.1-0.1
		l-0.1-0.1l0-0.2l0-0.2l0.1-6.5l0.1-6.5l0.1-0.2l0.1-0.2l0.3-0.1l0.3-0.1l0.1-0.3l0.1-0.3l0.1-0.9l0.1-0.9l0.5-8.4l0.5-8.4l-3.6,1.9
		l-3.6,1.9l-0.2,0l-0.2,0l-1.6-3.3l-1.9-3.8l-1.3-2.8l-2.1-4.4l-0.5-0.4l-0.5-0.4l-2.6-1.6l-2.6-1.6l-1.2-1.3l-1.2-1.3l-2.7-3.5
		l-2.7-3.5l-0.4-0.4l-0.4-0.4l-0.8-0.1l-0.4,0.2l-0.5,0.2l-2.4,1.3l-2.5,1.4l-2.4,1.3l-2.5,1.4l-0.4,0.1l-0.4,0.1l-1.4-0.1l-3.4-0.3
		l-3.4-0.3l-3.4-0.3l-3.4-0.3l-3.8-0.3l-3.8-0.3l-3.8-0.3l-3.8-0.3l-2.3,0.4l-2.3,0.4l-2.3,0.4l-2.3,0.4l-2.3,0.4l-2.3,0.4l-2.3,0.4
		l-2.3,0.4L367,229l-1.4,0.3l-1.4,0.3l-1.4,0.3l-0.9,0.2l-0.9,0.2l-0.9,0.2l-0.9,0.2l-2.1,0.4l-0.5-0.2l-0.5-0.2l-1.9-2.1l-1.4-1.6
		l-1.4-1.6l-1.4-1.6l-1.4-1.6l-1.4-1.6l-1.4-1.6l-1.4-1.6l-1.4-1.7l-1.7-2l-1.4-1.5l-1.4-1.5l-2.9-3.1l-1.5-2.3l-0.2-0.8l-0.2-1.8
		l-0.2-0.8l-0.5-0.9l-0.6-0.7l-1.5-1l-2.2-1.4l-3-2l-3.6-2.4l-4.1-2.8l-4.6-3l-4.8-3.2l-5-3.3l-5-3.3l-4.9-3.3l-4.6-3.1l-4.3-2.9
		l-3.8-2.6l-3.2-2.1l-2.4-1.6l-1.5-1l-0.5-0.4l-1.9-1.3l-0.7-0.3l-0.6-0.1l-2,0.6l-1.5,0.4l-1.5,0.4l-1.5,0.4l-1.5,0.4l-1.4,0.4
		l-1.4,0.4l-1.4,0.4l-1.4,0.4l-3.1,1l-3.1,0.9l-3.1,1l-3.1,1l-2.3,0.8l-2.3,0.7l-2.3,0.7l-2.3,0.8l-2.3,0.7l-2.3,0.7l-2.3,0.7
		l-2.3,0.8l-2.3,0.7l-2.3,0.8l-2.3,0.7l-2.3,0.7l-2.3,0.7l-2.3,0.7l-2.3,0.7l-2.3,0.7h0v0h0v0h0l0,0h0v0h0l0,0h0l0,0v0h0v0h0v0l0,8
		l0,8l0,8l0,7.9l0,7.9l0,7.9l0,7.8l0,7.8l0,7.8l0,7.7l0,7.7l0,7.7l0,7.7l0,7.6l0,7.6l0,7.6l4,0.2l4.6,0.3l6,0.3l5.6,0.3l2.3,0.5
		l3,0.6l0.5-0.3l0.8-1.4l0.5-0.6l1.2-0.6l0.5-0.4l0.3-0.3l0.1-0.2l-0.2-0.1l-1.2-0.3l-0.4-0.2l-0.4-0.3l-0.5-0.6l-0.5-0.8l-0.3-0.9
		l-0.1-0.9l0-1.2l-0.1-1l-0.3-0.9l-0.6-0.9l-0.4-1.2l0-1l0.2-1.1l0.1-1.2l-0.5-2.6l0-1.3l0.7-1l2.4-1.1l1-0.8l0.9-1.4v0l1.4-2.6l2-2
		l2.3-1.1l2.4-0.1l3.5,0.6l1.2-0.2l1.4-0.7l0.5-0.1l1.7,0.1l0.5-0.1l0.5-0.4l-0.1-0.3l-0.3-0.4l-0.2-0.5l0.2-0.4l1-0.3l0.4-0.4
		l1-2.3l0.2-0.8l0-0.5l-0.5-1.1l-0.1-0.9l0.4-0.4l0.7-0.3l0.6-0.7l0.2-0.4l0.3-0.3l0.5-0.2l0.6-0.1l0.6,0l0.5,0.2l0.4,0.4l0.6,0.8
		l0.4,0.2l0.4,0l0.9-0.4l0.5-0.1l0.5,0.1l2.5,1.2l0.8,0.6l0.6,0.9l0.3,1.2l-0.1,0.6l-0.1,0.6l0,0.5l0.3,0.5l0.4,0.1l1.6-0.2l0.3-0.2
		l0.1-0.3l-0.1-0.3L269,270l-1-1.2l-1.8-3l-0.7-1.6l-0.8-1.2l-0.9-0.7l-3.1-1.5l-0.5-0.4l-0.1-0.6l0.2-0.5l0.5-0.3l0.9-0.4l1.3-0.8
		l0.5-0.1l0.6,0l2.7,1.1l1.3,0.3l1.3,0.1l1-0.3l0.5-1l0.3-2.9l0.5-0.8l0.6,0.3l5.3,6.3l1.7,1.5l1.7,0.8l1.1,0.2l0.7,0l0.7-0.2
		l0.7-0.3l0.6-0.1l0.6,0.4l1.6,1.6l0.4,0.6l0.2,0.6l0.3,2.6l0.3,0.6l0.7,0.4l1.3,0.1l0.6,0.2l1,1.1l0.6,0.2l1.3,0l5.3-0.8l2.2,0.2
		l1.1-0.1l1.1,0.1l0.8,0.9l0.7,1.1l0.9,0.8l1.1,0.4l0.6,0.3l0.3,0.4l-0.1,0.6l-0.4,0.3l-0.5,0.2l-0.4,0.3l-0.2,1.5l0.5,1.6l0.1,1.3
		l-1.5,0.6h0l0,0l-0.4,0.1l-0.3,0.3l0,0.4l0.3,0.5l0.4,0.2l1.3,0l2.6,1l0.7,0.6l0.9,1.3l0.4,0.4l1.2,0.7l0.3,0.3l0.3,0.4l0.2,0.5
		l0,0.5l-0.3,0.4l-0.4,0.1l-0.5-0.2l-0.9-0.5l-0.9-0.3l-0.8,0.1l-0.7,0.5l-0.6,0.9l0.2,1.2l0.8,1.5l1.7,2.3l0.2,0.6l-0.3,0.4l-1,0.5
		l-0.4,0.4l-0.3,0.5l-0.2,0.6l-0.3,2.6l0.2,0.8l0.7,0.7l2.7,1.4l2.4,1.2l1.5,1.1l1.3,1.4l0.7,0.5l0.9,0.3l1.5,0l3-1l5-0.3l1.7,0.4
		l1.2,1.2l0.2-0.1l0.2-0.2l0.5-0.8l0.1,0.1l0.1,0.3l0.1,0.3l1.5-0.3l0.4,0l2.6,1.8l1,0.4l0.9,0l0.9-0.4l0.7-0.8l0.5-1l0.6-0.3
		l0.2-1.2l0.3-0.7l0.6-0.3l0.9,0.1l2.4,0.6l2.2,0.9l5.6,4.1l0.5,0.5l1.8,3.1l0.2,0.5l0.1,0.7l0.1,2.3l0.1,0.5l-0.2,0.2l0.3,0.6
		l0.8,2.7l0.3,1.5l0.2,0.7l0.3,0.4l0.8,0.9l0.3,0.5l0.5,2l0.3,0.7l0.9,1.2l0.1,0.3l0.2,0.7l0.2,0.3l0.5,0.4l1.2,0.3l2.1,1.2l0.2,0.3
		l0.1,1.4l0.2,0.6l0.6,1.3l0.2,0.6l0.1,0.6l0,0.9l0.1,0.7l0.8,1.7l0.1,0.7l-0.1,0.6l-0.2,0.6l-0.1,0.7l0.1,0.7l0.4,1.8l0.3,0.9
		l1.8,2.2l0.3,0.2l1.4,1.4l2.9,2.1l3.4,2.4l4,2.9l8.2,5.8l3.4,2.5l1.6,1.5l2.7,3.7l1.5,1.6l2.8,2l3.5,2.5l4,2.8l0.7,0.4l0.7,0.1
		l0.6-0.1l1.9-1l0.7-0.1l0.6,0.4l2.2,2.8l5.2,4.4l3.2,1.8l3.7,1.3l1.7,1l3.3,3l2.3,2.1l3.4,2.3l2.5,1.7l4.1,2.8l1.7,0.6l1.7-0.1
		l0.6-0.3l1.2-1l0.7-0.3l0.8,0.1l2.5,1.2l1.6,0.3l0.7,0.4l1.5,1.2l1.6,0.5l0.8,0.4l0.7,0.7l1.2,1.5l2.5,1.2l0.8,0.2l1.9,0l1,0.3
		l0.9,0.4l0.8,0.6h0l0.5,1.5l-0.9,1.8l-1.4,1.8l-0.9,1.5l-0.1,1.2l0.2,2.4l-0.1,1.3l-0.5,2.1l-0.1,1.1l0.3,0.9l0.5,0.4l0.4,0.4
		l0.1,0.5l-0.4,0.7l-0.5,0.5l-0.4,0.5l-0.1,0.6l0.6,0.5l0.5-0.1l0.6,0l0.6,0.1l1.6,0.7l0.3,0.1l0.7,0l0.3-0.1l0.5-0.4l0.3-0.1
		l3.3-0.1l2.3-0.5l1.2,0l0.5,0.2l1,0.7l0.5,0.2l0.3,0.3l0.4,1.3l0.2,0.5l0.5,0.3l1.1,0.4l0.5,0.5l0.2,0.5l0.2,0.6l0.3,0.5l0.6,0.2
		l0.6-0.1l0.9-0.6l0.6-0.1l0.6,0l0.5-0.2l0.5-0.3l0.5-0.4l0.8-0.8l0.5-0.4l0.5-0.1l0.6,0.3l0.5,1.3l0.4,0.4l0.3-0.1l0.2-0.3l0.2-0.3
		l0.2-0.1l0.3,0l0.5-0.1l0.3,0l0.3,0.1l0.5,0.4l0.3,0.1l0.3,0l0.9,0l0.5,0.1l0.4,0.3l0.3,0.4l0.1,0.6l0.1-0.4l0.5-0.9l0.3-1l0.1-1.1
		l-0.1-1.3l-0.5-2.5l0.1-1.3l0.7-1.9l1.1-1.8l1.3-1.6l1.3-1.3l1.8-2.5l0.7-1.4l1.1-3.2l0.4-0.5l0.8-0.3l1.2-0.2l0.4-0.1l0.4-0.3
		l0.2-0.4l0.1-0.5l0.2-0.5h0l0.3-0.6l1-1.5l0.6-1.7l0.4-1.8l-0.1-1.2l-0.6-0.9l-2-1.8l-1.3-0.7l-0.4-0.4l-0.9-1.7l-1-0.9l-0.2-0.4
		l-0.1-0.5l0-1l-0.1-0.5l-0.6-0.9l-0.2-0.4l-0.1-0.7l0.1-1.8l-0.1-0.6l-0.3-1.2l-0.1-0.6l0.2-0.5l0.6-0.4l0.1-0.2l0-0.4l-0.1-0.3
		l-0.1-0.3l-0.1-0.3l0.1-0.7l0.3-0.2l0.4,0l0.6-0.1l0.4-0.3l0.4-0.3l0.3-0.4l0.2-0.5l0-0.7l-0.3-0.6l-0.7-1.1l-0.8-1.9l-0.4-0.5h0
		l0,0h0l-0.2,0l-0.2,0l-0.2,0l-0.2,0l-0.4,0.3l-0.4,0.2l-0.4-0.1l-0.4-0.4l-0.2-0.1l-0.4-0.1h-0.4l-0.4,0.1l-0.3,0.2h0v0h0l-1.9,0.6
		l-0.7,0l-3.2-0.5l-0.5-0.5l-0.1-0.8l0.3-2.5l0-0.4l-0.2-0.4l-0.2-0.1l-0.4,0.1l-0.2,0l-0.1-0.1l-0.2-0.4l-0.1-0.1l-1-0.4l-2-0.1
		l-3-1.1l-0.7-0.6l-0.2-1.3l0-0.5l0.1-0.2l0.1-0.1l0.2-0.2l0.3-0.1l0.2,0.1l0.2-0.1l0.2-1.1l0.3-1.1l0-1.2l0.2-1.3l0.3-1.2l0.2-0.3
		l0.4,0l0.6,0.1l0.1,0l0.1-0.1l0.1-0.1l0.1-0.1l-0.2-1.4l0.5-0.5l2-0.3l2.3-1.7l0.9-0.3l1.2,0l8.5,2.2l3.7,0.1l2,0.7l1.2,0.1
		l1.2-0.1l1.5-0.4l0.5-0.2l-0.3-0.6l0.3-0.5l1.1-0.7l0.6-0.6l0.3-0.6l0.1-0.8l0.2-5.2l0.3-0.7l0.3,0l0.3,0.1l0.8-0.8l0.4,0.3
		l0.7,1.1l0.3,0.2l0.2-0.2l0.1-0.3l0-0.2l0,0l0.2-0.5l0.1-0.1l0.3,0l0.1-0.1l0.3-0.6l0-0.5l-0.6-1.2l-0.2-0.7l-0.1-0.6l0.2-0.3
		l0.5,0.4l0.5,1.1l0.4,1.4l0.6,0.9l1.1-0.4l-0.1-0.7l-2.2-3l-0.1-0.3l0-0.3l0.1-0.7L525,345l-0.4-0.4l-0.1-0.3l0.3-0.6l0.4,0.3
		l0.6,1l0.3-0.1l0.9-0.8l0.5-0.2l1.8,0.3l0.6-0.1l0.2-0.4l0-0.5l-0.1-0.5l-0.2-0.5l-1.2-0.8l-6.1,1.2l-0.9-0.3l-1.1-0.7L520,341
		l0.5-0.4l2.4-0.6l0.6,0l1.4,0.3l0.6-0.1l0.9-0.5l0.5-0.2l4-0.6l0.6,0.1l1.6,0.8l2.2,0.7l1.2,0l0.9-0.4v-0.8l-1.8-1.6l-0.1-1
		l0.7-0.1l1,0.4l0.8-0.1l0.2-1.6l-0.2-0.7l-0.3-0.6l-0.6-1.2l-0.2-0.6l-0.5-1.8h0l-1-1.7l0-0.7l0.9-0.6l1.5-0.1l0.4-0.2l0.1-0.4
		l-0.2-1.7l0-1.2l0.2-1l0.4-0.9l0.6-0.8l0.4-0.3l0.4-0.2l0.8-0.3l0.4,0l0.3,0.3l0.3,0.3l0.4,0.2l0.8,0.1l0.6,0.5l1,1.5l0.3,0.3
		l0.6,0.4l0.3,0.3l0.5,0.8l0.3,0.3l0.3,0.3l0.8,0.3l0.7-0.2l0.6-0.5l1-1.3l0.5-0.4l0.5-0.3l4.6-1.4l2.3-1.8l2.6-1l1.8-1.1l1.4-1.6
		l0.7-3.5l0.9-0.2l1.1,0.5l0.8,0.9l0.1,0.1l0.1,0.1l0.8,0.7l4.5,5.1l0.2,0.3l0,0.6l-0.5-0.2l-0.9-0.8l-0.5,0.1l-0.2,0.4l0.1,0.6
		l0.4,0.5l2.3,0.5l1,0.6l-0.2,1.1l-0.1,0.3l-0.4,0.2l-0.1,0.1l0,0.2l-0.1,0.1l-0.4,0.1l-0.2,0.1l-0.4,0.3l-0.4,0.3l-1.5,1.2
		l-0.9,1.1l-0.3,0.3L569,328l-0.4,0.1l-0.3,0.2l-0.3,0.3l-0.6,1l-0.3,0.3l-0.2,0.1l-1.7,0.4l-0.7,0.5l-0.4,0.6l0,0.7l0,0.2l0,0.1
		l0.3,0.5l0,0l0.2,0.3l0.1,0.1l-0.3,1.1l1.2,0.6l0.5,0.2l0.5-0.1l0.5-0.1l0.5-0.1l0.5,0.2l0.7,1.1l0.3,1.5l0.4,1.4l1,0.7l1,0.1
		l1.1-0.1l3.5-1.1l2.2-0.2l0.5,0l0.9-0.9l1.4-0.3l2.9,0.4l0.8-0.1l0.3-0.5l0.2-0.7l0.4-0.6l0.4-0.1l0.3,0.2l0.2,0.3l0.3,0.3l0.3,0.2
		l0.4,0l0.8-0.1l0.5,0l0.8,0.7l1.1,0.3l0.2,0.4l0.2,0.5l0.5,0.4l0.5,0.3l0.6,0.2l1.2,0.2l0.6-0.1l0.2-0.4l0.1-0.6l0.2-0.6l0.5-0.4
		l0.4,0.4l0.4,0.7l0.2,0.7l0,1.3l0.2,0.5l0.5,0.2l0.3-0.1l1.3-0.8l0.4-0.4l0.3-0.4l0.5-1l0.8-0.8l0.9,0l1,0.2l1,0.1l0.3-0.1l0.1,0
		l0.2,0l0.3,0.1l0.4,0.1l0.4-0.1l0.2-0.4l-0.1-0.3l-0.3-0.2l-0.7-0.3l-0.5-0.3l-0.2-0.5l0.1-0.5l2.1-1.1l0.7-0.7l0.4-0.9l0.2-0.6
		l0.2-0.3l1.7-0.9l0.4-0.1l1.3-0.1l0.5,0l0.2,0.2l-0.1,0.3l-0.4,0.1l-0.4,0l-0.3,0.1l-0.1,0.3l0.3,0.1l1.1,0l0.4,0.1l1.5,0.9
		l0.7,0.3l0.6-0.1l0.5-0.7l0.3-0.8l0-0.8l-0.3-0.6l-1.1-0.8l-0.2-0.3l0-0.4l0.2-0.5l0-0.6l-0.5-0.9l0.1-0.5l0.7-0.3l0.8,0.7l0.8,1
		l0.7,0.4l1,0.1l1.8,1.2l1-0.1l0.4-0.3l0.2-0.4l0.1-0.5l0-0.5l0.2-0.5l0.5,0l0.9,0.4l0.7-0.3l0.3-2.2l0.6-0.9l0.9-0.4l1.8-0.5
		l2.1-1.3l2.3-0.9l1.2-0.7l0.8-1L633.4,319.2z M570.8,315.8l-0.4-0.4l-0.7-1l-0.4-0.4l0,0l-0.3-0.7l0.4-0.1l0.7,0.3l0.6,0.5l0.3,0.6
		l0.3,0.8l0,0.6L570.8,315.8z"/>
</g>

</svg>
