<?xml version="1.0" encoding="utf-8"?>

<svg version="1.2" baseProfile="tiny" xmlns="http://www.w3.org/2000/svg" xmlns:xlink="http://www.w3.org/1999/xlink" x="0px"
	 y="0px" viewBox="366.3 172 107.4 250" xml:space="preserve">

<g id="Saint_Vincent_and_the_Grenadines">
	<g>
		<polygon fill="#FCD116" points="429.6,304.5 428,305.3 427.5,305.3 426.6,305.9 426.6,306.2 427.2,307.1 428,307.1 428.5,306.9
			429.6,305.8 430.2,306.2 430.5,307 430.8,307.1 431.3,306.7 430.2,304.5 		"/>
		<polygon fill="#FCD116" points="398.9,405.1 398.8,404.9 398,404.9 397.7,405.2 397.5,405.2 397.3,405.3 397.3,405.8 397.7,406.2
			398,406.2 398.9,405.3 		"/>
		<polygon fill="#FCD116" points="443.2,354.9 443.1,354.3 443,354.2 442.9,354.3 442.9,354.9 443,355 		"/>
		<polygon fill="#FCD116" points="428.5,291.8 427.8,291.8 425.9,292.9 425.7,292.9 425.4,292.4 424.7,292.4 424.1,293.1
			423.6,293.4 422.3,293.4 422,293.7 421.3,293.6 420.9,294 421,294.4 423.1,294.4 423.4,294.2 423.9,293.9 427.5,294.2
			427.7,294.4 428.9,292.1 428.8,292.1 		"/>
		<polygon fill="#FCD116" points="448.8,338.8 448.8,338.8 448.8,338.8 		"/>
		<polygon fill="#FCD116" points="443,354 443.1,353.8 443.1,353.6 443,353.4 442.8,353.4 442.6,353.6 442.6,353.8 442.8,354 		"/>
		<polygon fill="#FCD116" points="468.2,301.6 468.2,301.8 468.4,301.9 468.8,301.6 468.6,301.4 468.4,301.4 		"/>
		<polygon fill="#FCD116" points="443.8,352.9 443.9,352.8 443.5,352.4 443.3,352.4 443.2,352.5 443.1,352.8 443.3,352.9 		"/>
		<polygon fill="#FCD116" points="425.2,307.9 425.3,307.7 425.3,307.2 424.7,306.6 424.2,306.7 424.3,307.8 424.4,307.9 		"/>
		<polygon fill="#FCD116" points="401.7,386.2 401.6,386 401.4,386 401,386.4 401,386.9 401.1,387.1 401.4,387.1 401.7,386.7 		"/>
		<polygon fill="#FCD116" points="402.7,409.1 402.8,408.7 402.7,408.6 401.6,408.5 401.5,408.9 401.6,409.1 		"/>
		<polygon fill="#FCD116" points="400.6,387.3 400.5,387.5 400.4,388 400.6,388.1 401,387.7 401,387.5 400.8,387.3 		"/>
		<polygon fill="#FCD116" points="408,381 408,380.7 407.8,380.6 407.3,380.6 407.2,380.7 407.2,381 407.6,381.4 		"/>
		<polygon fill="#FCD116" points="399.8,404.6 399.7,404.8 399.7,405.3 400.1,405.7 400.3,405.7 400.4,405.6 400.4,405 400.1,404.7
					"/>
		<polygon fill="#FCD116" points="385.2,420.1 386.4,420.7 387.4,420.2 387.9,420.2 388.3,419.8 387.9,418.9 387.7,419.2
			387.1,419.2 386.1,418.4 385.6,418.4 384.9,419 385.2,419.3 		"/>
		<polygon fill="#FCD116" points="471.4,302.6 471.4,302.3 471.2,302.2 471,302.2 470.8,302.3 470.8,302.6 471,302.7 471.2,302.7
			"/>
		<polygon fill="#FCD116" points="373.8,420.3 373.5,421.6 373.9,422 374.6,421.6 374.4,419.7 374.1,419.8 		"/>
		<polygon fill="#FCD116" points="394.5,397.5 394.5,397.3 394.4,397.2 394.1,397.2 394,397.3 394,397.5 393.7,397.8 393.7,398.1
			393.8,398.2 		"/>
		<polygon fill="#FCD116" points="397.9,406.9 397.9,407.4 398,407.5 398.3,407.5 398.6,407.1 398.6,406.6 398.5,406.5 398.3,406.5
					"/>
		<polygon fill="#FCD116" points="473.2,194.6 472.9,194.4 472.9,191.3 472.7,191 472.4,187.9 472,187.3 471.6,187.1 470.9,184.8
			470.1,184 469.8,183.3 469.3,182.7 469.3,182 468.8,181.2 468.5,179.9 468.8,179.6 467.7,178.3 467.7,177.8 468.5,177.3
			468.5,176.3 468.1,175.9 467.6,175.9 467.4,175.6 466.6,175.9 466.3,175.6 465.5,175.6 465.2,175.2 465.2,175 465.9,174.2
			465.6,173.6 464.8,173.3 464.2,173.8 463.7,173.8 463.5,174.1 462.2,174.1 461.8,173.2 461.3,172.9 461.1,172.5 459.9,172.5
			459.6,172.3 458.8,172.3 458.6,172 455.7,172 455.5,172.3 454.4,172.3 453.6,172.8 452.6,172.8 452.4,173 451.3,173 449.4,174.7
			449,175.4 448.5,175.6 446.6,175.4 445.9,176.4 445.2,176.8 445,177.3 445,178.9 444.2,179.4 443.7,180.4 443.7,180.9
			443.4,181.2 443.4,182.5 443,182.9 442.1,183 442.1,184.8 442.4,185.1 440.6,186.6 439.8,188.9 439.5,189.2 439.5,190
			439.3,190.3 439,191.5 437.6,193 436.6,193.2 435.9,193.9 435.9,195.4 436.2,195.7 436.2,196.7 436.4,197 436.7,198.5 435.5,200
			434,200.2 433.2,199.4 432.8,199.8 432.8,200.6 432.4,201 431.9,201 431.1,201.5 428.6,201.5 427.9,202.4 427.9,203.4 428.4,204
			428.4,204.7 427.1,206.3 427.1,207.3 427.8,207.7 428.4,208.6 427.8,209 427,209 426.6,210.4 424.5,211.5 424.3,212.2
			425.1,213.8 425.1,214.3 424.2,214.4 423.6,214.2 423.5,214.8 424,215.4 423.5,215.6 423.5,216.9 424,217.9 424,219.7
			423.2,221.3 423.2,222.3 423.8,222.9 423.7,224.4 423.2,224.7 422.7,226.7 423,227 423,228 424.4,228.2 425,228.8 424.8,230.9
			426.2,231.3 426.4,232.2 425.6,233.2 425.8,233.5 425.8,234.2 426.6,234.5 426.6,235 427.5,235.7 429.1,235.7 429.5,236
			429.4,236.8 429.8,237.2 430.1,236.9 430.2,237.1 430.2,237.6 430,237.8 430.4,238.2 430.6,238 431.7,238 432.2,238.2
			432.8,239.2 433.1,239.9 432.4,240.3 432.3,240.7 433.1,241.2 433.1,241.5 432.3,242 432.3,242.5 432.7,242.9 434.2,242.9
			434.5,243.2 435,242.6 435.5,242.7 435.8,242.4 437.3,242.4 439.2,243.2 439.8,244.1 439.8,244.9 439.3,245.4 439.3,245.9
			438.8,246.4 438.2,247.4 438.2,247.7 438.9,248.3 439.9,248.3 440.4,247.8 441.2,247.8 441.5,247.6 442.5,247.6 442.8,247.3
			443.8,247.6 444.2,248 444.3,248.6 444.8,248.6 445.6,249.1 446.1,249.1 447.7,250.4 448.7,250.7 449.2,251.2 449.8,251.2
			450.2,251.8 449.8,252 449.1,252.6 449.1,252.9 449.8,253.3 450.3,253 451,253 451.6,252.5 451.8,252.7 452.3,252.2 453.7,252.5
			453.9,252.2 454.4,252.2 454.7,252.7 455.7,252.7 456,253 457,252.7 457.7,251.8 457.9,250.3 458.3,249.6 458.9,249.5 459,248.5
			459.7,247.7 460,246.9 461.4,245.5 461.7,245.8 462.7,245.8 463.9,244.3 463.9,243.8 464.7,243.1 464.6,242.5 464.9,242.3
			464.9,240.4 465.2,240.2 465.2,239.2 464.9,238.9 464.9,238.1 465.2,237.9 465.4,234.5 465.7,234.2 465.7,233.5 466.7,232.7
			466.7,231.6 467,231.4 467,230.6 467.2,230.4 467.8,229.1 468.8,228 469,226.2 470.1,224.7 470.1,223.9 470.3,223.6 470.3,222.1
			470.9,221 471.1,219.5 471.4,219.2 471.4,219 473.7,216.9 473.7,215.1 473.4,214.8 473.2,212.2 472.9,212 472.9,210.2
			473.4,209.7 473.4,208.4 473.2,208.1 473.2,206.8 472.9,206.6 472.9,205.5 472.7,205.3 472.9,205 473.4,203.7 473.4,200.9
			473.7,200.6 473.7,198.3 473.4,198 		"/>
		<polygon fill="#FCD116" points="433.3,198.8 433.1,198.3 432.4,197.6 432,198 432.9,199.2 		"/>
		<polygon fill="#FCD116" points="382.1,416.2 382.1,416.7 382.2,416.8 382.5,416.8 382.6,416.7 382.6,416.2 382.5,416 382.2,416
			"/>
		<polygon fill="#FCD116" points="412.4,379.2 412.4,379.4 412.5,379.6 412.9,379.2 412.7,379 412.5,379 		"/>
		<polygon fill="#FCD116" points="399.1,403.2 399,403.1 398.8,403.1 398.1,403.8 397.9,404.5 398.8,404.7 399.2,404.3 		"/>
		<polygon fill="#FCD116" points="385.5,396.5 385.1,396.4 384.8,396.1 384.5,396.1 384.4,396.3 384.4,396.8 384.8,397.2
			385.3,397.2 385.5,397 		"/>
		<polygon fill="#FCD116" points="389.5,404.1 389.7,403.9 390.7,403.9 391.1,403.5 390.9,401.9 390.2,401.8 389.1,400.6
			388.9,399.5 388,400.1 388,400.4 388.5,400.7 388.2,401 387.6,400.5 386.7,400.7 386.7,402.5 386.5,402.7 386.5,403 385.4,403.8
			385.6,404.1 386.1,404.1 386.5,404.5 386.5,405.1 385.4,406.3 385.4,406.9 386.9,407 387.4,406.7 387.8,406.1 387.8,405.3
			388,404.8 388.9,404.1 		"/>
		<polygon fill="#FCD116" points="388.4,420.4 388.6,420.3 388.4,420.2 388.1,420.2 388,420.3 388.1,420.4 		"/>
		<polygon fill="#FCD116" points="383,415.5 383.1,415.4 383.1,414.6 383,414.5 382.5,414.5 382.3,414.6 382.3,415.1 382.7,415.5
			"/>
		<polygon fill="#FCD116" points="470.2,304 470.6,303.6 470.6,302.1 470.3,301.6 470.2,301.4 469.7,301.7 469.2,301.4 469,301.8
			468.4,302.2 467.9,303 467.5,303.1 467.5,303.9 468.4,304.8 468.9,304.3 		"/>
		<polygon fill="#FCD116" points="465.5,315.9 465.4,316.1 465.4,316.3 465.5,316.4 465.7,316.3 465.7,316.1 		"/>
		<polygon fill="#FCD116" points="455.4,333.3 455.3,333.4 455.7,333.8 455.8,333.6 455.8,333.4 455.7,333.3 		"/>
		<polygon fill="#FCD116" points="370.2,414.1 370.2,413.8 370,413.7 369.8,413.7 369.7,413.8 369.7,414.1 369.8,414.2 370,414.2
			"/>
		<polygon fill="#FCD116" points="368.5,413.2 368.6,413.1 368.6,412.8 368.5,412.7 368.2,412.7 368.1,412.8 368.1,413.1
			368.2,413.2 		"/>
		<polygon fill="#FCD116" points="420.6,294.3 420.6,294 420.5,293.9 420.2,293.9 420.1,294 420.1,294.3 420.2,294.4 420.5,294.4
			"/>
		<polygon fill="#FCD116" points="366.3,418 366.3,418.5 366.9,419.2 368.8,419.7 369,419.9 370.6,420.2 370.8,420.4 371.3,420.4
			372.4,419.2 373.4,418.9 373.9,417.9 375,417.6 375.2,418.6 376,418.6 377.5,417.9 377.8,418.1 378.8,418.1 379.1,417.9
			380.3,417.7 380.3,416.7 380.7,416.3 381.2,416.3 381.8,415.9 381.8,414.9 380.9,413.7 380.1,413.7 379.9,414 379.6,413.7
			378.3,413.7 378.1,413.5 377.6,413.5 376.8,414 376.5,413.7 375.2,413.7 374.1,412.6 374,412 374.3,411.5 373.7,410.6
			372.6,410.6 372.3,411.5 371.8,411.9 370.3,411.9 369.8,411.6 369.5,411.9 369,411.9 368.6,412.3 368.9,412.6 368.8,413.7
			369.3,413.5 370.4,413.6 370.4,415.7 368.8,416.8 367.2,417.1 		"/>
		<polygon fill="#FCD116" points="419.9,294 419.9,293.8 419.7,293.6 419.5,293.6 419.3,293.8 419.3,294 419.5,294.2 419.7,294.2
			"/>
		<polygon fill="#FCD116" points="467.9,305.1 467.7,305.2 467.7,305.7 467.9,305.8 468.4,305.8 468.5,305.7 468.5,305.2
			468.4,305.1 		"/>
		<polygon fill="#FCD116" points="456.1,332.4 456,332.2 455.4,332.2 455.1,332.6 455.1,332.9 455.2,333 455.7,333 456.1,332.6
			"/>
		<polygon fill="#FCD116" points="368,416.6 368.8,416.6 368.9,416.4 368.9,416.2 368.7,416 368.2,416 367.9,416.4 		"/>
		<polygon fill="#FCD116" points="446.4,250.9 446.7,250.9 447,250.5 447,250.3 446.9,250.2 446.6,250.2 446.4,249.9 446.1,249.9
			446,250 446.3,250.3 446.3,250.8 		"/>
		<polygon fill="#FCD116" points="458.7,252.1 458.7,251.8 458.6,251.7 458,251.7 457.9,251.8 457.9,252.1 458,252.2 458.6,252.2
			"/>
		<polygon fill="#FCD116" points="410.8,374 410.4,374.4 409.4,374.4 408.4,373.1 407.6,373.1 407,372.3 406.5,372.3 406.4,373.2
			405.9,374 405.9,375.5 406.1,375.8 405.9,376.3 406.5,376.7 407.4,377.9 407.5,379.7 407.7,380.2 408.2,380.5 408.2,382.3
			406.8,383.4 405.5,383.4 405.2,382.9 405,382.9 404.8,383.6 404.2,384.2 403.7,384.5 402.6,384.5 401.4,383.4 400.3,383.2
			400.1,382.7 399.4,383 399.4,383.8 400.1,384.2 400.8,384.2 401.8,385.1 402,385.9 402.9,386.8 403.7,386.8 405.5,385.5
			406.5,385.5 407.3,386.3 408.4,386.3 408.5,385.9 409.5,385.1 409.5,383.8 409.8,383.3 409.5,383.1 409.5,382.5 409.8,382.3
			410,380.7 410.3,380.5 410.3,379.7 409.8,379.2 410.1,378.8 410.7,378.8 410.9,378.5 413.1,378.7 		"/>
		<polygon fill="#FCD116" points="445.1,352.4 445.2,352.3 445.5,351.8 445.3,350.6 444.4,350.7 444.4,352.3 		"/>
		<polygon fill="#FCD116" points="455.1,333.6 455,333.9 455.2,334 455.3,333.9 455.3,333.6 455.2,333.5 		"/>
		<polygon fill="#FCD116" points="428.1,408.7 428.1,408.9 428.5,409.3 428.7,409.2 428.7,408.7 428.5,408.6 428.3,408.6 		"/>
		<polygon fill="#FCD116" points="457.9,324.3 457.9,324.8 458,325 458.4,324.6 458.4,324.3 458.3,324.2 458,324.2 		"/>
		<polygon fill="#FCD116" points="452.3,334.8 452.5,335.7 452.9,336.1 453.5,335.7 453.5,335.2 453.2,334.9 454.1,333.8
			454.5,333.6 454.3,333.1 454.8,332.4 454.5,332.1 454.5,331.3 454.3,331.1 454.8,330.3 455.1,328.7 456.5,327.8 457.5,327.8
			457.9,327.4 458.2,326.4 457.6,325.9 457.6,325.1 457.1,324.3 457.1,323.6 456.7,323.4 456.5,323.7 456.4,323.7 450.9,334.6 		"/>
		<polygon fill="#FCD116" points="459.7,326.7 459.7,327.2 459.8,327.3 460.1,327.3 460.2,327.2 460.2,326.7 460.1,326.5
			459.8,326.5 		"/>
		<polygon fill="#FCD116" points="443.9,350.2 444.1,350.3 444.3,350.3 444.4,350.2 444.3,350.1 444.1,350.1 		"/>
		<polygon fill="#FCD116" points="450.9,340.6 450,340.5 449,340 448.7,340 448.1,340.6 448.1,341.2 449,342 449.2,342 449.8,342.8
			450,342.8 450.4,342.4 450.4,342.2 450.9,341.9 		"/>
		<polygon fill="#FCD116" points="467.5,308.5 467,307.5 466.6,307.1 465.4,307 465.4,305.7 465.9,305.2 465.9,304.7 466.2,304.4
			466.1,304.2 464.3,307.8 464.6,308.3 464.6,309.1 464.4,309.3 464.5,310.2 465,310.2 465.5,309.7 467.5,309.6 		"/>
		<polygon fill="#FCD116" points="444.6,349.8 444.7,349.7 444.6,349.6 444.3,349.6 444.2,349.7 444.3,349.8 		"/>
		<polygon fill="#FCD116" points="466.6,317.2 467,316.6 466.6,316.2 466,316.2 465.7,316.6 466,317.2 		"/>
		<polygon fill="#009E60" points="414.2,373.2 414.2,373 414,372.8 413.9,373 413.9,373.2 414,373.4 		"/>
		<polygon fill="#009E60" points="422.2,355.4 422.2,355.9 422.6,356.3 423.1,356.3 423.7,355.4 423.1,354.7 422.3,354.7
			422.2,354.8 422.5,355.1 		"/>
		<polygon fill="#009E60" points="413.8,378.8 414.2,378.4 413.9,376.1 413.1,375.3 413.7,375 413.9,374 413.4,373.7 413.6,373.5
			413.1,373 413,372.6 412.2,372.3 411.5,373.1 411.1,373.2 410.8,374 410.8,374 413.1,378.7 		"/>
		<polygon fill="#009E60" points="466,304 465.3,304 465.1,303.6 464.8,303.5 464.5,304 463.8,304.1 463.3,305.4 463.6,305.7
			463.6,306.5 464.1,307 464.1,307.5 464.3,307.8 466.1,304.2 		"/>
		<polygon fill="#009E60" points="464.2,303 464,303 463.9,303.1 463.8,303.4 464,303.5 464.2,303.5 464.4,303.4 464.4,303.1 		"/>
		<polygon fill="#009E60" points="434.7,296.8 434.6,296.9 434.6,297.1 435,297.5 435.4,297.1 435.4,296.9 435.3,296.8 		"/>
		<polygon fill="#009E60" points="433.1,299.7 433.1,300.3 433.5,300.4 433.7,300.1 434.7,300.1 435.4,299.7 435.6,299.2
			435.3,299.1 435,298.6 433.7,298.6 		"/>
		<polygon fill="#009E60" points="448.7,338.4 448.2,338.4 448.1,338.6 448.1,338.8 448.2,338.9 448.7,339 448.8,338.8 448.8,338.8
			448.8,338.6 		"/>
		<polygon fill="#009E60" points="436,296.2 436.2,296.1 436.2,295.9 436,295.7 435.8,295.7 435.7,295.8 435.6,296.1 435.8,296.2
			"/>
		<polygon fill="#009E60" points="431.9,306.8 432.7,306.8 432.8,305.9 432.5,305.4 432.8,304.9 432.5,304.7 432.5,304.1
			432.9,303.8 433.7,303.7 434.3,303.3 433.3,302.6 434.1,302.3 433.7,301.7 432.4,301.4 431.8,302.3 431.8,302.8 431.3,303.3
			431.3,303.6 430.3,304.5 430.2,304.5 431.3,306.7 431.4,306.6 		"/>
		<polygon fill="#009E60" points="435.2,298.3 435.1,298.4 435.5,298.8 435.6,298.7 435.7,298.4 435.5,298.3 		"/>
		<polygon fill="#009E60" points="455.8,323.8 455,324.3 454.9,324.7 453.6,324.7 453.2,324.3 453.1,323.4 452.3,324.2 451.9,324.3
			451.7,325.9 450.7,327.2 450.6,327.9 451.2,328.5 451.4,329 451.2,329.2 451.2,329.8 450.9,330.3 450.5,330.4 449.6,331.3
			449.6,332.4 450.4,333.4 450.5,334.6 450.9,334.6 456.4,323.7 456,323.4 		"/>
		<polygon fill="#009E60" points="453.2,322.5 453.2,322.8 453.4,322.9 453.6,322.9 453.8,322.8 453.8,322.5 453.6,322.4
			453.4,322.4 		"/>
		<polygon fill="#009E60" points="464,301.7 463.8,301.8 463.8,302.1 464,302.2 464.2,302.2 464.4,302.1 464.4,301.8 464.2,301.7
			"/>
		<polygon fill="#009E60" points="427.8,294.4 429,294.4 430.3,295.2 431.1,295.2 432.4,296 433.2,296 433.4,296.2 434.2,296.2
			434.9,295.6 435,295.2 435.7,294.8 435.6,294 436.3,293.6 437.5,294 437.2,294.8 437.6,295.2 438.4,294.9 438.7,294.6
			438.7,293.3 439.7,292.6 440.2,292.6 440.7,291.8 441.5,291.6 442.4,290.1 441.9,289.1 443.2,288.6 443.2,287.8 442.9,287.5
			442.9,287 443.4,286 442.8,285.6 442.2,285.6 442,285.3 441.2,285.3 441.1,285 441.5,284.6 442.4,284.4 442.5,283.5 443.8,283.5
			444.1,283 445,282.6 445,282.1 445.4,281.7 445.9,281.7 446.1,282 446.8,281.8 446.5,281.3 446.5,280.6 446.3,280.3 446.3,279.5
			446.8,279 446.8,277.7 447.1,277.2 446.1,275.8 445.1,276.3 444.5,276.9 444.5,278.2 444.2,278.7 443.8,279.1 443,279.1
			442.8,278.9 442,278.9 441.5,279.4 441,279.4 439.4,280.9 438.4,281.2 437.9,282 437.5,282.1 437.5,282.4 437.1,282.5 436,283.5
			432.9,285.1 432.6,285.5 432.6,286.8 433.2,287.7 435.8,287.4 436.4,287.8 435.2,290.1 434.7,290.8 434.5,290.8 433.2,292.1
			431.9,292.1 431.6,291.8 431.4,292.1 428.9,292.1 427.7,294.4 		"/>
		<polygon fill="#009E60" points="453.2,321 453.2,320.7 453.1,320.6 452.9,320.6 452.7,320.7 452.7,321 452.9,321.1 453.1,321.1
			"/>
		<polygon fill="#009E60" points="456.9,319.1 456.9,318.4 456.5,318 455.9,318 455.3,318.6 456.2,319.3 		"/>
		<polygon fill="#009E60" points="454.4,319 454.1,318.8 453.2,319.1 453.2,319.9 453.4,320.1 454.4,319.5 455.2,319.8 455.3,319.4
			454.9,319 		"/>
	</g>

		<path fill="none" stroke="#999999" stroke-width="0.25" stroke-linecap="round" stroke-linejoin="round" stroke-miterlimit="10" d="
		M412.5,379l-0.1,0.1v0.3l0.1,0.1l0.4-0.4l-0.1-0.1H412.5z M408,381v-0.3l-0.1-0.1l-0.5,0l-0.1,0.1l0,0.3l0.4,0.4L408,381z
		 M413.9,373v0.3l0.1,0.1l0.1-0.1V373l-0.1-0.1L413.9,373z M413.1,375.3l0.5-0.2l0.3-1.1l-0.5-0.3l0.3-0.2l-0.5-0.5l-0.1-0.4
		l-0.8-0.3l-0.8,0.8l-0.4,0.1l-0.2,0.8l-0.4,0.4l-1.1,0l-1-1.3l-0.8,0l-0.5-0.8h-0.5l-0.1,0.9l-0.5,0.8l0,1.6l0.2,0.3l-0.2,0.5
		l0.7,0.4l0.9,1.2l0,1.8l0.2,0.5l0.5,0.3v1.8l-1.4,1.2l-1.3,0l-0.3-0.5H405l-0.1,0.6l-0.6,0.7l-0.5,0.3l-1,0l-1.3-1l-1.1-0.2
		l-0.2-0.5l-0.6,0.4l0,0.8l0.7,0.4l0.8,0l0.9,0.9l0.3,0.8l0.9,0.9l0.8,0l1.8-1.3l1,0l0.8,0.8l1,0l0.1-0.4l1-0.8l0-1.3l0.2-0.5
		l-0.2-0.2l0-0.5l0.3-0.3l0.3-1.6l0.2-0.2l0-0.8l-0.5-0.5l0.4-0.4l0.5,0l0.3-0.3l2.8,0.3l0.4-0.4l-0.3-2.3L413.1,375.3z
		 M401.6,408.5l-0.1,0.4l0.1,0.1l1,0l0.1-0.4l-0.1-0.1L401.6,408.5z M400.6,387.3l-0.1,0.1l0,0.5l0.1,0.1l0.4-0.4v-0.3l-0.1-0.1
		L400.6,387.3z M401.7,386.2l-0.1-0.1h-0.2l-0.4,0.4l0,0.5l0.1,0.1h0.2l0.4-0.4V386.2z M428.3,408.6l-0.1,0.1v0.3l0.4,0.4l0.1-0.1
		l0-0.5l-0.1-0.1H428.3z M434.1,302.3l-0.4-0.6l-1.3-0.3l-0.7,0.9l0,0.5l-0.5,0.5v0.3l-0.9,0.9h-0.8l-1.6,0.8l-0.5,0l-0.9,0.6l0,0.3
		l0.6,0.9l0.8,0l0.5-0.2l1-1l0.7,0.4l0.3,0.8l0.4,0.1l0.5-0.5l0.5,0.2l0.8,0l0.1-0.9l-0.3-0.5l0.3-0.5l-0.3-0.3l0-0.5l0.4-0.4l0.8,0
		l0.6-0.4l-1-0.8L434.1,302.3z M399.8,404.6l-0.1,0.1v0.5l0.4,0.4h0.2l0.1-0.1V405l-0.4-0.4L399.8,404.6z M435,298.6l-1.3,0
		l-0.6,1.2v0.5l0.4,0.1l0.3-0.3h1l0.6-0.4l0.3-0.5l-0.4-0.1L435,298.6z M435.4,297.1v-0.3l-0.1-0.1h-0.5l-0.1,0.1v0.2l0.4,0.4
		L435.4,297.1z M419.5,293.6l-0.1,0.1v0.3l0.1,0.1l0.3,0l0.1-0.1v-0.3l-0.1-0.1H419.5z M422.3,354.7l-0.1,0.1l0.3,0.2l-0.3,0.3
		l0,0.5l0.4,0.4l0.5,0l0.6-0.9l-0.6-0.6L422.3,354.7z M424.7,306.6l-0.4,0.1l0,1l0.1,0.1h0.8l0.1-0.1l0-0.5L424.7,306.6z
		 M420.2,293.9l-0.1,0.1l0,0.2l0.1,0.1l0.3,0l0.1-0.1l0-0.2l-0.1-0.1H420.2z M399,403.1h-0.2l-0.6,0.7l-0.3,0.8l0.9,0.1l0.4-0.4l0-1
		L399,403.1z M383,414.5l-0.5,0l-0.1,0.1v0.5l0.4,0.4l0.3,0l0.1-0.1l0-0.8L383,414.5z M374.1,419.8l-0.3,0.5l-0.3,1.3l0.4,0.4
		l0.6-0.4l-0.1-2L374.1,419.8z M382.2,416l-0.1,0.1v0.5l0.1,0.1h0.2l0.1-0.1v-0.5l-0.1-0.1H382.2z M380.1,413.7l-0.3,0.3l-0.2-0.3
		l-1.3,0l-0.2-0.3l-0.5,0l-0.8,0.5l-0.2-0.3l-1.3,0l-1.2-1.2l0-0.5l0.3-0.5l-0.6-0.9l-1,0l-0.4,0.9l-0.4,0.4l-1.5,0l-0.5-0.3
		l-0.3,0.3H369l-0.4,0.4l0.2,0.3l-0.1,1.2l0.5-0.3l1.2,0.1l0,2.1l-1.7,1.2l-1.6,0.3l-0.9,0.9l0,0.5l0.7,0.7l1.8,0.5l0.3,0.3l1.6,0.3
		l0.3,0.3h0.5l1-1.3l1-0.3l0.5-1l1-0.3l0.2,1l0.8,0l1.5-0.7l0.3,0.3l1,0l0.3-0.2l1.2-0.1l0-1l0.4-0.4h0.5l0.6-0.4l0-1l-0.9-1.2
		H380.1z M433.3,198.8l-0.3-0.5l-0.6-0.6L432,198l0.9,1.2L433.3,198.8z M368.8,416.6l0.1-0.1l0-0.3l-0.1-0.1h-0.5l-0.4,0.4l0.1,0.1
		H368.8z M368.5,413.2l0.1-0.1l0-0.3l-0.1-0.1h-0.3l-0.1,0.1v0.3l0.1,0.1H368.5z M370.2,414.1l0-0.2l-0.1-0.1h-0.3l-0.1,0.1v0.2
		l0.1,0.1h0.3L370.2,414.1z M398.3,406.5l-0.4,0.4v0.5l0.1,0.1h0.3l0.4-0.4l0-0.5l-0.1-0.1L398.3,406.5z M394.1,397.2l-0.1,0.1
		l0,0.3l-0.3,0.3l0,0.3l0.1,0.1l0.7-0.7l0-0.3l-0.1-0.1H394.1z M398,404.9l-0.3,0.3h-0.3l-0.1,0.1v0.5l0.4,0.4h0.2l0.9-0.9v-0.2
		l-0.1-0.1L398,404.9z M390.2,401.8l-1.2-1.2l-0.1-1.2l-0.9,0.7l0,0.2l0.5,0.3l-0.4,0.4l-0.5-0.5l-0.9,0.1v1.8l-0.2,0.3v0.3l-1,0.8
		l0.1,0.4h0.5l0.4,0.4v0.5l-1,1.3v0.5l1.4,0.1l0.5-0.2l0.4-0.7v-0.8l0.3-0.5l0.9-0.7h0.5l0.2-0.3h1l0.4-0.4l-0.3-1.6L390.2,401.8z
		 M385.5,397v-0.5l-0.4-0.1l-0.3-0.3l-0.2,0l-0.1,0.1v0.5l0.4,0.4l0.5,0L385.5,397z M387.9,418.9l-0.2,0.3h-0.5l-1-0.8l-0.5,0
		l-0.6,0.7l0.2,0.3l0,0.8l1.2,0.6l1-0.5h0.5l0.4-0.4L387.9,418.9z M388.1,420.2l-0.1,0.1l0.1,0.1l0.3,0l0.1-0.1l-0.1-0.1
		L388.1,420.2z M443,354.2l-0.1,0.1l0,0.5l0.1,0.1l0.1-0.1l0-0.5L443,354.2z M467,307.5l-0.4-0.4l-1.2-0.1l0-1.3l0.5-0.5l0-0.5
		l0.3-0.3L466,304l-0.8,0l-0.1-0.4l-0.4-0.1l-0.3,0.5l-0.7,0.1l-0.5,1.3l0.3,0.3l0,0.8l0.5,0.5l0,0.5l0.5,0.8l0,0.8l-0.3,0.3
		l0.1,0.9l0.5,0l0.5-0.5l1.9-0.1l0-1L467,307.5z M454.4,319l-0.3-0.2l-0.9,0.4l0,0.8l0.1,0.1l1-0.5l0.8,0.3l0.2-0.4l-0.4-0.4H454.4z
		 M465.7,316.1l-0.1-0.1l-0.1,0.1v0.3l0.1,0.1l0.1-0.1V316.1z M466,316.2l-0.4,0.4l0.4,0.6l0.5,0l0.4-0.6l-0.4-0.4L466,316.2z
		 M459.8,326.5l-0.1,0.1v0.5l0.1,0.1h0.3l0.1-0.1v-0.5l-0.1-0.1H459.8z M456.9,319.1l0-0.8l-0.4-0.4l-0.5,0l-0.6,0.7l0.9,0.6
		L456.9,319.1z M435.2,298.3l-0.1,0.1l0.4,0.4l0.1-0.1l0-0.3l-0.1-0.1H435.2z M458,324.2l-0.1,0.1l0,0.5l0.1,0.1l0.4-0.4v-0.2
		l-0.1-0.1H458z M458,251.7l-0.1,0.1l0,0.3l0.1,0.1h0.5l0.1-0.1v-0.3l-0.1-0.1L458,251.7z M468.8,301.6l-0.1-0.1h-0.3l-0.1,0.1v0.3
		l0.1,0.1L468.8,301.6z M471,302.2l-0.1,0.1v0.3l0.1,0.1l0.3,0l0.1-0.1l0-0.3l-0.1-0.1L471,302.2z M473.4,203.7v-2.8l0.3-0.3v-2.3
		l-0.3-0.3l-0.3-3.4l-0.3-0.2l0-3.1l-0.2-0.3l-0.2-3.1l-0.4-0.7l-0.4-0.1l-0.8-2.3l-0.8-0.8l-0.3-0.8l-0.5-0.5l0-0.8l-0.5-0.8
		l-0.2-1.3l0.3-0.3l-1-1.3v-0.5l0.8-0.5l0-1.1l-0.4-0.4l-0.5,0l-0.3-0.3l-0.8,0.2l-0.3-0.3l-0.8,0l-0.4-0.4l0-0.2l0.8-0.8l-0.4-0.7
		l-0.8-0.3l-0.5,0.5l-0.5,0l-0.3,0.3l-1.3,0l-0.4-0.9l-0.5-0.2l-0.1-0.4l-1.3,0l-0.3-0.3l-0.8,0l-0.3-0.3h-2.8l-0.3,0.3l-1,0
		l-0.8,0.5l-1,0l-0.2,0.3l-1,0l-1.9,1.7l-0.4,0.7l-0.5,0.3l-1.8-0.3l-0.8,1l-0.6,0.4l-0.3,0.5v1.6l-0.8,0.5l-0.5,1v0.5l-0.3,0.3
		l0,1.3l-0.4,0.4l-0.9,0.1v1.8l0.3,0.2l-1.8,1.6l-0.8,2.3l-0.3,0.3l0,0.8l-0.3,0.3l-0.3,1.3l-1.4,1.4l-1,0.3l-0.6,0.6l0,1.6l0.3,0.3
		l0,1l0.3,0.3l0.2,1.6l-1.2,1.4l-1.5,0.3l-0.8-0.8l-0.4,0.4v0.8l-0.4,0.4l-0.5,0l-0.8,0.5h-2.6l-0.7,0.9l0,1l0.5,0.5v0.8l-1.3,1.5
		l0,1.1l0.7,0.4l0.6,0.9l-0.7,0.4l-0.8,0l-0.4,1.4l-2.1,1l-0.3,0.8l0.8,1.6l0,0.5l-0.9,0.1l-0.5-0.3l-0.2,0.7l0.5,0.5l-0.5,0.3
		l0,1.3l0.5,1l0,1.8l-0.8,1.6l0,1l0.5,0.5l0,1.6l-0.5,0.2l-0.5,2.1l0.2,0.3l0,1l1.4,0.1l0.6,0.6l-0.2,2.1l1.4,0.4l0.1,0.9l-0.8,1.1
		l0.2,0.3l0,0.8l0.8,0.3l0,0.5l0.9,0.6h1.6l0.4,0.4l0,0.8l0.4,0.4l0.3-0.3l0.1,0.1v0.5l-0.3,0.2l0.4,0.4l0.3-0.2l1,0l0.5,0.3
		l0.6,0.9l0.3,0.8l-0.7,0.4l-0.1,0.4l0.8,0.5v0.3l-0.8,0.5v0.5l0.4,0.4l1.6,0l0.3,0.3l0.5-0.5l0.5,0l0.3-0.3l1.5,0l1.8,0.8l0.6,0.9
		l0,0.8l-0.5,0.5l0,0.5l-0.5,0.5l-0.5,1v0.3l0.6,0.6l1,0l0.5-0.5h0.8l0.3-0.3l1,0l0.2-0.3l1,0.3l0.4,0.4l0.1,0.6l0.5,0l0.8,0.5
		l0.5,0l1.5,1.3l1,0.3l0.5,0.5h0.5l0.4,0.6l-0.4,0.1l-0.6,0.7v0.3l0.6,0.4l0.5-0.3l0.8,0l0.5-0.5l0.3,0.3l0.5-0.5l1.3,0.3l0.3-0.3
		l0.5,0l0.3,0.5l1,0l0.3,0.3l1-0.3l0.6-0.9l0.3-1.6l0.4-0.7l0.6-0.1l0-1l0.8-0.8l0.3-0.8l1.4-1.4l0.3,0.3h1l1.2-1.4l0-0.5l0.8-0.8
		l0-0.5l0.3-0.2v-1.8l0.2-0.3l0-1l-0.3-0.3l0-0.8l0.2-0.3l0.3-3.4l0.3-0.3l0-0.8l1-0.8l0-1.1l0.3-0.2v-0.8l0.3-0.3l0.5-1.3l1-1
		l0.2-1.8l1.1-1.6v-0.8l0.3-0.3l0-1.5l0.5-1.1l0.2-1.5l0.3-0.3l0-0.3l2.3-2.1l0-1.8l-0.3-0.3l-0.3-2.6l-0.3-0.3v-1.8l0.5-0.5v-1.3
		l-0.3-0.3l0-1.3l-0.2-0.3l0-1l-0.2-0.3l0.2-0.2L473.4,203.7z M464.2,303H464l-0.1,0.1l0,0.3l0.1,0.1h0.3l0.1-0.1l0-0.3L464.2,303z
		 M464,301.7l-0.1,0.1l0,0.2l0.1,0.1h0.3l0.1-0.1v-0.3l-0.1-0.1H464z M467.9,305.1l-0.1,0.1l0,0.5l0.1,0.1l0.5,0l0.1-0.1v-0.5
		l-0.1-0.1H467.9z M470.3,301.6l-0.1-0.1l-0.5,0.3l-0.5-0.3l-0.1,0.4l-0.6,0.4l-0.5,0.8l-0.4,0.1l0,0.8l0.9,0.9l0.5-0.5l1.3-0.3
		l0.4-0.4l0-1.5L470.3,301.6z M453.2,322.5v0.3l0.1,0.1l0.3,0l0.1-0.1v-0.3l-0.1-0.1h-0.3L453.2,322.5z M444.6,349.8l0.1-0.1
		l-0.1-0.1h-0.3l-0.1,0.1l0.1,0.1L444.6,349.8z M444.3,350.1l-0.3,0l-0.1,0.1l0.1,0.1l0.3,0l0.1-0.1L444.3,350.1z M444.4,350.7
		l0,1.6l0.6,0.1l0.1-0.1l0.3-0.5l-0.1-1.2L444.4,350.7z M446.1,275.8l-1,0.5l-0.6,0.6l0,1.3l-0.3,0.5l-0.4,0.4l-0.8,0l-0.3-0.3
		l-0.8,0l-0.5,0.5l-0.5,0l-1.6,1.5l-1,0.3l-0.5,0.8l-0.4,0.1v0.3l-0.4,0.1l-1,1l-3.1,1.5l-0.4,0.4l0,1.3l0.6,0.9l2.6-0.3l0.6,0.4
		l-1.2,2.3l-0.4,0.7h-0.3l-1.3,1.3l-1.3,0l-0.2-0.3l-0.3,0.3h-2.6l-0.2-0.3l-0.8,0l-1.8,1h-0.3l-0.3-0.5l-0.8,0l-0.5,0.8l-0.5,0.2
		l-1.3,0l-0.3,0.3l-0.8,0l-0.4,0.4l0.1,0.4l2.1,0l0.3-0.3l0.5-0.3l3.6,0.3l0.3,0.2l1.3,0l1.3,0.8l0.8,0l1.3,0.8l0.8,0l0.3,0.3l0.8,0
		l0.6-0.7l0.1-0.4l0.7-0.4l0-0.8l0.6-0.4l1.2,0.4l-0.3,0.8l0.4,0.4l0.8-0.3l0.4-0.4l0-1.3l0.9-0.6l0.5,0l0.5-0.8l0.8-0.3l0.9-1.4
		l-0.5-1l1.3-0.5l0-0.8l-0.3-0.3l0-0.5l0.5-1l-0.7-0.4l-0.5,0l-0.2-0.3h-0.8l-0.1-0.4l0.4-0.4l0.9-0.1l0.1-0.9l1.3,0l0.3-0.5
		l0.9-0.4l0-0.5l0.4-0.4l0.5,0l0.3,0.3l0.6-0.1l-0.3-0.5v-0.8l-0.3-0.3v-0.8l0.5-0.5l0-1.3l0.3-0.5L446.1,275.8z M435.8,295.7
		l-0.1,0.1l0,0.3l0.1,0.1h0.3l0.1-0.1l0-0.2l-0.1-0.1H435.8z M443.1,353.8v-0.3l-0.1-0.1h-0.3l-0.1,0.1v0.2l0.1,0.1h0.3L443.1,353.8
		z M453.2,321v-0.3l-0.1-0.1l-0.3,0l-0.1,0.1v0.3l0.1,0.1l0.2,0L453.2,321z M443.3,352.4l-0.1,0.1l0,0.3l0.1,0.1l0.5,0l0.1-0.1
		l-0.4-0.4L443.3,352.4z M455.4,332.2l-0.4,0.4l0,0.3l0.1,0.1l0.5,0l0.4-0.4v-0.3l-0.1-0.1H455.4z M455.4,333.3l-0.1,0.1l0.4,0.4
		l0.1-0.1v-0.3l-0.1-0.1H455.4z M446.4,250.9h0.3l0.4-0.4v-0.3l-0.1-0.1h-0.3l-0.2-0.3h-0.3L446,250l0.3,0.3l0,0.5L446.4,250.9z
		 M457.6,325.1l-0.5-0.8l0-0.8l-0.4-0.1l-0.3,0.3l-0.5-0.3l-0.1,0.4l-0.8,0.5l-0.1,0.4l-1.3,0l-0.4-0.4l-0.1-0.9l-0.8,0.8l-0.4,0.1
		l-0.3,1.6l-1,1.3l0,0.8l0.5,0.5l0.3,0.5l-0.3,0.3l0,0.5l-0.3,0.5l-0.4,0.1l-0.9,0.9l0,1.1l0.8,1l0.1,1.2l1.8,0.2l0.1,0.9l0.4,0.4
		l0.6-0.4v-0.5l-0.2-0.3l0.9-1.2l0.4-0.1l-0.3-0.5l0.5-0.8l-0.3-0.3l0-0.8l-0.3-0.3l0.5-0.8l0.3-1.6l1.4-0.9l1,0l0.4-0.4l0.3-1.1
		l-0.5-0.5L457.6,325.1z M449,340l-0.3,0l-0.6,0.7l0,0.5l0.9,0.9h0.3l0.5,0.8h0.2l0.4-0.4l0-0.2l0.5-0.3l0-1.3l-0.9-0.1L449,340z
		 M448.7,339l0.1-0.1l0-0.3l-0.1-0.1l-0.5,0l-0.1,0.1v0.2l0.1,0.1L448.7,339z M455.1,333.6l0,0.3l0.1,0.1l0.1-0.1v-0.2l-0.1-0.1
		L455.1,333.6z"/>
</g>

</svg>
