<?xml version="1.0" encoding="utf-8"?>

<svg version="1.2" baseProfile="tiny" xmlns="http://www.w3.org/2000/svg" xmlns:xlink="http://www.w3.org/1999/xlink" x="0px"
	 y="0px" viewBox="254.3 155.9 331.3 282.3" xml:space="preserve">

<g id="Venezuela">
	<g>
		<polygon fill="#CF142B" points="391.3,348.3 391.2,348.6 390.8,349.4 390.7,350.3 390.8,351.1 391,351.9 391.1,352.6 391.3,353.1
			391.8,353.5 392.3,353.9 392.5,354.7 392.7,355 392.9,355.5 392.8,355.9 393,356 393.2,356.5 393.3,358.1 393.4,358.6
			394.4,360.3 394.6,360.8 394.7,362.1 394.9,362.6 395.3,363.1 395.8,363.4 396.2,363.4 396.7,363.3 397.2,363.3 398.1,363.7
			398.8,364.6 400.5,368.9 400.8,369.3 401.1,369.6 402.1,370 402.9,370.8 402.8,371.8 402.1,372.8 400.7,374.7 400.4,374.9
			400.1,375 399.6,375.1 399.3,375.2 398.8,375.6 397.8,376.6 396.7,377.6 395.7,378.5 394.6,379.5 393.6,380.4 392.5,381.4
			391.5,382.4 390.5,383.3 389.9,383.9 389.4,384.6 389.4,386.2 389.8,385.9 390,385.6 390.2,385.3 390.7,385.2 391.2,385.2
			391.5,385.2 392,385 392.2,385 392.5,385.3 393.5,385.8 394.1,385.9 394.6,385.8 395,385.7 395.5,386 395.8,386.6 396,387
			396.1,388.1 396.3,388.6 396.6,388.9 397.6,388.9 398.1,389 398.5,389.3 398.6,389.5 398.7,390 398.8,390.2 399,390.3
			399.6,390.6 399.7,390.8 399.8,390.9 400.1,391.4 400.2,391.5 400.5,391.6 400.7,391.8 400.8,392.1 401,392.3 401.2,392.5
			401.8,392.8 402,393 402.1,393.3 402.2,393.6 402.4,393.9 402.6,394 402.9,394.1 403.1,394.3 403.6,394.7 403.8,394.9
			404.7,395.1 405.5,395.6 405.7,395.8 405.8,396.1 405.8,396.5 405.9,396.7 406.1,397.2 405.8,397.7 405.3,398.2 405,398.5
			405,398.9 405.4,399.8 405.6,400.6 406,401.6 406.2,402 406.6,402.2 407,402.3 407.4,402.5 407.5,402.9 407.6,404.2 407.5,404.6
			407.4,404.8 407,405.3 407.1,405.6 407.3,405.9 407.4,406.1 407.6,406.4 408.1,406.7 408.2,406.9 408.2,407.1 408.7,408
			410.8,413.5 410.9,414 410.9,415.1 410.9,415.6 411.2,416.1 411.7,417 411.9,417.5 412,418 411.9,419 411.9,419.3 412.2,419.6
			412.5,419.8 412.7,420.1 413,420.6 413.2,421.2 413.2,421.7 412.7,422.6 412.9,423.2 413.4,424.2 424.8,434.4 426.3,435.5
			427.8,435.8 429.1,435.4 429.6,435.4 430.1,435.6 430.5,435.9 430.9,436.1 431.4,436.2 432,435.9 432.8,435 433.3,434.8
			434.4,434.7 434.9,434.6 435.4,434.3 435.9,433.8 436.8,432.7 437.4,432.2 437.8,431.8 440,430.9 440.9,430.3 441.5,430.1
			442,430 443.8,430.1 444.3,430 444.6,430 444.9,430.2 445.2,430.4 445.5,430.7 446,431.4 446.3,431.9 446.5,432.4 446.5,433
			446.1,434.1 445.4,435 444.8,436 444.8,437.1 445.1,437.6 445.5,438 445.9,438.1 446.4,438.1 447,437.9 447.6,437.6 448.1,437.1
			448.6,436.4 449,435.9 449.1,435.6 449.1,434.9 449.1,434.7 449.4,434.1 449.6,433.6 451.1,431.8 451.6,431.6 452.2,431.6
			453.2,431.8 453.7,431.7 454.2,431.5 454.8,430.7 455,429.7 455.2,427.7 455.8,426.6 456.7,426.3 457.7,426.4 458.6,426.3
			458.6,426.2 458.6,425.8 458.7,425.7 458.8,425.6 459,425.5 459.1,425.5 459.9,424.8 460.2,424.6 460.8,424.5 461.2,424.4
			461.6,424.3 462.1,423.9 462.7,423.4 463,423.1 463.5,423.1 464.7,423.7 465.2,423.7 465.7,423.6 468.8,421.6 469.1,421.2
			469.6,420.1 470.1,419.5 470.6,419.1 471.9,418.4 473,417.7 473.6,417.3 474.1,417.3 474.6,417.6 474.7,418.1 474.1,419.1
			474,419.5 473.9,420.1 474,420.7 474.5,420.9 474.9,420.8 475.2,420.3 475.7,419.3 476.2,418.8 477.9,417.6 479.2,416.3
			480.4,415.6 480.9,415.1 481.3,414.5 481.6,413.9 481.7,413.5 481.8,413 481.7,411.6 482.1,410.1 482.2,408 482.6,407.2
			483.7,406.4 484.6,406.1 485.5,406 488.4,406.1 488.8,406 489.3,405.7 492.9,402.9 494.2,402.3 494.5,402.3 495.2,402.4
			495.5,402.4 497.1,402.1 497.9,401.8 498.1,401.2 498.1,400.8 498.2,400.4 498.8,398.9 498.9,398.6 498.8,396.9 498.9,396.5
			499.1,395.7 499,395.4 498.6,395.2 495.5,395.1 493.9,394.9 490.8,394.8 489.2,395 487.7,395 484.7,394.2 483.3,394 482.7,394.2
			482.4,393.9 482.2,393.5 482.1,393 482.3,392.4 483.2,390.7 483.3,390.3 483.4,388.9 483.6,388.3 483.6,388 483.5,387.8
			483.2,387.3 482.8,386 481,382.4 480.2,381.4 479.3,379.9 478.5,379 478.1,378.1 478,377.1 478.3,375 478.2,374 477.5,370.9
			477.6,370.4 477.9,369.9 478.5,369 478.7,368.6 478.8,368.2 478.8,367.3 478.6,366.7 478.1,366.2 477.1,365.3 475.6,363.5
			475.1,363.2 473.9,362.8 472.9,362.2 470.6,360.4 469.5,358.9 469,358.4 467.8,357.5 467.4,356.9 466.3,354.8 466,353.8
			465.8,353.4 465.4,353 464.9,352.7 464.4,352.5 464,352.3 463.7,351.7 463.6,351.2 463.7,350.7 463.9,350.2 464.2,349.9
			465.3,349.8 466.5,350.4 467.4,351.3 468,352.2 468.4,353.3 468.7,353.8 469.1,353.9 474.6,353.1 477.7,353.4 479.3,353.8
			479.9,354.2 480.5,354.7 480.9,355.4 481.2,356.2 481.6,358 482,359 482.6,359.7 483.6,359.7 484.6,359.2 485.6,358.6
			486.6,358.1 487.7,358.1 488.6,358.5 489.1,358.6 489.7,358.5 491.1,358.2 491.6,358.1 492.7,358.4 494.4,359.9 495.5,360.4
			496.5,360.1 496.8,359.3 497,358.3 497.6,357.6 498.4,357.5 499.3,357.8 501,358.8 501.8,359.6 503.2,361.5 504.7,362.6
			507.3,365.6 507.7,366.2 508,366.6 508.5,367 509.1,367.3 509.6,367.4 510.2,367.5 510.6,367.5 511.1,367.4 511.6,367.1
			512.1,366.7 512.3,366.6 512.6,366.6 512.9,366.6 513.1,366.4 513.5,366 514.1,365.1 514.3,364.1 514.3,363.1 514.1,362.1
			513.6,361.2 513.5,360.5 513.4,360.4 513.3,360.2 513.2,359.9 513.1,359.3 513.2,358.8 513.5,358.3 513.6,357.7 513.6,357.1
			513.5,356.7 513.6,356.3 514.2,356 514.6,355.9 516,355.8 518,356.1 518.6,355.9 518.9,355 519,354.4 519,354.1 519.2,353.8
			519.8,353.6 520.5,353.5 520.8,353.3 520.9,353.1 521,352.7 521.1,352.6 521.9,352.4 523,352.6 527.6,354.5 528.6,354.6
			529.6,354.3 531.5,353 532.6,352.8 533.1,352.9 533.6,353.1 534,353.3 534.6,353.3 535.1,353.2 535.6,353 536.1,352.8
			536.5,352.5 537.7,351.2 538.3,350.8 538.8,350.7 539.2,350.6 540.1,350.7 540.9,350.9 541.1,351 541.4,350.9 541.9,350.7
			542.1,350.7 542.5,350.7 542.7,350.8 542.9,350.8 543.3,350.6 543.5,350.4 543.7,350.2 543.9,349.9 544,349.6 544.1,348
			391.2,348 		"/>
		<polygon fill="#00247D" points="553.7,246.2 553.2,246 553.2,246 550.6,246 550.4,246.1 550.2,246.7 551.1,246.7 553.7,246.9
			555.7,246.6 555.7,246.4 555.5,246 555.5,246 553.5,246 		"/>
		<path fill="#00247D" d="M570,246.1l-0.1,0.1l-0.4,0.1l-1.2-0.3H557l0,0.5l0,0.3l-0.3,0.2l-0.1,0.2l-0.1,0.3l-0.1,0.2l-0.1,0.2
			l-0.2,0l-0.3,0l-0.2,0l-0.3,0.1l-0.1,0.1l-0.1,0.4l0,0.6l-0.1,0.2l-0.2-0.1l-0.1-0.2l0-0.3l0-0.5l0.2-0.4l0.9-0.2l0.4-0.3
			l-0.1-0.3l-0.5,0l-1.1,0.2l-1.6-0.1l-0.5,0.1l-0.3,0.2l-0.4,0.3l-0.4,0.3l-0.2,0.3l-0.1,0.4l-0.3,0.3l-0.8,0.5l-0.3-0.4l-0.6-0.4
			l-0.3-0.3l-0.1-0.3l-0.1-0.4l-0.2-0.3l-0.2-0.2l-0.4,0l-0.9,0.2l-0.5,0l-0.1-0.1l-0.2-0.3l-0.1-0.1l-0.3,0l-0.1-0.1l-0.4-0.3
			l-0.3-0.3l0-0.1l-0.2,0l-0.4,0.1l-0.3,0l-0.1-0.1l-0.1-0.2l-0.1-0.1H274l0.2,0.2l0.5,0.5l0.5,0.5l0.5,0.5l0.5,0.5l0.5,0.5l0.6,0.6
			l0.3,0.2l0.3,0.1l0.2,0.1l0.3,0.1l0.3,0.3l0.2,0.4l0.2,0.4l0.1,0.4l0,0.4l-0.2,0.8l0,0.4l0.1,0.5l0.8,1.5l0.5,1.7l0,1l-0.4,0.6
			h-0.4l-0.5-0.1l-0.5,0.1l-0.3,0.4l-0.1,0.5l-0.2,0.4l-0.3,0.3l-0.4,0.3l-0.3,0.1l-0.3,0.1l-0.2,0.1l-0.1,0.3l0.1,0.2l0.5,0.6
			l0.2,0.3l0.1,0.4l0.1,1.1l-0.1,0.4l-0.5,1.5l-0.2,2.6l0.1,0.5l0.3,0.9l0.1,0.5l-0.1,0.5l-0.2,0.5l-0.2,0.5l0.1,0.6l0.7,1.1
			l0.9,0.7l1.1,0.4l1.2,0.2l2,0l0.8,0.2l0.8,1.1l0.1,0.1l0.1,0.1l-0.2,1l0,0.2l0.1,0.7l0.2,0.7l0.3,0.7l1.3,2.6l0.4,0.5l0.3,0.2
			l0.7,0.3l0.3,0.2l0.6,0.5l0.3,0.2l2.8,0.6l0.8,0.1l0.4-0.1l0.3-0.2l0.2-0.2l0.3-0.2l0.3,0l0.3,0l0.1-0.1l-0.1-0.4h0.7l0.6-0.1
			l0.6,0l0.7,0.2l-0.1-0.4l0.1-0.2l0.3,0l0.8,0l0.2,0.1l0.1,0.2l0.3,0.2l0.2,0l0.2-0.1l0.3-0.2l0.2,0l0.1,0.1l0.1,0.1l0,0.1l0,0
			l0.5,0l0,0l0,0l0.4-0.1l0.5,0.1l0.5,0.4l0.3-0.1l0.7-0.3l0.4-0.1l0.4,0l0.8,0.2l0.4,0l1-0.2l0.4,0l0.2,0.2l0,0.3l0,0.3l0.1,0.3
			l0.3,0.1l1.2,0l0.3,0.1l0.2,0.2l0.2,0.1l0.4-0.1l0.3-0.2l0.2-0.2l0.2-0.1l1.7,0.2l1.3-0.1l1.2-0.5l1-0.7l0.3-0.3l0.1-0.2l0.2-0.1
			l0.5,0l0.9-0.3l1.1-0.1l1.5-0.4l0.7,0l0.2,0.1l0.3,0.3l0.2,0.1l0.8,0.2l0.4,0l0.7-0.2l0.4-0.1l0.2,0.2l1.2,1.6l0.3,0.1l0.4,0.1
			h0.3l0.6-0.1l0.2,0l0.1,0.1l0.1,0.2l0.1,0.1l0.4,0.1l2.5,1.2l0.8,0l1.4-0.8l0.9-0.2l0.9,0l0.7,0.2l0.8,0.7l0.4,0.5l1.9,2.3
			l1.9,2.3l1.9,2.3l0.5,0.6l-1.5-2.4l8.6,3.5l6-7.1l-0.7,9.2l8.6,3.5l-9,2.2l-0.2,2.2l0.4-0.1l0.5,0.3l1,1.2l0.5,0.4l1.4-0.8
			l1.5-1.4l0.5-0.3l0.7-0.6l0.5-0.2l0.6,0l0.5,0.1l0.9,0.4l0.4-0.1l0.5,0.1l0.6,0.2l0.5,0.1l1.6-0.1l0.5,0.1l1.6,0.5l0.5,0.1
			l0.5,0.1l1,0.5l0.6,0.1l0.3-0.1l0.6-0.6l0.3-0.1l1.5-0.1l1.8-0.5l0.5,0l0.5,0.1l1.6,0.4h0.9l2.8-1l1.1-0.1l3.1,0.3l1-0.1l0.8-0.3
			l0.2,0l0.2-0.1l0.2-0.2l0.1-0.3l0.1-0.3l0.1-0.3l0.3-0.1l0.3,0l0.3,0l0.3-0.2l0.5-0.5l0.3-0.1l0.2,0l0.4,0.1l1.7,0.1l3.8,0.9
			l0.7,0.4l0.6,0.6l0.7,0.5l1,0.1l-0.6,0.5l-0.3,0.3l-0.1,0.3l0,0.9l0.9,1.4l0.6,0.4l0.2,0.5l0.1,0.6l-0.1,0.4l-0.3,0.2l-0.9,0.4
			l-0.3,0.2l-1.2,1.3l-0.2,0.4l-1.5,1.4l-0.6,0.9l-0.4,1l-0.2,1v1.1l0.3,1.4l0,0.5l0.1,0.1l0.4,0.4l0.1,0.1l-0.1,0.3l-0.1,0.2
			l-0.2,0.2l-0.2,0.2l-0.3,0.9l-0.1,0.1l-0.3,0.1l-0.3,0.2l-0.5,0.5l-0.2,0.1l-0.7,0.3l-0.1,0.1l-0.2,0.3l-0.1,0.1l-0.1,0l-0.3,0
			l-0.1,0l-0.9,0.8l-0.6,1l-0.2,1l0.2,0.9l0.2,0.4l0.2,0.4l0.1,0.4l0,0.6l0,0.2l-0.2,0.6l-0.1,0.3l0,0.3l0,0.2l0,0.2l0.1,0.2
			l0.1,0.2l0.4,0.5l0.1,0.2l-0.1,0.3l-0.1,0.2l-0.1,0.1l-0.1,0.1l0,1.1l0,0.5l-0.3,1l-0.2,0.9l0,0.6l0,0.2l0.2,0.4l0.1,0.2v0.3
			l-0.1,0.2l0,0.1l0.1,0.2l-0.2,0.5l-0.1,1.1l-0.2,0.4l-0.3,0.4l-0.1,0.5l-0.1,1.3l-0.1,0.6l0,0.8l0,0.2l-0.1,0.2l-0.2,0.1l-0.1,0.2
			l0,0.3l0.1,0.3l0.2,0.2l0.2,0.2l0.2,0.1v-0.2l0.5,0.3l0.2,0.3l0.2,0.8l0.1,0.1l0.3,0.1l0.1,0.1v0.2l-0.1,0.3l0,0.2l0.1,0.3
			l0.3,0.5l0,0h152.9l0-0.3l0.4-0.7l1.1-0.4l0.5,0l1.4,0.1l0.5,0l0.6-0.1l0.6-0.2l0.4-0.4l-0.1-0.5l-0.7-1l0.2-0.3l0.4-0.1l1.5,0.2
			l0.4,0.1l0.8,0.4l0.4,0.1l0.4,0l1.3-0.4l2-0.3l0.8-0.4l0.7-0.9l0.2-0.5l0.2-1.1l0.7-1.5l0.2-0.2l0.2-0.1h0.5l0.2,0l2.4-1l1.1-0.7
			l0.9-0.8l1.6-2l0.5-1.2l-0.2-1.2l-1.6-4.2l-0.5-0.4l-0.6-0.2l-0.7-0.1l-1.8-2l-1.9-2l-1.8-2l-1.8-2l-1.8-2l-1.9-2l-1.9-2l-1.8-2
			l-0.8-0.9l-0.4-1l0.3-0.3l0.8-0.4l0.4-0.3l1.1-1.8l0.3-0.8l0.2-0.3l0.3-0.2l0.8-0.1l0.4-0.1l0.3-0.2l0.2-0.3l0.3-0.6l0.3-0.3
			l0.3,0l0.4,0l0.3-0.1l0.1-0.4v-0.3l0.1-0.9l-0.1-0.2l-0.1-0.1l-0.1,0l-0.1-0.2l-0.1-0.2l-0.4-0.3l-0.1-0.2l-0.2-0.7l0-0.3l0.1-1.2
			l0.1-0.3l0.2-0.3l0.1-0.2v-0.2l0-0.2l-0.1-0.2l-0.3-0.4l-0.2-0.7l-0.2-0.4l-0.4-0.3l-0.3-0.2l-0.2-0.2l-0.1-0.5l0.2-0.8l0.4-0.9
			l0.5-0.9l0.8-0.9l0.2-0.3l0.5-0.1l0.5,0l0.5,0.1l0.2-0.4l0.5,0.1l0.5,0.1l0.4-0.3l1.1,0.1l0.5-0.1l0.1-0.1l0.7-0.7l0-0.1l0-0.2
			l-0.1-0.2l-0.2-0.3l-0.1-0.3l0.1-0.1l0.3,0l0.6,0.1l0.2,0.1l0.2,0.2l0.2,0.2l0.3,0.1l0.2,0l0.6-0.1l0.3,0l0.5,0.1l0.9,0.6l0.4,0.1
			l0.5-0.2l0.4-0.4l0.7-1l0.4-0.3l0.5-0.2l1.8-0.4l3.1-1.9l0.6-0.1l0.4,0.2l0.2-1.2l0.2-0.4l0.4-0.3l0.4-0.3l0.3-0.3l0.2-0.3
			l0.2-0.4l0.1-0.4l0-0.4l-0.2-0.4l-0.3-0.3l-0.8-0.5l-0.3-0.3l-0.3-0.2l-0.3,0l-0.4,0.1l-0.4,0l-0.3-0.1l-0.3-0.2l-0.3-0.1h-0.6
			l-0.5,0.2l-0.4,0.4l-0.5,1h-0.3l-1.7-1.3l-0.3-0.3l-0.4-0.7l0-0.7l0.3-0.7l0.6-0.5l0.1-0.2l0.1-0.2v-0.2l-0.1-0.2l-0.2-0.3
			l-0.3-0.7l-0.2-0.3l-0.2-0.1l-0.2-0.1l-0.2-0.1l-0.1-0.2v-0.2l0-0.1l0-0.1l-0.1-0.2l-0.3-0.2l-0.3-0.1l-0.3-0.1l-0.6-1l-0.1-0.4
			l0-0.4l0.3-0.6l1.1-0.3l0.4-0.5l0.4-0.6l0.2-0.3l0.2-0.1l0.4,0.1l0.2-0.2l0.1-0.3l-0.1-0.4l0.4-0.7v-0.3l-0.1-0.5l0-0.2l0.1-0.2
			l0.6-0.7l0.5-0.9l0.3-0.3l0.5-0.2l2.1,0l1.1-0.1l0.6-0.4l0.2-0.6l0.5-0.5l1.2-0.8l0.5-0.4l0.3-0.4l0.3-0.3l1.2-0.4l0.4-0.4
			l0.4-0.4l0.5-0.4l0.5-0.2l1,0.1l0.5,0l0.4-0.3l0.3-0.4l0.2-1l0.3-0.4l0-0.3l-0.1-0.3v-0.4l0.2-0.4l0.6-0.5l0.3-0.3l0.4-0.2
			l1.2-0.3l0.5,0l0.5-0.2l0.5-0.4l0.3-0.5l0-0.5l-1-1.6l-2.5-2.8l-1.2-1.9h-10.8L570,246.1z M376.4,282.9l-3.8,8.5l-1.9-9.1l-9.2-1
			l8-4.6l-1.9-9.1l6.9,6.2l8-4.6l-3.8,8.5l6.9,6.2L376.4,282.9z M413.3,276.5l-8.3-4l-6.4,6.7l1.3-9.2l-8.3-4.1l9.1-1.6l1.3-9.2
			l4.4,8.2l9.1-1.6l-6.4,6.7L413.3,276.5z M441.5,279.2l-6.4-6.7l-8.3,4.1l4.4-8.2l-6.4-6.7l9.1,1.6l4.4-8.2l1.3,9.2l9.1,1.6
			l-8.3,4.1L441.5,279.2z M467.3,291.7l-3.8-8.5l-9.2,1l6.9-6.2l-3.8-8.5l8,4.6l6.9-6.2l-1.9,9.1l8,4.6l-9.2,1L467.3,291.7z
			 M487.5,311.7l-0.7-9.2l-9-2.2l8.6-3.5l-0.7-9.2l6,7.1l8.6-3.5l-4.9,7.9l6,7.1l-9-2.2L487.5,311.7z M513.9,336.9l-7.6-5.3
			l-7.4,5.6l2.7-8.9L494,323l9.3-0.2l2.7-8.9l3,8.8l9.3-0.2l-7.4,5.6L513.9,336.9z"/>
		<polygon fill="#00247D" points="556.1,246 556.2,246 556,246 		"/>
		<polygon fill="#FFCC00" points="415.8,166.7 416.9,166.2 416.9,166.1 416.8,166.2 416.4,166.3 415,167 415.7,166.8 		"/>
		<polygon fill="#FFCC00" points="454,186.7 453.8,186.7 453.6,186.7 453.2,186.7 452.9,186.6 451.7,186.1 451.1,186.1 450.5,186.3
			450,186.4 449.3,186.8 449.1,187.4 449.7,187.9 450.1,187.7 450.5,187.9 450.9,188.1 451.4,188.2 452.4,188.3 452.8,188.2
			453.3,188 453.3,188.1 453.2,188.4 453.8,188.1 454.1,187.9 454.2,187.6 453.9,187 454.1,186.8 		"/>
		<polygon fill="#FFCC00" points="473,201.3 473.4,201.2 473.5,201.1 473.4,200.9 473.3,200.8 473.2,200.8 473.1,200.8 472.9,201
			472.9,201.1 472.9,201.3 		"/>
		<polygon fill="#FFCC00" points="461.1,206.6 461.3,206.6 461.1,206.4 460.9,206.3 460.6,206.3 460.8,206.5 460.9,206.6 		"/>
		<polygon fill="#FFCC00" points="470,203.7 470.2,203.9 470.3,203.8 470.4,203.6 470.3,203.5 470.1,203.4 470,203.5 470.1,203.5
			470,203.6 		"/>
		<polygon fill="#FFCC00" points="430.8,165.1 430.4,165.2 430,165.3 430.5,165.8 431.3,166.2 432,166.3 432.3,165.8 432.2,165.3
			432.1,165.1 431.5,165.2 		"/>
		<polygon fill="#FFCC00" points="467.7,165 468.2,165.2 468.8,165.3 469.8,165.3 470.1,165.2 470.1,164.8 470,164.3 469.8,164.1
			469,163.5 468.7,163.3 468.4,163.5 468,164.2 467.7,164.5 467.8,164.7 467.8,164.7 467.8,164.8 		"/>
		<polygon fill="#FFCC00" points="465.6,203.3 465.7,202.9 465.7,202.7 465.5,202.6 465.2,202.6 465.2,202.8 465,203 465,203.1
			465.2,203.3 465.5,203.4 		"/>
		<polygon fill="#FFCC00" points="439.8,204.3 440,204.5 440.2,204.5 440.3,204.5 440.4,204.7 440.6,204.6 440.5,204.4 440.3,204.2
			440,204.1 438.9,203.6 438.6,203.6 438.5,203.6 438.5,203.7 438.9,204.1 439.7,204.2 		"/>
		<polygon fill="#FFCC00" points="418.4,162 418.4,161.9 418.3,161.8 417.9,161.7 417.8,161.7 418.2,161.9 		"/>
		<polygon fill="#FFCC00" points="417.9,163.7 417.9,163.8 417.9,164 417.9,164.1 418.1,163.9 418,163.7 418,163.7 		"/>
		<polygon fill="#FFCC00" points="418.2,166.6 419.1,166.7 419.9,166.6 420.4,166.2 420.3,166.2 419.9,166.2 420.1,165.9
			420.1,165.6 419.9,165.3 419.7,165.2 419.3,165.9 418.9,166.2 418.3,166.3 417.5,166.2 		"/>
		<polygon fill="#FFCC00" points="420,164.3 419.8,164 419.7,164.3 419.9,164.5 		"/>
		<polygon fill="#FFCC00" points="419,163.4 419,163.4 419.1,163.5 419.2,163.5 419.4,163.6 419.4,163.6 419.4,163.5 419.2,163.3
			418.9,163.2 418.8,163.3 418.9,163.3 		"/>
		<polygon fill="#FFCC00" points="420.3,165.1 420.3,165.2 420.1,165.4 420.3,165.6 420.4,165.3 		"/>
		<polygon fill="#FFCC00" points="432.1,164.7 432.1,164.8 432,164.9 431.8,165 432.1,165 432.4,164.6 432.5,164.3 432.5,164.1
			432.2,163.9 432.3,164.2 432.3,164.6 432.2,164.7 		"/>
		<polygon fill="#FFCC00" points="504.7,176.7 504.6,176.5 504.5,176.7 		"/>
		<polygon fill="#FFCC00" points="504.6,176.9 504.7,176.9 504.7,176.9 504.7,176.9 504.6,176.9 		"/>
		<polygon fill="#FFCC00" points="505.6,175.8 505.7,175.9 505.7,175.9 505.7,175.8 505.7,175.8 505.7,175.8 		"/>
		<polygon fill="#FFCC00" points="413.7,163.2 414,163.4 413.8,163.2 		"/>
		<polygon fill="#FFCC00" points="506.4,176.4 506.4,176.5 506.5,176.4 		"/>
		<polygon fill="#FFCC00" points="504.8,176.6 504.7,176.6 504.8,176.7 		"/>
		<polygon fill="#FFCC00" points="505.7,175.9 505.7,175.9 505.7,175.9 		"/>
		<polygon fill="#FFCC00" points="505.9,176 505.7,176.1 505.8,176.3 506,176.2 		"/>
		<polygon fill="#FFCC00" points="490,180.5 490,180.4 489.8,180.6 490.1,180.8 490.1,180.6 		"/>
		<polygon fill="#FFCC00" points="479.3,189.8 478.9,189.8 478.6,189.8 478.2,190 478.1,190.3 478.6,190.6 479.3,190.5 479.7,190.2
			479.6,189.9 479.4,189.8 		"/>
		<polygon fill="#FFCC00" points="478.7,183.4 478.2,183.3 477.6,183.4 476.9,183.6 476.4,183.5 476.2,183.6 475.9,183.8
			475.7,183.9 475.4,184 474.9,184 474.5,184 474.3,184.2 474.3,184.7 474.2,185 473.6,186.3 474.1,186.4 475.1,186.7 475.3,186.7
			475.9,186.7 476.1,186.7 476.2,186.8 476.3,186.8 478.1,187 478.6,186.9 479.3,186.3 479.6,186.6 480.2,186.9 480.7,187.3
			481.2,188.2 481.7,188.2 482.2,188.3 482.1,189.1 482.5,188.8 484.1,188.2 484.6,188.1 486,188.4 486.7,187.1 487.2,186.6
			487.3,186.4 487.4,186.3 487.6,186.4 488,186.7 487.9,186.5 488,186.2 488,186 488.7,186.2 488.6,185.5 487.8,184.1 487.7,183.6
			487.4,182.7 487.3,182.2 487.1,182 486.8,181.8 486.5,181.6 486.5,181.1 486.1,181.4 485.5,182.1 485.1,182.5 484.9,182.5
			484.3,182.5 484.1,182.6 483.9,182.8 483.9,183 483.9,183.2 483.8,183.5 483.6,183.6 483.3,183.9 483.1,184.2 483.2,184.9
			483.1,185.2 482.8,185.6 482.3,185.8 481.4,185.7 480.9,185.5 479.9,185 479.1,184.7 479,184.4 478.9,184 478.9,183.7 		"/>
		<polygon fill="#FFCC00" points="505,176.5 505,176.4 505,176.4 504.9,176.4 504.9,176.4 		"/>
		<polygon fill="#FFCC00" points="485.1,192.1 485.8,192.1 486.1,191.6 485.9,191 485.3,190.7 484.6,190.5 484.1,190.3 483.8,190.3
			483.6,190.5 483.4,190.8 483.4,191.1 483.6,191.3 484,191.4 484.6,191.4 484.6,191.9 		"/>
		<polygon fill="#FFCC00" points="505.1,175.7 505.1,175.7 505,175.7 505.1,175.8 505.1,175.8 		"/>
		<polygon fill="#FFCC00" points="504.8,175.9 504.6,175.9 504.5,175.8 504.6,175.9 505.2,176.5 505.4,176.6 505.4,176.5
			505.4,176.4 505.2,176.3 505.1,176.1 505.2,175.9 505.1,175.8 505,175.8 		"/>
		<polygon fill="#FFCC00" points="504.5,175.8 504.5,175.8 504.5,175.8 504.6,175.8 504.6,175.7 504.5,175.8 504.5,175.7 		"/>
		<polygon fill="#FFCC00" points="506.8,175.3 506.9,175.3 506.9,175.2 		"/>
		<polygon fill="#FFCC00" points="393.7,160.2 393.7,160.1 393.7,160.1 		"/>
		<polygon fill="#FFCC00" points="393.8,159.6 393.8,159.7 393.9,159.6 393.8,159.5 		"/>
		<polygon fill="#FFCC00" points="560.7,234.8 560.3,234.4 559.8,234.1 559.3,234 558.7,234.1 558.4,234.3 558.4,234.5 558.4,234.8
			558.3,235 558,235.3 557.7,235.4 557.5,235.7 557.2,236.5 556.4,237.7 555.9,238.1 554.5,239.2 555.1,239 558.4,237.6
			559.4,236.9 560.1,236.2 560.4,235.5 560.1,234.9 560.2,234.9 		"/>
		<polygon fill="#FFCC00" points="393.7,159.3 393.7,159.2 393.6,159.2 		"/>
		<polygon fill="#FFCC00" points="524.2,212.1 524,212.1 523.8,212.3 523.8,212.7 523.8,213.3 524.1,214 524.4,214 524.5,213.6
			524.6,213 524.5,212.4 524.3,212.2 		"/>
		<polygon fill="#FFCC00" points="522.5,210 522.2,209.3 521.9,209 521.7,209 521.7,209.4 521.9,210.2 522.1,210.6 522.4,210.9
			522.7,210.7 522.8,210.4 522.6,210.1 		"/>
		<polygon fill="#FFCC00" points="413.9,167 414,167.1 414.5,167.1 414.8,167 414.4,167.1 		"/>
		<polygon fill="#FFCC00" points="393.5,159.1 393.5,159.2 393.5,159.1 		"/>
		<polygon fill="#FFCC00" points="579.6,245.5 579.1,245.2 578.3,244.7 577.3,244.3 576.3,244 572.1,243.7 571.3,244 570.8,245
			570.3,245.5 570.1,246 580.9,246 580.7,245.6 		"/>
		<polygon fill="#FFCC00" points="567.9,245.9 566.4,245.8 565.9,245.7 565.6,245.6 565.2,245.3 564.9,245 564.7,244.8 564.3,244.5
			561.2,244.8 558.8,245.1 558.3,245.3 557.8,245.4 557.4,245.2 557.1,245.3 557.1,245.5 557.1,245.6 557,245.9 557,246 568.3,246
					"/>
		<polygon fill="#FFCC00" points="556.7,234.8 556.2,235 555.6,235.1 555.1,235.3 554.9,235.7 554.7,236.2 554.5,236.8 554.4,237.2
			554.7,237.5 554.9,237.4 555.7,237 555.8,236.8 556,236.3 556.1,236 558.2,234.2 558.6,233.9 559,233.8 559.5,233.8 559.8,233.7
			560,233.5 560.2,233.1 560.2,233.3 560.3,233.1 560.4,232.9 560.4,232.7 560.4,232.4 559.1,232.9 558.5,232.9 558.1,233.2
			557.2,234.3 		"/>
		<polygon fill="#FFCC00" points="561.4,231.4 561.5,230.9 561.7,230.6 562.4,230.1 562.8,230.2 563.1,230.2 563.4,230.1
			563.3,229.9 563.1,229.7 563.1,229.5 562.7,229.1 562.1,229.2 561.6,229.4 561.2,229.7 560.9,230.2 560.7,231.3 560.6,231.9
			561.1,231.8 		"/>
		<polygon fill="#FFCC00" points="560.1,231.7 560.3,231.3 560.5,230.8 560.6,230.3 560.3,230 559.9,230 559,230.2 558.3,230.7
			558.2,231.4 558.1,232.2 557.7,233.1 558.2,232.8 559.5,232.4 559.9,231.9 559.9,232.1 		"/>
		<polygon fill="#FFCC00" points="552.4,245.3 551.9,245.2 551.2,245.3 550.8,245.6 550.6,246 553.2,246 		"/>
		<polygon fill="#FFCC00" points="556.7,244.5 556.6,244.5 556.5,244.4 556.4,244.4 556.2,244.3 554.7,244.4 554.4,244.5
			553.7,245.3 553.6,245.3 553.5,245.5 553.4,245.6 553.3,245.8 553.4,245.8 553.5,246 555.5,246 555.5,245.7 556,246 556.2,246
			556.6,245.7 557,245.2 556.9,244.5 		"/>
		<polygon fill="#FFCC00" points="516.2,202.6 516.5,202.2 516.5,201.7 516.3,201.3 516.1,201.2 514.7,199.7 514.1,198.9
			513.4,198.1 513.3,198 513.2,198.2 513.1,198.6 513,198.7 513,199.2 513.1,199.6 513.6,200.1 514.3,200.5 515,201 515.4,201.5
			515.6,201.7 516,202 516.1,202.3 516.1,202.6 		"/>
		<polygon fill="#FFCC00" points="399.5,161.8 399.5,161.8 399.6,161.8 399.5,161.8 		"/>
		<polygon fill="#FFCC00" points="414.8,164 415.5,164.1 415.7,164.1 415.9,164.1 416.3,164.2 416.6,164.1 416.7,164.1 417.3,164.1
			417.2,164 416.8,164 414.8,163.9 		"/>
		<polygon fill="#FFCC00" points="411.9,165 411.7,165.1 411.7,165 411.7,165.1 411.8,165.1 412.1,165.1 		"/>
		<polygon fill="#FFCC00" points="415.4,163.6 415.4,163.6 415.5,163.5 415.7,163.6 415.9,163.5 415.6,163.5 415.4,163.5
			415.2,163.3 415.2,163.4 415.4,163.5 		"/>
		<polygon fill="#FFCC00" points="415,167 414.8,167 414.9,167 		"/>
		<polygon fill="#FFCC00" points="417,164.4 417.1,164.3 417,164.3 		"/>
		<polygon fill="#FFCC00" points="526.3,208.9 525.8,209.1 525.3,209.6 525,210.3 525.1,210.6 525.3,210.5 525.7,210.4 526,210.3
			526.4,210.1 526.6,209.9 526.7,209.5 526.6,209.1 526.5,208.9 		"/>
		<polygon fill="#FFCC00" points="417.2,164.3 417.3,164.1 417.3,164.1 417.1,164.3 		"/>
		<polygon fill="#FFCC00" points="393.8,160.1 393.8,160.1 393.8,160 393.8,160.1 		"/>
		<polygon fill="#FFCC00" points="394.1,161.2 394.6,161.3 394.8,161.3 394.5,161.2 394.3,161.2 394.1,161.1 394,161 393.9,161
			393.8,161.1 393.9,161.2 		"/>
		<polygon fill="#FFCC00" points="543.3,246 543.1,245.9 542.2,245.7 540.9,245 540.7,244.7 540.7,244.2 541,244 541.5,243.9
			542,243.9 542.9,244.4 544,244.7 548.3,244.4 548.6,244.4 550,244.9 551.1,244.9 551.7,244.4 551.9,243.5 552,242.3 552.4,241.3
			553.7,239.3 554,238.3 554,238 553.9,237.6 553.9,237.2 554.2,236.1 554.3,235.8 554.8,235.1 554.9,234.9 555,234.8 555.9,233.9
			556.1,233.8 556.4,233.7 556.6,233.6 556.7,233.4 556.7,232.9 556.8,232.7 557,232.5 557,232.3 557.1,231.8 557.2,231.6
			557.4,231.4 557.7,231 557.9,230.7 557.8,230.3 557.2,230.7 555.2,232.5 555,232.7 554.9,233 554.7,233.3 554.4,233.6 554,233.8
			554.7,232.3 555.1,231.5 555.6,231.2 556.2,231 557.5,229.7 558.1,229.6 558.1,229.5 558.3,229.5 558.4,229.3 558.6,229.1
			558.8,228.9 559,228.8 559.3,228.7 559.6,228.7 559.9,228.6 560.4,228.3 560.8,228.2 561.1,228.1 561.2,227.8 561.3,227.4
			561.4,227 561.6,227.2 561.7,227.3 561.7,227.5 562,227.1 562.1,226.5 561.9,225.8 561.7,225.3 561.6,225.2 561.3,225.2
			561.2,225.1 561.2,224.9 561.2,224.8 561.1,224.7 560.7,224.3 560.3,223.8 560.1,223.6 559.7,223.3 559.2,223 558.7,222.7
			558.3,222.7 558.1,222.7 557.9,222.8 557.7,222.8 557.5,222.7 557.5,222.5 557.5,221.6 557.6,221.9 557.7,222 557.9,222
			557.7,221.6 557.3,221.3 556.4,221 555.5,220.5 555.1,220.5 554.2,220.5 554,220.5 553.6,220.7 552.3,219.9 551.7,220
			552.1,220.5 551.7,220.6 551.2,220.5 550.8,220.4 550.7,220.2 548.8,219.2 548.5,219 548.4,218.7 548.2,218.4 547.8,218
			547.4,217.7 546.7,217.4 546.4,216.9 545.7,215.4 545.5,215.1 544.8,214.3 544,213.7 542.8,213 541.5,212.4 541.1,212.5
			541,212.7 541,212.8 541.2,213.1 541.3,213.2 541.5,213.3 541.6,213.5 541.6,213.8 541.7,214 541.9,214.1 542.1,214.2
			542.3,214.6 542.7,214.9 542.8,215.3 542.3,215.6 540.6,215.2 540.3,215.2 537.9,214.3 537.7,214.2 537.4,214.2 537,214.3
			536.9,214.4 537,214.8 537,214.8 537.3,215.6 537.3,215.7 537.5,215.9 538,216 538.1,216.1 538.3,216.4 538.4,216.9 538.6,217.2
			538.7,217.3 538.8,217.5 538.9,217.7 539,218 538.9,219.1 538.9,219.6 538.6,220.1 538.5,218.1 538.6,217.6 538.4,217.2
			538.1,216.6 537.7,216.1 537.3,216.1 537,217.4 536.3,218.8 536.1,218.8 536.2,218.3 536.7,217.4 537,216.7 537,216.4
			536.9,216.2 536.6,215.8 536.5,215.7 536.5,215.3 536.2,215 534.3,213.2 531.5,210.9 530.8,210.5 529.5,210.3 527.9,209.8
			527.3,209.8 527.1,210.1 526.9,210.5 526.6,211 527,211.4 527.3,211.5 528.7,211.6 529.1,211.7 529.4,211.9 530.2,212.6
			530.2,212.7 530.5,212.8 531.2,213 531.4,213.1 531.7,213.3 531.7,213.4 531.5,213.4 531,213.4 530.2,213.2 529.9,213.1
			529.7,212.8 529.6,212.4 529.5,212.1 529,212 527.6,211.9 527.8,212.4 528.3,213.3 528.4,213.9 528.6,216.9 528.4,218
			527.9,218.8 527.1,219.1 527.8,218.5 528.1,217.5 528,214 527.9,213.5 527,211.7 526.5,211.2 526.1,210.8 526.1,211.7
			526.5,213.3 526.4,214.1 525.8,215.9 525.3,216.8 524.6,217.4 524.4,217.1 524.4,216.7 524.5,216.3 524.6,215.9 524.4,215.5
			523.1,213 522.7,212.4 522.4,212.1 522,211.9 521.6,211.9 521.9,211.3 522,211 521.9,210.7 521.6,210.2 521.6,209.7 521.4,209.3
			521.1,208.9 520.9,208.5 520.3,206.5 519.7,205.7 518.7,204.9 518.2,204.7 517.7,204.5 517.2,204.7 517.1,205.4 517.2,205.9
			517.6,206.9 517.6,207.5 517.3,208 516.8,208.4 516.2,208.7 514.9,209 514.6,209 514.3,208.9 513.9,208.4 513.7,208.3
			513.2,208.5 513.1,208.9 513.4,209.7 513.2,210.2 512.8,210.3 512.6,210.1 512.9,209.5 512.4,209.4 512.1,209.2 511.8,209
			511.6,208.8 511.2,208.9 510.8,209 510.5,209.1 510.1,208.9 510,208.7 510.2,208.3 510,208.1 509.9,208.2 509.7,208.4
			509.6,208.6 509.6,208.7 509.8,209.1 509.7,209.3 509.6,209.6 509.9,210 509.5,210 509.3,209.5 509.2,208.2 509.1,208 508.9,208
			508.6,208.2 508.5,208.4 508.4,208.5 508.1,208.3 507.7,207.9 507.5,207.7 508.2,207.8 508.5,207.8 508.9,207.5 509.1,207.6
			509.3,207.7 509.5,207.9 509.5,208.1 509.7,208 509.9,207.8 510.1,207.7 510.4,207.7 510.5,207.8 510.5,208.1 510.5,208.3
			510.5,208.5 510.9,208.6 511.6,208.2 512,208.4 512,208.6 512.2,209.1 512.3,209.2 512.5,209.1 512.7,209 512.8,208.8
			512.9,208.6 513,208.2 513.4,208.1 513.8,208.1 514.2,208.1 514.4,208.2 514.5,208.4 514.7,208.5 515,208.5 515.2,208.5
			515.7,208.4 516,208.3 516.3,208.2 516.7,207.8 517,207.4 517.1,207 517,206.8 516.8,206.4 516.7,206 516.5,205.9 516.3,205.8
			516.2,205.7 516.2,205.5 515.9,204.9 515.9,204.7 516.1,203.9 516,203.4 515.9,203 515.7,202.6 515.3,202.3 514.7,201.9
			514.6,201.7 514.5,201.5 514.5,201.1 514.4,200.9 514.1,200.7 513.7,200.5 513.2,200.3 512.8,200.2 512.6,200.3 511.9,200.7
			511.6,200.8 511.4,200.8 511.1,200.9 510.9,201.1 510.2,200.4 509.8,200.2 509.4,200.2 509.1,200.4 509,200.7 509.1,201.1
			509.4,201.2 509.2,201.8 509.7,202.7 509.6,203.2 509.3,203.4 507.9,203.4 508.1,203.1 508.4,202.8 508.5,202.5 508,202.2
			508.3,202.1 508.7,201.6 509,201.4 508.8,201.2 508.7,201 508.5,200.4 508,200.6 507.9,200.7 508.1,200.2 508.8,200 510.5,200.1
			510.6,200.1 511,200.5 511.2,200.6 511.4,200.5 511.8,200.4 512,200.4 512.1,200.2 512,199.7 511.9,198.9 511.9,198.3
			511.8,197.6 511.4,197.1 510.5,197.2 509.8,197.6 508.4,198.7 507.7,199 507.7,198.9 508.1,198.7 508.7,198.3 509.3,197.8
			509.5,197.4 509.8,197.1 510.5,197 516.2,196.2 517.6,196.3 519.1,196.8 519.6,196.8 519.9,196.8 520.3,196.7 520.6,196.7
			520.8,196.7 521.3,197 521.6,197 522.2,196.9 522.6,196.8 523.1,196.8 523.7,197.1 524.2,197.1 524.7,196.7 525.9,194.9
			526.2,194.6 526.5,194.5 528.1,194.4 530.2,194.6 530.7,194.5 532.3,194.3 532.5,194.1 532.8,194.1 533,194.1 533.3,194.1
			533.5,194 533.8,193.8 533.9,193.8 534.3,193.6 534.6,193.3 534.9,193.2 535.1,193.4 535.3,193.3 535.2,192.8 535.4,192.4
			535.7,192.1 536.1,191.9 535.7,191.8 535,192 534.3,192.2 533.9,192.4 533.7,192.2 533.1,192.4 532.8,192.1 532.2,192.5
			531.5,192.6 529.9,192.6 529.6,192.7 528.9,193.2 528.6,193.3 528.2,193.3 527.4,193 525.7,193 524.6,192.8 522.7,192.6
			519.2,191.9 516.8,191.9 516.3,191.8 516,191.8 515.7,191.7 515.1,191.4 514.8,191.5 512.2,192.4 511.3,192.5 510.3,192.9
			509.7,193 509.1,192.9 508.2,192.5 507.6,192.4 505.9,192.6 505.5,192.4 505.3,192.6 505.1,192.7 504.9,192.8 504.6,192.8
			504.3,192.7 504.2,192.4 504.1,192.2 504,192.1 503.8,192.2 502.1,193.3 501.8,193.4 501.6,193.4 501.3,193.2 501.1,193.3
			501,193.5 501,193.6 500.6,193.5 500.2,193.3 499.9,193.3 499.7,193.6 499.2,193.4 499.3,193.3 499.2,193.1 499,193.2
			498.8,193.2 498.7,193.1 498.5,193 498.4,193.2 498.2,193.7 498.1,193.8 497.8,193.7 497.5,193.6 497.2,193.7 497.2,194 497,194
			496.6,193.8 496,194 495,194.7 494.5,194.7 492,194.4 489.5,193.8 488.9,193.5 488.4,193.2 488.1,192.6 488,192.6 487.9,193.1
			487.7,193.5 487.5,193.9 487.3,194.1 486.9,194.3 486,194.5 485.6,194.7 485.1,194.5 482.8,194.5 482.7,194.4 482.6,194.3
			482.5,194.2 482.4,194.1 482,194.2 481.8,194.2 480.3,194.9 480,195 479.7,194.9 479.1,194.6 478.8,194.5 477.7,194.3
			477.3,194.1 477.1,193.6 476.9,193.6 476.9,193.9 476.9,194.2 476.7,194.3 476.4,194.5 476.3,194.9 476.6,195.4 477,195.9
			477.3,196.4 477.3,196.7 477.3,197.1 477.5,197.4 477.8,197.5 478.1,197.4 478.3,196.8 478.5,196.7 478.7,196.6 479.4,196.2
			479.8,196.1 481.4,196.2 481.8,196.2 482,196 482.2,195.8 482.4,195.7 482.8,195.7 482.6,196 482.4,196.2 483.7,195.9
			484.4,195.9 484.8,196.1 485.4,196.4 486,196.5 487.3,196.5 487.9,196.7 489.1,197.3 489.6,197.6 490.1,197.9 490.8,198
			491.4,198 492,198 491.3,198.4 487.9,199.2 486.9,199.2 486.4,199.1 485.4,198.9 484.9,198.9 483.4,199.2 482.9,199.2
			482.3,199.2 481.8,199.1 480.8,198.5 480.4,198.4 480,198.4 479.5,198.4 479,198.4 478.7,198.7 478.6,199 478.4,199.4
			477.5,199.9 476.3,200.2 475.3,200.6 475.3,201.2 475.1,201.6 474.8,201.9 474.7,201.9 474.6,201.5 474.6,201.1 474.5,200.8
			474.2,200.7 473.7,200.9 473.7,201.1 474.3,201.1 474.2,201.3 474.2,201.4 474.3,201.7 473.9,201.8 473.4,202.2 473.1,202.2
			472.8,202.2 472.5,202 472.2,202 472.1,202.2 472.4,202.5 473,202.7 473.6,202.7 474.2,202.4 474.4,202.6 474.4,202.8
			474.2,202.9 474,203 473.6,203.2 472.8,203.4 472.1,204.1 471.6,204.3 471.4,204.2 470.8,204 470.6,203.9 470.4,204 470.2,204.2
			470.1,204.2 469.9,203.9 469.8,204 469.5,204.1 469.4,204.1 469.5,204 469.5,203.9 469.6,203.8 469.2,203.8 468.5,204
			468.1,204.1 467.5,204.9 467.2,205.1 467.5,205.4 467.3,205.6 466.8,205.6 466.5,205.3 466.8,205.2 466.9,205.2 467,204.9
			466.8,205 466.5,204.9 466.2,204.8 466.1,204.6 465.9,204.9 466.1,205.6 466.1,206 465.8,206.9 465.6,207.2 465.3,207.6
			464.6,208 463.7,208.1 461.9,208 460.5,207.7 460,207.8 459.6,208 458.7,208.5 458,208.7 457.6,208.9 457.4,209 457.1,209
			456,208.9 455.5,208.8 455.1,208.5 454.9,208.1 455.3,208.2 457.2,208.8 457.2,208.7 456.9,208.6 456,208.3 455,207.8
			451.6,207.2 447.9,206.5 445,205.6 437.9,202.6 438.5,203.3 440.9,204.3 441.6,204.8 440.2,204.8 439.6,204.6 438.9,204.4
			437.9,203.5 437.3,203.1 436.6,203.3 436.1,202.6 436.3,202.4 436.5,202.2 436.7,202.4 436.9,202.5 437.3,202.6 437.6,202.6
			435.9,201.5 435.4,200.9 434.6,200.4 434.5,200.1 432.6,198.7 431.9,197.9 431.8,197.7 431.8,197.1 431.8,196.8 432.2,196.9
			432.9,196.7 433.4,196.3 433.6,196 433.3,195.9 432.2,195.8 431.7,195.4 430.1,195 428.6,194.2 428,194.1 427.5,194.3
			427.2,194.6 426.9,194.9 426.6,195.1 426.2,195.1 424.9,194.9 424.6,194.7 424.3,194.7 421.5,194.6 415.8,195 413.1,195.2
			410,195.1 409.5,195.2 408.5,195.6 407.6,195.8 406.2,196.5 404.4,196.7 402.4,196.7 398.7,197 396.7,197.2 394.6,197.7
			391.3,198 390.4,198.2 389.6,198.5 389.6,198.6 389.4,198.9 389.2,199.1 389.1,198.9 389.1,198.6 389,198.5 388.8,198.4
			388.5,198.4 388.1,198.5 387.8,198.6 387.4,198.7 386.8,198.5 386.2,198.3 385.8,198.2 382.8,198.2 381.8,197.8 380.8,197
			380,195.9 378.9,194 378.2,191.8 377.8,190.3 377.8,189.7 378,189.3 378.3,189.1 379.4,189.1 379.8,188.9 380.1,188.4
			379.5,187.9 377.5,187.8 376.7,187.5 376.9,187.4 377.1,187.2 377.4,187.1 377.8,187 378.2,187.1 378.5,187.3 378.7,187.6
			378.9,187.7 379.1,187.4 378.9,186.7 377.4,183.8 376.4,182.4 376.2,181.7 376.4,181.3 376.4,181.1 376.2,180.8 376.1,180.6
			375.9,180.6 375.9,180.8 375.9,180.9 375.7,181.1 374.1,180.4 373.9,180.2 373.7,179.8 373.3,179.4 372.7,179 370.9,178
			370.3,177.6 370.1,177.1 369.9,176.9 369.3,176.7 369.2,176.6 369.1,176.7 368.7,176.7 368.3,176.6 367.5,176.3 367,176
			366.5,175.6 365.7,174.8 365.3,174.5 364.9,174.3 361,174.5 360,174.3 359.7,174.2 359.3,173.9 359,173.7 358.9,173.4
			358.6,173.4 357,172.8 356.8,172.8 355.9,172.8 355.7,172.7 355.2,172.4 354.9,172.3 354.4,172.4 354,172.5 353.3,173
			352.3,173.3 351.4,173.3 349.3,173 348.4,173.2 347.8,173.7 347.2,174.1 346.3,174 345.3,173.2 344.4,172.2 343.3,169.9
			341.8,165.7 341.6,164.6 341.6,162.5 341.5,161.4 341.1,160.4 338.9,156.8 338.5,156.5 337.3,156.2 337,156 336.7,155.9
			336.1,156 335.5,156.3 334,157.6 333.6,157.9 333.2,158 332.1,158 332,158.2 332,159 331.9,159.4 331.7,159.8 330.9,160.6
			330.8,161 330.7,161.5 330.2,162.3 330.1,162.7 330.1,163.1 329.9,164 329.7,164.3 330,164.3 330.2,164.3 330.2,164.5 330.3,165
			330.4,165.1 330.5,165.2 330.6,165.3 331.1,166.3 331.2,166.7 331.4,166.5 331.5,166.2 331.7,166 331.9,166.2 332,166.4
			332.1,166.7 332.1,167.4 332,167.3 331.6,167.1 331.4,167 331.5,167.2 331.7,167.5 331.8,167.5 331.8,168.2 331.8,168.3
			331.9,168.4 331.9,168.6 331.9,168.7 331.8,168.9 331.5,169.2 331.4,169.4 331.5,170 332,170.5 332.6,170.6 333.7,170.1
			335.3,169.9 335.8,169.7 336.1,169.5 336.5,169.4 337.2,169.4 337.5,169.3 338.5,168.9 338.3,169.3 338.9,169.3 340,168.9
			340.1,168.8 340.3,168.6 340.5,168.5 340.8,168.4 341,168.5 341.2,168.8 341.4,168.8 341.5,168.4 341.6,168.4 342.2,169.6
			342.4,170.3 342.8,171.5 343,171.8 342.9,172.2 343.4,173.1 343.3,173.7 343,174 342.3,174.4 342.1,174.7 341.6,175 340.6,175
			339.6,174.7 339.1,174.2 338.9,174 338.1,173.6 337.9,173.5 337.8,173.4 337.7,172.9 337.6,172.8 337.4,172.7 337.2,172.7
			337.1,172.8 336.9,172.8 336.3,172.6 336,172.6 335.9,172.6 335.5,172.2 334.9,172 334.1,171.4 333.6,171.3 333.8,171.5
			334.1,171.8 334.4,172 334.8,172.1 334.8,172.3 334.5,172.3 334.2,172.4 334.1,172.6 334.2,172.6 334.8,172.7 336.1,173.1
			336.5,173.3 336.8,173.7 336.4,173.6 336.3,173.6 336.1,173.5 336,173.6 336,173.7 335.9,173.8 336.1,173.9 336.2,174
			336.3,174.2 336.3,174.4 336.2,174.6 336.1,174.6 335.9,174.5 335.7,174.4 335.4,174.2 335.2,174.2 335.1,174.6 335,174.8
			334.7,174.7 334.4,174.4 334.3,174.1 334.1,173.8 333.8,173.7 333.5,173.8 333.2,174 333.6,174 333.7,174.1 333.8,174.2
			333.6,174.5 333.6,174.9 333.2,175.6 332.7,176.2 332.2,176.5 330.8,176.5 330.1,176.7 329.2,177.3 327.1,178.1 326.7,178.2
			325.2,178.2 324.7,178.5 324.7,179.1 324.8,178.8 325,178.6 325.2,178.5 325.4,178.4 325,179 324.6,179.3 321.8,179.6
			320.9,179.6 320.4,179.4 319.7,179.7 315.9,180.7 311.2,183.3 309.7,183.8 309.5,184.1 308.4,184.7 305.5,185.9 304.5,186
			302.5,186 301.5,186.2 300.5,186.5 300.8,186.7 301.3,187.2 301.5,187.4 301.8,187.5 302,187.6 302.6,187.5 302.4,187.9
			301.8,188.3 301.6,188.7 301.7,189.1 302,189.5 302.1,190 301.8,190.6 301,190.3 300.3,190.2 298.5,190.3 298.5,190.4
			298.7,190.5 298.9,190.7 299.2,191.1 299.6,191.5 299.7,191.6 299.8,191.9 299.8,192.3 299.7,193 299.6,193.3 299.7,193.5
			300.4,194.7 300.5,194.7 300.4,194.8 299.6,195.5 299.5,195.7 299.5,196.3 299.9,196.8 301,197.5 301.3,197.8 301.4,198.2
			301.3,199.4 301.1,199.8 301.1,200.1 301.3,200.3 301.4,200.5 301.6,200.7 302.2,201.3 302.4,201.8 302.6,202.5 303.1,203.1
			303.3,203.4 303.6,204.4 303.8,204.8 304.7,205.1 305.2,205.5 306.2,206.5 306.7,207.4 307.1,208.5 307.7,210.7 308.2,210.6
			308.7,210.9 310.1,212.5 310.5,213.2 310.9,213.7 311,213.9 310.9,214.1 310.8,214.2 310.5,214.2 310.6,214.8 311,215.3
			311.4,215.7 311.7,216.1 311.8,216.5 311.9,216.6 311.8,216.8 311.7,216.9 311.5,217.1 311.5,218.3 311.1,220 311.1,220.3
			310.6,221 310.5,221.1 310.5,221.4 310.6,221.7 310.7,222 310.8,222.4 310.9,224.5 311.3,225.9 311.3,226.3 311.2,226.8
			310.9,227.1 310.6,227.2 310.4,227.3 310.2,227.4 310,227.5 309.9,227.5 309.2,227.6 309,227.7 308.8,227.9 308.1,228.7
			307.7,229.1 307.3,230.4 306.8,231 306,231.5 303.6,232.5 300.1,233.6 299.1,233.8 298,233.7 296.9,233.6 296,233.3 295.4,232.9
			295.2,232.7 295.2,232.6 295.3,232.5 295.1,232.3 294.8,232.2 294.6,232.2 294.6,232 294.4,232 294.2,231.8 294.1,231.6
			294.2,231.4 294.8,230.7 294.4,230.1 294.3,229.8 294.8,229.7 294.4,229.5 294.5,229.2 294.5,229 294.3,228.7 294.2,228.9
			294.1,229 294,229.1 293.8,229.2 293.5,228.9 293.3,229 293,229.3 292.8,229.1 293.7,228.2 294.2,227.8 294.5,228 294.7,227.7
			294.8,227.2 294.7,226.8 294.5,226.5 294.5,226.4 294.8,226.3 294.9,226.2 294.9,226.1 294.6,225.9 294.7,225.8 294.8,225.3
			294.1,225.8 293.6,225.4 293,224.7 292.4,224.3 291,224.3 290.9,224.5 290.6,225.3 290.4,224.7 290.7,224.1 291.4,223.9
			292.1,224 291.9,223.7 291.7,223.6 291.4,223.6 291.2,223.4 290.5,222.7 290.3,222.5 290.3,223 290.1,223 289.9,222.5
			289.3,222.7 288.8,223.2 288.4,223.5 288,222.9 287.8,222.4 287.9,222 288.3,222.3 288.7,222.6 289.1,222.6 289.3,222.1
			289.1,221.6 288.8,221.1 288.5,220.8 288.1,220.6 288.2,220.5 288.3,220.4 288.4,220.3 288.6,220.3 288.5,220.1 288.5,220
			288.4,220 288.6,219.8 288.8,220.3 289,220.8 289.2,221.2 289.6,221.5 288.3,218.7 287.8,217.9 286.1,216.2 285.8,215.8
			285.3,214.8 285.3,214.5 285.6,213.7 287.2,211.9 287.7,210.6 288.3,209.6 288.5,208.5 288.7,208 289.1,207.6 289.5,207.3
			290.4,207 290.8,206.8 291,206.2 292.3,204.4 293.7,201.8 294.3,201.1 294.9,200.6 295.3,200.3 295.7,200.2 295.8,200.1
			296.3,199.5 297,199.3 297.1,199.2 297.3,199 297.4,198.9 297.3,198.8 297.3,197.4 297.5,196.9 297.7,196.4 297.9,195.9
			297.8,195.5 297.9,195.2 298,194.9 297.9,194.7 297.8,194.5 298.2,193.9 298.4,193 298.6,192.4 297.6,191.9 296.9,191.2
			296.3,190.4 295.8,189.6 295.4,188.5 295.1,187.5 295.2,187.2 295.2,186.9 295.3,186.6 295,186.3 294.2,185.5 293.9,185.2
			294.2,185 294.4,184.9 294.5,184.7 294.6,184.7 294.8,184.7 295,184.8 295.7,184.9 296.1,185.1 296.2,185.5 296.1,185.8
			297.3,185.6 297.5,185.5 297.4,185.2 297.1,184.8 296.8,184.5 293.9,182.9 293.3,182.3 291.8,180.2 289.8,176.1 289,172.9
			289,171.8 289.3,170.9 289.6,170.7 290.1,170.4 290.7,170.2 291.7,170 296.2,168.6 300.3,168 301.3,167.7 302.7,167 303.2,166.9
			303.5,166.8 303.5,166.6 303.5,166.4 303.6,166.2 303.8,166.1 304.5,166 304.3,165.6 304.4,165.1 304.7,164.5 304,164.5
			303.5,164.7 302.7,165.4 301.7,165.9 301.1,166 299.6,166.4 298.2,166.8 296.8,167.1 295.3,167.5 293.9,167.9 292.5,168.3
			291.1,168.6 289.6,169 289,169.2 288.5,169.5 288.1,170.1 287.8,170.6 287.1,171.9 286.4,173.3 285.7,174.6 284.9,176
			284.2,177.3 283.5,178.7 282.8,180 282,181.4 281.8,181.7 281.3,181.8 280.4,181.6 280,181.5 279.5,181.6 278.1,182.1
			277.1,182.2 276.5,182.3 276.1,182.6 276,182.8 276,183.2 275.9,183.5 275.7,183.7 275.3,184.2 275.1,184.5 274.2,186.6
			273.8,187.2 273.3,187.6 272.3,188.4 271.6,189.1 271.1,190.2 269.9,193.6 269.2,194.6 267.7,196.4 267.3,197.7 266.9,198.1
			266.5,198.6 266.1,199.1 266,199.5 265.9,200 265.9,200.5 265.5,205.9 264.2,210.2 264.2,211.2 264,212.1 264,212.7 264.1,213.3
			264.3,213.7 264.4,214.2 264.2,214.8 263.5,216.4 262.1,218.5 261.5,220.1 261.2,220.6 260.9,221 259.9,221.6 259.5,221.9
			259.1,223 257.1,225.9 256.3,228 256,228.5 255.5,228.9 254.6,229.5 254.3,230 254.3,230.5 254.7,230.7 257.7,230.7 258.7,230.5
			259.6,230.1 260.4,229.3 260.8,229 261.5,228.8 262,228.5 263.1,227.5 263.6,227.5 263.8,227.7 264.1,228.6 264.1,228.7
			264,228.9 264,229 264.1,229.1 264.3,229.4 264.4,229.5 264.5,230.1 264.4,231.1 264.5,231.6 265,232.2 265.4,232.3 265.9,232.2
			266.8,231.6 267,231.5 267.3,231.4 267.5,231.4 267.8,231.5 267.9,231.5 268.1,231.3 268.6,231.7 269,232 269.1,232.3
			268.8,232.8 269.2,233.3 269.3,233.8 269.6,234.9 269.9,235.9 270.1,237 270.4,238.1 270.7,239.1 271,240.2 271.3,241.3
			271.6,242.4 271.8,243.3 272.3,244.2 272.7,244.6 273.2,245.2 273.7,245.7 274,246 543.3,246 		"/>
		<polygon fill="#FFCC00" points="399.1,161.6 399.1,161.6 399.1,161.5 		"/>
		<polygon fill="#FFCC00" points="399.5,162.1 399.7,162.1 399.5,162 		"/>
		<polygon fill="#FFCC00" points="398.9,161.4 398.8,161.5 398.7,161.4 398.6,161.5 398.6,161.6 398.8,161.5 		"/>
		<polygon fill="#FFCC00" points="400,162 400,162 399.9,162 399.7,162 399.8,162.1 		"/>
		<polygon fill="#FFFFFF" points="362.2,300 353.6,296.5 354.3,287.3 348.3,294.4 339.7,290.9 341.2,293.3 342.6,295 344.4,297.3
			346.3,299.6 348.1,302 350,304.3 350.7,305.2 351,305.2 351.6,305 352.8,304.5 353,304.4 353.2,302.2 		"/>
		<polygon fill="#FFFFFF" points="382.5,269.2 374.4,273.8 367.6,267.6 369.5,276.7 361.4,281.3 370.7,282.3 372.6,291.4
			376.4,282.9 385.6,283.9 378.7,277.7 		"/>
		<polygon fill="#FFFFFF" points="406.2,263.2 401.9,255.1 400.6,264.2 391.5,265.9 399.8,269.9 398.5,279.1 404.9,272.4
			413.3,276.5 408.9,268.3 415.3,261.6 		"/>
		<polygon fill="#FFFFFF" points="439.5,264.4 438.2,255.2 433.8,263.4 424.7,261.8 431.1,268.5 426.8,276.6 435.1,272.6
			441.5,279.2 440.3,270.1 448.6,266 		"/>
		<polygon fill="#FFFFFF" points="470.4,277 472.4,268 465.5,274.2 457.5,269.5 461.2,278 454.3,284.2 463.5,283.2 467.3,291.7
			469.3,282.6 478.5,281.7 		"/>
		<polygon fill="#FFFFFF" points="495.4,298.9 500.2,291 491.7,294.5 485.7,287.5 486.4,296.7 477.8,300.2 486.8,302.4 487.5,311.7
			492.4,303.8 501.4,306 		"/>
		<polygon fill="#FFFFFF" points="509,322.7 506,314 503.3,322.8 494,323 501.6,328.3 498.9,337.2 506.3,331.6 513.9,336.9
			510.9,328.1 518.3,322.6 		"/>
	</g>
	<path fill="none" stroke="#878787" stroke-width="0.25" stroke-linecap="round" stroke-linejoin="round" d="M506.9,175.2l-0.1,0.1
		h0.1L506.9,175.2z M505.1,175.8L505.1,175.8L505.1,175.8L505.1,175.8L505.1,175.8L505.1,175.8z M505.7,175.9L505.7,175.9
		L505.7,175.9L505.7,175.9z M506,176.2l-0.1-0.1l-0.2,0.1l0.1,0.2L506,176.2z M506.5,176.4L506.5,176.4L506.5,176.4L506.5,176.4z
		 M505,176.5L505,176.5L505,176.5L505,176.5L505,176.5L505,176.5z M504.6,176.5l-0.1,0.2h0.2L504.6,176.5z M504.8,176.6L504.8,176.6
		L504.8,176.6L504.8,176.6z M504.6,176.9L504.6,176.9L504.6,176.9L504.6,176.9L504.6,176.9L504.6,176.9z M504.5,175.8L504.5,175.8
		L504.5,175.8L504.5,175.8L504.5,175.8L504.5,175.8L504.5,175.8L504.5,175.8z M505.7,175.9L505.7,175.9L505.7,175.9L505.7,175.9
		L505.7,175.9L505.7,175.9L505.7,175.9z M490.1,180.6L490.1,180.6l-0.1-0.1l-0.1,0.1l0.3,0.3L490.1,180.6z M470.1,203.5L470.1,203.5
		l-0.1,0.2l0.2,0.1l0.2-0.1l0.1-0.1l-0.1-0.1l-0.1-0.1L470.1,203.5L470.1,203.5z M460.9,206.6l0.2,0l0.2-0.1l-0.2-0.1l-0.2-0.1
		l-0.3,0l0.1,0.2L460.9,206.6z M398.8,161.5L398.8,161.5L398.8,161.5l-0.2-0.1l-0.1,0l0.1,0.1L398.8,161.5z M399.1,161.5
		L399.1,161.5L399.1,161.5L399.1,161.5z M418.4,162L418.4,162l0-0.3l-0.4-0.1l-0.1,0l0.4,0.2L418.4,162z M399.6,161.8L399.6,161.8
		L399.6,161.8L399.6,161.8L399.6,161.8z M400,162L400,162l-0.2-0.1l-0.2,0l0.1,0.1L400,162z M399.5,162.1h0.2H399.5L399.5,162.1z
		 M413.8,163.2L413.8,163.2l0.2,0.2L413.8,163.2z M419,163.4L419,163.4l0.1,0.1l0.1,0l0.2,0.1l0.1,0l-0.1-0.1l-0.2-0.2l-0.3,0
		l-0.1,0L419,163.4L419,163.4z M415.4,163.5L415.4,163.5L415.4,163.5L415.4,163.5l0.3,0l0.2,0l-0.4-0.1L415.4,163.5l-0.2-0.2l0,0.1
		L415.4,163.5z M417.9,163.7l0,0.1l0.1,0.2l0,0.1l0.2-0.1l-0.1-0.2v0L417.9,163.7z M432.4,164.6l0.1-0.3l0-0.2l-0.3-0.2l0.1,0.3
		l0,0.4l-0.1,0.1l-0.1,0l0,0.1l-0.1,0.1l-0.2,0.1l0.3,0L432.4,164.6z M417,164.4l0.1-0.1L417,164.4L417,164.4z M417.2,164.3l0.1-0.1
		h0L417.2,164.3L417.2,164.3z M420,164.3l-0.2-0.4l-0.1,0.3l0.2,0.2L420,164.3z M412.1,165.1l-0.1,0l-0.2,0l-0.1-0.1l0,0.1l0.1,0
		L412.1,165.1z M420.4,165.3l-0.1-0.2l-0.1,0l-0.1,0.2l0.1,0.2L420.4,165.3z M504.6,175.9l0.7,0.6l0.1,0l0-0.1v-0.1l-0.2-0.2
		l-0.1-0.2l0-0.2l0-0.1l-0.2,0l-0.2,0.1L504.6,175.9l0-0.1L504.6,175.9z M472.9,201.3L472.9,201.3l0.4-0.1l0.1-0.1l0-0.2l-0.1-0.1
		l-0.2,0l-0.1,0l-0.2,0.2l0,0.1L472.9,201.3z M465.5,203.4L465.5,203.4l0.2-0.6v-0.2l-0.2-0.1l-0.3,0.1l-0.1,0.2L465,203v0.1
		l0.3,0.2L465.5,203.4z M439.8,204.3l0.2,0.1l0.1,0l0.1,0.1l0.1,0.1l0.2,0l0-0.2l-0.2-0.2l-0.3-0.1l-1.1-0.4l-0.4,0l-0.1,0v0.1
		l0.4,0.3l0.7,0.1L439.8,204.3z M560.1,231.7l0.2-0.4l0.1-0.5l0.1-0.5l-0.2-0.3l-0.5,0l-0.9,0.2l-0.7,0.5l-0.1,0.7l0,0.8l-0.4,0.8
		l0.5-0.3l1.2-0.4l0.4-0.4v0.2L560.1,231.7z M556.7,234.8l-0.5,0.2l-0.6,0.1l-0.5,0.2l-0.2,0.4l-0.1,0.5l-0.2,0.6l-0.1,0.5l0.3,0.3
		l0.2-0.1l0.8-0.4l0.1-0.2l0.2-0.5l0.1-0.2l2.1-1.9l0.4-0.3l0.4-0.1h0.5l0.3-0.1l0.2-0.2l0.2-0.4v0.2l0.1-0.2l0.1-0.2l0-0.2v-0.2
		l-1.3,0.5l-0.6,0l-0.4,0.2l-0.9,1.2L556.7,234.8z M561.2,229.7l-0.3,0.5l-0.2,1.1l-0.2,0.6l0.5-0.1l0.3-0.4l0.2-0.5l0.2-0.4
		l0.7-0.4l0.4,0l0.3,0l0.3-0.1l-0.1-0.1l-0.1-0.3l-0.1-0.1l-0.4-0.4l-0.6,0l-0.5,0.3L561.2,229.7z M556.1,246l0.5-0.3l0.3-0.6
		l-0.1-0.6l-0.2,0l-0.1,0l-0.1-0.1l-0.1,0l-0.1,0l-1.6,0.1l-0.3,0.1l-0.7,0.7l-0.1,0.1l-0.1,0.1l-0.1,0.1l-0.1,0.2l0,0l0.3,0.4
		l-0.5-0.2l-0.8-0.6l-0.5-0.2l-0.6,0.1l-0.4,0.4l-0.3,0.5l-0.3,0.5l0.9,0l2.6,0.2l2.1-0.3l0-0.2l-0.2-0.3l0-0.3L556.1,246z
		 M485.1,192.1l0.6,0l0.4-0.5l-0.2-0.6l-0.6-0.3l-0.7-0.2l-0.5-0.2l-0.3,0.1l-0.3,0.2l-0.2,0.3l0,0.3l0.2,0.2l0.3,0.1l0.6,0.1l0,0.4
		L485.1,192.1z M419.1,166.7l0.9-0.1l0.5-0.4l-0.1,0l-0.4,0l0.2-0.3v-0.3l-0.1-0.3l-0.2-0.2l-0.4,0.7l-0.5,0.4l-0.6,0.1l-0.7-0.2
		l0.6,0.4L419.1,166.7z M393.5,159.1L393.5,159.1L393.5,159.1L393.5,159.1z M393.7,159.2L393.7,159.2L393.7,159.2L393.7,159.2z
		 M393.8,159.7L393.8,159.7l0-0.1L393.8,159.7L393.8,159.7z M393.8,160.1L393.8,160.1L393.8,160.1L393.8,160.1L393.8,160.1z
		 M393.7,160.2L393.7,160.2L393.7,160.2L393.7,160.2z M393.9,161.2l0.2,0.1l0.5,0.1l0.2,0l-0.3-0.1l-0.2,0l-0.1-0.1L394,161l-0.1,0
		l-0.1,0.1L393.9,161.2z M415.7,164.1h0.2l0.4,0.1l0.3-0.1l0.1,0l0.6-0.1l-0.1-0.1l-0.4,0l-2-0.1l-0.1,0l0.7,0.1L415.7,164.1z
		 M415,167l-0.2,0L415,167L415,167z M414,167.1l0.6,0l0.3-0.1l-0.4,0.1l-0.5-0.1L414,167.1z M415.8,166.7l1.1-0.5v0l-0.2,0l-0.3,0.1
		L415,167l0.7-0.2L415.8,166.7z M479.3,189.8l-0.4,0l-0.3,0l-0.4,0.1l-0.1,0.4l0.5,0.2l0.6-0.1l0.5-0.3l-0.1-0.3L479.3,189.8
		L479.3,189.8z M516.2,202.6l0.2-0.4l0-0.5l-0.2-0.4l-0.2-0.1l-1.4-1.5l-0.6-0.8l-0.7-0.8l-0.1,0l-0.1,0.2l-0.1,0.3l0,0.2l0,0.4
		l0.1,0.4l0.5,0.5l0.7,0.4l0.7,0.6l0.4,0.4l0.2,0.2l0.4,0.4l0.1,0.2v0.3H516.2z M526.3,208.9l-0.5,0.2l-0.5,0.5l-0.3,0.7l0,0.3
		l0.2-0.1l0.4-0.1l0.4-0.1l0.3-0.2l0.3-0.2l0.1-0.4l-0.1-0.4l-0.1-0.2L526.3,208.9z M522.5,210l-0.3-0.7l-0.3-0.3l-0.2,0.1l0,0.3
		l0.2,0.8l0.2,0.4l0.3,0.2l0.3-0.1l0.1-0.4l-0.2-0.3L522.5,210z M524.2,212.1l-0.2,0l-0.1,0.3l-0.1,0.4l0,0.6l0.3,0.7l0.3,0l0.1-0.4
		l0.1-0.6l-0.1-0.6l-0.2-0.3L524.2,212.1z M475.1,186.7l0.2,0l0.6,0l0.1,0l0.1,0.1l0.1,0.1l1.8,0.2l0.5-0.1l0.7-0.6l0.4,0.3l0.6,0.3
		l0.5,0.4l0.5,0.9h0.5l0.4,0.1l-0.1,0.7l0.4-0.3l1.6-0.5l0.5-0.1l1.4,0.2l0.6-1.3l0.5-0.5l0.1-0.1l0.1-0.1l0.2,0.1l0.4,0.3l0-0.2
		l0-0.3l0-0.2l0.8,0.2l-0.1-0.7l-0.8-1.5l-0.1-0.4l-0.4-0.9l-0.1-0.5l-0.1-0.2l-0.3-0.2l-0.3-0.2l-0.1-0.4l-0.4,0.3l-0.6,0.8
		l-0.4,0.3l-0.2,0.1l-0.6,0l-0.2,0.1l-0.2,0.2l0,0.2l0,0.2l-0.1,0.3l-0.1,0.2l-0.3,0.3l-0.2,0.2l0,0.7l0,0.3l-0.3,0.5l-0.4,0.1
		l-1-0.1l-0.5-0.1l-0.9-0.6l-0.8-0.3l-0.2-0.3l0-0.4l0-0.3l-0.2-0.4l-0.5-0.1l-0.6,0.1l-0.7,0.3l-0.5-0.2l-0.3,0.1l-0.3,0.3
		l-0.2,0.1l-0.3,0l-0.6,0l-0.4,0l-0.2,0.2l-0.1,0.5l-0.1,0.3l-0.6,1.3l0.5,0L475.1,186.7z M450.1,187.7l0.4,0.1l0.5,0.2l0.5,0.1l1,0
		l0.4,0l0.5-0.2l-0.1,0.1l-0.1,0.3l0.6-0.2l0.4-0.2l0.1-0.3l-0.4-0.5l0.2-0.3l-0.1-0.1l-0.2,0l-0.2,0l-0.4,0l-0.3,0l-1.3-0.5l-0.6,0
		l-0.6,0.2l-0.5,0l-0.6,0.4l-0.2,0.6l0.6,0.5L450.1,187.7z M431.3,166.2l0.7,0l0.3-0.5l0-0.5l-0.1-0.2l-0.6,0l-0.7,0l-0.4,0
		l-0.4,0.1l0.5,0.5L431.3,166.2z M467.7,165l0.5,0.2l0.6,0.1l1.1,0l0.2-0.2l0-0.4l-0.1-0.4l-0.1-0.3l-0.8-0.6l-0.3-0.2l-0.3,0.3
		l-0.4,0.7l-0.3,0.2l0.1,0.2l0,0.1l0,0.1L467.7,165z M560.7,234.8l-0.4-0.4l-0.5-0.3l-0.6-0.1l-0.5,0.1l-0.3,0.3l0,0.2l0,0.2
		l-0.1,0.3l-0.3,0.2l-0.3,0.2l-0.2,0.2l-0.3,0.8l-0.8,1.2l-0.4,0.4l-1.4,1l0.6-0.1l3.3-1.4l1-0.8l0.6-0.6l0.3-0.7l-0.4-0.6l0.1,0
		L560.7,234.8z M584.7,250.7l-2.5-2.8l-1.5-2.2l-1.1-0.2l-0.5-0.2l-0.9-0.6l-0.9-0.4l-1-0.3l-4.2-0.3l-0.8,0.3l-0.6,1l-0.5,0.5
		l-0.3,0.6l-0.1,0.1l-0.4,0.1l-1.6-0.4l-1.5-0.1l-0.5-0.1l-0.3-0.1l-0.4-0.3l-0.3-0.3l-0.1-0.2l-0.5-0.3l-3.1,0.4l-2.4,0.3l-0.5,0.2
		l-0.5,0.1l-0.5-0.2l-0.2,0.1l-0.1,0.1v0.2l0,0.3l0,0.6l0,0.3l-0.3,0.2l-0.1,0.2l-0.1,0.3l-0.1,0.2l-0.1,0.2l-0.2,0l-0.3,0l-0.2,0
		l-0.3,0.1l-0.1,0.1l-0.1,0.4l0,0.6l-0.1,0.2l-0.2-0.1l-0.1-0.2l0-0.3l0-0.5l0.2-0.4l0.9-0.2l0.4-0.3l-0.1-0.3l-0.5,0l-1.1,0.2
		l-1.6-0.1l-0.5,0.1l-0.3,0.2l-0.4,0.3l-0.4,0.3l-0.2,0.3l-0.1,0.4l-0.3,0.3l-0.8,0.5l-0.3-0.4l-0.6-0.4l-0.3-0.3l-0.1-0.3l-0.1-0.4
		l-0.2-0.3l-0.2-0.2l-0.4,0l-0.9,0.2l-0.5,0l-0.1-0.1l-0.2-0.3l-0.1-0.1l-0.3,0l-0.1-0.1l-0.4-0.3l-0.3-0.3l0-0.1l-0.2,0l-0.4,0.1
		l-0.3,0l-0.1-0.1l-0.1-0.2l-0.1-0.2l-0.2-0.1l-0.9-0.2l-1.3-0.7l-0.2-0.3l0-0.5l0.3-0.2l0.5-0.1l0.5,0l0.9,0.6l1.1,0.2l4.3-0.3
		l0.3,0.1l1.4,0.5l1.1,0l0.6-0.5l0.3-0.9l0.1-1.2l0.3-1.1l1.3-1.9l0.4-1.1l0-0.3l-0.2-0.5l0-0.4l0.3-1l0.2-0.4l0.4-0.7l0.1-0.2
		l0.2,0l0.9-0.9l0.2-0.1l0.3-0.1l0.3-0.1l0.1-0.2l0-0.5l0.1-0.2l0.2-0.2l0.1-0.2l0.1-0.5l0.1-0.2l0.2-0.2l0.4-0.4l0.1-0.3l-0.1-0.4
		l-0.6,0.4l-2,1.8l-0.1,0.2l-0.1,0.3l-0.2,0.4l-0.3,0.3l-0.4,0.1l0.7-1.5l0.5-0.7l0.5-0.3l0.6-0.2l1.4-1.3l0.6-0.1l0,0l0.1-0.1
		l0.1-0.1l0.2-0.3l0.2-0.1l0.3-0.1l0.3-0.1l0.3,0l0.2-0.1l0.6-0.3l0.4-0.1l0.3-0.1l0.1-0.3l0-0.4l0.1-0.4l0.2,0.2l0.1,0.1l0,0.2
		l0.3-0.5l0-0.6l-0.1-0.6l-0.2-0.5l-0.1-0.1l-0.3-0.1l-0.1-0.1l0-0.2l0-0.1l-0.1-0.1l-0.4-0.4l-0.4-0.5l-0.2-0.2l-0.4-0.3l-0.5-0.3
		l-0.5-0.2l-0.4-0.1l-0.2,0l-0.2,0.1l-0.2,0l-0.2-0.2l0-0.2l0-0.8l0.1,0.2l0.1,0.1l0.2,0l-0.2-0.4l-0.4-0.3l-1-0.3l-0.9-0.5l-0.4,0
		l-0.9,0.1l-0.2-0.1l-0.4,0.3l-1.3-0.8l-0.6,0l0.4,0.5l-0.4,0.1l-0.6-0.1l-0.3-0.2l-0.2-0.1l-1.8-1l-0.3-0.3l-0.1-0.3l-0.2-0.3
		l-0.4-0.4l-0.4-0.3l-0.6-0.3l-0.3-0.5l-0.7-1.5l-0.3-0.4l-0.7-0.7l-0.8-0.6l-1.1-0.7l-1.3-0.6l-0.4,0.1l-0.1,0.1l0,0.2l0.1,0.3
		l0.2,0.2l0.1,0.1l0.1,0.1l0,0.3l0.1,0.2l0.2,0.1l0.2,0.1l0.3,0.4l0.3,0.3l0.1,0.4l-0.5,0.3l-1.7-0.4l-0.3,0l-2.4-0.9l-0.2,0l-0.3,0
		l-0.3,0l-0.1,0.1l0,0.5l0.1,0l0.2,0.8l0,0.1l0.2,0.1l0.5,0.1l0.2,0.1l0.1,0.3l0.1,0.6l0.2,0.3l0.2,0.2l0.1,0.2l0.1,0.2l0,0.3l0,1.1
		l-0.1,0.6l-0.2,0.5l-0.1-2.1l0.1-0.5l-0.3-0.4l-0.3-0.6l-0.4-0.5l-0.4,0l-0.4,1.3l-0.7,1.3h-0.2l0.1-0.5l0.5-0.9l0.3-0.7l0-0.3
		l-0.1-0.2l-0.3-0.3l-0.1-0.2l0-0.3l-0.2-0.3l-1.9-1.8l-2.8-2.2l-0.7-0.4l-1.3-0.2l-1.5-0.5l-0.6,0l-0.2,0.3l-0.2,0.4l-0.3,0.5
		l0.4,0.4l0.3,0.1l1.5,0l0.3,0.1l0.4,0.2l0.7,0.7l0,0.1l0.3,0l0.7,0.2l0.2,0.1l0.2,0.2l0,0.1h-0.2l-0.5,0l-0.8-0.2l-0.3-0.1
		l-0.2-0.3l-0.1-0.3l-0.2-0.3L529,212l-1.4-0.2l0.2,0.5l0.5,0.9l0.1,0.6l0.1,3.1l-0.2,1.1l-0.5,0.8l-0.8,0.3l0.7-0.6l0.3-1L528,214
		l-0.1-0.5l-0.9-1.7l-0.4-0.6l-0.4-0.3l0,0.9l0.4,1.6l0,0.8l-0.7,1.9l-0.5,0.8l-0.7,0.7l-0.2-0.4l0-0.4l0.1-0.4l0-0.4l-0.1-0.4
		l-1.3-2.4l-0.5-0.7l-0.3-0.3l-0.4-0.2h-0.4l0.3-0.5l0.1-0.3l-0.1-0.3l-0.3-0.5v-0.5l-0.2-0.4l-0.3-0.4l-0.2-0.4l-0.6-2l-0.5-0.8
		l-1-0.7l-0.5-0.3l-0.5-0.2l-0.4,0.2l-0.2,0.7l0.1,0.5l0.4,1.1l0,0.6l-0.3,0.5l-0.5,0.4l-0.6,0.3l-1.3,0.3l-0.3,0l-0.3-0.1l-0.4-0.4
		l-0.2-0.1l-0.5,0.2l-0.1,0.5l0.2,0.8l-0.2,0.4l-0.4,0.1l-0.2-0.2l0.3-0.6l-0.5,0l-0.3-0.2l-0.2-0.2l-0.3-0.2l-0.4,0l-0.3,0.2
		l-0.3,0.1l-0.4-0.2l-0.1-0.2l0.1-0.4l-0.1-0.2l-0.2,0l-0.1,0.2l-0.1,0.2v0.1l0.1,0.3l-0.1,0.3l0,0.3l0.3,0.4l-0.4,0l-0.2-0.5
		l-0.1-1.2l-0.1-0.2h-0.2l-0.2,0.1l-0.1,0.2l-0.2,0.1l-0.3-0.2l-0.4-0.4l-0.2-0.3l0.7,0.2l0.3,0l0.4-0.3l0.2,0.1l0.2,0.1l0.2,0.2
		l0.1,0.3l0.1-0.2l0.2-0.2l0.2-0.1h0.2l0.2,0.2l0,0.2l0,0.3l0.1,0.2l0.4,0.1l0.7-0.4l0.4,0.2l0.1,0.2l0.1,0.5l0.1,0.1l0.2,0l0.2-0.1
		l0.2-0.2l0-0.2l0.1-0.3l0.4-0.2h0.4l0.4,0.1l0.1,0.1l0.1,0.1l0.2,0.1l0.3,0l0.2,0l0.5-0.1l0.3,0l0.4-0.1l0.4-0.4l0.3-0.4l0.1-0.4
		l-0.1-0.1l-0.2-0.4l-0.1-0.4l-0.2-0.1l-0.2-0.1l-0.1-0.1l0-0.2l-0.3-0.6v-0.3l0.2-0.7l0-0.5l-0.1-0.4l-0.2-0.3l-0.3-0.3l-0.6-0.4
		l-0.2-0.2l-0.1-0.2l0-0.4l-0.1-0.2l-0.3-0.2l-0.4-0.2l-0.5-0.2l-0.4-0.1l-0.1,0.1l-0.8,0.4l-0.3,0.1l-0.2,0l-0.2,0.1l-0.2,0.2
		l-0.7-0.6l-0.4-0.2l-0.4,0l-0.3,0.2l-0.1,0.3l0.1,0.3l0.3,0.2l-0.1,0.5l0.5,1l-0.1,0.4l-0.3,0.2l-1.4,0.1l0.3-0.3l0.3-0.3l0.1-0.3
		l-0.5-0.3l0.3-0.2l0.4-0.5l0.3-0.2l-0.2-0.2l-0.1-0.3l-0.1-0.6l-0.5,0.2l-0.2,0.1l0.2-0.6l0.8-0.2l1.6,0.1l0.2,0.1l0.4,0.3l0.2,0.1
		l0.2,0l0.4-0.1l0.2,0l0.1-0.2l-0.1-0.5l-0.1-0.8l0-0.6l-0.1-0.7l-0.4-0.5l-0.9,0.1l-0.8,0.4l-1.3,1.1l-0.7,0.3v-0.2l0.4-0.2
		l0.6-0.4l0.6-0.5l0.3-0.4l0.3-0.3l0.7-0.2l5.7-0.7l1.3,0.1l1.6,0.4l0.5,0.1l0.3,0l0.4-0.1l0.2,0l0.3,0.1l0.5,0.2l0.3,0.1l0.6-0.1
		l0.5-0.1l0.5,0l0.6,0.3l0.5,0.1l0.5-0.4l1.2-1.8l0.3-0.3l0.3-0.1l1.6-0.1l2.1,0.3l0.5-0.2l1.5-0.2l0.3-0.2l0.2,0l0.2,0h0.3l0.2-0.1
		l0.3-0.2l0.1,0l0.5-0.2l0.3-0.3l0.2-0.1l0.3,0.3l0.1-0.1l-0.1-0.5l0.2-0.4l0.4-0.3l0.4-0.2l-0.5-0.1L535,192l-0.7,0.2l-0.4,0.3
		l-0.2-0.3l-0.7,0.2l-0.3-0.3l-0.6,0.4l-0.7,0.1h-1.6l-0.3,0.1l-0.7,0.4l-0.3,0.1l-0.4,0l-0.8-0.3l-1.8,0l-1.1-0.1l-1.9-0.3
		l-3.5-0.6l-2.4,0l-0.5-0.1l-0.3,0l-0.3,0l-0.6-0.3l-0.3,0l-2.6,0.9l-0.9,0.1l-1,0.4l-0.6,0.1l-0.6-0.1l-1-0.4l-0.5-0.1l-1.7,0.1
		l-0.4-0.1l-0.2,0.2l-0.2,0.1l-0.3,0h-0.3l-0.3-0.1l-0.1-0.2l-0.1-0.2l-0.1-0.1l-0.2,0.1l-1.7,1.2l-0.3,0.1l-0.2-0.1l-0.3-0.1
		l-0.2,0.1l-0.1,0.2l0,0.1l-0.4-0.1l-0.4-0.2l-0.3,0l-0.2,0.3l-0.5-0.2l0.1-0.1l-0.1-0.2l-0.2,0.1l-0.2,0l-0.1-0.1l-0.2-0.2
		l-0.1,0.2l-0.1,0.5l-0.1,0.1l-0.3-0.1l-0.3-0.1l-0.2,0l-0.1,0.3H497l-0.4-0.2L496,194l-1,0.7l-0.5,0l-2.4-0.3l-2.5-0.6l-0.6-0.2
		l-0.5-0.4l-0.3-0.6H488l-0.1,0.5l-0.2,0.4l-0.2,0.4l-0.3,0.3l-0.4,0.1l-1,0.2l-0.4,0.2l-0.5-0.2l-2.3,0l-0.1-0.1l-0.1-0.1l-0.1-0.1
		l-0.1,0l-0.3,0l-0.2,0.1l-1.4,0.7l-0.3,0l-0.3-0.1l-0.7-0.3l-0.3-0.1l-1.1-0.2l-0.3-0.2l-0.2-0.4h-0.2v0.3l-0.1,0.2l-0.2,0.2
		l-0.2,0.1l-0.1,0.4l0.3,0.5l0.4,0.5l0.2,0.5v0.3l0.1,0.4l0.2,0.3l0.4,0.1l0.2-0.1l0.2-0.6l0.2-0.1l0.2-0.1l0.7-0.4l0.3-0.1l1.7,0.1
		l0.3-0.1l0.2-0.1l0.2-0.2l0.3-0.1l0.4,0l-0.2,0.4l-0.1,0.1l1.3-0.3l0.7,0l0.5,0.2l0.6,0.3l0.6,0.1l1.3,0l0.6,0.2l1.3,0.6l0.4,0.3
		l0.6,0.3l0.6,0.1l0.6,0l0.6,0.1l-0.7,0.4l-3.3,0.8l-1.1,0l-0.5-0.1l-1-0.3l-0.5,0l-1.5,0.3l-0.6,0l-0.6,0l-0.5-0.1l-1.1-0.5
		l-0.3-0.1l-0.4-0.1l-0.5,0l-0.6,0.1l-0.2,0.2l-0.1,0.3l-0.2,0.4l-0.9,0.5l-1.3,0.3l-1,0.4l0,0.7l-0.2,0.4l-0.2,0.3l-0.2,0l-0.1-0.4
		v-0.4l-0.1-0.3l-0.3-0.1l-0.5,0.2v0.2h0.5l0,0.2l0,0.1l0.1,0.3l-0.4,0.1l-0.5,0.3l-0.3,0.1l-0.3-0.1l-0.3-0.1l-0.3,0l-0.2,0.2
		l0.4,0.2l0.5,0.2l0.6,0l0.7-0.3l0.1,0.2v0.2l-0.2,0.1L474,203l-0.5,0.2l-0.8,0.2l-0.7,0.7l-0.5,0.2l-0.2,0l-0.5-0.2l-0.3-0.1
		l-0.2,0.1l-0.2,0.2l-0.1,0l-0.2-0.3l-0.1,0.1l-0.2,0l-0.1,0l0.1-0.1l0-0.1l0.1-0.2l-0.4,0l-0.7,0.3l-0.4,0.1l-0.6,0.8l-0.3,0.2
		l0.3,0.3l-0.2,0.2l-0.4,0l-0.3-0.3l0.2,0l0.1,0l0.2-0.3l-0.3,0l-0.3,0l-0.2-0.1l-0.2-0.2l-0.1,0.3l0.1,0.6v0.4l-0.3,0.9l-0.2,0.4
		l-0.3,0.3l-0.7,0.4l-0.9,0.1l-1.8-0.1l-1.3-0.3l-0.5,0.1l-0.4,0.2l-0.9,0.5l-0.7,0.2l-0.4,0.2l-0.2,0.1l-0.3,0l-1.1-0.1l-0.5-0.2
		l-0.4-0.3l-0.2-0.4l0.5,0.1l1.9,0.6v-0.2l-0.3-0.1l-0.9-0.2l-1-0.5l-3.4-0.6l-3.6-0.7l-3-0.9l-7-3.1l0.5,0.7l2.4,1l0.7,0.5l-1.4,0
		l-0.7-0.1l-0.6-0.2l-1.1-1l-0.6-0.4l-0.6,0.1l-0.5-0.7l0.2-0.2l0.2-0.1l0.2,0.2l0.3,0.1l0.3,0.1h0.3l-1.7-1l-0.4-0.7l-0.8-0.5
		l-0.2-0.2l-1.9-1.4l-0.7-0.8l-0.1-0.2l0-0.6l0-0.3l0.5,0.1l0.6-0.2l0.6-0.3l0.2-0.3l-0.3-0.1l-1.1-0.1l-0.5-0.4l-1.6-0.4l-1.5-0.8
		l-0.6-0.1l-0.5,0.1l-0.3,0.3l-0.3,0.3l-0.3,0.2h-0.4l-1.3-0.2l-0.3-0.2l-0.3-0.1l-2.8,0l-5.7,0.3l-2.7,0.2l-3.1,0l-0.5,0.1l-1,0.4
		l-1,0.2l-1.4,0.7l-1.8,0.2l-2-0.1l-3.7,0.4l-2,0.1l-2.1,0.5l-3.2,0.2l-1,0.2l-0.7,0.3l-0.1,0.1l-0.2,0.3l-0.2,0.2l-0.1-0.1l0-0.3
		l-0.1-0.2l-0.2-0.1l-0.3,0l-0.4,0.1l-0.4,0.2l-0.4,0.1l-0.6-0.2l-0.6-0.3l-0.4-0.1l-3,0l-1-0.4l-0.9-0.8l-0.8-1l-1.1-2l-0.8-2.2
		l-0.3-1.5l0-0.6l0.1-0.5l0.4-0.2h1.1l0.4-0.2l0.3-0.5l-0.6-0.4l-2-0.2l-0.8-0.2l0.2-0.1l0.2-0.2l0.3-0.1l0.3-0.1l0.4,0.1l0.3,0.2
		l0.3,0.2l0.2,0.1l0.2-0.3l-0.2-0.7l-1.5-2.9l-1-1.4l-0.2-0.6l0.2-0.5v-0.1l-0.3-0.4l-0.1-0.2h-0.2l0,0.2l0,0.1l-0.1,0.3l-1.6-0.7
		l-0.2-0.3l-0.2-0.4l-0.4-0.4l-0.6-0.4l-1.8-0.9l-0.6-0.5l-0.3-0.5l-0.1-0.2l-0.6-0.3l-0.1-0.1l-0.1,0.1l-0.3,0l-0.4-0.1l-0.8-0.3
		L367,176l-0.5-0.4l-0.8-0.9l-0.4-0.3l-0.5-0.1l-3.8,0.2l-1-0.2l-0.3-0.1l-0.4-0.2l-0.3-0.3l-0.1-0.3l-0.3,0l-1.6-0.6l-0.3,0l-0.8,0
		l-0.3-0.1l-0.5-0.4l-0.2-0.1l-0.5,0.1l-0.4,0.2l-0.7,0.4l-1,0.4l-0.9,0l-2.1-0.3l-0.9,0.3l-0.6,0.5l-0.6,0.4l-0.9-0.1l-1-0.7
		l-0.8-1.1l-1.1-2.3l-1.5-4.2l-0.2-1.1l0-2.1l-0.1-1.1l-0.3-1l-2.2-3.6l-0.5-0.4l-1.1-0.3L337,156l-0.4-0.1l-0.6,0.1l-0.6,0.3
		l-1.5,1.3l-0.4,0.3l-0.4,0.1l-1.1,0l-0.1,0.2l0,0.7l-0.1,0.4l-0.3,0.4l-0.8,0.9l-0.1,0.4l-0.1,0.5l-0.5,0.8l-0.1,0.4l0,0.4
		l-0.2,0.9l-0.1,0.3l0.3,0l0.2,0.1l0.1,0.2l0,0.5l0.1,0.1l0.1,0.1l0.1,0.1l0.5,0.9l0.1,0.4l0.2-0.2l0.1-0.3l0.1-0.2l0.3,0.1l0.1,0.2
		l0,0.3l0,0.7l-0.1-0.1l-0.4-0.2l-0.1-0.1l0.1,0.1l0.2,0.3l0,0v0.7l0,0.1l0.1,0.1l0.1,0.1l0,0.2l-0.1,0.2l-0.3,0.3l-0.1,0.2l0.1,0.6
		l0.4,0.5l0.6,0.2l1.2-0.6l1.6-0.1l0.5-0.3l0.3-0.2l0.4-0.1l0.7,0l0.3-0.1l1-0.4l-0.1,0.4l0.5,0l1.2-0.4l0.1-0.1l0.1-0.2l0.2-0.2
		l0.3-0.1l0.2,0.1l0.2,0.3l0.2,0.1l0.1-0.5h0.1l0.6,1.2l0.1,0.7l0.4,1.2l0.2,0.3l-0.1,0.5l0.5,0.9l-0.1,0.6L343,174l-0.7,0.4
		l-0.1,0.4l-0.5,0.3l-1,0l-1-0.3l-0.5-0.5l-0.2-0.2l-0.8-0.5l-0.3-0.1l-0.1-0.1l-0.1-0.4l-0.1-0.1l-0.2-0.1l-0.1,0l-0.1,0.1l-0.2,0
		l-0.6-0.1l-0.3,0l-0.1-0.1l-0.4-0.4l-0.6-0.2l-0.8-0.6l-0.5-0.1l0.2,0.3l0.3,0.3l0.3,0.2l0.4,0.1v0.2h-0.3l-0.2,0.1l-0.1,0.1
		l0.1,0.1l0.6,0l1.4,0.4l0.4,0.2l0.3,0.3l-0.3,0l-0.1,0l-0.2-0.1l-0.1,0.2l0,0.1l0,0.1l0.2,0.1l0.1,0.1l0,0.2l0,0.2l-0.1,0.2h-0.1
		l-0.2-0.2l-0.2-0.1l-0.3-0.1l-0.2,0l-0.1,0.3l-0.1,0.2l-0.3-0.1l-0.3-0.3l-0.1-0.4l-0.1-0.2l-0.3-0.1l-0.3,0l-0.2,0.2l0.3,0
		l0.2,0.1l0,0.2l-0.2,0.3l0,0.5l-0.3,0.7l-0.5,0.6l-0.6,0.3l-1.4,0l-0.7,0.2l-0.9,0.6l-2.1,0.8l-0.4,0.1l-1.5,0l-0.6,0.2l0.1,0.6
		l0.1-0.2l0.1-0.2l0.2-0.2l0.2-0.1L325,179l-0.4,0.3l-2.8,0.4h-0.8l-0.5-0.2l-0.7,0.3l-3.8,1l-4.7,2.6l-1.4,0.5l-0.2,0.2l-1.1,0.6
		l-2.9,1.2l-1,0.1l-2,0l-1,0.1l-1,0.4l0.3,0.1l0.5,0.5l0.2,0.2l0.3,0.1l0.2,0l0.6,0l-0.2,0.4l-0.6,0.4l-0.2,0.4l0.1,0.4l0.2,0.4
		l0.1,0.5l-0.3,0.6l-0.8-0.3l-0.8-0.1l-1.8,0.1v0.1l0.2,0.1l0.2,0.2l0.3,0.4l0.4,0.4l0.2,0.2l0.1,0.3v0.4l-0.1,0.6l-0.1,0.3l0.1,0.2
		l0.7,1.1l0.1,0.1l-0.1,0l-0.8,0.7l-0.1,0.2l0,0.6l0.4,0.5l1.1,0.7l0.4,0.3l0.1,0.3l-0.1,1.3l-0.1,0.4l0,0.2l0.1,0.3l0.1,0.2
		l0.3,0.3l0.5,0.6l0.2,0.4l0.2,0.7l0.5,0.6l0.2,0.3l0.3,1l0.2,0.4l0.9,0.3l0.6,0.4l0.9,1l0.5,0.9l0.4,1.1l0.5,2.2l0.6-0.1l0.5,0.4
		l1.3,1.6l0.5,0.7l0.4,0.5l0.1,0.2l-0.1,0.2l-0.2,0.1l-0.3,0l0.1,0.6l0.4,0.5l0.4,0.4l0.3,0.4l0.1,0.4l0,0.1l-0.1,0.2l-0.1,0.1
		l-0.1,0.2v1.2l-0.4,1.7v0.3l-0.5,0.7l-0.1,0.2l0,0.3l0.1,0.2l0.1,0.3l0.1,0.5l0.1,2l0.4,1.4v0.5l-0.1,0.4l-0.2,0.3l-0.3,0.1l-0.2,0
		l-0.2,0.1l-0.2,0.1l-0.2,0.1l-0.6,0.1l-0.2,0.1l-0.2,0.3l-0.6,0.8l-0.5,0.4l-0.3,1.3l-0.5,0.6l-0.8,0.5l-2.4,1l-3.5,1.1l-1,0.2
		l-1.1,0l-1.1-0.2l-1-0.3l-0.5-0.4l-0.2-0.2l0-0.1l0.1-0.1l-0.2-0.2l-0.3-0.1l-0.1,0l-0.1-0.1l-0.2-0.1l-0.2-0.1l-0.1-0.3l0.1-0.2
		l0.6-0.6l-0.4-0.6l0-0.3l0.4,0l-0.4-0.3l0-0.3l0.1-0.3l-0.2-0.2l-0.1,0.2l-0.1,0.1l-0.1,0.1l-0.2,0.1l-0.2-0.3l-0.3,0.2l-0.3,0.2
		l-0.2-0.2l0.9-0.9l0.5-0.4l0.2,0.2l0.2-0.4l0.1-0.4l0-0.4l-0.3-0.3v-0.2l0.4,0l0.1-0.1l-0.1-0.2l-0.2-0.2l0.1-0.1l0.1-0.4l-0.6,0.5
		l-0.6-0.4l-0.6-0.7l-0.6-0.4H291l-0.1,0.2l-0.3,0.8l-0.2-0.7l0.3-0.5l0.6-0.2l0.7,0.1l-0.2-0.3l-0.2-0.1l-0.2-0.1l-0.3-0.2
		l-0.6-0.7l-0.3-0.2v0.5h-0.2l-0.2-0.5l-0.5,0.2l-0.5,0.5l-0.4,0.3l-0.4-0.6l-0.2-0.5l0.1-0.4l0.3,0.3l0.4,0.3l0.4,0l0.2-0.5
		l-0.1-0.5l-0.3-0.4l-0.4-0.3l-0.4-0.2l0.1-0.1l0.1-0.1l0.1-0.1l0.2,0l-0.1-0.2l0-0.1l-0.1-0.1l0.2-0.2l0.2,0.5l0.1,0.5l0.2,0.5
		l0.4,0.3l-1.3-2.8l-0.6-0.8l-1.7-1.7l-0.3-0.4l-0.5-1l-0.1-0.3l0.4-0.7l1.6-1.8l0.5-1.4l0.6-1l0.2-1l0.2-0.5l0.3-0.4l0.4-0.3l1-0.3
		l0.4-0.3l0.1-0.6l1.3-1.8l1.4-2.6l0.6-0.7l0.6-0.5l0.4-0.2l0.4-0.1l0.1-0.1l0.5-0.6l0.7-0.2l0.2-0.1l0.2-0.2l0-0.1l0-0.1l0-1.3
		l0.1-0.5l0.3-0.6l0.2-0.5l-0.1-0.4l0.1-0.3l0-0.3l0-0.3l-0.1-0.2l0.4-0.5l0.2-1l0.3-0.6l-1-0.5l-0.8-0.7l-0.6-0.8l-0.5-0.8l-0.4-1
		l-0.2-1l0-0.3l0.1-0.3l0-0.3l-0.2-0.3l-0.9-0.8l-0.2-0.3l0.3-0.2l0.2-0.1l0.1-0.1l0.1-0.1l0.2,0l0.3,0.1l0.7,0.1l0.4,0.2l0.2,0.3
		l-0.1,0.4l1.1-0.3l0.2-0.1l0-0.4l-0.3-0.3l-0.4-0.3l-2.8-1.6l-0.7-0.6l-1.5-2.1l-2-4.1l-0.7-3.2l0-1.1l0.3-0.9l0.3-0.3l0.5-0.3
		l0.6-0.2l1-0.2l4.6-1.4l4.1-0.6l1-0.3l1.4-0.7l0.5-0.1l0.2-0.1l0.1-0.2l0-0.2l0.1-0.2l0.2-0.1l0.7-0.1l-0.2-0.4l0.1-0.5l0.3-0.6
		l-0.8,0l-0.4,0.2l-0.8,0.7l-1,0.4l-0.7,0.2l-1.4,0.4l-1.4,0.4l-1.4,0.4l-1.4,0.4l-1.4,0.4l-1.4,0.4l-1.4,0.4l-1.4,0.4l-0.6,0.2
		l-0.5,0.3l-0.4,0.6l-0.3,0.5l-0.7,1.3l-0.7,1.4l-0.7,1.3l-0.7,1.4l-0.7,1.3l-0.7,1.3l-0.7,1.4l-0.7,1.3l-0.3,0.3l-0.4,0.1l-0.9-0.2
		l-0.5,0l-0.5,0.1l-1.3,0.5l-1.1,0l-0.5,0.1l-0.4,0.3l-0.1,0.2l0,0.5l-0.1,0.3l-0.2,0.3l-0.5,0.5l-0.2,0.3l-0.8,2.1l-0.5,0.6
		l-0.4,0.4l-1.1,0.7l-0.6,0.7l-0.6,1.1l-1.2,3.4l-0.7,1.1l-1.5,1.7l-0.5,1.3l-0.3,0.5l-0.4,0.4l-0.4,0.5l-0.2,0.5l0,0.5l0,0.5
		l-0.5,5.4l-1.3,4.3v0.9l-0.2,1l0,0.5l0.1,0.6l0.2,0.5l0.1,0.5l-0.2,0.6l-0.8,1.6l-1.3,2.1l-0.6,1.7l-0.3,0.4l-0.4,0.4l-1,0.6
		l-0.4,0.3l-0.5,1.1l-2,2.9l-0.8,2.1l-0.3,0.5l-0.4,0.4l-0.9,0.6l-0.3,0.5v0.5l0.3,0.2l3-0.1l1-0.1l0.9-0.4l0.8-0.8l0.4-0.3l0.6-0.2
		l0.6-0.3l1.1-1l0.6,0l0.2,0.2l0.3,0.9v0.1l-0.1,0.2v0.1l0.1,0.1l0.2,0.2l0.1,0.1l0.1,0.6l-0.1,1l0.1,0.5l0.4,0.6l0.5,0.1l0.5-0.2
		l0.8-0.6l0.2-0.1l0.3-0.1l0.3,0l0.2,0.1h0.2l0.2-0.2l0.5,0.4l0.4,0.2l0.1,0.3l-0.4,0.6l0.4,0.5l0.1,0.5l0.3,1.1l0.3,1.1l0.3,1.1
		l0.3,1.1l0.3,1.1l0.3,1.1l0.3,1.1l0.3,1.1l0.2,1l0.5,0.8l0.4,0.5l0.5,0.5l0.5,0.5l0.5,0.5l0.5,0.5l0.5,0.5l0.5,0.5l0.5,0.5l0.5,0.5
		l0.6,0.6l0.3,0.2l0.3,0.1l0.2,0.1l0.3,0.1l0.3,0.3l0.2,0.4l0.2,0.4l0.1,0.4l0,0.4l-0.2,0.8l0,0.4l0.1,0.5l0.8,1.5l0.5,1.7l0,1
		l-0.4,0.6h-0.4l-0.5-0.1l-0.5,0.1l-0.3,0.4l-0.1,0.5l-0.2,0.4l-0.3,0.3l-0.4,0.3l-0.3,0.1l-0.3,0.1l-0.2,0.1l-0.1,0.3l0.1,0.2
		l0.5,0.6l0.2,0.3l0.1,0.4l0.1,1.1l-0.1,0.4l-0.5,1.5l-0.2,2.6l0.1,0.5l0.3,0.9l0.1,0.5l-0.1,0.5l-0.2,0.5l-0.2,0.5l0.1,0.6l0.7,1.1
		l0.9,0.7l1.1,0.4l1.2,0.2l2,0l0.8,0.2l0.8,1.1l0.1,0.1l0.1,0.1l-0.2,1l0,0.2l0.1,0.7l0.2,0.7l0.3,0.7l1.3,2.6l0.4,0.5l0.3,0.2
		l0.7,0.3l0.3,0.2l0.6,0.5l0.3,0.2l2.8,0.6l0.8,0.1l0.4-0.1l0.3-0.2l0.2-0.2l0.3-0.2l0.3,0l0.3,0l0.1-0.1l-0.1-0.4h0.7l0.6-0.1
		l0.6,0l0.7,0.2l-0.1-0.4l0.1-0.2l0.3,0l0.8,0l0.2,0.1l0.1,0.2l0.3,0.2l0.2,0l0.2-0.1l0.3-0.2l0.2,0l0.1,0.1l0.1,0.1l0,0.1l0,0
		l0.5,0l0,0l0,0l0.4-0.1l0.5,0.1l0.5,0.4l0.3-0.1l0.7-0.3l0.4-0.1l0.4,0l0.8,0.2l0.4,0l1-0.2l0.4,0l0.2,0.2l0,0.3l0,0.3l0.1,0.3
		l0.3,0.1l1.2,0l0.3,0.1l0.2,0.2l0.2,0.1l0.4-0.1l0.3-0.2l0.2-0.2l0.2-0.1l1.7,0.2l1.3-0.1l1.2-0.5l1-0.7l0.3-0.3l0.1-0.2l0.2-0.1
		l0.5,0l0.9-0.3l1.1-0.1l1.5-0.4l0.7,0l0.2,0.1l0.3,0.3l0.2,0.1l0.8,0.2l0.4,0l0.7-0.2l0.4-0.1l0.2,0.2l1.2,1.6l0.3,0.1l0.4,0.1h0.3
		l0.6-0.1l0.2,0l0.1,0.1l0.1,0.2l0.1,0.1l0.4,0.1l2.5,1.2l0.8,0l1.4-0.8l0.9-0.2l0.9,0l0.7,0.2l0.8,0.7l0.4,0.5l1.9,2.3l1.9,2.3
		l1.9,2.3l1.8,2.3l1.9,2.3l1.9,2.3l1.9,2.3l1.8,2.3l0.7,0.9h0.3l0.6-0.2l1.2-0.5l0.7-0.1l0.5,0.3l1,1.2l0.5,0.4l1.4-0.8l1.5-1.4
		l0.5-0.3l0.7-0.6l0.5-0.2l0.6,0l0.5,0.1l0.9,0.4l0.4-0.1l0.5,0.1l0.6,0.2l0.5,0.1l1.6-0.1l0.5,0.1l1.6,0.5l0.5,0.1l0.5,0.1l1,0.5
		l0.6,0.1l0.3-0.1l0.6-0.6l0.3-0.1l1.5-0.1l1.8-0.5l0.5,0l0.5,0.1l1.6,0.4h0.9l2.8-1l1.1-0.1l3.1,0.3l1-0.1l0.8-0.3l0.2,0l0.2-0.1
		l0.2-0.2l0.1-0.3l0.1-0.3l0.1-0.3l0.3-0.1l0.3,0l0.3,0l0.3-0.2l0.5-0.5l0.3-0.1l0.2,0l0.4,0.1l1.7,0.1l3.8,0.9l0.7,0.4l0.6,0.6
		l0.7,0.5l1,0.1l-0.6,0.5l-0.3,0.3l-0.1,0.3l0,0.9l0.9,1.4l0.6,0.4l0.2,0.5l0.1,0.6l-0.1,0.4l-0.3,0.2l-0.9,0.4l-0.3,0.2l-1.2,1.3
		l-0.2,0.4l-1.5,1.4l-0.6,0.9l-0.4,1l-0.2,1v1.1l0.3,1.4l0,0.5l0.1,0.1l0.4,0.4l0.1,0.1l-0.1,0.3l-0.1,0.2l-0.2,0.2l-0.2,0.2
		l-0.3,0.9l-0.1,0.1l-0.3,0.1l-0.3,0.2l-0.5,0.5l-0.2,0.1l-0.7,0.3l-0.1,0.1l-0.2,0.3l-0.1,0.1l-0.1,0l-0.3,0l-0.1,0l-0.9,0.8
		l-0.6,1l-0.2,1l0.2,0.9l0.2,0.4l0.2,0.4l0.1,0.4l0,0.6l0,0.2l-0.2,0.6l-0.1,0.3l0,0.3l0,0.2l0,0.2l0.1,0.2l0.1,0.2l0.4,0.5l0.1,0.2
		l-0.1,0.3l-0.1,0.2l-0.1,0.1l-0.1,0.1l0,1.1l0,0.5l-0.3,1l-0.2,0.9l0,0.6l0,0.2l0.2,0.4l0.1,0.2v0.3l-0.1,0.2l0,0.1l0.1,0.2
		l-0.2,0.5l-0.1,1.1l-0.2,0.4l-0.3,0.4l-0.1,0.5l-0.1,1.3l-0.1,0.6l0,0.8l0,0.2l-0.1,0.2l-0.2,0.1l-0.1,0.2l0,0.3l0.1,0.3l0.2,0.2
		l0.2,0.2l0.2,0.1v-0.2l0.5,0.3l0.2,0.3l0.2,0.8l0.1,0.1l0.3,0.1l0.1,0.1v0.2l-0.1,0.3l0,0.2l0.1,0.3l0.3,0.5l0.1,0.3l-0.1,0.3
		l-0.4,0.8l-0.1,0.9l0.1,0.8l0.2,0.8l0.1,0.8l0.2,0.5l0.5,0.4l0.5,0.5l0.2,0.8l0.3,0.3l0.2,0.4l-0.1,0.4l0.2,0.1l0.2,0.6l0.1,1.5
		l0.1,0.5l1,1.7l0.2,0.6l0.1,1.2l0.2,0.6l0.4,0.5l0.5,0.2h0.4l0.5-0.1l0.5,0l0.9,0.4l0.7,0.9l1.7,4.3l0.3,0.5l0.4,0.2l0.9,0.4
		l0.8,0.8l-0.1,1l-0.6,1l-1.5,1.8l-0.3,0.2l-0.3,0.1l-0.5,0.1l-0.3,0.1l-0.5,0.4l-1,1l-1.1,1l-1.1,1l-1,1l-1.1,1l-1,1l-1,1l-1.1,1
		l-0.6,0.6l-0.4,0.7l0,1.7l0.4-0.3l0.2-0.3l0.2-0.3l0.5-0.1l0.5,0l0.3,0l0.5-0.2l0.2,0.1l0.3,0.3l1,0.5l0.6,0.1l0.5-0.2l0.5-0.1
		l0.5,0.4l0.3,0.5l0.2,0.4l0.1,1.1l0.1,0.5l0.3,0.2l1.1,0l0.5,0.1l0.4,0.3l0.1,0.2l0.1,0.5l0.1,0.2l0.2,0.2l0.5,0.3l0.1,0.2l0.1,0.2
		l0.4,0.5l0.1,0.1l0.3,0.1l0.2,0.2l0.1,0.3l0.1,0.3l0.2,0.2l0.6,0.3l0.2,0.2l0.1,0.2l0.1,0.3l0.1,0.3l0.2,0.1l0.3,0.1l0.3,0.2
		l0.5,0.5l0.2,0.1l0.9,0.3l0.8,0.5l0.2,0.2l0.1,0.2l0,0.5l0.1,0.2l0.1,0.5l-0.3,0.5l-0.5,0.4l-0.3,0.3l0,0.5l0.4,0.9l0.2,0.8l0.4,1
		l0.2,0.3l0.4,0.2l0.4,0.1l0.4,0.2l0.2,0.4l0.1,1.3l-0.1,0.4l-0.1,0.2l-0.4,0.5l0.1,0.3l0.2,0.2l0.2,0.2l0.2,0.3l0.5,0.3l0.1,0.2
		l0.1,0.3l0.4,0.8l2.1,5.5l0.1,0.5v1.1l0.1,0.5l0.2,0.5l0.5,0.9l0.2,0.5l0.1,0.5l-0.2,1l0.1,0.3l0.2,0.3l0.3,0.2l0.2,0.3l0.3,0.5
		l0.2,0.6l0,0.6l-0.5,0.9l0.1,0.6l0.5,1l11.4,10.2l1.5,1l1.5,0.3l1.4-0.4l0.5,0l0.5,0.2l0.4,0.3l0.4,0.2l0.5,0l0.6-0.2l0.8-0.9
		l0.5-0.2l1.1-0.1l0.5-0.1l0.5-0.3l0.5-0.5l0.9-1.1l0.5-0.5l0.5-0.3l2.1-1l1-0.6l0.6-0.2l0.5-0.1l1.8,0.1l0.5-0.1l0.3,0l0.3,0.1
		l0.3,0.2l0.3,0.3l0.6,0.7l0.3,0.5l0.2,0.5l0,0.6l-0.4,1.1l-0.7,0.9l-0.6,0.9l0.1,1.2l0.3,0.5l0.3,0.3l0.4,0.2l0.6,0l0.5-0.2
		l0.6-0.3l0.5-0.4l0.4-0.7l0.5-0.5l0.1-0.3l0-0.7l0-0.2l0.2-0.6l0.3-0.5l1.5-1.8l0.4-0.2l0.6,0l1,0.2l0.5,0l0.5-0.2l0.6-0.8l0.2-1
		l0.2-2l0.6-1.1l0.9-0.2l1,0.1l0.9-0.2l0-0.1l0-0.3l0.1-0.1l0.1-0.1l0.2-0.1l0.1-0.1l0.8-0.7l0.3-0.1l0.6-0.1l0.4,0l0.4-0.1l0.5-0.4
		l0.5-0.6l0.4-0.3h0.4l1.2,0.6l0.5,0.1l0.5-0.1l3.1-2l0.3-0.5l0.5-1.1l0.5-0.6l0.6-0.4l1.3-0.7l1-0.8l0.6-0.3l0.5-0.1l0.5,0.3l0,0.5
		l-0.5,1l-0.1,0.4l-0.1,0.6l0.1,0.6l0.5,0.3l0.4-0.2l0.3-0.4l0.5-1l0.5-0.5l1.7-1.2l1.3-1.3l1.2-0.7l0.5-0.5l0.4-0.6l0.3-0.6
		l0.1-0.4l0.1-0.5l-0.1-1.5l0.4-1.5l0.2-2.1l0.4-0.8l1-0.8l0.9-0.3l0.9-0.1l2.9,0l0.5-0.1l0.5-0.3l3.5-2.8l1.3-0.6l0.3-0.1l0.7,0.1
		h0.3l1.6-0.3l0.8-0.3l0.2-0.5l0-0.4l0.1-0.4l0.7-1.5l0-0.4l0-1.6l0-0.4l0.2-0.8l-0.1-0.3l-0.5-0.2l-3.1-0.1l-1.5-0.2l-3.2-0.1
		l-1.5,0.2l-1.6,0l-2.9-0.8l-1.4-0.2l-0.5,0.1l-0.4-0.2l-0.2-0.4l0-0.5l0.2-0.6l0.9-1.7l0.1-0.5l0.1-1.4l0.2-0.6V388l-0.1-0.3
		l-0.3-0.4l-0.4-1.3l-1.9-3.6l-0.8-1l-0.9-1.6l-0.8-0.9l-0.4-0.8l-0.1-1l0.2-2.1l-0.1-1l-0.6-3.1l0.1-0.6l0.3-0.4l0.7-0.9l0.2-0.4
		l0.1-0.4v-0.9l-0.2-0.6l-0.5-0.5l-1.1-0.9l-1.4-1.7l-0.6-0.3l-1.2-0.4l-1-0.6l-2.4-1.8l-1.1-1.5l-0.5-0.5l-1.2-0.9l-0.5-0.6
		l-1.1-2.1l-0.3-1l-0.2-0.4l-0.4-0.4l-0.5-0.3l-0.5-0.2l-0.4-0.3l-0.3-0.5l-0.1-0.5l0.1-0.5l0.2-0.5l0.3-0.3l1.1-0.1l1.1,0.6l1,0.9
		l0.6,0.9l0.4,1.1l0.3,0.5l0.4,0.2l5.5-0.8l3,0.2l1.7,0.5l0.6,0.3l0.5,0.5l0.4,0.7l0.3,0.8l0.4,1.7l0.4,1l0.6,0.7l1,0l1-0.5l1-0.7
		l1-0.5l1.1,0l1,0.4l0.5,0.1l0.6,0l1.4-0.3l0.5-0.1l1.2,0.3l1.7,1.5l1.1,0.5l1-0.3l0.3-0.8l0.2-1l0.6-0.7l0.8-0.1l1,0.3l1.6,0.9
		l0.8,0.8l1.4,1.9l1.5,1.1l2.6,3l0.4,0.5l0.3,0.4l0.5,0.4l0.6,0.3l0.5,0.2l0.6,0.1l0.5,0l0.4-0.1l0.5-0.3l0.5-0.4l0.2-0.1l0.4,0.1
		l0.3,0l0.2-0.2l0.4-0.5l0.5-0.9l0.2-1l0-1l-0.2-1l-0.4-0.9l-0.1-0.6l-0.1-0.2l-0.1-0.2l-0.1-0.3l-0.1-0.6l0.2-0.5l0.2-0.5l0.2-0.6
		l0-0.5l-0.1-0.4l0.1-0.4l0.5-0.3l0.4-0.1l1.4-0.1l2,0.3l0.7-0.2l0.3-1l0-0.5l0-0.4l0.2-0.3l0.5-0.2l0.8-0.1l0.2-0.1l0.1-0.2
		l0.1-0.4l0.1-0.1l0.8-0.2l1.1,0.2l4.7,1.9l0.9,0.1l1-0.4l1.8-1.3l1.1-0.2l0.5,0.2l0.4,0.2l0.5,0.1h0.6l0.5-0.1l0.5-0.2l0.5-0.2
		l0.4-0.3l1.3-1.4l0.6-0.3l0.5-0.1l0.5-0.1l0.9,0.1l0.8,0.2l0.2,0l0.3,0l0.5-0.2l0.3-0.1l0.3,0l0.2,0.1l0.2,0l0.4-0.1l0.2-0.2
		l0.2-0.3l0.2-0.3l0.1-0.3l0.1-1.9l0.4-0.7l1.1-0.4l0.5,0l1.4,0.1l0.5,0l0.6-0.1l0.6-0.2l0.4-0.4l-0.1-0.5l-0.7-1l0.2-0.3l0.4-0.1
		l1.5,0.2l0.4,0.1l0.8,0.4l0.4,0.1l0.4,0l1.3-0.4l2-0.3l0.8-0.4l0.7-0.9l0.2-0.5l0.2-1.1l0.7-1.5l0.2-0.2l0.2-0.1h0.5l0.2,0l2.4-1
		l1.1-0.7l0.9-0.8l1.6-2l0.5-1.2l-0.2-1.2l-1.6-4.2l-0.5-0.4l-0.6-0.2l-0.7-0.1l-1.8-2l-1.9-2l-1.8-2l-1.8-2l-1.8-2l-1.9-2l-1.9-2
		l-1.8-2l-0.8-0.9l-0.4-1l0.3-0.3l0.8-0.4l0.4-0.3l1.1-1.8l0.3-0.8l0.2-0.3l0.3-0.2l0.8-0.1l0.4-0.1l0.3-0.2l0.2-0.3l0.3-0.6
		l0.3-0.3l0.3,0l0.4,0l0.3-0.1l0.1-0.4v-0.3l0.1-0.9l-0.1-0.2l-0.1-0.1l-0.1,0l-0.1-0.2l-0.1-0.2l-0.4-0.3l-0.1-0.2l-0.2-0.7l0-0.3
		l0.1-1.2l0.1-0.3l0.2-0.3l0.1-0.2v-0.2l0-0.2l-0.1-0.2l-0.3-0.4l-0.2-0.7l-0.2-0.4l-0.4-0.3l-0.3-0.2l-0.2-0.2l-0.1-0.5l0.2-0.8
		l0.4-0.9l0.5-0.9l0.8-0.9l0.2-0.3l0.5-0.1l0.5,0l0.5,0.1l0.2-0.4l0.5,0.1l0.5,0.1l0.4-0.3l1.1,0.1l0.5-0.1l0.1-0.1l0.7-0.7l0-0.1
		l0-0.2l-0.1-0.2l-0.2-0.3l-0.1-0.3l0.1-0.1l0.3,0l0.6,0.1l0.2,0.1l0.2,0.2l0.2,0.2l0.3,0.1l0.2,0l0.6-0.1l0.3,0l0.5,0.1l0.9,0.6
		l0.4,0.1l0.5-0.2l0.4-0.4l0.7-1l0.4-0.3l0.5-0.2l1.8-0.4l3.1-1.9l0.6-0.1l0.4,0.2l0.2-1.2l0.2-0.4l0.4-0.3l0.4-0.3l0.3-0.3l0.2-0.3
		l0.2-0.4l0.1-0.4l0-0.4l-0.2-0.4l-0.3-0.3l-0.8-0.5l-0.3-0.3l-0.3-0.2l-0.3,0l-0.4,0.1l-0.4,0l-0.3-0.1l-0.3-0.2l-0.3-0.1h-0.6
		l-0.5,0.2l-0.4,0.4l-0.5,1h-0.3l-1.7-1.3l-0.3-0.3l-0.4-0.7l0-0.7l0.3-0.7l0.6-0.5l0.1-0.2l0.1-0.2v-0.2l-0.1-0.2l-0.2-0.3
		l-0.3-0.7l-0.2-0.3l-0.2-0.1l-0.2-0.1l-0.2-0.1l-0.1-0.2v-0.2l0-0.1l0-0.1l-0.1-0.2l-0.3-0.2l-0.3-0.1l-0.3-0.1l-0.6-1l-0.1-0.4
		l0-0.4l0.3-0.6l1.1-0.3l0.4-0.5l0.4-0.6l0.2-0.3l0.2-0.1l0.4,0.1l0.2-0.2l0.1-0.3l-0.1-0.4l0.4-0.7v-0.3l-0.1-0.5l0-0.2l0.1-0.2
		l0.6-0.7l0.5-0.9l0.3-0.3l0.5-0.2l2.1,0l1.1-0.1l0.6-0.4l0.2-0.6l0.5-0.5l1.2-0.8l0.5-0.4l0.3-0.4l0.3-0.3l1.2-0.4l0.4-0.4l0.4-0.4
		l0.5-0.4l0.5-0.2l1,0.1l0.5,0l0.4-0.3l0.3-0.4l0.2-1l0.3-0.4l0-0.3l-0.1-0.3v-0.4l0.2-0.4l0.6-0.5l0.3-0.3l0.4-0.2l1.2-0.3l0.5,0
		l0.5-0.2l0.5-0.4l0.3-0.5l0-0.5L584.7,250.7z"/>
</g>

</svg>
