<?xml version="1.0" encoding="utf-8"?>

<svg version="1.2" baseProfile="tiny" xmlns="http://www.w3.org/2000/svg" xmlns:xlink="http://www.w3.org/1999/xlink" x="0px"
	 y="0px" viewBox="307.3 133.2 224.9 327.7" xml:space="preserve">

<g id="BVI">
	<g>
		<polygon fill="#FFFFFF" points="351.4,182.3 351.4,182 351.2,181.8 350.5,181.8 350.3,182 350.3,182.3 350.5,182.5 351.2,182.5
			"/>
		<polygon fill="#FFFFFF" points="365.9,177 365.4,178.3 366.3,178.5 366.8,179 366.1,179.4 366.1,180.1 365.7,180.5 366.6,181.4
			368,181.4 368.7,181.1 368.9,179.8 369.2,179.4 369.2,178.3 369.6,177.9 369.6,176.8 370,176.5 370.1,175.6 372.2,175.5
			372.6,175.2 373.1,175.7 373.3,176.7 374.3,176.6 374.5,175.4 374.1,175 374.1,174.2 373.4,173.5 373.8,173.2 373.8,172.4
			372.2,170.7 371.9,170.7 371.3,171.7 369.4,173 369.1,173.7 368.7,173.7 366.8,175.4 366.4,176.1 367.2,176.5 367.1,176.8 		"/>
		<polygon fill="#FFFFFF" points="525,428.5 526.1,429.3 527.1,429.3 528.8,427.4 529.2,427.4 529.9,426.7 531,426.7 532.2,425
			532.2,424.3 531,423.4 529.6,423.4 528.5,422.3 527.8,422.3 527.4,422.7 526.1,422.7 525,421.9 524.8,421.9 523.1,429.2
			523.6,429.3 		"/>
		<polygon fill="#FFFFFF" points="373.4,177.2 373.4,177.6 373.6,177.8 374,177.7 374.1,177.6 374.1,177.2 374,177 373.6,177 		"/>
		<polygon fill="#FFFFFF" points="347.9,182 348.4,182.5 349.1,182.6 349.8,182.5 350,182.3 350,181.6 349.5,181.1 349.1,181.1
			348.4,181 347.9,181.6 		"/>
		<polygon fill="#FFFFFF" points="322.2,148.6 322,149.2 322.9,149.7 323.6,149.7 324.5,148.8 324.5,148.1 323.2,147.9 322.5,148.6
					"/>
		<polygon fill="#FFFFFF" points="378,169.5 378,169.1 377.8,168.9 377.5,168.9 377.3,169.1 377.8,169.6 		"/>
		<polygon fill="#FFFFFF" points="371.9,175.9 371.3,176.5 371.8,177 372.6,177 372.7,176.8 372.7,176.5 372.2,175.9 		"/>
		<polygon fill="#FFFFFF" points="375.7,167.8 374.8,168.3 374.8,169.8 375.5,170.6 375.5,172 377.1,174.1 377.8,174.1 378.7,173.1
			379,172.4 377.8,170.8 376.9,170.6 376.9,168.7 376.1,168.2 		"/>
		<polygon fill="#FFFFFF" points="376.8,167.4 376.6,167.6 376.6,168 376.7,168.2 377.1,168.2 377.3,168 377.3,167.6 377.1,167.4
			"/>
		<polygon fill="#FFFFFF" points="451.1,159.5 451.2,159.7 451.9,159.7 452.5,159.1 452.3,159 451.6,159 		"/>
		<path fill="#FFFFFF" d="M438.9,175.9c0.1,0.6,0.1,1.3,0.2,2l0.1-0.3l0.5-0.6l0.2,0.2l-0.3,0.4v0.7l0.5,0.2l0.7,1.1l1.4,0l0.2-1.3
			l-0.4-0.7l1.9-0.6l0.7-1.5l0.3,0.4l1.4,0l0.5,0.6l0,0.7l0.4,0.4l-0.4,0.4l0,1.5l0.5,0.6l0.5-0.2V179l0.3-0.4v-2.2l-0.4-0.4l0-1.1
			h1l0.4,0.7l-0.3,0.4l0.2,0.9l2.8,0l2.1-1.5l1.4-1.5h0.3l2.4,2.2l1.4,0.7l1.4,0.7l0.7,0.7h0.7l0.2-1.3l0.5-0.6l0.7,0.4l0.7-0.7
			l0.2,0.9l-0.4,0.4l0.9,0.2l0.5-1.3l0.7,0l0,1.5l-0.4,0.4l0.2,2.8l1.1,0l0.2-0.6l0.9-0.5l0.4,0.7l1,0l0.4,0.7l1,0l0.7-0.7l0.7,0
			l0.2,0.2l-0.4,0.4l0,0.7l1.4,1.1l0,1.4l0.5,0.6l0.4,0l0.9-1.3l0-1.5l-0.7-1.1l0-1.8l0.8-0.2l0.2-0.9l-0.7-0.7l-0.4-1.1l1.8-0.7
			l0-1.5l-0.7-0.4l0-1.5l-0.3-0.4l0.4-0.4l-0.4-0.7l-1.6-0.2l-1.7-2.2l-1.6-0.6l-0.3-1.5l-1.1-1.5l0-0.7l0.5-0.6l0.7,0l0.3,0.7
			l0.5,0.2l0.4,1.5l1.2,0.5l1.6-0.9l0-1.9l-1.1-1.1l0.4-0.7l0.4-0.4l0-1.1l0.5-0.5l0.9,0.2l0.2,1.6l1.4-0.7l1-1.1l0.4,0v0.4
			l-0.5,0.2l0,0.7l1,0.4l-1,1.1l0.5,0.6l0.7-0.4l0.2,0.2l0,0.7l-0.9,0.2l-0.5,0.6l0,0.4l0.7,0.8l-0.3,0.4l0,0.7l0.9,0.2l1.2-2.1
			l1.2-1.3l0.5,0.2l0.2,0.6l0.7,0l0.3-0.4l1,1.1l1.6,0.2l-0.4,0.7l0,1.1l0.3,0.4l-1.7,2.2l0.2,0.5l1.4,0l0.7,0.7l1,0.4l1.6-0.9v-1.8
			l0.5-0.9l1.4,1.8l0.5-0.2l-0.4-2.6l0.7-0.4l0-1.8l-0.9-0.9l-1.4,0l-0.4,0.4l-0.9-0.2l0.3-1.1l-0.9-0.2l-0.4-0.8l-1.4,0l-0.3,1.1
			l-1,0l-1-1.8l-1.7-0.4l-0.9-0.9l-0.3-1.5l-1.9-1.7l-3.2-0.4l-0.4,0.4l-1,0l-0.4-0.4l-0.7,0.7l-0.5-0.6l0-1.1l-2.3-1.3l-2.8,0.4
			l-0.4-0.4l-0.7,0l-0.5,0.5l0.2,1.3h-1.1l-1-0.7l-0.4,0.4l-3.8,0l-0.5-0.6l1.6-0.5l0.5-0.5l0-0.8l-1.2-0.9l-1.4,0l-0.4-0.4
			l-2.1-0.4l-0.3,0.4h-2.5l-0.5,0.9l0.9,1.3l0.7,0.4l1.4,0l0.5,0.6l-0.4,2.2l0.4,0.7l-0.5,0.6l-1.4-0.7l-2.8,2.6h-2.4l-0.4-0.7
			l-0.7,0l-0.4-0.4l-1.7,0l-0.2,0.9l-0.5,0.6l-1.4,0.4l-0.3-0.4l-1.4,0l-0.2,1.3l0.3,0.7l-0.5,0.5l-1.4,0l-0.9-0.6l0-2.2l-0.9-0.2
			l-1.2,1.7l0.7,1.1l-0.7,0.7v0.7l0.7,0.4l-0.5,0.6l-1.3,0.5c0.1,0.2,0.2,0.4,0.2,0.6C438.3,170.3,438.6,173.2,438.9,175.9z"/>
		<polygon fill="#FFFFFF" points="445.8,159.9 445.8,159.5 445.6,159.3 445.1,159.9 445.3,160.1 445.6,160.1 		"/>
		<polygon fill="#FFFFFF" points="438.1,160.2 438.1,159.9 437.9,159.7 437.3,159.7 437.1,159.9 437.1,160.3 437.2,160.4
			437.9,160.4 		"/>
		<polygon fill="#FFFFFF" points="436.5,161.6 436.7,161.3 436.7,160.3 436.6,160.1 435.5,160.1 435.3,160.2 435.3,161 435.8,161.5
					"/>
		<path fill="#FFFFFF" d="M507.8,432.7l-0.5,0.9l-0.2-0.6l-10.4,4.8l2.1-8.8l-8.6,10.1l-2.6-15.5l-5.4-0.4l-0.4,0.6l0,0.7l-0.9,0.5
			l-0.4-0.4l-1.4,0l-0.7-0.4l-0.4,0.4h-0.7l-0.5,1.3l-0.7,0.4l-0.2,2h-0.7l-0.4-0.4l-2.1,0l-0.3-0.4l-1.1,0.4l-0.7-0.4l-1.7-1.8
			h-0.3l-1.8-1.5h-0.4l-2.1-2.6l-0.7,0l-0.7-0.8l-0.7,0l-1.6-1.7l-1.1-2.2l-0.7-0.4l0.3-0.4l-0.2-0.5l-1.4,0l-1.6-2.8l-1.2-0.9
			l-1.4,0.3l-0.5,0.6l0.3,3.3l-0.5,0.2l-0.3-0.7h-0.7l-0.9,0.9l-0.2,0.9l-0.5-0.6v-0.7l-0.3-0.4l1-0.4l-0.3-1.1l0.3-0.7l-1.2-0.9
			l-2.8,0l-0.4-0.4l-0.2,0c-0.2,3.2-1.1,5.5-2.7,7.1c-1.5,1.5-3.2,1.7-3.3,1.7c-0.4,0-0.7,0-1,0c-4.6,0-7.3-3.5-8.8-6.3
			c0,0.6-0.1,1.2-0.1,1.7c-0.7,8.3-5.2,14.3-10.9,14.3c-4.8,0-8.8-4.4-10.3-10.8l-0.3,0l-0.3-0.3l-1.1,0l-1.7-0.7l-0.3-0.2
			c-1.5,1.3-3.4,2.3-5.8,2.3c-0.3,0-0.7,0-1,0c0,0-0.7-0.1-1.7-0.6l-1.5,1.6l-0.7,1.5l-0.7,3.3l-0.7,1.1l0,1.5l0.4,0.4l0.3,2.2
			l1.1,1.5l0.4,1.8l0.7,1.5l0.3,2.2l0.4,0.4l0,1.5l0.3,0.4l0.4,2.6l0.3,0.4l-0.3,0.7l0,1.5l-0.9,1.7h-0.4l-0.2,0.5l-1.4,1.5
			l-0.7,1.8l-1,1.1v0.4l-0.7,0.4l0,0.4l-3.1,2.9l0,0.8l1.2,2.7l0.7,0l2.1-2.2l1.4-0.4l1.7-1.8l1.1-0.4l0.7-0.4l0.4,0.4l3.1,0
			l1.4-0.7l5.6,0.4l0.3-0.4l1.4,0l0.3-0.4l2.1,0l0.3,0.3l2.1,0l0.9,0.9l0,1.1l0.5,0.9l1.7-1.1l1.1,0l0.7-0.4l1.7-1.5l2.1-0.4l1-0.7
			h2.4l1.4-0.7l0.7-0.7l1,0l1-0.7h1.1l0.4-0.4l2.1,0l0.3-0.4l3.8,0l0.4-0.4l2.4,0l1.1-1.1h0.3l1.4-1.8l0.7,0l0.2,0.6l0.5,0.2
			l1.4,0.7l0.2,0.9l0.5,0.2l0.7-0.7l2.1-0.7l0.7-0.7l0.7,0l0.2-0.5l1.6-1.7l2.1,0l1,1.1l1.1,0.7l2.1-0.4l0.4-0.4l0.3,0.4h1.8
			l0.3,0.4l0.7,0l1.1,1.1l2.4,1.1l1-1.1l1.4-0.4l1.7-1.8l1.4,0l0.3,1.1l0.7,0l1.7-1.1l2.5,0l0.3-0.4l2.1-0.4l1.4-1.8l1.7,0l1.4-1.1
			l2.4,0l0.7,0.4l0.3-0.4h0.7l0.9-0.9l0-1.1l0.5-0.6l1.4-0.4l0.3-0.4l0.7,0l1-0.7h0.7l0.3-0.4l2.5,0l1.4,0.7l1.4,0l0.3-0.4h0.7
			l0.9-0.9v-0.4l1.4-1.1l0.2-0.6l1.4,0l0.7-0.7l1.4,0l1-1.1l1.7-0.7l1.4,0.7l0.1,0l-2.1-2.8L507.8,432.7z"/>
		<polygon fill="#FFFFFF" points="455.1,156.8 454.9,156.9 455.1,157.1 455.4,157.1 455.6,156.9 455.4,156.8 		"/>
		<polygon fill="#FFFFFF" points="452.3,152.7 451.2,152.3 450.6,152.7 450,153.6 451.6,153.8 451.9,154.2 452.8,153.3 		"/>
		<polygon fill="#FFFFFF" points="456.1,157.9 456.3,157.6 456.1,157.5 455.8,157.5 455.6,157.7 455.8,157.9 		"/>
		<path fill="#FFFFFF" d="M397.4,194.3l-1.7,0l-0.2,0.9l0.5,0.6l0.7,0l0.5-0.5c0.1-0.3,0.2-0.6,0.4-0.9L397.4,194.3z"/>
		<polygon fill="#FFFFFF" points="349.1,180.7 349.3,180.5 349.3,180.1 349.1,180 348.4,179.9 348.2,180.1 348.2,180.5 348.4,180.6
					"/>
		<polygon fill="#FFFFFF" points="328.8,157.1 328.7,158 329.4,158.4 329.4,158.8 330.3,159.7 331.1,159.5 330.9,157.1 		"/>
		<polygon fill="#FFFFFF" points="329,164.6 328.5,164.1 328.1,164.1 328,164.3 328,165 328.2,165.2 328.5,165.2 		"/>
		<path fill="#FFFFFF" d="M403,157.1l-1.4,0l-0.5,0.6l0.5,0.6l0.9,0c0.3-0.6,0.8-1.4,1.6-2.2l-0.4,0L403,157.1z"/>
		<polygon fill="#FFFFFF" points="328.9,135.7 328.1,135.7 328,135.9 328,136.7 328.1,136.8 328.5,136.8 329,136.3 329,135.9 		"/>
		<polygon fill="#FFFFFF" points="432.3,154.5 433.4,154.5 434.1,154.2 434.3,153.6 433.7,153.4 433.4,153.8 431.3,153.8
			430.9,154.2 429.9,154.2 429.7,154.7 432,154.9 		"/>
		<polygon fill="#FFFFFF" points="495.3,171.8 494.6,171.9 494.4,172 494.4,172.4 494.6,172.6 495.3,172.6 495.5,172.4 495.5,172.1
					"/>
		<polygon fill="#FFFFFF" points="324,137.2 322.7,138.1 322.7,138.5 324.3,138.7 324.8,137.8 324.8,137.4 		"/>
		<polygon fill="#FFFFFF" points="325,138.3 324.8,138.5 324.8,138.8 325,139 325.3,139 325.5,138.8 325.5,138.5 325.4,138.3 		"/>
		<polygon fill="#FFFFFF" points="324.7,161.5 324.5,161.7 324.5,162.4 324.6,162.6 325.3,162.6 325.5,162.4 325.5,162.1 325,161.5
					"/>
		<polygon fill="#FFFFFF" points="378.3,174.6 378.1,174.4 377.4,174.4 377.3,174.6 377.4,174.8 378.1,174.8 		"/>
		<polygon fill="#FFFFFF" points="474,426.7 473.8,426.9 473.8,427.6 474,427.8 474.7,427.8 474.8,427.6 474.8,426.5 474.7,426.3
			474.3,426.7 		"/>
		<polygon fill="#FFFFFF" points="497,171.1 496.3,171.1 495.8,171.7 495.8,172.8 495.5,173.1 496,174.1 496.4,174.1 496.9,173.1
			496.9,172 497.2,171.6 		"/>
		<polygon fill="#FFFFFF" points="481.1,175.3 481.1,175 481,174.8 480.3,174.8 480.1,175 480.1,175.4 480.3,175.5 480.9,175.5
			"/>
		<polygon fill="#FFFFFF" points="451,177.6 450.9,177.4 449.8,177.4 449.7,177.6 450.2,178.1 450.5,178.1 		"/>
		<polygon fill="#FFFFFF" points="479,176.8 480.3,177.7 480.6,177.7 481.1,177.2 481.1,176.8 480.6,176.3 479.6,176.3 		"/>
		<polygon fill="#FFFFFF" points="353.3,176.3 353,176.3 352.8,177.2 353.7,178.1 354.2,177.6 354.2,176.8 353.7,176.6 		"/>
		<path fill="#FFFFFF" d="M402.4,180.2l0.2,0.1c-0.1-0.3-0.1-0.6-0.2-0.8V180.2z"/>
		<polygon fill="#FFFFFF" points="393.5,195.4 394.2,194.7 395.1,194.5 395.1,193.4 394.6,192.9 393.9,192.8 392.8,193.6
			391.8,193.6 391.6,194.5 392.3,194.9 392.5,195.4 		"/>
		<path fill="#FFFFFF" d="M402.9,181.8c0-0.2-0.1-0.5-0.1-0.7l-0.2,0l-0.4-0.4l-0.2,0.6l0.5,0.6H402.9z"/>
		<polygon fill="#FFFFFF" points="326.4,155.6 325.7,155.6 325.2,156.5 325.7,156.7 327.1,158.2 327.8,158.2 328.3,157.6
			328.7,156.2 328.1,155.6 326.7,156 		"/>
		<path fill="#FFFFFF" d="M331.5,160.2v0.7l2.3,2.4l2.1,0.8l0.9,0.9l0,0.4l0.5,0.5l1.4,0l0.7,0.4l0.9-0.6l0.2-0.6l1,0l0.4-0.4
			l3.8,0.4l1.1-0.7h0.7l1-0.8l0.7,0l2.4-1.8h1.8l0.7,0.7l0.3,0l1.4,1.5l1.7,0.4l0.9,0.9l0.7,2.2l0.5,0.2l0.9,1.6l0.2,2.1l0.9-0.2
			l1.1-1.8l0.2-0.9l0.7,0l0.9,0.9l-0.3,0.7l0,1.1l-0.3,0.4l0,1.1l0.5,0.9l1-0.4l0.4-3.3l0.2,0.9l0.9,1.3l1.4,0l0.5-0.6l0-1.1
			l-0.3-0.4l0.5-0.6l0.3,0l1.4-1.9h1.4l1.1,1.5l1.4,0l0.2-2l0.9-0.5h1.7l0.7-0.4l0.7,0.7l1-0.4l1.4,0.7l1.1,0l0.5,0.9l-0.7,1.5
			l-0.5,0.2l-0.5,0.9l0.7,2.2l0.3,0.4l0,1.5l-0.4,0.4l0.2,0.2l0.2,0c0.2-4,1.7-10.9,9.3-11.8c1.9-0.2,3.6-0.3,5.2-0.4
			c0.1-0.3,0.2-0.6,0.3-0.9c0.4-1,1-2,2.2-2.7h0l-0.4-0.4h-2.8l-0.2-2.8l-0.9-0.6l-0.7,0l-0.7,0.7h-0.3l-0.4,0.4l-0.7-1.1l-1.7-0.7
			l-1.1,0l-0.3-0.4h-2.1l-0.3-0.4l-1.1,0l-2.1-1.9l-0.7,0l-1.8-2.2h-1l-1-0.7l-0.7,0l-2.8-2.6l-1.2,0.2l0.4,0.7l4,4.2l1,0.4l2.3,2
			l0,1.1l-1.6,1.7h-1.8l-2.1-1.5l-1.8-0.7l-0.5-0.6l0-1.5l-2.3-0.9l-0.9-1.3l-0.9-0.9l-0.7,0l0,3H367l-1.1-0.8l-0.3,0.8l-0.4,0
			l-0.3-0.3l-1,0l-0.4,0.4l-1.4,0l-1.4-0.8l-3.1,0l-0.4-0.4l-1,0l-0.3,0.4h-2.4l-0.7-0.4l-0.5,1.3l-0.4,2.6l-0.3,0.7l-0.5,0.2
			l-1.7-1.8l-0.3-0.4l-1.1,0l-1-0.7l-0.5,0.5l0.3,0.7l-0.2,0.9l-0.7,0.3l-1.4,0l-0.3,0.4l-2.1,0l-0.4,0.4l-0.7,0l-1.8-0.7l-0.3,0.4
			l-1.1,0l-0.3,0.4l-1.8,0l-0.2,1.3l-0.7,0.7l0,1.1l-1.6,0.6l-0.2-0.2l0.4-0.7l-1.2-0.2L331.5,160.2z"/>
		<polygon fill="#FFFFFF" points="334.9,158 334.8,157.8 334.4,157.8 334.3,158 334.4,158.2 334.8,158.2 		"/>
		<polygon fill="#FFFFFF" points="354.4,147.5 354.5,147.3 354.6,146.6 354.4,146.4 354,146.4 353.8,146.6 353.9,147.3 354,147.5
			"/>
		<polygon fill="#FFFFFF" points="332.9,158.7 332.9,158.4 332.7,158.2 332.2,158.7 332.3,158.9 332.7,158.9 		"/>
		<polygon fill="#FFFFFF" points="334.1,159.7 334.3,159.5 333.7,158.9 333.6,159.1 333.6,159.5 333.7,159.7 		"/>
		<polygon fill="#FFFFFF" points="360,151.2 359.8,151.4 360.3,152 360.7,151.9 360.8,151.8 360.8,151.4 360.7,151.2 		"/>
		<polygon fill="#FFFFFF" points="359.5,142.6 360.7,143.9 361.7,143.8 362.1,143.5 363.3,143.3 363.3,142.6 361.9,141.4
			361.7,140.9 361.2,140.7 361.2,140 360.3,139.4 359.4,139.6 359.4,141.1 359.8,141.4 359.8,142.2 		"/>
		<path fill="#FFFFFF" d="M430.8,157.6l0.2-0.1l1,0l0.4,0.4l0.7-0.7l1.2-0.5l0-0.8l-0.5-0.6l-1.4,0l-1,0.7l-0.4-0.3l-1.1,0.7l-0.6,0
			C429.8,156.8,430.3,157.2,430.8,157.6z"/>
		<polygon fill="#FFFFFF" points="365.2,152.3 365.4,152.1 365.4,151.8 365.2,151.6 364.5,151.6 364.3,151.8 364.9,152.3 		"/>
		<path fill="#FFFFFF" d="M395.9,174.8c-0.8,0-1.4,0.1-2.2,0.2c-1.3,0.2-2.7,0.4-5,0c-1.6-0.3-2.8,0.5-3.7,1.5l0.2,0.1l0.7,0.7
			l1.1,0.4l1.2,0.6l0.2,0.9l0.7,0l0.4,0.3l0.7-0.4l1.4,0.7h0.7l0.2-0.6l0.5-0.6l0.3,0.4l0.7,0l0.3-0.4l1.4,0l0.5,0.6l0.2,0.9l1.1,0
			l0.4,0.4l1.4,0.4l0.9,0.9l0.2,1.3l1.9-0.6l0-0.7l-0.3-0.4v-1.8l-0.7-0.4v-0.7l-0.5-0.6l-1.1,0l-0.2-0.6l-0.3-0.4l0.2-0.2l2,0
			c0,0,0-0.1-0.1-0.1C399.9,175.6,398.1,174.8,395.9,174.8z"/>
		<polygon fill="#FFFFFF" points="315.6,164.1 315.7,163.9 315.7,163.5 315.6,163.3 315,163.9 315.2,164.1 		"/>
		<polygon fill="#FFFFFF" points="313.3,168.3 314.2,168.9 315.6,168.1 316.6,168.5 316.8,167.6 317.3,167 318.2,166.8 318.5,165.4
			318.2,165 318.2,163.9 317.3,163.7 316.6,164.1 315.1,165.7 315,166.1 313.3,167.6 		"/>
		<polygon fill="#FFFFFF" points="314.7,164.6 314.7,165 314.8,165.2 315.4,164.6 315.2,164.4 314.9,164.5 		"/>
		<polygon fill="#FFFFFF" points="316.8,163.5 316.8,163.2 316.6,163 316.3,163 316.1,163.2 316.1,163.5 316.3,163.7 316.6,163.7
			"/>
		<polygon fill="#FFFFFF" points="319.7,166.3 319.9,166.1 319.4,165.6 319.1,165.6 318.9,165.7 318.9,166.1 319.1,166.3 		"/>
		<polygon fill="#FFFFFF" points="312.9,169.1 312.9,169.8 313.1,170 313.5,169.6 313.8,169.6 314,169.4 313.4,168.9 313.1,168.9
			"/>
		<polygon fill="#FFFFFF" points="318.9,162.4 318.7,162.3 318,162.3 317.8,162.4 317.8,162.8 318,163 318.4,163 		"/>
		<polygon fill="#FFFFFF" points="359.1,146.6 360.1,147.7 360.3,148.6 360.7,148.6 362.4,150.5 363.1,150.8 363.6,150.7 364,149.2
			362.9,147.7 363.3,147.3 363.1,146.4 361.4,146.4 360.7,145.7 359.3,145.7 		"/>
		<polygon fill="#FFFFFF" points="377.3,155.8 377.1,155.6 376.8,155.6 376.6,155.8 376.8,156 377.1,156 		"/>
		<polygon fill="#FFFFFF" points="375.5,154.7 375.3,154.5 375.2,154.7 375.2,155.1 375.3,155.3 375.5,155.1 		"/>
		<polygon fill="#FFFFFF" points="376.2,155.1 376.1,154.9 375.9,155.1 375.9,155.5 376.1,155.6 376.2,155.5 		"/>
		<polygon fill="#FFFFFF" points="384.1,137.2 383.6,138.1 384.3,138.9 384.3,139.3 385.3,140 385.3,141.4 386.4,143.3 386.4,144
			386.9,144.2 388.3,146.1 389.5,145.1 389.5,144.4 390,143.8 391.1,143.9 391.6,143.3 391.6,142.2 390.2,140.4 389,138.3
			387.6,137.9 386.5,137.2 		"/>
		<polygon fill="#FFFFFF" points="388.1,133.4 387.9,133.2 386.9,133.2 386.7,133.3 386.7,133.7 386.9,133.9 387.9,133.9 		"/>
		<polygon fill="#FFFFFF" points="388.7,137.6 389.3,137.6 390.2,136.3 390.2,135.2 389,134.3 386.9,134.3 386.7,135.9 		"/>
		<polygon fill="#F4C53D" points="404.7,177 404.5,177.2 404.5,177.6 404.7,177.8 405.1,177.7 405.6,177.2 405.4,177 		"/>
		<polygon fill="#F4C53D" points="407.2,177.8 407,177.9 407,178.3 407.2,178.5 407.5,178.5 408,177.9 407.9,177.7 		"/>
		<path fill="#F4C53D" d="M408.5,173.9c-0.9-1.1-1.8-1.4-3.1-1.8c-1.1-0.4-2.5-0.7-4.3-1.8c-3-1.8-5-3.1-4.9-5.6
			c-1.5,0-3.1,0.2-4.8,0.4c-3.9,0.5-6.5,2.8-7.6,6.9c-0.4,1.3-0.5,2.6-0.6,3.7l0.6,0.3c1.2-1.2,2.8-2.6,5.2-2.2
			c2.1,0.4,3.4,0.1,4.6,0c0.7-0.1,1.4-0.2,2.2-0.2c0,0,0.1,0,0.2,0c2.7,0,4.7,0.9,6.2,2.6c0.1,0.1,0.1,0.2,0.2,0.3l0.7-0.4l1.4,0
			l1.1-0.7l0.2,0.2l-0.4,0.7l0.9,0.9l0.7,0l1.1-0.7l1,0l0.1-0.2C409.1,175.3,409,174.5,408.5,173.9z"/>
		<path fill="#F4C53D" d="M405.4,180.7l-0.7-0.4l-0.2,0.9l1.3,0.4c0.3-0.2,0.6-0.4,0.9-0.8L405.4,180.7z"/>
		<polygon fill="#F4C53D" points="405.8,178.5 406.5,178.5 406.6,178.3 406.7,177.9 406.5,177.8 405.8,177.8 405.6,177.9
			405.6,178.3 		"/>
		<path fill="#F4C53D" d="M403.5,177.6l0.7-1.1l-0.9-0.2l-0.7,0.4c0.4,0.6,0.7,1.1,0.9,1.7L403.5,177.6z"/>
		<path fill="#010002" d="M403,181.8l0.4,0.3l0.4,0l0.2-0.2v-0.4l-0.5-0.6l-0.5,0C402.9,181.3,402.9,181.6,403,181.8L403,181.8z"/>
		<path fill="#010002" d="M402.7,180.3l1,0.4l0.2-0.9l-0.4-0.4l0-1c-0.2-0.6-0.5-1.2-0.9-1.7l-0.6,0.3l-0.2,0.6l0.7,0.7v1.1
			C402.5,179.7,402.6,180,402.7,180.3z"/>
		<path fill="#010002" d="M391.3,165c1.8-0.2,3.4-0.3,4.8-0.4c0-0.4,0.1-0.9,0.2-1.3c-1.6,0-3.3,0.2-5.2,0.4
			c-7.6,0.9-9.1,7.9-9.3,11.8l1.2,0l0.1,0.1c0.1-1.1,0.2-2.4,0.6-3.7C384.9,167.8,387.4,165.5,391.3,165z"/>
		<path fill="#010002" d="M395.9,173.4c-0.1,0-0.2,0-0.2,0c-0.8,0-1.5,0.1-2.2,0.2c-1.2,0.2-2.5,0.4-4.6,0c-2.3-0.4-4,0.9-5.2,2.2
			l1.2,0.6c0.9-0.9,2.1-1.8,3.7-1.5c2.3,0.4,3.7,0.2,5,0c0.7-0.1,1.4-0.2,2.2-0.2c2.3,0,4,0.8,5.2,2.2c0,0,0,0.1,0.1,0.1l0.1,0
			l1.1-0.7c-0.1-0.1-0.1-0.2-0.2-0.3C400.6,174.4,398.6,173.5,395.9,173.4z"/>
		<path fill="#F4C53D" d="M403,165.6c0.8,1.2,2.2,1.9,4.4,2l0.2,0c0.6,0,1.4-0.4,2-0.9l-0.1,0l-0.2-0.6l-2.6-2l-0.7,0l-0.9-0.6
			l1.2-0.9h0.7v-0.7l-1.8,0l-0.3-0.3l-1.1,0l-0.4-0.4l-1,0l-0.1,0C402.3,162.3,402.1,164.2,403,165.6z"/>
		<polygon fill="#F4C53D" points="429.4,186.8 429.4,186.4 429.2,186.2 428.9,186.2 428.3,186.8 428.5,187 429.2,187 		"/>
		<polygon fill="#F4C53D" points="418.2,181.6 418.2,182 419.1,182.5 419.8,182.5 420.1,182.2 422.2,182.2 422.4,181.6 421.7,181.3
			421.7,180.1 423.6,179.6 424.1,179.1 423.3,178.1 422.6,178.1 422.2,178.5 422,177.5 422.4,176.8 421.5,176.6 420.8,177.4
			419.6,177.6 419.6,178.3 420.3,179.8 419.8,180.7 418.7,181.1 		"/>
		<polygon fill="#F4C53D" points="411.4,213.5 411.2,213.7 411.2,214.4 411.4,214.6 412.1,214.6 412.2,214.4 412.2,214 411.7,213.5
					"/>
		<path fill="#F4C53D" d="M427.6,157.3l0.9,0.9l0.9,0c-0.6-0.5-1.2-0.9-1.7-1.3L427.6,157.3z"/>
		<path fill="#F4C53D" d="M404,158.2l1.1,0l1.1,0.7h0.7l0.4,0.4l2.1,0l0.4-0.4h0.7l1,1.1l0.3-0.4l1.4-0.4l0.5-0.6l-0.4-0.4v-0.7
			L411,156l-0.9,0.5l-0.2,0.6h-2.5l-0.3-0.4l-1.4,0l-0.4-0.2C404.7,157.1,404.3,157.7,404,158.2z"/>
		<path fill="#F4C53D" d="M397.9,162.9c-1.1,2.9,0,4,3.9,6.2c1.6,1,2.9,1.3,4,1.7c1.4,0.4,2.6,0.8,3.8,2.3c0.7,0.9,0.9,2,0.9,3
			l1,1.3l1.4,0.4l1.4,1.5h0.3l0.5-0.6l0-0.7l-0.4-0.4l0.2-0.9l1.4,0l0.7,0.7l1.6-0.2l-0.9-1.7l-1.9-1.3l0.9-0.5l2.8,0l0.5-0.6
			l-0.5-0.9l-0.2,0c-0.5,0.4-1.3,0.8-2.4,0.9c-0.3,0-0.6,0-0.9,0c-0.4,0-0.7,0-1-0.1l-0.4,0.3l-1.4-0.4l-1.4,0.7l-0.5-0.2l1.9-0.9
			l0.1-0.1c-0.9-0.4-1.6-1-2.3-1.7c-1.4-1.3-3.5-1.9-3.5-1.9l-0.1,0c-2.6-0.2-4.4-1-5.5-2.6c-1.1-1.7-1-3.8-0.7-5.2l-1.4-0.3l0-0.2
			C399,161,398.3,161.6,397.9,162.9z"/>
		<path fill="#F4C53D" d="M437.4,175.8l-0.7,0.3l0,1.1l0.5,0.6l0.4,0c-0.1-0.6-0.1-1.1-0.2-1.7C437.5,176,437.4,175.9,437.4,175.8z"
			/>
		<path fill="#F4C53D" d="M435.5,167l-0.4,0.4h-0.7l-0.9,0.6v0.7l0.5,0.6l1.1,0l0.5,0.6l-0.9,0.6l-1.2,0.2v2.2l1,0.4l0.9,2.4l0.7,0
			l1.1-0.9c-0.2-2.3-0.6-4.6-1.8-7.5C435.6,167.1,435.5,167.1,435.5,167z"/>
		<polygon fill="#F4C53D" points="422.9,182.5 422.6,183.3 421.5,183.3 421,184.2 421,185.3 424.3,185.9 424.5,184.6 423.8,184.2
			423.8,182.7 		"/>
		<polygon fill="#F4C53D" points="430.3,171.9 430.4,171.7 430.4,170.6 429.9,170 429.7,170.2 429.7,171.7 		"/>
		<polygon fill="#F4C53D" points="425.3,158.6 426.8,158.6 427.3,158 427.1,157.5 426,157.5 425.7,157.1 425,157.5 424.7,157.1
			422.9,157.1 422.7,157.7 424.3,158.6 425,158.2 		"/>
		<polygon fill="#F4C53D" points="426.8,185.8 426.1,185.1 425.9,185.3 425.9,186.8 426.1,186.9 427.1,187 427.3,186.4 427.6,186
			427.5,185.9 		"/>
		<polygon fill="#F4C53D" points="419.4,158.6 420.8,158.6 422,158 422,157.3 420.8,157.1 420.4,157.5 418.4,157.5 418,157.9
			417,157.9 416.4,158.8 419.1,159 		"/>
		<polygon fill="#F4C53D" points="419.6,180.1 419.6,179.8 419.4,179.6 419,179.6 418.9,179.8 418.9,180.1 419.1,180.3 419.4,180.3
					"/>
		<path fill="#010002" d="M404,158.2c0.3-0.5,0.8-1.1,1.4-1.7l-1-0.5l-0.3,0c-0.8,0.8-1.3,1.6-1.6,2.2L404,158.2z"/>
		<path fill="#010002" d="M427.8,156.4l-0.1,0.6c0.5,0.4,1.1,0.8,1.7,1.3l0.5,0l0.9-0.6c-0.5-0.5-1-0.9-1.5-1.2L427.8,156.4z"/>
		<path fill="#010002" d="M397.6,194.5L397.6,194.5c-0.2,0.2-0.3,0.5-0.4,0.8l0.4-0.4V194.5z"/>
		<path fill="#010002" d="M435.5,167c0,0,0,0.1,0.1,0.1c1.2,2.9,1.5,5.2,1.8,7.5l0.3-0.2l0.7,0l0.2,0.9l-1,0.4c0,0.1,0,0.2,0,0.3
			c0.1,0.6,0.1,1.1,0.2,1.7l0.3,0l0.4,0.4l0.7,0l0.1-0.2c-0.1-0.7-0.1-1.3-0.2-2c-0.3-2.8-0.5-5.6-2-9.3c-0.1-0.2-0.2-0.4-0.2-0.6
			l-0.5,0.2L435.5,167z"/>
		<path fill="#010002" d="M396.6,162.4c-0.1,0.3-0.2,0.6-0.3,0.9c-0.1,0.5-0.2,0.9-0.2,1.3c0,2.5,2,3.9,4.9,5.6
			c1.8,1.1,3.2,1.4,4.3,1.8c1.4,0.4,2.2,0.7,3.1,1.8c0.5,0.6,0.6,1.5,0.6,2.2l0.2-0.2l1.1,0l0.1,0.1c0-1-0.2-2.1-0.9-3
			c-1.1-1.5-2.4-1.8-3.8-2.3c-1.1-0.4-2.3-0.7-4-1.7c-3.9-2.3-5-3.3-3.9-6.2c0.4-1.2,1.2-1.9,1.9-2.2l-0.3-1h-0.7
			C397.6,160.4,397,161.4,396.6,162.4z"/>
		<path fill="#010002" d="M407.3,181.3v-0.4l-0.5-0.1c-0.4,0.4-0.7,0.6-0.9,0.8l0.6,0.2L407.3,181.3z"/>
		<path fill="#010002" d="M401.9,166.3c1,1.6,2.9,2.4,5.5,2.6l-3.3-1l3.3-0.2c-2.1-0.2-3.6-0.9-4.4-2c-0.9-1.4-0.7-3.3-0.4-4.5
			l-0.6-0.3l-0.4,0.4l-0.3-0.1C401,162.5,400.8,164.6,401.9,166.3z"/>
		<path fill="#F4C53D" d="M409.5,168.3c0.7,0.4,1.6,0.9,2.3,1.5c0.8,0.8,1.7,1.4,2.5,1.7l0.3-0.3l0-1.1l-1.1-1.1v-0.4l-1.7-0.7
			l0.4-0.7l-0.2-0.9l0,0C411.7,166.7,410.7,167.7,409.5,168.3z"/>
		<polygon fill="#F4C53D" points="414.2,168.2 414.5,168.2 415,167.6 414.5,167 414,167.6 414,168 		"/>
		<path fill="#010002" d="M416.8,173.1c1.1-0.2,1.9-0.5,2.4-0.9l-3,0l-1.3,0.9c0.3,0.1,0.7,0.1,1,0.1
			C416.2,173.2,416.5,173.1,416.8,173.1z"/>
		<path fill="#010002" d="M407.6,167.6l-0.2,0l-3.3,0.2l3.3,1l0.1,0c0,0,2.1,0.7,3.5,1.9c0.7,0.6,1.4,1.2,2.3,1.7l1.2-0.9
			c-0.9-0.3-1.7-0.9-2.5-1.7c-0.7-0.7-1.5-1.2-2.3-1.5c1.2-0.7,2.2-1.6,2.5-2l-2.4,0.4C409,167.2,408.3,167.6,407.6,167.6z"/>
		<polygon fill="#F4C53D" points="309.1,191.5 309.1,191.2 308.5,190.6 307.9,190.6 307.3,191.5 307.9,192.1 308.6,192.1 		"/>
		<path fill="#F4C53D" d="M440.4,420.1c0.2,0,4.4-0.6,4.7-7.6l-2.3-0.9h-0.7l-0.4,0.4H440l-1.7,1.1h-0.7l-0.3,0.4l-1.1,0l-1.4,0.7
			l-3.1,0C433,417,435.7,420.6,440.4,420.1z"/>
		<path fill="#010002" d="M439.6,421.5c0.4,0,0.7,0,1,0c0.1,0,1.7-0.2,3.3-1.7c1.6-1.6,2.5-4,2.7-7.1l-0.9,0l-0.5-0.2
			c-0.3,7-4.5,7.5-4.7,7.6c-4.8,0.5-7.4-3.1-8.7-5.9l-0.8,0l-0.2,0.1c0,0.3,0,0.6,0,0.8C432.2,418,434.9,421.5,439.6,421.5z"/>
		<path fill="#F4C53D" d="M404.8,418.4l-0.7-0.5l-3.1,0.4l-0.4,0.4l-0.7,0l-1.1,1.4c0.3,0.1,0.4,0.1,0.4,0.1
			C401.5,420.4,403.3,419.6,404.8,418.4z"/>
		<path fill="#010002" d="M400,421.5c2.4,0,4.4-1,5.8-2.3l-1.1-0.8c-1.4,1.2-3.3,2-5.6,1.7c0,0-0.2,0-0.4-0.1l-0.6,0.8l-0.7,0l0,0
			c0.9,0.5,1.7,0.6,1.7,0.6C399.4,421.5,399.7,421.5,400,421.5z"/>
		<path fill="#F4C53D" d="M419.8,429.9c4.9,0,8.9-5.5,9.5-13.1c0-0.1,0-0.3,0-0.4l-1.1,1.2l-1,0.4l-1.4,1.1H425l-1.1,0.7l-0.7,0
			l-1.1,0.7l-0.7,0l-2.1,1.1l-3.2,0l-0.3-0.4l-1.4,0l-0.3-0.4l-3.1,0l-0.1-0.1C412.4,426.2,415.8,429.9,419.8,429.9z"/>
		<path fill="#010002" d="M419.8,431.2c5.6,0,10.2-6.1,10.9-14.3c0-0.6,0.1-1.1,0.1-1.7c0-0.3,0-0.5,0-0.8l-1.4,1.2l0,0.7l-0.1,0.1
			c0,0.1,0,0.3,0,0.4c-0.6,7.6-4.6,13.1-9.5,13.1c-4,0-7.4-3.7-8.8-9.1l-0.3-0.3l-1.1,0C411,426.8,415,431.2,419.8,431.2z"/>
		<polygon fill="#0081C6" points="521.9,423 520.8,423.7 518.4,423.7 517.7,423.4 516.8,423.9 516.6,424.5 514.5,424.5 512.9,423.1
			508.9,430.8 510.8,429.9 513.7,433.7 513.7,433.1 514,432.4 515.1,431.3 516.3,429.3 518,429.3 519.1,428.5 521.2,428.5
			521.5,428.9 521.8,428.9 523.3,422.7 		"/>
		<polygon fill="#0081C6" points="506.6,431.8 503.4,423.8 500.7,426.9 498.7,435.5 		"/>
		<polygon fill="#010002" points="524.3,421.9 523.6,422.6 523.3,422.7 521.8,428.9 523.1,429.2 524.8,421.9 		"/>
		<polygon fill="#010002" points="508.9,430.8 507.8,432.7 510.4,431.5 512.5,434.4 513.7,434.2 513.7,433.7 510.8,429.9 		"/>
		<polygon fill="#010002" points="506.6,431.8 498.7,435.5 500.7,426.9 498.9,429.1 496.8,437.9 507.1,433.1 		"/>
		<polygon fill="#0081C6" points="507.5,430.5 512.1,421.9 510.3,421.9 509.3,422.7 505.1,422.3 504.9,422.1 504.4,422.7 		"/>
		<polygon fill="#010002" points="504.4,422.7 503.4,423.8 506.6,431.8 507.1,433.1 507.4,433.7 507.8,432.7 508.9,430.8
			512.9,423.1 512.6,422.8 512.4,421.9 512.1,421.9 507.5,430.5 		"/>
		<polygon fill="#0081C6" points="491.1,436.2 502.7,422.6 502.6,422.6 502.3,422.3 501.6,422.7 499.1,422.6 498.1,421.5
			495.3,421.5 494.6,420.4 494.2,420.4 492.7,421.7 492.5,422.3 491.4,422.3 491.1,421.9 486.9,421.9 486.5,422.3 488.8,422.5 		"/>
		<polygon fill="#0081C6" points="511.4,410.1 511,409.8 508.9,409.8 508.6,409.4 505.8,409.4 505.3,410 505.3,410.7 505.8,411.3
			506.1,411.3 507.2,412.4 508.6,412.4 508.9,412 510,412 511,411.3 512.6,411.1 512.6,411.1 512.1,410.2 		"/>
		<polygon fill="#0081C6" points="489.3,420.4 489.7,420.4 489.9,419.9 490.6,419.2 490.6,418.8 490.4,418.6 489.3,418.6
			489.2,418.8 489.2,419.5 488.8,419.9 		"/>
		<polygon fill="#010002" points="490.2,439.2 498.9,429.1 500.7,426.9 503.4,423.8 504.4,422.7 504.9,422.1 504.7,421.9
			503.7,422.7 502.7,422.6 491.1,436.2 488.8,422.5 486.5,422.3 486.2,422.7 485.5,422.6 485.2,422.3 483.4,422.3 482.5,422.8
			482.2,423.3 487.6,423.7 		"/>
		<polygon fill="#010002" points="512.6,411.1 512.6,411.1 512.6,411.1 		"/>
	</g>

		<path fill="none" stroke="#999999" stroke-width="0.25" stroke-linecap="round" stroke-linejoin="round" stroke-miterlimit="10" d="
		M419.6,180.1v-0.4l-0.2-0.2H419l-0.2,0.2l0,0.3l0.2,0.2h0.3L419.6,180.1z M419.4,158.6l1.4,0l1.2-0.5l0-0.7l-1.2-0.2l-0.4,0.4
		l-2.1,0l-0.4,0.4l-1,0l-0.5,0.9l2.6,0.2L419.4,158.6z M328.5,136.8l0.5-0.6l0-0.4l-0.2-0.2l-0.7,0l-0.2,0.2v0.8l0.1,0.2H328.5z
		 M405.1,158.2l1.1,0.7h0.7l0.4,0.4l2.1,0l0.4-0.4h0.7l1,1.1l0.3-0.4l1.4-0.4l0.5-0.6l-0.4-0.4v-0.7L411,156l-0.9,0.5l-0.2,0.6h-2.5
		l-0.3-0.4l-1.4,0l-1.4-0.7l-0.7,0l-0.7,1.1l-1.4,0l-0.5,0.6l0.5,0.6L405.1,158.2z M387.9,133.9l0.2-0.5l-0.2-0.2l-1.1,0l-0.2,0.2
		v0.4l0.2,0.2L387.9,133.9z M425,158.2l0.3,0.4l1.4,0l0.5-0.6l-0.2-0.6l-1.1,0l-0.3-0.4l-0.7,0.4l-0.4-0.4l-1.7,0l-0.2,0.5l1.6,0.9
		L425,158.2z M421.5,176.6l-0.7,0.7l-1.2,0.2l0,0.7l0.7,1.5l-0.5,0.9l-1.1,0.4l-0.5,0.6l0,0.4l0.9,0.6l0.7,0l0.3-0.4l2.1,0l0.2-0.5
		l-0.7-0.4l0-1.1l1.9-0.6l0.5-0.5l-0.9-0.9h-0.7l-0.4,0.4l-0.2-0.9l0.3-0.7L421.5,176.6z M426.1,185.1l-0.2,0.2l0,1.5l0.2,0.2l1.1,0
		l0.2-0.6l0.4-0.4l-0.2-0.2l-0.7,0L426.1,185.1z M422.9,182.5l-0.3,0.7l-1.1,0l-0.5,0.9l0,1.1l3.3,0.6l0.2-1.3l-0.7-0.4l0-1.5
		L422.9,182.5z M334.8,158.2l0.1-0.2l-0.1-0.2h-0.4l-0.2,0.2l0.2,0.2H334.8z M389.3,137.6l0.9-1.3l0-1.1l-1.2-0.9l-2.1,0l-0.2,1.6
		l1.9,1.7L389.3,137.6z M354,147.5l0.3,0l0.2-0.2l0-0.7l-0.2-0.2H354l-0.2,0.2l0,0.7L354,147.5z M333.7,159.7h0.4l0.2-0.2l-0.5-0.5
		l-0.2,0.2l0,0.4L333.7,159.7z M332.7,158.9l0.2-0.2v-0.4l-0.2-0.2l-0.5,0.5l0.2,0.2L332.7,158.9z M428.3,186.8l0.2,0.2h0.7l0.2-0.2
		v-0.4l-0.2-0.2h-0.3L428.3,186.8z M384.3,139.3l1.1,0.7l0,1.5l1.1,1.8v0.7l0.5,0.2l1.4,1.9l1.2-0.9l0-0.7l0.5-0.6l1,0l0.5-0.6
		l0-1.1l-1.4-1.8l-1.2-2.1l-1.4-0.4l-1-0.7l-2.5,0l-0.5,0.9l0.7,0.7L384.3,139.3z M360.3,148.6h0.3l1.7,1.8l0.7,0.4l0.5-0.2l0.3-1.5
		l-1-1.4l0.3-0.4l-0.2-0.9l-1.7,0l-0.7-0.7l-1.4,0l-0.2,0.9l1.1,1.1L360.3,148.6z M365.2,152.3l0.2-0.2l0-0.4l-0.2-0.2l-0.7,0
		l-0.2,0.2l0.5,0.6L365.2,152.3z M359.8,142.2l-0.3,0.4l1.2,1.3l1.1,0l0.3-0.4l1.2-0.2v-0.7l-1.4-1.1l-0.2-0.6l-0.5-0.2l0-0.7
		l-0.9-0.6l-0.9,0.2v1.5l0.3,0.4L359.8,142.2z M414.2,168.2h0.3l0.5-0.5l-0.5-0.6l-0.5,0.6l0,0.4L414.2,168.2z M433.6,168.7l0.5,0.6
		l1.1,0l0.5,0.6l-0.9,0.6l-1.2,0.2v2.2l1,0.4l0.9,2.4l0.7,0l1.4-1.1l0.7,0l0.2,0.9l-1.8,0.7l0,1.1l0.5,0.6l0.7,0l0.4,0.4l0.7,0
		l0.2-0.5l0.5-0.6l0.2,0.2l-0.3,0.4v0.7l0.5,0.2l0.7,1.1l1.4,0l0.2-1.3l-0.4-0.7l1.9-0.6l0.7-1.5l0.3,0.4l1.4,0l0.5,0.6l0,0.7
		l0.4,0.4l-0.4,0.4l0,1.5l0.5,0.6l0.5-0.2V179l0.3-0.4v-2.2l-0.4-0.4l0-1.1h1l0.4,0.7l-0.3,0.4l0.2,0.9l2.8,0l2.1-1.5l1.4-1.5h0.3
		l2.4,2.2l1.4,0.7l1.4,0.7l0.7,0.7h0.7l0.2-1.3l0.5-0.6l0.7,0.4l0.7-0.7l0.2,0.9l-0.4,0.4l0.9,0.2l0.5-1.3l0.7,0l0,1.5l-0.4,0.4
		l0.2,2.8l1.1,0l0.2-0.6l0.9-0.5l0.4,0.7l1,0l0.4,0.7l1,0l0.7-0.7l0.7,0l0.2,0.2l-0.4,0.4l0,0.7l1.4,1.1l0,1.4l0.5,0.6l0.4,0
		l0.9-1.3l0-1.5l-0.7-1.1l0-1.8l0.8-0.2l0.2-0.9l-0.7-0.7l-0.4-1.1l1.8-0.7l0-1.5l-0.7-0.4l0-1.5l-0.3-0.4l0.4-0.4l-0.4-0.7
		l-1.6-0.2l-1.7-2.2l-1.6-0.6l-0.3-1.5l-1.1-1.5l0-0.7l0.5-0.6l0.7,0l0.3,0.7l0.5,0.2l0.4,1.5l1.2,0.5l1.6-0.9l0-1.9l-1.1-1.1
		l0.4-0.7l0.4-0.4l0-1.1l0.5-0.5l0.9,0.2l0.2,1.6l1.4-0.7l1-1.1l0.4,0v0.4l-0.5,0.2l0,0.7l1,0.4l-1,1.1l0.5,0.6l0.7-0.4l0.2,0.2
		l0,0.7l-0.9,0.2l-0.5,0.6l0,0.4l0.7,0.8l-0.3,0.4l0,0.7l0.9,0.2l1.2-2.1l1.2-1.3l0.5,0.2l0.2,0.6l0.7,0l0.3-0.4l1,1.1l1.6,0.2
		l-0.4,0.7l0,1.1l0.3,0.4l-1.7,2.2l0.2,0.5l1.4,0l0.7,0.7l1,0.4l1.6-0.9v-1.8l0.5-0.9l1.4,1.8l0.5-0.2l-0.4-2.6l0.7-0.4l0-1.8
		l-0.9-0.9l-1.4,0l-0.4,0.4l-0.9-0.2l0.3-1.1l-0.9-0.2l-0.4-0.8l-1.4,0l-0.3,1.1l-1,0l-1-1.8l-1.7-0.4l-0.9-0.9l-0.3-1.5l-1.9-1.7
		l-3.2-0.4l-0.4,0.4l-1,0l-0.4-0.4l-0.7,0.7l-0.5-0.6l0-1.1l-2.3-1.3l-2.8,0.4l-0.4-0.4l-0.7,0l-0.5,0.5l0.2,1.3h-1.1l-1-0.7
		l-0.4,0.4l-3.8,0l-0.5-0.6l1.6-0.5l0.5-0.5l0-0.8l-1.2-0.9l-1.4,0l-0.4-0.4l-2.1-0.4l-0.3,0.4h-2.5l-0.5,0.9l0.9,1.3l0.7,0.4l1.4,0
		l0.5,0.6l-0.4,2.2l0.4,0.7l-0.5,0.6l-1.4-0.7l-2.8,2.6h-2.4l-0.4-0.7l-0.7,0l-0.4-0.4l-1.7,0l-0.2,0.9l-0.5,0.6l-1.4,0.4l-0.3-0.4
		l-1.4,0l-0.2,1.3l0.3,0.7l-0.5,0.5l-1.4,0l-0.9-0.6l0-2.2l-0.9-0.2l-1.2,1.7l0.7,1.1l-0.7,0.7v0.7l0.7,0.4l-0.5,0.6l-1.8,0.7
		l-1,1.1h-0.7l-0.9,0.6V168.7z M429.7,170.2l0,1.5l0.5,0.2l0.2-0.2l0-1.1l-0.5-0.6L429.7,170.2z M435.8,161.5l0.7,0l0.2-0.2l0-1.1
		l-0.2-0.2l-1.1,0l-0.2,0.2l0,0.7L435.8,161.5z M451.1,159.5l0.2,0.2l0.7,0l0.5-0.6l-0.2-0.2h-0.7L451.1,159.5z M437.9,160.4
		l0.2-0.2v-0.4l-0.2-0.2l-0.7,0l-0.2,0.2v0.4l0.2,0.2H437.9z M496,174.1h0.3l0.5-0.9l0-1.1l0.3-0.4l-0.2-0.5l-0.7,0l-0.5,0.5l0,1.1
		l-0.3,0.4L496,174.1z M505.8,411.3h0.3l1,1.1l1.4,0l0.4-0.4l1,0l1-0.7l1.6-0.2l-0.5-0.9l-0.7,0l-0.3-0.3l-2.1,0l-0.3-0.4l-2.8,0
		l-0.5,0.5l0,0.7L505.8,411.3z M451.9,154.2l0.9-0.9l-0.5-0.6l-1.1-0.4l-0.7,0.4l-0.5,0.9l1.6,0.2L451.9,154.2z M495.3,172.6
		l0.2-0.2l0-0.3l-0.2-0.2l-0.7,0l-0.2,0.2v0.4l0.2,0.2L495.3,172.6z M445.6,160.1l0.2-0.2l0-0.4l-0.2-0.2l-0.5,0.5l0.1,0.2H445.6z
		 M449.7,177.6l0.5,0.6h0.3l0.5-0.5l-0.2-0.2l-1.1,0L449.7,177.6z M432.3,154.5l1.1,0l0.7-0.4l0.2-0.6l-0.5-0.2l-0.4,0.4h-2.1
		l-0.4,0.4l-1,0l-0.2,0.6l2.3,0.2L432.3,154.5z M429.9,158.2l1.1-0.7l1,0l0.4,0.4l0.7-0.7l1.2-0.5l0-0.8l-0.5-0.6l-1.4,0l-1,0.7
		l-0.4-0.3l-1.1,0.7l-2.1,0l-0.2,0.9l0.9,0.9L429.9,158.2z M455.1,156.8l-0.2,0.2l0.2,0.2h0.4l0.2-0.2l-0.2-0.2H455.1z M474,426.7
		l-0.2,0.2v0.7l0.2,0.2l0.7,0l0.2-0.2l0-1.1l-0.2-0.2l-0.3,0.4L474,426.7z M456.1,157.9l0.2-0.2l-0.2-0.2h-0.4l-0.1,0.2l0.1,0.2
		H456.1z M489.3,420.4h0.4l0.1-0.5l0.7-0.7v-0.4l-0.1-0.2l-1.1,0l-0.2,0.2l0,0.7l-0.3,0.4L489.3,420.4z M481.1,175.3V175l-0.2-0.2
		l-0.7,0l-0.2,0.2v0.4l0.2,0.2l0.7,0L481.1,175.3z M479,176.8l1.2,0.9h0.4l0.5-0.5v-0.4l-0.5-0.6l-1,0L479,176.8z M360,151.2
		l-0.2,0.2l0.5,0.6l0.3,0l0.2-0.2l0-0.4l-0.2-0.2L360,151.2z M375.5,154.7l-0.2-0.2l-0.2,0.2l0,0.4l0.2,0.2l0.2-0.2L375.5,154.7z
		 M411.2,213.7v0.7l0.2,0.2l0.7,0l0.2-0.2V214l-0.5-0.6h-0.3L411.2,213.7z M377.3,155.8l-0.2-0.2h-0.3l-0.2,0.2l0.2,0.2h0.3
		L377.3,155.8z M378,169.5l0-0.4l-0.2-0.2l-0.4,0l-0.2,0.2l0.5,0.6L378,169.5z M373.6,177l-0.2,0.2v0.4l0.2,0.2l0.4,0l0.2-0.2v-0.4
		L374,177L373.6,177z M391.4,180h0.7l0.2-0.6l0.5-0.6l0.3,0.4l0.7,0l0.3-0.4l1.4,0l0.5,0.6l0.2,0.9l1.1,0l0.4,0.4l1.4,0.4l0.9,0.9
		l0.2,1.3l1.9-0.6l0-0.7l-0.3-0.4v-1.8l-0.7-0.4v-0.7l-0.5-0.6l-1.1,0l-0.2-0.6l-0.3-0.4l0.2-0.2l2.1,0l1.7-1.1l1.4,0l1.1-0.7
		l0.2,0.2l-0.4,0.7l0.9,0.9l0.7,0l1.1-0.7l1,0l0.4-0.4l1.1,0l1.1,1.4l1.4,0.4l1.4,1.5h0.3l0.5-0.6l0-0.7l-0.4-0.4l0.2-0.9l1.4,0
		l0.7,0.7l1.6-0.2l-0.9-1.7l-1.9-1.3l0.9-0.5l2.8,0l0.5-0.6l-0.5-0.9l-3.2,0l-1.7,1.1l-1.4-0.4l-1.4,0.7l-0.5-0.2l1.9-0.9l1.6-1.3
		l0-1.1l-1.1-1.1v-0.4l-1.7-0.7l0.4-0.7l-0.2-0.9l-2.4,0.4l-0.2-0.6l-2.6-2l-0.7,0l-0.9-0.6l1.2-0.9h0.7v-0.7l-1.8,0l-0.3-0.3
		l-1.1,0l-0.4-0.4l-1,0l-0.7-0.4l-0.4,0.4l-1.7-0.4l-0.3-1.1h-0.7l-0.4-0.4h-2.8l-0.2-2.8l-0.9-0.6l-0.7,0l-0.7,0.7h-0.3l-0.4,0.4
		l-0.7-1.1l-1.7-0.7l-1.1,0l-0.3-0.4h-2.1l-0.3-0.4l-1.1,0l-2.1-1.9l-0.7,0l-1.8-2.2h-1l-1-0.7l-0.7,0l-2.8-2.6l-1.2,0.2l0.4,0.7
		l4,4.2l1,0.4l2.3,2l0,1.1l-1.6,1.7h-1.8l-2.1-1.5l-1.8-0.7l-0.5-0.6l0-1.5l-2.3-0.9l-0.9-1.3l-0.9-0.9l-0.7,0l0,3H367l-1.1-0.8
		l-0.3,0.8l-0.4,0l-0.3-0.3l-1,0l-0.4,0.4l-1.4,0l-1.4-0.8l-3.1,0l-0.4-0.4l-1,0l-0.3,0.4h-2.4l-0.7-0.4l-0.5,1.3l-0.4,2.6l-0.3,0.7
		l-0.5,0.2l-1.7-1.8l-0.3-0.4l-1.1,0l-1-0.7l-0.5,0.5l0.3,0.7l-0.2,0.9l-0.7,0.3l-1.4,0l-0.3,0.4l-2.1,0l-0.4,0.4l-0.7,0l-1.8-0.7
		l-0.3,0.4l-1.1,0l-0.3,0.4l-1.8,0l-0.2,1.3l-0.7,0.7l0,1.1l-1.6,0.6l-0.2-0.2l0.4-0.7l-1.2-0.2l-0.5,0.6v0.7l2.3,2.4l2.1,0.8
		l0.9,0.9l0,0.4l0.5,0.5l1.4,0l0.7,0.4l0.9-0.6l0.2-0.6l1,0l0.4-0.4l3.8,0.4l1.1-0.7h0.7l1-0.8l0.7,0l2.4-1.8h1.8l0.7,0.7l0.3,0
		l1.4,1.5l1.7,0.4l0.9,0.9l0.7,2.2l0.5,0.2l0.9,1.6l0.2,2.1l0.9-0.2l1.1-1.8l0.2-0.9l0.7,0l0.9,0.9l-0.3,0.7l0,1.1l-0.3,0.4l0,1.1
		l0.5,0.9l1-0.4l0.4-3.3l0.2,0.9l0.9,1.3l1.4,0l0.5-0.6l0-1.1l-0.3-0.4l0.5-0.6l0.3,0l1.4-1.9h1.4l1.1,1.5l1.4,0l0.2-2l0.9-0.5h1.7
		l0.7-0.4l0.7,0.7l1-0.4l1.4,0.7l1.1,0l0.5,0.9l-0.7,1.5l-0.5,0.2l-0.5,0.9l0.7,2.2l0.3,0.4l0,1.5l-0.4,0.4l0.2,0.2l1.4,0l2.1,1.1
		l0.7,0.7l1.1,0.4l1.2,0.6l0.2,0.9l0.7,0l0.4,0.3l0.7-0.4L391.4,180z M374.1,174.2l-0.7-0.7l0.4-0.4l0-0.8l-1.6-1.7h-0.3l-0.5,0.9
		l-1.9,1.3l-0.4,0.7h-0.4l-1.9,1.7l-0.3,0.7l0.7,0.4l0,0.4l-1.2,0.2l-0.5,1.3l0.9,0.2l0.5,0.6l-0.7,0.4l0,0.7l-0.4,0.4l0.9,1l1.4,0
		l0.7-0.4l0.2-1.3l0.4-0.4v-1.1l0.4-0.4l0-1.1l0.4-0.4l0.2-0.9l2.1,0l0.4-0.4l0.5,0.6l0.2,0.9l1,0l0.2-1.3l-0.4-0.4L374.1,174.2z
		 M376.8,167.4l-0.2,0.2v0.4l0.2,0.2h0.4l0.2-0.2l0-0.4l-0.2-0.2H376.8z M377.4,174.4l-0.1,0.2l0.1,0.2l0.7,0l0.2-0.2l-0.2-0.2
		L377.4,174.4z M376.9,170.6l0-1.8l-0.9-0.6l-0.4-0.4l-0.9,0.5l0,1.5l0.7,0.7l0,1.5l1.6,2h0.7l0.9-0.9l0.3-0.7l-1.2-1.7L376.9,170.6
		z M376.2,155.1l-0.2-0.2l-0.2,0.2v0.4l0.2,0.2l0.2-0.2V155.1z M393.9,192.8l-1,0.7l-1.1,0l-0.2,0.9l0.7,0.4l0.2,0.6l1.1,0l0.7-0.7
		l0.9-0.2l0-1.1l-0.5-0.5L393.9,192.8z M395.6,194.3l-0.2,0.9l0.5,0.6l0.7,0l0.9-0.9v-0.4l-0.2-0.2L395.6,194.3z M324.8,138.8
		l0.1,0.2h0.3l0.2-0.2v-0.4l-0.2-0.2H325l-0.2,0.2L324.8,138.8z M402.6,181.1l-0.4-0.4l-0.2,0.6l0.5,0.6h0.4l0.4,0.3l0.4,0l0.2-0.2
		v-0.4l-0.5-0.6L402.6,181.1z M404.7,177l-0.2,0.2v0.4l0.2,0.2l0.3,0l0.5-0.6l-0.2-0.2L404.7,177z M407.3,181.3v-0.4l-1.9-0.2
		l-0.7-0.4l-0.2,0.9l1.9,0.5L407.3,181.3z M405.8,178.5l0.7,0l0.1-0.1l0-0.4l-0.2-0.2l-0.7,0l-0.2,0.2l0,0.3L405.8,178.5z
		 M404.2,176.5l-0.9-0.2l-1.4,0.7l-0.2,0.6l0.7,0.7v1.9l1.2,0.5l0.2-0.9l-0.4-0.4l0-1.9L404.2,176.5z M408,177.9l-0.2-0.2l-0.7,0
		l-0.1,0.2l0,0.4l0.2,0.2l0.3,0L408,177.9z M531,423.4h-1.4l-1.1-1.1l-0.7,0l-0.4,0.4l-1.4,0l-1.1-0.7h-0.7l-0.7,0.7l-1.7,0.4
		l-1,0.7h-2.5l-0.7-0.4l-0.9,0.6l-0.2,0.6l-2.1,0l-1.9-1.7l-0.2-0.9l-2.1,0l-1,0.7l-4.2-0.4l-0.3-0.4l-1,0.7l-1.1,0l-0.4-0.4
		l-0.7,0.4l-2.5,0l-1-1.1h-2.8l-0.7-1.1h-0.4l-1.6,1.3l-0.2,0.5l-1,0l-0.4-0.4l-4.2,0l-0.7,0.7l-0.7,0l-0.3-0.4l-1.8,0l-0.9,0.6
		l-0.7,1.1l0,0.7l-0.9,0.5l-0.4-0.4l-1.4,0l-0.7-0.4l-0.4,0.4h-0.7l-0.5,1.3l-0.7,0.4l-0.2,2h-0.7l-0.4-0.4l-2.1,0l-0.3-0.4
		l-1.1,0.4l-0.7-0.4l-1.7-1.8h-0.3l-1.8-1.5h-0.4l-2.1-2.6l-0.7,0l-0.7-0.8l-0.7,0l-1.6-1.7l-1.1-2.2l-0.7-0.4l0.3-0.4l-0.2-0.5
		l-1.4,0l-1.6-2.8l-1.2-0.9l-1.4,0.3l-0.5,0.6l0.3,3.3l-0.5,0.2l-0.3-0.7h-0.7l-0.9,0.9l-0.2,0.9l-0.5-0.6v-0.7l-0.3-0.4l1-0.4
		l-0.3-1.1l0.3-0.7l-1.2-0.9l-2.8,0l-0.4-0.4l-1,0l-2.8-1.1h-0.7l-0.4,0.4H440l-1.7,1.1h-0.7l-0.3,0.4l-1.1,0l-1.4,0.7l-3.8,0
		l-1.6,1.3l0,0.7l-1.2,1.3l-1,0.4l-1.4,1.1H425l-1.1,0.7l-0.7,0l-1.1,0.7l-0.7,0l-2.1,1.1l-3.2,0l-0.3-0.4l-1.4,0l-0.3-0.4l-3.1,0
		l-0.4-0.4l-1.4,0l-0.3-0.3l-1.1,0l-1.7-0.7l-2.1-1.5l-3.1,0.4l-0.4,0.4l-0.7,0l-1.8,2.2l-0.7,0l-1.6,1.6l-0.7,1.5l-0.7,3.3
		l-0.7,1.1l0,1.5l0.4,0.4l0.3,2.2l1.1,1.5l0.4,1.8l0.7,1.5l0.3,2.2l0.4,0.4l0,1.5l0.3,0.4l0.4,2.6l0.3,0.4l-0.3,0.7l0,1.5l-0.9,1.7
		h-0.4l-0.2,0.5l-1.4,1.5l-0.7,1.8l-1,1.1v0.4l-0.7,0.4l0,0.4l-3.1,2.9l0,0.8l1.2,2.7l0.7,0l2.1-2.2l1.4-0.4l1.7-1.8l1.1-0.4
		l0.7-0.4l0.4,0.4l3.1,0l1.4-0.7l5.6,0.4l0.3-0.4l1.4,0l0.3-0.4l2.1,0l0.3,0.3l2.1,0l0.9,0.9l0,1.1l0.5,0.9l1.7-1.1l1.1,0l0.7-0.4
		l1.7-1.5l2.1-0.4l1-0.7h2.4l1.4-0.7l0.7-0.7l1,0l1-0.7h1.1l0.4-0.4l2.1,0l0.3-0.4l3.8,0l0.4-0.4l2.4,0l1.1-1.1h0.3l1.4-1.8l0.7,0
		l0.2,0.6l0.5,0.2l1.4,0.7l0.2,0.9l0.5,0.2l0.7-0.7l2.1-0.7l0.7-0.7l0.7,0l0.2-0.5l1.6-1.7l2.1,0l1,1.1l1.1,0.7l2.1-0.4l0.4-0.4
		l0.3,0.4h1.8l0.3,0.4l0.7,0l1.1,1.1l2.4,1.1l1-1.1l1.4-0.4l1.7-1.8l1.4,0l0.3,1.1l0.7,0l1.7-1.1l2.5,0l0.3-0.4l2.1-0.4l1.4-1.8
		l1.7,0l1.4-1.1l2.4,0l0.7,0.4l0.3-0.4h0.7l0.9-0.9l0-1.1l0.5-0.6l1.4-0.4l0.3-0.4l0.7,0l1-0.7h0.7l0.3-0.4l2.5,0l1.4,0.7l1.4,0
		l0.3-0.4h0.7l0.9-0.9v-0.4l1.4-1.1l0.2-0.6l1.4,0l0.7-0.7l1.4,0l1-1.1l1.7-0.7l1.4,0.7l1.2-0.2v-1.1l0.4-0.7l1.1-1.1l1.2-2l1.7,0
		l1.1-0.7h2.1l0.4,0.4l2.1,0.4l1.4-0.7l1.1,0.7l1,0l1.7-1.8h0.4l0.7-0.7l1.1,0l1.2-1.7v-0.7L531,423.4z M319.1,165.6l-0.2,0.2l0,0.4
		l0.2,0.2l0.7,0l0.2-0.2l-0.5-0.6L319.1,165.6z M318.2,163.9l-0.9-0.2l-0.7,0.4l-1.6,1.6l0,0.4l-1.7,1.5l0,0.7l0.9,0.6l1.4-0.7
		l1.1,0.4l0.2-0.9l0.5-0.6l0.9-0.2l0.3-1.5l-0.4-0.4L318.2,163.9z M308.5,190.6h-0.7l-0.5,0.9l0.5,0.6l0.7,0l0.5-0.6l0-0.4
		L308.5,190.6z M318,162.3l-0.2,0.2v0.4l0.2,0.2h0.4l0.5-0.6l-0.2-0.2H318z M313.1,168.9l-0.2,0.2l0,0.7l0.2,0.2l0.4-0.4h0.3
		l0.2-0.2l-0.5-0.6L313.1,168.9z M324.8,137.8l0-0.4l-0.8-0.2l-1.2,0.9l0,0.4l1.6,0.2L324.8,137.8z M316.6,163.7l0.2-0.2v-0.4
		l-0.2-0.2l-0.4,0l-0.2,0.2v0.4l0.2,0.2L316.6,163.7z M314.8,165.2l0.5-0.5l-0.2-0.2l-0.4,0l-0.2,0.2l0,0.4L314.8,165.2z
		 M315.6,164.1l0.2-0.2v-0.4l-0.2-0.2l-0.5,0.6l0.2,0.2H315.6z M324.7,161.5l-0.2,0.2l0,0.7l0.2,0.2l0.7,0l0.2-0.2v-0.4l-0.5-0.6
		H324.7z M349.1,181.1l-0.7,0l-0.5,0.5l0,0.4l0.5,0.6l0.7,0l0.7,0l0.2-0.2v-0.7l-0.5-0.6H349.1z M324.5,148.1l-1.2-0.2l-0.7,0.7
		h-0.4l-0.2,0.6l0.9,0.6l0.7,0l0.9-0.9L324.5,148.1z M349.1,180.7l0.2-0.1v-0.4l-0.2-0.2l-0.7,0l-0.2,0.2v0.4l0.2,0.2L349.1,180.7z
		 M353.3,176.3H353l-0.2,0.9l0.9,0.9l0.5-0.6l0-0.7l-0.5-0.2L353.3,176.3z M350.5,181.8l-0.2,0.2v0.4l0.2,0.2l0.7,0l0.2-0.2V182
		l-0.2-0.2L350.5,181.8z M328.7,156.2l-0.5-0.6l-1.4,0.4l-0.3-0.4h-0.7l-0.5,0.9l0.5,0.2l1.4,1.5l0.7,0l0.5-0.5L328.7,156.2z
		 M371.9,175.9l-0.5,0.5l0.5,0.6h0.7l0.2-0.2l0-0.4l-0.5-0.6H371.9z M328.1,164.1l-0.2,0.2v0.7l0.2,0.2l0.4,0l0.5-0.6l-0.5-0.6
		L328.1,164.1z M328.8,157.1l-0.2,0.9l0.7,0.3l0,0.4l0.9,0.9l0.9-0.2l-0.2-2.4H328.8z"/>
</g>

</svg>
