<?xml version="1.0" encoding="utf-8"?>

<svg version="1.2" baseProfile="tiny" xmlns="http://www.w3.org/2000/svg" xmlns:xlink="http://www.w3.org/1999/xlink" x="0px"
	 y="0px" viewBox="331 111.6 176.5 372" xml:space="preserve">

<g id="Vietnam">
	<g>
		<polygon fill="#DA251D" points="471.7,166.7 471.8,166.6 471.7,166.4 471.6,166.3 471.4,166.3 471.1,166.5 471.1,166.6
			471.3,166.7 471.5,166.8 		"/>
		<polygon fill="#DA251D" points="467.2,165 466.9,165 466.8,165.1 466.7,165.1 466.4,165.1 466.3,165.3 466.4,165.4 466.4,165.4
			466.7,165.2 466.9,165.1 467.2,165.1 467.3,165.1 		"/>
		<polygon fill="#DA251D" points="468.9,162.7 468.1,163 468.1,163.1 468.7,163 469.2,163 469,163.1 468.8,163.3 468.7,163.5
			468.7,163.4 468.6,163.1 468.5,163.4 468.4,163.7 468.7,163.6 470.4,163.1 470.5,163 470.7,163 470.9,163.2 471.2,163
			472.2,162.4 472.2,162.3 469.1,162.6 		"/>
		<polygon fill="#DA251D" points="422.6,213.7 422.5,213.8 422.4,213.8 422.3,213.9 422.3,214.1 422.4,214.2 422.5,214.3
			422.6,214.3 422.7,214.1 422.8,214 422.8,213.8 422.6,213.7 		"/>
		<polygon fill="#DA251D" points="465.6,194.8 465.7,194.9 465.8,194.9 465.9,194.9 466,194.8 466.1,194.7 466.1,194.5 465.9,194.5
			465.8,194.7 		"/>
		<polygon fill="#DA251D" points="499,313.5 498.7,313.5 498.5,313.7 498.5,313.8 498.7,313.9 499,314 499.3,314 499.5,313.9
			499.7,313.8 499.6,313.6 499.3,313.5 		"/>
		<polygon fill="#DA251D" points="504.6,356.9 504.4,356.8 504.5,357.1 504.6,357.4 504.7,357.4 504.8,357.4 504.9,357.5
			504.9,357.4 504.9,357.2 504.8,357.2 		"/>
		<polygon fill="#DA251D" points="464,169 464.1,168.9 464.5,167.3 464.5,167.2 464.4,167.3 464.3,167.5 464,168.8 		"/>
		<polygon fill="#DA251D" points="455.3,175 455.2,175 455.4,175.3 455.6,175.6 455.8,175.7 456,175.9 455.7,175.4 455.5,175.1
			"/>
		<polygon fill="#DA251D" points="484.2,299 484,299.2 483.9,299.3 484,299.4 484.2,299.5 484.3,299.5 484.5,299.6 484.5,299.8
			484.5,299.9 484.9,300.2 485.1,300.4 485.2,300.4 485.2,300.3 485.2,299.8 485.1,299.6 484.4,299 		"/>
		<polygon fill="#DA251D" points="455.7,174.9 455.6,175 455.7,175 455.7,175.3 456,175.6 456,175.6 455.9,175.3 455.9,175.1
			455.8,174.9 		"/>
		<polygon fill="#DA251D" points="467.8,163.4 467.7,163.4 467.4,163.3 467,163.5 465.6,164.3 465.4,164.7 465.3,164.7 467.6,163.7
			467.8,163.7 467.9,163.6 467.8,163.5 		"/>
		<polygon fill="#DA251D" points="467.8,172.9 468.1,172.9 468.5,172.3 468.7,172.1 468.8,171.7 468.4,171.7 468,171.9 467.8,172.4
					"/>
		<polygon fill="#DA251D" points="467,172.9 467.2,173 467.2,172.8 466.4,172.2 466.1,172.1 465.9,172.5 466.1,172.7 466.3,172.9
			466.4,173 466.4,173.3 465.9,174.2 466.4,174 466.7,173.7 466.9,173.3 466.8,172.8 466.9,172.8 		"/>
		<polygon fill="#DA251D" points="465,165 464.9,165 464.4,165.2 464,165.7 464,165.8 465,165.1 		"/>
		<polygon fill="#DA251D" points="430.1,456.6 430.7,456.6 431,456.4 431.2,456 431.2,455.4 430.9,455.1 429.6,454.8 429.3,454.5
			429.1,454.3 427.9,453.1 426.8,451.5 426.6,451.4 426.5,451.3 426.4,451.2 426.3,451.3 426.8,452 427,452.4 427.1,452.9
			427.2,453.3 427.5,453.7 428.1,454.5 428.9,455.7 429.2,455.9 429.6,455.9 429.5,455.7 429.1,455.4 428.8,455 428.9,454.8
			429.3,455.1 429.8,455.5 430.2,456 430.1,456.5 		"/>
		<polygon fill="#DA251D" points="503.8,392 504,392 504.1,392.2 504.2,392.1 504.5,392 504.6,391.9 504.5,391.7 504.4,391.6
			504.3,391.5 504.1,391.4 503.2,391.2 502.8,391 502.8,391.3 502.8,391.4 502.6,391.3 502.3,391.3 502.1,391.2 502.1,391.4
			502.3,391.6 502.7,391.9 503.1,392.2 503.6,392.2 503.5,392.1 503.5,392.1 503.5,392.1 503.4,392 503.6,392 		"/>
		<polygon fill="#DA251D" points="435.9,447.7 434.8,447 434.5,446.9 434.3,446.8 434.3,447 435.4,448 436.1,448.4 436.7,449.3
			437.1,449.5 437.3,449.3 437,448.8 436.2,448 		"/>
		<polygon fill="#DA251D" points="391.7,449.7 391.5,449.7 391.3,449.8 391.1,450 390.9,450.2 390.8,450.2 391,450.3 391.2,450.3
			391.3,450.3 391.6,450.4 391.9,450.3 392.1,450 391.9,449.8 		"/>
		<polygon fill="#DA251D" points="456.7,174.1 456.6,174.1 456.5,174.3 456.5,174.2 456.3,174 456.2,174 456,174.1 455.8,174.1
			455.8,174.3 456,174.4 456.6,174.5 456.7,174.5 457,174.4 457.5,173.9 457.6,173.7 457.6,173.6 457.5,173.6 457.4,173.6
			457.4,173.8 457.3,173.8 457.3,173.7 457.2,173.7 456.9,174 		"/>
		<polygon fill="#DA251D" points="363.1,462.4 363.2,462.8 363.6,462.7 363.8,462.4 364.1,462.2 363.8,462.1 362.9,462.2 		"/>
		<polygon fill="#DA251D" points="384.8,452.6 384.7,452.9 384.6,453.4 384.9,453.7 384.9,453.5 384.9,453.3 384.9,452.9
			384.9,452.6 		"/>
		<polygon fill="#DA251D" points="378.3,439.4 378.3,436.8 378.2,436.4 376.4,434.6 376.6,434.7 376.3,434.4 376,434.5 375.8,434.6
			375.6,434.9 375.6,435.1 375.5,435.4 375.4,435.6 375.2,435.7 375.1,435.8 374.9,436.2 374.8,436.3 374.6,436.5 374.1,436.5
			372.6,436.3 372.5,436.4 372.6,436.6 372.8,437.6 373.1,437.9 374,438.4 374.7,438.9 375.2,439.7 375.8,441.5 376.1,443.6
			376.5,444.6 376.9,444.8 377,445 377.4,445.2 377.4,444.8 377.3,444.5 377.3,444.2 377.4,443.7 377,443 377.3,441.7 		"/>
		<polygon fill="#DA251D" points="396.5,482.8 396.4,482.8 396.1,483.2 395.9,483.4 396.1,483.6 396.4,483.5 396.4,483.2
			396.5,483.1 		"/>
		<polygon fill="#DA251D" points="494.5,432.2 494.4,432.5 494.5,432.9 494.8,433.1 495.3,433.2 495.4,432.8 495.2,432.3 494.8,432
					"/>
		<polygon fill="#DA251D" points="453,434.9 453.1,435 453.1,435 453.3,435 453.1,434.7 452.3,434.1 452.1,434.3 452,434.6
			452,434.9 452,435.1 451.8,435.3 451.1,435.6 450.1,435.9 450,436.3 450.3,437.5 450.6,437.2 451.1,436.5 451.5,436.2 452,436
			452.2,435.9 452.4,435.4 452.5,435.3 452.7,435.2 452.8,434.9 452.9,434.9 		"/>
		<polygon fill="#DA251D" points="505.8,383.2 505.9,382.8 505.8,382.5 505.6,382.1 505.6,381.8 505.4,381.5 505.1,381.4
			504.5,381.4 503.9,381.4 503.7,381.8 504,382 504.3,382 504.4,382.2 504.5,382.4 505.4,383 		"/>
		<polygon fill="#DA251D" points="442.1,439 441.6,438.9 441.1,438.7 438.3,438.7 437.7,438.5 436.9,438.2 436.5,438.2 437.6,438.7
			440.8,439.3 441.2,439.5 441.4,439.8 441.6,439.9 441.9,439.8 442.3,439.6 442.4,439.4 442.3,439.1 		"/>
		<polygon fill="#DA251D" points="445.7,436.4 446,436 446.5,435.8 447.7,435.5 447.5,435.3 447.2,435 446.7,434.7 446.5,435
			446.3,435 446.9,433.8 447,433.1 446.5,432.7 446,432.9 445.5,433.1 445.3,433.5 445.5,434.1 445.5,433.7 445.7,433.7
			445.6,434.1 445.3,434.6 445.2,435 445.3,435.3 445.4,435.6 445.5,435.9 445.5,436.4 		"/>
		<polygon fill="#DA251D" points="440.3,475.5 440.2,475.3 440.2,475.3 440.1,475.2 440,475.2 439.3,475.5 438.6,476 437.9,476.6
			437.6,477.2 437.7,477.4 438.1,477.9 438.2,478 438.6,477.9 438.7,477.9 438.6,477.7 438.6,477.6 438.6,477.4 438.6,477.1
			438.7,476.9 438.9,476.8 439.2,476.8 439.4,476.7 439.6,476.7 439.9,476.8 439.8,476.5 439.6,476.1 439.5,475.9 440.1,475.8
			440.1,475.7 440.1,475.6 439.9,475.5 440.2,475.5 		"/>
		<polygon fill="#DA251D" points="445,431.3 444.8,431.5 444.7,431.7 444.8,431.8 445,432.1 445,432.2 445.2,432.4 445.6,432.6
			445.9,432.7 446,432.5 446,432.1 445.8,431.7 445.7,431.4 445.9,431.4 446.1,431.9 446.2,432.1 446.3,432.2 446.5,432.1
			446.5,431.8 446.4,431.6 446.3,431.3 446.4,431.2 446.5,431.2 446.5,431.1 446.5,430.9 446.5,430.8 446.3,430.8 446.2,430.7
			446.1,430.5 445.6,430.2 445.5,430 445.3,430 445,430 444.7,430.1 444.7,430.2 445,430.4 445.1,430.6 445,431.1 		"/>
		<polygon fill="#DA251D" points="444.5,434 444.8,434.1 445.2,434.2 445.2,434.1 444.9,433.6 444.8,433.4 444.4,433.4 444.4,433.2
			445,433.2 445.1,432.9 445,432.5 444.8,432.4 444.7,432.3 444.4,431.9 444.4,431.8 444.4,431.5 444.5,431.4 444.7,431.2
			444.7,430.9 444.6,430.5 444.3,430.2 443.6,430 443.5,429.9 443.2,429.5 443,429.3 442.8,429.2 442.3,429.2 442.9,430.2
			443.1,430.8 442.9,431.4 442.7,431.5 442.3,431.6 442.3,431.6 442.3,432 442.4,432.2 442.4,432.2 442.3,432.9 442.3,433.2
			442.4,433.5 442.7,434.1 443.2,434.8 443.8,435.3 444.4,435.5 444.8,435.4 444.8,434.9 444.6,434.4 444.2,434.1 444.1,434.1
			444.1,434.1 444,434.1 443.9,434.1 444.2,433.9 		"/>
		<polygon fill="#DA251D" points="449.1,173.9 449.5,173.8 449.7,173.7 449.7,173.6 449.6,173.5 449.4,173.2 449.2,173.1
			449.1,173.2 449.1,173.2 448.9,173.2 448.6,173.8 448.7,173.9 448.9,173.9 		"/>
		<polygon fill="#DA251D" points="447.9,174.7 448,174.7 448,174.7 448.1,174.5 448.1,174.4 448.1,174.2 448,174.2 447.6,174.3
			447.8,174.6 447.8,174.6 		"/>
		<polygon fill="#DA251D" points="446.7,173.8 446.6,174.1 447,174.3 447.1,174.1 		"/>
		<polygon fill="#DA251D" points="451.7,178.6 451.6,178.6 451.5,178.7 451.4,178.8 451.3,178.9 451.3,179 451.4,179.1 451.5,179.3
			451.6,179.3 451.7,179.2 451.7,179.1 451.7,179.1 451.7,178.9 		"/>
		<polygon fill="#DA251D" points="446.7,176.6 446.1,176.8 446,177.2 446.3,177.6 447,178 447.3,178.3 447.9,179.1 448.3,179.4
			448.3,179.3 448.3,179.2 448.2,178.9 448.3,178.9 448.4,179 448.6,179.1 448.6,179.3 448.8,179.3 448.8,179.1 449,179.1
			449,179.1 449,179.2 449.1,179.2 449.2,179.3 449.2,179.4 448.6,179.4 448.6,179.6 448.7,179.7 448.8,179.8 449,179.6 449,179.8
			449.1,179.7 449.1,179.7 449.3,179.6 449.3,180.1 449.5,179.7 449.6,179.3 449.8,179.3 449.8,179.4 450,179.4 449.8,179
			449.1,178.6 449,178 449.2,178.2 449.4,178.3 449.7,178.3 450,178.2 450,178 449.8,177.9 449.7,177.7 449.7,177.6 449.8,177.3
			450,177.8 450.2,178 450.5,178 450.3,177.8 450.3,177.8 450.1,177.7 450.1,177.5 450.3,177.6 450.8,177.7 450.6,177.6
			450.5,177.5 450.4,177.3 450.3,177.1 450.1,177.1 449.9,177.2 449.5,177.1 449.2,176.9 449.3,176.6 449.3,176.5 449.1,176.2
			448.8,176.1 448.5,176.2 448.5,176.6 448.3,176.6 448.1,176.4 447.3,176.3 447,175.9 447.2,175.7 447,175.9 446.9,176.1
			446.9,176.3 446.8,176.5 		"/>
		<polygon fill="#DA251D" points="451.3,177.6 451.2,177.6 451.2,177.7 451.1,177.6 451,177.6 451,177.6 451,177.7 451,177.8
			451.1,177.9 451,178 451.1,178.1 451.2,178.5 451.3,178.5 451.4,178.4 451.4,178.3 451.4,178.3 451.4,178.2 451.4,178.2
			451.4,178.1 451.5,178.1 451.5,178.1 451.5,177.9 451.4,177.8 451.3,177.8 451.3,177.6 		"/>
		<polygon fill="#DA251D" points="453.1,175.9 453.2,176 453.2,176 453.3,175.9 453.2,175.8 453,175.6 452.9,175.6 452.8,175.6
			452.7,175.7 453,175.9 453.1,175.9 		"/>
		<polygon fill="#DA251D" points="450.6,176.3 450.5,176.3 450.5,176.3 450.4,176.4 450.4,176.5 450.3,176.5 450.2,176.6
			450.3,176.7 450.4,176.8 450.4,176.8 450.5,176.7 450.7,177 450.9,177 450.9,176.9 450.8,176.8 450.7,176.6 450.6,176.5
			450.6,176.5 450.7,176.3 		"/>
		<polygon fill="#DA251D" points="334.3,134.2 334,134.6 333.9,135.5 333.7,136 333.4,136.4 333.1,136.3 332.7,136.1 332.1,136
			331.7,136.1 331.3,136.3 331,136.7 331.2,137.1 331.3,137.3 331.6,138.1 331.7,138.2 331.9,138.4 331.9,138.5 331.9,138.6
			331.9,138.9 331.9,139.1 332.2,139.5 332.7,139.8 333,140.1 333.2,140.6 333.6,141.1 335.1,141.8 336.8,143.5 337.5,143.9
			337.8,144.1 337.9,144.4 338.2,145 338.3,145.3 338.8,145.7 339.4,146.1 339.8,146.4 339.6,146.7 339.5,146.8 339.4,146.9
			339.4,147 339.4,147.1 339.7,148 340.6,148.5 341.6,148.9 342.4,149.5 343.2,151.3 343.4,152.4 343.3,153.9 343.4,154.5
			343.5,155.1 343.6,155.5 343.8,155.7 343.9,155.8 344,155.7 345.2,155.7 345.5,155.6 346.2,155.1 346.8,154.5 347.1,153.6
			347.1,151.6 347.6,151.2 348,151.5 348.2,152.7 348.2,153.7 348.2,154.2 348.5,154.5 348.9,154.5 350.7,153.8 350.8,153.7
			350.9,153.7 351.1,154 351.2,154.3 351.3,154.6 351.3,156.4 351.3,157 351.6,157.6 351.6,157.6 351.6,157.7 351.6,157.8
			351.6,157.9 351.1,158.3 350.2,159.4 349.7,159.9 348.6,161.7 348.9,161.5 349.4,161.2 349.9,161 350.2,161.1 350.2,161.4
			349.4,162.6 349.3,163.2 349.3,164.3 349.2,164.8 348.9,165.1 348.1,165.3 347.7,165.6 347.4,166.1 347.6,166.2 348.1,166.1
			348.6,166.1 349,166.3 349.3,166.5 349.5,166.8 349.6,167.1 349.6,167.3 349.4,167.8 349.4,168.1 349.5,168.3 349.7,168.4
			349.9,168.4 350.1,168.5 350.4,169 350.6,170 350.8,170.4 350.9,170.6 351,170.8 351.2,170.9 351.6,170.9 352.2,171.1
			352.5,171.6 353.1,172.7 353.8,174.3 354.3,175.1 355,175.9 355.3,176.3 355.5,176.4 355.7,176.5 356.2,176.6 356.4,176.6
			356.6,176.7 356.9,177 357.2,177.1 357.4,177.1 357.9,176.9 358.1,176.9 358.5,177 359.9,177.8 360.5,178 360.8,178 360.9,178
			361.6,177.8 362.1,177.6 362.2,177.4 362.3,177.2 362.4,177.2 362.8,177.3 363.1,177.6 363.5,178.4 363.8,178.8 363.9,178.9
			364.1,179 364.3,179.1 364.6,179.1 364.6,179.1 364.6,179.1 364.6,179.1 366.1,179.4 366.5,179.7 367.5,180.7 368,181.1
			368.1,181.2 368.2,181.3 368.4,181.4 368.6,181.3 368.9,181.2 369.2,181.1 369.3,181 369.3,180.8 369.1,180.3 369.1,180
			369.2,179.7 369.3,179.6 369.5,179.6 369.8,179.5 370.3,179.2 370.4,179 370.3,178.7 370.3,178.2 370.4,177.8 370.6,177.3
			370.8,176.8 371,176.5 371.3,176.4 371.8,176.5 372,176.5 372.3,176.4 372.6,176 372.8,175.9 374.6,175.4 375,175.1 375.3,175.1
			375.6,175.1 376.4,174.9 377.6,173.6 378.4,173.6 378.6,173.7 378.9,173.9 379.1,174 379.4,174.1 379.9,174.1 380.2,174.1
			380.8,174.4 381,174.5 381.2,174.7 381.4,175.2 381.5,175.3 381.7,175.3 382.2,175.2 382.4,175.2 382.7,175.2 382.9,175.4
			383.1,175.5 383.3,175.7 383.6,176 384,176.8 384.3,177.2 384.5,177.3 384.8,177.5 385,177.6 385.2,177.8 385.4,178.2
			385.5,178.4 386,178.6 386.6,178.6 387.1,178.6 387.4,179 387.6,179.8 388,180.2 389.3,180.8 390.6,181.3 391,181.6 390.8,182.3
			389.2,184.4 388.7,184.9 388.1,185 387.5,184.9 386.9,184.5 386.4,185.5 386.4,185.5 385,186.4 384.8,186.9 385.6,187.4
			386.6,187.6 390,187.5 390.3,187.7 390.9,188.5 391.3,188.8 392.2,189.1 392.5,189.4 392.6,189.6 392.7,189.9 392.7,190.2
			392.7,190.4 392.6,190.8 392.4,190.8 392.2,190.8 392,191 391.9,191.3 391.8,191.8 391.9,192.3 392,192.7 392.8,193.1
			393.8,192.9 394.9,192.5 395.9,192.4 398,193.6 398,193.8 397.9,194.1 397.9,194.6 398.2,195.1 399.2,195.7 399.3,196.1
			399.3,196.2 398.9,196.3 398.9,196.4 398.8,196.5 398.9,196.7 399,197.2 399,197.5 399.1,197.8 399,198.2 398.7,198.5
			398.3,198.5 397.6,198.4 397.2,198.5 397.1,198.6 397,198.8 396.8,199.2 396.2,199.6 394.9,200.4 394.5,201 394.3,201.4
			394.5,201.6 395.2,201.6 395.6,201.8 395.8,201.9 395.8,202.1 395.8,202.6 395.5,203.4 395,203.7 394.5,204 393.9,204.5
			393.4,204.7 393.1,204.7 392.8,204.8 392.4,205 392.1,205.4 391.9,205.7 391.1,207.7 390.9,208 390.7,208 390.3,207.8
			390.1,207.7 389.9,207.8 389.5,208.1 389.3,208.2 388.7,208.2 388.3,208.1 387,207.3 386.4,207 386.2,206.9 385.8,206.6
			385.6,206.3 385.3,206 384.8,206 384.4,206.1 383.3,206.8 382.8,206.1 382,205.8 381.7,205.5 380,206 379.5,206 379.3,206.1
			379.2,206.3 379,206.7 378.8,206.8 378.3,206.9 377.9,206.7 376.7,206.1 376.4,206.1 376.2,206.2 376.1,206.6 376.1,206.9
			376.6,208.2 376.9,208.6 377.6,209 377.9,209.2 378.1,209.7 378.1,210.1 378.2,210.5 378.5,210.8 378.5,210.8 378.5,210.9
			378.5,210.9 378.4,211.2 378.1,211.3 377.9,211.3 377.6,211.5 377.5,211.7 377.4,212.3 377.3,212.6 377.1,212.9 377.1,212.9
			377,212.8 376.7,212.9 376.1,213.1 375.6,213.4 375.1,213.5 374.8,213.7 374.3,214.5 373.9,214.7 373.1,215.1 372.8,215.4
			372.6,215.8 372.8,215.9 373.2,215.9 373.6,216 373.9,216.6 374.1,216.7 374.2,216.9 374.8,217.2 375.5,217.7 375.6,217.7
			376.1,217.5 376.6,217.4 377.1,217.6 379.7,218.8 380.7,219.4 381,219.7 381,220.2 381,220.6 381.3,220.8 381.9,220.6
			382.4,220.7 382.8,221 383.1,221.3 383.5,221.6 383.9,221.8 384.3,222 384.7,222.2 385.1,222.5 385.8,223.6 386.1,223.8
			386.5,223.9 387.3,223.8 387.7,223.9 388.1,224.2 388.4,224.5 389.3,225.7 389.5,226 390.3,226.4 390.7,226.7 391.3,227.3
			391.7,227.6 391.9,227.7 392.4,227.7 392.7,227.8 392.8,227.9 393.1,228.4 393.2,228.5 393.5,228.6 394.5,228.8 395.4,229
			395.8,229.1 397.1,229 397.8,229.2 398,229.8 398.3,230 398.7,230.2 399.2,230.1 399.6,230 400,230.1 401.2,230.8 401.7,231
			402,231 402.3,230.9 402.6,230.9 402.9,231 403.6,232.1 404.1,232.5 404.3,232.7 404.3,233.1 404.1,233.5 403.8,233.5
			403.6,233.4 403.3,233.5 402.9,233.9 402.6,234.7 402.2,236.1 402.1,237.1 402.4,237.8 402.9,238.4 403.7,238.9 404.1,239.3
			404.1,239.6 403.9,240 404,240.5 404.2,240.8 405.4,241.6 405.5,241.7 405.7,242.1 405.9,242.3 406.1,242.3 407,242.3
			407.1,242.2 407.2,242.2 407.4,242.5 407.4,242.7 407.3,243.3 407.3,243.6 407.5,244 407.9,244.3 408.4,244.4 408.7,244.5
			408.9,244.6 409,244.7 409,244.8 409.3,244.6 409.4,244.4 409.5,243.9 409.6,243.7 410,243.5 410.5,243.5 411,243.7 411.4,244
			411.5,244.2 411.7,244.9 411.7,245.1 411.7,245.2 411.6,245.3 411.6,245.3 411.7,245.4 412,245.5 412.1,245.6 412.5,246.5
			412.7,246.6 413.1,246.9 413.3,247.1 413.4,247.3 413.5,247.9 413.6,248.1 413.8,248.3 414.4,248.6 414.4,248.6 414.7,249.4
			414.5,251.3 414.7,252.2 415.7,253 416.3,254.2 416.8,254.9 417,255.4 417.3,256.3 417.6,256.7 417.8,257 419.1,257.5 419.9,258
			420.5,258.6 421.4,259.7 427.1,242.1 427.1,242.1 426.7,242.2 426.4,242 426.9,241.9 426.8,241.6 426.6,241.3 425.3,240.2
			424.4,239 424.2,238.9 423.7,238.4 423.4,238.1 423.2,237.7 423.1,237.2 423,236.7 422.2,236.7 421.3,235.7 420,233.6
			419.5,231.8 419.3,231.5 419.2,231.2 419.2,230.5 419,229.8 418.6,229.5 418.6,229.5 418.7,231.1 418.7,231.7 418.2,231.9
			418.3,231.5 418.4,231 418.4,230.5 418.1,230.3 418,230.2 418.4,229.1 418.3,228.8 418,228.4 417.5,227.8 417.3,227.8
			416.9,227.8 416.7,227.8 416.7,227.6 416.4,227 416.7,227.1 416.8,227.2 417,227.3 417.1,227.6 417.4,227.2 417.4,227
			416.9,226.9 416.3,226.5 415.8,226.1 415.4,225.7 415.3,225.3 415.1,224.5 415.1,224.2 415.1,224 414.9,223.7 415,223.4
			415.2,222.7 415.7,221.7 416.2,221.1 416.9,221.3 417,221.1 417.3,220.9 417.9,220.6 417.7,220 417.8,219.1 418,217.5
			418.1,217.4 418.4,217.4 418.7,217.4 419,216.7 419.1,216.6 419.3,216.6 419.5,216.5 419.6,216.3 419.7,215.8 419.5,215.7
			419.4,215.8 419.3,215.5 419.2,215.3 419.7,215.6 419.7,215.3 419.2,214.4 419.1,213.7 419,213.4 418.7,213.2 418.7,213
			419,213.2 419.4,212.5 419.7,212.7 419.6,211.7 419.9,209.8 419.9,208.9 419.8,208.9 419.7,208.7 419.7,208.5 419.7,208.2
			419.5,208 419.5,208.1 419.3,208.3 419.2,208.5 419.2,208.1 419.5,207.9 419.8,208 419.9,208.5 420,208.2 420,207.5 420,207.1
			420.2,206.7 420.7,205.9 420.9,205.5 421,205.1 421.4,205.1 421.7,205.1 421.8,205 421.9,204.6 422.4,204 422.5,203.6
			422.2,203.8 421.5,203.9 421.2,204 421,203.8 421.7,203.5 422,203.2 422.2,203 422.4,203.2 422.5,203.3 422.6,203 422.6,202.3
			422.7,201.9 423.2,201.2 423.2,201 423,200.6 423,200.3 423.1,200 423.4,199.7 424.4,198.7 424.7,198.4 424.8,198.1 425,198.1
			425.1,198.4 425.5,198.6 425.9,198.9 426.2,199 426.3,198.7 426.7,197.6 426.8,197.2 427,197.2 426.9,197.7 426.7,198.2
			426.6,198.6 426.8,199 427.2,198.7 428.1,198.5 428.4,198.3 428.6,198 428.9,197.2 429.1,196.9 429.3,197 429.2,197.2
			428.9,197.7 429.3,197.5 429.9,196.8 430.4,196.5 431,195.7 431.5,195.3 432.4,194.3 432.7,193.6 432.9,193.4 433.4,193.2
			433.5,193 433.3,192.9 433.3,192.7 433.6,192.6 433.7,192.5 433.8,192.5 433.8,192.7 433.7,192.7 433.7,192.9 435.3,192.7
			435.6,192.6 436.2,192.3 436.7,192.1 437,191.8 437.2,191.5 437.3,191.3 437.4,191.1 437.5,191.1 437.5,191 437.5,190.8
			437.4,190.7 436.8,190.2 436.7,190.5 436.5,190.6 436.3,190.5 436.2,190.2 436.3,190.2 436.7,190.1 437.1,190.2 437.4,190.5
			437.6,190.8 437.9,190.6 438,190.2 438.1,189.8 438.2,189.5 438.3,189.2 438.1,188.9 437.6,188.5 437.7,188.5 437.8,188.5
			437.8,188.4 437.8,188.3 437.8,188.5 438,188.7 438.2,188.4 438.4,187.8 438.5,186.7 438.2,186.4 437.7,186.5 437.1,186.7
			436.8,186.9 436.7,186.9 436.8,186.7 436.9,186.5 437.1,186.3 437.2,186.2 437.3,186.2 438,185.9 438.1,185.9 438.2,185.5
			438,185.1 437.8,184.7 438.1,184.3 438.1,184.1 437.4,184.5 437.1,184.5 436.7,184.3 438.2,183.7 438.7,183.2 439.1,183
			439.2,182.9 439.3,182.8 439.3,182.7 439.3,182.4 439.2,182.3 439.1,182.3 439,182.2 438.6,181.8 438.4,181.6 438.3,181.2
			438.6,181.4 438.9,181.9 439.1,182 439.5,182.1 439.9,182 440.3,181.9 440.6,181.7 441.1,181.3 441.1,181 440.7,180.7
			440.1,180.5 440.1,180.3 440.4,180.3 441.1,180.5 441.4,180.5 441.6,180.4 441.8,180.3 442,180.3 442.1,180.2 442.3,180
			442.6,179.9 442.7,180.1 442.8,180.2 443.1,180.5 443.5,180.8 443.1,179.5 442.9,179.1 442.7,179.3 442.3,178.9 441.9,178.5
			441.6,178 441.4,177.5 441.9,177.8 442.2,177.6 442.3,177 442.1,176.5 441.7,176.1 441.2,175.9 441,175.6 441.4,175.1
			441.9,175.6 442.1,175.6 442.1,175.3 442.4,174.9 442.4,174.6 442.3,174.2 442.1,174.1 441.8,174.1 441.3,173.8 440.7,173.8
			440.4,173.6 440.3,173.4 440.3,173.1 440.2,172.8 439.9,172.6 439.9,172.4 440.4,172.5 440.6,172.6 440.6,172.4 439.9,172.1
			439.6,172.1 440,172 440.5,172.1 441.4,172.4 441.4,172.3 441.3,172.3 441.3,172.1 441.7,171.8 442.1,172 442.5,172.2
			443.1,172.3 443,172.2 442.9,172 442.9,171.9 443.2,171.9 443.4,172 443.5,172.1 443.7,172.3 443.4,172.5 443.5,172.7
			443.7,172.8 443.9,173 443.9,173.2 443.8,173.4 443.6,173.5 443.1,173.5 442.8,173.7 443,174.1 443.5,174.3 444,174.2
			444.2,174.2 444.3,174.4 444.3,174.4 444.2,174.5 444.7,174.9 444.8,175.4 445,175.6 445.5,174.9 445.4,174.8 445.3,174.6
			445.2,174.4 445.2,174.2 445.4,174.2 445.6,174.7 445.8,174.9 446.2,175 446.8,175.1 446.8,174.9 446.6,174.8 446.5,174.6
			446.4,174.4 446.3,174.2 446.2,174.1 445.7,173.8 445.4,173.6 444.7,172.8 444.9,172.8 444.9,172.8 445,173 445.2,172.7
			445.4,172.8 446,173.3 446.3,173.5 446.6,173.6 446.9,173.8 447.3,173.8 447.8,173.9 448.2,173.8 448.6,173.7 448.8,173.3
			448.7,172.9 448.1,172.4 448.2,172.1 448.6,172.5 448.8,172.6 449.2,172.6 448.8,172.3 449.1,172.3 449.2,172.3 449,172.1
			448.9,172 448.8,171.9 448.8,171.7 449.1,171.8 449.3,172 449.3,172.2 449.3,172.6 449.4,172.4 449.5,172.2 449.5,172
			449.5,171.7 449.6,171.7 449.6,172.2 449.7,172.4 449.9,172.2 450.1,171.7 450.2,171.8 450.2,171.8 450.3,171.9 450.2,172
			450.2,172.2 450.1,172.4 450.2,172.4 450.4,172.4 450.5,172.2 450.5,172.1 450.6,171.9 450.9,171.7 451.2,171.6 451.5,171.6
			451.8,171.6 451.8,171.7 450.5,172.6 449.8,173.5 449.8,173.6 450.3,173.8 451.4,174 451.8,174.4 451.8,174.2 452.1,174.3
			452.3,174.3 452.6,174.2 452.9,174.2 452.9,173.8 453.4,173.2 453.8,173.1 453.8,173 453.6,172.9 453.5,172.9 453.4,172.8
			453.3,172.8 453.6,172.6 454.1,172.5 454.6,172.5 454.9,172.6 455.2,172.5 455.7,172.5 456.2,172.4 456.6,172.3 456.8,172.2
			457.2,171.9 457.2,171.7 457,171.6 456.9,171.3 456.8,170.9 456.7,170.5 456.9,170.4 457,170.3 457,170.2 456.9,170 457.2,169.6
			457.4,169 457.5,167.9 457.3,168 457.1,167.9 456.9,167.8 456.7,167.7 456.8,167.4 456.9,166.5 457,166.3 457.1,166.1 457.2,166
			457,165.8 457,165.6 457.6,165.4 458.4,165.4 458.9,165.2 458.9,165.1 458.2,164.7 458,164.5 458.2,164.2 459,164.4 459.2,164.4
			459.3,164.7 459.5,164.8 459.8,164.9 459.8,164.9 460.3,165 460.9,164.9 461.1,164.9 460.8,164.7 460.8,164.5 460.9,164.3
			460.8,164 460.7,163.8 460.7,163.7 461.1,163.8 461.2,164 461.2,164.2 461.3,164.5 461.5,164.8 461.7,165 462,165 462.4,165.1
			462.6,164.9 462.7,164.6 462.8,164 463.2,164.1 463.3,164.2 463.3,164.1 463.3,164 463.2,164.1 463.1,164 463.5,163.9
			463.6,163.8 463.4,163.7 463.4,163.5 463.4,163.4 463.6,163.3 463.6,163.1 463.5,163 463.5,163 463.5,162.9 463.5,162.8
			463.8,162.9 464.1,162.9 464.3,162.7 464.1,162.4 464.1,162.3 464.2,162.2 464.3,162.1 464.5,162.1 464.6,162.3 465,162.4
			465.3,162.4 465.4,162.2 465.5,162.1 465.7,162.1 466.2,162.1 466.6,161.4 466.4,161.2 466.5,161.1 466.6,160.9 466.8,160.9
			467.1,160.9 467,160.7 467,160.3 466.9,160.2 467.2,160.3 467.1,159.9 466.9,159.7 466.7,159.6 466.3,159.6 466.3,159.4
			466.6,159.3 467,159.2 467.3,159.3 467.4,159.8 467.6,159.6 467.7,160 467.9,160 467.9,159.6 467.8,159.6 467.7,159.4
			467.7,159.3 467.9,159.1 468.1,159.1 468,159.6 468.1,159.9 468.3,160.1 468.6,160 468.8,159.3 468.9,159 469.1,159.4
			469.2,159.4 469.4,159.2 469.4,159.1 469.4,158.9 469.7,159 470,159.1 470.3,159.3 470.4,159.7 470.4,159.8 470.4,159.9
			470.5,160 470.5,160.2 470.5,160.3 470.3,160.4 470.2,160.6 470.2,160.9 470.5,161.3 471,160.9 471.5,160.4 472,160.2 470.9,159
			470.5,158.9 469.7,158 469,157.5 468.7,157.2 468.5,156.8 468.4,156.5 468.2,156.2 467.7,156 466.9,155.8 466.4,155.7
			466.1,155.7 465.7,155.9 464.8,156.6 464.3,156.8 462.9,157.1 462.4,157.1 461.4,156.9 461,157 460.8,157.1 460.6,157.5
			460.4,157.7 460.2,157.7 460,157.6 459.6,157.5 459.3,157.3 459.2,156.4 458.9,156 458.4,155.9 458,156.1 457.4,156.7
			456.6,157.2 456.1,156.8 455.5,154.9 454.7,154.2 454.1,154.3 453.3,154.5 452.3,154.3 450.5,152.6 449.8,152.2 448.8,152
			448.3,151.8 447.9,151.5 447.9,150.9 448.1,150.5 448.5,150.1 448.7,149.7 448.7,149.2 448.4,148.8 448,148.6 447.5,148.6
			447.1,148.8 446.7,149 446.3,149.1 445.8,148.8 445.5,148.4 445.2,148 445,147.8 444.4,147.6 443.4,147.6 443,147.6 442.5,147.3
			442.3,147.2 442.2,146.9 442,146.8 441.7,146.7 441.5,146.8 440.8,147.6 440.4,147.9 440,147.9 439.9,147.7 439.8,147.5
			439.8,147.3 439.8,147.1 440.2,145.8 440.4,145.2 440.3,144.6 440.3,144.5 440.1,144.2 440,144.1 440,143.8 440.1,143.4
			440.1,143.2 439.9,142.9 439.8,142.7 439.6,142.4 439.6,142 439.8,141.6 440.1,141.4 440.1,141.2 439.6,139.3 439.4,139
			439,138.6 438.1,138.6 437.5,138.4 437.2,138 437.1,137.6 437,136.7 436.8,135.9 436.8,135.6 436.9,135.4 437.2,135 437.3,134.8
			437.9,132.1 438,131.6 438.3,131.3 438.8,131.2 439.1,131.5 439.3,132 439.7,132.3 440.2,132.3 440.5,132 440.9,130.7
			441.1,130.3 441.6,129.5 441.9,129 442,128.2 442.1,127.7 442.4,127.5 443.2,127 443.4,126.7 443.2,126.4 442.6,126.3
			442.1,126.4 441.7,126.4 441.7,126.3 441.4,125.6 440.6,125 440.4,124.7 440.2,124.5 440,124.5 439.7,124.6 439.6,124.9
			439.4,125 438.8,124.9 438.6,124.6 438.4,124.2 438.2,123.8 437.8,123.6 436.6,123.3 436.2,123.1 435.9,123 435.7,123.2
			435.6,123.8 435.2,124 431.8,124.9 431.3,125 430.8,125 430.3,124.9 429.8,124.6 429.7,124.3 429.5,123.4 429.1,122.5 428.3,122
			427.4,121.8 426.1,121.6 424.2,121.7 424,121.9 423.6,122.7 423.3,122.9 422.9,123 422.1,123.1 421.9,123 421.5,122.9 421.2,123
			421.1,123.1 421,123.3 420.9,123.5 420.7,123.6 420.3,123.3 418.9,121.7 418.6,121.2 418.6,121.2 418.6,121.2 418.3,121
			418,120.8 417.8,120.7 417.5,120.6 417,120.1 416.8,120 416.2,120 415.5,119.8 413.8,119.7 413.4,119.6 413.1,119.2 413,118.7
			413,117.6 412.9,117.1 412.6,116.8 411.6,116.1 411.3,115.8 410.9,114.7 410.9,114.7 410.5,114.2 410.4,114 410.1,113.9
			410,113.9 409.8,114 409.5,114 409.2,113.8 408.8,113.5 408.5,113.2 408.2,112.9 408,112.4 407.9,111.9 407.7,111.6 407.2,111.6
			406.9,111.8 406.1,112.5 405.9,112.8 405.7,113.3 405.6,113.8 405.4,114.2 405,114.5 404.7,114.6 404.6,114.5 404.4,114.4
			404.3,114.4 404.2,114.3 404,114.2 403.9,114.2 403.8,114.2 403.7,114.3 403.7,114.4 403.6,114.5 401.7,115.1 401.3,115.2
			400.6,115.7 399.8,116.2 398.9,117 398.6,117.1 398.3,117.1 397.7,116.7 397.3,116.7 397.1,116.9 397,117.2 397,117.6 396.9,118
			396.3,118.5 395.7,118.6 395.3,118.9 396,122.3 396.1,122.8 396,123.1 394.8,123.8 394.5,124.1 393.7,125.3 393.4,125.6
			393,125.8 392.6,126 392.1,126 391.3,125.8 390.8,125.7 390.7,125.8 390.5,126.1 390.3,126.1 390.1,126.1 390,126 389.9,125.9
			389.7,125.8 389.7,125.7 389.7,125.5 389.7,125.4 389.5,125.4 389.4,125.4 389,125.9 387.4,127.2 387,127.7 384.7,129.2
			384.4,129.2 384,129.1 383.5,128.8 382.2,128.1 381.9,127.8 381.7,127.3 381.7,126.7 381.8,126.2 382,125.7 381.3,125.6
			379.3,126.4 378.6,126.4 378.3,126.5 378,126.7 377.8,127 377.5,127.5 377.3,127.7 376.8,128.4 376.5,129.1 376.4,130.7
			376.3,131.1 376,131.8 375.8,132.2 375.8,132.6 375.9,133 375.8,133.3 375.6,133.7 375.2,133.9 375,133.6 374.8,133.4
			374.4,133.3 374.2,133.2 373.9,132.5 373.7,132.3 373.5,132.2 373.1,132.1 373,132.1 372.5,131.5 372.3,131.4 372.1,131.2
			371.6,130.5 371.5,130.2 371.3,129.9 369.6,128.5 368,126.5 367.7,126.3 366.7,126.9 366.4,127.1 366.2,127.4 366,127.8
			365.8,128.2 365.3,128.9 365.3,129.1 365.4,130.4 365.3,130.7 364.5,131.8 364.3,131.9 363.8,131.9 363.6,131.7 362.9,131
			362.1,129.5 361.9,129.2 361.9,128.7 361.9,128.3 361.8,127.9 361.5,127.7 361.3,127.4 361,127.1 360.8,126.9 360.5,126.7
			359.9,126.5 359.6,126.6 358.7,128.3 358.3,129.4 358.1,129.7 357.7,130 356.2,130.8 355.6,131.3 355.3,132 355.4,132.2
			355.7,132.6 355.7,132.9 355.6,133.1 354.4,133.9 354,134.1 353.6,134.2 353.3,134.4 353.3,134.7 353.4,135.2 353.3,135.6
			352.9,135.9 352.4,135.8 351.9,135.7 351.2,135.1 350.3,134.8 349.9,134.6 349.6,134.4 348.8,132.7 348.7,132.3 348.5,131.8
			348.2,131.5 347.7,131.2 346.7,131 346.2,130.8 344.8,129.6 344.3,129.4 343.4,129.3 342.9,129.1 342.7,129 342.4,128.6
			342.3,128.5 342,128.5 341.9,128.7 341.8,128.9 341.6,129 341.1,129 340.9,128.7 340.8,128.2 340.6,127.7 340.1,127.3
			339.4,127.1 338.8,127.2 338.4,127.7 338.4,127.7 338.2,128.6 338,129 337.7,129.4 337.4,129.5 337.1,129.4 336.9,129.5
			336.7,129.7 336.7,129.9 336.9,130.1 337.1,130.3 337.3,130.5 337.4,130.7 337.4,130.7 337.2,131.1 		"/>
		<polygon fill="#DA251D" points="489.5,363.8 456.6,339.9 456.6,339.9 456.7,340.1 456.9,340.6 456.9,340.8 456.9,341.1
			456.8,341.9 456,344.3 455.9,344.9 456,345.2 456.2,345.4 456.5,345.8 456.5,346.3 456.4,346.8 456.4,347.3 456.7,347.8
			457.1,347.9 458,347.8 458.4,348 458.5,348.2 458.6,348.4 458.5,348.7 458.5,348.9 458.9,349.6 459,350 458.9,350.3 458.8,350.6
			458.6,351 458.9,351.8 458.9,352 458.7,352.5 458.7,352.8 458.8,353.1 459.3,353.7 459.5,354.1 459.6,354.2 460.1,354.8
			460.5,355.4 462.5,359.2 462.7,360.1 462.9,362.5 462.8,363.3 459.3,371.8 459.3,372.2 459.7,372.4 459.7,372.6 459.8,372.8
			459.7,372.9 459.6,373 459.4,373.2 459.4,373.5 459.4,373.8 459.7,374.4 459.8,375.1 459.9,375.5 460.1,375.8 460.7,376.6
			461.1,377.2 461.1,377.9 461.1,378.5 461.2,379.3 461.8,382 461.8,382.8 461.7,383.5 461.6,383.8 461.4,384.1 461.4,384.3
			461.6,384.7 461.6,385.2 460.9,387.2 460.7,387.8 460.5,388.4 460.2,388.8 459.6,389.1 459,389.5 458.2,390.6 457.6,390.6
			457.2,390.2 456.5,389.1 455.9,388.7 454.8,388.8 453.3,389.3 451.9,390 451.2,390.8 451,391.1 450.7,391.4 450.1,391.8
			449.3,392.8 447.7,394.4 447.1,394.8 446.2,395.1 445.3,395.2 443.5,395.1 442.7,395.2 442.2,395.5 441.8,396.1 441.5,396.9
			441,397.5 440.5,397.6 439.3,397.4 439.5,397.7 437.5,397.4 436.3,397.4 435.6,397.9 435.3,397.9 435.1,397.8 435,397.5
			434.8,397.4 434.5,397.3 434.2,397.4 433.7,397.5 433.9,398.2 434.6,399.5 434.7,400.1 434.7,400.2 434.3,400.7 434.3,400.9
			434.3,401.4 434.2,401.6 434.1,401.9 433.9,402.2 433.7,402.6 433.8,403 434.4,404.1 434.6,404.6 434.4,405 434.1,405
			433.8,404.8 433.3,404.5 432.9,404.4 432.7,404.3 432.4,404.3 431.1,404.7 430.8,404.6 430.6,404.5 430.2,403.9 430,403.7
			429.6,403.5 427.9,403 426.9,402.9 425.7,402.5 424.6,402.4 424,403 424,403.3 423.9,403.6 423.8,403.9 423.1,404.6 422.9,405.1
			422.6,405.5 421.9,405.4 420.8,405 420.4,405.1 419.8,405.6 419.5,405.9 419.2,406.3 419.2,406.8 419.5,407.3 419.8,407.5
			420.4,407.6 420.7,407.8 420.8,408.1 420.8,408.4 420.8,409 421.1,410.3 421.2,410.7 421.1,411.1 420.8,411.9 420.4,413.7
			420.5,414.1 420.8,414.3 421.2,414.4 421.5,414.6 421.5,415.1 421.5,415.1 421.8,415.8 422.3,416.2 423.6,416.5 423.9,416.8
			424.5,417.7 424.9,418.1 425.7,418.8 426,419.2 426.3,419.7 426.5,419.2 426.9,419 427.3,419.1 427.8,419.4 428,419.8
			428.4,421.2 428.7,421.7 428.5,421.8 427.8,421.8 427.4,421.9 427.3,421.9 427.1,422.2 427.2,422.2 427.2,422.9 427.1,422.9
			427.2,423.3 427.8,424.4 428.5,426.8 427.9,426.3 427.3,426.2 425.9,426 425.3,425.8 424.6,425.5 424,425 423.6,424.5
			423.4,424.3 422.5,423.6 422.5,424 422.3,424.6 422,425 421.8,425.3 421.3,425.3 420.9,425 420.5,424.6 420.4,424.3 420.1,423.4
			419.9,423.1 419.1,421.9 418.7,421.2 418.3,420.7 417.6,420.7 416.9,420.9 416.4,421.2 416.4,421.2 415.9,421.5 415.4,421.7
			411.6,422.5 411.4,422.5 410.8,422.2 410.2,422.1 410,422 409.7,422.2 408.8,423.3 408.1,424.8 407.8,425 407.5,424.9
			406.6,424.2 406.3,423.9 402.9,423.3 402.5,423.2 402.3,422.8 402.2,422.5 402.1,422.4 401.5,422.7 401.2,422.9 400.9,423.2
			400.6,423.5 400.5,423.9 400.6,424.8 400.9,425.7 401.8,427.3 401.8,428.1 401.2,428.6 398.9,429.8 398.5,430.1 398.3,430.4
			397.3,431.9 396.7,432.5 395.8,432.8 394.8,432.9 391.2,432.4 390.2,432.5 389.8,432.6 389.5,432.8 389.3,433.2 389.1,433.5
			388.1,435 387.8,435.2 387.5,435.3 387,435.2 387.1,435.5 387.1,435.9 387.1,436.2 387.5,436.2 387.9,436.1 388.2,435.9
			388.4,435.6 388.6,435.2 388.8,435.2 388.9,435.5 388.9,435.7 388.8,435.9 388.6,436.2 388.4,436.3 388.3,436.3 388.2,436.4
			388.3,436.7 388.8,437.4 389.1,437.9 389.1,438.5 389.3,438.5 389.3,438.4 389.3,438.4 389.4,438.2 390.1,438.7 390.3,439
			390.4,439.6 390.4,440.3 390.5,440.5 390.8,440.9 390.9,441 390.9,441.3 390.8,441.5 390.8,441.6 390.9,441.9 391,441.8
			391.8,441.9 391.9,441.8 392,441.3 392.2,441.2 392.4,441.1 392.5,441 392.5,440.8 392.6,440.5 393.2,440 393.9,439.8
			394.7,439.9 395.5,440.3 396,441 396.5,441.8 397.1,442.6 397.8,443 398.4,443 399.3,442.8 399.8,442.9 400.3,443.1 401.2,444
			402.3,445.4 402.6,446 402.8,446.5 402.8,447.6 402.9,448.5 402.9,448.8 402.4,447.3 402.3,446.9 402,446.7 401.5,447 400,448.1
			399.7,448.5 399.5,448.9 399.3,449.1 398,449.6 397.5,450.4 397.2,451.4 396.3,456.1 396.2,457.1 396.4,460.2 396,461.3
			395.9,464.9 395.7,466.3 395.7,469.2 395.8,469.8 396.2,470 396.2,470.2 395.8,470.5 395.7,471.1 395.9,472.3 395.8,472.8
			395.4,473.8 395.4,474.4 395.8,475.1 396.8,474.8 398.3,474.1 398.2,474.6 398.3,475.1 398.5,475.5 398.5,475.6 398.1,475.9
			397.9,476 397.3,476 396.9,476 396.7,476.1 396.6,476.2 396.7,476.5 397.2,476.8 398,476.8 398.8,476.6 399.3,476.3 399.2,476.6
			398.8,476.9 398.4,477.1 398.1,477.1 396.5,476.8 396.2,476.8 395.9,477 396,477.1 396.2,477.2 396.3,477.5 396.2,477.7
			396.1,477.8 395.9,477.9 395.6,478 394.2,479.1 394,478.9 393.7,478.8 393.5,478.9 393.6,479.1 393.7,479.2 394.3,479.4
			395.8,479.6 395.9,479.7 396,479.9 396.2,479.9 396.8,480 402,479 402.9,478.6 403.6,478.1 404.4,476.8 405.9,475.6 405.9,475.5
			406.5,475.6 407.3,475.1 408,474.4 408.4,473.8 410,470 410,469.9 410,469.6 410,469.5 410.1,469.4 410.4,469.3 410.5,469.3
			410.6,468.9 410.9,468.5 411.5,468 412.5,466.9 413.1,466.4 418.4,464.4 424.6,461.9 427.9,460.9 428.6,460.8 428.8,460.6
			428.9,460.3 428.9,459.9 428.7,459.8 428.5,459.7 428.3,459.4 429.1,458.5 429.3,458.2 429.2,457.2 429.1,456.8 428.9,456.5
			426.4,452.8 426.2,452.3 426.1,451.9 426,451.5 420.3,445.9 419.9,445.2 420.3,445.2 421.1,445.7 421.9,445.9 422.6,446.4
			423.5,447.3 425.8,450.1 430.2,454.3 432.3,455.4 433.5,456.3 433.8,456.4 434.8,456.5 435.1,456.2 435.3,456.1 435.6,456.2
			435.8,456.3 436.1,456.3 436.7,455.9 437.3,455.4 437.7,454.7 438,453.9 438.1,452.6 438.1,452.1 438,451.7 437.7,451.5
			437.1,451.4 436.9,451.1 436.7,450.2 436.2,449.4 435.6,448.7 433.5,447 433.1,446.4 432.9,446.3 431.7,445.2 431.6,445
			431.4,444.6 431.2,444.3 431,444.1 429.4,442.9 428.8,442.4 428.6,442.1 428.4,441.8 428.2,441 428,440.6 427.4,440 427.3,439.9
			427,439.8 426.9,439.7 427.1,439.5 427.3,439.6 427.5,439.7 427.7,439.8 433.7,446 435.7,447.2 436.3,447.7 437.7,449.2
			438.3,449.6 438.9,449.8 439.5,449.6 440,449 440.1,448.2 440.3,448.2 440.4,448.4 440.4,448.6 440.4,448.8 440.3,449
			440.3,449.2 440.6,448.9 440.9,448.4 440.9,447.9 440.7,447.7 440.3,447.6 439,446.8 437.7,445.9 435.8,445 435.3,444.5
			433.1,441.6 432.8,441.1 432.6,440.2 432.3,439.8 431.6,439.3 431.5,439.2 431.3,439.2 431.2,439 432.2,439.3 432.8,440
			434.8,443.2 435.5,443.9 436.2,444.5 437.4,445 437.7,445.3 438.1,445.6 438.4,445.8 438.8,446 439.7,446 439.8,446 439.8,445.9
			439.9,445.7 440.1,445.5 440.1,445.3 440.1,445.2 440.5,445.2 440.6,445.1 440.5,444.9 440.3,444.6 440.3,444.6 440.3,444.4
			440.5,444.2 440.8,443.9 440.8,443.8 440.9,443.3 441.1,443.3 441.2,443.5 441.3,443.8 441.2,444 441.1,444.2 441.5,444.3
			441.9,444.1 443.2,442.7 443.3,442.3 443.4,441.8 443.4,441.6 443.2,441.4 443.1,441.4 442.8,441.4 442.6,441.3 442.4,441.2
			442.3,441.1 442.2,441 442,440.9 441.6,440.6 441.5,440.5 435.7,438.6 434.3,437.7 434.7,437.6 435.1,437.7 435.4,437.9
			435.9,438 436.8,438 438.6,438.4 441.1,438.4 442.4,438.7 442.8,438.7 443.2,438.5 443.3,437.9 443.1,435.8 443,435.5
			442.7,435.1 442.4,434.8 442.2,434.4 442,434 441.6,433.9 441.3,434 441,434.7 440.8,434.9 440.3,434.9 440.1,434.6 440.1,434.2
			439.9,433.9 439.8,433.9 439.6,434.2 439.3,434.6 439,434.8 438.5,434.9 438.3,434.7 438.2,434.4 438.1,433.5 438.3,433.8
			438.4,434 438.5,434.3 438.5,434.7 438.8,434.5 439.1,434.4 439.3,434.2 439.5,433.8 439.7,433.6 440,433.4 440.3,433.4
			440.1,433.2 440,433.1 439.9,432.7 440.1,432.7 440.3,433.1 440.7,433.2 441.5,432.9 441.8,432.7 442,432.3 442.1,431.8
			442.3,431.4 442.4,431.2 442.5,431.1 442.7,431 442.7,430.7 442.5,430.1 442.4,429.8 442.3,429.7 442.1,429.6 441.9,429.4
			442,429.1 442.2,429 442.6,428.8 442.7,428.7 443.1,428.9 443.4,429.2 443.8,429.6 443.9,429.8 444.1,430.1 444.6,430
			445.4,429.6 446.8,430.8 446.7,431.6 446.7,432.1 446.8,432.5 447,432.7 447.1,432.8 447.2,433 447.3,433.2 447.3,433.5
			447.2,433.7 447.2,433.9 447.3,434.1 447.5,433.9 448.1,432.9 448.5,432.7 448,432.3 447.8,431.6 447.8,430.9 448,430.2
			448.2,430.2 448.2,430.9 448.1,431.2 448,431.4 448,431.5 448.3,431.9 448.2,432.1 448.4,432.3 448.7,432.4 448.8,432.4
			448.9,432.2 448.7,432 448.6,431.9 448.5,431.7 448.8,431.1 448.8,430.7 448.6,430.5 448.3,430.4 448.3,430.1 448.5,429.5
			448.3,429.3 448,429 447.7,428.8 447.8,428.4 448.5,429.1 448.8,429.5 448.8,430.1 448.6,430 448.5,429.9 448.6,430.1
			448.9,430.5 449,430.6 449,432.4 449,432.6 448.8,432.9 448.6,433 448.3,433.1 448.1,433.3 448,433.7 448.2,433.7 448.3,433.5
			448.5,433.4 448.8,433.2 448.8,433.4 449,433.9 449.3,433.7 449.4,433.5 449.6,433 449.7,433.4 449.7,433.5 449.6,433.7
			449.8,433.7 450.2,433.5 450.7,433.5 451.2,433.7 451.5,434.1 451.6,434.1 451.6,433.7 451.8,433.8 452.1,433.8 452.3,433.8
			452.4,433.8 452.9,434.3 453,434.4 453.1,434.4 453.3,434.6 453.4,434.8 453.4,435 453.3,435.2 453.1,435.3 452.9,435.3
			452.8,435.5 453.4,435.6 454.3,436.2 454.7,436.2 455.3,435.3 456,434.6 456.2,434.4 456.5,434.5 457.4,434.1 458.5,434
			459,433.9 460.5,433.2 460.9,432.9 461.1,432.6 461.3,432.4 461.9,431.7 462.1,431.5 463.1,431 463.7,430.8 464.2,430.7
			465.8,429.9 466.7,429.6 467,429.4 468,428.6 469.4,428 469.8,427.9 470.3,427.9 470.7,427.9 471.7,428.3 472,428.4 472.2,428.4
			473.1,426.6 473.2,425.6 473.6,424.9 473.7,424.7 473.8,424.3 474.3,423.7 474.5,423.5 474.8,423.1 475.5,422.9 478.4,422.3
			479.1,422.5 479.3,423.2 479.4,423.2 479.8,422.5 480,422.3 480.5,422.2 480.6,422 480.9,420.9 481.1,420.6 481.2,420.5
			481.6,420.5 481.9,420.4 482.8,420 482.9,419.9 483.5,419.8 483.8,419.6 484,418.6 484.2,418.2 484.6,417.7 485,417.4
			485.6,417.2 485.9,416.8 486.1,416.8 487,416.8 487.2,416.7 487.7,416.5 488,416.4 488.3,416.5 488.8,416.7 489,416.8
			489.4,416.8 489.7,416.7 489.9,416.5 490.1,416.1 490.4,414.8 490.6,414.4 490.8,414.1 491.1,413.8 491.9,413.2 492.3,413.1
			492.8,413 493.2,413 493.6,413.1 494.6,413.5 495,413.6 495.4,413.5 495.7,413.2 496.3,412.8 496.6,412.5 496.8,412.2
			496.7,411.2 496.9,409.6 496.9,408.5 496.5,407.9 496.7,407.9 497.2,407.9 497,407.5 497,407.1 497.1,406.8 497.2,406.5
			497,406.3 496.7,406 496.7,405.7 497.3,405.6 497.4,405.8 497.5,406.6 497.8,406.9 498.3,407 498.7,407 499,407 499.3,407.2
			499.5,407.2 499.8,406.9 499.9,406.6 500,406.3 500.1,406.1 500.5,405.7 500.6,405.6 500.7,405.2 500.7,405 500.8,404.8
			501.2,404.2 501.4,403.7 501.6,403.6 501.8,403.7 502,403.2 501.1,402 501.1,401.4 500.8,401 500.9,400.6 501,400.3 501.1,400
			501,400 500.6,400.4 500.3,400.8 500.1,401.1 499.4,400.9 499.2,400.1 499.5,399.3 500,399.2 500.6,398.7 501,398 501.2,397.3
			501.3,396.6 501.2,396.2 500.6,395.7 500.5,395.5 500.6,394.8 500.5,394.7 500.4,394.6 500.1,394 500.5,393.6 500.7,393.9
			500.9,394.9 501.5,396.4 501.3,396.4 501.6,397.2 501.4,399 501.6,399.7 501.7,399.7 501.9,399.6 501.9,399.6 502.2,399.9
			502.5,400 502.9,400.1 503.3,399.9 503.3,399.7 503,399.6 502.7,399.3 502.6,399 502.6,398.6 503,398.2 503,398.2 503.1,397.7
			503.1,397.6 502.4,397.1 502.2,396.8 501.5,395.5 501.3,395.1 501.3,394.1 501.3,393.9 501.6,393.6 501.7,393.4 501.5,393.1
			501.4,392.9 501.3,392.8 501.3,392.7 501.3,392.6 501.2,392.2 501.1,392 500.8,391.9 500.8,391.9 500.6,392 500.7,391.8
			501,391.7 501.6,391.9 501.4,391.6 501.2,391.4 501.1,391.1 501.3,390.7 500.8,390.4 500.6,390.2 500.5,390 500.6,390.1
			501.1,390.4 501.4,389.7 501.5,389.5 501.6,389.5 501.9,389.7 502,389.5 502,389.3 501.7,389.1 501.5,388.9 501.3,388.7
			501.3,388.4 501.3,387.9 501.2,387.3 500.9,386.9 500.5,387 500.3,386.8 499.9,386.4 499.8,386 500,386 500,386.1 500.3,386.2
			500.2,386.1 500.1,385.8 500,385.7 500.7,385.6 501.4,386 502.4,387.2 502.7,387.8 503,388.1 503.4,388.2 503.6,388 503.8,387.6
			504,387.4 504.2,387.7 504.4,387.5 504.2,387.4 504.5,387.1 504.3,386.8 503.9,386.5 503.5,386.3 503.4,386.3 503.3,386.1
			503.3,385.8 503.5,385.3 503.4,385.1 502.2,384.3 501.9,384 501.8,383.6 501.9,383.2 502.1,382.8 502.2,382.5 501.8,382.3
			501.8,382.5 501.9,382.5 501.9,382.7 501.7,382.8 501.6,383 501.5,383.3 501.5,383.5 501.3,383.5 501.3,383.4 501.3,383.4
			501.2,383.4 501.1,383.3 501.1,383.1 501,382.7 501,382.3 501.2,382.2 501.1,381.2 501.1,381 501.8,380 502,379.8 502.3,379.7
			502.7,379.4 503.3,378.7 503.5,378.4 504.3,377.9 504.4,377.7 504.5,377.5 504.6,377.4 504.8,377.3 504.9,377.4 504.9,378.2
			505.1,378.5 505.5,379 505.6,379.4 505.5,379.6 505.2,379.8 505,379.8 504.9,379.9 504.9,380 504.4,380.7 504.7,380.7
			504.9,380.8 505.1,380.9 505.2,381.2 505.3,381 505.4,380.8 505.3,380.5 505.2,380.3 505.5,380.4 505.7,380.3 505.9,380.2
			505.9,380 506.4,380.8 506.4,381 506,381.4 505.9,381.4 505.9,381.7 506,381.8 506.1,381.9 506.2,382 506.5,382.7 506.8,383
			507,382.8 507.1,382.5 507,381.5 507,381.2 507.2,381.1 507.4,381 507.5,380.9 507.6,380.8 507.5,380.7 507,380.3 506.7,380.3
			506.3,379.9 505.2,377.8 505.2,377.5 505.2,377.1 505.2,376.8 505.1,376.6 505.3,376.4 505.5,376.4 505.7,376.4 505.9,376.3
			506,376.2 506.2,375.8 506.2,375.7 506.7,375.3 507,375.4 507,375.4 506.9,375.6 506.9,375.7 506.8,375.8 506.6,375.9 506.5,376
			506.6,376.1 506.7,376.1 507.1,376 507.2,376 507.3,375.7 507.4,375.3 507.4,374.9 507.4,374.5 507.2,374.2 506.2,373
			505.7,372.3 505.1,371.6 504.6,370.7 504.4,370.5 504.1,370.3 504.2,370.1 504,369.7 503.8,369.4 503.6,369.1 503.5,368.7
			503.6,368.3 503.7,367.9 503.8,367.5 503.6,367 503.6,366.7 503.9,366.2 503.9,366 503.9,365.5 503.8,365.3 503.8,365.1
			503.6,364.9 503.5,364.9 503.5,365.1 503.6,365.2 503.6,365.4 503.3,365.5 503.2,365.8 503.3,366.6 503,366.3 502.8,365.9
			502.4,365.1 502.6,365 502.7,365 502.8,364.7 502.9,364.8 503.2,365 503.3,365.1 503.3,364.8 503.3,364.6 503.2,364.5
			503.1,364.4 503.1,364.2 503.4,364.3 503.5,364.2 503.6,364 503.6,363.7 503.4,363.4 503.2,363.5 502.9,363.7 502.6,363.5
			502.2,362.9 501.8,362.7 501.8,362.3 501.9,362.1 502.1,361.9 501.8,361.6 501.9,361.4 501.9,361.2 501.8,361 501.9,360.7
			502.1,360.5 502.3,360.4 502.5,360.4 503.3,360.9 503.4,361 503.4,361.4 503.1,361.5 502.9,361.6 502.8,361.8 502.9,362
			503.4,362.1 503.6,362.4 503.9,362.2 504,362 504.2,361.5 504.2,361.3 504.4,360.9 504.2,360.7 504,360.8 503.7,360.8
			503.5,360.6 503.4,360.3 503.5,360.1 503.7,359.8 503.8,359.5 503.5,359.7 503.4,359.7 503.3,359.9 503.1,359.9 502.6,359.3
			502.4,359 502.5,359 502.6,358.9 502.6,358.8 502.4,358.6 502.1,358.3 502,358.1 501.9,357.6 501.8,357.3 501.6,357.2
			501.4,357.1 501.3,356.9 501.3,356.5 501.5,356.5 501.6,356.9 502.3,357.6 502.5,358.2 503.1,359.1 503.3,359.4 503.2,359
			503.2,359 503.1,358.8 503.1,358.7 503.4,358.7 503.5,358.6 503.5,358.4 503.4,358.2 503.3,358.2 503,358 502.7,357.8
			502.7,357.7 502.4,357.5 502.2,357.1 502,356.6 501.9,356.1 501.9,355.4 501.9,355.2 501.6,354.6 501.6,354.1 501.9,353.8
			502.2,353.6 502.4,353.3 502.1,353.2 502,353 501.8,352.5 501.5,352.6 501.5,352.4 501.8,351.9 501.9,351 501.9,350.8
			502.2,350.5 502.4,350.9 502.8,352.1 502.6,353.6 502.7,353.8 503.3,353.8 503.5,353.7 503.4,352.8 503.6,350.9 503.5,350.6
			502.8,350.1 502.6,349.8 502.3,347 501.6,345.3 501.4,344.9 500.6,344.5 500.4,344 500.4,343.6 501,343.7 501.2,344 501.3,344.3
			501.5,344.5 501.9,344.5 501.1,343.2 500.8,342.4 501,342 500.9,341 500.8,340.7 500.6,340.3 499.8,339.5 499.5,338.8
			499.4,338.4 499.3,338 499.3,336.7 499.2,336.4 498.8,335.8 498,333.6 498,333.8 497.8,334.3 497.7,333.9 497.8,333.8
			497.9,333.7 498.1,333.4 498.3,333.4 498.3,333.3 498.3,333.1 498.2,332.9 498,330.9 498.1,331.1 498.3,331.3 498.5,331.4
			498.3,330.2 498.2,329.9 497.3,328.7 497.1,328.5 496.6,327.8 496.5,327.6 496,327.4 495.9,327.2 496.3,327.2 494.8,323.7
			494.3,321.8 494.1,319.6 493.9,319.9 493.9,320 493.9,320.2 493.8,320.2 493.8,319.9 493.6,319.7 493.4,319.6 493.2,319.7
			493.1,319.7 492.9,319.4 493,319.2 493.4,319.2 493.8,319.4 493.9,319 493.9,318.3 494.1,318 494.4,318.2 494.4,318 494.3,317.9
			494.1,317.8 493.9,317.9 493.9,317.7 494.3,317.7 494.6,317.6 494.9,317.3 495,317 494.9,316.9 494.6,316.9 494.4,316.8
			494.1,316.7 493.5,316.1 493.4,315.8 493.4,314.9 493.3,314.7 492.7,314.2 492.5,314.1 492.4,313.9 492.2,313 492.1,312.6
			491.9,312.7 491.8,312.7 491.6,312.7 491.4,312.6 491.5,312.8 491.6,312.9 491.8,312.9 491.8,313.1 491.3,313.4 491.1,313.9
			491.3,314.4 491.9,314.5 491.9,314.6 491.5,314.7 491.3,314.7 491.1,314.6 491,315 490.9,315.1 490.8,315.1 490.8,315
			490.8,314.9 490.9,314.8 490.8,314.5 490.8,314.2 490.8,313.9 490.8,313.6 490.6,313.4 490.1,313.1 489.9,313 489.8,312.9
			489.2,312.4 489.1,312.2 489.1,311.6 488.9,311.1 488.8,311.1 488.3,312.1 487.9,312.3 487.3,311.9 487.1,311.4 487.3,311.2
			487.7,311 488,310.9 488.2,311.2 488.4,311.1 488.6,310.4 487.7,310.5 487.1,310.1 483.1,304.7 482.4,303.2 482.2,301.7
			482,301.4 481.9,301.3 481.7,301.5 481.5,301.6 481.4,301.7 481.2,301.7 481.3,301.5 481.5,301.4 481.7,301.4 481.5,300.9
			481.2,300.7 480.8,300.5 479.6,299.5 479.3,299.2 478.9,298.5 478.6,297.6 478.6,297.6 478.3,297.7 478.4,298.2 478.2,297.9
			478.1,297.9 470,303.8 		"/>
		<polygon fill="#DA251D" points="444.4,175.7 444.3,175.1 444,174.8 443.1,174.4 442.8,175 442.6,175.7 442.7,176.2 443,176.4
			443.4,176.4 443.7,176.6 443.9,176.6 443.8,176.4 443.7,176.2 443.8,176 443.9,175.7 443.9,176.3 444.4,177.4 444.6,177.8
			444.8,177.9 445.2,178 445.5,177.8 445.4,177.1 444.5,176 		"/>
		<polygon fill="#DA251D" points="442.3,176.4 442.5,176.5 442.6,176.5 442.5,176.2 442.3,175.9 442.1,175.8 442,175.8 441.8,175.6
			441.7,175.7 441.6,175.8 441.6,175.8 441.7,175.8 441.7,175.9 441.7,176 441.8,176 441.9,176.1 442,176.1 442.1,176.1
			442.2,176.1 442.2,176.2 		"/>
		<polygon fill="#DA251D" points="463.5,166.1 463.5,166 463.5,166 462.7,166.4 462.6,166.5 462.9,166.6 463,166.6 463.5,166.2
			"/>
		<polygon fill="#DA251D" points="445.3,176.5 445.7,176.7 445.7,176.7 445.7,176.5 445.7,176.5 445.8,176.5 445.8,176.3
			445.8,176.1 445.6,175.8 445.6,176 445.6,176.1 445.5,176 445.5,176.1 445.5,176.2 445.5,176.3 445.5,176.3 445.5,176.3
			445.3,176.3 		"/>
		<polygon fill="#DA251D" points="442.6,177.1 442.9,177.4 443.1,177.5 443.3,177.5 443.6,177.5 443.7,177.3 443.7,177.2
			443.6,177.3 443.4,177.3 443.1,177.1 442.6,176.5 442.5,176.6 442.5,176.9 		"/>
		<polygon fill="#DA251D" points="441.2,173.3 441,173.2 441,173.1 440.8,173 440.7,173.1 440.6,173.3 440.8,173.6 441,173.7
			441.3,173.8 441.7,173.8 441.9,173.9 442.4,173.9 442.5,173.8 442.6,173.6 442.6,173.5 442.5,173.4 442.4,173.3 442.4,173.3
			442.4,173.3 442.5,173.3 442.5,173.1 442.3,172.9 442.1,172.7 441.9,172.7 441.8,172.8 441.7,172.9 441.7,173.1 441.8,173.3
			441.6,173.4 		"/>
		<polygon fill="#DA251D" points="458.5,174.5 458.6,174.4 458.9,174.1 459.1,173.6 458.9,173.5 458.7,173.7 458.6,173.9 458.4,174
			458.4,174.1 458.3,174.3 458.1,174.6 457.9,174.7 457.1,174.9 456.6,175 456.7,175.1 457.3,175.1 458.3,174.7 		"/>
		<polygon fill="#DA251D" points="459.8,174.8 460.2,174.7 460.5,174.5 460.7,174.2 460.9,173.8 461.1,173 461.5,172 461.6,171.7
			461.5,171.6 461.3,171.7 461,172.1 461,171.6 460.7,172 460.7,172.3 460.4,172.1 460.3,172.1 460,172.8 460,173.2 460,173.5
			459.6,174 459,174.4 458.4,174.8 457.7,175.1 457.7,175.2 458.1,175.2 459.2,174.9 		"/>
		<polygon fill="#DA251D" points="457.9,177.6 457.8,177.8 457.8,178 457.9,178.3 457.9,178.3 458,178.4 458.1,178.5 458.1,178.5
			458.2,178.4 458.3,178.3 458.3,178.1 458.2,177.8 458,177.5 		"/>
		<polygon fill="#DA251D" points="459.6,179.5 459.6,179.4 459.5,179.3 459.4,179.4 459.3,179.5 459.3,179.6 459.1,179.9
			459.4,179.7 		"/>
		<polygon fill="#DA251D" points="456.8,176.9 456.5,176.6 456.4,176.6 456.4,177 456.6,177.4 456.9,177.5 457.1,177.5 457.2,177.6
			457.3,177.8 457.4,177.7 457.4,177.4 457.4,177.2 457.1,177 		"/>
		<polygon fill="#DA251D" points="462.4,172.4 462.5,171.6 463.4,169.7 463.4,169.6 463.3,169.5 463.1,169.6 462.6,170.2
			462.5,170.3 462.4,170.5 462.3,170.7 462.3,171.3 462.2,171.6 461.9,171.9 461.8,172.2 461.9,172.5 461.9,172.7 461.9,172.8
			461.6,173 462.1,173 		"/>
		<polygon fill="#DA251D" points="461.7,170.6 461.8,170.5 461.9,170.4 462.1,170 462.2,169.8 462.2,169.6 462,169.6 461.8,169.7
			461.7,169.7 461.7,169.7 461.6,169.6 461.5,169.7 461.3,170 461.2,170.2 461.1,170.3 461.1,170.3 461,170.5 460.9,170.5
			460.9,170.6 461.1,170.8 461.1,170.8 461,170.9 461,170.9 461,170.8 460.9,170.8 460.7,171.1 460.5,171.2 460.3,171.4
			460.1,171.6 460.2,171.6 460.4,171.6 460.5,171.5 460.6,171.4 461,171.3 461,171.1 461.4,170.8 461.7,170.7 		"/>
		<polygon fill="#DA251D" points="461.8,169.6 462.2,169.3 462.2,169.1 462,169.1 461.9,169.1 461.8,169.1 461.7,169.2 461.6,169.3
			461.6,169.4 461.7,169.6 		"/>
		<polygon fill="#DA251D" points="457.6,176 457.6,175.9 457.6,175.8 457.7,175.7 457.6,175.5 457.4,175.5 457,175.4 456.7,175.5
			456.6,175.5 456.5,175.4 456.3,175.4 456.2,175.4 456.2,175.6 456.3,175.7 456.4,175.8 456.4,175.7 456.7,176 456.9,176.2
			457,176.2 457.2,176.2 457.5,176 		"/>
		<polygon fill="#DA251D" points="458.7,167.5 458.7,167.8 458.6,167.8 458.4,167.6 458.3,167.6 458.1,168.3 457.9,169.1
			457.9,169.4 457.7,169.9 457.3,170.5 457.2,171.1 457.5,171.4 458.4,170.7 458.7,170.5 459.2,170.3 459.5,170.1 460.3,169
			460.8,168.5 461.1,168.6 461.3,168.6 461.6,168.2 462.4,167.7 462.7,167.3 462.8,167 462.7,167 462.1,167.2 461.3,167.4
			461.1,167.5 461,167.5 460.9,167.4 460.9,167.3 460.8,167.1 460.8,166.9 460.8,166.7 460.6,166.6 460.5,166.6 460.3,166.5
			459.8,165.8 459.5,165.6 459.4,165.5 459.3,165.5 459.2,165.5 459.1,165.5 459,165.6 459,165.8 458.9,166.1 458.9,166.8
			458.9,167.2 459,167.3 458.8,167.4 		"/>
		<polygon fill="#DA251D" points="461.3,165.4 461.1,165.3 461,165.3 460.9,165.4 460.8,165.6 461,165.8 461.1,165.8 461.3,165.6
			461.5,165.5 461.6,165.4 461.4,165.4 		"/>
		<polygon fill="#DA251D" points="454.7,176.6 454.7,176.7 454.8,176.7 454.9,176.6 454.9,176.7 454.9,176.7 454.8,176.8
			454.7,176.9 454.7,176.9 454.9,176.8 455,176.8 455.1,176.7 455.3,176.7 455.4,176.6 455.3,176.5 455.1,176.5 455.1,176.4
			455.1,176.3 455.1,176.3 455,176.4 455,176.5 454.9,176.6 		"/>
		<polygon fill="#DA251D" points="461.3,174.7 461.5,174.2 461.6,173.6 461.6,173.5 461.6,173.4 461.5,173.3 461.4,173.7
			460.8,174.9 460.6,175.3 460.3,175.5 460,175.6 459.5,175.6 459.5,175.7 459.8,176 459.7,176.4 459.3,177.3 459.7,177.3
			459.8,177.1 460,176.6 460.2,176.3 		"/>
		<polygon fill="#DA251D" points="461.2,166 461.3,166 461.5,166 461.7,166.1 461.8,166.1 462.1,166 462.2,166 462.3,165.9
			462.2,165.7 461.9,165.6 461.6,165.6 461.2,165.8 		"/>
		<polygon fill="#DA251D" points="459.8,178.5 459.7,178.6 459.6,178.7 459.8,178.8 460,178.7 460.1,178.3 460,178.4 		"/>
		<polygon fill="#FFFF00" points="478.4,296.7 478.6,295.8 478.9,295.9 479.5,295.8 479.8,295.9 479.8,295.7 480,295.5 480.3,295.3
			480.6,295.1 480.3,294.8 480.2,294.7 480.2,294.6 480,294.7 479.9,295 479.8,295.1 479.4,295 479.1,294.8 478.8,294.6
			478.6,294.4 478.4,294.4 478.3,294.5 478.3,294.5 478.3,294.5 478.1,294.4 478,294.6 477.9,294.8 477.8,294.9 477.6,295.1
			477.6,295.3 478.1,295.4 478.2,295.7 478,296.2 478,296.5 478.2,296.9 478.3,297.7 478.6,297.6 		"/>
		<polygon fill="#FFFF00" points="422.1,260.6 422.6,261.2 422.6,261.2 424.7,263.7 428.7,267.1 429.2,267.4 429.5,267.4
			429.8,267.3 430.1,266.9 430.3,266.7 430.3,266.5 430.4,266.3 430.7,266.3 431,266.4 431.1,266.6 431.1,266.9 431.1,267.2
			431.2,267.4 431.6,267.7 431.7,267.9 431.6,268.1 431.4,268.5 431.4,268.8 431.6,269.1 432.3,270.3 433.4,271.4 433.7,271.8
			433.7,272 433.5,272.3 433.5,272.4 434,273.4 434.1,273.6 434.1,273.7 434.3,273.8 434.7,274 435.2,274.2 435.6,274.3
			436.1,274.4 436.8,273.8 437,274.2 437,281.4 437.2,282 437.4,282.6 437.9,283.2 438.4,283.5 438.9,283.6 439.2,283.7
			439.6,283.8 439.7,284.1 439.6,285.5 439.6,285.7 439.9,286.7 440.3,287.4 440.8,287.8 441.5,287.7 441.5,287.9 441.6,288.1
			441.8,288.1 442,288 442.3,287.8 442.3,287.6 442.3,287.4 442.4,287.2 443.1,286.8 443.3,286.5 443.4,286.1 443.9,285.2
			444.5,285.3 444.9,285.9 445,286.9 444.9,287.7 444.9,287.8 444.8,287.9 444.7,288 444.7,288.1 444.8,288.2 445,288.1
			445.1,288.1 445.2,288 445.5,288.7 445.8,289 446.2,289.4 446.8,289.7 446.9,289.8 447,290.1 447.1,290.6 447.2,290.8 447.4,291
			447.7,291 448.5,291 449.5,291.1 449.9,291.2 450.3,291.4 450.8,291.8 451,292.1 451.3,293.4 451.4,293.8 451.6,294 451.9,294.3
			452.3,294.5 452.6,294.6 452.9,294.7 453.3,294.8 453.9,295.2 454.8,296.3 455.4,296.8 456.1,297 456.7,297 458.1,296.6
			458.5,296.6 458.7,296.7 458.6,297 458.6,297.5 458.7,297.8 458.8,298 458.9,298.2 458.6,298.5 458.2,298.8 457.6,300
			457.2,300.4 456.9,300.6 456,300.8 455.5,300.9 453.9,302 453.7,302.1 453.4,302 453.2,301.9 453,301.8 452.7,301.9 452.4,302.2
			451.8,303.5 451.8,304 452,304.4 453.4,305.2 453.6,305.4 453.7,305.8 453.8,306.8 453.9,307.2 454.2,307.6 454.6,307.9
			455.5,308.3 455.8,308.6 457.1,310.9 457.4,311.1 457.5,311 457.7,310.8 457.9,310.6 458.1,310.6 458.6,310.7 458.7,310.7
			458.8,310.6 459,310.6 459.1,310.9 459.1,310.9 459.2,311.1 459.3,311.2 459.4,311.2 459.6,311.1 459.9,311.3 460,311.8
			460,312.4 460.1,312.8 460.5,313.1 461.5,312.9 462,313 462.1,313.3 462.1,314.3 462.3,314.7 462.6,315 463.6,315.8 464,316.2
			464.1,316.5 464.1,316.9 464,318.1 463.9,318.2 463.7,318.3 463.6,318.2 463.5,318.1 463.3,318.3 463.2,318.6 463.1,319.4
			463,319.8 462.7,320.2 462.6,320.3 462.2,320.6 462.1,320.8 462.1,321 462.4,321.5 462.3,321.7 462.1,322 461.7,322 461,321.9
			460.7,322 459.6,322.3 459.1,322.3 458.9,322.5 458.9,322.9 459,323.3 459,323.6 459.1,324 459.3,324.2 459.6,324.5 460,324.7
			461.4,325.8 461.6,326 461.5,326.2 461.2,326.7 460.2,327.7 460,328 460.1,328.4 460.3,328.8 460.4,329.1 460.2,329.4
			460.3,329.7 460.6,329.9 460.7,330.1 460.7,330.5 461,331.1 460.9,331.7 460.3,333 460.3,333.4 460.4,334.1 460.3,334.5
			460.2,334.8 459.9,335.3 459.8,335.6 459.7,335.8 459.6,336.1 459.4,336.8 459.1,337.1 458.8,337.4 458.4,337.5 458.2,337.4
			458.1,337.3 458,337.2 457.7,337.3 457.5,337.4 457.4,337.6 457.4,337.9 457.3,338.1 456.8,338.9 456.6,339.4 456.6,339.9
			489.5,363.8 470,303.8 478.1,297.9 477.8,297.9 477.4,298.2 477,298.3 477.3,298.1 477.6,297.9 477.8,297.5 477.9,297.1
			477.9,297.1 477.7,296.2 477.5,296.2 477.3,296.3 477,296.6 476.6,296.2 476,295.9 475.6,295.5 475.6,294.7 475.9,294.2
			476.8,293.5 477.1,293.1 476.5,293.1 475.8,293 475.2,292.9 474.8,292.7 474.6,292.7 474.4,292.8 473.9,292.7 473.5,292.6
			473.3,292.3 473.5,291.9 473.8,292 474.5,292.6 473.7,291.3 473.5,290.8 473.3,290 473.2,289.8 473,289.9 472.8,290.1
			472.7,290.4 472.5,290.5 472,290.4 470.9,289.6 470.5,289.7 470.5,289.9 470.7,290.7 470.6,290.8 469.7,291.5 469.6,291.4
			469.4,291.5 469.3,291.3 469.2,291.1 468.9,291 468.7,291.2 468.6,291.2 468,290.9 467.7,290.7 467.6,290.4 467.3,289
			467.3,288.8 467.6,288.9 467.8,289 467.9,289.1 468.1,289.1 468.2,289.1 468.3,289.1 468.4,289 467.9,288.8 467.4,288.1
			467,287.8 466.4,286.9 466.2,286.7 465.3,286.1 465.2,285.9 465.1,285.6 464.9,285.5 464.7,285.6 464.6,285.8 464.5,286
			464.4,286.1 464.1,286.1 464.2,286 464,285.7 463.9,285.4 463.8,285.5 463.8,285.2 463.9,285 464,284.9 464.1,284.7 463.5,284.9
			463.2,284.9 462.8,284.9 462.9,284.7 462.9,284.6 463,284.5 463.1,284.5 463.2,284.6 463.5,284.7 463.5,284.5 462.9,284.3
			462.7,284.1 462.5,283.8 462.3,284 462,284 461.7,283.9 461.5,283.6 461.3,283.5 460.7,283.4 458.9,282.3 459.6,282.2
			462.5,283.8 463.5,284 463.5,283.8 462.7,283.6 460.2,281.3 457.3,279.2 454.2,276.5 453.8,276.4 453.7,276.2 453.6,276
			453.4,275.8 453.2,275.9 452.8,276.2 452.8,276.4 452.8,276.6 452.8,276.7 452.5,276.8 452.2,276.8 451.6,276.8 451.6,276.7
			452.5,276.2 452.6,276.1 452.7,275.9 452.9,275.8 453,275.7 453.1,275.6 453,275.4 452.7,275.2 451.4,273.3 451.1,273.1
			451.3,272.1 450.9,271.3 446.9,268.4 442.5,265.2 440.4,262.8 440.1,262.4 440,262.3 440,262.2 439.5,261.8 439.4,261.8
			439.2,261.4 439,260.6 437.8,258.6 437.1,257.9 436.6,256.8 436.3,256.5 435.8,256.1 435,255.8 434.2,255.7 433.7,256
			433.8,256.1 433.9,256.2 434,256.5 433.3,256.1 433.4,255.6 433.9,255.3 434.3,255.5 434.5,255.5 434.5,255.3 433.3,255
			432.5,254.9 432,254.7 431.4,254.5 431.1,254.2 431.2,254.1 431.6,254.3 433.2,254.4 434.1,254.9 434.4,254.9 434.7,255.1
			435,255.7 435.7,256 436,256 436.2,255.8 436.1,255.6 435.6,255.1 435.5,254.8 435.3,253.6 435,252.8 434.8,252.4 435,252.1
			435,251.9 434.9,251.7 434.7,251.7 434.7,251.5 435.1,251.5 435.4,251.3 435.6,251 435.8,250.7 436.3,250.3 436.8,250
			436.8,249.8 434.7,247.2 434.5,246.7 434.3,246.2 434.6,245.7 434.7,245.4 434.3,245.3 433.9,245.9 433.7,246 433.4,246
			433.3,245.9 433.1,245.9 432.9,246 432.7,246.2 432.6,246.4 432.5,246.7 432.5,247 432.3,246.6 432.2,246.3 432.4,246
			432.1,246.1 432,246.1 431.9,246.2 431.6,246 431.7,245.8 432,245.6 432.3,245.5 432.5,245.7 432.7,245.7 432.5,245.2
			432.2,244.9 431.4,244.3 430.7,243.4 430.5,243.3 430,243.1 429.8,243 428.6,242 428.2,241.9 427.6,242 427.1,242.1 421.4,259.7
					"/>
	</g>
	<path fill="none" stroke="#999999" stroke-width="0.25" stroke-linecap="round" stroke-linejoin="round" d="M391.7,449.7l-0.1-0.1
		l-0.3,0.1l-0.2,0.2l-0.2,0.2l-0.1,0.1l0.2,0.1l0.2,0l0.1,0l0.3,0.1l0.3-0.1l0.2-0.3l-0.2-0.2L391.7,449.7z M384.9,452.6l-0.2,0
		l0,0.3l-0.1,0.5l0.3,0.3v-0.2l0-0.2l-0.1-0.4L384.9,452.6z M362.9,462.2l0.2,0.2l0,0.4l0.5-0.1l0.2-0.2l0.3-0.3l-0.3-0.1
		L362.9,462.2z M396.5,482.8l-0.1,0l-0.3,0.4l-0.2,0.2l0.2,0.2l0.3-0.1l0-0.2l0.2-0.1L396.5,482.8z M467.2,165l-0.2,0l-0.1,0l-0.1,0
		l-0.3,0.1l-0.1,0.2l0.1,0.1h0.1l0.3-0.2l0.2,0h0.3l0.1,0L467.2,165z M461.3,165.4l-0.2-0.1l-0.2,0l-0.1,0.1l-0.1,0.2l0.2,0.3
		l0.2-0.1l0.2-0.1l0.2-0.1l0.1-0.2L461.3,165.4L461.3,165.4z M461.8,169.1L461.8,169.1l-0.2,0.2l0,0.1l0.1,0.1l0.1,0l0.4-0.3l0-0.2
		l-0.2,0l-0.1,0L461.8,169.1z M446.7,173.8l-0.1,0.3l0.4,0.2l0.2-0.2L446.7,173.8z M447.9,174.7L447.9,174.7L447.9,174.7l0.1-0.1
		l0.1-0.1v-0.2H448l-0.3,0.1l0.1,0.2l0.1,0L447.9,174.7z M456,175.6l-0.1-0.3l-0.1-0.3l-0.1-0.2l-0.1,0.1l-0.1,0.1l0,0l0.1,0.3
		L456,175.6L456,175.6z M455.6,175.6l0.2,0.2l0.2,0.2l-0.2-0.5l-0.3-0.3l-0.2-0.2l-0.1,0l0.2,0.3L455.6,175.6z M442.3,176.4l0.3,0.1
		h0l-0.1-0.2l-0.2-0.4l-0.2-0.1l-0.1,0l-0.2-0.2l-0.1,0.1l-0.1,0.1l0,0.1l0.1,0v0.1l0.1,0.1l0.1,0l0.1,0.1l0.1,0l0.1,0l0,0l0,0.1
		L442.3,176.4z M445.8,176.5l0-0.2l0-0.3l-0.2-0.2l0,0.2l0,0.1l-0.1,0l0,0.1l0,0.1l-0.1,0.1l0,0.1l0,0l-0.2,0v0.1l0.4,0.2l0,0
		l-0.1-0.1l0,0L445.8,176.5z M454.9,176.7L454.9,176.7l-0.1,0.1l0,0L454.9,176.7l0.2,0l0-0.1l0.2,0l0.1-0.1l-0.1-0.1l-0.1,0l0-0.1
		l0-0.1l-0.1,0l-0.1,0.1l0.1,0.1l-0.2,0.1l-0.2,0l0,0.1L454.9,176.7l0-0.1L454.9,176.7L454.9,176.7z M459.8,178.5L459.8,178.5
		l-0.2,0.2l0.1,0.2l0.2-0.2l0.1-0.4l-0.1,0.1L459.8,178.5z M459.6,179.5l0-0.1l-0.1-0.1l-0.1,0.1l-0.1,0.1v0.1l-0.3,0.3l0.3-0.2
		L459.6,179.5z M465,165l-0.1,0l-0.4,0.2l-0.4,0.5l0,0l1-0.6L465,165z M461.2,166l0.1,0.1l0.2,0l0.1,0.1l0.1-0.1l0.3,0l0.1-0.1
		l0.1-0.1l-0.1-0.2l-0.3-0.1l-0.4,0l-0.3,0.2L461.2,166z M463.5,166.1L463.5,166.1l0-0.2l-0.8,0.4l-0.1,0.1l0.3,0.1h0.1L463.5,166.1
		L463.5,166.1z M471.4,166.3l-0.3,0.1l0,0.2l0.2,0.1l0.3,0l0.2,0l0.1-0.2l0-0.2l-0.1-0.1L471.4,166.3z M464.3,167.5l-0.3,1.3l0,0.2
		l0.1-0.1l0.4-1.6l0-0.1l-0.1,0.1L464.3,167.5z M461.7,170.6L461.7,170.6l0.2-0.1l0.2-0.5l0-0.2l0-0.2l-0.1,0l-0.2,0.1l-0.1,0
		l-0.1-0.1l-0.1,0l-0.1,0l-0.2,0.4l-0.1,0.1l-0.1,0.1l0,0.1l-0.1,0.1l0,0.1l0,0.1l0.2,0.1l0,0.1l-0.1,0.1l0,0l0-0.1l-0.1,0l-0.2,0.3
		l-0.2,0.2l-0.2,0.1l-0.2,0.2l0.1,0l0.2,0l0.1-0.1l0.1,0l0.4-0.2l0-0.1l0.4-0.3l0.3-0.1L461.7,170.6z M441.2,173.3l-0.2-0.1
		l-0.1-0.1l-0.2-0.1l-0.1,0.1l0,0.2l0.2,0.3l0.2,0.1l0.3,0.1l0.3,0l0.3,0.1l0.5,0.1l0.1-0.1l0-0.2l0-0.1l0-0.1l-0.1,0l0-0.1l0,0
		l0.1,0l0-0.2l-0.2-0.3l-0.2-0.2l-0.1,0l-0.1,0.1l-0.1,0.1l0,0.2l0.1,0.2l-0.2,0.1L441.2,173.3z M449.1,173.9l0.4-0.1l0.2-0.1l0-0.1
		l-0.1-0.1l-0.2-0.3l-0.2,0l-0.1,0l0,0l-0.1,0l-0.3,0.5l0.1,0.1l0.2,0.1L449.1,173.9z M458.5,174.5l0.1-0.1l0.3-0.3l0.2-0.5
		l-0.2-0.1l-0.2,0.2l-0.2,0.2l-0.2,0.1l-0.1,0.1l-0.1,0.3l-0.2,0.2l-0.2,0.1l-0.8,0.2l-0.5,0.1l0.1,0.1l0.7,0l0.9-0.4L458.5,174.5z
		 M456.6,174.5l0.1,0l0.3-0.1l0.5-0.5l0.1-0.2v-0.1l-0.1,0l-0.1,0.1l0,0.1l0,0l0-0.1l-0.1,0l-0.3,0.3l-0.2,0l-0.1,0l-0.1,0.1l0,0
		l-0.2-0.2l-0.1,0l-0.2,0.1l-0.2,0l0.1,0.1l0.2,0.1L456.6,174.5z M452.9,175.6l-0.1,0l0,0.1l0.3,0.2l0.1,0l0.1,0.1l0,0.1l0.1,0
		l0-0.2l0-0.1l-0.2-0.2L452.9,175.6z M450.9,176.9l-0.1-0.1l-0.1-0.1l-0.1-0.1l0-0.1l0-0.1l0-0.1l-0.1,0l-0.1,0.1l-0.1,0.1l0,0.1
		l-0.1,0l0,0.1l0,0.1l0.1,0.1l0.1,0l0.1-0.1l0.2,0.3L450.9,176.9L450.9,176.9z M442.6,177.1l0.3,0.3l0.2,0.1l0.2,0l0.3-0.1l0.2-0.2
		l-0.1-0.1l-0.1,0l-0.2,0l-0.3-0.2l-0.5-0.6l-0.1,0.1l0,0.3L442.6,177.1z M457.9,177.6l-0.1,0.2l0,0.2l0,0.3l0,0.1l0.1,0.1l0.1,0.1
		l0,0l0.1-0.1l0.1-0.1l0-0.2l-0.1-0.3l-0.2-0.2L457.9,177.6z M451.1,178.1l0.2,0.4l0.1,0l0.1-0.1l0-0.1l0,0l0.1-0.1l0,0l0,0l0.1,0
		l0,0l0-0.2l-0.1-0.1l-0.1,0v-0.1l-0.1-0.1l0,0l0,0.1l-0.1-0.1l-0.1-0.1l-0.1,0l0,0.1l0,0.1l0,0.1l0,0.1L451.1,178.1z M451.7,178.6
		L451.7,178.6l-0.2,0l-0.1,0.2l-0.1,0.1l0,0.1l0.1,0.1l0.1,0.1h0.1l0.1-0.1l0-0.1l0-0.1l0-0.2L451.7,178.6z M465.6,194.8
		L465.6,194.8l0.2,0.1l0.1,0l0.1-0.1l0.1-0.2l0-0.2l-0.1,0l-0.2,0.1L465.6,194.8z M422.6,213.7L422.6,213.7l-0.2,0.1l-0.1,0.1l0,0.2
		l0.1,0.1l0.1,0.1l0.1,0l0.1-0.1l0-0.1l0-0.1L422.6,213.7L422.6,213.7z M484.2,299.5l0.2,0l0.1,0.1l0,0.1l0,0.1l0.4,0.3l0.1,0.2
		l0.1,0l0-0.1v-0.5l-0.1-0.2l-0.7-0.6l-0.2,0l-0.3,0.2l0,0.1l0.1,0.1L484.2,299.5z M499,314l0.3,0l0.2-0.1l0.1-0.1l-0.1-0.2
		l-0.3-0.1l-0.3,0l-0.3,0l-0.2,0.1l0,0.1l0.2,0.1L499,314z M504.6,357.4L504.6,357.4l0.2,0l0.1,0.1l0-0.1l-0.1-0.2l-0.1-0.1
		l-0.2-0.3l-0.1,0l0.1,0.3L504.6,357.4z M429.6,454.8l-0.3-0.3l-0.2-0.3l-1.2-1.1l-1.2-1.7l-0.2-0.1l-0.1-0.1l-0.1-0.1l-0.1,0.2
		l0.5,0.7l0.2,0.4l0.1,0.5l0.1,0.4l0.3,0.4l0.6,0.7l0.8,1.3l0.2,0.2l0.5-0.1l-0.1-0.2l-0.4-0.3l-0.4-0.4l0.2-0.2l0.4,0.3l0.5,0.4
		l0.4,0.5l-0.1,0.5v0.2l0.6,0l0.3-0.2l0.2-0.4l0-0.6l-0.3-0.2L429.6,454.8z M442.1,439l-0.5-0.1l-0.5-0.2l-2.8,0l-0.6-0.1l-0.8-0.3
		l-0.4,0l1.1,0.5l3.1,0.6l0.5,0.2l0.2,0.3l0.2,0.1l0.3-0.1l0.3-0.2l0.2-0.2l-0.1-0.3L442.1,439z M445,431.3l-0.2,0.2l-0.1,0.2l0.1,0
		l0.2,0.4l0,0.1l0.2,0.2l0.3,0.2l0.3,0.1l0.1-0.3l-0.1-0.3l-0.2-0.4l-0.1-0.3h0.2l0.2,0.5l0.1,0.2l0.1,0.1l0.2-0.1l0-0.2l-0.1-0.3
		l-0.1-0.3l0-0.1l0.1-0.1l0.1-0.1l0-0.2l-0.1,0l-0.1,0l-0.1-0.1l-0.1-0.2l-0.6-0.4l0-0.2l-0.2,0l-0.3,0l-0.3,0.1v0.2l0.3,0.2
		l0.1,0.2l-0.1,0.5L445,431.3z M447.2,435l-0.5-0.3l-0.2,0.3h-0.2l0.5-1.2l0.1-0.7l-0.5-0.3l-0.5,0.2l-0.4,0.2l-0.2,0.4l0.2,0.6
		v-0.3h0.2l-0.1,0.4l-0.4,0.5l-0.1,0.4l0.1,0.3l0.1,0.3l0.1,0.3v0.4h0.2l0.3-0.3l0.5-0.2l1.2-0.3l-0.2-0.3L447.2,435z M452.9,434.9
		L452.9,434.9l0.1,0.1l0.1,0l0.1,0.1l-0.2-0.3l-0.7-0.6l-0.2,0.2l-0.1,0.3l-0.1,0.3l0,0.3l-0.2,0.1l-0.7,0.4l-1,0.3l-0.1,0.5
		l0.3,1.2l0.3-0.3l0.5-0.7l0.3-0.3l0.5-0.2l0.2-0.1l0.2-0.5l0.2-0.1l0.2-0.1l0.1-0.3H452.9z M440.2,475.3L440.2,475.3l-0.2-0.1
		l-0.7,0.3l-0.8,0.5l-0.6,0.6l-0.3,0.6l0.1,0.1l0.4,0.5l0.1,0.1l0.4,0l0.1-0.1l0-0.1l0-0.1l0-0.2l0-0.3l0-0.2l0.2-0.1l0.3,0l0.2-0.1
		l0.2,0l0.3,0.1l-0.1-0.3l-0.2-0.3l0-0.3l0.6-0.1l0-0.1l0-0.1l-0.1-0.1l0.2,0l0.1,0L440.2,475.3L440.2,475.3z M435.9,447.7l-1-0.7
		l-0.4-0.1l-0.1-0.1v0.2l1.1,1l0.7,0.4l0.6,0.9l0.3,0.2l0.2-0.2l-0.3-0.5l-0.8-0.8L435.9,447.7z M443.9,175.7l0.1,0.6l0.5,1l0.1,0.4
		l0.2,0.1l0.4,0.1l0.3-0.2l-0.1-0.6l-0.9-1.1l-0.1-0.4l-0.1-0.6l-0.3-0.3l-0.9-0.4l-0.3,0.7l-0.2,0.7l0.1,0.5l0.3,0.2l0.4,0.1
		l0.3,0.2h0.2l-0.1-0.2l0-0.2l0-0.2L443.9,175.7z M461.3,174.7l0.2-0.4l0.1-0.6l0-0.2l0-0.1l-0.1-0.1l-0.1,0.4l-0.6,1.2l-0.2,0.4
		l-0.3,0.2l-0.3,0.1l-0.5,0v0.2l0.3,0.3l0,0.4l-0.4,0.9l0.3,0l0.2-0.2l0.2-0.5l0.1-0.3L461.3,174.7z M467,172.9l0.3,0.1v-0.2
		l-0.8-0.6l-0.3-0.1l-0.2,0.4l0.1,0.2l0.2,0.1l0.1,0.2l0,0.3l-0.5,0.9l0.4-0.2l0.4-0.3l0.2-0.4l-0.1-0.5L467,172.9L467,172.9z
		 M462.4,172.4l0.2-0.8l0.9-1.9l0-0.2l-0.1,0l-0.2,0.1l-0.6,0.6l-0.1,0.1l-0.1,0.2l-0.1,0.2l0,0.6l-0.1,0.3l-0.3,0.3l-0.1,0.3l0,0.3
		l0.1,0.2l0,0.2l-0.3,0.1l0.5,0.1L462.4,172.4z M467.8,163.7L467.8,163.7l0-0.1l-0.1-0.1l0-0.1l-0.3-0.1l-0.4,0.2l-1.4,0.8l-0.3,0.3
		l-0.1,0.1l2.3-1L467.8,163.7z M472.2,162.3l-3.1,0.4l-0.2,0.1l-0.8,0.2v0.2l0.6-0.1l0.5,0l-0.2,0.1l-0.1,0.2l-0.1,0.2l0-0.1
		l-0.1-0.3l-0.1,0.3l-0.1,0.3l0.3,0l1.6-0.6l0.2-0.1h0.2l0.2,0.2l0.4-0.1l0.9-0.6V162.3z M504.4,391.6l-0.1-0.1l-0.2-0.1l-0.9-0.2
		l-0.4-0.2l0,0.3l0,0.1l-0.2-0.1l-0.3-0.1l-0.2-0.1v0.2l0.2,0.2l0.3,0.3l0.4,0.2l0.5,0l0-0.1l0,0l0,0l-0.1-0.1l0.2-0.1l0.2,0
		l0.2,0.1l0.1,0.2l0.1-0.1l0.3-0.2l0.1-0.1l-0.1-0.2L504.4,391.6z M494.8,432l-0.3,0.2l-0.1,0.4l0.1,0.4l0.2,0.3l0.5,0l0.1-0.4
		l-0.2-0.5L494.8,432z M468.1,172.9l0.4-0.6l0.2-0.2l0.1-0.3l-0.3-0.1l-0.4,0.3l-0.2,0.5l0,0.4L468.1,172.9z M457.6,176v-0.1
		l0.1-0.1l0.1-0.1l-0.1-0.2l-0.2-0.1l-0.4,0l-0.3,0l-0.1,0l-0.1-0.1l-0.2-0.1l-0.1,0.1l0,0.1l0.1,0.2l0.1,0l0.1-0.1l0.3,0.3l0.2,0.1
		l0.2,0l0.2,0L457.6,176L457.6,176z M456.8,176.9l-0.3-0.3l-0.1,0l0,0.4l0.2,0.4l0.3,0.1l0.2,0l0.2,0.1l0.1,0.2l0.1,0l0-0.3
		l-0.1-0.2l-0.3-0.2L456.8,176.9z M444.2,434.1l-0.1,0l0,0h0l-0.1-0.1l0.3-0.1l0.3,0.1l0.3,0.1l0.4,0.1v-0.2l-0.2-0.5l-0.2-0.2
		l-0.4,0v-0.2l0.6,0l0.2-0.3l-0.1-0.3l-0.2-0.2l-0.1-0.1l-0.3-0.4l-0.1-0.1l0-0.3l0.1-0.2l0.2-0.2v-0.3l-0.1-0.4l-0.3-0.3l-0.7-0.2
		l-0.1-0.1l-0.2-0.4l-0.2-0.2l-0.2-0.1l-0.6,0l0.6,1l0.2,0.6l-0.2,0.6l-0.2,0.1l-0.4,0.1l-0.1,0.1l0.1,0.4l0.1,0.2l0,0l-0.1,0.7
		l0,0.3l0.1,0.4l0.3,0.6l0.5,0.7l0.6,0.5l0.6,0.2l0.5-0.2l0-0.5l-0.3-0.5L444.2,434.1z M450.3,177.6l0.5,0.1l-0.2-0.1l-0.1-0.1
		l-0.1-0.1l-0.1-0.2h-0.2l-0.2,0l-0.4-0.1l-0.3-0.2l0.1-0.3v-0.2l-0.2-0.2l-0.3-0.1l-0.2,0.1l0,0.4h-0.2l-0.3-0.2l-0.7-0.1l-0.3-0.3
		l0.2-0.2l-0.2,0.2l0,0.2l0,0.2l-0.1,0.2l-0.2,0.1l-0.6,0.2l-0.1,0.5l0.3,0.4l0.7,0.4l0.3,0.3l0.6,0.8l0.5,0.3v-0.2l-0.1-0.1
		l-0.1-0.3h0.2l0.1,0.1l0.2,0.1l0.1,0.1h0.2v-0.2h0.1l0.1,0.1v0l0,0l0.1,0.1v0.2h-0.5v0.2l0.1,0.1l0.1,0.1l0.1-0.2v0.2l0.1-0.1
		l0.1,0l0.2-0.1v0.6l0.2-0.4l0.1-0.4h0.2v0.2h0.2l-0.1-0.4l-0.7-0.4L449,178l0.2,0.2l0.2,0.1l0.2,0l0.3-0.1V178l-0.2-0.1l-0.1-0.2
		l0-0.2l0.1-0.2l0.2,0.5l0.2,0.2l0.3,0.1l-0.1-0.2l-0.1-0.1l-0.1-0.1v-0.2L450.3,177.6z M459.8,174.8l0.4-0.1l0.3-0.2l0.2-0.3
		l0.2-0.4l0.2-0.9l0.4-0.9l0.1-0.3l-0.1-0.1l-0.1,0.1l-0.3,0.4v-0.5l-0.2,0.5l-0.1,0.2l-0.3-0.1l-0.1-0.1l-0.3,0.7l-0.1,0.4l0.1,0.3
		l-0.4,0.5l-0.6,0.4l-0.7,0.4l-0.7,0.3v0.2l0.4-0.1l1.1-0.3L459.8,174.8z M458.7,167.5l0,0.2l-0.1,0l-0.2-0.2l-0.2,0l-0.1,0.8
		l-0.2,0.7l0,0.3l-0.2,0.5l-0.3,0.6l-0.2,0.6l0.4,0.3l0.8-0.7l0.3-0.2l0.6-0.2l0.3-0.1l0.8-1.1l0.5-0.5l0.4,0.1h0.2l0.2-0.4l0.8-0.5
		l0.3-0.3l0.1-0.3l-0.1,0l-0.5,0.2l-0.8,0.2l-0.2,0.1H461l-0.1-0.1l0-0.1l0-0.2l0-0.2l0-0.2l-0.1-0.1l-0.2,0l-0.2-0.1l-0.6-0.7
		l-0.2-0.2l-0.1-0.1l-0.1,0l-0.1,0l-0.1,0l-0.1,0.1l-0.1,0.2l-0.1,0.3l0,0.7l0,0.4l0.1,0.2l-0.2,0L458.7,167.5z M505.6,382.1
		l-0.1-0.3l-0.2-0.3l-0.3-0.1l-0.5-0.1l-0.6,0.1l-0.2,0.3l0.3,0.2l0.3,0.1l0.1,0.2l0.1,0.2l0.9,0.6l0.4,0.1l0.1-0.3l-0.1-0.3
		L505.6,382.1z M376.4,434.6l0.2,0.2l-0.3-0.3l-0.3,0l-0.2,0.2l-0.2,0.2l-0.1,0.2l0,0.3l-0.1,0.2l-0.2,0.1l-0.1,0.1l-0.3,0.4
		l-0.1,0.1l-0.2,0.2l-0.5,0l-1.5-0.2l-0.1,0.1l0.1,0.3l0.2,1l0.3,0.3l0.9,0.5l0.7,0.6l0.5,0.8l0.6,1.8l0.3,2l0.3,1.1l0.5,0.2
		l0.1,0.1l0.4,0.2l-0.1-0.4l-0.1-0.3l0-0.3l0.2-0.5L377,443l0.3-1.3l0.9-2.4v-2.6l-0.1-0.4L376.4,434.6z M507.5,380.7l-0.4-0.3
		l-0.4,0l-0.4-0.4l-1.1-2.1l0-0.3l0-0.3l0-0.3l-0.2-0.2l0.2-0.2l0.2,0l0.2,0l0.2-0.1l0.1-0.1l0.2-0.4l0.1-0.1l0.5-0.3l0.3,0l0,0.1
		l-0.1,0.1l-0.1,0.1l-0.1,0.1l-0.2,0.1l-0.1,0.1l0.1,0.2l0.1,0l0.4-0.1l0.1-0.1l0.1-0.2l0.1-0.4l0-0.5l0-0.4l-0.2-0.3l-1-1.2
		l-0.5-0.8l-0.6-0.7l-0.5-0.9l-0.2-0.2l-0.3-0.2l0.1-0.2l-0.1-0.3l-0.2-0.3l-0.2-0.3l-0.1-0.4l0.1-0.4l0.1-0.4l0.1-0.4l-0.2-0.5
		l0-0.2l0.3-0.6l0.1-0.2l0-0.5l0-0.2l-0.1-0.2l-0.1-0.2l-0.1,0l0,0.1l0.1,0.2v0.2l-0.3,0.1l-0.1,0.3l0,0.8l-0.3-0.3l-0.2-0.4
		l-0.3-0.8l0.2-0.1l0.1,0l0.1-0.2l0.1,0.1l0.3,0.1l0.1,0.1l0-0.2l0-0.2l-0.1-0.1l-0.1-0.1v-0.2l0.3,0l0.2-0.1l0.1-0.2l0-0.3
		l-0.2-0.3l-0.2,0l-0.3,0.3l-0.3-0.2l-0.4-0.6l-0.4-0.2l0-0.4l0.1-0.2l0.2-0.2l-0.3-0.2l0-0.2l0.1-0.2l-0.1-0.2l0.1-0.4l0.2-0.2
		l0.2-0.1l0.2,0l0.8,0.5l0.1,0.2l0,0.3l-0.2,0.2l-0.3,0.1l-0.1,0.2l0.1,0.2l0.5,0.1l0.2,0.3l0.3-0.2l0.2-0.2l0.2-0.5l-0.1-0.3
		l0.2-0.3l-0.1-0.3l-0.3,0.1l-0.3,0l-0.2-0.2l-0.1-0.3l0-0.2l0.2-0.3l0.1-0.2l-0.3,0.1l-0.1,0.1l-0.1,0.1h-0.2l-0.5-0.6l-0.2-0.3
		l0.1,0l0.1-0.1l0-0.1l-0.2-0.1l-0.3-0.3l-0.1-0.3l-0.1-0.5l-0.1-0.3l-0.2-0.2l-0.2-0.1l-0.1-0.2l0-0.4h0.2l0.2,0.4l0.7,0.7l0.2,0.6
		l0.5,0.9l0.2,0.2l0-0.3l0-0.1l-0.1-0.1v-0.2l0.3,0l0.1-0.1l0-0.2l-0.1-0.2l-0.1,0L503,358l-0.3-0.2l0-0.1l-0.3-0.2l-0.2-0.4
		l-0.2-0.5l-0.1-0.5v-0.7l0-0.2l-0.3-0.6l0-0.5l0.2-0.3l0.3-0.2l0.3-0.3l-0.3-0.1L502,353l-0.2-0.6l-0.3,0.1l0-0.2l0.3-0.5l0.1-0.9
		l0.1-0.2l0.3-0.3l0.2,0.4l0.3,1.2l-0.1,1.4l0.1,0.3l0.6,0l0.2-0.1l-0.1-0.9l0.2-1.9l-0.1-0.2l-0.6-0.5l-0.2-0.3l-0.3-2.8l-0.7-1.8
		l-0.2-0.4l-0.7-0.4l-0.3-0.5l0-0.4l0.6,0.1l0.2,0.3l0.1,0.3l0.2,0.2l0.5,0.1l-0.8-1.3l-0.3-0.8l0.2-0.4l-0.2-1l-0.1-0.3l-0.2-0.3
		l-0.8-0.8l-0.3-0.7l-0.1-0.4l0-0.3l0-1.3l-0.1-0.3l-0.4-0.6l-0.8-2.2l0,0.2l-0.2,0.5l-0.1-0.3l0.1-0.2l0.2-0.1l0.1-0.3l0.2,0
		l0.1-0.1l0-0.2l-0.1-0.3l-0.1-2l0.1,0.2l0.2,0.2l0.2,0.1l-0.2-1.2l-0.1-0.3l-0.9-1.2l-0.2-0.2l-0.5-0.7l-0.1-0.2l-0.5-0.2l-0.1-0.1
		l0.5-0.1l-1.5-3.5l-0.5-1.9l-0.2-2.2l-0.1,0.3l0,0.2l0,0.2h-0.1l0-0.3l-0.1-0.2l-0.2-0.1l-0.2,0.1h-0.2l-0.2-0.3l0.1-0.2l0.3,0
		l0.4,0.2l0.1-0.4l0.1-0.7l0.1-0.3l0.3,0.2l0-0.2l-0.1-0.1l-0.2,0l-0.2,0v-0.2l0.4,0l0.3-0.1l0.2-0.2l0.2-0.3l-0.1-0.1l-0.3,0
		l-0.2-0.1l-0.3-0.2l-0.6-0.6l-0.1-0.3l0-0.9l-0.1-0.2l-0.6-0.5l-0.2-0.1l-0.2-0.2l-0.2-1l-0.1-0.4l-0.2,0.1l-0.2,0l-0.2,0l-0.2-0.1
		l0.1,0.2l0.1,0.1l0.1,0.1v0.2l-0.5,0.3l-0.2,0.5l0.2,0.4l0.6,0.1v0.2l-0.5,0l-0.2,0l-0.2,0L491,315l0,0.1h-0.2l0-0.1l0-0.1l0.1-0.1
		l-0.2-0.3l0-0.3l0-0.3l0-0.3l-0.2-0.2l-0.5-0.3l-0.1-0.1l-0.1-0.2l-0.6-0.5l-0.1-0.2l0-0.6l-0.1-0.5h-0.2l-0.5,1.1l-0.4,0.2
		l-0.6-0.4l-0.2-0.5l0.2-0.3l0.4-0.2l0.3-0.1l0.3,0.3l0.2-0.2l0.2-0.7l-0.9,0.1l-0.7-0.4l-3.9-5.4l-0.8-1.5l-0.2-1.5l-0.1-0.3
		l-0.2,0l-0.2,0.1l-0.2,0.2l-0.1,0.1l-0.2-0.1l0.1-0.1l0.2-0.1l0.3,0l-0.2-0.4l-0.3-0.2l-0.4-0.2l-1.3-1l-0.3-0.4l-0.4-0.6l-0.3-0.9
		l-0.2-1l0.2-0.9l0.3,0.1l0.6-0.1l0.2,0.2l0.1-0.3l0.2-0.2l0.3-0.2l0.3-0.2l-0.3-0.3l0-0.1l-0.1-0.1l-0.2,0.2l-0.1,0.2l0,0.1
		l-0.4-0.1l-0.3-0.2l-0.3-0.2l-0.2-0.2h-0.2l-0.1,0.1l0,0l0-0.1l-0.2-0.1l-0.1,0.2l-0.1,0.2l-0.1,0.2l-0.2,0.1v0.2l0.5,0.1l0,0.4
		l-0.2,0.5l0,0.4l0.2,0.3l0.2,1.3l-0.2-0.3l-0.4,0.1l-0.4,0.2l-0.4,0.1l0.3-0.2l0.3-0.3l0.2-0.4l0.1-0.4l0-0.1l-0.2-0.9l-0.2,0
		l-0.2,0.1l-0.4,0.4l-0.4-0.5l-0.5-0.3l-0.4-0.4l0-0.7l0.3-0.6l0.8-0.7l0.4-0.5l-0.6,0l-0.7-0.1l-0.6-0.1l-0.4-0.2h-0.2l-0.3,0.1
		l-0.5-0.1l-0.4-0.2l-0.2-0.3l0.1-0.4l0.3,0.1l0.7,0.5l-0.8-1.3l-0.2-0.4l-0.2-0.9l0-0.2l-0.3,0.1l-0.1,0.2l-0.1,0.2l-0.2,0.2
		l-0.5-0.1l-1.1-0.8l-0.4,0.1l0,0.2l0.2,0.8l-0.1,0.2l-0.9,0.7l-0.1-0.1l-0.2,0.1l-0.1-0.3l-0.2-0.2l-0.2,0l-0.2,0.2h-0.2l-0.6-0.3
		l-0.3-0.2l-0.1-0.2l-0.3-1.4l0-0.2l0.2,0l0.2,0.1l0.1,0.1l0.2,0.1l0.2,0l0.1-0.1l0.1-0.1l-0.5-0.2l-0.5-0.7l-0.4-0.3l-0.5-0.9
		l-0.2-0.2l-0.9-0.6l-0.1-0.2l-0.1-0.2l-0.1-0.1l-0.2,0.1l-0.1,0.2l-0.1,0.2l-0.1,0.1l-0.2,0l0-0.1l-0.1-0.3l-0.2-0.2l-0.1,0l0-0.2
		l0.1-0.2l0.1-0.2l0.1-0.2l-0.6,0.1l-0.3,0l-0.4,0l0.1-0.2l0-0.1l0.1-0.1h0.2l0.1,0.1l0.3,0.1v-0.2l-0.6-0.2l-0.2-0.2l-0.2-0.3
		l-0.2,0.1l-0.3,0l-0.3-0.1l-0.2-0.3l-0.3-0.1l-0.6-0.1l-1.8-1l0.7-0.1l2.9,1.6l0.9,0.3v-0.2l-0.7-0.2l-2.6-2.3l-2.9-2.1l-3.1-2.7
		l-0.4-0.2l-0.1-0.1l-0.1-0.2l-0.2-0.2l-0.2,0.1l-0.4,0.3l0,0.2l0,0.2l0,0.1l-0.3,0.1l-0.3,0l-0.6,0v-0.2l0.9-0.5l0.1-0.1l0.1-0.2
		l0.2-0.1l0.2-0.1l0.1-0.1l-0.1-0.2l-0.3-0.2l-1.3-1.9l-0.3-0.2l0.1-1l-0.4-0.7l-4-2.9l-4.4-3.3l-2.1-2.3l-0.3-0.4l-0.1-0.1l0-0.1
		l-0.5-0.4l-0.1,0l-0.2-0.4l-0.3-0.8l-1.2-2l-0.6-0.7l-0.6-1.1l-0.3-0.3l-0.5-0.3l-0.8-0.3l-0.8-0.1l-0.5,0.2l0.1,0.1l0.1,0.1
		l0.1,0.3l-0.7-0.4l0.1-0.5l0.5-0.3l0.5,0.2h0.2v-0.2l-1.2-0.3l-0.8-0.1l-0.6-0.2l-0.6-0.2l-0.3-0.2l0.2-0.2l0.3,0.2l1.6,0.2
		l0.9,0.5l0.4,0.1l0.2,0.1l0.3,0.6l0.7,0.3l0.3,0l0.2-0.2l-0.1-0.2l-0.5-0.5l-0.1-0.3l-0.2-1.3l-0.2-0.7l-0.2-0.5l0.2-0.3l0-0.2
		l-0.1-0.2l-0.3-0.1v-0.2l0.5,0l0.3-0.2l0.2-0.3l0.2-0.3l0.5-0.4l0.5-0.3v-0.2l-2.1-2.6l-0.3-0.5l-0.1-0.5l0.3-0.5l0-0.3l-0.3-0.1
		l-0.5,0.6l-0.2,0.1l-0.3,0l-0.2-0.1l-0.2-0.1l-0.2,0.1l-0.1,0.2l-0.1,0.3l-0.1,0.3l0,0.3l-0.2-0.5l0-0.2l0.1-0.3l-0.3,0l-0.1,0
		l-0.1,0.1l-0.3-0.2l0.1-0.2l0.3-0.2l0.3-0.1l0.2,0.1h0.2l-0.2-0.5l-0.3-0.3l-0.8-0.6l-0.7-0.9l-0.2-0.1l-0.5-0.2l-0.2-0.1l-1.3-1
		l-0.4-0.1l-0.6,0.1l-0.5,0.2l-0.4,0.1l-0.2-0.2l0.5-0.1l-0.1-0.3l-0.3-0.4l-1.3-1.1l-0.9-1.2l-0.2-0.2l-0.6-0.4l-0.2-0.3l-0.2-0.4
		l-0.2-0.5l-0.1-0.5l-0.8-0.1l-0.9-1l-1.3-2.1l-0.6-1.8l-0.2-0.3l-0.1-0.3l0-0.7l-0.1-0.7l-0.5-0.3l0.1,0.1l0.1,1.5l0,0.6l-0.5,0.2
		l0.1-0.3l0.1-0.5l0-0.5l-0.2-0.2l-0.1-0.2l0.4-1l-0.1-0.4l-0.3-0.4l-0.5-0.6l-0.2-0.1l-0.4,0l-0.2,0l-0.1-0.1l-0.3-0.6l0.2,0
		l0.2,0.1l0.1,0.2l0.1,0.2l0.3-0.4V227l-0.5-0.2l-0.6-0.4l-0.5-0.4l-0.3-0.4l-0.1-0.3l-0.2-0.8l0-0.3l-0.1-0.2l-0.1-0.2l0-0.3
		l0.3-0.8l0.5-0.9l0.6-0.6l0.7,0.2l0.1-0.2l0.2-0.2l0.6-0.3l-0.2-0.6l0-0.9l0.3-1.6l0.1-0.1l0.3,0l0.3,0l0.2-0.7l0.2,0l0.2,0
		l0.2-0.1l0.1-0.2l0-0.5l-0.1-0.1l-0.2,0.1l-0.1-0.3l-0.1-0.2l0.5,0.3l-0.1-0.4l-0.4-0.8l-0.1-0.7l-0.1-0.3l-0.3-0.2V213l0.3,0.2
		l0.3-0.7l0.3,0.2l-0.1-1l0.3-1.9l0-0.9l-0.1,0l0-0.1l0-0.3l-0.1-0.3l-0.1-0.2l-0.1,0.1l-0.2,0.2l-0.1,0.2l0-0.4l0.3-0.2l0.3,0.1
		l0,0.6l0.1-0.3l0-0.7l0-0.4l0.2-0.4l0.5-0.8l0.1-0.4l0.2-0.3l0.3,0l0.3,0l0.2-0.2l0.1-0.4l0.4-0.6l0.1-0.3l-0.3,0.1l-0.7,0.1
		l-0.3,0.1l-0.2-0.2l0.7-0.4l0.3-0.2l0.2-0.3l0.2,0.3l0.1,0.1l0.1-0.3l0-0.7l0.1-0.4l0.5-0.7l0-0.2l-0.2-0.4l0-0.2l0.1-0.4l0.2-0.3
		l1.1-1l0.3-0.3l0.1-0.3h0.2l0.2,0.3l0.3,0.3l0.4,0.2l0.3,0.1l0.1-0.2l0.4-1.1l0.1-0.4h0.2l-0.1,0.5l-0.2,0.4l-0.1,0.4l0.1,0.4
		l0.4-0.3l0.9-0.2l0.4-0.2l0.2-0.3l0.3-0.8l0.2-0.4l0.2,0.2l-0.1,0.1l-0.2,0.6l0.4-0.2l0.6-0.7l0.6-0.3l0.6-0.8l0.5-0.4l0.8-1.1
		l0.3-0.7l0.2-0.2l0.5-0.2l0.2-0.1l-0.2-0.2v-0.2l0.2-0.1l0.1,0l0.2,0v0.2h-0.2v0.2l1.6-0.2l0.3-0.1l0.6-0.3l0.5-0.2l0.3-0.2
		l0.2-0.3l0.1-0.3l0.1-0.2l0.1,0l0-0.1l-0.1-0.2l-0.1-0.1l-0.6-0.4l-0.1,0.3l-0.2,0.1l-0.2-0.1l-0.2-0.3h0.1l0.4-0.1l0.4,0.1
		l0.3,0.3l0.2,0.3l0.3-0.2l0.1-0.4l0.1-0.4l0.2-0.3l0.1-0.3l-0.2-0.3l-0.4-0.4l0.1,0l0.1,0l0-0.1l0-0.1l0,0.1l0.1,0.2l0.3-0.3
		l0.2-0.6l0.1-1.1l-0.2-0.2l-0.5,0.1l-0.6,0.2l-0.3,0.2h-0.2l0.1-0.2l0.2-0.2l0.2-0.2l0.1-0.1l0.1-0.1l0.7-0.2l0.1,0l0.1-0.5
		l-0.2-0.4l-0.2-0.4l0.3-0.4v-0.2l-0.7,0.4l-0.3,0l-0.4-0.2l1.5-0.6l0.5-0.5l0.4-0.2l0.1-0.1l0.1-0.1l0-0.1l0-0.3l-0.1-0.1l-0.1,0
		l-0.1-0.1l-0.4-0.4l-0.2-0.2l-0.1-0.4l0.3,0.2l0.3,0.5l0.2,0.1l0.4,0l0.4-0.1l0.4-0.1l0.3-0.2l0.5-0.4l0-0.3l-0.4-0.2l-0.6-0.3
		v-0.2l0.3,0l0.7,0.2l0.3,0l0.2-0.1l0.2-0.1l0.2,0l0.1-0.1l0.3-0.2l0.3-0.1l0.1,0.1l0.1,0.2l0.2,0.2l0.5,0.4l-0.4-1.4l-0.2-0.4
		l-0.1,0.2l-0.4-0.3l-0.4-0.5l-0.3-0.5l-0.2-0.5l0.5,0.3l0.3-0.2l0.1-0.5l-0.2-0.6l-0.4-0.3l-0.5-0.2l-0.2-0.3l0.4-0.5l0.5,0.5h0.2
		l0.1-0.3l0.2-0.3l0-0.3l-0.1-0.5l-0.2-0.1l-0.3,0l-0.5-0.2l-0.6,0l-0.2-0.2l-0.1-0.3l0-0.3l-0.1-0.3l-0.2-0.2v-0.2l0.5,0.1l0.2,0.1
		v-0.2l-0.7-0.3l-0.3-0.1l0.4-0.1l0.5,0.1l0.9,0.4v-0.2h-0.2v-0.2l0.5-0.2l0.4,0.1l0.4,0.2l0.6,0.1l0-0.1l-0.1-0.2l0-0.1l0.3,0
		l0.2,0.1l0.2,0.1l0.2,0.2l-0.3,0.3l0.1,0.2l0.2,0.1l0.2,0.1l0,0.3l-0.1,0.2l-0.2,0.1l-0.4,0l-0.4,0.2l0.2,0.4l0.5,0.3l0.5-0.1h0.2
		l0.1,0.2l0,0l-0.1,0.1l0.5,0.4l0.2,0.5l0.2,0.2l0.5-0.7l-0.1-0.1l-0.1-0.2l-0.1-0.2l0-0.2h0.2l0.2,0.5l0.2,0.3l0.4,0.1l0.6,0v-0.2
		l-0.3-0.1l-0.1-0.2l-0.1-0.2l-0.1-0.2l-0.1-0.1l-0.5-0.3l-0.3-0.2l-0.7-0.8l0.2,0l0.1,0l0.1,0.1l0.1-0.3l0.3,0.1l0.6,0.5l0.2,0.2
		l0.3,0.2l0.4,0.1l0.4,0.1l0.4,0l0.5,0l0.4-0.2l0.2-0.4l-0.1-0.4l-0.6-0.5l0-0.4l0.4,0.4l0.2,0.1l0.3,0l-0.3-0.3l0.2,0l0.1,0
		l-0.1-0.1l-0.1-0.2l-0.1-0.1v-0.2l0.3,0l0.2,0.2l0.1,0.3l0,0.4l0.1-0.2l0.1-0.2l0-0.2l0-0.3h0.2l-0.1,0.5l0.1,0.1l0.2-0.2l0.2-0.4
		l0.1,0.1l0,0l0.1,0.1l-0.1,0.1l-0.1,0.2l0,0.2l0.1,0.1l0.2-0.1l0.1-0.1l0-0.2l0.1-0.2l0.2-0.1l0.3-0.1l0.3-0.1l0.3,0v0.2l-1.3,0.9
		l-0.7,0.9v0.2l0.5,0.2l1.2,0.2l0.4,0.4v-0.2l0.3,0.1l0.2,0l0.3-0.1l0.4,0l-0.1-0.4l0.5-0.6l0.4-0.1V173l-0.2,0l-0.1,0l-0.1-0.1
		l-0.1-0.1l0.3-0.2l0.5-0.1l0.5,0l0.3,0.1l0.3-0.1l0.5,0l0.6,0l0.3-0.1l0.2-0.1l0.4-0.3v-0.2l-0.2-0.2l-0.1-0.3l0-0.4l-0.1-0.4
		l0.2-0.1l0.1-0.1l0-0.1l-0.1-0.2l0.4-0.4l0.2-0.6l0.1-1.1l-0.2,0.1l-0.2,0l-0.2-0.1l-0.2-0.2l0.1-0.3l0-0.9l0.1-0.2l0.1-0.1
		l0.1-0.1l-0.1-0.2v-0.2l0.6-0.2l0.8,0l0.5-0.2v-0.2l-0.7-0.4l-0.2-0.2l0.2-0.4l0.9,0.2l0.1,0.1l0.1,0.2l0.3,0.1l0.2,0.1h0.1
		l0.5,0.1l0.5,0l0.3-0.1l-0.3-0.1v-0.2l0.1-0.2l-0.1-0.3l-0.1-0.3l0-0.1l0.3,0.1l0.1,0.2l0.1,0.3l0.1,0.3l0.2,0.3l0.2,0.2l0.3,0.1
		l0.4,0l0.2-0.1l0.1-0.3l0.1-0.6l0.4,0.1l0.1,0.1l0-0.1l0,0l0,0l-0.1,0l0.3-0.2l0.2,0l-0.2-0.2l-0.1-0.1l0.1-0.1l0.2-0.1v-0.2
		l-0.1-0.1l0,0v-0.1l-0.1-0.1l0.4,0.2l0.3,0l0.1-0.2l-0.2-0.3v-0.2l0.1-0.1l0.1-0.1h0.2l0.2,0.2l0.3,0.1l0.3,0l0.1-0.2l0.1-0.1
		l0.2,0l0.4,0l0.4-0.7l-0.2-0.2l0.1-0.2l0.1-0.1l0.2-0.1l0.3,0l-0.1-0.2l-0.1-0.4l-0.1-0.2l0.3,0.1l-0.1-0.4l-0.2-0.2l-0.3-0.1
		l-0.4,0v-0.2l0.3-0.2l0.4-0.1l0.3,0.1l0.1,0.5l0.2-0.2l0.1,0.4h0.2l0-0.3l0-0.1l-0.1-0.1v-0.2l0.2-0.2h0.1l0,0.5l0.1,0.4l0.2,0.2
		l0.3-0.1l0.2-0.7l0.2-0.2l0.1,0.4h0.2l0.2-0.2l0-0.1l0-0.2l0.4,0.1l0.3,0.1l0.2,0.2l0.1,0.4l0,0.1l0.1,0.1l0.1,0.1l0,0.2l-0.1,0.1
		l-0.1,0.1l-0.1,0.2v0.3l0.3,0.4l0.5-0.3l0.5-0.5l0.5-0.3l-1.1-1.2l-0.3-0.1l-0.8-0.9l-0.7-0.5l-0.3-0.3l-0.3-0.4l-0.1-0.3l-0.2-0.2
		l-0.5-0.2l-0.8-0.2l-0.4-0.1l-0.4,0l-0.4,0.1l-0.9,0.7l-0.4,0.2l-1.4,0.3h-0.5l-1-0.1L461,157l-0.2,0.1l-0.2,0.4l-0.2,0.1l-0.2,0
		l-0.2-0.1l-0.4-0.2l-0.3-0.1l-0.1-0.9l-0.3-0.4l-0.5-0.1l-0.4,0.2l-0.6,0.7l-0.8,0.5l-0.4-0.4l-0.6-1.9l-0.7-0.8l-0.7,0.1l-0.8,0.3
		l-1-0.3l-1.9-1.6l-0.7-0.4l-1-0.2l-0.5-0.2l-0.3-0.4l-0.1-0.5l0.2-0.4l0.3-0.4l0.2-0.4l0-0.5l-0.3-0.4l-0.4-0.2l-0.5,0l-0.4,0.2
		l-0.4,0.2l-0.4,0.1l-0.5-0.3l-0.3-0.4l-0.2-0.4l-0.3-0.3l-0.6-0.1l-1,0l-0.4-0.1l-0.5-0.3l-0.1-0.1l-0.2-0.3l-0.1-0.1l-0.3-0.1
		l-0.2,0l-0.8,0.9l-0.4,0.3l-0.4,0l-0.1-0.2l-0.1-0.2l0-0.2v-0.2l0.5-1.2l0.1-0.6l0-0.7l-0.1-0.1l-0.2-0.3l-0.1-0.1l0-0.2l0.1-0.4
		v-0.2l-0.1-0.3l-0.2-0.3l-0.2-0.3l-0.1-0.4l0.3-0.4l0.2-0.2l0.1-0.3l-0.6-1.9l-0.1-0.3l-0.4-0.3l-1,0l-0.5-0.2l-0.3-0.3l-0.1-0.4
		l-0.1-1l-0.2-0.8v-0.3l0.1-0.3l0.3-0.4l0.1-0.2l0.6-2.6l0.2-0.5l0.3-0.3l0.5-0.1l0.3,0.3l0.3,0.4l0.4,0.3l0.5,0l0.3-0.3l0.4-1.3
		l0.2-0.4l0.5-0.8l0.2-0.5l0.1-0.8l0.2-0.5l0.3-0.3l0.8-0.5l0.2-0.3l-0.2-0.3l-0.5-0.1l-0.6,0.1l-0.3,0l0-0.1l-0.4-0.7l-0.7-0.6
		l-0.3-0.3l-0.2-0.2l-0.3-0.1l-0.2,0.1l-0.2,0.4l-0.2,0.1l-0.5-0.1l-0.3-0.3l-0.2-0.4l-0.2-0.4l-0.3-0.2l-1.2-0.3l-0.4-0.2l-0.3-0.1
		l-0.2,0.2l-0.1,0.6l-0.4,0.2l-3.4,0.9l-0.5,0.1l-0.5,0l-0.5-0.1l-0.5-0.2l-0.2-0.3l-0.1-1l-0.5-0.9l-0.8-0.5l-0.9-0.2l-1.3-0.2
		l-1.9,0.1l-0.2,0.1l-0.4,0.8l-0.3,0.2l-0.4,0.1l-0.8,0.1l-0.2,0l-0.4-0.1l-0.3,0l-0.1,0.1l-0.1,0.2l-0.1,0.2l-0.2,0.1l-0.4-0.3
		l-1.4-1.5l-0.3-0.5h0v0l-0.3-0.3l-0.3-0.1l-0.3-0.1l-0.3-0.1l-0.5-0.5l-0.2-0.2l-0.6,0l-0.7-0.2l-1.7-0.1l-0.3-0.1l-0.3-0.4
		l-0.1-0.5l0-1.1l-0.2-0.5l-0.3-0.3l-1-0.7l-0.2-0.3l-0.5-1v0l-0.3-0.6l-0.1-0.1l-0.3-0.1l-0.2,0l-0.2,0.1l-0.2,0l-0.3-0.2l-0.4-0.3
		l-0.4-0.3l-0.3-0.4l-0.2-0.5l-0.1-0.5l-0.2-0.3l-0.4,0l-0.3,0.2l-0.8,0.7l-0.2,0.3l-0.2,0.5l-0.1,0.5l-0.2,0.4l-0.4,0.3l-0.3,0
		l-0.2-0.1l-0.1-0.1l-0.2,0l-0.1,0l-0.2-0.1l-0.1,0l-0.1,0.1l-0.1,0.1l0,0.1l-0.1,0.1l-2,0.6l-0.3,0.1l-0.7,0.5l-0.8,0.4l-0.9,0.8
		l-0.2,0.1l-0.3,0l-0.6-0.4l-0.3,0l-0.3,0.2l-0.1,0.4l0,0.4l-0.1,0.4l-0.6,0.5l-0.6,0.1l-0.3,0.3l0.7,3.4l0,0.5l-0.1,0.3l-1.2,0.7
		l-0.3,0.3l-0.8,1.2l-0.3,0.3l-0.4,0.2l-0.4,0.2l-0.5,0l-0.8-0.3l-0.5-0.1l-0.1,0.1l-0.2,0.3l-0.1,0.1l-0.2-0.1L390,126l-0.1-0.1
		l-0.1-0.1l-0.1-0.1l0-0.1l0-0.1l-0.2,0l-0.1,0.1l-0.4,0.5l-1.6,1.3l-0.5,0.5l-2.2,1.5l-0.4,0.1l-0.4-0.2l-0.5-0.3l-1.3-0.6
		l-0.3-0.4l-0.2-0.5l0-0.6l0.1-0.6l0.2-0.5l-0.7,0l-2,0.7l-0.7,0.1l-0.3,0.1l-0.3,0.2l-0.2,0.2l-0.3,0.5l-0.2,0.2l-0.5,0.7l-0.2,0.7
		l-0.2,1.6l-0.1,0.4l-0.3,0.8l-0.1,0.4v0.4l0,0.4l0,0.3l-0.3,0.3l-0.3,0.2l-0.2-0.2l-0.2-0.2l-0.4-0.1l-0.2-0.1l-0.3-0.7l-0.2-0.3
		l-0.1-0.1l-0.4,0l-0.1,0l-0.5-0.6l-0.2-0.1l-0.2-0.2l-0.5-0.8l-0.1-0.2l-0.3-0.3l-1.6-1.5l-1.6-2l-0.3-0.2l-1,0.6l-0.3,0.2
		l-0.2,0.3l-0.1,0.4l-0.2,0.4l-0.5,0.6l-0.1,0.3l0.2,1.3l-0.1,0.2l-0.8,1.1l-0.3,0.2l-0.4-0.1l-0.3-0.2l-0.6-0.7l-0.9-1.5l-0.2-0.4
		l0-0.5l0-0.4l-0.1-0.4l-0.3-0.2l-0.2-0.3l-0.2-0.3l-0.3-0.2l-0.3-0.2l-0.5-0.2l-0.3,0.1l-1,1.7l-0.4,1.2l-0.2,0.3l-0.4,0.3
		l-1.4,0.8l-0.6,0.5l-0.3,0.8l0.1,0.2l0.3,0.4l0,0.3l-0.1,0.2l-1.2,0.8l-0.4,0.2l-0.4,0.1l-0.3,0.2l0,0.4l0.1,0.4l-0.1,0.4l-0.4,0.3
		l-0.5,0l-0.5-0.2l-0.8-0.6l-0.9-0.2l-0.4-0.2l-0.2-0.3l-0.8-1.6l-0.1-0.5l-0.2-0.4l-0.3-0.4l-0.4-0.2l-1-0.2l-0.5-0.2l-1.4-1.2
		l-0.5-0.2l-1-0.2l-0.5-0.2l-0.2-0.1l-0.4-0.4l-0.1-0.1l-0.3,0.1l-0.1,0.2l-0.1,0.2l-0.2,0.1l-0.5,0l-0.2-0.3l-0.1-0.5l-0.3-0.5
		l-0.5-0.4l-0.6-0.2l-0.6,0.1l-0.4,0.5v0l-0.2,0.9L338,129l-0.3,0.3l-0.2,0.1l-0.3,0l-0.3,0l-0.2,0.2l0,0.3l0.2,0.2l0.2,0.1l0.1,0.2
		l0.1,0.2l0,0l-0.2,0.3l-3,3.1l-0.2,0.5l-0.1,0.9l-0.1,0.4l-0.3,0.4l-0.3,0l-0.4-0.2l-0.5-0.1l-0.4,0.1l-0.4,0.3l-0.2,0.3l0.2,0.4
		l0.1,0.3l0.2,0.8l0.1,0.1l0.2,0.2l0.1,0.1v0.1l-0.1,0.3l0,0.2l0.3,0.4l0.4,0.3l0.3,0.3l0.2,0.5l0.5,0.4l1.4,0.7l1.7,1.7l0.8,0.5
		l0.2,0.2l0.2,0.3l0.2,0.6l0.2,0.3l0.5,0.4l0.6,0.3l0.4,0.3l-0.2,0.3l-0.1,0.1l-0.1,0.1l0,0.1l0,0.1l0.3,1l0.9,0.5l1.1,0.4l0.7,0.6
		l0.8,1.9l0.2,1.1l-0.1,1.5l0.1,0.6l0.1,0.6l0.2,0.4l0.2,0.3l0.1,0l0.1-0.1l1.3,0l0.3-0.1l0.7-0.5l0.5-0.7l0.3-0.8l0.1-2.1l0.4-0.4
		l0.5,0.4l0.2,1.2l-0.1,1l0.1,0.5l0.3,0.3l0.4,0l1.7-0.8l0.1-0.1l0.1,0l0.2,0.3l0.1,0.3l0,0.3l0,1.8l0.1,0.6l0.2,0.6l0,0.1l0,0.1
		l0,0.1l0,0.1l-0.5,0.5l-0.9,1.1l-0.5,0.5l-1.1,1.8l0.4-0.2l0.5-0.3l0.5-0.2l0.3,0.1l0,0.3l-0.8,1.3l-0.1,0.5l0,1.2l-0.1,0.4
		l-0.3,0.3l-0.8,0.2l-0.4,0.3l-0.3,0.5l0.2,0.1l0.5,0l0.5,0l0.4,0.1l0.3,0.2l0.2,0.3l0.1,0.3l0,0.2l-0.2,0.5v0.2l0.1,0.3l0.2,0
		l0.2,0l0.2,0.1l0.3,0.4l0.2,1l0.2,0.4l0.1,0.2l0.1,0.2l0.2,0.1l0.4,0l0.6,0.3l0.4,0.4l0.5,1.2l0.7,1.6l0.4,0.7l0.7,0.9l0.4,0.3
		l0.2,0.1l0.3,0.1l0.4,0.1l0.2,0.1l0.2,0.1l0.3,0.2l0.2,0.1l0.3,0l0.5-0.1l0.2,0l0.4,0.1l1.4,0.7l0.7,0.2l0.3,0l0.1,0l0.6-0.2
		l0.5-0.3l0.2-0.2l0.1-0.2l0.1-0.1l0.3,0.1l0.3,0.3l0.4,0.9l0.3,0.3l0.2,0.1l0.2,0.1l0.2,0.1l0.2,0v0l0,0v0l1.5,0.3l0.5,0.3l0.9,1
		l0.5,0.5l0.1,0.1l0.1,0.1l0.3,0l0.2,0l0.3-0.1l0.3-0.1l0.1-0.1l0-0.2l-0.2-0.5l0-0.2l0.1-0.3l0.1-0.1l0.2,0l0.3-0.1l0.5-0.3
		l0.1-0.2l-0.1-0.2l-0.1-0.5l0.1-0.4l0.2-0.5l0.2-0.5l0.2-0.3l0.3-0.1l0.5,0.1l0.2,0l0.2-0.1l0.4-0.3l0.2-0.1l1.8-0.6l0.5-0.2
		l0.2-0.1l0.3,0l0.9-0.1l1.1-1.3l0.9-0.1l0.2,0.1l0.4,0.3l0.2,0.1l0.2,0l0.5,0l0.3,0l0.7,0.3l0.2,0.1l0.1,0.2l0.3,0.5l0.1,0.1l0.2,0
		l0.5-0.2l0.2,0l0.2,0.1l0.2,0.1l0.2,0.1l0.2,0.2l0.3,0.4l0.4,0.8l0.3,0.4l0.2,0.1l0.4,0.1l0.2,0.1l0.1,0.2l0.2,0.4l0.2,0.2l0.5,0.1
		l0.5,0l0.5,0.1l0.3,0.4l0.2,0.8l0.4,0.4l1.2,0.6l1.4,0.5l0.3,0.4l-0.2,0.7l-1.6,2.1l-0.5,0.4l-0.6,0.2l-0.6-0.1l-0.6-0.5l-0.5,1h0
		l-1.4,0.9l-0.2,0.5l0.8,0.5l1,0.2l3.4-0.1l0.3,0.2l0.6,0.8l0.4,0.3l0.9,0.4l0.3,0.3l0.1,0.2l0.1,0.3l0,0.3l0,0.2l-0.2,0.3l-0.2,0.1
		l-0.2,0L392,191l-0.1,0.3l0,0.5l0,0.5l0.1,0.3l0.8,0.4l1-0.2l1.1-0.4l1,0l2.1,1.2l0,0.2l-0.1,0.3l0,0.6l0.3,0.5l0.9,0.6l0.2,0.4
		l-0.1,0.1l-0.3,0.1l-0.1,0.1l0,0.2l0.1,0.2l0,0.5l0.1,0.3l0,0.3l-0.1,0.3l-0.3,0.3l-0.3,0l-0.7-0.1l-0.5,0.1l-0.1,0.1l0,0.2
		l-0.2,0.4l-0.5,0.4l-1.3,0.8l-0.5,0.6l-0.2,0.5l0.1,0.1l0.7,0l0.5,0.2l0.2,0.1l0,0.2l0,0.4l-0.2,0.8l-0.5,0.4l-0.6,0.3l-0.6,0.5
		l-0.5,0.1l-0.3,0l-0.3,0.1l-0.4,0.3l-0.3,0.3l-0.2,0.3l-0.8,2l-0.2,0.3l-0.2,0l-0.4-0.2l-0.2-0.1l-0.2,0.1l-0.4,0.3l-0.2,0.1
		l-0.6,0.1l-0.4-0.1l-1.4-0.8l-0.6-0.3l-0.2-0.1l-0.3-0.3l-0.2-0.3l-0.3-0.2l-0.5-0.1l-0.4,0.1l-1.1,0.7l-0.4-0.7l-0.8-0.3l-0.3-0.3
		L380,206l-0.5,0l-0.1,0.1l-0.2,0.2l-0.2,0.4l-0.2,0.2l-0.5,0.1l-0.5-0.2l-1.2-0.6l-0.3-0.1l-0.2,0.1l-0.1,0.4l0.1,0.3l0.5,1.3
		l0.3,0.4l0.8,0.5l0.3,0.2l0.2,0.4l0,0.4l0.1,0.4l0.3,0.3v0l0,0v0l-0.1,0.3l-0.2,0.1l-0.3,0.1l-0.2,0.1l-0.2,0.3l-0.1,0.6l-0.1,0.3
		l-0.2,0.4l0,0l-0.1-0.1l-0.4,0l-0.6,0.2l-0.5,0.3l-0.5,0.1l-0.3,0.2l-0.5,0.7l-0.4,0.3l-0.9,0.4l-0.3,0.2l-0.2,0.4l0.2,0.1l0.4,0
		l0.4,0l0.3,0.6l0.1,0.2l0.2,0.1l0.6,0.3l0.7,0.5h0l0.5-0.2l0.5,0l0.5,0.1l2.7,1.2l1,0.7l0.2,0.2l0.1,0.5l0,0.5l0.2,0.2l0.7-0.2
		l0.5,0.1l0.3,0.3l0.3,0.3l0.4,0.3l0.5,0.2l0.4,0.1l0.4,0.2l0.4,0.4l0.7,1l0.3,0.2l0.4,0.1l0.7-0.1l0.5,0.1l0.4,0.2l0.3,0.3l0.8,1.3
		l0.3,0.3l0.8,0.4l0.3,0.3l0.7,0.7l0.4,0.2l0.2,0.1l0.5,0l0.2,0.1l0.1,0.1l0.3,0.4l0.2,0.2l0.3,0.1l1,0.1l0.9,0.3l0.3,0l1.4-0.1
		l0.6,0.2l0.2,0.6l0.3,0.3l0.4,0.1l0.5,0l0.4-0.1l0.4,0.1l1.2,0.7l0.6,0.2l0.3,0l0.3-0.1l0.3,0l0.3,0.1l0.7,1.1l0.5,0.4l0.2,0.2v0.4
		l-0.2,0.4l-0.2,0l-0.3-0.1l-0.3,0l-0.3,0.5l-0.3,0.7l-0.4,1.4l-0.1,1l0.3,0.7l0.6,0.5l0.8,0.6l0.4,0.4l0,0.3l-0.2,0.3l0,0.5
		l0.2,0.3l1.2,0.7l0.1,0.2l0.2,0.4l0.2,0.1l0.2,0.1l0.9-0.1l0.1-0.1l0.1,0l0.2,0.3l0,0.3l-0.2,0.6l0,0.3l0.3,0.4l0.4,0.3l0.4,0.2
		l0.4,0.1l0.2,0.1l0.1,0.1l0.1,0l0.2-0.1l0.1-0.2l0.1-0.6l0.1-0.2l0.4-0.2l0.5,0l0.5,0.2l0.4,0.3l0.1,0.2l0.2,0.7l0,0.2l-0.1,0.1
		l0,0.1l0,0.1l0.1,0.1l0.3,0.1l0.1,0.1l0.4,0.9l0.2,0.2l0.4,0.2l0.2,0.2l0.1,0.3l0.1,0.6l0.1,0.2l0.2,0.2l0.6,0.3v0l0.4,0.8
		l-0.3,1.9l0.3,0.8l0.9,0.9l0.6,1.2l0.5,0.7l0.2,0.4l0.3,1l0.2,0.4l0.3,0.2l1.3,0.5l0.8,0.5l0.6,0.6l1.6,2l0.5,0.5h0l2.1,2.5l4,3.4
		l0.5,0.3l0.3,0l0.3-0.2l0.3-0.4l0.1-0.2l0.1-0.2l0.1-0.2l0.3,0l0.3,0.1l0.1,0.2l0,0.3l0.1,0.3l0.1,0.2l0.3,0.3l0.1,0.1l0,0.2
		l-0.2,0.4l0,0.3l0.1,0.4l0.7,1.2l1.2,1.1l0.2,0.4l0,0.1l-0.2,0.3l0,0.1l0.5,1l0.1,0.2v0l0.2,0.2l0.4,0.2l0.5,0.2l0.4,0.1l0.6,0.2
		l0.7-0.6l0.2,0.4l0,7.2l0.1,0.6l0.2,0.5l0.5,0.6l0.5,0.3l0.5,0.2l0.3,0l0.4,0.2l0.1,0.3l-0.1,1.3l0,0.3l0.3,1l0.4,0.7l0.5,0.4
		l0.7-0.1v0.3l0.1,0.1l0.2,0l0.2-0.1l0.2-0.2l0-0.2l0-0.2l0.1-0.2l0.6-0.4l0.3-0.3l0.1-0.4l0.5-0.9l0.6,0l0.4,0.6l0.1,1l-0.1,0.8
		l0,0.1l-0.1,0.1l-0.1,0.1v0.1l0.1,0.1l0.2-0.1l0.1-0.1l0.1,0l0.3,0.7l0.2,0.3l0.4,0.3l0.6,0.3l0.2,0.1l0.1,0.2l0.1,0.6l0.1,0.2
		l0.3,0.2l0.3,0l0.8,0l0.9,0.1l0.4,0.1l0.4,0.2l0.5,0.3l0.2,0.3l0.3,1.3l0.1,0.3l0.2,0.3l0.3,0.3l0.4,0.2l0.3,0.1l0.3,0.1l0.4,0.1
		l0.6,0.4l0.9,1.1l0.6,0.5l0.7,0.2l0.7-0.1l1.3-0.3l0.5,0l0.1,0.1l-0.1,0.3l0,0.5l0.1,0.3l0.2,0.2l0,0.2l-0.3,0.3l-0.3,0.3l-0.7,1.2
		l-0.4,0.4l-0.3,0.2l-0.9,0.2l-0.4,0.2l-1.7,1.1l-0.2,0.1l-0.2,0l-0.2-0.1l-0.2-0.1l-0.3,0.1l-0.3,0.3l-0.6,1.3l0,0.5l0.3,0.4
		l1.3,0.8l0.2,0.3l0.1,0.4l0.1,1l0.1,0.4l0.2,0.3l0.4,0.3l0.9,0.5l0.3,0.3l1.3,2.3l0.3,0.2l0.2-0.1l0.2-0.2l0.2-0.2l0.2,0l0.5,0.1
		l0.1,0l0.1-0.1l0.1,0l0.1,0.3v0l0.1,0.2l0.1,0.1l0.1,0l0.2-0.1l0.3,0.2l0.1,0.5l0,0.6l0.1,0.4l0.5,0.3l1-0.2l0.4,0.1l0.1,0.3l0.1,1
		l0.2,0.4l0.3,0.3l1.1,0.8l0.3,0.4l0.2,0.3l0,0.4l-0.2,1.2l-0.1,0.2l-0.2,0l-0.1-0.1l-0.1-0.1l-0.2,0.2l-0.1,0.2l0,0.8l-0.1,0.5
		l-0.2,0.4l-0.1,0.1l-0.3,0.3l-0.1,0.2l0,0.2l0.2,0.4l0,0.3l-0.3,0.3l-0.4,0l-0.7-0.1l-0.4,0l-1.1,0.3l-0.5,0l-0.2,0.2l0,0.3
		l0.2,0.4l0,0.4l0.1,0.3l0.2,0.3l0.3,0.2l0.4,0.2l1.4,1.1l0.2,0.2l-0.1,0.3l-0.4,0.5l-1,1L460,328l0.1,0.4l0.2,0.4l0.1,0.4l-0.3,0.3
		l0.2,0.2l0.2,0.2l0.2,0.2l0,0.3l0.3,0.7l-0.1,0.6l-0.6,1.2l0,0.4l0.1,0.7l0,0.4l-0.1,0.3l-0.3,0.5l-0.1,0.3l0,0.2l-0.1,0.3
		l-0.3,0.6l-0.2,0.4l-0.3,0.3l-0.5,0.1l-0.2-0.1l-0.1-0.2l-0.1-0.1l-0.3,0.1l-0.2,0.2l-0.1,0.2l0,0.2l-0.1,0.2l-0.5,0.9l-0.2,0.5
		l0,0.5l0,0.2l0.2,0.5l0.1,0.2l0,0.2l-0.1,0.9l-0.8,2.3l-0.1,0.6l0.1,0.3l0.2,0.2l0.3,0.4l0,0.5l-0.1,0.5l0,0.5l0.3,0.4l0.4,0.2
		l0.9-0.1l0.4,0.1l0.2,0.2l0,0.2l0,0.2l0,0.2l0.3,0.7l0.1,0.4l-0.1,0.3l-0.1,0.3l-0.1,0.4l0.3,0.7l0,0.2l-0.2,0.5l0,0.3l0.1,0.4
		l0.5,0.5l0.2,0.4l0.1,0.1l0.6,0.6l0.4,0.6l2,3.9l0.2,0.9l0.2,2.4l-0.1,0.8l-3.5,8.5l0.1,0.3l0.4,0.3l0.1,0.2l0,0.2l-0.1,0.1
		l-0.1,0.1l-0.1,0.2l0,0.3l0.1,0.3l0.3,0.6l0.1,0.7l0.1,0.4l0.2,0.3l0.7,0.8l0.3,0.7l0.1,0.6l0,0.7l0.1,0.7l0.6,2.7l0,0.8l-0.1,0.7
		l-0.1,0.3l-0.1,0.3l-0.1,0.3l0.2,0.3v0.6l-0.7,2l-0.1,0.6l-0.2,0.6l-0.4,0.4l-0.6,0.3l-0.6,0.4l-0.8,1.1l-0.6,0l-0.5-0.4l-0.7-1.1
		l-0.6-0.3l-1.1,0.1l-1.5,0.5l-1.4,0.7l-0.7,0.8l-0.2,0.3l-0.3,0.3l-0.6,0.5l-0.8,0.9l-1.6,1.6l-0.6,0.4l-0.9,0.3l-0.9,0.1l-1.8-0.1
		l-0.7,0.1l-0.5,0.3l-0.4,0.6l-0.3,0.8l-0.5,0.6l-0.5,0.1l-1.2-0.3l0.2,0.4l-2.1-0.3l-1.2,0l-0.7,0.5l-0.3,0l-0.1-0.2l-0.1-0.2
		l-0.2-0.2l-0.3,0l-0.3,0l-0.6,0.1l0.2,0.7l0.7,1.3l0.1,0.6l-0.1,0.1l-0.4,0.6l0,0.2l0,0.5l0,0.2l-0.2,0.3l-0.2,0.3l-0.1,0.3l0,0.4
		l0.7,1.1l0.2,0.6l-0.2,0.4l-0.3,0l-0.3-0.2l-0.5-0.4l-0.3-0.1l-0.2,0l-0.3,0l-1.4,0.4l-0.3-0.1l-0.2-0.2l-0.3-0.5l-0.2-0.2
		l-0.5-0.3l-1.7-0.5l-1,0l-1.2-0.4l-1.1-0.2L424,403l0,0.3l-0.1,0.3l-0.1,0.3l-0.7,0.7l-0.2,0.5l-0.3,0.3l-0.7,0l-1.1-0.4l-0.4,0.1
		l-0.5,0.5l-0.3,0.3l-0.3,0.4l-0.1,0.5l0.3,0.5l0.3,0.2l0.6,0.1l0.3,0.2l0.1,0.3l0,0.3l0,0.6l0.4,1.3l0,0.4l-0.1,0.4l-0.3,0.8
		l-0.4,1.8l0,0.3l0.3,0.2l0.4,0.1l0.3,0.2l0.1,0.5v0l0.2,0.7l0.5,0.4l1.3,0.3l0.4,0.3l0.6,0.9l0.4,0.4l0.8,0.7l0.3,0.4l0.2,0.5
		l0.3-0.5l0.4-0.2l0.4,0.1l0.4,0.3l0.3,0.4l0.4,1.4l0.3,0.5l-0.2,0.1l-0.8,0l-0.4,0l-0.1,0.1l-0.1,0.2l0,0.1l0,0.6l0,0.1l0.1,0.4
		l0.6,1.1l0.6,2.3l-0.5-0.4l-0.6-0.2l-1.4-0.1l-0.6-0.2l-0.7-0.3L424,425l-0.5-0.5l-0.2-0.3l-0.8-0.7l0,0.4l-0.2,0.5L422,425
		l-0.2,0.2l-0.5,0l-0.4-0.3l-0.3-0.4l-0.2-0.3l-0.3-0.8l-0.2-0.4l-0.8-1.1l-0.4-0.7l-0.4-0.5l-0.6-0.1l-0.7,0.2l-0.6,0.3l0,0
		l-0.5,0.3l-0.5,0.3l-3.8,0.8l-0.2,0l-0.5-0.3l-0.7-0.2L410,422l-0.3,0.2l-1,1.1l-0.7,1.4l-0.2,0.2l-0.4-0.1l-0.8-0.7l-0.4-0.2
		l-3.4-0.6l-0.3-0.1l-0.3-0.4l-0.1-0.3l-0.1-0.1l-0.5,0.3l-0.3,0.2l-0.3,0.3l-0.3,0.4l-0.2,0.4l0.1,0.8l0.4,0.9l0.9,1.6l0,0.8
		l-0.6,0.6l-2.4,1.2l-0.3,0.3l-0.3,0.3l-1,1.5l-0.6,0.6l-0.9,0.3l-1.1,0l-3.6-0.4l-1,0l-0.4,0.1l-0.3,0.2l-0.2,0.4l-0.2,0.4l-1,1.5
		l-0.3,0.2l-0.3,0.1l-0.4-0.1l0.1,0.3l-0.1,0.4l0,0.3l0.4,0l0.4-0.1l0.3-0.2l0.2-0.3l0.2-0.4h0.2l0.1,0.3l0,0.2l-0.1,0.2l-0.2,0.3
		l-0.2,0.1l-0.2,0l-0.1,0.1l0.1,0.3l0.5,0.7l0.2,0.5l0,0.7h0.2l0-0.1l0-0.1l0.1-0.2l0.7,0.5l0.2,0.3l0.1,0.6v0.7l0.1,0.2l0.3,0.4
		l0.1,0.2l0,0.3l-0.1,0.2l-0.1,0.2l0.1,0.2l0.1,0l0.8,0l0.1-0.1l0.1-0.5l0.1-0.1l0.3-0.1l0.1-0.2l0-0.2l0.1-0.2l0.6-0.5l0.7-0.2
		l0.8,0.1l0.8,0.5l0.5,0.6l0.5,0.8l0.6,0.8l0.8,0.5l0.6,0l1-0.2l0.5,0.1l0.5,0.3l0.9,0.9l1.1,1.4l0.3,0.5l0.2,0.5v1.1l0.1,0.9v0.3
		l-0.6-1.5l-0.1-0.4l-0.2-0.2l-0.5,0.2l-1.5,1.1l-0.4,0.4l-0.2,0.4l-0.2,0.2l-1.3,0.5l-0.5,0.7l-0.3,1l-0.9,4.7l-0.1,1l0.2,3.1
		l-0.3,1.1l-0.2,3.6l-0.2,1.5l0,2.8l0.1,0.6l0.4,0.2v0.2l-0.4,0.3l-0.1,0.6l0.2,1.2l-0.1,0.5l-0.3,1l-0.1,0.6l0.4,0.6l1-0.2l1.5-0.7
		l-0.1,0.5l0.1,0.5l0.2,0.4v0.2l-0.4,0.3l-0.2,0h-0.6l-0.4,0l-0.3,0.1l-0.1,0.1l0.1,0.3l0.6,0.3l0.8,0l0.8-0.2l0.6-0.3l-0.2,0.3
		l-0.3,0.3l-0.4,0.2l-0.3,0.1l-1.6-0.3l-0.3,0l-0.3,0.2l0.1,0.1l0.2,0.1l0.1,0.2l-0.1,0.3l-0.2,0.1l-0.2,0.1l-0.2,0.2l-1.4,1.1
		l-0.2-0.2l-0.3-0.1l-0.2,0.1l0.1,0.3l0.1,0.1l0.6,0.2l1.5,0.2l0.2,0.1l0.1,0.1l0.1,0.1l0.6,0.1l5.3-1.1l0.9-0.4l0.6-0.5l0.8-1.3
		l1.5-1.2v-0.2l0.6,0.1l0.8-0.5l0.7-0.7l0.4-0.6l1.6-3.8l0-0.1l0-0.3l0-0.1l0.1-0.1l0.3-0.1l0.1-0.1l0.1-0.4l0.3-0.3l0.6-0.5
		l1.1-1.1l0.6-0.5l5.3-2l6.2-2.5l3.3-1l0.7-0.1l0.2-0.2l0.1-0.4l-0.1-0.3l-0.2-0.1l-0.2-0.1l-0.2-0.2l0.9-0.9l0.1-0.3l-0.1-1
		l-0.1-0.4l-0.2-0.3l-2.5-3.7l-0.2-0.5l-0.1-0.4l-0.2-0.4l-5.6-5.6l-0.5-0.7l0.5,0.1l0.8,0.5l0.8,0.2l0.7,0.5l0.9,0.8l2.3,2.8
		l4.5,4.2l2.1,1.1l1.2,0.9l0.3,0.2l1,0l0.3-0.2l0.2-0.1l0.2,0.1l0.3,0.1l0.3-0.1l0.5-0.3l0.6-0.5l0.5-0.7l0.3-0.8l0.1-1.2l0-0.5
		l-0.1-0.5l-0.3-0.2l-0.6-0.1l-0.2-0.3l-0.2-1l-0.4-0.8l-0.6-0.7l-2.1-1.7l-0.5-0.6l-0.1-0.1l-1.2-1.2l-0.1-0.2l-0.2-0.4l-0.1-0.2
		l-0.2-0.2l-1.6-1.2l-0.5-0.5l-0.3-0.3l-0.2-0.3l-0.2-0.8l-0.2-0.3l-0.6-0.6l-0.2-0.1l-0.2-0.1l-0.1-0.1l0.2-0.2l0.1,0l0.2,0.1
		l0.2,0.1l6,6.2l2,1.2l0.6,0.4l1.4,1.5l0.6,0.5l0.6,0.1l0.6-0.2l0.5-0.5l0.1-0.8h0.1l0.1,0.2l0.1,0.2l0,0.2l-0.2,0.2v0.2l0.3-0.3
		l0.3-0.5l0.1-0.5l-0.2-0.2l-0.4-0.1l-1.4-0.7l-1.3-1l-1.9-0.9l-0.5-0.5l-2.2-2.9l-0.2-0.5l-0.2-0.9l-0.3-0.3l-0.7-0.6l-0.1,0
		l-0.1-0.1l-0.1-0.1l0.9,0.3l0.7,0.7l2,3.2l0.6,0.7l0.7,0.6l1.2,0.5l0.4,0.3l0.3,0.3l0.3,0.3l0.4,0.1l0.9,0l0.1,0l0.1-0.1l0.1-0.2
		l0.2-0.2l0-0.2l0.1-0.1l0.4,0l0.1-0.1l-0.1-0.2l-0.2-0.2l-0.1-0.1l0.1-0.2l0.1-0.2l0.3-0.3l0-0.1l0.1-0.4h0.2l0.1,0.2l0,0.2l0,0.2
		l-0.1,0.2l0.4,0.1l0.4-0.2l1.3-1.4l0.1-0.4l0-0.6l0-0.2l-0.1-0.1l-0.2-0.1l-0.2,0l-0.3,0l-0.2-0.1l-0.1-0.1l-0.1-0.1l-0.1-0.1
		l-0.4-0.3l-0.1-0.1l-5.8-2l-1.4-0.9l0.4-0.1l0.3,0.1l0.4,0.2l0.5,0.1l0.9,0l1.8,0.3l2.5,0l1.2,0.3l0.5,0l0.4-0.2l0.1-0.5l-0.2-2.1
		l-0.1-0.4l-0.3-0.4l-0.2-0.3l-0.2-0.4L442,434l-0.4-0.1l-0.2,0.1l-0.4,0.7l-0.2,0.2l-0.5,0l-0.2-0.3l-0.1-0.4l-0.1-0.3h-0.2
		l-0.2,0.4l-0.3,0.3l-0.4,0.2l-0.4,0.1l-0.3-0.1l-0.1-0.3l0-0.8l0.2,0.2l0.1,0.2l0.1,0.3l0,0.4l0.3-0.2l0.3-0.1l0.2-0.1l0.2-0.5
		l0.2-0.2l0.3-0.1l0.3-0.1l-0.2-0.2l-0.1-0.1l-0.1-0.4h0.2l0.2,0.4l0.4,0l0.8-0.3l0.3-0.2l0.2-0.4l0.1-0.5l0.1-0.4l0.1-0.2l0.1-0.1
		l0.1-0.1l0.1-0.3l-0.3-0.7l-0.1-0.2l-0.1-0.1l-0.2-0.1l-0.2-0.2l0.1-0.3l0.1-0.1l0.5-0.3l0.1,0l0.3,0.2l0.4,0.3l0.3,0.4l0.1,0.3
		l0.2,0.3l0.5-0.1l0.8-0.4l1.5,1.3l-0.1,0.8l0,0.4l0.1,0.5l0.1,0.2l0.1,0.1l0.1,0.1l0.1,0.3l0,0.2l-0.1,0.3l0,0.2l0.2,0.1l0.2-0.2
		l0.5-0.9l0.4-0.2l-0.5-0.4l-0.2-0.6l0-0.7l0.2-0.7h0.1l0,0.7l0,0.3l-0.1,0.2v0.1l0.3,0.3l-0.2,0.2l0.3,0.2l0.2,0.1l0.2,0l0-0.2
		l-0.1-0.1l-0.2-0.1l-0.1-0.2l0.3-0.6l0.1-0.4l-0.2-0.2l-0.3-0.1v-0.3l0.2-0.6l-0.2-0.2L448,429l-0.2-0.3l0.1-0.4l0.7,0.6l0.3,0.4
		l0,0.6l-0.3-0.1l-0.1-0.1l0.1,0.2l0.3,0.3l0.1,0.2l0.1,1.7l0,0.2l-0.2,0.3l-0.2,0.1l-0.3,0.1l-0.2,0.2l-0.1,0.4h0.1l0.1-0.2
		l0.2-0.1l0.3-0.2l0,0.2l0.1,0.5l0.3-0.1l0.2-0.2l0.2-0.5l0.1,0.3l0,0.1l-0.1,0.2h0.2l0.4-0.3l0.5,0l0.5,0.2l0.3,0.3h0.1v-0.3
		l0.2,0.1l0.3,0h0.3l0.1,0l0.5,0.5l0.1,0.1l0.1,0.1l0.2,0.2l0.1,0.2l0,0.2l-0.1,0.2l-0.2,0.1l-0.2,0.1l-0.1,0.2l0.6,0.1l0.9,0.5
		l0.4,0l0.6-0.9l0.7-0.7l0.2-0.3l0.3,0.1l1-0.3l1.1-0.1l0.4-0.1l1.5-0.7l0.5-0.3l0.2-0.3l0.1-0.3l0.6-0.6l0.2-0.2l1-0.5l0.6-0.2
		l0.5-0.1l1.6-0.8l0.9-0.3l0.3-0.2l1-0.8l1.4-0.6l0.4-0.1l0.5,0l0.4,0.1l1.1,0.3l0.3,0.2h0.2l0.9-1.8l0.2-1l0.3-0.7l0.1-0.3l0.1-0.3
		l0.6-0.6l0.1-0.2l0.3-0.4l0.7-0.2l3-0.6l0.6,0.2l0.2,0.7h0.1l0.4-0.8l0.2-0.2l0.5-0.1l0.1-0.2l0.3-1.1l0.1-0.3l0.2-0.1l0.4,0l0.3,0
		l0.8-0.4l0.2-0.1l0.6-0.1l0.2-0.3l0.2-1l0.2-0.4l0.3-0.4l0.4-0.4l0.7-0.2l0.3-0.3l0.1-0.1h0.9l0.3-0.1l0.5-0.2l0.2-0.1l0.3,0
		l0.5,0.2l0.2,0.1h0.4l0.3-0.1l0.2-0.2l0.2-0.4l0.3-1.2l0.2-0.4l0.2-0.3l0.3-0.3l0.8-0.6l0.4-0.2l0.4-0.1l0.4,0l0.4,0.1l1,0.5l0.4,0
		l0.4-0.1l0.3-0.2l0.6-0.5l0.3-0.3l0.1-0.3l-0.1-0.9l0.2-1.7l0-1.1l-0.4-0.6l0.2,0l0.5,0l-0.2-0.4l0-0.4l0.1-0.3l0-0.3l-0.2-0.1
		l-0.3-0.3l0-0.3l0.6-0.1l0.1,0.2l0.2,0.8l0.3,0.3l0.5,0.1l0.4,0l0.3,0l0.3,0.2h0.2l0.3-0.4l0.1-0.3l0.1-0.3l0.1-0.2l0.4-0.4
		l0.1-0.2l0.1-0.4l0-0.2l0.1-0.2l0.4-0.5l0.2-0.5l0.2-0.2l0.2,0.2l0.3-0.5l-0.9-1.2l0-0.6l-0.3-0.4l0-0.3l0.2-0.3l0.1-0.3l-0.2,0
		l-0.4,0.4l-0.3,0.5l-0.1,0.2l-0.8-0.1l-0.1-0.8l0.3-0.8l0.5-0.1l0.6-0.6l0.4-0.6l0.2-0.7l0.1-0.7l-0.1-0.4l-0.6-0.5l-0.1-0.3
		l0.1-0.7l0-0.1l-0.1-0.1l-0.3-0.6l0.3-0.4l0.2,0.3l0.2,1l0.5,1.4h-0.2l0.3,0.8l-0.1,1.8l0.2,0.7l0.1-0.1l0.2-0.1l0.1-0.1l0.2,0.3
		l0.3,0.2l0.4,0l0.4-0.2v-0.2l-0.3-0.1l-0.2-0.3l-0.1-0.4l0-0.4l0.4-0.3l0-0.1l0.1-0.4v-0.2l-0.7-0.5l-0.2-0.3l-0.7-1.3l-0.2-0.4
		l-0.1-1l0-0.2l0.3-0.3l0.1-0.2l-0.1-0.3l-0.2-0.2l0-0.1l0-0.1l0-0.2l0-0.3l-0.1-0.2l-0.3-0.2l0,0l-0.2,0.2l0.1-0.3l0.2-0.1l0.6,0.2
		l-0.2-0.3l-0.2-0.3l-0.1-0.3l0.2-0.4l-0.5-0.3l-0.2-0.2l-0.1-0.2l0.1,0.1l0.5,0.2l0.2-0.7l0.1-0.2h0.2l0.3,0.1l0.1-0.1v-0.2
		l-0.3-0.2l-0.2-0.2l-0.2-0.3l-0.1-0.2l0-0.5l-0.1-0.6l-0.2-0.4l-0.5,0.1l-0.2-0.3l-0.4-0.4l-0.1-0.3h0.2l0.1,0.1l0.2,0.1l-0.1-0.1
		l-0.1-0.3l-0.1-0.1l0.7-0.1l0.7,0.5l1,1.2l0.3,0.6l0.2,0.3l0.4,0.1l0.3-0.2l0.2-0.4l0.2-0.2l0.3,0.3l0.2-0.2l-0.2-0.2l0.3-0.3
		l-0.2-0.3l-0.4-0.3l-0.3-0.1l-0.1-0.1l-0.1-0.2l0-0.2l0.2-0.5l-0.1-0.2l-1.2-0.8l-0.3-0.3l-0.1-0.4l0.1-0.4l0.2-0.4l0-0.3l-0.4-0.1
		v0.2h0.2v0.2l-0.3,0.1l-0.1,0.2l0,0.3l-0.1,0.3h-0.2l0-0.1l0,0h-0.1l-0.1,0v-0.2l-0.1-0.4l0-0.4l0.2-0.2l-0.1-1l0-0.2l0.7-1
		l0.2-0.2l0.3-0.1l0.3-0.3l0.6-0.7l0.2-0.2l0.8-0.5l0.1-0.2l0-0.2l0.1-0.2l0.3-0.1l0.1,0.1v0.7l0.1,0.3l0.4,0.6l0.1,0.4l-0.1,0.2
		l-0.2,0.1l-0.2,0.1l-0.1,0.1l-0.1,0.1l-0.4,0.6l0.3,0l0.2,0.1l0.2,0.2l0.1,0.2l0.1-0.2l0-0.2l0-0.2l-0.1-0.2l0.3,0l0.2,0l0.1-0.1
		l0-0.2l0.5,0.8v0.2l-0.4,0.4l-0.1,0l0,0.3l0.1,0.1l0.1,0.1l0.1,0.1l0.3,0.7l0.2,0.3l0.3-0.2l0-0.3l-0.1-1l0.1-0.4l0.1-0.1l0.2,0
		l0.1-0.1L507.5,380.7L507.5,380.7z"/>
</g>

</svg>
