<?xml version="1.0" encoding="utf-8"?>

<svg version="1.2" baseProfile="tiny" xmlns="http://www.w3.org/2000/svg" xmlns:xlink="http://www.w3.org/1999/xlink" x="0px"
	 y="0px" viewBox="329.3 96.2 181.3 400.5" xml:space="preserve">

<g id="Vanuatu">
	<g>
		<polygon fill="#D21034" points="332.4,106.1 332.7,106.5 333,106.8 333.4,107.1 334.3,107.3 335.2,107 335.9,106.2 336,105.2
			335.3,104.5 334.2,104.4 333.1,104.9 332.2,105.6 		"/>
		<polygon fill="#D21034" points="337.6,115 336.7,115.4 337.5,117.6 338.3,115.8 		"/>
		<polygon fill="#D21034" points="385.2,136.4 384.6,135.9 383,133 382,131.9 381.3,131.4 380.5,131.5 378.1,132.5 377.2,133.2
			376.4,134.1 376,135.3 375.9,136.7 376.3,137.9 377.5,139.8 378.6,140.6 379.1,141.2 379.3,141.9 379.3,143 379.9,144.4
			381.1,144.3 381.8,143.4 381.2,142.1 381.5,141.7 381.6,141.6 381.4,141.5 381.2,141.3 382.5,141.2 383.7,140.9 384.7,140.4
			385.5,139.8 385.8,139.8 386.2,139.8 386.6,139.8 386.7,139.6 386.7,139.2 386.5,139.1 386.2,139.2 385.9,139.1 385.4,138.7
			385,138.6 384.5,138.3 384.1,137.5 384.6,137.3 		"/>
		<polygon fill="#D21034" points="393.3,127 392.8,126.6 391.8,126.9 391,127.5 389.1,130.1 389.1,130.7 389.6,130.6 390,130
			390.9,130 391.9,129.8 392.8,129.5 393.3,129.3 393.5,128.6 393.5,127.7 		"/>
		<polygon fill="#D21034" points="373.9,119.7 373,119.1 371.6,119.5 371,120.3 371,121.2 371.4,122.1 372,122.9 373.2,123
			374.2,123 374.8,122.4 374.9,121 374.3,121.5 373.7,121.6 373.1,121.3 372.7,120.6 373.9,120.4 		"/>
		<polygon fill="#D21034" points="331.8,97.5 331.5,97 331.1,96.7 329.3,96.2 329.4,96.8 329.6,97.2 329.9,97.5 330.1,97.9
			330,98.5 329.7,100 329.6,101.2 329.8,102 330.3,102.5 331.2,103 331.4,102.8 331.6,102.6 331.8,102.4 331.9,102.2 331.9,101.5
			332,101.2 332.2,101.1 332,100.6 331.9,100.2 332,99.9 332.2,99.6 332.2,99.2 332,98.8 		"/>
		<polygon fill="#009543" points="471.1,406.1 470.5,405.2 468.7,404.3 466.6,404.2 464.5,404.8 462.8,406 462.1,407.1 461.8,408.3
			461.4,412.3 461.5,412.8 462,413.3 462.3,413.9 462.5,414.5 462.5,415.3 461.6,417.8 461.7,418.8 464.6,419.7 465.6,420.2
			466.9,421.1 467.4,421.7 467.9,421.9 469.6,422.4 470,422.4 470.7,422.1 471.3,422.3 476.1,424.9 477.2,425.7 477.8,424.7
			478.9,424.2 480,423.5 480.4,422.1 480.2,420.4 479.5,419.1 478.4,418.1 476.8,417.2 476.2,416.8 474.6,416 474.2,415.9
			474.1,415.3 472.8,413.7 476.1,412.8 476.8,412.8 476.7,412.3 476.4,411.9 476.1,411.5 475.7,411.3 475.7,410.7 475.5,410.7
			475.2,410.7 474.8,410.8 474.5,410.9 474.6,411 472.4,410.8 471.6,410.3 471.3,409.3 471.3,407.2 		"/>
		<polygon fill="#009543" points="509.4,491.6 508.5,491.2 507.5,490.3 506.5,490 505,490 503.6,490.3 502.9,490.5 502.3,491.4
			501.9,492.9 502,494.2 502.7,494.7 504.4,495.5 505.7,495.9 506.4,496.2 506.9,496.7 507.4,496.4 508.5,496.2 509.2,495.9
			509.7,495.4 510,494.7 510.6,493.2 510.1,492.2 		"/>
		<polygon fill="#009543" points="481.4,445 481.3,444.2 480.4,443.5 479.6,443.9 477.5,444 476.4,444.2 475.8,444.6 475.4,445
			475.2,445.5 475,446.2 475.2,447.5 475.2,448.2 474.8,448.5 474.2,449.2 473.9,450.5 473.8,452 473.9,452.8 474.1,453.4
			475.9,456.1 476.1,456.5 476.2,456.7 476.6,457 477,457.4 477.2,458.1 477.3,458.4 477.8,458.6 478.8,458.6 479.4,459.1
			481.6,461.7 482.5,462.1 484.7,462.8 485.8,462.9 486.3,462.3 486.7,461.1 487.1,458.6 489,456.2 489.3,455.5 488.2,455.1
			487.4,454.5 485.6,453.6 484.5,453.1 483.2,452.7 482.1,452.3 481.6,451.5 480.8,447.2 481.1,445.9 		"/>
		<polygon points="376.4,164 376.6,164.3 377,164.4 377.5,164.7 378.2,165 379,165.1 379.7,164.8 383.3,165.1 383.9,165
			384.5,164.7 385.2,163.9 386.6,161.6 386.9,161.3 387,160.8 387.4,157.9 387,157.4 386.5,157 383.2,155.4 382.7,155.2
			382.1,155.4 381.3,156.1 380.8,156.3 379.9,156.4 379.5,156.3 379.1,156.3 377.8,157.4 377.3,157.7 376.9,158.2 376.8,159.2
			377.1,162.2 376.6,163.3 		"/>
		<polygon points="416.5,201.1 416.3,200.4 415.9,199.3 415.3,198.3 414.6,197.9 414.2,198.2 413.8,198.8 413.6,199.5 413.7,200
			414,200.3 416.5,201.6 		"/>
		<polygon fill="#FDCE12" points="335.7,185.3 335.5,184.9 335,184.6 334.9,184.3 334.3,182.9 334.1,182.4 333.5,181.9 333.3,182.1
			332.9,182.5 331.3,183 		"/>
		<polygon fill="#FDCE12" points="407.5,217.9 402.9,218.7 401.5,219.3 406.3,221.7 406.9,220.7 407.7,219.9 408.9,218.7
			408.8,218.2 		"/>
		<polygon fill="#FDCE12" points="414.1,200.8 414,201.1 413.9,201.5 415.2,210 415.7,211.3 415.7,217.2 415.4,219.1 416,221.7
			416,223.1 415.8,224.4 417.1,224.2 417.6,224.2 418.3,224.4 418.7,222.8 418.7,221.2 419,219.6 419.1,218.5 418.9,217.8 419,214
			418.9,213.5 418.1,212.6 417.9,212.1 417.9,210.2 417.8,209.6 417.2,207.8 417.2,207.2 417.2,206 417.2,205.5 416.5,202.4
			416.5,201.6 414,200.3 414.1,200.5 		"/>
		<polygon fill="#FDCE12" points="429.5,359.6 430,359.6 433.8,358.7 433.8,358.8 434.1,359.1 434.4,359.3 434.7,359.4 435.1,359.3
			435.3,359.1 435.5,358.8 435.6,358.7 437,358.4 437.7,358.1 438.1,357.4 438.5,356 440.1,352.9 428.5,358.8 428.6,359.1 		"/>
		<path d="M331.2,183l-0.2,0.7l0.1,1.4l-1.5,3l0.4,0.8l0.1,1.3l-0.2,1.3l-0.4,0.9l-0.1,0.9l1,4.2l0.4,0.9l1.1,1.7l0.2,0.9l0.1,1
			l0.3,1.1l0.6,0.8l0.9,0.3l-0.5,0.9l-0.1,0.8l0.6,2.1l0.2,2.3l0.3,1.1l1.3,1.9l0.3,1.3l0.1,2.6l-0.2,1.1l-0.7,2.2l-0.3,1.6
			l-0.5,1.1l-0.1,0.5l0.2,0.5l0.8,1l0.2,0.7l0.2,0.5l1.4,1.4l0.3,0.4l0.6,1.7l0.4,0.7c4.1,0.4,9.7,1.5,15.7,3.6l0.2,0l2.1,0.2
			l0.5,0.2l0.9,0.5l0.7,0.1l0.6,0l0.5-0.1l0.4-0.2l0.5-0.4l2-2.4l0.9-0.7l0.8-0.3h2l0.6,0.1l0.4,0.2l0.3,0l0.4-0.3l0.2-0.5l0.1-0.6
			l-0.1-0.6l-0.5-0.2l-1.3-1.1l-1.2-2.5l-1-2.8l-0.4-1.8h0.4l0.4,0.8l0.4-0.3l0.2-0.9l0.1-1l-0.6-1.2l-0.2-0.3l-0.4-0.3l-0.9-0.3
			l-0.3-0.1l-0.5-0.8l0.2-0.2l0.5-0.2l0.3-0.9l-1-4.5l0.3-1l-1-0.4l-0.7,0.2l-1.3,0.9l-0.2-1l-0.9-2.7l-0.2-1.9l-0.4-0.7l-0.9-0.1
			l0.6-0.7l0.2-0.6l-0.1-2.3l0.1-0.7l0.4-0.5l1-0.2v-0.4l-4-0.4l-0.7,0.3l-1,0.6l-0.6,0.8l0.3,0.9l0.1,0.7l-0.3,6.1l-0.2,0.8
			l-0.4,0.5l-0.5,0.4l-0.4,0.4l-0.7,1.1l-0.3,0.4l-0.6,0.1l-1.4,0l-2.4,0.3l-1.4,0l-0.6-0.5l-0.7-6.8l-0.2-0.4l-0.4-0.3l-0.3-0.4
			l0.1-0.7l-0.2-2.7l-0.5-2.6l-1-2.7l-0.3-1.3l0.5-0.6l-2.2-1.7l-1.1-0.5l-0.3-0.7l-0.4-1.3l-1.3-1.6l-0.2-0.1l-0.1-0.6l-0.2-0.7
			l-0.1-0.2L331.2,183L331.2,183z"/>
		<polygon points="400.3,219.7 399.4,219.9 398.2,220.3 391.7,226.5 391.1,227.4 391.5,228.1 393.3,229 394.4,229.3 400,229.4
			401.3,228.9 404.9,226 405.3,225.3 405.5,224.2 405.7,223.1 406.2,221.9 406.3,221.7 401.5,219.3 		"/>
		<polygon points="365.4,232.2 365.3,232 364.5,232 363.5,232.4 360.9,235.1 362.2,235.9 362.7,236.1 363.5,236.2 363.9,236.1
			364.1,236 364.3,235.8 365.5,236.2 366.3,235.6 366.2,234.6 365,233.9 365.3,233.6 365.4,233.2 365.2,232.9 364.6,232.8
			364.6,232.4 		"/>
		<path d="M367.1,240.7l0.7-1.7l-0.2-1l-1.9-0.7l-3.8-0.5l-1.1,0.3C362.9,238.3,365,239.4,367.1,240.7L367.1,240.7z"/>
		<polygon points="360.2,198.7 360.5,199.2 361.7,200.6 362.1,200.9 362.6,200.9 363,200.7 363.5,200.2 362.6,200 361.2,198.9 		"/>
		<polygon points="419.6,232.1 419.4,231.8 419,231.7 418.7,231.2 418.5,230.7 418.2,228.1 417,228.2 416.7,232.6 415.4,236.9
			415.1,239.2 415.3,241.4 415.8,243.4 417,246.5 417.6,250.8 418.6,254.1 418.8,256.3 419,257.1 419.7,257.5 420.9,257.4
			422.4,256.6 423.1,255.1 423.2,253.2 423.1,251 422.9,250 422.2,248.7 422,247.9 421.6,245.1 420.3,241.5 420.2,240.7 420.2,239
			419.4,237.3 419.3,236.3 419.8,232.9 		"/>
		<polygon points="419.9,344.3 419.7,346 420.2,345.4 420.7,344.9 422,344.1 422.7,343.9 423.9,343.2 424.6,342.9 423.5,342
			421.6,342.7 		"/>
		<polygon points="426.9,336.7 426.3,337 426,338.5 426.6,339.8 427.8,340.6 428.7,340.3 428.2,338.3 427.6,337.3 		"/>
		<polygon points="440.1,352.7 440,351.8 439.7,352 439.3,352.2 438.7,352.3 438.2,352.1 437.9,351.8 437.4,350.8 437.1,350.2
			436.1,349.8 435.6,348.9 435.3,347.8 434.9,346.8 434.3,345.9 434,345.7 433.6,345.6 433.4,345.4 433.2,344.4 433.1,344.1
			432.3,343.5 431.4,343.4 427.7,344 426.8,344.6 426.5,344.2 426.3,343.6 426.1,343.3 424.4,343.6 423,344.7 420.9,347.9
			420.3,348.5 418.9,349.5 418.3,350.2 417,353 416.8,353.7 417.6,354.2 417.7,354.7 418.1,354.9 418.7,354.8 419,354.5
			419.8,353.3 420.2,352.9 420.9,352.5 421.5,352.3 422.2,352.4 423.1,352.9 423.5,353.1 423.9,353.1 424.1,353.3 424.3,354.5
			424.5,354.7 424.9,354.7 425.3,354.4 425.1,355.6 424.1,356.1 422.9,356.5 422,357.2 422,357.5 423.9,357.1 424.8,356.7
			425.3,356 425.7,356 425.3,357.9 425.6,357.6 425.9,357.4 426.3,357.4 426.8,357.5 426.9,357.3 426.9,357.3 426.9,357.3
			427.2,357.2 427.2,357.6 427.4,358.2 427.5,358.7 428,357.9 428.3,358.1 428.4,358.6 428.5,358.8 440.1,352.9 		"/>
		<polygon points="404.5,272.3 405.1,272.8 406,273.1 406.8,273.6 407.6,274.3 409.4,275.4 409.9,276.1 410.7,275.7 411.4,275.8
			412.8,276.8 413.5,276.6 414.2,276.8 414.9,277.2 415.6,277.8 416.2,278 417,277.8 417.8,277.4 418.5,277.2 424.2,277 426,275.6
			426.4,274.9 426.3,274.1 426,273.6 422.1,271.6 421.1,270.6 420.9,268.9 419.8,265.4 419,263.5 417.9,262.4 416.8,262.7
			416.3,262.9 415.5,265.1 415.2,265.4 414.5,265.9 412.5,267.9 411.3,268.5 408.9,268.5 408.4,268.6 407.6,269.1 406,269.5
			404.7,270.1 404,270.9 404.8,271.5 		"/>
		<polygon points="427.5,316.9 426.9,317.2 426.3,317.9 426,318.5 426.6,318.8 427.1,318.8 428.9,318.3 429.2,318 429.4,317.6
			429.7,317.3 431.1,316.5 431.5,316.2 430.3,315.8 429.5,315.8 		"/>
		<polygon points="426.1,285.3 424.6,285.6 425.2,287.1 425.7,287.7 426.4,287.9 427.5,287.9 428.1,287.3 428.1,286.5 427.5,285.6
			426.8,285.2 		"/>
		<path d="M392.6,286.4l0.9,0.2l0.5,0.1l0.4,0.5l0.2,0.6l0.4,0.5l0.9,0l0.6-0.3l0-0.4l-0.1-0.5l0.4-0.5l0.5-0.6l0.3-0.6l0.3-0.4
			l0.7-0.1l0.5-0.2l1.2-1.3l-0.4-0.6l-0.3-0.9l-0.4-0.7l-0.6,0l-0.6,0.5l-0.4,0.6l-0.2,0.7l-0.1,1.1l-0.8-0.6l0.1-1l1-1.9l-0.4-2.7
			l-0.7-1.2l-1.4,0.2l-2.3-1.9l-0.9-1.1l0.4-0.8v-0.4l-0.2-0.1l-0.5-0.3l-1.2,0.5C391.5,276.9,392.2,281.5,392.6,286.4z"/>
		<polygon points="424.3,295.6 423.8,295.5 423.3,295.7 422.4,296.2 422,296.3 421.6,295.8 421.3,294.9 421.2,294 421.1,293.6
			420.5,293.1 419.6,291 419.2,290.6 419,290.4 418.9,290.2 418.7,289.9 418.1,289.8 417.6,289.9 417.3,290 417,290.1 416.5,289.8
			416.7,290.6 416.8,291 416.8,291.5 416.7,292.2 416.4,292.6 416.1,292.9 415.8,293.3 415.5,294.1 415.4,296.2 415.2,296.9
			415.2,297.3 415.6,297.8 416.5,298.6 416.6,299.1 416.5,300.7 416.8,301.2 418.3,302.7 419,303.2 421.2,303.7 422.8,303.1
			424.4,302.1 426.6,301.7 427.4,301.8 428.4,302.1 429.3,302.5 430.2,303.5 433.1,305.1 433.6,304.8 434.1,305.1 434.3,304.4
			433.9,303.5 433.8,302.7 434.5,302.4 433.6,301.2 432.4,300.7 429.5,300.9 428.6,300.6 428.1,299.9 427.8,299.2 427.7,299
			426.7,298.7 426.2,298 425.9,297.1 425.3,296.3 425.1,296.1 424.7,295.8 		"/>
		<polygon points="420,286 420.9,286 421.8,285.4 422.2,284.6 422.2,282.6 422.7,281.8 421.3,281.9 420.7,282.4 420.2,284.5
			419.6,285.4 		"/>
		<polygon points="438.4,306.8 437.4,307.6 437.4,308.9 437.1,309.6 437.3,310.1 437.9,310.3 438.7,310.4 439.3,310.1 440.8,307.7
			439.7,306.7 		"/>
		<path fill="#FDCE12" d="M360.5,241.9l1.5,0.4l0.8,0.3l1.5,1.1l0.8,0.4l1,0l1.5-0.5l-0.1-1.2l-0.4-1.5c-2.1-1.4-4.2-2.5-6.3-3.6
			l-0.7,0.2l-1,1.1l-0.2,1.5l0.9,1.5L360.5,241.9z"/>
		<path fill="#FDCE12" d="M339.4,232l0.8,0.8l1.8,0.9l0.6,1.2l0,1.4l-0.7,1l1,1l1.1,0.6l1.2,0.1l1.1-0.5l0.4-0.5l0.2-0.5l0.3-0.5
			l0.7-0.4l1.2,0.2l0.4-0.1l-0.5-0.6l1.3-1.2l2-0.5l2.1,0c-6-2.2-11.5-3.2-15.7-3.6L339.4,232z"/>
		<path fill="#FDCE12" d="M363,260.5l-0.2,1.3l0.2,0.7l0.4,0.5l0.4,0.4l0.4,0.5l0.2,0.6l0.1,0.5l0.1,0.6l0.4,0.6l0.6-0.3l0.7,0.3
			l1.3,1.1l2.4-1.6l0.9-1l0.3,0.4l0.3-0.2l0.9-0.5l1.9,3l0.3,1l0.1,0.2l0.3,0.1l0.3,0.1l0.1,0.4l0,1l0,0.3l0.6,2.7l-0.3,0.7l0,3.4
			l0.2,1.2l0.2,0.1l0.3,0.1l0.4,0.2l0.3,0.4l0,0.3l0,1l0.1,0.8l0.2,0.6l1.3,1.8l0.5,1l0.3,1.1l0.1,0.9l-0.5-0.2l-0.4-0.3l-0.3-0.3
			l-0.2-0.4h-0.4l0.1,1.2l0.7,0.8l0.7,0.6l0.7,1.3l1.5,0.5l0.5,0.6h0.3l0.1-0.8l0.3,0l0.3,0.3l0.3,0.1l1.1-1.1l1.4-0.2l0.6-0.3
			l0.5-0.7l-0.5-0.1l-0.2-0.1l-0.1-0.2l-0.4-0.3l0.6-0.6l1.1-0.8l1.2-0.5l1,0.4l0.5,0l0.8-0.1h0.8l0.3,0.5l0.3,0.1l0.5,0.1
			c-0.4-4.9-1.1-9.5-2.3-13.6l-0.3,0.1l-0.8-0.4l-0.7-1l-1.2-1.1l-0.7-0.4l-1.2-0.4l-0.6-0.4l-0.4-0.5l-0.3-0.6l-0.2-0.6l-0.2-0.7
			l-0.2,0.2l-0.2,0.1l-0.2,0.2l-0.2,0.3h-0.4l-0.3-0.2l-1.2-0.6l-0.1-0.4l0.4-0.6l0.1-0.5l-0.8-1.2l-0.5-0.6l-0.2,0.1l0.3,1l0.1,0.5
			l-0.2,0.2l-0.6-0.2l-0.8-0.8l-1.1-0.4l-0.5-0.4l-0.5-0.5l-0.5-0.4l0.4-0.7l-0.2-0.6l-0.5-0.4l-0.7-0.3l0.9-1.9l-3.2-4.1l0.1-2
			l-5.9-2.3l-1.6,1.2l-0.5,0.1l-0.2,0.3l-0.1,0.4l-0.3,0.5l0,0.7l0.2,3.7L363,260.5z"/>
	</g>
	<path fill="none" stroke="#999999" stroke-width="0.25" stroke-linecap="round" stroke-linejoin="round" d="M332.4,106.1l0.2,0.4
		l0.3,0.3l0.4,0.3l0.9,0.2l1-0.4l0.7-0.8l0.1-1l-0.7-0.7l-1.1-0.1l-1.1,0.4l-0.9,0.7L332.4,106.1z M361.7,200.6l0.4,0.3l0.5,0
		l0.5-0.2l0.5-0.5l-0.9-0.2l-1.4-1.1l-0.9-0.3l0.2,0.6L361.7,200.6z M421.6,342.7l-1.7,1.6l-0.1,1.7l0.4-0.6l0.6-0.5l1.2-0.8
		l0.7-0.2l1.2-0.7l0.7-0.2l-1.1-0.9L421.6,342.7z M426.9,336.7l-0.6,0.3l-0.3,1.6l0.6,1.3l1.2,0.8l0.8-0.3l-0.5-2l-0.6-1
		L426.9,336.7z M429.2,318l0.2-0.4l0.3-0.3l1.4-0.8l0.5-0.4l-1.2-0.3h-0.7l-2.1,1l-0.5,0.4l-0.6,0.7l-0.3,0.7l0.6,0.3l0.6,0l1.8-0.5
		L429.2,318z M338.3,115.8l-0.8-0.8l-0.8,0.4l0.8,2.1L338.3,115.8z M371.4,122.1l0.6,0.8l1.2,0.1l1,0l0.6-0.6l0.1-1.4l-0.7,0.5
		l-0.6,0.1l-0.6-0.3l-0.4-0.7l1.2-0.3l0-0.7l-0.9-0.5l-1.4,0.4l-0.7,0.8l0,0.9L371.4,122.1z M329.9,97.5l0.1,0.4l-0.1,0.6l-0.3,1.5
		l0,1.2l0.2,0.8l0.5,0.5l0.9,0.5l0.3-0.2l0.2-0.2l0.2-0.2l0.1-0.2v-0.7l0.1-0.3l0.3-0.1l-0.3-0.5l-0.1-0.4l0.1-0.3l0.3-0.3v-0.4
		l-0.2-0.4l-0.2-1.2l-0.3-0.6l-0.4-0.3l-1.8-0.5l0.1,0.6l0.3,0.3L329.9,97.5z M389.6,130.6l0.4-0.6h0.9l1-0.2l0.9-0.3l0.5-0.2
		l0.2-0.7l0-0.9l-0.2-0.8l-0.5-0.3l-1,0.3l-0.8,0.7l-1.9,2.6l0.1,0.5L389.6,130.6z M365.4,232.2l-0.1-0.2h-0.8l-1,0.4l-2.6,2.7
		l1.2,0.8l0.5,0.2l0.8,0.1l0.4-0.1l0.2-0.1l0.2-0.2l1.3,0.4l0.8-0.6l0-1l-1.2-0.7l0.3-0.4l0.1-0.4l-0.2-0.3l-0.6-0.1v-0.4
		L365.4,232.2z M424.6,285.6l0.6,1.5l0.4,0.6l0.8,0.2l1.1,0l0.6-0.5v-0.8l-0.7-0.9l-0.6-0.4l-0.7,0L424.6,285.6z M438.4,306.8
		l-1,0.8l0.1,1.2l-0.3,0.7l0.2,0.5l0.6,0.2l0.9,0.1l0.6-0.3l1.4-2.3l-1-1L438.4,306.8z M420.2,284.5l-0.5,0.9l0.4,0.5l0.9,0l0.9-0.6
		l0.4-0.8l0-2l0.5-0.8l-1.4,0.1l-0.6,0.4L420.2,284.5z M477.2,425.7l0.6-0.9l1.1-0.5l1.1-0.7l0.5-1.4l-0.2-1.7l-0.7-1.3l-1.1-1
		l-1.6-0.9l-0.5-0.4l-1.7-0.8l-0.4-0.1l-0.2-0.6l-1.3-1.6l3.4-0.9l0.6,0l-0.1-0.4l-0.3-0.4l-0.3-0.4l-0.4-0.3l0-0.5l-0.2-0.1
		l-0.3,0.1l-0.4,0.1l-0.3,0.1l0,0.1l-2.2-0.3l-0.8-0.5l-0.3-1v-2.1l-0.2-1.1l-0.6-0.9l-1.8-0.9l-2.2-0.1l-2.1,0.7l-1.6,1.1l-0.7,1.1
		l-0.3,1.2l-0.4,4.1l0.1,0.4l0.5,0.6l0.3,0.6l0.2,0.6v0.8l-0.9,2.5l0.1,0.9l2.9,1l0.9,0.5l1.3,0.9l0.6,0.5l0.5,0.2l1.7,0.5l0.5,0
		l0.7-0.3l0.7,0.2l4.7,2.5L477.2,425.7z M487.4,454.5l-1.8-1l-1.1-0.5l-1.3-0.4l-1.1-0.5l-0.5-0.8l-0.8-4.3l0.2-1.2l0.3-0.9l0-0.8
		l-0.9-0.7l-0.9,0.4l-2.1,0l-1.1,0.3l-0.6,0.4l-0.4,0.4l-0.2,0.5l-0.2,0.7l0.2,1.3v0.7l-0.4,0.3l-0.6,0.6l-0.3,1.4l-0.1,1.4l0,0.9
		l0.2,0.6l1.8,2.6l0.1,0.4l0.2,0.2l0.4,0.3l0.4,0.5l0.2,0.7l0.2,0.3l0.4,0.2l1.1,0.1l0.6,0.4l2.2,2.6l0.9,0.4l2.3,0.7l1,0.1l0.5-0.6
		l0.4-1.2l0.3-2.5l1.9-2.4l0.3-0.7l-1.1-0.4L487.4,454.5z M510.1,492.2l-0.7-0.6l-0.8-0.5l-1.1-0.8l-1-0.3L505,490l-1.4,0.2
		l-0.7,0.2l-0.7,0.9l-0.4,1.4l0.1,1.3l0.7,0.6l1.6,0.8l1.4,0.4l0.7,0.3l0.5,0.5l0.4-0.3l1.2-0.2l0.6-0.3l0.5-0.6l0.4-0.7l0.6-1.4
		L510.1,492.2z M377.5,139.8l1,0.8l0.5,0.5l0.2,0.7l0,1.1l0.6,1.4l1.1-0.1l0.7-1l-0.6-1.3l0.4-0.3l0-0.2l-0.2-0.1l-0.2-0.2l1.4-0.1
		l1.1-0.3l1-0.5l0.9-0.7l0.3,0l0.4,0.1h0.4l0.1-0.2l-0.1-0.4l-0.2-0.1l-0.3,0.1l-0.3-0.1l-0.5-0.3l-0.5-0.1l-0.5-0.3l-0.4-0.8
		l0.4-0.2l0.7-0.9l-0.7-0.5L383,133l-1-1.1l-0.7-0.5l-0.8,0l-2.3,1l-1,0.7l-0.7,0.9l-0.4,1.2l-0.1,1.5l0.3,1.1L377.5,139.8z
		 M383.2,155.4l-0.6-0.2l-0.5,0.2l-0.8,0.8l-0.5,0.2l-0.9,0l-0.5-0.1l-0.4,0.1l-1.3,1.1l-0.6,0.3l-0.3,0.5l-0.1,1l0.3,3l-0.5,1.1
		l-0.2,0.7l0.2,0.3l0.4,0.1l0.6,0.3l0.7,0.3l0.8,0.1l0.7-0.3l3.6,0.3l0.6-0.1l0.6-0.3l0.8-0.8l1.4-2.3l0.3-0.3l0.1-0.5l0.4-2.9
		l-0.4-0.5l-0.5-0.4L383.2,155.4z M364.3,243.7l0.8,0.4l1,0l1.5-0.5l-0.1-1.2l-0.4-1.6l0.7-1.7l-0.2-1l-1.9-0.7l-3.8-0.5l-1.7,0.4
		l-1,1.1l-0.2,1.5l0.9,1.5l0.7,0.4l1.5,0.4l0.8,0.3L364.3,243.7z M414.1,200.5v0.3l-0.1,0.3l-0.1,0.4l1.3,8.5l0.5,1.2l0,5.9
		l-0.4,1.9l0.6,2.6l0.1,1.4l-0.3,1.3l1.3-0.3h0.6l0.7,0.3l0.3-1.6l0-1.6l0.4-1.6l0.1-1l-0.3-0.8l0.2-3.8l-0.2-0.5l-0.8-0.9l-0.2-0.5
		v-1.9l-0.1-0.6l-0.7-1.8l0-0.6l0.1-1.2l0-0.5l-0.7-3.1l-0.1-1.3l-0.2-0.7l-0.4-1.1l-0.6-1l-0.7-0.4l-0.4,0.3l-0.4,0.6l-0.2,0.7
		l0.2,0.5L414.1,200.5z M418.7,231.2l-0.2-0.5l-0.3-2.6l-1.2,0.1l-0.3,4.4l-1.3,4.3l-0.3,2.3l0.1,2.2l0.5,2l1.3,3.1l0.6,4.3l0.9,3.3
		l0.2,2.2l0.3,0.8l0.6,0.4l1.2-0.1l1.5-0.8l0.7-1.5l0.1-2l-0.1-2.2l-0.2-1l-0.7-1.3l-0.3-0.8l-0.4-2.8l-1.3-3.6l-0.2-0.7V239
		l-0.7-1.8l-0.1-0.9l0.4-3.4l-0.1-0.8l-0.2-0.3l-0.4-0.1L418.7,231.2z M405.3,225.3l0.2-1l0.2-1.2l0.6-1.2l0.7-1.1l0.7-0.9l1.2-1.2
		l-0.1-0.5l-1.4-0.2l-4.6,0.8l-2.6,1l-0.9,0.2l-1.2,0.4l-6.6,6.2l-0.5,1l0.3,0.6l1.8,0.9l1.1,0.4l5.6,0l1.2-0.4l3.6-3L405.3,225.3z
		 M439.7,352l-0.5,0.2l-0.6,0.1l-0.5-0.1l-0.3-0.3l-0.4-1l-0.3-0.6l-1-0.4l-0.5-0.9l-0.3-1.1l-0.4-1l-0.5-0.8l-0.3-0.2l-0.5-0.1
		l-0.2-0.2l-0.2-1l-0.1-0.4l-0.8-0.5l-0.8-0.2l-3.7,0.6l-0.9,0.6l-0.3-0.4l-0.2-0.6l-0.3-0.3l-1.6,0.3l-1.4,1.2l-2.1,3.2l-0.5,0.6
		l-1.4,1l-0.6,0.7L417,353l-0.2,0.7l0.7,0.5l0.2,0.6l0.4,0.2l0.6-0.1l0.4-0.3l0.7-1.2l0.4-0.4l0.7-0.4l0.7-0.2l0.7,0.1l0.9,0.5
		l0.4,0.2l0.4,0l0.2,0.2l0.2,1.2l0.3,0.3l0.4,0l0.4-0.3l-0.2,1.1l-0.9,0.5l-1.2,0.4l-0.9,0.7v0.4l1.9-0.4l0.9-0.4l0.5-0.7h0.4
		l-0.4,1.9l0.3-0.3l0.3-0.2h0.4l0.5,0.1l0.1-0.2l0-0.1h0.1l0.2-0.1l0.1,0.5l0.2,0.6l0.1,0.5l0.5-0.8l0.3,0.2l0.1,0.6l0.2,0.4
		l0.9,0.5h0.4l3.8-0.9l0,0.1l0.3,0.3l0.4,0.3l0.3,0.1l0.4-0.1l0.3-0.3l0.2-0.3l0.1-0.1l1.4-0.3l0.7-0.3l0.4-0.7l0.4-1.4l1.6-3.3
		l-0.1-0.9L439.7,352z M416.2,278l0.7-0.2l0.8-0.4l0.8-0.2l5.7-0.2l1.8-1.4l0.4-0.7l-0.1-0.8l-0.4-0.5l-3.8-2l-1-1l-0.2-1.7
		l-1.1-3.5l-0.9-1.9l-1-1.1l-1.2,0.3l-0.5,0.2l-0.8,2.2l-0.3,0.3l-0.8,0.5l-2,2l-1.1,0.6h-2.4l-0.5,0.1l-0.8,0.5l-1.6,0.4l-1.3,0.6
		l-0.7,0.7l0.7,0.7l-0.3,0.8l0.6,0.5l0.9,0.4l0.8,0.5l0.8,0.7l1.8,1.1l0.5,0.7l0.8-0.4l0.8,0.1l1.4,1l0.7-0.2l0.7,0.2l0.7,0.5
		l0.6,0.5L416.2,278z M419,303.2l2.2,0.5l1.6-0.6l1.6-0.9l2.2-0.5l0.8,0.1l1,0.3l0.9,0.4l0.9,0.9l2.8,1.6l0.5-0.3l0.6,0.3l0.1-0.7
		l-0.3-0.9l-0.1-0.8l0.7-0.3l-0.9-1.2l-1.2-0.4l-2.9,0.1l-1-0.3l-0.5-0.7l-0.2-0.7l-0.2-0.3l-1-0.3l-0.5-0.7l-0.3-0.9l-0.6-0.8
		l-0.2-0.2l-0.4-0.3l-0.4-0.2l-0.4-0.1l-0.6,0.1l-0.9,0.6l-0.4,0l-0.4-0.5l-0.3-0.9l-0.1-0.9l-0.1-0.4l-0.5-0.5l-1-2.1l-0.4-0.4
		l-0.2-0.1l-0.1-0.3l-0.3-0.3l-0.5-0.1l-0.5,0.1l-0.3,0.2l-0.3,0l-0.5-0.3l0.3,0.9l0.1,0.4l0,0.5l-0.1,0.7l-0.3,0.4l-0.4,0.3
		l-0.3,0.4l-0.2,0.9l-0.1,2.1l-0.2,0.7l0,0.4l0.4,0.5l0.9,0.7l0.1,0.6l-0.1,1.5l0.3,0.5l1.6,1.5L419,303.2z M399.6,281.9l-0.4-0.7
		l-0.6,0l-0.6,0.5l-0.4,0.6l-0.2,0.7l-0.1,1.1l-0.8-0.6l0.1-1l1-1.9l-0.4-2.7l-0.7-1.2l-1.4,0.2l-2.3-1.9l-0.9-1.1l0.4-0.8v-0.4
		l-0.2-0.1l-0.5-0.3l-1.4,0.6l-0.8-0.4l-0.7-1l-1.2-1.1l-0.7-0.4l-1.2-0.4l-0.6-0.4l-0.4-0.5l-0.3-0.6l-0.2-0.6l-0.2-0.7l-0.2,0.2
		l-0.2,0.1l-0.2,0.2l-0.2,0.3h-0.4l-0.3-0.2l-1.2-0.6l-0.1-0.4l0.4-0.6l0.1-0.5l-0.8-1.2l-0.5-0.6l-0.2,0.1l0.3,1l0.1,0.5l-0.2,0.2
		l-0.6-0.2l-0.8-0.8l-1.1-0.4l-0.5-0.4l-0.5-0.5l-0.5-0.4l0.4-0.7l-0.2-0.6l-0.5-0.4l-0.7-0.3l0.9-1.9l-3.2-4.1l0.1-2l-5.9-2.3
		l-1.6,1.2l-0.5,0.1l-0.2,0.3l-0.1,0.4l-0.3,0.5l0,0.7l0.2,3.7l-1.6,3.1l-0.2,1.3l0.2,0.7l0.4,0.5l0.4,0.4l0.4,0.5l0.2,0.6l0.1,0.5
		l0.1,0.6l0.4,0.6l0.6-0.3l0.7,0.3l1.3,1.1l2.4-1.6l0.9-1l0.3,0.4l0.3-0.2l0.9-0.5l1.9,3l0.3,1l0.1,0.2l0.3,0.1l0.3,0.1l0.1,0.4l0,1
		l0,0.3l0.6,2.7l-0.3,0.7l0,3.4l0.2,1.2l0.2,0.1l0.3,0.1l0.4,0.2l0.3,0.4l0,0.3l0,1l0.1,0.8l0.2,0.6l1.3,1.8l0.5,1l0.3,1.1l0.1,0.9
		l-0.5-0.2l-0.4-0.3l-0.3-0.3l-0.2-0.4h-0.4l0.1,1.2l0.7,0.8l0.7,0.6l0.7,1.3l1.5,0.5l0.5,0.6h0.3l0.1-0.8l0.3,0l0.3,0.3l0.3,0.1
		l1.1-1.1l1.4-0.2l0.6-0.3l0.5-0.7l-0.5-0.1l-0.2-0.1l-0.1-0.2l-0.4-0.3l0.6-0.6l1.1-0.8l1.2-0.5l1,0.4l0.5,0l0.8-0.1h0.8l0.3,0.5
		l0.3,0.1l1.4,0.3l0.5,0.1l0.4,0.5l0.2,0.6l0.4,0.5l0.9,0l0.6-0.3l0-0.4l-0.1-0.5l0.4-0.5l0.5-0.6l0.3-0.6l0.3-0.4l0.7-0.1l0.5-0.2
		l1.2-1.3l-0.4-0.6L399.6,281.9z M359.7,235.2l0.4-0.2l0.5-0.4l2-2.4l0.9-0.7l0.8-0.3h2l0.6,0.1l0.4,0.2l0.3,0l0.4-0.3l0.2-0.5
		l0.1-0.6l-0.1-0.6l-0.5-0.2l-1.3-1.1l-1.2-2.5l-1-2.8l-0.4-1.8h0.4l0.4,0.8l0.4-0.3l0.2-0.9l0.1-1l-0.6-1.2l-0.2-0.3l-0.4-0.3
		l-0.9-0.3l-0.3-0.1l-0.5-0.8l0.2-0.2l0.5-0.2l0.3-0.9l-1-4.5l0.3-1l-1-0.4l-0.7,0.2l-1.3,0.9l-0.2-1l-0.9-2.7l-0.2-1.9l-0.4-0.7
		l-0.9-0.1l0.6-0.7l0.2-0.6l-0.1-2.3l0.1-0.7l0.4-0.5l1-0.2v-0.4l-4-0.4l-0.7,0.3l-1,0.6l-0.6,0.8l0.3,0.9l0.1,0.7l-0.3,6.1
		l-0.2,0.8l-0.4,0.5l-0.5,0.4l-0.4,0.4l-0.7,1.1l-0.3,0.4l-0.6,0.1l-1.4,0l-2.4,0.3l-1.4,0l-0.6-0.5l-0.7-6.8l-0.2-0.4l-0.4-0.3
		l-0.3-0.4l0.1-0.7l-0.2-2.7l-0.5-2.6l-1-2.7l-0.3-1.3l0.5-0.6l-2.2-1.7l-1.1-0.5l-0.3-0.7l-0.4-1.3l-1.3-1.6l-0.2-0.1l-0.1-0.6
		l-0.2-0.7l-0.3-0.6l-0.4-0.3l-0.2-0.3l-0.5-1.4l-0.2-0.5l-0.6-0.5l-0.3,0.2l-0.3,0.4l-1.7,0.5l-0.2,0.7l0.1,1.4l-1.5,3l0.4,0.8
		l0.1,1.3l-0.2,1.3l-0.4,0.9l-0.1,0.9l1,4.2l0.4,0.9l1.1,1.7l0.2,0.9l0.1,1l0.3,1.1l0.6,0.8l0.9,0.3l-0.5,0.9l-0.1,0.8l0.6,2.1
		l0.2,2.3l0.3,1.1l1.3,1.9l0.3,1.3l0.1,2.6l-0.2,1.1l-0.7,2.2l-0.3,1.6l-0.5,1.1l-0.1,0.5l0.2,0.5l0.8,1l0.2,0.7l0.2,0.5l1.4,1.4
		l0.3,0.4l0.6,1.7l1.2,1.9l0.8,0.8l1.8,0.9l0.6,1.2l0,1.4l-0.7,1l1,1l1.1,0.6l1.2,0.1l1.1-0.5l0.4-0.5l0.2-0.5l0.3-0.5l0.7-0.4
		l1.2,0.2l0.4-0.1l-0.5-0.6l1.3-1.2l2-0.5l2.3,0l2.1,0.2l0.5,0.2l0.9,0.5l0.7,0.1l0.6,0L359.7,235.2z"/>
</g>

</svg>
