<?xml version="1.0" encoding="utf-8"?>

<svg version="1.2" baseProfile="tiny" xmlns="http://www.w3.org/2000/svg" xmlns:xlink="http://www.w3.org/1999/xlink" x="0px"
	 y="0px" viewBox="183.4 171.9 473.1 250" xml:space="preserve">

<g id="Samoa">
	<g>
		<polygon fill="#CE1126" points="407.8,329.9 407.7,330.6 407.9,330.7 408.1,330.7 408.9,329.9 408.5,329.4 408.2,329.4 		"/>
		<polygon fill="#CE1126" points="645.8,420.3 645.5,421.4 647.1,421.6 647.4,421.9 648.5,421.9 649,421.1 648.5,420.4 648.4,419.6
			647.6,419.6 647.2,420 646.4,420 		"/>
		<polygon fill="#CE1126" points="581.7,343.1 582.2,342.6 581.8,342.2 581.2,342.2 580.7,342.6 580.7,343 580.9,343.1 		"/>
		<polygon fill="#CE1126" points="648.3,402.5 648.7,401.8 648.7,400.8 648.4,400.3 647.8,400.3 646.7,401.5 646.6,402.8 647,403.3
			647.6,403.3 		"/>
		<polygon fill="#CE1126" points="515.9,312.4 515.3,312.1 514.5,312.1 513.5,310.1 512.4,309.5 511.8,309.5 511.2,310.1
			510.1,310.1 508.8,311.4 507.4,311.4 506.7,312.1 505.6,312.4 505.5,311.3 504.9,310.4 503.7,310.5 503.3,310.9 502.9,312.2
			502.1,312.7 501.3,311.8 500.2,311.8 499.9,311.4 499.4,311.4 498.6,310.8 498,310.8 497.7,311.1 495.4,311.1 495.1,311.5
			493.7,311.1 492.1,312.7 490,313.4 489.8,313.1 488.4,313.1 487.8,312.4 487.3,312.1 486.1,312.4 485.9,312.1 485.3,312.1
			483.1,313.7 482.6,313.7 482.2,314 480.8,314 480.5,313.7 480,313.7 478.4,315 477.6,315.4 476.6,316.3 476.4,316 475.8,316
			474.9,316.6 474.3,316.6 472.7,318 472.5,318 471.8,319 471.3,318.6 470.1,318.6 469.8,318.9 468.9,319 467.8,320.7 467.3,320.9
			464.8,323.9 464.2,323.9 463.1,324.5 462.5,324.2 460.3,323.9 459.6,324.2 458.5,324.2 458.2,324.5 456.2,324.5 455.7,323.9
			455.1,323.9 454.4,324.5 453.3,324.9 453,325.2 451.2,325.2 451,324.8 449,324.5 446.6,322.9 445.4,323.2 445.1,323.5
			443.9,323.5 443.6,323.9 441.9,324.2 439.5,325.8 438.7,326.7 437.3,329.3 435.5,331.7 434.3,332.4 433.8,332.4 433.1,333
			432.8,333 430.8,335.2 430.8,335.8 430.3,336 430.1,336.4 428.7,337.9 427.8,338.2 426.1,339.7 425.8,340.4 425.9,342.3
			426.1,342.7 426.1,343.6 426.9,344.6 427.3,345.9 427.2,347.6 426.9,347.9 426.8,348.6 426.1,349.5 426.1,350.2 426.8,351
			429,352 430.3,353.6 430.8,353.9 431.9,353.9 432.2,354.3 433.6,354.3 433.9,354.6 434.7,354.6 435,354.9 436.7,354.9
			439.7,357.2 440.8,357.2 441.1,356.9 441.7,356.9 442,356.6 443.1,357.2 443.7,357.2 444,357.5 445.6,357.9 447.1,359 447,360
			445.8,361 445.1,362.3 445.2,362.8 445.5,362.8 446.4,363.9 446.9,365.2 446.8,365.9 447.8,366.4 450.3,366.4 450.4,367.2
			451.1,368 451.4,368 451.7,368.8 451.4,369.1 451.3,370.5 451,370.8 451.6,371.6 451.9,371.6 452.7,372.2 454.2,372.2
			456.3,370.6 457.1,369.5 457.4,366.5 457.9,366 458.4,366.4 458.7,366 459.3,366 459.6,366.5 459.6,367.2 460.1,367.8
			460.1,368.1 461.6,370.1 461.9,370.8 461.4,372.7 461.7,373 463.1,377 463.7,377.8 464,377.8 464.1,378.3 464.6,378.9
			464.5,379.6 465.3,381.2 465.2,381.9 466.7,383.3 467.8,384 468.3,384 469.1,384.6 469.7,384.6 471.1,385.6 471.6,385.6
			475.3,389.9 476.6,390.9 477.2,390.9 477.7,391.5 479.5,392 479.6,392.2 481.3,392.3 481.5,392 482.5,391.8 482.9,391.5
			486,391.5 486.3,391.2 486.9,391.2 488.1,390.5 488.7,390.5 489.6,389.5 490.2,389.5 491.1,388.5 492.3,387.9 492.9,387.9
			494.1,387.2 494.9,386.4 494.9,385.8 495.7,385.6 496.3,384.6 496.9,384.6 497.6,385.9 498.7,386.6 501.9,386.3 502.2,386.6
			503.3,386.9 504.3,387.9 505.2,387.6 505.9,386.6 506.2,386.6 506.6,387.1 507.4,390 508.6,391.5 509.6,392 510.6,393
			509.3,393.1 509.1,392.8 508.2,392.8 507,392 506.3,391.5 505.4,390.4 505.4,390 504,388.6 503.4,388.6 503,389 502.9,390
			503.1,390.4 503.1,391 503.8,392 504.5,392.8 505.9,393.5 506.4,394.1 507.3,394.1 507.5,394.4 508.7,394.4 508.9,394.8
			510.9,394.8 511.2,394.4 511.5,395.1 512.3,395.1 513.2,394.5 513.5,394.8 514.3,394.8 514.6,395.1 516,395.1 517,394.4
			517.1,395.4 518.9,395.1 519.2,395.4 519.7,395.4 520.5,396.4 521.6,397.1 521.9,396.7 522.2,397.1 522.5,396.7 522.6,396.9
			522.6,397.6 521.9,398.2 523,399.2 523.7,401.5 523.8,402.5 524.2,402.9 524.8,403.3 525.9,403.3 526.6,404.1 526.3,404.9
			525.5,405.2 524.7,406.1 524.7,407.5 525.5,407.5 525.8,407.8 526.4,407.8 527.5,408.8 528,408.8 528.3,409.2 529.1,409.1
			530.6,408.2 532.5,409.5 533.4,409.5 534.3,408.8 535.5,408.8 535.8,408.5 538.4,408.5 538.7,408.2 540.4,408.2 541,407.5
			541.9,407.5 544.6,405.9 545.2,405.9 545.5,405.6 546.6,405.6 547.5,404.9 548.1,404.9 549.3,403.9 551.1,403.6 553,405.2
			553.5,405.2 554,406.2 555.1,406.2 556.5,407.5 558.5,407.5 559.3,408.2 563.3,408.2 563.5,408.5 564.7,408.5 564.9,408.8
			565.8,408.8 566.1,409.2 566.4,408.8 567.8,408.8 568.1,408.5 570.4,408.5 570.7,408.2 571.6,408.2 571.9,407.8 573.3,407.8
			573.6,407.5 574.5,407.5 575.4,406.9 576.3,406.9 576.6,406.5 578.3,406.5 580.1,408.8 581,407.8 582.1,408.5 584.7,408.8
			584.9,409.2 587.8,409.2 587.9,409.6 587.3,410.3 587.2,411 587.9,411.4 588.8,411.4 589.4,410.8 591.7,410.5 593.5,409.1
			594.4,409.1 594.6,409.5 595.5,409.5 595.8,409.8 598.6,409.8 599.8,409.1 601.3,409.1 602.3,409.8 603.5,409.8 603.7,410.1
			605.7,410.1 606.7,409.2 607.2,409.2 607.6,408.8 611.3,408.5 611.6,408.8 612.4,408.8 612.7,409.2 617.6,409.1 617.9,408.8
			620.4,408.8 620.8,408.5 621.9,408.5 622.2,408.8 626.4,409.1 626.7,409.5 628.4,409.5 628.7,409.8 629.8,409.8 630.1,410.1
			631.5,410.1 631.7,410.4 632.6,410.5 632.9,410.8 634.6,410.8 634.8,411.1 638,411.4 638.8,412.1 640.5,412.4 640.9,411.9
			640.8,411.1 640,411.1 639.1,410 639.5,409 640.7,408 641,407.3 641.1,407 641.7,406.4 641.8,405.4 641.5,405.1 643.7,402.4
			643.8,401.8 644.4,400.8 644.7,397.9 644.5,397.6 644.6,395.6 644.4,395.3 644.5,393.6 644.2,393.3 644.4,392 642.3,389.7
			642.3,389.4 642.7,389.2 642.9,388.7 642,387.9 641.4,387.9 640.8,387.1 640.6,385.8 640.1,384.8 640.2,383.8 638.7,383
			638.2,382 637.7,381.7 635.9,381.7 635.7,382.5 636,382.8 635.2,384 634.9,384 634.7,383.3 633.5,383.3 633,383 632.7,382.4
			632.2,382.4 631.9,382 631.6,382 631,382.7 630.7,382.4 630.2,382.4 629.8,382.7 629.3,382.7 629.2,382.5 630.4,381.6
			630.5,379.9 630.3,379.6 630.2,378.4 629.3,378.8 628.9,378.2 629.3,377 628.9,376.5 627.8,376.1 627.2,375.3 627.1,374.5
			626,374.5 625.6,374.9 625.1,374.8 624.7,374.4 625.3,373.7 625.3,373.4 625,372.9 623.8,372.9 623.5,373.2 620.7,372.9
			620.4,372.6 619,372.6 618.7,372.2 617.3,372.2 617,371.9 615.8,371.7 615.8,371.4 616.5,370.9 617.4,370.9 618.8,370.1
			618.4,369.3 617,368.6 616.4,368.6 616.2,368.3 614.8,368.3 613.9,366.8 614,365.9 613.4,365.5 613.5,364.9 613.1,364.4
			611.9,364.7 610.7,366 608.9,366.6 607.7,367.6 605.9,368 604.7,369 603.5,369 603.3,368.6 601.3,368.6 600.7,369.3 597.8,369.3
			597.4,368.5 598.2,368.3 599.1,367.6 599.7,367.6 601.7,365.8 601.7,365.5 602.5,364.7 604.5,364.1 606.1,362.1 606.7,362.1
			607.8,361.3 608.8,359 607.3,358.8 606.7,359.1 606.6,358 606,356.8 604.6,356.9 604.3,357.2 603.7,357.2 603.4,356.9 602,356.9
			601.4,357.2 601.3,356.4 601.1,356 601.5,354.4 601.8,354.1 601.7,353.6 601,353.1 601.1,352.8 599.6,351 599.2,350.8
			599.9,349.2 599,348.4 598.1,348.4 597.2,349.3 595.2,349 594.9,349.3 594.3,349.3 593.7,348.5 594.1,346.9 594.9,346.4
			595.5,346.4 595.8,346.1 596.3,346.1 596.8,345.6 595.6,344.4 594.7,344.4 593.9,343.8 592.8,343.5 590.6,342.1 589.5,342.2
			589.2,342.5 588.6,342.5 588.1,342.2 587.6,341.2 586.7,341.2 585.7,342 585.6,342.3 583.9,344.1 582.9,344.6 582.3,345.7
			581.7,346.1 580.9,346.1 580.3,345.7 579.3,344.1 579,344.1 578.4,343.3 578.1,342.1 576.9,341.8 575.8,341.2 574.4,341.2
			573.2,342.2 572.3,342.2 569.4,339.9 569.3,339.4 568.1,338.2 567.8,338.2 567.3,337.3 566.5,336.9 566,336.3 564.8,336.9
			563.6,336.9 563.3,337.3 563,336.9 561.3,336.9 560.1,337.6 559.3,337.6 558.8,336.9 557,337.2 556.2,336.6 554.8,336.6
			554.5,336.9 553.9,336.9 553.3,337.6 552.4,337.6 552,337.1 551.9,335.1 550.7,333.7 549,333.3 548.5,332.7 548.2,332.7
			548,330.6 547.3,330 546.2,329.1 545.1,329.1 544.2,329.7 542.8,329.7 542.5,329.4 541.9,329.4 541.6,329.7 541.2,329.6
			541.1,327 540.9,326.6 540.7,325.3 540,324.8 539.4,324.8 539.2,324.5 538.6,324.5 537.6,323.2 537,322.9 535.9,322.9
			535.4,323.4 535.4,324 534.5,325.2 532.3,324.5 531.1,323.4 530,319.1 529.1,318.3 528.5,318.3 528.4,318.8 528.9,319.4
			529.1,320.1 529,321.1 529.6,321.7 529.5,322.7 529.7,323.4 528.9,324.5 528.3,324.5 527.8,323.8 526.7,323.2 526.1,323.5
			525.5,323.5 525.3,323.2 525,323.5 524.6,323.1 524.9,322.4 524.7,322.1 524.7,321.4 524.3,320.6 524.1,320.6 523.5,320.3
			522.6,320.9 522.2,320.1 521.7,319.8 521.6,319.3 521,319.3 520.4,318.5 520.5,317.2 519.9,316 519.3,315.7 518.5,315.7
			517.4,315 516.2,313.6 516.3,312.9 		"/>
		<polygon fill="#CE1126" points="401.5,320.9 400.9,321.3 400.1,322.4 400,323.7 400.9,325.2 402.3,324.9 403.5,323.4 403.6,322.1
			403.3,321.4 402.6,320.9 		"/>
		<polygon fill="#CE1126" points="644.9,415.5 644.3,414.7 643.7,414.4 641.9,415.4 641.4,415.4 641.2,415.5 641.1,416.5
			641.6,417.2 641.6,417.8 642.2,419 644.4,419.3 644.8,418.9 645.3,419 645.8,418.5 645.9,417.5 645.1,416.8 		"/>
		<polygon fill="#CE1126" points="654.1,397.1 653.3,397.9 653.3,398.2 653.9,399 655.4,399 656.4,398.2 656.5,397.5 655.8,397.1
			"/>
		<polygon fill="#CE1126" points="550.6,411.3 550.5,411.6 551.2,412.1 552.1,412.1 552.5,411.6 552.6,411 552.2,410.5 551.3,410.4
					"/>
		<polygon fill="#CE1126" points="256.8,298.7 257.5,299.5 257.7,300.2 257.6,301.8 257.9,302.3 259.3,302.6 259.9,303.3
			260.1,303.3 260.7,304.2 261.5,304.2 263.7,305.9 264.3,306.4 264.6,307 264.7,309 265.4,311 267.6,313.7 269,314.4 269.5,314.4
			269.8,314.7 272.4,314.7 272.7,314.4 273.5,314.4 273.8,314.1 274.4,314.1 274.7,313.7 275.9,313.4 278.7,311.4 279.2,311.4
			279.5,311.8 281.2,311.8 281.5,311.4 282.6,311.4 283,311.1 284.7,310.8 285,310.5 286.7,310.5 287.3,310.1 288.6,308.8
			288.9,308.8 289.8,307.8 292.2,306.2 293.4,306.2 293.7,306.5 294.5,306.5 294.8,306.9 295.6,306.8 295.9,307.2 297,307.2
			297.3,307.5 298.1,307.5 298.4,307.9 299.9,307.5 300.8,306.5 302,306.2 302.3,305.9 302.9,305.9 303.1,306.2 304.3,306.2
			304.6,305.9 306.3,305.5 306.6,305.2 307.5,305.2 307.8,304.9 308.1,304.9 308.3,305.6 309.2,305.2 310.5,304.2 311.9,303.9
			313.7,302.9 314.3,302.9 314.4,303.7 314.7,304.2 315.9,304.3 316.2,303.9 317.9,303.6 318.5,304.3 320.5,304.3 320.8,303.9
			321.3,303.9 321.7,303.3 322.6,303 323.5,302.3 326.1,302.6 326.3,303 326.9,303 327.2,302.6 327.7,302.6 330.2,301.3
			333.9,301.3 334.2,301 335,301 335.4,301.5 335,303.1 335.4,303.6 336.3,303.6 336.6,303.3 337.1,303.3 337.4,303.6 339.7,303.6
			340,303.9 342.8,303.9 343.4,303.6 344.5,302.5 344.5,302.1 345.5,300.5 345.7,298.5 346.5,297.7 348,297.1 348.1,297 256.2,297
			256.2,297.9 256.5,298.7 		"/>
		<polygon fill="#CE1126" points="354.3,297.1 354.5,297.4 356.6,297.1 357.5,297.9 358.4,300.5 358.4,301.2 358.9,301.8
			358.9,302.1 359.3,303.1 359.2,305.1 360.4,307.4 361.4,310 361.2,311.9 361.6,312.4 362.1,312.4 363.2,313.1 365,313.1
			365.3,312.8 366.1,312.8 366.4,312.4 367.6,312.4 369.5,313.4 370.5,315 370.8,315 371,315.4 373.7,315 373.9,315.4 376.2,315.4
			376.8,315.1 378.2,313.6 378.3,313.3 379.7,311.5 380.9,311.1 381.3,310.7 381.8,309 381.5,308.7 381.5,308 381.3,307.4
			382.3,305.7 382.4,304.8 382.7,304.4 382.8,303.8 382.5,303.5 382.6,302.1 381.2,298.2 380.5,297 353.6,297 		"/>
		<polygon fill="#CE1126" points="412.1,337.6 412,337.8 411.9,338.4 412,338.6 412.3,338.6 412.8,338.1 412.7,337.9 412.4,337.9
			"/>
		<polygon fill="#CE1126" points="414.1,337.9 416.3,338.6 416.8,337.8 417,336.1 418,334.5 418,333.8 417.8,333.5 417.8,333.2
			416.7,332.2 416.2,330.4 415.6,330.1 414.5,330.1 414.2,330.4 413.3,330.4 413,330.7 409.8,330.7 409.5,331.1 409.3,331.1
			409.1,331.2 409.5,331.7 410.3,332.1 411.5,333.8 411.6,335.1 412.3,336 412.9,336 413.2,336.5 413.2,336.8 		"/>
		<polygon fill="#002B7F" points="383.1,289.1 383,288.9 382.5,288.9 382,289.4 382.1,289.6 382.7,289.6 		"/>
		<path fill="#002B7F" d="M349.2,296.1l0.5,0.3l2,0l0.2,0.3l1.6,0.2h26.8l-0.3-0.4l0-0.3l-1.1-1l1.3-1.3l0.3-0.7l0.4-2l0.3-0.3
			l0.1-1.3h-0.6l0.4-1l0.8-0.8l2.1-1l1.5-1.3l0.9,0l1.5-0.6l1.4-1.5l0.4-0.6l0.1-1.6l-0.3-0.3l0.1-0.7l-0.4-0.5l-1.5-0.5l0-0.3
			l1.8-1.6l-0.3-0.8h-0.6l-0.4-0.5l1.8-1.3l0.7-1.3l0.1-1.3l0.3-0.7l0.9-0.6l0.4-1.3l2-2.1l2.4-1.3l0.6-0.3h0.6l0.3,0.3l1.4-1.8
			l0-0.3l0.4-0.2l0.8-1.1l-2.6-3.3l0-0.3l-1-1.6l-1.9-5.2l-0.6-3.3l-1.3-1.6l0.1-1.3l0.6-0.6l0.5-2.6l-1.1-1l0.1-0.7l-1.4-3.6
			l-0.9-3l-0.1-2.3l-0.4-0.1l-0.6-0.8l-0.2-1.3l0.6-0.3l0-0.3l-1.3-1.6l0-0.7l0.8-0.8l0.9-0.3l0.2-0.8l-1.4-1.5l-0.6,0l-0.2-0.3
			l-0.9,0l-0.3,0.3l-0.9-1.1l0-0.3l-1.3-1.3l0.1-1.6l-1.4-1.8l-0.8-0.3l-0.6-0.8l0.2-2.3l-0.7-0.5l-0.6-1.2l0.1-1.3l-0.4-0.5
			l-2.2-1.3l-1.3-1.6h-0.3l-1.1-0.6l-1.7-2.4l0.2-2.3l-2.1-2.3l0-0.7L373,198l-0.8-0.3l-0.5-0.7l-1.7-1l-0.9-1.2l-1.4-3.6l-1.3-1.6
			l0.1-1l-0.7-0.8h-0.3l-3-3.8l0.1-1l-1.8-2.6l-0.2-1.3l-0.4-0.5l-1.4,0l-0.3-0.3l-2-0.3l-0.4-0.5l0.1-1.3l-0.4-0.1l-1-1.3l-4.6-0.3
			l-1.9-1l-0.5-0.7l-2-0.3l-1.1-0.7l-2.3,0l-1.2,0.6l-0.2,0.2l0.5,1l-0.5,0.5l-3,1.3l-2,0l-1.1-0.7l-1.4-0.3l-0.5-0.7l-3.7,0
			l-0.3,0.3l-2.3,0.6l-0.9,0.7l-0.5-0.3l-2.9,0l-0.6,0.3l-1.2,2.1l-0.1,1l-1.1,1.5l-2.3,1.5L317,183l-5.4,0l-0.3,0.3l-1.1,0
			l-0.1-0.5l0.3-0.3l-0.4-0.5l-1.4,0l-0.3,0.3l-2,0l-1.5,1.3l-2.3,0l-0.8-0.6l-7.2,5.1l3.4,10.4l-9-6.5l-9,6.5l2.6-7.9l-1-0.2
			l-0.3-0.3h-0.8l-0.3-0.3l-1.4,0l-1.5,0.6l-0.6,0l-4.2,2.3l-2,0l-0.9,0.7l-0.6,0l-1.2,0.7l-1.2,0.3l-1.5,1.3l-0.6,0.3h-0.9
			l-0.3,0.3h-0.6l-2.1,2h-1.2l-0.8-0.7l-0.6,0l-0.6-0.3l-0.5-0.6h-0.3l-0.2-0.7l-1.1,0l-0.6,0.7l-1.1,0l-0.3,0.3l-3.4,0l-0.3-0.3
			h-0.9l-0.6,0.6h-0.6l-0.9,0.7h-0.6l-1.1,0.8l-0.1,0.7l-0.6,0.6l-0.1,0.7l0.4,0.5l0.6,0l0.7,0.5l-0.3,0.3l-0.1,1l-1,0.5l-1.5,0
			l-0.2-0.3h-0.9l-0.7-0.5l0-0.3l-0.4-0.1l-0.3,0.3l-1.4,0l-0.3-0.3l-0.6,0l-0.4-0.5l0.1-0.7l-0.7-2l-0.4-0.5l-1.1-0.3l-0.2-0.7
			l-0.8,0l-0.9,0.6l-0.8,0L232,199h-0.6l-0.6,0.7l-0.3,0l-1.3,1.6l-0.4-0.1l0.1-0.7l0.7-1l-1.3-0.2l-0.3,0.3l-1.2,0.3l-1.5,1.3
			l-0.6,0l-0.3,0.3l-0.5-0.3l-0.9,0l-1.8,1.6h-2.9l-1.1-0.7l-0.6,0l-1.6-1h-0.6l-1.1-1l-1.1,0l-0.3,0.3l-1.1,0l-0.6-0.3l-1.7-1.8
			l0-0.3l-1.2-1.5l-1.4-0.3l-1.7-1l-0.2-0.3h-0.6l-0.4-0.5l0.1-1l-0.4-0.5l-0.9,0l-1.4,1.1l-0.7,1.3l0,0.7l-0.5,0.5h-0.8l-1.8-2.6
			l-0.5-0.3l-1.7,0l-0.3,0.3l-0.6-0.3h-1.1l-0.3,0.3l-0.6,0l-0.8,0.8l-0.1,1l-1.9,1.6l0,0.3l-0.6,0.7l-0.1,0.7l-0.3,0.3l-0.1,0.7
			l-1.5,1.3l-0.2,0.5h-0.3l-0.6,0.7l-1.5,0.3l-0.2,0.5l2.8,3.1l1.4,1l1.2,1.5l0.2,1.3l-0.3,0.3l-0.1,0.7l0.5,1.3l0,0.7l0.5,0.6
			l-0.1,0.7l0.6,1.1l1.7-0.3l1.3,2l0.4,0.2l0,0.3l1,1.3l0.2,1l1,1.3l0,0.3l0.6,0.3l0,0.3l2.3,2.1l1.7,0l1,1.3l1.1,0.6l0.8,1l0.6,0.3
			h0.9l0.3,0.3l1.1,0.3l2.2,2.4l0.1,1.6l1.6,2.8l1.1,0.3l1.3,1.3l0.3,0l1.6,2l0.5,0.3l0.9,0l0.1,0.8l0.9,1.1h0.3l1,1.3l0.8,0
			l0.6,0.3l1.6,1.6l1.5-0.3l0.3-0.3l1.1,0.3l0.7,0.8l-0.4,0.6l0.7,0.5l0.4,0.8l-0.1,1.3l-0.6,0.7l0.4,0.8l2.1,0.5l-0.3,0.7l0.2,1.3
			l0.9,1.5l0.3,0l0.5,0.7l1.7,0.3l1.3,1.9l0.6,0.3h0.9l0.4,0.5l-0.1,1l0.6,0.8l0.9,0l0.3-0.3l1.1,0.7l0.2,0.7l0.4,0.2l0.5,1
			l-0.3,0.3l-0.2,2.6l0.5,1l0,0.3l1.4,1.8h0.3l0.2,0.7h0.3l0.5,0.7h0.6l0.7,0.8l-0.3,0.7l0.3,0.3l0.2,1.3l0.7,0.8l0.3-0.3l0.6,0.3
			l0.1,0.8l0.9,1.2h0.3l1.5,2l1.1,0.7l1.2,1.5l-0.1,0.7l0.7,0.8l1.4,0.3l1.1,0.7l0.9,1.8l0.9,0.8l0.7,0.1l-0.3,0.3l-0.2,2.3l0.3,0.3
			l-0.1,1l-0.3,0.3l-0.3,3.6l0.5,1l0.7,0.8l1.1,0.7h0.6l0.9,0.8l-0.1,0.7l0.5,1l-0.3,0.3l0,0.1h91.8L349.2,296.1z M257.7,231.4
			l-9-6.5l-9,6.5l3.4-10.4l-9-6.5h11.1l3.4-10.4l3.4,10.4h11.1l-9,6.5L257.7,231.4z M300,291.5l-11.3-8.2l-11.3,8.2l4.3-13.2
			l-11.3-8.2h13.9l4.3-13.2l4.3,13.2H307l-11.3,8.2L300,291.5z M314.5,249.6l-5.6-4.1l-5.6,4.1l2.2-6.6l-5.6-4.1h7l2.2-6.6l2.2,6.6
			h7l-5.6,4.1L314.5,249.6z M338.2,224.1l-8.4-6l-8.4,6l3.2-9.7l-8.4-6h10.4l3.2-9.7l3.2,9.7h10.4l-8.4,6L338.2,224.1z"/>
		<polygon fill="#FFFFFF" points="293.1,270.1 288.8,256.9 284.5,270.1 270.5,270.1 281.8,278.3 277.5,291.5 288.8,283.3 300,291.5
			295.7,278.3 307,270.1 		"/>
		<polygon fill="#FFFFFF" points="252.1,214.5 248.7,204 245.2,214.5 234.1,214.5 243.1,220.9 239.7,231.4 248.7,224.9 257.7,231.4
			254.2,220.9 263.3,214.5 		"/>
		<polygon fill="#FFFFFF" points="333,208.3 329.8,198.6 326.6,208.3 316.1,208.3 324.6,214.3 321.3,224.1 329.8,218.1 338.2,224.1
			335,214.3 343.5,208.3 		"/>
		<polygon fill="#FFFFFF" points="288.8,192.1 297.8,198.6 294.3,188.1 301.5,183 301.5,183 300.1,183 298,184 297.3,185
			296.1,185.3 295.5,185.9 294.7,185.9 294,186.6 293.5,186.6 291.9,187.9 290.8,187.9 290.5,188.2 289.3,188.5 287.2,190.2
			286.3,190.2 286,190.5 285.1,191.2 283.6,191.5 283.1,190.8 282.4,190.7 279.8,198.6 		"/>
		<polygon fill="#FFFFFF" points="311,238.9 308.8,232.3 306.7,238.9 299.7,238.9 305.3,243 303.2,249.6 308.8,245.5 314.5,249.6
			312.3,243 317.9,238.9 		"/>
	</g>
	<path fill="none" stroke="#999999" stroke-width="0.25" stroke-linecap="round" stroke-linejoin="round" d="M412.4,337.9l-0.3-0.3
		l-0.2,0.2l0,0.7l0.1,0.2h0.3l0.5-0.5l-0.1-0.2H412.4z M408.2,329.4l-0.5,0.5l-0.1,0.7l0.1,0.2h0.3l0.8-0.8l-0.4-0.5H408.2z
		 M382,289.4l0.1,0.2l0.6,0l0.5-0.5l-0.1-0.2h-0.6L382,289.4z M402.6,320.9h-1.1l-0.6,0.3l-0.8,1.2l-0.1,1.3l0.9,1.5l1.5-0.3
		l1.1-1.5l0.1-1.3l-0.3-0.7L402.6,320.9z M400.1,263.9l0.4-0.2l0.8-1.1l-2.6-3.3l0-0.3l-1-1.6l-1.9-5.2l-0.6-3.3l-1.3-1.6l0.1-1.3
		l0.6-0.6l0.5-2.6l-1.1-1l0.1-0.7l-1.4-3.6l-0.9-3l-0.1-2.3l-0.4-0.1l-0.6-0.8l-0.2-1.3l0.6-0.3l0-0.3l-1.3-1.6l0-0.7l0.8-0.8
		l0.9-0.3l0.2-0.8l-1.4-1.5l-0.6,0l-0.2-0.3l-0.9,0l-0.3,0.3l-0.9-1.1l0-0.3l-1.3-1.3l0.1-1.6l-1.4-1.8l-0.8-0.3l-0.6-0.8l0.2-2.3
		l-0.7-0.5l-0.6-1.2l0.1-1.3l-0.4-0.5l-2.2-1.3l-1.3-1.6h-0.3l-1.1-0.6l-1.7-2.4l0.2-2.3l-2.1-2.3l0-0.7L373,198l-0.8-0.3l-0.5-0.7
		l-1.7-1l-0.9-1.2l-1.4-3.6l-1.3-1.6l0.1-1l-0.7-0.8h-0.3l-3-3.8l0.1-1l-1.8-2.6l-0.2-1.3l-0.4-0.5l-1.4,0l-0.3-0.3l-2-0.3l-0.4-0.5
		l0.1-1.3l-0.4-0.1l-1-1.3l-4.6-0.3l-1.9-1l-0.5-0.7l-2-0.3l-1.1-0.7l-2.3,0l-1.2,0.6l-0.2,0.2l0.5,1l-0.5,0.5l-3,1.3l-2,0l-1.1-0.7
		l-1.4-0.3l-0.5-0.7l-3.7,0l-0.3,0.3l-2.3,0.6l-0.9,0.7l-0.5-0.3l-2.9,0l-0.6,0.3l-1.2,2.1l-0.1,1l-1.1,1.5l-2.3,1.5L317,183l-5.4,0
		l-0.3,0.3l-1.1,0l-0.1-0.5l0.3-0.3l-0.4-0.5l-1.4,0l-0.3,0.3l-2,0l-1.5,1.3l-2.3,0l-0.8-0.6l-1.4,0l-2.1,1l-0.7,1l-1.2,0.3
		l-0.6,0.6h-0.8l-0.6,0.7h-0.6l-1.5,1.3l-1.1,0l-0.3,0.3l-1.2,0.3l-2.1,1.7l-0.8,0l-0.3,0.3l-0.9,0.6l-1.5,0.3l-0.5-0.6l-1.7-0.3
		l-0.3-0.3h-0.8l-0.3-0.3l-1.4,0l-1.5,0.6l-0.6,0l-4.2,2.3l-2,0l-0.9,0.7l-0.6,0l-1.2,0.7l-1.2,0.3l-1.5,1.3l-0.6,0.3h-0.9l-0.3,0.3
		h-0.6l-2.1,2h-1.2l-0.8-0.7l-0.6,0l-0.6-0.3l-0.5-0.6h-0.3l-0.2-0.7l-1.1,0l-0.6,0.7l-1.1,0l-0.3,0.3l-3.4,0l-0.3-0.3h-0.9
		l-0.6,0.6h-0.6l-0.9,0.7h-0.6l-1.1,0.8l-0.1,0.7l-0.6,0.6l-0.1,0.7l0.4,0.5l0.6,0l0.7,0.5l-0.3,0.3l-0.1,1l-1,0.5l-1.5,0l-0.2-0.3
		h-0.9l-0.7-0.5l0-0.3l-0.4-0.1l-0.3,0.3l-1.4,0l-0.3-0.3l-0.6,0l-0.4-0.5l0.1-0.7l-0.7-2l-0.4-0.5l-1.1-0.3l-0.2-0.7l-0.8,0
		l-0.9,0.6l-0.8,0L232,199h-0.6l-0.6,0.7l-0.3,0l-1.3,1.6l-0.4-0.1l0.1-0.7l0.7-1l-1.3-0.2l-0.3,0.3l-1.2,0.3l-1.5,1.3l-0.6,0
		l-0.3,0.3l-0.5-0.3l-0.9,0l-1.8,1.6h-2.9l-1.1-0.7l-0.6,0l-1.6-1h-0.6l-1.1-1l-1.1,0l-0.3,0.3l-1.1,0l-0.6-0.3l-1.7-1.8l0-0.3
		l-1.2-1.5l-1.4-0.3l-1.7-1l-0.2-0.3h-0.6l-0.4-0.5l0.1-1l-0.4-0.5l-0.9,0l-1.4,1.1l-0.7,1.3l0,0.7l-0.5,0.5h-0.8l-1.8-2.6l-0.5-0.3
		l-1.7,0l-0.3,0.3l-0.6-0.3h-1.1l-0.3,0.3l-0.6,0l-0.8,0.8l-0.1,1l-1.9,1.6l0,0.3l-0.6,0.7l-0.1,0.7l-0.3,0.3l-0.1,0.7l-1.5,1.3
		l-0.2,0.5h-0.3l-0.6,0.7l-1.5,0.3l-0.2,0.5l2.8,3.1l1.4,1l1.2,1.5l0.2,1.3l-0.3,0.3l-0.1,0.7l0.5,1.3l0,0.7l0.5,0.6l-0.1,0.7
		l0.6,1.1l1.7-0.3l1.3,2l0.4,0.2l0,0.3l1,1.3l0.2,1l1,1.3l0,0.3l0.6,0.3l0,0.3l2.3,2.1l1.7,0l1,1.3l1.1,0.6l0.8,1l0.6,0.3h0.9
		l0.3,0.3l1.1,0.3l2.2,2.4l0.1,1.6l1.6,2.8l1.1,0.3l1.3,1.3l0.3,0l1.6,2l0.5,0.3l0.9,0l0.1,0.8l0.9,1.1h0.3l1,1.3l0.8,0l0.6,0.3
		l1.6,1.6l1.5-0.3l0.3-0.3l1.1,0.3l0.7,0.8l-0.4,0.6l0.7,0.5l0.4,0.8l-0.1,1.3l-0.6,0.7l0.4,0.8l2.1,0.5l-0.3,0.7l0.2,1.3l0.9,1.5
		l0.3,0l0.5,0.7l1.7,0.3l1.3,1.9l0.6,0.3h0.9l0.4,0.5l-0.1,1l0.6,0.8l0.9,0l0.3-0.3l1.1,0.7l0.2,0.7l0.4,0.2l0.5,1l-0.3,0.3
		l-0.2,2.6l0.5,1l0,0.3l1.4,1.8h0.3l0.2,0.7h0.3l0.5,0.7h0.6l0.7,0.8l-0.3,0.7l0.3,0.3l0.2,1.3l0.7,0.8l0.3-0.3l0.6,0.3l0.1,0.8
		l0.9,1.2h0.3l1.5,2l1.1,0.7l1.2,1.5l-0.1,0.7l0.7,0.8l1.4,0.3l1.1,0.7l0.9,1.8l0.9,0.8l0.7,0.1l-0.3,0.3l-0.2,2.3l0.3,0.3l-0.1,1
		l-0.3,0.3l-0.3,3.6l0.5,1l0.7,0.8l1.1,0.7h0.6l0.9,0.8l-0.1,0.7l0.5,1l-0.3,0.3l-0.1,1l0.3,0.8l0.3,0l0.7,0.8l0.2,0.6l-0.1,1.6
		l0.4,0.5l1.4,0.3l0.5,0.7h0.3l0.5,1l0.8,0l2.2,1.6l0.7,0.5l0.2,0.7l0.1,2l0.7,2l2.2,2.8l1.4,0.7l0.6,0l0.3,0.3l2.6,0l0.3-0.3l0.9,0
		l0.3-0.3l0.6,0l0.3-0.3l1.2-0.3l2.7-2l0.6,0l0.3,0.3l1.7,0l0.3-0.3l1.1,0l0.3-0.3l1.7-0.3l0.3-0.3l1.7,0l0.6-0.3l1.2-1.3h0.3l0.9-1
		l2.4-1.6l1.2,0l0.3,0.3l0.9,0l0.2,0.3l0.9,0l0.3,0.3l1.2,0l0.3,0.3l0.9,0l0.3,0.3l1.5-0.3l0.9-1l1.2-0.3l0.3-0.3l0.6,0l0.3,0.3
		l1.1,0l0.3-0.3l1.7-0.3l0.3-0.3l0.8,0l0.3-0.3h0.3l0.2,0.7l0.9-0.3l1.2-1l1.4-0.3l1.8-1l0.6,0l0.1,0.8l0.4,0.5l1.1,0l0.3-0.3
		l1.7-0.3l0.5,0.7l2,0l0.3-0.3l0.6,0l0.3-0.6l0.9-0.3l0.9-0.7l2.6,0.3l0.3,0.3h0.6l0.3-0.3l0.6,0l2.4-1.3h3.7l0.3-0.3l0.9,0l0.4,0.5
		l-0.4,1.6l0.4,0.5h0.8l0.3-0.3h0.6l0.3,0.3l2.3,0l0.3,0.3h2.9l0.6-0.3l1.1-1.1l0-0.3l1-1.6l0.2-2l0.8-0.8l1.5-0.7l1.2-1l0.5,0.3
		l2,0l0.2,0.3l2.3,0.3l0.3,0.3l2-0.3l0.9,0.8l0.9,2.6l-0.1,0.7l0.5,0.6l0,0.3l0.5,1l-0.2,2l1.2,2.3l0.9,2.6l-0.2,2l0.4,0.5h0.6
		l1.1,0.7h1.7l0.3-0.3h0.9l0.3-0.3l1.1,0l1.9,1l1,1.6h0.3l0.2,0.3l2.6-0.3l0.3,0.3l2.3,0l0.6-0.3l1.4-1.5l0-0.3l1.4-1.8l1.2-0.3
		l0.5-0.5l0.4-1.6l-0.3-0.3l0-0.7l-0.2-0.6l1-1.6l0.1-1l0.3-0.3l0.1-0.7l-0.3-0.3l0.1-1.3l-1.4-3.9l-1-1.6l0-0.3l-1.1-1l1.3-1.3
		l0.3-0.7l0.4-2l0.3-0.3l0.1-1.3h-0.6l0.4-1l0.8-0.8l2.1-1l1.5-1.3l0.9,0l1.5-0.6l1.4-1.5l0.4-0.6l0.1-1.6l-0.3-0.3l0.1-0.7
		l-0.4-0.5l-1.5-0.5l0-0.3l1.8-1.6l-0.3-0.8h-0.6l-0.4-0.5l1.8-1.3l0.7-1.3l0.1-1.3l0.3-0.7l0.9-0.6l0.4-1.3l2-2.1l2.4-1.3l0.6-0.3
		h0.6l0.3,0.3l1.4-1.8L400.1,263.9z M580.9,343.1h0.8l0.5-0.5l-0.4-0.5h-0.6l-0.5,0.5l0,0.3L580.9,343.1z M647.6,403.3l0.8-0.8
		l0.3-0.7l0.1-1l-0.4-0.5h-0.6l-1.1,1.2l-0.1,1.3l0.4,0.5H647.6z M648.4,419.6h-0.8l-0.3,0.3h-0.9l-0.6,0.3l-0.2,1.1l1.6,0.2
		l0.3,0.3h1.2l0.5-0.8l-0.5-0.7L648.4,419.6z M645.9,417.5l-0.8-0.7l-0.2-1.3l-0.7-0.8l-0.5-0.3l-1.8,1h-0.6l-0.2,0.2l-0.1,1
		l0.5,0.7l-0.1,0.7l0.6,1.2l2.3,0.3l0.3-0.3l0.6,0l0.5-0.5L645.9,417.5z M655.8,397.1h-1.7l-0.8,0.8l0,0.3l0.6,0.8l1.4,0l1.1-0.8
		l0.1-0.7L655.8,397.1z M551.3,410.4l-0.8,0.8l0,0.3l0.7,0.5l0.8,0l0.5-0.5l0.1-0.7l-0.4-0.5L551.3,410.4z M641.8,405.4l-0.2-0.3
		l2.2-2.6l0.1-0.6l0.7-1l0.3-3l-0.3-0.3l0.2-1.9l-0.3-0.3l0.1-1.6l-0.2-0.3l0.1-1.3l-2.1-2.3l0-0.3l0.4-0.2l0.2-0.5l-0.9-0.8h-0.6
		l-0.6-0.8l-0.2-1.3l-0.5-1l0.1-1l-1.5-0.8l-0.5-1l-0.5-0.3h-1.7l-0.2,0.8l0.3,0.3l-0.8,1.1h-0.3l-0.2-0.7h-1.1L633,383l-0.2-0.6
		h-0.6l-0.3-0.3h-0.3l-0.6,0.7l-0.3-0.3h-0.6l-0.3,0.3h-0.6l-0.1-0.2l1.2-1l0.1-1.6l-0.2-0.3l0-1.2l-0.9,0.3l-0.4-0.5l0.4-1.3
		l-0.4-0.5l-1.1-0.3l-0.7-0.8l0-0.8H626l-0.3,0.3l-0.6,0l-0.4-0.5l0.6-0.7l0-0.3l-0.4-0.5l-1.2,0l-0.3,0.3l-2.8-0.3l-0.3-0.3l-1.4,0
		l-0.2-0.3h-1.4l-0.3-0.3l-1.3-0.2v-0.3l0.8-0.5h0.9l1.4-0.8l-0.4-0.8l-1.4-0.7h-0.6l-0.2-0.3h-1.4l-0.9-1.4l0.1-1l-0.5-0.3l0.1-0.7
		l-0.4-0.5l-1.2,0.3l-1.3,1.3l-1.8,0.6l-1.2,1l-1.7,0.3l-1.2,1h-1.1l-0.3-0.3l-2,0l-0.6,0.7h-2.9l-0.4-0.8l0.7-0.2l0.9-0.7h0.6
		l2-1.8l0-0.3l0.8-0.8l2.1-0.7l1.6-2h0.6l1.1-0.8l1.1-2.3l-1.6-0.2l-0.6,0.3l0-1.1l-0.6-1.2l-1.5,0l-0.3,0.3h-0.6l-0.3-0.3l-1.4,0
		l-0.6,0.3l-0.1-0.8l-0.3-0.3l0.4-1.6l0.3-0.3l-0.1-0.5l-0.7-0.5l0-0.3l-1.4-1.8l-0.4-0.2l0.7-1.6l-1-0.8h-0.9l-0.9,1l-2-0.3
		l-0.3,0.3h-0.6l-0.6-0.8l0.4-1.6l0.8-0.5l0.6,0l0.3-0.3h0.6l0.5-0.5l-1.2-1.1l-0.9,0l-0.8-0.7l-1.1-0.3l-2.2-1.3l-1.1,0l-0.3,0.3
		h-0.6l-0.5-0.3l-0.5-1l-0.9,0l-1.1,0.8l0,0.3l-1.7,1.8l-1,0.5l-0.5,1.1l-0.6,0.3h-0.9l-0.5-0.3l-1-1.6H579l-0.6-0.8l-0.3-1.2
		l-1.1-0.3l-1.1-0.7l-1.4,0l-1.2,1h-0.9l-2.9-2.3l-0.1-0.5l-1.2-1.2h-0.3l-0.5-1l-0.8-0.3l-0.5-0.7l-1.2,0.7h-1.1l-0.3,0.3l-0.3-0.3
		h-1.7l-1.2,0.6l-0.9,0l-0.5-0.7l-1.7,0.3l-0.8-0.6h-1.4l-0.3,0.3h-0.6l-0.6,0.6l-0.9,0l-0.4-0.5l-0.1-2l-1.2-1.5l-1.7-0.3l-0.5-0.7
		h-0.3l-0.2-2.1l-0.7-0.5l-1.1-1l-1.1,0l-0.9,0.6h-1.4l-0.2-0.3l-0.6,0l-0.3,0.3l-0.4-0.2l-0.1-2.6l-0.3-0.3l-0.2-1.3l-0.7-0.5
		l-0.6,0l-0.2-0.3h-0.6l-1-1.3l-0.6-0.3l-1.2,0l-0.5,0.5l-0.1,0.7l-0.8,1.1l-2.2-0.7l-1.2-1.1l-1.1-4.3l-0.9-0.8h-0.6l-0.2,0.5
		l0.5,0.7l0.2,0.7l-0.1,1l0.5,0.7l-0.1,1l0.2,0.7l-0.8,1.2l-0.6,0l-0.5-0.7l-1.1-0.7l-0.6,0.3h-0.6l-0.3-0.3l-0.3,0.3l-0.4-0.5
		l0.3-0.7l-0.3-0.3l0.1-0.7l-0.4-0.8h-0.3l-0.5-0.3l-0.9,0.6l-0.4-0.8l-0.6-0.3l-0.1-0.5H521l-0.6-0.8l0.1-1.3l-0.6-1.2l-0.6-0.3
		h-0.8l-1.1-0.7l-1.2-1.5l0.1-0.6l-0.4-0.5l-0.5-0.3l-0.9,0l-1-2l-1.1-0.6h-0.6l-0.6,0.6l-1.1,0l-1.3,1.3l-1.4,0l-0.6,0.7l-1.2,0.3
		l0-1.1l-0.7-0.8l-1.1,0l-0.5,0.5l-0.4,1.3l-0.7,0.5l-0.8-1l-1.2,0l-0.2-0.3l-0.6,0l-0.8-0.7H498l-0.3,0.3l-2.3,0l-0.3,0.3l-1.4-0.3
		l-1.6,1.6l-2.1,0.7l-0.3-0.3h-1.4l-0.5-0.6l-0.5-0.3l-1.2,0.3l-0.3-0.3h-0.6l-2.2,1.6h-0.6l-0.3,0.3h-1.4l-0.3-0.3H480l-1.5,1.3
		l-0.9,0.3l-0.9,1l-0.3-0.3l-0.6,0l-0.9,0.6h-0.6l-1.5,1.3l-0.3,0l-0.7,1l-0.5-0.3l-1.1,0l-0.3,0.3l-0.9,0l-1.1,1.8l-0.5,0.2
		l-2.5,2.9h-0.6l-1.2,0.6l-0.5-0.3l-2.3-0.3l-0.6,0.3h-1.2l-0.3,0.3l-2,0l-0.5-0.7h-0.6l-0.6,0.6l-1.2,0.3l-0.3,0.3l-1.7,0l-0.2-0.3
		l-2-0.3l-2.4-1.6l-1.2,0.3l-0.3,0.3h-1.2l-0.3,0.3l-1.7,0.3l-2.4,1.6l-0.8,0.8l-1.4,2.6l-1.8,2.5l-1.2,0.6h-0.6l-0.6,0.7l-0.3,0
		l-2,2.1l-0.1,0.7l-0.5,0.2l-0.2,0.5l-1.4,1.5l-0.9,0.3l-1.7,1.5l-0.3,0.7l0.1,2l0.3,0.3l-0.1,1l0.8,1l0.4,1.3l-0.1,1.6l-0.3,0.3
		l-0.1,0.7l-0.7,1l-0.1,0.7l0.7,0.8l2.2,1l1.3,1.6l0.5,0.3l1.1,0l0.3,0.3l1.4,0l0.3,0.3h0.9l0.2,0.3l1.7,0l2.9,2.3l1.1,0l0.3-0.3
		h0.6l0.3-0.3l1.1,0.7l0.6,0l0.3,0.3l1.7,0.3l1.5,1.2l-0.1,1l-1.2,1l-0.7,1.3l0.1,0.5h0.3l0.9,1.1l0.5,1.3l-0.1,0.6l1,0.5l2.6,0
		l0.1,0.8l0.7,0.8h0.3l0.4,0.8l-0.3,0.3l-0.1,1.3l-0.3,0.3l0.7,0.8h0.3l0.8,0.7h1.4l2.2-1.6l0.8-1.2l0.2-3l0.5-0.5l0.5,0.3l0.3-0.3
		h0.6l0.4,0.5l0,0.7l0.5,0.6l0,0.3l1.6,2l0.2,0.7l-0.5,2l0.3,0.3l1.4,3.9l0.7,0.8h0.3l0.1,0.5l0.5,0.7l-0.1,0.7l0.7,1.6l-0.1,0.7
		l1.5,1.5l1.1,0.7l0.6,0l0.8,0.7h0.6l1.4,1h0.6l3.6,4.2l1.3,1h0.6l0.5,0.7l1.8,0.5l0.1,0.3l1.7,0l0.2-0.3l1-0.2l0.3-0.3l3.1,0
		l0.3-0.3l0.6,0l1.2-0.6l0.6,0l1-1h0.5l0.9-1l1.2-0.6h0.6l1.2-0.7l0.8-0.8l0.1-0.7l0.7-0.2l0.7-1l0.6,0l0.7,1.3l1.1,0.7l3.2-0.3
		l0.3,0.3l1.1,0.3l1,1l0.9-0.3l0.6-1h0.3l0.4,0.5l0.9,2.9l1.2,1.5l1,0.5l1,1l-1.3,0.2l-0.3-0.3l-0.8,0L507,392l-0.7-0.5l-0.9-1.1
		l0-0.3l-1.4-1.5l-0.6,0L503,389l-0.1,1l0.3,0.3l-0.1,0.7l0.8,1l0.7,0.8l1.4,0.7l0.5,0.7h0.9l0.2,0.3h1.2l0.3,0.3l2,0l0.3-0.3
		l0.3,0.6l0.8,0l0.9-0.6l0.3,0.3h0.8l0.3,0.3h1.4l0.9-0.7l0.2,1l1.8-0.3l0.3,0.3h0.6l0.8,1l1.1,0.7l0.3-0.3l0.3,0.3l0.3-0.3l0.1,0.2
		l-0.1,0.7l-0.7,0.6l1.1,1l0.7,2.3l0.2,1l0.4,0.5l0.5,0.3l1.2,0l0.7,0.8l-0.2,0.8l-0.9,0.3l-0.8,0.8l0,1.5l0.8,0l0.3,0.3h0.6l1.1,1
		h0.6l0.2,0.3l0.9,0l1.5-1l1.9,1.3l0.9,0l0.9-0.7l1.1,0l0.3-0.3l2.6,0l0.3-0.3h1.7l0.6-0.7l0.8,0l2.7-1.6h0.6l0.3-0.3h1.2l0.9-0.6
		h0.6l1.2-1l1.7-0.3l1.9,1.6h0.6l0.5,1l1.1,0l1.3,1.3l2,0l0.8,0.6l4,0l0.3,0.3h1.1l0.3,0.3l0.9,0l0.3,0.3l0.3-0.3l1.4,0l0.3-0.3
		l2.3,0l0.3-0.3h0.9l0.3-0.3l1.4,0l0.3-0.3h0.9l0.9-0.7l0.9,0l0.3-0.3h1.7l1.8,2.3l1-1l1.1,0.7l2.5,0.3l0.3,0.3l2.9,0l0.1,0.5
		l-0.6,0.7l-0.1,0.7l0.7,0.5l0.9,0l0.6-0.6l2.3-0.3l1.8-1.3h0.9l0.3,0.3l0.8,0l0.3,0.3h2.9l1.2-0.7h1.4l1.1,0.7l1.2,0l0.2,0.3l2,0
		l0.9-1h0.6l0.3-0.3l3.8-0.3l0.2,0.3l0.8,0l0.3,0.3l4.9,0l0.3-0.3l2.6,0l0.3-0.3l1.1,0l0.3,0.3l4.3,0.3l0.2,0.3h1.7l0.3,0.3h1.1
		l0.3,0.3h1.4l0.2,0.3l0.8,0l0.3,0.3h1.7l0.2,0.3l3.1,0.3l0.8,0.7l1.7,0.3l0.5-0.5l-0.1-0.8l-0.9,0l-0.9-1.1l0.4-1l1.2-1l0.3-0.7
		l0-0.3l0.6-0.7L641.8,405.4z M417.8,333.2l-1.1-1l-0.6-1.8l-0.5-0.3l-1.2,0l-0.3,0.3l-0.9,0l-0.3,0.3l-3.2,0l-0.3,0.3h-0.3
		l-0.2,0.2l0.4,0.5l0.9,0.3l1.1,1.8l0.2,1.3l0.7,0.8h0.6l0.4,0.5l0,0.3l0.9,1.2l2.2,0.7l0.5-0.8l0.1-1.6l1-1.6l0.1-0.7l-0.3-0.3
		L417.8,333.2z"/>
</g>

</svg>
