<?xml version="1.0" encoding="utf-8"?>

<svg version="1.2" baseProfile="tiny" xmlns="http://www.w3.org/2000/svg" xmlns:xlink="http://www.w3.org/1999/xlink" x="0px"
	 y="0px" viewBox="195 169.6 447.7 257" xml:space="preserve">

<g id="Yemen">
	<g>
		<polygon fill="#FFFFFF" points="203.3,293.5 204,293.4 206.3,293.6 206.6,293.4 206.6,293.1 206.3,293 205.9,293 204.9,292.8
			204.8,292.7 203.3,291.9 203.1,291.9 202.9,292.1 203.1,292.7 203,293.3 		"/>
		<polygon fill="#FFFFFF" points="195.7,318.5 195.9,318.3 196.2,318.1 196.1,317.5 196.1,317.1 195.7,316.7 195.3,317.1 195,317.4
			195.1,317.7 		"/>
		<polygon fill="#FFFFFF" points="212.3,303.2 212.1,302.9 211.8,302.8 211,303.2 210.9,303.4 210.7,303.8 210.4,304.1 209.9,304.5
			209.5,305.2 209.4,307.1 209,308 209,308.8 209.4,309.5 209.8,309.8 210.3,309.8 210.7,309.4 211.5,308.3 211.5,308.1
			211.3,308.2 211.3,308.1 211.4,307.9 211.5,307.6 211.4,307.3 211.5,306.8 212,305.4 212,305 211.6,304.9 211.2,305.2
			210.7,305.3 210.3,305.2 210.4,305 210.9,304.8 211.3,304.5 211.4,304.3 211.4,304.1 211.2,304 211.3,303.8 		"/>
		<polygon fill="#FFFFFF" points="229.4,247.8 229.5,248.4 230.3,249.9 230.7,251.2 231.1,251.6 232.5,252 232.8,252.2 233.1,252.7
			233.1,253.1 233,253.5 232.7,253.7 232.4,253.9 232,254.1 231.5,254.9 231.6,255.4 231.9,256 232.1,256.9 231.9,257.6
			231.3,257.7 229.9,257.3 229,257.1 228.5,257.3 228.3,257.8 228.3,258.6 228.1,259.3 227.2,261.8 226.7,262.4 225.9,263
			224.4,263.9 223.8,264.1 222.4,264.4 222,264.6 221.9,265.1 222,265.6 222,266.2 221.7,266.8 220.8,267.5 219.5,268 217.8,268.6
			217.9,268.7 218.2,269.1 218.3,269.3 218.3,269.5 218.3,269.7 218.3,269.8 218.3,269.8 218.5,270.6 218.5,270.8 218.7,273.6
			219.7,278.9 219.8,280.6 219.5,285.7 219.3,286.5 218.9,287.2 218.3,287.7 217.6,288.1 217,288.6 216.5,289.4 216.3,290.4
			216.3,291 216.2,291.4 216.1,291.7 215.8,292.1 215.3,292.5 214.9,292.7 214.6,293.1 214.3,293.6 215.1,293.9 215.2,294.5
			214.8,295.8 214.9,296.4 215.1,296.9 215.5,297.4 215.8,297.7 215.4,298.3 215.3,298.6 216.8,300.6 217.3,301.5 217.4,302
			217.5,302.4 217.5,302.8 217.5,303.3 217.4,303.7 217.4,304.1 217.5,304.6 218.1,305.7 218.4,307 218.5,309.8 218.3,310.7
			217.8,311.2 217.9,311.4 218,311.5 218.1,311.7 218,312 217.6,311.8 217.4,311.6 217.5,310.9 217.5,310.4 217.3,310.1
			215.8,308.9 215.3,308.5 214.6,308.2 214.9,307.8 215.1,307.3 215.2,306.6 215,306.2 214.7,306.6 213.8,308.3 213.9,308.8
			214.3,309.3 214.3,309.7 214.2,310.2 214,310.6 213.6,310.9 212.9,311 211.8,310.7 211.3,310.7 211.6,311.2 211.6,312.1
			212.3,312.7 213.2,313 213.6,312.9 213.8,312.1 214.3,311.8 215,311.8 215.8,312 216.6,312.3 217.4,312.7 218.1,313.2
			219.2,314.2 220.5,314.7 221,315.3 221.2,316 221,318 221.1,318.9 221.4,319.5 221.8,320 222.7,320.9 223,321.2 223.2,321.7
			223.3,322.9 223.7,324.3 223.8,325 223.5,326.3 223.5,326.8 222.8,326.4 222.2,325.7 221.8,324.9 221.5,324.2 221.5,323.8
			221.6,323.5 221.7,323.3 221.5,323 221.2,322.9 221.2,323.3 221.2,324.1 221.6,325.5 223.4,327.7 223.8,329 223.8,329.4
			224.1,330.6 224.2,330.9 224.4,331.1 224.5,331.2 224.6,331.4 224.9,331.5 225.1,331.7 225.3,332.1 225.3,332.2 225.4,332.3
			225.5,332.5 225.4,332.8 225.1,333.1 225,333.4 225.4,334.6 226.1,335.7 226.5,337 225.9,338.5 226.2,338.9 226.2,339.5
			226.2,340.5 225.7,340.1 225.2,338.4 224.9,337.6 224.5,337.3 224.2,337.2 224,337.4 224,337.9 224.1,338.1 224.8,338.6
			225,338.8 225.1,339.1 225.2,340.3 225.7,341.4 225.8,342.5 226.1,343.3 227.8,346.1 228.1,347 228.3,348.6 228.4,348.7
			438,348.7 438.1,348.2 438.1,347.9 438.3,347.6 438.9,347.3 439.5,347.2 440,346.9 440.3,346 440.6,345.8 442.1,345.2
			442.5,344.9 442.6,344.6 442.7,344.2 442.7,343.8 442.4,343.6 442.7,342 443.4,340.7 445.2,338.1 445.7,337.6 446.5,337.3
			447.3,337.2 448,337.4 448.6,337.7 449,337.8 449.3,336.6 450.7,335.6 453.7,334.2 455.1,333.2 455.8,332.8 457.5,332.6
			459,331.9 463.3,329.6 471.3,327.5 476.4,325.8 478.8,325.6 479.3,325.4 479.6,325.4 479.8,325.8 480,326.6 480.4,326.5
			480.7,326.5 481.4,326.3 482.9,325.6 483.8,325.4 484.5,325.7 485,325.6 487.3,324 489.5,322.9 490.9,322.6 491.5,322.3
			494.2,320 495.1,319.4 498.6,318 502.5,317.6 509.3,315.7 517.2,314.2 524.4,312.3 525.1,312 526.1,311.4 527.1,311 528,311.2
			528.5,310.9 530.3,310.1 530.7,310.1 530.8,309.9 531.1,309.8 531.8,309.7 532.7,308.7 533.2,308.3 533.9,308 534.6,307.8
			538.4,307.4 539.1,307.1 539.2,306.9 538.8,306.5 538.6,305.8 538.8,305.2 539.3,304.8 542.1,303.2 544,302.8 544.2,302.7
			544.7,302.3 545,302.4 545.3,302.7 545.6,302.8 545.8,302.9 546,303 546.1,303 546.1,302.6 546.1,302.5 546.2,302.5 546.3,302.5
			546.3,302.3 546.3,301.5 547.7,300.6 550.5,299.5 550.9,299.4 551.5,299.4 551.8,299.3 552,299.1 552.2,298.8 552.6,298.6
			558,297 558.8,296.9 559.1,296.8 559.3,296.6 559.4,296.4 559.4,296 559.5,295.9 559.7,295.5 559.7,295.3 559.6,295.1
			559.5,294.9 559.2,294.7 558.9,293.1 558.7,291.4 559,288.8 559,288.2 557.8,287.6 557.2,287.1 557.6,285.5 557.3,284.7
			556.8,283.8 556.5,283.1 556.6,282.4 557.5,281.4 557.9,279.9 558.7,279 559,278.3 558.9,278.2 558.8,277.8 558.7,277.4
			558.7,277 558.9,276.5 559.1,276.1 560.3,274.7 560.9,273.4 561.4,272.6 562.4,271.6 566,268.6 570.1,265.8 572.5,264.7
			577.5,263.3 578,263.1 579.4,262.3 580.1,262 581.6,261.7 582.9,261 583.7,260.7 584.1,260.4 584.8,259.7 585.2,259.5
			585.6,259.4 586.1,259.4 586.4,259 587.8,259.3 589.5,258.9 590.3,258.5 588,253.4 585.7,248.3 585.3,247.3 229.5,247.3 		"/>
		<polygon fill="#CE1126" points="581.2,238.1 579.8,235 579.4,234.4 578.8,234.2 577.4,234.1 576.9,233.8 577,233.8 577.2,233.8
			577.2,233.7 576.1,231.1 574.5,227.4 573,223.8 571.4,220.1 569.9,216.5 568.4,212.9 566.8,209.2 565.3,205.6 563.7,201.9
			562.2,198.3 560.6,194.6 559.1,191 557.5,187.3 556,183.6 554.4,180 552.9,176.3 551.3,172.6 550.1,169.6 544.3,170.4
			538.6,171.2 532.8,172.1 527,172.9 521.2,173.7 515.4,174.5 509.6,175.3 503.8,176.1 498,177 492.2,177.8 486.4,178.6
			480.6,179.4 474.8,180.2 469.1,181.1 463.3,181.9 457.5,182.7 451.7,183.5 447,184.2 443.7,185.4 442,186.2 436.8,188.9
			430.6,192.1 423.7,195.6 417.5,198.8 412.9,201.1 412.1,201.7 409.2,205.2 406,209.3 400.3,216.5 394.9,223.2 391.3,227.6
			390.7,228.8 389,233.5 386.6,240.1 385.5,241.6 381.4,244 377,246.6 375.9,247 374.7,247.2 369.4,246.9 369,246.7 365.9,242.4
			363.2,238.7 360.9,235.4 359.6,234.7 351.5,235.8 345.6,236.6 336.8,235.7 329.9,235 321,234.1 313.3,233.3 311.6,232.8
			305.8,229.3 303.7,228.9 297.6,228.9 292.3,228.8 285,228.8 284.2,229 281.9,229.8 280.9,229.9 278.4,229.4 276.2,229.3
			272.7,229.6 269.9,230.3 269.2,230.3 267.7,229.9 267,229.8 266.4,230.2 265.9,231.1 265.4,231.8 264.7,232.1 263.7,232
			262.3,231.3 261.7,231.2 260.9,231.6 260.4,232.3 259.9,233 259.4,233.6 258.5,233.7 258.1,233.6 257.9,233.5 257.7,233.3
			257.6,233 257.7,232.2 257.7,231.8 257.5,231.7 256.6,232 256,232 254.6,231.9 253.2,232 252.6,232 251.8,231.8 250.3,230.6
			247.8,227.8 246.3,226.8 243.6,225.7 243,225.6 241.8,225.5 241.1,225.4 240.4,225.5 239.6,225.8 236.4,227.8 233.2,230.5
			231.5,232.6 231.4,232.8 233.5,233.5 234.2,234 234.5,234.8 234.4,235.6 233.6,236 232.8,236.1 231.8,236.5 231.1,237.1
			230.8,237.9 230.9,238.8 230.7,239.5 229.9,241 229.7,241.8 229.8,242.4 230.1,243 230.3,243.8 230.3,244.7 230.2,245.4
			229.6,246.8 229.5,247.3 585.3,247.3 583.5,243.2 		"/>
		<polygon points="598.6,426.6 599.3,426.5 598.8,426 597.9,425.7 597.1,425.6 596.4,426 597,426.3 597.8,426.5 		"/>
		<polygon points="565.1,423.8 564.9,423.4 564.4,423.3 563.5,423.3 559.2,423 558.5,422.8 557.9,422.5 557.1,421.9 556.5,421.6
			555.8,421.6 554.3,421.8 554.1,422 554,422.1 554,422.2 553.8,422.3 554.5,423.1 554.9,423.4 555.3,423.5 555.6,423.5
			556.5,423.5 556.7,423.4 556.8,423.6 557.2,424.2 557.3,424.3 557.7,424.2 558.5,424 559,424 559.4,424.2 560.2,424.8
			562.8,425.3 563.6,425.2 564,425.1 564.9,424.9 565,424.8 564.9,424.7 564.9,424.5 		"/>
		<polygon points="642,409.7 641.3,409.8 640.7,410.2 638.5,409.2 633.9,407.8 633.5,407.5 633.2,407.1 632.6,406.8 631.7,406.7
			631.1,406.7 630.4,405.9 630.3,405.8 630.2,405.6 629.9,405.7 629.6,405.8 629.3,405.9 628.9,405.6 628.5,405.3 628.1,405
			627.5,404.9 626.5,405 625.4,405.2 624.4,405.6 623.5,406.3 622.6,406.6 619.4,406.4 618.4,406.9 617.7,407.6 617.1,408.1
			616,408.2 614.6,407.5 611.9,405.4 610.5,404.6 610.2,404.6 609.2,404.6 609,404.7 608.9,404.8 605.5,404.2 604.8,404.3
			604.5,404.6 604.3,405.1 604.1,405.5 603.7,405.6 602.8,405.8 602.4,405.9 601.8,406.2 601.6,407 601.6,408.7 601.4,409.1
			601.1,409.7 601.1,410 600.9,410.2 600,410.2 599.3,410.4 598.4,410.4 598.1,410.7 598.2,410.9 599.1,411.7 603.5,413.9
			604.8,414.7 605.3,415.4 605.8,416.2 606.4,416.9 607.1,417.2 608.3,418 609.7,418.5 612.6,419.1 614.1,419.1 621.2,418
			622.1,418.1 622.6,418.3 623.1,418.3 623.7,417.9 624.3,417.6 625.1,417.5 628.1,417.6 628.8,417.4 629.8,416.6 630.7,416.2
			631.1,416 631.7,415 632.1,414.7 633.3,414.1 637.8,413.2 639.2,412.1 639.1,411.4 639.2,411 639.6,410.9 640.4,410.8
			641.9,410.5 642.7,410.4 642.5,409.9 		"/>
		<polygon points="591.2,424.9 590.9,424.4 590.3,424.1 589.5,423.8 588.9,423.8 588.4,423.9 588,424.2 587.7,424.5 587.4,424.8
			589.5,425.4 590.7,425.5 		"/>
		<polygon points="229,350 229.2,350.7 228.4,355.5 228.7,357 229.1,357.5 230.8,358.7 233.6,361.2 233.9,361.5 234.2,364.5
			234.4,364.9 235.6,367.2 235.7,368.5 235.6,371.1 236.1,372.2 235.7,372.4 235.6,372.7 235.5,372.9 235.4,373.3 234.6,374.4
			234.4,381 234.1,382.2 233.6,383.4 234.4,386 236.6,388.7 236.8,389 237.1,390 237.5,390.8 237.6,391.1 237.8,391.6 239.1,393
			239.4,393.6 239.6,394.2 239.8,394.9 239.8,395.7 239.9,395.9 240.2,396.2 240.5,396.5 240.6,396.9 240.7,397.3 241.8,398.3
			242.5,399.5 242.9,400.8 242.8,402.2 242.1,405.2 242.4,405.5 243.2,405.6 243.9,405.5 244.4,405.3 246.7,403 247.2,402.8
			247.5,402.9 247.8,403.1 248.4,403.5 248.7,403.6 250,403.6 250.7,403.9 252.1,404.7 252.6,404.9 253.4,404.9 254.2,405.1
			254.9,405.3 255.4,405.6 256.4,406.3 257,406.6 257.8,406.7 258.3,406.9 259,408.2 259.7,408.7 260.2,408.6 261.3,408.2
			262.2,408.5 262.8,408.4 263.8,408.2 266,407 267.1,406.5 268.1,406.7 268.5,406.4 268.8,406.7 268.8,407.2 268.5,407.4
			268,407.4 267.1,407.2 266.6,407.2 267,407.7 267.7,407.9 268.5,407.9 269.9,407.2 270.5,407.2 271.3,407.2 272.1,407.2
			274.4,406 275.5,405.8 276.3,405.5 276.5,405.5 276.6,406 276.9,405.8 277.2,405.3 277.2,405.1 279.3,402.9 281.2,401.3
			282.3,400.8 283.7,400.5 285.2,400.6 286.7,401.1 287.2,401.5 287.6,402 287.8,402.5 287.7,402.8 287.7,403 287.9,403.2
			287.9,403.4 289.2,402.5 290,402.2 290.9,402.3 291.3,402.5 291.4,402.6 291.4,402.8 291.6,403.1 291.9,403.3 293,403.7
			293.5,403.8 294.1,403.6 294.6,403.1 294.8,402.7 294.9,402.3 294.7,402.2 293.6,402 293.4,402.1 293.1,402.3 293,401.4
			293.1,401.1 293.6,400.8 294.1,401.4 294.7,401.2 295.3,400.8 295.6,400.2 295.7,400 296.1,399.9 296.9,399.8 297.2,399.9
			297.5,400 297.7,400.1 297.8,400 298.1,399.6 298.1,399.5 298.1,399.3 298.1,399.1 298.3,399.1 298.5,399.1 298.5,399.3
			298.5,399.4 298.5,399.6 298.6,399.7 299.1,400.5 299.3,400.5 299,401.1 298.4,401.2 297.7,401.1 297.1,401.3 297,401.9
			297.6,402.4 298.4,402.7 299.2,402.8 299.9,402.6 300,402.1 299.8,400.6 299.9,400.2 300.7,398 300.8,397.9 300.9,397.3
			301.1,396.6 301.5,395.9 302,395.3 303.3,394.2 304.7,393.4 311,391.9 312.3,391.3 313.4,390.2 315.2,388.1 315.6,386.7
			316.1,386.2 317.1,385.4 320.6,381.9 321.8,381.2 326.8,380.1 327.2,379.9 327.9,379.8 329.4,379.9 329.9,379.7 331.1,379.3
			331.8,379.1 337.9,378.9 341.1,378.3 342,378 342.2,378 342.4,377.8 342.9,377.9 343.6,378.3 345.2,378.6 352.7,378.6
			353.4,378.5 355,377.8 355.8,377.6 356.6,377.6 357.9,378 358.6,378.1 359.2,378 363.7,376.3 366.9,374.2 376.1,372.2
			384.5,369.7 385.8,368.8 390.5,364.7 393.4,361.6 394.2,361.1 399.7,359.2 401.4,358.3 403.2,356.1 403.7,355.8 404.4,355.7
			406.3,355.1 406.8,354.8 410,355.6 411,356.1 411.3,355.8 411.8,356.2 412.6,356.6 413.2,357.2 413,358.1 417.2,356.8
			418.7,356.8 418.6,356.5 418.5,356.3 421.2,356.3 422.5,356.5 423.2,357.3 423.5,357 423.8,357 424.1,357 424.4,356.8 426,355.4
			426.6,355.2 430.9,355.3 431.1,355.3 431.4,355.3 431.6,355.2 432,354.9 432.2,354.8 432.9,354.4 435.1,351.7 436.4,351.1
			437,350.7 437.4,349.7 437.7,349.5 437.9,349.3 438,349.1 438,348.7 228.4,348.7 		"/>
		<polygon points="240.3,406.7 241,407.3 241.2,407.4 241.6,407.2 241.7,406.6 241.4,406.1 241,405.9 240.1,405.9 239.8,406
			239.5,406.2 239.6,406.6 239.9,406.8 		"/>
		<polygon points="218.3,356.5 218.3,356.1 218.1,355.5 217,354.3 216.8,354.5 216.2,354.7 215.4,355.2 214.6,355.9 214.3,356.4
			214.6,357.4 215.4,358.1 216.3,358.5 217,358.8 216.5,359.8 217.5,359.9 217.8,359.6 217.7,359 217.8,357.8 		"/>
		<polygon points="216.2,368.4 216.5,368.1 216.8,367.3 217.9,366.1 218,365.4 217.6,365.1 216.8,365.3 215.3,366.4 214.4,368
			214.1,368.8 214.2,369.4 		"/>
	</g>
	<path fill="none" stroke="#999999" stroke-width="0.25" stroke-linecap="round" stroke-linejoin="round" d="M590.3,424.1l-0.8-0.2
		l-0.6,0l-0.5,0.1l-0.4,0.2l-0.3,0.3l-0.2,0.3l2.1,0.6l1.2,0.1l0.5-0.6l-0.3-0.5L590.3,424.1z M597.9,425.7l-0.9,0l-0.7,0.4l0.6,0.3
		l0.8,0.2l0.8,0.1l0.7,0l-0.5-0.5L597.9,425.7z M565.1,423.8l-0.2-0.4l-0.5-0.1h-0.9l-4.3-0.3l-0.7-0.2l-0.6-0.3l-0.8-0.6l-0.6-0.3
		h-0.7l-1.5,0.2l-0.2,0.2l-0.1,0.1l-0.1,0.1l-0.2,0.1l0.8,0.8l0.4,0.3l0.4,0.2l0.3,0l0.9-0.1l0.2,0l0.1,0.2l0.4,0.6l0.2,0.1l0.4-0.1
		l0.8-0.2l0.5,0l0.4,0.2l0.8,0.6l2.6,0.5l0.8-0.1l0.4-0.1l0.8-0.3l0.1-0.1l-0.1-0.1l0-0.2L565.1,423.8z M642.5,409.9l-0.5-0.2
		l-0.7,0.1l-0.6,0.4l-2.2-1l-4.6-1.4l-0.3-0.2l-0.3-0.4l-0.7-0.3l-0.8-0.2l-0.7,0l-0.7-0.7l-0.1-0.2l-0.1-0.2l-0.3,0.1l-0.3,0.2
		l-0.2,0.1l-0.4-0.2l-0.4-0.3l-0.5-0.3l-0.6-0.1l-0.9,0.1l-1.1,0.3l-1.1,0.4l-0.9,0.6l-0.9,0.4l-3.2-0.3l-1,0.5l-0.7,0.7l-0.7,0.5
		l-1.1,0l-1.3-0.6l-2.8-2.2l-1.4-0.7l-0.3,0l-0.9,0.1l-0.2,0.1l-0.1,0.1l-3.4-0.6l-0.7,0.1l-0.3,0.3l-0.2,0.4l-0.2,0.4l-0.4,0.2
		l-0.9,0.2l-0.4,0l-0.6,0.3l-0.2,0.8l0,1.7l-0.1,0.4l-0.3,0.7l-0.1,0.3l-0.2,0.1l-0.9,0l-0.7,0.2l-0.9,0l-0.3,0.3l0.1,0.2l0.9,0.8
		l4.4,2.2l1.3,0.8l0.5,0.6l0.5,0.8l0.6,0.7l0.8,0.3l1.1,0.7l1.5,0.5l2.9,0.5l1.5,0.1l7.1-1.2l0.9,0.1l0.6,0.2h0.5l0.6-0.4l0.6-0.3
		l0.8-0.1l3.1,0.2l0.6-0.2l1-0.8l0.9-0.4l0.3-0.2l0.7-0.9l0.3-0.3l1.2-0.6l4.5-0.9l1.5-1.1l-0.1-0.7l0.1-0.3l0.4-0.1l0.8-0.1
		l1.5-0.4l0.8,0L642.5,409.9z M196.1,317.1l-0.4-0.3l-0.5,0.4l-0.3,0.3l0.1,0.3l0.6,0.8l0.2-0.3l0.3-0.1l-0.1-0.6V317.1z M205.9,293
		l-1-0.2l-0.1-0.1l-1.5-0.8l-0.2,0l-0.2,0.2l0.2,0.6l-0.1,0.6l0.3,0.1l0.8-0.1l2.3,0.3l0.3-0.3l0-0.3l-0.3-0.1L205.9,293z
		 M241,405.9l-0.8,0l-0.3,0.1l-0.3,0.2l0.1,0.5l0.2,0.1l0.4-0.1l0.6,0.7l0.2,0.1l0.4-0.2l0.1-0.5l-0.2-0.5L241,405.9z M217,354.3
		l-0.3,0.2l-0.6,0.2l-0.8,0.5l-0.7,0.7l-0.3,0.6l0.3,0.9l0.8,0.7l0.9,0.5l0.8,0.3l-0.5,1l1,0l0.2-0.2l-0.1-0.6l0-1.2l0.5-1.4v-0.4
		l-0.2-0.5L217,354.3z M216.8,365.3l-1.5,1.1l-0.9,1.6l-0.3,0.8l0.1,0.6l2-0.9l0.4-0.4l0.3-0.8l1.1-1.2l0.1-0.7l-0.4-0.4
		L216.8,365.3z M211.5,308.1l-0.2,0.1l0-0.1l0.2-0.2l0.1-0.3l-0.1-0.3l0.1-0.5l0.4-1.4V305l-0.3-0.1l-0.5,0.3l-0.5,0.1l-0.4-0.1
		l0.1-0.2l0.5-0.3l0.3-0.3l0.1-0.2l0-0.2l-0.2-0.1l0.1-0.2l0.9-0.6l-0.2-0.3l-0.3-0.1l-0.8,0.4l-0.2,0.3l-0.2,0.3l-0.3,0.3l-0.5,0.5
		l-0.4,0.6l-0.1,1.9L209,308l0,0.8l0.4,0.6l0.4,0.3l0.5,0l0.4-0.4l0.7-1.1L211.5,308.1z M589.5,258.9l0.8-0.4l-2.3-5.1l-2.3-5.1
		l-2.3-5.1l-2.3-5.1l-1.4-3.2l-0.4-0.5l-0.6-0.2l-1.4-0.1l-0.5-0.3l0.1,0l0.2,0l0.1,0l-1.1-2.7l-1.6-3.6l-1.5-3.6l-1.5-3.6l-1.6-3.6
		l-1.5-3.6l-1.6-3.7l-1.5-3.7l-1.6-3.6l-1.5-3.7l-1.5-3.6l-1.6-3.7l-1.6-3.7l-1.5-3.7l-1.5-3.7l-1.6-3.7l-1.5-3.7l-1.3-3l-5.7,0.8
		l-5.8,0.8l-5.8,0.8l-5.8,0.8l-5.8,0.8l-5.8,0.8l-5.8,0.8l-5.8,0.8L498,177l-5.8,0.8l-5.8,0.8l-5.8,0.8l-5.8,0.8l-5.8,0.8l-5.8,0.8
		l-5.8,0.8l-5.8,0.8l-4.7,0.7l-3.4,1.2l-1.6,0.8l-5.2,2.7l-6.2,3.2l-6.9,3.5l-6.2,3.2l-4.6,2.4l-0.8,0.6l-2.8,3.5l-3.3,4.1l-5.7,7.1
		l-5.4,6.7l-3.5,4.4l-0.6,1.2l-1.7,4.7l-2.4,6.6l-1.1,1.5l-4.1,2.4l-4.4,2.6l-1.1,0.4l-1.2,0.2l-5.3-0.2l-0.5-0.3l-3.1-4.2l-2.7-3.7
		l-2.3-3.3l-1.3-0.8l-8,1.1l-6,0.8l-8.8-0.9l-6.8-0.7l-9-0.9l-7.7-0.8l-1.6-0.5l-5.9-3.4l-2.1-0.4l-6.1,0l-5.4,0l-7.3-0.1l-0.8,0.2
		l-2.3,0.9l-1,0.1l-2.5-0.5l-2.2-0.1l-3.5,0.4l-2.8,0.6l-0.7,0l-1.5-0.4l-0.7-0.1l-0.5,0.4l-0.5,0.9l-0.5,0.7l-0.7,0.3l-0.9-0.1
		l-1.4-0.7l-0.6-0.1l-0.8,0.4l-0.6,0.6l-0.5,0.7l-0.6,0.6l-0.8,0.1l-0.4-0.1l-0.2-0.1l-0.1-0.2l-0.1-0.3l0.1-0.8v-0.4l-0.2-0.1
		l-0.8,0.3l-0.6,0l-1.4-0.1l-1.4,0.2h-0.7l-0.7-0.3l-1.5-1.2l-2.5-2.8l-1.5-0.9l-2.7-1.1l-0.6-0.2l-1.2,0l-0.7-0.2l-0.8,0.1
		l-0.8,0.3l-3.2,2l-3.1,2.7l-1.7,2.1l-0.1,0.2l2.1,0.7l0.7,0.5l0.4,0.8l-0.1,0.8l-0.8,0.4l-0.8,0.2l-1,0.4l-0.8,0.6l-0.2,0.7l0,0.9
		l-0.2,0.8l-0.8,1.5l-0.2,0.8l0.1,0.6l0.3,0.6l0.2,0.8l0,0.8l-0.2,0.7l-0.6,1.5l-0.2,0.9l0.1,0.6l0.8,1.5l0.4,1.4l0.4,0.3l1.3,0.4
		l0.4,0.3l0.3,0.4l0,0.5l-0.2,0.4l-0.3,0.2l-0.3,0.1l-0.3,0.2l-0.5,0.8l0.1,0.5l0.3,0.6l0.2,0.9l-0.2,0.7l-0.6,0.1l-1.5-0.4
		l-0.9-0.2l-0.5,0.2l-0.2,0.5l0,0.8l-0.2,0.7l-0.9,2.5l-0.5,0.6l-0.8,0.6l-1.6,0.9l-0.5,0.2l-1.4,0.3l-0.4,0.2l-0.1,0.5l0.1,0.6
		l0,0.6l-0.3,0.6l-0.9,0.6l-1.3,0.5l-1.7,0.6l0.1,0.1l0.3,0.4l0.1,0.2l0,0.2v0.2l0,0.1l0,0l0.2,0.8l0,0.3l0.1,2.8l1,5.3l0.1,1.7
		l-0.3,5.1l-0.2,0.8l-0.4,0.7l-0.7,0.6l-0.7,0.4l-0.6,0.5l-0.5,0.7l-0.2,1l0,0.6l0,0.4l-0.1,0.3l-0.3,0.4l-0.5,0.4l-0.4,0.3
		l-0.4,0.3l-0.3,0.6l0.8,0.3l0.1,0.6l-0.4,1.3l0.1,0.6l0.2,0.5l0.3,0.4l0.4,0.4l-0.4,0.5l-0.1,0.3l1.5,2l0.5,0.9l0.1,0.4l0.1,0.4
		l0,0.4l0,0.5l-0.1,0.4l0,0.4l0.1,0.5l0.6,1.1l0.3,1.3l0.1,2.9l-0.2,0.8l-0.5,0.6l0.1,0.1l0.1,0.1l0,0.2l0,0.3l-0.5-0.2l-0.1-0.2
		l0.1-0.7l-0.1-0.5l-0.2-0.3l-1.5-1.3l-0.6-0.3l-0.7-0.3l0.3-0.4l0.3-0.6l0.1-0.6l-0.2-0.5l-0.3,0.4l-0.9,1.8l0.1,0.5l0.4,0.6l0,0.4
		l-0.1,0.5l-0.2,0.4l-0.4,0.3l-0.6,0.1l-1.2-0.3l-0.4,0l0.2,0.5l0,0.8l0.7,0.6l0.8,0.3l0.4-0.1l0.2-0.8l0.5-0.3h0.7l0.8,0.2l0.8,0.3
		l0.8,0.4l0.7,0.5l1.2,1l1.3,0.6l0.5,0.6l0.2,0.7l-0.2,2l0.1,0.9l0.3,0.6l0.4,0.5l0.9,0.9l0.3,0.4l0.2,0.5l0.2,1.2l0.4,1.3l0,0.8
		l-0.2,1.2l0,0.5l-0.7-0.4l-0.6-0.7l-0.4-0.8l-0.3-0.7v-0.4l0.1-0.3l0.1-0.3l-0.2-0.3l-0.3-0.1l-0.1,0.4l0.1,0.8l0.4,1.3l1.7,2.2
		l0.4,1.3l0,0.4l0.3,1.3l0.2,0.2l0.2,0.2l0.1,0.2l0.1,0.1l0.3,0.1l0.2,0.2l0.2,0.5l0.1,0.1l0.1,0.1l0,0.2l-0.1,0.2l-0.3,0.4
		l-0.1,0.3l0.4,1.2l0.7,1.1l0.4,1.2l-0.5,1.5l0.2,0.4l0.1,0.5l0,1.1l-0.6-0.5l-0.4-1.7l-0.4-0.7l-0.4-0.3l-0.3-0.1l-0.2,0.2
		l-0.1,0.4l0.1,0.2l0.7,0.5l0.2,0.2l0.1,0.3l0.1,1.2l0.5,1.1l0.2,1.2l0.3,0.7l1.6,2.9l0.3,0.9l0.3,1.6l0.7,1.4l0.1,0.7l-0.7,4.8
		l0.2,1.6l0.4,0.5l1.8,1.2l2.8,2.5l0.2,0.3l0.4,3l0.1,0.4l1.2,2.3l0.2,1.3l-0.1,2.6l0.5,1.2l-0.4,0.2l-0.2,0.2l-0.1,0.3l-0.1,0.3
		l-0.7,1.1l-0.2,6.6l-0.3,1.3l-0.5,1.2l0.8,2.6l2.2,2.7l0.1,0.3l0.3,0.9l0.4,0.9l0,0.3l0.2,0.4l1.3,1.5l0.3,0.6l0.2,0.6l0.1,0.7
		l0.1,0.7l0.1,0.3l0.3,0.2l0.3,0.3l0.1,0.5l0.1,0.4l1.1,1l0.7,1.2l0.3,1.3l0,1.4l-0.7,2.9l0.2,0.4l0.8,0.1l0.8-0.1l0.5-0.3l2.2-2.2
		l0.5-0.2l0.3,0.1l0.4,0.2l0.6,0.4l0.3,0.1l1.3,0l0.7,0.3l1.4,0.8l0.5,0.2l0.8,0.1l0.8,0.2l0.7,0.2l0.6,0.3l1,0.7l0.6,0.3l0.7,0.1
		l0.5,0.3l0.6,1.3l0.7,0.5l0.5-0.1l1.1-0.5l0.9,0.3l0.6,0l1-0.3l2.1-1.2l1.2-0.5l0.9,0.1l0.4-0.3l0.2,0.3l0,0.5l-0.3,0.2l-0.5,0
		l-0.9-0.2l-0.5,0l0.4,0.5l0.7,0.3l0.8,0l1.4-0.7l0.7,0l0.7,0.1l0.8-0.1l2.4-1.1l1-0.3l0.9-0.3l0.2,0l0.1,0.5l0.3-0.2l0.3-0.5
		l0.1-0.2l2.1-2.2l1.9-1.6l1.1-0.5l1.4-0.3l1.5,0.1l1.5,0.5l0.5,0.4l0.4,0.5l0.2,0.5l-0.2,0.4l0.1,0.1l0.1,0.2l0,0.2l1.3-0.9
		l0.7-0.3l0.9,0.1l0.5,0.2l0.1,0.1v0.2l0.2,0.3l0.3,0.2l1,0.4l0.5,0.1l0.6-0.3l0.5-0.4l0.2-0.4l0.1-0.4l-0.2-0.1l-1.1-0.1l-0.2,0.1
		l-0.3,0.2l-0.2-0.9l0.1-0.3l0.5-0.3l0.5,0.5l0.7-0.1l0.6-0.5l0.2-0.6l0.2-0.2l0.4-0.1l0.8,0l0.2,0l0.3,0.2l0.2,0l0.1-0.1l0.3-0.4
		l0-0.1l0-0.2l0-0.2l0.2-0.1l0.2,0.1v0.1l-0.1,0.2l0.1,0.1l0.1,0.1l0.6,0.7l0.1,0l-0.3,0.6l-0.6,0.1l-0.7-0.1l-0.6,0.2l-0.1,0.6
		l0.6,0.5l0.8,0.3l0.8,0.1l0.7-0.2l0.1-0.5l-0.2-1.5l0.1-0.4l0.9-2.2l0.1-0.1l0.1-0.7l0.3-0.7l0.4-0.7l0.5-0.6l1.3-1.1l1.4-0.8
		l6.2-1.5l1.4-0.6l1.1-1l1.7-2.2l0.5-1.4l0.5-0.5l1-0.7l3.5-3.6l1.2-0.6l5-1.1l0.4-0.3l0.7-0.1l1.5,0.1l0.5-0.1l1.2-0.5l0.6-0.1
		l6.2-0.3l3.1-0.5l1-0.3l0.2-0.1l0.2-0.2l0.5,0.2l0.8,0.4l1.6,0.3l7.5,0l0.7-0.1l1.6-0.7l0.8-0.2l0.8,0l1.3,0.4l0.7,0.1l0.6-0.1
		l4.5-1.7l3.2-2.1l9.2-1.9l8.4-2.6l1.4-0.9l4.6-4.1l2.9-3.1l0.8-0.5l5.5-1.9l1.7-0.9l1.8-2.2l0.5-0.3l0.6-0.1l1.9-0.6l0.6-0.3
		l3.2,0.8l1,0.5l0.2-0.3l0.5,0.4l0.8,0.4l0.6,0.6l-0.2,0.9l4.2-1.2l1.5,0l-0.2-0.4l-0.1-0.1l2.8,0l1.3,0.2l0.7,0.8l0.3-0.3l0.3-0.1
		l0.3,0l0.4-0.1l1.6-1.4l0.6-0.2l4.2,0.1l0.3,0l0.2,0l0.2-0.1l0.4-0.3l0.2-0.1l0.7-0.4l2.2-2.7l1.4-0.6l0.6-0.4l0.4-1l0.3-0.2
		l0.3-0.2l0.1-0.2l0-0.8l0.1-0.3l0.2-0.3l0.6-0.3l0.7-0.1l0.5-0.3l0.2-0.9l0.3-0.2l1.5-0.6l0.4-0.3l0.1-0.2l0.1-0.4l0-0.4l-0.3-0.2
		l0.3-1.5l0.7-1.3l1.8-2.6l0.5-0.5l0.8-0.4l0.8-0.1l0.7,0.2l0.5,0.3l0.4,0.1l0.3-1.2l1.4-1l3-1.4l1.4-1l0.7-0.4l1.6-0.3l1.5-0.6
		l4.3-2.4l8-2l5.2-1.7l2.3-0.2l0.5-0.2l0.3,0l0.2,0.4l0.2,0.8l0.4,0l0.3-0.1l0.7-0.2l1.5-0.7l0.9-0.2l0.7,0.3l0.5,0l2.3-1.6l2.1-1.1
		l1.5-0.3l0.6-0.3l2.7-2.3l1-0.6l3.4-1.4l3.9-0.4l6.9-1.9l7.9-1.5l7.2-1.9l0.7-0.3l0.9-0.6l1-0.4l0.9,0.3l0.5-0.3l1.8-0.8l0.4,0
		l0.1-0.2l0.3-0.1l0.7,0l0.9-1l0.5-0.4l0.6-0.3l0.7-0.2l3.8-0.4l0.8-0.3l0-0.2l-0.3-0.4l-0.2-0.7l0.2-0.5l0.5-0.5l2.9-1.6l1.8-0.4
		l0.3-0.1l0.5-0.3l0.4,0.1l0.3,0.2l0.3,0.2l0.2,0.1l0.2,0.1l0.1-0.1l0-0.4l0,0h0.1l0.1-0.1l0-0.2l0-0.8l1.4-0.9l2.8-1.1l0.4-0.1
		l0.6-0.1l0.3-0.1l0.2-0.2l0.3-0.3l0.3-0.3l5.5-1.5l0.8-0.1l0.3-0.1l0.2-0.2l0.1-0.3l0-0.3l0-0.2l0.2-0.3l0-0.2l-0.1-0.2l-0.2-0.2
		l-0.3-0.2l-0.4-1.6l-0.2-1.6l0.3-2.6l0-0.6l-1.2-0.6l-0.6-0.6l0.4-1.5l-0.3-0.9l-0.5-0.8l-0.3-0.7l0.2-0.7l0.9-1l0.4-1.5l0.8-0.9
		l0.3-0.7l-0.1-0.1l-0.1-0.4l-0.1-0.4V277l0.2-0.5l0.3-0.4l1.2-1.4l0.6-1.3l0.5-0.7l0.9-1l3.7-3l4.1-2.8l2.4-1.1l5-1.3l0.5-0.2
		l1.3-0.8l0.7-0.3l1.5-0.3l1.2-0.7l0.9-0.3l0.4-0.3l0.7-0.7l0.4-0.2l0.4,0l0.4-0.1l0.4-0.4l1.3,0.3L589.5,258.9z"/>
</g>

</svg>
