<?xml version="1.0" encoding="utf-8"?>

<svg version="1.2" baseProfile="tiny" id="Layer_1" xmlns="http://www.w3.org/2000/svg" xmlns:xlink="http://www.w3.org/1999/xlink"
	 x="0px" y="0px" viewBox="0 0 372.4 326.9" xml:space="preserve">
<g id="South_Africa">
	<g>
		<polygon fill="#FBB116" points="35.6,280.8 35.3,280.6 35.1,280.4 35,280.1 34.8,279.8 34.6,279.7 34.3,279.8 33.7,280.1
			33.9,280.4 34.2,280.9 34.5,281.4 34.9,281.5 		"/>
		<polygon fill="#FBB116" points="108,116.9 106.2,117.5 105.5,117.5 102.5,116.8 101.6,116.2 100.6,115.8 99.4,116 98.8,116.3
			97.7,117.1 96.2,117.7 95.8,118.1 95.7,118.2 95.6,117.9 95.4,117.1 95.1,116.8 94.8,116.6 94.7,116.5 94.5,116.3 94.2,115.6
			94,114.7 93.9,113.7 93.8,113 94.3,111.2 94.4,110.7 94.3,110.3 93.9,109.8 93.8,109.5 93.7,108.8 93.8,108.1 94.1,106.7
			94.2,106.4 94.8,105.9 95.1,105.5 95.6,104.6 79.6,88.7 79.6,90 79.6,91.4 79.6,92.8 79.6,94.2 79.6,95.7 79.6,97.1 79.6,98.5
			79.6,99.9 79.6,101.3 79.6,102.7 79.6,104.1 79.6,105.5 79.6,106.9 79.6,108.3 79.6,109.8 79.6,111.2 79.6,111.2 131.4,162.6
			41.6,251.9 41.8,254 42.6,257.5 42.5,258.6 42,259.3 41.9,259.7 42.1,260.3 42.3,260.7 42.4,262.6 42.3,263.7 41.8,265.8
			41.4,266.8 40.9,267.8 38.2,270.6 37.4,271.2 36.5,271.4 35.6,271 34.4,270 34.1,269.6 34.3,269.4 34,269.3 33.4,269.5
			32.9,269.7 32.6,269.9 32.5,270.3 32.5,271.1 32.5,271.3 32.4,271.5 32.4,271.6 32.4,271.7 32.2,271.8 32.1,271.8 31.7,272.2
			31.6,272.2 31.6,272.3 31.4,272.3 31.3,272.3 31.2,272.3 31.1,272.6 31.2,272.7 31.4,272.7 31.9,273.4 32,273.8 31.9,274.1
			31.6,274.4 31.6,274.6 31.6,274.8 31.7,275.4 32,276.2 32.1,276.4 32,276.8 32,277.1 32.2,277.4 32.3,277.6 32.3,277.8 32.3,278
			32.5,278.3 32.7,278.6 33.2,278.2 33.4,278.1 33.7,278.1 33.6,277.9 33.4,277.5 34,277.4 34.7,277.4 35.2,277.7 35.6,278.2
			35.6,278.6 35.6,279.8 35.6,280 35.8,280.3 35.9,280.4 154.1,162.8 		"/>
		<polygon fill="#007C48" points="351.9,116.8 351.6,119 351.2,121.1 350.8,123.4 350.9,125.5 350.9,127.4 351.1,127.7 351.2,128
			351.3,128.3 351.4,128.6 351.4,128.9 349.4,128.9 347.2,128.9 343.9,128.8 341.4,128.8 339.9,128.5 337.5,127.7 335.8,127.1
			333,126.1 332.7,125.9 332.3,125.5 331.2,123.9 328.9,121.8 328.4,120.9 328.3,120.3 328.5,119.3 328.6,118.6 328.4,118.1
			328.2,117.8 327.5,117.1 327.2,116.6 327.1,116.2 228.3,116.2 200.9,89.4 197.4,89.8 196.5,89.6 195.5,89.3 194.6,89.1
			193.7,89.3 192.7,89.7 191.3,90.8 190.9,91 189.5,91.3 188.8,91.4 188.2,91.2 187.5,91.1 185.8,91.3 185,91.1 183.8,90.3
			181.1,89.3 180.6,89.3 180.2,89.5 179.6,89.7 178.4,89.5 177.5,88.8 175.9,86.9 174.9,86.3 173.7,86.3 171.3,87 170.9,87
			170.8,86.9 171,86.7 170.9,86.5 170.7,86.3 170.5,86.2 170.2,86.1 169,86.4 168.6,86.1 168.3,85.6 167.2,84.9 166.4,83.8
			166.2,83.6 165.7,83.5 165.5,83.4 165.3,83.1 165.1,82.6 164.9,82.4 163.6,82 163.4,81.7 163.2,81.5 160.8,79.6 160.2,79.3
			159.6,79 159.3,78.8 159,78.5 158.7,77.9 158.5,77.7 158.1,77.6 157.9,77.7 157.1,78 156.7,78 156.4,77.9 155.3,77.5 154.1,77.3
			153,77.4 151.9,77.7 150.2,78.5 150,78.7 149.7,78.8 149.5,78.7 149.4,78.4 149.3,78.2 148.8,78.2 148.2,78.5 147.3,79.3
			147.2,79.6 147.2,79.8 147.1,80 146.8,80.1 146.5,80.3 146.3,80.4 146.1,80.7 145.9,81 145.5,81.9 145.3,82.2 144.7,82.5
			144.5,82.7 144.1,84.2 143.9,84.6 143.8,84.8 143.8,85 144,85.3 144.2,85.6 144.3,85.8 144.1,86.1 143.8,86.3 143.7,86.5
			143.8,86.7 143.9,87 143.8,87.3 143.8,87.6 143.6,87.9 142.6,89 142.3,89.6 142.2,90.1 142.2,90.5 142.3,90.5 142.4,90.6
			142.6,90.8 142.7,91.2 142.7,91.3 142.5,91.8 142.2,92.1 141.7,92.5 141.5,93 141.7,93.4 141.9,93.7 141.9,94.3 141.8,94.9
			141.7,95.3 141.5,95.6 141.3,95.8 140.6,96 140.4,96.2 140.4,96.4 140.5,96.7 140.5,97 139.5,98.4 139.2,98.7 138.8,99
			138.5,99.4 138.2,100.2 137.7,100.9 137.4,101.1 136.3,100.8 135.6,101 135.1,101.4 134.3,102.5 133.2,103.7 132.6,104
			132.3,104.1 131.2,104.3 131,104.4 130.8,104.9 129.9,105.8 129.4,106.8 128.7,108.8 127.8,110.1 126.7,111.2 125.4,112.1
			123.9,112.4 121.7,112.4 121,112.5 120.4,112.8 120.1,113 120.1,113.4 120.3,114.5 120.3,115 120.2,115.5 120,115.9 119.6,116.3
			118.3,117.2 117.8,117.4 117.3,117.4 116,117.1 114,117 112.9,116.5 112.4,116.4 111.4,116.4 109.4,117 109.1,117 108.5,116.9
			108.2,116.9 108,116.9 154.1,162.8 35.9,280.4 36.3,280.8 36.4,280.9 36.7,280.9 36.8,281 36.9,281.1 36.9,281.6 37,281.8
			37.5,282.3 37.6,282.6 37.2,282.8 37,282.7 36.7,282.4 36.2,281.8 35.6,281.3 35.5,281.1 35.6,280.8 34.9,281.5 35,281.5
			35.4,281.8 36.4,282.8 36.6,283.1 36.7,283.4 37.2,284.1 37.5,284.9 38.1,285.9 38.2,286.5 38,286.9 40.5,288.6 41.1,289.3
			41.7,290.2 41.8,290.7 41.9,291.3 41.9,292.4 42,292.6 42.1,292.8 42.5,293 43.6,294.3 43.8,294.4 43.9,294.9 44.5,296.1
			45.1,298.5 45.2,299.1 45.3,299.4 45.7,300.1 45.8,300.6 45.5,301.7 44.8,301.8 43.9,301.7 43.1,302.3 42.9,302.9 42.7,303.9
			42.4,304.4 42,304.8 41.8,305.2 41.9,305.6 42.2,306.1 42.4,306 42.5,305.9 42.8,305.9 42.7,306.2 42.6,306.4 42.5,306.7
			42.5,307.1 42.4,307.5 42.3,307.6 42.1,307.7 41.9,307.9 41.8,308.3 41.9,308.7 42.1,308.9 42.7,309.2 42.9,309.4 43.1,310.2
			43.2,310.2 43.3,310.3 43.4,310.3 43.5,310.4 43.4,310.7 43.3,311 43.3,311.2 43.4,311.5 43.9,312.6 44.3,313.1 44.8,313.6
			45.4,313.8 45.8,313.7 45.4,313.4 45.3,312.9 45.5,311.1 45.5,310.8 45.5,310.5 45.2,309.4 45,309.2 44.9,309.1 44.7,309
			44.7,308.7 44.7,308.3 44.8,308.1 45.2,307.8 45.4,307.5 45.6,307.3 45.9,307 46.8,306.7 47,306.5 47.3,306.4 49.4,306.3
			51.5,306.5 52.8,306.8 53.2,307 54.2,308.5 53.9,308.9 53.6,309.2 53.4,309.4 53.4,310 53.7,310.9 53.7,311.3 53.6,311.8
			53.4,312.1 53.3,312.2 53.2,312.3 53.1,312.6 53.1,312.8 53.2,313.7 53.1,314.1 53,314.3 53.2,314.7 53.5,314.8 53.7,314.9
			53.9,314.8 54,314.6 54.5,314.2 56.7,313.9 57.4,313.6 57.7,313.6 59.4,313.7 59.6,313.5 60.2,312.6 60.6,312.4 60.3,313
			60.2,313.6 59.9,314 59.3,314.1 59.3,314.3 59.7,314.5 60.1,315.3 60.4,315.6 60.7,315.7 62.1,315.8 63.7,315.5 64,315.5
			64.3,315.8 64.7,316.3 65.2,317.2 65.5,318 65.7,318.8 65.5,319.1 64.2,320.9 64.1,321.3 64.3,321.1 64.5,321.1 64.7,321.1
			64.9,321.3 65.3,320.9 65.9,320.7 66.4,320.8 66.8,321.2 67.2,321.6 67.6,321.9 68.7,322.5 70.4,324.3 71.6,325 71.7,325.1
			71.8,325.3 71.9,325.5 72.2,325.6 72.5,325.4 72.9,325.1 73.2,325 76.8,324.9 77.2,325.1 77.6,325.4 79,326.5 79.3,326.7
			79.7,326.8 80,326.9 80.4,326.8 81,326.4 81.4,326.3 81.4,326.1 81.1,325.4 81.7,324.5 83.4,323.3 84.3,322.9 84.9,322.7
			85.1,322.8 85.2,322.4 85.6,321.9 86,321.5 86.3,321.3 87.1,321 87.3,320.9 87.5,320.6 87.6,320.4 87.8,320.2 88.1,320.1
			88.5,319.9 89,319.5 90.2,317.8 91,317.2 91.9,316.8 95.1,316.3 99.1,317.1 99.5,316.9 99.7,316.3 99.5,315.8 98.9,315.3
			98.3,315.2 98.7,315 100,314.7 99.9,314.7 100.8,314.2 101.9,314.1 104.1,314.3 105,314.5 108.7,315.9 109.7,316 110.6,315.8
			112.1,315.2 112.3,315 112.4,314.9 112.5,314.7 112.7,314.5 113.5,314.4 114.4,314 114.9,313.9 115.4,314 116.3,314.5 118.7,315
			119.6,315 120.2,314.9 123.6,311.5 123.6,311.5 123.6,311.1 124.2,310.5 125,310.1 125,310.1 228.3,209.4 251.8,209.4 251.5,209
			250.9,208.4 250.8,207.9 249.9,207.5 249.6,207.2 249.3,206.8 249.2,206.2 249,206 248.6,206 248.2,206.2 248,206.2 247.8,206.2
			247.3,206.1 247.1,206 247.1,205.6 246.6,204.2 246.5,203.5 247,202.2 247.4,201.9 247.4,201.6 247.2,201.4 246.8,201.4
			246.3,201.4 246.1,201.4 245.8,201.3 245.6,200.9 245.4,200.5 245.1,199.3 244.8,198.8 243.7,197.9 243.3,197.3 240.8,191.4
			240.6,191 239.9,190 239.6,189.8 239.3,189.6 239,189.3 238.8,189.2 239.1,188.6 239.1,188.2 239.3,187.9 239.5,187.9
			239.7,188.2 239.9,188 240,187.6 240.2,187.5 240.4,187.5 240.5,187.6 240.5,187.8 240.7,187.9 240.8,187.8 241.5,187
			241.7,186.9 242.3,186.7 243,186.6 243.2,186.5 243.6,186.3 244.2,186.2 244.7,186 245.5,185.6 245.6,185.4 245.8,185.1
			245.9,184.9 245.9,184.6 246,184.5 246.6,184.5 246.7,184.4 246.8,183.9 247,183.5 248,182.5 248.1,182.4 248.2,182.2
			248.3,181.9 248.2,181.7 248.1,181.5 248,181.4 248,181.2 248.2,181 248.4,181 248.6,180.9 248.9,180.6 248.9,180.3 249,179.7
			249,179.5 249.4,179.3 250.5,178.9 250.7,178.7 250.7,178.4 250.6,177.8 250.6,177.6 250.7,177.3 251,177.2 251.2,177.1
			251.4,177 252.7,175.4 253.2,174.5 253.1,173.9 253.2,173.7 253.4,173.9 253.5,173.8 253.7,173.7 253.8,173.7 253.6,173.4
			253.4,173.1 253.2,172.9 253.6,172.8 253.9,172.7 254.2,172.4 254.6,171.7 254.7,171.7 254.8,171.7 254.9,171.8 254.9,171.6
			254.9,171.5 255,171.4 255,171.3 255.1,171.2 255.1,170.9 255.1,170.6 255.3,170.4 255.6,170.3 255.9,170.1 255.7,169.6
			258.3,169.8 258.9,169.5 259.1,169.1 259.2,168.7 259.4,168.4 259.8,168.2 260.2,168.3 260.5,168.5 260.7,168.8 260.9,168.9
			261.5,168.9 261.7,168.9 261.8,168.7 261.8,168.5 261.9,168.3 262.7,167.2 263.7,166.1 263.8,165.9 264.4,165 264.7,164.6
			264.9,164.3 265.1,164.4 266.7,164.2 267.1,164.4 267.6,164.5 268.2,164.4 268.6,164.3 269.1,163.9 269.7,162.8 270.1,162.4
			270.6,162.2 273.7,162 274.2,161.9 275.5,161 275.8,160.9 276.2,161.3 276.5,161.6 276.7,162 276.9,162.6 277.1,163.6 277.3,164
			278.3,164 278.6,164.3 279.3,165.5 279.5,165.7 280.2,165.8 280.6,165.9 280.9,166.1 281.2,166.4 281.5,166.8 282.4,168.4
			283.7,169.6 284,169.6 284.5,169.8 285,170 285.2,170.3 285.2,170.8 285.4,171.1 285.7,171.3 286.2,171.4 287,171.8 288.8,173.8
			289.6,174 290.5,174 291.2,174.3 291.3,175.8 291.5,176.1 291.9,176.4 292.2,176.7 292.4,177.2 292.6,178.1 293.3,178.9
			293.5,179.5 293.5,179.6 293.5,180 293.5,180.2 293.6,180.4 293.9,180.7 294,180.8 293.9,181.2 293.5,181.8 293.4,182.2
			293.5,182.6 293.3,182.9 293.2,183.1 292.9,183.3 292.3,183.6 291.6,183.8 291,184.1 290.5,184.5 290.3,185.1 290.3,185.7
			290.5,186.4 290.8,186.8 290.5,187 290.4,187.4 290.4,187.9 290.2,188.2 288.4,188.7 287.8,189.2 287.4,189.9 287.1,190.6
			286.7,191.4 286.7,192.1 286.5,192.7 286.5,193.4 286.8,193.8 287.1,194.1 287.2,194.2 287.2,194.5 287.2,194.8 287.5,195.3
			287.5,195.6 287.4,195.8 287.1,195.9 286.5,196.1 286.2,196.2 283.6,197.9 280.9,199.6 279.5,200.2 278,200.6 275.9,201.3
			275.2,201.3 274.1,200.9 273.7,200.9 273.3,200.9 272.3,201.5 271.8,201.7 270.7,201.6 270.1,201.7 269.7,202.1 269.1,203.2
			268.7,203.5 268.5,203.7 268.3,204.1 268.1,204.2 267.9,204.3 267.2,204.4 266.8,204.6 266.3,204.9 266,205.3 265.9,205.8
			266.2,206.1 266.5,206.3 266.8,206.5 266.8,207.1 266.7,207.7 266.4,208 264.6,209.4 321.6,209.4 324.6,204.1 325.9,201.1
			327,199.2 327.7,198.4 330,196.2 330.6,195.5 330.8,195.2 330.9,195 330.9,194.8 330.9,194.6 330.6,194.9 329.8,195.2
			329.5,195.4 329.6,194.7 329.8,194.5 330.7,194.5 330.5,193.5 330.7,192.4 333.7,186.5 336.7,182.4 336.9,181.9 337,181.7
			337.2,181.5 337.5,181.4 337.6,180.8 337.7,180.6 338,180.3 338.8,179.8 339.1,179.5 340,178.3 340.3,178.1 340.4,178
			340.5,177.6 340.5,177.4 340.7,177.3 341,177.1 342.1,176.2 346.5,171.1 347.2,170.7 347.2,170.5 347.1,170.5 347,170.4
			346.9,170.2 346.9,170 347.9,170.2 348.8,170.2 349.6,170 352.4,168.5 353.3,167.8 353.7,167 353.3,167 353,167.2 352.7,167.5
			352.5,167.7 352,167 352.5,166.4 353.4,166.3 354,166.8 356.5,164.7 356.8,164.3 357.2,163.6 357.5,163.3 357.8,163.1
			358.5,162.7 358.8,162.5 360.7,160.5 361,160 361.2,159.2 361.6,158.3 361.8,157.3 361.7,156.4 361.5,156.5 361.4,156.6
			361.3,156.5 361.2,156.3 361.7,156.1 362.1,155.7 362.4,155.2 362.4,154.6 362.6,154.2 364.5,151.2 364.6,150.7 365.7,144.3
			365.7,144.1 365.5,143.6 365.5,143.3 365.6,143 365.8,142.4 365.9,142.1 365.9,141.6 367.5,134.1 369.8,127.4 369.9,126.7
			370.2,126.3 370.2,126.1 370.3,125.4 370.4,125.2 371.2,124 371.3,123.5 371.3,122.9 371.8,121.3 372.1,118 372.4,117
			368.9,117.1 365.7,117.2 362.8,117.3 360.1,117.4 358.8,117.1 357.2,116.9 356.5,116.9 355.4,117 354.7,116.8 354.3,116.7
			353.8,116.2 351.9,116.2 		"/>
		<polygon fill="#007C48" points="95.8,104.3 97.1,102.6 97.6,101.7 98.1,100.8 99,99.4 99.1,99 98.3,97.5 98.2,97 98.2,95.2 98,93
			97.4,91.5 97.4,91.4 97.2,91.2 97,91.1 96.8,91.3 96.5,91.4 96.5,91.1 96.8,90.7 96.3,89 96.1,88.5 95.8,88.4 95.3,88.1
			95.1,87.8 95.1,87.5 95.3,87 95.2,86.7 95.1,86.6 94.8,86.5 94.6,86.4 94.5,86.2 94.6,86 95.1,85.7 95.3,85.5 95.1,84.8
			94.1,83.9 94.1,83.2 94.3,82.8 94.9,82.4 94.6,82.1 94.4,82.1 94.2,82.2 94,82.3 93.8,82.2 93.8,82 93.9,81.7 93.9,81.4
			93.6,81.5 93.5,81 93.4,80.8 92.7,80.5 92.3,80.2 92.2,80 92,79.2 92,79 91.7,78.7 91.6,78.5 91.6,78.3 91.7,78.2 91.8,78
			91.7,77.8 91.6,77.6 91.2,77.4 91.1,77.3 91,77.1 91,76.5 90.5,76.3 90.1,76 89.9,75.7 90.1,75.3 90.1,74.9 89.9,74.4 89.3,73.4
			88.6,71.9 88.3,71.5 85.4,69.1 83.7,68.1 83.4,68 83,68 82.7,67.9 82.5,67.7 81.9,67 80.7,66.1 80.3,65.4 79.9,65.1 79.7,65
			79.6,64.6 79.6,64.9 79.6,66.3 79.6,67.7 79.6,69 79.6,70.4 79.6,71.8 79.6,73.2 79.6,74.6 79.6,76 79.6,77.4 79.6,78.8
			79.6,80.2 79.6,81.6 79.6,83 79.6,84.4 79.6,85.8 79.6,87.2 79.6,88.6 79.6,88.7 95.6,104.6 		"/>
		<polygon fill="#EC2227" points="351.7,84 351.4,83.4 351.4,82.7 351.4,81.8 351.5,81.2 351.9,80 351.8,74.6 351.8,70.6
			351.8,67.6 351.8,63.5 351.8,60 351.9,58.3 351.8,56.4 351.2,54.5 349.2,50 349,48.9 348.9,44.6 348.7,44.2 348.5,43.9 347,42.8
			346.6,42.4 346.3,41.9 345.3,39.7 344.5,36.7 344,35.8 341.8,33.4 341.4,32.6 341.3,31.5 341.7,25.9 341.6,25.2 340.1,20.3
			339.1,17.4 338,13.8 336.8,10.2 335.8,7.1 336,6.6 335.5,5.8 335.2,5.7 335,5.6 334.7,5.8 334.5,5.8 334.3,5.8 333.9,5.5
			333.8,5.5 333.6,5.4 333.2,4.8 332.9,4.6 332.6,4.7 331.8,5.1 331.4,5.1 331,5.1 330.3,4.7 327.8,4.1 326.4,4 325.8,3.8 325,4.1
			322.5,4.3 322.1,4.4 321.5,4.9 321.1,5 321,4.9 320.6,4.7 320.4,4.6 319.7,4.7 318.3,4.5 317.9,4.5 317.4,4.6 316.6,5 316.1,5.1
			315.2,5.3 314.4,5.3 313.6,5.1 312.9,4.6 312.6,4.4 312.2,4.2 311.8,4 311.2,4 310.2,4.1 309.8,4.1 309.3,3.8 308.6,3.3
			308.3,3.2 307.6,3.1 307.6,3 307.6,2.9 307.1,2.5 306.9,2.4 306.4,2.2 306.2,2.2 305.6,1.8 305.2,1.7 304.4,1.6 303.9,1.3
			303.1,1.1 301.8,0.3 301.3,0.1 299.8,0.2 299.5,0.3 299.1,0 298.6,0.1 297.8,0.5 297,0.4 296.6,0.5 296.4,0.9 296.2,1.1
			295.6,1.1 294.5,0.8 294,0.9 293.2,1.4 292.7,1.6 292.3,1.6 292.2,1.6 292,1.5 291.6,1.6 291,1.6 289.7,1.3 289.1,1.4 288.7,1.7
			288.3,2 287.9,2.2 285.2,2.3 285,2.4 284.5,3 284.5,3.1 284.2,3.4 283.7,3.8 283.2,4.5 283.4,6.2 283.3,6.5 283,6.7 282.5,7.7
			282.1,8 281.1,7.9 280.6,7.9 280.4,8.2 280.3,8.7 279.9,8.9 279.5,9.1 279,9.2 278,9.5 276.4,10.4 275.6,10.7 275,10.7
			274.5,10.6 274.1,10.7 273.6,11.1 273.3,11.2 271.8,10.8 270,10.9 269.1,11.2 268.3,11.7 267.9,12 267.1,12.9 266.9,13
			266.3,13.1 266.1,13.2 265.9,13.3 265.2,14.2 265.1,14.4 265,14.8 265.1,15.1 265.1,15.3 265.1,15.4 264.9,15.8 264.7,16
			264.5,16 264.3,16.1 264.1,16.2 264,16.3 263.9,16.7 263.8,16.9 263.4,17 262.9,17.2 262.5,17.4 262.5,17.6 262.7,18.1
			262.6,18.7 262.3,19.2 261.9,19.5 261.6,19.7 261.2,20 260.7,20.1 260.3,20.2 260,20.5 260,21 260.2,22.1 259.8,22.7 259.1,23.3
			258.1,23.7 257.3,23.9 257.4,24.4 257,24.5 256.6,24.5 256.3,24.4 256.3,24.6 256.3,24.8 256.4,25 256.5,25.1 256.5,25.2
			256.6,25.3 256.7,25.4 256.5,25.4 256.5,25.4 256.3,25.6 256.3,25.6 256,26.5 255.8,26.8 255.5,26.9 255.2,26.8 254.6,26.1
			253.7,26.8 253.4,26.9 253.1,26.8 252.8,26.7 252.5,26.7 252.3,27.3 251.9,27.8 251.8,28.2 251.8,28.3 251.7,28.5 251.7,28.6
			251.6,28.6 251.5,28.7 251.6,28.8 251.6,29 251.7,29.2 251.5,29.8 251.2,30.2 250.7,30.5 250.3,30.6 249.3,30.7 249,30.8
			248.8,31 248.6,31.3 248.4,31.5 248.1,31.3 248.2,30.9 248.1,30.9 247.7,31 247.5,31.1 247.4,31.3 247.2,31.6 246.9,31.7
			246.7,30.9 246.4,31.2 245.8,32.1 245.5,32.4 245.1,32.7 244.2,33.2 243.3,33.4 243.1,33.7 243.4,34.2 243.2,34.3 243,34.3
			242.8,34.2 242.6,34 242.6,34.1 242.4,34.3 242.3,34.5 242.1,34.3 241.9,34.2 241.6,34.2 241.5,34.4 241.6,34.7 241.8,34.9
			242,35 241.9,35.3 241.6,35.2 241.3,35.2 241.1,35.4 240.9,35.7 241.1,35.7 240.7,36 240.5,36.1 240.5,36.3 240.3,36.3
			240.1,36.2 240.2,36.7 240.3,37.1 240.3,37.5 240,37.7 239.6,37.7 239.4,37.4 239.3,37.1 239.1,37 238.9,37.2 238.5,38.2 238,39
			237.9,39.5 238,39.9 237.4,41.1 237.5,41.6 237.4,42.2 235.8,48.8 235.8,49.9 235.3,52.1 235.1,52.5 234.7,52.8 234.3,53.1
			232.3,53.7 231.8,54 231.6,54.4 230.2,55.8 228.7,56.8 228.1,57.3 227.6,58 226.9,59.8 226.7,60.1 225.3,61.6 224.7,61.5
			224.3,61.5 223.9,61.4 223.5,61.3 222.4,61.5 216.4,63.4 215.7,63.9 215.3,64.1 214.2,64 213.4,64.3 213.2,64.3 213.1,64.4
			213.1,65.1 213.3,66.9 213.3,67.9 213,68.7 212.4,70.2 212.3,71.1 211.7,72.3 211.2,74 209.2,78.4 209.1,78.9 235,104.9
			325.6,105 327.1,103 328.8,100.9 330.3,98.2 331.5,95.3 331.9,94 332.2,93.4 334.2,91.6 336.5,89.6 337.1,89.3 337.9,89.1
			338.6,89.1 339.1,89.3 341.5,90.8 343.9,92.4 346,93.7 348.4,95.2 349,95.4 349.7,95.3 351,94.6 350.1,91.8 350,91 350.1,90.3
			351.1,87.8 351.3,87.5 351.6,87.2 351.8,87.1 351.9,86.9 352,86.6 352,86.1 351.8,84.5 		"/>
		<polygon fill="#2A358C" points="235.4,219.7 148.9,305.5 149.2,305.5 149.2,305.7 149.4,306.4 149.5,306.6 157.3,307.4
			157.3,307.2 156.8,307.1 156.4,306.7 156.3,306.2 156.5,305.6 156.8,305.2 157.3,304.9 157.8,304.7 161.4,303.9 162.5,303.8
			166.5,304.8 168.9,305 169.9,305.4 170.4,305.5 174.4,305.9 175.9,306.5 176.2,306.7 176.6,306.9 179.4,307.3 179.8,307.4
			180.6,308.2 181.6,308.7 183.6,309.2 184,309.2 185.4,309 185.9,309 187.2,309.4 188.7,309.4 189.2,309.6 189.5,310 189.7,310
			189.8,309.8 190.2,309.5 190.3,309.2 190.2,309 190,308.9 189.8,308.7 189.7,308.4 189.8,308 190.9,307 191.1,306.8 191.5,306.3
			191.8,305.8 191.5,304.7 191.8,304.3 192.4,304 193.7,303.6 195.7,303.3 197.8,303.3 199.7,303.9 200.5,304.2 201.3,304.8
			202.1,304.9 202.7,305.3 203.3,305.3 204.4,305.1 205.1,305.2 206.3,305.6 207,305.7 207.6,305.5 208,305.3 208.5,305.1
			209.2,305.3 209.3,305.2 209.4,305.1 209.4,304.9 209.2,304.7 208.8,304 208.1,303.5 208,303.4 207.9,303.1 207.5,302.9
			207.4,302.6 207.4,302 207.8,300.4 208.2,299.6 208.8,298.8 209.5,298.2 211.2,297.4 213.1,296.8 215.1,296.5 218.2,296.7
			221.2,297.3 222.1,297.8 222.6,298 223,298 223.4,297.8 224,297.7 225.9,298 226.9,298 227.8,297.7 229.9,296.6 230.4,296.6
			230.6,296.4 230.7,295.9 230.9,295.8 231.2,295.8 233.4,294.8 234.1,294.4 235.2,294.3 235.7,294.1 236.9,293 237.4,292.9
			238,292.8 238.4,292.7 240.4,291.6 240.9,291.6 241.1,291.5 241.2,291.3 241.4,291.1 241.4,290.9 241.5,290.7 241.7,290.5
			242,290.2 243.7,289.4 243.9,289.1 246.4,287.5 246.4,287.2 246.5,287.1 246.6,287.1 246.7,287.2 246.7,287.3 246.8,287.3
			247.4,286.9 248.6,286 249.2,285.4 249.3,284.7 249.6,284.8 249.8,284.8 249.9,284.8 250.1,284.7 250.6,283.9 250.7,283.9
			251,283.6 252.6,283 253.4,282.4 255.4,280.2 255.8,280 256.9,279.6 257.3,279.5 257.6,279.4 258,278.9 259.1,278.4 259.2,278.3
			259.2,278.1 259.2,278 259.3,277.9 259.6,277.7 259.9,277.2 260.1,277 260.8,276.8 263.1,274.8 263.6,274.3 263.8,273.7
			264,272.9 264.4,272.2 265,271.6 266.2,271.3 266.9,270.9 268,270.1 269.1,269.5 269.6,269.1 269.7,268.7 270,268.5 270.8,267.9
			271.4,267.5 273.9,265.6 274,265.2 274.2,264.7 274.6,264.2 275.4,263.3 275.6,263.2 276,263 276.2,262.8 276.7,262 279.8,259.2
			280,259 281.2,258.2 283.5,255 286.3,252 286.9,251 287.2,250.5 287.2,250.1 287.5,249.7 289,249.1 289,249 289.1,248.6
			289.1,248.5 289.2,248.5 289.4,248.3 289.8,247.6 289.9,247.4 290,246.9 290.4,246.4 291.1,245.6 291.9,245.1 292.1,244.7
			292.2,244.1 292.3,243.9 293,243.5 293.4,242.5 293.4,242.4 293.3,242.3 293.3,242.2 293.4,242 293.5,242 293.8,242 293.9,242
			294.2,241.9 294.4,241.9 294.6,241.9 295.2,241.4 296,241.1 296.4,240.9 297.1,240.1 297.5,239.8 298,239.6 298.2,239.6
			298.3,239.4 298.5,239.2 298.7,238.7 298.9,238.6 299.4,238.3 300.8,236.6 300.9,236.2 301.4,235.8 301.9,235.6 303.3,235.2
			303.7,234.9 307,231.8 308.2,230.4 308.9,228.8 309.6,228.3 313.3,223.3 314,221.8 314.4,221.5 314.7,221.4 315,221 315.7,220.1
			315.9,219.7 		"/>
		<polygon fill="#2A358C" points="148.4,306.5 148.7,306.6 148.8,306.7 149,306.5 149,306.3 148.7,306 148.5,305.8 147.9,306.4
			"/>
		<polygon fill="#231F20" points="79.6,111.3 79.6,112.6 79.6,114 79.6,115.4 79.6,116.8 79.6,118.2 79.6,119.7 79.6,121.1
			79.6,122.5 79.6,123.9 79.6,125.3 79.7,126.8 79.7,128.2 79.7,129.6 79.7,131 79.7,132.5 79.7,133.9 79.7,135.3 79.7,136.7
			79.7,138.2 79.7,139.6 79.7,141 79.7,142.5 79.7,143.9 79.7,145.3 79.7,146.8 79.7,148.2 79.7,149.6 79.7,151 79.7,152.5
			79.7,153.9 79.7,155.4 79.7,156.4 79.6,157.1 78.9,157.3 78.7,157.3 77.9,157.2 77.7,157.3 77.1,157.6 76.1,158.5 75.4,158.7
			74.3,158.8 73.8,159 73.4,159.3 73,159.5 70.7,159.7 70.5,159.8 70.3,159.9 70.1,160.1 70,160.3 69.8,160.6 69.7,160.8
			69.5,161.2 69.3,161.3 69.1,161.4 69,161.6 68.3,163.7 68.1,164.1 67.7,164.4 67.2,164.6 65.4,165.1 65.1,165.2 64.8,165.2
			64.3,164.7 63.9,164.8 63.7,165 63.4,165.4 63,166.1 62.9,166.6 63.1,167.2 63.9,168.7 63.9,169 63.6,169.1 62.9,169.2
			62.8,169.3 62.5,169.7 62.3,169.9 61,170.6 60.1,170.9 59.2,170.9 58.8,170.4 58.7,170.3 58.5,170.2 57.7,170.1 57.5,170.1
			57.3,169.8 56.7,168.9 56.3,168.5 51.6,167.9 47.3,168.5 46.4,169 45.9,169.1 45.8,169.1 45.6,168.8 45.5,168.7 45.3,168.8
			45.1,168.9 45,168.9 44.6,169 44.3,169.1 44.1,169.2 43.7,169.4 43.2,169.3 42.2,168.9 41.7,168.9 39.7,169.2 38.9,169.5
			38.5,169.5 36.6,168.8 35.7,168.3 34.3,167.2 33.5,166.7 32.7,166.4 28.9,165.5 28.2,165.6 28,165.7 27.5,166 27.3,166.1
			27,166.1 26.3,165.9 25.8,165.7 25.7,165.2 25.7,164.5 25.6,164 25.2,163.8 24.9,163.8 24.4,164 24,164.2 23,164.3 22,164.5
			21.2,164.4 21.1,163.6 21.4,162.5 21.6,161.5 21.3,161 20.5,160.6 20.3,160.2 20.2,159.6 19.6,158.8 19.4,158.4 19.5,158
			19.8,157.7 20.1,157.4 20.5,157.3 20.9,157 21.1,156.4 21.1,155.7 21.1,155.2 21,154.9 20.6,154.4 20.5,154.1 20.4,153.8
			20.3,153.6 20.3,153.3 20.1,153 20,152.7 20,152.4 19.9,152.1 19.6,152 19,152 17.6,152.4 16.9,152.3 16.4,151.7 16.3,150.5
			16.3,149.9 16.3,149.3 16.1,148.9 15.6,148.7 15.1,148.5 14.8,148 14.6,147.5 14.2,147.1 14,147 13.8,147 13.3,147.1 13,147.2
			12.3,147.8 11.7,147.7 11.4,147.7 11.1,148.1 10.8,148.2 10.6,148.1 10.4,147.9 10.2,147.8 10.1,147.9 9.7,148.4 9.6,148.4
			9.4,150.5 9.3,150.7 9.2,150.7 9,150.6 8.7,150.6 8.6,150.5 8.5,150.5 8.3,150.6 8.3,150.8 8.4,150.9 8.8,151.4 8.8,151.6
			8.4,151.7 7.9,151.7 7.8,151.8 7.7,152 7.8,152.2 8,152.5 8.1,152.8 8,153.1 7.8,153.2 7.6,153.2 7.4,153 7.2,152.9 6.8,153.1
			6.7,153.6 6.8,154.1 6.9,154.5 7.4,155.2 7.6,155.7 7.3,155.9 7,156.1 6.9,156.6 6.9,157.2 6.8,157.7 6.5,158.1 6.1,158.6
			5.7,159 5.3,159 5.2,158.7 5.1,158.4 5,158.1 4.8,158 4.6,158.1 2.9,159.8 2,160.1 1.4,160.4 0.8,160.8 0.4,161 0.4,161.3
			0.4,161.7 0.2,162 0,162.2 0.1,162.3 0.6,163 1,163.3 1.5,164.3 1.6,164.4 1.8,164.4 2,164.5 2.1,164.6 2.2,164.8 2.3,165.2
			2.4,165.4 2.4,165.9 2.5,166.8 2.7,167.8 3,168.3 4.5,169.6 5.5,171.1 5.7,171.4 6,172.4 6.2,172.7 7.7,174 8,174.6 7.9,175
			8,175.6 8.2,176.2 8.4,176.6 8.5,176.8 8.5,177.4 8.6,177.7 8.8,177.9 8.9,178.2 9.4,179.7 9.8,180.2 9.9,180.3 10,180.6
			10.4,181.1 10.5,181.2 11.4,183.8 11.5,184.1 12.2,185.9 12.3,186.9 12.5,187.5 12.8,187.7 12.8,188 13.3,189.5 13.3,189.9
			13.3,190.6 13.4,190.9 13.3,190.9 13.9,193 13.9,193.3 14,193.6 14.1,193.8 14.2,193.9 14.2,194 14.4,194.9 15.8,198.2
			16.3,200.3 16.4,201.4 16.7,202.2 17.9,204.3 18,205 18.1,205.2 18.2,206 18.3,206.7 18.4,207 19.9,209.5 20.3,210 20.5,210.6
			21.8,213 22.3,213.6 22.2,214.6 22.9,215.7 24.2,217.6 24.5,218.5 24.7,219.5 24.8,219.8 26,222.4 27.6,224.6 27.8,225
			28.3,226.2 28.6,226.7 28.7,226.8 28.9,227.5 29,227.6 30.3,229.6 30.4,229.9 30.6,230.2 31.5,231 31.8,231.3 32.1,232.5
			32.3,233.2 32.9,233.7 33.8,235.1 34.6,235.7 34.9,236.1 35.1,236.6 35.2,237 36.3,238.2 37.4,239.7 37.4,239.9 37.6,240.3
			38.6,241.6 39.2,242.5 39.6,243.4 40,245.2 40.1,245.5 40,245.7 40,246 40.2,246.3 40.4,246.8 40.7,247.2 41,247.7 41,248.3
			41,249.4 41.1,250 41.5,251.2 41.5,251.6 131.4,162.6 		"/>
		<polygon fill="#FBB116" points="41.5,251.6 41.6,251.9 131.4,162.6 		"/>
		<polygon fill="#231F20" points="41.5,251.6 41.6,251.9 131.4,162.6 		"/>
	</g>
	<path vector-effect="none" fill="none" stroke="#999999" stroke-width="0.25" stroke-linecap="round" stroke-linejoin="round" d="
		M336,6.6L335.8,7l1,3.1l1.2,3.6l1.2,3.6l0.9,2.9l1.6,4.9l0.1,0.7l-0.5,5.6l0.1,1l0.4,0.9l2.2,2.3l0.4,0.9l0.9,3.1l0.9,2.2l0.3,0.5
		l0.4,0.4l1.5,1.1l0.3,0.3l0.1,0.4l0.2,4.3l0.1,1l2.1,4.5l0.6,1.9l0.1,1.9l-0.2,1.7v3.4v4.2v3v4v5.4l-0.4,1.2l-0.1,0.6v0.8l0.1,0.8
		l0.2,0.5l0.1,0.5l0.2,1.6v0.5l-0.1,0.3l-0.2,0.2l-0.2,0.1l-0.3,0.3l-0.2,0.3l-1,2.5l-0.1,0.7l0.1,0.8l0.9,2.9l-1.3,0.6l-0.6,0.2
		l-0.6-0.2l-2.4-1.5l-2.1-1.4l-2.4-1.5l-2.4-1.6l-0.6-0.2h-0.7l-0.8,0.2l-0.6,0.3l-2.3,2l-2,1.8l-0.3,0.5l-0.4,1.3l-1.2,2.9
		l-1.5,2.7l-1.7,2.1l-2.1,2.7l-0.5,1.9v2.7v3.5l0.2,1.7l0.2,0.6h0.4l0.4-0.1l0.4-0.2l0.3-0.3l0.3-0.3l0.5,1.5l0.3,0.5l0.6,0.7
		l0.2,0.4l0.1,0.5v0.6l-0.2,1l0.1,0.6l0.5,0.9l2.3,2.1l1.1,1.6l0.3,0.3l0.3,0.2l2.8,1l1.7,0.6l2.3,0.8l1.5,0.3h2.5h3.3h2.2h2v-0.3
		l-0.1-0.3l0.5,0.2l-0.2-0.3l-0.1-0.4l-0.1-1.9l-0.1-2l0.4-2.3l0.4-2.1l0.4-2.2V116h1.5l0.4,0.1l0.6,0.6l0.4,0.2l0.7,0.1l1.2-0.1
		h0.7l1.6,0.3l1.3,0.2l2.7-0.1l2.9-0.1l3.2-0.1l3.5-0.1l-0.3,1l-0.3,3.3l-0.4,1.6l-0.1,0.6l-0.3,0.5l-0.8,1.1l-0.1,0.2l-0.1,0.7v0.2
		l-0.2,0.4l-0.1,0.7l-2.4,6.7l-1.6,7.5v0.6v0.3l-0.2,0.6l-0.1,0.3v0.3l0.1,0.5v0.3l-1.1,6.4l-0.1,0.5l-1.9,3l-0.1,0.4l-0.1,0.6
		l-0.3,0.5l-0.4,0.4l-0.5,0.2l0.1,0.2l0.1,0.1h0.1l0.2-0.1l0.2,0.9l-0.2,0.9l-0.4,0.9l-0.2,0.8l-0.3,0.4l-2,2l-0.3,0.2l-0.7,0.4
		l-0.3,0.2l-0.2,0.3l-0.4,0.7l-0.3,0.4l-2.5,2.1l-0.6-0.5l-0.9,0.1l-0.5,0.5l0.5,0.7l0.2-0.2l0.3-0.3l0.4-0.2h0.4l-0.4,0.8l-0.9,0.7
		l-2.8,1.5l-0.8,0.2h-0.9l-1-0.2v0.2v0.2l0.1,0.1l0.2,0.1v0.2l-0.7,0.4l-4.4,5.1l-1.1,1l-0.4,0.2l-0.1,0.1l-0.1,0.2l-0.1,0.5
		l-0.1,0.1l-0.3,0.2l-0.9,1.2l-0.3,0.3l-0.8,0.5l-0.3,0.3l-0.1,0.3l-0.1,0.5l-0.3,0.2l-0.2,0.2l-0.2,0.2l-0.2,0.5l-3,4.1l-3,6
		l-0.2,1l0.2,1h-0.9l-0.2,0.2l-0.1,0.7l0.3-0.2l0.8-0.3l0.3-0.3v0.2v0.2l-0.1,0.2l-0.2,0.3l-0.6,0.7l-2.4,2.2l-0.7,0.8l-1.1,1.9
		l-1.3,3l-3.3,5.8l-0.5,1.1l-0.1,0.4l-0.2,0.4l-1.1,1.2l-3.9,7.2l-0.6,0.9l-0.4,0.4l-0.3,0.2l-0.3,0.3l-0.7,1.5l-3.8,5l-0.6,0.4
		l-0.7,1.6l-1.2,1.4l-3.3,3.1l-0.4,0.2l-1.4,0.4l-0.5,0.2l-0.4,0.4l-0.2,0.5l-1.4,1.7l-0.5,0.2l-0.2,0.1l-0.2,0.5l-0.2,0.2l-0.2,0.2
		l-0.1,0.1l-0.5,0.1l-0.4,0.3l-0.7,0.8l-0.4,0.2l-0.9,0.3l-0.6,0.4h-0.2h-0.2l-0.2,0.1h-0.1h-0.3h-0.1l-0.1,0.2v0.1l0.1,0.1v0.1
		l-0.4,1l-0.7,0.4l-0.1,0.2l-0.1,0.7l-0.2,0.3l-0.8,0.6l-0.7,0.8l-0.4,0.5l-0.2,0.4l-0.1,0.3l-0.4,0.7l-0.2,0.1h-0.1v0.1l-0.1,0.3
		v0.1l-1.5,0.7l-0.2,0.3l-0.1,0.4l-0.2,0.5l-0.6,1l-2.8,3l-2.3,3.2l-1.2,0.8l-0.2,0.3l-3,2.8l-0.5,0.8l-0.2,0.2l-0.4,0.2l-0.2,0.2
		l-0.8,0.9l-0.4,0.6l-0.2,0.5l-0.1,0.3l-2.5,2l-0.6,0.3l-0.7,0.6l-0.4,0.2l-0.1,0.4l-0.5,0.4l-1.1,0.6l-1.1,0.8l-0.7,0.4l-1.3,0.4
		l-0.6,0.6l-0.4,0.7l-0.2,0.8l-0.2,0.6l-0.5,0.6l-2.3,1.9l-0.7,0.3l-0.2,0.2l-0.3,0.4l-0.3,0.2v0.1v0.1v0.2l-0.1,0.1l-1.1,0.5
		l-0.4,0.5l-0.3,0.1l-0.4,0.1l-1.1,0.4l-0.4,0.2l-2,2.2l-0.8,0.6l-1.6,0.6l-0.3,0.2h-0.1L250,285l-0.2,0.1l-0.2,0.1h-0.2l-0.2-0.1
		l-0.2,0.7l-0.5,0.6l-1.2,1l-0.5,0.3h-0.1l-0.1-0.1l-0.1-0.1l0,0l-0.1,0.1l-0.1,0.3l-2.4,1.7l-0.2,0.3l-1.7,0.8l-0.3,0.3l-0.2,0.2
		l-0.1,0.2v0.2l-0.1,0.2l-0.2,0.2l-0.2,0.1l-0.5,0.1l-2,1.1l-0.4,0.1h-0.5l-0.5,0.2l-1.3,1.1l-0.5,0.1l-1.1,0.1l-0.8,0.5l-2.2,0.9
		h-0.3l-0.2,0.1l-0.2,0.5l-0.1,0.1l-0.5,0.1l-2.2,1.1l-0.9,0.2h-0.9l-1.9-0.3h-0.6l-0.4,0.2l-0.4,0.1l-0.5-0.2l-0.9-0.5l-3-0.6
		l-3.1-0.2l-2,0.3l-1.9,0.6l-1.7,0.8l-0.7,0.6l-0.6,0.7l-0.4,0.9l-0.4,1.5l-0.1,0.6l0.1,0.3l0.4,0.2l0.1,0.2l0.1,0.2l0.7,0.5
		l0.4,0.7l0.2,0.2v0.2v0.1l-0.1,0.1l-0.7-0.2l-0.5,0.2l-0.4,0.3l-0.6,0.2l-0.7-0.1l-1.2-0.4l-0.6-0.1l-1.1,0.1h-0.6l-0.6-0.4
		l-0.8-0.1l-0.8-0.6l-0.8-0.3l-1.9-0.5h-2.1l-2,0.3l-1.3,0.4l-0.5,0.3l-0.4,0.4l0.3,1.1l-0.2,0.5l-0.4,0.5l-0.2,0.2l-1.1,1l-0.2,0.4
		l0.1,0.3l0.2,0.2l0.2,0.1l0.1,0.2l-0.1,0.2l-0.4,0.3l-0.2,0.2h-0.2l-0.3-0.4l-0.5-0.2H187l-1.2-0.3l-0.5-0.1l-1.4,0.3h-0.4l-2-0.5
		l-1-0.5l-0.8-0.7l-0.4-0.2l-2.8-0.3l-0.4-0.2l-0.3-0.2l-1.5-0.6l-4.1-0.4l-0.5-0.1l-1-0.4l-2.4-0.2l-4-1h-1.1l-3.6,0.8l-0.5,0.2
		l-0.4,0.3l-0.4,0.4l-0.2,0.6l0.2,0.5l0.4,0.4l0.5,0.1v0.2l-7.8-0.7l-0.1-0.2l-0.1-0.8l-0.1-0.2h-0.7l-0.3-0.1l-0.2-0.2l0.1,0.4
		l0.2,0.2l0.2,0.1l0.2,0.2l0.2,0.4v0.2l-0.2,0.2l-0.1-0.1l-0.3-0.1l-0.6-0.1l-0.3,0.1l-0.2,0.1l-0.2,0.1h-0.4l-1.8-0.6l-0.7-0.5
		l-0.3-0.1l-0.3-0.2l-0.2-0.4v-0.3V305l0.2-0.1h0.3l-0.4-0.3l-0.5-0.2l-1-0.1l0.2,0.4l0.3,0.4l0.4,0.3l0.4,0.2l-0.4,0.1l-0.6-0.1
		l-2.6-0.9l-0.5-0.1h-0.6l-0.4,0.1l-0.4,0.2l-1.2,1l-0.9,0.5l-1,0.2l-2.1-0.2h-1l-1.9,0.5l-0.5,0.2l-0.4,0.3l-0.7,0.7l-0.3,0.6
		l0.1,0.4l0.3,0.3l0.4,0.2l-0.3,0.3l-0.5,0.2l-2.9,0.4l-0.8,0.4l-0.6,0.6l-0.1,0.4l0.1,0.9l-0.2,0.3l-0.5,0.8l-0.1,0.1l-1.3,0.8
		l-0.9,0.4l-1,0.2l-1,0.1l-2.4-0.5l-0.8-0.5l-0.5-0.1l-0.5,0.1l-0.9,0.4l-0.8,0.2l-0.2,0.2l-0.1,0.2l-0.1,0.2l-0.2,0.1l-1.5,0.7
		l-1,0.1l-1-0.1l-3.7-1.4l-0.9-0.2l-2.2-0.2l-1.1,0.1l-0.9,0.4h0.2l-1.3,0.4l-0.4,0.2l0.6,0.1l0.5,0.4l0.3,0.6l-0.2,0.6l-0.4,0.2
		l-4-0.7l-3.2,0.4l-0.9,0.4l-0.8,0.6l-1.2,1.7l-0.4,0.4l-0.4,0.2l-0.3,0.1l-0.2,0.2l-0.1,0.2l-0.2,0.3l-0.2,0.1l-0.7,0.3l-0.4,0.3
		l-0.4,0.4l-0.3,0.5l-0.1,0.5l-0.2-0.1l-0.5,0.2l-0.9,0.4l-1.7,1.2l-0.6,0.9l0.3,0.7v0.2l-0.4,0.1l-0.6,0.4l-0.4,0.1l-0.4-0.1
		l-0.4-0.1l-0.3-0.2l-1.4-1.1l-0.3-0.3l-0.4-0.2l-3.6-0.7l-0.3,0.1l-0.4,0.4l-0.3,0.1l-0.2-0.1l-0.2-0.2l-0.1-0.2l-0.1-0.1l-1.1-0.7
		l-1.7-1.7l-1.2-0.7l-0.4-0.3l-0.4-0.4l-0.4-0.3l-0.5-0.1l-0.5,0.2l-0.4,0.4l-0.2-0.1h-0.2h-0.2l-0.2,0.1l0.1-0.3l1.3-1.9l0.1-0.3
		l-0.1-0.8l-0.4-0.9l-0.5-0.8l-0.4-0.6l-0.3-0.2l-0.3-0.1l-1.6,0.3l-1.4-0.1l-0.3-0.1l-0.3-0.3l-0.4-0.8l-0.4-0.3V314l0.6-0.1
		l0.3-0.4l0.2-0.6l0.2-0.6l-0.4,0.2l-0.5,0.9l-0.2,0.2l-1.7-0.1h-0.3l-0.6,0.2l-2.2,0.4l-0.5,0.3l-0.1,0.2l-0.2,0.1l-0.3-0.1
		l-0.2-0.1l-0.2-0.3v-0.3l0.2-0.3l-0.2-0.9v-0.2l0.1-0.3l0.1-0.1l0.1-0.1l0.2-0.2l0.2-0.5v-0.4l-0.3-0.9v-0.6l0.2-0.2l0.3-0.2
		l0.3-0.5l-1.2-1.5l-0.4-0.2l-1.3-0.3l-2.1-0.2l-2.1,0.1l-0.3,0.1l-0.2,0.1l-0.8,0.3l-0.4,0.3l-0.2,0.2l-0.2,0.3l-0.3,0.4l-0.1,0.2
		v0.4l0.1,0.3l0.1,0.1l0.2,0.1l0.1,0.2l0.3,1.1v0.3v0.2l-0.2,1.8l0.1,0.6l0.4,0.3l-0.4,0.1l-0.6-0.3l-0.5-0.5l-0.3-0.4l-0.6-1.1
		l-0.1-0.3V311l0.1-0.4v-0.2v-0.1l-0.1-0.1h-0.1l-0.1-0.1l-0.2-0.7l-0.2-0.3l-0.7-0.2l-0.2-0.3l-0.1-0.4l0.1-0.4l0.2-0.2l0.2-0.1
		l0.2-0.1l0.1-0.4v-0.4v-0.3l0.1-0.3l0.2-0.3h-0.3l-0.1,0.1l-0.2,0.1l-0.3-0.5V305l0.2-0.4l0.3-0.4l0.3-0.5l0.2-1l0.2-0.6l0.7-0.6
		h0.9l0.7-0.1l0.3-1l-0.1-0.5l-0.4-0.7l-0.1-0.4l-0.1-0.5l-0.6-2.4l-0.6-1.2l-0.1-0.5l-0.2-0.1l-1-1.3l-0.4-0.2l-0.2-0.2l-0.1-0.2
		v-1.1l-0.1-0.6l-0.2-0.5l-0.6-0.9l-0.6-0.7l-2.4-1.7l0.2-0.4l-0.1-0.5l-0.6-1l-0.3-0.7l-0.5-0.7l-0.1-0.3l-0.2-0.4l-1-1l-0.4-0.2
		l-0.5-0.2l-0.3-0.4l-0.3-0.5l-0.3-0.4l0.6-0.3l0.3-0.1l0.2,0.1l0.2,0.3l0.1,0.3l0.2,0.3l0.3,0.2l-0.1,0.3l0.2,0.2l0.6,0.5l0.4,0.6
		l0.3,0.3l0.3,0.1l0.4-0.2l-0.1-0.3l-0.5-0.5l-0.1-0.2v-0.5l-0.1-0.2l-0.1-0.1h-0.3l-0.1-0.1l-0.5-0.5l-0.2-0.3l-0.1-0.3l0.1-1.2
		l-0.1-0.4l-0.3-0.5l-0.5-0.3l-0.6-0.1l-0.7,0.1l0.2,0.4l0.1,0.1l-0.3,0.1l-0.2,0.1l-0.4,0.4l-0.2-0.3l-0.1-0.3l-0.1-0.2v-0.2
		l-0.1-0.2l-0.2-0.2l-0.1-0.3l0.2-0.4l-0.1-0.2l-0.3-0.8l-0.1-0.6v-0.2l0.1-0.2l0.2-0.3l0.1-0.3l-0.1-0.3l-0.5-0.7l-0.1-0.1
		l-0.1-0.1v-0.2h0.1h0.2h0.2l0.1-0.1L32,272l0.4-0.3l0.1-0.1h0.2v-0.1v-0.1l0.1-0.2V271v-0.8l0.1-0.3l0.3-0.2l0.5-0.2l0.5-0.1h0.3
		l-0.2,0.2l0.3,0.4l1.2,1.1l1,0.4l0.9-0.2l0.8-0.6l2.7-2.8l0.5-1l0.3-1l0.5-2.2l0.1-1.1l-0.1-1.9l-0.1-0.4l-0.3-0.6l0.1-0.4l0.5-0.7
		l0.1-1.1l-0.9-3.5l-0.3-2.8l-0.4-1.2l-0.1-0.6l0.1-1.2v-0.6l-0.3-0.5l-0.3-0.4l-0.3-0.4l-0.1-0.4v-0.2v-0.2v-0.3l-0.5-1.8l-0.4-0.9
		l-0.6-0.9l-1.1-1.4l-0.2-0.4v-0.2l-1-1.5l-1.2-1.1l-0.2-0.4l-0.2-0.5l-0.3-0.4l-0.7-0.7l-0.9-1.4l-0.6-0.5l-0.2-0.6l-0.3-1.3
		l-0.3-0.3l-0.9-0.7l-0.2-0.3l-0.1-0.3l-1.2-2l-0.1-0.1l-0.2-0.6l-0.1-0.2l-0.3-0.5l-0.5-1.2l-0.2-0.4l-1.6-2.2l-1.3-2.5l-0.1-0.4
		l-0.2-1l-0.3-0.9l-1.3-1.8l-0.6-1.1l0.1-1l-0.6-0.6l-1.3-2.3l-0.2-0.6l-0.4-0.5l-1.5-2.5l-0.1-0.3l-0.1-0.9l-0.2-0.8l-0.1-0.2
		l-0.1-0.7l-1.2-2.1l-0.3-0.9l-0.1-1l-0.5-2.1l-1.4-3.3l-0.1-0.9l-0.1-0.1l-0.1-0.1l-0.1-0.2v-0.3V193l-0.6-2.1h0.1l-0.1-0.3v-0.7
		v-0.4l-0.6-1.5v-0.3l-0.3-0.2l-0.2-0.6l-0.1-1l-0.7-1.8l-0.2-0.3l-0.8-2.6l-0.1-0.2l-0.4-0.5l-0.1-0.3l-0.1-0.1l-0.4-0.5L8.8,178
		l-0.1-0.2l-0.2-0.2l-0.1-0.2v-0.6l-0.1-0.2l-0.2-0.4l-0.2-0.6L7.8,175l0.1-0.4L7.6,174l-1.5-1.3l-0.2-0.3l-0.3-1L5.4,171l-1-1.4
		l-1.5-1.3l-0.2-0.6l-0.2-0.9l-0.1-0.9l0.1-0.5l-0.1-0.2l-0.2-0.4v-0.2l-0.1-0.1H1.9H1.7l-0.1-0.1l-0.5-1.1L0.7,163l-0.6-0.6v-0.1
		l0.2-0.2l0.1-0.4v-0.4V161l0.4-0.2l0.6-0.4l0.6-0.3l0.9-0.3l1.7-1.7l0.2-0.1l0.2,0.1l0.1,0.3l0.1,0.3l0.1,0.2h0.4l0.5-0.4l0.4-0.6
		l0.3-0.4l0.1-0.4v-0.6l0.1-0.5l0.3-0.2l0.2-0.2l-0.2-0.5l-0.5-0.7L6.7,154l-0.1-0.5l0.1-0.5l0.4-0.2l0.2,0.1l0.2,0.2l0.2,0.1
		l0.2-0.2v-0.3l-0.1-0.3l-0.2-0.3l-0.1-0.2l0.1-0.2l0.1-0.1h0.5l0.3-0.1v-0.2l-0.4-0.5L8,150.7v-0.2l0.1-0.1h0.1l0.1,0.1h0.4
		l0.1,0.1h0.1l0.2-0.3l0.2-2l0.1-0.1l0.4-0.4l0.1-0.1h0.2l0.2,0.3h0.2l0.3-0.1l0.3-0.3l0.3-0.1l0.6,0.2l0.8-0.6l0.3-0.1l0.4-0.1h0.2
		L14,147l0.3,0.4l0.3,0.5l0.3,0.5l0.4,0.2l0.6,0.2l0.2,0.4v0.6l-0.1,0.6l0.1,1.2l0.5,0.6l0.7,0.1l1.4-0.3h0.6l0.3,0.1l0.1,0.3v0.3
		l0.1,0.2l0.2,0.3l0.1,0.3v0.3l0.1,0.3l0.2,0.3l0.4,0.5l0.1,0.3v0.6l-0.1,0.7l-0.2,0.6l-0.4,0.3l-0.4,0.1l-0.4,0.3l-0.3,0.3
		l-0.1,0.4l0.2,0.5l0.6,0.8l0.1,0.6l0.2,0.4l0.8,0.3l0.2,0.6l-0.1,1l-0.3,1.1v0.8l0.8,0.1l1-0.2l0.9-0.1l0.5-0.1l0.4-0.2l0.4-0.1
		l0.3,0.2l0.1,0.5v0.6l0.1,0.5l0.5,0.2l0.7,0.2h0.3l0.2-0.1l0.4-0.3l0.2-0.1l0.7-0.1l3.8,0.8l0.8,0.3l0.8,0.5l1.4,1.2l0.9,0.5
		l1.9,0.7h0.4l0.8-0.3l2-0.3h0.5l1,0.4l0.6,0.1l0.4-0.2l0.2-0.1l0.2-0.1l0.4-0.1h0.1l0.2-0.1h0.1l0.1,0.1l0.3,0.3h0.1l0.5-0.2
		l0.8-0.5l4.3-0.6l4.7,0.7l0.4,0.4l0.6,0.9l0.2,0.3l0.2,0.1l0.8,0.1l0.2,0.1l0.1,0.1l0.4,0.5h0.9l0.9-0.3l1.3-0.7l0.2-0.2l0.2-0.4
		l0.1-0.1l0.7-0.1l0.3-0.2v-0.3l-0.8-1.5l-0.1-0.6l0.1-0.5l0.4-0.8l0.3-0.3l0.3-0.2h0.3l0.5,0.4h0.2l0.3-0.1l1.8-0.5l0.5-0.2
		l0.4-0.3l0.2-0.4l0.6-2.1l0.1-0.2l0.2-0.1l0.1-0.1l0.2-0.5l0.1-0.2l0.2-0.2l0.1-0.2l0.1-0.2l0.2-0.2l0.2-0.1l2.3-0.2l0.4-0.2
		l0.5-0.4l0.5-0.2l1.1-0.1l0.7-0.2l1-0.9l0.6-0.3h0.2l0.7,0.1h0.2l0.7-0.2v-0.8v-1V154v-1.4V151v-1.4v-1.4v-1.4v-1.4V144v-1.4V141
		v-1.4v-1.4v-1.4v-1.4V134v-1.4V131v-1.4v-1.4v-1.4v-1.4V124v-1.4v-1.4v-1.4v-1.4V117v-1.4V114v-1.4v-1.4v-1.4v-1.4V107v-1.4v-1.4
		v-1.4v-1.4V100v-1.4v-1.4v-1.4v-1.4V93v-1.4V90v-1.4v-1.4v-1.4v-1.4V83v-1.4v-1.4v-1.4v-1.4V76v-1.4v-1.4v-1.4v-1.4V69v-1.4v-1.4
		v-1.4v-0.3l0.1,0.4l0.1,0.2l0.4,0.3l0.4,0.7l1.2,0.9l0.6,0.7l0.2,0.2l0.2,0.1h0.5l0.2,0.1l1.7,1.1l2.9,2.4l0.2,0.3l0.7,1.5l0.6,1
		l0.2,0.5v0.4l-0.2,0.4l0.2,0.3l0.4,0.3l0.4,0.2v0.6v0.2l0.1,0.2l0.4,0.2l0.1,0.2v0.2l-0.1,0.2l-0.1,0.1v0.2l0.1,0.2l0.2,0.3
		l0.1,0.2l0.2,0.8l0.1,0.3l0.4,0.2l0.7,0.3l0.1,0.2l0.1,0.5h0.3v0.2L92,82.1v0.3l0.2,0.1l0.2-0.1l0.2-0.1h0.2l0.3,0.3L92.4,83
		l-0.1,0.4v0.7l1,0.9l0.2,0.7l-0.1,0.2l-0.5,0.3l-0.1,0.2l0.1,0.3l0.2,0.1h0.3l0.2,0.2v0.3l-0.2,0.5v0.3l0.2,0.3l0.6,0.3l0.2,0.2
		l0.2,0.4l0.5,1.7l-0.2,0.5v0.2l0.3-0.1l0.2-0.1h0.1l0.3,0.3v0.1l0.6,1.5l0.2,2.2v1.8l0.1,0.5l0.8,1.5l-0.1,0.4l-1,1.4l-0.4,1
		l-0.5,0.9l-1.3,1.7l-0.7,1.3l-0.3,0.4l-0.7,0.5l-0.1,0.3l-0.3,1.4l-0.1,0.7l0.1,0.6l0.1,0.3l0.4,0.5l0.1,0.4v0.6l-0.5,1.7v0.8
		l0.1,0.9l0.2,0.9l0.3,0.7l0.1,0.2l0.1,0.1l0.3,0.2l0.2,0.3l0.2,0.8l0.1,0.3l0.1-0.1l0.5-0.4l1.5-0.7l1.1-0.7l0.6-0.3l1.3-0.2l1,0.4
		l0.9,0.6l3,0.7h0.7l2-0.6h0.3l0.6,0.1h0.3l1.9-0.5h1l0.5,0.1l1.1,0.5l1.9,0.1l1.3,0.4h0.5l0.5-0.2l1.3-0.9l0.4-0.4l0.2-0.4l0.1-0.5
		v-0.5l-0.2-1.1v-0.4l0.3-0.3l0.6-0.2l0.7-0.1h2.2l1.4-0.3l1.3-0.8l1.1-1.2l0.9-1.3l0.7-2l0.4-0.9l0.9-0.9l0.2-0.5l0.2-0.1l1-0.2
		l0.4-0.1l0.6-0.3l1.2-1.1l0.8-1.1l0.5-0.4l0.7-0.1l1,0.2l0.4-0.2l0.4-0.7l0.4-0.9l0.3-0.3l0.4-0.3l0.3-0.3l0.9-1.4v-0.3l-0.1-0.2
		v-0.2l0.2-0.2l0.6-0.2l0.2-0.2l0.2-0.3l0.1-0.4l0.1-0.6v-0.6l-0.1-0.3l-0.3-0.4l0.2-0.4l0.5-0.4l0.3-0.4l0.2-0.4v-0.2l-0.1-0.4
		l-0.2-0.2h-0.1l-0.1-0.1v-0.4l0.1-0.5l0.3-0.5l1-1.2l0.1-0.2l0.1-0.3V88v-0.3l-0.1-0.2v-0.2l0.3-0.2l0.2-0.2l-0.1-0.3l-0.2-0.3
		l-0.1-0.2v-0.2l0.1-0.2l0.2-0.4l0.5-1.5l0.2-0.2l0.6-0.2l0.2-0.3l0.4-1l0.2-0.3l0.2-0.2l0.2-0.2l0.3-0.1l0.3-0.2l0.1-0.2l0.1-0.2
		l0.1-0.2l0.9-0.9l0.5-0.3l0.5,0.1l0.2,0.2l0.1,0.3l0.1,0.1l0.3-0.2l0.2-0.2l1.7-0.8l1.1-0.3l1.1-0.1l1.2,0.2l1,0.4l0.4,0.1h0.4
		l0.7-0.3l0.3-0.1l0.3,0.1l0.2,0.2l0.3,0.5l0.3,0.3l0.2,0.2l0.7,0.3l0.6,0.4l2.4,1.9l0.2,0.2l0.3,0.3l1.3,0.4l0.2,0.2l0.2,0.5
		l0.2,0.2l0.2,0.1l0.5,0.2l0.2,0.1l0.9,1.1l1,0.7l0.3,0.5l0.4,0.3l1.2-0.3h0.3l0.2,0.1l0.2,0.2v0.2l-0.1,0.2v0.1l0.5-0.1l2.4-0.6
		h1.2l1,0.6l1.6,1.9l1,0.7l1.1,0.2l0.6-0.2l0.5-0.2l0.4-0.1l2.7,1l1.2,0.8l0.8,0.2l1.7-0.2l0.7,0.2l0.6,0.2l0.7-0.1l1.4-0.4l0.4-0.2
		l1.4-1l1-0.5l0.9-0.1l0.9,0.1l1,0.3l1,0.2l4.7-0.5l1.6-0.8l2.9-2.3l0.5-1.5l1.2-3l0.7-3.2l2-4.4l0.5-1.7l0.7-1.2v-0.9l0.7-1.5
		l0.2-0.8v-1l-0.2-1.8v-0.6l0.1-0.1h0.2L212,65h1.2l0.3-0.2l0.7-0.5l6-1.9l1.1-0.1h0.4l0.4,0.1h0.4l0.5,0.1l1.5-1.5l0.2-0.3l0.7-1.8
		l0.6-0.7l0.6-0.5l1.5-1l1.4-1.4l0.2-0.4l0.5-0.3l2-0.6l0.5-0.3l0.4-0.3l0.2-0.4l0.4-2.2v-1.1l1.6-6.6l0.1-0.7l-0.2-0.5l0.6-1.2
		l-0.1-0.4l0.1-0.5l0.4-0.8l0.4-1l0.2-0.2l0.2,0.1l0.1,0.3l0.2,0.3h0.4l0.3-0.3v-0.4l-0.1-0.4v-0.5l0.2,0.1l0.2,0.1l0.1-0.2l0.1-0.2
		l0.4-0.3h-0.2l0.2-0.3l0.2-0.2h0.2l0.3,0.2l0.1-0.3l-0.1-0.2l-0.2-0.2l-0.1-0.3l0.1-0.2h0.2l0.3,0.1l0.2,0.2l0.1-0.2l0.2-0.2
		l0.1-0.2l0.2,0.2l0.2,0.1h0.2l0.2-0.1l-0.3-0.5l0.3-0.3l0.8-0.3l0.9-0.4l0.4-0.3l0.4-0.4l0.5-0.8l0.3-0.3l0.3,0.8l0.2-0.1l0.2-0.3
		l0.1-0.1l0.3-0.1l0.3-0.1h0.2L246,32l0.3,0.2l0.2-0.2l0.2-0.3l0.2-0.2l0.3-0.1h0.9l0.5-0.1l0.5-0.3l0.3-0.4l0.1-0.6v-0.2l-0.1-0.2
		v-0.2l0.1-0.1h0.1l0.1-0.1v-0.1V29l0.1-0.4l0.4-0.5l0.2-0.7h0.3l0.3,0.2l0.3,0.1l0.3-0.1l0.9-0.7l0.6,0.7l0.3,0.1l0.3-0.2l0.1-0.2
		l0.3-0.9l0,0l0.2-0.1l0,0h0.1v-0.1l-0.1-0.1V26v-0.1l-0.1-0.2l-0.1-0.2l0.1-0.2h0.2h0.5l0.4-0.1l-0.1-0.4l0.9-0.2l1-0.4l0.8-0.6
		l0.4-0.7l-0.2-1v-0.6l0.3-0.2l0.4-0.1l0.5-0.2l0.4-0.2l0.3-0.2l0.4-0.4l0.3-0.5l0.1-0.5l-0.2-0.5v-0.3L261,18l0.5-0.2l0.3-0.1
		l0.1-0.1l0.1-0.4l0.1-0.1l0.2-0.1l0.2-0.1l0.2-0.1l0.2-0.2l0.2-0.3v-0.2l-0.1-0.2v-0.3v-0.3l0.1-0.2l0.7-0.9l0.2-0.1l0.2-0.1
		l0.6-0.1l0.2-0.1l0.8-1l0.3-0.3l0.8-0.5l0.9-0.2l1.9-0.1l1.4,0.4l0.4-0.1l0.5-0.4l0.4-0.1l0.4,0.1h0.6l0.8-0.3l1.6-0.9l1-0.3
		l0.5-0.1l0.5-0.1l0.3-0.3l0.1-0.5l0.2-0.3h0.5l1,0.1l0.4-0.3l0.5-1l0.2-0.2l0.1-0.3l-0.2-1.7l0.5-0.7l0.4-0.5l0.3-0.2V3l0.5-0.6
		l0.2-0.1l2.7-0.2l0.4-0.2l0.4-0.3l0.4-0.3l0.6-0.1l1.2,0.3l0.6,0.1l0.4-0.1l0.2,0.1h0.1h0.3l0.5-0.3l0.8-0.5l0.5-0.1L293,1l0.6,0.1
		l0.2-0.2l0.2-0.4l0.4-0.1l0.8,0.1l0.8-0.4l0.5-0.1l0.4,0.3l0.3-0.1l1.5-0.1l0.5,0.1l1.3,0.9l0.8,0.2l0.6,0.3l0.8,0.1l0.3,0.1
		l0.6,0.4l0.2,0.1l0.5,0.1l0.2,0.1l0.4,0.5v0.1l0.1,0.1l0.7,0.1l0.3,0.1l0.7,0.5l0.5,0.3h0.4l1-0.1h0.6l0.4,0.1l0.3,0.2l0.3,0.3
		l0.7,0.5l0.8,0.2h0.8l0.9-0.2l0.4-0.1l0.9-0.4l0.4-0.1h0.4l1.5,0.2h0.7l0.2,0.1l0.3,0.2l0.2,0.1l0.3-0.1l0.6-0.4l0.4-0.1l2.5-0.2
		l0.7-0.3l0.7,0.2l1.4,0.1l2.5,0.6l0.8,0.3l0.4,0.1l0.4-0.1l0.8-0.4l0.3-0.1l0.2,0.2l0.5,0.6l0.2,0.1h0.2l0.4,0.2l0.2,0.1h0.2
		l0.4-0.2h0.2l0.2,0.2L336,6.6 M278.6,164.3l-0.3-0.3h-1l-0.2-0.4l-0.2-1.1l-0.1-0.5l-0.2-0.4l-0.3-0.4l-0.4-0.3h-0.3l-1.3,0.9
		l-0.5,0.1l-3.2,0.2l-0.5,0.2l-0.4,0.4l-0.6,1.1l-0.4,0.4l-0.5,0.2l-0.5,0.1l-0.5-0.1l-0.5-0.2l-1.5,0.2l-0.2-0.1l-0.2,0.3l-0.3,0.4
		l-0.6,0.9l-0.1,0.1l-1,1.1l-0.9,1.1l-0.1,0.2v0.2v0.2l-0.2,0.1H261l-0.3-0.1l-0.2-0.3l-0.3-0.2h-0.4l-0.3,0.2l-0.2,0.3l-0.1,0.4
		l-0.2,0.4l-0.6,0.3l-2.6-0.2l0.2,0.4l-0.2,0.2l-0.4,0.1l-0.2,0.2v0.4v0.2l-0.1,0.1v0.1v0.1v0.2v0.1H255h-0.1h-0.1l-0.4,0.6
		l-0.3,0.3l-0.3,0.1l-0.4,0.1l0.1,0.2l0.3,0.3l0.2,0.3h-0.1l-0.2,0.1h-0.1l-0.2-0.2l-0.2,0.2l0.1,0.6l-0.5,1l-1.3,1.6l-0.2,0.1
		l-0.2,0.1l-0.2,0.1l-0.2,0.2v0.2l0.1,0.6v0.3l-0.2,0.2l-1.1,0.4l-0.4,0.2l-0.1,0.2v0.6l-0.1,0.2l-0.2,0.3l-0.2,0.1l-0.3,0.2
		l-0.2,0.2v0.2l0.1,0.1l0.1,0.2l0.1,0.2v0.3l-0.1,0.2l-0.2,0.1l-0.9,1l-0.3,0.4l-0.1,0.5l-0.1,0.1h-0.5l-0.1,0.1v0.3l-0.1,0.3
		l-0.2,0.2l-0.2,0.2l-0.7,0.4l-0.5,0.2l-0.6,0.1l-0.4,0.2l-0.2,0.1l-0.7,0.1l-0.6,0.3l-0.1,0.1l-0.7,0.8l-0.1,0.1l-0.2-0.1l-0.1-0.2
		l-0.1-0.1h-0.2l-0.1,0.1l-0.2,0.4l-0.2,0.2l-0.2-0.3h-0.2l-0.2,0.2v0.4l-0.3,0.6l0.2,0.1l0.3,0.3l0.3,0.2l0.3,0.3l0.7,1l0.2,0.4
		l0,0l0,0l2.5,5.9l0.4,0.5l1.1,0.9l0.3,0.5l0.3,1.2l0.2,0.4l0.3,0.4l0.2,0.1l0.3-0.1h0.5l0.3,0.1l0.2,0.2v0.3l-0.3,0.3l-0.5,1.2v0.8
		l0.5,1.4v0.4h0.2l0.5,0.1h0.2h0.2l0.5-0.2h0.4l0.2,0.2l0.2,0.6l0.2,0.4l0.4,0.3l0.8,0.4l0.2,0.5l0.6,0.6l0.5,0.8l0.1,0.2v0.2v0.2
		l0.1,0.2l1.4,1.1l1.2,1.4l0.7,0.4l0.8,0.3l1,0.1h0.2l0.4-0.2h0.2l0.3,0.1l0.2,0.1l0.2,0.2l0.2,0.2l0.4,0.2l0.5,0.2l2.7,0.2l0.6,0.2
		v-0.5l-0.1-0.4v-0.4l0.1-0.5l0.2-0.2l0.2-0.1l0.2-0.1l0.2-0.2l0.2-0.2l0.1-0.2l0.4-1.2v-0.2l-0.1-0.3l-0.3-0.5v-0.2l0.2-0.3
		l1.9-1.5l0.3-0.4l0.2-0.6l-0.1-0.6l-0.3-0.2l-0.3-0.2l-0.2-0.4v-0.5l0.3-0.4l0.5-0.3l0.4-0.2l0.7-0.1l0.2-0.1l0.2-0.2l0.3-0.4
		l0.2-0.2l0.4-0.4l0.6-1.1l0.4-0.4l0.5-0.1l1.1,0.2l0.6-0.2l1-0.6l0.4-0.1h0.4l1.1,0.4h0.8l2-0.8l1.5-0.3l1.5-0.6l2.6-1.7l2.7-1.7
		l0.3-0.1l0.6-0.2l0.3-0.1l0.1-0.2l-0.1-0.3l-0.2-0.5V194v-0.2l-0.1-0.2l-0.3-0.2l-0.3-0.5v-0.6l0.1-0.7v-0.7l0.4-0.8l0.3-0.7
		l0.4-0.6l0.7-0.5l1.7-0.5l0.3-0.3v-0.4v-0.4l0.4-0.2l-0.3-0.4l-0.2-0.6v-0.7l0.2-0.5l0.5-0.5l0.6-0.3l0.7-0.2l0.6-0.3l0.3-0.2
		l0.2-0.2l0.1-0.3v-0.4v-0.4l0.4-0.6l0.1-0.4l-0.1-0.2l-0.3-0.3l-0.1-0.2v-0.2v-0.4V179l-0.2-0.6l-0.6-0.9l-0.3-0.9l-0.2-0.4
		l-0.3-0.4l-0.4-0.3l-0.3-0.3l-0.1-1.5l-0.7-0.3H290l-0.8-0.2l-1.9-2l-0.8-0.4l-0.5-0.1l-0.3-0.2l-0.1-0.3v-0.5l-0.2-0.3l-0.5-0.2
		l-0.5-0.2h-0.3l-1.2-1.3l-0.9-1.6l-0.3-0.4l-0.3-0.3l-0.3-0.2l-0.4-0.1L280,165l-0.2-0.1L278.6,164.3"/>
</g>
</svg>
