<?xml version="1.0" encoding="utf-8"?>

<svg version="1.2" baseProfile="tiny" xmlns="http://www.w3.org/2000/svg" xmlns:xlink="http://www.w3.org/1999/xlink" x="0px"
	 y="0px" viewBox="219.8 124.5 400 345.1" xml:space="preserve">

<g id="Zambia">
	<g>
		<path fill="#198A00" d="M549.1,209.5c0-0.2,0-0.4,0-0.6c0-0.1,0-0.3,0-0.4c-0.1,0.1-0.2,0.2-0.3,0.3
			C548.8,209.1,548.9,209.3,549.1,209.5z"/>
		<path fill="#198A00" d="M548.2,204.7c0.6,0.4,1.7,0.9,2.2,1.1c1.2-0.6,2.9-0.6,3.9-0.6c0.2,0,0.5,0,0.6,0c0.1-0.2,0.3-0.4,0.4-0.5
			l-0.1-2.2c-0.1,0.2-0.3,0.3-0.4,0.4c-0.4,0.3-0.7,0.3-0.9,0.2c-0.1,0-0.2-0.2-0.2-0.3c0.9-4.4-0.2-6.8-3.5-12.6
			c-0.1,3.3-0.1,6.2-0.4,8.3c0.4,1.3,0.5,1.7,0.5,2.5c0,0.3,0,0.6,0.1,1c0,0.1,0,0.2-0.1,0.3c-0.1,0.1-0.2,0.1-0.3,0
			c-0.6-0.3-1.2-0.8-1.7-1.5C548.1,202.2,548,204.1,548.2,204.7z"/>
		<polygon fill="#198A00" points="455.2,295.6 454.9,295.4 454.5,294.2 454.4,294.1 454.2,294.1 454,294 453.9,293.9 453.9,293.7
			453.9,293.3 453.9,293.2 453.9,293 454.1,292.6 454.1,292.5 453.9,292.3 453.5,292.1 453.3,292 453,290.7 452.8,290.4
			452.2,289.8 449.9,286.8 448.5,285.4 446.9,285.1 446.5,285.3 446,286.4 445.6,286.8 445.1,287 444.6,287 444.2,286.7
			444.1,284.9 443.6,284 442.8,283.3 442.1,282.4 441.9,281.5 442.2,281 442.8,280.6 443.2,280 443.2,279.1 442.8,278.4
			441.7,277.2 441.3,276.4 440.6,274.7 440.1,274 437.3,271.5 436.7,271.2 436,271 435.4,270.9 434.7,271 433.8,271 433.2,270.6
			432.7,270.1 432,269.8 431.2,270.1 430.6,270.6 430.1,270.8 429.3,270.1 429.2,269.8 429.1,269.5 429,269.2 428.7,269
			426.1,268.7 425.6,268.8 425,268.9 424.2,268.6 424,267.9 423.9,267 423.4,266.4 421.4,265.2 420.7,265 419.9,264.9 419.4,265.2
			419.1,265.6 418.4,266.1 417.3,266.4 415.8,266.5 414.2,266.4 413.3,266 411.8,264.4 409.8,262.8 409.3,262.1 407.6,257.3
			407.4,255.9 405.8,253.1 399.5,249.2 398.6,246.2 398.7,245 398.6,243.3 398.2,241.7 397.6,240.9 397.4,240.9 396.4,241.3
			394.9,241.4 393.7,241.9 393.3,241.9 392.6,241.8 392.3,241.8 391.8,242.3 391.8,243 392.3,244.4 392.2,245.4 391.8,245.9
			391.3,246.4 390.8,247.1 390.5,248.5 390.3,251.3 389.7,252.7 388.5,253.8 387.2,254.6 385.7,254.9 384.1,254.7 383.2,254.8
			382.7,255.2 382.3,255.8 381.8,256.3 381.1,256.4 380.5,256.2 379.9,255.7 379.3,255.3 378,255.1 375.2,254.9 374,254.5
			373.4,254 372.8,253.5 372.2,253 371.4,252.8 370.1,252.8 368.8,253 368.5,253.2 367.8,253.6 367.4,253.8 367,253.8 366.3,253.4
			365.1,253.5 364.4,253.2 363.7,252.8 362.9,252.5 357,252.5 356.6,252.5 356,252.2 355.5,251.1 355,250.8 354.3,250.5 352.4,249
			352.3,248.8 352.1,248.7 351.8,248.6 351.5,248.7 350.8,249 350.5,249 348.5,249 347.9,248.9 346.6,248.2 345.5,247.2
			344.3,246.4 342.7,246.4 342.5,246.6 342.4,247 342.2,247.3 341.9,247.4 341.4,247.4 341.2,247.7 341,247.9 340.7,248.1
			340,248.1 339.5,247.8 339.3,247.4 339.6,246.5 339.6,246.3 339.6,246.1 339.5,246 338.9,245.4 336.9,244.5 336.6,244.2
			336.5,243.9 336.3,243.7 335.8,243.6 335.4,243.6 335.1,243.6 334.8,243.4 334.6,243.1 334.2,242.5 333.3,239.7 333.2,239.1
			333.2,238.8 333.4,238.4 333.8,237.9 333.9,237.6 333.6,236.9 332.8,235.6 332.6,234.9 332.5,234 332.8,233.7 333.2,233.3
			333.5,232.7 333.3,232.4 333,232.1 332.8,231.8 333.2,231.5 333.9,231.2 334.2,231 334.2,230.7 334.1,229.9 334.1,229.1
			334.1,228.3 333.7,227.9 332.6,228.1 329.3,229.7 327.3,230.1 322.4,230.6 321.1,230.5 319.7,230.9 317.1,232.2 315.8,232.4
			313.2,232.5 311.9,233 311.5,233.3 310.9,234.2 310.6,234.5 310.2,234.7 309.4,234.9 309.1,235 308.8,235.3 308.6,235.6
			308.5,235.9 308.4,236.3 308.2,236.6 307.8,236.6 307.4,236.6 307.1,236.6 305.6,237.2 304.9,237.3 304.1,237.2 303.4,236.9
			302.3,235.8 301.5,235.4 300.9,235.3 299.5,235.2 298.9,235 298.6,234.4 299,234 300.5,233.6 300.9,233.1 302,231.4 302.3,230.8
			302.4,230.2 302.4,229.4 302.4,228.7 302.2,228.1 302,227.8 301.4,227.3 301.2,226.9 301.2,226.4 301.5,226 301.8,225.7
			301.9,225.3 301.5,224.6 300.7,223.9 299.7,223.2 298.9,222.9 298.3,222.8 297,222.8 296.3,222.7 295,222.4 294.5,222.3
			293.8,222.6 293.1,222.7 292.9,222.2 292.9,221.1 292.9,220.7 292.6,220 292.5,219.6 292.6,219.3 292.7,218.7 292.7,218.4
			292,217.6 290.5,217.1 288.9,216.8 287.7,216.7 288,218.4 288.2,219 288.8,220 289,220.6 288.7,221.2 288.6,221.8 288.7,223.8
			288.5,225.1 288.7,225.6 289.4,225.7 289.2,230.6 289.4,231.5 290.9,234.8 291,235.3 290.6,235.7 289.5,236.6 289.2,237.1
			289.1,237.5 289.1,237.9 289.2,238.7 289.2,239.3 289,239.7 288.1,241.2 287.5,242.6 287.3,243.2 287.3,244.1 287.6,244.8
			287.9,245.4 288.2,246.3 288.3,248.9 288.5,249.7 288.4,250.1 287.7,251.8 287.5,256.2 287.3,261.1 287.5,262.7 288.2,263.8
			289.1,264.7 289.4,265.5 289.6,267.7 289.9,269.2 289.8,269.8 289.5,270.4 288.4,272.1 286.8,274.4 286.4,275.4 285.8,277.8
			285.1,280.4 284.5,281.9 284.2,283.3 284.6,284.4 285.3,285.4 287.1,287.3 287.9,288.3 288.5,289.4 288.9,290.7 287.8,290.7
			283.5,290.7 279.3,290.7 275,290.7 270.8,290.7 266.5,290.7 262.3,290.7 258,290.7 253.7,290.7 249.5,290.7 245.2,290.7
			241,290.7 236.8,290.7 232.5,290.7 228.3,290.7 224,290.7 219.7,290.7 219.8,296 219.8,301.2 219.8,306.5 219.8,311.7 219.8,317
			219.8,322.3 219.8,327.6 219.8,332.9 219.8,338.1 219.8,343.4 219.8,348.7 219.8,354 219.8,359.3 219.8,364.6 219.8,369.9
			219.8,375.2 219.8,376.7 219.8,377.4 219.8,378.5 219.8,380 219.8,383.6 219.8,387.2 219.8,390.8 219.8,394.4 219.8,396
			219.8,396.1 219.8,398.4 219.8,400.5 219.8,401.1 219.9,401.9 220.8,403 222,404.9 221.1,404.9 220.8,404.9 221.2,405.4
			221.3,405.9 221.4,406.3 221.5,406.8 221.7,407 222.1,407.4 222.2,407.6 222.3,407.9 222.3,408.7 222.3,408.9 223.5,409.2
			224,409.4 224,409.9 223.7,410.3 223.4,410.9 223.2,411.6 223.2,412.2 223.3,412.6 223.9,413.6 224.1,414.1 224.1,414.6 224,415
			224.1,415.2 224.8,415.3 225.2,415.6 225.3,416.1 225.4,416.7 225.6,417.2 228.6,419.6 229,419.7 229.3,419.7 229.8,419.5
			230.1,419.4 230.3,419.3 230.4,419.2 230.5,419.3 230.8,419.6 230.9,419.7 231.8,419.9 232.2,420.2 232.4,420.7 232.9,421.4
			233.2,421.8 233.4,422 233.6,422.1 234.1,422.2 234.4,422.4 234.7,422.7 237.2,426.7 237.5,427.7 237.8,428.1 238.3,428.4
			239.4,428.8 239.8,429.2 239.9,429.5 239.9,430.1 240.1,430.4 240.2,430.6 240.7,430.6 242.7,431.4 243.2,431.8 244.7,433.4
			245.4,434.3 245.9,435.3 246.3,436.9 246.6,437.5 247.1,437.9 248.1,438.4 249.5,439.7 250.4,440.3 252.5,441.2 254.1,441.6
			254.6,441.9 256,443.4 256.2,443.8 256.5,444.8 257.1,445.9 258,446.8 258.8,447.5 260.3,448.1 260.7,448.5 260.8,449
			260.7,449.6 260.7,450.1 261.1,450.5 261.7,450.7 262.3,450.6 262.9,450.5 263.5,450.4 264.6,450.5 265.1,450.7 265.6,450.9
			266.3,451.4 266.9,452.2 267.7,452.8 267.5,453.4 267.5,453.8 267.7,454.3 269.1,454 270.3,453.8 270.9,453.7 271.9,453.5
			273.4,453.2 274.9,452.9 276.3,452.6 277.8,452.3 279.3,452 280.7,451.7 282.2,451.4 283.7,451.1 285.1,450.8 286.6,450.5
			288.1,450.2 289.5,449.9 291,449.6 292.4,449.3 293.9,449 295.4,448.7 296.4,448.5 297,448.5 297.6,448.6 299.5,448.6
			299.8,448.8 300.1,448.7 301.5,448.3 302.1,448.2 302.8,448.3 304.2,448.9 305.2,449 305.9,449.4 306.8,449.5 307,449.7
			307.2,450 307.5,450.2 308.1,450.4 308.4,450.4 308.7,450.4 309.1,450.3 309.6,449.8 310,449.6 310.2,449.3 310.4,449.1
			310.7,449 312.3,449 315.2,449.4 315.4,449.5 315.5,449.7 315.8,449.8 316.1,449.9 317.2,449.9 319.6,450.4 320.5,450.8
			320.9,451.4 321.6,451.1 322.1,451.4 322.5,452 323,452.4 323.3,452.4 324,452.2 324.3,452.1 324.4,452.3 324.2,452.9
			324.2,453.1 324.4,453.4 324.6,453.5 324.8,453.6 325.2,453.6 325.3,453.7 326,454.3 326.1,454.3 326.4,455.4 326.4,455.5
			326.7,455.6 327,455.8 327.2,456.1 327.2,456.3 327.5,455.9 327.8,455.9 328.3,456.4 328.4,456.6 328.4,457.1 328.4,457.3
			328.6,457.4 328.9,457.6 329.1,457.8 329.6,458.3 329.8,458.5 330.4,458.5 330.9,458.6 331.3,458.9 331.7,459.3 331.9,459.7
			332.2,460 332.8,460.3 333.9,461.1 334.5,461.4 334.9,461.5 335.9,461.4 337.1,461.8 337.4,461.9 340,461.9 340.2,461.9
			340.5,462.1 340.7,462.2 340.9,462.1 341.2,461.8 341.4,461.7 343.7,461.2 345.5,460.4 346.4,460.4 346.8,460.6 347.2,461
			348.5,461.4 349.2,461.7 349.9,462.2 350.2,462.5 350.6,463.1 352.1,463.8 352.6,464.4 352,464.6 352,465.1 352.2,465.7
			352.6,466.1 354.7,467 356.1,467.1 356.5,467 358.4,466.1 358.6,466.3 358.8,465.9 359.4,465.8 360,465.7 360.5,465.6
			360.5,465.5 360.5,465 360.5,464.9 360.7,464.8 361.3,464.6 361.9,464.3 362.7,464.2 363,464 364.2,463.1 364.5,462.9 364.8,463
			365.1,463.3 365.2,463.7 365.4,463.9 365.7,464 367.3,464.2 367.6,464.3 367.9,464.5 368.1,464.7 368.4,464.8 369.7,464.6
			371.2,464.9 373.9,466.4 375.3,466.8 376.2,467 376.8,467.2 377.2,467.6 377.7,468.2 378.2,468.6 378.8,468.9 380.7,469.5
			381.2,469.6 381.6,469.4 382.6,468.5 383,468.3 383.6,468.1 384.4,468 387.6,466.5 388.4,466.8 389.7,466 390.1,465.8
			391.7,465.8 392.2,465.6 393.1,465.1 394.1,464.1 395.4,462.9 396.5,461.5 396.5,460.6 396.4,459.7 396.5,459.4 396.8,458.9
			405.9,449.4 409.4,446.2 411.2,444.4 412.1,442.6 412.8,439.7 413.4,438.5 418,431.5 419.4,430 421.2,428.9 429.6,425.3
			432.9,422.5 435.2,421 447.7,416.1 449.3,415.8 450.2,415.8 450.7,415.8 451,415.5 451.7,414.8 452,414.2 453.3,413.2
			453.8,412.7 454,411.4 454.1,411.1 455,409.7 455,408.9 454.4,407.4 454.3,406.8 454.4,406.1 455.2,404.2 454.6,403.2
			454.8,401.7 455.3,400.3 455.3,399.7 455.3,398.9 455.2,398.7 455,398.4 455,398.1 455.1,397.7 455.3,397.3 455.3,295.6 		"/>
		<path fill="#198A00" d="M606.8,241.7l-0.5-0.5l-0.6-0.1l-0.6,0.1h-0.6l-0.6-0.2l-0.1-0.3l0.5-1.1l0.2-0.6l0-0.4l-0.2-2.9l0.3-0.5
			l0.9,0.7l0.3-0.5l0-0.4l-0.1-0.4l0.1-0.5l0.2-0.2l0.5-0.2l0.2-0.2l0.1-0.2l-0.1-0.4l0-0.2l2.4-3.7l0.5-1l0.3-1L609,225l-0.8-0.8
			l-0.6-0.9l-0.5-1l-0.3-1l-0.2-2.1l-0.3-1.1l-0.5-0.4l-0.5,0.1h-0.4l-0.3-0.2l0-0.5l0.3-0.6l0.3-0.1l0.4,0.1l0.4,0l0.5-0.3l0.6-1
			l0.4-0.4l0.5-0.2l0.9-0.2l0.5-0.2l0.5-0.1l1.1,0.2l0.5,0l0.5-0.2l0.6-0.6l0.5-0.1l0.7-0.4l0.4-0.6l0.6-1.4l1.7-1.9l0.5-0.3
			l0.4-0.2l1.3-1l0.5-0.5l0.6-0.8l-0.1-0.6l-0.2-0.6v-0.9l-0.9-0.1l-0.5-0.6l-0.7-1.6l-0.3-0.3l-1-0.9l-0.3-0.4l-0.9-2.1l-0.1-0.8
			l0.2-1.9l-0.1-1.1l-0.5-0.6l-0.7-0.5l-0.6-0.8l-0.9-0.3l-0.6-0.5l-0.6-0.6l-0.7-0.6l-2.8-1.2l-0.5-0.6l0-0.9l0.2-0.9l0.6-1.6
			l1-1.6l0.3-0.7l-0.2-1l-0.2-0.4c-2.7,0.7-5.5,1.3-8.2,1.7c0,0.1,0.1,0.1,0.1,0.2c0,0.1,0.1,0.4-0.7,0.7c-0.5,0.3-5.3,3.5-12,3.7
			c1.4,0.4,1.6,0.6,1.8,1.1c0,0.1,0,0.2,0,0.2c-0.3,0.5-2.2,1.1-4.8,1.1c0.6,0.2,0.9,0.4,0.9,0.7c0,0,0,0.1,0,0.1
			c-0.1,0.2-0.4,0.4-1,0.7c-0.5,0.2-1.9,0.8-3.6,0.8c-0.7,0-1.4-0.1-2.2-0.4c2,1.4,3.1,2.4,3.2,3.2c0,0.2-0.1,0.5-0.2,0.6
			c0,0-0.1,0-0.1,0.1c-3,1.3-8.8-1.4-11.8-3.1c1.4,1.3,2.8,2.1,3.7,2.7c0.9,0.6,1.6,0.9,1.7,1.5c0.1,0.3,0,0.6-0.3,1
			c0,0-0.1,0.1-0.1,0.1c-0.5,0.2-1.1,0.3-1.7,0.3c-1.8,0-3.8-0.9-5.4-1.9c0.1,0.2,0.1,0.3,0.1,0.5c0,0.2-0.1,0.4-0.3,0.6
			c0,0-0.1,0.1-0.2,0.1c-2.1,0.1-4.2-1.3-5.5-2.3c0.1,0.1,0.1,0.3,0.2,0.4c0.9,1.4,1.6,1.8,2.2,2c0.4,0.2,0.8,0.4,1,0.8
			c0.1,0.1,0,0.3-0.1,0.4c-1.1,0.6-2.3-0.3-3.3-1c-0.4-0.3-0.8-0.6-1.2-0.8c-0.1,0.8,1.5,3.2,2.5,4.5c0.8,1.2,1,1.4,1,1.6
			c0,0,0,0.1,0,0.1c-0.1,0.1-0.2,0.2-0.4,0.2c-0.1,0-0.2,0-0.4,0c-0.1,0-1.7-0.3-3.4-1.3c0.1,0.7,0.1,1.3,0.1,1.4
			c0.1,0.1,0.5,0.4,2.4,0.4c0,0,0,0,0,0c1.5,0.2,2.1,1.6,2.2,2.4c0,0.3-0.1,0.5-0.3,0.6c-0.1,0-0.3,0-0.5-0.2
			c-0.3-0.5-1.5-1-1.9-1.1c-0.2,0-0.6,0.1-0.7,0.3c0,0,0,0.1,0,0.2c0.9,0.3,1.5,0.8,1.8,1.5c0.4,0.8,0.3,1.9-0.2,3.2
			c-0.5,1.4-2.3,1.4-2.3,1.4c-0.1,0-0.2-0.1-0.3-0.2c0-0.1,0-0.2,0-0.3c0.2-0.2,0.6-0.8,0.5-1.1c0-0.1,0-0.2-0.2-0.2
			c-0.6,0.1-1.2,0-1.6-0.3c-0.8-0.6-1-1.6-1-1.9c0,0-0.1-0.1-0.2-0.1c-0.1,0-0.3,0-0.5,0.2c0.3,1.6,0.2,2.8-0.4,3.7
			c-0.4,0.6-1,0.9-1.3,0.9c-0.1,0.3-0.2,1,0.4,1.5c0.1,0.1,0.1,0.2,0.1,0.3c0,0.1-0.1,0.2-0.3,0.2c0,0,0,0-0.1,0c-2,0-2-1.5-2.1-2.3
			c0-0.1,0-0.3,0-0.4c-0.2-0.1-0.3-0.3-0.4-0.5c-0.2-0.4-0.3-1-0.1-2c-0.6,0.5-1.2,0.7-1.6,0.8c-0.4,0-0.7,0-0.9,0
			c0,0.3,0,0.9,0.2,1.6c0,0.1,0,0.2-0.1,0.3c-0.1,0.1-0.2,0.1-0.3,0c-0.6-0.4-0.9-0.8-1.2-1.2c0,0.1,0,0.2,0,0.3
			c-0.2,1.1-1,1.8-1.3,2c0,0.3,0,1.2,0.7,1.9c0.1,0.1,0.1,0.2,0.1,0.3c0,0.1-0.1,0.2-0.3,0.2c0,0,0,0,0,0c-1.8-0.1-2.2-1.5-2.2-2
			c-0.4-0.2-1.2-0.8-1.7-2.2c-0.6,1.6-2.2,2-2.7,2.1c-0.1,0.2-0.1,0.7,0.3,1.2c0.1,0.1,0.1,0.2,0,0.3c-0.1,0.1-0.2,0.2-0.3,0.1
			c-0.7-0.1-1.2-0.5-1.5-1c-0.4-0.7-0.3-1.4-0.2-1.8c-0.2-0.2-0.4-0.5-0.5-0.9c-0.1-0.5,0.1-1.1,0.5-1.7c-2.1,1.1-3.5,0.9-4.1,0.8
			c-0.1,0.2-0.5,0.6-0.9,1.4c-0.1,0.1-0.2,0.2-0.3,0.1c-0.1,0-0.2-0.1-0.2-0.2c-0.2-1.3,0-1.9,0.1-2.1c0.1-1.3,1.2-3.7,4.7-3.7
			c1.1,0,2.1-0.4,2.7-1.1c0.7-0.7,1-1.5,1.1-2c-0.4,0.1-0.6,0.1-0.8,0c-0.3-0.2-0.3-0.7,0.2-3c0-0.2,0.1-0.5,0.1-0.8
			c-0.6,1.1-1.4,1.9-2,2.2c-0.4,0.2-0.7,0.3-0.9,0.1c-0.1-0.1-0.2-0.2-0.2-0.4c0,0,0,0,0,0c0.3-1.1,0.5-2.1,0.7-3.1
			c0.1-0.8,0.3-1.5,0.4-2.2c0.2-0.7,0.4-1.4,0.7-2c-0.4,0.5-0.7,0.8-0.9,0.9l0,0c-0.1,0.1-0.3,0.1-0.4,0c-0.2-0.2-0.2-0.4,0.1-1.3
			c0.1-0.2,0.1-0.5,0.2-0.7c-1.1,0.4-3.8,0.9-6.2,0.4c-1.7-0.3-2.9-1.1-3.6-2.1c0,0,0-0.1,0-0.2c0-0.6,0.8-1.3,1.9-2
			c-0.5,0.2-1,0.3-1.5,0.5c-3.8,1.1-6.1,1.4-7,0.9c-0.3-0.2-0.4-0.5-0.4-0.8c0-0.1,0-0.1,0-0.2c0-0.3,0.5-0.8,1.4-1.5
			c-0.5,0.3-0.9,0.5-1,0.5c-0.1,0-5.6,1.8-6.8,0.1c0,0,0,0,0,0c-0.1-0.2-0.2-0.3,1.4-1.2c-2.2,0.5-5.6,1.1-7.1-0.2
			c-0.1-0.1-0.1-0.2-0.1-0.3c0-0.2,0.3-0.5,1.5-1.2c-0.6,0.2-1.1,0.3-1.7,0.4c-1.6,0.2-3.1,0.2-4.1,0c-2-0.4-3.8-1.6-3.8-2.2h0
			c0-0.3,0.2-0.4,1.8-0.8c1.3-0.3,3.1-0.8,4.4-1.4c-4.2,1.1-7.8,1.6-10.9,1.2c-2.7-0.3-4.2-1.1-4.8-1.8c-0.2-0.2-0.3-0.5-0.2-0.6
			c0.1-0.2,0.4-0.3,2.1-0.5c0.5-0.1,1.2-0.1,1.3-0.2v0c0.1-0.1,0.6-0.2,2.1-0.7c-2.2,0.5-4.5,0.8-6.3,0.7c-4.5-0.3-6.9-1.7-7.4-2.4
			c-0.1-0.2-0.1-0.3-0.1-0.4c0.1-0.3,0.5-0.5,3.5-0.8c0.2,0,0.3,0,0.4,0c0.2,0,1-0.2,2-0.5c-7.6,0.4-9.7-1.3-10.2-2
			c-0.2-0.3-0.3-0.6-0.2-0.8c0.1-0.2,0.1-0.3,1.9-0.5c0.1,0,0.3,0,0.6-0.1c-12.9-3.1-17.1-8-17.5-10.4c-0.1-0.5,0-0.7,0.2-0.8
			c0.4-0.3,0.8,0.1,1.6,0.6c0.7,0.5,1.6,1.2,2.8,1.9c0.1,0,0.2,0.1,0.3,0.1c-2.5-1.6-4.3-4.6-4.4-5.8c0-0.4,0.1-0.5,0.3-0.6
			c0.5-0.3,1.4,0.3,3.3,1.7c0.8,0.6,1.7,1.3,2.6,1.9c-2.6-2.2-3.9-4.8-4.2-6.8c-0.1-0.6-0.2-1.3,0.1-1.6c0,0,0.1,0,0.1-0.1
			c0.6-0.2,1.6,0.7,3.2,2.2c1.1,1,2.3,2.1,2.9,2.2c0.1,0,0.1,0,0.1,0.1c0.5,0.5,1.9,1.2,6.7,3.2c-2.4-1.9-8-7.3-6.7-9.8c0,0,0,0,0,0
			c0.4-0.5,1.2,0,3,1c1.5,0.9,3.4,1.9,5.3,2.6c5.3,2.1,10.5,4.3,16.2,7.3c-0.2-0.2-0.5-0.5-0.7-0.7c-2.9-2.9-4.3-4.4-4.1-5.1
			c0-0.2,0.1-0.3,0.3-0.4c0.6-0.4,2.2,0.4,6.2,2.2c4.1,1.9,9.7,4.5,15.2,5.9c0.4,0.1,1,0.1,1.6,0.2c3.9,0.6,10.7,1.5,14.6,2.7
			c0,0,0-0.1,0-0.1c1.6-7.1,5.6-9.6,8.7-10.5c2.3-0.6,4.4-0.4,5.7-0.1c1.6,0.4,3,1,3.9,1.9c3.8,0.4,5.8,1.3,6,2.8
			c0.2,1.3-1.3,2.6-2.2,2.9c-0.1,0-0.2,0-0.3-0.1c-0.1-0.1-0.1-0.2-0.1-0.3c0.1-0.5,0.1-0.9,0-1.2c-0.1-0.2-0.2-0.3-0.4-0.4
			c0,0.1-0.1,0.1-0.1,0.1c-0.7,0.3-1.1,0.3-1.7,0.3c-0.3,0-0.6,0-1,0.1c-0.4,0.1-1.7,0.3-2.4,1.5c-0.6,1-0.4,2.4,0.4,4.1
			c0,0,0,0,0,0l0,0.1c0,0.1,0.1,0.3,0.2,0.4c0.4-0.2,4.2-1.9,17.7-1c1.2,0.1,7.1-1.7,10.3-2.7c0.7-0.2,1.3-0.4,1.8-0.6c0,0,0,0,0,0
			c1.5-0.3,4-0.7,6.8-1.4l-1.5-0.1l-2.9-0.6l-1.3-0.1l-0.5-0.3l-0.5-0.7l-0.7-1.6l-0.4-0.5l-1.2-0.8l-1.4-0.3l-4.5,0.1l-0.7-0.1
			l-0.7-0.2L569,156l-1.3-1.3l-0.7-0.4l-0.3,0l-0.7,0.2l-0.3,0l-0.4-0.1l-1-0.6l-0.9-0.1L563,154l-0.5,0.4l-0.7,0.3l-1.4-0.3
			l-0.7-1.4l0-1.7l0.6-1.4l-5.1-1.4l-0.8,0.1l-1.2,0.6l-0.7,0.2l-0.7,0l-0.6-0.2l-3.3-2.5l-0.8-1.1l-0.3-1.5v-1.3l-0.2-0.9l-0.7-0.6
			l-1.3-0.4l-0.5-0.3l-0.7-0.8l-0.5-0.3l-0.5,0l-0.5,0l-0.4,0l-0.5-0.3l-0.1-0.2l-0.1-0.6l-0.1-0.2l-0.3-0.2l-0.1,0l-0.1,0.1
			l-0.2,0.1l-0.4,0.1l-1.8,0.6l-0.3,0.2l-0.3,0.1l-0.4-0.1l-0.4-0.3l-0.6-0.9l-0.4-0.3h-0.8l-0.7,0.4l-0.7,0.5l-0.7,0.4l-1.4,0
			l-1.5-0.6l-1.4-0.8l-1.1-0.9l-2.3-2.5l-2.2-3.1l-1.7-3.4l-0.9-3.3l-5.8,0.9l-8.8,1.3l-6.9,1.1l-9.1,1.4l-9.1,1.4l-7.8,1.2
			l-5.4,0.8l-5.9,0.9L457,134l-0.9,0.3l0.1,0.6l1.5,3.1l-0.2,3.1l-1.3,3l-4.4,5.8l-5.7,5.6l-3.2,2.3l-3.1,1.5l-1.5,1l-0.7,1.3
			l0.5,1.3l1.5,0.6l1.7,0.3l1.2,0.6l0.7,0.9l0.1,0.7l-0.1,0.6l-0.1,0.5l0.2,0.5l0.4,0.4l0.8,0.6l0.2,0.4l0.1,0.4l0.1,0.4l0,0.6
			l0.2,0.5l0.4,0.2l1.1,0l-0.2,0.3l-0.8,0.3l-0.2,0.2l0.1,0.3l0.6,0.7l0.2,0.5l0.1,0.3l0.3,0.7l0.1,0.4l0,1.6l0.2,0.7l0.5,0.7
			l0.3,0.2l0.3,0.1l0.2,0.2l0.1,0.5l0.9,0.9l-0.1,0.2l-0.6,0.3l-0.3,0.6l-0.3,1.5l-1.1,2.2l-0.1,0.7l0.2,2.5l-0.1,2.8l-0.3,1.3
			l-0.5,1.1l-0.8,1l-0.3,0.6l1.2,1l0.1,0.2l0.1,0.4l0.1,0.2l0.1,0.1l0.3,0.2l0.1,0l0.2,0.7l-0.1,0.5l-0.2,0.6l-0.1,0.7l0.1,0.9
			l0.3,0.6l0.3,0.5l0.2,0.7l0,0.4l0,0.4l-0.1,0.4l-0.2,0.3l-0.1,0.3l0.3,0.5l-0.1,0.3l0,0.5l0.4,0.6l0.8,0.9l0,0.4l-0.2,0.7
			l-0.1,0.4l0.2,0.3l0.8,0.6l0.2,0.2l-0.2,0.7l-0.4,0.6l-0.5,0.5l-0.5,0.4l-0.2,0.1l-0.4,0l-0.2,0.1l-0.1,0.2l-0.5,0.8l-0.2,0.8
			l-0.3,0.3l-0.6,0.6l-0.4,0.7l-0.3,0.8l-0.2,0.8v1.5l-0.1,0.4l-0.3,0.7l-0.1,0.4l-0.1,0.4l-0.6,0.6l-0.2,0.3l0,0.3l0.1,0.7l0,0.4
			l-0.1,0.4l-0.4,0.8l-0.5,0.7l0,0.3l0.4,1.8l0,0.4l-0.1,0.3l-0.3,0.4l-0.1,0.2l0,0.4l0,1.2l-0.6,1.3l-0.3,0.4l-0.3,0.5l-0.1,0.8
			l0.3,1.3l-0.2,0.1l-0.8,0.6l-0.1,0.1l-1.8,2.6l-0.1,0.6l0,1.9l0.2,0.5l0.2,0.3l0.4,1l0.3,0.4l0.5,0.5l0.2,0.3l0.6,2.1l0,0.3
			l-0.1,0.1l0.2,0.3l0.5,0.5l0.1,0.4l0.3,2.4l0.3,0.4l0.6,0.2l0.4,0.4l0.3,1.7l0.4,0.5l0.5-0.2l0.4,0l0.3,0.2l0.3,0.3l0.2,0.2
			l0.4,0.7l0.1,0.3l0.8-0.5l0.5,0.3l0.6,1.3l0.4,0.3l1.7,0.9l0.7,0.2l1.2-0.2l0.3,0.3l0.1,1l0.2,0.5l0.5,0.4l1.2,0.6l0.4,0.4
			l0.5,0.6l0.4,0.7l0.1,0.6l0.3,0.4l0.3,0.2v-15.2h62.8H581h26.3l-0.2-3.5L606.8,241.7z"/>
		<polygon fill="#EF7D00" points="581,333.8 582.2,333.4 588,331.4 593.8,329.4 598.1,328 601.1,326.9 603.6,326.1 603,325.4
			602,323.4 601.5,323 601.1,323.2 600.8,324.1 600.5,324.4 599.3,324.7 598.8,325 598.4,325.5 597.3,327.2 596.7,327.4
			595.9,326.3 595.7,325.8 595.8,324.1 595.9,323.8 595.9,323.7 595.7,323.4 595.4,323.2 594.8,323.3 594.5,323 594.3,322.5
			594.2,322 594.1,321.4 592.4,319.3 591.9,318.9 590.8,318.5 589.6,318.2 588.6,317.8 588.4,316.9 588.7,316.5 590,315.9
			590.3,315.5 590.1,315.1 588.8,313.2 587.9,312.8 586.6,312.8 585.6,312.6 585.2,311.5 585.3,310.8 585.6,310.5 586.1,310.5
			586.8,310.7 587.2,310.7 588.1,309.9 588.6,309.6 589.8,309.4 590.3,309.1 590.4,308.3 590.4,307.7 590.5,307.1 590.8,306.7
			591.4,306.6 592.4,306.1 593,304.8 593.9,300.9 594.6,299.6 595.4,298.5 596.4,298.2 596.6,297.7 596.5,297.3 596,296.5
			595.7,295.9 595.6,295.3 595.5,294.7 596,290.9 597,288.7 597.1,287.8 596.8,286.9 596,286.1 595.1,285.6 594.9,285.2
			594.7,282.6 594.8,282 595.2,281.1 596.5,279.2 597.5,277.2 597.9,276.7 598.4,276.3 598.6,276.1 598.9,276.2 599.1,276.4
			599.2,276.7 599.5,276.9 599.8,276.7 600.1,276.5 600.3,276.3 600.9,276.2 601.1,276.1 601.5,276.2 601.7,276.5 602.1,277.3
			602.3,277.4 602.6,277.4 602.8,277.2 602.9,277 603.1,276.8 603.3,276.7 603.4,276.6 603.6,276.4 604,276.3 604.4,276 605,274.8
			605.4,274.3 605.7,274.2 606.6,274.1 607,274.1 607.4,274.3 607.6,274.5 607.9,274.5 608.7,274.4 609.4,273.9 610.1,273.2
			610.7,272.4 611.1,272 612.1,271.6 612.4,271.2 612.4,270.3 612.6,270.1 613.1,270 613.4,269.4 614.4,268.8 614.7,268.2
			614.7,267.5 614.3,267.4 613.7,267.4 612.4,266.9 609.8,267.7 608.6,267.2 608,266.2 607.4,263.8 606.9,262.7 606.5,262.2
			605.6,261.3 605.3,260.7 605.3,259.5 605.4,258.4 606.7,255.2 607.1,253.4 607.3,252.9 607.4,252.3 607.2,251.8 606.9,251.1
			606.8,250.5 607.3,249.2 607.4,247.9 607.3,245.7 581,245.7 		"/>
		<polygon points="518.2,245.7 518.2,354 522,352.6 525.4,351.8 530.2,350.7 530.8,350.6 534.4,349.8 538.8,348.7 542.3,347.8
			545.3,346.7 548.4,345.1 550.8,343.8 555.7,342.2 560.2,340.7 563.6,339.6 566.2,338.4 567.5,338 570.2,337.5 573.4,336.4
			577,335.2 581,333.8 581,245.7 		"/>
		<polygon fill="#DE2010" points="455.3,245.7 455.3,260.9 457.1,261.9 458,263 460.8,268.1 460.8,268.5 460.9,268.9 461.1,269
			461.3,269 461.7,269.2 462.2,269.2 462.7,268.9 463.3,268.8 463.7,269.5 464.2,269.2 465,268.8 465.8,268.6 468.6,268.6
			468.9,268.7 469.5,269.4 470,269.8 470.3,269.9 470.7,270 472.1,270 472.3,270.1 473.7,270.9 474.7,271.2 474.9,271.2
			475.4,271.2 475.6,271.2 475.8,271.3 475.9,271.4 476,271.6 476.3,271.7 476.9,271.6 477.5,271.3 477.8,270.8 477.9,270.1
			477.8,269.5 477.4,269.3 476.8,269.3 476.3,269.1 475.3,267.8 475.1,267.5 475.2,267.2 475.3,266.9 475.5,266.1 475.9,264.7
			476.1,264.3 476.6,263.9 478.1,263.4 478.8,263 479.3,262.5 479.6,262.4 480.1,262.4 480.5,262.5 481.1,263.1 481.5,263.4
			482.1,263.2 483.8,262.4 485,261.6 485.7,261.3 487.2,261.2 487.2,261.4 487.2,265.1 487.2,269.1 487.2,274.9 487.2,280.1
			487.2,286.2 487.2,291.4 487.2,296.4 487.2,301.6 487.1,305.5 486.6,306.6 486.1,306.7 483.9,306.6 482.5,306.3 481.8,306
			481.3,305.7 481,305.4 480.8,305 480.6,304.6 480.4,304.2 480.4,303.7 480.7,303.5 481,303.5 481.2,303.4 481.3,303 481.2,302.3
			481.3,302 481.5,301.8 482.1,301.6 482.4,301.5 482.6,301.2 482.7,300.8 482.7,300.5 482.7,300.1 482.3,299.7 482.1,299.7
			481.8,299.8 481.4,299.8 480.7,299.4 480.1,298.9 479.5,298.5 478.7,298.5 477.9,298.8 475.9,300.7 475.2,301.1 470.4,303
			468.4,304.3 467.6,304.6 467.2,304.9 466.5,305.7 466.2,305.9 465.6,305.8 465.3,305.4 465.1,304.9 464.8,304.4 464,304.1
			463.2,304.1 462.4,304.2 461.5,304.2 460.8,304.5 460.2,304.6 459.7,304.5 459.2,303.9 458.2,302.9 457.6,301.5 456.6,296.3
			456.2,295.8 455.9,295.7 455.3,295.6 455.3,397.3 455.5,397 455.7,396.8 456.4,395.8 457.5,394.7 458.2,394.4 458.9,394.3
			460.5,394.2 461.3,394.1 461.7,393.7 462.5,392.3 462.8,391.9 463.4,391.4 464,391 464.7,390.8 465,390.7 466.2,389.4
			473.8,385.9 474.3,385.8 477.2,385.5 477.9,385.1 479.1,384.1 479.9,383.8 480.7,383.9 481.3,384.1 482,384.2 482.9,384.1
			484.8,383.4 486.3,383.2 487.7,382.6 488.5,382.4 490,382.5 492.9,383.3 494.4,383.5 495.8,383.3 497.1,382.9 498.5,382.7
			499.9,383 500.7,383.6 501.1,383.7 501.7,383.6 502,383.4 502.5,383 502.8,382.9 503.6,383 505.3,383.7 506.3,383.7 507.6,383.1
			508.1,382.9 508.2,382.9 507.8,381.8 507.6,381.5 506.6,380.5 506.6,380 506.8,379.2 507.4,378 507.5,377.7 507.4,377.3
			506.9,376.6 506.8,376.2 506.7,373.9 506.5,373.2 506.3,372.5 506,371.9 505.5,371.5 505,371.3 503.9,370.5 503.1,368.9
			501.8,364.5 501.6,362.9 501.6,361.4 501.4,360.3 501.4,360.1 502,359.9 505,359.6 507.5,358.3 510.7,356.7 514.3,355.4
			517.2,354.3 518.2,354 518.2,245.7 		"/>
		<polygon fill="#DE2010" points="455.5,399.1 455.4,398.9 455.3,398.9 455.3,399.7 		"/>
		<path fill="#EF7D00" d="M578.7,191.6c2.6,1.1,5.5-0.1,6.3-0.6c-0.4-0.2-1.6-0.5-2.8-0.8c-0.1,0-0.1,0-0.2,0
			c-2.3-0.3-4.8-0.9-7.3-2.1c-0.1,0-0.1-0.1-0.1-0.2c-0.7-0.1-1.4-0.2-2-0.3c1,0.9,2.2,1.8,3.5,2.7
			C577.4,190.9,578.3,191.4,578.7,191.6z"/>
		<path fill="#EF7D00" d="M568.3,185C568.3,185,568.3,185,568.3,185l2.7,1.3l1.6-2.4c-1-0.6-2-1.2-3.1-1.9c-2.4-1.5-8.9-5.5-9-5.9
			c-0.1-0.1,0-0.2,0.1-0.3c0.2-0.2,0.2-0.2,1.7,0.8c2.7,1.6,6.9,4.1,11.2,6l1.6-2.4c-3.1-1.4-6.5-3.4-10-6.3c0,0,0-0.1-0.1-0.1
			c-1,0-2.3,0-3.5-0.1c0.1,0.1,0.1,0.2,0.1,0.3c0,0.5-0.6,0.7-0.7,0.7c0,0,0,0,0,0c-0.1,0-0.8,0.1-1.9,0.1c-0.9,0-1.9-0.1-3-0.4
			C556.6,176.1,564.6,182.7,568.3,185z"/>
		<path fill="#EF7D00" d="M589.1,189c-0.3-0.3-1.2-0.6-3.8-1.2c-1.8-0.2-3.8-0.6-5.8-1.4c-0.1-0.1-0.2-0.2-0.2-0.3
			c0-0.1,0.2-0.2,0.3-0.2c1.6,0.4,3,0.7,4.1,1c0.6,0.1,1.1,0.3,1.6,0.4c8.1,0.8,14.2-3.4,14.2-3.5c0,0,0.1,0,0.1,0c0,0,0,0,0,0
			c-0.2,0-0.6,0-1.2,0c-3.4,0.4-6.7,0.6-9.6,0.7c0,0.1,0,0.2,0,0.2c-1,1.3-2.5,1.8-4.5,1.8c-3.1,0-7.3-1.4-11.4-3.3l-0.2,0.3
			c3.4,2,6.3,3.5,6.8,3.4c0.1,0,0.2,0,0.3,0.1c0.1,0.1,0.1,0.2,0,0.3c-0.4,0.5-1.4,0.8-2.9,0.8c0,0-0.1,0-0.1,0c-0.2,0-0.4,0-0.6,0
			c2.1,0.7,4.1,1.2,5.6,1.5C585.6,190,588.4,189.4,589.1,189z"/>
		<path fill="#EF7D00" d="M590.6,171.7c0.3,0.2,0.6,0.4,0.9,0.7c0,0,0.1,0.1,0.1,0.1c0.1,0.2,0,0.4-0.1,0.6
			c-0.6,0.6-3.3,0.5-4.7,0.4c1.6,0.5,1.8,0.7,2,1.4c0,0.1,0.1,0.4-0.3,0.6c-1.1,0.5-5.8,0.2-9.7-0.6l-0.4,0.6c0.3,0.2,0.6,0.3,1,0.5
			c0.7,0.3,1.4,0.6,2,1c1,0.1,4.4,0.1,5.6-0.1c0.2,0,0.3,0.1,0.3,0.2c0,0.2-0.1,0.3-0.2,0.3c-0.8,0.1-2.5,0.1-3.9,0.1
			c-0.7,0-1.2,0-1.6,0c0,0,0,0,0,0c-1.7,0.7-3.4,0.9-5.1,0.8l-0.9,1.4c3.9,1.7,7.2,2.5,9.6,3.1c1.6,0.4,2.8,0.7,3.5,1.1
			c0-0.1,0.1-0.1,0.2-0.1c5.2-0.5,8.2-0.7,9.8-0.7c3.3-0.4,6.8-1,10.1-1.9l-0.2-0.4l-0.2-0.3l-1.3-0.5l-0.4-0.2l-0.4-0.4l-0.3-0.4
			l0-0.1c0,0,0,0,0,0c-6.8,1.7-15.2,2.3-24.7,0c-0.2,0-0.2-0.2-0.2-0.3c0-0.2,0.2-0.2,0.3-0.2c9.5,2,17.6,1.5,24.3,0l-0.2-0.4
			l-0.4-0.4l-0.9-0.5l-0.3-0.5l-0.1-0.5l0.1-0.3l0.2-0.3l0.1-0.4l0-0.5l-0.2-0.5l-0.5-0.9l-0.7-0.5l-1.8-0.1l-0.8-0.4l-0.2,0.9
			l-0.1,1l-0.3,0.6l-0.8-0.3l-0.2-0.3l-0.1-0.4l-0.1-0.4l-0.4-0.2l-0.5,0.1l-0.4,0.3l-0.4,0.2l-0.4-0.1l-0.4-0.9l0-0.2
			c-0.1,0-0.1,0-0.2,0c-1.7,0.5-3.5,1-5.4,1.4c-0.2,0-0.3-0.1-0.3-0.2c0-0.2,0.1-0.3,0.2-0.3c1.9-0.5,3.8-1,5.5-1.4
			c0.1,0,0.2-0.1,0.3-0.1l0.3-1.1C594.4,171.7,592.4,171.9,590.6,171.7z"/>
		<path fill="#EF7D00" d="M594,168.2l0-0.1c-0.1,0-0.2-0.1-0.3-0.2c0-0.2,0.1-0.3,0.2-0.3c0,0,0,0,0,0l-0.1-1.4l-0.5-0.3l-2.2-0.8
			c-2,0.6-4.4,1.3-6.6,1.9C586.1,167.2,590.3,167.9,594,168.2z"/>
		<path fill="#EF7D00" d="M578,175.9c-1.2-0.6-2.5-1.3-4.1-2.4c-0.4-0.2-0.6-0.4-0.8-0.6c-0.1-0.1-0.1-0.3,0-0.4
			c0.1-0.1,0.3-0.1,0.4,0c0.3,0.2,0.5,0.4,0.8,0.5c0.9,0.4,2.7,0.9,4.8,1.2l1.4-2c-0.4-0.1-0.7-0.3-1-0.4c-0.1-0.1-0.2-0.2-0.1-0.4
			c0.1-0.1,0.2-0.2,0.3-0.2c0.4,0.1,0.8,0.2,1.2,0.3l3-4.5c-0.1,0-0.1-0.1-0.1-0.2c-1.8,0.4-3.5,0.7-5,0.9c0.2,0.1,0.3,0.3,0.4,0.4
			c0.1,0.3,0.1,0.6-0.1,0.9c-0.8,1-3.5,1.6-7.3,1.1c1.4,0.9,1.6,1.3,1.5,1.6c0,0.3-0.3,0.5-0.5,0.5c0,0,0,0,0,0
			c-0.2,0-3.3,0.1-5.9-0.2c0.3,0.2,0.3,0.5,0.3,0.6c0,0.5-0.5,0.7-0.6,0.7c0,0,0,0-0.1,0c0,0-0.2,0-0.5,0c3,1.9,6.9,3.9,10.9,4
			L578,175.9z"/>
		<path d="M588.7,183.8c-0.1,0-0.1,0.1-0.2,0.1c0.2,0.1,0.3,0.2,0.4,0.3c0,0,0,0.1,0,0.1c2.9-0.1,6.2-0.3,9.6-0.7c0.6,0,0.9,0,1.2,0
			c0,0,0,0,0,0c0,0-0.1,0-0.1,0c-0.1,0.1-6.1,4.3-14.2,3.5c-0.5-0.1-1-0.3-1.6-0.4c-1.1-0.3-2.5-0.6-4.1-1c-0.1,0-0.3,0-0.3,0.2
			c0,0.1,0,0.3,0.2,0.3c2,0.8,3.9,1.3,5.8,1.4c2.6,0.7,3.5,0.9,3.8,1.2c-0.6,0.5-3.5,1-7,0.6c-1.6-0.4-3.5-0.8-5.6-1.5
			c-0.6,0-1.2-0.1-1.8-0.2c0,0.1,0.1,0.1,0.1,0.2c2.5,1.2,5,1.9,7.3,2.1c0.1,0,0.1,0,0.2,0c1.2,0.3,2.4,0.6,2.8,0.8
			c-0.7,0.5-3.7,1.6-6.3,0.6c-0.4-0.2-1.4-0.7-2.7-1.3c0.4,0.3,0.8,0.6,1.2,0.8c0.6,0.4,1.2,0.8,1.7,1.2c0.7,0.2,1.5,0.4,2.2,0.4
			c1.7,0,3.1-0.5,3.6-0.8c0.6-0.3,0.9-0.5,1-0.7c0,0,0-0.1,0-0.1c0-0.3-0.3-0.5-0.9-0.7c2.6,0,4.5-0.6,4.8-1.1c0-0.1,0.1-0.2,0-0.2
			c-0.1-0.4-0.4-0.7-1.8-1.1c6.7-0.1,11.5-3.3,12-3.7c0.8-0.3,0.8-0.6,0.7-0.7c0-0.1,0-0.1-0.1-0.2c2.7-0.4,5.5-0.9,8.2-1.7
			l-0.2-0.5c-3.3,0.9-6.8,1.5-10.1,1.9C596.9,183.1,593.9,183.3,588.7,183.8z"/>
		<path d="M581.2,178.5c-0.2,0-0.3,0.1-0.3,0.2c0,0.2,0.1,0.3,0.2,0.3c9.5,2.3,17.9,1.7,24.7,0c0,0,0,0,0,0l-0.3-0.5
			C598.8,180,590.7,180.5,581.2,178.5z"/>
		<path d="M593.8,167.9c0,0.1,0.1,0.2,0.3,0.2l0-0.5c0,0,0,0,0,0C593.8,167.6,593.7,167.7,593.8,167.9z"/>
		<path d="M590.2,173.6c-0.2,0-0.2,0.2-0.2,0.3c0,0.2,0.2,0.2,0.3,0.2c1.8-0.4,3.6-0.9,5.4-1.4c0.1,0,0.1,0,0.2,0l0.2-0.6
			c-0.1,0-0.2,0.1-0.3,0.1C594,172.6,592.1,173.1,590.2,173.6z"/>
		<path fill="#EF7D00" d="M539.7,206.9c-4,0-4.2,3.1-4.2,3.3c0,0.1,0,0.1-0.1,0.2c0,0-0.1,0.2-0.1,0.9c0.4-0.6,0.7-0.9,0.7-0.9
			c0.1-0.1,0.2-0.1,0.2-0.1c0,0,0.1,0,0.1,0c0.6,0.1,2.4,0.4,5.3-1.6c0.1-0.1,0.3-0.1,0.4,0c0.1,0.1,0.1,0.3,0,0.4
			c-1.4,1.3-1.6,2.2-1.6,2.7c0.1,0.4,0.4,0.6,0.4,0.6c0.1,0.1,0.2,0.2,0.1,0.3c0,0-0.3,0.9,0.1,1.5c0.1,0.2,0.3,0.4,0.5,0.5
			c-0.2-0.7,0-1.2,0.1-1.3c0-0.1,0.1-0.1,0.2-0.2c0.1,0,2.7-0.3,2.6-3.3c0,0,0-0.1,0-0.1c0-0.2,0.1-0.3,0.3-0.3
			c0.2,0,0.3,0.1,0.3,0.3c0,0,0,0.1,0,0.1c0.2,2.8,1.8,3.5,1.8,3.5c0.1,0,0.2,0.1,0.2,0.3c0,0,0,1,0.9,1.4c-0.5-0.9-0.3-1.8-0.3-1.8
			c0-0.1,0.1-0.1,0.1-0.2c0,0,0.9-0.6,1.1-1.7c0.1-0.8-0.1-1.6-0.8-2.5c0-0.1-0.1-0.2,0-0.2c0-0.1,0.1-0.1,0.1-0.2
			c0.3-0.2,0.6-0.4,0.9-0.7c0.1-0.5,0.2-1,0.5-1.4c0.1-0.1,0.2-0.2,0.3-0.3c-0.6-0.3-1.5-0.7-2-1c0,0-0.1-0.1-0.1-0.1
			c-0.4-0.8-0.2-4.1-0.1-5c-0.4-0.5-0.8-1.1-1-1.6c-0.4,1.6-1.5,3.4-2.4,4.3l-0.1,0.2C544.1,203.9,543.2,206.9,539.7,206.9z"/>
		<path d="M548.7,208.8c0.1-0.1,0.2-0.2,0.3-0.3c0-0.3,0-0.5,0-0.7c-0.3,0.3-0.6,0.5-0.9,0.7c-0.1,0-0.1,0.1-0.1,0.2
			c0,0.1,0,0.2,0,0.2c0.7,0.9,0.9,1.7,0.8,2.5c-0.2,1.1-1.1,1.7-1.1,1.7c-0.1,0-0.1,0.1-0.1,0.2c0,0-0.2,0.9,0.3,1.8
			c-0.9-0.4-0.9-1.3-0.9-1.4c0-0.1-0.1-0.2-0.2-0.3c0,0-1.6-0.7-1.8-3.5c0,0,0-0.1,0-0.1c0-0.2-0.1-0.3-0.3-0.3
			c-0.2,0-0.3,0.1-0.3,0.3c0,0,0,0.1,0,0.1c0.1,3-2.5,3.3-2.6,3.3c-0.1,0-0.2,0.1-0.2,0.2c0,0-0.3,0.6-0.1,1.3
			c-0.2-0.1-0.4-0.3-0.5-0.5c-0.4-0.6-0.1-1.5-0.1-1.5c0-0.1,0-0.3-0.1-0.3c0,0-0.3-0.2-0.4-0.6c-0.1-0.5,0.2-1.3,1.6-2.7
			c0.1-0.1,0.1-0.3,0-0.4c-0.1-0.1-0.3-0.1-0.4,0c-2.8,2-4.7,1.7-5.3,1.6c0,0-0.1,0-0.1,0c-0.1,0-0.2,0-0.2,0.1c0,0-0.2,0.2-0.7,0.9
			c0-0.7,0.1-0.9,0.1-0.9c0.1-0.1,0.1-0.1,0.1-0.2c0-0.1,0.2-3.3,4.2-3.3c3.5,0,4.4-3,4.4-4l0.1-0.2c-0.2,0.2-0.5,0.4-0.7,0.5
			c0,0,0,0-0.1,0c-0.1,0.5-0.4,1.3-1.1,2c-0.7,0.7-1.6,1.1-2.7,1.1c-3.6,0-4.6,2.4-4.7,3.7c-0.1,0.2-0.3,0.8-0.1,2.1
			c0,0.1,0.1,0.2,0.2,0.2c0.1,0,0.2,0,0.3-0.1c0.5-0.8,0.8-1.2,0.9-1.4c0.6,0.1,2,0.3,4.1-0.8c-0.4,0.6-0.6,1.2-0.5,1.7
			c0.1,0.5,0.3,0.8,0.5,0.9c-0.1,0.3-0.2,1.1,0.2,1.8c0.3,0.5,0.8,0.8,1.5,1c0.1,0,0.2,0,0.3-0.1c0.1-0.1,0.1-0.2,0-0.3
			c-0.4-0.5-0.4-1-0.3-1.2c0.5-0.1,2.1-0.5,2.7-2.1c0.5,1.4,1.3,2,1.7,2.2c0.1,0.5,0.4,1.8,2.2,2c0,0,0,0,0,0c0.1,0,0.2-0.1,0.3-0.2
			c0-0.1,0-0.2-0.1-0.3c-0.8-0.6-0.8-1.5-0.7-1.9c0.3-0.2,1.1-0.9,1.3-2c0-0.1,0-0.2,0-0.3c-0.3-0.5-0.3-1-0.3-1.8
			C548.9,209.3,548.8,209.1,548.7,208.8z"/>
		<path d="M547.8,205c0,0,0.1,0.1,0.1,0.1c0.5,0.4,1.4,0.8,2,1c0.2-0.1,0.4-0.3,0.6-0.4c-0.5-0.2-1.6-0.7-2.2-1.1
			c-0.2-0.5-0.1-2.5,0-4c-0.2-0.2-0.4-0.4-0.5-0.7C547.6,200.9,547.4,204.2,547.8,205z"/>
		<path fill="#EF7D00" d="M571.5,188c1.5,1.2,2.7,2,2.4,2.8c0,0.1-0.1,0.2-0.2,0.2c-0.2,0-0.4,0-0.6,0c-2.8,0-6.1-1.6-8.8-3.5
			c1.5,1.6,2.4,2.6,2.3,3.3c0,0.2-0.2,0.4-0.7,0.5c-1.2,0.2-4.3-0.8-7.1-2.7c1.1,1.7,1.7,3.4,2.2,4.8c0.1,0.3,0.2,0.6,0.3,0.9
			c0.6,0.6,3.2,3,5.8,3c0,0,0.1,0,0.1,0c0-0.1,0.1-0.1,0.1-0.1c0-0.5-1-1.3-1.6-1.8c-0.7-0.5-1-0.8-1-1.1c0-0.1,0.1-0.2,0.2-0.3
			c0,0,0.1,0,0.1,0c0.1,0,0.1,0,0.2,0.1c0.6,0.5,6.1,5,9.4,3.7c0.1-0.2,0.2-0.3,0.2-0.5c-0.1-0.3-0.7-0.7-1.4-1.1
			c-1.3-0.7-3.2-1.9-5.3-4.2c-0.1-0.1-0.1-0.3,0-0.4c0.1-0.1,0.2-0.1,0.4-0.1c1,0.6,3.6,2.1,6.4,3.2c2.9,1.1,5.2,1.4,6.6,0.9
			c0,0,0-0.1,0-0.1c-0.1-0.8-2.4-2.4-4.6-4c-1.9-1.4-4.1-2.9-5.5-4.3c-0.5-0.2-0.8-0.3-1-0.5c0,0,0-0.1,0-0.2l-1.3-0.6
			C569.8,186.7,570.7,187.4,571.5,188z"/>
		<path d="M568.3,185C568.4,185,568.4,185,568.3,185c0.3,0.4,0.5,0.7,0.8,1l1.3,0.6c0-0.1,0-0.2,0.1-0.2c0.1-0.1,0.2,0,0.3,0
			l0.1-0.2L568.3,185z"/>
		<path d="M577.2,191.1c-0.4-0.3-0.8-0.5-1.2-0.8c-1.2-0.9-2.5-1.8-3.5-2.7c-0.4-0.1-0.8-0.2-1.1-0.3c1.3,1.4,3.5,2.9,5.5,4.3
			c2.2,1.6,4.6,3.2,4.6,4c0,0.1,0,0.1,0,0.1c-1.4,0.6-3.6,0.3-6.6-0.9c-2.8-1.1-5.4-2.6-6.4-3.2c-0.1-0.1-0.3,0-0.4,0.1
			c-0.1,0.1-0.1,0.3,0,0.4c2,2.3,4,3.5,5.3,4.2c0.8,0.4,1.3,0.8,1.4,1.1c0,0.1,0,0.3-0.2,0.5c-3.3,1.4-8.8-3.1-9.4-3.7
			c-0.1,0-0.1-0.1-0.2-0.1c0,0-0.1,0-0.1,0c-0.1,0-0.2,0.1-0.2,0.3c0,0.3,0.3,0.5,1,1.1c0.6,0.5,1.6,1.3,1.6,1.8c0,0,0,0.1-0.1,0.1
			c0,0-0.1,0-0.1,0c-2.6,0-5.2-2.5-5.8-3c0.2,0.4,0.3,0.8,0.5,1.2c1.3,1,3.4,2.5,5.5,2.3c0.1,0,0.1,0,0.2-0.1
			c0.3-0.2,0.3-0.5,0.3-0.6c0-0.2,0-0.3-0.1-0.5c1.6,1,3.6,1.9,5.4,1.9c0.6,0,1.2-0.1,1.7-0.3c0,0,0.1,0,0.1-0.1
			c0.3-0.4,0.4-0.7,0.3-1c-0.1-0.6-0.7-0.9-1.7-1.5c-1-0.6-2.3-1.3-3.7-2.7c3.1,1.7,8.8,4.4,11.8,3.1c0,0,0.1,0,0.1-0.1
			c0.2-0.2,0.3-0.4,0.2-0.6c-0.1-0.8-1.2-1.8-3.2-3.2C578.4,191.9,577.9,191.5,577.2,191.1z"/>
		<path fill="#EF7D00" d="M577.5,164.4c-4.7,1.5-9.3,2.9-10.5,2.8c-11.5-0.8-15.9,0.4-17.1,0.8c0.1,0.1,0.2,0.3,0.3,0.4
			c1.6,1,3.4,2.9,5.3,5.4c0,0,0.1,0,0.1,0.1c2.2,0.7,4.8,0.4,5.1,0.3c0.1,0,0.2-0.1,0.3-0.2h0c0,0-0.1-0.2-1-0.6
			c-0.4-0.1-0.7-0.2-1-0.3c-0.1-0.1-0.2-0.2-0.2-0.4c0-0.1,0.2-0.2,0.3-0.2c0.4,0.1,0.7,0.2,1,0.3c2.3,0.5,5.8,0.3,6.1,0.2
			c0.1,0,0.2-0.1,0.2-0.1c0,0,0-0.3-1.2-0.9c-0.8-0.2-1.5-0.4-1.9-0.8c-0.1-0.1-0.1-0.2-0.1-0.4c0.1-0.1,0.2-0.2,0.3-0.1
			c0.8,0.3,1.4,0.5,1.9,0.7c2.6,0.6,6.7,0.4,7.1,0.4c0,0,0,0,0,0c0,0,0-0.5-2.7-1.9c-0.1-0.1-0.2-0.2-0.1-0.3c0-0.1,0.2-0.2,0.3-0.2
			c4.7,1,7.7,0.3,8.4-0.6c0.1-0.2,0.1-0.3,0.1-0.3c-0.1-0.2-0.6-0.5-1.5-0.6c-0.3,0-0.6,0-0.8,0c-0.1,0-0.3-0.2-0.2-0.3
			c0-0.1,0.1-0.3,0.3-0.3c0,0,0,0,0,0c0.3,0,0.6,0,0.8,0c0,0,0.1,0,0.1,0c3.1,0,8.8-1.5,13.3-2.9l-1.2-0.8l-0.3-0.1l-0.6,0.1
			l-0.3-0.1l-0.2-0.3l-0.1-0.5l-0.1-0.3l-0.5-0.5l0,0c-3.3,0.7-6.3,1.3-8,1.6C578.8,164,578.2,164.2,577.5,164.4z"/>
		<path d="M579.1,163.3c-0.5,0.1-1.1,0.3-1.8,0.6c-3.2,1-9.1,2.9-10.3,2.7c-13.5-0.9-17.3,0.8-17.7,1c0.1,0.1,0.1,0.3,0.3,0.4
			c0.2,0.1,0.4,0.2,0.6,0.4c-0.1-0.2-0.2-0.3-0.3-0.4c1.2-0.4,5.6-1.6,17.1-0.8c1.2,0.1,5.9-1.3,10.5-2.8c0.7-0.2,1.3-0.4,1.8-0.6
			c1.7-0.3,4.7-0.9,8-1.6l-0.4-0.2l-0.9-0.1C583.2,162.5,580.6,163,579.1,163.3C579.1,163.3,579.1,163.3,579.1,163.3z"/>
		<path d="M577.2,167.5c-0.2,0-0.5,0-0.8,0c0,0,0,0,0,0c-0.1,0-0.3,0.1-0.3,0.3c0,0.2,0.1,0.3,0.2,0.3c0.2,0,0.5,0,0.8,0
			c0.9,0.1,1.4,0.4,1.5,0.6c0,0,0.1,0.1-0.1,0.3c-0.7,0.8-3.7,1.6-8.4,0.6c-0.1,0-0.3,0-0.3,0.2c0,0.1,0,0.3,0.1,0.3
			c2.7,1.4,2.7,1.9,2.7,1.9c0,0,0,0,0,0c-0.4,0-4.5,0.2-7.1-0.4c-0.5-0.2-1.1-0.5-1.9-0.7c-0.1,0-0.3,0-0.3,0.1
			c-0.1,0.1,0,0.3,0.1,0.4c0.4,0.3,1.1,0.6,1.9,0.8c1.2,0.6,1.2,0.8,1.2,0.9c0,0-0.1,0.1-0.2,0.1c-0.4,0-3.9,0.3-6.1-0.2
			c-0.3-0.1-0.6-0.2-1-0.3c-0.1,0-0.3,0-0.3,0.2c0,0.1,0,0.3,0.2,0.4c0.3,0.1,0.6,0.2,1,0.3c0.9,0.3,1,0.6,1,0.6h0
			c0,0-0.1,0.1-0.3,0.2c-0.3,0-2.9,0.4-5.1-0.3c0,0-0.1,0-0.1-0.1c0.1,0.1,0.2,0.3,0.3,0.4c0,0,0,0.1,0.1,0.1c0,0,0,0.1,0.1,0.1
			c1,0.3,2.1,0.4,3,0.4c1.1,0,1.9-0.1,1.9-0.1c0,0,0,0,0,0c0.1,0,0.7-0.2,0.7-0.7c0-0.1,0-0.2-0.1-0.3c1.2,0.1,2.5,0.1,3.5,0.1
			c0-0.1,0-0.2,0-0.3c0.1-0.1,0.3-0.2,0.4-0.1c0.2,0.1,0.3,0.2,0.5,0.3c0.3,0,0.5,0,0.5,0c0,0,0,0,0.1,0c0.1,0,0.6-0.2,0.6-0.7
			c0-0.2-0.1-0.4-0.3-0.6c2.7,0.3,5.7,0.2,5.9,0.2c0,0,0,0,0,0c0.2,0,0.5-0.2,0.5-0.5c0-0.3-0.1-0.8-1.5-1.6
			c3.8,0.5,6.5-0.1,7.3-1.1c0.2-0.3,0.3-0.6,0.1-0.9c-0.1-0.2-0.2-0.3-0.4-0.4c1.4-0.1,3.2-0.5,5-0.9c0-0.1,0-0.1,0-0.2
			c0.1-0.1,0.2-0.2,0.4-0.1c0.1,0,0.3,0.1,0.5,0.1c2.3-0.6,4.6-1.2,6.6-1.9l-0.3-0.1l-0.4-0.2C586.1,166,580.4,167.5,577.2,167.5
			C577.2,167.5,577.2,167.5,577.2,167.5z"/>
		<path fill="#EF7D00" d="M555.8,204.9c0,0-0.3,0.5-0.5,0.7c-0.1,0.1-0.3,0.1-0.9,0.1c-1.1,0-3.4-0.1-4.3,1.1
			c-0.4,0.5-0.5,1.2-0.4,2.1c0,0,0,0,0,0.1c0,1.4,0,1.9,0.6,2.6c-0.1-0.8-0.1-1.3-0.1-1.3c0-0.1,0.1-0.2,0.2-0.2c0.1,0,0.2,0,0.3,0
			c0.1,0,1.6,0.8,3.2-1.6c0.1-0.1,0.1-0.1,0.2-0.1c0,0,0.1,0,0.1,0c0.1,0.1,0.2,0.2,0.1,0.4c-0.6,1.3-0.6,2.1-0.6,2.6
			c0.1,0.5,0.3,0.7,0.3,0.7c0.1,0,0.1,0.1,0.2,0.1c0.1,0.2,0.1,0.4,0.1,0.8c0,0.7,0,1.4,0.9,1.6c-0.4-0.8-0.1-1.7-0.1-1.7
			c0-0.1,0.1-0.2,0.2-0.2c0,0,0.6-0.1,1.1-0.8c0.5-0.7,0.6-1.9,0.3-3.4c0-0.1,0-0.2,0.1-0.3c0.4-0.4,0.8-0.5,1.1-0.4
			c0.4,0.1,0.6,0.5,0.6,0.5c0,0,0,0.1,0,0.1c0,0,0.1,1.1,0.8,1.5c0.3,0.2,0.8,0.3,1.3,0.2c0.1,0,0.1,0,0.2,0
			c0.3,0.2,0.5,0.4,0.5,0.7c0.1,0.4-0.1,0.8-0.2,1.1c0.4-0.1,1-0.4,1.2-0.9c0.4-1.2,0.5-2,0.2-2.7c-0.3-0.6-0.8-1-1.6-1.3
			c-0.1,0-0.1-0.1-0.2-0.2c-0.1-0.4,0-0.6,0.1-0.8c0.3-0.5,1.1-0.5,1.2-0.5c0,0,0.1,0,0.1,0c0.1,0,1.2,0.4,1.9,1
			c-0.1-0.2-0.1-0.4-0.3-0.6c-0.2-0.3-0.6-0.8-1.3-0.9c-2-0.1-3-0.4-3-0.9c0-0.1-0.1-0.8-0.1-1.9c-1-0.7-2-1.8-2.6-3.2
			c-0.2,1-0.6,2-1.1,2.9l0.2,3.1C555.9,204.8,555.8,204.8,555.8,204.9z"/>
		<path d="M559.4,202c0.1,1,0.1,1.8,0.1,1.9c0,0.6,1,0.9,3,0.9c0.7,0.1,1.1,0.5,1.3,0.9c0.1,0.2,0.2,0.4,0.3,0.6
			c-0.7-0.6-1.8-0.9-1.9-1c0,0-0.1,0-0.1,0c-0.1,0-0.9,0.1-1.2,0.5c-0.1,0.2-0.2,0.4-0.1,0.8c0,0.1,0.1,0.1,0.2,0.2
			c0.8,0.3,1.3,0.7,1.6,1.3c0.3,0.7,0.3,1.6-0.2,2.7c-0.2,0.6-0.8,0.8-1.2,0.9c0.2-0.3,0.3-0.7,0.2-1.1c-0.1-0.3-0.2-0.5-0.5-0.7
			c-0.1,0-0.1,0-0.2,0c-0.5,0.1-1,0.1-1.3-0.2c-0.7-0.5-0.8-1.5-0.8-1.5c0,0,0-0.1,0-0.1c0,0-0.2-0.4-0.6-0.5
			c-0.3-0.1-0.7,0.1-1.1,0.4c-0.1,0.1-0.1,0.2-0.1,0.3c0.3,1.5,0.2,2.7-0.3,3.4c-0.5,0.7-1.1,0.8-1.1,0.8c-0.1,0-0.2,0.1-0.2,0.2
			c0,0-0.3,0.9,0.1,1.7c-0.9-0.2-0.9-1-0.9-1.6c0-0.3,0-0.6-0.1-0.8c0-0.1-0.1-0.1-0.2-0.1c-0.1,0-0.3-0.2-0.3-0.7
			c-0.1-0.5,0-1.3,0.6-2.6c0.1-0.1,0-0.3-0.1-0.4c0,0-0.1,0-0.1,0c-0.1,0-0.2,0-0.2,0.1c-1.6,2.4-3.1,1.7-3.2,1.6
			c-0.1,0-0.2,0-0.3,0c-0.1,0-0.1,0.1-0.2,0.2c0,0-0.1,0.5,0.1,1.3c-0.6-0.6-0.6-1.1-0.6-2.6c0,0,0,0,0-0.1
			c-0.2-0.9-0.1-1.6,0.4-2.1c0.9-1.1,3.2-1.1,4.3-1.1c0.6,0,0.8,0,0.9-0.1c0.3-0.3,0.5-0.7,0.5-0.7c0-0.1,0-0.1,0-0.2l-0.2-3.1
			c-0.2,0.3-0.3,0.5-0.5,0.7l0.1,2.2c-0.1,0.1-0.2,0.4-0.4,0.5c-0.1,0-0.4,0-0.6,0c-1,0-2.7,0-3.9,0.6c-0.2,0.1-0.4,0.2-0.6,0.4
			c-0.1,0.1-0.2,0.2-0.3,0.3c-0.3,0.4-0.5,0.9-0.5,1.4c0,0.2,0,0.5,0,0.7c0,0.1,0,0.2,0,0.4c0,0.2,0,0.4,0,0.6
			c0,0.8,0.1,1.3,0.3,1.8c0.2,0.4,0.6,0.8,1.2,1.2c0.1,0.1,0.2,0.1,0.3,0c0.1-0.1,0.1-0.2,0.1-0.3c-0.2-0.7-0.2-1.2-0.2-1.6
			c0.2,0.1,0.5,0.1,0.9,0c0.4-0.1,1-0.3,1.6-0.8c-0.2,1-0.1,1.7,0.1,2c0.1,0.2,0.2,0.4,0.4,0.5c0,0.1,0,0.3,0,0.4
			c0,0.8,0,2.3,2.1,2.3c0,0,0,0,0.1,0c0.1,0,0.2-0.1,0.3-0.2c0-0.1,0-0.2-0.1-0.3c-0.6-0.5-0.5-1.2-0.4-1.5c0.3-0.1,0.8-0.3,1.3-0.9
			c0.6-0.9,0.7-2.1,0.4-3.7c0.2-0.2,0.4-0.2,0.5-0.2c0.1,0,0.2,0.1,0.2,0.1c0,0.3,0.2,1.3,1,1.9c0.5,0.3,1,0.4,1.6,0.3
			c0.1,0.1,0.1,0.2,0.2,0.2c0.1,0.4-0.3,1-0.5,1.1c-0.1,0.1-0.1,0.2,0,0.3c0,0.1,0.1,0.2,0.3,0.2c0.1,0,1.8,0,2.3-1.4
			c0.5-1.3,0.6-2.3,0.2-3.2c-0.3-0.7-0.9-1.2-1.8-1.5c0-0.1,0-0.1,0-0.2c0.1-0.2,0.5-0.3,0.7-0.3c0.5,0.2,1.6,0.6,1.9,1.1
			c0.2,0.3,0.4,0.3,0.5,0.2c0.2-0.1,0.3-0.3,0.3-0.6c-0.1-0.8-0.7-2.2-2.2-2.4c0,0,0,0,0,0c-2-0.1-2.4-0.4-2.4-0.4
			c0-0.2,0-0.7-0.1-1.4C559.8,202.3,559.6,202.1,559.4,202z"/>
		<path fill="#EF7D00" d="M532.7,175.9c-4.6,4.4-8.6,5.4-11.2,5.4c-0.5,0-0.9,0-1.3-0.1c0,0,0.1,0.1,0.1,0.1c0.3,0.6-0.9,1.5-5,3.7
			c-1.1,0.6-2.4,1.3-2.8,1.7c1.9,1.2,7.6-0.4,8.1-0.6c3.9-2,11.4-6,11.9-6.8c0-0.1,0.1-0.2,0.2-0.2c0,0,0.1,0,0.1,0
			c0.4-0.4,0.8-0.9,1.2-1.4C533.5,177.1,533,176.5,532.7,175.9z"/>
		<path fill="#EF7D00" d="M541.2,191.8l-3-8.7c-0.4-0.6-0.9-1.2-1.5-1.8c-4.1,3.1-6.5,2-6.6,1.9c-0.1,0-0.2-0.1-0.2-0.3
			c0-0.2,0.5-1,1.3-2.1c-1.4,0.9-4,2.3-8.4,4.7c-2,1.1-4.1,2.2-4.7,2.6c1.2,0.9,5.5-0.3,5.9-0.5c0.1-0.1,1.9-1,3.7-1.8
			c1.5-0.7,3.1-1.5,3.2-1.6c0.1-0.1,0.3,0,0.4,0.1c0,0.1,0.1,0.2-0.1,0.4l0,0c0,0,0,0,0,0c0,0,0,0,0,0c-4.3,2.4-6.5,3.9-6.7,4.4
			c0,0,0,0.1,0,0.2c0,0.2,0,0.3,0.2,0.4c1.4,0.9,8.6-1.5,11.4-2.7c0.7-0.3,1.1-0.5,1.1-0.5c0.1,0,0.3,0.1,0.3,0.2
			c0,0,0.1,0.2-0.1,0.4c-0.2,0.1-0.6,0.3-1.3,0.6c-1.7,0.8-4.3,2.3-4.5,3.1c0.6,0.9,1.7,1.5,3.2,1.8c2.6,0.5,5.5-0.1,6.1-0.5
			c0.1,0,0.1-0.1,0.2-0.1c0,0,0,0,0,0C541.1,192,541.1,191.9,541.2,191.8z"/>
		<path fill="#EF7D00" d="M521.7,170.5l-0.8-0.3c-0.3,0.1-0.6,0.1-0.8,0.1l1.4,0.6C521.5,170.8,521.6,170.7,521.7,170.5z"/>
		<path fill="#EF7D00" d="M518.4,180.1c0,0,0.1-0.1,0.1-0.1c2-1.2,4-2.4,5.9-3.7c-7.5,3-9.7,2.3-11.8,1.7c-0.4-0.1-0.8-0.2-1.2-0.3
			c-0.1,0-0.2-0.1-0.2-0.3c0-0.1,0.1-0.2,0.2-0.3c2-0.8,2.9-1.4,5.2-2.8c0.1-0.1,0.3-0.2,0.5-0.3c-3.4,1.2-7.2,1.9-9.5,1.4
			c-0.1,0-0.2-0.2-0.2-0.3c0-0.1,0.1-0.2,0.2-0.2c0.2-0.1,1.2-0.7,2.5-1.5c-2,0.4-4.8,0.4-5.4,0.1c-0.3-0.2-0.3-0.4-0.3-0.5
			c0-0.1,0.2-0.2,0.3-0.2c0.3,0,1.6-1.2,3.1-2.7c-1.9,0.4-5.9,0.5-7.1-0.4c-0.1-0.1-0.1-0.2-0.1-0.3c0-0.1,0.1-0.2,0.2-0.2
			c1.4-0.3,3.2-1.8,4.2-2.7c-1.4,0.4-3.8,0.8-5.2,0.1c-0.5-0.3-0.9-0.7-1-1.2c0-0.1,0-0.2,0.1-0.2c0.1-0.1,0.1-0.1,0.2-0.1
			c2.2,0.1,4.1-0.9,4.9-1.3c-1.6-0.7-2.8-1.3-2.9-1.3c0,0,0,0-0.1-0.1c0,0-0.1,0-0.1,0c-6.2-3.3-11.8-5.7-17.5-7.9
			c-1.9-0.7-3.8-1.8-5.4-2.6c-0.9-0.5-2-1.1-2.3-1.2c-1,2.4,6,8.8,7.4,9.6c0.7,0.4,4,1.8,6.8,3.1c3.5,1.5,4.7,2.1,5.2,2.3
			c0,0,0.1,0,0.1,0l0,0c0.2,0.1,0.2,0.2,0.2,0.3c0,0.1-0.1,0.2-0.2,0.3c-0.1,0-0.1,0-0.2,0c-15.9-6.6-19.1-8-20-8.9
			c-0.8-0.2-1.9-1.3-3.1-2.3c-0.8-0.7-2.1-1.9-2.6-2c-0.1,0.3,0,1.1,0.4,2.3c0.6,1.6,2.5,5.5,7.9,7.7c0,0,0,0,0.1,0
			c0.2,0.1,0.6,0.3,1.2,0.5c0.3,0.1,0.6,0.2,1,0.4c0.3,0.1,0.6,0.2,0.9,0.4c1.6,0.6,3.5,1.3,5.3,1.9c7.2,2.6,8.2,3,8.3,3.3
			c0,0.1,0,0.2,0,0.2c0,0.1-0.1,0.1-0.1,0.2c-0.2,0.1-0.2,0.1-13.6-5c-0.7-0.3-1.4-0.5-1.9-0.7c-1.7-0.7-3-1.1-3.1-1.2
			c-1.8-0.7-3.9-2.2-5.5-3.4c-1-0.8-2.3-1.7-2.6-1.7c0,0.1,0,0.3,0.1,0.6c0.6,1.6,2.7,4.4,5.2,5.4c0.4,0.1,1,0.4,1.7,0.7
			c1.5,0.7,3.8,1.6,6.3,2.6c2.1,0.8,4.1,1.5,5.4,2l1.2,0.4c0.1,0.1,0.3,0.1,0.4,0.1c0,0,0,0,0.1,0l0,0c0.2,0.1,0.3,0.2,0.2,0.4
			c-0.1,0.1-0.2,0.2-0.4,0.2c-2.3-0.8-4.8-1.7-7-2.5c-3.4-1.2-7.3-2.7-9.9-3.7c0,0,0,0,0,0c-1.3-0.7-2.3-1.4-3-2
			c-0.3-0.3-0.7-0.5-0.9-0.6c0,0.2,0,0.6,0.4,1.2c0.4,0.9,1.7,2.6,4.8,4.5c3.3,2,7.9,3.7,13.7,4.9c0,0,0,0,0,0c0,0,0.1,0,0.1,0
			c0.4-0.1,1.1-0.2,1.8-0.3c0.7-0.1,1.5-0.3,2.1-0.4c2.1-0.5,2.1-0.5,2.2-0.2c0.1,0.1,0,0.3-0.1,0.4c-0.1,0.1-2.1,0.5-3.9,0.8
			c-1.1,0.2-1.7,0.3-2.1,0.3c-0.3,0-0.5,0.1-0.6,0.1c-0.4-0.1-2.8,0.2-3.4,0.4c0,0.1,0.1,0.2,0.2,0.3c0.6,0.6,2.7,2,9.9,1.6
			c0.5,0,2.4-0.5,4-1c3.2-0.9,3.2-0.9,3.4-0.6c0,0,0.1,0.2-0.1,0.4c-0.4,0.3-9.1,2.8-9.6,2.9c-0.1,0-0.2,0-0.4,0
			c-1.6,0.2-2.5,0.3-2.9,0.4c0.4,0.4,2.4,1.8,6.9,2c3.3,0.2,9-1.4,11.5-2c1.3-0.4,1.3-0.4,1.4-0.1c0.1,0.1,0,0.3,0,0.3
			c-0.1,0.1-0.4,0.2-4.8,1.7c-1.6,0.5-3.4,1.1-3.6,1.2c0,0,0,0,0,0c-0.2,0.1-0.5,0.1-1.5,0.2c-0.5,0-1.2,0.1-1.5,0.2
			c0.1,0.1,0.4,0.3,0.8,0.6c1.5,0.8,6.1,2.3,16-0.8c0.1,0,0.2,0,0.3,0.1c0.1,0.1,0.1,0.2,0,0.3c-0.9,1.2-4.1,2-6.2,2.6
			c-0.5,0.1-1,0.3-1.3,0.4c0.4,0.4,1.5,1.2,3.3,1.6c1,0.2,2.4,0.2,3.9,0c2.3-0.4,4.9-1.2,8.3-4.1c0,0,0.1,0,0.1,0
			c-0.7-0.1-1.2-0.3-1.4-0.5C518.2,180.4,518.3,180.2,518.4,180.1z"/>
		<path fill="#EF7D00" d="M512,166.5l-1.6-0.6c-0.7-0.2-1.4-0.4-2.2-0.6l3.3,1.4C511.8,166.7,511.9,166.6,512,166.5z"/>
		<path fill="#EF7D00" d="M517.2,168.6l-0.4-0.2c-0.3,0-0.6,0-0.9,0l1,0.4C516.9,168.8,517,168.7,517.2,168.6z"/>
		<path fill="#EF7D00" d="M528.9,173.6c-0.1,0.1-0.3,0.2-0.4,0.3l3.7,1.6c0,0,0.1-0.1,0.1-0.1c0,0,0,0,0.1,0
			c-0.9-1.8-0.8-3.4-0.5-4.7C531.3,171.4,530.3,172.5,528.9,173.6z"/>
		<path fill="#EF7D00" d="M549.6,188.9l-8.5-2c1.6,3.6,0.5,5.4,0.5,5.5c0,0-0.1,0.1-0.1,0.1c0,0.2-0.1,0.6-0.3,1.2c0,0,0,0,0,0.1
			c0.4-0.5,1-1.2,1.3-1.8c0.1-0.1,0.2-0.2,0.3-0.1c0.1,0,0.2,0.2,0.2,0.3c-0.1,0.5-0.3,1-0.6,1.7c-0.3,0.7-0.5,1.4-0.8,2.2
			c-0.2,0.7-0.3,1.4-0.4,2.2c-0.2,0.9-0.3,1.9-0.6,2.9c0.2-0.1,0.6-0.3,1-0.8c0.5-0.6,1.5-1.9,1.8-4.2c0.1-0.8,0.1-1.5,0.1-2.1
			c0-0.1,0-0.3,0-0.4c0-0.2,0.1-0.3,0.3-0.3c0.2,0,0.3,0.1,0.3,0.2c0,0.1,0,0.3,0,0.5c0,0.7,0,1.5-0.1,2.2c-0.1,1.4-0.4,2.8-0.6,4
			c-0.2,1-0.4,2.2-0.3,2.5c0.1,0,0.1,0,0.2-0.1c1-0.5,2.7-3.2,2.9-5.1c0-0.1,0.1-0.2,0.2-0.2c0.1,0,0.2,0,0.3,0.1
			c0.6,1,1.9,3.1,3,3.9c0-0.2,0-0.4,0-0.5c0-0.8-0.1-1.1-0.5-2.4c0,0,0-0.1,0-0.1c0.3-2.2,0.4-5.1,0.4-8.5l0-0.8c0,0,0-0.1-0.1-0.1
			C549.6,188.9,549.6,188.9,549.6,188.9z"/>
		<path fill="#EF7D00" d="M557.4,182.9c0,0.1-0.1,0.2-0.3,0.2c0,0,0,0,0,0c-0.2,0-0.3-0.2-0.2-0.3c0-0.1,0-0.2,0-0.5l-8.5-14.5
			c-1.3-1.2-1.8-2.5-1.8-2.6c-0.1-0.1,0-0.3,0.2-0.4c0.1-0.1,0.3,0,0.4,0.2c0,0,0.4,1.1,1.5,2.2c-0.8-1.8-0.9-3.3-0.3-4.5
			c0.8-1.4,2.3-1.7,2.8-1.8c0.4,0,0.8-0.1,1.1-0.1c0.3,0,0.5,0,0.7,0c-0.3-0.1-0.6-0.2-0.8-0.3c-0.1,0-0.2-0.1-0.4-0.1
			c-0.5-0.1-1-0.2-1.3-0.5c-0.1-0.1-0.2-0.2-0.1-0.4c0.1-0.1,0.2-0.2,0.3-0.1c0.4,0.1,0.8,0.3,1.2,0.4c0.2,0,0.4,0.1,0.6,0.1
			c1,0.2,2,0.3,2.5,1.1c0.2,0.3,0.3,0.6,0.2,1.1c0.7-0.4,1.4-1.3,1.3-2c-0.1-0.7-0.9-1.9-5.6-2.3c-0.1,0-0.1,0-0.2-0.1
			c-1.5-1.6-5.4-2.7-9.1-1.7c-2.9,0.8-6.7,3.2-8.2,9.9c0,0,0,0,0,0c0.2,0.1,0.4,0.3,0.9,0.7c0.1,0.1,0.2,0.2,0.1,0.4
			c-0.1,0.1-0.2,0.2-0.4,0.1c-3.3-1.5-11.5-2.6-15.9-3.3c-0.6-0.1-1.1-0.2-1.6-0.2c0,0,0,0,0,0c-5.5-1.5-11.2-4.1-15.3-6
			c-2.6-1.2-5.2-2.4-5.6-2.2c0,0,0,0,0,0c-0.1,0.6,2.8,3.4,4,4.6c1.2,1.2,1.6,1.6,1.7,1.8c0,0,0,0,0,0c0.1,0,8.7,4.2,12.2,3.9
			c0.1,0,0.2,0.1,0.3,0.2c0,0.1,0,0.2-0.1,0.3c-0.3,0.3-0.6,0.5-0.9,0.6l2.7,1.1c0.9,0,1.8,0,2.9-0.2c0.1,0,0.3,0,0.3,0.1
			c0.1,0.1,0,0.3-0.1,0.3c-0.3,0.2-0.5,0.5-0.8,0.7l2.1,0.9c1-0.1,2.1-0.4,3.3-0.9c0.1-0.1,0.3,0,0.3,0.1c0.1,0.1,0.1,0.3,0,0.4
			c-0.5,0.6-0.9,1.1-1.2,1.5l1,0.4l0.8,0c0.2,0,0.3,0.1,0.3,0.3c0,0.2-0.1,0.3-0.3,0.3c0,0,0,0,0,0l-0.7,0l4.5,1.9
			c0.3-0.2,0.6-0.4,0.8-0.6c1.3-1.1,2.5-2.3,3.5-3.5c0-0.1,0.1-0.1,0.2-0.1c0.1-0.1,0.1-0.3,0.2-0.4c0.1-0.3,0.3-0.7,0.3-0.8
			c0-0.2,0.1-0.3,0.2-0.3c0.2,0,0.3,0.1,0.3,0.2c0,0.2,0,0.3-0.1,0.6l4.4,12.7c1.2,1.4,2.1,2.7,2.7,3.8c0.1-0.6,0.2-1.5,0.7-2.6
			c0-0.1,0.1-0.2,0.2-0.2c0.1,0,0.2,0,0.3,0.1c0.6,0.7,1.3,1,1.8,1.3c0.3,0.2,0.6,0.3,0.8,0.5c0.1,0.1,0.5,0.2,0.9,0.3
			c1.7,0.5,4.8,1.5,5.2,4.1c0,0,0,0,0,0c3.4,6,5,8.8,4.1,13.5c0,0,0.1,0,0.1-0.1c0.9-0.7,2-3.4,1.9-4.9c0-0.1,0.1-0.3,0.2-0.3
			c0,0,0,0,0,0c0.1,0,0.2,0.1,0.3,0.2c0.7,2.6,2.4,4,3.8,4.8c1.1,0.6,2.2,0.9,2.8,1c-0.2-0.3-0.4-0.6-0.7-1c-1.5-2.2-2.7-4.1-2.5-5
			c0-0.2,0.1-0.3,0.3-0.4c0.1,0,0.1-0.1,0.2,0c0.5,0.1,1,0.5,1.6,0.9c0.8,0.6,1.6,1.2,2.3,1.1c-0.1-0.1-0.3-0.2-0.6-0.3
			c-0.6-0.3-1.5-0.7-2.5-2.3c-0.4-0.8-0.7-1.6-1.1-2.6c-0.6-1.8-1.4-3.8-3.1-6c-1-0.8-2-1.8-2.7-2.9c-0.1-0.1-0.1-0.3,0-0.4
			c0.1-0.1,0.3-0.1,0.4,0c1.1,1,2,1.9,2.8,2.9c1.2,0.9,2.3,1.6,3.1,2.1c2.2,1.2,4.1,1.7,4.8,1.5c0.1,0,0.2,0,0.2-0.1
			c0.1-0.6-1.9-2.5-3.2-3.8c-2.1-2.1-3.4-3.4-3.2-4.2c0-0.1,0.1-0.2,0.2-0.2c0.1,0,0.2,0,0.3,0.1c1.4,2.5,8.2,8.1,13.3,7.9
			c-0.2-0.5-1.3-1.3-2.2-2c-1.2-0.9-2.6-2-3.2-3c-2.5-1.6-9.3-6.7-11.7-9.6C556.7,178,557.5,182.2,557.4,182.9z M543.7,158.5
			c-0.6-0.1-1.2-0.2-1.8-0.3c-0.1,0-0.2-0.1-0.3-0.2c0-0.1,0-0.2,0.1-0.3c2.4-1.6,3.8-1.5,4.6-1.1c0.5,0.3,0.8,0.8,0.8,1
			c0,0,0,0.1,0,0.1c-0.4,0.7-1,0.9-1.7,0.9C544.9,158.7,544.3,158.6,543.7,158.5z M552.9,188.1c-0.1,0-0.3-0.1-0.3-0.3
			c0,0-0.1-0.4-0.3-0.9l-1-1.5c-0.3-0.3-0.6-0.6-0.9-0.9c-2.2-1.8-2.8-4.2-2.8-4.3c0-0.2,0.1-0.3,0.2-0.3c0.2,0,0.3,0.1,0.3,0.2
			c0,0,0.1,0.5,0.4,1.2l1.2,1.9c0.3,0.3,0.6,0.6,0.9,0.9c2.2,1.8,2.4,3.6,2.4,3.7C553.2,187.9,553.1,188.1,552.9,188.1
			C552.9,188.1,552.9,188.1,552.9,188.1z"/>
		<path d="M561.4,194.2c-0.1-0.3-0.2-0.6-0.3-0.9c-0.5-1.4-1.1-3-2.2-4.8c2.8,1.9,5.9,3,7.1,2.7c0.5-0.1,0.6-0.4,0.7-0.5
			c0.2-0.7-0.7-1.7-2.3-3.3c2.6,1.9,5.9,3.5,8.8,3.5c0.2,0,0.4,0,0.6,0c0.1,0,0.2-0.1,0.2-0.2c0.2-0.8-0.9-1.6-2.4-2.8
			c-0.8-0.6-1.7-1.3-2.4-2c-0.3-0.3-0.5-0.6-0.7-0.9c0,0-0.1-0.1-0.1-0.1c0,0,0,0,0,0c-3.7-2.3-11.7-8.8-12.3-10.4
			c0,0-0.1-0.1-0.1-0.1c0-0.1,0-0.1-0.1-0.1c-0.1-0.2-0.2-0.3-0.3-0.4c-2-2.6-3.7-4.4-5.3-5.4c-0.2-0.1-0.4-0.3-0.6-0.4
			c-0.1-0.1-0.2-0.3-0.3-0.4c-0.1-0.2-0.1-0.3-0.2-0.4l0-0.1c0,0,0,0,0,0c-0.8-1.7-0.9-3.1-0.4-4.1c0.6-1.2,2-1.4,2.4-1.5
			c0.4,0,0.7-0.1,1-0.1c0.6,0,1,0,1.7-0.3c0.1,0,0.1-0.1,0.1-0.1c0.2,0.1,0.3,0.2,0.4,0.4c0.2,0.3,0.2,0.7,0,1.2
			c0,0.1,0,0.2,0.1,0.3c0.1,0.1,0.2,0.1,0.3,0.1c0.9-0.3,2.3-1.5,2.2-2.9c-0.2-1.5-2.2-2.4-6-2.8c-0.8-0.8-2.2-1.5-3.9-1.9
			c-1.3-0.3-3.4-0.5-5.7,0.1c-3.1,0.8-7.1,3.4-8.7,10.5c0,0,0,0.1,0,0.1c-3.9-1.2-10.7-2.2-14.6-2.7c-0.6-0.1-1.1-0.2-1.6-0.2
			c-5.5-1.5-11.1-4-15.2-5.9c-3.9-1.8-5.6-2.6-6.2-2.2c-0.2,0.1-0.3,0.2-0.3,0.4c-0.1,0.7,1.2,2.3,4.1,5.1c0.2,0.2,0.5,0.5,0.7,0.7
			c-5.7-3-10.9-5.1-16.2-7.3c-1.9-0.7-3.8-1.7-5.3-2.6c-1.8-1.1-2.7-1.5-3-1c0,0,0,0,0,0c-1.3,2.5,4.3,7.9,6.7,9.8
			c-4.8-2-6.2-2.8-6.7-3.2c0,0-0.1-0.1-0.1-0.1c-0.6-0.1-1.8-1.2-2.9-2.2c-1.6-1.5-2.6-2.3-3.2-2.2c0,0-0.1,0-0.1,0.1
			c-0.3,0.3-0.2,1-0.1,1.6c0.4,2,1.7,4.7,4.2,6.8c-0.9-0.6-1.8-1.3-2.6-1.9c-1.9-1.4-2.8-2-3.3-1.7c-0.1,0.1-0.3,0.3-0.3,0.6
			c0.1,1.2,1.9,4.1,4.4,5.8c-0.1,0-0.2-0.1-0.3-0.1c-1.3-0.6-2.2-1.4-2.8-1.9c-0.7-0.6-1.2-0.9-1.6-0.6c-0.1,0.1-0.3,0.3-0.2,0.8
			c0.4,2.5,4.6,7.3,17.5,10.4c-0.3,0-0.5,0.1-0.6,0.1c-1.8,0.2-1.9,0.3-1.9,0.5c-0.1,0.2,0,0.5,0.2,0.8c0.5,0.7,2.6,2.4,10.2,2
			c-1.1,0.3-1.9,0.5-2,0.5c-0.1,0-0.2,0-0.4,0c-3,0.3-3.4,0.5-3.5,0.8c0,0.1,0,0.3,0.1,0.4c0.4,0.7,2.8,2.1,7.4,2.4
			c1.8,0.1,4.1-0.3,6.3-0.7c-1.5,0.5-1.9,0.6-2.1,0.7v0c-0.1,0-0.8,0.1-1.3,0.2c-1.7,0.2-2,0.2-2.1,0.5c-0.1,0.2,0,0.4,0.2,0.6
			c0.6,0.6,2.1,1.5,4.8,1.8c3,0.3,6.7-0.1,10.9-1.2c-1.3,0.6-3.2,1.1-4.4,1.4c-1.6,0.4-1.8,0.5-1.8,0.8h0c0,0.6,1.8,1.8,3.8,2.2
			c1.1,0.2,2.6,0.2,4.1,0c0.5-0.1,1.1-0.2,1.7-0.4c-1.2,0.7-1.5,0.9-1.5,1.2c0,0.1,0,0.2,0.1,0.3c1.4,1.2,4.9,0.7,7.1,0.2
			c-1.6,0.9-1.5,1-1.4,1.2c0,0,0,0,0,0c1.2,1.7,6.8-0.1,6.8-0.1c0.1,0,0.4-0.2,1-0.5c-0.9,0.7-1.4,1.2-1.4,1.5c0,0.1,0,0.2,0,0.2
			c0,0.3,0.1,0.6,0.4,0.8c0.9,0.6,3.2,0.3,7-0.9c0.5-0.2,1-0.3,1.5-0.5c-1,0.7-1.9,1.4-1.9,2c0,0.1,0,0.1,0,0.2
			c0.7,1.1,1.9,1.8,3.6,2.1c2.4,0.5,5,0.1,6.2-0.4c-0.1,0.2-0.1,0.5-0.2,0.7c-0.2,0.8-0.3,1.1-0.1,1.3c0.1,0.1,0.2,0.1,0.4,0l0,0
			c0.2-0.1,0.5-0.5,0.9-0.9c-0.2,0.6-0.5,1.3-0.7,2c-0.2,0.7-0.3,1.5-0.4,2.2c-0.2,1-0.4,2.1-0.7,3.1c0,0,0,0,0,0
			c0,0.2,0,0.3,0.2,0.4c0.2,0.1,0.5,0.1,0.9-0.1c0.5-0.3,1.3-1.1,2-2.2c0,0.3-0.1,0.5-0.1,0.8c-0.4,2.3-0.5,2.8-0.2,3
			c0.1,0.1,0.4,0.2,0.8,0c0,0,0,0,0.1,0c0.2-0.1,0.4-0.3,0.7-0.5c0.9-0.9,2-2.7,2.4-4.3c0.3,0.5,0.7,1,1,1.6
			c0.2,0.2,0.3,0.5,0.5,0.7c0.6,0.7,1.2,1.3,1.7,1.5c0.1,0,0.2,0,0.3,0c0.1-0.1,0.1-0.2,0.1-0.3c0-0.4-0.1-0.8-0.1-1
			c0-0.8-0.1-1.2-0.5-2.5c0.3-2.2,0.4-5,0.4-8.3c3.3,5.8,4.4,8.3,3.5,12.6c0,0.1,0,0.3,0.2,0.3c0.2,0.1,0.5,0.1,0.9-0.2
			c0.1-0.1,0.3-0.2,0.4-0.4c0.2-0.2,0.4-0.5,0.5-0.7c0.5-0.8,0.9-1.9,1.1-2.9c0.6,1.5,1.6,2.5,2.6,3.2c0.2,0.1,0.4,0.3,0.6,0.4
			c1.7,1,3.3,1.3,3.4,1.3c0.2,0,0.3,0,0.4,0c0.2,0,0.3,0,0.4-0.2c0,0,0-0.1,0-0.1c0-0.2-0.1-0.5-1-1.6c-0.9-1.3-2.6-3.8-2.5-4.5
			c0.3,0.1,0.7,0.4,1.2,0.8c1,0.7,2.2,1.6,3.3,1c0.1-0.1,0.2-0.2,0.1-0.4c-0.2-0.5-0.6-0.7-1-0.8c-0.6-0.3-1.4-0.6-2.2-2
			c-0.1-0.1-0.1-0.3-0.2-0.4C561.7,195.1,561.5,194.6,561.4,194.2z M549.9,168.2c2.3,1.4,5.8,5.7,6.1,6.4c0,0.2,0.2,0.6,0.3,1.2
			c2.4,2.8,9.2,8,11.7,9.6c0.6,1,2,2.1,3.2,3c0.9,0.7,2,1.5,2.2,2c-5.1,0.3-11.9-5.3-13.3-7.9c-0.1-0.1-0.2-0.2-0.3-0.1
			c-0.1,0-0.2,0.1-0.2,0.2c-0.2,0.8,1.1,2.1,3.2,4.2c1.3,1.3,3.3,3.3,3.2,3.8c0,0.1-0.2,0.1-0.2,0.1c-0.7,0.1-2.6-0.3-4.8-1.5
			c-0.8-0.4-2-1.1-3.1-2.1c-0.7-0.9-1.6-1.9-2.8-2.9c-0.1-0.1-0.3-0.1-0.4,0c-0.1,0.1-0.1,0.3,0,0.4c0.7,1,1.7,2,2.7,2.9
			c1.7,2.2,2.5,4.3,3.1,6c0.3,0.9,0.7,1.8,1.1,2.6c0.9,1.6,1.8,2,2.5,2.3c0.3,0.1,0.4,0.2,0.6,0.3c-0.7,0.1-1.6-0.5-2.3-1.1
			c-0.6-0.4-1.1-0.8-1.6-0.9c-0.1,0-0.1,0-0.2,0c-0.2,0.1-0.3,0.2-0.3,0.4c-0.2,0.9,1,2.8,2.5,5c0.2,0.4,0.5,0.7,0.7,1
			c-0.6-0.1-1.6-0.4-2.8-1c-1.4-0.8-3.1-2.2-3.8-4.8c0-0.1-0.1-0.2-0.3-0.2c0,0,0,0,0,0c-0.1,0-0.2,0.2-0.2,0.3
			c0.1,1.5-1,4.2-1.9,4.9c0,0-0.1,0-0.1,0.1c0.9-4.8-0.7-7.6-4.1-13.5c0,0,0,0,0,0c0,0,0,0,0,0.1c0,0.2-0.1,0.3-0.3,0.3c0,0,0,0,0,0
			c-0.1,0-0.2-0.1-0.2-0.1l0,0.8c-0.1,3.4-0.1,6.3-0.4,8.5c0,0,0,0.1,0,0.1c0.4,1.3,0.4,1.6,0.5,2.4c0,0.2,0,0.3,0,0.5
			c-1.1-0.8-2.4-3-3-3.9c-0.1-0.1-0.2-0.2-0.3-0.1c-0.1,0-0.2,0.1-0.2,0.2c-0.2,1.9-1.9,4.6-2.9,5.1c-0.1,0-0.1,0.1-0.2,0.1
			c0-0.3,0.2-1.5,0.3-2.5c0.2-1.2,0.5-2.6,0.6-4c0.1-0.7,0.1-1.4,0.1-2.2c0-0.2,0-0.3,0-0.5c0-0.2-0.2-0.3-0.3-0.2
			c-0.2,0-0.3,0.2-0.3,0.3c0,0.1,0,0.3,0,0.4c0,0.6,0,1.4-0.1,2.1c-0.3,2.2-1.3,3.6-1.8,4.2c-0.4,0.4-0.7,0.7-1,0.8
			c0.3-1,0.5-2,0.6-2.9c0.1-0.8,0.3-1.5,0.4-2.2c0.2-0.8,0.5-1.6,0.8-2.2c0.3-0.7,0.5-1.2,0.6-1.7c0-0.1-0.1-0.3-0.2-0.3
			c-0.1,0-0.3,0-0.3,0.1c-0.3,0.6-0.9,1.3-1.3,1.8c0,0,0,0,0-0.1c0.2-0.6,0.3-1,0.3-1.2c0,0-0.1,0.1-0.2,0.1c-0.1,0-0.1,0-0.2,0
			c-0.1-0.1-0.1-0.2-0.1-0.3c-0.1,0-0.1,0-0.2,0.1c-0.6,0.4-3.5,1-6.1,0.5c-1.5-0.3-2.6-0.9-3.2-1.8c0.2-0.7,2.8-2.2,4.5-3.1
			c0.7-0.3,1.2-0.5,1.3-0.6c0.2-0.1,0.2-0.3,0.1-0.4c0-0.1-0.2-0.2-0.3-0.2c0,0-0.5,0.2-1.1,0.5c-2.8,1.1-10,3.6-11.4,2.7
			c-0.1-0.1-0.2-0.2-0.2-0.4c0-0.1,0-0.1,0-0.2c0.2-0.4,2.4-2,6.7-4.4c0,0,0,0,0,0c0,0,0,0,0,0l0,0c0.2-0.1,0.2-0.3,0.1-0.4
			c-0.1-0.1-0.2-0.2-0.4-0.1c-0.1,0-1.6,0.8-3.2,1.6c-1.7,0.9-3.5,1.8-3.7,1.8c-0.4,0.2-4.7,1.3-5.9,0.5c0.6-0.4,2.7-1.5,4.7-2.6
			c4.4-2.4,6.9-3.8,8.4-4.7c0.4-0.5,0.9-1.1,1.5-1.8c0,0-0.1,0-0.1,0c-0.1,0-0.2,0.1-0.2,0.2c-0.5,0.7-8,4.8-11.9,6.8
			c-0.5,0.2-6.1,1.8-8.1,0.6c0.4-0.3,1.7-1.1,2.8-1.7c4.1-2.3,5.3-3.1,5-3.7c0,0,0-0.1-0.1-0.1c-0.1,0-0.2,0-0.3,0c0,0-0.1,0-0.1,0
			c-3.4,2.9-6,3.7-8.3,4.1c-1.5,0.2-2.9,0.2-3.9,0c-1.7-0.3-2.9-1.2-3.3-1.6c0.3-0.1,0.8-0.2,1.3-0.4c2.1-0.6,5.2-1.4,6.2-2.6
			c0.1-0.1,0.1-0.2,0-0.3c-0.1-0.1-0.2-0.1-0.3-0.1c-9.9,3.1-14.5,1.6-16,0.8c-0.4-0.2-0.7-0.4-0.8-0.6c0.4-0.1,1-0.1,1.5-0.2
			c1-0.1,1.4-0.1,1.5-0.2c0,0,0,0,0,0c0.2-0.1,2-0.7,3.6-1.2c4.4-1.4,4.7-1.6,4.8-1.7c0.1-0.1,0.1-0.2,0-0.3
			c-0.1-0.2-0.1-0.2-1.4,0.1c-2.4,0.7-8.1,2.2-11.5,2c-4.4-0.3-6.4-1.6-6.9-2c0.4-0.1,1.4-0.3,2.9-0.4c0.2,0,0.3,0,0.4,0
			c0.5,0,9.2-2.5,9.6-2.9c0.2-0.2,0.1-0.4,0.1-0.4c-0.1-0.3-0.2-0.3-3.4,0.6c-1.6,0.5-3.5,1-4,1c-7.2,0.4-9.3-1-9.9-1.6
			c-0.1-0.1-0.2-0.3-0.2-0.3c0.6-0.2,3-0.5,3.4-0.4c0.1,0,0.3,0,0.6-0.1c0.4,0,1-0.1,2.1-0.3c1.8-0.3,3.7-0.7,3.9-0.8
			c0.1-0.1,0.2-0.2,0.1-0.4c-0.1-0.3-0.1-0.3-2.2,0.2c-0.6,0.1-1.3,0.3-2.1,0.4c-0.7,0.1-1.4,0.2-1.8,0.3c-0.1,0-0.1,0-0.1,0
			c0,0,0,0,0,0c-5.7-1.2-10.3-2.9-13.7-4.9c-3.1-1.9-4.3-3.6-4.8-4.5c-0.3-0.7-0.4-1.1-0.4-1.2c0.2,0.1,0.5,0.4,0.9,0.6
			c0.7,0.5,1.6,1.3,3,2c0,0,0,0,0,0c2.6,1,6.5,2.4,9.9,3.7c2.2,0.9,4.7,1.8,7,2.5c0.1,0,0.3,0,0.4-0.2c0.1-0.2,0-0.3-0.2-0.4l0,0
			c0,0,0,0-0.1,0c-0.1,0-0.2-0.1-0.4-0.1l-1.2-0.4c-1.3-0.5-3.2-1.2-5.4-2c-2.5-1-4.8-2-6.3-2.6c-0.7-0.3-1.3-0.6-1.7-0.7
			c-2.5-1-4.6-3.8-5.2-5.4c-0.1-0.4-0.1-0.6-0.1-0.6c0.4,0,1.6,0.9,2.6,1.7c1.6,1.2,3.7,2.7,5.5,3.4c0.2,0.1,1.4,0.5,3.1,1.2
			c0.5,0.2,1.2,0.5,1.9,0.7c13.4,5.1,13.5,5.1,13.6,5c0.1,0,0.1-0.1,0.1-0.2c0-0.1,0-0.2,0-0.2c-0.1-0.3-1.1-0.7-8.3-3.3
			c-1.8-0.6-3.7-1.3-5.3-1.9c-0.3-0.1-0.6-0.2-0.9-0.4c-0.3-0.1-0.7-0.3-1-0.4c-0.6-0.2-1.1-0.4-1.2-0.5c0,0,0,0-0.1,0
			c-5.4-2.1-7.3-6.1-7.9-7.7c-0.4-1.2-0.5-2-0.4-2.3c0.5,0.1,1.8,1.3,2.6,2c1.2,1.1,2.3,2.1,3.1,2.3c1,0.8,4.2,2.3,20,8.9
			c0.1,0,0.1,0,0.2,0c0.1,0,0.2-0.1,0.2-0.3c0-0.1,0-0.1-0.2-0.3l0,0c0,0-0.1,0-0.1,0c-0.5-0.3-1.7-0.8-5.2-2.3
			c-2.9-1.3-6.1-2.7-6.8-3.1c-1.4-0.8-8.4-7.2-7.4-9.6c0.3,0,1.4,0.6,2.3,1.2c1.5,0.9,3.4,2,5.4,2.6c5.7,2.3,11.3,4.6,17.5,7.9
			c0,0,0.1,0,0.1,0c-0.1-0.1-0.1-0.2-0.1-0.3c0.1-0.1,0.2-0.2,0.3-0.1c-0.1-0.2-0.5-0.7-1.7-1.8c-1.2-1.2-4-4-4-4.6c0,0,0,0,0,0
			c0.4-0.2,3.1,1,5.6,2.2c4.1,1.9,9.7,4.5,15.3,6c0,0,0,0,0,0c0.4,0.1,1,0.1,1.6,0.2c4.4,0.6,12.7,1.8,15.9,3.3
			c0.1,0.1,0.3,0,0.4-0.1c0.1-0.1,0-0.3-0.1-0.4c-0.5-0.4-0.8-0.6-0.9-0.7c0,0,0,0,0,0c1.6-6.7,5.3-9.1,8.2-9.9
			c3.7-1,7.6,0.1,9.1,1.7c0,0,0.1,0.1,0.2,0.1c4.7,0.4,5.5,1.7,5.6,2.3c0.1,0.8-0.6,1.6-1.3,2c0-0.4,0-0.8-0.2-1.1
			c-0.5-0.7-1.5-0.9-2.5-1.1c-0.2,0-0.4-0.1-0.6-0.1c-0.4-0.1-0.8-0.3-1.2-0.4c-0.1,0-0.3,0-0.3,0.1c-0.1,0.1,0,0.3,0.1,0.4
			c0.4,0.2,0.8,0.4,1.3,0.5c0.1,0,0.2,0.1,0.4,0.1c0.3,0.1,0.6,0.2,0.8,0.3c-0.2,0-0.4,0-0.7,0c-0.3,0-0.6,0-1.1,0.1
			c-0.5,0.1-2,0.4-2.8,1.8c-0.6,1.1-0.5,2.6,0.3,4.5C548.9,167.5,549.4,167.9,549.9,168.2z"/>
		<path fill="#EF7D00" d="M519,180.3c0.2,0.1,0.7,0.3,1.5,0.4c1.7,0.2,6.1,0.1,11.7-5.2l-3.7-1.6C525.7,176.2,522.4,178.4,519,180.3
			z"/>
		<path fill="#EF7D00" d="M521.2,171.4c0-0.1,0-0.2,0-0.3c0,0,0.1-0.1,0.2-0.3l-1.4-0.6c-1.8,0.2-3.3-0.1-3.7-0.2c0,0,0,0,0,0.1
			c-3.9,2.5-6.6,4.1-7.8,4.9c3,0.3,8.4-1.1,12.1-3.2c0.1-0.1,0.3,0,0.4,0.1s0,0.3-0.1,0.4c-1.8,1.1-3,1.9-4.1,2.5
			c-2,1.3-3,1.9-4.5,2.6c0.1,0,0.3,0.1,0.4,0.1c2,0.6,4.1,1.2,11.5-1.7c1.4-0.6,2.6-1.4,3.7-2.1l-4.5-1.9l-1.9-0.1
			C521.4,171.6,521.3,171.5,521.2,171.4z"/>
		<path fill="#EF7D00" d="M516.8,168.9l-1-0.4c-2.2,0-3.8-0.6-4.6-1c0,0-0.1,0-0.1,0c-0.3,0.3-1.1,1.2-1.8,1.8
			c-1.5,1.5-3.2,3.1-4.2,3.8c1.3,0.2,5.4,0,6.4-0.8c1.2-1,4.1-2.4,4.4-2.6c0-0.1,0-0.1,0.1-0.1C516.1,169.5,516.4,169.3,516.8,168.9
			z"/>
		<path fill="#EF7D00" d="M511.6,166.7l-3.3-1.4c-1.3-0.4-2.6-0.9-3.7-1.4c-0.2,0.2-2.4,1.6-5.1,1.6c0.1,0.2,0.3,0.4,0.6,0.5
			c1.8,1,5.9-0.4,5.9-0.4c0.1,0,0.3,0,0.3,0.1c0.1,0.1,0.1,0.3,0,0.3c-0.1,0.1-2.5,2.5-4.6,3.4c0.7,0.2,1.8,0.3,3.2,0.3
			c1.7,0,3.2-0.3,3.6-0.4c0.2-0.1,0.4-0.2,0.6-0.4c0.6-0.6,1.3-1.3,1.9-2c0,0,0,0,0,0c0,0,0.1-0.1,0.1-0.1
			C511,166.9,511.3,166.8,511.6,166.7z"/>
		<path d="M532.7,175.9c-0.1-0.2-0.2-0.3-0.3-0.5c0,0,0,0-0.1,0c0,0-0.1,0.1-0.1,0.1c-5.6,5.3-10.1,5.4-11.7,5.2
			c-0.8-0.1-1.3-0.3-1.5-0.4c3.3-2,6.7-4.1,9.5-6.4c0.1-0.1,0.3-0.2,0.4-0.3c1.4-1.1,2.4-2.2,3-2.9c0.1-0.5,0.3-0.9,0.4-1.3
			c-0.1,0-0.1,0-0.2,0.1c-1,1.2-2.2,2.4-3.5,3.5c-0.3,0.2-0.5,0.4-0.8,0.6c-1,0.8-2.3,1.5-3.7,2.1c-7.4,2.9-9.5,2.3-11.5,1.7
			c-0.1,0-0.3-0.1-0.4-0.1c1.6-0.7,2.5-1.3,4.5-2.6c1-0.6,2.3-1.5,4.1-2.5c0.1-0.1,0.2-0.3,0.1-0.4s-0.2-0.2-0.4-0.1
			c-3.7,2.1-9.1,3.5-12.1,3.2c1.3-0.7,3.9-2.3,7.8-4.9c0,0,0,0,0-0.1c-0.1,0-0.2-0.1-0.2-0.1c-0.1,0-0.2-0.1-0.2-0.2
			c0,0,0-0.1,0-0.1c-0.3,0.2-3.2,1.6-4.4,2.6c-1,0.8-5.1,1.1-6.4,0.8c1-0.6,2.7-2.3,4.2-3.8c0.7-0.6,1.5-1.5,1.8-1.8
			c-0.1,0-0.1-0.1-0.2-0.1c-0.1,0-0.2-0.2-0.2-0.3c0-0.1,0-0.1,0.1-0.2c0,0,0,0,0,0c-0.6,0.7-1.3,1.3-1.9,2
			c-0.2,0.2-0.4,0.3-0.6,0.4c-0.4,0.2-1.8,0.4-3.6,0.4c-1.4,0-2.5-0.1-3.2-0.3c2.1-0.9,4.5-3.3,4.6-3.4c0.1-0.1,0.1-0.2,0-0.3
			c-0.1-0.1-0.2-0.2-0.3-0.1c0,0-4.1,1.4-5.9,0.4c-0.3-0.1-0.4-0.3-0.6-0.5c2.8-0.1,4.9-1.4,5.1-1.6c-0.2-0.1-0.4-0.2-0.6-0.3
			c-0.8,0.4-2.7,1.4-4.9,1.3c-0.1,0-0.2,0-0.2,0.1c-0.1,0.1-0.1,0.2-0.1,0.2c0.1,0.5,0.5,1,1,1.2c1.4,0.7,3.8,0.3,5.2-0.1
			c-1,0.9-2.8,2.4-4.2,2.7c-0.1,0-0.2,0.1-0.2,0.2c0,0.1,0,0.2,0.1,0.3c1.2,0.9,5.2,0.8,7.1,0.4c-1.5,1.5-2.8,2.6-3.1,2.7
			c-0.1,0-0.3,0.1-0.3,0.2c0,0.1,0,0.3,0.3,0.5c0.7,0.4,3.4,0.3,5.4-0.1c-1.3,0.8-2.3,1.4-2.5,1.5c-0.1,0-0.2,0.1-0.2,0.2
			c0,0.1,0.1,0.3,0.2,0.3c2.3,0.6,6.1-0.2,9.5-1.4c-0.2,0.1-0.3,0.2-0.5,0.3c-2.3,1.5-3.2,2-5.2,2.8c-0.1,0-0.2,0.2-0.2,0.3
			c0,0.1,0.1,0.2,0.2,0.3c0.4,0.1,0.8,0.2,1.2,0.3c2.1,0.6,4.3,1.3,11.8-1.7c-1.9,1.3-3.9,2.5-5.9,3.7c0,0-0.1,0.1-0.1,0.1
			c0,0.1-0.1,0.3,0.2,0.6c0.2,0.1,0.7,0.4,1.4,0.5c0.1,0,0.2,0,0.3,0c0.4,0.1,0.8,0.1,1.3,0.1C524.1,181.3,528,180.3,532.7,175.9z"
			/>
		<path fill="#EF7D00" d="M552.3,187c-0.2-0.4-0.5-0.9-1-1.5L552.3,187z"/>
		<path fill="#EF7D00" d="M548.6,181.3c0.3,0.5,0.7,1.2,1.2,1.9L548.6,181.3z"/>
		<path d="M553.2,187.8c0-0.1-0.2-1.9-2.4-3.7c-0.4-0.3-0.6-0.6-0.9-0.9c-0.6-0.7-1-1.3-1.2-1.9c-0.3-0.7-0.4-1.1-0.4-1.2
			c0-0.2-0.2-0.2-0.3-0.2c-0.2,0-0.2,0.2-0.2,0.3c0,0.1,0.6,2.4,2.8,4.3c0.4,0.3,0.7,0.6,0.9,0.9c0.5,0.6,0.8,1.1,1,1.5
			c0.2,0.5,0.3,0.9,0.3,0.9c0,0.1,0.1,0.3,0.3,0.3c0,0,0,0,0,0C553.1,188.1,553.2,187.9,553.2,187.8z"/>
		<path fill="#EF7D00" d="M556.9,182.3c-0.2-1.6-1.2-6.6-1.4-7.5c-0.3-0.7-3.6-4.8-5.8-6.1c-0.5-0.3-0.9-0.6-1.2-1L556.9,182.3z"/>
		<path d="M548.5,167.1c-1.1-1.1-1.5-2.2-1.5-2.2c-0.1-0.1-0.2-0.2-0.4-0.2c-0.1,0.1-0.2,0.2-0.2,0.4c0,0.1,0.5,1.4,1.8,2.6
			c0.4,0.3,0.8,0.7,1.2,1c2.2,1.3,5.6,5.4,5.8,6.1c0.2,0.8,1.2,5.8,1.4,7.5c0,0.2,0,0.4,0,0.5c0,0.2,0.1,0.3,0.2,0.3c0,0,0,0,0,0
			c0.1,0,0.3-0.1,0.3-0.2c0.1-0.6-0.7-4.8-1.2-7c-0.1-0.6-0.2-1-0.3-1.2c-0.3-0.8-3.7-5.1-6.1-6.4
			C549.4,167.9,548.9,167.5,548.5,167.1z"/>
		<path fill="#EF7D00" d="M534.6,177.6c0.1,0.1,0.1,0.3,0,0.4c-2.8,3.2-3.7,4.4-4,4.9c0.3,0.1,0.7,0.1,1.3,0.1
			c1-0.1,2.5-0.6,4.6-2.2c0.1-0.1,0.3-0.1,0.4,0c0.2,0.3,0.4,0.5,0.7,0.8l-4.4-12.7c0,0.1-0.1,0.3-0.2,0.5
			C531.2,174,533.4,176.3,534.6,177.6z"/>
		<path fill="#EF7D00" d="M538.2,183.1l3,8.7C541.5,191,542,188.2,538.2,183.1z"/>
		<path d="M541.1,186.8L541.1,186.8c-0.1,0.1-0.1,0.1-0.2,0.2c-0.1,0.1-0.3,0.1-0.4-0.1c0-0.1-0.3-0.5-0.2-1.6
			c-0.6-1.1-1.5-2.4-2.7-3.8c-0.2-0.3-0.4-0.5-0.7-0.8c-0.1-0.1-0.3-0.1-0.4,0c-2.1,1.6-3.6,2.1-4.6,2.2c-0.6,0.1-1.1,0-1.3-0.1
			c0.3-0.4,1.1-1.7,4-4.9c0.1-0.1,0.1-0.3,0-0.4c-1.2-1.2-3.5-3.6-1.6-8.3c0.1-0.2,0.1-0.4,0.2-0.5c0.1-0.2,0.1-0.4,0.1-0.6
			c0-0.1-0.2-0.2-0.3-0.2c-0.2,0-0.3,0.2-0.2,0.3c0,0.1-0.1,0.5-0.3,0.8c0,0.1-0.1,0.2-0.2,0.4c-0.1,0.4-0.3,0.8-0.4,1.3
			c-0.3,1.3-0.4,2.9,0.5,4.7c0.1,0.2,0.2,0.3,0.3,0.5c0.3,0.6,0.8,1.2,1.4,1.9c-0.4,0.5-0.8,1-1.2,1.4c-0.6,0.7-1.1,1.3-1.5,1.8
			c-0.9,1.1-1.3,1.8-1.3,2.1c0,0.1,0.1,0.2,0.2,0.3c0.1,0.1,2.5,1.2,6.6-1.9c0.6,0.6,1,1.2,1.5,1.8c3.8,5.1,3.3,7.9,3,8.7
			c-0.1,0.1-0.1,0.2-0.1,0.2c0,0,0,0,0,0c-0.1,0.1,0,0.3,0.1,0.3c0,0,0.1,0,0.2,0c0.1,0,0.1,0,0.2-0.1c0,0,0.1,0,0.1-0.1
			C541.6,192.2,542.7,190.5,541.1,186.8z"/>
		<path fill="#EF7D00" d="M549.6,188.9c-0.3-2.2-3.2-3.1-4.8-3.6c-0.6-0.2-1-0.3-1.1-0.5c-0.2-0.1-0.4-0.3-0.7-0.4
			c-0.5-0.2-1-0.5-1.6-1.1c-0.8,2.5-0.4,3.2-0.4,3.2c0,0.1,0,0.1,0,0.2l0.1,0L549.6,188.9z"/>
		<path d="M545,184.7c-0.4-0.1-0.8-0.3-0.9-0.3c-0.2-0.2-0.5-0.3-0.8-0.5c-0.5-0.3-1.2-0.6-1.8-1.3c-0.1-0.1-0.2-0.1-0.3-0.1
			c-0.1,0-0.2,0.1-0.2,0.2c-0.4,1.2-0.6,2-0.7,2.6c-0.1,1.1,0.2,1.5,0.2,1.6c0.1,0.1,0.3,0.1,0.4,0.1c0.1,0,0.1-0.1,0.1-0.2
			c0-0.1,0-0.2,0-0.2c0,0-0.5-0.8,0.4-3.2c0.6,0.5,1.2,0.8,1.6,1.1c0.3,0.2,0.5,0.3,0.7,0.4c0.2,0.1,0.5,0.2,1.1,0.5
			c1.6,0.5,4.5,1.4,4.8,3.6c0,0,0,0.1,0,0.1c0,0,0,0.1,0.1,0.1c0,0.1,0.1,0.1,0.2,0.1c0,0,0,0,0,0c0.2,0,0.3-0.2,0.3-0.3
			c0,0,0,0,0-0.1C549.9,186.3,546.7,185.3,545,184.7z"/>
		<path fill="#EF7D00" d="M545.9,157.1c-0.5-0.2-1.5-0.2-3.1,0.7c0.3,0.1,0.7,0.1,1,0.2c1.4,0.3,2.3,0.4,2.8-0.3
			C546.5,157.5,546.3,157.2,545.9,157.1z"/>
		<path d="M547.1,157.8c0,0,0-0.1,0-0.1c0-0.2-0.3-0.7-0.8-1c-0.7-0.4-2.1-0.5-4.6,1.1c-0.1,0.1-0.1,0.2-0.1,0.3
			c0,0.1,0.1,0.2,0.3,0.2c0.6,0,1.2,0.2,1.8,0.3c0.6,0.1,1.2,0.2,1.7,0.2C546.1,158.7,546.7,158.5,547.1,157.8z M543.8,157.9
			c-0.3-0.1-0.7-0.1-1-0.2c1.6-0.9,2.6-0.9,3.1-0.7c0.4,0.2,0.6,0.4,0.6,0.6C546.1,158.3,545.2,158.2,543.8,157.9z"/>
		<path fill="#EF7D00" d="M576.1,174.3c0.8,0.5,1.5,0.8,2.1,1.1l0.4-0.6C577.8,174.7,576.9,174.5,576.1,174.3z"/>
		<path fill="#EF7D00" d="M583.4,174.9c3,0.3,4.4,0.1,4.7,0c-0.2-0.5-0.3-0.6-4.5-1.8c-0.1,0-0.3-0.1-0.4-0.1
			c-1.1-0.2-2.1-0.4-2.9-0.7l-1.4,2C580.4,174.6,581.9,174.8,583.4,174.9z"/>
		<path fill="#EF7D00" d="M583.8,167.3l-3,4.5c1,0.3,1.9,0.5,2.7,0.8c3.2,0.5,6.8,0.6,7.5,0.2c-0.8-0.6-1.3-0.9-2.5-1.3
			c-2.2-0.4-3.7-1-3.7-1c-0.1-0.1-0.2-0.2-0.2-0.4c0-0.1,0.2-0.2,0.3-0.2c0.7,0.2,1.3,0.4,1.8,0.5c0.8,0.2,1.4,0.4,1.9,0.5
			c2.3,0.4,5.3,0.5,7.8-0.7l0-0.8l-0.3-0.1l-0.5-0.4c-0.3,0-0.5,0-0.8,0l-0.1,0.1l-0.2,0.1l-0.2-0.1
			C589.7,168.5,584.1,167.4,583.8,167.3C583.8,167.3,583.8,167.3,583.8,167.3z"/>
		<path fill="#EF7D00" d="M588.3,184.4c-0.6-0.4-1.8-0.7-3.4-1.1c-2.5-0.6-5.9-1.4-9.8-3.2l-1.6,2.4
			C579.6,185.4,585.9,187.3,588.3,184.4z"/>
		<path fill="#EF7D00" d="M569.1,176.2c2.2,1.5,4.3,2.6,6.3,3.5l0.9-1.4C573.8,178.2,571.3,177.3,569.1,176.2z"/>
		<path fill="#EF7D00" d="M580.6,177.2c-0.5-0.3-1.1-0.5-1.6-0.8c-0.3-0.2-0.7-0.3-1-0.5l-1.3,1.9
			C578,177.8,579.3,177.6,580.6,177.2z"/>
		<path fill="#EF7D00" d="M569.4,181.3c1.2,0.7,2.4,1.4,3.5,2.1l0.2-0.3C571.9,182.5,570.6,181.9,569.4,181.3z"/>
		<path fill="#EF7D00" d="M570.9,186.4C570.9,186.4,570.9,186.4,570.9,186.4c0.4,0.4,4.1,1.3,6.8,1.1c0.7,0,1.1-0.1,1.4-0.2
			c-1.1-0.4-3.3-1.5-6.5-3.4l-1.6,2.4L570.9,186.4z"/>
		<path d="M584.1,166.8c-0.1-0.1-0.3,0-0.4,0.1c0,0.1,0,0.1,0,0.2c0,0.1,0.1,0.1,0.1,0.2c0,0,0,0,0,0c0.2,0.1,5.8,1.2,10.5,1.5
			l-0.2-0.1l-0.2-0.5l0,0c-3.7-0.3-7.9-1-9.4-1.3C584.3,166.8,584.1,166.8,584.1,166.8z"/>
		<path d="M595.6,168.8l-0.2-0.1l-0.4,0l-0.2,0.1C595.1,168.8,595.4,168.8,595.6,168.8L595.6,168.8z"/>
		<path d="M588.6,170.9c-0.5-0.1-1.1-0.3-1.9-0.5c-0.5-0.1-1.1-0.3-1.8-0.5c-0.1,0-0.3,0-0.3,0.2c0,0.1,0,0.3,0.2,0.4
			c0,0,1.6,0.6,3.7,1c1.3,0.4,1.7,0.6,2.5,1.3c-0.7,0.3-4.3,0.3-7.5-0.2c-0.8-0.2-1.6-0.5-2.7-0.8c-0.4-0.1-0.8-0.2-1.2-0.3
			c-0.1,0-0.3,0-0.3,0.2c-0.1,0.1,0,0.3,0.1,0.4c0.3,0.1,0.6,0.3,1,0.4c0.8,0.3,1.8,0.5,2.9,0.7c0.1,0,0.3,0.1,0.4,0.1
			c4.1,1.2,4.3,1.2,4.5,1.8c-0.3,0.2-1.7,0.3-4.7,0c-1.5-0.1-3-0.3-4.4-0.6c-2.1-0.4-3.9-0.8-4.8-1.2c-0.2-0.2-0.5-0.3-0.8-0.5
			c-0.1-0.1-0.3-0.1-0.4,0c-0.1,0.1-0.1,0.3,0,0.4c0.1,0.2,0.4,0.4,0.8,0.6c1.7,1.1,3,1.8,4.1,2.4c0.4,0.2,0.7,0.3,1,0.5
			c0.6,0.3,1.1,0.5,1.6,0.8c-1.3,0.4-2.6,0.6-3.9,0.6c-4-0.1-7.9-2.2-10.9-4c-0.2-0.1-0.3-0.2-0.5-0.3c-0.1-0.1-0.3-0.1-0.4,0.1
			c-0.1,0.1-0.1,0.2,0,0.3c0,0,0,0.1,0.1,0.1c3.5,2.9,6.9,4.9,10,6.3c3.9,1.8,7.4,2.6,9.8,3.2c1.6,0.4,2.9,0.7,3.4,1.1
			c-2.4,2.8-8.8,1-14.9-1.8c-4.3-2-8.5-4.4-11.2-6c-1.5-0.9-1.5-0.9-1.7-0.8c-0.1,0.1-0.1,0.2-0.1,0.3c0.1,0.3,6.6,4.4,9,5.9
			c1.1,0.7,2.2,1.3,3.1,1.9c3.2,1.9,5.4,3,6.5,3.4c-0.3,0.1-0.7,0.2-1.4,0.2c-2.7,0.1-6.4-0.7-6.7-1.1c0,0-0.1,0-0.1-0.1
			c-0.1-0.1-0.2-0.1-0.3,0c-0.1,0.1-0.1,0.1-0.1,0.2c0,0.1,0,0.1,0,0.2c0.1,0.2,0.5,0.3,1,0.5c0.3,0.1,0.7,0.2,1.1,0.3
			c0.6,0.1,1.3,0.3,2,0.3c0.6,0.1,1.2,0.1,1.8,0.2c0.2,0,0.4,0,0.6,0c0,0,0.1,0,0.1,0c1.6,0,2.6-0.3,2.9-0.8c0.1-0.1,0.1-0.2,0-0.3
			c-0.1-0.1-0.2-0.1-0.3-0.1c-0.6,0.1-3.5-1.5-6.8-3.4c-1.1-0.7-2.3-1.4-3.5-2.1c1.2,0.6,2.5,1.2,3.7,1.8c4.1,1.9,8.3,3.3,11.4,3.3
			c1.9,0,3.5-0.5,4.5-1.8c0.1-0.1,0.1-0.2,0-0.2c0,0,0-0.1,0-0.1c-0.1-0.1-0.3-0.2-0.4-0.3c-0.7-0.4-1.9-0.7-3.5-1.1
			c-2.4-0.6-5.8-1.4-9.6-3.1c-2-0.9-4.1-2-6.3-3.5c2.2,1.1,4.7,2,7.3,2.1c1.7,0.1,3.4-0.1,5.1-0.8c0,0,0,0,0,0c-0.2,0-0.4,0-0.5,0
			c-0.2,0-0.3-0.2-0.2-0.3c0-0.2,0.2-0.3,0.3-0.2c0,0,0.1,0,0.2,0c-0.7-0.4-1.3-0.7-2-1c-0.3-0.1-0.6-0.3-1-0.5
			c-0.7-0.3-1.4-0.7-2.1-1.1c0.8,0.2,1.6,0.4,2.5,0.6c3.9,0.7,8.7,1.1,9.7,0.6c0.4-0.2,0.3-0.5,0.3-0.6c-0.2-0.6-0.3-0.9-2-1.4
			c1.4,0.1,4.1,0.2,4.7-0.4c0.2-0.2,0.2-0.4,0.1-0.6c0,0,0-0.1-0.1-0.1c-0.3-0.3-0.6-0.5-0.9-0.7c1.8,0.1,3.9,0,5.7-0.8l0.1-0.5
			l0-0.1C593.9,171.5,590.9,171.3,588.6,170.9z"/>
		<path d="M587,177.4c0.2,0,0.3-0.2,0.2-0.3c0-0.2-0.2-0.3-0.3-0.2c-1.2,0.2-4.7,0.2-5.6,0.1c-0.1,0-0.1,0-0.2,0
			c-0.2,0-0.3,0.1-0.3,0.2c0,0.2,0.1,0.3,0.2,0.3c0.1,0,0.3,0,0.5,0c0.4,0,1,0,1.6,0C584.5,177.5,586.2,177.5,587,177.4z"/>
		<path fill="#EF7D00" d="M523.3,171.1l-1-0.4c-0.1,0.1-0.2,0.2-0.3,0.3L523.3,171.1z"/>
		<path fill="#EF7D00" d="M522.3,169.8c-0.5,0.2-0.9,0.3-1.4,0.4l0.8,0.3C521.9,170.3,522.1,170.1,522.3,169.8z"/>
		<path fill="#EF7D00" d="M517.4,168.4c-0.2,0-0.5,0-0.7,0.1l0.4,0.2C517.2,168.6,517.3,168.5,517.4,168.4z"/>
		<path fill="#EF7D00" d="M512.6,166.3c-0.6,0-1.4-0.2-2.1-0.4l1.6,0.6C512.2,166.5,512.4,166.4,512.6,166.3z"/>
		<path fill="#EF7D00" d="M516.9,169.6c0.6,0.1,1.7,0.3,3,0.1l-2.1-0.9C517.4,169.2,517.1,169.4,516.9,169.6z"/>
		<path fill="#EF7D00" d="M511.9,167.2c0.8,0.3,2,0.7,3.5,0.7l-2.7-1.1C512.5,167,512.2,167.1,511.9,167.2z"/>
		<path d="M504,163.6c0.2,0.1,0.4,0.2,0.6,0.3c1.1,0.5,2.4,0.9,3.7,1.4c0.7,0.2,1.5,0.5,2.2,0.6c0.8,0.2,1.5,0.3,2.1,0.4
			c-0.2,0.1-0.4,0.2-0.6,0.3c-0.1,0.1-0.3,0.1-0.4,0.2c-0.4,0.1-0.6,0.2-0.6,0.2c0,0-0.1,0-0.1,0.1c-0.1,0-0.1,0.1-0.1,0.2
			c0,0.1,0.1,0.2,0.2,0.3c0.1,0,0.1,0,0.2,0.1c0,0,0.1,0,0.1,0c0.8,0.3,2.4,0.9,4.6,1c0.3,0,0.6,0,0.9,0c0.2,0,0.5,0,0.7-0.1
			c-0.1,0.1-0.2,0.2-0.3,0.2c-0.1,0.1-0.2,0.2-0.3,0.3c-0.4,0.3-0.7,0.6-0.7,0.6c0,0-0.1,0.1-0.1,0.1c0,0,0,0.1,0,0.1
			c0,0.1,0.1,0.2,0.2,0.2c0,0,0.1,0,0.2,0.1c0.5,0.1,1.9,0.5,3.7,0.2c0.3,0,0.5-0.1,0.8-0.1c0.4-0.1,0.9-0.2,1.4-0.4
			c-0.2,0.3-0.4,0.5-0.6,0.7c-0.1,0.2-0.2,0.3-0.3,0.4c-0.1,0.2-0.2,0.3-0.2,0.3c-0.1,0.1-0.1,0.2,0,0.3c0,0.1,0.1,0.2,0.2,0.2
			l1.9,0.1l0.7,0c0,0,0,0,0,0c0.1,0,0.3-0.1,0.3-0.3c0-0.2-0.1-0.3-0.3-0.3l-0.8,0l-1.3-0.1c0.1-0.1,0.2-0.2,0.3-0.3
			c0.3-0.4,0.7-0.9,1.2-1.5c0.1-0.1,0.1-0.3,0-0.4c-0.1-0.1-0.2-0.1-0.3-0.1c-1.2,0.6-2.3,0.8-3.3,0.9c-1.3,0.1-2.4,0-3-0.1
			c0.2-0.2,0.6-0.5,0.9-0.7c0.3-0.2,0.5-0.5,0.8-0.7c0.1-0.1,0.1-0.2,0.1-0.3c-0.1-0.1-0.2-0.2-0.3-0.1c-1.1,0.2-2,0.3-2.9,0.2
			c-1.5-0.1-2.7-0.4-3.5-0.7c0.2-0.1,0.5-0.2,0.8-0.4c0.3-0.2,0.7-0.4,0.9-0.6c0.1-0.1,0.1-0.2,0.1-0.3c0-0.1-0.2-0.2-0.3-0.2
			c-3.6,0.3-12.1-3.8-12.2-3.9c0,0,0,0,0,0c-0.1,0-0.3,0-0.3,0.1c-0.1,0.1,0,0.2,0.1,0.3c0,0,0,0,0.1,0.1
			C501.2,162.4,502.3,163,504,163.6z"/>
	</g>

		<path vector-effect="none" fill="none" stroke="#999999" stroke-width="0.25" stroke-linecap="round" stroke-linejoin="round" stroke-miterlimit="10" d="
		M594,166.2l0.1,2l0.2,0.5l0.3,0.3l0.2-0.1l0.2-0.2l0.4,0l0.2,0.1l0.5,0.5l0.3,0.1l0,0.9l-0.6,2.5l0.4,0.9l0.4,0.1l0.4-0.2l0.4-0.3
		l0.5-0.1l0.4,0.2l0.1,0.4l0.1,0.4l0.2,0.3l0.8,0.3l0.3-0.6l0.1-1l0.2-0.9l0.8,0.4l1.8,0.1l0.7,0.5l0.5,0.9l0.2,0.5l0,0.5l-0.1,0.4
		l-0.2,0.3l-0.1,0.3l0.1,0.5l0.3,0.5l0.9,0.5l0.4,0.4l0.5,0.9l0.3,0.4l0.4,0.4l0.4,0.2l1.3,0.5l0.2,0.3l0.5,1.4l0.2,1l-0.3,0.7
		l-1,1.6l-0.6,1.6l-0.2,0.9l0,0.9l0.5,0.6l2.8,1.2l0.7,0.6l0.6,0.6l0.6,0.5l0.9,0.3l0.6,0.8l0.7,0.5l0.5,0.6l0.1,1.1l-0.2,1.9
		l0.1,0.8l0.9,2.1l0.3,0.4l1,0.9l0.3,0.3l0.7,1.6l0.5,0.6l0.9,0.1v0.9l0.2,0.6l0.1,0.6l-0.6,0.8l-0.5,0.5l-1.3,1l-0.4,0.2l-0.5,0.3
		l-1.7,1.9l-0.6,1.4l-0.4,0.6l-0.7,0.4l-0.5,0.1l-0.6,0.6l-0.5,0.2l-0.5,0l-1.1-0.2l-0.5,0.1l-0.5,0.2l-0.9,0.2l-0.5,0.2l-0.4,0.4
		l-0.6,1l-0.5,0.3l-0.4,0l-0.4-0.1l-0.3,0.1l-0.3,0.6l0,0.5l0.3,0.2h0.4l0.5-0.1l0.5,0.4l0.3,1.1l0.2,2.1l0.3,1l0.5,1l0.6,0.9
		l0.8,0.8l1.1,1.9l-0.3,1l-0.5,1l-2.4,3.7l0,0.2l0.1,0.4l-0.1,0.2l-0.2,0.2l-0.5,0.2L606,234l-0.1,0.5l0.1,0.4l0,0.4l-0.3,0.5
		l-0.9-0.7l-0.3,0.5l0.2,2.9l0,0.4l-0.2,0.6l-0.5,1.1l0.1,0.3l0.6,0.2h0.6l0.6-0.1l0.6,0.1l0.5,0.5l0.2,0.6l0.4,5.6l-0.1,1.3
		l-0.5,1.3l0,0.6l0.4,0.8l0.1,0.5l-0.1,0.5l-0.2,0.5l-0.3,1.8l-1.3,3.2l-0.1,1.2l0.1,1.2l0.3,0.6l1,0.9l0.4,0.5l0.4,1.1l0.6,2.4
		l0.7,1l1.2,0.4l2.5-0.8l1.3,0.5l0.6,0l0.4,0.1l0,0.7l-0.3,0.6l-1,0.6l-0.3,0.6l-0.5,0.1l-0.2,0.3l0,0.9l-0.3,0.4l-1,0.4l-0.4,0.4
		l-0.5,0.8l-0.7,0.7l-0.8,0.5l-0.7,0.2l-0.3-0.1l-0.3-0.2l-0.3-0.2l-0.4,0l-0.9,0.2l-0.3,0.1l-0.4,0.4l-0.6,1.2l-0.5,0.3l-0.3,0.1
		l-0.2,0.1l-0.1,0.1l-0.2,0.1l-0.2,0.2l-0.1,0.2l-0.2,0.2l-0.3,0l-0.1-0.2l-0.4-0.8l-0.2-0.2l-0.3-0.1l-0.3,0l-0.5,0.1l-0.3,0.2
		l-0.3,0.3l-0.3,0.1l-0.2-0.2l-0.1-0.3l-0.2-0.2l-0.2-0.1l-0.3,0.1l-0.5,0.4l-0.4,0.5l-1,2.1l-1.2,1.8l-0.5,0.9l-0.1,0.6l0.2,2.6
		l0.2,0.4l0.9,0.6l0.8,0.8l0.3,0.8l-0.2,1l-0.9,2.1l-0.5,3.9l0,0.6l0.1,0.6l0.3,0.6l0.5,0.8l0.1,0.4l-0.2,0.5l-1,0.3l-0.8,1.1
		l-0.6,1.4l-0.9,3.8l-0.6,1.3l-1,0.5l-0.6,0.1l-0.3,0.4l-0.1,0.5l0,0.6l-0.2,0.8l-0.4,0.3l-1.3,0.2l-0.5,0.3l-0.9,0.8l-0.4,0.1
		l-0.6-0.2l-0.5,0l-0.3,0.3l-0.2,0.7l0.4,1.1l1.1,0.2l1.3,0l0.9,0.4l1.3,1.8l0.2,0.4l-0.3,0.4l-1.3,0.6l-0.4,0.4l0.2,1l1,0.4
		l1.3,0.3l1,0.4l0.5,0.4l1.7,2.1l0.1,0.5l0.1,0.5l0.2,0.6l0.3,0.2l0.6,0l0.3,0.1l0.2,0.3l0,0.2l-0.1,0.2l-0.1,1.8l0.2,0.5l0.8,1
		l0.6-0.1l1.1-1.7l0.5-0.5l0.5-0.3l1.2-0.4l0.3-0.3l0.3-0.9l0.3-0.2l0.5,0.4l1.1,2l0.6,0.7l-2.5,0.8l-3,1l-4.3,1.5l-5.9,2l-5.8,2
		l-5.2,1.8l-3.6,1.2l-3.2,1.1l-2.7,0.5l-1.3,0.4l-2.6,1.2l-3.4,1.1l-4.5,1.5l-4.9,1.6l-2.4,1.2l-3.2,1.7l-2.9,1.1l-3.6,0.9l-4.4,1.1
		l-3.5,0.9l-0.6,0.1l-4.8,1.1l-3.4,0.8l-4.7,1.7l-2.9,1.1l-3.6,1.3l-3.2,1.6l-2.5,1.3l-3,0.4l-0.6,0.1l0,0.2l0.2,1v1.6l0.2,1.5
		l1.3,4.4l0.8,1.7l1.1,0.7l0.5,0.2l0.4,0.5l0.4,0.6l0.2,0.7l0.1,0.7l0.1,2.3l0.1,0.4l0.5,0.7l0.1,0.3l-0.1,0.4l-0.6,1.2l-0.2,0.8
		l0.1,0.5l1,1l0.2,0.3l0.4,1l-0.1,0.1l-0.5,0.2l-1.4,0.6l-1,0l-1.6-0.7l-0.9-0.1l-0.3,0.1l-0.5,0.4l-0.3,0.2l-0.6,0.1l-0.4-0.1
		l-0.9-0.6l-1.4-0.3l-1.4,0.2l-1.4,0.4l-1.4,0.2l-1.5-0.2l-2.9-0.8l-1.5-0.1l-0.8,0.2l-1.4,0.6l-1.5,0.2l-2,0.6l-0.8,0.1l-0.7-0.1
		l-0.7-0.2l-0.7-0.1l-0.8,0.2l-1.3,1.1l-0.6,0.4l-3,0.3l-0.5,0.1l-7.5,3.5l-1.2,1.3l-0.3,0.2L464,391l-0.7,0.4l-0.5,0.5l-0.3,0.4
		l-0.7,1.4l-0.4,0.4l-0.8,0.2l-1.5,0l-0.7,0.1l-0.7,0.3l-1.1,1.1l-0.7,0.9l-0.1,0.2l-0.5,0.7l-0.1,0.4l0.1,0.3l0.2,0.3l0.2,0.2
		l0.1,0.2l-0.2,1.2l-0.4,1.5l-0.2,1.4l0.6,1l-0.8,1.9l-0.1,0.8l0.1,0.6l0.6,1.5l0,0.8l-0.8,1.4l-0.1,0.3l-0.2,1.3l-0.5,0.5l-1.4,1
		l-0.3,0.6l-0.7,0.7l-0.3,0.3l-0.5,0.1h-1l-1.6,0.3l-12.4,4.9l-2.3,1.5l-3.4,2.8l-8.4,3.6l-1.8,1.1l-1.4,1.5l-4.7,7l-0.6,1.2
		l-0.7,2.8l-0.9,1.8l-1.8,1.9l-3.5,3.2l-9.1,9.4l-0.4,0.5l-0.1,0.4l0.1,0.9l0.1,0.8l-1.1,1.4l-1.3,1.2l-1,1l-0.9,0.5l-0.5,0.2
		l-1.6,0.1l-0.3,0.1l-1.3,0.8l-0.8-0.3l-3.2,1.5l-0.8,0.1l-0.6,0.1l-0.4,0.3l-1,0.9l-0.4,0.1l-0.5-0.1l-1.9-0.6l-0.6-0.3l-0.5-0.4
		l-0.5-0.6l-0.4-0.4l-0.6-0.2l-0.9-0.2l-1.4-0.5l-2.6-1.4l-1.6-0.3l-1.3,0.2l-0.2-0.1l-0.2-0.2l-0.3-0.2l-0.3-0.2l-1.6-0.2l-0.3-0.1
		l-0.2-0.2l-0.2-0.3l-0.2-0.3l-0.3-0.1l-0.3,0.2L363,464l-0.3,0.2l-0.8,0.2l-0.6,0.3l-0.6,0.1l-0.2,0.1l0,0.1l0.1,0.5l0,0.1
		l-0.5,0.1l-0.6,0l-0.5,0.1l-0.2,0.4l-0.2-0.2l-1.9,1l-0.4,0.1l-1.4-0.1l-2.1-1l-0.3-0.4l-0.2-0.6l0-0.5l0.6-0.2l-0.5-0.6l-1.6-0.7
		l-0.3-0.6l-0.3-0.4l-0.7-0.4l-0.7-0.4l-1.3-0.3l-0.4-0.4l-0.4-0.3l-0.8,0.1l-1.8,0.8l-2.3,0.4l-0.2,0.1l-0.3,0.3l-0.2,0.1l-0.2-0.1
		l-0.3-0.2l-0.2,0h-2.6l-0.4-0.1l-1.1-0.4l-1.1,0l-0.3,0l-0.7-0.3l-1-0.8l-0.6-0.3l-0.2-0.2l-0.2-0.4l-0.4-0.4l-0.5-0.3l-0.5-0.1
		l-0.6,0l-0.3-0.1l-0.4-0.6l-0.2-0.1l-0.4-0.2l-0.1-0.2l0-0.2l0-0.4l-0.1-0.2l-0.5-0.5l-0.2,0l-0.3,0.4l-0.1-0.3l-0.2-0.2l-0.2-0.2
		l-0.3-0.1l-0.1-0.2l-0.3-1.1l-0.1-0.1l-0.6-0.6l-0.1-0.1h-0.4l-0.3-0.1l-0.2-0.1l-0.2-0.3v-0.2l0.2-0.6l-0.1-0.1l-0.4,0.1l-0.6,0.2
		l-0.3,0l-0.5-0.4l-0.4-0.6l-0.4-0.3l-0.7,0.3l-0.4-0.6l-0.9-0.4l-2.4-0.5l-1.1,0l-0.4-0.1l-0.2-0.2l-0.2-0.2l-0.2-0.1l-2.9-0.5
		h-1.5l-0.3,0.1l-0.2,0.2l-0.2,0.2l-0.4,0.2l-0.5,0.5l-0.4,0.2l-0.3,0l-0.3,0l-0.6-0.2l-0.3-0.2l-0.2-0.2l-0.3-0.2l-0.9-0.2
		l-0.6-0.3l-1-0.2l-1.4-0.5l-0.6-0.1l-0.6,0.1l-1.4,0.4l-0.3,0.1l-0.4-0.2l-1.8-0.1l-0.6-0.1l-0.6,0.1l-1,0.2l-1.5,0.3l-1.5,0.3
		l-1.5,0.3l-1.5,0.3l-1.5,0.3l-1.5,0.3l-1.5,0.3l-1.5,0.3l-1.5,0.3l-1.5,0.3l-1.5,0.3l-1.5,0.3l-1.5,0.3l-1.5,0.3l-1.5,0.3l-1.5,0.3
		l-1,0.2l-0.6,0l-1.2,0.2l-1.4,0.3l-0.2-0.5l0-0.5l0.3-0.5l-0.8-0.6l-0.6-0.8l-0.7-0.5l-0.5-0.2l-0.5-0.1l-1.1-0.1l-0.6,0.1
		l-0.6,0.1l-0.6,0.1l-0.6-0.2l-0.4-0.4l0-0.5l0.1-0.6l-0.1-0.6l-0.4-0.4l-1.5-0.6l-0.8-0.7l-0.8-1l-0.7-1.1l-0.3-1l-0.2-0.4
		l-1.4-1.5l-0.5-0.3l-1.6-0.4l-2.1-0.9l-0.9-0.6l-1.4-1.2l-1.1-0.6l-0.4-0.4l-0.3-0.5l-0.4-1.7l-0.5-1l-0.7-0.9l-1.5-1.7l-0.5-0.4
		l-2-0.8h-0.4l-0.2-0.2l-0.1-0.3v-0.6l-0.1-0.3l-0.4-0.5l-1.1-0.3l-0.5-0.3l-0.3-0.4l-0.4-1l-2.5-3.9l-0.3-0.3l-0.3-0.2l-0.5-0.1
		l-0.2-0.1l-0.2-0.2l-0.2-0.4l-0.5-0.7l-0.2-0.5l-0.3-0.3l-0.9-0.2l-0.1-0.1l-0.3-0.3l-0.2-0.1l-0.1,0.1l-0.1,0.1l-0.3,0.1l-0.5,0.2
		l-0.3,0l-0.5-0.2l-2.9-2.4l-0.2-0.5l-0.1-0.6l-0.1-0.5l-0.4-0.2l-0.7-0.1L224,415l0.1-0.4l0-0.5l-0.2-0.5l-0.6-1l-0.2-0.4l0-0.6
		l0.2-0.7l0.3-0.6l0.3-0.5l0.1-0.4l-0.6-0.3l-1.1-0.3l-0.1-0.2l0-0.8l0-0.4l-0.1-0.2l-0.4-0.4l-0.1-0.2l-0.2-0.5l-0.1-0.4l-0.1-0.4
		l-0.4-0.5l0.3,0l0.9,0l-1.2-1.9l-0.9-1.1l-0.1-0.8v-0.6v-2.2v-2.2l0-0.1l0-1.6v-3.6l0-3.6l0-3.6V380v-1.6v-1.1v-0.7v-1.4v-5.3
		l0-5.3v-5.3V354v-5.3l0-5.3v-5.3v-5.3l0-5.3v-5.3V317v-5.3l0-5.3v-5.3V296l0-5.3h4.3h4.3h4.2h4.3h4.2h4.3h4.2h4.3h4.3h4.3h4.2h4.3
		h4.2h4.3h4.2h4.2h1.1l-0.4-1.3l-0.6-1.1l-0.8-1l-1.9-1.9l-0.7-1l-0.3-1.1l0.2-1.4l0.7-1.6l0.6-2.6l0.6-2.4l0.4-1l1.5-2.3l1.2-1.7
		l0.3-0.6l0.1-0.6l-0.3-1.6l-0.1-2.1l-0.4-0.9l-0.9-0.9l-0.7-1.1l-0.2-1.6l0.2-4.9l0.2-4.5l0.7-1.7l0.1-0.4l-0.2-0.9l-0.1-2.6
		l-0.3-0.8l-0.3-0.7l-0.3-0.7v-0.9l0.2-0.7l0.6-1.4l1-1.5l0.1-0.4v-0.6l-0.1-0.8l0-0.4l0.1-0.4l0.4-0.5l1.1-0.8l0.3-0.5l0-0.4
		l-1.5-3.3l-0.2-0.9l0.1-4.9l-0.7-0.1l-0.2-0.5l0.2-1.3l0-1.9l0.1-0.6l0.2-0.7l-0.1-0.5l-0.7-1l-0.2-0.6l-0.2-1.7l1.2,0l1.6,0.3
		l1.5,0.5l0.8,0.7v0.3l-0.2,0.6l0,0.3l0.1,0.4l0.2,0.7l0.1,0.4l-0.1,1.2l0.2,0.4l0.7-0.1l0.7-0.2l0.6,0l1.3,0.4l0.7,0.1h1.3l0.6,0.1
		l0.8,0.3l1,0.6l0.9,0.8l0.4,0.7l-0.1,0.4l-0.3,0.3l-0.3,0.3l0,0.5l0.2,0.4l0.6,0.5l0.2,0.3l0.2,0.6l0,0.7l-0.1,0.7l-0.1,0.7
		l-0.3,0.6l-1.1,1.7l-0.4,0.4L299,234l-0.4,0.4l0.3,0.6l0.6,0.3l1.4,0l0.6,0.1l0.8,0.5l1.2,1.1l0.7,0.3l0.8,0.1l0.7-0.1l1.4-0.5
		l0.3,0l0.4,0l0.4-0.1l0.2-0.3l0.1-0.4l0.1-0.3l0.2-0.3l0.3-0.3l0.3-0.1l0.8-0.2l0.4-0.2l0.3-0.3l0.6-0.8l0.4-0.3l1.3-0.5l2.6,0
		l1.3-0.3l2.5-1.3l1.4-0.4l1.3,0.1l4.9-0.4l2-0.4l3.2-1.6l1.1-0.2l0.4,0.4l0.1,0.8l0,0.9l0.1,0.7l0,0.3l-0.3,0.2l-0.7,0.3l-0.4,0.3
		l0.2,0.3l0.4,0.3l0.2,0.3l-0.3,0.6l-0.4,0.3l-0.3,0.4l0,0.8l0.3,0.7l0.8,1.3l0.3,0.6l-0.1,0.3l-0.5,0.6l-0.1,0.3v0.3l0.1,0.6
		l0.9,2.8l0.3,0.6l0.3,0.3l0.2,0.1l0.3,0l0.4,0l0.4,0.1l0.2,0.2l0.2,0.3l0.3,0.3l2,0.9l0.6,0.5l0,0.2l0,0.2l0,0.2l-0.3,0.9l0.2,0.5
		l0.5,0.2l0.7,0l0.3-0.2l0.2-0.2l0.2-0.2l0.4-0.1l0.4-0.1l0.1-0.3l0.1-0.4l0.3-0.2l1.6,0l1.2,0.8l1.1,1l1.3,0.8l0.6,0.1l2,0l0.4,0
		l0.7-0.3l0.3-0.1l0.4,0.1l0.2,0.1l0.1,0.2l1.9,1.5l0.7,0.3l0.5,0.4l0.5,1.1l0.6,0.3l0.4,0.1l5.9-0.1l0.8,0.3l0.7,0.4l0.7,0.3
		l1.2-0.1l0.7,0.3l0.4,0l0.4-0.2l0.7-0.5l0.4-0.2l1.3-0.2l1.3,0l0.8,0.3l0.6,0.4l0.5,0.5l0.6,0.5l1.2,0.4l2.8,0.2l1.3,0.3l0.7,0.4
		l0.6,0.5l0.6,0.3l0.7-0.2l0.5-0.5l0.4-0.6l0.5-0.4l0.9,0l1.6,0.2l1.5-0.3l1.3-0.8l1.2-1.2l0.7-1.3l0.1-2.8l0.3-1.4l0.5-0.8l0.5-0.5
		l0.4-0.5l0.1-0.9l-0.4-1.5l0-0.7l0.5-0.5l0.3,0l0.7,0.1l0.3,0l1.3-0.4l1.5-0.1l1-0.4l0.2,0l0.6,0.8l0.4,1.6l0.1,1.7l-0.1,1.2l0.8,3
		l6.4,3.9l1.6,2.8l0.1,1.4l1.7,4.8l0.5,0.7l2,1.6l1.5,1.6l1,0.3l1.5,0.1l1.6-0.1l1.1-0.3l0.6-0.5l0.4-0.5l0.4-0.3l0.9,0.1l0.7,0.3
		l1.9,1.2l0.5,0.6l0.1,0.9l0.2,0.7l0.8,0.2l0.6-0.1l0.5,0l2.5,0.2l0.3,0.2l0.1,0.3l0.1,0.3l0.2,0.3l0.8,0.7l0.5-0.2l0.5-0.5l0.9-0.2
		l0.7,0.3l0.5,0.5l0.6,0.4l0.9,0l0.7-0.1l0.7,0.1l0.6,0.2l0.6,0.3l2.8,2.5l0.5,0.7l0.7,1.7l0.4,0.8l1.1,1.2l0.4,0.7l0,0.9l-0.4,0.6
		l-0.6,0.4l-0.3,0.5l0.2,0.9l0.7,0.9l0.8,0.8l0.5,0.8l0.1,1.8l0.4,0.3l0.5,0l0.5-0.2l0.3-0.4l0.5-1l0.4-0.3l1.6,0.3l1.4,1.4l2.3,3
		l0.6,0.5l0.2,0.4l0.3,1.3l0.1,0.2l0.5,0.2l0.1,0.1l0,0.2l-0.2,0.4l0,0.2l0,0.2l0,0.4l0,0.2l0.1,0.1l0.2,0.1l0.2,0l0.1,0.1l0.3,1.2
		l0.3,0.2l0.7,0l0.3,0.1l0.4,0.5l1,5.1l0.6,1.4l1,1l0.4,0.6l0.6,0.1l0.6-0.1l0.6-0.2l0.9,0l0.9-0.1l0.8,0l0.8,0.4l0.3,0.4l0.2,0.5
		l0.3,0.4l0.5,0.1l0.4-0.2l0.7-0.8l0.5-0.3l0.8-0.3l2-1.3l4.8-1.9l0.7-0.4l2-1.9l0.8-0.3l0.8,0l0.6,0.4l0.6,0.5l0.7,0.4l0.4,0
		l0.3-0.1l0.3,0l0.3,0.4l0.1,0.4l0,0.4l-0.1,0.3l-0.2,0.3l-0.3,0.2l-0.6,0.1l-0.2,0.3l-0.1,0.3l0.1,0.7l-0.1,0.3l-0.2,0.1l-0.3,0.1
		l-0.3,0.2v0.5l0.1,0.4l0.2,0.4l0.2,0.4l0.3,0.3l0.5,0.3l0.7,0.3l1.4,0.4l2.2,0l0.5-0.1l0.5-1.1l0-3.9v-5.2l0-4.9l0-5.2v-6.1l0-5.2
		l0-5.8v-4.1l0-3.7l0-0.2l-1.5,0.1l-0.7,0.2l-1.2,0.8l-1.8,0.8l-0.6,0.1l-0.4-0.2l-0.6-0.6l-0.4-0.2h-0.5l-0.3,0.1l-0.5,0.5
		l-0.7,0.4l-1.5,0.5l-0.5,0.4l-0.2,0.4l-0.4,1.4l-0.1,0.8l-0.1,0.3l-0.1,0.3l0.1,0.3l1,1.3l0.5,0.2l0.5,0l0.4,0.2l0.2,0.6l-0.1,0.6
		l-0.3,0.5l-0.5,0.3l-0.6,0.1l-0.3-0.1l-0.1-0.1l-0.1-0.1l-0.2-0.1l-0.2,0l-0.5,0l-0.2,0l-0.9-0.3l-1.4-0.8l-0.3-0.1l-1.4,0
		l-0.4-0.1l-0.3-0.1l-0.4-0.4l-0.6-0.7l-0.4-0.2l-2.8,0.1l-0.8,0.2l-0.7,0.3l-0.6,0.4l-0.4-0.7l-0.5,0.1l-0.6,0.3l-0.5,0l-0.3-0.2
		l-0.3,0l-0.2-0.1l-0.1-0.5l-0.1-0.4L458,263l-0.9-1.1l-2-1.1l-0.3-0.4l-0.1-0.6l-0.4-0.7l-0.5-0.6l-0.4-0.4l-1.2-0.6l-0.5-0.4
		l-0.2-0.5l-0.1-1l-0.3-0.3l-1.2,0.2l-0.7-0.2l-1.7-0.9L447,254l-0.6-1.3l-0.5-0.3l-0.8,0.5l-0.1-0.3l-0.4-0.7l-0.2-0.2l-0.3-0.3
		l-0.3-0.2l-0.4,0l-0.5,0.2l-0.4-0.5l-0.3-1.7l-0.4-0.4l-0.6-0.2l-0.3-0.4l-0.3-2.4l-0.1-0.4l-0.5-0.5l-0.2-0.3l0.1-0.1l0-0.3
		l-0.6-2.1l-0.2-0.3l-0.5-0.5l-0.3-0.4l-0.4-1l-0.2-0.3l-0.2-0.5l0-1.9l0.1-0.6l1.8-2.6l0.1-0.1l0.8-0.6l0.2-0.1l-0.3-1.3l0.1-0.8
		l0.3-0.5l0.3-0.4l0.6-1.3l0-1.2l0-0.4l0.1-0.2l0.3-0.4l0.1-0.3l0-0.4l-0.4-1.8l0-0.3l0.5-0.7l0.4-0.8l0.1-0.4l0-0.4l-0.1-0.7l0-0.3
		l0.2-0.3l0.6-0.6l0.1-0.4l0.1-0.4l0.3-0.7l0.1-0.4v-1.5l0.2-0.8l0.3-0.8l0.4-0.7l0.6-0.6l0.3-0.3l0.2-0.8l0.5-0.8l0.1-0.2l0.2-0.1
		l0.4,0l0.2-0.1l0.5-0.4l0.5-0.5l0.4-0.6l0.2-0.7l-0.2-0.2l-0.8-0.6l-0.2-0.3l0.1-0.4l0.2-0.7l0-0.4l-0.8-0.9l-0.4-0.6l0-0.5
		l0.1-0.3l-0.3-0.5l0.1-0.3l0.2-0.3l0.1-0.4l0-0.4l0-0.4l-0.2-0.7l-0.3-0.5l-0.3-0.6l-0.1-0.9l0.1-0.7l0.2-0.6l0.1-0.5l-0.2-0.7
		l-0.1,0l-0.3-0.2l-0.1-0.1l-0.1-0.2l-0.1-0.4l-0.1-0.2l-1.2-1l0.3-0.6l0.8-1l0.5-1.1l0.3-1.3l0.1-2.8l-0.2-2.5l0.1-0.7l1.1-2.2
		l0.3-1.5l0.3-0.6l0.6-0.3l0.1-0.2l-0.9-0.9l-0.1-0.5l-0.2-0.2l-0.3-0.1l-0.3-0.2l-0.5-0.7l-0.2-0.7l0-1.6l-0.1-0.4l-0.3-0.7
		l-0.1-0.3l-0.2-0.5l-0.6-0.7l-0.1-0.3l0.2-0.2l0.8-0.3l0.2-0.3l-1.1,0l-0.4-0.2l-0.2-0.5l0-0.6l-0.1-0.4l-0.1-0.4l-0.2-0.4
		l-0.8-0.6l-0.4-0.4l-0.2-0.5l0.1-0.5l0.1-0.6l-0.1-0.7l-0.7-0.9l-1.2-0.6l-1.7-0.3l-1.5-0.6l-0.5-1.3l0.7-1.3l1.5-1l3.1-1.5
		l3.2-2.3l5.7-5.6l4.4-5.8l1.3-3l0.2-3.1l-1.5-3.1l-0.1-0.6l0.9-0.3l4.1-0.6l5.9-0.9l5.4-0.8l7.8-1.2l9.1-1.4l9.1-1.4l6.9-1.1
		l8.8-1.3l5.8-0.9l0.9,3.3l1.7,3.4l2.2,3.1l2.3,2.5l1.1,0.9l1.4,0.8l1.5,0.6l1.4,0l0.7-0.4l0.7-0.5l0.7-0.4h0.8l0.4,0.3l0.6,0.9
		l0.4,0.3l0.4,0.1l0.3-0.1l0.3-0.2l1.8-0.6l0.4-0.1l0.2-0.1l0.1-0.1l0.1,0l0.3,0.2l0.1,0.2l0.1,0.6l0.1,0.2l0.5,0.3l0.4,0l0.5,0
		l0.5,0l0.5,0.3l0.7,0.8l0.5,0.3l1.3,0.4l0.7,0.6l0.2,0.9v1.3l0.3,1.5l0.8,1.1l3.3,2.5l0.6,0.2l0.7,0l0.7-0.2l1.2-0.6l0.8-0.1
		l5.1,1.4l-0.6,1.4l0,1.7l0.7,1.4l1.4,0.3l0.7-0.3l0.5-0.4l0.5-0.2l0.9,0.1l1,0.6l0.4,0.1l0.3,0l0.7-0.2l0.3,0l0.7,0.4l1.3,1.3
		l0.7,0.5l0.7,0.2l0.7,0.1l4.5-0.1l1.4,0.3l1.2,0.8l0.4,0.5l0.7,1.6l0.5,0.7l0.5,0.3l1.3,0.1l2.9,0.6l2.5,0.2l0.4,0.2l0.5,0.5
		l0.1,0.3l0.1,0.5l0.2,0.3l0.3,0.1l0.6-0.1l0.3,0.1l1.6,1.1l2.6,1L594,166.2"/>
</g>

</svg>
