<?xml version="1.0" encoding="utf-8"?>

<svg version="1.2" baseProfile="tiny" id="Layer_1" xmlns="http://www.w3.org/2000/svg" xmlns:xlink="http://www.w3.org/1999/xlink"
	 x="0px" y="0px" viewBox="0 0 328.9 300" xml:space="preserve">
<g id="Zimbabwe">
	<g>
		<polygon fill="#319208" points="297.2,36.4 293.9,35.9 285.6,36.1 281.2,35.4 280.6,35.1 280.2,34.4 280,32.7 279.6,32
			279.1,31.6 277.4,30.6 276.5,29.9 274,27.2 272.8,26.2 271.8,25.7 264.8,25.3 263.2,24.5 262.5,24 261.7,23.9 260.8,23.9
			260,23.8 259.9,23.7 259.9,23.4 260,23.2 259.8,23.1 259.6,23.2 259.3,23.2 259.1,23.2 258.9,22.9 258.7,22.5 258.5,22.1
			258.1,21.8 257.3,21.4 256.8,20.8 256,19.3 255.4,18.5 254.7,18 253.9,17.8 249.6,16.7 247.8,16.6 246.7,17.2 246.4,17.9
			246.1,17.8 245.7,17.6 245.4,17.5 244.8,17.8 244,18.7 243.5,19.1 242.5,19.5 241.8,19.4 241.2,19 240.5,18.2 238.8,17 237,16.7
			232.4,16.7 225.6,16.7 222.6,16.7 217.9,16.8 217.8,13.8 217.7,8.6 217.7,4.4 217.6,0.9 215.9,1.6 214.7,1.6 212.7,0.8 211.6,0.6
			211.3,0.8 210.6,1.3 210.3,1.5 209.6,1.7 209.1,1.5 208.1,0.8 206.4,0.4 204.7,0.6 203,1.1 201.4,1.4 199.6,1.2 196,0.2 194.1,0
			193.1,0.2 191.4,1 189.6,1.3 187.2,2.1 186.2,2.3 185.3,2.1 184.5,1.9 183.6,1.8 182.6,2.1 181,3.4 180.3,3.9 176.6,4.2 176,4.3
			166.7,8.6 165.2,10.2 164.9,10.4 164,10.6 163.2,11.1 162.5,11.7 162.1,12.2 161.2,13.9 160.7,14.4 159.7,14.6 157.8,14.6
			156.8,14.8 156,15.2 154.6,16.5 153.7,17.7 153.6,18 153,18.9 152.9,19.4 153,19.8 153.2,20.1 153.4,20.3 153.5,20.5 153.2,22
			152.7,23.8 152.5,25.5 153.2,26.8 152.2,29.1 152,30.1 152.2,30.8 152.9,32.6 152.9,33.6 151.9,35.3 151.7,35.6 151.4,37.2
			150.9,37.9 149.2,39.2 148.8,39.9 148,40.7 307.9,40.7 301.6,38.1 		"/>
		<polygon fill="#319208" points="114.7,259.6 114.9,260 115.1,260.1 115.3,260 115.6,260.2 115.8,260.6 116.2,261.5 116.5,261.9
			117,262.4 117.5,262.8 118.2,263.1 120.7,263.2 123.8,263.8 128.8,263.9 130.4,264.2 132.1,264.8 135.5,266.6 136.4,266.8
			137.1,266.6 137.8,266.4 139.2,266 139.7,265.8 140.1,265.7 141.5,266 142.7,266.2 143.3,266.3 145,267.6 146.9,268.2 153,271.1
			154.3,271.5 156.9,271.6 158.1,271.9 158.8,272.4 160.5,273 161.2,273.5 161.3,274.4 160.8,275.4 160.1,276.5 159.7,277.5
			159.5,279.4 159.8,281.3 160.6,283 161.9,284.3 163.4,285.2 165,285.5 169,285.3 169.2,285.5 169.6,286 169.8,286.4 170.1,287.3
			170.4,287.7 173.6,290.5 173.9,290.7 174.2,290.7 174.8,290.8 175.7,290.3 177.2,289.4 178.1,289.2 180.2,289.7 181.2,289.8
			181.7,289.4 182.1,288.6 182.9,288.4 184.3,288.6 185.8,287.9 186.7,287.7 187.5,288.3 188,288.1 190.8,288 191.7,288.2
			194.1,289.8 195.5,290.1 196.6,290.7 198.1,290.8 198.7,291 199.8,291.7 200.3,291.9 201.1,292.1 201.6,292.3 202.4,293.2
			202.4,293.4 202.5,293.5 203.8,293.7 204.4,293.9 205.6,294.8 206.6,295.3 207.4,295.4 209.2,295.1 210.2,295.2 211,295.4
			211.7,295.8 212.3,296.3 213.6,297.3 215,297.6 216.6,297.6 218.3,297.3 219.1,297 220.7,296.3 221.5,296.1 222.3,296 225,296.3
			226.2,296.3 226.6,296.4 227.2,296.9 227.5,297 228.1,296.8 229.3,296 230.1,295.7 234.8,295.4 236.2,294.8 237.4,295.1
			239.9,295.4 244.5,296.5 245.9,297.1 246.7,297.3 247.4,297.1 248.8,296.4 249.4,296.3 249.8,296.6 250.7,297.7 251,297.9
			251.3,298 252,298.4 252.3,298.5 252.6,298.5 253.3,298.2 253.7,298.2 254.1,298.6 255.1,300 258.5,297.6 261.2,295.7
			263.4,293.3 265.6,290.8 267.8,288.3 270,285.9 272.2,283.4 274.4,281 276.6,278.5 278.8,276.1 281,273.6 283.2,271.2
			285.4,268.7 287.6,266.3 289.8,263.9 292,261.4 293.9,259.3 114.8,259.3 		"/>
		<polygon fill="#FFD200" points="148,40.7 147.7,41 147.1,41.1 145.9,41.1 143.9,41.5 128.6,47.5 125.8,49.3 121.6,52.8
			111.3,57.2 109.2,58.5 107.5,60.4 102.3,68.1 124,84.4 325,84.4 324.8,84.1 324.4,82.6 324.4,82.1 324.6,81.8 325,81.6
			325.3,81.2 326.9,78 327.7,76.8 328,76.1 328,75.4 327.7,75 326.7,74.5 326.4,74.2 325.9,73.3 325.8,72.4 325.7,70.3 325.1,67.6
			324,65.1 322.3,62 319.9,57.8 319.9,57.5 322.9,54.5 323.5,53.7 324.2,52.3 325.4,47.7 325.7,46.4 325.2,46.5 324.5,46.8
			323.2,47.6 322.6,47.7 321.2,47.7 318.7,47.1 317.4,47 316.7,47.1 316.1,47.4 315.8,47.6 315.5,47.5 314.4,46.6 314,44.9
			313.9,43.9 313.7,43.3 313.2,42.8 308.2,40.8 307.9,40.7 		"/>
		<polygon fill="#FFD200" points="103.2,231.2 103.2,231.8 103.2,232.3 103.1,233.3 103.1,233.7 103.4,236.2 103.4,237.2
			102.9,239.5 102.8,240.3 103.2,241.2 104.6,243.2 105.3,243.8 108.2,246 109.4,247.5 110.5,249.2 112,251 112.4,251.7 112.5,252
			112.5,252.7 112.6,253.1 112.8,253.5 113.5,254.2 114.8,256.8 114.9,257.3 114.7,257.6 114.4,258.1 114.3,258.6 114.5,258.6
			114.8,258.8 114.9,259 114.8,259.3 293.9,259.3 294.3,259 296.5,256.5 298.7,254.1 300.7,251.8 302.2,250.1 303.8,251.2
			303.7,250.8 300.6,245.6 300.7,245.4 300.9,245.1 301,244.8 301,244.5 300.9,244.5 300.7,244.5 300.5,244.4 300.1,243.9
			299.5,243.5 299.3,243.1 302.5,239 304.7,236.3 305.7,234.3 305.9,232.6 305.3,227.9 304.7,223.1 304.8,221.3 305.3,219.4
			306.6,217.7 308.4,217.4 310.4,217.7 312.2,217.4 313.2,216.2 313.6,215.6 124,215.6 		"/>
		<polygon fill="#DE2010" points="124,215.6 313.6,215.6 314.6,213.5 316,211 318.7,207.6 320.5,205.3 320.9,204.7 321.1,204.1
			321.4,202.7 321.4,202.4 321.1,201.7 321,201.4 321.1,201 321.7,199.9 321.9,199.3 322.2,197.1 322.6,196.7 323.3,196.6
			324,196.4 324.3,195.7 324.5,194.4 325.1,193.9 327.4,193.9 327.2,193.6 327,192.6 327.1,189.3 327.9,186.6 328,184.8
			328.3,183.8 328.4,182.9 328,182.4 327.1,182 326.2,181.5 325.5,180.8 325.1,180 325.5,178.2 325.4,177.4 324.7,176.9
			323.9,177.2 322.6,178.5 321.7,178.8 320.7,178.7 319.9,178.5 319.5,178 319.3,177.1 319.5,176.6 319.7,176.2 319.9,175.8
			319.8,175.2 319.7,174.8 319.7,174.4 319.9,171.9 182.3,171.9 		"/>
		<polygon fill="#DE2010" points="182.3,128.1 321.6,128.1 321.6,127.7 322.1,127.1 322.9,126.8 323.7,126.6 324.4,126.2
			325.2,125.7 326.1,125.2 326.9,124.7 327.2,123.8 327,123.3 326.5,122.7 326.4,122.3 326.6,122.3 327.4,121 328.7,120.1
			328.8,119.6 328.5,118.8 327.8,117.9 325.8,116.3 325.2,115.4 325,114.7 325,114.4 325.3,114 325.6,113.4 326,112.5 326,112.2
			325.9,110.7 324.4,106.2 324.3,105.2 324.5,104.3 324.6,104 324.1,103.3 324,102.9 324.2,102.6 324.5,102.4 324.9,102.1
			325,101.5 325,100.7 324.5,99.5 324.4,98.6 324.5,97.8 324.8,96.9 325.2,96.1 325.9,95.8 327,95.1 327.2,93.5 327.1,91.6
			327.2,89.9 327.9,88.2 328.1,87.4 327.9,86.5 327.3,85.7 325.8,85 325,84.4 325,84.4 124,84.4 		"/>
		<polygon points="211.5,150 182.3,171.9 319.9,171.9 320,171.2 320,170.4 319.7,169.4 319.1,169.2 318.4,169.3 317.6,169.2
			317.1,168.7 317,167.8 317.3,166 317.2,164.7 317.3,164.3 318.9,162.5 319.5,161.5 319.9,160.8 320,160 320,158.9 321.3,153.4
			321,151.9 320.6,151.4 320.2,151.1 319.9,150.8 319.7,150.3 319.6,149.7 319.5,149.4 319.2,149.2 318.8,149 318.1,149
			315.4,149.4 314.9,149.3 314.4,149.2 314.1,148.8 314,148.2 314,147.7 314,147.2 313.7,146.2 313.7,145.6 314.1,145.3 314.7,145
			315.1,144.6 314.6,144.3 314.3,143.6 314,141.2 314.1,140.9 318.1,139 319.4,138.8 321.1,138.9 322.2,138.8 323,138.2
			323.4,137.3 323.7,136.1 323.8,134.6 323.5,133.4 322.2,130.9 321.6,129.3 321.5,128.4 321.6,128.1 182.3,128.1 		"/>
		<polygon points="182.3,171.9 211.5,150 182.3,128.1 124,84.4 102.3,68.1 101.8,69 101.1,70.5 100.2,74 99.9,74.7 200.3,150
			103.9,222.3 104.5,224.5 104.6,226.3 104,229.9 103.8,230.4 103.5,230.8 103.2,231.2 103.2,231.2 124,215.6 		"/>
		<path fill="#FFFFFF" d="M49.2,108.5c-1.6-5.1-4.8-7.8-9.7-8l0,0l-1,0.2l-0.7,0.4l-0.7,0.2l-0.2,0.1v0.2l0.1,0.6v0.2l-0.6,0.2h-0.8
			l-0.7,0.1l-0.3,0.5l-0.3-0.3l-2.3,1.2l-0.5,0.1l-1.8-0.1l-2.6-1.2l-0.4-0.5l-0.3-0.7v-0.6l0.7-0.2l-0.6-0.8l-1.9-0.8l-0.4-0.7
			l-0.4-0.5L23,97.6l-0.9-0.5l-1.6-0.4L20,96.2l-0.5-0.4l-1,0.1l-2.2,1l-2.8,0.5l-0.2,0.1l-0.4,0.4L12.7,98l-0.3-0.1L12,97.7h-0.2
			H8.4L8,97.6l-1.4-0.5l-1.3,0.1l-0.4-0.1l-0.8-0.4l-1.3-1L2,95.3L1.7,95L0,98.8v1.2l0.3,1.1l1.2,3l1.7,3l1.1,1.2l1.4,0.8l1.3,1
			l0.9,1.6l1.4,3.4l1.4,2.2l0.3,0.9l0.4,1.9l0.2,0.6l0.5,0.9l2.7,2.9l36.4-5.3C50.8,115.4,50.2,111.6,49.2,108.5z"/>
		<path fill="#FFFFFF" d="M200.3,150L99.8,74.7L99,76.2l-2.2,2.3l-4.3,3.9l-5.7,6l14.9,30.2l51.1,7.4l-29.5,20.9
			c5.3,4,9.1,7,9.8,7.6l0.1,0.1h-0.1c-1.3-0.1-3-0.3-5-0.6l-7.8,30.3l0,0l-0.1,0.1l-3,11.6h-0.8l1.7,8.1l-14.2-8.1H81.6l0.9,0.2
			l0.8,0.5l0.6,0.8L86,203l0.8,5.2l-0.7,6.4l1.6-0.8l1.5-0.2H94l3.4,0.4l2.4-0.4l1.5,0.7h1.7l0.8,0.3l0.6,0.6l0.3,0.8l-0.1,1.8
			l-0.5,1.6l-0.3,1.6l0.4,1.4L200.3,150z"/>
		<path fill="#FFFFFF" d="M43.4,169.4c-1.7,0-2.4-2-2.4-3.1c0-4.2,1.7-8.2,3.7-12.2L26.1,141l4.1,3.7l1.1,3.5l-0.1,0.9l-0.7,1.6
			l-0.1,0.9l0.2,1.1l0.3,0.8l1,1.7l1.3,1.7l1,1.9l4,11.4l1.1,1.6l1.6,1l1.9,0.5h1.3C43.8,171.6,43.5,170.1,43.4,169.4z"/>
		<path fill="#DE2010" d="M84.9,118.3c5.4,3.9,25.9,19.1,38.4,28.5l29.5-20.9l-51.1-7.4L86.8,88.3L81.4,94L81,94.6L80.9,95l0.1,1.1
			l0.1,1l-1.4,1.7l-1.6,1.5l-1.2,1.2l-1.1,0.6l-0.6,0.2l-2,0.1l-0.4,0.2l-1.4,0.9c2,3.4,3.6,6.4,3.6,6.4
			C74.9,110.1,77.1,112.7,84.9,118.3z"/>
		<polygon fill="#DE2010" points="118.1,204 116.5,195.9 104,195.9 		"/>
		<path fill="#DE2010" d="M45.6,152.1c1.3-2.5,2.5-5.1,3.6-7.9c2.2-5.7,2.9-15.8,1.9-24.9l-36.4,5.3l0.1,0.1l1.4,1l0.6,0.6l2,2.9
			l1.2,1.1l1.6,0.8l1.1,1l0.5,1.5l0.3,3.2l1.5,3.3l1.1,1l18.5,13.1C45,153.4,45.3,152.8,45.6,152.1z"/>
		<path fill="#FFC618" d="M49.2,108.4c1.1,3.5,1.8,7.8,2.2,12.5c0.7-0.3,19.9-9.5,23.4-10.8c-0.2-0.3-1.7-3.1-3.6-6.4l-0.1,0.1
			l-1-0.3l-4,1.8l-1,0.1l-0.7,0.2l-0.5,0.3l-1.2,1.1l-0.5,0.1l-0.6-0.1l-2.4-0.8l-0.7-0.4l-0.6-0.5l-0.7-0.7l-0.5-0.4l-0.7-0.3
			l-1.1-0.2l-1.8-0.6l-3.2-1.8l-1.9-0.4l-1.6,0.2l-0.3-0.1l-0.3-0.3l-0.3-0.2l-0.4-0.2l-1.9-0.2l-0.4-0.1l-0.2-0.3l-0.2-0.4
			l-0.3-0.4l-0.4-0.2l-0.4,0.2l-1.5,1.2l-0.2,0.1c0.9,0,1.8,0.2,2.7,0.4C45.7,101.8,48,104.4,49.2,108.4z"/>
		<path fill="#FFC618" d="M80.8,181.8l-5.9-6.1l-5.8,5.8C72.2,181.6,76.2,181.7,80.8,181.8z"/>
		<path fill="#FFC618" d="M113,178.3l-6.6,5c4.7,0.4,9.3,0.9,13.6,1.5l0.1-0.4l-0.1,0.1L113,178.3z"/>
		<path fill="#FFC618" d="M113.4,171.6l8,7.6l1.5-5.9C120.1,172.7,116.9,172.1,113.4,171.6z"/>
		<path fill="#FFC618" d="M113.3,171.6l-6.9,5l0,0l-5.4-6.3l-6.9,5.8l0,0l-6-6.7l-6.9,5.9l0,0l-6-6.4l-7,6.1l0,0l-6.5-6.2
			c0.1,2,0.3,4.4,0.5,6.8l0.1-0.1l6.6,6l6.1-6.1l6.1,6.3l6.6-5.8l0.1,0.1l6,6.3l6.9-5.7l5.6,6.6l6.8-5.2l7.2,6.3l1.3-4.9
			L113.3,171.6z"/>
		<path fill="#FFC618" d="M68.6,181.6l-6.4-5.8c0.2,1.9,0.4,3.9,0.6,5.8c0.1,0,0.4,0,1,0C64.8,181.5,66.5,181.5,68.6,181.6z"/>
		<path fill="#FFC618" d="M117.2,195.9l2.8-11c-4.4-0.6-9-1.1-13.7-1.5l-0.2,0.2l-0.2-0.2c-4.1-0.4-8.2-0.6-12.1-0.9l-0.2,0.2
			l-0.2-0.2c-4.4-0.2-8.5-0.4-12.3-0.5l-0.2,0.2l-0.2-0.2c-4.7-0.1-8.7-0.2-11.8-0.3l-0.2,0.2l-0.2-0.2c-3.5,0-5.6,0-5.8,0
			c0.3,2.9,0.7,5.8,1,8.1l0.5,0.1h1l1.6,0.3l4.8,2.4l1.5,0.3h1.4l1.4,0.1l1.4,0.8l0.4,0.4l0.7,1l0.5,0.4l0.5,0.2h0.4h0.4h0.5
			l0.5,0.1H117.2z"/>
		<path fill="#FFC618" d="M100.5,176.9l-6.6,5.4c3.9,0.2,8,0.5,12,0.8L100.5,176.9z"/>
		<path fill="#FFC618" d="M87.6,176.2l-6.4,5.6c3.8,0.1,7.9,0.3,12.2,0.5L87.6,176.2z"/>
		<path fill="#FFC618" d="M62.1,175.6L62.1,175.6c-0.2-2.6-0.4-5-0.5-7c-4.2,0-17.5,0.8-18.1,0.9c0.1,0.7,0.4,2.2,0.8,4.1h0.8
			l0.5,0.2l0.4,0.3l0.3,0.3l0.4,0.6l0.1,0.4l-0.3,0.9l-0.3,0.5l-0.3,0.1v0.1l0.5,0.3l0.3,0.1l1.3,0.2l0.9,0.5l1.2,1.8l0.8,0.7
			l0.8,0.3l1.7,0.4l0.8,0.3l1.7,1.1l0.7,0.8l0.4,0.8l0.3,1l0.6,0.6l0.8,0.3l1.9,0.6l0.6,0.3l0.5,0.5l0.6,0.8l0.7,0.7l0.7,0.4
			l0.3,0.1C63.3,185.8,62.6,180.5,62.1,175.6L62.1,175.6z"/>
		<path fill="#FFC618" d="M61.7,168.6l6.5,6.2l6.9-6c-6.3-0.2-11.1-0.2-13.2-0.2C61.8,168.6,61.8,168.6,61.7,168.6z"/>
		<path fill="#FFC618" d="M81.2,175.1l6.9-5.8c-4.6-0.2-9-0.4-12.8-0.5L81.2,175.1z"/>
		<path fill="#FFC618" d="M101.1,170.2l5.4,6.3l6.8-4.9C109.4,171,105.2,170.6,101.1,170.2z"/>
		<path fill="#FFC618" d="M88.8,154.5c-0.7,0.2-3,0.3-5.4,0.3c-3.5,0-7.3-0.1-7.5-0.1c-2.6,1.6-5.2,2.9-6.7,3.3
			c-0.4,0.2-0.8,0.3-1.2,0.5c1.1,0,8.8,0.1,19.1,0.7c10.2,0.6,25.2,1.9,38.3,4.6l2.5-9.8c-8.4-1-22.2-2.9-33-5
			C93.9,152.4,91,153.9,88.8,154.5z"/>
		<path fill="#FFC618" d="M94.1,176l6.8-5.8c-4.3-0.4-8.6-0.7-12.7-0.9L94.1,176z"/>
		<path fill="#FFC618" d="M48.5,169.1c-0.2-0.2-1.4-2-0.5-5.3c0.3-1,1.4-2.6,2.7-4.5c3.4-4.7,8.5-11.9,8.5-21h0.1
			c0,9.1-5.1,16.3-8.5,21c-1.4,1.9-2.5,3.4-2.7,4.5C47.1,167.2,48.5,169,48.5,169.1c4.5-0.2,10.5-0.5,13.1-0.6l0,0h0.1
			c0.1,0,0.2,0,0.3,0c2.1,0,7,0,13.3,0.2l0,0l0,0c3.9,0.1,8.3,0.3,12.9,0.5l0,0l0,0c4.2,0.2,8.5,0.5,12.8,0.9l0,0l0,0
			c4.2,0.4,8.4,0.8,12.3,1.4l0,0l0,0c3.5,0.5,6.7,1.1,9.7,1.8l2.5-9.5c-13.1-2.7-28.1-3.9-38.3-4.6c-11-0.7-19.1-0.7-19.3-0.7
			c-5.8,2.4-8.3,4.9-9.5,6.6c-1.3,2-1,3.5-1,3.5h-0.1c0,0-0.3-1.5,1-3.5c1.2-1.9,4.1-4.6,10.9-7.2c1.8-0.6,5.4-2.3,8.5-4.5
			c2.6-1.9,5.8-4.6,6-7.3c-11.9-4.1-13.2-4.8-18-15.3h0.1c4.8,10.5,6,11.2,18,15.2c11.1,3.8,40.3,7.4,49.1,8.4
			c-2.8-2.6-40.6-30.6-48.1-36.1c-7.5-5.4-9.9-8-10-8.2c-3.5,1.3-23,10.7-23.4,10.8c0.2,2,0.3,4,0.3,6.1c0,6.9-0.8,13.2-2.4,17.1
			c-1.1,2.8-2.4,5.4-3.6,7.9c-2.4,4.8-4.7,9.3-4.7,14.2c0,1.1,0.7,3.1,2.4,3.1C43.5,169.4,45.6,169.2,48.5,169.1z M92.4,161.9
			c1.5,0,2.8,1.3,2.8,2.8s-1.3,2.8-2.8,2.8s-2.8-1.3-2.8-2.8S90.8,161.9,92.4,161.9z M81.2,161.1c1.5,0,2.8,1.3,2.8,2.8
			s-1.3,2.8-2.8,2.8s-2.8-1.3-2.8-2.8S79.6,161.1,81.2,161.1z"/>
		<path fill="#FFC618" d="M82.6,154.7c2.7,0,5.4,0,6.2-0.3c2.2-0.6,5-2.1,6.2-5.6c-1.9-0.4-3.7-0.8-5.4-1.2
			C88.5,151.4,83.4,154.3,82.6,154.7z"/>
		<circle fill="#FFC618" cx="81.2" cy="163.9" r="2.5"/>
		<path fill="#FFC618" d="M76,154.6c0.6,0,3.5,0.1,6.4,0.1c0.1-0.1,5.9-3.1,7-7c-2.2-0.5-4.1-1-5.7-1.6
			C83.6,149,79.8,152.2,76,154.6z"/>
		<circle fill="#FFC618" cx="92.4" cy="164.7" r="2.5"/>
		<path d="M116.5,195.9h0.8l3-11.6l-0.1,0.1l-0.1,0.4l0,0v0.1l0,0l-2.8,11H81.4l0.4,0.1l0,0h22.3h12.4V195.9z"/>
		<path d="M43.4,169.4L43.4,169.4L43.4,169.4L43.4,169.4c-1.7-0.1-2.4-2-2.4-3.1c0-4.9,2.3-9.4,4.7-14.2c1.3-2.5,2.5-5.1,3.6-7.9
			c1.5-4,2.4-10.2,2.4-17.1c0-2-0.1-4.1-0.3-6.1l0,0v-0.1l0,0c-0.4-4.6-1.1-9-2.2-12.5c-1.2-4.1-3.6-6.6-6.9-7.6
			c-0.9-0.3-1.9-0.4-2.7-0.4l-0.2,0.1c4.9,0.2,8.1,2.8,9.7,8c1,3.1,1.6,6.9,2,10.8c0.9,9.1,0.3,19.2-1.9,24.9
			c-1.1,2.8-2.4,5.4-3.6,7.9c-0.3,0.7-0.7,1.3-1,2c-2,4.1-3.7,8-3.7,12.2C41,167.4,41.7,169.4,43.4,169.4c0.1,0.7,0.4,2.2,0.7,4.1
			h0.1C43.8,171.6,43.5,170.1,43.4,169.4z"/>
		<path d="M74.8,110.1L74.8,110.1C74.9,110.2,74.8,110.2,74.8,110.1c0.2,0.2,2.5,2.9,10,8.3c7.6,5.5,45.4,33.4,48.1,36.1
			c-8.8-1-38.1-4.6-49.1-8.4c-11.9-4.1-13.2-4.8-18-15.2h-0.1c4.8,10.5,6.1,11.2,18,15.3l0,0h0.1l0,0c1.6,0.5,3.5,1.1,5.7,1.6l0,0
			h0.1l0,0c1.7,0.4,3.5,0.8,5.4,1.2l0,0h0.1l0,0c10.7,2.1,24.6,4,33,5l-2.5,9.8l0,0v0.1l0,0l-2.5,9.5l0,0v0.1l0,0l-1.5,5.9l0,0l0,0
			l0,0l-1.3,4.9h0.1l7.8-30.3c2,0.2,3.7,0.4,5,0.6h0.1l-0.1-0.1c-0.6-0.6-4.5-3.6-9.8-7.6c-12.5-9.4-33.1-24.6-38.4-28.5
			C77.1,112.7,74.9,110.1,74.8,110.1c0,0-1.6-3-3.6-6.4h-0.1C73.1,107,74.6,109.8,74.8,110.1L74.8,110.1z"/>
		<path d="M113.4,171.5L113.4,171.5L113.4,171.5c3.5,0.6,6.7,1.1,9.6,1.8l0,0v-0.1l0,0C120.1,172.6,116.8,172,113.4,171.5z"/>
		<path d="M75.2,168.7L75.2,168.7c3.9,0.2,8.3,0.3,12.8,0.6l0.1-0.1C83.5,169,79.1,168.8,75.2,168.7L75.2,168.7z"/>
		<path d="M61.6,168.5L61.6,168.5L61.6,168.5c0.1,0.1,0.2,0.1,0.3,0.1c2.1,0,6.9,0,13.2,0.2l0.1-0.1c-6.3-0.2-11.2-0.2-13.3-0.2
			C61.8,168.5,61.7,168.5,61.6,168.5z"/>
		<path d="M61.6,168.5c-2.6,0-8.6,0.3-13,0.6l0,0l0,0l0,0c-2.9,0.2-5,0.3-5.1,0.3l0,0v0.1l0,0C44.1,169.4,57.3,168.6,61.6,168.5
			C61.6,168.6,61.6,168.6,61.6,168.5L61.6,168.5z"/>
		<path d="M88.2,169.2L88.2,169.2c4.2,0.3,8.5,0.6,12.8,0.9l0.1-0.1C96.7,169.7,92.3,169.5,88.2,169.2L88.2,169.2z"/>
		<path d="M101,170.1L101,170.1L101,170.1c4.2,0.4,8.3,0.9,12.2,1.5l0.1-0.1C109.4,171,105.2,170.5,101,170.1z"/>
		<path d="M48,163.8c0.3-1,1.4-2.5,2.7-4.5c3.4-4.7,8.5-11.9,8.5-21h-0.1c0,9.1-5.1,16.2-8.5,21C49.3,161.3,48.3,162.8,48,163.8
			c-0.9,3.2,0.3,5,0.4,5.2l0,0l0,0l0,0C48.5,169,47.1,167.2,48,163.8z"/>
		<path d="M77.8,153.4c-3.2,2.2-6.7,4-8.5,4.5c-6.8,2.5-9.7,5.3-10.9,7.2c-1.3,2-1,3.5-1,3.5h0.1c0,0-0.3-1.5,1-3.5
			c1.1-1.7,3.7-4.2,9.5-6.6l0,0v-0.1c0,0,0.1,0,0.2,0c0.4-0.2,0.8-0.3,1.2-0.5c1.4-0.4,4-1.7,6.7-3.3l0,0v-0.1c0,0,0,0,0.1,0
			c3.8-2.4,7.6-5.6,7.8-8.5l0,0h-0.1l0,0C83.6,148.7,80.4,151.5,77.8,153.4z"/>
		<path d="M87.2,159.1c-10.3-0.6-18-0.7-19.1-0.7c-0.1,0-0.2,0-0.2,0v0.1l0,0C68.1,158.5,76.1,158.5,87.2,159.1
			c10.2,0.7,25.2,2,38.3,4.6l0,0v-0.1l0,0C112.3,161.1,97.4,159.8,87.2,159.1z"/>
		<path d="M88.8,154.5c-0.8,0.2-3.5,0.3-6.2,0.3c-0.1,0-0.1,0.1-0.1,0.1v-0.1l0,0c-2.9,0-5.9-0.1-6.4-0.1c-0.1,0-0.1,0-0.1,0v0.1
			l0,0c0.1,0,4,0.1,7.5,0.1C85.8,154.8,88.1,154.7,88.8,154.5c2.2-0.6,5.1-2.1,6.3-5.5l0,0H95l0,0C93.8,152.4,91,153.8,88.8,154.5z"
			/>
		<path d="M82.5,154.7L82.5,154.7L82.5,154.7c0,0.1,0.1,0,0.1,0c0.8-0.4,5.9-3.3,7-7l0,0h-0.1l0,0C88.4,151.6,82.6,154.7,82.5,154.7
			z"/>
		<path d="M61.6,168.6l6.5,6.2l0,0l7-6.1l6,6.4l0,0l6.9-5.9l6,6.7l0,0l6.9-5.8l5.4,6.3l0,0l6.9-5l8.1,7.7l0,0l0,0l0,0l-8-7.6
			l-0.1-0.1l0,0l0,0l0,0l-0.1,0.1l-6.8,4.9l-5.4-6.3l-0.1-0.1l0,0l0,0l0,0l-0.1,0.1l-6.8,5.8l-5.9-6.7l-0.1-0.1l0,0l0,0l0,0
			l-0.1,0.1l-6.9,5.8l-5.9-6.3l-0.1-0.1l0,0l0,0l0,0l-0.1,0.1l-6.9,6L61.6,168.6L61.6,168.6v-0.1h-0.1l0,0L61.6,168.6L61.6,168.6
			c0,2,0.2,4.4,0.5,6.9l0.1-0.1C61.9,173,61.7,170.7,61.6,168.6z"/>
		<path d="M62.8,181.6L62.8,181.6C62.8,181.5,62.8,181.5,62.8,181.6c-0.2-2-0.4-3.9-0.6-5.8l-0.1-0.1c0.5,4.9,1.1,10.1,1.6,14h0.1
			C63.5,187.4,63.2,184.5,62.8,181.6L62.8,181.6z"/>
		<path d="M94,182.4L94,182.4c3.9,0.3,8,0.6,12,0.9l-0.1-0.1C101.9,182.9,97.9,182.6,94,182.4z"/>
		<path d="M69.1,181.6L69.1,181.6c3,0.1,7.1,0.2,11.8,0.3l-0.1-0.1C76.2,181.7,72.2,181.6,69.1,181.6z"/>
		<path d="M63.9,181.5c-0.6,0-0.9,0-1,0l0,0v0.1l0,0c0.2,0,2.4,0,5.8,0l-0.1-0.1C66.5,181.5,64.8,181.5,63.9,181.5z"/>
		<path d="M106.4,183.3L106.4,183.3c4.6,0.5,9.2,1,13.6,1.6l0,0v-0.1l0,0C115.7,184.2,111.1,183.7,106.4,183.3z"/>
		<path d="M81.3,181.8L81.3,181.8c3.7,0.2,7.9,0.4,12.3,0.6l-0.1-0.1C89.2,182.1,85,182,81.3,181.8z"/>
		<path d="M74.9,110.2L74.9,110.2C74.8,110.1,74.8,110.1,74.9,110.2c-3.6,1.3-22.7,10.4-23.4,10.8l0,0v0.1l0,0
			C51.8,120.8,71.3,111.5,74.9,110.2C74.8,110.2,74.9,110.2,74.9,110.2z"/>
		<polygon points="120.2,184.2 113,177.9 106.2,183.1 100.6,176.5 93.7,182.2 87.7,175.9 87.6,175.8 81,181.6 74.9,175.3
			68.8,181.4 62.3,175.4 62.2,175.5 62.1,175.5 62.1,175.6 62.1,175.7 62.2,175.8 68.6,181.6 68.7,181.6 68.9,181.8 69,181.6
			69.1,181.6 74.9,175.8 80.8,181.8 80.8,181.9 81,182.1 81.2,181.9 81.3,181.8 87.6,176.2 93.5,182.4 93.5,182.4 93.7,182.6
			93.9,182.5 94,182.4 100.5,176.9 105.9,183.2 106,183.3 106.2,183.5 106.3,183.3 106.4,183.3 113,178.3 120.1,184.5 120.1,184.5
			120.2,184.4 120.3,184.3 120.2,184.3 		"/>
		<path d="M81.2,166.7c1.5,0,2.8-1.3,2.8-2.8s-1.3-2.8-2.8-2.8s-2.8,1.3-2.8,2.8S79.6,166.7,81.2,166.7z M81.2,161.4
			c1.4,0,2.5,1.1,2.5,2.5s-1.1,2.5-2.5,2.5s-2.5-1.1-2.5-2.5S79.8,161.4,81.2,161.4z"/>
		<path d="M92.4,167.5c1.5,0,2.8-1.3,2.8-2.8s-1.3-2.8-2.8-2.8s-2.8,1.3-2.8,2.8S90.8,167.5,92.4,167.5z M92.4,162.2
			c1.4,0,2.5,1.1,2.5,2.5s-1.1,2.5-2.5,2.5s-2.5-1.1-2.5-2.5S91,162.2,92.4,162.2z"/>
	</g>
	<path vector-effect="none" fill="none" stroke="#878787" stroke-width="0.25" stroke-linecap="round" stroke-linejoin="round" d="
		M217.6,0.9l0.1,3.5l0.1,4.1l0.1,5.2l0.1,3h4.7h3h6.9h4.5l1.9,0.4l1.7,1.2l0.7,0.7l0.6,0.5l0.7,0.1l0.9-0.4l0.5-0.4l0.8-0.9l0.6-0.3
		l0.4,0.1l0.3,0.2h0.3l0.3-0.6l1.1-0.7l1.9,0.2l4.3,1l0.8,0.3l0.7,0.5l0.6,0.8l0.8,1.5l0.5,0.6l0.8,0.4l0.4,0.3l0.2,0.4L259,23
		l0.3,0.3h0.1l0.3-0.1h0.2l0.2,0.1v0.2v0.2l0.1,0.1l0.8,0.1h0.9l0.8,0.1l0.6,0.4l1.6,0.8l7,0.5l1,0.5l1.2,0.9l2.5,2.8l0.8,0.7
		l1.8,0.9l0.5,0.4l0.4,0.8l0.2,1.7l0.4,0.7l0.7,0.3l4.4,0.7l8.3-0.2l3.3,0.5l4.4,1.7l6.6,2.7l5,2l0.5,0.4l0.2,0.6v1l0.4,1.7l1.1,0.9
		l0.3,0.1l0.4-0.2l0.6-0.2l0.6-0.1l1.3,0.1l2.6,0.6l1.3,0.1l0.7-0.2l1.3-0.8l0.7-0.3l0.5-0.1l-0.3,1.2l-1.2,4.6l-0.7,1.4l-0.7,0.9
		l-3,2.9l0.1,0.3l2.4,4.2l1.8,3.1l1.1,2.5l0.6,2.7l0.1,2.1l0.2,0.9l0.4,0.9l0.4,0.3l1,0.5l0.3,0.4V76l-0.3,0.7l-0.8,1.2l-1.6,3.2
		l-0.3,0.3l-0.4,0.2l-0.3,0.3v0.5l0.4,1.5l0.2,0.4l0.7,0.6l1.6,0.7l0.6,0.8l0.2,0.9l-0.2,0.8l-0.7,1.6l-0.1,1.7l0.1,1.9l-0.2,1.6
		l-1.1,0.7l-0.7,0.3l-0.5,0.7l-0.3,0.9l-0.1,0.8l0.1,0.9l0.5,1.2l0.1,0.8l-0.2,0.6l-0.3,0.3l-0.3,0.2l-0.2,0.4l0.1,0.4l0.5,0.6v0.4
		l-0.2,0.9l0.1,1l1.5,4.5l0.1,1.5v0.3l-0.4,0.9l-0.3,0.6l-0.3,0.3l-0.1,0.4l0.2,0.7l0.6,0.9l2,1.6l0.8,0.8l0.3,0.8l-0.2,0.5
		l-1.6,1.2l-0.9,1.3h-0.1l0.1,0.4l0.5,0.6l0.1,0.5l-0.3,0.9l-0.8,0.6l-0.9,0.4l-0.8,0.5l-0.8,0.4l-0.8,0.2l-0.7,0.3l-0.5,0.6
		l-0.1,0.7l0.1,0.9l0.5,1.6l1.3,2.5l0.3,1.2l-0.1,1.5l-0.3,1.2l-0.4,1l-0.7,0.6L321,139l-1.7-0.1l-1.3,0.2l-4,1.9l-0.1,0.4l0.3,2.4
		l0.3,0.7l0.5,0.3l-0.4,0.3l-0.5,0.3l-0.4,0.4l-0.1,0.5l0.3,1l0.1,0.5l-0.1,0.6l0.1,0.6l0.3,0.3l0.5,0.2h0.6l2.6-0.4l0.7,0.1
		l0.5,0.2l0.2,0.2l0.1,0.3l0.1,0.5l0.2,0.5l0.3,0.3l0.4,0.3l0.4,0.4l0.3,1.5l-1.2,5.5v1.1l-0.1,0.8l-0.3,0.7l-0.6,1l-1.6,1.8
		l-0.1,0.4l0.1,1.3l-0.3,1.8l0.1,0.9l0.4,0.5h0.8l0.8-0.1l0.6,0.2l0.3,1v0.8l-0.3,3.2v0.4l0.1,0.4l0.1,0.6l-0.2,0.4l-0.2,0.4
		l-0.1,0.5l0.1,1l0.5,0.5l0.8,0.2l1,0.1l1-0.3l1.2-1.3l0.8-0.3l0.7,0.4l0.1,0.9l-0.4,1.7l0.4,0.8l0.7,0.7l0.9,0.6l0.9,0.4l0.4,0.5
		l-0.1,0.8l-0.3,1.1l-0.1,1.8l-0.8,2.6l-0.2,3.3l0.3,1l0.1,0.3l-2.3-0.1l-0.6,0.5l-0.2,1.4l-0.3,0.6l-0.7,0.2l-0.7,0.1l-0.4,0.4
		l-0.3,2.2l-0.2,0.7l-0.6,1.1l-0.1,0.4l0.1,0.3l0.3,0.6v0.3l-0.3,1.4l-0.2,0.6l-0.3,0.6l-1.9,2.3l-2.7,3.4l-1.3,2.6l-1.4,2.7
		l-1.1,1.2l-1.8,0.3l-2-0.3l-1.8,0.2l-1.3,1.7l-0.4,1.9l-0.1,1.8l0.6,4.8l0.6,4.6l-0.3,1.7l-1,2l-2.1,2.7l-3.2,4.2l0.2,0.4l0.6,0.4
		l0.4,0.5h0.2h0.2l0.1,0.1v0.3l-0.1,0.3l-0.2,0.3l-0.1,0.2l3.1,5.2l0.1,0.4l-1.6-1.1l-1.5,1.7l-2,2.3l-2.2,2.4l-2.2,2.4l-2.2,2.4
		l-2.2,2.4l-2.2,2.4l-2.2,2.4l-2.2,2.4l-2.2,2.5l-2.2,2.4l-2.2,2.5l-2.5,2.9l-2.2,2.5l-2.2,2.4l-2.2,2.4l-2.2,2.5l-2.2,2.4l-2.2,2.4
		l-2.7,1.9l-3.4,2.4l-1-1.4l-0.4-0.3h-0.4l-0.7,0.3h-0.3l-0.3-0.1l-0.7-0.4l-0.3-0.1l-0.3-0.2l-0.8-1l-0.5-0.3l-0.6,0.1l-1.4,0.7
		l-0.7,0.2l-0.7-0.2l-1.4-0.6l-4.6-1.1l-2.5-0.3l-1.2-0.3l-1.4,0.6l-4.7,0.4l-0.8,0.3l-1.1,0.8l-0.6,0.2l-0.3-0.1l-0.6-0.4l-0.4-0.1
		h-1.2l-2.7-0.3h-0.8l-0.8,0.2l-1.6,0.7l-0.8,0.3l-1.7,0.3h-1.6l-1.4-0.3l-1.3-0.9l-0.6-0.5l-0.6-0.4l-0.8-0.2l-1-0.1l-1.9,0.3
		l-0.7-0.1l-1-0.5l-1.2-0.9l-0.6-0.3l-1.2-0.1l-0.1-0.1l-0.1-0.2l-0.8-0.9l-0.4-0.2l-0.9-0.2l-0.4-0.2l-1.2-0.7l-0.6-0.2l-1.5-0.1
		l-1-0.6l-1.4-0.3l-2.4-1.6l-0.8-0.3l-2.8,0.1l-0.5,0.2l-0.8-0.5l-0.8,0.1l-1.6,0.7l-1.4-0.1l-0.8,0.2l-0.4,0.7l-0.5,0.5l-1-0.1
		l-2.1-0.5l-0.9,0.2l-1.5,0.9l-0.9,0.5h-0.6l-0.3-0.1l-0.3-0.2l-3.2-2.8l-0.3-0.4l-0.3-0.9l-0.2-0.4l-0.4-0.5l-0.2-0.1l-4,0.1
		l-1.5-0.3l-1.6-0.8l-1.3-1.4l-0.8-1.7l-0.3-1.9l0.2-1.9l0.5-1l0.7-1.1l0.5-1.1l-0.1-0.9l-0.7-0.5l-1.7-0.5l-0.7-0.5l-1.2-0.3
		l-2.6-0.1l-1.3-0.3l-6.2-2.9l-1.9-0.6l-1.6-1.3l-0.6-0.2l-1.2-0.1l-1.3-0.3l-0.5,0.1l-0.4,0.2l-1.5,0.4l-0.7,0.3l-0.7,0.1l-0.9-0.2
		l-3.4-1.8l-1.7-0.6l-1.6-0.3l-5-0.1l-3.1-0.6l-2.4-0.2l-0.7-0.2l-0.6-0.4l-0.5-0.6l-0.2-0.4l-0.4-0.9l-0.2-0.4l-0.3-0.2h-0.2h-0.2
		l-0.2-0.4l0.2-0.6l-0.2-0.3l-0.3-0.1l-0.1-0.1l0.1-0.4l0.3-0.5l0.1-0.4l-0.1-0.5l-1.2-2.6l-0.7-0.7l-0.3-0.4l-0.1-0.3v-0.7
		l-0.1-0.4l-0.4-0.6l-1.5-1.8l-1.1-1.7l-1.3-1.5l-2.9-2.1l-0.6-0.7l-1.5-2l-0.3-0.8v-0.8l0.5-2.4l0.1-1l-0.3-2.5v-0.4l0.1-1v-0.5
		l0.1-0.6l0.2-0.4l0.3-0.4l0.2-0.5l0.6-3.6l-0.1-1.8l-1-3.5l0.3-1.6l0.5-1.6l0.1-1.8l-0.3-0.8l-0.6-0.6l-0.8-0.3h-1.7l-1.5-0.7
		l-2.4,0.4l-3.4-0.4h-4.8l-1.5,0.2l-1.6,0.8l0.7-6.4l-0.8-5.2l-2.1-5.5l-0.6-0.8l-0.8-0.5l-0.9-0.3l-0.9-0.1h-0.5h-0.4h-0.4
		l-0.5-0.2l-0.5-0.4l-0.7-1l-0.4-0.4l-1.4-0.8l-1.4-0.1h-1.4l-1.5-0.3l-4.8-2.4l-1.6-0.3h-1l-0.8-0.2l-0.7-0.4l-0.7-0.7l-0.6-0.8
		l-0.5-0.5l-0.6-0.3l-1.9-0.6l-0.8-0.3l-0.6-0.6l-0.3-1l-0.4-0.8l-0.7-0.8l-1.7-1.1l-0.8-0.3l-1.7-0.4l-0.8-0.3l-0.8-0.7l-1.2-1.8
		l-0.9-0.5l-1.3-0.2l-0.3-0.1l-0.5-0.3v-0.1l0.3-0.1l0.3-0.5l0.3-0.9l-0.1-0.4l-0.4-0.6l-0.3-0.3l-0.4-0.3l-0.5-0.2h-2.2l-1.9-0.5
		l-1.6-1l-1.1-1.6l-4-11.4l-1-1.9L32,156l-1-1.7l-0.3-0.8l-0.2-1.1l0.1-0.9l0.7-1.6l0.1-0.9l-1.1-3.5l-5.3-4.7l-1.5-3.3l-0.3-3.2
		l-0.5-1.5l-1.1-1L20,131l-1.2-1.1l-2-2.9l-0.6-0.6l-1.4-1l-2.8-2.9l-0.5-0.9l-0.2-0.6l-0.4-1.9l-0.3-0.9L9.2,116l-1.4-3.4L6.9,111
		l-1.3-1l-1.4-0.8L3.1,108l-1.7-3l-1.2-3l-0.3-1.1v-1.2l1.7-3.8l0.3,0.3l0.8,0.4l1.3,1L4.8,98l0.4,0.1L6.5,98l1.4,0.5l0.4,0.1h3.2
		h0.2l0.4,0.2l0.3,0.1l0.2-0.1l0.4-0.4l0.2-0.1l2.8-0.5l2.2-1l1-0.1l0.5,0.4l0.5,0.5l1.6,0.4l0.9,0.5l0.8,0.5l0.4,0.5l0.4,0.7
		l1.9,0.8l0.6,0.8l-0.4-0.8v0.6l0.3,0.7l0.4,0.5l2.6,1.2l1.8,0.1L32,104l2.3-1.2l0.3,0.3l0.3-0.5l0.7-0.1h0.8l0.6-0.2v-0.2l-0.1-0.6
		v-0.2l0.2-0.1l0.7-0.2l0.7-0.4l1-0.2l0.4-0.2l1.5-1.2l0.4-0.2l0.4,0.2l0.3,0.4l0.2,0.4l0.2,0.3l0.4,0.1l1.9,0.2l0.4,0.2l0.3,0.2
		l0.3,0.3l0.3,0.1l1.6-0.2l1.9,0.4l3.2,1.8l1.8,0.6l1.1,0.2l0.7,0.3l0.5,0.4l0.7,0.7l0.6,0.5l0.7,0.4l2.4,0.8l0.6,0.1l0.5-0.1
		L64,106l0.5-0.3l0.7-0.2l1-0.1l4-1.8l1,0.3l1.5-1l0.4-0.2l2-0.1l0.6-0.2l1.1-0.6l1.2-1.2l1.6-1.5l1.4-1.7l-0.1-1l-0.1-1.1l0.1-0.4
		l0.4-0.6l11.1-11.6l4.3-3.9l2.2-2.3l1.1-2.2l0.9-3.5l0.7-1.5l5.7-8.6l1.7-1.8l2.2-1.3l10.3-4.5l4.1-3.4l2.8-1.8l15.3-6l2-0.4h1.2
		l0.6-0.1l0.4-0.3l0.8-0.8l0.3-0.7l1.7-1.3l0.6-0.7l0.3-1.6l0.2-0.4l1-1.7v-1l-0.7-1.8l-0.1-0.8l0.1-0.9l1-2.3l-0.7-1.2l0.2-1.7
		l0.5-1.8l0.2-1.5l-0.1-0.2l-0.2-0.2l-0.2-0.3l-0.1-0.4l0.1-0.5l0.6-0.9l0.1-0.3l0.9-1.2l1.4-1.4l0.8-0.4l0.9-0.2h1.9l1-0.2l0.5-0.5
		l0.9-1.7l0.4-0.5l0.7-0.6l0.8-0.5l0.8-0.2l0.4-0.2l1.5-1.6l9.3-4.3l0.6-0.1l3.6-0.3l0.8-0.5l1.6-1.3l1-0.3l0.9,0.1l0.8,0.2l0.9,0.1
		l1-0.1l2.4-0.8l1.8-0.3l1.7-0.8l1-0.2l1.9,0.2l3.6,1l1.8,0.2l1.7-0.3l1.7-0.5l1.7-0.2l1.7,0.4l1.1,0.7l0.5,0.2l0.7-0.1l0.3-0.2
		l0.6-0.6l0.4-0.1l1.1,0.1l2,0.9h1.2L217.6,0.9"/>
</g>
</svg>
